<svg width="122" height="20" viewBox="0 0 122 20" fill="none" xmlns="http://www.w3.org/2000/svg">
<path d="M12.3855 9.34039C14.5174 9.34039 15.4311 8.62975 15.4311 6.80238C15.4311 5.07653 14.5174 4.26436 12.3855 4.26436H3.65474V9.34039H12.3855ZM0 1.21875H12.9946C16.7509 1.21875 19.0859 3.75676 19.0859 6.80238C19.0859 10.4571 16.4463 12.386 12.9946 12.386H3.65474V19.4924H0V1.21875Z" fill="#F15748"/>
<path d="M21.0154 18.8833V15.9392C23.2488 16.7514 25.0762 17.056 27.4112 17.056C30.6598 17.056 31.9796 16.7514 31.9796 15.6347C31.9796 12.8936 20.4062 16.0408 20.4062 10.3556C20.4062 7.41152 23.4519 5.99023 28.0203 5.99023C29.5431 5.99023 32.2841 6.2948 34.5176 6.70088V9.54345C32.6902 9.13737 30.3553 8.83281 28.4264 8.83281C25.3808 8.83281 24.061 9.34041 24.061 10.2541C24.061 12.7921 35.6343 9.84801 35.6343 15.5332C35.6343 18.5788 32.5887 19.797 28.0203 19.797C25.9899 19.8985 23.1473 19.4925 21.0154 18.8833Z" fill="#F15748"/>
<path d="M37.5613 6.39579H41.216V19.3904H37.5613V6.39579ZM37.0537 2.03041C37.0537 0.609123 37.9674 0 39.2872 0C40.7084 0 41.6221 0.710644 41.6221 2.03041C41.6221 3.4517 40.7084 4.16234 39.2872 4.16234C37.9674 4.16234 37.0537 3.55322 37.0537 2.03041Z" fill="#F15748"/>
<path d="M58.476 16.3453C60.4049 16.3453 61.5216 15.6347 61.5216 13.9088C61.5216 12.2845 60.4049 11.5738 58.476 11.5738H48.9331V16.3453H58.476ZM45.2783 1.21875H58.8821C62.6383 1.21875 64.7703 3.24916 64.7703 5.99021C64.7703 8.62975 62.8414 9.94951 59.6942 10.1526C63.1459 10.2541 65.3794 11.7769 65.3794 14.6195C65.3794 17.5635 63.0444 19.4924 59.4912 19.4924H45.2783V1.21875ZM57.9684 8.93431C59.8973 8.93431 61.014 8.32518 61.014 6.70086C61.014 5.07653 59.8973 4.36589 57.9684 4.36589H49.0346V8.93431H57.9684Z" fill="#F15748"/>
<path d="M83.1459 19.3911H79.0851L79.5927 14.0105H79.3897C78.8821 17.4622 76.9532 19.7972 72.9939 19.7972C69.3391 19.7972 67.6133 17.6653 67.6133 11.9801V6.39648H71.268V11.574C71.268 15.5333 72.2832 17.0561 74.8212 17.0561C77.6638 17.0561 79.4912 14.3151 79.4912 10.0512V6.39648H83.1459V19.3911Z" fill="#F15748"/>
<path d="M87.4094 9.13727H85.6836V6.39621H87.4094V5.88861C87.4094 2.53843 88.4246 1.01562 91.6733 1.01562C92.587 1.01562 93.3992 1.21867 94.7189 1.42171V3.45212C94.4144 3.45212 94.1098 3.45212 93.8052 3.45212C91.3687 3.45212 91.1657 4.06124 91.1657 6.49773H94.7189V8.93422H91.1657V19.4924H87.511L87.4094 9.13727Z" fill="#F15748"/>
<path d="M107.712 12.0815C107.61 9.74653 106.189 8.93437 103.346 8.93437C100.605 8.93437 99.184 9.84806 98.981 12.3861L107.712 12.0815ZM95.5293 12.9952C95.5293 8.83285 98.6764 6.0918 103.346 6.0918C108.016 6.0918 111.062 8.42677 111.163 11.98V14.1119H98.981C99.3871 16.2438 101.113 17.1575 104.565 17.1575C107.712 17.1575 109.032 16.3454 110.554 15.7362V18.6803C108.016 19.6955 106.595 20.0001 103.245 20.0001C98.6764 19.8986 95.5293 17.1575 95.5293 12.9952Z" fill="#F15748"/>
<path d="M114.313 14.7197V9.13603H112.485V6.39497H114.922V3.24784L118.069 2.74023V6.39497H121.825V9.13603H118.069V14.009C118.069 16.6485 118.069 17.2577 120.404 17.2577C120.81 17.2577 121.216 17.2577 121.825 17.1561V19.085C120.709 19.3896 119.693 19.5926 118.272 19.5926C114.82 19.6942 114.313 18.4759 114.313 14.7197Z" fill="#F15748"/>
</svg>
