<svg width="173" height="115" viewBox="0 0 173 115" fill="none" xmlns="http://www.w3.org/2000/svg">
<path d="M9.57407 8.60156C12.3456 10.9908 14.9261 13.3801 17.6021 15.6738C17.6976 15.6738 17.6021 15.9606 17.5065 16.2473C17.1242 16.0561 16.7419 16.1517 16.5508 15.9606C14.2571 13.9536 12.1545 12.0421 9.86078 10.1307C9.4785 9.74842 9.00064 9.27056 9.57407 8.60156Z" fill="#F15748"/>
<path d="M12.2499 23.0327C11.8676 23.1283 11.4853 23.3194 11.103 23.3194C9.00044 23.6061 6.8023 23.8929 4.69973 24.1796C3.55287 24.3707 2.40602 24.5619 1.25916 24.6574C0.781304 24.753 0.303447 24.8486 0.112305 24.1796C0.685733 23.7973 8.33144 22.4593 10.8163 22.3637C11.3897 22.2681 11.3897 22.2681 12.2499 23.0327Z" fill="#F15748"/>
<path d="M23.5268 10.6084C22.9534 7.16785 22.6667 3.82285 22.7623 0.477856C22.7623 0.286714 22.9534 0.191143 23.049 0C23.8135 0.191143 23.718 0.669 23.718 1.14686C23.5268 3.91842 23.9091 6.68999 24.387 9.46156C24.4825 10.3217 24.4825 10.3217 23.5268 10.6084Z" fill="#F15748"/>
<path d="M164.171 104.094C161.239 102.01 158.299 99.8301 155.469 97.8344C155.374 97.8414 155.448 97.5484 155.427 97.2625C155.815 97.3298 156.197 97.3017 156.401 97.4783C158.829 99.2162 161.25 100.859 163.678 102.597C164.189 103.038 164.694 103.384 164.171 104.094Z" fill="#F15748"/>
<path d="M160.069 90.0252C160.444 89.9018 160.811 89.6831 161.192 89.6551C163.261 89.1195 165.432 88.6721 167.501 88.1365C168.631 87.8617 169.753 87.4916 170.89 87.3121C171.36 87.1817 171.829 87.0513 172.157 87.6021C171.614 88.0255 164.108 90.2071 161.739 90.5731C160.983 90.7246 160.983 90.7246 160.069 90.0252Z" fill="#F15748"/>
<path d="M150.048 103.593C150.967 106.975 151.594 110.283 151.84 113.619C151.854 113.809 151.67 113.919 151.589 114.116C150.812 113.982 150.873 113.498 150.838 113.022C150.729 110.251 150.145 107.515 149.376 104.888C149.116 103.949 149.116 103.949 150.048 103.593Z" fill="#F15748"/>
<path d="M23.3372 19.3053L22.8594 101.019L140.985 100.636L158.953 72.6341L159.335 11.1817L157.519 10.7039L76.4749 9.84375H50.6706L45.8921 11.564L23.3372 19.3053Z" fill="white"/>
<path d="M158.857 72.0666C158.475 73.978 156.85 77.0363 156.085 78.4699C151.593 87.358 146.528 95.0037 140.889 100.929C140.507 98.3487 141.272 95.6727 141.941 93.379C142.896 90.4163 144.33 88.5048 145.19 85.5421C150.447 77.5141 152.262 74.1691 154.652 66.5234C155.703 63.3696 158.475 50.9453 158.475 50.9453C159.048 55.915 159.43 69.1994 158.857 72.0666Z" fill="#BABAB9"/>
<path d="M158.379 71.5889C158.283 72.1624 157.996 72.7358 157.71 73.2137C156.849 74.4561 156.085 75.8897 155.32 77.3232C151.689 83.7265 148.057 89.9386 144.425 96.2463C143.661 97.4888 142.705 98.4445 141.558 99.9736C141.463 98.6356 141.463 98.0622 141.463 97.3932C141.558 90.2253 141.654 82.9619 141.654 75.7941C141.749 69.1997 141.749 62.4141 141.749 55.8197C141.749 55.533 141.749 55.3418 141.749 55.2463C141.845 50.181 141.463 25.3324 141.558 20.1716C141.654 19.5026 141.558 18.9292 140.889 18.5469C140.794 19.0247 140.698 19.2159 140.698 19.5982C140.602 25.6192 140.985 51.4234 140.985 57.3488C141.08 64.899 140.985 65.8547 140.985 73.3092C140.985 82.1018 140.794 90.7988 140.698 99.5913C140.698 100.165 140.794 100.547 140.889 100.929C142.705 101.12 143.852 99.3046 144.903 97.5843C147.006 93.9526 149.204 90.2253 151.306 86.5936C153.887 82.1018 156.467 77.8011 159.143 73.3092C159.239 73.2137 159.239 73.1181 159.334 72.9269C158.952 72.7358 158.665 72.1624 158.379 71.5889Z" fill="black" stroke="black" stroke-width="0.3422" stroke-miterlimit="10"/>
<path d="M142.323 90.7003C142.323 88.9801 143.088 88.2155 143.757 87.4509C145.859 84.8705 147.962 82.4812 150.16 80.1875C149.109 82.1945 147.771 84.0104 146.433 85.5395C144.999 87.1642 143.757 88.8845 142.323 90.7003Z" fill="black"/>
<path d="M147.675 79.9062C146.05 81.9132 144.425 83.9202 142.705 86.0228C143.087 83.7291 145.19 81.2442 147.675 79.9062Z" fill="black"/>
<path d="M142.323 93.4741C143.566 90.8937 144.999 88.9823 146.72 87.4531C145.477 89.5557 144.235 91.5627 142.992 93.7608C142.897 93.8564 142.61 93.6653 142.323 93.4741Z" fill="black"/>
<path d="M150.446 82.4766C149.777 84.1968 148.821 85.2481 147.77 86.0127C148.534 84.7703 149.203 82.9544 150.446 82.4766Z" fill="black"/>
<path d="M150.446 82.5721C150.733 81.7119 151.02 80.8518 151.498 79.6094C151.498 81.3297 151.498 81.3297 150.446 82.5721C150.446 82.4765 150.446 82.5721 150.446 82.5721Z" fill="black"/>
<path d="M144.139 13.4826C142.992 13.2915 142.514 13.1003 141.558 13.0048C140.794 12.9092 140.029 12.9092 138.978 12.7181C140.316 12.6225 141.749 12.4314 143.661 12.2402C140.316 11.9535 137.831 12.3358 134.964 12.2402C136.875 11.7624 145.477 11.6668 150.542 11.8579C149.013 12.5269 146.146 12.2402 144.043 12.5269C144.234 12.6225 144.808 12.8136 144.808 13.0048C144.999 13.1959 144.425 13.3871 144.139 13.4826Z" fill="black"/>
<path d="M149.203 17.9682C149.108 18.2549 149.108 18.5417 148.917 18.7328C147.387 20.8354 145.954 22.9379 144.329 25.0405C143.947 25.5184 143.565 25.9962 142.991 25.6139C144.903 22.9379 146.814 20.2619 148.725 17.5859C148.917 17.7771 149.108 17.8727 149.203 17.9682Z" fill="black"/>
<path d="M149.969 20.4531C148.536 22.4601 147.293 24.1804 145.955 26.0918C146.051 24.0848 148.153 20.931 149.969 20.4531Z" fill="black"/>
<path d="M36.0479 17.9721C36.5257 16.9208 38.1504 16.8252 39.1061 16.1562C39.3928 16.9208 37.7681 17.8765 36.0479 17.9721Z" fill="black"/>
<path d="M35.1875 17.1062C34.8052 15.9593 35.4742 15.3859 37.0033 15.9593C36.621 16.1505 36.2388 16.246 35.952 16.4372C35.5698 16.5328 35.3786 16.8195 35.1875 17.1062Z" fill="black"/>
<path d="M27.6375 88.4109C28.4977 89.94 29.4534 91.4692 30.6003 92.8072C33.3718 96.0566 37.2903 98.1592 41.3998 99.306C45.5094 100.453 49.8101 100.835 54.0152 101.122C51.1481 103.033 47.4208 103.129 43.9802 103.033C37.7681 102.938 31.556 102.555 25.3438 102.269C24.866 102.269 24.2926 102.173 23.9103 101.886C23.4324 101.504 23.3368 100.74 23.2413 100.166C22.859 95.961 22.5723 91.7559 22.19 87.5507C22.0944 86.4995 21.6166 81.6253 23.7191 82.1032C24.9616 82.4855 26.9685 87.264 27.6375 88.4109Z" fill="#BABAB9"/>
<path d="M29.2612 87.067C29.2612 89.6474 29.4524 92.6101 31.3638 94.3304C33.1797 95.9551 35.8557 96.1462 38.2449 96.1462C69.7835 96.2418 101.322 95.6684 132.765 94.3304C133.338 94.3304 133.912 94.2348 134.485 94.0437C135.823 93.3747 136.014 91.5588 136.014 90.0297C135.537 64.99 135.728 48.265 135.345 23.2253C123.59 22.9386 111.93 22.7475 100.175 22.5563C88.5154 22.3652 76.8557 22.3652 65.196 22.3652C59.3662 22.3652 53.4408 22.3652 47.6109 22.4608C41.8767 22.4608 35.8557 22.0785 30.1214 22.6519C29.1657 22.7475 29.2612 22.5563 29.0701 23.3209C28.879 23.9899 29.0701 25.0412 29.0701 25.7102C29.0701 27.1438 29.0701 28.5773 29.1657 30.1065C29.1657 32.9736 29.2612 35.9363 29.2612 38.8035C29.3568 44.6333 28.7834 42.1485 28.879 47.9783C29.0701 59.638 29.1657 71.3933 29.3568 83.053C29.2612 84.2954 29.2612 85.6334 29.2612 87.067Z" fill="#F15748"/>
<path d="M28.3064 92.3256C28.8799 90.892 29.4533 89.554 30.1223 87.8337C31.3647 89.2673 30.9824 90.6053 30.9824 91.8477C30.9824 93.1857 30.8868 94.4282 30.7913 95.8617C32.3204 95.3839 32.0337 93.8547 33.3717 93.1857C34.2318 94.1414 35.1876 95.2883 36.0477 96.4352C34.5186 96.8174 34.1363 95.3839 33.085 94.7149C32.3204 96.0529 31.5558 97.2953 30.6957 98.8244C29.74 97.2953 30.3134 95.9573 30.2179 94.6193C30.1223 93.2813 30.3134 92.0389 30.0267 90.7009C28.5931 92.9946 28.3064 95.7661 27.1596 98.251C26.5861 96.4351 26.9684 94.7149 27.064 92.899C27.2551 90.4142 27.5419 88.0249 27.6374 85.54C27.733 84.7755 27.4463 83.9153 27.1596 83.1507C26.8729 82.195 27.064 81.6216 27.8286 80.5703C28.7843 84.7754 28.402 88.5027 28.3064 92.3256Z" fill="black"/>
<path d="M33.8496 53.8203H36.3345C37.9592 53.8203 38.8193 54.776 38.8193 56.4007V57.452C38.8193 59.1723 37.9592 60.0324 36.3345 60.0324H35.5699V64.3332H33.9452L33.8496 53.8203ZM36.3345 58.5989C36.9079 58.5989 37.1946 58.3122 37.1946 57.6432V56.4007C37.1946 55.6362 36.9079 55.445 36.3345 55.445H35.5699V58.6945L36.3345 58.5989Z" fill="white"/>
<path d="M39.7754 61.8441V56.301C39.7754 54.5807 40.6355 53.625 42.2602 53.625C43.885 53.625 44.7451 54.5807 44.7451 56.301V61.8441C44.7451 63.5644 43.885 64.5201 42.2602 64.5201C40.6355 64.5201 39.7754 63.5644 39.7754 61.8441ZM43.216 62.0353V56.2054C43.216 55.4409 42.9292 55.1541 42.3558 55.1541C41.7824 55.1541 41.4957 55.4409 41.4957 56.2054V62.0353C41.4957 62.7998 41.7824 63.0866 42.3558 63.0866C42.9292 63.0866 43.216 62.7043 43.216 62.0353Z" fill="white"/>
<path d="M45.9873 61.8441V61.2707H47.612V62.0353C47.612 62.7998 47.8987 63.0866 48.4722 63.0866C49.0456 63.0866 49.3323 62.7998 49.3323 62.0353C49.3323 61.1751 49.0456 60.6017 47.8987 59.646C46.4652 58.4036 46.0829 57.5434 46.0829 56.301C46.0829 54.6763 46.943 53.625 48.5677 53.625C50.1924 53.625 50.957 54.5807 50.957 56.301V56.7789H49.3323V56.2054C49.3323 55.4409 49.0456 55.1541 48.4722 55.1541C47.8987 55.1541 47.612 55.4409 47.612 56.2054C47.612 56.97 47.9943 57.5434 49.0456 58.4991C50.4792 59.7416 50.8614 60.6017 50.8614 61.9397C50.8614 63.66 50.0013 64.6157 48.3766 64.6157C46.7519 64.6157 45.9873 63.5644 45.9873 61.8441Z" fill="white"/>
<path d="M52.1035 53.8203H53.7282V64.4287H52.1035V53.8203Z" fill="white"/>
<path d="M59.9411 62.8996V64.4287H55.5448V62.0395L54.7803 62.8996V61.0837L55.5448 60.2236V53.8203H57.1696V58.4077L58.9854 56.4963V58.3122L57.1696 60.2236V62.8996H59.9411Z" fill="white"/>
<path d="M60.9921 53.8203H62.6168V58.3122L64.7193 53.8203H66.3441L64.337 57.7387L66.3441 64.4287H64.6238L63.1902 59.6502L62.5212 60.9882V64.3332H60.8965V53.8203H60.9921Z" fill="white"/>
<path d="M67.4912 53.8203H69.1159V64.4287H67.4912V53.8203Z" fill="white"/>
<path d="M73.3203 53.8203H75.8052C77.4299 53.8203 78.29 54.776 78.29 56.4007V57.452C78.29 59.1723 77.4299 60.0324 75.8052 60.0324H75.0406V64.3332H73.4159L73.3203 53.8203ZM75.7096 58.5989C76.283 58.5989 76.5697 58.3122 76.5697 57.6432V56.4007C76.5697 55.6362 76.283 55.445 75.7096 55.445H74.945V58.6945L75.7096 58.5989Z" fill="white"/>
<path d="M79.1504 61.8441V61.2707H80.7751V62.0353C80.7751 62.7998 81.0618 63.0866 81.6353 63.0866C82.2087 63.0866 82.4954 62.7998 82.4954 62.0353C82.4954 61.1751 82.2087 60.6017 81.0618 59.646C79.6282 58.4036 79.246 57.5434 79.246 56.301C79.246 54.6763 80.1061 53.625 81.7308 53.625C83.3555 53.625 84.1201 54.5807 84.1201 56.301V56.7789H82.4954V56.2054C82.4954 55.4409 82.2087 55.1541 81.6353 55.1541C81.0618 55.1541 80.7751 55.4409 80.7751 56.2054C80.7751 56.97 81.1574 57.5434 82.2087 58.4991C83.6422 59.7416 84.0245 60.6017 84.0245 61.9397C84.0245 63.66 83.1644 64.6157 81.5397 64.6157C79.915 64.6157 79.1504 63.5644 79.1504 61.8441Z" fill="white"/>
<path d="M85.2666 53.8203H86.8913V64.4287H85.2666V53.8203Z" fill="white"/>
<path d="M88.0391 64.4287V62.8996C88.2302 62.8996 88.4213 62.9952 88.6125 62.9952C89.2815 62.9952 89.5682 62.7084 89.5682 61.9439V53.8203H91.1929V61.9439C91.1929 63.6642 90.4283 64.5243 88.8036 64.5243C88.5169 64.4287 88.3258 64.4287 88.0391 64.4287Z" fill="white"/>
<path d="M92.7207 53.8203H97.3081V55.3495H94.441V58.121H96.7347V59.6502H94.441V62.8996H97.3081V64.4287H92.7207V53.8203Z" fill="white"/>
<path d="M98.2646 61.9397V56.2054C98.2646 54.5807 99.1248 53.625 100.75 53.625C102.374 53.625 103.234 54.5807 103.234 56.2054V57.3523H101.61V56.1099C101.61 55.4409 101.323 55.1541 100.75 55.1541C100.272 55.1541 99.8894 55.4409 99.8894 56.1099V62.0353C99.8894 62.7043 100.176 62.991 100.75 62.991C101.227 62.991 101.61 62.7043 101.61 62.0353V60.4106H103.234V61.9397C103.234 63.5644 102.374 64.5201 100.75 64.5201C99.1248 64.5201 98.2646 63.5644 98.2646 61.9397Z" fill="white"/>
<path d="M104.478 53.8203H106.102V58.121H107.918V53.8203H109.543V64.4287H107.918V59.6502H106.102V64.4287H104.478V53.8203Z" fill="white"/>
<path d="M112.314 53.8203H114.608L116.328 64.4287H114.703L114.417 62.3262H112.505L112.219 64.4287H110.689L112.314 53.8203ZM114.13 60.8926L113.365 55.6362L112.601 60.8926H114.13Z" fill="white"/>
<path d="M122.062 62.8996V64.4287H117.666V62.0395L116.901 62.8996V61.0837L117.666 60.2236V53.8203H119.291V58.4077L121.107 56.4963V58.3122L119.291 60.2236V62.8996H122.062Z" fill="white"/>
<path d="M123.495 59.8353L121.488 53.7188H123.304L124.451 57.6372L125.598 53.7188H127.223L125.216 59.8353V64.3272H123.591L123.495 59.8353Z" fill="white"/>
<path d="M128.273 58.2166V53.8203H129.898V58.2166L129.707 61.5616H128.465L128.273 58.2166ZM128.273 62.804H129.898V64.4287H128.273V62.804Z" fill="white"/>
<path d="M69.6891 88.6007C70.2626 88.6007 70.4537 88.4096 70.4537 87.9317C70.4537 87.4539 70.167 87.2627 69.6891 87.2627H67.491V88.5052L69.6891 88.6007ZM66.6309 86.5938H69.8803C70.836 86.5938 71.4094 87.1672 71.4094 87.9317C71.4094 88.8875 70.7404 89.3653 69.8803 89.3653H67.5866V91.1812H66.6309V86.5938Z" fill="white"/>
<path d="M71.8876 90.9916V90.227C72.461 90.4182 72.9389 90.5138 73.5123 90.5138C74.2768 90.5138 74.6591 90.4182 74.6591 90.1315C74.6591 89.4625 71.792 90.227 71.792 88.889C71.792 88.1245 72.5566 87.8378 73.7034 87.7422C74.0857 87.7422 74.7547 87.8378 75.3281 87.9333V88.6979C74.8503 88.6023 74.2768 88.5068 73.799 88.5068C73.0344 88.5068 72.6521 88.6023 72.6521 88.889C72.6521 89.558 75.5193 88.7935 75.6148 90.227C75.6148 90.9916 74.8503 91.2783 73.7034 91.2783C73.13 91.1828 72.461 91.0872 71.8876 90.9916Z" fill="white"/>
<path d="M75.9969 87.8375H76.9527V91.0869H75.9969V87.8375ZM75.9014 86.6906C75.9014 86.3083 76.0925 86.2128 76.4748 86.1172C76.8571 86.1172 77.0482 86.3083 77.0482 86.595C77.0482 86.9773 76.8571 87.1685 76.4748 87.1685C76.0925 87.264 75.9014 87.0729 75.9014 86.6906Z" fill="white"/>
<path d="M81.2532 90.2273C81.7311 90.2273 82.0178 90.0361 82.0178 89.5583C82.0178 89.176 81.7311 88.9849 81.2532 88.9849H78.8639V90.2273H81.2532ZM77.9082 86.5H81.3488C82.3045 86.5 82.7823 86.9779 82.8779 87.6469C82.8779 88.3159 82.4001 88.6026 81.6355 88.6981C82.4956 88.6981 83.0691 89.0804 83.0691 89.7494C83.0691 90.514 82.4956 90.9918 81.6355 90.9918H78.0993L77.9082 86.5ZM81.1576 88.4114C81.6355 88.4114 81.9222 88.2203 81.9222 87.838C81.9222 87.4557 81.6355 87.2646 81.1576 87.2646H78.9595V88.4114H81.1576Z" fill="white"/>
<path d="M87.4652 90.9916H86.4139L86.5095 89.6536H86.4139C86.3183 90.5138 85.8405 91.0872 84.7892 91.0872C83.8335 91.0872 83.4512 90.6093 83.4512 89.1758V87.7422H84.4069V89.0802C84.4069 90.0359 84.6936 90.4182 85.3626 90.4182C86.0316 90.4182 86.5095 89.7492 86.5095 88.6023V87.7422H87.4652V90.9916Z" fill="white"/>
<path d="M88.5171 88.3195H88.1348V87.6505H88.5171V87.5549C88.5171 86.6948 88.8038 86.3125 89.5683 86.3125C89.7595 86.3125 90.0462 86.3125 90.3329 86.4081V86.8859C90.2373 86.8859 90.1418 86.8859 90.1418 86.8859C89.5683 86.8859 89.4728 87.0771 89.4728 87.6505H90.3329V88.2239H89.4728V90.8999H88.5171V88.3195Z" fill="white"/>
<path d="M93.5819 89.076C93.5819 88.5026 93.1996 88.3114 92.5306 88.3114C91.8616 88.3114 91.4793 88.5982 91.4793 89.1716L93.5819 89.076ZM90.6191 89.2672C90.6191 88.2159 91.3837 87.5469 92.5306 87.5469C93.6774 87.5469 94.442 88.1203 94.5376 88.9804V89.5539H91.4793C91.5749 90.1273 92.0527 90.3184 92.9129 90.3184C93.6774 90.3184 94.0597 90.1273 94.442 89.9362V90.7007C93.773 90.9874 93.4863 90.9874 92.6261 91.083C91.3837 90.9874 90.6191 90.3184 90.6191 89.2672Z" fill="white"/>
<path d="M95.3021 89.658V88.2245H94.8242V87.5555H95.3976V86.7909L96.1622 86.6953V87.651H97.1179V88.32H96.1622V89.5625C96.1622 90.2315 96.1622 90.4226 96.7356 90.4226C96.8312 90.4226 96.9268 90.4226 97.1179 90.4226V90.9005C96.8312 90.996 96.5445 90.996 96.2578 90.996C95.3976 90.9004 95.3021 90.6137 95.3021 89.658Z" fill="white"/>
<path d="M35.6658 39.2888C35.6658 39.1933 35.7614 39.0977 35.857 39.0021C35.9525 38.811 36.0481 38.6198 36.0481 38.3331C36.0481 38.2376 35.9525 38.142 35.9525 38.142C35.7614 38.0464 35.5702 38.0464 35.3791 38.142C34.9968 38.2376 34.8057 38.5243 34.8057 38.9066C34.8057 39.0977 34.8057 39.2888 34.9968 39.3844C35.0924 39.48 35.3791 39.48 35.6658 39.2888Z" fill="white"/>
<path d="M36.7166 40.5293C37.0033 40.5293 37.1945 40.5293 37.4812 40.3381C37.5767 40.2426 37.7679 40.0514 37.7679 39.8603C37.7679 39.7647 37.7679 39.6691 37.6723 39.6691C37.5767 39.5736 37.3856 39.478 37.29 39.478C37.0989 39.3824 36.621 39.5736 36.5255 39.8603C36.3343 40.147 36.5255 40.5293 36.7166 40.5293Z" fill="white"/>
<path d="M35.856 42.731C35.9515 42.6354 36.0471 42.5398 36.1427 42.3487C36.2383 42.1575 36.3338 41.9664 36.3338 41.7752C36.4294 41.2018 36.4294 40.9151 35.9515 40.4372C35.856 40.3417 35.7604 40.3417 35.6648 40.2461C35.4737 40.1505 35.187 40.055 34.9958 40.055C34.6135 39.9594 34.3268 39.9594 33.9445 40.1505C33.6578 40.2461 33.4667 40.3417 33.18 40.4372C32.8933 40.5328 32.7977 40.8195 32.8933 41.1062C32.9888 41.2018 33.0844 41.2974 33.18 41.4885C33.3711 41.6797 33.5623 41.7752 33.7534 41.9664C33.9445 42.1575 34.0401 42.4442 34.1357 42.6354C34.1357 42.8265 34.2313 43.0177 34.3268 43.1132C34.3268 43.2088 34.4224 43.3044 34.518 43.3044C34.8047 43.4 34.9958 43.4955 35.2825 43.3044C35.3781 43.2088 35.5693 43.1132 35.6648 43.1132C35.6648 42.9221 35.7604 42.8265 35.856 42.731Z" fill="white"/>
<path d="M38.0539 42.0526C38.1495 41.8615 38.1495 41.5748 37.8628 41.4792C37.5761 41.288 37.1938 41.3836 37.0027 41.5748C36.8115 41.7659 36.8115 41.7659 36.8115 41.957C36.9071 42.2438 37.0982 42.2438 37.3849 42.3393C37.6717 42.3393 37.8628 42.2438 38.0539 42.0526Z" fill="white"/>
<path d="M37.6717 28.2967C37.6717 28.2011 37.7672 28.1055 37.8628 28.0099C37.9584 27.8188 38.0539 27.6277 38.0539 27.3409C38.0539 27.2454 37.9584 27.1498 37.9584 27.1498C37.7672 27.0542 37.5761 27.0542 37.3849 27.1498C37.0027 27.2454 36.8115 27.5321 36.8115 27.9144C36.8115 28.1055 36.8115 28.2967 37.0027 28.3922C37.1938 28.4878 37.4805 28.4878 37.6717 28.2967Z" fill="white"/>
<path d="M38.8191 29.5371C39.1059 29.5371 39.297 29.5371 39.5837 29.3459C39.6793 29.2504 39.8704 29.0592 39.8704 28.8681C39.8704 28.7725 39.8704 28.6769 39.7749 28.6769C39.6793 28.5814 39.4881 28.4858 39.3926 28.4858C39.2014 28.3902 38.7236 28.5814 38.628 28.8681C38.4369 29.1548 38.628 29.5371 38.8191 29.5371Z" fill="white"/>
<path d="M37.9585 31.7388C38.0541 31.6432 38.1497 31.5476 38.2452 31.3565C38.3408 31.1653 38.4364 30.9742 38.4364 30.7831C38.5319 30.2096 38.5319 29.9229 38.0541 29.4451C37.9585 29.3495 37.8629 29.3495 37.7674 29.2539C37.5762 29.1583 37.2895 29.0628 37.0984 29.0628C36.7161 28.9672 36.4294 28.9672 36.0471 29.1583C35.7604 29.2539 35.5692 29.3495 35.2825 29.4451C34.9958 29.5406 34.9002 29.8273 34.9958 30.1141C35.0914 30.2096 35.1869 30.3052 35.2825 30.4963C35.4737 30.6875 35.6648 30.7831 35.8559 30.9742C36.0471 31.1653 36.1427 31.4521 36.2382 31.6432C36.2382 31.8343 36.3338 32.0255 36.4294 32.1211C36.4294 32.2166 36.5249 32.3122 36.6205 32.3122C36.9072 32.4078 37.0984 32.5033 37.3851 32.3122C37.4807 32.2166 37.6718 32.1211 37.7674 32.1211C37.7674 31.9299 37.8629 31.8343 37.9585 31.7388Z" fill="white"/>
<path d="M40.1575 31.0604C40.253 30.8693 40.253 30.5826 39.9663 30.487C39.6796 30.2959 39.2973 30.3914 39.1062 30.5826C38.915 30.7737 38.915 30.7737 38.915 30.9649C39.0106 31.2516 39.2018 31.2516 39.4885 31.3471C39.7752 31.4427 39.9663 31.3471 40.1575 31.0604Z" fill="white"/>
<path d="M47.9939 36.1326C47.9939 36.037 48.0895 35.9415 48.1851 35.8459C48.2806 35.6547 48.3762 35.4636 48.3762 35.1769C48.3762 35.0813 48.2806 34.9857 48.2806 34.9857C48.0895 34.8902 47.8984 34.8902 47.7072 34.9857C47.3249 35.0813 47.1338 35.368 47.1338 35.7503C47.1338 35.9415 47.1338 36.1326 47.3249 36.2282C47.4205 36.3237 47.7072 36.3237 47.9939 36.1326Z" fill="white"/>
<path d="M49.0457 37.373C49.3324 37.373 49.5236 37.373 49.8103 37.1819C49.9058 37.0863 50.097 36.8952 50.097 36.704C50.097 36.6084 50.097 36.5129 50.0014 36.5129C49.9058 36.4173 49.7147 36.3217 49.6191 36.3217C49.428 36.2262 48.9501 36.4173 48.8546 36.704C48.6634 36.9907 48.8546 37.373 49.0457 37.373Z" fill="white"/>
<path d="M48.1851 39.5669C48.2806 39.4713 48.3762 39.3758 48.4718 39.1846C48.5674 38.9935 48.6629 38.8023 48.6629 38.6112C48.7585 38.0378 48.7585 37.751 48.2806 37.2732C48.1851 37.1776 48.0895 37.1776 47.9939 37.082C47.8028 36.9865 47.5161 36.8909 47.3249 36.8909C46.9426 36.7953 46.6559 36.7953 46.2736 36.9865C45.9869 37.082 45.7958 37.1776 45.5091 37.2732C45.2224 37.3688 45.1268 37.6555 45.2224 37.9422C45.3179 38.0378 45.4135 38.1333 45.5091 38.3245C45.7002 38.5156 45.8914 38.6112 46.0825 38.8023C46.2736 38.9935 46.3692 39.2802 46.4648 39.4713C46.4648 39.6625 46.5604 39.8536 46.6559 39.9492C46.6559 40.0448 46.7515 40.1403 46.8471 40.1403C47.1338 40.2359 47.3249 40.3315 47.6116 40.1403C47.7072 40.0448 47.8984 39.9492 47.9939 39.9492C47.9939 39.758 48.0895 39.6625 48.1851 39.5669Z" fill="white"/>
<path d="M50.3831 38.9042C50.4786 38.713 50.4786 38.4263 50.1919 38.3308C49.9052 38.1396 49.5229 38.2352 49.3318 38.4263C49.1406 38.6175 49.1406 38.6175 49.1406 38.8086C49.2362 39.0953 49.4273 39.0953 49.7141 39.1909C50.0008 39.1909 50.1919 39.0953 50.3831 38.9042Z" fill="white"/>
<path d="M50.574 25.9998C50.574 25.9042 50.6696 25.8086 50.7651 25.7131C50.8607 25.5219 50.9563 25.3308 50.9563 25.0441C50.9563 24.9485 50.8607 24.8529 50.8607 24.8529C50.6696 24.7574 50.4784 24.7574 50.2873 24.8529C49.905 24.9485 49.7139 25.2352 49.7139 25.6175C49.7139 25.8086 49.7139 25.9998 49.905 26.0954C50.0961 26.1909 50.3829 26.0954 50.574 25.9998Z" fill="white"/>
<path d="M51.7215 27.248C52.0082 27.248 52.1993 27.248 52.4861 27.0569C52.5816 26.9613 52.7728 26.7702 52.7728 26.579C52.7728 26.4835 52.7728 26.3879 52.6772 26.3879C52.5816 26.2923 52.3905 26.1967 52.2949 26.1967C52.1038 26.1012 51.6259 26.2923 51.5303 26.579C51.3392 26.8657 51.5303 27.248 51.7215 27.248Z" fill="white"/>
<path d="M50.8609 29.4419C50.9564 29.3463 51.052 29.2508 51.1476 29.0596C51.2431 28.8685 51.3387 28.6773 51.3387 28.4862C51.4343 27.9128 51.4343 27.626 50.9564 27.1482C50.8609 27.0526 50.7653 27.0526 50.6697 26.957C50.4786 26.8615 50.1919 26.7659 50.0007 26.7659C49.6184 26.6703 49.3317 26.6703 48.9494 26.8615C48.6627 26.957 48.4716 27.0526 48.1849 27.1482C47.8981 27.2438 47.8026 27.5305 47.8981 27.8172C47.9937 27.9128 48.0893 28.0083 48.1849 28.1995C48.376 28.3906 48.5671 28.4862 48.7583 28.6773C48.9494 28.8685 49.045 29.1552 49.1406 29.3463C49.1406 29.5375 49.2361 29.7286 49.3317 29.8242C49.3317 29.9198 49.4273 30.0153 49.5229 30.0153C49.8096 30.1109 50.0007 30.2065 50.2874 30.0153C50.383 29.9198 50.5741 29.8242 50.6697 29.8242C50.6697 29.633 50.7653 29.5375 50.8609 29.4419Z" fill="white"/>
<path d="M53.0588 28.7714C53.1544 28.5802 53.1544 28.2935 52.8677 28.1979C52.581 28.0068 52.1987 28.1024 52.0075 28.2935C51.8164 28.4847 51.8164 28.4847 51.8164 28.6758C51.912 28.9625 52.1031 28.9625 52.3898 29.0581C52.6766 29.0581 52.8677 28.9625 53.0588 28.7714Z" fill="white"/>
<path d="M60.4178 30.6873C60.4178 30.5917 60.5133 30.4961 60.6089 30.4006C60.7045 30.2094 60.8 30.0183 60.8 29.7316C60.8 29.636 60.7045 29.5404 60.7045 29.5404C60.5133 29.4449 60.3222 29.4449 60.1311 29.5404C59.7488 29.636 59.5576 29.9227 59.5576 30.305C59.5576 30.4961 59.5576 30.6873 59.7488 30.7829C59.9399 30.8784 60.2266 30.7829 60.4178 30.6873Z" fill="white"/>
<path d="M61.5652 31.9277C61.852 31.9277 62.0431 31.9277 62.3298 31.7366C62.4254 31.641 62.6165 31.4498 62.6165 31.2587C62.6165 31.1631 62.6165 31.0676 62.521 31.0676C62.4254 30.972 62.2342 30.8764 62.1387 30.8764C61.9475 30.7809 61.4697 30.972 61.3741 31.2587C61.183 31.4498 61.3741 31.9277 61.5652 31.9277Z" fill="white"/>
<path d="M60.7046 34.1294C60.8002 34.0338 60.8957 33.9383 60.9913 33.7471C61.0869 33.556 61.1825 33.3648 61.1825 33.1737C61.278 32.6003 61.278 32.3135 60.8002 31.8357C60.7046 31.7401 60.609 31.7401 60.5135 31.6445C60.3223 31.549 60.0356 31.4534 59.8445 31.4534C59.4622 31.3578 59.1755 31.3578 58.7932 31.549C58.5065 31.6445 58.3153 31.7401 58.0286 31.8357C57.7419 31.9313 57.6463 32.218 57.7419 32.5047C57.8375 32.6003 57.933 32.6958 58.0286 32.887C58.2197 33.0781 58.4109 33.1737 58.602 33.3648C58.7932 33.556 58.8887 33.8427 58.9843 34.0338C58.9843 34.225 59.0799 34.4161 59.1755 34.5117C59.1755 34.6073 59.271 34.7028 59.3666 34.7028C59.6533 34.7984 59.8445 34.894 60.1312 34.7028C60.2267 34.6073 60.4179 34.5117 60.5135 34.5117C60.4179 34.3205 60.609 34.225 60.7046 34.1294Z" fill="white"/>
<path d="M62.8079 33.4511C62.9034 33.2599 62.9034 32.9732 62.6167 32.8776C62.33 32.6865 61.9477 32.7821 61.7566 32.9732C61.5654 33.1643 61.5654 33.1643 61.5654 33.3555C61.661 33.6422 61.8521 33.6422 62.1389 33.7378C62.5211 33.7378 62.7123 33.6422 62.8079 33.4511Z" fill="white"/>
<path d="M142.227 100.262C140.985 100.262 142.227 100.262 140.985 100.262C141.558 98.9235 136.684 99.4014 135.059 99.4969C131.428 99.5925 125.98 99.9748 122.539 99.6881C111.74 100.261 105.145 99.9748 95.0148 100.07C86.6046 100.166 78.2899 100.548 70.0707 100.739C60.2269 100.931 52.0078 100.93 42.2595 100.93C36.2385 101.026 30.2175 101.122 23.7186 100.166C23.6231 100.261 23.4319 100.357 23.2408 100.357C22.6674 100.357 22.0939 100.357 21.5205 100.453C21.6161 101.982 22.6674 102.077 28.8795 102.364C39.4879 102.937 48.8539 102.746 59.6535 102.555C68.0637 102.364 76.5696 102.173 84.9799 102.077C89.9496 101.982 94.8237 101.886 99.6978 102.173C110.784 102.077 118.717 101.504 129.325 101.791C132.192 101.886 137.64 101.504 140.698 101.408C141.367 101.408 142.036 101.122 142.609 100.93C142.609 100.835 142.418 100.453 142.227 100.262Z" fill="black"/>
<path d="M21.9986 96.5346C21.9986 97.7771 21.9986 98.7328 21.9986 99.5929C22.2853 99.5929 22.5721 99.4974 22.8588 99.4974C22.9543 99.4974 22.9543 99.4974 22.9543 99.4974C23.8145 97.2036 23.4322 94.6232 23.4322 92.1384C23.3366 83.9192 23.2411 75.7001 23.2411 67.481C23.2411 61.1733 23.2411 54.9611 23.3366 48.749C23.4322 43.6837 23.4322 47.6021 23.6233 42.6324C23.8145 35.0823 23.9101 27.4366 24.1012 19.6953C23.5278 19.8865 23.0499 19.8865 22.4765 19.7909C22.4765 19.8865 22.4765 19.982 22.3809 20.0776C22.3809 20.7466 22.4765 21.32 22.4765 21.7979C22.3809 28.2012 22.2853 34.4133 22.0942 40.8166C21.9986 45.7863 22.1898 41.9634 21.9986 46.9331C21.9031 50.6604 21.7119 54.4833 21.7119 58.115C21.7119 62.6068 21.9031 67.0031 21.9031 71.495V96.5346H21.9986Z" fill="black"/>
<path d="M159.717 10.6138C158.952 10.5182 158.092 10.5182 157.136 10.5182C151.593 10.6138 146.146 10.4226 140.794 10.3271C134.677 10.2315 142.418 10.1359 136.302 10.0404C131.905 9.94479 127.605 10.0404 123.113 10.0404C118.717 10.0404 114.416 9.94478 109.924 9.94478C103.712 9.94478 97.4041 9.94479 91.192 9.84922C87.6559 9.84922 84.1197 9.75364 80.488 9.65807C74.8493 9.65807 69.2106 9.65807 63.6675 9.65807C61.087 9.65807 58.4111 9.75364 55.9262 9.5625C55.0661 9.5625 54.2059 9.5625 53.3458 9.65807C51.9122 9.75364 50.6698 9.84921 49.5229 10.0404C48.9495 10.1359 48.4716 10.2315 47.8982 10.2315C47.3248 10.5182 46.8469 10.8049 46.0824 10.9961C40.6348 12.9075 35.2828 14.7234 29.7397 16.6348C28.5928 17.0171 27.3504 17.3993 26.3947 17.7816C25.8212 18.0683 24.9611 18.3551 24.0054 18.4506L23.9098 18.5462C24.77 18.5462 25.6301 18.5462 26.3947 18.5462C26.9681 18.2595 27.446 18.0683 28.115 17.7816C34.4227 15.6791 40.8259 13.5765 47.1336 11.3784C47.6115 11.1872 48.0894 10.9961 48.6628 10.9005C48.5672 10.9005 48.5672 10.8049 48.6628 10.7094C49.5229 10.4226 50.6698 10.1359 52.0078 9.94478C52.1989 9.94478 52.4856 9.94478 52.5812 9.94478C53.0591 9.94478 53.6325 9.94478 54.1103 9.94478C64.7188 10.0404 75.3272 10.1359 85.9356 10.2315C93.6769 10.3271 101.514 10.3271 109.255 10.3271C123.304 10.4226 123.495 10.5182 137.544 10.6138C141.94 10.7094 146.528 10.8049 150.924 10.9005C151.498 10.9005 153.409 10.9961 154.46 11.0916C153.982 11.2828 150.829 12.9075 149.968 13.3854C144.616 16.3481 145.285 16.7303 140.22 18.3551C136.971 19.4063 122.922 18.5462 116.327 18.4506C109.255 18.3551 102.087 18.4506 95.0149 18.4506C91.3832 18.4506 87.847 18.4506 84.2153 18.4506C79.4367 18.4506 74.8493 18.5462 70.1663 18.5462C63.8586 18.5462 57.4553 18.5462 51.1476 18.6418C51.0521 18.6418 50.9565 18.6418 50.7654 18.6418H47.8982C45.4134 18.8329 33.2758 18.8329 27.7327 18.6418C27.6371 18.6418 27.5415 18.7373 27.2548 18.7373C26.0124 18.7373 24.8655 18.7373 23.6231 18.7373C23.432 18.9285 23.2408 19.0241 22.9541 19.2152C24.101 19.2152 25.1522 19.2152 26.2991 19.1196C26.6814 19.1196 26.8725 19.1196 26.9681 19.2152H29.5485C33.2758 19.2152 37.0031 19.3108 40.7304 19.3108C44.9355 19.3108 49.2362 19.2152 53.4413 19.2152C64.1453 19.1196 74.7537 19.0241 85.3622 19.0241C92.4344 18.9285 99.6023 19.0241 106.675 18.9285C113.46 18.8329 120.055 18.9285 126.649 19.1196C131.332 19.2152 141.176 19.4063 140.22 19.4063C141.271 19.2152 147.675 15.9658 154.078 12.3341C154.747 11.9518 155.989 11.9518 156.467 11.6651C156.85 11.4739 157.423 11.3784 157.996 11.2828C158.665 11.0916 159.43 10.9005 160.29 10.7094C160.099 10.7094 159.908 10.7094 159.717 10.6138Z" fill="black" stroke="black" stroke-width="0.3422" stroke-miterlimit="10"/>
<path d="M159.048 71.4961C159.048 71.305 159.048 71.2094 159.143 71.2094C159.143 70.636 159.143 70.1581 159.048 69.7758C159.143 62.608 159.239 55.3446 159.239 48.1767C159.335 41.5823 159.335 34.7967 159.335 28.2023C159.335 27.9156 159.335 27.7244 159.335 27.6289C159.43 22.5636 159.526 17.4028 159.717 12.2419C159.812 11.5729 159.717 10.9995 159.048 10.6172C158.952 11.095 158.857 11.2862 158.857 11.6685C158.761 17.6895 158.666 23.806 158.666 29.7314C158.761 37.2816 158.666 38.2373 158.666 45.6919C158.666 54.4844 158.474 63.1814 158.379 71.974C158.379 72.5474 158.474 72.9297 158.57 73.312C158.761 73.312 159.048 73.312 159.239 73.312C159.048 72.7385 159.048 72.1651 159.048 71.4961Z" fill="black" stroke="black" stroke-width="0.3422" stroke-miterlimit="10"/>
</svg>
