<svg width="196" height="121" viewBox="0 0 196 121" fill="none" xmlns="http://www.w3.org/2000/svg">
<path d="M25.2724 21.8972L22.957 22.9496L23.0623 26.3175L25.3777 101.041L81.7888 98.8311L115.783 98.0943L143.988 97.6734L166.3 97.7786L170.194 97.2524L170.405 95.8842L168.616 34.2108L168.405 23.2654L166.932 20.108L163.248 19.4766L145.251 20.108L74.3164 21.371L35.2707 21.5815L25.2724 21.8972Z" fill="white"/>
<path d="M160.617 77.6848C161.564 78.632 161.88 80.1054 161.88 81.3684C161.88 84.21 160.512 86.9463 158.617 89.0512C156.723 91.1561 154.197 92.7348 151.776 93.9977C152.829 89.4722 157.67 86.5254 158.302 81.9998C158.407 80.9474 158.302 79.6845 157.46 78.9477C156.723 78.3163 154.618 78.7373 154.302 78.0005C153.986 77.0533 156.512 76.5271 157.144 76.4219C158.407 76.4219 159.775 76.7376 160.617 77.6848Z" fill="#B9B7B7"/>
<path d="M52.9522 37.1691C54.1099 32.4331 67.7917 27.697 72.0015 25.5922C74.8431 24.1187 78.1057 23.4873 80.4211 21.2771C80.1054 21.5929 77.79 21.1719 77.369 21.1719C76.2113 21.1719 75.0536 21.1719 73.8959 21.2771C71.6858 21.3824 69.4756 21.4876 67.2655 21.6981C66.0026 21.8033 53.8994 22.2243 53.268 23.382C52.426 24.8554 52.6365 27.8023 52.6365 29.4862C52.426 32.0121 52.5312 34.6432 52.9522 37.1691Z" fill="#B9B7B7"/>
<path d="M150.62 30.95C158.724 38.1067 165.144 48.8416 169.038 58.9451C169.88 47.6839 168.407 36.0018 168.933 24.6353C169.038 22.8462 168.933 20.8465 167.46 19.7941C166.512 19.1626 165.249 19.1626 164.092 19.0574C158.724 18.8469 153.146 19.2679 147.779 19.4783C142.306 19.5836 136.833 19.6888 131.361 19.8993C129.782 19.8993 128.309 20.0046 126.73 20.0046C125.783 20.0046 123.783 19.6888 123.257 20.4255C130.94 21.6885 138.412 23.0567 145.253 27.056C147.147 28.2137 148.937 29.5818 150.62 30.95Z" fill="#B9B7B7"/>
<path d="M33.9032 82.6263C29.5882 75.4696 28.641 66.7343 24.5364 59.3672C22.642 71.8913 26.6413 84.6259 25.4837 97.2553C25.3784 98.3077 25.2732 99.4654 26.1151 100.202C26.7466 100.834 27.6938 100.728 28.5357 100.728C35.5871 100.623 42.6385 100.518 49.6899 100.413C50.6371 100.413 51.5843 100.413 52.321 99.9916C54.8469 98.7287 52.8473 97.7815 51.4791 97.0448C49.7952 96.2028 48.1113 95.2556 46.5326 94.3084C43.3752 92.414 40.3231 90.2039 37.7973 87.4675C36.3239 86.0993 34.9557 84.4154 33.9032 82.6263Z" fill="#B9B7B7"/>
<path d="M167.143 19.586C166.406 19.9018 166.09 20.3228 165.669 20.3228C164.617 20.3228 167.143 20.007 165.985 20.1123C162.722 20.2175 159.355 20.428 155.987 20.5333C153.882 20.6385 151.672 20.9542 149.462 20.9542C146.936 21.0595 112.205 21.4805 109.574 21.4805C105.469 21.4805 101.365 21.4805 97.155 21.5857C95.2606 21.5857 93.4714 21.6909 91.577 21.6909C85.4728 21.7962 79.4739 21.6909 73.3697 21.9014C65.5816 22.2172 47.269 22.9539 39.3757 22.6381C38.639 22.5329 38.0075 22.6381 37.2708 22.6381C37.0603 22.6381 36.8498 22.6381 36.5341 22.6381C33.2715 22.5329 30.1141 22.6381 26.9568 22.6381C25.9043 22.6381 24.8519 22.9539 23.6942 23.0591L24.0099 28.8476C23.9047 28.8476 23.9047 28.9528 23.9047 28.9528C23.9047 29.3738 24.0099 29.6895 24.0099 30.1105C24.0099 30.1105 24.0099 30.1105 23.9047 30.1105C23.9047 30.2158 23.9047 30.4262 23.9047 30.5315V30.6367C23.7995 33.1626 23.6942 35.1623 23.7995 37.2672C24.1152 42.7399 24.5362 48.2126 24.9571 53.7906C25.3781 60.7367 25.1676 67.4724 25.7991 74.3133C26.1148 77.3654 26.3253 93.3626 26.2201 96.4147C26.1148 97.1514 26.4306 97.9933 25.3781 98.2038C24.7467 98.3091 24.4309 97.7828 24.3257 96.4147C24.3257 96.0989 24.3257 95.7832 24.3257 95.4675C24.1152 91.6786 23.7995 75.3657 23.6942 71.5769C23.4837 65.0517 23.2732 58.5266 22.9575 52.0014C22.8523 49.0546 22.5365 46.1077 22.326 43.1609C22.0103 38.1091 21.905 33.3731 21.7998 28.5318C21.7998 26.9532 21.905 25.2693 22.1155 23.6906C22.2208 22.1119 23.168 21.27 24.6414 21.1647C27.6935 21.0595 30.8508 20.6385 33.9029 20.7437C34.8501 20.849 35.7973 20.849 36.6393 20.849C36.8498 20.849 37.0603 20.849 37.376 20.9542C45.9008 21.27 64.9501 20.6385 73.4749 20.5333C79.5791 20.428 85.5781 20.428 91.6823 20.2175C97.8917 20.1123 104.101 20.007 110.311 19.9018C111.889 19.9018 113.573 20.007 115.152 20.007C117.467 19.9018 156.408 18.7441 157.46 18.6388C161.354 18.5336 161.565 18.7441 165.564 18.7441C166.09 18.9546 166.406 19.2703 167.143 19.586Z" fill="black"/>
<path d="M51.7939 26.2196C51.7939 27.693 51.8992 29.0612 51.8992 30.5346C51.8992 34.6391 51.8992 38.7437 51.8992 42.9535C51.8992 45.4793 52.0044 80.2101 52.1097 82.736C52.1097 84.8408 52.4254 87.051 52.5307 89.2611C52.6359 92.5237 52.8464 95.8915 52.9516 99.2594C52.9516 100.312 52.6359 97.7859 52.7411 98.9436C52.7411 99.3646 53.0569 99.6803 53.3726 100.417C53.6883 99.6803 54.0041 99.3646 54.0041 98.9436C54.1093 95.0496 54.3198 94.8391 54.2146 90.8398C54.2146 89.7873 53.1621 50.8468 53.1621 48.5314C53.1621 46.9528 53.2674 45.2688 53.2674 43.6902C53.1621 37.9017 53.1621 32.008 53.1621 26.2196C52.6359 26.1143 52.3202 26.1143 51.7939 26.2196Z" fill="black"/>
<path d="M24.0098 100.947C24.7465 100.632 25.0622 100.211 25.4832 100.211C26.5356 100.211 24.0098 100.526 25.1675 100.421C28.43 100.316 31.7979 100.105 35.1657 100C37.2706 99.895 39.4807 99.5793 41.6909 99.5793C44.2167 99.474 91.7874 97.7901 94.3132 97.7901C98.4178 97.7901 102.522 97.7901 106.732 97.6849C108.627 97.6849 110.416 97.5796 112.31 97.5796C118.414 97.4744 124.413 97.5796 130.517 97.3691C138.306 97.0534 146.199 96.9481 153.987 97.1586C154.724 97.2639 155.355 97.1586 156.092 97.1586C156.302 97.1586 156.513 97.1586 156.829 97.1586C160.091 97.2639 163.249 97.1586 166.406 97.1586C167.458 97.1586 168.511 96.8429 169.668 96.7377L169.353 90.9492C169.458 90.9492 169.458 90.8439 169.458 90.8439C169.458 90.423 169.353 90.1072 169.353 89.6863C169.353 89.6863 169.353 89.6863 169.458 89.6863C169.458 89.581 169.458 89.3705 169.458 89.2653V89.16C169.563 86.6342 169.668 84.6345 169.563 82.5296C169.247 77.0569 168.826 71.5842 168.405 66.0062C167.985 59.0601 168.195 52.3244 167.564 45.4835C167.248 42.4314 167.353 27.3814 167.458 24.2241C167.564 23.4874 167.248 22.6454 168.3 22.4349C168.932 22.3297 169.247 22.8559 169.353 24.2241C169.353 24.5398 169.353 24.8555 169.353 25.1713C169.563 28.9601 169.458 44.3258 169.668 48.1146C169.879 54.6398 170.089 61.165 170.405 67.6901C170.51 70.637 170.826 73.5838 171.037 76.5307C171.247 81.2667 171.458 86.1079 171.563 90.9492C171.563 92.5279 171.458 94.2118 171.247 95.7905C171.142 97.3691 170.195 98.2111 168.721 98.3163C165.669 98.4216 162.512 98.8425 159.46 98.7373C158.512 98.6321 157.565 98.6321 156.723 98.6321C156.513 98.6321 156.302 98.6321 155.987 98.5268C147.462 98.2111 138.937 98.2111 130.307 98.4216C124.203 98.5268 118.204 98.5268 112.1 98.7373C105.89 98.8425 99.6807 98.9478 93.4713 99.053C91.8926 99.053 90.2087 98.9478 88.63 98.9478C86.3146 99.053 34.6395 101.579 33.4818 101.579C29.5877 101.684 29.3772 101.474 25.3779 101.474C25.1675 101.579 24.8517 101.263 24.0098 100.947Z" fill="black"/>
<path d="M78.7369 82.5246C75.1586 79.8935 71.3698 77.0519 69.8964 72.9474C68.844 70.0005 68.9492 66.6327 69.4754 63.4754C69.8964 60.5285 70.6331 57.6869 71.5803 54.8453C71.7908 54.2138 72.1065 52.1089 72.9485 52.3194C73.6852 52.4247 73.7904 54.4243 73.8957 54.9505C74.3167 61.0547 74.3167 66.7379 75.6849 72.6316C76.4216 75.9995 77.474 79.3673 78.7369 82.5246Z" fill="#B9B7B7"/>
<path d="M89.8929 20.6406C89.7876 20.9564 89.7876 21.3773 89.5772 21.4826C87.5775 23.4822 85.3674 25.3766 83.1572 27.3763C83.7887 25.3766 86.4198 22.7455 89.8929 20.6406Z" fill="black"/>
<path d="M86.7357 20.2266C86.6304 20.5423 86.6304 20.9633 86.4199 21.0685C84.4203 23.0682 82.2101 24.9626 80 26.9622C80.6315 25.0678 83.2626 22.4367 86.7357 20.2266Z" fill="black"/>
<path d="M69.2656 69.6769C69.0551 69.5717 68.5289 69.3612 68.5289 69.1507C67.0555 66.5196 65.6873 63.8885 64.2139 61.0469C65.8978 62.0993 67.8974 65.6776 69.2656 69.6769Z" fill="black"/>
<path d="M70.4238 66.5207C70.2133 66.4154 69.6871 66.205 69.6871 65.9945C68.2137 63.3633 66.8455 60.7322 65.3721 57.8906C67.1612 58.9431 69.1609 62.4161 70.4238 66.5207Z" fill="black"/>
<path d="M38.5338 50.3141C36.008 50.4194 33.7978 50.5246 31.6929 50.6299C29.9038 48.104 29.9038 48.104 30.43 41.2631C32.0087 40.8421 32.8506 41.3683 32.8506 43.0523C32.8506 44.5257 32.8506 45.9991 32.8506 47.4725C34.4293 48.104 35.0608 47.8935 35.4818 46.2096C36.2185 42.8418 37.3762 41.9998 40.4283 42.1051C43.6908 42.2103 45.2695 43.5785 45.5852 46.6306C45.7957 48.525 46.6377 50.6299 44.0066 52.3138C43.7961 51.2613 43.3751 50.5246 43.3751 49.9984C43.1646 48.8407 43.2699 47.5778 43.1646 46.4201C42.8489 44.6309 41.3755 44.21 40.0073 44.3152C38.2181 44.4204 38.0076 45.7886 38.3234 47.1568C38.3234 48.104 38.3234 48.946 38.5338 50.3141Z" fill="black"/>
<path d="M47.164 34.2076C47.2692 33.5762 47.2692 33.1552 47.164 32.5237C46.9535 31.4713 46.5325 30.6293 45.6905 29.7874C45.2695 29.3664 44.9538 29.1559 44.5328 28.8402C44.1119 28.6297 43.7961 28.4192 43.2699 28.3139C42.8489 28.1035 42.3227 27.9982 42.007 27.9982C41.586 27.893 41.2702 27.893 40.8493 27.9982L40.6388 27.893C40.1126 27.893 39.4811 27.893 39.0601 27.6825C38.6391 27.7877 38.5339 27.7877 38.2182 27.5772L34.5346 27.1562C34.3241 27.1562 34.0084 27.1562 33.5874 27.1562C33.1664 27.2615 32.9559 27.472 32.6402 27.7877C32.5349 27.893 32.4297 28.1035 32.2192 28.2087L32.114 28.3139C32.0087 28.4192 31.7982 28.7349 31.693 28.9454C31.3772 29.3664 31.272 29.7874 31.0615 30.3136C30.7458 31.366 30.7458 32.5237 30.9563 33.2604C31.0615 33.3657 31.0615 33.6814 31.0615 33.6814C31.1668 34.4181 31.3772 35.0496 31.693 35.8916C32.0087 36.4178 32.3244 36.8388 32.7454 37.1545C32.8507 37.2597 32.9559 37.2597 33.1664 37.365C33.5874 37.4702 33.9031 37.5755 34.3241 37.6807L36.7447 37.9965C38.4286 38.2069 40.2178 38.1017 41.6912 38.3122H41.9017C42.7437 38.4174 43.5856 38.3122 44.6381 37.8912C45.1643 37.6807 45.5853 37.2597 46.0063 36.6283C46.322 36.2073 46.4272 35.8916 46.6377 35.4706L46.743 35.3653C46.8482 35.1548 47.0587 34.7339 47.164 34.2076ZM44.7433 34.7339C44.6381 35.1548 44.4276 35.4706 44.2171 35.6811C44.1119 35.8916 44.0066 35.9968 43.6909 36.102C43.2699 36.3125 42.4279 36.4178 41.7965 36.4178H41.2702C40.323 36.3125 39.4811 36.3125 38.5339 36.2073C38.1129 36.102 37.5867 36.102 37.1657 35.9968H35.2713C34.9556 35.9968 34.6398 35.8916 34.5346 35.7863C34.4293 35.6811 34.1136 35.3653 34.0084 35.2601C33.7979 34.8391 33.4821 34.3129 33.4821 33.6814V33.4709C33.2717 32.5237 33.3769 31.9975 33.5874 31.4713C33.6926 31.2608 33.7979 30.9451 34.0084 30.6293C34.1136 30.5241 34.2189 30.4188 34.3241 30.2083C34.4293 30.1031 34.5346 29.8926 34.6398 29.7874L34.7451 29.6821C34.7451 29.6821 34.8503 29.7874 34.9556 29.6821L36.2185 29.7874C36.85 29.8926 36.9552 29.7874 37.4814 29.8926C40.1126 30.1031 42.8489 30.4188 44.3223 31.6818C44.7433 32.1027 45.1643 32.629 45.1643 33.1552C45.0591 33.4709 45.0591 33.9972 44.7433 34.7339Z" fill="black"/>
<path d="M137.884 35.2689C137.463 32.6378 137.253 30.2171 136.937 28.1123C139.463 26.0074 139.463 26.0074 146.83 25.7969C147.356 27.3755 146.935 28.3227 145.251 28.5332C143.673 28.6385 142.094 28.849 140.515 28.9542C139.989 30.6381 140.305 31.3748 141.989 31.5853C145.567 32.0063 146.62 33.164 146.83 36.4266C147.041 39.8997 145.778 41.6888 142.515 42.3203C140.515 42.636 138.305 43.7937 136.306 41.2678C137.358 40.9521 138.095 40.5311 138.726 40.4259C139.884 40.2154 141.252 40.1101 142.41 39.8997C144.199 39.3734 144.62 37.9 144.41 36.4266C144.094 34.6374 142.726 34.4269 141.252 34.8479C140.2 34.7427 139.358 34.8479 137.884 35.2689Z" fill="black"/>
<path d="M155.882 42.8497C156.513 42.9549 157.039 42.8497 157.671 42.7444C158.723 42.4287 159.565 41.9025 160.512 40.9553C160.933 40.5343 161.144 40.1133 161.354 39.5871C161.46 39.1661 161.67 38.7451 161.775 38.2189C161.881 37.7979 161.986 37.1665 162.091 36.7455C162.091 36.3245 162.196 35.9035 162.091 35.4826L161.986 35.3773C161.986 34.8511 161.986 34.1144 161.986 33.5882C161.881 33.1672 161.775 32.9567 161.986 32.641L162.091 28.7469C162.091 28.5364 162.091 28.2207 161.986 27.7997C161.881 27.3787 161.565 27.1682 161.144 26.8525C161.039 26.7472 160.723 26.642 160.618 26.4315H160.512C160.407 26.3263 160.091 26.1158 159.776 26.1158C159.355 25.8 158.828 25.6948 158.302 25.4843C157.039 25.1686 155.882 25.3791 155.145 25.6948C155.04 25.8 154.724 25.8 154.724 25.9053C153.987 26.1158 153.25 26.3263 152.409 26.8525C151.882 27.2735 151.461 27.6944 151.146 28.1154C151.04 28.3259 151.04 28.4312 151.04 28.5364C150.935 28.9574 150.935 29.3784 150.83 29.7993L150.725 32.4305C150.725 34.3249 150.935 36.114 150.935 37.6927V37.9032C150.935 38.8504 151.04 39.6923 151.672 40.7448C151.882 41.271 152.514 41.692 153.04 42.113C153.461 42.4287 153.882 42.4287 154.303 42.6392L154.513 42.7444C154.829 42.534 155.25 42.7444 155.882 42.8497ZM155.04 40.3238C154.619 40.2186 154.303 40.0081 153.987 39.9028C153.671 39.7976 153.566 39.6923 153.566 39.3766C153.25 38.9556 153.145 38.0084 153.145 37.377V36.8507C153.145 35.9035 153.145 34.9563 153.04 34.0091C153.145 33.4829 153.04 33.0619 153.04 32.4305L152.935 30.4308C152.935 30.1151 153.04 29.7993 153.04 29.5889C153.145 29.3784 153.461 29.1679 153.566 28.9574C153.987 28.6417 154.513 28.3259 155.25 28.1154H155.461C156.408 27.9049 157.039 27.7997 157.566 28.0102C157.881 28.1154 158.197 28.2207 158.513 28.4312C158.723 28.5364 158.723 28.6417 159.039 28.7469C159.249 28.8521 159.46 28.9574 159.46 29.0626H159.565C159.565 29.0626 159.565 29.1679 159.565 29.2731V30.5361C159.565 31.2728 159.67 31.2728 159.565 31.799C159.565 34.6406 159.46 37.5875 158.302 39.2714C157.881 39.7976 157.355 40.1133 156.829 40.3238C156.303 40.6395 155.882 40.5343 155.04 40.3238Z" fill="black"/>
<path d="M129.149 52.1003C128.939 53.679 128.413 55.3629 127.992 56.9416V57.0468C127.887 57.2573 127.887 57.4678 127.887 57.6783V57.7835C127.36 59.8884 127.045 59.1517 126.518 59.8884C126.308 60.2041 126.413 60.9409 125.992 61.0461C125.466 61.2566 125.045 61.0461 124.519 60.7304C123.887 60.4146 123.571 59.7832 123.045 59.3622C122.835 59.1517 122.414 58.9412 122.098 58.836C121.782 58.7307 121.467 58.836 121.151 59.0465C120.94 59.2569 120.835 59.4674 120.835 59.7832C120.835 59.8884 120.835 59.9937 120.73 60.2041C120.73 61.4671 120.519 62.6248 120.414 63.7825C120.309 64.2034 120.309 64.6244 120.309 65.0454C120.309 65.4664 120.204 65.7821 120.309 66.2031C120.098 68.6237 119.993 71.2548 119.993 73.7807C119.993 74.7279 120.098 75.5699 120.309 76.5171C120.309 76.6223 120.309 76.8328 120.414 77.0433C120.414 77.1485 120.414 77.1485 120.414 77.2538C120.519 77.6748 120.625 78.201 120.73 78.7272C120.835 79.0429 120.94 79.3587 120.94 79.6744C121.046 79.7797 121.046 79.9901 121.151 80.2006C121.256 80.6216 121.467 80.9373 121.677 81.2531C122.098 81.8845 122.519 82.6213 122.624 83.4632C122.73 83.9894 122.098 83.2527 121.993 83.779C121.993 83.8842 121.993 83.9894 121.993 84.1999C121.993 84.8314 122.203 85.7786 122.309 86.8311C122.203 86.9363 122.098 87.0415 121.993 87.0415C121.782 87.1468 121.572 87.252 121.361 87.3573C120.414 87.8835 119.362 88.4097 118.309 88.9359C117.573 89.1464 116.941 89.2517 116.204 89.3569C114.415 89.6727 112.521 89.9884 110.626 90.1989C108.521 90.4094 106.206 90.5146 104.101 90.6199C102.523 90.6199 101.154 90.7251 99.5757 90.6199C98.839 90.6199 98.1023 90.6199 97.3655 90.5146C94.6292 90.4094 91.9981 90.0936 89.2617 89.4622C85.9991 88.7255 82.8418 87.4625 80.0002 85.6734C79.8949 85.5681 79.8949 85.5681 79.7897 85.5681L79.6844 85.4629C79.6844 84.7262 79.6844 84.1999 79.7897 83.4632C79.8949 82.7265 79.8949 82.095 80.0002 81.3583C80.3159 79.1482 81.4736 77.1485 82.1051 75.0436C82.3156 74.2017 82.526 73.3597 82.6313 72.5178C82.7365 72.0968 82.7365 71.7811 82.947 71.3601C83.0523 71.0443 83.1575 70.7286 83.2628 70.4129C83.5785 69.6762 83.8942 68.8342 84.21 67.9923C84.3152 67.887 84.3152 67.5713 84.3152 67.466C84.4204 67.0451 84.4204 66.6241 84.4204 66.2031C84.4204 66.0979 84.4204 66.0978 84.4204 65.9926V65.8874C84.7362 65.9926 84.8414 65.6769 84.8414 65.4664C84.8414 65.4664 84.7362 65.4664 84.7362 65.3611C84.6309 65.2559 84.4204 65.2559 84.3152 65.1507V65.0454C83.789 63.572 82.2103 62.5195 80.9474 61.4671C80.5264 60.7304 79.7897 59.9937 79.2635 59.1517C79.3687 59.0465 79.3687 59.0465 79.6844 58.9412C79.7897 58.836 79.7897 58.9412 79.8949 58.836C79.8949 58.7307 79.8949 58.7307 79.7897 58.7307C79.5792 58.2045 79.2635 57.7835 79.053 57.2573C78.5267 56.3101 77.8953 55.3629 77.3691 54.4157C77.0533 53.8895 76.9481 53.3632 77.0533 52.837C77.0533 52.7318 77.0533 52.6265 77.1586 52.5213C77.2638 51.5741 77.4743 50.6269 77.6848 49.6797C77.79 49.0482 78.0005 48.4167 78.211 47.7853C78.0005 47.68 77.6848 47.68 77.3691 47.68C77.2638 47.68 76.9481 47.68 76.9481 47.5748C76.8428 47.4695 76.8428 47.4695 76.9481 47.3643C76.9481 47.2591 76.9481 47.2591 77.0533 47.2591C77.8953 45.7856 78.9477 44.4174 80.3159 43.2598C81.0526 42.6283 81.7893 41.9968 82.526 41.3653C82.6313 41.2601 82.6313 41.2601 82.6313 41.1549C82.6313 41.1549 82.526 41.1549 82.526 41.0496C82.4208 40.9444 82.3156 40.9444 82.1051 40.9444C82.2103 40.8391 82.2103 40.8391 82.2103 40.8391C82.6313 40.5234 82.8418 40.2077 83.2628 39.8919C83.5785 39.6814 83.8942 39.4709 84.21 39.3657C84.3152 39.3657 84.3152 39.3657 84.3152 39.2605C84.4204 39.1552 84.5257 39.1552 84.7362 39.05C85.1572 38.8395 85.3677 38.7342 85.7886 38.5237C87.2621 37.8923 88.7355 37.3661 90.3141 36.9451C90.3141 36.9451 90.3142 36.9451 90.4194 36.9451C90.5246 36.9451 90.5246 36.9451 90.5246 36.9451C91.3666 36.7346 92.1033 36.5241 92.9453 36.3136C92.9453 36.3136 92.9453 36.3136 93.0505 36.3136C93.5767 36.1031 94.2082 36.1031 94.7344 35.8926H94.8397C96.2079 35.5769 97.6813 35.2612 99.1547 34.9454C99.4704 34.8402 99.7862 34.8402 100.102 34.7349C101.26 34.5244 102.523 34.314 103.68 34.1035C107.68 33.5772 111.784 33.5772 115.678 34.6297C115.783 34.6297 115.783 34.6297 115.783 34.7349C116.099 34.8402 116.415 34.8402 116.731 35.0507C116.836 35.1559 117.046 35.1559 117.152 35.1559C117.573 35.2612 117.888 35.4716 118.204 35.5769C118.941 35.8926 119.783 36.2084 120.414 36.6293C120.414 36.6293 120.519 36.6293 120.519 36.7346C120.625 36.8398 120.835 36.9451 120.94 37.0503C122.414 38.1028 123.677 38.8395 124.94 40.2077C125.361 40.7339 125.992 40.9444 126.413 41.4706C126.834 41.8916 127.36 42.2073 127.676 42.8388C127.886 43.2598 127.466 43.2598 127.571 43.6807C127.781 44.6279 128.623 45.7856 128.834 46.5223C129.149 48.2063 129.36 50.2059 129.149 52.1003Z" fill="white"/>
<path d="M91.9984 37.4844C91.0512 42.6414 91.3669 48.1141 92.9456 53.1658C93.3666 54.534 93.8928 55.7969 93.998 57.1651C94.2085 59.0595 93.5771 61.0592 92.6299 62.8483C91.9984 63.9008 91.2617 64.848 90.2092 65.5847C89.262 66.2162 87.8939 66.5319 86.7362 66.1109C86.2099 66.0057 85.6837 65.4795 85.8942 64.9532C87.0519 65.0585 88.3148 64.848 89.3673 64.2165C90.8407 63.1641 91.3669 61.3749 91.3669 59.5858C91.3669 57.7966 90.7355 56.2179 90.2092 54.534C89.683 52.9553 89.0515 51.2714 88.9463 49.5875C88.7358 46.1144 90.7355 43.0623 91.5774 39.6945L91.9984 37.4844Z" fill="#B9B7B7"/>
<path d="M112.416 61.6875C113.153 61.6875 113.889 62.0032 114.521 62.319C114.942 62.5295 115.363 62.7399 115.468 63.2662C115.573 63.6871 115.258 64.2134 114.837 64.4239C113.889 65.1606 112.627 65.2658 111.679 66.0025C111.258 66.4235 110.627 68.6336 110.206 69.1599C108.311 71.4753 103.575 67.055 104.207 64.1081C104.417 62.9504 106.522 63.3714 107.68 63.1609C108.627 62.9504 109.364 62.9504 110.206 62.5295C111.048 62.2137 111.679 61.7927 112.416 61.6875Z" fill="#B9B7B7"/>
<path d="M121.887 58.0007C121.676 58.5269 121.15 59.0532 120.624 58.9479C119.887 58.8427 119.466 58.106 119.361 57.1588C119.045 55.0539 120.097 52.949 120.413 50.9493C121.045 46.0028 117.677 41.3721 117.677 36.3203C120.518 41.2668 121.676 47.1605 121.992 52.8437C121.992 54.3172 122.413 56.5273 121.887 58.0007Z" fill="#B9B7B7"/>
<path d="M121.362 79.9964C121.257 80.1016 120.941 80.1016 120.73 80.2068C119.573 80.4173 118.415 80.5226 117.257 80.6278C115.574 80.8383 113.89 81.0488 112.1 80.9436C110.522 80.9436 108.943 80.6278 107.364 80.4173C101.892 79.8911 96.2085 80.9436 91.1567 78.7334C89.2623 77.8915 87.6837 76.7338 85.684 76.1023C84.7368 75.7866 83.6844 75.5761 82.7372 75.0498C82.6319 74.9446 82.3162 74.8394 82.2109 74.6289C82.4214 73.7869 82.6319 72.945 82.7372 72.103C82.8424 71.682 82.8424 71.3663 83.0529 70.9453C83.1581 70.9453 83.3686 70.9453 83.4739 71.0506C84.5263 71.4715 85.5788 72.8397 86.526 73.5764C88.8414 75.2603 91.5777 76.3128 94.3141 77.1547C97.8924 78.3124 101.576 79.0491 105.26 78.5229C106.628 78.3124 107.996 77.8915 109.364 77.9967C110.311 78.1019 111.258 78.3124 112.1 78.4177C114.205 78.6282 116.521 78.2072 118.52 77.3652C119.152 77.1547 119.678 76.839 120.31 76.7338C120.415 77.26 120.52 77.7862 120.625 78.4177C121.046 79.0492 121.151 79.5754 121.362 79.9964Z" fill="#B9B7B7"/>
<path d="M103.786 70.4132C104.102 71.2552 104.523 72.2023 105.049 72.8338C105.681 73.4653 106.733 73.9915 107.575 73.5705C107.68 73.5705 107.68 73.4653 107.68 73.4653C107.68 73.36 107.68 73.36 107.68 73.2548C107.47 72.4128 107.259 71.6761 107.049 70.9394C106.943 70.6237 106.838 70.2027 106.733 69.9922C106.207 69.045 105.26 68.8345 104.418 68.203C103.997 67.8873 101.786 64.73 101.155 65.5719C100.945 65.7824 103.47 69.6765 103.786 70.4132Z" fill="#B9B7B7"/>
<path d="M102.207 83.3622C102.101 83.2569 102.207 82.9412 102.312 82.9412C102.417 82.8359 102.628 82.8359 102.838 82.8359C103.154 82.8359 103.47 82.8359 103.68 83.0464C103.785 83.1517 103.785 83.1517 103.891 83.3622C104.101 83.6779 104.206 83.9936 104.312 84.4146C104.417 84.6251 104.522 84.9408 104.312 85.1513C104.206 85.2566 103.891 85.3618 103.68 85.3618C103.259 85.3618 102.838 85.4671 102.522 85.2566C102.101 84.9408 102.207 84.3094 102.207 83.8884V83.3622Z" fill="#B9B7B7"/>
<path d="M83.6839 71.0558L83.3682 69.7928L84.2101 67.8984L87.3675 68.5299L93.8926 71.582L98.9444 73.2659L106.732 73.7921H107.785L108.943 77.0547L109.364 78.3177L104.312 78.4229L99.3654 78.3177L91.9982 76.2128L87.3675 74.2131L85.1573 72.9502L83.9996 71.4768L83.6839 71.0558Z" fill="#F15748"/>
<path d="M117.573 72.5225L120.204 72.1016L120.415 75.7851L119.046 77.7848L114.731 78.6267L116.415 75.5746L116.942 73.2593L117.573 72.5225Z" fill="#E7443B"/>
<path d="M112.206 65.7913C112.101 65.8965 112.101 65.8965 111.996 66.0018C111.89 66.107 111.785 66.2123 111.68 66.4228C111.785 66.8437 111.89 67.37 111.996 67.7909C112.101 68.5277 112.101 69.3696 112.101 70.0011C111.996 70.7378 111.785 71.3693 111.785 72.2112C111.89 72.106 112.101 72.0007 112.101 71.8955C112.311 71.264 112.627 70.7378 112.732 70.1063C112.732 68.7381 112.522 67.2647 112.206 65.7913ZM121.047 59.7923C121.047 59.4766 121.047 59.0556 121.047 58.8451V58.7399C121.047 58.5294 120.836 58.3189 120.626 58.3189C120.52 58.4242 120.52 58.6347 120.415 58.7399C120.205 59.0556 120.099 59.4766 119.889 59.7923C119.678 60.6343 119.047 61.1605 118.416 61.5815C117.784 62.0025 117.153 62.1077 116.521 62.0025C115.153 61.792 113.89 61.2658 112.732 60.4238C112.522 60.3186 112.311 60.0028 112.101 59.7923C112.522 59.5819 112.838 59.4766 113.153 59.2661C113.469 59.0556 113.785 58.7399 113.995 58.4242C114.311 58.1084 114.627 57.6875 114.942 57.3717C115.679 56.4245 116.521 55.4773 116.732 54.3196C116.837 53.5829 116.942 52.8462 116.416 52.2147C115.89 51.5833 115.363 51.2675 114.627 51.1623C114.1 51.057 113.68 51.2675 113.048 51.2675C112.417 51.2675 111.785 51.2675 111.154 51.2675C110.522 51.3728 109.996 51.5833 109.364 51.7937C109.259 51.7937 109.049 51.899 108.943 52.0042C108.312 52.5305 107.47 52.9514 107.154 53.8986C107.786 55.8983 108.102 56.214 109.575 58.0032C109.996 58.5294 110.417 59.0556 110.838 59.5819C109.996 61.1605 108.838 62.213 107.049 62.5287C104.944 62.9497 102.839 62.7392 100.734 62.0025C100.103 61.792 98.6295 60.2133 97.998 60.3186C97.998 60.95 99.261 62.9497 99.4715 63.3707C99.682 63.5812 99.7872 63.7916 99.9977 64.0021C100.313 64.5284 100.734 65.0546 101.155 65.4756C101.576 65.8965 101.997 66.4228 102.418 66.8437C103.155 67.5805 103.997 68.3172 104.523 69.0539C104.944 69.5801 105.365 69.8958 105.997 70.0011C106.628 70.1063 106.733 70.2116 106.733 70.843C106.944 71.7902 107.049 72.7374 107.26 73.6846V73.7899C107.47 74.5266 107.575 75.3686 107.681 76.2105C107.891 77.0525 108.207 77.6839 108.838 78.2102C108.943 78.3154 108.943 78.3154 109.049 78.3154L109.154 78.4207C109.47 78.6311 109.785 78.8416 110.101 79.0521C110.733 79.4731 111.469 79.6836 112.101 79.6836C112.943 79.7888 113.68 79.3679 114.311 79.1574C114.416 79.0521 114.521 78.8416 114.627 78.7364C114.627 78.7364 114.627 78.7364 114.732 78.6311C114.837 78.5259 114.942 78.3154 115.153 78.2102C115.995 77.263 116.837 76.3158 116.942 75.0528C116.942 74.9476 117.047 74.9476 117.047 74.9476C117.153 74.3161 117.258 73.6846 117.363 72.9479C118.1 72.7374 118.942 72.527 119.573 72.3165C119.678 72.4217 119.678 72.4217 119.678 72.4217C119.784 73.3689 119.994 74.5266 119.994 75.4738C119.994 76.3158 119.363 77.3682 118.205 77.4735C117.679 77.4735 117.153 77.6839 116.521 77.8944C116.626 77.9997 116.732 78.2102 116.942 78.2102H117.047C117.153 78.2102 117.258 78.2102 117.468 78.2102C117.889 78.1049 118.205 78.1049 118.521 77.9997C119.257 77.8944 119.784 77.4734 120.099 77.0525C120.205 76.9472 120.415 76.6315 120.52 76.421C120.626 76.1053 120.731 75.6843 120.731 75.2633C120.731 74.3161 120.626 73.4742 120.52 72.6322C120.31 71.685 120.31 70.9483 120.52 70.1063C120.731 69.0539 120.731 67.8962 120.731 66.8437C120.731 66.3175 120.836 65.7913 121.362 65.6861C121.362 65.4756 121.362 65.1598 121.362 64.9493C121.257 63.1602 121.152 61.4763 121.047 59.7923ZM117.468 63.1602C117.574 63.1602 117.574 63.1602 117.574 63.1602C117.574 63.2654 117.574 63.3707 117.574 63.4759H117.468C117.468 63.2654 117.468 63.2654 117.468 63.1602ZM117.153 69.3696C117.258 69.8958 117.153 70.4221 117.153 70.9483C117.047 71.5798 116.942 72.2112 116.942 72.8427C116.837 73.6846 116.626 74.4214 116.416 75.2633C116.1 76.421 115.469 77.3682 114.521 78.1049C114.1 78.5259 113.469 78.8416 112.732 78.6311C112.417 78.5259 112.101 78.5259 111.785 78.5259C111.364 78.4207 110.943 78.2102 110.733 77.7892C111.469 76.9472 112.101 76.1053 112.838 75.2633C112.838 75.1581 112.732 75.1581 112.732 75.1581C111.785 75.8948 110.943 76.5263 109.891 77.263C109.575 76.7367 109.259 76.3158 109.049 75.8948C108.838 75.2633 108.628 74.6318 108.417 73.8951C108.312 73.2637 108.207 72.7374 108.102 72.106C107.891 71.264 107.786 70.3168 107.575 69.4749C107.575 69.3696 107.575 69.3696 107.575 69.3696C107.575 69.2644 107.681 69.0539 107.681 68.9486C108.102 68.5277 108.523 68.0014 109.049 67.37C108.207 67.6857 107.996 68.3172 107.365 68.6329C107.26 68.5277 107.154 68.3172 107.154 68.2119C107.154 68.1067 107.26 67.8962 107.26 67.7909C107.681 67.37 108.102 67.0542 108.417 66.7385C108.523 66.6333 108.628 66.528 108.733 66.3175C107.996 66.528 107.575 67.2647 106.839 67.6857C106.312 66.7385 105.681 65.7913 105.155 64.8441C105.26 64.5284 105.365 64.1074 105.576 63.7916C105.997 63.6864 106.418 63.5812 106.839 63.5812C107.154 63.4759 107.47 63.4759 107.786 63.3707C108.417 63.1602 108.943 63.3707 109.575 63.3707C109.785 63.8969 110.206 63.5812 110.522 63.4759C110.943 64.1074 111.048 64.8441 111.154 65.5808C111.259 65.8965 111.364 66.2123 111.364 66.528C111.469 66.949 111.575 67.4752 111.68 67.8962C111.785 68.6329 111.785 69.4749 111.785 70.1063C111.68 70.843 111.469 71.4745 111.469 72.3165C111.575 72.2112 111.785 72.106 111.785 72.0007C111.996 71.3693 112.311 70.843 112.417 70.2116C112.732 68.7381 112.522 67.2647 112.206 65.7913C112.206 65.686 112.101 65.5808 112.101 65.3703C111.89 64.7388 111.785 64.1074 111.575 63.5812C112.101 63.2654 112.627 63.1602 113.153 63.3707C113.153 62.7392 113.153 62.7392 112.627 62.5287C112.838 62.3182 113.048 62.1077 113.259 62.0025C113.68 62.213 114.206 62.4235 114.732 62.634C114.837 62.634 114.942 62.7392 114.942 62.8444C115.153 63.1602 115.153 63.5812 115.363 63.7916C115.679 64.6336 116.1 65.5808 116.311 66.4228C116.837 67.37 116.942 68.4224 117.153 69.3696ZM105.576 68.4224H105.47C105.47 68.3172 105.576 68.2119 105.576 68.0014C105.681 68.0014 105.681 68.0014 105.681 68.0014C105.576 68.1067 105.576 68.3172 105.576 68.4224ZM111.364 59.0556C111.575 59.1609 111.785 59.1609 112.101 59.1609C111.68 59.4766 111.575 59.3714 111.364 59.0556ZM120.626 65.0546C120.31 65.2651 120.205 65.4756 120.31 65.7913C120.415 66.528 120.415 67.1595 120.31 67.8962C120.31 68.3172 120.205 68.9486 120.205 69.3696C120.099 69.7906 120.099 70.3168 120.099 70.843C120.099 71.0535 120.099 71.264 120.099 71.5798C119.152 72.0007 118.31 72.2112 117.679 72.2112C117.679 72.0007 117.679 71.7902 117.784 71.4745C117.995 70.3168 117.995 69.1591 117.889 67.8962C117.889 67.7909 117.889 67.4752 117.784 67.37C117.363 66.107 117.889 64.9493 118.205 63.8969C118.31 63.6864 118.416 63.4759 118.521 63.1602C118.626 62.634 118.836 62.213 119.363 62.0025C119.678 61.792 119.889 61.371 120.099 60.95C120.205 60.7396 120.31 60.4238 120.626 60.2133C120.626 60.95 120.626 61.792 120.731 62.634C120.731 63.0549 120.731 63.4759 120.836 63.8969C120.836 64.3179 120.941 64.6336 120.941 65.0546C120.731 64.9493 120.626 65.0546 120.626 65.0546Z" fill="black" stroke="black" stroke-width="0.3872" stroke-miterlimit="10"/>
<path d="M104.732 84.3134C104.627 84.4187 104.522 84.5239 104.416 84.5239C104.416 84.6292 104.522 84.7344 104.522 84.8397C104.627 84.7344 104.732 84.6292 104.943 84.4187C104.732 84.4187 104.732 84.4187 104.732 84.3134ZM104.101 83.682C104.206 83.7872 104.206 83.7872 104.206 83.8924C104.311 83.7872 104.627 83.682 104.732 83.4715C104.416 83.4715 104.311 83.4715 104.101 83.682ZM114.52 34.1117C113.994 34.0065 113.362 33.9012 112.731 33.796C111.994 33.6907 111.257 33.4802 110.521 33.375C108.626 33.375 106.837 33.375 104.943 33.375C104.837 33.375 104.627 33.375 104.522 33.4802C104.101 33.6907 103.574 33.796 103.154 33.9012C102.417 34.0065 101.575 33.9012 100.733 34.0065C100.522 34.0065 100.207 34.0065 99.9962 34.0065C98.5227 34.3222 97.0493 34.6379 95.5759 34.8484C94.5234 35.0589 93.5762 35.4799 92.7343 36.1114C92.3133 36.4271 91.7871 36.7428 91.7871 37.3743C91.7871 37.4795 91.6818 37.4795 91.6818 37.5848C91.1556 38.2163 90.8399 38.953 90.6294 39.6897C90.4189 40.3211 90.2084 40.9526 89.8927 41.5841C89.7874 41.8998 89.5769 42.3208 89.5769 42.6365C89.2612 43.8995 88.9455 45.2676 88.6297 46.5306C88.5245 47.0568 88.314 47.3725 87.6825 47.583C87.2615 47.6883 86.9458 48.004 86.5248 48.2145C86.4196 48.3197 86.4196 48.3197 86.3144 48.5302C87.1563 48.6355 87.5773 47.7935 88.4192 47.6883C88.314 48.1093 88.314 48.5302 88.2088 48.846C88.1035 49.1617 88.1035 49.3722 88.4192 49.6879C88.6297 50.0037 88.6297 50.2142 88.6297 50.5299C88.8402 51.3718 88.9455 52.2138 89.156 52.9505C89.6822 54.4239 90.2084 55.7921 90.8399 57.2655C91.0504 57.897 91.2609 58.5285 91.4713 59.0547C91.4713 59.1599 91.5766 59.3704 91.5766 59.5809C91.5766 59.6862 91.5766 59.6862 91.5766 59.8967C91.6818 61.3701 91.1556 62.7383 90.4189 63.896C89.8927 64.6327 89.2612 64.9484 88.4192 64.8432H88.314C88.2088 64.8432 88.2088 64.8432 87.9983 64.8432C87.2616 64.7379 86.7353 64.6327 86.1039 64.5274C85.6829 64.4222 85.3671 64.3169 85.0514 64.1065C84.3147 63.5802 83.6832 63.054 82.9465 62.5278C81.8941 61.8963 81.2626 60.8439 80.4207 59.7914C80.9469 59.0547 80.9469 58.9495 80.4207 58.318C79.8944 57.476 79.3682 56.6341 78.842 55.7921C78.6315 55.3711 78.421 55.0554 78.3158 54.6344C77.579 53.8977 77.4738 52.9505 77.6843 52.0033C77.7895 51.3718 78 50.7404 78.2105 50.1089C78.421 49.2669 78.6315 48.425 78.9472 47.583C79.0525 47.2673 79.0525 46.9516 78.9472 46.6358C78.6315 46.5306 78.2105 46.5306 77.7895 46.6358C78.5262 45.8991 79.1577 45.2677 79.6839 44.5309L79.5787 44.4257C79.6839 44.2152 79.8944 44.0047 80.2102 43.7942V44.0047C81.5783 42.847 83.578 40.8474 83.8937 40.2159C83.7885 40.1107 83.578 39.7949 83.4727 39.6897C83.6832 39.4792 83.999 39.2687 84.3147 38.953C84.4199 38.953 84.4199 38.953 84.4199 38.8477C84.5252 38.7425 84.6304 38.7425 84.8409 38.6372C84.9462 38.6372 84.9462 38.6372 84.9462 38.532C85.2619 38.4267 85.5776 38.3215 85.8934 38.3215C86.9458 38.0058 87.9983 37.7953 89.0507 37.4795C89.7874 37.2691 90.4189 37.1638 91.1556 37.2691C91.2608 37.2691 91.4713 37.2691 91.7871 37.1638C91.3661 36.7428 90.9451 36.6376 90.5241 36.6376H90.4189C89.9979 36.6376 89.5769 36.8481 89.156 36.8481C88.314 37.0586 87.472 37.3743 86.5248 37.2691C86.4196 37.2691 86.3144 37.2691 86.2091 37.3743C84.9462 37.9005 83.7885 38.532 82.6308 39.0582C82.5255 39.1635 82.5255 39.1635 82.4203 39.2687L82.3151 39.3739C82.3151 39.3739 82.3151 39.374 82.3151 39.4792C82.2098 39.9002 81.8941 40.1107 81.5783 40.2159C81.4731 40.3211 81.3678 40.4264 81.1574 40.6369H81.2626C81.6836 40.7421 81.8941 40.5316 82.2098 40.4264C82.3151 40.4264 82.3151 40.4264 82.3151 40.4264C82.4203 40.4264 82.5255 40.4264 82.6308 40.5316L82.3151 40.6369C82.3151 40.7421 82.2098 40.7421 82.2098 40.7421C81.4731 41.3736 80.7364 42.0051 79.9997 42.6365C78.6315 43.7942 77.6843 45.2677 76.7371 46.6358C76.6318 46.7411 76.6318 46.8463 76.6318 46.9516C76.6318 47.0568 76.6318 47.0568 76.6318 47.0568C76.7371 47.1621 76.8423 47.1621 77.0528 47.1621C77.3686 47.1621 77.579 46.9516 77.8948 47.2673C77.8948 47.3725 77.8948 47.3725 77.8948 47.3725C77.6843 48.004 77.579 48.6355 77.3686 49.1617C77.1581 50.1089 77.0528 51.0561 76.8423 52.0033C76.8423 52.1086 76.7371 52.319 76.7371 52.4243C76.7371 52.9505 76.7371 53.3715 77.0528 53.8977C77.579 54.8449 78.2105 55.7921 78.7367 56.7393C78.9472 57.2655 79.3682 57.7918 79.5787 58.4232C79.4734 58.4232 79.4734 58.4232 79.3682 58.5285C79.1577 58.6337 78.9472 58.6337 78.9472 58.739C78.842 58.8442 78.9472 58.9495 79.0525 59.1599C79.263 59.5809 79.5787 60.1072 79.8944 60.5281C80.7364 61.4753 81.4731 62.3173 82.3151 63.1592C82.9465 63.7907 83.6832 64.3169 84.2095 65.1589C84.2095 65.2641 84.3147 65.2641 84.4199 65.3694C84.3147 65.1589 84.2095 64.9484 84.2095 64.6327C84.3147 64.6327 84.3147 64.7379 84.4199 64.7379C84.4199 64.7379 84.4199 64.7379 84.5252 64.7379C84.6304 64.8432 84.8409 64.8432 84.9462 64.9484V65.0536C84.9462 65.3694 84.8409 65.4746 84.5252 65.4746C84.6304 65.4746 84.6304 65.5799 84.6304 65.5799C84.6304 65.6851 84.6304 65.6851 84.6304 65.7904C84.6304 66.0009 84.4199 66.2113 84.3147 66.5271C84.1042 66.8428 84.2095 66.9481 84.5252 67.0533H84.6304L84.5252 67.1585C84.3147 67.369 83.999 67.5795 83.8937 67.79C83.4727 68.632 83.0518 69.5792 82.9465 70.5264C82.8413 71.9998 82.315 73.368 81.8941 74.7362C81.5783 75.4729 81.2626 76.3148 81.0521 77.0515C80.5259 78.8407 79.9997 80.6299 79.4734 82.419C79.4734 82.5243 79.3682 82.5243 79.3682 82.7348C79.3682 82.84 79.263 83.0505 79.263 83.1557C79.263 83.4715 79.263 83.8925 79.263 84.2082C79.3682 84.3134 79.6839 84.5239 79.6839 84.9449C79.6839 85.0501 79.6839 85.0501 79.6839 85.0501C79.7892 85.1554 79.7892 85.1554 79.8944 85.1554L79.9997 85.2606C80.1049 85.3659 80.1049 85.3659 80.2102 85.3659C80.3154 84.9449 80.3154 84.3134 80.4207 83.8924C80.4207 83.7872 80.4207 83.682 80.4207 83.5767C80.4207 83.4715 80.4206 83.1557 80.3154 83.1557C80.1049 82.7348 80.2102 82.419 80.2102 82.2085C80.5259 81.1561 80.7364 79.9984 81.1574 78.946C81.5783 77.5778 81.8941 76.3148 82.4203 75.0519V74.9467C82.736 74.2099 82.9465 73.5785 83.157 72.8418C83.2623 72.526 83.2623 72.2103 83.2623 71.7893C83.4727 71.9998 83.578 72.2103 83.6832 72.3155C84.2095 73.0522 84.8409 73.6837 85.6829 73.9994C87.472 74.8414 89.3664 75.5781 91.1556 76.2096C91.2608 76.3148 91.5766 76.3148 91.6818 76.3148C93.892 76.9463 96.2073 77.5778 98.5227 78.2092C98.9437 78.3145 99.2594 78.4197 99.7857 78.525C100.312 78.6302 100.838 78.7355 101.364 78.8407C102.101 78.946 102.627 78.8407 103.364 78.946C103.574 79.3669 103.68 79.7879 103.785 80.3141C103.785 80.5246 103.89 80.7351 103.89 80.9456C103.469 81.1561 103.048 81.2613 102.733 81.4718C101.785 82.2085 101.049 83.7872 101.575 85.3659C101.996 86.3131 102.733 86.8393 103.785 87.155C104.522 87.3655 105.364 87.4708 105.89 87.155C107.153 86.6288 107.784 85.5764 107.89 84.2082C107.995 83.4715 107.784 82.84 107.153 82.419C106.627 81.998 105.995 81.5771 105.153 81.2613C105.048 81.2613 104.837 81.1561 104.732 81.1561C104.732 80.9456 104.732 80.7351 104.837 80.5246C104.943 80.2089 105.048 79.7879 105.153 79.4722C105.364 78.946 105.679 78.6302 106.311 78.6302C106.416 78.6302 106.627 78.6302 106.732 78.6302C106.837 78.6302 106.837 78.525 106.942 78.4197C106.942 78.4197 106.942 78.4197 107.048 78.4197C107.153 78.4197 107.153 78.3145 107.153 78.3145C107.048 78.2092 106.837 78.2092 106.732 78.2092C106.311 78.104 105.995 78.104 105.574 78.104C105.469 78.104 105.469 78.104 105.258 78.2092C104.837 78.3145 104.522 78.3145 104.206 78.4197C103.89 78.525 103.68 78.3145 103.574 77.9987C103.364 76.9463 103.048 75.8939 103.154 74.8414C103.154 74.3152 103.364 74.2099 103.89 74.3152C103.995 74.3152 104.206 74.4204 104.311 74.4204C105.048 74.4204 105.153 74.4204 105.258 75.1571C105.364 75.4729 105.258 75.7886 105.258 76.1043C105.258 76.3148 105.258 76.6306 105.153 76.8411C105.258 76.7358 105.469 76.6306 105.469 76.4201C105.574 75.7886 105.679 75.1571 105.469 74.5257C105.364 74.1047 105.574 74.1047 105.89 74.1047C106.1 75.0519 105.679 75.9991 105.995 77.0515C106.1 76.9463 106.206 76.7358 106.206 76.6306C106.311 75.8939 106.311 75.3676 106.416 74.6309C106.416 74.4204 106.416 74.2099 106.416 74.1047V73.9994C106.311 73.6837 105.995 73.5785 105.574 73.5785C105.469 73.5785 105.469 73.5785 105.258 73.5785C104.522 73.4732 103.89 73.5785 103.154 73.5785C101.891 73.5785 100.733 73.5785 99.5752 73.4732C99.4699 73.4732 99.2594 73.368 99.049 73.368C99.6804 72.6313 100.522 72.2103 101.049 71.3683C100.628 71.3683 100.417 71.6841 100.101 71.8946C99.6804 72.2103 99.2594 72.6313 98.9437 72.947C98.5227 73.2627 98.1018 73.368 97.6808 73.1575C97.2598 73.0522 96.8388 72.8418 96.4178 72.6313C95.2601 72.105 94.1025 71.5788 92.9448 71.0526C91.3661 70.3159 89.5769 69.5792 87.9983 68.7372V68.632C87.893 68.632 87.893 68.5267 87.893 68.5267C86.9458 68.3162 85.9986 68.211 85.0514 67.79C85.1567 66.9481 85.0514 66.1061 85.5776 65.3694C85.6829 65.3694 85.6829 65.4746 85.7881 65.4746C85.7881 65.4746 85.8934 65.4746 85.8934 65.5799C85.9986 65.6851 86.2091 65.6851 86.3144 65.6851C87.0511 66.0009 87.893 66.1061 88.6297 65.8956C88.735 65.7904 89.0507 65.6851 89.156 65.6851C89.7874 65.7904 90.1032 65.4746 90.4189 64.8432C90.5241 64.7379 90.7346 64.4222 90.8399 64.3169C91.9976 62.9488 92.2081 61.3701 92.1028 59.5809C92.1028 58.8442 91.7871 58.2127 91.5766 57.476C91.3661 56.5288 91.1556 55.6869 90.9451 54.8449C90.6294 53.582 90.2084 52.2138 89.7874 50.8456C89.5769 50.2141 89.3664 49.5827 89.0507 48.9512C88.9455 48.846 88.9455 48.846 88.9455 48.7407C88.9455 48.6355 88.9455 48.5302 88.9455 48.3197C88.9455 48.1093 89.0507 48.1093 89.0507 47.8988C89.156 47.3725 89.2612 46.8463 89.3664 46.3201C89.4717 46.2149 89.4717 46.0044 89.4717 45.8991C89.5769 45.6886 89.5769 45.4781 89.5769 45.1624C90.1032 42.9523 90.6294 40.9526 91.4713 38.8477C91.4713 38.8477 91.4713 38.8477 91.4713 38.7425C91.5766 38.6372 91.5766 38.6372 91.5766 38.532C91.5766 38.532 91.5766 38.532 91.5766 38.4267C91.6818 38.3215 91.6818 38.3215 91.6818 38.2163C91.7871 38.111 91.7871 37.7953 91.7871 37.69C91.6818 37.2691 91.8923 37.1638 92.1028 36.9533C92.2081 36.9533 92.4185 36.8481 92.5238 36.7428C92.9448 36.3219 93.5762 36.1114 94.1025 35.9009H94.2077C94.3129 35.7956 94.5234 35.7956 94.6287 35.6904C95.8916 35.4799 97.1546 35.0589 98.4175 34.9537C98.7332 34.8484 99.049 34.8484 99.3647 34.7432C100.312 34.6379 101.259 34.7432 102.312 34.6379C102.838 34.6379 103.259 34.5327 103.89 34.3222C104.311 34.1117 104.732 34.1117 105.153 34.1117C105.89 34.1117 106.732 34.0065 107.469 34.0065C108.731 34.0065 110.205 33.9012 111.363 34.3222C112.31 34.5327 113.152 34.6379 114.099 34.7432C114.415 34.7432 114.625 34.8484 114.941 34.5327C114.941 34.5327 115.046 34.5327 115.046 34.4274C115.046 34.3222 115.151 34.3222 115.151 34.3222C115.151 34.217 114.836 34.217 114.52 34.1117ZM106.942 82.7348C107.679 83.261 107.89 84.2082 107.574 85.0501C107.153 85.9973 106.1 86.6288 105.153 86.5236C104.732 86.5236 104.101 86.2078 103.469 85.8921C103.574 85.7869 103.785 85.5764 103.89 85.4711C104.101 85.2606 104.311 85.0501 104.522 84.9449C104.627 84.8396 104.732 84.7344 104.943 84.5239C104.837 84.4187 104.837 84.4187 104.837 84.4187C104.732 84.5239 104.627 84.6292 104.522 84.6292C104.416 84.7344 104.206 84.8396 104.101 84.9449C103.89 85.1554 103.68 85.3659 103.469 85.5764L103.364 85.6816L103.259 85.5764C103.153 85.4711 103.048 85.3659 103.048 85.1554C103.469 84.7344 103.89 84.3134 104.311 83.9977C104.416 83.8924 104.732 83.7872 104.837 83.5767C104.627 83.4715 104.416 83.5767 104.206 83.682C104.101 83.7872 103.995 83.8924 103.785 83.8924C103.469 84.1029 103.153 84.3134 102.838 84.6292C102.627 83.8925 102.838 83.3662 103.154 82.84C103.574 82.3138 104.101 81.9981 104.627 81.9981C105.574 81.8928 106.311 82.2085 106.942 82.7348ZM93.471 71.4736C94.2077 71.7893 94.8392 72.105 95.4706 72.4208C97.1546 73.2627 98.8385 73.6837 100.628 73.789C101.259 73.8942 101.785 73.789 102.417 73.8942C102.522 73.8942 102.627 73.9994 102.838 73.9994C102.522 75.3676 103.048 76.7358 103.259 77.9987C102.733 78.2092 102.206 78.2092 101.68 77.9987C100.838 77.5778 99.8909 77.4725 98.9437 77.262C97.9965 77.0515 97.1546 76.7358 96.2074 76.5253C95.5759 76.4201 94.9444 76.2096 94.3129 75.9991C91.9976 75.5781 89.7874 74.6309 87.6825 73.789C87.2615 73.5785 86.7353 73.368 86.3144 73.1575C85.8934 72.947 85.7881 72.526 85.7881 72.105C85.8934 71.2631 86.1039 70.4211 86.2091 69.5792C86.2091 69.2634 86.2091 69.0529 86.3144 68.7372C86.2091 68.7372 86.2091 68.7372 86.1039 68.7372C85.7881 70.0001 85.8934 71.2631 85.4724 72.526C85.3671 72.4208 85.2619 72.4208 85.2619 72.4208C85.2619 71.1578 85.3671 69.7897 85.3671 68.4215C85.9986 68.3162 86.4196 68.4215 86.9458 68.632C87.472 68.7372 87.9983 69.0529 88.5245 69.2634C90.3136 70.0001 91.8923 70.7369 93.471 71.4736ZM84.2095 69.2634C84.3147 68.9477 84.4199 68.632 84.5252 68.3162C84.6304 68.0005 84.9462 68.1057 85.1567 68.211C85.0514 69.4739 85.1567 70.7369 84.8409 72.105C84.1042 71.1578 83.8937 70.2106 84.2095 69.2634ZM105.048 79.0512C104.943 79.3669 104.837 79.6827 104.627 80.1036C104.416 79.6827 104.416 79.4722 104.311 79.1564C104.627 79.0512 104.732 78.946 105.048 78.946C104.943 78.946 105.048 79.0512 105.048 79.0512Z" fill="black" stroke="black" stroke-width="0.3872" stroke-miterlimit="10"/>
<path d="M129.466 50.2164C129.466 49.6902 129.466 49.1639 129.36 48.6377C129.36 48.1115 129.255 47.6905 129.15 47.059C128.939 46.1118 128.834 45.2699 128.203 44.4279C127.992 44.007 127.782 43.586 127.571 43.165C127.887 42.9545 128.308 43.0598 128.413 42.5335C127.992 42.2178 127.571 41.9021 127.15 41.4811C125.677 40.1129 124.098 38.85 122.625 37.4818C122.519 37.3765 122.414 37.2713 122.309 37.1661C121.256 36.1136 119.994 35.3769 118.836 34.7454C118.52 34.6402 118.099 34.5349 117.783 34.4297C117.468 34.4297 117.257 34.4297 117.047 34.6402C116.941 34.7454 116.941 34.7454 116.941 34.8507C117.047 34.8507 117.362 34.8507 117.573 34.8507C117.362 35.4821 117.468 35.9031 117.783 36.4293C118.099 36.7451 118.31 37.1661 118.52 37.4818C118.731 37.9028 118.836 38.429 119.046 38.7447C119.257 39.1657 119.467 39.4814 119.573 39.9024C119.888 40.7444 120.204 41.4811 120.414 42.4283C120.414 42.5335 120.52 42.6388 120.52 42.744C121.151 45.6909 121.677 48.6377 121.677 51.6898C121.677 52.4265 121.677 52.9528 121.467 53.5842C121.362 53.6895 121.362 54.0052 121.362 54.1104C121.362 54.5314 121.362 55.0576 121.467 55.4786C121.572 56.0048 121.572 56.4258 121.783 57.0573C121.888 57.373 121.993 57.5835 121.993 57.8993C121.993 58.215 122.204 58.4255 122.414 58.636C122.94 59.4779 123.782 60.1094 124.73 60.6356C124.94 60.7409 125.361 60.9514 125.571 60.9514C126.308 61.0566 126.519 60.9513 126.624 60.3199C126.624 60.2146 126.729 60.0042 126.729 59.8989C126.94 59.7937 127.255 59.6884 127.571 59.6884C127.676 59.2674 127.782 58.7412 127.887 58.3202C127.887 58.0045 127.992 57.6888 127.992 57.4783V57.373C128.097 57.1625 128.097 56.9521 128.097 56.7416V56.6363C128.203 56.0048 128.413 55.4786 128.729 54.8472C128.834 54.5314 128.939 54.2157 129.045 54.0052C129.15 53.5842 129.36 52.9528 129.466 52.5318C129.571 52.1108 129.571 51.7951 129.571 51.4793C129.571 51.2688 129.466 50.8479 129.466 50.2164ZM127.361 58.4255C127.361 58.5307 127.361 58.5307 127.255 58.7412C127.15 59.2674 127.045 59.2674 126.519 59.3727C126.413 59.3727 126.413 59.3727 126.098 59.4779C125.992 59.7937 126.098 60.0041 125.992 60.3199C125.992 60.7409 125.782 60.9513 125.361 60.8461C125.045 60.7409 124.835 60.6356 124.624 60.5304C124.098 60.1094 123.572 59.5832 123.046 59.0569C122.519 58.4255 122.204 57.794 122.098 57.0573C121.993 56.8468 121.993 56.5311 121.993 56.3206C121.888 55.6891 121.888 55.1629 121.888 54.5314C121.888 54.3209 121.888 54.1104 121.993 53.9C121.993 53.7947 122.098 53.7947 122.098 53.6895C122.204 53.1632 122.309 52.5318 122.309 52.0056C122.309 51.9003 122.309 51.9003 122.414 51.6898C123.361 51.1636 124.203 50.5321 124.94 50.1111C124.94 50.1111 124.835 50.1111 124.835 50.0059C123.993 50.1111 123.361 50.8479 122.625 51.0584C122.625 50.9531 122.519 50.9531 122.519 50.8479C122.414 49.7954 122.414 48.6377 122.309 47.48C121.993 45.6909 121.677 44.007 121.362 42.323C121.151 41.0601 120.414 39.7972 119.888 38.6395C119.362 37.6923 118.836 36.7451 118.31 35.6926C118.52 35.6926 118.731 35.7979 118.836 35.7979C119.467 36.1136 119.994 36.4293 120.52 36.8503C120.52 36.8503 120.625 36.8503 120.625 36.9556C121.151 37.3765 121.677 37.7975 122.309 38.2185C123.361 39.2709 124.624 40.1129 125.887 41.1653C126.413 41.6916 126.94 42.2178 127.571 42.8493C127.255 43.165 127.361 43.4807 127.571 43.7965C127.782 44.1122 127.782 44.4279 128.097 44.6384C128.939 45.7961 129.15 47.0591 129.255 48.4272C129.255 49.2692 129.045 50.1111 129.466 50.9531C129.571 51.0584 129.466 51.3741 129.466 51.6898C129.36 52.637 129.15 53.5842 128.939 54.5314C128.939 54.7419 128.834 54.9524 128.729 55.2681C127.782 56.0049 127.361 57.2678 127.361 58.4255Z" fill="black" stroke="black" stroke-width="0.3872" stroke-miterlimit="10"/>
<path d="M97.8921 46.4189C97.5763 46.6294 97.3658 46.7347 97.1553 46.9452C97.0501 47.0504 96.7344 47.1557 96.6291 46.9452C96.4186 46.7347 96.6291 46.5242 96.7344 46.4189L96.8396 46.3137C97.6816 45.7875 98.4183 45.2613 99.155 44.8403C99.3655 44.6298 99.8917 44.735 100.102 44.8403C100.839 45.0508 101.576 45.4717 101.786 46.2085C101.997 47.0504 101.681 47.6819 101.155 48.2081C100.734 48.6291 100.102 48.7343 99.576 48.4186C99.4707 48.3134 99.2602 48.2081 99.155 48.1029C98.6288 47.8924 98.313 47.4714 98.1026 46.9452C97.9973 46.7347 97.9973 46.6294 97.8921 46.4189Z" fill="black"/>
<path d="M119.045 45.264C118.94 45.3693 118.835 45.5797 118.624 45.685C118.203 45.3693 117.888 45.1588 117.467 44.843C117.361 44.9483 117.256 45.0535 117.256 45.0535C117.151 45.7902 116.625 46.106 116.098 46.3165C115.888 46.4217 115.677 46.7374 115.256 46.5269C114.835 46.3165 114.414 46.2112 114.204 45.8955C113.783 45.3693 113.362 44.1063 114.099 43.1591C114.204 43.0539 114.414 42.9486 114.52 42.9486C115.572 42.8434 116.625 42.9486 117.361 43.6853C117.677 44.0011 118.098 44.2116 118.414 44.5273C118.624 44.9483 118.835 45.1588 119.045 45.264Z" fill="black"/>
<path d="M122.309 83.8924V83.9976C122.519 84.8396 122.624 85.6815 122.624 86.5235C122.519 86.6287 122.519 86.6287 122.414 86.734C122.309 86.8392 122.203 86.9445 122.098 86.9445C122.098 86.8392 122.098 86.8392 122.098 86.734C121.993 85.9973 121.888 85.1553 121.782 84.3133C121.677 83.6819 121.572 83.1556 121.467 82.5242C121.993 82.2084 121.993 82.7347 122.414 82.8399C122.309 82.2084 122.203 81.577 121.993 81.0508C121.782 80.5245 121.572 79.9983 121.361 79.4721C121.256 79.2616 121.151 78.9459 121.046 78.7354V78.6301C120.94 78.5249 120.835 78.4196 120.835 78.2091C120.519 78.4196 120.204 78.4196 119.993 78.7354C119.151 79.3668 118.309 79.9983 117.467 80.735C117.362 80.8403 117.362 80.8403 117.257 80.9455C117.046 81.156 116.731 81.3665 116.52 81.4717C116.415 81.4717 116.415 81.3665 116.31 81.3665C116.415 81.2612 116.731 81.0508 116.836 80.9455C117.993 79.8931 119.362 79.0511 120.625 78.1039C120.73 77.8934 120.414 77.5777 120.73 77.3672H120.835H120.94C121.361 77.3672 121.256 77.6829 121.467 77.9987C121.993 79.2616 122.414 80.6298 122.835 81.998C123.045 82.5242 123.15 83.1556 123.256 83.6819C123.256 83.7871 123.256 84.1028 123.256 84.3133C122.729 83.9976 122.519 83.9976 122.309 83.8924Z" fill="black"/>
<path d="M121.887 87.2597V86.944C121.887 86.8388 121.887 86.8388 121.887 86.7335C121.782 85.8916 121.572 85.0496 121.572 84.4181L121.466 83.9972C121.361 83.5762 121.256 83.05 121.151 82.629V82.5237L121.256 82.4185C121.677 82.208 121.887 82.208 121.993 82.4185C121.887 81.9975 121.782 81.6818 121.677 81.2608C121.466 80.8398 121.361 80.3136 121.045 79.6821L120.94 79.5769C120.835 79.3664 120.73 79.1559 120.73 78.9454V78.8402C120.73 78.7349 120.624 78.7349 120.624 78.7349C120.624 78.7349 120.624 78.7349 120.519 78.7349C120.309 78.8402 120.098 78.9454 119.888 79.0507C119.467 79.4716 118.941 79.7874 118.414 80.2083C117.993 80.4188 117.783 80.7346 117.362 81.0503L117.257 81.1556L117.151 81.2608C116.941 81.4713 116.625 81.6818 116.415 81.787V81.6818H116.309C116.204 81.5765 116.099 81.5765 115.888 81.4713L115.783 81.366L115.888 81.2608C116.099 81.0503 116.309 80.9451 116.52 80.7346C117.467 79.8926 118.52 79.2611 119.467 78.5244C119.677 78.3139 119.993 78.1035 120.203 77.9982C120.203 77.893 120.203 77.893 120.203 77.893C120.203 77.7877 120.098 77.472 120.414 77.2615C120.519 77.2615 120.519 77.1562 120.519 77.1562C120.624 77.1562 120.624 77.1562 120.624 77.1562C121.045 77.1562 121.045 77.472 121.151 77.6825C121.151 77.7877 121.151 77.7877 121.256 77.7877L121.782 79.3664C122.098 80.2084 122.308 80.9451 122.729 81.787C122.94 82.3132 123.045 82.8395 123.15 83.3657V83.4709C123.15 83.5762 123.15 83.7867 123.15 83.8919C123.15 83.9972 123.15 83.9972 123.15 84.1024V84.3129L122.94 84.2076C122.835 84.2076 122.835 84.1024 122.624 84.1024C122.519 84.1024 122.519 84.1024 122.519 83.9972C122.624 84.7339 122.835 85.5758 122.835 86.4178V86.523L122.729 86.6283C122.624 86.7335 122.624 86.7335 122.519 86.8388C122.414 86.8388 122.414 86.944 122.414 86.944C122.308 86.944 122.308 87.0493 122.308 87.0493L121.887 87.2597ZM121.677 82.629C121.782 83.05 121.887 83.4709 121.887 83.8919L121.993 84.3129C122.098 84.9444 122.308 85.7863 122.308 86.6283C122.308 86.6283 122.308 86.6283 122.414 86.6283L122.519 86.523C122.414 85.7863 122.308 84.9444 122.203 84.1024C122.203 83.9972 122.203 83.9972 122.203 83.9972V83.6814L122.519 83.7867C122.624 83.8919 122.729 83.8919 122.94 83.8919C122.94 83.8919 122.94 83.8919 123.045 83.8919C123.045 83.7867 123.045 83.6814 123.045 83.5762V83.4709C122.94 82.9447 122.835 82.4185 122.624 81.8923C122.308 81.0503 122.098 80.3136 121.677 79.4716L121.151 77.9982C121.151 77.893 121.045 77.893 121.045 77.7877C120.94 77.5772 120.94 77.5772 120.835 77.5772H120.73V77.6825C120.73 77.7877 120.73 77.9982 120.73 78.1035V78.2087H120.624C120.519 78.2087 120.519 78.3139 120.519 78.3139L120.835 78.1035L120.94 78.3139C120.94 78.4192 121.045 78.4192 121.045 78.5244C121.045 78.6297 121.151 78.6297 121.151 78.7349L121.045 78.8402L121.151 78.7349C121.256 78.9454 121.361 79.1559 121.466 79.3664L121.572 79.4716C121.782 80.1031 122.098 80.6293 122.203 81.0503C122.414 81.787 122.519 82.3132 122.624 82.8395L122.729 83.1552L122.414 83.05C122.203 82.9447 122.098 82.8395 121.993 82.7342C121.677 82.629 121.677 82.629 121.677 82.629Z" fill="black"/>
<path d="M98.2075 57.8986C98.2075 57.4777 98.5232 57.0567 98.7337 56.7409C98.9442 56.32 99.1547 56.0042 99.4704 55.3728C98.7337 55.5832 98.4179 56.2147 97.8917 56.5304C97.4707 56.4252 97.4707 56.2147 97.6812 55.7937C97.7865 55.899 97.8917 55.899 98.1022 55.899C98.8389 55.3728 99.5756 54.8465 100.418 54.3203C100.418 54.5308 100.523 54.7413 100.418 54.7413C99.7861 55.478 99.4704 56.5305 98.8389 57.4777C98.7337 57.5829 98.6284 57.7934 98.5232 57.8986C98.4179 58.0039 98.3127 58.0039 98.2075 57.8986Z" fill="black"/>
<path d="M98.5237 58.3192L98.4184 58.2139C98.3132 58.1087 98.2079 58.1087 98.1027 58.1087L97.9974 58.0034V57.8982C97.9974 57.4772 98.2079 57.1615 98.3132 56.8457C98.4184 56.7405 98.4184 56.7405 98.4184 56.6352C98.5237 56.4248 98.6289 56.2143 98.7342 55.8985C98.6289 56.0038 98.4184 56.109 98.3132 56.3195C98.2079 56.4248 97.8922 56.6352 97.6817 56.8457H97.5765H97.4712C97.2607 56.7405 97.0502 56.7405 97.0502 56.53C96.8397 56.3195 96.945 56.0038 97.0502 55.7933L97.1555 55.5828L97.366 55.688C97.4712 55.688 97.4712 55.7933 97.4712 55.7933C97.4712 55.7933 97.5765 55.7933 97.5765 55.8985C97.8922 55.688 98.2079 55.3723 98.6289 55.1618C99.0499 54.9513 99.3656 54.6356 99.7866 54.3199L100.102 54.1094V54.5303C100.102 54.6356 100.102 54.6356 100.102 54.7408C100.102 54.8461 100.208 55.0566 99.9971 55.1618C99.5761 55.5828 99.3656 56.2143 99.0499 56.8457C98.9446 57.1615 98.7342 57.5824 98.5237 57.8982C98.4184 58.0034 98.4184 58.0034 98.4184 58.1087C98.3132 58.2139 98.3132 58.2139 98.3132 58.3192H98.5237ZM99.7866 55.1618L99.2604 56.109C99.1551 56.4248 98.9446 56.6352 98.8394 56.8457C98.7342 56.951 98.7342 56.951 98.7342 57.0562C98.6289 57.2667 98.4184 57.4772 98.4184 57.7929C98.4184 57.7929 98.4184 57.7929 98.4184 57.6877C98.5237 57.5824 98.5237 57.5824 98.5237 57.4772C98.6289 57.1615 98.9446 56.8457 99.0499 56.4248C99.3656 55.7933 99.6814 55.2671 100.102 54.7408C99.8918 54.9513 99.6814 55.0566 99.4709 55.2671L99.7866 55.1618ZM97.6817 56.109C97.6817 56.2143 97.6817 56.2143 97.6817 56.2143L97.787 56.3195C97.8922 56.3195 97.8922 56.2143 97.8922 56.2143L97.787 56.109C97.787 56.2143 97.6817 56.2143 97.6817 56.109Z" fill="black"/>
<path d="M112.206 46.9531C112.417 47.1636 112.627 47.2689 112.732 47.3741C113.259 48.0056 113.679 48.7423 114.206 49.3738C114.416 49.6895 114.732 50.0052 115.048 50.321C115.258 50.6367 115.258 50.6367 115.048 51.0577C114.311 50.5314 112.417 47.7951 112.206 46.9531Z" fill="black"/>
<path d="M115.152 51.4663L115.046 51.361C114.31 50.7295 112.31 47.9932 112.205 47.1512L112.1 46.625L112.521 47.046C112.626 47.1512 112.626 47.1512 112.731 47.1512C112.836 47.2565 112.942 47.2565 113.047 47.467C113.257 47.7827 113.573 48.0984 113.784 48.4142C113.994 48.7299 114.31 49.0456 114.52 49.3614C114.625 49.4666 114.731 49.6771 114.941 49.7823C115.046 49.8876 115.257 50.0981 115.362 50.3086C115.678 50.7295 115.573 50.8348 115.362 51.2558L115.152 51.4663ZM112.836 47.8879C113.363 48.8351 114.31 50.2033 114.941 50.8348C115.046 50.7295 114.941 50.7295 114.836 50.5191C114.731 50.4138 114.625 50.2033 114.415 50.0981C114.31 49.9928 114.099 49.7823 113.994 49.6771C113.784 49.3614 113.468 49.0456 113.257 48.7299C113.152 48.3089 113.047 48.0984 112.836 47.8879Z" fill="black"/>
<path d="M116.625 81.9942C116.73 81.8889 116.73 81.7837 116.73 81.6784C117.783 80.8365 118.835 79.9945 119.993 79.2578C119.993 79.2578 120.098 79.2578 120.203 79.2578C119.993 79.6788 117.256 81.7837 116.625 81.9942Z" fill="black"/>
<path d="M82 59.2607C82.3157 58.524 83.8944 57.261 84.6311 56.9453C84.6311 57.0506 84.6311 57.0506 84.5259 57.1558C83.6839 57.8925 82.9472 58.6292 82.1052 59.3659C82.3157 59.3659 82.2105 59.2607 82 59.2607Z" fill="black"/>
<path d="M120.414 80.6204C120.414 80.7257 120.309 80.7257 120.309 80.7257C119.467 81.2519 118.73 81.7781 117.994 82.3043C117.888 82.4096 117.573 82.5148 117.257 82.3043C118.309 81.6729 119.256 81.0414 120.309 80.3047C120.309 80.6204 120.309 80.6204 120.414 80.6204Z" fill="black"/>
<path d="M104.626 39.0625C105.153 39.4835 105.468 40.1149 105.679 41.0622C105.679 41.2726 105.889 41.5884 105.574 41.9041C105.468 41.4831 105.363 41.1674 105.363 40.9569C105.258 40.6412 105.153 40.4307 104.942 40.0097C104.837 39.5887 104.416 39.3782 104.626 39.0625Z" fill="black"/>
<path d="M105.575 42.1137L105.469 41.798C105.364 41.6927 105.364 41.4822 105.259 41.377C105.154 41.2717 105.154 40.956 105.048 40.8508C104.943 40.7455 104.943 40.6403 104.838 40.4298C104.733 40.3245 104.627 40.1141 104.627 39.9036C104.627 39.7983 104.522 39.7983 104.417 39.6931C104.206 39.4826 104.101 39.2721 104.206 38.8511L104.312 38.6406L104.522 38.7459C105.048 39.1669 105.469 39.7983 105.68 40.8508C105.68 40.956 105.68 40.956 105.68 40.956C105.785 41.1665 105.89 41.5875 105.469 41.798L105.575 42.1137ZM105.154 39.9036C105.259 40.0088 105.364 40.2193 105.364 40.3245C105.259 40.1141 105.259 40.0088 105.154 39.9036Z" fill="black"/>
<path d="M84.947 58.2031C84.3156 58.9398 83.7893 59.7818 83.0526 60.4133C83.0526 60.2028 82.9474 59.9923 83.0526 59.9923C83.5789 59.3608 84.2103 58.7293 84.947 58.2031Z" fill="black"/>
<path d="M106.837 51.7892C106.627 51.3682 106.627 51.0524 106.416 50.7367C106.311 50.5262 106.416 50.2105 106.627 50C106.837 50.2105 107.048 50.5262 107.363 50.842C107.258 51.1577 107.048 51.4734 106.837 51.7892Z" fill="black"/>
<path d="M106.837 52.2097L106.627 51.7887C106.416 51.3677 106.416 51.1572 106.311 50.8415C106.206 50.4205 106.311 50.1048 106.627 49.8943L106.732 49.7891L106.837 49.8943C107.048 50.1048 107.258 50.4205 107.574 50.7363L107.679 50.8415L107.574 50.9468C107.469 51.2625 107.258 51.5782 107.048 51.9992L106.837 52.2097ZM106.732 50.3153C106.627 50.4205 106.627 50.5258 106.627 50.7363C106.732 50.9468 106.837 51.1572 106.837 51.473C106.942 51.3677 106.942 51.1572 107.048 51.052C107.048 50.7363 106.837 50.5258 106.732 50.3153Z" fill="black"/>
<path d="M117.151 74.9385C117.888 74.4123 118.625 73.9913 119.256 73.5703C119.256 73.5703 119.362 73.5703 119.572 73.5703C119.151 73.9913 118.73 74.0965 118.414 74.4123C117.993 74.728 117.678 74.9385 117.257 75.3595C117.257 75.0437 117.257 74.9385 117.151 74.9385C117.151 74.8332 117.151 74.9385 117.151 74.9385Z" fill="black"/>
<path d="M79.8954 51.4839C79.3692 52.2206 78.7377 52.6416 78.001 53.1678C78.001 52.6416 78.422 52.4311 78.7377 52.1154C79.1587 51.9049 79.3692 51.5892 79.7901 51.2734C79.8954 51.4839 79.8954 51.4839 79.8954 51.4839Z" fill="black"/>
<path d="M100.312 70.4219C99.4703 71.0533 98.7336 71.5796 97.9968 72.3163L97.8916 72.211C97.9968 72.1058 97.9968 72.0005 98.1021 71.8953C98.7336 71.2638 99.786 70.5271 100.312 70.4219Z" fill="black"/>
<path d="M83.999 59.887C84.5252 59.3608 85.0515 58.8346 85.6829 58.2031C85.4725 58.9398 84.841 59.6766 83.999 59.887Z" fill="black"/>
<path d="M107.784 38.7422C107.995 39.2684 107.995 40.2156 107.784 41.0576C107.468 40.2156 107.574 39.1632 107.784 38.7422Z" fill="black"/>
<path d="M107.679 41.8908L107.469 41.1541C107.258 40.2069 107.258 39.2597 107.574 38.7335L107.785 38.3125L107.995 38.7335C108.206 39.2597 108.311 40.3121 107.995 41.1541L107.679 41.8908Z" fill="black"/>
<path d="M87.999 68.2115C88.6305 67.4748 89.4725 66.8433 89.9987 66.6328C89.4725 67.0538 88.9462 67.6853 88.3148 68.1062C88.2095 68.2115 88.1043 68.2115 87.999 68.2115Z" fill="black"/>
<path d="M117.573 75.8957C117.889 75.2643 118.52 74.8433 119.362 74.6328C118.941 75.159 118.415 75.4748 117.573 75.8957Z" fill="black"/>
<path d="M85.5778 81.5703C84.9463 81.886 84.3148 82.307 83.5781 82.6228C83.7886 82.0965 84.6306 81.5703 85.5778 81.5703Z" fill="black"/>
<path d="M114.941 87.2588C115.047 86.5221 115.362 86.2064 116.31 85.8906C115.783 86.4168 115.468 86.7326 114.941 87.2588Z" fill="black"/>
<path d="M83.6836 81.5676C84.1046 80.9362 84.736 80.6204 85.4728 80.3047C84.9465 80.9362 84.3151 81.2519 83.6836 81.5676Z" fill="black"/>
<path d="M31.378 71.9922C28.7468 73.3604 26.1157 74.8338 23.5898 76.202C24.537 73.7813 27.6944 72.0974 31.378 71.9922Z" fill="black"/>
<path d="M23.7998 72.1064C25.4837 69.6858 27.9043 68.3176 30.746 67.0547C28.8515 69.1596 26.5362 70.9487 23.7998 72.1064Z" fill="black"/>
<path d="M170.09 74.8427C167.879 72.843 165.775 70.8434 163.564 68.8438C166.09 68.949 168.721 71.4749 170.09 74.8427Z" fill="black"/>
<path d="M163.775 63.6797C166.407 64.9426 168.196 67.1528 169.985 69.5734C167.564 68.2052 165.565 66.2056 163.775 63.6797Z" fill="black"/>
<path d="M88.3142 46.1094C87.8933 46.7408 87.367 47.1618 86.8408 47.3723C86.8408 47.2671 86.8408 47.0566 86.9461 46.9513C87.367 46.5304 87.6828 46.2146 88.3142 46.1094Z" fill="black"/>
<path d="M92.209 52.9435C92.5247 52.5225 92.9457 52.3121 93.5772 52.1016C93.1562 52.733 92.7352 52.9435 92.209 52.9435Z" fill="black"/>
<path d="M89.0518 68.3213C89.2622 67.7951 89.6832 67.3741 90.2094 66.9531C89.999 67.5846 89.7885 67.9003 89.0518 68.3213Z" fill="black"/>
<path d="M104.733 70.4155C104.417 69.9945 104.102 69.784 103.681 69.3631L103.786 69.2578C104.102 69.5735 104.523 69.8893 104.838 70.205C104.944 70.3103 104.838 70.3103 104.733 70.4155Z" fill="black"/>
<path d="M92.209 52.1035C92.3142 51.472 92.7352 51.3667 93.1562 51.1562C92.9457 51.6825 92.9457 51.6825 92.209 52.1035Z" fill="black"/>
<path d="M78.21 54.5249C78.3152 53.9987 78.7362 53.7882 79.1572 53.3672C79.0519 53.9987 78.9467 54.1039 78.21 54.5249Z" fill="black"/>
<path d="M110.416 81.7891C111.047 81.8943 111.047 81.8943 111.153 82.631C110.837 82.4205 110.627 82.21 110.416 81.7891Z" fill="black"/>
<path d="M92.8405 85.2597C92.63 85.0492 92.4195 84.7335 92.209 84.4177L92.3142 84.3125C92.4195 84.3125 92.5247 84.3125 92.63 84.4177C92.8405 84.6282 92.9457 84.8387 93.1562 85.0492C93.0509 85.1545 92.9457 85.1545 92.8405 85.2597Z" fill="black"/>
<path d="M94.3136 65.9978C93.9979 65.5768 93.6822 65.3663 93.4717 64.9453C93.8927 65.0506 94.2084 65.261 94.3136 65.9978Z" fill="black"/>
<path d="M116.73 87.6723C116.414 87.8828 115.993 87.8828 115.678 88.1985C116.099 87.6723 116.204 87.567 116.73 87.567C116.73 87.4618 116.73 87.567 116.73 87.6723Z" fill="black"/>
<path d="M93.4717 83.5781C93.9979 83.6834 94.2084 83.9991 94.3136 84.5253C93.8927 84.4201 93.5769 84.1043 93.4717 83.5781Z" fill="black"/>
<path d="M94.734 64.944C94.4183 64.8387 94.2078 64.7335 94.1025 64.3125C94.4183 64.4177 94.6288 64.7335 94.734 64.944Z" fill="black"/>
<path d="M105.154 59.8984C105.259 60.3194 105.154 60.4247 104.838 60.5299C104.838 60.2142 104.943 60.1089 105.154 59.8984Z" fill="black"/>
<path d="M119.046 57.0547C119.151 57.4757 119.046 57.5809 118.73 57.6862C118.625 57.4757 118.835 57.2652 119.046 57.0547Z" fill="black"/>
<path d="M104.207 57.8906C104.312 58.3116 104.207 58.4168 103.891 58.5221C103.786 58.2064 103.891 58.1011 104.207 57.8906Z" fill="black"/>
<path d="M117.151 57.2652C117.046 57.3704 116.941 57.4757 116.835 57.4757C116.73 57.4757 116.73 57.3704 116.625 57.2652C116.73 57.2652 116.73 57.1599 116.835 57.0547C116.941 57.0547 117.046 57.1599 117.151 57.2652Z" fill="black"/>
<path d="M117.361 59.1636C117.467 59.0584 117.467 59.0584 117.467 58.9531C117.572 59.0584 117.572 59.0584 117.572 59.0584L117.467 59.1636C117.572 59.2689 117.572 59.2689 117.361 59.1636Z" fill="black"/>
<path d="M105.995 58.3199C106.1 58.2146 106.1 58.2146 106.1 58.1094C106.206 58.2146 106.206 58.2146 106.206 58.2146L106.1 58.3199C106.1 58.3199 106.1 58.3199 105.995 58.3199Z" fill="black"/>
<path d="M81.0536 59.4688C81.1589 59.574 81.1589 59.574 81.2641 59.6792C81.2641 59.6792 81.1589 59.6792 81.1589 59.7845C81.1589 59.6792 81.0536 59.6792 81.0536 59.4688C80.9484 59.4688 81.0536 59.4688 81.0536 59.4688Z" fill="black"/>
<path d="M115.783 78.1011C115.888 77.9959 115.888 77.9959 115.994 77.8906C115.994 77.8906 115.994 77.8906 116.099 77.9959C115.994 78.1011 115.994 78.1011 115.994 78.2064C115.783 78.2064 115.783 78.1011 115.783 78.1011Z" fill="black"/>
<path d="M119.888 68.7335C119.572 68.944 119.256 69.2597 118.835 69.4702C118.73 69.3649 118.625 69.0492 118.625 68.944C118.835 68.7335 119.046 68.523 119.256 68.4177C119.677 68.2073 119.783 68.3125 119.888 68.7335Z" fill="black"/>
<path d="M124.308 50.8359C123.782 51.3622 123.256 51.8884 122.309 52.3094C122.414 52.0989 122.414 51.8884 122.519 51.8884C123.151 51.3622 123.677 51.0464 124.308 50.8359Z" fill="black"/>
<path d="M123.256 43.3717C123.677 43.2665 123.992 43.5822 124.203 44.1084C123.887 44.0032 123.466 43.7927 123.15 43.5822C123.256 43.5822 123.256 43.477 123.256 43.3717Z" fill="black"/>
<path d="M123.887 45.0639C123.256 44.8535 123.045 44.4325 122.835 43.9062C123.361 44.222 123.572 44.643 123.887 45.0639Z" fill="black"/>
<path d="M99.471 46.944C99.6454 46.944 99.7867 46.8026 99.7867 46.6282C99.7867 46.4539 99.6454 46.3125 99.471 46.3125C99.2966 46.3125 99.1553 46.4539 99.1553 46.6282C99.1553 46.8026 99.2966 46.944 99.471 46.944Z" fill="white"/>
<path d="M115.468 45.2643C115.642 45.2643 115.784 45.1229 115.784 44.9485C115.784 44.7742 115.642 44.6328 115.468 44.6328C115.294 44.6328 115.152 44.7742 115.152 44.9485C115.152 45.1229 115.294 45.2643 115.468 45.2643Z" fill="white"/>
<path d="M109.468 53.8915C110.415 53.3653 111.573 53.1548 112.626 53.1548C113.047 53.1548 113.362 53.1548 113.678 53.1548C114.099 53.26 114.625 53.26 114.941 53.4705C115.046 53.5758 115.362 53.4705 115.362 53.3653C115.467 53.26 115.362 52.9443 115.257 52.9443C114.836 52.7338 114.204 52.6286 113.678 52.5233C113.257 52.5233 112.941 52.4181 112.52 52.5233C111.257 52.5233 110.1 52.8391 109.047 53.3653C108.942 53.4705 108.837 53.5758 108.942 53.7863C109.153 53.8915 109.363 53.9968 109.468 53.8915Z" fill="white"/>
<path d="M117.572 41.3647C116.625 41.049 115.783 40.8385 114.73 41.2595C114.625 41.1542 114.415 40.9437 114.52 40.8385C114.625 40.7332 114.836 40.5227 115.046 40.4175C115.993 40.207 117.467 40.5227 117.782 41.049C117.677 41.049 117.677 41.1542 117.572 41.3647Z" fill="black"/>
<path d="M117.678 41.5849L117.573 41.4797C116.731 41.1639 115.889 40.9535 114.837 41.3744L114.732 41.4797L114.626 41.3744C114.626 41.2692 114.521 41.2692 114.521 41.2692C114.416 41.1639 114.311 40.9535 114.311 40.8482V40.743C114.416 40.6377 114.626 40.322 114.942 40.2167C115.889 39.901 117.468 40.322 117.889 40.9535C117.994 41.0587 117.889 41.1639 117.784 41.2692L117.678 41.3744V41.5849ZM115.784 40.743C116.31 40.743 116.836 40.8482 117.363 41.0587C116.942 40.6377 115.784 40.4272 114.942 40.6377C114.837 40.6377 114.626 40.8482 114.521 40.8482L114.626 40.9535C114.626 40.9535 114.626 40.9535 114.732 41.0587C115.153 40.8482 115.468 40.743 115.784 40.743Z" fill="black"/>
<path d="M95.7861 41.7963C96.9438 40.8491 98.9435 40.8491 100.312 41.7963C99.4697 42.1121 98.9435 41.6911 98.2068 41.6911C97.47 41.6911 96.6281 41.7963 95.7861 41.7963Z" fill="black"/>
<path d="M99.7856 42.1153C99.4699 42.1153 99.1541 42.0101 98.8384 42.0101C98.6279 41.9048 98.4174 41.9048 98.1017 41.9048C97.5755 41.9048 97.1545 41.9048 96.523 41.9048C96.2073 41.9048 95.8915 41.9048 95.5758 41.9048H94.9443L95.4706 41.4838C96.7335 40.5366 98.9436 40.5366 100.207 41.4838L100.522 41.6943L100.101 41.9048C100.207 42.0101 99.9961 42.1153 99.7856 42.1153ZM96.6282 41.4838C97.1545 41.4838 97.6807 41.4838 98.2069 41.4838C98.5227 41.4838 98.7331 41.5891 99.0489 41.5891C99.2594 41.6943 99.4699 41.6943 99.7856 41.6943C98.8384 41.2734 97.6807 41.0629 96.6282 41.4838Z" fill="black"/>
<path d="M134.937 50.2047C133.148 44.6267 130.938 39.0488 126.202 35.1547C118.203 28.5243 110.836 25.7879 98.628 26.9456C97.8912 26.9456 97.1545 27.1561 96.5231 27.1561C91.8923 27.6823 87.893 29.4715 84.3147 32.3131C80.1049 35.3652 76.9476 39.2593 74.3164 43.89C71.8958 48.0998 70.7381 52.7306 69.3699 57.2561C68.4227 60.9397 68.528 64.8337 68.528 68.5173C68.4227 69.4645 68.7385 70.6222 69.2647 71.4641C72.001 76.7264 74.8427 81.8834 79.9996 85.5669C87.1563 90.7239 95.0496 93.0393 103.469 92.1973C108.731 91.7764 113.678 90.6187 118.519 88.5138C119.466 87.9875 120.519 87.5666 121.571 86.9351C121.782 86.8299 121.992 86.7246 122.203 86.6194C122.308 86.5141 122.413 86.4089 122.518 86.4089C122.624 86.3036 122.624 86.3036 122.729 86.1984C126.097 84.0935 128.833 81.4624 131.254 78.4103C133.464 75.6739 135.464 72.5166 135.779 68.7278C135.99 65.6757 136.411 62.6236 136.621 59.8872C136.095 56.6246 135.779 53.1516 134.937 50.2047ZM123.045 83.462C122.729 83.6725 122.413 83.883 122.098 84.0935C121.992 84.1987 121.887 84.304 121.677 84.304C120.835 84.8302 119.993 85.3564 119.151 85.7774C114.415 88.3033 109.363 89.882 104.311 90.4082C102.101 90.6187 99.8909 90.6187 97.5755 90.3029C94.8391 89.9872 91.8923 89.3557 89.1559 88.3033C85.8933 87.1456 82.9465 85.5669 80.4206 83.5673C80.3154 83.462 80.1049 83.3568 79.9996 83.1463C79.7892 82.9358 79.5787 82.7253 79.2629 82.5148C75.3689 79.0418 72.5273 74.5162 71.3696 68.833C70.5276 65.1495 70.8434 60.7292 72.2115 57.0456C74.1059 51.0467 76.0004 44.9425 79.9996 39.996C80.1049 39.8907 82.4203 37.0491 82.4203 37.0491C83.578 35.7862 83.4727 35.8914 84.8409 34.839C90.5241 30.2082 98.207 28.1033 105.574 28.3138C113.257 28.6295 119.993 31.9974 125.571 37.4701C131.57 43.3638 134.306 51.3624 134.411 59.782C135.148 70.5169 130.938 77.9893 123.045 83.462Z" fill="black"/>
<path d="M44.5339 92.2005C44.5339 92.0953 44.4286 91.8848 44.4286 91.7795C44.3234 91.4638 44.2182 91.1481 44.2182 90.9376C44.0077 90.5166 43.9024 90.0956 43.6919 89.7799C43.3762 89.3589 43.0605 88.8327 42.6395 88.4117C41.3766 87.254 40.6398 86.9383 39.0612 87.5697C38.7454 87.7802 38.4297 87.8855 38.2192 88.096L38.114 88.2012C37.693 88.6222 37.1668 89.0432 36.851 89.4642C36.2196 90.2009 35.7986 91.1481 35.6933 91.99C35.5881 92.6215 35.5881 93.253 35.4828 93.8844L35.3776 94.3054C35.2724 94.7264 35.4828 95.1474 35.6933 95.4631C35.9038 95.7788 36.2196 95.8841 36.6405 95.8841C36.7458 95.8841 36.7458 95.8841 36.851 95.8841C37.1668 95.8841 37.3773 95.7788 37.7982 95.6736C38.2192 95.5683 38.6402 95.4631 39.0612 95.2526C39.1664 95.1474 39.4821 95.0421 39.5874 95.0421C40.2189 94.8316 40.8503 94.8316 41.587 95.0421C42.008 95.1474 42.429 95.3579 42.85 95.3579C43.0605 95.4631 43.271 95.3579 43.5867 95.1474C44.2182 94.6211 44.6391 93.9897 44.5339 93.253C44.5339 92.9372 44.5339 92.5162 44.5339 92.2005Z" fill="black"/>
<path d="M35.2712 88.3105C35.166 88.2053 35.166 88.2053 35.0607 88.1C34.9555 87.8895 34.8503 87.6791 34.6398 87.4686C34.1135 86.7318 33.5873 86.3109 32.9558 86.1004C32.7454 85.9951 32.3244 85.9951 32.2191 86.2056C31.7982 86.6266 31.4824 87.2581 31.4824 87.8895C31.4824 89.1525 32.0086 89.9944 33.0611 90.7311C33.3768 90.9416 33.6926 91.0469 34.0083 91.0469C34.324 91.0469 34.5345 90.9416 34.745 90.8364C35.2712 90.2049 35.4817 89.1525 35.2712 88.3105Z" fill="black"/>
<path d="M36.1138 86.6248L36.2191 86.7301C36.9558 87.0458 38.324 86.7301 38.5344 85.8881C38.7449 84.7304 38.7449 83.5727 38.2187 82.4151C38.0082 81.9941 37.6925 81.6783 37.3768 81.3626C37.1663 81.1521 36.9558 80.9416 36.64 80.8364C36.3243 80.7311 36.0086 80.7311 35.7981 81.0469C35.4823 81.5731 35.1666 82.0993 34.9561 82.7308C34.6404 83.8885 34.9561 85.7829 36.1138 86.6248Z" fill="black"/>
<path d="M40.6383 85.9923C41.2698 86.6238 42.7432 86.5185 43.059 85.7818C43.5852 84.7294 43.9009 83.5717 43.5852 82.414C43.4799 81.993 43.2694 81.572 43.059 81.151C42.8485 80.8353 42.638 80.6248 42.5327 80.5196C42.217 80.3091 42.0065 80.2038 41.6908 80.5196C41.2698 80.9406 40.7436 81.4668 40.4278 81.993C39.9016 82.9402 39.5859 84.7294 40.6383 85.9923Z" fill="black"/>
<path d="M46.9525 84.9403C46.742 84.6246 46.321 84.4141 46.0053 84.4141C45.5843 84.4141 45.1633 84.6246 44.7424 84.9403C44.6371 85.0455 44.5319 85.1508 44.4266 85.3613C44.1109 85.7822 44.0056 86.4137 43.9004 87.0452C43.9004 87.4662 43.9004 87.8871 44.1109 88.3081C44.4266 89.0448 44.6371 89.2553 45.1633 89.2553H45.2686C45.3738 89.2553 45.3738 89.2553 45.4791 89.2553H45.5843C45.9 89.2553 46.1105 89.0448 46.321 88.9396C46.8472 88.5186 47.163 87.8871 47.4787 87.2557C47.7944 86.519 47.584 85.677 46.9525 84.9403Z" fill="black"/>
<path d="M158.513 78.4163C157.776 77.8901 156.829 77.8901 155.461 78.311C153.566 78.9425 152.093 79.995 150.83 81.7841C150.725 81.6789 150.619 81.4684 150.514 81.3631C150.198 80.9422 149.883 80.5212 149.462 80.2054L149.146 79.8897C148.409 79.2582 147.778 78.6268 146.936 78.2058C145.989 77.6796 145.041 77.6796 144.515 78.1006C143.884 78.6268 143.568 79.4687 143.673 80.4159C143.989 83.2575 144.726 85.2572 145.989 86.6254C146.41 87.0463 146.831 87.5726 147.357 88.0988C148.199 89.046 149.041 89.9932 149.672 90.6247C149.883 90.8352 150.198 90.9404 150.514 90.9404C150.619 90.9404 150.725 91.0457 150.935 91.0457L151.04 91.1509L151.146 91.0457C151.251 90.9404 151.251 90.8352 151.356 90.7299L151.461 90.6247L151.356 90.5194C151.251 90.4142 151.146 90.3089 151.04 90.0984C150.83 89.7827 150.619 89.5722 150.409 89.2565C149.883 88.7303 149.356 88.0988 148.725 87.3621C148.094 86.7306 147.462 85.9939 147.041 85.4677C145.989 84.31 145.252 82.5208 145.147 80.4159C145.147 79.8897 145.252 79.3635 145.462 79.2582C145.673 79.153 146.094 79.153 146.515 79.3635C147.357 79.8897 148.094 80.6264 148.83 81.4684C149.251 81.9946 149.777 82.6261 150.304 83.3628C150.514 83.7838 150.83 84.0995 151.146 84.5205L151.356 84.731L151.461 84.4152C151.567 84.0995 151.672 83.7838 151.777 83.6785C151.882 83.2575 152.093 82.9418 152.198 82.6261C152.303 82.5208 152.303 82.3103 152.514 82.2051C152.935 81.4684 153.356 80.8369 153.882 80.2054C154.829 79.2582 156.724 79.0478 157.355 79.574C158.197 80.3107 157.987 81.3631 157.776 82.3103L157.671 82.5208C157.355 84.4152 156.408 86.2044 154.619 87.9936C153.777 88.8355 153.04 89.6775 152.198 90.6247L151.461 91.3614L151.882 91.9929L151.988 91.8876C152.093 91.8876 152.198 91.7824 152.409 91.7824C152.724 91.6771 153.04 91.5719 153.251 91.3614L153.356 91.2561C154.724 89.7827 156.092 88.204 157.25 86.5201C158.408 84.9415 159.039 83.0471 159.144 80.9422C159.565 79.8897 159.144 78.9425 158.513 78.4163Z" fill="#1D1E1C"/>
<path d="M10.5384 9.47656C13.5905 12.1077 16.4321 14.7388 19.379 17.2647C19.4842 17.2647 19.379 17.5804 19.2738 17.8961C18.8528 17.6856 18.4318 17.7909 18.2213 17.5804C15.6954 15.3703 13.38 13.2654 10.8542 11.1605C10.4332 10.7395 9.90697 10.2133 10.5384 9.47656Z" fill="#F15748"/>
<path d="M13.4852 25.3626C13.0642 25.4679 12.6433 25.6784 12.2223 25.6784C9.9069 25.9941 7.48627 26.3098 5.17089 26.6256C3.90795 26.8361 2.64501 27.0466 1.38208 27.1518C0.855853 27.257 0.32963 27.3623 0.119141 26.6256C0.750609 26.2046 9.17018 24.7312 11.9065 24.6259C12.538 24.5207 12.538 24.5207 13.4852 25.3626Z" fill="#F15748"/>
<path d="M25.9039 11.6822C25.2724 7.89335 24.9567 4.20979 25.0619 0.526223C25.0619 0.315734 25.2724 0.210489 25.3777 0C26.2196 0.210489 26.1144 0.736714 26.1144 1.26294C25.9039 4.31503 26.3249 7.36713 26.8511 10.4192C26.9563 11.3664 26.9563 11.3664 25.9039 11.6822Z" fill="#F15748"/>
<path d="M183.56 112.726C180.823 109.779 178.192 106.832 175.561 103.991C175.456 103.991 175.561 103.675 175.666 103.359C176.087 103.57 176.508 103.57 176.719 103.78C178.929 106.201 181.139 108.622 183.349 111.042C183.876 111.463 184.296 111.989 183.56 112.726Z" fill="#F15748"/>
<path d="M182.403 96.6137C182.824 96.5084 183.245 96.4032 183.666 96.4032C185.982 96.2979 188.402 96.2979 190.823 96.2979C192.086 96.1927 193.454 96.1927 194.717 96.1927C195.243 96.1927 195.769 96.0875 195.98 96.8242C195.243 97.2451 186.718 97.7714 184.087 97.5609C183.245 97.5609 183.245 97.5609 182.403 96.6137Z" fill="#F15748"/>
<path d="M168.51 108.82C168.721 112.609 168.616 116.398 168.195 119.976C168.195 120.187 167.984 120.292 167.879 120.397C167.037 120.081 167.248 119.555 167.353 119.029C167.879 115.977 167.879 112.925 167.563 109.873C167.458 109.031 167.458 109.031 168.51 108.82Z" fill="#F15748"/>
</svg>
