<svg width="600" height="399" viewBox="0 0 600 399" fill="none" xmlns="http://www.w3.org/2000/svg">
<path d="M551.492 346.389L551.269 348.287C553.187 348.527 555.208 348.943 557.23 349.36L557.453 347.462C555.432 347.046 553.41 346.629 551.492 346.389Z" fill="#F15748"/>
<path d="M533.273 349.537L532.765 347.53C531.509 347.66 530.181 348.046 528.925 348.176L526.144 342.286L517.346 353.049L532.563 355.911L529.783 350.021C530.864 349.972 532.017 349.666 533.273 349.537Z" fill="#F15748"/>
<path d="M563.576 348.724L563.076 350.514C565.017 351.184 566.959 351.854 568.829 352.779L569.607 351.085C567.562 350.239 565.517 349.394 563.576 348.724Z" fill="#F15748"/>
<path d="M545.357 348.251L545.126 346.326C543.026 346.166 541.03 346.183 538.858 346.282L539.089 348.207C541.261 348.108 543.257 348.091 545.357 348.251Z" fill="#F15748"/>
<path d="M575.104 353.307L574.33 354.992C576.018 355.992 577.809 357.166 579.497 358.166L580.547 356.577C578.582 355.482 576.894 354.482 575.104 353.307Z" fill="#F15748"/>
<path d="M597.837 373.504C596.652 371.854 595.466 370.205 594.109 368.634L592.598 369.764C593.955 371.335 595.039 372.811 596.225 374.461L597.837 373.504Z" fill="#F15748"/>
<path d="M585.346 360.051L584.2 361.458C585.81 362.706 587.247 364.034 588.786 365.535L590.207 364.223C588.495 362.801 586.956 361.299 585.346 360.051Z" fill="#F15748"/>
<path d="M549.513 186.285L549.58 188.199C551.5 188.114 553.549 188.187 555.598 188.259L555.531 186.345C553.482 186.273 551.433 186.2 549.513 186.285Z" fill="#F15748"/>
<path d="M531.963 192.16L531.16 190.261C529.945 190.599 528.699 191.204 527.484 191.543L523.86 186.184L516.846 198.305L532.23 198.584L528.606 193.225C529.661 192.995 530.748 192.499 531.963 192.16Z" fill="#F15748"/>
<path d="M561.814 186.679L561.594 188.535C563.604 188.873 565.615 189.21 567.594 189.813L568.101 188.005C565.963 187.511 563.824 187.017 561.814 186.679Z" fill="#F15748"/>
<path d="M543.698 189.031L543.181 187.169C541.095 187.364 539.137 187.716 537.019 188.179L537.536 190.04C539.654 189.578 541.612 189.225 543.698 189.031Z" fill="#F15748"/>
<path d="M573.917 189.379L573.412 191.178C575.225 191.886 577.165 192.75 578.978 193.458L579.77 191.707C577.671 190.951 575.858 190.243 573.917 189.379Z" fill="#F15748"/>
<path d="M599.517 205.706C598.096 204.267 596.676 202.827 595.098 201.495L593.78 202.872C595.357 204.205 596.651 205.489 598.072 206.929L599.517 205.706Z" fill="#F15748"/>
<path d="M585.095 194.413L584.18 196.002C585.955 196.97 587.572 198.046 589.316 199.278L590.516 197.737C588.614 196.613 586.87 195.382 585.095 194.413Z" fill="#F15748"/>
<path d="M463.917 27.6896L464.506 29.4935C466.318 28.8114 468.296 28.2394 470.273 27.6673L469.684 25.8635C467.706 26.4355 465.729 27.0075 463.917 27.6896Z" fill="#F15748"/>
<path d="M448.729 37.9859L447.44 36.4247C446.372 37.1286 445.347 38.0965 444.279 38.8004L439.346 34.8207L435.967 48.5885L450.746 44.0335L445.813 40.0537C446.758 39.5038 447.661 38.6899 448.729 37.9859Z" fill="#F15748"/>
<path d="M475.827 24.5804L476.127 26.4262C478.142 26.1184 480.158 25.8106 482.216 25.7665L482.204 23.8768C480.023 24.0747 477.843 24.2726 475.827 24.5804Z" fill="#F15748"/>
<path d="M459.08 31.7735L458.077 30.1655C456.138 31.002 454.366 31.9488 452.47 33.0496L453.474 34.6577C455.369 33.5568 457.142 32.6101 459.08 31.7735Z" fill="#F15748"/>
<path d="M488.2 23.7251L488.212 25.613C490.142 25.723 492.238 25.9429 494.168 26.0529L494.443 24.1212C492.225 24.055 490.295 23.945 488.2 23.7251Z" fill="#F15748"/>
<path d="M517.345 31.9717C515.584 31.0264 513.823 30.0811 511.942 29.289L511.059 31.0406C512.941 31.8327 514.537 32.6682 516.298 33.6134L517.345 31.9717Z" fill="#F15748"/>
<path d="M500.344 25.3671L499.907 27.1874C501.875 27.5615 503.721 28.089 505.731 28.7263L506.455 26.8623C504.323 26.3785 502.312 25.7412 500.344 25.3671Z" fill="#F15748"/>
<path d="M49.1504 346.39L49.3739 348.288C47.4559 348.527 45.4345 348.944 43.4131 349.36L43.1895 347.463C45.2109 347.046 47.2323 346.629 49.1504 346.39Z" fill="#F15748"/>
<path d="M67.3693 349.537L67.8774 347.531C69.1337 347.66 70.4617 348.047 71.718 348.176L74.4985 342.286L83.2964 353.05L68.0795 355.912L70.86 350.022C69.7786 349.973 68.6256 349.667 67.3693 349.537Z" fill="#F15748"/>
<path d="M37.0668 348.725L37.5668 350.515C35.6251 351.185 33.6835 351.854 31.8132 352.78L31.0359 351.085C33.0805 350.24 35.1251 349.394 37.0668 348.725Z" fill="#F15748"/>
<path d="M55.2853 348.252L55.5164 346.326C57.6165 346.166 59.6128 346.184 61.7848 346.282L61.5538 348.207C59.3818 348.109 57.3854 348.091 55.2853 348.252Z" fill="#F15748"/>
<path d="M25.5391 353.308L26.3126 354.992C24.6244 355.992 22.8337 357.167 21.1456 358.167L20.096 356.578C22.0602 355.482 23.7484 354.483 25.5391 353.308Z" fill="#F15748"/>
<path d="M2.80558 373.504C3.99099 371.855 5.1764 370.205 6.5332 368.634L8.04425 369.764C6.68745 371.335 5.60345 372.812 4.41803 374.461L2.80558 373.504Z" fill="#F15748"/>
<path d="M15.2965 360.051L16.4427 361.458C14.833 362.707 13.396 364.034 11.857 365.535L10.436 364.223C12.1477 362.801 13.6868 361.3 15.2965 360.051Z" fill="#F15748"/>
<path d="M51.1299 186.285L51.0627 188.199C49.1422 188.114 47.0934 188.186 45.0446 188.259L45.1118 186.345C47.1606 186.273 49.2094 186.2 51.1299 186.285Z" fill="#F15748"/>
<path d="M68.6799 192.16L69.4829 190.261C70.6976 190.599 71.9439 191.204 73.1586 191.543L76.7821 186.184L83.797 198.305L68.4128 198.583L72.0363 193.224C70.9812 192.994 69.8947 192.499 68.6799 192.16Z" fill="#F15748"/>
<path d="M38.8286 186.679L39.0489 188.535C37.0384 188.873 35.0279 189.21 33.0489 189.813L32.5414 188.005C34.6798 187.511 36.8181 187.017 38.8286 186.679Z" fill="#F15748"/>
<path d="M56.9448 189.031L57.4618 187.169C59.5479 187.364 61.5054 187.716 63.6231 188.179L63.1061 190.04C60.9884 189.578 59.0309 189.225 56.9448 189.031Z" fill="#F15748"/>
<path d="M26.7254 189.379L27.2308 191.178C25.4177 191.886 23.4773 192.75 21.6643 193.458L20.8727 191.707C22.9719 190.951 24.7849 190.243 26.7254 189.379Z" fill="#F15748"/>
<path d="M1.12592 205.706C2.54639 204.267 3.96687 202.827 5.54445 201.495L6.86285 202.872C5.28527 204.205 3.99113 205.489 2.57066 206.929L1.12592 205.706Z" fill="#F15748"/>
<path d="M15.5478 194.413L16.4629 196.002C14.6876 196.971 13.0705 198.046 11.3263 199.278L10.1261 197.737C12.0284 196.613 13.7726 195.382 15.5478 194.413Z" fill="#F15748"/>
<path d="M136.726 27.6896L136.136 29.4935C134.324 28.8114 132.347 28.2394 130.369 27.6673L130.959 25.8635C132.936 26.4355 134.914 27.0075 136.726 27.6896Z" fill="#F15748"/>
<path d="M151.914 37.9857L153.202 36.4245C154.27 37.1284 155.295 38.0962 156.363 38.8002L161.297 34.8204L164.675 48.5882L149.896 44.0332L154.829 40.0535C153.884 39.5035 152.982 38.6896 151.914 37.9857Z" fill="#F15748"/>
<path d="M124.815 24.5804L124.516 26.4262C122.5 26.1184 120.485 25.8106 118.427 25.7665L118.439 23.8768C120.619 24.0747 122.8 24.2726 124.815 24.5804Z" fill="#F15748"/>
<path d="M141.562 31.7735L142.566 30.1655C144.505 31.002 146.277 31.9488 148.172 33.0496L147.169 34.6577C145.273 33.5568 143.501 32.6101 141.562 31.7735Z" fill="#F15748"/>
<path d="M112.443 23.7251L112.431 25.613C110.5 25.723 108.405 25.9429 106.475 26.0529L106.2 24.1212C108.417 24.055 110.348 23.945 112.443 23.7251Z" fill="#F15748"/>
<path d="M83.2979 31.9717C85.0586 31.0264 86.8193 30.0811 88.701 29.289L89.5836 31.0406C87.7019 31.8327 86.1052 32.6682 84.3445 33.6134L83.2979 31.9717Z" fill="#F15748"/>
<path d="M100.298 25.3673L100.736 27.1876C98.768 27.5616 96.9219 28.0892 94.9113 28.7265L94.1874 26.8625C96.3198 26.3787 98.3304 25.7414 100.298 25.3673Z" fill="#F15748"/>
</svg>
