<svg width="50" height="47" viewBox="0 0 50 47" fill="none" xmlns="http://www.w3.org/2000/svg">
<path d="M6.86929 23.2673C6.69959 23.5945 6.1006 23.4878 6.01407 23.2341C5.6713 23.0539 5.58477 22.8002 5.49824 22.5465C5.32518 22.0391 4.89588 21.6052 4.72282 21.0978C3.7777 19.9763 2.91575 18.2739 3.33831 17.0386C3.50464 15.8768 4.44303 15.3291 5.29489 14.5277C5.55112 14.4542 5.72082 14.127 6.06359 14.3072C6.31982 14.2337 6.40635 14.4874 6.66258 14.4139C8.37639 15.3149 9.40804 16.6901 10.6959 17.9918C11.2983 18.9331 12.1569 19.8009 12.3333 21.143C12.6794 22.1578 12.3434 23.6468 11.405 24.1945C10.9791 24.5952 10.4666 24.7422 9.95415 24.8891C9.18546 25.1096 8.673 25.2566 7.98747 24.8962C6.44673 24.5026 5.58477 22.8002 4.63965 21.6787" fill="white"/>
<path d="M21.8536 7.00545C22.1103 6.931 22.367 6.85654 22.6237 6.78209C22.8804 6.70764 23.224 6.88938 23.5676 7.07112C24.6852 7.87252 25.2894 8.82283 25.7237 10.1038C25.8974 10.6162 26.0711 11.1285 25.9881 11.7154C25.9959 13.4014 24.8899 15.1291 23.1797 15.9064C20.9561 16.8327 18.8946 15.7423 18.6263 13.2877C18.2711 10.5768 19.7168 8.1879 21.8536 7.00545Z" fill="white"/>
<path d="M37.1203 8.27216C37.3772 8.19741 37.4641 8.45451 37.721 8.37976C38.4086 8.74448 39.0963 9.1092 39.614 9.80577C42.0287 12.7744 38.03 19.3038 34.3309 16.7089C33.1255 15.6477 32.26 13.9227 32.5958 12.4129C32.9316 10.9031 35.4052 8.20643 37.1203 8.27216Z" fill="white"/>
<path d="M20.7338 20.949C21.8466 20.0515 22.9593 19.1541 24.3334 19.0358C25.363 18.7334 26.3094 19.026 27.426 18.9834C30.78 19.71 34.1379 21.2915 36.2999 24.3654C38.3748 27.1796 38.6519 31.3777 36.6877 33.9517C35.1513 36.1149 32.1496 37.2818 29.6628 38.2975C28.1185 38.7511 26.5741 39.2047 24.9426 39.3986C21.5926 39.5267 15.1381 37.143 14.9481 33.2045C14.0691 28.8979 17.653 23.5657 20.7338 20.949Z" fill="white"/>
<path d="M10.1752 23.9384C10.0922 24.5209 3.92729 22.9427 5.79669 20.1702C7.58312 17.9802 10.1678 22.2645 10.1752 23.9384Z" fill="#BCBCBB"/>
<path d="M21.1653 15.9637C19.285 16.2247 16.0998 11.0095 19.348 10.6347C21.9971 10.1531 23.901 15.7359 21.1653 15.9637Z" fill="#BCBCBB"/>
<path d="M34.7385 17.153C34.396 16.9732 33.9672 16.5404 33.7943 16.0344C33.5351 15.2754 32.9334 14.3365 32.6741 13.5775C32.2421 12.3125 31.7236 10.7946 33.0869 9.84959C34.1943 8.97779 36.4186 9.73066 37.1067 10.9225C38.1373 12.2942 37.5645 18.8447 34.7385 17.153Z" fill="#BCBCBB"/>
<path d="M21.1763 29.8312C22.7216 31.8856 24.2697 34.7709 23.68 37.157C22.9175 39.0379 20.8717 40.4531 18.7367 40.7849C18.2245 40.931 17.7123 41.077 17.1138 40.9705C16.429 40.6114 15.6578 39.9996 15.4851 39.4944C13.7672 36.9348 13.2433 33.7573 13.6604 30.866C13.997 29.3838 15.0932 25.1898 16.8858 24.6785C18.6784 24.1672 20.1461 28.4616 21.1763 29.8312Z" fill="#BCBCBB"/>
<path d="M38.9741 28.6582C39.226 29.385 39.3018 30.4443 39.7216 31.6556C40.1333 33.6839 39.337 35.5881 37.7687 36.9457C37.3326 37.3682 36.5526 37.6386 36.0325 37.8188C34.5645 37.7848 33.3565 37.6606 31.8885 37.6266C29.7326 37.2883 27.7445 37.4345 25.8323 38.6399C24.0961 39.513 22.62 40.2959 20.8838 41.1689C19.8437 41.5294 18.8037 41.8898 17.7636 42.2502C15.5155 42.4866 13.8038 40.9088 13.7361 39.0327C13.6684 37.1565 13.5168 35.0381 13.7091 33.0718C13.7335 30.621 14.622 28.1422 16.1984 25.9676C17.1626 24.548 18.4708 23.2805 19.6951 21.7708C20.3073 21.0159 21.0034 20.5033 21.6994 19.9907C26.0439 17.3996 28.2839 17.9802 32.2355 20.1386C33.6954 20.9896 34.6352 22.0207 35.8351 22.9618C36.691 23.7506 37.2868 24.6296 37.8827 25.5086C38.2185 26.4777 38.5544 27.4468 38.9741 28.6582ZM18.7171 33.2359L18.8011 33.4782C17.9289 34.3232 16.9728 34.9259 16.1007 35.7709C14.7085 36.7961 14.7924 37.0384 15.2962 38.492C15.3802 38.7343 15.4641 38.9766 15.5481 39.2188C16.3958 40.8246 17.6878 41.191 19.5079 40.5603C20.2879 40.29 20.984 39.7773 21.7641 39.507C22.9802 38.8142 24.4564 38.0313 25.7565 37.5807C27.4926 36.7077 29.4807 36.5615 31.5527 36.6575C32.7607 36.7817 34.2287 36.8157 35.4367 36.9398C36.6447 37.0639 37.3408 36.5513 37.9529 35.7964C38.4811 34.7993 39.0093 33.8021 38.8495 32.5006C38.6139 30.1399 37.6822 28.2918 36.7505 26.4437C35.3069 23.9589 33.2512 22.229 30.6754 20.6793C29.7356 19.6481 28.3597 19.0394 26.7156 19.3378C24.1154 20.2389 21.3392 21.4724 19.4188 23.4947C19.2428 23.8271 18.8067 24.2496 18.5467 24.3397C17.2384 25.6072 16.5342 26.9367 15.9979 28.7508C15.8137 29.9002 15.2855 30.8973 15.1013 32.0466C15.0092 32.6213 14.6571 33.2861 15.085 33.6805C16.7372 32.5652 18.5655 31.1175 20.2177 30.0022L20.3017 30.2444C20.0417 30.3346 19.8656 30.6669 19.8656 30.6669C18.7334 31.602 17.3412 32.6272 16.2091 33.5623C15.5969 34.3172 14.6408 34.9199 15.0606 36.1313C16.4528 35.1061 17.585 34.171 18.7171 33.2359Z" fill="#020203"/>
<path d="M12.3812 19.1503C13.0528 21.0886 12.3404 23.2351 10.9482 24.2603C9.81607 25.1954 8.08806 25.2515 6.97218 24.5527C4.48041 23.2453 3.28873 21.4873 3.22921 18.7942C3.32947 17.4026 4.03371 16.0731 5.08192 14.8957C5.518 14.4732 6.38201 14.4451 6.72598 14.5973C8.62191 15.0257 9.82174 15.9668 10.8455 17.2402C11.7014 18.0291 12.2133 18.6658 12.3812 19.1503ZM4.85698 20.1297C5.62073 21.4933 6.6445 22.7667 8.54043 23.1951C10.8643 24.018 11.9965 23.0829 12.1049 20.8743C12.0291 19.8151 11.5172 19.1784 10.9213 18.2994C9.89755 17.026 8.69772 16.0849 7.06181 15.5664C6.45782 15.5043 5.85383 15.4423 5.50171 16.1071C4.71351 17.1943 4.26928 18.4338 4.85698 20.1297Z" fill="#020203"/>
<path d="M25.2674 9.25757C25.9391 11.1958 25.3188 12.7676 24.5225 14.6718C23.8182 16.0013 20.6222 16.0234 19.4223 15.0824C17.3666 13.3524 17.8271 10.4791 18.7913 9.05948C19.3195 8.06233 20.5356 7.36951 21.1478 6.61463C21.5839 6.19214 22.1879 6.2542 22.8758 6.55853C23.8238 6.77276 24.8476 8.04619 25.2674 9.25757ZM20.2945 14.2374C21.2506 13.6347 21.9467 13.1221 22.9028 12.5193C21.5946 13.7868 21.5946 13.7868 21.3264 14.6939C21.8464 14.5136 22.3665 14.3334 22.7105 14.4856C24.0024 14.852 24.2706 13.9449 24.6227 13.2802C24.9748 12.6154 24.983 11.7985 25.2511 10.8914C25.4434 8.92518 23.9917 7.25731 22.0958 6.82886C20.5275 8.18645 18.6992 9.63414 19.5388 12.0569C20.2349 11.5443 21.015 11.274 21.7111 10.7614C21.275 11.1839 21.0989 11.5162 20.6629 11.9387C19.5307 12.8738 19.5307 12.8738 20.2945 14.2374Z" fill="#020203"/>
<path d="M32.4639 14.9011C31.7923 12.9629 32.8568 10.1516 34.425 8.79401C35.9933 7.43641 37.8053 7.62257 38.913 9.13828C40.0208 10.654 40.2645 12.1978 39.3842 13.8597C38.5039 15.5216 37.5396 16.9413 35.2076 16.9353C33.4796 16.9914 33.1356 16.8393 32.4639 14.9011ZM34.0403 12.7265C33.8643 13.0589 33.6882 13.3913 33.3361 14.0561C34.1161 13.7857 34.8122 13.2731 35.3323 13.0929C35.3323 13.0929 35.3323 13.0929 35.4162 13.3352C34.9802 13.7577 34.5441 14.1802 33.848 14.6928C34.6199 15.2394 35.3918 15.786 36.0798 16.0903C37.6399 15.5497 38.512 14.7047 39.1323 13.1329C39.5766 11.8934 39.2489 10.1074 37.873 9.49872C37.529 9.34656 37.185 9.19439 36.665 9.37461C35.2809 9.58289 33.7966 11.1828 33.6964 12.5744C33.6124 12.3321 33.9564 12.4843 34.0403 12.7265Z" fill="#020203"/>
<path d="M34.0338 12.7321C34.3857 12.0666 34.9057 11.8863 35.5097 11.9486C34.9897 12.1289 34.4697 12.3092 34.0338 12.7321Z" fill="#020203"/>
</svg>
