<svg width="172" height="138" viewBox="0 0 172 138" fill="none" xmlns="http://www.w3.org/2000/svg">
<path d="M154.005 126.4C153.605 127.3 153.105 127.8 152.605 128.4C152.305 128.7 151.905 129 151.605 129.3L151.205 129.6C151.105 129.7 150.805 129.9 150.605 130C150.205 130.4 149.705 130.9 149.205 131.2C148.105 131.9 146.605 132.4 145.305 132.5C144.305 132.8 143.105 132.9 142.005 132.9C140.705 132.9 139.605 132.6 138.405 132.3C137.005 132 135.505 131.7 134.205 131C130.605 129.1 128.705 125.4 127.705 122.4C127.405 121.4 127.105 120.7 127.105 120C127.005 118.7 127.005 117.3 127.205 115.7V115.4C127.305 114.4 127.605 113.5 128.105 112.7C128.205 112.1 128.505 111.7 128.805 111.3C128.905 111.2 129.105 110.9 129.105 110.7C129.505 110 130.005 109.3 130.505 108.7C131.105 108.1 131.605 107.5 132.205 107C132.805 106.4 133.505 106 134.205 105.7C136.405 104.5 139.105 104 141.805 103.8C142.805 103.8 143.705 103.8 144.505 103.9C149.105 104.6 153.105 108.1 154.805 112.7C156.905 117 156.505 122.2 154.005 126.4Z" fill="white"/>
<path opacity="0.1" d="M154.005 126.4C153.605 127.3 153.105 127.8 152.605 128.4C152.305 128.7 151.905 129 151.605 129.3L151.205 129.6C151.105 129.7 150.805 129.9 150.605 130C150.205 130.4 149.705 130.9 149.205 131.2C148.105 131.9 146.605 132.4 145.305 132.5C144.305 132.8 143.105 132.9 142.005 132.9C140.705 132.9 139.605 132.6 138.405 132.3C137.005 132 135.505 131.7 134.205 131C130.605 129.1 128.705 125.4 127.705 122.4C127.405 121.4 127.105 120.7 127.105 120C127.005 118.7 127.005 117.3 127.205 115.7V115.4C127.305 114.4 127.605 113.5 128.105 112.7C128.205 112.1 128.505 111.7 128.805 111.3C128.905 111.2 129.105 110.9 129.105 110.7C129.505 110 130.005 109.3 130.505 108.7C131.105 108.1 131.605 107.5 132.205 107C132.805 106.4 133.505 106 134.205 105.7C136.405 104.5 139.105 104 141.805 103.8C142.805 103.8 143.705 103.8 144.505 103.9C149.105 104.6 153.105 108.1 154.805 112.7C156.905 117 156.505 122.2 154.005 126.4Z" fill="#4769B2"/>
<path opacity="0.3" d="M130.103 120.2C130.203 120.6 130.203 121.1 130.503 121.5C130.603 121.8 130.903 122.1 131.103 122.4C131.403 122.8 131.503 123.4 131.803 124C132.103 124.6 132.203 125.3 132.703 125.9C133.003 126.3 133.303 126.9 133.603 127.3C133.903 127.6 134.203 127.7 134.503 128C135.103 128.4 135.603 128.7 136.203 129.2C136.603 129.5 137.103 129.8 137.503 130.1C137.903 130.2 138.503 130.4 138.903 130.5C141.503 131.1 144.103 131.5 146.803 131.8C143.103 132.2 139.203 132.7 135.603 131.5C135.203 131.4 134.703 131.2 134.303 130.9C133.903 130.6 133.403 130.3 133.103 129.9C132.503 129.3 132.003 128.7 131.403 128.2C131.003 127.8 130.703 127.5 130.403 127C130.103 126.6 130.003 126 129.803 125.4C129.503 124.4 129.203 123.4 128.903 122.5C128.803 122.1 128.603 121.6 128.503 121.2C128.403 120.5 128.203 119.9 128.203 119.2C128.203 117.8 128.303 116.5 128.803 115.2C128.803 115.1 128.803 114.9 128.903 114.8C129.003 114.8 129.003 114.8 129.003 114.9C129.003 115 129.003 115.3 129.103 115.5C129.103 115.6 129.103 115.8 129.203 116.1C129.303 116.8 129.503 117.5 129.603 118.3C129.603 118.6 129.803 119.3 130.103 120.2Z" fill="#4769B2"/>
<path d="M147.704 126.5L147.604 126.4C147.604 126.4 147.704 126.4 147.704 126.5C148.104 126.6 148.404 126.8 148.804 126.9C149.504 127.5 150.104 128.1 150.804 128.6C150.904 128.7 151.204 128.9 151.404 129C151.304 129 151.104 129.1 151.004 129.1C150.904 129.1 150.904 129.1 150.704 129.2C150.604 129.1 150.404 128.9 150.304 128.8C149.704 128.4 149.304 127.8 148.904 127.4C148.404 127.2 148.004 126.8 147.704 126.5Z" fill="black"/>
<path d="M146.904 127.5C147.804 128.7 148.604 129.8 150.104 130.4C149.004 129.3 148.204 128.3 146.904 127.5Z" fill="black"/>
<path d="M155.303 112.7C153.603 108.1 149.603 104.6 145.003 103.9C144.103 103.8 143.303 103.8 142.303 103.8C139.403 103.8 136.803 104.5 134.703 105.7C134.003 106.1 133.303 106.6 132.703 107C132.003 107.6 131.403 108.2 131.003 108.7C130.403 109.3 130.003 110 129.603 110.7C129.503 110.8 129.303 111.1 129.303 111.3C129.003 111.7 128.703 112.3 128.603 112.7C128.303 113.6 128.003 114.4 127.703 115.4V115.7C127.403 117.3 127.303 118.7 127.603 120C127.703 120.7 127.903 121.6 128.203 122.4C129.103 125.3 130.903 129.2 134.703 131C136.003 131.7 137.403 132 138.903 132.3C140.003 132.6 141.203 132.9 142.503 132.9C143.603 132.9 144.803 132.6 145.803 132.5C147.103 132.2 148.503 131.9 149.703 131.2C150.303 130.9 150.703 130.5 151.103 130C151.203 129.9 151.403 129.7 151.703 129.6L152.103 129.3C152.503 129 152.803 128.7 153.103 128.4C153.503 127.8 154.003 127.2 154.503 126.4C156.503 122.2 156.903 117 155.303 112.7ZM153.203 126C152.803 126.7 152.303 127.3 152.103 127.7C151.803 128 151.503 128.3 151.103 128.6L150.703 128.9C150.603 129 150.303 129.2 150.103 129.3C149.703 129.7 149.203 130 148.803 130.3C147.803 131 146.503 131.3 145.203 131.5C144.203 131.8 143.203 131.9 142.203 131.9C141.103 131.9 139.903 131.6 138.803 131.3C137.503 131 136.103 130.7 134.903 130.1C131.603 128.5 129.903 124.9 129.003 122.2C128.703 121.3 128.603 120.6 128.403 119.9C128.303 118.7 128.303 117.5 128.503 115.9V115.6C128.603 114.7 128.903 113.9 129.203 113.2C129.303 112.8 129.603 112.2 129.903 111.8C130.003 111.5 130.203 111.4 130.203 111.1C130.503 110.4 130.903 109.8 131.503 109.2C131.903 108.6 132.503 108 133.103 107.6C133.703 107.2 134.203 106.7 135.003 106.3C137.003 105.3 139.503 104.6 142.203 104.6C143.103 104.6 143.903 104.6 144.603 104.7C148.803 105.4 152.603 108.6 154.103 112.9C155.903 117.2 155.503 121.9 153.203 126Z" fill="black"/>
<path d="M141.404 117.2C143.704 118.8 144.104 121.7 144.104 125.7C144.104 126 143.804 126.3 143.504 126.3C143.204 126.3 142.904 126 142.904 125.7C142.904 121.8 142.304 119.5 140.704 118.2C140.804 120.9 140.804 123.1 140.804 125.1C140.804 125.4 140.504 125.7 140.204 125.7C139.904 125.7 139.604 125.4 139.604 125.1C139.604 122.4 139.604 119.8 139.504 115.3C139.404 113.1 139.404 111.7 139.404 111C139.404 110.7 139.704 110.4 140.004 110.4C140.304 110.4 140.604 110.7 140.604 111C140.604 111.4 140.604 113.2 140.704 115.9C141.704 114.7 142.404 112.6 142.404 111C142.404 110.7 142.704 110.4 143.004 110.4C143.304 110.4 143.604 110.7 143.604 111C143.704 113.2 142.804 115.7 141.404 117.2Z" fill="black"/>
<path d="M76.4036 130.3C75.9036 131.2 75.5036 131.8 74.9036 132.4C74.6036 132.7 74.1036 133 73.8036 133.3L73.3036 133.6C73.1036 133.8 72.8036 133.9 72.7036 134.1C72.2036 134.6 71.8036 134.9 71.2036 135.3C70.0036 136.1 68.5036 136.5 67.1036 136.7C66.0036 137 64.8036 137.2 63.6036 137.2C62.2036 137.2 61.0036 136.9 59.8036 136.6C58.3036 136.3 56.8036 136 55.4036 135.2C51.6036 133.4 49.7036 129.3 48.8036 126.1C48.5036 125 48.2036 124.3 48.2036 123.5C48.0036 122.1 48.0036 120.6 48.4036 119V118.7C48.6036 117.6 48.9036 116.7 49.3036 115.8C49.5036 115.2 49.8036 114.7 50.1036 114.3C50.3036 114.1 50.4036 113.8 50.4036 113.7C50.9036 112.9 51.3036 112.2 51.9036 111.6C52.5036 111 53.1036 110.4 53.7036 109.8C54.3036 109.2 55.1036 108.7 55.8036 108.4C58.2036 107.3 61.1036 106.6 63.9036 106.6C65.0036 106.6 65.9036 106.6 66.8036 106.8C71.6036 107.6 75.8036 111.2 77.7036 116C79.3036 120.5 78.8036 125.8 76.4036 130.3Z" fill="white"/>
<path opacity="0.2" d="M76.4036 130.3C75.9036 131.2 75.5036 131.8 74.9036 132.4C74.6036 132.7 74.1036 133 73.8036 133.3L73.3036 133.6C73.1036 133.8 72.8036 133.9 72.7036 134.1C72.2036 134.6 71.8036 134.9 71.2036 135.3C70.0036 136.1 68.5036 136.5 67.1036 136.7C66.0036 137 64.8036 137.2 63.6036 137.2C62.2036 137.2 61.0036 136.9 59.8036 136.6C58.3036 136.3 56.8036 136 55.4036 135.2C51.6036 133.4 49.7036 129.3 48.8036 126.1C48.5036 125 48.2036 124.3 48.2036 123.5C48.0036 122.1 48.0036 120.6 48.4036 119V118.7C48.6036 117.6 48.9036 116.7 49.3036 115.8C49.5036 115.2 49.8036 114.7 50.1036 114.3C50.3036 114.1 50.4036 113.8 50.4036 113.7C50.9036 112.9 51.3036 112.2 51.9036 111.6C52.5036 111 53.1036 110.4 53.7036 109.8C54.3036 109.2 55.1036 108.7 55.8036 108.4C58.2036 107.3 61.1036 106.6 63.9036 106.6C65.0036 106.6 65.9036 106.6 66.8036 106.8C71.6036 107.6 75.8036 111.2 77.7036 116C79.3036 120.5 78.8036 125.8 76.4036 130.3Z" fill="#F7BE45"/>
<path opacity="0.6" d="M51.2039 123.6C51.4039 124.1 51.4039 124.5 51.7039 125C51.9039 125.3 52.2039 125.6 52.3039 125.9C52.6039 126.4 52.8039 127 53.1039 127.6C53.4039 128.2 53.6039 129 54.0039 129.6C54.3039 130.1 54.6039 130.7 54.9039 131.1C55.2039 131.4 55.5039 131.6 55.8039 131.9C56.4039 132.4 57.0039 132.7 57.6039 133.1C58.1039 133.4 58.5039 133.7 59.0039 134C59.5039 134.2 60.1039 134.3 60.5039 134.5C63.2039 135.1 65.9039 135.6 68.8039 135.9C64.9039 136.4 60.8039 136.8 57.0039 135.6C56.5039 135.4 56.1039 135.3 55.6039 135C55.1039 134.7 54.7039 134.4 54.4039 133.9C53.8039 133.3 53.2039 132.7 52.6039 132.1C52.1039 131.6 51.8039 131.3 51.5039 130.9C51.2039 130.4 51.0039 129.8 50.9039 129.2C50.6039 128.1 50.3039 127.1 50.0039 126.2C49.8039 125.7 49.7039 125.3 49.5039 124.8C49.0039 124 49.0039 123.3 49.0039 122.5C49.0039 121 49.2039 119.6 49.6039 118.3C49.6039 118.1 49.6039 118 49.8039 117.8C50.0039 117.8 50.0039 117.8 50.0039 118C50.0039 118.2 50.0039 118.5 50.2039 118.6C50.2039 118.8 50.2039 118.9 50.4039 119.2C50.6039 120 50.7039 120.7 50.9039 121.5C50.8039 122 51.1039 122.9 51.2039 123.6Z" fill="#F7BE45"/>
<path d="M69.6043 130.3L69.4043 130.1C69.6043 130.1 69.6043 130.3 69.6043 130.3C70.1043 130.5 70.4043 130.6 70.8043 130.8C71.6043 131.4 72.2043 132 72.9043 132.6C73.1043 132.8 73.4043 132.9 73.5043 133.1C73.3043 133.1 73.2043 133.3 73.0043 133.3C72.8043 133.3 72.8043 133.3 72.7043 133.5C72.5043 133.3 72.4043 133.2 72.2043 133C71.7043 132.5 71.1043 131.9 70.7043 131.5C70.5043 131 70.1043 130.7 69.6043 130.3Z" fill="black"/>
<path d="M68.9043 131.3C69.8043 132.5 70.7043 133.7 72.2043 134.2C71.1043 133.2 70.1043 132.1 68.9043 131.3Z" fill="black"/>
<path d="M77.8043 115.9C76.0043 111.1 71.8043 107.4 66.9043 106.7C66.0043 106.5 65.1043 106.5 64.0043 106.5C61.0043 106.5 58.3043 107.3 56.0043 108.5C55.2043 109 54.5043 109.4 53.9043 109.9C53.1043 110.5 52.5043 111.1 52.1043 111.7C51.5043 112.3 51.0043 113.1 50.6043 113.8C50.4043 114 50.3043 114.3 50.3043 114.4C50.0043 114.9 49.7043 115.5 49.5043 115.9C49.2043 116.8 48.9043 117.7 48.6043 118.8V119.1C48.3043 120.8 48.1043 122.3 48.4043 123.6C48.6043 124.4 48.7043 125.3 49.0043 126.2C49.9043 129.2 51.9043 133.3 55.6043 135.3C57.0043 136.1 58.5043 136.4 60.0043 136.7C61.2043 137 62.4043 137.3 63.8043 137.3C65.0043 137.3 66.2043 137 67.3043 136.8C68.7043 136.5 70.2043 136.2 71.4043 135.4C72.0043 135.1 72.5043 134.6 72.9043 134.2C73.1043 134 73.2043 133.9 73.5043 133.7L74.0043 133.4C74.5043 133.1 74.8043 132.8 75.1043 132.5C75.6043 131.9 76.0043 131.3 76.6043 130.4C78.8043 125.8 79.3043 120.5 77.8043 115.9ZM75.5043 129.8C75.0043 130.6 74.7043 131.2 74.3043 131.6C74.0043 131.9 73.7043 132.2 73.2043 132.5L72.7043 132.8C72.5043 133 72.2043 133.1 72.1043 133.3C71.6043 133.8 71.2043 134.1 70.7043 134.4C69.6043 135.2 68.3043 135.5 66.9043 135.6C65.8043 135.9 64.8043 136.1 63.7043 136.1C62.5043 136.1 61.3043 135.8 60.1043 135.5C58.7043 135.2 57.2043 134.9 56.0043 134.3C52.5043 132.6 50.7043 128.9 49.8043 126C49.5043 125.1 49.3043 124.3 49.2043 123.6C49.0043 122.4 49.0043 121 49.4043 119.4V119C49.6043 118.1 49.9043 117.2 50.2043 116.4C50.4043 115.9 50.7043 115.3 51.0043 114.9C51.2043 114.6 51.3043 114.4 51.3043 114.3C51.6043 113.7 52.1043 112.9 52.7043 112.3C53.2043 111.7 53.8043 111.1 54.4043 110.6C55.0043 110.1 55.6043 109.7 56.4043 109.2C58.5043 108.1 61.1043 107.5 63.9043 107.4C64.8043 107.4 65.7043 107.4 66.5043 107.6C70.9043 108.4 74.8043 111.7 76.5043 116.1C78.2043 120.6 77.8043 125.6 75.5043 129.8Z" fill="black"/>
<path d="M62.5035 122.6V125V125.5C62.5035 125.8 62.5035 126 62.5035 126.4C62.5035 127.2 62.5035 128.1 62.5035 128.7C62.5035 128.9 62.5035 128.9 62.5035 128.9C63.0035 128.9 63.6035 128.9 64.5035 128.9H65.2035C65.5035 128.9 65.8035 129.2 65.8035 129.5C65.8035 129.8 65.5035 130.1 65.2035 130.1H64.4035C63.6035 130.1 62.9035 130.1 62.3035 130.1C62.0035 130.1 61.5035 129.9 61.2035 129.8C61.0035 129.6 61.0035 129.5 61.0035 129.2C61.0035 129 61.0035 128.9 61.0035 128.7C61.0035 128.1 61.0035 127.2 61.0035 126.4C61.0035 126.1 61.0035 125.8 61.0035 125.5V125C61.0035 124.8 61.0035 124.2 60.8035 122.9C60.6035 120.3 60.6035 118.1 60.6035 116.4C60.6035 115.5 60.6035 114.7 60.8035 114.4C61.1035 113.6 62.0035 113.5 62.9035 113.5C63.5035 113.5 64.3035 113.7 64.9035 113.8C65.4035 114.1 65.7035 114.4 65.5035 114.9C65.3035 115.2 65.0035 115.4 64.7035 115.4C64.2035 115.2 63.6035 115.1 63.2035 115.1C62.9035 115.1 62.6035 115.1 62.4035 115.1C62.2035 115.1 62.2035 115.1 62.2035 115.3C62.2035 115.3 62.2035 115.5 62.2035 115.6C62.2035 115.9 62.2035 116.2 62.2035 116.7C62.2035 117.5 62.2035 118.5 62.2035 119.9V121.6C63.4035 121.6 64.0035 121.4 64.3035 121.4C64.6035 121.4 64.9035 121.7 64.9035 122C64.9035 122.3 64.6035 122.6 64.3035 122.6C64.3035 122.6 63.7035 122.6 62.5035 122.6Z" fill="black"/>
<path d="M130.903 39.9998V40.1998C130.903 41.1998 130.403 41.8998 129.903 42.4998L129.703 42.7998C129.003 43.7998 128.503 44.5998 127.903 45.5998C127.403 46.0998 125.603 49.1998 125.403 49.5998C123.603 53.5998 121.903 56.3998 119.403 59.9998L119.203 60.1998H119.003C118.303 60.3998 117.303 60.4998 116.503 60.4998H116.203C109.703 60.1998 103.103 59.9998 96.7031 60.1998H96.4031L96.2031 59.8998C95.9031 59.3998 95.5031 58.6998 95.4031 58.1998C95.1031 57.6998 94.9031 57.1998 94.6031 56.4998C93.9031 55.2998 93.1031 53.9998 92.5031 52.8998C91.8031 51.6998 91.2031 50.5998 90.5031 49.3998L85.2031 40.2998V40.0998C85.4031 39.0998 86.0031 38.2998 86.7031 37.3998C86.9031 37.0998 87.0031 36.8998 87.4031 36.5998C88.6031 34.7998 89.7031 32.9998 90.5031 30.9998L90.8031 30.2998C91.3031 29.2998 91.6031 28.2998 92.3031 27.2998C92.5031 26.9998 92.8031 26.7998 93.0031 26.4998C93.2031 26.2998 93.3031 25.9998 93.5031 25.7998C94.0031 24.9998 94.5031 24.0998 95.0031 23.2998C95.5031 22.4998 96.0031 21.5998 96.5031 20.7998L96.7031 20.4998H97.0031C104.403 20.2998 112.003 20.4998 119.503 20.6998H120.003L120.203 21.1998C120.403 21.6998 120.503 22.1998 120.703 22.6998C122.003 25.4998 123.703 27.7998 125.303 30.2998L126.103 31.4998C127.103 33.6998 128.703 36.2998 130.903 39.9998Z" fill="white"/>
<path opacity="0.4" d="M130.903 39.9998V40.1998C130.903 41.1998 130.403 41.8998 129.903 42.4998L129.703 42.7998C129.003 43.7998 128.503 44.5998 127.903 45.5998C127.403 46.0998 125.603 49.1998 125.403 49.5998C123.603 53.5998 121.903 56.3998 119.403 59.9998L119.203 60.1998H119.003C118.303 60.3998 117.303 60.4998 116.503 60.4998H116.203C109.703 60.1998 103.103 59.9998 96.7031 60.1998H96.4031L96.2031 59.8998C95.9031 59.3998 95.5031 58.6998 95.4031 58.1998C95.1031 57.6998 94.9031 57.1998 94.6031 56.4998C93.9031 55.2998 93.1031 53.9998 92.5031 52.8998C91.8031 51.6998 91.2031 50.5998 90.5031 49.3998L85.2031 40.2998V40.0998C85.4031 39.0998 86.0031 38.2998 86.7031 37.3998C86.9031 37.0998 87.0031 36.8998 87.4031 36.5998C88.6031 34.7998 89.7031 32.9998 90.5031 30.9998L90.8031 30.2998C91.3031 29.2998 91.6031 28.2998 92.3031 27.2998C92.5031 26.9998 92.8031 26.7998 93.0031 26.4998C93.2031 26.2998 93.3031 25.9998 93.5031 25.7998C94.0031 24.9998 94.5031 24.0998 95.0031 23.2998C95.5031 22.4998 96.0031 21.5998 96.5031 20.7998L96.7031 20.4998H97.0031C104.403 20.2998 112.003 20.4998 119.503 20.6998H120.003L120.203 21.1998C120.403 21.6998 120.503 22.1998 120.703 22.6998C122.003 25.4998 123.703 27.7998 125.303 30.2998L126.103 31.4998C127.103 33.6998 128.703 36.2998 130.903 39.9998Z" fill="#BCBCBB"/>
<path d="M92.7031 29.9001C92.2031 30.7001 91.4031 31.7001 91.0031 32.6001C90.7031 33.4001 90.5031 34.4001 90.2031 35.3001C89.9031 36.3001 89.2031 37.0001 88.7031 38.0001C88.2031 38.8001 87.9031 40.0001 88.0031 40.8001C88.2031 41.5001 88.7031 42.1001 89.2031 42.8001C92.0031 46.3001 94.0031 50.3001 96.0031 54.4001C96.3031 55.1001 96.7031 55.9001 97.3031 56.6001C97.8031 57.1001 98.5031 57.6001 99.1031 57.9001C100.303 58.6001 101.403 59.2001 102.703 59.7001C100.903 60.0001 99.1031 60.2001 97.2031 60.0001C97.0031 60.0001 96.7031 60.0001 96.5031 59.8001C96.3031 59.6001 96.2031 59.3001 96.0031 59.1001C94.7031 56.3001 93.4031 53.6001 91.9031 51.0001C89.8031 47.5001 87.3031 44.4001 85.9031 40.6001C85.9031 40.4001 85.7031 40.3001 85.7031 39.9001C85.7031 39.7001 85.9031 39.6001 85.9031 39.4001C86.2031 38.7001 86.6031 38.1001 86.9031 37.4001C87.2031 36.7001 87.6031 36.1001 87.9031 35.4001C88.2031 34.7001 88.6031 34.1001 88.9031 33.4001C89.2031 32.7001 89.6031 32.1001 90.1031 31.4001C90.4031 30.7001 90.9031 30.1001 91.3031 29.6001C91.6031 28.9001 92.1031 28.3001 92.5031 27.8001C92.8031 27.3001 93.3031 26.6001 93.8031 26.0001C94.0031 25.8001 94.0031 25.7001 94.1031 25.5001L94.3031 25.3001L94.5031 25.1001C94.7031 25.1001 94.7031 25.1001 94.7031 25.3001C94.7031 25.5001 94.7031 25.6001 94.5031 25.8001C94.3031 26.5001 94.2031 27.1001 93.8031 27.8001C93.5031 28.5001 93.1031 29.1001 92.8031 29.8001C92.9031 29.5001 92.7031 29.7001 92.7031 29.9001Z" fill="#BCBCBB"/>
<path d="M115.804 54.5999L115.604 54.3999C115.704 54.3999 115.804 54.3999 115.804 54.5999C116.304 54.7999 116.804 54.8999 117.104 55.0999C117.904 55.7999 118.604 56.3999 119.404 57.0999C119.604 57.2999 119.904 57.3999 120.104 57.5999C119.904 57.5999 119.804 57.7999 119.604 57.7999C119.404 57.7999 119.404 57.7999 119.304 57.9999C119.104 57.7999 119.004 57.6999 118.604 57.4999C117.904 56.9999 117.404 56.2999 116.804 55.7999C116.704 55.3999 116.204 55.0999 115.804 54.5999Z" fill="black"/>
<path d="M99.0047 24.9L99.2047 25.1C99.1047 25.1 99.0047 25.1 99.0047 24.9C98.7047 24.9 98.3047 24.7 98.0047 24.6C97.3047 24.1 96.7047 23.6 96.0047 23.1C95.8047 22.9 95.7047 22.8 95.3047 22.8C95.5047 22.6 95.5047 22.6 95.6047 22.5L95.8047 22.3C96.0047 22.5 96.1047 22.6 96.3047 22.8C96.8047 23.3 97.3047 23.6 97.8047 24.1C98.3047 24.2 98.6047 24.6 99.0047 24.9Z" fill="black"/>
<path d="M99.6043 23.4L99.8043 23.6C99.6043 23.6 99.6043 23.6 99.6043 23.4C99.3043 23.4 98.9043 23.2 98.6043 23.1C97.9043 22.6 97.3043 22.1 96.6043 21.6C96.4043 21.4 96.3043 21.3 95.9043 21.3C96.1043 21.1 96.1043 21.1 96.2043 21L96.4043 20.8C96.6043 21 96.7043 21.1 96.9043 21.3C97.4043 21.8 97.9043 22.1 98.4043 22.6C98.8043 22.9 99.1043 23.3 99.6043 23.4Z" fill="black"/>
<path d="M114.903 55.7L114.703 55.5C114.903 55.6 114.903 55.7 114.903 55.7C115.403 55.9 115.903 56 116.203 56.2C117.003 56.9 117.703 57.5 118.503 58.2C118.703 58.4 119.003 58.5 119.203 58.7C119.003 58.7 118.903 58.9 118.703 58.9C118.503 58.9 118.503 58.9 118.403 59.1C118.203 58.9 118.103 58.8 117.703 58.6C117.003 58.1 116.503 57.4 115.903 56.9C115.703 56.5 115.303 56.2 114.903 55.7Z" fill="black"/>
<path d="M130.703 39.7999C128.703 36.2999 127.103 33.4999 125.603 31.3999L124.803 30.1999C123.103 27.6999 121.503 25.3999 120.203 22.5999C120.003 22.0999 119.903 21.5999 119.703 21.0999L119.503 20.5999H119.003C111.603 20.3999 104.003 20.3999 96.5031 20.3999H96.2031L96.0031 20.6999C95.5031 21.4999 95.0031 22.3999 94.5031 23.1999C94.0031 23.9999 93.5031 24.8999 93.0031 25.6999C92.8031 25.8999 92.7031 26.1999 92.5031 26.3999C92.3031 26.6999 92.0031 26.8999 91.8031 27.1999C91.1031 28.1999 90.8031 29.1999 90.3031 30.1999L90.0031 30.8999C89.2031 32.8999 88.0031 34.8999 86.9031 36.4999C86.7031 36.7999 86.6031 36.9999 86.2031 37.2999C85.5031 38.0999 84.9031 38.9999 84.7031 39.9999V40.1999L90.0031 49.2999C90.7031 50.4999 91.3031 51.5999 92.0031 52.7999C92.7031 53.9999 93.5031 55.2999 94.1031 56.3999C94.4031 56.8999 94.8031 57.3999 94.9031 58.0999C95.2031 58.5999 95.4031 59.2999 95.7031 59.7999L95.9031 60.0999H96.2031C102.603 60.0999 109.303 60.2999 115.703 60.3999H116.003C116.803 60.3999 117.803 60.1999 118.503 60.0999H118.703L118.903 59.8999C121.403 56.3999 123.003 53.3999 124.903 49.4999C125.103 49.1999 126.903 45.9999 127.403 45.4999C128.103 44.6999 128.703 43.6999 129.203 42.6999L129.403 42.3999C129.903 41.6999 130.403 41.0999 130.403 40.0999L130.703 39.7999ZM128.903 41.9999L128.603 42.2999C127.903 43.0999 127.403 44.0999 126.803 44.9999C126.303 45.6999 124.503 48.5999 124.203 49.0999C122.403 52.8999 120.903 55.6999 118.403 58.9999C117.703 59.1999 116.903 59.2999 116.103 59.1999C110.503 58.8999 104.903 58.8999 99.2031 58.8999H97.1031C96.9031 58.3999 96.6031 58.0999 96.4031 57.5999C96.1031 57.0999 95.9031 56.3999 95.6031 55.8999C94.8031 54.6999 94.1031 53.3999 93.5031 52.2999C92.8031 51.0999 92.2031 49.9999 91.5031 48.7999L86.5031 39.9999C86.7031 39.2999 87.2031 38.6999 87.7031 37.9999C87.9031 37.6999 88.2031 37.4999 88.4031 37.1999C89.7031 35.3999 90.7031 33.3999 91.7031 31.3999L92.0031 30.6999C92.5031 29.6999 92.8031 28.8999 93.5031 27.8999C93.7031 27.5999 93.8031 27.3999 94.2031 27.0999C94.4031 26.8999 94.5031 26.5999 94.7031 26.2999C95.2031 25.4999 95.9031 24.5999 96.4031 23.5999C96.7031 22.8999 97.2031 22.0999 97.7031 21.3999C105.003 21.1999 112.303 21.3999 119.403 21.5999C119.603 22.0999 119.703 22.3999 119.903 22.8999C121.203 25.6999 122.903 28.1999 124.703 30.6999L125.503 31.8999C127.003 34.0999 128.603 36.6999 130.503 40.1999C129.603 40.7999 129.203 41.2999 128.903 41.9999Z" fill="black"/>
<path d="M99.8032 34.3999V33.5999V33.3999C99.8032 33.1999 99.8032 33.1999 99.8032 33.1999C99.6032 32.8999 99.6032 32.3999 100.003 32.1999C100.303 31.8999 100.803 31.9999 101.203 32.1999L101.403 32.3999C101.403 32.3999 101.603 32.5999 101.603 32.6999C101.803 32.8999 101.803 33.1999 101.903 33.4999L102.403 34.9999C102.903 36.2999 103.203 38.0999 103.703 40.0999L104.403 43.5999C104.403 42.5999 104.403 40.7999 104.603 38.0999C104.803 35.5999 104.803 33.4999 104.803 32.0999C104.803 31.7999 105.103 31.3999 105.503 31.3999C105.803 31.3999 106.203 31.6999 106.203 32.0999C106.203 33.5999 106.203 35.6999 106.003 38.5999C105.803 41.3999 105.803 43.5999 105.803 45.0999C105.803 46.8999 105.803 47.5999 105.603 48.1999C105.603 48.3999 105.603 48.4999 105.403 48.6999C105.203 48.9999 104.903 49.1999 104.603 49.1999C104.303 49.1999 103.903 48.9999 103.803 48.6999C103.803 48.4999 103.603 48.3999 103.803 48.1999V47.8999C103.803 47.5999 103.603 47.0999 103.503 46.5999C103.303 46.0999 103.303 45.7999 103.203 45.5999C103.003 44.8999 102.903 44.0999 102.703 42.8999C102.203 40.5999 101.903 39.2999 101.503 37.5999C101.503 37.7999 101.503 37.8999 101.503 38.0999C101.703 42.3999 101.503 46.0999 101.303 48.9999C101.303 49.2999 101.003 49.6999 100.503 49.6999C100.203 49.6999 99.8032 49.3999 99.8032 48.8999C100.103 46.0999 100.103 42.3999 100.003 38.2999C100.003 37.1999 99.8032 34.7999 99.8032 34.3999Z" fill="black"/>
<path d="M114.704 38L114.904 38.2V38.4C114.904 38.6 114.904 38.7 114.904 38.9V40.4V41.2C115.104 42.2 115.104 42.2 115.104 43.5C115.104 44.8 115.104 46 115.304 46.8C115.304 47.1 115.504 47.5 115.504 47.6C116.004 47.9 116.204 47.9 116.204 48.3C116.204 48.6 116.004 49.1 115.504 49.1C115.304 49.1 115.204 49.1 115.004 48.9C115.004 48.9 115.004 48.9 114.804 48.9C114.304 48.6 114.104 48.2 114.004 47.9V48.1C113.304 49.3 112.304 49.8 111.004 48.8C109.704 47.8 109.204 44.3 109.504 41.3C109.704 39.6 110.204 38.3 110.804 37.7C111.604 36.7 112.804 36.4 114.304 37C114.704 37.2 114.904 37.7 114.704 38ZM113.504 41.1V40.8C113.304 40.1 113.304 39.5 113.304 39.1V39C113.304 38.7 113.304 38.5 113.304 38.2C112.804 38 112.304 38.2 112.004 38.7C111.004 40 110.504 43.2 111.004 45.5C111.204 46.7 111.504 47.5 111.804 47.7C112.104 48 112.304 47.9 112.604 47.4C113.204 46.1 113.504 43.3 113.504 41.1Z" fill="black"/>
<path d="M171.803 69.5V69.7C171.803 70.7 171.303 71.3 170.803 71.9L170.603 72.2C170.003 73 169.503 74 168.803 74.8C168.503 75.3 166.703 78.2 166.603 78.5C164.803 82.2 163.203 84.9 161.003 88.2L160.803 88.4H160.603C160.003 88.6 159.003 88.7 158.203 88.7H157.903C151.803 88.4 145.803 88.2 139.703 88.4H139.403L139.203 88.1C138.903 87.6 138.603 87.1 138.403 86.5C138.103 86 137.903 85.5 137.603 85.1C137.003 84 136.203 82.9 135.503 81.6C134.903 80.5 134.203 79.4 133.603 78.2L128.703 69.6V69.4C128.903 68.4 129.503 67.6 130.003 66.8C130.203 66.5 130.303 66.3 130.603 66C131.703 64.4 132.703 62.5 133.603 60.7L133.903 60.1C134.403 59.1 134.703 58.2 135.303 57.4C135.503 57.1 135.603 56.9 135.903 56.6C136.103 56.4 136.203 56.1 136.403 56C136.903 55.2 137.403 54.4 137.803 53.6C138.303 52.8 138.803 52 139.203 51.4L139.403 51.2H139.703C146.703 51 153.703 51.2 160.803 51.4H161.303L161.503 51.7C161.703 52.2 161.803 52.7 162.003 53.1C163.303 55.7 164.703 57.9 166.303 60.3L166.903 61.4C168.303 63.6 169.703 66 171.803 69.5Z" fill="white"/>
<path opacity="0.4" d="M171.803 69.5V69.7C171.803 70.7 171.303 71.3 170.803 71.9L170.603 72.2C170.003 73 169.503 74 168.803 74.8C168.503 75.3 166.703 78.2 166.603 78.5C164.803 82.2 163.203 84.9 161.003 88.2L160.803 88.4H160.603C160.003 88.6 159.003 88.7 158.203 88.7H157.903C151.803 88.4 145.803 88.2 139.703 88.4H139.403L139.203 88.1C138.903 87.6 138.603 87.1 138.403 86.5C138.103 86 137.903 85.5 137.603 85.1C137.003 84 136.203 82.9 135.503 81.6C134.903 80.5 134.203 79.4 133.603 78.2L128.703 69.6V69.4C128.903 68.4 129.503 67.6 130.003 66.8C130.203 66.5 130.303 66.3 130.603 66C131.703 64.4 132.703 62.5 133.603 60.7L133.903 60.1C134.403 59.1 134.703 58.2 135.303 57.4C135.503 57.1 135.603 56.9 135.903 56.6C136.103 56.4 136.203 56.1 136.403 56C136.903 55.2 137.403 54.4 137.803 53.6C138.303 52.8 138.803 52 139.203 51.4L139.403 51.2H139.703C146.703 51 153.703 51.2 160.803 51.4H161.303L161.503 51.7C161.703 52.2 161.803 52.7 162.003 53.1C163.303 55.7 164.703 57.9 166.303 60.3L166.903 61.4C168.303 63.6 169.703 66 171.803 69.5Z" fill="#4EACB6"/>
<path opacity="0.5" d="M135.904 60.0001C135.404 60.8001 134.804 61.6001 134.304 62.6001C134.004 63.4001 133.804 64.2001 133.504 65.0001C133.204 65.8001 132.504 66.6001 132.104 67.4001C131.604 68.2001 131.304 69.2001 131.504 70.1001C131.704 70.7001 132.104 71.4001 132.604 71.9001C135.304 75.1001 137.104 78.9001 139.004 82.6001C139.304 83.2001 139.604 84.0001 140.304 84.5001C140.804 85.0001 141.404 85.5001 141.904 85.8001C143.004 86.4001 144.104 87.1001 145.304 87.6001C143.704 87.9001 141.904 88.1001 140.204 87.9001C140.004 87.9001 139.704 87.9001 139.604 87.7001C139.404 87.5001 139.304 87.2001 139.104 87.1001C138.004 84.5001 136.704 82.0001 135.304 79.6001C133.404 76.4001 131.004 73.4001 129.704 69.9001C129.704 69.7001 129.504 69.6001 129.504 69.3001C129.504 69.1001 129.704 69.0001 129.704 68.8001C130.004 68.2001 130.304 67.5001 130.704 66.9001C131.004 66.3001 131.304 65.6001 131.704 65.0001C132.004 64.4001 132.304 63.7001 132.704 63.2001C133.004 62.6001 133.304 61.9001 133.804 61.4001C134.104 60.8001 134.404 60.3001 134.904 59.6001C135.204 59.0001 135.704 58.5001 136.004 57.8001C136.304 57.2001 136.804 56.7001 137.104 56.0001C137.304 55.8001 137.304 55.7001 137.404 55.5001L137.604 55.3001L137.804 55.1001C138.004 55.1001 138.004 55.1001 138.004 55.3001C138.004 55.5001 138.004 55.6001 138.004 55.8001C137.804 56.4001 137.704 57.1001 137.404 57.7001C137.104 58.3001 136.904 59.0001 136.404 59.5001C136.204 59.8001 136.004 60.0001 135.904 60.0001Z" fill="#4EACB6"/>
<path d="M157.604 83.0999L157.404 82.8999C157.604 82.9999 157.604 82.9999 157.604 83.0999C158.104 83.2999 158.404 83.3999 158.704 83.5999C159.504 84.0999 160.104 84.8999 160.904 85.4999C161.104 85.6999 161.404 85.7999 161.504 85.9999C161.304 85.9999 161.204 86.1999 161.004 86.1999C160.804 86.1999 160.804 86.1999 160.704 86.3999C160.504 86.1999 160.404 86.0999 160.204 85.8999C159.704 85.3999 159.104 84.8999 158.604 84.2999C158.404 83.8999 158.104 83.3999 157.604 83.0999Z" fill="black"/>
<path d="M142.004 55.3L142.204 55.5C142.004 55.5 142.004 55.5 142.004 55.3C141.704 55.3 141.404 55.1 141.004 55C140.404 54.7 139.704 54 139.104 53.6C138.904 53.4 138.804 53.3 138.504 53.3C138.704 53.1 138.704 53.1 138.804 53L139.004 52.8C139.204 53 139.304 53.1 139.504 53.1C140.004 53.6 140.504 53.9001 140.904 54.2001C141.204 54.8001 141.604 55 142.004 55.3Z" fill="black"/>
<path d="M142.404 54L142.604 54.2C142.604 54.2 142.404 54.2 142.404 54C142.104 54 141.804 53.8 141.404 53.7C140.804 53.4 140.104 52.7 139.504 52.3C139.304 52.1 139.204 52 138.904 52C139.104 51.8 139.104 51.8 139.204 51.7L139.404 51.5C139.604 51.7 139.704 51.8 139.904 51.8C140.404 52.3 140.904 52.6 141.304 52.9C141.804 53.6 142.104 53.7 142.404 54Z" fill="black"/>
<path d="M156.804 84.2L156.604 84C156.604 84.1 156.804 84.1 156.804 84.2C157.304 84.4 157.604 84.5 157.904 84.7C158.704 85.2 159.304 86 160.104 86.6C160.304 86.8 160.604 86.9 160.704 87.1C160.504 87.1 160.404 87.3 160.204 87.3C160.004 87.3 160.004 87.3 159.904 87.5C159.704 87.3 159.604 87.2 159.404 87C158.904 86.5 158.304 86 157.804 85.4C157.604 85 157.104 84.6 156.804 84.2Z" fill="black"/>
<path d="M171.604 69.4C169.704 66 168.104 63.5 166.804 61.4L166.204 60.2999C164.604 57.8999 163.204 55.6999 161.904 53.0999C161.704 52.5999 161.604 52.1 161.404 51.7L161.204 51.4H160.704C153.704 51.2 146.704 51.2 139.604 51.2H139.304L139.104 51.4C138.604 52.2 138.104 52.9999 137.704 53.5999C137.204 54.3999 136.704 55.2 136.304 56C136.104 56.2 136.004 56.4999 135.804 56.5999C135.604 56.8999 135.304 57.1 135.204 57.4C134.604 58.2 134.204 59.1999 133.804 60.0999L133.504 60.7C132.704 62.6 131.604 64.4 130.504 66C130.304 66.3 130.204 66.5 129.904 66.8C129.304 67.6 128.804 68.2 128.604 69.4V69.5999L133.504 78.1999C134.104 79.2999 134.804 80.3999 135.404 81.5999C136.004 82.6999 136.804 83.7999 137.504 85.0999C137.804 85.5999 138.104 86.0999 138.304 86.5C138.604 87 138.804 87.5 139.104 88.0999L139.304 88.4H139.604C145.704 88.4 151.704 88.5999 157.804 88.6999H158.104C158.904 88.6999 159.904 88.5 160.504 88.4H160.704L160.904 88.1999C163.304 84.7999 164.704 82.1 166.504 78.5C166.704 78.2 168.404 75.3 168.704 74.8C169.304 74 170.004 72.9999 170.504 72.1999L170.704 71.9C171.204 71.3 171.704 70.5999 171.704 69.6999L171.604 69.4ZM169.904 71.3L169.704 71.5999C169.204 72.3999 168.604 73.3999 167.904 74.1999C167.404 74.6999 165.704 77.5999 165.504 78.1999C163.904 81.8999 162.304 84.3999 160.104 87.5999C159.504 87.7999 158.704 87.9 157.904 87.8C152.604 87.5 147.404 87.5 142.104 87.5H140.004C139.804 87 139.504 86.6999 139.404 86.1999C139.104 85.6999 138.904 85.0999 138.604 84.5999C138.004 83.5 137.204 82.3999 136.504 81.0999C135.904 79.9999 135.204 78.8999 134.604 77.6999L129.804 69.5C130.004 68.9 130.404 68.3999 130.904 67.6999C131.104 67.3999 131.404 67.2 131.504 66.9C132.604 65.1 133.704 63.4 134.504 61.5L134.704 60.7C135.204 59.7 135.504 58.8999 136.004 58.0999C136.204 57.7999 136.304 57.5999 136.504 57.2999C136.704 57.0999 136.804 56.8 137.004 56.7C137.504 55.9 138.004 55.0999 138.404 54.2999C138.704 53.6999 139.204 53 139.504 52.4C146.204 52.2 153.104 52.3999 159.804 52.5999C160.004 53.0999 160.104 53.4 160.304 53.7C161.604 56.4 163.204 58.6999 164.804 61.0999L165.404 62.2C166.804 64.3 168.304 66.7 170.204 69.9C170.504 70.3 170.204 70.8 169.904 71.3Z" fill="black"/>
<path d="M147.204 66.6999C147.404 64.7999 146.404 63.1999 145.404 62.8999C144.404 62.5999 143.604 62.8999 143.504 64.6999C143.204 67.3999 143.504 74.5999 144.304 76.1999C144.604 76.7999 144.904 77.1999 145.404 77.4999C146.204 77.7999 146.704 77.4999 147.004 76.6999C147.304 75.8999 147.304 74.8999 147.304 73.6999C147.304 73.3999 147.604 73.0999 147.904 73.0999C148.204 73.0999 148.504 73.3999 148.504 73.6999C148.504 75.0999 148.304 76.3999 148.004 77.1999C147.504 78.5999 146.404 79.5999 144.604 78.7999C143.804 78.4999 143.204 77.7999 142.804 76.8999C141.804 74.9999 141.504 67.4999 141.804 64.5999C142.104 61.9999 143.704 61.0999 145.604 61.6999C147.204 62.2999 148.304 64.3999 148.204 66.9999C148.204 67.2999 147.904 67.5999 147.604 67.5999C147.504 67.2999 147.204 66.9999 147.204 66.6999Z" fill="black"/>
<path d="M156.904 68.1L157.104 68.3V68.5C157.104 68.7 157.104 68.8 157.104 69V70.3V71C157.304 72 157.304 72 157.304 73.2C157.304 74.5 157.304 75.6 157.504 76.2C157.504 76.5 157.704 76.8 157.704 77C158.204 77.3 158.304 77.3 158.304 77.6C158.304 77.9 158.104 78.2 157.804 78.4C157.604 78.4 157.504 78.4 157.304 78.2C157.304 78.2 157.304 78.2 157.104 78.2C156.604 77.9 156.504 77.6 156.504 77.2L156.304 77.5C155.704 78.6 154.704 78.9 153.604 78.1C152.304 77.1 151.804 73.9 152.304 71.2C152.504 69.6 152.904 68.5 153.604 67.7C154.404 66.7 155.504 66.4 156.804 67.1C156.904 67.5 157.104 67.8 156.904 68.1ZM155.804 71.1V70.8C155.604 70.2 155.604 69.5 155.604 69.2V69C155.604 68.7 155.604 68.5 155.604 68.2C155.104 68 154.604 68.2 154.304 68.7C153.304 69.8 152.904 72.9 153.304 75.1C153.504 76.2 153.804 76.9 154.104 77.2C154.404 77.5 154.604 77.4 154.904 76.9C155.704 75.8 155.804 73.2 155.804 71.1Z" fill="black"/>
<path d="M76.8035 73.6001V73.8001C76.8035 74.8001 76.3035 75.4001 75.8035 76.2001L75.6035 76.5001C75.0035 77.5001 74.3035 78.4001 73.7035 79.2001C73.2035 79.7001 71.5035 82.7001 71.1035 83.2001C69.2035 87.2001 67.6035 90.1001 65.0035 93.6001L64.8035 93.8001H64.6035C63.8035 94.1001 63.0035 94.3001 62.0035 94.3001H61.7035C55.2035 94.0001 48.6035 93.8001 42.2035 94.0001L42.0035 93.7001C41.7035 93.2001 41.4035 92.6001 41.0035 92.1001C40.7035 91.6001 40.5035 91.0001 40.2035 90.5001C39.4035 89.2001 38.8035 87.9001 38.0035 86.8001C37.4035 85.7001 36.6035 84.4001 35.9035 83.3001L30.6035 74.2001V74.0001C30.8035 72.9001 31.4035 72.1001 32.0035 71.3001C32.2035 71.0001 32.5035 70.8001 32.6035 70.5001C33.9035 68.7001 34.8035 66.8001 35.8035 64.7001L36.1035 64.1001C36.6035 63.1001 37.1035 62.0001 37.5035 61.2001C37.7035 60.9001 38.0035 60.6001 38.1035 60.4001C38.3035 60.1001 38.4035 59.9001 38.6035 59.6001C39.1035 58.8001 39.7035 58.0001 40.2035 57.0001C40.7035 56.2001 41.2035 55.4001 41.6035 54.6001L41.8035 54.3001H42.1035C49.6035 54.1001 57.3035 54.3001 64.8035 54.5001H65.3035L65.5035 55.0001C65.7035 55.5001 65.8035 56.1001 66.0035 56.4001C67.3035 59.3001 68.9035 61.7001 70.6035 64.1001L71.4035 65.2001C73.0035 67.2001 74.8035 69.7001 76.8035 73.6001Z" fill="white"/>
<path opacity="0.3" d="M76.8035 73.6001V73.8001C76.8035 74.8001 76.3035 75.4001 75.8035 76.2001L75.6035 76.5001C75.0035 77.5001 74.3035 78.4001 73.7035 79.2001C73.2035 79.7001 71.5035 82.7001 71.1035 83.2001C69.2035 87.2001 67.6035 90.1001 65.0035 93.6001L64.8035 93.8001H64.6035C63.8035 94.1001 63.0035 94.3001 62.0035 94.3001H61.7035C55.2035 94.0001 48.6035 93.8001 42.2035 94.0001L42.0035 93.7001C41.7035 93.2001 41.4035 92.6001 41.0035 92.1001C40.7035 91.6001 40.5035 91.0001 40.2035 90.5001C39.4035 89.2001 38.8035 87.9001 38.0035 86.8001C37.4035 85.7001 36.6035 84.4001 35.9035 83.3001L30.6035 74.2001V74.0001C30.8035 72.9001 31.4035 72.1001 32.0035 71.3001C32.2035 71.0001 32.5035 70.8001 32.6035 70.5001C33.9035 68.7001 34.8035 66.8001 35.8035 64.7001L36.1035 64.1001C36.6035 63.1001 37.1035 62.0001 37.5035 61.2001C37.7035 60.9001 38.0035 60.6001 38.1035 60.4001C38.3035 60.1001 38.4035 59.9001 38.6035 59.6001C39.1035 58.8001 39.7035 58.0001 40.2035 57.0001C40.7035 56.2001 41.2035 55.4001 41.6035 54.6001L41.8035 54.3001H42.1035C49.6035 54.1001 57.3035 54.3001 64.8035 54.5001H65.3035L65.5035 55.0001C65.7035 55.5001 65.8035 56.1001 66.0035 56.4001C67.3035 59.3001 68.9035 61.7001 70.6035 64.1001L71.4035 65.2001C73.0035 67.2001 74.8035 69.7001 76.8035 73.6001Z" fill="#4769B2"/>
<path opacity="0.5" d="M38.5039 63.4C37.9039 64.4 37.2039 65.2 36.9039 66.1C36.6039 66.9 36.4039 67.9 36.1039 68.7C35.8039 69.7 35.0039 70.5 34.5039 71.3C34.0039 72.1 33.7039 73.2 33.9039 74.2C34.1039 75 34.7039 75.5 35.2039 76.1C38.1039 79.6 40.0039 83.6 41.9039 87.6C42.2039 88.4 42.7039 89 43.2039 89.7C43.7039 90.2 44.3039 90.7 45.0039 91C46.1039 91.6 47.4039 92.3 48.7039 92.8C46.9039 93.3 45.0039 93.3 43.3039 93.1C43.1039 93.1 42.8039 93.1 42.7039 92.9C42.4039 92.7 42.4039 92.4 42.2039 92.3C40.9039 89.6 39.6039 86.9 38.1039 84.1C36.0039 80.7 33.5039 77.5 32.2039 73.7C32.2039 73.5 32.0039 73.2 32.0039 73.1C32.0039 73 32.2039 72.8 32.2039 72.6C32.5039 72 32.8039 71.3 33.2039 70.7C33.5039 70.1 33.8039 69.4 34.2039 68.8C34.5039 68.2 34.8039 67.5 35.3039 66.9C35.6039 66.3 36.1039 65.6 36.4039 65C36.7039 64.4 37.2039 63.7 37.5039 63.1C37.8039 62.5 38.3039 61.8 38.8039 61.2C39.3039 60.6 39.6039 59.9 40.1039 59.3C40.3039 59.1 40.3039 59 40.4039 58.8L40.6039 58.6L40.8039 58.4C41.0039 58.2 41.0039 58.4 41.0039 58.6C41.0039 58.8 41.0039 58.9 40.8039 59.1C40.6039 59.7 40.5039 60.5 40.2039 61.2C39.9039 61.8 39.6039 62.5 39.2039 63.1C38.7039 63 38.5039 63.2 38.5039 63.4Z" fill="#4769B2"/>
<path d="M61.7039 88.1L61.5039 88C61.5039 88 61.7039 88 61.7039 88.1C62.2039 88.3 62.7039 88.4 63.0039 88.7C63.8039 89.3 64.6039 90.1 65.4039 90.8C65.6039 91 65.9039 91.1 66.2039 91.3C66.0039 91.3 65.9039 91.5 65.7039 91.5C65.5039 91.5 65.5039 91.5 65.4039 91.7C65.2039 91.5 65.1039 91.4 64.8039 91.2C64.2039 90.7 63.7039 90.1 63.0039 89.6C62.5039 88.9 62.2039 88.4 61.7039 88.1Z" fill="black"/>
<path d="M44.9031 58.4L45.1031 58.5999C44.9031 58.3999 44.9031 58.4 44.9031 58.4C44.6031 58.4 44.3031 58.1999 43.9031 58.0999C43.3031 57.5999 42.6031 57.1 41.8031 56.5C41.6031 56.3 41.3031 56.2 41.2031 56.2C41.4031 56 41.4031 56 41.5031 55.9L41.7031 55.7C41.9031 55.9 42.0031 56 42.2031 56.2C42.7031 56.7 43.2031 57 43.8031 57.5C44.1031 57.8 44.4031 58.1 44.9031 58.4Z" fill="black"/>
<path d="M45.4031 57L45.6031 57.2001C45.6031 57.1001 45.4031 57.1 45.4031 57C45.1031 57 44.8031 56.8001 44.4031 56.7001C43.8031 56.2001 43.1031 55.7 42.3031 55.1C42.1031 54.9 41.8031 54.8 41.7031 54.8C41.9031 54.6 41.9031 54.6 42.0031 54.5L42.2031 54.3C42.4031 54.5 42.5031 54.6 42.7031 54.8C43.2031 55.3 43.7031 55.6 44.3031 56.1C44.8031 56.3 45.1031 56.6 45.4031 57Z" fill="black"/>
<path d="M60.7039 89.2L60.5039 89C60.7039 89.1 60.7039 89.2 60.7039 89.2C61.2039 89.4 61.7039 89.5 62.0039 89.8C62.8039 90.4 63.6039 91.2 64.4039 91.9C64.6039 92.1 64.9039 92.2 65.2039 92.4C65.0039 92.4 64.9039 92.6 64.7039 92.6C64.5039 92.6 64.5039 92.6 64.4039 92.8C64.2039 92.6 64.1039 92.5 63.8039 92.3C63.2039 91.8 62.7039 91.2 62.0039 90.7C61.7039 90 61.2039 89.7 60.7039 89.2Z" fill="black"/>
<path d="M76.7047 73.4002C74.6047 69.9002 73.0047 67.2002 71.4047 64.9002L70.6047 63.8002C68.8047 61.2002 67.2047 58.8002 66.0047 56.1002C65.8047 55.6002 65.7047 55.1002 65.5047 54.7002L65.3047 54.2002H64.8047C57.3047 54.0002 49.6047 53.9002 42.1047 54.0002H41.8047V54.2002C41.3047 55.0002 40.8047 55.8002 40.4047 56.6002C39.9047 57.4002 39.4047 58.4002 38.8047 59.2002C38.6047 59.5002 38.5047 59.7002 38.3047 60.0002C38.1047 60.3002 37.8047 60.6002 37.7047 60.8002C37.1047 61.8002 36.6047 62.7002 36.3047 63.7002L36.0047 64.3002C35.0047 66.2002 34.1047 68.1002 32.8047 70.1002C32.6047 70.4002 32.5047 70.6002 32.2047 70.9002C31.6047 71.7002 30.9047 72.5002 30.8047 73.6002V73.8002L36.1047 82.9002C36.7047 84.0002 37.5047 85.3002 38.2047 86.4002C39.0047 87.7002 39.6047 89.0002 40.4047 90.1002C40.7047 90.6002 41.0047 91.2002 41.2047 91.7002C41.5047 92.2002 41.8047 92.8002 42.2047 93.3002L42.4047 93.6002H42.7047C49.2047 93.6002 55.8047 93.8002 62.2047 93.9002H62.5047C63.3047 93.9002 64.3047 93.7002 65.1047 93.6002H65.3047L65.5047 93.4002C68.1047 89.9002 69.6047 87.0002 71.6047 83.0002C71.8047 82.5002 73.7047 79.5002 74.2047 79.0002C74.8047 78.0002 75.5047 77.1002 76.1047 76.3002L76.3047 76.0002C76.8047 75.4002 77.3047 74.6002 77.3047 73.6002L76.7047 73.4002ZM74.8047 75.3002L74.5047 75.6002C73.9047 76.6002 73.2047 77.4002 72.6047 78.3002C72.1047 78.9002 70.2047 82.0002 70.0047 82.5002C68.2047 86.3002 66.6047 89.1002 64.3047 92.6002C63.7047 92.8002 62.7047 92.9002 61.9047 92.9002C56.3047 92.6002 50.6047 92.6002 45.0047 92.6002H42.8047C42.5047 92.1002 42.3047 91.8002 42.2047 91.3002C41.9047 90.8002 41.6047 90.2002 41.2047 89.7002C40.4047 88.4002 39.8047 87.3002 39.0047 86.0002C38.4047 84.9002 37.6047 83.6002 36.9047 82.5002L31.8047 73.7002C32.0047 73.1002 32.4047 72.4002 32.9047 71.8002C33.1047 71.5002 33.4047 71.3002 33.5047 71.0002C34.8047 69.1002 35.9047 67.2002 36.9047 65.1002L37.2047 64.5002C37.7047 63.5002 38.0047 62.6002 38.6047 61.8002C38.8047 61.5002 38.9047 61.3002 39.2047 61.0002C39.4047 60.7002 39.5047 60.5002 39.8047 60.2002C40.4047 59.4002 40.9047 58.4002 41.4047 57.6002C41.9047 57.0002 42.2047 56.2002 42.7047 55.5002C49.9047 55.3002 57.2047 55.5002 64.6047 55.7002C64.8047 56.2002 64.9047 56.7002 65.1047 57.0002C66.5047 59.9002 68.1047 62.3002 69.9047 64.8002L70.7047 65.9002C72.1047 68.1002 73.7047 70.7002 75.8047 74.2002C75.6047 74.4002 75.2047 74.9002 74.8047 75.3002Z" fill="black"/>
<path d="M48.3042 79.7V79.4L48.0042 77.8C47.8042 77 47.7042 76.5 47.5042 76C47.2042 74.2 46.5042 72.2 45.9042 69.8L46.1042 71.9C46.3042 75.4 46.4042 78.1 46.3042 80.1C46.3042 80.4 46.0042 80.7 45.5042 80.7C45.0042 80.7 44.9042 80.4 44.9042 79.9C44.9042 78 44.9042 75.3 44.7042 71.9C44.5042 67.9 44.4042 65.2 44.4042 63.9L44.2042 63.6C44.0042 63.3 44.4042 62.8 44.7042 62.6C45.0042 62.4 45.5042 62.8 45.5042 63.1L45.7042 63.6C45.7042 63.8 45.7042 63.8 45.7042 63.9C45.9042 64.4 46.2042 65.7 46.7042 67.4C47.8042 71.2 48.3042 73.3 48.8042 75.7L49.1042 77C49.1042 76.8 49.1042 76.5 49.1042 76.5C49.6042 73 50.1042 70.1 50.4042 68L51.4042 63.5C51.4042 63.3 51.6042 63.2 51.6042 63.2C51.8042 62.9 51.9042 62.7 52.2042 62.7C52.5042 62.7 52.8042 63 52.8042 63.3C52.8042 68.7 53.0042 74.2 53.4042 79.8C53.4042 80.1 53.1042 80.6 52.8042 80.6C52.5042 80.6 52.0042 80.3 52.0042 80C51.8042 76.5 51.7042 73 51.5042 69.6C51.2042 71.8 50.7042 74.1 50.5042 76.5C50.3042 77.6 50.2042 78.9 50.0042 79.5C49.8042 79.8 49.7042 80.1 49.7042 80.3C49.4042 80.6 48.7042 80.6 48.4042 80C48.3042 80 48.3042 79.8 48.3042 79.7Z" fill="black"/>
<path d="M61.7043 68.5C61.7043 68 61.7043 67.5 62.0043 67.4C62.3043 67.1 62.8043 67.2 63.0043 67.4C63.2043 67.6 63.2043 67.7 63.2043 67.9C63.2043 69.5 63.2043 70.3 63.4043 73C63.6043 75.7 63.7043 78.9 63.4043 81.3C62.9043 84.7 61.6043 85.8 58.3043 85.3C58.0043 85.3 57.7043 84.8 57.7043 84.5C57.7043 84.2 58.2043 83.9 58.5043 83.9C60.9043 84.2 61.7043 83.7 62.0043 81.2C62.0043 80.7 62.2043 80.2 62.2043 79.8C61.9043 80.4 61.4043 80.8 60.4043 80.8C59.1043 80.6 58.0043 79.8 57.5043 78.6C57.2043 77.8 57.2043 75.7 57.5043 73.5C57.7043 71.4 58.1043 69.3 58.6043 68.5C59.2043 67.7 60.0043 67.4 60.8043 67.7C61.0043 67.8 61.4043 68.1 61.7043 68.5ZM60.6043 79.2L60.8043 78.9C61.0043 78.6 61.0043 78.3 61.1043 77.8C61.3043 77 61.3043 75.9 61.3043 74.6C61.3043 73.3 61.3043 72.2 61.1043 71.2C61.1043 70.6 60.9043 70.1 60.9043 69.8C60.6043 69.2 60.1043 68.8 59.8043 69.3C59.6043 69.5 59.5043 69.9 59.3043 70.7C59.0043 72.3 58.7043 74.5 58.7043 76.1C58.7043 77.7 58.9043 78.2 59.5043 78.7C59.8043 79 60.1043 79 60.6043 79.2C60.4043 79.2 60.4043 79.2 60.6043 79.2Z" fill="black"/>
<path d="M76.1044 28.2C75.5044 29.2 74.9044 30 74.3044 30.6C73.9044 31 73.5044 31.4 72.9044 31.8L72.3044 32.2C72.1044 32.4 71.9044 32.6 71.7044 32.8C71.1044 33.2 70.5044 33.8 69.9044 34.2C68.5044 35.2 66.7044 35.6 65.1044 36C63.7044 36.2 62.3044 36.6 60.9044 36.6C59.3044 36.6 57.9044 36.2 56.5044 36C54.7044 35.6 52.9044 35.2 51.3044 34.4C46.7044 32.2 44.5044 27.2 43.3044 23.6C42.9044 22.4 42.7044 21.4 42.5044 20.4C42.3044 18.8 42.3044 17 42.7044 15V14.6C42.9044 13.4 43.3044 12.2 43.7044 11.2C43.9044 10.6 44.3044 10 44.7044 9.4C44.9044 9.2 44.9044 8.8 45.1044 8.6C45.5044 7.6 46.1044 6.8 46.9044 6C47.5044 5.2 48.3044 4.6 49.1044 3.8C49.9044 3.2 50.7044 2.6 51.7044 2.2C54.5044 0.8 57.7044 0 61.3044 0C62.5044 0 63.7044 0 64.7044 0.2C70.5044 1.2 75.5044 5.4 77.7044 11.2C79.7044 16.6 79.1044 23 76.1044 28.2Z" fill="white"/>
<path opacity="0.4" d="M76.1044 28.2C75.5044 29.2 74.9044 30 74.3044 30.6C73.9044 31 73.5044 31.4 72.9044 31.8L72.3044 32.2C72.1044 32.4 71.9044 32.6 71.7044 32.8C71.1044 33.2 70.5044 33.8 69.9044 34.2C68.5044 35.2 66.7044 35.6 65.1044 36C63.7044 36.2 62.3044 36.6 60.9044 36.6C59.3044 36.6 57.9044 36.2 56.5044 36C54.7044 35.6 52.9044 35.2 51.3044 34.4C46.7044 32.2 44.5044 27.2 43.3044 23.6C42.9044 22.4 42.7044 21.4 42.5044 20.4C42.3044 18.8 42.3044 17 42.7044 15V14.6C42.9044 13.4 43.3044 12.2 43.7044 11.2C43.9044 10.6 44.3044 10 44.7044 9.4C44.9044 9.2 44.9044 8.8 45.1044 8.6C45.5044 7.6 46.1044 6.8 46.9044 6C47.5044 5.2 48.3044 4.6 49.1044 3.8C49.9044 3.2 50.7044 2.6 51.7044 2.2C54.5044 0.8 57.7044 0 61.3044 0C62.5044 0 63.7044 0 64.7044 0.2C70.5044 1.2 75.5044 5.4 77.7044 11.2C79.7044 16.6 79.1044 23 76.1044 28.2Z" fill="#129D6F"/>
<path opacity="0.7" d="M45.9047 20.3999C46.1047 20.9999 46.1047 21.5999 46.5047 21.9999C46.7047 22.3999 46.9047 22.7999 47.1047 23.1999C47.5047 23.7999 47.7047 24.5999 47.9047 25.1999C48.1047 25.9999 48.5047 26.7999 48.9047 27.3999C49.3047 27.9999 49.5047 28.5999 50.1047 29.1999C50.5047 29.5999 50.9047 29.7999 51.1047 29.9999C51.9047 30.3999 52.5047 30.9999 53.3047 31.3999C53.9047 31.7999 54.3047 32.1999 54.9047 32.3999C55.5047 32.5999 56.1047 32.7999 56.7047 32.9999C59.9047 33.7999 63.3047 34.3999 66.7047 34.5999C61.9047 35.1999 57.1047 35.5999 52.5047 34.1999C51.9047 33.9999 51.3047 33.7999 50.9047 33.5999C50.3047 33.1999 49.9047 32.7999 49.5047 32.3999C48.7047 31.5999 48.1047 30.9999 47.3047 30.1999C46.9047 29.7999 46.3047 29.1999 46.1047 28.7999C45.7047 28.1999 45.5047 27.3999 45.3047 26.7999C44.9047 25.5999 44.5047 24.3999 44.1047 23.1999C43.9047 22.5999 43.7047 22.1999 43.7047 21.5999C43.5047 20.7999 43.5047 19.7999 43.3047 18.9999C43.3047 17.1999 43.5047 15.5999 44.1047 13.9999C44.1047 13.7999 44.1047 13.5999 44.3047 13.3999C44.5047 13.3999 44.5047 13.3999 44.5047 13.5999C44.5047 13.7999 44.5047 13.9999 44.7047 14.1999C44.7047 14.3999 44.7047 14.5999 44.9047 14.7999C45.1047 15.5999 45.3047 16.5999 45.3047 17.3999C45.3047 18.3999 45.5047 19.3999 45.9047 20.3999Z" fill="#129D6F"/>
<path d="M68.1043 28.4L67.9043 28.2C67.9043 28.2 68.1043 28.2 68.1043 28.4C68.7043 28.4 69.1043 28.8 69.5043 29C70.5043 29.6 71.1043 30.4 72.1043 31.2C72.3043 31.4 72.7043 31.5999 72.9043 31.7999C72.7043 31.7999 72.5043 32 72.3043 32C72.1043 32 72.1043 32 71.9043 32.2C71.7043 32 71.5043 31.8 71.3043 31.6C70.7043 31 70.1043 30.3999 69.5043 29.7999C68.9043 29.1999 68.5043 28.8 68.1043 28.4Z" fill="black"/>
<path d="M66.9043 29.6001C68.1043 31.0001 69.1043 32.4001 70.9043 33.2001C69.7043 31.9001 68.5043 30.4001 66.9043 29.6001Z" fill="black"/>
<path d="M77.7044 11.2C75.5044 5.4 70.5044 1 64.7044 0.2C63.7044 0 62.5044 0 61.3044 0C57.7044 0 54.5044 0.8 51.7044 2.2C50.7044 2.6 49.9044 3.2 49.1044 3.8C48.3044 4.4 47.5044 5.2 46.9044 6C46.3044 6.8 45.7044 7.6 45.1044 8.6C44.9044 8.8 44.9044 9.2 44.7044 9.4C44.3044 10 44.1044 10.6 43.7044 11.2C43.3044 12.2 42.9044 13.2 42.7044 14.6V15C42.3044 17 42.3044 18.8 42.5044 20.4C42.7044 21.4 42.9044 22.4 43.3044 23.6C44.5044 27.2 46.7044 32.2 51.3044 34.4C52.9044 35.2 54.7044 35.6 56.5044 36C57.9044 36.4 59.5044 36.6 60.9044 36.6C62.3044 36.6 63.7044 36.2 65.1044 36C66.7044 35.6 68.5044 35.2 69.9044 34.2C70.5044 33.8 71.1044 33.2 71.7044 32.8C71.9044 32.6 72.1044 32.4 72.3044 32.2L72.9044 31.8C73.3044 31.4 73.9044 31 74.3044 30.6C74.9044 30 75.5044 29.2 76.1044 28.2C79.1044 23 79.7044 16.6 77.7044 11.2ZM74.9044 27.6C74.3044 28.6 73.9044 29.2 73.3044 29.8C72.9044 30.2 72.5044 30.6 72.1044 30.8L71.5044 31.2C71.3044 31.4 71.1044 31.6 70.9044 31.8C70.3044 32.2 69.9044 32.8 69.3044 33.2C67.9044 34 66.5044 34.4 64.9044 34.8C63.7044 35 62.3044 35.4 61.1044 35.4C59.7044 35.4 58.3044 35 56.9044 34.8C55.3044 34.4 53.5044 34 51.9044 33.2C47.7044 31.2 45.7044 26.6 44.5044 23.2C44.1044 22 43.9044 21.2 43.9044 20.2C43.7044 18.8 43.7044 17 44.1044 15.2V14.8C44.3044 13.6 44.7044 12.6 45.1044 11.6C45.3044 11 45.7044 10.4 45.9044 9.8C46.1044 9.6 46.1044 9.2 46.3044 9C46.7044 8.2 47.3044 7.4 47.9044 6.6C48.5044 6 49.1044 5.2 49.9044 4.6C50.7044 4 51.5044 3.4 52.3044 3C54.9044 1.6 57.9044 1 61.3044 0.8C62.5044 0.8 63.5044 0.8 64.5044 1C69.9044 1.8 74.5044 5.8 76.5044 11.2C78.3044 16.6 77.7044 22.6 74.9044 27.6Z" fill="black"/>
<path d="M57.5041 22.1999V20.3999L57.3041 16.7999L57.1041 14.9999C57.1041 13.9999 57.1041 13.5999 56.9041 13.3999C56.9041 13.3999 56.9041 13.1999 56.9041 12.7999C56.9041 12.5999 56.9041 12.1999 56.7041 11.7999C56.7041 11.1999 56.5041 10.1999 56.7041 9.3999C56.7041 8.7999 56.9041 8.3999 57.5041 7.9999C58.9041 7.3999 60.1041 8.3999 61.3041 9.7999C63.1041 11.9999 63.7041 14.1999 64.1041 16.3999C64.5041 18.5999 64.3041 20.9999 63.7041 22.9999C62.9041 24.9999 61.3041 26.7999 58.9041 27.7999C58.5041 27.9999 58.3041 27.7999 58.1041 27.5999C57.9041 27.5999 57.5041 27.5999 57.3041 27.3999C57.1041 27.1999 57.1041 26.9999 57.1041 26.7999C57.3041 25.7999 57.3041 24.5999 57.3041 23.5999C57.5041 23.5999 57.5041 22.9999 57.5041 22.1999ZM58.5041 15.1999L58.7041 17.1999C58.7041 17.7999 58.9041 20.1999 58.9041 21.1999C58.9041 21.5999 58.9041 22.1999 58.9041 22.9999C58.9041 24.5999 58.9041 25.5999 58.7041 26.7999C60.9041 25.7999 62.3041 23.7999 62.7041 21.3999C63.1041 19.1999 62.7041 16.5999 61.9041 14.1999C61.5041 13.1999 60.9041 12.1999 60.1041 11.1999C59.7041 10.5999 59.3041 10.1999 58.9041 9.9999C58.7041 9.7999 58.5041 9.7999 58.3041 9.7999V9.9999C58.3041 10.5999 58.3041 11.5999 58.3041 12.1999V12.9999V13.5999C58.5041 13.5999 58.5041 13.9999 58.5041 15.1999Z" fill="black"/>
<path d="M27.7041 48.1C27.2041 48.9 26.7041 49.5 26.3041 50.1C25.9041 50.5 25.6041 50.7 25.2041 51.1L24.8041 51.5C24.6041 51.6 24.4041 51.9 24.2041 52C23.7041 52.4 23.2041 52.8 22.8041 53.2C21.6041 54 20.1041 54.3 18.9041 54.6C17.8041 54.8 16.6041 55.1 15.4041 55.1H15.3041C14.0041 55.1 12.8041 54.9 11.6041 54.5C10.2041 54.1 8.70405 53.9 7.30405 53.2C3.60405 51.3 1.70405 47.3 0.704052 44.4C0.304052 43.4 0.204052 42.6 0.104052 41.9C-0.0959482 40.6 0.00405186 39.2 0.304052 37.5L0.604052 37C0.804052 35.9 1.10405 35.1 1.40405 34.3C1.60405 33.8 1.90405 33.2 2.10405 32.7C2.20405 32.5 2.30405 32.2 2.50405 32.1C2.90405 31.4 3.30405 30.7 3.90405 30C4.40405 29.4 5.00405 28.8 5.70405 28.2C6.30405 27.7 7.00405 27.2 7.80405 26.9C10.1041 25.7 12.8041 25.1 15.7041 25C16.8041 25 17.6041 25 18.4041 25.2C23.1041 25.9 27.3041 29.5 29.0041 34.3C30.7041 38.6 30.2041 43.8 27.7041 48.1Z" fill="white"/>
<path opacity="0.3" d="M27.7041 48.1C27.2041 48.9 26.7041 49.5 26.3041 50.1C25.9041 50.5 25.6041 50.7 25.2041 51.1L24.8041 51.5C24.6041 51.6 24.4041 51.9 24.2041 52C23.7041 52.4 23.2041 52.8 22.8041 53.2C21.6041 54 20.1041 54.3 18.9041 54.6C17.8041 54.8 16.6041 55.1 15.4041 55.1H15.3041C14.0041 55.1 12.8041 54.9 11.6041 54.5C10.2041 54.1 8.70405 53.9 7.30405 53.2C3.60405 51.3 1.70405 47.3 0.704052 44.4C0.304052 43.4 0.204052 42.6 0.104052 41.9C-0.0959482 40.6 0.00405186 39.2 0.304052 37.5L0.604052 37C0.804052 35.9 1.10405 35.1 1.40405 34.3C1.60405 33.8 1.90405 33.2 2.10405 32.7C2.20405 32.5 2.30405 32.2 2.50405 32.1C2.90405 31.4 3.30405 30.7 3.90405 30C4.40405 29.4 5.00405 28.8 5.70405 28.2C6.30405 27.7 7.00405 27.2 7.80405 26.9C10.1041 25.7 12.8041 25.1 15.7041 25C16.8041 25 17.6041 25 18.4041 25.2C23.1041 25.9 27.3041 29.5 29.0041 34.3C30.7041 38.6 30.2041 43.8 27.7041 48.1Z" fill="#ED7433"/>
<path opacity="0.6" d="M3.10469 41.7C3.20469 42.2 3.30469 42.7 3.50469 43.1C3.60469 43.5 3.90469 43.7 4.10469 44.1C4.30469 44.6 4.60469 45.2 4.80469 45.8C5.00469 46.3 5.20469 47 5.60469 47.6C5.80469 48.1 6.20469 48.7 6.60469 49C6.80469 49.2 7.20469 49.5 7.40469 49.7C8.00469 50.1 8.60469 50.5 9.20469 50.9C9.70469 51.3 10.0047 51.5 10.5047 51.7C11.0047 51.9 11.5047 52.1 12.1047 52.2C14.7047 52.8 17.5047 53.3 20.2047 53.5C16.3047 54 12.2047 54.4 8.50469 53.2C8.00469 53.1 7.50469 52.8 7.20469 52.6C6.70469 52.4 6.40469 52 6.00469 51.6C5.40469 51 4.80469 50.4 4.20469 49.8C3.80469 49.4 3.50469 49.1 3.10469 48.6C2.70469 48.1 2.60469 47.5 2.40469 46.9C2.00469 45.9 1.80469 44.9 1.40469 43.9C1.30469 43.4 1.20469 43.1 1.00469 42.6C0.904687 41.9 0.804688 41.2 0.804688 40.5C0.804688 39.1 0.904688 37.6 1.40469 36.3C1.40469 36.2 1.50469 35.9 1.50469 35.8C1.60469 35.7 1.70469 35.8 1.70469 35.9C1.80469 36 1.80469 36.3 1.80469 36.5C1.80469 36.7 1.90469 36.9 1.90469 37.1C2.20469 38 2.30469 38.7 2.50469 39.4C2.70469 40.1 2.80469 40.9 3.10469 41.7Z" fill="#ED7433"/>
<path d="M21.2035 48.2001L21.1035 48.1001C21.1035 48.1001 21.2035 48.1001 21.2035 48.2001C21.7035 48.3001 22.0035 48.4001 22.3035 48.7001C23.0035 49.2001 23.7035 49.9001 24.4035 50.5001C24.6035 50.6001 24.9035 50.9001 25.1035 51.0001C25.0035 51.0001 24.7035 51.1001 24.6035 51.1001C24.5035 51.1001 24.5035 51.1001 24.4035 51.2001C24.3035 51.1001 24.0035 50.8001 23.9035 50.7001C23.4035 50.2001 22.8035 49.7001 22.3035 49.3001C21.9035 48.9001 21.5035 48.6001 21.2035 48.2001Z" fill="black"/>
<path d="M20.3047 49.2C21.3047 50.4 22.1047 51.4999 23.5047 52.0999C22.6047 50.9999 21.7047 49.9 20.3047 49.2Z" fill="black"/>
<path d="M29.0032 34.1C27.2032 29.3 23.0032 25.9 18.4032 25C17.6032 24.9 16.7032 24.9 15.7032 24.8C12.8032 24.8 10.1032 25.5001 7.80325 26.7001C7.10325 27.1001 6.40325 27.5 5.70325 28C5.00325 28.6 4.40325 29.1 3.90325 29.8C3.30325 30.4 2.80325 31.1 2.50325 31.9C2.40325 32.1 2.30325 32.4 2.10325 32.5C1.90325 33 1.50325 33.5 1.40325 34.1C1.00325 34.9 0.803246 35.8 0.603246 36.8L0.503246 37.2001C0.103246 38.9001 0.103246 40.3 0.303246 41.6C0.403246 42.3 0.503246 43.2 0.903246 44.1C1.90325 47.1 3.80325 51.0001 7.50325 52.9001C8.80325 53.6001 10.4032 53.9001 11.8032 54.2001C13.0032 54.4001 14.2032 54.8 15.5032 54.8H15.6032C16.8032 54.8 17.9032 54.6 19.1032 54.3C20.4032 54.1 21.8032 53.7001 23.0032 52.9001C23.6032 52.5001 24.0032 52.2001 24.4032 51.7001C24.5032 51.6 24.8032 51.3001 25.0032 51.2001L25.2032 51C25.6032 50.6 25.9032 50.4 26.3032 50C26.8032 49.5 27.3032 48.9 27.7032 48C30.2032 43.8 30.7032 38.6 29.0032 34.1ZM26.8032 47.6C26.3032 48.4 26.0032 48.9001 25.6032 49.4001C25.2032 49.8001 25.0032 50 24.6032 50.2001L24.2032 50.6C24.0032 50.7 23.8032 51 23.6032 51.1C23.1032 51.5 22.8032 51.8001 22.3032 52.2001C21.2032 52.9001 19.9032 53.2001 18.7032 53.4001C17.6032 53.6001 16.6032 53.9001 15.5032 53.9001C14.3032 54.0001 13.1032 53.7001 12.0032 53.4001C10.7032 53.0001 9.30325 52.8001 7.90325 52.2001C4.60325 50.5 2.80325 46.8 1.80325 44C1.40325 43 1.30325 42.3 1.20325 41.6C1.10325 40.4 1.10325 39.0001 1.40325 37.4001V37C1.60325 36 1.90325 35.2 2.10325 34.5C2.30325 34 2.60325 33.5 2.80325 33.1C2.90325 32.9 3.00325 32.6001 3.20325 32.4001C3.60325 31.7001 3.90325 31.1 4.50325 30.5C5.00325 29.9 5.60325 29.4 6.20325 28.9C6.80325 28.4 7.40325 27.9 8.10325 27.6C10.2032 26.5 12.8032 25.9 15.5032 25.8C16.5032 25.8 17.3032 25.8 18.1032 25.9C22.4032 26.6 26.3032 29.8 27.9032 34.3C29.5032 38.6 29.2032 43.6 26.8032 47.6Z" fill="black"/>
<path d="M12.6043 44.5999L12.5043 41.9999C12.4043 39.5999 12.4043 37.7999 12.4043 36.0999C12.4043 36.0999 12.4043 35.6999 12.4043 35.2999C12.4043 34.2999 12.4043 33.5999 12.5043 32.8999C12.7043 31.8999 13.1043 31.6999 14.1043 31.5999C16.1043 31.3999 17.1043 32.8999 17.3043 34.8999C17.5043 36.7999 17.8043 39.7999 17.9043 43.5999C17.9043 44.0999 17.9043 44.5999 17.9043 44.8999C17.9043 45.5999 17.9043 46.5999 18.0043 47.2999C18.1043 47.6999 17.9043 47.9999 17.5043 47.9999C17.1043 48.0999 16.8043 47.8999 16.8043 47.4999C16.7043 46.6999 16.7043 45.6999 16.7043 44.8999C16.7043 44.4999 16.7043 44.1999 16.7043 43.6999C16.7043 42.4999 16.6043 41.5999 16.6043 40.7999C16.4043 40.7999 16.0043 40.7999 15.4043 40.6999C14.7043 40.6999 14.2043 40.5999 14.0043 40.5999C13.9043 40.5999 13.9043 40.5999 13.9043 40.5999C14.0043 42.8999 14.0043 44.1999 14.0043 44.3999C14.1043 45.1999 14.1043 46.4999 13.9043 47.3999C13.8043 47.7999 13.5043 47.9999 13.2043 47.8999C12.8043 47.7999 12.6043 47.4999 12.7043 47.1999C12.6043 46.6999 12.6043 45.5999 12.6043 44.5999ZM13.7043 39.5999C13.8043 39.5999 13.8043 39.5999 13.9043 39.5999C14.5043 39.5999 16.0043 39.6999 16.4043 39.6999C16.3043 37.9999 16.2043 36.5999 15.9043 35.1999C15.7043 33.5999 15.2043 32.7999 14.0043 32.8999C13.8043 32.8999 13.6043 32.8999 13.6043 32.8999C13.6043 32.9999 13.5043 32.9999 13.5043 33.0999C13.4043 33.5999 13.4043 34.0999 13.4043 35.0999C13.4043 35.5999 13.4043 35.8999 13.4043 35.8999C13.6043 37.0999 13.6043 38.2999 13.7043 39.5999Z" fill="black"/>
<path d="M122.703 93.6002C122.703 94.5002 122.303 95.0002 121.903 95.7002L121.703 95.9002C121.303 96.7002 120.703 97.5002 120.103 98.1002C119.803 98.5002 118.203 101.1 118.103 101.4C116.503 104.6 115.203 107.1 113.203 110L113.103 110.1H113.003C112.403 110.3 111.703 110.4 110.903 110.4H110.603C105.303 110.2 99.9031 110.1 94.6031 110.1H94.2031L94.1031 109.9C93.9031 109.5 93.5031 109 93.3031 108.6C93.1031 108.2 92.9031 107.7 92.6031 107.3C91.9031 106.4 91.4031 105.3 90.7031 104.3C90.1031 103.3 89.6031 102.3 89.0031 101.4L84.7031 93.8002V93.6002C84.8031 92.7002 85.4031 92.0002 85.9031 91.4002C86.1031 91.2002 86.2031 91.0002 86.3031 90.7002C87.3031 89.3002 88.2031 87.7002 89.0031 86.0002L89.2031 85.4002C89.5031 84.6002 90.0031 83.7002 90.4031 83.0002C90.6031 82.8002 90.7031 82.6002 91.0031 82.3002C91.1031 82.1002 91.3031 81.9002 91.4031 81.7002C91.8031 81.0002 92.3031 80.4002 92.6031 79.6002C92.9031 78.9002 93.4031 78.3002 93.8031 77.6002L93.9031 77.4002H94.1031C100.303 77.3002 106.503 77.3002 112.603 77.5002H112.903L113.003 77.8002C113.103 78.2002 113.303 78.7002 113.403 79.0002C114.503 81.3002 115.803 83.2002 117.203 85.3002L117.903 86.2002C119.103 88.1002 120.603 90.3002 122.103 93.2002L122.703 93.6002Z" fill="white"/>
<path opacity="0.6" d="M122.703 93.6002C122.703 94.5002 122.303 95.0002 121.903 95.7002L121.703 95.9002C121.303 96.7002 120.703 97.5002 120.103 98.1002C119.803 98.5002 118.203 101.1 118.103 101.4C116.503 104.6 115.203 107.1 113.203 110L113.103 110.1H113.003C112.403 110.3 111.703 110.4 110.903 110.4H110.603C105.303 110.2 99.9031 110.1 94.6031 110.1H94.2031L94.1031 109.9C93.9031 109.5 93.5031 109 93.3031 108.6C93.1031 108.2 92.9031 107.7 92.6031 107.3C91.9031 106.4 91.4031 105.3 90.7031 104.3C90.1031 103.3 89.6031 102.3 89.0031 101.4L84.7031 93.8002V93.6002C84.8031 92.7002 85.4031 92.0002 85.9031 91.4002C86.1031 91.2002 86.2031 91.0002 86.3031 90.7002C87.3031 89.3002 88.2031 87.7002 89.0031 86.0002L89.2031 85.4002C89.5031 84.6002 90.0031 83.7002 90.4031 83.0002C90.6031 82.8002 90.7031 82.6002 91.0031 82.3002C91.1031 82.1002 91.3031 81.9002 91.4031 81.7002C91.8031 81.0002 92.3031 80.4002 92.6031 79.6002C92.9031 78.9002 93.4031 78.3002 93.8031 77.6002L93.9031 77.4002H94.1031C100.303 77.3002 106.503 77.3002 112.603 77.5002H112.903L113.003 77.8002C113.103 78.2002 113.303 78.7002 113.403 79.0002C114.503 81.3002 115.803 83.2002 117.203 85.3002L117.903 86.2002C119.103 88.1002 120.603 90.3002 122.103 93.2002L122.703 93.6002Z" fill="#ED7433"/>
<path opacity="0.8" d="M91.2035 85.2002C90.8035 86.0002 90.2035 86.6002 89.9035 87.4002C89.6035 88.1002 89.6035 88.8002 89.2035 89.5002C88.9035 90.3002 88.3035 90.9002 88.0035 91.6002C87.7035 92.3002 87.2035 93.3002 87.4035 94.0002C87.5035 94.7002 88.0035 95.1002 88.4035 95.6002C90.7035 98.5002 92.4035 101.8 93.9035 105.2C94.2035 105.8 94.5035 106.4 95.0035 106.9C95.4035 107.3 95.9035 107.7 96.4035 108C97.4035 108.6 98.4035 109.1 99.4035 109.4C98.0035 109.7 96.4035 109.8 95.0035 109.6C94.8035 109.6 94.6035 109.6 94.4035 109.5C94.2035 109.4 94.1035 109.2 94.0035 108.9C93.0035 106.7 91.9035 104.3 90.6035 102.2C88.9035 99.4002 86.8035 96.8002 85.7035 93.6002C85.6035 93.5002 85.6035 93.3002 85.6035 93.0002C85.6035 92.9002 85.7035 92.7002 85.7035 92.6002C85.9035 92.0002 86.3035 91.5002 86.5035 90.9002C86.7035 90.3002 87.1035 89.8002 87.4035 89.2002C87.7035 88.6002 88.0035 88.1002 88.3035 87.6002C88.6035 87.0002 88.9035 86.5002 89.2035 86.0002C89.5035 85.4002 89.9035 85.0002 90.2035 84.4002C90.5035 83.8002 90.9035 83.4002 91.2035 82.8002C91.5035 82.2002 91.9035 81.8002 92.2035 81.2002C92.3035 81.1002 92.4035 81.0002 92.4035 80.9002C92.4035 80.8002 92.5035 80.8002 92.5035 80.7002C92.5035 80.6002 92.6035 80.6002 92.6035 80.5002C92.7035 80.4002 92.7035 80.6002 92.7035 80.6002C92.7035 80.7002 92.7035 80.8002 92.6035 80.9002C92.5035 81.5002 92.3035 82.0002 92.0035 82.6002C91.8035 83.2002 91.6035 83.7002 91.2035 84.2002C91.4035 85.0002 91.3035 85.1002 91.2035 85.2002Z" fill="#ED7433"/>
<path d="M110.304 105.6C110.204 105.5 110.304 105.5 110.304 105.6C110.704 105.7 111.104 105.8 111.304 106C112.004 106.4 112.604 107.1 113.304 107.7C113.504 107.8 113.704 108 114.004 108.1C113.904 108.1 113.704 108.2 113.604 108.2C113.504 108.2 113.504 108.2 113.404 108.3C113.304 108.2 113.104 108 113.004 107.9C112.604 107.5 112.004 107 111.604 106.6C110.904 106.2 110.604 105.9 110.304 105.6Z" fill="black"/>
<path d="M96.5035 81.1001C96.5035 81.2001 96.5035 81.2001 96.5035 81.1001C96.2035 81.1001 95.9035 81.0001 95.7035 80.9001C95.1035 80.6001 94.6035 80.0001 94.0035 79.7001C93.9035 79.6001 93.7035 79.5001 93.6035 79.4001C93.6035 79.3001 93.6035 79.2001 93.7035 79.2001L93.8035 79.1001C93.9035 79.2001 94.1035 79.3001 94.2035 79.4001C94.6035 79.7001 95.1035 80.1001 95.4035 80.4001C95.8035 80.7001 96.2035 80.9001 96.5035 81.1001Z" fill="black"/>
<path d="M97.0035 80C97.1035 80.1 97.0035 80.1 97.0035 80C96.7035 80 96.4035 79.9 96.2035 79.8C95.6035 79.5 95.1035 78.9 94.5035 78.6C94.4035 78.5 94.2035 78.4 94.1035 78.3C94.2035 78.2 94.2035 78.2 94.3035 78.1L94.4035 78C94.5035 78.1 94.7035 78.2 94.8035 78.3C95.2035 78.6 95.7035 79 96.0035 79.3C96.3035 79.4 96.6035 79.8 97.0035 80Z" fill="black"/>
<path d="M109.504 106.6C109.504 106.5 109.504 106.5 109.504 106.6C109.904 106.7 110.304 106.8 110.504 107C111.204 107.4 111.804 108.1 112.504 108.7C112.704 108.8 112.904 109 113.204 109.1C113.104 109.1 112.904 109.2 112.804 109.2C112.704 109.2 112.704 109.2 112.604 109.3C112.504 109.2 112.304 109 112.204 108.9C111.804 108.5 111.204 108 110.804 107.6C110.304 107.2 109.804 106.9 109.504 106.6Z" fill="black"/>
<path d="M122.604 93.5C120.904 90.6 119.604 88.4 118.404 86.5L117.704 85.6C116.304 83.5 114.904 81.6 113.904 79.3C113.704 79 113.604 78.5 113.504 78.1L113.404 77.8H113.104C106.904 77.6 100.704 77.6 94.5043 77.7H94.2043L94.1043 77.9C93.7043 78.6 93.2043 79.2 92.9043 79.9C92.5043 80.6 92.1043 81.3 91.7043 82C91.6043 82.2 91.4043 82.4 91.3043 82.6C91.1043 82.8 91.0043 83 90.7043 83.3C90.1043 84.1 89.8043 84.9 89.5043 85.7L89.2043 86.1C88.4043 87.8 87.5043 89.3 86.5043 90.8C86.4043 91 86.2043 91.2 86.1043 91.5C85.5043 92.2 85.1043 92.8 84.9043 93.7V93.9L89.2043 101.5C89.8043 102.5 90.3043 103.5 90.9043 104.4C91.5043 105.3 92.0043 106.4 92.7043 107.4C92.9043 107.8 93.1043 108.3 93.4043 108.7C93.7043 109.1 93.8043 109.6 94.2043 110L94.3043 110.2H94.6043C99.9043 110.2 105.304 110.3 110.604 110.5H110.904C111.604 110.5 112.304 110.4 113.004 110.2H113.104L113.204 110.1C115.204 107.2 116.604 104.8 118.104 101.5C118.204 101.2 119.804 98.7 120.104 98.2C120.704 97.4 121.204 96.6 121.704 96L121.904 95.8C122.304 95.2 122.704 94.7 122.704 93.8V93.7V93.5H122.604ZM121.004 95.1L120.804 95.4C120.404 96.2 119.804 96.8 119.204 97.6C118.904 98 117.304 100.6 117.104 101C115.704 104.2 114.304 106.4 112.304 109.2C111.704 109.3 111.104 109.4 110.404 109.4C105.704 109.2 101.104 109.1 96.4043 109.1H94.6043C94.4043 108.8 94.3043 108.4 94.0043 108C93.7043 107.6 93.6043 107.1 93.2043 106.7C92.5043 105.7 92.0043 104.7 91.4043 103.7C90.8043 102.7 90.3043 101.7 89.7043 100.8L85.6043 93.6C85.7043 93 86.2043 92.6 86.6043 92C86.8043 91.8 86.9043 91.6 87.2043 91.3C88.2043 89.7 89.2043 88.2 89.9043 86.5L90.1043 85.9C90.4043 85.1 90.8043 84.3 91.2043 83.7C91.3043 83.5 91.5043 83.3 91.6043 83C91.7043 82.7 91.9043 82.6 92.0043 82.3C92.4043 81.6 92.9043 80.9 93.3043 80.2C93.6043 79.4 94.0043 78.9 94.4043 78.3C100.404 78.2 106.404 78.2 112.304 78.4C112.404 78.7 112.504 79.2 112.704 79.4C113.804 81.7 115.104 83.7 116.604 85.8L117.304 86.7C118.504 88.5 119.904 90.7 121.404 93.5C121.604 94.3 121.404 94.7 121.004 95.1Z" fill="black"/>
<path d="M98.5043 99.4999L98.3043 100.4H98.4043C99.0043 100.5 100.704 100.4 101.504 100.4C101.804 100.4 102.204 100.6 102.204 101C102.204 101.3 102.004 101.7 101.604 101.7C100.804 101.8 98.9043 101.8 98.4043 101.7C98.2043 101.7 98.1043 101.7 98.0043 101.7L97.8043 101.6C97.6043 101.5 97.4043 101.4 97.2043 101V100.8C97.2043 100.7 97.2043 100.6 97.2043 100.4C97.2043 100.2 97.3043 99.6999 97.4043 99.2999C97.4043 99.0999 97.5043 98.8999 97.5043 98.5999L97.6043 97.8999C97.6043 97.6999 97.7043 97.5999 97.7043 97.5999C98.3043 95.1999 99.0043 92.2999 100.104 88.7999C100.104 88.6999 100.204 88.4999 100.404 87.9999C100.504 87.7999 100.504 87.6999 100.504 87.5999C100.504 87.5999 100.504 87.5999 100.404 87.5999H100.204C100.104 87.5999 99.8043 87.5999 99.3043 87.5999C98.3043 87.5999 97.7043 87.5999 97.5043 87.5999C97.2043 87.5999 96.9043 87.2999 96.9043 86.8999C96.9043 86.7999 97.0043 86.5999 97.1043 86.4999C97.2043 86.3999 97.3043 86.3999 97.5043 86.3999C97.6043 86.3999 98.2043 86.3999 99.2043 86.3999C99.6043 86.3999 100.004 86.3999 100.204 86.3999C101.004 86.3999 101.504 86.4999 101.804 87.3999C101.904 87.6999 101.804 88.0999 101.604 88.4999C101.404 88.8999 101.304 89.1999 101.304 89.1999C100.204 92.4999 99.4043 95.3999 98.9043 97.8999C98.9043 97.8999 98.9043 97.9999 98.8043 98.1999C98.7043 98.3999 98.7043 98.5999 98.7043 98.8999C98.6043 98.9999 98.5043 99.1999 98.5043 99.4999Z" fill="black"/>
<path d="M106.305 90.8L106.405 91.7C106.805 91 108.005 89.9 109.105 90.6C109.405 90.8 109.805 91.3 109.905 91.8L110.005 92.5V92.6C110.005 92.7 110.005 92.7 110.005 92.8C110.005 92.9 110.005 92.9 110.005 92.9C110.305 94.5 110.305 96.1 110.205 98.3C110.305 99.5 110.305 100.3 110.305 100.7C110.305 101 110.105 101.3 109.705 101.3C109.305 101.3 109.105 101.1 109.105 100.7C109.105 100.1 109.105 99.3 109.205 98.3C109.305 96.2 109.305 94.7 109.005 93.2C109.005 93.2 108.905 92.4 108.805 92.2C108.605 91.5 108.505 91.4 108.005 91.9C107.705 92.1 107.405 92.5 107.305 92.7C106.605 94 106.705 95.7 106.905 97.1C106.905 97.8 106.905 98.3 106.905 98.5V99.4C106.905 99.8 106.905 100.3 106.805 100.4C106.705 100.6 106.605 100.8 106.205 100.8C105.805 100.8 105.805 100.6 105.605 100.5V100.4V100.3V100.2C105.605 100.1 105.605 100 105.605 99.9C105.505 99.1 105.505 98.9 105.505 97.9V96.9C105.505 94.1 105.405 92.1 105.205 91C105.105 90.7 105.405 90.3 105.805 90.3C105.905 90.2 106.305 90.6 106.305 90.8Z" fill="black"/>
<path d="M28.2032 110.9C27.8032 111.6 27.5032 112 27.1032 112.5C26.8032 112.8 26.5032 113.1 26.2032 113.2L25.9032 113.5C25.8032 113.6 25.6032 113.8 25.5032 113.9C25.1032 114.2 24.8032 114.6 24.4032 114.9C23.4032 115.5 22.3032 115.8 21.3032 116C20.4032 116.1 19.4032 116.4 18.6032 116.4C17.6032 116.4 16.6032 116.1 15.6032 116C14.5032 115.7 13.3032 115.4 12.2032 114.9C9.20319 113.5 7.60319 110.2 6.90319 107.8C6.60319 106.9 6.50319 106.4 6.50319 105.8C6.40319 104.7 6.40319 103.5 6.60319 102.2V102C6.70319 101.1 7.00319 100.4 7.30319 99.7C7.40319 99.3 7.70319 98.8 7.90319 98.4C8.00319 98.3 8.00319 98.1 8.20319 97.8C8.50319 97.2 8.90319 96.7 9.30319 96.1C9.70319 95.5 10.2032 95.1 10.7032 94.7C11.3032 94.3 11.8032 93.8 12.4032 93.6C14.3032 92.6 16.4032 92.2 18.8032 92C19.7032 92 20.4032 92 21.1032 92.1C24.9032 92.7 28.2032 95.5 29.6032 99.4C30.6032 103.1 30.2032 107.4 28.2032 110.9Z" fill="white"/>
<path opacity="0.25" d="M28.2032 110.9C27.8032 111.6 27.5032 112 27.1032 112.5C26.8032 112.8 26.5032 113.1 26.2032 113.2L25.9032 113.5C25.8032 113.6 25.6032 113.8 25.5032 113.9C25.1032 114.2 24.8032 114.6 24.4032 114.9C23.4032 115.5 22.3032 115.8 21.3032 116C20.4032 116.1 19.4032 116.4 18.6032 116.4C17.6032 116.4 16.6032 116.1 15.6032 116C14.5032 115.7 13.3032 115.4 12.2032 114.9C9.20319 113.5 7.60319 110.2 6.90319 107.8C6.60319 106.9 6.50319 106.4 6.50319 105.8C6.40319 104.7 6.40319 103.5 6.60319 102.2V102C6.70319 101.1 7.00319 100.4 7.30319 99.7C7.40319 99.3 7.70319 98.8 7.90319 98.4C8.00319 98.3 8.00319 98.1 8.20319 97.8C8.50319 97.2 8.90319 96.7 9.30319 96.1C9.70319 95.5 10.2032 95.1 10.7032 94.7C11.3032 94.3 11.8032 93.8 12.4032 93.6C14.3032 92.6 16.4032 92.2 18.8032 92C19.7032 92 20.4032 92 21.1032 92.1C24.9032 92.7 28.2032 95.5 29.6032 99.4C30.6032 103.1 30.2032 107.4 28.2032 110.9Z" fill="#F15748"/>
<path opacity="0.5" d="M8.30469 105.7C8.40469 106.1 8.40469 106.4 8.60469 106.8C8.70469 107.1 8.90469 107.2 9.00469 107.5C9.30469 107.9 9.40469 108.4 9.60469 108.8C9.70469 109.4 10.0047 109.8 10.3047 110.4C10.4047 110.8 10.7047 111.3 11.0047 111.5C11.3047 111.6 11.4047 111.9 11.7047 112.1C12.1047 112.4 12.7047 112.8 13.1047 113.1C13.4047 113.4 13.8047 113.5 14.2047 113.8C14.6047 113.9 15.1047 114.1 15.5047 114.2C17.6047 114.8 19.9047 115.1 22.1047 115.3C19.0047 115.6 15.8047 116 12.8047 115C12.4047 114.9 12.1047 114.7 11.8047 114.6C11.4047 114.3 11.1047 114 10.8047 113.7C10.4047 113.3 9.80469 112.7 9.40469 112.3C9.10469 112 8.80469 111.7 8.50469 111.3C8.20469 110.9 8.10469 110.4 7.90469 110C7.60469 109.1 7.30469 108.4 7.20469 107.6C7.10469 107.2 6.90469 106.9 6.90469 106.5C6.80469 105.9 6.80469 105.4 6.80469 104.8C6.80469 103.7 6.90469 102.5 7.20469 101.4C7.20469 101.3 7.20469 101.1 7.30469 101.1C7.40469 101.1 7.40469 101.1 7.40469 101.1C7.40469 101.2 7.40469 101.4 7.50469 101.5C7.50469 101.6 7.50469 101.8 7.60469 101.9C7.70469 102.5 7.90469 103 7.90469 103.6C8.00469 104.4 8.10469 105.1 8.30469 105.7Z" fill="#F15748"/>
<path d="M23.1039 97.9999C23.1039 97.9999 23.1039 98.0999 23.0039 98.0999C23.0039 97.9999 23.0039 97.9999 23.1039 97.9999C23.1039 97.5999 23.2039 97.2999 23.2039 96.9999C23.5039 96.2999 23.9039 95.6999 24.2039 94.9999C24.3039 94.8999 24.3039 94.5999 24.5039 94.3999C24.5039 94.4999 24.6039 94.6999 24.6039 94.6999L24.7039 94.7999C24.6039 94.8999 24.6039 95.0999 24.4039 95.1999C24.1039 95.5999 23.8039 96.1999 23.5039 96.5999C23.5039 97.2999 23.2039 97.4999 23.1039 97.9999Z" fill="black"/>
<path d="M24.1035 97.8002C24.8035 96.9002 25.5035 95.9002 25.8035 94.7002C25.1035 95.7002 24.4035 96.7002 24.1035 97.8002Z" fill="black"/>
<path d="M29.2042 99.5001C27.8042 95.6001 24.4042 92.8001 20.7042 92.2001C20.0042 92.1001 19.3042 92.1001 18.4042 92.1001C16.1042 92.1001 13.8042 92.7001 12.0042 93.7001C11.4042 94.0001 10.9042 94.4001 10.3042 94.8001C9.70423 95.2001 9.30423 95.7001 8.90423 96.2001C8.50423 96.8001 8.00423 97.3001 7.80423 97.9001C7.70423 98.0001 7.70423 98.2001 7.50423 98.5001C7.20423 98.9001 7.10423 99.4001 6.90423 99.8001C6.60423 100.5 6.50423 101.2 6.20423 102.1V102.4C5.90423 103.8 5.90423 105 6.10423 106C6.20423 106.6 6.40423 107.3 6.50423 108C7.20423 110.4 8.80423 113.7 11.8042 115.1C12.9042 115.7 14.1042 116 15.2042 116.2C16.2042 116.5 17.2042 116.6 18.2042 116.6C19.2042 116.6 20.1042 116.3 20.9042 116.2C21.9042 115.9 23.2042 115.8 24.0042 115.1C24.4042 114.8 24.9042 114.5 25.1042 114.1C25.2042 114 25.4042 113.8 25.5042 113.7L25.8042 113.4C26.1042 113.1 26.4042 113 26.7042 112.7C27.1042 112.3 27.4042 111.8 27.8042 111.1C30.2042 107.4 30.6042 103.1 29.2042 99.5001ZM27.5042 110.5C27.2042 111.1 26.8042 111.6 26.5042 111.9C26.2042 112.2 25.9042 112.3 25.6042 112.6L25.3042 112.9C25.2042 113 25.0042 113.2 24.9042 113.3C24.5042 113.6 24.2042 113.9 23.8042 114.2C22.9042 114.8 21.9042 115.1 20.8042 115.2C19.9042 115.3 19.1042 115.6 18.2042 115.6C17.2042 115.6 16.3042 115.5 15.4042 115.2C14.3042 114.9 13.1042 114.8 12.1042 114.2C9.40423 112.8 8.00423 109.9 7.30423 107.6C7.00423 106.9 6.90423 106.2 6.90423 105.6C6.80423 104.6 6.80423 103.5 7.00423 102.3V102C7.10423 101.3 7.40423 100.6 7.60423 100C7.70423 99.6001 8.00423 99.1001 8.20423 98.9001C8.30423 98.8001 8.30423 98.6001 8.50423 98.3001C8.80423 97.7001 9.10423 97.3001 9.50423 96.7001C9.90423 96.3001 10.4042 95.8001 10.8042 95.4001C11.2042 95.0001 11.8042 94.7001 12.4042 94.4001C14.1042 93.5001 16.1042 93.0001 18.4042 93.0001C19.1042 93.0001 19.8042 93.0001 20.5042 93.1001C24.1042 93.7001 27.1042 96.4001 28.5042 99.8001C29.6042 103.2 29.4042 107.2 27.5042 110.5Z" fill="black"/>
<path d="M12.8047 109.1C12.9047 108.5 12.8047 107.1 12.8047 106.4C12.8047 106.1 12.8047 105.7 12.7047 105.1C12.7047 104.5 12.6047 104 12.6047 103.7C12.5047 101.1 12.3047 99.1001 12.3047 98.1001C12.3047 97.8001 12.3047 97.5001 12.3047 97.4001C12.3047 97.1001 12.3047 96.8001 12.6047 96.7001C12.7047 96.6001 13.0047 96.6001 13.3047 96.6001H13.4047H13.5047C15.1047 96.6001 16.2047 97.7001 16.6047 99.0001C17.0047 100.3 16.7047 102 15.6047 103C16.9047 103.6 17.6047 104.7 17.6047 106.3C17.6047 107.4 17.2047 108.4 16.3047 108.9C15.4047 109.5 14.6047 109.8 13.7047 109.9C13.4047 109.9 13.3047 109.9 13.1047 109.6C13.0047 109.7 12.8047 109.4 12.8047 109.1ZM13.4047 97.5001C13.4047 97.6001 13.4047 97.8001 13.4047 98.1001C13.4047 99.0001 13.4047 101.1 13.5047 102.7H13.6047H13.9047C14.8047 102.7 15.0047 102.4 15.3047 101.8C15.4047 101.5 15.6047 101.2 15.6047 100.9C16.0047 99.3001 15.0047 97.7001 13.4047 97.5001C13.6047 97.7001 13.7047 97.7001 13.4047 97.5001ZM13.7047 103.7C13.7047 104 13.7047 104.4 13.8047 105C13.9047 106.1 13.9047 106.4 13.9047 107.6C13.9047 108.2 13.9047 108.6 13.9047 108.9C15.6047 108.6 16.7047 107.8 16.7047 106.3C16.7047 105.2 16.3047 104.4 15.4047 104C15.0047 103.9 14.5047 103.7 14.1047 103.6H14.0047C13.8047 103.8 13.7047 103.8 13.7047 103.7Z" fill="black"/>
<path d="M19.7047 104.2V104C19.7047 104 19.7047 104 19.7047 103.9C19.7047 103.9 19.7047 103.8 19.8047 103.8C19.9047 103.7 20.2047 103.7 20.4047 103.9V104C20.4047 104 20.4047 104.1 20.4047 104.3V104.9V105.6C20.4047 105.7 20.4047 105.7 20.4047 105.7C20.4047 105.8 20.4047 106.8 20.5047 108.6C20.5047 109.7 20.5047 110.7 20.5047 111.5C20.5047 111.6 20.4047 111.8 20.2047 111.8C20.1047 111.8 19.9047 111.7 19.9047 111.5C19.9047 110.8 20.0047 109.8 19.9047 108.6C19.9047 106.9 19.8047 106 19.8047 105.9L19.7047 106.2C19.7047 106.3 19.4047 106.5 19.3047 106.3C19.2047 106.3 19.0047 106 19.2047 105.9C19.3047 105.3 19.5047 104.9 19.6047 104.5C19.7047 104.7 19.7047 104.5 19.7047 104.2Z" fill="black"/>
<path d="M23.805 107.7L23.505 108.6C23.205 109.5 23.105 110 23.105 110.5C23.105 110.8 23.105 110.9 23.105 111.2C23.105 111.3 23.105 111.3 23.105 111.5C23.105 111.5 23.105 111.5 23.205 111.5C23.305 111.5 23.505 111.5 23.605 111.5C23.705 111.5 23.905 111.5 24.205 111.5C24.505 111.5 24.505 111.5 24.605 111.5C24.705 111.5 24.905 111.6 24.905 111.8C24.905 111.9 24.805 112.1 24.605 112.1C24.605 112.1 24.505 112.1 24.205 112.1C23.905 112.1 23.805 112.1 23.605 112.1C23.205 112.1 22.705 112.1 22.505 111.8C22.205 111.5 22.205 110.9 22.405 110.4C22.505 110 22.705 109.3 22.805 108.4C22.805 108.3 23.205 106.8 23.405 106.4C23.505 105.7 23.705 105.3 23.705 105.1C23.705 104.5 23.405 104.2 23.105 104.2C23.005 104.2 23.005 104.2 23.005 104.2V104.3C23.005 104.6 23.005 105 23.005 105.6C23.005 105.9 23.005 106 23.005 106C23.005 106.1 22.905 106.3 22.705 106.3C22.605 106.3 22.405 106.2 22.405 106C22.405 106 22.405 105.9 22.405 105.6C22.405 105 22.405 104.6 22.405 104.2C22.505 103.6 22.705 103.5 23.105 103.5C24.005 103.4 24.405 104.1 24.405 104.9C24.405 105.7 24.105 106.7 23.805 107.7Z" fill="black"/>
<path d="M163.705 31.1999C163.305 31.8999 162.805 32.4999 162.405 32.9999C162.005 33.3999 161.705 33.4999 161.505 33.8999L161.105 34.2999C160.905 34.4999 160.705 34.6999 160.605 34.6999C160.205 35.0999 159.705 35.3999 159.405 35.7999C158.305 36.4999 156.905 36.8999 155.805 37.0999C154.905 37.2999 153.805 37.4999 152.805 37.5999C151.705 37.5999 150.505 37.3999 149.605 37.0999C148.305 36.6999 146.905 36.5999 145.805 35.7999C142.405 34.1999 140.805 30.5999 139.905 27.8999C139.505 26.9999 139.405 26.2999 139.405 25.5999C139.205 24.2999 139.205 23.0999 139.605 21.6999V21.2999C139.805 20.3999 140.005 19.4999 140.305 18.7999C140.505 18.2999 140.705 17.8999 141.005 17.3999C141.205 17.1999 141.205 16.9999 141.405 16.8999C141.805 16.1999 142.105 15.5999 142.605 14.8999C143.105 14.3999 143.705 13.7999 144.205 13.2999C144.705 12.7999 145.405 12.3999 146.205 11.9999C148.205 10.8999 150.705 10.3999 153.305 10.3999C154.205 10.3999 155.105 10.3999 155.805 10.5999C160.105 11.2999 163.805 14.4999 165.305 18.6999C166.405 22.5999 165.905 27.1999 163.705 31.1999Z" fill="white"/>
<path opacity="0.6" d="M163.705 31.1999C163.305 31.8999 162.805 32.4999 162.405 32.9999C162.005 33.3999 161.705 33.4999 161.505 33.8999L161.105 34.2999C160.905 34.4999 160.705 34.6999 160.605 34.6999C160.205 35.0999 159.705 35.3999 159.405 35.7999C158.305 36.4999 156.905 36.8999 155.805 37.0999C154.905 37.2999 153.805 37.4999 152.805 37.5999C151.705 37.5999 150.505 37.3999 149.605 37.0999C148.305 36.6999 146.905 36.5999 145.805 35.7999C142.405 34.1999 140.805 30.5999 139.905 27.8999C139.505 26.9999 139.405 26.2999 139.405 25.5999C139.205 24.2999 139.205 23.0999 139.605 21.6999V21.2999C139.805 20.3999 140.005 19.4999 140.305 18.7999C140.505 18.2999 140.705 17.8999 141.005 17.3999C141.205 17.1999 141.205 16.9999 141.405 16.8999C141.805 16.1999 142.105 15.5999 142.605 14.8999C143.105 14.3999 143.705 13.7999 144.205 13.2999C144.705 12.7999 145.405 12.3999 146.205 11.9999C148.205 10.8999 150.705 10.3999 153.305 10.3999C154.205 10.3999 155.105 10.3999 155.805 10.5999C160.105 11.2999 163.805 14.4999 165.305 18.6999C166.405 22.5999 165.905 27.1999 163.705 31.1999Z" fill="#F7BE45"/>
<path d="M141.603 25.4C141.603 25.8 141.803 26.3001 142.003 26.7001C142.203 27.1001 142.403 27.2 142.503 27.6C142.703 28.1 142.903 28.5 143.003 29C143.203 29.5 143.503 30.1 143.703 30.6C143.903 31.1 144.203 31.5 144.603 31.9C144.803 32.1 145.103 32.3001 145.303 32.4001C145.803 32.8001 146.403 33.1 146.903 33.5C147.303 33.9 147.603 34.0001 148.203 34.2001C148.603 34.4001 149.103 34.6 149.603 34.6C151.903 35.1 154.403 35.5001 156.903 35.9001C153.503 36.3001 149.903 36.6 146.503 35.5C146.103 35.3 145.603 35.1 145.303 35C144.903 34.8 144.603 34.5 144.203 34.1C143.703 33.6 143.103 33 142.603 32.5C142.203 32.1 141.903 31.8 141.703 31.4C141.303 30.9 141.303 30.5 141.203 30C140.803 29.1 140.703 28.2 140.303 27.3C140.103 26.9 140.103 26.6 139.903 26C139.703 25.5 139.703 24.7 139.703 24C139.703 22.7 139.903 21.5001 140.203 20.2001C140.203 20.0001 140.203 19.8 140.403 19.8H140.603C140.603 20 140.603 20.2 140.603 20.3C140.603 20.5 140.603 20.7 140.603 20.8C140.803 21.5 140.803 22.1 141.003 22.8C141.203 24 141.403 24.7 141.603 25.4Z" fill="#F7BE45"/>
<path d="M157.804 31.2C157.804 31.2 157.604 31.2 157.804 31.2C157.604 31.2 157.804 31.2 157.804 31.2C158.204 31.2 158.504 31.4 158.904 31.7C159.604 32.2 160.204 32.7999 160.904 33.2999C161.104 33.4999 161.304 33.7 161.404 33.7C161.204 33.7 161.004 33.9 161.004 33.9H160.804C160.604 33.7 160.404 33.5 160.304 33.5C159.804 33.1 159.404 32.6 158.904 32.2C158.504 31.9 158.204 31.5 157.804 31.2Z" fill="black"/>
<path d="M157.104 32C158.004 33.1 158.704 34.1 160.004 34.5C159.104 33.7 158.204 32.8 157.104 32Z" fill="black"/>
<path d="M164.805 18.6C163.205 14.3 159.405 11.1 155.305 10.5C154.605 10.3 153.705 10.3 152.805 10.3C150.105 10.3 147.805 10.8 145.705 11.9C145.005 12.3 144.405 12.6 143.705 13.2C143.205 13.7 142.605 14.3 142.105 14.8C141.605 15.3 141.205 16.1 140.905 16.8C140.705 17 140.705 17.2 140.505 17.3C140.305 17.7 140.005 18.2 139.805 18.7C139.405 19.4 139.305 20.3 139.105 21.2V21.6C138.705 23 138.705 24.5 138.905 25.5C138.905 26.2 139.105 26.9 139.405 27.8C140.305 30.5 141.905 34.1 145.305 35.7001C146.605 36.2001 147.805 36.6 149.105 37C150.205 37.2001 151.205 37.5 152.305 37.5C153.405 37.5 154.405 37.3 155.305 37C156.405 36.8 157.805 36.5 158.905 35.7001C159.405 35.3001 159.805 35 160.105 34.6C160.305 34.4 160.505 34.2001 160.605 34.2001L161.005 33.8C161.405 33.4 161.705 33.3001 161.905 32.9001C162.305 32.4001 162.805 31.8 163.205 31.1C165.905 27.2 166.405 22.6 164.805 18.6ZM162.805 30.8C162.405 31.5 162.105 32.1001 161.705 32.4001C161.305 32.8001 161.205 32.9 160.805 33.1L160.405 33.5C160.205 33.7001 160.005 33.9001 159.905 33.9001C159.505 34.3001 159.205 34.6 158.705 34.8C157.805 35.3 156.605 35.7001 155.505 35.9001C154.605 36.1001 153.505 36.3 152.605 36.3C151.505 36.3 150.505 36.1 149.405 35.8C148.105 35.4 146.905 35.3001 145.805 34.7001C142.805 33.3001 141.205 29.9 140.405 27.4C140.005 26.5 140.005 26 139.905 25.3C139.705 24.2 139.905 23 140.105 21.5V21C140.305 20.1 140.505 19.4 140.805 18.7C141.005 18.2 141.205 17.8 141.505 17.4C141.705 17.2 141.705 17 141.905 16.9C142.305 16.4 142.605 15.6 143.005 15.1C143.405 14.6 143.905 14 144.405 13.7C144.905 13.3 145.505 12.8 146.205 12.6C148.005 11.5 150.305 11 152.805 11C153.705 11 154.405 11 155.105 11.2C159.005 11.9 162.405 14.8 163.905 18.7C165.405 22.6 165.005 27 162.805 30.8Z" fill="black"/>
<path d="M153.903 21C154.103 19.4 153.203 18.1 152.303 17.6C151.603 17.2 150.903 17.6 150.703 19C150.503 21.3 150.703 27.4 151.403 28.8C151.603 29.3 151.903 29.7 152.503 29.9C153.203 30.3 153.603 29.9 153.703 29.2C153.903 28.7 154.103 27.8 154.103 26.5C154.103 26.1 154.303 26 154.603 26C155.003 26 155.103 26.2 155.103 26.5C155.103 27.8 154.903 28.8 154.703 29.5C154.203 30.8 153.303 31.5 151.803 30.9C151.103 30.5 150.603 30 150.203 29.3C149.503 27.7 149.103 21.2 149.303 18.9C149.503 16.8 150.903 15.9 152.503 16.6C153.903 17.1 154.803 18.9 154.603 21.1C154.603 21.5 154.203 21.6 154.103 21.6C154.103 21.5 153.903 21.3 153.903 21Z" fill="black"/>
</svg>
