<svg width="135" height="222" viewBox="0 0 135 222" fill="none" xmlns="http://www.w3.org/2000/svg">
<path d="M13.5178 110.151C9.13779 117.201 4.67778 124.411 2.82778 132.501C0.967784 140.591 2.14778 149.851 7.89778 155.841C11.9278 160.031 17.9178 162.391 20.7678 167.461C22.4878 170.511 22.8078 174.131 23.0978 177.621C23.4578 182.081 23.8278 186.531 24.1878 190.991C24.3578 193.091 24.5578 195.281 25.6578 197.081C26.9078 199.131 29.1278 200.361 31.3278 201.301C45.5978 207.411 61.9178 204.801 77.3278 206.621C83.4178 207.341 89.8878 209.051 93.7578 213.801C94.9978 215.321 95.9178 217.101 97.3578 218.431C100.928 221.721 106.448 221.311 111.268 220.681C115.298 220.161 119.688 219.461 122.418 216.451C124.098 214.601 124.888 212.121 125.538 209.711C129.008 196.861 129.888 183.471 130.728 170.191C131.618 156.111 132.478 141.961 131.068 127.931C129.658 113.901 125.868 99.8613 118.138 88.0713C116.128 85.0113 113.758 81.7713 113.978 78.1213C114.138 75.4013 115.728 73.0113 117.148 70.6813C121.238 64.0213 124.468 56.5213 124.458 48.7013C124.448 38.6813 119.218 29.5013 114.148 20.8613C111.868 16.9713 109.438 12.9313 105.598 10.5713C102.948 8.93129 99.8378 8.24128 96.7778 7.63128C91.0778 6.51128 85.2978 5.62129 79.4878 5.70129C70.9278 5.82129 62.5578 8.03129 54.2778 10.2313C50.6778 11.1913 47.0278 12.1613 43.7478 13.9313C33.9378 19.2313 29.1778 30.4613 25.2678 40.8913C23.5978 45.3413 21.9178 50.0513 22.6578 54.7513C23.3978 59.4513 27.4378 64.0013 32.1678 63.5113C36.5178 63.0613 41.2178 58.8313 44.5478 61.6713C48.5978 65.1213 45.7178 72.3113 42.8878 75.5613C40.5478 78.2413 36.9778 79.4313 34.3578 81.8213C25.7678 89.6213 19.5878 100.381 13.5178 110.151Z" fill="white"/>
<path d="M26.1878 163.351C24.5478 163.871 22.8478 164.351 21.1278 164.251C17.4478 164.031 14.5078 161.231 11.9278 158.591C8.86776 155.471 5.55776 151.511 6.60776 147.281C12.1778 147.251 17.2278 150.371 22.6278 151.721C26.2378 152.621 36.7978 151.401 38.0478 156.001C39.3378 160.821 29.4978 162.271 26.1878 163.351Z" fill="#BBBBBA"/>
<path d="M95.3773 56.6913C95.1073 58.1213 94.8873 59.6013 95.1273 61.0413C95.4273 62.8013 96.4273 64.3613 97.4173 65.8613C98.8473 68.0213 100.347 70.1813 102.377 71.7813C104.407 73.3813 107.077 74.3613 109.607 73.8113C110.237 73.6713 110.857 73.4413 111.367 73.0513C111.817 72.7113 112.157 72.2613 112.477 71.7913C115.177 67.7413 115.157 62.2913 113.327 57.7813C111.717 53.7813 106.577 45.7813 101.947 44.8413C96.4073 43.7013 96.0973 52.7913 95.3773 56.6913Z" fill="#BBBBBA"/>
<path d="M34.4776 66.2111C32.6176 66.3411 30.7976 65.4211 29.5176 64.0711C28.2376 62.7211 27.4576 60.9711 26.9276 59.1811C25.1376 53.1811 26.0876 46.4211 29.4576 41.1411C30.6376 42.8811 31.0876 44.9911 31.6376 47.0211C32.2376 49.2211 32.9876 51.4111 34.2876 53.2911C36.2676 56.1611 42.4076 56.5711 43.1576 59.3711C44.0476 62.6611 37.0576 66.0311 34.4776 66.2111Z" fill="#BBBBBA"/>
<path d="M72.8971 84.5414C77.8371 82.2314 82.9871 79.3314 85.6371 73.8514C88.1671 68.6214 88.0771 61.6814 91.4271 57.1914C93.3371 59.6914 93.9071 63.3014 93.5871 66.6014C93.2671 69.9014 92.1471 72.9714 91.0471 76.0014C90.0271 78.8014 89.0071 81.6114 87.9871 84.4114C86.7971 87.6914 85.5771 91.0114 83.6971 93.7714C80.8671 97.9214 76.5571 100.551 72.0371 100.911C68.6071 101.181 60.5171 100.021 60.6571 94.1614C60.7871 88.6114 69.5071 86.1314 72.8971 84.5414Z" fill="#BBBBBA"/>
<path d="M44.667 156.471C45.467 158.011 47.147 158.941 48.847 159.211C50.557 159.491 52.307 159.201 53.987 158.821C56.967 158.151 59.887 157.201 62.697 155.971C64.177 155.331 65.657 154.581 66.697 153.341C67.737 152.101 68.207 150.271 67.447 148.851C66.257 147.691 64.477 147.351 62.817 147.441C60.147 147.581 57.657 148.391 54.957 148.231C52.897 148.111 50.437 146.911 48.367 147.251C44.497 147.921 42.847 152.951 44.667 156.471Z" fill="#BBBBBA"/>
<path d="M28.3978 130.231C28.8178 129.381 29.2878 128.521 30.0178 127.931C31.8078 126.501 34.3978 127.121 36.6978 127.191C44.0878 127.401 50.7177 121.061 58.0477 122.061C61.5477 122.541 64.5877 124.651 67.4677 126.701C69.9077 128.431 72.4678 130.331 73.4978 133.131C71.3778 134.661 68.6577 132.561 66.3277 131.371C62.6977 129.521 58.3378 129.991 54.3378 130.781C45.6678 132.501 37.2578 135.501 29.4578 139.651C20.0378 144.671 26.8378 133.381 28.3978 130.231Z" fill="#BBBBBA"/>
<path d="M67.5068 41.5211C67.4768 42.0311 67.4268 42.5811 67.1168 42.9811C66.4568 43.8211 65.1568 43.5211 64.1268 43.2311C61.1868 42.3911 58.0668 42.2011 55.0468 42.6811C53.1068 42.9911 50.8168 43.4711 49.4168 42.0911C48.5268 41.2111 48.3468 39.8711 48.2168 38.6311C53.3868 38.7111 58.5668 38.1311 63.5868 36.9011C64.0068 36.8011 64.4468 36.6811 64.7668 36.3811C65.0268 36.1311 65.1768 35.7911 65.3168 35.4511C66.0168 33.7911 67.1368 30.7911 67.7068 33.9111C68.1368 36.2411 67.6468 39.1511 67.5068 41.5211Z" fill="#BBBBBA"/>
<path d="M74.527 42.1611C77.127 42.0711 79.677 42.7711 82.227 43.2711C86.867 44.1711 91.627 44.4211 96.337 44.0011C96.547 43.9811 96.767 43.9611 96.957 43.8611C97.637 43.5011 97.447 42.3811 96.797 41.9611C96.157 41.5411 95.327 41.6111 94.557 41.6611C90.087 41.9611 85.557 41.2211 81.397 39.5611C77.347 37.9311 73.997 35.7411 74.527 42.1611Z" fill="#BBBBBA"/>
<path d="M53.4273 30.4611C53.9244 30.4611 54.3273 30.0582 54.3273 29.5611C54.3273 29.0641 53.9244 28.6611 53.4273 28.6611C52.9303 28.6611 52.5273 29.0641 52.5273 29.5611C52.5273 30.0582 52.9303 30.4611 53.4273 30.4611Z" fill="white"/>
<path d="M86.357 33.4514C86.8541 33.4514 87.257 33.0484 87.257 32.5514C87.257 32.0543 86.8541 31.6514 86.357 31.6514C85.86 31.6514 85.457 32.0543 85.457 32.5514C85.457 33.0484 85.86 33.4514 86.357 33.4514Z" fill="white"/>
<path d="M58.3975 51.951C60.0575 51.511 62.2375 51.611 63.9175 51.941" stroke="white" stroke-miterlimit="10" stroke-linecap="round" stroke-linejoin="round"/>
<path d="M73.1176 148.351C72.4776 151.801 72.1776 155.321 71.4676 158.741C70.2076 164.781 68.3476 170.631 65.1076 175.961C64.7776 176.501 64.6876 177.191 64.3276 177.691C64.0876 178.021 63.5676 178.281 63.1676 178.311C62.9176 178.321 62.5376 177.871 62.3976 177.551C62.0976 176.901 61.9176 176.201 61.6876 175.521C59.6376 169.401 57.3976 163.331 55.5976 157.131C53.9976 151.611 53.2776 145.911 52.7276 140.171C52.2176 134.861 53.0676 129.681 53.3876 124.431C53.6676 119.701 54.6576 115.131 56.1376 110.651C57.1576 107.561 58.1376 104.431 59.3676 101.421C59.8876 100.151 60.9976 99.1211 61.9976 97.7811C58.5576 95.6011 58.4676 92.2511 58.5376 88.7011L60.5176 88.4711L68.7476 87.4811H68.7776C69.5076 87.4011 69.9676 87.8411 70.2876 88.3511C71.6576 90.5111 72.8376 92.8411 71.1976 95.2711C69.3976 97.9311 70.1776 100.281 71.3076 102.871C73.8976 108.781 75.5776 114.901 75.2076 121.461C75.0776 123.761 75.1676 126.091 75.2676 128.401C75.5476 135.171 74.3376 141.751 73.1176 148.351Z" fill="#EA574A"/>
<path d="M75.2676 128.401C75.1676 126.091 75.0776 123.761 75.2076 121.461C75.5776 114.901 73.8976 108.781 71.3076 102.871C70.1776 100.281 69.3976 97.9311 71.1976 95.2711C72.8376 92.8411 71.6576 90.5111 70.2876 88.3511C69.9676 87.8411 69.5076 87.4011 68.7776 87.4811H68.7476C68.5676 87.5111 68.3576 87.5611 68.1276 87.6611C69.6676 89.1511 70.2376 90.9511 70.4976 92.8511C70.7076 94.3611 70.3876 95.9111 69.1276 96.7211C67.6976 97.6411 65.9576 97.7911 64.2776 97.1811C64.0176 97.0811 63.6676 96.7711 63.6576 96.5411C63.5976 95.3811 62.6276 95.0111 61.9376 94.3811C60.6176 93.1811 59.6876 91.8711 60.7276 89.9811C60.9376 89.6111 60.8476 89.0811 60.9076 88.5511C60.7776 88.5211 60.6476 88.4911 60.5176 88.4711C59.8576 88.3211 59.2476 88.2011 58.5476 88.0511C58.5476 88.2711 58.5376 88.4911 58.5376 88.7011C58.4676 92.2511 58.5576 95.6011 61.9976 97.7811C60.9976 99.1211 59.8876 100.151 59.3676 101.421C58.1376 104.431 57.1576 107.561 56.1376 110.651C54.6576 115.131 53.6676 119.701 53.3876 124.431C53.0676 129.681 52.2176 134.861 52.7276 140.171C53.2776 145.911 53.9976 151.611 55.5976 157.131C57.3976 163.331 59.6376 169.401 61.6876 175.521C61.9176 176.201 62.0976 176.901 62.3976 177.551C62.5376 177.871 62.9176 178.321 63.1676 178.311C63.5676 178.281 64.0876 178.021 64.3276 177.691C64.6876 177.191 64.7776 176.501 65.1076 175.961C68.3476 170.631 70.2076 164.781 71.4676 158.741C72.1776 155.321 72.4776 151.801 73.1176 148.351C74.3376 141.751 75.5476 135.171 75.2676 128.401ZM74.0176 133.251C73.7076 137.701 72.9376 142.111 72.2876 146.531C71.7676 150.001 71.1676 153.461 70.5376 156.911C69.4276 162.991 67.6976 168.871 64.6176 174.281C64.5076 174.471 64.2876 174.611 64.0276 174.861C63.8076 174.601 63.5476 174.411 63.4476 174.161C60.5076 166.401 58.3476 158.381 56.3976 150.331C55.5576 146.871 55.3876 143.231 55.1376 139.651C55.0576 138.661 55.7476 137.621 56.0876 136.601C55.5176 136.551 55.1076 136.371 55.0276 135.661C54.8776 134.401 55.1276 133.371 56.0376 131.941C55.6776 131.451 55.0776 130.981 55.1476 130.651C55.6076 128.361 55.1076 126.041 55.5276 123.761C56.1076 120.541 56.4076 117.271 57.2276 114.121C58.2176 110.271 59.5076 106.481 60.9176 102.751C61.4276 101.401 62.5976 100.281 63.5576 99.1311C63.8076 98.8311 64.3976 98.7311 64.8376 98.7011C65.8776 98.6411 66.9076 98.6811 68.2676 98.6811C69.5476 102.091 70.7976 105.601 72.1676 109.061C73.7276 113.001 74.0476 117.091 74.0076 121.271C73.9676 125.271 74.2976 129.281 74.0176 133.251Z" fill="black"/>
<path d="M49.0371 132.061L59.2871 130.521L59.4771 127.121L71.9071 130.111L72.8971 127.121L93.9371 128.931L112.147 130.641L115.557 191.651L87.1271 206.181L36.1671 198.601L30.4971 172.571L49.0371 132.841" fill="white"/>
<path d="M100.107 75.3614C100.877 76.3714 101.397 77.4914 101.707 78.6914C101.927 77.8114 102.127 76.9214 102.297 76.0114C102.397 75.4614 102.147 74.8514 102.047 74.2614C101.467 74.1614 100.897 74.0614 100.237 73.9414C100.187 74.4814 100.147 74.9314 100.107 75.3614Z" fill="black"/>
<path d="M42.2474 157.661C37.7774 159.841 33.4574 161.951 29.0774 164.091C28.7574 163.581 28.4074 163.001 28.0674 162.451C24.6274 163.941 23.7674 164.181 22.1974 163.881C18.9674 163.261 15.8274 162.301 12.9474 160.691C11.3874 159.821 9.94735 158.721 8.24735 157.581C9.65735 156.321 10.7874 155.301 11.9174 154.291L11.6774 153.981C10.3274 154.891 8.96735 155.791 7.55735 156.741C6.97735 156.221 6.45735 155.761 6.03735 155.391C6.56735 154.691 7.00736 154.121 7.43736 153.541C6.66736 153.791 5.89735 154.031 5.06735 154.301C4.77735 153.891 4.43735 153.541 4.24735 153.121C3.01735 150.381 1.71735 147.751 2.35735 144.481C2.85735 141.941 2.45735 139.241 2.73735 136.641C3.24735 131.791 5.10736 127.381 7.69736 123.281C9.52736 120.391 11.5374 117.611 13.3574 114.701C18.1874 106.981 23.0074 99.2612 28.4874 91.9812C29.0874 91.1812 29.7374 90.4212 30.6474 89.2712C31.3874 91.9712 30.9874 94.3212 31.4574 96.5112C31.6474 96.5012 31.8374 96.4912 32.0274 96.4712C32.2474 94.1512 32.4674 91.8212 32.6874 89.5012L33.1273 89.4112C33.5974 91.1412 34.0574 92.8712 34.5274 94.6112C34.6774 94.5912 34.8274 94.5712 34.9874 94.5512C35.1874 93.4712 35.3873 92.3812 35.6273 91.1112C36.2774 91.8512 36.7374 92.3612 37.5274 93.2512C36.9374 90.8712 36.4874 89.0312 36.0274 87.1912C35.8773 87.2012 35.7374 87.2112 35.5874 87.2212C35.2574 88.2912 34.9374 89.3512 34.6074 90.4212C33.9774 89.3512 33.6374 88.3012 33.4774 87.2212C33.3974 86.7212 33.4974 86.0212 33.7974 85.6612C35.0174 84.2112 36.3674 82.8812 38.0174 81.8012C38.1774 81.1812 48.9674 71.9912 49.1374 71.3712C48.1074 70.9812 36.6174 79.9912 35.8374 80.9212C35.1774 81.7112 34.3074 82.3112 33.5674 83.0412C30.2074 86.3412 26.8573 89.6512 24.5574 93.8612C23.8773 95.1112 22.9674 96.2512 22.1074 97.4012C20.8774 99.0512 19.4774 100.601 18.3474 102.321C16.4274 105.251 14.6674 108.281 12.8274 111.251C11.5274 113.351 10.2174 115.451 8.84735 117.501C8.37735 118.211 7.80736 119.031 7.08736 119.351C6.12736 119.771 5.82736 120.411 5.54736 121.281C5.16736 122.411 4.57736 123.471 4.15736 124.591C3.17736 127.201 1.92735 129.771 1.37735 132.471C0.61735 136.211 0.117355 140.051 0.00735512 143.861C-0.112645 148.021 1.23736 151.851 3.93736 155.161C6.72736 158.591 10.2074 161.071 14.1374 162.941C17.1074 164.351 20.1874 165.541 23.5474 165.441C24.8574 165.401 25.8673 165.551 26.3074 167.011C29.5774 166.061 32.0974 164.011 34.9574 162.661C37.3773 161.511 39.7774 160.251 42.4274 159.401C42.3474 158.821 42.2874 158.241 42.2474 157.661Z" fill="black"/>
<path d="M74.6371 136.031C74.5171 135.991 74.4071 135.941 74.2871 135.891C73.8571 135.731 73.4971 135.131 73.2871 134.651C72.6371 133.181 71.5571 132.201 70.1671 131.471C66.6971 129.641 62.8871 129.361 59.1971 129.811C54.8571 130.341 50.5871 131.531 46.3271 132.591C44.5871 133.021 42.9071 133.811 41.5371 135.131C42.4071 135.851 42.3871 135.811 44.7971 134.791C45.9671 134.301 47.2171 134.001 48.4471 133.651C49.7571 133.281 51.0671 132.941 52.3971 132.631C53.5971 132.341 54.7971 132.101 56.1071 131.821C56.0671 132.381 56.0571 132.621 56.0471 132.841C57.2771 132.881 57.8171 130.891 59.4871 131.781C57.9671 133.521 55.9871 134.831 55.3071 137.111C56.8071 135.711 58.1271 134.151 59.6371 132.801C60.3471 132.161 61.4471 131.591 62.3571 131.611C64.1771 131.641 66.0471 131.881 67.7871 132.411C71.5471 133.571 72.8971 136.411 71.9871 140.061C70.4271 146.281 60.5171 150.101 56.2071 148.231C54.3771 147.431 52.5071 146.721 50.7171 145.841C50.0471 145.511 49.5471 144.811 49.0071 144.251C48.7071 143.931 48.4771 143.541 48.1771 143.151C47.3271 144.301 47.2971 144.321 47.4471 144.821C47.8671 146.231 48.8471 147.121 50.1771 147.641C51.9571 148.341 53.7171 149.131 55.5471 149.681C56.7471 150.041 58.0471 150.151 59.3071 150.221C62.3271 150.391 64.8471 148.901 67.4071 147.581C70.0071 146.241 71.7671 144.091 73.0471 141.561C73.5971 140.471 73.7071 139.161 74.0771 137.751C74.2571 137.811 74.4271 137.881 74.6071 137.941C74.5871 137.301 74.5971 136.671 74.6371 136.031Z" fill="black"/>
<path d="M133.637 173.131C133.617 172.341 133.637 171.511 133.847 170.751C134.737 167.471 134.087 164.251 133.537 161.021C132.957 157.641 132.357 154.271 131.787 150.891C131.757 150.691 131.897 150.461 131.997 150.121C132.527 150.341 133.007 150.541 133.777 150.861C133.877 150.021 134.087 149.351 134.017 148.721C133.817 146.981 133.427 145.251 133.227 143.511C132.297 135.481 131.077 127.521 128.317 119.871C127.967 118.891 127.877 117.811 127.607 116.501C128.557 116.741 129.087 116.881 129.617 116.991C130.127 117.101 130.647 117.181 131.277 117.291C131.667 115.341 130.797 113.841 130.137 112.381C127.837 107.291 125.417 102.251 123.027 97.1908C120.327 91.4908 117.597 85.8107 114.907 80.1007C114.627 79.5107 114.497 78.8507 114.227 77.9807C115.157 78.0907 115.707 78.1207 116.227 78.2307C118.387 78.6707 118.587 78.4607 118.537 76.3507C118.497 74.5207 118.557 72.6807 118.717 70.8607C119.167 65.7107 122.067 61.4207 123.767 56.7107C123.907 56.3207 124.337 55.8807 124.727 55.7607C126.597 55.1907 127.297 53.6408 127.787 52.0308C129.027 47.9207 128.537 43.9607 126.367 40.2607C124.467 37.0307 122.377 33.9108 120.547 30.6408C117.517 25.2008 114.657 19.6607 111.647 14.2107C110.967 12.9707 110.027 11.8407 109.057 10.8007C108.167 9.85074 107.067 9.27074 105.607 9.66074C105.097 9.80074 104.317 9.61075 103.887 9.28075C100.467 6.71075 96.5674 5.06075 92.6474 3.48075C88.6774 1.88075 84.3674 1.47074 80.2274 0.52074C73.7774 -0.94926 67.5273 0.830741 61.8473 4.13074C59.0973 5.73074 56.5874 7.74074 54.0374 9.66074C53.1774 10.3107 52.4873 10.6407 51.4673 10.0507C49.7773 9.08074 47.9674 9.29075 46.4074 10.1707C44.1974 11.4107 42.0073 12.7707 40.0573 14.3807C36.1273 17.6207 33.6073 22.0807 30.5273 26.0407C29.4573 27.4207 28.8873 29.1807 27.9573 31.0207H31.4173C30.9573 32.0407 30.5674 32.8808 30.1874 33.7208C27.8774 38.7708 25.0773 43.5908 24.8473 49.4408C24.6473 54.5908 24.8573 59.4808 27.9573 63.8608C29.2273 65.6507 33.1674 67.4807 35.2574 66.9607C37.7974 66.3307 40.0274 65.1407 41.4074 62.7607C42.1274 61.5207 42.8473 60.2707 43.5273 59.0107C43.7174 58.6707 43.7673 58.2507 43.8874 57.8707C43.2474 58.0107 42.8974 58.3107 42.5874 58.6507C41.0174 60.3507 39.5574 62.1707 37.8574 63.7307C36.0074 65.4408 31.7973 65.5307 30.1273 63.7707C28.1373 61.6707 27.1674 58.9707 26.6174 55.8908C29.2474 55.1608 31.5874 54.5007 33.9274 53.8507C33.8974 53.7307 33.8773 53.6107 33.8473 53.4907C31.5173 53.8407 29.1874 54.1807 26.9074 54.5207C26.1074 53.0307 26.6173 52.2007 27.8873 51.7407C28.7073 51.4407 29.5474 51.1808 30.4074 51.0008C31.5974 50.7508 32.8074 50.6007 34.0074 50.4107C31.5374 49.4807 29.2374 50.7207 26.6974 50.8107C26.6974 50.1208 26.6573 49.5707 26.7073 49.0407C26.9873 45.7407 27.9174 42.6208 29.3574 39.6408C30.5774 37.1208 31.8074 34.6107 32.9274 32.0507C33.8774 29.8807 33.5474 29.1507 31.2574 28.1307C32.0074 26.8907 32.6574 25.6107 33.5074 24.4907C35.2874 22.1307 37.0374 19.7307 39.0474 17.5707C41.5574 14.8907 44.3074 12.4107 47.9474 11.2607C49.0374 10.9207 50.1174 10.6508 51.2474 11.5808C51.1574 12.6308 50.9474 13.8607 52.3874 14.6807C52.8274 14.2007 53.2173 13.7307 53.6573 13.3107C55.2473 11.7507 56.7474 10.0808 58.4774 8.69075C62.2674 5.63075 66.6673 3.66075 71.3773 2.64075C73.7473 2.12075 76.3474 2.05074 78.7274 2.46074C80.1774 2.71074 81.6374 3.12075 83.1374 3.17075C86.6974 3.29075 90.0974 4.17075 93.3974 5.39075C95.2374 6.07075 96.9473 7.11075 98.9073 8.08075C98.2673 8.79075 97.8174 9.29075 97.3773 9.78075C97.7573 9.63075 98.1474 9.50074 98.4874 9.30074C99.9574 8.43074 100.017 8.43075 101.227 9.97075C101.967 10.1408 102.697 10.3007 103.477 10.4807C103.347 11.4807 103.247 12.2407 103.087 13.4107C103.887 12.8107 104.357 12.4307 104.857 12.0907C106.427 11.0107 107.317 11.1307 108.577 12.6207C109.037 13.1707 109.467 13.7608 109.797 14.3908C110.857 16.3608 111.797 18.4007 112.907 20.3407C116.807 27.1307 120.767 33.8807 124.677 40.6607C126.407 43.6607 127.147 46.8907 126.487 50.3407C126.307 51.2707 126.077 52.3008 125.517 53.0008C125.157 53.4508 124.157 53.3907 123.617 53.5207C122.297 56.6107 121.127 59.5808 119.767 62.4708C118.047 66.1408 116.757 69.8708 116.997 74.0007C117.037 74.6107 116.907 75.2408 116.837 76.0807C115.847 75.9908 114.997 75.8807 114.147 75.8607C113.277 75.8307 112.157 75.5607 111.577 75.9807C109.787 77.2907 108.637 76.2807 107.347 75.2607C106.657 74.7207 105.847 74.3407 105.157 73.8007C102.317 71.5707 99.8674 69.0207 98.3374 65.4307C99.5174 64.8207 100.547 64.2507 101.617 63.7508C102.757 63.2108 103.927 62.7407 105.087 62.2307C105.037 62.0907 104.977 61.9407 104.927 61.8007C102.507 62.6607 100.087 63.5207 97.6774 64.3807C96.8974 62.4707 96.8773 62.3208 98.2374 61.5808C99.2074 61.0408 100.277 60.6707 101.317 60.2707C102.367 59.8707 103.427 59.5207 104.487 59.1507C104.427 58.9907 104.377 58.8307 104.317 58.6707C101.767 59.4707 99.2074 60.2707 96.5473 61.1007C95.8973 59.0307 96.1874 57.0607 96.5874 55.1307C97.1774 52.3207 97.9174 49.5407 98.5074 46.7307C98.5974 46.3207 98.1973 45.8007 98.0173 45.3407C97.6073 45.6107 96.9774 45.7907 96.8374 46.1507C95.8074 48.9107 94.8474 51.6907 93.9373 54.4907C93.6473 55.3807 93.5474 56.3307 93.3174 57.4907C90.2174 57.3007 88.1973 59.2307 86.0074 60.9807C87.2673 60.7307 88.5374 60.4907 90.2574 60.1507C89.1174 61.6907 88.3573 62.9007 87.4273 63.9507C83.7973 68.0607 79.7673 71.6307 74.4073 73.4107C71.6073 74.3407 68.9674 73.9007 66.5574 72.5307C64.7974 71.5307 63.3273 70.0107 61.8473 68.8207C62.2673 67.2907 63.0674 65.9807 62.8374 64.8907C62.4774 63.2107 63.1674 62.6207 64.3874 61.9107C65.9574 60.9907 67.5874 60.0407 68.8574 58.7707C71.0974 56.5207 71.1173 53.1207 69.1773 51.2107C66.3773 48.4407 60.0474 47.6408 56.6174 49.6108C54.4274 50.8708 53.4073 53.3807 54.3473 55.5407C55.3773 57.9107 56.7773 60.0708 58.9273 61.5808C60.2374 62.5008 61.1573 63.6007 61.5373 65.1807C60.8773 66.4207 60.2473 67.7107 59.5173 68.9507C59.2573 69.4007 58.8373 69.8607 58.3773 70.0807C55.2173 71.6107 52.2174 70.7307 49.4974 69.0407C47.0574 67.5207 46.1974 65.0607 46.4974 62.1807C46.8674 58.5807 47.4374 55.0807 49.1774 51.8107C50.0674 50.1408 50.5273 48.2307 51.1273 46.4107C51.2573 46.0007 51.1474 45.5207 51.1474 45.0707C50.8874 45.0707 50.6374 45.0108 50.5973 45.0808C49.9173 46.1908 49.2574 47.3207 48.3174 48.9107C48.3174 47.0407 48.3773 45.6308 48.2973 44.2208C48.2273 42.9008 48.6574 41.3907 47.0674 40.3207C46.2374 42.1507 46.6874 43.8907 46.6474 45.6007C46.5974 47.7407 46.6773 49.9108 46.4173 52.0308C45.9773 55.5908 45.1873 59.1007 44.7773 62.6607C44.4073 65.9007 45.6274 68.6107 48.2474 70.6207C48.6074 70.9007 48.9474 71.2107 49.1674 71.4007C48.3174 77.2407 48.5173 82.5607 53.0674 86.8707C54.5674 88.2807 56.2073 88.9507 58.1773 89.0607C62.9473 89.3207 67.5674 88.4407 72.1174 87.1307C73.9174 86.6107 75.4774 85.6608 76.6974 84.1908C80.3974 79.7507 83.6474 75.0307 86.2574 69.8607C87.1574 68.0807 88.2074 66.3707 89.3474 64.7407C90.4773 63.1307 91.8074 61.6607 93.2274 59.9107C93.5674 60.6207 93.8274 61.0008 93.9474 61.4207C94.2374 62.4207 94.2174 63.6007 94.7574 64.4107C96.4574 66.9107 95.6774 69.2207 94.6074 71.5907C94.0174 72.9007 93.4573 74.2307 92.9373 75.5707C92.5974 76.4307 92.3474 77.3307 91.9073 78.7007C92.7973 78.1307 93.3674 77.6007 93.6974 77.0007C93.7774 76.3507 93.8774 75.7007 93.9774 75.0407C93.9574 74.7907 93.9474 74.5407 94.0374 74.3307C94.8274 72.3507 95.6973 70.4007 96.5773 68.3407C97.7773 69.1107 98.0874 69.9207 97.3374 71.0207C96.9374 71.6007 96.5473 72.1908 96.1573 72.7807C96.5473 72.7307 96.9374 72.7607 97.2874 72.8907C97.7274 72.1707 98.1774 71.4408 98.6674 70.6407C99.8674 71.9007 100.967 73.0607 102.067 74.2207C102.797 74.7008 103.537 75.1807 104.257 75.6607C106.117 76.9007 107.817 78.6307 109.857 79.2907C113.047 80.3107 114.667 82.3607 115.627 85.3007C115.897 86.1307 116.407 86.8707 116.777 87.6707C117.097 88.3707 117.377 89.0907 117.747 89.9807C114.947 90.6907 112.197 90.2807 109.667 90.9907C109.687 91.1707 109.707 91.3507 109.737 91.5307C112.557 91.3007 115.377 91.0607 118.277 90.8207C118.577 91.5307 118.837 92.1607 119.207 93.0507C115.787 93.9007 112.377 93.0307 109.217 94.1207C110.217 94.3007 111.207 94.3307 112.197 94.2907C113.477 94.2307 114.747 94.0607 116.017 94.0207C120.007 93.9007 120.027 93.9107 121.647 97.4907C122.767 99.9607 123.807 102.471 124.957 104.921C126.337 107.891 127.797 110.811 129.197 113.771C129.377 114.151 129.387 114.621 129.527 115.321C128.077 114.851 126.927 114.471 125.477 114.001C125.517 114.891 125.447 115.441 125.587 115.931C126.007 117.471 126.457 119.011 126.987 120.511C129.717 128.241 131.167 136.241 132.177 144.341C132.307 145.401 132.197 146.501 132.197 147.551C131.247 147.401 130.497 147.281 129.417 147.101C129.577 148.431 129.637 149.451 129.837 150.431C131.427 158.211 131.877 166.121 132.327 174.011C132.597 178.791 132.327 183.601 132.417 188.391C132.507 193.181 132.807 197.961 132.907 202.751C132.987 206.431 132.867 210.111 132.897 213.781C132.907 214.651 132.567 215.671 133.687 216.681C133.897 215.151 134.197 213.911 134.207 212.671C134.257 206.281 134.297 199.881 134.207 193.491C134.047 186.701 133.797 179.921 133.637 173.131ZM61.0373 70.6908C63.0673 72.1708 65.2273 73.7507 67.5473 75.4507C67.3973 77.4407 66.6573 79.4307 65.3173 81.1507C63.9973 82.8507 62.0974 82.7807 60.2774 82.3107C58.4174 81.8407 57.3374 80.5508 57.1974 78.3307C58.4474 78.0407 59.6474 77.7507 61.0673 77.4207C59.4873 77.1607 58.1474 76.9607 56.8173 76.7007C56.7273 76.6807 56.7174 76.2807 56.6074 75.7507C58.2074 75.3907 59.7773 75.0307 61.3473 74.6707C61.3373 74.5407 61.3273 74.4007 61.3273 74.2707C59.9073 74.3407 58.4774 74.4107 56.8874 74.4807C56.6674 74.0107 56.4174 73.4807 56.1774 72.9507C57.8674 72.1607 59.4273 71.4408 61.0373 70.6908ZM80.2673 76.7707C78.9073 78.7407 77.4073 80.6107 75.9373 82.5007C74.4673 84.4007 72.6574 85.5907 70.1974 86.0307C66.9774 86.6007 63.8074 87.2807 60.5074 87.4408C56.0474 87.6608 53.6373 86.0007 51.7173 81.6107C50.4073 78.6007 50.2773 75.3607 50.2373 72.1507C50.4873 72.1307 50.7474 72.1007 50.9974 72.0807C51.2074 73.4508 51.3674 74.8407 51.6474 76.2007C51.8874 77.3607 52.2273 78.5107 52.5773 79.6407C53.1973 81.6607 54.5474 82.5507 56.6674 83.0907C58.9674 83.6807 61.2273 84.3307 63.5973 84.6507C67.2473 85.1407 70.7474 84.4107 73.6374 82.3707C76.0774 80.6507 78.1473 78.1807 78.8773 75.1407C79.2673 73.5307 80.0474 72.6407 81.3574 71.9408C82.0874 71.5508 82.7874 71.0807 83.4974 70.6507C83.6174 70.7607 83.7374 70.8807 83.8574 70.9907C82.6774 72.9307 81.5573 74.9107 80.2673 76.7707ZM89.9274 59.5207L89.7874 59.0507C90.3274 58.8707 90.8774 58.6907 91.4174 58.5107C91.4774 58.7007 91.5374 58.8907 91.5974 59.0907C91.0374 59.2307 90.4874 59.3807 89.9274 59.5207ZM133.477 167.451C133.447 167.111 133.407 166.781 133.377 166.441C133.447 166.431 133.507 166.421 133.577 166.411C133.607 166.751 133.647 167.081 133.677 167.421C133.607 167.431 133.547 167.441 133.477 167.451Z" fill="black"/>
<path d="M107.867 30.0609C106.527 29.6309 105.197 29.2009 103.597 28.6909C103.377 29.8209 103.107 30.8009 103.017 31.8009C102.827 33.9509 102.717 36.1109 102.597 38.2609C102.517 39.6709 102.197 41.0109 101.037 41.8909C100.387 42.3809 99.5074 42.8709 98.7374 42.8509C94.5874 42.7409 90.4274 42.6209 86.2974 42.2109C83.5374 41.9409 80.8374 41.1509 78.0974 40.6409C76.4374 40.3309 75.5974 39.2709 75.3674 37.7109C74.9674 34.8709 74.5774 32.0209 74.3174 29.1609C74.2074 27.9609 73.9974 26.8409 72.8674 26.3609C71.6674 25.8609 70.3274 25.8309 69.2974 26.8609C68.8874 27.2709 68.5674 27.8609 68.4374 28.4309C67.7974 31.1509 67.2474 33.8909 66.6374 36.6209C66.4874 37.3009 66.2374 37.9709 66.0174 38.7109C63.1474 38.7109 60.3674 38.8509 57.5974 38.6809C53.5374 38.4209 49.4574 38.3409 45.5274 36.9809C43.5774 36.3109 43.2574 36.1309 43.0874 33.9909C42.8874 31.3609 42.7574 28.7409 42.5974 26.1109C42.5574 25.4709 42.5874 24.8209 42.4974 24.1909C42.1274 21.6909 42.1374 21.7609 44.5474 20.9209C47.4274 19.9209 50.3074 19.9309 53.2874 20.4109C57.4174 21.0809 61.3174 22.4709 65.2874 23.6709C66.4874 24.0309 67.7674 24.1309 69.0074 24.3109C70.8174 24.5809 72.6274 24.8209 74.4374 25.0609C74.8974 25.1209 75.3774 25.2909 75.8174 25.2209C81.3574 24.3609 86.9274 24.1009 92.5274 24.3209C97.5574 24.5209 102.297 25.9209 106.847 27.9709C107.457 28.2409 107.847 28.9809 108.337 29.5109C108.177 29.6909 108.017 29.8709 107.867 30.0609ZM101.597 27.9709C95.5474 25.4609 80.3274 25.0609 76.0274 27.3609C76.6474 30.3709 77.2774 33.4809 77.9374 36.5809C78.2574 38.0909 79.2774 38.8609 80.7374 39.1509C81.3674 39.2809 81.9874 39.4509 82.6174 39.5209C87.7874 40.0809 92.9574 40.0009 98.1274 39.5609C99.0474 39.4809 99.9474 39.1809 100.977 38.9609C100.667 36.7309 101.567 34.7009 100.787 32.5909C99.3874 32.8009 98.0974 32.9909 96.8074 33.1909C96.7774 33.0209 96.7474 32.8409 96.7174 32.6709C97.9174 32.3209 99.0974 31.8909 100.317 31.6609C101.217 31.5009 101.557 31.0309 101.607 30.2309C101.637 29.5109 101.597 28.8009 101.597 27.9709ZM45.0374 30.1609C45.0074 30.7109 44.9774 31.0309 44.9774 31.3409C45.0374 34.5609 45.4574 35.0309 48.6274 35.4009C50.0574 35.5709 51.4774 35.8009 52.9074 35.9309C56.0874 36.2109 59.2774 36.4909 62.4574 36.6609C64.5574 36.7709 64.8574 36.4609 65.2574 34.5909C65.6274 32.8809 66.0474 31.1709 66.4474 29.4709C66.8374 27.8009 65.8674 25.7609 64.2274 25.2609C60.1774 24.0309 56.1274 22.7609 52.0074 21.8509C50.2974 21.4709 48.3574 21.8009 46.5774 22.1209C44.3774 22.5109 44.1674 23.1509 44.9974 25.6309C46.3574 25.5109 47.7574 25.3909 49.1474 25.2709C48.2574 25.8909 47.2774 26.1109 46.3174 26.4009C44.7674 26.8709 44.7674 26.9009 45.2274 28.8809C46.4474 28.7109 47.6774 28.5509 48.8974 28.3809C48.9174 28.5009 48.9374 28.6309 48.9574 28.7509C47.7174 29.2109 46.4474 29.6609 45.0374 30.1609Z" fill="black"/>
<path d="M30.4977 173.601C29.1077 174.481 27.7077 175.361 26.1477 176.351C26.1877 176.791 26.2477 177.381 26.3277 178.151C29.3777 177.041 32.1377 175.611 35.2577 175.301C34.4477 176.221 33.2977 176.421 32.2377 176.821C30.7477 177.381 29.2377 177.901 27.7577 178.501C26.3177 179.091 25.5077 180.161 25.2877 181.751C24.5077 187.501 25.5177 193.051 27.1377 198.511C27.6977 200.411 28.6677 202.181 29.4177 204.021C29.9577 205.351 30.5477 206.671 30.9377 208.051C31.1477 208.801 30.9777 209.651 30.5577 210.571C30.3377 210.301 29.9777 210.061 29.9177 209.751C29.3477 207.101 27.8677 204.971 26.3177 202.801C24.6077 200.421 24.2177 197.471 23.8777 194.611C23.3977 190.511 23.0877 186.391 22.6977 182.171C22.1977 182.291 21.5977 182.421 21.0677 182.551C20.0777 181.911 21.5877 172.581 23.4977 166.971C25.2277 167.061 25.6277 167.521 25.1477 169.061C24.7377 170.351 24.1777 171.601 23.7477 172.881C23.5177 173.541 23.4177 174.251 23.2777 174.851C24.2577 175.861 25.0977 175.431 26.0177 175.091C27.4977 174.531 29.0277 174.101 30.5377 173.621L30.4977 173.601Z" fill="black"/>
<path d="M25.8675 132.311C26.8575 129.711 27.8975 127.131 28.8275 124.511C29.4375 122.781 30.1675 121.141 31.3975 119.651C32.3675 120.161 32.0975 120.891 31.8575 121.521C30.9875 123.831 30.0575 126.121 29.1675 128.421C28.9075 129.081 28.6375 129.761 28.5175 130.461C28.0175 133.331 26.7275 135.871 25.3775 138.391C25.0575 138.991 24.8775 139.651 24.5575 140.461C30.9675 140.991 35.4575 137.331 40.4975 134.651C40.3375 135.001 40.2675 135.481 39.9975 135.691C36.1975 138.601 32.4575 141.721 27.3975 142.041C24.9575 142.201 22.4875 141.981 20.0275 141.831C19.6375 141.801 18.9775 141.181 18.9775 140.831C18.9775 140.051 19.6175 139.871 20.3675 140.021C21.2175 140.191 22.0875 140.281 22.9975 140.411C23.9975 138.651 24.8375 136.981 25.0875 135.021C25.2075 134.091 25.6275 133.201 25.9075 132.291L25.8675 132.311Z" fill="black"/>
<path d="M67.5873 42.2112C64.8373 42.8712 62.5373 42.5012 59.9873 42.6812C61.3973 40.9812 64.3073 40.8212 67.5873 42.2112Z" fill="black"/>
<path d="M54.0478 140.891C53.7778 142.931 53.5779 144.511 53.3579 146.191C52.1979 146.141 51.7579 145.331 51.8179 144.461C51.8979 143.211 51.8578 141.741 54.0478 140.891Z" fill="black"/>
<path d="M69.2472 143.421C67.8372 142.191 66.8071 141.301 65.8271 140.451C66.3071 139.411 66.9172 139.381 67.4872 139.831C68.4972 140.621 69.7472 141.321 69.2472 143.421Z" fill="black"/>
<path d="M7.52731 153.521C9.43731 151.671 11.9073 150.901 14.3273 150.041C12.1073 151.311 9.9773 152.751 7.4873 153.471C7.4973 153.471 7.52731 153.521 7.52731 153.521Z" fill="black"/>
<path d="M21.1777 129.051C22.7577 128.051 24.4677 127.471 26.3277 127.351C26.3777 127.511 26.4277 127.661 26.4877 127.821C24.7977 128.401 23.1077 128.981 21.4177 129.551C21.3377 129.391 21.2577 129.221 21.1777 129.051Z" fill="black"/>
<path d="M25.9073 132.281C24.9273 132.571 23.9373 132.841 22.9573 133.151C22.0873 133.421 21.2273 133.731 20.2773 133.711C21.9673 132.601 23.6873 131.591 25.8573 132.321C25.8673 132.311 25.9073 132.281 25.9073 132.281Z" fill="black"/>
<path d="M30.5273 173.641C31.9773 172.921 33.4273 172.211 34.8773 171.491C34.9373 171.641 34.9973 171.791 35.0573 171.941C33.7273 172.971 32.2073 173.521 30.4873 173.601C30.4973 173.601 30.5273 173.641 30.5273 173.641Z" fill="black"/>
<path d="M56.0071 132.841C54.9171 134.041 53.8371 135.231 52.7471 136.431C53.3971 134.801 54.3871 133.501 56.0471 132.881L56.0071 132.841Z" fill="black"/>
<path d="M101.167 9.99121C99.9774 10.9512 98.7974 11.9012 97.6074 12.8612C98.3974 11.3412 99.4274 10.1712 101.207 10.0412L101.167 9.99121Z" fill="black"/>
<path d="M51.207 61.4712C52.147 61.4712 52.747 61.4712 53.357 61.4712C53.357 61.7112 53.417 61.9312 53.347 61.9912C52.687 62.5912 52.027 62.9112 51.207 61.4712Z" fill="black"/>
<path d="M52.2477 66.5908C52.6177 66.9308 52.8277 67.1108 53.0277 67.3008C52.8477 67.5008 52.6777 67.8408 52.4777 67.8508C52.2677 67.8608 51.9276 67.6208 51.8476 67.4108C51.7876 67.2508 52.0477 66.9708 52.2477 66.5908Z" fill="black"/>
<path d="M71.1377 62.3311C71.6377 62.3711 72.1277 62.411 72.9077 62.461C72.1377 63.331 71.6277 63.4011 71.1377 62.3311Z" fill="black"/>
<path d="M75.7275 62.0714C76.1875 61.8414 76.4675 61.5714 76.6875 61.6114C76.9075 61.6514 77.0575 62.0214 77.2475 62.2414C77.0275 62.4014 76.7975 62.7114 76.5775 62.7014C76.3475 62.6814 76.1275 62.3814 75.7275 62.0714Z" fill="black"/>
<path d="M13.7178 153.071C14.2978 152.831 14.8878 152.591 15.4678 152.351C15.5078 152.461 15.5578 152.561 15.5978 152.671C15.0178 152.921 14.4378 153.171 13.8578 153.421C13.8178 153.301 13.7678 153.181 13.7178 153.071Z" fill="black"/>
<path d="M73.8773 65.9414C74.1073 66.4414 74.2973 66.6814 74.2973 66.9314C74.2973 67.0714 73.9373 67.3814 73.8873 67.3514C73.6573 67.2314 73.3573 67.0314 73.3073 66.8014C73.2673 66.6314 73.5673 66.3914 73.8773 65.9414Z" fill="black"/>
<path d="M97.1773 9.86133C97.4073 10.9113 96.7773 11.4013 95.6973 12.0113C95.8673 10.7813 96.6673 10.4313 97.2273 9.90132C97.2273 9.91132 97.1773 9.86133 97.1773 9.86133Z" fill="black"/>
<path d="M89.927 33.5714C89.477 34.3714 88.987 35.5514 88.217 36.4914C87.417 37.4714 85.867 37.3914 85.047 36.4514C84.107 35.3614 83.797 34.0014 84.187 32.6514C84.607 31.1914 85.737 30.2014 87.187 29.8314C88.247 29.5714 88.997 30.3414 89.407 31.2614C89.667 31.8314 89.697 32.4914 89.927 33.5714Z" fill="black"/>
<path d="M95.2871 35.5909C96.6371 34.3609 98.1771 34.3909 99.7771 34.8109C98.2871 35.0809 96.7871 35.3409 95.2871 35.5909Z" fill="black"/>
<path d="M51.2774 30.3911C51.0774 28.5311 52.4374 26.871 54.1374 26.801C55.7774 26.741 56.8474 27.9011 56.9574 29.9411C57.0174 31.0511 57.0274 32.131 56.0974 33.021C55.1574 33.931 54.1274 34.3711 52.8674 33.9711C51.6074 33.5711 51.2774 32.5311 51.2774 31.3411C51.2774 31.0311 51.2774 30.7111 51.2774 30.3911Z" fill="black"/>
<path d="M42.1371 157.001C41.5471 156.121 40.9871 155.181 40.8171 154.131C40.6471 153.081 40.9471 151.891 41.8071 151.281C44.2771 149.511 50.3371 149.021 51.2771 152.711C52.2871 156.661 47.6371 158.881 45.7071 161.531C44.3271 160.281 43.1771 158.561 42.1371 157.001Z" fill="#BBBBBA"/>
<path d="M52.4971 174.851C59.6771 178.401 66.857 181.951 74.0371 185.491C74.5271 185.731 75.067 186.041 75.207 186.571C75.347 187.151 74.9071 187.741 74.3571 187.971C73.8071 188.201 73.187 188.151 72.597 188.101C66.107 187.461 59.797 185.631 53.657 183.421C50.607 182.321 47.4671 181.031 45.4071 178.531C44.1671 177.031 42.0871 172.121 45.0071 171.151C46.8371 170.541 50.7971 174.011 52.4971 174.851Z" fill="#BBBBBA"/>
<path d="M105.907 134.821C103.597 134.341 101.237 134.151 98.8972 133.821C97.3672 133.611 96.0672 133.161 95.9672 131.261C95.8972 130.011 95.0172 129.331 93.9472 128.931C93.0972 128.611 92.2372 128.291 91.3472 128.131C86.1572 127.211 80.9672 126.261 75.7572 125.521C74.3572 125.321 72.7072 124.761 71.4172 125.971C71.5472 126.741 71.6472 127.351 71.7372 127.951C67.3972 127.351 63.2972 126.771 59.0172 126.181C58.6172 127.741 58.2272 129.271 57.8372 130.791C58.3172 130.661 58.8072 130.561 59.3072 130.531C59.3172 130.531 59.3272 130.531 59.3472 130.531C60.1172 127.711 60.6672 127.741 64.4272 128.461C66.9072 128.941 69.3672 129.551 71.9372 130.121C72.0072 130.721 72.1072 131.331 72.1472 131.951C72.2772 134.011 72.6172 134.531 74.6872 134.651C77.2772 134.801 79.5872 135.901 82.0272 136.471C86.2472 137.471 90.6072 137.901 94.9272 138.431C96.4772 138.621 97.7172 139.061 98.6172 140.371C99.4572 141.601 99.5572 143.001 99.1072 144.301C98.0072 147.461 96.8672 150.621 95.4772 153.661C93.5172 157.941 91.3272 162.121 89.2372 166.341C88.9972 166.831 88.7672 167.321 88.5072 167.801C86.4972 171.661 84.5272 175.531 82.4572 179.351C81.6872 180.771 80.8172 182.171 79.7772 183.401C78.1172 185.361 77.9572 185.301 75.2972 183.661C75.7672 182.921 76.1272 182.331 76.6372 181.511C70.1472 180.501 64.0972 179.021 58.4872 175.771C53.0272 172.601 47.4072 169.751 41.9372 165.771C43.6172 164.671 45.0072 163.861 46.2772 162.901C48.5372 161.181 51.2672 160.011 52.3172 156.921C52.7172 155.741 54.1572 154.961 54.9872 153.881C56.2372 152.261 57.4972 150.641 58.6872 148.981C57.5672 149.001 56.4572 148.881 55.3972 148.591C53.5472 151.051 51.6872 153.491 49.8272 155.941C48.4972 157.681 46.9472 159.171 44.7472 160.321C40.3472 156.951 39.5372 151.991 38.3472 146.971C39.1972 146.751 39.7072 146.461 40.1872 146.511C43.8572 146.841 47.4172 146.621 50.9572 145.891C50.8172 145.731 50.6672 145.581 50.5272 145.421C50.2772 145.101 50.0472 144.781 49.8372 144.451C45.5672 145.331 41.1872 145.401 36.2972 144.711C37.1272 151.201 38.6672 156.731 43.2972 161.281C41.1272 162.141 39.1672 162.911 36.3172 164.041C37.6272 165.521 38.6172 166.641 39.5872 167.731C36.2972 170.111 32.8572 168.351 29.4072 168.671C30.3572 171.351 31.5672 173.551 33.1072 175.571C36.2372 179.681 40.4172 182.491 45.2672 184.941C44.3572 185.031 43.8272 185.081 43.2372 185.141C43.2772 186.201 43.3872 187.111 43.3172 188.011C43.2472 189.001 42.9572 189.981 42.8672 190.971C42.6072 193.771 43.1572 194.631 45.8672 195.171C49.9572 195.981 54.0872 196.591 58.1772 197.381C61.7272 198.071 65.2672 198.881 68.7972 199.671C72.5172 200.501 76.2472 201.291 79.9472 202.231C84.3972 203.371 88.9172 203.681 93.4672 203.621C96.0672 203.591 96.4772 203.071 97.1272 200.531C98.5972 194.811 99.9472 189.051 101.657 183.401C103.297 177.991 104.147 172.431 105.067 166.891C106.017 161.251 106.517 155.531 107.347 149.871C107.857 146.371 108.757 142.921 109.227 139.421C109.617 136.491 108.787 135.411 105.907 134.821ZM92.0172 136.061C91.3672 136.251 90.6272 136.411 89.9772 136.291C86.5172 135.681 82.9372 135.681 79.6672 134.001C78.5172 133.401 77.0272 133.381 75.6772 133.251C74.1972 133.111 73.5872 132.341 73.6172 130.941C73.6472 129.771 73.7072 128.601 73.7772 127.121C74.9172 127.161 75.8872 127.101 76.8172 127.251C81.1172 127.931 85.4372 128.591 89.7072 129.421C93.9672 130.251 94.5372 130.371 94.6372 135.051C93.7272 135.421 92.8972 135.811 92.0172 136.061ZM89.2672 176.231C90.1672 174.001 91.3672 172.001 93.8272 171.121C94.1572 171.001 94.4272 170.731 94.7172 170.511C94.7672 170.481 94.7372 170.351 94.7772 170.051C93.6372 170.421 92.5772 170.761 91.3072 171.171C91.4072 168.101 94.3972 168.621 96.0972 166.641C94.4172 167.161 93.3272 167.501 91.7972 167.981C91.9972 166.881 92.0272 165.911 92.3672 165.071C93.6772 161.791 95.0772 158.551 96.4672 155.301C97.6872 152.471 98.9372 149.661 100.167 146.831C100.387 146.331 100.447 145.751 100.737 145.311C100.947 144.981 101.597 144.551 101.717 144.631C102.097 144.901 102.507 145.371 102.567 145.801C102.647 146.401 102.447 147.051 102.327 147.681C101.177 153.461 100.137 159.271 98.8172 165.021C97.8372 169.261 96.4672 173.401 95.3072 177.591C94.5872 180.221 93.9472 182.871 93.2772 185.511C92.4272 188.831 92.0572 189.131 88.5972 188.931C87.4272 188.861 86.2772 188.641 84.5472 188.421C85.3972 186.301 86.1172 184.571 86.7872 182.821C87.6172 180.641 88.3872 178.411 89.2672 176.231ZM38.2772 177.411C36.9972 176.021 35.6472 174.701 34.3672 173.311C34.1472 173.071 34.1372 172.651 33.9172 171.991C36.6372 171.201 39.2772 170.441 42.3472 169.551C43.3672 170.261 44.7572 171.221 46.3772 172.351C44.4472 173.751 42.6672 175.041 40.8872 176.331C40.9872 176.491 41.0872 176.651 41.1972 176.821C41.5872 176.611 41.9972 176.431 42.3572 176.181C42.9472 175.761 43.5172 175.311 44.0872 174.851C46.2372 173.131 48.3372 172.911 50.7972 174.471C54.1672 176.611 57.6172 178.681 61.2372 180.351C66.3472 182.711 71.6472 184.661 76.8472 186.821C78.1772 187.371 78.9872 186.841 79.9372 185.931C83.1872 182.821 84.6672 178.671 86.7172 174.851C87.3872 173.611 87.9572 172.311 88.5672 171.041C88.7372 171.101 88.9072 171.171 89.0772 171.231C88.9072 171.981 88.8372 172.761 88.5572 173.471C86.2972 179.111 84.0172 184.751 81.7072 190.371C80.8872 192.381 79.7272 192.641 77.9572 191.441C77.3272 191.021 76.5372 190.621 75.8172 190.591C69.5172 190.411 63.7272 188.221 57.8572 186.271C54.6672 185.211 51.5072 184.051 48.2672 183.211C44.3472 182.201 41.0072 180.371 38.2772 177.411ZM107.567 139.551C107.487 140.721 107.277 141.891 107.087 143.061C106.097 149.241 105.117 155.421 104.107 161.591C103.377 166.071 102.567 170.531 101.877 175.021C100.587 183.391 97.2172 191.231 95.7272 199.551C95.6172 200.161 95.3072 200.731 94.9972 201.551C88.0772 200.431 81.1872 199.491 74.3572 198.171C67.5272 196.861 60.7672 195.181 53.6172 193.581C54.6572 192.701 55.4472 192.041 56.2272 191.371C56.1572 191.241 56.0872 191.111 56.0172 190.981C54.8072 191.661 53.6472 192.471 52.3672 192.971C51.7072 193.231 50.8272 193.021 50.0672 192.881C49.9572 192.861 49.9772 192.081 49.9472 191.651L49.9272 191.621C49.3772 191.901 48.8472 192.261 48.2672 192.441C46.6072 192.961 45.3372 191.911 45.6472 190.201C45.9072 188.781 46.3872 187.411 46.8272 185.821C47.6672 185.891 48.3972 185.831 49.0472 186.031C51.4772 186.791 53.8972 187.551 56.2772 188.461C63.8772 191.351 71.6672 193.331 79.8172 193.771C81.8272 193.881 82.3972 193.591 83.2572 191.841C83.5272 191.281 83.7572 190.691 84.0472 190.041C86.4372 190.181 88.7672 190.381 91.1072 190.431C93.7072 190.481 93.7672 190.441 94.4872 187.901C95.2372 185.291 95.7172 182.591 96.5572 180.011C99.6372 170.471 101.547 160.671 103.217 150.811C103.477 149.291 103.857 147.781 104.087 146.261C104.517 143.371 104.297 143.081 101.397 142.271C100.807 140.281 99.8172 138.531 97.7972 137.461C97.2672 137.181 97.0872 136.261 96.4472 135.081C99.7972 135.521 102.497 135.761 105.137 136.251C107.077 136.621 107.687 137.581 107.567 139.551Z" fill="black"/>
<path d="M66.5273 130.641C66.4973 130.691 66.4673 130.741 66.4473 130.801C66.8673 130.941 67.2773 131.111 67.6973 131.341C67.7073 131.351 67.7273 131.361 67.7373 131.371C68.5873 131.691 69.3673 132.191 70.0473 132.811C70.4273 132.891 70.8373 133.021 71.3073 133.241C70.2773 130.661 68.1773 131.621 66.5273 130.641Z" fill="black"/>
<path d="M46.0977 166.511C47.0777 165.951 48.0577 165.401 49.0377 164.841C49.1377 164.991 49.2277 165.141 49.3277 165.301C48.3777 165.911 47.4277 166.531 46.4777 167.141C46.3577 166.931 46.2277 166.721 46.0977 166.511Z" fill="black"/>
<path d="M54.2571 166.031C53.3471 166.431 52.4271 166.841 51.5171 167.241C51.4371 167.071 51.3671 166.901 51.2871 166.741C52.1971 166.331 53.1071 165.921 54.0171 165.501C54.0971 165.681 54.1771 165.861 54.2571 166.031Z" fill="black"/>
<path d="M49.917 191.631C50.567 190.221 51.927 189.781 53.287 189.351C52.327 190.341 51.317 191.261 49.937 191.661C49.937 191.651 49.917 191.631 49.917 191.631Z" fill="black"/>
<path d="M43.1875 179.141C44.2375 178.441 45.2875 177.731 46.3375 177.031C46.4575 177.201 46.5875 177.381 46.7075 177.551C45.6575 178.291 44.6175 179.021 43.5675 179.761C43.4375 179.551 43.3075 179.351 43.1875 179.141Z" fill="black"/>
<path d="M116.498 210.281C114.838 210.271 114.838 209.261 114.738 208.451C114.288 204.891 113.728 201.331 113.488 197.751C113.048 191.131 112.538 184.531 111.398 177.981C111.098 176.271 111.248 174.491 111.238 172.741C111.218 170.441 111.328 168.131 111.218 165.831C110.918 159.691 109.798 153.611 110.128 147.431C110.158 146.921 110.258 146.411 110.318 145.901C110.478 145.861 110.648 145.821 110.808 145.781C110.998 146.291 111.328 146.801 111.368 147.321C111.758 153.141 112.088 158.961 112.448 164.781C112.508 165.811 112.598 166.851 112.718 167.881C112.938 169.831 113.488 171.751 112.708 173.731C112.438 174.411 112.668 175.291 112.668 176.251C113.548 176.181 114.268 176.111 115.198 176.041C113.028 177.601 113.028 177.601 113.148 179.331C113.708 179.261 114.258 179.191 115.448 179.031C113.278 180.331 113.488 181.831 113.658 183.471C114.138 188.241 114.418 193.031 114.818 197.801C115.098 201.141 115.428 204.481 115.788 207.821C115.868 208.541 116.198 209.271 116.498 210.281Z" fill="black"/>
<path d="M53.4273 30.4611C53.9244 30.4611 54.3273 30.0582 54.3273 29.5611C54.3273 29.0641 53.9244 28.6611 53.4273 28.6611C52.9303 28.6611 52.5273 29.0641 52.5273 29.5611C52.5273 30.0582 52.9303 30.4611 53.4273 30.4611Z" fill="white"/>
<path d="M86.357 33.4514C86.8541 33.4514 87.257 33.0484 87.257 32.5514C87.257 32.0543 86.8541 31.6514 86.357 31.6514C85.86 31.6514 85.457 32.0543 85.457 32.5514C85.457 33.0484 85.86 33.4514 86.357 33.4514Z" fill="white"/>
<path d="M58.3975 51.951C60.0575 51.511 62.2375 51.611 63.9175 51.941" stroke="white" stroke-miterlimit="10" stroke-linecap="round" stroke-linejoin="round"/>
<path d="M54.2473 166.041C53.3373 166.441 52.4173 166.851 51.5073 167.251C51.4273 167.081 51.3573 166.911 51.2773 166.751C52.1873 166.341 53.0973 165.931 54.0073 165.511C54.0873 165.681 54.1673 165.861 54.2473 166.041Z" fill="black"/>
<path d="M55.2177 158.201C59.0677 159.791 62.9077 161.381 66.7577 162.961C68.5877 163.711 70.3877 164.501 72.1377 165.421C73.8977 166.351 75.6477 167.281 77.4277 168.151C79.4977 169.161 81.5877 170.131 83.6677 171.091C84.3177 171.391 84.8877 170.421 84.2377 170.121C80.5377 168.411 76.8477 166.661 73.2577 164.741C69.6577 162.811 65.8377 161.361 62.0677 159.811C59.8877 158.911 57.7077 158.011 55.5277 157.111C54.8477 156.841 54.5577 157.931 55.2177 158.201Z" fill="#1D1E1C"/>
<path d="M73.1972 159.911C72.5972 160.651 71.9372 161.341 71.2172 161.971C71.0672 162.101 71.0772 162.371 71.2172 162.501C71.3772 162.641 71.5872 162.641 71.7472 162.501C72.4672 161.871 73.1272 161.181 73.7272 160.441C73.8472 160.291 73.8872 160.061 73.7272 159.911C73.5872 159.791 73.3272 159.751 73.1972 159.911Z" fill="#1D1E1C"/>
<path d="M75.9372 161.421C76.1972 161.491 76.4472 161.571 76.6772 161.691C76.7672 161.741 76.8872 161.781 76.9672 161.841C76.9872 161.861 77.0172 161.881 77.0372 161.911C77.0172 161.911 77.0072 161.891 77.0172 161.861C77.0072 161.871 76.9972 161.921 76.9872 161.941C76.8272 162.261 76.3872 162.391 76.0672 162.311C76.0672 162.551 76.0672 162.791 76.0672 163.031C76.2972 162.951 76.6072 163.011 76.7172 163.251C76.7472 163.311 76.7472 163.441 76.6972 163.531C76.6472 163.631 76.5772 163.711 76.4572 163.761C76.0872 163.901 75.6072 163.671 75.2672 163.531C74.9172 163.391 74.5572 163.221 74.2972 162.941C73.9672 162.591 73.4472 163.121 73.7672 163.471C74.1672 163.901 74.7372 164.131 75.2772 164.331C75.8572 164.551 76.5572 164.681 77.0672 164.241C77.4772 163.891 77.6072 163.251 77.3072 162.791C77.0072 162.321 76.3772 162.121 75.8572 162.301C75.5272 162.421 75.4772 162.931 75.8572 163.021C76.5572 163.201 77.3772 162.881 77.6772 162.191C78.0672 161.271 76.7772 160.871 76.1272 160.691C75.6772 160.571 75.4772 161.291 75.9372 161.421Z" fill="#1D1E1C"/>
<path d="M80.1573 163.381C80.4973 163.521 80.7773 163.791 80.9573 164.111C81.0073 164.211 81.1373 164.421 81.0873 164.531C81.0573 164.601 80.9173 164.651 80.8573 164.681C80.7673 164.731 80.6673 164.771 80.5673 164.801C79.7473 165.101 78.8073 165.091 78.0073 164.741C78.0073 164.961 78.0073 165.171 78.0073 165.391C78.1673 165.301 78.3873 165.431 78.5273 165.511C78.7773 165.641 79.0173 165.791 79.2673 165.931C79.7773 166.231 80.2773 166.531 80.7673 166.841C81.1773 167.101 81.5473 166.451 81.1473 166.191C80.5773 165.831 79.9973 165.481 79.4073 165.141C78.8873 164.841 78.2373 164.391 77.6373 164.741C77.4173 164.871 77.3773 165.271 77.6373 165.391C78.7673 165.891 80.0673 165.891 81.1773 165.351C81.4573 165.211 81.7273 165.021 81.8073 164.701C81.8873 164.391 81.7673 164.051 81.6173 163.781C81.3473 163.261 80.8773 162.891 80.3473 162.661C80.1573 162.581 79.9373 162.741 79.8873 162.921C79.8373 163.131 79.9673 163.301 80.1573 163.381Z" fill="#1D1E1C"/>
<path d="M67.4368 158.841C67.6168 158.831 67.8068 158.841 67.9868 158.861C68.0368 158.871 68.0368 158.871 67.9968 158.861C68.0168 158.861 68.0468 158.871 68.0668 158.871C68.1168 158.881 68.1668 158.891 68.2068 158.901C68.2868 158.921 68.3768 158.941 68.4568 158.961C68.5368 158.981 68.6168 159.011 68.6968 159.041C68.7468 159.061 68.7868 159.071 68.8368 159.091C68.8768 159.111 68.8768 159.111 68.8468 159.091C68.8668 159.101 68.8868 159.111 68.9168 159.121C69.0768 159.201 69.2368 159.291 69.3868 159.391C69.5468 159.501 69.8068 159.431 69.8968 159.261C69.9968 159.071 69.9368 158.861 69.7668 158.751C69.0868 158.301 68.2468 158.071 67.4368 158.101C67.2368 158.111 67.0568 158.271 67.0668 158.471C67.0668 158.661 67.2268 158.841 67.4368 158.841Z" fill="#1D1E1C"/>
<path d="M68.9864 157.641C68.9864 157.681 68.9764 157.731 68.9764 157.771C68.9764 157.821 68.9864 157.701 68.9764 157.761C68.9764 157.781 68.9664 157.801 68.9664 157.821C68.9564 157.901 68.9364 157.981 68.9164 158.061C68.8964 158.141 68.8664 158.221 68.8364 158.291C68.8264 158.311 68.8264 158.341 68.8064 158.361C68.8164 158.341 68.8264 158.311 68.8064 158.351C68.7864 158.391 68.7664 158.431 68.7464 158.471C68.6764 158.621 68.5864 158.761 68.4864 158.891C68.4564 158.931 68.5264 158.841 68.4864 158.881C68.4764 158.891 68.4664 158.911 68.4464 158.931C68.4164 158.961 68.3864 159.001 68.3564 159.031C68.2964 159.101 68.2264 159.161 68.1664 159.221C68.0164 159.351 68.0264 159.621 68.1664 159.751C68.3264 159.891 68.5364 159.891 68.6964 159.751C69.2964 159.211 69.6664 158.451 69.7164 157.641C69.7264 157.441 69.5364 157.261 69.3464 157.271C69.1464 157.271 68.9964 157.431 68.9864 157.641Z" fill="#1D1E1C"/>
<path d="M73.8964 156.091C74.7164 156.421 75.5364 156.741 76.3564 157.071C76.5364 157.141 76.7764 156.991 76.8164 156.811C76.8664 156.591 76.7464 156.431 76.5564 156.351C75.7364 156.021 74.9164 155.701 74.0964 155.371C73.9164 155.301 73.6764 155.451 73.6364 155.631C73.5864 155.851 73.7064 156.021 73.8964 156.091Z" fill="#1D1E1C"/>
<path d="M79.9872 156.431C79.4272 157.081 78.8572 157.711 78.2672 158.331C78.1372 158.471 78.1172 158.721 78.2672 158.861C78.4172 158.991 78.6472 159.011 78.7972 158.861C79.3872 158.241 79.9572 157.611 80.5172 156.961C80.6472 156.811 80.6772 156.571 80.5172 156.431C80.3772 156.301 80.1272 156.271 79.9872 156.431Z" fill="#1D1E1C"/>
<path d="M84.1963 157.661C83.8263 157.651 83.4663 157.751 83.1263 157.891C82.8463 158.001 82.5663 158.101 82.3163 158.271C82.0463 158.441 81.8163 158.681 81.7263 158.991C81.6363 159.321 81.7363 159.661 81.8463 159.971C82.0663 160.531 82.4863 161.111 83.1563 161.081C83.4963 161.061 83.8163 160.911 84.0363 160.641C84.2663 160.361 84.3463 160.011 84.2863 159.661C84.1463 158.831 83.3163 158.431 82.5663 158.351C82.3663 158.331 82.1963 158.541 82.1963 158.721C82.1963 158.941 82.3663 159.071 82.5663 159.091C82.6463 159.101 82.6163 159.101 82.5963 159.091C82.6263 159.091 82.6563 159.101 82.6763 159.111C82.7363 159.121 82.7863 159.131 82.8463 159.151C82.9763 159.191 83.0363 159.211 83.1463 159.281C83.2463 159.341 83.2863 159.371 83.3663 159.451C83.3863 159.471 83.4063 159.491 83.4263 159.511C83.4063 159.481 83.4363 159.531 83.4463 159.531C83.4563 159.551 83.4763 159.581 83.4863 159.601C83.4863 159.601 83.5363 159.701 83.5163 159.661C83.5363 159.711 83.5463 159.761 83.5563 159.811C83.5463 159.761 83.5563 159.891 83.5563 159.911C83.5563 159.921 83.5463 159.981 83.5563 159.931C83.5563 159.961 83.5463 159.981 83.5363 160.011C83.5363 160.021 83.5163 160.081 83.5363 160.031C83.5263 160.061 83.5063 160.091 83.4963 160.111C83.4863 160.121 83.4463 160.181 83.4763 160.141C83.4563 160.161 83.4463 160.181 83.4263 160.191C83.4063 160.211 83.3863 160.231 83.3663 160.241C83.3863 160.231 83.4063 160.221 83.3463 160.251C83.3263 160.261 83.3063 160.281 83.2763 160.291C83.2663 160.291 83.2163 160.311 83.2663 160.301C83.2463 160.311 83.2163 160.311 83.1963 160.321C83.1863 160.321 83.1763 160.331 83.1563 160.331C83.1863 160.331 83.1863 160.331 83.1663 160.331C83.1363 160.331 83.1163 160.331 83.0863 160.331C83.0263 160.331 83.1363 160.341 83.0763 160.331C83.0563 160.331 83.0263 160.321 83.0063 160.311C82.9963 160.311 82.9263 160.281 82.9663 160.301C83.0063 160.321 82.9463 160.291 82.9363 160.281C82.9163 160.271 82.8963 160.261 82.8763 160.241C82.8263 160.211 82.9163 160.271 82.8663 160.241C82.8463 160.221 82.8263 160.201 82.8063 160.181C82.7863 160.161 82.7663 160.141 82.7463 160.121C82.7063 160.081 82.7763 160.161 82.7363 160.111C82.7063 160.071 82.6863 160.031 82.6563 159.991C82.6363 159.951 82.6063 159.911 82.5863 159.861C82.5763 159.841 82.5663 159.821 82.5563 159.791C82.5363 159.751 82.5663 159.821 82.5463 159.761C82.5063 159.661 82.4763 159.571 82.4463 159.471C82.4363 159.441 82.4163 159.351 82.4163 159.341C82.4163 159.311 82.4163 159.281 82.4163 159.251C82.4163 159.101 82.4163 159.311 82.4263 159.191C82.4263 159.181 82.4463 159.121 82.4263 159.181C82.4363 159.161 82.4463 159.141 82.4563 159.121C82.4663 159.101 82.4763 159.081 82.4963 159.061C82.4563 159.111 82.4963 159.061 82.5063 159.061C82.5363 159.031 82.5763 158.991 82.6063 158.961C82.6663 158.911 82.6263 158.941 82.6163 158.951C82.6463 158.931 82.6763 158.911 82.7063 158.891C82.8063 158.831 82.9063 158.781 83.0063 158.731C83.0263 158.721 83.0563 158.711 83.0763 158.701C83.0163 158.721 83.1263 158.681 83.1263 158.681C83.1963 158.651 83.2563 158.631 83.3263 158.601C83.6063 158.491 83.8863 158.401 84.1763 158.411C84.3763 158.411 84.5463 158.231 84.5463 158.041C84.5763 157.831 84.3963 157.671 84.1963 157.661Z" fill="#1D1E1C"/>
<path d="M83.8066 150.801C83.4566 151.121 83.1066 151.441 82.7666 151.781C82.5966 151.951 82.4266 152.111 82.2666 152.281C82.1066 152.451 81.8766 152.631 81.7966 152.851C81.6166 153.411 82.3466 153.551 82.7266 153.641C83.1966 153.751 83.6566 153.751 84.0966 153.561C83.9666 153.561 83.8466 153.561 83.7166 153.561C83.7266 153.571 83.7366 153.571 83.7466 153.581C83.7066 153.541 83.6566 153.491 83.6166 153.451C83.6266 153.461 83.6266 153.471 83.6366 153.481C83.6166 153.421 83.6066 153.351 83.5866 153.291C83.5866 153.291 83.6666 153.141 83.5666 153.321C83.5366 153.371 83.5066 153.421 83.4766 153.471C83.4066 153.581 83.3466 153.691 83.2766 153.811C83.1466 154.031 83.0166 154.261 82.8866 154.481C82.6466 154.901 83.2866 155.271 83.5366 154.861C83.7266 154.531 83.9166 154.211 84.1066 153.881C84.2666 153.601 84.5066 153.181 84.1266 152.941C83.9266 152.821 83.7766 152.911 83.5866 152.961C83.4666 152.991 83.3366 152.991 83.2166 152.981C83.0666 152.971 82.9166 152.931 82.7766 152.891C82.6966 152.871 82.6166 152.841 82.5366 152.821C82.4966 152.811 82.4566 152.791 82.4166 152.781C82.3366 152.751 82.3366 152.751 82.4166 152.791C82.4466 152.851 82.4766 152.901 82.5166 152.961C82.5166 152.941 82.5066 152.931 82.5066 152.911C82.5066 152.981 82.5066 153.041 82.5066 153.111C82.4866 153.171 82.5366 153.091 82.5566 153.061C82.5966 153.021 82.6366 152.981 82.6766 152.941C82.7566 152.861 82.8366 152.781 82.9166 152.701C83.0666 152.551 83.2166 152.401 83.3766 152.251C83.6966 151.941 84.0166 151.641 84.3466 151.341C84.6966 151.011 84.1666 150.481 83.8066 150.801Z" fill="#1D1E1C"/>
<path d="M86.7768 152.211C86.9768 152.221 87.1668 152.261 87.3468 152.341C87.4568 152.391 87.7768 152.561 87.7868 152.641C87.7868 152.571 87.7868 152.511 87.7868 152.441C87.8268 152.401 87.8168 152.401 87.7668 152.461C87.7368 152.491 87.7068 152.531 87.6768 152.561C87.6168 152.631 87.5468 152.691 87.4768 152.751C87.3568 152.861 87.2368 152.971 87.1268 153.081C86.8868 153.311 86.6568 153.561 86.4668 153.841C86.1068 154.381 85.8968 154.991 85.8168 155.631C85.7968 155.831 86.0068 156.001 86.1868 156.001C86.4068 156.001 86.5368 155.831 86.5568 155.631C86.6068 155.191 86.7668 154.751 87.0068 154.371C87.2668 153.941 87.6368 153.611 88.0068 153.271C88.1768 153.111 88.4268 152.911 88.5068 152.671C88.6068 152.361 88.3868 152.121 88.1568 151.951C87.7568 151.631 87.2868 151.471 86.7768 151.441C86.2868 151.441 86.2968 152.191 86.7768 152.211Z" fill="#1D1E1C"/>
<path d="M85.7368 154.001C86.1368 154.011 86.4468 154.061 86.8468 154.171C86.9368 154.201 87.0268 154.231 87.1168 154.261C87.1668 154.281 87.2168 154.301 87.2668 154.321C87.2768 154.321 87.3768 154.361 87.3268 154.341C87.5168 154.421 87.6968 154.511 87.8668 154.611C88.0368 154.711 88.2868 154.651 88.3768 154.481C88.4668 154.301 88.4268 154.071 88.2468 153.971C87.4768 153.521 86.6068 153.281 85.7268 153.251C85.5268 153.241 85.3468 153.431 85.3568 153.621C85.3768 153.841 85.5268 154.001 85.7368 154.001Z" fill="#1D1E1C"/>
<path d="M77.487 150.401C77.687 150.431 77.877 150.471 78.077 150.521C78.177 150.551 78.267 150.581 78.357 150.611C78.407 150.631 78.447 150.641 78.497 150.661C78.517 150.671 78.607 150.711 78.587 150.701C78.567 150.691 78.667 150.731 78.677 150.741C78.717 150.761 78.767 150.781 78.807 150.801C78.897 150.841 78.977 150.891 79.067 150.941C79.147 150.991 79.237 151.041 79.317 151.101C79.357 151.131 79.397 151.161 79.437 151.181C79.457 151.191 79.477 151.211 79.497 151.221C79.467 151.201 79.477 151.201 79.507 151.231C79.657 151.351 79.887 151.391 80.037 151.231C80.157 151.091 80.197 150.831 80.037 150.701C79.357 150.161 78.547 149.791 77.687 149.661C77.497 149.631 77.277 149.711 77.227 149.921C77.187 150.121 77.277 150.371 77.487 150.401Z" fill="#1D1E1C"/>
<path d="M79.6064 149.091C78.7764 149.581 78.0764 150.281 77.6064 151.121C77.5064 151.291 77.5564 151.541 77.7364 151.631C77.9164 151.721 78.1464 151.681 78.2464 151.501C78.3564 151.311 78.4664 151.131 78.5964 150.961C78.6164 150.931 78.6364 150.911 78.6064 150.951C78.6264 150.931 78.6464 150.901 78.6664 150.881C78.6964 150.841 78.7264 150.801 78.7664 150.761C78.8364 150.681 78.9164 150.591 78.9964 150.511C79.1464 150.361 79.3064 150.211 79.4764 150.081C79.5564 150.021 79.4164 150.121 79.4964 150.061C79.5164 150.041 79.5364 150.031 79.5564 150.011C79.6064 149.981 79.6464 149.941 79.6964 149.911C79.7864 149.851 79.8864 149.791 79.9864 149.731C80.1564 149.631 80.2264 149.391 80.1164 149.221C80.0164 149.051 79.7864 148.981 79.6064 149.091Z" fill="#1D1E1C"/>
<path d="M80.8167 146.121C80.9767 146.121 81.1267 146.121 81.2867 146.131C81.3667 146.141 81.4567 146.141 81.5367 146.151C81.5367 146.151 81.6567 146.161 81.5767 146.151C81.6167 146.161 81.6567 146.161 81.6967 146.171C82.0067 146.221 82.3167 146.301 82.6167 146.401C82.8067 146.461 83.0367 146.331 83.0767 146.141C83.1267 145.931 83.0167 145.751 82.8167 145.681C82.1767 145.461 81.4867 145.361 80.8167 145.371C80.6167 145.371 80.4367 145.541 80.4467 145.741C80.4467 145.941 80.6067 146.121 80.8167 146.121Z" fill="#1D1E1C"/>
<path d="M82.1066 144.671C81.6766 145.431 81.2766 146.201 80.9066 147.001C80.8266 147.181 80.8466 147.411 81.0366 147.511C81.1966 147.601 81.4566 147.571 81.5466 147.381C81.9066 146.591 82.3066 145.811 82.7466 145.051C82.8466 144.881 82.7966 144.631 82.6166 144.541C82.4466 144.441 82.2166 144.491 82.1066 144.671Z" fill="#1D1E1C"/>
<path d="M86.2873 146.391C86.3673 146.371 86.2373 146.381 86.3173 146.391C86.3473 146.391 86.3773 146.391 86.4173 146.391C86.3273 146.381 86.4273 146.391 86.4473 146.401C86.4573 146.401 86.5673 146.441 86.5273 146.421C86.4873 146.401 86.5773 146.451 86.5873 146.451C86.5973 146.461 86.6773 146.511 86.6473 146.481C86.6073 146.461 86.6873 146.511 86.6973 146.521C86.7073 146.531 86.7673 146.601 86.7373 146.561C86.7073 146.531 86.7673 146.601 86.7673 146.611C86.7773 146.631 86.8173 146.731 86.7873 146.641C86.7973 146.671 86.8073 146.701 86.8073 146.731C86.7873 146.671 86.7973 146.711 86.8073 146.751C86.8173 146.821 86.8173 146.701 86.8073 146.781C86.7973 146.861 86.8173 146.751 86.8273 146.771C86.8373 146.781 86.7273 146.841 86.7973 146.801C86.7673 146.821 86.7373 146.841 86.7073 146.851C86.3873 147.021 86.0573 147.171 85.7273 147.331C85.6473 147.371 85.5573 147.411 85.4773 147.451C85.4373 147.471 85.3973 147.491 85.3573 147.511C85.3673 147.511 85.2473 147.561 85.2973 147.541C85.2673 147.551 85.2473 147.561 85.2173 147.571C85.1773 147.581 85.1673 147.581 85.1873 147.581C85.2073 147.581 85.1973 147.581 85.1573 147.581C85.1773 147.581 85.1873 147.581 85.2073 147.591C85.2273 147.591 85.2373 147.601 85.2473 147.621C85.2273 147.591 85.2173 147.591 85.2373 147.611C85.2673 147.671 85.2973 147.751 85.2573 147.821C85.1173 147.881 84.9773 147.931 84.8373 147.991C84.9773 148.021 85.1273 148.051 85.2673 148.091C85.3273 148.111 85.3973 148.131 85.4573 148.151C85.4973 148.161 85.5273 148.181 85.5673 148.191C85.5273 148.171 85.5973 148.201 85.6073 148.211C85.7373 148.271 85.8573 148.331 85.9773 148.401C86.0373 148.431 86.0873 148.471 86.1473 148.511C86.1773 148.531 86.2073 148.561 86.2473 148.581C86.3073 148.621 86.2373 148.571 86.2973 148.621C86.4473 148.741 86.6773 148.781 86.8273 148.621C86.9473 148.481 86.9873 148.221 86.8273 148.091C86.3073 147.681 85.7073 147.391 85.0473 147.271C84.8773 147.241 84.7173 147.291 84.6273 147.441C84.4873 147.651 84.5473 147.921 84.7073 148.111C84.8773 148.301 85.1373 148.351 85.3773 148.311C85.5873 148.271 85.7773 148.151 85.9673 148.061C86.1573 147.971 86.3373 147.881 86.5273 147.781C86.8873 147.601 87.3773 147.461 87.5273 147.041C87.6573 146.681 87.5173 146.281 87.2673 146.011C86.9773 145.691 86.5373 145.561 86.1173 145.651C85.9273 145.691 85.7973 145.931 85.8573 146.111C85.8873 146.341 86.0773 146.431 86.2873 146.391Z" fill="#1D1E1C"/>
<path d="M89.7568 147.081C89.0668 147.661 88.4668 148.361 87.9968 149.131C87.8968 149.301 87.9568 149.551 88.1268 149.641C88.3068 149.741 88.5268 149.681 88.6368 149.511C88.7468 149.331 88.8668 149.151 88.9868 148.971C89.0168 148.931 89.0468 148.891 89.0768 148.851C89.0968 148.831 89.1068 148.801 89.1268 148.781C89.0968 148.821 89.1268 148.781 89.1368 148.761C89.2068 148.681 89.2768 148.591 89.3468 148.511C89.6268 148.181 89.9368 147.881 90.2768 147.601C90.4268 147.471 90.4168 147.201 90.2768 147.071C90.1268 146.941 89.9168 146.951 89.7568 147.081Z" fill="#1D1E1C"/>
<path d="M86.7472 142.461C86.9172 142.501 87.0872 142.551 87.2472 142.621C87.2172 142.611 87.1872 142.591 87.1572 142.581C87.3972 142.681 87.6272 142.811 87.8372 142.971C87.9072 143.021 88.0472 143.031 88.1272 143.011C88.2172 142.991 88.3072 142.921 88.3472 142.841C88.3972 142.751 88.4172 142.651 88.3872 142.551C88.3572 142.451 88.2972 142.391 88.2172 142.331C87.8472 142.051 87.4072 141.841 86.9472 141.741C86.7572 141.701 86.5372 141.801 86.4872 142.001C86.4472 142.191 86.5472 142.411 86.7472 142.461Z" fill="#1D1E1C"/>
<path d="M90.5067 141.931C90.2567 142.271 90.0067 142.611 89.7567 142.951C89.7067 143.021 89.6967 143.151 89.7167 143.241C89.7367 143.331 89.8067 143.421 89.8867 143.461C89.9767 143.511 90.0767 143.531 90.1767 143.501C90.2767 143.471 90.3367 143.411 90.3967 143.331C90.6467 142.991 90.8967 142.651 91.1467 142.311C91.1967 142.241 91.2067 142.111 91.1867 142.021C91.1667 141.931 91.0967 141.841 91.0167 141.801C90.9267 141.751 90.8267 141.731 90.7267 141.761C90.6367 141.791 90.5667 141.851 90.5067 141.931Z" fill="#1D1E1C"/>
<path d="M89.9069 143.771C90.1169 143.821 90.3269 143.811 90.5369 143.791C90.7269 143.771 90.9169 143.741 91.0569 143.791C91.0769 143.801 91.0669 143.791 91.0969 143.811C91.1269 143.841 91.1669 143.871 91.1969 143.911C91.2469 143.971 91.2969 144.061 91.3369 144.131C91.4269 144.281 91.5169 144.481 91.5369 144.631C91.5569 144.791 91.5369 144.921 91.4369 145.051C91.4769 145.001 91.3969 145.081 91.3869 145.091C91.3769 145.101 91.3569 145.111 91.3469 145.131C91.3569 145.121 91.3869 145.101 91.3469 145.131C91.3169 145.151 91.2869 145.171 91.2569 145.191C91.2369 145.201 91.2169 145.211 91.1869 145.221C91.1269 145.251 91.2269 145.211 91.1769 145.231C90.8569 145.341 90.6069 145.341 90.2669 145.201C89.8669 145.041 89.5369 144.731 89.2169 144.441C89.0669 144.301 88.8369 144.291 88.6869 144.441C88.5469 144.581 88.5369 144.831 88.6869 144.971C89.0669 145.321 89.4569 145.661 89.9369 145.871C90.3869 146.061 90.8969 146.121 91.3569 145.961C91.8569 145.791 92.2269 145.401 92.2769 144.861C92.3369 144.321 92.0369 143.741 91.6869 143.351C91.4769 143.111 91.1769 143.021 90.8569 143.021C90.7269 143.021 90.5869 143.041 90.4569 143.051C90.3369 143.061 90.1769 143.061 90.0969 143.051C89.8969 143.011 89.6969 143.111 89.6369 143.311C89.5969 143.501 89.7069 143.721 89.9069 143.771Z" fill="#1D1E1C"/>
<path d="M91.1067 142.671C91.6167 142.721 92.1367 142.771 92.6467 142.821C92.8467 142.841 93.0267 142.631 93.0167 142.451C93.0067 142.231 92.8567 142.101 92.6467 142.081C92.1367 142.031 91.6167 141.981 91.1067 141.931C90.9067 141.911 90.7267 142.121 90.7367 142.301C90.7467 142.521 90.8967 142.651 91.1067 142.671Z" fill="#1D1E1C"/>
<path d="M66.8881 169.751C66.8781 169.721 66.8781 169.661 66.8581 169.631C66.8481 169.621 66.868 169.611 66.848 169.651C66.808 169.701 66.778 169.761 66.738 169.811C66.668 169.901 66.598 170.001 66.528 170.091C66.378 170.291 66.208 170.491 66.048 170.681C65.708 171.081 65.358 171.451 64.978 171.821C64.838 171.961 64.838 172.211 64.978 172.351C65.118 172.491 65.358 172.491 65.508 172.351C65.938 171.931 66.338 171.491 66.728 171.041C66.928 170.801 67.118 170.561 67.308 170.311C67.518 170.031 67.718 169.741 67.538 169.381C67.448 169.201 67.1881 169.151 67.028 169.251C66.838 169.351 66.7981 169.571 66.8881 169.751Z" fill="#1D1E1C"/>
<path d="M69.3473 170.721C69.6973 170.791 70.0073 170.911 70.3173 171.081C70.3973 171.131 70.4773 171.181 70.5573 171.231C70.5773 171.241 70.6473 171.311 70.6773 171.311C70.6273 171.281 70.6273 171.231 70.6673 171.161C70.6973 171.011 70.6973 170.981 70.6373 171.041C70.5673 171.081 70.4973 171.181 70.4373 171.231C70.3673 171.301 70.2973 171.371 70.2173 171.431C69.6573 171.941 69.0573 172.401 68.4173 172.801C68.2473 172.911 68.1773 173.131 68.2873 173.311C68.3873 173.481 68.6273 173.551 68.7973 173.441C69.5873 172.951 70.3373 172.371 71.0073 171.721C71.1973 171.531 71.4273 171.321 71.3473 171.031C71.2873 170.781 71.0173 170.631 70.8073 170.501C70.4173 170.261 69.9873 170.081 69.5373 169.991C69.3373 169.951 69.1373 170.051 69.0773 170.251C69.0373 170.441 69.1573 170.671 69.3473 170.721Z" fill="#1D1E1C"/>
<path d="M69.1776 172.231C69.4876 172.411 69.7876 172.611 70.0676 172.821C70.0376 172.801 70.0176 172.781 69.9876 172.761C70.0176 172.791 70.0576 172.811 70.0876 172.841C70.1676 172.901 70.2476 172.951 70.3476 172.951C70.4376 172.951 70.5476 172.911 70.6076 172.841C70.6776 172.771 70.7176 172.681 70.7176 172.581C70.7176 172.491 70.6876 172.381 70.6076 172.321C70.2676 172.051 69.9176 171.801 69.5376 171.591C69.3676 171.491 69.1176 171.541 69.0276 171.721C68.9576 171.901 68.9976 172.131 69.1776 172.231Z" fill="#1D1E1C"/>
<path d="M73.9973 172.091C73.4773 171.891 72.6973 171.901 72.2673 172.321C71.7873 172.781 72.1673 173.481 72.5673 173.851C72.9673 174.231 73.6073 174.541 74.1673 174.341C74.6873 174.151 74.9073 173.591 75.0273 173.101C75.1173 172.761 74.7673 172.551 74.4773 172.681C74.2373 172.791 74.1573 173.121 74.0673 173.341C73.9673 173.581 73.8673 173.821 73.7373 174.051C73.5173 174.471 73.1873 174.881 72.7173 175.021C72.3073 175.141 71.9473 174.941 71.6273 174.701C71.2673 174.421 70.9373 174.101 70.5173 173.921C70.3273 173.841 70.1173 173.861 70.0073 174.051C69.9173 174.211 69.9573 174.481 70.1373 174.561C70.5873 174.751 70.9273 175.101 71.3173 175.391C71.7473 175.711 72.2573 175.881 72.7873 175.771C73.3573 175.661 73.8273 175.261 74.1573 174.801C74.3173 174.571 74.4473 174.321 74.5673 174.071C74.6273 173.931 74.6873 173.791 74.7473 173.641C74.7773 173.581 74.7973 173.511 74.8273 173.451C74.8373 173.421 74.8573 173.391 74.8673 173.361C74.9073 173.281 74.9073 173.271 74.8573 173.321C74.6773 173.181 74.4873 173.041 74.3073 172.901C74.2473 173.121 74.1873 173.441 73.9973 173.591C73.7673 173.771 73.3773 173.541 73.1873 173.401C73.0673 173.311 72.9573 173.201 72.8873 173.071C72.8573 173.021 72.7973 172.941 72.8073 172.871C72.8173 172.811 72.8073 172.861 72.8273 172.841C72.9073 172.741 73.1573 172.721 73.2773 172.721C73.4673 172.711 73.6373 172.751 73.8173 172.821C74.0073 172.891 74.2273 172.741 74.2773 172.561C74.3173 172.341 74.1873 172.171 73.9973 172.091Z" fill="#1D1E1C"/>
<path d="M70.6476 169.311C67.8776 167.961 64.1176 167.081 61.6576 169.551C60.6676 170.541 60.1976 172.041 60.5076 173.421C60.8276 174.811 61.9976 175.711 63.2876 176.171C64.8576 176.721 66.6276 176.811 68.2676 176.921C70.0676 177.051 71.9276 177.171 73.7076 176.841C75.2376 176.551 76.6676 175.811 77.5576 174.491C78.3776 173.271 78.4876 171.741 77.7176 170.471C76.8076 168.971 75.0976 168.071 73.4776 167.561C71.6576 166.991 69.7176 166.871 67.8176 166.911C67.3376 166.921 67.3376 167.671 67.8176 167.661C70.6176 167.611 73.8176 167.861 76.0676 169.731C77.0876 170.581 77.7876 171.801 77.3776 173.151C76.9676 174.511 75.7576 175.471 74.4476 175.891C73.0076 176.351 71.4676 176.331 69.9776 176.271C68.3976 176.211 66.7976 176.111 65.2276 175.871C64.0176 175.681 62.6676 175.371 61.8276 174.401C60.9776 173.431 60.9976 171.971 61.5976 170.881C62.3276 169.561 63.8376 168.871 65.2876 168.751C67.0276 168.611 68.7176 169.221 70.2676 169.971C70.7076 170.171 71.0876 169.521 70.6476 169.311Z" fill="#E9574A"/>
<path d="M53.9065 159.501C53.9065 159.531 53.8965 159.561 53.8965 159.591C53.8965 159.561 53.9065 159.521 53.9065 159.491C53.8865 159.631 53.8465 159.781 53.7965 159.911C53.8065 159.881 53.8265 159.851 53.8365 159.821C53.8165 159.861 53.8065 159.891 53.7865 159.931C53.7365 160.021 53.7165 160.121 53.7465 160.221C53.7665 160.311 53.8365 160.401 53.9165 160.441C54.0065 160.491 54.1065 160.511 54.2065 160.481C54.2965 160.451 54.3865 160.391 54.4265 160.311C54.4865 160.191 54.5465 160.051 54.5865 159.921C54.6265 159.781 54.6465 159.641 54.6565 159.501C54.6665 159.411 54.6065 159.301 54.5465 159.241C54.4865 159.181 54.3765 159.131 54.2865 159.131C54.1865 159.131 54.0865 159.171 54.0265 159.241C54.0065 159.271 53.9865 159.291 53.9665 159.321C53.9265 159.371 53.9065 159.431 53.9065 159.501Z" fill="#1D1E1C"/>
<path d="M55.7167 160.041C55.7267 160.041 55.8067 160.011 55.7567 160.021C55.7267 160.021 55.7268 160.021 55.7468 160.021C55.7768 160.021 55.7667 160.021 55.7167 160.011C55.7167 160.011 55.7667 160.031 55.7767 160.031C55.7267 160.011 55.7467 160.021 55.7867 160.041C55.8067 160.051 55.8467 160.091 55.7967 160.051C55.8167 160.071 55.8267 160.081 55.8467 160.091C55.8667 160.111 55.8867 160.131 55.9067 160.151C55.9067 160.161 55.9567 160.211 55.9267 160.171C55.8967 160.131 55.9567 160.211 55.9567 160.221C55.9767 160.251 55.9867 160.271 56.0067 160.301C56.0067 160.311 56.0467 160.371 56.0267 160.341C56.0067 160.301 56.0367 160.391 56.0467 160.401C56.0367 160.331 56.0367 160.431 56.0467 160.391C56.0567 160.331 56.0367 160.451 56.0467 160.391C56.0567 160.341 56.0267 160.421 56.0267 160.431C55.9967 160.491 56.0467 160.421 56.0167 160.441C55.9367 160.501 55.8767 160.571 55.7967 160.631C55.7567 160.661 55.7167 160.701 55.6667 160.731C55.7167 160.691 55.6467 160.741 55.6467 160.751C55.6267 160.771 55.5967 160.791 55.5767 160.801C55.4867 160.861 55.3967 160.921 55.3067 160.981C55.2567 161.011 55.2067 161.041 55.1467 161.071C55.1267 161.081 55.1067 161.091 55.0867 161.101C54.9867 161.151 55.1567 161.081 55.0467 161.121C54.8667 161.191 54.7568 161.331 54.7768 161.531C54.7968 161.711 54.9567 161.861 55.1467 161.851C55.2567 161.851 55.3567 161.851 55.4667 161.851C55.4867 161.851 55.5167 161.861 55.5367 161.861C55.5967 161.861 55.4867 161.851 55.5467 161.861C55.6067 161.871 55.6567 161.881 55.7167 161.891C55.8167 161.911 55.9067 161.941 56.0067 161.971C56.0267 161.981 56.0567 161.991 56.0767 162.001C56.1867 162.041 56.0468 161.981 56.1068 162.011C56.1568 162.031 56.2067 162.061 56.2567 162.081C56.4267 162.171 56.6667 162.131 56.7667 161.951C56.8567 161.781 56.8168 161.531 56.6368 161.441C56.1768 161.201 55.6667 161.081 55.1467 161.101C55.1767 161.341 55.2168 161.591 55.2468 161.831C55.5468 161.721 55.8167 161.551 56.0767 161.361C56.3267 161.171 56.6168 160.981 56.7468 160.671C56.9068 160.291 56.7067 159.921 56.4567 159.641C56.2367 159.391 55.8667 159.181 55.5367 159.311C55.3567 159.381 55.2068 159.561 55.2768 159.771C55.3067 159.951 55.5167 160.121 55.7167 160.041Z" fill="#1D1E1C"/>
<path d="M53.4069 162.481C53.4669 162.481 53.5169 162.481 53.5669 162.481C53.6369 162.481 53.5169 162.471 53.5669 162.481C53.5869 162.491 53.6069 162.491 53.6369 162.501C53.7169 162.521 53.5769 162.461 53.6469 162.501C53.6569 162.511 53.6669 162.511 53.6769 162.521C53.6969 162.541 53.6869 162.531 53.6469 162.501L53.6869 162.541C53.7069 162.561 53.6969 162.551 53.6669 162.511C53.6669 162.521 53.6769 162.521 53.6769 162.531C53.6869 162.561 53.6969 162.561 53.6769 162.531C53.6669 162.501 53.6669 162.501 53.6769 162.531C53.6869 162.561 53.6869 162.561 53.6769 162.531C53.6769 162.501 53.6769 162.501 53.6769 162.531C53.6769 162.601 53.6969 162.471 53.6769 162.511C53.6469 162.581 53.6769 162.501 53.6869 162.501C53.6769 162.501 53.6569 162.551 53.6569 162.561C53.6169 162.631 53.7169 162.511 53.6569 162.561C53.6269 162.591 53.5969 162.621 53.5569 162.651C53.5169 162.691 53.5369 162.661 53.5669 162.651C53.5469 162.661 53.5269 162.681 53.5069 162.691C53.4569 162.721 53.4169 162.751 53.3669 162.791C53.2669 162.861 53.1669 162.921 53.0769 162.991C52.8769 163.131 52.6769 163.261 52.4769 163.401C52.3469 163.491 52.2469 163.661 52.3069 163.821C52.3569 163.991 52.4969 164.081 52.6669 164.091C52.9069 164.111 53.1569 164.121 53.3969 164.111C53.5969 164.101 53.7769 163.941 53.7669 163.741C53.7569 163.551 53.6069 163.361 53.3969 163.371C53.1569 163.381 52.9069 163.381 52.6669 163.351C52.7269 163.581 52.7969 163.811 52.8569 164.051C53.0969 163.891 53.3369 163.721 53.5769 163.561C53.8069 163.401 54.0769 163.251 54.2569 163.021C54.4769 162.741 54.4969 162.371 54.2769 162.091C54.0669 161.821 53.7369 161.721 53.4069 161.741C53.2169 161.751 53.0269 161.901 53.0369 162.111C53.0469 162.301 53.1969 162.491 53.4069 162.481Z" fill="#1D1E1C"/>
<path d="M55.4872 163.161C55.5272 163.161 55.5572 163.161 55.5972 163.161C55.6572 163.161 55.6172 163.171 55.5872 163.161C55.5972 163.171 55.6172 163.171 55.6372 163.171C55.6472 163.171 55.7172 163.201 55.6572 163.171C55.6072 163.151 55.6572 163.171 55.6672 163.181C55.7072 163.201 55.6172 163.121 55.6572 163.171C55.6472 163.151 55.6172 163.111 55.6372 163.151C55.6172 163.101 55.6172 163.091 55.6172 163.121C55.6272 163.141 55.6272 163.131 55.6172 163.101C55.6172 163.041 55.6172 163.101 55.6172 163.111C55.6272 163.151 55.6372 163.031 55.6172 163.101C55.6172 163.121 55.6072 163.131 55.6072 163.151C55.5872 163.231 55.6372 163.111 55.6072 163.151C55.5972 163.171 55.5872 163.191 55.5772 163.211C55.5672 163.231 55.5572 163.241 55.5472 163.261C55.5372 163.271 55.4972 163.331 55.5272 163.291C55.5572 163.251 55.5172 163.301 55.5172 163.301C55.5072 163.321 55.4872 163.331 55.4672 163.351C55.4372 163.381 55.4072 163.411 55.3772 163.441C55.3172 163.501 55.2572 163.551 55.1972 163.611C55.1572 163.641 55.2472 163.571 55.2072 163.601C55.1872 163.611 55.1672 163.631 55.1472 163.641C55.1172 163.661 55.0772 163.691 55.0472 163.711C54.9772 163.761 54.8972 163.801 54.8172 163.841C54.6872 163.901 54.6172 164.081 54.6372 164.211C54.6572 164.361 54.7572 164.481 54.9072 164.521C55.2472 164.631 55.5872 164.731 55.9272 164.841C56.1172 164.901 56.3472 164.771 56.3872 164.581C56.4372 164.381 56.3272 164.181 56.1272 164.121C55.7872 164.011 55.4472 163.911 55.1072 163.801C55.1372 164.031 55.1672 164.261 55.1972 164.481C55.4072 164.381 55.5972 164.251 55.7772 164.091C55.9472 163.941 56.1272 163.761 56.2372 163.561C56.3772 163.291 56.4172 162.971 56.2172 162.711C56.0372 162.481 55.7572 162.421 55.4872 162.431C55.2872 162.431 55.1072 162.601 55.1172 162.801C55.1172 162.981 55.2772 163.161 55.4872 163.161Z" fill="#1D1E1C"/>
<path d="M51.9068 164.941C53.3768 165.711 54.9568 166.261 56.5868 166.571C57.0568 166.661 57.2568 165.941 56.7868 165.851C55.2168 165.561 53.6968 165.04 52.2868 164.3C51.8568 164.07 51.4768 164.721 51.9068 164.941Z" fill="#1D1E1C"/>
<path d="M51.8872 166.221C51.8672 166.321 51.8472 166.421 51.8072 166.521C51.8072 166.531 51.7972 166.541 51.7972 166.551C51.7972 166.551 51.8272 166.481 51.8072 166.521C51.7972 166.541 51.7872 166.571 51.7772 166.591C51.7472 166.641 51.7272 166.691 51.6972 166.741C51.5972 166.921 51.4772 167.101 51.3772 167.281C51.3272 167.371 51.2772 167.461 51.2372 167.561C51.1872 167.681 51.1472 167.801 51.1872 167.931C51.2172 168.051 51.3072 168.151 51.4072 168.201C51.6372 168.321 51.9372 168.361 52.1972 168.361C52.5172 168.361 52.8072 168.291 53.0972 168.161C53.1772 168.131 53.2472 168.021 53.2672 167.941C53.2872 167.851 53.2772 167.731 53.2272 167.651C53.1772 167.571 53.0972 167.501 53.0072 167.481C52.9072 167.461 52.8172 167.481 52.7172 167.521C52.8072 167.481 52.7272 167.521 52.7072 167.521C52.6772 167.531 52.6572 167.541 52.6272 167.551C52.5772 167.571 52.5272 167.581 52.4672 167.591C52.4372 167.601 52.4172 167.601 52.3872 167.601C52.2972 167.621 52.4672 167.591 52.3772 167.601C52.3272 167.601 52.2672 167.611 52.2172 167.611C52.1672 167.611 52.1072 167.611 52.0572 167.601C52.0472 167.601 52.0372 167.601 52.0272 167.601C51.9872 167.601 51.9872 167.601 52.0472 167.601C52.0272 167.601 51.9872 167.591 51.9672 167.591C51.9172 167.581 51.8672 167.571 51.8272 167.551C51.7972 167.541 51.7772 167.531 51.7472 167.531C51.6472 167.501 51.7872 167.561 51.7472 167.521C51.7872 167.561 51.8372 167.611 51.8772 167.651C51.8872 167.721 51.8972 167.781 51.9072 167.851C51.8972 167.861 51.8972 167.881 51.8872 167.891C51.8972 167.881 51.8972 167.861 51.9072 167.841C51.9172 167.811 51.9372 167.781 51.9472 167.751C51.9772 167.691 52.0172 167.621 52.0472 167.561C52.1172 167.441 52.1972 167.321 52.2672 167.201C52.4172 166.951 52.5572 166.671 52.6072 166.381C52.6272 166.281 52.6272 166.181 52.5672 166.091C52.5172 166.011 52.4372 165.941 52.3472 165.921C52.1672 165.911 51.9272 166.011 51.8872 166.221Z" fill="#1D1E1C"/>
<path d="M52.4574 167.581C52.3474 167.841 52.2374 168.111 52.1274 168.371C52.0974 168.451 52.1174 168.581 52.1674 168.661C52.2174 168.741 52.2974 168.811 52.3874 168.831C52.4874 168.851 52.5874 168.851 52.6774 168.791C52.7074 168.771 52.7274 168.751 52.7574 168.731C52.8074 168.681 52.8374 168.631 52.8574 168.561C52.9674 168.301 53.0774 168.031 53.1874 167.771C53.2174 167.691 53.1974 167.561 53.1474 167.481C53.0974 167.401 53.0174 167.331 52.9274 167.311C52.8274 167.291 52.7274 167.291 52.6374 167.351C52.6074 167.371 52.5874 167.391 52.5574 167.411C52.5074 167.471 52.4774 167.521 52.4574 167.581Z" fill="#1D1E1C"/>
<path d="M54.8368 167.431C54.8568 167.431 54.8768 167.421 54.8968 167.421C54.8468 167.431 54.8368 167.431 54.8868 167.421C54.9168 167.421 54.9468 167.421 54.9768 167.421C54.9968 167.421 55.0168 167.421 55.0368 167.421C55.0768 167.421 55.0768 167.421 55.0268 167.421L55.1068 167.441C55.1468 167.451 55.1768 167.461 55.2168 167.471C55.3068 167.501 55.1568 167.431 55.2368 167.481C55.2468 167.491 55.3268 167.521 55.3368 167.541C55.3268 167.531 55.3168 167.521 55.2968 167.511C55.2568 167.471 55.2368 167.421 55.2368 167.361C55.2468 167.261 55.2368 167.381 55.2168 167.401C55.2268 167.391 55.2268 167.371 55.2368 167.361C55.2268 167.381 55.2268 167.391 55.2168 167.411C55.1868 167.461 55.1668 167.521 55.1368 167.571C55.1068 167.621 55.0768 167.671 55.0368 167.721C55.0268 167.731 55.0168 167.751 55.0068 167.761C55.0368 167.721 55.0468 167.711 55.0268 167.731C55.0068 167.751 54.9868 167.781 54.9668 167.801C54.9268 167.841 54.8868 167.891 54.8468 167.931C54.8068 167.961 54.7568 168.031 54.7168 168.051C54.7568 168.021 54.7668 168.011 54.7468 168.031C54.7368 168.041 54.7268 168.051 54.7168 168.051C54.6868 168.071 54.6568 168.091 54.6368 168.111C54.5868 168.141 54.5368 168.171 54.4868 168.201C54.4668 168.211 54.4368 168.221 54.4168 168.231C54.3968 168.241 54.3868 168.241 54.3668 168.251C54.3268 168.271 54.3368 168.261 54.3868 168.241C54.3468 168.271 54.2668 168.281 54.2168 168.301C54.1668 168.321 54.1068 168.331 54.0568 168.341C54.0268 168.351 53.9968 168.351 53.9668 168.361C53.9268 168.371 53.9368 168.371 53.9868 168.361C53.9668 168.361 53.9568 168.361 53.9368 168.371C53.7468 168.391 53.5568 168.531 53.5668 168.741C53.5768 168.961 53.7268 169.091 53.9368 169.111C54.2268 169.141 54.5168 169.161 54.8068 169.191C55.0068 169.211 55.1868 169.001 55.1768 168.821C55.1668 168.601 55.0168 168.471 54.8068 168.451C54.5168 168.421 54.2268 168.401 53.9368 168.371C53.9368 168.621 53.9368 168.871 53.9368 169.121C54.4768 169.061 54.9668 168.841 55.3668 168.481C55.5468 168.311 55.7068 168.111 55.8268 167.891C55.8968 167.771 55.9668 167.631 55.9868 167.491C56.0268 167.231 55.9268 167.031 55.7168 166.891C55.4068 166.691 55.0268 166.641 54.6668 166.711C54.4768 166.751 54.3468 166.991 54.4068 167.171C54.4468 167.371 54.6268 167.471 54.8368 167.431Z" fill="#1D1E1C"/>
<path d="M51.8969 160.371C53.3769 159.881 54.927 159.701 56.477 159.841C56.437 159.731 56.3869 159.631 56.3469 159.521C54.8469 160.891 52.737 161.551 51.587 163.311C51.517 163.421 51.607 163.611 51.747 163.591C53.857 163.321 55.967 163.111 58.087 162.961C58.047 162.851 57.9969 162.751 57.9569 162.641C55.9969 164.671 53.077 165.141 50.637 166.341C50.467 166.431 50.557 166.681 50.727 166.691C52.987 166.741 55.5069 166.251 57.5169 167.571C57.7169 167.701 57.9069 167.381 57.7069 167.251C55.6369 165.881 53.057 166.371 50.727 166.311C50.757 166.431 50.7869 166.541 50.8169 166.661C53.2969 165.441 56.2269 164.961 58.2169 162.901C58.3269 162.791 58.257 162.571 58.087 162.581C55.967 162.731 53.847 162.941 51.747 163.211C51.797 163.301 51.8569 163.401 51.9069 163.491C53.0369 161.781 55.137 161.121 56.607 159.781C56.737 159.661 56.627 159.471 56.477 159.461C54.897 159.311 53.2969 159.501 51.7969 160.001C51.5769 160.091 51.6669 160.451 51.8969 160.371Z" fill="#1D1E1C"/>
<path d="M66.2072 148.961C66.2772 148.991 66.3472 149.031 66.4172 149.071C66.4572 149.091 66.3772 149.031 66.4072 149.061C66.4172 149.071 66.4372 149.091 66.4472 149.101C66.4772 149.121 66.4072 149.031 66.4472 149.101C66.4372 149.071 66.4372 149.041 66.4372 149.091C66.4372 149.061 66.4372 149.031 66.4372 149.071C66.4372 149.051 66.4472 149.001 66.4372 149.051C66.4272 149.111 66.4372 149.041 66.4472 149.041C66.4472 149.041 66.3972 149.121 66.4272 149.071C66.4472 149.031 66.4172 149.081 66.4072 149.091C66.3972 149.101 66.3772 149.121 66.3672 149.131C66.3572 149.141 66.3072 149.181 66.3472 149.151C66.3872 149.121 66.3072 149.171 66.3072 149.171C66.2772 149.191 66.2372 149.211 66.1972 149.231C66.1772 149.241 66.1572 149.251 66.1272 149.261C66.1072 149.271 66.0772 149.281 66.1172 149.271C66.0172 149.311 65.9172 149.341 65.8172 149.371C65.7172 149.401 65.6172 149.421 65.5072 149.441C65.5472 149.431 65.5272 149.441 65.4972 149.441C65.4672 149.441 65.4372 149.451 65.4072 149.451C65.3472 149.451 65.2972 149.461 65.2372 149.461C64.9272 149.471 64.7272 149.871 64.9772 150.101C65.2872 150.381 65.5972 150.661 65.8972 150.931C66.0472 151.061 66.2872 151.081 66.4272 150.931C66.5572 150.791 66.5872 150.541 66.4272 150.401C66.1172 150.121 65.8072 149.841 65.5072 149.571C65.4172 149.781 65.3272 150.001 65.2472 150.211C65.5372 150.201 65.8372 150.161 66.1072 150.071C66.3872 149.981 66.6572 149.861 66.8772 149.671C67.1072 149.471 67.2372 149.161 67.1472 148.861C67.0672 148.591 66.8272 148.411 66.5872 148.311C66.4072 148.231 66.1772 148.251 66.0772 148.441C65.9872 148.611 66.0072 148.881 66.2072 148.961Z" fill="#1D1E1C"/>
<path d="M62.0774 149.741C63.1674 151.051 64.4274 152.191 65.8174 153.171C65.9874 153.291 66.2374 153.201 66.3274 153.041C66.4374 152.851 66.3574 152.641 66.1974 152.531C64.8574 151.591 63.6574 150.471 62.6174 149.221C62.4874 149.061 62.2174 149.091 62.0874 149.221C61.9274 149.361 61.9474 149.581 62.0774 149.741Z" fill="#1D1E1C"/>
<path d="M60.9375 150.621C60.9275 150.641 60.9075 150.651 60.8975 150.671C60.9175 150.611 60.9375 150.621 60.9175 150.641C60.9075 150.651 60.9075 150.661 60.8975 150.661C60.8675 150.701 60.8375 150.731 60.7975 150.761C60.7675 150.791 60.7275 150.821 60.6975 150.851C60.6875 150.861 60.6775 150.861 60.6775 150.871C60.6475 150.901 60.7175 150.841 60.7075 150.841C60.6875 150.851 60.6675 150.871 60.6475 150.891C60.4575 151.031 60.2675 151.151 60.0775 151.291C59.9475 151.391 59.8175 151.491 59.6875 151.601C59.5075 151.751 59.3275 151.941 59.4175 152.201C59.4775 152.381 59.6375 152.511 59.7875 152.621C59.9075 152.711 60.0275 152.791 60.1575 152.861C60.4875 153.021 60.8475 153.111 61.2175 153.121C61.4175 153.121 61.5975 152.941 61.5875 152.751C61.5775 152.541 61.4275 152.381 61.2175 152.381C61.1575 152.381 61.0875 152.371 61.0275 152.371C61.1175 152.381 61.0175 152.371 60.9975 152.371C60.9675 152.361 60.9375 152.361 60.9075 152.351C60.8475 152.341 60.7875 152.321 60.7275 152.301C60.6975 152.291 60.6675 152.281 60.6375 152.271C60.6275 152.271 60.5375 152.221 60.6075 152.261C60.4975 152.201 60.3875 152.151 60.2775 152.071C60.2675 152.061 60.1875 152.001 60.2475 152.051C60.2275 152.031 60.2075 152.021 60.1875 152.001C60.1675 151.981 60.1375 151.961 60.1175 151.941C60.1075 151.931 60.0975 151.921 60.0875 151.911C60.0475 151.861 60.0575 151.891 60.1375 151.991C60.1375 152.061 60.1375 152.121 60.1375 152.191C60.1375 152.221 60.0275 152.321 60.1175 152.241C60.1375 152.221 60.1675 152.201 60.1875 152.181C60.2275 152.141 60.2675 152.111 60.3075 152.081C60.3475 152.051 60.3875 152.021 60.4275 151.991C60.4875 151.951 60.4075 152.011 60.4375 151.981C60.4575 151.971 60.4675 151.961 60.4875 151.941C60.6275 151.841 60.7675 151.751 60.8975 151.651C61.1675 151.471 61.4075 151.281 61.5875 151.011C61.6975 150.851 61.6275 150.591 61.4575 150.501C61.2675 150.391 61.0575 150.451 60.9375 150.621Z" fill="#1D1E1C"/>
<path d="M61.3175 152.271C61.0775 152.501 60.8275 152.721 60.5875 152.951C60.5175 153.011 60.4775 153.121 60.4775 153.211C60.4775 153.301 60.5175 153.411 60.5875 153.471C60.6575 153.541 60.7475 153.581 60.8475 153.581C60.9475 153.581 61.0375 153.541 61.1075 153.471C61.3475 153.241 61.5975 153.021 61.8375 152.791C61.9075 152.731 61.9475 152.621 61.9475 152.531C61.9475 152.441 61.9075 152.331 61.8375 152.271C61.7675 152.201 61.6775 152.161 61.5775 152.161C61.4775 152.161 61.3875 152.201 61.3175 152.271Z" fill="#1D1E1C"/>
<path d="M65.2573 148.701C66.5473 149.141 67.8373 149.601 69.1073 150.071C69.1073 149.951 69.1073 149.831 69.1073 149.711C66.0373 150.901 62.7473 150.001 59.5673 150.091C59.3973 150.091 59.2973 150.351 59.4773 150.441C61.8473 151.591 64.7673 152.281 66.2473 154.671C66.3373 154.581 66.4173 154.501 66.5073 154.411C65.5573 153.991 64.6073 153.571 63.6573 153.151C62.1273 152.481 60.5873 151.811 59.0273 151.221C58.7673 151.121 58.4973 151.021 58.2273 150.941C58.1473 150.921 58.0673 150.901 57.9873 150.881C57.9473 150.871 57.9073 150.871 57.8673 150.871C57.7973 150.871 57.8573 150.871 57.9073 150.891C57.9373 150.941 57.9673 151.001 57.9973 151.051C57.9673 151.101 57.9373 151.161 57.9073 151.211C57.8673 151.231 57.7973 151.231 57.8673 151.231C57.9073 151.231 57.9573 151.231 57.9973 151.221C58.1473 151.211 58.2873 151.211 58.4373 151.211C58.9373 151.211 59.4273 151.221 59.9273 151.231C61.3773 151.281 62.8273 151.401 64.2573 151.651C65.1073 151.801 65.9473 151.991 66.7573 152.261C66.9873 152.341 67.0873 151.981 66.8573 151.901C65.3273 151.381 63.7073 151.141 62.1073 150.991C60.8673 150.871 59.6273 150.821 58.3773 150.831C58.1873 150.831 57.6473 150.751 57.6273 151.041C57.6173 151.101 57.6673 151.171 57.7173 151.201C57.7773 151.231 57.8273 151.221 57.8873 151.231C57.9373 151.231 57.8573 151.221 57.9173 151.231C57.9573 151.241 57.9873 151.251 58.0273 151.261C58.2373 151.311 58.4473 151.391 58.6573 151.461C59.3473 151.711 60.0273 151.991 60.6973 152.271C62.2373 152.911 63.7573 153.571 65.2773 154.251C65.6273 154.401 65.9673 154.561 66.3173 154.711C66.4773 154.781 66.6773 154.631 66.5773 154.451C65.0473 152.001 62.1173 151.281 59.6773 150.091C59.6473 150.211 59.6173 150.321 59.5873 150.441C62.7973 150.351 66.1273 151.251 69.2273 150.051C69.3973 149.981 69.4073 149.761 69.2273 149.691C67.9473 149.211 66.6673 148.751 65.3773 148.321C65.1273 148.261 65.0273 148.621 65.2573 148.701Z" fill="#1D1E1C"/>
<path d="M80.9576 171.581C80.5376 172.461 80.1176 173.351 79.7076 174.241C79.3176 175.101 78.8476 175.981 78.6576 176.911C78.5676 177.331 79.0976 177.551 79.3376 177.201C79.9176 176.371 80.4176 175.491 80.8076 174.571C81.2276 173.601 81.5276 172.591 81.8476 171.591C81.9576 171.241 81.4676 170.941 81.2176 171.231C81.0676 171.411 80.9176 171.591 80.7676 171.761C80.4576 172.121 80.9876 172.661 81.2976 172.291C81.4476 172.111 81.5976 171.931 81.7476 171.761C81.5376 171.641 81.3276 171.521 81.1176 171.401C80.8076 172.371 80.5177 173.361 80.1077 174.291C79.7177 175.181 79.2376 176.041 78.6776 176.831C78.9076 176.931 79.1377 177.021 79.3577 177.121C79.5477 176.211 79.9976 175.371 80.3776 174.531C80.7676 173.671 81.1776 172.821 81.5776 171.971C81.8076 171.521 81.1676 171.141 80.9576 171.581Z" fill="#E9574A"/>
<path d="M78.2077 178.381C77.9377 178.521 77.6877 178.711 77.4577 178.921C77.2677 179.101 77.3377 179.501 77.6277 179.551C77.8577 179.591 78.0777 179.581 78.3077 179.541C78.4877 179.511 78.6577 179.451 78.8377 179.391C78.6977 179.211 78.5577 179.021 78.4177 178.841C78.3577 178.941 78.2877 179.031 78.2277 179.131C78.1577 179.241 78.1677 179.401 78.2277 179.511C78.2977 179.631 78.4177 179.681 78.5477 179.701C78.6377 179.711 78.7377 179.721 78.8277 179.731C78.7377 179.521 78.6477 179.301 78.5677 179.091C78.4277 179.231 78.2977 179.381 78.1477 179.521C78.1377 179.531 78.1377 179.531 78.1277 179.541C78.1077 179.561 78.1177 179.551 78.1577 179.521C78.1577 179.521 78.0677 179.561 78.1377 179.541C78.1977 179.521 78.1277 179.541 78.1177 179.541C78.1377 179.541 78.1577 179.531 78.1777 179.531C78.1577 179.531 78.1277 179.541 78.1077 179.541C77.9477 179.561 77.8077 179.631 77.7277 179.781C77.6277 179.951 77.6877 180.191 77.8577 180.291C78.1777 180.471 78.5177 180.591 78.8777 180.641C78.9777 180.651 79.0677 180.661 79.1677 180.601C79.2477 180.551 79.3177 180.471 79.3377 180.381C79.3777 180.201 79.2877 179.951 79.0777 179.921C78.9177 179.901 78.7577 179.861 78.6077 179.811C78.5777 179.801 78.5377 179.791 78.5077 179.771C78.4977 179.771 78.4477 179.741 78.4477 179.741C78.4577 179.741 78.5177 179.771 78.4577 179.751C78.3777 179.721 78.3077 179.681 78.2377 179.641C78.2777 179.811 78.3277 179.981 78.3677 180.151C78.3377 180.201 78.2977 180.241 78.2477 180.261C78.2177 180.271 78.2077 180.281 78.2277 180.271C78.2677 180.251 78.1377 180.281 78.1977 180.271C78.2577 180.261 78.3177 180.261 78.3777 180.241C78.4977 180.201 78.5977 180.131 78.6877 180.041C78.8277 179.911 78.9577 179.771 79.0877 179.631C79.1977 179.521 79.2277 179.361 79.1677 179.221C79.1077 179.071 78.9777 179.011 78.8277 178.991C78.7377 178.981 78.6377 178.971 78.5477 178.961C78.6577 179.151 78.7677 179.341 78.8677 179.521C78.9277 179.421 78.9977 179.331 79.0577 179.231C79.1377 179.101 79.1177 178.931 79.0277 178.811C78.9377 178.701 78.7777 178.631 78.6377 178.681C78.4877 178.731 78.3277 178.791 78.1677 178.821C78.1277 178.831 78.0877 178.831 78.0477 178.841C77.9977 178.851 78.1177 178.841 78.0577 178.841C78.0377 178.841 78.0177 178.841 77.9977 178.841C77.9577 178.841 77.9177 178.841 77.8777 178.841C77.8577 178.841 77.8377 178.841 77.8177 178.841C77.7677 178.841 77.9077 178.861 77.8177 178.841C77.8777 179.051 77.9277 179.261 77.9877 179.471C78.0377 179.431 78.0777 179.381 78.1277 179.341C78.1377 179.331 78.2377 179.251 78.1577 179.311C78.1777 179.291 78.2077 179.271 78.2377 179.251C78.3477 179.171 78.4577 179.101 78.5777 179.041C78.7477 178.951 78.8177 178.691 78.7077 178.531C78.6077 178.331 78.3977 178.281 78.2077 178.381Z" fill="#E9574A"/>
<path d="M79.6276 177.541C80.6376 175.811 81.6476 174.081 82.6576 172.351C82.7476 172.191 82.7076 171.921 82.5276 171.841C82.3976 171.781 82.2676 171.721 82.1376 171.671C81.6976 171.471 81.3176 172.121 81.7576 172.321C81.8876 172.381 82.0176 172.441 82.1476 172.491C82.1076 172.321 82.0576 172.151 82.0176 171.981C81.0076 173.711 79.9976 175.441 78.9876 177.171C78.7376 177.581 79.3776 177.951 79.6276 177.541Z" fill="#E9574A"/>
<path d="M77.5272 179.971C77.8572 180.051 78.2372 180.101 78.5672 180.021C78.7772 179.971 78.9372 179.811 78.9972 179.601C79.0172 179.531 79.0272 179.451 79.0372 179.371C79.0372 179.341 79.0372 179.311 79.0372 179.291C79.0372 179.271 79.0372 179.261 79.0372 179.241C79.0272 179.211 79.0472 179.181 79.0272 179.271C78.9972 179.321 78.9672 179.381 78.9272 179.441C78.8972 179.471 78.8672 179.491 78.8272 179.501C78.8572 179.491 78.8472 179.491 78.8072 179.501C78.7672 179.501 78.7672 179.511 78.7972 179.511C78.7272 179.501 78.7072 179.501 78.7472 179.511C78.8072 179.531 78.6672 179.471 78.7172 179.501C78.6672 179.461 78.6572 179.451 78.6872 179.471C78.6772 179.451 78.6672 179.441 78.6472 179.421C78.6672 179.451 78.6572 179.441 78.6372 179.381C78.6472 179.421 78.6472 179.411 78.6372 179.351C78.6272 179.361 78.6372 179.401 78.6372 179.421C78.6372 179.501 78.6572 179.331 78.6372 179.411C78.6372 179.441 78.6272 179.471 78.6172 179.491C78.6072 179.521 78.6172 179.511 78.6372 179.461C78.6172 179.501 78.6272 179.491 78.6572 179.441L78.6472 179.451C78.6172 179.481 78.6272 179.471 78.6772 179.431C78.6672 179.441 78.6572 179.441 78.6472 179.441C78.6172 179.451 78.6372 179.451 78.6872 179.421C78.6672 179.421 78.6472 179.441 78.6172 179.441C78.5172 179.471 78.4072 179.471 78.3072 179.511C78.1272 179.581 77.9772 179.771 78.0472 179.971C78.1072 180.151 78.3072 180.301 78.5072 180.231C78.6172 180.191 78.7272 180.191 78.8272 180.161C78.9572 180.121 79.0972 180.061 79.1872 179.951C79.3172 179.801 79.3472 179.631 79.3672 179.451C79.3872 179.291 79.3472 179.121 79.2372 178.991C79.1272 178.851 78.9672 178.781 78.7972 178.761C78.5872 178.741 78.3572 178.861 78.2872 179.081C78.2672 179.151 78.2672 179.211 78.2772 179.281C78.2772 179.301 78.2772 179.321 78.2772 179.341C78.2772 179.351 78.2772 179.361 78.2772 179.371C78.2772 179.411 78.2572 179.431 78.2872 179.331C78.2872 179.351 78.2772 179.371 78.2772 179.381C78.2772 179.391 78.2572 179.431 78.2872 179.371C78.3172 179.311 78.2972 179.351 78.2872 179.361C78.2672 179.391 78.3272 179.311 78.3172 179.321C78.3072 179.331 78.2872 179.351 78.3272 179.311C78.3872 179.261 78.2972 179.311 78.3572 179.291C78.4172 179.271 78.3572 179.291 78.3472 179.291C78.3372 179.291 78.3272 179.291 78.3172 179.301C78.4072 179.271 78.3672 179.291 78.3372 179.301C78.3072 179.301 78.2672 179.311 78.2372 179.311C78.1772 179.311 78.1072 179.311 78.0472 179.311C78.0172 179.311 77.9772 179.311 77.9472 179.301C77.9372 179.301 77.9172 179.301 77.9072 179.301C77.8572 179.291 78.0072 179.321 77.9172 179.301C77.8472 179.291 77.7772 179.271 77.7172 179.261C77.5272 179.211 77.3072 179.321 77.2572 179.521C77.2172 179.701 77.3272 179.921 77.5272 179.971Z" fill="#E9574A"/>
</svg>
