<svg width="18" height="15" viewBox="0 0 18 15" fill="none" xmlns="http://www.w3.org/2000/svg">
<path d="M14.1124 0.509652C12.3517 2.12704 10.775 3.89115 9.15024 5.61192C7.60155 3.99453 5.47661 1.49676 2.88345 2.17039C2.56731 2.25043 1.14668 2.56723 1.29875 3.04078C1.35077 3.20752 1.57087 3.27421 1.84299 3.29089C1.75495 3.28422 1.97505 3.31757 2.45526 3.65772C2.89546 3.96786 3.29964 4.31801 3.70382 4.6615C4.87234 5.65527 5.96082 6.70907 7.0413 7.76955C6.02885 8.78666 5.0044 9.79378 3.94393 10.7742C3.07154 11.5779 1.95104 12.7217 0.902574 13.2186C-1.15834 14.1991 0.730498 15.5497 2.38723 14.7593C4.94037 13.5454 6.98128 11.5112 8.87011 9.57368C10.3308 11.0277 11.7554 12.535 12.8759 14.1524C13.4001 14.906 16.6736 13.8356 16.3534 13.3754C14.8808 11.2478 12.9279 9.29022 10.9831 7.40938C12.9679 5.34513 14.8488 3.19084 16.9777 1.23664C18.4384 -0.09395 15.0729 -0.374075 14.1124 0.509652ZM1.88301 3.29756C2.29519 3.31423 2.81542 3.22419 3.07954 3.16416C2.41124 3.32424 2.02307 3.30756 1.88301 3.29756Z" fill="black" fill-opacity="0.5"/>
</svg>
