<svg width="24" height="24" viewBox="0 0 24 24" fill="none" xmlns="http://www.w3.org/2000/svg">
<path d="M24 12C24 9.62663 23.2962 7.30655 21.9776 5.33316C20.6591 3.35977 18.7849 1.8217 16.5922 0.913451C14.3995 0.00519943 11.9867 -0.232441 9.65892 0.230582C7.33115 0.693604 5.19295 1.83649 3.51472 3.51472C1.83649 5.19295 0.693604 7.33115 0.230582 9.65892C-0.232441 11.9867 0.00519943 14.3995 0.913451 16.5922C1.8217 18.7849 3.35977 20.6591 5.33316 21.9776C7.30655 23.2962 9.62663 24 12 24C15.1826 24 18.2348 22.7357 20.4853 20.4853C22.7357 18.2348 24 15.1826 24 12ZM12 21.8667C10.0486 21.8667 8.14094 21.288 6.51838 20.2038C4.89581 19.1197 3.63118 17.5787 2.88439 15.7758C2.13761 13.9729 1.94222 11.9891 2.32292 10.0751C2.70363 8.16117 3.64334 6.4031 5.02322 5.02322C6.4031 3.64334 8.16117 2.70363 10.0751 2.32292C11.9891 1.94222 13.9729 2.13761 15.7758 2.88439C17.5787 3.63118 19.1197 4.89581 20.2038 6.51838C21.288 8.14094 21.8667 10.0486 21.8667 12C21.8637 14.6159 20.8232 17.1238 18.9735 18.9735C17.1238 20.8232 14.6159 21.8637 12 21.8667Z" fill="black"/>
<path fill-rule="evenodd" clip-rule="evenodd" d="M7.89974 8L12.0158 12.1739L16.1003 8L18 9.89723L12.0158 16L6 9.89723L7.89974 8Z" fill="black"/>
</svg>
