<svg width="89" height="71" viewBox="0 0 89 71" fill="none" xmlns="http://www.w3.org/2000/svg">
<path d="M71.5254 28.5162L68.0336 25.0244H23.804C23.4161 25.2184 22.2909 25.9556 20.8942 27.3523C19.4975 28.749 18.7603 31.0381 18.5663 32.008C18.3724 38.4097 17.9844 51.7949 17.9844 54.1228C17.9844 56.4506 18.7603 58.1965 19.1483 58.7785L25.5499 60.5244L33.1155 61.1064H69.7795L72.1073 59.9424C72.8833 54.5108 74.5516 42.5998 75.0172 38.4097C75.4827 34.2195 72.8833 30.0681 71.5254 28.5162Z" fill="#129D6F"/>
<path d="M23.8027 26.7706V32.5903L29.0404 36.0821L43.5896 44.2296L48.2454 41.9017L58.7208 36.664L66.8683 33.1722L68.0322 22.6968L68.6142 16.8772L69.1962 13.9673V9.89355H65.1224L52.9011 11.0575L45.9175 10.4755L33.6962 11.0575H27.2945L24.3847 11.6395V19.205L23.8027 26.7706Z" fill="white"/>
<path d="M19.7573 58.9297C17.6273 57.5097 18.574 55.6164 17.864 53.2497C17.6273 51.8297 17.3906 50.4097 17.3906 48.9897C17.3906 48.5164 17.6273 48.043 17.864 47.8064C18.1006 47.5697 18.574 47.8064 19.0473 47.8064C20.9406 48.2797 22.3606 49.2264 24.0173 50.173C31.8273 54.1964 38.454 54.1964 46.7373 56.7997C47.684 57.0364 51.7073 57.7464 51.7073 57.7464C55.494 58.693 59.5173 60.5864 59.5173 61.2964C59.5173 61.533 54.3106 61.0597 54.3106 61.533C52.902 61.2964 50.2873 61.7697 48.8673 61.533C44.134 61.2964 39.4006 60.5864 34.904 61.0597C30.8806 61.2964 23.3073 61.533 19.7573 58.9297Z" fill="#006C49"/>
<path d="M23.7812 25.3231C23.7812 25.0865 23.7812 24.8498 24.0179 24.6131C24.2546 24.3765 24.4913 24.3765 24.7279 24.3765C26.7138 27.3522 29.4612 31.7131 33.2479 34.7898C39.8746 40.2331 43.8979 39.9965 50.9979 37.3931C55.2579 36.2098 61.6479 35.4998 61.6479 35.4998C61.4113 35.9731 57.6246 37.1565 57.1513 37.3931C54.0746 38.8131 52.6546 39.7598 49.1046 41.6531C48.3946 42.5998 46.0279 43.7831 44.8446 44.2565C43.6613 44.7298 42.7146 43.5465 41.5312 42.8365C36.5612 40.4698 31.8279 37.8665 27.3313 35.2631C23.3079 32.6598 24.0179 29.8198 23.7812 25.3231Z" fill="#006C49"/>
<path d="M17.6267 53.9598C17.6267 51.3565 17.8633 48.5165 17.6267 45.9132C17.39 42.3632 17.6267 39.0498 17.6267 35.4998C17.6267 33.3698 18.1 31.4765 18.3367 29.3465C18.3367 28.8732 18.5733 28.6365 18.81 28.3998C19.9933 27.4532 20.94 26.5065 22.1233 25.7965C22.8333 25.3232 23.07 24.8498 23.07 23.9032C23.07 21.0632 23.3067 22.2465 23.5433 19.4065C23.5433 17.2765 23.78 17.9865 23.78 15.8565C23.78 14.4365 23.5433 14.4365 23.07 13.2532C22.8333 12.0698 23.07 11.3598 24.0167 10.8865C24.2533 10.6498 24.7267 10.6498 24.9633 10.6498C27.33 10.6498 29.6967 10.4132 32.3 10.6498C35.3767 10.6498 38.69 10.4132 41.7667 9.93983C44.1333 9.70316 46.2633 9.70316 48.63 9.93983C52.89 10.1765 56.9133 9.70316 61.1733 9.4665C64.0133 9.22983 66.1433 9.22983 68.9833 8.99316C70.1667 8.99316 70.4033 9.4665 70.1667 10.4132C69.6933 13.4898 69.93 12.5432 69.4567 15.8565C69.4567 16.3298 69.4567 16.5665 69.22 17.0398C68.51 19.4065 68.9833 18.2232 68.7467 20.1165C68.7467 20.8265 68.7467 21.7732 68.51 22.7198C68.51 24.3765 68.7467 25.3232 69.93 26.2698C71.5867 27.6898 73.0067 29.3465 73.9533 31.4765C75.1367 33.8432 75.3733 36.4465 75.1367 38.8132C74.9 42.5998 74.4267 46.6232 73.9533 50.4098C73.7167 53.4865 73.2433 56.5632 73.0067 59.6398C73.0067 60.5865 71.8233 61.5332 70.8767 61.5332C67.09 61.7698 63.3033 62.2432 59.28 61.7698C57.6233 61.5332 55.9667 61.7698 54.31 61.7698C47.6833 61.7698 40.82 61.7698 34.1933 61.7698C31.8267 61.7698 29.6967 61.7698 27.5667 61.5332C25.4367 61.2965 23.3067 60.8232 21.1767 60.3498C19.0467 59.8765 17.8633 58.6932 17.6267 56.3265C17.6267 55.6165 17.6267 54.6698 17.6267 53.9598ZM72.06 53.7232C72.77 53.4865 73.0067 52.7765 73.0067 52.0665C73.2433 48.9898 73.48 46.1498 73.9533 43.0732C74.4267 40.2332 74.4267 37.3932 73.9533 34.5532C73.7167 33.3698 73.48 32.1865 72.5333 31.2398C72.06 31.4765 71.5867 31.4765 71.35 31.7132C68.2733 33.1332 65.1967 34.5532 62.12 35.7365C56.44 38.1032 50.9967 40.7065 45.79 43.7832C45.5533 44.0198 45.3167 44.2565 44.8433 44.4932C46.0267 45.4398 64.0133 54.4332 65.67 54.9065C66.8533 53.9598 67.8 52.7765 69.22 52.3032C68.2733 53.2498 67.3267 54.1965 66.1433 55.3798C66.8533 55.8532 67.3267 56.0898 67.5633 56.0898C68.7467 55.3798 69.93 54.6698 70.8767 53.9598C70.4033 54.4332 70.1667 54.9065 69.6933 55.1432C69.22 55.6165 68.7467 56.0898 68.2733 56.5632C69.6933 57.5098 70.64 58.2198 71.8233 58.9298C72.06 57.5098 72.2967 56.5632 72.5333 55.3798C72.5333 54.9065 72.5333 54.4332 72.5333 54.1965C72.77 53.9598 72.2967 53.7232 72.06 53.7232ZM29.2233 52.5398C30.17 52.0665 31.1167 51.5932 32.0633 51.1198C34.43 49.6998 37.0333 48.2798 39.4 46.8598C40.3467 46.3865 41.2933 45.6765 42.24 44.9665C42.4767 44.7298 42.4767 44.4932 42.7133 44.2565C35.3767 40.2332 28.2767 35.9732 21.4133 31.4765C20.94 31.2398 20.4667 31.0032 20.23 30.7665C20.23 30.7665 19.9933 30.7665 19.7567 30.7665C19.2833 31.7132 19.2833 32.8965 19.0467 34.0798C19.0467 37.8665 18.81 41.6532 18.81 45.4398C18.81 48.0432 18.81 50.6465 18.81 53.2498C18.81 54.1965 19.0467 55.3798 19.0467 56.3265C19.0467 57.7465 19.9933 58.2198 20.94 58.6932C21.1767 58.9298 21.65 58.9298 22.1233 58.9298C23.5433 59.4032 25.2 59.4032 26.62 59.6398C31.59 60.3498 36.3233 60.3498 41.2933 60.3498C43.66 60.3498 45.79 60.3498 48.1567 60.3498C49.8133 60.3498 51.47 60.3498 53.3633 60.3498C55.9667 60.3498 58.8067 60.1132 61.41 60.1132C63.54 60.1132 65.4333 60.1132 67.5633 60.1132C68.51 60.1132 69.4567 60.1132 70.4033 59.8765C70.64 59.8765 70.8767 59.6398 71.35 59.6398C69.93 58.6932 68.7467 57.9832 67.5633 57.0365C65.1967 55.3798 62.5933 54.4332 60.2267 52.7765C58.57 51.5932 56.6767 50.8832 54.7833 50.6465C53.8367 50.6465 52.89 50.1732 52.4167 49.4632C51.9433 48.7532 51.47 48.5165 50.9967 48.2798C49.1033 47.3332 46.9733 46.3865 45.08 45.2032C44.37 44.7298 43.8967 44.7298 43.1867 45.2032C39.1633 47.5698 35.14 49.9365 31.3533 52.3032C28.9867 53.7232 26.3833 55.1432 24.0167 56.5632C23.3067 57.2732 22.8333 57.2732 22.36 56.7998C22.5967 56.5632 22.5967 56.5632 22.5967 56.3265C24.0167 55.6165 25.2 55.1432 26.62 54.1965C27.5667 53.7232 28.5133 53.2498 29.2233 52.5398ZM38.2167 40.7065C38.69 40.9432 38.9267 41.1798 39.4 41.4165C40.3467 42.1265 41.53 42.5998 42.4767 43.3098C43.4233 43.7832 44.1333 43.7832 44.8433 43.3098C46.5 42.3632 48.1567 41.4165 49.8133 40.4698C51.2333 39.7598 52.4167 39.0498 53.8367 38.3398C57.6233 36.6832 61.41 35.0265 65.4333 33.3698C66.1433 33.1332 66.6167 32.6598 66.6167 31.7132C66.6167 30.5298 66.8533 29.1098 67.09 27.9265C67.3267 24.8498 67.5633 23.1932 68.0367 20.1165C68.2733 18.2232 67.5633 19.4065 68.0367 17.5132C68.7467 14.4365 68.51 15.6198 68.7467 12.5432C68.7467 11.8332 68.7467 11.1232 68.7467 10.4132C67.5633 10.6498 67.09 11.1232 66.1433 11.1232C63.54 11.3598 60.9367 11.1232 58.3333 11.3598C56.44 11.3598 54.7833 11.5965 52.89 11.5965C49.34 11.5965 45.5533 11.5965 42.0033 11.5965C37.27 11.8332 32.5367 12.0698 27.8033 11.8332C26.8567 11.8332 25.91 11.8332 24.9633 12.3065C24.9633 12.5432 24.7267 12.7798 24.7267 13.0165C24.7267 15.3832 24.7267 15.1465 24.7267 17.5132C24.7267 17.9865 24.7267 17.2765 24.7267 17.7498C24.7267 18.9332 24.49 17.2765 24.7267 18.4598C24.9633 22.7198 24.9633 25.5598 25.2 29.8198C25.2 31.2398 25.2 31.2398 24.2533 32.1865C25.91 33.6065 33.4833 38.3398 35.6133 39.2865C37.0333 38.5765 37.98 37.1565 39.6367 36.6832C38.69 37.6298 37.27 38.3398 36.56 39.7598C37.0333 40.4698 37.5067 40.2332 37.98 39.9965C38.9267 39.2865 39.8733 38.3398 41.53 37.6298C40.5833 38.8132 39.1633 39.2865 38.2167 40.7065ZM68.0367 32.1865C69.6933 31.4765 70.8767 31.0032 71.8233 29.8198C70.64 28.8732 69.93 27.4532 68.51 26.5065C68.2733 28.3998 68.2733 30.0565 68.0367 32.1865ZM22.8333 26.5065C21.65 27.4532 20.7033 28.3998 20.4667 29.5832C21.4133 30.0565 22.1233 30.5298 23.07 31.2398C23.07 29.5832 22.8333 28.1632 22.8333 26.5065Z" fill="black"/>
<path d="M62.3573 27.2167C62.1207 27.4534 61.884 27.69 61.4107 27.69C60.9373 27.69 60.464 27.4534 59.9907 27.4534C57.624 27.4534 55.2573 27.4534 52.654 27.4534C50.524 27.4534 48.6307 27.4534 46.5007 27.4534C45.0807 27.4534 43.8973 27.4534 42.4773 27.69C40.1107 28.1634 37.9807 28.1634 35.614 27.69C33.9573 27.4534 32.064 27.69 30.4073 27.69C29.6973 27.69 29.224 27.9267 28.2773 27.4534C28.514 27.2167 28.7507 26.98 28.9873 26.98C31.5907 26.7434 34.4307 26.5067 37.034 27.2167C38.2173 27.4534 39.6373 27.4534 41.0573 27.2167C43.6607 26.7434 46.264 26.7434 48.8673 26.98C50.524 26.98 52.1807 26.98 54.074 26.7434C56.6773 26.5067 59.2807 26.7434 61.884 26.7434C62.3573 26.98 62.3573 27.2167 62.3573 27.2167Z" fill="black"/>
<path d="M62.3573 22.4833C62.1207 22.72 61.884 22.9566 61.4107 22.9566C60.9373 22.9566 60.464 22.72 59.9907 22.72C57.624 22.72 55.2573 22.72 52.654 22.72C50.524 22.72 48.6307 22.72 46.5007 22.72C45.0807 22.72 43.8973 22.72 42.4773 22.9566C40.1107 23.43 37.9807 23.43 35.614 22.9566C33.9573 22.72 32.064 22.9566 30.4073 22.9566C29.6973 22.9566 29.224 23.1933 28.2773 22.72C28.514 22.4833 28.7507 22.2466 28.9873 22.2466C31.5907 22.01 34.4307 21.7733 37.034 22.4833C38.2173 22.72 39.6373 22.72 41.0573 22.4833C43.6607 22.01 46.264 22.01 48.8673 22.2466C50.524 22.2466 52.1807 22.2466 54.074 22.01C56.6773 21.7733 59.2807 22.01 61.884 22.01C62.1207 22.01 62.1207 22.2466 62.3573 22.4833Z" fill="black"/>
<path d="M39.637 18.46C39.637 18.2234 39.637 18.2234 39.637 18.46C39.637 18.2234 39.637 18.2234 39.637 18.46C39.637 18.2234 39.637 18.2234 39.637 17.9867V17.75C38.927 17.75 38.217 17.75 37.507 17.5134C34.667 16.8034 32.0637 17.04 29.2237 17.2767C28.987 17.2767 28.7503 17.5134 28.5137 17.75C29.2237 18.2234 29.9337 17.9867 30.6437 17.9867C32.3003 17.9867 34.1937 17.75 35.8503 17.9867C37.0337 18.2234 38.217 18.46 39.637 18.46Z" fill="black"/>
<path d="M59.2812 31.24C59.0445 32.1866 58.5712 31.95 58.0979 31.95C55.7312 31.95 53.3645 31.95 50.9979 31.7133C50.7612 31.7133 50.2879 31.7133 50.0512 31.7133C45.3179 31.95 40.3479 31.95 35.6145 32.1866C34.4312 32.1866 33.4845 32.4233 32.3012 32.66C31.8279 32.66 31.3545 32.66 30.6445 32.66C31.1179 32.1866 31.1179 31.95 31.3545 31.7133C32.0645 31.4766 32.5379 31.4766 33.2479 31.4766C36.0879 31.4766 39.1645 31.24 42.0045 31.24C43.8979 31.24 45.7912 31.24 47.6845 31.24C51.2345 31.24 54.7845 31.24 58.3345 31.24C58.5712 31.0033 58.8079 31.24 59.2812 31.24Z" fill="black"/>
<path d="M29.2237 52.5397C28.9871 52.5397 28.7504 52.5397 28.5137 52.5397C27.8037 51.3564 27.0938 50.4097 27.0938 48.9897C28.0404 50.1731 28.5137 51.3564 29.2237 52.5397Z" fill="black"/>
<path d="M29.223 48.043C29.4597 49.2263 29.6963 50.4096 30.1697 51.593H29.933C29.6963 50.4096 29.223 49.2263 28.9863 48.043C28.9863 48.043 28.9863 48.043 29.223 48.043Z" fill="black"/>
<path d="M79.5595 9.85686C80.4642 9.6905 80.606 6.85596 80.368 19.5115C79.9622 21.8064 80.461 23.935 80.6061 26.1459C80.5801 27.2522 80.5161 28.4774 80.2931 29.5855C80.2575 29.9019 79.9465 30.2603 79.5595 30.8564C79.3553 30.2658 79.1962 30.1487 79.2342 30.0299C79.7966 27.6545 79.4925 25.3266 79.345 22.9182C79.2475 21.3785 79.498 11.2796 79.5595 9.85686Z" fill="black"/>
<path d="M75.7225 7.35438C76.6271 7.18801 76.7453 6.354 76.7454 10.511C76.3397 12.8059 76.8385 14.9345 76.9836 17.1454C76.9576 18.2517 76.8936 19.4769 76.6705 20.5851C76.635 20.9014 76.324 21.2598 75.937 21.856C75.7327 21.2653 75.5737 21.1483 75.6116 21.0294C76.1741 18.654 75.8699 16.3261 75.7224 13.9177C75.6249 12.378 75.6609 8.77707 75.7225 7.35438Z" fill="black"/>
<path d="M9.25101 36.4213C8.34639 36.2549 8.2045 33.4204 8.44259 46.0759C8.84836 48.3709 8.3495 50.4995 8.20442 52.7103C8.23042 53.8166 8.2944 55.0418 8.51747 56.15C8.55305 56.4664 8.86405 56.8248 9.25101 57.4209C9.45527 56.8302 9.61436 56.7132 9.57639 56.5943C9.01392 54.2189 9.3181 51.891 9.46557 49.4827C9.56309 47.9429 9.31258 37.844 9.25101 36.4213Z" fill="black"/>
<path d="M13.088 40.3544C12.1834 40.188 12.0653 39.354 12.0651 43.511C12.4709 45.8059 11.972 47.9345 11.827 50.1454C11.853 51.2517 11.9169 52.4769 12.14 53.5851C12.1756 53.9014 12.4866 54.2598 12.8735 54.856C13.0778 54.2653 13.2369 54.1483 13.1989 54.0294C12.6365 51.654 12.9406 49.3261 13.0881 46.9177C13.1856 45.378 13.1496 41.7771 13.088 40.3544Z" fill="black"/>
</svg>
