<svg width="92" height="51" viewBox="0 0 92 51" fill="none" xmlns="http://www.w3.org/2000/svg">
<path d="M80.817 21.8388C80.3371 20.6388 80.1753 19.3397 79.8623 18.0824C78.9753 14.4928 76.8675 11.3468 74.8015 8.27903C74.1702 7.33992 73.4971 6.36427 72.4954 5.83733C71.7441 5.44081 70.8728 5.33646 70.0276 5.23733C49.6958 2.90519 29.2126 1.16783 8.78157 2.32085C4.26338 13.1781 10.6337 26.6596 4.97294 36.9638C4.20599 38.3621 3.23035 39.6612 2.6408 41.1429C2.05124 42.6298 1.91037 44.4141 2.78688 45.7498C3.95034 47.5289 6.37639 47.8628 8.49984 47.9671C11.4528 48.1132 15.0163 47.8002 16.3936 45.1811C16.7954 44.4141 16.9571 43.5168 17.4997 42.8437C18.4232 41.7011 20.0979 41.5864 21.5692 41.5655C30.0004 41.4507 38.4316 41.3412 46.8575 41.2264C48.9549 41.2003 51.167 41.1951 52.9931 42.2229C55.3148 43.5272 56.6296 46.2767 59.0869 47.2993C61.6904 48.3793 64.6277 47.1741 67.179 45.9846C66.7251 44.2837 68.0085 42.5046 69.6155 41.7846C71.2224 41.0646 73.0589 41.1272 74.8171 41.2107C80.4101 41.4716 88.3509 43.3029 90.083 36.1656C90.8604 32.9621 91.163 29.8265 88.1056 28.1727C85.2257 26.6231 82.1162 25.0892 80.817 21.8388Z" fill="white"/>
<path d="M61.5211 2.25249L6.08192 0.0507812L4.63672 1.31859L5.70627 36.1755L16.0522 36.7389L58.2916 37.052L62.9663 36.2433L61.5211 2.25249Z" fill="#F15748"/>
<path d="M58.366 36.808C56.4408 36.808 54.5209 36.8027 52.5957 36.8027C52.1783 36.8027 51.7557 36.8027 51.3435 36.8706C50.0861 37.0845 49.0218 37.9349 48.1662 38.8792C47.7696 39.3227 47.394 39.7975 47.1801 40.3505C47.0914 40.5801 47.034 40.8566 47.1749 41.0601C47.2688 41.1905 47.4253 41.2583 47.5766 41.3157C48.6149 41.6809 49.747 41.5661 50.8426 41.4514C51.7348 41.3575 52.6217 41.2635 53.5139 41.1696C54.0356 41.1122 54.5626 41.0601 55.0687 40.9088C56.5295 40.4757 57.7138 39.2131 58.0478 37.7314" fill="#BCBCBB"/>
<path d="M16.9298 41.2532C17.1019 41.4149 17.342 41.4827 17.5715 41.5349C18.2498 41.6914 18.9384 41.7853 19.6323 41.8218C20.368 41.8584 21.1088 41.8219 21.8445 41.7853C25.4392 41.608 29.0287 41.4358 32.6235 41.2584C33.2495 41.2271 33.933 41.1749 34.4078 40.7627C34.8721 40.361 35.0182 39.6358 34.7521 39.0828C34.3556 38.2584 33.3174 38.0236 32.4095 37.8932C28.3974 37.3141 24.3592 36.8967 20.3106 36.6463C19.1367 36.5732 16.3298 35.8376 15.662 37.168C15.2394 38.0184 16.3194 40.674 16.9298 41.2532Z" fill="#BCBCBB"/>
<path d="M74.511 18.3601C74.8345 17.8749 75.2936 17.4367 75.3771 16.8576C75.4553 16.3202 75.1892 15.7984 74.9284 15.3185C74.3753 14.2906 73.8223 13.2681 73.2693 12.2402C73.1075 11.9429 72.8414 11.5933 72.5127 11.682C72.3301 11.7342 72.2101 11.9115 72.111 12.0733C70.7284 14.3376 69.3458 16.6071 67.9632 18.8714C67.8328 19.0854 67.6972 19.3149 67.7076 19.5654C67.718 19.894 67.9893 20.1706 68.2972 20.2906C68.605 20.4106 68.9441 20.4053 69.2728 20.4001C70.5093 20.3792 71.9962 20.5879 73.2014 20.3375C74.1875 20.1288 74.0049 19.1323 74.511 18.3601Z" fill="#BCBCBB"/>
<path d="M90.848 42.5434C90.5454 41.3382 90.3784 40.1017 90.3471 38.8652C88.8445 38.9435 87.3367 38.9383 85.8341 38.86C85.2915 38.8287 84.7437 38.7922 84.1959 38.8235C83.5385 38.86 82.8864 38.9957 82.2707 39.22C82.062 39.2983 81.8533 39.387 81.6864 39.5383C81.5246 39.6844 81.4203 39.8826 81.316 40.0757C80.9507 40.7487 80.5907 41.5835 80.982 42.2408C81.3942 42.9243 82.3438 42.966 83.1368 42.9452C85.3385 42.8773 87.5454 42.9034 89.7471 43.0234" fill="#BCBCBB"/>
<path d="M17.3345 42.4472C17.3031 42.6925 17.2875 42.9429 17.2458 43.1881C17.0005 44.6385 16.3327 45.8698 15.2058 46.8089C14.5693 47.3411 13.8545 47.7845 13.171 48.2645C10.745 49.9758 6.50853 50.5967 3.49814 47.6437C3.02336 47.1741 2.51728 46.7254 2.11554 46.1985C0.52948 44.1324 -0.0705122 41.842 1.08773 39.4108C1.76598 37.9916 2.72075 36.6925 3.97291 35.6856C5.36071 34.5691 6.94156 34.0369 8.75197 34.2978C9.28935 34.3761 9.83195 34.4021 10.3746 34.4126C11.5485 34.4334 12.5554 34.9082 13.5206 35.5186C13.8389 35.7169 14.1571 35.9204 14.4441 36.1604C14.9136 36.5569 15.451 36.6717 16.051 36.7395C20.0475 37.1725 24.0491 36.9586 28.0456 36.9169C30.8786 36.8856 33.7116 36.7656 36.5446 36.7186C37.3324 36.703 38.1202 36.8438 38.908 36.8543C40.9898 36.8856 43.0715 36.896 45.1532 36.9012C47.7775 36.9064 50.407 36.8856 53.0313 36.8856C54.3252 36.8856 55.6348 36.8021 56.8765 37.209C57.4191 37.3864 57.8521 37.3447 58.2852 37.0525C59.1408 36.4786 60.1217 36.296 61.113 36.1343C61.3843 36.0873 61.6555 36.056 61.9373 36.0143C61.8851 35.4873 61.8382 35.0334 61.786 34.5274C60.4295 33.5622 59.0625 32.5917 57.6904 31.6213C59.2556 31.95 60.3147 33.1865 61.8434 33.8804C61.8955 33.2021 61.9582 32.67 61.9686 32.1378C61.979 31.3865 61.9216 30.6352 61.9425 29.8839C61.9895 28.1309 62.0781 26.3831 62.1094 24.6301C62.1251 23.8006 62.0468 22.9658 61.9999 22.131C61.8851 20.138 61.6921 18.145 61.6608 16.152C61.6347 14.6546 61.8016 13.1572 61.9112 11.6599C62.1042 8.98859 62.0155 6.32777 61.8486 3.66172C61.8225 3.22346 61.9373 2.7539 62.0938 2.33652C62.1668 2.14348 62.4903 2.03913 62.8294 1.80957C62.8712 2.6913 62.9077 3.3852 62.939 4.08953C63.2312 4.20432 63.4503 4.35562 63.6851 4.3817C65.6311 4.59561 67.572 4.79387 69.5233 4.97648C70.8432 5.10169 72.1737 5.17996 73.4936 5.29996C73.598 5.31039 73.6919 5.43039 73.8171 5.51387C73.7754 5.7956 73.7336 6.07211 73.7076 6.23385C74.0467 6.53124 74.4015 6.71385 74.5527 7.00602C74.8449 7.54862 75.0745 8.1434 75.2362 8.73817C76.0084 11.5868 77.6257 14.0494 78.8257 16.6998C79.3736 17.9102 79.9527 19.1102 80.5161 20.3102C81.0431 21.4371 81.8831 22.4023 82.217 23.6388C82.29 23.9153 82.6083 24.1814 82.8796 24.3379C83.6309 24.7762 84.4343 25.1205 85.1804 25.5692C86.4274 26.3153 87.643 27.1083 88.8795 27.8805C89.4065 28.2092 89.9177 28.5744 90.4812 28.8248C90.9873 29.0492 91.1543 29.404 91.1543 29.8996C91.1595 32.3987 91.2638 34.903 91.1282 37.3969C91.0447 38.9412 90.9612 40.4803 91.1386 42.0142C91.2273 42.802 90.9716 43.3707 90.3977 43.929C89.9125 43.6159 89.4221 43.4594 88.9004 43.7203C88.3369 43.3185 87.6952 43.4803 87.0795 43.4803C84.1578 43.4698 81.2413 43.4594 78.3196 43.4385C77.9857 43.4385 77.6518 43.402 77.3179 43.3759C76.3214 43.3081 75.3145 43.115 74.3336 43.209C72.878 43.3498 71.4328 43.4124 69.9824 43.2872C69.9198 43.282 69.8467 43.3707 69.7841 43.4124C69.7633 43.449 69.7215 43.4803 69.7163 43.5168C69.7007 43.8924 69.685 44.2629 69.6798 44.6385C69.6589 46.6211 68.8972 48.2124 67.1702 49.2402C66.6068 49.5741 65.9546 49.7567 65.339 49.9967C63.3251 50.7949 61.306 50.5445 59.3391 49.8819C58.1078 49.4697 56.9652 48.7758 56.193 47.7063C55.0869 46.1672 54.3357 44.4507 54.2574 42.5098C54.247 42.2646 54.1948 42.0194 54.1478 41.6751C53.6105 41.5968 53.0835 41.4507 52.5565 41.4559C51.4348 41.4664 50.3131 41.5603 49.1862 41.6073C47.1045 41.6959 45.0227 41.8472 42.941 41.8525C38.8559 41.8629 34.7812 42.1446 30.6908 42.0194C27.5343 41.9203 24.3622 42.0351 21.2057 42.322C21.0022 42.3429 20.7935 42.2646 20.5848 42.2646C19.5466 42.2594 18.5136 42.2594 17.4231 42.2594C17.371 42.3794 17.3397 42.4107 17.3345 42.4472ZM86.8865 40.7412C86.6413 41.6907 86.6621 41.8055 87.2204 42.3481C87.5908 41.8525 87.0587 41.409 87.1526 40.9446C87.3508 41.1794 87.5491 41.4142 87.8413 41.7638C87.9873 41.0751 88.0552 40.4855 87.7734 39.9377C87.7004 39.8021 87.3769 39.7916 87.0482 39.6873C87.1004 40.1986 87.1369 40.5847 87.1734 40.9759C87.0795 40.8977 86.9804 40.8194 86.8865 40.7412ZM74.8919 12.479C75.1632 13.392 75.471 14.2894 75.7579 15.1972C75.8988 15.6407 76.0762 16.0476 76.8171 15.9433C76.5614 15.3694 76.3214 14.8633 76.1127 14.3468C75.7893 13.5433 75.5023 12.7242 75.158 11.9312C75.038 11.6494 74.7875 11.4251 74.5997 11.1694C74.6832 10.3294 74.4328 9.60946 73.7858 9.02512C74.0623 9.73467 74.3388 10.4442 74.6154 11.1538C74.704 11.592 74.7614 12.0459 74.8919 12.479ZM61.8538 43.4437C62.4225 43.7724 62.9964 44.1063 63.5651 44.4403C63.8364 44.5968 64.1077 44.7585 64.3529 44.9046C64.7233 44.555 64.6346 44.2994 64.3738 44.0959C63.946 43.762 63.4973 43.4646 63.0642 43.1359C62.8503 42.9742 62.6573 42.7864 62.5007 42.5464C63.4451 42.6664 64.0607 43.3968 64.8538 43.8246C64.9425 42.7603 64.3581 41.6855 63.372 41.216C62.339 40.7307 61.2434 40.5377 60.0904 40.7047C59.4956 40.7934 59.146 41.1064 58.8591 41.6281C57.8782 43.402 59.5269 46.2454 61.6242 46.162C61.8329 46.1515 62.0938 46.1985 62.2295 46.0889C62.5894 45.802 62.9599 45.7915 63.3825 45.8385C63.4868 45.8489 63.6173 45.6454 63.826 45.4576C63.5286 45.1707 63.2573 44.9359 63.0173 44.675C62.626 44.2681 62.0208 44.0542 61.8695 43.4281L61.8538 43.4437ZM74.6258 33.6769C75.1997 34.0787 75.7788 34.47 76.3423 34.8821C76.671 35.1221 76.9788 35.4039 77.3492 35.7117C77.704 35.2995 77.5945 34.8873 77.5788 34.4908C77.4901 32.5343 77.3858 30.5778 77.3284 28.6214C77.2971 27.4527 77.3388 26.284 77.3544 25.1205C77.3597 24.7553 77.3962 24.3953 77.4171 24.0666C78.0014 23.8788 78.1266 24.171 78.1266 24.5414C78.1214 25.5849 78.1892 26.6388 78.0588 27.6666C77.7823 29.8422 78.2258 31.997 78.184 34.1621C78.1631 35.1169 78.2101 36.0769 78.231 37.0317C78.2466 37.6421 78.2675 38.2525 78.2936 38.9412C82.2326 39.2334 86.0413 38.7847 89.829 38.9099C90.116 36.5569 90.3195 36.4056 89.8186 34.6578C88.7543 34.5221 87.6534 34.376 86.5734 34.2404C86.1769 32.863 86.5004 29.8631 87.2047 28.5535C87.6534 28.9448 87.6378 29.4092 87.5439 29.8944C87.4291 30.51 87.2726 31.1204 87.1995 31.7361C87.1421 32.2265 87.1891 32.7222 87.1891 33.343C87.6639 33.4526 88.123 33.5517 88.8117 33.7082C88.6134 33.3326 88.5352 33.1656 88.4412 33.0143C88.3525 32.8735 88.2482 32.7482 88.1491 32.6126C88.243 32.5604 88.3265 32.4822 88.363 32.4978C88.843 32.7169 89.3125 32.9517 89.9595 33.2648C89.829 32.8995 89.8082 32.5656 89.6778 32.5239C88.9265 32.2526 88.5612 31.59 87.8934 30.9796C88.8534 30.9274 89.2812 31.5431 89.829 31.9657C90.2256 31.2978 90.1577 30.6978 89.7508 30.1657C89.1195 29.3361 88.3891 28.6109 87.4395 28.1153C85.7074 27.2075 84.0065 26.2423 82.2639 25.3449C81.5544 24.9797 81.1579 24.4684 80.8657 23.7171C80.3909 22.4806 79.7388 21.3067 79.144 20.1171C79.0396 19.9084 78.8466 19.7467 78.5753 19.418C78.4971 19.8197 78.4292 20.0441 78.4136 20.2736C78.3927 20.6076 78.4084 20.9415 78.4084 21.2754C78.4136 22.0893 78.351 22.8927 77.511 23.3206C76.864 23.6492 75.424 23.3206 74.8762 22.6214C74.2762 21.8545 73.551 21.578 72.6171 21.5258C70.8276 21.4319 69.0433 21.2493 67.2589 21.1084C67.0085 21.0876 66.7581 21.1136 66.5077 21.0771C65.2764 20.8945 64.9685 20.5397 64.8746 19.2876C64.6242 15.8754 64.5564 12.4581 64.6033 9.04077C64.6138 8.37295 64.6816 7.71557 65.0312 7.02689C67.765 7.0008 70.4572 7.37644 73.2797 7.92948C73.1545 7.16253 73.1389 6.56255 72.7632 6.0356C69.5233 5.76952 66.299 5.50865 63.0381 5.24256C62.7564 5.92082 62.9234 6.63037 62.9234 7.32427C62.9181 9.03033 62.9129 10.7364 62.9181 12.4372C62.9234 13.8094 62.939 15.1868 62.9547 16.5589C62.9547 16.7259 62.986 16.8928 62.9912 17.0598C63.0381 20.978 63.1007 24.8962 63.1164 28.8144C63.1216 30.3535 63.0016 31.8978 62.9599 33.4369C62.9338 34.3813 62.9547 35.3308 62.9547 36.2491C63.8573 36.6299 64.812 37.0317 65.7564 37.4386C65.9077 37.5064 66.0694 37.5847 66.179 37.7047C66.8311 38.4351 67.6502 38.5134 68.5685 38.4664C69.7737 38.4038 70.9737 38.456 72.1789 38.649C73.5302 38.8682 74.918 38.8838 76.2901 38.9673C76.6136 38.9881 76.9475 38.9047 77.271 38.8682C77.8188 38.0595 77.3805 37.2091 77.5423 36.536C76.5092 35.5134 75.5701 34.5847 74.6362 33.6613C74.6467 33.6561 74.6258 33.6769 74.6258 33.6769ZM73.6293 18.6458C73.5928 18.3067 73.4049 17.9415 73.1806 17.6754C72.9145 17.3676 72.5337 17.1537 72.2102 16.898C71.9024 16.658 71.5997 16.4076 71.4224 16.0007C72.1945 16.5067 72.9719 17.018 73.7232 17.5137C74.0832 17.2685 74.1406 17.0024 73.8902 16.7415C73.5458 16.3815 73.1702 16.0528 72.7945 15.7241C72.3928 15.3694 71.9754 15.0302 71.678 14.5189C71.9389 14.7016 72.1945 14.8894 72.4554 15.072C72.7632 15.2859 73.071 15.4998 73.3789 15.7137C73.6762 15.9276 73.9736 16.1467 74.2554 16.3554C75.1475 15.6094 75.1475 15.5676 74.4015 14.9624C74.4015 14.4563 74.5058 13.992 74.3806 13.5955C73.9423 12.1659 73.431 10.7573 72.9354 9.33816C72.8102 8.97817 72.638 8.64426 72.2206 8.53991C70.1128 7.99731 67.9789 7.76774 65.8033 7.83035C65.4172 8.45643 65.3755 9.05642 65.3911 9.68771C65.4172 10.7677 65.3598 11.8477 65.4172 12.9225C65.5268 15.0824 65.6781 17.2424 65.845 19.3971C65.8972 20.0337 66.179 20.2736 66.8103 20.3363C67.2642 20.3832 67.7233 20.3519 68.1824 20.3884C69.7998 20.5189 71.4119 20.6597 73.0293 20.7902C73.2276 20.8058 73.431 20.7745 73.6397 20.7641C73.6502 19.9606 73.7023 19.298 73.6293 18.6458ZM24.2891 40.4594C26.0004 40.496 27.7065 40.5273 29.4178 40.5533C32.8351 40.6055 36.2524 40.6838 39.6646 40.6994C42.7897 40.7151 45.9201 40.6942 49.0453 40.642C50.3288 40.6212 51.607 40.4803 52.8957 40.3916C53.3235 39.5412 53.3131 38.7221 53.2713 37.7621C42.4089 37.3917 31.5621 37.3656 20.5901 37.9238C20.6892 38.6125 20.7935 39.3273 20.9031 40.1047C22.0613 40.3864 23.1726 40.4386 24.2891 40.4594ZM86.2604 39.7916C85.8691 39.7499 85.5508 39.6925 85.2326 39.6925C83.9022 39.6977 82.5665 39.776 81.2361 39.7238C77.2866 39.5725 73.3423 39.369 69.3928 39.1968C68.9024 39.176 68.4068 39.1916 67.8068 39.1916C68.0207 40.3029 68.6676 41.049 69.1372 41.8264C74.7719 42.0246 80.3335 42.2229 85.9004 42.4107C86.0465 42.4159 86.1926 42.2959 86.4065 42.2072C86.3595 41.4194 86.3126 40.642 86.2604 39.7916ZM10.4319 42.5255C9.57109 41.8733 8.68936 41.2525 7.82329 40.5533C8.40241 40.8142 9.01806 40.2351 9.62848 40.762C10.1241 41.1846 10.7554 41.4455 11.4285 41.8368C11.7154 41.049 11.4076 40.4125 10.9641 40.0003C9.8737 38.9934 8.56937 38.4769 7.06156 38.9255C5.94506 39.2595 5.37115 40.1725 5.5068 41.3203C5.82506 44.0698 8.11546 44.9672 10.0511 44.6855C10.9641 44.555 11.5328 43.8403 11.6737 42.5777C11.1467 42.8594 10.7919 42.7968 10.4319 42.5255ZM77.4797 21.291C77.3753 20.5032 76.5197 20.3571 76.2536 19.6006C76.7284 19.7884 77.0518 19.9189 77.3753 20.0493C77.6936 18.8024 77.3701 17.8267 76.4049 17.1172C75.6693 16.5746 74.991 16.7415 74.7614 17.6128C74.4588 18.7763 74.1823 19.945 75.0067 21.0875C75.278 21.4684 75.2936 22.0632 75.784 22.298C76.1493 22.4701 76.551 22.5849 76.9527 22.6423C77.0727 22.658 77.2866 22.4232 77.3597 22.2562C77.4066 22.1467 77.3388 21.9067 77.2397 21.818C76.864 21.4997 76.4571 21.218 76.0606 20.9206C76.1023 20.8475 76.1388 20.7745 76.1805 20.7015C76.5771 20.8841 76.9736 21.0615 77.4797 21.291ZM18.3414 41.3829C18.524 40.1725 18.6962 39.0195 18.8683 37.8769C17.8144 37.6003 17.2301 37.5899 16.1345 37.8143C16.5571 38.9673 16.9692 40.1047 17.4179 41.3307C17.6684 41.3464 17.9814 41.362 18.3414 41.3829ZM54.4244 40.4281C54.7374 39.6403 54.5652 38.7586 55.2435 38.1169C55.2017 38.4456 55.16 38.769 55.0817 39.3742C55.6817 38.8577 56.0939 38.5029 56.5843 38.0803C55.6922 37.4804 54.8209 37.7256 53.8974 37.5795C53.7565 38.5134 53.6313 39.3847 53.4852 40.3447C53.8609 40.376 54.1322 40.4021 54.4244 40.4281ZM19.5205 37.9343C18.9257 38.5708 19.0353 39.2282 19.051 39.9586C19.4736 40.0421 19.8857 40.1255 20.3501 40.2194C20.6527 39.4316 20.3344 38.8212 20.0162 37.9916C19.8492 38.3203 19.7605 38.4977 19.6353 38.7377C19.5988 38.4873 19.5675 38.2577 19.5205 37.9343ZM89.3125 41.9881C89.3386 42.129 89.5891 42.2281 89.7404 42.3429C89.8447 42.1916 90.043 42.0299 90.0325 41.8838C90.0012 41.2681 89.9125 40.6577 89.8134 39.7499C89.2812 40.6212 89.1925 41.2942 89.3125 41.9881ZM89.0152 39.7864C88.8012 39.8073 88.6134 39.776 88.5873 39.8334C88.3421 40.3081 88.3995 40.9707 88.8325 42.2177C88.9056 41.242 88.9578 40.5377 89.0152 39.7864Z" fill="black"/>
<path d="M5.52633 4.6795C7.03413 5.59253 8.28107 6.34904 9.53322 7.10555C9.20975 6.21861 8.42193 5.9421 7.73847 5.52993C7.02891 5.10211 6.31414 4.67428 5.59415 4.24646C5.59415 3.15083 5.59415 2.08128 5.59415 0.917816C6.2411 0.855208 6.815 0.735216 7.38369 0.761302C9.59062 0.849997 11.7975 0.938687 13.9992 1.11608C18.1992 1.4552 22.4043 1.58564 26.6199 1.63259C29.8703 1.66911 33.1207 1.86737 36.3659 1.98737C37.3624 2.02389 38.3641 2.02389 39.3606 2.06041C41.5675 2.14389 43.7745 2.23258 45.9814 2.33171C47.3535 2.39432 48.7257 2.51954 50.1031 2.54562C51.2665 2.56649 52.43 2.47258 53.5935 2.46214C55.383 2.44649 57.1725 2.44649 58.9621 2.46736C59.5464 2.47258 60.1255 2.58736 60.7099 2.59258C60.9133 2.59779 61.1168 2.43084 61.5133 2.25867C61.1273 2.07085 60.929 1.89867 60.7255 1.88824C58.6438 1.77346 56.5673 1.66389 54.4856 1.61172C53.9117 1.59607 53.3378 1.8465 52.7587 1.85172C51.5117 1.87259 50.2596 1.82563 49.0127 1.77868C48.1414 1.74737 47.2701 1.63781 46.3988 1.61172C43.0649 1.49694 39.731 1.40303 36.3972 1.29869C33.1468 1.19434 29.9016 1.08477 26.6512 0.975206C21.4496 0.797818 16.2479 0.552606 11.0619 0.0726131C9.41323 -0.078689 7.73846 0.0517416 6.07414 0.0621763C5.23937 0.0673936 4.74373 0.521304 4.62895 1.32999C4.50895 2.19084 4.39938 3.06213 4.37851 3.93342C4.31591 6.51599 4.27939 9.09856 4.27417 11.6759C4.26895 13.2568 4.38373 14.8376 4.37851 16.4237C4.36808 19.9245 4.30548 23.4253 4.27939 26.9261C4.26374 28.9296 4.27417 30.9278 4.27417 32.9313C4.27417 33.0982 4.26373 33.2652 4.27417 33.4321C4.30547 34.1469 4.44634 34.4338 4.7959 34.4078C5.37502 34.3608 5.39067 33.8443 5.42198 33.4686C5.55763 31.8095 5.78197 30.1348 5.69328 28.4809C5.50024 24.7766 5.55763 21.0723 5.47937 17.3628C5.41676 14.4046 5.31242 11.4516 5.28633 8.49337C5.28633 7.31947 5.43242 6.16122 5.52633 4.6795Z" fill="black"/>
<path d="M10.2508 6.09307C8.91519 4.64787 6.95348 3.51571 5.98828 3.46875C6.00915 3.54179 6.00915 3.65658 6.0561 3.68266C7.45434 4.49135 8.85259 5.29482 10.2508 6.09307Z" fill="black"/>
<path d="M61.0806 35.343C60.3919 34.1639 59.2702 33.4595 58.1328 32.7656C58.2059 33.2508 58.6546 33.3917 58.9572 33.663C59.2963 33.9604 59.6197 34.2786 59.9432 34.5917C60.2615 34.8995 60.5745 35.2178 60.8928 35.5308C60.9554 35.463 61.018 35.4056 61.0806 35.343Z" fill="black"/>
<path d="M75.6666 25.8832C75.5779 25.6224 75.5466 25.5024 75.4944 25.3928C74.6909 23.7859 74.4092 24.1198 72.8023 24.3233C72.6405 24.3441 72.484 24.4119 72.3379 24.4902C72.2336 24.5476 72.1606 24.6519 72.051 24.7511C72.0406 25.3041 72.4162 25.5598 72.8492 25.7111C73.7362 26.0293 74.6283 26.3371 75.6666 25.8832Z" fill="black"/>
<path d="M74.043 34.9775C74.8308 35.6401 75.6238 36.3027 76.4586 37.0071C76.3125 36.2714 75.9056 35.901 74.043 34.9775Z" fill="black"/>
<path d="M74.6248 33.6785C74.0562 33.0263 74.0561 33.0263 73.2109 32.6924C73.5188 33.2141 73.5188 33.2141 74.6457 33.6576L74.6248 33.6785Z" fill="black"/>
<path d="M61.8558 43.4441C61.6888 43.0059 61.3758 42.7346 60.9219 42.625C61.1358 43.0163 61.3706 43.3815 61.8767 43.4232L61.8558 43.4441Z" fill="black"/>
<path d="M12.6859 8.4364C12.7642 8.29031 12.8425 8.14422 12.952 7.94075C12.5607 7.94075 12.2164 7.94075 11.8251 7.94075C11.6738 8.05553 11.6842 8.37379 11.3242 8.51988C11.4807 8.20684 11.5955 7.97206 11.7155 7.72685C11.5746 7.62772 11.4599 7.54946 11.3242 7.46076C11.512 7.25207 11.7103 7.35642 11.8094 7.46076C12.0912 7.7738 12.4146 7.67989 12.8059 7.64337C12.6859 7.51294 12.6025 7.41381 12.4877 7.28859C12.9416 7.15816 13.1346 7.62772 13.4894 7.61728C13.8233 7.60685 14.1416 7.81554 14.5277 7.6851C14.3294 7.33033 14.0633 7.07468 13.8024 6.82946C13.7398 6.77207 13.6094 6.78251 13.5051 6.76686C13.2651 6.72512 13.2651 6.73033 13.0459 6.51121C13.1607 6.46947 13.2651 6.43295 13.3694 6.39643C13.3485 6.1773 13.1398 6.00513 12.8685 5.97382C12.6807 5.94774 12.4929 5.91122 12.3103 5.86948C12.2633 5.85904 12.2216 5.80165 12.1329 5.7234C12.2581 5.69209 12.3364 5.64514 12.399 5.66079C12.8372 5.7547 12.8894 5.71296 12.9155 5.25905C12.9155 5.22253 12.952 5.18601 12.9729 5.14427C13.1503 5.13384 13.1868 5.26949 13.1816 5.37384C13.1711 5.84339 13.5051 6.07296 13.7868 6.34426C13.9746 6.20861 13.865 5.91122 14.1677 5.80165C14.1468 5.95817 14.1468 6.06774 14.1155 6.17208C13.9642 6.66773 14.1937 6.98598 14.6216 7.2625C14.6685 6.91294 14.6998 6.60512 14.5433 6.2973C14.4911 6.19817 14.4703 6.01557 14.5277 5.93731C14.7363 5.63992 14.6685 5.38427 14.4859 5.12341C14.4077 5.01384 14.319 4.91471 14.2563 4.79471C14.2303 4.74776 14.2511 4.6695 14.3346 4.56515C14.5016 4.77384 14.6737 4.98254 14.8511 5.20166C15.1329 4.9721 15.3937 4.75297 15.6546 4.53906C15.6755 4.55471 15.6963 4.57559 15.7224 4.59124C15.5346 4.8208 15.3676 5.07123 15.1589 5.26949C14.8876 5.52514 14.8303 5.80687 14.9189 6.18252C15.0755 6.13035 15.2215 6.08339 15.4042 6.026C15.3885 6.20861 15.2842 6.31817 15.1642 6.386C14.8407 6.57382 14.8303 6.8399 14.9242 7.17381C15.2633 6.96512 15.5137 6.70946 15.6963 6.38077C15.7955 6.20339 15.8737 6.04165 16.1085 5.95817C16.2598 5.906 16.3537 5.68165 16.4581 5.52513C16.6041 5.31644 16.6407 5.02428 16.9485 4.87819C16.985 5.23819 16.6094 5.42079 16.6772 5.80165C16.938 5.85904 17.2198 5.92165 17.5067 5.98426C17.5015 6.01556 17.4963 6.04686 17.4963 6.07817C17.2772 6.07817 17.058 6.0886 16.8389 6.07817C16.312 6.05208 16.1763 6.14078 15.952 6.66773C16.1033 6.79294 16.3746 6.68338 16.4894 6.94947C16.1033 7.0486 15.6702 6.78773 15.352 7.14772C15.2007 7.31989 14.9972 7.45554 14.945 7.76336C15.352 7.78945 15.7328 7.81555 16.1085 7.84163C16.1502 7.84163 16.2076 7.82597 16.2285 7.79466C16.4633 7.4138 16.9067 7.51815 17.2354 7.35642C17.2407 7.3512 17.2615 7.37207 17.2876 7.38772C17.2928 7.64859 16.9537 7.58075 16.8702 7.81031C17.6737 7.86249 18.4406 7.69554 19.2702 7.61728C19.0406 7.99815 18.5293 7.73728 18.378 8.19641C18.4667 8.29553 18.5763 8.42074 18.7276 8.59291C18.4406 8.59291 18.2841 8.45727 18.1954 8.29554C18.065 8.0451 17.8772 8.0138 17.6424 8.03467C17.3763 8.06076 17.1154 8.08162 16.8285 8.1077C16.8546 8.26422 16.8754 8.38423 16.8963 8.50423C16.8337 8.50944 16.7867 8.51987 16.7815 8.51465C16.4633 7.94075 15.9311 8.0764 15.3781 8.0764C15.7276 8.74943 16.2546 9.13553 16.9276 9.39117C16.8389 9.50596 16.7815 9.5842 16.7189 9.6729C16.8076 9.94942 17.2459 10.0799 17.0372 10.4764C17.2459 10.5912 17.4389 10.6955 17.6685 10.8207C17.3763 11.0451 17.1624 10.6694 16.9015 10.8259C16.8493 10.9825 16.7867 11.1755 16.7085 11.3946C16.4476 11.2068 16.6511 11.0242 16.672 10.8729C16.6981 10.6903 16.8024 10.5233 16.9015 10.2781C16.6876 10.0433 16.4372 9.77725 16.1659 9.47986C16.0563 9.61551 15.9781 9.71986 15.8946 9.8242C15.8685 9.81899 15.8476 9.80855 15.8215 9.80333C15.8215 9.72507 15.7955 9.63639 15.8268 9.56856C15.9468 9.27639 15.832 9.05726 15.6494 8.84335C15.4302 8.5877 15.1902 8.35814 14.8511 8.0764C14.8616 8.56161 14.7311 8.92682 14.9711 9.3129C15.1485 9.59985 15.1276 9.97551 15.1955 10.3146C15.1485 10.3407 15.1068 10.3668 15.0598 10.3981C15.0181 10.3094 14.9711 10.2207 14.9085 10.1007C14.8563 10.2677 14.8198 10.3929 14.7781 10.5181C14.7468 10.5181 14.7155 10.5181 14.6842 10.5181C14.6633 10.252 14.6372 9.98595 14.6111 9.69899C14.4807 9.69899 14.3711 9.69899 14.2616 9.69899C14.2563 9.64682 14.2407 9.59986 14.2511 9.59464C14.8198 9.23986 14.6581 8.72857 14.5903 8.1651C14.0998 8.56684 13.8129 8.99986 13.7503 9.57377C13.7346 9.7042 13.7503 9.85551 13.5155 9.84508C13.5103 9.7303 13.4998 9.6103 13.4894 9.43291C13.2024 9.67812 12.999 9.89725 12.8998 10.2051C12.832 10.4138 12.7538 10.6277 12.6599 10.8259C12.6285 10.8938 12.5294 10.9303 12.4042 10.9251C12.4929 10.6694 12.5816 10.419 12.6755 10.1372C12.4564 10.0799 12.2842 10.0381 12.0599 9.97551C12.3259 9.72508 12.5451 9.89203 12.8007 9.87116C13.0251 9.59464 13.2703 9.29204 13.5416 8.95813C13.3225 8.87465 13.1711 8.81204 12.9885 8.74422C13.2755 8.51987 13.4424 8.51465 13.7816 8.70769C13.9485 8.51987 14.1155 8.32163 14.319 8.08685C14.0111 7.93033 13.7346 7.90423 13.4633 7.93032C13.3642 7.94075 13.2755 8.05032 13.192 8.12858C13.0564 8.25379 12.9364 8.39467 12.8059 8.5251C12.7538 8.49379 12.7172 8.4677 12.6859 8.4364Z" fill="black"/>
<path d="M28.1974 21.5817C28.4009 21.2061 28.6044 20.8304 28.8861 20.3139C27.8792 20.3139 26.9975 20.3139 25.9853 20.3139C25.5992 20.6008 25.6201 21.42 24.6914 21.806C25.0879 21.0026 25.3853 20.4026 25.6983 19.7661C25.3331 19.5156 25.041 19.3122 24.6914 19.0774C25.1818 18.54 25.6879 18.8061 25.9331 19.0774C26.6531 19.8808 27.4931 19.6409 28.4948 19.5522C28.1922 19.213 27.9731 18.9678 27.6809 18.6391C28.8444 18.3 29.34 19.5104 30.2531 19.4843C31.1035 19.4582 31.9278 19.9956 32.9191 19.6617C32.4078 18.7435 31.7243 18.0965 31.0565 17.46C30.8948 17.3087 30.5557 17.34 30.2948 17.2931C29.6792 17.1887 29.6792 17.1939 29.1157 16.6409C29.4131 16.5313 29.6792 16.4374 29.94 16.3435C29.8931 15.7853 29.3453 15.3418 28.6566 15.2583C28.1714 15.1957 27.6914 15.1018 27.2166 14.9922C27.0914 14.9609 26.9922 14.8201 26.7575 14.6218C27.0757 14.5435 27.274 14.4235 27.4409 14.4601C28.5627 14.7001 28.7035 14.5957 28.7713 13.4218C28.7766 13.3227 28.8653 13.2288 28.9174 13.1349C29.3713 13.1036 29.4652 13.4583 29.46 13.7244C29.4287 14.9244 30.2896 15.514 31.0096 16.2131C31.4844 15.8635 31.2078 15.1018 31.9904 14.8148C31.933 15.2166 31.933 15.5035 31.8548 15.7592C31.4739 17.027 32.053 17.8513 33.1539 18.5609C33.2791 17.6635 33.3522 16.8757 32.9556 16.0774C32.8252 15.8166 32.7678 15.3574 32.9087 15.154C33.4461 14.3922 33.2739 13.7349 32.8043 13.0618C32.6061 12.7801 32.3765 12.5192 32.2096 12.2218C32.1417 12.0966 32.1991 11.8984 32.413 11.6375C32.8461 12.1749 33.2843 12.7123 33.733 13.2653C34.453 12.6705 35.1208 12.1175 35.7939 11.5645C35.8513 11.6114 35.9086 11.6584 35.966 11.7053C35.486 12.2897 35.0582 12.9366 34.5104 13.4531C33.8113 14.1105 33.66 14.8409 33.8947 15.7957C34.3017 15.6653 34.6773 15.5453 35.1469 15.3992C35.1104 15.8687 34.8339 16.1505 34.5365 16.3226C33.7069 16.8026 33.6808 17.4809 33.9208 18.347C34.7869 17.8044 35.4391 17.1522 35.8982 16.3018C36.1486 15.8427 36.3521 15.4305 36.9521 15.2166C37.3382 15.0809 37.5782 14.5018 37.8547 14.1001C38.2251 13.5627 38.3242 12.8166 39.1225 12.441C39.2112 13.3644 38.2512 13.8392 38.4234 14.8148C39.0912 14.9609 39.8216 15.1174 40.552 15.2792C40.5416 15.3627 40.5312 15.4409 40.5207 15.5244C39.9573 15.5244 39.3938 15.5453 38.8355 15.5192C37.4843 15.4514 37.1347 15.6757 36.5608 17.027C36.9469 17.3505 37.646 17.0687 37.9434 17.7522C36.9521 18.0131 35.8356 17.3348 35.0165 18.2583C34.6252 18.7017 34.1087 19.0565 33.9678 19.8443C35.0165 19.9174 35.9869 19.9852 36.9573 20.0374C37.0617 20.0426 37.2182 19.9956 37.2599 19.9174C37.8651 18.9365 39.0077 19.2078 39.8529 18.7957C39.8686 18.7852 39.9155 18.8322 39.9886 18.8843C40.0042 19.5574 39.1225 19.3748 38.9138 19.9748C40.9851 20.1052 42.952 19.6722 45.0807 19.4739C44.4859 20.46 43.1711 19.7765 42.7903 20.9608C43.0146 21.2165 43.2963 21.5347 43.6876 21.973C42.9572 21.973 42.5451 21.6234 42.3259 21.2061C41.9972 20.5643 41.512 20.4809 40.9068 20.5382C40.2286 20.6008 39.5503 20.6635 38.8147 20.7313C38.8825 21.1278 38.9347 21.4408 38.9869 21.7539C38.8303 21.7643 38.7103 21.8008 38.6947 21.7747C37.8756 20.293 36.5034 20.6478 35.0843 20.653C35.9817 22.38 37.3382 23.3765 39.0599 24.0338C38.8355 24.3312 38.6895 24.5347 38.5225 24.759C38.7521 25.4738 39.8738 25.8077 39.3364 26.8199C39.879 27.1173 40.3642 27.3781 40.959 27.7016C40.2077 28.2807 39.6651 27.3103 38.9921 27.712C38.8564 28.119 38.6947 28.6042 38.5016 29.1729C37.8234 28.6877 38.3503 28.2181 38.4025 27.8268C38.4651 27.3625 38.7416 26.9242 38.9973 26.3034C38.4442 25.7034 37.8077 25.0199 37.1034 24.253C36.8269 24.6025 36.6182 24.8686 36.4095 25.1295C36.3469 25.1086 36.2843 25.093 36.2217 25.0721C36.2217 24.8686 36.1591 24.6443 36.2321 24.4669C36.5347 23.7208 36.253 23.1573 35.7782 22.5991C35.2147 21.9365 34.5991 21.3469 33.7278 20.6321C33.7591 21.8791 33.42 22.813 34.0408 23.8095C34.5 24.5451 34.4478 25.5156 34.6252 26.3764C34.5104 26.4442 34.3904 26.5173 34.2756 26.5851C34.1608 26.3608 34.046 26.1312 33.8895 25.8182C33.7539 26.2512 33.6548 26.5694 33.5556 26.8877C33.4774 26.8877 33.3939 26.8825 33.3156 26.8825C33.2582 26.199 33.1956 25.5156 33.133 24.7747C32.7939 24.7747 32.5122 24.7747 32.2304 24.7747C32.2148 24.639 32.1782 24.519 32.2096 24.5034C33.6756 23.5904 33.2478 22.2704 33.0808 20.8356C31.8183 21.8634 31.0774 22.9852 30.9209 24.4617C30.8844 24.7903 30.9157 25.1816 30.3157 25.1608C30.2948 24.8582 30.2791 24.5608 30.2478 24.1069C29.5174 24.7382 28.9957 25.3016 28.74 26.0947C28.5627 26.6373 28.3644 27.1747 28.1192 27.686C28.0357 27.8581 27.7853 27.9468 27.4566 27.9364C27.6809 27.2842 27.9053 26.6321 28.1557 25.9121C27.587 25.766 27.154 25.6564 26.5696 25.5051C27.2531 24.8634 27.8218 25.2912 28.4687 25.2286C29.0479 24.5138 29.6792 23.7365 30.3678 22.886C29.8096 22.6669 29.4131 22.5104 28.9487 22.3278C29.6896 21.7539 30.1122 21.7382 30.9783 22.2286C31.4009 21.7434 31.8391 21.2426 32.3609 20.6374C31.5678 20.2356 30.8583 20.1626 30.1592 20.2356C29.9087 20.2617 29.6739 20.5487 29.4652 20.7469C29.1209 21.0704 28.8026 21.4252 28.4792 21.7695C28.3748 21.7278 28.2861 21.6547 28.1974 21.5817Z" fill="white"/>
</svg>
