<svg width="63" height="60" viewBox="0 0 63 60" fill="none" xmlns="http://www.w3.org/2000/svg">
<path d="M13.8037 15.3107C12.5788 15.6782 11.4764 15.1882 10.864 14.2083C9.14915 11.5136 7.43432 8.69639 5.84198 5.87917C5.71949 5.6342 5.96447 5.02176 6.08695 4.6543C6.45442 4.89927 7.06685 4.89927 7.18934 5.26674C8.41422 7.22654 9.39412 9.18634 10.619 11.1461C11.4764 12.4935 12.5788 13.8409 13.8037 15.3107Z" fill="#EB584A"/>
<path d="M29.1137 0C29.4811 0.244975 29.8486 0.489951 29.8486 0.612439C29.9711 4.89951 30.0936 9.30907 30.0936 13.7186C28.2562 11.1464 27.6438 3.30717 29.1137 0Z" fill="#EB584A"/>
<path d="M52.0188 5.14453C50.059 8.81916 47.9767 12.3713 45.8944 16.0459C45.7719 16.2909 45.282 16.2909 45.037 16.4134C44.3021 15.4335 45.037 14.6986 45.282 14.0861C46.8743 10.779 50.5489 5.63448 52.0188 5.14453Z" fill="#EB584A"/>
<path d="M54.4713 34.0518L57.0436 38.0939L61.5756 52.3025L38.9154 59.1618H23.8494L13.193 58.4269L0.699219 52.5475L7.92599 32.337L13.9279 28.5399L22.8695 26.9475L33.1585 26.5801L44.7948 28.1724L51.4091 30.3772L54.4713 34.0518Z" fill="#EB584A"/>
<path d="M18.2152 59.2841C15.643 58.6716 12.7033 58.5491 9.88607 57.4468C7.6813 56.5893 5.35403 55.9769 3.39422 54.752C2.41432 54.1396 1.6794 53.4047 0.821983 52.6697C0.332032 52.1798 0.209543 51.5673 0.454519 50.8324C1.6794 47.5252 3.02676 44.2181 4.25164 40.9109C4.86408 39.3186 5.599 37.7262 6.08895 36.1339C6.70139 34.0516 7.92627 32.4593 9.27364 30.8669C10.4985 29.5195 12.3358 28.9071 14.0507 28.5396C16.9904 27.9272 20.0526 27.3148 23.1147 26.9473C27.4018 26.4574 31.8114 26.5798 36.0984 26.7023C40.1405 26.8248 43.9377 28.0497 47.7348 28.9071C49.0821 29.2746 50.1845 29.887 51.5319 30.377C54.1041 31.2344 55.4515 33.3167 56.5539 35.6439C57.9013 38.8286 59.1261 42.1358 60.351 45.4429C60.9635 47.1578 61.5759 48.9951 62.1883 50.7099C62.3108 51.0774 62.3108 51.4449 62.3108 51.8123C62.1883 52.0573 61.6984 52.4248 61.6984 52.3023C61.0859 51.8123 60.841 52.4248 60.4735 52.5472C57.1663 53.8946 53.9817 55.7319 50.4295 56.5893C48.1022 57.2018 45.775 58.0592 43.4477 58.6716C40.263 59.529 36.9559 60.019 33.5262 59.8965C28.7492 59.774 24.0946 59.529 19.3176 59.2841C18.9502 59.4066 18.7052 59.2841 18.2152 59.2841ZM21.1549 36.5013C20.665 36.9913 20.0526 37.3588 19.4401 37.9712C21.1549 38.5836 21.7674 36.6238 23.3597 36.7463C22.6248 37.3588 22.1348 37.8487 21.3999 38.4612C21.8899 38.5836 22.1348 38.7061 22.3798 38.8286C25.197 39.3186 28.1367 39.931 30.954 40.2985C33.8937 40.7884 36.8334 41.0334 39.7731 40.7884C41.9779 40.6659 44.3051 40.6659 46.5099 40.176C49.2046 39.686 51.7769 38.8286 53.6142 36.3789C54.5941 35.154 54.5941 34.1741 53.4917 33.0717C52.6343 32.3368 51.6544 31.7243 50.6745 31.2344C47.2448 29.642 43.5702 28.9071 39.7731 28.1722C38.6707 27.9272 37.5683 27.8047 36.4659 27.6822C34.3836 27.5597 32.4238 27.6822 30.3415 27.5597C25.0746 27.1923 19.9301 28.0497 14.9081 29.3971C13.5607 29.7645 12.2133 30.377 10.866 30.9894C9.27363 31.8468 9.02866 33.4392 10.4985 34.4191C11.6009 35.154 12.8258 35.7664 13.9282 36.5013C14.4181 36.7463 14.9081 36.8688 15.398 36.3789C17.3578 34.7865 19.5626 34.1741 21.8899 33.8066C24.2171 33.4392 26.5444 32.4593 28.9942 33.6841C29.1166 33.8066 29.3616 33.6841 29.6066 33.6841C34.8736 33.9291 39.6506 35.8889 44.3051 37.9712C45.1625 38.3387 45.1625 38.5836 44.5501 39.4411C44.0602 39.0736 43.5702 38.7061 43.0802 38.5836C41.6104 37.9712 40.263 37.3588 38.7932 36.8688C36.9559 36.2564 34.9961 35.6439 33.0363 35.2765C29.2391 34.5415 25.442 34.664 21.6449 35.399C20.2975 35.6439 18.9502 36.2564 17.6028 36.6238C17.3578 36.7463 17.1129 36.9913 16.7454 37.3588C17.7253 37.8487 18.4602 37.8487 19.1951 37.3588C19.8076 36.9913 20.5425 36.7463 21.1549 36.5013ZM2.78178 48.9951C1.55691 51.1999 1.6794 51.6898 3.39422 52.9147C3.88417 53.2822 4.37413 53.5271 4.98657 53.7721C8.41622 55.242 11.9684 56.7118 15.643 57.4468C16.9904 57.6917 18.3377 57.8142 19.6851 57.9367C21.7674 58.0592 23.9722 58.1817 26.1769 58.3042C28.5042 58.4266 30.954 58.6716 33.2812 58.5491C41.1204 58.0592 48.7147 55.9769 55.9415 53.1597C57.2888 52.6697 58.5137 52.1798 59.7386 51.4449C61.2084 50.7099 61.2084 50.465 60.106 48.8726C57.2888 50.9549 54.1041 52.5472 50.797 53.4047C46.3874 54.507 41.7329 54.8745 40.508 54.2621C40.753 54.0171 40.8755 53.7721 41.1204 53.7721C41.9779 53.6496 42.9578 53.4047 43.8152 53.4047C49.8171 53.2822 55.2065 51.1999 59.9836 47.6477C58.6362 43.9731 57.4113 40.5434 56.0639 36.9913C55.9415 36.6238 55.6965 36.3789 55.4515 36.1339C55.084 36.6238 54.8391 36.9913 54.4716 37.3588C53.8592 37.9712 53.2467 38.7061 52.3893 39.1961C49.5721 40.9109 46.5099 41.8908 43.3252 41.8908C39.6506 42.0133 35.976 42.2583 32.1788 41.5233C28.5042 40.7884 24.7071 40.421 21.0325 39.686C18.0928 39.0736 15.2755 38.0937 12.4583 37.3588C11.111 38.9511 10.866 41.1559 9.6411 42.9932C10.131 41.2784 10.866 39.5635 11.4784 37.8487C11.8459 36.8688 11.8459 36.8688 10.621 36.2564C9.39612 38.9511 8.17125 41.6458 7.06886 44.3406C6.94637 43.7281 7.19134 43.3607 7.31383 42.8707C8.17125 40.7884 9.02866 38.8286 9.88607 36.7463C10.376 35.6439 10.2535 35.5214 8.90617 35.0315C6.94637 39.3186 4.6191 43.3607 3.39422 48.0152C5.47651 48.8726 7.31383 49.8525 9.39612 50.5874C16.2554 52.7922 23.2372 54.752 30.464 54.8745C31.5664 54.8745 32.5463 55.1195 33.8937 55.7319C33.0363 55.9769 32.5463 56.0994 32.1788 56.0994C30.0965 55.9769 28.0143 56.0994 26.0545 55.7319C20.91 54.8745 15.888 53.6496 10.9885 51.9348C8.04876 50.8324 5.47651 49.975 2.78178 48.9951Z" fill="black"/>
<path d="M57.0424 44.9521C56.185 42.7473 55.3276 40.5425 54.3477 38.0928C55.695 38.9502 57.0424 42.5023 57.0424 44.9521Z" fill="black"/>
<path d="M55.3298 43.8511C53.86 42.8712 53.0026 41.0339 53.37 39.6865C54.105 41.2789 54.7174 42.5037 55.3298 43.8511Z" fill="black"/>
<path d="M21.1562 36.5015C21.5237 36.2566 22.0137 36.0116 22.3811 35.7666C22.3811 35.8891 22.5036 36.0116 22.5036 36.0116C22.1362 36.2566 21.6462 36.379 21.1562 36.5015Z" fill="black"/>
<path d="M44.5508 32.8264C45.1632 32.3365 45.5307 31.6016 45.7757 30.8666C45.7757 30.7442 45.8981 30.4992 46.0206 30.3767C46.3881 30.1317 46.7556 30.4992 47.0005 30.7442C47.7355 31.7241 48.4704 32.5815 48.9603 33.6839C49.4503 34.7862 49.4503 36.1336 48.9603 37.1135C48.8378 37.3585 48.5929 37.6035 48.2254 37.6035C48.1029 37.6035 47.9804 37.481 47.8579 37.236C46.6331 36.0111 45.5307 34.4188 44.5508 32.8264Z" fill="white"/>
<path d="M47.7335 25.1096C47.7335 25.9671 47.7335 26.8245 47.611 27.6819C47.611 28.5393 47.366 29.2742 47.366 30.1316C47.366 31.969 48.3459 33.0714 50.1832 33.4388C50.6732 33.5613 51.0407 33.8063 52.0206 34.2962C49.0809 35.3986 48.8359 37.4809 49.2033 39.8082C49.3258 40.6656 49.2033 41.768 49.0808 42.6254C48.9584 43.4828 48.5909 44.0952 47.4885 44.2177C47.4885 43.1153 47.611 42.1354 47.611 41.1555C47.611 40.2981 47.7335 39.5632 47.611 38.7058C47.366 36.6235 46.1411 35.3986 44.0589 35.3986C43.4464 35.3986 42.834 35.3986 41.9766 35.2761C42.9565 34.1737 43.6914 33.1938 44.5488 32.3364C45.5287 31.234 46.0187 30.1316 45.8962 28.5393C45.7737 27.5594 46.0187 26.457 46.2636 25.4771C46.3861 25.2321 46.8761 24.9872 47.121 24.7422C47.366 24.8647 47.611 24.9872 47.7335 25.1096ZM48.3459 35.8886C48.8359 33.6838 47.2435 33.3163 46.3861 31.969C45.7737 32.7039 45.4062 33.3163 44.9163 33.9288C46.1411 34.5412 46.9986 35.1536 48.3459 35.8886Z" fill="black"/>
<path d="M25.1953 48.7502C25.6853 48.3828 25.9302 47.7703 26.1752 47.1579C26.1752 47.0354 26.2977 46.9129 26.4202 46.7904C26.6652 46.5454 27.0326 46.9129 27.1551 47.0354C27.7676 47.7703 28.38 48.5052 28.7475 49.3627C29.1149 50.2201 29.1149 51.3225 28.7475 52.0574C28.625 52.3024 28.5025 52.4248 28.135 52.4248C28.0125 52.4248 27.89 52.3024 27.89 52.1799C26.9101 51.3225 26.0527 50.0976 25.1953 48.7502Z" fill="white"/>
<path d="M27.7678 42.6253C27.7678 43.3602 27.7678 43.9726 27.6453 44.7076C27.6453 45.4425 27.4004 45.9324 27.4004 46.6674C27.4004 48.1372 28.1353 48.9946 29.6051 49.2396C29.9726 49.3621 30.3401 49.4846 31.075 49.9745C28.7477 50.832 28.5027 52.5468 28.8702 54.3841C28.9927 55.119 28.8702 55.9764 28.7477 56.5889C28.6252 57.3238 28.3803 57.8138 27.5228 57.8138C27.5228 56.9563 27.6453 56.0989 27.6453 55.364C27.6453 54.6291 27.7678 54.1391 27.6453 53.4042C27.4003 51.6894 26.4204 50.832 24.8281 50.832C24.3382 50.832 23.8482 50.832 23.1133 50.7095C23.8482 49.8521 24.4606 48.9946 25.1956 48.3822C25.9305 47.5248 26.4204 46.6674 26.298 45.32C26.1755 44.5851 26.4204 43.6052 26.5429 42.8703C26.6654 42.6253 27.0329 42.5028 27.2779 42.2578C27.5228 42.5028 27.6453 42.5028 27.7678 42.6253ZM28.2578 51.1994C28.6252 49.4846 27.4003 49.1171 26.6654 48.1372C26.1755 48.7497 25.9305 49.2396 25.4405 49.7296C26.5429 50.2195 27.1554 50.7095 28.2578 51.1994Z" fill="black"/>
<path d="M15.7656 23.6408C16.1331 23.2733 16.5005 22.7834 16.623 22.2934C16.623 22.1709 16.7455 22.0484 16.7455 21.926C16.9905 21.8035 17.2355 22.0484 17.4805 22.1709C17.9704 22.9059 18.4604 23.3958 18.8278 24.2532C19.1953 25.1106 19.1953 25.9681 18.8278 26.703C18.7053 26.8255 18.5828 27.0704 18.3379 27.0704C18.2154 27.0704 18.2154 26.948 18.0929 26.8255C17.2355 25.8456 16.5006 24.7432 15.7656 23.6408Z" fill="white"/>
<path d="M18.0929 18.2508C18.0929 18.8633 18.0929 19.4757 17.9704 20.0881C17.9704 20.7006 17.8479 21.1905 17.8479 21.803C17.8479 23.0279 18.5828 23.8853 19.8077 24.1302C20.1752 24.2527 20.4201 24.3752 21.0326 24.7427C18.9503 25.4776 18.8278 26.9475 19.0728 28.5398C19.1953 29.1522 19.0728 29.8872 18.9503 30.4996C18.8278 31.112 18.5828 31.4795 17.8479 31.602C17.8479 30.8671 17.9704 30.1321 17.9704 29.5197C17.9704 28.9073 18.0929 28.4173 17.9704 27.8049C17.8479 26.335 16.9905 25.4776 15.5206 25.4776C15.1532 25.4776 14.6632 25.4776 14.0508 25.3551C14.7857 24.6202 15.2757 23.8853 15.8881 23.2728C16.623 22.5379 16.868 21.6805 16.868 20.5781C16.7455 19.8432 16.9905 19.1082 17.113 18.4958C17.2355 18.3733 17.4804 18.1283 17.7254 18.0059C17.8479 18.1283 17.9704 18.1283 18.0929 18.2508ZM18.4603 25.8451C18.8278 24.2527 17.7254 24.0078 17.113 23.1503C16.7455 23.6403 16.378 24.1302 16.1331 24.4977C16.9905 24.8652 17.4804 25.2326 18.4603 25.8451Z" fill="black"/>
</svg>
