<svg width="32" height="32" viewBox="0 0 32 32" fill="none" xmlns="http://www.w3.org/2000/svg">
<path d="M3.85875 15.8741C3.7376 16.0959 3.33056 16.0471 3.27565 15.883C3.04468 15.7765 2.98977 15.6124 2.93486 15.4482C2.82503 15.12 2.53915 14.8493 2.42932 14.5211C1.80264 13.8157 1.2422 12.7245 1.55073 11.8949C1.68321 11.1231 2.33255 10.7283 2.92697 10.1693C3.10303 10.1117 3.22418 9.88988 3.45515 9.99635C3.63121 9.93869 3.68613 10.1028 3.86219 10.0452C5.01705 10.5775 5.69865 11.447 6.5563 12.2588C6.95201 12.8577 7.52378 13.3989 7.62228 14.2772C7.84193 14.9337 7.5883 15.9274 6.93897 16.3222C6.64175 16.6017 6.28963 16.717 5.93751 16.8323C5.40932 17.0053 5.0572 17.1206 4.59525 16.9077C3.55021 16.7036 2.98977 15.6124 2.36308 14.907" fill="white"/>
<path d="M14.0395 5.0674C14.2152 5.00957 14.3909 4.95173 14.5667 4.8939C14.7424 4.83607 14.973 4.94277 15.2035 5.04947C15.95 5.53409 16.345 6.13438 16.6192 6.95702C16.7288 7.28608 16.8385 7.61514 16.7724 8.00203C16.7498 9.10487 15.9696 10.2745 14.7942 10.8438C13.2675 11.5289 11.8841 10.8887 11.7422 9.29224C11.5454 7.53129 12.5675 5.91694 14.0395 5.0674Z" fill="white"/>
<path d="M24.2716 5.89374C24.4472 5.83586 24.502 6.00055 24.6776 5.94268C25.1385 6.1563 25.5993 6.36993 25.9393 6.80613C27.5299 8.65771 24.7073 13.06 22.2386 11.4978C21.4377 10.848 20.8785 9.75304 21.1314 8.75598C21.3843 7.75891 23.1082 5.9116 24.2716 5.89374Z" fill="white"/>
<path d="M13.3128 14.6864C14.0807 14.0661 14.8485 13.4458 15.7804 13.3208C16.4822 13.0888 17.1179 13.2449 17.8744 13.1779C20.1325 13.5302 22.3791 14.4359 23.7919 16.3499C25.15 18.0989 25.2686 20.8074 23.8969 22.5432C22.8215 23.9978 20.7709 24.8591 19.0711 25.6044C18.0184 25.9525 16.9658 26.3006 15.8584 26.4837C13.589 26.6846 9.25971 25.3686 9.19582 22.8253C8.67165 20.0678 11.1847 16.4892 13.3128 14.6864Z" fill="white"/>
<path d="M6.14076 16.2162C6.07467 16.6024 1.89779 15.7849 3.21759 13.8938C4.47128 12.3888 6.16315 15.1151 6.14076 16.2162Z" fill="#BCBCBB"/>
<path d="M13.4706 10.9281C12.1833 11.1676 10.0952 7.84501 12.3176 7.48122C14.133 7.06863 15.3409 10.6796 13.4706 10.9281Z" fill="#BCBCBB"/>
<path d="M22.5253 11.7698C22.2942 11.6634 22.0082 11.3929 21.8983 11.0648C21.7335 10.5727 21.3375 9.9741 21.1727 9.48198C20.898 8.66178 20.5683 7.67754 21.5153 7.00392C22.2861 6.38788 23.7938 6.80495 24.2447 7.56755C24.9267 8.43661 24.429 12.7854 22.5253 11.7698Z" fill="#BCBCBB"/>
<path d="M13.6027 20.1829C14.626 21.4857 15.638 23.338 15.1961 24.9376C14.6444 26.2093 13.2226 27.2194 11.7574 27.5162C11.4048 27.6314 11.0522 27.7466 10.6447 27.6978C10.1822 27.485 9.66483 27.1084 9.55494 26.7804C8.42166 25.1497 8.11488 23.0671 8.44684 21.1396C8.70097 20.147 9.51829 17.3334 10.7523 16.9302C11.9863 16.5271 12.9204 19.3144 13.6027 20.1829Z" fill="#BCBCBB"/>
<path d="M25.4353 19.4908C25.6041 19.9777 25.6548 20.6871 25.936 21.4985C26.2117 22.8571 25.6784 24.1325 24.6279 25.0419C24.3358 25.3249 23.8134 25.5059 23.465 25.6266C22.4818 25.6039 21.6726 25.5207 20.6894 25.4979C19.2453 25.2713 17.9137 25.3693 16.6329 26.1767C15.47 26.7614 14.4812 27.2858 13.3183 27.8706C12.6217 28.112 11.925 28.3534 11.2284 28.5949C9.72262 28.7532 8.57608 27.6964 8.53075 26.4397C8.48542 25.183 8.38385 23.7641 8.51268 22.4471C8.52904 20.8055 9.12412 19.1452 10.18 17.6887C10.8259 16.7378 11.7021 15.8888 12.5221 14.8776C12.9322 14.372 13.3984 14.0286 13.8647 13.6853C16.7746 11.9498 18.2749 12.3387 20.9218 13.7844C21.8996 14.3543 22.5291 15.045 23.3328 15.6753C23.9061 16.2037 24.3052 16.7925 24.7043 17.3812C24.9292 18.0303 25.1542 18.6795 25.4353 19.4908ZM11.8671 22.557L11.9233 22.7193C11.3391 23.2853 10.6987 23.689 10.1146 24.2549C9.18206 24.9416 9.2383 25.1039 9.57572 26.0776C9.63196 26.2398 9.68819 26.4021 9.74443 26.5644C10.3122 27.64 11.1776 27.8854 12.3967 27.4629C12.9192 27.2818 13.3855 26.9385 13.908 26.7574C14.7225 26.2934 15.7113 25.769 16.5821 25.4672C17.745 24.8824 19.0766 24.7845 20.4644 24.8488C21.2735 24.932 22.2568 24.9547 23.0659 25.0379C23.8751 25.121 24.3413 24.7777 24.7513 24.272C25.1051 23.6041 25.4589 22.9362 25.3518 22.0645C25.194 20.4833 24.57 19.2454 23.9459 18.0076C22.979 16.3432 21.6021 15.1845 19.8768 14.1465C19.2473 13.4558 18.3257 13.0481 17.2245 13.248C15.4829 13.8515 13.6233 14.6777 12.3371 16.0323C12.2191 16.2549 11.9271 16.5379 11.7529 16.5983C10.8766 17.4473 10.4049 18.3378 10.0457 19.5529C9.92233 20.3227 9.56856 20.9906 9.44518 21.7604C9.38349 22.1453 9.14764 22.5906 9.43427 22.8548C10.5409 22.1078 11.7655 21.1381 12.8722 20.391L12.9284 20.5533C12.7543 20.6137 12.6363 20.8363 12.6363 20.8363C11.878 21.4626 10.9455 22.1493 10.1872 22.7756C9.77714 23.2813 9.13673 23.685 9.41792 24.4964C10.3504 23.8097 11.1087 23.1833 11.8671 22.557Z" fill="#020203"/>
<path d="M7.62575 13.1228C8.07563 14.421 7.59846 15.8587 6.66597 16.5454C5.90763 17.1718 4.7502 17.2094 4.00278 16.7413C2.33378 15.8656 1.53558 14.6881 1.49572 12.8842C1.56287 11.9521 2.03458 11.0616 2.73668 10.273C3.02877 9.98998 3.60748 9.97118 3.83788 10.0731C5.10778 10.3601 5.91144 10.9904 6.59716 11.8433C7.17042 12.3717 7.51329 12.7982 7.62575 13.1228ZM2.58601 13.7788C3.09757 14.6921 3.7833 15.545 5.0532 15.832C6.60973 16.3832 7.36807 15.7568 7.44068 14.2775C7.3899 13.568 7.04704 13.1416 6.64794 12.5528C5.96221 11.6999 5.15856 11.0695 4.06282 10.7222C3.65826 10.6807 3.2537 10.6391 3.01785 11.0844C2.48991 11.8126 2.19237 12.6428 2.58601 13.7788Z" fill="#020203"/>
<path d="M16.2568 6.49613C16.7067 7.79435 16.2912 8.84717 15.7578 10.1226C15.2861 11.0131 13.1454 11.028 12.3417 10.3976C10.9648 9.23892 11.2732 7.31437 11.9191 6.36347C12.2729 5.69557 13.0875 5.23151 13.4975 4.72589C13.7896 4.4429 14.1941 4.48446 14.6549 4.68831C15.2899 4.83179 15.9756 5.68474 16.2568 6.49613ZM12.9259 9.83166C13.5663 9.42796 14.0326 9.08461 14.673 8.68091C13.7967 9.52988 13.7967 9.52988 13.6171 10.1374C13.9654 10.0167 14.3137 9.896 14.5441 9.99792C15.4095 10.2433 15.5891 9.63578 15.825 9.19051C16.0608 8.74524 16.0663 8.19805 16.2459 7.59051C16.3747 6.2735 15.4024 5.15635 14.1324 4.86937C13.082 5.7787 11.8574 6.74838 12.4198 8.37116C12.886 8.02781 13.4085 7.84674 13.8748 7.5034C13.5827 7.78639 13.4648 8.00902 13.1727 8.29201C12.4143 8.91835 12.4143 8.91835 12.9259 9.83166Z" fill="#020203"/>
<path d="M21.0765 10.2763C20.6267 8.97809 21.3397 7.09508 22.3901 6.18574C23.4406 5.27639 24.6542 5.40108 25.3962 6.41631C26.1382 7.43154 26.3014 8.46557 25.7118 9.57875C25.1221 10.6919 24.4762 11.6428 22.9143 11.6389C21.7568 11.6765 21.5264 11.5745 21.0765 10.2763ZM22.1324 8.81978C22.0145 9.04242 21.8966 9.26506 21.6607 9.71033C22.1832 9.52926 22.6495 9.1859 22.9978 9.06518C22.9978 9.06518 22.9978 9.06518 23.054 9.22746C22.7619 9.51046 22.4698 9.79345 22.0036 10.1368C22.5206 10.5029 23.0376 10.869 23.4984 11.0729C24.5434 10.7107 25.1276 10.1447 25.5431 9.09192C25.8406 8.26173 25.6211 7.06542 24.6995 6.65774C24.4692 6.55582 24.2388 6.4539 23.8904 6.57462C22.9634 6.71413 21.9692 7.78575 21.902 8.71786C21.8458 8.55558 22.0762 8.65751 22.1324 8.81978Z" fill="#020203"/>
<path d="M22.1285 8.82393C22.3641 8.37822 22.7125 8.25751 23.1171 8.29931C22.7688 8.42002 22.4205 8.54072 22.1285 8.82393Z" fill="#020203"/>
</svg>
