<svg width="24" height="24" viewBox="0 0 24 24" fill="none" xmlns="http://www.w3.org/2000/svg">
<path d="M24 12C24 9.62663 23.2962 7.30655 21.9776 5.33316C20.6591 3.35977 18.7849 1.8217 16.5922 0.913451C14.3995 0.00519943 11.9867 -0.232441 9.65892 0.230582C7.33115 0.693604 5.19295 1.83649 3.51472 3.51472C1.83649 5.19295 0.693604 7.33115 0.230582 9.65892C-0.232441 11.9867 0.00519943 14.3995 0.913451 16.5922C1.8217 18.7849 3.35977 20.6591 5.33316 21.9776C7.30655 23.2962 9.62663 24 12 24C15.1826 24 18.2348 22.7357 20.4853 20.4853C22.7357 18.2348 24 15.1826 24 12ZM12 21.8667C10.0486 21.8667 8.14094 21.288 6.51838 20.2038C4.89581 19.1197 3.63118 17.5787 2.88439 15.7758C2.13761 13.9729 1.94222 11.9891 2.32292 10.0751C2.70363 8.16117 3.64334 6.4031 5.02322 5.02322C6.4031 3.64334 8.16117 2.70363 10.0751 2.32292C11.9891 1.94222 13.9729 2.13761 15.7758 2.88439C17.5787 3.63118 19.1197 4.89581 20.2038 6.51838C21.288 8.14094 21.8667 10.0486 21.8667 12C21.8637 14.6159 20.8232 17.1238 18.9735 18.9735C17.1238 20.8232 14.6159 21.8637 12 21.8667Z" fill="black" fill-opacity="0.7"/>
<path d="M12.0031 7.41147C12.2131 7.41147 12.4184 7.3492 12.593 7.23254C12.7675 7.11588 12.9036 6.95006 12.984 6.75607C13.0643 6.56207 13.0854 6.3486 13.0444 6.14265C13.0034 5.9367 12.9023 5.74753 12.7538 5.59905C12.6053 5.45057 12.4162 5.34945 12.2102 5.30849C12.0043 5.26752 11.7908 5.28855 11.5968 5.3689C11.4028 5.44926 11.237 5.58534 11.1203 5.75993C11.0037 5.93452 10.9414 6.13979 10.9414 6.34977C10.9414 6.4892 10.9689 6.62726 11.0222 6.75607C11.0756 6.88488 11.1538 7.00192 11.2524 7.10051C11.351 7.1991 11.468 7.2773 11.5968 7.33066C11.7256 7.38401 11.8637 7.41147 12.0031 7.41147Z" fill="black" fill-opacity="0.7"/>
<path d="M13.8782 17.1336C13.5108 17.0159 13.0618 16.6705 13.0618 15.6854V9.21885C13.0618 9.19588 13.0573 9.17313 13.0485 9.15191C13.0397 9.13069 13.0268 9.11141 13.0106 9.09517C12.9943 9.07893 12.975 9.06605 12.9538 9.05726C12.9326 9.04847 12.9099 9.04394 12.8869 9.04395H10.3094C10.2231 9.04394 10.1377 9.06094 10.058 9.09396C9.97824 9.12697 9.9058 9.17537 9.84479 9.23638C9.78378 9.29739 9.73538 9.36982 9.70236 9.44954C9.66934 9.52925 9.65234 9.61469 9.65234 9.70098C9.65354 9.84218 9.69972 9.97932 9.78419 10.0925C9.86866 10.2056 9.987 10.2889 10.122 10.3302C10.4894 10.448 10.9384 10.7934 10.9384 11.7784V15.6855C10.9384 16.6705 10.4894 17.0159 10.122 17.1336C9.98701 17.1749 9.86866 17.2582 9.78419 17.3714C9.69973 17.4845 9.65354 17.6217 9.65234 17.7629C9.65234 17.8491 9.66934 17.9346 9.70236 18.0143C9.73538 18.094 9.78378 18.1664 9.84479 18.2275C9.9058 18.2885 9.97824 18.3369 10.058 18.3699C10.1377 18.4029 10.2231 18.4199 10.3094 18.4199H13.6909C13.7772 18.4199 13.8626 18.4029 13.9423 18.3699C14.022 18.3369 14.0944 18.2885 14.1555 18.2275C14.2165 18.1664 14.2649 18.094 14.2979 18.0143C14.3309 17.9346 14.3479 17.8491 14.3479 17.7629C14.3467 17.6217 14.3005 17.4845 14.2161 17.3714C14.1316 17.2582 14.0132 17.1749 13.8782 17.1336Z" fill="black" fill-opacity="0.7"/>
</svg>
