<svg width="30" height="30" viewBox="0 0 30 30" fill="none" xmlns="http://www.w3.org/2000/svg">
<path d="M30 15C30 12.0333 29.1203 9.13319 27.472 6.66645C25.8238 4.19972 23.4811 2.27713 20.7403 1.14181C17.9994 0.00649929 14.9834 -0.290551 12.0736 0.288227C9.16393 0.867006 6.49119 2.29562 4.3934 4.3934C2.29562 6.49119 0.867006 9.16393 0.288227 12.0736C-0.290551 14.9834 0.00649929 17.9994 1.14181 20.7403C2.27713 23.4811 4.19972 25.8238 6.66645 27.472C9.13319 29.1203 12.0333 30 15 30C18.9782 30 22.7936 28.4196 25.6066 25.6066C28.4196 22.7936 30 18.9782 30 15ZM15 27.3333C12.5607 27.3333 10.1762 26.61 8.14797 25.2548C6.11977 23.8996 4.53897 21.9734 3.60549 19.7198C2.67201 17.4661 2.42777 14.9863 2.90365 12.5939C3.37954 10.2015 4.55417 8.00387 6.27902 6.27902C8.00387 4.55417 10.2015 3.37954 12.5939 2.90365C14.9863 2.42777 17.4661 2.67201 19.7198 3.60549C21.9734 4.53897 23.8996 6.11977 25.2548 8.14797C26.61 10.1762 27.3333 12.5607 27.3333 15C27.3296 18.2699 26.029 21.4048 23.7169 23.7169C21.4048 26.029 18.2699 27.3296 15 27.3333Z" fill="black"/>
<path d="M15.0017 9.26361C15.2642 9.26361 15.5208 9.18577 15.739 9.03994C15.9572 8.89412 16.1273 8.68685 16.2278 8.44435C16.3282 8.20185 16.3545 7.93501 16.3033 7.67758C16.2521 7.42015 16.1257 7.18368 15.9401 6.99808C15.7545 6.81248 15.518 6.68608 15.2606 6.63488C15.0032 6.58367 14.7363 6.60995 14.4938 6.71039C14.2513 6.81084 14.044 6.98094 13.8982 7.19918C13.7524 7.41742 13.6746 7.674 13.6746 7.93648C13.6746 8.11076 13.7089 8.28334 13.7756 8.44435C13.8423 8.60537 13.94 8.75167 14.0633 8.87491C14.1865 8.99814 14.3328 9.0959 14.4938 9.16259C14.6548 9.22928 14.8274 9.26361 15.0017 9.26361Z" fill="black"/>
<path d="M17.3485 21.4148C16.8892 21.2676 16.328 20.8359 16.328 19.6046V11.5214C16.328 11.4927 16.3223 11.4642 16.3113 11.4377C16.3004 11.4112 16.2842 11.3871 16.2639 11.3668C16.2436 11.3465 16.2195 11.3304 16.193 11.3194C16.1665 11.3084 16.1381 11.3027 16.1094 11.3027H12.8875C12.7796 11.3027 12.6728 11.324 12.5732 11.3652C12.4735 11.4065 12.383 11.467 12.3067 11.5433C12.2305 11.6195 12.17 11.7101 12.1287 11.8097C12.0874 11.9094 12.0662 12.0162 12.0662 12.124C12.0677 12.3005 12.1254 12.472 12.231 12.6134C12.3366 12.7549 12.4845 12.859 12.6533 12.9106C13.1125 13.0578 13.6737 13.4895 13.6737 14.7208V19.6046C13.6737 20.8359 13.1125 21.2676 12.6533 21.4148C12.4845 21.4665 12.3366 21.5706 12.231 21.712C12.1254 21.8535 12.0677 22.0249 12.0662 22.2014C12.0662 22.3092 12.0874 22.416 12.1287 22.5157C12.17 22.6153 12.2305 22.7059 12.3067 22.7821C12.383 22.8584 12.4735 22.9189 12.5732 22.9602C12.6728 23.0014 12.7796 23.0227 12.8875 23.0227H17.1143C17.2222 23.0227 17.329 23.0014 17.4286 22.9602C17.5283 22.9189 17.6188 22.8584 17.6951 22.7821C17.7713 22.7059 17.8318 22.6153 17.8731 22.5157C17.9144 22.416 17.9356 22.3092 17.9356 22.2014C17.9341 22.0249 17.8764 21.8534 17.7708 21.712C17.6652 21.5705 17.5173 21.4664 17.3485 21.4148Z" fill="black"/>
</svg>
