<svg width="57" height="25" viewBox="0 0 57 25" fill="none" xmlns="http://www.w3.org/2000/svg">
<path d="M2 11.7445C2.1 11.7445 2.2 11.7445 2.3 11.7445C2.3 11.9445 2.3 12.2445 2.3 12.4445C2.3 12.7445 2.5 12.9445 2.6 13.2445C2.8 13.2445 2.8 13.4445 3 13.5445C3 13.6445 3 13.8445 3 14.0445C3 14.1445 3 14.2445 2.9 14.3445C2.9 14.4445 2.8 14.5445 2.8 14.6445C2.7 14.7445 2.7 14.9445 2.6 15.0445C2.6 15.0445 2.6 15.1445 2.6 15.2445C2.6 15.4445 2.5 15.6445 2.5 15.8445C2.7 15.9445 2.9 15.9445 3.1 16.0445C3.3 16.0445 3.4 16.1445 3.5 16.1445H3.6C3.7 16.1445 3.8 16.2445 3.8 16.2445C3.9 16.3445 4 16.3445 4 16.4445C4 16.4445 4 16.4445 4.1 16.4445C4.2 16.4445 4.3 16.5445 4.4 16.5445C4.5 16.5445 4.5 16.5445 4.6 16.6445C5 16.6445 5.2 16.7445 5.4 16.7445C5.5 16.9445 5.6 17.0445 5.7 17.2445V17.3445C5.6 17.4445 5.7 17.5445 5.6 17.6445C5.7 17.6445 5.8 17.7445 5.8 17.7445C6 17.7445 6.3 17.8445 6.4 18.0445C6.5 18.2445 6.6 18.3445 6.7 18.4445C6.8 18.6445 6.9 18.7445 7 18.8445C7.2 18.9445 7.3 18.8445 7.4 18.7445C7.4 18.6445 7.4 18.4445 7.4 18.3445C7.4 18.2445 7.4 18.2445 7.4 18.1445C7.5 18.0445 7.5 17.9445 7.5 17.7445C7.6 17.7445 7.7 17.7445 7.8 17.8445C8 17.8445 8.2 18.0445 8.3 18.1445C8.4 18.2445 8.5 18.3445 8.7 18.3445C8.8 18.3445 8.8 18.3445 8.9 18.2445C9 18.1445 9.1 18.0445 9.2 18.1445C9.3 18.1445 9.3 18.1445 9.4 18.1445C9.4 18.2445 9.5 18.3445 9.6 18.4445C9.6 18.4445 9.7 18.5445 9.7 18.6445C9.7 18.7445 9.7 18.9445 9.6 19.0445C9.6 19.1445 9.6 19.1445 9.6 19.2445C9.7 19.2445 9.8 19.2445 9.9 19.2445C10.1 19.2445 10.2 19.3445 10.3 19.5445C10.4 19.5445 10.5 19.5445 10.6 19.5445C10.7 19.4445 10.9 19.4445 11 19.5445C11.1 19.5445 11.1 19.5445 11.2 19.5445C11.3 19.5445 11.4 19.6445 11.4 19.7445C11.5 19.8445 11.6 19.9445 11.8 20.0445C11.9 20.0445 11.8 20.1445 11.9 20.1445C12.1 20.1445 12.3 20.1445 12.4 20.1445C12.5 20.2445 12.5 20.3445 12.5 20.4445C12.5 20.5445 12.6 20.6445 12.6 20.6445C12.7 20.6445 12.6 20.7445 12.7 20.7445C12.8 20.8445 12.9 21.0445 13 21.1445C13.1 21.3445 13.3 21.5445 13.5 21.8445C13.5 21.9445 13.6 21.9445 13.6 22.0445C13.7 21.9445 13.9 21.8445 14 21.7445C14.1 21.6445 14.2 21.6445 14.3 21.5445H14.4C14.5 21.4445 14.7 21.4445 14.8 21.4445C15.1 21.4445 15.3 21.6445 15.5 21.8445C15.6 21.9445 15.6 22.0445 15.6 22.1445C15.6 22.3445 15.7 22.5445 15.8 22.7445C15.8 22.8445 15.9 22.8445 16 22.8445C16.1 22.8445 16.2 22.9445 16.2 22.8445C16.2 22.8445 16.2 22.8445 16.3 22.8445C16.5 22.8445 16.6 22.7445 16.8 22.6445C17 22.5445 17.1 22.4445 17.2 22.4445C17.3 22.4445 17.4 22.3445 17.5 22.3445C17.6 22.3445 17.6 22.2445 17.7 22.1445C17.8 22.0445 18 21.9445 18.2 21.9445C18.3 21.9445 18.4 21.9445 18.5 22.0445C18.6 22.1445 18.7 22.1445 18.8 22.1445C18.9 22.2445 19.1 22.2445 19.2 22.4445C19.2 22.4445 19.3 22.4445 19.3 22.5445C19.4 22.6445 19.4 22.8445 19.6 22.8445C19.7 22.8445 19.7 22.9445 19.8 22.9445C20.1 22.9445 20.4 22.9445 20.7 22.9445C20.8 22.9445 20.9 22.9445 21 22.8445C21.1 22.8445 21.3 22.8445 21.4 22.8445C21.7 22.7445 22 22.7445 22.2 22.8445C22.5 22.8445 22.7 22.9445 23 23.0445C23.2 23.1445 23.4 23.3445 23.6 23.5445C23.7 23.6445 23.8 23.6445 23.9 23.7445C24 23.6445 23.9 23.5445 23.9 23.5445C23.8 23.4445 23.8 23.2445 23.6 23.2445C23.4 23.0445 23.4 22.8445 23.4 22.5445C23.4 22.4445 23.4 22.4445 23.4 22.3445C23.4 22.3445 23.5 21.9445 23.5 21.8445C23.5 21.7445 23.6 21.6445 23.6 21.6445C23.7 21.4445 23.8 21.3445 23.9 21.1445C24 21.0445 24.1 20.9445 24.2 20.7445C24.2 20.6445 24.3 20.6445 24.3 20.5445C24.4 20.4445 24.4 20.3445 24.5 20.2445C24.6 20.1445 24.6 20.0445 24.6 20.0445C24.7 19.8445 24.8 19.6445 24.9 19.4445C24.9 19.2445 25 19.0445 25.2 18.9445C25.3 18.8445 25.4 18.8445 25.4 18.8445C25.5 18.7445 25.6 18.6445 25.8 18.5445C25.9 18.4445 26 18.4445 26.1 18.3445C26 18.2445 25.9 18.0445 25.9 17.9445C25.8 17.7445 25.8 17.5445 25.8 17.2445C25.8 17.1445 25.8 17.0445 25.8 16.9445V16.8445C25.9 16.7445 25.8 16.6445 25.8 16.5445C25.9 16.3445 25.9 16.0445 26 15.7445C26.2 15.8445 26.5 15.9445 26.6 16.2445C26.7 16.4445 26.7 16.7445 26.7 16.9445C26.7 17.1445 26.7 17.3445 26.7 17.5445C26.7 17.6445 26.8 17.7445 26.9 17.8445C27 18.0445 27.1 18.3445 27 18.6445C26.9 18.7445 26.9 18.9445 26.7 19.0445H26.6C26.5 19.1445 26.4 19.2445 26.2 19.3445C26.1 19.4445 25.9 19.5445 25.8 19.6445L25.7 19.7445C25.7 19.9445 25.6 20.0445 25.5 20.2445C25.5 20.3445 25.4 20.4445 25.3 20.5445C25.2 20.6445 25.2 20.7445 25.1 20.8445C25 20.9445 24.9 21.1445 24.8 21.2445C24.7 21.3445 24.7 21.3445 24.7 21.4445C24.6 21.5445 24.6 21.6445 24.5 21.7445C24.4 21.8445 24.4 21.9445 24.3 21.9445C24.2 22.1445 24.1 22.4445 24.2 22.6445C24.2 22.7445 24.3 22.7445 24.3 22.8445C24.5 23.0445 24.5 23.1445 24.6 23.3445C24.7 23.4445 24.7 23.5445 24.7 23.7445C24.7 23.9445 24.7 24.1445 24.6 24.2445C24.6 24.3445 24.5 24.4445 24.5 24.4445C24.3 24.6445 24 24.6445 23.8 24.6445C23.7 24.5445 23.4 24.5445 23.3 24.3445C23 24.2445 22.9 24.0445 22.7 23.8445C22.6 23.7445 22.5 23.7445 22.4 23.7445C22.4 23.7445 22.3 23.7445 22.3 23.6445C22.2 23.6445 22.2 23.5445 22.1 23.5445C21.8 23.5445 21.6 23.5445 21.3 23.6445C21.2 23.6445 21.1 23.6445 20.9 23.7445C20.8 23.7445 20.7 23.7445 20.6 23.7445C20.3 23.8445 20 23.8445 19.7 23.8445C19.5 23.8445 19.2 23.7445 19 23.5445C18.9 23.4445 18.9 23.5445 18.8 23.4445C18.7 23.3445 18.7 23.2445 18.6 23.1445C18.5 23.0445 18.4 22.9445 18.3 22.9445C18.2 22.7445 18 22.9445 17.9 22.9445C17.8 23.0445 17.7 23.0445 17.6 23.1445C17.4 23.2445 17.2 23.3445 17 23.4445C16.9 23.5445 16.8 23.5445 16.6 23.5445C16.4 23.6445 16.1 23.6445 15.8 23.6445C15.6 23.6445 15.4 23.5445 15.2 23.4445C15.1 23.4445 15.1 23.4445 15 23.3445C14.9 23.1445 14.7 22.9445 14.7 22.7445C14.7 22.6445 14.6 22.5445 14.6 22.4445C14.6 22.3445 14.5 22.4445 14.5 22.3445C14.4 22.4445 14.2 22.4445 14.2 22.5445C14.2 22.6445 14.1 22.5445 14 22.6445C13.9 22.7445 13.8 22.8445 13.6 22.8445C13.5 22.8445 13.4 22.8445 13.4 22.8445C13.3 22.8445 13.2 22.8445 13 22.8445C12.9 22.8445 12.9 22.8445 12.8 22.7445C12.6 22.6445 12.5 22.4445 12.4 22.2445C12.3 22.1445 12.3 22.0445 12.2 21.9445C12.2 21.9445 12.1 21.8445 12.1 21.7445C12 21.6445 11.9 21.4445 11.8 21.3445C11.7 21.2445 11.6 21.1445 11.6 20.9445C11.6 20.8445 11.5 20.8445 11.5 20.7445C11.3 20.7445 11 20.6445 10.8 20.4445C10.7 20.3445 10.6 20.3445 10.6 20.2445L10.5 20.1445C10.4 20.2445 10.3 20.1445 10.1 20.2445H10C9.9 20.1445 9.8 20.0445 9.7 19.9445C9.6 19.9445 9.6 19.8445 9.5 19.9445C9.3 20.0445 9.1 20.0445 8.9 20.0445C8.6 19.9445 8.5 19.7445 8.5 19.5445C8.5 19.4445 8.5 19.3445 8.5 19.2445C8.3 19.1445 8.1 19.1445 7.9 19.0445C7.9 19.1445 7.8 19.2445 7.7 19.3445C7.7 19.3445 7.7 19.4445 7.6 19.4445C7.5 19.5445 7.3 19.5445 7.2 19.6445C7.1 19.6445 7 19.6445 6.9 19.6445C6.8 19.6445 6.7 19.6445 6.5 19.6445C6.3 19.6445 6.2 19.5445 6 19.4445C5.8 19.3445 5.7 19.1445 5.6 19.0445C5.5 18.9445 5.5 18.8445 5.5 18.7445C5.4 18.6445 5.3 18.5445 5.3 18.4445C5 18.4445 4.9 18.2445 4.7 18.0445C4.5 17.8445 4.5 17.6445 4.5 17.3445C4.4 17.2445 4.2 17.2445 4.1 17.2445C4 17.2445 3.9 17.1445 3.8 17.1445C3.6 17.0445 3.4 16.9445 3.2 16.8445C3.1 16.7445 2.9 16.7445 2.8 16.6445C2.6 16.6445 2.3 16.5445 2.1 16.5445C1.9 16.4445 1.6 16.3445 1.5 16.0445C1.4 15.7445 1.4 15.4445 1.4 15.0445C1.4 14.8445 1.5 14.7445 1.5 14.5445C1.5 14.3445 1.6 14.2445 1.7 14.0445C1.8 13.9445 1.8 13.8445 1.7 13.7445C1.5 13.6445 1.5 13.5445 1.4 13.3445C1.3 13.1445 1.2 12.9445 1.1 12.7445V12.6445C1.1 12.5445 1.1 12.4445 1 12.4445V12.3445C1 12.1445 1 11.9445 1 11.7445C1 11.6445 1.1 11.6445 1.1 11.6445C1.7 11.8445 1.9 11.8445 2 11.7445Z" fill="white"/>
<path d="M2 11.7444C1.9 11.8444 1.7 11.8444 1.5 11.8444C1.4 11.8444 1.4 11.8444 1.4 11.9444C1.2 11.8444 1.1 11.5444 1 11.3444C0.9 11.2444 0.9 11.0444 1 10.9444C1 10.8444 1 10.7444 1.1 10.6444V10.5444C1 10.5444 1 10.4444 1 10.3444C1 10.1444 1 9.94444 1 9.74444C1 9.74444 0.9 9.74444 0.9 9.64444C0.9 9.54444 0.9 9.54445 0.9 9.44444C0.7 9.24444 0.6 9.04445 0.5 8.84445C0.4 8.74444 0.3 8.74444 0.2 8.64444C0.1 8.54444 0.1 8.44445 0.1 8.34445C0.1 8.24444 0.1 8.14445 0.1 8.04445V7.94444C0.1 7.94444 0.1 7.94444 0.1 7.84444C0 7.74444 0 7.64444 0 7.44444C0 7.34444 0.1 7.34444 0.1 7.24444C0.1 7.24444 0.1 7.14444 0.2 7.14444C0.4 7.14444 0.4 6.94444 0.5 6.84444C0.5 6.84444 0.5 6.74444 0.5 6.64444C0.5 6.54444 0.5 6.44444 0.6 6.34444C0.7 6.24444 0.7 6.14444 0.6 5.94444C0.6 5.84444 0.5 5.74444 0.5 5.64444C0.5 5.54444 0.4 5.34444 0.5 5.24444C0.4 5.14444 0.4 4.94444 0.4 4.74444V4.64444C0.4 4.64444 0.4 4.54444 0.4 4.44444C0.3 4.34444 0.4 4.24444 0.3 4.24444C0.3 4.14444 0.3 4.14444 0.2 4.04444C0.1 4.04444 0.2 3.84444 0.2 3.84444C0.2 3.54444 0.3 3.44444 0.5 3.34444C0.6 3.34444 0.7 3.34444 0.9 3.34444C1.1 3.34444 1.2 3.34444 1.4 3.14444H1.5C1.6 3.14444 1.6 3.14444 1.7 3.14444C1.9 3.14444 2 3.14444 2.1 3.04444C2.2 2.94444 2.4 2.94444 2.5 2.84444H2.6C2.7 2.84444 2.9 2.84444 3 2.84444C3.1 2.74444 3.3 2.84444 3.3 2.74444C3.3 2.74444 3.3 2.74444 3.4 2.74444H3.5C3.8 2.74444 4.1 2.64444 4.4 2.74444C4.5 2.74444 4.5 2.64444 4.6 2.64444C4.7 2.64444 4.7 2.54444 4.7 2.54444C4.9 2.54444 5.1 2.44444 5.2 2.34444C5.4 2.24444 5.4 2.14444 5.6 2.14444C5.9 1.94444 5.9 1.84444 6 1.74444C6.1 1.64444 6.2 1.44444 6.4 1.34444C6.5 1.34444 6.6 1.34444 6.7 1.24444C6.8 1.14444 6.9 1.24444 7 1.24444C7 1.24444 7.1 1.24444 7.1 1.14444C7.1 1.14444 7.2 1.04444 7.3 1.14444C7.5 1.14444 7.6 1.04444 7.7 1.04444C7.8 1.04444 7.8 0.944444 7.9 0.944444C8 0.744444 8 0.644444 8.2 0.644444C8.3 0.644444 8.4 0.544444 8.6 0.544444C8.8 0.444444 9 0.444444 9.2 0.444444C9.3 0.244444 9.5 0.344444 9.7 0.344444C9.8 0.244444 9.9 0.144444 10 0.144444C10.2 0.144444 10.5 0.0444444 10.7 0.144444C10.8 0.144444 10.8 0.0444444 10.8 0.0444444C10.9 0.0444444 11.1 -0.0555556 11.2 0.0444444C11.3 0.0444444 11.3 0.0444444 11.4 0.0444444C11.5 0.0444444 11.6 0.0444444 11.6 0.144444C11.8 0.144444 11.9 0.244444 12.1 0.344444C12.3 0.444444 12.4 0.544444 12.6 0.744444C12.7 0.844444 12.8 0.844444 12.9 0.944444C13 1.14444 13.1 1.24444 13 1.34444C13 1.44444 13.1 1.44444 13.1 1.44444C13.1 1.54444 13 1.64444 13 1.74444C13 1.84444 12.8 2.04444 12.7 2.04444C12.6 2.04444 12.5 2.04444 12.4 2.04444C12.5 2.14444 12.6 2.14444 12.6 2.24444C12.8 2.24444 13 2.34444 13.3 2.34444C13.5 2.34444 13.8 2.34444 14 2.34444C14.1 2.34444 14.2 2.34444 14.3 2.44444H14.4C14.5 2.24444 14.6 2.14444 14.7 2.04444H14.8C15 2.04444 15.1 2.04444 15.3 2.04444C15.4 2.04444 15.5 2.04444 15.5 2.14444C15.5 2.14444 15.6 2.14444 15.7 2.14444C15.8 2.14444 15.9 2.14444 15.9 2.24444H16C16.3 2.24444 16.6 2.34444 16.9 2.24444C16.9 2.24444 17 2.24444 17 2.34444H17.1C17.2 2.34444 17.3 2.34444 17.5 2.34444C17.6 2.34444 17.7 2.34444 17.7 2.44444H17.8C18 2.44444 18.1 2.44444 18.3 2.44444C18.5 2.54444 18.7 2.44444 19 2.54444C19.1 2.54444 19.1 2.54444 19.1 2.44444H19.2C19.6 2.44444 19.9 2.44444 20.3 2.44444C20.7 2.44444 21.2 2.34444 21.6 2.44444C21.8 2.34444 21.9 2.44444 22.1 2.34444C22.2 2.34444 22.2 2.34444 22.3 2.34444C22.4 2.24444 22.5 2.14444 22.7 2.14444C22.8 2.14444 22.8 2.14444 22.9 2.04444C23 2.14444 23 2.14444 23.1 2.14444C23.2 2.14444 23.3 2.24444 23.4 2.34444C23.4 2.44444 23.5 2.54444 23.5 2.64444C23.6 2.64444 23.7 2.64444 23.8 2.64444C24 2.74444 24.1 2.84444 24.3 2.94444C24.3 3.04444 24.4 3.04444 24.5 3.04444C24.7 3.04444 24.8 3.24444 24.8 3.44444C24.8 3.54444 24.9 3.54444 24.9 3.54444C24.9 3.64444 24.9 3.64444 24.9 3.74444C24.9 3.84444 24.9 4.04444 24.8 4.14444V4.24444C24.8 4.24444 24.8 4.34444 24.9 4.34444C25 4.44444 25 4.54444 25 4.64444C25 4.74444 25 5.04444 25.1 5.24444C25.2 5.54444 25.1 5.94444 25.2 6.24444C25.1 6.34444 25 6.44444 24.8 6.44444C24.6 6.44444 24.5 6.34444 24.4 6.24444C24.2 5.94444 24.3 5.74444 24.3 5.44444C24.3 5.34444 24.3 5.24444 24.3 5.14444C24.2 4.94444 24.1 4.74444 24 4.54444C23.9 4.44444 23.9 4.24444 24 4.04444C24 3.94444 24 3.84444 24.1 3.74444C24 3.64444 23.9 3.64444 23.8 3.54444C23.7 3.44444 23.6 3.34444 23.5 3.34444C23.5 3.44444 23.4 3.44444 23.4 3.34444C23.3 3.24444 23.2 3.34444 23.1 3.24444C23.1 3.14444 23 3.14444 23 3.04444C22.8 3.04444 22.7 3.14444 22.5 3.04444C22.4 3.14444 22.2 3.04444 22 3.14444C21.8 3.14444 21.7 3.14444 21.5 3.14444C21.4 3.14444 21.4 3.14444 21.3 3.24444H21.2C20.7 3.24444 20.2 3.24444 19.7 3.24444C19.4 3.24444 19 3.24444 18.7 3.24444C18.6 3.24444 18.6 3.34444 18.5 3.34444C18.3 3.34444 18.2 3.24444 18.1 3.24444C18.1 3.24444 18.1 3.24444 18 3.24444C17.8 3.24444 17.7 3.24444 17.5 3.24444C17.4 3.24444 17.4 3.24444 17.4 3.14444C17.2 3.14444 17.1 3.24444 16.9 3.14444H16.8C16.6 3.14444 16.5 3.04444 16.3 3.04444C16.1 3.04444 15.9 3.04444 15.8 3.04444C15.8 3.04444 15.8 3.04444 15.7 3.04444C15.4 2.94444 15.3 2.94444 15.1 3.14444C15 3.24444 14.9 3.34444 14.8 3.34444C14.7 3.34444 14.6 3.44444 14.6 3.44444C14.5 3.54444 14.5 3.54444 14.4 3.64444C14.3 3.74444 14.3 3.74444 14.2 3.74444C14 3.74444 13.8 3.74444 13.6 3.74444C13.5 3.74444 13.5 3.64444 13.4 3.64444C13.4 3.54444 13.3 3.44444 13.3 3.34444C13.1 3.34444 12.9 3.34444 12.7 3.34444C12.6 3.34444 12.5 3.24444 12.4 3.24444C12.3 3.24444 12.3 3.24444 12.2 3.14444C12 3.14444 11.9 2.94444 11.9 2.84444C11.8 2.84444 11.7 2.74444 11.6 2.64444C11.6 2.54444 11.5 2.54444 11.5 2.44444C11.5 2.24444 11.4 2.04444 11.4 1.84444C11.4 1.74444 11.3 1.64444 11.3 1.54444C11.2 1.44444 11.3 1.34444 11.3 1.24444C11.1 1.24444 10.9 1.24444 10.7 1.24444C10.6 1.34444 10.4 1.24444 10.3 1.44444C10.2 1.54444 10.1 1.44444 10 1.54444C9.9 1.54444 9.8 1.54444 9.8 1.64444C9.8 1.64444 9.7 1.64444 9.6 1.64444C9.4 1.64444 9.3 1.64444 9.2 1.74444H9.1C8.9 1.74444 8.8 1.84444 8.7 1.84444C8.6 1.84444 8.6 1.94444 8.6 1.94444C8.5 1.94444 8.4 1.94444 8.4 2.04444C7.9 1.74444 7.9 1.84444 7.7 1.84444C7.6 1.84444 7.5 1.84444 7.4 1.94444C7.3 2.04444 7.2 1.94444 7.1 2.04444C7 2.04444 6.8 2.04444 6.7 2.24444C6.7 2.24444 6.7 2.24444 6.7 2.34444C6.7 2.54444 6.5 2.54444 6.4 2.64444C6.1 2.84444 5.9 2.94444 5.7 3.04444C5.5 3.14444 5.3 3.24444 5.2 3.24444C5.1 3.24444 5 3.34444 4.9 3.34444C4.7 3.34444 4.6 3.34444 4.4 3.34444C4.3 3.34444 4.2 3.34444 4.2 3.44444C4.2 3.44444 4.2 3.44444 4.1 3.44444C3.9 3.44444 3.8 3.44444 3.6 3.44444C3.5 3.44444 3.4 3.54444 3.3 3.54444C3.2 3.54444 3.1 3.54444 3 3.54444C3 3.64444 2.9 3.64444 2.8 3.64444C2.7 3.74444 2.6 3.74444 2.5 3.84444C2.4 3.84444 2.3 3.94444 2.2 3.94444C2 3.94444 1.9 3.94444 1.7 4.14444C1.7 4.14444 1.6 4.24444 1.5 4.24444C1.4 4.24444 1.4 4.24444 1.3 4.24444C1.4 4.34444 1.4 4.54444 1.4 4.74444C1.4 4.94444 1.4 5.04444 1.3 5.14444V5.24444C1.3 5.44444 1.4 5.64444 1.4 5.74444C1.4 5.84444 1.5 5.94444 1.5 6.14444C1.5 6.24444 1.6 6.44444 1.5 6.64444C1.5 6.84444 1.3 6.94444 1.4 7.14444C1.3 7.04444 1.3 7.24444 1.3 7.34444C1.3 7.44444 1.2 7.54444 1.1 7.64444H1C0.9 7.74444 0.8 7.74444 0.9 7.94444C0.9 8.04444 0.9 8.04444 0.9 8.14444C1 8.14444 1.1 8.14444 1.2 8.14444C1.2 8.34444 1.4 8.44444 1.3 8.64444C1.5 8.64444 1.5 8.84444 1.6 8.94444C1.6 9.04445 1.6 9.24444 1.7 9.34445V9.44444C1.7 9.54445 1.8 9.64445 1.7 9.84445C1.8 9.94445 1.8 10.1444 1.8 10.3444C1.8 10.5444 1.9 10.7444 1.8 10.9444C1.8 11.0444 1.8 11.1444 1.8 11.2444C1.8 11.3444 1.8 11.3444 1.8 11.4444C2 11.3444 2 11.3444 2 11.4444C2 11.5444 2.1 11.4444 2.1 11.5444C2 11.6444 2 11.7444 2 11.7444Z" fill="white"/>
<path d="M8.19844 13.5443C8.09844 13.4443 7.99844 13.2443 7.89844 13.1443C7.79844 12.9443 7.69844 12.8443 7.59844 12.6443C7.49844 12.4443 7.39844 12.3443 7.29844 12.1443C7.19844 11.9443 7.09844 11.8443 6.99844 11.7443C6.89844 11.7443 6.79844 11.7443 6.59844 11.7443C6.59844 12.3443 6.59844 12.9443 6.59844 13.5443C6.19844 13.5443 5.79844 13.5443 5.39844 13.5443C5.39844 11.8443 5.39844 10.1443 5.39844 8.44434C5.49844 8.44434 5.49844 8.44434 5.59844 8.44434C6.29844 8.44434 6.99844 8.44434 7.69844 8.44434C7.79844 8.44434 7.99844 8.54434 8.09844 8.54434C8.29844 8.54434 8.49844 8.74434 8.69844 8.84434C8.69844 9.04434 8.89844 9.14434 8.89844 9.24434C8.99844 9.54434 8.99844 9.84434 8.99844 10.1443C8.99844 10.1443 8.99844 10.1443 8.99844 10.2443C8.99844 10.4443 8.89844 10.6443 8.79844 10.8443C8.69844 10.9443 8.59844 11.1443 8.49844 11.2443C8.49844 11.3443 8.39844 11.3443 8.39844 11.3443C8.29844 11.4443 8.29844 11.4443 8.39844 11.5443C8.49844 11.6443 8.59844 11.8443 8.69844 12.0443C8.79844 12.1443 8.89844 12.3443 8.99844 12.4443C8.99844 12.4443 8.99844 12.6443 9.19844 12.7443C9.19844 12.9443 9.29844 13.0443 9.39844 13.1443C9.49844 13.2443 9.49844 13.3443 9.59844 13.4443C9.59844 13.1443 9.59844 12.9443 9.59844 12.6443C9.59844 12.5443 9.69844 12.3443 9.79844 12.3443C9.89844 12.3443 9.89844 12.2443 9.89844 12.1443C10.0984 11.9443 10.0984 11.7443 10.2984 11.6443C10.3984 11.5443 10.4984 11.3443 10.5984 11.2443C10.6984 11.1443 10.6984 11.0443 10.7984 10.9443C10.8984 10.7443 10.9984 10.5443 11.1984 10.3443C11.2984 10.2443 11.2984 10.2443 11.2984 10.1443C11.3984 9.94434 11.5984 9.74434 11.6984 9.54434C10.9984 9.54434 10.3984 9.54434 9.69844 9.54434C9.69844 9.24434 9.69844 8.84434 9.69844 8.54434C10.7984 8.54434 11.9984 8.54434 13.0984 8.54434C13.0984 8.64434 13.0984 8.64434 13.0984 8.74434C13.0984 8.94434 13.0984 9.14434 13.0984 9.34434C13.0984 9.44434 13.0984 9.64434 12.9984 9.74434C12.8984 9.94434 12.7984 10.1443 12.5984 10.3443C12.4984 10.4443 12.4984 10.6443 12.2984 10.7443C12.1984 10.7443 12.1984 10.8443 12.1984 10.9443C12.0984 11.1443 11.8984 11.3443 11.8984 11.5443C11.6984 11.6443 11.6984 11.8443 11.5984 11.9443C11.3984 12.1443 11.2984 12.4443 11.0984 12.6443C11.0984 12.7443 11.0984 12.7443 10.9984 12.8443C11.6984 12.8443 12.3984 12.8443 13.1984 12.8443C13.1984 13.1443 13.1984 13.5443 13.1984 13.8443C11.5984 13.5443 9.89844 13.5443 8.19844 13.5443ZM6.59844 9.34434C6.59844 9.74434 6.59844 10.2443 6.59844 10.6443C6.79844 10.6443 6.99844 10.6443 7.29844 10.6443C7.29844 10.6443 7.29844 10.6443 7.39844 10.6443C7.59844 10.5443 7.79844 10.3443 7.79844 10.0443C7.79844 9.84434 7.69844 9.64434 7.59844 9.54434C7.59844 9.44434 7.49844 9.44434 7.39844 9.44434C7.19844 9.34434 6.89844 9.34434 6.59844 9.34434Z" fill="white"/>
<path d="M29 8.44375C29.5 8.44375 29.9 8.44375 30.4 8.44375C30.9 9.34375 31.3 10.2437 31.8 11.1437C31.8 10.9437 31.8 10.7437 31.8 10.4437C31.8 10.2437 31.8 9.94375 31.8 9.74375C31.8 9.54375 31.8 9.34375 31.8 9.04375C31.8 8.84375 31.8 8.64375 31.8 8.34375C32.2 8.34375 32.5 8.34375 32.9 8.34375C32.9 10.0438 32.9 11.7437 32.9 13.4437C32.5 13.4437 32.1 13.4437 31.7 13.4437C31.7 13.2437 31.6 13.1437 31.5 13.0437C31.5 12.9437 31.4 12.8438 31.4 12.8438C31.3 12.5437 31.1 12.3437 31 12.0437C30.9 11.9437 30.9 11.7437 30.8 11.5437C30.7 11.3437 30.7 11.2437 30.5 11.0437V10.9437C30.4 10.6437 30.2 10.4437 30.2 10.1437C30.2 10.1437 30.1 10.1437 30.1 10.0437C30.1 11.1437 30.1 12.2437 30.1 13.4437C29.7 13.4437 29.4 13.4437 29 13.4437C29 11.8437 29 10.1437 29 8.44375Z" fill="white"/>
<path d="M47.9984 9.64492C48.3984 9.64492 48.6984 9.64492 49.0984 9.64492C49.0984 9.74492 49.0984 9.84492 49.0984 10.0449C49.1984 9.94492 49.2984 9.94492 49.3984 9.84492C49.4984 9.84492 49.4984 9.74492 49.5984 9.74492C49.6984 9.74492 49.7984 9.74492 49.8984 9.74492C49.9984 9.74492 50.0984 9.64492 50.0984 9.64492C50.2984 9.74492 50.5984 9.74492 50.6984 9.94492C50.7984 10.0449 50.7984 10.1449 50.8984 10.2449C50.9984 10.2449 51.0984 10.1449 51.0984 10.0449C51.1984 9.94492 51.3984 9.84492 51.4984 9.74492C51.5984 9.64492 51.6984 9.64492 51.8984 9.64492C51.9984 9.64492 51.9984 9.54492 52.0984 9.54492C52.1984 9.64492 52.3984 9.64492 52.4984 9.64492C52.5984 9.74492 52.6984 9.74492 52.6984 9.84492C52.7984 9.94492 52.7984 10.0449 52.8984 10.1449C52.9984 10.3449 53.0984 10.5449 53.0984 10.6449C53.0984 11.5449 53.0984 12.5449 53.0984 13.4449V13.5449C52.6984 13.5449 52.3984 13.5449 51.9984 13.5449C51.9984 13.4449 51.9984 13.4449 51.9984 13.3449C51.9984 12.8449 51.9984 12.2449 51.9984 11.7449C51.9984 11.4449 51.9984 11.1449 51.8984 10.8449C51.5984 10.4449 51.2984 10.6449 50.9984 10.8449C50.9984 11.7449 50.9984 12.6449 50.9984 13.5449C50.5984 13.5449 50.2984 13.5449 49.8984 13.5449C49.8984 13.4449 49.8984 13.4449 49.8984 13.3449C49.8984 12.6449 49.8984 11.9449 49.8984 11.2449C49.8984 10.9449 49.8984 10.9449 49.7984 10.6449C49.4984 10.5449 49.2984 10.6449 48.9984 10.8449C48.9984 11.7449 48.9984 12.6449 48.9984 13.5449C48.5984 13.5449 48.2984 13.5449 47.8984 13.5449C47.9984 12.2449 47.9984 10.9449 47.9984 9.64492Z" fill="white"/>
<path d="M37.7008 13.5443C37.3008 13.5443 36.9008 13.5443 36.4008 13.5443C36.3008 13.2443 36.2008 12.9443 36.2008 12.6443L36.1008 12.5443C35.7008 12.5443 35.2008 12.5443 34.8008 12.5443C34.7008 12.8443 34.6008 13.2443 34.5008 13.5443C34.1008 13.5443 33.7008 13.5443 33.3008 13.5443C33.3008 13.3443 33.4008 13.2443 33.4008 13.0443C33.4008 12.9443 33.4008 12.8443 33.5008 12.7443C33.6008 12.6443 33.6008 12.4443 33.6008 12.3443C33.6008 12.2443 33.7008 12.2443 33.7008 12.2443C33.7008 12.1443 33.8008 11.9443 33.8008 11.8443C33.9008 11.6443 33.9008 11.5443 34.0008 11.3443C34.1008 11.1443 34.1008 10.9443 34.2008 10.8443C34.3008 10.6443 34.3008 10.4443 34.4008 10.3443V10.2443C34.4008 10.0443 34.5008 9.94434 34.5008 9.74434C34.5008 9.64434 34.6008 9.44434 34.6008 9.34434C34.6008 9.24434 34.6008 9.24434 34.7008 9.14434C34.8008 9.04434 34.7008 9.04434 34.8008 8.94434C34.8008 8.74434 34.9008 8.64434 34.9008 8.44434C35.3008 8.44434 35.8008 8.44434 36.2008 8.44434C36.2008 8.54434 36.3008 8.74434 36.3008 8.84434C36.3008 8.94434 36.4008 9.04434 36.4008 9.24434C36.4008 9.34434 36.5008 9.34434 36.5008 9.34434C36.5008 9.44434 36.6008 9.54434 36.6008 9.64434C36.6008 9.74434 36.7008 9.84434 36.7008 9.94434C36.7008 10.1443 36.8008 10.2443 36.8008 10.4443C36.9008 10.5443 36.8008 10.7443 36.9008 10.8443C36.9008 10.8443 36.9008 10.9443 36.9008 11.0443C36.9008 11.2443 37.0008 11.4443 37.1008 11.5443C37.2008 11.7443 37.2008 11.9443 37.3008 12.2443C37.4008 12.4443 37.4008 12.6443 37.5008 12.8443V12.9443C37.5008 13.1443 37.6008 13.2443 37.7008 13.5443C37.6008 13.4443 37.6008 13.5443 37.7008 13.5443ZM35.4008 10.0443C35.2008 10.5443 35.1008 11.0443 35.0008 11.4443C35.3008 11.4443 35.6008 11.4443 35.8008 11.4443C35.8008 11.3443 35.7008 11.3443 35.7008 11.3443C35.7008 11.1443 35.6008 11.0443 35.6008 10.8443C35.6008 10.7443 35.6008 10.7443 35.6008 10.6443C35.5008 10.4443 35.5008 10.2443 35.4008 10.0443Z" fill="white"/>
<path d="M16.9008 8.44434C16.9008 8.74434 16.9008 9.14434 16.9008 9.44434C16.3008 9.44434 15.6008 9.44434 15.0008 9.44434C15.0008 9.74434 15.0008 10.0443 15.0008 10.3443C15.6008 10.3443 16.2008 10.3443 16.8008 10.3443C16.8008 10.6443 16.8008 11.0443 16.8008 11.3443C16.2008 11.3443 15.6008 11.3443 15.0008 11.3443C15.0008 11.7443 15.0008 12.1443 15.0008 12.5443C15.6008 12.5443 16.3008 12.5443 16.9008 12.5443C16.9008 12.8443 16.9008 13.2443 16.9008 13.5443C15.9008 13.5443 14.8008 13.5443 13.8008 13.5443C13.8008 11.8443 13.8008 10.1443 13.8008 8.44434C14.9008 8.44434 15.9008 8.44434 16.9008 8.44434Z" fill="white"/>
<path d="M24.6 9.44434C24 9.44434 23.3 9.44434 22.7 9.44434C22.7 9.74434 22.7 10.0443 22.7 10.3443C23.3 10.3443 23.9 10.3443 24.5 10.3443C24.5 10.6443 24.5 11.0443 24.5 11.3443C23.9 11.3443 23.3 11.3443 22.7 11.3443C22.7 11.7443 22.7 12.1443 22.7 12.5443C23.3 12.5443 24 12.5443 24.6 12.5443C24.6 12.8443 24.6 13.2443 24.6 13.5443C23.6 13.5443 22.5 13.5443 21.5 13.5443C21.5 13.4443 21.5 8.74434 21.5 8.44434C22.5 8.44434 23.6 8.44434 24.6 8.44434C24.6 8.74434 24.6 9.04434 24.6 9.44434Z" fill="white"/>
<path d="M53.9984 10.7445C53.9984 10.4445 53.9984 10.0445 53.9984 9.74453C53.9984 9.74453 53.9984 9.74453 54.0984 9.74453C54.2984 9.64453 54.5984 9.64453 54.8984 9.64453H54.9984H55.0984C55.1984 9.64453 55.2984 9.64453 55.3984 9.64453H55.4984H55.5984C55.6984 9.64453 55.8984 9.64453 55.9984 9.64453C56.1984 9.64453 56.2984 9.74453 56.4984 9.84453C56.5984 9.94453 56.6984 10.0445 56.7984 10.2445C56.8984 10.3445 56.8984 10.4445 56.8984 10.6445V10.7445V10.8445C56.8984 11.7445 56.8984 12.6445 56.8984 13.5445C56.4984 13.5445 56.1984 13.5445 55.7984 13.5445C55.7984 13.4445 55.7984 13.3445 55.7984 13.2445C55.6984 13.2445 55.5984 13.3445 55.5984 13.3445C55.4984 13.4445 55.3984 13.4445 55.2984 13.5445C54.9984 13.7445 54.5984 13.6445 54.2984 13.6445C54.2984 13.5445 54.1984 13.5445 54.0984 13.5445C53.9984 13.4445 53.7984 13.2445 53.6984 13.1445C53.6984 13.0445 53.5984 12.9445 53.5984 12.9445C53.4984 12.6445 53.4984 12.3445 53.5984 12.0445C53.5984 11.8445 53.6984 11.7445 53.8984 11.5445C54.0984 11.3445 54.2984 11.2445 54.4984 11.2445C54.6984 11.1445 54.8984 11.2445 55.0984 11.1445C55.2984 11.0445 55.4984 11.1445 55.6984 11.0445C55.6984 11.0445 55.7984 11.0445 55.7984 10.9445C55.6984 10.8445 55.6984 10.6445 55.5984 10.5445C55.4984 10.4445 55.3984 10.4445 55.2984 10.4445H55.1984C55.0984 10.3445 54.9984 10.3445 54.8984 10.4445C54.7984 10.4445 54.7984 10.4445 54.7984 10.4445C54.6984 10.4445 54.5984 10.4445 54.4984 10.5445C54.2984 10.6445 54.1984 10.6445 53.9984 10.7445ZM55.8984 11.7445C55.6984 11.7445 55.5984 11.8445 55.4984 11.8445C55.3984 11.8445 55.1984 11.9445 55.0984 11.9445C55.0984 12.0445 54.9984 12.0445 54.9984 12.1445C54.9984 12.2445 54.9984 12.3445 54.8984 12.3445C54.9984 12.3445 54.9984 12.4445 54.9984 12.5445C55.0984 12.5445 55.0984 12.6445 55.0984 12.6445C55.3984 12.6445 55.6984 12.7445 55.9984 12.3445C55.8984 12.2445 55.8984 11.9445 55.8984 11.7445Z" fill="white"/>
<path d="M42.7984 10.3443C42.7984 10.7443 42.7984 11.0443 42.7984 11.4443C42.1984 11.4443 41.6984 11.4443 41.0984 11.4443C41.0984 12.1443 41.0984 12.8443 41.0984 13.5443C40.6984 13.5443 40.2984 13.5443 39.8984 13.5443C39.8984 11.8443 39.8984 10.1443 39.8984 8.44434C40.8984 8.44434 41.8984 8.44434 42.9984 8.44434C42.9984 8.74434 42.9984 9.04434 42.9984 9.44434C42.3984 9.44434 41.7984 9.44434 41.0984 9.44434C41.0984 9.74434 41.0984 10.0443 41.0984 10.3443C41.5984 10.3443 42.1984 10.3443 42.7984 10.3443Z" fill="white"/>
<path d="M19.8008 13.5443C19.4008 13.5443 19.0008 13.5443 18.6008 13.5443C18.6008 12.1443 18.6008 10.8443 18.6008 9.44434C18.2008 9.44434 17.7008 9.44434 17.3008 9.44434C17.3008 9.14434 17.3008 8.74434 17.3008 8.44434C18.6008 8.44434 19.9008 8.44434 21.2008 8.44434C21.2008 8.74434 21.2008 9.14434 21.2008 9.44434C20.8008 9.44434 20.3008 9.44434 19.9008 9.44434C19.8008 10.7443 19.8008 12.1443 19.8008 13.5443Z" fill="white"/>
<path d="M25.3984 8.44434C25.7984 8.44434 26.1984 8.44434 26.5984 8.44434C26.5984 9.84434 26.5984 11.1443 26.5984 12.5443C27.1984 12.5443 27.7984 12.5443 28.4984 12.5443C28.4984 12.8443 28.4984 13.2443 28.4984 13.5443C27.4984 13.5443 26.4984 13.5443 25.3984 13.5443C25.3984 11.8443 25.3984 10.1443 25.3984 8.44434Z" fill="white"/>
<path d="M46.4008 10.9449C46.4008 11.7449 46.4008 12.6449 46.4008 13.4449C46.0008 13.4449 45.6008 13.4449 45.3008 13.4449V13.3449C45.3008 12.1449 45.3008 10.9449 45.3008 9.74492C45.3008 9.64492 45.3008 9.64492 45.4008 9.54492C45.8008 9.54492 46.1008 9.54492 46.5008 9.54492C46.5008 9.74492 46.5008 9.84492 46.5008 10.0449C46.6008 10.0449 46.6008 10.0449 46.7008 9.94492C46.8008 9.94492 46.9008 9.84492 47.0008 9.74492C47.1008 9.64492 47.2008 9.64492 47.4008 9.64492C47.5008 9.64492 47.7008 9.64492 47.8008 9.64492C47.8008 10.0449 47.8008 10.4449 47.8008 10.8449H47.7008C47.5008 10.7449 47.2008 10.8449 47.0008 10.8449C46.9008 10.8449 46.9008 10.9449 46.8008 10.9449C46.6008 10.9449 46.5008 10.9449 46.4008 10.9449Z" fill="white"/>
<path d="M44.4984 13.5445C44.0984 13.5445 43.7984 13.5445 43.3984 13.5445C43.3984 12.2445 43.3984 10.9445 43.3984 9.64453C43.7984 9.64453 44.0984 9.64453 44.4984 9.64453C44.4984 10.9445 44.4984 12.2445 44.4984 13.5445Z" fill="white"/>
<path d="M44.5984 9.14453C44.1984 9.14453 43.7984 9.14453 43.3984 9.14453C43.3984 8.84453 43.3984 8.44453 43.3984 8.14453C43.7984 8.14453 44.1984 8.14453 44.5984 8.14453C44.5984 8.44453 44.5984 8.84453 44.5984 9.14453Z" fill="white"/>
</svg>
