<svg width="49" height="21" viewBox="0 0 49 21" fill="none" xmlns="http://www.w3.org/2000/svg">
<path fill-rule="evenodd" clip-rule="evenodd" d="M48.5858 10.4451C48.5858 6.98998 46.9122 4.26367 43.7135 4.26367C40.5014 4.26367 38.5579 6.98997 38.5579 10.4181C38.5579 14.4806 40.8523 16.532 44.1454 16.532C45.7515 16.532 46.9662 16.1676 47.884 15.6548V12.9555C46.9662 13.4143 45.9135 13.6978 44.5773 13.6978C43.2682 13.6978 42.1075 13.2389 41.959 11.6463H48.5588C48.5588 11.4708 48.5858 10.769 48.5858 10.4451ZM41.9185 9.16292C41.9185 7.63781 42.8498 7.00347 43.7 7.00347C44.5233 7.00347 45.4006 7.63781 45.4006 9.16292H41.9185Z" fill="#32325D"/>
<path fill-rule="evenodd" clip-rule="evenodd" d="M33.3506 4.26367C32.0279 4.26367 31.1776 4.88451 30.7052 5.3164L30.5298 4.47962H27.5605V20.2166L30.9347 19.5013L30.9482 15.6818C31.4341 16.0327 32.1494 16.532 33.3371 16.532C35.753 16.532 37.9529 14.5885 37.9529 10.3101C37.9394 6.39613 35.7125 4.26367 33.3506 4.26367ZM32.5408 13.5628C31.7445 13.5628 31.2721 13.2794 30.9482 12.9285L30.9347 7.92124C31.2856 7.52984 31.7715 7.25991 32.5408 7.25991C33.769 7.25991 34.6192 8.63656 34.6192 10.4046C34.6192 12.2131 33.7825 13.5628 32.5408 13.5628Z" fill="#32325D"/>
<path fill-rule="evenodd" clip-rule="evenodd" d="M22.9153 3.46862L26.3029 2.7398V0L22.9153 0.715318V3.46862Z" fill="#32325D"/>
<path d="M26.3029 4.49609H22.9153V16.3056H26.3029V4.49609Z" fill="#32325D"/>
<path fill-rule="evenodd" clip-rule="evenodd" d="M19.284 5.49372L19.0681 4.49498H16.1528V16.3045H19.527V8.30101C20.3233 7.26177 21.6729 7.45072 22.0913 7.59919V4.49498C21.6594 4.33302 20.0803 4.03609 19.284 5.49372Z" fill="#32325D"/>
<path fill-rule="evenodd" clip-rule="evenodd" d="M12.5385 1.56641L9.24531 2.26823L9.23181 13.079C9.23181 15.0765 10.7299 16.5476 12.7274 16.5476C13.8341 16.5476 14.6439 16.3452 15.0893 16.1022V13.3624C14.6574 13.5379 12.525 14.1587 12.525 12.1612V7.36993H15.0893V4.49516H12.525L12.5385 1.56641Z" fill="#32325D"/>
<path fill-rule="evenodd" clip-rule="evenodd" d="M3.41463 7.92124C3.41463 7.39488 3.84652 7.19243 4.56184 7.19243C5.58758 7.19243 6.88325 7.50285 7.90899 8.05621V4.88451C6.78877 4.43913 5.68205 4.26367 4.56184 4.26367C1.82204 4.26367 0 5.69431 0 8.0832C0 11.8083 5.12869 11.2144 5.12869 12.8205C5.12869 13.4413 4.58883 13.6438 3.83302 13.6438C2.71281 13.6438 1.28217 13.1849 0.148462 12.5641V15.7762C1.40364 16.3161 2.67232 16.5456 3.83302 16.5456C6.64031 16.5456 8.57032 15.1554 8.57032 12.7395C8.55682 8.71754 3.41463 9.43286 3.41463 7.92124Z" fill="#32325D"/>
</svg>
