<svg width="64" height="45" viewBox="0 0 64 45" fill="none" xmlns="http://www.w3.org/2000/svg">
<path d="M63.5716 22.6752C63.5716 22.6752 63.5716 32.929 62.2626 37.8222C61.577 40.5337 59.4265 42.653 56.7461 43.401C51.7906 44.6789 32.0621 44.6789 32.0621 44.6789C32.0621 44.6789 12.396 44.6789 7.40932 43.3699C4.72898 42.6219 2.57848 40.5025 1.83048 37.791C0.521484 32.8979 0.521484 22.6129 0.521484 22.6129C0.521484 22.6129 0.521484 12.3902 1.79932 7.43471C2.54732 4.75437 4.72898 2.57271 7.37815 1.82471C12.3336 0.546875 32.031 0.546875 32.031 0.546875C32.031 0.546875 51.7595 0.546875 56.715 1.91821C59.3953 2.60388 61.5458 4.75437 62.2315 7.43471C63.6028 12.3902 63.5716 22.6752 63.5716 22.6752Z" fill="white"/>
<path d="M62.2315 7.43471C61.5458 4.75437 59.3953 2.60387 56.715 1.91821C51.7595 0.546875 32.031 0.546875 32.031 0.546875C32.031 0.546875 12.3337 0.546875 7.37815 1.82471C4.72898 2.57271 2.54732 4.75437 1.79932 7.43471C0.521484 12.3902 0.521484 22.6129 0.521484 22.6129C0.521484 22.6129 0.521484 32.8979 1.79932 37.7599C2.54732 40.4402 4.66665 42.5907 7.37815 43.3387C12.3648 44.6477 32.031 44.6477 32.031 44.6477C32.031 44.6477 51.7595 44.6477 56.715 43.3699C59.3953 42.6219 61.5458 40.5337 62.2315 37.791C63.5405 32.8979 63.5405 22.644 63.5405 22.644C63.5405 22.644 63.6028 12.3902 62.2315 7.43471ZM25.7665 32.0564V13.1694L42.1602 22.644L25.7665 32.0564Z" fill="#F15748"/>
</svg>

