<svg width="97" height="34" viewBox="0 0 97 34" fill="none" xmlns="http://www.w3.org/2000/svg">
<path d="M74.4647 2.66847V0H69.3965V5.01488H71.9306C71.7678 5.82003 71.2564 6.71719 70.2799 7.70636L71.7213 9.10961C72.9535 7.84438 73.6975 6.85521 74.1392 5.49797C74.4182 4.62382 74.4647 3.49662 74.4647 2.66847Z" fill="black"/>
<path d="M16.8785 18.4954V20.5198H4.97519C5.37042 23.9014 7.34655 24.7295 9.11344 24.7295C11.322 24.7295 12.2752 23.8554 12.7867 22.5902L16.739 24.1774C15.5998 27.076 12.9727 28.6632 8.92745 28.6632C3.32454 28.6632 0 25.0516 0 19.0935C0 13.9406 3.06881 9.96094 8.78796 9.96094C13.8561 9.96094 16.8785 13.7106 16.8785 18.4954ZM5.04494 17.3222H12.438C12.3682 15.3209 10.9733 13.8486 8.92745 13.8486C6.74208 13.8486 5.46341 15.1829 5.04494 17.3222Z" fill="black"/>
<path d="M35.5696 28.3872H30.6177V17.3222C30.6177 15.0678 29.804 13.9866 27.9441 13.9866C26.5259 13.9866 25.5262 14.4467 24.573 15.2519V28.3642H19.6211V10.26H24.387V11.5942C25.9912 10.513 27.5721 9.96094 29.2227 9.96094C30.8269 9.96094 32.5473 10.536 33.6632 12.2843C35.0116 10.9041 37.0343 9.96094 39.6381 9.96094C42.8231 9.96094 46.5662 11.3412 46.5662 17.0922V28.3642H41.6142V17.3222C41.6142 15.1138 40.847 14.0327 39.0104 14.0327C36.8948 14.0327 35.5696 15.4819 35.5696 17.4373V28.3872Z" fill="black"/>
<path d="M49.659 10.2583H54.3087V11.5695C55.7734 10.5113 57.1218 10.0742 59.0979 10.0742C63.5384 10.0742 66.4909 13.3638 66.4909 18.9538C66.4909 24.2447 63.2361 28.4084 57.3775 28.4084C56.4708 28.4084 55.5176 28.3624 54.5877 28.2704V33.9984H49.6357V10.2583H49.659ZM54.6109 15.1121V24.4518C55.4944 24.5208 56.2616 24.5208 57.4008 24.5208C60.1208 24.5208 61.539 22.3124 61.539 18.7237C61.539 15.5722 60.3766 14.1229 57.8425 14.1229C56.5638 14.1459 55.5409 14.422 54.6109 15.1121Z" fill="black"/>
<path d="M70.2341 14.2395H67.6768V10.2598H75.186V28.387H70.2341V14.2395Z" fill="black"/>
<path d="M79.0215 2.27734H83.9734V17.184H85.9031L90.5528 10.2598H95.8535L90.1111 18.5182L96.2022 28.387H90.7155L86.0193 21.0947H83.9734V28.387H79.0215V2.27734Z" fill="black"/>
</svg>
