<svg width="213" height="212" viewBox="0 0 213 212" fill="none" xmlns="http://www.w3.org/2000/svg">
<path d="M212.756 106.115L201.009 89.3458L206.23 69.4329L189.522 57.6423L187.695 37.2053L168.115 31.965L159.5 13.1001L139.137 14.9342L124.779 0.523438L106.505 9.16987L88.2304 0.523438L73.611 14.9342L53.5093 13.1001L44.8943 31.965L25.0537 37.2053L23.4873 57.6423L6.77945 69.4329L12.0007 89.3458L0.25293 106.115L12.0007 122.884L6.77945 142.797L23.4873 154.587L25.3148 175.024L44.8943 180.264L53.5093 199.129L73.611 197.295L87.9694 211.706L106.505 203.06L124.779 211.706L139.398 197.295L159.5 199.129L168.115 180.264L187.695 175.024L189.522 154.587L206.23 142.797L201.009 122.884L212.756 106.115Z" fill="#129D67"/>
<path d="M204.403 68.123L199.442 87.25L201.009 89.3461L206.23 69.4331L204.403 68.123Z" fill="#077747"/>
<path d="M13.5669 87.2497L8.34566 68.3848L6.7793 69.4328L12.0005 89.3458L13.5669 87.2497Z" fill="#077747"/>
<path d="M13.567 117.382L3.1246 102.186L0.25293 106.116L12.2617 122.885L13.567 117.382Z" fill="#077747"/>
<path d="M199.442 117.382L201.009 122.885L212.756 106.116L209.885 102.186L199.442 117.382Z" fill="#077747"/>
<path d="M189.522 146.989L187.694 167.426L168.115 172.666L159.5 191.269L139.398 189.435L124.779 204.107L106.505 195.199L87.9692 204.107L73.6109 189.435L53.5092 191.269L44.8942 172.666L25.3146 167.426L23.4872 146.989L8.60672 136.246L6.7793 142.796L23.4872 154.587L25.3146 175.024L44.8942 180.264L53.5092 199.129L73.6109 197.295L87.9692 211.706L106.505 203.059L124.779 211.706L139.398 197.295L159.5 199.129L168.115 180.264L187.694 175.024L189.522 154.587L206.23 142.796L204.402 136.246L189.522 146.989Z" fill="#077747"/>
<path d="M52.7266 103.233V119.478C52.7266 127.6 48.5496 132.317 40.7178 132.317C32.886 132.317 28.709 127.6 28.709 119.478V92.7527C28.709 84.6303 32.886 79.9141 40.7178 79.9141C48.5496 79.9141 52.7266 84.6303 52.7266 92.7527V97.7309H45.1558V92.2287C45.1558 88.5605 43.5894 87.2504 40.9788 87.2504C38.3682 87.2504 36.8019 88.5605 36.8019 92.2287V119.74C36.8019 123.408 38.3682 124.718 40.9788 124.718C43.5894 124.718 45.1558 123.408 45.1558 119.74V110.308H41.501V102.971H52.7266V103.233Z" fill="white"/>
<path d="M74.9172 125.243V117.121C74.9172 112.405 73.3509 110.571 69.696 110.571H66.8243V131.27H58.7314V80.7012H70.7402C79.0942 80.7012 82.488 84.6314 82.488 92.4918V96.422C82.488 101.662 80.9216 105.068 77.2668 106.902C81.1827 108.475 82.488 112.405 82.488 117.645V125.505C82.488 127.864 82.488 129.698 83.2712 131.794H75.1783C75.1783 130.222 74.9172 129.436 74.9172 125.243ZM66.8243 103.496H69.9571C72.8287 103.496 74.6562 102.186 74.6562 97.994V93.0158C74.6562 89.3476 73.3509 87.7755 70.4792 87.7755H66.5633V103.496H66.8243Z" fill="white"/>
<path d="M107.027 131.53L105.722 122.36H95.8015L94.4962 131.53H87.1865L95.2794 80.4375H107.027L115.12 131.53H107.027ZM104.417 115.547L100.501 89.608L96.5847 115.547H104.417Z" fill="white"/>
<path d="M142.27 80.6995V88.0359H133.917V131.792H125.824V87.7739H117.47V80.4375H142.27V80.6995Z" fill="white"/>
<path d="M154.802 80.7012V131.794H146.709V80.7012H154.802Z" fill="white"/>
<path d="M172.293 79.9141C180.125 79.9141 184.041 84.6303 184.041 92.7527V94.3248H176.47V92.2287C176.47 88.5605 174.904 87.2504 172.554 87.2504C170.204 87.2504 168.638 88.5605 168.638 92.2287C168.638 102.709 184.302 104.805 184.302 119.216C184.302 127.338 180.125 132.055 172.293 132.055C164.461 132.055 160.284 127.338 160.284 119.216V116.072H167.855V119.74C167.855 123.408 169.421 124.718 172.032 124.718C174.643 124.718 176.209 123.408 176.209 119.74C176.209 109.26 160.545 107.163 160.545 92.7527C160.545 84.6303 164.722 79.9141 172.293 79.9141Z" fill="white"/>
</svg>
