<svg width="257" height="213" viewBox="0 0 257 213" fill="none" xmlns="http://www.w3.org/2000/svg">
<path d="M234.756 106.115L223.009 89.3458L228.23 69.4329L211.522 57.6423L209.695 37.2053L190.115 31.965L181.5 13.1001L161.137 14.9342L146.779 0.523438L128.505 9.16987L110.23 0.523438L95.611 14.9342L75.5093 13.1001L66.8943 31.965L47.0537 37.2053L45.4873 57.6423L28.7795 69.4329L34.0007 89.3458L22.2529 106.115L34.0007 122.884L28.7795 142.797L45.4873 154.587L47.3148 175.024L66.8943 180.264L75.5093 199.129L95.611 197.295L109.969 211.706L128.505 203.06L146.779 211.706L161.398 197.295L181.5 199.129L190.115 180.264L209.695 175.024L211.522 154.587L228.23 142.797L223.009 122.884L234.756 106.115Z" fill="#129D67"/>
<path d="M226.403 68.123L221.442 87.25L223.009 89.3461L228.23 69.4331L226.403 68.123Z" fill="#077747"/>
<path d="M35.5669 87.2497L30.3457 68.3848L28.7793 69.4328L34.0005 89.3458L35.5669 87.2497Z" fill="#077747"/>
<path d="M35.567 117.382L25.1246 102.186L22.2529 106.116L34.2617 122.885L35.567 117.382Z" fill="#077747"/>
<path d="M221.442 117.382L223.009 122.885L234.756 106.116L231.885 102.186L221.442 117.382Z" fill="#077747"/>
<path d="M211.522 146.989L209.694 167.426L190.115 172.666L181.5 191.269L161.398 189.435L146.779 204.107L128.505 195.199L109.969 204.107L95.6109 189.435L75.5092 191.269L66.8942 172.666L47.3146 167.426L45.4872 146.989L30.6067 136.246L28.7793 142.796L45.4872 154.587L47.3146 175.024L66.8942 180.264L75.5092 199.129L95.6109 197.295L109.969 211.706L128.505 203.059L146.779 211.706L161.398 197.295L181.5 199.129L190.115 180.264L209.694 175.024L211.522 154.587L228.23 142.796L226.402 136.246L211.522 146.989Z" fill="#077747"/>
<path d="M74.7266 103.233V119.478C74.7266 127.6 70.5496 132.317 62.7178 132.317C54.886 132.317 50.709 127.6 50.709 119.478V92.7527C50.709 84.6303 54.886 79.9141 62.7178 79.9141C70.5496 79.9141 74.7266 84.6303 74.7266 92.7527V97.7309H67.1558V92.2287C67.1558 88.5605 65.5894 87.2504 62.9788 87.2504C60.3682 87.2504 58.8019 88.5605 58.8019 92.2287V119.74C58.8019 123.408 60.3682 124.718 62.9788 124.718C65.5894 124.718 67.1558 123.408 67.1558 119.74V110.308H63.501V102.971H74.7266V103.233Z" fill="white"/>
<path d="M96.9172 125.243V117.121C96.9172 112.405 95.3509 110.571 91.696 110.571H88.8243V131.27H80.7314V80.7012H92.7402C101.094 80.7012 104.488 84.6314 104.488 92.4918V96.422C104.488 101.662 102.922 105.068 99.2668 106.902C103.183 108.475 104.488 112.405 104.488 117.645V125.505C104.488 127.864 104.488 129.698 105.271 131.794H97.1783C97.1783 130.222 96.9172 129.436 96.9172 125.243ZM88.8243 103.496H91.9571C94.8287 103.496 96.6562 102.186 96.6562 97.994V93.0158C96.6562 89.3476 95.3509 87.7755 92.4792 87.7755H88.5633V103.496H88.8243Z" fill="white"/>
<path d="M129.027 131.53L127.722 122.36H117.802L116.496 131.53H109.187L117.279 80.4375H129.027L137.12 131.53H129.027ZM126.417 115.547L122.501 89.608L118.585 115.547H126.417Z" fill="white"/>
<path d="M164.27 80.6995V88.0359H155.917V131.792H147.824V87.7739H139.47V80.4375H164.27V80.6995Z" fill="white"/>
<path d="M176.802 80.7012V131.794H168.709V80.7012H176.802Z" fill="white"/>
<path d="M194.293 79.9141C202.125 79.9141 206.041 84.6303 206.041 92.7527V94.3248H198.47V92.2287C198.47 88.5605 196.904 87.2504 194.554 87.2504C192.204 87.2504 190.638 88.5605 190.638 92.2287C190.638 102.709 206.302 104.805 206.302 119.216C206.302 127.338 202.125 132.055 194.293 132.055C186.461 132.055 182.284 127.338 182.284 119.216V116.072H189.855V119.74C189.855 123.408 191.421 124.718 194.032 124.718C196.643 124.718 198.209 123.408 198.209 119.74C198.209 109.26 182.545 107.163 182.545 92.7527C182.545 84.6303 186.722 79.9141 194.293 79.9141Z" fill="white"/>
</svg>
