<svg width="137" height="153" viewBox="0 0 137 153" fill="none" xmlns="http://www.w3.org/2000/svg">
<g clip-path="url(#clip0_13486_825)">
<path d="M258.041 52.4598C251.193 60.5413 242.701 69.3076 232.155 68.6228C217.363 67.8009 209.693 49.5834 195.722 44.2414C192.435 43.0086 188.874 42.5977 185.313 42.3237C181.889 42.0498 178.465 42.0498 175.041 42.1868C172.438 42.3237 169.836 42.4607 167.234 42.8716C158.742 43.9674 150.524 46.296 142.169 47.8027C131.623 49.7203 120.94 50.4052 110.257 50.6792C105.6 50.8161 100.806 50.8161 96.1492 50.9531C94.2317 50.9531 91.9033 50.6792 90.3967 49.5834C89.9858 49.3094 89.5749 48.8985 89.4379 48.3506C89.301 48.2136 89.301 47.9397 89.164 47.8027C88.6161 45.4742 90.6706 43.4195 91.9033 41.3649C95.6013 34.9272 90.8076 27.1196 86.1508 21.3667C79.5765 13.0113 71.9065 4.10799 61.3602 2.60127C52.1836 1.23153 43.4178 6.02563 35.3369 10.5458C30.9541 13.0113 26.7082 14.792 25.3385 19.5861C23.284 26.9827 23.0101 34.9272 24.2428 42.5977C24.6537 44.9263 25.2015 47.1178 25.8864 49.3094C26.1603 50.2682 26.5712 51.2271 27.393 51.638C28.3517 52.0489 29.4474 51.638 30.4062 51.0901C30.5432 51.0901 30.5432 50.9531 30.6801 50.9531C33.4194 49.1725 35.6108 46.7069 36.9805 43.6935C37.3914 46.296 40.2676 47.6657 42.3221 49.4464C48.0746 54.5144 47.6637 63.0068 47.8007 70.8144C47.8007 71.7732 47.8007 72.595 47.8007 73.5538C47.9377 76.0194 48.2116 78.4849 48.6225 80.8135C50.9509 93.1411 57.6621 104.647 67.5236 112.454C67.5236 112.591 67.3866 112.728 67.3866 113.002C67.2497 115.057 66.2909 116.975 66.017 118.892C65.88 119.577 65.7431 120.262 65.6061 120.81C65.6061 121.221 65.4691 121.495 65.4691 121.906C66.1539 124.097 65.4691 126.837 63.6886 128.343C62.182 129.576 60.1275 130.124 59.5796 131.905C59.0318 133.411 60.2645 135.192 61.6341 135.877C61.7711 136.014 62.045 136.014 62.182 136.151C63.5516 136.699 64.9213 136.699 66.4279 136.699C68.6193 136.699 71.0847 136.425 73.0022 135.466C73.9609 134.918 74.7827 134.096 75.1936 133.001C75.7415 131.494 75.3306 129.987 75.1936 128.343C75.1936 128.206 75.1936 128.07 75.1936 127.933C75.1936 126.563 75.4675 125.193 76.0154 123.823C77.1111 121.221 79.1656 118.892 81.7679 117.659C82.5897 120.673 83.2745 123.686 83.0006 126.837C82.7267 129.85 81.0831 133.001 78.2068 134.233C76.7002 134.918 74.9197 135.192 74.2349 136.562C73.2761 138.48 75.6045 140.534 77.7959 140.945C82.3158 141.904 87.1095 140.123 90.2597 136.836C90.9445 136.151 91.4924 135.466 92.0402 134.644L94.9165 123.96C95.1904 120.81 96.5601 117.659 98.7515 115.331C102.587 111.496 107.654 110.4 112.859 110.263C112.859 110.263 114.365 110.263 115.461 110.263C119.296 107.66 123.268 105.743 127.651 103.688C131.075 101.086 134.499 99.031 138.745 97.2503C138.882 97.1134 139.019 97.1134 139.293 97.1134C140.252 96.0176 141.211 94.9218 142.306 93.826C148.333 88.621 157.098 88.2101 165.042 88.8949C171.069 89.3058 177.232 90.2647 183.122 91.4974C186.82 92.3193 190.518 93.1411 194.079 94.2369C195.449 94.6478 196.955 95.0588 197.777 96.2915C197.914 96.5655 198.051 96.7024 198.188 96.9764C198.599 97.9352 198.599 98.894 198.462 99.8529C198.051 105.606 195.038 111.085 190.244 114.372C189.148 115.194 187.642 116.427 188.326 117.659C188.463 118.07 188.874 118.344 189.285 118.618C192.572 120.399 196.818 119.44 199.557 117.112C202.434 114.783 203.94 111.222 205.036 107.66C205.584 105.88 206.132 103.825 207.912 103.003C208.049 103.003 208.186 102.866 208.186 102.866C209.556 102.455 211.062 103.003 212.295 103.825C216.815 106.839 218.596 113.413 216.404 118.344C215.856 119.44 215.171 120.536 215.034 121.769C214.761 125.604 220.787 127.111 223.663 124.645C226.539 122.043 226.95 117.796 227.224 113.961C227.224 113.276 227.361 112.454 227.361 111.77C227.635 106.839 227.909 101.907 228.32 96.9764C228.32 96.2915 228.457 95.4697 228.183 94.7848C227.635 92.5932 225.307 91.3605 223.526 89.9907C218.048 85.7445 216.541 78.3479 215.445 71.4992C215.308 70.9513 215.171 70.2665 215.171 69.5816C215.171 68.8967 215.308 68.3488 215.993 68.3488C217.226 68.2118 218.459 68.8967 219.691 69.4446C227.361 73.4169 236.675 75.1975 244.756 72.1841C253.111 69.5816 259.548 61.0892 258.041 52.4598Z" fill="white"/>
<path d="M37.5282 24.3828C36.9804 33.5601 34.7889 42.6004 30.9539 50.9558C30.817 50.9558 30.817 51.0927 30.68 51.0927C29.7213 51.6406 28.6255 52.0516 27.6668 51.6406C26.845 51.2297 26.4341 50.2709 26.1602 49.3121C25.4754 47.1205 24.9275 44.7919 24.5166 42.6004C27.8038 36.8475 33.6932 32.7382 36.5695 26.7114L37.5282 24.3828Z" fill="#BABAB9"/>
<path d="M70.9476 36.5737C71.6324 35.067 72.1803 33.5603 72.7281 31.9166C73.5499 29.3141 74.3717 26.5746 74.7826 23.9721C74.9196 23.4242 74.9196 22.8763 74.5087 22.4654C74.2348 22.1914 73.8239 22.1914 73.413 22.1914C71.9064 22.1914 70.6737 23.0133 69.7149 24.109C68.7562 25.2048 68.0713 26.4376 67.3865 27.8073C66.4278 29.725 65.606 31.6426 64.6472 33.5603C63.9624 35.067 60.4013 43.2854 63.2776 43.6963C66.0169 44.1073 69.9889 38.4913 70.9476 36.5737Z" fill="#BABAB9"/>
<path d="M91.0813 53.1464C90.8074 55.0641 89.7117 56.8447 88.7529 58.4884C87.5203 60.406 86.1506 62.3237 84.3701 63.6934C81.6308 65.748 78.2067 66.2959 75.3304 68.0766C71.9063 70.1312 69.5779 73.5556 66.4277 76.1581C63.6884 78.4866 60.5382 80.1303 57.1141 80.9521C54.5118 81.637 51.6355 81.774 49.1702 80.6782C49.1702 80.6782 49.0332 80.6782 49.0332 80.5412C48.6223 78.0757 48.3484 75.7471 48.2114 73.2816C48.2114 72.3228 48.2114 71.5009 48.2114 70.5421C48.3484 70.5421 48.3484 70.5421 48.4854 70.5421C53.4161 69.5833 58.3468 68.4875 62.7297 66.159C65.0581 64.9262 67.2495 63.1455 68.8931 61.0909C70.1258 59.5842 71.0845 57.5296 72.7281 56.4338C74.6456 55.0641 76.4261 56.2968 78.4806 56.2968C81.0829 56.2968 83.0004 54.5162 84.507 52.5985C85.8767 50.9548 87.2463 49.0372 89.1638 47.9414C89.3008 48.0784 89.5747 48.2154 89.7117 48.3523C90.1226 48.6263 90.3965 49.1742 90.6704 49.5851C91.0813 50.6809 91.2183 51.9137 91.0813 53.1464Z" fill="#BABAB9"/>
<path d="M76.2893 120.949C76.2893 121.908 76.1524 122.866 76.0154 123.825C75.7415 125.195 75.4675 126.565 75.1936 127.934C74.9197 129.167 74.6458 130.263 74.5088 131.359C74.2349 132.592 74.0979 133.961 73.2761 135.057C73.1391 135.194 73.1391 135.331 73.0022 135.468C71.2216 136.427 68.6193 136.701 66.4279 136.701C65.0582 136.701 63.5516 136.701 62.182 136.153C62.045 135.331 62.182 134.509 62.3189 133.824C63.0038 130.948 65.4691 128.893 66.8388 126.291C67.9345 123.962 68.3454 121.223 70.3999 119.716C72.5913 118.346 76.4263 117.524 76.2893 120.949Z" fill="#BABAB9"/>
<path d="M184.354 88.6212C175.999 85.6078 166.96 85.6078 158.194 85.8818C152.442 86.0187 146.689 86.2927 141.21 87.9364C133.403 90.2649 126.829 95.4699 119.433 98.8943C116.146 100.401 112.722 101.634 109.435 103.277C106.285 104.921 103.134 107.25 101.354 110.4C100.532 111.77 99.9841 113.277 99.5732 114.783C103.271 111.633 108.065 110.674 112.859 110.537C112.859 110.537 114.365 110.537 115.461 110.537C119.296 107.935 123.268 106.017 127.651 103.962C131.075 101.36 134.499 99.3052 138.745 97.5245C138.882 97.3876 139.019 97.3876 139.293 97.3876C140.252 96.2918 141.21 95.196 142.306 94.1002C148.333 88.8952 157.098 88.4843 165.042 89.1691C171.069 89.5801 177.232 90.5389 183.122 91.7716C183.669 91.4977 184.08 91.0868 184.628 90.8128C184.902 90.5389 185.313 90.2649 185.313 89.854C185.587 89.1691 184.902 88.8952 184.354 88.6212Z" fill="#BABAB9"/>
<path d="M45.6092 60.4039C46.157 63.4174 47.1158 66.2938 48.8963 68.8963C49.1702 69.3073 49.5811 69.7182 49.992 69.9921C50.8138 70.2661 51.7726 69.7182 52.4574 69.3073C54.9227 67.9375 57.936 67.5266 60.4013 66.1569C61.634 65.472 62.7297 64.6501 63.8254 63.6913C66.1538 61.6367 68.3453 59.3082 70.1258 56.8426C70.8106 56.0208 71.3585 55.062 71.4955 53.9662C71.7694 52.1855 70.8106 50.5418 70.2628 48.8981C69.578 46.2956 69.9888 43.2822 69.1671 40.6797C66.9756 42.8713 64.6472 44.9259 61.634 45.7477C60.6753 46.0217 59.5795 46.0217 58.6208 46.5696C57.936 46.9805 57.5251 47.5284 56.9772 48.0763C55.6076 49.309 53.6901 50.1309 51.7726 50.4048C50.9508 50.5418 50.129 50.4048 49.1702 50.5418C48.0745 50.5418 46.5679 50.5418 45.6092 50.9527C44.7874 51.3637 44.9243 52.1855 44.9243 53.0074C45.0613 55.4729 45.1983 57.9384 45.6092 60.4039Z" fill="#F15748"/>
<path d="M38.624 18.4919C38.487 19.1767 38.761 19.9986 39.1719 20.5465C39.4458 20.9574 39.7197 21.2313 39.9937 21.6423C40.1306 21.7792 40.4045 22.0532 40.6785 22.1902C40.9524 22.3271 41.2263 22.3271 41.5003 22.3271C42.596 22.3271 43.6917 22.0532 44.3765 21.2313C44.6504 20.9574 44.7874 20.4095 44.7874 19.9986C44.7874 19.0398 44.3765 18.2179 43.6917 17.533C43.0069 16.8482 42.0481 16.5742 41.0894 16.5742" fill="#BABAB9"/>
<path d="M59.5796 19.8619C59.3057 20.4098 58.8948 20.9577 58.8948 21.6426C58.8948 22.6014 59.5796 23.4232 60.4014 23.6972C61.2232 24.1081 62.1819 24.1081 63.1407 23.9711C63.4146 23.9711 63.5516 23.9711 63.8255 23.8342C64.0994 23.6972 64.2364 23.5602 64.5103 23.2863C65.1951 22.6014 65.743 21.5056 65.4691 20.5468C65.3321 20.1359 65.1951 19.7249 64.7843 19.451C64.0994 18.9031 63.0037 19.314 62.1819 19.177" fill="#BABAB9"/>
<path d="M0 28.9023C1.23268 28.9023 2.46536 28.7653 3.69804 28.7653C7.25912 28.4914 10.6832 27.5326 14.2443 27.8065C15.0661 27.8065 15.0661 27.8065 15.34 28.4914C13.5595 28.6284 11.779 28.9023 10.1354 29.0393C7.53305 29.3132 4.93072 29.4502 2.3284 29.5872C1.64357 29.5872 0.821787 29.3132 0 29.3132C0 29.0393 0 29.0393 0 28.9023Z" fill="black"/>
<path d="M101.628 18.7669C101.765 18.63 101.902 18.356 102.176 18.219C102.86 17.9451 103.545 17.5342 104.367 17.3972C108.613 16.5754 112.996 15.7535 117.379 14.9317C117.79 14.7947 118.337 14.6577 118.611 15.4796C112.996 16.5754 107.38 17.8081 101.902 18.9039C101.628 18.9039 101.628 18.7669 101.628 18.7669Z" fill="black"/>
<path d="M16.0248 34.6562C16.9835 35.4781 16.2987 35.752 15.8878 36.026C13.9703 37.8067 12.1898 39.5873 10.4092 41.231C9.0396 42.4638 7.53299 43.6965 6.02638 44.9293C5.75245 45.2033 5.34156 45.2032 4.93066 45.3402C8.21781 41.231 12.1898 37.9436 16.0248 34.6562Z" fill="black"/>
<path d="M107.654 0C107.654 0.273948 107.791 0.68487 107.654 0.958818C106.695 2.60251 106.011 4.38317 104.778 5.88988C102.997 8.35542 100.943 10.684 99.0254 13.1495C99.0254 13.1495 98.8884 13.2865 98.6145 13.2865C98.7515 13.0125 98.7515 12.6016 98.8884 12.3277C99.9841 10.9579 101.08 9.58818 102.176 8.21844C104.093 5.61594 106.011 3.01343 107.38 0C107.38 0 107.517 0 107.654 0Z" fill="black"/>
<path d="M1.78052 15.7539C6.71124 16.1648 10.1354 19.5892 14.1073 22.0547C9.86143 20.1371 6.30035 16.9867 1.78052 15.7539Z" fill="black"/>
<path d="M112.585 30.5469C109.709 27.9444 106.284 26.1637 102.997 24.2461C106.695 25.6158 110.119 27.3965 112.585 30.5469Z" fill="black"/>
<path d="M52.5945 46.162C52.1836 46.5729 51.9097 46.8468 51.6358 47.1208C51.2249 46.7099 50.814 46.2989 50.4031 45.7511C50.4031 45.7511 51.0879 44.9292 51.0879 45.0662C51.4988 45.2032 51.9097 45.6141 52.5945 46.162Z" fill="black"/>
<path d="M50.8137 42.7359C50.4028 43.0098 50.1289 43.4207 50.1289 43.4207C49.718 43.1468 49.4441 42.7359 49.0332 42.4619C49.1702 42.325 49.4441 41.914 49.5811 42.051C49.992 42.188 50.4028 42.4619 50.8137 42.7359Z" fill="black"/>
<path d="M52.4575 43.9682C52.1836 43.4203 51.9097 42.8724 51.4988 42.1875C52.8684 42.3245 53.0054 43.0093 52.8684 43.8312C52.7315 43.8312 52.5945 43.8312 52.4575 43.9682Z" fill="black"/>
<path d="M43.9656 15.0676C43.0069 14.5197 42.1851 14.1088 41.2263 13.5609C41.3633 13.287 41.6372 13.287 42.0481 13.5609C42.7329 13.9719 43.4177 14.5197 43.9656 15.0676C44.1026 15.0676 44.1026 15.0676 43.9656 15.0676Z" fill="black"/>
<path d="M175.178 42.3242C174.082 43.283 172.849 44.1049 171.617 44.7898C168.466 46.4334 164.905 47.2553 161.344 48.2141C150.25 50.9536 139.019 53.1452 127.788 55.0628C122.857 55.8847 117.926 56.5695 112.996 56.1586C108.339 55.7477 103.819 54.3779 99.2993 52.7342C102.997 52.3233 106.695 51.6385 110.256 50.8166C120.94 50.5427 131.623 49.8578 142.169 47.9402C150.524 46.4334 158.879 44.1049 167.234 43.0091C169.973 42.5982 172.575 42.3242 175.178 42.3242Z" fill="#BABAB9"/>
<path d="M95.3274 122.453L95.1904 122.864C95.1904 122.727 95.3274 122.59 95.3274 122.453Z" fill="#BABAB9"/>
<path d="M193.942 91.7742C189.148 90.1305 184.217 89.3087 179.15 88.8978C175.862 88.6238 172.438 88.7608 169.151 88.7608C164.631 88.8978 160.112 89.1717 155.592 89.4457C153.674 89.5827 151.757 89.7196 150.113 90.4045C146.141 91.9112 142.306 93.6919 138.608 95.6095C134.499 97.6641 130.39 99.9927 126.281 102.458C122.446 104.65 118.885 107.115 114.639 108.485C110.941 109.718 107.106 110.54 102.997 109.444C105.052 105.198 107.243 100.951 109.298 96.7053C109.161 96.7053 109.024 96.5683 109.024 96.5683C108.887 96.8423 108.613 97.1162 108.476 97.5271C106.558 101.225 104.778 104.924 102.86 108.759C102.586 109.307 102.313 109.718 101.765 109.581C101.354 110.129 101.08 110.677 100.943 111.225H101.08C102.176 111.362 103.134 111.498 104.23 111.635C106.148 111.909 108.202 112.457 109.983 112.32C114.228 111.909 118.337 110.403 122.035 108.211C125.186 106.293 128.473 104.513 131.76 102.732C134.088 101.499 136.417 100.267 138.608 99.0339C141.21 97.5271 143.676 95.7465 146.278 94.2398C147.785 93.281 149.154 92.0482 151.072 91.9112C154.359 91.6373 157.646 91.2263 161.07 90.8154C163.536 90.5415 166.001 89.8566 168.466 89.7196C172.575 89.5826 176.821 89.5826 180.93 89.8566C183.669 89.9936 186.409 90.6784 189.148 91.2263C191.066 91.6373 192.846 92.0482 194.764 92.4591C194.49 92.0482 194.216 91.9112 193.942 91.7742Z" fill="black"/>
<path d="M100.395 113.002C102.039 109.578 103.545 106.017 104.23 102.044C104.367 101.222 104.093 100.675 103.408 100.538C102.86 100.401 102.176 100.675 101.491 100.675C101.491 100.812 101.491 100.949 101.491 100.949L100.943 100.264C100.806 101.222 100.806 102.044 100.943 102.866C101.354 105.88 101.217 108.756 99.7102 111.496C99.0254 112.728 98.4776 114.235 98.0667 115.605C97.2449 117.933 96.4231 120.399 95.6013 122.727C95.3274 122.727 94.9165 122.59 94.3686 122.453C94.0947 123.823 93.6838 125.193 93.5468 126.563C93.4099 130.398 92.0402 133.959 91.0815 137.658C90.9445 138.069 90.5336 138.479 90.1227 138.616C89.3009 139.027 88.6161 139.575 87.7943 139.712C83.8223 140.534 79.9873 141.219 75.8784 140.534C74.9197 140.397 74.2348 139.986 73.8239 139.027C73.0021 136.836 74.5088 134.507 76.8372 134.233C77.522 134.233 78.4807 133.959 78.6177 133.548C79.5764 131.083 81.0831 128.754 81.22 125.878C81.22 124.371 81.4939 123.001 81.6309 121.769C84.9181 120.399 87.9313 119.166 90.8075 117.796C90.8075 117.659 90.6706 117.522 90.6706 117.385C87.7943 118.618 84.9181 119.714 81.9048 120.947C81.9048 119.714 82.0418 118.618 83.4115 118.07C84.9181 117.385 86.4247 116.564 87.9313 115.879C89.027 115.331 90.1227 114.646 91.2184 114.098C91.0815 113.961 91.0815 113.824 90.9445 113.687C88.0682 115.057 85.329 116.427 82.4527 117.796C82.3157 116.975 82.4527 116.29 83.5484 115.879C85.7398 114.92 87.7943 113.961 89.9857 112.865C90.2597 112.728 90.5336 112.454 90.8075 112.317C90.8075 112.18 90.6706 112.043 90.6706 112.043C88.0682 113.139 85.4659 114.372 82.8636 115.468C82.8636 113.413 83.2745 111.496 84.9181 110.126C85.7398 109.304 86.5616 108.482 87.3834 107.66C87.9313 107.112 88.2052 106.564 87.3834 105.88C86.1507 107.249 84.9181 108.756 83.5484 110.263C83.5484 109.03 83.6854 108.208 83.6854 107.249C83.5484 107.249 83.4115 107.249 83.2745 107.249C82.7266 110.126 82.1788 113.139 81.6309 116.153C80.5352 115.879 79.5764 115.605 78.6177 115.331C77.385 114.92 76.1523 114.783 74.9196 114.235C73.2761 113.687 71.6325 112.865 69.9889 112.18C69.1671 111.77 68.2084 111.359 67.5236 110.811C66.7018 110.263 66.0169 109.441 65.1952 108.756C64.3734 108.071 63.5516 107.66 62.7298 106.975C56.8403 101.907 53.0053 95.6066 51.2248 88.073C51.0878 87.799 51.3617 87.1142 51.6357 86.9772C53.2792 85.6075 55.0598 84.2377 56.8403 82.868C58.4839 81.6352 60.1275 80.5394 61.771 79.4436C61.771 79.3066 61.6341 79.3066 61.6341 79.1697C59.8535 80.2655 58.073 81.3613 56.2925 82.594C54.5119 83.8268 52.8684 85.1965 51.2248 86.4293C50.8139 85.1965 51.3617 84.5117 52.3205 83.8268C54.7859 82.1831 57.1143 80.4024 59.5796 78.6218C59.5796 78.4848 59.4427 78.4848 59.4427 78.3478C56.7034 80.2655 53.9641 82.0461 51.2248 83.9638C51.0878 81.7722 50.9508 79.4436 50.8139 77.252C50.6769 75.0605 50.403 72.7319 50.1291 70.4033C51.4987 71.7731 51.4987 71.6361 53.2792 70.9512C54.6489 70.4033 56.1555 69.9924 57.7991 69.4445C57.1143 71.3622 56.5664 73.1428 55.8816 74.9235C56.0185 74.9235 56.0185 74.9235 56.1555 75.0605C56.7034 73.4168 57.3882 71.7731 57.936 70.1294C58.21 69.1706 58.7578 68.7596 59.9905 68.6227C59.1687 71.0882 58.4839 73.4168 57.7991 75.7453C57.936 75.7453 58.073 75.7453 58.073 75.8823C58.7578 73.5537 59.4427 71.3622 60.2644 69.0336C60.4014 68.6227 60.6753 68.2117 61.0862 67.9378C62.4559 67.116 63.8255 66.2941 65.1952 65.4723C68.3453 63.4177 70.3998 60.5412 72.3173 57.3908C72.4543 57.1169 72.4543 56.7059 72.4543 56.432C72.5913 55.4732 72.5912 54.6513 72.7282 53.5555C74.0979 54.6513 75.0566 55.6101 76.2893 56.295C78.0698 57.5278 79.8504 57.6647 81.9048 56.569C83.8223 55.4732 85.192 53.9664 86.2877 52.1858C86.9725 50.953 87.5204 49.5833 88.4791 48.3505C90.3966 46.022 92.4511 43.8304 94.3686 41.5018C95.8752 39.4472 96.9709 37.1186 95.8752 34.5161C95.0534 32.4615 94.0947 30.5439 93.4099 28.4893C92.3141 25.6128 90.3966 23.2843 88.4791 20.9557C87.9313 20.4078 87.5204 19.449 87.5204 18.7641C87.3834 17.9423 87.2465 17.5314 86.5616 17.1204C83.9593 15.3398 81.22 14.107 78.2068 13.2852C77.9329 13.2852 77.6589 13.2852 77.248 13.2852C76.7002 13.6961 76.7002 13.6961 76.8372 13.8331C79.8504 14.244 82.4527 15.6137 85.055 17.1204C85.329 17.2574 85.7398 17.8053 85.6029 18.2162C85.4659 19.449 86.0138 20.2708 86.8356 20.9557C89.8488 23.6952 91.2184 27.5305 92.999 30.9548C93.2729 31.3657 93.1359 31.7767 92.5881 32.0506C90.8075 33.1464 89.164 34.2422 87.3834 35.338C87.2465 35.338 87.2465 35.6119 87.2465 35.7489L87.5204 36.0228C89.4379 34.7901 91.3554 33.4203 93.2729 32.1876C94.9165 35.338 94.2317 38.2144 92.1772 40.68C89.9858 43.4194 87.6574 46.1589 85.329 48.8984C83.9593 50.4051 82.5897 51.9118 81.0831 53.1446C79.4395 54.3774 77.385 55.4732 75.1936 54.3774C73.55 53.6925 72.4543 52.4597 71.6325 50.953C70.1259 48.3505 70.8107 45.611 71.4955 42.8715C72.3173 40.1321 73.2761 37.3926 74.2348 34.7901C74.2348 34.6531 74.5088 34.3792 74.6457 34.3792C77.1111 33.1464 79.5764 32.0506 82.0418 30.8178C82.5897 30.5439 83.0006 30.2699 83.5484 29.996C83.5484 29.859 83.4115 29.722 83.4115 29.5851C80.5352 30.9548 77.6589 32.1876 74.7827 33.5573C74.9196 32.8724 75.1936 32.3245 75.7414 32.0506C77.385 30.9548 79.1656 29.859 80.8091 28.9002C81.0831 28.7632 81.357 28.4893 81.6309 28.2153C81.4939 28.0784 81.4939 28.0784 81.357 27.9414C79.4395 29.0372 77.385 30.2699 75.6045 31.3657C75.7414 29.1741 76.1523 27.1195 76.0154 25.0649C75.8784 22.8733 75.1936 20.8187 73.687 18.9011C73.687 19.586 73.687 19.8599 73.687 20.2708C74.7827 25.4758 73.9609 30.5439 71.7695 35.338C71.3586 36.2968 70.9477 37.2556 70.2629 37.9405C69.4411 39.0363 68.2084 39.8581 67.2496 40.68C66.0169 41.7758 64.7843 43.0085 63.5516 44.1043C63.4146 43.9673 63.4146 43.9673 63.2777 43.8304C63.4146 42.0497 64.3734 40.269 63.5516 38.3514C63.2777 39.8581 62.8668 41.5018 62.8668 43.0085C62.8668 44.2413 62.3189 44.5152 61.0862 44.6522C61.4971 42.8715 61.7711 41.2279 62.1819 39.5842C62.045 39.5842 61.908 39.5842 61.908 39.4472C61.6341 40.406 61.3602 41.2279 61.0862 42.1867C60.9493 41.7758 60.6753 41.3648 60.5384 40.9539C60.1275 43.5564 58.4839 45.4741 56.8403 47.2547C55.6076 48.4875 54.375 49.7203 52.4575 49.4463C49.8551 49.1724 47.5267 48.2135 45.4723 46.8438C46.568 45.0631 47.8007 43.4194 48.7594 41.7758C49.7182 40.1321 49.0333 38.4884 47.1158 38.0775C44.9244 37.6665 42.596 37.6665 40.2676 37.6665C38.761 37.6665 38.0762 38.4884 38.2131 39.8581C38.3501 40.68 38.4871 41.5018 38.898 42.1867C39.8567 43.8304 40.9524 45.3371 42.1851 47.1177C41.2264 47.3917 40.2676 47.6656 39.1719 47.8026C38.761 45.748 38.4871 43.9673 38.0762 42.0497C38.0762 41.7758 37.8022 41.5018 37.5283 41.2279C37.6653 42.7346 37.8022 44.1043 38.0762 45.611C38.2131 46.1589 38.2131 46.8438 38.4871 47.3917C39.0349 48.2135 40.2676 48.3505 41.6373 47.8026C42.596 47.5287 43.4178 47.2547 44.1026 47.1177C44.9244 48.2135 45.6092 48.8984 46.2941 49.7203H42.733C43.9657 50.6791 45.4723 50.953 46.8419 50.5421C48.0746 50.2682 49.3073 50.4051 50.403 50.816C52.4575 51.5009 54.375 51.3639 56.1555 49.8572C56.7034 49.3093 57.3882 49.0354 57.936 48.4875C59.3057 47.1177 60.9493 46.4329 62.7298 46.1589C64.3734 45.885 65.743 45.2001 67.1127 44.1043C67.6605 43.6934 68.0714 43.1455 68.4823 42.7346C68.6193 44.6522 68.6193 46.4329 68.8932 48.2135C69.1671 50.1312 70.5368 51.5009 71.7695 52.7337C67.3866 61.774 59.7166 66.705 50.6769 69.4445C49.8551 67.6639 49.1703 66.0202 48.3485 64.3765C48.0746 63.8286 48.2116 63.5546 48.7594 63.1437C50.266 62.1849 51.7726 61.0891 53.2792 59.9933C53.9641 59.5824 54.6489 59.0345 55.3337 58.4866C55.1968 58.3496 55.1968 58.2126 55.0598 58.0757C52.5944 59.5824 50.266 61.2261 47.8007 62.7328C47.5267 61.9109 47.2528 61.2261 47.1158 60.5412C50.266 58.6236 53.2792 56.8429 56.2925 54.9253C56.1555 54.7883 56.1555 54.6513 56.0185 54.5143C53.1423 56.295 50.1291 58.0757 47.1158 59.8563C46.568 56.7059 46.8419 53.5555 45.3353 50.816C45.1983 51.09 45.0614 51.3639 45.0614 51.6379C45.0614 53.6925 45.1983 55.7471 45.3353 57.8017C45.3353 60.1303 45.8832 62.4588 46.9789 64.5134C48.6225 67.5269 48.8964 70.6773 48.7594 73.9647C48.7594 74.9235 48.7594 75.8823 48.7594 76.8411C48.7594 78.0739 48.8964 79.1697 49.0333 80.4024C49.1703 83.0049 49.1703 85.6075 49.4442 88.21C49.7182 90.5385 50.266 92.8671 49.5812 95.3326C49.4442 95.7435 49.8551 96.4284 49.9921 96.9763C50.1291 96.9763 50.1291 96.9763 50.266 96.9763C50.403 96.0175 50.6769 95.1956 50.8139 94.0998C51.9096 95.6066 52.8684 96.9763 53.8271 98.346C54.7859 99.7158 55.6076 101.223 56.7034 102.592C58.21 104.647 59.7166 106.701 61.4971 108.482C63.1407 110.126 65.1952 111.359 67.1127 112.865C67.3866 113.139 67.7975 113.413 67.6605 113.687C67.2496 115.879 66.8387 118.07 66.4278 120.125C66.2909 120.536 66.017 120.81 66.017 121.084C65.743 122.59 65.6061 124.097 65.3321 125.604C65.3321 125.878 64.9212 126.152 64.6473 126.289C63.5516 127.111 62.3189 127.658 61.2232 128.48C60.5384 129.028 59.7166 129.713 59.5796 130.535C59.0318 133 60.9493 135.74 63.4146 136.014C66.5648 136.425 69.715 136.836 72.7282 135.329C72.3173 138.205 73.1391 139.849 75.4675 140.26C77.6589 140.671 79.9873 141.356 82.3157 140.945C84.6441 140.534 86.9725 140.26 89.164 139.849C90.9445 139.438 92.4511 138.616 92.5881 136.425C92.5881 136.014 92.862 135.466 92.999 135.055C93.5468 132.727 94.0947 130.398 94.5056 128.069C94.7795 126.426 94.9165 124.919 95.1904 123.001C96.4231 123.96 96.56 123.138 96.834 122.453C97.5188 120.399 98.3406 118.207 99.1624 116.153C99.0254 115.331 99.5733 113.961 100.395 113.002ZM102.86 101.086C102.586 102.318 102.45 103.277 102.313 104.647C102.039 103.414 101.902 102.729 101.765 101.77C101.902 101.496 102.313 101.359 102.86 101.086ZM79.3025 117.385C79.8504 117.522 80.3982 117.385 80.9461 117.522C80.5352 120.81 80.2613 123.96 79.7134 127.111C79.3025 129.165 78.3438 131.083 77.522 133.137C77.385 133.411 76.8372 133.685 76.4263 133.822C75.6045 134.096 74.6457 134.233 73.8239 134.37C73.8239 134.37 73.8239 134.096 73.9609 134.096C75.1936 133.548 75.3305 132.453 75.3305 131.494C75.6045 127.111 76.7002 122.864 77.7959 118.481C78.0698 117.385 78.4807 117.248 79.3025 117.385ZM70.2629 135.192C68.2084 135.329 66.017 135.329 63.9625 135.329C63.5516 135.329 63.1407 135.192 62.7298 135.055C61.6341 135.055 60.1275 133.822 59.8535 133C59.5796 131.768 60.1275 131.083 61.0862 130.398C62.4559 129.439 63.9625 128.343 65.3321 127.385C65.4691 127.248 65.6061 127.111 65.6061 126.974C65.88 125.741 66.2909 124.371 66.4278 123.001C66.5648 121.906 66.8387 120.947 67.9345 120.399C69.3041 119.714 70.5368 118.755 71.6325 117.796C70.1259 118.618 68.4823 119.44 66.8387 120.262C67.1127 118.207 67.5236 116.29 67.7975 114.098C70.6737 115.194 73.413 116.29 76.4263 117.385C74.3718 122.453 73.55 127.795 73.8239 133.548C72.8652 134.507 71.6325 135.055 70.2629 135.192Z" fill="black"/>
<path d="M92.9989 51.0911C91.6292 50.6802 90.1226 50.4062 88.8899 49.4474C88.8899 49.3104 89.0269 49.1735 89.0269 49.0365C89.3008 49.1735 89.5747 49.1735 89.8487 49.3104C94.7794 50.9541 99.984 50.9541 105.052 50.5432C106.284 50.4062 107.654 50.5432 109.024 50.4062C113.27 50.1323 117.652 49.9953 121.898 49.3104C124.501 48.8995 126.829 47.5298 129.294 46.571C129.842 46.297 130.39 45.8861 131.075 45.7491C131.349 45.6121 132.034 45.7491 132.034 45.8861C132.171 46.297 132.171 46.8449 131.897 47.1189C131.349 47.6668 130.801 47.9407 130.116 48.4886C132.445 48.0777 134.499 47.8037 136.691 47.3928C136.691 47.5298 136.691 47.5298 136.828 47.6668C135.321 48.2146 133.951 48.6256 132.445 49.1735C132.445 49.3104 132.445 49.3104 132.445 49.4474C134.088 49.1735 135.595 49.0365 137.238 48.7625C140.526 48.0777 143.676 47.2558 146.963 46.434C149.291 45.8861 151.483 45.2012 153.811 44.7903C157.235 44.1054 160.796 43.4206 164.357 42.8727C168.877 42.1878 173.397 41.3659 178.054 40.955C185.998 40.2702 193.805 41.229 201.064 44.9273C203.803 46.297 205.584 48.4886 207.638 50.5432C209.282 52.1869 211.062 53.6936 211.884 55.8852C212.158 56.4331 212.158 57.118 212.432 57.9398C212.158 57.8028 212.021 57.6659 212.021 57.6659C211.473 55.2003 209.419 53.6936 207.912 52.0499C205.173 49.1735 202.16 46.434 198.188 45.4752C197.64 45.3382 196.818 45.4752 196.27 45.6121C193.12 46.571 189.833 47.5298 186.683 48.4886C186.546 48.4886 186.409 48.3516 186.272 48.0777C189.696 47.1189 193.12 46.0231 196.407 45.0642C196.407 44.9273 196.407 44.9273 196.407 44.7903C194.627 44.3794 192.983 43.6945 191.202 43.4206C186.409 42.7357 181.478 42.4617 176.547 43.0096C168.603 43.9685 160.659 45.3382 152.852 47.1189C149.565 47.8037 146.278 48.3516 143.128 49.1735C139.704 49.9953 136.28 50.9541 132.993 51.776C133.266 51.502 133.677 51.0911 134.225 50.4062C130.39 50.8172 126.829 49.8583 123.268 51.3651C120.118 52.5978 116.831 52.3239 113.544 51.9129C109.845 51.502 106.284 51.639 102.723 51.776C99.8471 51.9129 96.8339 51.502 93.9576 51.3651C91.7662 54.9264 89.5747 58.6247 87.3833 62.323C87.2463 62.186 87.1094 62.186 86.9724 62.049C88.0681 60.2684 89.1638 58.3507 90.1226 56.5701C90.8074 54.7894 91.9031 52.8718 92.9989 51.0911Z" fill="black"/>
<path d="M37.6652 41.5043C37.2543 42.874 36.9803 44.2438 36.4325 45.4765C35.6107 47.3942 34.9259 49.3118 33.6932 50.9555C31.6387 53.832 27.3928 53.558 25.3384 50.6815C23.2839 47.8051 22.736 44.9286 23.4208 41.5043C23.8317 38.9018 23.8317 36.2993 23.01 33.6968C21.7773 29.8615 21.7773 26.0262 23.8317 22.4649C25.2014 20.1363 26.1601 17.3969 27.8037 15.3422C29.1734 13.5616 31.2278 12.0549 33.1453 10.6851C34.1041 10.0003 35.8846 10.2742 36.8434 11.233C34.515 10.5482 33.1453 12.1918 31.7757 13.2876C28.8994 15.4792 27.2559 18.4926 25.8862 21.917C27.2559 21.0952 28.4885 20.4103 29.7212 19.7254L29.8582 19.8624C29.0364 20.4103 28.2146 21.0952 27.3928 21.5061C24.5166 23.0128 23.6948 25.7523 23.6948 28.6287C23.6948 30.8203 24.3796 32.8749 24.6535 35.0665C24.7905 36.7102 24.9275 38.2169 25.0644 39.8606C25.0644 40.4085 25.0644 40.9564 25.0644 41.7782C26.2971 36.8472 27.3928 32.1901 28.4885 27.5329C28.6255 27.5329 28.6255 27.5329 28.7625 27.5329C28.7625 28.3548 28.8994 29.3136 28.8994 30.1354C29.0364 33.9707 27.3928 37.532 26.1601 41.0934C25.8862 41.9152 25.6123 42.7371 25.0644 43.4219C25.0644 43.011 25.0644 42.6001 24.9275 42.1892C24.7905 42.1892 24.7905 42.1892 24.6535 42.1892C24.5166 43.4219 24.3796 44.5177 24.2426 45.8875C26.2971 44.1068 28.2146 42.6001 29.9951 40.9564C30.1321 41.0934 30.1321 41.2303 30.2691 41.2303C28.3516 43.011 26.4341 44.6547 24.2426 46.7093C24.2426 48.49 25.6123 50.1337 26.9819 51.9143C27.1189 52.0513 27.2559 52.0513 27.3928 52.0513C29.0364 52.4622 32.0496 51.2294 33.0084 49.4488C32.1866 50.1336 31.6387 50.6815 30.9539 51.0925L30.8169 50.9555C32.1866 48.353 33.4193 45.7505 34.6519 43.148C35.8846 40.4085 36.7064 37.669 36.7064 34.3816C35.0628 35.3405 33.6932 36.2993 32.1866 37.2581C32.1866 37.1211 32.0496 37.1211 32.0496 36.9841C33.4193 36.1623 34.7889 35.3405 36.1586 34.3816C36.2955 34.2447 36.7064 34.1077 36.7064 33.9707C37.1173 30.6833 37.2543 27.396 36.7064 24.1086C36.5694 24.1086 36.4325 24.1086 36.4325 24.1086C35.6107 26.5741 34.9259 29.1766 34.1041 31.7791C33.8302 27.396 36.4325 23.6977 36.9803 19.5884C36.9803 20.2733 37.1173 20.9582 37.1173 21.78C37.1173 22.4649 36.7064 23.2867 37.8021 23.5607C37.8021 23.5607 37.9391 23.6977 37.9391 23.8346C38.35 28.0808 38.8978 32.327 38.487 36.5732C38.0761 38.3539 37.8021 39.9976 37.6652 41.5043C37.6652 41.5043 37.6652 41.6413 37.6652 41.5043Z" fill="black"/>
<path d="M96.4232 142.179C88.4792 144.782 80.6722 147.384 72.7283 149.987C72.4544 149.439 72.4544 149.302 73.2761 149.028C76.7003 147.658 80.1244 146.288 83.6854 145.055C90.2597 143.001 96.8341 141.083 103.271 139.029C103.545 138.892 104.093 139.166 104.367 139.44C104.778 139.987 104.504 140.398 103.819 140.672C101.08 141.905 98.4776 143.275 95.7383 144.645C94.3687 145.329 92.999 146.151 91.6294 147.247C92.7251 146.836 93.8208 146.425 94.9165 146.151C96.8341 145.603 98.6146 145.055 100.532 144.645C101.217 144.508 102.039 144.371 102.45 145.192C102.86 146.014 102.997 146.973 102.313 147.795C101.354 148.754 100.395 149.85 99.5733 150.808C100.532 150.671 101.628 150.534 102.86 150.397C102.86 150.534 102.997 150.534 102.997 150.671C102.724 150.945 102.45 151.219 102.176 151.356C100.806 152.041 99.4364 152.589 98.0667 153.137C97.6558 153.274 96.6971 153.274 96.5601 153C96.1492 152.315 95.7383 151.356 96.5601 150.671C97.6558 149.713 98.6146 148.891 99.7103 147.932C100.121 147.521 100.669 147.11 101.08 146.699C101.08 146.562 100.943 146.562 100.943 146.425C99.1624 146.973 97.5189 147.384 95.7383 147.932C92.5881 149.028 89.438 150.26 86.2878 151.356C85.603 151.63 84.9181 152.178 84.3703 151.082C83.9594 149.987 84.3703 149.576 85.1921 149.028C88.8901 146.973 92.5881 144.782 96.1492 142.727C96.4232 142.453 96.4232 142.316 96.4232 142.179Z" fill="black"/>
<path d="M128.199 54.7881C133.266 53.6924 138.334 52.5966 143.402 51.5008C144.087 51.3638 144.908 51.0898 145.593 51.0898C146.004 51.0898 146.415 51.2268 146.826 51.3638C146.552 51.6377 146.415 52.0487 146.004 52.1856C143.95 53.0075 141.758 53.8293 139.567 54.6512C139.704 54.7881 139.841 54.7881 139.841 54.7881C140.526 54.7881 141.484 54.5142 141.758 55.61C142.032 56.7058 141.073 56.9797 140.389 57.3907C139.978 57.6646 139.567 57.8016 139.019 57.9385C139.841 57.2537 140.526 56.5688 141.347 56.0209C141.347 55.8839 141.21 55.747 141.21 55.61C140.115 55.747 138.882 55.8839 137.786 55.8839C136.827 55.8839 135.732 56.8428 134.636 55.747C136.964 54.9251 139.156 54.1033 141.347 53.2814C141.347 53.1445 141.347 53.1445 141.347 53.0075C140.389 53.1445 139.43 53.4184 138.471 53.5554C135.458 54.1033 132.445 54.6512 129.294 55.1991C129.021 55.1991 128.61 55.0621 128.336 55.0621C128.199 54.9251 128.199 54.9251 128.199 54.7881Z" fill="black"/>
<path d="M75.1935 13.151C74.0978 11.7812 72.7282 10.4115 72.0433 8.90479C71.4955 7.67203 70.5367 7.12413 69.578 6.43926C66.2908 4.52162 62.8667 2.87794 58.7578 3.01491C55.1967 3.01491 51.7726 3.28886 48.4854 4.24768C45.8831 4.93255 43.5547 6.16531 41.7742 8.21992C41.5003 8.49387 41.2263 8.76782 40.9524 8.90479C41.3633 7.39808 43.4178 5.34347 45.3353 4.52162C48.0745 3.28886 51.0878 2.46701 54.101 2.33004C56.2924 2.19306 58.4839 2.05609 60.6753 2.33004C62.7298 2.60399 64.7842 3.42583 66.7017 4.24768C68.3453 4.93255 69.8519 5.89136 71.3585 6.71321C72.3173 7.2611 73.276 7.67203 73.413 9.04177C73.413 9.45269 73.9609 9.86361 74.2348 10.2745C74.7826 11.0964 75.3305 12.0552 75.7414 12.877C75.3305 13.014 75.1935 13.014 75.1935 13.151Z" fill="black"/>
<path d="M41.3633 20.5469C39.4458 20.5469 38.0762 19.4511 37.8022 17.8074C37.8022 17.3965 37.6653 17.1225 37.6653 16.7116C37.5283 15.8897 38.0762 15.4788 38.8979 15.6158C39.4458 15.7528 40.1306 15.7528 40.6785 15.7528C42.8699 16.0267 43.9656 17.9444 42.733 19.588C42.3221 19.999 41.6372 20.2729 41.3633 20.5469Z" fill="black"/>
<path d="M65.469 19.1748C65.0581 19.8597 64.7842 20.2706 64.5102 20.8185C64.0993 21.9143 62.1818 23.0101 60.9491 22.8731C59.8534 22.7362 58.8947 21.6404 59.0316 20.4076C59.0316 19.4488 60.8122 17.9421 62.0449 18.079C63.2775 18.216 64.3733 18.9009 65.469 19.1748Z" fill="black"/>
<path d="M76.2893 51.3635C73.9609 50.4047 73.2761 48.3501 73.1391 46.2955C72.8652 42.8711 74.3718 39.8577 76.0153 36.9812C76.1523 36.8443 76.4262 36.7073 76.7002 36.5703C76.0153 39.0358 75.3305 41.3644 74.7827 43.693C74.2348 45.8845 74.3718 47.9392 75.1936 49.9938C75.3305 50.5417 75.8784 50.9526 76.2893 51.3635Z" fill="black"/>
<path d="M75.1934 58.8989C75.0565 60.8166 73.2759 62.0494 72.5911 63.967C73.5499 63.2821 74.2347 62.5973 75.0565 62.1863C76.2892 61.3645 76.837 61.6384 76.974 63.1451C76.974 63.83 76.837 64.5149 76.5631 65.1998C76.5631 64.3779 76.5631 63.5561 76.5631 62.3233C74.9195 63.4191 73.5499 64.3779 72.1802 65.3367C71.3584 63.4191 73.002 62.3233 73.5499 60.8166C71.6324 62.0494 70.3997 64.104 68.4822 65.3367C68.3452 65.1998 68.3452 65.1998 68.2083 65.0628C70.3997 62.8712 72.5911 60.8166 74.7826 58.625C74.9195 58.625 75.0565 58.762 75.1934 58.8989Z" fill="black"/>
<path d="M131.76 98.0742C136.554 94.1019 141.758 91.0885 147.922 89.7188C145.183 90.9515 142.306 92.1843 139.567 93.554C136.828 94.9238 134.362 96.5674 131.76 98.0742Z" fill="black"/>
<path d="M78.7547 114.649C78.8916 113.416 79.0286 112.184 79.1655 110.951C79.1655 110.951 79.0286 110.951 79.0286 110.814C78.6177 111.91 78.2068 113.143 77.6589 114.649C77.7959 112.595 78.2068 110.951 79.4395 109.444C79.5764 109.444 79.7134 109.444 79.8504 109.444C79.7134 110.129 79.7134 110.814 79.5764 111.499C79.4395 112.184 79.3025 112.869 79.0286 113.553C79.1655 113.553 79.3025 113.69 79.4395 113.69C79.9873 111.773 80.6722 109.855 81.22 107.938C80.9461 110.266 80.3982 112.595 79.1655 114.649C79.0286 114.649 78.8916 114.649 78.7547 114.649Z" fill="black"/>
<path d="M40.1306 33.009C40.5415 29.5847 42.8699 27.1192 44.1026 23.9688C43.6917 27.3931 41.3633 29.8586 40.1306 33.009Z" fill="black"/>
<path d="M31.9127 42.8711C29.7212 44.6518 27.5298 46.2954 25.2014 48.2131C25.6123 46.4324 29.7212 43.282 31.9127 42.8711Z" fill="black"/>
<path d="M109.024 101.91C107.38 105.883 105.6 109.718 103.956 113.69C103.819 113.69 103.682 113.553 103.682 113.553C105.326 109.581 107.106 105.746 108.75 101.773C108.75 101.91 108.887 101.91 109.024 101.91Z" fill="black"/>
<path d="M46.294 8.63011C46.7049 8.76708 47.1158 8.90405 47.6636 9.04103C46.8418 9.178 46.294 9.31498 45.4722 9.45195C45.7461 8.76708 45.8831 8.49313 46.157 7.94524C45.3352 8.35616 44.6504 8.76708 43.9656 9.178C43.9656 9.04103 43.8286 9.04103 43.8286 8.90405C45.4722 7.94524 46.9788 6.98642 48.6224 5.89062C48.7593 6.0276 48.7593 6.0276 48.8963 6.16457C48.0745 6.98642 47.2527 7.80826 46.294 8.63011Z" fill="black"/>
<path d="M106.421 112.865C107.791 109.715 109.161 106.564 110.53 103.414C110.667 103.414 110.804 103.551 110.941 103.551C109.572 106.701 108.202 109.852 106.695 112.865C106.558 113.002 106.558 113.002 106.421 112.865Z" fill="black"/>
<path d="M89.7119 60.6807C91.2185 57.6672 92.5882 54.7908 94.0948 51.7773C94.2317 51.7773 94.3687 51.9143 94.5057 51.9143C92.9991 54.9277 91.6294 57.8042 90.1228 60.8176C89.9858 60.8176 89.8489 60.6807 89.7119 60.6807Z" fill="black"/>
<path d="M63.4146 10.5457C65.469 9.31293 67.5235 8.21714 69.578 6.98438C69.578 7.12135 69.7149 7.25832 69.7149 7.3953C67.6605 8.62806 65.606 9.86083 63.6885 11.0936C63.6885 10.9566 63.5515 10.8196 63.4146 10.5457Z" fill="black"/>
<path d="M141.895 89.5825C139.43 91.3632 136.828 93.1439 134.362 94.7876C134.362 94.6506 134.225 94.6506 134.225 94.5136C136.828 92.7329 139.019 90.5414 141.758 89.3086C141.758 89.4456 141.758 89.4456 141.895 89.5825Z" fill="black"/>
<path d="M80.8091 51.0911C82.4527 48.7626 84.0962 46.2971 85.6028 44.1055C85.6028 45.6122 82.0418 50.6802 80.8091 51.0911Z" fill="black"/>
<path d="M58.4839 51.0894C60.6753 49.7197 62.7298 48.35 64.9212 47.1172C64.9212 47.2542 65.0582 47.2542 65.0582 47.3911C63.0037 48.7609 60.8123 50.1306 58.7578 51.5004C58.7578 51.3634 58.6209 51.2264 58.4839 51.0894Z" fill="black"/>
<path d="M53.4163 35.0646C54.375 30.8184 55.6077 28.4898 56.2925 28.6268C55.3338 30.6814 54.375 32.873 53.4163 35.0646Z" fill="black"/>
<path d="M52.4575 34.243C52.8684 31.7774 53.9641 29.4489 55.4707 27.5312C54.512 29.7228 53.4163 32.0514 52.4575 34.243Z" fill="black"/>
<path d="M83.0005 43.5586C83.4114 44.2435 80.8091 48.6266 79.1655 50.1333C80.3982 47.9418 81.7679 45.7502 83.0005 43.5586Z" fill="black"/>
<path d="M29.5843 22.6016C27.9407 23.8343 26.2971 24.9301 24.7905 26.0259C25.0645 25.0671 27.6668 23.1495 29.5843 22.6016Z" fill="black"/>
<path d="M64.0994 42.7345C64.2363 41.3647 64.5103 39.995 64.6472 38.4883C64.7842 38.4883 64.9212 38.4883 65.0581 38.4883C65.0581 39.858 64.7842 41.2278 64.3733 42.5975C64.2363 42.7345 64.2363 42.7345 64.0994 42.7345Z" fill="black"/>
<path d="M64.2364 50.1328C62.5928 50.9547 61.0862 51.9135 59.4426 52.7353C60.6753 51.2286 62.4558 50.6807 64.2364 50.1328Z" fill="black"/>
<path d="M46.5679 34.9273C45.1983 34.9273 43.8286 34.9273 42.459 34.9273C42.5959 33.8315 44.6504 33.8315 46.5679 34.9273Z" fill="black"/>
<path d="M77.796 135.742C76.7002 136.701 75.7415 137.66 74.6458 138.619C74.6458 138.345 74.3718 138.071 74.5088 137.934C75.3306 136.838 76.4263 136.153 77.796 135.742Z" fill="black"/>
<path d="M92.4512 57.5282C93.273 56.0215 94.0948 54.3778 94.9165 52.8711C95.0535 53.0081 95.1905 53.0081 95.3274 53.145C94.5056 54.6518 93.5469 56.1585 92.7251 57.8022C92.7251 57.6652 92.5881 57.5282 92.4512 57.5282Z" fill="black"/>
<path d="M80.5352 136.973C79.4394 137.658 78.2068 138.479 76.9741 139.301C76.5632 138.479 77.9328 137.384 80.5352 136.973Z" fill="black"/>
<path d="M91.7662 35.7505C90.3965 36.4354 89.0269 36.9833 87.6572 37.6681C87.6572 37.5312 87.5203 37.3942 87.5203 37.2572C88.8899 36.7093 90.2596 36.0245 91.6292 35.4766C91.6292 35.6135 91.6292 35.6135 91.7662 35.7505Z" fill="black"/>
<path d="M85.7398 132.592C84.0962 132.455 82.4527 132.181 80.8091 132.044C80.8091 131.907 80.8091 131.77 80.8091 131.633C82.4527 131.907 84.0962 132.044 85.7398 132.318C85.7398 132.455 85.7398 132.592 85.7398 132.592Z" fill="black"/>
<path d="M31.0911 36.1614C32.3237 35.2025 33.6934 34.3807 34.9261 33.4219C34.9261 33.5588 35.063 33.5589 35.063 33.6958C33.8304 34.6546 32.4607 35.4765 31.228 36.4353C31.228 36.4353 31.0911 36.2983 31.0911 36.1614Z" fill="black"/>
<path d="M66.9756 25.2036C66.0169 26.2994 65.0581 27.2582 64.0994 28.354C63.9624 28.2171 63.9624 28.2171 63.8254 28.0801C64.7842 26.9843 65.606 25.8885 66.5647 24.9297C66.7017 25.0667 66.8387 25.2036 66.9756 25.2036Z" fill="black"/>
<path d="M66.5647 6.71145C65.469 7.67027 64.5103 8.49211 63.4146 9.45093C63.2776 9.31396 63.2776 9.31396 63.1406 9.17698C64.2363 8.21816 65.1951 7.39632 66.2908 6.4375C66.4278 6.57447 66.5647 6.57447 66.5647 6.71145Z" fill="black"/>
<path d="M61.3601 14.3828C60.2644 14.7937 59.1687 15.2047 58.21 15.7526C58.8948 14.5198 60.1275 14.6568 61.3601 14.3828Z" fill="black"/>
<path d="M62.5928 135.055C62.5928 134.644 62.5928 134.096 62.8667 133.959C64.7842 132.178 66.8387 130.535 68.7562 128.754C68.8931 128.891 68.8931 129.028 69.0301 129.165C66.9756 131.082 64.7842 133 62.5928 135.055C62.5928 135.055 62.5928 134.918 62.5928 135.055Z" fill="black"/>
<path d="M65.606 129.031C64.3734 130.538 63.1407 132.182 61.908 133.825C61.6341 132.319 63.6885 129.716 65.606 129.031Z" fill="black"/>
<path d="M41.3634 40.1351C42.0482 39.7242 42.87 39.5872 43.6918 39.5872H43.8287C44.6505 39.5872 45.6093 39.7242 46.4311 39.9981C46.568 39.9981 46.705 39.8612 46.842 39.7242C46.842 39.5872 46.705 39.4502 46.568 39.3133C45.7462 39.1763 44.7875 38.9023 43.8287 38.9023H43.6918C42.87 38.9023 41.9112 39.0393 41.0894 39.4502C40.9525 39.5872 40.8155 39.7242 40.9525 39.8612C41.0894 40.1351 41.2264 40.2721 41.3634 40.1351Z" fill="white"/>
<path d="M41.6372 18.0807C42.0154 18.0807 42.322 17.7741 42.322 17.3958C42.322 17.0176 42.0154 16.7109 41.6372 16.7109C41.259 16.7109 40.9524 17.0176 40.9524 17.3958C40.9524 17.7741 41.259 18.0807 41.6372 18.0807Z" fill="white"/>
<path d="M62.8667 20.2721C63.2449 20.2721 63.5515 19.9655 63.5515 19.5872C63.5515 19.209 63.2449 18.9023 62.8667 18.9023C62.4885 18.9023 62.1819 19.209 62.1819 19.5872C62.1819 19.9655 62.4885 20.2721 62.8667 20.2721Z" fill="white"/>
<path d="M40.5415 22.1898C41.9111 21.7789 43.1438 21.368 44.3765 20.957C44.5135 22.0528 42.596 22.6007 40.5415 22.1898Z" fill="black"/>
<path d="M60.9492 23.8343C62.3189 23.4234 63.5515 23.0125 64.7842 22.6016C65.0582 23.6974 63.1407 24.2453 60.9492 23.8343Z" fill="black"/>
</g>
<defs>
<clipPath id="clip0_13486_825">
<rect width="137" height="153" fill="white"/>
</clipPath>
</defs>
</svg>
