<svg width="113" height="146" viewBox="0 0 113 146" fill="none" xmlns="http://www.w3.org/2000/svg">
<g clip-path="url(#clip0_13486_904)">
<path d="M112.041 52.4598C105.193 60.5413 96.7013 69.3076 86.155 68.6228C71.3628 67.8009 63.6928 49.5834 49.7224 44.2414C46.4353 43.0086 42.8742 42.5977 39.3131 42.3237C35.889 42.0498 32.4649 42.0498 29.0408 42.1868C26.4385 42.3237 23.8361 42.4607 21.2338 42.8716C12.742 43.9674 4.52413 46.296 -3.8307 47.8027C-14.377 49.7203 -25.0602 50.4052 -35.7435 50.6792C-40.4003 50.8161 -45.194 50.8161 -49.8508 50.9531C-51.7683 50.9531 -54.0967 50.6792 -55.6033 49.5834C-56.0142 49.3094 -56.4251 48.8985 -56.5621 48.3506C-56.699 48.2136 -56.699 47.9397 -56.836 47.8027C-57.3839 45.4742 -55.3294 43.4195 -54.0967 41.3649C-50.3987 34.9272 -55.1924 27.1196 -59.8492 21.3667C-66.4235 13.0113 -74.0935 4.10799 -84.6398 2.60127C-93.8164 1.23153 -102.582 6.02562 -110.663 10.5458C-115.046 13.0113 -119.292 14.792 -120.661 19.5861C-122.716 26.9827 -122.99 34.9272 -121.757 42.5977C-121.346 44.9263 -120.798 47.1178 -120.114 49.3094C-119.84 50.2682 -119.429 51.2271 -118.607 51.638C-117.648 52.0489 -116.553 51.638 -115.594 51.0901C-115.457 51.0901 -115.457 50.9531 -115.32 50.9531C-112.581 49.1725 -110.389 46.7069 -109.02 43.6935C-108.609 46.296 -105.732 47.6657 -103.678 49.4464C-97.9254 54.5144 -98.3363 63.0068 -98.1993 70.8144C-98.1993 71.7732 -98.1993 72.595 -98.1993 73.5538C-98.0623 76.0194 -97.7884 78.4849 -97.3775 80.8135C-95.0491 93.1411 -88.3379 104.647 -78.4764 112.454C-78.4764 112.591 -78.6134 112.728 -78.6134 113.002C-78.7503 115.057 -79.7091 116.975 -79.983 118.892C-80.12 119.577 -80.2569 120.262 -80.3939 120.81C-80.3939 121.221 -80.5309 121.495 -80.5309 121.906C-79.8461 124.097 -80.5309 126.837 -82.3114 128.343C-83.818 129.576 -85.8725 130.124 -86.4204 131.905C-86.9682 133.411 -85.7355 135.192 -84.3659 135.877C-84.2289 136.014 -83.955 136.014 -83.818 136.151C-82.4484 136.699 -81.0787 136.699 -79.5721 136.699C-77.3807 136.699 -74.9153 136.425 -72.9978 135.466C-72.0391 134.918 -71.2173 134.096 -70.8064 133.001C-70.2585 131.494 -70.6694 129.987 -70.8064 128.343C-70.8064 128.206 -70.8064 128.07 -70.8064 127.933C-70.8064 126.563 -70.5325 125.193 -69.9846 123.823C-68.8889 121.221 -66.8344 118.892 -64.2321 117.659C-63.4103 120.673 -62.7255 123.686 -62.9994 126.837C-63.2733 129.85 -64.9169 133.001 -67.7932 134.233C-69.2998 134.918 -71.0803 135.192 -71.7651 136.562C-72.7239 138.48 -70.3955 140.534 -68.2041 140.945C-63.6842 141.904 -58.8905 140.123 -55.7403 136.836C-55.0555 136.151 -54.5076 135.466 -53.9598 134.644L-51.0835 123.96C-50.8096 120.81 -49.4399 117.659 -47.2485 115.331C-43.4135 111.496 -38.3458 110.4 -33.1411 110.263C-33.1411 110.263 -31.6345 110.263 -30.5388 110.263C-26.7038 107.66 -22.7318 105.743 -18.349 103.688C-14.9248 101.086 -11.5007 99.031 -7.25482 97.2503C-7.11786 97.1134 -6.9809 97.1134 -6.70697 97.1134C-5.74822 96.0176 -4.78946 94.9218 -3.69374 93.826C2.3327 88.621 11.0984 88.2101 19.0424 88.8949C25.0688 89.3058 31.2322 90.2647 37.1217 91.4974C40.8197 92.3193 44.5178 93.1411 48.0789 94.2369C49.4485 94.6478 50.9551 95.0588 51.7769 96.2915C51.9139 96.5655 52.0508 96.7024 52.1878 96.9764C52.5987 97.9352 52.5987 98.894 52.4617 99.8529C52.0508 105.606 49.0376 111.085 44.2439 114.372C43.1481 115.194 41.6415 116.427 42.3264 117.659C42.4633 118.07 42.8742 118.344 43.2851 118.618C46.5723 120.399 50.8181 119.44 53.5574 117.112C56.4337 114.783 57.9403 111.222 59.036 107.66C59.5839 105.88 60.1317 103.825 61.9123 103.003C62.0493 103.003 62.1862 102.866 62.1862 102.866C63.5559 102.455 65.0625 103.003 66.2952 103.825C70.815 106.839 72.5955 113.413 70.4041 118.344C69.8562 119.44 69.1714 120.536 69.0344 121.769C68.7605 125.604 74.787 127.111 77.6632 124.645C80.5395 122.043 80.9503 117.796 81.2243 113.961C81.2243 113.276 81.3613 112.454 81.3613 111.77C81.6352 106.839 81.9091 101.907 82.32 96.9764C82.32 96.2915 82.457 95.4697 82.183 94.7848C81.6352 92.5932 79.3068 91.3605 77.5262 89.9907C72.0477 85.7445 70.5411 78.3479 69.4453 71.4992C69.3084 70.9513 69.1714 70.2665 69.1714 69.5816C69.1714 68.8967 69.3084 68.3488 69.9932 68.3488C71.2259 68.2118 72.4585 68.8967 73.6912 69.4446C81.3612 73.4169 90.6748 75.1975 98.7558 72.1841C107.111 69.5816 113.548 61.0892 112.041 52.4598Z" fill="white"/>
<path d="M38.3543 88.6212C29.9995 85.6078 20.9598 85.6078 12.1941 85.8818C6.44157 86.0187 0.689053 86.2927 -4.78953 87.9364C-12.5965 90.2649 -19.1708 95.4699 -26.5669 98.8943C-29.854 100.401 -33.2782 101.634 -36.5653 103.277C-39.7155 104.921 -42.8657 107.25 -44.6462 110.4C-45.468 111.77 -46.0159 113.277 -46.4268 114.783C-42.7287 111.633 -37.9349 110.674 -33.1412 110.537C-33.1412 110.537 -31.6346 110.537 -30.5389 110.537C-26.7039 107.935 -22.7319 106.017 -18.349 103.962C-14.9249 101.36 -11.5008 99.3052 -7.25489 97.5245C-7.11792 97.3876 -6.98096 97.3876 -6.70704 97.3876C-5.74828 96.2918 -4.78952 95.196 -3.69381 94.1002C2.33263 88.8952 11.0984 88.4843 19.0423 89.1691C25.0687 89.5801 31.2321 90.5389 37.1216 91.7716C37.6695 91.4977 38.0804 91.0868 38.6282 90.8128C38.9022 90.5389 39.3131 90.2649 39.3131 89.854C39.587 89.1691 38.9022 88.8952 38.3543 88.6212Z" fill="#BABAB9"/>
<path d="M62.7339 101.634C62.5969 102.045 62.5969 102.593 62.46 103.004C62.323 103.004 62.1861 103.141 62.1861 103.141C60.4055 103.826 59.8577 106.018 59.3098 107.798C58.351 111.36 56.7075 114.921 53.8312 117.249C50.955 119.578 46.7091 120.674 43.5589 118.756C43.148 118.482 42.7371 118.208 42.6001 117.797C41.9153 116.565 43.4219 115.332 44.5176 114.51C49.3114 111.223 52.3246 105.744 52.7355 99.9908C52.7355 99.0319 52.7355 97.9361 52.4616 97.1143C53.0094 96.7034 53.6943 96.5664 54.3791 96.5664C56.2966 96.5664 62.0491 98.0731 62.7339 99.9908C62.8709 100.539 62.8709 101.087 62.7339 101.634Z" fill="#BABAB9"/>
<path d="M82.457 97.25C82.1831 102.181 81.9092 107.112 81.4983 112.043C80.9504 111.632 80.4026 111.084 79.9917 110.536C79.0329 109.03 78.8959 107.249 78.485 105.605C76.4306 98.6198 69.0345 94.2366 66.5691 87.3879C64.5147 81.9089 66.0213 75.8821 67.3909 70.2661L69.3084 69.9922C69.3084 70.5401 69.4454 71.225 69.5823 71.9098C70.815 78.7585 72.3217 86.1551 77.6633 90.4013C79.4438 91.7711 81.7722 93.0038 82.3201 95.1954C82.594 95.7433 82.457 96.5652 82.457 97.25Z" fill="#BABAB9"/>
<path d="M29.1777 42.3242C28.082 43.283 26.8493 44.1049 25.6166 44.7898C22.4664 46.4334 18.9053 47.2553 15.3443 48.2141C4.25014 50.9536 -6.98095 53.1452 -18.212 55.0628C-23.1428 55.8847 -28.0735 56.5695 -33.0042 56.1586C-37.661 55.7477 -42.1809 54.3779 -46.7007 52.7342C-43.0026 52.3233 -39.3046 51.6385 -35.7435 50.8166C-25.0603 50.5427 -14.377 49.8578 -3.83077 47.9402C4.52407 46.4334 12.8789 44.1049 21.2337 43.0091C23.973 42.5982 26.5754 42.3242 29.1777 42.3242Z" fill="#BABAB9"/>
<path d="M47.9418 91.7742C43.1481 90.1305 38.2173 89.3087 33.1496 88.8978C29.8625 88.6238 26.4384 88.7608 23.1512 88.7608C18.6314 88.8978 14.1116 89.1717 9.59173 89.4457C7.67423 89.5827 5.75673 89.7196 4.11315 90.4045C0.141178 91.9112 -3.69383 93.6919 -7.39188 95.6095C-11.5008 97.6641 -15.6097 99.9927 -19.7187 102.458C-23.5537 104.65 -27.1148 107.115 -31.3607 108.485C-35.0587 109.718 -38.8937 110.54 -43.0027 109.444C-40.9482 105.198 -38.7568 100.951 -36.7023 96.7053C-36.8392 96.7053 -36.9762 96.5683 -36.9762 96.5683C-37.1132 96.8423 -37.3871 97.1162 -37.5241 97.5271C-39.4416 101.225 -41.2221 104.924 -43.1396 108.759C-43.4136 109.307 -43.6875 109.718 -44.2353 109.581C-44.6462 110.129 -44.9202 110.677 -45.0571 111.225H-44.9202C-43.8244 111.362 -42.8657 111.498 -41.77 111.635C-39.8525 111.909 -37.798 112.457 -36.0175 112.32C-31.7716 111.909 -27.6626 110.403 -23.9646 108.211C-20.8144 106.293 -17.5273 104.513 -14.2401 102.732C-11.9117 101.499 -9.58331 100.267 -7.39188 99.0339C-4.78955 97.5271 -2.32418 95.7465 0.278149 94.2398C1.78476 93.281 3.1544 92.0482 5.07191 91.9112C8.35906 91.6373 11.6462 91.2263 15.0703 90.8154C17.5357 90.5415 20.001 89.8566 22.4664 89.7196C26.5753 89.5826 30.8213 89.5826 34.9302 89.8566C37.6695 89.9936 40.4088 90.6784 43.1481 91.2263C45.0656 91.6373 46.8461 92.0482 48.7636 92.4591C48.4897 92.0482 48.2158 91.9112 47.9418 91.7742Z" fill="black"/>
<path d="M71.3628 125.604C73.2803 126.7 76.0196 126.015 77.1153 124.234C78.2111 122.179 80.2655 121.084 81.9091 119.714C82.7309 118.892 83.5527 118.07 84.3745 117.248C84.5114 117.111 84.6484 116.7 84.5114 116.426C84.1005 115.194 83.6896 113.961 83.0048 112.865C83.0048 113.824 83.1418 114.646 83.1418 115.605H83.0048C82.32 113.413 81.4982 111.358 80.8134 109.167C79.8546 106.427 79.9916 103.688 80.4025 100.948C80.8134 99.1677 81.7721 97.3871 82.5939 95.6064C82.8678 95.0585 83.0048 94.6476 82.457 94.2367C81.6352 93.5518 80.6764 93.0039 79.9916 92.1821C78.348 90.6753 76.7044 89.1686 76.1566 86.5661C73.4173 88.3468 70.9519 89.8535 68.3496 91.4972C68.2126 91.3602 68.2127 91.2232 68.0757 91.2232C70.4041 89.1686 73.1434 87.7989 75.4718 86.2922C73.4173 80.5393 71.3628 74.7864 69.3084 69.0334C69.0344 68.3486 69.0344 67.5267 68.8975 66.5679C69.7192 66.9788 70.4041 67.3898 71.2259 67.6637C73.8282 68.7595 76.4305 69.9923 79.1698 70.6771C82.32 71.499 85.6071 72.1838 88.8943 72.0469C89.3052 72.0469 89.7161 71.9099 89.99 71.7729C90.9488 71.0881 91.9075 70.2662 92.7293 69.1704C92.1814 69.1704 91.7705 69.3074 91.2227 69.3074C86.7029 69.4444 82.0461 69.8553 77.8002 67.8007C76.2935 67.1158 74.65 66.294 73.4173 65.1982C70.815 62.8696 68.2127 60.5411 66.706 57.2537C66.706 57.1167 66.5691 56.9797 66.706 56.8428C68.0757 59.5822 70.4041 61.4999 72.5955 63.4175C76.2936 66.5679 80.6764 67.9377 85.6072 67.8007C87.9356 67.8007 90.2639 67.8007 92.5923 67.3898C96.4273 66.5679 99.5775 64.3763 102.728 62.1847C106.015 59.9932 108.069 56.9797 109.987 53.8293C110.535 52.8705 111.356 52.0487 112.041 51.0898C112.178 51.0898 112.315 51.2268 112.452 51.2268C112.589 51.7747 112.863 52.1856 113 52.7335C113.137 54.9251 113.274 57.2537 112.041 59.3083C110.809 61.6368 109.576 63.9654 108.069 66.157C106.015 69.0334 103.276 71.0881 100.125 72.5948C96.5643 74.2385 92.7293 75.0603 88.8943 74.6494C82.457 74.1015 75.3348 73.0057 69.7193 69.5813C69.8562 70.2662 69.9932 70.8141 70.1302 71.362C71.0889 73.8275 72.1846 76.43 73.1434 78.8956C73.6912 80.1283 73.9652 81.3611 74.513 82.5939C74.65 83.1418 74.9239 83.5527 75.1978 84.1006C75.7457 85.0594 76.2936 85.8812 76.7045 86.977C77.3893 89.0317 79.1698 90.1274 80.6764 91.3602C82.0461 92.456 83.2788 93.4148 83.8266 95.3325C83.5527 95.3325 83.4157 95.3325 83.4157 95.3325C83.0048 97.1131 82.5939 98.8938 82.183 100.674C81.3613 104.647 81.9091 108.619 83.6896 112.317C84.3745 113.687 84.9223 115.194 85.1963 116.7C85.6072 118.481 84.2375 119.714 82.8679 120.673C80.6764 122.179 78.6219 123.686 77.1153 126.015C76.1566 127.521 74.2391 127.247 72.7325 127.11C70.4041 126.973 69.0344 125.741 68.6235 123.823C68.3496 122.453 68.8975 121.221 69.8562 120.262C70.5411 119.44 71.6368 118.892 72.7325 117.933C72.7325 117.522 72.7325 116.837 72.7325 116.153C72.8694 112.591 71.9107 109.304 70.815 105.879C70.1302 103.962 69.0344 103.003 67.2539 102.318C66.0212 101.77 64.7885 101.085 63.6928 100.537C62.0492 104.236 60.4057 107.934 58.7621 111.632C58.2142 113.002 57.5294 114.372 56.9815 115.879C56.1598 117.933 54.7901 119.44 52.5987 119.988C49.0376 120.947 45.3396 121.358 41.6415 120.81C40.6828 120.673 39.861 120.262 39.4501 119.166C39.1762 118.07 39.1762 116.974 40.1349 116.289C41.5045 115.331 43.0112 114.646 44.3808 113.824C44.9287 113.55 45.3396 113.139 45.7505 112.728C48.0789 110.4 48.6267 107.249 49.3115 104.236C49.8594 101.496 50.5442 98.7568 51.0921 95.8804C51.366 94.3736 51.366 94.3736 49.8594 93.9627C49.1746 93.8257 48.4897 93.6888 47.8049 93.5518C47.2571 93.4148 46.7092 93.1409 46.1614 92.8669C48.4898 92.1821 50.6812 92.0451 52.7357 93.4148C53.6944 94.0997 54.6532 94.9215 55.7489 95.4694C56.0228 95.6064 56.7076 95.6064 56.9815 95.3325C58.8991 94.2367 60.8166 93.0039 62.5971 91.9081C62.5971 92.0451 62.7341 92.0451 62.7341 92.1821C60.8166 93.4148 58.8991 94.7846 56.7076 96.1543C58.6251 96.8392 60.2687 97.3871 61.9123 98.2089C64.2407 99.3047 66.5691 100.4 68.8975 101.633C69.5823 102.044 70.1301 102.729 70.4041 103.414C71.3628 105.742 72.4586 108.071 72.5955 110.674C72.5955 110.811 72.7325 110.947 72.8694 111.084C74.513 110.4 76.1566 109.715 77.6632 109.03C77.6632 109.167 77.8002 109.304 77.8002 109.441C76.5675 109.989 75.1978 110.674 73.9652 111.221C72.8694 111.632 72.7325 112.18 73.4173 113.139C74.513 112.728 75.7457 112.317 76.9784 111.906C76.9784 112.043 77.1153 112.18 77.1153 112.18C76.0196 112.591 75.0609 113.139 74.1021 113.55C73.8282 113.687 73.4173 113.824 73.4173 114.098C73.2803 115.331 73.1434 116.563 73.1434 117.796C73.6912 117.659 74.2391 117.522 74.7869 117.385C74.376 118.618 73.8282 119.44 72.7325 119.851C71.0889 120.399 70.1301 121.631 69.5823 123.275C69.4453 123.549 69.7193 124.097 69.9932 124.234C69.9932 125.193 70.678 125.467 71.3628 125.604ZM46.1614 119.166C46.5722 119.303 46.5722 119.44 46.7092 119.44C49.0376 119.44 51.503 119.166 53.5574 118.07C54.5162 117.522 55.4749 116.563 56.0228 115.605C57.2555 113.002 58.3512 110.537 59.5839 107.934C60.8166 105.469 61.5014 102.866 62.4601 100.264C58.7621 99.1677 55.338 97.661 52.3248 95.1955C52.1878 95.1955 52.0508 95.3325 51.9139 95.3325C51.6399 97.2501 51.366 99.1677 51.229 101.222C53.8314 100.811 56.1598 99.4417 58.7621 99.8526C56.5707 100.537 54.3792 101.085 52.1878 101.633C50.8181 101.907 50.6812 102.181 50.8181 103.688C53.4205 103.277 56.0228 103.003 58.6251 102.592C58.6251 102.729 58.6251 102.866 58.7621 103.003C56.0228 103.551 53.4205 103.962 50.8181 104.373C50.2703 106.29 50.1333 108.345 49.1746 109.989C47.8049 112.591 46.2983 115.057 43.2851 116.016C42.6003 116.289 41.9155 116.563 41.3676 116.974C40.6828 117.522 40.2719 118.207 39.5871 118.892C40.5458 119.303 40.9567 119.988 41.7785 119.303C43.1481 118.207 44.6547 117.248 46.0244 116.153C46.2983 116.016 46.5722 115.879 46.7092 115.879C46.7092 115.879 46.7092 116.016 46.8462 116.016C45.3396 117.111 43.8329 118.344 42.1894 119.44C43.696 119.988 44.5178 119.851 45.4765 119.166C47.1201 117.933 48.7637 116.974 50.9551 116.837C49.0376 117.659 47.668 118.344 46.1614 119.166ZM95.0577 71.7729C95.0577 71.9099 95.0577 71.9099 95.0577 72.0469C96.1534 71.7729 97.1122 71.499 98.2079 71.362C100.262 71.225 101.769 70.1292 103.139 68.7595C104.097 67.8007 105.193 66.8419 106.152 66.02C106.7 65.4721 107.658 65.3351 108.069 64.6503C109.576 62.1847 111.083 59.5822 112.178 56.8428C112.726 55.61 112.452 54.1033 112.589 52.7335C112.452 52.7335 112.315 52.7335 112.178 52.5966C111.63 53.4184 111.083 54.2402 110.398 55.1991C109.028 57.2537 108.069 59.5822 106.289 61.0889C103.686 63.4175 100.673 65.4721 97.66 67.1158C95.1947 68.4855 92.5923 69.7183 90.8118 72.1838C93.1402 72.5948 94.6468 70.6771 96.7013 70.4032C96.1534 70.8141 95.6056 71.362 95.0577 71.7729ZM81.6352 109.441C81.7721 109.441 81.9091 109.441 81.9091 109.441C81.7721 108.208 81.4982 107.112 81.3612 105.879C81.2243 105.879 81.0873 105.879 80.9503 105.879C81.0873 106.975 81.3612 108.208 81.6352 109.441Z" fill="black"/>
<path d="M-53.0011 51.0911C-54.3708 50.6802 -55.8774 50.4062 -57.1101 49.4474C-57.1101 49.3104 -56.9731 49.1735 -56.9731 49.0365C-56.6992 49.1735 -56.4253 49.1735 -56.1513 49.3104C-51.2206 50.9541 -46.016 50.9541 -40.9483 50.5432C-39.7156 50.4062 -38.3459 50.5432 -36.9763 50.4062C-32.7304 50.1323 -28.3475 49.9953 -24.1016 49.3104C-21.4993 48.8995 -19.1709 47.5298 -16.7055 46.571C-16.1577 46.297 -15.6098 45.8861 -14.925 45.7491C-14.6511 45.6121 -13.9662 45.7491 -13.9662 45.8861C-13.8293 46.297 -13.8293 46.8449 -14.1032 47.1189C-14.6511 47.6668 -15.1989 47.9407 -15.8838 48.4886C-13.5554 48.0777 -11.5009 47.8037 -9.30945 47.3928C-9.30945 47.5298 -9.30945 47.5298 -9.17249 47.6667C-10.6791 48.2146 -12.0487 48.6256 -13.5554 49.1735C-13.5554 49.3104 -13.5554 49.3104 -13.5554 49.4474C-11.9118 49.1735 -10.4052 49.0365 -8.7616 48.7625C-5.47445 48.0777 -2.32426 47.2558 0.962894 46.434C3.29129 45.8861 5.48273 45.2012 7.81112 44.7903C11.2352 44.1054 14.7963 43.4206 18.3574 42.8727C22.8772 42.1878 27.397 41.3659 32.0538 40.955C39.9978 40.2702 47.8048 41.229 55.0639 44.9273C57.8032 46.297 59.5837 48.4886 61.6382 50.5432C63.2818 52.1869 65.0623 53.6936 65.8841 55.8852C66.158 56.4331 66.158 57.118 66.432 57.9398C66.158 57.8028 66.0211 57.6659 66.0211 57.6659C65.4732 55.2003 63.4187 53.6936 61.9121 52.0499C59.1728 49.1735 56.1596 46.434 52.1876 45.4752C51.6398 45.3382 50.818 45.4752 50.2701 45.6121C47.1199 46.571 43.8328 47.5298 40.6826 48.4886C40.5457 48.4886 40.4087 48.3516 40.2717 48.0777C43.6958 47.1189 47.1199 46.0231 50.4071 45.0642C50.4071 44.9273 50.4071 44.9273 50.4071 44.7903C48.6265 44.3794 46.983 43.6945 45.2025 43.4206C40.4087 42.7357 35.478 42.4617 30.5472 43.0096C22.6033 43.9685 14.6593 45.3382 6.85236 47.1189C3.56521 47.8037 0.278065 48.3516 -2.87212 49.1735C-6.29623 49.9953 -9.72035 50.9541 -13.0075 51.776C-12.7336 51.502 -12.3227 51.0911 -11.7748 50.4062C-15.6098 50.8172 -19.1709 49.8583 -22.732 51.3651C-25.8822 52.5978 -29.1693 52.3239 -32.4565 51.9129C-36.1545 51.502 -39.7156 51.639 -43.2767 51.776C-46.1529 51.9129 -49.1661 51.502 -52.0424 51.3651C-54.2338 54.9264 -56.4253 58.6247 -58.6167 62.323C-58.7537 62.186 -58.8906 62.186 -59.0276 62.049C-57.9319 60.2684 -56.8362 58.3507 -55.8774 56.5701C-55.1926 54.7894 -54.0969 52.8718 -53.0011 51.0911Z" fill="black"/>
<path d="M86.9768 126.426C87.7986 127.385 86.9768 127.932 86.155 128.48C84.5114 129.576 82.7309 130.672 81.0873 131.905C80.5395 132.179 80.1286 132.727 79.8546 133.274C81.2243 133.138 82.457 133.001 83.9636 132.864C83.2787 133.959 80.5395 134.781 79.4438 134.507C78.622 134.233 78.348 133.001 78.8959 132.316C79.7177 131.357 80.6764 130.535 81.6352 129.713C80.2655 130.124 78.8959 130.672 77.5262 130.946C74.9239 131.494 72.1846 132.042 69.5823 132.453C68.8975 132.59 68.0757 132.179 67.3909 132.179C67.3909 132.042 67.3909 131.905 67.3909 131.768C67.5278 131.768 67.8018 131.631 67.9387 131.631C71.0889 132.179 74.1021 130.946 77.1153 130.124C80.5395 128.891 83.6897 127.659 86.9768 126.426Z" fill="black"/>
<path d="M-17.8013 54.7881C-12.7336 53.6924 -7.66589 52.5966 -2.59821 51.5008C-1.91338 51.3638 -1.09159 51.0898 -0.406765 51.0898C0.00412941 51.0898 0.415014 51.2268 0.825909 51.3638C0.551979 51.6377 0.415016 52.0487 0.00412369 52.1856C-2.05035 53.0075 -4.24177 53.8293 -6.43321 54.6512C-6.29624 54.7881 -6.15928 54.7881 -6.15928 54.7881C-5.47446 54.7881 -4.51571 54.5142 -4.24178 55.61C-3.96785 56.7058 -4.9266 56.9797 -5.61142 57.3907C-6.02232 57.6646 -6.43321 57.8016 -6.98107 57.9385C-6.15928 57.2537 -5.47446 56.5688 -4.65267 56.0209C-4.65267 55.8839 -4.78964 55.747 -4.78964 55.61C-5.88535 55.747 -7.11803 55.8839 -8.21375 55.8839C-9.1725 55.8839 -10.2682 56.8428 -11.3639 55.747C-9.03553 54.9251 -6.84411 54.1033 -4.65267 53.2814C-4.65267 53.1445 -4.65267 53.1445 -4.65267 53.0075C-5.61143 53.1445 -6.57018 53.4184 -7.52893 53.5554C-10.5421 54.1033 -13.5554 54.6512 -16.7055 55.1991C-16.9795 55.1991 -17.3904 55.0621 -17.6643 55.0621C-17.8013 54.9251 -17.8013 54.9251 -17.8013 54.7881Z" fill="black"/>
<path d="M36.7106 85.6072C31.0951 86.1551 25.4796 86.703 20.001 87.2509C20.001 87.1139 20.001 86.9769 20.001 86.9769C21.7815 86.703 23.5621 86.429 25.3426 86.1551C27.1231 85.8811 28.9037 85.7442 30.8212 85.4702C29.4515 85.3332 28.2189 85.3332 26.8492 85.0593C26.1644 84.9223 25.0687 85.0593 24.9317 84.1005C24.9317 83.8265 26.0274 83.2786 26.7122 83.1417C28.9037 82.7307 31.2321 82.4568 33.5605 82.0459C32.6017 81.7719 31.7799 81.361 30.9581 81.087C33.1496 80.5391 35.478 81.361 36.0258 82.5938C32.8756 83.0047 29.7255 83.5526 26.5753 83.9635C26.5753 84.1005 26.5753 84.2374 26.5753 84.3744C29.9994 84.6484 33.4235 84.7853 36.9846 85.0593C36.7107 85.3332 36.7106 85.4702 36.7106 85.6072Z" fill="black"/>
<path d="M-14.24 98.0742C-9.44623 94.1019 -4.24157 91.0885 1.92183 89.7188C-0.817458 90.9515 -3.69371 92.1843 -6.433 93.554C-9.17229 94.9238 -11.6377 96.5674 -14.24 98.0742Z" fill="black"/>
<path d="M43.4219 49.7228C46.4351 48.2161 49.5853 47.6682 53.0094 47.5312C49.8592 48.3531 46.709 49.3119 43.5588 50.1338C43.4219 49.8598 43.4219 49.8598 43.4219 49.7228Z" fill="black"/>
<path d="M74.376 88.8945C72.5955 90.9491 70.4041 92.1819 68.0757 93.4147C67.9387 93.2777 67.9387 93.1407 67.8018 93.0038C69.9932 91.634 72.1846 90.2643 74.376 88.8945Z" fill="black"/>
<path d="M58.2141 96.1564C59.3098 94.7867 60.6795 94.1018 62.323 93.9648C60.9534 94.6497 59.5838 95.4716 58.2141 96.1564Z" fill="black"/>
<path d="M71.3628 125.742C71.4998 124.098 72.4585 123.002 73.2803 121.77C73.4173 121.77 73.5542 121.907 73.6912 121.907C72.8694 123.139 72.0476 124.372 71.3628 125.742C71.3628 125.605 71.3628 125.742 71.3628 125.742Z" fill="black"/>
<path d="M57.9402 108.208C56.9815 108.619 55.8858 108.893 54.927 109.304V109.441C56.0227 109.304 56.9815 109.03 58.0772 108.893C58.0772 109.03 58.0772 109.03 58.0772 109.167C56.2967 109.304 54.6531 110.81 52.5986 109.715C54.3792 109.03 56.0228 108.345 57.8033 107.797C57.9403 107.934 57.9402 108.071 57.9402 108.208Z" fill="black"/>
</g>
<defs>
<clipPath id="clip0_13486_904">
<rect width="113" height="146" fill="white"/>
</clipPath>
</defs>
</svg>
