<svg width="171" height="202" viewBox="0 0 171 202" fill="none" xmlns="http://www.w3.org/2000/svg">
<g clip-path="url(#clip0_14396_841)">
<path d="M23.6698 132.548C24.0425 138.25 23.1107 143.952 23.4834 149.654C24.2289 160.31 29.727 171.153 26.0927 181.155C25.4404 183.024 24.4153 184.894 24.6017 186.95C24.7881 189.942 27.8633 192.092 30.8453 192.185C31.4044 192.185 32.0567 192.185 32.6158 191.998C36.0638 191.063 38.5799 187.792 39.6049 184.333C40.63 180.875 40.4436 177.136 40.2573 173.583C39.8845 164.423 39.8845 155.262 40.2573 146.008C40.3504 143.671 40.63 141.054 42.4938 139.558C42.6802 139.465 42.7733 139.278 42.9597 139.185C44.8235 138.063 47.4327 138.624 49.5761 139.278C56.472 141.428 63.5543 145.354 65.884 152.271C68.2137 159.469 64.393 167.227 65.0453 174.799C65.418 179.005 67.1886 183.492 65.1385 187.137C64.0202 189.194 61.7837 190.876 61.7837 193.213C61.7837 195.27 63.7406 196.952 65.6976 197.326C66.8158 197.607 67.9341 197.513 69.1455 197.326C70.0774 197.233 70.9161 196.952 71.848 196.765C75.4823 195.924 79.3962 194.802 81.4464 191.624C82.6578 189.755 82.9374 187.511 83.1237 185.361C84.5216 169.938 82.0987 154.047 84.6148 138.811C84.9875 136.38 85.5466 134.043 86.199 131.707C93.4676 131.333 92.6289 130.304 99.8044 129.837C100.736 136.38 104.557 144.326 106.887 150.495C108.378 154.328 114.062 157.132 116.019 160.684C117.976 164.329 119.188 168.816 117.324 172.462C115.926 175.359 112.664 178.818 114.808 181.248C115.833 182.37 117.51 182.557 119.001 182.557C121.144 182.557 123.381 182.464 125.152 181.342C126.177 180.688 126.922 179.753 127.388 178.725C128.972 175.266 127.761 170.312 126.549 166.292C124.313 158.814 123.381 150.962 123.754 143.204C123.847 140.774 124.499 137.969 126.736 137.128H126.829C127.668 136.848 128.506 136.941 129.345 137.128C138.384 138.904 144.535 147.317 149.287 155.169C155.81 165.825 161.868 179.005 156.742 190.409C156.463 190.97 162.986 190.129 163.545 189.848C165.129 189.194 166.993 188.072 168.298 186.763C170.72 184.333 170.814 181.061 170.907 177.79C171.093 171.527 169.882 165.451 168.204 159.469C167.086 155.262 165.688 151.149 164.477 147.036C162.8 141.241 161.308 135.352 161.029 129.37C160.47 119.274 162.893 107.87 156.742 99.925C154.226 96.6533 151.524 93.9426 149.008 91.2318C147.144 89.1753 145.28 87.0254 143.51 84.4081C138.664 77.117 137.732 68.7042 136.055 60.011C134.098 49.7288 126.549 44.9615 117.417 39.2595C113.596 36.8292 109.03 34.7727 104.557 35.801C99.618 36.9227 95.5178 38.2313 94.3995 43.1855C93.1881 48.1397 93.7472 53.3743 93.9336 58.422C94.0268 60.198 94.0267 62.0675 93.3744 63.6566C93.1881 64.124 93.0017 64.4979 92.7221 64.8718C90.0197 68.8912 83.8693 67.676 79.6758 65.4326C78.278 64.6848 76.8802 63.8435 76.0415 62.5349C75.5755 61.8806 75.3891 61.2262 75.2028 60.5719C74.3641 56.9264 76.9733 52.72 77.9052 48.794C79.3962 42.6246 76.5074 35.801 78.8371 30.0055C80.3281 26.173 83.9624 23.3687 85.5466 19.5363C87.224 15.7038 85.0807 9.72137 80.9804 10.4692C79.8622 10.6561 78.9303 11.3104 78.0916 11.8713C73.9913 14.6756 69.4251 18.0407 64.5793 16.919C61.2246 16.1712 58.5221 13.3669 55.2605 12.3387C52.7445 11.5909 50.042 11.8713 47.5259 11.217C41.1891 9.62789 37.1821 2.61725 30.7521 1.30859C27.0246 5.4215 26.8382 11.4039 26.4654 17.0124C26.4654 17.6668 26.3723 18.2276 26.3723 18.8819C25.7199 27.6686 23.4834 36.3618 23.5766 45.1485C23.5766 46.6441 23.6698 48.2332 23.763 49.7288C23.9494 52.8134 25.0676 57.1133 25.1608 60.198C25.1608 61.6936 21.9924 66.1804 21.8992 67.5825C21.806 69.7325 23.6698 69.7325 23.2971 71.8824C22.0856 79.4539 21.1537 85.5298 21.2469 92.5404C21.3401 97.6816 19.0104 104.786 19.6627 110.301C20.6878 118.153 23.1107 124.789 23.6698 132.548Z" fill="white"/>
<path d="M4.00723 17.7587C6.89606 20.5629 15.0034 26.078 15.9353 25.7041C15.4694 25.3302 15.0966 25.0497 14.7239 24.7693C11.4623 22.339 8.2007 19.9086 4.93911 17.4782C4.47317 17.1043 4.19361 17.1978 4.00723 17.7587Z" fill="black"/>
<path d="M123.567 22.0586C122.822 22.6194 123.288 23.1803 123.474 23.6477C124.872 26.9193 126.27 30.0975 127.575 33.3691C127.761 33.8365 127.854 34.3039 128.227 34.7712C128.32 34.3973 128.413 34.0234 128.32 33.8365C126.922 30.0975 125.431 26.4519 124.033 22.8064C124.033 22.526 123.847 22.339 123.567 22.0586Z" fill="black"/>
<path d="M14.6306 32.6198C12.86 31.3111 1.02517 31.4981 0.000100136 32.6198C4.93906 32.6198 9.78484 32.6198 14.6306 32.6198Z" fill="black"/>
<path d="M135.775 44.588C136.055 44.588 136.334 44.588 136.614 44.588C140.155 44.3076 143.696 44.0271 147.237 43.6532C148.076 43.5598 148.915 43.3728 149.474 42.625C148.262 42.812 147.144 42.9989 146.026 43.0924C142.671 43.4663 139.316 43.8402 135.961 44.2141C135.868 44.2141 135.775 44.3076 135.682 44.3076C135.682 44.401 135.775 44.4945 135.775 44.588Z" fill="black"/>
<path d="M141.739 28.5078C137.639 30.4708 136.148 34.5837 134.098 38.3227C134.377 38.0423 134.657 37.8553 134.843 37.5749C135.682 36.2663 136.427 34.8641 137.266 33.5555C138.384 31.5925 139.596 29.6295 141.739 28.5078Z" fill="black"/>
<path d="M12.6736 38.6055C8.57331 40.6619 6.33679 44.5879 3.72753 48.1399C4.00709 47.8595 4.28666 47.6726 4.47304 47.3921C5.87086 45.7096 7.17549 43.8401 8.6665 42.251C9.87794 40.9424 11.369 39.8206 12.6736 38.6055Z" fill="black"/>
<path d="M21.0605 42.0634C21.1537 43.559 22.7379 46.0828 22.831 47.5784L21.9924 47.8588C22.4583 48.5132 22.6447 53.1869 23.1106 53.8412C25.2539 56.2716 29.4474 56.552 31.5907 58.9824C31.9635 59.4498 32.4294 60.478 32.4294 60.478C33.1749 60.3845 32.5226 58.702 32.243 57.9542C31.0316 55.1499 31.3112 55.8977 30.6588 53.0934C29.6338 48.7936 24.788 51.5044 23.9493 42.2503C23.4834 36.4548 28.5155 26.266 27.0245 20.5641C26.7449 19.4424 26.5586 18.3206 26.3722 17.1055C26.3722 17.7598 26.279 18.3206 26.279 18.975C25.9994 23.3683 25.0676 28.1355 23.6697 31.968C23.3902 32.8093 21.2469 37.2961 21.1537 38.2309C21.0605 38.6983 23.1106 37.3896 23.1106 37.7635C23.4834 39.2591 20.8741 40.1939 21.0605 42.0634Z" fill="#BABAB9"/>
<path d="M75.8552 27.5758C74.9233 28.2301 73.5254 28.604 72.6868 27.7627C72.1276 27.2019 72.1276 26.3606 72.314 25.7063C72.5936 25.0519 73.0595 24.3976 73.5255 23.8368C74.271 22.9955 77.0666 18.8826 78.3712 21.4064C79.1167 22.9955 77.1598 26.7345 75.8552 27.5758Z" fill="#BABAB9"/>
<path d="M53.0239 85.9046C53.0239 85.2503 53.0239 84.5025 52.7444 83.9416C52.3716 83.3808 51.4397 83.1003 51.067 83.6612C50.8806 83.8481 50.7874 84.1286 50.7874 84.409C50.601 85.5307 50.5078 86.7459 50.5078 87.8676C50.9738 87.8676 51.5329 87.8676 51.9989 87.8676C52.1852 87.4937 52.3716 87.2132 52.558 86.8393" fill="#BABAB9"/>
<path d="M50.6011 75.4353C48.4578 75.9027 46.3144 74.968 44.2643 73.9397C38.2071 70.9485 30.5657 65.2465 24.9744 61.4141C24.1357 63.377 26.8381 68.4247 28.4223 69.9203C30.0065 71.4159 31.9635 72.5376 33.2681 74.1267C34.0136 75.0615 34.5728 76.0897 35.5046 76.931C37.2752 78.4266 39.7913 78.52 42.121 78.6135C44.637 78.6135 47.1531 78.6135 49.576 78.6135C50.7875 78.6135 52.1853 78.52 52.8376 77.4918C53.024 77.2114 52.8376 76.744 52.6512 76.8375" fill="#BABAB9"/>
<path d="M75.6686 85.0614C76.0414 85.3418 76.5073 85.6222 76.9733 85.6222C77.4392 85.6222 77.812 85.2483 78.0915 84.9679C80.0485 82.818 80.8872 79.6398 83.4032 78.4246C84.9874 77.6768 86.8512 77.8638 88.5286 78.1442C92.3493 78.7051 96.0768 79.5463 99.7111 80.9485C103.345 82.3506 106.98 84.407 110.894 84.594C113.037 84.6875 115.367 84.1266 116.951 82.631C119.094 80.4811 119.094 76.929 118.256 74.0313C118.162 73.7509 118.069 73.377 117.79 73.19C117.51 72.9096 117.044 72.9096 116.578 72.8161C113.783 72.7226 111.08 73.4704 108.378 73.8443C105.675 74.2182 102.693 74.1248 100.363 72.6292C98.1269 71.227 96.8223 68.7032 95.4245 66.4598C94.8654 65.525 94.2131 64.6838 93.5607 63.8425C93.3744 64.3099 93.188 64.6838 92.9084 65.0577C90.206 69.0771 84.0556 67.8619 79.8621 65.6185C78.4643 64.8707 77.0665 64.0294 76.2278 62.7208C75.7618 62.0665 75.5755 61.4121 75.3891 60.7578L74.83 60.8513C74.4572 63.8425 73.6185 66.8337 72.2207 69.5445C71.1024 71.6009 69.7046 73.6574 69.6114 76.0878C69.2387 79.7333 72.5934 82.7245 75.6686 85.0614Z" fill="#BABAB9"/>
<path d="M117.324 69.4506C115.553 69.918 113.689 69.0767 112.291 67.955C111.919 67.6746 111.639 67.3942 111.453 67.0203C111.266 66.6463 111.266 66.2725 111.173 65.8986C110.987 64.4029 110.8 62.9073 111.453 61.5987C112.105 60.1966 113.596 59.3553 115.087 59.0749C116.578 58.7944 118.162 59.0749 119.653 59.4488C120.492 59.6357 121.331 59.9161 122.076 60.3835C122.822 60.8509 123.381 61.6922 123.381 62.5334C123.381 63.5617 122.635 64.4029 121.797 64.8703C120.958 65.3377 119.933 65.4312 118.908 65.6181C118.535 65.6181 118.162 65.7116 117.79 65.8986C117.51 66.0855 117.23 66.4594 117.324 66.8333" fill="#BABAB9"/>
<path d="M149.101 91.5117C149.753 93.8486 149.94 96.4659 150.312 98.8963C151.99 112.731 156.649 126.191 158.326 140.025C158.606 142.269 158.792 144.606 159.352 146.756C160.563 151.616 163.359 156.103 167.179 159.188C167.552 159.468 167.925 159.749 168.298 159.749C167.179 155.542 165.782 151.429 164.57 147.316C162.893 141.521 161.402 135.632 161.122 129.65C160.563 119.554 162.986 108.15 156.835 100.205C154.226 96.9333 151.617 94.316 149.101 91.5117Z" fill="#BABAB9"/>
<path d="M103.998 137.782C109.216 141.895 112.385 148.064 115.46 153.953C116.485 155.916 117.51 157.973 118.162 160.029C119.933 165.077 120.026 170.779 122.822 175.359C123.847 177.042 125.431 178.537 127.295 178.911C128.879 175.453 127.668 170.499 126.456 166.479C124.22 159.001 123.288 151.149 123.66 143.391C123.754 140.96 124.406 138.156 126.642 137.315C125.99 136.847 125.245 136.474 124.499 136.193C123.288 135.726 122.076 135.352 120.958 134.698C119.56 133.856 118.535 132.548 117.23 131.519C113.969 129.182 109.589 129.369 105.675 129.65C103.625 129.837 101.109 130.304 100.55 132.267C99.8975 134.511 102.227 136.38 103.998 137.782Z" fill="#BABAB9"/>
<path d="M30.8453 192.092C31.4044 192.092 32.0567 192.092 32.6158 191.905C36.0638 190.97 38.5799 187.699 39.6049 184.24C40.63 180.782 40.4436 177.043 40.2573 173.49C39.8845 164.33 39.8845 155.169 40.2573 145.915C40.3504 143.578 40.63 140.961 42.4938 139.465C42.6802 139.372 42.7733 139.185 42.9597 139.092C42.8665 138.718 42.6802 138.25 42.4938 137.876C41.1891 134.885 38.5799 132.268 35.3183 131.707C32.8954 134.979 33.175 139.559 34.2932 143.485C35.4115 147.411 37.3684 151.056 38.1139 155.076C39.4186 161.713 37.5548 168.536 35.691 174.986C34.1069 180.501 32.5227 186.016 30.9385 191.531C30.9385 191.812 30.9385 191.905 30.8453 192.092Z" fill="#BABAB9"/>
<path d="M69.1455 197.419C70.0774 197.326 70.9161 197.045 71.848 196.858C75.4823 196.017 79.3962 194.896 81.4464 191.717C82.6578 189.848 82.9374 187.604 83.1237 185.454C84.5216 170.031 82.0987 154.14 84.6147 138.904C84.242 137.689 83.5897 136.754 82.3782 136.754C80.0485 136.847 79.6758 141.054 79.2098 142.736C77.7188 148.438 76.8801 154.234 76.321 160.123C75.1096 171.714 74.5504 183.678 70.1706 194.615C69.7979 195.456 69.3319 196.485 69.1455 197.419Z" fill="#BABAB9"/>
<path d="M54.8878 51.2238C55.2606 51.5042 55.4469 51.6912 55.6333 51.8781C55.9129 51.5042 56.2856 51.2238 56.5652 50.8499C56.5652 50.8499 56.0992 50.2891 56.0061 50.2891C55.6333 50.5695 55.2606 50.8499 54.8878 51.2238Z" fill="black"/>
<path d="M56.0992 48.795C56.3787 48.9819 56.5651 49.2623 56.6583 49.2623C56.9379 49.0754 57.2174 48.795 57.4038 48.5145C57.3106 48.4211 57.0311 48.1406 57.0311 48.1406C56.7515 48.3276 56.4719 48.5145 56.0992 48.795Z" fill="black"/>
<path d="M54.8878 49.6368C55.0742 49.2629 55.3537 48.889 55.6333 48.3281C54.6082 48.4216 54.515 48.889 54.6082 49.5433C54.7014 49.5433 54.7946 49.5433 54.8878 49.6368Z" fill="black"/>
<path d="M64.5795 51.5988C64.9522 51.8792 65.1386 52.0662 65.325 52.2531C65.6045 51.8792 65.9773 51.5988 66.2568 51.2249C66.2568 51.2249 65.7909 50.6641 65.6977 50.6641C65.325 50.9445 65.0454 51.2249 64.5795 51.5988Z" fill="black"/>
<path d="M65.8841 49.0762C66.1637 49.2632 66.35 49.5436 66.4432 49.5436C66.7228 49.3566 67.0023 49.0762 67.1887 48.7958C67.0955 48.7023 66.816 48.4219 66.816 48.4219C66.4432 48.6088 66.2568 48.8893 65.8841 49.0762Z" fill="black"/>
<path d="M64.6727 49.918C64.8591 49.5441 65.1386 49.1702 65.4182 48.6094C64.3931 48.7029 64.3 49.1702 64.3931 49.8246C64.4863 49.918 64.5795 49.918 64.6727 49.918Z" fill="black"/>
<path d="M72.5004 66.0851C69.332 70.5719 64.6726 74.0304 59.3609 75.4326C54.0492 76.9282 48.2715 76.4608 43.2394 74.2174C42.3075 73.8435 41.3756 73.2826 40.5369 72.8153C39.6051 72.3479 38.58 71.787 37.6481 71.3197C33.9206 69.3567 31.9636 68.048 28.6089 65.5242C27.8634 64.9634 26.186 62.6265 25.7201 61.8787C25.0677 60.8504 24.8814 60.3831 24.695 59.1679C24.4154 57.2049 23.3904 55.4289 23.5767 53.4659C23.5767 52.905 23.6699 52.4377 23.9495 51.9703C24.7882 50.6616 26.9315 50.8486 28.0498 51.8768C29.168 52.9985 29.6339 54.5876 30.1931 55.9897C30.8454 57.4853 31.6841 58.8875 32.5228 60.2896C33.1751 61.4113 33.9206 62.533 34.8525 63.2808C35.6912 64.0286 36.8094 64.496 37.8345 64.8699C39.5119 65.6177 41.2825 66.272 42.9598 67.0198C44.2645 67.5807 45.6623 68.1415 47.0601 68.5154C50.8808 69.6371 55.1675 69.5436 58.895 68.1415C59.3609 67.9546 59.8269 67.7676 60.2928 67.6741C60.7587 67.5807 61.3179 67.4872 61.877 67.4872C64.2999 67.2068 66.6296 66.272 68.6797 65.0568C69.7048 64.4025 70.7299 63.6547 71.6617 62.9069C72.4072 62.2526 73.3391 61.0374 74.271 60.757C75.0165 62.346 73.3391 64.8699 72.5004 66.0851Z" fill="#F15748"/>
<path d="M25.5336 58.0464C25.4405 57.8594 25.1609 57.6725 25.1609 57.3921C24.9745 55.2421 24.695 53.0922 24.5086 51.0357C24.5086 50.8488 24.3222 50.6618 24.229 50.4749C23.3903 50.5684 23.4835 51.2227 23.4835 51.7835C23.3903 52.3444 23.3903 52.9052 23.2971 53.4661C23.2039 53.4661 23.1108 53.4661 23.0176 53.4661C22.8312 51.6901 22.5516 49.8206 22.3653 47.9511C22.8312 48.0445 23.1108 48.0445 23.2039 48.0445C22.8312 46.7359 22.5516 45.4272 22.1789 44.1186C21.9925 43.4642 21.8061 42.7164 21.4334 42.1556C21.0606 41.5947 21.0606 41.1274 21.4334 40.5665C21.9925 39.9122 22.4584 39.1644 22.9244 38.5101C23.1108 38.2296 23.2971 37.8557 23.5767 37.5753C23.4835 37.4818 23.4835 37.3884 23.3903 37.2949C22.738 37.5753 22.0857 37.7623 21.3402 38.0427C23.1108 34.2102 24.695 30.2842 25.6268 26.1713C25.6268 26.1713 25.5336 26.0779 25.4405 25.9844C24.229 30.4712 22.5516 34.6776 20.5015 38.884C21.3402 38.4166 22.0857 38.0427 22.738 37.6688C22.8312 37.7623 22.8312 37.8557 22.9244 37.9492C22.4584 38.6035 21.9925 39.1644 21.5266 39.8187C21.3402 40.0057 21.247 40.2861 21.0606 40.473C20.5947 41.2208 20.2219 41.8752 20.8742 42.8099C21.4334 43.8381 21.7129 45.0533 21.9925 46.175C22.0857 46.4555 21.8993 46.8294 21.8061 47.1098C21.8061 47.2967 21.7129 47.4837 21.7129 47.6706C21.8061 48.5119 21.8993 49.3532 21.9925 50.101C22.2721 51.6901 22.5516 53.1857 22.9244 54.7747C23.3903 56.5508 24.0426 58.3268 24.5086 60.1963C24.6018 60.3833 24.5086 60.6637 24.4154 60.8506C23.4835 62.4397 22.5516 64.1223 21.7129 65.7114C21.0606 66.8331 20.5015 68.0482 19.9424 69.2634C19.8492 69.4504 19.9424 69.6373 19.8492 69.9177C20.5015 69.6373 20.9674 69.4504 21.6197 69.1699C21.4334 69.9177 21.1538 70.4786 20.9674 71.1329C21.0606 71.2264 21.247 71.3199 21.3402 71.4133C21.5266 71.0394 21.7129 70.759 21.8993 70.3851C21.9925 70.3851 21.9925 70.3851 22.0857 70.3851C21.4334 74.9654 20.6879 79.5457 20.0356 84.0325C19.756 86.1824 19.4764 88.3324 19.29 90.4823C19.29 90.6692 19.6628 90.9497 19.8492 91.0431C20.0356 91.1366 20.3151 91.0431 20.6879 90.9497C20.5015 92.0714 20.2219 93.1931 20.1287 94.3148C19.9424 96.7451 19.9424 99.1755 19.5696 101.606C18.8241 106.186 18.8241 110.766 18.7309 115.347C18.7309 116.001 19.2901 116.094 19.3832 116.562C19.4764 117.403 19.756 118.244 19.8492 119.086C20.4083 122.17 20.8742 125.162 21.4334 128.246C21.9925 131.051 22.6448 133.855 23.2039 136.659C23.2039 136.846 23.2971 137.126 23.2971 137.313C22.8312 141.987 23.4835 146.567 24.0426 151.241C24.6018 155.635 25.9064 159.934 26.5587 164.234C27.211 167.973 27.677 171.806 27.3042 175.638C27.0247 178.069 26.7451 180.405 26.3723 182.929C27.4906 182.462 27.3042 181.434 27.3974 180.686C27.7702 178.442 28.0497 176.106 28.2361 173.862C28.3293 172.367 28.2361 170.871 28.2361 169.282C28.702 169.282 28.702 168.815 28.6088 168.254C27.3042 162.552 25.9996 156.85 24.8813 151.148C24.4154 148.904 24.229 146.474 24.0426 144.231C23.8563 142.735 23.7631 141.239 23.7631 139.744C23.8563 140.024 23.9495 140.305 24.0426 140.585C24.1358 140.585 24.229 140.585 24.4154 140.492C24.3222 139.183 24.229 137.781 23.9494 136.472C23.0176 131.237 21.9925 126.096 21.1538 120.768C20.7811 118.431 21.0606 116.001 20.9674 113.571C20.9674 113.103 20.9674 112.729 20.9674 112.262C20.7811 112.262 20.5947 112.262 20.2219 112.355C20.4083 110.393 20.5015 108.336 20.7811 106.373C21.1538 102.821 21.5266 99.1755 21.9925 95.6234C22.1789 94.0343 22.3653 92.5387 22.6448 90.9497C22.9244 89.5475 23.2971 88.1454 22.4584 86.7433C22.2721 86.8368 22.0857 86.9302 21.8061 86.9302C22.6448 80.1065 23.4835 73.3763 24.3222 66.5526C23.7631 66.6461 23.2039 66.8331 22.6448 66.9265C23.3903 65.057 24.1358 63.1875 24.8813 61.2245C25.0677 61.5984 25.1609 61.7854 25.3473 61.9723C25.9064 62.6267 26.5587 63.1875 27.0247 63.8419C28.8884 66.5526 31.2181 68.8895 34.0138 70.5721C36.4366 71.9742 39.1391 73.0024 41.7484 74.1241C43.2394 74.7785 44.6372 75.4328 46.1282 75.9936C47.0601 76.3675 48.0851 76.648 49.1102 76.9284C49.2966 78.1436 49.483 79.4522 49.7625 80.8543C47.992 80.9478 46.5941 81.7891 46.1282 83.7521C45.5691 85.715 46.035 87.4911 47.2464 89.0802C47.992 90.0149 49.3898 90.2953 50.3217 89.641C51.6263 88.7063 52.8377 87.5846 53.3037 85.9955C53.956 84.0325 53.49 82.9108 51.7195 81.6956C51.1603 81.3217 51.0672 81.0413 51.3467 80.387C51.6263 79.3587 51.8127 78.3305 52.0922 77.3958C52.1854 77.1153 52.465 76.9284 52.6514 76.8349C53.0241 76.7414 53.3969 76.648 53.8628 76.648C57.0312 76.8349 59.92 75.8067 62.7157 74.498C65.2317 73.3763 67.6546 72.0677 69.6116 70.0112C70.2639 69.3569 70.823 68.5156 71.3821 67.7678C71.5685 67.5809 71.7549 67.4874 71.9413 67.3939C72.5004 66.0853 73.1527 64.7766 73.805 63.4679C74.0846 62.9071 74.271 62.4397 73.7118 61.9723C73.3391 61.5984 73.3391 61.2245 73.7118 60.8506C75.0165 59.355 76.4143 57.766 77.6257 56.2704C78.2781 55.5226 78.744 54.5878 79.3031 53.653C79.0236 53.5596 78.744 53.4661 78.3712 53.2791C78.9304 51.5966 79.3963 49.914 79.9554 48.138C80.1418 48.2315 80.3282 48.4184 80.5146 48.5119C81.2601 48.138 81.4465 47.5772 81.1669 46.8294C80.8873 45.5207 80.6078 44.212 80.3282 42.8099C81.4465 42.0621 81.4465 41.9686 80.8873 40.7535C80.0486 38.6035 79.2099 36.4536 78.3712 34.3971C78.2781 34.0232 77.9985 33.7428 77.8121 33.4624C77.7189 33.5559 77.6257 33.5559 77.5326 33.6493C78.0917 35.7058 78.6508 37.6688 79.1168 39.7252C77.9053 40.5665 77.9053 40.5665 78.4644 41.9686C79.0236 43.2773 79.3963 44.6794 79.7691 45.8946C79.1168 46.175 78.5576 46.4555 77.9985 46.7359C77.1598 45.9881 76.1347 45.2403 75.1097 44.399C75.0165 44.4925 75.0165 44.4925 74.9233 44.5859C75.4824 45.1468 76.0415 45.6142 76.6007 46.175C77.1598 46.6424 77.7189 47.2033 78.2781 47.6706C78.1849 47.7641 78.1849 47.7641 78.0917 47.8576C76.7871 46.9228 75.4824 45.8946 74.1778 44.9598C74.0846 45.0533 74.0846 45.1468 73.9914 45.1468C74.4574 45.5207 74.9233 45.9881 75.3892 46.362C76.2279 47.0163 76.9734 47.5772 77.8121 48.2315C77.9985 48.325 78.0917 48.6989 77.9985 48.8858C77.1598 51.2227 76.3211 53.653 75.296 55.8965C74.6437 57.2051 73.4323 58.2333 72.5936 59.4485C72.1277 60.0094 71.9413 60.8506 71.5685 61.318C71.1026 61.8789 70.823 62.8136 69.7048 62.8136C69.5184 62.8136 69.4252 63.4679 69.2388 63.6549C68.7729 64.2157 68.3069 64.6831 67.7478 65.1505C68.8661 65.3374 69.332 64.1223 70.4503 63.9353C70.4503 65.057 70.4503 66.1787 70.4503 67.207C70.5435 67.207 70.6366 67.207 70.7298 67.207C70.7298 66.1787 70.7298 65.244 70.7298 64.2157C70.7298 63.5614 70.9162 63.094 71.6617 62.9071C71.6617 63.5614 71.5685 64.1223 71.6617 64.6831C71.9413 66.3657 71.0094 67.4874 69.798 68.3287C68.2138 69.4504 66.5364 70.5721 64.859 71.5068C60.8519 73.7502 56.5653 74.5915 51.999 74.2176C51.999 74.0306 51.999 73.7502 51.999 73.5633C51.7195 71.9742 51.4399 70.3851 51.1603 68.796C51.0672 69.0765 50.974 69.3569 50.974 69.6373C51.0672 71.0394 51.2535 72.3481 51.4399 73.7502C51.5331 74.3111 51.3467 74.5915 50.7876 74.498C50.2285 74.498 49.5762 74.498 48.9238 74.498C49.017 72.722 49.2034 71.0394 49.2966 69.4504C49.2966 69.3569 49.483 69.1699 49.5762 69.1699C50.1353 69.0765 50.6944 68.983 51.2535 68.8895C51.4399 68.796 51.7195 68.6091 51.9059 68.6091C53.1173 68.4221 54.3287 68.3287 55.5402 68.2352C55.5402 68.4221 55.6334 68.796 55.7266 69.4504C56.6584 68.5156 57.4971 67.7678 58.1495 67.1135C60.4792 68.0482 62.1565 66.833 63.8339 65.6179C63.8339 66.0852 63.9271 66.5526 64.0203 67.3004C64.5794 66.9265 64.9522 66.7396 65.3249 66.5526C64.859 66.6461 64.5794 66.4592 64.5794 65.9918C64.5794 65.5244 64.5794 65.057 64.6726 64.4027C64.2999 64.7766 63.9271 64.9636 63.6475 65.3375C62.7157 66.4592 61.5042 66.7396 60.1064 66.9265C59.8268 66.9265 59.4541 66.8331 59.2677 66.6461C58.7086 65.9918 58.0563 66.0853 57.3108 66.3657C58.0563 67.207 57.2176 67.4874 56.7516 67.9548C56.7516 67.5809 56.6584 67.207 56.6584 66.6461C56.0061 66.9265 55.447 67.207 54.8879 67.3939C53.5832 67.7678 52.1854 68.2352 50.7876 68.4221C49.9489 68.5156 48.9238 68.3287 48.0852 68.0482C46.9669 67.6743 46.035 67.02 44.9167 66.6461C43.7053 66.2722 42.4007 65.9918 41.0961 65.7114C40.6301 65.6179 40.071 65.8983 39.3255 66.0852C40.5369 66.4591 41.4688 66.8331 42.4007 67.207C42.5871 67.3004 42.7734 67.3939 42.9598 67.4874C43.4258 67.6743 44.0781 68.0482 44.4508 67.8613C45.5691 67.3939 46.4078 67.8613 47.2464 68.4221C47.7124 68.7026 48.2715 68.8895 48.7375 69.1699C48.6443 70.3851 48.4579 71.6938 48.2715 73.1894C47.992 72.1611 47.7124 71.2264 47.4328 70.2916C47.3396 70.2916 47.2465 70.1982 47.1533 70.1982C46.9669 70.5721 46.6873 70.8525 46.5941 71.2264C46.4078 72.0677 46.3146 73.0024 46.2214 74.1241C45.0099 73.6567 44.0781 73.1894 43.053 72.8155C41.6552 72.1611 40.3505 71.6003 38.9527 70.8525C37.7413 70.1982 36.5298 69.5438 35.4116 68.796C33.7342 67.8613 32.0568 66.8331 30.3794 65.8983C29.0748 65.244 28.0497 64.3092 27.3974 63.0006C27.211 62.6267 27.211 62.0658 27.3042 61.5984C27.5838 59.542 27.9565 57.4855 28.2361 55.4291C28.2361 55.3356 28.0497 55.2421 27.9565 55.1486C27.8633 55.803 27.677 56.3638 27.5838 57.0182C27.3042 58.7007 27.1178 60.3833 26.8383 62.1593C25.9064 60.6637 25.3473 59.542 25.5336 58.0464ZM46.9669 84.7803C47.0601 84.0325 47.1533 83.5651 47.2464 83.1912C47.4328 82.5369 49.2034 81.976 49.5762 82.4434C50.508 83.3782 51.3467 84.3129 52.2786 85.2477C52.3718 85.4346 52.5582 85.6216 52.5582 85.8085C52.8377 87.0237 52.1854 88.1454 50.8808 88.5193C49.483 88.9867 48.1783 88.6128 47.8056 87.4911C47.4328 86.5563 47.1533 85.5281 46.9669 84.7803ZM51.0672 80.9478C50.8808 80.9478 50.7876 80.9478 50.6012 80.9478C50.3217 79.7326 50.0421 78.424 49.7625 77.1153C50.6012 77.1153 51.0672 77.1153 51.8127 77.1153C51.5331 78.5175 51.2535 79.7326 51.0672 80.9478ZM72.8732 65.7114C72.78 65.7114 72.5936 65.6179 72.5004 65.6179C72.78 64.4962 71.9413 63.094 73.2459 62.1593C73.3391 62.1593 73.4323 62.1593 73.4323 62.2528C73.6187 62.5332 73.9914 62.8136 74.0846 63.1875C74.1778 63.7484 73.7119 63.4679 73.4323 63.4679C73.4323 63.4679 73.2459 63.7484 73.2459 63.8419C73.0595 64.4962 72.9663 65.1505 72.8732 65.7114ZM48.4579 74.8719C47.8988 74.7784 47.526 74.685 47.1533 74.5915C47.4328 74.0306 47.6192 73.5633 47.8988 72.9089C48.0851 73.5633 48.2715 74.1241 48.4579 74.8719Z" fill="black"/>
<path d="M167.645 163.769C166.807 164.049 166.9 164.61 166.993 165.171C167.366 166.386 167.738 167.508 168.018 168.723C168.67 170.966 168.577 173.397 168.67 175.733C168.764 177.696 168.857 179.659 169.043 181.622C169.136 183.211 169.323 184.707 169.509 186.296C169.509 186.67 169.602 186.95 169.882 187.324C169.975 186.95 170.161 186.577 170.161 186.109C170.068 183.959 169.882 181.903 169.789 179.753C169.695 177.603 169.509 175.547 169.509 173.397C169.509 170.686 168.857 168.069 168.018 165.545C167.925 165.358 167.832 165.077 167.738 164.703C168.391 164.984 168.67 165.919 169.509 164.984C168.857 164.143 168.204 163.208 167.552 162.367C165.968 160.31 164.943 157.973 163.825 155.636C162.986 153.954 163.265 152.365 163.359 150.682C163.359 149.467 163.452 148.158 163.452 146.943C163.452 145.261 163.452 143.485 163.452 141.708C163.545 141.895 163.638 142.082 163.825 142.176C164.011 142.269 164.384 142.363 164.57 142.269C164.663 142.176 164.85 141.895 164.756 141.708C164.197 138.25 163.545 134.885 162.986 131.426C162.706 129.837 162.427 128.155 162.334 126.472C162.334 123.574 162.24 120.677 162.706 117.779C163.172 115.068 162.334 112.731 161.495 110.301C161.122 109.366 160.749 108.431 160.563 107.403C160.47 106.749 160.656 106.094 160.656 105.44C160.656 104.879 160.749 104.225 160.47 103.758C159.445 102.168 158.326 100.673 157.208 99.1772C157.022 98.9903 156.835 98.7099 156.556 98.4295C157.767 98.6164 158.699 98.8034 160.004 98.9903C160.377 98.8034 160.377 98.336 159.911 97.8686C159.724 97.6816 159.538 97.4947 159.258 97.3077C156.183 95.2513 153.108 93.1014 150.033 91.0449C150.033 91.0449 149.94 90.9514 149.753 90.671C150.499 90.858 150.965 90.9514 151.524 91.1384C152.735 91.4188 152.828 91.4188 153.667 90.2036C152.549 89.5493 151.431 89.0819 150.406 88.3341C147.051 85.9038 144.255 82.9126 141.553 79.7344C139.782 77.5845 138.012 75.3411 136.241 73.0977C135.589 73.4716 135.961 73.9389 136.241 74.4063C136.986 75.715 137.732 77.1171 138.664 78.3323C141.273 81.9778 143.976 85.6233 147.33 88.8015C146.398 88.8015 145.467 88.708 145.187 89.8297C149.101 92.447 153.015 94.9709 156.835 97.5882C156.835 97.6816 156.742 97.7751 156.742 97.8686C156.463 97.9621 156.276 97.9621 155.997 98.0555C155.81 98.149 155.624 98.4294 155.344 98.7099C156.463 100.112 157.488 101.514 158.513 102.916C158.886 103.477 159.352 104.038 159.538 104.692C159.724 105.16 159.538 105.721 159.538 106.281C159.538 107.029 159.445 107.777 159.631 108.525C160.004 109.927 160.47 111.329 161.029 112.731C161.868 114.881 161.961 117.124 161.495 119.368C161.309 120.49 161.402 121.611 161.309 122.733C161.122 125.07 161.495 127.313 161.681 129.65C161.868 131.987 162.24 134.324 162.52 136.567C162.706 137.783 162.893 138.998 163.079 140.306C162.147 140.4 162.054 141.054 162.054 141.802C162.147 145.447 161.961 149.187 162.334 152.832C162.706 156.384 164.104 159.749 166.247 162.647C167.086 162.927 167.366 163.301 167.645 163.769Z" fill="black"/>
<path d="M120.678 131.334C120.772 132.456 120.865 133.578 120.958 134.699C120.865 134.699 120.865 134.793 120.772 134.793C120.212 134.045 119.747 133.297 119.187 132.549C118.721 131.895 118.535 130.867 117.51 130.773C117.696 131.054 117.976 131.428 118.162 131.708C118.908 132.83 119.56 134.045 120.399 135.073C120.585 135.354 121.144 135.354 121.517 135.541C121.61 135.167 121.704 134.886 121.704 134.512C121.704 134.045 121.61 133.671 121.797 133.204C122.263 134.139 122.729 134.98 123.101 135.915C123.474 136.756 123.94 137.317 124.965 137.223C126.363 137.13 127.574 137.691 128.599 138.532C130.743 140.308 133.072 141.99 135.123 143.953C137.825 146.664 140.248 149.655 142.764 152.46C143.416 153.208 144.162 153.955 144.814 154.703C144.721 154.703 144.628 154.797 144.628 154.797C144.814 155.17 144.814 155.731 145.094 156.012C146.771 157.788 148.542 159.377 150.033 161.246C152.642 164.518 155.81 167.322 157.767 171.061C158.42 172.276 159.072 173.585 159.445 174.894C160.19 177.978 160.656 181.063 161.215 184.241C161.308 184.148 161.402 184.054 161.495 184.054C161.774 184.428 162.054 184.802 162.24 185.176C162.333 185.176 162.52 185.083 162.613 185.083C162.52 183.68 162.427 182.278 162.24 180.97C161.681 177.418 160.656 173.866 160.842 170.22C160.936 168.631 160.842 167.042 160.842 165.453C160.563 165.453 160.563 165.453 159.631 167.229C159.445 166.855 159.258 166.481 159.258 166.201C158.699 163.396 157.208 161.059 155.531 158.909C153.76 158.255 153.108 156.479 151.71 155.451C152.083 156.292 152.549 157.133 153.015 157.975C153.108 158.162 153.294 158.442 153.481 158.536C155.624 159.47 156.463 161.527 157.395 163.396C157.954 164.518 158.326 165.733 158.699 166.948C158.886 167.696 159.165 168.07 160.097 167.509C160.19 169.098 160.283 170.594 160.377 172.276C157.208 165.546 151.43 160.966 146.771 155.638C146.957 155.357 147.144 155.077 147.237 154.797C143.137 150.123 139.409 145.169 134.657 141.149C132.793 139.654 130.836 138.158 128.879 136.849C128.04 136.382 126.922 136.102 125.99 136.102C124.872 136.195 124.22 135.728 123.754 134.98C123.101 133.952 122.542 132.83 121.89 131.708C121.704 131.428 121.331 131.334 121.051 131.054C120.772 131.147 120.678 131.241 120.678 131.334Z" fill="black"/>
<path d="M77.7188 66.0867C80.4213 66.6476 83.2169 66.928 85.733 67.8628C87.224 68.4236 88.6218 67.9562 90.1128 68.3301C89.8333 68.6106 89.5537 68.7975 89.2741 69.0779C89.2741 69.1714 89.3673 69.2649 89.3673 69.2649C89.6469 69.2649 89.8333 69.1714 90.1128 69.0779C91.4174 68.704 92.7221 68.3301 94.0267 67.8628C94.679 67.6758 95.145 67.7693 95.6109 68.5171C96.8224 70.2931 98.127 72.0691 100.27 72.63C102.041 73.0974 103.998 73.2843 105.768 73.4713C106.7 73.7517 107.632 73.7517 108.471 73.8452C109.216 73.9387 109.775 73.7517 110.241 73.1909C110.428 72.9104 110.987 72.63 111.266 72.7235C112.758 72.817 114.155 73.0039 115.646 73.2843C116.299 73.3778 116.765 73.7517 117.417 73.0974C117.976 72.443 117.603 71.9757 117.51 71.4148C117.696 71.6018 117.883 71.7887 118.162 71.9757C119.001 72.7235 119.653 72.5365 120.026 71.5083C120.119 71.3213 119.933 70.854 119.653 70.7605C118.162 69.9192 118.162 68.3301 117.696 67.0215C117.324 65.8063 118.349 65.5259 119.281 65.8063C119.56 65.8998 119.84 66.0867 120.119 66.1802C121.61 67.115 123.008 67.0215 124.406 65.4324C122.449 65.152 120.585 64.965 118.628 64.6846C119.281 63.9368 120.026 63.189 120.772 62.2542C119.56 62.2542 119.094 63.376 118.069 63.8433C119.001 62.5347 119.84 61.1325 120.772 59.8239C120.678 59.7304 120.585 59.6369 120.492 59.5435C119.84 60.2913 119.281 60.9456 118.628 61.6934C118.162 62.2542 117.883 63.0021 117.044 63.189C116.765 63.2825 116.485 63.7499 116.485 64.0303C116.299 65.2455 116.112 66.4606 116.112 67.5823C116.299 67.9562 116.578 68.3301 116.765 68.7975C116.671 68.7975 116.671 68.891 116.578 68.891C115.367 67.6758 114.062 66.4606 112.851 65.152C112.758 65.2455 112.664 65.3389 112.664 65.3389C113.689 66.4606 114.714 67.4889 115.646 68.6106C114.808 68.891 114.155 68.5171 113.596 68.0497C112.851 67.4889 112.012 67.115 111.173 66.8345C112.198 67.5823 113.223 68.3301 114.342 69.1714C113.317 70.1996 114.621 70.4801 114.808 71.1344C113.596 71.1344 112.385 71.1344 111.266 71.1344C110.801 71.1344 110.241 71.3213 109.962 71.6018C109.496 72.0691 109.03 72.2561 108.471 72.0691C106.141 71.6018 103.811 71.3213 101.575 70.7605C100.643 70.5735 99.618 69.9192 99.0589 69.1714C97.661 67.4889 96.5428 65.7128 95.2382 63.9368C95.3313 63.8433 95.3313 63.7499 95.4245 63.7499C95.2382 63.8433 95.0518 63.9368 94.7722 64.1238C94.5858 63.6564 94.2131 63.2825 94.7722 62.7216C94.8654 62.6281 94.8654 62.2543 94.7722 62.0673C94.679 60.8521 94.3995 59.7304 94.3063 58.5152C94.1199 56.7392 93.9335 54.9632 93.9335 53.1872C94.0267 51.0372 94.2131 48.8873 94.5858 46.7374C94.8654 45.0548 95.6109 43.5592 97.1019 42.4375C96.17 42.7179 94.8654 44.0266 94.4927 45.1483C93.8403 47.0178 93.3744 48.7938 93.2812 50.8503C93.188 53.935 93.0016 57.1131 92.9085 60.1978C92.9085 61.8804 93.0016 63.5629 93.0948 65.2455C93.0948 65.6194 93.2812 65.8998 93.3744 66.2737C93.654 66.1802 94.0267 66.0867 94.3995 65.8998C94.4927 66.1802 94.5858 66.4606 94.7722 66.8345C92.7221 66.8345 90.7651 66.8345 88.8082 66.8345C89.0878 65.9933 88.6218 65.9933 88.0627 65.8998C86.2921 65.7128 84.4283 65.5259 82.6578 65.3389C81.4463 65.152 80.2349 64.7781 79.0234 64.5911C78.0916 64.4042 77.812 64.6846 77.7188 65.7128C77.6256 65.9933 77.6256 65.9933 77.7188 66.0867Z" fill="black"/>
<path d="M83.2169 133.39C83.6829 133.483 84.1488 133.577 84.242 133.483C84.4284 133.109 84.8011 132.548 84.6147 132.268C83.4965 129.744 82.285 127.22 81.0736 124.79C80.9804 124.51 80.9804 123.949 80.4213 124.323C80.3281 124.136 80.1417 123.949 80.0485 123.762C79.769 123.388 79.5826 122.921 79.303 122.453C79.2098 122.453 79.1166 122.453 79.0235 122.453C79.0235 122.734 78.8371 123.107 78.9303 123.294C80.0485 125.725 81.1668 128.062 82.285 130.585C81.6327 130.772 81.7259 131.24 81.7259 131.894C81.9123 133.577 81.9123 135.353 82.0055 137.035C82.0987 140.12 82.285 143.298 82.285 146.383C82.285 148.065 82.0055 149.748 81.9123 151.43C81.7259 154.141 81.5395 156.852 81.26 159.656C81.1668 160.404 81.1668 161.245 80.8872 161.993C80.2349 163.863 80.6076 165.826 80.5145 167.789C80.4213 171.808 80.4213 175.827 80.3281 179.94C80.3281 181.997 80.2349 184.053 80.1417 186.11C80.0485 187.886 79.8621 189.662 79.5826 191.438C79.4894 192.092 79.303 192.56 80.1417 192.56C79.6758 193.588 79.1166 194.523 78.6507 195.457C78.7439 195.551 78.8371 195.551 78.9303 195.644C80.1417 194.803 80.8872 193.588 81.5395 192.186C81.1668 192.092 80.794 191.999 80.5145 191.812C80.6076 191.064 80.794 190.316 80.7008 189.568C80.4213 187.231 81.4463 185.082 81.6327 182.838C81.7259 181.156 82.0055 179.38 82.0987 177.697C82.1918 173.584 82.1918 169.378 82.1918 165.265C82.1918 164.984 82.4714 164.704 82.5646 164.424C82.6578 164.143 82.9373 163.863 82.9373 163.582C82.9373 159.843 82.751 156.104 83.4965 152.365C83.776 150.776 83.6829 149.187 83.6829 147.598C83.6829 145.728 83.5897 143.952 83.4965 142.083C83.4965 139.092 83.3101 136.194 83.2169 133.39Z" fill="black"/>
<path d="M37.5547 189.195C38.3934 189.195 38.673 188.821 38.673 187.886C38.673 185.737 38.673 183.587 38.8594 181.53C39.1389 179.474 39.1389 177.511 38.7662 175.454C38.7662 175.267 38.7662 175.08 38.7662 174.893C38.7662 174.8 38.7662 174.706 38.8594 174.239C39.1389 174.987 39.3253 175.454 39.6049 176.015C39.7913 175.922 40.164 175.828 40.164 175.735C40.2572 175.174 40.3504 174.52 40.2572 173.959C40.164 171.809 39.9776 169.565 39.7912 167.415C39.7912 167.322 39.7913 167.135 39.8844 167.042C40.8163 166.481 40.5368 165.452 40.5368 164.705C40.5368 162.087 40.4436 159.47 40.3504 156.853C40.3504 156.198 40.2572 155.544 40.2572 154.89C40.2572 154.142 39.7913 153.394 40.6299 152.74C40.8163 152.646 40.7231 152.179 40.7231 151.899C40.0708 148.066 40.5368 144.14 40.7231 140.308V140.214C40.164 136.942 41.7482 134.045 42.5869 131.054C42.6801 130.773 42.7733 130.399 42.8665 130.119C42.7733 130.025 42.6801 130.025 42.5869 129.932C42.0278 130.586 41.4686 131.147 40.9095 131.801C40.9095 131.427 40.9095 131.054 40.9095 130.493C40.5367 130.867 40.3504 131.054 40.0708 131.334C39.8844 130.68 39.6981 129.932 39.4185 129.184C38.9526 129.464 38.5798 129.745 38.1139 130.119C38.1139 129.091 38.1139 128.062 38.1139 127.128C38.0207 127.034 37.9275 127.034 37.8343 126.941C37.3684 127.408 36.8092 127.782 36.1569 128.436C35.5978 127.408 35.1318 126.38 34.6659 125.352C34.0136 126.286 34.3863 128.343 35.3182 128.81C35.5978 128.904 35.9705 128.81 36.2501 128.717C36.6229 128.53 36.9956 128.249 37.5547 127.969C37.5547 129.278 37.5547 130.493 37.5547 131.801C37.6479 131.801 37.7411 131.895 37.8343 131.895C38.0207 131.521 38.1139 131.147 38.3934 130.399C38.5798 131.521 38.8594 132.362 38.8594 133.297C38.9526 138.532 38.8594 143.766 38.8594 148.907C38.8594 149.188 38.5798 149.468 38.5798 149.749C38.4866 150.216 38.3002 150.683 38.3002 151.151C38.5798 153.768 38.8594 156.385 39.1389 159.003C39.2321 160.031 39.1389 161.153 39.1389 162.274C39.1389 162.461 39.0457 162.835 38.9526 162.929C37.7411 163.676 38.2071 164.798 38.3002 165.826C38.3934 167.696 38.4866 169.659 38.673 171.528C38.673 171.715 38.673 172.089 38.5798 172.089C37.4615 172.65 37.5547 173.678 37.8343 174.52C38.8594 177.978 38.3934 181.437 38.2071 184.895C38.1139 185.924 38.2071 186.952 38.2071 187.98C37.8343 188.447 37.6479 188.821 37.5547 189.195Z" fill="black"/>
<path d="M60.1063 53.2819C59.9199 53.4689 59.1744 54.0297 58.3357 54.3102C56.2856 54.6841 55.6333 54.4037 53.7695 54.1232C52.5581 53.9363 51.3466 53.3754 49.7624 52.4407C48.7374 51.7863 48.551 51.7863 47.4327 51.132C47.06 51.0385 46.6872 50.6646 46.4077 50.9451C49.1101 53.0015 51.1603 54.3102 54.2355 55.8058C56.0992 56.3666 57.5902 56.0862 58.2426 55.7123C59.0812 55.2449 60.0131 54.4037 61.0382 54.3102C62.0633 54.2167 64.2998 56.1797 65.0453 55.9927C65.6044 55.8058 65.884 55.8058 66.0703 55.5254C67.0022 54.871 66.5363 55.1515 67.375 54.4037C67.6545 54.1232 67.5614 53.5624 67.6545 53.095C66.7227 54.4037 65.6044 55.1515 63.927 54.6841C62.436 54.2167 61.4109 52.8146 61.5973 51.4124C62.8088 50.8516 64.2066 50.6646 65.1385 49.8234C65.9772 49.0756 66.3499 47.7669 66.8158 46.6452C66.8158 46.5517 66.8158 46.4583 66.8158 46.3648C67.1886 44.4018 66.5363 43.4671 64.5793 43.3736C62.9951 43.2801 61.4109 43.3736 59.8267 43.3736C59.454 43.3736 58.9881 43.5605 58.6153 43.7475C57.7766 44.1214 57.2175 44.6822 57.5902 45.8039C58.0562 47.1126 58.2426 48.4212 58.8017 49.6364C59.1744 50.2907 60.1995 50.5712 60.5723 51.2255C61.2246 51.5994 60.1063 53.2819 60.1063 53.2819Z" fill="black"/>
<path d="M69.1455 196.205C68.3068 196.205 67.4681 196.112 66.7226 196.112C66.7226 194.055 67.0022 192.092 68.5864 192.279C68.4 191.625 67.8408 191.531 67.5613 192.092C67.0953 193.027 66.8158 194.055 66.443 194.99C66.3498 195.27 66.443 195.551 66.3498 195.925C64.6725 195.551 62.9951 195.364 62.0632 193.681C61.5973 192.933 61.6904 192.279 62.3428 191.718C63.5542 190.69 64.952 190.036 66.5362 189.942C66.909 189.942 67.2817 189.942 67.7477 189.849C67.1885 188.82 66.2567 189.381 65.6043 188.914C65.5112 188.54 65.3248 188.073 65.418 187.605C65.5111 186.764 65.6975 185.923 65.7907 185.175C65.8839 182.464 65.8839 179.753 65.9771 177.043C66.0703 171.808 66.1635 166.573 66.3498 161.339C66.3498 161.058 66.7226 160.591 67.0022 160.497C67.934 160.217 68.0272 159.656 67.7477 158.908C66.8158 155.543 65.8839 152.272 65.1384 148.907C64.6725 146.476 63.7406 144.233 62.8087 142.083C62.6223 141.709 62.4359 141.429 62.2496 141.148C61.8768 140.681 61.5041 140.587 61.1313 141.148C62.3428 142.924 62.5291 144.981 62.9951 147.037C63.6474 150.122 64.2997 153.3 64.952 156.385C65.0452 156.758 65.1384 157.132 65.1384 157.506C64.1133 157.506 64.0201 158.067 64.1133 158.908C64.6725 163.863 64.952 168.817 64.7656 173.771C64.6725 176.575 64.952 179.473 64.952 182.277C64.952 183.96 64.6725 185.549 64.5793 187.231C64.5793 187.699 64.4861 188.166 64.3929 188.82C64.6725 188.727 64.8588 188.727 65.0452 188.634C65.1384 188.727 65.1384 188.727 65.2316 188.82C65.0452 189.007 64.8588 189.288 64.5793 189.475C63.8338 190.036 62.9019 190.316 62.2496 190.97C60.1062 193.12 61.2245 195.644 63.461 196.485C66.1635 197.514 68.8659 197.794 71.6616 197.14C73.8981 196.579 76.1346 196.018 78.3711 195.457C78.0915 194.522 77.346 194.242 76.5073 194.709C74.2708 195.831 71.8479 196.018 69.425 196.298C69.3319 196.298 69.2387 196.298 69.1455 196.205C68.9591 194.522 70.7297 192.092 72.2207 192.092C71.9411 191.438 71.8479 191.344 71.1956 191.812C69.7978 192.84 69.0523 194.242 68.7727 195.925C69.2387 195.925 69.1455 196.018 69.1455 196.205Z" fill="black"/>
<path d="M124.22 41.8763C127.295 44.587 130.09 47.2044 132.234 50.5695C131.861 50.5695 131.581 50.5695 131.302 50.5695C131.115 52.3455 132.141 53.5607 133.072 54.9628C133.632 54.4954 134.097 54.028 134.75 53.3737C134.47 55.2432 134.191 56.8323 133.911 58.5149C134.004 58.6083 134.097 58.6083 134.097 58.7018C134.843 58.2344 135.495 57.7671 136.334 57.2062C136.614 60.1039 135.309 62.4408 134.191 64.9647C134.284 65.0581 134.284 65.0581 134.377 65.1516C135.216 64.7777 136.054 64.4038 136.986 63.9364C136.707 66.4603 134.75 67.8624 133.445 69.7319C135.029 69.0776 136.52 68.5167 138.291 67.7689C136.986 69.7319 135.868 71.4144 134.75 73.097C134.843 73.2839 135.029 73.3774 135.216 73.6579C136.8 71.321 138.477 68.9841 140.062 66.6472C140.062 66.5537 139.968 66.5537 139.968 66.4603C138.757 66.8342 137.639 67.2081 136.427 67.582C137.452 65.7125 138.384 63.843 139.316 61.9734L139.223 61.88C138.291 62.4408 137.359 62.9082 136.241 63.656C137.359 60.6648 138.198 57.8605 138.291 54.8693C137.452 55.3367 136.614 55.8041 135.682 56.3649C135.868 55.2432 136.148 54.1215 136.241 53.0933C136.427 52.0651 136.427 50.9434 136.054 49.9151C135.309 49.8217 135.029 50.9434 134.284 50.3825C134.191 50.3825 133.818 50.9434 133.538 51.2238C131.395 47.2978 128.133 44.2131 124.592 41.2219C124.406 41.1285 124.22 40.848 124.033 40.848C123.754 40.848 123.474 40.848 123.288 41.035C123.194 41.1285 123.194 41.4089 123.194 41.5958C123.288 41.9697 123.474 42.2502 123.66 42.811C122.729 42.1567 121.89 41.5024 121.051 41.035C118.349 39.259 115.18 38.3242 112.105 37.3895C111.826 37.296 111.546 37.4829 111.173 37.4829C111.173 37.5764 111.08 37.6699 111.08 37.7634C111.546 38.0438 111.919 38.4177 112.385 38.6981C112.291 38.6981 112.291 38.7916 112.198 38.7916C108.75 38.5112 105.302 38.2307 101.854 37.9503C101.389 37.9503 100.923 37.9503 100.457 38.0438C98.5929 38.3242 98.2201 39.259 99.2452 40.9415C99.152 41.1285 98.9656 41.3154 98.7792 41.5024L98.8724 41.5958C99.152 41.3154 99.4316 41.1285 99.7111 40.848C99.7111 40.7546 99.7111 40.6611 99.7111 40.5676C98.8724 38.6046 99.152 38.2307 101.109 38.3242C104.743 38.6046 108.284 38.9785 111.919 39.4459C112.291 39.4459 112.571 39.7263 112.944 39.8198C113.223 39.9133 113.596 39.8198 114.155 39.8198C113.596 39.259 113.317 38.8851 112.757 38.2307C113.223 38.3242 113.503 38.4177 113.689 38.5112C116.951 39.5394 120.026 40.9415 122.729 43.1849C123.008 43.4653 123.288 43.8392 123.66 44.0262C123.847 44.1197 124.126 44.3066 124.313 44.2131C124.499 44.1197 124.592 43.8392 124.592 43.6523C124.592 42.998 124.406 42.5306 124.22 41.8763Z" fill="black"/>
<path d="M121.424 144.139C119.84 143.018 118.535 141.896 117.044 140.868C115.646 139.839 114.248 138.811 112.478 138.437C113.876 139.372 115.18 140.307 116.578 141.242C117.79 142.083 118.908 143.111 120.213 143.765C121.331 144.326 121.61 145.168 121.704 146.196C121.704 146.476 121.61 147.037 121.331 147.224C120.585 147.878 120.492 148.533 120.865 149.374C122.822 153.206 124.686 157.132 126.736 160.965C127.295 161.993 126.829 162.928 126.736 163.863C126.456 166.386 126.363 168.817 126.642 171.341C126.922 173.958 127.295 176.669 127.574 179.286C127.574 179.473 127.761 179.66 127.947 179.753C128.227 175.267 126.922 170.967 127.015 166.386C127.481 168.256 127.854 169.938 128.227 171.715C128.32 171.715 128.506 171.715 128.599 171.715C128.693 171.434 128.879 171.154 128.879 170.873C128.786 169.097 128.599 167.415 128.506 165.639C128.413 164.704 128.506 163.769 128.506 162.741C128.506 162.087 128.413 161.432 129.159 160.965C129.345 160.871 129.345 160.311 129.159 160.124C128.786 159.376 128.227 158.721 127.761 157.974C126.27 155.45 124.686 152.833 123.195 150.215C123.381 150.122 123.474 150.028 123.66 149.935C124.965 149.187 124.872 149.094 124.126 147.878C123.474 146.663 123.008 145.261 122.822 143.859C122.542 141.615 122.542 139.279 122.449 136.942C122.449 136.568 122.356 136.194 122.356 135.727C122.263 135.727 122.076 135.727 121.983 135.727C121.61 137.783 121.144 139.839 120.772 141.896C118.815 140.307 116.951 138.344 114.435 137.222C114.342 137.316 114.342 137.409 114.248 137.503C114.528 137.69 114.808 137.876 115.087 138.063C117.044 139.559 119.001 141.148 120.865 142.737C121.238 142.831 121.238 143.485 121.424 144.139Z" fill="black"/>
<path d="M144.069 190.784C142.857 190.41 141.739 190.036 140.527 189.849C135.682 188.821 130.836 187.7 125.897 186.671C125.151 186.484 124.313 186.484 123.567 186.484C123.101 186.484 122.729 186.671 122.263 186.858C122.263 187.045 122.263 187.139 122.263 187.326C126.456 189.476 130.65 191.626 134.936 193.869V193.962C133.352 193.495 131.768 193.028 130.184 192.654C128.786 192.28 127.481 191.999 126.083 191.719C125.804 191.626 125.338 191.532 125.058 191.719C124.592 191.906 124.126 192.186 123.847 192.654C123.754 192.841 124.126 193.402 124.406 193.682C124.872 194.149 125.431 194.617 126.177 195.178C124.872 195.178 123.754 195.178 122.635 195.178C122.635 195.271 122.635 195.271 122.635 195.365C124.033 195.645 125.338 196.112 126.736 196.206C127.202 196.299 127.668 195.738 128.133 195.458C128.227 195.365 128.04 194.804 127.854 194.617C127.202 194.056 126.456 193.495 125.617 192.747C125.99 192.747 126.27 192.747 126.456 192.841C130.09 193.869 133.725 194.897 137.359 195.925C137.825 196.019 138.384 196.299 138.757 196.206C139.223 196.112 139.596 195.738 139.968 195.458C139.689 195.178 139.502 194.804 139.13 194.71C137.173 193.775 135.309 192.841 133.352 191.812C130.556 190.41 127.854 189.102 125.058 187.606C131.488 188.447 137.732 190.036 143.975 191.345C143.975 191.065 144.069 190.878 144.069 190.784Z" fill="black"/>
<path d="M99.8044 129.371C99.8044 129.558 99.7112 129.745 99.7112 129.932C99.9908 136.475 100.55 143.018 103.532 149.281C103.905 148.814 104.184 148.534 104.371 148.347C106.328 151.151 108.471 154.236 110.614 157.133C111.639 158.535 112.944 159.751 114.155 160.872C115.74 162.274 116.299 164.05 116.485 166.107C116.765 168.818 117.231 171.528 118.256 174.052C118.349 174.333 118.442 174.613 118.815 174.894C118.815 174.52 118.908 174.146 118.815 173.772C118.162 170.5 117.51 167.135 116.951 163.863C116.671 162.461 115.926 161.527 114.901 160.685C112.292 158.348 109.869 155.825 108.098 152.74C108.098 152.646 108.098 152.646 108.005 152.553C106.328 150.87 105.768 148.534 104.837 146.571C102.88 142.738 101.855 138.625 100.923 134.606C100.643 133.484 100.736 132.269 100.55 131.147C100.457 130.586 100.27 130.025 100.084 129.558C100.084 129.371 99.9908 129.371 99.8044 129.371ZM102.041 141.523C102.134 141.523 102.134 141.523 102.227 141.429C102.6 142.551 102.973 143.673 103.346 144.795C103.252 144.795 103.159 144.888 103.066 144.888C102.693 143.766 102.414 142.645 102.041 141.523Z" fill="black"/>
<path d="M39.698 9.90827C39.3253 9.72131 38.8594 9.53436 38.4866 9.34741C38.4866 9.44089 38.3934 9.44089 38.3934 9.53436C38.8593 9.90827 39.3253 10.1887 39.7912 10.6561C40.164 11.03 40.5367 11.4973 40.9095 11.9647C40.8163 12.0582 40.8163 12.0582 40.7231 12.1517C40.3504 11.8712 39.9776 11.6843 39.6049 11.4039C39.6049 11.4973 39.5117 11.4973 39.5117 11.5908C40.0708 12.1517 40.7231 12.7125 41.2822 13.2734C41.3754 13.3668 41.7482 13.1799 42.0277 13.1799C42.0277 14.8625 41.5618 16.4515 40.3504 17.8537C40.4435 17.9471 40.5367 18.0406 40.6299 18.0406C41.7482 17.0124 42.9596 15.8907 44.0779 14.8625C43.9847 14.769 43.9847 14.769 43.8915 14.6755C43.4256 15.1429 42.9596 15.5168 42.4937 15.9842C42.8664 14.3951 43.2392 12.7125 43.6119 11.03C43.146 11.1234 42.8664 11.2169 42.4937 11.3104C41.9346 8.13224 39.5117 6.07578 37.3683 4.01932C35.8773 2.6172 34.1068 1.58897 32.243 0.560741C30.4724 -0.374011 29.0746 0.0933649 28.0495 1.86939C27.3972 2.9911 27.0245 4.29975 26.7449 5.51493C26.279 8.22571 25.9062 11.03 25.5335 13.8342C25.3471 15.3298 25.4403 16.8254 25.3471 18.321C25.3471 18.7884 25.1607 19.1623 25.0675 19.6297C24.9743 19.9101 24.8811 20.284 24.8811 20.5644C24.8811 22.1535 24.8811 23.7426 24.8811 25.2382C25.0675 25.2382 25.1607 25.3317 25.3471 25.3317C25.4403 25.1447 25.6267 24.9578 25.6267 24.7708C25.6267 23.7426 25.3471 22.7144 25.7198 21.8731C26.3722 20.3775 26.279 18.8819 26.1858 17.3863C25.9994 13.6473 26.7449 10.0017 27.3972 6.44968C27.5836 5.14103 27.77 3.7389 28.3291 2.52372C29.261 0.467266 29.6337 -0.0935856 32.1498 1.12159C33.2681 1.68244 34.2931 2.6172 35.3182 3.45847C35.4114 3.55195 35.5046 3.55195 35.5046 3.64542C35.9705 5.79535 37.9275 6.91706 39.1389 8.50614C39.4185 8.97351 39.7912 9.34741 40.0708 9.81479C39.8844 9.81479 39.7912 9.90827 39.698 9.90827Z" fill="black"/>
<path d="M58.1494 197.232C57.7767 197.045 57.4039 196.765 56.938 196.671C53.5832 196.017 50.3216 195.363 46.9668 194.802C45.1963 194.521 43.4257 194.428 41.6551 194.241C41.0028 194.147 40.5369 194.241 40.0709 194.989C43.5189 196.11 46.9669 197.139 50.3216 198.26V198.354C47.9919 198.26 45.6622 198.073 43.4257 198.073C42.587 198.073 41.7483 198.073 40.8164 198.167C40.5369 198.167 40.1641 198.354 39.8846 198.447C38.9527 199.008 38.8595 199.382 39.7914 200.036C40.2573 200.317 40.8164 200.597 41.4688 201.065C40.0709 201.065 38.9527 201.065 37.8344 201.065C37.8344 201.251 37.8344 201.345 37.8344 201.345C39.3254 202.093 40.9096 202.186 42.587 201.906C42.9598 201.812 43.3325 201.251 43.7053 200.878C43.4257 200.597 43.0529 200.317 42.7734 200.13C42.1211 199.756 41.4688 199.475 40.9096 198.915C43.0529 199.008 45.1031 199.102 47.2464 199.195C48.8306 199.289 50.4148 199.382 51.999 199.475C52.7445 199.475 53.3036 199.195 53.7696 198.447C50.4148 197.419 47.1532 196.391 43.9848 195.363C43.9848 195.269 43.9848 195.269 43.9848 195.176C45.3827 195.269 46.6873 195.363 48.0851 195.549C50.4148 195.923 52.8377 196.297 55.1674 196.765C55.8197 196.858 56.2857 197.326 56.938 197.512C57.3107 197.606 57.7767 197.512 58.1494 197.512C58.1494 197.419 58.1494 197.326 58.1494 197.232Z" fill="black"/>
<path d="M79.0236 29.1654C78.6508 28.6981 78.3712 28.2307 77.9985 27.7633C77.9053 27.7633 77.9053 27.8568 77.8121 27.8568C78.3712 29.072 78.9304 30.2871 79.5827 31.4088C79.4895 31.4088 79.4895 31.5023 79.3963 31.5023C78.744 30.7545 77.9985 30.0067 77.3462 29.1654C77.253 29.2589 77.253 29.2589 77.1598 29.3524C77.8121 30.1937 78.4644 31.0349 79.2099 31.9697C79.1167 32.1566 78.8372 32.624 78.6508 32.9979L78.744 33.0914C79.7691 31.5023 80.8873 30.0067 82.0056 28.3242C81.4464 28.4176 80.9805 28.4176 80.3282 28.5111C80.9805 27.2959 81.6328 26.1742 82.192 25.0525C83.0306 23.4634 83.683 21.7809 84.4285 20.0983C84.5217 19.8179 84.708 19.3505 84.8944 19.2571C85.7331 18.8832 85.8263 18.3223 85.7331 17.5745C85.6399 15.7985 85.6399 14.0224 85.7331 12.3399C85.8263 10.2834 83.217 8.97478 81.3533 10.003C81.9124 10.003 82.2851 10.003 82.6579 10.003C83.683 10.003 84.4285 10.6573 84.5217 11.6856C84.6148 12.9007 84.708 14.1159 84.708 15.2376C84.708 15.7985 84.1489 16.3593 83.9625 16.9202C83.8693 17.2006 83.683 17.3876 83.683 17.668C83.4034 20.1918 82.4715 22.4352 81.2601 24.5851C80.5146 26.1742 79.7691 27.6698 79.0236 29.1654ZM81.1669 28.7915C81.1669 28.885 81.2601 28.9785 81.2601 29.072C80.7941 29.6328 80.3282 30.2871 79.8623 30.9415C79.5827 30.3806 79.3963 30.0067 79.1168 29.5393C79.8623 29.1654 80.5146 28.9785 81.1669 28.7915Z" fill="black"/>
<path d="M58.0561 132.174C55.54 128.716 53.024 125.257 50.5079 121.799C50.1351 121.238 49.6692 120.584 48.4577 120.864C49.6692 121.612 50.3215 122.547 50.9738 123.575C51.6261 124.696 52.3716 125.725 53.1171 126.846C53.8627 127.968 54.6082 128.996 55.4469 130.211C54.515 130.118 53.8627 128.903 52.7444 130.025C56.2855 133.483 58.2425 138.063 60.479 142.363C59.5471 138.157 57.6834 134.418 55.0741 130.959C55.6332 131.333 56.1924 131.707 56.7515 132.174C57.2174 132.642 57.6834 132.548 58.0561 132.174Z" fill="black"/>
<path d="M134.75 139.558C134.657 139.371 134.657 139.091 134.47 138.904C132.607 136.848 131.209 134.417 130.091 131.8C129.997 131.519 129.625 131.332 129.438 131.052C126.736 128.622 124.033 126.191 121.331 123.854C120.772 123.387 119.747 123.2 119.001 123.013C118.163 122.92 117.883 122.639 117.976 121.798C118.163 121.05 118.349 120.209 118.535 119.368C116.299 119.181 114.528 120.676 112.385 121.237C112.664 120.863 112.851 120.583 113.13 120.209C112.292 120.115 101.761 125.35 101.202 126.098C104.557 124.509 108.005 122.92 111.546 121.144C111.173 121.611 110.894 121.891 110.707 122.172C110.707 122.265 110.801 122.359 110.801 122.452C113.037 121.518 115.274 120.583 117.697 119.555C117.51 120.302 117.324 120.957 117.231 121.611C117.044 122.639 117.51 123.107 118.442 123.107C119.467 123.107 120.213 123.387 120.958 124.041C123.754 126.472 126.549 128.902 129.159 131.426C130.184 132.454 130.743 134.043 131.488 135.445C132.42 136.847 133.352 138.25 134.377 139.652C134.47 139.652 134.657 139.558 134.75 139.558Z" fill="black"/>
<path d="M77.7189 66.0865C77.6257 65.9931 77.6257 65.9931 77.5325 65.8996C77.1598 65.6192 76.6939 65.3387 76.3211 65.1518C76.0415 65.0583 75.762 65.0583 75.296 64.9648C77.7189 67.0213 79.9554 68.8908 82.0988 70.7603C82.0988 70.8538 82.0056 70.8538 82.0056 70.9473C81.6328 70.8538 81.2601 70.6668 80.8873 70.6668C80.5146 70.6668 80.235 70.8538 79.8622 70.8538C79.9554 71.1342 79.9554 71.5081 80.1418 71.6951C81.5396 73.0972 82.9375 74.4993 84.3353 75.808C84.4285 75.9014 84.5217 75.9949 84.708 76.1819C83.683 76.7427 84.0557 77.4905 84.5216 78.2383C85.8263 80.3883 87.0377 82.5382 88.4355 84.5946C88.3424 84.0338 88.3424 83.4729 88.0628 83.0056C87.2241 81.4165 86.3854 79.9209 85.4535 78.3318C85.174 77.8644 84.8944 77.4905 84.6148 77.0232C85.0808 76.8362 85.4535 76.6492 86.1058 76.3688C84.2421 74.5928 82.6579 73.0037 80.8873 71.3212C81.9124 71.2277 82.8443 72.1624 83.5898 71.0407C81.6328 69.5451 79.6759 67.8626 77.7189 66.0865Z" fill="black"/>
<path d="M43.2393 136.194C45.1031 137.222 46.9668 138.25 48.8306 139.279C47.2464 139.092 46.1282 138.25 44.8235 137.596C44.4508 137.409 43.9848 137.129 43.6121 136.848C43.0529 136.474 42.6802 136.661 42.4006 137.316C43.8916 138.718 45.569 139.839 47.6192 140.307C48.0851 140.4 48.7374 140.4 49.017 140.12C49.8557 139.185 50.6944 139.653 51.6262 139.839C52.9309 140.12 54.1423 140.494 55.447 140.868C55.6333 140.868 55.8197 140.774 56.2856 140.681C55.5401 140.307 55.0742 140.12 54.5151 139.839L54.6083 139.746C54.1423 139.653 53.5832 139.653 53.1173 139.466C51.5331 138.998 50.0421 138.624 48.551 138.063C47.526 137.69 46.5941 136.848 45.569 136.381C44.8235 136.007 44.078 135.914 43.3325 135.727C43.2393 136.007 43.2393 136.1 43.2393 136.194Z" fill="black"/>
<path d="M75.4824 24.9588C75.8551 24.8653 76.2279 24.6783 76.8802 24.4914C76.0415 25.7066 75.296 26.7348 74.5505 27.8565C75.2028 28.3239 75.6688 27.95 76.0415 27.5761C77.1598 26.1739 78.278 24.7718 79.3031 23.3697C78.278 23.0893 78.278 22.9023 78.8371 22.1545C79.6758 21.1263 80.5145 20.0981 81.3532 19.0698C81.5396 18.8829 81.6328 18.6024 81.9124 18.2285C81.1668 18.322 80.7009 18.4155 80.0486 18.509C80.4213 18.2285 80.7009 17.9481 80.9805 17.7612C80.9805 17.6677 80.8873 17.6677 80.8873 17.5742C79.8622 17.9481 78.744 18.322 77.7189 18.6959C76.9734 18.9763 76.3211 19.2568 75.5756 19.4437C74.0846 19.8176 73.3391 20.9393 72.5936 22.061C72.5004 22.1545 72.5004 22.3415 72.314 22.4349C71.5685 22.9958 71.5685 22.9958 72.2208 23.9305C72.5004 23.8371 72.8731 23.7436 73.1527 23.5566C73.3391 23.4632 73.5254 23.0893 73.5254 22.9023C73.5254 22.4349 73.2459 21.8741 73.4322 21.5937C73.805 20.9393 74.3641 20.285 74.9233 20.0046C76.3211 19.3502 77.8121 18.9763 79.4895 18.4155C79.2099 18.6959 79.1167 18.8829 78.8371 19.2568C79.5827 19.0698 80.235 18.9763 80.7941 18.8829C80.8873 18.9763 80.8873 18.9763 80.9805 19.0698C79.1167 21.0328 77.253 22.9958 75.3892 24.9588C75.3892 24.8653 75.4824 24.8653 75.4824 24.9588Z" fill="black"/>
<path d="M152.549 98.6166C152.828 100.393 153.015 102.262 153.481 104.038C154.04 106.001 154.972 107.871 155.717 109.74C155.81 109.927 155.997 110.114 155.904 110.208C155.344 112.171 156.183 113.853 156.742 115.629C157.488 117.966 158.42 120.209 159.165 122.453C159.631 123.948 159.817 125.444 160.097 126.94C160.19 127.22 160.19 127.407 160.47 127.594C160.47 127.22 160.47 126.846 160.47 126.472C160.377 122.546 158.699 118.994 157.488 115.442C157.022 114.227 156.742 112.918 156.369 111.61C156.276 111.049 156.369 110.488 156.463 109.927C154.04 106.562 153.201 102.543 152.735 98.4297C152.828 98.6166 152.642 98.6166 152.549 98.6166Z" fill="black"/>
<path d="M31.9635 12.9001C33.5477 13.7414 34.5728 14.8631 35.8774 15.5174C35.9706 15.3305 36.0638 15.237 36.157 15.05C35.0387 14.2088 33.9204 13.3675 32.8022 12.7132C32.2431 12.3393 32.0567 12.0588 32.0567 11.4045C32.0567 10.2828 32.0567 9.1611 32.0567 8.31982C32.5226 8.22635 33.0818 8.13287 33.6409 8.0394C33.8273 8.0394 34.1068 8.22635 34.2932 8.4133C36.6229 10.6567 37.182 13.3675 36.7161 16.4522C36.6229 17.2 36.6229 17.2 37.182 17.2934C36.9956 17.9478 36.8093 18.5086 36.6229 19.163C36.7161 19.163 36.7161 19.163 36.8093 19.2564C37.2752 17.9478 37.8344 16.7326 38.3003 15.4239L38.2071 15.3305C37.9275 15.7044 37.648 16.0783 37.182 16.6391C37.4616 14.5827 37.5548 12.7132 36.8093 11.0306C36.0638 9.34805 34.8523 7.94592 33.0818 6.82422C33.2681 7.38507 33.2681 7.6655 33.4545 8.22635C32.9886 8.0394 32.6158 7.85245 32.3363 7.6655C31.8703 7.47855 31.6839 7.57202 31.5907 8.13287C31.5907 8.22635 31.5907 8.4133 31.5907 8.50677C31.4976 11.2176 31.4976 13.8349 31.4044 16.5456C31.4044 18.1347 31.6839 18.8825 32.9886 20.0977C32.6158 18.8825 32.2431 17.7608 32.0567 16.6391C31.8703 15.4239 31.9635 14.2088 31.9635 12.9001Z" fill="black"/>
<path d="M27.0246 191.716C26.0927 191.623 25.6268 190.875 25.1608 190.127C24.0426 188.351 24.0426 187.416 25.5336 185.921C26.0927 185.36 26.745 184.893 27.3042 184.238C25.8131 185.08 24.5085 186.108 23.6698 187.697C23.5766 187.977 23.4834 188.351 23.5766 188.538C24.5085 191.716 26.4655 193.492 30.193 191.997C31.684 191.436 33.0818 190.875 34.5728 190.221C35.4115 189.847 36.2502 189.473 36.8093 188.258C36.3434 188.351 35.8774 188.351 35.6911 188.538C34.666 189.94 33.0818 190.314 31.5908 190.875C31.5908 190.688 31.5908 190.595 31.5908 190.408C31.3112 190.595 31.0317 190.782 30.7521 190.968C31.3112 188.912 32.3363 187.323 34.3864 186.388C34.2932 186.295 34.2932 186.201 34.2001 186.108C33.5477 186.482 32.8022 186.762 32.2431 187.229C31.5908 187.79 31.0317 188.351 30.5657 189.099C30.0998 189.753 29.8202 190.595 29.5407 191.342C29.727 191.342 30.0066 191.436 30.3794 191.436C29.1679 192.371 28.0497 192.277 27.0246 191.716Z" fill="black"/>
<path d="M168.577 188.073C168.298 188.167 168.018 188.167 168.018 188.26C167.366 189.756 165.782 190.036 164.57 190.691C161.868 191.906 159.352 191.812 156.742 190.223C155.904 189.662 155.904 189.008 155.904 188.167C155.997 187.419 156.183 186.765 157.022 186.578C158.233 186.204 159.445 185.923 160.656 185.549C160.936 185.456 161.215 185.362 161.402 185.082C159.631 185.269 157.861 185.643 156.276 186.671C155.158 187.419 154.972 188.634 154.972 189.849C154.972 190.223 155.344 190.597 155.624 190.784C157.674 192.373 160.004 192.934 162.427 191.999C163.731 191.532 165.036 190.971 166.341 190.41C167.366 189.943 168.111 189.288 168.577 188.073Z" fill="black"/>
<path d="M42.0278 32.1548C42.4006 32.3417 42.6801 32.4352 42.7733 32.7156C44.1712 34.8656 45.4758 35.3329 47.9919 34.4917C48.3646 34.3982 48.7374 34.3047 49.1101 34.2112C49.2965 33.2765 48.7374 32.7156 47.9919 32.4352C46.0349 31.5005 44.1712 31.407 42.0278 32.1548Z" fill="black"/>
<path d="M36.2502 149.561C36.4366 151.524 36.5298 153.3 36.7162 155.356C36.9026 154.982 37.1821 154.795 37.1821 154.608C37.1821 153.019 37.0889 151.43 36.9958 149.841C36.9026 148.719 36.3434 148.626 35.5048 149.374C35.4116 149.467 35.3184 149.654 35.0388 149.841C34.4797 145.915 32.8955 142.457 30.0067 139.652C30.193 140.12 30.193 140.681 30.4726 141.054C31.5909 142.737 32.7091 144.233 33.1751 146.289C33.3614 147.317 33.641 148.346 33.9205 149.467C34.2001 150.589 34.6661 150.776 35.6911 150.122C35.7843 149.935 35.8775 149.841 36.2502 149.561Z" fill="black"/>
<path d="M71.1025 34.0241C70.5434 33.7437 70.1707 33.5567 69.8911 33.4632C67.841 32.9024 66.0704 33.1828 64.4862 34.6784C64.1134 35.0523 64.1134 35.4262 64.5794 35.8001C65.4181 36.4544 66.3499 36.174 67.0955 35.9871C67.841 35.8001 68.5865 35.3327 69.332 34.9588C69.7979 34.6784 70.357 34.398 71.1025 34.0241Z" fill="black"/>
<path d="M107.073 129.929C105.396 129.274 104.464 127.592 102.693 127.218C103.252 127.966 103.811 128.807 104.371 129.555C104.371 129.648 104.277 129.648 104.277 129.742C102.507 128.807 100.736 127.872 98.9656 126.938C98.8724 127.031 98.8724 127.124 98.7792 127.218C100.923 127.966 102.6 129.648 105.116 130.209C104.836 129.555 104.743 129.274 104.464 128.714C105.023 129.087 105.302 129.368 105.675 129.648C106.98 130.49 107.725 130.209 108.005 128.714C108.098 128.433 108.191 128.153 108.284 127.685C108.75 128.433 109.03 129.181 109.496 129.835C109.962 130.677 110.335 130.677 110.894 129.835C111.266 129.181 111.732 128.62 112.291 127.872C112.757 128.62 113.037 129.274 113.41 129.929C113.689 130.49 114.062 130.583 114.435 130.396C114.062 129.835 113.689 129.274 113.41 128.714C112.757 127.498 112.198 127.405 111.266 128.433C110.894 128.807 110.614 129.274 110.241 129.742C109.869 129.087 109.589 128.433 109.123 127.872C108.844 127.592 108.471 127.311 108.098 127.218C107.912 127.218 107.632 127.779 107.539 128.059C107.259 128.714 107.166 129.274 107.073 129.929Z" fill="black"/>
<path d="M76.0415 103.757C75.0164 101.887 73.9914 100.018 72.9663 98.1484C72.8731 98.1484 72.7799 98.2419 72.6867 98.2419C73.1527 99.1767 73.7118 100.205 74.2709 101.233C73.8982 101.14 73.7118 101.046 73.2459 100.859C73.7118 103.757 75.2028 106.187 75.9483 108.992C75.0164 108.244 74.1778 107.683 73.4322 107.029C73.3391 107.122 73.1527 107.216 73.0595 107.309C73.4322 108.337 73.805 109.459 74.1777 110.487C74.7369 112.17 75.296 113.759 75.9483 115.441C75.8551 114.787 75.8551 114.133 75.6688 113.478C75.1096 111.609 74.3641 109.833 73.7118 108.057C73.6186 107.87 73.6186 107.683 73.7118 107.309C74.7369 108.244 75.6688 109.179 76.6938 110.113C76.787 110.02 76.8802 109.926 76.9734 109.926C75.9483 107.216 74.9233 104.411 73.805 101.7C73.8982 101.7 73.9914 101.607 73.9914 101.607C74.5505 102.355 75.2028 103.103 75.7619 103.944C75.8551 103.944 75.9483 103.85 76.0415 103.757Z" fill="black"/>
<path d="M40.7233 76.2747C41.0029 76.3682 41.2824 76.3682 41.562 76.4617C41.6552 76.4617 41.6552 76.4617 41.8416 76.2747C40.6301 75.6204 39.5119 74.9661 38.3004 74.4052C37.1822 73.8444 36.1571 73.0966 35.0388 72.7227C34.9457 72.8161 34.9456 72.9096 34.8525 73.0966C36.3435 74.1248 37.9277 75.0595 39.4187 76.0878C39.4187 76.1812 39.3255 76.1812 39.3255 76.2747C38.58 75.9943 37.7413 75.7139 36.9958 75.5269C36.7162 75.4334 36.1571 75.5269 36.0639 75.7139C35.8775 75.9008 35.9707 76.3682 36.1571 76.6486C36.4367 77.2095 36.8094 77.6768 37.1822 78.1442C37.3685 78.0507 37.4617 77.8638 37.6481 77.7703C37.3685 77.2095 36.9958 76.6486 36.5298 75.8073C37.7413 76.2747 38.6732 76.5551 39.605 76.929C40.5369 77.2095 40.7233 77.116 40.7233 76.2747Z" fill="black"/>
<path d="M50.974 12.7135C52.465 12.807 53.956 12.9005 55.447 13.0874C57.404 13.3679 59.1745 14.0222 60.8519 15.1439C61.7838 15.7982 62.3429 15.7047 62.8089 14.583C63.5544 15.5178 64.2999 16.3591 65.0454 17.2003C65.1386 17.1069 65.2318 17.1069 65.325 17.0134C64.859 16.3591 64.4863 15.7047 64.0203 15.1439C63.6476 14.6765 63.2748 14.3026 62.8089 13.9287C62.7157 13.8352 62.4361 13.8352 62.2498 13.7418C62.1566 13.9287 62.0634 14.1157 62.0634 14.3961C62.0634 14.583 62.1566 14.8635 62.2498 15.3308C58.6154 12.6201 54.8879 11.9657 50.974 12.7135Z" fill="black"/>
<path d="M115.46 177.23C113.969 178.072 112.944 179.474 112.478 181.25C112.292 182.185 113.037 183.119 114.249 183.306C115.74 183.493 117.417 183.774 118.908 183.493C120.772 183.213 122.636 182.559 124.499 182.091C124.872 181.998 125.245 181.624 125.524 181.343C123.567 182.559 121.424 182.932 119.188 183.119C117.697 183.306 116.019 183.119 114.528 182.746C113.224 182.465 112.758 181.437 113.41 180.222C114.062 179.1 114.901 178.165 115.46 177.23Z" fill="black"/>
<path d="M44.7303 54.7773C43.8916 55.1512 43.7984 55.6186 44.2644 56.086C45.0099 56.9273 45.569 57.862 46.9668 57.7686C47.6191 57.7686 51.1603 59.3576 51.6262 59.6381C51.6262 59.4511 51.6262 59.2642 51.6262 59.2642C50.4148 58.4229 49.2965 57.3012 47.7123 57.2077C46.5941 57.1142 46.0349 56.4599 45.3826 55.7121C45.1031 55.4317 44.9167 55.0578 44.7303 54.7773Z" fill="black"/>
<path d="M87.0377 99.6434C86.9445 99.176 86.9445 98.7086 86.8513 97.9608C86.4785 98.3347 86.199 98.5217 86.1058 98.7086C86.0126 100.204 85.9194 101.606 85.8262 103.195C86.2922 102.915 86.199 102.354 86.7581 102.635C86.7581 102.635 87.0377 102.448 87.0377 102.261C87.69 99.7369 88.2491 97.1196 88.9014 94.5957C88.9946 94.4088 88.9014 94.1284 88.7151 93.9414C88.2491 95.9044 87.69 97.7739 87.224 99.7369C87.0377 99.6434 87.0377 99.6434 87.0377 99.6434Z" fill="black"/>
<path d="M97.7543 128.249C96.7292 129.371 95.5178 129.465 94.2132 129.278C92.629 128.997 91.0448 128.623 89.4606 128.343C89.0878 128.249 88.6219 128.156 87.9696 128.062C88.8083 128.997 89.3674 129.745 89.9265 130.399C89.8333 130.493 89.8333 130.586 89.7401 130.586C87.9696 130.399 86.2922 129.652 84.5216 130.306C86.0126 129.932 87.5036 130.399 88.9014 130.68C89.4606 130.773 90.0197 130.586 90.5788 130.493C90.2993 130.025 90.1129 129.558 89.8333 129.091C89.7401 128.997 89.6469 128.997 89.6469 128.81C90.7652 128.997 91.8835 129.184 93.0949 129.278C94.2132 129.371 95.3314 129.465 96.4497 129.371C97.0088 129.371 97.4747 128.904 97.9407 128.623C97.8475 128.623 97.7543 128.436 97.7543 128.249Z" fill="black"/>
<path d="M41.9348 119.459C42.1211 120.488 42.2143 121.516 42.4007 122.544C42.5871 122.357 42.7734 122.17 42.7734 121.983C42.6802 120.768 42.5871 119.553 42.5871 118.338C42.4939 118.244 42.4007 118.244 42.3075 118.151C42.0279 118.431 41.7484 118.618 41.4688 118.898C40.9097 119.74 40.6301 119.74 40.071 118.898C39.7914 118.525 39.605 118.057 39.3255 117.59C38.6732 117.59 38.4868 117.87 38.7664 118.525C39.6051 120.301 40.071 120.394 41.9348 119.459Z" fill="black"/>
<path d="M68.0274 186.764C68.5865 186.857 69.1457 186.95 69.7048 187.137C69.5184 187.324 69.3321 187.511 69.2389 187.698C70.8231 188.54 71.4754 188.54 73.0596 187.605C71.8481 187.137 70.5435 186.577 69.332 186.203C68.9593 186.109 68.4934 186.39 68.0274 186.39C68.0274 186.483 68.0274 186.67 68.0274 186.764Z" fill="black"/>
<path d="M36.6228 88.0547C36.1569 88.4286 35.9705 89.6438 36.4365 90.7655C36.5296 90.2046 36.6228 89.8307 36.716 89.3633C38.207 90.672 39.5117 91.9807 41.2822 92.3546C39.698 90.9524 38.207 89.5503 36.6228 88.0547Z" fill="black"/>
<path d="M80.8874 10.2812C78.744 11.6834 76.6007 12.992 74.5506 14.3942C74.271 14.3007 73.9914 14.1137 73.8051 14.2072C72.5936 14.5811 71.3822 15.0485 70.2639 15.6093C68.9593 16.2637 67.7478 17.0115 66.5364 17.7593C68.9593 17.0115 70.8231 15.0485 73.5255 14.6746C73.5255 14.955 73.4323 15.2354 73.4323 15.6093C76.0416 13.8333 78.5577 12.2442 81.0737 10.5617C80.9805 10.3747 80.9805 10.2812 80.8874 10.2812Z" fill="black"/>
<path d="M61.9702 16.8237C62.3429 17.3845 62.6225 18.0388 62.9952 18.6932C61.877 18.6932 61.5042 19.1606 61.5042 20.4692C61.7838 20.0018 61.9702 19.7214 62.1565 19.3475C62.4361 19.441 62.7157 19.7214 63.0884 19.7214C63.368 19.8149 63.8339 19.9084 64.0203 19.7214C64.2067 19.6279 64.1135 19.1606 64.1135 18.7867C64.2067 18.7867 64.2999 18.8801 64.4862 18.9736C64.5794 18.8801 64.5794 18.7867 64.6726 18.7867C63.9271 18.0388 63.0884 17.291 62.3429 16.6367C62.2497 16.6367 62.1565 16.7302 61.9702 16.8237Z" fill="black"/>
<path d="M70.2637 42.5304C70.6365 42.5304 71.0092 42.6239 71.4752 42.6239C71.382 42.9043 71.1956 43.1847 71.1024 43.4651C71.1024 43.4651 71.1956 43.4651 71.1956 43.5586C71.4752 43.1847 71.8479 42.8108 72.2207 42.3434C71.7547 42.1565 71.382 42.063 71.0092 41.9695C71.6615 41.0348 72.3139 40.1 72.873 39.2587C73.8049 39.4457 74.6436 39.6326 75.4823 39.9131C75.4823 39.8196 75.5754 39.7261 75.5754 39.6326C75.3891 39.4457 75.1095 39.2587 74.9231 39.1653C74.5504 38.9783 74.1776 38.8848 73.8049 38.6979C72.7798 38.0436 72.873 38.0436 72.3139 39.1653C71.7547 40.287 71.0092 41.3152 70.2637 42.5304Z" fill="black"/>
<path d="M65.0454 141.523C65.8841 139.28 66.6296 137.13 67.4683 134.793C67.7479 134.98 67.841 135.073 68.0274 135.167C68.0274 134.606 68.1206 134.139 68.1206 133.578C68.0274 133.578 68.0274 133.484 67.9342 133.484C67.4683 134.419 66.9092 135.26 66.4432 136.195C66.2568 136.569 65.8841 136.943 65.6977 137.317C65.6045 137.504 65.4182 137.691 65.4182 137.971C65.2318 139.093 65.0454 140.215 64.9522 141.43L65.0454 141.523Z" fill="black"/>
<path d="M27.0245 191.716C27.5836 190.127 28.2359 188.538 28.7951 187.042C28.8883 186.856 28.7951 186.014 29.5406 186.575C29.6338 186.295 29.8201 186.014 29.9133 185.734C29.8201 185.64 29.727 185.547 29.6338 185.547C29.261 185.827 28.7019 186.014 28.5155 186.388C27.8632 187.697 27.3041 189.099 26.7449 190.501C26.6517 190.781 26.9313 191.249 27.0245 191.716Z" fill="black"/>
<path d="M40.2573 65.995C39.1391 65.3406 37.9276 64.7798 36.8094 64.2189C36.623 64.1255 36.4366 63.9385 36.1571 63.845C34.9456 63.7516 34.3865 62.8168 33.7342 61.882C33.3614 61.3212 32.9887 60.8538 32.6159 60.293C32.5227 60.3864 32.4295 60.3864 32.3363 60.4799C32.8955 61.5081 33.4546 62.4429 34.0137 63.4711C34.1069 63.6581 34.2933 63.845 34.5729 63.9385C36.2502 64.5928 37.8344 65.2472 39.5118 65.9015C39.7914 65.995 40.0709 65.995 40.2573 65.995Z" fill="black"/>
<path d="M51.9453 30.7338C52.0991 29.8506 52.2529 28.9674 52.3907 27.892C51.731 28.14 51.2884 28.2732 50.6286 28.5212C48.7157 27.3252 46.8027 26.1291 43.0057 26.8298C44.871 27.4495 46.7602 28.3573 49.2853 28.729C51.5851 29.1193 50.5384 30.173 51.9453 30.7338Z" fill="black"/>
<path d="M71.1025 80.3896C71.4753 79.5483 72.4071 78.7071 72.2208 78.0527C71.9412 77.0245 72.4071 76.2767 72.5935 75.4354C72.7799 74.6876 73.0594 73.9398 73.339 73.192C73.4322 72.8181 73.5254 72.5377 73.5254 72.1638C73.4322 72.1638 73.339 72.0703 73.2458 72.0703C72.4071 74.7811 71.6616 77.5854 70.8229 80.2961C70.9161 80.2961 71.0093 80.2961 71.1025 80.3896Z" fill="black"/>
<path d="M103.718 88.3354C103.159 88.4288 102.414 87.5876 102.041 88.4288C101.854 88.8027 102.227 89.5505 102.414 90.1114C102.507 90.3918 102.6 90.6723 102.693 90.9527C103.718 90.1114 102.786 89.4571 102.6 88.6158C103.252 88.6158 104.091 89.4571 104.371 88.3354C104.557 87.681 103.811 87.4006 102.973 87.4941C103.345 87.681 103.718 87.868 103.998 88.1484C103.905 88.1484 103.811 88.2419 103.718 88.3354Z" fill="black"/>
<path d="M67.6545 132.453C68.7727 129.835 69.3319 127.125 69.425 124.32C68.8659 127.031 68.3068 129.742 67.6545 132.453Z" fill="black"/>
<path d="M45.103 93.5693C44.3575 93.0084 43.7052 92.4476 42.9597 91.8867C42.8665 91.9802 42.8665 91.9802 42.7733 92.0737C43.0529 92.541 43.3324 93.0084 43.7052 93.5693C44.1711 94.3171 44.5439 94.4105 45.1962 93.8497C45.569 93.4758 45.8485 93.1019 46.2213 92.728C46.5008 92.9149 46.7804 93.1019 46.9668 93.3823C47.06 93.2888 47.1531 93.2888 47.2463 93.1954C47.06 92.9149 46.8736 92.541 46.6872 92.2606C46.4077 92.4476 46.0349 92.6345 45.7553 92.8215C45.4758 92.9149 45.2894 93.2888 45.103 93.5693Z" fill="black"/>
<path d="M59.6403 112.917C59.6403 112.263 59.6403 111.608 59.6403 110.954C59.7335 110.954 59.7335 110.861 59.8267 110.861C60.3858 111.889 60.8518 112.824 61.4109 113.852C61.4109 112.356 60.479 111.141 59.6403 110.019C59.5471 109.926 59.1744 109.926 59.0812 110.019C58.988 110.3 58.8948 110.58 58.8948 110.767C59.0812 111.515 59.3608 112.169 59.6403 112.917Z" fill="black"/>
<path d="M37.7412 49.4486C37.3685 48.0464 36.9025 46.6443 36.5298 45.2422C35.9706 45.3357 35.6911 45.7096 35.9706 46.2704C36.4366 47.3921 36.9957 48.4203 37.4616 49.542C37.4616 49.542 37.5548 49.4486 37.7412 49.4486Z" fill="black"/>
<path d="M34.1069 101.887C35.6911 103.663 37.2753 105.439 39.0459 107.402C38.114 104.784 35.8775 103.476 34.1069 101.887Z" fill="black"/>
<path d="M30.0065 48.2344C29.5406 50.7582 29.4474 53.3755 29.7269 55.9928C29.9133 53.3755 30.0065 50.8517 30.1929 48.2344C30.0997 48.2344 30.0065 48.2344 30.0065 48.2344Z" fill="black"/>
<path d="M72.407 114.883C72.873 117.22 73.3389 119.463 73.0593 121.8C73.898 121.52 73.4321 116.565 72.407 114.883Z" fill="black"/>
<path d="M50.8806 11.8716C48.6441 11.5912 46.6871 12.6194 44.637 13.2737C45.6621 13.1803 46.6871 13.0868 47.8986 12.9933C47.4326 12.8998 47.1531 12.8998 46.8735 12.8064C46.8735 12.7129 46.8735 12.6194 46.8735 12.5259C47.7122 12.4325 48.5509 12.4325 49.3896 12.339C49.8555 12.339 50.4147 12.2455 50.8806 12.152C50.8806 12.0586 50.8806 11.9651 50.8806 11.8716Z" fill="black"/>
<path d="M71.1024 126.661C71.6615 124.043 71.0092 121.426 71.1956 118.809C70.5433 121.426 71.1024 124.043 71.1024 126.661Z" fill="black"/>
<path d="M31.1248 36.2684C30.6588 36.175 30.0065 35.988 29.4474 35.8945C29.261 35.8945 28.9814 35.988 28.7019 35.988C27.3041 36.2684 25.813 36.5489 24.4152 36.8293C24.2288 36.8293 23.9493 36.9228 23.7629 37.0162C23.7629 37.1097 23.7629 37.2032 23.8561 37.2967C26.3722 36.9228 28.7951 36.5489 31.1248 36.2684Z" fill="black"/>
<path d="M28.5155 26.1719C27.1177 27.9479 26.5586 30.1913 26.0926 32.4347C26.1858 32.4347 26.279 32.5282 26.3722 32.5282C26.5586 31.9673 26.6518 31.5 26.8381 30.9391C27.2109 29.8174 27.5836 28.6022 27.9564 27.4805C28.1428 27.1066 28.4223 26.7327 28.7019 26.3588C28.7019 26.2654 28.6087 26.1719 28.5155 26.1719Z" fill="black"/>
<path d="M27.4905 54.401C27.4905 54.7749 27.5837 55.2422 27.4905 55.5227C27.1178 57.2052 26.745 58.7943 26.3723 60.4769C26.4654 60.4769 26.5586 60.5703 26.745 60.5703C26.9314 59.8225 27.0246 58.9813 27.2109 58.2335C27.3973 57.3922 27.5837 56.5509 27.7701 55.7096C27.7701 55.5227 27.9564 55.4292 28.1428 55.2422C28.1428 54.8683 28.0496 54.401 28.0496 53.9336C27.8633 54.214 27.6769 54.3075 27.4905 54.401Z" fill="black"/>
<path d="M46.1282 17.2012C46.2213 17.2012 46.3145 17.2012 46.5009 17.2946C46.1282 17.8555 45.6622 18.3229 45.2895 18.8837C45.3827 18.9772 45.3827 18.9772 45.4758 19.0707C46.4077 18.0424 47.3396 17.1077 48.2715 16.0795C47.4328 15.8925 46.5941 16.0795 45.9418 16.5468C46.4077 16.4534 46.8737 16.4534 47.3396 16.3599V16.4534C46.9669 16.6403 46.5009 16.9207 46.1282 17.2012Z" fill="black"/>
<path d="M45.4757 105.347C46.6871 106.375 47.8054 107.31 49.0168 108.338C48.4577 106.655 46.9667 106.095 45.7553 105.066C45.6621 105.16 45.5689 105.253 45.4757 105.347Z" fill="black"/>
<path d="M63.1364 32.1523C63.2297 31.2726 63.1614 30.4058 63.1204 29.8856C64.7096 29.4114 66.2989 28.9372 67.9018 28.6364C67.8745 28.2897 67.6992 28.129 67.6718 27.7823C66.0826 28.2565 64.318 28.5701 62.904 29.2049C61.6381 29.6536 61.7474 31.0406 63.1364 32.1523Z" fill="black"/>
<path d="M32.4294 14.7687C33.6409 15.7035 34.7591 16.8252 36.2501 17.386C36.3433 17.2925 36.3433 17.1991 36.4365 17.1056C35.2251 16.2643 33.9204 15.3296 32.709 14.4883C32.6158 14.5818 32.5226 14.6752 32.4294 14.7687Z" fill="black"/>
<path d="M50.8806 108.523C50.3215 106.56 48.6441 105.719 47.4326 104.41C47.3395 104.504 47.2463 104.504 47.2463 104.597C48.3645 105.906 49.576 107.121 50.8806 108.523Z" fill="black"/>
<path d="M145.466 121.796C145.653 122.17 145.653 122.357 145.746 122.544C145.839 122.544 145.839 122.544 145.932 122.451C145.839 122.17 145.746 121.89 145.56 121.609C145.28 121.796 144.907 121.89 144.907 122.17C144.628 123.385 144.348 124.601 144.162 125.816C144.255 125.816 144.348 125.816 144.441 125.909C144.814 124.507 145.094 123.292 145.466 121.796Z" fill="black"/>
<path d="M76.6006 149.187C78.1848 150.215 79.769 151.337 81.3532 152.365C81.4464 152.272 81.4464 152.178 81.5396 152.085C79.9554 151.056 78.278 150.028 76.6938 149C76.787 149 76.6938 149.093 76.6006 149.187Z" fill="black"/>
<path d="M28.6087 47.8591C28.6087 49.9156 28.6087 52.0655 28.6087 54.1219C28.6087 54.1219 28.6087 54.1219 28.7019 54.1219C28.7951 51.972 28.8883 49.9156 28.9814 47.7656C28.7951 47.8591 28.7019 47.8591 28.6087 47.8591Z" fill="black"/>
<path d="M80.7009 152.925C79.769 151.616 78.1849 150.588 76.3211 150.027C77.9053 151.056 79.3031 151.99 80.7009 152.925Z" fill="black"/>
<path d="M101.855 58.4219C103.346 59.2632 104.93 60.1044 106.514 61.0392C105.209 59.6371 103.625 58.7023 101.855 58.4219Z" fill="black"/>
<path d="M136.054 112.543C136.148 112.169 134.657 110.486 132.886 109.738C132.793 109.832 132.7 109.925 132.7 109.925C133.818 110.86 134.936 111.701 136.054 112.543Z" fill="black"/>
<path d="M100.177 97.5898C99.9909 96.2811 99.7113 94.879 99.5249 93.5703C99.4317 93.5703 99.3386 93.5703 99.2454 93.5703C98.8726 94.9724 99.7113 96.2811 99.8977 97.5898C100.084 97.6832 100.177 97.6832 100.177 97.5898Z" fill="black"/>
<path d="M36.623 106.28C36.0639 105.252 34.6661 104.224 33.2683 103.289C34.4797 104.411 35.7844 105.532 36.623 106.28Z" fill="black"/>
<path d="M66.6294 87.5848C67.3749 87.7718 67.3749 87.8653 66.6294 89.2674C66.2566 89.9217 65.8839 90.4826 65.5111 91.1369C65.6043 91.2304 65.6975 91.2304 65.7907 91.3238C66.1634 90.763 66.5362 90.1087 66.8157 89.5478C67.1885 88.8 67.4681 88.1457 67.8408 87.3979C67.7476 87.3044 67.6544 87.3044 67.5613 87.2109C67.3749 87.3044 67.0953 87.3979 66.6294 87.5848Z" fill="black"/>
<path d="M30.286 82.1641C29.7269 83.6597 29.0746 85.1553 28.5155 86.5574C28.6086 86.5574 28.7018 86.6509 28.7018 86.6509C29.261 85.2487 30.3792 83.9401 30.286 82.1641Z" fill="black"/>
<path d="M38.2072 22.4345C38.3936 22.1541 38.5799 21.7802 38.7663 21.4997L38.6731 21.4062C38.3004 21.8736 37.9276 22.341 37.5549 22.9019C39.1391 23.6497 39.5118 22.2475 40.2573 21.4997C39.605 21.8736 39.0459 22.341 38.3936 22.7149C38.3004 22.6214 38.3004 22.528 38.2072 22.4345Z" fill="black"/>
<path d="M48.6443 45.6172C47.1533 45.1499 45.7555 44.776 44.4508 44.3086C44.6372 44.8694 47.8056 45.8977 48.6443 45.6172Z" fill="black"/>
<path d="M65.6975 42.0621C65.1384 40.66 64.4861 39.3513 63.9269 37.9492C63.8337 37.9492 63.7406 38.0427 63.6474 38.0427C64.2065 39.4448 64.8588 40.847 65.4179 42.2491C65.5111 42.1556 65.6043 42.1556 65.6975 42.0621Z" fill="black"/>
<path d="M59.8268 41.0346C61.0383 41.1281 62.2497 41.2216 63.4612 41.315C63.4612 41.1281 63.4612 41.0346 63.4612 40.8477C62.2497 40.8477 61.0383 40.8477 59.8268 40.8477C59.8268 40.9411 59.8268 41.0346 59.8268 41.0346Z" fill="black"/>
<path d="M124.033 54.3086C125.152 55.1499 126.27 55.8977 127.295 56.6455C127.295 55.8977 125.804 54.776 124.033 54.3086Z" fill="black"/>
<path d="M25.7199 57.3933C25.9062 56.926 26.1858 56.5521 26.3722 56.0847C26.6517 55.4304 26.8381 54.6826 27.1177 54.0282C27.1177 53.7478 27.1177 53.4674 27.1177 53.0935C27.0245 53.0935 26.9313 53.0935 26.9313 53C26.4653 54.4956 26.0926 55.9912 25.7199 57.3933Z" fill="black"/>
<path d="M51.7195 45.2436C53.1173 45.0567 54.6083 44.8697 56.0061 44.6828C56.0061 44.5893 56.0061 44.4958 56.0061 44.4023C54.6083 44.5893 53.1173 44.7762 51.7195 44.9632C51.6263 45.0567 51.6263 45.1501 51.7195 45.2436Z" fill="black"/>
<path d="M30.9385 83.8477C29.8202 85.2498 28.9815 86.5584 28.702 88.3345C29.4475 86.7454 30.193 85.3433 30.9385 83.8477Z" fill="black"/>
<path d="M28.4224 31.2192C28.8884 30.004 29.2611 28.7888 29.7271 27.3867C29.1679 27.4802 28.9816 27.4802 28.8884 27.5737C29.4475 28.8823 28.236 29.9106 28.4224 31.2192Z" fill="black"/>
<path d="M70.7297 183.211C71.9411 184.052 73.1526 184.893 74.364 185.735C73.4321 184.52 72.1275 183.772 70.7297 183.211Z" fill="black"/>
<path d="M100.457 94.5975C101.016 93.0084 100.923 92.2606 100.084 91.8867C100.27 92.728 100.363 93.5693 100.457 94.5975Z" fill="black"/>
<path d="M30.1929 115.722C29.6337 115.722 29.1678 115.629 28.7951 115.629C29.4474 116.19 29.4474 116.19 28.9814 117.685C29.3542 117.125 29.7269 116.564 30.1929 115.722Z" fill="black"/>
<path d="M160.936 187.043C159.818 188.071 159.631 189.473 159.445 190.875C160.004 189.567 160.47 188.352 160.936 187.043Z" fill="black"/>
<path d="M117.976 103.195C117.51 104.317 116.951 105.532 116.485 106.654C116.578 106.654 116.671 106.747 116.671 106.747C117.137 105.626 117.603 104.41 118.162 103.289C118.162 103.195 118.069 103.195 117.976 103.195Z" fill="black"/>
<path d="M72.873 55.0565C72.5935 53.7478 71.848 53 71.0093 53C71.5684 53.6543 72.2207 54.3087 72.873 55.0565Z" fill="black"/>
<path d="M125.99 57.4883C125.524 56.4601 124.592 56.4601 123.661 56.1797C124.499 56.6471 125.152 57.021 125.99 57.4883Z" fill="black"/>
<path d="M76.321 22.9959C75.7619 22.5285 75.1096 22.0611 74.5505 21.5938C74.4573 21.6872 74.4573 21.7807 74.3641 21.7807C74.9232 22.2481 75.4823 22.8089 76.0415 23.2763C76.2279 23.1828 76.321 23.0894 76.321 22.9959Z" fill="black"/>
<path d="M52.2786 85.6231C51.5331 84.9688 50.7876 84.3145 50.0421 83.6602C50.508 84.6884 51.0671 85.5297 52.2786 85.6231Z" fill="black"/>
<path d="M64.952 45.2428C64.2997 44.8689 63.461 44.7754 62.7155 44.7754H62.5291C61.6904 44.7754 60.8518 44.9624 59.9199 45.1493C59.7335 45.1493 59.5471 45.0558 59.5471 44.8689C59.5471 44.6819 59.6403 44.495 59.8267 44.495C60.6654 44.308 61.5973 44.1211 62.5291 44.1211C62.6223 44.1211 62.6223 44.1211 62.7155 44.1211C63.5542 44.1211 64.4861 44.308 65.2316 44.6819C65.418 44.7754 65.418 44.9624 65.3248 45.1493C65.3248 45.2428 65.1384 45.3363 64.952 45.2428Z" fill="white"/>
<path d="M65.9773 34.9587C65.6685 34.9587 65.4181 34.7913 65.4181 34.5848C65.4181 34.3783 65.6685 34.2109 65.9773 34.2109C66.286 34.2109 66.5364 34.3783 66.5364 34.5848C66.5364 34.7913 66.286 34.9587 65.9773 34.9587Z" fill="white"/>
<path d="M44.5439 32.9978C44.2351 32.9978 43.9848 32.8304 43.9848 32.6239C43.9848 32.4174 44.2351 32.25 44.5439 32.25C44.8527 32.25 45.103 32.4174 45.103 32.6239C45.103 32.8304 44.8527 32.9978 44.5439 32.9978Z" fill="white"/>
<path d="M54.7015 58.6094C55.1674 58.8898 55.6334 59.2637 56.1925 59.5441C57.4039 60.1985 58.5222 60.6658 59.92 60.0115C60.5723 59.6376 61.411 59.6376 62.1565 60.1985C62.3429 60.2919 62.6225 60.1985 62.902 60.1985C63.1816 60.105 63.368 59.8246 63.6475 59.8246C64.4862 59.8246 64.6726 59.2637 65.0454 58.7963C65.1386 58.7963 65.1386 58.7963 65.2317 58.7963C65.3249 58.7963 65.5113 58.7963 65.6045 58.7963C65.5113 58.8898 65.4181 58.9833 65.3249 59.0768C65.0454 59.6376 64.6726 60.105 64.2999 60.5724C64.1135 60.7593 63.7407 60.9463 63.4612 61.1332C63.368 60.7593 63.368 60.5724 63.2748 60.3854C62.8089 60.4789 62.4361 60.6658 62.0633 60.7593C61.877 60.7593 61.5042 60.8528 61.411 60.6658C60.7587 60.0115 60.0132 60.2919 59.3609 60.5724C57.6835 61.2267 56.1925 60.7593 54.7947 59.8246C54.2356 59.5441 54.0492 59.0768 54.7015 58.6094Z" fill="black"/>
<path d="M44.6371 64.7798C45.8486 64.7798 47.06 64.7798 48.2715 64.7798C48.2715 64.6863 48.2715 64.6863 48.2715 64.5928C47.8987 64.4994 47.6192 64.4994 47.2464 64.4059C47.3396 64.2189 47.6192 63.9385 47.6192 63.7516C47.526 63.5646 47.2464 63.3777 47.06 63.1907C46.8737 63.0038 46.5941 62.9103 46.3145 62.7233C45.9418 62.4429 45.4758 62.4429 45.1031 62.8168C45.6622 63.1907 46.2213 63.5646 46.7805 64.032C45.9418 64.2189 45.1963 64.4059 44.4508 64.5928C44.6371 64.6863 44.6371 64.7798 44.6371 64.7798Z" fill="black"/>
</g>
<defs>
<clipPath id="clip0_14396_841">
<rect width="171" height="202" fill="white" transform="matrix(-1 0 0 1 171 0)"/>
</clipPath>
</defs>
</svg>
