<svg width="181" height="262" viewBox="0 0 181 262" fill="none" xmlns="http://www.w3.org/2000/svg">
<g clip-path="url(#clip0_14396_692)">
<path d="M2.42568 152.137L1.84814 259.097L155.704 258.517L179.152 221.818L179.498 141.453L177.304 140.756L71.6146 139.711H38.0019L31.7645 142.034L2.42568 152.137Z" fill="white"/>
<path d="M179.036 221.352C178.574 223.907 176.495 227.855 175.456 229.713C169.68 241.327 162.981 251.315 155.704 259.212C155.242 255.728 156.166 252.127 157.09 249.224C158.245 245.276 160.209 242.837 161.364 238.888C168.179 228.436 170.604 224.023 173.608 213.803C174.994 209.738 178.574 193.363 178.574 193.363C179.383 199.867 179.729 217.403 179.036 221.352Z" fill="#BBBBBA"/>
<path d="M178.459 220.656C178.343 221.469 177.997 222.166 177.65 222.747C176.495 224.257 175.571 226.231 174.416 228.089C169.68 236.451 165.06 244.696 160.209 252.942C159.169 254.452 158.014 255.845 156.512 257.703C156.512 255.961 156.512 255.148 156.397 254.219C156.397 244.812 156.512 235.405 156.743 225.882C156.743 217.172 156.743 208.346 156.743 199.636C156.743 199.288 156.743 199.171 156.743 198.939C156.743 192.203 156.281 159.686 156.397 152.95C156.397 152.137 156.397 151.44 155.588 150.859C155.473 151.324 155.242 151.672 155.242 152.253C155.126 160.15 155.704 193.945 155.704 201.843C155.704 211.598 155.704 212.991 155.704 222.747C155.704 234.244 155.588 245.741 155.357 257.239C155.357 257.936 155.473 258.4 155.473 258.981C157.899 259.097 159.4 256.89 160.786 254.568C163.558 249.806 166.446 244.929 169.103 240.167C172.568 234.36 175.918 228.554 179.383 222.863C179.498 222.747 179.498 222.515 179.498 222.398C179.152 222.05 178.805 221.353 178.459 220.656Z" fill="black" stroke="black" stroke-width="0.369" stroke-miterlimit="10"/>
<path d="M157.321 245.509C157.321 243.07 158.361 242.257 159.169 241.212C161.941 237.728 164.598 234.708 167.486 231.805C166.1 234.592 164.251 236.798 162.519 238.889C160.902 241.095 159.285 243.302 157.321 245.509Z" fill="black"/>
<path d="M164.482 231.457C162.403 234.244 160.209 236.567 158.014 239.47C158.591 236.567 161.133 233.199 164.482 231.457Z" fill="black"/>
<path d="M157.321 249.342C158.823 245.858 160.786 243.536 163.096 241.445C161.364 244.233 159.862 246.904 158.13 249.691C158.245 249.807 157.899 249.459 157.321 249.342Z" fill="black"/>
<path d="M168.063 234.941C167.255 237.148 165.984 238.542 164.482 239.587C165.522 237.845 166.446 235.522 168.063 234.941Z" fill="black"/>
<path d="M168.063 234.941C168.41 233.779 168.756 232.502 169.449 230.992C169.449 233.315 169.449 233.315 168.063 234.941Z" fill="black"/>
<path d="M159.747 144.354C158.361 144.006 157.552 143.89 156.512 143.89C155.473 143.773 154.433 143.773 153.278 143.541C155.011 143.425 156.859 143.193 159.4 142.844C154.78 142.496 151.546 142.844 147.849 142.844C150.275 142.38 161.479 142.031 168.179 142.38C166.1 143.193 162.403 142.844 159.631 143.193C159.978 143.309 160.671 143.541 160.671 143.89C160.902 144.006 160.324 144.238 159.747 144.354Z" fill="black"/>
<path d="M166.446 150.394C166.446 150.743 166.446 151.207 166.1 151.439C164.02 154.227 162.172 156.898 160.093 159.685C159.631 160.382 159.054 161.079 158.361 160.382C160.902 156.782 163.327 153.298 165.869 149.93C166.1 150.046 166.215 150.162 166.446 150.394Z" fill="black"/>
<path d="M167.486 153.645C165.638 156.199 164.02 158.638 162.172 160.961C162.288 158.29 165.06 154.109 167.486 153.645Z" fill="black"/>
<path d="M18.9431 150.396C19.6362 149.002 21.7153 148.886 22.8704 147.957C23.3324 148.886 21.1378 150.164 18.9431 150.396Z" fill="black"/>
<path d="M17.7881 149.234C17.326 147.724 18.2501 147.027 20.2137 147.724C19.7517 147.84 19.1741 148.073 18.8276 148.421C18.3656 148.537 18.0191 148.886 17.7881 149.234Z" fill="black"/>
<path d="M7.96989 242.603C9.12497 244.694 10.3955 246.668 11.6661 248.41C15.2469 252.707 20.3292 255.494 25.6425 257.004C30.9559 258.514 36.5002 258.862 42.1601 259.443C38.4638 261.998 33.6125 261.998 28.9922 261.998C21.0222 261.882 12.8212 261.533 4.73569 260.953C4.04264 260.953 3.3496 260.837 2.88757 260.488C2.19453 260.024 2.19453 258.978 2.07902 258.282C1.7325 252.591 1.27047 247.133 0.692931 241.674C0.577424 240.281 -0.11562 233.777 2.77206 234.474C4.62018 234.938 7.16134 241.21 7.96989 242.603Z" fill="#BBBBBA"/>
<path d="M10.0492 240.864C10.0492 244.348 10.1647 248.065 12.8214 250.504C15.247 252.71 18.5968 252.942 21.831 252.942C62.9516 253.059 103.957 252.246 145.077 250.504C145.77 250.504 146.579 250.504 147.272 250.155C149.005 249.342 149.351 246.903 149.12 244.813C148.658 211.947 148.774 190.114 148.312 157.247C132.949 156.899 117.818 156.551 102.455 156.434C87.3236 156.318 71.9611 156.086 56.7142 156.086C49.0907 156.086 41.3517 156.086 33.8437 156.086C26.3357 156.086 18.4812 155.622 11.2043 156.202C10.0492 156.318 10.1647 156.086 9.81819 157.015C9.70269 157.828 9.81819 159.222 9.81819 160.151C9.81819 162.009 9.81819 163.867 9.81819 165.841C9.81819 169.558 9.9337 173.506 9.9337 177.339C10.0492 185.004 9.24066 181.636 9.47167 189.301C9.58718 204.863 9.81819 220.192 9.9337 235.406C10.0492 237.264 10.0492 239.006 10.0492 240.864Z" fill="#EB584A"/>
<path d="M8.89406 247.716C9.5871 245.858 10.3957 244.116 11.3197 241.909C12.8213 243.767 12.3593 245.509 12.3593 247.251C12.3593 248.993 12.2438 250.735 12.2438 252.593C14.3229 251.897 13.7454 250.038 15.478 248.993C16.5175 250.387 17.9036 251.78 19.0587 253.29C16.9796 253.755 16.5175 251.897 15.1315 251.084C14.0919 252.826 13.0523 254.335 12.0128 256.426C10.6267 254.335 11.3197 252.71 11.3197 250.968C11.2042 249.226 11.4352 247.483 11.2042 245.858C9.35609 248.993 9.00957 252.593 7.50797 255.845C6.69942 253.29 7.16145 251.084 7.39246 248.761C7.73899 245.509 8.08551 242.374 8.08551 239.122C8.20101 238.077 7.73899 237.031 7.39246 235.986C7.04594 234.825 7.27696 233.896 8.20101 232.734C9.35609 237.844 8.89406 242.722 8.89406 247.716Z" fill="black"/>
<path d="M16.0554 197.195H19.2896C21.4843 197.195 22.5238 198.357 22.5238 200.679V202.073C22.5238 204.28 21.4843 205.557 19.2896 205.557H18.2501V211.248H16.0554C16.0554 211.015 16.0554 197.195 16.0554 197.195ZM19.2896 203.467C19.9827 203.467 20.3292 203.118 20.3292 202.073V200.331C20.3292 199.286 19.9827 198.937 19.2896 198.937H18.2501V203.234H19.2896V203.467Z" fill="white"/>
<path d="M23.9099 207.765V200.449C23.9099 198.242 25.065 196.965 27.1441 196.965C29.2232 196.965 30.3783 198.126 30.3783 200.449V207.765C30.3783 209.972 29.2232 211.249 27.1441 211.249C25.065 211.249 23.9099 210.088 23.9099 207.765ZM28.2992 207.998V200.449C28.2992 199.404 27.8372 199.055 27.1441 199.055C26.4511 199.055 25.989 199.404 25.989 200.449V207.998C25.989 209.043 26.4511 209.391 27.1441 209.391C27.8372 209.391 28.2992 209.043 28.2992 207.998Z" fill="white"/>
<path d="M31.8799 207.766V206.953H33.959V207.999C33.959 209.044 34.421 209.392 35.1141 209.392C35.8071 209.392 36.2692 209.044 36.2692 207.999C36.2692 206.837 35.8071 206.141 34.421 204.863C32.5729 203.353 31.9954 202.076 31.9954 200.566C31.9954 198.36 33.1505 197.082 35.2296 197.082C37.3087 197.082 38.4638 198.243 38.4638 200.566V201.031H36.3847V200.334C36.3847 199.289 36.0381 198.94 35.3451 198.94C34.6521 198.94 34.3055 199.289 34.3055 200.334C34.3055 201.379 34.7676 202.076 36.1537 203.469C38.0018 204.979 38.5793 206.257 38.5793 207.883C38.5793 210.089 37.4242 211.483 35.3451 211.483C33.3815 211.599 31.8799 210.089 31.8799 207.766Z" fill="white"/>
<path d="M39.8499 197.195H42.0445V211.131H39.8499V197.195Z" fill="white"/>
<path d="M50.1301 209.157V211.248H44.3548V207.996L43.3152 209.041V206.602L44.3548 205.557V197.195H46.5494V203.234L48.975 200.679V203.118L46.5494 205.673V209.273C46.5494 209.157 50.1301 209.157 50.1301 209.157Z" fill="white"/>
<path d="M51.5161 197.195H53.7108V203.002L56.4829 197.195H58.6776L56.1364 202.305L58.6776 211.015H56.4829L54.6348 204.86L53.8263 206.602V211.015H51.6316V197.195H51.5161Z" fill="white"/>
<path d="M59.8328 197.195H62.0274V211.131H59.8328V197.195Z" fill="white"/>
<path d="M67.5718 197.195H70.806C73.0006 197.195 74.0402 198.357 74.0402 200.679V202.073C74.0402 204.28 73.0006 205.557 70.806 205.557H69.6509V211.248H67.4563V197.311H67.5718V197.195ZM70.806 203.467C71.4991 203.467 71.8456 203.118 71.8456 202.073V200.331C71.8456 199.286 71.4991 198.937 70.806 198.937H69.6509V203.234H70.806V203.467Z" fill="white"/>
<path d="M74.9641 207.766V206.953H77.0432V207.999C77.0432 209.044 77.5053 209.392 78.1983 209.392C78.8914 209.392 79.3534 209.044 79.3534 207.999C79.3534 206.837 78.8914 206.141 77.5053 204.863C75.6572 203.353 75.0796 202.076 75.0796 200.566C75.0796 198.36 76.2347 197.082 78.3138 197.082C80.393 197.082 81.548 198.243 81.548 200.566V201.031H79.4689V200.334C79.4689 199.289 79.1224 198.94 78.4293 198.94C77.7363 198.94 77.3898 199.289 77.3898 200.334C77.3898 201.379 77.8518 202.076 79.2379 203.469C81.086 204.979 81.6635 206.257 81.6635 207.883C81.6635 210.089 80.5085 211.483 78.4293 211.483C76.5812 211.599 74.9641 210.089 74.9641 207.766Z" fill="white"/>
<path d="M83.1653 197.195H85.4754V211.131H83.1653V197.195Z" fill="white"/>
<path d="M86.7458 211.25V209.16C86.8614 209.16 87.2079 209.16 87.4389 209.16C88.2474 209.16 88.825 208.812 88.825 207.766V197.082H91.0196V207.766C91.0196 209.973 89.9801 211.25 87.7854 211.25C87.3234 211.25 87.0924 211.25 86.7458 211.25Z" fill="white"/>
<path d="M92.7522 197.195H98.7586V199.286H95.0623V202.886H98.181V204.976H95.0623V209.273H98.7586V211.364H92.7522V197.195Z" fill="white"/>
<path d="M100.029 207.998V200.449C100.029 198.242 101.069 196.965 103.264 196.965C105.458 196.965 106.498 198.126 106.498 200.449V201.959H104.419V200.449C104.419 199.636 103.957 199.055 103.379 199.055C102.917 199.055 102.339 199.404 102.339 200.449V208.114C102.339 208.927 102.801 209.275 103.379 209.275C103.841 209.275 104.419 208.927 104.419 208.114V206.023H106.498V207.882C106.498 210.088 105.458 211.366 103.264 211.366C101.069 211.366 100.029 210.088 100.029 207.998Z" fill="white"/>
<path d="M108.115 197.195H110.309V202.886H112.735V197.195H114.93V211.131H112.735V204.744H110.309V211.131H108.115V197.195Z" fill="white"/>
<path d="M118.279 197.195H121.167L123.362 211.131H121.283L120.936 208.344H118.395L118.048 211.131H115.969L118.279 197.195ZM120.705 206.602L119.665 199.75L118.626 206.602H120.705Z" fill="white"/>
<path d="M131.101 209.157V211.248H125.325V207.996L124.286 209.041V206.602L125.325 205.557V197.195H127.52V203.234L129.946 200.679V203.118L127.52 205.673V209.273C127.52 209.157 131.101 209.157 131.101 209.157Z" fill="white"/>
<path d="M132.833 205.209L130.292 197.195H132.718L134.219 202.305L135.721 197.195H137.8L135.259 205.209V211.248H133.064V205.209H132.833Z" fill="white"/>
<path d="M139.071 203.002V197.195H141.265V203.002L140.919 207.415H139.186L139.071 203.002ZM139.071 209.041H141.15V211.131H139.071V209.041Z" fill="white"/>
<path d="M62.7205 242.955C63.4135 242.955 63.76 242.839 63.76 242.142C63.76 241.678 63.4135 241.329 62.7205 241.329H59.8328V243.071H62.7205V242.955ZM58.7932 240.168H63.067C64.2221 240.168 65.1461 240.981 65.1461 242.026C65.1461 243.187 64.3376 243.884 63.067 243.884H60.0638V246.323H58.9087V240.168H58.7932Z" fill="white"/>
<path d="M65.6082 246.09V245.045C66.3012 245.393 66.9943 245.393 67.6873 245.393C68.7269 245.393 69.1889 245.277 69.1889 244.929C69.1889 244.116 65.4927 245.045 65.4927 243.187C65.4927 242.141 66.5322 241.793 68.0338 241.793C68.4959 241.793 69.4199 241.793 70.2285 241.909V242.722C69.5354 242.606 68.8424 242.606 68.1493 242.606C67.1098 242.606 66.7633 242.722 66.7633 243.07C66.7633 243.883 70.4595 242.954 70.4595 244.812C70.4595 245.858 69.4199 246.206 67.9183 246.206C67.3408 246.322 66.3012 246.206 65.6082 246.09Z" fill="white"/>
<path d="M71.1524 241.91H72.3075V246.207H71.1524V241.91ZM70.9214 240.4C70.9214 239.935 71.2679 239.703 71.6144 239.703C72.0765 239.703 72.3075 239.819 72.3075 240.4C72.3075 240.864 71.961 241.097 71.6144 241.097C71.1524 241.097 70.9214 240.864 70.9214 240.4Z" fill="white"/>
<path d="M77.9675 245.045C78.6605 245.045 79.007 244.928 79.007 244.232C79.007 243.767 78.6605 243.419 77.9675 243.535H74.8488V245.045H77.9675ZM73.4627 240.051H77.852C79.007 240.051 79.7001 240.748 79.7001 241.561C79.7001 242.373 79.007 242.954 77.9675 242.954C79.1225 242.954 79.8156 243.419 79.8156 244.348C79.8156 245.393 79.1225 245.858 77.9675 245.858H73.3472L73.4627 240.051ZM77.7365 242.606C78.4295 242.606 78.776 242.49 78.776 241.909C78.776 241.444 78.4295 241.212 77.7365 241.212H74.8488V242.722L77.7365 242.606Z" fill="white"/>
<path d="M85.9373 246.089H84.5512L84.6668 244.347C84.5512 245.508 83.8582 246.205 82.5876 246.205C81.317 246.205 80.855 245.508 80.7395 243.65V241.792H81.8946V243.534C81.8946 244.928 82.2411 245.276 83.0496 245.276C83.8582 245.276 84.5512 244.463 84.5512 242.837V241.676H85.7063V246.089H85.9373Z" fill="white"/>
<path d="M87.3236 242.608H86.8616V241.795H87.3236V241.562C87.3236 240.517 87.6701 240.053 88.7097 239.82C89.0562 239.82 89.1717 239.82 89.7493 239.936V240.633C89.6337 240.633 89.6338 240.633 89.4027 240.633C88.5942 240.633 88.5942 240.749 88.5942 241.678H89.7493V242.491H88.5942V245.975H87.4391L87.3236 242.608Z" fill="white"/>
<path d="M93.9075 243.421C93.9075 242.608 93.4454 242.375 92.5214 242.375C91.5973 242.375 91.1353 242.724 91.1353 243.537L93.9075 243.421ZM89.9802 243.769C89.9802 242.375 91.0198 241.562 92.5214 241.562C94.023 241.562 95.0625 242.259 95.0625 243.421V244.117H91.2508C91.3663 244.814 91.9438 245.163 93.0989 245.163C94.1385 245.163 94.6005 244.814 94.947 244.698V245.743C94.1385 246.092 93.5609 246.208 92.5214 246.208C91.0198 246.092 89.9802 245.163 89.9802 243.769Z" fill="white"/>
<path d="M96.2177 244.347V242.489H95.5247V241.56H96.3332V240.515L97.3728 240.398V241.56H98.5279V242.373H97.3728V243.882C97.3728 244.695 97.3728 244.928 98.1813 244.928C98.2968 244.928 98.5279 244.928 98.6434 244.928V245.625C98.2968 245.741 97.9503 245.741 97.4883 245.741C96.3332 245.857 96.2177 245.508 96.2177 244.347Z" fill="white"/>
<path d="M18.3656 178.152C18.3656 178.152 18.4811 178.035 18.4811 177.803C18.5966 177.455 18.8276 177.339 18.5966 176.99C18.5966 176.874 18.5966 176.874 18.4811 176.642C18.3656 176.526 18.0191 176.526 17.788 176.642C17.326 176.758 17.095 177.106 16.9795 177.687C16.9795 178.035 16.9795 178.152 17.326 178.384C17.788 178.5 18.0191 178.5 18.3656 178.152Z" fill="white"/>
<path d="M19.7518 179.893C20.0983 179.893 20.4448 179.893 20.7913 179.777C20.9068 179.661 21.1378 179.428 21.1378 179.312C21.1378 179.196 21.1378 179.196 21.0223 178.964C20.9068 178.848 20.6758 178.848 20.5603 178.848C20.2138 178.848 19.7518 178.848 19.5207 179.312C19.4052 179.312 19.6362 179.893 19.7518 179.893Z" fill="white"/>
<path d="M18.7122 182.795C18.8277 182.678 18.8277 182.446 19.0587 182.33C19.1742 182.214 19.1742 181.865 19.4052 181.633C19.5208 180.82 19.5208 180.472 18.9432 179.891C18.8277 179.775 18.5967 179.775 18.5967 179.775C18.2502 179.659 18.1347 179.659 17.7881 179.427C17.3261 179.31 16.9796 179.427 16.4021 179.427C16.0555 179.543 15.709 179.775 15.3625 179.775C15.016 179.891 14.9005 180.24 15.016 180.588C15.016 180.704 15.1315 180.936 15.3625 181.052C15.478 181.169 15.8245 181.517 16.0555 181.749C16.4021 181.865 16.4021 182.214 16.5176 182.562C16.5176 182.678 16.6331 183.027 16.6331 183.259C16.6331 183.491 16.7486 183.375 16.7486 183.375C17.0951 183.491 17.4416 183.491 17.7881 183.375C17.9037 183.259 18.1347 183.259 18.2502 183.027C18.3657 182.911 18.5967 182.911 18.7122 182.795Z" fill="white"/>
<path d="M21.4843 181.866C21.5999 181.518 21.5999 181.401 21.3688 181.169C21.0223 181.053 20.5603 181.053 20.2138 181.169C19.8672 181.285 19.8672 181.518 20.0983 181.634C20.2138 181.982 20.5603 182.098 20.7913 182.098C21.1378 182.214 21.3688 182.098 21.4843 181.866Z" fill="white"/>
<path d="M21.1378 163.749C21.1378 163.749 21.2533 163.633 21.2533 163.401C21.3688 163.053 21.5998 162.936 21.3688 162.588C21.3688 162.472 21.3688 162.472 21.2533 162.24C21.1378 162.007 20.7913 162.123 20.5603 162.24C20.0982 162.356 19.8672 162.704 19.7517 163.285C19.7517 163.633 19.7517 163.749 20.0982 163.982C20.4448 164.098 20.7913 164.098 21.1378 163.749Z" fill="white"/>
<path d="M22.5239 165.491C22.8704 165.491 23.2169 165.491 23.5635 165.374C23.679 165.258 23.91 165.026 23.91 164.91C23.91 164.794 23.91 164.794 23.7945 164.561C23.679 164.445 23.4479 164.445 23.3324 164.445C22.9859 164.445 22.5239 164.445 22.2929 164.91C22.1774 164.91 22.2929 165.491 22.5239 165.491Z" fill="white"/>
<path d="M21.4844 168.396C21.5999 168.28 21.5999 168.048 21.8309 167.932C21.9465 167.815 21.9465 167.467 22.1775 167.235C22.293 166.422 22.293 166.073 21.7154 165.493C21.5999 165.377 21.3689 165.377 21.3689 165.377C21.0224 165.26 20.9069 165.26 20.5604 165.028C20.0983 164.912 19.7518 165.028 19.1743 165.028C18.8278 165.144 18.4812 165.377 18.1347 165.377C17.7882 165.493 17.6727 165.841 17.7882 166.19C17.7882 166.306 17.9037 166.538 18.1347 166.654C18.2502 166.77 18.5967 167.119 18.8278 167.351C19.1743 167.467 19.1743 167.815 19.2898 168.164C19.2898 168.28 19.4053 168.628 19.4053 168.861C19.4053 169.093 19.5208 168.977 19.5208 168.977C19.8673 169.093 20.2138 169.093 20.5604 168.977C20.6759 168.861 20.9069 168.861 21.0224 168.628C21.1379 168.744 21.3689 168.512 21.4844 168.396Z" fill="white"/>
<path d="M24.2566 167.467C24.3721 167.119 24.3721 167.003 24.1411 166.771C23.7945 166.655 23.3325 166.655 22.986 166.771C22.6395 166.887 22.6395 167.119 22.8705 167.235C22.986 167.584 23.3325 167.7 23.5635 167.7C23.91 167.816 24.0255 167.816 24.2566 167.467Z" fill="white"/>
<path d="M34.4212 174.085C34.4212 174.085 34.5368 173.969 34.5368 173.737C34.6523 173.388 34.8833 173.272 34.6523 172.924C34.6523 172.808 34.6523 172.808 34.5368 172.576C34.4212 172.343 34.0747 172.459 33.8437 172.576C33.3817 172.692 33.1507 173.04 33.0352 173.621C33.0352 173.969 33.0352 174.085 33.3817 174.318C33.7282 174.434 34.0747 174.434 34.4212 174.085Z" fill="white"/>
<path d="M35.9227 175.713C36.2692 175.713 36.6157 175.713 36.9622 175.597C37.0777 175.481 37.3087 175.249 37.3087 175.133C37.3087 175.016 37.3087 175.016 37.1932 174.784C37.0777 174.668 36.8467 174.668 36.7312 174.668C36.3847 174.668 35.9227 174.668 35.6916 175.133C35.4606 175.249 35.6916 175.713 35.9227 175.713Z" fill="white"/>
<path d="M34.7676 178.615C34.8831 178.499 34.8831 178.266 35.1141 178.15C35.2297 178.034 35.2297 177.686 35.4607 177.453C35.5762 176.641 35.5762 176.292 34.9986 175.711C34.8831 175.595 34.6521 175.595 34.6521 175.595C34.3056 175.479 34.1901 175.479 33.8436 175.247C33.3815 175.131 33.035 175.247 32.4575 175.247C32.111 175.363 31.7644 175.595 31.4179 175.595C31.0714 175.711 30.9559 176.06 31.0714 176.408C31.0714 176.524 31.1869 176.757 31.4179 176.873C31.6489 176.989 31.8799 177.337 32.111 177.57C32.4575 177.686 32.4575 178.034 32.573 178.383C32.573 178.499 32.6885 178.847 32.6885 179.079C32.6885 179.312 32.804 179.196 32.804 179.196C33.1505 179.312 33.497 179.312 33.8436 179.196C33.9591 179.079 34.1901 179.079 34.3056 178.847C34.4211 178.847 34.6521 178.847 34.7676 178.615Z" fill="white"/>
<path d="M37.6555 177.803C37.771 177.455 37.771 177.339 37.54 177.107C37.1935 176.99 36.7314 176.99 36.3849 177.107C36.0384 177.223 36.0384 177.455 36.2694 177.571C36.3849 177.92 36.7314 178.036 36.9624 178.036C37.1935 178.152 37.309 178.036 37.6555 177.803Z" fill="white"/>
<path d="M37.8863 160.847C37.8863 160.847 38.0018 160.731 38.0018 160.499C38.1173 160.15 38.3484 160.034 38.1173 159.686C38.1173 159.569 38.1173 159.569 38.0018 159.337C37.8863 159.105 37.5398 159.221 37.3088 159.337C36.8468 159.453 36.6158 159.802 36.5002 160.382C36.5002 160.731 36.5002 160.847 36.8468 161.079C37.1933 160.963 37.6553 160.963 37.8863 160.847Z" fill="white"/>
<path d="M39.3881 162.358C39.7346 162.358 40.0811 162.358 40.4276 162.242C40.5431 162.125 40.7742 161.893 40.7742 161.777C40.7742 161.661 40.7742 161.661 40.6586 161.429C40.5431 161.313 40.3121 161.312 40.1966 161.312C39.8501 161.312 39.3881 161.313 39.1571 161.777C38.926 161.893 39.0415 162.358 39.3881 162.358Z" fill="white"/>
<path d="M38.233 165.259C38.3485 165.143 38.3485 164.911 38.5795 164.795C38.8105 164.679 38.695 164.33 38.926 164.098C39.0415 163.285 39.0415 162.937 38.464 162.356C38.3485 162.24 38.1175 162.24 38.1175 162.24C37.7709 162.124 37.6554 162.124 37.3089 161.891C36.8469 161.775 36.5003 161.891 35.9228 161.891C35.5763 162.008 35.2298 162.24 34.8832 162.24C34.5367 162.356 34.4212 162.704 34.5367 163.053C34.5367 163.169 34.6522 163.401 34.8832 163.517C34.9988 163.633 35.3453 163.982 35.5763 164.214C35.9228 164.33 35.9228 164.679 36.0383 165.027C36.0383 165.143 36.1538 165.492 36.1538 165.724C36.1538 165.84 36.2693 165.84 36.2693 165.84C36.6159 165.956 36.9624 165.956 37.3089 165.84C37.4244 165.724 37.6554 165.724 37.7709 165.492C38.0019 165.608 38.0019 165.492 38.233 165.259Z" fill="white"/>
<path d="M41.1206 164.448C41.2361 164.1 41.2361 163.984 41.0051 163.751C40.7741 163.519 40.1965 163.635 39.85 163.751C39.5035 163.867 39.5035 164.1 39.7345 164.216C39.85 164.564 40.1965 164.68 40.4275 164.68C40.543 164.913 40.8896 164.797 41.1206 164.448Z" fill="white"/>
<path d="M50.8231 166.886C50.8231 166.886 50.9386 166.77 50.9386 166.538C51.0541 166.189 51.2851 166.073 51.0541 165.725C51.0541 165.608 51.0541 165.608 50.9386 165.376C50.8231 165.26 50.4766 165.26 50.2456 165.376C49.7835 165.492 49.5525 165.841 49.437 166.421C49.437 166.77 49.437 166.886 49.7835 167.118C50.1301 167.35 50.4766 167.234 50.8231 166.886Z" fill="white"/>
<path d="M52.2093 168.51C52.5558 168.51 52.9024 168.51 53.2489 168.394C53.3644 168.278 53.5954 168.046 53.5954 167.929C53.5954 167.813 53.5954 167.813 53.4799 167.581C53.3644 167.465 53.1334 167.465 53.0179 167.465C52.6713 167.465 52.2093 167.465 51.9783 167.929C51.6318 168.046 51.8628 168.51 52.2093 168.51Z" fill="white"/>
<path d="M50.9388 171.416C51.0543 171.299 51.0543 171.067 51.2853 170.951C51.4008 170.835 51.4008 170.487 51.6318 170.254C51.7473 169.441 51.7473 169.093 51.1698 168.512C50.9388 168.396 50.8233 168.396 50.8233 168.396C50.4767 168.28 50.3612 168.28 50.0147 168.048C49.5527 167.932 49.2062 168.048 48.6286 168.048C48.2821 168.164 47.9356 168.396 47.5891 168.396C47.2425 168.512 47.127 168.861 47.2425 169.209C47.2425 169.325 47.358 169.557 47.5891 169.674C47.7046 169.79 48.0511 170.138 48.2821 170.37C48.6286 170.487 48.6286 170.835 48.7441 171.183C48.7441 171.299 48.8596 171.648 48.8596 171.88C48.8596 172.112 48.9751 171.996 48.9751 171.996C49.3217 172.112 49.6682 172.112 50.0147 171.996C50.1302 171.88 50.3612 171.88 50.4767 171.648C50.8233 171.764 50.9388 171.648 50.9388 171.416Z" fill="white"/>
<path d="M53.8264 170.6C53.9419 170.252 53.9419 170.136 53.7109 169.904C53.3644 169.787 52.9023 169.787 52.5558 169.904C52.2093 170.02 52.2093 170.252 52.4403 170.368C52.5558 170.716 52.9023 170.833 53.1333 170.833C53.3644 170.949 53.7109 170.949 53.8264 170.6Z" fill="white"/>
<path d="M157.321 258.169C155.819 258.169 157.321 258.169 155.819 258.169C156.512 256.427 150.16 257.007 148.196 257.123C143.576 257.123 136.414 257.588 131.794 257.24C117.586 258.052 109.154 257.588 95.8711 257.704C85.0134 257.82 74.0402 258.401 63.298 258.517C50.4767 258.633 39.7345 258.633 27.0287 258.865C19.1742 258.865 11.3197 258.982 3.00316 257.82C2.88765 257.936 2.65664 257.936 2.31012 257.936C1.61707 257.936 0.808523 257.936 0.115479 257.936C0.230986 260.027 1.61707 260.027 9.81809 260.491C23.679 261.188 35.9228 260.956 49.8991 260.607C60.7568 260.491 71.8455 260.143 82.9342 259.911C89.4027 259.911 95.7556 259.794 101.993 260.027C116.431 259.911 126.712 259.214 140.688 259.562C144.384 259.678 151.546 259.214 155.473 259.098C156.281 259.098 157.205 258.749 158.014 258.401C157.898 258.865 157.552 258.401 157.321 258.169Z" fill="black"/>
<path d="M0.461972 253.29C0.461972 254.8 0.461972 256.194 0.461972 257.355C0.808494 257.355 1.15502 257.355 1.61705 257.239H1.73255C2.77212 254.336 2.4256 250.852 2.4256 247.6C2.4256 236.799 2.31009 225.999 2.07907 215.314C2.07907 207.069 2.07907 198.823 2.19458 190.81C2.31009 184.074 2.31009 189.3 2.5411 182.797C2.88763 172.809 3.00313 162.938 3.23415 152.602C2.5411 152.718 1.84806 152.718 1.15502 152.718C1.15502 152.834 1.15502 152.834 1.15502 153.066C1.15502 153.879 1.15502 154.576 1.15502 155.273C0.808494 163.634 0.808494 171.88 0.692986 180.358C0.577479 186.861 0.692986 181.868 0.577479 188.371C0.461972 193.133 0.230957 198.126 0.230957 203.12C0.230957 208.927 0.577479 214.734 0.577479 220.657V253.174H0.461972V253.29Z" fill="black"/>
<path d="M180.076 140.755C179.036 140.755 177.881 140.639 176.842 140.639C169.68 140.755 162.519 140.523 155.473 140.291C147.503 140.174 157.552 139.942 149.698 139.942C143.922 139.942 138.262 139.942 132.487 139.942C126.712 139.942 121.052 139.826 115.276 139.826C107.306 139.826 98.8743 139.826 90.9043 139.71C86.284 139.71 81.6637 139.594 76.9279 139.594C69.651 139.594 62.2585 139.594 54.9815 139.594C51.5163 139.594 48.1666 139.594 44.9324 139.594C43.7773 139.594 42.7377 139.594 41.4672 139.71C39.619 139.71 38.0019 139.826 36.5003 140.174C35.8073 140.291 35.1143 140.291 34.4212 140.523C33.7282 140.871 33.0351 141.22 31.9956 141.568C24.9496 144.007 17.7882 146.562 10.6267 148.885C9.12511 149.001 7.3925 149.581 6.23742 150.046C5.42887 150.394 4.38931 150.743 3.11873 150.859C3.11873 150.859 3.00322 150.859 3.00322 150.975C4.04278 150.975 5.19786 150.975 6.23742 150.975C6.93047 150.627 7.62351 150.278 8.43206 149.93C16.7486 147.143 25.1806 144.471 33.3816 141.684C34.0747 141.568 34.7677 141.22 35.2298 140.987C35.1143 140.987 35.1143 140.871 35.2298 140.871C36.2693 140.407 38.0019 140.058 39.5035 139.826C39.619 139.826 39.9656 139.826 40.3121 139.826C40.7741 139.826 41.6982 139.826 42.3912 139.826C56.2521 139.942 69.9975 139.942 83.9739 140.174C94.023 140.174 104.303 140.291 114.352 140.291C132.602 140.407 132.949 140.407 151.199 140.639C156.974 140.639 162.75 140.987 168.641 140.987C169.334 140.987 171.875 141.104 173.261 141.104C172.799 141.452 168.641 143.542 167.486 144.239C160.44 148.188 161.364 148.536 154.664 150.743C150.391 152.136 132.14 150.859 123.477 150.859C114.237 150.859 104.881 150.859 95.6401 150.859C90.9043 150.859 86.284 150.859 81.4327 150.859C75.3108 150.859 69.1889 150.975 63.1825 150.975C54.9815 150.975 46.665 150.975 38.464 150.975C38.3485 150.975 38.1175 150.975 38.0019 150.975H34.3057C31.0715 151.323 15.247 151.323 8.08554 150.975C7.97003 151.091 7.73902 151.091 7.3925 151.091C5.8909 151.091 4.2738 151.091 2.6567 151.091C2.54119 151.207 2.19467 151.439 1.84814 151.788C3.34974 151.788 4.73583 151.788 6.12192 151.788C6.58395 151.788 6.93047 151.788 6.93047 151.904H10.3957C15.3625 151.904 20.0983 152.02 24.8341 152.02C30.2629 152.02 35.9228 151.904 41.3517 151.904C55.328 151.788 69.1889 151.788 82.9343 151.556C92.1749 151.556 101.531 151.556 110.772 151.439C119.666 151.323 128.213 151.439 136.876 151.788C142.998 151.904 155.819 152.136 154.664 152.136C156.05 152.02 164.367 147.723 172.683 142.846C173.492 142.381 175.109 142.381 175.918 142.033C176.38 141.684 177.073 141.684 177.766 141.568C178.574 141.22 179.614 141.104 180.885 140.871C180.538 140.755 180.422 140.755 180.076 140.755Z" fill="black" stroke="black" stroke-width="0.369" stroke-miterlimit="10"/>
<path d="M179.152 220.538C179.152 220.422 179.152 220.19 179.267 220.074C179.267 219.261 179.267 218.68 179.152 218.216C179.152 208.809 179.267 199.402 179.498 189.879C179.498 181.169 179.498 172.343 179.498 163.632C179.498 163.284 179.498 163.168 179.498 162.936C179.498 156.2 179.845 149.58 179.96 142.844C179.96 142.031 179.96 141.335 179.152 140.754C179.036 141.218 178.805 141.567 178.805 142.148C178.69 150.045 178.459 158.058 178.459 165.839C178.459 175.594 178.459 176.988 178.459 186.743C178.459 198.241 178.343 209.738 178.112 221.235C178.112 221.932 178.228 222.397 178.228 222.977C178.574 222.977 178.69 222.977 179.036 222.977C179.152 222.164 179.152 221.351 179.152 220.538Z" fill="black" stroke="black" stroke-width="0.369" stroke-miterlimit="10"/>
<path d="M117.933 60.2752C117.586 60.0429 117.355 59.8106 117.124 59.5783C115.854 58.0686 114.352 56.7911 112.851 55.5136C111.58 54.4684 110.425 53.3071 109.385 52.1457C108.923 51.6812 109.039 51.1005 109.616 50.9844C109.732 50.9844 109.963 50.9844 110.194 51.1005C110.425 51.2166 110.656 51.4489 110.772 51.565C112.158 52.8425 113.659 54.12 115.045 55.5136C116.085 56.4427 117.009 57.3718 117.933 58.1847C118.857 58.9977 118.857 59.2299 117.933 60.2752Z" fill="black"/>
<path d="M122.784 44.1354C122.438 44.9484 121.86 45.1807 121.167 45.2968C120.243 45.2968 119.319 45.2968 118.279 45.2968C116.662 45.2968 114.93 45.4129 113.313 45.4129C113.197 45.4129 112.966 45.4129 112.851 45.4129C112.273 45.4129 112.042 45.1807 112.042 44.8323C112.042 44.4839 112.273 44.2516 112.735 44.1354C112.966 44.1354 113.313 44.0193 113.544 44.1354C115.854 44.2516 118.164 44.1354 120.359 43.9032C120.936 43.787 121.514 43.9032 122.091 43.9032C122.322 43.9032 122.553 44.0193 122.784 44.1354Z" fill="black"/>
<path d="M119.666 34.6112C119.088 34.8435 118.626 35.0758 118.164 35.3081C117.471 35.6565 116.778 36.0049 116.085 36.3533C114.468 37.1662 112.966 37.9792 111.465 38.7921C111.234 38.9082 110.887 39.0244 110.656 38.676C110.425 38.3276 110.541 38.0953 110.887 37.863C111.234 37.6307 111.465 37.3985 111.811 37.2823C113.89 36.2371 115.854 35.1919 117.933 34.1467C118.626 33.6822 118.742 33.7983 119.666 34.6112Z" fill="black"/>
<path d="M46.6647 60.2752C47.0113 60.0429 47.2423 59.8106 47.4733 59.5783C48.7439 58.0686 50.2455 56.7911 51.747 55.5136C53.0176 54.4684 54.1727 53.3071 55.2123 52.1457C55.6743 51.6812 55.5588 51.1005 54.9813 50.9844C54.8657 50.9844 54.6347 50.9844 54.4037 51.1005C54.1727 51.2166 53.9417 51.4489 53.8262 51.565C52.4401 52.8425 50.9385 54.12 49.5524 55.5136C48.5128 56.4427 47.5888 57.3718 46.6647 58.1847C45.7407 58.9977 45.6252 59.2299 46.6647 60.2752Z" fill="black"/>
<path d="M41.8135 44.1354C42.16 44.9484 42.7375 45.1807 43.4306 45.2968C44.3546 45.2968 45.2787 45.2968 46.3183 45.2968C47.9354 45.2968 49.668 45.4129 51.2851 45.4129C51.4006 45.4129 51.6316 45.4129 51.7471 45.4129C52.3246 45.4129 52.5557 45.1807 52.5557 44.8323C52.5557 44.4839 52.3246 44.2516 51.8626 44.1354C51.6316 44.1354 51.2851 44.0193 51.0541 44.1354C48.7439 44.2516 46.4338 44.1354 44.2391 43.9032C43.6616 43.787 43.0841 43.9032 42.5065 43.9032C42.2755 43.9032 42.0445 44.0193 41.8135 44.1354Z" fill="black"/>
<path d="M44.9321 34.6112C45.5097 34.8435 45.9717 35.0758 46.4337 35.3081C47.1268 35.6565 47.8198 36.0049 48.5129 36.3533C50.13 37.1662 51.6316 37.9792 53.1331 38.7921C53.3642 38.9082 53.7107 39.0244 53.9417 38.676C54.1727 38.3276 54.0572 38.0953 53.7107 37.863C53.3642 37.6307 53.1332 37.3985 52.7866 37.2823C50.7075 36.2371 48.7439 35.1919 46.6647 34.1467C45.9717 33.6822 45.8562 33.7983 44.9321 34.6112Z" fill="black"/>
<path d="M143.807 142.383C142.651 143.312 141.15 144.009 139.764 144.706C134.45 147.261 128.675 149.816 122.9 148.887C122.669 148.887 122.438 148.771 122.207 148.771C121.052 148.538 119.897 148.074 119.203 147.145C118.395 146.1 118.279 144.241 119.435 143.428C114.583 142.035 109.501 141.686 104.534 142.267C104.534 142.267 104.534 142.267 104.419 142.267C103.726 142.383 102.917 142.499 102.339 142.964C101.762 143.428 101.415 144.241 100.953 144.938C99.3362 147.958 96.4486 150.28 93.2143 151.209C91.4817 151.674 89.5181 151.79 87.7855 151.209C87.3235 151.093 86.7459 150.861 86.2839 150.513C84.3203 149.235 83.1652 146.448 84.0893 144.357C82.8187 144.706 81.2016 144.009 80.6241 142.848C80.0465 141.57 80.6241 139.944 81.7791 139.248C83.2807 138.435 85.9374 138.667 86.0529 136.925C86.0529 136.112 85.3599 135.415 84.7823 134.718C83.7427 133.557 83.2807 132.047 82.7032 130.654C80.393 124.731 76.9278 119.389 72.5385 114.859C72.0765 114.395 71.6145 113.698 71.0369 113.233C71.0369 113.233 70.9214 113.233 70.9214 113.117C70.6904 112.885 70.4594 112.885 70.2284 113.117C69.0733 114.743 68.3803 114.743 67.9182 117.298C67.4562 119.737 65.4926 122.292 65.8391 124.731C65.9546 125.311 65.9546 125.776 66.0701 126.357C66.1856 127.402 66.0701 128.331 66.0701 129.376C65.6081 134.138 63.529 138.667 60.1792 141.919C57.1761 144.822 53.1333 146.796 48.975 147.377C46.8959 147.609 44.8168 147.609 42.8531 147.261C42.1601 147.145 41.3516 146.912 40.8895 146.448C39.2724 144.822 41.4671 142.151 43.4307 140.873C47.9355 138.202 53.0178 135.415 54.8659 130.421C55.6745 128.099 55.79 125.66 55.79 123.105C55.9055 109.865 55.559 96.6261 54.6349 83.3867C54.5194 81.1802 54.2884 78.8575 54.9814 76.6509C56.3675 71.7733 61.3343 68.7538 63.0669 63.9922C65.9546 56.4435 60.6413 46.9204 59.6017 39.3717C59.2552 36.3522 58.1001 33.9133 56.945 31.2422C56.8295 31.01 56.8295 30.8938 56.714 30.6616C54.6349 25.5516 55.559 21.4869 56.1365 16.1447C56.3675 13.7059 56.252 11.0348 56.5985 8.59595C56.945 6.27326 57.5226 4.0667 59.1397 2.44081C59.4862 2.09241 59.8327 1.744 60.2948 1.62787C60.8723 1.51173 61.4498 1.744 61.9119 2.09241C65.9546 4.4151 69.3043 7.89914 71.268 12.08C72.0765 13.7059 72.7695 15.4479 74.1556 16.4931C75.1952 17.1899 76.5813 17.4222 77.9674 17.5383C80.5085 17.7706 83.0497 18.119 85.4754 18.3513C88.132 18.5835 91.0197 18.9319 93.5609 18.0029C94.1384 17.7706 94.6004 17.5383 95.178 17.3061C98.4122 15.3318 100.838 11.7316 103.61 9.06049C105.227 7.55074 107.075 6.38939 109.385 6.04099C110.078 5.92485 110.887 6.04099 111.58 6.38939C112.735 7.20233 112.851 8.94436 112.735 10.338C112.389 15.564 112.042 20.7901 111.58 26.0162C111.465 27.0614 111.465 28.1066 111.002 29.0357C110.425 30.197 109.385 31.1261 108.461 32.0552C103.957 36.4683 101.877 43.3202 103.263 49.5915C103.61 51.2174 104.188 52.7272 104.765 54.2369C105.343 55.3983 105.92 56.5596 106.613 57.721C107.537 59.3468 108.577 60.8566 109.616 62.3664C111.002 64.4568 112.389 66.5472 113.775 68.6376C113.775 68.7538 113.89 68.8699 114.006 68.8699C114.121 69.1022 114.237 69.2183 114.352 69.4506C118.626 75.9541 122.9 82.3415 127.174 88.8451C129.946 93.0259 132.718 97.2068 135.721 101.271C138.031 104.407 140.457 107.427 142.42 110.795C142.651 111.259 142.998 111.724 143.229 112.072C146.001 117.066 147.734 122.524 148.08 128.215C148.658 133.325 147.734 139.131 143.807 142.383Z" fill="white"/>
<path d="M63.6445 22.2977C62.7205 23.5751 60.8724 23.9235 59.7173 24.9688C59.1398 25.5494 58.7932 26.2462 58.4467 27.0592C57.9847 28.3367 57.6382 29.7303 57.4072 31.0078C57.4072 31.1239 57.4071 31.1239 57.2916 31.24C57.1761 31.0078 57.1761 30.8916 57.0606 30.6594C54.9815 25.5494 55.9056 21.4847 56.4831 16.1425C56.7141 13.7037 56.5986 11.0326 56.9451 8.59375C57.9847 9.52283 59.2553 10.2196 60.2948 11.2648C61.7964 12.7746 62.7205 14.7489 63.529 16.7232C63.8756 17.6523 64.2221 18.5813 64.3376 19.5104C64.3376 20.5556 64.2221 21.6008 63.6445 22.2977Z" fill="#BABAB9"/>
<path d="M65.7236 36.1207C65.9546 33.3335 67.5717 30.8946 69.5353 28.9203C69.8819 28.5719 70.2284 28.2235 70.6904 28.1074C71.961 27.759 73.2316 28.8042 74.0401 29.8494C74.9642 30.8946 75.8882 32.056 76.3503 33.4496C76.8123 34.8432 76.8123 36.353 76.0038 37.6305C76.6968 38.3273 77.7364 38.2111 78.7759 38.095C80.2775 37.8627 81.7791 37.7466 83.2807 37.5143C84.2048 37.3982 85.2443 37.282 86.0529 36.8175C87.439 36.1207 88.132 34.6109 89.1716 33.4496C90.4422 32.056 92.1748 31.243 94.0229 31.1269C95.871 31.0108 97.7191 31.9398 98.7587 33.5657C100.029 35.54 99.6828 38.3273 98.5277 40.4177C97.6036 42.1597 96.2175 43.6695 95.7555 45.6437C95.2935 47.9664 96.333 50.4053 97.1416 52.6118C97.9501 54.9345 98.2967 57.7218 96.7951 59.4638C95.64 60.7413 93.7919 61.0897 92.0593 61.3219C90.3267 61.4381 88.5941 61.4381 86.977 62.251C86.3994 62.4833 85.9374 62.9478 85.3599 63.1801C84.3203 63.6446 83.1652 63.7608 82.0101 63.8769C80.9706 63.993 79.931 63.993 79.0069 63.8769C77.0433 63.4124 75.4262 62.0187 73.4626 61.5542C71.73 61.2058 69.8819 61.6703 68.0338 61.4381C67.6872 61.4381 67.3407 61.3219 67.1097 61.0897C66.8787 60.8574 66.7632 60.6251 66.6477 60.2767C66.0701 58.6508 65.4926 57.025 65.4926 55.3991C65.3771 51.6828 67.9182 48.6632 68.0338 45.0631C68.0338 43.6695 67.3407 42.6242 66.6477 41.4629C65.9546 39.6047 65.4926 37.8627 65.7236 36.1207Z" fill="#BABAB9"/>
<path d="M104.534 25.087C103.956 25.2031 103.263 25.087 102.686 24.8547C100.26 23.9256 94.0228 21.1384 95.1779 17.5382C95.1779 17.4221 95.2934 17.1898 95.4089 17.0737C98.6431 15.0994 101.069 11.4992 103.841 8.82812C104.187 8.82812 104.649 9.06039 104.88 9.29266C105.343 9.7572 105.574 10.5701 105.574 11.267C105.689 12.196 105.689 13.1251 105.458 14.0542C105.227 15.4478 104.88 16.8414 104.996 18.235C105.111 19.5125 105.805 20.6739 105.92 21.9514C106.267 23.2288 105.689 24.8547 104.534 25.087Z" fill="#BABAB9"/>
<path d="M106.729 57.7205C106.613 58.5335 106.498 59.3464 106.267 60.1593C106.151 60.6239 105.92 61.2046 105.689 61.6691C105.574 62.0175 104.996 62.7143 104.996 63.0627C104.072 64.6886 102.686 65.9661 101.762 67.592C100.722 69.334 100.145 71.3083 99.4518 73.1664C98.7588 75.0246 97.9502 76.9989 96.5641 78.5086C95.178 80.0184 93.0989 80.9475 91.1353 80.5991C89.4027 80.2507 88.0166 78.9732 86.284 78.3925C84.6669 77.8118 82.9343 77.8118 81.3171 77.928C79.5845 77.928 77.8519 78.0441 76.3503 77.3473C74.8487 76.6505 73.4626 75.2569 73.4626 73.5148C73.4626 72.3535 74.1557 71.3083 75.0798 70.7276C76.0038 70.1469 77.2744 70.1469 78.1984 70.7276C78.8915 71.1922 79.469 71.889 80.3931 72.1212C81.7792 72.4696 83.0498 71.3083 84.4358 71.1922C85.2444 71.1922 86.0529 71.4244 86.746 71.889C87.3235 72.2374 87.7856 72.5858 88.4786 72.7019C89.0561 72.818 89.7492 72.818 90.2112 72.3535C90.5577 72.0051 90.6732 71.5406 90.9043 71.1922C91.9438 69.2179 94.8315 69.2179 96.4486 67.7081C96.7951 67.3597 97.1417 66.779 97.3727 66.3145C99.2208 63.1789 101.184 60.2755 102.455 56.7914C102.802 55.7462 103.379 55.0494 104.534 54.5849C104.765 54.4687 104.881 54.4688 104.996 54.4688C105.458 55.3978 106.036 56.5592 106.729 57.7205Z" fill="#BABAB9"/>
<path d="M93.6764 126.239C93.5609 128.213 93.5609 130.071 93.4454 132.046C93.3299 134.485 93.2144 136.923 92.1748 139.13C91.3662 140.756 90.0957 142.15 89.0561 143.659C88.0165 145.169 87.208 147.143 87.67 148.885C87.901 149.582 88.2475 150.395 87.901 151.092C87.439 150.976 86.8615 150.743 86.3994 150.395C84.4358 149.118 83.2807 146.33 84.2048 144.24C82.9342 144.588 81.3171 143.892 80.7396 142.73C80.162 141.453 80.7396 139.827 81.8946 139.13C83.3962 138.317 86.0529 138.549 86.1684 136.807C86.1684 135.994 85.4754 135.298 84.8978 134.601C83.8583 133.439 83.3962 131.93 82.8187 130.536C80.5085 124.613 77.0433 119.271 72.6541 114.742C72.192 114.277 71.73 113.58 71.1525 113.116C71.1525 113 71.268 113 71.268 113L71.0369 113.116L70.4594 113.348C68.3803 117.413 66.7632 121.826 66.3011 126.239C66.1856 127.284 66.1856 128.213 66.3011 129.259C65.8391 134.02 63.76 138.549 60.4103 141.801C57.4071 144.704 53.3643 146.679 49.2061 147.259C49.2061 147.027 49.3216 146.795 49.3216 146.679C50.2456 143.775 53.1333 142.15 55.2124 139.943C58.2156 136.575 59.0242 131.697 60.4103 127.4C61.4498 124.265 62.8359 121.245 64.222 118.11C64.9151 116.484 65.7236 114.858 66.7632 113.464C66.9942 113.232 67.2252 112.884 67.5717 112.767C67.9182 112.651 68.2648 112.651 68.6113 112.651C69.6509 112.651 70.6904 112.535 71.73 112.651C71.8455 112.535 72.0765 112.535 72.3075 112.535L71.961 112.651C72.8851 112.651 73.9246 112.767 74.8487 113.232C76.2348 113.813 77.7364 114.626 79.007 115.555C81.3171 117.297 83.7428 119.271 86.6304 119.619C88.4786 119.852 90.5577 119.503 92.0593 120.665C93.6764 121.942 93.6764 124.265 93.6764 126.239Z" fill="#BABAB9"/>
<path d="M135.837 141.572C134.335 142.733 132.602 143.198 130.754 143.662C129.022 144.127 127.174 144.707 125.787 145.869C124.863 146.566 124.17 147.611 123.246 148.191C122.9 148.424 122.553 148.656 122.207 148.772C121.052 148.54 119.897 148.075 119.204 147.146C118.395 146.101 118.279 144.243 119.435 143.43C114.583 142.036 109.501 141.688 104.534 142.269C104.188 139.946 104.188 137.623 104.419 135.417C104.534 133.675 104.534 131.468 105.343 129.842C105.92 128.681 107.191 128.1 108.346 127.519C110.425 126.474 112.389 125.429 114.352 124.384C116.547 123.222 118.857 122.177 121.283 121.597C121.629 121.48 121.976 121.48 122.322 121.48C122.669 121.597 123.015 121.713 123.246 121.945C125.903 123.687 128.675 125.429 130.523 128.1C131.447 129.494 132.14 131.004 133.18 132.165C134.681 133.675 136.876 134.72 137.569 136.694C138.262 138.436 137.223 140.41 135.837 141.572Z" fill="#BABAB9"/>
<path d="M114.006 68.9863C114.006 69.1025 114.006 69.2186 114.006 69.3347C113.89 69.3347 113.89 69.2186 113.775 69.2186V68.754L113.89 67.4766C114.006 67.9411 114.006 68.4056 114.006 68.9863Z" fill="#BABAB9"/>
<path d="M142.536 110.796C141.612 111.144 140.572 110.912 139.764 110.564C138.609 109.983 137.685 109.17 136.761 108.357C134.797 106.731 132.602 105.57 130.639 104.06C128.675 102.55 126.827 100.692 125.903 98.3696C125.556 97.4405 125.441 96.5115 125.094 95.5824C124.748 94.6533 124.17 93.8404 123.593 93.0274C121.398 90.0079 118.626 87.3368 117.124 83.9689C116.316 82.2269 115.854 80.2526 115.507 78.3944C114.814 75.3749 114.121 72.3554 114.006 69.3359C114.121 69.4521 114.237 69.4521 114.352 69.5682C118.626 76.0718 122.9 82.4592 127.173 88.9627C129.946 93.1436 132.718 97.3244 135.721 101.389C138.147 104.409 140.572 107.428 142.536 110.796Z" fill="#BABAB9"/>
<path d="M68.9577 67.2446C69.5353 67.8253 70.2283 68.406 70.4593 69.2189C70.5748 69.6835 70.5748 70.0319 70.6904 70.4964C71.1524 71.89 73.0005 72.3546 74.0401 71.4255C74.5021 71.0771 74.7331 70.4964 75.1951 70.2641C75.6572 70.0319 76.3502 69.7996 76.6967 70.2641C76.8122 70.4964 76.8122 70.7287 77.0433 70.8448C77.1588 70.9609 77.3898 70.9609 77.5053 71.0771C78.8914 71.4255 80.162 71.6577 81.548 71.7739C81.7791 71.7739 82.1256 71.89 82.3566 71.6577C82.5876 71.5416 82.7031 71.3093 82.9341 71.1932C83.6272 70.7287 84.5512 71.0771 85.2443 71.4255C86.5149 72.0061 87.6699 72.5868 88.9405 73.2836C89.4025 73.5159 89.8646 73.632 90.2111 73.3998C90.7886 73.0514 90.4421 72.1223 90.6731 71.4255C90.9041 70.8448 91.4817 70.4964 91.9437 70.148C95.1779 68.2898 98.0656 65.6187 100.26 62.5992C101.993 60.2765 103.379 57.4893 102.801 54.5859C100.491 56.2118 97.9501 57.8377 96.4485 60.2765C96.333 60.5088 96.102 60.8572 95.8709 60.9733C95.6399 61.0895 95.4089 61.2056 95.1779 61.2056C93.5608 61.4379 91.9437 61.4379 90.3266 61.2056C89.9801 61.0895 89.6336 61.0895 89.287 61.2056C88.825 61.3218 88.4785 61.6702 88.132 61.9024C84.7822 64.5735 79.8154 65.0381 76.1192 62.8315C75.0796 62.1347 74.0401 61.3218 72.7695 61.2056C71.8454 61.0895 70.8059 61.4379 69.8818 61.4379C68.7267 61.4379 65.839 59.812 66.3011 62.2508C66.4166 64.109 67.5717 65.9671 68.9577 67.2446Z" fill="#F15748"/>
<path d="M66.4167 58.9988C67.6872 63.2958 73.5781 59.5795 74.7332 56.7923C76.1193 53.4244 80.393 53.1921 81.5481 49.8242C81.6636 49.8242 81.6636 49.8242 81.7791 49.9403C81.7791 50.521 81.6636 51.1017 81.6636 51.7985C84.4358 53.5405 86.5149 55.9793 88.2476 58.7666C90.7887 62.8313 95.64 61.0893 97.0261 58.302C97.9502 55.9793 96.4486 53.4244 95.871 51.1017C94.947 49.0112 92.6368 47.8499 91.1352 46.224C91.1352 46.1079 91.2507 46.1079 91.2507 45.9917C91.5973 46.224 92.0593 46.3401 92.5213 46.5724C91.9438 44.8304 90.7887 43.669 89.6336 42.5077C92.4058 43.7852 92.5213 46.6886 94.6005 48.4306C97.3726 50.521 97.7192 53.7728 98.6432 56.9084C102.686 53.7728 103.726 49.3596 104.188 44.482C103.841 39.7205 103.148 35.3073 103.032 30.4297C104.419 34.8428 104.072 39.1398 104.765 43.669C105.112 47.1531 103.957 50.6371 103.032 54.005C103.148 54.005 103.148 53.8889 103.264 53.8889C107.191 60.7409 112.042 67.0121 114.814 74.4448C114.93 74.7932 115.276 75.0254 115.623 75.1416C118.395 76.419 120.243 78.6256 121.86 80.9483C124.748 83.7355 125.556 87.8003 127.867 90.9359C132.256 97.091 138.378 101.736 141.381 108.937C142.189 110.795 143.691 112.305 144.846 113.931C147.965 117.763 148.311 122.641 149.351 127.286C150.159 132.048 149.004 137.158 145.886 140.874C143.807 143.777 142.189 147.494 138.031 147.494C135.259 147.726 132.371 147.494 129.715 148.771C127.405 149.7 120.128 148.655 120.012 145.751C120.474 142.848 126.943 139.016 129.83 139.945C129.368 135.299 125.903 132.164 125.787 127.402C125.672 125.428 124.863 123.57 124.748 121.712C125.094 121.595 125.441 121.479 125.556 121.479C127.52 125.08 127.52 129.376 129.946 132.977C131.563 131.815 133.064 130.654 134.797 129.957C134.797 130.073 134.913 130.189 134.913 130.189C133.295 131.235 131.794 132.164 130.177 133.209C130.292 133.557 130.408 133.79 130.639 134.254C132.487 132.861 134.335 131.351 136.645 130.886C134.797 132.048 132.833 133.325 130.87 134.603C134.104 140.758 128.56 138.435 137.107 142.848C137.107 142.964 136.992 143.08 136.992 143.197C135.606 142.732 134.335 142.151 132.949 141.687C132.949 141.919 133.064 142.151 133.064 142.384C132.256 142.616 131.563 142.384 130.87 141.803C128.675 140.061 128.213 146.216 128.56 147.494C129.484 147.261 130.639 147.377 131.332 146.913C132.371 146.216 133.18 146.681 134.104 146.797C135.837 146.913 137.569 146.1 139.302 145.635C139.302 145.868 139.186 145.984 139.186 146.1C143.691 141.222 148.08 137.041 147.503 129.957C147.503 126.357 146.463 122.757 145.539 119.273C145.308 116.834 144.5 114.627 142.883 112.769C143.229 113.698 143.691 114.744 144.038 115.673L143.922 115.789C141.727 113.35 140.572 110.098 139.071 107.195C136.414 101.04 131.101 96.9749 127.058 91.865C122.322 85.7098 122.669 80.5999 115.392 76.0706C116.316 79.5547 115.738 82.8065 114.237 86.0582C114.006 81.6451 113.89 77.1159 112.273 72.935C109.847 67.4767 107.075 62.1345 103.726 57.1407C103.264 58.1859 102.801 59.2311 102.339 60.2763C102.57 60.3925 102.917 60.5086 103.264 60.6247C102.455 61.6699 101.646 62.7151 100.722 63.8765C103.726 62.4829 103.032 64.6894 102.108 66.5476C103.495 66.3153 104.072 66.5476 103.957 67.1283C100.838 66.896 101.3 66.7799 101.993 63.9926C100.953 64.8056 99.7983 65.3862 98.6432 65.8508C96.7951 68.0573 94.2539 69.5671 91.3662 69.5671C91.0197 72.4705 91.2507 74.3286 87.7855 72.7027C87.7855 74.9093 90.3267 75.9545 90.2112 78.1611C90.2112 79.9031 92.0593 81.6451 90.3267 83.0387C89.8646 83.6194 87.5545 84.7808 89.1716 85.3614C92.0593 86.2905 86.3994 87.568 89.8647 89.1939C90.4422 89.6584 91.0197 90.1229 91.7128 90.7036C89.8647 91.4004 87.5545 91.5166 87.7855 93.9554C87.901 96.9749 87.439 100.459 90.2112 102.433C86.3994 102.549 84.3203 116.137 82.4722 112.537C81.4326 109.866 80.6241 106.962 79.469 104.408C78.5449 104.291 78.6604 103.478 78.5449 102.898C77.1588 98.6008 75.1952 94.4199 71.268 91.865C70.1129 90.1229 65.2616 91.9811 66.6477 89.0777C66.1856 88.8455 65.6081 88.6132 65.1461 88.3809C66.7632 85.826 68.3803 83.3871 69.8819 80.8322C68.8423 80.2515 72.5385 76.0706 72.8851 74.9093C71.268 73.7479 72.8851 72.8189 73.5781 71.5414C71.961 71.8898 69.6509 72.0059 69.7664 69.7994C70.3439 65.8508 65.8391 67.1283 65.0306 63.2958C62.2584 67.3605 59.6017 71.5414 57.0606 75.2577C57.5226 77.3481 57.1761 78.7417 57.0606 80.9483C58.4467 79.9031 59.7172 78.974 60.8723 78.1611C60.9878 78.2772 60.9878 78.3933 61.1033 78.3933C60.0638 79.2063 59.0242 80.0192 57.9846 80.8322C56.9451 81.6451 56.9451 81.6451 57.0606 83.0387C58.9087 81.9935 60.6413 80.9483 62.4894 79.9031C62.4894 80.0192 62.6049 80.0192 62.6049 80.1354C54.6349 85.2453 56.9451 83.3871 57.4071 92.5618C57.5226 94.5361 58.1001 100.807 56.1365 101.736C55.6745 105.104 55.2125 108.705 55.328 112.072C57.2916 111.027 59.0242 109.634 60.9878 108.821C61.1033 108.937 61.1033 109.053 61.2188 109.169C59.3707 110.33 57.5226 111.492 55.4435 112.769C55.559 113.118 55.6745 113.698 55.79 114.163C57.8691 112.769 59.9482 111.376 62.3739 110.679C62.3739 110.795 62.4894 110.795 62.4894 110.911C61.3343 111.84 55.4435 114.163 56.1365 115.44C59.4862 124.615 56.9451 132.28 50.1301 138.9C51.0542 136.461 52.9023 134.603 54.2884 132.396C58.1001 126.473 56.714 118.924 54.5194 112.653C53.7109 109.401 54.5194 106.033 55.0969 102.782C55.79 101.504 55.4435 100.227 55.328 98.9492C55.0969 96.2781 54.9814 93.4909 54.7504 90.8198C54.5194 86.755 54.7504 82.8065 55.328 78.7417C55.328 77.6965 56.252 76.419 54.5194 76.0706C57.8691 71.5414 60.8723 67.1283 64.1065 62.599C64.7996 60.9731 64.3375 59.3472 65.0306 57.4891C64.453 56.6761 64.1065 55.5148 64.1065 54.1212C62.8359 51.1017 60.1793 48.4306 59.7172 45.0627C59.0242 41.927 59.0242 38.6753 59.6017 35.5396C59.8327 34.3783 59.2552 33.7976 58.5622 32.9847C59.0242 32.9847 59.2552 32.8685 59.6017 32.8685C59.4862 32.404 59.4862 32.0556 59.3707 31.591C60.4103 31.9394 60.6413 32.6362 60.8723 33.5653C60.6413 33.5653 60.4103 33.5653 60.1793 33.6815C60.6413 34.4944 61.2188 35.0751 60.8723 36.2364C59.9482 40.4173 60.5258 44.482 61.6809 48.5467C63.0669 46.9208 64.3375 45.5272 65.6081 44.0175C65.7236 44.1336 65.8391 44.1336 65.8391 44.2497C64.5685 45.7595 63.1825 47.2692 61.7964 48.8951C62.4894 50.2887 63.298 51.7985 64.1065 53.4244C64.5685 52.0308 65.1461 51.2178 66.0701 50.2887C66.1856 50.4049 66.3012 50.4049 66.4167 50.521C66.4167 53.4244 64.222 57.7214 66.4167 58.9988ZM89.4026 103.014C86.3994 101.04 87.0925 97.5556 86.8615 94.5361C86.6304 91.9811 88.8251 91.7488 90.7887 91.052C88.8251 88.9616 86.2839 89.31 89.2871 86.4066C85.4754 84.4323 91.9438 83.5033 90.2112 80.5999C89.5181 76.5352 87.67 72.4705 83.7428 70.7284C83.1652 72.1221 83.1652 72.1221 81.4326 72.1221C79.469 71.8898 77.3899 72.1221 76.3503 69.7994C75.6572 70.8446 75.0797 71.8898 74.3867 72.8189C75.1952 73.1673 75.1952 73.1673 74.7332 74.3286C75.6572 75.2577 75.6573 75.2577 74.8487 76.3029C73.8091 77.5804 72.8851 78.974 71.961 80.2515C72.3075 80.5999 72.5386 80.8322 72.6541 81.0644C70.8059 83.5033 69.0733 85.826 67.3407 88.2648C68.1493 88.3809 68.7268 88.4971 69.4198 88.4971C68.8423 89.31 68.4958 89.8907 68.0338 90.4714C71.1525 91.1682 73.2316 94.0715 75.8883 95.9297C79.931 100.807 80.6241 107.311 83.3962 112.885C85.4754 109.634 85.3599 104.872 89.4026 103.014ZM76.6968 63.0635C81.0861 65.6185 85.0133 62.599 88.8251 60.3925C86.5149 57.4891 84.8978 54.005 81.5481 52.1469C79.238 54.005 76.8123 55.5148 75.3107 58.0698C73.0006 61.4377 69.1888 63.5281 66.0701 59.8118C66.4167 62.8313 67.2252 65.8508 69.6509 67.7089C70.1129 66.3153 69.8819 61.3215 71.8455 62.1345C71.6145 63.5281 71.3835 64.9217 71.1525 66.3153C71.268 66.3153 71.268 66.4315 71.3835 66.4315C72.0765 65.8508 72.8851 65.2701 73.5781 64.6894C73.2316 66.1992 71.499 66.6637 70.9214 68.1735C71.961 67.4767 72.8851 66.896 73.6936 66.4315C73.6936 66.5476 73.8091 66.5476 73.8091 66.6637C72.6541 67.9412 70.2284 68.5219 71.1525 70.6123C72.6541 71.0768 74.0401 70.1478 75.1952 69.451C76.9278 68.4058 76.4658 66.3153 77.0433 64.6894C77.2743 64.6894 77.6209 64.8056 77.7364 64.8056C77.6209 65.9669 77.5054 67.0121 77.5054 68.1735C78.4294 67.5928 79.3535 67.0121 80.162 66.5476C80.2775 66.6637 80.2775 66.7799 80.393 66.896C79.469 67.5928 78.5449 68.4058 77.6209 69.1026C77.6209 69.2187 77.7364 69.3348 77.7364 69.3348C78.8915 68.7542 80.0465 68.0573 81.2016 67.4767C81.3171 67.5928 81.4326 67.7089 81.5481 67.8251C80.9706 68.1735 80.5086 68.638 80.0465 68.9864C81.0861 69.3348 82.0102 69.6832 83.1652 70.1478C82.9342 68.9864 84.3203 64.8056 82.1257 65.5024C81.7791 65.6185 81.3171 65.7346 80.9706 65.6185C78.3139 64.341 75.0797 63.5281 73.3471 60.9731C78.3139 64.2249 76.1193 61.6699 80.2775 58.9988L80.393 59.115C79.1225 60.6247 77.9674 61.7861 76.6968 63.0635ZM84.0893 70.1478C86.0529 70.38 89.1716 73.3995 90.0957 70.1478C90.5577 67.4767 90.6732 64.8056 91.0197 62.2506C91.9438 62.7151 91.9438 62.7151 91.9438 63.5281C91.9438 65.2701 91.9438 67.0121 91.9438 68.8703C93.4454 67.5928 91.9438 65.0378 92.6368 63.2958C93.4454 63.8765 93.0989 66.7799 93.4454 67.9412H93.5609C93.5609 66.3153 93.5609 64.6894 93.5609 63.0635C93.6764 63.0635 93.7919 63.0635 93.7919 63.0635C94.6004 64.341 94.0229 65.8508 94.6005 67.3605C97.7192 64.8056 102.801 58.8827 103.379 54.9341C102.108 57.1407 100.26 58.4182 98.6432 60.044C97.7192 62.2506 93.2144 63.5281 91.3662 62.1345C90.7887 61.6699 90.0957 61.3215 89.5181 60.9731C88.7096 63.9926 85.9374 64.4572 83.6273 65.6185C84.7823 66.896 83.8583 68.5219 84.0893 70.1478ZM129.368 141.571C127.982 142.035 126.365 141.803 125.672 143.08C125.672 145.868 123.362 149.7 128.098 147.726C127.867 145.519 128.098 143.545 129.368 141.571ZM124.863 148.19C123.939 146.448 124.748 144.822 124.863 143.197C123.246 143.777 122.091 144.822 121.86 146.564C121.629 148.19 123.824 147.842 124.863 148.19ZM144.962 142.5C144.846 142.384 144.846 142.384 144.731 142.267C143.922 143.08 143.229 143.893 142.42 144.822C142.536 144.939 142.536 144.939 142.652 145.055C143.345 144.126 144.153 143.313 144.962 142.5Z" fill="black"/>
<path d="M91.3662 145.055C91.8282 144.706 92.1747 144.358 92.6368 144.59C92.4058 145.171 92.0592 145.519 91.4817 145.751C90.7887 146.797 90.6731 148.074 90.6731 149.352C91.8282 154.229 99.1052 149.584 96.333 145.055C98.1811 146.332 98.1811 148.539 96.4485 150.978C99.2207 152.371 101.993 147.261 100.029 145.519C100.491 145.984 100.953 146.564 101.415 147.145C101.531 147.029 101.646 146.797 101.762 146.448C101.877 146.797 101.993 146.913 102.108 147.145C102.224 147.145 102.224 147.145 102.339 147.145C102.224 138.667 104.188 130.538 105.92 122.292C106.613 117.647 107.884 113.001 109.154 108.472C110.194 104.291 108.577 98.7169 112.042 95.9297C112.389 96.0458 113.082 96.162 113.775 96.2781C110.078 98.3685 111.349 102.433 111.118 105.801C110.887 109.517 109.501 112.769 108.23 116.369C109.963 115.44 111.464 114.627 113.082 113.814C113.082 113.931 113.197 114.047 113.197 114.163C111.349 115.556 107.768 116.021 107.768 118.808C109.732 117.763 111.695 116.834 113.659 115.789C113.659 115.905 113.775 116.021 113.775 116.021C111.927 117.647 108.808 117.995 107.422 119.97C105.92 126.589 104.419 133.093 104.188 139.945C110.309 141.338 115.969 142.151 122.322 141.803C116.431 144.939 110.078 141.803 104.072 140.758C103.379 144.474 103.494 153.649 97.7191 152.023C95.7555 151.558 94.6004 153.3 92.4058 152.023C88.0165 151.21 84.0892 150.745 87.2079 145.287C79.4689 145.055 80.2775 138.667 87.3234 137.622C84.2047 134.022 81.4326 129.028 83.8582 124.034C80.855 122.525 77.7363 121.363 75.8882 118.344C75.0797 117.066 73.8091 116.021 72.885 114.627C72.654 114.047 72.3075 113.582 71.6144 113.35C71.1524 113.234 70.9214 112.537 70.5749 112.072C68.2647 120.202 65.377 128.099 64.5685 136.693C63.8754 136.461 63.6444 136.345 62.9514 136.112C61.9118 141.222 59.0241 148.887 52.7867 148.539C50.2456 148.074 47.0114 149.468 45.1633 147.029C44.1237 145.287 47.2424 142.5 48.8595 142.848C45.1633 144.939 43.8927 148.655 49.5525 147.842C49.7835 145.751 51.1696 144.009 52.7867 143.893C51.7472 144.939 51.0541 145.868 50.3611 147.145C50.4766 147.261 50.4766 147.377 50.5921 147.377C56.714 146.681 57.5225 144.939 60.1792 139.712C60.7567 138.551 60.9878 137.158 61.3343 135.88C61.5653 134.37 62.0273 134.951 63.1824 135.416C63.8754 127.17 66.1856 119.157 69.6508 111.84C69.9973 108.937 67.9182 106.266 67.3407 103.246C69.4198 102.666 70.5749 109.401 71.7299 110.911C71.961 111.492 72.3075 112.072 73.0005 112.421C74.7331 114.279 75.6572 117.066 77.0433 119.273C78.3139 117.995 79.4689 116.718 80.624 115.556C80.7395 115.673 80.855 115.789 80.855 115.789C79.7 116.95 78.4294 118.228 77.1588 119.621C81.3171 122.525 85.9373 124.847 90.7887 126.125C88.7095 126.125 87.7855 126.357 84.0892 124.383C83.5117 126.938 83.5117 129.26 84.4357 131.699C85.9373 130.886 86.9769 129.376 88.7095 129.028C88.7095 129.144 88.825 129.26 88.825 129.26C87.4389 130.306 86.0529 131.235 84.5513 132.28C84.6668 132.628 84.8978 132.861 85.0133 133.093C86.5149 132.164 88.0165 131.235 89.5181 130.306C89.6336 130.422 89.6336 130.538 89.7491 130.654C88.2475 131.583 86.8614 132.628 85.1288 133.673C86.0529 135.532 88.7095 136.693 89.056 138.9C87.67 139.248 86.3994 139.712 85.0133 140.409C85.3598 140.642 85.4753 140.758 85.7063 140.874C84.0892 141.338 83.2807 142.5 82.8186 144.126C84.5513 144.939 86.5149 144.59 88.2475 144.939C91.2507 139.364 92.2903 133.325 93.3298 127.286C92.6368 127.17 92.6368 126.705 92.7523 126.009C94.9469 118.46 92.4058 112.189 91.4817 104.756C92.1747 104.756 93.0988 104.64 93.9074 104.64C93.9074 104.756 94.0229 104.756 94.0229 104.872C91.9437 106.266 95.0624 113.002 95.2934 115.324C96.6795 121.363 93.6763 127.286 93.3298 133.325C95.0624 132.396 96.4485 131.119 98.2966 130.654C98.2966 130.77 98.4121 130.77 98.4121 130.886C96.564 132.048 94.3694 132.861 92.8678 134.486C92.9833 134.603 92.9833 134.719 93.0988 134.719C94.9469 133.906 96.6795 133.093 98.5277 132.28C98.5277 132.396 98.6432 132.512 98.6432 132.512C96.9105 133.906 92.5213 134.37 92.4058 136.809C94.4849 135.88 96.4485 134.951 98.4121 134.138C98.4121 134.254 98.5277 134.37 98.5277 134.37C89.056 138.783 93.7919 136.577 88.825 144.59C90.2111 144.59 90.7887 144.822 91.3662 145.055C88.825 144.358 87.3234 147.145 87.67 149.352C87.67 151.21 89.4026 150.513 90.5576 150.281C89.7491 148.19 89.9801 146.332 91.3662 145.055Z" fill="black"/>
<path d="M82.0101 40.3015C84.7823 39.7208 88.8251 42.6241 86.1684 45.2952C85.0133 46.3405 83.7427 49.0116 81.8946 48.0825C78.0829 45.5275 74.6177 40.4176 82.0101 40.3015Z" fill="black"/>
<path d="M72.5385 16.8412C69.7663 12.1958 69.1888 5.80839 64.222 2.78889C59.9482 -1.8565 55.9055 3.95023 56.021 8.47949C56.1365 10.5699 56.252 12.6603 56.252 14.8669C57.176 13.7056 57.9846 12.7765 58.7931 11.7313C58.9087 11.8474 59.0242 11.8474 59.0242 11.9635C58.3311 13.0087 57.6381 14.054 56.8295 15.0992C56.8295 15.0992 56.945 15.0992 56.945 15.2153C57.7536 14.2862 58.5621 13.3571 59.3707 12.4281C59.4862 12.5442 59.4862 12.5442 59.6017 12.6603C59.0242 13.4733 58.3311 14.1701 57.8691 14.983C57.4071 15.796 56.252 16.0282 56.483 17.4219C57.6381 16.2605 58.6776 15.0992 59.7172 13.9378C59.8327 14.054 59.8327 14.054 59.9482 14.1701C59.2552 15.6798 57.8691 16.7251 56.8295 18.0025C57.2916 19.0478 57.7536 20.2091 58.2156 21.2543H58.1001C57.7536 20.5575 57.2915 19.8607 56.945 19.1639C54.5194 24.2738 56.1365 27.6417 59.2552 31.9387C54.7504 27.1772 54.0573 24.3899 55.9055 18.0025C56.252 18.2348 56.483 18.3509 56.5985 18.4671C55.9055 17.3057 55.5589 15.9121 55.5589 14.6346C55.4434 10.1054 54.4039 4.87931 57.6381 1.04686C60.6413 -2.20491 66.6476 3.71796 68.3803 6.5052C69.9974 9.87311 71.961 13.241 72.7695 16.8412C72.7695 16.8412 72.654 16.8412 72.5385 16.8412Z" fill="black"/>
<path d="M106.613 128.213C111.118 126.006 115.738 123.683 120.012 121.012C124.055 118.573 127.058 113.928 131.678 112.883C128.559 116.948 124.748 120.432 120.243 123.103C116.431 125.077 110.771 129.026 106.498 128.561C106.498 128.445 106.498 128.329 106.613 128.213Z" fill="black"/>
<path d="M111.464 24.3883C110.887 24.9689 110.54 25.5496 109.732 25.898C112.157 20.3236 112.619 13.9361 112.85 8.01327C112.157 2.32267 103.148 8.47781 101.646 11.1489C99.6825 13.3555 97.7189 16.4911 95.0623 17.6525C99.105 13.2393 101.762 6.61965 108.115 5.1099C111.695 4.29696 114.236 6.73579 113.89 10.336C113.197 14.9814 112.966 19.9752 111.464 24.3883Z" fill="black"/>
<path d="M98.2965 37.3957C97.719 41.5766 92.2902 40.4152 91.5971 36.815C91.0196 31.589 98.412 32.7503 98.2965 37.3957Z" fill="black"/>
<path d="M69.8817 38.3278C65.608 37.8632 65.0304 32.521 69.3042 31.8242C72.5384 32.0565 73.9245 37.9794 69.8817 38.3278Z" fill="black"/>
<path d="M96.7949 19.7429C97.257 20.2074 97.719 20.672 98.181 21.1365C98.181 21.2527 98.0655 21.2527 98.0655 21.3688C94.6003 19.859 91.1351 18.3493 87.3233 18.6977C82.01 18.4654 76.2346 16.8395 71.2678 19.1622C73.809 14.633 83.9736 18.0009 88.3629 17.6525C90.7886 17.7686 93.0987 18.0009 95.4089 18.93C96.9104 18.8138 97.95 17.1879 99.2206 16.375C99.3361 16.4911 99.3361 16.4911 99.4516 16.6073C98.7586 18.0009 97.026 18.4654 96.7949 19.7429Z" fill="black"/>
<path d="M89.0559 35.0744C89.2869 31.3581 92.7521 30.0806 95.2933 30.6613C102.108 32.4033 101.877 41.8102 96.5639 45.1781C96.4484 45.062 96.4484 45.062 96.3329 44.9459C96.9104 43.4361 98.0655 42.0425 98.7585 40.5328C102.108 33.1001 93.7917 26.4805 89.0559 35.0744Z" fill="black"/>
<path d="M45.1632 147.492C44.7012 147.376 44.1236 147.26 43.4306 147.027C43.7771 147.492 44.1236 147.724 44.3546 148.073C43.4306 147.724 42.7375 147.144 42.622 146.098C40.5429 142.73 49.2059 140.059 51.6316 140.176C50.13 141.569 39.6188 145.285 45.1632 147.144C45.1632 147.26 45.1632 147.376 45.1632 147.492Z" fill="black"/>
<path d="M67.2252 40.8813C64.684 39.9523 64.684 37.5134 64.453 35.0746C63.76 30.8938 68.2648 28.3388 71.961 28.2227C68.4958 29.8485 64.453 32.2874 65.6081 36.8166C65.9546 38.3264 65.8391 39.8361 67.2252 40.8813Z" fill="black"/>
<path d="M78.4293 39.3698C74.5021 40.8795 73.578 45.5249 70.4593 47.9637C69.8818 45.2926 75.8881 38.3245 78.4293 39.0214C78.4293 39.1375 78.4293 39.2536 78.4293 39.3698Z" fill="black"/>
<path d="M76.8123 35.4238C77.8518 34.0302 80.2775 32.985 79.6999 31.0107C78.5449 27.6428 79.4689 23.8104 80.624 20.5586C80.0465 22.649 80.855 24.9717 79.8154 26.946C79.5844 27.4105 79.6999 28.2235 79.8154 28.8042C80.5085 31.3591 81.2015 34.3786 78.3139 35.7722C77.7363 36.1206 77.2743 36.1206 76.8123 35.4238Z" fill="black"/>
<path d="M68.1491 20.0915C67.5716 19.9753 67.3406 19.8592 66.8785 19.7431C66.994 20.2076 67.1095 20.4399 67.3406 20.9044C66.4165 21.6012 65.4924 22.4142 64.3374 23.111C63.2978 23.5755 63.6443 24.0401 63.8753 24.9691C63.5288 24.853 63.1823 24.7369 62.8358 24.6207C62.8358 24.9691 62.9513 25.3175 62.9513 25.6659C62.8358 25.6659 62.8358 25.7821 62.7203 25.7821C62.3737 25.0853 62.0272 24.3885 61.5652 23.5755C61.9117 23.5755 62.1427 23.6917 62.3737 23.6917C63.0668 21.9496 65.0304 21.7174 66.07 20.2076C65.9545 19.6269 65.7235 18.9301 65.4924 18.3495C65.6079 18.2333 65.6079 18.2333 65.7235 18.1172C66.532 18.814 67.225 19.3947 68.1491 20.0915Z" fill="black"/>
<path d="M107.191 130.771C109.732 129.842 112.157 127.868 114.93 127.52C114.93 127.636 114.93 127.752 115.045 127.868C114.006 128.681 113.082 129.494 111.811 130.539C114.006 129.842 114.583 131.004 113.428 132.746C112.966 132.629 112.966 132.629 113.428 130.771C111.926 130.423 110.887 132.165 109.385 131.817C109.385 131.7 109.385 131.7 109.27 131.584C110.656 130.539 112.157 129.378 113.544 128.332L113.428 128.216C111.349 129.145 109.27 130.074 107.306 131.12C107.306 131.004 107.306 130.887 107.191 130.771Z" fill="black"/>
<path d="M66.7632 49.3596C66.5321 45.411 71.8455 38.3268 74.3866 37.7461C71.0369 41.114 68.4958 44.9464 66.7632 49.3596Z" fill="black"/>
<path d="M111.464 24.3906C112.735 27.294 112.157 29.9651 109.963 32.2878C108.461 33.5653 107.422 35.6557 105.573 36.3525C107.768 31.7071 112.735 31.2426 111.464 24.3906Z" fill="black"/>
<path d="M78.3138 19.8594C77.3898 22.1821 76.4657 24.3886 75.6572 26.5952C74.3866 25.4338 75.7727 20.0916 78.3138 19.8594Z" fill="black"/>
<path d="M122.438 128.214C121.167 132.046 120.012 135.763 118.857 139.595C118.048 137.737 121.167 130.072 122.207 128.098C122.322 128.214 122.438 128.214 122.438 128.214Z" fill="black"/>
<path d="M100.26 21.9518C100.953 21.3712 101.993 17.771 103.032 18.9323C102.57 19.8614 102.224 20.7905 101.877 21.4873C103.032 23.1132 104.187 24.7391 105.343 26.2488L105.227 26.365C103.148 25.6682 102.339 21.255 100.26 21.9518Z" fill="black"/>
<path d="M98.5276 83.7342C98.7586 84.3149 99.1052 84.7794 98.9897 85.1278C98.5276 87.3344 99.1052 89.5409 98.7586 91.7475C98.6431 91.7475 98.5276 91.7475 98.4121 91.7475C98.4121 89.4248 98.4121 87.1021 98.4121 84.8956C97.9501 84.6633 97.7191 84.5472 97.3726 84.3149C97.6036 83.6181 98.0656 83.1535 98.6431 82.5729C98.4121 82.4567 98.1811 82.3406 97.9501 82.2245C97.9501 82.1083 97.9501 81.9922 98.0656 81.9922C98.5276 82.1083 99.1052 81.9922 99.3362 82.2245C99.7982 83.0374 98.6431 83.2697 98.5276 83.7342Z" fill="black"/>
<path d="M117.24 80.0195C118.279 84.5488 116.778 88.7296 115.045 92.9105C114.93 92.9105 114.93 92.9105 114.814 92.9105C115.969 88.6135 117.586 84.5488 117.24 80.0195Z" fill="black"/>
<path d="M89.1714 42.6231C86.3993 38.6745 85.3597 40.1843 83.0496 37.9777C85.4752 37.397 87.4388 39.1391 89.4025 42.3908C89.287 42.507 89.287 42.6231 89.1714 42.6231Z" fill="black"/>
<path d="M62.4893 128.911C63.4133 125.659 64.2219 122.523 65.1459 119.504C65.608 121.478 63.9909 127.401 62.4893 128.911Z" fill="black"/>
<path d="M89.1715 38.4423C87.0924 37.6293 86.6303 35.0744 84.2047 34.726C84.2047 34.6098 84.0892 34.2614 83.8582 33.7969C86.1683 34.9582 88.4784 35.8873 89.1715 38.4423Z" fill="black"/>
<path d="M122.091 138.551C122.784 133.905 124.748 129.492 124.632 124.73C124.863 129.492 123.362 134.021 122.091 138.551Z" fill="black"/>
<path d="M84.5513 31.7056C85.5908 28.4538 86.0529 25.3182 85.1288 22.0664C86.3994 23.8084 86.3994 30.0797 84.5513 31.7056Z" fill="black"/>
<path d="M68.8422 25.7852C69.0732 26.0174 69.3043 26.2497 69.5353 26.482C67.9182 27.411 66.8786 29.0369 65.146 29.0369C65.146 28.9208 65.146 28.8047 65.146 28.8047C66.3011 27.7594 67.4561 26.8304 68.8422 25.7852Z" fill="black"/>
<path d="M141.612 114.625C143.806 117.528 144.846 120.78 145.193 124.264C144.037 121.129 143.46 117.645 141.612 114.625Z" fill="black"/>
<path d="M95.2933 47.1536C94.3693 45.1794 93.6762 43.4373 92.8677 41.6953C94.1383 42.0437 95.8709 45.5278 95.2933 47.1536Z" fill="black"/>
<path d="M73.5779 28.8047C75.3105 29.5015 76.6966 32.2887 76.3501 34.263C75.195 32.4049 75.0795 30.5467 73.5779 28.8047Z" fill="black"/>
<path d="M64.7993 96.9743C66.1854 96.9743 65.7234 98.6002 66.1854 99.297C65.3769 99.1808 65.2614 98.9486 65.1459 97.6711C64.7993 97.6711 64.3373 97.6711 64.2218 97.555C64.1063 96.8582 64.3373 95.8129 64.3373 95C65.1459 95.5807 65.1459 95.5807 64.7993 96.9743Z" fill="black"/>
<path d="M96.7949 19.7443C97.1414 18.1184 99.2206 17.77 100.376 16.957C100.145 17.77 97.719 19.6281 96.7949 19.7443Z" fill="black"/>
<path d="M82.703 21.8359C82.703 25.4361 82.703 29.0363 82.703 32.5203C82.2409 29.0363 82.2409 25.4361 82.703 21.8359Z" fill="black"/>
<path d="M78.7758 120.549C78.6603 119.62 81.2014 117.413 82.472 117.297C81.2014 118.342 80.0464 119.387 78.7758 120.549Z" fill="black"/>
<path d="M96.2174 27.875C97.3724 28.9202 98.5275 30.0816 99.6826 31.1268C99.5671 31.2429 99.5671 31.2429 99.4516 31.359C98.2965 30.3138 96.9104 29.5009 95.8708 28.2234C95.9864 28.1073 96.1019 27.9911 96.2174 27.875Z" fill="black"/>
<path d="M103.841 46.1073C102.339 47.1525 100.722 48.1977 99.2207 49.2429C99.2207 49.1268 99.1052 49.1268 99.1052 49.0106C100.607 47.9654 102.108 46.6879 103.841 45.875C103.726 45.9911 103.841 46.1073 103.841 46.1073Z" fill="black"/>
<path d="M75.0796 49.4766C75.5416 49.7088 75.8882 49.9411 76.2347 50.1734C77.1588 51.9154 73.116 49.9411 75.0796 49.4766Z" fill="black"/>
<path d="M71.8455 53.6562C73.2315 53.6562 73.5781 53.8885 73.8091 54.8176C73.0005 55.0499 71.961 54.4692 71.8455 53.6562Z" fill="black"/>
<path d="M98.7585 47.5C100.26 46.4548 101.877 45.5257 103.379 44.4805C103.379 44.5966 103.494 44.5966 103.494 44.7127C101.993 45.758 100.376 46.687 98.8741 47.7322C98.8741 47.7322 98.8741 47.6161 98.7585 47.5Z" fill="black"/>
<path d="M70.8059 49.9408C71.73 49.7085 72.3075 50.0569 72.7695 50.986C71.961 51.3344 71.2679 50.8699 70.8059 49.9408Z" fill="black"/>
<path d="M141.727 118.574C142.882 119.968 143.46 121.361 143.46 123.22C142.882 121.594 142.305 120.084 141.727 118.574Z" fill="black"/>
<path d="M91.3662 55.398C90.5576 55.6303 90.0956 54.9334 89.5181 54.4689C90.2111 53.7721 90.7886 54.585 91.4817 54.9334C91.3662 55.1657 91.3662 55.2818 91.3662 55.398Z" fill="black"/>
<path d="M66.532 58.9971C67.5716 57.9519 68.2647 56.5583 69.7663 56.0938C68.6112 57.139 67.6871 58.1842 66.532 58.9971C66.4165 58.9971 66.532 58.9971 66.532 58.9971Z" fill="black"/>
<path d="M63.6443 121.943C63.2978 123.221 62.9513 124.498 62.7203 125.66C62.6048 125.66 62.6048 125.66 62.4893 125.543C62.7203 124.266 63.0668 122.988 63.2978 121.711C63.4133 121.943 63.5288 121.943 63.6443 121.943Z" fill="black"/>
<path d="M62.1428 46.4541C62.9514 45.5251 63.8754 44.4799 64.684 43.5508C64.7995 43.6669 64.915 43.783 65.0305 43.8992C64.1064 44.7121 63.1824 45.6412 62.1428 46.4541Z" fill="black"/>
<path d="M91.1351 51.2173C91.8281 50.9851 92.4057 51.4496 92.7522 52.0303C92.7522 52.1464 92.6367 52.2625 92.6367 52.2625C92.1746 52.0303 91.5971 51.798 91.1351 51.4496C91.0196 51.4496 91.1351 51.3335 91.1351 51.2173Z" fill="black"/>
<path d="M68.2646 55.6307C67.6871 56.0952 67.1095 56.6759 66.532 57.1405C66.532 57.1405 66.532 57.1405 66.4165 57.0243C66.994 56.4436 67.5716 55.9791 68.0336 55.3984C68.1491 55.5146 68.1491 55.6307 68.2646 55.6307Z" fill="black"/>
<path d="M76.2347 85.5938C74.5021 87.568 72.885 89.5423 71.1523 91.5166C72.0764 89.5423 75.0796 86.2906 76.2347 85.5938Z" fill="black"/>
<path d="M73.809 86.1747C72.7694 87.4522 71.6143 88.7297 70.5748 90.1233C70.4593 90.1233 70.4593 90.0072 70.3438 90.0072C71.3833 88.7297 72.5384 87.4522 73.578 86.0586C73.6935 86.0586 73.6935 86.1747 73.809 86.1747Z" fill="black"/>
<path d="M78.1984 57.9531C77.3898 58.8822 76.1192 60.2758 74.9642 61.6694C74.8487 61.5533 74.8487 61.5533 74.7332 61.4372C75.8882 59.9274 77.2743 58.6499 78.1984 57.9531Z" fill="black"/>
<path d="M75.6572 62.1325C76.8123 60.9711 77.8519 59.8098 79.0069 58.6484C79.1224 58.7646 79.1224 58.7646 79.238 58.8807C78.0829 60.0421 77.0433 61.2034 75.8882 62.3648C75.8882 62.2486 75.7727 62.2486 75.6572 62.1325Z" fill="black"/>
<path d="M92.9838 36.5442C93.3028 36.5442 93.5613 36.2842 93.5613 35.9635C93.5613 35.6428 93.3028 35.3828 92.9838 35.3828C92.6648 35.3828 92.4062 35.6428 92.4062 35.9635C92.4062 36.2842 92.6648 36.5442 92.9838 36.5442Z" fill="white"/>
<path d="M68.2155 35.5871C68.5344 35.5871 68.793 35.3272 68.793 35.0065C68.793 34.6858 68.5344 34.4258 68.2155 34.4258C67.8965 34.4258 67.6379 34.6858 67.6379 35.0065C67.6379 35.3272 67.8965 35.5871 68.2155 35.5871Z" fill="white"/>
<path d="M80.2774 42.1585C80.2774 42.1585 80.393 42.0424 80.624 42.0424C81.2015 41.9262 81.779 41.8101 82.3566 41.8101C82.8186 41.8101 83.1651 41.8101 83.6272 41.9262C83.7427 41.9262 83.7427 41.9262 83.8582 42.0424H83.9737C84.0892 42.1585 84.2047 42.2746 84.4357 42.1585C84.5512 42.0424 84.6667 41.9262 84.5512 41.694C84.4357 41.5778 84.3202 41.4617 84.2047 41.3455C84.0892 41.2294 83.9737 41.2294 83.8582 41.2294C83.3961 41.1133 82.9341 41.1133 82.4721 41.1133C81.8946 41.1133 81.2015 41.2294 80.624 41.3455C80.5085 41.3455 80.2775 41.4617 80.0464 41.5778C79.6999 41.8101 79.6999 41.9262 79.8154 42.1585C79.9309 42.2746 80.0464 42.2746 80.2774 42.1585Z" fill="white"/>
</g>
<defs>
<clipPath id="clip0_14396_692">
<rect width="181" height="262" fill="white"/>
</clipPath>
</defs>
</svg>
