<svg width="94" height="121" viewBox="0 0 94 121" fill="none" xmlns="http://www.w3.org/2000/svg">
<path d="M88.1032 33.0509C89.4108 36.3191 89.4108 40.2408 89.9556 43.8358C90.6093 47.8665 91.8079 51.4615 92.0258 55.3833C92.6795 65.2967 92.6795 74.6654 91.6989 84.5788C91.0452 91.442 90.3914 98.1962 89.7376 105.168C89.4108 108.11 91.9168 112.031 89.4108 113.557C89.4108 113.557 82.8732 114.101 79.6045 114.101C79.6045 114.101 78.188 118.132 76.6626 119.439C74.8103 120.855 69.0354 120.638 66.7473 120.746C56.1783 121.182 45.9361 117.805 35.4761 117.696C29.5923 117.587 12.4857 114.864 12.4857 114.537C10.6334 111.378 17.171 103.207 17.7158 99.6124C19.786 81.6375 24.6891 69.6543 26.2146 51.5705C26.6504 46.0146 27.4131 36.428 29.8102 33.7045C30.8998 32.5062 48.7691 32.1794 54.9797 32.7241C65.9846 33.7045 77.0984 34.685 88.1032 33.0509Z" fill="white"/>
<path d="M92.0003 83.8547C91.0196 93.7681 91.2376 101.721 90.148 111.743C90.039 112.179 90.148 112.723 89.8211 113.159C88.8405 114.902 84.2642 114.14 81.4313 114.249C80.7775 114.249 80.3417 114.249 79.7969 114.249C81.2133 110.98 81.3223 108.802 82.6298 105.316C83.9373 101.83 84.3732 97.0363 85.2448 93.4413C85.7896 91.0446 86.1165 87.8854 86.3344 85.3798C86.5523 83.4189 87.7509 76.9916 88.4046 71.8715C88.9494 67.6228 89.6032 52.3714 90.6928 51.7178C92.872 50.8463 92.3272 69.039 92.2182 70.9999C92.1092 75.1396 92.0003 79.6061 92.0003 83.8547Z" fill="#BCBCBB"/>
<path d="M30.2388 49.5765C30.6746 47.5066 30.6746 44.2385 31.1105 42.2776C31.2194 41.8418 31.8732 41.9508 32.2 41.7329C32.5269 41.515 32.9628 41.9508 33.2896 41.9508C42.0064 41.6239 50.7231 42.2776 59.3308 43.6938C59.3308 44.8921 58.2412 45.8725 56.9337 46.1994C55.7352 46.5262 54.4277 46.4172 53.2291 46.5262C51.3768 46.7441 49.7424 47.6156 47.9991 48.3781C41.1347 51.6463 33.1807 55.677 28.9313 61.9955C28.6044 61.1239 29.1492 58.0737 29.2582 56.2217C29.3671 54.3698 28.9313 52.7357 29.4761 50.8837C30.1298 49.0318 30.6746 47.2887 31.3284 45.4368" fill="#BCBCBB"/>
<path d="M58.6654 63.8683C60.6266 64.413 58.3385 66.7007 55.6145 65.0666C55.3966 64.9577 55.1787 64.7398 55.0697 64.6309C54.7428 64.304 54.7428 63.6504 54.7428 63.2146C54.8518 61.6895 55.6145 60.3822 55.8324 58.8571C56.0503 57.4409 55.8324 55.6979 56.8131 54.7174C57.031 54.4996 57.2489 54.3906 57.5758 54.3906C57.9026 54.4996 58.0116 54.9353 58.0116 55.3711C58.4474 60.3822 60.7356 67.5722 65.9656 69.642C66.6194 69.9688 67.3821 69.9688 67.8179 70.6225C68.1448 70.9493 68.3627 71.385 68.5806 71.7119C68.9075 72.5834 69.1254 73.5638 69.2344 74.3264C69.2344 74.5443 69.2344 74.8711 69.0165 74.98C68.7985 75.1979 68.6896 75.089 68.4717 75.089C65.2029 74.7621 61.8252 73.9996 58.7743 72.5834C57.1399 71.8208 50.8203 69.2063 50.8203 67.1364C50.8203 65.1755 55.7235 63.8683 57.2489 63.8683C57.7937 63.6504 58.2295 63.7593 58.6654 63.8683Z" fill="#BCBCBB"/>
<path d="M18.773 91.4437C18.8819 91.008 18.9909 90.4633 19.3178 90.2454C19.8625 89.9186 20.7342 90.3543 21.0611 90.899C21.388 91.4437 21.388 92.3152 21.388 92.9689C21.7148 96.7817 25.4195 99.2873 28.7972 101.248C34.463 104.516 40.2379 107.893 45.9037 111.162C48.1919 112.469 50.8069 114.321 50.8069 116.935C50.8069 117.262 50.6979 117.807 50.48 118.025C50.0442 118.678 48.9546 118.678 48.0829 118.569C39.3662 117.807 30.6495 116.935 22.0417 116.173C19.3178 115.846 14.8504 116.5 13.434 113.558C12.1265 110.944 13.7608 107.022 14.6325 104.407C16.1579 100.159 17.9013 95.9102 18.773 91.4437Z" fill="#BCBCBB"/>
<path d="M90.5713 52.6683C90.5713 53.7577 90.6803 54.956 90.5713 56.0454C90.0265 63.9979 89.8086 71.9505 87.7384 79.6851C87.3025 81.537 87.1936 83.6069 86.8667 85.5678C86.6488 87.2019 86.5398 88.8359 86.3219 90.47C85.5592 94.8276 84.7965 99.0761 84.0338 103.434C83.8159 104.523 83.5979 105.395 83.2711 106.811C84.3607 106.266 85.1234 105.83 85.8861 105.504C86.6488 105.177 87.5205 104.741 88.3921 105.177C86.9757 105.83 85.6682 106.593 84.2517 107.247C83.1621 107.682 82.3994 108.445 82.0725 109.752C81.3098 113.238 79.0217 115.962 77.6052 119.121C77.2783 119.666 76.2977 120.21 75.535 120.319C74.4454 120.646 73.4648 120.755 72.3752 120.755C68.3437 120.864 64.2032 120.864 60.1718 120.864C58.6463 120.864 57.1209 120.646 55.5955 120.537C49.9296 120.101 44.2637 119.557 38.5979 119.012C32.3872 118.467 26.0676 117.814 19.8569 117.051C17.5688 116.724 15.3896 116.179 13.2104 115.635C12.4477 115.417 11.794 114.872 11.0312 114.545C11.1402 114.001 11.2492 113.565 11.3581 113.347C14.3 106.702 16.5882 99.8387 18.2225 92.6488C19.5301 86.7661 20.7286 80.9924 21.8182 75.1097C23.0167 68.2465 24.1063 61.3834 25.087 54.4114C25.5228 51.3611 25.6318 48.2019 26.0676 45.1516C26.2855 43.7354 26.5034 42.3192 26.8303 40.903C27.1572 39.2689 27.702 37.6348 27.2661 36.0007C27.1572 35.6739 27.2661 35.2382 27.4841 34.9114C27.9199 34.2577 27.8109 33.713 27.3751 33.0594C26.2855 30.6628 27.702 28.375 29.4453 27.6125C30.5349 27.1767 31.7335 26.9588 32.932 26.741C34.4574 26.5231 35.9829 26.632 37.3993 26.4141C40.4502 26.0873 43.501 26.3052 46.4429 25.5426C46.7698 25.4337 47.0967 25.4337 47.4236 25.5426C50.6923 26.632 54.3969 25.6516 57.7747 26.5231C58.3195 26.741 59.0822 26.632 59.7359 26.3052C62.3509 25.3248 64.748 25.6516 67.1451 26.9588C68.0168 27.3946 68.7795 27.7214 69.6512 27.5035C71.8304 26.9588 73.9006 26.8499 75.3171 29.0287C76.1887 28.7019 76.9514 28.484 77.6052 28.375C78.9127 28.1572 80.2202 28.0482 81.6367 28.0482C83.9248 28.1572 85.5592 29.2466 86.213 31.4253C86.3219 31.6432 86.4309 31.7521 86.5398 32.079C86.8667 32.079 87.0846 32.1879 87.4115 32.079C88.3921 31.97 88.828 32.4058 88.9369 33.2773C89.4817 36.3276 90.1355 39.3778 90.6803 42.4281C91.0072 44.4979 91.0072 46.5678 91.9878 48.6376C92.5326 49.727 92.3147 51.0343 92.4236 52.2326C93.2953 58.2242 93.0774 64.2158 93.2953 70.0985C93.4043 71.9505 93.1863 73.9114 93.0774 75.7633C92.8595 80.1208 92.6415 84.4784 92.5326 88.9449C92.3147 93.8471 92.3147 98.7493 92.0967 103.761C91.8788 106.811 91.5519 109.752 91.1161 112.802C91.0072 113.565 90.5713 114.001 89.8086 114.11C87.3026 114.328 84.9054 114.545 82.2904 114.763C82.0725 114.763 81.9636 114.436 81.5277 114.11C83.0531 113.347 84.5786 113.674 85.8861 113.456C86.3219 113.347 86.8667 113.565 87.1936 113.456C89.2638 113.129 89.6996 113.02 89.8086 110.842C90.3534 105.286 91.0071 99.6208 91.0071 94.065C91.0071 91.6683 91.2251 89.3806 91.2251 87.0929C91.334 84.4784 91.334 81.7549 91.443 79.1404C91.5519 73.3667 91.7699 67.7019 91.7699 61.9281C91.7699 58.8778 91.2251 55.7186 91.0071 52.7773C90.7892 52.6683 90.6803 52.6683 90.5713 52.6683ZM88.2832 56.3723C89.0459 55.3918 89.3728 54.5203 88.6101 53.1041C87.4115 53.8667 86.104 54.5203 85.0144 55.1739C84.9054 54.7382 85.0144 54.4114 85.2323 54.3024C86.104 53.7577 86.8667 53.213 87.7384 52.7773C88.828 52.3415 89.2638 51.579 89.3728 50.4896C89.4817 49.9449 89.5907 49.2912 89.4817 48.6376C89.0459 44.6069 88.5011 40.4672 87.9563 36.5454C87.8474 35.565 87.6294 34.6935 86.5398 33.713C86.213 34.3667 85.7771 34.9114 85.4502 35.565C85.1234 36.6544 84.2517 36.9812 83.2711 36.6544C82.2904 36.3276 81.4188 36.0007 80.765 35.456C79.4575 34.3667 78.8037 34.2577 77.3873 35.0203C76.5156 35.456 75.535 35.8918 74.7723 36.2186C73.5737 36.6544 72.5931 36.2186 71.8304 35.1292C71.5035 34.8024 71.5035 34.3667 71.0677 33.713C69.9781 35.456 68.5616 36.6544 66.6003 36.5454C64.4212 36.4365 63.5495 34.6935 62.5689 33.2773C62.242 33.3862 62.242 33.3862 62.242 33.3862C62.0241 33.4952 61.9151 33.713 61.8061 33.822C60.0628 35.8918 57.8836 35.8918 55.5955 35.3471C54.9417 35.1292 54.3969 34.9114 53.7432 34.5845C53.4163 34.8024 53.3073 34.9114 53.1984 35.0203C50.9102 36.9812 49.8207 37.0901 47.3146 35.565C46.6608 35.2382 46.1161 34.8024 45.4623 34.4756C40.6681 37.308 39.9054 37.308 37.0725 34.8024C36.7456 35.1292 36.3097 35.456 35.8739 35.7829C34.8933 36.6544 33.8037 36.7633 32.6051 36.2186C31.8424 35.8918 31.1887 35.3471 30.5349 35.0203C30.208 34.8024 29.7722 34.6935 29.5543 34.5845C29.1184 37.7438 28.6826 40.6851 28.3557 43.7354C28.1378 44.9337 28.0289 46.132 27.9199 47.3304C27.4841 51.579 26.9393 55.8276 26.3945 60.0762C25.6318 65.3052 24.6511 70.5343 23.8884 75.7633C23.5615 78.16 22.9078 80.4477 22.5809 82.8443C21.6003 87.9644 20.7286 93.0845 19.0942 98.0957C17.6778 102.671 15.8254 107.138 14.3 111.604C14.0821 112.149 13.9731 112.693 13.7552 113.456C17.024 113.892 19.9659 114.545 22.9078 114.763C29.5543 115.526 36.2008 115.962 42.8473 116.724C52.6536 117.923 62.4599 118.358 72.3752 118.358C74.1185 118.358 75.7529 118.031 77.4962 118.031C79.5665 114.219 81.5277 110.406 82.3994 106.375C84.1427 98.9672 85.6682 91.5594 86.104 84.0426C86.104 83.7158 86.213 83.2801 86.3219 82.9533C88.1742 74.7829 88.828 66.5035 89.5907 58.2242C89.6997 57.7884 89.6997 57.2438 89.5907 56.9169C88.9369 56.6991 88.5011 56.5901 88.2832 56.3723ZM76.2977 30.3359C76.8425 31.5343 77.2783 32.8415 78.9127 32.8415C80.3292 32.8415 81.7456 32.9505 83.1621 32.9505C83.7069 32.9505 84.2517 32.6236 84.9054 32.6236C83.7069 29.0287 80.1113 28.0482 76.2977 30.3359ZM52.8715 32.079C52.8715 30.3359 52.6536 29.3555 51.8909 28.5929C51.564 28.2661 51.1282 28.0482 50.8013 28.1572C49.3848 28.2661 47.0967 30.5538 46.7698 32.1879C48.7311 32.079 50.6923 32.079 52.8715 32.079ZM66.3824 28.5929C64.0943 26.741 62.133 26.632 60.1718 27.8303C60.8255 29.1376 61.3703 30.4449 62.0241 31.7521C63.2226 31.5343 63.2226 31.5343 66.3824 28.5929ZM44.0458 31.8611C44.3727 30.6628 43.719 29.5734 43.1742 28.5929C42.9562 28.2661 42.3025 27.8304 42.0846 27.9393C41.3219 28.2661 40.5591 28.8108 39.9054 29.3555C39.2516 29.9002 38.5979 30.5538 38.8158 31.7521C40.5591 32.2968 42.3025 32.4058 44.0458 31.8611ZM36.5277 32.079C36.3097 30.9896 36.3097 30.227 36.2008 29.4644C35.9829 28.8108 35.3291 28.2661 34.5664 28.7019C33.1499 29.5734 31.6245 30.5538 31.0797 32.6236C32.932 32.2968 34.5664 32.2968 36.5277 32.079ZM60.3897 31.7521C59.627 29.4644 59.627 29.4644 57.9926 28.5929C56.903 29.4644 55.5955 30.1181 55.1596 31.8611C57.012 32.2968 58.6463 32.079 60.3897 31.7521ZM33.5858 27.8303C31.4066 27.5035 29.9901 28.1572 28.9005 29.2466C27.8109 30.3359 27.9199 31.3164 29.2274 32.5147C29.8812 31.7521 30.426 30.9896 31.0797 30.227C31.7335 29.4644 32.4962 28.8108 33.5858 27.8303ZM45.2444 30.3359C46.5519 29.2466 47.8594 28.484 49.1669 27.0678C47.3146 26.5231 45.5713 26.632 43.9369 27.3946C44.2637 28.375 44.6996 29.2466 45.2444 30.3359ZM73.5737 29.7912C72.0483 28.375 71.5035 28.2661 69.4333 29.2466C69.9781 30.227 69.8691 31.6432 71.2856 31.7521C72.4841 31.97 73.0289 30.7717 73.5737 29.7912ZM46.9877 33.713C49.8207 36.2186 51.3461 36.2186 52.4357 33.713C50.6923 33.713 49.0579 33.713 46.9877 33.713ZM38.38 33.713C39.0337 35.3471 39.2516 35.565 40.1233 35.565C41.4308 35.7829 42.6294 35.1292 43.8279 33.713C41.9756 33.713 40.3412 33.713 38.38 33.713ZM54.0701 30.227C55.0507 29.3555 55.8134 28.7019 56.6851 27.8303C55.2686 26.9588 54.179 26.8499 52.7625 27.3946C53.3073 28.484 53.6342 29.3555 54.0701 30.227ZM64.3122 33.6041C65.4018 34.6935 66.1645 35.6739 67.472 35.456C68.3437 35.2382 69.3243 35.1292 69.2154 33.6041C67.581 33.6041 66.2735 33.6041 64.3122 33.6041ZM37.3993 29.9002C38.4889 29.0287 39.4696 28.2661 40.5591 27.3946C39.1427 27.0678 37.9441 26.9588 36.7456 27.9393C36.9635 28.5929 37.1814 29.2466 37.3993 29.9002C37.5083 30.1181 37.5083 30.0091 37.3993 29.9002ZM31.6245 34.1488C33.3678 36.0007 34.8933 36.0007 35.8739 33.713C34.3485 33.3862 33.041 33.3862 31.6245 34.1488ZM64.966 31.6432C66.4914 32.4058 67.581 31.97 68.9974 31.4253C68.4526 30.6628 68.0168 30.1181 67.472 29.3555C66.7093 30.1181 65.9466 30.8806 64.966 31.6432ZM55.1596 34.0398C57.012 34.5845 58.4284 34.8024 60.1718 33.822C57.9926 33.3862 57.3388 33.3862 55.1596 34.0398ZM73.2468 33.713C74.3364 35.1292 74.3364 35.1292 75.7529 34.0398C74.6633 33.9309 74.0096 33.822 73.2468 33.713ZM73.7916 31.8611C74.5543 31.97 74.8812 32.079 75.6439 32.1879C75.0991 31.0985 74.6633 30.9896 73.7916 31.8611ZM84.3607 35.2382C84.3607 35.0203 84.3607 34.9114 84.3607 34.6935C84.0338 34.8024 83.489 34.9114 83.1621 34.9114C83.1621 35.0203 83.1621 35.2382 83.1621 35.2382C83.5979 35.2382 84.0338 35.2382 84.3607 35.2382Z" fill="black"/>
<path d="M17.5424 31.3701C17.2155 32.2417 16.4528 32.2417 15.908 32.1328C15.0363 31.9149 14.2736 31.6969 13.5109 31.479C11.0049 30.8253 8.60776 30.1715 5.99274 29.6267C3.70461 29.1909 1.74334 28.2103 0 26.7938C0.326877 25.9221 0.762714 25.8132 1.30751 26.249C3.81357 27.8834 6.6465 28.2103 9.47943 28.864C11.9855 29.4088 14.3826 30.2805 16.8886 31.0432C17.1066 31.0432 17.2155 31.1522 17.5424 31.3701Z" fill="#F15748"/>
<path d="M32.7126 20.0644C32.2717 19.1887 31.8805 18.6539 31.7818 18.2156C31.1913 16.0736 30.7465 13.7363 30.3996 11.5936C29.9541 9.01263 29.6549 6.48 29.2583 3.99637C29.0611 3.11995 28.6208 2.48784 28.4725 1.70873C28.2263 0.735015 28.6149 0.295418 29.7841 0.194641C31.214 6.42683 31.2801 12.8578 33.2939 18.796C33.1972 19.0886 33.0033 19.4302 32.7126 20.0644Z" fill="#F15748"/>
<path d="M10.6353 12.2129C10.9786 12.2415 11.5337 12.2188 11.7712 12.2732C12.5865 12.8599 13.4533 13.6583 14.1627 14.2707C16.6056 16.4799 19.0484 18.6891 21.4112 21.0299C22.0147 21.668 22.8043 22.1489 23.007 23.4449C17.9262 20.5313 14.6543 15.8329 10.0772 12.6848C10.4205 12.7135 10.475 12.476 10.6353 12.2129Z" fill="#F15748"/>
<path d="M83.3125 110.847C83.8573 108.995 84.62 108.45 87.6709 107.688C86.1454 108.777 84.729 109.758 83.3125 110.847Z" fill="black"/>
<path d="M79.0653 83.5228C79.7191 84.83 79.1743 86.0284 79.0653 87.1178C78.9564 87.9893 78.4116 88.8608 78.9564 89.7323C79.0653 89.9502 78.7385 90.3859 78.6295 90.7127C78.3026 92.1289 77.9757 93.4362 77.7578 94.8524C77.6489 95.1792 78.0847 95.7239 78.0847 96.0507C76.1234 97.9027 76.4503 100.408 75.9055 102.805C76.6682 103.132 77.322 103.567 78.4116 104.112C77.322 104.221 76.6682 104.33 75.9055 104.33C75.5787 105.637 75.1428 107.162 74.8159 108.579C74.707 109.014 74.598 109.668 74.4891 110.213C73.7263 113.481 72.8547 114.026 69.4769 113.917C67.1888 113.808 64.9007 113.808 62.7215 113.59C61.6319 113.481 60.3244 113.808 59.1258 113.917C58.799 113.917 58.581 114.026 58.2542 113.917C54.9854 113.372 51.4987 112.827 48.2299 112.283C46.8135 112.065 45.397 111.847 43.9805 111.629C42.0193 111.302 39.9491 110.866 37.8788 110.648C37.2251 110.54 36.4624 110.975 35.5907 110.975C33.6294 109.886 31.5592 109.123 29.38 110.866C28.9442 109.668 27.9636 109.341 26.874 109.123C25.2396 108.905 23.7142 108.579 22.5156 107.271C22.9515 106.073 23.6052 104.766 23.9321 103.459C24.3679 102.26 25.2396 100.953 23.3873 99.6457C25.4575 99.101 25.6754 97.6848 25.8934 96.3775C26.1113 94.9613 26.874 93.6541 26.2202 92.2379C26.1113 92.02 26.2202 91.8021 26.2202 91.5842C27.6367 88.7518 27.3098 85.7016 27.4188 82.6513C27.4188 81.9976 27.5277 81.344 27.6367 80.5814C29.8159 79.9278 31.8861 80.0367 33.9563 80.2546C39.9491 80.7993 45.9418 81.344 51.8256 82.1066C58.2542 82.8692 64.7917 83.196 71.2203 83.087C73.3995 83.087 75.5787 83.087 77.7578 83.196C78.1937 83.3049 78.6295 83.4138 79.0653 83.5228ZM35.5907 81.8887C35.3728 82.9781 35.1549 83.7407 35.1549 84.5032C35.0459 86.3552 35.4817 86.8999 37.2251 87.1178C38.3147 87.3356 39.6222 87.4446 40.8207 87.4446C41.3655 85.9194 40.6028 84.1764 42.0193 82.8691C42.891 84.5032 41.9103 86.1373 42.673 87.8803C43.8716 88.0982 45.1791 88.3161 46.7045 88.6429C47.5762 86.7909 47.9031 85.0479 47.5762 83.196C43.4358 82.3245 39.6222 82.4334 35.5907 81.8887ZM60.6513 104.003C58.69 104.003 56.9467 103.894 55.2033 103.894C54.5496 103.894 53.8958 104.221 53.5689 104.984C52.9152 107.054 52.1525 109.232 51.4987 111.411C53.351 112.174 54.9854 112.065 56.7287 112.065C58.4721 112.065 58.69 111.956 59.2348 110.322C59.6706 108.47 60.1065 106.509 60.6513 104.003ZM59.9975 112.283C62.1767 112.391 64.2469 112.5 66.4261 112.609C66.9709 109.777 67.5157 107.162 67.9515 104.221C65.8813 104.221 63.92 104.221 61.9588 104.221C61.305 106.836 60.6513 109.45 59.9975 112.283ZM47.1404 95.615C46.8135 96.9222 46.8135 98.0116 46.3776 98.8831C45.8328 99.9725 46.0508 101.062 46.2687 102.26C48.121 102.369 49.8643 102.587 51.7166 102.587C52.4793 102.696 53.0241 102.26 53.1331 101.498C53.46 99.7546 53.7869 98.0116 54.1137 96.0507C51.7166 95.8328 49.5375 95.7239 47.1404 95.615ZM44.1985 110.431C46.0508 110.757 47.4672 110.975 49.1016 111.193C49.7554 111.302 50.3002 110.866 50.5181 110.213C51.1718 108.252 51.7166 106.182 52.3704 104.003C49.8643 104.003 47.5762 104.003 44.9612 104.003C44.7433 105.964 44.4164 108.034 44.1985 110.431ZM67.5157 112.5C68.0605 112.609 68.3874 112.718 68.7142 112.718C69.0411 112.827 69.4769 112.827 69.8038 112.827C71.5472 112.718 72.2009 112.283 72.6368 110.54C72.9636 109.559 73.0726 108.688 73.3995 107.707C73.7263 106.618 73.9443 105.528 74.3801 104.221C72.5278 104.112 70.8934 103.894 69.1501 104.548C68.7142 107.054 68.1694 109.559 67.5157 112.5ZM61.7409 96.4865C59.6706 96.1597 57.7094 95.9418 55.6392 96.4865C54.9854 98.4474 54.5496 100.517 54.4406 102.696C56.7287 102.914 58.69 102.805 60.6513 102.478C61.305 100.408 62.0677 98.6652 61.7409 96.4865ZM29.489 108.361C30.3607 106.182 31.3413 104.33 31.1234 101.933C29.38 101.389 27.8546 101.171 26.2202 101.389C25.4575 103.241 24.8038 105.093 24.0411 106.945C25.7844 108.143 27.5277 108.143 29.489 108.361ZM62.1767 102.369C64.4648 102.805 66.4261 102.696 68.3874 102.587C69.1501 100.626 69.368 98.7742 69.1501 96.7043C67.2978 96.5954 65.4455 96.4865 63.4842 96.3775C63.0484 98.5563 62.6125 100.408 62.1767 102.369ZM27.9636 93.0004C27.3098 95.0703 26.9829 97.1401 26.874 99.3189C28.6173 99.8636 30.0338 100.626 31.8861 100.299C32.213 98.1205 32.7578 96.0507 33.0846 93.763C31.4503 93.2183 29.8159 93.2183 27.9636 93.0004ZM39.9491 94.7435C38.0968 94.4166 36.4624 93.8719 34.5011 94.3077C34.1742 96.4865 33.7384 98.5563 33.3026 100.844C34.719 101.498 36.1355 101.498 37.552 101.498C38.7505 99.4278 39.5132 97.249 39.9491 94.7435ZM38.7505 102.914C38.2057 105.202 37.1161 107.054 36.8982 109.123C38.7505 109.668 40.3849 110.104 42.2372 109.777C42.782 107.707 43.4357 105.746 43.6537 103.35C41.9103 103.241 40.4939 103.023 38.7505 102.914ZM49.2106 83.3049C48.8837 85.1569 48.6658 86.7909 48.3389 88.534C50.1912 89.6233 52.2614 88.8608 54.3316 88.9697C54.6585 87.4446 55.0944 85.9194 55.4212 84.2854C53.351 83.7407 51.3898 83.196 49.2106 83.3049ZM56.7287 89.0787C58.9079 89.6233 61.0871 89.4055 63.1573 88.7518C63.7021 87.2267 63.4842 85.8105 63.0484 84.2854C61.0871 84.2854 59.2348 84.2854 57.4915 84.2854C56.9467 85.9194 55.966 87.2267 56.7287 89.0787ZM55.8571 94.7435C58.1452 95.2881 60.2154 95.2881 62.2857 94.9613C62.7215 93.3272 63.0484 91.9111 62.6125 90.277C60.5423 90.277 58.5811 90.0591 56.4019 90.3859C56.184 91.911 55.966 93.2183 55.8571 94.7435ZM45.7239 95.1792C43.9805 94.9613 42.891 94.8524 41.5835 94.7435C40.8207 97.1401 40.058 99.3189 39.1863 101.716C40.9297 101.933 42.4551 102.042 43.8716 102.042C44.6343 99.8636 45.1791 97.7937 45.7239 95.1792ZM63.8111 95.2881C65.8813 95.2881 67.7336 95.2881 69.5859 95.2881C70.2397 93.763 70.3486 92.2379 70.4576 90.6038C68.3874 90.168 66.4261 90.277 64.4648 90.277C64.138 91.9111 63.92 93.3273 63.8111 95.2881ZM54.7675 90.168C52.3704 89.9502 50.4091 89.8412 48.3389 90.0591C48.121 91.4753 48.012 92.6736 48.012 94.0898C50.3002 94.7435 52.3704 94.7435 54.7675 94.7435C54.5496 93.1094 54.6585 91.8021 54.7675 90.168ZM33.1936 102.26C32.4309 104.657 31.7771 106.509 31.1234 108.688C32.7578 108.905 33.9563 109.014 35.3728 109.123C36.1355 106.945 37.0072 105.093 37.2251 102.805C35.6997 102.587 34.5011 102.369 33.1936 102.26ZM28.8352 86.3552C28.6173 88.3161 27.7457 89.8412 28.3994 91.6932C30.1428 92.02 31.6682 92.7826 33.3026 92.1289C33.6294 90.4948 33.8474 88.9697 33.4115 87.3356C31.8861 87.0088 30.5786 86.682 28.8352 86.3552ZM74.4891 102.696C74.8159 100.735 75.6876 98.8831 75.3607 96.7043C73.8353 96.8133 72.4188 96.9222 70.8934 97.0312C70.5665 98.9921 70.2397 100.844 69.9128 102.696C71.5472 102.696 72.8547 102.696 74.4891 102.696ZM35.0459 92.6736C36.8982 93.0004 38.5326 93.3273 40.3849 93.6541C40.6028 92.02 40.7118 90.4948 40.8207 88.9697C38.8595 88.6429 37.1161 88.2071 35.2638 87.8803C35.1549 88.6429 35.0459 89.0787 35.0459 89.6233C34.9369 90.6038 35.0459 91.4753 35.0459 92.6736ZM71.1113 95.8328C73.0726 95.615 74.598 95.506 76.2324 95.3971C76.5593 93.763 76.7772 92.2379 77.1041 90.6038C75.4697 90.6038 74.0532 90.4948 72.7457 90.4948C72.4188 90.4948 71.6561 90.9306 71.6561 91.3664C71.4382 92.7826 71.2203 94.0898 71.1113 95.8328ZM72.2009 89.0787C73.9443 89.6233 75.4697 89.8412 77.322 89.4055C77.322 87.8803 78.3026 86.682 77.7578 85.1569C76.0145 84.6122 74.3801 84.6122 72.4188 85.0479C72.4188 86.2462 71.6561 87.5535 72.2009 89.0787ZM70.6755 84.83C68.6053 84.6122 66.8619 84.5032 65.1186 84.7211C65.0096 86.2462 64.7917 87.5535 64.7917 89.0787C66.753 89.0787 68.7142 89.4055 70.5665 88.7518C70.5665 87.5535 70.5665 86.2462 70.6755 84.83ZM42.4551 89.0787C41.9103 90.8217 41.8014 92.1289 42.1282 93.5451C43.4358 93.8719 44.7433 94.3077 46.3776 93.8719C46.4866 92.4557 46.5956 91.1485 46.7045 89.6233C45.0701 89.2965 43.8716 89.1876 42.4551 89.0787ZM33.8474 81.8887C31.9951 81.4529 30.4696 81.0172 28.8352 81.7798C28.8352 82.7602 28.8352 83.6317 28.8352 84.6122C30.3607 85.3747 31.7771 85.9194 33.5205 85.8105C33.6294 84.6122 33.7384 83.3049 33.8474 81.8887Z" fill="black"/>
<path d="M49.2099 68.8865C48.883 68.7776 48.6651 68.5597 48.5562 68.6687C45.2874 69.758 41.6918 69.1044 38.423 68.8865C36.4617 68.7776 34.6094 68.015 33.193 66.0541C33.8467 64.8558 34.3915 63.5485 35.0453 62.3502C37.1155 59.0821 39.7305 56.2497 42.9993 54.0709C46.268 52.0011 49.6458 50.4759 53.2414 49.2776C55.6385 48.4061 58.1446 48.2971 60.6506 48.2971C61.3044 48.2971 62.0671 48.624 62.6119 49.1686C63.5925 49.9312 64.3552 50.9117 65.1179 51.7832C66.6434 53.7441 68.1688 55.8139 69.6942 57.6659C71.0017 59.2999 71.7644 61.1519 72.0913 63.2217C72.5271 65.7273 71.6555 67.9061 70.4569 69.9759C70.0211 70.8474 69.9121 71.3921 70.239 72.2636C70.8928 73.6798 71.4375 75.205 72.2003 76.839C73.9436 76.6212 75.469 76.5122 77.1034 76.1854C77.4303 76.0765 77.9751 75.3139 78.193 74.8782C78.5199 73.1351 78.9557 71.5011 79.0647 69.758C79.3915 63.1128 80.6991 56.6854 81.6797 50.258C81.8976 48.9508 81.8976 47.5346 82.0066 46.2273C82.1155 45.029 81.3528 44.2664 80.1543 43.9396C79.5005 43.7217 78.8468 43.6128 78.193 43.6128C73.3988 43.6128 68.4957 43.6128 63.7015 43.5038C61.8492 43.5038 60.1058 43.286 58.2535 43.177C54.4399 42.9592 50.6264 43.177 46.9218 42.1966C46.5949 42.0876 46.377 42.0876 45.9412 42.0876C41.6918 41.9787 37.3334 41.8698 32.975 41.8698C32.5392 41.8698 32.1034 41.8698 31.5586 41.9787C31.2317 45.5737 31.0138 49.1686 30.5779 53.0904C33.193 51.8921 34.6094 49.4955 37.3334 48.515C37.2244 48.9508 37.2244 49.1686 37.1155 49.2776C35.1542 50.9117 33.193 52.5457 31.1227 54.1798C30.1421 54.8335 30.0331 55.705 30.0331 56.7943C32.7571 54.9424 35.2632 53.0904 37.7692 51.3474C37.8782 51.4564 37.9871 51.5653 38.0961 51.6742C37.6603 52.11 37.2244 52.6547 36.7886 52.9815C34.9363 54.5066 32.975 56.1407 31.0138 57.339C29.9242 58.1016 29.5973 58.8642 29.4884 60.0625C29.0525 65.0737 28.3988 70.0849 27.745 75.205C27.636 75.8586 27.636 76.5122 26.6554 76.7301C26.5465 76.4033 26.4375 75.9675 26.4375 75.6407C26.8733 71.8279 27.5271 68.015 28.0719 64.2022C28.8346 57.5569 29.3794 50.9117 29.9242 44.2664C29.9242 43.8307 30.0331 43.286 30.1421 42.9591C30.469 41.2161 31.5586 40.5625 33.4109 40.5625C36.5707 40.7804 39.7305 40.8893 42.9993 40.8893C45.7232 40.7804 48.4472 40.9983 51.1712 41.434C51.8249 41.5429 52.4787 41.6519 53.1324 41.7608C61.5223 42.0876 70.13 42.3055 78.5199 42.0876C78.6288 42.0876 78.7378 42.0876 78.7378 42.0876C82.7693 41.9787 83.9678 43.177 83.641 47.2078C83.3141 49.9312 82.7693 52.6547 82.4424 55.596C81.8976 59.6267 81.4618 63.5485 81.0259 67.5793C80.6991 70.1938 80.4811 72.9173 80.0453 75.4228C79.8274 76.7301 78.9557 77.7106 77.6482 77.8195C75.3601 78.0374 73.0719 78.2552 70.7838 78.3642C65.8806 78.4731 60.9775 78.691 55.9654 78.1463C51.2801 77.7106 46.5949 78.0374 41.9097 77.7106C39.9484 77.4927 37.9871 77.3837 36.0259 77.0569C34.1736 76.8391 32.4302 76.6212 30.5779 76.2944C30.1421 76.1854 29.4883 76.1854 29.0525 75.9675C28.8346 75.8586 28.7256 75.4228 28.7256 75.096C28.7256 74.8782 29.0525 74.6603 29.3794 74.6603C29.8152 74.6603 30.2511 74.7692 30.6869 74.8782C35.59 75.6407 40.4932 76.7301 45.6143 76.5122C47.3576 76.5122 47.7935 76.1854 48.1203 74.6603C48.5562 72.5904 48.883 70.7385 49.2099 68.8865ZM59.1252 50.0402C56.1833 49.3865 53.7862 50.0402 51.4981 51.1295C48.6651 52.4368 45.9412 53.853 43.3261 55.4871C41.2559 56.7943 39.2947 58.5374 38.0961 60.8251C39.5126 62.677 39.8394 64.8558 39.1857 67.2525C41.9097 67.5793 44.5247 68.015 46.9218 67.4703C51.2801 66.3809 55.5295 64.7469 59.561 62.4592C58.2535 58.3195 57.5998 54.2888 59.1252 50.0402ZM70.239 77.1659C70.239 76.839 70.348 76.5122 70.239 76.2944C69.4763 74.5513 68.8225 72.9173 67.9509 71.1742C67.7329 70.8474 66.9702 70.4117 66.6434 70.6295C65.5538 70.9564 64.9 70.3027 64.2463 69.758C62.394 68.2329 60.9775 66.4899 60.1058 64.3111C58.3625 64.9647 56.8371 65.6184 55.2027 66.1631C54.331 66.4899 53.4593 66.8167 52.6966 67.1435C51.8249 67.4703 51.4981 68.015 51.1712 68.7776C50.7353 70.3027 50.4085 71.8279 49.9726 73.462C52.1518 72.4815 53.2414 70.4117 55.4206 69.867C54.331 70.9564 53.2414 71.8279 52.1518 72.9173C49.8637 74.9871 49.8637 74.9871 49.3189 76.6212C50.2995 75.6407 50.9533 74.9871 51.607 74.4424C52.3697 73.8977 53.0235 73.1351 54.4399 72.8083C53.2414 74.1156 52.3697 74.9871 51.1712 76.1854C57.5998 77.4927 63.9194 76.7301 70.239 77.1659ZM61.1954 49.8223C60.8685 50.0402 60.7596 50.1491 60.7596 50.1491C59.2341 54.0709 59.3431 57.7748 61.3044 61.4787C61.5223 61.8055 61.6312 62.4592 61.6312 62.8949C61.7402 63.2217 61.7402 63.7664 61.8492 64.42C62.9388 63.7664 64.0283 63.3307 65.009 62.677C64.4642 63.6575 63.7015 64.2022 62.9388 64.8558C62.5029 65.2916 62.5029 65.8362 63.2656 66.0541C64.5731 65.1826 65.6627 63.7664 67.624 63.2217C66.4254 64.9647 64.3552 65.4005 63.9194 67.2525C65.4448 68.8865 67.1881 69.3223 69.2584 69.1044C71.4375 65.6184 71.3286 62.2413 68.9315 59.0821C66.8613 56.3586 64.6821 53.6351 62.5029 50.8027C62.176 50.4759 61.6312 50.258 61.1954 49.8223Z" fill="black"/>
<path d="M88.2988 56.3672C87.2092 57.2389 86.1196 58.0016 84.7031 58.9822C85.4658 57.1299 86.3375 56.5851 88.2988 56.3672Z" fill="black"/>
<path d="M50.7289 58.2371C49.3125 58.1281 48.5497 57.6923 48.6587 56.7117C48.7677 55.731 49.7483 54.8594 50.9468 54.8594C51.9275 54.8594 52.6902 55.6221 52.7991 56.6027C52.7991 57.6923 52.0364 58.2371 50.7289 58.2371Z" fill="black"/>
<path d="M41.5391 61.4831C42.0839 61.2652 42.5197 61.1562 42.7376 61.1562C42.9555 61.1562 43.0645 61.4831 43.1734 61.701C42.8466 61.919 42.5197 62.1369 42.0839 62.2458C42.0839 62.1369 41.8659 61.81 41.5391 61.4831Z" fill="black"/>
<path d="M45.5883 63.5455C45.1525 63.8723 44.9346 64.0903 44.6077 64.1992C44.4988 64.1992 44.1719 63.7634 44.1719 63.7634C44.3898 63.4365 44.4988 63.2186 44.8256 63.1096C44.9346 62.8917 45.2615 63.2186 45.5883 63.5455Z" fill="black"/>
<path d="M46.0396 59.7656C46.3665 60.0925 46.6934 60.4194 46.6934 60.4194C46.4754 60.7463 46.2575 60.8552 46.0396 61.0731L45.7127 60.7463C45.6038 60.4194 45.7127 60.0925 46.0396 59.7656Z" fill="black"/>
<path d="M33.2892 81.0911C33.1803 81.5269 33.0713 82.1807 33.0713 82.6165C33.1803 84.4688 33.834 86.2122 35.5774 87.1928C38.4103 88.7182 42.006 86.5391 42.2239 83.2703C42.3328 82.1807 41.4612 81.0911 40.2626 80.8732C38.5193 80.5463 37.1028 80.8732 35.9043 82.1807C35.5774 82.5076 35.3595 83.1613 34.9236 83.3792C34.5968 83.7061 34.1609 83.7061 33.834 83.8151C34.1609 81.309 35.6863 79.7836 38.1924 79.4567C38.9551 79.3478 39.7178 79.3478 40.4805 79.4567C42.9866 79.7836 44.2941 82.2896 43.0955 84.5778C42.6597 85.4495 42.006 86.3211 41.3522 86.9749C39.4999 88.9362 37.5386 89.263 35.0326 87.8466C32.7444 86.648 31.7638 84.3599 32.4176 81.9628C32.5265 81.6359 32.7444 81.2001 33.0713 80.8732C33.1803 81.0911 33.1803 81.0911 33.2892 81.0911Z" fill="#F15748"/>
</svg>
