<svg width="194" height="120" viewBox="0 0 194 120" fill="none" xmlns="http://www.w3.org/2000/svg">
<g clip-path="url(#clip0_14550_702)">
<path d="M157.197 115.498C153.597 115.298 149.797 114.998 145.997 114.798C145.997 114.898 145.997 114.898 145.997 114.998H145.897C145.897 114.798 145.797 114.698 145.797 114.498C145.997 114.498 146.097 114.398 146.297 114.398C148.197 114.498 150.197 114.498 152.097 114.598C154.297 114.698 156.397 114.998 158.597 115.198C158.797 115.198 158.997 115.398 159.197 115.598C159.197 115.698 159.097 115.698 159.097 115.798C156.797 116.198 154.597 116.498 152.297 116.898V116.998C152.597 116.998 152.797 116.998 153.097 116.998C154.197 116.998 155.297 116.998 156.397 116.998C156.597 116.998 156.797 117.098 156.997 117.198C157.497 117.398 157.597 117.998 157.197 118.398C156.797 118.698 156.397 118.898 155.997 119.098C155.697 119.298 155.197 119.298 154.997 119.898C154.997 119.998 154.397 120.098 154.197 119.998C153.997 119.798 153.897 119.398 154.297 119.198C154.997 118.798 155.697 118.398 156.497 118.098C156.697 117.998 156.797 117.898 156.997 117.798V117.698C156.397 117.698 155.697 117.598 155.097 117.598C153.397 117.598 151.797 117.598 150.097 117.598C149.897 117.598 149.697 117.498 149.597 117.398C149.297 117.098 149.497 116.798 149.997 116.698C151.297 116.498 152.497 116.198 153.797 115.998C155.097 115.798 156.297 115.598 157.197 115.498Z" fill="black"/>
<path d="M148.999 34.3031C148.599 34.8031 148.099 35.5031 147.599 36.3031C147.499 36.4031 147.399 36.6031 147.399 36.7031C147.099 37.2031 146.799 37.8031 146.499 38.3031C145.499 40.0031 144.499 41.6031 143.899 43.4031C143.799 43.7031 143.699 44.0031 143.599 44.3031C142.699 48.0031 143.399 51.9031 143.699 55.8031C143.799 56.7031 143.799 57.5031 143.799 58.4031C143.799 60.0031 143.699 61.6031 143.499 63.1031C143.199 65.7031 142.799 68.1031 142.099 70.6031C141.499 72.9031 140.699 75.3031 139.799 77.8031C137.099 84.8031 133.799 93.2031 132.499 100.603C132.399 101.403 132.199 102.303 131.999 103.103C131.999 103.403 131.899 103.603 131.899 103.903C131.799 104.903 131.999 105.903 132.599 106.703C133.399 107.803 134.699 108.403 135.699 109.203L135.799 109.303C136.799 110.203 137.699 111.503 137.299 112.803C136.799 114.203 135.099 114.703 133.599 114.903C132.099 115.103 130.699 115.203 129.199 115.203C129.099 115.203 128.999 115.203 128.899 115.203C128.199 115.103 127.599 115.003 126.899 114.903C126.599 114.903 126.299 114.703 126.199 114.503C125.799 113.903 125.399 113.303 125.199 112.603C124.999 112.103 124.899 111.603 124.699 111.003C124.499 110.003 124.399 109.003 124.199 108.003C124.199 107.803 124.099 107.503 124.099 107.303C124.099 107.303 124.099 107.303 124.099 107.203C124.099 106.903 123.999 106.603 123.999 106.403C123.999 106.203 123.899 105.903 123.899 105.703C123.899 105.603 123.899 105.503 123.899 105.503C123.799 104.703 123.599 103.903 123.499 103.103C123.299 102.203 123.199 101.303 123.099 100.403C122.799 98.3031 122.399 96.2031 121.499 94.3031C121.399 94.1031 121.299 93.9031 121.199 93.7031C121.099 93.4031 120.899 93.2031 120.699 92.9031C120.599 92.7031 120.399 92.5031 120.299 92.3031C120.199 92.2031 120.099 92.1031 119.999 92.0031C119.799 91.8031 119.699 91.6031 119.499 91.4031L119.399 91.3031C119.399 91.3031 119.399 91.3031 119.299 91.2031C119.299 91.2031 119.199 91.1031 119.099 91.1031C118.899 90.9031 118.699 90.8031 118.399 90.6031C118.299 90.5031 118.199 90.5031 118.099 90.4031C117.899 90.3031 117.799 90.2031 117.599 90.1031C117.299 90.0031 117.099 89.8031 116.799 89.7031C116.799 89.7031 116.699 89.7031 116.599 89.6031C116.399 89.5031 116.199 89.4031 115.999 89.4031C115.299 89.2031 114.599 89.0031 113.799 88.8031C112.599 88.6031 111.299 88.4031 110.099 88.2031C109.999 88.2031 109.899 88.2031 109.799 88.2031C109.599 88.2031 109.299 88.1031 109.099 88.1031C105.199 87.5031 101.499 86.4031 97.8986 85.0031C97.5986 84.9031 97.1986 84.7031 96.8986 84.6031C95.9986 84.2031 94.9986 83.8031 94.0986 83.4031C93.7986 83.3031 93.4986 83.1031 93.1986 83.0031C90.8986 82.0031 88.4986 80.9031 86.0986 80.2031C82.2986 79.1031 78.1986 78.9031 74.6986 80.6031C73.8986 81.0031 73.0986 81.5031 72.5986 82.2031C72.4986 82.3031 72.4986 82.4031 72.3986 82.4031C72.3986 82.5031 72.2986 82.6031 72.2986 82.7031C72.1986 82.8031 72.1986 82.9031 72.0986 83.1031C72.0986 83.2031 71.9986 83.4031 71.9986 83.5031C71.8986 83.7031 71.8986 83.8031 71.7986 84.0031C71.7986 84.1031 71.6986 84.2031 71.6986 84.3031C71.3986 85.4031 71.0986 86.5031 70.7986 87.6031C70.7986 87.6031 70.7986 87.6031 70.7986 87.7031C70.4986 88.8031 70.1986 89.8031 69.8986 90.9031C69.2986 93.0031 68.6986 95.2031 68.0986 97.3031C67.9986 97.5031 67.8986 97.8031 67.7986 98.0031C67.3986 98.7031 67.1986 99.5031 66.9986 100.203C66.5986 101.603 66.6986 102.003 67.9986 102.803C68.5986 103.203 69.2986 103.603 69.7986 104.103C69.9986 104.303 70.0986 104.403 70.2986 104.603C70.2986 104.503 70.2986 104.503 70.2986 104.403C70.2986 104.503 70.2986 104.503 70.2986 104.603C70.2986 104.803 70.2986 104.903 70.2986 105.103C70.2986 105.303 70.1986 105.503 70.0986 105.603C69.9986 105.803 69.8986 105.903 69.7986 106.103C69.2986 106.503 68.6986 106.603 67.9986 106.603C65.8986 106.503 63.9986 105.403 61.8986 105.403C61.4986 105.403 60.9986 105.503 60.5986 105.603C60.2986 105.703 59.9986 105.803 59.6986 106.003C59.5986 106.003 59.5986 106.103 59.4986 106.103C59.1986 106.303 58.9986 106.503 58.7986 106.703C58.5986 106.903 58.4986 107.003 58.3986 107.203C57.9986 107.803 57.8986 108.503 58.0986 109.203C58.2986 109.703 58.6986 110.103 59.0986 110.403C59.9986 111.003 61.0986 111.403 61.9986 111.903C62.7986 112.903 62.5986 114.103 61.2986 115.003C60.3986 115.703 59.2986 116.203 57.9986 116.103C57.1986 116.003 56.2986 116.203 55.4986 116.303C53.4986 116.603 51.4986 116.103 49.5986 115.703C49.3986 115.603 49.1986 115.603 48.9986 115.503C48.2986 115.003 47.7986 114.403 47.5986 113.703C47.4986 113.503 47.4986 113.303 47.4986 113.103C47.3986 112.403 47.4986 111.603 47.6986 110.903C48.0986 109.403 48.8986 107.803 48.7986 106.303C48.7986 105.903 48.6986 105.503 48.4986 105.103C48.4986 105.003 48.4986 104.903 48.3986 104.803C48.3986 103.703 48.2986 102.703 48.0986 101.603C48.0986 100.703 48.2986 99.7031 48.4986 98.8031C48.5986 98.5031 48.6986 98.2031 48.6986 97.8031C48.9986 96.7031 49.3986 95.6031 49.7986 94.4031C49.8986 94.2031 49.8986 94.1031 49.9986 93.9031C50.1986 93.4031 50.3986 92.9031 50.4986 92.4031C51.8986 87.2031 50.1986 81.8031 48.7986 76.3031C48.4986 75.1031 48.1986 74.0031 47.9986 72.8031V72.7031C47.2986 69.2031 46.9986 65.8031 47.8986 62.4031C47.9986 62.1031 48.0986 61.9031 48.0986 61.6031C48.2986 61.1031 48.4986 60.6031 48.6986 60.1031C48.9986 59.3031 49.2986 58.5031 49.6986 57.7031C49.8986 57.2031 50.0986 56.7031 50.1986 56.1031C50.1986 56.0031 50.2986 55.8031 50.2986 55.6031C50.2986 55.5031 50.3986 55.4031 50.3986 55.3031C50.3986 55.3031 50.3986 55.3031 50.3986 55.2031C50.3986 55.1031 50.4986 55.0031 50.4986 54.9031C50.4986 54.8031 50.4986 54.7031 50.4986 54.6031C50.5986 54.3031 50.5986 53.9031 50.5986 53.6031C50.5986 53.4031 50.5986 53.2031 50.5986 53.0031C50.5986 52.9031 50.5986 52.8031 50.5986 52.6031C50.5986 52.5031 50.5986 52.5031 50.5986 52.5031C50.5986 52.4031 50.5986 52.3031 50.5986 52.2031C50.5986 52.1031 50.5986 52.0031 50.5986 51.9031V51.8031C50.5986 51.7031 50.5986 51.6031 50.4986 51.5031C50.4986 51.3031 50.3986 51.2031 50.3986 51.0031C50.2986 50.7031 50.1986 50.5031 50.0986 50.2031C50.0986 50.1031 49.9986 50.1031 49.9986 50.0031C49.8986 49.9031 49.8986 49.8031 49.7986 49.6031C49.6986 49.5031 49.5986 49.3031 49.4986 49.2031C49.3986 49.1031 49.2986 49.0031 49.2986 48.9031C49.1986 48.8031 49.0986 48.7031 48.9986 48.6031C48.6986 48.2031 48.2986 47.9031 47.8986 47.5031C46.9986 45.6031 46.4986 43.7031 46.5986 41.5031V41.2031C46.6986 40.9031 46.7986 40.5031 46.9986 40.2031C47.0986 39.9031 47.2986 39.6031 47.3986 39.2031C47.4986 38.9031 47.6986 38.5031 47.8986 38.2031C48.7986 36.9031 49.5986 35.5031 50.5986 34.3031C50.7986 34.2031 50.8986 34.1031 51.0986 33.9031C51.1986 33.8031 51.3986 33.7031 51.4986 33.6031C51.5986 33.5031 51.7986 33.5031 51.8986 33.4031L51.9986 33.3031C52.0986 33.3031 52.0986 33.2031 52.1986 33.2031C52.2986 33.2031 52.2986 33.1031 52.3986 33.1031C52.4986 33.3031 52.4986 33.5031 52.5986 33.7031C52.9986 33.5031 53.3986 33.3031 53.6986 33.1031C54.0986 32.9031 54.5986 32.7031 54.9986 32.5031C56.4986 32.3031 58.2986 32.2031 59.6986 32.3031C60.2986 32.3031 60.8986 32.4031 61.2986 32.5031C65.4986 33.6031 66.5986 36.9031 68.7986 40.6031C69.1986 41.3031 69.5986 42.0031 70.1986 42.4031C70.7986 42.7031 71.3986 42.8031 72.0986 42.8031H72.1986C73.8986 42.9031 75.5986 43.0031 77.1986 43.1031C79.9986 43.3031 82.6986 43.5031 85.4986 43.6031C88.3986 43.8031 91.3986 44.0031 94.2986 43.7031C94.9986 43.6031 95.5986 43.6031 96.1986 43.5031C96.9986 43.4031 97.6986 43.2031 98.4986 43.0031C99.5986 42.7031 100.799 42.3031 101.799 41.7031C102.599 41.3031 103.499 40.7031 103.899 39.9031C103.999 39.8031 103.999 39.6031 104.099 39.5031C104.199 39.3031 104.199 39.1031 104.199 38.9031C104.199 38.8031 104.199 38.7031 104.199 38.7031C104.199 38.5031 104.199 38.3031 104.199 38.1031C104.199 38.0031 104.199 37.9031 104.099 37.8031C104.099 37.7031 104.099 37.7031 104.099 37.6031C104.099 37.5031 103.999 37.3031 103.999 37.2031C103.999 37.0031 103.899 36.8031 103.799 36.6031C103.799 36.5031 103.699 36.4031 103.699 36.3031C103.699 36.1031 103.599 35.9031 103.599 35.8031C103.499 35.6031 103.499 35.4031 103.499 35.2031C103.399 34.9031 103.399 34.6031 103.299 34.4031C103.299 34.2031 103.199 33.9031 103.199 33.7031C103.199 33.5031 103.099 33.2031 103.099 33.0031C103.099 32.9031 103.099 32.7031 103.099 32.6031C103.099 32.5031 103.099 32.3031 103.099 32.2031C103.099 32.0031 103.099 31.7031 103.099 31.5031C103.099 31.3031 103.099 31.0031 103.099 30.7031C103.099 30.3031 103.099 29.9031 103.199 29.5031C103.299 28.2031 103.599 26.8031 104.599 25.9031C104.699 25.8031 104.899 25.7031 105.099 25.6031C105.199 25.5031 105.299 25.5031 105.399 25.5031C105.499 25.4031 105.599 25.4031 105.699 25.4031C105.799 25.4031 105.899 25.3031 105.999 25.3031C106.099 25.3031 106.199 25.2031 106.299 25.2031C106.499 25.1031 106.799 25.1031 106.999 25.0031H107.099C107.299 24.9031 107.499 24.9031 107.699 24.9031C107.999 24.8031 108.199 24.8031 108.499 24.7031C109.599 24.5031 110.699 24.3031 111.699 24.1031C112.699 23.9031 113.599 23.7031 114.099 23.4031C114.899 23.6031 115.499 23.3031 116.099 22.8031C116.499 22.5031 116.999 22.1031 117.399 21.8031C118.699 21.3031 119.799 20.8031 120.999 20.5031C120.999 20.6031 121.099 20.6031 121.099 20.7031C124.099 20.2031 127.199 20.2031 130.199 20.2031C130.599 20.3031 130.999 20.4031 131.399 20.5031C131.699 20.6031 131.899 20.7031 132.199 20.7031C134.299 21.3031 135.599 21.7031 136.499 21.9031C137.299 22.1031 137.899 22.1031 138.599 22.1031H138.699C139.499 22.1031 140.599 22.0031 142.199 21.9031C143.899 23.0031 150.899 28.6031 150.999 27.7031C151.999 31.8031 150.699 32.2031 148.999 34.3031Z" fill="white"/>
<path d="M98.6906 9C98.7906 9.3 98.9906 9.6 99.0906 9.8C99.6906 11.4 100.391 12.8 101.291 14.2C101.991 15.4 102.491 16.6 103.091 17.9C103.291 18.4 102.991 18.8 102.591 18.7C102.491 18.7 102.291 18.6 102.191 18.4C102.091 18.2 101.991 18 101.891 17.8C101.191 16.4 100.391 14.9 99.6906 13.5C99.1906 12.5 98.6906 11.5 98.1906 10.5C97.5906 9.7 97.5906 9.6 98.6906 9Z" fill="black"/>
<path d="M90.1953 17.1979C90.8953 16.6979 91.4953 16.7979 91.9953 17.1979C92.7953 17.6979 93.4953 18.0979 94.2953 18.5979C95.5953 19.3979 96.9953 20.1979 98.2953 20.9979C98.3953 21.0979 98.5953 21.0979 98.6953 21.1979C99.0953 21.4979 99.1953 21.7979 98.9953 22.0979C98.7953 22.3979 98.4953 22.4979 98.0953 22.2979C97.8953 22.1979 97.6953 22.0979 97.3953 21.8979C95.5953 20.6979 93.7953 19.5979 91.8953 18.6979C91.3953 18.4979 90.9953 18.1979 90.5953 17.7979C90.3953 17.6979 90.3953 17.3979 90.1953 17.1979Z" fill="black"/>
<path d="M88.0938 26.2969C88.5938 26.3969 89.0937 26.3969 89.6937 26.4969C90.3937 26.5969 91.0938 26.5969 91.7938 26.6969C93.3938 26.8969 94.9937 26.9969 96.6937 27.0969C96.9937 27.0969 97.2938 27.1969 97.2938 27.5969C97.2938 27.8969 97.0938 28.0969 96.7938 28.1969C96.4938 28.1969 96.0937 28.1969 95.6937 28.1969C93.5937 27.9969 91.4938 27.7969 89.3938 27.5969C88.3938 27.4969 88.2938 27.3969 88.0938 26.2969Z" fill="black"/>
<path d="M48.8968 17.7969C48.9968 18.1969 49.0968 18.4969 49.0968 18.7969C49.2968 20.5969 49.7968 22.3969 50.3968 24.0969C50.8968 25.4969 51.0968 26.9969 51.4968 28.4969C51.5968 29.0969 51.1968 29.4969 50.6968 29.1969C50.5968 29.0969 50.3968 28.9969 50.2968 28.7969C50.1968 28.5969 50.0968 28.2969 50.0968 28.0969C49.5968 26.3969 49.0968 24.5969 48.6968 22.8969C48.3968 21.6969 48.0968 20.4969 47.7968 19.2969C47.4968 18.2969 47.5968 18.1969 48.8968 17.7969Z" fill="black"/>
<path d="M37 27.8932C37.7 27.3932 38.3 27.4932 38.8 27.8932C39.6 28.3932 40.3 28.7932 41.1 29.2932C42.4 30.0932 43.8 30.8932 45.1 31.6932C45.2 31.7932 45.3 31.7932 45.5 31.8932C45.9 32.1932 46 32.4932 45.8 32.7932C45.6 33.0932 45.3 33.1932 44.9 32.9932C44.7 32.8932 44.5 32.7932 44.2 32.5932C42.4 31.3932 40.6 30.2932 38.7 29.3932C38.2 29.1932 37.8 28.7932 37.4 28.4932C37.2 28.3932 37.1 28.0932 37 27.8932Z" fill="black"/>
<path d="M34.7969 37C35.2969 37.1 35.7969 37.2 36.3969 37.2C37.0969 37.3 37.7969 37.4 38.4969 37.4C40.0969 37.6 41.6969 37.7 43.3969 37.9C43.6969 37.9 43.9969 38 43.9969 38.4C43.9969 38.7 43.7969 38.9 43.4969 38.9C43.1969 38.9 42.7969 38.9 42.3969 38.9C40.2969 38.7 38.1969 38.5 36.0969 38.2C35.0969 38.2 34.9969 38.1 34.7969 37Z" fill="black"/>
<path d="M54.5939 57.3C54.1939 61.3 50.6939 64.3 49.2939 68.1C48.7939 69.6 48.5939 71.1 48.1939 72.6C47.4939 69.1 47.1939 65.7 48.0939 62.3C48.1939 62 48.2939 61.8 48.2939 61.5C48.4939 61 48.6939 60.5 48.8939 60C49.1939 59.2 49.4939 58.4 49.8939 57.6C50.0939 57.1 50.2939 56.6 50.3939 56C50.3939 55.9 50.4939 55.7 50.4939 55.5C50.4939 55.4 50.5939 55.3 50.5939 55.2C50.5939 55.2 50.5939 55.2 50.5939 55.1C50.5939 55 50.6939 54.9 50.6939 54.8C50.6939 54.7 50.6939 54.6 50.6939 54.5C50.7939 54.2 50.7939 53.8 50.7939 53.5C50.7939 53.3 50.7939 53.1 50.7939 52.9C50.7939 52.8 50.7939 52.7 50.7939 52.5C50.7939 52.4 50.7939 52.4 50.7939 52.4C50.7939 52.3 50.7939 52.2 50.7939 52.1C50.7939 52 50.7939 51.9 50.7939 51.8V51.7C50.7939 51.6 50.7939 51.5 50.6939 51.4C50.6939 51.2 50.5939 51.1 50.5939 50.9C50.4939 50.6 50.3939 50.4 50.2939 50.1C50.2939 50 50.1939 50 50.1939 49.9C50.0939 49.8 50.0939 49.7 49.9939 49.5C49.8939 49.4 49.7939 49.2 49.6939 49.1C49.5939 49 49.4939 48.9 49.4939 48.8C49.3939 48.7 49.2939 48.6 49.1939 48.5C48.8939 48.1 48.4939 47.8 48.0939 47.4C47.1939 45.5 46.6939 43.6 46.7939 41.4V41.1C46.8939 40.8 46.9939 40.4 47.1939 40.1C47.2939 39.8 47.4939 39.5 47.5939 39.1C47.6939 38.8 47.8939 38.4 48.0939 38.1C48.9939 36.8 49.7939 35.4 50.7939 34.2C50.9939 34.1 51.0939 34 51.2939 33.8C51.3939 33.7 51.5939 33.6 51.6939 33.5C51.7939 33.4 51.9939 33.4 52.0939 33.3L52.1939 33.2C52.2939 33.2 52.2939 33.1 52.3939 33.1C52.4939 33.1 52.4939 33 52.5939 33C52.6939 33.2 52.6939 33.4 52.7939 33.6C53.1939 33.4 53.5939 33.2 53.8939 33L54.8939 33.2C54.3939 33.7 53.8939 34.2 53.4939 34.8C52.2939 36.5 51.4939 38.4 51.0939 40.4C50.9939 40.7 50.9939 40.9 50.9939 41.2C50.9939 41.5 50.8939 41.8 50.8939 42.1C50.8939 42.4 50.8939 42.6 50.8939 42.8C50.8939 43.9 50.9939 44.9 51.2939 45.9C52.1939 50 54.8939 53.4 54.5939 57.3Z" fill="#BABAB9"/>
<path d="M72.3938 81.2018L72.2938 82.7018C72.1938 82.8018 72.1938 82.9018 72.0938 83.1018C72.0938 83.2018 71.9938 83.4018 71.9938 83.5018C71.8938 83.7018 71.8938 83.8018 71.7938 84.0018C71.7938 84.1018 71.6937 84.2018 71.6937 84.3018C71.3937 85.4018 71.0938 86.5018 70.7938 87.6018C70.7938 87.6018 70.7938 87.6018 70.7938 87.7018C70.4938 88.8018 70.1938 89.8018 69.8938 90.9018C69.2938 93.0018 68.6938 95.2018 68.0938 97.3018C67.9937 97.5018 67.8938 97.8018 67.7938 98.0018C67.3938 98.7018 67.1938 99.5018 66.9938 100.202C66.5938 101.602 66.6938 102.002 67.9938 102.802C68.5938 103.202 69.2938 103.602 69.7938 104.102C69.9938 104.302 70.0938 104.402 70.2938 104.602C70.2938 104.802 70.2938 104.902 70.2938 105.102C70.1938 105.802 70.3938 106.502 69.8938 107.102C69.4938 107.602 68.7937 107.602 68.0938 107.602C66.7937 107.502 65.3937 107.302 64.1937 106.902C63.2937 106.602 62.4938 106.302 61.5938 106.102C60.9937 106.002 60.2938 105.802 59.7938 106.102C59.6938 106.102 59.6938 106.202 59.5938 106.202V106.102C59.5938 106.002 59.5938 105.802 59.6938 105.702C59.8938 105.002 60.0938 104.302 60.3938 103.602C60.6938 102.702 61.0938 101.702 61.4938 100.802C61.6938 100.402 61.7938 100.002 61.9938 99.6018C62.4938 98.5018 63.0938 97.5018 63.6938 96.4018C63.8938 96.1018 63.9937 95.8018 64.1937 95.6018C65.1937 94.1018 66.1938 92.7018 66.8938 91.1018C67.4938 89.8018 67.6938 88.3018 67.8938 86.9018C68.0938 85.0018 68.3938 83.1018 69.3938 81.6018C69.3938 81.5018 69.4938 81.5018 69.4938 81.4018C69.9938 80.7018 70.7937 80.2018 71.5938 80.3018C71.6938 80.3018 71.6938 80.3018 71.7938 80.3018C71.9938 80.3018 72.2938 80.4018 72.3938 80.6018C72.4938 80.7018 72.4938 80.8018 72.4938 80.9018C72.4938 81.0018 72.4938 81.2018 72.4938 81.3018C72.3938 81.1018 72.3938 81.1018 72.3938 81.2018Z" fill="#BABAB9"/>
<path d="M105.794 42.4C105.194 43.2 103.994 43.4 103.294 44.1C101.694 45.7 103.094 48.7 101.894 50.6C101.194 51.6 99.7938 52 98.5938 51.8C97.7938 51.7 96.9938 51.3 96.3938 50.7C95.8938 50.3 95.5938 49.8 95.0938 49.4C94.4937 48.9 93.6938 48.7 92.8938 48.5C89.5938 47.6 86.0937 47.4 82.6937 47.9C80.5937 48.2 78.4938 48.7 76.2938 48.5C74.1938 48.3 71.8937 47.2 71.0938 45.2C70.8938 44.6 70.7937 43.9 70.6937 43.3C70.6937 43 70.5938 42.8 70.5938 42.5C71.1938 42.8 71.7938 42.9 72.4938 42.9C76.9938 43.2 81.7938 43.1 86.2938 42.8C91.9938 42.5 97.6938 42.8 102.294 41.9C103.394 41.7 104.294 40.7 104.594 39.6C104.694 39.4 104.694 39.2 104.694 39C104.794 39 104.994 39 105.094 39.1C106.194 39.7 106.494 41.5 105.794 42.4Z" fill="#BABAB9"/>
<path d="M112.098 24.1016C112.098 24.7016 111.898 25.3016 111.298 26.2016C110.198 27.8016 109.398 28.8016 109.198 30.8016C108.998 32.4016 109.098 34.1016 108.398 35.6016C107.798 36.8016 106.798 37.7016 105.698 38.5016C105.398 38.7016 104.998 38.9016 104.698 39.0016L104.598 38.9016C104.598 38.1016 104.298 37.4016 104.098 36.6016C103.498 34.4016 103.198 32.0016 103.398 29.7016C103.498 28.4016 103.798 27.0016 104.798 26.1016C105.898 25.1016 109.498 24.6016 112.098 24.1016Z" fill="#BABAB9"/>
<path d="M125.3 106.5C125.1 107.1 124.7 107.5 124.2 107.9C124.3 107.9 124.1 107.2 124.1 107.1C124.1 106.8 124 106.6 124 106.3C123.9 105.8 123.9 105.3 123.7 104.9C122.4 102.2 121.3 99.4 120.6 96.5C120.2 95 119.9 93.6 119.7 92.1C119.6 91.7 119.7 91.5 119.4 91.2C119.2 91 118.9 90.8 118.6 90.6C118.1 90.2 117.5 89.9 116.9 89.7C114.5 88.7 111.8 88.5 109.2 88.1C105.3 87.5 101.6 86.4 98 85C98.9 85.1 100 85.6 100.6 85.7C102.4 86 104.2 86.2 106.1 86.2C108.4 86.2 110.7 85.7 113 85.6C114.6 85.5 116.1 85.5 117.7 85.7C118.4 85.8 119.2 85.9 119.8 86.2C120.3 86.5 120.6 86.9 121 87.4C124.4 91.8 125.1 97.6 125.8 103.2C125.6 104.2 125.7 105.4 125.3 106.5Z" fill="#BABAB9"/>
<path d="M126.099 58.2C126.499 59.2 126.799 60.4 126.899 61.5C126.899 62 126.899 62.5 126.499 62.8C126.299 63 125.999 63 125.699 63C121.899 63.4 117.999 61.8 115.499 59C114.499 57.9 113.699 56.6 112.999 55.3C111.999 53.7 108.299 48.3 109.799 46.5C111.699 49.5 113.399 52.3 116.399 54.5C117.799 55.5 119.399 56.4 121.099 57C121.699 57.3 126.099 58 126.099 58.2Z" fill="#BABAB9"/>
<path d="M123.998 52.8025C123.198 52.8025 122.498 52.5025 121.798 52.1025C119.898 51.2025 118.098 50.1025 116.398 48.8025C115.498 48.1025 114.598 47.4025 113.798 46.6025C113.298 46.1025 112.798 45.4025 113.098 44.8025C114.098 44.4025 115.298 44.7025 116.198 45.2025C117.598 45.8025 118.798 46.6025 120.298 46.8025C121.398 47.0025 122.598 46.7025 123.598 47.2025C125.398 48.2025 127.198 52.8025 123.998 52.8025Z" fill="#BABAB9"/>
<path d="M140.094 33.1984C139.094 33.7984 134.294 26.6984 133.694 25.4984C133.094 24.2984 132.694 22.9984 132.594 21.5984C132.594 21.2984 132.594 21.0984 132.694 20.8984C136.594 21.9984 137.494 22.2984 139.194 22.2984C139.194 22.3984 139.194 22.4984 139.194 22.5984C139.194 23.1984 138.894 23.6984 138.794 24.1984C138.194 26.2984 139.294 27.9984 139.994 29.7984C140.194 30.4984 140.994 32.5984 140.094 33.1984Z" fill="#BABAB9"/>
<path d="M115 47.5034C115.5 48.0034 116 48.5034 116.5 48.9034C117.7 49.9034 119 50.7034 120.3 51.4034C120.8 51.7034 121.4 52.0034 122 52.3034C123.4 52.9034 125 53.0034 126.5 53.1034C127.8 53.2034 129.2 53.2034 130.5 53.1034C131.7 53.0034 132.9 52.8034 134.1 52.5034C134.9 52.3034 135.7 52.0034 136.3 51.5034C137.1 50.8034 137.6 49.9034 138.2 48.9034C139.3 47.1034 140.8 45.5034 142.5 44.3034C142.6 46.1034 142.5 47.8034 142.1 49.5034C141.7 50.9034 141.2 52.3034 140.3 53.5034C139.2 54.8034 137.7 55.7034 136 56.2034C134.3 56.7034 132.7 56.9034 130.9 57.1034C128.8 57.3034 126.6 57.4034 124.5 57.5034C123.9 57.5034 123.3 57.6034 122.7 57.5034C122.1 57.4034 121.6 57.2034 121 57.0034C119.8 56.6034 118.7 56.1034 117.5 55.5034C114.7 54.0034 113.1 51.8034 111.5 49.2034C110.9 48.1034 105.5 40.2034 109 41.5034C109.8 41.8034 111.8 44.2034 112.4 44.8034C113.3 45.8034 114.1 46.6034 115 47.5034Z" fill="#F15748"/>
<path d="M106.395 40.6016C106.295 40.8016 106.195 41.0016 106.095 41.2016C105.995 41.4016 105.995 41.5016 105.895 41.7016C105.095 41.1016 104.395 41.2016 103.595 41.7016C103.095 42.0016 102.495 42.2016 101.895 42.4016C100.895 42.8016 100.395 43.5016 100.195 44.5016C99.9953 45.6016 99.8953 46.7016 100.295 47.8016C100.695 48.9016 101.095 50.0016 101.495 51.0016C101.995 52.2016 102.395 53.3016 102.895 54.5016C103.095 55.1016 103.495 55.6016 103.895 56.4016C103.295 56.3016 102.995 56.2016 102.595 56.1016C102.995 57.6016 103.795 58.7016 104.595 59.9016C103.595 59.4016 102.895 58.4016 102.395 57.5016C101.495 55.7016 100.595 53.8016 99.9953 51.9016C99.3953 50.2016 98.9953 48.4016 98.7953 46.5016C98.6953 45.5016 98.7953 44.5016 98.8953 43.4016C98.8953 43.2016 98.8953 43.0016 98.8953 42.7016C97.9953 42.7016 97.1953 43.1016 96.5953 43.8016C96.4953 43.9016 96.3953 44.0016 96.2953 44.2016C95.2953 45.7016 94.6953 47.4016 94.4953 49.1016C94.3953 50.1016 94.3953 51.2016 94.5953 52.2016C94.7953 53.8016 95.3953 55.4016 95.7953 57.1016C95.5953 56.9016 95.3953 56.7016 95.2953 56.5016C95.0953 56.3016 94.9953 56.0016 94.6953 55.6016C94.5953 56.2016 94.5953 56.6016 94.4953 57.0016C94.3953 57.0016 94.2953 57.0016 94.1953 57.0016C93.0953 55.0016 93.3953 52.6016 93.0953 50.4016C91.5953 50.9016 90.4953 52.2016 88.8953 52.3016C88.7953 52.2016 88.6953 52.0016 88.6953 51.9016C88.9953 51.8016 89.1953 51.7016 89.4953 51.6016C90.0953 51.3016 90.7953 51.0016 91.3953 50.7016C92.3953 50.3016 93.1953 49.9016 93.3953 48.7016C93.3953 48.6016 93.3953 48.4016 93.3953 48.3016C93.3953 47.5016 93.7953 46.6016 94.0953 45.8016C94.2953 45.3016 94.4953 44.7016 94.6953 44.1016C94.7953 43.8016 94.8953 43.5016 94.9953 43.2016C93.5953 43.1016 92.1953 43.0016 90.7953 43.0016C89.0953 43.0016 87.3953 43.2016 85.6953 43.3016C83.2953 43.4016 80.7953 43.4016 78.2953 43.4016C77.9953 43.4016 77.7953 43.4016 77.4953 43.4016C75.5953 43.4016 73.7953 43.5016 71.8953 43.5016C71.2953 43.5016 70.8953 43.7016 70.5953 44.1016C70.4953 44.3016 70.3953 44.5016 70.2953 44.9016C69.8953 46.5016 69.2953 48.1016 68.4953 49.5016C67.6953 51.1016 66.1953 52.2016 64.5953 53.0016C62.6953 53.9016 60.5953 54.2016 58.4953 53.6016C57.2953 53.3016 56.1953 52.7016 55.5953 51.6016C53.7953 48.3016 53.8953 46.5016 55.7953 43.9016C55.8953 43.7016 55.9953 43.5016 56.0953 43.5016C57.7953 42.7016 59.4953 41.9016 61.4953 42.2016C62.3953 42.3016 62.7953 43.0016 63.1953 43.6016C63.3953 43.9016 63.3953 44.5016 62.7953 44.4016C62.0953 44.3016 62.2953 44.9016 62.1953 45.3016C61.7953 44.9016 61.5953 44.6016 60.9953 44.7016C60.3953 44.8016 59.5953 44.6016 58.8953 44.5016C58.2953 44.4016 57.8953 44.6016 57.5953 45.1016C57.1953 45.9016 56.8953 46.7016 56.5953 47.5016C55.7953 49.6016 57.7953 52.1016 60.1953 52.5016C61.3953 52.7016 62.5953 52.5016 63.6953 52.0016C67.6953 50.3016 69.1953 46.5016 68.6953 42.9016C68.2953 40.2016 67.2953 37.8016 65.4953 35.7016C64.8953 34.9016 64.0953 34.3016 63.0953 34.2016C62.9953 34.2016 62.7953 34.2016 62.6953 34.1016C60.8953 32.7016 58.8953 33.2016 56.9953 33.4016C56.3953 33.5016 55.7953 33.6016 55.2953 33.9016C55.0953 34.0016 54.9953 34.4016 54.7953 34.8016C54.3953 35.0016 53.8953 35.2016 53.3953 35.4016C52.7953 35.6016 52.1953 35.9016 51.5953 36.1016C51.3953 35.9016 51.1953 35.7016 50.9953 35.5016C49.9953 37.0016 49.0953 38.4016 48.1953 39.9016C47.6953 40.7016 47.4953 41.5016 47.6953 42.4016C47.6953 42.7016 47.9953 43.0016 48.1953 43.3016C49.1953 42.5016 49.9953 41.7016 50.9953 41.1016C51.3953 40.9016 51.8953 40.7016 52.3953 40.5016C52.1953 40.7016 51.9953 40.9016 51.7953 41.1016C51.4953 41.4016 51.1953 41.6016 50.8953 41.9016C50.1953 42.5016 49.3953 43.1016 48.6953 43.7016C47.8953 44.3016 47.6953 45.1016 47.9953 45.9016C48.5953 47.3016 49.1953 48.7016 49.9953 50.0016C50.3953 50.7016 51.1953 51.3016 51.8953 52.1016C51.8953 52.5016 51.6953 53.2016 51.2953 53.8016C51.0953 54.2016 50.7953 54.7016 50.5953 55.1016C49.6953 56.8016 49.0953 58.6016 48.7953 60.5016C48.6953 61.0016 48.5953 61.6016 48.4953 62.1016C48.1953 64.1016 47.9953 66.1016 47.7953 68.2016C47.6953 69.4016 47.8953 70.7016 47.9953 71.9016C47.9953 72.3016 48.0953 72.6016 48.0953 73.0016V73.1016C48.0953 73.4016 48.0953 73.7016 47.8953 74.1016C47.7953 74.4016 47.9953 75.0016 48.1953 75.4016C48.3953 75.8016 48.6953 76.2016 48.7953 76.6016C49.4953 78.2016 49.9953 79.9016 50.5953 81.5016C50.8953 82.2016 50.9953 83.0016 51.1953 83.8016C51.4953 85.6016 51.8953 87.4016 52.0953 89.3016C52.1953 89.9016 52.3953 90.6016 52.1953 91.1016C51.3953 93.2016 50.8953 95.5016 49.4953 97.3016C49.3953 97.4016 49.3953 97.6016 49.1953 97.6016C48.8953 97.8016 48.6953 98.0016 48.5953 98.2016C48.3953 98.5016 48.2953 98.8016 48.3953 99.2016C48.3953 99.5016 48.4953 99.8016 48.4953 100.202C48.6953 101.402 48.7953 102.502 48.9953 103.902C50.2953 103.102 51.4953 102.302 52.6953 101.502C52.6953 102.902 51.2953 103.202 50.6953 104.302C51.1953 104.202 51.5953 104.102 51.9953 104.002C52.2953 104.902 52.1953 105.102 49.9953 107.002C49.6953 106.502 50.1953 106.302 50.3953 106.002C50.5953 105.702 50.7953 105.502 51.0953 105.102C49.1953 105.402 48.8953 105.702 48.7953 107.402C48.6953 108.702 48.4953 109.802 47.6953 110.902C47.5953 111.002 47.4953 111.202 47.3953 111.302C46.8953 112.102 46.8953 112.802 47.1953 113.502C47.3953 114.002 47.7953 114.502 48.2953 114.902C49.0953 115.602 49.9953 115.902 51.7953 116.002C52.4953 115.202 51.9953 113.902 52.8953 113.102C53.2953 113.702 52.8953 114.202 52.7953 114.602C52.6953 115.102 52.4953 115.502 52.3953 116.002C53.8953 116.502 56.3953 116.502 58.1953 116.002C58.8953 115.002 57.6953 114.102 57.8953 113.002C59.2953 113.502 58.8953 114.802 59.2953 115.802C60.2953 115.702 60.8953 115.102 61.3953 114.302C61.4953 114.002 61.4953 113.502 61.2953 113.302C60.8953 112.802 60.3953 112.302 59.7953 112.102C58.7953 111.602 57.5953 111.302 56.4953 111.002C56.0953 110.902 55.6953 110.702 55.3953 110.302C55.5953 110.202 55.8953 110.102 56.0953 110.202C56.9953 110.402 57.8953 110.702 58.7953 111.002C59.3953 111.202 59.8953 111.302 60.4953 111.502C60.6953 111.602 60.7953 111.702 60.9953 111.802C61.2953 112.002 61.5953 112.302 61.7953 112.502C62.5953 113.502 62.3953 114.702 61.0953 115.602C60.1953 116.302 59.0953 116.802 57.7953 116.702C56.9953 116.602 56.0953 116.802 55.2953 116.902C53.2953 117.202 51.2953 116.702 49.3953 116.302C49.1953 116.202 48.9953 116.202 48.7953 116.102C46.5953 115.202 45.6953 112.802 47.0953 110.702C48.0953 109.202 48.1953 107.402 48.1953 105.802C48.1953 105.702 48.1953 105.502 48.1953 105.402C48.1953 104.302 48.0953 103.302 47.8953 102.202C47.7953 101.302 47.6953 100.402 47.5953 99.4016C47.4953 98.2016 47.6953 97.1016 48.6953 96.2016C49.0953 95.9016 49.3953 95.5016 49.5953 95.0016C49.9953 94.4016 50.1953 93.7016 50.2953 93.0016C50.2953 92.8016 50.3953 92.6016 50.3953 92.3016C50.5953 90.2016 50.3953 88.2016 50.1953 86.1016C49.8953 82.8016 48.3953 80.0016 47.1953 77.0016C46.6953 75.7016 46.1953 74.5016 45.6953 73.2016C46.6953 72.7016 46.4953 71.8016 46.4953 70.9016C46.2953 68.5016 46.3953 66.1016 46.7953 63.7016C47.1953 61.6016 47.3953 59.4016 48.2953 57.4016C48.8953 56.1016 49.4953 54.9016 50.0953 53.6016C50.1953 53.4016 50.2953 53.1016 50.4953 52.9016C50.5953 52.8016 50.6953 52.6016 50.6953 52.5016C50.5953 52.4016 50.4953 52.2016 50.2953 52.1016C50.1953 51.9016 49.9953 51.8016 49.8953 51.7016C49.5953 51.4016 49.2953 51.1016 49.0953 50.8016C48.5953 50.0016 48.0953 49.1016 47.6953 48.2016C46.7953 46.3016 46.2953 44.4016 46.3953 42.2016V41.9016C46.4953 41.1016 46.6953 40.3016 47.1953 39.6016C47.3953 39.4016 47.4953 39.2016 47.5953 38.9016C48.4953 37.6016 49.2953 36.2016 50.2953 35.0016C50.6953 34.6016 51.0953 34.1016 51.4953 33.7016C51.5953 33.6016 51.7953 33.5016 51.9953 33.3016C52.0953 33.5016 52.0953 33.7016 52.1953 33.9016C52.2953 34.1016 52.2953 34.3016 52.3953 34.5016C52.7953 34.3016 53.1953 34.1016 53.4953 33.9016C53.8953 33.7016 54.3953 33.5016 54.7953 33.3016C56.4953 32.7016 58.2953 32.6016 60.0953 32.6016C60.6953 32.6016 61.1953 32.9016 61.7953 33.1016C62.4953 33.4016 63.1953 33.6016 63.7953 33.9016C64.0953 34.0016 64.3953 34.1016 64.5953 34.3016C65.5953 35.3016 66.6953 36.3016 67.1953 37.7016C67.3953 38.2016 67.7953 38.7016 68.0953 39.2016C68.8953 40.5016 69.9953 41.6016 70.1953 43.2016C70.3953 43.3016 70.4953 43.3016 70.5953 43.3016C74.6953 43.2016 78.7953 43.2016 82.9953 43.1016C84.4953 43.1016 85.9953 43.0016 87.3953 42.8016C89.8953 42.5016 92.2953 42.5016 94.6953 43.0016C95.1953 43.1016 95.6953 43.0016 96.0953 42.8016C96.8953 42.4016 97.7953 42.2016 98.6953 41.8016C98.8953 42.2016 98.8953 42.5016 98.9953 42.7016C99.0953 42.7016 99.2953 42.6016 99.3953 42.6016C100.695 42.0016 101.995 41.4016 103.295 40.9016C103.395 40.9016 103.495 40.8016 103.595 40.8016C104.095 40.7016 104.695 40.8016 105.295 41.0016C106.195 40.5016 106.295 40.5016 106.395 40.6016Z" fill="black"/>
<path d="M137.194 110.6C136.794 110.1 136.294 109.7 135.794 109.3L135.694 109.2C134.494 108.3 133.194 107.7 131.794 107.1C131.694 107 131.394 107.3 131.094 107.5C132.394 108.2 133.594 108.7 134.694 109.7C134.094 109.7 133.694 109.7 133.294 109.7C133.394 110.1 133.594 110.3 133.794 110.4C134.594 110.8 135.394 111.1 136.194 111.5C136.694 111.7 137.094 112.1 136.694 112.7C135.694 112.5 134.894 111.5 133.594 112C134.594 112.5 135.494 112.8 136.394 113.3C135.694 114.2 134.994 114.7 134.094 114.8C132.094 115 130.094 114.8 128.194 114.3C127.694 114.2 127.394 113.9 127.294 113.4C126.794 112.1 126.194 110.7 125.694 109.4C125.494 108.7 125.194 108 124.994 107.4C124.494 106 123.994 104.6 123.594 103.2C123.094 101.7 122.594 100.2 122.094 98.7C121.694 97.4 121.394 96.1 120.994 94.9C121.194 94.7 121.394 94.5 121.594 94.4C122.294 93.8 122.894 93.2 123.494 92.5C123.994 92 124.494 91.6 124.894 91.1C124.794 91 124.694 90.9 124.594 90.8C124.094 91.2 123.694 91.6 123.194 92C122.494 92.6 121.794 93.2 121.094 93.8C120.994 93.9 120.894 94 120.794 94.1C120.394 93.6 120.494 93.3 120.694 93C120.794 92.9 120.894 92.8 120.994 92.7C121.594 92.1 122.294 91.6 122.894 91C123.194 90.7 123.594 90.4 123.894 90.1C124.394 89.7 124.894 89.3 124.894 88.6C124.094 89.2 123.394 89.9 122.594 90.5C121.894 91.1 121.094 91.8 120.294 92.4L120.194 92.5C120.094 92.4 120.094 92.2 119.994 92.1C119.094 90.1 118.494 88 117.994 85.9C117.594 84.1 117.294 82.4 116.794 80.6C115.994 80.4 115.394 80.5 114.694 81C115.994 81.2 115.894 82.1 116.094 83C116.294 83.9 116.494 84.8 116.694 85.8C116.794 86 116.794 86.3 116.894 86.6C117.094 87.4 117.294 88.2 117.494 89.1C116.294 89 115.094 89.1 113.894 89.1C112.594 89.1 111.194 89 109.894 88.6L109.994 88.5C110.594 87.9 111.694 88.5 111.994 87.2C109.794 87.4 107.594 87.7 105.294 86.8C105.394 86.7 105.494 86.5 105.694 86.4C107.094 84.8 108.294 83.4 109.594 82C107.794 83.2 106.394 84.8 104.994 86.4C104.894 86.5 104.794 86.7 104.694 86.8C104.294 86.7 103.894 86.5 103.494 86.3C105.194 84.1 107.294 82.3 108.694 80C108.494 80 108.394 80.2 108.294 80.3C106.694 82.1 104.994 83.8 103.394 85.6C103.094 86 102.894 86.2 102.594 86.2C102.494 86.2 102.394 86.2 102.294 86.2C102.094 86.1 101.894 86 101.494 85.8C103.194 83.9 105.194 82.4 106.394 80.1C104.694 81.7 102.994 83.4 101.394 85.1C100.994 85.5 100.694 85.9 100.094 85.7C98.1937 85 96.2938 84.4 94.2938 83.7C93.9938 83.6 93.6938 83.5 93.3938 83.4V83.3C93.7938 82.6 93.7938 82.1 92.9938 81.8C89.8938 80.7 86.9937 79.4 83.5938 79.7C82.8937 79.8 82.0938 79.6 81.3938 79.5C80.8938 79.4 80.2938 79.4 79.7938 79.3C79.1938 79.2 78.3938 80 77.8938 79C77.8938 79 77.5938 79 77.4938 79C75.6938 79.4 73.9938 79.7 72.2938 80.3C72.1938 80.3 71.9938 80.4 71.8938 80.4C71.0938 80.7 70.2937 81.1 69.5938 81.5C67.9937 82.5 66.4938 83.7 64.9938 84.9C64.7938 85 64.5938 85.2 64.5938 85.4C64.4938 85.6 64.5937 85.8 64.6937 86.2C65.1937 85.8 65.6938 85.2 65.8938 85.3C66.7938 85.6 67.3938 84.9 68.2938 84.8C67.9938 85.6 67.7938 86.3 67.4938 87C65.4938 91.9 63.3938 96.8 60.3938 101.3C60.1938 101.5 60.0938 101.8 60.0938 102.1C59.4937 103.7 58.8938 105.3 58.2938 106.9C58.1938 107.1 58.1938 107.4 58.0938 107.7C58.3938 107.7 58.5938 107.6 58.6938 107.5C58.8938 107.4 58.9937 107.3 59.0938 107C59.0938 106.9 59.0938 106.9 59.0938 106.8C59.1938 106.5 59.3937 106.2 59.5938 105.9C59.6938 106 59.6938 106.2 59.7938 106.3H59.8938C62.3938 107.2 64.9937 108 67.6937 108.4C68.6937 108.5 69.5938 108.1 70.4938 107.6C71.0938 107.2 71.2937 106.6 71.0938 105.9C70.9937 105.6 70.7937 105.3 70.5938 105C70.4937 104.8 70.2937 104.6 70.0938 104.5C69.5938 104 68.8938 103.6 68.2938 103.2C66.9938 102.4 66.7938 102 67.2938 100.6C67.4938 99.8 67.7937 99.1 68.0938 98.4C68.1938 98.2 68.2938 97.9 68.3938 97.7C69.6938 95 70.4938 92 71.2938 89.2C71.6938 87.7 71.9937 86.2 72.0938 84.7V84.4C72.1938 83.8 72.2937 83.3 72.5938 83L72.6937 82.9C72.8937 82.7 73.1938 82.6 73.5938 82.5C73.8938 82.4 74.1938 82.2 74.4938 82.1C75.8938 81.7 77.1938 81.2 78.5938 81C79.8937 80.8 81.1938 81.1 82.3938 81.1C83.8938 81.1 85.3938 81 86.8938 81.5C87.9938 81.9 89.1938 82.2 90.3938 82.5C90.7938 82.6 91.1938 82.8 91.4938 82.9C91.5938 84.1 91.5938 84.2 92.4938 84.6C93.6938 85.2 94.8937 85.7 96.1937 86.1C98.5938 86.8 100.994 87.4 103.394 88.2C107.794 89.6 112.294 90.5 116.894 90.1C116.994 90.1 116.994 90.1 117.094 90.1C117.794 90 118.194 90.3 118.394 90.8C118.394 90.9 118.494 90.9 118.494 91C119.094 93.1 119.794 95.1 120.494 97.2C121.994 101.9 123.494 106.7 124.994 111.4C125.194 111.9 125.294 112.4 125.494 113C125.694 113.7 126.094 114.3 126.494 114.9C126.594 115.1 126.894 115.3 127.194 115.3C127.894 115.4 128.494 115.5 129.194 115.6C129.894 115.7 130.494 115.8 131.194 115.8C133.294 116 135.494 116 137.094 114.2C137.694 113 137.994 111.5 137.194 110.6ZM70.7938 87.6C70.4938 88.7 70.1938 89.8 69.8938 90.8C69.0938 93.1 68.1938 95.3 67.0938 97.4C65.7937 97.8 63.0938 99.4 62.2938 100.3C63.2938 100.4 63.7938 99.7 64.4938 99.4C65.1938 99 65.8938 98.5 66.7938 98.2C66.5938 98.7 66.3938 99.1 66.2938 99.6C66.1938 100 65.9938 100.4 65.8938 100.8C65.6938 102.3 65.7937 102.5 67.0938 103.3C67.7937 103.7 68.4937 104.2 69.1937 104.7C69.4937 104.9 69.6938 105.1 69.8938 105.4C69.9938 105.5 69.9938 105.6 69.9938 105.7C70.1938 106.1 69.9938 106.5 69.4938 106.8C68.6938 107.2 67.7938 107.5 66.7938 107.4C64.5938 107.1 62.5938 106.3 60.3938 105.7C60.3938 105.7 60.3938 105.7 60.2938 105.7C59.9938 105.6 59.6938 105.6 59.3938 105.6C59.2938 105.6 59.1938 105.6 59.0938 105.6C59.6938 104 60.0938 102.4 60.7938 100.9C60.9938 100.4 61.2938 100 61.5938 99.6C62.0938 99 62.5938 98.5 63.2938 98.1C64.3938 97.5 65.3938 96.7 66.7938 95.8C66.2938 95.8 65.9938 95.7 65.7938 95.9C64.7938 96.5 63.7937 97.2 62.5938 98C62.8938 97.5 62.9938 97.1 63.1938 96.8C63.2938 96.7 63.2938 96.5 63.3938 96.4C64.5938 93.7 65.8938 91 67.0938 88.2C67.2937 87.7 67.4937 87.3 67.6937 86.8C67.9937 86 68.1938 85.2 68.4938 84.3C68.5938 84.1 68.6938 84 68.7938 83.9C69.4938 83.4 70.2938 83 71.3938 82.9C71.3938 84.4 71.0938 86 70.7938 87.6C70.7938 87.5 70.7938 87.6 70.7938 87.6ZM72.3938 81C72.0938 81.2 71.7937 81.1 71.0938 81C71.4937 80.9 71.8938 80.7 72.2938 80.6C72.4938 80.5 72.7937 80.4 73.0938 80.3C72.7937 80.7 72.5938 80.9 72.3938 81Z" fill="black"/>
<path d="M145 55.7001C144.5 54.5001 144.6 53.2001 144.5 52.0001C144.5 51.6001 144.4 51.2001 144.2 50.8001C144.1 50.6001 143.9 50.3001 143.8 50.3001C142.8 50.4001 143.1 49.7001 143.1 49.2001C143.1 48.6001 143.3 48.1001 143.3 47.6001C143.3 46.5001 143.4 45.4001 143.4 44.4001C143.4 43.3001 143.5 42.1001 143.5 41.0001C143.5 40.6001 143.5 40.2001 142.7 40.1001C142.3 42.4001 141.9 44.7001 139.6 46.1001C139.6 43.6001 138.1 42.1001 136.2 41.0001C135.2 40.4001 134.1 39.8001 133.1 39.2001C132.7 39.0001 132.4 38.8001 132 38.6001C131.6 38.4001 131.3 38.6001 131.3 39.1001C132.8 39.9001 134.3 40.7001 135.7 41.7001C136.6 42.3001 137.4 43.2001 138.2 44.0001C138.7 44.6001 138.8 45.3001 138.8 46.1001C138.7 46.9001 138.3 47.5001 137.8 48.2001C137.4 48.8001 137.5 49.8001 137.1 50.3001C136.5 51.0001 135.7 51.6001 134.9 52.1001C134.5 52.4001 134.1 52.6001 133.6 52.8001C133.2 53.0001 132.7 53.2001 132.1 53.5001C134.1 54.0001 135.3 52.5001 136.7 52.2001C137.6 55.5001 137.1 55.4001 134.7 56.4001C134.5 56.5001 134.3 56.5001 134 56.6001C131.8 57.2001 129.5 57.3001 127.3 57.4001C125.8 57.5001 125.1 56.6001 125.7 55.2001C125.8 54.9001 126.2 54.7001 126.4 54.4001C126.5 54.2001 126.6 54.0001 126.6 53.7001C126.4 53.6001 126.1 53.5001 125.9 53.5001C125.6 53.7001 125.3 53.9001 125.1 54.2001C124.9 54.8001 124.8 55.4001 124.7 56.1001C124.6 56.5001 124.6 56.9001 124.6 57.2001C124.3 57.2001 124.2 57.2001 124 57.2001C120.4 56.7001 117.4 54.8001 114.5 52.9001C114.5 52.9001 114.4 52.9001 114.4 52.8001C114.4 52.8001 114.3 52.8001 114.3 52.7001C114.2 52.7001 114.2 52.6001 114.1 52.5001C114.1 52.5001 114.1 52.4001 114 52.4001C113.9 52.3001 113.8 52.1001 113.7 52.0001C112.2 50.2001 110.1 46.8001 108.9 44.1001C108.9 44.1001 108.9 44.1001 108.9 44.0001C108.6 43.3001 108.3 42.6001 108.1 41.9001V41.8001C108 41.7001 108 41.5001 107.9 41.4001C107.8 41.3001 107.8 41.2001 107.7 41.1001C107.6 41.1001 107.6 41.1001 107.6 41.1001H107.5C107.5 41.4001 107.5 41.7001 107.5 41.9001C107.5 42.0001 107.6 42.1001 107.7 42.3001L107.8 42.4001C108.3 43.2001 109.3 44.8001 109.4 45.0001C109.5 45.4001 109.5 45.8001 109.7 46.2001V46.3001C110.2 47.8001 111 49.2001 111.8 50.6001C111.9 50.8001 112 51.0001 112.1 51.2001C112.1 51.2001 111.9 51.3001 111.7 51.4001C111.9 51.7001 112.1 52.2001 112.5 52.4001C113.2 52.9001 114.1 53.3001 114.8 53.9001C117.7 56.0001 121 57.5001 124.5 58.2001C124.8 58.3001 125.1 58.4001 125.3 58.6001C126 59.5001 126 60.4001 125.2 61.4001C125 61.7001 124.8 62.0001 124.6 62.3001C124.5 62.4001 124.5 62.6001 124.4 62.7001C123.9 64.3001 124.5 66.2001 126 66.7001C128.4 67.5001 129.5 67.4001 130.6 64.9001C131.7 62.6001 130.9 60.9001 128.4 60.0001C128.2 59.9001 128 59.8001 127.8 59.7001C128.1 57.9001 128.2 57.7001 129.6 57.7001C131.9 57.8001 134.1 57.3001 136.2 56.3001C138.6 55.2001 140.7 53.7001 141.7 51.2001C141.8 51.0001 142 50.9001 142.1 50.7001C142.5 52.0001 142.9 53.1001 143.1 54.3001C143.2 54.6001 143.2 55.0001 143.3 55.3001C143.4 55.9001 143.5 56.5001 143.5 57.2001C143.5 58.6001 143.5 60.1001 143.4 61.5001C143.4 61.9001 143.3 62.3001 143.2 62.6001C143 63.2001 142.5 63.7001 141.8 64.0001C140.6 64.6001 139.4 65.4001 138.2 66.1001C138 66.2001 137.8 66.5001 137.6 66.7001C137.7 66.8001 137.7 66.9001 137.8 66.9001C139.4 66.0001 141 65.0001 142.7 64.0001C142.5 66.1001 142.3 66.3001 140.8 67.2001C140.1 67.6001 139.5 68.1001 138.9 68.6001C138.7 68.7001 138.6 69.0001 138.5 69.2001C138.6 69.3001 138.6 69.3001 138.7 69.4001C139.7 68.8001 140.7 68.1001 141.9 67.3001C141.3 68.9001 140.8 70.1001 140.2 71.4001C139.6 72.6001 138.9 73.8001 138.2 75.0001C137.2 76.8001 136 78.6001 135.1 80.4001C134.2 82.0001 133.5 83.7001 132.8 85.5001C132.4 86.4001 132.3 87.4001 132.2 88.3001C132 90.0001 132.1 91.8001 131.8 93.5001C131.1 97.1001 131.3 100.8 131 104.4C131 104.6 131.1 104.9 131.2 105.4C131.4 104.9 131.6 104.7 131.6 104.5C131.6 104.1 131.6 103.7 131.7 103.3C131.7 103 131.8 102.8 131.8 102.5C131.9 101.7 132.1 100.8 132.3 100C132.5 99.1001 132.8 98.2001 133.1 97.2001C134.5 92.9001 135.7 88.5001 137.1 84.2001C137.8 81.8001 138.8 79.5001 139.6 77.2001C139.7 76.8001 139.8 76.5001 139.9 76.1001C139.5 76.2001 139.4 76.4001 139.3 76.7001C138.6 78.3001 137.8 79.9001 137.3 81.6001C136.5 83.9001 135.8 86.3001 135.1 88.6001C134.3 91.2001 133.6 93.8001 132.9 96.3001C132.8 96.7001 132.6 97.2001 132.5 97.6001C132.4 96.9001 132.4 96.2001 132.5 95.6001C132.6 94.7001 132.9 93.9001 133 93.0001C133.2 91.2001 133.2 89.3001 133.3 87.5001C133.3 87.3001 133.3 87.1001 133.4 86.9001C134.5 84.6001 135.4 82.3001 136.6 80.1001C138.3 76.9001 140.7 74.0001 141.8 70.5001V70.4001C141.9 70.3001 141.9 70.2001 142 70.1001C143.4 67.7001 143.8 65.0001 144.4 62.4001C144.7 60.8001 144.8 59.2001 144.9 57.6001C145.1 57.3001 145.3 56.4001 145 55.7001ZM137.3 51.8001C138 50.5001 138.5 49.3001 139.3 48.2001C140.1 47.1001 141.1 46.2001 142 45.3001C142.8 47.5001 141 52.2001 138.7 53.8001C138.6 53.1001 138.6 52.5001 138.5 51.9001C138.4 51.9001 138.3 51.9001 138.2 51.9001C138.1 52.7001 138.1 53.5001 138.1 54.3001C138 54.3001 137.9 54.3001 137.8 54.3001C137.6 53.4001 137.4 52.6001 137.3 51.8001ZM126.9 59.8001C126.7 59.4001 126.6 59.0001 126.4 58.5001C126.8 58.5001 127.1 58.5001 127.5 58.5001C127.3 59.0001 127.2 59.4001 127.1 59.8001C127 59.8001 126.9 59.8001 126.9 59.8001ZM128.5 61.5001C128.7 61.4001 129 61.5001 129.3 61.7001C130.2 62.2001 130.7 63.1001 130.5 64.3001C130.1 66.2001 129.3 67.5001 126.9 66.0001C127.2 65.7001 127.4 65.4001 127.7 65.1001C128 64.8001 128.2 64.6001 128.3 64.1001C127.7 64.5001 127 65.0001 126.4 65.4001C126.3 65.3001 126.3 65.3001 126.2 65.2001C126.8 64.6001 127.4 63.9001 128 63.3001C127.9 63.2001 127.9 63.1001 127.8 63.0001C127.3 63.4001 126.7 63.8001 126.1 64.2001C126.2 62.6001 127.3 62.0001 128.5 61.5001Z" fill="black"/>
<path d="M137.498 21.8969C137.398 21.9969 137.298 21.9969 137.098 22.0969C136.598 22.1969 136.198 21.9969 135.798 21.9969C134.798 21.7969 133.698 21.4969 132.698 21.3969C132.498 21.3969 132.298 21.3969 132.198 21.3969C129.598 21.2969 126.898 21.2969 124.298 21.4969C122.598 21.5969 120.798 21.7969 119.198 22.2969C117.898 22.6969 116.998 23.5969 115.998 24.4969C116.698 25.5969 116.598 26.4969 116.098 27.5969C115.798 28.1969 115.698 28.7969 115.398 29.5969C118.398 29.1969 120.898 30.1969 122.498 32.6969C123.298 33.8969 123.898 35.2969 123.298 36.7969C123.198 36.7969 123.098 36.7969 122.998 36.8969C122.898 36.4969 122.898 36.0969 122.798 35.5969C122.398 32.6969 120.398 30.6969 117.498 30.3969C115.998 30.1969 114.698 31.0969 114.198 32.5969C113.998 33.0969 113.698 33.5969 113.498 34.0969C112.798 35.6969 112.398 37.1969 113.498 38.7969C113.598 38.9969 113.598 39.0969 113.698 39.3969C114.298 39.0969 114.898 38.7969 115.498 38.4969C115.498 38.5969 115.598 38.5969 115.598 38.6969C115.198 39.0969 114.698 39.3969 114.298 39.7969C114.398 40.0969 114.498 40.2969 114.598 40.5969C114.398 40.5969 114.298 40.5969 114.198 40.4969C112.498 39.3969 111.798 36.9969 112.498 34.7969C112.798 33.9969 113.198 33.1969 113.298 32.2969C112.798 32.7969 112.198 33.2969 111.698 33.8969C111.198 34.5969 110.798 35.4969 110.298 36.2969C109.298 38.0969 107.998 39.5969 105.898 40.1969H105.798C105.698 39.9969 105.498 39.7969 105.398 39.4969C105.298 39.2969 105.198 39.0969 105.098 38.9969C104.998 38.7969 104.898 38.5969 104.798 38.4969C104.598 38.0969 104.298 37.7969 104.098 37.3969C103.998 37.2969 104.098 37.0969 104.098 36.8969C104.098 36.6969 104.198 36.4969 104.198 36.1969C104.198 36.0969 104.198 36.0969 104.198 35.9969C104.098 34.7969 103.898 33.4969 103.898 32.2969C103.898 31.5969 104.098 30.8969 104.198 30.1969C104.298 30.1969 104.398 30.1969 104.498 30.1969C104.498 30.5969 104.498 30.9969 104.598 31.5969C106.198 30.3969 107.698 29.3969 109.398 28.6969C109.498 28.7969 109.498 28.8969 109.598 28.9969C109.398 29.0969 109.298 29.2969 109.098 29.3969C107.798 30.2969 106.398 31.0969 105.098 31.8969C104.898 32.0969 104.798 32.3969 104.598 32.5969C104.698 32.6969 104.698 32.7969 104.798 32.7969C106.198 31.8969 107.598 30.9969 108.898 30.0969C108.998 30.1969 108.998 30.2969 109.098 30.2969C108.398 30.7969 107.798 31.3969 107.098 31.8969C106.598 32.2969 106.098 32.5969 105.598 32.8969C104.698 33.4969 104.498 34.2969 104.798 35.2969C105.198 36.3969 105.398 37.4969 106.298 38.1969C106.398 38.2969 106.498 38.3969 106.598 38.3969C107.698 38.1969 108.098 37.3969 108.598 36.5969C109.298 35.3969 109.998 34.0969 110.798 32.8969C111.098 32.3969 111.598 31.8969 112.198 31.5969C113.698 30.4969 114.598 28.9969 115.598 27.3969C116.598 25.6969 114.798 24.1969 113.298 24.2969C112.998 24.2969 112.698 24.2969 112.498 24.3969C110.698 24.5969 108.998 25.2969 107.298 26.0969C106.898 26.2969 106.398 26.3969 105.998 26.5969C105.798 25.9969 105.998 25.7969 106.298 25.5969C106.398 25.5969 106.398 25.4969 106.498 25.4969C109.098 24.1969 111.798 22.8969 114.798 23.5969C115.598 23.7969 116.198 23.4969 116.798 22.9969C117.198 22.6969 117.698 22.2969 118.098 21.9969C119.098 21.2969 120.098 20.4969 121.198 19.7969C121.398 20.0969 121.498 20.3969 121.698 20.6969C121.698 20.7969 121.798 20.7969 121.798 20.8969C124.798 20.3969 127.898 20.3969 130.898 20.3969C131.598 20.3969 132.298 20.3969 133.098 20.4969C134.498 20.3969 135.898 20.9969 137.498 21.8969Z" fill="black"/>
<path d="M121.795 51.9981C122.995 51.1981 124.095 50.2981 125.295 49.4981C125.095 50.2981 124.495 50.5981 123.995 50.9981C123.495 51.4981 122.895 51.8981 122.295 52.3981C122.695 53.1981 123.095 53.2981 123.595 52.6981C124.395 51.9981 125.395 51.2981 126.295 50.6981C125.495 51.9981 124.295 52.7981 123.095 53.5981C122.995 53.6981 122.595 53.5981 122.395 53.5981C121.595 53.2981 120.995 52.7981 120.795 51.9981C120.395 50.4981 120.395 49.0981 121.295 47.6981C122.195 46.1981 123.495 45.2981 124.895 44.2981C124.495 43.2981 124.095 42.2981 123.695 41.2981C122.895 39.1981 124.295 37.5981 126.495 37.7981C127.095 37.8981 127.595 37.9981 128.095 38.0981C129.895 38.4981 130.595 39.6981 129.895 41.4981C129.595 42.2981 129.095 42.9981 128.695 43.6981C128.595 43.8981 128.495 44.0981 128.295 44.2981C128.895 44.7981 129.595 45.1981 130.095 45.5981C132.195 47.2981 132.495 49.1981 131.495 51.3981C130.995 52.5981 129.695 53.1981 128.495 52.7981C128.795 52.2981 129.295 52.2981 129.695 52.1981C131.095 51.6981 131.195 50.4981 131.295 49.3981C131.395 48.3981 130.995 47.5981 129.995 47.1981C129.095 46.8981 128.395 46.3981 127.495 45.9981C126.595 45.5981 125.795 45.7981 124.995 46.2981C124.595 46.5981 124.195 46.9981 123.795 47.3981C123.495 47.6981 123.195 47.9981 122.795 48.1981C121.495 48.9981 121.095 50.0981 121.795 51.9981Z" fill="black"/>
<path d="M150.797 26.7016C148.597 25.3016 146.397 23.9016 144.197 22.6016C143.797 22.4016 143.397 22.2016 142.897 22.0016C142.597 21.9016 142.197 21.8016 141.897 21.6016C141.297 21.7016 140.497 21.8016 139.797 22.0016C139.697 22.0016 139.597 22.1016 139.497 22.1016C139.497 22.1016 139.397 22.1016 139.397 22.2016C138.997 22.5016 138.797 22.9016 138.797 23.5016C138.797 24.0016 138.797 24.4016 138.797 24.9016C138.797 25.5016 138.897 26.1016 138.997 26.7016C138.997 26.9016 138.997 27.0016 139.097 27.2016C139.197 28.0016 139.497 28.8016 139.597 29.6016C139.797 30.7016 140.097 31.7016 140.597 32.7016C141.197 34.0016 142.097 35.3016 142.797 36.5016C142.897 36.7016 142.997 36.8016 143.197 36.9016C143.897 37.3016 144.697 37.7016 145.397 38.0016C145.797 38.2016 146.297 38.2016 146.597 38.1016C146.997 38.0016 147.297 37.6016 147.397 37.1016C147.497 36.8016 147.597 36.4016 147.697 36.1016C147.997 35.3016 148.497 34.7016 149.097 34.1016C149.197 34.0016 149.297 33.9016 149.497 33.8016C149.797 33.5016 150.097 33.3016 150.397 32.9016C150.997 32.2016 151.497 31.4016 151.997 30.6016C152.497 29.4016 152.097 27.6016 150.797 26.7016ZM148.697 33.4016C147.497 34.5016 146.597 35.8016 146.297 37.7016C144.997 37.0016 143.797 36.9016 143.397 35.4016C143.197 34.7016 142.597 34.1016 142.097 33.3016C143.497 32.3016 144.897 31.4016 146.297 30.5016C146.197 30.4016 146.197 30.3016 146.097 30.2016C144.697 31.0016 143.297 31.8016 141.897 32.6016C141.297 32.1016 141.597 31.8016 141.997 31.5016C142.797 30.9016 143.597 30.4016 144.397 29.8016C144.797 29.5016 145.197 29.2016 145.497 28.7016C143.997 29.2016 142.897 30.4016 141.397 30.9016C142.297 29.4016 143.697 28.5016 145.197 27.6016C144.297 27.3016 143.697 28.0016 143.097 28.4016C142.497 28.8016 141.897 29.4016 141.097 29.9016C140.997 29.5016 140.797 29.2016 140.797 28.9016C140.497 27.9016 140.497 26.8016 140.097 25.7016C139.597 24.6016 139.797 24.5016 140.997 22.7016C142.597 22.6016 143.997 23.3016 145.397 24.1016C146.897 25.0016 148.197 26.0016 149.697 26.9016C152.097 28.3016 151.997 30.3016 150.297 32.2016C149.497 32.6016 149.097 33.0016 148.697 33.4016Z" fill="black"/>
<path d="M137.895 31.8027C137.195 31.2027 136.495 31.0027 135.595 31.1027C134.695 31.3027 133.895 31.4027 132.995 31.7027C131.295 32.2027 130.195 33.3027 130.095 35.2027C130.095 35.6027 129.995 36.0027 129.895 36.6027C129.295 36.2027 128.795 36.0027 128.395 35.7027C127.595 35.0027 126.795 34.9027 125.895 35.4027C125.395 35.7027 124.895 36.1027 124.395 36.4027C123.795 36.7027 123.195 37.1027 122.595 37.4027C119.895 38.4027 117.095 39.3027 115.395 41.9027C114.495 43.2027 113.495 44.4027 113.195 46.0027L113.295 46.1027C113.395 46.3027 113.495 46.4027 113.595 46.6027C113.595 46.7027 113.695 46.7027 113.695 46.8027C113.795 46.8027 113.895 46.8027 113.995 46.7027C113.795 45.4027 114.295 44.4027 114.995 43.5027C116.695 41.2027 118.695 39.2027 121.495 38.4027C122.995 38.0027 124.295 37.5027 125.495 36.5027C126.195 35.9027 126.895 35.9027 127.695 36.4027C128.095 36.7027 128.595 37.0027 129.095 37.3027C129.395 37.5027 129.695 37.6027 129.895 37.8027C130.695 37.1027 130.795 36.3027 130.795 35.4027C130.895 34.0027 131.595 33.1027 132.795 32.7027C133.895 32.3027 134.995 32.2027 136.195 32.0027C136.495 32.0027 136.895 32.0027 137.095 32.2027C138.395 33.1027 139.295 34.2027 139.495 35.8027C139.695 37.4027 139.295 38.8027 138.495 40.2027C139.395 39.6027 139.795 38.8027 139.995 37.8027C140.395 35.4027 139.795 33.4027 137.895 31.8027Z" fill="black"/>
<path d="M108.7 52C107.7 52.6 106.7 53.2 105.8 53.8C105.7 53.7 105.7 53.6 105.6 53.5C106.3 52.5 107.6 52.2 108.6 51.3C108.5 50.9 108.3 50.6 108.1 50C107.1 50.6 106.1 51.2 105 51.8C105.2 50.9 105.8 50.7 106.3 50.4C106.8 50.1 107.3 49.8 107.8 49.4C107.7 48.8 107.6 48.2 107.5 47.7C106.8 45.3 106.4 42.9 107.9 40.5C108.1 40.8 108.3 41.1 108.6 41.4C107.5 42.2 107.5 43.2 107.7 44.2C108 45.9 108.5 47.6 109 49.3C109.8 52 111.3 54.2 113.3 56.1C114 56.8 115 57.3 115.8 57.8C116 57.9 116.2 58.1 116.3 58.4C114.5 58.1 113 57.2 111.9 55.9C110.7 54.9 109.8 53.4 108.7 52Z" fill="black"/>
<path d="M75.0938 112.398C75.2938 112.098 75.3937 111.798 75.6937 111.598C77.0937 110.498 78.4938 109.298 79.8938 108.198C80.0938 108.098 80.2938 107.998 80.4938 107.898C80.8938 108.698 80.5938 109.298 80.2938 109.898C79.7938 110.698 79.3938 111.498 78.8938 112.298C78.6938 112.598 78.5938 112.998 78.3938 113.698C79.1938 113.498 79.6937 113.498 80.1937 113.298C82.3937 112.598 84.5938 112.498 86.7938 112.998C88.9938 113.498 91.2938 113.998 93.4938 114.598C92.7938 114.598 92.0938 114.698 91.4938 114.598C89.8938 114.298 88.1938 113.998 86.5938 113.698C84.2937 113.198 82.0938 113.098 79.8938 113.998C79.2938 114.198 78.6938 114.498 77.8938 114.098C77.8938 112.298 79.3938 110.898 79.7938 108.998C79.3938 109.198 79.0938 109.198 78.8938 109.398C77.9938 110.098 77.0937 110.898 76.1937 111.598C75.8937 111.898 75.4938 112.098 75.0938 112.398Z" fill="black"/>
<path d="M115.799 34.7012C115.999 33.5012 118.099 32.5012 119.099 33.1012C119.299 33.2012 119.499 33.5012 119.599 33.7012C120.099 34.9012 119.299 36.5012 118.099 36.9012C117.099 37.3012 115.599 36.0012 115.799 34.7012Z" fill="black"/>
<path d="M136.998 35.9038C136.798 37.0038 135.798 38.0038 134.898 37.9038C133.998 37.8038 133.198 36.6038 133.298 35.6038C133.398 34.7038 134.698 33.7038 135.598 33.8038C136.498 34.0038 137.098 34.9038 136.998 35.9038Z" fill="black"/>
<path d="M129.095 23.803C128.695 24.303 128.395 24.803 127.995 25.403C127.295 26.503 127.095 27.603 127.595 28.803C128.295 30.703 127.495 32.303 126.895 34.003C126.395 33.503 126.595 33.103 126.695 32.803C127.295 31.303 127.195 29.903 126.795 28.403C126.295 26.803 127.295 24.603 128.695 23.803C128.795 23.603 128.895 23.703 129.095 23.803Z" fill="black"/>
<path d="M134.993 28.7037C134.393 28.8037 133.993 28.9037 133.593 28.9037C131.593 28.8037 130.593 30.0037 129.893 31.7037C129.693 32.1037 129.593 32.5037 129.393 33.0037C128.993 31.7037 129.793 29.6037 130.993 28.7037C131.993 28.0037 133.893 27.9037 134.993 28.7037Z" fill="black"/>
<path d="M129.997 71.2969C131.397 71.9969 132.597 72.6969 133.797 73.3969C134.897 74.0969 135.897 74.9969 136.997 75.8969C135.997 75.8969 135.997 75.8969 135.297 75.4969C134.297 74.7969 133.197 74.1969 132.097 73.4969C131.397 73.0969 130.697 72.5969 129.997 72.0969C129.797 71.9969 129.597 71.6969 129.997 71.2969Z" fill="black"/>
<path d="M124.294 31.398C122.194 28.898 122.194 28.898 119.094 27.798C120.394 27.198 121.494 27.798 122.394 28.298C123.594 28.998 124.194 30.098 124.294 31.398Z" fill="black"/>
<path d="M136.897 27.3014C135.897 27.1014 134.897 26.8014 133.897 26.7014C132.897 26.6014 131.897 26.7014 130.797 26.7014C131.997 25.5014 134.897 25.8014 136.897 27.3014Z" fill="black"/>
<path d="M51.7969 78.6969C52.9969 77.0969 55.1969 75.4969 56.6969 74.7969L56.7969 74.8969V74.9969C56.6969 75.0969 56.6969 75.1969 56.5969 75.2969C54.9969 76.4969 53.3969 77.5969 51.7969 78.6969Z" fill="black"/>
<path d="M115.597 48.9023C115.397 48.2023 115.797 47.8023 116.197 47.4023C116.897 46.8023 117.497 46.1023 118.197 45.4023C117.797 45.3023 117.597 45.5023 117.397 45.6023C116.597 46.3023 115.797 47.1023 114.997 47.9023C114.897 48.0023 114.897 48.1023 114.797 48.2023C114.997 48.4023 115.297 48.6023 115.597 48.9023Z" fill="black"/>
<path d="M48.8984 44.7C49.5984 42.7 51.5984 42.1 53.0984 41C53.1984 41.1 53.2984 41.2 53.2984 41.3C52.5984 41.9 51.7984 42.4 51.0984 43C50.2984 43.5 49.5984 44.1 48.8984 44.7Z" fill="black"/>
<path d="M75.0984 112.297C74.8984 112.597 74.7984 112.897 74.5984 113.097C73.4984 113.997 72.4984 114.997 71.6984 116.197C71.5984 116.397 71.1984 116.597 70.8984 116.797C70.9984 115.697 73.4984 113.097 75.0984 112.297C75.0984 112.397 75.0984 112.297 75.0984 112.297Z" fill="black"/>
<path d="M52.5 80.0969C53.8 78.6969 55.5 77.7969 57.1 76.7969C55.9 78.2969 54.2 79.1969 52.5 80.0969Z" fill="black"/>
<path d="M124.799 28.7016C124.399 27.9016 123.999 27.1016 123.799 26.2016C123.599 25.6016 123.799 25.4016 124.599 24.6016C124.599 25.2016 124.399 25.8016 124.499 26.3016C124.599 26.9016 124.899 27.4016 125.099 28.0016C125.199 28.2016 125.099 28.4016 125.099 28.6016C124.999 28.6016 124.899 28.6016 124.799 28.7016Z" fill="black"/>
<path d="M114.094 47.0016C115.194 46.0016 116.294 45.0016 117.494 44.1016C117.594 44.2016 117.694 44.3016 117.694 44.4016C116.594 45.4016 115.394 46.4016 114.294 47.4016C114.294 47.2016 114.194 47.1016 114.094 47.0016Z" fill="black"/>
<path d="M118.195 26.4984C118.895 25.1984 120.195 25.1984 121.295 24.8984C121.295 24.9984 121.395 25.0984 121.395 25.1984C120.795 25.3984 120.295 25.5984 119.695 25.8984C119.195 26.0984 118.695 26.2984 118.195 26.4984Z" fill="black"/>
<path d="M88.7969 50.1031C89.7969 49.5031 90.7969 48.9031 91.7969 48.2031C91.6969 48.9031 91.6969 48.9031 90.5969 49.6031C90.0969 49.9031 89.4969 50.2031 88.9969 50.5031C88.8969 50.3031 88.7969 50.2031 88.7969 50.1031Z" fill="black"/>
<path d="M113.5 38.6031C113.5 37.5031 114.5 37.5031 115.1 37.2031C114.8 37.9031 114.1 38.2031 113.5 38.6031Z" fill="black"/>
<path d="M62.9984 35.3984C63.4984 35.7984 64.0984 36.1984 64.5984 36.5984C64.5984 36.6984 64.4984 36.6984 64.4984 36.7984C63.9984 36.3984 63.3984 36.0984 62.8984 35.6984C62.8984 35.5984 62.8984 35.4984 62.9984 35.3984Z" fill="black"/>
<path d="M56 34C56.3 34 56.7 34 57.2 34.1C56.6 34.8 56.3 34.4 56 34Z" fill="black"/>
<path d="M111.798 51.7C111.198 51.6 110.798 51.2 110.898 50.5C111.198 50.9 111.498 51.3 111.798 51.7C111.798 51.8 111.798 51.7 111.798 51.7Z" fill="black"/>
<path d="M66.7984 39.3984C66.4984 39.0984 66.1984 38.6984 65.8984 38.3984C66.4984 38.4984 66.7984 38.8984 66.7984 39.3984Z" fill="black"/>
<path d="M57.6953 33.8C57.7953 33.7 57.8953 33.5 58.0953 33.5C58.2953 33.5 58.4953 33.6 58.6953 33.8C58.3953 33.9 58.0953 33.9 57.7953 34C57.7953 34 57.6953 33.9 57.6953 33.8Z" fill="black"/>
<path d="M66.7969 39.3984C66.9969 39.7984 67.2969 40.0984 67.4969 40.4984C67.3969 40.4984 67.2969 40.5984 67.1969 40.5984C67.0969 40.1984 66.9969 39.7984 66.7969 39.3984Z" fill="black"/>
<path d="M118.298 42.2031C118.398 42.3031 118.498 42.5031 118.398 42.5031C118.398 42.6031 118.198 42.6031 118.098 42.7031C117.998 42.6031 117.898 42.5031 117.898 42.3031C118.098 42.3031 118.198 42.3031 118.298 42.2031Z" fill="black"/>
<path d="M120.798 42.5C120.898 42.6 120.998 42.8 120.898 42.8C120.898 42.9 120.698 42.9 120.598 43C120.498 42.9 120.398 42.8 120.398 42.6C120.498 42.6 120.598 42.6 120.798 42.5Z" fill="black"/>
<path d="M119.298 43.7969C119.398 43.8969 119.498 44.0969 119.398 44.0969C119.398 44.1969 119.198 44.1969 119.098 44.2969C118.998 44.1969 118.898 44.0969 118.898 43.8969C118.998 43.8969 119.098 43.8969 119.298 43.7969Z" fill="black"/>
<path d="M134.295 42.8C134.195 42.9 134.095 43 133.995 43.1C133.895 43 133.795 42.9 133.695 42.7C133.795 42.6 133.895 42.5 133.995 42.5C134.095 42.6 134.195 42.7 134.295 42.8Z" fill="black"/>
<path d="M131.896 42.7969C131.996 42.9969 131.996 43.0969 131.996 43.1969C131.996 43.2969 131.796 43.3969 131.696 43.2969C131.596 43.2969 131.496 43.0969 131.596 42.9969C131.596 42.8969 131.696 42.7969 131.896 42.7969Z" fill="black"/>
<path d="M133.193 44.1016C133.293 44.3016 133.293 44.4016 133.293 44.5016C133.293 44.6016 133.093 44.7016 132.993 44.6016C132.893 44.6016 132.793 44.4016 132.893 44.3016C132.893 44.2016 133.093 44.2016 133.193 44.1016Z" fill="black"/>
<path d="M116.995 34.8031C117.161 34.8031 117.295 34.6688 117.295 34.5031C117.295 34.3374 117.161 34.2031 116.995 34.2031C116.83 34.2031 116.695 34.3374 116.695 34.5031C116.695 34.6688 116.83 34.8031 116.995 34.8031Z" fill="white"/>
<path d="M134.3 35.3969C134.466 35.3969 134.6 35.2626 134.6 35.0969C134.6 34.9312 134.466 34.7969 134.3 34.7969C134.134 34.7969 134 34.9312 134 35.0969C134 35.2626 134.134 35.3969 134.3 35.3969Z" fill="white"/>
<path d="M125.597 39.4969C125.997 39.3969 126.397 39.3969 126.797 39.3969C127.397 39.3969 127.997 39.5969 128.597 39.8969C128.697 39.9969 128.897 39.8969 128.997 39.7969C129.097 39.6969 128.997 39.4969 128.897 39.3969C128.297 39.0969 127.597 38.8969 126.897 38.7969C126.397 38.7969 125.997 38.7969 125.497 38.8969C125.297 38.8969 125.197 39.0969 125.297 39.1969C125.197 39.3969 125.397 39.4969 125.597 39.4969Z" fill="white"/>
<path d="M121.897 51.9031C120.297 51.4031 118.897 50.8031 117.497 49.9031C115.897 48.9031 114.297 47.7031 113.697 45.9031C113.497 45.4031 113.097 45.1031 112.697 44.8031C112.297 44.5031 111.897 44.3031 111.597 44.0031C111.397 43.8031 111.097 43.5031 110.797 43.3031C110.497 43.1031 108.697 40.7031 108.297 40.7031C108.197 40.7031 108.097 40.7031 107.997 40.7031H107.797V40.9031C107.797 41.0031 107.797 41.1031 107.797 41.2031C107.797 41.6031 109.297 44.2031 109.397 44.5031L108.497 42.1031C108.397 41.8031 108.397 41.6031 108.397 41.3031C108.397 41.2031 108.397 41.2031 108.397 41.1031H108.097V41.4031C108.197 41.4031 108.197 41.4031 108.297 41.4031C108.597 41.4031 108.797 41.5031 109.097 41.7031C109.397 41.9031 111.097 44.3031 111.297 44.6031C111.697 44.9031 112.097 45.2031 112.397 45.4031C112.797 45.7031 112.997 45.9031 113.197 46.3031C113.897 48.2031 115.597 49.5031 117.297 50.5031C118.697 51.3031 120.297 52.0031 121.897 52.5031V51.9031Z" fill="#1D1D1B"/>
<path d="M192.593 22.9973C192.093 24.1973 191.093 25.0973 190.093 25.9973C185.393 29.8973 179.293 31.9973 173.293 31.7973C171.993 31.7973 170.593 31.6973 169.293 31.8973C168.993 31.7973 168.693 31.6973 168.493 31.5973C168.093 31.3973 167.593 31.3973 167.093 31.2973C165.993 33.1973 164.893 34.8973 163.893 36.5973C163.693 36.9973 163.293 37.3973 162.893 37.4973C162.793 37.4973 162.793 37.4973 162.693 37.4973C161.693 36.6973 161.293 29.8973 160.893 29.1973C160.493 28.4973 159.893 27.8973 159.193 27.3973C158.293 26.5973 157.193 25.9973 156.193 25.1973C155.393 24.5973 154.793 23.8973 154.293 22.9973C153.793 21.9973 153.493 20.9973 153.293 19.8973C152.993 17.3973 153.493 14.8973 155.193 12.4973C155.293 12.3973 155.293 12.2973 155.393 12.1973C156.393 8.59733 159.393 6.69733 161.693 4.09733C162.393 3.29733 163.593 2.69733 164.693 2.19733C165.893 1.59733 167.193 1.09733 168.493 0.797335C171.993 0.697335 175.593 0.697335 179.093 1.39733C181.493 2.19733 183.793 3.09733 186.193 3.99733C188.293 5.29733 190.093 6.99733 191.293 9.09733C192.893 11.9973 193.293 15.4973 193.293 18.8973C193.193 20.1973 193.193 21.6973 192.593 22.9973Z" fill="white"/>
<path d="M192.196 9.7C191.396 7 189.496 5.3 187.096 4.3C186.796 4.2 186.396 4 186.096 3.9C183.796 3 181.396 2.1 178.996 1.3C177.896 0.9 176.796 0.5 175.696 0.1C175.396 0 175.096 0 174.796 0C172.596 0 170.496 0.2 168.396 0.7C167.096 1 165.796 1.5 164.596 2.1C163.496 2.6 162.296 3.1 161.596 4C159.396 6.6 156.296 8.5 155.296 12.1C155.296 12.2 155.196 12.3 155.096 12.4C153.396 14.8 152.996 17.3 153.196 19.8C153.396 21.7 153.996 23.6 154.696 25.4C155.296 26.9 156.796 27.7 158.196 28.3C160.096 29.1 160.696 30.5 161.096 32.3C161.296 33.6 161.596 34.9 161.896 36.1C161.996 36.6 161.996 37.2 162.496 37.3C162.596 37.3 162.596 37.3 162.696 37.3C162.996 37.3 163.396 36.8 163.696 36.4C164.796 34.7 165.796 32.9 166.896 31.1C167.396 31.2 167.896 31.2 168.296 31.4C168.596 31.5 168.896 31.6 169.096 31.7C171.396 32.5 173.796 32.3 176.096 31.9C180.596 31.1 184.896 30 188.896 27.5C191.796 25.6 193.196 23.1 193.596 19.9C194.096 16.5 193.196 13.1 192.196 9.7ZM167.496 29.9C166.296 29.6 166.296 29.5 165.796 30.7C165.096 32.3 164.196 33.9 162.896 35.6C162.496 33.7 162.196 32.1 161.796 30.3H163.996C164.096 30.2 164.096 30.1 164.096 29.9C163.496 29.5 162.896 29.1 162.196 28.8C161.196 28.3 160.096 27.9 158.996 27.4C158.596 27.2 158.296 27.1 157.896 26.9C157.096 26.5 156.396 25.9 155.996 25.2C155.696 24.7 155.496 24.2 155.396 23.7C155.196 22.9 154.996 22.1 154.796 21.3C153.896 18.5 154.496 15.9 155.796 13.3C156.296 12.2 156.796 11.1 157.496 10.1C158.296 9.1 159.196 8.1 160.196 7.3C160.696 6.8 161.396 6.5 161.996 6.1C162.196 6 162.496 5.7 162.396 5.6C161.996 4.3 162.996 4 163.596 3.7C165.196 2.9 166.596 1.9 168.596 2.4C169.196 2.5 169.896 2.2 170.496 2.1C171.396 1.9 172.296 1.8 173.096 1.6C174.896 1.3 176.596 1.4 178.396 2.1C180.796 3.1 183.296 3.9 185.796 4.9C186.896 5.3 187.896 6.1 188.896 6.6C190.296 7.3 190.596 8.7 191.096 9.9C192.696 13.7 193.096 17.6 192.196 21.6C191.696 23.9 190.296 25.5 188.396 26.8C183.696 29.9 178.396 30.8 173.096 31.1C171.296 31.2 169.396 30.4 167.496 29.9Z" fill="black"/>
<path d="M169.699 8.70003C169.099 7.40003 169.499 6.70003 170.399 6.20003C172.799 4.70003 176.999 6.20003 178.099 8.70003C178.499 9.70003 178.599 10.5 177.699 11.3C176.199 12.6 174.699 13.8 173.099 15.2C172.899 16.8 174.099 18.6 173.199 20.6C172.299 19.3 171.599 16 171.499 13.6C173.399 13.8 174.799 12.6 176.099 11.5C177.599 10.3 177.499 8.50003 175.699 7.60003C173.999 6.70003 172.399 6.50003 170.699 7.80003C170.399 8.10003 170.199 8.30003 169.699 8.70003Z" fill="#F15748"/>
<path d="M171.5 24.8987C172.1 24.0987 172.6 23.3987 173.2 22.9987C173.5 22.7987 174.3 23.2987 174.7 23.6987C175.3 24.2987 175 24.9987 174.6 25.4987C174.2 26.0987 173.6 26.6987 172.8 26.3987C172.3 26.0987 172 25.4987 171.5 24.8987Z" fill="#F15748"/>
</g>
<defs>
<clipPath id="clip0_14550_702">
<rect width="194" height="120" fill="white"/>
</clipPath>
</defs>
</svg>
