<svg width="58" height="56" viewBox="0 0 58 56" fill="none" xmlns="http://www.w3.org/2000/svg">
<path d="M57.0204 30.2807C56.6917 32.5815 56.2535 35.1014 55.9248 37.6214C55.4865 40.7987 53.7335 43.3186 51.7614 45.5098C49.351 48.2489 46.612 50.5497 43.3251 52.1931C38.5044 54.6035 33.3549 55.5896 28.096 55.8087C20.9744 56.1374 14.5102 53.9461 8.81301 49.3445C4.75921 46.0576 2.56796 41.6752 0.48628 37.1831C0.157593 36.4162 -0.0615306 35.4301 0.0480317 34.6632C0.267156 31.5954 0.267156 28.3086 1.25322 25.3504C2.56796 21.6253 3.66359 17.7906 5.85483 14.3942C8.2652 10.669 11.0043 7.6013 14.6198 5.19093C17.6876 2.99968 21.084 1.57538 24.9187 1.35625C25.4665 1.35625 26.1238 1.24669 26.6717 1.24669C35.6558 -0.287184 42.8869 3.32837 49.2415 9.13517C53.0762 12.5316 54.7196 17.2428 55.9248 21.954C56.5821 24.4739 56.6917 27.3225 57.0204 30.2807ZM55.0483 30.0616C55.2674 23.0496 53.2953 16.695 48.5841 11.2169C44.3112 6.28655 38.7235 3.32837 32.3689 2.78056C26.2334 2.23275 20.5362 4.09531 15.7154 8.03955C10.0182 12.6412 6.07395 18.6671 3.55402 25.3504C2.34884 28.3086 1.91059 32.0337 2.4584 35.1014C3.88271 43.209 9.03213 48.7967 16.4824 51.8644C24.8091 55.2609 33.3549 54.7131 41.4626 50.8784C50.2275 46.715 55.377 40.2508 55.0483 30.0616Z" fill="#EB584A"/>
<path d="M15.5538 0L0.660156 46.0709L40.9722 56L48.419 29.7872L55.0715 8.83688L15.5538 0Z" fill="white"/>
<path d="M25.6825 47.362C25.3846 46.7662 24.8881 46.2698 24.3917 45.7733C20.5193 42.3974 16.0512 39.518 13.0725 35.2485C11.3846 32.8655 9.99451 29.8868 7.21437 28.6953C6.12217 30.8797 6.02288 34.4542 5.22855 36.6386C5.12926 38.4258 4.33493 38.9223 4.33493 40.7095C4.33493 41.901 2.5477 44.0854 3.04415 45.1776C4.23564 47.5606 9.20018 46.8655 11.7817 47.362C13.9661 47.7591 15.8527 48.8513 18.0371 49.2485C19.4271 50.2414 22.0087 50.8372 23.6966 50.7379C25.5832 50.8372 26.3775 49.1492 25.6825 47.362Z" fill="#BCBCBB"/>
<path d="M48.319 27.1056C49.1133 22.7368 51.5956 18.7652 53.1843 14.5949L53.085 11.6162C53.085 11.0205 53.1843 10.4247 52.8864 9.82898C52.3899 8.5382 50.8013 8.14104 49.4112 7.84317C49.014 7.74388 48.6169 7.64459 48.2197 7.84317C47.5247 8.04175 47.1275 8.83607 46.8296 9.6304C44.1488 17.0772 41.3687 24.7226 41.6665 32.5666C43.6523 32.8644 45.3403 31.2758 46.6311 29.7864C47.2268 29.1907 47.7233 28.5949 48.319 27.8999C48.319 27.602 48.319 27.4035 48.319 27.1056Z" fill="#BCBCBB"/>
<path d="M4.53205 43.5879C4.73063 43.6872 4.92922 43.7865 5.1278 43.7865C8.60297 44.4815 11.9789 45.5737 15.3547 46.6659C19.0285 47.7581 22.603 48.9496 26.4753 49.6447C28.5604 50.0418 30.6455 50.6376 32.7306 51.2333C34.6172 51.7298 36.4044 52.1269 38.2909 52.6234C38.5888 52.7227 38.8867 52.822 39.2838 52.9213C38.6881 53.3184 38.2909 53.1198 37.8938 53.1198C35.4115 52.5241 33.0285 51.9284 30.5462 51.3326C28.1633 50.7369 25.7803 50.3397 23.3973 49.6447C20.4186 48.6518 17.4399 47.7581 14.3618 46.8645C11.4824 46.0702 8.60297 45.2759 5.72354 44.4815C5.32638 44.3823 4.92922 44.3823 4.53205 44.3823C4.23418 44.6801 4.0356 45.0773 3.63844 45.4745C4.23418 45.673 4.73063 45.9709 5.22709 46.0702C6.81574 46.4674 8.50368 46.9638 10.0923 47.1624C12.7732 47.5596 15.3547 48.3539 17.837 49.0489C20.4186 49.744 23.0001 50.5383 25.5817 51.2333C27.6668 51.8291 29.6526 52.3255 31.7377 52.822C34.1207 53.4177 36.5037 54.0135 38.7874 54.6092C39.1845 54.7085 39.4824 54.8078 39.8796 55.0064C39.681 55.5028 39.3831 55.4035 38.986 55.3042C36.4044 54.6092 33.7235 53.9142 31.142 53.2191C28.4611 52.5241 25.7803 51.8291 23.0001 51.134C20.6172 50.5383 18.2342 49.9425 15.8512 49.1482C12.8725 48.1553 9.89375 47.8574 6.81574 47.1624C5.32638 46.7652 3.93631 46.3681 2.34766 45.9709C2.54624 44.978 2.64553 44.0844 2.84411 43.0915C3.43985 40.7085 4.13489 38.3255 4.82993 35.9425C5.02851 35.1482 5.22709 34.4532 5.52496 33.6589C6.61716 30.283 7.70936 27.0064 8.80156 23.6305C10.0923 19.7581 11.4824 15.8858 12.7732 12.0135C13.3689 10.1269 13.7661 8.24041 14.2625 6.35389C14.759 4.66595 15.2555 3.07729 15.6526 1.38935C16.4469 0.992187 17.2413 0.892897 18.0356 1.09148C20.6172 1.68722 23.298 2.18368 25.8796 2.77942C28.759 3.47446 31.5391 4.16949 34.3193 4.96382C34.8157 5.06311 35.2129 5.1624 35.7094 5.26169C37.1987 5.46027 38.5888 5.85744 39.9789 6.15531C42.759 6.75105 45.3406 7.74396 48.0214 8.3397C49.7094 8.63758 51.3973 9.03474 53.0852 9.4319C53.2838 9.4319 53.3831 9.4319 53.5817 9.53119C53.681 9.63048 53.8796 9.82907 53.8796 10.0276C53.8796 10.1269 53.681 10.3255 53.4824 10.3255C53.2838 10.3255 53.0852 10.3255 52.8867 10.2262C49.2129 9.4319 45.5391 8.53829 41.8654 7.44609C39.7803 6.85034 37.5959 6.45318 35.4115 5.95673C32.4328 5.26169 29.5533 4.46736 26.5746 3.77233C23.8938 3.17658 21.1136 2.58084 18.4328 1.9851C17.9363 1.8858 17.3406 1.8858 16.6455 1.78651C15.8512 4.16949 15.454 6.75105 14.759 9.53119C15.5533 9.23332 16.0498 8.93545 16.8441 8.53829C16.0498 9.53119 14.5604 9.63048 14.5604 11.2191C15.454 10.822 16.2484 10.5241 17.0427 10.1269C17.0427 10.1269 17.0427 10.2262 17.142 10.2262C16.5462 10.6234 15.9505 10.9213 15.3547 11.3184C14.6597 11.7156 14.1633 12.3113 13.8654 13.1057C12.7732 16.0844 11.681 19.0631 10.6881 22.0418C10.2909 23.2333 9.89376 24.5241 9.59588 25.7156C9.00014 27.6021 8.50368 29.4886 7.90794 31.3752C7.01432 34.3539 6.12071 37.4319 5.22709 40.4106C4.73063 41.4035 4.43276 42.4957 4.53205 43.5879Z" fill="black"/>
<path d="M52.0913 12.1125C51.7935 12.2118 51.5949 12.3111 51.3963 12.2118C50.5027 12.0133 49.6091 12.0133 48.8147 11.6161C47.0275 10.9211 45.2403 10.5239 43.3537 10.226C41.2686 9.92815 39.2828 9.63028 37.297 8.93524C36.2048 8.63737 35.1126 8.53808 34.0204 8.3395C31.836 7.84304 29.7509 7.2473 27.6658 6.75084C27.1694 6.65155 26.5736 6.55226 25.9779 6.45297C23.297 5.95652 20.5169 5.46006 17.836 4.96361C17.5381 4.86432 17.2403 4.86432 16.9424 4.66574C16.7438 4.56645 16.7438 4.26858 16.6445 4.16928C16.8431 4.06999 16.9424 3.9707 17.141 3.9707C17.2403 3.9707 17.4389 4.06999 17.6374 4.06999C20.7155 4.66574 23.7935 5.16219 26.8715 5.85723C28.8573 6.25439 30.7438 6.75084 32.7296 7.2473C33.8218 7.54517 35.0133 7.74375 36.1055 8.04162C36.8998 8.24021 37.7935 8.24021 38.5878 8.53808C40.8715 9.23311 43.2545 9.53099 45.5381 10.1267C47.6233 10.6232 49.7084 11.3182 51.7935 12.0133C51.8928 11.8147 51.8928 11.914 52.0913 12.1125Z" fill="black"/>
<path d="M53.9756 11.3184C53.8763 11.7155 53.8763 12.0134 53.777 12.3113C53.0819 13.8006 52.6848 15.29 52.2876 16.8786C52.089 17.5737 51.7912 18.2687 51.394 18.8645C50.5997 20.1552 50.3018 21.446 49.9046 22.8361C48.8124 26.5098 47.8195 30.2829 46.628 33.9567C45.3373 38.2262 43.9472 42.3964 42.9543 46.6659C42.4578 48.5524 41.8621 50.5382 41.2663 52.4247C41.1671 52.8219 40.9685 53.2191 40.7699 53.6162C40.6706 53.7155 40.3727 53.7155 40.2734 53.7155C40.8692 51.7297 41.4649 49.7439 41.9614 47.7581C43.1529 43.29 44.4436 38.8219 45.8337 34.4531C47.1245 30.3822 48.2167 26.212 49.4082 22.1411C49.8054 20.8503 50.4011 19.5595 50.8976 18.2687C51.1954 17.3751 51.5926 16.4815 51.8905 15.5879C52.1883 14.0985 52.7841 12.8077 53.4791 11.5169C53.4791 11.5169 53.6777 11.5169 53.9756 11.3184Z" fill="black"/>
<path d="M36.4025 36.7365C35.4096 36.4387 34.7145 36.7365 34.0195 37.1337C33.7216 37.3323 33.3245 37.5309 33.5231 37.928C33.6223 38.2259 33.9202 38.5238 34.2181 38.6231C34.6152 38.8217 35.1117 38.9209 35.6082 39.0202C34.6152 39.5167 33.0266 39.0202 32.828 38.1266C32.7287 37.8287 32.828 37.3323 33.0266 37.1337C33.7216 36.6373 34.6152 36.2401 35.4096 35.8429C35.906 35.7436 36.1046 35.9422 36.4025 36.7365Z" fill="black"/>
<path d="M20.0228 14.4961C20.5193 14.2975 20.9164 14.2975 21.2143 14.0989C21.7107 13.9003 22.0086 13.5032 22.2072 13.0067C22.4058 12.2124 22.0086 11.7159 21.115 11.8152C20.7178 11.8152 20.3207 11.9145 19.8242 12.0138C20.5193 10.9216 22.0086 10.9216 22.5051 11.8152C22.8029 12.5103 22.8029 13.2053 22.4058 13.9003C21.9093 14.5954 21.115 14.8932 20.0228 14.4961Z" fill="black"/>
<path d="M38.9864 18.1689C37.6956 17.5731 37.1992 16.8781 37.3977 15.7859C37.497 15.1902 38.1921 14.5944 38.7878 14.4951C39.2843 14.4951 39.5821 14.6937 39.9793 15.488C39.88 15.488 39.6814 15.488 39.6814 15.3887C39.185 14.9916 38.6885 15.0909 38.2914 15.488C37.8942 15.7859 37.8942 16.3816 38.1921 16.8781C38.2914 17.0767 38.4899 17.3745 38.6885 17.5731C38.8871 17.7717 39.0857 17.871 39.2843 17.9703C39.0857 17.9703 38.9864 18.0696 38.9864 18.1689Z" fill="black"/>
<path d="M10.788 35.3464C9.99364 35.8428 9.69576 36.3393 9.89435 37.1336C10.1922 38.1265 10.9865 38.3251 11.8802 38.5237C11.8802 38.623 11.8802 38.7223 11.7809 38.7223C10.788 39.0201 10.1922 38.5237 9.59647 37.9279C9.00073 37.3322 9.00073 36.5379 9.39789 35.8428C9.69576 35.0485 9.89435 35.0485 10.788 35.3464Z" fill="black"/>
<path d="M24.2891 36.6365C25.5798 36.0408 25.5798 36.0408 25.4806 34.75C25.1827 34.6507 24.8848 34.6507 24.4876 34.5514C24.5869 34.3528 24.5869 34.0549 24.7855 34.0549C24.9841 33.9556 25.3813 33.9556 25.5798 34.0549C26.1756 34.3528 26.4735 35.3457 26.1756 36.14C25.7784 36.7358 25.3813 36.9344 24.2891 36.6365Z" fill="black"/>
<path d="M32.8282 26.2123C33.3247 26.113 33.6225 26.3116 33.7218 26.8081C33.8211 27.3045 33.2254 27.7017 32.6296 27.801C32.1332 27.801 31.6367 27.4038 31.6367 27.0066C31.736 26.4109 32.0339 26.3116 32.8282 26.2123Z" fill="black"/>
<path d="M16.3477 27.5033C16.6455 27.404 16.8441 27.1062 17.142 27.1062C17.5391 27.0069 17.837 27.3047 17.837 27.7019C17.837 28.0991 17.5391 28.2976 17.142 28.2976C16.7448 28.2976 16.4469 28.0991 16.3477 27.5033Z" fill="black"/>
<path d="M25.6797 17.9715C26.0769 17.8722 26.3747 17.7729 26.6726 17.8722C26.8712 17.8722 27.0698 18.1701 27.169 18.2693C27.2683 18.3686 27.0698 18.7658 26.8712 18.8651C26.2754 19.2623 25.8783 18.9644 25.6797 17.9715Z" fill="black"/>
<path d="M37.6953 49.446C38.7875 49.1482 39.7804 48.751 40.8726 48.4531C39.8797 49.3467 38.4896 49.7439 37.6953 49.446Z" fill="black"/>
<path d="M38.1875 48.255C39.2797 47.7585 40.1733 46.8649 41.5634 47.0635C40.9676 47.2621 40.4712 47.4606 39.8754 47.7585C39.379 47.9571 38.7832 48.255 38.2868 48.5528C38.2868 48.4535 38.2868 48.3543 38.1875 48.255Z" fill="black"/>
<path d="M14.8594 19.8567C15.1572 19.5588 15.3558 19.2609 15.6537 19.0623C15.9516 18.8638 16.2494 19.1616 16.3487 19.4595C16.3487 19.6581 16.1502 19.956 16.0509 19.956C15.753 20.0553 15.3558 20.0553 15.058 20.0553C14.9587 20.0553 14.9587 19.956 14.8594 19.8567Z" fill="black"/>
<path d="M31.2445 12.41C30.3509 12.0129 30.1523 11.6157 30.6488 11.2185C30.7481 11.1193 31.0459 11.02 31.1452 11.1193C31.2445 11.2185 31.4431 11.4171 31.4431 11.5164C31.4431 11.9136 31.3438 12.1122 31.2445 12.41Z" fill="black"/>
<path d="M43.9502 22.9355C44.4467 22.9355 44.9431 23.3327 44.9431 23.6306C44.9431 23.8292 44.7445 24.0277 44.546 24.127C44.2481 24.2263 43.6523 23.8292 43.6523 23.432C43.6523 23.2334 43.8509 23.1341 43.9502 22.9355Z" fill="black"/>
<path d="M35.8086 46.864C35.9079 46.7647 36.0072 46.4668 36.2058 46.4668C36.6029 46.4668 36.8015 46.7647 36.8015 47.1618C36.8015 47.3604 36.6029 47.559 36.4043 47.6583C36.1065 47.7576 35.8086 47.3604 35.8086 46.864Z" fill="black"/>
<path d="M22.406 43.2894C22.0089 43.488 21.8103 43.7859 21.6117 43.7859C21.5124 43.7859 21.2146 43.5873 21.2146 43.3887C21.1153 42.9915 21.4131 42.793 21.8103 42.793C21.9096 42.793 22.0089 42.9916 22.406 43.2894Z" fill="black"/>
<path d="M22.6055 11.8145L17.1445 27.1052L12.875 40.5095L32.4353 45.9705L37.797 34.1549L43.0594 18.7648L38.1941 15.3889L22.6055 11.8145Z" fill="white"/>
<path d="M14.2669 37.3323C14.9619 37.0344 15.4584 36.9351 16.0541 36.7365C15.5576 37.5309 14.5647 37.6302 13.969 38.6231C14.7633 38.5238 15.4584 38.4245 16.0541 38.2259C16.0541 38.3252 16.0541 38.3252 16.0541 38.3252C15.2598 38.6231 14.4654 39.0202 13.4725 39.4174C13.969 39.7153 14.1676 39.9138 14.4654 40.0131C15.2598 40.311 15.9548 40.4103 16.7491 40.7082C20.8201 41.8997 24.9903 43.0911 29.0612 44.2826C30.2527 44.5805 31.5435 44.8784 32.9335 45.1763C33.1321 44.7791 33.3307 44.4812 33.5293 44.0841C34.4229 41.6018 35.4158 39.1195 36.3094 36.538C37.1037 34.2543 37.7988 31.9706 38.4938 29.6869C38.5931 29.2897 38.7917 28.8926 38.891 28.3961C39.7846 25.9138 40.6782 23.4316 41.5718 20.9493C41.969 19.7578 42.3662 18.467 42.8626 17.077C42.0683 16.6798 41.274 16.2826 40.5789 15.9848C39.9832 15.7862 39.3874 15.5876 38.6924 15.4883C35.7137 14.9919 32.9335 13.8997 30.1534 12.9068C27.7704 12.0131 25.3874 11.3181 22.8059 11.2188C22.4087 11.2188 22.1108 11.1195 22.0115 10.5238C22.2101 10.4245 22.508 10.3252 22.7066 10.3252C24.7917 10.6231 26.7775 11.0202 28.7633 11.7153C31.2456 12.6089 33.7279 13.5025 36.2101 14.1975C37.6995 14.5947 39.1889 14.8926 40.6782 15.1904C41.7704 15.4883 42.7633 15.9848 43.7562 16.7791C43.5576 17.3748 43.3591 17.9706 43.1605 18.5663C42.664 20.2543 42.1676 21.9422 41.5718 23.5309C41.0754 25.0202 40.4796 26.5096 39.8839 27.999C39.586 28.694 39.2881 29.2897 39.1889 29.9848C38.9903 31.3748 38.4938 32.5663 37.8981 33.8571C37.6995 34.2543 37.6002 34.6514 37.5009 35.1479C36.8059 37.0344 36.2101 38.9209 35.5151 40.8075C35.0186 42.1975 34.4229 43.6869 33.9264 45.077C33.5293 45.9706 33.43 45.9706 32.5364 45.772C29.9548 45.077 27.4725 44.3819 24.891 43.6869C23.4016 43.2897 21.9123 42.8926 20.4229 42.4954C19.1321 42.0982 17.8413 41.8004 16.6498 41.4032C15.4584 41.1053 14.2669 40.7082 13.0754 40.311C13.0754 40.0131 12.9761 39.7153 13.0754 39.5167C13.5718 37.5309 14.1676 35.545 14.7633 33.6585C15.5576 31.1763 16.2527 28.5947 17.047 26.1124C17.6428 24.1266 18.3378 22.1408 19.0328 20.155C19.6286 18.467 20.4229 16.7791 21.1179 15.0912C21.4158 14.2968 21.6144 13.4032 21.9123 12.6089C22.0115 12.4103 22.1108 12.311 22.2101 12.1124C22.8059 12.311 22.7066 12.8075 22.508 13.1053C22.2101 13.8997 22.0115 14.694 21.6144 15.4883C20.4229 17.9706 19.5293 20.6514 18.735 23.3323C17.4442 27.6018 16.0541 31.9706 14.7633 36.2401C14.4654 36.538 14.4654 36.8358 14.2669 37.3323Z" fill="black"/>
<path d="M24.4884 14.4971L22.1055 24.8233L34.5168 29.1921L35.8076 25.4191L36.6019 18.0715L24.4884 14.4971Z" fill="#EB584A"/>
<path d="M36.6019 18.0714C32.531 16.1849 28.1622 15.9863 23.6941 15.3906C23.6941 15.2913 23.5948 14.8941 23.6941 14.6955C23.7934 14.497 24.1906 14.3977 24.3892 14.497C26.5736 15.2913 28.8572 15.3906 31.1409 15.6885C32.6303 15.887 34.0204 16.4828 35.5097 16.8799C36.0062 16.9792 36.4033 17.1778 36.8998 17.2771C37.3962 17.3764 37.4955 17.6743 37.3962 18.27C37.1977 19.1636 36.9991 20.0572 36.8005 20.9509C36.5026 22.4402 36.2048 23.9296 35.8076 25.4189C35.5097 26.6104 35.0133 27.8019 34.5168 29.192C32.3324 28.497 30.3466 27.7026 28.2615 27.0076C26.2757 26.3126 24.1906 25.5182 22.1055 24.8232C22.5026 22.2416 22.6019 19.6601 23.4955 17.0785C23.5948 16.7806 23.7934 16.5821 23.992 16.2842C24.0913 16.2842 24.1906 16.3835 24.1906 16.3835C24.1906 16.6814 24.1906 17.0785 24.0913 17.2771C23.3962 18.7665 23.297 20.3551 23.0984 21.8445C22.9991 22.5395 22.8998 23.2345 22.8998 24.0289C26.4743 25.7168 30.3466 26.7097 33.9211 28.1991C35.1126 26.6104 36.4033 21.5466 36.6019 18.0714Z" fill="black"/>
<path d="M30.4471 37.1347C30.3478 37.234 30.3478 37.234 30.3478 37.3333C30.2485 37.3333 30.2485 37.4326 30.1492 37.4326C30.0499 37.4326 29.9506 37.4326 29.8513 37.3333C26.3761 35.9432 23.1988 34.156 19.5251 33.1631C19.5251 33.1631 19.4258 33.0638 19.4258 32.8652C19.7237 32.8652 19.9222 32.8652 20.2201 32.9645C22.0073 33.3617 23.6953 34.156 25.3832 34.851C26.9719 35.5461 28.6598 36.2411 30.2485 36.9362C30.3478 36.9362 30.3478 37.0354 30.4471 37.1347Z" fill="black"/>
<path d="M27.9626 41.5028C26.7711 40.6092 25.4803 40.5099 24.2888 40.1128C22.4023 39.6163 20.5158 39.1199 18.6293 38.6234C18.4307 38.5241 18.3314 38.4248 18.1328 38.2262C18.3314 38.2262 18.53 38.127 18.7286 38.127C21.608 38.9213 24.4874 39.7156 27.2676 40.6092C27.6647 40.7085 28.0619 40.9071 27.9626 41.5028Z" fill="black"/>
<path d="M27.5653 33.2619C27.466 33.2619 27.2674 33.3612 27.1681 33.2619C24.9837 32.269 22.7 31.2761 20.5156 30.1839C20.5156 30.0846 20.5156 30.0846 20.6149 29.9854C20.8135 29.9854 21.1114 29.9854 21.31 30.0846C22.7 30.6804 23.9908 31.2761 25.3809 31.8719C26.0759 32.1698 26.6717 32.4676 27.3667 32.7655C27.466 32.8648 27.5653 32.9641 27.7639 33.0634C27.5653 33.0634 27.5653 33.1627 27.5653 33.2619Z" fill="black"/>
<path d="M29.65 18.5675C29.7493 18.5675 29.7493 18.5675 29.7493 18.5675C29.8486 18.7661 29.8486 19.0639 29.7493 19.3618C29.9479 19.4611 30.0472 19.6597 30.1465 19.759C30.3451 19.3618 30.4444 19.0639 30.3451 18.4682C30.1465 18.3689 29.9479 18.1703 29.9479 17.8725C29.9479 17.6739 30.0472 17.4753 30.1465 17.376C29.9479 17.2767 29.5508 17.1774 29.2529 17.5746C29.1536 17.7732 29.1536 17.9717 29.1536 18.1703C29.2529 18.3689 29.4515 18.4682 29.65 18.5675ZM30.0472 17.8725C30.0472 18.071 30.1465 18.2696 30.3451 18.3689H30.4444V18.4682C30.5437 19.0639 30.3451 19.5604 30.1465 19.8583C30.2458 19.9576 30.2458 20.1561 30.3451 20.1561C30.5437 19.9576 30.9408 19.2625 30.9408 18.2696C31.1394 18.1703 31.338 17.8725 31.2387 17.5746C31.1394 17.0781 30.5437 16.8795 30.1465 17.2767C30.1465 17.4753 30.0472 17.6739 30.0472 17.8725ZM31.1394 18.4682C31.1394 19.3618 30.7422 20.0568 30.5437 20.3547C30.5437 20.3547 30.5437 20.5533 30.5437 20.7519C31.338 19.8583 31.338 18.8654 31.338 18.8654C31.6359 18.9647 31.9337 18.7661 32.033 18.4682C32.1323 18.071 31.8344 17.6739 31.4373 17.6739C31.4373 17.6739 31.4373 17.6739 31.4373 17.7732C31.5366 18.071 31.338 18.2696 31.1394 18.4682ZM29.1536 18.4682C29.3522 19.3618 29.0543 20.0569 28.4586 20.5533C28.5578 20.5533 28.6571 20.6526 28.7564 20.6526C28.8557 20.6526 28.8557 20.6526 28.955 20.6526H29.0543C29.1536 20.5533 29.4515 20.2554 29.5508 20.0569V19.9576C29.5508 19.8583 29.5508 19.759 29.5508 19.6597C29.65 19.4611 29.5508 19.3618 29.4515 19.2625C29.5508 19.2625 29.65 19.3618 29.65 19.3618C29.65 19.1632 29.65 18.9647 29.65 18.7661C29.65 18.7661 29.65 18.7661 29.5508 18.7661C29.2529 18.6668 29.0543 18.4682 29.0543 18.2696C28.955 18.071 29.0543 17.8725 29.1536 17.6739C28.8557 17.5746 28.5578 17.7732 28.5578 18.071C28.5578 18.1703 28.7564 18.4682 29.1536 18.4682ZM29.0543 19.1632C28.955 19.0639 28.8557 19.0639 28.7564 19.0639C28.8557 19.1632 28.7564 19.4611 28.7564 19.6597L28.8557 19.759C28.955 19.4611 29.0543 19.3618 29.0543 19.1632ZM29.2529 20.8512C29.4515 20.7519 29.65 20.6526 29.65 20.454C29.65 20.3547 29.5508 20.1561 29.4515 20.0569C29.3522 20.3547 29.0543 20.5533 28.955 20.7519C29.1536 20.7519 29.2529 20.7519 29.2529 20.8512ZM28.4586 21.149C28.3593 21.0498 28.3593 21.0498 28.3593 21.149C28.3593 21.2483 28.3593 21.2483 28.4586 21.2483C28.5578 21.2483 28.5578 21.2483 28.4586 21.149C28.5578 21.2483 28.5578 21.149 28.4586 21.149C28.5578 21.149 28.5578 21.149 28.4586 21.149ZM30.5437 25.3193C29.5508 25.3193 28.8557 24.7235 28.6571 24.1278C28.955 24.8228 29.8486 25.22 30.5437 25.22C30.643 24.9221 32.3309 22.837 30.3451 21.2483C30.3451 21.3476 30.2458 21.3476 30.2458 21.4469C30.4444 21.6455 30.7422 21.9434 30.7422 22.6384C30.7422 21.9434 30.2458 21.5462 30.0472 21.3476C30.5437 21.4469 30.4444 20.2554 30.4444 20.2554C30.1465 20.0569 30.1465 19.4611 29.65 19.2625C29.7493 19.3618 29.5508 19.6597 29.5508 19.8583C29.65 20.0568 29.8486 20.3547 29.8486 20.3547C29.7493 20.5533 29.5508 20.7519 29.3522 20.8512C29.5508 21.0498 29.7493 21.149 29.8486 21.3476C29.5508 21.2483 29.3522 21.4469 29.3522 21.4469C29.3522 21.4469 29.4515 21.2483 29.7493 21.2483C29.5508 21.0498 29.3522 20.8512 29.0543 20.7519C28.8557 20.6526 28.5578 20.7519 28.3593 20.5533C28.1607 20.7519 27.0685 21.2483 25.877 21.0498C25.6784 21.0498 25.2812 20.9505 25.2812 20.9505V21.0498C25.2812 21.0498 25.4798 21.149 25.6784 21.0498C25.6784 21.149 25.4798 21.2483 25.3805 21.149C25.5791 21.7448 27.1678 22.4398 28.1607 21.9434C28.0614 22.142 27.7635 22.2412 27.4656 22.2412C27.5649 22.2412 27.7635 22.3405 27.8628 22.4398C27.9621 22.5391 28.0614 22.5391 28.1607 22.5391C28.1607 22.4398 28.26 22.3405 28.4586 22.3405C28.6571 22.4398 28.8557 22.7377 29.3522 22.837C29.8486 22.9363 30.2458 22.6384 30.3451 21.9434C30.2458 22.7377 29.7493 23.0356 29.3522 22.9363C29.3522 23.3334 29.0543 23.7306 28.7564 23.9292C28.5578 23.9292 28.3593 23.9292 28.26 24.1278C28.4586 24.7235 29.3522 25.7164 30.7422 25.6171C30.643 25.6171 30.643 25.4186 30.5437 25.3193ZM28.8557 21.4469C28.8557 21.3476 28.8557 21.3476 28.8557 21.4469C28.7564 21.3476 28.7564 21.3476 28.7564 21.3476L28.6571 21.2483V21.3476C28.6571 21.4469 28.5578 21.5462 28.4586 21.4469C28.3593 21.3476 28.26 21.3476 28.26 21.2483C28.26 21.0498 28.3593 21.0498 28.3593 21.0498C28.3593 21.0498 28.3593 21.0498 28.26 21.0498C28.26 21.0498 28.26 21.0498 28.1607 21.0498H28.26C28.26 21.0498 28.3593 21.0498 28.3593 21.149L28.4586 21.2483C28.4586 21.2483 28.4586 21.2483 28.4586 21.3476C28.8557 21.3476 28.8557 21.3476 28.8557 21.4469C28.8557 21.3476 28.8557 21.3476 28.8557 21.4469C28.955 21.4469 28.955 21.4469 28.8557 21.4469C28.955 21.4469 28.8557 21.4469 28.8557 21.4469Z" fill="white"/>
</svg>
