<svg width="60" height="77" viewBox="0 0 60 77" fill="none" xmlns="http://www.w3.org/2000/svg">
<path d="M47.954 58.6808C47.2631 58.4368 47.2722 57.976 47.3426 57.3435C47.5412 53.141 47.741 48.8809 47.9396 44.6784C48.0293 43.0668 48.0031 41.4528 48.0371 39.7249C47.3393 39.8265 46.8154 39.9315 46.3495 40.0376C42.0949 41.1646 37.8425 42.1764 33.4299 42.4935C30.5264 42.7249 27.6275 42.7259 24.6705 42.7258C20.6124 42.7042 16.618 42.3957 12.6939 41.4547C12.3473 41.3903 11.9996 41.3835 11.4791 41.3157C11.4496 42.8133 11.3065 44.1935 11.3373 45.577C11.4102 47.768 11.4841 49.9015 11.6161 52.0361C11.6991 53.7087 11.897 55.4412 12.038 57.115C12.0835 57.7497 12.1301 58.3269 11.3699 58.6577C10.855 58.302 10.6334 57.779 10.5879 57.1443C10.4684 54.3761 10.4069 51.6091 10.2863 48.8985C10.1089 46.1292 9.87462 43.3012 9.6415 40.4155C7.84711 40.2652 6.1675 40.1748 4.48903 40.0268C4.08447 39.9613 3.67877 39.9533 3.27534 39.8302C1.48775 39.3343 1.26046 39.0994 0.777379 37.1308C2.3796 35.2606 4.4853 34.3222 6.97856 34.3132C7.26835 34.3189 7.55926 34.267 7.79109 34.2715C9.64003 34.5957 10.8787 33.5251 11.8877 32.3347C13.5479 30.4656 15.3763 28.8879 17.657 27.8953C18.7683 27.3984 19.9934 27.019 21.1604 26.6384C21.9195 26.3651 22.3343 25.9123 22.6956 25.2279C24.0774 22.7771 25.7432 20.62 28.716 19.8138C30.2899 19.3835 31.9115 19.4728 33.3491 20.0771C34.556 20.6193 35.522 21.6177 35.9584 23.0092C36.1755 23.7625 36.3926 24.5158 36.6075 25.3843C38.9246 25.4872 41.1077 26.5094 43.1749 27.5293C45.3011 28.4928 47.3058 29.742 48.7173 31.6711C48.4764 32.1274 48.181 32.4097 48.1151 32.8118C47.9901 33.2703 47.756 33.381 47.3481 33.4883C46.7071 33.6486 46.1219 33.9253 45.5378 34.1444C44.6037 34.4719 44.4855 34.5848 44.5822 35.5662C44.6732 36.8357 44.88 38.1074 45.0301 39.3204C45.2608 39.3825 45.3176 39.4413 45.4335 39.4435C48.5211 38.6971 47.8689 39.4335 48.4005 35.9865C48.4028 35.8713 48.4062 35.6986 48.4084 35.5834C48.447 33.625 48.6242 33.4556 50.547 32.9745C52.7607 32.4415 54.9585 32.7149 57.0893 33.448C58.7019 33.9981 58.9054 35.4426 57.6088 36.5121C57.2554 36.7933 56.844 37.0734 56.4361 37.1807C54.3951 37.7747 52.4087 38.5426 50.2598 38.7311C49.795 38.7796 49.3859 38.9445 48.9189 39.1082C48.8417 40.0863 48.7087 40.948 48.6917 41.812C48.4818 46.5905 48.3298 51.3702 48.1778 56.1498C48.1005 57.1279 47.9688 57.932 47.954 58.6808ZM34.4995 26.438C33.9802 26.3126 33.5188 26.1883 33.0585 26.0065C32.196 25.6439 31.2698 25.5682 30.3414 25.6077C28.7743 25.6923 27.2606 26.0085 25.689 26.3235C24.9321 26.4816 24.2367 26.468 23.9287 27.3839C23.8674 27.5556 23.631 27.7815 23.456 27.8357C22.5231 28.1056 21.5867 28.5483 20.4923 28.1812C20.0321 27.9993 19.332 28.2161 18.7491 28.3776C18.2832 28.4837 17.8718 28.7638 17.4627 28.9287C15.3547 29.9823 13.5854 31.5036 12.04 33.4325C12.4435 33.5556 12.731 33.6765 13.0196 33.7398C15.0447 33.9522 17.0698 34.1646 19.096 34.3194C20.254 34.3997 21.4109 34.5375 22.5711 34.5025C26.6883 34.4677 30.8055 34.4329 34.9238 34.3404C35.8523 34.3009 36.7818 34.2038 37.7114 34.1068C38.7001 33.9532 39.7467 33.8008 40.7365 33.5896C42.7161 33.1673 44.6968 32.6874 46.6786 32.1499C46.9116 32.0968 47.1468 31.9285 47.3821 31.7603C46.5478 29.9577 42.018 27.3915 38.9531 26.9859C38.894 27.0424 38.8338 27.1565 38.7156 27.2694C38.002 28.1774 37.769 28.2305 36.7326 27.8645C36.4451 27.7436 36.1587 27.5652 35.811 27.5584C34.9996 27.5425 34.5427 27.1879 34.4995 26.438ZM14.5448 35.7863C14.2767 37.625 14.5348 39.2434 14.9644 40.9805C17.9134 41.3838 20.7442 41.9 23.7023 41.8426C25.2103 41.8144 26.6569 41.9579 28.1649 41.9297C30.4264 41.9163 32.6867 41.9604 34.9526 41.7166C37.3345 41.475 39.7232 40.8878 42.0505 40.4723C42.5744 40.3673 43.1006 40.147 43.5676 39.9833C43.5425 38.3118 43.3402 36.8097 42.9651 35.2466C42.4412 35.3516 42.0343 35.4012 41.6264 35.5085C37.6706 36.1803 33.6603 36.6782 29.6044 36.5414C25.4895 36.461 21.3803 36.0927 17.2688 35.8395C16.4006 35.7649 15.5301 35.8056 14.5448 35.7863ZM33.8824 25.3887C34.2392 24.9347 34.1301 24.5869 33.7289 24.3485C33.2141 23.9927 32.7561 23.6957 32.2413 23.3399C30.5821 22.2127 28.957 22.2962 27.3684 23.4752C26.4866 24.0918 25.6616 24.7672 25.0026 25.8491C28.0879 25.2179 30.947 24.2942 33.8824 25.3887ZM49.1471 36.3469C51.6359 36.5683 55.4837 35.491 56.2609 34.2962C54.7051 33.8048 53.146 33.4863 51.5198 33.6274C49.372 33.7583 49.1334 34.0993 49.1471 36.3469ZM14.4428 40.9703C14.3063 39.0661 14.1074 37.3912 13.9675 35.6598C13.7948 35.5988 13.5061 35.5355 13.1595 35.4711C12.896 37.0794 13.4461 38.5883 13.2427 40.0825C13.0745 39.7911 13.0222 39.502 12.97 39.2129C12.8756 38.1162 12.7232 37.0184 12.5709 35.9206C12.4674 35.2848 12.1856 34.8759 11.4844 35.1503C11.4527 36.7631 11.421 38.3759 11.387 40.1039C12.4245 40.4123 13.3473 40.6608 14.4428 40.9703ZM4.15699 36.2749C5.4071 37.567 7.8879 38.1917 9.69249 37.8235C9.70609 37.1324 9.77764 36.4423 9.85033 35.6946C7.83205 35.1366 6.08655 35.4483 4.15699 36.2749ZM43.9744 39.9336C44.3858 39.6536 44.5608 39.5993 44.5619 39.5417C44.4187 37.9832 44.2765 36.367 44.1389 34.5204C43.8423 34.8603 43.4901 35.0839 43.5458 35.2003C43.6311 36.7577 43.7766 38.2011 43.9744 39.9336ZM56.044 36.4816C57.5042 35.9339 57.5042 35.9339 57.2894 35.0653C56.9337 35.4617 56.578 35.8582 56.044 36.4816ZM3.06505 38.7313C3.12414 38.6748 3.1264 38.5596 3.18549 38.5032C3.01502 38.327 2.84455 38.1508 2.61499 38.0311C2.50021 37.9712 2.32408 38.083 2.2059 38.1959C2.14681 38.2524 2.20023 38.4839 2.31501 38.5438C2.5457 38.6059 2.7764 38.668 3.06505 38.7313Z" fill="black"/>
<path d="M26.4397 65.0004C27.0671 65.5313 27.5807 65.9447 28.1513 66.4168C28.9149 65.9131 29.5024 65.5212 30.207 65.074C30.4911 65.3676 30.7752 65.6613 31.1161 66.0137C31.2912 65.9595 31.5821 65.9076 31.8173 65.7393C32.2889 65.3451 32.7537 65.2966 33.3287 65.5383C33.7322 65.6614 34.2549 65.614 34.664 65.4491C35.9481 65.0132 35.9493 64.9556 36.9755 65.84C37.6176 65.6221 38.2585 65.4617 38.9017 65.1862C39.4869 64.9095 39.9495 64.9761 40.4041 65.446C41.0303 66.0345 41.7792 66.2796 42.7088 66.1825C43.2895 66.1362 43.8656 66.3204 44.3861 66.3881C44.66 67.2002 44.1339 67.4205 43.7225 67.7006C42.7827 68.3161 41.785 68.9305 40.7861 69.6024C40.8862 70.4111 40.9885 71.1046 41.0897 71.8557C41.1386 72.3177 41.1295 72.7785 41.0625 73.2382C40.9751 74.7347 40.7398 74.903 39.1671 75.2757C34.5646 76.3959 29.8746 76.0738 25.2425 75.7528C24.2584 75.676 23.2208 75.3676 22.2992 75.0615C21.2628 74.6955 20.757 73.8789 20.8365 72.7855C20.8614 71.5183 20.4761 70.4735 19.976 69.3689C19.643 68.6133 19.543 67.8046 19.4429 66.9959C19.3406 66.3024 19.6349 66.0776 20.3315 66.0336C20.7963 65.985 21.26 65.9941 21.7236 66.0031C22.4191 66.0167 22.8294 65.7942 22.9032 64.9889C22.9077 64.7585 23.1441 64.5326 23.3248 64.1904C23.7237 64.544 24.0078 64.8376 24.293 65.0737C25.1465 65.8971 25.2045 65.8983 26.1465 65.1675C26.2068 65.0535 26.3818 64.9993 26.4397 65.0004ZM23.5275 71.5704C23.5195 71.9736 23.5161 72.1464 23.5127 72.3192C23.7015 74.5126 24.1015 74.8086 26.246 74.8504C28.1585 74.8878 30.1268 75.0415 32.0406 75.0212C33.8963 74.9999 35.7487 75.1513 37.6181 74.4387C37.5794 73.4583 37.5407 72.4779 37.5633 71.3259C32.8131 71.1178 28.2277 71.374 23.5275 71.5704ZM29.8911 66.3932C28.0763 67.2797 28.0763 67.2797 26.4114 66.4405C25.2864 67.6286 24.5647 66.001 23.4635 65.9795C23.2249 66.3206 22.8703 66.6594 22.6328 66.9429C21.7623 66.9835 21.0078 67.0264 20.3123 67.0128C20.2919 68.0497 20.451 68.8019 21.1374 69.2763C22.7057 69.1341 24.2148 69.0483 25.6683 68.8462C27.8775 68.5436 30.0776 68.7018 32.3391 68.6883C33.7301 68.7155 35.1176 68.9155 36.4484 69.0567C36.9836 68.3757 37.345 67.6912 38.2791 67.3637C37.9189 67.9906 37.6791 68.3893 37.4382 68.8456C37.495 68.9043 37.5518 68.963 37.6087 69.0218C38.0769 68.8004 38.5451 68.5791 39.0723 68.3012C39.0019 68.9337 39.344 69.2285 39.752 69.1213C40.3349 68.9598 40.8634 68.6243 41.3338 68.2878C41.8043 67.9512 42.4441 67.8485 42.5713 67.2747C41.8224 67.0296 41.0133 66.8985 40.4996 66.4851C39.6427 65.8345 38.8313 65.8187 37.9517 66.3201C37.0733 66.7639 36.3164 66.922 35.6391 65.9868C34.7038 66.3719 33.8265 66.7582 32.906 66.3944C32.6753 66.3323 32.3253 66.4407 32.0912 66.5514C31.2105 67.1104 30.5184 66.924 29.8911 66.3932ZM37.9736 71.1034C38.0646 72.3729 37.5805 73.4007 38.4863 74.5133C38.667 74.171 38.9613 73.9463 38.9658 73.7159C38.9873 72.6214 38.7157 71.6941 37.9736 71.1034ZM39.3613 74.2422C40.1965 73.0484 40.2169 72.0116 39.4793 71.1904C39.0544 72.1617 39.2681 73.0879 39.3613 74.2422ZM22.2071 73.8496C22.6388 72.5326 22.6388 72.5326 22.016 71.7713C22.1161 72.58 22.1616 73.2148 22.2071 73.8496ZM23.1878 74.0992C23.2458 74.1003 23.3049 74.0439 23.3628 74.045C23.2548 73.6395 23.1468 73.234 23.0389 72.8286C22.9809 72.8274 22.9218 72.8839 22.8639 72.8828C22.9718 73.2882 23.0798 73.6937 23.1878 74.0992Z" fill="black"/>
<path d="M47.9576 58.7365C48.3656 58.6292 48.7735 58.5219 49.1815 58.4146C49.2395 58.4157 49.3543 58.4756 49.5838 58.5954C49.4043 58.88 49.2804 59.2811 48.9884 59.3907C46.4644 60.9553 43.8268 62.4024 40.9175 62.922C36.3797 63.6979 31.7328 64.1259 27.0995 63.8625C24.7255 63.7008 22.4105 63.4827 20.1047 62.8036C17.5101 62.0612 14.919 61.146 12.4494 59.9449C11.8755 59.6455 11.8755 59.6455 11.8925 58.7813C12.8698 59.2038 13.7904 59.5677 14.7109 59.9315C17.7589 61.2015 20.8104 62.2986 24.1083 62.6512C28.5053 63.1406 32.8533 63.1679 37.215 62.5038C38.5525 62.2994 39.8901 62.0949 41.1698 61.8894C43.0892 61.581 44.8416 60.9236 46.3723 59.7431C46.9587 59.4087 47.4291 59.072 47.9576 58.7365Z" fill="black"/>
<path d="M53.0743 63.7938C54.5745 67.1075 54.4497 70.5047 54.3226 74.017C53.5703 73.9447 53.5203 73.5404 53.5294 73.0796C53.5475 72.158 53.6236 71.2376 53.5838 70.3149C53.4394 68.8139 53.237 67.3119 52.9187 65.8075C52.6527 64.5923 52.48 64.5313 51.3209 64.5087C48.7708 64.4589 46.2208 64.409 43.6707 64.3592C43.2071 64.3502 42.74 64.5139 42.3411 64.1604C43.1081 63.484 44.3286 63.3349 47.6889 63.4582C49.4844 63.5509 51.2788 63.7011 53.0743 63.7938Z" fill="black"/>
<path d="M20.4318 63.6153C20.1375 63.8401 19.9 64.1235 19.7261 64.1201C17.6909 64.4261 15.5988 64.6733 13.5636 64.9793C12.517 65.1317 11.5249 65.4581 10.4761 65.7257C9.83516 65.886 9.42041 66.3389 9.34999 66.9714C9.27277 67.9494 9.19442 68.985 9.17515 69.9642C9.14909 71.289 9.23894 72.616 9.32765 74.0006C8.51514 74.0424 8.4083 73.5793 8.36281 72.9446C8.31958 72.1947 8.27749 71.3872 8.29335 70.5808C8.32168 69.1408 8.11932 67.6388 8.55334 66.2067C8.79989 65.4625 9.09987 64.9498 9.91351 64.8504C11.484 64.593 13.1124 64.3367 14.684 64.0216C16.0226 63.7597 17.4192 63.4989 18.7579 63.2369C19.2806 63.1895 19.7465 63.0834 20.4318 63.6153Z" fill="black"/>
<path d="M35.1088 1.27402C34.6975 1.55407 34.2271 1.89059 33.8158 2.17065C32.1716 3.23327 30.6979 4.47208 29.4514 5.9458C29.3333 6.05873 29.2151 6.17165 29.1549 6.28571C27.6676 8.21567 28.1676 9.32017 30.1266 9.93461C30.4141 10.0555 30.7016 10.1763 30.988 10.3548C32.0766 11.0098 32.3971 12.3989 31.6813 13.422C31.2029 14.1617 29.0293 15.6173 27.8066 15.8815C27.9861 15.597 28.0498 15.3101 28.2259 15.1983C28.6963 14.8618 29.2247 14.5264 29.6951 14.1899C30.1064 13.9098 30.5177 13.6298 30.8734 13.2334C31.6437 12.3842 31.3766 11.2266 30.3437 10.6879C29.7698 10.3886 29.1358 10.2033 28.5619 9.90405C27.3563 9.30432 27.0267 8.376 27.63 7.17781C27.8709 6.72158 28.1118 6.26534 28.4663 5.92656C29.9468 4.34218 31.4273 2.75779 33.4737 1.87588C34.0578 1.65681 34.4691 1.37676 34.9963 1.09897C34.9952 1.15656 35.052 1.21529 35.1088 1.27402Z" fill="#F15748"/>
<path d="M22.0642 4.12915C21.9437 4.35727 21.9415 4.47247 21.8835 4.47133C19.7837 5.12174 18.7054 6.88683 17.6283 8.59433C16.7909 9.90319 16.9511 10.5977 18.3875 11.2596C19.3068 11.6809 20.2886 11.8729 21.2681 12.1801C21.7294 12.3044 22.309 12.3157 22.7112 12.4964C23.5157 12.8578 23.7351 13.4959 23.3136 14.2943C22.833 15.1492 22.1807 15.8855 21.007 16.6116C21.1331 16.0955 21.0808 15.8064 21.2001 15.6359C21.616 15.1254 22.0886 14.6737 22.4465 14.1621C22.8045 13.6506 22.6954 13.3027 22.1783 13.0622C21.8908 12.9413 21.5442 12.8769 21.2556 12.8137C19.8079 12.7278 18.4852 12.1834 17.2841 11.3533C16.3682 10.7592 16.0909 10.12 16.5158 9.14878C17.3009 7.55082 18.3735 6.0737 19.6734 4.83149C20.2631 4.32445 21.0233 3.99359 22.0642 4.12915Z" fill="#F15748"/>
<path d="M43.191 3.04643C41.8423 3.82673 40.7209 4.84193 39.6551 5.97346C39.4176 6.25691 39.1222 6.53923 38.9427 6.82381C37.6952 8.35511 37.9088 9.28116 39.6303 10.179C39.8019 10.2976 40.0326 10.3598 40.2621 10.4795C41.7518 11.3728 42.0644 13.1651 40.9362 14.5258C40.1056 15.4891 38.9944 15.986 37.6457 16.7663C37.8286 16.3089 37.8342 16.0209 37.9524 15.908C38.4819 15.515 39.0102 15.1796 39.5965 14.8454C41.4156 13.7286 41.3905 12.0572 39.5577 10.9266C39.2145 10.6895 38.8122 10.5088 38.4679 10.3292C37.151 9.49683 36.8805 8.51205 37.7178 7.20321C38.6745 5.72384 40.0277 4.71316 41.4378 3.76121C41.9116 3.25191 42.4399 2.91652 43.191 3.04643Z" fill="#F15748"/>
<path d="M12.6771 51.1925C12.7658 52.5771 12.8534 54.0192 12.9364 55.6917C13.2966 55.065 13.5352 54.7239 13.8351 54.2112C14.5147 55.0312 14.3806 55.9504 14.5386 56.7601C14.6443 57.2808 14.7534 57.6286 15.3886 57.7562C15.2068 58.156 15.0273 58.4406 14.8467 58.7828C14.6751 58.6642 14.5024 58.6032 14.4467 58.4869C14.341 57.9663 14.2364 57.388 14.1307 56.8674C14.0239 56.4044 13.9761 55.8849 13.7534 55.4196C13.2115 56.4461 13.4206 57.6026 13.0514 58.6901C12.6365 56.2044 12.3375 53.721 12.6771 51.1925Z" fill="black"/>
<path d="M46.0885 59.222C46.0338 56.1096 45.9213 52.9961 45.8666 49.8838C45.9245 49.8849 46.0414 49.8296 46.0993 49.8307C46.2117 50.0057 46.3809 50.2395 46.3775 50.4123C46.3628 51.161 46.3492 51.8522 46.3345 52.6009C46.2915 54.7895 46.2485 56.9781 46.2043 59.2242C46.1475 59.1655 46.0885 59.222 46.0885 59.222Z" fill="black"/>
<path d="M44.8712 53.2621C45.0111 54.9934 45.2077 56.7833 45.3475 58.5145C44.6283 56.772 44.4885 55.0408 44.8712 53.2621Z" fill="black"/>
<path d="M23.7059 29.8014C23.2377 30.0227 22.7696 30.2441 22.3593 30.4665C22.2844 31.3294 23.0435 31.0561 23.3242 31.5225C23.0901 31.6332 22.8549 31.8015 22.5617 31.9686C22.7299 32.26 22.9561 32.5525 23.2368 33.0189C22.0765 33.0539 21.0913 33.0347 20.2288 32.6721C20.231 32.5569 20.2322 32.4993 20.2344 32.3841C20.756 32.3943 21.2765 32.4621 21.797 32.5299C21.856 32.4734 21.9163 32.3593 21.9174 32.3017C21.3446 31.9448 20.7151 31.5292 20.1423 31.1723C20.2014 31.1158 20.2037 31.0006 20.2628 30.9442C20.7253 31.0108 21.1309 31.0187 21.5935 31.0854C21.7184 30.6269 21.7832 30.2824 21.9082 29.8239C22.49 29.72 23.0718 29.6161 23.6525 29.5699C23.6514 29.6275 23.6502 29.6851 23.7059 29.8014Z" fill="black"/>
<path d="M35.735 31.2478C36.1464 30.9677 36.5554 30.8029 36.9077 30.5793C37.2464 31.0468 37.2384 31.45 36.8271 31.73C36.3578 32.009 36.0157 31.7142 35.735 31.2478Z" fill="black"/>
</svg>
