<svg width="60" height="77" viewBox="0 0 60 77" fill="none" xmlns="http://www.w3.org/2000/svg">
<path d="M57.8901 49.9993C57.5411 52.2778 57.1485 54.7398 56.7995 57.2126C56.3633 60.3226 54.5967 62.7954 52.6337 65.0306C50.2891 67.7086 47.5628 69.9763 44.2476 71.6176C39.4165 74.0149 34.2801 74.9651 29.0456 75.2243C21.9026 75.5698 15.5339 73.3778 9.85225 68.8749C5.77367 65.6461 3.64714 61.316 1.55332 56.8671C1.19345 56.1112 1.01896 55.161 1.0953 54.3295C1.36793 51.2627 1.25888 48.0124 2.28398 45.1941C3.61442 41.5442 4.67224 37.7648 6.89692 34.3741C9.28518 30.7567 12.0551 27.6468 15.5993 25.2495C18.6746 23.1655 22.088 21.7509 25.883 21.5025C26.461 21.4701 27.0499 21.4485 27.6279 21.3513C36.5811 19.8396 43.7568 23.4138 50.1473 29.1153C53.9315 32.4844 55.5673 37.0629 56.7559 41.7494C57.4321 44.341 57.5193 47.073 57.8901 49.9993ZM55.8617 49.7834C56.0689 42.894 54.1605 36.5554 49.4385 31.2426C45.1636 26.4266 39.6455 23.4138 33.2659 22.8955C27.2353 22.4096 21.5536 24.1913 16.6681 28.0571C10.9428 32.5816 7.10412 38.4883 4.53047 45.0753C3.38541 48.0124 2.92739 51.6299 3.48356 54.7074C4.93396 62.655 10.0267 68.2054 17.486 71.2181C25.8285 74.5764 34.2474 74.0041 42.3937 70.257C51.0852 66.2509 56.1889 59.8258 55.8617 49.7834Z" fill="#EB584A"/>
<path d="M10.877 54.3245C11.0283 55.4798 11.2932 56.7526 12.0285 57.6889C13.0469 58.9764 14.7754 59.5288 16.3914 59.9061C21.2941 61.212 26.1967 62.5179 31.2333 62.9045C36.27 63.2911 41.4974 62.8172 46.0611 60.717C46.8213 60.3862 47.5838 59.9402 47.9474 59.1407C48.1894 58.6268 48.2018 57.9933 48.2132 57.4173C48.2375 50.2732 48.088 43.1257 47.7066 35.9736C47.6667 35.0509 47.6269 34.1283 47.2961 33.2575C46.6902 31.6324 45.2628 30.5097 43.8308 29.6174C38.561 26.3453 32.0924 25.0664 25.9853 26.0417C21.3318 26.8149 12.751 29.7584 10.915 34.6776C10.0015 36.9068 10.3393 40.3705 10.2373 42.6156C10.0445 46.5298 10.2573 50.452 10.877 54.3245Z" fill="white"/>
<path d="M10.2777 52.1238C10.3427 54.7178 10.4054 57.427 11.8113 59.6439C12.8521 59.7795 13.8942 59.8576 14.935 59.9932C15.3396 60.0587 15.8032 60.0678 16.2123 59.9029C16.5634 59.7369 16.8031 59.3383 16.9258 58.995C17.3518 57.9663 17.2597 56.7545 17.1073 55.6568C16.5968 52.1322 15.3272 48.8809 14.1758 45.5166C13.5711 43.8339 13.0244 42.1523 12.5947 40.4155C12.2752 38.9688 12.4341 36.7825 11.5863 35.6712C9.40728 40.3531 10.1454 47.051 10.2777 52.1238Z" fill="#BCBCBB"/>
<path d="M40.3818 33.8744C39.0431 34.1363 37.4748 34.2784 36.5667 33.2811C35.9428 32.5775 35.962 31.5984 35.8642 30.6746C35.7197 29.1736 35.2275 27.6659 34.558 26.3276C36.8195 26.3142 39.1389 26.302 41.2096 27.1492C42.6472 27.7535 46.2647 29.5528 46.0535 31.4501C45.8366 33.6354 41.9523 33.617 40.3818 33.8744Z" fill="#BCBCBB"/>
<path d="M38.3701 74.2803C38.953 74.1189 39.536 73.9574 39.9508 73.5046C40.4848 72.8812 40.3882 71.8998 40.6358 71.0979C41.0709 69.6083 42.5391 68.6575 43.089 67.2277C43.1504 67.0561 43.2129 66.8268 43.1594 66.5953C43.0503 66.2474 42.7071 66.0102 42.3616 65.8882C38.1612 64.2503 33.4883 66.0027 28.9687 65.8567C26.3037 65.7469 22.6124 64.7528 20.3682 66.8408C18.5966 68.4771 18.5412 71.2994 20.1892 73.0027C24.0546 76.9389 33.6517 75.398 38.3701 74.2803Z" fill="white"/>
<path d="M47.9538 58.6808C47.2629 58.4368 47.272 57.976 47.3424 57.3435C47.541 53.141 47.7408 48.8809 47.9394 44.6784C48.0291 43.0668 48.0029 41.4528 48.0369 39.7249C47.3391 39.8265 46.8153 39.9315 46.3493 40.0376C42.0947 41.1646 37.8424 42.1764 33.4297 42.4935C30.5262 42.7249 27.6273 42.7259 24.6704 42.7258C20.6123 42.7042 16.6178 42.3957 12.6937 41.4547C12.3471 41.3903 11.9994 41.3835 11.4789 41.3157C11.4495 42.8133 11.3064 44.1935 11.3371 45.577C11.41 47.768 11.484 49.9015 11.6159 52.0361C11.6989 53.7087 11.8968 55.4412 12.0378 57.115C12.0833 57.7497 12.1299 58.3269 11.3697 58.6577C10.8549 58.302 10.6332 57.779 10.5877 57.1443C10.4683 54.3761 10.4067 51.6091 10.2861 48.8985C10.1087 46.1292 9.87444 43.3012 9.64131 40.4155C7.84693 40.2652 6.16732 40.1748 4.48885 40.0268C4.08428 39.9613 3.67859 39.9533 3.27516 39.8302C1.48757 39.3343 1.26028 39.0994 0.777196 37.1308C2.37942 35.2606 4.48512 34.3222 6.97838 34.3132C7.26816 34.3189 7.55908 34.267 7.79091 34.2715C9.63985 34.5957 10.8785 33.5251 11.8875 32.3347C13.5477 30.4656 15.3761 28.8879 17.6568 27.8953C18.7682 27.3984 19.9932 27.019 21.1602 26.6384C21.9193 26.3651 22.3341 25.9123 22.6954 25.2279C24.0772 22.7771 25.743 20.62 28.7158 19.8138C30.2897 19.3835 31.9113 19.4728 33.3489 20.0771C34.5558 20.6193 35.5218 21.6177 35.9583 23.0092C36.1754 23.7625 36.3925 24.5158 36.6073 25.3843C38.9244 25.4872 41.1075 26.5094 43.1747 27.5293C45.3009 28.4928 47.3056 29.742 48.7171 31.6711C48.4762 32.1274 48.1808 32.4097 48.1149 32.8118C47.9899 33.2703 47.7558 33.381 47.3479 33.4883C46.7069 33.6486 46.1217 33.9253 45.5376 34.1444C44.6035 34.4719 44.4853 34.5848 44.582 35.5662C44.673 36.8357 44.8799 38.1074 45.0299 39.3204C45.2606 39.3825 45.3175 39.4413 45.4334 39.4435C48.5209 38.6971 47.8687 39.4335 48.4003 35.9865C48.4026 35.8713 48.406 35.6986 48.4082 35.5834C48.4468 33.625 48.6241 33.4556 50.5468 32.9745C52.7605 32.4415 54.9583 32.7149 57.0891 33.448C58.7017 33.9981 58.9052 35.4426 57.6086 36.5121C57.2552 36.7933 56.8438 37.0734 56.4359 37.1807C54.3949 37.7747 52.4086 38.5426 50.2596 38.7311C49.7948 38.7796 49.3857 38.9445 48.9187 39.1082C48.8415 40.0863 48.7086 40.948 48.6916 41.812C48.4816 46.5905 48.3296 51.3702 48.1776 56.1498C48.1004 57.1279 47.9686 57.932 47.9538 58.6808ZM34.4993 26.438C33.98 26.3126 33.5186 26.1883 33.0583 26.0065C32.1958 25.6439 31.2696 25.5682 30.3412 25.6077C28.7741 25.6923 27.2604 26.0085 25.6888 26.3235C24.932 26.4816 24.2365 26.468 23.9286 27.3839C23.8672 27.5556 23.6308 27.7815 23.4558 27.8357C22.5229 28.1056 21.5865 28.5483 20.4921 28.1812C20.0319 27.9993 19.3319 28.2161 18.7489 28.3776C18.283 28.4837 17.8716 28.7638 17.4625 28.9287C15.3546 29.9823 13.5853 31.5036 12.0399 33.4325C12.4433 33.5556 12.7308 33.6765 13.0195 33.7398C15.0445 33.9522 17.0696 34.1646 19.0958 34.3194C20.2538 34.3997 21.4107 34.5375 22.571 34.5025C26.6881 34.4677 30.8053 34.4329 34.9236 34.3404C35.8521 34.3009 36.7816 34.2038 37.7112 34.1068C38.6999 33.9532 39.7465 33.8008 40.7363 33.5896C42.7159 33.1673 44.6966 32.6874 46.6785 32.1499C46.9114 32.0968 47.1466 31.9285 47.3819 31.7603C46.5476 29.9577 42.0178 27.3915 38.9529 26.9859C38.8938 27.0424 38.8336 27.1565 38.7154 27.2694C38.0018 28.1774 37.7688 28.2305 36.7324 27.8645C36.4449 27.7436 36.1585 27.5652 35.8108 27.5584C34.9994 27.5425 34.5425 27.1879 34.4993 26.438ZM14.5446 35.7863C14.2765 37.625 14.5346 39.2434 14.9643 40.9805C17.9132 41.3838 20.744 41.9 23.7021 41.8426C25.2101 41.8144 26.6567 41.9579 28.1647 41.9297C30.4262 41.9163 32.6865 41.9604 34.9525 41.7166C37.3343 41.475 39.723 40.8878 42.0504 40.4723C42.5742 40.3673 43.1004 40.147 43.5674 39.9833C43.5423 38.3118 43.34 36.8097 42.9649 35.2466C42.441 35.3516 42.0342 35.4012 41.6262 35.5085C37.6704 36.1803 33.6601 36.6782 29.6043 36.5414C25.4893 36.461 21.3801 36.0927 17.2686 35.8395C16.4004 35.7649 15.5299 35.8056 14.5446 35.7863ZM33.8822 25.3887C34.239 24.9347 34.1299 24.5869 33.7287 24.3485C33.2139 23.9927 32.7559 23.6957 32.2411 23.3399C30.5819 22.2127 28.9569 22.2962 27.3682 23.4752C26.4864 24.0918 25.6614 24.7672 25.0024 25.8491C28.0877 25.2179 30.9468 24.2942 33.8822 25.3887ZM49.147 36.3469C51.6357 36.5683 55.4835 35.491 56.2607 34.2962C54.705 33.8048 53.1458 33.4863 51.5196 33.6274C49.3718 33.7583 49.1332 34.0993 49.147 36.3469ZM14.4426 40.9703C14.3062 39.0661 14.1072 37.3912 13.9673 35.6598C13.7946 35.5988 13.5059 35.5355 13.1593 35.4711C12.8958 37.0794 13.4459 38.5883 13.2426 40.0825C13.0743 39.7911 13.0221 39.502 12.9698 39.2129C12.8754 38.1162 12.723 37.0184 12.5707 35.9206C12.4673 35.2848 12.1854 34.8759 11.4843 35.1503C11.4525 36.7631 11.4208 38.3759 11.3868 40.1039C12.4244 40.4123 13.3471 40.6608 14.4426 40.9703ZM4.15681 36.2749C5.40692 37.567 7.88772 38.1917 9.69231 37.8235C9.7059 37.1324 9.77746 36.4423 9.85015 35.6946C7.83187 35.1366 6.08637 35.4483 4.15681 36.2749ZM43.9743 39.9336C44.3856 39.6536 44.5606 39.5993 44.5617 39.5417C44.4185 37.9832 44.2763 36.367 44.1387 34.5204C43.8421 34.8603 43.4899 35.0839 43.5456 35.2003C43.6309 36.7577 43.7764 38.2011 43.9743 39.9336ZM56.0438 36.4816C57.504 35.9339 57.504 35.9339 57.2892 35.0653C56.9335 35.4617 56.5779 35.8582 56.0438 36.4816ZM3.06486 38.7313C3.12395 38.6748 3.12622 38.5596 3.18531 38.5032C3.01484 38.327 2.84437 38.1508 2.61481 38.0311C2.50003 37.9712 2.32389 38.083 2.20571 38.1959C2.14662 38.2524 2.20005 38.4839 2.31483 38.5438C2.54552 38.6059 2.77621 38.668 3.06486 38.7313Z" fill="black"/>
<path d="M26.4396 65.0004C27.0669 65.5313 27.5806 65.9447 28.1511 66.4168C28.9148 65.9131 29.5023 65.5212 30.2068 65.074C30.491 65.3676 30.7751 65.6613 31.116 66.0137C31.291 65.9595 31.5819 65.9076 31.8172 65.7393C32.2888 65.3451 32.7536 65.2966 33.3286 65.5383C33.732 65.6614 34.2548 65.614 34.6639 65.4491C35.948 65.0132 35.9491 64.9556 36.9754 65.84C37.6174 65.6221 38.2584 65.4617 38.9016 65.1862C39.4868 64.9095 39.9493 64.9761 40.4039 65.446C41.0301 66.0345 41.7791 66.2796 42.7086 66.1825C43.2893 66.1362 43.8655 66.3204 44.386 66.3881C44.6599 67.2002 44.1338 67.4205 43.7224 67.7006C42.7826 68.3161 41.7849 68.9305 40.786 69.6024C40.8861 70.4111 40.9884 71.1046 41.0896 71.8557C41.1385 72.3177 41.1294 72.7785 41.0624 73.2382C40.9749 74.7347 40.7397 74.903 39.1669 75.2757C34.5645 76.3959 29.8745 76.0738 25.2424 75.7528C24.2583 75.676 23.2207 75.3676 22.2991 75.0615C21.2626 74.6955 20.7569 73.8789 20.8364 72.7855C20.8613 71.5183 20.476 70.4735 19.9759 69.3689C19.6429 68.6133 19.5428 67.8046 19.4428 66.9959C19.3405 66.3024 19.6348 66.0776 20.3314 66.0336C20.7962 65.985 21.2599 65.9941 21.7235 66.0031C22.419 66.0167 22.8292 65.7942 22.9031 64.9889C22.9076 64.7585 23.144 64.5326 23.3246 64.1904C23.7235 64.544 24.0077 64.8376 24.2929 65.0737C25.1464 65.8971 25.2044 65.8983 26.1464 65.1675C26.2066 65.0535 26.3816 64.9993 26.4396 65.0004ZM23.5273 71.5704C23.5194 71.9736 23.516 72.1464 23.5126 72.3192C23.7014 74.5126 24.1014 74.8086 26.2458 74.8504C28.1584 74.8878 30.1267 75.0415 32.0404 75.0212C33.8962 74.9999 35.7486 75.1513 37.6179 74.4387C37.5793 73.4583 37.5406 72.4779 37.5632 71.3259C32.813 71.1178 28.2275 71.374 23.5273 71.5704ZM29.891 66.3932C28.0762 67.2797 28.0762 67.2797 26.4113 66.4405C25.2863 67.6286 24.5646 66.001 23.4634 65.9795C23.2248 66.3206 22.8702 66.6594 22.6327 66.9429C21.7622 66.9835 21.0076 67.0264 20.3122 67.0128C20.2918 68.0497 20.4509 68.8019 21.1373 69.2763C22.7056 69.1341 24.2147 69.0483 25.6682 68.8462C27.8774 68.5436 30.0775 68.7018 32.339 68.6883C33.7299 68.7155 35.1175 68.9155 36.4483 69.0567C36.9835 68.3757 37.3448 67.6912 38.2789 67.3637C37.9187 67.9906 37.679 68.3893 37.4381 68.8456C37.4949 68.9043 37.5517 68.963 37.6085 69.0218C38.0767 68.8004 38.5449 68.5791 39.0722 68.3012C39.0018 68.9337 39.3439 69.2285 39.7518 69.1213C40.3348 68.9598 40.8632 68.6243 41.3337 68.2878C41.8041 67.9512 42.4439 67.8485 42.5712 67.2747C41.8223 67.0296 41.0131 66.8985 40.4995 66.4851C39.6426 65.8345 38.8312 65.8187 37.9516 66.3201C37.0732 66.7639 36.3163 66.922 35.639 65.9868C34.7037 66.3719 33.8264 66.7582 32.9059 66.3944C32.6752 66.3323 32.3252 66.4407 32.0911 66.5514C31.2104 67.1104 30.5183 66.924 29.891 66.3932ZM37.9735 71.1034C38.0644 72.3729 37.5804 73.4007 38.4862 74.5133C38.6668 74.171 38.9612 73.9463 38.9657 73.7159C38.9872 72.6214 38.7156 71.6941 37.9735 71.1034ZM39.3612 74.2422C40.1964 73.0484 40.2168 72.0116 39.4792 71.1904C39.0543 72.1617 39.268 73.0879 39.3612 74.2422ZM22.2069 73.8496C22.6387 72.5326 22.6387 72.5326 22.0159 71.7713C22.116 72.58 22.1615 73.2148 22.2069 73.8496ZM23.1877 74.0992C23.2456 74.1003 23.3047 74.0439 23.3627 74.045C23.2547 73.6395 23.1467 73.234 23.0387 72.8286C22.9808 72.8274 22.9217 72.8839 22.8637 72.8828C22.9717 73.2882 23.0797 73.6937 23.1877 74.0992Z" fill="black"/>
<path d="M47.9574 58.7365C48.3654 58.6292 48.7733 58.5219 49.1813 58.4146C49.2393 58.4157 49.3541 58.4756 49.5836 58.5954C49.4041 58.88 49.2802 59.2811 48.9882 59.3907C46.4642 60.9553 43.8266 62.4024 40.9173 62.922C36.3796 63.6979 31.7327 64.1259 27.0994 63.8625C24.7253 63.7008 22.4104 63.4827 20.1045 62.8036C17.5099 62.0612 14.9188 61.146 12.4492 59.9449C11.8753 59.6455 11.8753 59.6455 11.8923 58.7813C12.8697 59.2038 13.7902 59.5677 14.7107 59.9315C17.7588 61.2015 20.8102 62.2986 24.1082 62.6512C28.5051 63.1406 32.8531 63.1679 37.2148 62.5038C38.5524 62.2994 39.8899 62.0949 41.1696 61.8894C43.089 61.581 44.8414 60.9236 46.3721 59.7431C46.9585 59.4087 47.429 59.072 47.9574 58.7365Z" fill="black"/>
<path d="M53.074 63.7938C54.5743 67.1075 54.4494 70.5047 54.3224 74.017C53.5701 73.9447 53.5201 73.5404 53.5291 73.0796C53.5473 72.158 53.6233 71.2376 53.5835 70.3149C53.4391 68.8139 53.2367 67.3119 52.9185 65.8075C52.6525 64.5923 52.4798 64.5313 51.3206 64.5087C48.7706 64.4589 46.2205 64.409 43.6705 64.3592C43.2068 64.3502 42.7398 64.5139 42.3409 64.1604C43.1079 63.484 44.3284 63.3349 47.6887 63.4582C49.4842 63.5509 51.2785 63.7011 53.074 63.7938Z" fill="black"/>
<path d="M20.4316 63.6153C20.1373 63.8401 19.8998 64.1235 19.726 64.1201C17.6907 64.4261 15.5986 64.6733 13.5634 64.9793C12.5168 65.1317 11.5248 65.4581 10.4759 65.7257C9.83498 65.886 9.42022 66.3389 9.3498 66.9714C9.27258 67.9494 9.19423 68.985 9.17497 69.9642C9.14891 71.289 9.23876 72.616 9.32747 74.0006C8.51496 74.0424 8.40811 73.5793 8.36262 72.9446C8.3194 72.1947 8.27731 71.3872 8.29317 70.5808C8.3215 69.1408 8.11914 67.6388 8.55316 66.2067C8.79971 65.4625 9.09969 64.9498 9.91333 64.8504C11.4838 64.593 13.1122 64.3367 14.6838 64.0216C16.0225 63.7597 17.4191 63.4989 18.7577 63.2369C19.2804 63.1895 19.7464 63.0834 20.4316 63.6153Z" fill="black"/>
<path d="M35.1086 1.27402C34.6973 1.55407 34.2269 1.89059 33.8156 2.17065C32.1714 3.23327 30.6977 4.47208 29.4512 5.9458C29.3331 6.05873 29.2149 6.17165 29.1547 6.28571C27.6674 8.21567 28.1674 9.32017 30.1264 9.93461C30.4139 10.0555 30.7014 10.1763 30.9878 10.3548C32.0764 11.0098 32.3969 12.3989 31.6811 13.422C31.2027 14.1617 29.0291 15.6173 27.8064 15.8815C27.986 15.597 28.0496 15.3101 28.2257 15.1983C28.6961 14.8618 29.2245 14.5264 29.6949 14.1899C30.1062 13.9098 30.5175 13.6298 30.8732 13.2334C31.6435 12.3842 31.3764 11.2266 30.3435 10.6879C29.7697 10.3886 29.1356 10.2033 28.5617 9.90405C27.3561 9.30432 27.0265 8.376 27.6298 7.17781C27.8707 6.72158 28.1116 6.26534 28.4661 5.92656C29.9466 4.34218 31.4271 2.75779 33.4735 1.87588C34.0576 1.65681 34.4689 1.37676 34.9961 1.09897C34.995 1.15656 35.0518 1.21529 35.1086 1.27402Z" fill="#F15748"/>
<path d="M22.064 4.12915C21.9436 4.35727 21.9413 4.47247 21.8833 4.47133C19.7835 5.12174 18.7052 6.88683 17.6281 8.59433C16.7907 9.90319 16.9509 10.5977 18.3873 11.2596C19.3066 11.6809 20.2884 11.8729 21.2679 12.1801C21.7292 12.3044 22.3088 12.3157 22.711 12.4964C23.5156 12.8578 23.7349 13.4959 23.3134 14.2943C22.8328 15.1492 22.1806 15.8855 21.0068 16.6116C21.1329 16.0955 21.0806 15.8064 21.1999 15.6359C21.6158 15.1254 22.0885 14.6737 22.4464 14.1621C22.8043 13.6506 22.6952 13.3027 22.1781 13.0622C21.8906 12.9413 21.5441 12.8769 21.2554 12.8137C19.8078 12.7278 18.4851 12.1834 17.2839 11.3533C16.368 10.7592 16.0907 10.12 16.5157 9.14878C17.3008 7.55082 18.3734 6.0737 19.6732 4.83149C20.263 4.32445 21.0231 3.99359 22.064 4.12915Z" fill="#F15748"/>
<path d="M43.191 3.04643C41.8423 3.82673 40.7209 4.84193 39.6551 5.97346C39.4176 6.25691 39.1222 6.53923 38.9427 6.82381C37.6952 8.35511 37.9088 9.28116 39.6303 10.179C39.8019 10.2976 40.0326 10.3598 40.2621 10.4795C41.7518 11.3728 42.0644 13.1651 40.9362 14.5258C40.1056 15.4891 38.9944 15.986 37.6457 16.7663C37.8286 16.3089 37.8342 16.0209 37.9524 15.908C38.4819 15.515 39.0102 15.1796 39.5965 14.8454C41.4156 13.7286 41.3905 12.0572 39.5577 10.9266C39.2145 10.6895 38.8122 10.5088 38.4679 10.3292C37.151 9.49683 36.8805 8.51205 37.7178 7.20321C38.6745 5.72384 40.0277 4.71316 41.4378 3.76121C41.9116 3.25191 42.4399 2.91652 43.191 3.04643Z" fill="#F15748"/>
<path d="M12.677 51.1925C12.7657 52.5771 12.8533 54.0192 12.9363 55.6917C13.2965 55.065 13.5351 54.7239 13.835 54.2112C14.5146 55.0312 14.3805 55.9504 14.5385 56.7601C14.6442 57.2808 14.7533 57.6286 15.3885 57.7562C15.2067 58.156 15.0272 58.4406 14.8466 58.7828C14.675 58.6642 14.5023 58.6032 14.4466 58.4869C14.3409 57.9663 14.2363 57.388 14.1306 56.8674C14.0238 56.4044 13.976 55.8849 13.7533 55.4196C13.2113 56.4461 13.4205 57.6026 13.0513 58.6901C12.6364 56.2044 12.3374 53.721 12.677 51.1925Z" fill="black"/>
<path d="M46.0884 59.222C46.0338 56.1096 45.9212 52.9961 45.8665 49.8838C45.9244 49.8849 46.0414 49.8296 46.0993 49.8307C46.2117 50.0057 46.3809 50.2395 46.3775 50.4123C46.3627 51.161 46.3492 51.8522 46.3344 52.6009C46.2914 54.7895 46.2484 56.9781 46.2042 59.2242C46.1475 59.1655 46.0884 59.222 46.0884 59.222Z" fill="black"/>
<path d="M44.8712 53.2621C45.011 54.9934 45.2076 56.7833 45.3474 58.5145C44.6283 56.772 44.4885 55.0408 44.8712 53.2621Z" fill="black"/>
<path d="M23.7058 29.8014C23.2376 30.0227 22.7694 30.2441 22.3592 30.4665C22.2843 31.3294 23.0433 31.0561 23.3241 31.5225C23.09 31.6332 22.8548 31.8015 22.5616 31.9686C22.7298 32.26 22.9559 32.5525 23.2366 33.0189C22.0764 33.0539 21.0912 33.0347 20.2286 32.6721C20.2309 32.5569 20.232 32.4993 20.2343 32.3841C20.7559 32.3943 21.2764 32.4621 21.7968 32.5299C21.8559 32.4734 21.9161 32.3593 21.9173 32.3017C21.3445 31.9448 20.7149 31.5292 20.1422 31.1723C20.2013 31.1158 20.2035 31.0006 20.2626 30.9442C20.7251 31.0108 21.1308 31.0187 21.5933 31.0854C21.7183 30.6269 21.7831 30.2824 21.908 29.8239C22.4899 29.72 23.0717 29.6161 23.6524 29.5699C23.6512 29.6275 23.6501 29.6851 23.7058 29.8014Z" fill="black"/>
<path d="M35.7349 31.2478C36.1463 30.9677 36.5554 30.8029 36.9076 30.5793C37.2463 31.0468 37.2384 31.45 36.827 31.73C36.3577 32.009 36.0157 31.7142 35.7349 31.2478Z" fill="black"/>
</svg>
