<svg width="56" height="83" viewBox="0 0 56 83" fill="none" xmlns="http://www.w3.org/2000/svg">
<path d="M56 50.0807C55.656 52.3488 55.269 54.7996 54.9251 57.2612C54.4951 60.357 52.7537 62.8186 50.8188 65.0437C48.5077 67.7096 45.8204 69.9669 42.5526 71.6008C37.7906 73.9872 32.7277 74.9331 27.568 75.1911C20.5272 75.5351 14.2495 73.353 8.64913 68.8705C4.62888 65.6565 2.53276 61.346 0.468883 56.9172C0.114154 56.1648 -0.0578355 55.2188 0.0174099 54.3911C0.286144 51.3383 0.17865 48.1028 1.18909 45.2972C2.50051 41.6639 3.5432 37.9016 5.73606 34.5264C8.09017 30.9253 10.8205 27.8295 14.314 25.4432C17.3454 23.3685 20.7099 21.9604 24.4507 21.7131C25.0204 21.6809 25.6009 21.6594 26.1706 21.5626C34.9958 20.0577 42.0689 23.6158 48.368 29.2914C52.098 32.6452 53.7104 37.2029 54.8821 41.8682C55.5378 44.448 55.6238 47.1676 56 50.0807ZM53.9899 49.8657C54.1941 43.0076 52.313 36.6977 47.6585 31.409C43.4448 26.6148 38.0056 23.6158 31.7172 23.0998C25.7728 22.6161 20.1724 24.3897 15.3567 28.238C9.71332 32.742 5.92955 38.6219 3.3927 45.179C2.26402 48.1028 1.81255 51.7038 2.37152 54.7674C3.80118 62.6789 8.82112 68.2041 16.1737 71.2031C24.3969 74.5462 32.6954 73.9765 40.7252 70.2464C49.2924 66.2584 54.3231 59.8626 53.9899 49.8657Z" fill="#EB584A"/>
<path d="M33.0528 46.6304C31.9886 45.8135 30.6987 45.362 29.4303 44.932C28.6456 44.6633 27.6781 44.4161 27.0439 44.9535C26.7214 45.2223 26.5602 45.6415 26.4204 46.0285C25.625 48.1568 24.8403 50.296 24.0448 52.4243C23.4644 55.4449 21.9917 58.186 21.5187 61.2495C21.25 63.0017 21.1425 64.7646 20.8308 66.506C20.5083 68.3011 20.1751 70.107 19.8848 71.9129C19.8633 72.0419 19.8203 72.1601 19.7773 72.2784C19.7881 73.751 20.0246 75.1592 21.1963 74.7077C22.5614 74.181 24.6468 68.7096 25.4208 67.3552C28.2263 62.4427 31.0319 57.5195 33.8375 52.6071C34.2997 51.8116 34.7619 50.9732 34.8264 50.0487C34.9232 48.7265 34.117 47.4474 33.0528 46.6304Z" fill="white"/>
<path d="M30.5693 24.7334C30.6015 24.3034 30.7413 23.7874 31.1605 23.7122C31.4077 23.6692 31.6765 23.8089 31.9237 23.7337C32.1924 23.6369 32.2999 23.3145 32.3429 23.0242C32.6869 21.1001 32.6009 19.133 32.5257 17.1766C32.3967 14.0378 32.2677 10.9097 32.1279 7.7709C33.0201 8.31911 34.1918 8.20087 35.127 7.7279C36.0622 7.25493 36.7932 6.48098 37.5134 5.71777C36.7932 10.5335 36.5674 15.4244 36.8362 20.2939C40.3082 16.4671 41.6519 11.2214 42.8773 6.20149C44.1027 6.49173 45.4141 6.44873 46.6181 6.0725C43.9522 11.8664 41.2864 17.671 38.6313 23.4649C41.6626 22.0568 44.8014 20.8851 48.0262 19.9929C48.4562 20.6594 48.2627 21.5838 47.779 22.2288C47.2953 22.863 46.5966 23.2822 45.9193 23.7122C41.3939 26.593 37.5671 30.5488 34.783 35.1387C34.4498 35.6869 33.6973 37.7831 33.0524 37.5681C32.3967 37.3531 32.1602 34.5368 32.0419 34.0316C31.3325 30.968 30.3543 27.9044 30.5693 24.7334Z" fill="white"/>
<path d="M22.7322 62.4422C21.3993 67.9459 20.0664 73.557 20.4104 79.2112C21.3133 76.7926 21.496 74.1698 21.9905 71.6437C23.4094 64.4416 27.4727 57.992 28.5369 50.7039C29.0636 47.0599 27.0105 48.2208 25.742 50.6287C23.9791 53.9825 23.6137 58.7552 22.7322 62.4422Z" fill="#BCBCBB"/>
<path d="M30.869 24.2393C31.9547 24.809 33.1049 25.4647 33.6316 26.5719C34.2013 27.7865 34.6421 36.0958 31.9977 35.7303C29.9769 35.4616 30.6541 25.7442 30.869 24.2393Z" fill="#BCBCBB"/>
<path d="M26.4609 44.0516C27.8368 43.4819 28.772 44.933 30.0619 44.6428C30.8574 43.0196 31.0509 41.117 31.1584 39.2144C31.2981 36.6345 31.2229 34.0654 30.7714 31.4963C30.2662 28.5618 30.0297 25.5734 29.6964 22.5959C29.6427 22.1551 29.7394 21.6929 29.7717 21.1232C31.3948 21.1447 31.3089 23.3698 32.674 23.8428C32.7385 23.1548 32.8353 22.5529 32.846 21.9509C32.8783 17.8017 32.76 13.6632 31.8571 9.61066C31.8248 9.46017 31.7496 9.29893 31.7603 9.15919C31.9431 7.51454 31.4593 6.00963 31.0079 4.49397C30.9434 4.26824 30.9971 3.9995 30.9971 3.53728C32.2118 4.20374 32.1043 5.61191 32.6418 6.5256C33.1685 7.42855 33.1255 8.75071 33.3297 9.89015C33.4372 9.8794 33.5447 9.86865 33.663 9.8579C33.663 8.52498 33.663 7.19206 33.663 5.70865C34.9529 6.12787 34.8131 7.69728 35.7591 8.27774C37.5542 6.06338 37.049 2.93532 38.0487 0.344727C38.7796 0.710204 38.5862 1.21542 38.5002 1.70989C38.1777 3.74152 37.7692 5.77315 37.565 7.82627C37.2962 10.5459 37.1887 13.2869 36.9953 16.0173C36.9093 17.2964 36.791 18.5756 36.92 19.9515C37.092 19.6291 37.2962 19.3173 37.4252 18.9841C38.8549 15.2863 40.2416 11.5778 41.7142 7.90152C42.3377 6.35361 43.1116 4.88095 43.8211 3.37604C43.8963 3.2148 44.0576 3.11806 44.2618 2.90307C44.896 4.27899 43.5201 5.12819 43.7996 6.47185C45.0143 5.94514 46.2182 5.41842 47.6264 4.80571C47.5404 5.25718 47.5511 5.61191 47.4221 5.85914C46.2719 7.97676 45.0035 10.0084 43.9501 12.1798C42.4129 15.3508 41.0263 18.6079 39.5751 21.8327C39.5214 21.9509 39.5429 22.1229 39.5214 22.5314C42.6064 21.0372 45.5947 19.5538 48.9378 19.3173C48.9915 20.532 47.7661 20.4998 47.5726 21.3919C48.2068 21.5532 48.8088 21.7144 49.4215 21.8649C49.3678 22.9506 48.7013 23.1333 48.1316 23.3806C46.8954 23.918 45.6377 24.391 44.4123 24.9392C42.1334 25.9604 40.1233 27.4976 38.3174 29.325C37.3822 30.2709 36.5545 31.4641 35.9741 32.7325C35.0066 34.8286 34.2219 37.0537 33.4372 39.2574C32.846 40.9343 32.3945 42.6757 31.8248 44.3633C31.7281 44.6643 31.3841 44.8685 31.1906 45.0835C32.2978 45.836 33.4802 46.5884 34.6089 47.4269C35.8236 48.3298 35.9526 48.7598 35.2646 50.2432C34.5337 51.7911 33.6522 53.2423 32.8353 54.7364C32.158 55.9618 31.4916 57.198 30.7821 58.4127C30.1372 59.5306 29.4277 60.6056 28.7828 61.7235C27.0844 64.6688 25.3752 67.6034 23.7306 70.581C23.1716 71.5807 22.7954 72.7093 22.3116 73.7628C21.2045 76.1921 20.065 78.6107 18.9686 81.0616C18.7644 81.5238 18.5816 81.857 17.9689 81.8033C17.9474 81.4485 17.8614 81.0938 17.9259 80.7821C18.6031 77.7293 19.2481 74.6657 20.0113 71.6344C21.097 67.3131 22.3224 63.0349 23.3866 58.7029C24.4185 54.4892 25.3215 50.2217 26.2674 45.9757C26.3856 45.3845 26.3856 44.761 26.4609 44.0516ZM42.2732 7.85852C41.381 10.3201 40.3383 13.0182 39.4031 15.77C38.1777 19.4141 36.6728 22.9506 35.8021 23.6923C35.7698 23.0258 35.6838 22.4776 35.7268 21.9509C35.8021 20.9727 35.9956 20.0053 36.0708 19.0271C36.3073 15.6733 36.5115 12.3195 36.7158 8.9657C36.7265 8.84746 36.6298 8.72922 36.576 8.61097C36.2428 8.93345 35.9526 9.22369 35.6086 9.54617C35.2324 9.07319 34.9421 8.70772 34.4477 8.07351C34.3724 9.0087 34.3724 9.66441 34.2542 10.2986C34.1574 10.8253 34.0607 11.481 33.749 11.8143C33.3297 12.255 33.3405 12.6742 33.405 13.2009C33.5662 14.4801 33.7919 15.7593 33.8457 17.0492C33.9317 19.2206 33.9532 21.3919 33.8994 23.5633C33.8779 24.563 33.7382 25.6164 32.9213 26.4334C32.3838 25.9712 31.8786 25.5412 31.2229 24.9715C31.1154 27.0246 31.3626 28.766 31.9431 30.6149C32.4698 30.2817 32.889 29.9807 33.3297 29.7442C33.7275 29.5399 34.0607 29.0885 34.5982 29.3035C33.5232 29.6689 33.362 31.3566 32.0613 31.3351C32.1473 32.8507 32.2333 34.2374 32.2978 35.6241C32.3515 36.9463 32.1473 38.2899 32.373 39.7303C33.1792 37.4837 33.8349 35.3876 34.6841 33.399C35.5441 31.3888 36.6405 29.5077 38.2744 28.1748C40.951 25.9819 43.7458 24.0363 46.9814 23.0581C47.2394 22.9828 47.4544 22.7679 47.8736 22.4991C46.8954 22.2734 46.1537 23.0796 45.24 22.3486C45.8527 21.7037 46.4009 21.1232 46.9599 20.5427C46.2074 20.446 45.5947 20.618 44.9928 20.79C42.8429 21.3919 40.9295 22.5959 39.0161 23.8213C38.6937 24.0255 38.3389 24.1438 37.9949 24.305L37.78 24.0255C37.9304 23.6278 38.0594 23.2086 38.2422 22.8216C38.7151 21.8219 39.2526 20.8545 39.6826 19.8225C41.037 16.6515 42.3699 13.4804 44.1221 10.5674C44.7348 9.54617 45.283 8.46048 45.8312 7.3963C45.971 7.12756 45.9925 6.78359 46.0892 6.38586C44.8208 6.88033 43.7243 7.29955 42.2732 7.85852ZM27.6433 62.0675C28.0733 61.4333 28.6215 60.7346 29.0515 59.9606C30.7176 56.9938 32.3408 53.9947 33.9747 51.0064C34.1682 50.6517 34.3509 50.2969 34.5014 49.9207C34.7486 49.2972 34.6841 48.7813 34.1574 48.2868C32.33 46.6207 30.1802 45.8682 27.8368 45.191C27.3961 46.7067 26.9231 48.1041 26.5899 49.5445C26.2782 50.8559 26.3964 50.9526 27.5358 51.4579C27.9658 51.6514 28.5248 51.6836 28.686 52.5221C27.8153 52.3931 27.0306 52.2856 26.1922 52.1673C25.8159 53.5325 25.429 54.7472 25.3967 56.1983C26.2459 55.8006 26.9231 55.4781 27.6003 55.1556C26.7511 56.2736 25.0742 56.2413 24.7947 58.2622C25.7514 57.886 26.5146 57.585 27.2886 57.284C27.3208 57.3808 27.3531 57.4883 27.3853 57.585C27.1919 57.7032 27.0199 57.843 26.8156 57.9182C25.1172 58.5632 24.1928 59.7779 23.7628 61.8525C23.1393 64.916 22.1397 67.8829 21.3442 70.8927C20.8067 72.9243 20.323 74.9774 19.8178 77.0198C20.581 75.9234 21.1077 74.7302 21.6452 73.5478C22.1934 72.3546 22.7094 71.1399 23.3006 69.979C23.8918 68.8181 24.5905 67.7216 25.214 66.5822C25.8267 65.4535 26.4071 64.2926 26.9231 63.2929C26.5469 62.3792 25.5472 62.7447 25.386 61.8095C26.2029 61.1968 26.7941 62.1427 27.6433 62.0675Z" fill="black"/>
<path d="M26.461 44.0508L26.5685 44.298C26.7619 44.2121 26.9447 44.1906 27.1167 44.1906C27.5036 44.1906 27.8906 44.3518 28.3098 44.5453C28.7291 44.7388 29.1805 44.9538 29.718 44.9538C29.847 44.9538 29.9867 44.943 30.1265 44.9108L30.2555 44.8785L30.3092 44.7603C31.1369 43.0834 31.3197 41.1377 31.4272 39.2351C31.4702 38.4719 31.4917 37.7195 31.4917 36.967C31.4917 35.1289 31.3627 33.3015 31.0402 31.4526C30.535 28.5395 30.2985 25.5512 29.9652 22.5736L29.9545 22.3264C29.9545 21.9932 30.019 21.6169 30.0405 21.144L29.7718 21.1332V21.4019C30.1157 21.4127 30.3415 21.5202 30.5457 21.7029C30.8467 21.9717 31.0832 22.4554 31.3627 22.9284C31.6421 23.4013 31.9861 23.8958 32.5881 24.1108L32.9106 24.229L32.9428 23.885C33.0073 23.2078 33.1041 22.6059 33.1148 21.9717C33.1148 21.6062 33.1148 21.2407 33.1148 20.8752C33.1148 17.0807 32.9428 13.2969 32.1259 9.57767C32.0829 9.40568 32.0291 9.26593 32.0399 9.22294V9.21219C32.0721 8.9542 32.0829 8.70697 32.0829 8.45973C32.0829 7.03007 31.6636 5.7294 31.2767 4.43948L31.2552 4.24599C31.2552 4.0955 31.2767 3.86976 31.2767 3.55803H31.0079L30.8574 3.78377C31.3842 4.074 31.6206 4.51473 31.8141 5.04144C31.9969 5.56816 32.1044 6.15937 32.3946 6.67534C32.8676 7.47079 32.8461 8.77147 33.0503 9.95389L33.0933 10.2011L33.3405 10.1796C33.448 10.1689 33.5555 10.1581 33.6738 10.1474L33.921 10.1259V9.87865C33.921 8.54573 33.921 7.21281 33.921 5.7294H33.6523L33.5663 5.98739C34.1037 6.15938 34.3402 6.5571 34.5875 7.07307C34.824 7.56754 35.0282 8.1695 35.6087 8.52423L35.8129 8.64247L35.9634 8.45973C36.9093 7.2988 37.2426 5.90139 37.4683 4.50398C37.694 3.10656 37.823 1.6984 38.296 0.451473L38.0488 0.354729L37.9305 0.591214C38.1133 0.687958 38.1992 0.773953 38.253 0.849198C38.296 0.924444 38.3175 0.999689 38.3175 1.10718C38.3175 1.25767 38.2745 1.45116 38.2315 1.66615C37.909 3.69777 37.5005 5.7294 37.2963 7.79327C37.0276 10.5236 36.9201 13.2647 36.7266 15.995C36.6621 16.8657 36.5976 17.7472 36.5976 18.6609C36.5976 19.0908 36.6083 19.5208 36.6513 19.9723L36.7373 20.8752L37.1566 20.069C37.3178 19.7573 37.522 19.4456 37.6725 19.0693C39.1022 15.3716 40.4889 11.663 41.9615 7.98676C42.5742 6.44961 43.3482 4.9877 44.0684 3.48279C44.0791 3.42904 44.2296 3.3108 44.4554 3.08506L44.2619 2.90232L44.0146 3.00982C44.1221 3.23555 44.1544 3.43979 44.1544 3.63328C44.1544 3.98801 44.0146 4.34274 43.8427 4.74046C43.6814 5.13819 43.4879 5.56816 43.4879 6.08413C43.4879 6.22387 43.4987 6.37436 43.5309 6.5141L43.5954 6.83658L43.8964 6.70759C45.1111 6.18087 46.315 5.65416 47.7232 5.04144L47.6157 4.79421L47.3469 4.74046C47.2609 5.22418 47.2609 5.56816 47.1642 5.7079C46.0248 7.81477 44.7563 9.85715 43.6922 12.0393C42.155 15.2103 40.7576 18.4781 39.3172 21.6922C39.2634 21.8104 39.2634 21.9179 39.2527 22.0362C39.2527 22.1544 39.2527 22.2834 39.2312 22.4769L39.1989 22.9391L39.6182 22.7349C42.714 21.2407 45.6593 19.7788 48.9378 19.5531L48.9163 19.2843L48.6476 19.2951V19.3596C48.6476 19.5961 48.5939 19.7465 48.5079 19.8863C48.3789 20.0905 48.1531 20.241 47.9059 20.4345C47.6587 20.628 47.3899 20.886 47.2932 21.2945L47.2394 21.5524L47.4867 21.6169C48.1209 21.7782 48.7229 21.9394 49.3356 22.0899L49.4001 21.8319L49.1313 21.8212C49.0991 22.3049 48.9593 22.5306 48.7766 22.7026C48.5831 22.8746 48.3036 22.9714 48.0026 23.1003C46.7772 23.6378 45.5195 24.1108 44.2726 24.659C41.9615 25.6909 39.9191 27.2496 38.0918 29.0985C37.1351 30.0659 36.2966 31.2913 35.6946 32.5813C34.7165 34.6989 33.9318 36.924 33.1578 39.1276C32.5558 40.8153 32.1044 42.5567 31.5454 44.2443C31.5024 44.4163 31.2122 44.6205 30.9649 44.8678L30.7607 45.0935L31.0187 45.2655C32.1366 46.0287 33.3083 46.7704 34.4262 47.5981C34.781 47.8668 35.0389 48.0818 35.1894 48.2753C35.3399 48.4688 35.3937 48.63 35.3937 48.8343C35.3937 49.1138 35.2754 49.5115 34.9959 50.0812C34.2757 51.6076 33.3943 53.0588 32.5666 54.5529C31.8894 55.7784 31.2229 57.0145 30.5242 58.2185C29.8793 59.3256 29.1698 60.4006 28.5248 61.5292C26.8264 64.4746 25.1173 67.4091 23.4726 70.3975C22.9029 71.4294 22.516 72.5581 22.043 73.6008C20.9358 76.0301 19.7964 78.4487 18.6999 80.8996C18.6032 81.1146 18.5279 81.265 18.4312 81.351C18.3452 81.437 18.2592 81.48 18.055 81.48H17.9582L17.9367 81.7488L18.2055 81.738C18.1947 81.4478 18.141 81.1898 18.141 80.9963L18.1625 80.7921C18.8397 77.7393 19.4846 74.6757 20.2478 71.6444C21.3335 67.3232 22.5589 63.0449 23.6231 58.7129C24.6551 54.4884 25.558 50.2317 26.504 45.9857C26.6437 45.3515 26.6437 44.7173 26.7189 44.0293L26.461 44.0508L26.5685 44.298L26.461 44.0508L26.1922 44.0186C26.117 44.7495 26.1062 45.3622 25.988 45.9212C25.0528 50.1672 24.1391 54.4239 23.1179 58.6377C22.0645 62.9589 20.8283 67.2372 19.7426 71.5691C18.9794 74.6005 18.3345 77.6748 17.6572 80.7276C17.6357 80.8351 17.625 80.9426 17.625 81.0393C17.625 81.3188 17.6787 81.5768 17.6895 81.8133L17.7002 82.0498L17.9367 82.0713L18.0765 82.082C18.3882 82.082 18.6569 81.9745 18.8289 81.7918C19.0009 81.609 19.1084 81.394 19.2052 81.1791C20.2908 78.739 21.4303 76.3204 22.5375 73.891C23.0212 72.8161 23.4081 71.6981 23.9456 70.7307C25.5903 67.7531 27.2994 64.8186 28.9978 61.8732C29.6428 60.766 30.3522 59.6911 30.9972 58.5624C31.7066 57.3478 32.3731 56.1116 33.0503 54.8862C33.8673 53.4027 34.7595 51.9408 35.4904 50.3822C35.7699 49.7802 35.9311 49.3395 35.9311 48.9095C35.9311 48.587 35.8236 48.2753 35.6087 48.0173C35.4044 47.7486 35.1142 47.5121 34.7487 47.2326C33.6093 46.3834 32.4268 45.6417 31.3197 44.8785L31.1799 45.0935L31.3842 45.2762C31.5239 45.1042 31.9109 44.9 32.0721 44.4593C32.6418 42.7609 33.0933 41.0195 33.6845 39.3534C34.4692 37.1497 35.2432 34.9354 36.2106 32.85C36.7803 31.6246 37.5865 30.4421 38.5002 29.5284C40.2846 27.7226 42.2732 26.2069 44.5199 25.2072C45.7453 24.659 47.003 24.1968 48.2391 23.6486C48.5079 23.5303 48.8518 23.4121 49.1528 23.1648C49.4538 22.9069 49.6795 22.4984 49.701 21.9072L49.7118 21.6922L49.4968 21.6384C48.8841 21.4772 48.2821 21.3267 47.6479 21.1655L47.5834 21.4234L47.8414 21.4772C47.8737 21.316 47.9489 21.2085 48.0671 21.0902C48.2391 20.9182 48.5079 20.757 48.7551 20.5205C49.0023 20.284 49.2281 19.9185 49.2173 19.4241V19.3381L49.2066 19.0586L48.9271 19.0801C45.5088 19.3166 42.499 20.8215 39.4139 22.3156L39.5322 22.5629L39.8009 22.5844C39.8116 22.3694 39.8116 22.2189 39.8224 22.1222C39.8224 22.0147 39.8331 21.9824 39.8331 21.9824C41.2843 18.7576 42.671 15.5006 44.2081 12.3402C45.2508 10.1904 46.5192 8.148 47.6694 6.03038C47.8522 5.67565 47.8199 5.33168 47.9059 4.9017L48.0026 4.40723L47.5404 4.61147C46.143 5.22418 44.9391 5.74015 43.7137 6.27762L43.8212 6.52485L44.0791 6.47111C44.0576 6.36361 44.0469 6.25612 44.0469 6.14863C44.0469 5.7724 44.1866 5.40692 44.3586 5.00919C44.5199 4.62222 44.7133 4.19225 44.7133 3.68703C44.7133 3.41829 44.6596 3.13881 44.5199 2.83783L44.3586 2.4831L44.0899 2.76258C43.9179 2.95607 43.7352 3.04207 43.5954 3.30005C42.886 4.79421 42.1013 6.26687 41.4778 7.83627C40.0051 11.5125 38.6185 15.2318 37.1888 18.9188C37.0706 19.2306 36.8771 19.5208 36.6943 19.8648L36.9308 19.9938L37.1781 19.94C37.1351 19.5101 37.1243 19.0908 37.1243 18.6824C37.1243 17.7902 37.1996 16.9302 37.2533 16.0488C37.4468 13.3077 37.5435 10.5774 37.8123 7.86852C38.0165 5.83689 38.4142 3.81602 38.7475 1.77364C38.7797 1.5909 38.8335 1.36517 38.8335 1.12868C38.8335 0.956692 38.8012 0.763203 38.683 0.580465C38.5647 0.397726 38.3927 0.247235 38.1455 0.128993L37.8768 0L37.7693 0.279483C37.2533 1.62315 37.1351 3.07431 36.9093 4.43948C36.6836 5.8154 36.3719 7.09457 35.5227 8.13725L35.7269 8.30924L35.8666 8.08351C35.4904 7.86852 35.2969 7.39555 35.0497 6.85808C34.8025 6.33136 34.4692 5.74015 33.7168 5.49292L33.362 5.37467V5.74015C33.362 7.22356 33.362 8.55648 33.362 9.8894H33.6308L33.6093 9.62066C33.5018 9.63141 33.3943 9.64216 33.276 9.65291L33.2975 9.92165L33.5663 9.87865C33.362 8.78222 33.4158 7.43855 32.8461 6.42811C32.6096 6.03038 32.5021 5.46067 32.3086 4.89095C32.1151 4.32124 31.7926 3.71927 31.1047 3.34305L30.707 3.11731V3.56878C30.707 3.84827 30.6855 4.0525 30.6855 4.25674C30.6855 4.37498 30.6962 4.49323 30.7285 4.61147C31.1154 5.90139 31.5132 7.15906 31.5132 8.48123C31.5132 8.70697 31.5024 8.94345 31.4809 9.17994V9.25519C31.4917 9.47017 31.5669 9.62066 31.5776 9.72816C32.3838 13.3937 32.5558 17.1452 32.5558 20.9182C32.5558 21.2837 32.5558 21.6492 32.5558 22.0039C32.5558 22.5736 32.4483 23.1756 32.3838 23.8743L32.6526 23.8958L32.7386 23.6378C32.4591 23.5411 32.2549 23.3583 32.0614 23.1111C31.7711 22.7349 31.5562 22.2189 31.2444 21.7674C30.9327 21.316 30.4705 20.9075 29.761 20.9075H29.503L29.4923 21.1655C29.4708 21.5954 29.4063 21.9824 29.4063 22.3694C29.4063 22.4769 29.4063 22.5736 29.417 22.6811C29.7503 25.6479 29.9867 28.647 30.492 31.5923C30.8037 33.3982 30.9327 35.2041 30.9327 37.01C30.9327 37.7517 30.9112 38.5042 30.8682 39.2459C30.7714 41.1377 30.578 43.0081 29.804 44.5668L30.0405 44.685L29.9867 44.427C29.89 44.4485 29.7933 44.4593 29.6965 44.4593C29.3203 44.4593 28.9333 44.298 28.5141 44.1046C28.0949 43.9111 27.6326 43.6961 27.0952 43.6961C26.8587 43.6961 26.6007 43.7391 26.3427 43.8466L26.1922 43.9111L26.1707 44.0723L26.461 44.0508ZM42.2732 7.85777L42.026 7.76103C41.1338 10.2226 40.0911 12.9207 39.1559 15.6833C38.5432 17.4999 37.866 19.2843 37.2318 20.714C36.9201 21.4234 36.6083 22.0469 36.3289 22.5199C36.0601 23.0036 35.8021 23.3476 35.6301 23.4873L35.8021 23.6916L36.0709 23.6808C36.0386 23.1326 35.9849 22.6811 35.9849 22.2619C35.9849 22.1651 35.9849 22.0684 35.9956 21.9717C36.0709 21.015 36.2644 20.0475 36.3396 19.0478C36.5761 15.694 36.7803 12.3402 36.9846 8.98645V8.9542C36.9846 8.82521 36.9416 8.72847 36.8986 8.66397L36.8233 8.51348L36.6728 8.148L36.3826 8.42749C36.0494 8.74997 35.7484 9.0402 35.4152 9.36268L35.5979 9.55617L35.8129 9.38418C35.4367 8.91121 35.1464 8.54573 34.652 7.91152L34.222 7.37405L34.1682 8.05126C34.093 8.9972 34.093 9.65291 33.9855 10.2549C33.8995 10.7923 33.7813 11.4158 33.5555 11.6308C33.2115 11.9855 33.0933 12.3832 33.1041 12.7595C33.1041 12.9207 33.1148 13.0712 33.1363 13.2217C33.2975 14.5116 33.5233 15.78 33.577 17.0485C33.6308 18.4244 33.663 19.8003 33.663 21.1762C33.663 21.9609 33.6523 22.7564 33.6308 23.5411C33.6093 24.53 33.4695 25.4867 32.7278 26.2284L32.9213 26.4219L33.0933 26.2177C32.5558 25.7554 32.0506 25.3255 31.3949 24.7557L30.9757 24.401L30.9434 24.9492C30.9219 25.261 30.9219 25.5727 30.9219 25.8844C30.9219 27.5828 31.1799 29.0985 31.6851 30.6894L31.7926 31.0226L32.0829 30.8399C32.6203 30.4959 33.0288 30.2057 33.448 29.9799C33.6415 29.8724 33.8028 29.7434 33.9425 29.6574C34.0822 29.5607 34.2005 29.5177 34.3187 29.5177L34.5015 29.5499L34.5982 29.3027L34.5122 29.0447C33.8565 29.2812 33.5233 29.8509 33.2008 30.2917C33.0396 30.5174 32.8783 30.7109 32.6956 30.8506C32.5128 30.9796 32.3301 31.0549 32.0721 31.0656H32.0506H31.7711L31.7819 31.3451C31.8679 32.8607 31.9539 34.2474 32.0184 35.6341C32.0291 35.8061 32.0291 35.9673 32.0291 36.1393C32.0291 36.795 31.9861 37.4615 31.9861 38.1602C31.9861 38.6761 32.0076 39.2136 32.0936 39.7726L32.2549 40.8153L32.6096 39.8263C33.4158 37.5797 34.0715 35.4836 34.9099 33.5165C35.7591 31.5278 36.8448 29.6897 38.4142 28.3998C41.0801 26.2177 43.8427 24.2935 47.0245 23.3368C47.3792 23.2186 47.5834 22.9928 47.9811 22.7456L48.5186 22.4016L47.8952 22.2619C47.7447 22.2296 47.6049 22.2189 47.4652 22.2189C46.8955 22.2296 46.4332 22.4339 46.057 22.4231C45.8313 22.4231 45.627 22.3694 45.3691 22.1651L45.1971 22.3694L45.3906 22.5521C46.0033 21.9072 46.5515 21.3267 47.1105 20.7462L47.4759 20.3593L46.9492 20.2948C46.788 20.2733 46.6267 20.2625 46.4762 20.2625C45.8743 20.2625 45.3583 20.4023 44.8746 20.542C42.671 21.1547 40.7361 22.3801 38.8335 23.6056C38.554 23.7883 38.1992 23.9065 37.8445 24.0785L37.9628 24.3258L38.1777 24.1645L37.9628 23.885L37.7478 24.0463L37.995 24.143C38.1455 23.7346 38.2745 23.3153 38.4465 22.9606C38.9087 21.9717 39.4462 20.9935 39.8976 19.9615C41.2521 16.7905 42.585 13.6302 44.3264 10.7386C44.9498 9.70666 45.4981 8.62098 46.0463 7.54604C46.2183 7.20206 46.229 6.84733 46.3258 6.47111L46.4547 5.96589L45.9818 6.14863C44.7348 6.6216 43.6277 7.05157 42.1765 7.59979L42.0583 7.64278L42.0153 7.76103L42.2732 7.85777L42.37 8.10501C43.8212 7.54604 44.9283 7.12682 46.1753 6.65384L46.0785 6.40661L45.8205 6.34211C45.7238 6.76134 45.6915 7.10532 45.584 7.28806C45.0358 8.36299 44.4876 9.43793 43.8749 10.4484C42.112 13.3937 40.7683 16.5755 39.4139 19.7358C38.9839 20.7462 38.4465 21.7029 37.9735 22.7241C37.78 23.1326 37.651 23.5518 37.5113 23.9495L37.4575 24.0893L37.7693 24.487L37.8983 24.659L38.0918 24.573C38.4142 24.4225 38.7905 24.2935 39.1452 24.0678C41.0478 22.8424 42.9397 21.6599 45.0466 21.0687C45.5303 20.929 45.9925 20.8107 46.5085 20.8107C46.6375 20.8107 46.7772 20.8215 46.917 20.8322L46.9492 20.5635L46.7557 20.3808C46.2075 20.9612 45.6593 21.5309 45.0358 22.1866L44.8316 22.4016L45.0573 22.5844C45.4013 22.8639 45.756 22.9606 46.0893 22.9606C46.6267 22.9499 47.0675 22.7456 47.4974 22.7564C47.6049 22.7564 47.7017 22.7671 47.8092 22.7886L47.8737 22.5306L47.7232 22.3049C47.2932 22.5951 47.0567 22.7994 46.9062 22.8316C43.6169 23.8205 40.7898 25.7877 38.1025 27.9913C36.4256 29.3672 35.3077 31.2913 34.437 33.3122C33.577 35.3116 32.9321 37.4185 32.1259 39.6543L32.3838 39.7403L32.6526 39.6973C32.5773 39.1814 32.5451 38.6761 32.5451 38.1709C32.5451 37.4937 32.5881 36.8273 32.5881 36.15C32.5881 35.9781 32.5881 35.7953 32.5773 35.6233C32.5128 34.2259 32.4268 32.8392 32.3409 31.3343L32.0721 31.3451V31.6138H32.0829C32.4591 31.6138 32.7816 31.4848 33.0288 31.2913C33.405 31.0011 33.6415 30.6034 33.8888 30.2702C34.136 29.9262 34.3725 29.6682 34.695 29.5607L35.3722 29.3242L34.7057 29.0555C34.5767 29.0017 34.4477 28.9802 34.3295 28.9802C34.0607 28.9802 33.835 29.0985 33.663 29.206C33.491 29.3242 33.3405 29.4425 33.2115 29.507C32.7386 29.7542 32.3194 30.0552 31.8034 30.3884L31.9431 30.6141L32.2011 30.5281C31.7066 28.9802 31.4702 27.5291 31.4702 25.8844C31.4702 25.5942 31.4809 25.2932 31.4917 24.9815L31.2229 24.9707L31.0509 25.175C31.7066 25.7447 32.2119 26.1747 32.7493 26.6369L32.9428 26.7981L33.1148 26.6154C34.007 25.7124 34.1467 24.573 34.1682 23.5626C34.1897 22.7671 34.2005 21.9824 34.2005 21.187C34.2005 19.8003 34.1682 18.4136 34.1145 17.0377C34.0607 15.7263 33.8243 14.4471 33.6738 13.1679C33.6523 13.0175 33.6415 12.8885 33.6415 12.7702C33.6523 12.48 33.6953 12.2865 33.9425 12.007C34.3402 11.5663 34.4155 10.8783 34.5122 10.3516C34.6305 9.68516 34.6305 9.0187 34.7057 8.09426L34.437 8.07276L34.222 8.24475C34.7165 8.87896 35.0174 9.24444 35.3829 9.71741L35.5657 9.95389L35.7806 9.74966C36.1139 9.42718 36.4041 9.13694 36.7481 8.81446L36.5653 8.62098L36.3181 8.71772L36.4149 8.91121L36.4364 8.96495H36.5116H36.4364H36.5116H36.4364C36.2321 12.3187 36.0279 15.6725 35.7914 19.0263C35.7269 19.983 35.5334 20.9505 35.4474 21.9502C35.4367 22.0577 35.4367 22.1759 35.4367 22.2834C35.4367 22.7456 35.5012 23.1971 35.5227 23.7238L35.5549 24.2398L35.9741 23.885C36.2429 23.6593 36.5008 23.2831 36.7911 22.7779C37.6618 21.2622 38.7367 18.5964 39.6612 15.8445C40.5856 13.1035 41.6283 10.4054 42.5205 7.94377L42.2732 7.85777L42.37 8.10501L42.2732 7.85777ZM27.6434 62.0667L27.8691 62.2172C28.2883 61.5937 28.8473 60.895 29.2988 60.0888C30.9649 57.1113 32.5881 54.123 34.222 51.1346C34.4155 50.7799 34.609 50.4144 34.7595 50.0167C34.8562 49.7695 34.9207 49.5222 34.9207 49.275C34.9207 48.845 34.7272 48.4365 34.351 48.0926C32.4698 46.3727 30.277 45.6202 27.9229 44.943L27.6649 44.8678L27.5896 45.1257C27.1489 46.6307 26.6759 48.0388 26.3427 49.49C26.246 49.8877 26.1922 50.1887 26.1922 50.4467C26.1815 50.7477 26.3105 51.0379 26.5362 51.2206C26.7619 51.4034 27.0414 51.5324 27.4392 51.7043C27.6864 51.8118 27.9229 51.8656 28.0841 51.9731C28.2454 52.0806 28.3636 52.2096 28.4388 52.5643L28.7076 52.5213L28.7506 52.2526C27.8799 52.1236 27.0952 52.0161 26.2567 51.8978L26.0202 51.8656L25.9557 52.0913C25.5903 53.4457 25.1818 54.6819 25.1495 56.1868L25.1388 56.6275L25.5365 56.4448C26.3857 56.0471 27.0629 55.7246 27.7401 55.4021L27.6219 55.1549L27.4069 54.9936C27.0414 55.4881 26.4502 55.7461 25.859 56.1438C25.2678 56.5416 24.6981 57.1328 24.5476 58.2185L24.4831 58.6699L24.9131 58.4979C25.8697 58.1217 26.633 57.8207 27.4069 57.5197L27.3102 57.2725L27.0522 57.3585C27.0844 57.4552 27.1167 57.5627 27.1489 57.6595L27.3747 57.5627L27.2349 57.337C27.0199 57.466 26.8479 57.595 26.7082 57.6487C24.9346 58.3152 23.9134 59.6589 23.4941 61.7765C22.8707 64.8186 21.8817 67.7746 21.0755 70.8059C20.5381 72.8483 20.0544 74.9014 19.5491 76.9331L19.1944 78.352L20.0329 77.1481C20.8068 76.0301 21.3443 74.8154 21.8925 73.633C22.4407 72.4291 22.9567 71.2252 23.5479 70.075C24.1391 68.9248 24.8271 67.8391 25.4613 66.6782C26.074 65.5388 26.6544 64.3886 27.1812 63.3781L27.2349 63.2706L27.1919 63.1524C26.9662 62.5934 26.504 62.3999 26.203 62.271C26.0417 62.2065 25.9235 62.142 25.8482 62.0667C25.773 61.9915 25.7085 61.9055 25.6763 61.7227L25.4075 61.7657L25.5688 61.9807C25.73 61.8732 25.8375 61.841 25.9557 61.841C26.1385 61.841 26.3535 61.927 26.6115 62.056C26.8694 62.1742 27.1812 62.3139 27.5466 62.3139L27.6756 62.3032L27.8046 62.2925L27.8799 62.185L27.6434 62.0667L27.6219 61.798H27.5466C27.3209 61.798 27.0844 61.7012 26.8264 61.583C26.5685 61.4648 26.289 61.325 25.945 61.325C25.7193 61.325 25.472 61.4003 25.2355 61.5722L25.1065 61.669L25.1388 61.8302C25.1818 62.1097 25.3108 62.3355 25.472 62.4859C25.7193 62.7117 25.9987 62.7869 26.203 62.8944C26.418 63.0019 26.5685 63.1094 26.6867 63.3781L26.9339 63.2814L26.6974 63.1524C26.1707 64.1628 25.601 65.313 24.9883 66.4417C24.3756 67.5704 23.6769 68.6668 23.0642 69.8492C22.4622 71.0209 21.9462 72.2356 21.398 73.4288C20.8606 74.622 20.3338 75.7936 19.5921 76.8578L19.8179 77.0083L20.0758 77.0728C20.5811 75.0304 21.0648 72.9773 21.6023 70.9457C22.3977 67.9359 23.3974 64.969 24.0316 61.884C24.4616 59.8631 25.3108 58.7667 26.9124 58.1432C27.1704 58.0465 27.3532 57.8852 27.5251 57.7885L27.7079 57.681L27.6434 57.4767C27.6111 57.38 27.5789 57.2833 27.5466 57.1865L27.4607 56.907L27.1919 57.0145C26.4287 57.3155 25.6548 57.6165 24.6981 57.9927L24.7948 58.24L25.0635 58.2722C25.2033 57.337 25.6118 56.9393 26.1385 56.5631C26.6652 56.1976 27.3317 55.9181 27.8154 55.2839L28.4711 54.4132L27.4821 54.8862C26.8049 55.2086 26.1277 55.5311 25.2785 55.9288L25.3968 56.1761L25.6655 56.1868C25.6978 54.7787 26.074 53.5962 26.4502 52.2203L26.1922 52.1451L26.1492 52.4138C26.9877 52.532 27.7724 52.6503 28.6431 52.7685L29.0086 52.8223L28.9441 52.4568C28.8581 51.9838 28.6216 51.6721 28.3528 51.5109C28.0841 51.3389 27.8154 51.2851 27.6434 51.1991C27.2457 51.0271 26.9877 50.8981 26.8694 50.7907C26.7512 50.6832 26.7297 50.6402 26.7189 50.4252C26.7189 50.2532 26.7619 49.9737 26.8587 49.5867C27.1919 48.1678 27.6541 46.7704 28.1056 45.244L27.8476 45.1687L27.7724 45.4267C30.105 46.1039 32.2119 46.8349 33.9855 48.458C34.2865 48.7375 34.3832 48.9633 34.3832 49.2427C34.3832 49.404 34.3402 49.5867 34.265 49.791C34.1252 50.1457 33.9425 50.5004 33.7598 50.8444C32.1259 53.8327 30.492 56.8318 28.8366 59.7986C28.4173 60.5511 27.8691 61.239 27.4392 61.884L27.6434 62.0667L27.6219 61.798L27.6434 62.0667Z" fill="black"/>
<path d="M32.5352 32.0119C32.9436 31.8184 33.3414 31.6034 33.7606 31.4314C34.0508 31.3024 34.3625 31.2272 34.7065 31.2594C34.0401 31.7109 33.4273 32.3021 32.5996 32.3343C32.5889 32.2161 32.5567 32.1193 32.5352 32.0119Z" fill="black"/>
<path d="M32.5354 32.0114L32.6536 32.2587C33.0621 32.0544 33.4706 31.8502 33.8683 31.6782C34.1048 31.5815 34.3305 31.517 34.5777 31.517H34.6852L34.7067 31.2482L34.5562 31.0225C33.8683 31.5062 33.2878 32.0329 32.5999 32.0437L32.6106 32.3124L32.8686 32.2587C32.8471 32.1512 32.8256 32.0437 32.8041 31.9469L32.5354 32.0114L32.6536 32.2587L32.5354 32.0114L32.2774 32.0652C32.2989 32.1727 32.3204 32.2802 32.3419 32.3769L32.3849 32.6026L32.6106 32.5919C33.5673 32.5489 34.2123 31.9039 34.8572 31.474L35.4914 31.044L34.7282 30.9902L34.5777 30.9795C34.2445 30.9795 33.9328 31.0655 33.664 31.1837C33.2341 31.3665 32.8256 31.5815 32.4279 31.7749L32.2344 31.8717L32.2774 32.0759L32.5354 32.0114Z" fill="black"/>
</svg>
