<svg width="57" height="80" viewBox="0 0 57 80" fill="none" xmlns="http://www.w3.org/2000/svg">
<path d="M57 41.9437C56.6499 44.2524 56.256 46.747 55.9059 49.2525C55.4682 52.4036 53.6957 54.9092 51.7263 57.174C49.3739 59.8875 46.6386 62.1851 43.3124 63.8482C38.4654 66.2772 33.3121 67.24 28.0603 67.5026C20.8937 67.8527 14.504 65.6316 8.80358 61.0691C4.71154 57.7977 2.57798 53.4102 0.477255 48.9024C0.116193 48.1365 -0.0588683 47.1737 0.0177208 46.3312C0.291253 43.2239 0.18184 39.9305 1.21032 37.0749C2.54516 33.3767 3.60647 29.5472 5.83849 26.1117C8.23464 22.4463 11.0137 19.2953 14.5696 16.8663C17.6551 14.7546 21.0797 13.3213 24.8873 13.0697C25.4672 13.0368 26.058 13.0149 26.6379 12.9165C35.6207 11.3847 42.8201 15.0063 49.2317 20.7833C53.0283 24.197 54.6695 28.8361 55.8621 33.5846C56.5405 36.2214 56.6171 38.9896 57 41.9437ZM54.9649 41.7249C55.1728 34.7444 53.2581 28.3218 48.5205 22.9387C44.2315 18.0589 38.6952 15.0063 32.2945 14.4811C26.244 13.9887 20.5436 15.794 15.6419 19.711C9.89771 24.2954 6.04638 30.2803 3.46423 36.9545C2.31539 39.9305 1.85586 43.5959 2.41387 46.7141C3.86906 54.7669 8.97864 60.3908 16.4625 63.4434C24.8326 66.8461 33.2793 66.2662 41.4524 62.4696C50.1726 58.4104 55.2932 51.9113 54.9649 41.7249Z" fill="#EB584A"/>
<path d="M36.7706 64.12C38.1602 66.2098 40.2937 68.5622 42.6899 67.8182C44.0138 67.4024 44.8891 66.1114 45.3377 64.7984C46.213 62.2819 45.9504 59.5247 45.4908 56.9097C43.2698 44.2506 36.7269 32.817 30.1402 21.7882C27.8863 18.0244 25.4026 14.0636 21.42 12.2145C17.6015 10.442 11.6713 11.6128 10.785 16.1753C9.98633 20.2345 15.2491 27.3463 16.9888 30.6616C23.0065 42.1499 29.615 53.321 36.7706 64.12Z" fill="white"/>
<path d="M14.332 23.2549C19.004 31.9532 23.6868 40.6406 28.3588 49.3389C29.8358 52.0961 31.3239 54.8533 33.1401 57.4027C35.9411 61.3415 39.497 64.7333 43.5562 67.3483C45.1865 63.672 44.9458 59.2189 42.9326 55.7396C39.9675 50.6191 33.9935 48.2339 29.1247 44.853C24.398 41.5706 20.5139 37.0956 17.9317 31.9532" fill="#BCBCBB"/>
<path d="M38.9278 68.2775C34.2121 64.8857 31.433 59.9949 28.7633 55.0823C24.1461 46.559 19.682 37.9482 15.207 29.3593C13.358 25.8034 11.5745 22.2037 9.86769 18.5712C9.58321 17.9585 9.67074 16.9956 9.93333 16.3282C11.5308 12.2033 18.38 8.19883 22.7347 8.73495C23.8835 8.87719 24.4634 9.42425 24.9776 10.5512C27.5816 16.2626 30.3936 21.8755 33.0414 27.5649C34.9889 31.7664 36.9365 35.9678 38.6214 40.2787C41.3567 47.2811 43.9389 54.3383 46.4444 61.4173C47.0462 63.1132 47.3416 65.006 47.3526 66.8004C47.3635 69.8312 44.5625 71.4176 41.8163 70.0828C40.7878 69.5904 39.8797 68.8793 38.9278 68.2775ZM13.5877 19.9607C13.8503 20.8798 13.916 21.5144 14.1895 22.0286C16.8045 27.0726 19.3866 32.1274 22.111 37.1167C25.0542 42.4889 28.0521 47.8282 31.1923 53.08C33.3915 56.7454 35.8752 60.2356 38.2713 63.7806C38.5777 64.2292 39.0919 64.5465 39.6937 65.0826C40.1641 63.4961 40.5471 62.1941 40.93 60.8812C41.1817 62.3692 41.0066 63.7806 40.7878 65.192C40.6237 66.2315 41.0504 66.6582 42.1336 66.5925C42.6369 65.3999 43.1511 64.1854 43.8295 62.5552C43.6654 64.4043 43.545 65.75 43.3699 67.6538C44.3984 66.7457 44.9674 66.2534 45.6457 65.6516C45.2518 64.262 44.9674 62.8944 44.475 61.6033C43.3809 58.6601 42.0132 55.8154 41.0504 52.8284C38.2275 44.0097 34.6607 35.5192 30.3826 27.3133C28.4898 23.6808 26.7829 19.9498 24.9776 16.2626C24.0695 14.4025 23.5443 14.2822 21.7937 15.5076C19.321 17.2582 17.1546 19.5668 13.5877 19.9607ZM13.2157 18.1773C14.4849 17.6849 15.6885 17.4114 16.6732 16.7987C18.4238 15.6936 20.065 14.4025 21.6843 13.1005C22.0672 12.7942 22.1657 12.1377 22.3955 11.6453C21.8812 11.4484 21.2685 10.967 20.8746 11.1092C18.6754 11.8532 16.4653 12.6082 14.3974 13.6476C12.8109 14.4463 12.4061 15.9671 13.2157 18.1773Z" fill="black"/>
<path d="M25.2652 28.8334C26.9064 28.6474 28.1428 28.4942 29.3901 28.352C29.4667 28.5599 29.5323 28.7568 29.6089 28.9647C28.6461 29.5884 27.6723 30.223 26.4031 31.0436C27.2894 33.0786 28.1756 35.1247 29.1275 37.302C30.0684 37.0941 30.8781 36.919 31.7096 36.733C32.6834 38.4836 30.714 38.4946 30.1888 39.8294C30.6483 41.0877 31.2392 42.6851 31.83 44.2935C33.2305 44.1512 34.445 44.0199 35.6594 43.8886C35.7251 44.0965 35.8017 44.2935 35.8673 44.5014C35.4516 44.8296 35.0467 45.1797 34.62 45.4861C34.1386 45.8252 33.6244 46.1316 32.9788 46.5364C34.3137 50.2565 36.294 53.5498 38.0775 56.9197C38.4932 57.7075 39.7296 58.6156 38.6136 59.3596C37.3553 60.2021 36.8411 58.7141 36.4035 57.8716C35.1343 55.4755 33.9635 53.0356 32.7928 50.5847C32.0816 49.1076 31.6002 47.4664 29.5104 47.0835C30.8343 44.5998 29.3901 42.7945 28.5695 40.8251C27.8474 40.7375 27.2018 40.65 26.3812 40.5515C26.4797 39.9935 26.414 39.4246 26.6548 39.2167C27.4972 38.4727 27.3441 37.7287 26.9283 36.8753C26.1624 35.3216 25.4184 33.757 24.6306 32.1158C24.2477 32.2362 23.9194 32.4112 23.6021 32.4222C23.1207 32.444 22.6393 32.3456 22.1579 32.2909C22.322 31.7766 22.4205 31.2296 22.6721 30.7591C22.8581 30.398 23.2301 30.1354 23.5693 29.7634C22.3111 27.2469 21.0856 24.807 19.707 22.0498C22.1688 22.0936 22.2673 23.9208 23.0222 25.004C23.8538 26.2403 24.5212 27.5642 25.2652 28.8334Z" fill="black"/>
<path d="M3.94407 79.6363C3.42983 77.9076 3.57207 76.7806 4.22854 75.6974C7.91576 69.6688 11.6467 63.6729 15.2902 57.6114C16.997 54.7667 18.496 51.8016 20.1481 48.924C22.7084 44.46 25.3124 40.0069 27.9165 35.5647C29.8202 32.3261 31.5927 28.9999 33.7153 25.9145C38.1575 19.4373 42.7529 13.0804 47.3701 6.72347C48.694 4.89627 50.2695 3.23319 51.7466 1.51541C52.0639 1.15434 52.4687 0.880812 52.9611 0.454102C53.7489 1.6467 53.2893 2.41259 52.5891 3.11284C44.9411 10.6623 39.175 19.6342 33.5184 28.6608C30.8706 32.8732 28.2775 37.1293 25.7938 41.4402C22.1832 47.7205 18.7476 54.1102 15.1261 60.4015C12.3798 65.15 9.44754 69.7891 6.64657 74.5157C5.74938 76.0038 5.01632 77.5903 3.94407 79.6363Z" fill="#EB584A"/>
</svg>
