<svg width="57" height="79" viewBox="0 0 57 79" fill="none" xmlns="http://www.w3.org/2000/svg">
<path d="M56.3 41.0001C56 43.3001 55.6 45.7001 55.2 48.2001C54.8 51.3001 53 53.8001 51.1 56.0001C48.8 58.7001 46.1 61.0001 42.8 62.6001C38 65.0001 32.9 66.0001 27.7 66.2001C20.6 66.5001 14.3 64.4001 8.7 59.8001C4.7 56.6001 2.5 52.2001 0.5 47.8001C0.1 47.0001 0 46.1001 0 45.3001C0.3 42.2001 0.2 39.0001 1.2 36.2001C2.5 32.5001 3.6 28.8001 5.8 25.4001C8.2 21.8001 10.9 18.7001 14.4 16.3001C17.4 14.2001 20.8 12.8001 24.6 12.5001C25.2 12.5001 25.8 12.4001 26.3 12.3001C35.2 10.8001 42.3 14.4001 48.6 20.1001C52.4 23.5001 54 28.1001 55.2 32.8001C55.8 35.3001 55.9 38.0001 56.3 41.0001ZM54.3 40.8001C54.5 33.9001 52.6 27.6001 47.9 22.2001C43.7 17.4001 38.2 14.4001 31.9 13.8001C25.9 13.3001 20.3 15.1001 15.4 19.0001C9.7 23.5001 5.9 29.4001 3.4 36.0001C2.3 38.9001 1.8 42.6001 2.4 45.6001C3.8 53.6001 8.9 59.1001 16.3 62.1001C24.6 65.5001 32.9 64.9001 41 61.1001C49.5 57.2001 54.6 50.8001 54.3 40.8001Z" fill="#F15748"/>
<path d="M45.5859 48.039C45.5859 48.3024 45.5859 48.5659 45.5028 48.9171C45.5028 49.0049 45.5028 49.0927 45.5028 49.2683C45.5028 49.4439 45.4197 49.6195 45.4197 49.7073V49.7951C45.3365 49.9707 45.3365 50.1463 45.2534 50.322C45.1703 50.6732 45.0872 50.9366 44.921 51.2878C44.8379 51.5512 44.7547 51.8146 44.5885 52.078C43.9236 53.3951 43.3418 54.5366 42.3444 55.5024C40.599 57.2585 38.6043 59.2781 36.194 60.4195C35.7784 60.5951 35.2797 60.8585 34.6979 61.0341C33.1187 61.561 31.3733 61.9122 29.711 62C29.3786 62 29.1292 62 28.7968 62C24.2255 62 19.3217 60.4195 14.9167 57.3463C13.8362 56.5561 12.9219 55.4146 12.0908 53.8341C11.6752 52.9561 11.3427 52.078 11.0103 51.2C10.8441 50.761 10.6778 50.2341 10.4285 49.7951L10.1791 49.3561C9.84668 48.5659 9.51422 47.8634 9.34799 46.9854C9.18177 46.2829 9.18177 45.4927 9.09865 44.7902C8.93242 41.278 8.84931 37.5902 9.9298 34.3415L10.5116 32.5854L10.9272 34.4293C11.2596 35.8341 11.7583 37.1512 12.5063 38.3805C12.5895 36.361 13.1713 34.4293 13.6699 32.6732L13.7531 32.4098C14.3349 30.4781 14.9167 28.6341 14.418 26.7902L14.0855 25.6488L15.0829 26.0878C15.914 26.439 16.4127 27.2293 16.8283 27.8439C17.1608 28.2829 17.4101 28.8098 17.7426 29.3366L17.9088 29.6878C18.075 30.1268 18.3244 30.478 18.5737 30.8293C18.5737 30.9171 18.6568 30.9171 18.6568 31.0049C18.5737 29.6878 18.9893 28.1951 19.6542 27.2293C20.6516 25.8244 22.1476 24.9463 23.3112 24.3317L23.4774 24.2439C24.0593 23.8927 24.6411 23.6293 25.0566 23.1902C25.4722 22.6634 25.7215 21.961 25.9709 21.3463C27.0514 17.7463 26.802 13.7951 25.3891 10.3707C25.2229 10.0195 25.0566 9.66829 24.8904 9.40488L24.1424 8L25.4722 8.61463C26.3033 8.96585 27.2176 9.49268 27.9656 10.0195C29.4617 11.0732 30.7084 12.5659 31.872 13.8829C32.2045 14.322 32.5369 14.6732 32.8694 15.2C34.1992 17.1317 34.781 19.5902 34.5317 22.0488C34.4486 22.839 34.1992 23.6293 34.033 24.4195C33.9499 24.7707 33.8668 25.0341 33.7836 25.3854C33.6174 26.2634 33.3681 27.4049 33.5343 28.4585C33.6174 28.8976 33.7836 29.4244 34.033 29.7756C34.033 29.6878 34.033 29.6 34.033 29.5122C34.033 29.0732 34.1161 28.6341 34.1992 28.2829C34.4486 27.6683 34.8641 27.2293 35.2797 26.878C35.3628 26.7902 35.529 26.7024 35.6122 26.5268C36.2771 25.8244 36.7758 24.8585 37.0251 23.8927C37.1082 23.4537 37.1913 23.1902 37.1913 22.839C37.1913 22.5756 37.1082 22.1366 36.942 21.8732L36.1108 20.0293L37.69 21.2585C38.6874 22.2244 38.8536 22.2244 39.2692 23.6293C39.6017 24.6829 39.5185 25.8244 39.4354 26.878L39.103 31.0927C38.9367 32.8488 38.7705 34.7805 39.1861 36.5366C40.1003 35.6585 40.8484 34.6049 41.4302 33.4634L42.8431 30.7415L42.4275 33.8146C42.2613 34.9561 42.0951 36.6244 42.3444 38.2049C42.5107 39.6976 43.0093 41.0146 43.7574 41.9805C43.9236 42.1561 44.0067 42.3317 44.1729 42.5073C44.3392 42.6829 44.4223 42.8585 44.5054 43.122C44.5054 43.2098 44.5885 43.3854 44.6716 43.4732C44.7547 43.561 44.7547 43.7366 44.8379 43.8244C44.921 44.0878 45.0041 44.3512 45.0872 44.7024C45.2534 45.2293 45.3365 45.8439 45.4197 46.4585C45.5859 46.8976 45.669 47.4244 45.5859 48.039Z" fill="white"/>
<path d="M45.5856 48.039C45.5856 48.3024 45.5856 48.5659 45.5025 48.9171C45.5025 49.0049 45.5025 49.0927 45.5025 49.2683C45.5025 49.4439 45.4194 49.6195 45.4194 49.7073V49.7951C45.3363 49.9707 45.3363 50.1463 45.2532 50.322C45.17 50.6732 45.0869 50.9366 44.9207 51.2878C44.8376 51.5512 44.7545 51.8146 44.5882 52.078C43.9233 53.3951 43.3415 54.5366 42.3442 55.5024C40.5988 57.2585 38.604 59.2781 36.1937 60.4195C35.7781 60.5951 35.2794 60.8585 34.6976 61.0341C33.1185 61.561 31.373 61.9122 29.7108 62C29.7939 61.561 30.0432 61.2098 30.2926 60.8585C30.7081 60.4195 31.2899 59.9805 31.8717 59.7171C34.8639 58.1366 37.856 56.3805 39.9338 53.5707C41.9286 50.761 42.5935 46.5463 40.5988 43.7366C39.4351 42.0683 37.4404 41.0146 36.7755 38.9951C36.3599 37.6781 36.6093 36.0098 35.7781 34.9561C35.1132 34.078 34.0327 33.9024 33.2016 33.2878C31.5393 32.2341 30.7081 30.039 30.5419 27.9317C30.3757 25.8244 30.7912 23.8049 30.9575 21.6976C31.1237 19.5902 31.1237 17.3951 30.1263 15.639C29.3783 14.322 28.2147 13.3561 27.1342 12.3024C26.968 12.1268 26.8849 12.039 26.7186 11.8634C26.5524 11.6878 26.4693 11.6 26.3031 11.4244C25.9706 11.0732 25.7213 10.722 25.3888 10.3707C25.2226 10.0195 25.0563 9.66829 24.8901 9.40488L24.1421 8L25.4719 8.61463C26.3031 8.96585 27.2173 9.49268 27.9654 10.0195C29.4614 11.0732 30.7081 12.5659 31.8717 13.8829C32.2042 14.322 32.5366 14.6732 32.8691 15.2C34.1989 17.1317 34.7807 19.5902 34.5314 22.0488C34.4483 22.839 34.1989 23.6293 34.0327 24.4195C33.9496 24.7707 33.8665 25.0341 33.7834 25.3854C33.6171 26.2634 33.3678 27.4049 33.534 28.4585C33.6171 28.8976 33.7834 29.4244 34.0327 29.7756C34.0327 29.6878 34.0327 29.6 34.0327 29.5122C34.0327 29.0732 34.1158 28.6341 34.1989 28.2829C34.4483 27.6683 34.8639 27.2293 35.2794 26.878C35.3625 26.7902 35.5288 26.7024 35.6119 26.5268C36.2768 25.8244 36.7755 24.8585 37.0248 23.8927C37.1079 23.4537 37.1911 23.1902 37.1911 22.839C37.1911 22.5756 37.1079 22.1366 36.9417 21.8732L36.1106 20.0293L37.6897 21.2585C38.6871 22.2244 38.8533 22.2244 39.2689 23.6293C39.6014 24.6829 39.5183 25.8244 39.4352 26.878L39.1027 31.0927C38.9365 32.8488 38.7702 34.7805 39.1858 36.5366C40.1001 35.6585 40.8481 34.6049 41.4299 33.4634L42.8428 30.7415L42.4273 33.8146C42.261 34.9561 42.0948 36.6244 42.3442 38.2049C42.5104 39.6976 43.0091 41.0146 43.7571 41.9805C43.9233 42.1561 44.0064 42.3317 44.1727 42.5073C44.3389 42.6829 44.422 42.8585 44.5051 43.122C44.5051 43.2098 44.5882 43.3854 44.6714 43.4732C44.7545 43.561 44.7545 43.7366 44.8376 43.8244C44.9207 44.0878 45.0038 44.3512 45.0869 44.7024C45.2532 45.2293 45.3363 45.8439 45.4194 46.4585C45.5856 46.8976 45.6687 47.4244 45.5856 48.039Z" fill="#BCBCBB"/>
<path d="M37.112 48.2162L37.0289 50.5869C36.9458 51.904 36.8626 53.4845 36.4471 54.8894C35.8653 56.5577 34.7848 57.8747 33.8705 59.104C33.6212 59.3674 33.3718 59.7186 33.0394 60.0699C32.7069 60.3333 32.2913 60.5089 31.9589 60.6845C30.8784 61.2113 29.3823 61.826 27.8032 61.826H27.72C27.3045 61.826 26.8889 61.9138 26.3902 61.9138C26.0578 61.826 25.6422 61.7382 25.3097 61.7382C24.4786 61.6503 22.9825 61.2113 22.2345 60.5967C21.4033 59.8942 20.7384 59.3674 20.2397 58.7528C20.5722 58.5772 20.9878 58.4894 21.3202 58.4016C21.7358 58.3138 22.0683 58.3138 22.4838 58.226C23.4812 58.1381 24.1461 58.3138 25.0604 58.4016C26.3902 58.5772 27.8032 58.4894 28.8005 57.7869C29.7979 57.0845 30.8784 55.5918 31.5433 54.3625C32.7069 52.1674 33.2887 49.7967 33.2887 49.7967C33.2887 49.7967 34.1199 46.1089 34.203 45.4064C34.3692 44.4406 30.4628 48.4796 30.8784 47.6016C31.3771 46.5479 29.7979 44.4406 29.133 43.3869C28.4681 42.3333 28.1356 41.8064 27.2214 40.9284C26.7227 40.4016 25.3097 39.6991 24.8942 37.943C24.6448 36.7138 24.6448 36.1869 24.8942 35.5723C25.1435 34.8699 25.2266 34.343 25.6422 33.8162C25.7253 33.7284 25.8084 33.6406 25.8915 33.5528C25.9746 33.465 25.9746 33.2894 26.0578 33.1138C26.1409 32.7625 26.3071 32.4991 26.4733 32.2357C26.8058 31.7089 27.2214 31.182 27.72 30.743C28.2187 30.304 28.8005 29.9528 29.3823 29.6894C29.4655 29.6894 29.5486 29.6016 29.6317 29.6016L28.4681 31.3577C27.72 32.4113 27.3876 33.7284 27.5538 34.782C27.6369 35.5723 27.8863 36.3625 28.1356 36.9772C28.4681 37.7674 28.7174 38.2942 29.0499 38.7333C29.2992 39.0845 29.5486 39.3479 29.881 39.7869C30.4628 40.4894 30.8784 41.2796 31.5433 41.8942C32.2082 42.5967 33.1225 43.1235 33.2056 44.3528C33.2056 44.4406 32.9563 45.6699 32.9563 45.7577C33.2056 45.4064 33.8705 44.265 34.1199 43.9138L34.8679 42.6845L35.1172 44.0894C35.3666 45.4942 35.3666 46.9869 35.2835 48.4796C35.2835 48.9186 35.2835 49.2699 35.2835 49.6211C35.2835 50.2357 35.2835 51.2016 35.0341 52.2552C35.3666 51.7284 35.7821 51.1138 36.0315 50.4991L37.112 48.2162Z" fill="#BCBCBB"/>
<path d="M16.8285 30.5652C17.0778 31.9701 16.9947 33.3749 16.496 34.692C16.3298 35.2188 16.0804 35.6579 15.8311 36.1847C15.6648 36.5359 15.4986 36.8871 15.2493 37.2384C15.083 37.5018 14.9168 37.6774 14.7506 37.9408C14.5012 38.3798 14.4181 38.8188 14.2519 39.2579C14.0857 39.9603 13.8363 40.7506 13.6701 41.453C12.839 38.9945 12.839 36.2725 13.7532 33.814C14.0026 33.1993 14.2519 32.5847 14.5012 31.9701C14.6675 31.4432 14.7506 30.8286 14.9168 30.214C14.9999 29.6871 15.083 29.0725 15.2493 28.5457C15.3324 28.2823 15.3324 27.931 15.4986 27.6676C15.4986 27.5798 15.5817 27.3164 15.6649 27.3164C15.748 27.3164 15.8311 27.5798 15.9142 27.6676C16.1635 28.2823 16.4129 28.8969 16.6622 29.5115C16.6622 29.8627 16.7453 30.214 16.8285 30.5652Z" fill="#BCBCBB"/>
<path d="M10.9279 47.2484C11.1773 47.7753 11.5097 48.2143 11.7591 48.7411C11.9253 49.1801 12.0915 49.6192 12.3409 50.0582C12.5071 50.4094 12.7564 50.7606 13.0058 51.1118C14.5018 53.3948 15.8317 55.9411 17.9926 57.5216C18.8238 58.1362 19.738 58.5753 20.403 59.3655C19.3225 58.9265 18.3251 58.5753 17.2446 58.1362C16.7459 57.9606 16.2472 57.6972 15.8317 57.5216C14.0032 56.5558 12.5902 54.7118 12.0084 52.6923C11.9253 52.4289 11.8422 52.1655 11.7591 51.9021C11.5928 51.3753 11.2604 50.8484 11.011 50.3216C10.5955 49.3558 10.263 48.3899 10.0968 47.424C10.0137 46.8972 9.93054 46.3704 9.93054 45.8436C9.93054 45.7558 9.93054 45.5801 9.93054 45.4923C9.93054 45.4045 9.93054 45.2289 9.93054 45.1411C10.0137 45.0533 10.0137 45.2289 10.0137 45.3167C10.0968 45.4045 10.0968 45.5801 10.1799 45.6679C10.4292 46.1948 10.6786 46.7216 10.9279 47.2484Z" fill="#BCBCBB"/>
<path d="M19.9014 56.7321C20.0676 56.9077 20.2338 57.1711 20.3169 57.3467C20.8156 56.2052 20.8156 55.9418 21.4805 54.3613C20.4832 55.5028 20.4832 55.6784 19.9014 56.7321Z" fill="black"/>
<path d="M21.0673 58.3998C21.0673 58.4876 21.1504 58.4876 21.1504 58.5754C21.1504 58.5754 21.1504 58.6632 21.2335 58.6632C21.3166 58.751 21.3997 58.8388 21.4828 58.9266C21.5659 59.0144 21.5659 59.0144 21.6491 59.1022C21.6491 59.0144 21.6491 58.8388 21.6491 58.8388L22.2309 57.6095C22.3971 57.1705 22.8127 55.7656 22.7295 55.7656C21.9815 56.9949 21.8153 57.1705 21.0673 58.312C21.0673 58.312 21.0673 58.312 21.0673 58.3998Z" fill="black"/>
<path d="M22.8135 25.5625C22.5641 25.6503 22.3979 25.8259 22.1486 25.9137C23.1459 26.704 23.3953 26.704 24.7251 27.7576C23.8108 26.3527 23.6446 26.2649 22.8135 25.5625Z" fill="black"/>
<path d="M21.569 26.0859C21.4858 26.0859 21.4858 26.0859 21.4027 26.1737H21.3196C21.2365 26.2615 21.0703 26.3494 20.9872 26.3494C20.904 26.3494 20.904 26.4372 20.8209 26.4372C20.904 26.4372 20.9872 26.4372 21.0703 26.525L22.1508 27.403C22.5663 27.6664 23.813 28.3689 23.813 28.2811C22.8157 27.3152 22.6494 27.0518 21.7352 26.0859C21.6521 26.1737 21.6521 26.0859 21.569 26.0859Z" fill="black"/>
<path d="M45.503 46.2829C45.4199 45.6683 45.3368 45.1415 45.1705 44.5268C45.0874 44.2634 45.0043 44 44.9212 43.6488C44.8381 43.561 44.8381 43.3854 44.755 43.2976C44.6719 43.2098 44.6719 43.0341 44.5887 42.9463C44.5056 42.6829 44.3394 42.5073 44.2563 42.3317C44.0901 42.1561 44.0069 41.9805 43.8407 41.8049C43.0927 40.7512 42.6771 39.4341 42.4278 38.0293C42.1784 36.4488 42.3447 34.7805 42.5109 33.639L42.9265 30.5659L41.5135 33.2878C40.9317 34.4293 40.1837 35.4829 39.2694 36.361C38.8538 34.6049 39.0201 32.6732 39.1863 30.9171L39.5188 26.7902C39.6019 25.8244 39.685 24.6829 39.3525 23.5415C38.937 22.1366 38.7707 22.1366 37.7734 21.1707L36.1942 20.0293L37.0253 21.8732C37.1916 22.1366 37.2747 22.5756 37.2747 22.839C37.2747 23.1902 37.1916 23.4537 37.1084 23.8927C36.9422 24.8585 36.4435 25.8244 35.6955 26.5268C35.6124 26.6146 35.4461 26.7024 35.363 26.878C34.9475 27.2293 34.5319 27.6683 34.2825 28.2829C34.1163 28.6341 34.1163 28.9854 34.1163 29.5122C34.1163 29.6 34.1163 29.6878 34.1163 29.7756C33.867 29.4244 33.7007 28.9854 33.6176 28.4585C33.4514 27.4049 33.6176 26.2634 33.867 25.3854C33.9501 25.0341 34.0332 24.7707 34.1163 24.4195C34.2825 23.6293 34.5319 22.9268 34.615 22.0488C34.9475 19.678 34.3657 17.2195 32.9527 15.2C32.6203 14.761 32.2878 14.322 31.9553 13.8829C30.7917 12.478 29.6281 11.0732 28.049 10.0195C27.2178 9.49268 26.3867 8.96585 25.5555 8.61463L24.2257 8L24.9737 9.40488C25.14 9.7561 25.3062 10.1073 25.4724 10.3707C26.8854 13.7951 27.1347 17.8341 26.0542 21.3463C25.888 21.961 25.6386 22.6634 25.14 23.1902C24.7244 23.6293 24.1426 23.8927 23.5608 24.2439L23.3946 24.3317C22.231 24.9463 20.7349 25.8244 19.7375 27.2293C19.0726 28.1951 18.657 29.6 18.7401 31.0049C18.7401 30.9171 18.657 30.9171 18.657 30.8293C18.4077 30.478 18.2415 30.1268 17.9921 29.6878L17.8259 29.4244C17.5765 28.8976 17.2441 28.3707 16.9116 27.9317C16.4961 27.2293 15.9143 26.5268 15.1662 26.1756L14.1689 25.7366L14.5013 26.878C15 28.722 14.4182 30.478 13.8364 32.4976L13.7533 32.6732C13.2546 34.4293 12.6728 36.361 12.5897 38.3805C11.8416 37.1512 11.343 35.8341 11.0105 34.4293L10.5949 32.5854L10.0131 34.3415C8.84953 37.5902 8.93264 41.278 9.18198 44.7902C9.18198 45.4927 9.2651 46.1951 9.43133 46.9854C9.59756 47.7756 9.93001 48.5659 10.2625 49.3561L10.4287 49.7951C10.5949 50.2341 10.8443 50.761 11.0105 51.2C11.343 52.078 11.6754 52.9561 12.091 53.8341C12.9221 55.4146 13.8364 56.5561 14.9169 57.3463C19.4051 60.4195 24.2257 62 28.797 62C29.1295 62 29.4619 62 29.7113 62C31.4567 61.9122 33.1189 61.561 34.6981 61.0341C35.2799 60.8585 35.6955 60.6829 36.1942 60.4195C38.6045 59.2781 40.5992 57.2585 42.3447 55.5024C43.342 54.5366 43.9238 53.3073 44.5887 52.078C44.755 51.8146 44.8381 51.5512 44.9212 51.2878C45.0043 50.9366 45.0874 50.6732 45.2537 50.322C45.3368 50.1463 45.3368 49.9707 45.4199 49.7951V49.7073C45.4199 49.6195 45.503 49.4439 45.503 49.2683C45.503 49.1805 45.503 49.0927 45.503 48.9171C45.503 48.6537 45.5861 48.3902 45.5861 48.039C45.6692 47.4244 45.5861 46.8976 45.503 46.2829ZM44.5887 47.9512C44.5887 48.2146 44.5887 48.4781 44.5056 48.7415C44.5056 48.9171 44.5056 49.0049 44.5056 49.0927C44.5056 49.1805 44.5056 49.1805 44.4225 49.2683L44.3394 49.4439C44.3394 49.6195 44.2563 49.7951 44.1732 49.9707C44.0901 50.2341 44.0069 50.5854 43.9238 50.8488C43.8407 51.1122 43.7576 51.2878 43.6745 51.5512C43.0927 52.7805 42.5109 53.8341 41.6797 54.7122C39.9343 56.4683 38.0227 58.4 35.7786 59.4537C35.363 59.6293 34.9475 59.8049 34.3657 59.9805C33.0358 60.4195 31.706 60.6829 30.2931 60.8585C25.4724 61.2976 20.2362 59.7171 15.4156 56.3805C14.5013 55.7659 13.6702 54.7122 13.0052 53.3073C12.5897 52.5171 12.2572 51.639 11.9248 50.761C11.7585 50.322 11.5092 49.7951 11.343 49.3561L11.0936 48.8293C10.7612 48.1268 10.5118 47.4244 10.3456 46.722C10.1794 46.1073 10.1794 45.4049 10.0962 44.7902C10.0131 41.9805 9.93001 39.0829 10.5118 36.4488C11.0105 37.9415 11.8416 39.2585 12.7559 40.4878L13.9195 41.8927L13.6702 39.961C13.3377 37.5902 14.0857 35.1317 14.7507 32.9366L14.8338 32.6732C15.3325 31.0927 15.748 29.5122 15.6649 27.9317C15.8311 28.1073 15.9143 28.3707 16.0805 28.5463C16.4129 28.9854 16.6623 29.5122 16.9116 29.9512L17.0779 30.2146C17.3272 30.6537 17.4934 31.0927 17.8259 31.5317C18.1583 31.9707 18.657 32.4976 19.4882 32.6732L20.4855 32.9366L19.9869 31.8829C19.4882 30.7415 19.7375 29.0732 20.5687 27.8439C21.3998 26.6146 22.7296 25.8244 23.8101 25.2098L23.9764 25.122C24.6413 24.7707 25.3062 24.4195 25.8049 23.8049C26.3867 23.1024 26.7191 22.3122 26.8854 21.6098C27.7996 18.6244 27.7996 15.2 27.0516 12.1268C26.8854 11.4244 26.636 10.8098 26.3867 10.1073C26.7191 10.2829 27.1347 10.5463 27.384 10.8098C28.797 11.7756 29.9606 13.1805 31.0411 14.4976C31.3735 14.9366 31.706 15.2878 31.9553 15.7268C33.1189 17.4829 33.7007 19.678 33.3683 21.7854C33.2852 22.4878 33.1189 23.1902 32.8696 23.9805C32.7865 24.3317 32.7034 24.5951 32.6203 24.9463C32.3709 25.9122 32.1216 27.2293 32.3709 28.4585C32.6203 29.8634 33.3683 30.9171 34.4488 31.4439L36.1111 32.4976L35.1137 30.7415C34.9475 30.3024 34.615 29.7756 34.615 29.161C34.615 28.8098 34.7812 28.4585 34.8643 28.1951C35.0306 27.8439 35.363 27.4927 35.6955 27.2293C35.7786 27.1415 36.028 26.7902 36.1111 26.7024C36.9422 25.8244 37.6071 25.2098 37.8565 23.9805C37.9396 23.8049 37.9396 23.5415 37.9396 23.3659C38.0227 23.5415 38.1058 23.6293 38.1058 23.8049C38.3552 24.6829 38.272 25.6488 38.1889 26.6146L37.8565 30.8293C37.6902 32.9366 37.524 35.3073 38.272 37.5024L38.4383 38.0293L38.7707 37.8537L39.4356 37.4146C40.0174 36.8878 40.5992 36.2732 41.0148 35.6585C41.0148 36.4488 41.0148 37.3268 41.0979 38.1171C41.3473 39.7854 41.846 41.278 42.6771 42.4195C42.8433 42.5951 42.9265 42.7707 43.0927 42.9463L43.1758 43.0341C43.2589 43.122 43.342 43.2098 43.342 43.2098C43.4251 43.3854 43.5083 43.561 43.5083 43.6488C43.5914 43.7366 43.5914 43.8244 43.6745 43.9122C43.7576 44.1756 43.8407 44.439 43.9238 44.7024C44.0901 45.2293 44.1732 45.7561 44.2563 46.2829C44.5887 46.9854 44.5887 47.5122 44.5887 47.9512Z" fill="black"/>
<path d="M19.4041 21.5228C19.5704 20.996 19.9028 20.5569 20.1522 20.0301C20.4846 19.4155 20.734 18.713 20.8171 18.0106C20.9833 16.9569 20.8171 15.9033 20.6508 14.8496C21.0664 15.8155 21.3989 16.9569 21.482 18.0106C21.5651 18.6252 21.5651 19.152 21.3158 19.6789C21.0664 20.2935 20.5677 20.6447 20.2353 21.1716C19.8197 21.7862 19.6535 22.4886 19.5704 23.1911C19.5704 23.3667 19.4872 23.6301 19.4872 23.8057C19.4041 23.5423 19.321 23.2789 19.2379 22.9277C19.1548 22.6642 19.1548 22.313 19.1548 22.0496C19.321 21.9618 19.321 21.7862 19.4041 21.5228Z" fill="black"/>
<path d="M42.2632 24.3318C42.5125 22.8391 41.9307 21.2587 41.0165 20.1172C41.5983 20.5562 42.097 20.9952 42.5957 21.6099C43.0943 22.2245 43.4268 22.8391 43.4268 23.6294C43.4268 24.1562 43.2606 24.683 43.0112 25.2099C42.7619 25.7367 42.5125 26.1757 42.2632 26.7026C42.1801 26.966 42.097 27.2294 42.0139 27.4928C42.0139 27.5806 41.9307 28.0196 41.9307 28.0196C41.8476 28.0196 41.8476 27.6684 41.8476 27.5806C41.8476 27.3172 41.7645 27.1416 41.8476 26.8782C41.9307 26.1757 42.1801 25.4733 42.3463 24.7708C42.1801 24.5074 42.1801 24.4196 42.2632 24.3318Z" fill="black"/>
<path d="M12.6726 28.2818C12.5895 27.755 12.3402 27.316 12.0908 26.877C12.1739 27.4038 12.1739 27.9306 12.2571 28.5452C12.2571 28.7209 12.2571 28.8965 12.2571 29.0721C12.2571 29.2477 12.2571 29.5111 12.1739 29.6867C12.0908 30.0379 12.0077 30.2135 12.0908 30.5648C12.0908 30.6526 12.1739 31.5306 12.1739 31.5306C12.1739 31.5306 12.4233 30.5648 12.5064 30.3891C12.5895 30.0379 12.7557 29.7745 12.7557 29.4233C12.8389 29.0721 12.7557 28.6331 12.6726 28.2818Z" fill="black"/>
<path d="M44.8399 37.0638C44.7568 36.8003 44.5906 36.5369 44.5075 36.2735C44.2581 35.6589 44.3412 34.9564 44.3412 34.3418C44.175 34.693 44.0088 35.0442 44.0088 35.3955C43.9257 36.0101 43.8425 36.7125 44.0919 37.2394C44.175 37.415 44.2581 37.6784 44.3412 37.854C44.4243 38.1174 44.5075 38.3808 44.5906 38.5564C44.5906 38.6442 44.6737 38.8198 44.6737 38.9955C44.6737 39.0833 44.7568 39.5223 44.7568 39.5223C44.8399 39.5223 44.923 38.732 45.0061 38.6442C45.0061 38.3808 45.0061 38.1174 45.0061 37.854C45.0061 37.5906 44.923 37.3272 44.8399 37.0638Z" fill="black"/>
<path d="M36.0268 50.2349C35.6944 50.8495 35.3619 51.4641 35.0295 51.9909C35.2788 50.9373 35.2788 49.9714 35.2788 49.3568C35.2788 49.0056 35.2788 48.5666 35.2788 48.2153C35.2788 46.7227 35.2788 45.23 35.1126 43.8251L34.8632 42.4202L34.1152 43.6495C33.949 44.0007 33.2009 45.1422 32.9516 45.4934C32.9516 45.4056 33.2009 44.1763 33.2009 44.0885C33.1178 42.8592 32.2867 42.3324 31.5387 41.63C30.8737 41.0153 30.4582 40.2251 29.8764 39.5227C29.5439 39.1714 29.2946 38.8202 29.0452 38.469C28.7128 38.03 28.4634 37.5031 28.131 36.7129C27.8816 36.0983 27.6323 35.308 27.5492 34.5178C27.466 33.4641 27.7985 32.147 28.4634 31.0934L29.627 29.3373L30.0426 28.7227L27.8816 30.3909C25.222 32.3227 23.5597 35.3958 23.4766 38.3812C23.4766 39.2592 23.5597 40.0495 23.6428 40.8397C23.6428 41.1031 23.7259 41.4544 23.7259 41.7178C23.7259 41.8056 23.9752 43.4739 23.9752 43.5617C23.8921 43.3861 23.6428 42.4202 22.9779 41.191C22.5623 40.5763 22.3961 40.4007 21.8143 39.9617L21.3156 39.5227L21.0662 40.1373C20.4844 41.7178 19.8195 43.5617 19.9026 45.4056C19.9026 46.0202 19.9857 46.6349 20.152 47.0739C20.4013 48.3031 20.6507 49.3568 20.9831 50.2349C20.4844 50.147 20.0689 49.9714 19.7364 49.708C19.4039 49.4446 19.3208 49.0056 19.0715 48.5666V48.4788C18.9884 48.3031 18.8221 47.5129 18.6559 46.8105L18.2403 45.23L17.7417 47.9519C17.7417 48.0397 17.5754 48.83 17.5754 48.9178C17.5754 49.4446 17.4923 50.147 17.4923 50.6739C17.4923 51.9909 17.5754 52.2544 17.7417 53.2202C17.9079 54.2739 18.1572 55.2397 18.5728 56.1178C19.0715 57.1714 19.5702 57.8739 20.152 58.4885C20.7338 59.1031 21.3987 59.63 22.1467 60.3324C22.8116 60.947 24.3908 61.3861 25.222 61.4739C25.5544 61.5617 25.97 61.6495 26.3024 61.6495C26.718 61.7373 27.1336 61.5617 27.6323 61.5617H27.7154C29.2946 61.5617 30.7075 60.9471 31.8711 60.4202C32.2036 60.2446 32.6191 60.069 32.9516 59.8056C33.2841 59.5422 33.5334 59.191 33.7827 58.8397C34.7801 57.6105 35.8606 56.2934 36.3593 54.6251C36.858 53.2202 36.9411 51.7275 36.9411 50.3227L37.0242 47.9519L36.0268 50.2349ZM35.3619 54.4495C34.8632 55.8544 33.8659 57.0836 32.9516 58.3129C32.7023 58.5763 32.536 58.8397 32.2036 59.1031C31.9542 59.2788 31.6218 59.4544 31.2893 59.63C30.2919 60.069 29.2946 60.947 27.8816 60.947L27.3829 60.8592C26.9674 60.8592 26.8011 60.8592 26.3856 60.7714C26.2193 60.7714 25.3051 60.5958 25.0557 60.508C24.3908 60.4202 23.8921 60.1568 23.3934 59.8934C22.5623 59.4544 21.8143 58.8397 21.1493 58.2251C20.4013 57.5227 19.8195 56.6446 19.4039 55.6788C19.0715 54.8885 18.8221 54.0983 18.6559 53.1324C18.4897 52.2544 18.3235 50.9373 18.3235 49.708V49.1812C18.4897 49.4446 18.5728 50.2348 18.9884 50.5861C19.7364 51.2007 20.6507 51.4641 21.7311 51.3763L22.4792 51.2885L22.1467 50.5861C21.648 49.6202 21.3156 48.4788 21.0662 46.9861C20.9831 46.547 20.9 46.0202 20.9 45.4934C20.8169 44.0885 21.3156 42.5958 21.8143 41.2788C22.1467 41.5422 22.3961 41.8056 22.6454 42.1568C23.2272 43.0349 23.3934 44.2641 23.5597 45.3178L23.8921 47.5129L24.6402 45.4056C25.0557 44.0885 24.9726 42.508 24.8895 41.63L24.8064 40.7519C24.7233 40.3129 24.6402 38.7324 24.6402 38.3812C24.6402 36.4495 25.4713 34.5178 26.8842 32.8495C26.718 33.4641 26.718 34.0788 26.718 34.6934C26.8011 35.6592 27.1336 36.5373 27.3829 37.1519C27.7154 37.9422 28.0478 38.5568 28.3803 39.0836C28.6296 39.5227 28.9621 39.8739 29.2946 40.2251C29.8764 40.9275 30.5413 41.63 31.2062 42.2446C31.788 42.8592 32.4529 43.4739 32.536 44.2641C32.536 45.0544 31.9542 45.7568 31.5387 46.6349L30.8737 47.6007L31.4555 47.4251C31.7049 47.3373 31.9542 47.2495 32.2036 47.0739C32.3698 46.9861 32.536 46.8983 32.6191 46.8105C32.8685 46.7227 33.1178 46.547 33.2841 46.3714C33.4503 46.1958 33.6165 46.108 33.6996 45.9324C33.8659 45.7568 34.0321 45.4934 34.1983 45.3178C34.2814 46.1958 34.2814 47.1617 34.2814 48.1275C34.2814 48.5666 34.2814 48.9178 34.2814 49.3568C34.2814 51.2885 33.8659 53.0446 33.1178 54.1861L30.9569 57.4349L33.8659 54.8885C34.6139 54.2739 35.2788 53.4836 35.8606 52.6056C35.6944 53.308 35.6113 53.8349 35.3619 54.4495Z" fill="black"/>
<path d="M3.90002 78.2C3.40002 76.5 3.50002 75.4 4.20002 74.3C7.80002 68.3 11.5 62.4 15.1 56.4C16.8 53.6 18.3 50.7 19.9 47.8C22.4 43.4 25 39 27.6 34.6C29.5 31.4 31.2 28.1 33.3 25.1C37.7 18.7 42.2 12.4 46.8 6.1C48.1 4.3 49.7 2.7 51.1 1C51.4 0.6 51.8 0.4 52.3 0C53.1 1.2 52.6 1.9 51.9 2.6C44.3 10.1 38.6 18.9 33.1 27.9C30.5 32.1 27.9 36.3 25.5 40.5C21.9 46.7 18.5 53 15 59.2C12.3 63.9 9.40002 68.5 6.60002 73.1C5.60002 74.6 4.90002 76.2 3.90002 78.2Z" fill="#F15748"/>
</svg>
