<svg width="56" height="78" viewBox="0 0 56 78" fill="none" xmlns="http://www.w3.org/2000/svg">
<path d="M56 40.9098C55.656 43.1779 55.269 45.6287 54.9251 48.0903C54.4951 51.1861 52.7537 53.6477 50.8188 55.8728C48.5077 58.5387 45.8204 60.796 42.5526 62.4299C37.7906 64.8163 32.7277 65.7622 27.568 66.0202C20.5272 66.3642 14.2495 64.1821 8.64913 59.6996C4.62888 56.4856 2.53276 52.1751 0.468882 47.7463C0.114154 46.9939 -0.0578355 46.0479 0.0174099 45.2202C0.286144 42.1674 0.17865 38.9319 1.18909 36.1263C2.50051 32.493 3.54319 28.7307 5.73606 25.3555C8.09017 21.7544 10.8205 18.6586 14.314 16.2723C17.3454 14.1976 20.7099 12.7895 24.4507 12.5422C25.0204 12.51 25.6008 12.4885 26.1706 12.3917C34.9958 10.8868 42.0688 14.4449 48.368 20.1205C52.098 23.4743 53.7104 28.032 54.8821 32.6973C55.5485 35.2771 55.6345 38.0074 56 40.9098ZM54.0006 40.6948C54.2049 33.8367 52.3237 27.5268 47.6693 22.2381C43.4555 17.4439 38.0163 14.4449 31.728 13.9289C25.7836 13.4452 20.1832 15.2188 15.3675 19.0671C9.72407 23.5711 5.9403 29.451 3.40345 36.0081C2.27477 38.9319 1.8233 42.5329 2.37152 45.5965C3.80118 53.508 8.82112 59.0331 16.1737 62.0322C24.3969 65.3753 32.6954 64.8055 40.7252 61.0755C49.3032 57.0875 54.3231 50.7024 54.0006 40.6948Z" fill="#EB584A"/>
<path d="M24.7806 58.5395C22.5017 58.088 20.2659 56.9593 18.9759 55.0352C18.3632 54.1215 17.987 52.9821 18.245 51.9072C18.4492 51.0472 19.0619 50.2947 19.1372 49.4133C19.2447 48.2201 18.374 47.1882 17.729 46.1777C16.9228 44.9201 16.3961 43.4904 16.1919 42.0178C16.1166 41.4803 16.0951 40.8783 16.4068 40.4269C16.7616 39.9109 17.4603 39.7281 17.8688 39.2552C18.6642 38.32 17.9763 36.9226 17.5463 35.7724C17.0303 34.3857 16.9336 32.8486 17.2775 31.4189C17.3528 31.1179 17.4495 30.8062 17.686 30.6127C17.8473 30.4837 18.0622 30.4192 18.245 30.3225C19.0512 29.8817 19.2017 28.8068 19.2124 27.8824C19.2339 25.8937 19.0297 23.9051 18.632 21.9595C18.5352 21.4758 18.417 20.9813 18.503 20.4976C18.6535 19.6269 19.4059 19.0142 19.9219 18.2832C21.5235 16.0258 20.8893 12.5968 22.8242 10.6297C22.9639 10.4899 23.1359 10.3502 23.3294 10.3609C23.4799 10.3717 23.6089 10.4577 23.7164 10.5437C25.4363 11.8981 26.049 14.1662 26.9197 16.1656C27.0165 16.3913 27.1239 16.6171 27.3174 16.7675C27.5432 16.9503 27.8549 17.004 28.1451 17.0793C29.3706 17.4233 30.2843 18.5089 30.6927 19.7236C31.1012 20.9275 31.0582 22.239 30.897 23.4966C30.8217 24.1093 30.7142 24.7543 30.94 25.3348C31.1657 25.9152 31.8537 26.356 32.4126 26.0765C32.9393 28.8176 33.4768 31.6124 34.7667 34.0955C35.4977 35.5037 36.4866 36.8796 36.5619 38.4705C36.5941 39.0939 36.4759 39.7174 36.5511 40.3301C36.6264 40.9428 36.9596 41.5878 37.5616 41.7598C38.0345 41.8995 38.5612 41.706 39.0235 41.8565C39.4427 41.9855 39.7329 42.3725 39.9157 42.7702C40.5391 44.1246 40.1951 45.7048 39.8404 47.1559C39.2277 49.6713 38.6042 52.2296 37.3251 54.487C36.2824 56.3359 34.2293 58.948 31.8859 59.0017C29.65 59.077 26.9842 58.9802 24.7806 58.5395Z" fill="white"/>
<path d="M29.8523 58.6681C29.2719 55.798 23.048 48.854 20.7476 53.6804C17.9421 59.5388 30.0028 59.4313 29.8523 58.6681Z" fill="#BCBCBB"/>
<path d="M36.958 54.9162C38.1297 53.379 38.5382 51.4226 38.9144 49.5415C39.1616 48.3376 39.3981 47.0476 38.9896 45.8867C36.3883 48.0473 34.7974 51.1216 33.5612 54.2067C33.2065 55.0882 31.8306 57.367 33.357 57.625C34.5932 57.84 36.3238 55.7439 36.958 54.9162Z" fill="#BCBCBB"/>
<path d="M24.3936 48.4886C23.4584 48.3273 22.5017 48.2521 21.631 47.8651C20.771 47.4781 19.9971 46.7042 19.9648 45.7583C19.9648 45.683 19.9648 45.6185 19.9971 45.554C20.0401 45.4895 20.1153 45.4573 20.2013 45.4358C20.5238 45.3498 20.8785 45.425 21.201 45.5003C22.5662 45.8227 25.7265 45.9625 26.7477 46.8977C27.1562 47.2739 27.5109 48.5208 26.9734 48.9186C26.5004 49.284 24.9633 48.5853 24.3936 48.4886Z" fill="#BCBCBB"/>
<path d="M30.9048 49.101C32.4527 48.5528 33.9146 47.6176 34.796 46.2309C35.6775 44.8442 35.8817 42.9631 35.0218 41.5657C34.9788 41.4904 34.925 41.4152 34.8498 41.3722C34.7638 41.3292 34.6671 41.3292 34.5703 41.34C33.4631 41.4475 32.6139 42.3289 31.8722 43.1458C30.9585 44.1563 30.0341 45.1775 29.1204 46.1879C28.8517 46.4889 28.5507 46.8651 28.6474 47.2628C28.6904 47.4671 28.8409 47.6391 28.9699 47.8003C29.2279 48.0905 29.4751 48.3808 29.7331 48.6818C29.9373 48.9182 30.1631 49.1655 30.4748 49.2407C30.7435 49.3052 31.0338 49.2192 31.3025 49.1332C32.055 48.8752 32.7859 48.5635 33.4954 48.198" fill="#BCBCBB"/>
<path d="M22.8966 39.6954C21.7035 39.0505 20.607 38.212 19.6718 37.2231C19.5214 37.0618 19.3601 36.8253 19.4784 36.6426C19.5321 36.5566 19.6288 36.5136 19.7148 36.4706C20.3705 36.1804 21.0478 35.8794 21.7572 35.9009C23.4449 35.9546 24.8853 37.8035 26.5084 37.3306C27.2071 37.1263 27.7124 36.5244 28.2606 36.0406C28.9485 35.4279 29.7655 34.9765 30.6362 34.697C30.7544 34.6647 30.8727 34.6325 30.9909 34.6647C31.1091 34.697 31.1844 34.8045 31.2489 34.9012C31.5929 35.4709 31.4746 36.2126 31.1414 36.7823C30.8082 37.3521 30.2814 37.782 29.7655 38.1905C27.6909 39.8889 25.455 41.0821 22.8966 39.6954Z" fill="#BCBCBB"/>
<path d="M26.1457 30.8699C25.103 31.5471 23.9205 32.2566 22.7059 32.0308C21.6094 31.8266 20.771 30.8914 20.3733 29.8487C20.1045 29.15 19.997 28.3545 20.212 27.6343C20.255 27.4838 20.3303 27.3119 20.4808 27.2581C20.642 27.2044 20.814 27.3011 20.9645 27.3979C22.5446 28.376 24.716 28.3008 26.2317 27.2151C26.4036 27.0969 26.5756 26.9571 26.7906 26.9249C27.1561 26.8819 27.4786 27.1936 27.6291 27.5376C27.9408 28.2578 27.7581 29.107 27.3388 29.7735C26.9304 30.4399 26.3069 30.9451 25.7049 31.4396C25.4792 31.6223 25.2535 31.8158 24.974 31.9018C24.6945 31.9986 24.3613 31.9663 24.157 31.7621" fill="#BCBCBB"/>
<path d="M21.761 19.8943C22.0297 19.1311 22.9756 18.9054 23.7711 18.7979C23.9538 18.7764 24.1366 18.7441 24.3086 18.8086C24.4483 18.8624 24.5558 18.9591 24.6633 19.0666C25.2222 19.6256 25.6415 20.3888 25.534 21.1627C24.9858 25.226 20.944 22.1839 21.761 19.8943Z" fill="#BCBCBB"/>
<path d="M12.6768 35.7289C13.0315 36.1803 13.4185 36.6211 13.7302 37.1048C15.2351 39.3622 15.6436 39.5341 18.5029 39.1042C17.5677 36.8038 16.5895 34.5142 15.7188 32.1923C14.8804 29.935 13.1497 28.0538 12.8165 25.1193C13.3325 25.6352 13.6227 25.8502 13.7947 26.119C14.2569 26.8392 14.6439 27.6131 15.1169 28.3333C16.3315 30.1607 16.4283 30.1822 18.7824 29.591C16.9765 22.9909 16.7078 16.2511 16.7615 9.30699C18.1159 9.53272 18.0729 10.3497 18.1159 11.1129C18.2019 12.8328 18.2342 14.5527 18.3739 16.2618C18.4814 17.5302 18.8899 18.7127 20.0723 19.6909C20.1583 19.2609 20.2981 18.9599 20.2658 18.6804C19.9218 16.2833 20.6098 14.0904 21.545 11.9513C21.9427 11.0269 22.0824 10.2959 21.803 9.19949C21.3085 7.21086 21.3622 5.08249 21.373 3.01862C21.5127 2.98637 21.6525 2.95412 21.7922 2.92188C21.9427 3.21211 22.1792 3.50234 22.2329 3.81407C22.3834 4.66327 22.4372 5.52322 22.5554 6.37241C22.7167 7.65159 22.8134 8.75877 24.1463 9.72621C25.2643 10.5324 25.7265 12.2631 26.4252 13.6067C26.7477 14.2302 26.9304 14.9181 27.2959 15.8963C28.2848 14.7139 28.3063 13.5637 28.6825 12.5533C29.048 11.5751 28.7255 10.2959 30.2412 9.33923C30.1445 10.2314 30.1015 10.7689 30.0155 11.2956C29.7682 12.9403 29.6285 14.5097 30.4562 16.1221C30.9077 17.0035 30.8539 18.1752 30.8754 19.2179C30.9077 21.1098 30.8109 23.0017 30.7679 25.0333C32.0578 24.915 32.3481 24.0873 32.6598 23.3134C33.1113 22.2062 33.4983 21.0775 33.9605 19.9811C34.1217 19.6049 34.4227 19.2931 35.0139 19.1104C34.5839 21.056 33.9175 22.9802 33.7992 24.9473C33.681 26.9574 34.1002 28.9998 34.3152 31.2679C34.9709 29.935 35.5406 28.774 36.1103 27.6131C36.2608 27.6669 36.4113 27.7099 36.5618 27.7636C36.4973 28.2366 36.5081 28.7418 36.3361 29.1825C35.5299 31.2142 35.3794 33.192 36.0351 35.3526C36.6263 37.266 36.7983 39.3192 37.1315 41.2003C37.8302 40.9423 38.7224 40.7273 39.4641 40.2758C39.9801 39.9641 40.3563 39.3514 40.7003 38.8139C41.399 37.7175 42.0332 36.5888 42.6997 35.4709C42.8502 35.5354 43.0007 35.5999 43.1619 35.6644C42.9899 36.1588 42.8179 36.6533 42.6244 37.137C42.3987 37.6853 42.1407 38.2227 41.9042 38.7709C41.3345 40.0931 40.5176 41.3723 41.27 42.8879C40.8401 45.7473 41.0765 48.7141 39.7436 51.4122C39.5071 51.8851 39.3029 52.3796 39.1309 52.8741C38.1312 55.7334 36.2931 57.9263 33.595 59.5924C34.4549 61.5058 34.8312 63.5374 36.1641 65.1821C37.4325 66.73 38.6687 68.3101 39.9264 69.8795C39.2707 70.5675 38.7762 70.03 38.3785 69.6753C36.3576 67.9232 34.7774 65.8163 33.7347 63.3332C33.2295 62.1293 32.6813 60.9361 32.2406 59.9364C31.8106 59.8074 31.6709 59.6999 31.5741 59.7322C28.919 60.6351 26.3177 59.9472 23.7808 59.2699C22.5662 58.9367 21.4697 58.0768 20.3841 57.3458C19.6208 56.8298 18.9006 56.2064 18.3094 55.4969C16.6003 53.433 14.5257 51.8206 12.3005 50.3695C11.7416 50.004 10.9784 49.6493 11.4298 48.4024C12.4188 49.0796 13.3325 49.6278 14.1709 50.2942C15.0416 50.9929 15.8156 51.0789 16.8905 50.5952C18.1052 50.0363 19.4811 49.832 20.9645 49.4235C20.5453 49.0581 20.0938 48.6496 19.6208 48.2626C18.2772 47.1554 17.084 45.9515 16.5573 44.2209C15.8478 41.9098 14.2677 40.0824 13.0315 38.0722C12.6445 37.4488 12.408 36.7286 12.0963 36.0406C12.3113 35.9439 12.494 35.8364 12.6768 35.7289ZM25.447 29.9457L25.4577 29.892C25.0708 30.7519 25.2105 31.5366 25.7265 32.3321C29.0373 28.7526 30.0155 24.4851 29.822 19.8521C29.779 18.7234 30.1015 17.4765 29.005 16.5843C27.1239 18.0462 25.1783 22.7114 25.4685 24.9688C26.0167 24.4206 26.5434 23.8831 27.0809 23.3564C26.8444 24.3561 26.4144 25.2483 25.7372 25.8825C25.1245 26.4629 24.931 27.0649 25.0385 27.8066C25.146 28.5268 25.318 29.2363 25.447 29.9457ZM21.6095 56.5826C21.889 55.7872 22.018 55.1959 22.2867 54.68C22.5124 54.2393 22.5554 53.5405 23.3724 53.4223C22.1254 56.8728 22.1254 56.8728 23.6519 57.5823C24.1141 56.8728 24.5978 56.1419 25.0708 55.4217C25.1353 55.4539 25.1998 55.4969 25.275 55.5292C25.0385 56.3246 24.802 57.1201 24.4688 58.238C26.8982 58.3025 29.0803 59.7537 31.4774 58.2703C30.6927 55.8194 29.9725 53.562 29.2953 51.4229C28.2741 51.2617 27.5001 51.0252 26.7369 51.0467C24.0388 51.0897 21.33 51.1434 18.6319 51.3584C17.471 51.4552 17.213 52.2291 17.8795 53.1858C18.7717 54.4972 19.8143 55.6689 21.6095 56.5826ZM39.5501 42.0065C38.4537 41.598 37.798 42.3612 37.2605 43.0599C35.8094 44.9303 34.4227 46.8652 33.036 48.7893C32.6276 49.359 32.4341 49.9933 31.4451 49.9825C30.6067 49.961 30.3057 50.692 30.6067 51.5734C31.1119 53.0676 31.5311 54.594 32.0256 56.0989C32.1653 56.5074 32.4448 56.8621 32.6491 57.2168C37.4433 55.7227 40.3456 48.2411 39.5501 42.0065ZM26.1242 41.8453C25.2428 41.7915 24.587 41.813 23.9636 41.684C23.2541 41.5335 22.5662 41.2863 21.889 41.0283C20.1583 40.3403 18.4599 40.5983 16.396 40.9316C17.127 42.372 17.6967 43.5114 18.3739 44.8336C18.4814 44.3176 18.5459 44.0596 18.6857 43.3824C19.0941 45.9945 20.2228 47.6392 22.3727 48.3271C24.2968 48.9398 26.1994 50.1975 28.5106 49.0581C27.6936 46.5857 26.9089 44.2209 26.1242 41.8453ZM34.4227 34.6539C32.6061 35.5784 32.4663 37.5563 31.3054 38.7709C30.1552 39.9749 29.0265 41.211 27.7366 42.587C27.8548 43.0707 28.0376 43.8231 28.2741 44.7476C28.9513 44.1241 29.478 43.6404 30.0047 43.1567C28.747 46.0697 28.747 46.0697 29.5317 46.9297C29.9402 46.489 30.3487 46.0375 30.9399 45.4033C30.7034 46.833 29.2523 47.5209 29.8865 49.0581C30.4884 48.7678 31.1656 48.6496 31.4881 48.2411C32.8748 46.4997 34.5194 44.8443 35.3901 42.8557C36.5726 40.1576 35.8524 37.352 34.4227 34.6539ZM27.4034 40.4693C29.1233 38.3087 30.6819 36.3738 32.2191 34.4282C32.3373 34.2777 32.4233 34.0842 32.4986 33.9015C33.423 31.3109 33.0683 28.7955 32.3696 26.2157C31.1441 26.5382 30.5852 27.1831 30.1337 28.0646C29.3705 29.591 28.4568 31.0422 27.6721 32.5578C27.3174 33.235 27.1346 33.9982 26.9089 34.6217C26.8229 34.5464 26.5972 34.3315 26.3714 34.1165C26.2747 34.1917 26.1887 34.267 26.092 34.3422C26.6187 35.2667 27.1346 36.1911 27.6399 37.0833C27.1561 37.2338 26.9412 37.309 26.6832 37.395C26.9304 38.4592 27.1561 39.4052 27.4034 40.4693ZM26.0275 40.4156C25.5437 38.3732 25.3717 36.6963 24.7268 35.2237C24.3183 34.2992 23.2541 33.622 22.4157 32.9448C21.9212 32.5471 21.201 32.4181 20.685 32.0204C19.5779 31.1604 18.4492 31.0852 17.0088 31.6011C17.428 34.138 18.4492 36.2556 20.2228 38.2442C20.7603 37.2445 21.158 36.5136 21.545 35.7934C21.6202 36.6533 21.3407 37.3305 21.2333 38.0292C21.1795 38.4055 21.33 39.0289 21.588 39.1794C21.8675 39.3407 22.4049 39.1042 22.7919 38.9537C23.0176 38.8677 23.1466 38.5775 23.3401 38.4055C23.3939 38.3625 23.5336 38.4377 23.6411 38.4592C23.5336 38.8999 23.4369 39.3407 23.2864 39.9964C24.1141 40.1146 24.8343 40.2221 26.0275 40.4156ZM23.1359 10.9624C22.6092 12.607 22.1254 13.8862 21.7922 15.2084C20.9968 18.4547 20.8678 21.5827 23.8453 23.8938C24.2753 22.7437 24.5011 21.443 25.1675 20.4433C26.9197 17.842 25.5867 13.7142 23.1359 10.9624ZM18.2772 20.6475C18.7179 23.0661 19.0726 25.3128 19.5456 27.5379C20.0078 29.7415 21.4267 31.0422 23.6411 31.4936C24.1463 26.4307 22.7167 23.4424 18.2772 20.6475Z" fill="black"/>
<path d="M3.88783 77.9414C3.38261 76.243 3.52235 75.1359 4.16731 74.0717C7.78984 68.1488 11.4554 62.2581 15.0349 56.303C16.7118 53.5082 18.1845 50.5951 19.8076 47.768C22.323 43.3823 24.8813 39.0073 27.4396 34.6431C29.31 31.4613 31.0514 28.1935 33.1368 25.1622C37.501 18.7985 42.0158 12.5532 46.552 6.30781C47.8526 4.51267 49.4006 2.87877 50.8517 1.19112C51.1634 0.836395 51.5612 0.567662 52.0449 0.148438C52.8188 1.32012 52.3674 2.07257 51.6794 2.76053C44.1656 10.1776 38.5007 18.992 32.9433 27.8602C30.342 31.9987 27.7944 36.1802 25.3543 40.4155C21.807 46.5856 18.4317 52.8632 14.8737 59.0441C12.1756 63.7093 9.29475 68.267 6.54292 72.9107C5.65072 74.3727 4.94126 75.9206 3.88783 77.9414Z" fill="#EB584A"/>
</svg>
