<svg width="226" height="45" viewBox="0 0 226 45" fill="none" xmlns="http://www.w3.org/2000/svg">
<path d="M177.101 44.8989C176.601 44.6989 176.001 44.6989 175.401 44.4989C173.701 43.9989 172.201 43.2989 170.801 42.0989C169.201 40.6989 168.301 38.9989 168.001 36.8989C167.801 35.4989 168.001 34.0989 168.601 32.7989C170.101 29.5989 172.701 27.9989 176.001 27.2989C177.401 26.9989 178.801 26.9989 180.201 27.0989C183.201 27.3989 185.801 28.3989 187.801 30.6989C188.801 31.8989 189.401 33.1989 189.701 34.7989C190.101 37.0989 189.501 39.0989 188.101 40.8989C187.301 41.9989 186.201 42.8989 184.901 43.5989C183.601 44.2989 182.201 44.7989 180.701 44.8989C180.601 44.8989 180.601 44.9989 180.601 44.9989C179.601 44.8989 178.401 44.8989 177.101 44.8989ZM171.901 35.8989C171.901 36.1989 172.001 36.5989 172.001 36.8989C172.201 38.4989 173.201 39.7989 174.501 40.6989C175.801 41.6989 177.301 41.9989 178.801 42.0989C179.401 42.0989 180.101 41.8989 180.701 41.7989C182.301 41.5989 183.601 40.6989 184.601 39.4989C185.601 38.1989 186.101 36.7989 185.801 35.0989C185.401 32.7989 184.101 31.1989 182.001 30.3989C180.801 29.8989 179.501 29.6989 178.101 29.7989C176.301 29.9989 174.801 30.5989 173.601 31.8989C172.501 33.0989 172.101 34.3989 171.901 35.8989Z" fill="#006D4D"/>
<path d="M104.801 44.8969C104.301 44.6969 103.701 44.6969 103.101 44.4969C101.001 43.9969 99.2009 42.9969 97.8009 41.2969C96.7009 39.9969 96.1009 38.4969 96.0009 36.6969C95.9009 35.4969 96.0009 34.2969 96.4009 33.1969C96.9009 31.7969 97.7009 30.5969 98.9009 29.6969C100.601 28.2969 102.601 27.4969 104.801 27.1969C106.001 26.9969 107.101 26.9969 108.201 27.0969C110.501 27.2969 112.601 27.9969 114.601 29.4969C114.201 30.3969 113.401 31.0969 112.901 31.8969C112.301 31.5969 111.801 31.1969 111.201 30.8969C110.101 30.2969 109.001 29.9969 107.801 29.8969C106.201 29.7969 104.601 30.0969 103.201 30.7969C101.501 31.6969 100.301 33.0969 100.001 34.9969C99.7009 36.8969 100.101 38.5969 101.501 40.0969C102.701 41.3969 104.201 41.8969 106.001 42.0969C108.001 42.2969 109.901 41.7969 111.601 40.8969C111.601 39.8969 111.601 38.7969 111.601 37.6969C109.901 37.6969 108.201 37.6969 106.501 37.6969C106.501 36.6969 106.501 35.7969 106.501 34.7969C109.501 34.7969 112.501 34.7969 115.501 34.7969C115.501 37.1969 115.501 39.6969 115.501 42.1969C113.901 43.2969 112.101 44.0969 110.201 44.4969C109.701 44.5969 109.201 44.5969 108.701 44.7969C107.501 44.8969 106.101 44.8969 104.801 44.8969Z" fill="#006D4D"/>
<path d="M225.201 44.5984C221.401 44.5984 217.701 44.5984 213.901 44.5984C212.801 44.5984 211.801 44.2984 210.901 43.5984C210.101 42.9984 209.701 42.0984 209.401 41.1984C209.301 40.7984 209.301 40.2984 209.301 39.8984C209.301 35.9984 209.301 32.0984 209.301 28.1984C209.301 27.9984 209.301 27.6984 209.301 27.3984C214.501 27.3984 219.701 27.3984 224.901 27.3984C224.901 28.2984 224.901 29.1984 224.901 30.1984C221.001 30.1984 217.101 30.1984 213.101 30.1984C213.101 31.5984 213.101 32.8984 213.101 34.2984C216.701 34.2984 220.301 34.2984 223.901 34.2984C223.901 35.1984 223.901 36.0984 223.901 36.9984C220.301 36.9984 216.701 36.9984 213.001 36.9984C213.101 38.1984 212.901 39.2984 213.101 40.3984C213.201 40.6984 213.401 40.8984 213.401 41.1984C214.001 41.5984 214.701 41.7984 215.501 41.7984C218.701 41.7984 221.901 41.7984 225.101 41.7984C225.201 42.6984 225.201 43.5984 225.201 44.5984Z" fill="#006D4D"/>
<path d="M157.299 44.8969C156.699 44.5969 156.099 44.6969 155.499 44.4969C152.699 43.6969 150.399 42.1969 148.999 39.5969C148.399 38.3969 148.199 37.0969 148.199 35.6969C148.199 34.4969 148.499 33.2969 148.999 32.1969C149.799 30.6969 150.899 29.6969 152.299 28.7969C153.599 27.9969 154.999 27.4969 156.499 27.1969C157.999 26.9969 159.399 26.9969 160.899 27.0969C162.499 27.2969 163.899 27.7969 165.399 28.4969C165.899 28.7969 166.399 29.0969 166.899 29.4969C166.299 30.2969 165.699 30.9969 165.099 31.7969C164.699 31.4969 164.299 31.2969 163.999 31.0969C162.799 30.3969 161.499 29.9969 160.099 29.7969C158.099 29.5969 156.199 29.9969 154.599 31.1969C152.699 32.6969 151.699 34.8969 152.499 37.4969C153.099 39.3969 154.399 40.5969 156.199 41.3969C157.299 41.8969 158.499 42.0969 159.699 41.9969C161.599 41.8969 163.399 41.2969 164.999 40.0969C165.099 39.9969 165.299 39.8969 165.399 39.7969C166.099 40.4969 166.599 41.3969 167.299 42.0969C166.999 42.4969 166.499 42.6969 166.099 42.8969C164.499 43.7969 162.899 44.3969 161.099 44.4969C160.999 44.4969 160.999 44.5969 160.999 44.5969C159.799 44.8969 158.599 44.8969 157.299 44.8969Z" fill="#006D4D"/>
<path d="M127.798 38.6007C126.298 38.6007 124.898 38.6007 123.398 38.6007C123.398 40.6007 123.398 42.5007 123.398 44.5007C122.098 44.5007 120.898 44.5007 119.598 44.5007C119.598 38.8007 119.598 33.1007 119.598 27.3007C119.698 27.2007 119.898 27.2007 119.998 27.2007C123.298 27.2007 126.698 27.1007 129.998 27.2007C131.698 27.2007 133.398 27.7007 134.798 28.7007C135.798 29.4007 136.498 30.4007 136.698 31.7007C136.898 32.9007 136.798 34.0007 136.198 35.1007C135.798 35.9007 135.198 36.5007 134.498 36.9007C133.798 37.3007 133.098 37.7007 132.198 37.8007C132.098 37.8007 131.998 37.9007 131.798 38.0007C133.598 40.1007 135.498 42.2007 137.298 44.4007C135.698 44.4007 134.298 44.4007 132.698 44.4007C131.298 42.6007 129.598 40.6007 127.798 38.6007ZM123.398 35.9007C124.398 35.9007 125.398 35.9007 126.298 35.9007C127.198 35.9007 128.198 35.9007 129.098 35.8007C129.998 35.7007 130.798 35.5007 131.498 35.1007C132.998 34.3007 133.398 32.0007 131.698 30.9007C130.798 30.3007 129.798 30.2007 128.898 30.1007C127.198 30.0007 125.498 30.1007 123.898 30.1007C123.698 30.1007 123.498 30.0007 123.398 30.2007C123.398 32.1007 123.398 34.0007 123.398 35.9007Z" fill="#006D4D"/>
<path d="M95.4992 44.5984C93.9992 44.5984 92.5992 44.5984 91.0992 44.5984C90.3992 43.2984 89.6992 41.8984 89.0992 40.5984C85.9992 40.5984 82.8992 40.5984 79.6992 40.5984C78.8992 41.8984 78.4992 43.2984 77.6992 44.5984C76.4992 44.5984 75.1992 44.5984 73.6992 44.5984C76.6992 38.7984 79.6992 33.0984 82.5992 27.3984C83.8992 27.3984 85.1992 27.3984 86.4992 27.3984C86.8992 27.8984 87.0992 28.4984 87.3992 29.0984C88.3992 30.9984 89.2992 32.8984 90.2992 34.7984C91.4992 37.0984 92.7992 39.4984 93.9992 41.7984C94.3992 42.5984 94.8992 43.4984 95.4992 44.5984ZM87.4992 37.5984C86.3992 35.3984 85.2992 33.2984 84.1992 31.0984C83.0992 33.2984 81.9992 35.3984 80.9992 37.5984C83.1992 37.5984 85.3992 37.5984 87.4992 37.5984Z" fill="#006D4D"/>
<path d="M196.499 41.6969C200.199 41.6969 203.899 41.6969 207.499 41.6969C207.499 42.5969 207.499 43.5969 207.499 44.4969C202.599 44.4969 197.699 44.4969 192.699 44.4969C192.699 38.7969 192.699 33.0969 192.699 27.2969C193.899 27.2969 195.099 27.2969 196.399 27.2969C196.499 32.0969 196.499 36.8969 196.499 41.6969Z" fill="#006D4D"/>
<path d="M144.798 44.5984C143.498 44.5984 142.298 44.5984 141.098 44.5984C141.098 38.8984 141.098 33.0984 141.098 27.3984C142.298 27.3984 143.598 27.3984 144.798 27.3984C144.798 33.0984 144.798 38.7984 144.798 44.5984Z" fill="#006D4D"/>
<path d="M83.6996 23.4959C83.1996 23.1959 82.5996 23.2959 82.0996 23.0959C80.3996 22.5959 78.8996 21.8959 77.4996 20.7959C76.1996 19.6959 75.3996 18.3959 74.8996 16.7959C74.5996 15.9959 74.6996 15.0959 74.6996 14.2959C74.5996 12.6959 75.1996 11.2959 75.9996 9.99587C77.0996 8.39587 78.5996 7.39587 80.2996 6.59587C82.3996 5.69587 84.5996 5.49587 86.7996 5.69587C88.0996 5.79587 89.2996 6.09587 90.4996 6.59587C91.4996 6.99587 92.2996 7.49587 93.1996 8.09587C92.6996 8.99587 91.9996 9.69587 91.3996 10.4959C90.7996 10.1959 90.2996 9.89587 89.7996 9.59587C88.6996 8.99587 87.4996 8.69587 86.2996 8.59587C84.6996 8.49587 83.1996 8.69587 81.7996 9.49587C80.0996 10.3959 78.8996 11.7959 78.5996 13.6959C78.2996 16.0959 79.0996 18.0959 81.1996 19.4959C82.2996 20.1959 83.4996 20.5959 84.7996 20.6959C87.2996 20.9959 89.4996 20.1959 91.4996 18.7959C91.5996 18.6959 91.6996 18.6959 91.8996 18.5959C92.4996 19.2959 93.0996 20.0959 93.6996 20.9959C92.4996 21.8959 91.0996 22.4959 89.6996 22.9959C88.9996 23.1959 88.2996 23.3959 87.5996 23.3959C87.4996 23.3959 87.3996 23.3959 87.3996 23.4959C86.1996 23.4959 84.8996 23.4959 83.6996 23.4959Z" fill="#006D4D"/>
<path d="M108.999 16.6984C110.799 18.7984 112.699 20.9984 114.599 23.1984C113.099 23.1984 111.599 23.1984 110.099 23.1984C108.399 21.2984 106.699 19.1984 104.999 17.2984C103.499 17.2984 101.999 17.2984 100.499 17.2984C100.499 19.2984 100.499 21.1984 100.499 23.1984C99.1992 23.1984 97.9992 23.1984 96.6992 23.1984C96.6992 17.4984 96.6992 11.6984 96.6992 5.89844C96.8992 5.89844 97.0992 5.89844 97.3992 5.89844C100.499 5.89844 103.599 5.89844 106.699 5.89844C108.299 5.89844 109.899 6.19844 111.299 6.99844C112.699 7.79844 113.599 8.89844 113.899 10.4984C114.099 11.5984 113.999 12.5984 113.599 13.5984C112.999 14.8984 111.799 15.6984 110.499 16.1984C109.899 16.3984 109.499 16.4984 108.999 16.6984ZM100.499 14.4984C102.399 14.2984 104.299 14.5984 106.199 14.3984C107.099 14.2984 107.899 14.1984 108.699 13.6984C109.499 13.2984 110.099 12.1984 109.999 11.3984C109.799 10.2984 109.199 9.49844 108.099 9.09844C107.299 8.79844 106.499 8.69844 105.599 8.69844C104.299 8.69844 103.099 8.69844 101.799 8.69844C101.399 8.69844 100.899 8.69844 100.399 8.69844C100.499 10.6984 100.499 12.4984 100.499 14.4984Z" fill="#006D4D"/>
<path d="M137.301 23.196C137.301 17.396 137.301 11.696 137.301 5.99601C137.501 5.79601 137.701 5.89601 138.001 5.89601C140.701 5.89601 143.501 5.79601 146.201 5.89601C148.701 5.99601 151.101 6.59601 153.101 8.09601C154.801 9.39601 155.901 11.096 156.201 13.196C156.501 15.296 156.101 17.296 154.901 18.996C153.901 20.496 152.401 21.496 150.801 22.096C149.001 22.796 147.101 23.096 145.201 23.096C142.601 23.196 140.001 23.196 137.301 23.196ZM141.201 8.69601C141.201 12.596 141.201 16.396 141.201 20.296C142.501 20.296 143.801 20.296 145.101 20.296C146.001 20.296 146.801 20.196 147.601 19.996C148.801 19.696 150.001 19.196 150.801 18.196C152.001 16.896 152.501 15.296 152.201 13.496C151.901 11.996 151.201 10.896 150.001 9.99601C148.801 9.09601 147.401 8.69601 146.001 8.59601C144.401 8.69601 142.801 8.69601 141.201 8.69601Z" fill="#006D4D"/>
<path d="M133.201 5.89844C133.201 6.79844 133.201 7.69844 133.201 8.69844C129.201 8.69844 125.301 8.69844 121.201 8.69844C121.201 10.0984 121.201 11.3984 121.201 12.7984C124.801 12.7984 128.401 12.7984 132.001 12.7984C132.001 13.6984 132.001 14.5984 132.001 15.4984C128.401 15.4984 124.801 15.4984 121.101 15.4984C121.101 16.1984 121.101 16.7984 121.101 17.3984C121.101 17.8984 121.101 18.2984 121.201 18.7984C121.501 19.7984 122.101 20.2984 123.101 20.2984C126.301 20.2984 129.401 20.2984 132.601 20.2984C132.801 20.2984 133.101 20.2984 133.301 20.2984C133.301 21.1984 133.301 22.1984 133.301 23.0984C133.101 23.1984 132.901 23.1984 132.701 23.1984C129.001 23.1984 125.301 23.2984 121.701 23.1984C119.401 23.0984 117.901 21.7984 117.401 19.5984C117.301 18.9984 117.301 18.3984 117.301 17.6984C117.301 13.9984 117.301 10.2984 117.301 6.69844C117.301 6.49844 117.301 6.29844 117.301 5.99844C122.701 5.89844 127.901 5.89844 133.201 5.89844Z" fill="#006D4D"/>
<path d="M176.898 23.2C175.598 23.2 174.298 23.2 173.098 23.2C173.098 18.4 173.098 13.6 173.098 8.8C170.798 8.8 168.698 8.8 166.398 8.8C166.398 7.8 166.398 6.9 166.398 6C171.998 6 177.698 6 183.398 6C183.398 6.9 183.398 7.8 183.398 8.8C181.298 8.8 179.098 8.8 176.898 8.8C176.898 13.5 176.898 18.3 176.898 23.2Z" fill="#006D4D"/>
<path d="M159.598 5.89844C160.898 5.89844 162.098 5.89844 163.298 5.89844C163.298 11.5984 163.298 17.3984 163.298 23.0984C162.098 23.0984 160.798 23.0984 159.598 23.0984C159.598 17.3984 159.598 11.6984 159.598 5.89844Z" fill="#006D4D"/>
<path d="M129.399 1.09844C128.499 2.09844 127.499 2.99844 126.599 3.99844C125.499 3.99844 124.399 3.99844 123.199 3.99844C123.899 2.89844 124.699 1.89844 125.399 0.898438C126.699 0.898438 127.999 0.898438 129.299 0.898438C129.399 0.998438 129.399 1.09844 129.399 1.09844Z" fill="#006D4D"/>
<path d="M56.1016 39.9922C56.1016 41.6922 56.1016 43.2922 56.1016 44.9922C37.6016 44.9922 19.1016 44.9922 0.601562 44.9922C0.601562 43.2922 0.601562 41.6922 0.601562 39.9922C19.1016 39.9922 37.6016 39.9922 56.1016 39.9922Z" fill="#006D4D"/>
<path d="M46.2984 18.8969C45.3984 19.4969 44.3984 19.7969 43.4984 20.2969C42.2984 20.8969 41.0984 21.5969 39.8984 22.1969C39.7984 22.2969 39.7984 22.4969 39.5984 22.3969C38.9984 20.8969 38.2984 19.3969 37.7984 17.8969C37.1984 16.3969 36.5984 14.9969 35.9984 13.4969C35.9984 13.3969 35.9984 13.2969 35.7984 13.2969C35.3984 13.9969 34.9984 14.6969 34.6984 15.4969C34.3984 16.1969 34.0984 16.7969 33.7984 17.4969C33.0984 19.0969 32.3984 20.5969 31.6984 22.0969C31.2984 22.9969 30.8984 23.8969 30.2984 24.6969C30.0984 24.9969 29.8984 25.0969 29.5984 25.2969C27.8984 26.4969 25.9984 27.0969 23.9984 27.5969C22.8984 27.7969 21.8984 27.9969 20.7984 28.0969C20.6984 28.0969 20.5984 28.0969 20.3984 28.0969C20.6984 27.4969 20.9984 26.8969 21.3984 26.2969C21.7984 25.5969 22.1984 24.7969 22.5984 24.0969C23.2984 22.6969 24.0984 21.2969 24.8984 19.8969C26.0984 17.5969 27.2984 15.3969 28.4984 13.0969C28.9984 12.0969 29.5984 11.0969 30.1984 9.99687C30.8984 8.69687 31.4984 7.49688 32.1984 6.29688C34.9984 6.29688 37.7984 6.29688 40.5984 6.29688C40.7984 6.49688 40.7984 6.69687 40.8984 6.99687C41.4984 8.29687 42.0984 9.69687 42.6984 10.9969C43.5984 12.8969 44.3984 14.7969 45.1984 16.6969C45.4984 17.2969 45.8984 18.0969 46.2984 18.8969Z" fill="#006D4D"/>
<path d="M41.6016 27.9944C41.6016 27.7944 48.5016 24.3944 48.7016 24.5944C49.4016 25.9944 50.1016 27.5944 50.8016 28.8944C51.9016 31.1944 53.1016 33.5944 54.2016 35.8944C54.3016 36.0944 54.4016 36.2944 54.4016 36.4944C54.2016 36.5944 54.0016 36.5944 53.8016 36.5944C51.6016 36.5944 49.3016 36.5944 47.1016 36.5944C45.5016 36.5944 44.9016 35.9944 44.4016 34.6944C43.9016 33.3944 43.4016 32.0944 42.8016 30.7944C42.6016 30.1944 42.0016 28.7944 41.6016 27.9944Z" fill="#00664B"/>
<path d="M60.2 8.59531C59.7 8.89531 59.4 9.09531 59 9.29531C57.4 10.1953 55.8 11.0953 54.1 11.9953C52.9 12.6953 51.7 13.3953 50.4 13.8953C49.7 14.1953 48.9 14.5953 48.1 14.5953C47.3 14.5953 46.8 14.1953 46.4 13.5953C45.8 12.4953 45.4 11.2953 45 9.99531C46.7 10.0953 48.1 9.19531 49.5 8.49531C49.8 8.39531 50 8.19531 50.3 8.09531C52.6 6.89531 54.8 5.69531 57.1 4.49531C57.9 3.99531 58.8 3.59531 59.6 3.09531C59.8 2.99531 60.3 2.69531 60.3 2.69531C60.2 4.59531 60.2 6.59531 60.2 8.59531Z" fill="#E4032E"/>
<path d="M48.2 17.7978C48.8 17.4978 49.4 17.1978 50 16.7978C51.9 15.7978 53.7 14.6978 55.6 13.6978C57.1 12.8978 58.5 11.9978 60 11.2978C60.1 11.1978 60.2 11.1978 60.3 11.0978C60.3 13.3978 60.3 15.5978 60.3 17.8978C59.9 18.2978 59.3 18.5978 58.7 18.9978C56.7 20.2978 54.6 21.5978 52.5 22.7978C51.3 23.4978 41.5 28.7978 41.3 28.8978C39.5 29.7978 37.7 30.6978 35.9 31.4978C32.6 32.8978 29.4 34.3978 26 35.3978C24.3 35.8978 22.5 36.3978 20.7 36.6978C19.7 36.7978 18.6 36.9978 17.6 37.0978C16.9 37.1978 16.2 37.1978 15.4 37.1978C13.5 37.1978 11.7 36.8978 9.9 36.3978C8.2 35.9978 6.7 35.2978 5.3 34.2978C3.7 33.1978 2.4 31.8978 1.6 30.1978C1.1 29.2978 0.7 28.2978 0.4 27.2978C0.2 26.5978 3.7998e-07 25.9978 0.1 25.2978C0.1 24.9978 0 24.6978 0 24.3978C0.1 22.2978 0.600001 20.3978 1.7 18.4978C2.2 17.6978 2.7 16.7978 3.3 15.9978C4.2 14.7978 5.2 13.6978 6.4 12.6978C7.3 11.8978 8.2 11.1978 9.2 10.4978C10.9 9.2978 12.8 8.3978 14.7 7.5978C16.4 6.8978 18.1 6.3978 19.9 5.8978C21 5.5978 22.1 5.4978 23.2 5.6978C24.2 5.7978 25 6.3978 25.5 7.1978C26.2 8.3978 26.5 9.6978 26.8 10.9978C26.9 11.2978 26.9 11.4978 27 11.7978C24.1 11.7978 21.4 12.4978 18.8 13.4978C17 14.1978 15.2 14.9978 13.6 16.0978C12.4 16.8978 11.3 17.7978 10.1 18.6978C8.7 19.8978 7.6 21.1978 6.6 22.6978C5.9 23.7978 5.3 24.8978 5 26.1978C4.9 26.8978 4.7 27.4978 5 28.1978C5.2 28.6978 5.4 28.9978 5.8 29.2978C6.8 29.9978 7.8 30.3978 9 30.4978C9.9 30.5978 10.8 30.6978 11.7 30.6978C12.6 30.6978 13.6 30.6978 14.5 30.6978C15.4 30.5978 16.2 30.4978 17.1 30.3978C18.5 30.1978 19.9 29.8978 21.4 29.6978C22.8 29.3978 24.1 29.0978 25.5 28.6978C27.4 28.1978 29.2 27.3978 31 26.5978C34 25.2978 36.9 23.7978 39.8 22.3978C39.4 22.3978 47.5 18.0978 48.2 17.7978Z" fill="#009898"/>
</svg>
