<svg width="115" height="109" viewBox="0 0 115 109" fill="none" xmlns="http://www.w3.org/2000/svg">
<path d="M105.771 59.1395C105.273 63.1301 104.441 67.4532 103.942 71.7764C103.111 77.2634 100.118 81.5866 96.7927 85.4109C92.6358 90.0666 87.9801 94.0571 82.3268 96.8838C74.0131 101.041 65.2005 102.703 56.0554 103.036C43.7511 103.535 32.6107 99.8768 22.8006 91.8956C15.6508 86.2423 11.9927 78.7599 8.33469 70.945C7.83587 69.6148 7.33704 67.9521 7.50332 66.6219C7.83587 61.3011 7.83587 55.6478 9.49861 50.6595C11.8265 44.1748 13.6555 37.6901 17.4798 31.8705C21.6366 25.3858 26.2923 20.2313 32.6107 16.0745C37.9315 12.2501 43.7511 9.92231 50.4021 9.42348C51.3998 9.42348 52.3974 9.25721 53.395 9.25721C68.8586 6.59682 81.3291 12.9152 92.3033 22.8917C98.9542 28.7113 101.781 36.8588 103.776 45.0062C104.94 48.9968 105.106 53.985 105.771 59.1395ZM102.28 58.6407C102.612 46.5027 99.2868 35.6948 91.1393 26.2172C83.8233 17.7372 74.1793 12.5827 63.2052 11.7513C52.5637 10.7537 42.7535 14.0792 34.606 20.7301C24.7959 28.7113 17.9786 39.0203 13.6555 50.4933C11.6602 55.6478 10.8288 61.9662 11.8265 67.287C14.3206 81.254 23.1331 90.8979 35.9362 96.2187C50.2358 102.038 65.0343 101.207 79.0013 94.556C93.966 87.4062 102.945 76.2658 102.28 58.6407Z" fill="#EB584A"/>
<path d="M98.9519 20.5645C97.6217 18.9018 95.4601 16.9065 92.966 16.5739C90.8045 16.2414 88.6429 15.5763 86.9801 14.4124C85.4837 16.4077 84.1535 18.7355 82.9896 21.0634C81.9919 23.0587 80.9943 25.0539 79.4978 26.7167C78.0013 28.3794 75.6735 29.5434 73.5119 29.0445C73.6782 24.2226 73.3456 19.4006 72.348 14.7449C72.0155 13.4147 73.6782 10.5881 72.5143 9.92297C71.6829 9.42415 65.697 9.25788 64.8657 9.25788C55.8868 9.0916 49.901 10.0892 40.7559 10.2555C39.7582 10.2555 37.9292 9.7567 37.2641 10.5881C36.7653 11.2532 37.0978 12.9159 37.0978 13.581C37.0978 17.0728 36.9316 21.0634 36.7653 24.5551C36.7653 25.3865 36.599 26.2179 35.9339 26.7167C35.6014 27.0492 35.1025 27.0492 34.6037 27.2155C27.9527 28.3794 20.8029 24.3888 17.9763 18.2367C17.4774 17.0728 16.9786 15.7426 16.8124 14.4124C16.3135 14.5787 15.981 14.7449 15.4822 14.7449C10.8265 15.5763 6.66961 16.5739 3.01158 19.7332C2.51275 20.0657 2.18021 20.3983 1.84766 20.7308C2.34648 21.8947 2.8453 22.8924 3.34413 23.89C7.00216 31.0398 11.9904 37.5245 14.8171 45.1731C15.981 48.1661 16.9786 51.3253 19.1402 53.6531C21.9669 56.4798 26.1237 57.3112 30.1143 58.4751C33.9386 59.4727 38.2618 61.3018 39.7582 65.1261C40.9221 68.119 40.0908 71.4445 40.0908 74.77C40.257 79.5919 43.0837 84.2476 47.2406 86.5755L51.5637 90.2335C56.3857 91.5637 61.5402 91.73 66.5284 90.8986C70.6853 90.2335 75.1747 88.4045 77.17 84.7465C78.6664 82.0861 78.5002 78.7606 78.3339 75.6014C78.1676 73.2735 78.0013 70.9457 76.8374 69.1167C75.3409 66.7888 72.0154 64.6272 73.0131 61.9669C73.6782 60.4704 75.3409 59.9716 76.6711 59.3065C83.6547 56.6461 90.1394 50.8265 90.9707 43.3441C91.3033 40.5175 90.6382 37.5245 91.8021 34.8641C93.2986 31.0398 97.788 29.2108 100.947 26.5504C101.28 26.2179 101.612 25.8853 101.945 25.5528C101.28 23.89 100.116 22.2273 98.9519 20.5645Z" fill="white"/>
<path d="M42.0867 64.1283C45.4122 63.7958 48.5714 63.7958 51.8969 64.1283C52.3957 64.1283 52.8945 64.1283 53.2271 64.4609C53.7259 64.6271 54.0584 65.126 54.391 65.4585C56.3863 67.7864 58.3816 69.9479 60.2106 72.2758C60.5431 72.6083 60.8757 73.1071 61.2082 73.606C61.8733 75.1024 61.2082 76.9314 60.0443 77.9291C58.8804 79.093 57.2177 79.4256 55.5549 79.5918C52.0631 79.9244 41.5879 78.9267 39.7588 75.435C39.0937 74.2711 40.9228 64.1283 42.0867 64.1283Z" fill="#BCBCBB"/>
<path d="M36.1 38.8555C35.6011 37.359 35.6011 35.6963 35.7674 34.0335C35.9337 30.2092 36.1 26.5512 36.2662 22.7269C36.2662 21.8955 36.7651 20.7316 37.5964 20.8979C38.0953 21.0641 38.2615 21.3967 38.4278 21.7292C41.0882 27.2163 47.2403 36.1951 47.2403 42.5135C47.0741 50.3284 37.2639 42.3473 36.1 38.8555Z" fill="#BCBCBB"/>
<path d="M72.5144 61.303C76.8375 61.1367 80.6619 58.3101 83.6548 55.1509C85.3175 53.4881 86.814 51.6591 87.6454 49.4975C88.4768 47.336 88.643 44.8419 88.8093 42.3477C88.9756 39.8536 89.1418 37.3595 89.3081 34.8654C87.1466 33.8677 84.4862 35.0317 82.9897 36.8607C81.4932 38.6897 80.6619 41.0175 79.4979 43.1791C77.0038 48.0011 72.3481 51.4928 67.1936 52.9893C57.3834 55.9822 66.6948 61.4693 72.5144 61.303Z" fill="#BCBCBB"/>
<path d="M71.8506 34.5324C70.3541 33.036 69.0239 31.207 68.1926 29.2117C67.3612 27.3826 67.0286 25.5536 66.5298 23.7246C65.6984 19.9003 64.8671 16.076 63.8694 12.2517C63.7031 11.4203 63.5369 10.4227 64.202 10.0901C64.5345 9.92384 64.8671 9.92384 65.1996 9.92384C66.6961 9.92384 71.1855 8.75992 72.3494 9.75756C74.0122 10.9215 72.8482 15.5772 72.8482 17.2399C72.682 19.734 70.1879 33.036 71.8506 34.5324Z" fill="#BCBCBB"/>
<path d="M62.7074 52.1595L61.5435 41.0191L47.4102 40.6865V45.0097L49.0729 52.6583L62.7074 52.1595Z" fill="#F15748"/>
<path d="M49.0732 52.6566C53.8951 53.1554 58.3845 51.8252 63.0402 50.8276C63.0402 50.9938 63.3728 51.3264 63.2065 51.4927C63.2065 51.6589 62.7077 51.9915 62.5414 51.9915C60.0473 51.9915 57.7194 52.6566 55.2253 53.1554C53.5626 53.488 52.0661 53.3217 50.4034 53.488C49.9045 53.488 49.4057 53.488 48.9069 53.6542C48.4081 53.6542 48.2418 53.488 48.0755 52.8229C47.9092 51.8252 47.743 50.8276 47.743 49.8299C47.5767 48.1672 47.4104 46.5044 47.2441 44.8417C47.2441 43.5115 47.2441 42.1813 47.2441 40.5186C49.7383 40.5186 52.0661 40.5186 54.3939 40.6848C56.7218 40.6848 59.0496 40.6848 61.3775 40.8511C61.8763 43.6778 62.7077 46.3382 62.7077 49.1648C62.7077 49.4974 62.5414 49.8299 62.5414 50.1625C62.3751 50.1625 62.3751 50.1625 62.2088 50.1625C62.0426 49.8299 61.8763 49.4974 62.0426 49.1648C62.2088 47.3358 61.8763 45.8393 61.5437 44.1766C61.3775 43.5115 61.2112 42.6801 61.0449 41.8487C56.8881 41.3499 52.5649 41.8487 48.4081 41.5162C47.743 43.6778 48.2418 49.1648 49.0732 52.6566Z" fill="black"/>
<path d="M48.7422 31.3736C48.7422 31.2073 48.7422 31.2073 48.7422 31.2073L48.9085 31.041C49.0747 31.041 49.0747 31.041 49.241 31.041C53.2316 31.2073 57.0559 32.0387 61.0465 31.7061L61.2128 31.8724C60.8802 31.8724 60.7139 32.0387 60.3814 32.0387C58.3861 32.3712 56.3908 32.0387 54.5618 31.8724C52.7328 31.7061 50.7375 31.5398 48.9085 31.3736C49.0747 31.3736 48.9085 31.3736 48.7422 31.3736Z" fill="black"/>
<path d="M49.7383 26.053C51.2348 26.5518 52.5649 26.2193 53.8951 26.2193C55.8904 26.053 58.052 25.8867 60.0473 25.8867C60.2136 25.8867 60.3798 25.8867 60.7124 26.2193C60.5461 26.3855 60.3798 26.5518 60.2136 26.5518C57.0544 26.7181 53.8951 26.8844 50.7359 27.0506C50.2371 26.7181 49.9046 26.7181 49.7383 26.053Z" fill="black"/>
<path d="M53.0625 34.2005C53.2288 34.2005 53.3951 34.0342 53.3951 34.0342C56.0554 34.2005 58.5496 34.533 61.2099 34.6993C61.2099 34.8656 61.2099 34.8656 61.2099 34.8656C61.0437 34.8656 60.7111 35.0318 60.5448 35.0318C59.0484 34.8656 57.3856 34.8656 55.8892 34.6993C55.0578 34.6993 54.3927 34.533 53.5613 34.3667C53.3951 34.3667 53.2288 34.2005 53.0625 34.2005C53.0625 34.3667 53.0625 34.3667 53.0625 34.2005Z" fill="black"/>
<path d="M56.0576 49.8304C56.0576 49.8304 55.8913 49.8304 56.0576 49.8304C55.725 49.6642 55.725 49.3316 55.725 48.9991C55.5587 48.9991 55.3925 48.8328 55.2262 48.6665C55.2262 49.1653 55.2262 49.4979 55.3925 49.9967C55.725 49.9967 55.8913 50.163 56.0576 50.4955C56.2238 50.6618 56.0576 50.9944 56.0576 51.1606C56.3901 51.1606 56.7227 51.1606 56.8889 50.6618C56.8889 50.4955 56.8889 50.163 56.7227 49.9967C56.5564 49.9967 56.2238 49.8304 56.0576 49.8304ZM55.8913 50.6618C55.725 50.4955 55.5587 50.3293 55.3925 50.3293C55.0599 49.8304 55.0599 49.1653 55.2262 48.8328C55.0599 48.6665 55.0599 48.6665 54.8936 48.5002C54.7274 48.8328 54.5611 49.4979 54.8936 50.4955C54.7274 50.6618 54.5611 50.9944 54.7274 51.3269C55.0599 51.8257 55.725 51.8257 55.8913 51.3269C55.8913 50.9944 55.8913 50.8281 55.8913 50.6618ZM54.5611 50.4955C54.2285 49.4979 54.3948 48.6665 54.5611 48.334C54.5611 48.334 54.5611 48.1677 54.3948 47.8351C53.896 48.9991 54.2285 49.9967 54.2285 49.9967C53.896 49.9967 53.5634 50.3293 53.5634 50.6618C53.5634 51.1606 54.0623 51.4932 54.3948 51.1606C54.3948 50.9944 54.3948 50.6618 54.5611 50.4955ZM56.7227 49.8304C56.2238 48.9991 56.3901 48.1677 56.7227 47.5026C56.5564 47.5026 56.5564 47.5026 56.3901 47.5026H56.2238C56.0576 47.6689 56.0576 48.0014 55.8913 48.334V48.5002C55.8913 48.6665 55.8913 48.6665 55.8913 48.8328C55.8913 48.9991 56.0576 49.1653 56.0576 49.1653C55.8913 49.1653 55.8913 49.1653 55.8913 49.1653C55.8913 49.3316 56.0576 49.6642 56.0576 49.8304C56.3901 49.8304 56.5564 49.9967 56.7227 50.163C56.8889 50.3293 56.8889 50.6618 56.8889 50.8281C57.2215 50.8281 57.3878 50.4955 57.3878 50.163C57.3878 49.8304 57.0552 49.6642 56.7227 49.8304ZM56.5564 48.9991C56.7227 48.9991 56.7227 48.9991 56.8889 48.9991C56.7227 48.8328 56.7227 48.6665 56.7227 48.5002C56.7227 48.5002 56.7227 48.5002 56.5564 48.5002C56.3901 48.6665 56.3901 48.8328 56.5564 48.9991ZM55.5587 47.3363C55.3925 47.5026 55.2262 47.6689 55.2262 47.8351C55.2262 48.0014 55.3925 48.1677 55.5587 48.1677C55.5587 47.8351 55.725 47.5026 55.8913 47.3363C55.8913 47.5026 55.725 47.5026 55.5587 47.3363ZM56.3901 46.8375C56.3901 46.6712 56.3901 46.6712 56.3901 46.8375C56.2238 46.6712 56.2238 46.6712 56.3901 46.8375C56.2238 46.8375 56.2238 46.8375 56.3901 46.8375C56.2238 46.8375 56.2238 46.8375 56.3901 46.8375ZM52.7321 43.3457C53.7297 43.0132 54.5611 43.3457 55.0599 43.8446C54.5611 43.3457 53.5634 43.1795 52.7321 43.3457C52.7321 43.8446 51.7344 46.505 54.3948 47.3363C54.3948 47.17 54.3948 47.1701 54.3948 47.1701C54.0623 47.0038 53.7297 46.8375 53.5634 46.1724C53.896 46.8375 54.3948 47.1701 54.7274 47.1701C54.2285 47.1701 54.7274 48.334 54.7274 48.334C55.0599 48.5002 55.2262 48.9991 55.8913 48.9991C55.725 48.8328 55.8913 48.6665 55.725 48.5002C55.5587 48.334 55.2262 48.0014 55.2262 48.0014C55.2262 47.8351 55.3925 47.5026 55.5587 47.3363C55.2262 47.3363 55.0599 47.17 54.8936 47.0038C55.2262 47.0038 55.3925 46.6712 55.3925 46.6712C55.3925 46.6712 55.3925 47.0038 55.0599 47.0038C55.3925 47.17 55.5587 47.17 55.8913 47.3363C56.0576 47.3363 56.3901 47.17 56.5564 47.3363C56.7227 47.0038 57.554 46.1724 58.8842 46.0061C59.0505 46.0061 59.5493 45.8399 59.5493 45.8399V45.6736C59.5493 45.6736 59.383 45.6736 59.2168 45.8399C59.2168 45.8399 59.383 45.6736 59.5493 45.6736C59.2168 45.1748 57.2215 45.0085 56.5564 45.8399C56.5564 45.6736 56.8889 45.341 57.0552 45.341C56.8889 45.341 56.7227 45.341 56.5564 45.341C56.3901 45.341 56.2238 45.341 56.2238 45.341C56.2238 45.5073 56.2238 45.6736 55.8913 45.6736C55.5587 45.6736 55.3925 45.341 54.8936 45.5073C54.3948 45.5073 54.0623 46.0061 54.2285 46.6712C54.0623 45.6736 54.5611 45.1748 54.8936 45.1748C54.7274 44.8422 54.8936 44.1771 55.2262 44.0108C55.3925 44.0108 55.5587 43.8446 55.725 43.6783C55.2262 43.0132 54.0623 42.5144 52.5658 43.0132C52.5658 43.0132 52.7321 43.3457 52.7321 43.3457ZM55.8913 46.6712C55.8913 46.6712 55.8913 46.8375 55.8913 46.6712C55.8913 46.8375 55.8913 46.8375 55.8913 46.6712C56.0576 46.8375 56.0576 46.8375 55.8913 46.6712C56.0576 46.8375 56.0576 46.8375 56.0576 46.8375C56.0576 46.8375 56.0576 46.8375 56.2238 46.8375C56.2238 46.8375 56.2238 46.8375 56.2238 46.6712C56.2238 46.505 56.2238 46.505 56.3901 46.505C56.5564 46.505 56.5564 46.505 56.5564 46.6712V46.8375C56.5564 46.8375 56.5564 46.8375 56.3901 46.8375H56.2238H56.0576C56.0576 46.8375 56.0576 46.8375 55.8913 46.6712C55.8913 46.8375 55.8913 46.8375 55.8913 46.6712C55.8913 46.8375 55.8913 46.8375 55.8913 46.6712C55.8913 46.8375 55.8913 46.8375 55.8913 46.6712C55.725 46.6712 55.725 46.6712 55.8913 46.6712Z" fill="white"/>
<path d="M34.4375 76.7657L29.4492 94.8897L32.4422 97.3838L41.421 101.873L61.7064 102.705L72.5143 101.541L87.3127 95.721L82.3245 75.4355L71.1841 77.7634L61.3739 79.2599L45.9104 78.761L34.4375 76.7657Z" fill="#F15748"/>
<path d="M100.949 23.7251C100.451 24.2239 99.9518 24.889 99.6192 25.3878C98.289 26.8843 97.1251 28.547 95.7949 30.0435C94.9635 31.0411 93.9659 32.0388 93.1345 33.0364C92.802 33.369 92.6357 33.7015 92.6357 34.2004C92.6357 34.5329 92.9682 34.6992 93.1345 34.6992C92.802 36.1956 92.4694 37.5258 92.1369 38.856C91.3055 41.849 90.3078 44.8419 89.4765 47.8349C88.9776 49.3313 87.3149 51.3266 85.8184 51.8254C85.6522 50.329 85.4859 48.9988 85.4859 47.5023C85.3196 47.5023 85.3196 47.5023 85.1533 47.5023C85.1533 47.8349 85.1533 48.0011 85.1533 48.3337C85.3196 49.4976 85.3196 50.6615 85.4859 51.8254C85.4859 52.3243 85.4859 52.9894 84.6545 53.1556C84.4882 51.1603 84.322 49.165 84.1557 47.1698C83.3243 49.3313 84.1557 51.4929 84.1557 53.6545C83.4906 54.1533 82.9918 54.6521 82.3267 55.3172C80.8302 53.6545 79.1675 51.9917 77.671 50.329C77.3384 49.9964 77.0059 49.4976 76.3408 50.1627C78.0035 52.3243 79.9988 53.987 81.9941 55.816C80.8302 56.9799 79.8326 57.9776 78.3361 58.6427C73.6804 60.4717 69.0247 60.638 64.369 58.1439C63.8702 57.8113 63.0388 57.645 63.3714 56.6474C63.3714 56.4811 63.2051 56.3148 63.0388 56.1486C62.0412 55.3172 62.3737 54.4858 62.54 53.4882C62.7063 52.9894 63.0388 52.4905 62.8726 52.158C62.54 50.9941 63.2051 50.1627 63.7039 49.165C64.0365 48.4999 64.5353 48.0011 64.8679 47.336C65.0341 47.336 65.2004 47.336 65.2004 47.1698C67.0294 45.8396 68.8584 44.6756 70.5212 43.1792C71.8514 42.1815 73.1816 41.0176 73.8467 39.6874C74.8443 37.8584 75.3431 35.6968 75.3431 33.369C75.3431 33.2027 75.0106 33.0364 74.678 32.8702C74.5118 33.8678 74.1792 34.5329 74.013 35.6968C73.3479 31.2074 73.1816 26.8843 73.1816 22.7274C73.1816 18.9031 72.6828 15.0788 73.1816 11.0882C73.1816 10.5894 73.0153 10.2568 72.3502 10.4231C72.1839 11.0882 72.1839 11.7533 72.0177 12.4184C71.02 12.4184 70.1886 12.5847 69.191 12.5847C69.191 11.587 69.0247 10.9219 69.0247 9.92429C67.8608 10.5894 69.0247 11.7533 68.3596 12.751C68.3596 11.4208 68.5259 10.5894 68.5259 9.59174C69.5235 9.59174 70.3549 9.75802 71.3526 9.75802C72.1839 9.75802 73.0153 10.4231 74.013 9.42547C73.5141 9.25919 73.0153 9.09292 72.6828 9.09292C71.8514 9.09292 71.02 8.92664 70.1886 8.92664C66.1981 8.59409 62.2075 8.42782 58.3832 8.76037C55.5565 8.92664 52.5636 9.09292 49.7369 9.25919C48.4067 9.25919 46.9102 9.59174 45.58 9.59174C44.5824 9.75802 43.4185 9.92429 42.4208 9.92429C40.5918 9.92429 38.5965 9.59174 36.7675 9.42547C36.6012 9.92429 36.4349 10.4231 36.4349 10.9219C36.4349 13.0835 36.2687 14.9125 36.2687 16.9078C36.2687 19.2357 36.2687 21.5635 36.2687 24.0576C36.2687 25.5541 36.4349 27.0506 35.9361 28.7133C35.4373 28.7133 34.9385 28.7133 34.4396 28.547C32.9432 28.0482 31.2804 27.8819 29.784 27.2168C26.2922 25.3878 22.4679 24.0576 19.3087 21.5635C18.4773 20.8984 17.8122 20.2333 17.6459 19.2357C17.1471 17.7392 16.6483 16.2427 16.1495 14.58C15.9832 14.58 15.6506 14.7462 15.4844 14.7462H15.3181C15.8169 16.409 16.3157 18.0717 16.9808 19.7345C17.3134 20.5659 17.8122 21.2309 18.1448 22.0623C18.1448 22.2286 18.311 22.3949 18.311 22.3949C19.6412 22.2286 20.3063 23.5588 21.304 23.8913C24.1306 25.2215 26.791 26.5517 29.4514 27.8819C29.784 28.0482 30.1165 28.0482 30.4491 28.2145C32.1118 28.7133 33.9408 29.2121 35.6036 29.5447C36.1024 34.0341 36.1024 39.0223 35.6036 40.02C35.1047 39.3549 34.6059 38.5235 34.2734 37.8584C33.7745 37.027 33.2757 36.3619 32.7769 35.5305C32.6106 35.3643 32.1118 35.3643 31.7793 35.198C31.7793 35.5305 31.613 35.8631 31.7793 36.1956C32.9432 38.5235 34.4396 40.6851 36.1024 42.6803C37.1 43.8443 38.0977 44.8419 39.5942 45.507C39.9267 45.6733 40.4255 45.8396 40.4255 45.6733C40.9243 44.8419 41.4232 45.507 41.922 45.6733C43.5847 46.3384 45.0812 47.0035 46.744 47.8349C47.0765 48.0011 47.409 48.3337 47.5753 48.6662C48.4067 50.9941 48.7392 53.3219 47.2428 55.6497C47.0765 55.9823 46.744 56.3148 46.5777 56.6474C44.5824 59.3078 42.2545 60.8043 38.7628 60.4717C35.1047 60.1392 31.7793 58.809 28.62 57.4788C27.6224 56.9799 26.791 56.3148 25.7934 55.6497C28.1212 53.6545 30.4491 51.8254 32.6106 49.9964C29.6177 51.1603 27.2899 53.3219 24.962 55.3172C23.133 53.8207 20.9714 52.4905 19.8075 50.329C20.1401 49.8301 20.4726 49.3313 20.8051 48.9988C21.1377 48.6662 21.4702 48.3337 21.9691 48.0011C22.3016 47.6686 22.8004 47.336 23.133 47.0035C23.4655 46.6709 23.7981 46.5047 24.1306 46.1721C22.1353 46.8372 20.6389 48.1674 19.1424 49.6639C18.8099 49.3313 18.6436 48.9988 18.311 48.6662C18.8099 48.0011 19.3087 47.5023 19.8075 46.8372C20.3063 46.3384 20.8051 45.8396 21.4702 45.3407C21.9691 44.8419 22.4679 44.5094 23.133 44.0105L22.9667 43.8443C20.9714 44.8419 19.6412 46.6709 17.9785 48.1674C17.3134 47.1698 16.9808 46.1721 16.3157 45.507C14.8193 43.8443 13.8216 41.6827 12.6577 39.8537C11.8263 38.5235 11.3275 37.1933 10.6624 35.8631C9.99731 34.3666 8.50084 33.0364 8.66712 31.2074C8.66712 31.0411 8.50084 31.0411 8.33457 30.8749C6.67183 28.0482 5.00908 25.2215 3.84516 22.2286C3.51261 21.3972 3.18006 20.5659 2.84751 19.9008C2.34869 20.2333 2.01614 20.5659 1.68359 20.8984C2.51497 22.8937 3.51261 24.889 4.34398 26.8843C5.34163 29.0458 6.173 31.2074 7.17065 33.369C8.99967 36.8607 10.995 40.3525 13.1565 43.8443C14.4867 46.1721 16.3157 48.1674 17.6459 50.4952C18.9761 52.4905 20.4726 54.3196 22.6342 55.6497C25.1283 57.1462 27.4561 58.6427 30.1165 59.8066C33.1095 61.1368 36.1024 61.8019 39.4279 62.1345C39.9267 62.1345 40.4255 62.1344 40.9243 61.9682C41.5894 61.6356 42.2545 61.3031 42.9196 60.9705C44.4161 60.3054 45.58 59.4741 46.5777 58.1439C46.9102 57.8113 47.2428 57.3125 47.4091 57.1462C51.8985 58.1439 56.2216 57.1462 60.711 57.1462C61.0436 57.8113 61.2098 58.4764 61.7086 58.9752C62.2075 59.4741 62.7063 60.1392 63.2051 60.3054C65.533 61.1368 67.8608 61.4694 70.3549 61.6356C72.5165 61.6356 72.5165 61.6356 72.1839 63.7972C72.1839 63.9635 72.1839 63.9635 72.1839 64.1297C72.0177 65.1274 71.6851 65.2937 70.6875 65.2937C70.0224 65.2937 69.191 65.2937 68.5259 65.2937C64.7016 65.6262 61.0435 65.6262 57.2192 64.9611C55.889 64.6286 54.3926 64.6286 53.0624 64.6286C51.2334 64.6286 49.2381 64.6286 47.4091 64.6286C44.7487 64.4623 42.0883 64.296 39.7604 65.4599C39.2616 64.6286 39.5942 63.4646 38.9291 62.7995C38.0977 64.296 39.0953 65.4599 39.0953 66.7901C39.4279 66.7901 39.5942 66.7901 39.7604 66.6239C41.5894 65.6262 43.4185 65.4599 45.4138 65.4599C46.5777 65.4599 47.7416 65.4599 48.9055 65.4599C51.2334 65.4599 53.3949 65.2937 55.7228 65.7925C58.882 66.2913 62.0412 66.7901 65.2004 66.4576C67.1957 66.2913 69.191 66.2913 71.1863 66.2913C71.5188 66.2913 72.0177 66.2913 72.3502 66.4576C74.3455 67.6215 76.0082 69.118 77.1722 71.1133C78.0035 72.6097 78.5024 74.1062 78.3361 75.9352C70.8537 78.4293 63.0388 79.2607 54.8914 79.2607C55.3902 78.7619 55.7228 78.4293 56.0553 78.0968C54.8914 77.9305 54.5589 79.5933 53.2287 78.9282C54.06 78.2631 54.7251 77.7642 55.3902 77.2654C54.3926 77.2654 53.8937 77.9305 53.0624 78.2631C52.3973 78.5956 51.8985 78.9282 51.2334 78.7619C47.7416 78.4293 44.0836 78.0968 40.5918 77.7642C39.4279 77.598 38.4302 77.0991 37.5989 76.6003C38.264 74.1062 39.5942 72.2772 42.0883 71.2795C42.0883 70.947 42.2545 70.4482 42.2545 70.1156C41.922 68.9517 41.4232 67.9541 40.9243 66.7901C40.7581 66.7901 40.5918 66.9564 40.2593 67.1227C39.9267 67.1227 39.7604 67.1227 39.2616 66.9564C39.4279 67.6215 39.5942 67.9541 39.7604 68.4529C40.4255 70.2819 40.4255 70.2819 38.9291 71.4458L38.7628 71.6121C36.9338 73.1086 36.1024 74.9376 36.9338 77.598C38.0977 77.9305 39.2616 78.5956 40.5918 78.7619C44.7487 79.2607 48.7392 79.7595 52.8961 80.0921C55.0577 80.2584 57.2192 80.0921 59.3808 80.0921C61.2098 80.0921 62.8726 80.0921 64.7016 79.9258C68.1933 79.427 71.8514 78.7619 75.3431 78.0968C77.1722 77.7642 78.8349 76.9329 80.4977 76.434C80.9965 76.2678 81.329 75.9352 81.1628 75.2701C80.6639 75.2701 80.1651 75.4364 79.8326 75.4364C79.3337 72.1109 79.1675 71.6121 77.8373 69.7831C77.0059 68.6192 75.842 67.4552 74.678 66.6239C74.1792 66.2913 73.5141 65.6262 73.5141 65.1274C73.5141 63.9635 73.6804 62.7995 73.8467 61.6356C76.5071 61.1368 78.8349 60.3054 80.9965 59.1415C83.6569 57.645 85.6522 55.3172 87.8137 53.1556C88.4788 52.4905 89.1439 51.8254 89.6427 50.8278C91.4718 47.336 92.6357 43.5117 93.4671 39.5211C93.7996 38.1909 94.1322 37.027 94.4647 35.6968C94.631 35.0317 95.1298 34.3666 94.9635 33.8678C94.7973 32.8702 95.4624 32.2051 95.9612 31.3737C97.4576 29.7109 98.9541 27.8819 100.284 26.0529C100.617 25.5541 101.116 25.0553 101.448 24.5564C101.282 24.2239 101.116 24.0576 100.949 23.7251ZM60.5447 56.1486C56.5541 56.9799 52.3973 56.8137 48.4067 56.4811C48.4067 56.1486 48.4067 55.9823 48.4067 55.816C49.5706 53.4882 49.2381 51.1603 48.7392 48.6662C48.573 48.0011 48.2404 47.6686 47.7416 47.336C46.0789 46.6709 44.4161 45.8396 42.5871 45.0082C41.5894 44.5094 40.5918 44.1768 39.4279 43.5117C40.2593 42.8466 40.9244 42.1815 41.5894 41.6827L41.4232 41.5164C40.5918 42.0152 39.7604 42.5141 38.7628 43.0129C37.2663 42.0153 36.6012 41.3502 37.5989 38.856C37.7651 38.5235 37.7651 38.1909 37.7651 37.8584C37.7651 34.5329 37.7651 31.2074 37.5989 27.8819C37.5989 23.3925 37.4326 18.9031 37.4326 14.4137C37.4326 13.4161 37.7651 12.2521 37.7651 11.2545C37.7651 10.7557 38.264 10.4231 38.7628 10.4231C39.0953 10.4231 39.4279 10.4231 39.7604 10.4231C42.0883 10.7557 44.2498 10.5894 46.5777 10.2568C46.9102 10.2568 47.2428 10.0906 47.5753 10.0906C51.5659 9.75802 55.5565 9.42547 59.3808 9.25919C62.0412 9.09292 64.7016 9.42547 67.5283 9.59174C67.6945 10.5894 67.6945 11.587 67.8608 12.751C67.1957 12.9172 66.6969 12.9172 66.0318 13.0835C62.8726 13.2498 59.7134 13.7486 56.5541 13.7486C52.5636 13.5823 48.573 13.7486 44.5824 13.7486C43.0859 13.7486 41.7557 13.5823 40.2593 13.5823C39.4279 13.5823 38.5965 13.7486 37.7651 13.7486C37.7651 13.9149 37.7651 14.0811 37.7651 14.0811C38.0977 14.2474 38.264 14.4137 38.5965 14.4137C44.4161 14.0811 50.2357 14.2474 56.0553 14.4137C58.7157 14.4137 61.3761 14.2474 64.0365 14.0811C66.1981 13.9149 68.1933 13.7486 70.3549 13.5823C70.8537 13.5823 71.5188 13.5823 72.1839 13.5823C72.1839 15.4113 72.3502 17.0741 72.3502 18.9031C72.1839 23.7251 72.3502 28.3807 72.6828 33.2027C72.849 34.6992 72.849 36.1956 73.0153 37.6921C73.1816 39.0223 72.6828 40.02 71.8514 40.8513C70.0224 42.6803 68.3596 44.0105 66.5306 44.6756C66.3643 43.3454 66.0318 42.0152 65.8655 40.6851C65.0341 36.8607 65.0341 33.0364 65.0341 29.2121C65.0341 28.2145 65.2004 27.0506 65.2004 26.0529C65.2004 24.7227 64.8679 24.3902 63.5377 24.3902C62.0412 24.3902 60.711 24.5564 59.2145 24.5564C58.7157 24.5564 58.3832 24.7227 57.8843 24.7227C54.3926 24.7227 50.9008 24.5564 47.5753 24.3902C46.4114 24.3902 45.2475 24.2239 43.9173 24.2239C43.9173 24.3902 43.751 24.7227 43.751 24.889C46.2451 25.0553 48.4067 25.2215 50.5683 25.2215C52.0647 25.2215 53.5612 25.3878 55.0577 25.2215C56.8867 25.2215 58.7157 25.0553 60.3785 24.889C61.3761 24.889 62.3737 24.889 63.3714 24.889C64.2028 24.889 64.5353 25.3878 64.369 26.0529C64.2028 27.0506 64.2028 28.0482 64.2028 29.2121C64.0365 33.5353 64.369 38.0247 65.3667 42.1815C65.533 42.6803 65.533 43.1792 65.533 43.678C65.6992 44.5094 65.6992 45.1745 65.2004 45.8396C64.8679 46.1721 64.8679 46.6709 64.7016 47.1698C64.2028 46.6709 63.8702 47.0035 63.5377 47.5023C61.5424 50.4952 60.711 53.1556 60.5447 56.1486Z" fill="black"/>
<path d="M83.3257 80.258C83.3257 79.9254 83.1594 79.5929 83.1594 79.4266C80.0002 80.4242 76.841 81.5882 73.6818 82.5858C68.5273 83.916 65.5343 84.0823 63.8716 83.5834C65.0355 82.7521 66.3657 83.2509 67.5296 82.9184C68.8598 82.5858 70.19 82.4195 71.5202 82.087C72.8504 81.7544 74.0143 81.5882 75.3445 81.2556C76.6747 80.9231 77.8386 80.4242 79.1688 80.0917C80.3328 79.5929 81.4967 79.094 82.8269 78.5952C82.6606 78.0964 82.3281 77.4313 81.9955 76.9325C81.663 76.4336 81.663 76.1011 82.3281 75.7686C83.1594 76.7662 83.492 77.9301 83.8245 79.094C84.4896 81.4219 85.321 83.7497 85.9861 86.0776C86.8175 88.9042 87.4826 91.7309 88.1477 94.5576C88.3139 95.3889 88.4802 96.2203 87.9814 97.2179C87.6488 96.7191 87.4826 96.3866 87.3163 96.054C87.15 96.054 86.9837 96.054 86.9837 96.054C83.8245 98.0493 80.1665 99.047 76.6747 100.211C75.3445 100.71 74.0143 101.375 72.5179 101.874C70.3563 102.539 68.1947 103.204 65.7006 103.204C63.8716 103.204 62.0426 103.536 60.3798 103.536C54.0614 103.703 47.9093 102.871 41.5908 102.04C37.6002 101.541 33.9422 100.211 30.6167 98.2156C30.4504 98.0493 30.2842 98.0493 30.1179 97.883C27.6238 96.2203 27.7901 96.054 28.4552 93.2274C29.4528 89.0705 30.9493 85.2462 32.4457 81.2556C32.9446 79.7591 33.7759 78.5952 34.6073 76.9325C35.1061 77.4313 35.4387 77.7638 35.9375 78.0964C35.7712 78.7615 35.605 79.4266 35.2724 80.0917C38.5979 81.4219 41.9234 81.9207 45.4151 82.4195C48.7406 82.9184 52.2324 82.9183 55.5579 83.916C52.0661 84.2485 48.5744 83.7497 45.2489 83.4172C41.7571 82.9184 38.4316 81.9207 34.7736 81.2556C32.612 85.2462 32.2795 89.9019 30.1179 94.225C33.6097 95.7215 37.434 95.8878 40.7595 97.3842C40.7595 97.5505 40.7595 97.5505 40.5932 97.7168C38.7642 97.3842 36.9351 97.2179 35.1061 96.8854C34.9399 97.5505 34.7736 98.0493 34.441 98.7144C36.27 99.3795 37.7665 100.045 39.4293 100.377C42.7547 101.042 46.2465 101.541 49.7383 101.874C51.5673 102.04 53.3963 102.04 55.0591 102.04C58.2183 102.04 61.2112 102.206 64.3704 102.04C67.0308 101.874 69.6912 101.209 72.3516 100.543C75.8434 99.5458 79.1688 98.5481 82.4943 97.3842C83.8245 96.8854 85.1547 96.2203 86.3186 95.3889C86.8175 95.0564 87.3163 94.5576 86.8175 93.8925C85.6535 94.3913 84.4896 94.8901 83.3257 95.3889C80.3328 96.7191 77.1736 97.0517 74.1806 98.0493C70.0238 99.2132 65.7006 99.5458 61.3775 100.045C59.5485 100.377 57.5532 99.8783 55.5579 99.8783C55.3916 99.8783 55.3916 99.7121 55.2253 99.5458C55.5579 98.8807 56.0567 99.047 56.5555 99.047C58.3845 99.047 60.3798 99.2132 62.2089 98.8807C66.8645 98.2156 71.3539 97.883 75.8434 96.3866C78.5037 95.5552 81.1641 94.8901 83.8245 94.0587C84.8222 93.7262 85.6535 93.2274 86.6512 92.8948C85.9861 88.0729 84.4896 84.0823 83.3257 80.258ZM29.4528 94.8901C30.2842 96.2203 31.2818 96.8854 32.4457 97.3842C32.9446 95.8878 32.9446 95.8878 31.7806 95.5552C31.1155 95.3889 30.4504 95.2227 29.4528 94.8901ZM33.4434 96.054C33.2771 96.8854 32.9446 97.3842 33.6097 97.883C34.1085 96.8854 34.1085 96.8854 33.4434 96.054Z" fill="black"/>
<path d="M85.3185 19.4016C86.1499 17.7388 86.815 16.2424 87.6464 14.7459C87.3138 14.5796 87.1475 14.4133 86.815 14.2471C85.4848 16.9075 83.9883 19.4016 82.6581 22.062C81.4942 24.3898 79.6652 26.2188 76.8385 26.5514C76.1734 26.5514 75.6746 26.8839 75.1758 27.0502C75.1758 27.8816 75.5083 27.8816 76.0072 27.7153C79.1664 27.0502 81.8268 25.5537 83.3232 22.5608C84.1546 20.898 85.3185 19.7341 87.3138 19.5679C87.6464 19.5679 87.9789 19.4016 88.1452 19.4016C88.3115 19.4016 88.644 19.2353 88.8103 19.069C88.8103 18.9028 88.8103 18.9028 88.644 18.7365C87.6464 18.9028 86.4824 19.2353 85.3185 19.4016Z" fill="black"/>
<path d="M88.4785 76.5998C88.8111 70.2814 88.9773 64.1292 89.3099 57.6445C90.1413 57.9771 89.975 58.4759 89.975 58.9747C90.1413 63.6304 89.6424 68.2861 89.3099 72.9418C89.3099 73.7731 89.3099 74.7708 89.3099 75.6022C89.3099 75.9347 89.1436 76.2673 88.9773 76.5998C88.8111 76.5998 88.6448 76.5998 88.4785 76.5998Z" fill="black"/>
<path d="M25.2952 65.127C25.6277 65.127 25.6277 65.127 25.6277 65.127H25.794C25.794 65.127 25.794 65.127 25.9603 65.2932C25.9603 65.4595 25.9603 65.4595 26.1266 65.6258C26.1266 65.792 26.1266 65.9583 26.1266 66.1246C26.1266 71.7779 26.2928 77.265 26.2928 83.0846C25.6277 82.9183 25.4615 82.5858 25.4615 81.9207C25.4615 80.923 25.4615 79.9254 25.4615 78.9277C25.4615 76.2673 25.2952 73.6069 25.2952 71.1128C25.2952 69.4501 25.1289 67.7873 25.1289 66.1246C25.1289 65.792 25.2952 65.4595 25.2952 65.127Z" fill="black"/>
<path d="M93.3007 68.4527C92.1367 65.7923 92.6356 63.1319 92.6356 60.3053C92.6356 59.9727 92.6356 59.9727 93.4669 59.3076C93.4669 62.4668 93.4669 65.4598 93.3007 68.4527Z" fill="black"/>
<path d="M30.7816 66.291C30.7816 68.7851 30.9479 71.2792 30.9479 73.9396C30.9479 74.1059 30.7816 74.2722 30.4491 74.771C30.2828 74.4385 30.1165 74.1059 30.1165 73.9396C30.4491 71.4455 29.2852 68.7851 30.2828 66.291C30.4491 66.291 30.6154 66.291 30.7816 66.291Z" fill="black"/>
<path d="M64.201 75.7692C63.7022 75.9355 63.5359 75.9355 63.3697 75.9355C61.5407 75.6029 60.543 72.9426 61.7069 71.4461C62.2058 70.781 62.5383 70.781 63.2034 71.4461C61.3744 73.1088 61.7069 74.6053 64.201 75.7692Z" fill="black"/>
<path d="M47.2403 73.7743C45.7438 73.2754 44.7462 70.9476 45.245 69.7837C45.5775 68.9523 46.0764 68.786 47.074 69.1186C45.245 70.7813 46.2426 72.2778 47.2403 73.7743Z" fill="black"/>
<path d="M61.875 61.3043C61.3762 61.4706 60.5448 61.6368 60.3785 61.9694C59.8797 62.967 61.0436 63.1333 61.5424 63.6321C60.046 63.4659 59.3809 62.967 59.3809 61.9694C59.3809 61.138 60.3785 60.3066 61.2099 60.3066C61.5424 60.3066 61.7087 60.6392 61.875 61.3043Z" fill="black"/>
<path d="M54.8906 75.6022C56.3871 74.6045 56.3871 74.6045 55.8883 72.1104C56.3871 71.7779 56.7196 72.1104 56.8859 72.443C57.2185 73.2743 57.551 74.272 56.7196 75.1033C56.2208 75.6022 55.8883 76.2673 54.8906 75.6022Z" fill="black"/>
<path d="M83.1572 80.2584C81.3282 80.9235 79.6655 81.9211 77.5039 81.9211C77.6702 81.7548 78.0027 81.5886 78.169 81.5886C79.3329 81.256 80.3306 80.7572 81.4945 80.4246C82.1596 80.0921 82.6584 80.2584 83.1572 80.2584C83.1572 80.2584 83.3235 80.2584 83.1572 80.2584Z" fill="black"/>
<path d="M51.0664 61.6351C51.2327 60.4712 51.399 60.1387 52.2303 60.1387C52.7292 60.1387 53.228 60.3049 53.228 60.8038C53.228 61.3026 52.8954 61.8014 52.2303 61.8014C51.8978 61.8014 51.5652 61.8014 51.0664 61.6351Z" fill="black"/>
<path d="M84.6543 22.2284C86.1508 21.8958 87.6472 21.5633 88.9774 21.0645C88.9774 21.2307 88.9774 21.2307 89.1437 21.397C87.6472 21.8958 86.317 22.3946 84.8206 22.5609C84.8206 22.5609 84.6543 22.3946 84.6543 22.2284Z" fill="black"/>
<path d="M81.8291 82.0869C80.8315 82.752 79.8338 83.0846 78.6699 83.0846C79.5013 82.0869 80.6652 82.0869 81.8291 82.0869Z" fill="black"/>
<path d="M72.1849 72.2762C71.6861 71.9436 71.1872 71.6111 71.5198 70.946C71.6861 70.7797 72.3512 70.7797 72.5174 70.946C73.0163 71.4448 72.6837 71.7774 72.1849 72.2762Z" fill="black"/>
<path d="M52.5645 69.9492C52.7307 69.6167 52.897 69.2841 53.0633 69.1178C53.2295 68.9516 53.5621 69.1178 53.8946 69.1178C53.8946 69.4504 54.0609 69.9492 53.8946 70.1155C53.5621 70.2818 53.0633 70.448 52.7307 70.448C52.7307 70.1155 52.5645 69.9492 52.5645 69.9492Z" fill="black"/>
<path d="M50.4023 75.7694C50.4023 75.4368 50.4023 75.1043 50.5686 74.6055C50.7349 74.7717 51.0674 74.7717 51.0674 74.7717C51.0674 75.1043 50.9012 75.4368 50.7349 75.7694C50.5686 75.7694 50.5686 75.7694 50.4023 75.7694Z" fill="black"/>
<path d="M44.0858 24.8877C44.2521 25.3865 44.4183 25.8853 44.4183 26.3842C44.4183 28.712 44.4183 31.0398 44.4183 33.534C44.4183 36.3606 44.4183 39.3536 44.4183 42.3465C45.0834 42.014 45.7485 41.6814 46.4136 41.3489C46.4136 41.3489 46.4136 41.5151 46.5799 41.5151C45.9148 42.1802 45.0834 43.0116 44.4183 43.6767L44.5846 43.843C45.2497 43.5104 45.9148 43.1779 46.5799 42.8453L46.7462 43.0116C45.9148 43.6767 44.9172 44.3418 44.0858 45.1732C42.9219 44.3418 42.9219 43.0116 42.9219 41.8477C42.9219 39.1873 42.9219 36.6932 42.9219 34.1991C42.9219 31.2061 43.0882 28.2132 43.0882 25.054C43.4207 24.8877 43.7532 24.8877 44.0858 24.8877Z" fill="black"/>
<path d="M55.8888 18.071C55.3899 18.2373 55.0574 18.5699 54.7248 18.5699C53.8935 18.5699 53.5609 19.0687 53.5609 19.7338C53.5609 20.5651 53.5609 21.2302 53.7272 22.0616C53.7272 22.5604 54.0597 23.0593 54.226 23.8906C53.7272 23.5581 53.5609 23.3918 53.3946 23.2255C52.5633 21.5628 52.397 20.0663 52.8958 18.5699C53.3946 17.2397 54.226 17.0734 55.8888 18.071Z" fill="black"/>
<path d="M66.3658 18.0709C66.3658 18.2372 66.3658 18.2372 66.1996 18.4035C65.7007 18.5698 64.8694 18.736 64.8694 19.4011C64.8694 20.0662 65.2019 20.8976 65.3682 21.5627C65.5345 21.8952 65.867 22.2278 66.1996 22.5603C64.2043 21.8952 63.3729 20.0662 64.038 18.5698C64.7031 17.5721 65.2019 17.4058 66.3658 18.0709Z" fill="black"/>
<path d="M68.0293 40.8512C68.3618 40.1861 69.0269 39.6873 69.1932 39.0222C69.3595 38.3571 69.1932 37.5257 69.1932 36.6943C70.1909 37.0269 70.1909 37.8583 70.1909 38.6896C70.0246 39.6873 69.1932 40.5186 68.0293 40.8512Z" fill="black"/>
<path d="M40.4241 32.7031C39.5928 33.867 39.5928 35.031 40.4241 36.0286C39.2602 35.8623 38.7614 35.1972 38.9277 33.867C39.0939 32.8694 39.2602 32.7031 40.4241 32.7031Z" fill="black"/>
<path d="M37.5977 41.6819C38.429 40.3517 39.4267 39.5203 40.5906 39.0215C40.258 40.0191 39.0941 41.1831 37.5977 41.6819Z" fill="black"/>
<path d="M68.5264 31.2067C68.3601 30.2091 68.1938 29.544 69.0252 28.8789C69.8566 29.8766 69.6903 30.5417 68.5264 31.2067Z" fill="black"/>
<path d="M45.2448 19.7343C44.9122 20.0668 44.5797 20.3994 44.4134 20.3994C44.0809 20.2331 43.9146 19.9005 43.582 19.7343C43.9146 19.568 44.0809 19.2354 44.4134 19.0692C44.5797 18.9029 44.746 19.4017 45.2448 19.7343Z" fill="black"/>
<path d="M58.5513 22.2292C58.385 21.7303 58.385 21.3978 58.2188 20.5664C58.8838 20.899 59.2164 20.899 59.3827 21.2315C59.3827 21.7303 59.0501 22.0629 58.5513 22.2292Z" fill="black"/>
<path d="M39.7617 26.5523C39.928 26.386 40.0943 26.2197 40.2605 26.2197C40.4268 26.2197 40.5931 26.386 40.7594 26.5523C40.5931 26.7185 40.4268 27.0511 40.2605 27.0511C40.2605 27.0511 40.0943 26.8848 39.7617 26.5523Z" fill="black"/>
</svg>
