<svg width="96" height="110" viewBox="0 0 96 110" fill="none" xmlns="http://www.w3.org/2000/svg">
<path d="M94.7764 60.637C94.2776 64.4613 93.4462 68.6181 92.9474 72.775C92.2823 78.0958 89.2894 82.2526 85.9639 85.9107C81.9733 90.4001 77.4839 94.2244 71.9968 97.0511C64.0157 101.042 55.3694 102.704 46.7231 103.037C34.9176 103.536 24.1098 99.8777 14.6322 92.2291C7.81492 86.742 4.32316 79.426 0.831397 71.9436C0.332574 70.6134 2.53637e-05 68.9507 0.1663 67.7868C0.498849 62.6323 0.498849 57.1452 2.16159 52.3233C4.32316 46.1711 6.15218 39.6864 9.81022 34.0331C13.8008 27.8809 18.2902 22.7264 24.4424 18.7358C29.5969 15.0778 35.2502 12.75 41.5686 12.4174C42.4 12.4174 43.5639 12.2511 44.5616 12.2511C59.5263 9.75701 71.498 15.7429 82.1396 25.3868C88.458 31.0401 91.2847 38.855 93.28 46.6699C94.1113 50.9931 94.2776 55.6487 94.7764 60.637ZM91.4509 60.3044C91.7835 48.6652 88.458 38.0237 80.6431 29.0448C73.4933 20.8974 64.1819 15.9092 53.7067 15.0778C43.5639 13.9139 34.0863 17.0731 26.1051 23.5578C16.6275 31.2064 10.1428 41.3491 5.9859 52.4895C3.99061 57.4778 3.32551 63.6299 4.15689 68.7844C6.48473 82.2526 15.131 91.564 27.4353 96.7185C41.2361 102.372 55.5357 101.374 69.0039 95.0558C83.4698 87.906 92.116 77.2644 91.4509 60.3044Z" fill="#EB584A"/>
<path d="M84.4647 38.0231L83.9659 40.6835C83.9659 40.6835 83.9659 40.8497 84.1322 41.016C84.1322 41.1823 84.2985 41.3486 84.2985 41.5148C84.7973 43.0113 85.2961 46.3368 83.1346 49.1635C81.4718 51.325 78.8114 54.1517 76.8161 55.8144C75.9848 56.6458 75.4859 57.1446 74.9871 57.4772C74.8208 57.6434 74.6546 57.8097 74.6546 57.8097C74.6546 57.8097 75.8185 64.4607 75.3197 67.6199C74.8208 70.7791 72.9918 78.4277 72.9918 78.4277L74.4883 79.9242C74.4883 79.9242 70.8303 94.2238 61.3526 97.383C60.355 97.7156 59.191 97.8819 58.0271 97.8819C57.6946 97.8819 57.362 97.8819 57.0295 97.8819C54.5354 97.8819 52.0412 97.7156 49.3809 97.5493C49.0483 97.5493 48.5495 97.383 48.0507 97.383C46.8867 97.2168 45.8891 97.0505 44.8914 96.8842C44.5589 96.8842 44.0601 96.7179 43.5613 96.7179C43.2287 96.7179 42.8962 96.5517 42.3973 96.5517C42.0648 96.5517 41.566 96.3854 41.2334 96.3854C41.0671 96.3854 41.0671 96.3854 40.9009 96.3854C40.402 96.3854 40.0695 96.2191 39.5707 96.0528C38.2405 95.7203 36.9103 95.3877 35.7464 95.0552C35.5801 95.0552 35.4138 94.8889 35.0813 94.8889C34.7487 94.7226 34.2499 94.7226 33.9173 94.5564C33.5848 94.5564 33.4185 94.3901 33.086 94.2238C33.086 94.2238 33.086 94.2238 32.9197 94.2238C32.2546 94.0575 31.7558 93.8913 31.2569 93.5587C29.9267 93.0599 28.7628 92.3948 27.7652 91.896C27.5989 91.7297 27.4326 91.7297 27.2664 91.5634C26.6013 91.0646 25.9362 90.5658 25.6036 90.067V84.9125C25.6036 84.9125 24.4397 80.0905 24.4397 79.5917C24.4397 79.0928 23.9409 79.0928 23.9409 79.0928C23.9409 79.0928 18.4538 70.7791 18.2875 64.4607C18.2875 58.1423 18.7864 55.3156 18.7864 55.3156L17.7887 51.325C17.7887 51.325 17.2899 50.6599 16.4585 49.496C16.126 49.1635 15.9597 48.6646 15.6272 48.1658C15.1283 47.3344 14.6295 46.5031 14.1307 45.6717C13.4656 44.5078 12.9668 43.3438 12.8005 42.3462C12.6342 41.3486 12.6342 40.0184 12.8005 38.8544C12.9668 36.6929 13.4656 34.5313 13.7981 33.3674C13.7981 33.2011 13.7981 33.0348 13.9644 32.8686C13.9644 32.536 14.1307 32.3697 14.1307 32.3697C14.1307 32.3697 13.2993 26.2176 13.2993 20.7305C13.4656 15.9086 14.297 11.5854 17.1236 11.7517C18.1213 11.7517 19.1189 11.918 19.9503 11.918C20.2828 11.918 20.6154 12.0843 20.9479 12.0843C24.606 12.9156 26.9338 15.2435 31.922 25.0537L34.5824 31.7046L34.915 32.7023L35.0813 33.2011C35.0813 33.2011 41.0671 32.2035 46.0554 32.8686C51.0436 33.5337 57.1958 33.6999 57.1958 33.6999L62.0177 35.0301L62.5165 34.365L62.8491 34.0325L64.3456 32.0372L64.8444 31.2058L65.0106 30.8733C65.0106 30.8733 75.4859 14.7447 83.6334 17.5713C83.6334 17.5713 87.2914 18.9015 85.6287 26.7164L84.4647 38.0231Z" fill="white"/>
<path d="M23.2751 36.5263C22.1112 38.1891 19.9496 38.8542 18.6194 40.3506C17.9543 41.182 17.4555 42.1797 17.2892 43.1773C16.7904 44.6738 16.6241 46.1702 16.4579 47.833C16.4579 47.9993 16.4579 47.9993 16.4579 48.1655V48.3318C16.4579 48.3318 16.4579 48.4981 16.4579 48.6644C16.2916 48.4981 16.2916 48.1655 16.1253 47.9993V47.833C15.7928 47.1679 15.4602 46.5028 15.2939 45.8377C14.4626 43.5099 13.9637 41.182 13.9637 39.0204C13.9637 37.8565 13.9637 36.6926 13.9637 35.5287C14.13 34.8636 14.2963 34.0322 14.4626 33.2008C14.6288 33.3671 14.7951 33.3671 14.9614 33.5334C14.9614 33.3671 14.9614 33.2008 15.1277 33.0346C14.4626 31.7044 14.13 30.3742 14.13 28.8777C14.13 26.5499 13.7975 23.8895 13.7975 21.3954C13.7975 21.0628 13.7975 20.7303 13.7975 20.2314C13.4649 20.2314 13.6312 20.3977 13.7975 20.564C13.7975 20.564 13.9637 20.7303 14.13 20.7303C15.2939 21.5616 16.6241 22.2267 17.7881 23.0581C19.9496 24.7209 21.2798 27.215 22.4437 29.7091C22.9426 30.873 23.6077 31.8707 23.7739 33.2008C23.9402 34.1985 23.9402 35.5287 23.2751 36.5263Z" fill="#BCBBBA"/>
<path d="M26.2703 55.8132C26.6028 52.3214 28.5981 49.1622 31.0922 46.8344C31.5911 46.5018 32.0899 46.003 32.5887 45.8367C34.2514 45.3379 35.7479 46.6681 36.9118 47.9983C38.0758 49.3285 39.2397 50.8249 39.7385 52.4877C40.4036 54.1504 40.4036 56.1457 39.2397 57.6422C40.071 58.4736 41.4012 58.3073 42.7314 58.141C44.7267 57.9747 46.5557 57.6422 48.551 57.3096C49.715 57.1434 51.0452 56.9771 52.0428 56.312C53.7055 55.3144 54.7032 53.4853 56.0334 51.9889C57.5299 50.3261 59.8577 49.1622 62.1855 49.1622C64.5134 49.1622 66.8412 50.1598 68.1714 52.1551C69.8342 54.6493 69.3353 58.141 67.8389 60.8014C66.6749 62.963 64.8459 64.9583 64.3471 67.2861C63.682 70.279 65.1785 73.272 66.1761 76.0986C67.1738 78.9253 67.6726 82.4171 65.6773 84.7449C64.1808 86.4077 61.853 86.9065 59.6914 87.0728C57.5299 87.239 55.202 87.239 53.2067 88.2367C52.5416 88.5692 51.8765 89.0681 51.2114 89.4006C49.8812 90.0657 48.3848 90.232 46.8883 90.232C45.5581 90.232 44.2279 90.3982 43.064 90.232C40.5699 89.7331 38.5746 87.9041 36.0805 87.4053C33.9189 86.9065 31.591 87.5716 29.2632 87.239C28.9307 87.239 28.4318 87.0728 28.0993 86.7402C27.7667 86.5739 27.6005 86.0751 27.6005 85.7426C26.9354 83.7473 26.104 81.752 26.104 79.5904C25.9377 74.9347 29.0969 71.1104 29.2632 66.4547C29.2632 64.792 28.2656 63.2955 27.6005 61.9653C26.6028 60.1363 25.9377 57.9747 26.2703 55.8132Z" fill="#BCBBBA"/>
<path d="M75.32 42.014C74.4887 42.1803 73.8236 42.014 72.9922 41.6814C69.833 40.5175 62.0181 37.0258 63.5145 32.5363C63.5145 32.3701 63.6808 32.2038 63.8471 32.0375C68.004 29.5434 70.9969 24.8877 74.4887 21.7285C74.9875 21.7285 75.4863 21.8948 75.8188 22.3936C76.4839 23.0587 76.6502 23.8901 76.8165 24.8877C76.9828 26.0516 76.8165 27.2156 76.8165 28.3795C76.6502 30.2085 75.9851 31.8713 76.3177 33.7003C76.4839 35.363 77.3153 36.6932 77.4816 38.356C77.4816 39.5199 76.9828 41.5152 75.32 42.014Z" fill="#BCBBBA"/>
<path d="M30.2616 94.8884C31.0929 95.7198 31.9243 96.3849 32.2568 97.3825C32.4231 97.8813 32.4231 98.5464 32.5894 98.879C33.0882 100.542 35.5823 101.207 36.9125 100.043C37.4114 99.5441 37.7439 98.879 38.2427 98.5464C38.7416 98.0476 39.7392 98.0476 40.0717 98.5464C40.238 98.7127 40.238 99.0452 40.4043 99.3778C40.5706 99.5441 40.7368 99.5441 40.9031 99.5441C42.5659 99.8766 44.2286 100.209 46.0576 100.375C46.3902 100.375 46.7227 100.375 47.0553 100.375C47.3878 100.209 47.5541 100.043 47.7204 99.8766C48.5517 99.2115 49.7157 99.7103 50.7133 100.043C52.2098 100.874 53.8725 101.539 55.369 102.371C55.8678 102.537 56.5329 102.87 57.0317 102.537C57.8631 102.038 57.3643 100.874 57.5306 100.043C57.6968 99.2115 58.5282 98.879 59.1933 98.3801C63.3502 96.0523 67.0082 92.7268 69.8349 88.9025C71.9964 86.0758 73.8255 82.4178 72.9941 78.7598C70.0011 80.7551 66.8419 82.7504 65.0129 85.9096C64.8466 86.2421 64.6804 86.5747 64.1815 86.9072C63.849 87.0735 63.5164 87.0735 63.1839 87.2398C61.1886 87.5723 59.027 87.5723 57.0317 87.2398C56.5329 87.2398 56.0341 87.0735 55.7015 87.2398C55.2027 87.406 54.7039 87.7386 54.2051 88.2374C50.0482 91.7292 43.7298 92.228 38.9078 89.4013C37.5776 88.57 36.2474 87.406 34.5847 87.2398C33.4208 87.0735 32.0906 87.406 30.9267 87.406C29.4302 87.406 25.7721 85.4107 26.271 88.4037C27.1023 90.8978 28.5988 93.2256 30.2616 94.8884Z" fill="#F15748"/>
<path d="M73.6597 78.5929C74.9899 74.4361 76.3201 70.1129 75.8213 65.6235C75.3225 62.9631 75.3225 60.3028 75.1562 57.6424C74.9899 54.8157 74.6574 51.8228 73.6597 48.9961C73.826 55.1482 74.8237 60.6353 75.1562 66.6212C74.6574 72.7733 73.1609 78.4267 68.1727 82.4172C67.175 79.5906 66.8425 76.5976 65.1797 74.1035C64.6809 73.2722 63.8495 72.4408 63.0182 71.7757C60.8566 69.9467 60.3578 66.9537 58.1962 65.1247C58.0299 64.9584 57.6974 64.7922 57.5311 64.6259C57.3648 64.4596 57.0323 64.2933 56.866 64.2933C57.0323 64.4596 57.1986 64.6259 57.3648 64.7922C57.5311 64.9584 57.6974 65.1247 57.8637 65.4573C58.8613 66.6212 59.859 67.9514 60.5241 69.4478C59.859 69.1153 59.5264 68.949 59.0276 68.6165C59.0276 68.6165 58.8613 68.7827 58.8613 68.949C60.8566 70.9443 63.6833 72.4408 64.8472 75.1012C65.5123 77.9278 67.3413 81.2533 66.3437 84.08C65.6786 85.2439 64.6809 86.2416 63.517 86.9067C62.3531 87.5717 60.8566 87.9043 59.5264 87.5718C58.0299 87.4055 56.3672 86.4078 55.2033 84.5788C53.0417 81.0871 50.3813 77.9278 46.8896 75.7663C46.8896 74.9349 47.0558 74.1035 47.0558 73.4384C47.0558 73.4384 46.8896 73.4384 46.8896 73.2722C45.3931 77.429 40.0723 77.7616 38.2433 81.9184C36.7468 85.4102 29.2645 90.0659 27.6017 84.7451C27.4354 84.7451 27.4354 84.5788 27.2692 84.5788C26.2715 83.7474 26.1053 82.251 26.4378 80.5882C26.7703 78.5929 27.6017 76.4314 27.6017 75.1012C27.4354 75.1012 27.4354 74.9349 27.2692 74.9349C27.2692 74.9349 27.1029 74.9349 27.1029 74.7686C25.939 75.9325 25.2739 76.9302 24.6088 78.5929C23.6111 76.5976 22.6135 74.7686 21.7821 72.9396C23.6111 70.9443 25.2739 69.1153 26.9366 67.12C26.7704 66.9537 26.7704 66.9537 26.6041 66.7875C24.9413 68.6165 23.2786 70.4455 21.6158 72.4408C20.1194 67.2863 19.288 62.298 20.4519 56.9773C20.7845 55.6471 20.1194 54.8157 19.4543 53.8181C19.7868 53.8181 20.1194 53.6518 20.4519 53.6518C20.2856 52.4879 19.9531 51.6565 18.6229 51.1577C18.6229 51.8228 18.7892 52.3216 18.7892 52.8204C18.4566 52.8204 18.1241 52.8204 17.459 52.9867C18.2904 53.9843 19.1217 54.8157 18.7892 56.3122C17.9578 60.3028 18.1241 64.2933 18.9555 68.2839C19.6206 72.6071 22.946 75.9325 24.4425 79.7569C24.4425 81.4196 24.9413 82.9161 25.6064 83.9137C24.7751 86.0753 25.1076 90.5647 25.2739 90.731L25.6064 91.0635C25.7727 91.2298 26.1053 91.5623 26.2715 91.7286C26.7704 92.2274 31.5923 97.2157 31.5923 99.211C31.426 101.871 34.0864 101.871 36.248 101.373C36.7468 100.874 39.2409 99.211 39.906 98.3796L40.0723 98.2133C40.4049 98.8784 40.7374 99.211 41.0699 99.7098C42.4001 101.04 44.5617 101.04 46.3907 101.206C48.386 101.206 48.5523 101.206 49.2174 99.7098V99.5435C49.3837 99.5435 49.5499 99.7098 49.8825 99.8761C51.7115 100.707 55.037 102.37 55.3695 103.035L55.5358 103.202C55.7021 103.202 55.7021 103.368 55.7021 103.368C58.695 104.199 58.5288 102.038 58.8613 98.8784C61.688 98.8784 64.0158 97.7145 66.1774 96.0517C67.0088 95.0541 67.8401 94.0565 68.6715 93.0588C70.3342 91.0635 71.6644 89.2345 72.8284 87.0729C72.8284 87.0729 72.8284 87.0729 72.6621 87.0729C73.1609 86.0753 73.6597 85.0776 73.9923 84.08C74.1586 83.2486 74.4911 82.4172 74.4911 81.5859C74.4911 81.0871 74.4911 80.7545 74.4911 80.2557C74.1586 79.7569 73.826 79.258 73.6597 78.7592C73.9923 78.5929 73.826 78.5929 73.6597 78.5929ZM30.0958 94.7215C29.2645 93.8902 28.5994 92.8925 28.1005 91.7286C27.4354 90.2321 27.1029 88.7357 26.7704 87.0729C26.7704 86.5741 26.6041 86.2416 26.6041 85.7427C26.9366 86.0753 27.2692 86.4078 27.6017 86.7404C29.7633 88.7357 32.2574 88.5694 34.419 87.4055C34.419 87.4055 34.5852 87.2392 34.7515 87.2392C36.0817 86.4078 37.4119 85.0776 38.4096 83.5812C40.4049 80.2557 43.5641 78.2604 46.3907 75.9325C50.5476 78.2604 52.7092 82.7498 55.5358 86.4078C52.8754 87.9043 50.215 89.7333 47.3884 90.5647C45.7256 91.0635 43.8966 91.2298 42.0676 90.5647H41.9013C41.2362 90.3984 40.7374 90.0659 40.0723 89.7333C40.2386 89.7333 40.2386 89.567 40.4048 89.4008C41.9013 87.9043 43.2315 86.4078 44.5617 85.0776L44.3954 84.9114C41.2362 86.9067 41.0699 88.9019 39.906 89.2345C39.5735 89.4008 39.2409 89.4008 38.7421 89.2345C38.077 89.0682 37.2456 88.5694 35.7492 87.5718L35.5829 87.4055C35.5829 87.4055 35.5829 87.4055 35.7492 87.5718C38.077 90.5647 41.9013 91.7286 45.3931 93.2251C45.8919 93.3914 46.3907 93.2251 46.8896 93.0588C49.0511 92.3937 48.5523 95.2204 48.2197 97.3819C48.2197 98.047 48.0535 98.5459 48.2197 98.8784C46.7233 98.3796 45.5594 97.8808 44.2292 97.3819C44.3954 97.2157 44.728 97.0494 45.0605 96.8831C45.3931 96.5506 45.8919 96.3843 46.2245 96.0517C46.0582 95.8855 46.0582 95.7192 45.8919 95.5529C45.2268 95.8855 44.5617 96.3843 43.8966 96.7168C43.0652 97.2157 42.4001 97.5482 41.5688 98.047C41.5688 97.8808 41.4025 97.8808 41.4025 97.7145C41.9013 97.3819 42.2339 97.0494 42.7327 96.5506C43.3978 96.0517 44.0629 95.3866 44.728 94.8878C44.728 94.7216 44.5617 94.5553 44.3954 94.5553C43.3978 95.2204 42.5664 95.7192 41.4025 96.3843C41.2362 96.3843 41.2362 96.5506 41.0699 96.5506C41.0699 96.5506 41.0699 96.3843 41.0699 96.218C41.2362 94.8878 41.2362 93.5576 41.4025 92.2274C41.2362 92.2274 40.9037 92.2274 40.4048 92.0612C40.0723 93.2251 40.0723 94.7215 39.7398 96.0517C39.5735 96.8831 39.0747 97.5482 38.2433 98.047C36.7468 98.8784 35.0841 100.042 33.0888 99.3772C32.0911 97.0494 34.419 96.218 35.9154 94.8878C36.0817 94.7216 36.248 94.5553 36.4143 94.389C36.4143 94.389 36.248 94.2227 36.248 94.0565C35.9154 94.2227 35.5829 94.389 35.2503 94.7215C34.419 95.2204 33.5876 95.7192 32.7562 96.3843C33.0888 95.5529 33.5876 95.0541 34.0864 94.389C34.9178 93.7239 35.7492 93.0588 36.0817 91.8949C35.0841 92.56 34.2527 93.2251 33.2551 94.0565C33.2551 94.0565 33.2551 94.0565 33.0888 94.0565H32.9225C33.2551 92.2274 33.5876 90.5647 33.7539 88.7357C31.9249 87.9043 31.5923 91.0635 31.2598 93.3914C31.0935 94.389 31.0935 95.2204 30.9272 95.7192C30.5947 95.3866 30.2621 95.2204 29.9296 94.8878C30.2621 94.8878 30.2621 94.7215 30.0958 94.7215ZM49.5499 98.5459C49.5499 98.2133 49.5499 97.7145 49.5499 97.3819C49.7162 95.7192 50.215 94.0564 48.8848 92.7263C51.5452 91.3961 54.7044 90.731 56.0346 87.5718C56.0346 87.4055 56.2009 87.2392 56.2009 87.2392C56.2009 87.0729 56.2009 87.0729 56.3672 86.9067C56.5335 87.0729 56.866 87.2392 57.0323 87.2392C57.1986 87.2392 57.1986 87.4055 57.3648 87.4055C57.8637 87.5718 58.1962 87.9043 58.695 88.2369C61.0229 90.0659 66.6762 88.4031 67.8401 85.5765C69.6691 83.7474 71.8307 82.0847 73.3272 79.7569C73.4935 79.5906 73.6597 79.258 73.826 79.0918C73.826 79.5906 73.6597 80.2557 73.4935 80.7545C71.8307 85.5765 66.5099 91.8949 62.8519 94.7215C62.1868 92.8925 62.8519 90.8972 61.8542 89.2345C61.688 89.2345 61.688 89.2345 61.5217 89.2345V95.3866H61.3554C60.8566 93.8902 61.3554 90.2321 60.3578 89.567C59.5264 91.7286 61.3554 94.8878 59.5264 96.5506V89.8996C59.5264 88.9019 59.5264 88.9019 58.3625 88.2369C57.8637 91.3961 57.6974 94.389 57.3648 97.5482C57.3648 97.8808 57.3648 98.047 57.1986 98.3796C56.0346 102.703 52.0441 98.8784 49.5499 98.5459Z" fill="black"/>
<path d="M46.888 60.9678C50.3798 60.3027 55.5343 63.7945 52.2088 67.2862C50.7123 68.4502 49.2158 71.9419 46.888 70.778C41.8998 67.6188 37.5766 61.1341 46.888 60.9678Z" fill="black"/>
<path d="M35.2487 31.3711C35.0824 31.5374 34.9161 31.5374 34.9161 31.5374C31.5906 25.7178 30.7593 17.5704 24.4408 13.746C23.4432 12.7484 22.4455 12.0833 21.6142 11.7507C21.2816 11.5845 20.9491 11.5845 20.6165 11.5845C16.9585 11.4182 14.1318 16.2402 14.1318 20.5633V20.8958C14.2981 23.5562 14.2981 26.2166 14.4644 29.0433C15.6283 27.5468 16.6259 26.3829 17.6236 25.219C17.7899 25.219 17.7899 25.3852 17.9561 25.3852C16.9585 26.7154 16.1271 28.0456 15.2957 29.3758L15.462 29.5421C16.4597 28.3782 17.6236 27.2143 18.6212 26.0503C18.7875 26.0503 18.7875 26.2166 18.9538 26.3829C18.2887 27.3805 17.4573 28.3782 16.7922 29.3758C16.2934 30.3735 14.6306 30.8723 15.1295 32.3688C16.6259 30.8723 17.9561 29.3758 19.2863 28.0456L19.4526 28.2119C18.4549 30.2072 16.7922 31.5374 15.462 33.0339C15.9608 34.3641 16.6259 35.6943 17.1248 37.1907H16.9585C16.4597 36.3594 15.9608 35.528 15.462 34.5303C12.9679 39.8511 13.9655 43.6754 16.4597 47.8323C16.9585 48.6637 17.6236 49.6613 18.2887 50.4927C17.9561 50.1601 17.6236 49.6613 17.291 49.3288C16.9585 48.9962 16.6259 48.4974 16.2934 48.1648C16.1271 47.9986 15.9608 47.666 15.7946 47.4997C12.6353 43.6754 12.1365 40.5162 13.3004 35.1954C13.4667 34.5303 13.633 33.699 13.7993 32.8676C13.9655 33.0339 14.1318 33.0339 14.2981 33.2001C14.4644 33.3664 14.6306 33.3664 14.7969 33.5327C14.6306 33.2001 14.4644 33.0339 14.4644 32.7013C13.7993 31.3711 13.4667 30.0409 13.4667 28.5445C13.4667 26.2166 13.1342 23.5562 13.1342 21.0621C13.1342 20.7296 13.1342 20.397 13.1342 19.8982C13.3004 16.9053 13.9655 13.9123 16.1271 11.4182C19.9514 7.26134 27.4338 14.7437 29.7616 18.2354C31.7569 22.5586 34.251 26.7154 35.2487 31.3711Z" fill="black"/>
<path d="M84.1317 41.0148C83.4666 41.6799 82.9678 42.5113 81.9701 42.8438C84.9631 35.8603 85.6282 27.8791 85.9607 20.2305C84.9631 13.0807 73.6564 20.7293 71.8274 24.2211C69.3333 27.0478 66.8392 30.8721 63.5137 32.3685C68.6682 26.7152 71.9937 18.4015 80.1411 16.7387C84.6305 15.7411 87.956 18.734 87.4572 23.3897C86.4595 29.2093 86.127 35.3615 84.1317 41.0148Z" fill="black"/>
<path d="M67.6712 57.4762C66.8398 62.6308 60.0226 61.3006 59.1912 56.8111C58.3598 49.9939 67.6712 51.4904 67.6712 57.4762Z" fill="black"/>
<path d="M31.5899 58.6406C26.1028 58.1418 25.4377 51.3245 30.9248 50.4932C34.9154 50.6594 36.5781 58.1418 31.5899 58.6406Z" fill="black"/>
<path d="M65.6777 35.1949C66.1765 35.6938 66.8416 36.3589 67.3404 36.8577C67.3404 36.8577 67.1741 37.024 67.1741 37.1902C62.6847 35.3612 58.5279 33.5322 53.5396 33.8648C46.8887 33.6985 39.5726 31.5369 33.0879 34.5298C36.4134 28.8765 49.0502 33.0334 54.8698 32.7008C57.8628 32.8671 60.8557 33.1997 63.8487 34.1973C65.6777 34.031 67.1741 32.0357 68.6706 31.0381C68.6706 31.0381 68.8369 31.2044 69.0032 31.3706C68.1718 32.8671 66.0102 33.5322 65.6777 35.1949Z" fill="black"/>
<path d="M55.8672 54.4834C56.1997 49.8277 60.5229 48.165 63.6821 48.8301C72.3284 50.9917 71.9958 62.7971 65.3448 66.954C65.3448 66.954 65.1786 66.7877 65.0123 66.7877C65.8437 64.7924 67.1738 63.1297 68.1715 61.3007C72.3284 51.9893 61.8531 43.6756 55.8672 54.4834Z" fill="black"/>
<path d="M28.2652 61.8002C24.9397 60.6363 25.106 57.4771 24.7734 54.4842C23.9421 49.1634 29.5954 46.0042 34.2511 45.8379C29.7617 47.9995 24.7734 50.9924 26.2699 56.6457C26.6025 58.4747 26.4362 60.47 28.2652 61.8002Z" fill="black"/>
<path d="M42.3969 59.8043C37.4086 61.6334 36.2447 67.6192 32.2541 70.6122C31.4228 67.2867 39.0714 58.4741 42.3969 59.4718C42.3969 59.6381 42.3969 59.6381 42.3969 59.8043Z" fill="black"/>
<path d="M40.4023 54.8154C41.7325 52.9864 44.7255 51.8224 44.0604 49.162C42.7302 44.8389 43.8941 40.1832 45.2243 36.0264C44.3929 38.6868 45.5569 41.5134 44.0604 44.0075C43.7278 44.6726 43.8941 45.504 44.0604 46.3354C44.8918 49.6609 45.7231 53.3189 42.2314 55.1479C41.5663 55.813 40.9012 55.6467 40.4023 54.8154Z" fill="black"/>
<path d="M29.4267 35.5288C28.7616 35.3625 28.4291 35.1962 27.9303 35.1962C28.0965 35.695 28.2628 36.1939 28.4291 36.6927C27.2652 37.524 26.1013 38.688 24.7711 39.3531C23.4409 40.0182 23.9397 40.517 24.2722 41.6809C23.7734 41.5146 23.4409 41.3484 22.942 41.3484C22.942 41.8472 23.1083 42.346 23.1083 42.6786C23.1083 42.6786 22.942 42.8448 22.7758 42.8448C22.2769 42.0135 21.7781 41.0158 21.2793 40.0182C21.7781 40.0182 21.9444 40.1844 22.2769 40.1844C23.1083 38.0229 25.6024 37.6903 26.9326 35.8613C26.7664 35.1962 26.4338 34.3648 26.2675 33.5335C26.4338 33.5335 26.4338 33.3672 26.6001 33.3672C27.2652 33.866 28.2628 34.6974 29.4267 35.5288Z" fill="black"/>
<path d="M27.5996 72.4407C27.2671 67.6188 34.0843 58.4737 37.2435 57.8086C33.0867 62.1317 29.7612 66.9537 27.5996 72.4407Z" fill="black"/>
<path d="M84.1325 41.0156C85.7952 44.6737 84.9638 47.9992 82.3035 50.9921C80.4744 52.6548 78.978 55.1489 76.8164 56.1466C79.6431 50.327 85.7952 49.6619 84.1325 41.0156Z" fill="black"/>
<path d="M42.2336 35.3613C41.0696 38.3543 39.9057 41.1809 38.9081 43.8413C37.2453 42.3449 39.0743 35.5276 42.2336 35.3613Z" fill="black"/>
<path d="M70.002 37.8563C70.8333 37.1912 72.3298 32.5356 73.4937 34.032C72.9949 35.1959 72.3298 36.3599 71.9972 37.3575C73.4937 39.5191 74.9902 41.3481 76.3204 43.3434L76.1541 43.5097C73.66 42.512 72.6623 37.025 70.002 37.8563Z" fill="black"/>
<path d="M56.0336 63.9608C52.5419 58.9726 51.2117 60.9679 48.2188 58.1412C51.2117 57.4761 53.7058 59.6377 56.1999 63.7946C56.1999 63.7946 56.0336 63.9608 56.0336 63.9608Z" fill="black"/>
<path d="M56.0318 58.8069C53.3714 57.8093 52.7063 54.4838 49.7134 54.1512C49.7134 53.9849 49.5471 53.6524 49.3809 52.9873C52.2075 54.3175 55.0342 55.4814 56.0318 58.8069Z" fill="black"/>
<path d="M50.0469 50.1615C51.2108 46.0046 52.0422 42.014 50.712 38.0234C52.541 40.3513 52.541 48.1662 50.0469 50.1615Z" fill="black"/>
<path d="M30.2612 42.6777C30.5937 43.0103 30.76 43.1766 31.2588 43.5091C29.0972 44.673 27.767 46.8346 25.6055 46.6683C25.6055 46.502 25.6055 46.502 25.6055 46.3358C27.1019 45.3381 28.5984 44.1742 30.2612 42.6777Z" fill="black"/>
<path d="M63.6826 69.6131C62.5187 67.2853 61.5211 64.9575 60.5234 62.7959C62.1862 63.2947 64.3477 67.6179 63.6826 69.6131Z" fill="black"/>
<path d="M36.2461 46.502C38.4077 47.4996 40.2367 50.8251 39.7379 53.3192C38.2414 50.9914 38.2414 48.6635 36.2461 46.502Z" fill="black"/>
<path d="M65.6777 35.1959C66.1766 33.2006 68.6707 32.868 70.1671 31.7041C69.8346 32.7017 66.8417 34.8633 65.6777 35.1959Z" fill="black"/>
<path d="M47.7198 37.8555C47.7198 42.3449 47.7198 46.8343 47.7198 51.3237C47.221 46.8343 47.221 42.3449 47.7198 37.8555Z" fill="black"/>
<path d="M65.0122 45.5049C66.5087 46.8351 68.0052 48.1653 69.3354 49.6617C69.3354 49.6617 69.1691 49.828 69.1691 49.9943C67.6726 48.6641 66.0099 47.6664 64.6797 46.0037C64.6797 45.6712 64.846 45.5049 65.0122 45.5049Z" fill="black"/>
<path d="M74.4881 68.45C72.4928 69.7802 70.4975 71.1104 68.5022 72.4406C68.5022 72.4406 68.3359 72.2743 68.3359 72.108C70.3312 70.7778 72.1603 69.1151 74.3218 68.2837C74.4881 68.1174 74.4881 68.2837 74.4881 68.45Z" fill="black"/>
<path d="M38.2402 72.4414C38.7391 72.774 39.4042 72.9402 39.7367 73.2728C40.7344 75.7669 35.5798 73.1065 38.2402 72.4414Z" fill="black"/>
<path d="M34.084 77.7607C35.7467 77.7607 36.2456 78.0933 36.5781 79.2572C35.4142 79.5898 34.2503 78.9247 34.084 77.7607Z" fill="black"/>
<path d="M68.1719 70.1134C70.1672 68.9495 71.9962 67.6193 73.9915 66.2891C73.9915 66.2891 74.1578 66.4553 74.1578 66.6216C72.1625 67.7855 70.3334 69.1157 68.3381 70.4459C68.3381 70.2796 68.3381 70.2796 68.1719 70.1134Z" fill="black"/>
<path d="M32.7539 73.2726C33.9178 73.1063 34.7492 73.4388 35.0817 74.6028C34.2504 74.9353 33.2527 74.4365 32.7539 73.2726Z" fill="black"/>
<path d="M58.695 80.0898C57.6974 80.4224 57.0323 79.591 56.3672 78.9259C57.1986 77.9282 58.0299 79.0922 58.8613 79.591C58.695 79.7573 58.695 79.9235 58.695 80.0898Z" fill="black"/>
<path d="M27.2695 84.5789C28.5997 83.2487 29.4311 81.4197 31.4264 80.9209C30.0962 82.2511 28.766 83.5813 27.2695 84.5789Z" fill="black"/>
<path d="M21.7793 68.783C22.7769 67.6191 23.9409 66.2889 24.9385 65.125C25.1048 65.2913 25.2711 65.4575 25.4373 65.6238C24.1071 66.6215 22.9432 67.7854 21.7793 68.783Z" fill="black"/>
<path d="M58.3616 74.7701C59.3592 74.6038 59.8581 74.9364 60.3569 75.7677C60.3569 75.934 60.1906 75.934 60.1906 76.1003C59.5255 75.7677 58.8604 75.4352 58.1953 75.1026C58.3616 75.1026 58.3616 74.9364 58.3616 74.7701Z" fill="black"/>
<path d="M29.4311 80.2549C28.766 80.92 27.9346 81.5851 27.2695 82.2502C27.9346 81.5851 28.5997 80.92 29.4311 80.2549Z" fill="black"/>
<path d="M42.2316 83.25C41.2339 84.4139 39.7375 86.2429 38.0747 87.9057C38.0747 87.9057 37.9085 87.7394 37.7422 87.5731C39.0724 85.7441 40.9014 84.2476 42.2316 83.25Z" fill="black"/>
<path d="M38.9102 88.5705C40.2404 87.074 41.7368 85.5775 43.067 84.0811C43.067 84.0811 43.2333 84.2473 43.3996 84.4136C42.0694 85.9101 40.5729 87.4065 39.2427 88.903C39.0764 88.7367 39.0764 88.5705 38.9102 88.5705Z" fill="black"/>
<path d="M61.3548 55.3141C61.814 55.3141 62.1862 54.9419 62.1862 54.4827C62.1862 54.0236 61.814 53.6514 61.3548 53.6514C60.8957 53.6514 60.5234 54.0236 60.5234 54.4827C60.5234 54.9419 60.8957 55.3141 61.3548 55.3141Z" fill="white"/>
<path d="M29.097 53.485C29.5562 53.485 29.9284 53.1128 29.9284 52.6536C29.9284 52.1945 29.5562 51.8223 29.097 51.8223C28.6378 51.8223 28.2656 52.1945 28.2656 52.6536C28.2656 53.1128 28.6378 53.485 29.097 53.485Z" fill="white"/>
<path d="M44.7256 63.4618C44.7256 63.4618 44.8919 63.4618 45.0582 63.2955C45.7233 63.1292 46.5546 63.1292 47.2197 63.1292C47.7185 63.1292 48.2174 63.1292 48.7162 63.2955C48.8825 63.2955 48.8825 63.2955 48.8825 63.2955C48.8825 63.4618 49.215 63.628 49.3813 63.4618C49.5476 63.4618 49.7138 63.1292 49.5476 62.963C49.5476 62.7967 49.215 62.6304 49.215 62.6304C49.0487 62.6304 48.8825 62.4641 48.7162 62.4641C48.2174 62.2979 47.5523 62.2979 46.8872 62.2979C46.0558 62.2979 45.3907 62.4641 44.5593 62.6304C44.3931 62.6304 44.0605 62.6304 43.8942 62.7967C43.728 62.963 43.728 63.1292 43.8942 63.2955C44.2268 63.4618 44.5593 63.4618 44.7256 63.4618Z" fill="white"/>
<path opacity="0.7" d="M58.3643 64.7929C57.0341 65.458 55.5377 65.9568 54.0412 65.6243C53.7086 65.6243 53.3761 65.458 53.0435 65.2917C51.5471 64.1278 50.3832 62.9639 50.2169 60.9686C50.2169 60.8023 50.2169 60.6361 50.2169 60.4698C50.0506 59.6384 45.8937 59.4721 45.3949 59.4721C44.8961 59.4721 44.231 59.6384 44.231 60.4698C43.8985 62.6314 42.2357 63.7953 40.4067 64.2941C40.0741 64.4604 39.5753 64.4604 39.2428 64.6267C39.0765 64.6267 39.0765 64.6267 38.9102 64.6267C37.9126 64.4604 36.7487 64.1278 35.751 63.7953C33.4232 62.9639 32.7581 61.1349 32.5918 59.1396C32.5918 58.8071 32.5918 58.6408 32.7581 58.3082C33.4232 57.1443 34.0883 55.9804 35.0859 55.149C36.0836 54.3176 37.2475 54.1514 38.5777 54.1514C38.9102 54.1514 39.409 54.1514 39.7416 54.1514C40.7392 54.3176 41.7369 54.6502 42.402 55.6478C43.0671 56.4792 43.7322 57.3106 44.5636 58.3082C45.0624 58.3082 49.5518 58.3082 50.0506 58.142C50.5494 57.9757 50.7157 57.3106 51.0483 56.8118C51.8796 55.6478 53.0435 55.149 54.2075 54.4839C54.54 54.3176 54.8726 54.3176 55.2051 54.3176C56.369 54.6502 57.6992 54.9827 58.8632 55.3153C59.0294 55.3153 59.362 55.4816 59.5282 55.8141C60.0271 56.6455 60.6922 57.4769 61.0247 58.4745C61.8561 60.9686 60.8584 63.629 58.3643 64.7929Z" fill="white"/>
<path d="M54.8728 62.4655C54.5403 62.4655 54.374 62.2993 54.2077 62.2993C53.7089 62.4655 53.0438 62.6318 52.545 62.9644H52.3787C52.545 63.1306 52.7113 63.2969 52.7113 63.4632C53.2101 62.7981 54.0415 62.7981 54.8728 62.4655ZM36.0838 59.1401C35.7513 59.4726 35.585 59.6389 35.2524 59.9714C35.585 59.8052 35.9175 59.6389 36.4164 59.3063C36.5826 59.3063 36.7489 59.1401 37.0815 58.9738C36.5826 58.9738 36.2501 58.9738 36.0838 59.1401ZM61.3575 59.9714C61.3575 59.6389 61.1913 59.1401 61.025 58.8075C60.8587 58.475 60.8587 58.3087 60.6924 58.1424C60.5262 57.6436 60.1936 57.311 59.8611 56.8122C59.6948 56.6459 59.5285 56.3134 59.3622 56.1471C59.3622 56.1471 59.3622 55.9808 59.196 55.9808C59.196 55.9808 59.0297 55.8146 58.8634 55.8146C58.8634 55.8146 58.6971 55.8146 58.6971 55.6483C57.5332 55.3157 56.203 54.9832 55.0391 54.6507C54.8728 54.6507 54.8728 54.6507 54.7066 54.6507C54.5403 54.6507 54.374 54.6506 54.2077 54.8169H54.0415C53.8752 54.9832 53.7089 55.1495 53.3764 55.1495C53.3764 55.1495 53.2101 55.1495 53.2101 55.3157C53.0438 55.482 52.7113 55.6483 52.545 55.8146C52.0462 56.1471 51.5473 56.4797 51.0485 56.9785L50.8822 57.1448C50.716 57.311 50.5497 57.4773 50.5497 57.6436C50.5497 57.8099 50.3834 57.8099 50.3834 57.9761C50.3834 58.1424 50.2171 58.1424 50.2171 58.1424C50.2171 58.3087 50.0509 58.3087 49.8846 58.475C49.7183 58.475 49.3858 58.6412 48.8869 58.6412C47.3905 58.6412 44.7301 58.6412 44.3975 58.6412C44.2313 58.475 44.065 58.1424 43.8987 57.9761C43.2336 57.311 42.7348 56.6459 42.236 55.9808C42.0697 55.8146 41.9034 55.6483 41.7371 55.482C41.4046 55.1495 40.9058 54.8169 40.2407 54.6507H40.0744C39.9081 54.6507 39.7419 54.6506 39.5756 54.4844C39.243 54.4844 38.7442 54.4844 38.4117 54.4844C37.0815 54.4844 35.9175 54.6507 34.9199 55.482C34.7536 55.6483 34.7536 55.6483 34.5873 55.8146C33.756 56.4797 33.2572 57.4773 32.7583 58.3087C32.7583 58.475 32.5921 58.475 32.5921 58.6412C32.4258 58.8075 32.4258 59.1401 32.4258 59.4726C32.4258 59.9714 32.4258 60.4703 32.5921 60.9691C32.5921 61.1353 32.5921 61.3016 32.7583 61.4679C32.7583 61.4679 32.7583 61.6342 32.9246 61.6342C33.0909 61.9667 33.0909 62.133 33.2572 62.4655C33.4234 62.6318 33.5897 62.9644 33.756 63.1306C34.0885 63.4632 34.7536 63.7957 35.2524 64.1283H35.4187C35.7513 64.1283 35.9175 64.2946 36.2501 64.2946C36.5826 64.2946 36.7489 64.4608 37.0815 64.4608C37.5803 64.6271 38.0791 64.6271 38.5779 64.7934C38.7442 64.7934 38.9105 64.7934 38.9105 64.7934C39.243 64.6271 39.7419 64.6271 40.0744 64.4608C40.407 64.2946 40.9058 64.1283 41.2383 63.962C42.4022 63.4632 43.3999 62.6318 43.7324 61.3016C43.8987 60.9691 43.8987 60.8028 43.8987 60.4703C44.065 59.6389 44.5638 59.4726 45.0626 59.4726C45.5615 59.4726 47.8893 59.4726 49.2195 59.9714C49.3858 59.9714 49.3858 59.9714 49.552 60.1377C49.8846 60.304 50.0509 60.304 50.0509 60.4703C50.0509 60.6365 50.2171 60.8028 50.2171 60.9691C50.2171 61.1353 50.2171 61.3016 50.2171 61.4679C50.5497 63.1306 51.5473 64.2946 52.8775 65.2922C52.8775 65.2922 52.8775 65.2922 53.0438 65.2922C53.0438 65.2922 53.0438 65.2922 53.2101 65.2922C53.3764 65.4585 53.7089 65.4585 54.0415 65.4585C55.3716 65.6248 56.5356 65.4585 57.8658 64.9597C58.032 64.9597 58.1983 64.7934 58.1983 64.7934H58.3646C59.3622 64.2946 60.0273 63.6295 60.5262 62.7981C61.1913 61.9667 61.3575 60.9691 61.3575 59.9714ZM37.5803 63.7957C37.0815 63.7957 36.4164 63.6295 35.9175 63.2969C35.7513 63.2969 35.585 63.1306 35.2524 62.9644C34.9199 62.6318 34.4211 62.4655 33.9223 61.9667C35.0862 60.9691 36.4164 60.8028 37.2477 59.9714C35.9175 60.1377 34.9199 60.8028 33.756 61.3016C33.756 61.3016 33.756 61.3016 33.5897 61.3016C33.2572 60.8028 33.5897 60.6365 33.9223 60.4703C34.2548 60.304 34.5873 59.9714 35.0862 59.8052C35.4187 59.6389 35.7513 59.4726 36.2501 59.1401C36.4164 59.1401 36.5826 58.9738 36.9152 58.8075C36.5826 58.8075 36.2501 58.8075 35.9175 58.9738C35.585 59.1401 35.4187 59.3063 35.0862 59.4726C34.5873 59.6389 34.2548 59.9714 33.756 60.304H33.5897C33.4234 59.6389 33.4234 58.9738 33.756 58.3087C34.7536 56.1471 36.0838 55.3157 38.4117 55.3157C38.9105 55.3157 39.5756 55.482 40.0744 55.6483C41.2383 56.1471 42.0697 57.1448 42.7348 58.1424C43.0673 58.8075 43.2336 59.3063 43.2336 59.9714C43.2336 60.6365 43.0673 61.3016 42.7348 61.8004C42.4022 62.2993 42.0697 62.7981 41.5709 62.9644C41.2383 63.2969 40.7395 63.4632 40.2407 63.4632C39.4093 63.7957 38.5779 63.7957 37.5803 63.7957ZM57.8658 64.2946C57.6995 64.2946 57.5332 64.4608 57.5332 64.4608C57.5332 64.4608 57.3669 64.4608 57.2007 64.6271C56.3693 64.9597 55.7042 64.9597 54.8728 64.9597C54.0415 64.9597 53.5426 64.6271 53.0438 64.2946C52.8775 64.1283 52.7113 63.962 52.545 63.6295L52.7113 63.4632C53.2101 62.7981 54.0415 62.7981 54.8728 62.4655C54.8728 62.4655 54.8728 62.4655 54.7066 62.4655C54.374 62.4655 54.2077 62.2993 54.0415 62.2993C53.5426 62.4655 52.8775 62.6318 52.3787 62.9644H52.2124C52.0462 63.1306 51.7136 63.1306 51.5473 62.7981C51.3811 62.6318 51.3811 62.4655 51.5473 62.2993C51.5473 62.133 51.7136 62.133 51.8799 61.9667C52.2124 61.6342 52.7113 61.4679 53.2101 61.3016C53.3764 61.3016 53.3764 61.1354 53.5426 61.1354C53.7089 61.1354 53.8752 60.9691 54.0415 60.9691V60.8028C53.7089 60.8028 53.3764 60.8028 53.2101 60.9691C52.7113 61.1353 52.0462 61.6342 51.5473 61.8004C51.5473 61.6342 51.3811 61.4679 51.3811 61.3016C51.3811 60.9691 51.3811 60.4703 51.3811 59.9714C51.3811 59.4726 51.3811 58.9738 51.5473 58.475C51.5473 58.475 51.5473 58.475 51.5473 58.3087C51.8799 57.4773 52.545 56.8122 53.3764 56.3134H53.5426C53.7089 56.1471 53.8752 55.9808 54.0415 55.9808C54.2077 55.8146 54.374 55.8146 54.5403 55.6483C54.8728 55.482 55.3716 55.482 55.8705 55.6483C56.7018 55.8146 57.5332 55.9808 58.3646 56.3134C58.6971 56.3134 59.0297 56.6459 59.196 56.8122C59.6948 57.6436 60.1936 58.3087 60.5262 59.1401C61.025 61.1353 59.6948 63.4632 57.8658 64.2946Z" fill="black"/>
</svg>
