<svg width="98" height="110" viewBox="0 0 98 110" fill="none" xmlns="http://www.w3.org/2000/svg">
<path d="M96.3777 62.138C95.8789 65.9623 95.2138 69.9529 94.5487 74.1097C93.8836 79.2642 90.8907 83.4211 87.5652 87.0791C83.7409 91.5686 79.0852 95.2266 73.5981 98.0533C65.6169 102.044 57.137 103.707 48.3244 104.039C36.5189 104.538 25.8774 101.046 16.3997 93.5638C9.58248 88.2431 6.09071 80.927 2.59895 73.6109C1.93385 72.2807 1.76758 70.7843 1.76758 69.4541C2.2664 64.2996 2.10013 58.9788 3.76287 54.3231C5.92444 48.3372 7.75346 42.0188 11.4115 36.3655C15.4021 30.3796 20.0578 25.2251 25.8774 21.2345C31.0319 17.7427 36.6852 15.4149 43.0036 15.0823C44.0013 15.0823 44.9989 14.9161 45.8303 14.7498C60.795 12.2557 72.6005 18.2415 83.242 27.7192C89.5605 33.3725 92.2208 40.8549 94.2161 48.6698C95.5463 52.6603 95.7126 57.316 96.3777 62.138ZM93.0522 61.8054C93.3848 50.3325 90.2256 39.8572 82.4107 31.0447C75.2609 23.0635 66.1158 18.0753 55.4742 17.2439C45.4977 16.4125 36.0201 19.4055 27.8727 25.8902C18.395 33.3725 11.9103 43.1827 7.75346 54.1568C5.92444 58.9788 5.09307 65.1309 6.09071 70.1192C8.58483 83.2548 16.8985 92.5662 29.3691 97.5544C43.1699 103.208 57.3032 102.21 70.7715 95.8917C85.071 89.2407 93.551 78.4329 93.0522 61.8054Z" fill="#F15748"/>
<path d="M44.3339 16.4124L39.3457 81.7583L92.5535 82.0908L94.2163 43.6814L96.2115 15.5811L44.3339 16.4124Z" fill="white"/>
<path d="M70.771 75.9381C70.2722 75.273 69.4408 74.7742 68.6094 74.2754C62.7898 71.2824 56.3051 68.9546 51.3169 64.4652C48.4902 61.9711 45.8298 58.6456 42.0055 57.9805C41.3404 60.9734 42.1718 65.4628 41.8392 68.4558C42.1718 70.7836 41.3404 71.615 42.0055 73.7765C42.3381 75.273 40.8416 78.5985 41.673 79.7624C43.8345 82.4228 49.8204 80.095 53.1459 79.9287C55.9726 79.7624 58.633 80.5938 61.4596 80.4275C63.4549 81.2589 66.9467 81.2589 68.942 80.5938C71.7686 80.2612 72.2675 77.9334 70.771 75.9381Z" fill="#BCBCBB"/>
<path d="M93.2192 40.3564C92.8866 34.7031 94.8819 29.0497 95.547 23.2301L94.5494 19.5721C94.3831 18.907 94.3831 18.0756 93.718 17.4105C92.7203 15.9141 90.5588 15.9141 88.7298 15.9141C88.2309 15.9141 87.7321 15.9141 87.2333 16.2466C86.4019 16.7454 86.2356 17.7431 86.0694 18.907C84.9055 29.0497 83.7415 39.3588 86.4019 49.0027C88.896 48.8364 90.5588 46.3423 91.7227 44.0144C92.2215 43.0168 92.7203 42.1854 93.2192 41.1878C93.3854 41.0215 93.3854 40.6889 93.2192 40.3564Z" fill="#BCBCBB"/>
<path d="M43.3354 77.4355C43.6679 77.4355 43.8342 77.6018 44.1668 77.4355C48.6562 77.2693 53.3119 77.6018 57.8013 77.9344C62.7895 78.2669 67.4452 78.5995 72.5997 78.2669C75.2601 78.1006 78.0867 78.2669 80.9134 78.4332C83.4075 78.4332 85.7354 78.4332 88.2295 78.4332C88.562 78.4332 89.0609 78.4332 89.5597 78.4332C88.8946 79.0983 88.3958 78.932 87.8969 79.0983C84.5714 79.0983 81.4122 79.0983 78.253 79.0983C75.0938 79.0983 71.9346 79.2646 68.7754 79.0983C64.7848 78.7657 60.7942 78.5995 56.6373 78.2669C52.813 78.1006 48.9887 77.9344 45.1644 77.9344C44.6656 77.9344 44.1668 78.1006 43.6679 78.1006C43.3354 78.5995 43.3354 79.0983 42.8366 79.7634C43.6679 79.7634 44.333 80.0959 44.9981 80.0959C47.1597 80.0959 49.3213 80.2622 51.3166 79.9297C54.8083 79.5971 58.3001 79.7634 61.6256 79.9297C65.1173 80.0959 68.4428 80.2622 71.9346 80.2622C74.7613 80.4285 77.4216 80.4285 80.082 80.4285C83.2412 80.4285 86.4005 80.4285 89.3934 80.5948C89.8922 80.5948 90.391 80.5948 90.8899 80.761C90.7236 81.4261 90.391 81.4261 89.8922 81.4261C86.4005 81.2599 82.9087 81.2599 79.4169 81.0936C75.9252 81.0936 72.2671 80.9273 68.6091 80.9273C65.4499 80.9273 62.2907 80.9273 59.1315 80.5948C55.1409 80.2622 51.3166 80.761 47.326 80.761C45.3307 80.761 43.5017 80.5948 41.3401 80.5948C41.3401 79.2646 41.1738 78.1006 41.1738 76.9367C41.1738 73.7775 41.3401 70.6183 41.5064 67.4591C41.5064 66.4614 41.5064 65.4638 41.6727 64.4661C42.0052 59.9767 42.6703 51.9956 43.0028 47.5062C43.5017 42.3516 44.0005 37.0309 44.4993 31.8764C44.6656 29.3822 44.6656 26.8881 44.6656 24.394C44.8319 22.0662 44.9981 20.0709 44.9981 17.743C45.8295 17.0779 46.8272 16.5791 47.8248 16.5791C51.1503 16.5791 54.6421 16.4128 58.1338 16.4128C61.9581 16.4128 65.6162 16.4128 69.2742 16.5791C69.9393 16.5791 70.4381 16.5791 71.1032 16.5791C73.0985 16.4128 74.9275 16.4128 76.7565 16.4128C80.4146 16.2466 83.9063 16.7454 87.3981 16.7454C89.5597 16.5791 91.8875 16.5791 94.0491 16.5791C94.2154 16.5791 94.3816 16.4128 94.7142 16.5791C94.8805 16.7454 95.213 16.9117 95.213 17.0779C95.213 17.2442 95.0467 17.5768 94.8805 17.5768C94.7142 17.5768 94.3816 17.743 94.0491 17.5768C89.2271 17.743 84.4052 17.743 79.4169 17.4105C76.5903 17.2442 73.7636 17.4105 70.9369 17.4105C66.9464 17.4105 63.122 17.2442 59.2977 17.2442C55.806 17.2442 52.1479 17.4105 48.6562 17.4105C47.9911 17.4105 47.326 17.5768 46.3283 17.743C45.9958 20.9022 46.3283 24.2277 46.3283 28.052C47.1597 27.3869 47.8248 26.8881 48.6562 26.223C47.9911 27.7195 46.1621 28.2183 46.6609 30.2136C47.6585 29.3822 48.4899 28.8834 49.4875 28.052C49.4875 28.052 49.4875 28.2183 49.6538 28.2183C48.9887 28.8834 48.3236 29.3822 47.8248 30.0473C46.9934 30.7124 46.6609 31.7101 46.4946 32.7077C45.9958 36.6983 45.497 40.8552 45.1644 44.8458C44.9981 46.5085 44.6656 51.663 44.6656 53.1595C44.4993 55.6536 44.4993 58.1477 44.1668 60.6418C44.0005 64.6324 43.6679 68.7893 43.5017 72.7799C43.0028 74.7752 42.8366 76.1053 43.3354 77.4355Z" fill="black"/>
<path d="M93.3849 20.5694C93.0524 20.7357 92.8861 20.9019 92.5536 20.9019C91.3897 20.9019 90.2257 21.2345 89.2281 20.9019C86.734 20.5694 84.4061 20.5694 82.0783 20.9019C79.4179 21.2345 76.7575 21.4008 74.0971 21.0682C72.6007 21.0682 71.2705 21.2345 69.774 21.2345C66.9473 21.2345 64.1207 21.0682 61.294 21.0682C60.6289 21.0682 59.7975 21.0682 59.1324 21.2345C55.6407 21.4008 51.9826 21.567 48.4909 21.7333C48.1583 21.7333 47.6595 21.7333 47.3269 21.567C46.9944 21.567 46.9944 21.0682 46.8281 21.0682C46.9944 20.9019 47.1607 20.7357 47.3269 20.7357C47.4932 20.7357 47.6595 20.7357 47.992 20.7357C51.9826 20.5694 55.9732 20.2368 59.9638 20.2368C62.6242 20.0706 65.1183 20.2368 67.6124 20.2368C69.1089 20.2368 70.6054 20.2368 72.1018 20.2368C73.0995 20.2368 74.2634 19.9043 75.4273 20.0706C78.4203 20.2368 81.5795 19.9043 84.5724 19.9043C87.3991 19.9043 90.0595 20.0706 92.8861 20.4031C93.0524 20.2368 93.2187 20.4031 93.3849 20.5694Z" fill="black"/>
<path d="M95.5466 19.0713C95.5466 19.5701 95.7128 19.9027 95.5466 20.4015C95.0477 22.3968 95.0477 24.3921 95.0477 26.5536C95.0477 27.5513 94.8815 28.3827 94.5489 29.3803C93.8838 31.2093 93.8838 32.8721 93.8838 34.7011C93.5513 39.6893 93.5513 44.6775 93.0525 49.4995C92.7199 55.1528 92.0548 64.2979 92.0548 69.9513C92.0548 72.4454 91.8885 75.1058 91.7223 77.5999C91.7223 78.0987 91.556 78.5975 91.3897 79.2626C91.2234 79.4289 90.8909 79.4289 90.7246 79.5952C90.8909 76.9348 91.0572 74.2744 91.0572 71.614C91.2234 65.6281 91.556 59.6422 91.8885 53.8226C92.2211 48.3356 92.5536 39.3568 92.8862 33.8697C93.0524 32.207 93.385 30.3779 93.5513 28.5489C93.7175 27.385 93.8838 26.0548 94.0501 24.8909C94.0501 22.8956 94.3826 21.2329 94.8815 19.4038C95.0477 19.4038 95.214 19.4038 95.5466 19.0713Z" fill="black"/>
<path d="M81.0801 59.4776C79.7499 59.4776 78.9186 59.9765 78.2535 60.6416C77.9209 60.9741 77.4221 61.3067 77.9209 61.8055C78.0872 62.138 78.586 62.4706 78.9186 62.4706C79.4174 62.6369 80.0825 62.6369 80.7476 62.4706C79.5837 63.4682 77.5884 63.302 77.0895 62.138C76.9233 61.8055 76.9233 61.1404 77.0895 60.8078C77.7546 59.9765 78.7523 59.1451 79.7499 58.48C80.0825 58.3137 80.415 58.48 81.0801 59.4776Z" fill="black"/>
<path d="M54.1461 33.0409C54.6449 32.7083 55.1437 32.542 55.4763 32.2095C55.9751 31.8769 56.3077 31.2119 56.3077 30.5468C56.3077 29.5491 55.6426 29.0503 54.6449 29.3828C54.1461 29.5491 53.6473 29.7154 53.1484 30.0479C53.6473 28.5515 55.4763 28.0526 56.4739 29.0503C56.9728 29.8817 57.3053 30.713 56.9728 31.7107C56.4739 32.7083 55.6426 33.2071 54.1461 33.0409Z" fill="black"/>
<path d="M78.9182 32.0425C77.0892 31.7099 76.2578 31.0448 76.2578 29.5484C76.2578 28.717 76.9229 27.8856 77.588 27.5531C78.2531 27.3868 78.5857 27.5531 79.417 28.3844C79.2508 28.3844 79.0845 28.5507 79.0845 28.3844C78.4194 28.0519 77.7543 28.3844 77.4217 28.8833C77.0892 29.3821 77.2555 30.0472 77.7543 30.7123C77.9206 30.8785 78.2531 31.2111 78.5857 31.3774C78.9182 31.5436 79.2508 31.7099 79.417 31.7099C78.9182 31.7099 78.9182 31.8762 78.9182 32.0425Z" fill="black"/>
<path d="M48.6541 65.2979C47.8227 66.1292 47.6564 66.7943 48.1552 67.792C48.8203 68.9559 49.818 68.9559 50.9819 68.9559C50.9819 69.1222 50.9819 69.1222 50.9819 69.2884C49.818 69.9535 48.9866 69.4547 47.989 68.9559C46.9913 68.4571 46.8251 67.4594 47.1576 66.4618C47.1576 65.2978 47.4902 65.2979 48.6541 65.2979Z" fill="black"/>
<path d="M65.9497 62.9688C67.4462 61.8049 67.4462 61.8049 66.9474 60.3084C66.6148 60.3084 66.116 60.3084 65.6172 60.3084C65.6172 59.9759 65.6172 59.6434 65.7835 59.6434C65.9497 59.4771 66.4486 59.3108 66.7811 59.4771C67.6125 59.6434 68.2776 60.8073 68.1113 61.9712C67.7788 62.6363 67.2799 62.9688 65.9497 62.9688Z" fill="black"/>
<path d="M73.5973 43.8479C74.2624 43.5154 74.595 43.6816 74.9275 44.3467C75.2601 45.0118 74.595 45.6769 73.9299 45.8432C73.2648 46.0095 72.5997 45.6769 72.4334 45.1781C72.2671 44.513 72.5997 44.3467 73.5973 43.8479Z" fill="black"/>
<path d="M53.3125 53.9905C53.645 53.8242 53.9776 49.8336 54.3101 49.8336C54.809 49.6673 54.9752 53.3254 55.1415 53.8242C55.3078 54.323 54.9752 54.6556 54.4764 54.8219C53.9776 54.8219 53.645 54.6556 53.3125 53.9905Z" fill="black"/>
<path d="M62.293 35.7C62.7918 35.5337 63.1243 35.2012 63.4569 35.2012C63.6232 35.2012 64.122 35.5337 64.122 35.5337C64.2883 35.7 64.122 36.1988 63.9557 36.3651C63.4569 37.1965 62.7918 36.8639 62.293 35.7Z" fill="black"/>
<path d="M86.4023 74.9418C87.7325 74.2767 88.7302 73.4454 90.0604 72.7803C89.229 74.1105 87.5663 75.1081 86.4023 74.9418Z" fill="black"/>
<path d="M86.7344 73.2793C87.8983 72.2816 88.7297 70.9514 90.5587 70.7852C89.8936 71.284 89.3948 71.6165 88.7297 72.1154C88.2308 72.4479 87.5657 73.113 87.0669 73.6118C86.9007 73.4455 86.9006 73.4455 86.7344 73.2793Z" fill="black"/>
<path d="M49.3223 41.3524C49.6548 40.8536 49.8211 40.5211 50.1536 40.1885C50.4862 39.856 50.985 40.1885 51.1513 40.5211C51.1513 40.6874 50.985 41.1862 50.985 41.1862C50.6525 41.3524 50.1536 41.5187 49.8211 41.685C49.4885 41.5187 49.4885 41.5187 49.3223 41.3524Z" fill="black"/>
<path d="M67.6104 27.2194C66.4465 27.0531 65.9477 26.5543 66.4465 25.8892C66.6128 25.7229 66.9453 25.5566 67.1116 25.5566C67.2779 25.7229 67.6104 25.8892 67.6104 25.8892C67.6104 26.5543 67.6104 26.7206 67.6104 27.2194Z" fill="black"/>
<path d="M86.5652 36.5315C87.2303 36.3653 87.8954 36.6978 88.0617 37.0304C88.0617 37.1966 87.8954 37.5292 87.7291 37.6955C87.3966 37.8617 86.5652 37.5292 86.399 37.0304C86.2327 37.0304 86.3989 36.6978 86.5652 36.5315Z" fill="black"/>
<path d="M83.4082 72.2806C83.5745 72.1143 83.5745 71.7818 83.7408 71.6155C84.2396 71.4492 84.5721 71.7818 84.7384 72.2806C84.7384 72.4469 84.5721 72.7794 84.4059 72.9457C83.907 73.2783 83.4082 72.9457 83.4082 72.2806Z" fill="black"/>
<path d="M65.6194 71.782C65.1205 72.1146 64.9543 72.6134 64.788 72.6134C64.6217 72.6134 64.2892 72.4471 64.1229 72.2808C63.9566 71.782 64.1229 71.4495 64.6217 71.2832C64.788 71.2832 64.9543 71.6158 65.6194 71.782Z" fill="black"/>
<path d="M56.6388 29.0491L54.3109 49.8334L52.8145 71.2828L78.9195 72.1142L82.0787 55.8193L84.2403 31.5432L77.0905 28.8828L56.6388 29.0491Z" fill="white"/>
<path d="M53.6466 66.7937C54.478 66.2949 54.9768 65.9623 55.6419 65.4635C55.3093 66.6274 53.9791 66.96 53.6466 68.4564C54.6442 68.1239 55.4756 67.7913 56.1407 67.2925C56.1407 67.4588 56.1407 67.4588 56.1407 67.4588C55.3093 68.1239 54.3117 68.789 53.314 69.6203C53.9791 69.7866 54.3117 69.9529 54.8105 70.1192C55.8082 70.2854 56.8058 70.1192 57.8035 70.2854C63.2905 70.618 68.7776 70.7843 74.2646 71.1168C75.7611 71.1168 77.5901 71.1168 79.4191 71.1168C79.5854 70.618 79.7517 70.1192 79.918 69.6203C80.2505 66.2949 80.7493 62.8031 81.0819 59.3113C81.4144 56.1521 81.747 49.6674 81.9132 46.6745C81.9132 46.1757 82.0795 45.6768 82.0795 45.0117C82.4121 41.6862 82.7446 38.3608 83.2434 34.869C83.4097 33.2063 83.576 31.5435 83.7423 29.7145C82.5783 29.3819 81.5807 29.2157 80.5831 29.0494C79.7517 29.0494 78.9203 28.8831 78.0889 29.0494C74.2646 29.3819 70.4403 28.7168 66.616 28.3843C63.1242 27.7192 59.965 27.5529 56.6395 28.218C56.1407 28.3843 55.8082 28.3843 55.4756 27.5529C55.6419 27.3866 55.9744 27.2204 56.307 27.0541C58.9674 26.7216 61.6278 26.7216 64.2882 27.0541C67.6136 27.3866 70.9391 27.7192 74.2646 27.8855C76.2599 27.8855 78.2552 27.8855 80.0842 27.7192C81.5807 27.7192 82.9109 28.0517 84.4074 28.7168C84.4074 29.5482 84.2411 30.3796 84.2411 31.0447C84.0748 33.3725 84.0748 35.5341 83.7423 37.6957C83.576 39.691 83.2434 41.6862 82.9109 43.8478C82.7446 44.8455 82.5783 45.6768 82.5783 46.5082C82.7446 48.3372 82.2458 53.3255 81.9132 55.1545C81.747 55.6533 81.747 56.1521 81.747 56.8172C81.4144 59.3113 81.2481 61.9717 80.9156 64.4658C80.7493 66.2949 80.4168 68.4564 80.2505 70.2854C80.0842 71.4494 79.9179 71.6156 78.754 71.6156C75.2623 71.4494 72.1031 71.4494 68.6113 71.2831C66.616 71.2831 64.6207 71.1168 62.6254 71.1168C60.9627 70.9505 59.1336 70.9505 57.6372 70.9505C56.1407 70.9505 54.478 70.7843 52.8152 70.618C52.649 70.2854 52.4827 69.9529 52.649 69.6203C52.649 66.96 52.8152 64.2996 52.9815 61.8054C53.314 58.48 53.4803 51.4964 53.8129 48.1709C53.9791 45.5106 54.3117 42.8502 54.478 40.1898C54.6442 37.8619 55.1431 35.5341 55.6419 33.2063C55.8082 32.2086 55.8082 30.8784 55.9744 29.8808C55.9744 29.5482 56.1407 29.3819 56.1407 29.2157C56.9721 29.2157 56.9721 29.8808 56.8058 30.3796C56.6395 31.7098 56.6395 32.7074 56.4733 33.8713C55.8082 37.3631 55.4756 40.8549 55.1431 44.5129C54.8105 50.1662 54.1454 59.6439 53.8129 65.2972C53.6466 65.796 53.6466 66.1286 53.6466 66.7937Z" fill="black"/>
<path d="M59.7988 31.71L59.9651 45.3445L76.5925 47.1735L77.0914 42.019L75.9274 32.5413L59.7988 31.71Z" fill="#EB584A"/>
<path d="M75.9267 32.7059C70.2734 31.5419 64.7863 32.7059 58.9667 33.2047C58.9667 33.0384 58.6342 32.5396 58.8005 32.3733C58.8005 32.0408 59.2993 31.8745 59.6318 31.8745C62.6248 32.207 65.4514 31.7082 68.4444 31.3757C70.4397 31.2094 72.2687 31.5419 74.264 31.5419C74.9291 31.5419 75.4279 31.7082 76.093 31.5419C76.7581 31.5419 76.9244 31.8745 77.0906 32.7059C77.0906 33.8698 77.0906 35.0337 77.0906 36.1976C77.0906 38.1929 77.2569 40.0219 77.2569 42.0172C77.2569 43.5137 76.9244 45.1764 76.7581 47.1717C73.7652 47.0055 71.1048 46.5066 68.2781 46.3404C65.6177 46.0078 62.791 45.6753 59.9644 45.509C59.6318 42.1835 58.9667 38.858 59.4656 35.3662C59.4656 35.0337 59.6318 34.7011 59.7981 34.2023C59.9644 34.2023 60.1307 34.2023 60.1307 34.2023C60.2969 34.5349 60.2969 35.0337 60.2969 35.3662C59.7981 37.3615 60.2969 39.5231 60.4632 41.3521C60.6295 42.1835 60.6295 43.1811 60.7958 44.1788C65.784 45.1764 70.9385 45.3427 75.7605 46.0078C76.5918 43.68 76.7581 37.029 75.9267 32.7059Z" fill="black"/>
<path d="M73.7652 61.6401C73.5989 61.8064 73.5989 61.8064 73.7652 61.9726C73.5989 61.9726 73.5989 62.1389 73.5989 62.1389C73.4327 62.1389 73.4327 62.1389 73.2664 62.1389C68.4444 61.4738 63.955 60.1436 59.1331 59.9773C59.1331 59.9773 58.9668 59.8111 58.9668 59.6448C59.2993 59.4785 59.6319 59.4785 59.9644 59.4785C62.2923 59.4785 64.6201 59.9773 66.948 60.3099C69.1095 60.6424 71.4374 61.1413 73.5989 61.4738C73.5989 61.4738 73.5989 61.6401 73.7652 61.6401Z" fill="black"/>
<path d="M71.9345 67.9564C70.1055 67.1251 68.609 67.4576 66.9463 67.2913C64.4522 67.2913 61.958 67.1251 59.4639 67.1251C59.1314 67.1251 58.9651 66.9588 58.7988 66.7925C58.9651 66.7925 59.2977 66.6262 59.4639 66.46C63.2882 66.6262 67.1125 66.7925 70.9369 66.9588C71.2694 66.9588 71.9345 67.1251 71.9345 67.9564Z" fill="black"/>
<path d="M68.9408 57.8139C68.7745 57.8139 68.6082 57.9802 68.442 57.9802C65.449 57.3151 62.2898 56.8163 59.2969 56.1512C59.2969 55.9849 59.2969 55.9849 59.2969 55.8186C59.4631 55.8186 59.962 55.6523 60.1282 55.6523C61.9573 55.9849 63.7863 56.3174 65.7816 56.65C66.7792 56.8163 67.6106 56.9825 68.6082 57.1488C68.7745 57.3151 68.9408 57.3151 69.2733 57.4814C68.9408 57.4814 68.9408 57.6476 68.9408 57.8139Z" fill="black"/>
<path d="M68.9408 52.6606C68.7745 52.6606 68.6082 52.8269 68.442 52.8269C65.449 52.1618 62.2898 51.6629 59.2969 50.9978C59.2969 50.8316 59.2969 50.8316 59.2969 50.6653C59.4631 50.6653 59.962 50.499 60.1282 50.499C61.9573 50.8316 63.7863 51.1641 65.7816 51.4967C66.7792 51.6629 67.6106 51.8292 68.6082 51.9955C68.7745 52.1618 68.9408 52.1618 69.2733 52.328C68.9408 52.328 68.9408 52.4943 68.9408 52.6606Z" fill="black"/>
<path d="M67.4453 35.3666C67.7778 35.5329 67.7778 35.8655 67.7778 36.3643C68.1104 36.3643 68.2766 36.6968 68.4429 36.6968C68.6092 36.198 68.6092 35.6992 68.2766 35.0341C67.9441 35.0341 67.6115 34.7015 67.6115 34.369C67.6115 34.2027 67.6115 33.8702 67.7778 33.7039C67.4453 33.7039 66.9464 33.7039 66.7802 34.2027C66.7802 34.5353 66.7802 34.7015 66.7802 35.0341C66.7802 35.2004 67.1127 35.2004 67.4453 35.3666ZM67.6115 34.369C67.6115 34.5353 67.7778 34.8678 68.1104 34.8678H68.2766V35.0341C68.6092 35.6992 68.4429 36.3643 68.2766 36.8631C68.4429 37.0294 68.4429 37.1957 68.6092 37.1957C68.7755 36.8631 69.108 35.8655 68.7755 34.7015C68.9417 34.5353 69.108 34.0365 68.9417 33.7039C68.6092 33.0388 67.9441 33.0388 67.4453 33.7039C67.6115 33.8702 67.6115 34.0365 67.6115 34.369ZM69.2743 34.7015C69.6068 35.8655 69.2743 36.8631 69.108 37.1957C69.108 37.1957 69.108 37.3619 69.2743 37.6945C69.9394 36.3643 69.7731 35.0341 69.7731 35.0341C70.1057 35.0341 70.4382 34.7015 70.6045 34.369C70.6045 33.8702 70.1057 33.3714 69.6068 33.5376C69.6068 33.5376 69.6068 33.5376 69.6068 33.7039C69.6068 34.2027 69.4406 34.369 69.2743 34.7015ZM66.7802 35.3666C67.279 36.3643 67.1127 37.3619 66.6139 38.1933C66.7802 38.1933 66.9464 38.1933 66.9464 38.1933C67.1127 38.1933 67.1127 38.1933 67.1127 38.1933H67.279C67.4453 38.027 67.6115 37.5282 67.7778 37.3619V37.1957C67.7778 37.0294 67.7778 37.0294 67.6115 36.8631C67.6115 36.5306 67.4453 36.5306 67.4453 36.3643C67.6115 36.3643 67.7778 36.3643 67.7778 36.3643C67.7778 36.198 67.6115 35.8655 67.6115 35.6992C67.6115 35.6992 67.6115 35.6992 67.4453 35.6992C67.1127 35.6992 66.7802 35.5329 66.6139 35.2004C66.4476 35.0341 66.4476 34.7015 66.6139 34.369C66.2813 34.369 65.9488 34.7015 65.9488 35.0341C65.9488 35.2004 66.2813 35.5329 66.7802 35.3666ZM66.7802 36.198C66.6139 36.0317 66.4476 36.198 66.4476 36.198C66.6139 36.3643 66.6139 36.6968 66.6139 36.8631L66.7802 37.0294C66.7802 36.6968 66.9464 36.5306 66.7802 36.198ZM67.6115 38.3596C67.7778 38.1933 68.1104 38.027 67.9441 37.6945C67.9441 37.5282 67.7778 37.3619 67.6115 37.1957C67.6115 37.5282 67.279 37.8608 67.279 38.1933C67.4453 38.1933 67.6115 38.1933 67.6115 38.3596ZM66.6139 38.8584C66.4476 38.8584 66.4476 38.8584 66.6139 38.8584C66.6139 39.0247 66.6139 39.0247 66.6139 38.8584C66.7802 39.0247 66.7802 39.0247 66.6139 38.8584C66.7802 38.8584 66.7802 39.0247 66.6139 38.8584C66.7802 38.8584 66.7802 38.8584 66.6139 38.8584ZM70.6045 43.5141C69.4406 43.8466 68.2766 43.3478 67.9441 42.5164C68.4429 43.3478 69.6068 43.5141 70.6045 43.5141C70.6045 43.0153 72.1009 39.8561 69.108 38.5259C69.108 38.6921 68.9417 38.6921 69.108 38.8584C69.4406 39.0247 69.9394 39.3572 70.1057 40.1886C69.9394 39.3572 69.108 39.0247 68.7755 38.8584C69.4406 38.8584 68.9417 37.3619 68.9417 37.3619C68.4429 37.1957 68.2766 36.5306 67.6115 36.3643C67.7778 36.5306 67.6115 36.8631 67.6115 37.1957C67.7778 37.3619 68.1104 37.6945 68.1104 37.6945C68.1104 38.027 67.7778 38.3596 67.6115 38.5259C67.9441 38.6921 68.2766 38.8584 68.4429 39.0247C68.1104 39.0247 67.7778 39.3572 67.7778 39.3572C67.7778 39.3572 67.7778 39.0247 68.2766 39.0247C67.9441 38.8584 67.6115 38.6921 67.279 38.6921C66.9464 38.6921 66.6139 38.8584 66.2813 38.6921C66.1151 39.0247 64.9511 40.0223 63.2884 40.0223C63.1221 40.0223 62.457 40.0223 62.457 40.0223V40.1886C62.457 40.1886 62.7896 40.1886 62.9559 40.0223C62.9559 40.1886 62.7896 40.3549 62.6233 40.1886C63.1221 40.8537 65.2837 41.1862 66.2813 40.3549C66.2813 40.6874 65.9488 40.8537 65.45 40.8537C65.6162 40.8537 65.7825 40.8537 65.9488 41.02C66.1151 41.1862 66.2813 41.02 66.2813 41.02C66.2813 40.8537 66.2813 40.6874 66.6139 40.6874C66.9464 40.6874 67.279 41.02 67.9441 41.02C68.6092 41.02 68.9417 40.5212 68.9417 39.6898C69.108 40.6874 68.4429 41.1862 67.9441 41.1862C68.1104 41.6851 67.7778 42.1839 67.4453 42.6827C67.279 42.6827 66.9464 42.849 66.9464 43.0153C67.4453 43.6804 68.7755 44.678 70.4382 44.1792C70.7707 43.8466 70.6045 43.5141 70.6045 43.5141ZM67.279 39.191C67.279 39.0247 67.279 39.0247 67.279 39.191C67.1127 39.0247 67.1127 39.0247 67.279 39.191L66.9464 39.0247V39.191C66.9464 39.3572 66.9464 39.5235 66.7802 39.3572C66.6139 39.191 66.4476 39.3572 66.4476 39.191C66.4476 39.0247 66.4476 38.8584 66.4476 38.8584C66.4476 38.8584 66.4476 38.8584 66.2813 38.8584C66.2813 38.8584 66.2813 38.8584 66.1151 38.8584H66.2813C66.2813 38.8584 66.4476 38.8584 66.4476 39.0247L66.6139 39.191C66.6139 39.191 66.6139 39.191 66.6139 39.3572C67.279 39.0247 67.279 39.0247 67.279 39.191C67.279 39.0247 67.279 39.0247 67.279 39.191C67.4453 39.191 67.4453 39.191 67.279 39.191C67.279 39.191 67.4453 39.191 67.279 39.191Z" fill="white"/>
<path d="M20.8898 33.5384L16.4004 90.4042L65.4513 90.7368L66.7815 58.6458L68.6105 32.707L20.8898 33.5384Z" fill="white"/>
<path d="M45.4978 85.0823C44.999 84.4172 44.3339 84.0846 43.5025 83.5858C38.1818 80.7591 32.1959 78.7638 27.5402 74.607C24.8798 72.2791 22.552 69.2862 19.0602 68.6211C18.3951 71.4478 19.2265 75.6046 18.8939 78.265C19.2265 80.4266 18.5614 81.0917 19.0602 83.2532C19.3928 84.5834 17.8963 87.5764 18.7277 88.7403C20.723 91.0681 26.21 88.9066 29.3692 88.9066C32.0296 88.7403 34.5237 89.5717 37.0178 89.4054C38.8469 90.2368 42.0061 90.0705 44.0014 89.5717C46.3292 89.0728 46.6618 86.9113 45.4978 85.0823Z" fill="#BCBCBB"/>
<path d="M65.9503 55.6538C65.6178 50.4993 67.4468 45.1785 68.1119 40.024L67.1143 36.6985C66.948 36.0334 66.948 35.3683 66.4492 34.7032C65.4515 33.373 63.6225 33.373 61.9598 33.373C61.4609 33.373 60.9621 33.373 60.6296 33.7056C59.9645 34.2044 59.6319 35.2021 59.4656 36.1997C58.468 45.5111 57.3041 54.9887 59.7982 63.9675C62.126 63.8013 63.6225 61.4734 64.7864 59.4781C65.2852 58.6468 65.7841 57.8154 66.2829 56.8177C65.9503 56.1526 65.9503 55.9864 65.9503 55.6538Z" fill="#BCBCBB"/>
<path d="M20.06 86.5808C20.3926 86.5808 20.5588 86.7471 20.7251 86.5808C24.882 86.4146 29.0388 86.7471 33.1957 87.0797C37.6851 87.2459 42.1745 87.7448 46.8302 87.4122C49.3243 87.2459 51.8184 87.4122 54.4788 87.5785C56.8066 87.5785 58.9682 87.5785 61.2961 87.5785C61.6286 87.5785 61.9612 87.5785 62.46 87.5785C61.9612 88.2436 61.2961 88.0773 60.9635 88.2436C57.9706 88.2436 54.9776 88.2436 51.9847 88.2436C49.158 88.2436 46.1651 88.4099 43.3384 88.2436C39.6804 87.911 36.0223 87.7448 32.198 87.5785C28.7063 87.4122 25.2145 87.4122 21.5565 87.2459C21.0577 87.2459 20.5588 87.4122 20.2263 87.4122C19.8937 87.911 19.8937 88.4099 19.5612 88.9087C20.2263 88.9087 20.8914 89.2412 21.5565 89.075C23.5518 89.075 25.5471 89.2412 27.3761 89.075C30.5353 88.7424 33.6945 89.075 36.8537 89.075C40.0129 89.2412 43.1721 89.4075 46.3314 89.4075C48.8255 89.5738 51.3196 89.5738 53.8137 89.5738C56.6404 89.5738 59.6333 89.5738 62.46 89.7401C62.9588 89.7401 63.2913 89.7401 63.7902 89.9063C63.6239 90.5714 63.2913 90.5714 62.7925 90.5714C59.7996 90.4052 56.4741 90.4052 53.3149 90.2389C49.9894 90.2389 46.8302 90.0726 43.3384 90.0726C40.5118 90.0726 37.5188 90.0726 34.5259 89.7401C30.8678 89.4075 27.3761 89.9063 23.5518 89.9063C21.7227 89.9063 20.06 89.7401 18.0647 89.7401C18.0647 88.5761 17.8984 87.4122 17.8984 86.2483C17.8984 83.4216 18.0647 80.4287 18.231 77.4358C18.231 76.4381 18.231 75.6067 18.3973 74.6091C18.7298 70.4522 19.0624 66.2954 19.3949 62.1385C19.8937 57.3166 20.3926 52.4946 20.7251 47.6726C20.8914 45.3448 20.8914 43.017 20.8914 40.6891C21.0577 38.6938 21.0577 36.6985 21.0577 34.537C21.889 33.8719 22.7204 33.5393 23.718 33.5393C26.8773 33.5393 30.0365 33.373 33.1957 33.373C36.6874 33.373 40.0129 33.373 43.5047 33.5393C44.1698 33.5393 44.5023 33.5393 45.1674 33.5393C46.9965 33.373 48.6592 33.373 50.3219 33.373C53.6474 33.373 56.9729 33.7056 60.1321 33.7056C62.1274 33.5393 64.1227 33.5393 66.2843 33.5393C66.4506 33.5393 66.6168 33.5393 66.9494 33.5393C67.1157 33.7056 67.4482 33.8719 67.4482 34.0381C67.4482 34.2044 67.2819 34.3707 67.1157 34.537C66.9494 34.537 66.6168 34.7032 66.4506 34.537C61.9612 34.7032 57.4717 34.537 52.9823 34.3707C50.4882 34.2044 47.8278 34.3707 45.1674 34.3707C41.5094 34.3707 38.0176 34.2044 34.3596 34.3707C31.2004 34.3707 27.7086 34.537 24.5494 34.537C23.8843 34.537 23.2192 34.7032 22.3878 34.8695C22.0553 37.8625 22.3878 40.8554 22.3878 44.3472C23.2192 43.8483 23.718 43.3495 24.5494 42.6844C23.8843 44.0146 22.2216 44.5134 22.7204 46.3424C23.718 45.6774 24.5494 45.0123 25.2145 44.3472C25.2145 44.3472 25.2145 44.5134 25.3808 44.5134C24.882 45.1785 24.2169 45.6774 23.5518 46.1762C22.8867 46.8413 22.3878 47.6726 22.3878 48.6703C21.889 52.3283 21.5565 56.1526 21.2239 59.8107C21.0577 61.3071 21.0577 62.8036 21.0577 64.3001C20.8914 66.6279 20.8914 68.9558 20.7251 71.2836C20.5588 74.9416 20.3926 78.766 20.06 82.424C19.7275 83.9205 19.7275 85.2507 20.06 86.5808Z" fill="black"/>
<path d="M66.1159 37.3633C65.7833 37.5296 65.617 37.6959 65.2845 37.6959C64.2868 37.6959 63.1229 38.0284 62.1253 37.6959C59.9637 37.3633 57.8021 37.3633 55.4743 37.5296C52.9802 37.6959 50.6523 38.0284 48.1582 37.6959C46.828 37.6959 45.4978 37.8622 44.1676 37.8622C41.5072 37.8622 39.0131 37.8622 36.519 37.8622C35.8539 37.8622 35.1888 37.8622 34.5237 38.0284C31.3645 38.1947 28.039 38.361 24.7135 38.5273C24.381 38.5273 24.0484 38.5273 23.5496 38.361C23.2171 38.361 23.2171 38.0284 23.0508 37.8622C23.2171 37.6959 23.3833 37.5296 23.5496 37.5296C23.7159 37.5296 23.8822 37.5296 24.2147 37.5296C27.8727 37.3633 31.5308 37.0308 35.3551 37.0308C37.6829 36.8645 40.0108 37.0308 42.5049 37.0308C43.8351 37.0308 45.3315 37.0308 46.6617 37.0308C47.6594 37.0308 48.657 36.8645 49.6547 36.8645C52.4813 37.0308 55.308 36.6982 58.1347 36.6982C60.6288 36.6982 63.2892 36.8645 65.7833 37.1971C65.7833 37.0308 65.7833 37.1971 66.1159 37.3633Z" fill="black"/>
<path d="M67.9437 35.8672C67.9437 36.366 67.9437 36.6986 67.9437 37.0311C67.6112 38.8601 67.4449 40.6891 67.4449 42.6844C67.4449 43.5158 67.2786 44.3472 66.9461 45.1786C66.4472 46.8413 66.4472 48.504 66.281 50.1668C66.1147 54.6562 65.9484 59.3119 65.6159 63.8013C65.2833 69.1221 64.7845 74.2766 64.9508 79.4311C64.9508 81.7589 64.7845 84.253 64.6182 86.5809C64.6182 87.0797 64.4519 87.5785 64.4519 88.0773C64.2857 88.2436 63.9531 88.2436 63.9531 88.4099C64.1194 85.9158 64.2857 83.5879 64.2857 81.0938C64.4519 75.6068 64.6182 70.1197 65.117 64.7989C65.4496 59.8107 65.6159 54.6562 65.7821 49.668C65.9484 48.0052 66.281 46.5087 66.4472 44.846C66.6135 43.6821 66.7798 42.6844 66.7798 41.5205C66.7798 39.6915 67.1123 38.0288 67.4449 36.366C67.4449 36.1997 67.7774 36.1997 67.9437 35.8672Z" fill="black"/>
<path d="M54.8103 69.9528C53.6464 69.9528 52.8151 70.4516 52.15 71.1167C51.8174 71.4493 51.4849 71.7818 51.8174 72.1144C51.9837 72.4469 52.4825 72.6132 52.8151 72.7795C53.3139 72.9457 53.979 72.9457 54.4778 72.7795C53.4802 73.6108 51.4849 73.4446 50.986 72.4469C50.8198 72.1144 50.8198 71.6155 50.986 71.283C51.6511 70.4516 52.4825 69.7865 53.3139 69.1214C53.979 68.9551 54.3115 69.1214 54.8103 69.9528Z" fill="black"/>
<path d="M29.8687 48.8358C30.3676 48.5033 30.8664 48.337 31.1989 48.0045C31.6978 47.6719 31.864 47.1731 32.0303 46.508C32.0303 45.5104 31.3652 45.0115 30.3676 45.5103C29.8687 45.6766 29.5362 45.8429 28.8711 46.1754C29.3699 44.679 31.0327 44.3464 31.864 45.1778C32.3629 45.8429 32.5291 46.6743 32.3629 47.6719C32.1966 48.5033 31.3652 49.0021 29.8687 48.8358Z" fill="black"/>
<path d="M52.6504 47.8378C50.9876 47.5053 50.3225 46.8402 50.1562 45.51C50.1562 44.8449 50.8213 43.8473 51.3202 43.681C51.819 43.5147 52.3178 43.681 52.9829 44.5124C52.8166 44.5124 52.6504 44.5124 52.6504 44.5124C51.9853 44.1798 51.4864 44.5124 51.1539 45.0112C50.8213 45.51 50.9876 46.1751 51.4864 46.6739C51.6527 46.8402 51.9853 47.1728 52.3178 47.339C52.6504 47.5053 52.8166 47.5053 53.1492 47.6716C52.8166 47.6716 52.6504 47.8378 52.6504 47.8378Z" fill="black"/>
<path d="M25.0483 75.2734C24.2169 76.1048 24.0506 76.7699 24.5495 77.6013C25.2146 78.5989 26.2122 78.5989 27.2099 78.5989C27.2099 78.7652 27.2099 78.7652 27.2099 78.9315C26.2122 79.5966 25.3808 79.0977 24.5495 78.5989C23.7181 78.1001 23.5518 77.1025 23.7181 76.2711C23.7181 75.2734 23.8844 75.2734 25.0483 75.2734Z" fill="black"/>
<path d="M40.8443 73.1121C42.1745 72.1145 42.1745 72.1145 41.6756 70.618C41.3431 70.618 41.0105 70.618 40.5117 70.618C40.5117 70.2855 40.5117 69.9529 40.678 69.9529C40.8443 69.7866 41.3431 69.6204 41.5094 69.7866C42.3407 69.9529 42.8396 70.9506 42.8396 71.9482C42.6733 72.7796 42.1745 73.1121 40.8443 73.1121Z" fill="black"/>
<path d="M47.8241 58.8118C48.3229 58.4792 48.8217 58.6455 48.988 59.3106C49.3205 59.8094 48.6554 60.4745 47.9904 60.8071C47.4915 60.9734 46.6602 60.6408 46.6602 60.142C46.6602 59.3106 46.9927 59.1443 47.8241 58.8118Z" fill="black"/>
<path d="M29.2031 64.7968C29.5357 64.6305 29.7019 64.1317 30.0345 64.1317C30.5333 63.9654 30.8659 64.1317 31.0321 64.6305C31.1984 65.1293 30.8659 65.4619 30.367 65.4619C29.8682 65.6282 29.5357 65.4619 29.2031 64.7968Z" fill="black"/>
<path d="M37.3516 51.33C37.8504 51.1637 38.0167 50.8312 38.5155 50.9975C38.6818 50.9975 39.0143 51.1637 39.1806 51.33C39.3469 51.4963 39.1806 51.9951 39.0143 52.1614C38.3492 52.6602 37.8504 52.3277 37.3516 51.33Z" fill="black"/>
<path d="M59.7969 84.0871C60.9608 83.422 61.9584 82.7569 63.1224 82.0918C62.291 83.422 60.7945 84.2534 59.7969 84.0871Z" fill="black"/>
<path d="M59.9648 82.5886C61.1288 81.7572 61.7939 80.427 63.4566 80.2607C62.7915 80.5933 62.2927 81.0921 61.6276 81.5909C61.1288 81.9235 60.4637 82.4223 59.9648 82.9211C60.2974 82.9211 60.1311 82.7549 59.9648 82.5886Z" fill="black"/>
<path d="M25.5449 56.4853C25.8775 55.9864 25.8775 55.6539 26.21 55.3213C26.5426 54.9888 26.8751 55.3213 27.0414 55.6539C27.0414 55.8202 26.8751 56.319 26.8751 56.319C26.5426 56.4853 26.0437 56.6515 25.7112 56.6515C25.7112 56.6515 25.5449 56.4853 25.5449 56.4853Z" fill="black"/>
<path d="M42.1733 43.348C41.0094 43.1818 40.6768 42.6829 41.1756 42.1841C41.3419 42.0178 41.5082 41.8516 41.6745 41.8516C41.8407 42.0178 42.1733 42.1841 42.1733 42.1841C42.3396 42.8492 42.3396 43.0155 42.1733 43.348Z" fill="black"/>
<path d="M59.6331 51.9954C60.1319 51.8291 60.9633 52.1617 60.9633 52.4942C60.9633 52.6605 60.797 52.993 60.6307 53.1593C60.2982 53.3256 59.4668 52.993 59.4668 52.6605C59.4668 52.4942 59.6331 52.3279 59.6331 51.9954Z" fill="black"/>
<path d="M56.9727 81.7579C57.1389 81.5916 57.1389 81.2591 57.3052 81.2591C57.804 81.0928 58.1366 81.4253 58.1366 81.9242C58.1366 82.0904 57.9703 82.423 57.804 82.5893C57.4715 82.5893 57.1389 82.2567 56.9727 81.7579Z" fill="black"/>
<path d="M40.5075 81.2597C40.175 81.5923 40.0087 82.0911 39.8424 82.0911C39.6762 82.0911 39.3436 81.9248 39.3436 81.7585C39.1773 81.2597 39.3436 81.0934 39.8424 80.9272C39.8424 80.7609 40.0087 81.0934 40.5075 81.2597Z" fill="black"/>
<path d="M32.1966 45.0117L30.035 64.1333L28.8711 80.7607L52.8146 81.5921L55.6413 66.6274L57.4703 47.5058L50.9856 45.0117H32.1966Z" fill="white"/>
<path d="M29.5364 76.6034C30.2015 76.1046 30.8666 75.772 31.3654 75.4395C31.0329 76.4371 29.8689 76.9359 29.5364 78.0999C30.3678 77.7673 31.1991 77.4348 31.8642 77.1022C31.8642 77.2685 31.8642 77.2685 31.8642 77.2685C31.0329 77.7673 30.2015 78.4324 29.2038 79.2638C29.8689 79.43 30.2015 79.5963 30.534 79.5963C31.5317 79.7626 32.3631 79.5963 33.3607 79.7626C38.3489 79.9289 43.5034 80.2614 48.4917 80.4277C49.9881 80.4277 51.4846 80.4277 53.1474 80.4277C53.3136 79.9289 53.4799 79.5963 53.4799 78.9312C53.8124 75.772 54.3113 72.7791 54.6438 69.4536C54.9764 66.6269 55.1426 63.8003 55.3089 60.9736C55.3089 60.4748 55.4752 59.9759 55.4752 59.3108C55.8077 56.1516 56.1403 53.1587 56.4728 49.9995C56.6391 48.8356 56.6391 47.3391 56.8054 45.5101C55.8077 45.3438 54.8101 45.0112 53.8124 44.845C53.1474 44.845 52.316 44.6787 51.4846 44.845C47.9928 45.0112 44.5011 44.6787 41.0093 44.1799C38.0164 43.8473 35.0234 43.6811 32.0305 44.1799C31.5317 44.3462 31.1991 44.1799 30.8666 43.6811C31.0329 43.5148 31.3654 43.3485 31.5317 43.1822C34.0258 43.016 36.3536 42.8497 38.8478 43.1822C42.007 43.5148 44.9999 43.8473 48.1591 44.0136C49.9881 44.0136 51.8172 44.0136 53.4799 43.8473C54.8101 43.8473 56.1403 44.1799 57.4705 44.845C57.4705 45.5101 57.3042 46.3414 57.3042 47.0065C57.1379 49.0018 57.1379 51.1634 56.8054 53.1587C56.6391 54.9877 56.3066 56.8167 56.1403 58.812C55.974 59.6434 55.8077 60.4748 55.8077 61.3061C55.974 62.9689 55.6415 64.4654 55.3089 66.1281C55.1426 66.6269 55.1426 67.1257 55.1426 67.7908C54.8101 70.1187 54.6438 72.4465 54.4775 74.7744C54.3113 76.4371 53.9787 78.4324 53.8124 80.0951C53.6462 81.2591 53.4799 81.2591 52.4823 81.2591C49.323 81.0928 46.3301 81.0928 43.1709 80.9265C41.3419 80.9265 39.5129 80.7602 37.6838 80.7602C36.0211 80.594 34.5246 80.594 33.0282 80.594C31.5317 80.594 30.0352 80.4277 28.705 80.2614C28.705 79.9289 28.3725 79.5963 28.5387 79.4301C28.5387 76.9359 28.705 74.6081 28.8713 72.2802C29.0376 69.2873 29.2038 66.1281 29.3701 62.9689C29.5364 60.4748 29.7027 57.9807 30.0352 55.6528C30.2015 53.4912 30.7003 51.3297 31.0329 49.3344C31.1991 48.3367 31.1991 47.3391 31.1991 46.3414C31.1991 46.0089 31.3654 46.0089 31.3654 45.6763C32.0305 45.6763 32.1968 46.3414 32.0305 46.674C31.8642 47.6716 31.8642 48.6693 31.698 49.6669C31.0329 52.8261 30.7003 56.1516 30.534 59.4771C30.2015 64.7979 29.8689 70.1187 29.5364 75.4395C29.5364 75.772 29.7027 76.1046 29.5364 76.6034Z" fill="black"/>
<path d="M35.0215 47.6719L35.1878 60.1425L50.6513 61.8052L51.1501 57.1495L49.9862 48.5032L35.0215 47.6719Z" fill="#EB584A"/>
<path d="M49.9872 48.5027C44.8326 47.5051 39.6781 48.5027 34.3574 49.0016C34.3574 48.8353 34.0248 48.5027 34.1911 48.1702C34.3574 47.8376 34.6899 47.6714 34.8562 47.6714C37.5166 48.0039 40.177 47.5051 43.0036 47.1725C44.8326 47.0063 46.4954 47.3388 48.3244 47.3388C48.9895 47.3388 49.4883 47.5051 49.9872 47.3388C50.6523 47.3388 50.8185 47.6714 50.8185 48.3365C50.8185 49.3341 50.8185 50.498 50.8185 51.4957C50.8185 53.3247 50.9848 55.1537 50.9848 56.8164C50.9848 58.3129 50.6523 59.8094 50.486 61.4721C47.8256 61.3059 45.3315 60.9733 42.6711 60.6408C40.177 60.3082 37.5166 59.9757 35.0225 59.8094C34.6899 56.8164 34.1911 53.8235 34.5236 50.498C34.5236 50.1655 34.6899 49.8329 34.8562 49.5004C35.0225 49.5004 35.1887 49.5004 35.1887 49.5004C35.1887 49.8329 35.355 50.3317 35.355 50.498C35.0225 52.327 35.355 54.3223 35.5213 55.9851C35.5213 56.8164 35.6876 57.6478 35.8538 58.4792C40.3432 59.4768 45.1652 59.4768 49.6546 60.3082C50.6523 58.6455 50.6523 52.4933 49.9872 48.5027Z" fill="black"/>
<path d="M48.1579 71.9484C47.9917 72.1147 47.9917 72.1147 48.1579 72.281C47.9917 72.281 47.9917 72.4472 47.9917 72.4472C47.8254 72.4472 47.8254 72.4472 47.6591 72.4472C43.336 71.7821 39.1791 70.6182 34.6897 70.4519C34.6897 70.4519 34.5234 70.2857 34.5234 70.1194C34.856 70.1194 35.0223 69.9531 35.5211 69.9531C37.6826 69.9531 39.8442 70.2857 42.0058 70.6182C44.0011 70.9508 46.1626 71.2833 48.1579 71.6159C47.9917 71.7821 47.9917 71.9484 48.1579 71.9484Z" fill="black"/>
<path d="M46.4957 77.768C44.833 77.1029 43.3365 77.2691 41.84 77.1029C39.5122 77.1029 37.1843 76.9366 34.8565 76.9366C34.524 76.9366 34.524 76.7703 34.1914 76.604C34.3577 76.604 34.6902 76.4378 34.8565 76.2715C38.3483 76.4378 41.84 76.4378 45.3318 76.7703C45.8306 76.9366 46.3294 76.9366 46.4957 77.768Z" fill="black"/>
<path d="M43.6683 68.2906C43.502 68.2906 43.3357 68.4569 43.1694 68.4569C40.3428 67.9581 37.5161 67.4592 34.6895 66.7941C34.6895 66.6279 34.6895 66.6279 34.6895 66.4616C34.8557 66.4616 35.1883 66.2953 35.5208 66.4616C37.3498 66.7941 38.8463 67.1267 40.6753 67.4592C41.5067 67.6255 42.3381 67.7918 43.1694 67.9581C43.3357 68.1243 43.502 68.1243 43.6683 68.1243V68.2906Z" fill="black"/>
<path d="M42.173 50.8304C42.5055 50.9967 42.5056 51.3292 42.5056 51.6618C42.8381 51.6618 43.0044 51.9943 43.0044 51.9943C43.1706 51.4955 43.1706 51.1629 42.8381 50.4978C42.5056 50.4978 42.3393 50.3316 42.173 49.999C42.173 49.8327 42.173 49.5002 42.3393 49.3339C42.0067 49.3339 41.6742 49.3339 41.3416 49.8327C41.3416 50.1653 41.3416 50.3316 41.3416 50.4978C41.5079 50.8304 41.8405 50.8304 42.173 50.8304ZM42.3393 49.999C42.3393 50.1653 42.5056 50.4978 42.8381 50.4978H43.0044V50.6641C43.3369 51.3292 43.1706 51.9943 43.0044 52.3269C43.1706 52.4931 43.1706 52.6594 43.3369 52.6594C43.5032 52.3269 43.8357 51.4955 43.5032 50.3316C43.6695 50.1653 43.8357 49.8327 43.6695 49.5002C43.3369 49.0014 42.6718 48.8351 42.3393 49.5002C42.3393 49.5002 42.3393 49.8327 42.3393 49.999ZM43.8357 50.3316C44.002 51.3292 43.8357 52.3269 43.6695 52.6594C43.6695 52.6594 43.6695 52.8257 43.8357 53.1582C44.5008 51.9943 44.1683 50.8304 44.1683 50.8304C44.5008 50.8304 44.8334 50.4978 44.8334 50.1653C44.8334 49.6665 44.3346 49.3339 44.002 49.5002C44.002 49.5002 44.002 49.5002 44.002 49.6665C44.1683 49.8327 44.002 50.1653 43.8357 50.3316ZM41.5079 50.9967C42.0067 51.9943 41.8405 52.8257 41.3416 53.6571C41.5079 53.6571 41.6742 53.6571 41.6742 53.6571H41.8405H42.0067C42.173 53.4908 42.3393 53.1582 42.3393 52.8257V52.6594C42.3393 52.4931 42.3393 52.4931 42.3393 52.3269C42.3393 51.9943 42.3393 51.9943 42.173 51.828C42.3393 51.828 42.5056 51.828 42.5056 51.828C42.5056 51.6618 42.3393 51.3292 42.3393 51.1629C42.3393 51.1629 42.3393 51.1629 42.173 51.1629C41.8405 51.1629 41.5079 50.9967 41.5079 50.6641C41.3416 50.4978 41.3416 50.1653 41.5079 49.999C41.1754 49.999 40.8428 50.3316 41.0091 50.6641C40.6765 50.8304 41.0091 50.9967 41.5079 50.9967ZM41.5079 51.828C41.3416 51.6618 41.1754 51.828 41.1754 51.828C41.3416 51.9943 41.3416 52.3269 41.3416 52.4931L41.5079 52.6594C41.5079 52.1606 41.6742 51.9943 41.5079 51.828ZM42.3393 53.6571C42.5055 53.4908 42.6718 53.3245 42.6718 53.1582C42.6718 52.992 42.5055 52.8257 42.3393 52.8257C42.3393 53.1582 42.0067 53.4908 42.0067 53.8233C42.173 53.4908 42.173 53.4908 42.3393 53.6571ZM41.5079 54.1559C41.3416 54.1559 41.3416 54.1559 41.5079 54.1559C41.3416 54.3222 41.3416 54.3222 41.5079 54.1559C41.5079 54.3222 41.5079 54.3222 41.5079 54.1559C41.5079 54.1559 41.5079 54.3222 41.5079 54.1559ZM44.9997 58.479C43.8357 58.8116 42.8381 58.3127 42.5056 57.6476C43.0044 58.3127 44.1683 58.479 44.9997 58.479C44.9997 57.9802 46.3299 55.1535 43.6695 53.8233C43.6695 53.9896 43.5032 53.9896 43.6695 54.1559C44.002 54.3222 44.3346 54.6547 44.5008 55.3198C44.3346 54.4884 43.6695 54.1559 43.3369 53.9896C44.002 53.9896 43.5032 52.6594 43.5032 52.6594C43.1706 52.4931 43.0044 51.828 42.3393 51.6618C42.5055 51.828 42.3393 52.1606 42.3393 52.3269C42.5055 52.4931 42.8381 52.8257 42.8381 52.8257C42.8381 53.1582 42.6718 53.3245 42.3393 53.4908C42.6718 53.6571 42.8381 53.6571 43.0044 53.9896C42.6718 53.9896 42.5056 54.3222 42.5056 54.3222C42.5056 54.3222 42.5056 53.9896 42.8381 53.9896C42.5056 53.8233 42.3393 53.6571 41.8405 53.6571C41.5079 53.6571 41.3416 53.8233 41.0091 53.6571C40.8428 53.9896 39.6789 54.821 38.3487 54.9873C38.1824 54.9873 37.6836 54.9873 37.6836 54.9873V55.1535C37.6836 55.1535 38.0161 55.1535 38.1824 54.9873C38.1824 55.1535 38.0161 55.3198 37.8499 55.1535C38.1824 55.8186 40.1777 56.1512 41.3416 55.3198C41.3416 55.6524 41.0091 55.8186 40.6765 55.8186C40.8428 55.8186 41.0091 55.8186 41.1754 55.9849C41.3416 56.1512 41.5079 55.9849 41.5079 55.9849C41.5079 55.8186 41.5079 55.6524 41.8405 55.6524C42.173 55.6524 42.3393 55.9849 43.0044 55.9849C43.6695 55.9849 44.002 55.4861 43.8357 54.6547C44.002 55.6524 43.5032 56.1512 43.0044 55.9849C43.1706 56.4837 42.8381 56.9825 42.6718 57.3151C42.5056 57.3151 42.173 57.4814 42.173 57.6476C42.5055 58.3127 43.8357 59.1441 45.4985 58.6453C45.1659 58.6453 45.1659 58.479 44.9997 58.479ZM42.0067 54.4884C42.0067 54.3222 42.0067 54.3222 42.0067 54.4884C41.8405 54.3222 41.8405 54.3222 42.0067 54.4884L41.6742 54.3222V54.4884C41.6742 54.6547 41.6742 54.821 41.5079 54.6547C41.3416 54.4884 41.1754 54.6547 41.1754 54.4884C41.1754 54.3222 41.1754 54.1559 41.1754 54.1559C41.1754 54.1559 41.1754 54.1559 41.0091 54.1559C41.0091 54.1559 41.0091 54.1559 40.8428 54.1559H41.0091C41.0091 54.1559 41.1754 54.1559 41.1754 54.3222L41.3416 54.4884C41.3416 54.4884 41.3416 54.4884 41.3416 54.6547C42.0067 54.3222 42.0067 54.3222 42.0067 54.4884C42.0067 54.3222 42.0067 54.3222 42.0067 54.4884C42.0067 54.3222 42.0067 54.3222 42.0067 54.4884C42.0067 54.4884 42.0067 54.3222 42.0067 54.4884Z" fill="white"/>
<path d="M6.09189 53.4913L2.26758 102.376L44.335 102.708L45.4989 75.1069L47.1617 52.8262L6.09189 53.4913Z" fill="white"/>
<path d="M27.2102 97.7202C26.7114 97.2214 26.2126 96.8889 25.5475 96.39C20.8918 93.8959 15.9036 92.2332 11.913 88.7414C9.75144 86.7461 7.58987 84.252 4.59693 83.5869C4.09811 85.9148 4.76321 89.5728 4.43066 91.9006C4.76321 93.7297 4.09811 94.3947 4.43066 96.0575C4.76321 97.2214 3.43301 99.8818 4.26439 100.713C5.92713 102.708 10.7491 100.879 13.4095 100.879C15.7373 100.713 17.7326 101.378 20.0605 101.212C21.7232 101.877 24.3836 101.877 26.0463 101.378C28.0416 101.212 28.3742 99.2167 27.2102 97.7202Z" fill="#BCBCBB"/>
<path d="M44.8337 72.447C44.6674 67.9576 46.1639 63.4682 46.6627 58.9788L45.8313 55.9858C45.665 55.3207 45.665 54.8219 45.1662 54.3231C44.3349 53.1592 42.6721 53.1592 41.3419 53.1592C41.0094 53.1592 40.5105 53.1592 40.178 53.4917C39.5129 53.8243 39.3466 54.6556 39.1803 55.6533C38.349 63.6345 37.3513 71.7819 39.5129 79.4305C41.5082 79.2643 42.8384 77.269 43.6698 75.4399C44.1686 74.7749 44.5011 73.9435 44.8337 73.1121C45 72.9458 44.8337 72.6133 44.8337 72.447Z" fill="#BCBCBB"/>
<path d="M5.59243 98.8839C5.75871 98.8839 6.09125 99.0501 6.25753 98.8839C9.91557 98.7176 13.4073 99.0501 17.0654 99.3827C20.8897 99.549 24.714 99.8815 28.7046 99.7152C30.8661 99.549 33.0277 99.7152 35.1893 99.8815C37.1846 99.8815 39.0136 99.8815 41.0089 99.8815C41.3414 99.8815 41.674 99.8815 42.0065 99.8815C41.5077 100.38 41.0089 100.38 40.6763 100.38C38.0159 100.38 35.5218 100.38 33.0277 100.38C30.5336 100.38 28.0395 100.547 25.5454 100.38C22.3861 100.048 19.2269 99.8815 16.0677 99.7152C13.0748 99.549 10.0818 99.549 6.92263 99.3827C6.59008 99.3827 6.09125 99.549 5.75871 99.549C5.59243 99.8815 5.42616 100.38 5.09361 100.879C5.75871 100.879 6.25753 101.045 6.75635 101.045C8.4191 101.045 10.2481 101.212 11.7446 101.045C14.405 100.879 17.2316 101.045 19.892 101.045C22.5524 101.045 25.3791 101.378 28.0395 101.378C30.201 101.544 32.3626 101.544 34.5242 101.544C37.0183 101.544 39.5124 101.544 41.8402 101.711C42.1728 101.711 42.5053 101.711 43.0042 101.877C43.0042 102.376 42.6716 102.376 42.1728 102.376C39.5124 102.376 36.6857 102.209 34.0254 102.209C31.1987 102.043 28.372 102.043 25.5454 102.043C23.0512 102.043 20.5571 102.043 18.063 101.711C14.9038 101.378 11.9109 101.877 8.75164 101.877C7.25517 101.877 5.75871 101.711 4.09596 101.711C4.09596 100.713 3.92969 99.7152 3.92969 98.7176C3.92969 96.2235 4.09596 93.7294 4.26224 91.2352C4.26224 90.4039 4.26224 89.7388 4.42851 88.7411C4.42851 85.4156 4.76106 81.9239 5.09361 78.2658C5.42616 74.109 5.92498 69.9521 6.25753 65.9615C6.4238 63.9662 6.4238 61.9709 6.4238 59.9757C6.59008 58.1466 6.59008 56.4839 6.59008 54.8211C7.25518 54.1561 7.92027 53.8235 8.75164 53.8235C11.412 53.8235 14.2387 53.6572 16.8991 53.6572C19.892 53.6572 22.885 53.6572 25.7116 53.8235C26.2105 53.8235 26.7093 53.8235 27.2081 53.8235C28.7046 53.6572 30.201 53.6572 31.6975 53.6572C34.5242 53.6572 37.3508 53.9898 40.1775 53.9898C41.8402 53.8235 43.6693 53.8235 45.4983 53.8235C45.6646 53.8235 45.8308 53.8235 45.9971 53.8235C46.1634 53.8235 46.3297 53.9898 46.3297 54.3223C46.3297 54.4886 46.1634 54.6549 45.9971 54.6549C45.8308 54.6549 45.6646 54.8211 45.332 54.6549C41.5077 54.8211 37.6834 54.6549 33.8591 54.4886C31.6975 54.3223 29.3697 54.4886 27.2081 54.4886C24.0489 54.4886 21.0559 54.3223 18.063 54.4886C15.2363 54.4886 12.4097 54.6549 9.58302 54.6549C9.08419 54.6549 8.4191 54.8211 7.754 54.8211C7.58772 57.3153 7.754 59.9757 7.754 62.9686C8.4191 62.4698 8.91792 62.1372 9.58302 61.4721C9.08419 62.636 7.58772 63.1349 7.92027 64.6313C8.75164 63.9662 9.41674 63.4674 10.0818 62.9686C10.0818 62.9686 10.0818 63.1349 10.2481 62.9686C9.74929 63.4674 9.25047 63.9662 8.75164 64.4651C8.08655 64.9639 7.754 65.7953 7.754 66.6266C7.42145 69.7858 7.0889 72.9451 6.75635 76.1043C6.59008 77.4345 6.59008 78.7647 6.59008 79.9286C6.4238 81.9239 6.4238 83.9192 6.25753 85.9145C6.09125 89.0737 5.92498 92.2329 5.75871 95.3921C5.25988 96.7223 5.25988 97.8862 5.59243 98.8839Z" fill="black"/>
<path d="M44.9983 56.6511C44.6658 56.8173 44.4995 56.9836 44.3332 56.9836C43.3356 56.9836 42.5042 57.1499 41.6728 56.9836C39.6776 56.6511 37.8485 56.8173 36.0195 56.9836C33.8579 57.1499 31.8627 57.3162 29.7011 57.1499C28.5372 57.1499 27.3732 57.3162 26.3756 57.3162C24.0478 57.3162 21.8862 57.3162 19.7246 57.3162C19.2258 57.3162 18.5607 57.3162 18.0619 57.4824C15.2352 57.6487 12.4086 57.815 9.74816 57.9813C9.41562 57.9813 9.08307 57.9813 8.75052 57.9813C8.58424 57.9813 8.41797 57.6487 8.41797 57.4824C8.41797 57.1499 8.41797 56.9836 8.58424 56.9836C8.75052 56.9836 8.91679 56.9836 9.08307 56.9836C12.2423 56.8173 15.4015 56.6511 18.5607 56.4848C20.556 56.4848 22.5513 56.4848 24.7129 56.4848C25.8768 56.4848 27.0407 56.4848 28.2046 56.4848C29.036 56.4848 29.8674 56.3185 30.6987 56.3185C33.1929 56.4848 35.5207 56.1522 37.8485 56.3185C40.0101 56.3185 42.1717 56.4848 44.4995 56.6511C44.6658 56.4848 44.6658 56.6511 44.9983 56.6511Z" fill="black"/>
<path d="M46.6617 55.4854C46.6617 55.8179 46.6617 56.1504 46.6617 56.483C46.3291 58.1457 46.3291 59.6422 46.3291 61.305C46.3291 61.9701 46.1629 62.8014 45.9966 63.4665C45.4978 64.963 45.4978 66.2932 45.4978 67.7897C45.3315 71.614 45.1652 75.6046 44.8327 79.5951C44.5001 84.0845 44.1676 88.574 44.1676 93.0634C44.1676 95.0587 44.0013 97.0539 43.835 99.2155C43.835 99.5481 43.6687 100.047 43.6687 100.546C43.6687 100.712 43.3362 100.712 43.1699 100.712C43.3362 98.5504 43.3362 96.5551 43.5025 94.3936C43.6687 89.7379 43.835 85.0822 44.1676 80.4265C44.5001 76.1034 44.5001 71.7802 44.8327 67.4571C44.9989 66.1269 45.1652 64.6304 45.3315 63.3002C45.3315 62.3026 45.664 61.305 45.664 60.4736C45.664 58.9771 45.8303 57.4806 46.3291 56.1504C46.1629 55.8179 46.3291 55.8179 46.6617 55.4854Z" fill="black"/>
<path d="M35.3545 84.7495C34.3568 84.7495 33.6917 85.0821 33.0266 85.7472C32.8604 86.0797 32.3616 86.246 32.6941 86.5785C32.8604 86.9111 33.1929 87.0773 33.5255 87.0773C34.0243 87.2436 34.5231 87.0773 35.0219 87.0773C34.1906 87.7424 32.5278 87.7424 32.029 86.9111C31.8627 86.5785 31.8627 86.0797 32.029 85.9134C32.5278 85.2483 33.3592 84.5832 34.0243 84.0844C34.6894 83.7519 34.8557 83.9181 35.3545 84.7495Z" fill="black"/>
<path d="M13.9056 66.627C14.4044 66.2944 14.737 66.2944 14.9032 65.9619C15.4021 65.6293 15.5683 65.1305 15.5683 64.6317C15.5683 63.8003 15.0695 63.4678 14.2381 63.6341C13.9056 63.8003 13.4068 63.9666 13.0742 64.1329C13.573 62.969 14.9032 62.4701 15.7346 63.3015C16.2334 63.9666 16.3997 64.6317 16.0672 65.2968C15.9009 66.2944 15.0695 66.7933 13.9056 66.627Z" fill="black"/>
<path d="M33.5268 65.7952C32.1966 65.4626 31.5315 64.9638 31.3652 63.7999C31.3652 63.1348 31.8641 62.4697 32.3629 62.1371C32.8617 61.9708 33.1943 62.1371 33.6931 62.8022C33.5268 62.8022 33.3605 62.8022 33.3605 62.8022C32.6954 62.4697 32.3629 62.8022 32.0303 63.301C31.6978 63.6336 31.8641 64.2987 32.1966 64.6312C32.3629 64.7975 32.5292 65.1301 32.8617 65.1301C33.1943 65.1301 33.3605 65.2963 33.5268 65.4626C33.5268 65.6289 33.5268 65.6289 33.5268 65.7952Z" fill="black"/>
<path d="M9.74751 89.4067C9.08241 90.0717 8.91613 90.5706 9.24868 91.4019C9.74751 92.2333 10.5789 92.3996 11.5765 92.2333C11.5765 92.3996 11.5765 92.3996 11.5765 92.3996C10.7452 92.8984 9.91378 92.5659 9.24868 92.067C8.58359 91.5682 8.25104 90.9031 8.58359 90.0717C8.58359 89.4066 8.74986 89.2404 9.74751 89.4067Z" fill="black"/>
<path d="M23.3853 87.4107C24.5492 86.5793 24.5492 86.5793 24.0504 85.2491C23.7178 85.2491 23.3853 85.2491 23.0527 85.2491C23.0527 85.0828 23.0527 84.7503 23.219 84.7503C23.3853 84.584 23.7178 84.584 24.0504 84.584C24.7155 84.7503 25.2143 85.5816 25.048 86.5793C24.8818 87.2444 24.5492 87.4107 23.3853 87.4107Z" fill="black"/>
<path d="M29.3687 75.1063C29.8676 74.94 30.2001 74.94 30.3664 75.4388C30.5327 75.9377 30.0338 76.4365 29.535 76.6028C29.0362 76.769 28.5374 76.4365 28.3711 76.1039C28.3711 75.6051 28.5374 75.4388 29.3687 75.1063Z" fill="black"/>
<path d="M13.4082 80.2604C13.7408 80.0941 13.7408 79.7616 14.0733 79.7616C14.4058 79.5953 14.7384 79.7616 14.9047 80.2604C15.0709 80.5929 14.7384 80.9255 14.4059 81.0918C13.907 81.0918 13.5745 80.9255 13.4082 80.2604Z" fill="black"/>
<path d="M20.3906 68.7896C20.7232 68.6233 21.0557 68.457 21.3883 68.457C21.5545 68.457 21.8871 68.6233 22.0534 68.7896C22.2196 68.7896 22.0534 69.2884 21.8871 69.4547C21.222 69.7872 20.7232 69.621 20.3906 68.7896Z" fill="black"/>
<path d="M39.6797 96.8883C40.6773 96.3895 41.5087 95.7244 42.5064 95.2256C41.675 96.2232 40.5111 97.0546 39.6797 96.8883Z" fill="black"/>
<path d="M39.8438 95.5588C40.8414 94.8937 41.5065 93.7298 42.8367 93.5635C42.3379 93.896 41.839 94.2286 41.3402 94.7274C40.8414 95.0599 40.3426 95.3925 40.01 95.8913C40.01 95.725 40.01 95.725 39.8438 95.5588Z" fill="black"/>
<path d="M10.0801 73.1116C10.2464 72.7791 10.4126 72.4465 10.7452 72.114C10.9115 71.7814 11.4103 72.114 11.5765 72.2802C11.5765 72.4465 11.5765 72.7791 11.4103 72.7791C11.0777 72.9453 10.7452 73.1116 10.4126 73.1116C10.2464 73.2779 10.2464 73.2779 10.0801 73.1116Z" fill="black"/>
<path d="M24.5469 61.9721C23.5492 61.8058 23.2167 61.4732 23.7155 60.9744C23.7155 60.8081 24.0481 60.6419 24.2143 60.8081C24.3806 60.8081 24.5469 60.9744 24.5469 61.1407C24.5469 61.4732 24.5469 61.6395 24.5469 61.9721Z" fill="black"/>
<path d="M39.5139 69.2874C40.0128 69.1211 40.5116 69.4537 40.6779 69.7862C40.6779 69.9525 40.5116 70.285 40.3453 70.4513C40.0128 70.6176 39.3477 70.4513 39.3477 69.9525C39.3477 69.6199 39.5139 69.4537 39.5139 69.2874Z" fill="black"/>
<path d="M37.1855 94.8946C37.1855 94.7283 37.3518 94.3958 37.5181 94.3958C37.8506 94.2295 38.1832 94.5621 38.3495 94.8946C38.3495 95.0609 38.1832 95.3934 38.0169 95.5597C37.6844 95.5597 37.1855 95.2272 37.1855 94.8946Z" fill="black"/>
<path d="M23.0505 94.3941C22.7179 94.7266 22.5517 95.0592 22.3854 95.0592C22.2191 95.0592 21.8866 94.8929 21.8866 94.7266C21.7203 94.3941 21.8866 94.0615 22.3854 94.0615C22.5517 94.0615 22.5517 94.2278 23.0505 94.3941Z" fill="black"/>
<path d="M15.9009 63.4673L14.0719 79.7622L13.0742 93.8955L33.6922 94.7269L36.1864 81.7575L37.6828 65.2963L32.0295 63.1348L15.9009 63.4673Z" fill="white"/>
<path d="M13.7393 90.5715C14.4044 90.0726 14.737 89.9064 15.4021 89.5738C15.0695 90.4052 14.0719 90.7377 13.7393 91.9017C14.5707 91.5691 15.2358 91.4028 15.7346 91.0703C15.7346 91.2366 15.7346 91.2366 15.7346 91.2366C15.0695 91.7354 14.4044 92.2342 13.4068 92.8993C13.9056 93.0656 14.2381 93.2319 14.5707 93.2319C15.4021 93.3981 16.0672 93.2319 17.0648 93.3981C21.3879 93.5644 25.7111 93.7307 30.0342 94.0632C31.1981 94.0632 32.6946 94.0632 34.0248 94.0632C34.1911 93.5644 34.1911 93.2319 34.3573 92.8993C34.6899 90.2389 35.0224 87.5785 35.355 84.7519C35.5213 82.2577 35.6875 79.9299 35.8538 77.4358C35.8538 77.1032 36.0201 76.6044 36.0201 76.1056C36.3526 73.4452 36.6852 70.7848 36.8515 68.1244C37.0177 66.7942 37.0177 65.464 37.184 63.9676C36.3526 63.8013 35.355 63.635 34.6899 63.4687C34.0248 63.4687 33.3597 63.3025 32.6946 63.4687C29.7017 63.635 26.7087 63.3025 23.7158 62.9699C21.2217 62.6374 18.7275 62.4711 16.0672 62.9699C15.7346 63.1362 15.4021 62.9699 15.0695 62.4711C15.0695 62.1385 15.4021 61.9723 15.5683 61.9723C17.7299 61.806 19.7252 61.6397 21.8868 61.9723C24.5472 62.3048 27.2075 62.6374 29.8679 62.6374C31.3644 62.6374 33.0271 62.6374 34.5236 62.6374C35.6875 62.6374 36.6852 62.9699 37.8491 63.4687C37.8491 64.1338 37.6828 64.7989 37.6828 65.2978C37.5166 67.1268 37.5166 68.7895 37.3503 70.6185C37.184 72.2813 37.0177 73.7778 36.6852 75.4405C36.5189 76.2719 36.3526 76.7707 36.5189 77.6021C36.6852 79.0985 36.5189 80.2625 36.1864 81.7589C36.0201 82.2577 36.0201 82.5903 36.0201 83.0891C35.8538 85.0844 35.6875 87.0797 35.355 89.075C35.1887 90.4052 35.0224 92.0679 34.8562 93.5644C34.6899 94.5621 34.5236 94.5621 33.6922 94.5621C31.0319 94.5621 28.3715 94.3958 25.7111 94.2295C24.2146 94.2295 22.5519 94.2295 21.0554 94.0632C19.7252 93.897 18.395 94.0632 17.0648 93.897C15.9009 93.897 14.5707 93.7307 13.2405 93.7307C13.2405 93.3981 13.0742 93.2319 13.0742 92.8993C13.0742 90.904 13.2405 88.7424 13.4068 86.7472C13.4068 84.0868 13.573 81.4264 13.7393 78.766C13.9056 76.6044 14.0719 74.6091 14.2381 72.4476C14.4044 70.6185 14.737 68.7895 15.0695 66.9605C15.2358 66.1291 15.2358 65.1315 15.2358 64.3001C15.2358 64.1338 15.4021 63.9676 15.4021 63.8013C16.0672 63.8013 16.0672 64.3001 15.9009 64.6327C15.7346 65.464 15.7346 66.2954 15.5683 67.1268C14.9032 69.7872 14.737 72.7801 14.5707 75.6068C14.2381 80.0962 13.9056 84.7519 13.7393 89.2413C13.7393 89.7401 13.7393 89.9064 13.7393 90.5715Z" fill="black"/>
<path d="M18.3965 65.6289L18.5628 76.4367L31.8647 77.7669L32.1973 73.7764L31.1996 66.294L18.3965 65.6289Z" fill="#EB584A"/>
<path d="M31.2006 66.2945C26.7112 65.4631 22.3881 66.2945 17.8987 66.627C17.8987 66.4607 17.7324 66.1282 17.7324 65.9619C17.7324 65.7956 18.2312 65.6294 18.3975 65.6294C20.7254 65.9619 23.0532 65.4631 25.381 65.1305C26.8775 64.9643 28.374 65.2968 30.0367 65.2968C30.5355 65.2968 31.0344 65.2968 31.5332 65.2968C32.032 65.2968 32.1983 65.6294 32.1983 66.1282C32.1983 67.1258 32.1983 67.9572 32.1983 68.9549C32.1983 70.4513 32.3646 71.9478 32.1983 73.6105C32.1983 74.7745 32.032 76.1047 31.8657 77.6011C29.5379 77.4348 27.3763 77.1023 25.2148 76.936C23.0532 76.7698 20.8916 76.4372 18.5638 76.2709C18.3975 73.6105 17.8987 71.1164 18.065 68.2898C18.065 67.9572 18.2312 67.7909 18.3975 67.4584C18.5638 67.4584 18.5638 67.4584 18.5638 67.4584C18.5638 67.7909 18.7301 68.1235 18.7301 68.2898C18.3975 69.9525 18.7301 71.449 18.8963 72.9454C18.8963 73.6105 19.0626 74.4419 19.2289 75.107C23.2195 75.9384 27.2101 75.9384 31.0344 76.6035C31.6995 74.9407 31.6995 69.7862 31.2006 66.2945Z" fill="black"/>
<path d="M29.5379 86.413C29.5379 86.5793 29.5379 86.5793 29.5379 86.5793C29.3716 86.5793 29.5379 86.7456 29.3716 86.7456C29.2054 86.7456 29.2054 86.7456 29.0391 86.7456C25.2148 86.2467 21.723 85.2491 17.8987 85.0828C17.8987 85.0828 17.7324 85.0828 17.7324 84.7503C18.065 84.7503 18.2312 84.584 18.5638 84.584C20.3928 84.584 22.2218 84.9165 24.0508 85.2491C25.7136 85.5816 27.5426 85.9142 29.3716 86.0805C29.3716 86.2467 29.3716 86.413 29.5379 86.413Z" fill="black"/>
<path d="M28.206 91.4022C26.8758 90.7371 25.5456 91.0696 24.2154 90.9034C22.2201 90.9034 20.2248 90.7371 18.2296 90.7371C18.0633 90.7371 17.897 90.5708 17.5645 90.4046C17.7307 90.4046 17.897 90.2383 18.0633 90.2383C21.0562 90.4046 24.0492 90.4046 27.0421 90.7371C27.7072 90.7371 28.0397 90.7371 28.206 91.4022Z" fill="black"/>
<path d="M25.8791 83.42C25.7128 83.42 25.5465 83.5863 25.5465 83.5863C23.2187 83.0874 20.7246 82.7549 18.2305 82.0898C18.2305 81.9235 18.2305 81.9235 18.2305 81.9235C18.3967 81.9235 18.7293 81.7572 18.8956 81.9235C20.392 82.2561 21.8885 82.4223 23.385 82.7549C24.2163 82.9212 24.7152 83.0874 25.5465 83.0874C25.7128 83.0874 25.7128 83.2537 26.0454 83.2537C25.7128 83.0874 25.7128 83.2537 25.8791 83.42Z" fill="black"/>
<path d="M24.3826 68.4553C24.5489 68.289 24.5489 68.289 24.3826 68.4553C24.5489 68.6216 24.7152 68.9541 24.7152 69.2867C24.8815 69.2867 25.0477 69.4529 25.214 69.6192C25.3803 69.1204 25.3803 68.7878 25.0477 68.289C24.8815 68.289 24.5489 68.1227 24.5489 67.7902C24.5489 67.6239 24.5489 67.4576 24.5489 67.2914C24.3826 67.2914 23.8838 67.2914 23.7175 67.6239C23.7175 67.7902 23.7175 67.9565 23.7175 68.289C23.8838 68.289 24.2164 68.289 24.3826 68.4553ZM24.5489 67.6239C24.5489 67.7902 24.7152 67.9565 24.8815 68.1227H25.0477V68.289C25.214 68.7878 25.214 69.4529 25.0477 69.7855C25.214 69.7855 25.214 70.118 25.3803 69.9518C25.5466 69.7855 25.7128 68.9541 25.5466 67.9565C25.7128 67.7902 25.8791 67.4576 25.7128 67.1251C25.5466 66.6263 24.8815 66.6263 24.5489 67.1251C24.5489 67.1251 24.5489 67.4576 24.5489 67.6239ZM25.8791 67.9565C26.0454 68.7878 25.8791 69.6192 25.7128 69.9518C25.7128 69.9518 25.7128 70.118 25.8791 70.2843C26.3779 69.2867 26.2117 68.289 26.2117 68.289C26.5442 68.289 26.7105 68.1227 26.8768 67.7902C26.8768 67.4576 26.5442 67.1251 26.0454 67.1251C26.0454 67.1251 26.0454 67.1251 26.0454 67.2914C26.2117 67.4576 26.0454 67.6239 25.8791 67.9565ZM23.8838 68.4553C24.2164 69.2867 24.2164 70.118 23.7175 70.6169C23.8838 70.6169 23.8838 70.6169 24.0501 70.6169C24.2164 70.6169 24.2164 70.6169 24.2164 70.6169H24.3826C24.3826 70.4506 24.7152 70.118 24.7152 69.9518V69.7855C24.7152 69.6192 24.7152 69.6192 24.7152 69.4529C24.7152 69.2867 24.7152 69.1204 24.5489 69.1204C24.7152 69.1204 24.7152 69.1204 24.7152 69.1204C24.7152 68.9541 24.5489 68.7878 24.5489 68.4553C24.5489 68.4553 24.5489 68.4553 24.3826 68.4553C24.0501 68.4553 23.8838 68.289 23.7175 68.1227C23.5513 67.9565 23.5513 67.7902 23.7175 67.4576C23.385 67.4576 23.2187 67.6239 23.2187 67.9565C23.2187 68.289 23.5513 68.4553 23.8838 68.4553ZM23.8838 69.1204C23.7175 69.1204 23.7175 69.1204 23.5513 69.1204C23.7175 69.1204 23.7175 69.4529 23.7175 69.7855H23.8838C23.8838 69.4529 24.0501 69.2867 23.8838 69.1204ZM24.5489 70.7831C24.7152 70.6169 24.8815 70.4506 24.8815 70.2843C24.8815 70.118 24.7152 69.9518 24.5489 69.9518C24.5489 70.2843 24.2164 70.6169 24.2164 70.7831C24.3826 70.6169 24.5489 70.6169 24.5489 70.7831ZM23.8838 71.282C23.7175 71.1157 23.7175 71.1157 23.8838 71.282C23.7175 71.282 23.7175 71.282 23.8838 71.282C23.8838 71.1157 23.8838 71.282 23.8838 71.282C23.8838 71.1157 23.8838 71.1157 23.8838 71.282ZM26.8768 74.7737C25.8791 74.94 25.0477 74.6074 24.7152 74.1086C25.214 74.7737 26.2117 74.94 26.8768 74.7737C26.8768 74.4412 28.0407 71.9471 25.7128 70.7831C25.7128 70.9494 25.7128 70.9494 25.7128 70.9494C25.8791 71.1157 26.3779 71.282 26.5442 71.9471C26.3779 71.282 25.8791 70.9494 25.5466 70.7831C26.0454 70.7831 25.7128 69.6192 25.7128 69.6192C25.3803 69.4529 25.214 68.9541 24.7152 68.7878C24.8815 68.7878 24.7152 69.1204 24.7152 69.4529C24.8815 69.6192 25.0477 69.9518 25.0477 69.9518C25.0477 70.118 24.8815 70.4506 24.7152 70.6169C24.8815 70.7831 25.214 70.7831 25.3803 70.9494C25.0477 70.9494 24.8815 71.1157 24.8815 71.1157C24.8815 71.1157 24.8815 70.9494 25.214 70.7831C25.0477 70.6169 24.7152 70.4506 24.3826 70.4506C24.2164 70.4506 23.8838 70.6169 23.7175 70.4506C23.5513 70.6169 22.5536 71.4482 21.3897 71.4482C21.2234 71.4482 20.7246 71.4482 20.7246 71.4482V71.6145C20.7246 71.6145 20.8909 71.6145 21.0572 71.4482C21.0572 71.6145 20.8909 71.6145 20.7246 71.6145C21.0572 72.1133 22.7199 72.4459 23.7175 71.7808C23.7175 71.947 23.385 72.1133 23.0525 72.2796C23.2187 72.2796 23.385 72.2796 23.5513 72.4459C23.7175 72.4459 23.7175 72.4459 23.8838 72.4459C23.8838 72.2796 23.8838 72.2796 24.0501 72.1133C24.2164 72.1133 24.5489 72.4459 25.0477 72.4459C25.5466 72.4459 25.8791 72.1133 25.8791 71.282C26.0454 72.1133 25.5466 72.4459 25.214 72.4459C25.3803 72.7784 25.0477 73.2772 24.8815 73.6098C24.7152 73.6098 24.5489 73.7761 24.3826 73.9423C24.7152 74.4412 25.8791 75.2725 27.2093 74.7737C27.043 75.1063 27.043 74.94 26.8768 74.7737ZM24.2164 71.4482C24.2164 71.282 24.2164 71.282 24.2164 71.4482C24.2164 71.282 24.2164 71.282 24.2164 71.4482L24.0501 71.282V71.4482C24.0501 71.6145 24.0501 71.6145 23.8838 71.6145C23.7175 71.6145 23.7175 71.6145 23.7175 71.4482C23.7175 71.282 23.7175 71.282 23.7175 71.282C23.7175 71.282 23.7175 71.282 23.5513 71.282C23.5513 71.282 23.5513 71.282 23.385 71.282H23.5513H23.7175H23.8838C23.8838 71.282 23.8838 71.282 23.8838 71.4482C24.2164 71.282 24.2164 71.282 24.2164 71.4482C24.2164 71.282 24.2164 71.282 24.2164 71.4482C24.3826 71.4482 24.3826 71.4482 24.2164 71.4482C24.2164 71.4482 24.3826 71.4482 24.2164 71.4482Z" fill="white"/>
</svg>
