<svg width="94" height="110" viewBox="0 0 94 110" fill="none" xmlns="http://www.w3.org/2000/svg">
<g clip-path="url(#clip0_10970_664)">
<path d="M94.46 60.6304C93.7949 64.4547 93.2961 68.6116 92.631 72.7684C91.9659 78.0892 88.9729 82.2461 85.6474 85.9041C81.6569 90.3935 77.1675 94.2178 71.6804 97.0445C63.6992 101.035 55.053 102.698 46.2404 103.197C34.2687 103.862 23.6271 100.037 14.1495 92.5551C7.49849 86.9018 4.00673 79.752 0.514966 72.1033C-0.150132 70.7731 -0.316406 69.2767 -0.316406 67.7802C0.182417 62.6257 0.0161426 57.1386 1.67889 52.3167C3.84045 46.1645 5.66947 39.8461 9.32751 34.0265C13.3181 27.8743 17.9738 22.7198 23.7934 18.7293C28.9479 15.2375 34.6012 12.9096 40.9196 12.4108C41.9173 12.4108 42.9149 12.2446 43.9126 12.0783C58.8773 9.58416 70.849 15.57 81.4906 25.214C87.809 30.8673 90.4694 38.6822 92.4647 46.4971C93.6286 51.1528 93.7949 55.6422 94.46 60.6304ZM91.1345 60.2979C91.4671 48.6586 88.3078 38.0171 80.4929 29.0383C73.3431 20.8908 64.1981 15.9026 53.5565 14.9049C43.4138 14.0736 33.9361 17.0665 25.7887 23.5512C16.1448 31.1998 9.66006 41.1763 5.5032 52.3167C3.67418 57.3049 2.84281 63.2908 3.67418 68.6116C6.16829 81.9135 14.6483 91.2249 27.1189 96.3794C41.0859 102.033 55.053 101.035 68.6875 94.7167C83.1533 88.0657 91.6333 77.2578 91.1345 60.2979Z" fill="#F15748"/>
<path d="M91.5699 39.4782C91.6979 39.8396 91.826 40.2011 91.954 40.5625C94.0691 48.5995 91.5296 59.3432 82.9853 64.16C80.5623 65.5879 78.0114 66.6543 75.2481 68.0401C71.6697 81.5924 61.2373 90.4951 48.9831 87.5957C48.5585 88.2343 48.1339 88.8729 47.7093 89.5114C39.3838 99.5388 29.457 104.357 16.9419 96.5877C16.7717 96.5666 16.4524 96.3543 16.1542 95.9718C16.0051 95.7806 15.8349 95.7595 15.6858 95.5683C14.749 94.7612 13.5351 93.4014 12.151 92.0206C10.0214 89.6836 7.7848 86.8149 6.54818 84.2429C5.75887 82.2446 5.05548 80.948 4.69243 79.6936C1.49145 70.6582 -1.07097 62.0474 3.08604 52.1951C8.98203 38.0658 24.3268 28.5618 37.9262 35.9472C38.0963 35.9683 38.2455 36.1595 38.2455 36.1595C38.4156 36.1806 38.5858 36.2017 38.5647 36.3718C39.9051 36.7106 41.1595 36.3475 41.9666 35.4107C42.1368 35.4318 42.1578 35.2616 42.328 35.2827C42.5192 35.1336 43.4544 34.5582 43.7947 34.6004C44.5386 34.1741 45.4527 33.7689 46.2177 33.1725C46.9616 32.7463 48.4283 32.0639 48.6195 31.9148C48.6195 31.9148 51.1705 30.8484 54.6372 30.7592C58.0618 31.0104 61.3599 32.2826 64.1492 34.8741C65.4668 34.0005 66.4019 33.4251 67.188 32.6585C75.0937 27.4171 83.0287 28.9178 87.7774 33.8252L87.9265 34.0165C89.672 35.2693 90.8017 37.3097 91.5699 39.4782Z" fill="white"/>
<path d="M20.7165 89.7971C23.9288 90.3676 27.2042 90.4275 30.2657 89.4243C36.0484 87.3757 39.8278 81.969 41.7564 76.1603C45.1046 65.8624 44.7496 53.3781 41.7172 42.9813C43.7836 45.8288 44.5113 49.7201 46.5777 52.5677C48.0688 54.4801 49.3686 56.5416 50.307 58.7312C51.6506 61.8348 50.2941 65.8137 50.3833 69.2804C50.4498 71.5348 50.9198 73.3208 50.3056 75.4909C49.6281 78.1716 49.6314 80.9365 48.4435 83.5539C47.9556 84.703 47.4889 85.6819 47.0011 86.831C46.3431 87.959 45.3447 89.0449 44.5376 89.9817C41.9251 92.9411 39.3125 95.9005 35.5282 97.1599C32.9983 98.0561 30.0632 98.0383 27.4895 97.8925C24.4053 97.6835 21.0018 97.2621 18.4476 95.5636C17.1705 94.7144 15.9355 93.5248 14.8917 92.1861C13.9971 91.0387 13.2515 90.0825 12.3358 89.1052C11.7605 88.17 11.8448 87.4894 13.036 87.6368C14.2272 87.7843 15.5043 88.6335 16.6745 88.9512C18.0148 89.2899 19.3551 89.6286 20.7165 89.7971Z" fill="#BBBBBA"/>
<path d="M46.5579 33.2142C43.4543 34.5578 40.5225 37.3049 40.9731 40.6436C41.1659 41.8769 41.8904 43.0033 42.4236 44.2788C43.9795 47.0632 45.174 49.9756 46.0071 53.016C46.9893 56.2477 47.4188 59.7565 49.1238 62.7321C49.422 63.1146 49.6992 63.6672 50.2308 63.5603C50.5922 63.4322 50.8045 63.1129 50.8466 62.7726C51.5889 60.9639 51.3522 58.6884 51.2436 56.7744C51.195 51.5849 50.4218 45.269 52.8836 40.7358C54.0505 38.2886 59.8105 35.0277 56.8089 32.7555C54.2968 30.7166 48.9388 32.1267 46.5579 33.2142Z" fill="#BBBBBA"/>
<path d="M68.0196 32.93C66.8932 33.6544 65.9159 34.5701 65.2579 35.6981C64.5999 36.8262 64.2612 38.1665 64.9646 39.463C65.54 40.3982 66.4978 41.0351 67.2644 41.8212C68.6696 43.0318 69.3098 44.8389 69.971 46.4758C70.2482 47.0284 70.5043 47.7513 70.9726 48.1548C72.2076 49.3444 73.3227 57.0849 74.4913 56.0201C75.4896 54.9342 73.496 41.7287 73.154 40.3041C72.8753 38.369 73.0859 36.6673 73.3614 35.8374C74.4003 33.0288 81.5476 33.9136 78.9075 31.5134C75.6498 28.5183 70.8671 30.8635 68.0196 32.93Z" fill="#BBBBBA"/>
<path d="M56.4409 63.6368C56.59 63.828 56.569 63.9982 56.7391 64.0193C56.9514 63.7 57.1427 63.5509 57.1848 63.2105C56.9936 63.3597 56.6322 63.4877 56.4409 63.6368ZM87.9893 33.5044L87.8402 33.3131C83.0914 28.4057 75.1565 26.905 67.2507 32.1464C66.3156 32.7218 65.5295 33.4884 64.2119 34.3619C61.1455 31.2178 57.6351 30.2649 54.6789 30.4172C51.2122 30.5064 48.6612 31.5729 48.6612 31.5729C48.47 31.722 46.8331 32.3832 46.2594 32.8305C45.4944 33.427 44.7505 33.8532 43.8364 34.2584C43.6452 34.4075 42.71 34.9829 42.3697 34.9407C42.1995 34.9197 42.1784 35.0898 42.0083 35.0688C40.903 35.6231 39.9678 36.1984 38.9468 36.072C38.7766 36.051 38.6064 36.0299 38.4362 36.0088C38.2661 35.9878 38.0959 35.9667 38.117 35.7965C37.9468 35.7754 37.7766 35.7544 37.7977 35.5842C24.1983 28.1988 8.85354 37.7027 2.95755 51.8321C-1.19946 61.6844 1.36296 70.2952 4.56393 79.3306C5.09716 80.6061 5.60932 82.0517 6.41969 83.8799C7.5072 86.2607 9.89291 89.3206 12.0225 91.6576C13.3856 93.2086 14.6206 94.3982 15.5573 95.2053C15.7064 95.3965 15.8555 95.5878 16.0257 95.6088C16.345 95.8211 16.6643 96.0335 16.8134 96.2247C29.3285 103.994 39.0851 99.1547 47.5808 89.1484C48.1756 88.5309 48.43 87.8713 48.8546 87.2327C60.9386 90.111 71.5412 81.2294 75.1196 67.677C77.8829 66.2913 80.4338 65.2249 82.8568 63.797C91.4011 58.9802 93.9406 48.2365 91.8255 40.1994C91.6975 39.838 91.5695 39.4766 91.4414 39.1152C90.8012 37.3081 89.6716 35.2677 87.9893 33.5044ZM46.2987 84.1518C43.4594 93.1305 32.3641 99.0138 23.3643 96.3446C18.6837 95.074 12.6351 88.105 12.486 87.9138C12.1667 87.7014 11.4212 86.7452 11.2721 86.554C10.6546 85.9592 10.5266 85.5978 10.2705 84.875C9.58816 83.4082 8.54441 82.0695 7.88315 80.4326C7.22189 78.7957 5.75025 75.3307 5.3872 74.0762C2.84585 65.2953 2.11812 61.404 4.42755 53.9147C4.55396 52.8936 5.02071 51.9147 5.29622 51.0849C8.30905 44.8922 12.9621 40.8031 15.4271 39.0349C16.3623 38.4595 17.3185 37.714 18.2326 37.3088C24.8644 33.9831 33.7119 33.6961 39.6534 40.1335C40.2709 40.7283 40.8674 41.4933 41.3147 42.067C42.0602 43.0232 42.8057 43.9794 43.36 45.0847C44.6388 47.3164 46.1947 50.1008 46.9419 52.4394C47.7749 55.4799 48.4168 58.6694 48.6972 61.987C49.3423 67.9415 48.9453 73.9397 47.8675 79.8536C47.571 80.8536 46.7655 83.1729 46.2987 84.1518ZM65.7747 78.9605C64.6273 79.8551 63.4587 80.9199 61.9709 81.7724C59.1655 83.4985 54.8075 85.2052 50.1917 84.8065C50.5288 82.0837 50.694 77.9574 51.6907 75.4891C52.1996 74.1698 54.3681 73.4016 55.7279 72.1876C56.3016 71.7403 56.5561 71.0807 56.9807 70.4421C55.3438 71.1034 53.6858 71.9348 51.8787 72.575C50.023 68.0257 54.5091 66.6805 56.569 63.9982C56.7813 63.6789 56.9725 63.5298 57.0146 63.1895C56.6532 63.3175 56.462 63.4666 56.2707 63.6157C54.804 64.2981 52.7846 65.2575 51.1267 66.089C51.0391 64.0048 51.0164 62.7925 50.9937 61.5802C50.9078 60.8784 50.9921 60.1977 50.9272 59.3258C50.9483 59.1556 50.8203 58.7942 50.8413 58.624C50.6031 54.9661 49.2595 51.8624 47.1282 48.143C46.7019 47.3991 45.8916 45.5709 45.2951 44.8059C43.8462 42.5532 42.5885 40.1513 41.1817 37.5582C43.838 35.6409 47.1961 33.6376 50.5769 32.8467C52.8945 32.2697 54.7875 32.3313 56.6383 32.7332C58.9786 33.3685 60.8733 34.8125 62.5134 36.9162C67.0936 43.185 72.2491 50.389 72.6414 58.3856C73.2898 67.1049 72.1489 73.5294 65.7747 78.9605ZM87.5049 55.5605C85.6589 59.306 85.0447 61.4761 80.8568 63.2038C80.4954 63.3319 77.6252 64.186 77.2848 64.1439C76.7743 64.0807 76.0936 63.9964 75.3918 64.0823C75.455 63.5718 75.5182 63.0613 75.4113 62.5297C75.4518 60.8069 75.3221 59.063 75.852 57.5736C76.4031 55.9139 78.1032 54.7422 79.7384 52.6984C77.9103 53.5088 76.6559 53.8719 74.6576 54.6612C75.5489 53.0437 75.9946 52.235 76.6947 50.7666C75.6526 50.8104 74.7596 51.0454 74.4403 50.8331L74.2912 50.6418C73.8439 50.0681 73.5878 49.3453 73.1405 48.7715C70.5619 44.4783 67.8342 39.9939 65.1276 35.3392C67.1681 34.2096 68.8893 32.8676 70.8876 32.0783C73.4386 31.0119 75.9053 30.6261 78.4368 31.1123C80.2877 31.5142 82.2665 32.2775 83.9699 33.8707C90.5484 39.3502 91.1336 48.5801 87.5049 55.5605Z" fill="black"/>
<path d="M19.9574 75.0159C23.9734 71.8846 24.9701 69.4163 23.5196 65.7811C22.8794 63.974 21.8356 62.6353 19.7725 62.5526C17.5391 62.4489 15.711 63.2593 14.7354 65.5575C13.0385 69.4942 14.8716 72.8312 19.9574 75.0159Z" fill="black"/>
<path d="M57.1727 70.2912C58.1078 69.7158 59.2131 69.1615 60.1483 68.5861C59.9992 68.3949 59.701 68.0124 59.5519 67.8212C58.7448 68.7579 58.1289 69.5456 57.1727 70.2912C57.1727 70.2912 57.3218 70.4824 57.1727 70.2912Z" fill="black"/>
</g>
<defs>
<clipPath id="clip0_10970_664">
<rect width="94" height="110" fill="white"/>
</clipPath>
</defs>
</svg>
