<svg width="15" height="15" viewBox="0 0 15 15" fill="none" xmlns="http://www.w3.org/2000/svg">
<path d="M11.7584 0.510217C10.2911 2.1276 8.97718 3.89172 7.62325 5.61248C6.33267 3.9951 4.56189 1.49732 2.40093 2.17096C2.13748 2.25099 0.953616 2.5678 1.08034 3.04134C1.12369 3.20808 1.30711 3.27478 1.53387 3.29145C1.46051 3.28478 1.64392 3.31813 2.0441 3.65828C2.41093 3.96842 2.74775 4.31858 3.08456 4.66206C4.05833 5.65584 4.9654 6.70964 5.8658 7.77011C5.02209 8.78723 4.16838 9.79434 3.28465 10.7748C2.55766 11.5785 1.62391 12.7223 0.750192 13.2192C-0.967238 14.1996 0.606795 15.5502 1.98741 14.7599C4.11502 13.546 5.81578 11.5118 7.38981 9.57425C8.60702 11.0282 9.79421 12.5356 10.728 14.1529C11.1648 14.9066 13.8927 13.8361 13.6259 13.3759C12.3987 11.2483 10.7713 9.29079 9.15059 7.40995C10.8047 5.3457 12.372 3.19141 14.1461 1.23721C15.3634 -0.0933847 12.5588 -0.373509 11.7584 0.510217ZM1.56722 3.29812C1.91071 3.3148 2.34423 3.22476 2.56433 3.16473C2.00742 3.3248 1.68394 3.30813 1.56722 3.29812Z" fill="black" fill-opacity="0.5"/>
</svg>
