<svg width="283" height="295" viewBox="0 0 283 295" fill="none" xmlns="http://www.w3.org/2000/svg">
<path d="M38.6151 50.0935C43.2208 48.1118 46.2515 54.9932 46.8598 59.98C48.8368 75.964 54.4853 91.4689 63.2513 104.97C65.3695 108.237 67.9331 111.58 71.6589 112.723C74.733 113.67 78.0461 112.919 81.1745 112.168C89.9297 110.077 98.6958 107.976 107.451 105.885C111.22 104.981 115.533 103.62 116.923 99.9944C109.015 95.8133 107.408 85.1319 108.298 76.2144C108.744 71.7394 109.319 66.513 106.061 63.4207C103.769 61.2431 100.347 60.9491 97.3488 59.98C91.7763 58.1835 87.1054 53.5342 85.6499 47.8396C84.1943 42.1559 86.1821 35.6338 90.7878 32.008C98.6958 25.78 110.177 29.3295 120.117 27.8052C127.873 26.6184 134.727 22.2413 142.124 19.639C149.207 17.1456 156.756 16.2854 164.229 15.5559C171.323 14.8699 178.763 14.3255 185.314 17.1456C191.864 19.9547 197.078 27.2499 195.112 34.1095C194.058 37.7897 191.245 40.6316 189.039 43.7565C180.936 55.2545 181.208 70.7812 184.608 84.446C188.018 98.0999 194.177 111.002 196.958 124.798C201.846 149.003 196.904 176.996 212.503 196.105C217.467 202.181 224.169 206.765 228.536 213.287C234.662 222.455 235.346 234.116 235.455 245.146C235.499 249.708 235.444 254.445 233.489 258.56C229.024 267.99 216.913 270.461 206.506 270.929C200.836 271.191 195.014 271.18 189.669 269.242C176.602 264.516 169.769 247.966 174.429 234.846C176.884 227.932 181.859 222.128 184.26 215.192C186.661 208.256 185.205 198.849 178.372 196.192C176.222 195.354 173.864 195.321 171.551 195.354C162.285 195.463 153.019 196.334 143.895 197.967C143.015 198.13 142.092 198.305 141.386 198.849C140.06 199.873 139.876 201.767 139.81 203.433C139.311 215.552 138.811 227.768 140.897 239.713C143.308 253.563 149.152 266.792 149.967 280.827C150.293 286.413 148.468 293.577 142.928 294.296C140.734 294.579 138.561 293.664 136.628 292.597C118.455 282.569 112.502 259.039 113.143 238.254C113.567 224.676 115.75 209.999 108.657 198.424C104.768 192.077 98.5654 187.58 92.5259 183.257C87.7138 179.816 82.9016 176.365 78.0896 172.924C76.0365 171.454 73.9401 169.962 71.5286 169.178C66.1299 167.425 60.0469 169.679 55.93 173.588C51.8131 177.497 49.3364 182.821 47.3486 188.146C42.1997 201.909 39.6796 216.651 39.9512 231.351C40.049 236.403 40.4291 241.64 38.4956 246.311C36.5621 250.971 31.3915 254.771 26.6011 253.192C22.5168 251.842 20.4312 247.378 19.1712 243.251C8.76487 209.443 22.897 172.968 41.1569 142.698C45.0892 136.176 52.454 126.856 50.4227 118.744C48.6847 111.776 40.3314 105.711 37.1813 98.9927C33.5314 91.2076 31.7717 82.497 32.0324 73.9061C32.1628 69.2568 33.5314 52.282 38.6151 50.0935Z" fill="white"/>
<path d="M185.857 213.287C185.347 213.418 184.847 213.57 184.347 213.733C183 214.18 181.566 214.8 180.513 215.802C182.359 215.138 184.152 214.289 185.857 213.287Z" fill="#EB584A"/>
<path d="M234.847 215.094L217.554 207.451L217.391 209.672L212.992 217.011L207.31 219.439L203.226 221.301L193.211 216.706L190.05 212.176C190.05 212.296 189.996 212.405 189.843 212.438C189.148 212.568 188.442 212.71 187.747 212.851C185.205 214.495 182.457 215.922 179.589 216.793C179.459 216.836 179.339 216.771 179.263 216.673L174.397 220.909L165.935 237.078L165.718 252.419L176.363 273.031L189.159 280.751L203.965 283.756L221.801 280.838L237.367 268.044L242.375 250.078L244.004 228.204L234.847 215.094Z" fill="#EB584A"/>
<path d="M168.65 50.7142C168.716 51.5308 168.596 52.5761 167.803 52.7938C167.575 52.8592 167.336 52.8265 167.108 52.783C164.642 52.293 163.045 49.854 162.318 47.4368C161.59 45.0305 161.438 42.4391 160.417 40.1417C158.233 35.2202 153.095 33.2276 149.359 29.7869C144.72 25.5187 145.383 19.2035 152.954 19.4539C164.099 19.8241 167.988 42.6786 168.65 50.7142Z" fill="#BCBCBB"/>
<path d="M138.866 97.0001C139.333 96.5755 141.766 95.2035 142.19 94.7353C142.559 94.3216 143.102 94.1256 143.624 93.9296C146.719 92.7755 149.696 91.262 152.466 89.4545C152.542 92.819 152.618 96.1835 152.694 99.548C152.726 100.865 152.748 102.205 152.433 103.479C151.966 105.319 150.815 106.898 149.565 108.313C144.59 113.92 137.508 117.601 130.078 118.461C128.405 118.657 126.439 118.592 125.385 117.274C124.723 116.447 124.451 115.162 123.441 114.857C122.431 114.552 121.497 115.456 120.834 116.272C118.488 119.147 116.13 122.021 113.784 124.896C115.12 123.263 114.349 113.463 115.175 110.654C116.228 107.039 119.248 100.201 122.485 97.8821C127.971 93.9078 132.75 102.455 138.866 97.0001Z" fill="#BCBCBB"/>
<path d="M204.628 192.882C206.713 194.145 208.082 197.009 206.833 199.11C203.194 198.882 199.533 199.557 196.187 200.994C193.298 202.235 190.669 205.36 187.823 205.959C180.708 193.002 193.385 186.088 204.628 192.882Z" fill="#BCBCBB"/>
<path d="M127.123 241.509C127.601 244.318 128.079 247.139 128.546 249.948C128.883 251.951 129.231 253.965 129.198 256.002C129.144 260.738 127.123 265.202 125.146 269.503C124.712 270.45 124.245 271.441 123.419 272.084C121.953 273.216 119.737 272.857 118.292 271.702C116.847 270.548 116.022 268.795 115.392 267.053C112.98 260.335 112.785 253.051 112.622 245.908C112.524 241.422 109.515 221.508 116.837 220.168C122.615 219.09 126.407 237.263 127.123 241.509Z" fill="#BCBCBB"/>
<path d="M110.124 126.017C108.755 128.119 106.658 129.872 104.182 130.22C100.847 130.688 97.7402 128.609 94.9268 126.747C89.8758 123.393 84.5531 120.442 79.0458 117.916C77.21 117.078 75.2982 116.24 73.9404 114.748C72.5826 113.256 71.3877 107.758 72.474 106.059C73.6797 104.154 78.5679 104.644 80.8164 104.589C85.7806 104.459 89.0502 106.723 93.9709 107.453C97.6316 107.997 101.238 108.988 104.964 108.923C107.31 108.89 115.033 103.783 117.195 105.319C121.377 108.302 112.459 122.413 110.124 126.017Z" fill="#BCBCBB"/>
<path d="M48.5221 99.7113C49.163 101.813 53.1061 112.549 51.2051 113.637C49.3911 114.672 43.71 105.155 42.3087 103.62C40.1905 101.301 38.2135 98.8076 36.9535 95.9331C35.3458 92.2855 30.8705 65.8705 39.7451 67.482C43.2429 68.1135 47.0991 95.0947 48.5221 99.7113Z" fill="#BCBCBB"/>
<path d="M32.2392 211.381C32.174 214.985 32.1197 218.611 31.3593 222.139C30.0558 228.193 26.8296 243.317 25.2546 249.305C23.9945 249.316 20.4642 240.529 19.2041 240.54C17.9875 233.942 23.0278 226.505 24.6137 219.994C26.9057 210.521 26.5689 200.722 26.2974 191.053C26.1562 186.099 28.8935 156.951 33.1408 153.554C40.5056 147.674 32.7714 178.303 32.728 181.014C32.5759 191.14 32.4021 201.266 32.2392 211.381Z" fill="#BCBCBB"/>
<path d="M187.975 92.3834C189.463 97.2287 191.56 102.074 191.223 107.137C181.425 92.5141 180.317 73.9278 179.524 56.3324C179.404 53.7192 180.849 48.3731 184.325 51.4327C186.259 53.1312 184.575 62.2774 184.575 64.7381C184.553 74.0476 185.238 83.4442 187.975 92.3834Z" fill="#BCBCBB"/>
<path d="M189.007 203.368C188.106 199.774 187.28 196.17 186.379 192.588C186.303 192.283 185.944 191.88 185.651 191.815C184.597 191.586 184.575 190.835 184.554 190.019C184.532 189.213 184.456 188.407 184.38 187.373C183.782 187.71 183.37 187.797 183.326 187.982C182.979 189.387 182.707 190.803 182.403 192.207C177.45 195.136 167.706 196.747 163.915 196.617C159.418 196.464 154.921 196.138 150.424 195.964C148.175 195.876 145.796 196.399 144.091 193.938C143.7 194.82 143.341 195.332 143.265 195.876C142.939 198.315 142.559 200.754 142.461 203.204C142.342 206.34 142.581 209.498 142.472 212.644C142.255 218.938 141.799 225.231 141.647 231.525C141.516 236.718 140.789 241.966 142.342 247.106C142.592 247.933 142.57 248.859 142.624 249.752C142.82 253.301 142.994 256.84 143.178 260.389C143.33 263.307 143.83 265.997 145.242 268.763C147.23 272.65 148.305 277.027 149.696 281.219C150.912 284.899 149.359 287.948 145.774 289.058C145.503 288.22 145.362 287.294 144.916 286.565C144.015 285.073 142.994 283.636 141.907 282.264C141.397 281.622 140.712 281.687 140.245 282.46C140.387 282.863 140.506 283.211 140.615 283.538C140.832 283.777 141.038 284.017 141.223 284.267C141.766 284.997 142.57 286.151 142.635 287.185C143.233 288.209 143.765 289.134 144.373 290.18C139.289 291.258 134.923 290.637 130.447 288.155C130.98 286.532 131.36 284.812 132.12 283.266C132.739 282.014 132.229 281.458 131.327 280.794C131.132 280.838 130.936 280.881 130.741 280.925C130.306 281.796 129.872 282.656 129.35 283.483C128.796 284.376 128.079 285.443 127.058 285.835C126.059 286.216 125.136 285.509 124.614 284.681C124.082 283.821 123.886 282.776 123.843 281.763C123.539 280.391 123.658 280.075 124.201 278.66L124.256 278.486C124.299 278.366 124.332 278.235 124.375 278.116C124.56 277.56 124.723 276.994 124.821 276.428C125.016 275.197 124.973 273.913 125.277 272.715C125.863 270.33 126.656 267.989 127.297 265.605C128.101 262.567 129.09 259.584 128.872 256.339C128.351 248.619 126.45 241.193 124.364 233.8C122.702 227.899 122.659 227.91 127.21 223.783C127.797 223.25 128.438 222.792 129.014 222.259C129.524 221.78 129.969 221.224 130.437 220.713C128.753 221.333 127.525 222.433 126.178 223.358C124.842 224.273 124.093 226.004 122.453 226.494C122.311 226.331 122.159 226.157 122.018 225.993C124.234 223.838 126.45 221.682 128.655 219.526C128.492 219.352 128.318 219.166 128.155 218.992C126.059 220.811 123.952 222.629 121.464 224.774C119.422 218.187 117.706 211.937 116.011 205.665C116.37 205.404 116.728 205.153 117.564 204.565C113.687 203.368 113.187 200.21 112.513 197.259C111.927 194.668 111.633 192.011 111.275 189.376C110.634 184.803 110.048 180.23 109.418 175.657C109.309 174.884 109.146 174.024 107.799 174.383C107.321 178.651 107.256 182.996 107.864 187.275C108.494 191.619 109.57 195.898 110.536 200.58C106.474 198.413 102.694 196.606 99.3914 193.895C96.502 191.532 93.1998 189.648 90.4841 187.122C87.1493 184.008 84.2382 180.426 80.936 176.833C82.2503 175.483 83.5647 174.187 84.803 172.826C86.0196 171.476 87.8771 170.648 88.5072 168.808C88.3551 168.656 88.1921 168.503 88.0401 168.34C85.3353 170.833 82.6414 173.327 79.8171 175.929C78.8612 174.851 78.0465 173.937 77.0037 172.761C80.2516 170.017 83.304 167.436 86.3564 164.856C82.4133 166.38 79.5564 169.429 75.7654 172.02C75.244 171.454 74.7443 170.91 74.0274 170.137C77.0037 167.643 79.6651 165.422 82.3264 163.19C78.8504 164.398 76.5475 167.36 73.3213 169.004C71.6811 168.024 70.0843 167.066 68.4984 166.097C68.2485 165.945 68.0639 165.705 67.8575 165.52C72.398 158.236 72.398 158.236 71.4747 155.895C70.7252 157.441 70.106 158.715 69.476 159.978C68.5201 161.894 67.6945 163.854 65.5655 164.943C64.4032 165.531 63.4799 166.609 62.4914 167.502C61.7853 168.144 61.2531 169.07 60.4492 169.494C56.5496 171.552 53.5515 174.633 50.8468 177.987C48.4461 180.96 46.3497 184.193 44.0468 187.253C43.2538 188.309 42.2545 189.202 41.0162 190.519C40.8641 191.325 40.4839 192.664 40.3536 194.025C39.528 203.335 38.1159 212.601 39.6258 222.008C40.5056 227.518 39.9842 233.223 41.7222 238.635L41.7983 238.918C42.0698 240.54 41.8634 242.043 40.7989 243.382C40.3861 243.894 40.1146 244.514 39.7778 245.091C38.974 245.168 38.2897 245.168 38.0398 244.079C37.6162 242.228 36.5191 240.812 34.9549 239.723C33.9012 240.736 34.553 241.498 35.0092 242.184C36.1823 243.959 37.4315 245.69 36.128 248.031C33.7709 248.881 32.7498 249.011 30.8814 248.314C29.7626 247.89 28.7524 247.628 27.4814 247.846C25.6783 248.162 24.6137 247.084 24.8962 245.255C25.1677 243.534 25.8303 241.868 26.3626 240.192C26.5799 239.517 26.884 238.874 27.2859 237.862C23.4297 238.798 24.6898 242.478 22.8431 244.482C21.4527 242.565 20.9096 240.486 20.5837 238.362C20.2579 236.174 20.3013 233.789 21.6374 232.102C22.9083 230.49 23.6796 228.824 24.1141 226.93C24.592 224.872 25.7 223.369 27.6009 222.444C28.8719 221.834 30.1536 221.213 32.022 220.321C29.1869 219.689 27.8182 221.899 25.6783 222.008C25.8195 221.453 25.9064 221.094 26.0041 220.745C26.8731 217.62 28.1549 214.539 28.5351 211.36C29.1869 205.905 29.2629 200.373 29.5996 194.875C30.0559 187.503 30.3926 180.132 31.0769 172.782C31.5983 167.197 32.5434 161.644 33.3255 156.091C34.2488 149.525 36.2692 143.253 38.4852 137.025C40.3753 131.712 43.873 127.302 46.5778 122.468C48.9567 118.221 52.4544 114.639 56.8755 112.157C60.7317 109.99 64.577 107.747 68.9437 106.887C72.7891 106.124 76.7104 105.689 80.621 105.417C84.5858 105.134 88.3985 106.277 92.233 107.159C97.7077 108.411 103.237 109.293 108.831 107.638C111.503 106.843 114.208 106.135 117.152 105.33C116.619 106.331 116.109 107.061 115.805 107.877C115.055 109.892 114.197 111.906 113.752 113.997C112.959 117.753 112.34 121.542 111.84 125.353C111.275 129.643 110.895 133.966 110.536 138.277C110.417 139.704 110.406 141.206 111.579 142.535C112.774 140.727 112.318 138.778 112.405 136.982C112.492 135.011 113.23 133.617 114.936 132.67C116.793 131.636 118.618 130.547 120.454 129.48C117.738 129.491 115.62 131.113 113.024 132.311C113.371 129.915 115.131 129.36 116.38 128.369C117.684 127.335 119.335 126.758 120.161 125.07C118.086 126.279 116.011 127.487 113.849 128.75C113.469 123.981 118.824 107.638 122.116 103.479C122.637 105.177 123.137 106.723 123.593 108.28C124.799 112.429 125.972 116.599 127.221 120.736C127.373 121.226 127.938 121.597 128.307 122.021C128.514 121.912 128.72 121.793 128.916 121.684C127.254 114.193 125.201 106.81 122.626 99.2975C122.876 98.8946 123.256 98.2522 123.593 97.6969C125.375 98.2522 126.971 98.7095 128.536 99.243C133.206 100.833 137.15 99.6894 140.658 96.3141C141.375 95.6281 142.472 95.2144 143.472 94.953C147.61 93.8751 151.586 92.4596 154.693 89.4109C155.92 88.2132 157.31 86.7542 157.691 85.1863C158.94 80.0143 158.657 78.4247 156.832 72.7083C155.551 72.7845 154.388 72.9805 154.008 74.3742C154.845 75.6808 155.985 76.737 156.224 77.9673C156.843 81.2012 156.126 84.5112 153.834 86.7651C149.696 90.8373 144.677 93.1892 138.583 92.1221C136.748 91.7955 134.868 91.4906 133.022 91.5124C131.718 91.5341 130.143 91.7737 129.187 92.5359C126.548 94.6482 123.561 94.9422 120.541 94.4631C118.596 94.1473 116.174 93.8642 115.088 91.937C113.752 89.5742 112.35 87.1026 112.372 84.239C112.416 80.2103 112.416 76.1926 114.002 72.3272C115.186 69.4309 113.839 65.239 111.384 63.1593C111.177 64.553 111.242 64.5421 111.536 65.8814C111.959 67.8739 112.785 69.8011 111.959 71.9461C109.776 77.6298 110.254 83.3788 111.927 89.0516C112.763 91.8717 114.403 94.2126 117.336 95.3124C118.705 95.8241 120.085 96.2705 121.779 96.8585C120.671 98.6877 119.911 100.735 118.477 102.063C117.021 103.413 114.925 104.143 113.056 104.948C105.496 108.204 98.5116 107.932 91.6138 105.428C86.8017 103.685 81.7289 102.891 76.5366 103.838C73.4517 104.404 70.2798 104.654 67.26 105.449C64.1751 106.266 63.9035 106.516 62.3176 103.653C59.9387 99.3519 57.7662 94.9313 55.5828 90.5106C54.8876 89.106 54.2793 87.6035 53.9752 86.0791C52.7043 79.8075 51.5202 73.514 50.4014 67.2206C49.7822 63.7364 49.4889 60.1868 48.7829 56.7134C48.381 54.7209 47.6858 52.6957 46.6864 50.9209C44.9593 47.8286 40.9619 47.5346 38.9088 50.3765C37.6814 52.0859 36.7581 54.1438 36.1823 56.1799C33.8469 64.4659 32.7715 72.8499 33.4667 81.5605C33.8903 86.8739 35.0744 91.839 36.8993 96.7278C37.8552 99.2975 38.9197 101.834 40.1037 104.306C41.6136 107.464 44.1228 109.87 46.5669 112.309C47.5228 113.267 48.3484 114.334 49.3043 115.423C47.273 118.254 45.4481 120.932 43.5037 123.513C37.6053 131.363 34.2597 140.346 31.6961 149.71C30.7728 153.107 30.7293 156.766 28.7524 159.858C28.6112 160.087 28.6437 160.435 28.6003 160.718C28.1658 164.213 27.6335 167.708 27.3185 171.215C26.9818 175.025 26.7645 178.858 26.6342 182.68C26.4821 187.1 26.7211 191.554 26.3409 195.964C25.8521 201.549 24.907 207.091 24.1575 212.655C23.408 218.219 22.3652 223.685 20.4968 229.031C18.3461 235.194 17.4771 241.379 22.6259 246.736C22.8214 246.942 22.8975 247.28 23.1038 247.476C23.7882 248.129 24.3965 249.066 25.2112 249.338C28.4699 250.448 31.7939 251.374 35.3025 251.189C37.0948 251.102 38.7133 250.634 40.2775 249.632C43.7861 247.389 44.5356 241.803 43.6449 238.417C42.6455 234.595 41.6462 230.784 42.0264 226.777C42.0481 226.483 42.0372 226.189 42.0047 225.895C41.6571 222.683 40.9836 219.46 41.0053 216.248C41.0488 210.151 41.505 204.054 41.7657 197.945C41.9286 193.982 43.0475 190.4 45.7848 187.416C46.3171 186.839 46.7516 186.175 47.1644 185.5C51.9873 177.769 58.8307 172.271 66.6409 167.785C68.6396 168.58 69.8019 170.333 71.2031 171.835C76.0152 177.018 80.8708 182.157 85.7481 187.286C86.541 188.113 87.3992 189.082 88.4203 189.463C92.1135 190.846 94.8509 193.623 97.7729 196.007C101.488 199.034 105.692 201.103 109.874 203.237C111.318 203.977 112.253 204.652 112.741 206.199C114.871 213.058 117.032 219.918 119.302 226.734C122.561 236.511 124.451 246.507 124.918 256.818C125.179 262.654 123.876 268.077 121.801 273.401C114.36 271.92 112.579 266.868 112.817 260.27C113.828 259.355 114.881 258.462 115.837 257.493C116.793 256.524 118.01 255.74 118.281 254.161C116.587 255.501 114.903 256.851 113.1 258.277C112.492 256.176 113.513 255.13 114.664 254.161C115.957 253.073 117.271 252.027 118.575 250.96C118.444 250.775 118.303 250.601 118.173 250.416C116.543 251.537 114.914 252.659 113.089 253.911C112.948 250.448 113.002 247.313 112.655 244.209C111.84 236.74 111.655 229.238 112.122 221.78C112.405 217.196 111.492 212.753 111.481 208.235C111.481 207.102 110.764 206.253 109.331 206.667C109.287 207.08 109.189 207.385 109.244 207.647C110.569 213.864 110.699 220.146 110.428 226.472C110.254 230.599 110.297 234.737 110.526 238.863C110.851 244.863 111.362 250.851 110.851 256.862C110.786 257.678 110.156 258.68 110.449 259.235C111.145 260.52 110.938 261.696 110.656 262.948L110.602 262.861L110.721 263.122C110.906 267.238 112.589 270.701 115.24 273.76C117.206 274.479 119.172 275.197 120.834 275.796C120.639 278.214 120.443 280.413 120.28 282.591C120.769 284.115 121.323 285.596 122.322 286.87C123.224 288.013 124.256 289.058 125.364 290.006C125.581 290.006 125.809 290.093 126.037 290.343C128.221 292.662 131.208 292.869 133.978 293.631C135.64 293.904 137.313 294.056 138.942 294.143C142.32 294.317 146.763 294.285 149.348 291.769C151.999 288.851 152.955 284.224 151.608 280.544C151.032 278.987 150.652 277.353 150.152 275.764C149.576 273.924 149.001 272.073 148.36 270.254C147.936 269.057 147.154 267.957 146.926 266.737C146.339 263.547 145.85 260.324 145.557 257.09C145.231 253.464 145.144 249.806 144.971 246.169C144.732 241.052 144.351 235.934 144.362 230.828C144.362 226.603 144.938 222.389 145.068 218.154C145.286 211.501 145.34 204.837 145.459 198.098C146.003 197.989 146.372 197.847 146.741 197.858C150.76 197.989 154.801 197.956 158.799 198.337C166 199.023 172.887 197.891 179.622 195.419C180.697 195.027 181.827 194.809 182.924 194.515C183.37 195.365 183.565 196.094 184.021 196.562C186.02 198.577 186.618 201.07 186.791 203.792C186.846 204.663 186.954 205.774 188.008 206.264C189.301 205.491 189.29 204.511 189.007 203.368ZM131.284 93.0258C133.869 93.4722 136.346 93.8969 138.866 94.3324C136.335 98.2304 132.001 98.9382 127.091 96.325C128.536 95.1926 129.969 94.0602 131.284 93.0258ZM41.0813 100.528C42.4826 99.4281 43.9816 98.2522 45.4807 97.0763C45.4046 96.9347 45.3177 96.7932 45.2417 96.6516C43.8187 97.3811 42.3848 98.1106 40.9727 98.8293C39.3216 96.4447 39.3325 96.4012 41.0813 94.7026C42.0155 93.7989 42.9062 92.8407 43.8187 91.9043C42.3848 92.8081 40.951 93.7118 39.2021 94.8224C38.6155 92.4923 37.8878 90.3691 37.5727 88.1914C36.7906 82.7364 35.9108 77.2596 36.3996 71.7175C36.845 66.6327 37.4207 61.5478 38.105 56.4848C38.3005 55.0584 38.9197 53.6321 39.6149 52.3581C41.0162 49.7994 43.8296 49.6905 45.5458 52.0859C46.8385 53.8934 47.1644 56.0493 47.4685 58.216C48.7829 67.7759 50.0103 77.3467 52.2589 86.7433C53.28 91.0115 55.5285 94.7462 57.3643 98.6442C58.6895 101.464 60.5144 104.045 62.2741 106.995C58.6786 109.151 54.9419 111.405 51.2052 113.648C47.4468 109.63 42.8737 106.364 41.0813 100.528ZM38.735 247.443C39.1913 246.485 39.5171 245.81 39.8321 245.135C40.4405 244.732 41.0596 244.318 41.9721 243.719C41.4724 245.538 40.951 246.877 38.735 247.443Z" fill="black"/>
<path d="M163.415 65.9687C164.795 64.6294 165.935 63.5188 167.217 62.2666C167.369 64.3899 164.078 65.0105 165.468 67.5475C166.5 66.6764 167.369 65.9469 168.227 65.2282C168.347 65.3154 168.466 65.4133 168.586 65.5005C168.032 66.3389 167.489 67.1772 166.804 68.2225C167.521 68.5927 168.075 68.9629 168.673 69.1807C170.617 69.8558 172.583 70.4982 174.549 71.097C175.396 71.3584 176.265 71.5434 177.134 71.6523C180.904 72.1314 183.489 69.7142 183.185 65.936C182.979 63.3772 182.587 60.8403 182.37 58.2924C182.272 57.1274 182.327 55.9297 182.446 54.7537C182.49 54.3835 182.957 53.8391 183.304 53.7847C183.674 53.7302 184.369 54.0569 184.488 54.3727C184.89 55.4615 185.281 56.6156 185.357 57.7698C185.575 61.1125 185.672 64.4552 185.738 67.7979C185.901 77.1182 187.28 86.2644 189.952 95.171C193.2 106.027 195.568 117.089 198.327 128.064C200.022 134.826 202.433 141.413 204.215 148.164C205.616 153.456 207.463 158.682 207.539 164.268C207.55 165.139 207.799 166.01 207.93 166.892C208.082 167.861 208.375 168.841 208.342 169.81C208.212 173.85 207.854 177.878 207.832 181.918C207.799 187.416 208.006 192.904 208.114 198.457C210.787 199.143 213.546 198.25 215.555 200.482C217.434 202.573 218.032 204.892 217.576 207.451C217.858 207.701 217.999 207.941 218.151 207.952C224.539 208.431 229.763 211.36 234.869 215.105C239.529 218.524 241.756 223.337 244.015 228.204C244.819 229.924 244.906 232.026 245.101 233.964C245.775 240.573 245.329 247.149 244.048 253.661C242.994 258.985 240.311 263.569 237.389 268.033C235.618 270.723 233.565 273.096 230.546 274.512C229.709 274.904 228.851 275.699 228.503 276.526C228.123 277.441 227.58 277.854 226.809 278.344C221.584 281.709 215.729 282.711 209.7 283.135C208.723 283.201 207.712 283.135 206.757 283.331C202.694 284.17 198.675 283.658 194.786 282.569C188.996 280.947 183.402 278.758 178.612 274.958C177.841 274.348 177.026 273.76 176.385 273.02C171.986 267.913 168.314 262.36 166.109 255.904C163.958 249.621 163.969 243.393 165.957 237.067C167.814 231.155 170.921 225.896 174.419 220.898C177.841 216.02 182.892 213.428 188.877 212.165C188.833 211.556 188.747 210.902 188.747 210.26C188.714 207.625 189.67 205.545 191.908 203.988C195.014 201.822 198.349 200.177 201.955 199.121C203.324 198.718 204.834 198.827 206.518 198.686C206.42 195.332 206.246 192.033 206.246 188.734C206.257 183.224 206.387 177.715 206.431 172.206C206.442 170.844 206.409 169.462 206.192 168.122C205.67 164.921 205.105 161.731 204.421 158.563C202.922 151.648 200.402 145.039 198.208 138.332C197.013 134.706 196.491 130.852 195.525 127.139C192.407 115.14 189.029 103.207 186.139 91.1532C184.793 85.5349 184.358 79.6879 183.532 73.9498C183.391 72.9916 183.38 72.0225 183.283 70.6942C182.435 71.1515 181.794 71.3475 181.36 71.7721C179.774 73.3073 177.895 73.5578 175.874 73.144C171.073 72.1532 166.239 71.3366 162.231 68.0483C160.743 66.8288 158.853 66.0449 157.061 65.2609C155.094 64.4007 153.519 63.1268 152.357 61.3629C149.891 57.6282 146.535 55.2655 142.418 53.3927C139.116 51.8901 136.4 49.0374 133.565 46.6202C132.957 46.0976 132.728 44.8563 132.75 43.9526C132.783 42.3847 133.076 40.8167 133.391 39.2815C134.412 34.1749 135.498 29.0683 136.541 23.9617C136.617 23.5806 136.585 23.1886 136.628 22.5353C135.9 22.6333 135.27 22.6987 134.651 22.8076C134.075 22.9055 133.358 23.3411 132.946 23.1342C130.849 22.0563 129.166 23.2649 127.373 23.9508C124.256 25.1376 121.138 26.3245 118.021 27.5331C115.913 28.3606 114.479 29.8958 113.404 31.8884C112.991 32.6614 112.253 33.2603 111.242 34.4362C110.688 39.8586 110.026 45.9342 109.472 52.0099C109.309 53.7738 109.483 55.5595 109.428 57.3234C109.309 61.1016 108.244 64.7056 107.169 68.2879C106.495 70.52 102.824 73.0896 100.543 72.9045C99.9127 72.85 99.1958 72.5234 98.7179 72.0988C97.6968 71.1841 96.6974 70.2151 95.8719 69.1263C91.994 64.0197 88.3876 58.7606 86.0087 52.7394C85.433 51.2804 84.7378 49.8649 84.01 48.4821C82.3154 45.2483 83.217 42.4173 85.2049 39.7062C86.0196 38.5955 86.7908 37.4632 87.5729 36.3308C88.5397 34.9371 89.6585 33.8156 91.2988 33.1187C93.732 32.0735 95.9696 30.5382 98.4354 29.6345C102.422 28.1646 106.517 28.2517 110.493 29.8958C111.525 30.3205 112.372 30.3313 113.143 29.4276C113.393 29.1336 113.762 28.9268 114.012 28.6328C116.522 25.6494 120.074 24.419 123.517 23.0471C125.885 22.0998 128.34 21.3812 130.762 20.5863C131.219 20.4339 131.827 20.129 132.164 20.2924C134.227 21.305 135.965 20.129 137.834 19.65C139.441 19.2362 141.125 19.0293 142.787 18.9204C148.153 18.5394 153.552 17.7772 158.961 19.5846C159.483 18.8551 160.037 18.1909 160.46 17.4505C162.6 13.7703 165.859 12.4201 169.998 12.1697C175.82 11.8213 181.599 11.7233 187.28 13.1714C189.822 13.8247 192.364 14.7285 194.667 15.9697C197.513 17.4941 198.816 20.619 197.98 23.7548C196.937 27.6419 195.796 31.5182 193.58 34.9806C191.679 37.9531 190.093 41.1434 188.171 44.1159C186.411 46.8271 184.195 49.2552 182.555 52.0426C181.425 53.9589 179.97 55.1022 178.047 55.9079C176.895 56.3979 175.918 56.3108 174.68 55.8861C169.237 54.0024 166.207 50.0173 164.664 44.7365C162.894 38.6935 161.264 32.607 159.711 26.4987C159.385 25.2139 159.668 23.7657 159.668 22.4591C156.376 20.1508 146.198 19.8351 138.257 21.7623C138.757 24.3319 137.78 26.7273 137.323 29.1881C136.498 33.5325 135.672 37.8878 134.771 42.2213C134.39 44.0506 134.836 45.4116 136.291 46.642C139.083 48.9938 141.81 51.4002 145.351 52.5761C148.501 53.6214 150.706 55.8643 152.553 58.4449C154.215 60.7641 156.17 62.5062 158.907 63.4861C160.395 64.0414 161.775 65.054 163.415 65.9687ZM190.115 213.581C187.671 214.8 185.162 215.508 183.37 217.043C178.373 221.322 173.626 225.906 170.769 232.037C168.912 236.022 167.38 240.214 167.76 244.58C168.227 249.915 168.835 255.359 171.942 260.052C172.257 260.531 172.344 261.163 172.605 261.685C173.496 263.417 174.288 265.235 175.364 266.846C178.438 271.452 182.566 274.664 187.693 276.972C193.928 279.771 200.141 281.284 207.05 280.707C215.132 280.021 222.355 277.343 228.905 272.726C236.737 267.217 240.8 259.41 242.364 250.078C243.157 245.375 242.918 240.682 242.983 235.956C243.048 230.861 240.876 226.625 238.682 222.357C237.932 220.887 236.976 219.395 235.76 218.317C231.599 214.648 226.961 211.719 221.519 210.314C220.128 209.955 218.662 209.868 217.38 209.672C216.62 210.99 215.881 211.948 215.457 213.037C213.274 218.633 208.462 220.637 203.215 221.29C199.294 221.78 195.394 220.898 193.2 216.695C192.581 215.486 191.223 214.659 190.115 213.581ZM177.547 13.5852L177.493 13.8574C175.635 14.0098 173.756 14.3583 171.91 14.2603C168.912 14.1078 166.522 14.6305 164.588 17.3416C163.035 19.5302 161.753 21.6316 162.144 24.3319C163.328 32.6614 165.816 40.6317 169.248 48.297C170.508 51.1171 172.844 52.5543 175.929 52.9789C177.743 53.2294 179.046 52.9136 180.382 51.5199C184.575 47.1319 187.758 42.0907 190.441 36.6901C190.745 36.0695 191.06 35.4488 191.462 34.8935C193.83 31.6379 194.982 27.8597 195.905 24.0488C196.524 21.501 195.84 19.1273 193.407 17.6683C192.32 17.015 191.169 16.3399 189.952 16.0677C185.846 15.1313 181.697 14.3909 177.547 13.5852ZM96.4259 55.6792C96.6105 55.897 96.8061 56.1148 96.9907 56.3325C95.8502 57.3996 94.677 58.4449 93.569 59.5555C92.7761 60.3503 92.6674 61.2649 93.3735 62.2122C95.0137 64.4225 96.5236 66.7308 98.3051 68.8214C100.782 71.7285 104.638 70.8357 105.833 67.1555C107.136 63.1159 107.766 58.9675 107.81 54.6884C107.853 50.6706 108.342 46.6638 108.69 42.6569C108.929 39.913 109.309 37.1801 109.526 34.4362C109.624 33.2385 109.461 31.8557 108.136 31.4855C103.856 30.2878 99.7932 30.8649 96.1 33.4563C94.9703 34.2402 93.8189 35.0133 92.7869 35.917C91.1684 37.3325 89.539 38.7698 88.116 40.3703C86.4758 42.2213 85.7697 44.7365 86.1716 46.9904C86.8234 50.5291 88.2464 53.9153 90.2016 57.1056C92.8195 55.6139 93.9709 52.489 97.4687 51.5199C92.4936 55.7446 91.277 57.4649 91.994 59.2833C93.493 58.0638 94.9594 56.8769 96.4259 55.6792ZM198.153 218.862C199.348 218.96 200.359 218.884 201.271 219.145C204.345 220.038 206.854 218.622 209.364 217.294C211.134 216.357 211.536 215.182 210.765 213.352C210.319 212.285 209.537 211.36 208.918 210.369C208.495 209.705 208.006 209.03 208.929 208.18C211.786 208.453 211.504 211.632 213.057 213.156C214.665 210.881 215.544 208.594 215.696 206.525C215.903 203.553 214.154 201.092 211.319 200.842C205.768 200.363 200.337 200.765 195.351 203.727C192.005 205.72 191.755 206.133 192.766 209.868C193.026 210.815 193.244 211.795 193.646 212.677C194.221 213.962 194.753 215.323 196.024 216.292C196.654 214.06 196.253 211.567 198.914 210.162C199.033 210.957 199.37 211.665 199.153 211.98C197.762 214.027 198.099 216.281 198.153 218.862Z" fill="black"/>
<path d="M131.631 67.9175C133.923 67.9828 135.976 68.6252 137.812 70.1931C139.844 71.9353 140.224 74.0149 139.376 76.2906C137.823 80.4717 135.585 84.2826 132.392 87.4402C130.806 89.0081 129.731 88.9101 128.09 87.353C127.124 86.4384 126.798 84.8487 125.19 84.5983C125.071 84.5765 124.886 84.2934 124.897 84.1301C124.94 81.4734 122.616 80.1123 121.551 78.0653C120.226 75.5175 120.389 73.71 122.398 71.7175C124.962 69.1805 127.971 67.7759 131.631 67.9175Z" fill="black"/>
<path d="M150.282 40.1743C153.356 40.2505 155.235 43.2775 153.834 46.0322C153.356 46.9686 152.628 47.8179 151.879 48.5692C150.999 49.462 149.891 49.854 148.664 49.2225C147.393 48.5692 146.263 47.7199 146.448 46.0866C146.6 44.7365 146.806 43.3537 147.273 42.0907C147.729 40.7949 148.87 40.1743 150.282 40.1743Z" fill="black"/>
<path d="M118.629 46.5874C121.04 46.5874 122.474 47.8831 122.453 50.039C122.431 52.1078 120.215 55.0694 118.651 55.1238C116.967 55.1782 114.273 52.4344 114.24 50.6378C114.197 48.3077 116.055 46.5874 118.629 46.5874Z" fill="black"/>
<path d="M223.974 59.8493C219.259 52.7719 214.936 46.2607 210.559 39.6842C211.449 38.726 212.166 38.922 212.775 39.7713C214.274 41.851 215.783 43.9197 217.196 46.0538C219.194 49.1026 221.139 52.1839 223.04 55.2871C224.072 56.9966 224.006 57.0292 223.974 59.8493Z" fill="#EB584A"/>
<path d="M262.155 238.221C263.079 238.177 263.665 238.003 264.143 238.156C266.576 238.929 268.988 239.789 271.399 240.616C275.299 241.956 278.536 244.34 281.491 247.138C282.099 247.716 282.99 248.216 282.501 249.49C281.567 249.85 280.904 249.24 280.307 248.63C276.298 244.591 271.486 242.108 265.968 240.889C265.023 240.682 264.089 240.279 263.242 239.8C262.829 239.582 262.644 238.972 262.155 238.221Z" fill="#EB584A"/>
<path d="M232.99 32.5306C232.37 32.3673 232.055 32.3673 231.827 32.2148C226.939 29.0681 221.323 28.0446 215.805 26.7598C214.73 26.5094 213.404 26.6727 212.992 24.9415C213.47 24.8435 213.926 24.6148 214.339 24.6801C220.041 25.5947 225.723 26.6727 230.85 29.5363C231.882 30.1134 233.207 30.5816 232.99 32.5306Z" fill="#EB584A"/>
<path d="M270.063 268.676C267.999 266.607 261.58 254.586 261.449 252.572C262.59 252.038 263.046 252.931 263.47 253.639C264.925 256.089 266.326 258.571 267.717 261.065C268.575 262.611 269.401 264.179 270.172 265.768C270.639 266.716 271.16 267.728 270.063 268.676Z" fill="#EB584A"/>
<path d="M260.96 218.023C263.611 216.575 265.881 215.269 268.217 214.071C272.051 212.111 275.918 210.227 279.774 208.333C280.47 207.984 281.186 207.614 281.925 207.462C282.218 207.407 282.718 207.875 282.935 208.224C283.022 208.365 282.664 209.051 282.425 209.106C277.634 210.151 273.757 213.156 269.433 215.203C267.402 216.172 265.468 217.337 263.491 218.415C262.546 218.938 262.546 218.949 260.96 218.023Z" fill="#EB584A"/>
<path d="M18.9541 80.3411C18.7586 80.6895 18.6717 80.9835 18.5631 80.9944C12.1759 81.5715 6.48396 84.838 0.0424805 85.5348C0.444394 85.2735 0.813719 84.9142 1.24822 84.7509C5.48461 83.2047 9.721 81.6368 13.99 80.1887C15.0762 79.8185 16.3037 79.764 17.466 79.7205C17.9548 79.7096 18.4545 80.1125 18.9541 80.3411Z" fill="#EB584A"/>
<path d="M4.17041 104.121C4.95251 103.185 5.66944 102.172 6.52758 101.312C9.21063 98.6007 11.948 95.944 14.6636 93.2437C15.348 92.5686 15.9237 91.6322 17.0642 92.525C15.9128 95.0402 8.87389 101.867 4.6375 104.589C4.47456 104.426 4.32249 104.273 4.17041 104.121Z" fill="#EB584A"/>
<path d="M208.201 13.8029C208.375 13.498 208.462 13.0951 208.723 12.91C213.785 9.0229 218.868 5.14668 223.963 1.314C225.016 0.519159 225.223 0.660708 225.755 1.90197C224.202 2.97991 222.659 3.97074 221.193 5.07046C217.576 7.77075 213.991 10.5364 210.374 13.2476C209.852 13.6395 209.233 13.9226 208.668 14.2493C208.505 14.1077 208.364 13.9553 208.201 13.8029Z" fill="#EB584A"/>
<path d="M22.2673 70.2803C21.1593 69.7359 20.0948 69.0173 18.9325 68.6689C15.7498 67.7107 12.5128 66.905 9.29746 66.0339C7.68981 65.5984 6.08215 65.1846 4.49622 64.6947C4.10517 64.5749 3.79016 64.1938 3.02979 63.6385C3.96396 63.4752 4.43105 63.2574 4.81124 63.3554C9.82973 64.6838 14.8374 66.0339 19.8341 67.4603C20.7466 67.7216 21.5721 68.3096 22.3759 68.8431C22.6149 68.9955 22.6258 69.4964 22.7344 69.8339C22.5715 69.9755 22.4194 70.1279 22.2673 70.2803Z" fill="#EB584A"/>
<path d="M125.342 63.4424C126.634 61.0579 128.568 60.263 130.958 60.4155C131.881 60.4808 132.761 60.557 132.75 61.9507C131.436 62.114 130.1 62.2011 128.796 62.4516C127.623 62.6911 126.493 63.1158 125.342 63.4424Z" fill="black"/>
<path d="M155.92 37.7897C154.964 37.8441 154.562 37.9856 154.236 37.8768C152.791 37.365 151.336 36.8424 149.945 36.1891C149.543 36.004 149.359 35.3725 149.065 34.9478C149.456 34.7409 149.858 34.3272 150.228 34.3599C152.433 34.545 154.258 35.4378 155.92 37.7897Z" fill="black"/>
<path d="M119.02 41.0671C118.781 41.6333 118.705 42.2975 118.347 42.5371C116.891 43.4952 115.348 44.3227 113.828 45.172C113.708 45.2374 113.469 45.1067 113.209 45.0523C112.546 43.9525 113.6 43.5061 114.143 42.9508C115.511 41.5353 116.717 41.0889 119.02 41.0671Z" fill="black"/>
<path d="M32.9779 224.306C30.2189 225.743 27.4598 227.18 24.7007 228.628C25.0917 227.202 25.07 227.158 28.307 225.558C29.7626 224.828 31.3268 224.328 32.8476 223.718C32.8802 223.914 32.9236 224.11 32.9779 224.306Z" fill="black"/>
<path d="M186.378 101.551C185.032 102.575 183.641 103.555 182.338 104.633C181.034 105.722 179.807 106.908 178.264 108.302C179.264 105.634 182.816 102.673 186.378 101.551Z" fill="black"/>
<path d="M180.828 101.726C182.109 99.8746 183.532 98.1761 185.911 97.7405C184.217 99.0689 182.522 100.397 180.828 101.726Z" fill="black"/>
<path d="M147.208 79.2087C147.632 79.8511 147.99 80.1778 148.055 80.5698C148.099 80.7984 147.577 81.3537 147.458 81.3211C147.067 81.2013 146.534 80.9182 146.458 80.5915C146.382 80.2976 146.817 79.8729 147.208 79.2087Z" fill="black"/>
<path d="M144.308 81.8436C143.699 82.3335 143.373 82.8126 143.004 82.8344C142.689 82.8562 142.341 82.3662 142.016 82.1049C142.298 81.8 142.548 81.2992 142.874 81.2447C143.221 81.1903 143.645 81.5496 144.308 81.8436Z" fill="black"/>
<path d="M117.488 83.7383C117.869 84.3154 118.401 84.7945 118.303 85.0231C118.14 85.4369 117.597 85.7091 117.217 86.0357C116.989 85.6764 116.565 85.3062 116.587 84.9578C116.63 84.6094 117.076 84.2718 117.488 83.7383Z" fill="black"/>
<path d="M145.785 85.328C145.948 85.9922 146.187 86.3951 146.068 86.6346C145.937 86.9068 145.481 87.2117 145.21 87.1681C144.96 87.1355 144.547 86.5257 144.623 86.3951C144.808 86.0466 145.22 85.818 145.785 85.328Z" fill="black"/>
<path d="M118.249 89.8139C118.726 89.4328 118.998 89.0517 119.248 89.0735C119.552 89.0952 119.965 89.3892 120.073 89.6723C120.149 89.8683 119.748 90.4999 119.65 90.4781C119.237 90.3801 118.868 90.1296 118.249 89.8139Z" fill="black"/>
<path d="M43.9377 91.8172C44.5026 91.1639 45.0674 90.5215 45.6323 89.8682C45.7952 91.3599 44.9262 91.6648 43.916 91.7846L43.9377 91.8172Z" fill="black"/>
<path d="M176.7 266.933C178.242 264.081 188.866 255.533 191.907 254.684C186.769 258.822 181.87 262.763 176.7 266.933Z" fill="black"/>
<path d="M180.458 268.697C182.381 265.67 190.517 259.54 193.265 258.974C189.138 262.23 184.901 265.562 180.654 268.893L180.458 268.697Z" fill="black"/>
<path d="M183.315 255.207C182.87 255.697 182.49 256.274 181.979 256.677C179.6 258.517 177.189 260.313 174.43 262.393C175.147 260.03 177.069 259.377 178.46 258.288C179.959 257.112 181.664 256.198 183.283 255.174L183.315 255.207Z" fill="black"/>
<path d="M183.282 255.174C183.858 254.597 184.434 254.02 185.411 253.04C185.042 254.695 184.249 255.043 183.315 255.207L183.282 255.174Z" fill="black"/>
<path d="M163.937 30.5381C163.969 30.1897 163.893 29.7759 164.067 29.5146C164.382 29.0355 164.795 28.5673 165.262 28.2298C168.434 25.8779 168.249 22.7857 167.217 19.5083C166.967 18.7134 166.717 17.9186 166.315 16.612C169.77 18.169 169.324 21.0653 169.574 23.3192C169.987 27.0756 167.054 28.894 164.567 30.8321C164.338 30.7232 164.143 30.6361 163.937 30.5381Z" fill="black"/>
<path d="M165.718 21.7622C164.979 22.4373 164.23 23.1233 163.317 23.9617C163.1 22.1215 164.588 22.0453 165.121 21.1743C165.316 21.3594 165.523 21.5662 165.718 21.7622Z" fill="black"/>
<path d="M116.739 48.6127C117.26 48.6127 117.575 48.8958 117.575 49.364C117.575 49.8104 117.086 50.4528 116.75 50.4746C116.38 50.4855 115.794 49.8866 115.794 49.4946C115.772 48.9829 116.185 48.6127 116.739 48.6127Z" fill="white"/>
<path d="M149.131 42.1995C149.652 42.1995 149.967 42.4826 149.967 42.9508C149.967 43.3972 149.478 44.0396 149.142 44.0505C148.772 44.0614 148.186 43.4625 148.186 43.0705C148.175 42.5697 148.577 42.1995 149.131 42.1995Z" fill="white"/>
<path d="M126.352 73.1874C128.122 72.2837 130.045 71.8264 131.924 71.8264C132.706 71.8264 133.478 71.9026 134.227 72.066C134.444 72.1095 134.662 71.968 134.705 71.7502C134.749 71.5324 134.607 71.3147 134.39 71.2711C133.575 71.0969 132.75 71.0207 131.913 71.0207C129.893 71.0207 127.84 71.5107 125.972 72.4688C125.776 72.5668 125.689 72.8172 125.798 73.0132C125.906 73.2092 126.145 73.2854 126.352 73.1874Z" fill="white"/>
<path d="M221.584 217.337C228.568 220.843 233.305 228.607 233.294 236.435C233.294 236.577 233.294 236.718 233.294 236.86C233.283 237.459 233.761 237.96 234.358 237.97C234.956 237.981 235.455 237.502 235.466 236.903C235.466 236.74 235.466 236.588 235.466 236.424C235.455 227.725 230.307 219.308 222.562 215.377C222.029 215.105 221.378 215.323 221.106 215.856C220.834 216.412 221.052 217.065 221.584 217.337Z" fill="white"/>
</svg>
