<svg width="128" height="121" viewBox="0 0 128 121" fill="none" xmlns="http://www.w3.org/2000/svg">
<path d="M41.3154 11.1834C41.8254 9.7634 42.3354 8.3434 42.8454 6.9234C42.9054 6.7534 42.9754 6.5634 43.1254 6.4534C43.6054 6.1134 44.1254 6.8434 44.2654 7.4134C44.9354 10.0634 45.6054 12.9134 44.6354 15.4734C44.4854 15.8634 44.1854 16.2934 43.7854 16.2234C43.5854 16.1834 43.4354 16.0234 43.2954 15.8634C41.8554 14.2034 40.7354 12.2834 39.9854 10.2134" fill="white"/>
<path d="M89.3354 31.6434C90.0254 30.9334 90.5354 30.0534 90.7854 29.0934C90.8454 28.8834 90.8954 28.6534 91.0654 28.5134C91.4454 28.2034 91.9855 28.6034 92.3055 28.9734C93.2955 30.1234 94.3054 31.2934 94.9254 32.6834C95.5454 34.0734 95.7255 35.7234 95.0555 37.0934C94.8855 37.4334 94.5754 37.7934 94.1954 37.7134C93.9854 37.6734 93.8254 37.4934 93.6954 37.3334C92.1554 35.4934 90.7354 33.5434 89.4554 31.5134" fill="white"/>
<path d="M28.5755 75.8534C26.4955 70.0034 31.2955 63.2534 28.9255 57.5134C27.9455 55.1334 25.8855 53.3934 23.8955 51.7534C26.5555 49.7734 28.8855 47.3434 30.7655 44.6134C31.0855 46.7034 33.2455 48.1334 35.3655 48.2634C37.4755 48.3934 39.5155 47.5234 41.3855 46.5334C43.6755 45.3134 46.0655 43.5834 46.4855 41.0234C46.7455 39.4534 46.2155 37.7634 46.8455 36.3034C47.2655 35.3434 48.1255 34.6634 48.9555 34.0234C51.7055 31.8934 54.4655 29.7534 57.2155 27.6234C58.7555 26.4334 60.4255 25.1934 62.3655 25.1034C66.6655 24.9234 69.1255 30.1734 73.1755 31.6434C74.0755 31.9734 75.0455 32.1034 75.8755 32.5634C78.0655 33.7834 78.5255 36.6834 79.9455 38.7434C81.7355 41.3334 85.2455 42.8034 85.9355 45.8734C86.1255 46.6934 86.0755 47.5634 86.2755 48.3834C87.2055 52.1834 92.7055 53.2934 93.8555 57.0334C94.9055 60.4534 91.6855 63.6634 88.5455 65.3834C80.7555 69.6434 71.6255 70.6634 62.7455 71.0434C53.8655 71.4234 44.8655 71.2834 36.2655 73.5434" fill="white"/>
<path d="M44.8457 44.3934C45.5257 44.1334 46.2357 43.8534 46.6857 43.2934C47.6257 42.1134 47.0257 40.4034 47.0057 38.8934C46.9657 36.4834 48.7357 34.1634 51.0757 33.5634C51.2557 33.5134 51.4657 33.4834 51.6257 33.5634C51.7957 33.6534 51.8857 33.8434 51.9657 34.0234C53.9857 38.6134 56.0157 43.2734 56.7557 48.2334C57.0457 50.2034 57.0857 52.3834 55.9257 53.9934C55.1557 55.0534 53.9657 55.7334 52.7657 56.2434C47.8857 58.3134 41.4257 57.9234 38.3057 53.0634C34.7357 47.5334 40.6157 45.9934 44.8457 44.3934Z" fill="#BCBCBB"/>
<path d="M17.7354 109.563L18.5654 118.303L105.945 115.943L104.685 107.783L17.7354 109.563Z" fill="#EB584A"/>
<path d="M35.5957 50.8334L62.1057 53.5634L83.3257 52.5434L93.8357 50.8034L103.936 71.9334L103.836 80.6034L92.9657 85.0634L59.0757 88.2534L29.3157 86.3234L18.0957 81.0334L27.7657 53.8334L30.1857 55.2134V60.5234L33.6657 50.0434L35.5957 50.8334Z" fill="#EB584A"/>
<path d="M93.8355 50.8034C95.4055 51.1734 96.2255 52.3034 96.7555 53.7134C98.2755 57.7434 99.7555 61.7834 101.305 65.8034C102.105 67.8734 103.015 69.9134 103.935 71.9434C104.945 74.1934 105.345 76.5334 104.935 78.9534C104.835 79.5634 104.325 80.1934 103.835 80.6134C101.735 82.4134 99.2055 83.3434 96.5855 84.1034C87.0855 86.8734 77.3255 87.8934 67.4955 88.3034C64.0755 88.4434 60.6355 88.2534 57.2055 88.2334C51.7755 88.2034 46.3555 88.0834 40.9255 88.2134C35.7755 88.3434 31.0255 86.6434 26.1255 85.5334C23.0055 84.8234 20.4055 83.2634 18.0955 81.0334C17.1855 80.1534 17.0155 79.4434 17.3355 78.3334C18.5055 74.1834 20.0455 70.1834 21.7555 66.2334C22.9855 63.3734 24.0955 60.4634 25.2655 57.5834C25.4455 57.1434 25.5555 56.6234 25.8455 56.2834C26.1055 55.9834 26.6755 55.6334 26.9655 55.7334C27.2955 55.8434 27.7055 56.4634 27.6555 56.7834C27.5155 57.6334 27.2255 58.4834 26.8555 59.2734C24.6255 64.0434 22.9455 69.0134 21.4455 74.0534C21.4055 74.1934 21.4755 74.3634 21.5255 74.7134C25.0555 76.4934 29.1655 76.4434 32.9355 77.6534C36.7855 78.8834 40.7555 79.2034 44.7555 79.3734C48.7155 79.5434 52.6855 79.6234 56.7155 80.1534C56.3455 80.2634 55.9655 80.4734 55.5955 80.4634C49.9255 80.3334 44.2655 80.2534 38.6055 79.9634C36.8055 79.8734 35.0455 79.1834 33.2555 78.8034C30.6955 78.2534 28.1355 77.7334 25.4655 77.1734C24.8455 79.1134 24.3055 80.8234 23.7555 82.5334C23.9255 80.7434 24.1055 78.9634 24.2755 77.1134C23.5955 76.9234 23.0855 76.7334 22.5555 76.6334C21.9555 76.5234 21.3355 76.4934 20.7655 76.4234C19.5555 79.2634 19.6255 79.7234 21.7455 81.3834C22.3455 81.8534 23.1155 82.1134 23.8055 82.4634C24.7555 82.9334 25.7055 83.4134 27.0255 84.0634C27.1355 82.3534 27.2155 81.1134 27.2955 79.8834C27.4055 79.8734 27.5055 79.8734 27.6155 79.8634C27.6855 81.1234 27.7555 82.3934 27.8255 83.8134C30.4055 84.7934 33.1655 85.2034 35.9255 85.3834C40.7855 85.6934 45.6555 85.8734 50.5255 85.9434C54.1955 85.9934 57.8655 85.7834 61.5355 85.6534C65.7655 85.5034 70.0055 85.4834 74.2155 85.1234C80.0155 84.6234 85.8355 84.0534 91.5855 83.1334C94.5455 82.6634 97.4055 81.4534 100.265 80.4534C101.355 80.0734 102.995 79.5134 103.205 78.7234C103.605 77.2034 103.495 75.3634 103.015 73.8234C101.975 70.4934 100.545 67.2834 99.3455 64.0034C98.2755 61.0934 97.2955 58.1334 96.2355 55.2134C95.8655 54.2034 95.3755 53.2434 93.9855 53.7134L94.0355 53.7534C94.7455 52.7134 93.9955 51.7434 93.8955 50.7534L93.8355 50.8034Z" fill="black"/>
<path d="M35.0656 49.2734C33.1256 48.4334 32.1156 42.3534 32.1256 40.6634C31.8956 40.5934 31.8556 38.7134 31.6456 38.6134C31.4456 38.5134 31.0856 40.1634 30.9156 40.0234C30.8756 39.9934 30.8356 39.9534 30.7956 39.9234C30.7756 39.9634 30.7456 39.9934 30.7256 40.0334C30.6156 41.1134 29.6056 46.2634 28.7756 47.0234C27.2256 48.4534 25.7156 49.9334 24.0156 51.5434C25.4856 52.4334 26.6656 53.0834 27.7756 53.8334C29.4856 55.0034 30.4356 56.4434 29.7956 58.7134C29.4556 59.9034 29.1756 61.3134 29.9956 62.6834C31.3856 61.6234 31.5356 60.2834 31.4856 58.9134C31.4056 56.8734 31.8256 54.9534 32.6656 53.0934C33.2456 51.8034 33.9056 50.6834 35.6056 50.8234C35.9056 50.8534 36.2256 50.6334 36.3656 50.5934C36.0456 49.9934 36.0156 49.8034 35.9056 49.7334C35.6356 49.5534 35.3556 49.3934 35.0656 49.2734ZM30.6556 54.3734C29.0556 53.3234 27.4856 52.3034 25.6656 51.1134C27.4056 49.5434 28.9356 48.1734 30.7156 46.5834C31.4656 47.5734 32.1956 48.5434 32.9756 49.5734C32.1956 51.1934 31.4456 52.7434 30.6556 54.3734Z" fill="black"/>
<path d="M93.6954 49.3834C93.5354 49.3434 93.3854 49.2834 93.2254 49.2534C93.1054 49.2534 92.9854 49.2534 92.8654 49.2634C92.3654 49.3534 91.8754 49.4634 91.3854 49.5434C90.8354 49.9734 90.2054 50.3034 89.5254 50.5134C83.9654 52.2134 78.2454 52.5134 72.4754 52.4434C71.4454 52.4334 70.4054 52.5234 69.3754 52.5334C67.6254 52.5434 65.8654 52.5934 64.1154 52.4934C61.8054 52.3534 59.5054 51.8934 57.2054 51.8934C51.8354 51.8934 46.5154 51.5634 41.2254 50.6034C40.0254 50.3834 38.6654 50.1634 37.0654 50.8834C37.7654 51.2634 38.1254 51.5934 38.5254 51.6534C41.8454 52.1334 45.1554 52.7834 48.4954 52.9734C56.4754 53.4134 64.4654 53.6734 72.4454 53.9334C74.5954 54.0034 76.7554 53.8834 78.9054 53.7534C84.0054 53.4434 88.9854 52.4934 93.8154 50.7934C93.6954 50.2834 93.6654 49.8334 93.6954 49.3834Z" fill="black"/>
<path d="M58.6656 67.6434C57.5256 66.0334 56.8256 64.8934 55.9656 63.8734C55.1556 62.9134 54.2856 61.9134 53.2456 61.2434C51.9856 60.4334 51.0756 61.0434 51.0856 62.5634C51.0956 64.6934 51.6156 66.6834 53.0856 68.3134C54.2556 69.6234 55.4656 70.9034 56.6356 72.2134C57.0156 72.6434 57.3256 73.1534 57.6656 73.6234C57.5556 73.7534 57.4456 73.8934 57.3456 74.0234C56.9056 73.8434 56.3456 73.7634 56.0456 73.4534C54.7156 72.0734 53.4356 70.6434 52.1856 69.1934C50.4756 67.2134 50.0356 64.7734 49.9056 62.2734C49.7756 59.8534 51.5756 58.7234 53.6756 59.9834C54.7456 60.6234 55.6256 61.5934 56.5156 62.4934C57.1056 63.0934 57.5456 63.8434 58.1756 64.6934C59.7756 62.5834 61.6156 61.2534 63.9356 60.6434C67.0156 59.8334 68.5756 61.0934 68.2256 64.3234C67.9756 66.6534 67.1856 68.8834 65.6956 70.7134C64.1356 72.6334 62.4056 74.4134 60.6856 76.1934C60.3956 76.4934 59.7956 76.5034 59.3356 76.6434C59.2456 76.4934 59.1456 76.3334 59.0556 76.1834C60.3256 74.9134 61.5856 73.6434 62.8656 72.3934C64.7356 70.5734 66.1956 68.5134 66.7956 65.9334C67.0956 64.6134 67.5456 63.2234 66.3856 62.1134C65.5756 61.3334 63.1156 61.5834 61.8956 62.6634C61.0256 63.4334 60.3956 64.4834 59.7256 65.4634C59.3756 65.9434 59.1856 66.5334 58.6656 67.6434Z" fill="white"/>
<path d="M65.8057 78.9734C67.0757 77.9934 68.6757 77.9134 70.1857 77.7434C72.2457 77.5034 74.3157 77.4034 76.3857 77.3034C83.0557 76.9834 89.4457 75.2834 95.7957 73.4034C97.4457 72.9134 99.0257 72.2034 100.846 71.5234C100.916 72.6634 100.346 72.9834 99.7857 73.1434C94.6657 74.6534 89.5957 76.4134 84.3857 77.5034C79.9657 78.4234 75.3757 78.5434 70.8657 79.0234C69.2257 79.2034 67.5757 79.3834 65.9357 79.5634C65.8957 79.3634 65.8557 79.1734 65.8057 78.9734Z" fill="black"/>
<path d="M110.206 39.6634C112.206 37.8534 119.346 37.8934 124.776 39.4334C126.996 40.0634 127.176 40.1934 127.846 41.8334C122.076 39.4434 116.206 39.1934 110.206 39.6634Z" fill="#EB584A"/>
<path d="M108.166 30.2034C108.486 29.4334 108.506 29.1434 108.656 29.0334C112.726 25.9934 116.816 22.9834 121.506 20.9334C122.466 20.5134 122.986 20.6134 122.946 21.5234C121.696 21.9534 120.536 22.1134 119.646 22.6934C116.336 24.8834 113.126 27.2234 109.866 29.4834C109.516 29.7234 109.076 29.8234 108.166 30.2034Z" fill="#EB584A"/>
<path d="M107.686 51.1934C108.546 49.9934 109.226 50.5834 109.656 51.0134C111.116 52.4734 112.636 53.9234 113.856 55.5834C115.396 57.6834 116.506 60.0434 116.956 62.7134C114.636 58.3134 112.206 54.0334 107.686 51.1934Z" fill="#EB584A"/>
<path d="M4.46582 24.6134C4.90582 24.6134 5.43582 24.4534 5.75582 24.6434C7.45582 25.6434 9.19582 26.6234 10.7658 27.8334C12.6958 29.3234 14.4658 31.0234 16.4258 32.7434C15.7858 33.5034 14.9658 33.2134 14.2858 32.7234C13.3858 32.0734 12.5158 31.3434 11.7958 30.5034C9.74582 28.0934 7.30582 26.2534 4.46582 24.6134Z" fill="#EB584A"/>
<path d="M11.9056 43.3334C10.0756 42.6834 8.28559 41.8234 6.40559 41.4334C4.58559 41.0634 2.65559 41.1634 0.475586 41.0434C0.945586 40.6634 1.21559 40.2834 1.56559 40.1934C4.14559 39.5334 6.61559 40.0834 9.02559 40.9934C10.1456 41.4134 11.1956 42.0434 12.2756 42.5834C12.1556 42.8434 12.0356 43.0934 11.9056 43.3334Z" fill="#EB584A"/>
<path d="M7.03564 56.9234C7.41564 56.3634 7.73564 55.7334 8.19564 55.2434C9.66564 53.6834 11.1556 52.1334 12.6956 50.6534C13.5356 49.8434 14.5056 49.4334 15.6156 50.4834C12.2656 52.1534 10.0556 54.9934 7.40564 57.2834C7.28564 57.1534 7.15564 57.0434 7.03564 56.9234Z" fill="#EB584A"/>
<path d="M95.4058 56.9834C93.4758 57.6534 91.5458 58.3134 89.4058 59.0534C90.9358 57.6134 92.9458 56.8734 95.4058 56.9834Z" fill="black"/>
<path d="M93.9855 53.7134C92.4555 54.4334 90.9455 55.1934 89.2855 55.5334C89.2355 55.3534 89.1755 55.1834 89.1255 55.0034C90.7555 54.5834 92.3955 54.1634 94.0355 53.7534L93.9855 53.7134Z" fill="black"/>
<path d="M59.9556 108.313C60.0256 107.093 60.0856 105.933 60.1656 104.593C62.3656 105.213 60.8456 107.323 62.0256 108.133C73.7856 108.013 85.5756 107.883 97.1456 107.763C98.4256 106.033 96.2356 104.213 97.7656 102.443C99.0056 104.123 98.6656 105.943 98.9756 107.773C100.856 107.773 102.626 107.773 104.686 107.773C103.966 109.223 102.866 108.723 102.066 108.863C101.146 109.023 100.196 108.993 99.0956 109.053C99.0956 110.883 99.0956 112.523 99.0956 114.293C101.436 115.373 103.726 114.743 106.076 114.153C106.546 112.073 105.636 109.783 107.396 107.583C108.446 109.913 107.466 111.903 107.516 113.943C107.936 114.253 108.416 114.603 109.406 115.323C107.876 115.593 106.916 115.833 105.946 115.913C104.916 116.003 103.866 115.953 102.826 115.973C100.916 116.013 98.8256 115.773 98.3456 118.613C98.1956 118.313 97.9656 118.033 97.9256 117.723C97.8056 116.753 97.2156 116.323 96.3156 116.263C95.0456 116.173 93.7656 116.073 92.4856 116.103C87.0156 116.203 81.5356 116.333 76.0656 116.463C75.2656 116.483 74.4756 116.553 73.6756 116.603C71.2056 116.763 68.7356 116.923 66.2656 117.073C64.9256 117.153 63.5856 117.213 62.3156 117.273C62.0356 118.243 61.8056 119.003 61.5856 119.763C61.4256 119.753 61.2556 119.743 61.0956 119.733C60.7756 119.053 60.4556 118.373 60.0956 117.643C49.0856 117.643 38.1156 117.643 26.9856 117.643C26.8956 118.713 26.8156 119.683 26.7156 120.793C24.8656 120.363 25.7956 118.583 24.7456 117.763C22.7456 117.193 20.6356 118.783 18.5356 118.273C18.2456 115.243 17.9856 112.513 17.7056 109.533C19.9256 109.423 21.8656 109.323 23.8256 109.223C23.5256 107.393 23.2656 105.793 22.9756 104.013C24.9456 104.023 24.5556 105.333 24.7856 106.183C25.0556 107.183 25.2756 108.193 25.5956 109.503C27.1556 109.573 28.7156 109.763 30.2756 109.703C36.8156 109.453 43.3556 109.103 49.9056 108.843C52.7756 108.733 55.6556 108.783 58.5356 108.723C59.0156 108.743 59.4656 108.483 59.9556 108.313ZM61.8756 109.373C61.2656 112.363 61.3356 113.883 62.2056 116.173C73.9756 116.013 85.8056 115.283 97.8856 114.123C97.8856 113.013 97.9156 112.073 97.8756 111.133C97.8056 109.103 97.6956 108.923 95.6756 108.893C90.2456 108.813 84.8256 108.763 79.3956 108.773C75.4856 108.783 71.5756 108.903 67.6656 109.013C65.7656 109.083 63.8656 109.253 61.8756 109.373ZM26.2156 110.883C26.0456 111.463 25.9256 111.683 25.9256 111.913C25.9156 112.553 25.9456 113.193 25.9856 113.823C26.1656 116.263 26.3656 116.503 28.8856 116.553C31.9156 116.603 34.9556 116.373 37.9756 116.603C43.7256 117.043 49.4556 116.793 55.1956 116.643C56.8356 116.603 58.4756 116.493 60.3556 116.403C60.2056 113.973 60.0856 111.883 59.9356 109.453C48.5056 109.933 37.3156 110.413 26.2156 110.883ZM19.8856 116.713C21.7456 116.623 23.2956 116.553 25.0756 116.473C24.8056 114.783 24.6856 113.353 24.3156 111.983C24.1856 111.513 23.4956 110.933 23.0056 110.863C21.7956 110.703 20.5456 110.813 19.1356 110.813C19.3956 112.863 19.6156 114.573 19.8856 116.713Z" fill="black"/>
<path d="M34.7955 51.4434C37.1255 49.8534 39.3955 48.5734 42.5055 50.5434C43.4355 48.9734 43.4755 48.8834 42.1955 48.3934C41.0855 47.9634 39.8755 47.7034 38.5755 47.3434C39.4455 45.9334 40.9455 45.3934 42.6955 45.2334C44.3855 45.0834 46.0955 45.0934 47.7955 44.9934C48.4455 44.9534 49.0955 44.8134 49.8955 44.6934C49.2355 43.8934 48.6855 43.3434 48.2755 42.7334C47.3055 41.2934 47.4455 40.8634 49.1855 39.9434C50.0755 39.4634 51.0055 39.0334 51.9155 38.5834C51.8255 38.4634 51.7355 38.3334 51.6455 38.2134C50.2255 38.6934 48.8055 39.1734 47.1755 39.7334C47.3955 37.4534 50.4555 37.8334 51.8355 36.2934C50.1255 36.7334 48.8355 37.0534 47.4155 37.4234C47.6655 34.6534 49.5155 32.8534 52.0055 31.5134C53.3555 30.7834 55.4155 30.7834 56.5555 29.9434C57.6955 29.0934 58.0255 27.5934 58.8355 26.4334C60.1355 24.5634 62.3955 25.0334 63.8555 25.9834C64.7255 26.5534 65.3355 27.3834 65.9855 28.1434C66.3155 28.5334 66.4855 29.0034 66.7255 29.4434C67.3055 29.4634 67.7555 29.5234 68.1955 29.5034C70.1255 29.4134 71.6255 29.9734 72.8655 31.1634C75.5555 33.7334 77.5455 36.5034 77.4855 39.9634C77.4755 40.5134 77.6555 41.0734 77.8255 41.6134C77.8755 41.7634 78.2055 41.8534 78.5255 42.0434C78.9855 41.6034 79.4055 41.1934 79.9855 40.6234C81.9355 41.9834 84.0455 43.1634 84.5355 45.2234C85.0555 47.3834 83.5655 49.1434 81.8455 50.8234C82.2255 50.9034 82.4955 51.0434 82.7055 51.0034C84.6655 50.6534 86.3355 50.8734 87.8655 51.4634C88.5255 51.2934 89.1955 51.1934 89.8655 51.1534C88.5155 50.4434 87.0055 49.8334 85.3655 49.4134C85.8155 47.3834 86.9255 45.2134 85.3255 43.2934C83.8955 41.5634 82.4255 39.6634 79.1255 39.3834C78.6755 35.5934 76.8155 32.4434 73.5455 29.8434C72.9355 29.3534 72.0955 28.6734 71.3955 28.6834C68.5155 28.7634 67.0855 27.4234 65.7855 25.7134C65.4055 25.2034 64.6455 24.8134 63.9555 24.5134C60.9355 23.2234 59.2655 23.6034 57.4555 25.9334C57.0855 26.4134 56.6855 26.8934 56.4255 27.4134C55.9855 28.2934 55.2155 28.5834 54.0755 28.8734C50.0355 29.8834 46.9655 31.8234 45.6855 35.1634C44.7555 37.6034 44.1555 40.0734 44.7755 42.7234C43.7655 42.8934 42.8655 42.9634 42.0555 43.2034C39.1755 44.0734 36.3255 44.9834 35.9055 47.9134C35.8355 48.4034 35.3255 48.9434 34.8355 49.3034C34.1355 49.8234 33.5155 50.3534 33.1055 50.9534C33.6555 51.1334 34.2255 51.2934 34.7955 51.4434Z" fill="black"/>
<path d="M49.0456 10.4634C48.7156 10.7234 48.3856 11.0134 48.0456 11.2734C46.3256 12.5434 45.2856 13.9834 45.8956 16.4634C46.2856 18.0534 46.0956 19.8134 46.0356 21.4934C45.9956 22.5134 45.6956 23.5234 44.2356 23.7634C44.1156 23.0834 43.9356 22.4934 43.9156 21.8934C43.8856 20.8634 43.9756 19.8334 43.9756 18.8034C44.0156 14.5734 42.8356 13.4834 38.8156 13.8934C37.9156 13.9834 36.9856 13.8534 36.0756 13.8334C36.0456 13.6034 36.0156 13.3734 35.9756 13.1434C36.4656 12.9034 36.9256 12.5534 37.4356 12.4334C40.3956 11.7234 41.9556 9.6934 41.8956 6.4534C41.8556 4.3034 41.7056 2.1534 42.6856 0.0834045C44.2656 0.133405 44.3256 1.4834 44.3656 2.4734C44.4256 3.8534 44.1356 5.2634 43.9656 6.6434C43.6056 9.4734 44.7656 10.5334 47.2856 9.5134C48.2756 9.11341 48.7756 9.2334 49.0456 10.4634ZM44.2156 13.4734C45.3556 11.1834 45.1256 10.8534 42.1656 10.2534C41.9456 10.8834 41.7256 11.5334 41.4756 12.2534C42.4456 12.6934 43.2556 13.0534 44.2156 13.4734Z" fill="black"/>
<path d="M93.1054 21.5934C93.1054 22.6734 93.1354 23.7534 93.0954 24.8334C93.0554 25.8634 92.8554 26.8834 92.8854 27.9034C92.9554 30.3134 94.2754 31.6534 96.6654 32.0234C97.2554 32.1134 97.8154 32.5134 98.9754 33.0434C95.2754 34.6334 94.9954 37.1634 95.5954 40.1734C95.8254 41.3334 95.7154 42.5934 95.6054 43.7934C95.5054 44.8434 95.0354 45.7234 93.5754 45.8634C93.5754 44.4434 93.5754 43.1634 93.5754 41.8934C93.5754 40.8634 93.6654 39.8234 93.5354 38.8134C93.1754 36.1134 91.5354 34.7134 88.9454 34.7734C88.1654 34.7934 87.3854 34.7734 86.2954 34.7734C87.4654 33.3434 88.4154 32.1134 89.4454 30.9634C90.6854 29.5834 91.2554 28.0934 90.9954 26.1234C90.8354 24.8734 91.0954 23.5334 91.3254 22.2734C91.3954 21.9034 92.0154 21.6334 92.3854 21.3234C92.6154 21.4134 92.8554 21.5034 93.1054 21.5934ZM94.2854 35.2934C94.8454 32.5434 92.6954 32.0034 91.6154 30.3934C90.9254 31.4034 90.4054 32.1734 89.8954 32.9234C91.4054 33.7334 92.6354 34.4034 94.2854 35.2934Z" fill="black"/>
<path d="M58.9058 36.7334C58.9458 35.2134 59.8058 34.2034 60.7058 34.2834C61.6758 34.3734 62.1158 35.0734 62.1058 36.0034C62.0858 37.1834 61.2758 37.5534 60.2958 37.6034C59.4558 37.6434 58.9658 37.2434 58.9058 36.7334Z" fill="black"/>
<path d="M50.5156 46.2234C51.5156 45.6234 52.1356 44.2234 53.2856 45.5934C53.8756 46.2934 53.5956 47.6634 52.8256 47.9934C51.4756 48.5534 50.9256 47.6934 50.5156 46.2234Z" fill="black"/>
<path d="M70.2856 45.3334C70.8656 44.0234 71.5756 43.6434 72.4856 44.2234C72.7756 44.4034 72.9856 45.3634 72.8056 45.5734C72.0556 46.4634 71.2756 45.9534 70.2856 45.3334Z" fill="black"/>
</svg>
