<svg width="116" height="129" viewBox="0 0 116 129" fill="none" xmlns="http://www.w3.org/2000/svg">
<path d="M5.37012 115.295L5.85829 125.961L57.1288 123.069L56.3843 113.11L5.37012 115.295Z" fill="#EB584A"/>
<path d="M0 13.7787C0.805487 13.5834 1.15941 13.3637 1.33027 13.4736C7.40804 17.0128 13.4736 20.5887 19.5392 24.1524C19.4781 24.4087 19.4171 24.6528 19.3561 24.9091C18.7947 24.9579 18.0991 25.2386 17.7085 25.0067C12.5949 22.0532 7.49347 19.051 2.44087 15.9999C1.61097 15.4873 0.976348 14.6696 0 13.7787Z" fill="#EB584A"/>
<path d="M27.252 19.0389C24.2986 16.6468 19.9538 6.22429 20.2223 3.00234C21.4061 2.83148 21.6014 3.69799 21.8821 4.52788C22.9439 7.63999 24.0057 10.7643 25.1163 13.852C25.4458 14.7551 25.9828 15.585 26.3611 16.4759C26.715 17.3058 26.9591 18.1846 27.252 19.0389Z" fill="#EB584A"/>
<path d="M36.7598 21.3698C35.6004 20.1982 36.0276 18.9167 36.3327 17.7817C36.8453 15.9023 37.6263 14.1082 38.1877 12.241C39.2861 8.60407 40.2869 4.95497 41.3609 1.31807C41.5073 0.829896 41.8246 0.390539 42.5325 0C42.5813 0.47597 42.7888 1.01296 42.6545 1.44011C41.4219 5.44314 40.0916 9.40956 38.8712 13.4248C38.1267 15.9755 37.5043 18.575 36.7598 21.3698Z" fill="#EB584A"/>
<path d="M48.891 86.5654C42.8499 86.3458 36.7111 86.1139 30.9506 84.4907C25.1902 82.8675 19.7348 79.6456 17.0255 74.837C14.8653 71.0049 14.6456 66.5503 14.7433 62.2666C14.8653 57.275 15.4145 52.1492 17.9896 47.7068C22.2733 40.3353 32.3297 35.9906 41.4952 37.5405C43.6798 37.9067 45.9376 38.5779 48.0855 38.0653C49.8064 37.6504 51.2587 36.5276 53.0161 36.2347C56.7873 35.6123 60.9367 38.9563 64.1221 37.089C62.2304 33.8304 60.7415 30.3766 59.6797 26.8251C60.3509 25.1043 63.4874 25.2996 64.7079 26.7519C65.9405 28.2164 65.8673 30.1935 65.9039 32.0364C65.9283 33.867 66.2456 35.9174 67.8688 37.028C69.7849 38.3094 72.4698 37.687 74.8741 37.6138C80.1708 37.4795 85.0891 40.5184 87.945 44.4726C90.8008 48.4268 91.9236 53.1865 92.5216 57.8486C93.1806 62.9134 93.2661 68.2833 90.7276 72.8477C87.9572 77.8271 82.4408 81.1589 76.7292 83.4045C65.7941 87.7127 53.6385 88.811 41.7149 89.5189" fill="white"/>
<path d="M25.8977 50.9654L21.5652 58.4345L18.3554 52.735L14.5965 52.6984L2.68506 81.3298L19.8444 89.043L66.0623 91.4106L87.9935 88.2253L109.876 77.3878L96.268 41.8854L63.0112 48.195L48.9274 50.5383L21.2235 43.9113L21.2845 49.5863L25.8977 50.9654Z" fill="#EB584A"/>
<path d="M30.7066 38.9929C36.3206 38.6512 41.5684 41.2873 46.4136 43.838C47.0726 44.1798 47.7805 44.5825 47.9879 45.2415C48.4273 46.5962 46.5112 47.5604 44.9612 47.8533C38.9323 48.9761 31.0727 49.1225 25.4221 46.7671C16.4397 42.9837 23.9209 39.3957 30.7066 38.9929Z" fill="#BCBCBB"/>
<path d="M89.6776 49.1836C90.3 48.7686 90.8492 48.2316 91.5571 47.9631C92.9606 47.4261 94.4251 47.0356 96.1337 46.4986C95.7798 45.5833 95.5113 44.851 95.2062 44.0333C91.8988 44.851 88.8355 45.6077 85.7722 46.3278C77.1682 48.3659 68.4542 49.8426 59.4963 49.7938C55.2613 49.7694 51.0264 49.9647 46.7915 50.0867C38.6146 50.3308 30.7428 48.9883 23.0907 46.5352C22.273 46.2667 21.1014 46.3033 21.4675 44.7046C22.1875 44.79 22.9808 44.7412 23.6643 44.9609C29.6444 46.8892 35.832 47.8655 42.1417 48.3049C43.8869 48.4269 45.6443 48.3171 47.4139 48.256C54.5413 48.012 61.7052 47.9997 68.796 47.4017C74.9592 46.8769 81.0491 45.7908 86.956 43.9601C89.8363 43.0692 92.8996 42.6054 96.2802 41.8488C97.6471 45.0707 99.075 48.195 100.308 51.3559C102.578 57.153 104.665 63.0111 106.947 68.8082C107.411 70.0042 108.607 70.9928 109.022 72.201C109.449 73.458 109.314 74.8493 109.473 76.1796C109.51 76.5213 109.717 76.8631 109.9 77.3512C104.067 80.8539 98.6722 84.8569 91.8134 87.0537C83.4412 89.7264 74.947 91.3374 66.0866 91.374C59.7892 91.3984 53.4795 91.2276 47.1821 91.1787C42.642 91.1421 38.0898 91.1543 33.5376 91.1421C28.8389 91.1299 24.3477 90.2634 19.8565 89.0064C15.2555 87.7005 10.4958 86.8096 5.96796 85.1864C3.81999 84.4175 2.92907 83.1483 2.69719 81.2932C2.40429 78.8768 2.84364 76.5091 3.73456 74.2757C6.15102 68.1369 8.76275 62.0592 11.2402 55.9448C11.7284 54.7366 12.5827 53.9921 13.7299 53.4673C15.1578 54.0897 14.5232 54.8464 14.2059 55.6153C12.2898 60.3628 10.3615 65.1103 8.50646 69.8822C7.46909 72.5549 6.54156 75.2765 5.63844 77.9858C4.6865 80.8295 5.06483 81.4275 8.26237 82.3672C10.0686 79.6212 9.94658 78.4008 7.24941 75.9111C8.29899 75.8135 9.04345 75.5938 9.70249 75.7158C11.6186 76.0698 13.4858 76.6556 15.4141 76.9851C24.8481 78.6327 34.3675 79.609 43.9357 80.2925C46.1569 80.4511 48.4269 80.2925 50.5261 81.1712C38.9563 82.2574 27.6429 80.3047 15.8657 78.8768C15.4263 80.2803 14.9992 81.6227 14.389 83.5754C14.2303 81.5495 14.1205 80.146 13.9862 78.4984C12.9733 78.3886 12.0091 78.2788 10.8497 78.1689C10.3371 79.8409 9.87335 81.3176 9.39738 82.8676C11.7528 84.149 14.1205 84.8447 16.7566 85.04C19.4172 85.2352 22.0777 85.7112 24.726 86.1017C30.3278 86.9316 35.9296 87.7982 41.5192 88.6403C42.2271 88.7379 42.9594 88.8233 43.6794 88.8233C52.1492 88.8233 60.6313 88.7623 69.1011 88.8111C74.2269 88.8477 79.1941 88.1277 84.0758 86.7974C90.7272 84.9789 96.9758 82.3794 102.968 79.2429C104.372 78.5106 105.861 77.9126 107.594 77.1193C107.35 75.9599 107.093 74.7395 106.813 73.4702C104.274 73.3848 102.395 74.4222 100.417 75.1178C92.0209 78.0469 83.3924 80.1948 74.3734 80.9027C73.1041 81.0003 71.8227 80.9149 70.5534 80.9149C70.5412 80.6952 70.5168 80.4633 70.5046 80.2437C74.4832 79.7311 78.474 79.3527 82.3916 78.6449C86.3214 77.9492 90.2512 77.0583 94.0712 75.9843C97.9888 74.8859 101.809 73.4336 105.665 72.1522C105.202 67.9539 98.7943 50.941 96.268 47.3895C94.0956 47.9631 91.8378 48.5489 89.58 49.1348L89.6776 49.1836Z" fill="black"/>
<path d="M66.6969 36.2103C71.3223 34.2454 75.7891 33.623 80.3658 35.4537C82.3917 36.2714 85.6014 39.0539 86.9683 41.4704C85.1255 40.4452 83.7708 39.8594 82.6602 39.0173C76.6068 34.4773 70.5657 34.8068 65.4032 40.0303C65.2202 40.2012 64.8906 40.2622 64.1218 40.5795C64.2194 39.0173 64.2438 37.7115 64.4147 36.4178C64.8174 33.623 64.4757 32.8785 61.6809 31.5361C59.9113 30.6818 58.0684 29.9495 56.0303 29.0586C57.2385 28.1188 58.3979 27.1791 59.5817 26.2516C61.2049 25.0067 62.1691 23.5788 62.4131 21.5773C62.6694 19.4293 63.4993 17.3424 64.0974 15.2188C64.3292 15.17 64.5489 15.1334 64.7808 15.0968C65.1103 15.5362 65.7571 16.0121 65.6839 16.4027C65.4154 18.2943 65.1103 20.2226 64.4879 22.0289C63.4627 25.1044 65.1103 27.1669 68.7472 27.1181C69.1866 27.1181 70.0043 27.3744 70.0165 27.5208C70.0287 27.9968 69.8822 28.5948 69.5527 28.9365C67.2339 31.231 66.3674 33.1959 66.6969 36.2103ZM66.6603 28.8389C65.0249 27.6307 63.658 26.6177 62.1447 25.5071C61.2171 26.5079 60.3994 27.3866 59.3621 28.5094C61.51 29.6444 63.4017 30.6451 65.4642 31.7435C65.9158 30.6574 66.2575 29.8275 66.6603 28.8389Z" fill="black"/>
<path d="M53.9066 77.7173C54.2117 77.278 54.4558 76.7776 54.8463 76.4237C58.5809 73.1163 60.9851 69.0767 62.828 64.7563C63.6701 62.8158 63.3772 62.0103 61.754 61.3391C59.9844 60.6068 58.0927 61.0462 57.214 62.5595C56.7014 63.4382 56.4939 64.4634 56.1034 65.4031C55.9081 65.8791 55.664 66.3185 55.2735 67.1117C54.6999 66.4283 54.407 66.0256 54.0408 65.6472C52.4787 63.9752 50.9409 62.2544 49.2689 60.6557C48.8906 60.3017 47.8044 60.1187 47.3895 60.3505C46.9257 60.6068 46.8647 61.4245 46.6206 61.9981C46.5962 62.0836 46.6084 62.1934 46.645 62.2788C48.5001 65.9035 49.1713 70.0774 52.857 72.8478C53.4794 73.3238 54.3948 73.6533 53.3208 74.654C50.8799 73.995 49.6961 72.1155 48.6831 70.2971C47.3651 67.9172 46.2911 65.4276 45.3147 62.9135C44.973 62.0347 44.9608 60.8875 45.3025 60.021C46.0836 58.0927 47.902 57.6534 49.6961 58.9592C51.3681 60.1797 52.8204 61.6076 54.5778 63.1575C55.2857 62.3154 55.9203 61.4977 56.6282 60.7533C58.2757 59.0203 60.9607 58.7396 63.0232 60.082C64.7196 61.1804 65.3543 62.5473 64.3291 64.439C62.4618 67.8928 60.3139 71.249 58.2391 74.6174C57.6899 75.4961 56.9577 76.2894 56.2132 77.0461C55.725 77.5343 55.0538 77.876 54.468 78.2787C54.2971 78.0835 54.1019 77.9004 53.9066 77.7173Z" fill="white"/>
<path d="M19.9175 38.2972C19.8443 39.237 19.8443 40.1767 19.6735 41.1164C19.5148 42.0073 19.1121 42.8861 18.9412 43.777C18.2944 46.9745 20.0884 48.976 23.7009 49.1225C24.7016 49.1591 25.6902 49.1225 27.2646 49.1225C26.6177 50.0256 26.3858 50.6358 25.9099 50.9775C23.1883 52.8936 21.4431 55.1026 21.5773 58.4344C21.6506 60.3505 21.0281 62.3764 19.0388 64.1705C18.6971 63.4138 18.3432 62.95 18.3554 62.5107C18.392 61.1438 18.5873 59.7769 18.7215 58.41C18.8191 57.3604 20.003 56.2498 18.8436 55.3101C17.5743 54.2849 16.1708 53.2842 14.6208 52.6984C12.9733 52.0759 11.0938 51.9539 9.33636 51.6244C9.27534 50.3551 10.0564 50.1965 10.9351 50.2941C13.6323 50.5748 16.2562 50.9897 18.3554 52.735C18.868 53.1621 19.4782 53.5038 20.0762 53.8944C20.9793 52.9669 21.8214 52.1003 22.5659 51.3437C20.5888 49.7693 18.7215 48.3048 16.7322 46.7182C15.6094 47.6458 14.1815 48.8296 12.7414 50.0134C12.5461 49.8547 12.3386 49.6961 12.1434 49.5252C13.6201 47.7922 15.3653 46.1812 16.5125 44.3018C17.6597 42.4223 18.2089 40.2499 19.0266 38.2118C19.3195 38.224 19.6246 38.2606 19.9175 38.2972Z" fill="black"/>
<path d="M61.2786 38.5657C58.7767 37.8091 56.2871 37.0768 53.7974 36.2835C50.7951 35.3316 48.1224 35.8197 45.6937 37.6138C45.474 37.7724 45.3642 38.0531 45.2299 38.2606C45.8157 39.7007 48.1956 39.7251 48.4031 41.9219C47.4267 41.6168 46.67 41.507 46.072 41.153C42.7768 39.1759 39.1033 38.5291 35.1979 38.6512C33.648 38.7 32.1102 38.8342 30.5481 38.8342C27.1187 38.8342 24.6534 40.2499 22.8593 42.764C22.5542 43.2034 22.1637 43.6061 21.1995 43.9234C21.1629 43.4108 20.8944 42.7762 21.1385 42.4101C22.9326 39.7129 25.2636 37.4917 29.0714 37.3697C33.0744 37.2477 37.0774 36.6008 41.0804 37.5528C41.8005 37.7236 42.8013 37.2232 43.5945 36.8693C44.7906 36.3323 45.8401 35.5757 47.0484 35.0387C48.9645 34.2088 50.966 33.9525 53.0529 34.6237C55.3839 35.3804 57.7272 36.0882 60.046 36.8815C60.644 37.089 61.1322 37.5284 61.6814 37.8701C61.5349 38.0898 61.4007 38.3216 61.2786 38.5657Z" fill="black"/>
<path d="M30.8892 43.8259C31.9021 43.1302 32.4635 42.4956 33.1958 42.3003C34.1111 42.044 34.9166 42.7397 34.6847 43.4719C34.5016 44.07 33.6351 44.6558 32.9273 44.9121C32.5856 45.0341 31.8899 44.3751 30.8892 43.8259Z" fill="black"/>
<path d="M55.9208 39.8472C55.8842 41.2629 55.1397 41.7266 54.1268 41.6778C53.7118 41.6534 53.0406 41.0798 52.9918 40.7137C52.8941 39.8228 53.4311 39.0295 54.5417 39.0539C55.0787 39.0783 55.5791 39.6519 55.9208 39.8472Z" fill="black"/>
<path d="M86.9556 54.3704C88.3591 52.6618 90.3606 52.0394 92.7282 52.1614C90.7999 52.8937 88.8839 53.6382 86.9556 54.3704Z" fill="black"/>
<path d="M73.5068 42.4101C74.3733 41.8487 74.8493 41.3483 75.4107 41.2629C75.667 41.214 76.326 41.9341 76.3871 42.3368C76.4237 42.6786 75.7891 43.4352 75.5572 43.4108C74.947 43.3254 74.4344 42.8982 73.5068 42.4101Z" fill="black"/>
<path d="M89.6165 49.147C88.5181 49.4887 87.4319 49.8304 86.3335 50.1844C87.2366 49.1104 88.3472 48.7564 89.6775 49.1958C89.6775 49.1836 89.6165 49.147 89.6165 49.147Z" fill="black"/>
<path d="M54.7856 113.769C54.871 112.28 54.9442 110.864 55.0419 109.229C57.7268 109.986 55.8717 112.561 57.3119 113.549C71.6642 113.403 86.0531 113.244 100.174 113.098C101.736 110.986 99.063 108.765 100.93 106.605C102.444 108.655 102.029 110.877 102.407 113.11C104.701 113.11 106.862 113.11 109.376 113.11C108.497 114.88 107.154 114.269 106.178 114.44C105.055 114.635 103.896 114.599 102.553 114.672C102.553 116.905 102.553 118.907 102.553 121.067C105.409 122.385 108.204 121.616 111.072 120.896C111.646 118.358 110.535 115.563 112.683 112.878C113.964 115.722 112.768 118.15 112.829 120.64C113.342 121.018 113.928 121.445 115.136 122.324C113.269 122.654 112.097 122.947 110.913 123.044C109.656 123.154 108.375 123.093 107.106 123.117C104.775 123.166 102.224 122.873 101.638 126.339C101.455 125.973 101.174 125.632 101.125 125.253C100.979 124.069 100.259 123.545 99.1606 123.471C97.6106 123.362 96.0485 123.24 94.4863 123.276C87.8105 123.398 81.1226 123.557 74.4468 123.715C73.4704 123.74 72.5063 123.825 71.5299 123.886C68.5155 124.082 65.501 124.277 62.4865 124.46C60.8511 124.558 59.2157 124.631 57.6658 124.704C57.3241 125.888 57.0434 126.815 56.7749 127.743C56.5796 127.731 56.3721 127.719 56.1769 127.706C55.7863 126.876 55.3958 126.047 54.9564 125.156C41.5194 125.156 28.1313 125.156 14.5478 125.156C14.438 126.461 14.3403 127.645 14.2183 129C11.9605 128.475 13.0955 126.303 11.814 125.302C9.37316 124.606 6.79804 126.547 4.23513 125.924C3.8812 122.227 3.56389 118.895 3.22217 115.258C5.93153 115.124 8.29918 115.002 10.6912 114.88C10.3251 112.646 10.0078 110.693 9.65386 108.521C12.0581 108.533 11.5822 110.132 11.8629 111.169C12.1924 112.39 12.4609 113.622 12.8514 115.221C14.7553 115.307 16.6592 115.539 18.563 115.465C26.5447 115.16 34.5263 114.733 42.5202 114.416C46.0228 114.282 49.5377 114.343 53.0525 114.269C53.6506 114.294 54.1875 113.964 54.7856 113.769ZM57.1288 115.063C56.3843 118.712 56.4698 120.567 57.5315 123.362C71.8961 123.166 86.3338 122.275 101.077 120.86C101.077 119.505 101.113 118.358 101.064 117.211C100.979 114.733 100.845 114.513 98.3795 114.477C91.7526 114.379 85.1378 114.318 78.5108 114.33C73.7389 114.343 68.967 114.489 64.1951 114.623C61.8763 114.709 59.5575 114.904 57.1288 115.063ZM13.6081 116.905C13.4006 117.613 13.2541 117.882 13.2541 118.163C13.2419 118.944 13.2786 119.725 13.3274 120.494C13.547 123.471 13.7911 123.764 16.8666 123.825C20.5646 123.886 24.2747 123.606 27.9604 123.886C34.9779 124.423 41.971 124.118 48.9763 123.935C50.9778 123.886 52.9793 123.752 55.2737 123.642C55.0907 120.677 54.9442 118.126 54.7612 115.16C40.8116 115.746 27.1549 116.332 13.6081 116.905ZM5.88272 124.008C8.15272 123.899 10.0444 123.813 12.2168 123.715C11.8873 121.653 11.7408 119.908 11.2892 118.236C11.1306 117.662 10.2885 116.954 9.69047 116.869C8.21375 116.674 6.6882 116.808 4.96739 116.808C5.29691 119.31 5.5532 121.409 5.88272 124.008Z" fill="black"/>
</svg>
