<svg width="115" height="110" viewBox="0 0 115 110" fill="none" xmlns="http://www.w3.org/2000/svg">
<path d="M114.208 58.323C113.506 62.906 112.717 67.8583 112.016 72.8322C111.139 79.0877 107.587 84.0617 103.641 88.5578C98.928 93.9445 93.4474 98.5057 86.7829 101.807C77.0713 106.629 66.7457 108.541 56.2229 109.062C41.8637 109.757 29.0609 105.348 17.6393 96.2903C9.44027 89.7959 5.16538 81.086 0.956252 72.1372C0.232809 70.6168 -0.117951 68.7054 0.0355063 67.0329C0.583569 60.8643 0.364344 54.3265 2.42506 48.6574C5.09961 41.316 7.22609 33.7138 11.6983 26.8936C16.4993 19.6173 22.0676 13.3618 29.1925 8.53988C35.3746 4.34785 42.2364 1.50248 49.8654 1.00291C51.0273 0.937747 52.2111 0.894306 53.373 0.698823C71.3714 -2.34203 85.7964 4.84742 98.643 16.3158C106.25 23.1143 109.517 32.302 111.928 41.7286C113.287 46.9415 113.463 52.4368 114.208 58.323ZM110.13 57.8886C110.547 44.031 106.71 31.2811 97.218 20.5947C88.6244 10.9074 77.5316 4.84742 64.7069 3.80484C52.5619 2.82742 41.1622 6.41128 31.3409 14.1872C19.8315 23.288 12.1148 35.1691 6.9411 48.4185C4.63924 54.3265 3.71849 61.6028 4.83654 67.7931C7.75223 83.7793 17.99 94.9436 32.9851 101.004C49.7558 107.759 66.68 106.607 83.0342 99.0705C100.55 91.0122 110.788 78.0886 110.13 57.8886Z" fill="#EB584A"/>
<path d="M6.45867 35.5384C6.85328 32.5845 7.42326 29.4567 9.37437 27.1978C10.9528 25.395 13.2327 24.3524 15.425 23.375C26.6932 18.401 37.9833 13.4054 49.2514 8.40967C49.2734 10.0821 51.2902 10.9075 52.9344 11.2768C63.4134 13.6226 74.1335 14.8389 84.8755 14.8823C89.3258 14.9041 94.083 14.7955 97.8317 17.2064C100.024 18.5965 101.624 20.7251 102.94 22.9623C108.07 31.7156 108.946 42.7713 105.307 52.2197C104.343 54.7175 103.049 57.2154 103.181 59.887C103.29 62.1025 104.343 64.1442 105.439 66.0556C108.07 70.7254 111.007 75.2433 114.23 79.5222C110.218 83.7577 106.228 88.0149 102.216 92.2503C97.8975 96.8333 93.2719 103.349 96.4287 108.78C88.8874 105.587 80.4033 104.653 72.3358 106.108C68.3898 106.825 64.378 108.085 60.4319 107.368C52.1671 105.847 45.6123 97.5718 37.8079 94.3572C30.8365 91.4901 26.1232 88.3407 20.0945 84.04C11.8955 78.1755 5.42832 78.1538 4.88025 66.7723C4.35411 56.4117 5.05563 45.8556 6.45867 35.5384Z" fill="white"/>
<path d="M29.1926 90.0346C24.26 86.4942 19.3056 82.9538 14.373 79.4134C12.5315 78.0884 10.6242 76.72 9.55004 74.7435C8.41007 72.68 8.32238 70.2039 8.23469 67.8581C7.88393 55.9988 7.92777 42.9231 15.6883 33.8875C21.6732 38.7094 26.3208 44.9431 30.7491 51.1986C37.6766 61.0162 44.2095 71.1162 50.3259 81.4551C53.0882 86.125 55.6093 92.489 51.8605 96.4204C47.9144 100.569 40.965 97.9408 35.9886 95.0955C26.9127 89.9043 17.8148 84.7131 8.7389 79.5002C6.94126 78.4577 5.034 77.3499 4.06941 75.5037C3.25827 73.9615 3.23635 72.1588 3.2802 70.4428C3.45558 63.4706 4.46401 56.5201 6.32743 49.7868" fill="#BCBCBB"/>
<path d="M3.41118 36.646C3.5208 36.3854 3.80579 35.7338 4.17847 34.9084C2.95081 34.1047 2.95081 33.1925 3.98117 32.0413C5.80074 29.9996 7.46685 27.8276 9.22065 25.7424C12.9694 21.268 17.7266 18.1403 22.988 15.7945C25.246 14.7953 27.6575 14.0568 30.047 13.3835C37.3472 11.3418 44.6694 9.40866 51.9696 7.38866C52.8684 7.12802 53.7014 6.65017 55.0826 6.06372C54.688 6.97598 54.6003 7.51899 54.2714 7.82307C53.1753 8.88737 51.9915 9.86479 50.8515 10.8856C49.9527 11.6893 49.0977 12.5147 48.8566 13.9265C50.6104 14.5998 52.3861 14.5347 54.118 14.3609C62.5143 13.4487 70.9106 13.4052 79.307 13.7962C85.6206 14.1003 91.8028 15.3818 97.9849 16.6198C100.353 17.0977 101.778 18.4661 102.391 20.8553C103.641 25.5686 105.088 30.2385 106.337 34.9736C107.192 38.2316 106.929 41.4462 105.504 44.5957C104.255 47.3542 103.181 50.2213 102.128 53.0666C101.887 53.6965 101.975 54.4785 102.084 55.1518C102.326 56.6505 102.808 58.1275 102.983 59.6262C103.531 64.2309 105.636 68.3361 107.061 72.6584C107.784 74.8739 109.626 76.7202 111.774 77.9799C112.169 78.2189 112.498 78.5664 113.111 79.066C112.454 80.0434 111.928 81.0208 111.204 81.8027C107.675 85.5386 104.101 89.2528 100.484 92.9018C98.3138 95.0956 98.1822 96.1382 99.103 99.1356C99.8703 101.633 100.353 104.262 100.703 106.868C101.01 109.062 100.594 109.322 98.4892 108.779C97.4807 108.519 96.3408 108.323 95.5735 107.715C92.7016 105.413 89.3913 105 85.9495 105.282C80.0742 105.782 74.199 106.368 68.3457 107.085C65.3862 107.455 62.4705 108.128 59.5328 108.736C56.0472 109.431 52.6492 108.128 50.6542 105.304C49.4046 103.523 48.1331 101.764 46.7959 100.07C44.0994 96.6595 40.3726 95.0304 36.2073 94.2702C34.4754 93.9444 32.6778 93.9661 30.902 93.8358C28.7317 93.6838 26.5394 93.6621 24.391 93.3145C23.558 93.1842 22.6592 92.4674 22.1111 91.7724C20.6861 89.9262 19.4804 87.9279 18.1431 86.0382C16.3235 83.4752 13.7586 81.8244 10.9306 80.5429C10.0537 80.1303 9.17681 79.6958 8.25606 79.4135C6.45842 78.8487 5.69113 77.5673 5.51575 75.8296C5.40613 74.635 5.29652 73.4404 5.36229 72.2458C5.71305 65.5993 6.21727 58.9746 6.41457 52.3282C6.52418 48.7443 6.32688 45.117 5.84458 41.5548C5.69113 40.0127 4.46346 38.6226 3.41118 36.646ZM25.7722 91.2511C29.2798 91.49 32.8312 91.7724 36.3607 91.9896C39.693 92.2068 42.784 93.2277 45.1736 95.53C47.1905 97.4631 48.8346 99.7872 50.6542 101.916C51.9038 103.371 53.1315 104.892 54.5564 106.151C56.0033 107.433 57.801 107.932 59.7521 107.368C65.0573 105.782 70.5818 105.63 76.0186 104.891C79.5262 104.414 83.0776 104.11 86.6291 103.871C90.1367 103.632 93.5785 103.805 96.4065 106.434C97.0423 107.02 98.0946 107.15 99.2126 107.585C99.2126 106.564 99.3441 105.912 99.1907 105.326C98.6865 103.306 98.2042 101.286 97.5246 99.3311C96.7134 97.007 96.7573 95.0522 98.7084 93.1842C101.602 90.404 104.364 87.4717 107.105 84.5178C108.508 83.0191 110.174 81.6941 111.073 79.6741C107.631 76.9808 104.978 73.8748 104.606 69.4004C104.584 69.1615 104.496 68.9225 104.386 68.7271C102.194 64.5785 102.063 59.9303 100.923 55.521C100.813 55.0649 100.725 54.5219 100.857 54.0875C101.843 50.9598 102.216 47.68 103.926 44.7695C106.776 39.9475 105.176 35.2559 103.378 30.1951C101.054 31.3028 99.0153 32.302 96.7573 33.388C98.1165 30.6946 101.098 30.8684 103.115 29.2394C102.939 28.5226 102.764 27.7841 102.545 26.8501C101.229 27.4366 100.09 27.871 99.0372 28.414C97.9411 28.9787 96.8888 29.6303 95.8146 30.2385L95.5077 29.6955C97.4807 28.0448 100.024 27.2411 102.391 25.851C101.931 24.3523 101.361 22.9405 101.032 21.4852C100.506 19.1394 98.9934 17.8362 96.7354 17.4669C89.8955 16.3157 83.1215 14.5998 76.0843 14.817C68.8061 15.0342 61.5278 15.1646 54.2495 15.3383C52.6272 15.3818 51.0269 15.4252 49.4046 15.3166C47.2124 15.1646 46.9055 14.4695 48.0893 12.5581C48.5058 11.9065 48.9662 11.2766 49.5581 10.3861C48.9443 10.3861 48.6373 10.3209 48.3743 10.3861C44.0117 11.5807 39.6491 12.7319 35.3304 14.0568C32.5681 14.9039 29.9374 16.2289 27.1533 17.0325C20.2038 19.0308 14.2409 22.4843 9.76872 28.1968C9.19873 28.9136 8.7822 29.8041 8.45336 30.6512C8.01491 31.8241 7.94915 36.2768 8.23414 37.5583L8.27798 37.7972C8.47529 42.1196 8.91374 46.4419 8.80413 50.7426C8.69451 54.8043 7.97107 58.866 7.62031 62.9277C7.48877 64.5567 7.62031 66.2075 7.66415 68.3144C11.2375 66.0337 14.3724 64.0572 17.5074 62.0589L17.8362 62.5585C17.1128 63.0146 16.3893 63.4707 15.6878 63.9268C13.4736 65.4038 11.2814 66.9243 9.04527 68.3361C7.5107 69.2918 7.20378 70.5516 7.75184 72.4847C13.7805 68.0972 20.0723 64.535 26.386 61.038C25.9695 61.581 25.4433 61.9286 24.9172 62.2761C19.8969 65.4907 14.8986 68.7922 9.81256 71.8982C7.57646 73.2666 6.8311 74.9174 7.64223 77.1328C9.8564 78.2189 11.9829 79.1746 14.0217 80.304C16.0824 81.4335 18.0335 82.715 19.4585 84.6481C19.875 85.1911 20.5107 85.6907 21.1465 85.9513C23.3607 86.8419 25.1583 88.0365 25.3556 90.6646C25.3556 90.795 25.5968 90.9904 25.7722 91.2511ZM6.01996 37.5366C5.99804 36.7981 6.1515 36.1247 5.0773 35.951C4.70461 36.885 5.09922 37.2542 6.01996 37.5366ZM22.7688 88.3406L22.3084 88.7098C22.6153 89.0139 22.9003 89.318 23.2072 89.6221L23.4922 89.3614C23.2511 89.0356 23.0099 88.6881 22.7688 88.3406Z" fill="black"/>
<path d="M3.41152 36.6461L4.15688 36.972C4.2665 36.7113 4.55149 36.0597 4.92417 35.2343L5.20916 34.6044L4.63918 34.2352C4.37611 34.0614 4.22265 33.9094 4.15688 33.8008L4.06919 33.5401C4.06919 33.4098 4.17881 33.0623 4.61726 32.5844C6.45875 30.521 8.12486 28.349 9.85674 26.2638C13.4959 21.9197 18.1434 18.8572 23.3391 16.5331C25.5313 15.5557 27.899 14.8172 30.2885 14.1655C37.5887 12.1238 44.9108 10.1907 52.211 8.17072C53.2633 7.86664 54.0964 7.36707 55.4337 6.80234L55.1267 6.06384L54.3814 5.73804C54.1621 6.21589 54.0306 6.60685 53.921 6.88922C53.8114 7.14986 53.7456 7.25847 53.7456 7.25847C52.6933 8.30104 51.5095 9.25674 50.3695 10.2993C49.4707 11.103 48.3965 12.1021 48.1115 13.818L48.0019 14.4696L48.6377 14.7086C49.8434 15.1647 51.0491 15.3167 52.211 15.3167C52.9126 15.3167 53.6141 15.2733 54.2718 15.1864C59.4674 14.6217 64.663 14.4045 69.8806 14.4045C73.0374 14.4045 76.1943 14.4914 79.3511 14.6434C85.5771 14.9475 91.7154 16.2073 97.8976 17.4453C98.9718 17.6625 99.7391 18.0535 100.353 18.6399C100.945 19.2264 101.405 20.0083 101.69 21.0944C102.94 25.8511 104.409 30.4993 105.636 35.2126C105.943 36.3855 106.097 37.5367 106.097 38.6879C106.097 40.5775 105.68 42.4455 104.847 44.2917C103.576 47.0936 102.501 49.9607 101.449 52.8278C101.296 53.2405 101.252 53.6749 101.252 54.0876C101.252 54.522 101.317 54.9564 101.361 55.3474C101.624 56.933 102.085 58.3883 102.26 59.7784C102.83 64.5568 105 68.7272 106.36 72.9844C107.171 75.4605 109.166 77.4153 111.446 78.762C111.709 78.914 112.038 79.2398 112.673 79.7611L113.199 79.1312L112.52 78.6751C111.753 79.6525 111.248 80.6082 110.635 81.2598C107.105 84.9957 103.532 88.6882 99.9144 92.3589C99.2129 93.0757 98.6868 93.7056 98.3141 94.3572C97.9414 95.0088 97.766 95.7256 97.766 96.4641C97.766 97.3546 97.9853 98.2669 98.336 99.3963C99.0814 101.829 99.5637 104.414 99.9144 106.977C99.9583 107.368 100.002 107.672 100.002 107.911L99.9802 108.237L99.9583 108.28L100.112 108.367L100.046 108.193L99.9583 108.258L100.112 108.345L100.046 108.171L100.068 108.215L100.046 108.171L100.068 108.215L100.046 108.171L99.9144 108.193C99.7171 108.193 99.3006 108.128 98.7306 107.976C97.6783 107.715 96.6261 107.498 96.1218 107.064C93.6007 105.044 90.7289 104.37 87.8351 104.37C87.1994 104.37 86.5417 104.392 85.9059 104.457C80.0307 104.957 74.1336 105.543 68.2803 106.26C65.2549 106.629 62.3173 107.324 59.4016 107.911C58.8316 108.019 58.2836 108.084 57.7136 108.084C55.1706 108.084 52.8468 106.912 51.3561 104.826C50.1065 103.045 48.813 101.264 47.4539 99.5484C44.6039 95.9428 40.636 94.2269 36.383 93.445C34.5415 93.1191 32.7 93.1192 30.99 93.0106C28.7759 92.8585 26.6055 92.8368 24.5448 92.511C24.0625 92.4675 23.2076 91.8594 22.791 91.2729C21.4099 89.4918 20.2042 87.4936 18.845 85.5605C16.8939 82.8237 14.1974 81.1078 11.3036 79.7828C10.4486 79.3919 9.54982 78.914 8.54139 78.6099C7.7741 78.371 7.31373 78.0235 6.98489 77.5674C6.65605 77.1112 6.45875 76.5031 6.37106 75.7428C6.28337 74.8089 6.19568 73.8749 6.19568 72.9844C6.19568 72.7454 6.19568 72.5065 6.2176 72.2676C6.56836 65.6429 7.07258 58.9964 7.26988 52.3283C7.2918 51.6984 7.2918 51.0468 7.2918 50.4169C7.2918 47.4195 7.07258 44.4003 6.6999 41.4246C6.4149 39.535 5.09955 38.1449 4.13496 36.2769L3.41152 36.6461L4.15688 36.972L3.41152 36.6461L2.68808 37.0154C3.7842 39.0571 4.94609 40.4689 5.07763 41.6201C5.45031 44.5089 5.66954 47.4629 5.66954 50.3951C5.66954 51.025 5.66954 51.6332 5.64761 52.2631C5.45031 58.8878 4.92417 65.5125 4.59533 72.159C4.57341 72.4196 4.57341 72.6803 4.57341 72.9626C4.57341 73.9618 4.6611 74.9392 4.74879 75.8732C4.83648 76.8289 5.09955 77.7411 5.64761 78.5013C6.19568 79.2616 7.00681 79.848 8.05909 80.1521C8.89215 80.4127 9.7252 80.8471 10.6459 81.2598C13.4082 82.5196 15.8197 84.0835 17.5296 86.4944C18.845 88.3624 20.0726 90.3607 21.5195 92.2721C22.1772 93.0974 23.1418 93.9228 24.3256 94.14C26.5617 94.4875 28.7759 94.5093 30.9024 94.6613C32.7219 94.7916 34.4976 94.7699 36.1199 95.074C40.1537 95.8125 43.6613 97.3764 46.2043 100.569C47.5415 102.263 48.7911 104.001 50.0407 105.782C51.8164 108.323 54.6883 109.757 57.7355 109.757C58.3932 109.757 59.0728 109.692 59.7524 109.561C62.69 108.975 65.6057 108.28 68.4995 107.932C74.3309 107.216 80.2061 106.651 86.0813 106.13C86.6952 106.086 87.2871 106.043 87.879 106.043C90.5316 106.043 92.9431 106.629 95.1134 108.367C96.1438 109.171 97.3933 109.323 98.336 109.583C98.9498 109.735 99.4541 109.844 99.9364 109.844C100.156 109.844 100.397 109.822 100.638 109.735C100.989 109.605 101.339 109.301 101.471 108.953C101.624 108.606 101.646 108.28 101.668 107.911C101.668 107.563 101.624 107.194 101.581 106.76C101.23 104.131 100.726 101.481 99.9364 98.9185C99.5856 97.8325 99.4321 97.0505 99.4321 96.4641C99.4321 95.9645 99.5418 95.5953 99.7829 95.1392C100.024 94.683 100.463 94.1617 101.12 93.4884C104.737 89.8176 108.311 86.1035 111.862 82.3676C112.717 81.4553 113.221 80.4344 113.857 79.5222L114.274 78.914L113.704 78.4362C113.134 77.98 112.805 77.6108 112.257 77.285C110.218 76.0904 108.53 74.3745 107.894 72.3979C106.447 67.9887 104.365 63.927 103.86 59.5177C103.663 57.9104 103.181 56.4334 102.962 54.9999C102.896 54.6741 102.874 54.3265 102.874 54.0225C102.874 53.7401 102.918 53.5012 102.984 53.3274C104.036 50.482 105.11 47.6367 106.36 44.8999C107.302 42.8582 107.763 40.7513 107.763 38.6227C107.763 37.3412 107.587 36.038 107.258 34.7348C106.009 29.978 104.562 25.3081 103.312 20.6165C102.984 19.3133 102.392 18.2273 101.537 17.4019C100.682 16.5765 99.5637 16.0552 98.2702 15.7946C92.0881 14.5565 85.884 13.275 79.4826 12.9492C76.3039 12.7972 73.1251 12.7103 69.9464 12.7103C64.685 12.7103 59.4235 12.9492 54.1621 13.5139C53.5264 13.5791 52.8906 13.6225 52.2768 13.6225C51.2465 13.6225 50.2599 13.4922 49.2953 13.123L49.0104 13.8832L49.8215 14.0135C50.0188 12.884 50.6545 12.2542 51.5534 11.4505C52.6714 10.4514 53.8772 9.45222 54.9952 8.36621C55.3021 8.06212 55.4337 7.73631 55.5652 7.41051C55.6967 7.0847 55.8063 6.7589 55.9817 6.34621L56.8367 4.43481L54.9075 5.26019C53.4825 5.86836 52.6495 6.34621 51.8822 6.56341C44.582 8.58341 37.2599 10.5165 29.9597 12.5582C27.5482 13.2316 25.1148 13.9701 22.7691 15.0126C17.42 17.4019 12.5532 20.5948 8.69485 25.1778C6.91912 27.2847 5.27493 29.4567 3.47729 31.455C2.92922 32.0849 2.53462 32.7148 2.5127 33.4967C2.5127 33.9094 2.64423 34.3221 2.88538 34.6696C3.12653 35.0171 3.43344 35.2995 3.82805 35.5384L4.28842 34.8651L3.54305 34.5393C3.17037 35.3646 2.88538 36.0163 2.77577 36.2769L2.5127 36.6896L2.68808 37.0371L3.41152 36.6461ZM25.7725 91.2512L25.7067 92.0548C29.2143 92.2938 32.7438 92.5761 36.2953 92.7933C39.496 93.0105 42.3678 93.9662 44.6039 96.0948C46.555 97.9411 48.1773 100.265 50.0407 102.415C51.2903 103.849 52.518 105.391 54.0087 106.738C55.1706 107.78 56.6175 108.389 58.174 108.389C58.7659 108.389 59.3797 108.302 59.9935 108.106C65.1673 106.564 70.6479 106.39 76.1285 105.652C79.6142 105.174 83.1437 104.87 86.6732 104.631C87.3528 104.588 88.0105 104.566 88.6463 104.566C91.3427 104.566 93.7323 105.065 95.8149 106.977C96.2753 107.411 96.8234 107.607 97.3276 107.78C97.8537 107.954 98.3799 108.084 98.8841 108.28L100.002 108.714V107.52C100.002 106.912 100.046 106.434 100.046 105.956C100.046 105.674 100.024 105.369 99.9583 105.065C99.4541 103.045 98.9718 101.004 98.2702 99.0054C97.9853 98.1583 97.8099 97.4198 97.8318 96.7465C97.8537 95.6604 98.1826 94.7699 99.2568 93.7273C102.172 90.9254 104.935 87.9714 107.675 85.0174C109.012 83.5622 110.766 82.1938 111.796 79.9349L112.06 79.3484L111.555 78.9575C108.179 76.3076 105.746 73.4188 105.395 69.2484C105.351 68.8358 105.22 68.51 105.066 68.2493C102.984 64.3396 102.83 59.7566 101.668 55.2171C101.602 54.9782 101.559 54.7175 101.559 54.522L101.602 54.2397C102.611 51.025 102.984 47.7887 104.584 45.0737C105.79 43.0537 106.25 40.9902 106.25 38.9702C106.25 35.8859 105.198 32.8668 104.124 29.8259L103.817 28.9571L102.984 29.3481C100.66 30.4558 98.621 31.455 96.363 32.541L96.7137 33.2795L97.4372 33.6487C98.0072 32.541 98.8402 32.0414 99.9583 31.5636C101.054 31.0857 102.392 30.7165 103.575 29.7608L103.97 29.435L103.86 28.9354C103.685 28.2186 103.51 27.4801 103.29 26.5462L103.071 25.5905L102.172 25.9814C100.857 26.5679 99.7391 27.0023 98.621 27.567C97.481 28.1535 96.4068 28.8051 95.3546 29.4133L95.7711 30.1083L96.4726 29.6956L96.1657 29.1526L95.4642 29.5653L95.9903 30.1952C97.7879 28.6748 100.287 27.8711 102.764 26.4376L103.312 26.1118L103.115 25.5036C102.633 23.9832 102.085 22.5713 101.778 21.203C101.493 19.8997 100.901 18.8137 100.046 18.0318C99.191 17.2498 98.0729 16.772 96.8234 16.5548C90.422 15.4905 83.9768 13.8615 77.2466 13.8615C76.83 13.8615 76.4354 13.8615 76.0189 13.8832C68.7625 14.1004 61.4843 14.2307 54.206 14.4045C53.3291 14.4262 52.4741 14.4479 51.6191 14.4479C50.8957 14.4479 50.1503 14.4262 49.4488 14.3828C48.813 14.3393 48.3965 14.2307 48.265 14.1655L48.1992 14.1221L48.1335 14.1873L48.2211 14.1655L48.1992 14.1438L48.1335 14.209L48.2211 14.1873V14.1655C48.1992 14.0569 48.3527 13.5791 48.7911 12.9058C49.1857 12.2759 49.6242 11.646 50.238 10.7554L51.093 9.49566H49.5584C49.2077 9.49566 48.9665 9.47394 48.7034 9.47394C48.55 9.47394 48.3527 9.47394 48.1554 9.53911C43.8147 10.7337 39.4302 11.8849 35.0896 13.2099C32.2396 14.1004 29.6089 15.4036 26.9344 16.1638C19.8753 18.2055 13.737 21.746 9.1333 27.6105C8.49754 28.4358 8.03717 29.3915 7.70833 30.2821C7.53295 30.8034 7.44526 31.4333 7.35757 32.2369C7.2918 33.0188 7.24796 33.9094 7.24796 34.7565C7.24796 35.9511 7.2918 36.9937 7.44526 37.667L7.51103 37.9059L8.32216 37.7322L7.51103 37.7756C7.68641 41.6418 8.05909 45.4863 8.05909 49.2874C8.05909 49.7435 8.05909 50.2214 8.03717 50.6775C7.92756 54.6523 7.20411 58.6923 6.85335 62.8192C6.80951 63.3405 6.78759 63.8835 6.78759 64.4048C6.78759 65.5994 6.85335 66.8375 6.87528 68.271L6.8972 69.748L8.14678 68.9661C11.7202 66.6854 14.8551 64.7089 17.99 62.7106L17.5515 62.0156L16.85 62.45L17.1789 62.9495L17.8804 62.5151L17.4419 61.8201C16.7404 62.2762 15.995 62.7106 15.2716 63.2102C13.0355 64.6872 10.8652 66.2076 8.62908 67.6194C8.01525 68.0104 7.53295 68.4665 7.18219 69.0095C6.85335 69.5742 6.6999 70.2041 6.6999 70.8558C6.6999 71.4205 6.80951 72.0287 6.98489 72.6585L7.31373 73.788L8.2564 73.093C14.2193 68.7489 20.4892 65.2085 26.8028 61.6898L26.4082 60.973L25.7506 60.4734C25.4436 60.8861 25.0052 61.1902 24.4791 61.516C19.4369 64.7306 14.4605 68.0321 9.37444 71.1164C8.47562 71.6594 7.7741 72.2676 7.26988 72.9844C6.76566 73.7011 6.50259 74.5265 6.50259 75.417C6.50259 76.0469 6.63413 76.6768 6.87528 77.3284L6.98489 77.6325L7.2918 77.7846C9.5279 78.8923 11.6325 79.848 13.6493 80.934C15.6662 82.0418 17.4858 83.2581 18.823 85.0392C19.3273 85.7125 20.0507 86.2772 20.8618 86.6248C21.9141 87.0592 22.8349 87.537 23.4487 88.1452C24.0625 88.7751 24.4571 89.4919 24.5448 90.643C24.5887 91.034 24.7641 91.2512 24.8737 91.3815L25.1148 91.6856L25.334 92.0114L25.7286 92.0331L25.7725 91.2512L26.4521 90.7951L26.1452 90.3824L26.1232 90.3389L25.7506 90.5561L26.1452 90.5127L26.1013 90.3389L25.7506 90.5561L26.1452 90.5127C26.0356 89.014 25.4436 87.8411 24.5667 86.994C23.6898 86.1469 22.5937 85.5822 21.4318 85.1043C20.9495 84.9088 20.4015 84.4962 20.0946 84.0617C18.56 81.9766 16.4773 80.6299 14.3947 79.5005C12.3121 78.371 10.1856 77.4153 7.9714 76.3293L7.59872 77.0678L8.36601 76.7854C8.21255 76.2859 8.12486 75.8297 8.12486 75.4388C8.12486 74.874 8.27832 74.4179 8.60716 73.94C8.93599 73.4622 9.46213 72.9844 10.2294 72.5282C15.3374 69.4005 20.3357 66.1207 25.356 62.9061C25.904 62.5586 26.5179 62.1459 27.0221 61.4943L29.4774 58.3448L25.9698 60.2996C19.6561 63.8184 13.3424 67.3805 7.26988 71.8115L7.75218 72.4631L8.54139 72.2459C8.38793 71.7029 8.32216 71.2684 8.32216 70.8992C8.32216 70.4648 8.40985 70.1607 8.58523 69.8783C8.76061 69.596 9.0456 69.3136 9.48406 69.0312C11.764 67.5977 13.9562 66.0773 16.1485 64.6003C16.85 64.1442 17.5515 63.688 18.275 63.2319L18.9765 62.7975L18.2092 61.6246L17.7708 60.9513L17.0692 61.3857C13.9343 63.3839 10.7994 65.3605 7.22604 67.6411L7.66449 68.3362H8.47562C8.4537 66.8592 8.38793 65.6211 8.38793 64.4917C8.38793 63.9921 8.40985 63.5143 8.4537 63.0364C8.80446 59.0181 9.5279 54.9564 9.63751 50.8078C9.65943 50.33 9.65944 49.8521 9.65944 49.3743C9.65944 45.4863 9.28675 41.6201 9.11137 37.7973V37.7322L9.04561 37.4281C8.95792 37.0588 8.89215 35.9945 8.89215 34.8868C8.89215 34.0831 8.91407 33.236 8.97984 32.4976C9.04561 31.7808 9.15522 31.1726 9.22099 30.9771C9.5279 30.1518 9.92251 29.3481 10.4048 28.7182C14.7674 23.1578 20.533 19.8128 27.3728 17.8363C30.2447 17.0109 32.8754 15.686 35.5499 14.8606C39.8467 13.5357 44.2093 12.4062 48.5719 11.1899H48.6815C48.835 11.1899 49.12 11.2116 49.5365 11.2116V10.3428L48.8569 9.88663C48.265 10.7554 47.8046 11.3853 47.3881 12.0804C46.9058 12.8623 46.5989 13.4705 46.577 14.1873C46.577 14.4696 46.6427 14.7954 46.8181 15.0561C47.0812 15.4688 47.4758 15.686 47.8923 15.8163C48.3088 15.9466 48.7692 16.0118 49.3173 16.0552C50.0846 16.0987 50.8518 16.1204 51.6191 16.1204C52.496 16.1204 53.3729 16.0987 54.2498 16.0769C61.5281 15.9249 68.8064 15.7946 76.0847 15.5557C76.4793 15.5339 76.8739 15.5339 77.2685 15.5339C83.7356 15.5339 90.0712 17.1195 96.5822 18.2055C97.5907 18.3793 98.3579 18.7268 98.9498 19.2698C99.5417 19.8128 99.9583 20.5513 100.199 21.5939C100.55 23.1361 101.12 24.5696 101.559 26.0466L102.348 25.8077L101.931 25.1126C99.6733 26.4593 97.1084 27.2412 94.938 29.0223L94.4119 29.4567L95.0696 30.5862L95.4861 31.2812L96.1876 30.8685C97.2837 30.2386 98.3141 29.587 99.3883 29.0657C100.419 28.5444 101.515 28.11 102.852 27.5236L102.523 26.7851L101.734 26.9806C101.953 27.9146 102.129 28.653 102.304 29.3698L103.093 29.1743L102.567 28.5444C101.734 29.2395 100.572 29.587 99.3445 30.1083C98.1387 30.6296 96.8014 31.3898 95.9903 32.9537L94.8942 35.104L97.0864 34.0397C99.3445 32.9537 101.383 31.9545 103.707 30.8468L103.356 30.1083L102.589 30.369C103.663 33.4098 104.628 36.2769 104.628 38.9702C104.628 40.7513 104.233 42.4672 103.181 44.2483C101.361 47.3543 101.011 50.721 100.046 53.7401C99.9583 54.0007 99.9364 54.2614 99.9364 54.5003C99.9364 54.913 100.002 55.2822 100.09 55.608C101.208 59.887 101.339 64.622 103.641 68.9878L103.773 69.357C104.167 74.1572 107.061 77.4588 110.547 80.1955L111.073 79.6525L110.328 79.3267C109.538 81.1295 107.96 82.3893 106.513 83.9531C103.773 86.9071 101.032 89.8177 98.1606 92.5761C96.8234 93.8359 96.2315 95.2912 96.2315 96.7682C96.2315 97.7022 96.4507 98.6144 96.7795 99.5701C97.4372 101.481 97.9195 103.48 98.4237 105.5C98.4456 105.63 98.4675 105.782 98.4675 105.999C98.4675 106.369 98.4237 106.89 98.4237 107.563H99.2568L99.5637 106.803C98.9498 106.564 98.3799 106.412 97.9195 106.26C97.4591 106.108 97.1741 105.956 96.9987 105.804C94.5215 103.501 91.5839 102.937 88.712 102.958C88.0105 102.958 87.309 102.98 86.6294 103.045C83.0779 103.284 79.5046 103.588 75.975 104.066C70.604 104.805 65.0357 104.957 59.577 106.564C59.1166 106.694 58.6563 106.76 58.2178 106.76C57.0998 106.76 56.0694 106.325 55.1487 105.521C53.7895 104.305 52.5837 102.828 51.3122 101.351C49.5146 99.266 47.8704 96.9202 45.7658 94.9219C43.2009 92.4675 39.9125 91.3815 36.4268 91.1643C32.8973 90.9471 29.3459 90.6647 25.8383 90.4258L25.7725 91.2512L26.4521 90.7951L25.7725 91.2512ZM6.0203 37.5367L6.83143 37.515C6.80951 37.2109 6.87528 36.8199 6.6999 36.2769C6.61221 36.0163 6.4149 35.7122 6.15183 35.5167C5.86684 35.3212 5.55993 35.2126 5.20916 35.1474L4.57341 35.0388L4.33226 35.6253C4.20073 35.9294 4.13496 36.2117 4.13496 36.5375C4.11304 37.0154 4.37611 37.4932 4.70495 37.7539C5.03378 38.0362 5.40647 38.1666 5.77915 38.2969L6.8972 38.6444L6.85335 37.515L6.0203 37.5367L6.26145 36.7547C5.97645 36.6679 5.80107 36.5593 5.75723 36.5375L5.7353 36.5158L5.66954 36.581L5.75723 36.5593L5.7353 36.5375L5.66954 36.6027L5.75723 36.581L5.69146 36.6027L5.77915 36.581V36.5593L5.71338 36.581L5.80107 36.5593L5.88876 36.2769L5.12147 35.9728L4.98994 36.7765L5.23109 36.8416L5.29685 36.7765L5.20916 36.8199L5.23109 36.8633L5.29685 36.7982L5.20916 36.8416V36.8851C5.23109 36.972 5.23109 37.2543 5.23109 37.6236L6.0203 37.5367L6.26145 36.7547L6.0203 37.5367ZM22.7691 88.3407L22.243 87.7108L21.7826 88.08L21.103 88.6448L21.7168 89.2746C22.0237 89.5787 22.3087 89.8828 22.6156 90.1869L23.1637 90.7516L24.0406 89.9914L24.6106 89.5136L24.1721 88.9054C23.931 88.5579 23.6898 88.2103 23.4268 87.8628L22.9226 87.146L22.243 87.7108L22.7691 88.3407L22.0895 88.8185C22.3307 89.166 22.5718 89.5136 22.8349 89.8611L23.5145 89.3832L22.9883 88.7751L22.7033 89.0357L23.2295 89.6439L23.8214 89.0792C23.5145 88.7751 23.2295 88.471 22.9226 88.1669L22.3306 88.7316L22.8568 89.3615L23.3172 88.9923L22.7691 88.3407L22.0895 88.8185L22.7691 88.3407Z" fill="#010202"/>
<path d="M23.7996 67.3586C22.3527 68.8139 11.0626 75.5038 9.61572 75.6993C14.0879 72.7453 18.4286 69.5741 23.7996 67.3586Z" fill="black"/>
<path d="M23.7996 67.3588L23.2077 66.794C23.0981 66.9026 22.7692 67.1633 22.3527 67.4674C20.8181 68.5534 17.8367 70.4213 15.0963 71.9852C13.7371 72.7671 12.4218 73.5056 11.3914 74.0269C10.8653 74.2876 10.4268 74.5048 10.0761 74.6568L9.65956 74.8306L9.52803 74.8957H9.5061L9.61572 75.6994L10.0761 76.3727C14.5921 73.397 18.8889 70.2693 24.1284 68.119L23.7996 67.3588L23.2077 66.794L23.7996 67.3588L23.4708 66.6203C18.012 68.8792 13.6056 72.0938 9.13342 75.0261L6.1958 76.9592L9.70341 76.503C10.098 76.4379 10.4268 76.3076 10.9091 76.0904C12.5533 75.3519 15.5348 73.6577 18.319 71.9852C19.7001 71.1598 21.0373 70.3127 22.0896 69.6177C23.1638 68.9009 23.953 68.3579 24.3696 67.9235L27.2195 65.0564L23.4708 66.6203L23.7996 67.3588Z" fill="#010202"/>
</svg>
