<svg xmlns="http://www.w3.org/2000/svg" viewBox="0 0 150.447 150.447" width="150.447" height="150.447">
  <rect width="150.447" height="150.447" style="fill: rgb(255, 255, 255); paint-order: fill; stroke: rgb(255, 255, 255);"/>
  <path d="M 130.02 79.859 C 129.457 84.338 128.518 89.191 127.955 94.043 C 127.016 100.203 123.636 105.055 119.881 109.348 C 115.188 114.574 109.931 119.053 103.547 122.226 C 94.159 126.892 84.208 128.758 73.882 129.132 C 59.988 129.692 47.408 125.585 36.331 116.627 C 28.257 110.281 24.127 101.882 19.996 93.11 C 19.433 91.617 18.869 89.751 19.057 88.258 C 19.433 82.285 19.433 75.939 21.31 70.34 C 23.939 63.061 26.004 55.782 30.322 49.25 C 35.016 41.971 40.273 36.185 47.408 31.519 C 53.416 27.226 59.988 24.613 67.498 24.053 C 68.624 24.053 69.751 23.867 70.878 23.867 C 88.339 20.88 102.42 27.973 114.812 39.171 C 122.322 45.704 125.514 54.849 127.767 63.994 C 129.081 68.474 129.269 74.073 130.02 79.859 Z M 126.077 79.299 C 126.453 65.674 122.698 53.542 113.498 42.904 C 105.237 33.385 94.347 27.599 81.955 26.666 C 69.939 25.546 58.861 29.279 49.661 36.745 C 38.584 45.704 30.886 57.275 26.004 70.153 C 23.751 75.939 22.812 83.032 23.939 89.004 C 26.755 104.682 36.706 115.507 51.163 121.48 C 67.31 128.012 84.02 127.079 99.792 119.613 C 116.69 111.588 126.828 99.083 126.077 79.299 Z" fill="#EB584A"/>
  <path d="M 26.69 97.539 C 27.011 97.164 28.281 95.986 28.453 95.53 C 28.609 95.452 28.797 95.037 28.974 94.879 C 29.214 94.662 29.728 94.609 30.043 94.609 C 31.469 94.609 32.964 94.484 34.331 94.962 C 36.317 95.658 36.929 98.559 37.242 100.343 C 37.374 101.094 37.516 102.345 37.242 103.082 C 36.932 103.915 35.819 103.984 35.061 104.282 C 34.001 104.698 33.313 105.301 32.992 106.412 C 32.812 107.033 32.519 107.63 32.35 108.258 C 32.167 108.939 32.154 109.652 32.034 110.346 C 31.896 111.144 31.816 112.046 31.801 112.857 C 31.795 113.216 31.641 113.551 31.634 113.908 C 31.627 114.233 31.611 114.594 31.508 114.903 C 31.482 114.983 31.494 115.198 31.429 115.248 C 31.198 115.425 30.651 115.423 30.369 115.485 C 29.93 115.581 29.457 115.536 29.011 115.536 C 28.277 115.536 27.554 115.62 26.816 115.62 C 26.284 115.62 23.096 115.724 23.096 115.368 C 23.096 114.289 23.43 113.238 23.43 112.155 C 23.43 111.687 23.522 110.998 23.681 110.56 C 23.799 110.236 23.768 109.898 23.867 109.574 C 23.96 109.273 24.027 108.936 24.095 108.63 C 24.14 108.43 24.257 108.094 24.267 107.919 C 24.3 107.366 24.435 106.807 24.435 106.244 C 24.435 105.805 24.414 105.148 24.56 104.738 C 24.814 104.029 24.695 103.169 24.858 102.436 C 25.089 101.396 24.987 100.263 25.607 99.315 C 25.692 99.184 25.912 99.026 25.942 98.878 C 25.979 98.69 26.099 98.419 26.239 98.287 C 26.462 98.078 26.487 97.775 26.69 97.539 Z" fill="white"/>
  <path d="M 61.623 60.184 C 60.643 60.044 59.383 60.044 58.403 59.624 C 57.563 59.204 56.583 58.784 55.743 58.224 C 54.063 57.244 52.803 55.844 51.403 54.444 C 49.303 52.064 47.203 49.544 46.363 46.464 C 45.943 44.784 45.803 42.964 45.103 41.424 C 45.103 41.284 44.963 41.144 44.823 41.004 C 44.403 40.724 44.123 41.284 43.843 41.704 C 43.283 43.244 43.283 44.924 43.843 46.464 C 44.403 48.144 45.663 49.544 46.503 51.084 C 46.923 51.924 47.343 52.904 47.763 53.744 C 48.323 54.584 48.883 55.424 49.583 56.264 C 50.143 56.964 50.703 57.664 51.403 58.224 C 53.083 59.624 55.183 60.324 57.283 60.884 C 60.363 61.584 63.583 62.004 66.663 61.864 C 66.803 61.864 66.803 61.864 66.943 61.864 C 67.083 61.864 67.083 61.724 67.083 61.584 C 67.083 61.304 67.363 59.904 66.943 59.764 C 66.663 59.624 65.543 60.324 65.263 60.464 C 64.003 60.744 62.883 60.464 61.623 60.184 Z" fill="#BCBCBB"/>
  <path d="M 71.706 64.384 C 71.426 63.544 71.146 62.704 71.006 61.864 C 70.726 60.464 70.726 59.064 70.726 57.664 C 70.726 55.564 70.726 53.464 70.726 51.364 C 70.726 50.104 70.726 48.844 71.006 47.584 C 68.626 51.784 67.506 56.684 67.926 61.444 C 67.926 62.004 68.066 62.704 68.346 63.264 C 68.626 64.104 69.186 64.804 69.746 65.504 C 70.026 65.924 70.306 66.344 70.726 66.764 C 71.006 67.044 72.826 69.844 72.966 68.304 C 73.106 67.744 72.546 66.904 72.266 66.344 C 72.126 65.784 71.986 65.084 71.706 64.384 Z" fill="#BCBCBB"/>
  <path d="M 106.567 100.086 C 107.547 99.246 108.387 98.406 109.227 97.426 C 111.467 94.766 113.007 91.406 114.127 88.186 C 115.247 84.966 116.227 81.606 117.067 78.246 C 117.627 86.226 114.267 94.066 109.787 100.646 C 109.367 101.346 108.947 101.906 108.387 102.466 C 107.967 102.886 107.407 103.166 106.847 103.586 C 102.927 106.106 99.147 108.486 95.227 111.006 C 94.527 111.426 91.727 113.666 91.027 113.106 C 89.767 112.266 92.987 110.726 93.547 110.446 C 96.487 108.486 99.427 106.246 102.227 104.006 C 103.627 102.746 105.167 101.346 106.567 100.086 Z" fill="#BCBCBB"/>
  <path d="M 47.63 105.687 C 46.37 105.547 44.97 105.407 43.85 104.707 C 43.15 104.287 42.59 103.587 41.75 103.167 C 40.91 102.747 40.07 102.607 39.23 102.467 C 37.97 102.327 36.57 102.187 35.31 102.327 C 34.05 102.467 32.79 102.887 31.67 103.727 C 30.41 104.707 29.71 106.247 29.43 107.927 C 29.15 109.467 29.43 111.147 29.71 112.687 C 29.85 113.667 30.13 114.647 30.69 115.487 C 31.81 112.967 32.23 110.027 32.51 107.227 C 32.51 106.807 32.65 106.387 32.79 105.967 C 33.07 105.407 33.77 104.987 34.47 104.707 C 35.59 104.287 36.85 104.007 38.11 104.007 C 38.67 104.007 39.37 104.007 39.79 104.287 C 40.35 104.567 40.77 105.127 41.05 105.687 C 42.31 107.227 43.99 108.487 45.95 108.487 C 46.79 108.487 47.49 108.347 48.19 108.067 C 48.61 107.927 50.85 107.647 50.15 106.807 C 50.15 105.967 48.47 105.967 47.63 105.687 Z" fill="#BCBCBB"/>
  <path d="M 63.87 105.544 C 67.23 106.244 70.59 106.664 74.09 106.524 C 76.33 106.384 78.57 106.104 80.81 105.544 C 84.17 104.844 87.53 104.004 90.61 102.744 C 95.51 100.644 99.85 97.424 103.77 93.784 C 102.79 96.724 100.55 98.964 98.45 101.204 C 97.75 102.044 96.91 102.744 96.07 103.304 C 95.09 104.004 93.97 104.424 92.85 104.704 C 85.29 107.504 77.45 110.304 69.47 109.884 C 64.15 109.604 60.09 108.484 55.61 105.404 C 56.03 105.684 56.87 103.864 57.15 103.584 C 57.85 103.164 58.55 102.324 59.39 102.884 C 60.09 103.444 60.51 104.144 61.35 104.564 C 62.19 105.124 63.03 105.264 63.87 105.544 Z" fill="#BCBCBB"/>
  <path d="M 45.524 93.786 C 43.144 92.386 40.344 92.106 37.544 91.826 C 41.184 91.406 44.964 91.686 48.464 92.806 C 49.024 92.946 49.444 93.086 50.004 93.366 C 50.844 93.786 51.684 94.486 52.664 94.486 C 52.664 95.186 52.384 95.746 52.104 96.306 C 51.824 96.866 51.544 97.426 51.264 97.986 C 51.124 98.406 50.844 99.106 50.564 99.246 C 49.724 99.806 49.584 98.406 49.304 97.846 C 48.604 96.166 47.064 94.626 45.524 93.786 Z" fill="#BCBCBB"/>
  <path d="M 81.226 74.606 C 79.546 74.186 77.586 75.586 77.306 77.266 C 77.166 77.826 77.306 78.526 77.726 78.946 C 78.006 79.226 78.286 79.226 78.706 79.366 C 82.346 80.486 85.986 80.906 89.766 80.766 C 90.326 80.766 90.746 80.766 91.306 80.486 C 91.726 80.346 92.146 79.926 92.706 79.786 C 93.406 79.506 94.106 79.366 94.806 79.086 C 95.506 78.806 96.206 78.246 96.906 77.966 C 100.546 76.006 105.026 76.986 108.946 75.586 C 108.946 75.446 108.806 75.306 108.666 75.306 C 104.746 74.186 100.686 74.046 96.626 74.046 C 93.826 74.046 91.026 74.046 88.226 74.046 C 86.686 74.046 85.006 74.046 83.466 74.046 C 82.206 74.046 80.946 74.046 79.966 74.606" fill="#BCBCBB"/>
  <path d="M 126.849 45.081 C 126.576 45.021 126.135 45.067 125.999 45.036 C 125.619 44.809 125.406 44.475 125.33 44.171 C 124.569 42.426 123.201 40.832 121.91 39.543 C 120.405 37.919 118.961 36.022 117.29 34.505 C 114.569 31.895 111.712 29.255 108.173 27.755 C 105.803 26.8 103.373 26.119 100.518 26.06 C 100.382 26.03 100.245 26 99.972 25.939 C 99.972 25.939 99.972 25.939 99.895 25.635 C 100.897 24.997 102.051 24.966 103.008 25.177 C 104.922 25.601 107.139 25.949 108.962 26.782 C 113.291 28.601 116.847 31.969 120.069 35.55 C 121.33 36.977 122.622 38.266 123.747 39.663 C 125.115 41.256 126.043 42.895 127.107 44.565 C 127.046 44.838 127.016 44.975 126.849 45.081 Z" fill="black"/>
  <path d="M 127.349 33.147 C 126.302 33.345 125.846 32.814 125.557 32.177 C 123.261 28.944 120.253 26.988 116.608 25.32 C 115.301 24.744 114.192 23.925 112.779 23.182 C 118.52 24.453 123.381 27.107 126.878 32.039 C 127.258 32.266 127.197 32.54 127.349 33.147 Z" fill="black"/>
  <path d="M 63.582 85.492 C 63.229 84.502 63.081 83.685 62.804 82.83 C 62.309 80.473 61.814 78.116 61.395 75.893 C 60.947 73.992 61.253 72.095 61.871 70.181 C 61.948 70.315 62.154 70.487 62.048 70.676 C 62.049 75.536 63.74 80.348 64.365 85.173 C 64.236 85.135 64.053 85.19 63.582 85.492 Z" fill="black"/>
  <path d="M 58.037 73.247 C 58.084 73.703 58.079 74.253 58.073 74.803 C 57.814 77.156 57.815 79.586 58.675 81.831 C 58.699 82.059 58.593 82.248 58.487 82.437 C 58.227 82.36 57.786 82.338 57.45 82.127 C 57.114 81.917 57.067 81.461 57.096 81.138 C 56.707 78.592 56.318 76.047 57.124 73.526 C 57.177 73.432 57.23 73.337 57.466 73.187 C 57.725 73.264 57.725 73.264 58.037 73.247 Z" fill="black"/>
  <path d="M 82.915 37.5 C 85.015 37.08 86.975 37.22 88.795 37.5 C 90.755 37.78 92.435 38.06 94.395 38.62 C 95.375 38.9 96.355 39.18 97.195 39.74 C 98.035 40.16 98.875 40.58 99.715 41.14 C 101.395 42.26 102.795 43.38 104.335 44.5 C 105.035 45.06 105.875 45.76 106.575 46.46 C 107.275 47.16 107.835 47.86 108.535 48.56 C 109.095 49.26 109.795 49.82 110.495 50.66 C 111.195 51.36 111.755 52.2 112.175 53.04 C 113.155 54.72 113.995 56.54 114.555 58.22 C 115.255 60.04 115.815 61.72 116.375 63.54 C 117.075 65.36 116.795 67.32 117.215 69.14 C 117.495 70.96 117.635 72.92 117.775 74.74 C 117.915 76.56 118.055 78.38 118.055 80.34 C 118.055 82.16 117.915 84.26 117.355 86.08 C 117.075 87.06 116.795 87.9 116.375 88.74 C 116.095 89.58 115.815 90.42 115.395 91.4 C 114.835 93.22 113.995 94.9 112.875 96.58 C 112.035 97.98 110.915 99.38 109.935 100.92 C 109.655 101.34 109.515 101.76 109.235 102.18 C 108.955 102.6 108.535 103.02 108.255 103.3 C 107.555 104 106.715 104.42 106.015 104.98 C 102.935 107.08 99.995 109.32 96.775 111.28 C 95.095 112.26 93.415 113.1 91.595 113.66 C 89.775 114.22 87.955 114.5 86.135 114.92 C 82.495 115.62 78.715 116.04 74.935 116.18 C 71.155 116.32 67.375 115.76 63.735 114.78 C 61.915 114.22 60.095 113.66 58.415 112.96 C 56.735 112.26 55.055 111.42 53.375 110.3 C 52.535 109.74 51.835 109.18 51.135 108.48 C 50.435 107.78 51.135 107.92 50.435 108.06 C 50.015 108.2 49.595 108.34 49.035 108.48 C 48.615 108.62 48.055 108.76 47.495 108.76 C 47.075 108.76 46.655 108.9 46.095 108.9 C 45.815 108.9 45.535 108.9 45.395 108.9 C 45.115 108.76 44.835 108.76 44.695 108.76 C 44.275 108.62 43.715 108.62 43.155 108.34 C 42.595 108.06 42.175 107.78 41.895 107.36 L 41.055 106.24 C 40.495 105.54 39.935 105.26 39.095 104.98 C 37.415 104.56 35.595 104.56 34.475 105.54 C 33.495 106.38 33.075 108.48 32.655 110.16 C 32.235 111.98 32.095 113.66 32.095 115.48 L 32.095 116.32 L 31.255 116.46 C 28.455 117.02 25.515 117.02 22.715 117.02 L 22.715 114.5 C 25.515 114.64 28.175 114.78 30.975 114.5 L 30.135 115.48 C 30.135 113.52 30.415 111.7 30.835 109.74 C 31.115 108.76 31.255 107.92 31.675 106.94 C 31.955 106.1 32.515 104.98 33.355 104.28 C 34.335 103.58 35.455 103.3 36.435 103.3 C 37.415 103.3 38.395 103.44 39.375 103.72 C 39.935 103.86 40.355 104 40.915 104.42 C 41.335 104.7 41.755 105.12 42.035 105.54 L 42.875 106.66 C 43.155 106.94 43.435 107.22 43.715 107.36 C 44.415 107.64 45.255 107.78 46.095 107.78 C 46.515 107.78 47.075 107.78 47.495 107.78 C 47.915 107.78 48.335 107.78 48.755 107.64 C 49.175 107.5 49.595 107.36 50.155 107.36 C 50.435 107.36 50.575 107.08 51.135 107.36 C 51.415 107.5 51.415 107.64 51.415 107.64 L 51.555 107.78 L 51.835 107.78 C 52.395 108.48 53.095 109.04 53.795 109.6 C 56.735 111.7 60.375 112.82 63.875 113.66 C 67.515 114.5 71.155 114.92 74.795 114.78 C 78.435 114.64 82.075 114.22 85.715 113.52 C 87.535 113.24 89.355 112.96 91.035 112.4 C 92.715 111.84 94.395 111.14 95.935 110.16 C 99.155 108.34 102.095 106.1 105.035 104 C 105.735 103.44 106.575 102.88 107.135 102.32 C 107.835 101.76 108.115 101.2 108.675 100.22 C 109.655 98.54 110.775 97.14 111.755 95.6 C 112.735 94.06 113.575 92.52 114.135 90.7 C 114.415 89.86 114.695 88.88 115.115 88.04 C 115.395 87.2 115.815 86.36 115.955 85.52 C 117.075 82.16 116.515 78.38 116.375 74.74 C 116.235 72.92 116.095 71.1 115.815 69.28 C 115.675 67.46 114.695 65.78 114.275 64.1 C 113.155 60.6 111.895 57.1 110.075 54.16 C 109.655 53.46 109.095 52.76 108.535 52.06 C 107.975 51.5 107.275 50.8 106.715 50.1 C 106.155 49.4 105.455 48.7 104.895 48.14 C 104.335 47.58 103.635 47.02 102.935 46.46 C 101.535 45.34 99.995 44.22 98.595 43.24 C 97.895 42.82 97.055 42.4 96.215 41.98 C 95.375 41.56 94.675 41.28 93.835 41.14 C 90.335 40.44 86.555 39.6 83.335 40.3 L 82.915 37.5 Z" fill="black"/>
  <path d="M 21.873 116.88 C 22.573 112.82 22.853 108.76 23.693 104.56 C 24.113 102.46 24.533 100.36 25.373 98.4 C 26.213 96.44 27.473 94.48 29.433 93.22 C 31.393 91.96 33.353 91.54 35.453 90.98 C 37.553 90.56 39.653 90.42 41.753 90.56 C 45.953 90.7 50.153 91.96 53.793 94.2 L 52.953 94.34 C 53.793 93.22 54.913 92.24 56.173 91.68 C 57.433 91.12 58.833 90.7 60.233 90.56 C 61.633 90.42 62.893 90.28 64.293 90.28 C 65.553 90.28 66.953 90.42 68.353 90.56 L 67.653 90.98 C 68.073 89.58 68.633 88.04 69.333 86.64 C 69.613 85.94 70.173 85.1 71.013 84.68 C 71.713 84.26 72.413 83.84 73.253 83.7 L 72.833 84.82 C 71.993 83.7 71.433 82.3 71.153 81.04 C 70.873 79.78 70.733 78.38 70.733 77.12 C 70.733 75.86 70.593 74.6 70.873 73.2 C 71.153 71.8 71.853 70.54 72.553 69.42 L 72.833 70.26 C 71.993 69.7 71.433 69 70.873 68.3 C 70.313 67.6 69.893 66.9 69.473 66.2 C 68.493 64.8 67.793 62.98 67.513 61.3 C 66.813 57.8 67.093 54.16 68.493 50.94 C 69.053 49.26 69.893 47.72 70.593 46.32 C 71.013 45.62 71.433 44.78 71.853 44.08 C 72.413 43.24 72.973 42.54 73.673 41.98 C 76.473 39.74 79.693 38.2 83.193 37.36 L 83.753 39.88 C 80.673 40.44 77.733 41.7 75.213 43.66 C 73.953 44.64 73.253 45.76 72.413 47.3 C 71.433 48.98 70.593 50.38 70.033 51.92 C 68.773 54.86 68.353 58.08 68.913 61.16 C 69.193 62.7 69.753 64.1 70.593 65.5 C 71.013 66.2 71.433 66.9 71.993 67.6 C 72.413 68.3 72.973 68.86 73.533 69.28 L 73.953 69.56 L 73.673 70.12 C 73.253 71.38 72.833 72.36 72.693 73.48 C 72.553 74.6 72.693 75.86 72.693 77.12 C 72.693 79.64 72.833 82.02 73.953 84.12 L 74.373 84.96 L 73.533 85.24 C 72.833 85.38 72.273 85.66 71.713 86.08 C 71.153 86.5 70.873 86.92 70.593 87.62 C 69.893 88.88 69.473 90.28 69.053 91.82 L 68.633 92.24 L 68.073 92.24 C 66.813 92.24 65.553 92.24 64.293 92.38 C 63.033 92.52 61.773 92.52 60.513 92.8 C 58.133 93.22 55.893 94.06 53.933 95.6 L 53.513 96.02 L 53.093 95.74 C 49.733 93.64 45.673 92.52 41.613 92.24 C 39.653 92.1 37.553 92.24 35.593 92.66 C 33.633 93.08 31.673 93.64 29.993 94.62 C 28.453 95.6 27.193 97.28 26.493 99.1 C 25.793 100.92 25.373 102.88 24.953 104.98 C 24.253 109.04 23.833 113.1 23.133 117.3 L 21.873 116.88 Z" fill="black"/>
  <path d="M 69.474 51.22 C 67.654 51.92 65.834 51.5 64.154 50.94 C 63.314 50.66 62.614 50.38 61.774 50.1 C 60.934 49.82 60.234 49.4 59.534 48.84 C 58.274 47.72 57.014 46.46 56.174 45.06 C 55.334 43.52 54.634 41.84 54.494 40.02 L 55.054 40.72 C 53.094 40.3 51.134 40.3 49.174 40.44 C 48.194 40.58 47.214 40.72 46.374 41 L 44.974 41.42 C 44.554 41.56 44.134 41.7 44.134 41.84 C 44.134 41.84 44.134 41.7 44.134 41.84 C 44.134 41.98 44.134 42.12 44.134 42.26 C 44.134 42.68 44.274 43.1 44.414 43.52 L 44.974 45.06 L 45.394 46.46 C 46.094 48.42 46.794 50.24 47.774 51.92 C 48.754 53.74 49.734 55.42 51.134 56.82 C 52.394 58.22 54.214 59.2 56.174 59.76 C 57.154 60.04 58.134 60.46 59.114 60.74 C 60.094 61.02 61.074 61.3 62.054 61.44 C 64.014 61.72 66.114 61.72 68.074 61.58 L 68.074 62.98 C 65.974 62.84 63.874 62.98 61.774 62.7 L 58.694 62.14 C 57.714 61.86 56.734 61.58 55.614 61.3 C 53.654 60.6 51.554 59.76 49.874 58.22 C 48.194 56.68 47.074 54.86 45.954 53.18 C 44.834 51.36 43.854 49.4 43.154 47.44 L 42.594 45.9 L 42.034 44.5 C 41.894 43.94 41.614 43.38 41.614 42.82 C 41.614 42.54 41.474 42.12 41.614 41.7 C 41.614 41.56 41.614 41.14 41.754 40.86 C 41.894 40.58 42.034 40.3 42.174 40.16 C 42.874 39.46 43.574 39.32 44.134 39.18 L 44.834 39.04 C 45.114 39.04 45.394 38.9 45.674 38.9 C 46.794 38.62 47.914 38.48 48.894 38.48 C 51.134 38.48 53.234 38.9 55.334 39.74 L 55.894 40.02 L 55.894 40.44 C 55.754 41.98 56.034 43.52 56.874 45.06 C 57.574 46.46 58.694 47.72 59.954 48.7 C 60.654 49.26 61.354 49.54 62.054 49.82 C 62.894 50.1 63.594 50.38 64.434 50.52 C 65.974 50.94 67.654 51.08 68.914 50.24 L 69.474 51.22 Z" fill="black"/>
  <path d="M 50.591 100.078 L 50.031 100.498 C 50.871 98.398 51.571 95.598 53.391 94.198 L 54.231 95.318 C 52.551 96.438 51.291 98.118 50.591 100.078 Z" fill="black"/>
  <path d="M 110.075 76.279 C 108.955 75.579 106.155 75.719 104.755 75.439 C 103.355 75.159 101.675 74.879 100.135 74.879 C 97.195 74.879 95.095 74.879 92.155 75.019 C 89.215 75.299 86.275 75.159 83.475 75.299 C 82.075 75.439 80.675 75.579 79.275 75.859 C 78.715 75.999 78.155 76.279 77.875 76.699 C 77.735 76.839 77.595 77.119 77.595 77.399 C 77.455 77.679 77.595 77.819 77.595 77.679 C 77.455 77.539 77.735 77.819 77.875 77.819 C 78.015 77.959 78.155 77.959 78.295 78.099 C 78.575 78.239 78.855 78.379 79.135 78.659 C 79.695 78.939 80.395 79.219 81.095 79.499 C 82.355 79.919 83.755 80.199 85.155 80.479 C 87.955 80.899 90.895 80.899 93.695 80.899 C 96.635 80.899 99.575 80.899 102.235 80.479 C 103.635 80.199 104.895 79.919 106.295 79.359 C 107.695 78.939 108.675 78.379 109.795 77.399 L 111.055 76.279 L 111.055 77.819 C 110.915 83.979 108.675 89.999 104.895 94.759 C 103.915 96.019 103.075 97.139 102.095 98.259 C 101.115 99.379 100.135 100.499 99.015 101.619 C 97.895 102.739 96.775 103.719 95.375 104.419 C 93.975 105.259 92.575 105.679 91.175 106.239 C 85.575 108.199 79.695 109.879 73.535 110.159 C 67.515 110.439 61.215 109.319 56.035 105.959 L 55.335 105.539 L 56.035 104.979 C 57.155 103.999 57.995 102.739 58.975 101.479 C 59.395 100.779 60.235 100.079 61.075 99.799 C 61.915 99.519 62.615 99.239 63.455 99.099 C 66.535 98.259 69.615 97.559 72.135 95.879 C 74.655 94.199 77.175 92.099 78.015 89.159 C 78.435 87.759 78.435 86.219 78.015 84.679 C 77.595 83.279 76.615 81.879 76.335 80.199 L 76.755 80.899 C 77.735 82.159 78.295 82.859 78.715 84.399 C 79.275 85.939 79.275 87.759 78.855 89.299 C 78.435 90.979 77.595 92.379 76.475 93.639 C 75.355 94.899 74.095 95.739 72.695 96.719 C 69.895 98.539 66.675 99.239 63.735 100.219 C 63.035 100.499 62.195 100.639 61.635 100.919 C 60.935 101.199 60.515 101.619 60.095 102.179 C 59.255 103.439 58.275 104.839 57.015 105.959 L 56.875 104.839 C 61.635 108.339 67.655 109.459 73.535 109.179 C 79.415 108.899 85.155 107.219 90.895 105.259 C 92.295 104.839 93.695 104.279 94.955 103.579 C 96.215 102.879 97.335 101.899 98.315 100.919 C 100.415 98.819 102.235 96.439 104.055 94.199 C 107.695 89.579 109.655 83.839 109.795 77.959 L 111.055 78.379 C 110.635 79.079 110.075 79.639 109.375 80.059 C 108.675 80.479 107.975 80.899 107.275 81.179 C 105.875 81.879 104.335 82.299 102.935 82.579 C 99.855 83.139 96.915 82.999 93.975 82.999 C 91.035 82.999 88.095 82.859 85.155 82.439 C 83.615 82.159 82.215 81.879 80.815 81.319 C 80.115 81.039 79.415 80.759 78.715 80.339 C 78.435 80.199 78.015 79.919 77.735 79.779 C 77.595 79.639 77.455 79.639 77.315 79.499 C 77.175 79.359 77.035 79.359 76.755 78.939 C 76.195 78.239 76.335 77.539 76.475 77.119 C 76.615 76.699 76.895 76.279 77.175 75.859 C 77.875 75.019 78.715 74.739 79.415 74.599 C 80.955 74.179 82.355 74.179 83.895 74.039 C 86.835 73.899 89.775 74.179 92.575 74.039 C 95.515 73.899 98.455 73.759 101.395 73.899 C 102.935 74.039 104.335 74.179 105.735 74.459 C 107.135 74.739 108.955 74.739 110.215 75.579 L 110.075 76.279 Z" fill="black"/>
  <path d="M 81.084 96.297 C 81.224 96.577 81.504 96.717 81.784 96.717 C 82.064 96.717 82.343 96.577 82.483 96.437 C 82.903 96.157 82.763 95.597 82.623 95.457 C 82.483 95.317 82.343 95.317 82.063 95.317 C 81.924 95.317 81.784 95.317 81.784 95.317 C 81.784 95.317 81.504 95.317 81.364 95.597 C 81.084 95.737 80.944 96.017 81.084 96.297 Z M 80.944 96.437 C 80.804 96.157 80.524 95.877 80.524 95.457 C 80.385 95.038 80.524 94.478 80.944 94.198 C 81.364 93.918 82.063 93.918 82.343 94.058 C 82.763 94.198 83.043 94.478 83.323 94.898 C 83.882 95.737 83.323 96.717 82.763 97.136 C 82.343 97.276 81.924 97.276 81.644 97.136 C 81.364 96.856 81.084 96.717 80.944 96.437 Z" fill="black"/>
  <path d="M 90.198 99.656 C 90.338 99.936 90.478 99.936 90.758 99.936 C 91.038 99.936 91.178 99.796 91.178 99.656 C 91.458 99.376 91.318 98.956 91.178 98.956 C 91.178 98.956 91.038 98.956 90.758 98.956 C 90.618 98.956 90.618 98.956 90.618 98.956 C 90.618 98.956 90.478 98.816 90.198 98.956 C 90.198 99.096 90.058 99.376 90.198 99.656 Z M 90.058 99.656 C 89.919 99.376 89.779 99.236 89.639 98.816 C 89.499 98.537 89.639 97.977 90.058 97.697 C 90.478 97.417 91.038 97.417 91.318 97.557 C 91.597 97.697 91.877 97.837 92.157 98.257 C 92.577 99.096 92.157 99.936 91.597 100.216 C 91.318 100.355 90.898 100.355 90.618 100.216 C 90.338 100.076 90.198 99.936 90.058 99.656 Z" fill="black"/>
  <path d="M 83.333 102.038 C 83.473 102.318 83.612 102.318 83.892 102.318 C 84.172 102.318 84.312 102.178 84.312 102.038 C 84.592 101.758 84.452 101.338 84.312 101.338 C 84.312 101.338 84.172 101.338 83.892 101.338 C 83.752 101.338 83.752 101.338 83.752 101.338 C 83.752 101.338 83.612 101.198 83.333 101.338 C 83.333 101.478 83.193 101.758 83.333 102.038 Z M 83.193 102.038 C 83.053 101.758 82.913 101.618 82.773 101.198 C 82.633 100.918 82.773 100.359 83.193 100.079 C 83.612 99.799 84.172 99.799 84.452 99.939 C 84.732 100.079 85.012 100.219 85.291 100.639 C 85.711 101.478 85.291 102.318 84.732 102.597 C 84.452 102.737 84.032 102.737 83.752 102.597 C 83.473 102.457 83.333 102.318 83.193 102.038 Z" fill="black"/>
  <path d="M 86.411 95.041 C 86.411 95.461 86.831 95.741 87.111 95.741 C 87.531 95.741 87.951 95.741 88.231 95.601 C 88.511 95.461 88.791 95.321 88.931 95.041 C 89.071 94.761 89.071 94.481 89.071 94.201 C 89.071 94.201 89.071 94.201 88.931 94.201 C 88.791 94.201 88.651 94.061 88.511 94.061 C 88.231 94.061 87.951 94.061 87.671 94.061 C 87.391 94.061 87.111 94.201 86.831 94.341 C 86.411 94.621 86.411 94.621 86.411 95.041 Z M 85.991 95.321 C 85.991 94.901 85.991 94.481 86.131 93.921 C 86.271 93.501 86.691 92.941 87.251 92.801 C 87.811 92.661 88.371 92.661 88.791 92.801 C 89.071 92.941 89.351 93.081 89.491 93.221 C 89.631 93.361 89.771 93.361 89.911 93.641 C 90.051 93.781 90.051 94.061 90.051 94.201 C 90.051 94.481 89.911 94.761 89.911 94.901 C 89.911 95.181 89.771 95.461 89.491 95.601 C 89.211 96.021 88.651 96.301 88.231 96.301 C 87.811 96.301 87.251 96.301 86.971 96.021 C 86.831 95.881 86.551 95.881 86.411 95.741 C 86.271 95.741 86.131 95.601 85.991 95.321 Z" fill="black"/>
  <path d="M 81.927 88.319 C 81.787 88.739 82.207 88.879 82.627 88.879 C 83.047 88.879 83.327 88.879 83.607 88.739 C 83.887 88.599 84.027 88.459 84.167 88.319 C 84.307 88.179 84.307 87.619 84.307 87.479 C 84.307 87.339 84.307 87.479 84.307 87.619 C 84.307 87.619 84.167 87.619 84.027 87.619 C 83.747 87.619 83.467 87.619 83.187 87.619 C 82.907 87.619 82.627 87.619 82.487 87.619 C 82.207 87.619 81.927 88.039 81.927 88.319 Z M 81.787 88.459 C 81.787 88.039 81.647 87.619 81.787 87.199 C 81.927 86.639 82.487 86.359 82.907 86.219 C 83.327 86.079 83.887 86.219 84.307 86.359 C 84.587 86.499 84.727 86.499 85.007 86.639 C 85.147 86.779 85.287 87.059 85.427 87.199 C 85.427 87.339 85.427 87.619 85.427 87.759 C 85.287 88.179 85.287 88.599 85.007 89.019 C 84.727 89.439 84.167 89.719 83.747 89.719 C 83.327 89.719 82.907 89.579 82.487 89.439 C 82.347 89.299 82.207 89.299 81.927 89.159 C 81.927 88.879 81.787 88.599 81.787 88.459 Z" fill="black"/>
  <path d="M 96.639 92.798 C 96.919 92.798 97.339 92.798 97.759 92.798 C 98.039 92.658 98.179 92.518 98.319 92.238 C 98.459 91.958 98.319 91.678 98.319 91.398 L 98.459 91.538 C 98.599 91.538 98.459 91.538 98.319 91.538 L 97.759 91.538 C 97.479 91.538 97.059 91.538 96.919 91.678 C 96.639 91.818 96.639 91.818 96.359 91.958 C 96.219 92.098 96.219 92.098 96.079 92.098 C 96.079 92.098 95.939 92.098 95.939 92.238 C 95.939 92.518 96.359 92.798 96.639 92.798 Z M 96.639 92.938 C 96.219 92.938 95.939 93.078 95.379 92.798 C 95.099 92.658 94.959 92.238 94.959 91.818 C 94.959 91.538 95.099 91.258 95.239 91.118 C 95.519 90.698 96.079 90.418 96.499 90.278 C 96.919 90.278 97.339 90.278 97.759 90.278 L 98.319 90.418 C 98.459 90.418 98.459 90.418 98.739 90.558 C 98.879 90.558 99.019 90.838 99.019 90.978 C 99.019 91.118 99.019 91.258 99.019 91.258 C 99.019 91.678 98.879 92.098 98.739 92.518 C 98.599 92.938 98.039 93.218 97.619 93.078 C 97.339 92.938 97.059 92.938 96.639 92.938 Z" fill="black"/>
  <path d="M 91.31 88.458 C 91.59 88.738 91.87 88.738 92.29 88.598 C 92.57 88.458 92.85 88.318 93.13 88.178 C 93.41 88.038 93.55 87.758 93.55 87.478 C 93.55 87.338 93.69 87.198 93.55 87.198 L 93.69 87.338 C 93.41 87.338 92.99 87.338 92.71 87.338 C 92.43 87.338 92.29 87.478 92.01 87.478 C 91.73 87.618 91.45 87.618 91.31 87.758 C 91.03 87.758 91.03 88.178 91.31 88.458 Z M 91.17 88.598 C 90.89 88.318 90.47 88.038 90.61 87.478 C 90.61 86.918 91.03 86.498 91.45 86.218 C 91.87 85.938 92.43 85.938 92.85 85.938 C 93.27 86.078 93.55 86.078 93.97 86.218 C 94.11 86.218 94.39 86.358 94.53 86.638 C 94.67 86.778 94.67 87.058 94.67 87.198 C 94.67 87.478 94.53 87.758 94.39 87.898 C 94.11 88.318 93.83 88.598 93.41 88.738 C 92.57 89.158 91.73 89.018 91.17 88.598 Z" fill="black"/>
  <path d="M 86.975 44.366 C 92.435 43.946 97.896 45.626 101.956 49.266 C 103.636 50.526 104.055 52.906 104.335 54.866 C 104.335 55.986 103.915 57.246 103.075 57.946 C 101.535 59.066 98.876 59.066 97.056 58.366 C 94.956 57.526 94.255 54.866 92.575 53.326 C 89.775 50.806 85.716 51.786 82.356 51.506 C 81.656 51.366 80.816 51.226 80.396 50.666 C 79.836 49.546 79.836 47.586 80.536 46.606 C 81.936 44.926 85.155 44.366 86.975 44.366 Z" fill="#BCBCBB"/>
</svg>