<svg width="57" height="59" viewBox="0 0 57 59" fill="none" xmlns="http://www.w3.org/2000/svg">
<path d="M37.2162 46.5917C37.5934 46.594 37.8568 47.0036 37.8504 47.376C37.844 47.7484 37.6475 48.0899 37.46 48.4112C37.1253 48.9676 36.7958 49.5286 36.461 50.085C35.6318 51.4779 34.6449 52.9923 33.0669 53.393C31.8519 53.7073 30.5846 53.2649 29.4069 52.8283C29.1238 52.7223 28.8152 52.6027 28.6534 52.3422C28.5404 52.1639 28.5146 51.9418 28.5038 51.724C28.3964 49.7542 29.0752 47.8274 29.8438 46.0105C30.3461 44.8311 30.9178 43.6486 31.8418 42.7672C32.771 41.8906 34.1398 41.3756 35.3604 41.7755C35.9152 41.9582 36.3893 42.3133 36.8158 42.7103C37.3618 43.2159 37.8533 43.8233 38.0428 44.5439C38.4919 46.2001 37.3202 47.7925 36.6847 49.3899" fill="white"/>
<path d="M13.5194 41.2692C13.2334 41.1039 12.9507 40.9036 12.7828 40.6187C12.5978 40.29 12.5981 39.8931 12.6341 39.5194C12.7707 38.1687 13.3864 36.8751 14.336 35.9133C14.7421 35.4976 15.2157 35.1433 15.738 34.8711C17.4599 33.9777 19.6668 34.0639 21.2929 35.1444C23.5396 36.6376 23.4204 39.2426 21.481 40.8555C19.2847 42.6886 15.9258 42.6806 13.5194 41.2692Z" fill="white"/>
<path d="M7.3368 25.9935C7.23744 25.7898 7.21578 25.5527 7.20453 25.325C7.15253 24.4742 7.11886 23.5928 7.40683 22.7957C8.82984 18.8705 17.5387 19.3349 16.9761 24.1082C16.776 25.7792 15.4403 27.4582 13.8281 27.9596C12.2065 28.4712 8.17846 27.6659 7.3368 25.9935Z" fill="white"/>
<path d="M28.6859 34.1532C27.184 33.6674 25.7108 32.9619 24.651 31.791C23.911 30.9673 23.4096 29.9539 23.016 28.9158C21.6768 25.4019 21.4761 21.3443 23.0992 17.961C24.7223 14.5776 28.3533 12.0832 32.0937 12.4009C35.2165 12.6678 37.8812 14.7017 40.2782 16.7381C41.6655 17.9137 43.0506 19.144 44.0243 20.681C46.0199 23.8272 47.5222 30.9391 43.8459 33.4207C39.9963 36.0096 32.8693 35.5067 28.6859 34.1532Z" fill="white"/>
<path d="M35.829 43.1704C36.4093 42.8657 38.3148 49.5045 34.668 49.1976C31.6336 48.9366 34.3302 43.9644 35.829 43.1704Z" fill="#BCBCBB"/>
<path d="M22.726 37.1622C24.0503 38.9612 20.7455 44.4779 18.5513 41.8411C16.4838 39.3572 20.9552 34.7588 22.726 37.1622Z" fill="#BCBCBB"/>
<path d="M17.2755 23.3382C17.2835 23.9034 16.9609 24.4047 16.6416 24.871C16.0626 25.7066 15.4473 26.5092 14.8012 27.2934C13.8926 28.3874 12.4507 29.7345 10.9128 29.0368C9.4919 28.3982 8.97154 26.1003 9.59019 24.7617C10.4371 22.9213 17.2139 19.6794 17.2755 23.3382Z" fill="#BCBCBB"/>
<path d="M36.2836 29.2225C37.3797 26.502 39.1585 23.6358 42.0435 23.0704C44.3679 22.6104 46.7371 23.8552 48.4227 25.5287C48.8403 25.946 49.2401 26.4039 49.3873 26.9727C49.6124 27.8108 49.2485 28.6811 48.8293 29.4349C47.1832 32.3744 44.4646 34.6986 41.3067 35.8672C39.7473 36.4456 34.9053 37.7766 33.5543 36.2464C32.104 34.6165 35.6381 30.8204 36.2836 29.2225Z" fill="#BCBCBB"/>
<path d="M26.6171 12.5633C27.2904 11.9369 28.2291 11.0602 29.1735 10.198C31.0147 8.5156 33.1725 8.32134 35.4357 9.05464C36.0153 9.24105 36.612 9.77386 36.9114 10.3105C37.6188 11.5772 38.2302 12.9079 38.729 14.2686C39.521 16.4439 40.7125 18.2735 42.6521 19.5822C44.3198 20.7102 46.034 21.7764 47.651 22.9811C48.5779 23.6722 49.4909 24.483 50.1572 25.4193C51.5686 27.3824 50.9569 29.9552 48.8967 31.2212C46.9952 32.3856 45.1097 33.5741 43.159 34.6466C40.6098 36.0543 37.7927 36.5569 34.924 36.4171C32.99 36.3232 31.0634 35.8768 29.158 35.4593C28.1952 35.246 27.2193 34.8696 26.3658 34.3586C21.6285 31.5378 21.079 29.252 21.4359 24.1318C21.5548 22.425 22.056 20.7254 22.5648 19.0799C22.919 17.9178 23.4778 16.7809 24.1212 15.7492C24.7593 14.7127 25.6174 13.8099 26.6171 12.5633ZM41.1557 29.4423C41.1956 29.3462 41.2402 29.245 41.2801 29.1489C42.4682 29.6047 43.6474 30.0807 44.8397 30.5215C46.5267 31.1376 46.8786 31.032 47.9912 29.6611C48.169 29.4446 48.326 29.2092 48.4731 28.9742C49.5765 27.2169 49.375 25.7482 47.7808 24.4035C47.0978 23.8301 46.3395 23.3395 45.6052 22.8329C44.2701 21.9128 42.8885 21.0543 41.5901 20.0729C39.8636 18.7592 38.5777 17.1275 37.9163 14.9857C37.5038 13.6657 36.7056 12.4677 36.1607 11.1786C35.7006 10.0988 34.8458 9.6623 33.7955 9.58699C32.4912 9.48873 31.2657 9.67944 30.162 10.5291C28.141 12.086 26.551 14.0345 25.1309 16.1091C23.2808 18.8136 22.5781 21.956 22.3691 25.1499C22.2678 26.712 22.3017 28.501 23.5435 29.7429C25.7453 31.9422 28.2296 33.7366 31.389 34.3391C31.8799 34.4354 32.367 34.5566 32.8541 34.6779C34.6822 35.1387 36.5128 35.1481 38.3336 34.657C39.5768 34.3216 40.8081 33.9471 42.0234 33.5486C42.6188 33.3523 43.3077 33.241 43.6604 32.5501C41.5645 31.5908 39.5451 30.6726 37.5304 29.7492C37.575 29.648 37.6243 29.5416 37.6689 29.4403C37.8967 29.5339 38.1293 29.6223 38.3524 29.7211C39.8981 30.3884 41.426 31.0963 42.9933 31.6982C43.8121 32.0074 44.7421 32.5595 45.7185 31.4429C44.1208 30.7284 42.6359 30.0879 41.1557 29.4423Z" fill="black"/>
<path d="M30.2776 43.6341C31.7918 41.9465 34.3419 41.3421 35.9349 42.0521C37.4671 42.7353 38.3031 44.0906 38.3208 45.7519C38.3491 48.8316 37.0997 51.1568 34.3531 52.6038C32.859 53.3925 31.2293 53.5474 29.6508 53.0302C29.1517 52.8697 28.6727 52.113 28.5104 51.5401C27.9939 49.6241 28.4124 47.7541 29.1074 45.9557C29.4735 45.0308 30.0113 44.1674 30.2776 43.6341ZM34.971 50.4517C35.866 48.9863 36.5432 47.2284 36.2617 45.1478C35.9171 42.5938 34.4436 41.7938 32.1704 42.9807C31.0724 43.5526 30.6367 44.575 30.1803 45.5785C29.4285 47.2307 29.013 48.9617 29.3666 50.7959C29.5056 51.4989 29.8211 52.0598 30.6619 52.1051C32.2339 52.191 33.6676 51.8864 34.971 50.4517Z" fill="black"/>
<path d="M13.9819 36.917C15.5422 35.2621 17.5578 34.7867 19.7357 34.6857C21.4088 34.6082 23.115 37.7091 22.7122 39.3948C22.0248 42.2495 18.8691 43.646 16.8905 43.4648C15.6447 43.3539 14.4289 42.8447 13.2231 42.4392C12.4919 42.2002 12.2781 41.59 12.3102 40.8344C12.3537 39.607 13.0131 37.9938 13.9819 36.917ZM21.4792 38.8417C20.4146 38.2808 19.4519 37.7748 18.4887 37.2588C20.3505 37.7877 20.3505 37.7877 21.447 37.6872C21.0874 37.2376 20.594 36.8933 20.5292 36.4846C20.3193 35.1498 19.3473 35.2594 18.5051 35.3827C17.6383 35.5122 16.7539 35.7864 15.9748 36.1847C14.0681 37.1561 13.0324 39.4862 13.499 41.4987C15.7006 42.1755 17.9213 43.04 20.0593 40.9267C19.156 40.4179 18.3801 39.9776 17.5943 39.5377C18.2303 39.5579 18.7376 39.7824 19.2673 39.9612C20.5897 40.4159 20.6283 40.3943 21.4792 38.8417Z" fill="black"/>
<path d="M16.2191 26.6831C14.5936 28.4203 11.3455 29.1463 9.13918 28.2663C7.16539 27.4748 6.33567 25.6431 7.20106 23.7825C8.06595 21.9119 9.47534 20.8197 11.6569 20.798C13.7542 20.7752 15.6867 20.9336 16.8828 23.051C17.7743 24.6268 17.7458 25.0547 16.2191 26.6831ZM13.1754 26.5266C13.6293 26.4758 14.0884 26.4297 14.8283 26.3458C14.0197 25.7434 13.4429 25.3137 12.8613 24.8893C12.899 24.8478 12.9314 24.8017 12.9737 24.7551C13.6163 25.008 14.2588 25.261 15.1084 25.5887C15.2656 24.4554 15.3851 23.5619 15.5103 22.683C14.2855 21.5889 12.9046 21.2511 10.9795 21.5437C9.37434 21.7868 7.96082 23.1966 7.83597 24.7849C7.80557 25.1732 7.99313 25.6556 8.23744 25.9816C9.08808 27.1327 11.6064 27.7006 12.9898 27.0858C13.116 27.0303 13.1192 26.6929 13.1787 26.4917L13.1754 26.5266Z" fill="black"/>
<path d="M13.1757 26.491C12.4172 26.5854 11.8509 26.2596 11.4918 25.5178C12.054 25.8587 12.6156 26.1897 13.1777 26.5306C13.1725 26.5259 13.1757 26.491 13.1757 26.491Z" fill="black"/>
</svg>
