<svg width="241" height="211" viewBox="0 0 241 211" fill="none" xmlns="http://www.w3.org/2000/svg">
<path d="M185.003 126.123C184.103 133.621 182.503 141.818 181.604 150.016C180.004 160.413 174.406 168.511 168.107 175.809C160.31 184.606 151.512 192.104 140.915 197.503C125.219 205.4 108.724 208.5 91.4288 209.099C68.2353 209.999 47.3411 203.101 28.8462 188.005C15.35 177.308 8.55192 163.212 1.65384 148.416C0.754093 145.917 -0.245628 142.718 0.0542882 140.219C0.654121 130.121 0.654121 119.524 3.85323 110.027C8.252 97.7305 11.651 85.5339 18.849 74.537C26.6469 62.2404 35.4444 52.5431 47.3411 44.6453C57.3383 37.4474 68.3352 33.0486 80.8317 32.0489C82.7312 32.0489 84.6307 31.7489 86.4302 31.7489C115.522 26.7503 139.015 38.647 159.61 57.5417C172.106 68.5387 177.405 83.9344 181.204 99.3301C183.403 106.928 183.703 116.425 185.003 126.123ZM178.404 125.223C179.004 102.329 172.806 81.835 157.41 63.94C143.614 47.9444 125.519 38.1472 104.825 36.6476C84.8306 34.7481 66.3358 41.0464 51.04 53.6428C32.6452 68.6386 19.7488 88.1332 11.651 109.827C7.85211 119.524 6.35253 131.521 8.252 141.518C12.9507 167.911 29.546 186.106 53.6393 196.203C80.5318 207.2 108.424 205.6 134.717 193.104C162.809 179.508 179.704 158.514 178.404 125.223Z" fill="#EB584A"/>
<path d="M174.006 162.213C173.406 165.712 172.407 169.111 171.207 172.61C170.307 175.71 168.408 178.609 165.908 180.808C163.109 183.307 161.51 186.507 160.01 189.906C158.411 193.005 158.411 196.504 158.411 200.003C158.71 203.102 158.411 206.301 157.111 209.4C157.111 209.7 156.511 210 156.211 211C154.012 209.7 152.112 208.5 150.313 207.201C148.413 205.901 146.514 204.702 144.714 203.702C142.215 202.102 139.716 201.202 136.917 201.802C135.617 202.102 134.117 201.802 132.518 201.502C128.119 200.603 123.72 200.903 119.421 202.402C115.623 203.702 112.223 204.602 108.425 205.901C107.125 206.201 106.225 206.201 105.325 205.601C104.726 205.301 104.426 204.702 103.726 204.302C103.726 204.302 103.726 204.302 103.426 204.002C100.927 201.202 98.1274 199.903 94.3285 199.603C92.7289 199.603 91.5292 199.303 89.9297 198.703C88.0302 197.803 86.5306 196.504 85.231 194.005C85.231 194.005 85.231 194.005 85.231 193.705C83.9314 191.205 82.1319 189.006 80.5323 186.507C79.6326 184.907 78.033 184.307 76.1335 183.707C74.8339 183.407 73.6342 182.808 72.3346 182.108C71.035 181.808 70.1352 181.208 68.9355 180.508C67.6359 179.908 66.7362 178.909 66.1363 177.709C66.1363 177.409 65.8364 177.409 65.5365 177.109C65.2366 176.809 64.9367 176.509 64.6367 176.509C64.3368 176.509 64.0369 176.209 63.737 176.209C62.1374 176.209 60.9378 175.31 59.9381 174.31C58.6384 173.41 57.7387 172.411 56.539 171.511C55.6393 170.611 54.3396 169.611 53.4399 168.712C53.14 169.011 53.14 169.311 53.14 169.311C52.5401 170.611 52.84 171.211 53.4399 172.111C55.0394 174.31 54.7395 176.209 52.84 177.409C52.2402 177.109 51.5404 176.809 50.9406 176.509C49.6409 175.91 48.4413 174.91 46.8417 174.31C46.5418 174.31 46.5418 174.01 46.2419 174.01C45.942 174.61 45.642 175.31 45.642 175.61C44.0425 173.11 43.4427 170.311 43.1427 167.112C42.8428 163.013 40.9434 161.114 37.5443 160.214C36.2447 159.914 35.3449 159.314 34.1453 159.314H33.8453C32.2458 159.014 30.7462 158.414 28.8467 158.414C26.6474 158.714 24.7479 157.815 22.9484 156.815C22.0486 156.515 21.3488 155.215 20.749 154.316C20.4491 154.016 20.4491 153.716 20.1492 153.416C19.5493 153.416 18.8495 152.816 17.6499 152.816C15.4505 152.516 14.8506 152.216 15.1506 150.317C15.1506 150.017 15.1506 149.717 15.1506 149.417C15.4505 147.218 15.7504 145.318 16.7501 143.419C17.6499 140.919 17.3499 139.02 15.8504 137.42C15.2505 136.82 14.5507 135.821 13.9509 135.221C13.3511 134.621 13.3511 133.921 13.0512 133.621C12.4513 132.022 12.1514 130.522 12.4513 128.923C13.0512 127.023 13.3511 124.824 14.3508 122.924C14.3508 122.624 14.6507 122.325 14.6507 122.325C15.5505 120.425 15.9503 118.825 14.3508 117.326C13.751 117.026 13.751 116.426 13.0512 115.726C12.1514 114.127 11.7515 112.227 12.4513 110.028C12.7512 109.428 12.7512 108.428 13.0512 107.529C13.0512 106.929 13.0512 105.929 13.0512 105.029C13.3511 104.13 13.3511 103.43 13.3511 102.53C13.651 99.7308 12.7512 96.8316 10.5518 94.6323C7.45271 91.1332 7.1528 87.4343 9.25221 83.3354C10.5518 80.8361 11.1517 78.3368 11.1517 75.4376C11.1517 73.5381 11.1517 71.3388 11.1517 69.4393C11.1517 67.2399 12.4513 65.3404 14.5507 65.0405C16.4502 64.4407 18.6496 64.1408 20.4491 63.7409C25.7476 63.441 30.7462 62.1413 35.145 59.3421C39.2438 56.8428 43.6426 54.9433 47.9414 53.3438C51.3405 52.0441 54.8395 49.8448 58.2385 48.3452C62.6373 46.1458 67.0361 44.8462 72.0347 44.5462C75.1338 44.2463 78.6328 43.9464 81.732 43.6465C83.0316 43.6465 84.2313 43.6465 85.8308 43.6465C85.8308 45.246 84.9311 45.8459 84.2313 46.4457C83.3315 47.0455 82.3318 48.0453 82.6317 49.2449C83.2316 50.8445 84.5312 51.1444 85.7309 51.4443C89.5298 51.7442 93.5287 52.0441 97.6275 52.0441C102.326 52.0441 107.325 51.7442 112.024 51.7442C113.623 51.7442 115.123 52.0441 117.022 52.3441C119.222 52.9439 121.121 52.644 122.92 52.3441C127.019 51.7442 131.018 51.7442 134.817 51.4443C135.417 51.4443 136.417 51.4443 137.017 51.4443C143.915 49.8448 149.813 53.3438 155.811 55.8431C158.011 56.7428 159.91 58.6423 160.81 61.1416C162.409 64.9405 164.609 68.3396 166.408 72.1385C169.507 78.7367 171.107 85.6348 170.807 92.5328C170.507 98.2312 169.507 103.53 166.408 108.528C165.109 110.428 165.109 112.627 165.808 114.827C166.408 117.026 167.108 119.225 168.008 121.425C169.907 126.123 171.107 130.822 171.807 135.921C172.707 140.619 173.406 145.318 174.006 150.417C174.006 151.017 174.006 151.716 174.306 152.016C175.306 154.715 175.006 158.514 174.006 162.213Z" fill="white"/>
<path d="M117.723 202.802C114.624 203.702 111.425 204.702 108.326 205.901C107.026 206.201 106.126 206.201 105.227 205.601C104.627 205.301 104.327 204.702 103.627 204.302C103.627 204.302 103.627 204.302 103.327 204.002C100.828 201.203 98.0286 199.903 94.2296 199.603C92.6301 199.603 91.4304 199.303 89.8309 198.703C87.9314 197.804 86.4318 196.504 85.1322 194.005C85.1322 194.005 85.1322 194.005 85.1322 193.705C83.8325 191.205 82.033 189.006 80.4335 186.507C79.5337 184.907 77.9342 184.307 76.0347 183.708C74.7351 183.408 73.5354 182.808 72.2358 182.108C70.9361 181.808 70.0364 181.208 68.8367 180.508C67.5371 179.909 66.6373 178.909 66.0375 177.709C66.0375 177.409 65.7376 177.409 65.4377 177.109C65.1377 176.809 64.8378 176.51 64.5379 176.51C64.238 176.51 63.9381 176.21 63.6382 176.21C62.0386 176.21 60.8389 175.31 59.8392 174.31C58.5396 173.41 57.6398 172.411 56.4402 171.511C55.5404 170.611 54.2408 169.611 53.341 168.712C53.0411 169.012 53.0411 169.312 53.0411 169.312C52.4413 170.611 52.7412 171.211 53.341 172.111C54.9406 174.31 54.6407 176.21 52.7412 177.409L52.4413 177.709C49.942 179.309 47.4427 178.609 46.143 176.41C46.143 176.11 45.8431 176.11 45.8431 175.81C44.2436 173.31 43.6437 170.511 43.3438 167.312C43.0439 163.213 41.1444 161.314 37.7454 160.414C36.4458 160.114 35.546 159.514 34.3463 159.514H34.0464C32.4469 159.214 30.9473 158.615 29.0478 158.615C26.8484 158.914 24.949 158.015 23.1495 157.015C22.2497 156.715 21.5499 155.415 20.9501 154.516C20.6502 154.216 20.6502 153.916 20.3502 153.616C19.4505 153.316 18.7507 152.716 17.551 152.716C15.3516 152.416 14.7518 152.116 15.0517 150.217C15.0517 149.917 15.0517 149.617 15.0517 149.317C15.3516 147.118 15.6516 145.218 16.6513 143.319C17.551 140.819 17.2511 138.92 15.7515 137.32C15.1517 136.721 14.4519 135.721 13.8521 135.121C13.2522 134.521 13.2522 133.821 12.9523 133.522C12.3525 131.922 12.0526 130.422 12.3525 128.823C12.9523 126.923 13.2522 124.724 14.2519 122.825C14.2519 122.525 14.5519 122.225 14.5519 122.225C15.4516 120.325 15.8515 118.726 14.2519 117.226C13.6521 116.926 13.6521 116.326 12.9523 115.627C12.0526 114.027 11.6527 112.128 12.3525 109.928C12.6524 109.328 12.6524 108.329 12.9523 107.429C12.9523 107.429 12.9523 107.429 12.9523 107.129C13.5521 108.029 14.2519 109.028 14.8518 109.928C16.7513 112.427 18.9506 114.627 21.4499 116.526C21.4499 116.526 21.7499 116.526 21.7499 116.826C22.6496 117.426 23.3494 118.126 24.2492 118.726H24.5491C24.849 119.026 25.1489 119.026 25.4488 119.325C28.548 120.925 32.047 121.825 35.1461 123.124C35.7459 123.424 36.4458 123.424 37.0456 123.724C37.6454 124.024 37.9453 124.024 38.6451 124.324C40.8445 125.224 43.0439 126.523 45.2433 128.123C45.8431 128.423 46.143 128.723 46.5429 129.423C46.8428 129.723 47.1428 130.023 47.4427 130.322C48.3424 131.222 49.3422 132.522 49.942 133.821C49.942 133.821 49.942 133.821 49.942 134.121C52.7412 138.52 54.6407 143.819 57.7398 147.918C58.6396 149.217 59.9392 150.417 60.8389 151.417C61.1389 151.716 61.7387 152.316 62.4385 152.716C68.3368 157.415 76.2346 159.614 83.7326 161.814C84.0325 161.814 84.6323 162.114 85.0322 162.114C85.632 162.413 85.9319 162.413 86.6317 162.713C91.3304 164.313 96.0291 166.212 100.128 168.712C100.728 169.012 101.428 169.312 101.728 170.011C101.728 170.011 102.027 170.011 102.027 170.311C102.327 170.311 102.627 170.611 102.927 170.911C103.227 171.211 103.527 171.211 103.527 171.511C110.125 177.209 113.524 184.707 115.724 193.205C115.724 193.505 116.024 193.805 116.024 194.105C116.323 194.704 116.323 195.704 116.623 196.304C116.623 196.604 116.923 196.904 116.923 197.204C116.923 197.504 117.223 198.104 117.223 198.503C117.223 198.803 117.523 199.103 117.523 199.803C117.523 199.803 117.523 199.803 117.523 200.103C117.523 200.703 117.823 201.403 117.823 202.002C117.723 202.502 117.723 202.502 117.723 202.802Z" fill="#BABAB9"/>
<path d="M173.704 150.917C173.404 150.317 173.404 149.617 173.404 149.317C172.804 144.618 172.104 139.92 171.204 134.821C170.305 129.823 169.305 125.124 167.405 120.325C166.506 118.126 165.806 115.926 165.206 113.727C164.606 111.528 164.606 109.328 165.806 107.429C168.905 102.73 170.205 97.0317 170.205 91.4332C170.505 84.2352 168.905 77.3372 165.806 71.0389C164.206 67.24 162.007 63.8409 160.207 60.042C158.908 57.5427 157.408 55.6432 155.209 54.7435C149.31 52.2442 143.312 49.0451 136.414 50.3447C135.814 50.3447 134.814 50.3447 134.215 50.3447C130.116 50.6446 126.117 50.9445 122.318 51.2444C120.119 51.5444 118.219 51.8443 116.42 51.2444C114.82 50.9445 113.32 50.6446 111.421 50.6446C106.722 50.6446 101.724 51.2444 97.025 50.9445C92.9262 50.9445 89.2272 50.6446 85.1283 50.3447C83.8287 50.3447 82.3291 49.7449 82.0292 48.1453C81.7293 46.8457 82.629 45.9459 83.6288 45.3461C84.5285 44.7463 85.5282 43.7465 85.2283 42.5469C83.6288 42.5469 82.4291 42.5469 81.1294 42.5469C78.0303 42.8468 74.5313 43.1467 71.4322 43.4466C66.4336 43.7465 62.0348 45.0462 57.636 47.2456C54.237 48.8451 51.0378 51.0445 47.3389 52.2442C42.9401 53.8437 38.5413 55.7432 34.5425 58.2425C29.8438 61.0417 25.1451 62.3413 19.8466 62.6413C17.9471 62.6413 15.7477 63.2411 13.9482 63.9409C12.0487 64.5407 10.8491 66.4402 10.5492 68.3397C10.5492 70.5391 10.5492 72.4385 10.5492 74.338C10.5492 77.1372 9.94932 79.6365 8.64968 82.2358C6.4503 86.3346 6.75021 90.1336 9.94932 93.5326C12.7485 96.6318 13.3484 99.531 13.0485 102.33C13.0485 103.23 13.0485 103.93 12.7485 104.829C12.7485 105.429 12.4486 106.429 12.4486 107.029C12.4486 107.029 12.4486 107.029 12.4486 107.329C12.4486 108.229 12.1487 108.928 11.8488 109.828C11.5489 111.728 11.8488 113.627 12.7485 115.526C13.0485 116.126 13.3484 116.826 14.0482 117.126C15.6477 118.726 15.3478 120.225 14.3481 122.125C14.3481 122.425 14.0482 122.724 14.0482 122.724C13.4483 124.624 12.7485 126.523 12.1487 128.723C11.5489 130.322 11.8488 131.822 12.7485 133.421C13.0485 133.721 13.0485 134.021 13.3484 134.321C13.9482 134.921 14.648 135.921 15.2478 136.521C17.1473 138.42 17.4472 140.32 16.1476 142.519C15.5478 144.418 14.848 146.618 14.548 148.517C14.548 148.817 14.548 149.117 14.548 149.417C14.548 151.017 15.1479 151.616 17.0473 151.916C18.347 151.916 19.2467 152.516 19.8466 153.516C19.8466 153.816 20.1465 154.116 20.4464 154.416C21.0462 155.315 21.746 156.615 22.6458 156.915C24.5452 157.815 26.4447 158.514 28.5441 158.514C30.1437 158.514 31.6433 158.814 33.5427 159.414H33.8426C35.1423 159.714 36.042 160.014 37.2417 160.314C41.0406 161.214 42.8401 163.113 42.8401 167.212C42.8401 170.311 43.7399 173.21 45.3394 175.71C45.3394 176.01 45.3394 176.01 45.6394 176.31C46.939 178.509 49.7382 179.109 51.9376 177.609C51.9376 177.609 52.2375 177.609 52.2375 177.309C54.137 176.01 54.4369 174.21 52.8373 172.011C52.2375 171.111 51.9376 170.411 52.5374 169.212C52.5374 168.912 52.8373 168.912 52.8373 168.612C54.137 169.511 55.0367 170.511 55.9365 171.411C57.2361 172.311 58.1359 173.31 59.3355 174.21C60.6352 175.11 61.5349 176.11 63.1345 176.11C63.4344 176.11 63.7343 176.11 64.0342 176.41C64.3341 176.41 64.6341 176.709 64.934 177.009C65.2339 177.309 65.2339 177.309 65.5338 177.609C66.1336 178.509 67.1334 179.809 68.333 180.408C69.2328 181.008 70.5324 181.308 71.7321 182.008C73.0317 182.608 74.2314 182.908 75.531 183.607C77.1306 184.207 78.6301 184.907 79.9298 186.407C81.5293 188.606 83.3288 191.105 84.6285 193.605C84.6285 193.605 84.6285 193.605 84.6285 193.905C85.9281 196.104 87.4277 197.704 89.3272 198.603C90.6268 199.203 92.1264 199.503 93.7259 199.503C97.5249 199.803 100.324 201.103 102.823 203.902C102.823 203.902 102.823 203.902 103.123 204.202C103.723 204.802 104.023 205.101 104.723 205.501C105.623 206.101 106.922 206.401 107.822 205.801C110.921 204.902 114.12 203.902 117.219 202.702C117.819 202.702 118.119 202.402 118.819 202.102C123.218 200.503 127.616 200.203 131.915 201.203C133.515 201.502 134.714 201.802 136.314 201.502C139.413 200.903 141.613 201.802 144.112 203.402C146.011 204.702 147.911 205.901 149.71 206.901C151.61 208.201 153.509 209.1 155.609 210.7C156.208 210.1 156.508 209.4 156.508 209.1C157.808 206.301 158.108 202.802 157.808 199.703C157.508 196.204 157.808 193.105 159.408 189.606C161.007 186.107 162.807 183.008 165.306 180.508C167.805 178.309 169.705 175.51 170.604 172.311C171.904 168.812 172.804 165.413 173.404 161.914C175.003 158.515 175.303 154.716 173.704 150.917ZM15.7477 133.022C13.8482 130.522 13.8482 128.623 16.0476 126.423C18.5469 123.624 21.3461 121.125 23.8454 118.526C23.8454 118.526 23.8454 118.526 24.1454 118.226C23.8454 118.226 23.8454 118.226 23.5455 118.226C22.9457 118.226 22.6458 118.526 21.0462 119.825C20.1465 120.425 19.1468 121.425 17.9471 122.325V120.125C17.9471 118.226 17.6472 116.326 16.3475 115.127C14.748 113.527 14.1481 111.628 14.1481 109.428C14.1481 108.828 14.4481 108.129 14.4481 107.829C15.0479 106.229 15.3478 104.73 15.7477 103.13C17.3473 96.8317 20.4464 94.3324 27.0445 94.9322C27.6444 94.9322 28.3442 94.9323 28.944 95.2322C30.8435 95.832 32.3431 95.5321 33.3428 93.6326C33.6427 93.0328 33.9426 92.7329 34.6424 91.7331C35.5422 92.0331 36.5419 92.0331 37.4416 92.333C39.3411 92.9328 40.8407 92.6329 42.4402 91.4332C42.7402 91.4332 42.7402 91.1333 43.0401 91.1333C46.4391 88.3341 46.839 88.0342 44.6396 84.2352C44.3397 83.6354 44.0398 82.6357 43.7399 82.0358C44.6396 80.1364 45.9393 79.5365 47.5388 78.9367C52.2375 76.7373 54.137 72.6385 52.5374 67.6399C51.9376 65.4405 51.9376 63.2411 52.5374 61.0417C53.1373 59.1422 53.1373 56.9429 53.4372 55.0434C53.4372 54.7435 53.1373 54.1436 52.8373 53.4438C52.8373 54.0437 52.5374 54.3436 52.5374 55.0434C51.9376 57.5427 51.2378 60.042 50.9379 62.2414C50.9379 64.4408 50.9379 66.6401 51.5377 68.5396C52.1375 70.4391 51.8376 72.3386 51.2378 74.238C50.638 75.5377 49.6382 76.4374 48.4386 77.0372C46.839 77.6371 45.3394 78.3369 44.0398 79.2366C42.1403 80.5363 41.8404 81.436 42.7402 83.3355C43.0401 83.9353 43.34 84.2352 43.6399 84.935C44.2397 86.2347 45.5394 87.4343 44.2397 88.734C42.6402 90.3335 41.1406 91.8331 38.3414 90.9334C37.0418 90.6334 35.8421 90.3335 34.5425 89.6337C33.9426 90.5335 33.2428 91.2333 32.9429 92.133C32.3431 93.7326 31.0434 94.0325 29.144 93.7326C28.2442 93.4327 26.9446 93.4327 26.0448 93.1328C21.6461 92.5329 18.5469 94.7323 16.6474 98.1314C16.3475 99.0311 16.0476 99.7309 15.7477 100.031C15.7477 96.9317 14.1481 94.3324 12.3486 92.133C10.1493 89.6337 9.84935 86.8345 11.4489 83.9353C14.2481 78.6368 13.9482 72.9384 12.7485 67.24C14.648 65.6404 17.1473 65.0406 19.3467 65.0406C25.245 65.0406 30.6435 62.8412 35.6421 60.042C39.4411 57.8426 43.44 56.2431 47.5388 54.7435C49.7382 53.8437 52.2375 52.844 54.4369 51.6443C60.3353 47.8454 66.6335 45.9459 73.5316 45.646C75.731 45.646 77.6304 45.0462 79.8298 45.0462C80.7296 45.0462 81.7293 45.0462 82.9289 45.0462C82.3291 46.0459 82.0292 46.3458 82.0292 46.6457C80.7296 49.145 81.1295 51.0445 83.9287 51.9442C86.1281 52.844 88.6274 53.2439 90.8267 53.5438C93.9259 53.8437 97.4249 53.2439 100.524 53.5438C106.122 53.5438 112.121 52.944 117.719 54.1436C118.619 54.4436 119.919 54.4436 120.818 54.1436C128.016 52.5441 135.514 52.5441 143.012 52.5441C144.612 52.5441 145.811 53.1439 147.411 53.8437C150.21 54.7435 153.009 56.0431 155.909 57.3427C158.108 58.2425 159.708 59.842 160.607 62.0414C162.507 66.1403 164.406 70.2391 166.206 74.338C166.506 74.9378 166.206 75.6376 166.506 75.9375C167.105 78.4369 168.405 80.9362 169.005 83.4355C170.305 90.3335 169.305 96.9317 167.105 103.23C166.806 103.83 166.506 104.829 166.206 105.429C165.306 107.329 164.306 109.228 163.107 111.728C161.207 112.027 159.308 110.828 157.508 109.228C156.908 108.628 156.208 107.629 155.609 107.629C153.409 107.029 152.21 105.129 150.91 103.23C149.31 100.431 146.211 98.5312 143.712 96.6318C141.213 94.7323 139.313 92.8328 138.114 90.0336C136.814 87.2344 134.015 85.3349 130.916 83.1355C132.215 82.2358 133.115 81.536 134.015 80.9362C137.114 79.3366 140.313 78.1369 143.112 76.8373C145.611 75.5377 147.511 74.0381 147.211 70.5391C146.911 69.2394 147.511 68.0398 147.811 66.7401C148.111 65.8404 148.411 65.1406 148.411 64.2408C148.111 61.7415 147.811 59.2422 147.511 56.343C147.511 56.0431 146.911 55.7432 146.611 55.4433C146.311 57.6427 146.311 59.842 146.611 62.0414C146.911 63.641 146.911 65.1406 146.011 66.7401C145.411 68.0398 145.112 69.5393 145.411 70.839C145.711 73.0384 144.812 73.9381 143.212 74.9378C140.113 76.2375 136.914 77.4371 133.815 79.0367C132.915 79.3366 131.915 79.6365 131.315 80.3363C129.416 81.9359 127.217 82.2358 124.717 82.2358C123.118 82.2358 121.618 82.2358 120.319 82.5357C115.02 84.1353 110.021 86.3346 105.623 90.4335C105.323 90.7334 105.023 91.0333 104.323 91.3333C102.124 92.9328 100.524 92.233 99.9242 89.7337C99.6243 88.834 99.3244 87.5343 99.3244 86.2347C99.3244 84.0353 98.4246 82.4357 96.8251 81.2361C96.5252 81.2361 96.5251 80.9362 96.2252 80.9362C91.8265 77.4371 91.8265 77.1372 94.0258 72.1386C94.3258 71.2389 94.9256 69.9392 95.6254 69.0395C97.5249 65.2405 97.225 59.6421 94.0258 55.8432C94.0258 56.7429 94.3258 57.7426 94.3258 58.3425C94.6257 59.6421 94.9256 60.8418 95.2255 62.1414C95.5254 64.6407 95.2255 66.8401 93.626 68.7396C92.0264 70.639 91.7265 72.8384 91.1267 75.0378C90.5268 77.2372 91.1267 79.1367 93.0261 80.3363C93.626 80.6362 94.3258 81.2361 94.9256 81.9359C96.5252 83.2355 97.7248 84.7351 97.7248 86.9345C98.0247 89.7337 99.0245 92.233 101.524 93.8326C100.224 95.1322 99.3244 96.3319 98.1247 97.6315C96.2252 99.8309 95.6254 102.33 96.2252 105.129C96.5251 107.029 96.5252 108.928 95.6254 110.428C95.0256 111.728 94.0258 112.327 92.5263 112.327C88.4274 112.027 84.7284 110.728 80.9295 109.528C80.0298 109.228 79.03 108.628 78.1303 108.628C75.0312 108.628 73.1317 106.429 71.5321 103.93C72.8318 102.33 74.0314 101.131 75.3311 99.531C75.3311 99.531 75.3311 99.531 75.0312 99.531C73.4316 101.131 71.932 102.33 70.3325 103.93C68.1331 103.93 65.9337 103.93 63.7343 103.63C59.9354 103.33 58.4358 101.73 58.7357 97.6315C58.7357 97.0317 58.7357 96.3319 58.7357 96.0319C60.0353 90.7334 59.0356 85.6348 57.4361 80.3363C58.0359 80.0364 58.7357 79.7365 59.0356 79.4366C60.9351 78.5368 62.8346 77.5371 64.634 75.6376C68.0331 72.5385 72.132 71.5388 76.2308 73.4382C78.7301 74.338 81.5293 74.7379 84.0286 74.0381C85.9281 73.7382 87.8276 73.4382 89.3272 74.6379C90.2269 73.7382 90.2269 73.0384 89.3272 72.7384C87.7276 72.4385 86.228 72.1386 84.9284 72.1386C82.1292 72.7384 79.6299 72.1386 77.1306 71.5388C72.132 69.9392 67.4333 70.639 63.6343 74.338C61.135 77.1372 58.0359 78.7368 54.5369 79.3366C53.937 79.3366 52.9373 79.9364 52.3375 79.9364C52.3375 80.2364 52.3375 80.2364 52.3375 80.5363C53.2372 80.5363 54.5369 80.5363 55.7365 80.2364C56.3364 84.3352 57.9359 88.1341 57.3361 92.5329C57.0362 94.4324 56.7363 96.3319 56.7363 97.8314C56.7363 101.63 58.9356 103.83 62.6346 103.83C63.9342 103.83 64.834 103.83 66.0337 103.83C68.8329 104.13 71.3322 105.129 72.6318 108.229C76.4308 107.629 79.5299 109.828 82.9289 110.728C87.3277 112.327 91.4266 112.927 95.7254 113.527C100.124 114.127 104.223 116.026 108.222 117.326C110.121 117.926 111.021 119.825 110.421 121.725C109.821 123.924 110.721 125.524 112.321 127.423C113.62 128.723 114.52 130.222 115.12 131.822C116.72 134.621 115.72 137.82 113.82 140.02C111.321 142.519 110.021 145.718 108.222 148.517C106.922 150.417 105.423 152.016 104.123 153.816C103.223 155.415 101.924 155.415 100.324 155.115C97.8248 154.216 95.3255 153.516 93.1261 152.316C90.027 150.717 86.5279 149.517 82.829 150.117C80.0298 150.717 77.2305 149.817 75.631 147.018C75.3311 146.418 74.3314 145.718 73.4316 145.118C73.1317 143.519 73.7315 142.319 75.0312 141.019C76.6307 139.72 77.2305 138.22 76.9306 136.321C76.6307 133.222 77.8304 131.022 80.0298 129.123C81.6293 127.823 83.1289 126.623 84.7284 125.324C85.6282 124.724 86.6279 124.024 87.2277 123.124C89.7271 120.625 89.7271 116.826 87.5277 113.727C86.6279 114.327 87.2277 115.027 87.2277 115.626C88.5274 119.126 89.1272 120.325 84.1286 123.824C82.2291 125.124 80.3297 126.623 78.5302 127.923C76.0309 130.122 74.7312 132.622 75.1311 136.121C75.1311 137.42 75.1311 138.62 74.2314 139.22C72.032 140.819 71.4322 143.019 71.4322 145.518C71.4322 146.118 71.1322 146.418 71.1322 147.418C69.2328 147.118 67.7332 146.818 65.8337 146.518C65.8337 145.218 65.8337 144.318 65.5338 143.019C65.5338 142.119 65.5338 141.119 65.5338 140.22C65.5338 138.62 64.6341 137.42 63.0345 137.12C60.5352 136.521 58.3358 135.521 55.8365 135.221C53.3372 134.921 51.4377 133.921 49.9382 132.122C49.0384 130.822 47.7388 129.922 46.5391 129.323C46.5391 129.323 46.2392 129.323 46.2392 129.023C45.6394 128.723 44.9395 128.423 44.0398 128.423C42.4402 128.123 41.2406 127.123 39.9409 126.224C39.0412 125.624 38.3414 124.624 38.0415 124.024C38.0415 123.724 37.7416 123.424 37.7416 123.124C37.4416 122.225 37.4416 121.225 37.7416 120.325C38.3414 117.226 38.3414 114.327 35.8421 111.528C34.5425 110.228 34.5425 108.428 34.9423 106.529C35.5422 102.73 35.5422 99.0311 34.9423 95.2322C34.9423 94.6323 34.3425 93.6326 34.0426 93.0328C33.7427 93.0328 33.7427 93.0328 33.4428 93.3327C33.4428 93.9325 33.4428 94.2324 33.7427 94.9322C34.6424 98.7312 34.3425 102.13 33.7427 105.929C33.1428 108.728 33.4428 111.228 35.3422 113.427C36.9418 115.027 37.2417 117.226 36.6419 119.126C36.3419 120.425 36.3419 121.325 36.3419 122.225C36.3419 122.525 36.3419 122.824 36.3419 123.124C36.3419 124.024 36.9418 125.024 37.6416 125.924C36.3419 127.523 35.7421 129.423 34.5425 130.622C33.6427 131.922 32.0432 132.522 30.7435 133.421C29.4439 134.021 27.9443 135.021 26.6447 135.621C26.0448 135.921 25.0451 136.221 24.4453 136.221C23.5455 136.221 22.5458 136.221 21.946 136.221C19.7466 136.521 18.147 135.921 16.9474 133.721C16.9474 134.321 16.3475 133.621 15.7477 133.022ZM136.814 134.021C137.414 135.921 137.114 137.82 136.814 139.72C136.214 142.519 135.514 145.718 135.214 148.217C133.615 148.217 132.115 148.217 130.516 148.217C128.016 148.217 125.517 147.618 124.217 145.418C122.618 143.219 120.418 142.619 117.919 142.619C117.019 142.619 116.32 142.619 115.42 142.619C115.42 143.219 115.12 143.919 115.12 144.818C116.02 144.518 116.72 144.518 117.319 144.218C119.219 143.619 121.118 143.919 122.318 145.518C124.817 148.617 127.916 149.617 131.715 149.617C133.915 149.617 136.114 150.217 137.014 152.716C137.014 153.016 137.614 153.616 137.914 154.016C139.813 155.915 140.713 157.815 140.113 160.314C139.813 161.214 139.813 162.513 138.813 163.113C137.214 164.713 136.014 165.912 133.815 166.212C130.416 166.812 127.916 168.412 126.617 172.211C126.017 174.11 125.017 175.71 124.117 177.509C121.318 177.209 119.419 175.61 117.519 173.71C116.919 173.11 116.62 172.411 115.92 172.111C112.121 167.412 110.621 166.812 104.623 166.812C104.023 165.213 103.323 163.713 102.723 162.113C102.424 160.814 102.424 159.614 103.323 158.315C103.923 157.715 104.223 156.715 104.923 156.115C107.722 153.016 110.221 149.217 112.421 145.418C113.021 144.119 114.32 143.219 115.22 142.319C116.52 140.42 117.419 138.22 117.719 136.021C117.719 134.721 118.019 133.521 117.419 132.522C116.52 130.622 115.22 128.723 113.62 127.223C112.721 125.924 112.021 125.024 112.021 123.424C112.021 123.124 112.021 122.824 112.021 122.525C112.021 118.126 111.121 116.826 106.722 115.626C103.923 114.727 101.124 113.727 98.2247 112.827C97.6248 112.527 96.925 112.227 96.0253 111.927C97.6248 109.128 97.6248 105.929 96.925 102.83C96.6251 100.331 97.8248 98.4313 99.4243 96.5318C101.324 94.9322 103.223 93.0328 105.023 91.5332C109.422 87.4343 115.02 84.935 120.718 83.0356C123.518 82.1358 126.617 83.0356 129.516 84.3352C132.015 85.235 134.215 87.4343 135.114 90.0336C136.414 92.8328 138.513 95.0322 141.013 96.9317C144.112 99.431 147.311 101.93 149.51 105.429C150.11 107.029 152.01 107.629 153.609 108.928C152.01 112.027 150.81 116.126 147.711 119.026C146.811 119.925 145.212 120.625 143.912 120.925C139.013 122.625 135.214 128.623 136.814 134.021ZM53.8371 166.312C52.9373 166.012 51.9376 166.012 51.0378 165.712C50.438 167.012 50.1381 168.512 50.1381 169.811C50.1381 172.011 50.7379 174.51 51.0378 176.709H50.7379C50.1381 177.009 49.8382 177.009 49.1384 177.309C48.5385 177.309 47.8387 177.009 47.2389 176.01C46.939 175.71 46.6391 175.11 46.6391 174.71C45.7393 172.511 44.7396 170.611 44.7396 168.112C44.4397 162.413 42.5402 160.614 37.2417 159.014C35.0423 158.415 32.8429 157.415 30.3436 157.115C30.0437 157.115 29.4439 157.115 29.044 157.115C28.4442 156.515 27.7444 156.215 27.1445 155.815C24.9451 154.916 22.7457 154.216 21.846 151.416C21.2462 149.517 20.9462 149.517 17.4472 149.217C17.1473 145.418 19.0468 142.619 19.9465 139.12C28.4442 139.12 35.2423 136.621 39.0412 128.723C41.2406 129.323 43.1401 130.022 44.9396 130.622C46.5391 131.222 48.0387 132.522 49.3383 133.421C49.6382 133.721 49.9382 134.021 50.638 134.321C52.5374 135.921 54.4369 136.521 56.9362 137.12C59.1356 137.42 61.335 138.72 63.5344 139.62C63.8343 139.62 64.1342 139.92 64.4341 140.22C65.3339 141.819 64.4341 147.118 63.1345 148.417C62.5346 149.017 61.5349 149.717 60.9351 150.617L60.6352 150.917C60.0353 151.816 59.3355 152.816 59.0356 154.016C58.7357 154.916 58.1359 156.215 57.4361 156.515C54.9368 158.115 54.037 160.614 54.037 163.413C54.237 164.813 54.237 165.413 53.8371 166.312ZM74.5313 180.208C73.2317 179.909 72.3319 178.609 71.4322 177.409C69.8326 175.81 68.6329 174.31 66.4336 173.61C64.5341 173.01 64.2342 172.011 65.1339 170.511C65.7337 169.611 66.7335 168.312 67.3333 167.412C67.9331 166.512 68.9328 165.513 69.5327 164.613C66.4335 165.912 65.1339 169.012 62.6346 170.911C62.9345 167.412 66.0337 165.613 67.6332 162.713C66.0337 163.313 66.0337 163.313 63.8343 165.812C62.9345 167.112 61.6349 168.612 60.7351 169.911C56.6363 169.611 54.8368 167.412 55.4366 163.613C55.7365 161.414 56.3364 159.814 57.9359 158.614C58.8357 157.715 60.1353 156.415 60.4352 155.115C60.7351 154.216 61.335 153.216 62.0348 152.316C62.0348 152.316 62.0348 152.016 62.3347 152.016C62.9345 151.416 63.6343 150.717 64.2342 150.117C65.5338 149.217 67.3333 149.517 69.2328 149.517C69.5327 149.517 69.5327 149.517 69.8326 149.817C73.6315 151.117 73.6315 151.117 74.2314 147.018C75.531 148.317 76.4308 149.217 77.0306 150.117C77.6304 150.717 77.9303 151.017 78.6301 151.416C82.4291 152.016 83.0289 155.215 84.2286 157.715C84.5285 158.315 84.2286 159.314 84.2286 159.914C83.9287 160.214 83.9287 160.814 83.6288 161.214C83.6288 161.214 83.6288 161.514 83.3288 161.514C82.729 163.113 81.7293 164.613 80.8295 166.212C80.2297 167.512 79.5299 168.712 80.2297 170.311C80.8295 171.911 80.2297 173.11 78.9301 174.11C77.6304 176.41 76.1308 178.309 74.5313 180.208ZM89.2272 194.005C87.0278 191.205 85.1283 188.006 82.9289 185.507C81.6293 183.907 80.1297 182.708 78.5302 181.708C76.6307 180.408 76.3308 179.509 77.9303 177.909C78.5302 177.009 79.5299 176.31 80.1297 175.71C81.7293 174.41 82.3291 172.91 81.7293 170.711C81.4294 169.112 81.7293 168.212 82.3291 166.912C82.929 165.313 83.9287 163.813 84.5285 162.513C84.5285 162.513 84.5285 162.213 84.8284 162.213C85.1283 161.614 85.4283 161.314 85.4283 160.614C86.0281 159.714 86.0281 158.714 85.4283 157.815C84.5285 156.515 83.8287 155.015 82.9289 153.116C85.1283 152.216 86.7279 152.216 88.2275 152.816C89.5271 153.416 90.4269 154.116 91.6265 154.416C93.2261 155.015 94.7257 156.015 96.3252 156.615C97.9248 157.215 99.4243 157.515 101.024 157.915C101.024 159.514 100.724 161.414 101.024 162.913C101.324 164.513 102.324 166.012 102.923 167.912C101.624 168.212 100.724 168.512 99.8242 168.512H99.5243C96.7251 169.112 95.4255 171.311 94.2258 173.51C93.9259 174.11 94.2258 175.11 94.5257 175.71C94.8256 176.31 95.4255 177.009 96.1253 177.609C97.7248 179.509 98.6246 181.708 98.0247 183.907C97.125 187.007 97.4249 189.906 99.3244 192.705C99.9242 193.305 99.9242 194.604 100.224 195.204C96.4252 197.804 91.7265 197.104 89.2272 194.005ZM124.617 198.403C122.118 198.703 119.919 199.303 117.119 200.003C116.22 200.003 115.52 200.303 114.62 200.603C115.22 199.703 115.92 198.703 116.819 197.804C118.119 196.204 119.319 194.704 120.618 193.105C120.019 193.405 119.719 193.705 119.019 194.005C118.119 194.904 117.419 195.904 116.52 196.804C115.92 197.404 115.22 198.403 114.32 199.003C114.02 199.303 113.72 199.603 113.42 200.303C112.821 200.903 112.521 201.602 111.521 201.902C111.821 200.003 113.121 198.803 114.02 197.504C114.32 197.204 114.32 196.904 114.62 196.904C114.92 196.304 115.52 195.604 115.92 195.004C116.52 194.105 117.519 192.805 118.119 191.505C117.519 191.805 117.219 192.105 116.52 192.805C116.22 193.105 115.92 193.405 115.62 194.105C115.02 194.704 114.32 195.704 113.72 196.604C112.421 198.503 110.921 200.403 109.621 201.902C109.322 202.202 109.022 202.802 108.722 203.202C107.822 204.102 107.122 204.102 106.222 203.202C104.623 201.602 103.123 200.403 101.224 198.503C101.224 198.503 101.224 197.904 101.224 197.604C101.824 195.704 101.524 193.805 100.324 192.305C99.0245 190.406 98.7245 188.206 99.0245 186.007C99.9242 182.508 99.3244 179.409 96.8251 176.909C95.2255 175.31 95.5254 174.41 97.125 172.811C98.0247 171.911 99.3244 171.211 100.924 170.611C100.924 170.611 100.924 170.611 101.224 170.611C104.323 169.711 108.122 169.311 110.021 170.311C111.321 170.911 112.521 171.911 113.121 172.811C115.62 176.31 119.019 178.809 123.118 180.308C126.917 181.908 129.716 184.707 131.615 187.806C133.515 190.905 133.815 195.004 134.415 198.803C131.215 198.403 127.716 198.103 124.617 198.403ZM166.206 178.309C164.006 180.808 162.107 183.308 160.307 186.207C157.808 190.006 156.908 194.404 156.908 198.803C156.908 201.602 156.608 204.102 156.308 207.001C156.308 207.601 156.009 207.901 155.709 208.9C154.109 208.001 152.609 207.001 151.01 206.101C148.811 204.502 146.611 203.302 144.112 201.702C143.512 201.403 142.812 201.103 142.512 200.103C141.912 199.203 141.213 199.203 140.313 199.203C139.013 199.203 137.814 199.203 136.514 198.903C135.914 195.804 135.214 192.905 134.615 190.406C133.715 186.307 131.215 183.508 128.016 181.008C125.817 179.109 125.817 179.109 126.717 176.31C127.017 175.71 127.317 174.71 127.616 173.81C128.516 171.311 130.416 169.411 132.915 168.812C136.314 167.912 138.813 166.012 141.013 163.113C143.212 163.713 145.412 164.013 147.311 164.713C149.51 165.313 149.51 166.012 148.911 168.212C148.611 169.811 148.011 171.011 147.611 172.611C147.311 175.11 148.511 176.41 151.01 175.71C152.609 175.11 153.809 174.41 155.109 173.51C157.308 171.911 159.208 171.311 161.707 172.611C163.906 173.21 166.106 173.91 168.605 174.51C168.405 175.81 167.205 177.009 166.206 178.309ZM172.804 159.714C172.504 163.813 171.204 167.912 170.005 171.611C167.205 172.211 164.706 171.311 162.207 170.711C159.408 169.811 156.908 170.111 154.709 172.011C153.109 173.31 151.91 174.81 149.71 173.91C149.11 172.311 149.71 170.811 150.31 169.511C151.91 164.513 151.91 164.213 146.511 162.913C145.911 162.913 145.212 162.613 144.612 162.313C141.513 161.414 141.813 161.414 141.813 158.215C141.813 157.615 141.213 156.615 140.913 156.015C140.013 154.716 139.013 153.516 138.114 152.516C138.713 151.916 139.013 151.217 139.413 150.917C139.413 150.617 139.113 150.317 139.113 150.317C137.814 149.717 137.214 148.717 137.514 147.518C137.814 145.018 138.114 142.519 138.813 140.02C139.113 138.12 139.413 136.521 138.813 134.721C137.514 129.023 139.713 125.324 145.411 123.424C149.21 122.525 151.31 119.325 153.209 116.226C154.109 114.627 155.109 113.127 156.009 111.528C158.808 112.427 161.007 113.427 163.806 114.327C164.106 114.927 164.406 116.226 164.706 117.126C165.306 118.726 165.306 120.225 166.306 121.825C169.105 127.123 169.405 133.122 170.704 139.12C171.604 144.119 171.604 149.517 173.504 154.516C173.404 155.615 173.104 157.815 172.804 159.714Z" fill="black"/>
<path d="M165.906 75.5381C164.607 77.4376 157.809 83.036 155.609 83.7358C156.509 82.1362 163.107 77.1376 165.906 75.5381Z" fill="black"/>
<path d="M15.3516 130.522C16.9511 127.023 20.0503 125.523 23.1494 123.624C20.6501 126.123 18.1508 128.623 15.9514 130.822C15.7515 130.822 15.3516 130.822 15.3516 130.522Z" fill="black"/>
<path d="M74.2376 95.9326C72.0382 98.4319 70.1387 100.631 68.3392 102.831C68.2392 100.631 70.4386 98.132 74.2376 95.9326Z" fill="black"/>
<path d="M163.708 82.4365C161.508 84.6359 159.609 86.5354 157.109 89.0347C157.809 86.5354 160.608 84.0361 163.708 82.4365Z" fill="black"/>
<path d="M163.707 82.4367C164.307 81.8369 165.007 81.1371 165.607 80.2373C165.607 80.5372 165.906 80.5372 165.906 80.8371C165.307 81.5369 164.707 82.1368 163.707 82.4367Z" fill="black"/>
<path d="M47.6445 60.3414C47.9444 62.5408 48.2444 64.4402 48.5443 66.6396C49.1441 71.0384 49.8439 75.4372 51.3435 79.536C53.8428 85.5343 56.3421 91.1328 59.8411 96.5313C62.6403 100.63 66.4393 104.729 71.4379 108.828C75.8367 112.627 81.1352 114.526 86.1338 116.326L87.7333 116.926C93.3318 118.825 96.8308 121.924 98.7303 126.323C99.3301 128.222 100.33 130.122 100.93 132.021L103.729 138.919C105.029 142.019 106.228 145.218 107.528 148.317C109.727 153.615 115.326 156.215 121.024 154.915C124.123 154.315 126.922 153.615 130.122 153.315C134.22 152.716 137.619 153.915 140.719 156.814C144.817 160.613 147.317 165.312 149.816 170.011C151.116 172.51 152.315 175.009 153.615 177.509L155.214 181.008C155.514 182.307 156.114 183.807 158.014 184.107L158.913 184.407L159.513 183.807C161.113 182.207 160.113 180.708 159.813 180.008C156.414 173.41 153.215 166.812 149.816 160.513C147.317 155.815 143.218 152.616 139.519 149.816C138.919 149.217 137.619 148.917 137.02 148.917C133.221 148.017 129.822 148.017 126.722 148.917C124.823 149.516 122.924 149.816 121.124 150.216L119.225 150.516C116.425 151.116 113.626 149.616 112.626 147.017C111.327 143.918 110.427 141.019 109.227 137.92C108.328 136.02 107.628 134.421 107.028 132.621L106.428 130.722C105.828 128.522 104.829 126.323 103.929 124.423C101.13 118.125 96.131 114.026 89.2329 112.127C80.4354 109.628 73.5373 104.929 67.6389 97.631C63.84 92.9323 61.3407 87.9337 58.8414 82.2353L58.5415 81.3355C56.642 76.9367 55.4424 71.9381 54.7426 66.2397C54.4426 64.3403 54.1427 62.4408 53.8428 60.5413L52.6431 55.3428L50.4438 56.9423C49.8439 57.2422 49.1441 57.5422 48.8442 58.242C48.6443 58.4419 48.3443 59.4416 47.6445 60.3414Z" fill="black"/>
<path d="M179.205 166.313C178.606 171.611 176.706 176.71 174.507 181.708C172.307 186.707 169.508 191.106 166.409 195.504C166.109 195.804 166.109 196.104 165.809 196.404C163.91 198.903 162.71 201.103 161.111 202.402C160.511 202.402 160.211 202.103 159.211 201.503C158.911 201.203 158.611 200.903 157.911 200.603C150.413 194.305 144.115 187.407 140.716 178.009C140.116 176.41 139.417 174.51 139.117 172.711C138.517 166.712 139.417 160.414 141.916 155.116C142.816 152.916 144.115 151.017 145.715 149.117C148.214 146.018 152.013 143.819 155.712 142.219C155.712 142.219 155.712 142.219 156.012 142.219C158.811 141.619 161.61 141.919 164.51 142.819C166.409 143.419 168.309 144.419 170.108 145.318C172.907 146.918 174.807 148.817 176.006 151.917C178.606 156.915 179.205 161.614 179.205 166.313Z" fill="white"/>
<path d="M167.01 194.904C166.71 195.204 166.71 195.504 166.41 195.804C164.211 198.903 162.611 201.802 160.512 202.402C160.212 202.402 159.912 202.102 159.212 201.802C158.912 201.502 158.612 201.202 157.912 200.902C150.414 194.604 144.116 187.706 140.717 178.309C140.117 176.709 139.817 175.21 139.118 173.61C138.518 167.312 139.118 160.714 141.917 155.115C142.217 156.415 142.817 157.615 143.516 158.914C145.116 163.013 146.915 166.812 149.115 170.211C149.415 170.811 149.715 171.511 150.015 171.811C150.914 173.11 151.614 174.31 152.514 175.61C156.613 181.308 161.611 186.307 165.31 192.305C165.61 192.905 165.91 193.205 165.91 193.904C166.71 193.904 166.71 194.304 167.01 194.904Z" fill="#BABAB9"/>
<path d="M176.407 151.816C175.107 148.717 173.008 146.818 170.508 145.218C168.609 144.318 166.709 143.319 164.91 142.719C162.111 141.819 159.011 141.419 156.412 142.119C156.412 142.119 156.412 142.119 156.112 142.119C153.313 142.719 150.814 143.719 148.314 145.618C141.416 150.617 139.217 158.215 138.617 165.712C138.617 168.212 138.917 170.411 139.517 172.311C139.517 172.311 139.517 172.611 139.517 172.91C139.817 174.51 140.417 176.01 141.116 177.609C144.216 187.007 150.814 194.305 158.312 200.203C158.612 200.503 158.912 200.803 159.611 201.103C160.211 201.403 160.511 201.702 160.911 201.702C161.211 201.702 161.211 201.702 161.511 202.002C163.11 202.602 163.71 202.002 164.91 199.803C168.009 194.105 171.508 188.506 174.607 182.808C177.406 177.509 179.306 171.811 179.606 166.112C179.206 161.614 178.606 156.915 176.407 151.816ZM171.408 184.507C169.509 187.306 168.009 190.506 166.409 193.605C165.81 194.904 165.11 195.804 164.51 197.104C163.91 198.003 162.91 199.003 162.311 200.203C157.912 197.104 154.213 193.905 150.714 189.506C152.913 187.306 155.412 185.107 157.612 182.908L157.312 182.608C154.813 184.507 152.613 186.407 150.114 187.906C148.814 187.306 149.214 186.607 149.814 185.707C151.414 184.107 152.913 182.608 154.813 181.308C155.412 181.008 156.112 180.708 156.412 180.408C156.112 180.108 156.112 179.809 155.812 179.509C153.313 181.408 151.114 183.308 148.614 185.207C141.716 175.11 140.117 167.312 143.916 158.215C144.516 156.615 145.215 155.415 146.115 153.816C147.015 152.216 148.314 150.717 149.214 149.117C151.114 146.618 154.213 146.018 157.012 145.018C158.912 144.718 160.811 144.418 162.311 144.418C162.91 144.418 163.61 144.418 163.91 144.418C168.309 146.018 172.408 148.217 174.507 152.616C177.906 159.214 177.606 166.112 176.107 173.01C175.107 177.309 173.607 181.108 171.408 184.507Z" fill="black"/>
<path d="M149.819 171.61C148.919 169.111 149.219 166.911 150.718 165.312C152.618 162.812 154.817 160.313 156.617 158.114C158.516 155.914 161.615 155.614 163.515 157.814C166.614 161.313 169.113 165.012 168.813 169.711C168.813 170.61 168.513 171.91 167.914 172.81C167.014 174.409 166.014 174.709 164.814 173.41C164.215 173.11 163.915 172.51 163.515 171.81C161.615 169.611 159.416 169.011 156.617 169.91C154.217 170.71 152.018 171.01 149.819 171.61Z" fill="black"/>
<path d="M152.615 151.517C153.515 151.517 154.215 152.416 154.215 153.716C154.215 155.316 152.915 156.815 152.015 156.815C151.116 156.815 149.516 155.216 149.816 154.016C149.516 152.816 151.016 151.517 152.615 151.517Z" fill="black"/>
<path d="M171.107 154.016C170.807 155.915 169.507 157.515 168.607 157.515C167.708 157.515 167.008 155.915 167.008 154.416C167.008 152.816 168.307 151.616 169.507 151.916C170.407 151.816 171.107 152.816 171.107 154.016Z" fill="black"/>
<path d="M157.914 150.317C158.514 149.717 159.214 149.018 159.814 149.018C160.413 149.018 161.713 149.318 162.013 149.617C162.313 150.217 162.613 151.517 162.313 152.417C162.013 153.016 161.013 153.716 160.413 154.016C160.113 154.016 159.114 153.416 158.814 153.116C158.214 152.117 158.214 151.217 157.914 150.317Z" fill="black"/>
<path d="M64.0336 46.2455C63.4338 51.5441 61.5343 56.6426 59.3349 61.6412C57.1355 66.6399 54.3363 71.0386 51.2372 75.4374C50.9372 75.7373 50.9372 76.0372 50.6373 76.3371C48.7379 78.8364 47.5382 81.0358 45.9386 82.3355C45.3388 82.3355 45.0389 82.0355 44.0392 81.4357C43.7393 81.1358 43.4393 80.8359 42.7395 80.536C35.2416 74.2377 28.9434 67.3397 25.5443 57.8423C24.9445 56.2428 24.2447 54.3433 23.9448 52.5438C23.345 46.5455 24.2447 40.2472 26.744 34.9487C27.6438 32.7493 28.9434 30.8498 30.5429 28.9504C33.0422 25.8512 36.8412 23.6519 40.5401 22.0523C40.5401 22.0523 40.5401 22.0523 40.8401 22.0523C43.6393 21.4525 46.4385 21.7524 49.3377 22.6521C51.2372 23.3519 53.0367 24.2517 54.9361 25.2514C57.7353 26.851 59.6348 28.7504 60.8345 31.8496C63.4338 36.8482 64.3335 41.5469 64.0336 46.2455Z" fill="white"/>
<path d="M51.834 74.5373C51.5341 74.8372 51.5341 75.1371 51.2342 75.437C49.0348 78.5362 47.4353 81.4354 45.3358 82.0352C45.0359 82.0352 44.736 81.7353 44.0362 81.4354C43.7363 81.1355 43.4364 80.8355 42.7366 80.5356C35.2387 74.2374 28.9404 67.3393 25.5414 57.842C24.9415 56.2424 24.6416 54.7428 23.9418 53.1433C23.342 46.845 23.9418 40.2469 26.741 34.6484C27.041 35.9481 27.6408 37.1477 28.3406 38.4474C29.9401 42.5462 31.7396 46.3452 33.939 49.7442C34.2389 50.3441 34.5389 51.0439 34.8388 51.3438C35.7385 52.6434 36.4383 53.8431 37.3381 55.1427C41.4369 60.8411 46.4355 65.8397 50.1345 71.8381C50.4344 72.4379 50.7343 72.7378 50.7343 73.4376C51.5341 73.9375 51.834 74.2374 51.834 74.5373Z" fill="#BABAB9"/>
<path d="M61.2371 31.8506C59.9374 28.7514 57.838 26.8519 55.3387 25.2524C53.4393 24.3526 51.5398 23.3529 49.7403 22.7531C46.9411 21.8533 43.8419 21.4535 41.2427 22.1533C41.2427 22.1533 41.2427 22.1533 40.9427 22.1533C38.0436 22.6531 35.5443 23.6528 33.0449 25.5523C26.1469 30.5509 23.9475 38.1488 23.3477 45.6467C23.3477 48.146 23.6476 50.3454 24.2474 52.2449C24.2474 52.2449 24.2474 52.5448 24.2474 52.8447C24.5473 54.4442 25.1472 55.9438 25.847 57.5434C28.9461 66.9408 35.5443 74.2387 43.0422 80.1371C43.3421 80.437 43.642 80.7369 44.3418 81.0368C44.9416 81.3367 45.2415 81.6367 45.6414 81.6367C45.9413 81.6367 45.9413 81.6367 46.2413 81.9366C47.8408 82.5364 48.4406 81.9366 49.6403 79.7372C52.7394 74.0388 56.2385 68.4403 59.3376 62.7419C62.1368 57.4434 64.0363 51.745 64.3362 46.0466C64.3362 41.5478 63.4365 36.8492 61.2371 31.8506ZM56.2385 64.4415C54.339 67.2407 52.8394 70.4398 51.2399 73.5389C50.64 74.8386 49.9402 75.7383 49.3404 77.0379C48.7406 77.9377 47.7408 78.9374 47.141 80.1371C42.7422 77.0379 39.0433 73.8388 35.5443 69.4401C37.7436 67.2407 40.2429 65.0413 42.4423 62.8419L42.1424 62.542C39.6431 64.4415 37.4437 66.3409 34.9444 67.8405C33.6448 67.2407 34.0447 66.5409 34.6445 65.6411C36.2441 64.0416 37.7436 62.542 39.6431 61.2423C40.2429 60.9424 40.9427 60.6425 41.2427 60.3426C40.9427 60.0427 40.9427 59.7428 40.6428 59.4428C38.1435 61.3423 35.9441 63.2418 33.4448 65.1413C26.5468 55.0441 24.9472 47.2463 28.7462 38.1488C29.346 36.5492 30.0458 35.3496 30.9455 33.75C31.8453 32.1505 33.1449 30.6509 34.0447 29.0513C35.9441 26.552 39.0433 25.9522 41.8425 24.9525C43.742 24.6526 45.6414 24.3526 47.141 24.3526C47.7408 24.3526 48.4407 24.3526 48.7406 24.3526C53.1393 25.9522 57.2382 28.1516 59.3376 32.5504C62.7367 39.1485 62.4367 46.0466 60.9372 52.9447C60.2374 57.2435 58.4379 61.0424 56.2385 64.4415Z" fill="black"/>
<path d="M34.6428 51.6446C33.7431 49.1453 34.043 46.9459 35.5426 45.3463C37.442 42.847 39.6414 40.3477 41.4409 38.1484C43.3404 35.6491 46.4395 35.3491 48.339 37.5485C51.4381 41.0475 53.9374 44.7465 53.6375 49.4452C53.6375 50.345 53.3376 51.6446 52.7378 52.5443C51.838 54.1439 50.8383 54.4438 49.6386 53.1442C49.0388 52.8443 48.7389 52.2444 48.339 51.5446C46.4395 49.3452 44.2402 48.7454 41.4409 49.6451C38.9416 50.345 37.1421 50.9448 34.6428 51.6446Z" fill="black"/>
<path d="M37.4377 31.4492C38.3374 31.4492 39.0372 32.349 39.0372 33.6486C39.0372 35.2482 37.7376 36.7477 36.8379 36.7477C35.9381 36.7477 34.3386 35.1482 34.6385 33.9485C34.6385 32.7489 36.1381 31.4492 37.4377 31.4492Z" fill="black"/>
<path d="M42.7422 29.95C43.342 29.3502 44.0418 28.6504 44.6417 28.6504C45.2415 28.6504 46.5411 28.9503 46.841 29.2502C47.141 29.8501 47.4409 31.1497 47.141 32.0494C46.841 32.6493 45.8413 33.3491 45.2415 33.3491C44.9416 33.3491 43.9419 32.7492 43.6419 32.4493C43.342 31.8495 43.0421 30.8498 42.7422 29.95Z" fill="black"/>
<path d="M55.8371 34.0489C55.5372 35.9484 54.2376 37.5479 53.3378 37.5479C52.4381 37.5479 51.7383 35.9484 51.7383 34.4488C51.7383 32.8492 53.0379 31.6496 54.2376 31.9495C55.5372 31.8495 56.237 32.4493 55.8371 34.0489Z" fill="black"/>
<g filter="url(#filter0_d)">
<path d="M237.226 57.5807L230.908 66.5663L233.787 77.2366L224.801 83.5545L223.818 94.5056L213.218 97.3136L208.655 107.282L197.774 106.299L190.052 114.091L180.154 109.388L170.186 114.021L162.534 106.299L151.653 107.282L147.09 97.3136L136.49 94.5056L135.507 83.5545L126.592 77.2366L129.47 66.5663L123.152 57.5807L129.47 48.525L126.592 37.9249L135.578 31.607L136.56 20.6558L147.09 17.8479L151.583 7.87954L162.464 8.86234L170.186 1L180.154 5.70336L189.982 1L197.704 8.86234L208.585 7.87954L213.148 17.8479L223.748 20.726L224.731 31.6771L233.716 37.9951L230.838 48.6654L237.226 57.5807Z" fill="#129D6F"/>
<path d="M230.624 66.3564L230.554 66.4967L230.624 66.6372L233.432 77.0267L224.657 83.2042L224.517 83.2744V83.4148L223.604 94.1553L213.285 96.8931L213.145 96.9633L213.074 97.1037L208.582 106.861L197.911 105.949H197.771L197.631 106.089L190.049 113.671L180.362 109.108L180.221 109.038L180.081 109.108L170.393 113.671L162.882 106.089L162.741 105.949H162.601L151.931 106.861L147.438 97.1037L147.368 96.9633L147.227 96.8931L136.908 94.1553L135.996 83.4148V83.2744L135.855 83.2042L127.15 77.0267L129.958 66.6372L130.029 66.4967L129.958 66.3564L123.5 57.5814L129.678 48.7363L129.748 48.5959L129.678 48.4555L126.87 38.066L135.715 31.8884L135.855 31.8182V31.6778L136.768 20.9373L147.087 18.1293L147.227 18.0591L147.298 17.9187L151.72 8.16102L162.39 9.14381H162.531L162.671 9.00341L170.253 1.42188L179.94 6.05504L180.081 6.12524L180.221 6.05504L189.838 1.42188L197.42 9.07361L197.56 9.21401H197.701L208.371 8.30142L212.864 18.0591L212.934 18.1995L213.074 18.2697L223.394 21.0777L224.306 31.8182V31.9586L224.447 32.0288L233.222 38.2064L230.414 48.5959L230.344 48.7363L230.414 48.8767L236.591 57.6516L230.624 66.3564Z" stroke="black" stroke-opacity="0.2" stroke-width="0.891204"/>
<path d="M144.77 25.0068H148.701C151.298 25.0068 152.562 26.4108 152.562 29.0784V37.4321C152.562 40.0997 151.298 41.5037 148.701 41.5037H144.77V25.0068ZM148.701 39.1169C149.543 39.1169 150.034 38.6957 150.034 37.5023V28.938C150.034 27.7446 149.543 27.3234 148.701 27.3234H147.367V39.1169H148.701Z" fill="white"/>
<path d="M156.843 25.0068H160.353L163.021 41.5037H160.423L159.932 38.2043V38.2745H156.984L156.492 41.5037H154.105L156.843 25.0068ZM159.651 36.0281L158.528 27.885H158.458L157.335 36.0281H159.651Z" fill="white"/>
<path d="M164.852 25.0068H168.713C171.38 25.0068 172.573 26.2704 172.573 28.7976V29.8506C172.573 31.5354 172.012 32.6586 170.889 33.0798V33.15C172.152 33.5712 172.644 34.7646 172.644 36.6599V39.5381C172.644 40.3103 172.644 40.9421 172.924 41.5739H170.257C170.117 41.1527 170.046 40.8719 170.046 39.5381V36.5195C170.046 34.9752 169.625 34.4838 168.432 34.4838H167.519V41.5739H164.922V25.0068H164.852ZM168.362 32.097C169.344 32.097 169.906 31.6758 169.906 30.342V29.0784C169.906 27.885 169.485 27.3936 168.572 27.3936H167.379V32.097H168.362Z" fill="white"/>
<path d="M174.883 25.0068H178.603L180.218 36.8003H180.288L181.903 25.0068H185.623V41.5037H183.166V29.0082H183.096L181.201 41.5037H179.025L177.129 29.0082H177.059V41.5037H174.883V25.0068Z" fill="white"/>
<path d="M187.867 37.5741V28.9396C187.867 26.272 189.271 24.7979 191.798 24.7979C194.326 24.7979 195.73 26.272 195.73 28.9396V37.5741C195.73 40.2417 194.326 41.7159 191.798 41.7159C189.271 41.7159 187.867 40.2417 187.867 37.5741ZM193.132 37.7847V28.729C193.132 27.5356 192.641 27.1144 191.798 27.1144C190.956 27.1144 190.465 27.5356 190.465 28.729V37.7145C190.465 38.9079 190.956 39.3291 191.798 39.3291C192.641 39.3993 193.132 38.9079 193.132 37.7847Z" fill="white"/>
<path d="M197.422 25.0068H199.949L201.072 37.7129H201.142L202.336 25.0068H205.144L206.337 37.7129H206.407L207.531 25.0068H209.777L208.092 41.5037H204.863L203.67 30.4122H203.599L202.406 41.5037H198.966L197.422 25.0068Z" fill="white"/>
<path d="M213.421 25.0068H216.931L219.599 41.5037H217.002L216.51 38.2043V38.2745H213.562L213.07 41.5037H210.684L213.421 25.0068ZM216.229 36.0281L215.106 27.885H215.036L213.913 36.0281H216.229Z" fill="white"/>
<path d="M140 48.8066H144.703C147.792 48.8066 149.337 50.4914 149.337 53.6504V63.6187C149.337 66.7777 147.792 68.4625 144.703 68.4625H140V48.8066ZM144.703 65.6545C145.686 65.6545 146.248 65.1631 146.248 63.7591V53.51C146.248 52.106 145.686 51.6146 144.703 51.6146H143.159V65.6545H144.703Z" fill="white"/>
<path d="M151.863 63.8288V53.4392C151.863 50.2803 153.548 48.4551 156.567 48.4551C159.585 48.4551 161.27 50.2803 161.27 53.4392V63.8288C161.27 66.9877 159.585 68.8129 156.567 68.8129C153.548 68.8129 151.863 66.9175 151.863 63.8288ZM158.181 63.9692V53.2286C158.181 51.8247 157.549 51.2631 156.567 51.2631C155.584 51.2631 154.952 51.8247 154.952 53.2286V63.9692C154.952 65.3731 155.584 65.9347 156.567 65.9347C157.549 65.9347 158.181 65.3731 158.181 63.9692Z" fill="white"/>
<path d="M163.449 63.8289V62.7057H166.398V64.0395C166.398 65.4435 167.029 65.9349 168.012 65.9349C168.995 65.9349 169.627 65.4435 169.627 63.9693C169.627 62.3547 168.995 61.3017 166.959 59.5467C164.362 57.3003 163.519 55.6857 163.519 53.4394C163.519 50.3506 165.134 48.5254 168.153 48.5254C171.171 48.5254 172.645 50.3506 172.645 53.5095V54.3519H169.697V53.3692C169.697 51.9652 169.135 51.4036 168.153 51.4036C167.17 51.4036 166.608 51.9652 166.608 53.299C166.608 54.7029 167.24 55.7559 169.276 57.5811C171.873 59.8275 172.716 61.4421 172.716 63.8991C172.716 67.1282 171.101 68.8832 168.012 68.8832C164.923 68.8832 163.449 66.9176 163.449 63.8289Z" fill="white"/>
<path d="M177.549 51.6146H174.32V48.8066H183.867V51.6146H180.638V68.4625H177.549V51.6146Z" fill="white"/>
<path d="M187.1 48.8066H191.312L194.541 68.5327H191.453L190.891 64.6015V64.6717H187.381L186.749 68.4625H183.871L187.1 48.8066ZM190.47 61.9339L189.066 52.1762H188.996L187.662 61.9339H190.47Z" fill="white"/>
<path d="M195.531 48.8066H198.48L199.884 63.9697H199.954L201.428 48.8066H204.798L206.272 63.9697H206.342L207.746 48.8066H210.414L208.378 68.4625H204.517L203.113 55.1948H203.043L201.639 68.4625H197.497L195.531 48.8066Z" fill="white"/>
<path d="M214.557 48.8066H218.769L221.998 68.5327H218.91L218.348 64.6015V64.6717H214.838L214.206 68.4625H211.328L214.557 48.8066ZM217.927 61.9339L216.523 52.1762H216.453L215.119 61.9339H217.927Z" fill="white"/>
<path d="M196.365 86.7118C196.155 86.1502 196.084 85.5184 195.944 84.9568C195.523 83.272 194.54 81.7978 193.627 80.3938C193.347 79.9726 192.996 79.4813 192.574 79.2707C192.223 79.0601 191.802 79.0601 191.451 78.9899C182.045 77.9369 172.497 77.0945 163.02 77.6561C160.915 82.7104 163.863 88.9582 161.266 93.7317C160.915 94.3635 160.423 94.9953 160.213 95.6973C159.932 96.3993 159.862 97.2417 160.283 97.8033C160.844 98.6457 161.968 98.7861 162.95 98.8563C164.354 98.9265 165.969 98.7861 166.601 97.5927C166.811 97.2417 166.881 96.8205 167.092 96.5397C167.513 95.9781 168.285 95.9781 168.987 95.9781C172.919 95.9079 176.78 95.9079 180.711 95.8377C181.694 95.8377 182.676 95.8377 183.589 96.3291C184.642 96.9609 185.274 98.2245 186.397 98.7159C187.59 99.2073 188.994 98.6457 190.117 98.0841C189.907 97.3119 190.468 96.4695 191.241 96.1185C192.013 95.7675 192.855 95.8377 193.627 95.8377C196.225 95.9781 199.875 96.8205 200.718 93.5211C201.069 92.0469 201.209 90.5728 199.805 89.8006C198.401 88.9582 196.927 88.2562 196.365 86.7118Z" fill="white"/>
<path d="M187.379 77.6565L161.686 76.6035L160.984 77.1651L161.476 93.311L166.249 93.5918L185.835 93.7322L188.011 93.3812L187.379 77.6565Z" fill="#F15748"/>
<path d="M185.908 93.6621C184.995 93.6621 184.153 93.6621 183.24 93.6621C183.029 93.6621 182.819 93.6621 182.678 93.6621C182.117 93.7323 181.625 94.1535 181.204 94.5747C180.994 94.7853 180.853 94.9959 180.713 95.2767C180.643 95.4171 180.643 95.4873 180.713 95.6277C180.783 95.6979 180.853 95.6979 180.923 95.7681C181.415 95.9085 181.906 95.9085 182.468 95.8383C182.889 95.7681 183.31 95.7681 183.731 95.6979C183.942 95.6979 184.223 95.6277 184.433 95.5575C185.135 95.3469 185.627 94.7853 185.837 94.0833" fill="white"/>
<path d="M166.675 95.7681C166.745 95.8383 166.886 95.9085 166.956 95.9085C167.237 95.9787 167.588 96.0489 167.939 96.0489C168.29 96.0489 168.641 96.0489 168.992 96.0489C170.676 95.9787 172.291 95.9085 173.976 95.8383C174.257 95.8383 174.608 95.7681 174.818 95.6277C175.029 95.4171 175.099 95.1363 174.959 94.8555C174.748 94.5046 174.327 94.3642 173.906 94.294C172.01 94.0132 170.185 93.8026 168.29 93.7324C167.728 93.7324 166.465 93.3814 166.114 93.943C165.903 94.2238 166.394 95.4873 166.675 95.7681Z" fill="white"/>
<path d="M193.421 85.0976C193.561 84.887 193.772 84.6764 193.842 84.3956C193.912 84.1148 193.772 83.9042 193.631 83.6936C193.35 83.2022 193.14 82.7108 192.859 82.2896C192.789 82.1492 192.648 82.0088 192.508 82.0088C192.438 82.0088 192.368 82.1492 192.298 82.2194C191.666 83.2724 191.034 84.3254 190.402 85.3784C190.332 85.4486 190.262 85.589 190.262 85.7294C190.262 85.8698 190.402 86.0102 190.543 86.0804C190.683 86.1506 190.823 86.1506 190.964 86.1506C191.525 86.1506 192.227 86.2208 192.789 86.1506C193.28 85.94 193.21 85.4486 193.421 85.0976Z" fill="white"/>
<path d="M200.996 96.3303C200.855 95.7687 200.785 95.2071 200.785 94.6455C200.083 94.7157 199.381 94.6455 198.679 94.6455C198.398 94.6455 198.188 94.6455 197.907 94.6455C197.626 94.6455 197.275 94.7157 196.994 94.8561C196.924 94.9263 196.784 94.9263 196.714 94.9965C196.643 95.0667 196.573 95.1369 196.573 95.2773C196.433 95.5581 196.222 95.9793 196.433 96.2601C196.643 96.6111 197.065 96.6111 197.416 96.6111C198.469 96.6111 199.451 96.6111 200.504 96.6813" fill="white"/>
<path d="M166.884 96.2594C166.884 96.3998 166.884 96.47 166.813 96.6104C166.673 97.3124 166.392 97.874 165.901 98.2952C165.62 98.576 165.269 98.7164 164.988 98.9972C163.865 99.7694 161.899 100.05 160.495 98.7164C160.285 98.5058 160.074 98.2952 159.864 98.0144C159.162 97.0316 158.881 95.9786 159.372 94.8554C159.653 94.2236 160.144 93.5918 160.706 93.1004C161.338 92.609 162.11 92.3282 162.952 92.4686C163.233 92.5388 163.444 92.5388 163.725 92.5388C164.286 92.5388 164.707 92.7494 165.199 93.0302C165.339 93.1004 165.48 93.2408 165.62 93.311C165.831 93.5216 166.111 93.5216 166.392 93.5918C168.217 93.8024 170.113 93.662 171.938 93.662C173.272 93.662 174.535 93.5918 175.869 93.5918C176.22 93.5918 176.571 93.662 176.992 93.662C177.975 93.662 178.958 93.662 179.871 93.662C181.064 93.662 182.327 93.662 183.521 93.662C184.153 93.662 184.714 93.5918 185.276 93.8024C185.557 93.8726 185.697 93.8726 185.908 93.7322C186.329 93.4514 186.75 93.3812 187.241 93.311C187.382 93.311 187.522 93.2408 187.592 93.2408C187.592 93.0302 187.522 92.8196 187.522 92.5388C186.89 92.1176 186.259 91.6262 185.627 91.205C186.329 91.3454 186.82 91.907 187.522 92.258C187.522 91.9772 187.592 91.6964 187.592 91.4156C187.592 91.0646 187.592 90.7136 187.592 90.3626C187.592 89.5202 187.663 88.7481 187.663 87.9057C187.663 87.5547 187.663 87.1335 187.592 86.7123C187.522 85.7997 187.452 84.8871 187.452 83.9043C187.452 83.2023 187.522 82.5003 187.592 81.7983C187.663 80.5347 187.663 79.3413 187.592 78.0777C187.592 77.8671 187.663 77.6566 187.733 77.446C187.733 77.3758 187.943 77.3056 188.084 77.2354C188.084 77.6565 188.154 77.9373 188.154 78.2883C188.294 78.3585 188.365 78.4287 188.505 78.4287C189.418 78.4989 190.33 78.6393 191.243 78.7095C191.875 78.7797 192.506 78.7797 193.068 78.8499C193.138 78.8499 193.138 78.9201 193.208 78.9201C193.208 79.0605 193.138 79.2009 193.138 79.2711C193.279 79.4115 193.489 79.4817 193.559 79.6221C193.7 79.9029 193.77 80.1837 193.91 80.3943C194.261 81.7281 195.034 82.8513 195.595 84.1149C195.876 84.6765 196.087 85.2381 196.367 85.7997C196.578 86.2911 196.999 86.7825 197.14 87.3441C197.14 87.4845 197.35 87.6249 197.42 87.6951C197.771 87.9057 198.122 88.0461 198.473 88.2567C199.035 88.6077 199.597 88.9587 200.158 89.3097C200.369 89.4501 200.65 89.6607 200.93 89.7309C201.141 89.8011 201.211 90.0116 201.211 90.2222C201.211 91.4156 201.281 92.5388 201.211 93.7322C201.141 94.4342 201.141 95.1362 201.211 95.9084C201.281 96.2594 201.141 96.5402 200.86 96.821C200.65 96.6806 200.439 96.6104 200.158 96.7508C199.877 96.5402 199.597 96.6104 199.316 96.6104C197.982 96.6104 196.578 96.6104 195.244 96.6104C195.104 96.6104 194.963 96.6104 194.753 96.6104C194.261 96.6104 193.84 96.47 193.349 96.5402C192.647 96.6104 192.015 96.6104 191.313 96.6104L191.243 96.6806C191.243 96.6806 191.243 96.6806 191.243 96.7508C191.243 96.8912 191.243 97.1018 191.243 97.2422C191.243 98.1548 190.892 98.927 190.049 99.3482C189.769 99.4886 189.488 99.5588 189.207 99.6992C188.294 100.05 187.312 99.98 186.399 99.629C185.837 99.4184 185.276 99.1376 184.925 98.6462C184.433 97.9442 184.082 97.1018 184.012 96.2594C184.012 96.119 184.012 96.0488 183.942 95.8382C183.661 95.768 183.451 95.768 183.17 95.768C182.678 95.768 182.117 95.8382 181.625 95.8382C180.643 95.9084 179.66 95.9786 178.747 95.9786C176.852 95.9786 174.957 96.119 173.061 96.0488C171.587 95.9786 170.113 96.0488 168.639 96.1892C168.568 96.1892 168.428 96.1892 168.358 96.1892C167.866 96.1892 167.375 96.1892 166.884 96.1892C166.884 96.2594 166.884 96.2594 166.884 96.2594ZM199.175 95.4872C199.035 95.9084 199.105 95.9786 199.316 96.2594C199.456 96.0488 199.246 95.8382 199.316 95.6276C199.386 95.768 199.526 95.8382 199.667 95.9786C199.737 95.6276 199.737 95.417 199.667 95.1362C199.667 95.066 199.456 95.066 199.316 94.9958C199.316 95.2064 199.386 95.417 199.386 95.6276C199.246 95.5574 199.175 95.5574 199.175 95.4872ZM193.559 82.3599C193.7 82.7811 193.84 83.2023 193.981 83.6235C194.051 83.8341 194.121 84.0447 194.472 83.9745C194.332 83.6937 194.261 83.4831 194.121 83.2023C193.981 82.8513 193.84 82.4301 193.7 82.0791C193.63 81.9387 193.559 81.8685 193.419 81.7281C193.489 81.3069 193.349 81.0261 193.068 80.7453C193.208 81.0963 193.349 81.3771 193.419 81.7281C193.489 81.9387 193.559 82.1493 193.559 82.3599ZM187.522 96.7508C187.803 96.8912 188.084 97.0316 188.294 97.2422C188.435 97.3124 188.575 97.3826 188.645 97.4528C188.786 97.3124 188.786 97.172 188.645 97.1018C188.435 96.9614 188.224 96.821 188.014 96.6806C187.943 96.6104 187.803 96.5402 187.733 96.3998C188.154 96.47 188.435 96.821 188.856 96.9614C188.926 96.47 188.645 95.9786 188.154 95.768C187.663 95.5574 187.171 95.4872 186.61 95.5574C186.329 95.6276 186.188 95.768 186.048 95.9786C185.627 96.821 186.329 98.1548 187.312 98.0846C187.382 98.0846 187.522 98.0846 187.592 98.0846C187.733 97.9442 187.943 97.9442 188.154 97.9442C188.224 97.9442 188.294 97.874 188.365 97.7336C188.224 97.5932 188.084 97.523 188.014 97.3826C187.873 97.1018 187.592 97.0316 187.522 96.7508ZM193.489 92.1878C193.77 92.3984 194.051 92.5388 194.261 92.7494C194.402 92.8898 194.542 92.96 194.753 93.1004C194.893 92.8898 194.893 92.7494 194.893 92.5388C194.823 91.6262 194.823 90.7136 194.753 89.801C194.753 89.2394 194.753 88.7481 194.753 88.1865C194.753 88.0461 194.753 87.8355 194.753 87.6951C195.034 87.6249 195.104 87.7653 195.104 87.9057C195.104 88.3971 195.104 88.8885 195.104 89.3799C194.963 90.3626 195.174 91.4156 195.174 92.3984C195.174 92.8196 195.174 93.311 195.174 93.7322C195.174 94.013 195.174 94.2938 195.174 94.6448C196.999 94.7852 198.754 94.5746 200.509 94.6448C200.65 93.5216 200.72 93.4514 200.509 92.6792C200.018 92.609 199.526 92.5388 199.035 92.4686C198.824 91.8368 199.035 90.4328 199.316 89.801C199.526 90.0116 199.526 90.2222 199.456 90.4328C199.386 90.7136 199.316 90.9944 199.316 91.2752C199.316 91.4858 199.316 91.7666 199.316 92.0474C199.526 92.1176 199.737 92.1176 200.088 92.1878C200.018 92.0474 199.948 91.907 199.948 91.8368C199.877 91.7666 199.877 91.6964 199.807 91.6262C199.877 91.6262 199.877 91.556 199.877 91.556C200.088 91.6262 200.299 91.7666 200.65 91.907C200.579 91.7666 200.579 91.556 200.509 91.556C200.158 91.4156 200.018 91.1348 199.667 90.854C200.088 90.854 200.299 91.1348 200.579 91.3454C200.79 91.0646 200.72 90.7838 200.509 90.503C200.228 90.152 199.877 89.801 199.456 89.5203C198.684 89.0991 197.842 88.6779 197.069 88.2567C196.718 88.1163 196.578 87.8355 196.438 87.4845C196.227 86.9229 195.946 86.3613 195.665 85.7997C195.595 85.7295 195.525 85.6593 195.385 85.4487C195.314 85.6593 195.314 85.7295 195.314 85.8699C195.314 86.0103 195.314 86.1507 195.314 86.3613C195.314 86.7123 195.314 87.1335 194.893 87.3441C194.612 87.4845 193.91 87.3441 193.7 86.9931C193.419 86.6421 193.068 86.5017 192.647 86.5017C191.804 86.4315 190.962 86.3613 190.19 86.2911C190.049 86.2911 189.979 86.2911 189.839 86.2911C189.277 86.2209 189.137 86.0103 189.067 85.4487C188.926 83.8341 188.926 82.2897 188.926 80.6751C188.926 80.3943 188.996 80.0433 189.137 79.7625C190.4 79.7625 191.664 79.9029 192.998 80.1837C192.928 79.8327 192.928 79.5519 192.787 79.2711C191.313 79.1307 189.769 79.0605 188.294 78.9201C188.154 79.2009 188.224 79.5519 188.224 79.9029C188.224 80.6751 188.224 81.5175 188.224 82.2897C188.224 82.9215 188.224 83.5533 188.224 84.1851C188.224 84.2553 188.224 84.3255 188.224 84.3957C188.224 86.2209 188.294 88.0461 188.294 89.8712C188.294 90.5732 188.224 91.2752 188.224 92.0474C188.224 92.4686 188.224 92.96 188.224 93.3812C188.645 93.5918 189.067 93.7322 189.558 93.9428C189.628 93.9428 189.698 94.013 189.769 94.0832C190.049 94.4342 190.471 94.4342 190.892 94.4342C191.453 94.4342 192.015 94.4342 192.577 94.5044C193.208 94.5746 193.84 94.6448 194.472 94.6448C194.612 94.6448 194.753 94.6448 194.893 94.5746C195.174 94.2236 194.963 93.8024 195.034 93.5216C194.332 93.1004 193.91 92.609 193.489 92.1878ZM192.998 85.2381C192.998 85.0977 192.928 84.8871 192.787 84.8169C192.647 84.6765 192.506 84.6063 192.366 84.4659C192.226 84.3255 192.085 84.2553 192.015 84.0447C192.366 84.2553 192.717 84.5361 193.068 84.7467C193.208 84.6063 193.279 84.5361 193.138 84.3957C192.998 84.2553 192.787 84.0447 192.647 83.9043C192.436 83.7639 192.296 83.5533 192.155 83.3427C192.296 83.4129 192.366 83.4831 192.506 83.6235C192.647 83.6937 192.787 83.8341 192.928 83.9043C193.068 83.9745 193.208 84.1149 193.349 84.1851C193.77 83.8341 193.77 83.8341 193.419 83.5533C193.419 83.3427 193.489 83.1321 193.419 82.9215C193.208 82.2897 192.998 81.5877 192.717 80.9559C192.647 80.8155 192.577 80.6049 192.366 80.6049C191.383 80.3241 190.4 80.2539 189.418 80.2539C189.207 80.5347 189.207 80.8155 189.207 81.0963C189.207 81.5877 189.207 82.0791 189.207 82.5705C189.277 83.5533 189.347 84.6063 189.418 85.5891C189.418 85.8699 189.558 86.0103 189.839 86.0103C190.049 86.0103 190.26 86.0103 190.471 86.0103C191.243 86.0805 191.945 86.1507 192.717 86.2209C192.787 86.2209 192.928 86.2209 192.998 86.2209C192.998 85.8699 193.068 85.5189 192.998 85.2381ZM170.113 95.3468C170.885 95.3468 171.727 95.3468 172.5 95.417C174.114 95.417 175.659 95.4872 177.273 95.4872C178.747 95.4872 180.151 95.4872 181.625 95.4872C182.187 95.4872 182.819 95.417 183.38 95.3468C183.591 94.9256 183.591 94.5746 183.521 94.1534C178.467 94.013 173.482 93.9428 168.358 94.2236C168.428 94.5746 168.428 94.8554 168.498 95.2064C169.06 95.3468 169.621 95.3468 170.113 95.3468ZM198.895 95.066C198.684 95.066 198.544 94.9958 198.403 94.9958C197.771 94.9958 197.14 95.066 196.578 94.9958C194.753 94.9256 192.928 94.8554 191.102 94.7852C190.892 94.7852 190.611 94.7852 190.4 94.7852C190.471 95.2766 190.822 95.6276 191.032 95.9786C193.63 96.0488 196.227 96.1892 198.824 96.2594C198.895 96.2594 198.965 96.1892 199.035 96.1892C198.895 95.8382 198.895 95.417 198.895 95.066ZM163.654 96.3296C163.233 96.0488 162.812 95.768 162.461 95.417C162.742 95.5574 163.023 95.2766 163.303 95.4872C163.514 95.6978 163.795 95.8382 164.146 95.9786C164.286 95.6276 164.146 95.3468 163.935 95.1362C163.444 94.6448 162.812 94.4342 162.11 94.6448C161.619 94.7852 161.338 95.2064 161.408 95.768C161.548 97.0316 162.601 97.4528 163.514 97.3124C163.935 97.2422 164.216 96.8912 164.286 96.3296C164.005 96.47 163.865 96.47 163.654 96.3296ZM194.753 86.5017C194.683 86.1507 194.332 86.0805 194.191 85.7295C194.402 85.7997 194.542 85.8699 194.683 85.9401C194.823 85.3785 194.683 84.8871 194.261 84.6063C193.91 84.3255 193.63 84.4659 193.489 84.8169C193.349 85.3785 193.208 85.8699 193.63 86.4315C193.77 86.6421 193.77 86.8527 193.981 86.9931C194.121 87.0633 194.332 87.1335 194.542 87.1335C194.612 87.1335 194.683 87.0633 194.753 86.9229C194.753 86.8527 194.753 86.7825 194.683 86.7123C194.542 86.5719 194.332 86.4315 194.121 86.2911L194.191 86.2209C194.402 86.2911 194.542 86.3613 194.753 86.5017ZM167.375 95.768C167.445 95.2064 167.515 94.6448 167.586 94.1534C167.094 94.013 166.813 94.013 166.322 94.1534C166.533 94.715 166.743 95.2064 166.884 95.768C167.024 95.768 167.164 95.768 167.375 95.768ZM184.082 95.3468C184.223 94.9958 184.153 94.5746 184.433 94.2938C184.433 94.4342 184.363 94.5746 184.363 94.8554C184.644 94.6448 184.855 94.4342 185.065 94.2236C184.644 93.9428 184.223 94.0832 183.802 94.013C183.731 94.4342 183.661 94.8554 183.591 95.2766C183.802 95.3468 183.942 95.3468 184.082 95.3468ZM167.866 94.2236C167.586 94.5044 167.656 94.8554 167.656 95.1362C167.866 95.2064 168.077 95.2064 168.288 95.2766C168.428 94.9256 168.288 94.6448 168.147 94.2236C168.077 94.364 168.007 94.4342 167.937 94.5746C167.937 94.4342 167.937 94.364 167.866 94.2236ZM200.299 96.0488C200.299 96.119 200.439 96.1892 200.509 96.1892C200.579 96.119 200.65 96.0488 200.65 95.9786C200.65 95.6978 200.579 95.417 200.579 94.9958C200.228 95.417 200.228 95.768 200.299 96.0488ZM200.158 95.066C200.088 95.066 199.948 95.066 199.948 95.066C199.807 95.2766 199.877 95.6276 200.088 96.1892C200.088 95.6978 200.088 95.417 200.158 95.066Z" fill="black"/>
<path d="M161.409 78.7798C162.111 79.201 162.673 79.552 163.234 79.903C163.094 79.4818 162.743 79.3414 162.392 79.201C162.041 78.9904 161.76 78.7798 161.409 78.6394C161.409 78.148 161.409 77.6566 161.409 77.095C161.69 77.095 161.971 77.0248 162.252 77.0248C163.305 77.095 164.287 77.095 165.34 77.1652C167.306 77.3056 169.271 77.3758 171.167 77.3758C172.641 77.3758 174.185 77.5162 175.66 77.5162C176.151 77.5162 176.572 77.5162 177.064 77.5162C178.117 77.5864 179.099 77.5864 180.152 77.6566C180.784 77.6566 181.416 77.7268 182.048 77.7268C182.609 77.7268 183.101 77.7268 183.662 77.6566C184.505 77.6566 185.347 77.6566 186.119 77.6566C186.4 77.6566 186.681 77.7268 186.962 77.7268C187.032 77.7268 187.172 77.6566 187.313 77.5864C187.102 77.5162 187.032 77.446 186.962 77.446C185.979 77.3758 185.066 77.3758 184.084 77.3056C183.803 77.3056 183.522 77.446 183.311 77.446C182.75 77.446 182.118 77.446 181.556 77.446C181.135 77.446 180.714 77.3758 180.363 77.3758C178.819 77.3056 177.274 77.3056 175.73 77.2354C174.256 77.1652 172.711 77.1652 171.237 77.095C168.85 77.0248 166.393 76.8844 164.007 76.6738C163.234 76.6036 162.462 76.6738 161.69 76.6738C161.269 76.6738 161.058 76.8844 160.988 77.2354C160.918 77.6566 160.848 78.0076 160.848 78.4288C160.848 79.6222 160.777 80.8155 160.777 82.0089C160.777 82.7109 160.848 83.4831 160.848 84.1851C160.848 85.7997 160.848 87.4143 160.777 89.0289C160.777 89.9415 160.777 90.8541 160.777 91.8369C160.777 91.9071 160.777 91.9773 160.777 92.0475C160.777 92.3985 160.848 92.5389 160.988 92.4687C161.269 92.4687 161.269 92.1879 161.269 92.0475C161.339 91.2753 161.409 90.5031 161.409 89.7309C161.339 88.0461 161.339 86.2911 161.339 84.6063C161.339 83.2023 161.269 81.8685 161.269 80.4645C161.269 79.9732 161.339 79.4818 161.409 78.7798Z" fill="black"/>
<path d="M163.583 79.4112C162.951 78.7092 162.038 78.2178 161.617 78.2178V78.288C162.319 78.7092 162.951 79.0602 163.583 79.4112Z" fill="black"/>
<path d="M187.17 92.96C186.819 92.3984 186.327 92.1176 185.836 91.7666C185.836 91.9772 186.047 92.0474 186.187 92.1878C186.327 92.3282 186.468 92.4686 186.678 92.609C186.819 92.7494 186.959 92.8898 187.1 93.0302C187.1 93.0302 187.17 93.0302 187.17 92.96Z" fill="black"/>
<path d="M193.911 88.606C193.841 88.4656 193.841 88.3954 193.841 88.3954C193.49 87.6232 193.35 87.8338 192.578 87.904C192.507 87.904 192.437 87.9742 192.367 87.9742C192.297 87.9742 192.297 88.0444 192.227 88.1146C192.227 88.3954 192.367 88.4656 192.578 88.5358C193.069 88.6762 193.49 88.8166 193.911 88.606Z" fill="black"/>
<path d="M193.207 92.8203C193.558 93.1011 193.909 93.4521 194.33 93.7329C194.26 93.4521 194.049 93.2415 193.207 92.8203Z" fill="black"/>
<path d="M193.487 92.1887C193.206 91.9079 193.206 91.9079 192.855 91.6973C192.926 91.9781 192.926 91.9781 193.487 92.1887Z" fill="black"/>
<path d="M187.523 96.7514C187.453 96.5408 187.312 96.4004 187.102 96.4004C187.172 96.5408 187.312 96.7514 187.523 96.7514Z" fill="black"/>
<path d="M164.71 80.536C164.78 80.4658 164.78 80.3956 164.85 80.3254C164.64 80.3254 164.499 80.3254 164.359 80.3254C164.289 80.3956 164.289 80.536 164.148 80.6062C164.219 80.4658 164.289 80.3254 164.359 80.2552C164.289 80.185 164.219 80.185 164.148 80.1148C164.219 80.0446 164.359 80.0446 164.359 80.1148C164.499 80.2552 164.64 80.185 164.85 80.185C164.78 80.1148 164.78 80.0446 164.71 80.0446C164.921 79.9744 164.991 80.185 165.201 80.185C165.342 80.185 165.482 80.2552 165.693 80.185C165.623 80.0446 165.482 79.9042 165.342 79.7638C165.342 79.7638 165.272 79.7638 165.201 79.7638C165.061 79.7638 165.061 79.7638 164.991 79.6234C165.061 79.6234 165.061 79.5532 165.131 79.5532C165.131 79.483 164.991 79.3426 164.921 79.3426C164.85 79.3426 164.78 79.3426 164.64 79.2724C164.64 79.2724 164.57 79.2724 164.57 79.2022C164.64 79.2022 164.64 79.132 164.71 79.2022C164.921 79.2724 164.921 79.2022 164.921 78.9916C164.921 78.9916 164.921 78.9916 164.921 78.9214C164.991 78.9214 164.991 78.9916 164.991 79.0618C164.991 79.2724 165.131 79.4128 165.272 79.483C165.342 79.4128 165.342 79.2724 165.482 79.2022C165.482 79.2724 165.482 79.3426 165.482 79.3426C165.412 79.5532 165.552 79.6936 165.693 79.834C165.693 79.6936 165.763 79.5532 165.623 79.4128C165.623 79.3426 165.623 79.2724 165.623 79.2724C165.693 79.132 165.693 78.9916 165.623 78.9214C165.552 78.8512 165.552 78.8512 165.482 78.781C165.482 78.781 165.482 78.7108 165.552 78.6406C165.623 78.7108 165.693 78.8512 165.763 78.9214C165.903 78.781 166.044 78.7108 166.114 78.6406C166.044 78.781 165.974 78.8512 165.833 78.9214C165.693 79.0618 165.693 79.2022 165.693 79.3426C165.763 79.3426 165.833 79.2724 165.903 79.2724C165.903 79.3426 165.833 79.4128 165.763 79.4128C165.623 79.483 165.623 79.6234 165.623 79.7638C165.763 79.6936 165.903 79.5532 165.974 79.4128C166.044 79.3426 166.044 79.2724 166.184 79.2022C166.254 79.2022 166.325 79.0618 166.325 78.9916C166.395 78.9214 166.395 78.781 166.535 78.7108C166.535 78.8512 166.395 78.9916 166.395 79.132C166.535 79.132 166.676 79.2022 166.746 79.2022C166.746 79.2022 166.746 79.2022 166.746 79.2724C166.676 79.2724 166.535 79.2724 166.465 79.2724C166.254 79.2724 166.184 79.2724 166.044 79.5532C166.114 79.6234 166.254 79.5532 166.325 79.6936C166.114 79.7638 165.974 79.6234 165.763 79.7638C165.693 79.834 165.623 79.9042 165.552 80.0446C165.763 80.0446 165.903 80.0446 166.114 80.1148H166.184C166.325 79.9042 166.465 79.9744 166.676 79.9042C166.676 80.0446 166.535 79.9744 166.465 80.1148C166.816 80.1148 167.167 80.0446 167.588 80.0446C167.448 80.2552 167.237 80.1148 167.167 80.3254C167.237 80.3956 167.237 80.3956 167.307 80.536C167.167 80.536 167.097 80.4658 167.027 80.3956C166.956 80.2552 166.886 80.2552 166.746 80.2552C166.605 80.2552 166.535 80.2552 166.395 80.2552C166.395 80.3254 166.395 80.3956 166.395 80.4658H166.325C166.184 80.185 165.903 80.2552 165.693 80.2552C165.833 80.536 166.114 80.7466 166.395 80.887C166.325 80.9572 166.325 80.9572 166.325 81.0274C166.395 81.1678 166.535 81.238 166.465 81.3784C166.535 81.4486 166.676 81.4486 166.746 81.5188C166.605 81.589 166.535 81.4486 166.395 81.5188C166.395 81.589 166.325 81.6592 166.325 81.7996C166.184 81.7294 166.325 81.6592 166.325 81.589C166.325 81.5188 166.395 81.4486 166.465 81.3082C166.395 81.1678 166.254 81.0976 166.114 80.9572C166.044 81.0274 166.044 81.0976 165.974 81.0976C165.974 81.0274 165.974 81.0274 165.974 80.9572C166.044 80.8168 165.974 80.7466 165.903 80.6062C165.833 80.4658 165.693 80.3956 165.552 80.2552C165.552 80.4658 165.482 80.6764 165.623 80.8168C165.693 80.9572 165.693 81.0976 165.693 81.3082C165.693 81.3082 165.623 81.3082 165.623 81.3784C165.623 81.3082 165.552 81.3082 165.552 81.238C165.552 81.3082 165.482 81.3784 165.482 81.4486C165.482 81.4486 165.482 81.4486 165.412 81.4486C165.412 81.3082 165.412 81.1678 165.412 81.0976C165.342 81.0976 165.272 81.0976 165.272 81.0976V81.0274C165.552 80.887 165.482 80.6062 165.412 80.3956C165.201 80.6062 165.061 80.8168 164.991 81.0274C164.991 81.0976 164.991 81.1678 164.85 81.1678C164.85 81.0976 164.85 81.0274 164.85 80.9572C164.71 81.0976 164.64 81.1678 164.57 81.3082C164.57 81.3784 164.499 81.5188 164.429 81.589C164.429 81.589 164.359 81.6592 164.289 81.6592C164.359 81.5188 164.359 81.4486 164.429 81.3082C164.359 81.3082 164.219 81.238 164.148 81.238C164.289 81.0976 164.359 81.1678 164.499 81.1678C164.57 81.0274 164.71 80.887 164.85 80.7466C164.78 80.6764 164.71 80.6764 164.57 80.6764C164.71 80.6062 164.78 80.536 164.921 80.6764C164.991 80.6062 165.061 80.4658 165.201 80.3956C165.061 80.3254 164.921 80.3254 164.78 80.3254C164.71 80.3254 164.71 80.3956 164.64 80.3956C164.921 80.3956 164.85 80.4658 164.71 80.536C164.78 80.536 164.71 80.536 164.71 80.536Z" fill="black"/>
<path d="M171.939 86.643C172.009 86.5026 172.149 86.292 172.29 86.0814C171.798 86.0814 171.447 86.0814 170.956 86.0814C170.745 86.2218 170.816 86.5728 170.324 86.7834C170.535 86.4324 170.675 86.1516 170.816 85.8708C170.675 85.7304 170.535 85.6603 170.324 85.5199C170.535 85.2391 170.816 85.3795 170.886 85.5199C171.237 85.8708 171.588 85.8006 172.079 85.7304C171.939 85.59 171.869 85.4496 171.728 85.3093C172.29 85.1689 172.5 85.7304 172.922 85.7304C173.343 85.7304 173.694 85.941 174.185 85.8006C173.975 85.3794 173.624 85.0987 173.343 84.7477C173.273 84.6775 173.132 84.6775 172.992 84.6775C172.711 84.6073 172.711 84.6073 172.43 84.3967C172.571 84.3265 172.711 84.3265 172.781 84.2563C172.781 83.9755 172.5 83.7649 172.22 83.7649C172.009 83.7649 171.798 83.6947 171.518 83.6245C171.447 83.6245 171.447 83.5543 171.307 83.4841C171.447 83.4139 171.518 83.4139 171.658 83.4139C172.149 83.5543 172.22 83.4841 172.29 82.9225C172.29 82.8523 172.36 82.8523 172.36 82.7821C172.571 82.7821 172.641 82.9225 172.641 83.0629C172.641 83.6245 172.992 83.9053 173.343 84.1861C173.553 84.0457 173.413 83.6947 173.764 83.5543C173.764 83.7649 173.764 83.9053 173.694 83.9755C173.483 84.5371 173.764 84.9583 174.326 85.3093C174.396 84.8881 174.396 84.5371 174.255 84.1861C174.185 84.0457 174.185 83.8351 174.255 83.7649C174.536 83.4139 174.396 83.1331 174.185 82.7821C174.115 82.6417 173.975 82.5013 173.904 82.3609C173.904 82.2907 173.904 82.2205 173.975 82.0801C174.185 82.3609 174.396 82.5715 174.606 82.8523C174.957 82.5715 175.238 82.2907 175.589 82.0801L175.659 82.1503C175.449 82.4311 175.238 82.7119 174.957 82.9927C174.606 83.2735 174.536 83.6245 174.677 84.0457C174.887 83.9755 175.028 83.9053 175.238 83.8351C175.238 84.0457 175.098 84.1861 174.957 84.2563C174.606 84.4669 174.536 84.8179 174.677 85.1689C175.098 84.8881 175.379 84.6073 175.589 84.1861C175.73 83.9755 175.8 83.7649 176.081 83.6947C176.291 83.6245 176.361 83.3437 176.502 83.2033C176.642 82.9225 176.712 82.6417 177.063 82.4311C177.134 82.8523 176.642 83.0629 176.712 83.5543C176.993 83.6245 177.344 83.6947 177.695 83.7649C177.695 83.8351 177.695 83.8351 177.695 83.9053C177.414 83.9053 177.204 83.9053 176.923 83.9053C176.291 83.9053 176.151 83.9755 175.87 84.6073C176.081 84.7477 176.361 84.6073 176.502 84.9583C176.01 85.0987 175.519 84.7477 175.168 85.1689C174.957 85.3795 174.747 85.5199 174.677 85.8708C175.168 85.8708 175.589 85.941 176.081 85.941C176.151 85.941 176.221 85.941 176.221 85.8708C176.502 85.4497 177.063 85.5198 177.414 85.3794C177.414 85.3794 177.414 85.3794 177.485 85.4496C177.485 85.7304 177.063 85.6602 176.993 85.941C177.976 86.0112 178.889 85.8006 179.871 85.7304C179.591 86.2218 178.959 85.8708 178.818 86.4324C178.889 86.5728 179.029 86.7132 179.24 86.9238C178.889 86.9238 178.678 86.7834 178.608 86.5728C178.467 86.292 178.257 86.2218 177.976 86.292C177.695 86.292 177.344 86.3622 176.993 86.3622C176.993 86.5728 177.063 86.7132 177.063 86.8536C176.993 86.8536 176.923 86.8536 176.923 86.8536C176.572 86.1516 175.94 86.3622 175.238 86.3622C175.659 87.1344 176.291 87.6258 177.063 87.9066C176.993 88.047 176.923 88.1172 176.783 88.2576C176.923 88.6086 177.414 88.749 177.134 89.2404C177.414 89.3808 177.625 89.5212 177.906 89.6616C177.555 89.9424 177.274 89.451 176.993 89.6616C176.923 89.8722 176.853 90.0828 176.783 90.3636C176.502 90.153 176.712 89.9424 176.712 89.7318C176.712 89.5212 176.853 89.3106 176.993 89.0298C176.712 88.749 176.432 88.4682 176.081 88.047C175.94 88.1874 175.87 88.3278 175.73 88.4682H175.659C175.659 88.398 175.659 88.2576 175.659 88.1874C175.8 87.8364 175.659 87.5556 175.449 87.345C175.168 87.0642 174.887 86.7834 174.466 86.4324C174.466 86.994 174.326 87.4152 174.606 87.9066C174.817 88.2576 174.817 88.6788 174.887 89.1C174.817 89.1 174.747 89.1702 174.747 89.1702C174.677 89.1 174.606 88.9596 174.536 88.8192C174.466 89.0298 174.396 89.1702 174.396 89.3106C174.326 89.3106 174.326 89.3106 174.255 89.3106C174.255 88.9596 174.185 88.6788 174.185 88.3278C174.045 88.3278 173.904 88.3278 173.764 88.3278C173.764 88.2576 173.764 88.1874 173.764 88.1874C174.466 87.7662 174.255 87.1344 174.185 86.5026C173.624 86.994 173.273 87.4854 173.202 88.1874C173.202 88.3278 173.202 88.5384 172.922 88.5384C172.922 88.398 172.922 88.2576 172.922 88.047C172.571 88.3278 172.36 88.6086 172.22 88.9596C172.149 89.2404 172.079 89.451 171.939 89.7318C171.869 89.802 171.798 89.8722 171.658 89.8722C171.728 89.5914 171.869 89.2404 172.009 88.9596C171.728 88.8894 171.518 88.8192 171.307 88.749C171.658 88.4682 171.869 88.6788 172.22 88.6086C172.5 88.2576 172.781 87.9066 173.132 87.5556C172.851 87.4854 172.711 87.4152 172.5 87.2748C172.851 86.994 173.062 86.994 173.413 87.2046C173.624 86.994 173.834 86.7132 174.045 86.4324C173.694 86.2218 173.343 86.2218 172.992 86.2218C172.851 86.2218 172.781 86.3622 172.641 86.4324C172.5 86.5728 172.36 86.7132 172.149 86.9238C172.009 86.643 171.939 86.643 171.939 86.643Z" fill="white"/>
</g>
<defs>
<filter id="filter0_d" x="122.953" y="0.882812" width="117.838" height="116.89" filterUnits="userSpaceOnUse" color-interpolation-filters="sRGB">
<feFlood flood-opacity="0" result="BackgroundImageFix"/>
<feColorMatrix in="SourceAlpha" type="matrix" values="0 0 0 0 0 0 0 0 0 0 0 0 0 0 0 0 0 0 127 0" result="hardAlpha"/>
<feOffset dx="3.56481" dy="3.56481"/>
<feComposite in2="hardAlpha" operator="out"/>
<feColorMatrix type="matrix" values="0 0 0 0 0 0 0 0 0 0 0 0 0 0 0 0 0 0 0.1 0"/>
<feBlend mode="normal" in2="BackgroundImageFix" result="effect1_dropShadow"/>
<feBlend mode="normal" in="SourceGraphic" in2="effect1_dropShadow" result="shape"/>
</filter>
</defs>
</svg>
