<svg width="61" height="55" viewBox="0 0 61 55" fill="none" xmlns="http://www.w3.org/2000/svg">
<path d="M59.0117 29.3411C58.7117 31.6411 58.3117 34.1411 57.9117 36.6411C57.5117 39.7411 55.7117 42.2411 53.8117 44.5411C51.5117 47.2411 48.8117 49.5411 45.5117 51.1411C40.7117 53.5411 35.6117 54.5411 30.4117 54.7411C23.3117 55.0411 16.9117 52.8411 11.3117 48.3411C7.21172 45.1411 5.11172 40.7411 3.01172 36.2411C2.61172 35.4411 2.51172 34.5411 2.51172 33.6411C2.81172 30.5411 2.71172 27.2411 3.71172 24.4411C5.01172 20.7411 6.11172 16.9411 8.31172 13.5411C10.7117 9.9411 13.4117 6.7411 17.0117 4.3411C20.1117 2.2411 23.5117 0.841102 27.2117 0.541102C27.8117 0.541102 28.4117 0.441102 28.9117 0.341102C37.8117 -1.1589 45.0117 2.4411 51.3117 8.1411C55.1117 11.5411 56.7117 16.1411 57.9117 20.8411C58.5117 23.7411 58.6117 26.4411 59.0117 29.3411ZM56.9117 29.1411C57.1117 22.2411 55.2117 15.8411 50.5117 10.5411C46.2117 5.7411 40.7117 2.6411 34.4117 2.1411C28.4117 1.6411 22.7117 3.4411 17.9117 7.3411C12.2117 11.8411 8.41172 17.8411 5.81172 24.4411C4.71172 27.4411 4.21172 31.0411 4.81172 34.1411C6.21172 42.1411 11.3117 47.7411 18.7117 50.7411C27.0117 54.1411 35.4117 53.5411 43.5117 49.7411C52.2117 45.7411 57.3117 39.2411 56.9117 29.1411Z" fill="#F15748"/>
<path d="M59.11 46.4413C56.21 48.3413 52.91 48.7413 49.51 49.0413C43.91 49.5413 38.31 49.5413 32.61 49.6413C28.41 49.7413 24.21 49.8413 20.01 49.5413C16.61 49.2413 13.31 49.0413 9.81002 49.0413C7.21002 49.0413 4.71002 48.7413 2.31002 47.9413C2.11002 47.8413 1.91002 47.8413 1.71002 47.7413C-0.0899776 47.0413 -0.489978 46.2413 0.610022 44.5413C1.51002 43.1413 2.61002 41.7413 3.61002 40.4413C5.31002 38.4413 7.01002 36.3413 8.71002 34.4413C7.71002 31.0413 7.01002 27.7413 6.51002 24.2413C6.41002 23.6413 6.31002 23.0413 6.21002 22.5413C6.01002 20.1413 5.61002 17.7413 5.51002 15.4413C5.41002 13.4413 5.91002 11.5413 7.11002 9.84128C7.61002 9.14128 8.21002 8.74128 9.11002 8.64128C12.81 8.24128 16.51 7.64128 20.21 8.04128C20.61 8.04128 21.21 8.04128 21.61 7.94128C23.31 7.64128 24.81 7.64128 26.51 7.74128C28.11 7.94128 29.71 7.64128 31.31 7.64128C33.91 7.64128 36.51 7.54128 39.11 7.44128C41.71 7.34128 44.21 7.34128 46.71 7.04128C48.51 6.84128 50.11 7.24128 51.71 7.84128C52.71 8.14128 53.31 8.94128 53.21 10.0413C53.01 13.2413 52.91 16.4413 52.61 19.6413C52.11 24.1413 51.51 28.6413 50.91 33.2413C52.91 33.8413 54.01 35.2413 55.11 36.5413C56.91 38.6413 58.81 40.8413 59.91 43.4413C60.91 45.0413 60.71 45.3413 59.11 46.4413Z" fill="white"/>
<path d="M36.3086 10.9414C37.3086 11.1414 38.2086 11.2414 39.2086 11.4414C39.8086 11.5414 40.5086 11.6414 41.1086 11.8414C42.7086 12.2414 44.2086 12.9414 45.6086 13.7414C46.2086 14.1414 46.9086 14.6414 47.3086 15.2414C47.9086 16.0414 48.3086 16.9414 48.6086 17.9414C48.6086 17.6414 48.6086 17.3414 48.6086 17.1414C48.7086 15.3414 48.8086 13.4414 47.9086 11.9414C47.8086 11.8414 47.7086 11.6414 47.6086 11.6414C47.4086 11.5414 47.2086 11.4414 47.0086 11.4414C46.6086 11.3414 46.2086 11.2414 45.8086 11.1414C45.3086 11.0414 44.8086 11.0414 44.2086 11.0414C41.7086 11.0414 39.2086 11.0414 36.7086 11.0414" fill="#BCBCBB"/>
<path d="M32.8117 41.6414C31.7117 41.8414 30.5117 41.8414 29.5117 42.3414C32.5117 42.2414 35.5117 42.1414 38.5117 41.9414C38.5117 41.3414 38.3117 40.7414 38.0117 40.2414C38.0117 40.1414 37.9117 40.1414 37.8117 40.0414C37.6117 39.9414 37.3117 39.9414 37.2117 39.9414C37.0117 39.9414 36.8117 39.9414 36.6117 39.9414C36.3117 39.9414 36.1117 40.0414 35.9117 40.1414C35.7117 40.3414 35.4117 40.5414 35.2117 40.7414C34.9117 41.0414 34.6117 41.2414 34.2117 41.3414C33.7117 41.4414 33.2117 41.5414 32.8117 41.6414Z" fill="#BCBCBB"/>
<path d="M31.2109 44.2412C31.5109 44.3412 31.9109 44.4412 32.1109 44.7412C32.3109 45.0412 32.3109 45.4412 32.1109 45.7412C31.9109 45.9412 31.6109 45.9412 31.3109 46.0412C30.3109 46.1412 29.4109 46.2412 28.5109 46.2412C28.0109 46.2412 27.5109 46.3412 27.0109 46.4412C26.0109 46.6412 25.1109 46.9412 24.2109 47.3412C27.4109 47.7412 30.7109 47.9412 34.0109 47.8412C34.1109 47.8412 34.2109 47.8412 34.3109 47.8412C34.4109 47.8412 34.5109 47.7412 34.6109 47.6412C35.3109 47.1412 35.7109 46.2412 35.6109 45.3412C35.6109 45.2412 35.6109 45.0412 35.4109 44.8412C35.2109 44.6412 34.9109 44.5412 34.6109 44.5412C33.7109 44.4412 32.8109 44.3412 31.9109 44.2412" fill="#BCBCBB"/>
<path d="M10.1086 31.041C10.3086 31.341 10.6086 31.741 10.9086 32.041C11.3086 32.441 11.9086 32.741 12.4086 33.041C13.5086 33.641 14.6086 34.341 15.8086 34.641C14.7086 34.641 13.6086 34.641 12.5086 34.741C12.3086 34.741 12.0086 34.741 11.8086 34.841C11.4086 34.941 11.1086 35.241 10.8086 35.541C9.80859 36.541 9.00859 37.541 8.20859 38.741C7.60859 39.741 6.90859 40.641 5.90859 41.141C5.00859 41.541 4.00859 41.541 3.30859 42.141C5.30859 40.241 6.60859 37.541 8.70859 35.641C9.20859 35.241 9.70859 34.841 9.80859 34.241C9.80859 33.841 9.70859 33.441 9.60859 33.041C9.40859 32.541 9.30859 32.041 9.10859 31.541C9.00859 31.041 8.90859 30.441 8.90859 29.941C8.90859 29.741 8.90859 29.641 8.90859 29.441C8.90859 29.341 8.90859 29.241 8.90859 29.241V29.041L9.00859 29.241C9.00859 29.341 9.10859 29.441 9.10859 29.441C9.10859 29.741 9.20859 29.841 9.20859 30.041C9.40859 30.341 9.50859 30.541 9.70859 30.841C9.80859 30.741 9.90859 30.941 10.1086 31.041Z" fill="#BCBCBB"/>
<path d="M55.2102 38.2416C55.7102 39.5416 55.7102 40.8416 55.7102 42.2416C55.7102 42.6416 55.7102 43.0416 55.6102 43.3416C55.4102 44.1416 54.7102 44.6416 54.0102 45.0416C52.4102 46.0416 50.6102 46.4416 48.8102 46.6416C48.1102 46.7416 47.4102 46.8416 46.7102 47.0416C46.0102 47.2416 45.3102 47.6416 44.9102 48.2416C45.5102 48.2416 46.0102 48.2416 46.6102 48.2416C47.1102 48.2416 47.5102 48.2416 47.9102 48.1416C48.3102 48.0416 48.7102 47.8416 49.0102 47.7416C50.0102 47.4416 51.1102 47.5416 52.2102 47.4416C54.4102 47.3416 56.6102 46.8416 58.6102 45.8416C59.1102 45.5416 59.7102 45.2416 59.9102 44.7416C60.1102 44.2416 59.9102 43.6416 59.7102 43.1416C59.4102 42.2416 59.1102 41.4416 58.6102 40.6416C58.2102 40.1416 57.6102 39.6416 57.2102 39.2416C56.8102 38.8416 56.4102 38.4416 56.0102 37.9416C55.8102 37.7416 55.6102 37.5416 55.4102 37.3416C55.3102 37.2416 55.2102 37.2416 55.1102 37.1416H54.9102C54.9102 37.1416 54.9102 37.2416 55.0102 37.3416C55.0102 37.4416 55.1102 37.5416 55.1102 37.5416C55.1102 37.9416 55.1102 38.1416 55.2102 38.2416Z" fill="#BCBCBB"/>
<path d="M46.6094 27.6417C46.4094 28.0417 46.2094 28.5417 45.9094 28.9417C45.7094 29.2417 45.4094 29.4417 45.2094 29.6417C43.7094 30.9417 42.0094 31.9417 40.1094 32.2417C41.5094 32.4417 43.0094 31.8417 44.5094 31.6417C45.1094 31.5417 45.6094 31.5417 46.2094 31.4417C46.7094 31.3417 47.3094 31.1417 47.6094 30.6417C48.2094 29.9417 48.2094 28.9417 48.3094 28.0417C48.4094 27.5417 48.5094 27.0417 48.6094 26.5417C48.7094 25.9417 48.7094 25.2417 48.7094 24.5417C48.7094 24.3417 48.7094 24.1417 48.7094 24.0417C48.7094 23.9417 48.6094 23.6417 48.5094 23.8417C48.5094 23.9417 48.5094 24.0417 48.5094 24.0417V24.2417C48.5094 24.4417 48.4094 24.5417 48.3094 24.7417C48.1094 25.3417 47.7094 25.9417 47.3094 26.5417C47.0094 26.9417 46.7094 27.3417 46.6094 27.6417Z" fill="#BCBCBB"/>
<path d="M32.5086 27.1411C32.5086 27.3411 32.5086 27.5411 32.4086 27.6411C32.2086 27.9411 31.9086 28.1411 31.5086 28.3411C31.1086 28.5411 30.7086 28.7411 30.3086 28.9411C30.8086 29.1411 31.3086 29.1411 31.8086 29.0411C32.2086 28.9411 32.7086 28.5411 32.9086 28.1411C33.1086 27.8411 33.1086 27.5411 33.0086 27.1411C33.0086 26.9411 32.9086 26.8411 32.8086 26.7411C32.8086 26.7411 32.7086 26.5411 32.6086 26.5411C32.6086 26.5411 32.4086 26.3411 32.4086 26.4411C32.4086 26.4411 32.4086 26.5411 32.4086 26.6411V26.8411C32.5086 26.8411 32.5086 26.9411 32.5086 27.1411Z" fill="#BCBCBB"/>
<path d="M36.6102 15.4409C36.6102 15.6409 36.6102 15.8409 36.5102 15.9409C36.3102 16.2409 36.0102 16.4409 35.6102 16.6409C35.2102 16.8409 34.8102 17.0409 34.4102 17.2409C34.9102 17.4409 35.4102 17.4409 35.9102 17.3409C36.4102 17.1409 36.8102 16.8409 37.0102 16.4409C37.2102 16.1409 37.2102 15.8409 37.1102 15.4409C37.1102 15.2409 37.0102 15.1409 36.9102 15.0409C36.9102 15.0409 36.8102 14.8409 36.7102 14.8409C36.7102 14.8409 36.5102 14.6409 36.5102 14.7409C36.5102 14.7409 36.5102 14.8409 36.5102 14.9409V15.1409C36.6102 15.0409 36.6102 15.2409 36.6102 15.4409Z" fill="#BCBCBB"/>
<path d="M34.4117 15.4414C29.6117 15.4414 21.6117 15.4414 18.5117 15.4414C18.2117 15.4414 17.9117 15.6414 17.5117 15.7414C17.8117 16.5414 18.3117 16.4414 18.7117 16.3414C21.3117 16.1414 26.0117 16.1414 28.5117 16.0414C29.4117 16.0414 32.0117 16.0414 34.4117 16.0414C34.4117 15.9414 34.4117 15.7414 34.4117 15.4414Z" fill="#010202"/>
<path d="M40.6102 15.4414C40.0102 15.4414 38.2102 15.4414 37.4102 15.4414C37.4102 15.6414 37.4102 15.9414 37.4102 16.2414C38.2102 16.2414 39.8102 16.2414 40.2102 16.2414C40.6102 16.2414 41.0102 16.2414 41.2102 15.7414C40.9102 15.6414 40.7102 15.4414 40.6102 15.4414Z" fill="#010202"/>
<path d="M23.7094 21.4414C22.5094 21.4414 19.5094 21.4414 18.6094 21.4414C18.3094 21.4414 18.0094 21.6414 17.6094 21.7414C17.9094 22.5414 18.4094 22.4414 18.8094 22.3414C19.8094 22.3414 22.8094 22.2414 23.8094 22.1414C23.6094 21.9414 23.6094 21.6414 23.7094 21.4414Z" fill="#010202"/>
<path d="M40.6094 21.4414C37.7094 21.4414 31.2094 21.4414 26.6094 21.4414C26.6094 21.6414 26.6094 21.9414 26.6094 22.2414C27.3094 22.2414 27.9094 22.2414 28.6094 22.2414C30.2094 22.2414 38.5094 22.3414 40.1094 22.3414C40.5094 22.3414 40.9094 22.3414 41.1094 21.8414C40.9094 21.6414 40.7094 21.4414 40.6094 21.4414Z" fill="#010202"/>
<path d="M30.2109 27.2412C26.5109 27.2412 20.8109 27.2412 18.7109 27.2412C18.4109 27.2412 18.1109 27.4412 17.7109 27.5412C18.0109 28.3412 18.5109 28.2412 18.9109 28.1412C21.5109 27.9412 26.2109 27.9412 28.7109 27.8412C29.0109 27.8412 29.6109 27.8412 30.3109 27.8412C30.1109 27.6412 30.1109 27.4412 30.2109 27.2412Z" fill="#010202"/>
<path d="M40.5117 27.2412C38.9117 27.2412 35.5117 27.2412 33.0117 27.2412C33.0117 27.4412 33.0117 27.7412 33.0117 27.9412C35.4117 27.9412 39.1117 28.0412 40.0117 28.0412C40.4117 28.0412 40.8117 28.0412 41.0117 27.5412C40.9117 27.4412 40.7117 27.2412 40.5117 27.2412Z" fill="#010202"/>
<path d="M51.9086 41.141C51.4086 40.041 51.0086 38.941 50.6086 37.741C50.4086 37.141 50.0086 36.741 49.3086 36.741C48.7086 36.741 48.1086 36.841 47.6086 36.941C44.2086 37.441 40.9086 37.741 37.5086 37.241C35.3086 36.841 33.1086 37.041 31.1086 36.941C29.0086 36.941 26.9086 36.941 24.7086 36.841C22.2086 36.741 19.7086 36.641 17.2086 36.541C15.6086 36.441 13.9086 36.341 12.3086 36.141C11.5086 36.041 11.0086 36.341 10.6086 36.941C10.1086 37.641 9.60864 38.341 9.20864 39.041C9.00864 39.441 8.80864 39.841 8.70864 40.241C8.40864 41.341 8.70864 41.841 9.70864 41.941C11.0086 42.141 12.3086 42.341 13.5086 42.441C13.6086 42.441 13.8086 42.441 13.9086 42.441C14.1086 42.441 14.3086 42.441 14.5086 42.441C14.7086 42.441 14.9086 42.441 15.1086 42.441C15.3086 42.441 15.5086 42.441 15.7086 42.441C15.9086 42.441 16.1086 42.441 16.3086 42.441C16.5086 42.441 16.7086 42.441 16.9086 42.441C17.1086 42.441 17.3086 42.441 17.5086 42.441C17.7086 42.441 18.0086 42.441 18.1086 42.441C18.3086 42.441 18.6086 42.441 18.7086 42.441C18.9086 42.441 19.2086 42.441 19.3086 42.441C19.5086 42.441 19.8086 42.441 20.0086 42.441C20.5086 42.441 21.1086 42.541 21.6086 42.541C22.2086 42.541 22.7086 42.541 23.3086 42.541C23.4086 42.541 23.4086 42.541 23.5086 42.541C23.7086 42.541 24.0086 42.541 24.1086 42.541C25.2086 42.541 26.4086 42.541 27.5086 42.541C27.8086 42.541 28.0086 42.541 28.3086 42.541C28.5086 42.541 28.7086 42.541 28.9086 42.441C32.1086 42.341 35.3086 42.241 38.5086 42.141C41.8086 42.041 45.1086 42.141 48.5086 42.041C49.3086 42.041 50.1086 41.941 50.9086 41.841C52.0086 42.341 52.2086 41.941 51.9086 41.141ZM36.1086 39.041C34.7086 39.341 34.2086 39.241 34.0086 38.841C33.9086 38.741 33.9086 38.341 33.8086 38.141C34.9086 37.941 35.7086 37.741 36.1086 38.241C36.3086 38.341 36.0086 38.741 36.1086 39.041ZM31.8086 37.941C32.2086 37.941 32.6086 38.441 32.9086 38.941L28.4086 38.841C28.4086 38.641 28.4086 38.541 28.3086 38.341C29.3086 37.641 30.6086 38.041 31.8086 37.941ZM27.4086 38.041C27.4086 38.241 27.4086 38.641 27.1086 38.741C26.5086 38.941 24.7086 38.941 23.9086 38.641C23.6086 38.541 23.6086 38.341 23.6086 38.241C23.7086 37.941 23.6086 37.941 23.9086 37.841C24.8086 37.641 26.4086 37.841 27.4086 38.041ZM15.7086 41.441C13.7086 41.741 11.6086 41.441 9.60864 40.941C9.50864 39.341 10.6086 38.441 11.5086 37.541C12.3086 36.741 13.3086 37.341 14.3086 37.341C14.3086 38.441 13.7086 38.441 13.0086 38.341H11.3086C11.3086 38.541 11.2086 38.641 11.2086 38.841C11.7086 39.041 12.2086 39.141 12.7086 39.441C12.6086 39.841 12.4086 40.241 12.3086 40.541C12.4086 40.641 12.5086 40.741 12.6086 40.741C13.1086 40.341 13.6086 39.741 14.2086 39.441C14.8086 39.141 15.5086 39.341 16.2086 39.541C16.0086 40.241 15.9086 40.741 15.7086 41.441ZM15.2086 38.441C15.8086 37.341 15.8086 37.341 17.5086 37.641C17.3086 37.941 17.3086 38.241 17.2086 38.441C16.8086 38.841 16.4086 38.741 15.2086 38.441ZM21.9086 41.941C20.1086 41.841 18.4086 41.641 16.5086 41.441C17.1086 39.241 17.3086 39.241 19.2086 39.441C19.7086 39.541 20.2086 39.541 20.6086 39.541C21.1086 39.541 21.6086 39.641 22.2086 39.641C22.2086 40.541 22.1086 41.241 21.9086 41.941ZM18.7086 38.741C18.9086 38.441 18.8086 38.041 19.1086 37.941C19.9086 37.441 21.3086 37.441 22.9086 38.141C22.7086 38.341 22.7086 38.741 22.5086 38.841C21.2086 39.241 19.9086 38.541 18.7086 38.741ZM22.9086 42.141C22.9086 41.541 22.9086 41.041 23.1086 40.641C23.2086 40.041 23.6086 39.741 24.2086 39.741C27.3086 39.841 30.3086 40.041 33.4086 40.141C34.3086 40.141 35.2086 40.241 36.1086 40.241C37.1086 40.241 37.7086 40.641 38.0086 41.741C32.9086 41.641 28.0086 42.441 22.9086 42.141ZM37.9086 39.241C37.7086 39.241 37.7086 38.841 37.5086 38.641C39.0086 38.641 40.4086 38.641 41.9086 38.741C42.4086 38.741 42.9086 38.941 42.9086 39.741C41.2086 39.441 39.6086 39.741 37.9086 39.241ZM39.5086 41.641C39.0086 41.641 38.8086 41.341 38.9086 40.641C39.4086 40.641 39.8086 40.541 40.3086 40.441C41.2086 40.441 42.1086 40.441 43.0086 40.441C43.7086 40.441 43.7086 40.441 44.0086 41.641C42.5086 41.641 41.0086 41.641 39.5086 41.641ZM44.0086 38.441C45.6086 38.241 47.2086 37.941 48.7086 37.841C49.4086 37.741 49.7086 38.141 49.5086 39.141C47.7086 39.141 46.0086 39.141 44.3086 39.041C44.3086 39.141 44.2086 38.841 44.0086 38.441ZM45.3086 41.641C45.1086 41.141 45.0086 40.741 44.9086 40.341C45.2086 40.241 45.3086 40.041 45.4086 40.041C46.9086 39.941 48.3086 39.841 50.0086 39.741C50.2086 40.241 50.4086 40.641 50.6086 41.341C48.8086 42.041 47.1086 41.641 45.3086 41.641Z" fill="#010202"/>
<path d="M60.1083 43.4412C59.0083 40.8413 57.1083 38.6412 55.3083 36.5412C54.2083 35.2412 53.1083 33.7412 51.1083 33.2412C51.7083 28.5412 52.4083 24.1412 52.8083 19.6412C53.1083 16.4412 53.2083 13.2412 53.4083 10.0412C53.4083 8.94125 52.9083 8.14125 51.9083 7.84125C50.3083 7.34125 48.7083 6.84125 46.9083 7.04125C44.3083 7.34125 41.8083 7.34125 39.3083 7.44125C36.7083 7.54125 34.1083 7.54125 31.5083 7.64125C29.9083 7.64125 28.3083 7.94125 26.7083 7.74125C25.0083 7.54125 23.5083 7.64125 21.8083 7.94125C21.3083 8.04125 20.8083 8.04125 20.4083 8.04125C16.7083 7.64125 13.0083 8.24125 9.30833 8.64125C8.50833 8.74125 7.90833 9.04125 7.30833 9.84125C6.10833 11.5412 5.60833 13.4412 5.70833 15.4412C5.80833 17.8412 6.10833 20.2412 6.40833 22.5412C6.50833 23.1412 6.60833 23.6412 6.70833 24.2412C7.10833 27.7412 7.80833 31.0413 8.80833 34.4412C7.10833 36.3412 5.40833 38.3412 3.70833 40.4412C2.60833 41.7412 1.60833 43.0412 0.708328 44.5412C-0.291672 46.2412 0.108328 47.0412 1.80833 47.7412C2.00833 47.8412 2.20833 47.8413 2.40833 47.9412C4.80833 48.7412 7.40833 49.1412 9.90833 49.0412C13.3083 49.0412 16.7083 49.2412 20.1083 49.5412C24.3083 49.8412 28.5083 49.7412 32.7083 49.6412C38.4083 49.5412 43.9083 49.5412 49.6083 49.0412C53.0083 48.7412 56.2083 48.3413 59.2083 46.4412C60.7083 45.3413 60.9083 45.0412 60.1083 43.4412ZM8.60833 27.6412C8.10833 25.6412 7.80833 23.4412 7.60833 21.3412C7.40833 19.1412 7.30833 16.9412 7.20833 14.8412C7.10833 13.1412 7.50833 11.6412 8.80833 10.3412C9.40833 9.84125 9.90833 9.44125 10.7083 9.34125C12.9083 9.14125 15.0083 8.64125 17.2083 8.64125C19.6083 8.64125 22.0083 8.34125 24.3083 8.44125C30.1083 8.64125 35.7083 8.14125 41.3083 8.24125C43.3083 8.24125 45.2083 7.94125 47.2083 7.94125C48.3083 7.94125 49.4083 7.94125 50.5083 8.24125C51.9083 8.54125 52.5083 9.24125 52.4083 10.7412C52.3083 13.6412 52.1083 16.7412 51.8083 19.6412C51.4083 23.5412 50.8083 27.4412 50.4083 31.3412C50.2083 33.2412 49.9083 33.6412 48.1083 34.0412C47.2083 34.2412 46.3083 34.3412 45.5083 34.3412C41.3083 34.4412 37.1083 34.4412 32.9083 34.5412C31.0083 34.5412 29.1083 34.5412 27.2083 34.6412C26.9083 34.6412 26.7083 34.6412 26.4083 34.6412C22.6083 35.1412 18.9083 34.4412 15.1083 34.3412C13.7083 34.2412 12.4083 34.3412 11.0083 34.2412C10.1083 31.8412 9.20833 29.8412 8.60833 27.6412ZM34.9083 46.9412C34.7083 47.4412 34.3083 47.5412 33.7083 47.5412C33.1083 47.5412 32.4083 47.5412 31.8083 47.5412C30.5083 47.5412 29.2083 47.4412 27.8083 47.2412C27.1083 47.1413 26.4083 47.0412 25.7083 47.0412C25.1083 47.0412 24.4083 47.2412 23.9083 46.9412C22.8083 46.3413 23.9083 44.9412 24.5083 44.3412C24.6083 44.2412 24.8083 44.1412 25.0083 44.1412C25.3083 44.0412 25.7083 44.0412 26.1083 44.0412C27.5083 44.0412 28.7083 44.1412 30.1083 44.3412C31.4083 44.5412 32.6083 44.6413 33.9083 44.7412C34.4083 44.7412 34.9083 44.9412 35.1083 45.4412C35.0083 45.8413 35.0083 46.5412 34.9083 46.9412ZM58.7083 45.4412C57.9083 45.2412 57.3083 45.6413 56.6083 45.9412C55.6083 46.4412 54.7083 46.7412 53.6083 46.8412C50.5083 47.1412 47.4083 47.6412 44.3083 47.8412C43.2083 47.9412 42.1083 48.0412 41.1083 48.0412C40.0083 48.0412 38.9083 48.0412 37.8083 48.0412H35.9083C35.9083 48.0412 35.9083 48.0412 35.8083 48.0412H35.3083C35.4083 48.0412 35.5083 47.9412 35.5083 47.9412C35.6083 47.9412 35.6083 47.8412 35.6083 47.7412C35.7083 47.6413 35.7083 47.6412 35.8083 47.5412V47.4412C35.8083 47.4412 35.8083 47.4412 35.8083 47.3412C35.8083 47.1412 35.8083 46.9412 35.8083 46.7412C35.8083 46.5412 35.8083 46.3412 35.8083 46.1412C35.8083 46.0412 35.8083 45.8412 35.8083 45.6412V45.4412C35.8083 44.2412 35.2083 44.2412 34.1083 44.1412C33.0083 44.0412 31.8083 44.0412 30.6083 43.8412C30.5083 43.8412 30.4083 43.8412 30.3083 43.8412C30.1083 43.8412 29.8083 43.8412 29.6083 43.7412H29.4083C29.4083 43.7412 29.4083 43.7412 29.3083 43.7412C29.3083 43.7412 29.3083 43.7412 29.2083 43.7412C29.1083 43.7412 29.0083 43.7412 28.9083 43.7412C28.7083 43.7412 28.5083 43.7412 28.2083 43.7412C28.0083 43.7412 27.8083 43.7412 27.5083 43.7412C27.3083 43.7412 27.1083 43.7412 26.8083 43.7412C26.6083 43.7412 26.3083 43.7412 26.1083 43.7412H24.1083C23.9083 43.7412 23.8083 43.7412 23.6083 43.7412C23.4083 43.7412 23.3083 43.8413 23.1083 43.9412C23.0083 43.9412 23.0083 44.0412 22.9083 44.0412C22.9083 44.0412 22.8083 44.1412 22.7083 44.1412C22.6083 44.2412 22.6083 44.2412 22.5083 44.3412C22.3083 44.4412 22.2083 44.6412 22.1083 44.8412C21.9083 45.2412 21.8083 45.6412 21.6083 46.0412C21.6083 46.2412 21.5083 46.4412 21.4083 46.6412C21.4083 46.7412 21.4083 46.8413 21.3083 46.9412C21.3083 46.9412 21.3083 47.0412 21.3083 47.1412C21.3083 47.1412 21.3083 47.1413 21.3083 47.2412V47.0412C21.6083 47.3412 22.0083 47.2412 22.3083 47.4412C22.2083 48.1413 6.10833 47.6412 3.70833 46.8412C4.80833 46.4412 5.40833 46.0412 6.10833 45.7412C6.10833 45.6413 6.00833 45.6413 6.00833 45.4412C5.10833 45.7412 4.30833 46.1413 3.40833 46.4412C2.60833 46.7412 2.60833 46.7412 1.60833 45.8412C3.50833 44.6412 5.40833 43.8412 7.40833 43.1412C5.50833 43.2412 3.90833 44.3412 2.00833 44.8412C2.00833 43.8412 2.50833 43.3412 3.00833 42.8412C4.60833 41.0412 6.30833 39.2412 7.90833 37.4412C8.60833 36.6413 9.20833 35.8412 9.90833 35.1412C11.7083 35.2412 13.5083 35.3412 15.3083 35.5412C16.6083 35.6412 17.9083 35.8412 19.3083 35.8412C22.2083 35.8412 25.3083 35.8412 28.2083 35.7412C33.5083 35.7412 38.8083 35.6412 44.1083 35.5412C46.1083 35.5412 48.0083 35.5413 49.8083 34.4412C50.4083 34.0413 50.9083 34.1412 51.4083 34.5412C51.9083 34.8412 52.4083 35.1412 52.8083 35.6412C54.7083 37.9412 56.5083 40.4412 58.3083 42.8412C58.7083 43.3412 58.9083 44.1413 59.0083 44.7412C59.5083 45.1413 59.2083 45.5412 58.7083 45.4412Z" fill="#010202"/>
<path d="M48.5094 14.5415C47.4094 15.0415 47.1094 15.1415 46.2094 15.5415C46.2094 15.4415 46.1094 15.3415 46.1094 15.2415C47.1094 14.8415 47.4094 14.6415 48.4094 14.2415C48.5094 13.1415 48.0094 12.3415 47.0094 11.9415C46.3094 11.6415 45.5094 11.4415 44.7094 11.4415C40.9094 11.3415 38.3094 11.4415 34.6094 11.4415C31.9094 11.4415 29.2094 11.7415 26.5094 11.8415C25.2094 11.8415 23.9094 11.6415 22.5094 11.6415C19.3094 11.7415 16.2094 11.8415 13.1094 11.9415C12.7094 11.9415 12.3094 11.9415 11.5094 11.9415C12.0094 11.4415 12.2094 11.1415 12.4094 11.1415C16.7094 10.6415 21.0094 10.3415 25.2094 10.8415C25.7094 10.9415 26.3094 10.9415 26.8094 10.8415C33.0094 10.3415 38.0094 10.2415 44.2094 10.3415C44.5094 10.3415 44.8094 10.4415 45.2094 10.4415C48.6094 10.6415 49.2094 11.8415 49.5094 14.9415C49.6094 15.6415 49.5094 16.5415 49.5094 17.4415C49.5094 21.0415 49.6094 24.5415 49.0094 28.0415C48.8094 29.0415 48.4094 30.0415 48.0094 31.0415C47.7094 31.8415 47.1094 32.2415 46.3094 32.3415C44.9094 32.5415 43.6094 32.8415 42.2094 32.8415C38.5094 32.9415 34.9094 33.0415 31.2094 33.0415C26.8094 33.0415 22.5094 32.8415 18.1094 32.7415C16.8094 32.7415 15.5094 32.5415 14.1094 32.4415C12.7094 32.3415 11.9094 31.7415 11.3094 30.4415C10.5094 28.5415 9.70938 21.6415 9.70938 19.5415C9.70938 17.4415 9.60938 15.3415 9.60938 13.1415C9.60938 12.8415 9.80937 12.5415 10.0094 12.0415C10.6094 12.9415 10.5094 13.6415 10.5094 14.2415C10.5094 19.0415 10.4094 23.7415 11.8094 28.5415C12.9094 31.1415 12.6094 31.6415 16.0094 31.7415C18.6094 31.7415 21.3094 32.0415 24.0094 32.1415C25.8094 32.1415 27.6094 32.1415 29.4094 32.1415C32.4094 32.1415 35.5094 32.2415 38.5094 32.1415C40.9094 32.0415 43.3094 31.7415 45.8094 31.5415C46.6094 31.4415 47.2094 31.0415 47.4094 30.1415C47.9094 28.1415 47.9094 26.9415 48.0094 24.7415C48.3094 22.7415 48.1094 19.9415 48.3094 17.9415C48.5094 16.8415 48.5094 15.8415 48.5094 14.5415Z" fill="#010202"/>
<path d="M48.7109 15.5408C48.5109 15.6408 47.6109 16.0408 47.3109 16.1408C47.3109 16.0408 47.2109 15.9408 47.2109 15.9408C47.4109 15.8408 48.3109 15.4408 48.6109 15.3408C48.6109 15.4408 48.6109 15.4408 48.7109 15.5408Z" fill="#010202"/>
<path d="M37.7087 14.8412C37.6087 14.6412 37.4087 14.3412 37.3087 14.2412C37.0087 14.0412 36.7087 13.8412 36.4087 13.7412C36.2087 13.7412 36.2087 13.7412 36.1087 13.7412H36.0087C35.9087 13.7412 35.8087 13.7412 35.7087 13.7412C35.6087 13.7412 35.5087 13.7412 35.4087 13.8412C35.2087 13.9412 35.0087 14.0412 34.9087 14.1412C34.7087 14.3412 34.6087 14.4412 34.4087 14.6412C34.3087 14.8412 34.2087 15.0412 34.1087 15.2412C34.0087 15.8412 34.0087 16.1412 34.2087 16.5412C34.3087 16.7412 34.4087 16.9412 34.5087 17.0412C34.7087 17.2412 34.8087 17.2412 34.9087 17.3412C35.2087 17.5412 35.5087 17.6412 35.8087 17.6412C36.0087 17.6412 36.0087 17.6412 36.2087 17.6412C36.4087 17.6412 36.8087 17.4412 37.0087 17.4412C37.2087 17.2412 37.4087 17.1412 37.5087 17.0412C37.9087 16.2412 38.0087 15.6412 37.7087 14.8412ZM35.3087 16.8412C35.2087 16.7412 35.1087 16.6412 35.0087 16.6412C34.9087 16.5412 34.8087 16.4412 34.8087 16.2412C34.7087 16.0412 34.6087 15.7412 34.8087 15.4412C34.8087 15.3412 34.9087 15.2412 35.0087 15.0412C35.0087 14.9412 35.2087 14.8412 35.2087 14.7412C35.4087 14.6412 35.4087 14.5412 35.6087 14.5412H35.8087C35.9087 14.5412 36.0087 14.5412 36.0087 14.5412C36.0087 14.5412 36.1087 14.5412 36.2087 14.5412C36.3087 14.5412 36.4087 14.5412 36.4087 14.5412C36.6087 14.5412 36.8087 14.7412 37.0087 14.8412C37.1087 14.9412 37.2087 15.1412 37.3087 15.2412C37.6087 15.8412 37.4087 16.2412 37.1087 16.7412C37.1087 16.8412 37.0087 16.9412 36.9087 16.9412C36.8087 16.9412 36.5087 17.1412 36.4087 17.1412C35.7087 17.0412 35.6087 17.0412 35.3087 16.8412Z" fill="#010202"/>
<path d="M26.9102 20.8412C26.8102 20.6412 26.6102 20.3412 26.5102 20.2412C26.2102 20.0412 25.9102 19.8412 25.6102 19.7412C25.4102 19.7412 25.4102 19.7412 25.2102 19.7412C25.2102 19.7412 25.2102 19.7412 25.1102 19.7412C25.0102 19.7412 24.9102 19.7412 24.8102 19.7412C24.7102 19.7412 24.6102 19.7412 24.5102 19.8412C24.3102 19.9412 24.1102 20.0412 24.0102 20.1412C23.8102 20.3412 23.7102 20.4412 23.5102 20.6412C23.4102 20.8412 23.3102 21.0412 23.2102 21.2412C23.1102 21.8412 23.1102 22.1412 23.3102 22.5412C23.4102 22.7412 23.5102 22.9412 23.6102 23.0412C23.8102 23.2412 23.9102 23.2412 24.0102 23.4412C24.3102 23.6412 24.6102 23.7412 24.9102 23.7412C25.1102 23.7412 25.1102 23.7412 25.3102 23.7412C25.5102 23.7412 25.9102 23.5412 26.1102 23.5412C26.3102 23.3412 26.5102 23.2412 26.6102 23.1412C27.1102 22.2412 27.3102 21.6412 26.9102 20.8412ZM24.5102 22.8412C24.4102 22.7412 24.3102 22.6412 24.2102 22.6412C24.1102 22.5412 24.0102 22.4412 24.0102 22.2412C23.9102 22.0412 23.8102 21.7412 24.0102 21.4412C24.0102 21.3412 24.1102 21.2412 24.2102 21.0412C24.2102 20.9412 24.4102 20.8412 24.4102 20.7412C24.6102 20.6412 24.6102 20.5412 24.8102 20.5412H25.0102C25.1102 20.5412 25.2102 20.5412 25.2102 20.5412C25.2102 20.5412 25.3102 20.5412 25.4102 20.5412C25.5102 20.5412 25.6102 20.5412 25.6102 20.5412C25.8102 20.5412 26.0102 20.7412 26.2102 20.8412C26.3102 20.9412 26.4102 21.1412 26.5102 21.2412C26.8102 21.8412 26.6102 22.2412 26.3102 22.7412C26.3102 22.8412 26.2102 22.9412 26.1102 22.9412C25.9102 22.9412 25.6102 23.1412 25.5102 23.1412C24.9102 23.0412 24.8102 23.0412 24.5102 22.8412Z" fill="#010202"/>
<path d="M33.4118 26.641C33.3118 26.441 33.1118 26.141 33.0118 26.041C32.7118 25.841 32.4118 25.641 32.1118 25.541C31.9118 25.541 31.9118 25.541 31.8118 25.541C31.8118 25.541 31.8118 25.541 31.7118 25.541C31.6118 25.541 31.5118 25.541 31.4118 25.541C31.3118 25.541 31.2118 25.541 31.1118 25.641C30.9118 25.741 30.7118 25.841 30.6118 25.941C30.4118 26.141 30.3118 26.241 30.1118 26.441C30.0118 26.641 29.9118 26.841 29.8118 27.041C29.7118 27.641 29.7118 27.941 29.9118 28.341C30.0118 28.541 30.1118 28.741 30.2118 28.841C30.4118 29.041 30.5118 29.041 30.6118 29.141C30.9118 29.341 31.2118 29.441 31.5118 29.441C31.7118 29.441 31.7118 29.441 31.9118 29.441C32.1118 29.441 32.5118 29.241 32.7118 29.241C32.9118 29.041 33.1118 28.941 33.2118 28.841C33.7118 28.041 33.8118 27.441 33.4118 26.641ZM30.7118 28.441C30.6118 28.341 30.5118 28.241 30.5118 28.041C30.4118 27.841 30.3118 27.541 30.5118 27.241C30.5118 27.141 30.6118 27.041 30.7118 26.941C30.7118 26.841 30.9118 26.741 31.0118 26.641C31.2118 26.541 31.2118 26.441 31.4118 26.441C31.4118 26.441 31.5118 26.441 31.6118 26.441H31.8118C31.8118 26.441 31.9118 26.441 32.0118 26.441C32.1118 26.441 32.2118 26.441 32.2118 26.441C32.4118 26.441 32.6118 26.641 32.8118 26.741C32.9118 26.841 33.0118 27.041 33.1118 27.141C33.4118 27.741 33.2118 28.141 32.9118 28.641C32.9118 28.741 32.8118 28.841 32.7118 28.841C32.6118 28.841 32.3118 29.041 32.2118 29.041C31.8118 29.041 31.7118 29.041 31.4118 28.841C30.9118 28.541 30.8118 28.441 30.7118 28.441Z" fill="#010202"/>
</svg>
