<svg width="68" height="55" viewBox="0 0 68 55" fill="none" xmlns="http://www.w3.org/2000/svg">
<path d="M62.3359 29.3411C62.0359 31.6411 61.6359 34.1411 61.2359 36.6411C60.8359 39.7411 59.0359 42.2411 57.1359 44.5411C54.8359 47.2411 52.1359 49.5411 48.8359 51.1411C44.0359 53.5411 38.9359 54.5411 33.7359 54.7411C26.6359 55.0411 20.2359 52.8411 14.6359 48.3411C10.5359 45.1411 8.43594 40.7411 6.33594 36.2411C5.93594 35.4411 5.83594 34.5411 5.83594 33.6411C6.13594 30.5411 6.03594 27.2411 7.03594 24.4411C8.33594 20.7411 9.43594 16.9411 11.6359 13.5411C14.0359 9.9411 16.7359 6.7411 20.3359 4.3411C23.4359 2.2411 26.8359 0.841102 30.5359 0.541102C31.1359 0.541102 31.7359 0.441102 32.2359 0.341102C41.1359 -1.1589 48.3359 2.4411 54.6359 8.1411C58.4359 11.5411 60.0359 16.1411 61.2359 20.8411C61.8359 23.7411 61.9359 26.4411 62.3359 29.3411ZM60.2359 29.1411C60.4359 22.2411 58.5359 15.8411 53.8359 10.5411C49.5359 5.7411 44.0359 2.6411 37.7359 2.1411C31.7359 1.6411 26.0359 3.4411 21.2359 7.3411C15.5359 11.8411 11.7359 17.8411 9.13594 24.4411C8.03594 27.4411 7.53594 31.0411 8.13594 34.1411C9.53594 42.1411 14.6359 47.7411 22.0359 50.7411C30.3359 54.1411 38.7359 53.5411 46.8359 49.7411C55.5359 45.7411 60.6359 39.2411 60.2359 29.1411Z" fill="#F15748"/>
<path d="M6.03516 29.9412C6.03516 27.5412 6.33516 25.2412 6.33516 22.8412C6.33516 21.0412 6.33516 19.1412 6.33516 17.3412C6.33516 15.9412 6.13516 14.1412 7.03516 13.0412C7.43516 12.5412 8.03516 12.1412 8.73516 11.9412C9.13516 11.8412 9.43516 11.8412 9.83516 11.8412C10.3352 11.8412 10.8352 11.8412 11.4352 11.8412C16.8352 11.8412 22.2352 11.9412 27.6352 11.7412C28.9352 11.7412 30.1352 11.7412 31.3352 12.0412C31.8352 12.1412 32.3352 12.5412 32.6352 12.9412C33.0352 13.3412 33.4352 13.7412 33.5352 14.3412C33.9352 19.4412 33.9352 24.5412 33.6352 29.6412C27.5352 29.4412 21.7352 29.4412 15.6352 29.6412C12.4352 29.6412 9.23516 29.8412 6.03516 29.9412Z" fill="white"/>
<path d="M10.3374 22.2408C10.6374 22.5408 10.9374 22.9408 11.2374 23.3408C11.5374 23.8408 11.8374 24.4408 12.1374 25.0408C12.2374 25.3408 12.3374 25.7408 12.5374 26.0408C12.9374 26.6408 13.4374 27.0408 13.9374 27.5408C14.5374 28.0408 15.0374 28.6408 15.5374 29.3408C13.4374 29.4408 11.3374 29.4408 9.13739 29.3408C9.03739 29.3408 8.83739 29.3408 8.73739 29.2408C8.53739 29.1408 8.53739 28.8408 8.53739 28.6408C8.53739 27.5408 8.53739 26.4408 8.53739 25.3408C8.53739 24.5408 8.43739 23.7408 7.83739 23.3408C7.43739 23.0408 6.83739 23.0408 6.43739 22.6408C6.13739 22.3408 6.03739 21.6408 6.33739 21.2408C6.53739 20.8408 6.93739 20.9408 7.33739 20.9408C8.43739 21.0408 9.53739 21.4408 10.3374 22.2408Z" fill="#BCBCBB"/>
<path d="M9.83719 15.0408C10.5372 14.4408 11.1372 13.7408 11.9372 13.2408C12.4372 12.9408 13.0372 12.7408 13.3372 12.2408C13.3372 12.1408 13.4372 12.1408 13.4372 12.0408C13.4372 11.8408 13.2372 11.8408 13.0372 11.8408C12.0372 11.8408 11.1372 11.8408 10.1372 11.8408C9.13719 11.8408 8.63719 12.2408 7.93719 12.8408C7.43719 13.3408 6.63719 13.7408 6.43719 14.4408C6.23719 15.1408 6.93719 15.7408 7.53719 15.8408C8.43719 15.9408 9.23719 15.5408 9.83719 15.0408Z" fill="#BCBCBB"/>
<path d="M33.4375 23.1406C33.3375 25.2406 31.8375 27.1406 29.9375 27.8406C29.5375 27.9406 29.1375 28.0406 28.7375 28.2406C28.3375 28.4406 28.0375 28.7406 27.9375 29.1406C27.9375 29.2406 27.9375 29.4406 28.0375 29.5406C28.0375 29.6406 28.1375 29.6406 28.2375 29.6406C28.4375 29.7406 28.7375 29.7406 29.0375 29.7406C30.4375 29.7406 31.7375 29.6406 33.0375 29.4406C33.3375 29.4406 33.6375 29.3406 33.8375 29.0406C33.9375 28.9406 33.9375 28.7406 33.9375 28.5406C33.9375 27.1406 33.9375 25.7406 33.9375 24.2406" fill="#BCBCBB"/>
<path d="M5.53516 30.4406V29.9406C5.53516 28.6406 5.63516 27.4406 5.63516 26.2406C5.73516 25.1406 5.73516 23.9406 5.73516 22.7406C5.73516 20.9406 5.73516 19.0406 5.73516 17.2406V16.7406C5.73516 15.4406 5.63516 13.7406 6.63516 12.6406C7.13516 11.9406 7.93516 11.5406 8.63516 11.3406C9.03516 11.2406 9.43516 11.2406 9.83516 11.2406H11.4352C17.1352 11.2406 22.3352 11.3406 27.5352 11.1406C29.1352 11.1406 30.3352 11.2406 31.4352 11.4406C32.0352 11.5406 32.5352 11.9406 33.0352 12.4406L33.2352 12.6406C33.6352 13.0406 34.0352 13.5406 34.0352 14.1406C34.4352 19.2406 34.4352 24.4406 34.1352 29.5406V30.0406H33.6352C28.3352 29.8406 22.9352 29.8406 15.6352 30.0406C14.0352 30.0406 12.4352 30.1406 10.8352 30.2406C9.23516 30.3406 7.63516 30.3406 6.03516 30.4406H5.53516ZM9.63516 12.0406C9.33516 12.0406 9.13516 12.3406 8.83516 12.3406C8.33516 12.4406 7.83516 12.7406 7.43516 13.2406C6.73516 14.1406 6.73516 15.5406 6.83516 16.7406V17.2406C6.83516 19.0406 6.83516 20.9406 6.83516 22.7406C6.83516 23.9406 6.73516 25.1406 6.73516 26.2406C6.63516 27.2406 6.63516 28.2406 6.63516 29.3406C8.03516 29.3406 9.43516 29.2406 10.8352 29.1406C12.4352 29.0406 14.0352 29.0406 15.6352 28.9406C20.0352 28.8406 23.6352 29.0406 27.0352 29.0406C29.1352 29.0406 31.2352 28.8406 33.2352 28.9406C33.5352 24.0406 33.7352 19.2406 33.3352 14.3406C33.3352 14.0406 33.2352 13.5406 32.9352 13.2406L32.5352 12.8406C32.3352 12.5406 31.7352 12.5406 31.2352 12.4406C30.2352 12.1406 29.1352 12.1406 27.6352 12.1406C22.3352 12.3406 17.4352 12.0406 11.6352 12.0406H9.83516C9.83516 12.0406 9.73516 12.0406 9.63516 12.0406Z" fill="#010202"/>
<path d="M16.5367 44.7413C16.5367 45.0413 16.5367 45.3413 16.3367 45.5413C16.1367 45.8413 15.6367 45.9413 15.2367 45.9413C13.1367 45.9413 11.1367 45.8413 9.03672 45.5413C8.93672 45.5413 8.83672 45.5413 8.83672 45.4413C8.73672 45.3413 8.63672 45.1413 8.63672 44.9413C8.63672 44.2413 8.63672 43.5413 8.63672 42.8413C8.63672 42.6413 8.63672 42.4413 8.73672 42.2413C8.93672 41.9413 9.33672 41.8413 9.73672 41.8413C11.4367 41.7413 13.1367 41.8413 14.9367 41.8413C15.5367 41.8413 16.2367 41.7413 16.4367 42.4413C16.6367 43.2413 16.5367 44.0413 16.5367 44.7413Z" fill="white"/>
<path d="M9.8375 41.4414C9.6375 41.4414 9.4375 41.4414 9.2375 41.2414C9.1375 41.1414 9.0375 40.9414 9.0375 40.7414C8.9375 39.6414 8.9375 38.5414 8.9375 37.5414C8.9375 37.1414 8.9375 36.5414 9.2375 36.2414C9.5375 35.9414 10.0375 35.9414 10.4375 35.9414C13.3375 35.9414 16.3375 36.1414 19.2375 36.2414C32.8375 36.7414 46.4375 34.8414 59.9375 36.0414C60.0375 37.6414 59.9375 39.1414 59.6375 40.6414C59.5375 41.0414 59.4375 41.4414 59.1375 41.6414C58.9375 41.7414 58.6375 41.7414 58.4375 41.7414C51.9375 41.7414 45.3375 41.7414 38.8375 41.5414C37.2375 41.5414 35.6375 41.3414 34.1375 41.4414C32.9375 41.5414 31.8375 41.7414 30.6375 41.7414C27.3375 41.7414 24.1375 41.7414 20.8375 41.7414C17.2375 41.6414 13.5375 41.5414 9.8375 41.4414Z" fill="white"/>
<path d="M8.53607 28.9415C8.73607 27.1415 8.83607 25.5415 8.43607 23.7415C8.33607 23.4415 8.23607 23.1415 8.03607 22.9415C7.33607 22.2415 5.73607 22.4415 4.93607 22.4415C4.13607 22.4415 3.33607 22.4415 2.53607 22.4415C2.03607 22.4415 1.33607 22.3415 1.03607 22.8415C0.336068 23.8415 0.736068 25.9415 0.836068 27.0415C0.936068 28.5415 0.636068 30.2415 0.536068 31.7415C0.436068 34.8415 0.536068 38.0415 0.936068 41.1415C0.936068 41.2415 0.936068 41.3415 1.03607 41.4415C1.13607 41.5415 1.23607 41.5415 1.33607 41.5415C2.43607 41.5415 3.43607 41.5415 4.53607 41.5415C5.83607 41.5415 6.83607 41.5415 8.13607 41.5415C8.23607 41.5415 8.43607 41.5415 8.53607 41.4415C8.73607 41.3415 8.73607 41.0415 8.83607 40.8415C9.03607 36.6415 8.13607 33.0415 8.53607 28.9415Z" fill="white"/>
<path d="M5.83516 35.2409C5.73516 35.6409 5.73516 36.0409 5.83516 36.3409C6.03516 37.0409 6.83516 37.4409 7.03516 38.2409C7.23516 38.7409 7.03516 39.3409 6.63516 39.7409C6.23516 40.1409 5.73516 40.4409 5.23516 40.5409C4.73516 40.6409 4.23516 40.8409 4.03516 41.2409C5.13516 41.2409 6.33516 41.3409 7.43516 41.3409C7.73516 41.3409 8.03516 41.3409 8.33516 41.2409C8.73516 41.0409 8.83516 40.5409 8.93516 40.0409C9.13516 39.0409 9.13516 38.0409 9.13516 37.0409C9.13516 36.8409 9.13516 36.6409 9.03516 36.4409C8.73516 36.1409 8.63516 36.0409 8.43516 35.8409C8.13516 35.4409 7.73516 35.1409 7.43516 34.7409C7.13516 34.3409 7.03516 33.9409 6.73516 33.5409C6.13516 32.6409 5.93516 34.7409 5.83516 35.2409Z" fill="#BCBCBB"/>
<path d="M9.8356 38.7413C10.0356 38.8413 10.2356 38.9413 10.4356 38.9413C12.3356 39.2413 14.2356 39.0413 16.1356 38.8413C20.9356 38.4413 25.8356 38.2413 30.6356 38.3413C33.1356 38.3413 35.7356 38.4413 38.2356 37.9413C39.3356 37.7413 40.5356 37.9413 41.6356 37.7413C43.1356 37.4413 45.1356 37.8413 46.6356 37.8413C49.2356 37.9413 51.3356 37.0413 53.9356 37.4413C55.8356 37.7413 57.7356 38.1413 59.5356 37.7413C59.7356 36.9413 59.9356 35.9413 59.1356 35.6413C58.9356 35.5413 58.7356 35.5413 58.5356 35.5413C51.6356 35.2413 44.6356 35.5413 37.7356 35.8413C30.8356 36.1413 23.8356 36.5413 16.9356 36.4413C15.0356 36.4413 13.0356 36.3413 11.1356 36.2413C10.4356 36.2413 9.8356 35.9413 9.5356 36.7413C9.5356 37.2413 9.3356 38.3413 9.8356 38.7413Z" fill="#BCBCBB"/>
<path d="M11.0374 43.6409C11.8374 43.6409 12.5374 43.5409 13.3374 43.6409C14.1374 43.7409 14.8374 44.2409 15.1374 44.9409C15.2374 45.0409 15.2374 45.2409 15.3374 45.3409C15.4374 45.4409 15.5374 45.4409 15.7374 45.4409C16.0374 45.4409 16.5374 45.4409 16.6374 45.1409C16.7374 45.0409 16.7374 44.8409 16.7374 44.7409C16.7374 44.0409 16.7374 43.3409 16.7374 42.6409C16.7374 42.5409 16.7374 42.4409 16.6374 42.3409C16.5374 42.2409 16.4374 42.2409 16.2374 42.2409C14.1374 42.0409 12.1374 42.0409 10.0374 42.1409C9.43735 42.1409 8.63735 42.4409 9.03735 43.2409C9.23735 43.8409 10.3374 43.6409 11.0374 43.6409Z" fill="#BCBCBB"/>
<path d="M14.6344 46.4409C12.7344 46.4409 10.9344 46.3409 9.03437 46.0409C8.93437 46.0409 8.73437 46.0409 8.63437 45.9409C8.23437 45.6409 8.23438 45.2409 8.23438 45.0409V42.9409C8.23438 42.7409 8.23437 42.3409 8.43437 42.0409C8.83437 41.4409 9.53437 41.4409 9.83437 41.4409C11.5344 41.3409 13.3344 41.4409 15.0344 41.4409C15.1344 41.4409 15.2344 41.4409 15.3344 41.4409C15.8344 41.4409 16.7344 41.4409 16.9344 42.4409C17.0344 42.9409 17.0344 43.5409 17.0344 44.1409C17.0344 44.3409 17.0344 44.6409 17.0344 44.8409C17.0344 45.1409 17.0344 45.5409 16.7344 45.9409C16.3344 46.5409 15.6344 46.5409 15.2344 46.5409C15.1344 46.4409 14.9344 46.4409 14.6344 46.4409ZM8.93437 45.3409C10.9344 45.6409 13.3344 45.9409 15.3344 45.8409C15.5344 45.8409 15.9344 45.3409 16.0344 45.2409C16.1344 45.1409 16.1344 44.9409 16.1344 44.7409C16.1344 44.5409 16.1344 44.2409 16.1344 44.0409C16.1344 43.5409 16.1344 43.0409 16.1344 42.6409C16.1344 42.5409 16.1344 42.4409 15.4344 42.4409C15.3344 42.4409 15.2344 42.4409 15.0344 42.4409C13.3344 42.3409 11.6344 42.3409 9.93437 42.4409C9.53437 42.4409 9.33437 42.5409 9.33437 42.5409C9.33437 42.6409 8.93437 42.3409 8.93437 42.4409V44.1409C8.83437 44.1409 8.83437 45.3409 8.93437 45.3409Z" fill="#010202"/>
<path d="M55.2375 42.3411C49.8375 42.3411 44.3375 42.2411 38.8375 42.1411C38.3375 42.1411 37.8375 42.1411 37.3375 42.0411C36.3375 41.9411 35.2375 41.9411 34.1375 41.9411C33.7375 41.9411 33.3375 42.0411 32.9375 42.0411C32.2375 42.1411 31.4375 42.1411 30.6375 42.2411C27.3375 42.2411 24.1375 42.2411 20.8375 42.2411C17.2375 42.2411 13.4375 42.1411 9.7375 42.0411C9.5375 42.0411 9.1375 42.0411 8.8375 41.7411C8.5375 41.4411 8.5375 41.1411 8.5375 40.9411C8.4375 39.8411 8.4375 38.7411 8.4375 37.6411C8.4375 37.2411 8.4375 36.5411 8.9375 36.0411C9.4375 35.5411 10.1375 35.5411 10.4375 35.5411C12.5375 35.5411 14.5375 35.6411 16.5375 35.7411C17.4375 35.7411 18.3375 35.8411 19.2375 35.8411C25.1375 36.0411 31.1375 35.8411 36.9375 35.6411C44.4375 35.3411 52.2375 35.0411 59.9375 35.7411H60.3375V36.1411C60.4375 37.7411 60.3375 39.3411 60.0375 40.8411C59.9375 41.1411 59.8375 41.8411 59.3375 42.1411C59.0375 42.3411 58.6375 42.3411 58.3375 42.3411C57.4375 42.3411 56.3375 42.3411 55.2375 42.3411ZM35.9375 41.1411C36.6375 41.1411 37.3375 41.1411 38.0375 41.2411C38.5375 41.2411 41.3375 41.4411 41.8375 41.4411C48.3375 41.6411 51.9375 41.3411 58.4375 41.3411C58.6375 41.3411 58.8375 41.3411 58.9375 41.2411C59.1375 41.1411 59.1375 40.8411 59.2375 40.5411C59.4375 39.2411 59.5375 37.8411 59.5375 36.4411C52.1375 35.8411 44.5375 36.1411 37.1375 36.4411C31.3375 36.6411 25.2375 36.9411 19.3375 36.6411C18.4375 36.6411 17.5375 36.5411 16.6375 36.5411C14.6375 36.4411 12.5375 36.3411 10.5375 36.3411C10.2375 36.3411 9.8375 36.3411 9.6375 36.5411C9.4375 36.7411 9.4375 37.1411 9.4375 37.5411C9.4375 38.6411 9.5375 39.7411 9.5375 40.7411C9.5375 40.8411 9.5375 40.9411 9.5375 40.9411H9.7375C13.4375 41.0411 17.1375 41.1411 20.8375 41.1411C24.0375 41.1411 26.4375 41.3411 29.7375 41.3411C30.5375 41.3411 32.1375 41.3411 32.9375 41.2411C33.3375 41.2411 33.8375 41.1411 34.2375 41.1411C34.5375 41.1411 35.5375 41.1411 35.9375 41.1411Z" fill="#010202"/>
<path d="M4.73607 41.9414C4.63607 41.9414 4.53607 41.9414 4.43607 41.9414H1.23607C1.13607 41.9414 0.836068 41.9414 0.636068 41.7414C0.436068 41.5414 0.436068 41.2414 0.436068 41.1414C0.0360681 38.1414 -0.063932 35.1414 0.036068 31.6414C0.036068 31.0414 0.136068 30.4414 0.136068 29.8414C0.236068 28.9414 0.336068 27.9414 0.236068 27.0414L0.136068 26.5414C0.0360681 25.2414 -0.163932 23.5414 0.536068 22.5414C0.936068 21.9414 1.73607 21.9414 2.23607 21.9414C2.33607 21.9414 2.43607 21.9414 2.53607 21.9414C3.33607 21.9414 4.13607 21.9414 5.03607 21.9414H5.43607C6.43607 21.9414 7.73607 21.9414 8.43607 22.6414C8.73607 22.9414 8.83607 23.3414 8.93607 23.7414C9.43607 25.5414 9.23607 27.1414 9.03607 28.9414V29.1414C8.83607 31.1414 9.03607 33.0414 9.13607 34.8414C9.23607 36.7414 9.43607 38.8414 9.23607 40.8414C9.23607 41.0414 9.13607 41.5414 8.73607 41.8414C8.53607 41.9414 8.23607 41.9414 8.03607 41.9414C7.43607 41.9414 6.83607 41.9414 6.23607 41.9414C5.73607 41.9414 5.23607 41.9414 4.73607 41.9414ZM1.13607 41.0414L4.33607 41.1414C4.93607 41.1414 5.73607 41.2414 6.33607 41.2414C6.93607 41.2414 7.33607 41.2414 7.93607 41.2414C7.93607 41.2414 8.03607 40.9414 8.13607 40.9414C8.13607 40.9414 8.13607 40.8414 8.13607 40.7414C8.33607 38.7414 8.23607 36.7414 8.03607 34.8414C7.93607 32.9414 7.73607 30.9414 7.93607 28.9414V28.7414C8.13607 27.0414 8.23607 25.5414 7.83607 23.9414C7.73607 23.7414 7.73607 23.4414 7.53607 23.3414C7.13607 22.9414 5.93607 22.9414 5.23607 22.9414C5.03607 22.9414 4.93607 22.9414 4.83607 22.9414C4.03607 22.9414 3.23607 22.9414 2.43607 22.9414C2.33607 22.9414 2.23607 22.9414 2.13607 22.9414C1.73607 22.9414 1.43607 22.9414 1.33607 23.1414C0.836068 23.8414 0.636068 24.3414 0.736068 25.4414L0.836068 27.8414C0.936068 28.8414 0.736068 29.9414 0.636068 30.9414C0.536068 31.5414 0.536068 32.5414 0.536068 33.0414C0.436068 36.3414 0.836068 38.1414 1.13607 41.0414Z" fill="#010202"/>
<path d="M8.33594 29.4407C8.13594 29.4407 8.03594 29.4407 7.83594 29.5407C7.63594 29.6407 7.53594 29.8407 7.33594 29.9407C6.93594 30.6407 6.83594 31.5407 6.83594 32.3407C6.83594 33.2407 6.93594 34.2407 7.13594 35.1407C7.13594 35.3407 7.23594 35.5407 7.33594 35.6407C7.53594 35.8407 7.83594 35.8407 8.13594 35.9407C16.1359 36.3407 24.2359 36.5407 32.2359 36.4407C32.7359 36.4407 33.2359 36.4407 33.5359 36.0407C33.7359 35.8407 33.7359 35.5407 33.7359 35.3407C33.9359 33.9407 34.0359 32.4407 34.0359 30.9407C34.0359 30.6407 34.0359 30.2407 33.8359 30.0407C33.6359 29.8407 33.3359 29.8407 33.0359 29.8407C26.6359 29.5407 20.2359 29.6407 13.9359 29.5407C12.0359 29.3407 10.1359 29.3407 8.33594 29.4407Z" fill="white"/>
<path d="M31.0375 29.9414C31.9375 30.0414 32.6375 30.9414 32.6375 31.8414C32.6375 32.7414 32.1375 33.5414 31.5375 34.2414C31.0375 34.7414 30.2375 35.6414 29.9375 36.3414C30.8375 36.4414 31.9375 36.1414 32.9375 36.1414C33.2375 36.1414 33.6375 36.0414 33.8375 35.8414C33.9375 35.7414 33.9375 35.6414 33.9375 35.5414C34.3375 33.8414 34.3375 32.0414 33.8375 30.4414C33.8375 30.3414 33.7375 30.1414 33.6375 30.0414C33.5375 29.9414 33.4375 29.9414 33.2375 29.9414C32.7375 29.9414 32.2375 29.9414 31.7375 29.9414" fill="#BCBCBB"/>
<path d="M27.6375 36.8414C21.1375 36.8414 14.6375 36.6414 8.1375 36.3414C7.8375 36.3414 7.3375 36.3414 7.0375 35.9414C6.8375 35.7414 6.7375 35.3414 6.7375 35.2414C6.5375 34.3414 6.4375 33.3414 6.4375 32.4414C6.4375 31.5414 6.4375 30.6414 7.0375 29.7414C7.2375 29.4414 7.4375 29.2414 7.7375 29.1414C7.9375 29.0414 8.2375 29.0414 8.4375 29.0414C9.8375 28.8414 10.9375 29.0414 12.4375 29.1414H13.9375C15.9375 29.1414 18.0375 28.9414 20.1375 28.9414C24.4375 28.9414 28.8375 28.9414 33.1375 29.2414C33.4375 29.2414 33.9375 29.2414 34.2375 29.6414C34.6375 30.0414 34.6375 30.5414 34.6375 30.8414C34.6375 32.3414 34.5375 33.8414 34.3375 35.2414C34.3375 35.4414 34.2375 35.8414 34.0375 36.1414C33.5375 36.7414 32.7375 36.7414 32.3375 36.7414C30.7375 36.8414 29.1375 36.8414 27.6375 36.8414ZM8.3375 29.9414C8.2375 29.9414 8.1375 29.9414 8.0375 29.9414C7.9375 29.9414 7.9375 30.0414 7.8375 30.1414C7.4375 30.7414 7.1375 30.8414 7.1375 31.5414C7.1375 32.4414 7.1375 33.5414 7.3375 34.4414C7.3375 34.5414 7.8375 35.4414 7.8375 35.5414C7.9375 35.6414 8.6375 35.7414 8.7375 35.7414C16.7375 36.1414 24.1375 36.2414 32.1375 36.1414C32.5375 36.1414 33.0375 35.7414 33.1375 35.6414C33.2375 35.5414 33.2375 35.3414 33.2375 35.1414C33.4375 33.7414 33.5375 32.2414 33.5375 30.8414C33.5375 30.7414 33.5375 30.4414 33.4375 30.3414C33.3375 30.2414 33.1375 30.2414 32.9375 30.2414C28.6375 30.0414 24.2375 29.9414 19.9375 29.9414C17.9375 29.9414 15.8375 29.9414 13.8375 29.8414H12.7375C11.3375 29.8414 9.8375 29.8414 8.3375 29.9414Z" fill="#010202"/>
<path d="M61.3373 29.9412C61.3373 27.5412 61.0373 25.2412 61.0373 22.8412C61.0373 21.0412 61.0373 19.1412 61.0373 17.3412C61.0373 15.9412 61.2373 14.1412 60.3373 13.0412C59.9373 12.5412 59.3373 12.1412 58.6373 11.9412C58.2373 11.8412 57.9373 11.8412 57.5373 11.8412C57.0373 11.8412 56.5373 11.8412 55.9373 11.8412C50.5373 11.8412 45.1373 11.9412 39.7373 11.7412C38.4373 11.7412 37.2373 11.7412 36.0373 12.0412C35.5373 12.1412 35.0373 12.5412 34.7373 12.9412C34.4373 13.3412 33.9373 13.7412 33.8373 14.3412C33.4373 19.4412 33.4373 24.5412 33.7373 29.6412C39.8373 29.4412 45.6373 29.4412 51.7373 29.6412C54.9373 29.6412 58.0373 29.8412 61.3373 29.9412Z" fill="white"/>
<path d="M57.8344 22.4408C57.5344 22.7408 57.2344 23.1408 56.9344 23.5408C56.6344 24.0408 56.2344 25.2408 56.0344 25.8408C55.9344 26.1408 55.8344 26.5408 55.6344 26.8408C55.2344 27.4408 53.8344 27.6408 53.3344 28.1408C52.7344 28.6408 52.2344 28.6408 51.7344 29.3408C53.8344 29.4408 55.9344 29.4408 58.1344 29.3408C58.2344 29.3408 58.4344 29.3408 58.5344 29.2408C58.7344 29.1408 58.7344 28.8408 58.7344 28.6408C58.7344 27.5408 58.7344 26.4408 58.7344 25.3408C58.7344 24.5408 58.8344 23.7408 59.4344 23.3408C59.9344 23.0408 60.5344 23.0408 60.9344 22.6408C61.2344 22.3408 61.3344 21.6408 61.0344 21.2408C60.8344 20.8408 60.4344 20.9408 60.0344 20.9408C58.8344 21.0408 58.6344 21.6408 57.8344 22.4408Z" fill="#BCBCBB"/>
<path d="M55.2367 13.4408C54.5367 13.1408 53.9367 12.8408 53.1367 12.5408C52.6367 12.3408 52.0367 12.2408 51.7367 12.0408L51.6367 11.9408C51.6367 11.8408 51.8367 11.8408 52.0367 11.8408C53.0367 11.8408 53.9367 11.8408 54.9367 11.8408C55.9367 11.8408 56.4367 12.0408 57.1367 12.3408C57.6367 12.5408 58.4367 12.7408 58.5367 13.1408C58.7367 13.5408 58.0367 13.7408 57.4367 13.8408C56.6367 13.9408 55.8367 13.7408 55.2367 13.4408Z" fill="#BCBCBB"/>
<path d="M33.9375 23.1406C34.0375 25.2406 35.5375 27.1406 37.4375 27.8406C37.8375 27.9406 38.2375 28.0406 38.6375 28.2406C39.0375 28.4406 39.3375 28.7406 39.4375 29.1406C39.4375 29.2406 39.4375 29.4406 39.3375 29.5406C39.3375 29.6406 39.2375 29.6406 39.1375 29.6406C38.9375 29.7406 38.6375 29.7406 38.3375 29.7406C36.9375 29.7406 35.6375 29.6406 34.3375 29.4406C34.0375 29.4406 33.7375 29.3406 33.5375 29.0406C33.4375 28.9406 33.4375 28.7406 33.4375 28.5406C33.4375 27.1406 33.4375 25.7406 33.4375 24.2406" fill="#BCBCBB"/>
<path d="M61.8373 30.441H61.3373C59.7373 30.441 58.1373 30.341 56.5373 30.241C54.9373 30.141 53.3373 30.141 51.7373 30.041C44.4373 29.841 39.0373 29.841 33.7373 30.041H33.2373V29.541C32.9373 24.441 32.9373 19.241 33.3373 14.141C33.3373 13.541 33.8373 13.041 34.1373 12.641L34.3373 12.441C34.8373 11.941 35.3373 11.541 35.9373 11.441C37.0373 11.141 38.2373 11.041 39.8373 11.141C45.1373 11.241 50.2373 11.241 55.9373 11.241H57.5373C57.9373 11.241 58.3373 11.241 58.7373 11.341C59.5373 11.541 60.2373 11.941 60.7373 12.641C61.6373 13.841 61.6373 15.441 61.6373 16.741V17.241C61.6373 19.041 61.6373 20.941 61.6373 22.741C61.6373 23.941 61.7373 25.041 61.7373 26.241C61.8373 27.441 61.8373 28.641 61.8373 29.941V30.441ZM42.0373 28.941C44.9373 28.941 48.1373 28.941 51.7373 29.041C53.3373 29.041 54.9373 29.141 56.5373 29.241C57.9373 29.341 59.3373 29.341 60.7373 29.441C60.7373 28.441 60.6373 27.341 60.6373 26.341C60.5373 25.241 60.5373 24.041 60.5373 22.841C60.5373 21.041 60.5373 19.141 60.5373 17.341V16.841C60.5373 15.641 60.6373 14.241 59.9373 13.341C59.5373 12.841 59.0373 12.541 58.5373 12.441C58.2373 12.341 57.8373 12.341 57.5373 12.341H55.9373C50.2373 12.341 45.0373 12.441 39.7373 12.241C38.2373 12.241 37.1373 12.341 36.1373 12.541C35.6373 12.641 35.3373 12.941 35.0373 13.241L34.8373 13.441C34.5373 13.741 33.8373 14.741 33.7373 14.941C33.3373 19.841 33.8373 24.141 34.1373 29.041C36.6373 28.941 39.2373 28.941 42.0373 28.941Z" fill="#010202"/>
<path d="M50.7359 44.7413C50.7359 45.0413 50.7359 45.3413 50.9359 45.5413C51.1359 45.8413 51.6359 45.9413 52.0359 45.9413C54.1359 45.9413 56.1359 45.8413 58.2359 45.5413C58.3359 45.5413 58.4359 45.5413 58.4359 45.4413C58.5359 45.3413 58.6359 45.1413 58.6359 44.9413C58.6359 44.2413 58.6359 43.5413 58.6359 42.8413C58.6359 42.6413 58.6359 42.4413 58.5359 42.2413C58.3359 41.9413 57.9359 41.8413 57.5359 41.8413C55.8359 41.7413 54.1359 41.8413 52.3359 41.8413C51.7359 41.8413 51.0359 41.7413 50.8359 42.4413C50.6359 43.2413 50.7359 44.0413 50.7359 44.7413Z" fill="white"/>
<path d="M58.8375 28.9415C58.6375 27.1415 58.5375 25.5415 58.9375 23.7415C59.0375 23.4415 59.1375 23.1415 59.3375 22.9415C60.0375 22.2415 61.6375 22.4415 62.4375 22.4415C63.2375 22.4415 64.0375 22.4415 64.8375 22.4415C65.3375 22.4415 66.0375 22.3415 66.3375 22.8415C67.0375 23.8415 66.6375 25.9415 66.5375 27.0415C66.4375 28.5415 66.7375 30.2415 66.8375 31.7415C66.9375 34.8415 66.8375 38.0415 66.4375 41.1415C66.4375 41.2415 66.4375 41.3415 66.3375 41.4415C66.2375 41.5415 66.1375 41.5415 66.0375 41.5415C64.9375 41.5415 63.9375 41.5415 62.8375 41.5415C61.5375 41.5415 60.5375 41.5415 59.2375 41.5415C59.1375 41.5415 58.9375 41.5415 58.8375 41.4415C58.6375 41.3415 58.6375 41.0415 58.5375 40.8415C58.2375 36.6415 59.2375 33.0415 58.8375 28.9415Z" fill="white"/>
<path d="M61.5344 35.2406C61.6344 35.6406 61.6344 36.0406 61.5344 36.3406C61.3344 37.0406 60.5344 37.4406 60.3344 38.2406C60.1344 38.7406 60.3344 39.3406 60.7344 39.7406C61.1344 40.1406 61.6344 40.4406 62.1344 40.5406C62.6344 40.6406 63.1344 40.8406 63.3344 41.2406C62.2344 41.2406 61.0344 41.3406 59.9344 41.3406C59.6344 41.3406 59.3344 41.3406 59.0344 41.2406C58.6344 41.0406 58.5344 40.5406 58.4344 40.0406C58.2344 39.0406 58.2344 38.0406 58.2344 37.0406C58.2344 36.8406 58.2344 36.6406 58.3344 36.4406C58.4344 36.2406 58.5344 36.1406 58.7344 35.9406C59.0344 35.5406 59.4344 35.2406 59.7344 34.8406C60.0344 34.4406 60.1344 34.0406 60.4344 33.6406C61.2344 32.6406 61.4344 34.7406 61.5344 35.2406Z" fill="#BCBCBB"/>
<path d="M56.3367 43.6409C55.5367 43.6409 54.8367 43.5409 54.0367 43.6409C53.3367 43.8409 52.5367 44.2409 52.2367 44.9409C52.1367 45.0409 52.1367 45.2409 52.0367 45.3409C51.9367 45.4409 51.8367 45.4409 51.6367 45.4409C51.3367 45.4409 50.8367 45.4409 50.7367 45.1409C50.6367 45.0409 50.6367 44.8409 50.6367 44.7409C50.6367 44.0409 50.6367 43.3409 50.6367 42.6409C50.6367 42.5409 50.6367 42.4409 50.7367 42.3409C50.8367 42.2409 50.9367 42.2409 51.1367 42.2409C53.2367 42.0409 55.2367 42.0409 57.3367 42.1409C57.9367 42.1409 58.7367 42.4409 58.3367 43.2409C58.1367 43.8409 56.9367 43.6409 56.3367 43.6409Z" fill="#BCBCBB"/>
<path d="M52.6359 46.4406C52.4359 46.4406 52.2359 46.4406 52.0359 46.4406C51.7359 46.4406 50.9359 46.4406 50.5359 45.8406C50.2359 45.4406 50.2359 45.0406 50.2359 44.7406C50.2359 44.5406 50.2359 44.3406 50.2359 44.0406C50.2359 43.4406 50.1359 42.9406 50.3359 42.3406C50.5359 41.3406 51.4359 41.3406 51.9359 41.3406C52.0359 41.3406 52.1359 41.3406 52.2359 41.3406C53.9359 41.2406 55.7359 41.2406 57.4359 41.3406C57.7359 41.3406 58.5359 41.3406 58.8359 41.9406C59.0359 42.2406 59.0359 42.5406 59.0359 42.8406V44.9406C59.0359 45.1406 59.0359 45.5406 58.6359 45.8406C58.5359 46.0406 58.3359 46.0406 58.2359 46.0406C56.3359 46.3406 54.5359 46.4406 52.6359 46.4406ZM51.8359 42.4406C51.3359 42.4406 51.2359 42.5406 51.2359 42.6406C51.1359 43.0406 50.9359 43.1406 50.9359 43.6406C50.9359 43.9406 50.8359 44.4406 50.8359 44.7406L50.9359 45.1406C50.9359 45.3406 51.0359 45.4406 51.1359 45.5406C51.2359 45.7406 51.7359 45.7406 51.8359 45.7406C53.8359 45.7406 56.0359 45.6406 58.0359 45.3406C58.0359 45.3406 58.1359 44.3406 58.1359 44.2406L57.9359 42.7406C57.9359 42.6406 57.9359 42.4406 57.9359 42.4406C57.9359 42.3406 57.7359 42.3406 57.3359 42.3406C55.6359 42.2406 53.9359 42.3406 52.2359 42.3406C52.1359 42.4406 52.0359 42.4406 51.8359 42.4406C51.9359 42.4406 51.9359 42.4406 51.8359 42.4406Z" fill="#010202"/>
<path d="M62.6364 41.9414C62.1364 41.9414 61.6364 41.9414 61.1364 41.9414C60.5364 41.9414 59.9364 41.9414 59.3364 41.9414C59.2364 41.9414 58.9364 41.9414 58.6364 41.8414C58.2364 41.5414 58.1364 41.0414 58.1364 40.8414C57.9364 38.7414 58.0364 36.7414 58.2364 34.8414C58.3364 32.9414 58.5364 31.0414 58.3364 29.1414V28.9414C58.1364 27.2414 58.0364 25.5414 58.4364 23.7414C58.5364 23.4414 58.6364 23.0414 58.9364 22.6414C59.6364 21.9414 61.0364 21.9414 61.9364 21.9414H62.3364C63.1364 21.9414 63.9364 21.9414 64.8364 21.9414C64.9364 21.9414 65.0364 21.9414 65.1364 21.9414C65.6364 21.9414 66.3364 21.9414 66.8364 22.5414C67.5364 23.5414 67.3364 25.2414 67.2364 26.5414L67.1364 27.0414C67.0364 27.9414 67.1364 28.9414 67.2364 29.8414C67.3364 30.4414 67.3364 31.0414 67.3364 31.6414C67.4364 35.0414 67.3364 38.1414 66.9364 41.1414C66.9364 41.2414 66.8364 41.5414 66.6364 41.7414C66.4364 41.9414 66.1364 41.9414 66.0364 41.9414H62.8364C62.8364 41.9414 62.7364 41.9414 62.6364 41.9414ZM59.6364 41.2414C60.1364 41.2414 60.3364 41.3414 60.8364 41.3414C61.4364 41.3414 61.9364 41.3414 62.6364 41.3414L66.2364 41.4414C66.6364 38.5414 66.8364 36.7414 66.7364 33.4414C66.7364 32.8414 66.8364 31.9414 66.7364 31.3414C66.6364 30.3414 66.4364 30.1414 66.5364 29.2414C66.5364 29.0414 66.6364 26.8414 66.6364 26.6414C66.7364 25.6414 66.5364 23.9414 66.0364 23.2414C65.9364 23.0414 65.6364 23.0414 65.2364 23.0414C65.1364 23.0414 65.0364 23.0414 64.9364 23.0414C64.1364 23.0414 63.3364 23.0414 62.5364 23.0414C62.4364 23.0414 62.2364 23.0414 62.1364 23.0414C61.4364 23.0414 60.2364 23.0414 59.8364 23.4414C59.7364 23.5414 59.6364 23.8414 59.5364 24.0414C59.1364 25.6414 59.2364 27.1414 59.4364 28.8414V29.0414C59.6364 31.0414 59.5364 33.0414 59.3364 34.9414C59.2364 36.8414 59.0364 38.8414 59.2364 40.8414C59.2364 41.0414 59.2364 41.3414 59.2364 41.3414H59.4364C59.5364 41.2414 59.5364 41.2414 59.6364 41.2414Z" fill="#010202"/>
<path d="M59.0359 29.4407C59.2359 29.4407 59.3359 29.4407 59.5359 29.5407C59.7359 29.6407 59.8359 29.8407 60.0359 29.9407C60.4359 30.6407 60.5359 31.5407 60.5359 32.3407C60.5359 33.2407 60.4359 34.2407 60.2359 35.1407C60.2359 35.3407 60.1359 35.5407 60.0359 35.6407C59.8359 35.8407 59.5359 35.8407 59.2359 35.9407C51.2359 36.3407 43.1359 36.5407 35.1359 36.4407C34.6359 36.4407 34.1359 36.4407 33.8359 36.0407C33.6359 35.8407 33.6359 35.5407 33.6359 35.3407C33.4359 33.9407 33.3359 32.4407 33.3359 30.9407C33.3359 30.6407 33.3359 30.2407 33.5359 30.0407C33.7359 29.8407 34.0359 29.8407 34.3359 29.8407C40.7359 29.5407 47.1359 29.6407 53.4359 29.5407C55.3359 29.3407 57.1359 29.3407 59.0359 29.4407Z" fill="white"/>
<path d="M57.0344 35.741C57.9344 35.641 58.6344 34.741 58.6344 33.841C58.6344 32.941 58.1344 32.141 57.5344 31.441C57.0344 30.941 56.4344 30.441 56.2344 29.741C57.1344 29.641 58.0344 29.541 59.0344 29.541C59.3344 29.541 59.7344 29.641 59.9344 29.841C60.0344 29.941 60.0344 30.041 60.0344 30.141C60.4344 31.841 60.4344 33.641 59.9344 35.241C59.9344 35.341 59.8344 35.541 59.7344 35.641C59.6344 35.741 59.5344 35.741 59.3344 35.741C58.8344 35.741 58.3344 35.741 57.8344 35.741" fill="#BCBCBB"/>
<path d="M39.7348 36.8413C38.1348 36.8413 36.6348 36.8413 35.0348 36.8413C34.6348 36.8413 33.8348 36.8413 33.3348 36.2413C33.1348 35.9413 33.4348 35.6413 33.4348 35.3413C33.2348 33.8413 33.1348 32.3413 33.1348 30.8413C33.1348 30.5413 32.7348 30.0413 33.1348 29.6413C33.5348 29.3413 33.9348 29.2413 34.2348 29.2413C38.6348 29.0413 43.0348 28.9413 47.2348 28.9413C49.2348 28.9413 51.3348 28.9413 53.3348 28.8413H54.4348C55.9348 28.8413 57.4348 28.7413 59.0348 28.8413C59.2348 28.8413 59.4348 28.8413 59.7348 28.9413C60.0348 29.0413 60.2348 29.2413 60.4348 29.5413C60.9348 30.3413 61.0348 31.3413 61.0348 32.2413C61.0348 33.2413 60.9348 34.1413 60.7348 35.0413C60.7348 35.2413 60.6348 35.5413 60.4348 35.7413C60.1348 36.1413 59.5348 36.1413 59.3348 36.1413C52.7348 36.7413 46.2348 36.8413 39.7348 36.8413ZM57.2348 29.8413C56.3348 29.8413 55.4348 29.8413 54.5348 29.8413H53.4348C51.3348 29.8413 49.3348 29.8413 47.3348 29.9413C43.0348 29.9413 38.6348 29.9413 34.3348 30.2413C34.2348 30.2413 33.9348 30.2413 33.8348 30.3413C33.7348 30.4413 33.7348 30.7413 33.7348 30.8413C33.7348 32.2413 33.8348 33.7413 34.0348 35.1413C34.0348 35.3413 34.1348 35.5413 34.1348 35.6413C34.2348 35.8413 34.6348 35.8413 35.0348 35.8413C43.0348 35.9413 51.1348 35.7413 59.1348 35.3413C59.2348 35.3413 59.5348 35.3413 59.5348 35.2413C59.5348 35.2413 59.6348 35.0413 59.6348 34.9413C59.8348 34.0413 59.9348 33.1413 59.9348 32.2413C59.9348 31.5413 59.9348 30.7413 59.5348 30.1413C59.4348 29.9413 59.3348 29.9413 59.3348 29.9413C59.2348 29.9413 59.1348 29.9413 59.0348 29.9413C58.4348 29.8413 57.8348 29.8413 57.2348 29.8413Z" fill="#010202"/>
<path d="M36.8374 13.9406C36.9374 13.9406 36.9374 13.9406 36.8374 13.9406C37.0374 14.0406 37.2374 13.9406 37.1374 13.8406C37.1374 13.7406 36.9374 13.6406 36.8374 13.6406C36.3374 13.3406 35.8374 13.0406 35.4374 12.7406C35.4374 12.7406 35.4374 12.7406 35.4374 12.6406C35.4374 12.6406 35.4374 12.6406 35.5374 12.5406C35.6374 12.4406 35.8374 12.4406 36.0374 12.4406C36.2374 12.4406 36.3374 12.6406 36.4374 12.7406C36.7374 13.0406 37.2374 13.3406 37.7374 13.5406C37.7374 13.4406 37.8374 13.4406 37.8374 13.3406C37.8374 13.3406 37.8374 13.2406 37.7374 13.2406C37.4374 13.0406 37.0374 12.8406 36.8374 12.5406C36.7374 12.3406 36.6374 12.2406 36.3374 12.1406C36.2374 12.1406 36.1374 12.1406 36.0374 12.1406C35.6374 12.2406 34.0374 12.3406 34.7374 12.7406C35.0374 12.9406 35.3374 13.0406 35.6374 13.1406C36.1374 13.4406 36.5374 13.7406 36.8374 13.9406Z" fill="#010202"/>
<path d="M26.7371 18.9414C26.8371 19.0414 26.8371 19.0414 26.9371 19.1414C26.4371 19.8414 25.8371 20.4414 25.1371 20.9414C24.9371 20.6414 25.6371 20.1414 25.8371 19.9414C25.8371 19.8414 26.7371 18.9414 26.7371 18.9414Z" fill="#010202"/>
<path d="M27.8348 18.9414C27.9348 19.0414 27.9348 19.0414 28.0348 19.1414C27.5348 19.8414 26.9348 20.4414 26.2348 20.9414C26.0348 20.6414 26.7348 20.1414 26.9348 19.9414C26.9348 19.8414 27.8348 18.9414 27.8348 18.9414Z" fill="#010202"/>
<path d="M20.4363 29.541C20.5363 29.641 20.5363 29.641 20.6363 29.741C20.1363 30.441 19.5363 31.041 18.8363 31.541C18.6363 31.241 19.3363 30.741 19.5363 30.541C19.5363 30.441 20.4363 29.541 20.4363 29.541Z" fill="#010202"/>
<path d="M21.4363 29.541C21.5363 29.641 21.5363 29.641 21.6363 29.741C21.1363 30.441 20.5363 31.041 19.8363 31.541C19.6363 31.241 20.3363 30.741 20.5363 30.541C20.5363 30.441 21.4363 29.541 21.4363 29.541Z" fill="#010202"/>
<path d="M45.6367 29.741C45.7367 29.641 45.7367 29.641 45.8367 29.541C46.5367 30.041 47.1367 30.641 47.5367 31.441C47.2367 31.641 46.7367 30.941 46.5367 30.741C46.4367 30.641 45.6367 29.741 45.6367 29.741Z" fill="#010202"/>
<path d="M46.4375 29.6414C46.5375 29.5414 46.5375 29.5414 46.6375 29.4414C47.3375 29.9414 47.9375 30.5414 48.3375 31.3414C48.0375 31.5414 47.5375 30.8414 47.3375 30.6414C47.3375 30.5414 46.4375 29.6414 46.4375 29.6414Z" fill="#010202"/>
<path d="M63.4363 24.041C63.5363 24.141 63.5363 24.141 63.6363 24.241C63.1363 24.941 62.5363 25.541 61.8363 26.041C61.6363 25.741 62.3363 25.241 62.5363 25.041C62.5363 24.941 63.4363 24.041 63.4363 24.041Z" fill="#010202"/>
<path d="M64.4363 24.041C64.5363 24.141 64.5363 24.141 64.6363 24.241C64.1363 24.941 63.5363 25.541 62.8363 26.041C62.6363 25.741 63.3363 25.241 63.5363 25.041C63.5363 24.941 64.4363 24.041 64.4363 24.041Z" fill="#010202"/>
<path d="M2.73438 25.241C2.83438 25.141 2.83437 25.141 2.93437 25.041C3.73438 25.341 4.43438 25.941 4.93438 26.641C4.63438 26.841 4.03438 26.241 3.83438 26.141C3.73438 26.041 2.73438 25.241 2.73438 25.241Z" fill="#010202"/>
<path d="M2.63672 24.241C2.73672 24.141 2.73672 24.141 2.83672 24.041C3.63672 24.341 4.33672 24.941 4.83672 25.641C4.53672 25.841 3.93672 25.241 3.73672 25.141C3.63672 25.041 2.63672 24.241 2.63672 24.241Z" fill="#010202"/>
<path d="M14.1367 19.8406C14.2367 19.7406 14.2367 19.7406 14.3367 19.6406C15.1367 19.9406 15.8367 20.4406 16.4367 21.1406C16.1367 21.3406 15.5367 20.8406 15.3367 20.6406C15.1367 20.6406 14.1367 19.8406 14.1367 19.8406Z" fill="#010202"/>
<path d="M13.9375 18.8406C14.0375 18.7406 14.0375 18.7406 14.1375 18.6406C14.9375 18.9406 15.6375 19.4406 16.2375 20.1406C15.9375 20.3406 15.3375 19.8406 15.1375 19.6406C15.0375 19.6406 13.9375 18.8406 13.9375 18.8406Z" fill="#010202"/>
<path d="M53.9363 18.7411C54.0363 18.8411 54.0363 18.8411 54.1363 18.9411C53.6363 19.6411 53.0363 20.2411 52.3363 20.7411C52.1363 20.4411 52.8363 19.9411 53.0363 19.7411C53.0363 19.5411 53.9363 18.6411 53.9363 18.7411Z" fill="#010202"/>
<path d="M54.9363 18.7411C55.0363 18.8411 55.0363 18.8411 55.1363 18.9411C54.6363 19.6411 54.0363 20.2411 53.3363 20.7411C53.1363 20.4411 53.8363 19.9411 54.0363 19.7411C54.0363 19.5411 54.9363 18.6411 54.9363 18.7411Z" fill="#010202"/>
<path d="M41.3359 19.6414C41.4359 19.5414 41.4359 19.5414 41.5359 19.4414C42.3359 19.7414 43.0359 20.2414 43.6359 20.9414C43.3359 21.1414 42.7359 20.6414 42.5359 20.4414C42.3359 20.3414 41.3359 19.6414 41.3359 19.6414Z" fill="#010202"/>
<path d="M41.1367 18.5408C41.2367 18.4408 41.2367 18.4408 41.3367 18.3408C42.1367 18.6408 42.8367 19.1408 43.4367 19.8408C43.1367 20.0408 42.5367 19.5408 42.3367 19.3408C42.1367 19.3408 41.1367 18.6408 41.1367 18.5408Z" fill="#010202"/>
</svg>
