<svg width="57" height="56" viewBox="0 0 57 56" fill="none" xmlns="http://www.w3.org/2000/svg">
<path d="M56.5 29.3411C56.2 31.6411 55.8 34.1411 55.4 36.6411C55 39.7411 53.2 42.2411 51.3 44.5411C49 47.2411 46.3 49.5411 43 51.1411C38.2 53.5411 33.1 54.5411 27.9 54.7411C20.8 55.0411 14.4 52.8411 8.8 48.3411C4.7 45.1411 2.6 40.7411 0.5 36.2411C0.1 35.4411 0 34.5411 0 33.6411C0.3 30.5411 0.199999 27.2411 1.2 24.4411C2.5 20.7411 3.6 16.9411 5.8 13.5411C8.2 9.9411 10.9 6.7411 14.5 4.3411C17.6 2.2411 21 0.841101 24.7 0.541101C25.3 0.541101 25.9 0.441102 26.4 0.341102C35.3 -1.1589 42.5 2.4411 48.8 8.1411C52.6 11.5411 54.2 16.1411 55.4 20.8411C56.1 23.7411 56.1 26.4411 56.5 29.3411ZM54.5 29.1411C54.7 22.2411 52.8 15.8411 48.1 10.5411C43.8 5.7411 38.3 2.6411 32 2.1411C26 1.6411 20.3 3.4411 15.5 7.3411C9.8 11.8411 6 17.8411 3.4 24.4411C2.3 27.4411 1.8 31.0411 2.4 34.1411C3.8 42.1411 8.9 47.7411 16.3 50.7411C24.6 54.1411 33 53.5411 41.1 49.7411C49.7 45.7411 54.9 39.2411 54.5 29.1411Z" fill="#F15748"/>
<path d="M7.39453 10.8331C7.39453 14.7819 7.39453 18.832 7.39453 22.7809C7.39453 24.8059 7.49147 26.7297 7.49147 28.7547C7.49147 30.5773 7.39453 32.3998 7.87924 34.1211C8.07312 34.9311 8.46089 35.8424 8.75172 36.6524C10.3997 40.6012 12.2416 44.7525 15.5376 47.3851C16.4101 48.0939 17.3795 48.7014 18.3489 49.3089C21.645 51.3339 24.941 53.359 28.6248 54.4727C33.3749 53.1565 37.6403 50.7264 41.4211 47.3851C42.4874 46.4738 43.4568 45.5626 44.3293 44.4488C45.5895 42.8288 46.559 40.8037 47.5284 38.9812C48.11 37.8674 48.7886 36.7536 49.0794 35.6399C49.4672 34.4248 49.5641 33.1086 49.758 31.7923C50.5336 25.0084 50.6305 18.1233 49.855 11.3394C49.855 11.1369 49.5641 11.1369 49.4672 10.8331C45.7834 10.2256 42.0996 9.31434 38.6097 7.99806C37.9312 7.69431 37.1556 7.4918 36.477 7.08679C35.2168 6.47928 34.0535 5.56802 32.9871 4.65675C31.533 3.54297 30.0789 2.4292 28.6248 1.31543C28.0431 1.92294 27.4615 2.4292 26.9767 3.03671C26.589 3.44172 26.2012 3.94798 25.8134 4.25174C25.3287 4.65675 24.844 4.9605 24.3593 5.26426C20.3847 7.59305 16.2162 9.51684 11.7569 10.0231C10.1089 10.1244 8.84866 10.4281 7.39453 10.8331Z" fill="white"/>
<path d="M16.1223 9.31316C15.7346 9.81942 15.056 10.1232 14.4743 10.4269C13.6988 10.7307 12.9233 11.0344 12.1477 11.3382C11.5661 11.5407 10.9844 11.642 10.4997 12.047C10.2089 12.2495 10.015 12.5532 9.72419 12.857C9.43337 13.262 9.0456 13.7683 8.85172 14.2745C8.75478 14.6795 8.65783 15.0845 8.65783 15.4895C8.46395 17.2108 8.36701 18.8309 8.17313 20.5521C7.97924 22.4759 7.8823 24.3997 7.68842 26.3235C7.20371 21.3622 7.10677 16.4008 7.30065 11.4395C7.30065 11.237 7.30065 10.9332 7.49453 10.8319C7.59148 10.7307 7.68842 10.7307 7.78536 10.7307C10.4028 9.81943 13.408 10.3257 16.0254 9.21191C15.9285 9.41442 15.8315 9.61692 15.7346 9.81942" fill="#BCBCBB"/>
<path d="M20.8682 44.5494C22.904 45.3594 25.0367 45.7644 27.2664 45.5619C29.496 45.3594 31.5318 44.6506 33.2768 43.3344C34.0523 42.7269 34.8278 41.9168 35.5064 41.2081C38.7055 37.6643 41.7107 33.8167 44.3281 29.7666C44.3281 33.8167 42.874 37.8668 40.2566 40.9043C39.2871 42.0181 38.2208 43.0306 37.1544 43.9419C36.5728 44.5494 35.8942 45.0557 35.2156 45.4607C34.537 45.8657 33.8584 46.0682 33.1798 46.2707C32.0165 46.6757 30.9502 47.1819 29.9807 47.7895C29.3022 48.1945 28.6236 48.7007 27.848 48.5995C27.4603 48.5995 26.9756 48.397 26.6847 48.1945C25.8123 47.7895 25.0367 47.2832 24.1643 46.8782C22.8071 46.1694 21.4499 45.4607 20.4805 44.2456" fill="#BCBCBB"/>
<path d="M33.8609 13.9719C34.9273 14.3769 36.0906 14.4782 37.2539 14.6807C39.5805 15.0857 41.9071 15.5919 44.1367 16.3007C43.3612 15.6932 42.4887 15.3894 41.6162 15.0857C39.3866 14.1744 37.2539 13.3644 35.0242 12.5544C34.4426 12.3519 33.8609 12.1494 33.3762 11.8456C31.5343 10.9344 30.0802 9.51682 28.6261 8.0993C28.5291 7.99804 27.1719 9.31432 27.075 9.51682C26.6872 10.2256 27.3658 10.4281 27.9475 10.6306C29.3047 11.2381 30.468 12.1494 31.7282 12.8581C32.4068 13.2631 33.1823 13.6682 33.8609 13.9719Z" fill="#BCBCBB"/>
<path d="M28.238 49.51L27.9472 49.4088C23.8757 48.295 20.0949 45.9662 17.3806 42.9287C16.5081 41.9161 15.6356 40.7011 14.957 39.4861C14.1815 38.1698 13.5999 36.9548 13.309 35.6385C12.9213 34.4235 12.8243 33.2085 12.6304 31.9934C11.8549 26.7283 11.1763 21.2607 11.9518 15.7931L12.0488 15.2869L12.4366 15.1856C16.5081 13.8693 19.6102 12.6543 22.6154 11.2368C23.5848 10.7305 24.6512 10.2243 25.6206 9.41425C26.59 8.60423 27.3656 7.99672 28.0442 7.1867L29.1105 5.97168L29.3044 7.59171C29.3044 7.59171 29.4013 7.69296 29.5952 7.89547C31.9218 10.2243 34.2484 11.743 36.672 12.4518C37.1567 12.6543 37.7383 12.7556 38.223 12.8568L38.8047 12.9581C40.1619 13.3631 41.519 13.8693 42.7793 14.3756C43.4579 14.6794 44.1365 14.8819 44.8151 15.1856L45.2998 15.3881V15.8944C45.2998 17.3119 45.3967 18.6282 45.4937 20.0457C45.5906 22.3745 45.6875 24.8046 45.5906 27.2346C45.3967 31.7909 44.5242 35.436 42.7793 38.3723C42.1007 39.5873 41.2282 40.5999 40.5496 41.5111C39.871 42.4224 39.0955 43.4349 38.1261 44.2449C37.3506 44.8524 36.575 45.3587 35.7995 45.7637C33.0851 47.2825 30.6616 48.4975 28.4319 49.3075L28.238 49.51ZM13.309 16.6031C12.6304 21.6657 13.309 26.8296 13.9876 31.7909C14.1815 32.9047 14.2784 34.1197 14.6662 35.2335C14.957 36.3473 15.4417 37.4611 16.2173 38.6761C16.8959 39.7898 17.6714 40.9036 18.5439 41.9161C20.9674 44.7512 24.4573 47.2825 28.238 48.3963C30.3708 47.5863 32.9882 46.3712 35.6056 44.9537C36.2842 44.5487 37.1567 43.8399 37.8353 43.3337C38.7077 42.6249 39.2894 41.6124 39.968 40.8024C40.8405 39.6886 41.2282 38.6761 41.8099 37.6636C43.3609 34.9298 44.0395 31.4872 44.2334 27.2346C44.3304 24.9058 44.2334 22.4758 44.1365 20.147C44.0395 18.9319 44.0395 17.7169 44.0395 16.5019C43.4579 16.2994 42.9732 16.0969 42.3915 15.8944C41.1313 15.3881 39.871 14.8819 38.6108 14.5781L38.0291 14.4768C37.4475 14.3756 36.8658 14.1731 36.3811 14.0718C33.7637 13.2618 31.3402 11.6418 28.8197 9.11049L28.7227 9.00924C28.1411 9.61675 27.4625 10.123 26.7839 10.7305C25.7176 11.6418 24.4573 12.2493 23.4879 12.7556C20.3858 14.0718 17.2836 15.2869 13.309 16.6031Z" fill="black"/>
<path d="M32.6012 23.5898C32.5043 24.7036 32.892 26.0199 32.2134 26.9312C32.0196 27.2349 31.1471 27.5387 31.0501 27.8424C30.8563 28.2474 30.8563 29.1587 30.8563 29.5637C30.6624 31.69 31.0501 36.0438 30.1777 36.0438C29.9838 35.0313 29.7899 34.0188 29.693 33.0063C29.596 31.7913 29.4021 30.5762 29.4991 29.26C29.596 28.0449 29.7899 26.8299 30.3716 25.7161C30.5654 25.4124 30.7593 25.1086 30.9532 24.9061C31.1471 24.7036 31.5349 24.6024 31.9226 24.7036" fill="#BCBCBB"/>
<path d="M30.1766 34.9313C30.3705 33.615 30.2735 32.1975 30.3705 30.8812C30.4674 29.5649 30.2735 27.9449 30.4674 26.8311C31.3399 26.6286 32.3093 25.8186 32.5032 24.9073C32.6971 23.9961 32.6001 23.0848 32.3093 22.1735C32.0185 21.3635 31.9215 20.756 31.2429 20.351C30.6613 19.946 29.8858 19.8447 29.1102 19.8447C28.4316 19.8447 27.6561 19.8447 26.9775 19.8447C26.105 19.946 25.3295 20.2497 24.9417 21.0598C24.6509 21.566 24.457 21.971 24.457 22.4773C24.457 23.0848 24.457 23.7936 24.554 24.4011C24.6509 24.9073 24.9417 25.6161 25.2326 26.0211C25.7173 26.6286 26.7836 26.9324 26.7836 26.9324C27.0745 27.7424 26.8806 29.3624 26.9775 30.1724C27.1714 31.6912 26.9775 33.3112 26.8806 34.83C26.8806 35.1338 26.8806 35.5388 26.9775 35.8425C27.0745 36.1463 27.4622 36.2475 27.753 36.3488C27.9469 36.4501 29.9827 36.3488 30.0796 36.1463C30.1766 35.8425 30.0796 35.1338 30.1766 34.9313Z" fill="black"/>
<path d="M46.6572 11.3384C46.8511 11.5409 47.045 11.8446 47.2389 12.1484C47.5297 12.7559 47.9175 13.2622 48.1113 13.9709C48.4991 15.2872 48.4991 16.6035 48.4991 18.021C48.5961 19.1348 48.7899 20.2486 48.9838 21.3623C49.3716 23.4886 49.6624 25.6149 50.0502 27.8425C50.341 25.9187 50.5349 23.9949 50.4379 22.0711C50.4379 21.2611 50.341 20.4511 50.2441 19.5398C50.1471 18.6285 50.1471 17.7173 50.0502 16.806C49.9532 15.4897 49.8563 14.1734 49.7594 12.9584C49.7594 12.4522 49.6624 11.8446 49.5655 11.3384C49.5655 11.2371 49.4685 11.0346 49.4685 10.9334C49.3716 10.8321 49.2746 10.8321 49.1777 10.7309C48.693 10.5284 48.1113 10.4271 47.6266 10.4271C47.2389 10.4271 45.4939 10.0221 45.3 10.3259C45.0092 10.8321 46.6572 10.8321 46.6572 11.3384Z" fill="#BCBCBB"/>
<path d="M9.04297 36.249C10.1093 38.4766 11.4665 40.5016 13.1145 42.3241C13.8901 43.2354 14.8595 44.0454 15.7319 44.8554C16.4105 45.463 16.9922 46.0705 17.6708 46.5767C20.3851 48.703 23.5842 50.0193 26.7833 51.1331C28.7221 51.8418 31.5334 52.4493 33.5692 52.1456C32.7937 52.6518 31.1457 53.1581 30.3701 53.6644C29.8854 53.9681 29.4007 54.2719 28.8191 54.2719C28.5282 54.2719 28.1405 54.1706 27.8496 54.0694C26.9772 53.8669 26.2016 53.5631 25.4261 53.1581C24.7475 52.8543 24.1659 52.4493 23.4873 52.0443C20.2882 50.0193 16.5075 48.703 13.987 45.7667C13.2115 44.8554 12.5329 43.8429 11.8543 42.8304C10.9818 41.3116 10.1093 39.5903 10.2063 37.7678" fill="#BCBCBB"/>
<path d="M8.07522 11.3402L8.2691 17.8204V21.0604V22.6804V24.4017L8.36604 27.8443C8.36604 28.9581 8.36604 30.1731 8.36604 31.2869C8.36604 32.4006 8.46298 33.4132 8.85075 34.4257C9.23852 35.4382 9.52934 36.4507 10.0141 37.4632C11.6621 41.5133 13.8917 46.0697 17.4786 48.2972C21.1623 50.5248 24.4584 52.3473 28.433 53.5623L28.8207 53.8661C32.8923 52.5498 36.2852 50.1197 39.5813 47.3859C41.2293 46.0697 42.7803 44.5509 43.9436 42.8296C45.1069 41.1083 46.0763 39.0833 47.1427 37.0582C47.4335 36.552 47.6274 36.147 47.8213 35.6407C48.0152 35.2357 48.1121 34.7294 48.2091 34.1219C48.4029 33.1094 48.5968 31.9956 48.6938 30.8819C48.9846 28.6543 49.1785 26.4268 49.2754 24.1992C49.3724 21.9717 49.3724 19.7441 49.3724 17.4153C49.3724 16.3016 49.2754 15.1878 49.1785 14.074L49.0815 12.3527L48.9846 11.5427V11.3402C48.9846 11.3402 49.0815 11.644 49.1785 11.7452C49.2754 11.7452 49.1785 11.7452 49.0815 11.644C48.9846 11.5427 48.6938 11.3402 48.6938 11.0365V10.9352L49.3724 11.644C47.4335 11.3402 45.4947 10.9352 43.6528 10.429C41.714 9.9227 39.8721 9.31518 38.0302 8.60642C37.1577 8.20141 36.1883 7.89766 35.3158 7.29014C34.4433 6.78388 33.6678 6.17637 32.8923 5.56886L28.2391 1.92379L29.3054 1.82254C28.9177 2.22754 28.5299 2.63255 28.2391 2.93631C27.8513 3.24006 27.6574 3.54382 27.2697 4.05008C26.8819 4.45509 26.5911 4.8601 26.1064 5.16385C25.6217 5.46761 25.2339 5.77136 24.7492 5.97387C23.0042 6.98639 21.744 7.08764 19.9021 7.89766C18.0602 8.70767 17.8663 8.91018 15.9275 9.31518C15.4428 9.41644 14.3764 9.82144 13.7948 9.82144C13.3101 9.9227 11.3712 10.429 10.8865 10.5302C10.4018 10.6315 9.72323 10.7327 9.23852 10.834L8.36604 10.9352L8.2691 11.5427H8.17216H8.2691C7.97828 11.4415 8.07522 11.4415 8.07522 11.3402ZM6.71804 10.2265C6.81498 10.1252 7.00886 10.0239 7.20274 9.9227C7.29969 9.9227 7.39663 9.82144 7.49357 9.82144H7.59051L7.97828 9.72019L8.75381 9.51769C9.23852 9.41644 9.72323 9.31519 10.2079 9.21393C10.6926 9.11268 11.1774 9.01143 11.6621 9.01143C12.1468 8.91018 12.6315 8.91018 13.1162 8.80892C14.9581 8.40392 16.8 7.7964 18.6419 7.08764C20.3868 6.37888 22.1318 5.46761 23.8767 4.45509C24.2645 4.25258 24.7492 3.94883 25.04 3.74632C25.4278 3.54382 25.7186 3.13881 26.0094 2.7338C26.3002 2.43005 26.688 2.02504 27.0758 1.62003C27.4635 1.21502 27.7544 0.911268 28.0452 0.607512L28.5299 0L29.1116 0.50626L33.7648 4.15133C34.5403 4.75884 35.3158 5.36636 36.0914 5.77136C36.8669 6.27762 37.7394 6.58138 38.6118 6.98639C40.3568 7.69515 42.1987 8.30266 44.0406 8.70767C45.8825 9.21393 47.7244 9.61894 49.6632 9.9227L50.3418 10.6315C50.3418 10.429 50.1479 10.3277 50.1479 10.3277C50.1479 10.3277 50.2448 10.3277 50.3418 10.5302C50.4387 10.6315 50.5357 10.7327 50.6326 10.834C50.7295 10.9352 50.7295 11.239 50.7295 11.239V11.4415L50.8265 12.2515L51.0204 13.9728C51.1173 15.0866 51.2142 16.3016 51.3112 17.4153C51.4081 19.7441 51.5051 21.9717 51.4081 24.3005C51.3112 26.6293 51.2142 28.9581 50.9234 31.1856C50.8265 32.2994 50.6326 33.5144 50.4387 34.6282C50.3418 35.2357 50.1479 35.8432 49.954 36.4507C49.7601 37.0582 49.4693 37.5645 49.1785 38.172C48.1121 40.0958 47.2396 42.2221 45.8825 44.2471C44.5253 46.2722 42.7803 47.7909 41.0354 49.2085C37.4485 52.0435 33.28 54.1698 29.0146 55.1823L28.7238 55.2836L28.5299 55.1823C24.1675 53.7648 20.4838 51.3348 16.703 49.006C14.7642 47.791 13.1162 46.0697 11.759 44.1459C10.4988 42.2221 9.4324 40.0958 8.55993 37.9695C8.07522 36.957 7.78439 35.8432 7.29969 34.7294C6.91192 33.6157 6.81498 32.2994 6.71804 31.1856C6.71804 29.9706 6.71804 28.9581 6.71804 27.743L6.62109 24.4017V22.6804V20.8579V17.3141L6.71804 10.2265Z" fill="black"/>
</svg>
