<svg width="76" height="79" viewBox="0 0 76 79" fill="none" xmlns="http://www.w3.org/2000/svg">
<path d="M66.1328 41.2005C65.8328 43.5005 65.4328 46.0005 65.0328 48.5005C64.6328 51.6005 62.8328 54.1005 60.9328 56.4005C58.6328 59.1005 55.9328 61.4005 52.6328 63.0005C47.8328 65.4005 42.7328 66.4005 37.5328 66.6005C30.4328 66.9005 24.0328 64.7005 18.4328 60.2005C14.3328 57.0005 12.2328 52.6005 10.1328 48.1005C9.73281 47.3005 9.63281 46.4005 9.63281 45.5005C9.93281 42.4005 9.83281 39.1005 10.8328 36.3005C12.1328 32.6005 13.2328 28.8005 15.4328 25.4005C17.8328 21.8005 20.5328 18.6005 24.1328 16.2005C27.2328 14.1005 30.6328 12.7005 34.3328 12.4005C34.9328 12.4005 35.5328 12.3005 36.0328 12.2005C44.9328 10.7005 52.1328 14.3005 58.4328 20.0005C62.2328 23.4005 63.8328 28.0005 65.0328 32.7005C65.6328 35.6005 65.7328 38.3005 66.1328 41.2005ZM64.0328 41.0005C64.2328 34.1005 62.3328 27.7005 57.6328 22.4005C53.3328 17.6005 47.8328 14.5005 41.5328 14.0005C35.5328 13.5005 29.8328 15.3005 25.0328 19.2005C19.3328 23.7005 15.5328 29.7005 12.9328 36.3005C11.8328 39.3005 11.3328 42.9005 11.9328 46.0005C13.3328 54.0005 18.4328 59.6005 25.8328 62.6005C34.1328 66.0005 42.5328 65.4005 50.6328 61.6005C59.3328 57.6005 64.4328 51.1005 64.0328 41.0005Z" fill="#F15748"/>
<path d="M68.1343 65.5994C69.0343 64.9994 69.8343 64.4994 70.7343 63.8994C70.0343 64.7994 69.2343 65.4994 68.1343 65.5994C68.0343 65.5994 68.1343 65.5994 68.1343 65.5994Z" fill="black"/>
<path d="M70.7344 63.9992C70.8344 63.6992 71.0344 63.3992 71.1344 63.1992C71.2344 63.1992 71.2344 63.2992 71.3344 63.2992C71.1344 63.4992 70.9344 63.6992 70.7344 63.9992C70.7344 63.8992 70.7344 63.9992 70.7344 63.9992Z" fill="black"/>
<path d="M72.632 37.0996C72.732 37.1996 72.832 37.3996 72.832 37.4996C72.732 37.4996 72.632 37.5996 72.632 37.5996C72.532 37.4996 72.432 37.2996 72.332 37.1996C72.432 37.1996 72.532 37.1996 72.632 37.0996Z" fill="black"/>
<path d="M65.432 59.2998C65.632 59.3998 65.932 59.4998 66.132 59.5998C66.132 59.6998 66.132 59.6998 66.132 59.7998C65.932 59.7998 65.832 59.7998 65.632 59.7998C65.532 59.6998 65.432 59.5998 65.332 59.4998C65.432 59.3998 65.432 59.3998 65.432 59.2998Z" fill="black"/>
<path d="M74.3317 51.8993C74.4317 50.9993 74.5317 50.0993 74.6317 49.1993C74.7317 47.3993 74.7317 45.4993 74.4317 43.6993C74.2317 42.2993 73.8317 40.8993 73.3317 39.4993C70.9317 33.1993 65.0317 28.7993 58.5317 26.5993C57.8317 26.3993 57.1317 26.0993 56.4317 25.9993C48.1317 23.7993 40.6317 25.4993 33.1317 29.3993C33.0317 29.4993 32.9317 29.4993 32.8317 29.5993C32.3317 29.8993 31.8317 30.1993 31.4317 30.5993C29.5317 32.1993 28.4317 34.3993 27.7317 36.7993C26.8317 40.1993 27.0317 44.0993 27.9317 47.2993C28.0317 47.6993 28.2317 48.0993 28.3317 48.4993C28.9317 50.0993 29.8317 51.6993 31.2317 52.6993C32.8317 53.7993 34.9317 53.9993 36.9317 54.0993C40.0317 54.2993 43.2317 54.4993 46.3317 54.6993C46.3317 54.6993 46.3317 54.6993 46.4317 54.6993C46.5317 54.6993 46.5317 54.6993 46.6317 54.6993C49.7317 54.8993 52.9317 55.1993 55.4317 56.9993C57.0317 58.1993 58.1317 59.7993 59.4317 61.3993C59.7317 61.7993 60.0317 62.0993 60.3317 62.4993C61.9317 64.2993 64.4317 65.7993 66.7317 65.1993C67.7317 64.8993 68.6317 64.1993 69.4317 63.4993C71.3317 61.5993 72.5317 59.1993 73.4317 56.6993C73.8317 54.9993 74.1317 53.4993 74.3317 51.8993ZM69.2317 56.2993C69.0317 56.3993 68.8317 56.5993 68.6317 56.7993C68.0317 57.6993 67.1317 57.7993 66.2317 57.4993C65.6317 57.1993 65.0317 56.8993 64.4317 56.4993C62.0317 54.8993 60.2317 52.6993 59.0317 50.0993C57.7317 47.3993 56.6317 44.4993 56.7317 41.3993C56.7317 40.6993 56.8317 39.9993 56.9317 39.3993C57.3317 37.5993 58.4317 36.4993 60.1317 35.7993C60.9317 35.4993 61.7317 35.2993 62.4317 35.0993C63.1317 34.8993 63.7317 34.9993 64.4317 35.2993C65.3317 35.6993 65.7317 36.2993 65.8317 37.2993C65.9317 38.6993 65.9317 40.0993 66.0317 41.4993C66.0317 42.1993 66.4317 42.6993 66.8317 43.1993C67.5317 44.0993 68.4317 44.7993 68.7317 45.9993C68.9317 46.5993 69.5317 47.0993 69.8317 47.7993C70.4317 49.1993 70.5317 50.4993 70.5317 51.8993C70.5317 52.7993 70.3317 53.6993 70.2317 54.5993C70.1317 55.2993 69.9317 55.8993 69.2317 56.2993Z" fill="white"/>
<path d="M59.4317 61.3C58.2317 59.7 57.0317 58.1 55.4317 56.9C52.9317 55.1 49.7317 54.8 46.6317 54.6C46.5317 54.6 46.5317 54.6 46.4317 54.6C46.4317 54.6 46.4317 54.6 46.3317 54.6C43.2317 54.4 40.0317 54.2 36.9317 54C34.9317 53.9 32.9317 53.7 31.2317 52.6C29.8317 51.6 28.9317 50 28.3317 48.4C28.2317 48 28.0317 47.6 27.9317 47.2C27.0317 44 26.8317 40.1 27.7317 36.7C28.3317 34.3 29.5317 32 31.4317 30.5C31.1317 31.8 31.0317 33.2 31.1317 34.6C31.5317 39 34.1317 43.2 37.9317 45.5C40.8317 47.2 44.2317 47.9 47.5317 48.7C50.8317 49.5 54.2317 50.5 56.7317 52.7C59.1317 54.8 60.5317 58.3 59.4317 61.3Z" fill="#B9B9B8"/>
<path d="M75.6333 48.6997C75.6333 47.8997 75.4333 47.0997 75.2333 46.2997C75.1333 45.6997 74.8333 45.1997 74.7333 44.5997C74.6333 44.2997 74.5333 43.9997 74.4333 43.6997C74.1333 42.6997 73.8333 41.6997 73.6333 40.7997C73.2333 39.1997 72.3333 37.8997 71.4333 36.5997C70.0333 34.3997 68.2333 32.4997 66.2333 30.9997C64.2333 29.4997 62.1333 28.1997 59.7333 27.2997C59.3333 27.0997 58.9333 26.8997 58.5333 26.6997V26.5997C58.9333 25.2997 59.5333 24.1997 59.1333 23.0997C58.6333 22.7997 58.2333 22.4997 57.7333 22.3997C56.4333 22.0997 55.1333 21.8997 53.8333 21.5997C52.4333 21.3997 51.0333 21.2997 49.6333 20.9997C48.6333 20.7997 47.7333 20.7997 46.7333 20.8997C46.0333 20.9997 45.5333 21.3997 45.3333 21.9997C45.1333 22.9997 45.0333 23.9997 44.8333 25.0997C44.3333 25.1997 43.7333 25.2997 43.0333 25.2997C40.5333 25.3997 38.4333 26.4997 36.2333 27.4997C35.1333 27.9997 34.2333 28.1997 33.2333 27.7997C30.7333 26.8997 28.1333 26.8997 25.4333 27.2997C23.6333 27.4997 22.0333 28.0997 20.5333 29.0997C19.2333 29.9997 18.0333 30.8997 16.8333 31.7997C16.5333 31.9997 16.3333 32.1997 16.0333 32.2997C13.8333 27.5997 11.8333 22.7997 8.93333 18.5997C7.53333 18.4997 7.43333 18.3997 7.13333 17.1997C6.73333 15.3997 6.63333 13.4997 5.43333 11.9997C5.23333 11.7997 5.23333 11.3997 5.23333 10.9997C4.93333 10.8997 4.53333 10.6997 4.23333 10.5997C2.83333 10.0997 1.33333 10.5997 0.533333 11.7997C-0.266667 12.8997 -0.166667 14.3997 0.833333 15.4997C2.13333 16.9997 3.73333 18.2997 5.73333 18.7997C6.33333 18.9997 6.73333 19.0997 7.23333 19.2997C8.33333 19.5997 9.13333 20.2997 9.73333 21.3997C11.8333 24.8997 13.4333 28.4997 15.0333 32.1997C15.1333 32.2997 15.1333 32.3997 15.1333 32.5997C15.4333 33.0997 15.3333 33.5997 14.9333 33.9997C14.3333 34.6997 13.6333 35.2997 13.0333 36.0997C12.4333 36.7997 11.9333 37.4997 11.4333 38.1997C11.1333 38.6997 10.9333 39.1997 10.6333 39.6997C9.33333 41.6997 8.23333 43.7997 7.33333 46.0997C6.33333 48.7997 5.93333 51.5997 5.93333 54.3997C5.93333 55.9997 6.73333 57.2997 8.23333 57.8997C9.63333 58.3997 11.1333 58.1997 12.2333 56.9997C13.6333 55.5997 14.6333 53.9997 15.5333 52.2997C17.1333 49.1997 17.5333 45.7997 17.8333 42.2997C17.9333 41.6997 17.8333 40.9997 17.8333 40.3997C17.7333 38.0997 17.5333 35.6997 16.6333 33.3997C17.7333 32.4997 18.7333 31.6997 19.8333 30.8997C21.6333 29.5997 23.5333 28.4997 25.8333 28.1997C28.2333 27.8997 30.6333 28.2997 32.9333 28.6997C33.0333 28.6997 33.1333 28.7997 33.3333 28.9997C33.2333 29.1997 33.0333 29.2997 32.9333 29.4997C32.6333 29.8997 32.3333 30.1997 32.0333 30.4997C30.2333 32.2997 28.9333 34.2997 27.9333 36.5997C27.8333 36.7997 27.7333 37.0997 27.6333 37.2997C26.2333 40.7997 26.5333 44.0997 28.1333 47.0997C28.5333 47.8997 29.0333 48.5997 29.6333 49.2997C30.5333 50.3997 31.7333 51.3997 33.1333 51.8997C36.9333 53.3997 40.9333 54.1997 45.0333 54.3997C45.5333 54.3997 46.0333 54.4997 46.5333 54.4997C46.5333 54.4997 46.5333 54.4997 46.6333 54.4997C48.0333 54.5997 49.5333 54.8997 50.9333 55.0997C54.0333 55.6997 56.4333 57.2997 58.3333 59.7997C59.4333 61.2997 60.5333 62.8997 62.0333 63.9997C63.1333 64.7997 64.2333 65.4997 65.6333 65.2997C66.0333 65.2997 66.6333 65.0997 66.8333 65.3997C67.4333 65.9997 67.7333 65.6997 68.2333 65.2997C68.1333 64.7997 68.0333 64.3997 68.6333 63.9997C70.2333 62.7997 71.6333 61.3997 72.8333 59.6997C73.0333 59.3997 73.6333 59.1997 73.6333 58.8997C73.8333 58.0997 74.1333 57.3997 74.4333 56.6997C75.3333 54.2997 75.6333 51.4997 75.6333 48.6997ZM3.23333 16.3997C2.73333 15.8997 2.13333 15.4997 1.63333 14.8997C0.533333 13.5997 0.933333 12.2997 2.43333 11.5997C3.13333 11.2997 3.73333 11.2997 4.23333 11.8997C4.73333 12.3997 5.23333 12.9997 5.43333 13.6997C5.83333 14.9997 6.13333 16.3997 6.53333 17.8997C5.03333 17.5997 4.03333 17.1997 3.23333 16.3997ZM16.4333 36.0997C17.0333 39.2997 16.9333 42.3997 16.5333 45.6997C16.1333 48.9997 14.9333 51.8997 13.2333 54.5997C12.8333 55.2997 12.2333 55.8997 11.7333 56.4997C10.9333 57.3997 9.23333 57.3997 8.23333 56.5997C7.43333 56.1997 7.13333 55.4997 7.13333 54.6997C7.33333 54.8997 7.43333 54.9997 7.63333 55.1997C6.53333 51.8997 7.33333 48.7997 8.53333 45.6997C9.33333 43.7997 10.5333 42.0997 11.3333 40.1997C12.3333 37.9997 13.9333 36.3997 15.7333 34.7997C15.8333 34.6997 15.8333 34.6997 16.1333 34.5997C16.1333 34.9997 16.3333 35.5997 16.4333 36.0997ZM73.3333 56.4997C73.0333 57.3997 72.6333 58.1997 72.2333 59.0997C71.3333 60.9997 69.7333 62.3997 68.1333 63.5997C66.5333 64.8997 65.1333 64.7997 63.2333 63.2997C61.8333 62.1997 60.7333 60.8997 59.6333 59.4997C56.6333 55.5997 52.6333 53.6997 47.8333 53.3997C44.8333 53.1997 41.7333 52.8997 38.8333 52.3997C36.3333 51.8997 34.0333 50.8997 32.0333 48.9997C33.0333 48.3997 33.9333 47.8997 34.8333 47.3997C34.8333 47.2997 34.7333 47.2997 34.7333 47.1997C33.6333 47.6997 32.5333 48.0997 31.4333 48.5997C31.1333 48.2997 30.8333 47.9997 30.4333 47.5997C31.6333 46.8997 32.7333 46.2997 33.8333 45.5997C33.8333 45.4997 33.7333 45.3997 33.7333 45.3997C32.5333 45.9997 31.2333 46.5997 30.1333 47.0997C29.6333 46.5997 29.9333 46.3997 30.2333 46.1997C31.1333 45.6997 31.9333 45.2997 32.8333 44.7997C33.1333 44.5997 33.4333 44.4997 33.7333 44.2997C33.7333 44.1997 33.6333 44.0997 33.6333 44.0997C32.2333 44.7997 30.8333 45.3997 29.3333 46.0997C29.1333 45.6997 28.9333 45.3997 28.8333 44.9997C27.5333 40.3997 28.6333 36.3997 31.6333 32.7997C31.8333 32.5997 32.0333 32.3997 32.3333 32.2997C33.2333 31.8997 34.1333 31.4997 35.0333 31.1997C36.5333 30.6997 37.7333 29.7997 38.8333 28.6997C39.1333 28.3997 39.2333 27.7997 39.5333 27.2997C40.7333 26.5997 42.3333 26.2997 43.9333 26.1997C46.7333 25.9997 49.6333 25.8997 52.4333 26.3997C55.9333 26.9997 59.3333 27.8997 62.3333 29.7997C64.0333 30.7997 65.8333 31.8997 67.1333 33.3997C67.8333 34.0997 68.5333 34.8997 69.1333 35.6997C69.9333 36.6997 70.7333 37.7997 71.5333 38.8997C71.9333 39.4997 72.1333 40.1997 72.5333 40.9997C71.2333 41.3997 70.0333 41.7997 68.9333 42.1997C69.6333 42.5997 70.1333 42.1997 70.7333 42.0997C71.3333 41.9997 71.9333 41.6997 72.6333 41.5997C73.1333 42.1997 72.9333 42.4997 72.3333 42.6997C71.6333 42.8997 70.9333 43.1997 70.3333 43.4997C70.1333 43.5997 69.9333 43.7997 69.7333 43.9997C69.7333 44.0997 69.8333 44.1997 69.8333 44.2997C70.9333 43.7997 71.9333 43.3997 73.0333 42.8997C73.2333 43.2997 73.4333 43.5997 73.4333 43.8997C73.8333 45.5997 74.6333 47.2997 74.7333 49.0997C74.7333 49.2997 74.7333 49.3997 74.7333 49.5997C74.7333 51.7997 74.2333 54.1997 73.3333 56.4997Z" fill="black"/>
<path d="M71.2348 54.6999C71.5348 52.8999 71.5348 51.0999 71.3348 49.2999C71.1348 47.5999 70.5348 46.1999 69.5348 44.7999C69.2348 44.4999 69.0348 44.0999 68.7348 43.7999C67.7348 42.4999 67.1348 41.0999 67.1348 39.3999C67.1348 38.5999 67.0348 37.7999 66.9348 36.9999C66.5348 35.0999 65.1348 33.7999 63.1348 33.8999C61.8348 33.8999 60.6348 34.0999 59.3348 34.2999C57.9348 34.4999 57.3348 35.7999 56.2348 36.2999C55.2348 38.1999 54.4348 40.0999 55.0348 42.3999C55.3348 43.4999 55.3348 44.6999 55.4348 45.7999C55.6348 46.2999 55.7348 46.7999 55.9348 47.2999C56.4348 48.5999 56.9348 49.8999 57.5348 51.0999C58.2348 52.3999 59.2348 53.6999 60.0348 54.9999C61.6348 57.3999 64.0348 58.4999 66.8348 58.8999C67.1348 58.8999 67.5348 58.8999 67.8348 58.7999C69.6348 57.8999 70.8348 56.6999 71.2348 54.6999ZM69.2348 56.2999C69.0348 56.3999 68.8348 56.5999 68.6348 56.7999C68.0348 57.6999 67.1348 57.7999 66.2348 57.4999C65.6348 57.1999 65.0348 56.8999 64.4348 56.4999C62.0348 54.8999 60.2348 52.6999 59.0348 50.0999C57.7348 47.3999 56.6348 44.4999 56.7348 41.3999C56.7348 40.6999 56.8348 39.9999 56.9348 39.3999C57.3348 37.5999 58.4348 36.4999 60.1348 35.7999C60.9348 35.4999 61.7348 35.2999 62.4348 35.0999C63.1348 34.8999 63.7348 34.9999 64.4348 35.2999C65.3348 35.6999 65.7348 36.2999 65.8348 37.2999C65.9348 38.6999 65.9348 40.0999 66.0348 41.4999C66.0348 42.1999 66.4348 42.6999 66.8348 43.1999C67.5348 44.0999 68.4348 44.7999 68.7348 45.9999C68.9348 46.5999 69.5348 47.0999 69.8348 47.7999C70.4348 49.1999 70.5348 50.4999 70.5348 51.8999C70.5348 52.7999 70.3348 53.6999 70.2348 54.5999C70.1348 55.2999 69.9348 55.8999 69.2348 56.2999Z" fill="black"/>
<path d="M50.2349 32.4993C49.4349 32.1993 48.6349 31.8993 47.9349 31.4993C46.9349 30.8993 46.9349 30.2993 47.8349 29.5993C48.5349 28.8993 49.4349 28.6993 50.4349 28.5993C52.1349 28.4993 53.7349 28.6993 55.3349 29.3993C55.6349 29.4993 55.8349 29.6993 56.1349 29.7993C56.9349 30.3993 57.2349 31.0993 57.0349 31.8993C56.7349 32.6993 56.0349 32.8993 55.2349 32.8993C54.4349 32.8993 53.6349 32.8993 52.8349 32.7993C52.0349 32.6993 51.2349 32.4993 50.4349 32.3993C50.2349 32.4993 50.2349 32.4993 50.2349 32.4993Z" fill="black"/>
<path d="M54.3336 44.5997C52.5336 45.2997 50.8336 45.8997 48.9336 46.5997C49.7336 45.6997 52.8336 44.3997 54.3336 44.5997Z" fill="black"/>
<path d="M55.4336 45.7992C53.6336 46.6992 51.8336 47.4992 49.9336 48.4992C50.0336 48.0992 50.0336 47.8992 50.0336 47.8992C51.7336 47.1992 53.4336 46.3992 55.0336 45.6992C55.1336 45.6992 55.3336 45.7992 55.4336 45.7992Z" fill="black"/>
<path d="M8.13359 56.4994C8.03359 56.2994 7.93359 56.0994 7.93359 55.8994C8.23359 56.0994 8.63359 56.2994 9.13359 56.6994C8.63359 56.5994 8.43359 56.5994 8.13359 56.4994Z" fill="black"/>
<path d="M13.4336 78.6C12.9336 76.9 13.0336 75.8 13.7336 74.7C17.4336 68.7 21.1336 62.8 24.7336 56.8C26.4336 54 27.9336 51 29.5336 48.2C32.0336 43.8 34.6336 39.4 37.2336 34.9C39.1336 31.7 40.8336 28.4 43.0336 25.3C47.4336 18.9 52.0336 12.6 56.6336 6.3C57.9336 4.5 59.5336 2.8 60.9336 1.1C61.2336 0.7 61.6336 0.5 62.1336 0C62.9336 1.2 62.4336 1.9 61.7336 2.6C54.1336 10.1 48.4336 19 42.8336 28C40.2336 32.2 37.6336 36.4 35.1336 40.7C31.5336 46.9 28.1336 53.3 24.5336 59.5C21.8336 64.2 18.9336 68.8 16.1336 73.5C15.2336 75 14.5336 76.6 13.4336 78.6Z" fill="#F15748"/>
</svg>
