<svg width="14" height="21" viewBox="0 0 14 21" fill="none" xmlns="http://www.w3.org/2000/svg">
<path d="M1.41333 5.06055C1.41333 5.06055 1.94066 8.24847 2.97134 11.8678C4.02599 15.6071 5.96751 16.6617 8.79589 19.3942L7.90902 20.5927C7.90902 20.5927 0.694251 15.9906 0.766159 8.5361L1.02982 5.42009L1.41333 5.06055Z" fill="#BABAB9"/>
<path d="M0 8.1764C0.215724 5.63565 0.958774 3.0949 3.30777 1.32117C5.00959 0.0268276 6.95111 -0.332713 9.01247 0.31446C9.65964 0.506214 10.3068 0.793847 10.9061 1.12942C11.8409 1.65674 12.5599 2.35185 13.0154 3.4065C14.5973 7.09778 14.094 10.6213 12.2723 14.0489C11.2177 16.0144 10.0432 17.9319 8.94057 19.8734C8.38927 20.8322 8.02973 21 8.02973 21C7.88591 20.9041 6.8792 20.1371 6.75935 20.0412C4.19463 17.908 1.98946 15.511 0.886865 12.2752C0.431448 11.0048 0 9.75838 0 8.1764ZM7.98179 20.1371C8.26942 19.7296 8.62896 19.2982 8.9166 18.7709C9.70758 17.3567 10.4506 15.9185 11.2896 14.5522C12.0086 13.3538 12.5839 12.1074 12.8955 10.7411C13.4708 8.34419 13.5187 5.99519 12.3682 3.71811C11.6012 2.18407 10.2828 1.41705 8.72484 0.937663C8.53309 0.889724 7.93385 0.769877 7.7421 0.793846C7.09493 0.817816 6.66348 0.913694 6.04027 1.05751C5.03356 1.2972 4.05082 1.70468 3.21189 2.59155C2.82838 3.11887 2.49281 3.57429 2.15724 4.14955C0.0719076 7.91274 0.647172 10.9329 3.21189 15.0556C4.05082 14.4084 5.10547 13.5935 5.92043 12.9463C5.99234 13.0422 5.96837 12.9942 6.04027 13.0901C5.87249 13.2579 5.75264 13.4017 5.58486 13.5455C5.00959 14.0489 4.4583 14.5522 3.907 15.0796C3.64334 15.3432 3.5954 15.5829 4.00288 15.7747C4.81784 15.1515 5.65676 14.5283 6.47172 13.9051C6.51966 13.953 6.54363 14.001 6.59157 14.0489C5.82455 14.768 4.98562 15.6309 4.19463 16.3739C5.27325 17.8121 6.49569 19.0345 7.98179 20.1371Z" fill="black"/>
<path d="M5.13067 4.22168C5.44227 4.22168 5.70593 4.58122 5.70593 4.9887C5.70593 5.49205 5.27448 6.09129 4.91494 6.09129C4.5554 6.09129 4.09999 5.51602 4.12395 5.10854C4.14792 4.6771 4.67525 4.22168 5.13067 4.22168Z" fill="black"/>
<path d="M8.12676 3.14251C8.43836 3.14251 8.70203 3.50205 8.70203 3.90953C8.70203 4.41288 8.27058 5.01212 7.91104 5.01212C7.5515 5.01212 7.09608 4.43685 7.12005 4.02937C7.14402 3.57396 7.67134 3.11854 8.12676 3.14251Z" fill="black"/>
<path d="M10.9061 4.31641C11.2177 4.31641 11.4813 4.67595 11.4813 5.08343C11.4813 5.58678 11.0499 6.18601 10.6903 6.18601C10.3308 6.18601 9.87538 5.61075 9.89935 5.20327C9.92331 4.77182 10.4267 4.31641 10.9061 4.31641Z" fill="black"/>
<path d="M8.67692 6.35492C8.43723 6.09126 8.12563 5.94744 7.81403 5.85156C7.47845 5.85156 7.16685 5.92347 6.85525 6.09126C5.39312 6.93018 4.14672 7.98483 3.85909 9.63872C3.81115 9.97429 3.83512 10.3578 3.95496 10.7173C4.14672 11.3166 4.53023 11.4604 5.12946 11.1967C5.36915 11.1008 5.56091 10.957 5.77663 10.8372C6.23205 10.5496 6.68747 10.3818 7.16685 10.3818C7.62227 10.5256 8.02975 10.7892 8.36532 11.1967C8.53311 11.3885 8.67692 11.5802 8.86868 11.724C9.396 12.1315 9.80348 12.1076 10.1391 11.5802C10.3308 11.2926 10.4746 10.9331 10.5226 10.5735C10.7623 8.91964 9.85142 7.57735 8.67692 6.35492Z" fill="black"/>
</svg>
