<svg width="124" height="120" viewBox="0 0 124 120" fill="none" xmlns="http://www.w3.org/2000/svg">
<path d="M42.1895 32.6768C39.9246 35.4135 38.7702 38.8499 37.5135 42.1473C32.9504 54.5143 27.1396 66.3183 20.116 77.2838C16.664 82.767 12.8702 88.1093 8.87166 93.1739C6.58934 96.0483 -0.365518 101.956 0.668569 106.101C1.58514 109.281 6.1811 109.694 10.1487 110.558C12.9535 111.136 15.8455 111.024 17.7291 110.352C21.1198 109.143 23.9336 105.86 26.166 102.433C31.4711 94.6231 34.9321 85.2793 40.9887 78.1654C44.2489 74.197 48.2603 70.925 52.0323 67.6506C57.1587 63.1479 62.0979 58.2298 66.8326 53.0341C67.2441 52.6243 67.5359 52.2133 67.9476 51.8034C68.9254 50.7094 70.0404 49.4788 70.4717 47.9662C71.2123 45.9048 70.7551 43.8324 70.2631 42.0354C69.8059 39.9631 69.3314 38.0284 68.8568 36.0938C68.0948 32.6398 67.1282 28.9081 64.4628 27.2291C62.1394 25.691 59.2127 26.0777 56.3882 26.6031C51.5103 27.2476 45.9811 28.2997 42.1895 32.6768Z" fill="white"/>
<path d="M55.7608 59.3896C49.7076 64.2825 42.6305 66.966 37.2836 72.8277C34.2547 76.2365 31.9664 80.3396 29.7964 84.4438C25.9311 91.6943 23.1273 99.1018 19.129 106.578C15.6922 115 15.5626 116.035 15.7965 119.595C18.1321 117.245 18.9105 116.462 20.6161 113.71C23.8291 109.785 26.3188 105.584 28.5209 102.167C33.7544 94.3796 37.9747 86.6179 43.9489 79.5247C47.1648 75.5677 50.316 70.7499 54.0365 67.4851C59.0931 62.9954 63.9651 58.0916 68.6353 52.9109C68.8739 51.9507 69.1125 50.9906 69.233 50.0293C64.2524 51.0826 60.1063 55.8557 55.7608 59.3896Z" fill="#B9B9B8"/>
<path d="M14.8775 117.407C15.6819 116.582 16.4351 116.031 16.997 115.343C19.481 111.898 22.0478 108.591 24.4233 105.146C29.1998 98.1166 33.8936 90.9491 38.7531 84.0583C41.8502 79.6483 45.0045 75.5147 48.3756 71.3819C50.1953 69.1778 52.1808 67.2507 54.0834 65.185C56.2284 62.9821 58.3478 60.9173 60.493 58.7144C62.1018 57.0621 63.9019 55.5489 65.5107 53.8967C66.9854 52.3821 68.0775 50.5899 68.787 48.5201C68.9979 47.9682 69.5341 47.4175 69.8791 46.7279C70.2239 46.0383 70.6774 45.3491 70.9139 44.6592C71.31 43.6935 71.0042 43.0015 70.2961 42.7227C68.6887 42.0262 68.2427 40.9193 68.4354 38.7093C68.583 37.3283 68.6476 35.8088 68.7953 34.4277C68.872 34.0135 68.9745 33.4612 69.1597 33.0474C69.2109 32.7712 69.345 32.6336 69.5047 32.3578C70.0349 31.2544 70.0227 30.1491 69.5 29.4564C68.7859 28.6249 68.0388 29.7275 67.5025 30.2782C65.6269 29.8571 64.6898 28.4721 64.3146 26.3984C64.0026 25.1538 63.5823 23.9088 63.1363 22.802C62.6904 21.695 62.3394 21.8319 61.184 22.795C58.1199 25.2709 55.0816 27.6089 51.7643 26.768C51.2476 26.628 50.6796 26.7641 50.2653 26.0719C49.8766 25.2415 49.1747 25.5153 48.5042 26.2037C47.3805 27.5813 46.1739 28.8205 45.0502 30.1981C42.4261 33.2283 41.1096 36.8157 39.7676 40.5412C38.7961 43.4392 37.9074 46.4755 36.8275 49.3731C36.1436 51.3048 35.2685 53.0978 34.068 54.8896C31.1878 59.3005 28.4991 63.8503 25.6762 68.5376C21.7356 75.1552 17.3295 81.3567 12.8407 87.4198C10.2482 90.8646 7.76421 94.3097 5.17181 97.7545C4.58436 98.5814 0.421749 105.114 0 106.218C0.376593 105.943 0.393386 107.537 2.60328 103.544C3.8867 101.891 6.99675 96.8081 8.30572 95.0166C12.3413 89.6428 16.4093 83.9785 20.4447 78.6047C22.1816 76.2621 23.7271 73.7807 25.2726 71.2994C28.2295 66.4744 31.1036 61.5108 34.2774 56.6865C36.2507 53.6539 37.5732 50.6192 38.6472 47.169C39.6954 43.8569 40.7438 40.5448 42.1175 37.2338C42.7757 35.44 43.8678 33.6479 44.9343 31.9937C46.6395 29.2366 48.9307 28.0014 51.2402 28.4241C53.4411 28.8464 55.4386 28.0246 57.647 26.6509C58.5087 26.1013 59.3448 25.6898 60.1552 25.4164C61.5592 24.8687 62.6756 25.2872 62.9106 26.946C63.2346 29.2959 64.2546 30.8193 65.7852 31.93C67.3158 33.0408 67.8251 34.9769 67.3899 37.3241C66.8778 40.0855 67.336 42.2977 67.9853 44.6487C68.6287 46.4471 66.999 51.1387 65.2756 52.2379C62.9332 53.7493 61.1135 55.9534 58.994 58.0182C57.0085 59.9454 55.1316 61.8729 53.2547 63.8004C49.8518 67.5186 46.366 71.0984 43.2117 75.232C39.2018 80.4677 35.6575 86.1197 31.9473 91.4947C27.1707 98.5239 22.2856 105.553 17.4262 112.444C16.8131 113.408 15.9002 114.234 15.2043 115.06C15.0191 115.474 14.4828 116.025 14.8775 117.407Z" fill="black"/>
<path d="M52.4115 62.4372C54.6931 61.749 55.9966 59.6655 56.9274 57.1632C57.8584 54.661 57.5786 52.5722 56.1481 51.1756C54.8041 49.9184 54.5311 48.3864 55.3224 46.0228C55.8676 44.3544 55.987 42.5454 54.9558 41.4284C54.2371 40.4518 53.5851 40.3104 52.5209 41.1419C50.4789 42.9445 48.5965 43.9126 46.5475 42.7923C46.3478 42.6525 45.8689 42.7901 45.6427 42.7893C43.0218 43.4765 39.7696 48.0589 39.8633 51.1213C39.8835 52.7916 40.4625 53.9071 41.9925 54.1905C45.7046 54.8988 46.0506 55.4567 47.6812 59.3594C47.8276 59.7775 47.974 60.1955 48.147 60.4745C49.0855 63.2614 49.7108 63.5418 52.4115 62.4372Z" fill="black"/>
<path d="M63.0888 35.2524C62.5711 35.666 61.4774 36.2161 60.4677 36.9049C59.0503 38.0076 58.2152 39.5277 58.3181 41.3281C58.2852 43.2664 59.0159 44.6536 60.4781 45.074C60.8923 45.2139 61.74 44.8015 62.1738 44.2492C63.8566 42.3166 65.2615 40.1062 65.8641 37.4775C66.4149 35.1256 65.5804 34.2919 63.0888 35.2524Z" fill="black"/>
<path d="M57.5376 30.9778C57.2066 30.4241 56.9011 29.7322 56.4106 29.4542C55.729 29.0374 55.1421 29.8641 54.5809 30.5528C53.4327 32.0683 52.2591 33.7217 51.1939 35.3756C50.1285 37.0295 50.3001 37.8589 51.5807 38.5542C53.925 39.944 56.0226 38.5701 56.9299 34.8435C57.16 33.6011 57.2819 32.3583 57.5376 30.9778Z" fill="black"/>
<path d="M63.8479 54.7791C64.3409 54.5037 64.782 54.5053 65.1648 54.2296C67.0788 52.8511 68.6815 50.7789 69.785 48.4279C70.5638 46.6299 70.1943 45.659 68.7348 45.7924C67.8525 45.7895 67.0286 46.0636 66.0945 46.3373C64.3365 46.8854 63.4929 47.8521 63.5183 50.0684C63.4789 51.4534 63.7706 52.8396 63.8479 54.7791Z" fill="black"/>
<path d="M43.6335 40.1992C45.0425 39.5148 46.3699 38.6924 46.5353 36.6246C46.58 35.7974 46.9453 34.9714 47.0971 34.1446C47.2992 33.0422 46.9164 32.2135 46.0866 32.0725C45.2821 31.7938 44.4327 32.3423 43.9352 33.3057C43.1227 34.8195 42.3356 36.1955 41.7369 37.7102C41.0877 39.5003 42.036 40.7449 43.6335 40.1992Z" fill="black"/>
<path d="M31.5188 69.6963C30.185 71.0993 29.9644 72.2244 30.5391 73.4928C31.3633 75.8877 33.3138 76.7383 35.7404 75.761C36.8811 75.3425 37.2541 74.64 36.7143 73.7939C35.9945 72.6658 35.0121 71.6775 33.9744 70.9706C33.1443 70.405 32.259 70.1208 31.5188 69.6963Z" fill="black"/>
<path d="M45.1206 68.5912C46.3402 66.2386 46.412 65.2684 45.4016 64.1558C45.1214 63.8776 44.7302 63.599 44.4499 63.3207C43.3612 62.6238 41.9724 62.3418 41.562 60.3994C40.6424 62.3371 40.8183 63.1695 41.907 63.8665C42.5199 64.1459 43.1326 64.4253 43.6347 64.7042C44.4431 65.123 45.0884 65.8184 44.7166 67.2035C44.7491 67.6195 44.8925 68.0359 45.1206 68.5912Z" fill="black"/>
<path d="M33.6055 57.918C31.6615 58.186 31.0411 59.285 31.5894 61.4898C32.4201 60.3916 33.4116 59.5693 33.6055 57.918Z" fill="black"/>
<path d="M33.1097 83.9297C32.9565 86.2273 32.7233 88.6594 32.5371 91.2272C33.0995 89.7453 33.3822 86.908 33.1097 83.9297Z" fill="black"/>
<path d="M35.2461 88.3701C35.9796 86.0732 35.9124 83.9051 35.5959 82.0059C35.4675 84.0369 35.3212 86.2032 35.2461 88.3701Z" fill="black"/>
<path d="M71.8096 21.0133C72.3585 21.2929 72.9074 21.5726 73.5729 21.8534C74.1427 21.0353 74.6953 20.3543 75.1312 19.6722C77.8806 15.4435 80.5134 11.2138 83.2628 6.98521C83.5476 6.57616 83.8498 6.03004 84.0351 5.48282C84.0866 5.07158 84.056 4.38509 83.9394 4.38399C83.6066 4.24362 83.006 4.37521 82.7384 4.64718C81.9009 5.73724 81.0634 6.82729 80.226 7.91734C77.4766 12.146 74.71 16.5117 71.8096 21.0133Z" fill="#F15748"/>
<path d="M64.6979 17.2793C64.9534 17.4182 65.3746 17.6944 65.5679 17.5617C65.8646 17.2952 66.2787 16.7596 66.4097 16.3555C66.713 15.1418 66.7608 13.7894 66.9743 12.5745C67.3529 9.73824 67.8213 6.90322 68.1999 4.06695C68.2962 3.12112 68.289 2.3092 68.2956 1.36216C68.2883 0.550232 68.1638 0.00733339 67.6254 4.86804e-05C67.0868 -0.00723603 67.0941 0.804685 66.9493 1.34395C66.2123 5.93432 65.4617 10.6598 64.8146 15.2514C64.656 15.9258 64.677 16.6026 64.6979 17.2793Z" fill="#F15748"/>
<path d="M56.4104 18.1413C56.4591 17.733 56.742 17.1908 56.6816 16.7814C56.5931 15.6903 56.3794 14.7343 56.1655 13.7781C55.6495 10.7749 55.1336 7.77167 54.6175 4.76843C54.3433 3.40292 54.0853 1.9013 53.5767 0.669644C53.5 0.396314 52.8455 0.389599 52.4254 0.249023C52.2678 0.656215 52.11 1.06341 52.1704 1.47284C53.0978 6.52435 54.1504 11.4409 55.1868 16.4936C55.3239 17.1763 55.6955 17.7251 56.0507 18.4102C56.0669 18.274 56.2851 18.2763 56.4104 18.1413Z" fill="#F15748"/>
<path d="M63.0342 57.5708C64.2082 60.6168 66.6026 62.5703 68.8769 64.5226C77.0669 71.9097 84.3616 80.6684 90.4534 90.3818C93.4393 95.2379 96.1501 100.367 98.5859 105.77C99.9999 108.819 100.852 116.277 104.865 115.899C107.9 115.651 116.915 113.349 119.344 109.371C121.153 106.49 121.233 105.384 121.532 103.041C122.041 99.045 116.215 91.8591 114.458 88.6698C110.229 81.3189 104.09 75.7441 100.908 67.713C99.0694 63.2812 98.2434 58.4449 97.1774 53.6063C95.7221 47.1085 93.889 40.7453 91.661 34.6544C91.4912 34.1009 91.3038 33.6854 91.1341 33.1319C90.5895 31.7473 90.1649 30.3637 89.0702 29.5259C87.6506 28.4092 85.7306 28.3916 83.9131 28.513C81.9756 28.6332 80.1756 28.6168 78.2381 28.737C74.9806 28.8451 71.448 29.2268 68.7324 31.6853C66.4116 33.8716 65.3906 37.1734 64.3871 40.3374C62.6377 46.5299 61.0083 52.7235 63.0342 57.5708Z" fill="white"/>
<path d="M92.7003 50.9883C93.969 58.5415 94.6898 65.7095 97.0711 72.7248C98.4343 76.714 100.098 80.6423 102.376 83.8176C106.436 89.4776 109.699 95.574 112.596 102.183C113.402 104.11 114.091 106.036 114.649 108.098C118.888 109.608 123.712 108.436 124 106.108C123.14 102.283 116.971 92.2153 115.274 89.0457C111.186 81.7399 106.84 75.2491 103.765 67.2673C101.989 62.8629 99.6044 59.0064 98.5755 54.1977C97.1706 47.7401 95.4005 41.4162 93.2482 35.3628C92.603 34.9453 91.4594 32.0688 90.8141 31.6514C89.2529 37.6694 91.7565 45.4949 92.7003 50.9883Z" fill="#B9B9B8"/>
<path d="M118.911 105.909C118.79 104.797 117.147 100.51 116.834 99.8144C115.605 96.3385 114.238 93.0008 112.871 89.6633C109.998 83.1266 106.903 76.5891 104.031 70.0525C102.267 65.8804 100.667 61.431 99.2634 57.1212C98.4902 54.7577 98.1047 52.1179 97.4963 49.4771C96.9144 46.6976 96.4442 43.9186 95.889 41.0004C95.535 38.7771 95.2925 36.5543 94.912 34.4699C94.6161 32.5247 93.7945 30.9943 92.4469 29.8788C92.0543 29.5998 91.9646 28.9052 91.6253 28.3485C91.2859 27.7919 90.9467 27.2353 90.5806 26.8174C90.0183 26.2601 89.4076 26.5357 88.6903 27.3666C87.2291 29.1671 86.0075 29.7187 84.4419 29.1579C83.3804 28.8767 82.2074 28.5951 81.1725 28.175C80.8647 28.0351 80.5569 27.8952 80.2757 27.6165C80.1909 27.4773 79.9946 27.3377 79.9098 27.1987C79.2893 26.3634 78.5089 26.3607 77.5105 26.913C76.3472 27.7423 76.8296 28.716 77.0307 29.4111C75.601 31.6284 73.9652 32.595 72.0167 32.8664C70.8752 33.0015 69.5688 33.4138 68.3474 33.9652C67.2642 34.3783 67.0461 34.933 67.2254 36.3223C67.4826 40.2117 67.6015 44.2395 65.0716 48.1197C64.6038 48.8126 64.3592 49.5061 63.637 49.7815C62.7766 50.1952 62.5052 51.0277 62.7912 51.8618C63.1669 53.3907 63.6542 54.9199 64.0299 56.4488C64.9244 59.9237 67.0887 62.014 69.3912 63.9659C71.2161 65.4996 73.0679 66.8945 74.8928 68.4282C76.2137 69.6824 77.0887 70.9352 77.9104 72.4656C79.8398 76.3606 81.992 80.2562 84.0596 84.0127C87.1184 89.5779 89.6779 95.4191 91.9346 101.676C93.275 105.152 94.6155 108.629 95.9559 112.105C96.2419 112.939 96.6393 113.774 97.2598 114.61C97.2283 114.192 97.4464 113.638 97.2767 113.359C96.6198 111.552 95.963 109.744 95.2794 108.076C93.1974 102.652 91.2533 97.091 89.1712 91.6678C88.2865 89.304 87.1255 87.2171 86.1026 84.9916C83.8921 80.818 81.5169 76.9216 79.4446 72.6096C78.1672 69.9666 76.4487 67.8778 74.2893 66.343C72.1299 64.8083 70.1352 62.9962 68.2787 61.0458C67.2655 59.9314 66.4172 58.5399 65.6803 57.1486C64.4612 54.7838 64.7978 51.8684 66.3342 49.096C67.844 46.4625 68.4352 43.9646 68.6338 41.1877C68.7355 40.0771 68.8373 38.9664 69.0238 37.9949C69.3702 36.1907 70.3905 34.9442 71.755 34.8098C73.8999 34.678 75.6737 33.5728 77.3581 31.7731C79.0424 29.9732 81.0174 29.5632 82.6413 30.4019C84.5729 31.3804 86.6329 31.1095 88.8844 30.4225C90.6632 29.8729 93.528 32.3822 93.4627 34.4651C93.3222 37.5199 94.0955 39.8834 94.5658 42.6624C94.978 45.1636 95.4749 47.8039 96.0252 50.1666C97.0675 54.6141 97.9451 59.3388 99.4868 63.5102C101.484 68.7941 103.869 73.8016 106.116 78.9475C108.988 85.4841 111.945 92.1601 114.817 98.6967C115.189 99.67 115.447 100.643 115.68 101.755C115.797 102.311 117.606 106.321 118.911 105.909Z" fill="black"/>
<path d="M89.2889 50.8761C90.037 48.224 89.018 46.4044 87.4588 45.0023C85.9869 43.7402 84.04 43.7339 82.1362 45.2648C80.3741 46.6563 78.9725 46.7916 77.4733 45.669C76.3775 44.8272 75.0578 44.5436 73.4923 45.5166C72.2977 46.3511 71.7029 47.0477 71.8878 48.4455C72.1977 50.9614 71.9623 53.3357 69.9218 55.5647C69.638 55.8432 69.5561 56.2622 69.4741 56.681C68.5021 59.8913 70.5456 64.0893 73.1249 64.3769C74.4718 64.5209 75.7264 63.9661 76.8832 62.1535C79.5353 57.9705 80.1898 57.5535 84.3841 56.0299C84.7551 55.8914 85.126 55.7529 85.6114 55.6147C87.9513 54.7839 88.5459 54.0872 89.2889 50.8761Z" fill="black"/>
<path d="M68.2765 35.5562C68.2548 36.2504 68.0998 37.6385 68.1943 38.8884C68.2936 40.6939 69.0831 41.8073 70.5044 41.9508C72.0371 42.0948 73.6182 41.4058 74.7174 39.7432C75.0468 39.1889 75.2332 38.2175 75.0055 37.6614C74.4291 35.4378 73.3274 33.629 71.5355 32.5123C70.0512 31.5354 68.8624 32.5035 68.2765 35.5562Z" fill="black"/>
<path d="M62.7015 38.5205C62.0607 38.9355 61.3345 39.2111 60.7791 39.7654C60.0847 40.4583 60.3456 41.4323 60.5479 42.1281C61.1501 43.6594 61.7253 45.3296 62.4663 46.7223C63.2074 48.115 63.992 48.1176 65.2955 46.5926C67.7368 43.8201 67.7973 41.1788 65.3749 39.7806C64.6974 39.2222 63.7421 38.9411 62.7015 38.5205Z" fill="black"/>
<path d="M84.6481 40.1892C84.7806 39.4961 84.9709 39.0805 84.9661 38.5256C84.8892 36.0284 84.1521 34.0837 82.9187 32.415C81.9117 31.3018 80.9722 31.5761 80.2951 33.3772C79.8879 34.3469 79.5651 35.4556 79.2421 36.5643C78.7072 38.7821 79.0758 39.7544 80.685 40.0372C81.851 40.3186 83.0966 40.1839 84.6481 40.1892Z" fill="black"/>
<path d="M64.8468 54.138C65.0855 52.3266 65.1837 50.6539 63.5624 50.2305C62.9085 50.0889 62.4494 49.5299 61.8227 49.249C60.9688 48.9674 60.2336 49.2438 59.4765 50.2173C58.8329 51.1911 58.7567 52.1667 59.1616 53.0044C59.8528 54.122 60.6576 55.2398 61.6029 56.2187C62.8887 57.1988 64.4404 56.2279 64.8468 54.138Z" fill="black"/>
<path d="M89.543 77.1129C89.9003 78.7884 90.7571 79.0702 92.0915 78.6559C94.5055 77.966 96.1661 75.8785 96.7098 73.0898C96.9544 71.8349 96.6077 71.2756 95.5877 71.8304C94.3127 72.524 92.9834 73.4963 91.7408 74.6085C90.9215 75.3036 90.2757 76.2782 89.543 77.1129Z" fill="black"/>
<path d="M93.0762 61.4852C91.7655 59.6314 91.0727 59.487 89.5205 60.6205C89.1025 60.9038 88.6557 61.3292 88.2089 61.7548C86.8686 63.0313 85.8031 64.7355 83.9707 64.8722C85.0354 66.1561 85.8772 66.1587 87.2175 64.8822C87.8417 64.1727 88.3459 63.4628 89.0618 62.8957C89.9553 62.0447 90.8202 61.336 91.908 61.9085C91.908 61.9085 92.3261 61.6252 93.0762 61.4852Z" fill="black"/>
<path d="M79.4739 70.1982C78.5433 72.6983 79.0552 73.5343 81.1534 73.124C80.9193 72.0108 80.8509 70.6199 79.4739 70.1982Z" fill="black"/>
<path d="M103.632 79.7343C105.68 80.3524 107.698 81.123 110.002 81.7421C109.131 80.3649 106.761 79.4404 103.632 79.7343Z" fill="black"/>
<path d="M108.192 78.1706C106.737 76.4611 104.711 76.2984 102.432 76.7544C104.395 77.2266 106.229 77.6984 108.192 78.1706Z" fill="black"/>
</svg>
