<svg width="120" height="86" viewBox="0 0 120 86" fill="none" xmlns="http://www.w3.org/2000/svg">
<path d="M14.0411 20.8318C14.7892 14.1251 18.3985 7.33975 24.5802 4.66233C26.7851 3.70424 29.2 3.3105 31.5887 2.96926C53.7299 -0.246259 76.2779 -0.574373 98.4978 2.01117C100.493 2.24741 102.593 2.53615 104.207 3.74361C107.383 6.10604 107.37 10.7784 107.055 14.7289C106.373 23.1942 105.664 31.804 102.54 39.7181C101.123 43.3273 99.1934 47.3435 100.808 50.874C101.49 52.357 102.711 53.4989 103.839 54.667C107.475 58.4337 110.428 62.8698 112.502 67.6865C113.119 69.1171 113.67 70.6264 113.657 72.1883C113.644 74.8001 112.055 77.2019 110.074 78.8949C105.703 82.6092 99.6659 83.4623 93.9567 84.0398C67.7338 86.7172 41.2353 86.6516 15.0255 83.8429C11.3112 83.4492 7.08512 82.6617 5.19518 79.4462C3.02962 75.7582 5.2083 71.0858 7.64947 67.5815C11.285 62.358 19.396 56.9375 18.5822 49.929C17.4404 40.0593 12.8862 31.0165 14.0411 20.8318Z" fill="white"/>
<path d="M17.0732 13.3382L19.2388 33.4975L23.9768 47.4227L26.1817 50.1657L63.9149 51.9376L91.634 50.1001L94.587 40.6767L98.0519 18.798L96.91 10.2933L91.5552 9.3877H47.1285L28.3866 10.2933H21.1287L17.0732 13.3382Z" fill="#F15748"/>
<path d="M18.4516 63.6579C19.2653 62.3192 20.0397 60.9543 20.7878 59.5762C21.1159 58.9856 21.444 58.3293 21.339 57.66C20.9453 55.2451 18.4516 57.2138 17.8216 58.2375C13.7399 64.8654 5.74701 68.5928 2.51837 75.6669C2.20338 76.3625 1.95401 77.2287 2.41337 77.8325C3.04335 78.6593 4.35581 78.2656 5.24828 77.7537C10.6425 74.6563 14.1992 69.879 17.7035 64.8916C21.339 59.7074 25.3551 57.8175 31.7337 58.0668C50.8824 58.7887 70.0181 59.5106 89.1668 60.2455C89.4556 60.2587 89.7443 60.2718 90.0068 60.3636C91.1486 60.7968 91.0436 62.6342 90.0855 63.3954C89.1274 64.1567 87.7887 64.1698 86.555 64.1567C67.065 64.1304 47.9294 70.9814 28.4657 69.9183C26.5888 69.8134 24.6464 69.6165 22.9927 68.724C21.339 67.8315 20.0134 66.0597 20.184 64.1829" fill="#BCBCBB"/>
<path d="M100.834 51.5698C104.877 52.6329 106.99 55.4415 109.273 58.014C112.961 62.1744 116.636 66.3612 118.986 71.4798C120.508 74.8003 120.18 75.3515 117.24 77.3202C111.518 81.1526 105.06 82.1107 98.4325 82.7669C87.3553 83.8562 76.2519 84.0137 65.1485 84.4731C56.8669 84.8143 48.5984 85.1293 40.33 84.6306C33.6364 84.2237 26.9691 83.7906 20.2494 83.9744C15.2227 84.1056 10.2091 83.5019 5.37922 81.9532C4.98548 81.8219 4.5655 81.7301 4.17176 81.5857C0.64125 80.2601 -0.133101 78.6589 1.80934 75.3515C3.48928 72.4904 5.56297 69.8261 7.63665 67.2143C10.8915 63.1194 14.2908 59.1296 17.5063 55.2447C15.5508 48.538 13.9496 41.9495 12.9259 35.2297C12.7552 34.0879 12.5059 32.9591 12.3615 31.8173C11.7971 27.145 10.9965 22.4857 10.7734 17.7871C10.6028 13.9023 11.5478 10.1224 13.8446 6.77562C14.8289 5.34504 16.0495 4.62319 17.677 4.38694C24.9348 3.37635 32.1665 2.18202 39.5425 2.69387C40.4612 2.7595 41.4193 2.602 42.338 2.43138C45.5535 1.84078 48.7297 1.69641 52.024 2.0114C55.1214 2.31326 58.2844 1.8014 61.4212 1.68328C66.5529 1.49954 71.6714 1.40767 76.8032 1.1583C81.8167 0.908932 86.8566 0.685813 91.8439 0.108331C95.3219 -0.298531 98.5375 0.50207 101.714 1.48641C103.63 2.07702 104.837 3.67822 104.759 5.81752C104.522 12.1042 104.43 18.3909 103.866 24.6513C103.065 33.5497 101.897 42.3695 100.834 51.5698ZM21.6406 54.8509C24.2786 54.8509 26.9954 54.7853 29.6991 54.8641C37.1276 55.1003 44.5298 56.3734 51.9715 55.1922C52.4833 55.1134 53.0214 55.1659 53.5464 55.1528C57.3132 55.0609 61.0799 54.9691 64.8467 54.8641C73.1283 54.6278 81.4099 54.4178 89.6784 54.1291C91.4371 54.0635 93.2351 53.8928 94.9413 53.4466C98.5243 52.5279 99.1018 51.7273 99.5087 48.0393C100.349 40.3352 101.32 32.631 101.989 24.9138C102.501 19.0733 102.711 13.2067 102.855 7.33997C102.934 4.45257 101.753 2.99574 98.9968 2.45763C96.8706 2.05077 94.6395 1.93265 92.4739 2.0114C88.6022 2.15577 84.7435 2.77262 80.8718 2.77262C69.7553 2.77262 58.6781 3.73071 47.5616 3.70446C42.9024 3.69134 38.23 4.33444 33.5314 4.36069C29.2791 4.37382 25.0267 5.45003 20.7612 5.93564C19.1731 6.11939 18.1101 6.89374 16.9813 7.91746C14.3039 10.3324 13.6346 13.351 13.8839 16.7503C14.1989 21.0289 14.3564 25.3338 14.8552 29.5993C15.3408 33.7466 15.8658 37.9465 16.9551 41.9757C18.0969 46.2281 19.9344 50.2705 21.6406 54.8509ZM71.0152 81.4544C76.7638 81.2707 82.3155 81.3101 87.8278 80.8376C93.9832 80.3126 100.086 79.2626 106.215 78.567C108.342 78.3308 110.297 77.8058 112.148 76.7427C113.394 76.034 114.576 75.2072 116.243 75.6009C117.201 75.824 117.804 74.8922 117.529 73.9472C117.161 72.6479 116.807 71.2304 116.019 70.1936C112.41 65.4425 108.696 60.757 104.929 56.1371C104.22 55.2709 103.131 54.7066 102.16 54.0766C101.136 53.4072 100.047 53.2235 98.9443 53.9716C95.5319 56.2946 91.5946 56.2159 87.7228 56.3209C77.2494 56.6359 66.7629 56.8984 56.2894 57.1609C50.4228 57.3052 44.5692 57.5021 38.7025 57.5415C36.0907 57.5546 33.4658 57.2134 30.854 57.069C27.2448 56.8721 23.6224 56.7015 20.0656 56.5178C18.7663 58.0927 17.5457 59.6677 16.2464 61.177C13.0965 64.8256 9.88095 68.4217 6.73105 72.0835C5.81233 73.1597 4.86736 74.2753 4.88049 76.1259C8.58162 75.1022 11.7053 72.871 15.4195 72.6872C11.4559 74.1572 7.58415 75.719 3.94864 78.1602C5.9567 79.8664 5.96983 79.8926 7.46603 79.302C9.18535 78.6327 10.8915 77.9239 12.5977 77.2283C12.6765 77.399 12.7552 77.5696 12.834 77.7271C11.5609 78.4227 10.2878 79.1183 8.77849 79.9451C13.4377 81.5201 45.1729 82.0582 45.4092 80.6801C44.7529 80.2207 44.0836 79.7614 43.4011 79.2758C43.8867 76.3096 44.4117 73.5272 48.2572 72.3197C40.7106 71.8604 33.7152 71.4667 26.7198 70.981C24.213 70.8104 21.7062 70.5479 19.2257 70.1542C17.1913 69.8261 16.6795 68.8417 17.257 66.7681C17.4801 65.9675 17.7819 65.18 18.2019 64.4581C19.0419 63.0144 19.9081 61.5838 20.9056 60.2451C21.7193 59.1427 22.7037 58.4471 24.3574 58.6439C27.5729 59.0377 30.8278 59.1295 34.0827 59.2477C38.9913 59.4445 43.913 59.6152 48.8347 59.6939C53.0214 59.7595 57.2213 59.6152 61.408 59.6283C65.5816 59.6545 69.834 59.3264 73.9289 59.9433C80.7012 60.967 87.2897 60.1401 93.9176 59.1558C95.0463 58.9852 96.2013 58.9196 97.3431 58.8146C98.7081 58.6833 99.4168 59.3527 99.8893 60.6126C100.729 62.8701 101.714 65.0619 102.619 67.293C103.275 68.8942 102.921 69.6292 101.202 69.9573C99.6662 70.2461 98.0781 70.4561 96.5163 70.4954C89.954 70.666 83.4048 70.6923 76.8425 70.9023C70.5559 71.0992 64.2692 71.4273 57.9956 71.7554C56.4076 71.8341 54.8326 72.1491 53.2445 72.346C55.8957 72.8972 58.5075 72.9629 61.093 73.1991C63.3636 73.396 65.621 73.8684 67.8916 74.0653C70.1753 74.2622 71.304 75.2203 71.3696 77.5171C71.3958 78.6589 71.1727 79.8008 71.0152 81.4544ZM75.2938 68.7367C74.5326 66.5056 73.3908 65.6787 71.4221 65.7968C69.6503 65.9018 67.8784 65.81 66.0935 65.7575C60.0431 65.6131 53.9795 65.4556 47.9291 65.2981C46.6823 65.285 45.9342 65.8887 45.7242 67.083C45.5667 67.9624 45.5667 68.8811 45.4879 70.0492C55.5676 70.5348 65.2535 68.8549 75.2938 68.7367ZM22.2574 63.9331C22.323 63.6182 22.4018 63.29 22.4674 62.9751C23.583 62.9751 24.6855 62.9751 25.8011 62.9751C27.061 62.9751 28.321 62.9619 28.3341 60.8882C26.431 60.8489 24.3705 59.6939 22.9137 61.2951C21.2468 63.1194 19.0288 64.8519 19.2781 68.0411C23.3336 69.0649 27.3104 69.4455 31.3659 68.8811C31.6677 67.6474 31.9302 66.5712 32.2452 65.3244C30.8146 64.7731 29.4497 64.445 28.216 65.1406C27.0479 65.7968 26.0767 66.8205 25.0267 67.6868C24.8561 67.5424 24.6986 67.4112 24.528 67.2668C24.7773 66.4924 25.0267 65.705 25.263 64.9831C24.0949 64.5762 23.1761 64.2481 22.2574 63.9331ZM32.9671 69.0911C36.642 69.3536 40.0412 69.603 43.6374 69.8655C43.8474 68.238 44.018 66.9649 44.2017 65.5081C42.8761 65.4162 41.9574 65.3637 41.0387 65.2981C40.0937 65.2325 39.1488 65.2062 38.2169 65.0881C34.4764 64.6419 34.1877 64.8387 32.9671 69.0911ZM100.309 67.7655C99.758 66.5056 99.3643 65.6 98.9706 64.7206C95.7682 65.0094 92.8676 65.2587 89.954 65.5343C89.6653 65.5606 89.4159 65.7968 88.8909 66.0725C89.1403 66.8862 89.3896 67.6999 89.6653 68.5924C93.1958 68.2774 96.5425 69.1436 100.309 67.7655ZM98.0125 63.5132C98.2356 61.5707 97.6844 60.757 96.3719 60.9145C93.3401 61.282 90.3215 61.7938 87.0928 62.2794C87.4472 62.9882 87.5653 63.4738 87.6966 63.4738C91.0696 63.5263 94.4688 63.5132 98.0125 63.5132ZM77.0788 66.6499C76.9213 67.8836 77.2494 68.5267 78.3256 68.5399C81.2261 68.5661 84.1267 68.553 87.1191 68.553C86.4629 66.125 86.4629 66.1381 85.0979 66.1774C83.3261 66.2299 81.5543 66.2431 79.7824 66.3349C78.8768 66.3743 77.9713 66.5318 77.0788 66.6499ZM74.3095 62.5813C74.5982 63.08 74.7426 63.7494 75.0838 63.8544C78.3125 64.8519 81.6068 64.2613 84.9273 64.5369C84.8223 62.87 83.9692 62.5944 82.9455 62.5944C80.1368 62.5813 77.3413 62.5813 74.3095 62.5813ZM55.9613 62.4632C56.0138 62.8044 56.0663 63.1325 56.1188 63.4738C59.0981 63.4738 62.0643 63.4738 65.0435 63.4738C64.4923 62.4632 63.6655 61.5313 62.9174 61.5838C60.5943 61.7545 58.0481 60.9801 55.9613 62.4632ZM45.4223 62.4501C41.4849 60.7045 38.7419 61.072 37.1276 63.5394C39.8706 62.9488 42.5611 64.6287 45.4223 62.4501ZM46.5904 62.5157C49.924 63.815 51.8796 63.7494 54.3076 62.2532C51.6434 61.3476 49.4515 61.492 46.5904 62.5157ZM34.8701 61.3082C31.4315 60.7045 31.379 60.7176 30.3028 62.9619C33.2164 63.7625 33.2164 63.7625 34.8701 61.3082ZM71.5008 63.8413C70.5952 61.597 69.8471 61.3607 67.196 62.4501C68.1803 64.5238 68.3378 64.5762 71.5008 63.8413ZM58.6912 79.0658C60.3056 79.6695 60.7912 78.8427 60.8043 77.399C60.0956 77.9502 59.3869 78.5014 58.6912 79.0658ZM67.3928 77.5827C67.5897 77.7533 67.7866 77.9108 67.9835 78.0814C68.3509 77.7402 68.7184 77.4121 69.0859 77.0708C68.8103 76.8346 68.5478 76.5984 68.2722 76.3621C67.9703 76.7559 67.6816 77.1758 67.3928 77.5827Z" fill="black"/>
<path d="M97.4475 15.3589C95.2294 16.2908 93.3657 17.0782 91.502 17.8657C91.4102 17.6426 91.3183 17.4195 91.2264 17.2095C93.1689 16.3695 95.1244 15.5295 97.185 14.6371C97.2769 12.4978 96.2794 10.9491 94.4419 10.1878C93.0245 9.59723 91.4102 9.24287 89.8877 9.22974C82.4461 9.15099 74.9913 9.09849 67.5497 9.29536C62.2211 9.43973 56.9057 10.1222 51.5771 10.3716C48.9784 10.4897 46.3404 9.97784 43.7417 10.0697C37.56 10.2797 31.4046 10.6997 25.2229 11.0147C24.4486 11.0541 23.6742 11.0147 22.1387 11.0147C23.1099 10.0828 23.4642 9.42661 23.8842 9.37411C32.3102 8.36352 40.7493 7.51042 49.2409 8.48164C50.2777 8.59976 51.3408 8.57351 52.3777 8.48164C64.6098 7.35293 76.8681 7.2348 89.1396 7.22168C89.7696 7.22168 90.3864 7.3398 91.0164 7.36605C97.7625 7.61542 99.1274 10.6734 99.8493 16.8814C100.007 18.2201 99.8624 19.6113 99.6786 20.9631C98.7337 27.8141 97.7887 34.6652 96.6862 41.4899C96.3581 43.5374 95.5575 45.5061 94.9144 47.4879C94.4026 49.0366 93.2082 49.8503 91.6464 50.0865C88.9559 50.5065 86.2653 51.0578 83.5485 51.189C76.33 51.5565 69.1115 51.8715 61.8799 51.9502C53.2833 52.0421 44.6867 51.8977 36.077 51.7927C33.452 51.7665 30.8402 51.5302 28.2153 51.4121C25.4592 51.2809 23.6349 50.1259 22.4011 47.4616C19.225 40.5844 17.5975 33.4052 17.4007 25.8586C17.2826 21.6718 17.1382 17.4982 17.0726 13.3115C17.0594 12.734 17.4794 12.1565 17.8732 11.0934C19.0806 12.7996 18.8181 14.1121 18.8313 15.4377C18.9231 24.9924 19.1988 34.547 23.0443 43.5243C25.2623 48.6953 25.2361 49.5878 31.8115 49.5747C37.0482 49.5747 42.2849 50.0078 47.5347 50.0997C51.0915 50.1522 54.6614 49.9159 58.2181 49.8503C64.1898 49.7322 70.1615 49.8109 76.12 49.5222C80.9236 49.2859 85.701 48.6035 90.4914 48.131C92.1714 47.9604 93.1689 47.0548 93.5232 45.4273C94.3894 41.4375 95.4 37.4738 96.0694 33.4577C96.7125 29.5466 97.08 25.5698 97.4212 21.6062C97.5918 19.7163 97.4475 17.8001 97.4475 15.3589Z" fill="black"/>
<path d="M45.8681 42.5012C48.1124 38.905 50.4224 35.6633 52.2204 32.159C53.8348 29.0222 55.0685 25.6492 56.1053 22.2762C56.8797 19.7432 55.5016 18.6407 53.0342 19.52C50.3042 20.5044 48.4012 22.3156 47.7581 25.2555C47.5743 26.1086 47.3381 26.9486 46.9706 28.4185C43.8338 25.0717 41.9701 21.2919 37.8228 19.4807C37.8228 20.6094 37.6259 21.3837 37.8621 22.0006C38.9252 24.888 39.6077 27.9329 41.6814 30.3872C42.9545 31.8965 43.9651 33.6421 44.9888 35.3352C45.225 35.7289 45.0282 36.3983 45.0282 37.4613C42.797 35.4533 41.8783 33.2221 40.6971 31.214C39.529 29.2454 38.3871 27.2111 37.5865 25.0717C36.9041 23.2474 36.6547 21.2394 36.3659 19.2838C36.156 17.8926 37.114 17.2495 38.3084 17.6301C39.4633 17.9976 40.5658 18.6932 41.5108 19.4807C43.007 20.7406 44.3457 22.1975 45.5531 23.3787C47.535 21.6069 49.2674 19.9794 51.1048 18.4832C51.7217 17.9714 52.5748 17.6564 53.3754 17.4726C56.7222 16.672 58.4677 18.3257 57.8246 21.6987C56.919 26.3842 55.0291 30.6628 52.5092 34.7052C51.0655 37.0151 49.6611 39.3513 48.3224 41.7137C47.8106 42.5537 47.325 43.013 45.8681 42.5012Z" fill="white"/>
<path d="M27.5202 39.653C27.0609 37.9731 26.2603 36.2931 26.2209 34.5869C26.0897 29.2977 26.2472 24.0085 26.2996 18.5225C28.3865 18.8112 28.0452 20.163 28.0715 21.1474C28.1371 24.2973 28.0321 27.4472 28.1502 30.5839C28.229 32.6576 28.6358 34.7182 28.7933 36.7919C28.8589 37.7106 28.6621 38.6556 28.5965 39.6005C28.2421 39.6268 27.8746 39.6399 27.5202 39.653Z" fill="white"/>
<path d="M94.9277 19.231C94.4552 19.4672 93.9696 19.7166 93.4971 19.9528C93.4315 19.8084 93.3527 19.6641 93.2871 19.5197C93.7596 19.2835 94.2452 19.0341 94.7177 18.7979C94.7833 18.9422 94.8621 19.0866 94.9277 19.231Z" fill="black"/>
<path d="M74.7687 18.7582C74.9656 18.7713 75.0968 18.7582 75.2281 18.7713C75.5562 19.5588 75.7662 20.6744 75.7137 21.5931C76.488 21.9344 76.9212 22.4725 77.2624 22.9581C77.6955 21.4225 77.8267 20.2019 77.2624 18.0495C76.383 17.8001 75.6874 17.052 75.4774 16.1202C75.3068 15.3721 75.4512 14.6371 75.8712 14.0465C74.9131 13.679 73.4956 13.9152 72.8132 15.3589C72.5113 15.9889 72.5507 16.9208 72.8263 17.4326C73.22 18.1938 73.955 18.6795 74.7687 18.7582ZM75.8187 16.0283C76.0024 16.842 76.593 17.472 77.3543 17.6951L77.5511 17.7476L77.6036 17.9445C78.2205 20.0575 78.0367 21.8556 77.538 23.3518C77.8661 23.8374 78.1549 24.2443 78.6011 24.4411C79.1523 23.6012 80.0448 20.9238 79.4411 17.367C80.1235 16.7895 80.5829 15.7395 80.176 14.7158C79.4673 12.9571 77.2624 12.734 76.1599 14.2434C75.8318 14.7027 75.6743 15.3983 75.8187 16.0283ZM79.8217 17.5114C80.3467 20.8975 79.5592 23.6274 78.8898 24.6511L78.8242 24.7561C78.8505 24.9005 78.9555 25.5305 79.0342 26.2523C81.3441 22.5643 80.7666 18.732 80.7666 18.732C81.9347 18.8763 82.9847 17.9576 83.1291 16.8683C83.3391 15.3064 81.9479 14.0202 80.4254 14.4008C80.4517 14.4665 80.491 14.5321 80.5173 14.5977C80.9635 15.7264 80.491 16.8551 79.8217 17.5114ZM72.7475 18.7188C73.8762 21.685 73.2069 24.4674 71.6976 26.8561C71.9601 26.9348 72.3275 26.9217 72.695 26.9086C72.9313 26.8954 73.1675 26.8954 73.3906 26.9086L73.5613 26.7248C74.0075 26.2655 74.5981 25.2286 74.9 24.1262L74.9787 23.8374C74.8868 23.4699 74.9 23.0893 74.9525 22.7612C75.0575 22.0393 74.795 21.5669 74.5193 21.3831L74.5587 21.2912C74.8606 21.3175 75.1231 21.3831 75.3593 21.4487C75.3856 20.7269 75.2412 19.8344 74.9787 19.1257C74.9131 19.1257 74.8343 19.1257 74.7556 19.1257H74.7293C73.7844 19.0338 72.9575 18.4563 72.4982 17.6032C72.1832 16.9995 72.1438 16.0283 72.4194 15.3458C71.2776 15.2539 70.4507 16.1595 70.5032 17.1964C70.5426 18.2332 71.5926 19.0732 72.7475 18.7188ZM72.9313 21.3175C72.6425 21.16 72.3275 21.055 71.9469 21.0156C72.3669 21.4225 72.0913 22.3543 72.4325 23.0237C72.5507 23.0893 72.6688 23.1812 72.7869 23.2731C72.9181 22.6168 72.9706 21.9737 72.9313 21.3175ZM74.8868 27.3154L75.0575 27.1973C75.5299 26.8692 76.068 26.1867 76.2124 25.5567C76.0156 25.2155 75.6218 24.5855 75.2412 24.218C74.9525 25.2942 74.3487 26.423 73.8106 26.9742C74.2044 27.0792 74.5587 27.1842 74.8868 27.3154ZM72.3013 29.1135C72.2225 29.1135 72.1569 29.0479 72.1569 28.9691C72.1569 28.9166 72.1832 28.8773 72.2225 28.851C72.1963 28.8379 72.1569 28.8379 72.1175 28.8379C71.9338 28.8379 71.7763 28.9954 71.7763 29.1791C71.7763 29.3629 71.9338 29.5204 72.1175 29.5204C72.3013 29.5204 72.4588 29.3629 72.4588 29.1791C72.4588 29.1266 72.4457 29.0741 72.4325 29.0347C72.4063 29.0741 72.3538 29.1135 72.3013 29.1135ZM82.2497 42.9205C78.7717 43.5505 76.0287 41.8575 74.7556 39.7706L74.7818 39.7444C76.278 41.9231 79.6773 43.078 82.2497 42.4349C82.2366 41.2537 87.0533 32.4865 79.0079 28.2735C78.9686 28.5623 78.8636 28.851 78.6273 28.9823C79.5854 29.4547 80.701 30.5441 81.0816 33.0377C80.6223 30.3472 78.6667 29.2185 77.6692 28.9691C79.5198 29.166 78.4567 24.7955 78.4567 24.7955C77.1574 24.2312 76.9868 22.2362 75.1756 21.79C75.5299 22.2493 75.11 23.1418 75.3462 23.8505C75.9631 24.3362 76.593 25.5174 76.593 25.5174C76.488 26.2655 75.8712 27.0923 75.2674 27.5123C76.1862 27.9585 76.8555 28.4835 77.2493 28.8773C76.1205 28.746 75.3856 29.6516 75.3856 29.6516C75.3856 29.6516 75.7662 28.8248 76.5668 28.6804C75.6218 28.0504 74.9393 27.5779 73.7187 27.3154C73.0625 27.1579 71.8157 27.486 71.2382 27.0267L71.2251 27.0136C70.5951 27.9848 67.1827 30.2685 62.7204 30.531C61.9198 30.5834 60.5811 30.531 60.5811 30.531C60.5811 30.6622 60.6335 30.8984 60.7385 31.0428C60.9223 31.1478 61.526 31.3709 61.9985 30.7803C61.9329 31.0166 61.5785 31.489 60.9092 31.384C61.946 33.4315 67.9702 35.1508 71.0938 32.6834C70.9363 33.2871 69.7026 33.9171 68.9414 34.0746C69.3351 34.114 69.8995 34.3108 70.2932 34.5471C70.8707 34.8883 71.1463 34.6389 71.4219 34.5864C71.4219 34.2977 71.6451 33.6415 72.4325 33.6808C73.3381 33.7333 74.1912 34.8883 75.8318 34.9146C77.5249 34.9539 78.7586 33.5102 78.7717 31.1741C79.0998 34.1533 77.4724 35.4789 76.0287 35.4133C76.278 36.7782 75.5431 38.6157 74.5456 39.2325C73.8238 39.2194 73.1544 39.495 72.7607 40.1906C73.8369 42.4087 77.7742 45.3617 82.6172 44.1543C82.6435 43.708 82.4728 43.0649 82.2497 42.9205ZM73.7975 29.6779C73.745 29.6254 73.6794 29.5597 73.6269 29.5072C73.5744 29.4547 73.5088 29.3891 73.4563 29.3366C73.4431 29.3235 73.43 29.3104 73.4169 29.2972C73.4038 29.2841 73.3906 29.271 73.3775 29.2579C73.3513 29.2316 73.3119 29.2054 73.2856 29.1791C73.1675 29.0741 73.0363 28.9954 72.905 28.9166C72.8394 28.8772 72.7869 28.851 72.7213 28.8248C72.7738 28.9297 72.8132 29.0347 72.8132 29.166C72.8132 29.5335 72.5113 29.8353 72.1438 29.8353C71.7763 29.8353 71.4744 29.5335 71.4744 29.166C71.4744 28.9429 71.5794 28.746 71.7501 28.6279C71.6844 28.6279 71.6319 28.6279 71.5663 28.6279C71.5401 28.6279 71.5269 28.6279 71.5007 28.6279H71.4351C71.3957 28.6279 71.3563 28.6279 71.3169 28.6279C71.2382 28.641 71.1595 28.641 71.0807 28.6541C71.0413 28.6541 71.002 28.6673 70.9626 28.6673C70.9232 28.6673 70.8838 28.6804 70.8445 28.6804C70.8051 28.6804 70.7657 28.6935 70.7263 28.6935C70.687 28.6935 70.6476 28.7066 70.6082 28.7066C70.7526 28.6279 70.9101 28.5623 71.0676 28.5098C71.107 28.4966 71.1463 28.4835 71.1857 28.4704C71.2251 28.4573 71.2645 28.4441 71.3038 28.431C71.3432 28.4179 71.3826 28.4179 71.4219 28.4048L71.4876 28.3916C71.5138 28.3916 71.5269 28.3916 71.5532 28.3785L71.6188 28.3654H71.6451H71.6713L71.8026 28.3523C71.8419 28.3523 71.8944 28.3523 71.9338 28.3523C71.9601 28.3523 71.9732 28.3523 71.9994 28.3523H72.0651C72.2357 28.3654 72.4063 28.3916 72.5769 28.4441C72.7475 28.4966 72.905 28.5754 73.0494 28.6673C73.0888 28.6935 73.115 28.7198 73.1544 28.746C73.1675 28.7591 73.1938 28.7723 73.2069 28.7854C73.22 28.7985 73.2463 28.8116 73.2594 28.8248C73.325 28.8772 73.3906 28.9429 73.4431 28.9954C73.4694 29.0216 73.4956 29.061 73.5219 29.0872C73.5481 29.1135 73.5744 29.1529 73.6006 29.1922C73.6531 29.2579 73.7056 29.3235 73.745 29.4022C73.7844 29.4679 73.8369 29.5466 73.8762 29.6122C73.9156 29.691 73.955 29.7566 73.9944 29.8353C73.9025 29.796 73.85 29.7435 73.7975 29.6779Z" fill="white"/>
</svg>
