<svg width="123" height="81" viewBox="0 0 123 81" fill="none" xmlns="http://www.w3.org/2000/svg">
<path d="M36.7328 9.50039C44.0328 10.8004 51.5328 12.1004 58.9328 11.7004C64.1328 11.5004 69.2328 10.5004 74.3328 9.50039C89.2328 6.50039 104.233 3.50039 119.133 0.400391C116.233 22.7004 124.733 46.4004 116.733 67.4004C97.3328 72.2004 77.8328 76.9004 57.9328 77.7004C38.0328 78.5004 17.4328 75.0004 0.632812 64.3004C4.73281 50.7004 8.83281 37.1004 12.9328 23.5004C14.1328 19.5004 15.2328 9.00039 19.1328 7.00039C22.8328 5.10039 32.7328 8.80039 36.7328 9.50039Z" fill="white"/>
<path d="M61.2334 69.9998C61.4334 70.1998 61.6334 70.4998 61.6334 70.7998C61.6334 71.4998 60.7334 71.7998 60.0334 71.8998C57.4334 72.3998 54.9334 73.5998 52.9334 75.1998C52.2334 75.6998 51.3334 76.2998 50.6334 75.7998C50.2334 75.5998 50.2334 75.0998 50.2334 74.4998C50.2334 72.4998 50.5334 70.3998 51.1334 68.4998C51.6334 66.8998 52.1334 64.2998 53.3334 63.0998C54.8334 61.4998 56.1334 64.0998 57.0334 65.1998C58.4334 66.7998 59.8334 68.3998 61.2334 69.9998Z" fill="#BCBCBB"/>
<path d="M47.7336 40.0001C47.7336 41.1001 47.6336 42.3001 47.9336 43.4001C48.2336 44.5001 48.8336 45.6001 49.8336 46.1001C50.6336 46.5001 51.5336 46.5001 52.3336 46.2001C52.5336 46.1001 52.7336 46.0001 52.8336 45.8001C52.9336 45.5001 52.9336 45.2001 52.8336 44.9001C51.8336 41.3001 51.5336 37.6001 51.3336 34.0001C51.2336 32.4001 51.0336 24.4001 48.4336 29.1001C46.9336 31.5001 47.7336 37.2001 47.7336 40.0001Z" fill="#BCBCBB"/>
<path d="M76.9328 58.5004C77.5328 58.4004 78.1328 58.2004 78.7328 58.1004C79.4328 57.9004 80.2328 57.8004 80.8328 57.4004C81.5328 57.0004 82.0328 56.5004 82.2328 55.7004C80.8328 55.1004 79.3328 54.7004 77.8328 54.4004C77.3328 54.7004 77.1328 55.2004 76.8328 55.6004C76.1328 56.8004 75.3328 58.0004 74.6328 59.2004" fill="#BCBCBB"/>
<path d="M35.2333 23.2999C35.1333 23.7999 35.1333 24.4999 35.5333 24.7999C35.7333 24.9999 36.1333 24.9999 36.4333 24.9999C38.3333 24.9999 39.9333 23.8999 41.4333 22.8999C45.3333 20.1999 49.3333 17.1999 51.7333 13.0999C51.9333 12.7999 52.1333 12.3999 52.0333 12.0999C52.0333 11.7999 51.8333 11.5999 51.5333 11.2999C49.5333 9.2999 46.1333 9.5999 43.5333 9.4999C41.6333 9.3999 39.5333 9.1999 38.1333 10.5999C35.5333 13.2999 35.8333 19.8999 35.2333 23.2999Z" fill="#BCBCBB"/>
<path d="M119.533 33.0004C119.633 43.6004 118.333 54.2004 115.433 64.4004C115.333 64.6004 115.333 64.9004 115.133 65.1004C114.733 65.6004 114.133 65.8004 113.533 65.9004C107.533 67.0004 101.733 69.0004 96.333 71.9004C99.633 70.3004 101.433 66.7004 103.133 63.4004C108.733 52.0004 114.233 40.4004 119.633 28.9004" fill="#BCBCBB"/>
<path d="M5.93316 54.9998C4.73316 57.3998 3.43316 59.9998 3.93316 62.5998C4.53316 65.6998 7.53316 67.5998 10.2332 69.2998C12.1332 70.3998 14.0332 71.5998 15.9332 72.7998C16.4332 73.0998 17.0332 73.4998 17.7332 73.3998C19.2332 73.2998 19.6332 71.3998 19.7332 69.8998C20.0332 59.4998 19.2332 49.1998 17.4332 38.9998C17.1332 37.4998 16.7332 32.9998 14.9332 32.7998C12.6332 32.4998 12.0332 36.5998 11.7332 37.8998C10.3332 43.7998 8.63316 49.4998 5.93316 54.9998Z" fill="#BCBCBB"/>
<path d="M52.8333 55.4L62.9333 59.5L72.4333 60L83.1333 57.7L88.7333 54.5C88.7333 54.5 85.8333 60.3 85.5333 60.6C85.2333 60.9 76.8333 66.4 76.8333 66.4L64.2333 73C64.2333 73 58.9333 69.3 58.5333 67.9C58.1333 66.5 52.0333 60.3 52.2333 58.4C52.4333 56.4 52.4333 56.4 52.4333 56.4L52.8333 55.4Z" fill="#F15748"/>
<path d="M121.933 0C122.133 0.3 122.233 0.4 122.233 0.5C120.733 7.7 120.433 14.9 121.433 22.2C121.733 24.1 121.133 26.2 120.933 28.2C120.333 36.3 119.933 44.4 119.233 52.4C118.933 55.8 118.233 59.3 117.733 62.7C117.733 62.9 117.633 63.1 117.633 63.3C118.333 66.6 116.533 67.6 113.633 68.7C105.933 71.6 98.2333 74.1 90.0333 75.2C86.4333 75.7 82.8333 76.8 79.2333 77.3C72.0333 78.3 64.9333 79.3 57.7333 80C48.7333 80.9 39.8333 80.1 30.9333 78.5C26.9333 77.8 22.8333 77.2 19.0333 76C15.4333 74.8 11.9333 72.9 8.53333 71.2C7.03333 70.4 5.63333 69.3 4.23333 68.2C2.83333 67.1 1.83333 66.7 0.133333 68.2C0.133333 67.5 -0.166667 66.7 0.133333 66.2C4.33333 56.7 6.13333 46.5 9.03333 36.6C10.5333 31.6 11.6333 26.5 13.0333 21.5C14.0333 17.7 15.3333 13.9 16.3333 10.1C16.7333 8.7 16.6333 7.2 16.7333 5.3C17.4333 5.4 18.4333 5.4 19.4333 5.6C27.9333 7.7 36.4333 9.1 45.1333 9.5C53.1333 9.9 61.1333 10.4 69.1333 10.6C76.5333 10.8 83.9333 10.2 91.2333 8.5C100.333 6.5 109.133 3.9 118.033 1.3C119.533 0.9 120.733 0.4 121.933 0ZM115.733 57.5C116.133 56.9 116.933 56.4 117.033 55.8C117.533 52.6 118.233 49.3 118.333 46.1C118.833 34.5 119.133 23 119.433 11.4C119.533 8.6 119.433 5.9 119.333 2.9C118.433 3.1 117.833 3.2 117.333 3.3C108.233 6 98.9333 8.5 89.6333 10.6C82.2333 12.3 74.9333 12.3 67.5333 12.3C59.7333 12.3 51.9333 11.6 44.1333 11.2C41.8333 11.1 39.6333 11.1 37.2333 11C37.0333 13 36.8333 14.7 36.6333 16.3C37.3333 16.8 37.8333 17.2 38.4333 17.7C40.5333 16.9 42.6333 15.6 45.6333 16.1C44.9333 16.7 44.6333 17 44.2333 17.1C42.7333 17.6 41.0333 17.8 39.6333 18.4C37.2333 19.4 36.9333 20.1 37.3333 23.2C39.3333 22.6 41.3333 22.1 43.2333 21.6C43.3333 21.8 43.3333 22 43.4333 22.2C42.8333 22.5 42.1333 22.9 41.5333 23.1C40.4333 23.5 39.3333 23.8 38.2333 24.2C36.9333 24.6 36.3333 25.3 36.2333 26.7C36.0333 28.5 35.8333 30.4 35.3333 32.1C33.2333 39.4 31.9333 46.9 30.5333 54.4C29.6333 59.1 28.7333 63.8 26.7333 68.3C25.9333 70 25.4333 71.9 24.8333 73.9C27.0333 72.5 27.4333 69.5 30.4333 68.7C28.9333 70.9 27.7333 72.7 26.4333 74.5C27.9333 75.4 28.5333 74.8 29.1333 74C30.1333 72.6 30.9333 71.1 33.1333 70.1C31.9333 72.1 30.9333 73.6 29.7333 75.5C35.7333 76.2 41.2333 76.9 46.6333 77.6C47.8333 77.8 48.3333 76.9 48.9333 76.1H48.8333C50.9333 75.4 52.9333 74.8 54.9333 74.1L55.1333 74.5C53.6333 75.3 52.0333 76.1 50.5333 77C54.8333 77.3 58.9333 77.1 62.9333 76.7C67.8333 76.2 72.6333 75.5 77.4333 74.7C82.4333 73.9 87.4333 72.8 92.4333 72C100.433 70.8 107.833 68 115.433 65C115.833 63.3 116.133 61.6 116.533 59.9C116.833 58.8 116.733 57.9 115.733 57.5ZM20.1333 7.7C18.7333 10.2 12.1333 38 12.4333 40C14.2333 40 15.8333 38.4 18.4333 38.8C17.4333 39.4 17.0333 39.7 16.6333 39.8C15.2333 40.3 13.9333 40.7 12.5333 41.2C11.2333 41.7 10.7333 42.5 11.2333 44C12.8333 43.5 14.4333 43 16.0333 42.5C16.1333 42.7 16.1333 42.9 16.2333 43.1C15.5333 43.5 14.8333 43.9 14.0333 44.2C11.0333 45 9.43333 47.1 8.63333 50C7.23333 54.8 5.73333 59.6 4.13333 64.5C9.13333 69.2 15.0333 71.6 21.3333 73.5C21.8333 72.7 22.1333 72.2 22.4333 71.7C25.8333 65.1 27.1333 57.8 28.6333 50.7C30.7333 40.6 32.4333 30.4 34.2333 20.3C34.8333 17.2 35.0333 14 35.4333 10.6C30.1333 9.7 25.2333 8.7 20.1333 7.7Z" fill="black"/>
<path d="M90.0334 49.4C91.6334 48.8 92.4334 48.5 93.3334 48.2C93.4334 48.3 93.5334 48.4 93.5334 48.5C92.3334 49.8 91.0334 51.1 89.8334 52.4C89.9334 52.6 90.0334 52.7 90.2334 52.9C91.0334 52.7 91.9334 52.5 92.8334 52.3C92.7334 52.7 92.7334 53 92.6334 53.1C90.1334 54.3 88.9334 56.4 87.7334 58.8C85.4334 63 81.3334 65.5 77.3334 67.7C73.9334 69.7 70.2334 71.1 66.6334 72.7C65.0334 73.4 63.6334 73.1 62.1334 71.9C57.8334 68.3 54.8334 63.7 51.8334 59.1C50.9334 57.8 50.8334 55.8 50.9334 54.1C51.0334 52.3 50.6334 50.9 49.5334 49.6C48.0334 47.9 47.0334 45.9 46.7334 43.7C48.9334 41.7 48.9334 40.5 47.0334 37C43.9334 40.1 41.8334 47.8 42.7334 52.7C43.9334 51.9 45.1334 51.2 46.7334 50.3C46.3334 53.1 42.9334 53.3 43.1334 56.3C44.8334 55.3 46.2334 54.6 47.6334 53.7C47.7334 53.8 47.8334 54 48.0334 54.2C46.7334 55.5 45.4334 56.8 43.9334 58.2C45.1334 60.6 46.3334 62.9 47.5334 65.3C46.4334 65.7 45.3334 65.8 44.9334 66.3C44.6334 66.8 45.2334 67.8 45.5334 68.8C44.2334 69 43.7334 68 43.0334 67.3C40.4334 64.2 38.8334 60.5 38.0334 56.6C37.0334 51.8 36.6334 46.9 38.1334 42C39.7334 36.7 41.6334 33.8 46.6334 29.9C45.8334 32.1 45.2334 34.1 44.4334 36.5C45.0334 35.8 45.3334 35.1 45.8334 35C47.2334 34.7 47.1334 33.6 47.3334 32.6C47.9334 29.8 48.5334 27 49.3334 24.2C49.7334 23 50.6334 22 51.3334 20.8C53.8334 21.4 54.9334 23.2 56.2334 24.7C57.5334 26.2 58.5334 28 59.7334 29.8C60.1334 29.7 60.6334 29.6 61.0334 29.3C64.5334 26.8 68.4334 25.8 72.7334 26.5C74.2334 26.7 75.7334 27 77.2334 27.4C78.5334 27.8 79.3334 27.7 80.3334 26.7C82.1334 24.8 84.1334 23.1 86.0334 21.4C87.6334 20 88.2334 20.2 89.5334 21.9C90.7334 23.5 90.9334 25.5 91.0334 27.4C91.2334 31.1 91.2334 34.7 91.6334 38.4C92.0334 42 92.1334 45.5 90.0334 49.4ZM74.3334 41.6C73.6334 42.6 73.0334 43.6 72.1334 44.9C69.3334 42.6 66.6334 43.4 63.9334 44.3C63.2334 43.6 62.5334 43 61.8334 42.4C60.8334 43.5 60.1334 44.5 59.1334 45.2C58.1334 45.9 56.9334 46.7 55.8334 46.7C53.8334 46.7 52.4334 47.7 50.9334 48.5C52.6334 54 56.5334 52.7 60.7334 51.3C60.8334 52.1 60.7334 52.6 60.9334 53C62.9334 59.6 62.0334 58.2 67.6334 59.1C70.0334 59.5 72.5334 60.1 75.0334 59C77.8334 58.7 80.2334 57.6 82.7334 55.3C80.7334 54.8 79.2334 54.4 78.1334 54.1C76.9334 56 76.0334 57.5 75.0334 59C75.6334 56.8 76.2334 54.7 76.8334 52.3C78.4334 52.7 79.6334 53.1 80.8334 53.3C82.1334 53.5 83.4334 53.6 84.7334 53.7C87.1334 51 88.9334 48.2 89.6334 44.8C89.9334 43.2 89.6334 41.6 89.6334 40C89.5334 35.4 89.4334 30.8 89.2334 26.1C89.2334 24.9 88.8334 23.8 87.3334 23.1C85.7334 24.6 83.8334 25.9 82.3334 27.7C80.5334 29.8 78.9334 30.1 76.2334 29.3C71.4334 27.8 66.5334 27.9 62.1334 30.9C61.2334 31.5 60.1334 31.8 59.0334 32.3C56.6334 29.2 55.6334 25.4 51.8334 23.5C49.2334 28.3 48.5334 33.1 49.6334 38.3C50.1334 40.5 50.9334 42.7 49.3334 44.9C49.0334 45.3 49.5334 46.2 49.8334 47.1C51.7334 46.2 53.2334 45 54.6334 45C56.9334 45.1 58.1334 43.9 59.7334 42.6C58.9334 40.8 59.1334 39.2 60.3334 37.7C61.1334 36.7 62.1334 36.3 63.3334 36.8C64.5334 37.4 64.7334 38.3 64.4334 39.5C64.2334 40.3 63.9334 41.1 63.5334 42.2C64.4334 42.1 65.0334 42.1 65.6334 42.1C66.7334 42 67.8334 41.5 68.7334 41.8C70.8334 42.7 72.6334 42.4 74.3334 41.6ZM63.2334 62.9C63.3334 63 63.3334 63.2 63.4334 63.3C62.0334 64.2 60.7334 65.1 59.3334 66C59.4334 66.3 59.5334 66.6 59.6334 66.9C61.8334 67.8 63.3334 65.1 65.9334 65C64.2334 66.3 62.9334 67.3 61.4334 68.5C63.0334 69.9 64.2334 72 66.3334 70.7C68.1334 69.6 70.1334 69.5 71.8334 68.5C75.2334 66.6 78.5334 64.7 81.7334 62.6C84.1334 61 85.6334 58.6 86.7334 56C86.9334 55.6 86.9334 55 86.9334 54.5C86.5334 56.8 84.4334 56.9 82.9334 57.7C82.3334 58 81.7334 58.3 81.1334 58.6C76.8334 61 72.2334 62.2 67.2334 61.2C65.2334 60.8 63.2334 60.5 61.2334 60.3C58.7334 60 56.6334 58.8 54.8334 57.3C54.2334 56.8 53.7334 56.3 52.7334 55.4C53.0334 59.7 55.9334 61.7 58.0334 65C59.8334 64.3 61.5334 63.6 63.2334 62.9ZM60.6334 57.9C60.7334 57.7 60.8334 57.6 60.9334 57.4C60.4334 56 59.9334 54.6 59.4334 53.1C57.8334 53.4 56.4334 53.5 55.2334 55C57.2334 56.1 58.9334 57 60.6334 57.9ZM40.4334 40.4C40.6334 40.5 40.8334 40.6 41.0334 40.6C41.4334 39.7 42.7334 39.1 41.9334 37.6C41.3334 38.7 40.9334 39.5 40.4334 40.4ZM40.5334 44.4C40.3334 44.3 40.0334 44.2 39.8334 44.1C39.2334 44.8 38.5334 45.4 39.3334 47C39.8334 45.9 40.1334 45.2 40.5334 44.4Z" fill="black"/>
<path d="M91.1328 66.8996C92.1328 65.3996 93.1328 63.8996 94.1328 62.3996C94.4328 61.8996 94.2328 61.2996 94.3328 60.2996C93.0328 60.7996 92.2328 61.0996 91.2328 61.4996C91.0328 59.8996 92.0328 59.1996 92.7328 58.2996C94.3328 56.3996 95.8328 54.4996 96.4328 51.8996C97.5328 47.1996 97.3328 42.5996 95.1328 38.1996C94.4328 36.8996 93.6328 35.4996 92.8328 34.0996C93.6328 33.5996 94.5328 33.0996 95.5328 32.5996C94.8328 31.5996 94.2328 30.7996 93.4328 29.6996C95.0328 29.3996 95.6328 30.1996 96.3328 30.8996C100.433 35.1996 102.733 40.2996 102.633 46.2996C102.633 47.3996 102.733 48.3996 102.733 49.4996C102.733 54.8996 100.933 59.4996 97.0328 63.1996C96.0328 64.1996 95.0328 65.2996 93.8328 66.0996C92.9328 66.4996 91.9328 66.5996 91.1328 66.8996ZM100.233 55.0996C98.6328 56.0996 98.6328 56.0996 98.5328 58.1996C99.3328 56.9996 99.7328 56.0996 100.233 55.0996ZM95.0328 58.2996C95.2328 58.3996 95.3328 58.3996 95.5328 58.3996C96.0328 57.6996 96.4328 57.0996 96.9328 56.3996C96.8328 56.2996 96.6328 56.1996 96.4328 56.0996C95.9328 56.8996 95.5328 57.5996 95.0328 58.2996ZM101.133 47.4996C100.933 47.3996 100.733 47.1996 100.533 47.0996C100.233 47.5996 99.9328 47.9996 99.7328 48.4996L99.9328 48.6996C100.333 48.1996 100.733 47.7996 101.133 47.4996ZM100.533 42.6996C100.333 42.6996 100.233 42.6996 100.033 42.5996C100.033 43.0996 99.9328 43.5996 99.9328 44.0996C100.133 44.0996 100.333 44.0996 100.533 44.0996C100.533 43.6996 100.533 43.1996 100.533 42.6996Z" fill="black"/>
<path d="M82.7328 21.8997C80.8328 21.1997 78.8328 20.4997 76.8328 19.8997C76.7328 19.9997 76.6328 20.1997 76.5328 20.2997C77.7328 21.6997 78.9328 23.0997 80.2328 24.6997C79.1328 25.4997 77.9328 24.7997 76.9328 24.3997C74.2328 23.2997 71.3328 22.5997 68.4328 22.7997C66.7328 22.8997 65.0328 23.3997 63.4328 23.7997C61.8328 24.1997 60.2328 24.7997 58.2328 25.3997C58.2328 24.1997 58.2328 23.4997 58.2328 22.6997C57.7328 22.4997 57.2328 22.1997 56.6328 21.9997C61.5328 16.1997 77.2328 15.9997 82.7328 21.8997Z" fill="black"/>
<path d="M106.033 14.4C107.233 12.2 108.933 10.8 111.433 10.2C112.833 9.89996 114.033 10.3 114.633 11.5C115.833 14.1 116.633 16.8 115.933 19.6C115.033 23.4 111.333 25.3 107.933 23.7C105.933 22.8 104.733 20.4 105.133 17.6C105.333 16.6 105.733 15.5 106.033 14.4ZM113.433 20.4C114.433 18.3 114.533 16.5 113.833 14.6C113.033 12 111.333 11.6 109.333 13.5C108.733 14.1 108.133 14.8 107.933 15.6C107.633 17.1 107.633 18.7 107.633 20.2C107.633 21.4 108.333 22.1 109.433 22.5C110.533 22.8 111.533 22.7 112.333 21.8C112.833 21.3 113.233 20.7 113.433 20.4Z" fill="black"/>
<path d="M94.4334 12.0001C96.2334 11.6001 97.6334 11.5001 98.8334 10.9001C101.133 9.80008 102.833 10.2001 104.433 12.5001C101.933 12.8001 99.5334 13.0001 96.9334 13.3001C96.9334 14.5001 96.9334 15.3001 96.8334 16.2001C99.4334 17.1001 102.633 17.0001 102.533 20.8001C102.433 23.6001 100.933 25.9001 99.1334 26.3001C97.3334 26.7001 94.7334 25.5001 93.7334 23.4001C94.9334 23.8001 95.7334 24.1001 96.5334 24.4001C97.6334 24.8001 99.0334 25.1001 99.7334 23.9001C100.433 22.8001 100.833 21.4001 100.833 20.2001C100.833 18.8001 99.4334 18.5001 98.2334 18.5001C97.4334 18.5001 96.5334 18.8001 95.4334 19.0001C95.1334 16.7001 94.8334 14.5001 94.4334 12.0001Z" fill="black"/>
<path d="M48.9331 75.9998C47.4331 75.5998 47.3331 74.1998 47.5331 73.1998C48.1331 69.5998 49.0331 66.0998 49.8331 62.4998C49.9331 62.0998 50.2331 61.5998 50.5331 61.2998C50.7331 61.0998 51.3331 60.9998 51.5331 61.0998C51.8331 61.1998 52.0331 61.6998 52.0331 61.9998C51.9331 62.5998 51.6331 63.0998 51.4331 63.5998C50.4331 66.0998 50.1331 68.6998 49.8331 71.5998C51.3331 71.2998 52.4331 70.9998 53.5331 70.7998C53.6331 70.9998 53.7331 71.0998 53.8331 71.2998C51.8331 72.6998 48.8331 72.7998 48.9331 75.9998Z" fill="black"/>
<path d="M91.0331 66.7998C91.1331 67.6998 91.3331 68.6998 91.4331 69.5998C91.4331 69.7998 91.2331 70.0998 90.9331 70.7998C90.0331 68.6998 89.2331 67.0998 88.7331 65.3998C88.2331 63.6998 86.6331 62.2998 87.4331 59.7998C90.0331 61.8998 89.8331 64.7998 91.0331 66.7998Z" fill="black"/>
<path d="M115.733 57.4004C115.533 57.7004 115.333 58.2004 115.033 58.3004C111.633 59.7004 108.133 61.1004 104.533 62.6004C106.033 60.5004 110.533 58.5004 115.733 57.4004Z" fill="black"/>
<path d="M114.833 54.7002C112.633 56.8002 107.733 58.7002 105.033 58.8002C108.633 57.3002 111.833 56.0002 114.833 54.7002Z" fill="black"/>
<path d="M21.533 64.9005C22.033 64.7005 22.233 64.6005 22.533 64.5005C22.533 64.7004 22.733 64.9005 22.633 65.0005C21.133 66.9004 18.433 67.5005 16.533 66.4005C14.733 65.2005 13.833 62.2004 14.733 60.2004C15.533 58.5004 17.133 57.6004 18.933 58.1004C20.733 58.5004 21.933 59.9005 21.833 61.8005C21.833 62.7005 21.733 63.7005 21.533 64.9005Z" fill="black"/>
<path d="M29.7334 22.7003C28.3334 25.2003 25.5334 26.3003 23.3334 25.8003C21.1334 25.3003 19.2334 22.9003 19.2334 20.4003C19.1334 17.0003 20.9334 15.4003 24.3334 15.9003C26.7334 16.3003 28.4334 17.6003 29.4334 19.7003C29.8334 20.8003 29.6334 22.1003 29.7334 22.7003ZM25.4334 17.8003C23.7334 16.9003 22.1334 17.2003 21.4334 18.6003C20.6334 20.2003 21.4334 22.5003 23.0334 23.3003C24.9334 24.2003 26.9334 23.6003 27.7334 22.1003C28.5334 20.7003 27.5334 18.8003 25.4334 17.8003Z" fill="black"/>
<path d="M22.6337 34.7003C20.7337 34.6003 19.1337 34.6003 17.5337 34.5003C16.3337 32.5003 16.3337 32.5003 17.1337 27.4003C18.3337 27.2003 18.9337 27.6003 18.8337 28.9003C18.7337 30.0003 18.6337 31.2003 18.5337 32.3003C19.6337 32.9003 20.2337 32.8003 20.5337 31.6003C21.2337 29.1003 22.2337 28.6003 24.4337 28.9003C26.8337 29.2003 27.9337 30.3003 28.0337 32.6003C28.0337 34.0003 28.5337 35.7003 26.4337 36.7003C26.3337 35.9003 26.1337 35.4003 26.1337 34.9003C26.1337 34.0003 26.2337 33.2003 26.2337 32.3003C26.2337 30.9003 25.2337 30.5003 24.1337 30.4003C22.8337 30.4003 22.6337 31.3003 22.6337 32.4003C22.6337 33.1003 22.6337 33.7003 22.6337 34.7003Z" fill="black"/>
<path d="M13.0334 53.2998C13.7334 52.0998 14.8334 51.7998 16.2334 52.5998C17.2334 53.1998 17.4334 53.9998 16.8334 54.9998C16.1334 56.2998 14.8334 56.6998 13.7334 56.0998C12.5334 55.5998 12.2334 54.5998 13.0334 53.2998Z" fill="black"/>
<path d="M12.3328 61.5999C10.4328 62.4999 9.03281 62.1999 8.23281 60.5999C7.93281 60.0999 7.93281 59.1999 8.23281 58.7999C8.53281 58.3999 9.53281 58.1999 9.93281 58.2999C11.5328 58.8999 12.3328 59.9999 12.3328 61.5999Z" fill="black"/>
<path d="M20.5329 53.0997C21.2329 52.0997 22.7329 51.5997 23.6329 52.1997C24.5329 52.6997 24.8329 53.3997 24.3329 54.3997C23.7329 55.4997 22.4329 55.8997 21.3329 55.1997C20.6329 54.6997 20.1329 53.9997 20.5329 53.0997Z" fill="black"/>
<path d="M62.4328 49.8998C63.8328 51.0998 65.2328 52.4998 67.3328 50.8998C66.9328 50.3998 66.5328 49.9998 66.2328 49.5998C65.3328 48.1998 65.4328 46.8998 66.5328 45.9998C67.7328 44.9998 70.0328 44.6998 71.0328 45.5998C71.8328 46.1998 71.7328 46.9998 71.2328 47.6998C70.6328 48.5998 69.9328 49.2998 69.3328 50.0998C71.3328 52.7998 72.3328 52.7998 75.8328 50.0998C75.9328 51.4998 75.0328 52.1998 74.2328 52.6998C72.9328 53.4998 71.9328 54.5998 71.0328 55.8998C69.9328 57.3998 68.3328 57.4998 67.0328 56.2998C65.6328 55.0998 64.2328 53.6998 62.9328 52.2998C62.5328 51.7998 62.3328 50.9998 62.1328 50.3998C62.2328 50.1998 62.3328 50.0998 62.4328 49.8998ZM66.3328 53.7998C67.3328 54.2998 68.1328 54.8998 69.0328 55.1998C69.3328 55.2998 70.1328 54.8998 70.3328 54.4998C70.5328 54.0998 70.2328 53.3998 69.9328 52.9998C69.0328 51.9998 68.3328 52.0998 66.3328 53.7998Z" fill="black"/>
<path d="M74.3335 41.5996C74.3335 40.9996 74.2335 40.3996 74.3335 39.8996C74.5335 38.6996 75.4335 38.0996 76.5335 38.0996C77.8335 38.0996 78.5335 38.8996 78.7335 39.9996C78.8335 40.7996 78.6335 41.6996 78.5335 42.7996C81.2335 45.1996 84.6335 45.3996 88.7335 45.7996C87.8335 46.3996 87.4335 46.8996 87.0335 46.8996C84.0335 46.8996 81.1335 46.2996 78.5335 44.4996C77.1335 43.5996 75.7335 42.5996 74.3335 41.5996Z" fill="black"/>
<path d="M84.8336 33.9004C83.5336 33.0004 82.6336 32.3004 81.4336 31.5004C82.8336 30.4004 84.0336 29.4004 85.4336 28.4004C86.3336 30.3004 86.0336 31.9004 84.8336 33.9004Z" fill="black"/>
<path d="M52.2334 34.0997C52.2334 32.6997 52.2334 31.1997 52.2334 29.7997C54.1334 29.4997 54.1334 29.4997 55.4334 31.3997C54.6334 32.2997 53.8334 33.2997 53.0334 34.2997C52.6334 34.2997 52.4334 34.1997 52.2334 34.0997Z" fill="black"/>
<path d="M63.0328 34.3004C61.2328 35.2004 59.5328 36.1004 57.6328 37.0004C57.9328 35.0004 59.4328 34.0004 63.0328 34.3004Z" fill="black"/>
<path d="M77.1334 34.2998C78.4334 34.3998 79.7334 34.6998 80.5334 35.9998C80.4334 36.1998 80.3334 36.3998 80.2334 36.5998C79.0334 36.0998 77.9334 35.5998 76.7334 34.9998C76.9334 34.7998 77.0334 34.5998 77.1334 34.2998Z" fill="black"/>
<path d="M62.033 39.5003C61.833 39.8003 61.533 39.9003 61.233 39.8003C60.933 39.6003 60.833 39.3003 60.933 39.0003C61.133 38.7003 61.433 38.6003 61.733 38.8003C62.133 38.8003 62.233 39.2003 62.033 39.5003Z" fill="white"/>
<path d="M76.233 40.1998C76.033 40.4998 75.733 40.5998 75.433 40.4998C75.133 40.2998 75.033 39.9998 75.233 39.6998C75.433 39.3998 75.733 39.2998 76.033 39.3998C76.333 39.4998 76.433 39.8998 76.233 40.1998Z" fill="white"/>
<path d="M67.3334 47.0998C67.6334 46.7998 68.1334 46.5998 68.6334 46.5998C69.0334 46.5998 69.3334 46.6998 69.7334 46.7998L70.0334 46.9998L70.2334 46.7998C70.1334 46.6998 70.0334 46.6998 69.9334 46.5998C69.5334 46.3998 69.1334 46.2998 68.7334 46.2998C68.2334 46.2998 67.6334 46.5998 67.2334 46.8998L67.3334 47.0998Z" fill="#F6F6F6"/>
</svg>
