<svg width="104" height="115" viewBox="0 0 104 115" fill="none" xmlns="http://www.w3.org/2000/svg">
<path d="M23.8015 62.8522C22.7678 62.1057 21.849 61.0721 20.5856 60.9572C19.552 60.8424 18.5758 61.3018 17.5995 61.7612C15.4748 62.68 13.2352 63.3691 10.9382 63.3117C8.64115 63.2542 6.28671 62.4503 4.73622 60.7275C3.64514 59.579 3.01346 58.0859 2.38178 56.5929C1.23327 53.9513 0.0273343 50.9652 1.11842 48.2662C1.80752 46.4286 3.47286 45.1078 5.1382 44.0167C7.72235 42.3514 10.5936 41.1454 13.6372 40.8583C16.6807 40.5712 19.8965 41.3751 22.1936 43.3276C25.9262 46.5434 26.2133 51.3097 27.0173 55.7889C27.4767 58.3731 29.3717 67.1592 23.8015 62.8522Z" fill="white"/>
<path d="M33.7359 57.2242C33.2191 64.7469 32.7023 72.2122 32.2429 79.7349C32.0132 82.8359 31.8409 85.9369 32.1855 88.9804C32.4152 90.8755 32.8171 92.7705 33.4488 94.5507C33.8508 95.6992 34.4251 96.9051 35.4013 97.5942C36.5498 98.3982 38.1003 98.3408 39.5359 98.2833C54.0071 97.6517 68.5358 97.02 83.007 96.3883C83.7535 96.3309 84.5 96.3309 85.1317 95.9289C86.6248 95.0101 86.6822 92.7131 88.1179 91.7943C90.3 93.4596 90.1277 96.6754 90.7594 99.317C91.9079 104.026 96.5594 107.701 101.441 107.586C101.957 107.586 102.589 107.529 102.991 107.127C103.336 106.782 103.508 106.323 103.565 105.864C104.197 103.107 103.91 100.121 102.876 97.4794C102.359 96.2735 101.728 95.125 101.326 93.8616C100.866 92.3111 100.751 90.7032 100.751 89.0953C100.637 85.0181 100.579 80.9409 99.2584 77.0934C97.8802 73.3033 94.9515 69.7429 90.9891 68.9389C90.0703 68.7667 89.0941 68.6518 88.405 68.0201C88.003 67.6182 87.7733 66.9865 87.6584 66.4122C87.199 63.7132 88.7495 60.842 87.7159 58.2578C87.199 56.8796 85.9931 55.8459 85.0169 54.7549C83.8109 53.3767 82.8347 51.7687 81.9159 50.1608C78.4129 44.1886 74.7952 37.5272 76.0011 30.751C76.6328 27.1906 78.5852 23.9748 80.0209 20.7016C81.5139 17.3709 82.5476 13.5808 81.2842 10.1927C79.3892 4.90956 72.3259 2.72739 67.1001 4.85214C64.9754 5.71352 63.0804 7.0343 60.8982 7.60856C55.2705 9.04419 48.6091 4.90956 43.7854 8.18281C42.4072 9.15905 41.0864 10.7095 39.4211 10.4224C38.6745 10.3076 38.1003 9.79073 37.4686 9.38875C34.2528 7.55113 29.8884 9.2739 27.8211 12.3174C25.7538 15.361 25.4093 19.3233 25.4667 22.9986C25.5241 25.8124 25.9835 29.0283 28.338 30.6362C30.4627 32.1292 33.4488 31.8421 35.4587 33.45C39.3062 36.551 36.2052 43.3272 38.9617 47.4044C39.5933 48.3232 40.5121 49.0697 41.1438 49.9885C41.7755 50.9074 42.1775 52.1707 41.5458 53.1469C40.5696 54.7549 38.1577 54.1806 36.3201 54.64C34.0231 55.2143 32.5874 58.143 33.6211 60.3251" fill="white"/>
<path d="M35.9757 36.2062C36.2054 36.4933 36.6074 36.6656 36.9519 36.4359C37.1242 36.3211 37.1816 36.2062 37.2965 36.0339C38.5599 33.9092 39.8806 31.8419 41.144 29.7171C41.4311 29.2577 41.7183 28.7409 41.8331 28.1666C42.2351 26.329 40.5698 24.7211 40.1678 22.9409C40.0529 22.3667 40.0529 21.7924 39.8806 21.2182C39.7084 20.6439 39.4212 20.0696 38.847 19.8399C38.7321 19.7825 38.5599 19.7825 38.445 19.8399C38.3302 19.8974 38.2727 20.0696 38.2153 20.1845C37.3539 23.228 36.3203 26.2716 35.5737 29.3726C35.0569 31.8419 35.9757 33.9092 35.9757 36.2062Z" fill="#BCBCBB"/>
<path d="M70.7188 27.7653C71.1208 28.2821 71.5227 28.8564 72.1544 29.0287C72.499 29.1435 72.9584 29.1435 73.2455 29.3732C73.59 29.6029 73.7049 30.0049 73.8198 30.3495C74.2792 31.7277 74.6811 33.1059 75.1405 34.5415C75.7148 36.2643 76.1742 38.389 74.9683 39.7672C73.9346 40.9157 72.097 40.9732 70.7762 40.2266C69.4554 39.4801 68.4792 38.2167 67.6752 36.9534C65.1485 32.8762 62.9089 27.3059 63.0238 22.4247C63.196 15.7634 69.5128 26.1 70.7188 27.7653Z" fill="#BCBCBB"/>
<path d="M84.4427 57.6262C84.6724 57.6837 84.9595 57.6837 85.1318 57.5688C85.6486 57.3391 85.6486 56.5351 85.4763 55.9609C84.7872 52.9748 83.3516 49.7589 80.4803 48.6679C79.1021 48.0936 77.5516 48.151 76.0585 48.2085C69.6269 48.6104 63.2527 50.2183 57.3378 52.8599C56.3616 53.3193 55.2705 54.1807 55.6725 55.1569C55.9596 55.846 56.821 56.0183 57.5101 56.0757C66.5259 57.052 75.4843 56.65 84.4427 57.6262Z" fill="#BCBCBB"/>
<path d="M96.6742 91.7945C96.3871 90.4737 95.5831 89.3826 94.9515 88.1767C93.803 86.1094 92.8842 83.9272 92.3673 81.6302C92.1376 80.5965 91.8505 79.448 91.0465 78.7015C90.1852 77.955 88.9218 78.0124 87.8881 78.5292C87.0268 81.4579 87.199 84.5015 87.1416 87.545C87.8881 89.6123 87.7733 92.943 89.5535 94.3787C90.0129 94.7806 90.5871 95.0103 91.1614 95.1826C92.597 95.7569 94.3198 96.2163 95.5831 95.2975C96.6742 94.6084 96.9614 93.0579 96.6742 91.7945Z" fill="#BCBCBB"/>
<path d="M93.344 105.749C93.8034 106.208 94.3203 106.725 94.9519 106.725C95.5836 106.782 96.1579 106.323 96.5024 105.749C96.847 105.232 96.9618 104.543 97.0767 103.911C97.4787 101.844 97.9381 100.351 96.2727 98.915C95.1816 97.9387 93.1717 97.3071 91.7935 97.9962C88.5777 99.7764 91.7361 103.968 93.344 105.749Z" fill="#BCBCBB"/>
<path d="M33.2193 92.4262C33.449 93.9767 33.8509 95.5271 34.7123 96.8479C35.5737 98.1687 36.9519 99.2024 38.5598 99.2598C39.5935 99.3172 40.6271 98.9727 41.5459 98.6281C42.5796 98.2836 43.5558 97.8816 44.5895 97.537C44.9341 97.4222 45.2786 97.3073 45.5083 97.0202C46.2548 96.2163 45.5657 94.8955 44.8192 94.0341C42.4648 91.2777 39.9955 88.5787 37.9856 85.5351C36.8371 83.8124 36.2054 81.5153 35.0569 79.9074C33.9658 78.4144 33.6212 78.0698 32.8747 79.448C32.1282 80.8262 32.8173 84.6737 32.8173 86.2242C32.8173 88.2915 32.8747 90.3589 33.2193 92.4262Z" fill="#BCBCBB"/>
<path d="M44.2455 53.8365C44.0732 54.1236 43.8435 54.4108 43.5563 54.9276C44.8771 55.0424 46.0831 55.2147 47.289 55.2721C50.7345 55.5018 54.1801 55.7315 57.6256 55.8464C60.2672 55.9613 62.8513 55.9038 65.4929 55.9612C68.5938 56.0187 71.7523 56.0761 74.8532 56.3058C78.2413 56.4781 81.6294 56.8226 85.0175 57.0523C86.6829 57.1672 88.2908 57.1672 90.0135 57.1672C90.8749 58.3157 90.5878 59.6365 90.3581 60.8424C90.0135 62.6226 89.4967 64.4028 88.9799 66.183C88.4631 68.1354 88.5779 70.0879 88.5779 72.0404C88.5779 72.5572 88.6353 73.074 88.6353 73.5334C88.5205 76.1176 88.3482 78.6443 88.2334 81.2285C88.2334 81.573 88.2334 81.9176 88.2908 82.3195C88.5779 82.377 88.8076 82.377 88.9799 82.4344C88.9799 82.4918 89.0373 82.6067 88.9799 82.6641C88.5205 83.1809 88.0611 83.6403 88.1185 84.6166C89.2096 84.0997 90.1858 83.5829 91.2195 83.1235L91.3343 83.2958C91.1621 83.4106 90.9898 83.5829 90.8175 83.6977C90.1858 84.0997 89.4967 84.5017 88.865 84.9611C87.6591 85.7651 87.4868 86.3393 88.1759 87.9472C88.4631 87.7175 88.7502 87.5452 89.0373 87.373C89.3244 87.1433 89.669 86.971 90.1284 87.373C90.071 87.6027 89.9561 87.8324 89.8987 88.0621C89.5541 88.8086 89.2096 89.5551 88.9225 90.3591C88.4631 91.565 89.0947 92.4264 90.071 93.4026C90.6452 91.7373 91.3918 90.4165 93.0571 89.6126C92.9422 91.0482 91.3343 91.4502 91.3918 92.8284C91.9086 92.6561 92.368 92.5413 92.8274 92.369C92.2531 93.0581 91.2769 93.1729 90.9898 94.0918C91.5066 94.8383 92.1383 94.0918 92.8274 94.4363C92.4828 94.6086 92.2531 94.7234 91.8512 94.8957C92.1957 95.1254 92.368 95.2977 92.5403 95.3551C94.4927 96.1591 96.5026 95.9294 98.5125 95.5274C99.0293 95.4125 99.1442 95.068 99.1442 94.6086C99.1442 93.173 98.5699 91.967 97.766 90.7611C97.5937 90.5314 97.4214 90.2442 97.3066 90.0145C97.5937 89.5551 97.8808 89.67 98.168 89.8997C99.0868 90.8185 99.4313 92.0244 99.7759 93.173C99.8907 93.5175 99.8907 93.862 100.006 94.3789C101.154 93.1155 101.499 91.7373 101.499 90.2442C101.499 89.8423 101.212 89.3829 100.924 89.0383C99.5462 87.4878 97.766 86.5116 95.8135 85.9373C95.2967 85.7651 94.665 85.9373 93.861 85.9373C94.0908 85.5928 94.2056 85.3057 94.3779 85.2482C94.8373 85.1334 95.4115 84.9611 95.8135 85.076C98.1105 85.7076 100.178 86.8561 101.671 88.6938C103.049 90.3591 102.647 92.1967 101.843 94.0343C101.728 94.264 101.556 94.4937 101.441 94.7234C101.384 94.7809 101.384 94.8957 101.326 95.068C102.13 95.7571 102.417 96.6759 102.819 97.7096C103.164 98.5709 103.336 99.3749 103.566 100.236C104.025 101.959 104.025 103.682 103.853 105.405C103.623 107.07 102.877 107.816 101.269 108.161C99.1442 108.678 97.1917 108.391 95.3541 107.127C94.8947 106.783 94.3205 106.553 93.8036 106.266C93.5165 105.864 93.2294 105.29 92.8274 104.945C91.564 103.912 90.8749 102.533 90.4155 101.04C90.3007 100.638 90.1858 100.236 90.0135 99.8917C89.4967 98.6858 89.2096 97.5373 90.1858 96.3314C89.0373 95.2977 87.8314 94.5512 87.372 93.0007C86.9126 91.5076 87.2571 90.1294 87.6017 88.7512C87.0849 89.0957 87.0274 89.6126 86.97 90.1294C86.6829 91.8522 86.3957 93.5749 86.166 95.2977C85.9938 96.4462 85.3047 97.0779 84.3858 97.5947C84.0987 97.767 83.7542 97.9393 83.467 98.1115C83.3522 98.169 83.2373 98.2264 83.1799 98.2264C81.6869 97.7096 80.1938 98.1115 78.7007 98.169C76.2889 98.2264 73.8196 98.2264 71.4077 98.2838C71.178 98.2838 70.9483 98.2264 70.7186 98.2838C68.3067 98.9729 65.8374 98.8006 63.3681 98.8006C61.9325 98.8006 60.5543 98.9729 59.1186 99.0303C54.2375 99.26 49.2989 99.4897 44.4177 99.2026C43.2118 99.1452 42.0059 99.2026 40.8574 99.2026C40.3979 99.2026 40.1682 99.4323 40.2831 100.007C39.6514 98.8581 38.6752 99.0303 37.8138 99.0878C36.8376 99.1452 36.0336 98.8581 35.2297 98.2838C34.4257 97.7096 34.0237 96.963 33.9663 95.9868C33.7366 92.0244 33.5643 88.1195 33.2772 84.1572C33.1049 81.8027 32.7604 79.3908 32.7029 77.0364C32.5881 73.7057 32.7029 70.3176 32.7604 66.9869C32.8178 64.0008 32.9326 61.0147 32.9326 58.0286C32.9326 57.4543 32.7604 56.8801 32.6455 56.3058C33.9663 54.5256 35.8613 54.7553 37.6415 54.6979C38.6178 54.6405 39.5366 54.6979 40.5128 54.6979C41.0871 52.8028 40.9148 51.0227 40.8574 49.1276C40.5128 48.9553 40.1108 48.7256 39.7088 48.5534C38.4455 48.0365 37.8138 47.0603 37.3544 45.8544C36.2633 42.7534 36.895 39.8247 38.5029 37.0108C38.79 36.5514 39.0772 36.092 39.3069 35.5752C39.594 35.0584 39.8237 34.6564 40.4554 34.5416C40.8573 34.4841 41.2593 34.0821 41.5465 33.7376C42.5801 32.5317 43.7286 31.3257 44.6474 30.0624C45.2791 29.201 45.6237 28.1099 46.0831 27.1337C46.3128 26.6743 46.485 26.2723 46.8296 25.9277C46.485 27.7079 46.0831 29.4307 44.992 30.8663C44.59 31.3832 44.188 31.9 43.7286 32.302C43.1544 32.8762 42.8098 33.393 43.2692 34.3119C43.0969 34.4267 42.9247 34.4841 42.7524 34.599C39.0197 36.8386 37.9287 40.2841 38.2732 44.3613C38.5029 47.3474 41.1445 48.3237 43.3841 48.2088C44.0732 48.1514 44.7049 47.8068 44.9346 47.0603C45.0494 46.7732 45.2791 46.6009 45.6237 46.0841C45.6237 46.8306 45.6237 47.2326 45.6237 47.6346C47.1741 48.6682 48.7821 49.2425 50.5623 49.0128C51.0791 48.9553 51.5959 48.8979 51.9979 48.6108C53.1464 47.8643 54.3523 47.1752 55.3286 46.1989C57.1662 44.4762 57.7404 42.2366 57.1662 39.7673C56.8791 38.3891 56.3622 37.1831 55.5008 36.0346C54.6395 34.8861 53.9504 33.5653 53.2038 32.302C53.0315 31.9574 52.7444 31.6129 53.089 31.1535C53.6058 31.2683 53.7207 31.7851 53.9504 32.1297C54.6395 33.2208 55.2711 34.3118 56.0751 35.3455C57.1088 36.7237 57.8553 38.2168 58.085 40.1118C58.9464 39.4801 59.6929 38.9633 60.4394 38.5039L60.6117 38.6762C60.382 38.9059 60.1523 39.1356 59.8652 39.3079C58.1424 40.3415 57.9127 41.892 58.0276 43.9019C59.0038 43.0405 59.8078 42.3514 60.6691 41.6623C61.4731 40.9732 62.3345 40.3415 63.1384 39.7098C63.9424 39.0782 64.3444 37.8722 65.7226 37.3554C65.5503 37.9297 65.4929 38.2742 65.3206 38.4465C64.5741 39.2504 63.8275 40.1118 62.9662 40.7435C60.4394 42.5811 58.1998 44.7059 55.9028 46.8306C54.984 47.692 53.9504 48.5534 52.8593 49.1276C50.9068 50.1039 48.8395 49.989 46.887 49.0702C46.3702 48.8405 45.8534 48.4959 45.2791 48.1514C44.59 49.7019 43.1544 49.3573 42.0059 49.4722C42.0633 50.5633 42.1207 51.6543 42.1781 52.8603C43.1544 52.2286 44.1306 51.6543 45.0494 51.0801C45.1068 51.1375 45.1643 51.2524 45.2217 51.3098C44.8197 51.5395 44.4752 51.7692 44.1306 52.0563C43.7286 52.3434 43.3266 52.688 42.9247 52.9751C42.6375 53.2048 42.293 53.4345 42.1207 53.6642C42.0059 53.8365 41.9484 54.1236 41.891 54.3533C42.1781 54.4108 42.4653 54.6405 42.7524 54.5256C43.0969 54.4108 43.3266 54.1236 43.6712 53.9514C43.7286 54.0088 44.0158 53.9514 44.2455 53.8365ZM38.5029 95.068C38.6178 95.068 38.6752 95.0106 38.7326 95.0106C38.9623 95.7571 39.192 96.4462 39.3643 97.1927C39.4791 97.7096 39.7663 97.9393 40.3405 97.9393C43.1544 97.9393 46.0256 98.0541 48.8969 97.9967C51.0791 97.9393 53.3187 97.7096 55.5008 97.6521C59.9226 97.5373 64.4018 97.5373 68.8236 97.4799C69.4552 97.4799 70.0869 97.4224 70.7186 97.4224C73.7621 97.5947 76.7483 97.5373 79.7918 97.2502C80.0789 97.1927 80.3661 97.0779 80.7106 96.963C80.5383 95.7571 80.5383 94.6086 79.9641 93.5749C78.069 93.5175 76.2314 93.4601 74.3938 93.4601C72.5562 93.4026 70.7186 93.4026 68.6513 93.4026C68.881 93.1155 68.9384 92.8284 69.1107 92.771C69.5127 92.6561 69.9146 92.5987 70.3166 92.5987C74.8532 92.4264 79.3898 92.9432 83.9264 92.3116C84.0987 92.3116 84.3284 92.2541 84.4433 92.3116C84.673 92.369 84.8453 92.5413 85.3047 92.8284C84.4433 93.0581 83.8116 93.2304 83.1799 93.4026C83.1225 94.6086 83.0076 95.6997 83.4096 96.7333C84.8453 96.3888 85.1324 95.2977 85.3621 94.1492C85.4195 93.8046 85.4195 93.5175 85.4769 93.173C85.7066 91.7947 85.8215 90.3591 86.166 88.9809C87.2571 85.1334 87.0848 81.171 87.5443 77.2661C87.6591 76.175 87.6017 75.0839 87.6017 73.9928C87.6017 73.3037 87.5443 72.6146 87.6017 71.9255C87.6591 70.6047 87.5443 69.2265 87.8314 67.9632C88.2334 65.8384 88.9225 63.7137 89.4393 61.5889C89.7264 60.4404 89.8987 59.2919 89.6116 58.1434C88.1185 58.0286 86.6829 57.8563 85.3047 57.7989C81.3423 57.5692 77.3225 57.3395 73.3602 57.1098C72.4988 57.0523 71.6374 57.0523 70.7186 57.0523C68.5364 57.1098 66.4117 57.1672 64.2869 57.1672C61.5879 57.1672 58.8889 57.1672 56.1899 57.0523C52.9741 56.9375 49.7583 56.6504 46.5999 56.4781C43.1544 56.3058 39.7088 56.0761 36.3207 55.9612C35.5168 55.9038 34.7128 56.2484 34.0237 56.3632C33.9663 56.6504 33.9089 56.7078 33.9089 56.8226C34.3683 59.1771 34.196 61.4741 34.0811 63.8285C33.9663 66.7572 33.9089 69.6859 33.9089 72.6146C33.9089 74.6819 34.0237 76.7493 34.0811 78.8166C34.1386 80.4819 34.2534 82.2047 34.3683 83.87C34.4831 85.4779 34.7128 87.1433 34.8851 88.866C35.4019 88.5789 35.8039 88.3492 36.2633 88.0621C36.091 88.9809 34.6554 89.0383 35.0574 90.3017C36.2633 89.4977 37.4692 88.7512 38.6178 88.0047C37.8712 88.866 36.9524 89.6126 36.0336 90.2442C35.0574 90.8759 34.8851 91.6799 35.2871 92.8858C35.6891 92.8858 36.1485 92.9432 36.6079 92.9432C37.297 92.9432 37.9861 92.8858 38.6752 92.8858C40.9148 93.0007 43.1544 93.1155 45.394 93.2304C49.9306 93.3452 54.4672 93.5749 59.0038 93.2304C60.382 93.1155 61.7602 93.173 63.1384 93.173C63.5978 93.173 64.1721 93.0581 64.4592 93.8046C64.1721 93.862 63.9424 93.9769 63.7127 94.0343C63.1959 94.0918 62.679 94.0343 62.2196 94.0343C58.6592 94.0918 55.1563 94.264 51.5959 94.264C48.4375 94.264 45.2791 94.0343 42.1207 93.9195C40.7425 93.8621 39.3069 93.8621 37.7564 94.0343C37.8712 95.2403 37.8712 96.3888 37.9861 97.4224C38.0435 97.9393 38.4455 98.0541 38.9623 97.8244C38.7326 96.7907 38.6178 95.9294 38.5029 95.068ZM94.1482 104.371C95.8709 106.266 97.2492 107.127 99.259 107.357C101.097 107.529 102.992 106.725 103.049 104.543C103.107 102.878 102.992 101.155 102.36 99.5472C102.303 99.4323 102.245 99.3175 102.073 99.0878C101.269 99.2026 100.408 99.2026 99.5462 99.3749C97.8234 99.7195 95.9858 99.9492 94.3779 100.638C91.7937 101.729 92.0809 102.476 93.5739 103.797C93.6313 103.854 93.7462 103.854 93.861 103.854C94.7799 103.395 95.469 102.476 96.6175 102.361C95.8135 103.108 95.0096 103.739 94.1482 104.371ZM96.8472 99.0303C96.3303 97.6521 96.3303 97.6521 95.2393 97.6521C94.7224 97.6521 94.263 97.5373 93.7462 97.4224C92.7125 97.1927 91.7363 96.9056 90.7601 96.6185C91.1046 98.169 91.4492 99.7195 91.9086 101.5C93.2294 99.8917 95.1244 99.5472 96.8472 99.0303ZM100.924 95.8145C99.661 96.4462 98.5125 97.0205 97.364 97.5947C97.5937 98.9155 97.5937 98.9155 98.7422 98.8006C99.4887 98.7432 100.178 98.6858 100.924 98.5709C101.269 98.5135 101.556 98.3412 101.958 98.2264C101.786 97.2502 101.786 96.3313 100.924 95.8145ZM35 93.9195C35.1148 94.8957 35.1148 95.6422 35.2871 96.3888C35.4594 97.4799 35.9762 97.767 37.4118 97.6521C37.297 96.3888 37.1247 95.1828 37.0098 93.8621C36.2633 93.8621 35.7465 93.9195 35 93.9195ZM82.2037 97.0205C82.376 97.0205 82.5482 97.0204 82.6631 96.963C82.6057 95.7571 82.6057 94.6086 82.5482 93.2878C82.2037 93.4601 81.9166 93.5175 81.9166 93.6324C81.7443 94.7809 81.8017 95.9294 82.2037 97.0205ZM81.2274 96.9056C81.3423 96.9056 81.3997 96.9056 81.5146 96.8482C81.3997 95.7571 81.2849 94.666 81.17 93.6324C81.0552 93.6324 80.9403 93.6323 80.8255 93.6898C80.8255 94.7809 81.0552 95.8145 81.2274 96.9056Z" fill="black"/>
<path d="M71.9819 40.169C73.0156 39.4225 73.9918 38.6185 75.0254 37.872C75.2551 37.6997 75.5423 37.5274 75.8294 37.3552C75.8294 37.1255 75.772 36.9532 75.772 36.7809C76.0017 36.1492 74.9106 36.1492 75.1977 35.4601C75.37 35.0007 75.1977 34.369 75.1403 33.8522C75.0255 32.7037 74.9106 31.4978 74.7383 30.2344C73.3027 30.6938 72.1542 30.2344 71.1205 29.4304C70.6037 29.0285 70.0869 28.6265 69.6849 28.1671C67.7324 25.9275 65.9522 23.573 64.6889 20.7592C63.8849 18.8642 62.8512 17.0265 61.9899 15.1889C61.8176 14.8444 61.6453 14.4998 61.5879 14.1553C61.5879 13.9256 61.8176 13.6384 61.9899 13.2939C63.8275 14.9592 64.0572 17.4285 65.5502 19.2087C66.4691 18.577 67.3304 17.9454 68.2492 17.3137L68.3641 17.4285C68.1918 17.6008 67.9621 17.7731 67.7898 18.0028C67.6176 18.1751 67.3879 18.3473 67.1582 18.577C66.7562 18.9216 66.4116 19.2087 66.0096 19.5533C65.5502 19.9552 65.8374 20.2424 66.1245 20.7018C67.1007 19.9552 67.9621 19.2661 68.8809 18.577L68.9958 18.6919C68.1344 19.4958 67.2156 20.3572 66.2968 21.2186C66.6413 21.678 66.871 22.0226 67.1007 22.4245C67.9621 21.9077 68.7661 21.4483 69.57 21.0463L69.6849 21.2186C68.9383 21.7929 68.1918 22.3671 67.3879 22.9988C67.5601 23.3433 67.6176 23.573 67.7324 23.7453C68.9383 25.2384 70.1443 26.7314 71.3502 28.2245C71.5799 28.5116 71.9245 28.6839 72.2116 28.8562C73.2453 29.4304 74.1641 29.373 75.0829 28.5116C76.8631 26.9037 78.2987 25.1235 78.9304 22.7691C79.1601 21.9651 79.4472 21.2186 79.6195 20.4146C79.7918 19.6681 79.9066 18.8642 80.0215 18.1176C80.1363 17.4859 79.8492 16.682 80.8254 16.4523C80.9403 16.4523 81.0551 16.1077 81.0551 15.878C81.0551 15.4186 80.9977 14.9592 80.9977 14.4998C80.9977 14.2701 80.8254 13.983 80.8828 13.8107C81.6868 12.1454 80.8254 10.7097 80.3086 9.27411C79.7918 7.8959 78.6433 6.97709 77.1502 6.63254C75.7146 6.34541 74.2789 6.28799 72.7859 6.11571C72.0967 6.05828 71.4076 6.17314 70.9482 5.48403C70.6037 5.02463 70.0869 5.1969 69.6849 5.25433C68.3641 5.48403 66.9859 5.77116 65.6077 5.94343C65.8374 5.82858 66.0671 5.65631 66.3542 5.59888C67.5027 5.25433 68.6512 4.90978 69.7997 4.62265C70.776 4.39295 71.7522 4.16324 72.5562 5.1969C72.7859 5.48403 73.475 5.48403 73.9344 5.54146C75.0829 5.71373 76.2314 5.77116 77.3225 6.00086C79.5046 6.46026 80.8254 7.83847 81.4571 9.96321C82.0314 11.9731 82.3759 15.5909 82.1462 17.9454C81.3422 17.9454 81.2274 18.5196 81.0551 19.2661C80.4234 21.7354 80.0215 24.3196 78.4136 26.3869C77.667 27.3631 76.8631 28.2819 75.9443 29.1433C75.4849 29.6027 75.4274 29.9473 75.5997 30.4641C75.772 31.2106 75.9443 31.9572 76.0591 32.7611C76.3462 34.8859 76.6908 37.0106 77.5522 39.0205C77.7819 39.5373 77.9541 40.1116 78.1838 40.8007C79.1601 40.8581 79.6195 41.6621 80.0215 42.5234C81.3423 45.2799 82.663 47.9789 83.9264 50.7353C84.0987 51.0798 84.2135 51.5967 84.0412 51.8838C83.6393 52.5155 83.9264 53.0323 84.1561 53.5491C84.3858 54.066 84.6729 54.6402 84.9026 55.157C84.9601 55.3293 84.9026 55.559 84.7878 55.7887C83.3521 54.1234 82.663 52.1135 81.7442 50.2185C80.8254 48.266 79.7343 46.4284 78.7581 44.4759C78.5284 44.5333 78.2987 44.6482 78.069 44.763C77.667 44.0165 77.3799 43.3274 77.2076 42.5234C76.9205 40.9155 76.3462 39.365 75.8294 37.5849C75.0254 38.1017 74.4512 38.5037 73.8195 38.9056C73.3601 39.3076 72.6136 39.7096 71.9819 40.169Z" fill="black"/>
<path d="M46.8872 5.77148C47.1169 6.28831 47.2317 6.57544 47.404 6.97742C47.9783 6.91999 48.5525 6.86257 49.1268 6.80514C51.9406 6.51801 54.8119 6.23089 57.6258 6.63287C58.5446 6.74772 59.4059 7.03484 60.2673 7.3794C61.0713 7.72395 61.7604 7.78138 62.4495 7.26455C62.6792 7.09227 63.0237 7.03484 63.4257 7.20712C63.0237 7.43682 62.5643 7.66652 62.1049 7.89623C62.2198 8.18335 62.2772 8.47048 62.4495 8.87246C61.8752 8.70018 61.3584 8.64276 60.899 8.47048C58.0852 7.26455 55.099 7.14969 52.1129 7.32197C50.6773 7.43682 49.2991 7.6091 47.8634 7.78138C47.1743 7.8388 46.4852 7.95365 45.9684 7.32197C43.6714 9.10216 41.4318 10.8249 39.1922 12.5477C38.7902 12.2606 38.9625 11.916 39.0773 11.5715C39.2496 10.9398 39.4793 10.2507 39.5367 9.56157C39.5942 8.98731 39.307 8.58533 38.6754 8.52791C36.2061 8.47048 33.6793 8.24078 31.3823 9.38929C30.9803 9.56156 30.5784 9.79127 30.0615 10.0784C30.2338 10.3081 30.4061 10.5378 30.6358 10.8249C30.4061 11.0546 30.2338 11.2843 29.9467 11.4566C28.0516 12.5477 27.3051 14.4427 26.5586 16.3378C26.4437 16.5675 26.4437 16.912 26.5012 17.1417C26.7883 18.6348 26.7883 20.1279 26.4437 21.6209C26.3863 21.8506 26.4437 22.0803 26.4437 22.3674C27.5348 22.1952 28.2239 21.2189 29.315 21.1615C28.511 21.7358 27.7071 22.2526 26.9031 22.8268C26.0992 23.4011 26.0992 23.5734 26.5586 24.7219C27.2477 24.2625 27.9368 23.8605 28.6259 23.4011C28.3388 24.1476 27.6497 24.5496 27.0754 25.009C26.4437 25.4684 26.2715 25.9852 26.4437 26.7892C26.9031 29.6605 28.7407 31.1535 31.3249 31.9575C32.5883 32.3595 33.5645 32.0149 34.0813 30.8664C34.9427 28.9139 35.6892 26.9615 36.2635 24.9516C36.8377 23.0565 37.1823 21.1041 37.5843 19.209C37.9288 17.7734 38.216 16.3378 38.5031 14.9021C38.5605 14.6724 38.6179 14.4427 38.7328 14.2705C38.9051 14.0982 39.1922 13.9833 39.4219 13.9833C39.5942 13.9833 39.8239 14.2705 39.8239 14.4427C39.8239 14.9021 39.8239 15.3615 39.709 15.8209C38.7328 19.9556 37.814 24.1476 36.7803 28.2823C36.608 29.0862 36.0912 29.7753 35.6892 30.5219C35.3447 31.1535 35.2298 31.6704 35.4021 32.4743C35.7467 34.0248 35.8615 35.6327 36.0912 37.2406C36.2061 37.9297 36.3209 38.5614 36.4932 39.4802C35.8041 39.0208 35.6892 38.4466 35.5744 37.9297C35.3447 36.609 35.1724 35.2307 35.0001 33.8525C34.9427 33.3931 34.8278 32.9912 34.713 32.5317C34.0239 32.8189 33.4496 33.106 32.8754 33.2209C31.612 33.508 30.4061 33.0486 29.315 32.4743C26.3863 31.0387 24.9507 28.5694 24.8358 25.411C24.721 22.5397 24.9507 19.7259 25.6398 16.9694C26.214 14.6724 27.1903 12.5477 29.315 11.1121C28.8556 10.8249 28.4536 10.6526 27.9368 10.3081C28.3962 10.0784 28.6833 9.90612 28.9705 9.73384C30.8081 8.81503 32.7031 8.24078 34.713 7.78138C35.4021 7.66652 36.0338 7.49425 36.7229 7.89623C37.0674 8.12593 37.6417 7.95365 38.1011 8.01108C38.4457 8.01108 38.8476 8.01108 39.1922 8.01108C39.9961 8.12593 40.2258 8.41306 40.1684 9.21701C40.1684 9.79127 40.0536 10.3655 39.9961 11.1121C41.2595 10.1932 42.3506 9.38929 43.4417 8.58533C44.6476 7.6091 45.6813 6.74772 46.8872 5.77148Z" fill="black"/>
<path d="M22.3661 61.2443C21.275 61.8185 20.1265 62.5076 18.9206 63.0819C15.4751 64.6324 11.9721 64.5749 8.46916 63.369C6.34442 62.6225 4.2771 61.6462 2.89889 59.7512C2.43949 59.1769 2.03751 58.5453 1.69295 57.9136C1.29098 57.0522 1.00385 56.1334 0.601871 55.2146C-0.891191 51.4819 0.48702 46.7156 3.70285 44.5334C5.02363 43.6146 6.22957 42.5236 7.78005 42.0642C9.67509 41.4325 11.6276 40.8582 13.6374 40.7434C16.2216 40.5711 18.6335 41.3176 20.8156 42.5236C21.6196 42.983 22.4235 43.6146 22.9978 44.3612C24.0315 45.7394 25.0077 47.2324 25.7542 48.7829C26.673 50.8502 27.075 53.0898 26.5582 55.3294C26.5008 55.674 26.4433 55.9611 26.3285 56.2482C26.0988 57.167 26.2711 57.9136 26.9602 58.6601C28.0512 59.866 28.5681 61.4165 28.97 62.967C29.1423 63.7135 28.7978 64.1155 28.1087 64.0007C26.0413 63.5413 24.0315 62.7947 22.3661 61.2443ZM28.2235 63.1967C27.8215 61.3017 27.1324 59.6938 26.0413 58.6027C25.2948 57.9136 25.2948 57.2819 25.5819 56.4205C25.8691 55.3869 26.0988 54.2383 26.0988 53.2047C26.0413 49.5295 23.974 46.773 21.8493 44.0166C21.7344 43.9018 21.5622 43.7869 21.3899 43.6721C18.8057 42.0642 16.1067 41.1453 13.0058 41.5473C9.61767 42.0067 6.45927 43.0404 3.8177 45.28C2.26721 46.5433 1.23355 48.0938 1.06127 50.1611C0.888999 52.171 1.00385 54.0661 1.80781 55.9611C2.32464 57.167 2.84146 58.3156 3.64542 59.2918C5.25333 61.2443 7.4355 62.1631 9.73252 62.8522C13.0632 63.8858 16.279 63.369 19.3226 61.8185C20.5859 61.1868 21.7919 60.4403 23.1127 59.6938C23.0552 60.1532 22.9978 60.4977 22.9404 60.8423C24.6057 61.8759 26.0988 62.967 28.2235 63.1967Z" fill="black"/>
<path d="M46.7141 37.9292C47.4607 38.2163 48.3795 37.9292 49.0686 38.9054C49.5854 39.6519 49.7003 40.2836 49.4706 41.0876C49.1834 42.2361 48.3795 43.04 47.6904 43.9588C47.5181 44.1885 47.3458 44.3608 47.1735 44.5905C46.1973 45.8539 44.9914 45.8539 44.0726 44.5331C43.728 44.0737 43.4409 43.4994 43.1538 42.9826C42.7518 42.1786 42.4646 41.3747 42.1201 40.5707C41.6607 39.4796 41.7755 39.1925 42.8092 38.5034C43.6706 37.9292 44.5894 37.642 45.623 37.8143C45.9676 37.8717 46.3122 37.8717 46.7141 37.9292ZM43.2112 40.341C43.2686 40.341 43.326 40.341 43.3835 40.3984C43.4409 40.1687 43.4983 39.8816 43.5557 39.5945C43.4983 39.5945 43.3835 39.5371 43.326 39.5371C43.2686 39.8242 43.2112 40.1113 43.2112 40.341Z" fill="black"/>
<path d="M99.9475 85.8225C99.2584 85.3057 99.3158 84.5592 99.2584 83.8126C99.1436 81.6879 98.9139 79.6206 98.4545 77.5533C98.1673 76.4048 97.7079 75.4285 96.8465 74.5671C96.5594 74.28 96.3871 73.9355 96.1 73.5909C96.5594 73.2464 96.904 73.0741 97.3634 72.6721C95.8703 72.2701 94.4347 72.0404 93.2287 71.4662C92.0228 70.8919 90.6446 70.7196 89.4961 69.8583C90.4723 68.7097 90.5298 68.6523 91.6208 69.0543C93.401 69.686 95.1238 70.4325 96.8465 71.1216C97.8802 71.5236 98.9713 71.9256 100.062 72.3275C100.062 73.4761 98.8564 73.4761 98.397 74.1077C100.005 77.9552 100.866 81.7453 99.9475 85.8225Z" fill="black"/>
<path d="M59.9797 26.1569C59.6351 26.9035 59.348 27.65 58.8886 28.3391C58.1995 29.2579 56.9361 29.0856 56.4193 28.052C55.6728 26.5589 56.5916 24.6639 58.1421 24.4342C59.4054 24.1471 60.0371 24.7787 59.9797 26.1569Z" fill="black"/>
<path d="M47.2892 23.6309C46.7723 21.8507 47.1169 20.1279 46.8298 18.4052C46.5426 16.7398 46.3129 15.0745 46.0258 13.3517C46.2555 13.2369 46.5426 13.122 46.8872 13.0072C46.5426 11.3992 46.2555 9.79133 45.8535 7.83887C46.2555 8.18342 46.5426 8.3557 46.5426 8.52797C46.9446 10.2507 47.2317 12.0309 47.5763 13.7537C47.6337 13.9834 47.6337 14.2705 47.5189 14.4428C46.9446 15.1893 47.2892 15.9933 47.3466 16.7972C47.4614 18.922 47.5189 21.1041 47.5763 23.2289C47.5763 23.3437 47.4614 23.4012 47.2892 23.6309Z" fill="black"/>
<path d="M42.5801 26.3867C42.293 27.0758 42.1207 27.65 41.891 28.2243C41.6613 28.7411 41.2019 28.9708 40.6851 28.9134C40.1683 28.856 39.7663 28.5689 39.5366 28.1094C39.0197 27.0758 39.6514 24.951 40.6851 24.3194C41.2019 24.0322 41.7187 24.0897 41.9484 24.6065C42.2356 25.1808 42.4078 25.8124 42.5801 26.3867Z" fill="black"/>
<path d="M56.7635 12.7199C56.7635 12.9496 56.7635 13.2367 56.7061 13.409C56.5913 13.6961 56.419 13.9832 56.2467 14.2704C54.6388 17.4862 53.72 20.9317 52.7438 24.3773C52.3992 25.6406 52.3418 26.7891 52.916 27.9951C53.0309 28.1673 53.0309 28.397 53.0883 28.8564C52.3992 28.397 51.9972 27.9951 51.9972 27.4208C51.9398 26.6168 51.825 25.7555 51.9972 24.9515C52.8012 21.4486 53.7774 17.9456 55.4428 14.7298C55.7873 14.0407 56.0744 13.3516 56.3616 12.6625C56.4764 12.605 56.5913 12.6625 56.7635 12.7199Z" fill="black"/>
<path d="M66.7564 44.6484C65.7801 46.3712 62.5643 48.094 60.2099 48.1514C59.9802 48.5534 59.693 48.9553 59.4633 49.3573C59.2336 49.7593 59.1188 50.3336 58.4297 50.4484C58.4871 50.1039 58.4871 49.8167 58.602 49.587C58.8891 48.9553 59.2911 48.3811 59.5782 47.7494C59.8653 47.2326 60.2099 47.0029 60.7841 47.2326C61.301 47.4623 61.7604 47.2326 62.2198 47.0029C63.4831 46.3138 64.7465 45.5672 66.0673 44.8781C66.297 44.8781 66.4693 44.8207 66.7564 44.6484Z" fill="black"/>
<path d="M39.709 21.4479C40.8001 20.8736 41.7189 20.242 43.0971 20.7588C42.1783 21.4479 41.202 21.6202 40.2832 21.9073C40.2258 21.9647 39.9961 21.6776 39.709 21.4479Z" fill="black"/>
<path d="M48.3796 35.3449C48.2647 35.5172 48.2647 35.6895 48.2073 35.6895C46.8865 35.8043 45.5657 35.8618 44.1875 35.9766C44.8192 35.0578 45.9103 34.8855 48.3796 35.3449Z" fill="black"/>
<path d="M61.5307 21.9654C60.5544 21.4486 59.3485 21.7932 58.4297 20.9318C59.5782 20.1853 60.9564 20.6447 61.5307 21.9654Z" fill="black"/>
<path d="M70.4883 51.7118C70.8903 51.0227 71.5219 50.9653 72.3259 51.0227C72.4982 51.5395 72.6704 51.9989 72.9001 52.5732C71.9813 52.688 72.211 51.8841 71.8665 51.4247C71.4071 51.4821 70.9477 51.5969 70.4883 51.7118Z" fill="black"/>
<path d="M58.6016 42.3515C59.0035 41.203 60.0946 40.6288 60.7837 39.71C60.554 40.5713 59.9223 41.3179 58.6016 42.3515Z" fill="black"/>
<path d="M70.4884 51.7118C70.0864 51.9989 69.627 52.286 69.0527 52.688C69.0527 51.7118 69.6844 51.3672 69.9715 50.793C69.9715 51.1949 69.8567 51.6543 70.4884 51.7118Z" fill="black"/>
<path d="M69.7998 49.6438C70.2592 49.2993 70.6612 48.9547 71.178 48.5527C71.3503 49.4715 71.3503 49.4715 70.8335 49.529C70.4315 49.529 70.0869 49.5864 69.7998 49.6438Z" fill="black"/>
<path d="M69.7423 49.6445C69.2829 50.0465 68.766 50.5059 68.3066 50.9079C68.766 49.9891 68.766 49.9891 69.7423 49.6445Z" fill="black"/>
<path d="M70.7754 38.7329C71.2348 38.3883 71.6368 38.0438 72.0962 37.6992C72.1536 37.7566 72.211 37.8141 72.2685 37.9289C71.8665 38.2735 71.4071 38.6755 71.0051 39.02C70.8902 38.9626 70.8328 38.8477 70.7754 38.7329Z" fill="black"/>
<path d="M74.2214 36.551C73.8194 36.8381 73.4748 37.0678 73.0729 37.3549C73.0154 37.2975 72.958 37.2401 72.958 37.1827C73.36 36.8955 73.7045 36.6084 74.1065 36.3213C74.1639 36.3787 74.1639 36.4936 74.2214 36.551Z" fill="black"/>
<path d="M50.8491 43.9592C50.5045 44.0166 50.2748 44.1315 50.1026 44.0741C49.9877 44.0741 49.9303 43.8444 49.8154 43.6721C49.9877 43.6147 50.16 43.4424 50.3323 43.4424C50.5045 43.4998 50.6194 43.7295 50.8491 43.9592Z" fill="black"/>
<path d="M39.9961 44.8199C40.2832 44.7051 40.6278 44.5902 41.1446 44.418C40.8575 45.1645 40.5129 45.2219 40.1109 45.1645C40.1109 45.0496 40.0535 44.9348 39.9961 44.8199Z" fill="black"/>
<path d="M44.2451 53.8942C44.6471 53.5497 45.0491 53.2625 45.4511 52.918C45.5085 52.9754 45.5659 53.0902 45.6233 53.1477C45.1639 53.4348 44.9342 53.9516 44.2451 53.8942Z" fill="black"/>
<path d="M50.9639 45.7968C51.1361 45.6819 51.3084 45.5096 51.3658 45.5671C51.4807 45.6245 51.5955 45.7968 51.7104 45.9116C51.5955 45.969 51.4807 46.1413 51.4233 46.1413C51.3084 46.0839 51.1936 45.969 50.9639 45.7968Z" fill="black"/>
<path d="M71.9239 40.1113C71.7516 40.341 71.6367 40.5707 71.4644 40.8004C71.3496 40.341 71.5793 40.1688 71.9239 40.1113Z" fill="black"/>
<path d="M41.8903 45.2803C41.9477 45.51 42.0625 45.6822 42.0051 45.7397C41.9477 45.8545 41.8328 45.9694 41.718 45.9694C41.6606 45.9694 41.4883 45.7397 41.4883 45.7397C41.5457 45.5674 41.6606 45.4525 41.8903 45.2803Z" fill="black"/>
<path d="M52.8018 43.7866C52.6869 43.6143 52.5721 43.4994 52.5146 43.3272C52.5146 43.2697 52.6869 43.1549 52.7444 43.04C52.8592 43.1549 52.9741 43.2697 53.0889 43.3846C53.0889 43.442 52.9166 43.5569 52.8018 43.7866Z" fill="black"/>
<path d="M61.7602 78.1846C61.4731 79.2757 61.3008 80.3667 60.9563 81.4004C60.2097 83.4677 58.487 83.5826 57.1662 83.0083C55.5583 82.3192 53.8929 81.745 52.285 81.1707C50.2177 80.4816 49.7009 78.5866 51.1939 76.9786C53.0316 74.9688 55.2712 73.8202 58.0276 73.4757C58.5444 73.4183 59.0038 73.3608 59.5206 73.3034C60.6117 73.246 61.4731 73.8777 61.6454 74.9688C61.7602 76.1173 61.7602 77.1509 61.7602 78.1846Z" fill="#F15748"/>
<path d="M58.1994 67.7903C57.9697 68.6516 57.74 69.4556 57.4528 70.2596C57.2231 70.8912 56.6489 71.1209 56.132 70.9487C55.5578 70.7764 55.3281 70.3744 55.3855 69.6853C55.4429 68.7665 56.0172 68.1922 56.5914 67.618C56.9934 67.2734 57.4528 67.3309 58.1994 67.7903Z" fill="#F15748"/>
<path d="M65.263 69.2262C65.8946 69.2836 66.1818 69.6856 66.0669 70.3173C65.9521 71.0638 64.6313 72.0975 63.8273 72.04C63.2531 71.9826 62.8511 71.4658 62.9659 70.8915C63.1956 70.0876 64.4016 69.1688 65.263 69.2262Z" fill="#F15748"/>
<path d="M67.0428 79.8503C66.124 79.7928 65.8369 79.276 66.2388 78.4721C66.5834 77.7829 67.2151 77.381 67.9042 77.2087C68.7656 76.979 69.2824 77.6107 69.0527 78.4721C68.823 79.276 67.9042 79.8503 67.0428 79.8503Z" fill="#F15748"/>
<path d="M37.124 87.2007C37.928 86.6839 38.6745 86.1096 39.4785 85.5928C39.5359 85.6502 39.5933 85.765 39.6507 85.8225C38.8468 86.3393 38.1003 86.9136 37.2963 87.4304C37.2963 87.373 37.1814 87.3155 37.124 87.2007Z" fill="black"/>
<path d="M21.6199 57.5686C20.9882 57.7983 20.4139 57.7983 20.1842 58.4874C20.1268 58.7171 19.61 58.9468 19.2654 58.8893C15.9348 58.8893 12.5467 58.9468 9.2734 58.2002C8.41202 58.028 7.55064 57.8557 6.74668 57.626C6.00015 57.4537 5.59817 56.9943 5.54075 56.1904C5.48332 54.5824 5.36847 52.9745 5.25362 51.3666C5.19619 50.6775 5.4259 50.2755 6.05758 49.8161C8.01004 48.4953 9.90508 47.0023 11.8001 45.6241C12.0872 45.4518 12.3744 45.2795 12.6041 45.1072C13.1209 44.7627 13.5229 44.8201 13.9823 45.2795C14.3268 45.6241 14.7862 45.9112 15.1308 46.3132C16.509 47.8062 18.2318 48.8399 19.9545 49.8736C20.7011 50.333 21.0456 50.7924 20.9308 51.6537C20.8159 52.63 20.8159 53.5488 20.7585 54.525C20.7011 55.5587 20.6436 56.6498 21.6199 57.5686ZM7.89519 56.7646C8.18232 56.9369 8.23974 57.0517 8.35459 57.1092C11.7427 57.8557 15.1308 58.028 18.5763 58.0854C18.7486 58.0854 18.9783 58.0854 19.0932 57.9705C19.2654 57.8557 19.4951 57.6834 19.4951 57.5111C19.4951 57.3389 19.3803 57.0517 19.208 56.9943C17.7724 56.1904 16.3367 55.3864 14.9011 54.6399C14.3268 54.3527 13.6952 54.2953 13.0635 54.5824C11.3981 55.2141 9.73281 55.9607 7.89519 56.7646ZM13.2358 45.7963C11.513 46.8874 9.61795 47.6914 8.35459 49.529C10.1348 50.2755 11.8575 49.9884 13.5229 50.2181C15.3031 50.5052 17.7724 50.3904 18.4615 50.0458C16.7387 48.6676 15.0159 47.2894 13.2358 45.7963ZM12.7764 53.8359C10.4219 52.7448 8.35459 51.7686 6.22985 50.7349C5.82787 52.3428 6.17243 53.8359 6.28728 55.3864C6.28728 55.7884 6.63183 56.0755 7.03381 56.0181C7.55064 55.9607 8.06747 55.9032 8.52687 55.7309C9.84766 55.1567 11.1684 54.525 12.7764 53.8359ZM19.8397 51.424C18.1743 51.8834 16.8536 52.8023 15.2456 53.5488C16.8536 54.4102 18.2318 55.1567 19.61 55.9607C20.012 54.2953 20.1268 52.6874 19.8397 51.424ZM17.4278 51.3092C14.6714 51.1943 12.0872 51.0795 9.5031 50.9072C10.1922 51.7686 11.111 51.9983 11.9724 52.4577C13.3506 53.1468 14.6714 53.4914 16.0496 52.3428C16.3942 51.9983 17.0258 52.0557 17.4278 51.3092Z" fill="#F15748"/>
<path d="M40.5696 26.4438C40.855 26.4438 41.0864 26.2124 41.0864 25.927C41.0864 25.6415 40.855 25.4102 40.5696 25.4102C40.2841 25.4102 40.0527 25.6415 40.0527 25.927C40.0527 26.2124 40.2841 26.4438 40.5696 26.4438Z" fill="white"/>
<path d="M57.511 26.4438C57.7964 26.4438 58.0278 26.2124 58.0278 25.927C58.0278 25.6415 57.7964 25.4102 57.511 25.4102C57.2255 25.4102 56.9941 25.6415 56.9941 25.927C56.9941 26.2124 57.2255 26.4438 57.511 26.4438Z" fill="white"/>
<path d="M44.0731 39.7094C44.4751 39.5946 44.9919 39.5371 45.4513 39.5371C46.0256 39.5371 46.5998 39.5946 47.0592 39.7094C47.2315 39.7668 47.3464 39.652 47.4038 39.4797C47.4612 39.3074 47.3464 39.1926 47.1741 39.1352C46.6573 39.0203 46.0256 38.9629 45.4513 38.9629C44.9345 38.9629 44.3602 39.0203 43.9008 39.1352C43.7286 39.1926 43.6711 39.3074 43.7286 39.4797C43.786 39.652 43.9583 39.7668 44.0731 39.7094Z" fill="white"/>
<path d="M46.1981 26.387C45.3367 27.9375 44.5328 29.4305 43.5566 30.9236C42.6377 32.3592 41.317 33.3355 39.8239 34.082C39.1922 34.4265 38.4457 34.484 37.6992 34.1968C35.2299 33.2206 33.2774 31.785 32.4734 29.1434C32.1863 28.1672 31.7843 27.2484 31.6121 26.2721C31.0378 23.4009 32.6457 21.5632 34.5982 20.2999C36.2061 19.2662 37.9863 18.5771 39.8239 18.29C41.6615 17.9454 43.5566 17.8306 45.4516 17.8306C49.012 17.8306 52.5149 17.6009 56.0179 17.5435C58.7743 17.486 61.6456 17.7157 64.2871 18.5771C66.1822 19.2088 67.3307 20.7019 67.5604 22.6543C67.7327 23.9177 67.6753 25.2385 67.2158 26.4444C66.6416 28.0523 65.8951 29.5454 64.7466 30.8087C63.8852 31.7275 62.9089 32.3018 61.703 32.5889C60.7842 32.8186 59.808 32.9335 58.8892 33.1058C58.602 33.1632 58.2575 33.1632 57.9129 33.0483C56.0753 32.5315 54.5248 31.6127 53.606 29.8899C53.0892 28.9711 52.6872 27.9949 52.3427 27.0187C52.1704 26.5592 51.9407 26.2721 51.3664 26.2147C50.1031 26.0998 48.8971 25.8701 47.6912 26.3295C47.1744 26.387 46.6575 26.3295 46.1981 26.387ZM34.0814 29.7177C34.9427 31.2681 36.0912 32.3592 37.6417 32.9335C38.3308 33.1632 38.9625 33.1632 39.5942 32.7038C40.9724 31.785 42.2932 30.8087 42.9249 29.1434C43.0397 28.7414 43.3843 28.4543 43.5566 28.1097C44.5328 26.6741 45.7387 25.3533 45.911 23.5157C45.9684 22.8266 46.0259 22.1375 46.0833 21.4484C46.1407 21.2187 46.1981 20.989 46.2556 20.7593C46.6575 20.989 46.8298 21.2187 46.8298 21.4484C46.8298 22.0801 46.7724 22.7117 46.715 23.3434C46.6575 23.9751 46.5427 24.5494 46.4278 25.2385C48.2654 25.1236 49.8734 25.0662 51.5961 24.9513C51.1941 22.6543 51.9981 20.8167 53.606 19.3236C53.8357 19.0939 54.008 18.8068 54.2377 18.5197C54.008 18.4048 53.9506 18.3474 53.8357 18.3474C49.1268 18.4623 44.4179 18.7494 39.7091 19.3811C37.0675 19.7256 35.0002 21.0464 33.4497 23.2286C32.4734 24.5494 32.5309 26.6167 33.5071 27.8226C34.0814 27.4206 34.6556 27.0187 35.2299 26.6167C34.8853 27.5355 33.7368 27.7652 33.5071 29.0285C34.4259 28.4543 35.0576 28.0523 35.7467 27.7078C35.8041 27.7652 35.8041 27.8226 35.8615 27.88C35.3447 28.5117 34.713 29.1434 34.0814 29.7177ZM54.2951 28.5117C55.6159 31.383 57.7406 32.4741 60.5545 32.0147C60.7842 31.9572 61.0139 31.8998 61.2436 31.8998C62.507 31.6701 63.598 31.0384 64.2871 30.0048C64.9763 29.0285 65.5505 27.9949 66.0673 26.9038C66.5842 25.7553 66.8139 24.4345 66.699 23.1137C66.5267 21.0464 65.0911 19.4385 62.7941 19.0365C60.8416 18.692 58.8317 18.5197 56.8218 18.29C56.2476 18.2326 55.7882 18.3474 55.5011 18.9791C55.3288 19.3236 54.9842 19.6108 54.6971 19.8979C53.0892 21.3335 52.6298 23.1137 52.9743 25.1236C53.0892 25.6404 52.9743 26.3295 53.5486 26.6741C54.5248 26.3295 55.1565 25.3533 56.4199 25.2385C55.4436 26.2147 54.1228 26.5018 53.7209 27.88C54.5248 27.7078 54.9268 26.8464 55.7882 26.9612C55.3288 27.5355 54.8119 28.0523 54.2951 28.5117Z" fill="black"/>
<path d="M97.5365 108.506C94.3207 109.654 90.8752 110.286 87.4296 110.286C86.6257 110.286 85.8217 110.228 85.0178 110.171C83.8693 110.056 82.6633 109.826 81.6297 109.367C80.6534 108.85 79.9069 108.161 79.5623 107.013C79.5049 106.783 79.4475 106.553 79.4475 106.323C79.4475 105.807 79.6198 105.29 79.9643 104.945C80.3089 104.601 80.7108 104.371 81.3425 104.371C81.6871 104.371 81.9168 104.428 82.1465 104.601C82.491 104.83 82.7782 105.175 83.0079 105.634C83.2376 106.094 83.295 106.611 83.295 107.07C83.295 108.678 82.491 110.171 81.2851 111.319C80.0792 112.468 78.4138 113.272 76.7485 113.559C76.1168 113.674 75.4277 113.731 74.796 113.731C72.0396 113.731 69.2832 112.927 66.5842 112.066C56.9941 109.137 47.117 106.496 37.0101 106.438C36.9526 106.438 36.8952 106.438 36.8378 106.438C35.517 106.438 34.0814 106.496 32.818 107.185C31.8992 107.702 31.1527 108.506 30.8656 109.539C30.8081 109.769 30.7507 109.941 30.7507 110.113C30.7507 110.745 31.0378 111.262 31.4398 111.607C31.8418 111.951 32.416 112.181 32.9329 112.181C33.2774 112.181 33.6794 112.123 33.9665 111.894C34.3111 111.721 34.5982 111.377 34.7705 110.975C35.2299 110.056 35.4596 108.965 35.4596 107.931C35.4596 105.692 34.4834 103.395 32.5883 102.131C31.8992 101.672 31.2101 101.327 30.6933 100.925C30.4061 100.696 30.2339 100.466 30.0616 100.236C29.8893 100.007 29.7745 99.662 29.7745 99.2026C29.7745 99.1452 29.7745 99.0878 29.7745 98.9729C29.7745 98.4561 29.8893 97.9393 30.1764 97.4799C30.8656 96.2165 32.0715 95.4126 33.3923 94.6086C33.5645 94.4938 33.6794 94.2066 33.5071 94.0344C33.3923 93.8047 33.1051 93.7472 32.9329 93.9195C31.6121 94.7235 30.2339 95.6423 29.4299 97.1353C29.1428 97.7096 28.9131 98.3987 28.9131 99.0878C28.9131 99.1452 28.9131 99.2601 28.9131 99.3749C28.9705 99.8918 29.0854 100.351 29.3151 100.753C29.6596 101.327 30.119 101.729 30.6358 102.074C31.1527 102.418 31.6695 102.648 32.0715 102.993C33.6794 104.084 34.5982 106.094 34.5982 108.104C34.5982 109.022 34.4259 109.941 34.024 110.745C33.9091 110.975 33.7368 111.147 33.5645 111.262C33.3923 111.377 33.1626 111.434 32.9329 111.434C32.5883 111.434 32.2438 111.319 31.9566 111.09C31.7269 110.86 31.5547 110.573 31.5547 110.228C31.5547 110.113 31.5547 109.999 31.6121 109.884C31.8418 109.137 32.416 108.448 33.1626 108.046C34.1962 107.472 35.4596 107.414 36.7229 107.414C36.7804 107.414 36.8378 107.414 36.8952 107.414C46.8298 107.472 56.5922 110.113 66.1822 112.985C68.9386 113.789 71.7525 114.65 74.6812 114.65C75.3703 114.65 76.0594 114.593 76.8059 114.478C78.6435 114.191 80.4237 113.329 81.8019 112.066C83.1801 110.803 84.0989 109.137 84.0989 107.185C84.0989 106.381 83.8693 105.519 83.4098 104.83C83.1801 104.486 82.893 104.199 82.491 103.969C82.1465 103.739 81.6871 103.624 81.2277 103.624C80.4237 103.624 79.7346 103.969 79.2752 104.428C78.8158 104.888 78.5287 105.634 78.5287 106.381C78.5287 106.668 78.5861 107.013 78.6435 107.3C79.0455 108.735 80.0217 109.654 81.1703 110.228C82.3188 110.803 83.6395 111.032 84.8455 111.09C85.6494 111.147 86.5108 111.205 87.3148 111.205C90.8177 111.205 94.3781 110.573 97.7088 109.367C97.9385 109.31 98.0533 109.022 97.9385 108.793C97.9959 108.563 97.7662 108.448 97.5365 108.506Z" fill="#010202"/>
<path d="M45.9104 47.2321C45.5084 47.0024 45.1064 46.6005 44.647 46.4856C42.9243 45.9114 41.2015 45.3371 39.3639 46.1411C37.756 44.8777 36.7797 43.0975 36.0332 41.3173C34.9996 38.7906 31.8412 29.8322 30.9798 27.2481C30.5204 27.0758 30.061 26.9035 29.6016 26.6738C29.6016 26.7887 31.956 33.1629 32.0134 33.2778C32.6451 35.0005 33.2194 36.7233 33.9085 38.446C35.1144 41.4896 36.1481 44.5906 38.6748 46.945C39.4787 47.6915 40.3401 48.6678 40.053 50.1034C39.9381 50.5628 40.5124 51.1945 40.9144 51.5965C42.0629 52.6301 43.5559 53.0321 45.049 53.2618C46.2549 53.4341 47.1738 52.9173 47.4609 51.941C47.8629 49.7589 47.9777 48.4381 45.9104 47.2321Z" fill="black"/>
<path d="M80.0209 20.8166C78.815 19.6107 77.3219 19.381 75.4269 20.185C74.9675 20.3572 74.5081 20.5869 73.819 20.8741C73.8764 20.5295 73.8764 20.3572 73.9338 20.2424C74.8526 17.3137 74.4506 14.3276 74.4506 11.3989C74.4506 10.1355 73.7615 8.87214 73.417 7.55135C73.1873 6.63254 72.4407 5.82859 71.6942 5.02463C70.2011 3.47414 68.019 2.55534 65.5497 1.92366C64.0566 1.52168 62.5061 1.23455 60.9556 0.889998C57.2804 0.143467 53.4903 -0.315937 49.7003 0.258318C46.1399 0.832572 42.6943 1.5791 39.7657 3.01474C39.0765 3.35929 38.4449 3.70384 37.6983 3.93355C36.1478 4.5078 34.8845 5.19691 33.7934 6.05829L33.736 6.11571L33.5063 6.46027C33.334 6.74739 33.1617 6.9771 33.0469 7.26422C32.7597 7.83848 32.4726 8.41273 32.1855 8.98699C31.8409 9.67609 31.439 10.3652 31.037 10.9969C30.8647 12.3177 30.8647 13.6384 30.9796 14.9592C31.037 15.6483 31.2093 16.3949 31.2667 17.084C31.3815 18.5196 32.0132 19.9552 31.5538 21.3909C30.9796 21.276 30.4053 21.1612 29.831 21.0463L29.7162 21.1038C29.0845 21.2186 28.4528 21.276 27.8212 21.3909C27.7063 21.3909 27.5915 21.4483 27.4766 21.4483H27.4192L27.3043 21.5057C27.0172 21.6206 26.9598 21.678 26.7301 21.7929C25.6964 22.4245 24.8925 22.9988 24.3756 23.8602C24.3182 23.9176 24.3182 23.975 24.2608 24.0325C24.0885 24.4919 23.8588 25.0087 23.6865 25.5255C23.6865 25.6404 23.6865 25.7552 23.7439 25.8701C23.9162 26.5018 24.3756 27.1334 24.7202 27.7651C25.2944 28.8562 25.9835 29.775 27.8786 30.0621C28.1657 29.9473 28.4528 29.8899 28.74 29.8899C29.0845 29.8899 29.4291 29.8899 29.7162 29.8899V29.8324C30.0033 29.7176 30.4053 29.5453 30.6924 29.3156C31.3815 28.8562 32.2429 28.3968 32.6449 27.8225C33.1043 27.1334 33.1617 26.3295 33.3914 25.5829C33.6211 24.779 33.4489 24.0325 33.2766 23.2285C33.0469 21.9651 32.9894 20.7592 32.8746 19.4958C32.8172 18.8067 32.8172 18.1751 32.6449 17.486C32.1281 15.4761 31.8409 13.4662 32.1281 11.4563C32.4726 9.10184 33.8508 6.9771 36.6073 5.36918C40.9142 2.89989 46.025 1.23455 51.9398 0.717721C53.72 0.545445 55.5002 0.717721 57.1081 1.17712C57.9121 1.40683 58.6586 1.5791 59.4626 1.63653C64.114 2.09593 67.7893 3.47414 70.4308 6.05829C72.211 7.78105 72.7279 9.67609 73.0724 11.6286C73.1873 12.4325 73.1298 13.2939 72.9576 14.0979C72.7279 15.3038 72.2685 16.5671 71.9813 17.7731C71.8091 18.6345 71.5219 19.6107 71.8665 20.3572C72.5556 21.8503 72.211 23.3434 72.2685 24.8364C72.3259 26.0423 72.9576 27.1334 73.6467 28.1671C74.0486 28.7988 74.91 29.0285 75.8863 28.971C77.0922 28.8562 78.3556 28.6839 79.2169 28.0522C81.7437 26.2721 82.1456 22.8839 80.0209 20.8166Z" fill="black"/>
<path d="M25.639 24.5497C25.9261 25.9854 26.9023 27.2487 28.2805 27.823C28.3954 27.8804 28.5677 27.823 28.6825 27.6507C28.7974 27.4784 28.6825 27.3636 28.5102 27.2487C27.3617 26.7319 26.4429 25.6408 26.2132 24.3775C26.2132 24.2052 26.0409 24.0903 25.8687 24.1478C25.6964 24.2626 25.5815 24.4349 25.639 24.5497Z" fill="white"/>
<path d="M78.5282 21.9655C78.9302 22.6546 79.1025 23.4586 79.1025 24.2625C79.1025 24.7219 79.0451 25.2388 78.8728 25.6982C78.8154 25.8705 78.9302 25.9853 79.045 26.0427C79.2173 26.1002 79.3322 25.9853 79.3896 25.8705C79.5619 25.3536 79.6193 24.8368 79.6193 24.2625C79.6193 23.3437 79.3896 22.4824 78.9302 21.6784C78.8728 21.5635 78.7005 21.5061 78.5282 21.5635C78.4708 21.621 78.4134 21.7932 78.5282 21.9655Z" fill="white"/>
<path d="M43.4416 47.5199C44.6476 47.7496 45.7961 48.6109 46.3703 49.702C46.4277 49.8169 46.6 49.8743 46.7723 49.8169C46.8871 49.7594 46.9446 49.5872 46.8871 49.4149C46.198 48.1515 44.9921 47.2327 43.5565 46.9456C43.3842 46.8882 43.2693 47.003 43.2119 47.1753C43.2119 47.2902 43.3268 47.4624 43.4416 47.5199Z" fill="white"/>
</svg>
