<svg width="207" height="108" viewBox="0 0 207 108" fill="none" xmlns="http://www.w3.org/2000/svg">
<path d="M181.005 27.633C180.93 26.7718 180.848 25.8324 180.468 25.0779C179.133 22.3586 174.358 21.5302 171.34 21.9625C147.589 25.4635 126.258 25.2726 102.5 28.6954C78.5231 29.613 54.4523 33.9322 30.4684 34.7716C27.4227 34.8907 22.9456 36.5603 22.0265 39.4846C21.7841 40.2957 21.8665 41.2351 21.942 42.0962C22.7747 53.3832 29.9986 68.7447 25.7391 79.1533C24.3169 82.5967 29.9147 87.4535 37.5883 84.7041C40.2476 83.7522 53.2285 83.4398 55.9084 82.7227C71.0889 78.8962 83.8 79.0819 99.2459 79.1767C101.366 79.2206 104.116 78.4182 106.888 77.8505C109.636 77.9163 112.554 78.1244 114.639 77.777C129.824 74.897 139.192 72.7037 154.798 73.7309C157.554 73.8749 170.39 71.9186 173.173 72.3757C181.197 73.6188 185.868 67.9073 183.87 64.7748C177.789 55.3064 182.149 38.8917 181.005 27.633Z" fill="white"/>
<path d="M45.5501 33.7837L49.0493 82.3288L24.674 87.4589L19.7571 36.3028L45.5501 33.7837Z" fill="#F15748"/>
<path d="M77.6369 33.0262C76.1268 34.5761 74.6098 36.0483 72.8801 37.7753C73.215 36.2553 75.5121 33.849 77.6369 33.0262Z" fill="black"/>
<path d="M182.076 21.1296L187.108 71.8057L161.48 71.7266L156.261 23.3389L182.076 21.1296Z" fill="#F15748"/>
<path d="M186.95 67.7294C186.445 63.7508 185.939 59.7722 185.512 55.7865C185.118 52.1923 184.306 43.8224 183.991 40.2211C183.542 36.0005 183.165 31.6946 182.717 27.4741C182.648 26.6912 182.664 25.9795 182.595 25.1966C182.54 24.5703 182.415 24.0294 182.339 23.1682C181.532 23.794 181.658 24.3349 181.706 24.8829C182.092 28.3989 182.394 31.8436 182.781 35.3596C183.161 38.7972 183.54 42.2349 183.92 45.6725C184.306 49.1885 185.098 57.3235 185.562 60.8324C185.777 62.3911 185.992 63.9498 185.974 65.5297C186.058 65.601 186.065 65.6792 186.072 65.7575C186.127 66.3838 186.253 66.9248 186.308 67.5511C186.349 68.0209 186.397 68.5689 186.516 69.0315C186.635 69.4942 186.767 70.1135 186.491 70.5332C186.498 70.6115 186.575 70.6044 186.582 70.6827C185.974 70.8958 185.507 70.9382 185.034 70.9023C184.801 70.9235 184.645 70.9377 184.412 70.9589C184.023 70.9942 183.628 70.9513 183.161 70.9937C183.161 70.9937 183.161 70.9937 183.246 71.0649C175.966 72.0425 169.001 71.2553 161.997 71.8132C161.416 66.9734 160.842 62.2119 160.579 57.4221C160.231 52.5611 159.239 43.0239 158.735 38.1771C158.239 33.4085 157.199 28.6894 157.07 23.6506C158.703 23.5022 160.095 23.2966 161.495 23.1694C162.972 23.0351 164.463 23.0574 165.94 22.9231C167.339 22.7959 168.816 22.6616 170.216 22.5343C171.615 22.4071 173.092 22.2728 174.492 22.1456C175.976 22.0896 177.466 22.1118 179.021 21.9705C180.343 21.8503 181.754 22.7479 182.973 21.4534C181.285 20.9755 179.625 20.8108 177.915 20.9663C173.476 21.2909 169.123 21.6868 164.691 22.0896C156.832 22.7253 152.161 23.0711 144.302 23.7067C139.327 24.1591 134.351 24.6114 129.375 25.0638C124.251 25.6086 119.205 26.1463 114.158 26.6841C110.278 27.1158 106.469 27.4621 102.588 27.8938C98.6943 28.169 94.8849 28.5153 90.9909 28.7904C85.8529 29.1787 80.7928 29.5598 75.7326 29.941C70.7502 30.315 65.7746 30.7674 60.8059 31.2981C52.9607 32.0903 45.1932 32.8754 37.348 33.6676C32.9235 34.1488 28.5631 34.4663 24.1386 34.9475C22.4282 35.103 20.8299 35.6429 19.2453 36.3393C20.663 37.3152 21.9023 36.2556 23.224 36.1354C24.7011 36.0011 26.1645 35.7103 27.7125 35.4906C29.1119 35.3634 30.589 35.2291 31.9884 35.1018C33.3877 34.9746 34.8649 34.8403 36.2642 34.7131C37.7345 34.5005 39.2048 34.2879 40.6819 34.1536C42.0813 34.0264 43.4875 33.9774 45.1201 33.829C45.8702 38.8112 45.6669 43.6434 46.0077 48.4262C46.3554 53.2872 46.9593 62.8596 47.5403 67.6994C48.0366 72.468 48.3774 77.2507 48.6474 82.1188C41.5796 82.8403 34.8617 84.8715 27.6042 85.2157C28.8091 83.7647 29.7306 82.655 30.652 81.5454C29.0537 82.0852 28.0614 83.2802 27.0622 84.397C26.3534 85.2505 25.6103 85.7127 24.2543 85.4414C25.1026 82.6023 27.3251 81.1376 29.3235 78.9042C27.1101 79.5789 26.271 81.628 24.4669 82.5023C23.6391 80.2101 23.5887 77.8473 23.4675 75.5699C23.3142 72.0327 22.6783 63.8836 22.4472 60.3535C22.223 56.9017 21.9989 53.4499 21.7747 49.9981C21.5436 46.468 21.3194 43.0162 21.0107 39.4932C20.9626 38.9452 20.9923 38.3901 20.0891 37.9198C20.0869 38.788 20.1349 39.3361 20.1898 39.9624C20.2584 40.7453 20.3979 41.4428 20.4665 42.2257C20.6107 46.5528 20.9035 50.7875 21.2741 55.0151C21.512 58.6235 22.2462 67.0005 22.4841 70.6088C22.7563 74.6087 23.0285 78.6085 23.1453 82.6224C23.1979 84.117 23.653 85.7328 22.5966 87.0914C23.2735 87.6612 23.8245 87.69 24.666 87.4557C26.1934 87.0012 27.826 86.8527 29.4517 86.626C32.9365 86.1514 36.4418 85.9116 39.8213 85.1308C46.1208 83.69 52.5163 83.3453 58.9553 82.6021C64.7014 82.0007 70.5596 81.7837 76.3126 81.2607C79.1891 80.9992 82.1639 80.9654 84.9992 80.2342C86.2225 79.8862 87.5716 80.0792 88.9001 80.0373C92.3986 79.7193 95.8124 79.33 99.3177 79.0902C101.89 78.9352 104.462 78.7802 107.021 78.4687C109.594 78.3137 112.152 78.0022 114.711 77.6906C118.202 77.2943 121.63 77.0616 125.128 76.7435C126.45 76.6233 127.744 76.19 129.002 76.2335C131.926 76.52 134.86 76.0165 137.73 75.6767C143.476 75.0754 149.279 74.2321 155.046 73.8656C161.428 73.3643 164.75 72.8255 171.207 73.1853C174.669 73.3441 178.154 72.8694 181.673 72.7862C183.312 72.7161 184.945 72.5676 186.527 72.7394C187.396 72.8182 187.934 72.6905 188.501 72.0076C186.991 70.8822 187.158 69.2099 186.95 67.7294ZM160.527 72.0258C160.216 72.054 159.834 72.1677 159.445 72.203C154.392 72.6624 152.364 72.7679 147.31 73.2274C140.391 73.8565 133.564 74.635 126.644 75.2641C122.913 75.6034 119.181 75.9427 115.449 76.282C113.273 76.4799 111.089 76.5995 108.912 76.7974L108.905 76.7191C108.439 76.7615 107.972 76.804 107.584 76.8393C107.273 76.8676 106.962 76.8958 106.651 76.9241C106.34 76.9524 106.029 76.9807 105.718 77.0089C105.251 77.0513 104.785 77.0938 104.396 77.1291L104.403 77.2074C102.226 77.4053 100.056 77.6815 97.8794 77.8794C94.1477 78.2187 90.4229 78.6363 86.6844 78.8973C79.7584 79.448 72.9101 79.9918 65.991 80.6209C60.9377 81.0803 55.8135 81.6251 50.7602 82.0845C50.3714 82.1199 50.0605 82.1482 49.6649 82.1052C48.5124 79.6848 45.9436 45.9068 45.9821 33.8295C51.4173 33.2565 68.6626 31.5307 74.4293 31.1642C73.2998 33.4765 71.0498 34.628 70.0255 37.2464C70.6063 36.7201 70.9813 36.5282 71.1939 36.2721C72.4058 34.8993 73.5399 33.5336 74.7517 32.1608C75.3897 31.3926 76.1396 31.0087 77.1503 30.9168C78.2387 30.8179 79.398 30.6336 80.4864 30.5346C85.4688 30.1605 93.7371 29.7245 98.7263 29.4287C99.6593 29.3438 100.592 29.259 101.525 29.1742C101.758 29.153 102.069 29.1247 102.303 29.1035C102.536 29.0823 102.847 29.054 103.08 29.0328C104.013 28.948 104.946 28.8632 105.879 28.7784C110.925 28.2406 115.887 27.6317 120.927 27.0157C125.895 26.485 130.864 25.9543 135.84 25.502C136.928 25.403 141.917 25.1072 141.917 25.1072C147.734 24.4205 150.087 24.4433 155.529 23.9485C157.887 35.6501 161.24 69.4357 160.527 72.0258Z" fill="black"/>
<path d="M177.895 21.817C176.639 23.5786 175.115 24.973 174.164 26.6281C174.249 26.6987 174.334 26.7692 174.418 26.8398C174.638 26.6628 174.936 26.4786 175.148 26.2239C176.141 25.0351 177.056 23.8536 177.971 22.672C178.326 22.2475 178.772 21.9712 179.219 21.6949C178.829 21.7308 178.355 21.6962 177.895 21.817Z" fill="black"/>
<path d="M131.477 73.0686C131.107 74.2008 130.54 74.8804 129.627 75.1998C130.328 75.1353 131.035 75.1487 131.806 74.9993C133.052 74.8847 134.361 74.6074 135.592 74.3372C135.592 74.3372 135.592 74.3372 135.67 74.33C135.592 74.3372 135.514 74.3443 135.514 74.3443C135.432 72.5478 136.983 71.4639 136.986 69.738C136.227 70.9059 135.391 72.081 134.717 73.3196C133.972 74.6432 133.894 74.6503 132.076 74.5038C132.157 72.7708 133.284 71.3337 133.93 69.7839C132.514 70.6201 131.833 71.7809 131.477 73.0686Z" fill="black"/>
<path d="M180.264 22.8501C178.987 24.3782 177.703 25.8285 176.426 27.3566C176.341 27.2861 176.256 27.2155 176.093 27.1522C176.542 25.1521 178.569 24.1033 179.846 22.5752C180.094 22.709 180.179 22.7796 180.264 22.8501Z" fill="black"/>
<path d="M17.2113 29.1885C16.3478 28.3358 15.5546 27.3982 14.6984 26.6229C12.8162 24.9326 10.9339 23.2423 9.05168 21.5521C8.70483 21.1955 8.35798 20.839 8.01113 20.4824C7.74918 20.1957 7.2398 19.7769 7.83179 19.4068C7.97979 19.3143 8.545 19.4934 8.79969 19.7028C9.47886 20.2612 10.0173 20.9894 10.6261 21.6327C12.5156 23.4004 14.4828 25.1604 16.3723 26.928C17.2212 27.626 17.4128 27.9977 17.2113 29.1885Z" fill="#F15748"/>
<path d="M13.8685 34.4885C13.324 35.4034 12.8226 35.0561 12.2575 34.872C9.48864 33.7102 6.66315 32.7895 3.66066 32.5142C3.1096 32.4861 2.60818 32.1388 2.1208 31.9475C2.28376 31.1462 2.67938 31.1886 3.08201 31.309C6.44453 32.1018 9.8637 32.6535 13.0562 34.1697C13.3671 34.1412 13.5366 34.283 13.8685 34.4885Z" fill="#F15748"/>
<path d="M13.7031 40.9821C13.5132 41.4688 13.542 41.7784 13.3866 41.7933C10.4379 43.7933 7.75805 46.1581 5.25518 48.7403C5.10702 48.8325 4.87399 48.8548 4.56329 48.8845C4.68268 48.4826 4.65392 48.173 4.79488 48.0033C7.54517 45.5537 9.94879 42.7468 13.7031 40.9821Z" fill="#F15748"/>
<path d="M201.986 76.8054C198.772 75.9226 195.635 75.0327 192.506 74.2207C192.428 74.2278 192.407 73.9941 192.301 73.6896C192.69 73.6538 192.986 73.4694 193.227 73.5259C195.876 74.2249 198.447 74.9311 201.096 75.6302C201.661 75.8139 202.226 75.9976 201.986 76.8054Z" fill="#F15748"/>
<path d="M193.997 66.0301C194.286 65.7682 194.498 65.5136 194.795 65.3292C196.419 64.2377 198.12 63.1388 199.744 62.0473C200.627 61.4166 201.509 60.786 202.399 60.2329C202.766 59.9637 203.133 59.6944 203.565 60.1233C203.226 60.7029 197.5 64.9184 195.558 65.9616C194.965 66.3304 194.965 66.3304 193.997 66.0301Z" fill="#F15748"/>
<path d="M189.759 80.8487C191.644 83.4012 193.225 86.0615 194.503 88.8295C194.596 88.9769 194.455 89.147 194.469 89.3019C193.777 89.4474 193.656 88.9902 193.465 88.6179C192.463 86.2921 191.088 84.1589 189.564 82.1184C189.111 81.459 189.111 81.459 189.759 80.8487Z" fill="#F15748"/>
<path d="M86.3442 47.1587C87.4995 46.4281 88.0489 45.0431 89.433 45.7863C89.9583 44.1675 89.2481 42.5001 90.0262 41.0949C90.1786 41.0815 90.4153 41.1394 90.5677 41.126C90.624 41.6714 90.8326 42.2035 90.7284 42.6845C90.484 45.5367 90.4683 48.3688 91.3753 51.1984C91.3913 51.3543 91.3392 51.5948 91.2871 51.8353C90.3805 51.9936 90.24 51.3769 90.0995 50.7602C89.7343 49.4555 89.2929 48.1576 88.7592 46.7105C86.577 47.9245 86.3365 50.0687 86.08 52.0571C84.8966 51.7679 84.9005 51.0599 84.9887 50.4231C85.4135 47.0832 85.0761 43.8104 84.8912 40.5241C84.8591 40.2124 85.192 39.7113 85.4206 39.6912C85.9461 39.5664 85.9943 40.034 86.0425 40.5015C86.0989 42.541 86.2476 44.7296 86.3442 47.1587Z" fill="black"/>
<path d="M103.35 41.0211C102.072 39.0884 100.658 38.8197 99.0866 39.2726L99.0103 39.2794C99.0103 39.2794 99.0103 39.2794 98.934 39.2861C97.7447 39.7055 97.5038 40.356 97.8779 41.7389C98.2358 42.966 98.1998 43.3625 98.1039 45.4162C98.6671 47.8838 98.2213 48.7883 98.9169 50.3003L98.9932 50.2936C99.9776 50.1282 101.412 49.8446 102.007 49.6349C103.433 49.2733 104.288 47.8607 104.545 45.8716C104.902 44.1096 104.343 42.4282 103.35 41.0211ZM101.488 48.3433C101.106 48.3769 100.383 48.8339 99.8325 48.7251C99.7159 48.342 99.6794 47.244 99.6311 46.7763C99.5467 46.705 99.5344 45.8408 99.5022 45.529C99.4941 45.4511 99.4861 45.3731 99.478 45.2952C99.478 45.2952 99.4619 45.1393 99.47 45.2172L99.4619 45.1393C99.4458 44.9834 99.4377 44.9054 99.4216 44.7495C99.3088 43.6582 99.1277 42.6515 99.2601 41.6959L99.252 41.6179C99.4327 41.1301 99.8746 40.9338 100.562 40.8733C101.859 40.759 103.419 42.4309 103.604 44.2239C103.898 46.3219 103.091 48.2022 101.488 48.3433Z" fill="black"/>
<path d="M71.8767 44.3658C70.5984 42.4331 69.184 42.1644 67.613 42.6174L67.5367 42.6241C67.5367 42.6241 67.5367 42.6241 67.4604 42.6308C66.2711 43.0502 66.0302 43.7007 66.4043 45.0837C66.7622 46.3107 66.7261 46.7072 66.6303 48.7609C67.1935 51.2285 66.7477 52.133 67.4432 53.645L67.5196 53.6383C68.504 53.473 69.9383 53.1893 70.5329 52.9796C71.9593 52.6181 72.8147 51.2055 73.0713 49.2163C73.4204 47.3764 72.8695 45.773 71.8767 44.3658ZM70.0143 51.6881C69.6326 51.7217 68.9094 52.1787 68.3589 52.0698C68.2423 51.6868 68.2058 50.5887 68.1575 50.121C68.0731 50.0498 68.0608 49.1856 68.0286 48.8737C68.0205 48.7958 68.0125 48.7178 68.0044 48.6399C68.0044 48.6399 67.9883 48.484 67.9964 48.5619L67.9883 48.484C67.9722 48.3281 67.9641 48.2501 67.948 48.0942C67.8352 47.0029 67.6541 45.9962 67.7865 45.0406L67.7784 44.9627C67.9591 44.4748 68.401 44.2785 69.0881 44.218C70.3859 44.1038 71.9454 45.7757 72.1307 47.5686C72.4246 49.6666 71.6174 51.5469 70.0143 51.6881Z" fill="black"/>
<path d="M131.923 46.1321C131.763 46.0675 131.587 45.8472 131.434 45.8606C130.749 45.9208 130.055 45.9031 129.369 45.9633C128.912 46.0035 128.447 45.9657 127.99 46.0059L127.982 45.9279C127.368 43.7017 127.516 41.4086 127.512 39.1289C127.516 38.4209 127.291 37.733 127.143 37.0384C126.983 36.9739 126.83 36.9873 126.686 37.0786C126.626 37.2411 126.413 37.417 126.429 37.5729C126.574 40.4693 126.795 43.359 126.939 46.2554C126.871 46.34 126.879 46.4179 126.887 46.4958C126.819 46.5804 126.827 46.6584 126.827 46.6584C126.851 46.8921 127.172 47.0212 127.416 47.157C127.501 47.2282 127.721 47.1302 127.873 47.1168C128.399 46.992 129.313 46.9117 129.923 46.8582C129.923 46.8582 129.923 46.8582 129.999 46.8515C130.692 46.8692 131.37 46.7311 132.048 46.5929C132.032 46.4371 132.016 46.2812 131.923 46.1321Z" fill="black"/>
<path d="M116.523 47.701C116.906 46.1714 116.913 44.7535 117.566 43.5938C118.407 42.0237 118.858 40.4093 118.986 38.6658C119.022 38.269 119.22 37.9366 119.461 37.2855C121.239 38.7826 121.388 40.974 122.485 42.6098C123.573 44.1675 123.691 46.0468 124.779 47.6045C124.634 47.696 124.566 47.7808 124.505 47.9436C124.183 47.8145 123.792 47.7701 123.53 47.4782C123.276 47.2644 123.228 46.7962 123.042 46.4976C121.958 44.2309 121.881 44.2376 119.524 44.6025C118.537 44.7681 118.364 45.3345 118.13 46.0636C117.804 46.6435 117.893 47.5018 116.523 47.701ZM120.083 40.3016C120.006 40.3083 119.845 40.2437 119.768 40.2505C119.559 41.2137 119.273 42.1837 119.012 43.3878C119.931 43.3069 120.467 43.2598 121.232 43.1924C120.813 42.127 120.486 41.2109 120.083 40.3016Z" fill="black"/>
<path d="M62.5373 41.9409C62.2807 42.4352 62.0322 44.5013 62.1446 47.086C62.2129 48.4953 62.2651 49.7487 62.3254 51.08C61.9243 50.1718 61.5232 49.2635 61.046 48.3619C60.2759 46.8571 60.1234 45.3766 58.6757 44.0099C58.5914 43.9387 58.5072 43.8674 58.423 43.7962C58.423 43.7962 58.423 43.7962 58.3388 43.725C58.1784 43.6604 57.9418 43.6026 57.645 43.7073C57.5929 43.9477 57.4646 44.1949 57.5569 44.344C58.4634 47.1735 58.4475 50.0054 58.1269 52.8641C58.0989 53.3383 58.2312 53.877 58.2874 54.4225C58.516 54.4024 58.6764 54.4669 58.905 54.4469C59.7671 53.1131 59.0652 51.5237 59.5222 49.9896C59.5142 49.9117 59.5062 49.8338 59.4982 49.7559C59.5101 49.1258 59.5983 48.4891 59.6103 47.859C59.6023 47.7811 59.5862 47.6253 59.5782 47.5473C59.6865 47.8523 59.871 48.1506 59.9793 48.4556C60.2039 49.1435 60.4205 49.7535 60.7213 50.4347C60.982 50.7263 61.1825 51.1804 61.5595 51.8549C61.6678 52.1599 62.1611 53.2173 62.4379 53.6648C62.478 54.0544 62.5261 54.5219 63.0515 54.3971C63.28 54.377 63.6048 53.7981 63.5807 53.5644C63.3198 50.285 63.0509 46.9278 63.4838 43.6661C63.5559 42.8736 63.4917 42.2502 62.5373 41.9409Z" fill="black"/>
<path d="M138.596 34.8052C138.339 35.2995 138.091 37.3655 138.203 39.9502C138.272 41.3595 138.324 42.6129 138.384 43.9442C137.983 43.036 137.582 42.1277 137.105 41.2261C136.334 39.7213 136.182 38.2408 134.734 36.8741C134.65 36.8029 134.566 36.7317 134.482 36.6604C134.482 36.6604 134.482 36.6604 134.397 36.5892C134.237 36.5247 134 36.4668 133.704 36.5715C133.652 36.812 133.523 37.0591 133.615 37.2083C134.522 40.0377 134.506 42.8696 134.185 45.7282C134.157 46.2025 134.29 46.7412 134.346 47.2866C134.575 47.2666 134.735 47.3311 134.964 47.311C135.826 45.9773 135.124 44.3878 135.581 42.8538C135.573 42.7759 135.565 42.698 135.557 42.6201C135.569 41.99 135.657 41.3533 135.669 40.7232C135.661 40.6453 135.645 40.4895 135.637 40.4116C135.745 40.7165 135.93 41.0148 136.038 41.3198C136.262 42.0077 136.479 42.6177 136.78 43.2989C137.041 43.5905 137.241 44.0446 137.618 44.7191C137.726 45.0241 138.22 46.0815 138.496 46.5289C138.537 46.9185 138.585 47.386 139.11 47.2613C139.339 47.2412 139.663 46.6623 139.639 46.4285C139.378 43.1492 139.11 39.792 139.542 36.5304C139.615 35.7378 139.55 35.1145 138.596 34.8052Z" fill="black"/>
<path d="M112.326 38.366C112.342 38.5219 112.435 38.6712 112.443 38.7491C112.507 39.3729 113.027 43.6547 112.955 44.4479C112.935 45.0004 112.927 44.9225 112.754 45.4885C112.497 45.9832 112.103 46.6474 111.617 47.1623C110.925 47.9314 110.314 47.9852 109.759 47.09C109.203 46.1947 108.793 45.2079 108.62 44.279C108.479 43.6619 108.119 39.4447 108.047 38.7429C107.665 38.7766 107.206 38.8169 106.824 38.8506L106.832 38.9286C107.07 40.4813 107.755 45.6141 108.444 47.0484C108.536 47.1976 108.637 47.4248 108.729 47.574C109.578 49.0729 111.537 49.3725 112.462 47.8748C113.266 46.7024 113.583 46.0449 113.828 44.6858C114.001 44.1198 113.537 38.8888 113.396 38.2718C113.014 38.3054 112.631 38.3391 112.326 38.366Z" fill="black"/>
<path d="M54.8931 43.9217C55.0367 44.6166 55.2563 45.3057 55.2477 46.0119C55.2369 48.2863 55.0739 50.572 55.6717 52.8009C55.6867 52.9565 55.7853 53.1844 55.7167 53.2679C55.587 53.5128 55.4649 53.8355 55.2366 53.8525C55.0844 53.8639 54.8262 53.5696 54.659 53.4252C54.5754 53.3531 54.5604 53.1974 54.629 53.1139C54.5038 50.2225 54.3025 47.3369 54.1772 44.4455C54.1622 44.2898 54.3755 44.1171 54.4366 43.9558C54.5812 43.8666 54.7409 43.9331 54.8931 43.9217Z" fill="black"/>
<path d="M94.7521 39.7908C94.9029 40.5636 95.13 41.3308 95.1208 42.0368C95.1308 44.5442 94.9807 46.9848 95.6006 49.4477C95.6156 49.6034 95.7142 49.8313 95.6528 49.9925C95.5227 50.2371 95.4075 50.6374 95.1788 50.6541C95.0263 50.6652 94.7677 50.3706 94.5928 50.1482C94.5091 50.0759 94.4942 49.9202 94.563 49.8368C94.4172 46.7124 94.1951 43.5935 94.0418 40.3912C94.0269 40.2355 94.2407 40.0632 94.2946 39.8241C94.4396 39.7352 94.5996 39.8019 94.7521 39.7908Z" fill="black"/>
<path d="M82.2038 40.5717C82.1273 40.5785 82.1192 40.5005 82.1192 40.5005C82.0346 40.4292 81.9501 40.3579 81.7971 40.3714C81.7206 40.3781 81.6522 40.4629 81.5757 40.4696C81.4227 40.4831 81.2778 40.5745 81.2859 40.6525C80.5657 41.8966 79.8535 43.2187 79.1333 44.4628L79.1414 44.5408C79.0126 44.7883 78.8155 45.1205 78.6867 45.3679C78.6022 45.2967 78.5176 45.2254 78.433 45.1541L78.3404 45.0049C77.9014 44.4925 77.4624 43.9802 77.0234 43.4679C76.7535 43.0981 76.4917 42.8063 76.1454 42.4433C75.7909 42.0022 75.3762 41.7239 74.9533 41.3675C74.7842 41.225 74.6231 41.1605 74.5305 41.0112L74.4459 40.94L74.3775 41.0247L74.3091 41.1094C74.2407 41.1942 74.0958 41.2856 74.1039 41.3636C74.1119 41.4416 74.12 41.5196 74.1281 41.5976C74.1443 41.7536 74.1604 41.9096 74.245 41.9809C75.3686 43.1413 76.4238 44.3865 77.5394 45.469L78.2321 46.1951L78.3252 47.8398C78.3941 49.2505 78.5234 50.4985 78.56 51.5973C78.5681 51.6753 78.4997 51.76 78.4997 51.76C78.5077 51.838 78.5158 51.916 78.6004 51.9873C78.6004 51.9873 78.6849 52.0585 78.7695 52.1298C78.9387 52.2723 79.1159 52.4929 79.2688 52.4794C79.4983 52.4592 79.6271 52.2117 79.7558 51.9643L79.8242 51.8795C79.8926 51.7948 79.8765 51.6388 79.8603 51.4828C79.8522 51.4048 79.8522 51.4048 79.8442 51.3268C79.4612 49.865 79.3761 48.2983 79.3315 47.1215C79.2991 46.8095 79.3352 46.4128 79.3029 46.1008L79.3713 46.0161C79.8179 45.1109 80.4255 44.2703 80.9567 43.4364C81.1538 43.1042 81.351 42.772 81.5482 42.4398C81.8821 41.9381 82.0631 41.4499 82.1677 40.9685C82.228 40.8057 82.2883 40.643 82.3487 40.4802L82.2038 40.5717Z" fill="black"/>
<path d="M149.881 34.2221C149.804 34.2289 149.796 34.1509 149.796 34.1509C149.711 34.0796 149.627 34.0083 149.474 34.0218C149.397 34.0285 149.329 34.1133 149.252 34.12C149.099 34.1335 148.955 34.2249 148.963 34.3029C148.242 35.547 147.53 36.8691 146.81 38.1132L146.818 38.1912C146.689 38.4386 146.492 38.7708 146.363 39.0183C146.279 38.947 146.194 38.8758 146.11 38.8045L146.017 38.6552C145.578 38.1429 145.139 37.6306 144.7 37.1183C144.43 36.7485 144.168 36.4567 143.822 36.0936C143.468 35.6526 143.053 35.3743 142.63 35.0179C142.461 34.8754 142.3 34.8109 142.207 34.6616L142.123 34.5903L142.054 34.6751L141.986 34.7598C141.917 34.8445 141.773 34.936 141.781 35.014C141.789 35.092 141.797 35.17 141.805 35.248C141.821 35.404 141.837 35.56 141.922 35.6313C143.045 36.7917 144.101 38.0369 145.216 39.1193L145.909 39.8454L146.002 41.4901C146.071 42.9009 146.2 44.1489 146.237 45.2476C146.245 45.3256 146.176 45.4103 146.176 45.4103C146.184 45.4883 146.193 45.5663 146.277 45.6376C146.277 45.6376 146.362 45.7088 146.446 45.7801C146.615 45.9226 146.793 46.1432 146.946 46.1297C147.175 46.1095 147.304 45.862 147.433 45.6145L147.501 45.5298C147.569 45.4451 147.553 45.2891 147.537 45.1331C147.529 45.0551 147.529 45.0551 147.521 44.9771C147.138 43.5153 147.053 41.9486 147.008 40.7719C146.976 40.4599 147.012 40.0631 146.98 39.7511L147.048 39.6664C147.495 38.7613 148.102 37.9207 148.633 37.0868C148.831 36.7546 149.028 36.4224 149.225 36.0902C149.559 35.5885 149.74 35.1003 149.844 34.6188C149.905 34.4561 149.965 34.2934 150.025 34.1307L149.881 34.2221Z" fill="black"/>
<path d="M77.0912 62.1106C75.811 60.1985 74.4101 59.9442 72.8604 60.41L72.7849 60.4174C72.7849 60.4174 72.7849 60.4174 72.7095 60.4248C71.537 60.8535 71.3041 61.5034 71.6855 62.8768C72.0497 64.095 72.0173 64.4901 71.9396 66.5356C72.5171 68.9869 72.0838 69.8916 72.7841 71.3904L72.8596 71.383C73.8317 71.2091 75.2477 70.9132 75.834 70.6989C77.2415 70.3255 78.0757 68.9111 78.3129 66.9283C78.7182 65.0858 78.0761 63.4246 77.0912 62.1106ZM75.3017 69.3404C74.9245 69.3774 74.2132 69.8392 73.668 69.736C73.5494 69.3558 73.5043 68.2629 73.4526 67.7977C73.3685 67.7276 73.3492 66.8673 73.3147 66.5572C73.3061 66.4797 73.2975 66.4022 73.2889 66.3246C73.2889 66.3246 73.2716 66.1696 73.2802 66.2471L73.2716 66.1696C73.2544 66.0145 73.2458 65.937 73.2285 65.7819C73.1079 64.6965 72.9205 63.696 73.0434 62.7434L73.0348 62.6658C73.2094 62.1784 73.6448 61.9789 74.3237 61.9122C75.6062 61.7862 77.1622 63.436 77.3604 65.2192C77.6771 67.3827 76.8859 69.1847 75.3017 69.3404Z" fill="black"/>
<path d="M68.5698 62.7373C68.1061 62.0125 67.5951 61.5268 67.0004 60.973C65.802 59.7885 64.0575 60.3801 63.5679 61.9939C63.5115 62.1562 63.4642 62.3952 63.4077 62.5575C63.1529 63.5991 63.1308 64.6917 63.0997 65.7074C63.3559 67.2347 63.7612 68.7448 64.4558 70.1435C64.5485 70.2884 64.6503 70.5102 64.743 70.6551C65.5958 72.1133 67.2074 72.3157 68.088 70.8121C68.8559 69.6331 69.4382 68.1642 69.6567 66.8154C69.9589 65.5346 69.6937 63.9305 68.5698 62.7373ZM67.5588 70.1728C66.8948 70.9505 66.2982 71.0197 65.7417 70.15C65.1853 69.2803 64.769 68.3165 64.5854 67.4035C64.4201 66.6442 64.3202 65.7994 64.2294 65.0314C64.2787 64.1693 64.4025 63.2985 64.6846 62.4872C65.0141 61.4369 65.6107 61.3677 66.4382 61.9724C67.0984 62.4408 67.6185 63.0034 67.9985 63.66C68.2949 64.2484 68.6658 64.8282 68.7475 65.5194C68.8202 66.1338 68.8837 66.6714 68.8254 67.4568C68.8143 68.003 68.8053 67.9262 68.6451 68.4898C68.4013 68.9852 68.0264 69.6515 67.5588 70.1728Z" fill="black"/>
<path d="M59.1647 64.3442C59.5835 63.9896 59.9851 63.48 60.3197 63.0553C60.4535 62.8854 60.5205 62.8005 60.6543 62.6306L60.7212 62.5457L60.6371 62.4756L60.5529 62.4054C60.4687 62.3353 60.4514 62.1803 60.2917 62.1176C60.2161 62.125 60.1406 62.1324 60.065 62.1398C59.9139 62.1546 59.7628 62.1695 59.6959 62.2544C58.3725 63.403 57.1334 64.6218 55.8942 65.8406L55.4754 66.1951C55.4322 65.8075 55.4646 65.4125 55.4215 65.0248C55.3956 64.7923 55.4453 64.5523 55.4194 64.3197C55.4345 63.7696 55.2899 63.1568 55.154 62.6216C55.1367 62.4665 55.0352 62.2413 55.018 62.0863L55.0094 62.0088L54.8582 62.0236C54.7827 62.031 54.7827 62.031 54.7071 62.0384C54.6316 62.0458 54.4718 61.9831 54.3294 62.0755C54.338 62.153 54.2711 62.2379 54.1955 62.2453C54.1286 62.3303 54.0703 62.4927 54.0876 62.6478C54.1587 63.9731 54.3054 65.2911 54.368 66.5389L54.4909 68.3294C54.5448 69.4997 54.6829 70.7401 54.7454 71.9879C54.6871 72.1504 54.7044 72.3054 54.7972 72.453C54.8058 72.5306 54.8814 72.5232 54.9656 72.5933C55.1339 72.7335 55.3109 72.9513 55.462 72.9364C55.6887 72.9142 55.8139 72.6668 55.9305 72.3419C55.9219 72.2643 55.9974 72.2569 55.9974 72.2569C56.0644 72.172 56.0471 72.0169 56.0298 71.8619C56.0212 71.7844 56.0126 71.7068 56.0126 71.7068C55.7493 70.7138 55.5615 69.7134 55.4904 68.3881C56.3992 69.0043 57.3252 69.7755 58.2426 70.4693C58.5793 70.7497 58.9075 70.9526 59.2442 71.2331C59.6651 71.5837 60.2285 71.8419 60.7164 72.1075C60.8761 72.1702 61.0445 72.3104 61.2042 72.3731L61.2884 72.4433L61.3553 72.3583L61.4223 72.2734C61.4892 72.1884 61.5561 72.1035 61.6144 71.941C61.6058 71.8635 61.5216 71.7934 61.513 71.7159C61.4957 71.5608 61.4029 71.4132 61.3187 71.3431C59.989 70.3763 58.6679 69.4871 57.4138 68.5129C56.9087 68.0922 56.3366 67.7565 55.8315 67.3358C56.6519 66.4716 57.565 65.755 58.4782 65.0385C58.6034 64.7911 58.8798 64.5289 59.1647 64.3442Z" fill="black"/>
<path d="M139.481 59.9481C140.617 59.2174 141.149 57.8323 142.523 58.5754C143.029 56.9566 142.315 55.2893 143.073 53.8842C143.223 53.8707 143.458 53.9285 143.608 53.9151C143.668 54.4606 143.878 54.9926 143.779 55.4735C143.56 58.3256 143.566 61.1576 144.484 63.987C144.501 64.1429 144.452 64.3833 144.402 64.6238C143.507 64.7822 143.364 64.1656 143.22 63.5489C142.849 62.2444 142.403 60.9466 141.864 59.4996C139.717 60.7138 139.496 62.858 139.257 64.8462C138.086 64.5573 138.084 63.8493 138.166 63.2125C138.56 59.8727 138.202 56.6001 137.993 53.314C137.959 53.0023 138.284 52.5012 138.51 52.4811C139.029 52.3562 139.08 52.8237 139.131 53.2913C139.203 55.3306 139.366 57.5191 139.481 59.9481Z" fill="black"/>
<path d="M103.321 55.9589C103.071 56.4532 102.842 58.5192 102.973 61.1038C103.051 62.513 103.112 63.7664 103.182 65.0976C102.779 64.1894 102.376 63.2813 101.897 62.3798C101.125 60.8751 100.963 59.3947 99.5215 58.0282C99.4378 57.957 99.354 57.8858 99.2703 57.8145C99.2703 57.8145 99.2703 57.8145 99.1865 57.7433C99.0275 57.6788 98.7933 57.621 98.5009 57.7257C98.4513 57.9662 98.3264 58.2133 98.4187 58.3624C99.3362 61.1917 99.3424 64.0235 99.0478 66.8821C99.0237 67.3563 99.1587 67.895 99.2184 68.4404C99.4441 68.4203 99.6031 68.4848 99.8287 68.4647C100.67 67.1309 99.9644 65.5416 100.404 64.0076C100.396 63.9297 100.387 63.8518 100.379 63.7738C100.386 63.1438 100.468 62.5071 100.475 61.8771C100.466 61.7992 100.449 61.6433 100.441 61.5654C100.55 61.8704 100.735 62.1686 100.844 62.4736C101.071 63.1614 101.29 63.7713 101.592 64.4525C101.852 64.744 102.054 65.1981 102.431 65.8726C102.541 66.1775 103.036 67.2349 103.313 67.6822C103.356 68.0718 103.407 68.5393 103.925 68.4145C104.151 68.3944 104.467 67.8155 104.442 67.5817C104.159 64.3026 103.867 60.9455 104.269 57.6839C104.335 56.8914 104.266 56.268 103.321 55.9589Z" fill="black"/>
<path d="M96.2274 67.9747C94.0823 68.0069 91.9371 68.0391 89.8006 68.1494C91.4918 65.3981 93.259 62.6401 94.9588 59.9669C95.0261 59.8821 95.1609 59.7125 95.1436 59.5563C95.135 59.4783 95.1177 59.3221 95.1005 59.166C95.0832 59.0098 95.0573 58.7756 95.0401 58.6195C94.8708 58.4768 94.693 58.256 94.5496 58.3475C92.211 58.7122 89.7964 59.0836 87.4578 59.4483C87.3818 59.455 87.2298 59.4685 87.1624 59.5533C87.0363 59.801 86.8428 60.1334 86.9361 60.2829C86.962 60.5171 87.2832 60.6463 87.4525 60.789C87.5371 60.8604 87.7564 60.7621 87.8324 60.7554C89.5787 59.8913 91.5045 59.9573 93.4044 59.7891C93.5563 59.7757 93.7083 59.7622 93.7843 59.7555C92.6839 62.2968 91.1344 64.2472 89.6782 66.347C89.2826 66.9339 88.9129 67.755 88.6106 68.4913C88.4758 68.6609 88.4171 68.8237 88.4344 68.9799C88.4602 69.2141 88.7141 69.4281 88.9593 69.5641C89.044 69.6354 89.272 69.6153 89.3393 69.5305C91.1875 68.8938 93.0631 69.2008 94.9889 69.2669C95.5295 69.2978 96.1202 69.0879 96.7195 68.956C96.7023 68.7998 96.6764 68.5656 96.7351 68.4028C96.5573 68.182 96.3794 67.9612 96.2274 67.9747Z" fill="black"/>
<path d="M107.321 58.1027C107.465 58.7981 107.683 59.4882 107.679 60.1945C107.681 62.4691 107.535 64.7545 108.131 66.9859C108.147 67.1416 108.244 67.3698 108.178 67.4531C108.053 67.6976 107.935 68.0199 107.713 68.0361C107.564 68.047 107.31 67.7517 107.146 67.6068C107.065 67.5343 107.049 67.3786 107.115 67.2953C106.977 64.4031 106.764 61.5163 106.625 58.6241C106.61 58.4683 106.817 58.2963 106.876 58.1351C107.016 58.0464 107.173 58.1135 107.321 58.1027Z" fill="black"/>
<path d="M134.235 56.5826C133.772 55.8512 133.261 55.3592 132.666 54.7981C131.467 53.5988 129.72 54.1775 129.229 55.7931C129.173 55.9555 129.125 56.195 129.068 56.3574C128.813 57.4007 128.79 58.4971 128.758 59.5163C129.013 61.0515 129.418 62.5707 130.112 63.9806C130.205 64.1269 130.306 64.3503 130.399 64.4966C131.252 65.9676 132.865 66.1847 133.747 64.6832C134.517 63.5065 135.101 62.0372 135.32 60.6852C135.624 59.4024 135.359 57.79 134.235 56.5826ZM133.218 64.037C132.553 64.8118 131.955 64.8761 131.399 63.9983C130.843 63.1205 130.427 62.1496 130.244 61.2316C130.079 60.468 129.979 59.6192 129.889 58.8476C129.939 57.9827 130.064 57.1098 130.347 56.2979C130.677 55.2466 131.274 55.1823 132.102 55.7964C132.763 56.2723 133.283 56.8414 133.663 57.5037C133.959 58.097 134.33 58.6821 134.411 59.3766C134.483 59.9939 134.547 60.5341 134.488 61.3218C134.476 61.87 134.467 61.7928 134.307 62.3571C134.062 62.8522 133.686 63.5177 133.218 64.037Z" fill="black"/>
<path d="M125.448 58.1243C125.867 57.772 126.269 57.2638 126.604 56.8403C126.738 56.6709 126.805 56.5862 126.939 56.4168L127.006 56.3321L126.922 56.2609L126.837 56.1897C126.753 56.1184 126.736 55.9625 126.576 55.898C126.501 55.9048 126.425 55.9115 126.35 55.9182C126.198 55.9317 126.047 55.9452 125.98 56.0299C124.656 57.1715 123.415 58.3842 122.175 59.597L121.756 59.9493C121.713 59.5595 121.746 59.1629 121.703 58.7731C121.677 58.5392 121.727 58.2986 121.701 58.0647C121.716 57.5122 121.572 56.8952 121.436 56.3562C121.419 56.2003 121.318 55.9732 121.3 55.8172L121.292 55.7393L121.216 55.746C121.141 55.7527 121.141 55.7527 121.065 55.7595C120.989 55.7662 120.83 55.7017 120.687 55.7932C120.696 55.8711 120.629 55.9558 120.553 55.9626C120.486 56.0473 120.428 56.2099 120.445 56.3659C120.515 57.698 120.661 59.0234 120.723 60.2775L120.845 62.0774C120.899 63.2536 121.036 64.501 121.098 65.7552C121.04 65.9178 121.057 66.0738 121.15 66.223C121.158 66.3009 121.234 66.2942 121.318 66.3654C121.486 66.5079 121.663 66.7283 121.815 66.7148C122.041 66.6946 122.167 66.4472 122.283 66.1219C122.275 66.0439 122.35 66.0372 122.35 66.0372C122.417 65.9525 122.4 65.7966 122.383 65.6406C122.375 65.5627 122.366 65.4847 122.366 65.4847C122.103 64.4847 121.916 63.4779 121.845 62.1457C122.754 62.7733 123.68 63.5568 124.598 64.2623C124.934 64.5472 125.262 64.7541 125.599 65.039C126.02 65.3952 126.584 65.6598 127.071 65.9313C127.231 65.9957 127.4 66.1382 127.559 66.2027L127.644 66.2739L127.711 66.1892L127.778 66.1045C127.845 66.0198 127.912 65.9351 127.97 65.7724C127.961 65.6945 127.877 65.6232 127.869 65.5453C127.851 65.3894 127.759 65.2402 127.674 65.1689C126.345 64.1853 125.024 63.2796 123.769 62.2891C123.264 61.8618 122.692 61.5191 122.187 61.0918C123.008 60.2313 123.922 59.52 124.836 58.8087C124.886 58.5681 125.163 58.3072 125.448 58.1243Z" fill="black"/>
<path d="M153.348 51.9744C153.272 51.9811 153.264 51.9031 153.264 51.9031C153.179 51.8319 153.095 51.7606 152.944 51.7741C152.868 51.7808 152.801 51.8656 152.725 51.8723C152.574 51.8858 152.431 51.9773 152.439 52.0553C151.735 53.2994 151.04 54.6214 150.336 55.8655L150.345 55.9435C150.219 56.191 150.026 56.5232 149.9 56.7707C149.816 56.6994 149.732 56.6282 149.647 56.5569L149.554 56.4076C149.115 55.8954 148.676 55.3831 148.237 54.8709C147.967 54.5011 147.706 54.2093 147.36 53.8463C147.005 53.4053 146.592 53.127 146.17 52.7708C146.001 52.6283 145.841 52.5638 145.748 52.4145L145.664 52.3432L145.597 52.428L145.53 52.5127C145.462 52.5975 145.32 52.6889 145.328 52.7669C145.337 52.8449 145.345 52.9229 145.354 53.0009C145.371 53.1569 145.388 53.3129 145.473 53.3842C146.595 54.5445 147.651 55.7895 148.764 56.8718L149.456 57.5978L149.561 59.2425C149.641 60.6531 149.778 61.901 149.823 62.9997C149.832 63.0777 149.765 63.1625 149.765 63.1625C149.773 63.2404 149.782 63.3184 149.866 63.3897C149.866 63.3897 149.951 63.461 150.035 63.5322C150.204 63.6747 150.381 63.8952 150.532 63.8817C150.76 63.8615 150.885 63.614 151.011 63.3666L151.078 63.2818C151.145 63.1971 151.128 63.0411 151.111 62.8851C151.102 62.8071 151.102 62.8071 151.094 62.7291C150.703 61.2674 150.606 59.7008 150.553 58.5241C150.518 58.2121 150.551 57.8154 150.517 57.5034L150.584 57.4187C151.019 56.5135 151.615 55.6729 152.135 54.839C152.328 54.5068 152.52 54.1746 152.713 53.8424C153.04 53.3407 153.216 52.8525 153.316 52.3711C153.374 52.2084 153.433 52.0456 153.491 51.8829L153.348 51.9744Z" fill="black"/>
<path d="M118.497 65.7691C116.367 65.8366 114.237 65.9042 112.115 66.0488C113.776 63.2993 115.513 60.5418 117.183 57.8694C117.249 57.7844 117.382 57.6144 117.364 57.4602C117.354 57.3831 117.336 57.229 117.318 57.0748C117.3 56.9206 117.273 56.6894 117.254 56.5352C117.085 56.3969 116.907 56.1815 116.765 56.2744C114.445 56.674 112.05 57.0816 109.73 57.4812C109.654 57.4892 109.503 57.505 109.437 57.59C109.313 57.8371 109.123 58.1691 109.217 58.3154C109.244 58.5466 109.564 58.6691 109.733 58.8074C109.818 58.8766 110.035 58.7758 110.11 58.7679C111.839 57.8841 113.752 57.9174 115.638 57.7194C115.789 57.7036 115.939 57.6877 116.015 57.6798C114.939 60.2118 113.414 62.1668 111.982 64.268C111.593 64.8551 111.231 65.6734 110.936 66.4068C110.803 66.5768 110.746 66.7388 110.764 66.893C110.791 67.1242 111.045 67.3317 111.29 67.4621C111.374 67.5313 111.6 67.5075 111.667 67.4225C113.498 66.7621 115.363 67.0345 117.276 67.0678C117.813 67.0895 118.398 66.872 118.993 66.7315C118.974 66.5774 118.947 66.3461 119.004 66.184C118.826 65.9686 118.648 65.7532 118.497 65.7691Z" fill="black"/>
<path d="M112.439 55.1299C112.694 55.3379 112.94 55.4688 113.243 55.4378C113.319 55.43 113.319 55.43 113.395 55.4222L113.462 55.3374C113.596 55.1676 113.644 54.9285 113.693 54.6894C113.684 54.6123 113.675 54.5352 113.59 54.4658C113.505 54.3965 113.429 54.4043 113.344 54.3349C113.183 54.2733 113.098 54.204 112.938 54.1424C112.853 54.0731 112.701 54.0886 112.549 54.1042C112.397 54.1197 112.349 54.3588 112.3 54.5979C112.309 54.675 112.242 54.7599 112.327 54.8292C112.345 54.9834 112.43 55.0528 112.439 55.1299Z" fill="black"/>
<path d="M29.3326 49.1249C29.3482 49.2791 29.2871 49.4414 29.2182 49.5267C29.0115 49.7824 28.797 49.9611 28.5668 49.9855C28.4901 49.9937 28.4134 50.0019 28.3367 50.01C28.1066 50.0345 27.8686 49.9819 27.6995 49.844C27.5305 49.7061 27.3536 49.4912 27.3224 49.1828L27.2379 49.1139C27.1533 49.0449 27.1377 48.8908 27.1299 48.8137C27.1064 48.5824 27.0908 48.4282 27.0674 48.1969C27.0361 47.8885 27.0127 47.6573 26.9814 47.3489C26.9736 47.2718 26.9736 47.2718 27.0425 47.1865C27.1569 46.7848 27.4403 46.5208 27.7315 46.334C27.885 46.3177 27.9539 46.2325 28.1073 46.2161C28.1073 46.2161 28.1073 46.2161 28.184 46.208C28.3374 46.1917 28.4987 46.2524 28.5832 46.3214C28.9369 46.7513 29.1451 47.2746 29.2843 47.8832C29.2544 48.3539 29.3702 48.7312 29.3326 49.1249Z" fill="white"/>
<path d="M34.6204 47.149C34.6136 47.8493 34.1981 48.359 33.6979 48.7999C33.4823 48.9779 33.0893 48.9412 32.7656 48.8195C32.5188 48.6898 32.2721 48.5602 32.1794 48.4144C32.079 48.1917 32.1404 48.0298 32.117 47.7991C32.1629 47.4834 32.2935 47.2366 32.5013 46.9817C32.6397 46.8118 32.709 46.7268 32.8553 46.6338C32.9245 46.5488 33.0015 46.5408 32.9937 46.4639C33.063 46.3789 33.14 46.3709 33.2093 46.2859L33.2707 46.1241C33.417 46.031 33.6481 46.0069 33.8792 45.9828L33.8948 46.1366C33.9719 46.1285 34.0489 46.1205 34.203 46.1044C34.2878 46.1733 34.3727 46.2421 34.4575 46.311C34.4575 46.311 34.4653 46.3879 34.5502 46.4568C34.5658 46.6106 34.674 46.9102 34.6204 47.149Z" fill="white"/>
<path d="M38.234 50.4883C37.8717 50.7589 37.5865 51.0215 37.1238 51.0693C36.9695 51.0853 36.8075 51.0243 36.5683 50.9713C36.4834 50.9024 36.4756 50.8255 36.3907 50.7566L36.3829 50.6797C36.1898 50.3112 36.1431 49.8498 36.3356 49.4414C36.3278 49.3645 36.3972 49.2796 36.3972 49.2796C36.5281 49.0329 36.9676 48.7544 37.4148 48.5528C37.7155 48.444 38.024 48.4121 38.2632 48.465C38.3403 48.4571 38.3481 48.534 38.433 48.6029C38.5257 48.7487 38.6106 48.8176 38.7033 48.9635C38.8426 49.5707 38.735 50.048 38.234 50.4883Z" fill="white"/>
<path d="M31.6403 50.5999C32.0881 50.3987 32.5513 50.3513 33.0223 50.3808C33.3388 50.4262 33.8098 50.4557 34.0569 50.5858C35.0531 51.1833 35.5553 52.2975 35.8181 53.3584C36.081 54.4194 36.0046 56.7583 35.0552 57.3993C34.2525 57.9476 32.6229 56.4825 31.6887 56.5004C31.1405 56.4787 28.8244 56.7156 28.2608 56.5401C27.2106 56.1813 27.7815 54.8797 28.1285 53.6786C28.6916 52.3001 30.4438 51.1108 31.6403 50.5999Z" fill="white"/>
<path opacity="0.3" d="M28.3025 49.7786C28.2414 49.9409 26.5737 48.7939 27.4399 48.1565C28.1682 47.6896 28.4859 49.2917 28.3025 49.7786Z" fill="#BBBBBA"/>
<path opacity="0.3" d="M33.2952 47.9815C33.2952 47.9815 33.2185 47.9897 33.2952 47.9815C33.2419 48.2209 33.2575 48.375 33.1886 48.4602C33.1275 48.6225 32.9818 48.7159 32.8283 48.7322C32.5824 48.6026 32.3365 48.4729 32.2441 48.3269L32.2363 48.2499C32.0437 47.8809 32.0892 47.5645 32.1269 47.171C32.188 47.0087 32.3258 46.8383 32.5639 46.8908L32.6407 46.8827C32.8787 46.9353 33.0479 47.0731 33.1481 47.2961C33.1481 47.2961 33.1481 47.2961 33.1559 47.3732C33.2483 47.5191 33.2718 47.7503 33.2952 47.9815Z" fill="#BBBBBA"/>
<path opacity="0.3" d="M37.9423 49.1905C38.0503 49.4906 37.8214 50.2936 37.3998 50.7278C37.3387 50.89 37.1929 50.9834 37.124 51.0686C36.9704 51.0849 36.809 51.0241 36.5708 50.9716C36.4941 50.9797 36.4862 50.9027 36.4094 50.9108C36.4016 50.8338 36.3938 50.7567 36.386 50.6797C36.3782 50.6027 36.3782 50.6027 36.3703 50.5256C36.3391 50.2174 36.3078 49.9093 36.3533 49.5929C36.3454 49.5159 36.3454 49.5159 36.3376 49.4388C36.3298 49.3618 36.3298 49.3618 36.322 49.2847C36.5211 48.9521 36.7969 48.6113 37.0884 48.4246C37.1652 48.4164 37.3266 48.4772 37.4112 48.5461C37.4958 48.615 37.4958 48.615 37.5804 48.6838C37.7496 48.8216 37.9188 48.9594 37.9423 49.1905Z" fill="#BBBBBA"/>
<path opacity="0.3" d="M30.6564 55.649C30.2427 56.1602 29.4138 56.404 28.7071 56.3233C28.6304 56.3315 28.469 56.2708 28.3922 56.2789C28.3154 56.2871 28.2308 56.2182 28.223 56.1411C28.0538 56.0034 27.9458 55.7033 27.9223 55.4722C27.9145 55.3951 27.9067 55.3181 27.891 55.164C27.8519 54.7788 27.8974 54.4624 27.9429 54.1461C28.0652 53.8216 28.1874 53.4971 28.3175 53.2496C28.6232 52.4384 29.1749 51.7567 29.9035 51.2899C29.9725 51.2047 30.1182 51.1114 30.2718 51.0951C30.4253 51.0787 30.5177 51.2247 30.5256 51.3017C30.5256 51.3017 30.5334 51.3788 30.6102 51.3706C30.8952 51.8855 30.8355 52.8264 30.9514 53.2035C31.1064 53.9658 31.208 54.9674 30.6564 55.649Z" fill="#BBBBBA"/>
<path d="M35.9338 52.9568C35.7329 52.5111 35.5242 51.9885 35.2461 51.5507C34.3424 50.3222 33.825 49.8313 32.1343 50.0819C31.8254 50.1135 31.5244 50.222 31.3005 50.3226C30.8528 50.5238 30.4823 50.7171 30.1195 50.9873C29.9729 51.08 29.9034 51.1648 29.749 51.1806C29.0235 51.721 28.4601 52.3226 28.1516 53.1312C28.0281 53.4546 27.9047 53.778 27.7736 54.0246C27.6502 54.348 27.5267 54.6714 27.4033 54.9949C27.1565 55.6417 27.5428 56.3792 28.1837 56.5468C28.508 56.669 28.894 56.6295 29.2105 56.6749C29.8281 56.6117 30.4458 56.5485 30.9862 56.4932C31.681 56.4222 32.3218 56.5897 32.9087 56.9959C33.318 57.1871 33.6501 57.3863 34.0593 57.5775C34.2215 57.6386 34.4608 57.6919 34.6075 57.5992C35.2868 57.3743 35.7035 56.8654 35.8654 56.1495C35.9039 55.7571 35.9423 55.3647 35.9963 55.126C35.9498 54.6646 35.9883 54.2721 35.9495 53.8876C36.1579 53.6332 36.0419 53.2565 35.9338 52.9568ZM34.2677 57.3231C33.9356 57.124 33.4569 57.0175 33.1171 56.7415C32.538 56.4122 31.9743 56.2368 31.2717 56.2309C30.8085 56.2783 30.2681 56.3336 29.8049 56.381C29.5733 56.4046 29.2645 56.4362 29.0329 56.4599C28.7241 56.4915 28.5542 56.3535 28.392 56.2924C28.2221 56.1543 28.0367 55.8625 28.0057 55.5549C27.998 55.4779 27.9902 55.401 27.9825 55.3241C28.0055 54.7779 28.0749 54.6931 28.5226 54.4919C28.9009 54.3755 29.2791 54.2591 29.5802 54.1506L29.5725 54.0737C29.117 54.198 28.6615 54.3222 28.1289 54.4544C28.1596 53.9851 28.4684 53.9535 28.6922 53.8529C29.1477 53.7286 29.6804 53.5964 30.1358 53.4721C30.213 53.4642 30.2903 53.4563 30.3597 53.3715L30.352 53.2946C29.7421 53.4347 29.0628 53.6596 28.3757 53.8076C28.3524 53.5768 28.4914 53.4072 28.5531 53.2455C28.7537 52.9142 28.9543 52.5828 29.2399 52.3205C29.5099 51.9044 29.9422 51.5494 30.3899 51.3482C30.3899 51.3482 30.4671 51.3403 30.4593 51.2634C30.606 51.1707 30.7604 51.1549 30.8298 51.0701C31.6403 50.5986 32.5745 50.5808 33.5164 50.6398C34.0646 50.6615 34.4199 51.0913 34.6902 51.4522C35.2387 52.2508 35.6327 53.0653 35.7334 54.0651C35.8109 54.8342 35.8034 55.5343 35.6493 56.3271C35.5336 56.7274 35.3253 56.9818 34.9625 57.252C34.8236 57.4216 34.5997 57.5222 34.2677 57.3231Z" fill="black"/>
<path d="M29.3604 47.8759C29.1519 47.3533 28.9434 46.8306 28.4431 46.4945C28.3584 46.4257 28.1968 46.3649 28.0431 46.3812C27.9662 46.3893 27.9662 46.3893 27.8893 46.3975C27.8125 46.4056 27.6666 46.4989 27.5897 46.507C27.2979 46.6935 27.0139 46.957 26.8992 47.3582C26.9071 47.4352 26.8302 47.4433 26.838 47.5203C26.5319 48.3309 26.6792 49.0156 27.2955 49.7286C27.5652 50.0891 27.973 50.2794 28.5033 50.1455C28.7339 50.1211 29.0179 49.8576 29.156 49.6873C29.3631 49.4319 29.4856 49.1077 29.4543 48.7998C29.492 48.4067 29.4685 48.1757 29.3604 47.8759ZM28.3795 49.6917C28.2179 49.631 28.0563 49.5702 27.8791 49.3555C27.5404 49.0801 27.3475 48.7115 27.3084 48.3265C27.2928 48.1725 27.2771 48.0186 27.1846 47.8727C27.1989 47.2487 27.4829 46.9852 27.8359 46.6366C28.0509 46.4582 28.2203 46.5959 28.3818 46.6566C28.8053 47.0009 29.0138 47.5235 29.1454 48.0543C29.2536 48.3541 29.2849 48.6621 29.1703 49.0633C28.9944 49.6266 28.7026 49.8131 28.3795 49.6917Z" fill="black"/>
<path d="M34.5432 46.3775C34.5275 46.2236 34.4271 46.0009 34.3345 45.8552C34.1649 45.7175 33.9953 45.5798 33.8491 45.6728C33.472 45.7902 33.0948 45.9075 32.8103 46.1706C32.518 46.3568 32.2413 46.6968 32.1342 47.1745C32.0114 47.4984 32.0505 47.8831 32.2435 48.2515L32.2513 48.3285C32.344 48.4743 32.5984 48.6808 32.8371 48.7335C33.1607 48.855 33.5535 48.8916 33.7688 48.7135C34.2687 48.2723 34.6068 47.7703 34.6905 47.0618C34.6748 46.9079 34.5666 46.6083 34.5432 46.3775ZM34.2832 47.6488C34.1527 47.8957 34.0221 48.1427 33.8068 48.3208C33.6684 48.4908 33.4609 48.7458 33.1217 48.4704C33.1217 48.4704 33.1217 48.4704 33.0447 48.4785C32.9599 48.4096 32.8059 48.4258 32.6519 48.4419C32.8673 48.2638 32.8594 48.1869 33.1596 48.0777C33.2366 48.0696 33.3058 47.9846 33.3828 47.9765C33.3058 47.9846 33.2288 47.9927 33.1518 48.0007C32.9208 48.025 32.6977 48.1261 32.3897 48.1585C32.335 47.62 32.335 47.62 32.7122 47.5026C32.7891 47.4946 32.9353 47.4015 33.0893 47.3853C33.1663 47.3772 33.1663 47.3772 33.2355 47.2922C33.1585 47.3003 33.1585 47.3003 33.0815 47.3084C32.8505 47.3326 32.6965 47.3488 32.3964 47.458C32.3808 47.3042 32.4343 47.0653 32.5035 46.9803C32.5727 46.8953 32.634 46.7333 32.7802 46.6402C32.8494 46.5552 32.9264 46.5472 32.9186 46.4702C32.9877 46.3852 33.0647 46.3771 33.1339 46.2921C33.1339 46.2921 33.1339 46.2921 33.2109 46.2841C33.3571 46.191 33.5802 46.0898 33.7342 46.0736L33.819 46.1425C34.3892 46.3937 34.5443 47.1549 34.2832 47.6488Z" fill="black"/>
<path d="M38.7035 48.9607C38.5641 48.3535 37.9932 48.1018 37.3919 48.3195C37.3148 48.3275 37.1683 48.4204 37.0912 48.4284C36.7983 48.6141 36.5132 48.8768 36.3207 49.2852C36.1899 49.5319 36.1361 49.7706 36.0823 50.0093C36.0597 50.5556 36.0753 50.7094 36.4071 50.9081C36.4842 50.9001 36.492 50.977 36.5691 50.969C36.7311 51.03 36.9702 51.0829 37.1244 51.0669C37.51 51.027 37.88 50.8332 38.2345 50.4857C38.7353 50.0453 38.8429 49.5679 38.7035 48.9607ZM38.2033 50.1781C37.9182 50.4408 37.7024 50.6185 37.4018 50.7274C37.2475 50.7433 37.0933 50.7593 36.9391 50.7753C36.8386 50.5526 36.661 50.3379 36.4757 50.0462C36.6992 49.9454 36.9306 49.9214 37.1542 49.8206C37.1542 49.8206 37.1542 49.8205 37.1464 49.7436C36.915 49.7676 36.7608 49.7836 36.4446 49.7386C36.5832 49.5689 36.7297 49.476 36.799 49.3911C36.7912 49.3142 36.7063 49.2453 36.7063 49.2453C36.8372 48.9986 37.1994 48.728 37.5772 48.6111C37.7314 48.5952 37.8857 48.5792 38.0399 48.5632C38.2019 48.6241 38.2868 48.6931 38.3717 48.762C38.6497 49.1994 38.5578 49.8306 38.2033 50.1781Z" fill="black"/>
<path d="M36.804 49.4621C36.9459 49.2752 37.1789 49.259 37.4253 49.4188C37.1923 49.435 36.9593 49.4513 36.804 49.4621Z" fill="black"/>
<path d="M35.2691 66.4979C35.2847 66.6521 35.2236 66.8145 35.1547 66.8997C34.948 67.1555 34.7335 67.3341 34.5034 67.3586C34.4267 67.3668 34.3499 67.3749 34.2732 67.3831C34.0431 67.4075 33.8051 67.3549 33.6361 67.2171C33.467 67.0792 33.2902 66.8642 33.2589 66.5559L33.1744 66.4869C33.0899 66.418 33.0742 66.2638 33.0664 66.1867C33.043 65.9554 33.0273 65.8012 33.0039 65.57C32.9727 65.2616 32.9492 65.0303 32.918 64.7219C32.9102 64.6448 32.9102 64.6448 32.9791 64.5596C33.0934 64.1578 33.3768 63.8939 33.6681 63.7071C33.8215 63.6908 33.8904 63.6055 34.0438 63.5892C34.0438 63.5892 34.0438 63.5892 34.1206 63.581C34.274 63.5647 34.4352 63.6255 34.5198 63.6944C34.8735 64.1244 35.0816 64.6477 35.2208 65.2563C35.191 65.727 35.3068 66.1043 35.2691 66.4979Z" fill="white"/>
<path d="M40.5569 64.522C40.5501 65.2223 40.1347 65.7321 39.6344 66.1729C39.4189 66.3509 39.0258 66.3142 38.7021 66.1926C38.4553 66.0629 38.2086 65.9332 38.116 65.7874C38.0155 65.5647 38.077 65.4029 38.0536 65.1721C38.0994 64.8564 38.2301 64.6096 38.4378 64.3547C38.5763 64.1848 38.6455 64.0999 38.7918 64.0068C38.861 63.9219 38.9381 63.9138 38.9303 63.8369C38.9995 63.752 39.0765 63.7439 39.1458 63.659L39.2072 63.4971C39.3535 63.4041 39.5846 63.38 39.8157 63.3558L39.8314 63.5096C39.9084 63.5016 39.9854 63.4936 40.1395 63.4775C40.2244 63.5463 40.3092 63.6152 40.3941 63.6841C40.3941 63.6841 40.4019 63.761 40.4867 63.8298C40.5023 63.9837 40.6106 64.2833 40.5569 64.522Z" fill="white"/>
<path d="M44.1705 67.8614C43.8082 68.132 43.523 68.3946 43.0603 68.4424C42.906 68.4584 42.744 68.3974 42.5048 68.3445C42.4199 68.2755 42.4121 68.1986 42.3272 68.1297L42.3195 68.0528C42.1263 67.6843 42.0797 67.2229 42.2722 66.8144C42.2644 66.7375 42.3337 66.6527 42.3337 66.6527C42.4646 66.406 42.9041 66.1274 43.3513 65.9258C43.652 65.817 43.9605 65.7851 44.1997 65.8381C44.2768 65.8301 44.2846 65.907 44.3695 65.9759C44.4622 66.1217 44.5471 66.1907 44.6398 66.3365C44.7791 66.9437 44.6715 67.4211 44.1705 67.8614Z" fill="white"/>
<path d="M37.5768 67.9729C38.0246 67.7717 38.4878 67.7244 38.9588 67.7539C39.2753 67.7992 39.7463 67.8288 39.9934 67.9589C40.9896 68.5563 41.4918 69.6705 41.7546 70.7315C42.0175 71.7924 41.9411 74.1313 40.9917 74.7724C40.1889 75.3207 38.5594 73.8556 37.6252 73.8734C37.077 73.8518 34.7609 74.0886 34.1973 73.9132C33.1472 73.5544 33.718 72.2527 34.065 71.0517C34.6282 69.6731 36.3726 68.4069 37.5768 67.9729Z" fill="white"/>
<path opacity="0.3" d="M34.2391 67.1516C34.1779 67.3139 32.5104 66.1668 33.3765 65.5294C34.097 64.9854 34.4224 66.6647 34.2391 67.1516Z" fill="#BBBBBA"/>
<path opacity="0.3" d="M39.2317 65.3546C39.2317 65.3546 39.155 65.3627 39.2317 65.3546C39.1784 65.5939 39.1941 65.7481 39.1251 65.8333C39.064 65.9956 38.9183 66.0889 38.7648 66.1053C38.5189 65.9756 38.273 65.8459 38.1806 65.7L38.1728 65.6229C37.9802 65.2539 38.0257 64.9375 38.0634 64.544C38.1245 64.3817 38.2624 64.2113 38.5004 64.2639L38.5772 64.2557C38.8153 64.3083 38.9844 64.4461 39.0846 64.6692C39.0846 64.6692 39.0846 64.6692 39.0924 64.7462C39.1848 64.8922 39.2083 65.1234 39.2317 65.3546Z" fill="#BBBBBA"/>
<path opacity="0.3" d="M43.8788 66.5636C43.9868 66.8636 43.7579 67.6666 43.3363 68.1007C43.2752 68.263 43.1294 68.3563 43.0605 68.4415C42.9069 68.4578 42.7455 68.3971 42.5074 68.3445C42.4306 68.3527 42.4227 68.2756 42.346 68.2838C42.3381 68.2067 42.3303 68.1297 42.3225 68.0527C42.3147 67.9756 42.3147 67.9756 42.3069 67.8986C42.2756 67.5904 42.2443 67.2822 42.2898 66.9659C42.282 66.8889 42.282 66.8889 42.2742 66.8118C42.2663 66.7348 42.2663 66.7348 42.2585 66.6578C42.4576 66.3251 42.7334 65.9844 43.0249 65.7977C43.1017 65.7895 43.2631 65.8502 43.3477 65.9191C43.4323 65.988 43.4323 65.988 43.5169 66.0569C43.6861 66.1947 43.8553 66.3324 43.8788 66.5636Z" fill="#BBBBBA"/>
<path opacity="0.3" d="M36.5929 73.0221C36.1792 73.5333 35.3503 73.7771 34.6437 73.6964C34.5669 73.7046 34.4055 73.6438 34.3287 73.652C34.252 73.6601 34.1674 73.5912 34.1595 73.5142C33.9903 73.3764 33.8823 73.0764 33.8588 72.8452C33.851 72.7682 33.8432 72.6911 33.8275 72.537C33.7884 72.1518 33.8339 71.8355 33.8794 71.5191C34.0017 71.1946 34.124 70.8701 34.2541 70.6227C34.5597 69.8114 35.1114 69.1298 35.8401 68.663C35.909 68.5778 36.0548 68.4844 36.2083 68.4681C36.3619 68.4518 36.4543 68.5977 36.4621 68.6748C36.4621 68.6748 36.4699 68.7518 36.5467 68.7437C36.8318 69.2585 36.7721 70.1994 36.888 70.5765C37.0429 71.3388 37.1446 72.3404 36.5929 73.0221Z" fill="#BBBBBA"/>
<path d="M41.8703 70.3298C41.6694 69.8841 41.4608 69.3616 41.1827 68.9238C40.2789 67.6953 39.7615 67.2043 38.0708 67.455C37.762 67.4865 37.4609 67.595 37.2371 67.6956C36.7893 67.8968 36.4188 68.0901 36.0561 68.3604C35.9094 68.4531 35.8399 68.5379 35.6855 68.5537C34.96 69.0941 34.3966 69.6956 34.0881 70.5042C33.9647 70.8277 33.8413 71.1511 33.7101 71.3976C33.5867 71.721 33.4633 72.0445 33.3399 72.3679C33.093 73.0148 33.4793 73.7523 34.1202 73.9198C34.4445 74.0421 34.8305 74.0026 35.1471 74.0479C35.7647 73.9847 36.3823 73.9216 36.9227 73.8663C37.6175 73.7952 38.2584 73.9628 38.8453 74.369C39.2545 74.5602 39.5866 74.7593 39.9959 74.9506C40.158 75.0117 40.3974 75.0649 40.544 74.9722C41.2233 74.7473 41.6401 74.2385 41.8019 73.5226C41.8404 73.1302 41.8789 72.7377 41.9328 72.4991C41.8863 72.0376 41.9248 71.6452 41.8861 71.2606C42.0944 71.0062 41.9785 70.6296 41.8703 70.3298ZM40.2042 74.6962C39.8722 74.497 39.3935 74.3906 39.0537 74.1145C38.4745 73.7853 37.9108 73.6098 37.2083 73.604C36.7451 73.6514 36.2046 73.7066 35.7414 73.754C35.5098 73.7777 35.201 73.8093 34.9694 73.833C34.6606 73.8646 34.4907 73.7265 34.3285 73.6654C34.1586 73.5274 33.9732 73.2356 33.9423 72.9279C33.9345 72.851 33.9268 72.7741 33.919 72.6972C33.942 72.1509 34.0114 72.0661 34.4592 71.8649C34.8374 71.7485 35.2157 71.6321 35.5167 71.5236L35.509 71.4467C35.0535 71.571 34.5981 71.6953 34.0654 71.8275C34.0961 71.3581 34.4049 71.3265 34.6288 71.2259C35.0842 71.1016 35.6169 70.9695 36.0724 70.8452C36.1496 70.8373 36.2268 70.8294 36.2962 70.7446L36.2885 70.6677C35.6786 70.8077 34.9993 71.0326 34.3122 71.1806C34.289 70.9499 34.4279 70.7803 34.4896 70.6186C34.6902 70.2872 34.8908 69.9559 35.1764 69.6936C35.4465 69.2774 35.8787 68.9224 36.3264 68.7212C36.3264 68.7212 36.4036 68.7133 36.3959 68.6364C36.5425 68.5437 36.6969 68.5279 36.7664 68.4431C37.5769 67.9717 38.511 67.9538 39.453 68.0129C40.0011 68.0345 40.3564 68.4644 40.6268 68.8253C41.1752 69.6239 41.5692 70.4383 41.67 71.4381C41.7474 72.2072 41.74 72.9073 41.5858 73.7001C41.4702 74.1005 41.2618 74.3549 40.899 74.6251C40.7601 74.7947 40.5363 74.8953 40.2042 74.6962Z" fill="black"/>
<path d="M35.2969 65.249C35.0884 64.7263 34.8799 64.2037 34.3796 63.8676C34.2949 63.7987 34.1333 63.738 33.9796 63.7542C33.9027 63.7624 33.9027 63.7624 33.8259 63.7705C33.749 63.7787 33.6031 63.8719 33.5262 63.8801C33.2344 64.0666 32.9504 64.3301 32.8358 64.7313C32.8436 64.8083 32.7667 64.8164 32.7745 64.8934C32.4684 65.704 32.6157 66.3888 33.232 67.1017C33.5017 67.4623 33.9095 67.6525 34.4398 67.5186C34.6704 67.4942 34.9544 67.2307 35.0925 67.0604C35.2996 66.8051 35.4221 66.4808 35.3908 66.1729C35.4285 65.7798 35.3972 65.4718 35.2969 65.249ZM34.316 67.0648C34.1544 67.0041 33.9929 66.9434 33.8157 66.7287C33.4769 66.4533 33.284 66.0846 33.2449 65.6996C33.2293 65.5456 33.2136 65.3917 33.1211 65.2458C33.1354 64.6218 33.4194 64.3583 33.7725 64.0096C33.9874 63.8312 34.1568 63.9689 34.3184 64.0297C34.7418 64.3739 34.9503 64.8966 35.0819 65.4274C35.1901 65.7272 35.2214 66.0352 35.1068 66.4364C34.9309 66.9997 34.6391 67.1862 34.316 67.0648Z" fill="black"/>
<path d="M40.4797 63.7505C40.4641 63.5967 40.3636 63.374 40.271 63.2282C40.1014 63.0905 39.9318 62.9528 39.7856 63.0459C39.4085 63.1632 39.0314 63.2805 38.7468 63.5436C38.4545 63.7298 38.1778 64.0699 38.0707 64.5476C37.9479 64.8715 37.987 65.2561 38.18 65.6246L38.1879 65.7015C38.2805 65.8473 38.5349 66.0539 38.7737 66.1066C39.0973 66.2281 39.49 66.2646 39.7054 66.0865C40.2052 65.6453 40.5433 65.1434 40.627 64.4348C40.6114 64.281 40.5031 63.9813 40.4797 63.7505ZM40.2197 65.0218C40.0892 65.2688 39.9586 65.5157 39.7433 65.6938C39.6049 65.8638 39.3974 66.1188 39.0582 65.8434C39.0582 65.8434 39.0582 65.8434 38.9812 65.8515C38.8964 65.7827 38.7424 65.7988 38.5884 65.815C38.8038 65.6369 38.796 65.56 39.0961 65.4507C39.1731 65.4426 39.2423 65.3576 39.3193 65.3496C39.2423 65.3576 39.1653 65.3657 39.0883 65.3738C38.8573 65.398 38.6342 65.4992 38.3262 65.5315C38.2715 64.993 38.2715 64.993 38.6487 64.8757C38.7257 64.8676 38.8718 64.7745 39.0258 64.7584C39.1028 64.7503 39.1028 64.7503 39.172 64.6653C39.095 64.6733 39.095 64.6733 39.018 64.6814C38.787 64.7057 38.633 64.7218 38.3329 64.8311C38.3173 64.6772 38.3708 64.4383 38.44 64.3533C38.5092 64.2683 38.5706 64.1064 38.7167 64.0133C38.7859 63.9283 38.8629 63.9202 38.8551 63.8433C38.9243 63.7583 39.0012 63.7502 39.0704 63.6652C39.0704 63.6652 39.0704 63.6652 39.1474 63.6571C39.2936 63.564 39.5167 63.4629 39.6707 63.4467L39.7555 63.5155C40.3257 63.7667 40.473 64.451 40.2197 65.0218Z" fill="black"/>
<path d="M44.6401 66.3338C44.5007 65.7265 43.9298 65.4749 43.3284 65.6926C43.2513 65.7005 43.1048 65.7934 43.0277 65.8014C42.7348 65.9872 42.4497 66.2498 42.2573 66.6583C42.1264 66.905 42.0726 67.1437 42.0189 67.3824C41.9962 67.9287 42.0118 68.0825 42.3436 68.2812C42.4207 68.2733 42.4285 68.3502 42.5056 68.3422C42.6676 68.4031 42.9067 68.456 43.061 68.4401C43.4466 68.4001 43.8166 68.2064 44.171 67.8588C44.6719 67.4184 44.7794 66.941 44.6401 66.3338ZM44.1399 67.5512C43.8548 67.8139 43.639 67.9916 43.3383 68.1005C43.1841 68.1165 43.0298 68.1325 42.8756 68.1484C42.7752 67.9257 42.5976 67.711 42.4122 67.4193C42.6358 67.3185 42.8671 67.2945 43.0907 67.1936C43.0907 67.1936 43.0907 67.1936 43.0829 67.1167C42.8516 67.1407 42.6973 67.1567 42.3811 67.1117C42.5198 66.9419 42.6662 66.8491 42.7355 66.7642C42.7278 66.6873 42.6429 66.6184 42.6429 66.6184C42.7737 66.3717 43.136 66.101 43.5138 65.9842C43.668 65.9682 43.8222 65.9522 43.9764 65.9363C44.1385 65.9972 44.2234 66.0661 44.3083 66.135C44.5863 66.5725 44.4943 67.2037 44.1399 67.5512Z" fill="black"/>
<path d="M42.7405 66.8352C42.8824 66.6483 43.1154 66.632 43.3618 66.7918C43.1221 66.72 42.8958 66.8243 42.7405 66.8352Z" fill="black"/>
<path d="M166.315 36.2733C166.331 36.4274 166.27 36.5898 166.201 36.675C165.994 36.9308 165.779 37.1094 165.549 37.1339C165.473 37.1421 165.396 37.1502 165.319 37.1584C165.089 37.1828 164.851 37.1302 164.682 36.9924C164.513 36.8545 164.336 36.6395 164.305 36.3312L164.22 36.2622C164.136 36.1933 164.12 36.0391 164.112 35.962C164.089 35.7308 164.073 35.5766 164.05 35.3453C164.019 35.0369 163.995 34.8057 163.964 34.4973C163.956 34.4202 163.956 34.4202 164.025 34.335C164.139 33.9332 164.423 33.6693 164.714 33.4825C164.867 33.4662 164.936 33.3809 165.09 33.3646C165.09 33.3646 165.09 33.3646 165.166 33.3564C165.32 33.3401 165.481 33.4009 165.566 33.4698C165.919 33.8997 166.128 34.4231 166.267 35.0316C166.237 35.5023 166.353 35.8796 166.315 36.2733Z" fill="white"/>
<path d="M171.603 34.2974C171.596 34.9977 171.181 35.5075 170.68 35.9483C170.465 36.1263 170.072 36.0896 169.748 35.968C169.501 35.8383 169.255 35.7086 169.162 35.5628C169.061 35.3401 169.123 35.1783 169.099 34.9475C169.145 34.6318 169.276 34.385 169.484 34.1301C169.622 33.9602 169.691 33.8752 169.838 33.7822C169.907 33.6973 169.984 33.6892 169.976 33.6123C170.045 33.5274 170.122 33.5193 170.192 33.4344L170.253 33.2725C170.399 33.1795 170.631 33.1554 170.862 33.1312L170.877 33.285C170.954 33.277 171.031 33.2689 171.185 33.2529C171.27 33.3217 171.355 33.3906 171.44 33.4595C171.44 33.4595 171.448 33.5364 171.533 33.6052C171.548 33.7591 171.656 34.0587 171.603 34.2974Z" fill="white"/>
<path d="M175.216 37.6368C174.854 37.9074 174.569 38.17 174.106 38.2178C173.952 38.2338 173.79 38.1728 173.551 38.1199C173.466 38.0509 173.458 37.974 173.373 37.9051L173.365 37.8282C173.172 37.4597 173.126 36.9982 173.318 36.5898C173.31 36.5129 173.38 36.428 173.38 36.428C173.511 36.1814 173.95 35.9028 174.397 35.7012C174.698 35.5924 175.006 35.5605 175.246 35.6135C175.323 35.6055 175.331 35.6824 175.415 35.7513C175.508 35.8971 175.593 35.9661 175.686 36.1119C175.825 36.7191 175.717 37.1965 175.216 37.6368Z" fill="white"/>
<path d="M168.623 37.7483C169.07 37.5472 169.534 37.4998 170.005 37.5293C170.321 37.5746 170.792 37.6042 171.039 37.7343C172.035 38.3318 172.538 39.4459 172.801 40.5069C173.063 41.5678 172.987 43.9067 172.038 44.5477C171.235 45.096 169.605 43.6309 168.671 43.6488C168.123 43.6271 165.807 43.864 165.243 43.6885C164.193 43.3297 164.764 42.0281 165.111 40.8271C165.674 39.4485 167.426 38.2592 168.623 37.7483Z" fill="white"/>
<path opacity="0.3" d="M165.285 36.9271C165.224 37.0894 163.556 35.9424 164.422 35.3049C165.151 34.838 165.468 36.4402 165.285 36.9271Z" fill="#BBBBBA"/>
<path opacity="0.3" d="M170.278 35.13C170.278 35.13 170.201 35.1381 170.278 35.13C170.224 35.3693 170.24 35.5234 170.171 35.6087C170.11 35.7709 169.964 35.8643 169.811 35.8806C169.565 35.751 169.319 35.6213 169.227 35.4754L169.219 35.3983C169.026 35.0293 169.072 34.7129 169.109 34.3194C169.17 34.1571 169.308 33.9867 169.546 34.0393L169.623 34.0311C169.861 34.0837 170.03 34.2215 170.13 34.4446C170.13 34.4446 170.13 34.4446 170.138 34.5216C170.231 34.6676 170.254 34.8988 170.278 35.13Z" fill="#BBBBBA"/>
<path opacity="0.3" d="M174.925 36.339C175.033 36.639 174.804 37.442 174.382 37.8761C174.321 38.0384 174.175 38.1317 174.106 38.2169C173.953 38.2332 173.791 38.1725 173.553 38.1199C173.476 38.1281 173.469 38.051 173.392 38.0592C173.384 37.9821 173.376 37.9051 173.368 37.8281C173.361 37.751 173.361 37.751 173.353 37.674C173.321 37.3658 173.29 37.0576 173.336 36.7413C173.328 36.6643 173.328 36.6643 173.32 36.5872C173.312 36.5102 173.312 36.5102 173.304 36.4332C173.503 36.1005 173.779 35.7597 174.071 35.573C174.148 35.5649 174.309 35.6256 174.394 35.6945C174.478 35.7634 174.478 35.7634 174.563 35.8323C174.732 35.9701 174.901 36.1078 174.925 36.339Z" fill="#BBBBBA"/>
<path opacity="0.3" d="M167.639 42.7974C167.225 43.3086 166.396 43.5524 165.69 43.4717C165.613 43.4798 165.451 43.4191 165.375 43.4273C165.298 43.4354 165.213 43.3665 165.205 43.2895C165.036 43.1517 164.928 42.8517 164.905 42.6205C164.897 42.5435 164.889 42.4664 164.873 42.3124C164.834 41.9271 164.88 41.6108 164.925 41.2944C165.048 40.97 165.17 40.6455 165.3 40.398C165.606 39.5868 166.157 38.9052 166.886 38.4384C166.955 38.3532 167.101 38.2598 167.254 38.2435C167.408 38.2272 167.5 38.3732 167.508 38.4502C167.508 38.4502 167.516 38.5272 167.593 38.5191C167.878 39.0339 167.818 39.9748 167.934 40.3519C168.089 41.1142 168.19 42.1158 167.639 42.7974Z" fill="#BBBBBA"/>
<path d="M172.916 40.1052C172.715 39.6596 172.507 39.137 172.229 38.6992C171.325 37.4707 170.807 36.9797 169.117 37.2304C168.808 37.2619 168.507 37.3704 168.283 37.471C167.835 37.6722 167.465 37.8655 167.102 38.1358C166.955 38.2285 166.886 38.3133 166.731 38.3291C166.006 38.8695 165.443 39.471 165.134 40.2796C165.011 40.6031 164.887 40.9265 164.756 41.173C164.633 41.4964 164.509 41.8199 164.386 42.1433C164.139 42.7902 164.525 43.5277 165.166 43.6953C165.49 43.8175 165.876 43.778 166.193 43.8233C166.811 43.7602 167.428 43.697 167.969 43.6417C168.663 43.5706 169.304 43.7382 169.891 44.1444C170.3 44.3356 170.632 44.5348 171.042 44.726C171.204 44.7871 171.443 44.8404 171.59 44.7476C172.269 44.5228 172.686 44.0139 172.848 43.298C172.886 42.9056 172.925 42.5131 172.979 42.2745C172.932 41.8131 172.971 41.4206 172.932 41.0361C173.14 40.7816 173.024 40.405 172.916 40.1052ZM171.25 44.4716C170.918 44.2725 170.439 44.166 170.1 43.89C169.52 43.5607 168.957 43.3852 168.254 43.3794C167.791 43.4268 167.251 43.482 166.787 43.5294C166.556 43.5531 166.247 43.5847 166.015 43.6084C165.707 43.64 165.537 43.5019 165.374 43.4408C165.205 43.3028 165.019 43.011 164.988 42.7033C164.98 42.6264 164.973 42.5495 164.965 42.4726C164.988 41.9263 165.057 41.8415 165.505 41.6403C165.883 41.5239 166.262 41.4075 166.563 41.299L166.555 41.2221C166.099 41.3464 165.644 41.4707 165.111 41.6029C165.142 41.1335 165.451 41.1019 165.675 41.0013C166.13 40.8771 166.663 40.7449 167.118 40.6206C167.195 40.6127 167.273 40.6048 167.342 40.52L167.334 40.4431C166.725 40.5831 166.045 40.808 165.358 40.956C165.335 40.7253 165.474 40.5557 165.535 40.394C165.736 40.0626 165.937 39.7313 166.222 39.469C166.492 39.0528 166.925 38.6978 167.372 38.4966C167.372 38.4966 167.45 38.4887 167.442 38.4118C167.588 38.3191 167.743 38.3033 167.812 38.2185C168.623 37.7471 169.557 37.7292 170.499 37.7883C171.047 37.8099 171.402 38.2398 171.673 38.6007C172.221 39.3993 172.615 40.2137 172.716 41.2136C172.793 41.9827 172.786 42.6828 172.632 43.4755C172.516 43.8759 172.308 44.1303 171.945 44.4005C171.806 44.5701 171.582 44.6707 171.25 44.4716Z" fill="black"/>
<path d="M166.343 35.0244C166.134 34.5017 165.926 33.9791 165.425 33.6429C165.341 33.5741 165.179 33.5134 165.026 33.5296C164.949 33.5378 164.949 33.5378 164.872 33.5459C164.795 33.554 164.649 33.6473 164.572 33.6554C164.28 33.842 163.996 34.1055 163.882 34.5067C163.889 34.5837 163.813 34.5918 163.82 34.6688C163.514 35.4794 163.662 36.1642 164.278 36.8771C164.548 37.2377 164.955 37.4279 165.486 37.294C165.716 37.2696 166 37.0061 166.138 36.8358C166.346 36.5805 166.468 36.2562 166.437 35.9483C166.474 35.5552 166.451 35.3242 166.343 35.0244ZM165.362 36.8402C165.2 36.7795 165.039 36.7188 164.862 36.5041C164.523 36.2286 164.33 35.86 164.291 35.475C164.275 35.321 164.26 35.1671 164.167 35.0212C164.181 34.3972 164.465 34.1336 164.818 33.785C165.033 33.6066 165.203 33.7443 165.364 33.8051C165.788 34.1493 165.996 34.672 166.128 35.2028C166.236 35.5026 166.267 35.8106 166.153 36.2118C165.977 36.7751 165.685 36.9616 165.362 36.8402Z" fill="black"/>
<path d="M171.526 33.5259C171.51 33.3721 171.41 33.1494 171.317 33.0036C171.147 32.8659 170.978 32.7282 170.832 32.8213C170.454 32.9386 170.077 33.0559 169.793 33.319C169.5 33.5052 169.224 33.8452 169.117 34.323C168.994 34.6469 169.033 35.0315 169.226 35.4L169.234 35.4769C169.326 35.6227 169.581 35.8293 169.82 35.8819C170.143 36.0035 170.536 36.04 170.751 35.8619C171.251 35.4207 171.589 34.9188 171.673 34.2102C171.657 34.0564 171.549 33.7567 171.526 33.5259ZM171.266 34.7972C171.135 35.0442 171.005 35.2911 170.789 35.4692C170.651 35.6392 170.443 35.8942 170.104 35.6188C170.104 35.6188 170.104 35.6188 170.027 35.6269C169.942 35.5581 169.788 35.5742 169.634 35.5904C169.85 35.4123 169.842 35.3354 170.142 35.2261C170.219 35.218 170.288 35.133 170.365 35.1249C170.288 35.133 170.211 35.1411 170.134 35.1492C169.903 35.1734 169.68 35.2746 169.372 35.3069C169.317 34.7684 169.317 34.7684 169.695 34.6511C169.772 34.643 169.918 34.5499 170.072 34.5337C170.149 34.5257 170.149 34.5257 170.218 34.4407C170.141 34.4487 170.141 34.4487 170.064 34.4568C169.833 34.4811 169.679 34.4972 169.379 34.6065C169.363 34.4526 169.417 34.2137 169.486 34.1287C169.555 34.0437 169.616 33.8818 169.763 33.7887C169.832 33.7037 169.909 33.6956 169.901 33.6187C169.97 33.5337 170.047 33.5256 170.116 33.4406C170.116 33.4406 170.116 33.4406 170.193 33.4325C170.339 33.3394 170.563 33.2382 170.717 33.2221L170.801 33.2909C171.372 33.5421 171.527 34.3033 171.266 34.7972Z" fill="black"/>
<path d="M175.686 36.1092C175.547 35.502 174.976 35.2503 174.374 35.468C174.297 35.4759 174.151 35.5688 174.074 35.5768C173.781 35.7626 173.496 36.0252 173.303 36.4337C173.172 36.6803 173.119 36.919 173.065 37.1577C173.042 37.704 173.058 37.8578 173.389 38.0566C173.467 38.0486 173.474 38.1255 173.551 38.1175C173.714 38.1784 173.953 38.2313 174.107 38.2154C174.492 38.1754 174.862 37.9817 175.217 37.6342C175.718 37.1938 175.825 36.7164 175.686 36.1092ZM175.186 37.3266C174.901 37.5892 174.685 37.767 174.384 37.8758C174.23 37.8918 174.076 37.9078 173.922 37.9237C173.821 37.701 173.643 37.4863 173.458 37.1947C173.682 37.0938 173.913 37.0699 174.137 36.969C174.137 36.969 174.137 36.969 174.129 36.8921C173.897 36.9161 173.743 36.932 173.427 36.8871C173.566 36.7173 173.712 36.6244 173.781 36.5395C173.774 36.4626 173.689 36.3937 173.689 36.3937C173.82 36.1471 174.182 35.8764 174.56 35.7596C174.714 35.7436 174.868 35.7276 175.022 35.7117C175.184 35.7726 175.269 35.8415 175.354 35.9104C175.632 36.3479 175.54 36.979 175.186 37.3266Z" fill="black"/>
<path d="M173.786 36.6106C173.928 36.4237 174.161 36.4074 174.408 36.5672C174.175 36.5835 173.942 36.5997 173.786 36.6106Z" fill="black"/>
<path d="M172.252 53.6453C172.267 53.7995 172.206 53.9618 172.137 54.0471C171.93 54.3028 171.716 54.4815 171.486 54.506C171.409 54.5141 171.332 54.5223 171.256 54.5304C171.026 54.5549 170.788 54.5023 170.618 54.3644C170.449 54.2266 170.273 54.0116 170.241 53.7032L170.157 53.6343C170.072 53.5654 170.057 53.4112 170.049 53.3341C170.025 53.1028 170.01 52.9486 169.986 52.7174C169.955 52.409 169.932 52.1777 169.9 51.8694C169.893 51.7923 169.893 51.7923 169.961 51.707C170.076 51.3053 170.359 51.0414 170.65 50.8545C170.804 50.8382 170.873 50.753 171.026 50.7367C171.026 50.7367 171.026 50.7367 171.103 50.7285C171.256 50.7122 171.418 50.773 171.502 50.8419C171.856 51.2718 172.064 51.7951 172.203 52.4037C172.173 52.8744 172.289 53.2517 172.252 53.6453Z" fill="white"/>
<path d="M177.539 51.6695C177.532 52.3698 177.117 52.8796 176.617 53.3205C176.401 53.4985 176.008 53.4618 175.685 53.3401C175.438 53.2104 175.191 53.0808 175.098 52.935C174.998 52.7123 175.059 52.5504 175.036 52.3196C175.082 52.0039 175.212 51.7571 175.42 51.5022C175.559 51.3323 175.628 51.2473 175.774 51.1543C175.843 51.0694 175.92 51.0613 175.913 50.9844C175.982 50.8994 176.059 50.8914 176.128 50.8064L176.19 50.6446C176.336 50.5515 176.567 50.5274 176.798 50.5033L176.814 50.6571C176.891 50.649 176.968 50.641 177.122 50.6249C177.207 50.6938 177.292 50.7626 177.376 50.8315C177.376 50.8315 177.384 50.9084 177.469 50.9773C177.485 51.1311 177.593 51.4307 177.539 51.6695Z" fill="white"/>
<path d="M181.153 55.0089C180.791 55.2795 180.505 55.5421 180.043 55.5899C179.888 55.6059 179.726 55.5449 179.487 55.4919C179.402 55.423 179.395 55.3461 179.31 55.2772L179.302 55.2003C179.109 54.8317 179.062 54.3703 179.255 53.9619C179.247 53.885 179.316 53.8001 179.316 53.8001C179.447 53.5535 179.887 53.2749 180.334 53.0733C180.634 52.9645 180.943 52.9326 181.182 52.9855C181.259 52.9776 181.267 53.0545 181.352 53.1234C181.445 53.2692 181.53 53.3381 181.622 53.484C181.762 54.0912 181.654 54.5685 181.153 55.0089Z" fill="white"/>
<path d="M174.559 55.1204C175.007 54.9192 175.47 54.8718 175.941 54.9014C176.258 54.9467 176.729 54.9763 176.976 55.1064C177.972 55.7038 178.474 56.818 178.737 57.8789C179 58.9399 178.924 61.2788 177.974 61.9198C177.171 62.4681 175.542 61.003 174.608 61.0208C174.059 60.9992 171.743 61.236 171.18 61.0606C170.13 60.7018 170.7 59.4001 171.047 58.1991C171.611 56.8206 173.355 55.5544 174.559 55.1204Z" fill="white"/>
<path opacity="0.3" d="M171.221 54.2991C171.16 54.4614 169.493 53.3143 170.359 52.6769C171.079 52.1328 171.405 53.8122 171.221 54.2991Z" fill="#BBBBBA"/>
<path opacity="0.3" d="M176.214 52.502C176.214 52.502 176.137 52.5102 176.214 52.502C176.161 52.7414 176.177 52.8955 176.108 52.9807C176.046 53.143 175.901 53.2364 175.747 53.2527C175.501 53.1231 175.255 52.9934 175.163 52.8474L175.155 52.7704C174.963 52.4014 175.008 52.085 175.046 51.6915C175.107 51.5292 175.245 51.3588 175.483 51.4114L175.56 51.4032C175.798 51.4558 175.967 51.5936 176.067 51.8166C176.067 51.8166 176.067 51.8166 176.075 51.8937C176.167 52.0397 176.191 52.2709 176.214 52.502Z" fill="#BBBBBA"/>
<path opacity="0.3" d="M180.861 53.711C180.969 54.011 180.74 54.8141 180.319 55.2482C180.258 55.4104 180.112 55.5038 180.043 55.589C179.889 55.6053 179.728 55.5446 179.49 55.492C179.413 55.5001 179.405 55.4231 179.328 55.4312C179.321 55.3542 179.313 55.2772 179.305 55.2001C179.297 55.1231 179.297 55.1231 179.289 55.046C179.258 54.7379 179.227 54.4297 179.272 54.1134C179.264 54.0364 179.264 54.0363 179.257 53.9593C179.249 53.8823 179.249 53.8823 179.241 53.8052C179.44 53.4726 179.716 53.1318 180.007 52.9451C180.084 52.937 180.246 52.9977 180.33 53.0666C180.415 53.1355 180.415 53.1355 180.499 53.2044C180.669 53.3421 180.838 53.4799 180.861 53.711Z" fill="#BBBBBA"/>
<path opacity="0.3" d="M173.575 60.1694C173.162 60.6807 172.333 60.9245 171.626 60.8438C171.549 60.8519 171.388 60.7912 171.311 60.7993C171.234 60.8075 171.15 60.7386 171.142 60.6616C170.973 60.5238 170.865 60.2237 170.841 59.9926C170.833 59.9156 170.826 59.8385 170.81 59.6844C170.771 59.2992 170.816 58.9829 170.862 58.6665C170.984 58.342 171.106 58.0175 171.236 57.7701C171.542 56.9588 172.094 56.2772 172.822 55.8105C172.891 55.7253 173.037 55.6319 173.191 55.6156C173.344 55.5993 173.437 55.7452 173.444 55.8223C173.444 55.8223 173.452 55.8993 173.529 55.8912C173.814 56.406 173.754 57.3469 173.87 57.7239C174.025 58.4862 174.127 59.4878 173.575 60.1694Z" fill="#BBBBBA"/>
<path d="M178.853 57.4773C178.652 57.0316 178.443 56.509 178.165 56.0713C177.261 54.8428 176.744 54.3518 175.053 54.6024C174.744 54.634 174.443 54.7425 174.219 54.8431C173.772 55.0443 173.401 55.2376 173.038 55.5078C172.892 55.6005 172.822 55.6853 172.668 55.7011C171.942 56.2416 171.379 56.8431 171.071 57.6517C170.947 57.9751 170.824 58.2986 170.693 58.5451C170.569 58.8685 170.446 59.1919 170.322 59.5154C170.075 60.1622 170.462 60.8998 171.103 61.0673C171.427 61.1895 171.813 61.1501 172.129 61.1954C172.747 61.1322 173.365 61.069 173.905 61.0138C174.6 60.9427 175.241 61.1103 175.828 61.5164C176.237 61.7077 176.569 61.9068 176.978 62.0981C177.14 62.1592 177.38 62.2124 177.526 62.1197C178.206 61.8948 178.622 61.386 178.784 60.6701C178.823 60.2776 178.861 59.8852 178.915 59.6466C178.869 59.1851 178.907 58.7927 178.868 58.4081C179.077 58.1537 178.961 57.777 178.853 57.4773ZM177.187 61.8437C176.855 61.6445 176.376 61.5381 176.036 61.262C175.457 60.9327 174.893 60.7573 174.191 60.7514C173.727 60.7988 173.187 60.8541 172.724 60.9015C172.492 60.9252 172.183 60.9568 171.952 60.9805C171.643 61.012 171.473 60.874 171.311 60.8129C171.141 60.6749 170.956 60.383 170.925 60.0754C170.917 59.9985 170.909 59.9216 170.901 59.8447C170.924 59.2984 170.994 59.2136 171.442 59.0124C171.82 58.896 172.198 58.7796 172.499 58.6711L172.491 58.5942C172.036 58.7185 171.58 58.8428 171.048 58.975C171.079 58.5056 171.387 58.474 171.611 58.3734C172.067 58.2491 172.599 58.1169 173.055 57.9926C173.132 57.9847 173.209 57.9768 173.279 57.892L173.271 57.8151C172.661 57.9552 171.982 58.1801 171.295 58.3281C171.271 58.0973 171.41 57.9277 171.472 57.766C171.673 57.4347 171.873 57.1034 172.159 56.841C172.429 56.4249 172.861 56.0699 173.309 55.8687C173.309 55.8687 173.386 55.8608 173.378 55.7839C173.525 55.6912 173.679 55.6754 173.749 55.5906C174.559 55.1192 175.493 55.1013 176.435 55.1604C176.984 55.182 177.339 55.6119 177.609 55.9727C178.158 56.7714 178.552 57.5858 178.652 58.5856C178.73 59.3547 178.722 60.0548 178.568 60.8476C178.453 61.2479 178.244 61.5024 177.881 61.7726C177.743 61.9422 177.519 62.0428 177.187 61.8437Z" fill="black"/>
<path d="M172.279 52.3965C172.071 51.8738 171.862 51.3511 171.362 51.015C171.277 50.9462 171.116 50.8854 170.962 50.9017C170.885 50.9098 170.885 50.9098 170.808 50.918C170.731 50.9261 170.585 51.0194 170.509 51.0275C170.217 51.214 169.933 51.4775 169.818 51.8788C169.826 51.9558 169.749 51.9639 169.757 52.0409C169.451 52.8514 169.598 53.5362 170.214 54.2492C170.484 54.6097 170.892 54.8 171.422 54.6661C171.653 54.6417 171.937 54.3781 172.075 54.2079C172.282 53.9525 172.404 53.6283 172.373 53.3203C172.411 52.9273 172.38 52.6193 172.279 52.3965ZM171.298 54.2123C171.137 54.1515 170.975 54.0908 170.798 53.8761C170.459 53.6007 170.266 53.232 170.227 52.8471C170.212 52.6931 170.196 52.5391 170.104 52.3933C170.118 51.7692 170.402 51.5057 170.755 51.1571C170.97 50.9787 171.139 51.1164 171.301 51.1771C171.724 51.5214 171.933 52.0441 172.064 52.5748C172.172 52.8747 172.204 53.1826 172.089 53.5839C171.913 54.1472 171.622 54.3337 171.298 54.2123Z" fill="black"/>
<path d="M177.462 50.898C177.446 50.7442 177.346 50.5214 177.253 50.3757C177.084 50.238 176.914 50.1003 176.768 50.1934C176.391 50.3107 176.014 50.428 175.729 50.6911C175.437 50.8773 175.16 51.2173 175.053 51.695C174.93 52.0189 174.969 52.4036 175.162 52.7721L175.17 52.849C175.263 52.9948 175.517 53.2013 175.756 53.254C176.08 53.3756 176.472 53.4121 176.688 53.234C177.188 52.7928 177.526 52.2908 177.609 51.5823C177.594 51.4284 177.486 51.1288 177.462 50.898ZM177.202 52.1693C177.072 52.4162 176.941 52.6632 176.726 52.8413C176.587 53.0113 176.38 53.2663 176.041 52.9909C176.041 52.9909 176.041 52.9909 175.964 52.999C175.879 52.9301 175.725 52.9463 175.571 52.9625C175.786 52.7844 175.778 52.7074 176.079 52.5982C176.156 52.5901 176.225 52.5051 176.302 52.497C176.225 52.5051 176.148 52.5132 176.071 52.5213C175.84 52.5455 175.617 52.6467 175.309 52.679C175.254 52.1405 175.254 52.1405 175.631 52.0231C175.708 52.0151 175.854 51.922 176.008 51.9058C176.085 51.8977 176.085 51.8977 176.154 51.8127C176.077 51.8208 176.077 51.8208 176 51.8289C175.769 51.8531 175.615 51.8693 175.315 51.9785C175.3 51.8247 175.353 51.5858 175.422 51.5008C175.492 51.4158 175.553 51.2538 175.699 51.1608C175.768 51.0758 175.845 51.0677 175.838 50.9907C175.907 50.9057 175.984 50.8977 176.053 50.8126C176.053 50.8126 176.053 50.8126 176.13 50.8046C176.276 50.7115 176.499 50.6103 176.653 50.5942L176.738 50.663C177.308 50.9142 177.455 51.5985 177.202 52.1693Z" fill="black"/>
<path d="M181.623 53.4812C181.483 52.874 180.912 52.6223 180.311 52.84C180.234 52.848 180.087 52.9409 180.01 52.9489C179.717 53.1346 179.432 53.3973 179.24 53.8057C179.109 54.0524 179.055 54.2911 179.001 54.5298C178.979 55.0761 178.994 55.2299 179.326 55.4286C179.403 55.4206 179.411 55.4975 179.488 55.4896C179.65 55.5505 179.889 55.6034 180.043 55.5874C180.429 55.5475 180.799 55.3538 181.153 55.0062C181.654 54.5658 181.762 54.0885 181.623 53.4812ZM181.122 54.6986C180.837 54.9613 180.621 55.139 180.321 55.2479C180.167 55.2639 180.012 55.2798 179.858 55.2958C179.758 55.0731 179.58 54.8584 179.395 54.5668C179.618 54.4659 179.85 54.4419 180.073 54.3411C180.073 54.3411 180.073 54.3411 180.065 54.2642C179.834 54.2881 179.68 54.3041 179.364 54.2592C179.502 54.0894 179.649 53.9965 179.718 53.9116C179.71 53.8347 179.625 53.7658 179.625 53.7658C179.756 53.5191 180.118 53.2485 180.496 53.1317C180.65 53.1157 180.805 53.0997 180.959 53.0837C181.121 53.1447 181.206 53.2136 181.291 53.2825C181.569 53.7199 181.477 54.3511 181.122 54.6986Z" fill="black"/>
<path d="M179.723 53.9826C179.865 53.7957 180.098 53.7795 180.344 53.9393C180.105 53.8675 179.878 53.9718 179.723 53.9826Z" fill="black"/>
</svg>
