<svg width="14" height="15" viewBox="0 0 14 15" fill="none" xmlns="http://www.w3.org/2000/svg">
<path d="M14 7.13519C14 5.73922 13.5895 4.3746 12.8203 3.21389C12.0511 2.05318 10.9579 1.14852 9.67879 0.6143C8.3997 0.0800846 6.99224 -0.0596906 5.63437 0.21265C4.2765 0.484991 3.02922 1.15722 2.05026 2.14432C1.07129 3.13142 0.404603 4.38906 0.134506 5.75821C-0.13559 7.12736 0.003033 8.54653 0.532846 9.83624C1.06266 11.1259 1.95987 12.2283 3.11101 13.0038C4.26215 13.7794 5.61553 14.1934 7 14.1934C8.85652 14.1934 10.637 13.4497 11.9497 12.1261C13.2625 10.8024 14 9.00714 14 7.13519ZM7 12.9386C5.86166 12.9386 4.74888 12.5982 3.80239 11.9605C2.85589 11.3228 2.11819 10.4165 1.68256 9.35605C1.24694 8.29562 1.13296 7.12876 1.35504 6.00301C1.57712 4.87727 2.12528 3.8432 2.93021 3.03159C3.73514 2.21997 4.76068 1.66725 5.87715 1.44332C6.99362 1.2194 8.15087 1.33433 9.20256 1.77357C10.2542 2.21281 11.1531 2.95665 11.7856 3.91101C12.418 4.86537 12.7556 5.98739 12.7556 7.13519C12.7538 8.67381 12.1469 10.1489 11.0679 11.2369C9.98888 12.3248 8.52594 12.9368 7 12.9386Z" fill="black" fill-opacity="0.5"/>
<path d="M7.00019 4.43787C7.12268 4.43787 7.24242 4.40124 7.34426 4.33262C7.44611 4.26401 7.52549 4.16648 7.57236 4.05238C7.61924 3.93828 7.6315 3.81272 7.60761 3.69159C7.58371 3.57046 7.52472 3.45919 7.43811 3.37186C7.3515 3.28453 7.24114 3.22506 7.12101 3.20096C7.00087 3.17687 6.87635 3.18924 6.76318 3.2365C6.65001 3.28376 6.55329 3.3638 6.48524 3.46649C6.41718 3.56918 6.38086 3.68991 6.38086 3.81341C6.38086 3.89542 6.39688 3.97662 6.428 4.05238C6.45913 4.12814 6.50475 4.19698 6.56226 4.25497C6.61977 4.31296 6.68804 4.35895 6.76318 4.39033C6.83832 4.42172 6.91886 4.43787 7.00019 4.43787Z" fill="black" fill-opacity="0.5"/>
<path d="M8.09595 10.1546C7.88162 10.0853 7.61971 9.88214 7.61971 9.30278V5.49924C7.61971 5.48573 7.61707 5.47235 7.61194 5.45987C7.60682 5.44739 7.5993 5.43605 7.58983 5.42649C7.58035 5.41694 7.56911 5.40936 7.55673 5.40419C7.54435 5.39902 7.53108 5.39636 7.51768 5.39636H6.01414C5.9638 5.39636 5.91397 5.40636 5.86746 5.42578C5.82096 5.4452 5.77871 5.47366 5.74312 5.50955C5.70753 5.54544 5.6793 5.58804 5.66004 5.63493C5.64077 5.68181 5.63086 5.73207 5.63086 5.78282C5.63156 5.86587 5.6585 5.94654 5.70777 6.01309C5.75704 6.07965 5.82608 6.12864 5.90485 6.15293C6.11916 6.22219 6.38106 6.42536 6.38106 7.00471V9.30278C6.38106 9.88215 6.11916 10.0853 5.90485 10.1546C5.82608 10.1789 5.75704 10.2278 5.70777 10.2944C5.6585 10.361 5.63156 10.4416 5.63086 10.5247C5.63086 10.5754 5.64077 10.6257 5.66004 10.6726C5.6793 10.7195 5.70753 10.7621 5.74312 10.7979C5.77871 10.8338 5.82096 10.8623 5.86746 10.8817C5.91397 10.9011 5.9638 10.9111 6.01414 10.9111H7.98667C8.037 10.9111 8.08684 10.9011 8.13334 10.8817C8.17984 10.8623 8.22209 10.8338 8.25768 10.7979C8.29327 10.7621 8.3215 10.7195 8.34076 10.6726C8.36002 10.6257 8.36993 10.5754 8.36993 10.5247C8.36924 10.4416 8.34229 10.361 8.29302 10.2944C8.24375 10.2278 8.17472 10.1789 8.09595 10.1546Z" fill="black" fill-opacity="0.5"/>
</svg>
