<svg width="58" height="62" viewBox="0 0 58 62" fill="none" xmlns="http://www.w3.org/2000/svg">
<path d="M57.1 33.3421C56.7 35.6421 56.4 38.1421 56 40.6421C55.6 43.8421 53.8 46.3421 51.8 48.5421C49.4 51.2421 46.7 53.5421 43.4 55.2421C38.6 57.6421 33.4 58.6421 28.1 58.9421C20.9 59.3421 14.5 57.0421 8.8 52.5421C4.7 49.2421 2.6 44.8421 0.5 40.3421C0.1 39.5421 0 38.6421 0 37.7421C0.3 34.6421 0.2 31.3421 1.2 28.4421C2.5 24.7421 3.6 20.9421 5.8 17.4421C8.2 13.7421 11 10.6421 14.5 8.2421C17.6 6.1421 21 4.7421 24.8 4.4421C25.4 4.4421 26 4.3421 26.6 4.2421C35.6 2.7421 42.8 6.3421 49.2 12.1421C53 15.5421 54.6 20.2421 55.8 24.9421C56.6 27.5421 56.7 30.3421 57.1 33.3421ZM55.1 33.0421C55.3 26.0421 53.4 19.6421 48.7 14.2421C44.4 9.3421 38.9 6.3421 32.5 5.7421C26.3 5.3421 20.6 7.1421 15.7 11.0421C10 15.6421 6.1 21.6421 3.6 28.3421C2.5 31.3421 2 34.9421 2.5 38.1421C4 46.2421 9.1 51.8421 16.5 54.8421C24.9 58.2421 33.3 57.6421 41.5 53.8421C50.3 49.7421 55.4 43.2421 55.1 33.0421Z" fill="#EB584A"/>
<path d="M35.402 56.0422C36.802 58.1422 41.802 61.8422 44.202 61.0422C45.502 60.6422 45.802 61.1422 46.302 59.8422C47.202 57.3422 44.502 52.0422 44.102 49.4422C41.902 36.7422 36.402 24.2422 29.802 13.1422C27.502 9.34222 25.002 2.44222 25.002 2.44222C21.102 0.742217 11.302 3.04222 10.402 7.64222C9.60198 11.7422 14.902 18.8422 16.602 22.1422C22.602 33.5422 28.302 45.2422 35.402 56.0422Z" fill="white"/>
<path d="M19.8031 27.9418C19.8031 27.9418 22.4031 32.3418 27.1031 41.0418C28.6031 43.8418 30.2031 47.7418 32.0031 50.2418C34.8031 54.1418 40.3031 61.8418 44.7031 60.8418C48.0031 59.7418 46.5031 53.2418 44.5031 49.7418C41.5031 44.6418 34.1031 39.5418 29.2031 36.2418C24.5031 32.9418 22.2031 31.9418 19.7031 26.8418" fill="#BCBCBB"/>
<path d="M39.002 59.6425C34.302 56.2425 31.502 51.3425 28.802 46.4425C24.202 37.9425 19.702 29.3425 15.202 20.7425C13.402 17.1425 11.602 13.5425 9.90199 9.94245C9.70199 9.34245 9.80199 8.34245 10.002 7.64245C11.602 3.54245 18.402 -0.457546 22.802 0.0424536C23.902 0.142454 24.502 0.742454 25.002 1.84245C27.602 7.54245 30.402 13.1425 33.102 18.8425C35.002 23.0425 37.002 27.2425 38.702 31.5425C41.402 38.5425 44.002 45.6425 46.502 52.6425C47.102 54.3425 47.402 56.2425 47.402 58.0425C47.402 61.0425 44.602 62.6425 41.902 61.3425C40.902 60.9425 40.002 60.2425 39.002 59.6425ZM14.102 9.94245C12.702 10.2425 11.102 10.6425 11.102 10.6425C13.702 15.6425 18.102 23.8425 20.902 28.8425C23.802 34.2425 27.402 41.4425 30.502 46.7425C32.702 50.4425 33.902 51.9425 36.702 55.4425C37.602 56.3425 38.802 57.5425 39.402 58.0425C39.902 56.4425 40.502 53.6425 40.902 52.3425C41.202 53.8425 40.602 57.1425 40.402 58.5425C40.402 58.5425 40.802 59.2425 42.002 59.5425C42.502 58.3425 43.202 55.6425 43.802 54.0425C43.602 55.8425 43.402 57.9425 43.302 59.8425C44.502 60.2425 46.802 59.9425 46.502 57.9425C46.602 56.4425 45.802 53.3425 45.302 52.0425C44.202 49.1425 43.302 46.7425 42.402 43.7425C39.602 34.9425 36.502 27.4425 32.202 19.2425C30.202 15.5425 28.802 11.8425 27.002 8.14245C26.102 6.24245 25.202 4.74245 25.202 4.74245C22.902 6.34245 20.002 8.54245 14.102 9.94245ZM11.002 9.64245C11.702 9.84245 16.702 8.44245 17.702 7.74245C19.502 6.64245 22.402 5.14245 24.102 3.04245C24.402 2.44245 24.302 2.04245 24.002 1.44245C24.002 1.44245 23.002 0.142454 20.602 0.842454C18.302 1.54245 15.902 2.54245 14.102 4.04245C12.502 4.84245 10.202 7.44245 11.002 9.64245Z" fill="black"/>
<path d="M25.5031 21.3422C27.1031 21.1422 28.2031 19.9422 29.5031 19.7422C29.6031 19.9422 29.6031 20.1422 29.7031 20.3422C28.7031 20.9422 27.5031 21.4422 26.2031 22.3422C27.1031 24.3422 28.5031 27.0422 29.4031 29.2422C30.3031 29.0422 30.9031 28.3422 31.8031 28.1422L32.2031 29.1422C32.2031 29.1422 30.0031 30.2422 29.9031 30.3422C30.4031 31.6422 31.9031 34.8422 32.4031 36.4422C33.8031 36.3422 34.5031 35.3422 35.7031 35.2422C35.8031 35.4422 35.8031 35.6422 35.9031 35.8422C35.5031 36.1422 35.1031 36.3422 34.6031 36.6422C34.1031 36.9422 33.5031 37.1422 32.9031 37.5422C34.2031 41.2422 37.0031 46.7422 38.8031 50.0422L38.1031 50.6422C38.1031 50.6422 37.3031 49.6422 36.9031 48.7422C35.6031 46.3422 34.7031 44.1422 33.5031 41.7422C33.2031 41.1422 32.6031 38.6422 31.8031 37.9422L29.2031 38.6422C29.0031 38.4422 28.6031 37.7422 28.6031 37.7422L31.4031 36.7422C31.4031 36.7422 29.0031 31.6422 28.6031 30.8422C27.9031 30.7422 26.4031 31.8422 26.4031 31.8422C26.4031 31.8422 26.3031 30.7422 26.2031 30.7422C26.4031 30.7422 28.3031 29.4422 28.3031 29.4422C27.5031 27.8422 25.8031 24.5422 25.0031 22.8422C24.6031 22.9422 24.3031 23.0422 23.8031 23.2422C23.3031 23.4422 22.2031 23.6422 22.1031 23.5422C22.1031 23.5422 22.5031 23.0422 22.9031 22.8422C23.3031 22.6422 24.0031 22.0422 24.4031 21.6422C23.1031 19.1422 21.0031 16.0422 19.7031 13.2422C20.9031 13.3422 22.0031 15.2422 22.8031 16.3422C22.9031 16.5422 24.8031 20.0422 25.5031 21.3422Z" fill="black"/>
</svg>
