<svg width="61" height="65" viewBox="0 0 61 65" fill="none" xmlns="http://www.w3.org/2000/svg">
<path d="M61 34.7924C60.6499 37.101 60.256 39.5956 59.9059 42.1012C59.4682 45.2523 57.6957 47.7578 55.7263 50.0227C53.3739 52.7361 50.6386 55.0338 47.3124 56.6969C42.4654 59.1258 37.3121 60.0886 32.0603 60.3512C24.8937 60.7014 18.504 58.4803 12.8036 53.9178C8.71154 50.6463 6.57798 46.2589 4.47726 41.751C4.11619 40.9851 3.94113 40.0223 4.01772 39.1798C4.29125 36.0725 4.18184 32.7792 5.21032 29.9235C6.54516 26.2253 7.60647 22.3959 9.83849 18.9603C12.2346 15.295 15.0137 12.1439 18.5696 9.71491C21.6551 7.60324 25.0797 6.16994 28.8873 5.91829C29.4672 5.88546 30.058 5.86358 30.6379 5.76511C39.6207 4.23333 46.8201 7.85489 53.2317 13.6319C57.0283 17.0456 58.6695 21.6847 59.8621 26.4332C60.5405 29.0701 60.6171 31.8382 61 34.7924ZM58.9649 34.5735C59.1728 27.593 57.2581 21.1705 52.5205 15.7873C48.2315 10.9075 42.6952 7.85489 36.2945 7.32971C30.244 6.83735 24.5436 8.64267 19.6419 12.5597C13.8977 17.1441 10.0464 23.1289 7.46423 29.8031C6.31539 32.7792 5.85586 36.4445 6.41387 39.5628C7.86906 47.6156 12.9786 53.2394 20.4625 56.292C28.8326 59.6948 37.2793 59.1149 45.4524 55.3182C54.1726 51.259 59.2932 44.7599 58.9649 34.5735Z" fill="#EB584A"/>
<path d="M56.3489 4.15312C56.3255 5.01645 56.2089 5.85644 56.0222 6.69644C55.4622 9.26309 54.2722 11.6664 52.7789 13.8364C50.7956 16.7064 48.2989 19.1564 45.8023 21.6064C41.9056 25.4097 37.9856 29.2597 34.0657 33.1096C33.9257 33.2496 33.7857 33.3896 33.669 33.5296C33.3657 33.8563 33.249 33.6463 33.0857 34.0663C32.6657 35.2563 34.019 37.6829 34.439 38.8729C35.209 40.9496 35.1856 42.6763 35.2323 44.8929C35.2323 45.3829 34.4623 45.8262 34.4623 46.3162C34.4856 49.3962 33.9956 52.2429 32.409 54.8329C31.429 56.4195 30.2623 57.9595 28.7923 59.1262C25.9924 61.3195 22.609 63.0228 19.0857 63.4661C16.9157 63.7228 14.9791 63.6295 12.8324 63.2095C11.5024 62.9295 10.1724 62.6028 8.98244 61.9495C7.16245 60.9228 5.83246 59.1962 4.5958 57.5162C3.8258 56.4895 3.05581 55.4629 2.40248 54.3662C1.65581 53.1529 1.02582 51.8695 0.67582 50.4929C-0.350841 46.4796 1.11915 42.2329 3.05581 38.5696C4.7358 35.3963 6.43912 32.7363 9.56577 30.963C12.5524 29.283 16.6824 28.2797 20.0891 28.793C21.6057 29.0263 23.0757 28.8863 24.5224 29.3997C25.9224 29.8897 28.279 31.453 29.7023 31.803C30.869 32.083 32.2923 28.933 33.459 27.2297C37.0756 21.9564 40.7856 16.7764 44.6123 11.6664C46.7122 8.84309 48.8589 6.04311 51.0289 3.26646C51.5656 2.56646 52.1256 1.86646 52.8956 1.42313C53.6656 0.979801 54.6689 0.863135 55.3922 1.35313C56.2322 1.91313 56.3955 3.10312 56.3489 4.15312Z" fill="white"/>
<path d="M32.6845 55.1134C31.7045 56.7001 30.2812 57.9834 28.8112 59.1267C26.0112 61.32 22.8613 63.2334 19.3379 63.6767C17.168 63.9334 14.998 63.63 12.8513 63.21C11.5213 62.93 10.1913 62.6034 9.00133 61.95C7.18134 60.9234 5.24468 59.5001 3.98469 57.8201C3.21469 56.7934 1.76803 54.3434 1.65137 53.1301C2.28136 54.1567 4.52135 56.3267 5.19802 56.9801C6.87801 58.5901 8.838 59.9201 10.9847 60.8067C14.928 62.44 19.6179 62.4867 23.3279 60.41C27.0146 58.3567 29.3479 54.5767 31.1679 50.7734C31.6812 49.7001 32.1712 48.6034 32.9179 47.6934C33.3612 47.1335 33.8979 46.6668 34.5045 46.2935C34.5045 49.3968 34.2712 52.5234 32.6845 55.1134Z" fill="#BBBBBA"/>
<path d="M56.045 6.67383C55.485 9.24048 54.295 11.6438 52.8017 13.8138C50.8184 16.6838 48.3217 19.1338 45.8251 21.5837C41.9051 25.4104 37.9851 29.2604 34.0651 33.1104C33.9251 33.2504 33.7851 33.3904 33.6685 33.5304C32.4551 33.1104 33.4351 31.3137 34.1585 30.1704C39.9218 21.0704 47.3884 13.0671 56.045 6.67383Z" fill="#BBBBBA"/>
<path d="M30.0721 31.617C30.3054 31.2903 30.5154 31.0337 30.7021 30.7537C33.3854 26.6937 36.0221 22.6104 38.7521 18.5971C40.5021 16.0537 42.392 13.6038 44.212 11.1071C45.6587 9.12378 47.1054 7.14046 48.5053 5.1338C49.5087 3.71048 50.442 2.26382 51.3753 0.793827C51.7253 0.257163 52.122 0.0238315 52.752 0.000498243C55.412 -0.022835 57.722 0.770494 59.3553 2.98715C59.7986 3.59381 60.1953 4.24714 60.5686 4.90047C60.8953 5.46047 60.7553 6.7438 60.2886 7.21046C57.8853 9.66045 55.7153 12.3204 53.102 14.5604C52.052 15.4471 50.9787 16.3337 49.9753 17.2904C49.042 18.1771 48.202 19.1337 47.3154 20.0671C46.0787 21.3504 44.8187 22.5637 43.6287 23.8937C42.3454 25.317 40.8987 26.5537 39.5687 27.907C38.2387 29.2837 36.8621 30.637 35.4854 31.9903C34.8554 32.6203 34.2254 33.2737 33.5721 33.9037C33.3154 34.1603 33.2688 34.417 33.3621 34.7203C33.5721 35.257 33.7588 35.7703 34.0388 36.2603C35.2054 38.3836 35.6488 40.7169 35.8821 43.0736C35.9987 44.1003 35.8354 45.1736 35.7188 46.2236C35.4621 48.2769 35.1121 50.3302 34.2954 52.2436C34.1554 52.5469 34.0388 52.8736 33.8754 53.1769C32.5921 55.4402 31.0754 57.5635 29.3721 59.5235C28.4388 60.5735 27.1555 61.2035 25.8488 61.7168C24.4488 62.2535 23.0021 62.7202 21.5788 63.2102C19.2222 64.0268 16.7955 64.2135 14.3222 63.8868C11.5689 63.5135 8.95555 62.6735 6.57557 61.2268C6.34223 61.0868 6.1089 60.9468 5.92224 60.7835C3.33225 58.3335 1.37226 55.4635 0.532263 51.9402C0.228931 50.6336 0.135598 49.2569 0.0422656 47.9036C-0.027734 47.0402 -0.00440114 46.1536 0.0655985 45.3136C0.135598 44.6136 0.275597 43.8903 0.532263 43.2369C1.09226 41.7669 1.72226 40.3203 2.37559 38.8736C3.28558 36.8203 4.35891 34.907 5.9689 33.297C7.53223 31.7337 9.37555 30.567 11.4755 29.8203C12.7822 29.3537 14.1355 28.9803 15.4889 28.6537C17.1222 28.2803 18.7788 28.3037 20.4355 28.327C23.0955 28.3737 25.5455 29.2137 27.8788 30.427C28.5788 30.8003 29.3021 31.197 30.0721 31.617ZM51.422 5.99713C51.562 5.60047 51.632 5.2038 51.4453 4.78381C51.4453 5.18047 51.4453 5.60047 51.422 5.99713C51.072 6.72046 51.1887 7.46713 51.3287 8.21379C51.3753 7.46713 51.3987 6.7438 51.422 5.99713ZM30.1888 32.5503C28.9054 31.827 27.8321 31.127 26.6655 30.6137C24.7988 29.797 22.9088 29.027 20.8088 29.0503C19.6422 29.0503 18.4755 29.027 17.3088 29.1203C14.4155 29.3537 11.6855 30.1703 9.18889 31.6637C7.67223 32.5737 6.2489 33.6937 5.2689 35.187C4.49891 36.377 3.82225 37.6603 3.19225 38.9436C2.60892 40.1103 2.21225 41.3936 1.60559 42.5603C1.23226 43.2836 0.998928 44.0069 0.905595 44.8003C0.742262 46.5269 0.718929 48.2536 0.975594 49.9802C1.18559 51.4736 1.44226 52.9669 2.14225 54.3202C2.23559 54.5302 2.35225 54.9269 2.56225 55.2535C3.02892 56.0002 3.33225 56.6769 3.84558 57.3302C4.98891 58.6835 5.6889 59.4068 7.18223 60.2468C9.42222 61.5068 11.7555 62.5568 14.3222 63.0002C14.7889 63.0702 15.7222 63.2335 16.1888 63.1868C17.5422 63.1402 17.8922 63.0702 19.2222 62.8602C19.5488 62.8835 20.1322 62.6502 20.4588 62.5568C21.3455 62.2535 22.2322 61.9035 23.1188 61.6235C24.3321 61.2502 25.9188 60.7135 26.8521 59.8735C27.3888 59.4069 27.7621 58.9635 28.3221 58.5202C29.7688 57.3769 30.5154 55.8369 31.4954 54.3202C33.1521 51.7069 34.0154 48.7902 34.5521 45.7569C34.9488 43.4936 34.8554 41.2536 33.9921 39.0836C33.8754 38.8036 33.8288 38.5003 33.7354 38.2203C33.4321 37.3336 33.1521 36.4236 32.7788 35.5603C32.2888 34.4636 32.3354 33.9037 33.1521 33.0403C35.0421 31.057 36.9554 29.0737 38.8921 27.1137C39.3587 26.647 39.5921 26.2037 39.4754 25.527C39.3121 24.5237 39.2887 23.497 39.1954 22.4937C39.1721 22.1904 39.0554 21.8637 39.4054 21.3737C39.8487 22.8904 39.7554 24.3137 39.9654 25.7837C40.6187 25.387 40.9921 24.967 40.9687 24.2904C40.9221 23.1937 40.8521 22.1204 40.8054 21.0237C40.8054 20.7671 40.6421 20.4171 41.1087 20.3004C41.6454 21.5371 41.2954 22.8904 41.5521 24.2204C42.2754 23.8237 42.5554 23.3104 42.4854 22.6104C42.4154 21.7471 42.322 20.8837 42.2754 20.0204C42.252 19.8104 42.3687 19.5771 42.4154 19.3437C42.9054 20.4171 42.7654 21.5371 43.092 22.727C45.332 20.5337 47.4787 18.3871 49.462 16.1937C48.482 13.8604 46.5454 12.8104 44.3287 11.9938C42.672 14.2571 41.0154 16.4504 39.4287 18.6904C38.0987 20.5804 36.8621 22.517 35.6021 24.4304C33.9921 26.8804 32.4054 29.3537 30.7954 31.8037C30.6321 32.107 30.3754 32.317 30.1888 32.5503ZM54.1987 9.84711C54.6653 8.00379 55.132 6.16047 55.132 4.24714C54.4553 6.0438 54.3853 7.95712 54.1987 9.84711ZM53.3587 0.95716C52.4253 0.863827 52.4487 0.863827 52.4253 1.42382C52.402 1.98382 52.3087 2.54382 52.262 3.10382C52.192 3.75715 52.122 4.43381 52.052 5.08714C52.7053 3.80381 52.402 2.26382 53.3587 0.95716ZM49.952 6.13713C49.7187 8.58712 49.8587 11.0371 49.952 13.5104C50.0687 11.0371 50.162 8.58712 49.952 6.13713ZM49.2053 11.8304C49.3687 10.4771 49.322 9.10045 48.972 7.74712C48.9253 9.12378 48.8553 10.4771 49.2053 11.8304ZM51.142 2.77715C50.512 3.64048 50.3487 5.32047 50.6753 6.48713C50.8387 5.18047 51.002 3.99048 51.142 2.77715ZM46.8487 8.79712C46.1254 9.42712 46.2654 9.91711 46.6854 10.6171C46.8954 9.96378 46.8254 9.47378 46.8487 8.79712ZM55.1786 2.31049C55.342 1.96049 55.5053 1.63382 55.692 1.21382C55.3186 1.14383 55.0153 1.09716 54.642 1.02716C54.852 1.49382 54.992 1.86716 55.1786 2.31049ZM56.2986 1.51716C56.1586 1.93715 56.2286 2.24049 56.532 2.68382C56.602 2.17049 56.952 1.79716 56.2986 1.51716ZM52.822 11.4804C52.8687 11.4804 52.9153 11.4804 52.962 11.4804C52.962 11.1304 52.962 10.7804 52.962 10.4071C52.962 10.3604 52.9387 10.2904 52.9153 10.2438C52.892 10.2438 52.8453 10.2671 52.822 10.2671C52.822 10.6871 52.822 11.0838 52.822 11.4804ZM51.1187 9.52045C51.072 9.52045 51.0487 9.54378 51.002 9.54378C51.0253 9.70711 51.0253 9.89378 51.0487 10.0571C51.072 10.0571 51.0953 10.0571 51.1187 10.0571C51.1187 9.87045 51.1187 9.70711 51.1187 9.52045ZM55.132 9.12378C55.132 8.72712 55.132 8.58712 55.132 8.42379C55.1086 8.42379 55.1087 8.42379 55.0853 8.42379C55.1087 8.58712 55.1086 8.72712 55.132 9.12378ZM56.9986 5.99713C56.9753 5.99713 56.952 5.99713 56.9053 5.99713C56.9053 6.23047 56.9053 6.4638 56.9053 6.69713C56.9286 6.69713 56.952 6.69713 56.9986 6.69713C56.9986 6.4638 56.9986 6.23047 56.9986 5.99713ZM57.8153 6.27713C57.8386 6.27713 57.862 6.27713 57.8853 6.27713C57.8853 6.0438 57.8853 5.81047 57.8853 5.57714C57.862 5.57714 57.8386 5.57714 57.8153 5.57714C57.8153 5.8338 57.8153 6.06713 57.8153 6.27713Z" fill="black"/>
<path d="M19.0381 31.5232C20.4847 31.5932 22.4681 31.6399 24.3581 32.4332C26.1547 33.1799 27.718 34.2299 29.0714 35.6298C31.918 38.5698 32.758 42.0931 32.338 46.0131C32.1513 47.6698 31.8713 49.2798 31.1947 50.8198C30.1214 53.2931 28.698 55.5097 26.738 57.3997C25.618 58.4731 24.3581 59.2197 23.0514 59.9897C22.7247 60.1764 22.3747 60.3397 22.0247 60.4564C19.5047 61.1797 16.9614 61.553 14.3481 60.923C12.8781 60.573 11.4315 60.1531 10.0781 59.5231C8.91147 58.9864 8.02481 58.0997 7.25481 57.1197C6.25148 55.8364 5.29482 54.5297 4.40816 53.1998C3.56816 51.9164 2.93817 50.4698 2.58817 48.9764C2.07484 46.8298 2.42483 44.7298 3.1715 42.6765C4.33816 39.5032 6.43815 37.0298 8.81814 34.7432C9.16813 34.4165 9.5648 34.1132 10.0081 33.8799C12.8314 32.3865 15.0948 31.4765 19.0381 31.5232ZM16.8914 32.4332C16.3781 32.4799 15.8881 32.4332 15.4448 32.5499C14.3481 32.8532 13.2748 33.1799 12.2248 33.5999C10.0781 34.4632 8.3048 35.7932 7.13814 37.8698C6.83481 38.4298 6.67148 39.1765 5.83148 39.2932C5.69148 39.3165 5.57482 39.5498 5.48149 39.7132C4.50149 41.1598 3.87149 42.7698 3.42816 44.4498C2.9615 46.3165 2.98483 48.1598 3.70816 49.9798C4.75816 52.5698 6.27481 54.8097 8.0948 56.9097C8.98147 57.9364 10.0081 58.7064 11.2915 59.1264C11.9215 59.3364 12.5514 59.6397 13.1814 59.8731C13.5314 60.0131 13.8814 60.153 14.3248 59.8264C14.3714 59.4064 14.3948 58.9164 14.4648 58.4497C14.5114 57.9597 14.1848 57.4231 14.6981 56.9097C15.2814 58.0064 14.6748 59.1031 14.9081 60.1997C15.2581 60.2697 15.5614 60.4097 15.8881 60.433C18.5481 60.5497 21.1147 60.3164 23.5181 58.9164C24.7781 58.1931 25.9214 57.3297 26.8547 56.2564C29.4914 53.1998 31.288 49.7464 31.5913 45.6165C31.7547 43.3531 31.5447 41.2065 30.4947 39.1532C28.8847 36.0032 26.4114 33.8799 23.0514 32.8299C22.1181 32.5499 21.1381 32.4565 20.1581 32.3399C18.6647 32.1765 18.5714 32.2699 18.3848 33.7632C18.3148 34.3465 18.2214 34.9298 18.1514 35.5132C17.9414 34.9765 17.9181 34.4632 17.9414 33.9499C17.9648 33.4132 18.0348 32.8765 18.1048 32.3399C17.7781 32.4099 17.5681 32.5265 17.5448 32.6899C17.4048 33.3432 17.3348 34.0199 17.2414 34.6965C17.2181 34.8598 17.1481 34.9998 17.0548 35.3265C16.4948 34.2765 17.1248 33.3899 16.8914 32.4332Z" fill="black"/>
<path d="M16.3078 57.3066C16.5644 58.0533 16.2844 58.7066 16.0978 59.3833C15.7711 58.6366 15.9578 57.96 16.3078 57.3066Z" fill="black"/>
<path d="M27.9974 39.5964C26.9241 39.6898 26.2708 39.3398 25.8741 38.3365C25.6175 37.6831 25.3841 37.0298 25.3841 36.3065C25.3841 36.1665 25.3841 36.0031 25.3141 35.8865C25.2441 35.7698 25.1275 35.6765 25.0108 35.6531C24.9641 35.6298 24.8241 35.7931 24.8008 35.8865C24.7075 36.2831 24.6375 36.6798 24.5675 37.0765C24.5441 37.2165 24.5208 37.3798 24.4741 37.5198C24.4741 37.5431 24.4975 37.5665 24.4741 37.5898C24.3808 37.8231 24.2875 38.0565 24.1708 38.2665C24.0541 38.4765 23.9141 38.6631 23.7741 38.8498C23.7741 38.8731 23.7508 38.8731 23.7275 38.8965C23.0741 39.8064 22.1641 40.2264 21.4175 40.8798C21.7675 41.3231 22.1175 41.6498 22.6541 41.7898C23.7508 42.1164 24.5441 42.7698 24.7775 43.9831C24.8941 44.5664 25.0341 45.1731 25.1508 45.7797C25.4775 45.8731 25.6641 45.7331 25.6641 45.4064C25.6408 44.3331 25.9675 43.3531 26.2941 42.3498C26.3175 42.2331 26.3408 42.1398 26.3875 42.0231C26.4341 41.8598 26.5041 41.6964 26.5741 41.5564C26.5975 41.4864 26.6441 41.4164 26.6908 41.3464C26.6908 41.3464 26.6908 41.3231 26.7141 41.3231C26.7141 41.2998 26.7141 41.2531 26.7141 41.2298C26.9475 40.8331 27.2974 40.5064 27.7641 40.3898C28.1608 40.1798 28.6974 40.2964 28.8841 39.7831C28.6274 39.3865 28.3008 39.5498 27.9974 39.5964ZM25.4308 43.0731C25.0575 42.5831 24.7541 42.2331 24.4275 41.8131C24.7308 41.5564 24.9641 41.3698 25.2208 41.1364C24.7308 40.9731 24.4741 41.6731 23.9375 41.3698C24.0541 40.8798 24.5908 40.8098 24.8241 40.3198C24.6141 40.3664 24.4975 40.3664 24.4041 40.4364C24.1475 40.6231 23.8908 40.8331 23.6341 40.9964C23.5408 41.0664 23.3775 41.0431 23.2608 41.0431C23.2608 40.9264 23.2375 40.8564 23.2608 40.8098C23.8441 39.9231 24.4275 39.0598 25.0808 38.0798C25.4541 38.9431 25.8741 39.7131 26.8541 40.0631C26.0141 40.9264 25.8975 41.9998 25.4308 43.0731Z" fill="black"/>
<path d="M11.2209 51.4261C10.5442 51.4961 10.1476 51.2627 9.89091 50.6327C9.72758 50.2361 9.58758 49.8161 9.58758 49.3727C9.58758 49.2794 9.58758 49.1861 9.54091 49.1161C9.49425 49.0461 9.42425 48.9994 9.35425 48.9761C9.33091 48.9761 9.23758 49.0694 9.21425 49.1161C9.14425 49.3727 9.09758 49.6061 9.05092 49.8627C9.02758 49.9561 9.02758 50.0494 9.00425 50.1427C9.00425 50.1661 9.00425 50.1661 9.00425 50.1894C8.93425 50.3294 8.88758 50.4694 8.81758 50.6094C8.74758 50.7494 8.65425 50.8661 8.58425 50.9827L8.56092 51.0061C8.14092 51.5894 7.58092 51.8461 7.11426 52.2427C7.34759 52.5227 7.55759 52.7327 7.88425 52.8261C8.56092 53.0361 9.07425 53.456 9.21425 54.2027C9.28425 54.576 9.37758 54.9494 9.44758 55.3227C9.65758 55.3927 9.77424 55.2994 9.77424 55.0894C9.75091 54.4127 9.96091 53.806 10.1709 53.1761C10.1942 53.1061 10.2176 53.0361 10.2176 52.9661C10.2409 52.8727 10.2876 52.7561 10.3342 52.6627C10.3576 52.6161 10.3809 52.5694 10.4042 52.5227C10.4042 52.5227 10.4042 52.5227 10.4042 52.4994C10.4042 52.4761 10.4042 52.4527 10.4042 52.4294C10.5442 52.1727 10.7776 51.9861 11.0576 51.9161C11.2909 51.7761 11.6409 51.8461 11.7576 51.5427C11.6409 51.3094 11.4309 51.4027 11.2209 51.4261ZM9.61091 53.6194C9.37758 53.3161 9.19091 53.0827 8.98091 52.8261C9.16758 52.6627 9.30758 52.5461 9.47091 52.4061C9.16758 52.3127 9.00425 52.7327 8.67758 52.5461C8.74758 52.2427 9.07425 52.1961 9.23758 51.8927C9.12091 51.9161 9.02758 51.9161 8.98091 51.9627C8.81758 52.0794 8.65425 52.1961 8.49092 52.3127C8.42092 52.3594 8.32759 52.3361 8.25759 52.3361C8.25759 52.2661 8.23425 52.2194 8.25759 52.1961C8.63092 51.6361 8.98092 51.0994 9.40091 50.4927C9.63425 51.0294 9.89091 51.5194 10.5209 51.7294C9.98424 52.2661 9.91424 52.9427 9.61091 53.6194Z" fill="black"/>
</svg>
