<svg width="57" height="78" viewBox="0 0 57 78" fill="none" xmlns="http://www.w3.org/2000/svg">
<path d="M56.1 40.6998C55.8 42.9998 55.4 45.3998 55 47.8998C54.6 50.9998 52.8 53.4998 50.9 55.6998C48.6 58.3998 45.9 60.5998 42.6 62.2998C37.8 64.6998 32.8 65.5998 27.6 65.8998C20.6 66.1998 14.3 64.0998 8.7 59.5998C4.7 56.3998 2.6 52.0998 0.5 47.5998C0.1 46.7998 0 45.8998 0 45.0998C0.4 41.8998 0.3 38.6998 1.3 35.8998C2.6 32.2998 3.7 28.4998 5.8 25.0998C8.2 21.4998 10.9 18.3998 14.4 15.9998C17.4 13.8998 20.8 12.4998 24.5 12.2998C25.1 12.2998 25.7 12.1998 26.2 12.0998C35 10.5998 42.1 14.1998 48.4 19.7998C52.1 23.1998 53.7 27.6998 54.9 32.3998C55.6 34.9998 55.7 37.7998 56.1 40.6998ZM54.1 40.3998C54.3 33.4998 52.4 27.1998 47.8 21.8998C43.6 17.0998 38.1 14.0998 31.9 13.5998C26 13.0998 20.4 14.8998 15.5 18.6998C9.9 23.1998 6.1 29.0998 3.5 35.5998C2.4 38.4998 1.9 42.0998 2.5 45.1998C3.9 53.0998 8.9 58.5998 16.3 61.5998C24.5 64.8998 32.8 64.3998 40.9 60.5998C49.4 56.7998 54.4 50.4998 54.1 40.3998Z" fill="#F15748"/>
<path d="M45.5999 28.2002C45.7999 30.5002 44.9999 32.5002 44.1999 33.8002C43.1999 35.4002 41.8999 36.8002 40.6999 38.1002L35.5999 43.6002C34.2999 45.0002 33.0999 46.3002 31.2999 47.2002C30.3999 47.7002 29.2999 48.0002 28.0999 48.1002C26.9999 48.2002 25.7999 48.0002 24.8999 47.3002C24.7999 47.2002 24.6999 47.2002 24.5999 47.1002C24.3999 47.0002 24.0999 46.8002 23.8999 46.6002C23.6999 46.4002 23.4999 46.2002 23.1999 46.0002C22.9999 45.8002 22.7999 45.6002 22.5999 45.4002C21.6999 44.6002 20.9999 43.4002 20.3999 42.3002C19.0999 39.9002 19.2999 38.4002 20.0999 36.3002C20.7999 34.6002 21.8999 32.9002 23.0999 31.3002C24.2999 29.7002 25.5999 28.3002 26.7999 27.2002C27.1999 26.8002 27.5999 26.4002 27.9999 26.0002C28.7999 25.1002 29.6999 24.3002 30.4999 23.5002C31.5999 22.5002 32.7999 21.4002 34.3999 20.8002C36.4999 20.0002 38.9999 20.3002 41.3999 21.6002C42.3999 22.1002 43.0999 22.6002 43.5999 23.2002C44.3999 24.0002 44.7999 25.1002 45.0999 25.8002C45.2999 26.8002 45.4999 27.5002 45.5999 28.2002Z" fill="white"/>
<path d="M16.2 62.1C16 62.9 15.6 63.5 15 63.9C14.7 64.1 14.3 64.2 13.9 64.2C13.8 64.2 13.7 64.2 13.6 64.2C11.8 64.2 10.4 63.1 9 61.9L6.8 60C6.7 59.9 6.5 59.8 6.3 59.6C5.7 59.2 5 58.7 4.7 57.9C4.7 57.8 4.6 57.7 4.6 57.6C4.6 57.5 4.5 57.3 4.5 57.1C4.5 56.7 4.6 56.2 4.7 55.8C4.9 55.3 5.3 54.8 5.8 54.3C6.1 54 6.5 53.7 7 53.5C8 53.1 9.2 53.2 10.4 54C10.6 54.1 10.7 54.3 10.9 54.4L11 54.5C12.4 55.7 13.7 56.9 14.9 58.3C15.3 58.7 15.7 59.2 16 59.8C16.3 60.5 16.4 61.3 16.2 62.1Z" fill="white"/>
<path d="M53.5002 51.5L53.6002 52.8001C53.6002 53.0001 53.6002 53.3 53.5002 53.7C53.4002 54 53.2002 54.2 53.0002 54.4C52.5002 54.8 51.9002 55.0001 51.2002 55.1C51.0002 55.1 50.7002 55.1 50.4002 55.1C50.0002 55.1 49.5002 55 49.0002 54.7C48.2002 54.2 47.8002 53.1 48.0002 52C48.2002 51.1 48.7002 50.3 49.5002 49.9C50.3002 49.5 51.3002 49.4001 52.3002 49.8001C52.8002 50.0001 53.2002 50.3 53.4002 50.7C53.4002 50.9 53.4002 51.2 53.5002 51.5Z" fill="white"/>
<path d="M35.6998 59.3001C35.6998 59.7001 35.6998 60.1001 35.4998 60.5001C35.1998 61.3001 34.3998 62.0001 33.3998 62.3001C32.8998 62.5001 32.3998 62.5001 31.9998 62.3001C31.6998 62.2001 31.3998 61.9001 31.2998 61.7001L30.4998 60.9001C30.2998 60.7001 30.0998 60.5001 29.9998 60.2001C29.8998 59.9001 29.8998 59.6001 29.9998 59.3001C30.0998 58.7001 30.4998 58.1001 30.9998 57.6001C31.1998 57.4001 31.3998 57.3001 31.5998 57.1001C31.8998 56.9001 32.3998 56.6001 32.9998 56.5001C33.9998 56.4001 34.9998 57.0001 35.4998 58.0001C35.5998 58.4001 35.6998 58.9001 35.6998 59.3001Z" fill="white"/>
<path d="M6.80009 36.1C6.20009 36.8 5.50009 37.2 4.70009 37.3H4.60009C3.70009 37.3 2.80009 36.9 2.00009 36.1C1.60009 35.7 1.40009 35.3 1.50009 34.9C1.50009 34.5 1.60009 34.2 1.70009 34L2.20009 32.8C2.30009 32.6 2.40009 32.3 2.70009 32.1C2.90009 31.9 3.10009 31.7 3.50009 31.6C4.10009 31.5 4.70009 31.6 5.40009 31.9C5.60009 32 5.80009 32.1 6.10009 32.3C6.40009 32.5 6.90009 32.8 7.10009 33.3C7.60009 34.1 7.50009 35.3 6.80009 36.1Z" fill="white"/>
<path d="M18.7 17.3999C18.6 18.3999 18 19.3999 17.1 20.0999C16.8 20.2999 16.6 20.3999 16.3 20.5999C15.8 20.7999 15.1 20.9999 14.4 21.0999C14 21.0999 13.5 21.1999 13 20.9999C12.4 20.7999 12 20.3999 11.6 20.0999C11.1 19.6999 10.6 19.1999 10.2 18.4999C9.79995 17.6999 9.89995 16.6999 10.3 15.6999C10.8 14.5999 11.7 13.7999 12.7 13.2999C13.4 12.9999 14.1 12.8999 14.9 12.8999C15.3 12.8999 15.7 12.9999 16 13.0999C16.7 13.3999 17.3 13.8999 17.8 14.6999C18.5 15.6999 18.8 16.5999 18.7 17.3999Z" fill="white"/>
<path d="M8.10027 58.7002C8.80027 59.3002 9.50027 59.8002 10.3003 60.2002C10.7003 60.4002 11.1003 60.6002 11.6003 60.7002C12.3003 60.9002 13.0003 61.1002 13.7003 61.1002C14.4003 61.1002 15.2003 60.9002 15.7003 60.5002C15.9003 61.1002 15.7003 61.7002 15.5003 62.3002C15.4003 62.5002 15.4003 62.7002 15.2003 62.8002C15.1003 63.0002 14.9003 63.1002 14.7003 63.2002C14.0003 63.5002 13.1003 63.6002 12.3003 63.4002C11.6003 63.2002 11.0003 62.7002 10.5003 62.3002C9.20027 61.3002 7.80027 60.2002 6.50027 59.2002C6.20027 59.0002 6.00027 58.8002 5.80027 58.5002C5.30027 57.9002 5.10027 57.0002 5.30027 56.2002C5.60027 56.3002 5.60027 56.4002 5.80027 56.6002C6.00027 56.8002 6.30027 57.0002 6.50027 57.2002C7.00027 57.8002 7.50027 58.3002 8.10027 58.7002Z" fill="#BCBCBB"/>
<path d="M41.9 32.4999C41.4 33.2999 40.7 34.0999 40 34.7999C37.8 36.9999 35.5 39.0999 33.1 40.9999C32.3 41.5999 31.5 42.1999 30.6 42.6999C29.3 43.2999 27.9 43.4999 26.5 43.3999C25.8 43.3999 25.2 43.2999 24.6 42.9999C22.6 42.2999 21.3 40.4999 20 38.8999C20.4 41.1999 21.1 43.3999 22.7 45.1999C24.2 46.8999 26.7 47.9999 28.9 47.3999C30.6 46.9999 32 45.5999 33.3 44.3999C35.5 42.2999 37.6 40.0999 39.8 37.9999C41.1 36.6999 42.4 35.3999 43.4 33.9999C44.4 32.5999 45.2 30.7999 45.3 28.9999C45.4 28.0999 45.2 27.1999 44.9 26.3999C44.8 26.0999 44.5 24.7999 44 25.1999C43.7 25.4999 43.8 24.5999 43.8 24.9999C43.8 25.4999 44.2 27.1999 44.1 27.6999C44 28.5999 44.1 28.9999 43.9 29.8999C43.6 30.6999 42.4 31.6999 41.9 32.4999Z" fill="#BCBCBB"/>
<path d="M5.5001 34.9001C5.2001 35.3001 4.7001 35.6001 4.2001 35.8001C3.7001 36.0001 3.2001 36.0001 2.7001 36.1001C2.7001 36.1001 2.6001 36.1001 2.6001 36.2001V36.3001C2.7001 36.5001 3.0001 36.7001 3.3001 36.7001C4.2001 36.9001 5.2001 36.7001 6.0001 36.3001C6.1001 36.1001 6.3001 36.1001 6.4001 35.9001C6.6001 35.7001 6.8001 35.5001 6.9001 35.2001C7.1001 34.7001 7.2001 34.1001 7.0001 33.6001C6.9001 33.3001 6.0001 32.3001 5.8001 32.9001C5.7001 33.2001 5.8001 33.6001 5.8001 33.9001C5.7001 34.2001 5.7001 34.6001 5.5001 34.9001Z" fill="#BCBCBB"/>
<path d="M12.7 18.8999C13 18.8999 13.2 18.7999 13.5 18.6999C14.7 18.2999 15.8 17.6999 16.4 16.5999C16.8 15.9999 17 15.1999 17.1 14.3999C17.6 14.9999 18 15.6999 18.2 16.3999C18.3 16.6999 18.3 16.9999 18.3 17.1999C18.3 17.3999 18.2 17.6999 18.1 17.8999C17.6 18.8999 16.6 19.4999 15.6 19.9999C15.2 20.1999 14.8 20.3999 14.4 20.3999C14 20.3999 13.6 20.3999 13.2 20.1999C12.5 19.9999 11.8 19.6999 11.3 19.0999C10.9 18.6999 10.6 18.0999 10.5 17.5999C10.9 17.7999 11.2 18.0999 11.6 18.2999C11.9 18.7999 12.3 18.8999 12.7 18.8999Z" fill="#BCBCBB"/>
<path d="M33.8998 59.5999C33.7998 59.7999 33.6998 59.8999 33.5998 59.9999C33.3998 60.2999 32.9998 60.4999 32.6998 60.5999C32.3998 60.7999 31.9998 60.8999 31.6998 60.9999C31.4998 61.0999 31.2998 61.1999 31.2998 61.3999C31.2998 61.4999 31.4998 61.5999 31.5998 61.5999C31.9998 61.6999 32.3998 61.7999 32.7998 61.7999C33.3998 61.6999 33.8998 61.2999 34.3998 60.8999C34.6998 60.5999 34.9998 60.3999 35.1998 59.9999C35.2998 59.7999 35.3998 59.4999 35.3998 59.2999C35.3998 58.9999 35.2998 57.7999 34.7998 57.8999C34.5998 57.8999 34.4998 58.3999 34.3998 58.5999C34.1998 58.9999 33.9998 59.2999 33.8998 59.5999Z" fill="#BCBCBB"/>
<path d="M50.8002 52.8002C50.0002 53.1002 49.1002 53.2002 48.2002 53.2002C48.5002 53.6002 48.9002 54.0002 49.4002 54.2002C49.6002 54.3002 49.9002 54.4002 50.2002 54.4002C50.9002 54.5002 51.5002 54.4002 52.1002 54.0002C52.3002 53.9002 52.5002 53.7002 52.6002 53.5002C52.9002 53.2002 53.0002 52.8002 53.1002 52.3002C53.1002 52.1002 53.2002 51.2002 52.9002 51.2002C52.7002 51.2002 52.6002 51.5002 52.5002 51.6002C52.4002 51.8002 52.2002 51.9002 52.0002 52.1002C51.6002 52.4002 51.2002 52.6002 50.8002 52.8002Z" fill="#BCBCBB"/>
<path d="M18.0001 14.8C17.5001 13.9 16.9001 13.4 16.2001 13.2C15.9001 13.1 15.5001 13 15.1001 13C14.3001 13 13.6001 13.1 12.9001 13.4C11.9001 13.9 11.0001 14.7 10.5001 15.8C10.1001 16.7 10.0001 17.7 10.4001 18.6C10.7001 19.3 11.3001 19.8 11.8001 20.2C12.2001 20.5 12.6001 20.9 13.2001 21.1C13.7001 21.3 14.2001 21.2 14.6001 21.2C15.3001 21.1 15.9001 21 16.5001 20.7C16.8001 20.6 17.1001 20.4 17.3001 20.2C18.2001 19.5 18.8001 18.5 18.9001 17.5C18.8001 16.6 18.5001 15.7 18.0001 14.8ZM17.7001 17.4C17.7001 17.9 16.8001 18.7 16.3001 19.1C15.8001 19.5 15.1001 20 14.3001 20.1C14.1001 20.1 13.2001 20 13.0001 19.9C12.7001 19.8 12.4001 19.7 12.1001 19.4C11.7001 19.1 10.9001 17.8 10.7001 17.4C10.5001 17 10.8001 16.5 11.0001 16L11.2001 15.6C11.6001 14.8 12.3001 14.4 13.0001 14C13.4001 13.8 14.0001 13.6 14.6001 13.6C14.9001 13.6 15.6001 13.8 15.8001 13.8C16.1001 13.9 17.1001 14.6 17.4001 15.1C17.8001 15.8 17.7001 16.9 17.7001 17.4Z" fill="black"/>
<path d="M15.9001 59.7998C15.6001 59.1998 15.2001 58.7998 14.8001 58.2998C13.6001 56.9998 12.3001 55.6998 10.9001 54.4998L10.8001 54.3998C10.7001 54.2998 10.5001 54.0998 10.3001 53.9998C9.10007 53.2998 7.90007 53.0998 6.90007 53.4998C6.40007 53.6998 6.00007 53.9998 5.70007 54.2998C5.20007 54.7998 4.80007 55.2998 4.60007 55.7998C4.40007 56.1998 4.30007 56.6998 4.40007 57.0998C4.40007 57.1998 4.40007 57.3998 4.50007 57.5998C4.50007 57.6998 4.60007 57.7998 4.60007 57.8998C4.90007 58.6998 5.60007 59.1998 6.20007 59.5998C6.40007 59.6998 6.60007 59.7998 6.70007 59.9998L9.00007 61.8998C10.4001 63.0998 11.8001 64.1998 13.6001 64.1998C13.7001 64.1998 13.8001 64.1998 13.9001 64.1998C14.3001 64.1998 14.7001 64.0998 15.0001 63.8998C15.6001 63.5998 16.0001 62.8998 16.2001 62.0998C16.4001 61.2998 16.3001 60.4998 15.9001 59.7998ZM15.5001 61.8998C15.4001 62.1998 14.5001 62.7998 14.3001 62.8998C14.2001 62.9998 13.4001 63.0998 13.2001 63.0998C11.9001 63.0998 10.8001 61.8998 9.60007 60.8998L7.40007 59.1998C7.20007 59.0998 7.00007 58.8998 6.80007 58.6998C6.40007 58.3998 5.90007 57.4998 5.70007 57.0998V56.9998C5.60007 56.7998 5.70007 56.4998 5.80007 56.1998C5.90007 55.8998 6.10007 55.2998 6.40007 54.8998C6.60007 54.6998 7.30007 54.0998 7.50007 53.9998C7.60007 53.8998 7.80007 53.8998 7.90007 53.8998C8.30007 53.8998 9.60007 54.2998 10.1001 54.5998C10.1001 54.5998 10.2001 54.6998 10.3001 54.7998C10.4001 54.8998 10.5001 54.9998 10.5001 54.9998C11.8001 56.0998 13.1001 57.2998 14.3001 58.5998C14.6001 58.9998 15.1001 59.5998 15.3001 59.8998C15.5001 60.3998 15.6001 61.4998 15.5001 61.8998Z" fill="black"/>
<path d="M53.2 50.6C53 50.2 52.6 49.9 52.1 49.7C51.1 49.3 50.1 49.4 49.3 49.8C48.6 50.2 48.1 50.9 47.8 51.9C47.6 53 48 54.1 48.8 54.6C49.3 54.9 49.8 55 50.2 55C50.5 55 50.7 55 51 55C51.7 55 52.4 54.7 52.8 54.3C53.1 54.1 53.2 53.8 53.3 53.6C53.4 53.3 53.4 53 53.4 52.7L53.3 51.4C53.4 51.2 53.4 50.9 53.2 50.6ZM52.7 52.9C52.7 53 52.5 53.3 52.5 53.3C52.5 53.3 52.1 53.6 51.9 53.7C51.4 53.9 50.9 54 50.5 54C50.3 54 49.7 54.1 49.5 54C49.2 53.8 48.4 53.3 48.5 52.9V52.3C48.6 51.8 49.1 51 49.5 50.8C49.9 50.6 50.9 50.3 51.5 50.5C51.7 50.6 52.4 51.1 52.4 51.1C52.4 51.1 52.7 51.6 52.7 51.7L52.8 52.2L52.7 52.9Z" fill="black"/>
<path d="M35.4002 58.0001C34.9002 57.0001 33.9002 56.4001 32.9002 56.5001C32.3002 56.6001 31.9002 56.8001 31.5002 57.1001C31.3002 57.3001 31.1002 57.4001 30.9002 57.6001C30.4002 58.1001 30.0002 58.6001 29.9002 59.3001C29.8002 59.6001 29.8002 59.9001 29.9002 60.2001C30.0002 60.5001 30.2002 60.8001 30.4002 60.9001L31.3002 61.8001C31.5002 62.0001 31.7002 62.2001 32.0002 62.4001C32.4002 62.6001 32.9002 62.6001 33.4002 62.4001C34.4002 62.0001 35.2002 61.4001 35.5002 60.6001C35.7002 60.2001 35.7002 59.8001 35.7002 59.4001C35.7002 58.9001 35.6002 58.4001 35.4002 58.0001ZM34.9002 59.9001C34.7002 60.3001 34.1002 61.2001 33.5002 61.4001C33.3002 61.5001 32.4002 61.5001 32.4002 61.5001C32.3002 61.5001 31.8002 61.3001 31.8002 61.2001L31.4002 60.9001L31.0002 60.3001C30.9002 60.2001 30.9002 59.9001 30.9002 59.8001C30.9002 59.8001 31.0002 59.4001 31.1002 59.2001C31.4002 58.8001 31.7002 58.3001 32.1002 58.1001C32.3002 58.0001 32.7002 57.6001 32.9002 57.5001C33.2002 57.5001 34.2002 57.3001 34.4002 57.7001L34.7002 58.2001C34.9002 58.6001 35.1002 59.5001 34.9002 59.9001Z" fill="black"/>
<path d="M7.1 33.3C6.8 32.8 6.4 32.5 6.1 32.3C5.9 32.2 5.6 32 5.4 31.9C4.7 31.6 4.1 31.5 3.5 31.6C3.1 31.7 2.9 31.9 2.6 32C2.3 32.2 2.2 32.5 2.1 32.7L1.7 33.9C1.6 34.1 1.5 34.4 1.5 34.8C1.5 35.2 1.7 35.7 2 36C2.7 36.8 3.7 37.2 4.6 37.2H4.7C5.5 37.1 6.3 36.8 6.8 36C7.5 35.3 7.6 34.1 7.1 33.3ZM6.7 35.1L6.4 35.6C6.1 36 5.3 36.5 4.9 36.5C4.4 36.5 3.2 36.5 2.8 36C2.7 35.9 2.5 34.9 2.5 34.8C2.5 34.8 2.5 34.2 2.5 34.1L2.6 33.6L3.3 32.9C3.3 32.8 3.7 32.7 3.7 32.6C3.7 32.6 4.1 32.5 4.4 32.6C4.9 32.7 5.4 32.8 5.8 33C6 33.1 6.5 33.3 6.6 33.5C6.7 33.8 7 34.7 6.7 35.1Z" fill="black"/>
<path d="M31.3002 32.4998L30.7002 32.3998C30.9002 32.0998 31.1002 31.6998 31.4002 31.4998C31.9002 31.0998 31.8002 29.4998 31.8002 29.4998L32.1002 29.2998C32.6002 30.1998 32.1002 31.0998 31.9002 31.3998C31.8002 31.7998 31.6002 32.0998 31.3002 32.4998Z" fill="black"/>
<path d="M32.4002 36.2002H32.9002C32.7002 36.5002 32.0002 37.8002 31.8002 38.1002C31.5002 38.7002 31.8002 39.9002 31.8002 39.9002L31.6002 40.0002C31.0002 39.2002 31.4002 38.0002 31.5002 37.7002C31.6002 37.4002 32.1002 36.5002 32.4002 36.2002Z" fill="black"/>
<path d="M45.0003 25.8998C44.7003 25.0998 44.3003 24.0998 43.5003 23.2998C43.0003 22.6998 42.3003 22.1998 41.3003 21.6998C38.8003 20.3998 36.4003 20.0998 34.3003 20.8998C32.7003 21.4998 31.5003 22.5998 30.4003 23.5998C29.6003 24.2998 28.7003 25.1998 27.9003 26.0998C27.5003 26.4998 27.1003 26.9998 26.7003 27.2998C25.5003 28.3998 24.2003 29.8998 23.0003 31.3998C21.8003 32.9998 20.7003 34.6998 20.0003 36.3998C19.2003 38.4998 19.0003 39.9998 20.3003 42.3998C20.9003 43.4998 21.6003 44.5998 22.5003 45.4998C22.7003 45.6998 22.9003 45.8998 23.1003 46.0998C23.3003 46.2998 23.5003 46.4998 23.8003 46.6998C24.0003 46.8998 24.3003 47.0998 24.5003 47.1998C24.6003 47.1998 24.7003 47.2998 24.8003 47.3998C25.8003 48.0998 26.9003 48.2998 28.0003 48.1998C29.2003 48.0998 30.3003 47.7998 31.2003 47.2998C33.0003 46.3998 34.2003 45.0998 35.5003 43.6998L40.6003 38.1998C41.8003 36.8998 43.1003 35.4998 44.1003 33.8998C44.9003 32.5998 45.8003 30.4998 45.5003 28.2998C45.5003 27.4998 45.3003 26.7998 45.0003 25.8998ZM44.4003 29.0998C44.4003 30.9998 43.5003 31.8998 42.8003 32.9998C41.9003 34.4998 40.7003 35.7998 39.5003 36.9998L34.4003 42.4998C33.1003 43.7998 32.1003 44.9998 30.5003 45.7998C29.1003 46.4998 27.2003 47.1998 25.9003 46.2998C25.7003 46.1998 25.3003 46.0998 25.2003 45.9998C25.0003 45.8998 24.6003 45.6998 24.5003 45.5998C24.3003 45.3998 24.0003 45.1998 23.8003 44.9998C23.6003 44.7998 23.5003 44.6998 23.2003 44.3998C22.5003 43.6998 21.7003 42.6998 21.2003 41.6998C20.2003 39.7998 20.3003 38.4998 21.0003 36.6998L21.4003 35.7998C22.6003 32.5998 25.5003 29.5998 27.7003 27.3998C28.1003 26.9998 28.9003 26.2998 29.4003 25.7998C30.2003 24.9998 31.0003 24.2998 31.8003 23.5998C32.8003 22.6998 33.7003 21.7998 35.0003 21.3998C37.2003 20.5998 40.0002 21.6998 41.2003 22.2998C42.0002 22.6998 42.9003 23.5998 43.4003 24.0998C43.8003 24.5998 44.2003 25.4998 44.4003 26.5998C44.4003 27.4998 44.4003 28.4998 44.4003 29.0998Z" fill="black"/>
<path d="M25.9001 28.6C25.5001 27.8 24.7001 27.1 23.8001 26.8C23.6001 26.7 23.4001 26.7 23.2001 26.7C22.8001 26.6 22.4001 26.5 22.0001 26.3C20.8001 25.7 20.0001 24.3 20.2001 23L21.1001 23.3C21.0001 24 21.4001 25.1 22.0001 25.3C22.3001 25.4 23.1001 25.8 23.4001 25.8C23.6001 25.8 24.5001 26.2 24.8001 26.2C25.7001 26.4 25.9001 26.4 26.8001 27.6L25.9001 28.6Z" fill="black"/>
<path d="M30.8999 23.4C30.5999 22.4 30.4999 21.7 29.5999 21.3C29.4999 21.2 29.2999 21.1 29.1999 21.1C28.5999 20.8 27.5999 20.4 27.1999 19.6C26.8999 19.1 27.2999 17.9 27.2999 17.5C27.2999 16.5 27.6999 16.5 28.0999 15.5L28.5999 16C28.2999 16.7 28.0999 17.6 28.0999 18.4C28.0999 18.6 28.0999 18.9 28.1999 19.1C28.3999 19.4 28.7999 19.6 29.2999 19.9C29.4999 20 29.5999 20.1 29.7999 20.2C30.9999 20.9 31.8999 21.8 32.2999 23.2L30.8999 23.4Z" fill="black"/>
<path d="M38.1 21.0999H36.5C36.5 20.9999 36.3 20.8999 36.2 20.6999C36 20.4999 36 20.3999 35.8 19.9999C35.6 19.6999 35.6 19.2999 35.6 18.8999C35.6 18.1999 35.9 17.9999 36.2 17.3999C36.3 17.2999 36.3 17.1999 36.4 17.0999C36.5 16.8999 37.1 16.1999 37.1 15.9999C37.2 15.5999 36.8 14.3999 36.4 13.9999C36.3 13.8999 36.2 13.7999 36 13.6999C35.5 13.1999 34.8 12.6999 34.5 11.8999L35.2 12.0999C35.4 12.4999 35.8 12.8999 36.2 13.2999C36.3 13.3999 36.5 13.4999 36.6 13.6999C37.6 14.5999 38 15.6999 37.7 16.6999C37.6 17.0999 37.4 17.2999 37.2 17.5999C37.1 17.6999 37.1 17.7999 37 17.7999C36.8 18.0999 36.7 17.8999 36.6 18.3999C36.5 18.5999 36.5 18.9999 36.5 19.0999C36.6 19.1999 36.8 19.5999 36.9 19.6999C37.5 20.0999 38.1 20.3999 38.1 21.0999Z" fill="black"/>
<path d="M43.0002 23.7998L41.7002 22.7998C42.1002 22.1998 42.8002 21.8998 43.3002 21.5998L43.5002 21.4998C43.9002 21.2998 44.3002 20.9998 44.5002 20.6998C44.6002 20.4998 44.6002 20.0998 44.5002 19.7998C44.5002 19.4998 44.5002 19.1998 44.5002 18.7998C44.6002 17.8998 45.1002 16.9998 45.9002 16.3998C46.6002 15.7998 47.4002 15.3998 48.3002 15.2998L48.5002 15.4998C47.9002 15.5998 46.7002 16.4998 46.2002 16.8998C45.7002 17.2998 45.6002 18.1998 45.5002 18.6998C45.5002 18.8998 45.5002 19.0998 45.5002 19.3998C45.5002 19.8998 45.6002 20.3998 45.3002 20.9998C45.1002 21.8998 44.7002 22.3998 44.1002 22.6998L43.9002 22.7998C43.5002 23.0998 43.2002 23.4998 43.0002 23.7998Z" fill="black"/>
<path d="M54.1 29.2002C53.5 28.9002 52.6 28.4002 52.2 28.1002L51.9 27.9002C51.7 27.7002 51.4 27.4002 51 27.3002C50.7 27.2002 50.3 27.2002 50.1 27.2002C50 27.2002 49.9 27.2002 49.9 27.2002C49.9 27.2002 49.8 27.3002 49.7 27.4002C49.6 27.5002 49.6 27.5002 49.5 27.6002C48.9 28.1002 48.2 28.7002 47.4 28.7002C46.7 28.7002 46.3 28.7002 45.6 28.7002C45.2 28.7002 44.9 28.7002 44.5 28.7002L44.7 26.8002C45.3 26.9002 45.4 27.2002 45.9 27.4002C46.3 27.6002 46.8 27.8002 47.2 27.8002C47.6 27.8002 48.3 27.5002 48.5 27.3002L48.6 27.2002C48.7 27.1002 48.9 26.9002 49.1 26.7002C49.4 26.5002 49.8 26.4002 50.3 26.5002C51.2 26.6002 51.9 27.1002 52.4 27.6002L52.7 27.8002C53 28.1002 53.5 28.8002 53.9 28.9002L54.1 29.2002Z" fill="black"/>
<path d="M48.0999 37.8001H47.9999C47.6999 37.8001 47.4999 37.8001 47.1999 37.7001C46.6999 37.5001 46.3999 37.2001 46.1999 37.0001L45.0999 35.7001C44.9999 35.6001 44.8999 35.4001 44.7999 35.4001C44.6999 35.4001 44.5999 35.3001 44.3999 35.3001C43.8999 35.2001 43.3999 35.2001 42.8999 35.2001V33.6001C43.4999 33.6001 43.1999 33.7001 43.7999 33.8001C44.0999 33.9001 44.7999 34.1001 45.0999 34.3001C45.3999 34.5001 45.5999 34.7001 45.7999 34.9001L46.8999 36.4001C46.9999 36.5001 47.0999 36.6001 47.0999 36.7001C47.0999 36.7001 47.3999 37.2001 47.9999 37.1001C48.9999 37.0001 50.0999 36.3001 51.0999 36.0001L51.2999 36.4001C50.3999 36.7001 49.2999 37.8001 48.0999 37.8001Z" fill="black"/>
<path d="M44.2 44.9002L43 44.3002C42.4 44.0002 41.5 43.6002 41.1 42.7002C41 42.4002 40.9 42.1002 40.9 41.9002V41.7002C40.7 40.7002 39.5 40.2002 38.5 40.0002L38.9 38.7002C40.5 39.0002 41.4 39.2002 41.8 40.8002C41.8 40.9002 41.9 41.5002 42 41.6002C42 41.8002 42.1 41.9002 42.1 42.1002C42.3 42.4002 42.5 43.2002 43 43.4002L44.9 44.8002L44.2 44.9002Z" fill="black"/>
<path d="M38.4998 52.1L37.8998 51.7C37.9998 50.9 37.9998 50.2 37.8998 49.4C37.7998 48.7 36.7998 47.5 36.3998 47.2C36.1998 47 35.8998 46.9 35.4998 46.7C35.0998 46.5 34.4998 46.2 34.0998 45.8C33.2998 45 33.0998 44.5 33.4998 43.5L34.9998 44.1C34.7998 44.5 34.8998 45.1 35.2998 45.4C35.4998 45.6 35.8998 45.8 36.1998 46C36.5998 46.2 36.9998 46.4 37.3998 46.7C38.0998 47.3 38.5998 48.3 38.6998 49.4C38.7998 50.4 38.5998 51.3 38.4998 52.1Z" fill="black"/>
<path d="M28.5 56.4998C27.5 55.2998 26.5 53.7998 26.5 52.0998C26.5 51.6998 26.6 51.3998 26.7 51.0998C26.8 50.7998 26.9 50.5998 27.1 50.4998C27.2 50.3998 27.2 50.2998 27.3 50.1998C27.4 49.8998 27.6 49.5998 27.5 49.1998C27.4 48.7998 27 48.2998 26.6 47.8998L27.8 46.7998C28.3 47.3998 28.7 47.9998 28.9 48.5998C29.1 49.3998 28.5 50.1998 28.2 50.8998C28.1 51.0998 28 51.1998 27.9 51.3998C27.8 51.4998 27.7 51.5998 27.7 51.7998C27.7 51.8998 27.6 51.9998 27.6 52.1998C27.6 53.3998 28 54.9998 28.8 56.0998L28.5 56.4998Z" fill="black"/>
<path d="M15.1998 50.0999L14.7998 49.3999L16.3998 48.8999C17.0998 48.6999 17.7998 48.3999 18.0998 47.9999C18.2998 47.7999 18.3998 47.3999 18.4998 47.0999C18.5998 46.6999 18.7998 46.1999 19.0998 45.7999C19.4998 45.1999 20.0998 44.6999 20.8998 44.3999C21.4998 44.1999 22.1998 43.9999 22.7998 43.8999L23.0998 45.4999C22.4998 45.5999 21.9998 45.6999 21.4998 45.8999C21.1998 45.9999 20.8998 45.8999 20.3998 46.1999C20.1998 46.2999 19.7998 46.5999 19.6998 46.9999C19.5998 47.3999 19.3998 47.9999 19.0998 48.3999C18.3998 49.2999 17.5998 49.2999 16.7998 49.5999L15.1998 50.0999Z" fill="black"/>
<path d="M15.1 41.4001C14.2 41.5001 13.7 41.0001 13 40.6001C12.3 40.2001 12.1 39.7001 11.5 38.9001L11.9 38.6001C12.2 39.1001 12.6 39.6001 13.3 40.0001C13.9 40.3001 14.5 40.7001 15 40.6001C15.3 40.6001 16 40.0001 16.3 39.8001C16.5 39.6001 17.1 39.4001 17.3 39.3001C18.8 38.6001 19.2 38.7001 20.2 39.9001L19.8 41.3001C19.3 40.7001 18.2 40.0001 17.4 40.4001C17.2 40.5001 17 40.6001 16.8 40.7001C16.4 41.0001 15.8 41.3001 15.2 41.4001C15.2 41.4001 15.2 41.4001 15.1 41.4001Z" fill="black"/>
<path d="M21.8001 34.7002C21.3001 34.6002 20.8001 34.3002 20.1001 33.8002C19.6001 33.4002 19.2001 33.0002 18.8001 32.6002C18.4001 32.1002 18.1001 31.1002 17.7001 31.0002C17.4001 30.9002 16.5001 30.8002 16.2001 30.8002C15.5001 30.9002 14.6001 30.9002 14.0001 31.2002L13.6001 30.6002C14.4001 30.3002 15.2001 30.1002 16.1001 30.0002C16.7001 29.9002 17.4001 29.9002 18.0001 30.2002C18.8001 30.5002 18.9001 31.3002 19.4001 31.9002C19.7001 32.3002 20.2001 32.9002 20.5001 33.1002C20.8001 33.3002 21.4001 33.1002 22.0001 33.2002L21.8001 34.7002Z" fill="black"/>
<path d="M13.7998 13.5002L12.3998 13.9002C12.3998 13.7002 12.1998 13.5002 12.0998 13.3002L11.7998 12.8002C11.5998 12.5002 11.4998 12.0002 11.4998 11.6002C11.3998 10.9002 12.0998 10.2002 12.7998 9.7002L12.9998 10.0002C12.9998 10.0002 11.7998 10.9002 11.8998 11.5002C11.8998 11.7002 12.2998 12.4002 12.4998 12.6002L12.6998 12.8002C12.8998 13.2002 13.2998 13.1002 13.7998 13.5002Z" fill="black"/>
<path d="M16.6998 14L15.2998 13.3C15.4998 12.9 15.5998 12.6 15.5998 12.2C15.5998 12 15.7998 11.5 15.7998 11.4C15.8998 10.8 16.9998 10.3 17.4998 10L17.5998 10.4C17.4998 10.5 16.3998 11.2 16.3998 11.4C16.3998 11.5 16.3998 11.6 16.3998 11.6V11.7C16.2998 12.3 16.9998 13.5 16.6998 14Z" fill="black"/>
<path d="M20.3001 14C20.2001 14 19.6001 14.2 19.5001 14.2C19.4001 14.2 19.3001 14.3 19.3001 14.3L18.9001 14.6C18.6001 14.8 18.4001 16 17.9001 16.1L17.6001 14.5C17.8001 14.5 18.1001 14.3 18.4001 14.1L18.8001 13.8C19.0001 13.7 19.1001 13.6 19.3001 13.5C19.5001 13.4 19.7001 13.4 19.8001 13.4L20.6001 13.3C21.1001 13.2 21.3001 13.4 21.5001 13.6L20.3001 14Z" fill="black"/>
<path d="M17.1002 64.8999C17.1002 64.7999 16.7002 64.2999 16.6002 64.1999C16.5002 64.0999 16.5002 64.0999 16.4002 63.9999L16.0002 63.6999C15.7002 63.3999 14.5002 63.6999 14.2002 63.1999L15.6002 62.3999C15.7002 62.5999 16.0002 62.7999 16.2002 62.9999L16.6002 63.2999C16.7002 63.3999 16.9002 63.5999 17.0002 63.6999C17.1002 63.7999 17.2002 63.9999 17.3002 64.1999L17.7002 64.8999C17.9002 65.2999 17.8002 65.5999 17.7002 65.7999L17.1002 64.8999Z" fill="black"/>
<path d="M10.4998 51.1C10.3998 51.2 10.0998 51.7 9.9998 51.8C9.9998 51.9 9.89981 52 9.89981 52.1L9.7998 52.6C9.6998 53 10.3998 54 10.0998 54.4L8.7998 53.5C8.8998 53.3 8.9998 52.9 9.0998 52.6L9.19981 52.1C9.29981 51.9 9.29981 51.7 9.39981 51.6C9.49981 51.4 9.59981 51.3 9.69981 51.1L10.1998 50.4C10.4998 50 10.7998 50 10.9998 50L10.4998 51.1Z" fill="black"/>
<path d="M21.6002 20.0002L21.4002 20.4002C21.4002 20.4002 20.8002 19.3002 20.7002 19.1002C20.6002 18.9002 20.4002 18.9002 20.2002 18.9002H19.9002C19.5002 18.9002 19.6002 18.9002 18.9002 18.8002C18.5002 18.7002 17.5002 19.0002 17.2002 18.5002L18.6002 17.7002C18.7002 17.9002 18.8002 18.0002 18.9002 18.0002C19.0002 18.1002 19.2002 18.1002 19.5002 18.1002H19.8002C20.1002 18.1002 20.4002 18.0002 20.7002 18.1002C21.2002 18.2002 21.3002 19.5002 21.6002 20.0002Z" fill="black"/>
<path d="M11.5 67.5001L11.9 67.7001C11.9 67.7001 11.7 66.4001 11.6 66.3001C11.5 66.0001 11.6 65.4001 11.8 65.3001C11.8 65.3001 12 65.0001 12.7 64.7001C13.1 64.5001 13.6 64.1001 13.5 63.6001L11.9 63.9001C11.9 64.1001 11.9 64.3001 11.9 64.4001C11.9 64.5001 11.6 64.7001 11.4 64.9001C11.4 64.9001 11.1 65.4001 11 65.6001C10.9 66.1001 11.4 67.0001 11.5 67.5001Z" fill="black"/>
<path d="M3.29982 51.4001L3.59982 51.1001C3.59982 51.1001 3.79982 52.4001 3.79982 52.5001C3.79982 52.8001 3.99982 52.9001 4.19982 52.9001L4.49982 53.0001C4.89982 53.1001 4.79982 53.1001 5.39982 53.5001C5.69982 53.7001 6.69982 53.7001 6.69982 54.2001L5.59982 54.9001C5.59982 54.7001 5.29982 54.2001 5.19982 54.1001C5.09982 54.0001 4.89982 54.0001 4.69982 53.9001L4.39982 53.8001C4.09982 53.7001 3.79982 53.6001 3.49982 53.5001C2.99982 53.2001 3.39982 51.9001 3.29982 51.4001Z" fill="black"/>
<path d="M6.39981 64.5002L6.79981 64.8002C6.79981 64.8002 6.89981 63.5002 6.89981 63.4002C6.89981 63.1002 7.09981 63.0002 7.29981 62.9002L7.59981 62.8002C7.99981 62.6002 7.89981 62.7002 8.49981 62.3002C8.79981 62.1002 9.79981 61.8002 9.89981 61.3002L8.29981 61.2002C8.29981 61.4002 8.29981 61.6002 8.19981 61.6002C8.09981 61.7002 7.99981 61.8002 7.69981 61.9002L7.49981 62.0002C7.19981 62.1002 6.99981 62.2002 6.69981 62.4002C5.99981 62.8002 6.49981 64.0002 6.39981 64.5002Z" fill="black"/>
<path d="M16.7998 23.3002L16.3998 23.2002C16.4998 22.5002 16.5998 22.2002 16.6998 21.6002C16.6998 21.4002 16.6998 21.3002 16.6998 21.3002C16.6998 21.3002 16.6998 21.2002 16.5998 21.1002L15.2998 20.1002L16.0998 19.7002L16.8998 20.5002C16.9998 20.7002 17.0998 20.9002 17.0998 21.1002C17.0998 21.4002 17.0998 22.1002 17.0998 22.2002C17.0998 22.7002 16.9998 22.9002 16.7998 23.3002Z" fill="black"/>
<path d="M15.2001 54.1001L15.4001 54.5001C14.7001 54.8001 14.7001 54.6001 14.2001 54.8001C14.1001 54.9001 13.7001 55.2001 13.7001 55.2001L13.6001 55.3001L13.4001 55.8001V57.0001L12.6001 56.5001L12.8001 55.4001C12.9001 55.3001 13.0001 55.1001 13.2001 54.9001C13.4001 54.7001 14.0001 54.4001 14.2001 54.3001C14.5001 54.1001 14.7001 54.1001 15.2001 54.1001Z" fill="black"/>
<path d="M11.6999 24.1999C11.4999 23.7999 11.1999 22.9999 11.3999 22.5999C11.4999 22.1999 11.6999 21.8999 11.7999 21.6999L11.9999 21.3999C12.0999 21.1999 12.1999 20.9999 12.2999 20.7999C12.2999 20.6999 12.3999 20.5999 12.2999 20.4999L13.3999 20.3999C13.4999 20.7999 13.4999 20.8999 13.0999 21.1999C12.5999 21.4999 12.5999 21.4999 12.3999 21.7999L12.0999 22.2999C11.9999 22.4999 12.0999 22.7999 11.9999 22.9999C11.9999 23.0999 12.0999 23.9999 12.1999 23.9999L11.6999 24.1999Z" fill="black"/>
<path d="M9.2001 20.2001C8.7001 20.4001 8.1001 20.1001 7.6001 20.1001L7.8001 19.8001C8.2001 19.8001 8.9001 20.0001 9.3001 19.7001C9.4001 19.7001 9.4001 19.6001 9.5001 19.6001C9.6001 19.5001 9.7001 19.5001 9.7001 19.4001C10.1001 19.1001 10.1001 18.3001 10.5001 18.1001L11.5001 19.2001C11.1001 19.4001 10.9001 19.2001 10.6001 19.4001L10.4001 19.5001C10.3001 19.6001 10.0001 19.9001 9.9001 19.9001C9.7001 20.0001 9.4001 20.1001 9.2001 20.2001Z" fill="black"/>
<path d="M3.2001 59.2999C2.7001 59.3999 2.1001 58.9999 1.6001 58.8999L1.9001 58.5999C2.3001 58.6999 3.0001 58.8999 3.4001 58.7999C3.5001 58.7999 3.5001 58.6999 3.6001 58.6999C3.7001 58.6999 3.8001 58.5999 3.9001 58.5999C4.4001 58.3999 4.5001 57.4999 4.9001 57.3999L5.7001 58.5999C5.3001 58.6999 5.1001 58.4999 4.8001 58.5999L4.6001 58.6999C4.5001 58.6999 4.2001 58.9999 4.1001 58.9999C3.8001 59.1999 3.5001 59.2999 3.2001 59.2999Z" fill="black"/>
<path d="M10.4002 16.0998C10.1002 15.4998 10.3002 14.9998 9.8002 14.5998C9.7002 14.4998 9.6002 14.3998 9.5002 14.3998C9.4002 14.3998 8.8002 14.1998 8.7002 14.1998C8.5002 14.1998 7.9002 14.1998 7.7002 14.1998L7.9002 13.7998C8.0002 13.7998 8.6002 13.7998 8.7002 13.7998C9.0002 13.7998 9.3002 13.7998 9.7002 13.8998C10.0002 13.9998 10.2002 14.1998 10.3002 14.2998C10.7002 14.5998 10.7002 15.1998 11.1002 15.2998L10.4002 16.0998Z" fill="black"/>
<path d="M16 60.4C16.5 60 16.6 59.4 17.1 59.2C17.3 59.1 17.4 59.1 17.4 59.1C17.5 59.1 18.1 59.2 18.2 59.2C18.4 59.3 18.9 59.5 19.2 59.6V59.2C19.1 59.2 18.6 58.9 18.4 58.8C18.1 58.7 17.8 58.5 17.4 58.5C17.1 58.5 16.8 58.6 16.6 58.7C16.1 58.9 15.9 59.4 15.5 59.4L16 60.4Z" fill="black"/>
<path d="M41.1 27.0998C41.3 28.2998 41.4 29.5998 40.8 30.6998C40.7 30.9998 40.5 31.1998 40.2 31.3998C40 31.4998 39.8 31.5998 39.5 31.6998C39 31.7998 38.5 31.9998 37.9 32.0998C37.5 32.1998 37.1 32.2998 36.7 32.1998C36.5 32.0998 36.2 31.9998 36 31.8998C35.7 31.7998 35.4 31.7998 35.2 31.5998C34.9 31.3998 34.8 30.9998 34.7 30.5998C34.6 29.9998 34.5 29.3998 34.6 28.8998C34.7 28.6998 34.8 28.3998 34.9 28.1998C35.1 27.6998 35.4 27.1998 35.8 26.7998C35.7 27.4998 35.6 28.0998 35.6 28.7998C35.6 28.8998 35.6 29.0998 35.6 29.1998C35.6 29.3998 35.7 29.4998 35.9 29.5998C36.3 29.9998 36.8 30.2998 37.3 30.3998C37.8 30.4998 38.4 30.4998 39 30.4998C39.4 30.4998 39.8 30.3998 40 30.0998C40.2 29.8998 40.2 29.6998 40.4 29.4998C40.5 29.2998 40.8 29.0998 41 28.9998" fill="#BCBCBB"/>
<path d="M36.5002 29.0001C36.9002 29.2001 37.5002 29.2001 38.0002 29.2001C39.0002 29.1001 40.0002 28.8001 40.7002 28.1001C40.8002 28.5001 40.8002 28.9001 40.7002 29.3001C40.7002 29.4001 40.6002 29.6001 40.6002 29.7001C40.4002 29.8001 40.2002 29.9001 40.1002 29.9001C39.7002 30.1001 39.3002 30.2001 38.9002 30.3001C38.5002 30.4001 38.1002 30.5001 37.7002 30.4001C37.4002 30.4001 37.2002 30.2001 36.9002 30.2001C36.7002 30.1001 36.4002 30.1001 36.2002 30.0001C35.8002 29.8001 35.6002 29.5001 35.5002 29.1001C35.5002 29.0001 35.3002 28.1001 35.7002 28.2001C35.8002 28.2001 35.9002 28.5001 36.0002 28.6001C36.1002 28.8001 36.3002 28.9001 36.5002 29.0001Z" fill="#BCBCBB"/>
<path d="M38.5003 30.9999C38.2003 30.9999 38.0003 30.9999 37.7003 30.9999C37.3003 30.9999 36.7003 30.8999 36.2003 30.5999C35.3003 29.9999 34.9003 28.8999 35.1003 27.6999C35.3003 26.6999 35.9003 25.8999 36.7003 25.4999C37.6003 24.9999 38.6003 24.9999 39.8003 25.3999C40.3003 25.5999 40.7003 25.8999 41.0003 26.2999C41.2003 26.6999 41.2003 26.9999 41.2003 27.2999L41.3003 28.6999C41.3003 28.8999 41.3003 29.2999 41.2003 29.5999C41.1003 29.8999 40.9003 30.1999 40.6003 30.3999C40.0003 30.6999 39.3003 30.9999 38.5003 30.9999ZM35.8003 27.9999V28.5999C35.7003 29.0999 36.6003 29.5999 36.9003 29.7999C37.1003 29.8999 37.7003 29.7999 37.9003 29.8999C38.4003 29.8999 38.9003 29.7999 39.5003 29.5999C39.7003 29.4999 40.1003 29.1999 40.1003 29.1999C40.1003 29.1999 40.4003 28.7999 40.4003 28.6999L40.5003 27.8999L40.4003 27.3999C40.4003 27.2999 40.1003 26.7999 40.1003 26.6999C40.1003 26.6999 39.3003 26.0999 39.1003 25.9999C38.4003 25.7999 37.4003 26.0999 36.9003 26.2999C36.4003 26.5999 35.9003 27.4999 35.8003 27.9999Z" fill="black"/>
<path d="M25.2998 35C25.2998 35.4 25.2998 35.9 25.2998 36.3C25.2998 36.5 25.2998 36.8 25.2998 37C25.2998 37.5 25.0998 37.9 25.0998 38.4C25.0998 38.5 25.0998 38.7 25.0998 38.8C24.9998 38.9 24.7998 38.9 24.6998 38.9C24.5998 38.9 24.4998 38.9 24.3998 38.8C24.2998 38.7 24.2998 38.5 24.2998 38.3C24.2998 37.9 24.3998 37.5 24.3998 37.1C24.3998 36.7 24.4998 36.4 24.5998 36.1C24.6998 36 24.7998 35.9 24.7998 35.8C24.8998 35.6 25.0998 35.5 25.1998 35.3" fill="#BCBCBB"/>
<path d="M25.3002 35C25.3002 35 25.0002 35.3 24.9002 35.4C24.8002 35.5 24.7002 35.7 24.6002 35.8C24.2002 36.5 24.2002 37.2 24.2002 37.7L24.7002 37.9C24.7002 37.5 24.7002 36.4 24.8002 36.1C24.8002 36 24.9002 36 24.9002 35.9C24.8002 36.2 24.9002 36.5 24.9002 36.7L25.2002 36.8C25.2002 36.6 25.1002 36 25.1002 35.8L25.3002 35Z" fill="black"/>
<path d="M4 77.7C3.5 76 3.6 74.9 4.3 73.8C7.9 67.9 11.6 62 15.1 56.1C16.8 53.3 18.2 50.4 19.9 47.6C22.4 43.2 25 38.8 27.5 34.5C29.4 31.3 31.1 28.1 33.2 25C37.6 18.6 42.1 12.4 46.6 6.1C47.9 4.3 49.4 2.7 50.9 1C51.2 0.6 51.6 0.4 52.1 0C52.9 1.2 52.4 1.9 51.7 2.6C44.3 9.9 38.6 18.7 33 27.6C30.4 31.7 27.9 35.9 25.4 40.2C21.9 46.4 18.5 52.6 14.9 58.8C12.2 63.5 9.3 68 6.6 72.7C5.8 74.1 5 75.7 4 77.7Z" fill="#F15748"/>
</svg>
