<svg width="57" height="56" viewBox="0 0 57 56" fill="none" xmlns="http://www.w3.org/2000/svg">
<path d="M57.0009 30.2812C56.6722 32.582 56.2339 35.1019 55.9052 37.6218C55.467 40.7991 53.714 43.3191 51.7419 45.5103C49.3315 48.2494 46.5924 50.5502 43.3056 52.1936C38.4848 54.604 33.3354 55.59 28.0764 55.8092C20.9549 56.1379 14.4907 53.9466 8.79348 49.345C4.73968 46.0581 2.54843 41.6756 0.466749 37.1836C0.138062 36.4167 -0.0810618 35.4306 0.0285004 34.6637C0.247625 31.5959 0.247625 28.309 1.23368 25.3509C2.54843 21.6258 3.64405 17.7911 5.8353 14.3946C8.24567 10.6695 10.9847 7.60179 14.6003 5.19142C17.668 3.00017 21.0644 1.57586 24.8991 1.35674C25.4469 1.35674 26.1043 1.24718 26.6521 1.24718C35.6362 -0.286695 42.8673 3.32886 49.2219 9.13566C53.0566 12.5321 54.7001 17.2433 55.9052 21.9544C56.5626 24.4744 56.6722 27.323 57.0009 30.2812ZM55.0287 30.062C55.2479 23.0501 53.2757 16.6955 48.5646 11.2173C44.2916 6.28704 38.704 3.32886 32.3494 2.78105C26.2139 2.23324 20.5166 4.09579 15.6959 8.04003C9.99866 12.6416 6.05442 18.6676 3.53449 25.3509C2.32931 28.309 1.89106 32.0342 2.43887 35.1019C3.86318 43.2095 9.0126 48.7972 16.4628 51.8649C24.7896 55.2614 33.3354 54.7136 41.443 50.8789C50.208 46.7155 55.3574 40.2513 55.0287 30.062Z" fill="#EB584A"/>
<path d="M15.5362 0L0.642578 46.0709L40.9546 56L48.4014 29.7872L55.0539 8.83688L15.5362 0Z" fill="white"/>
<path d="M25.6649 47.3625C25.367 46.7667 24.8705 46.2703 24.3741 45.7738C20.5018 42.3979 16.0337 39.5185 13.0549 35.249C11.367 32.866 9.97693 29.8873 7.19679 28.6958C6.10459 30.8802 6.0053 34.4547 5.21097 36.6391C5.11168 38.4263 4.31736 38.9227 4.31736 40.71C4.31736 41.9015 2.53012 44.0859 3.02658 45.1781C4.21807 47.561 9.1826 46.866 11.7642 47.3625C13.9486 47.7596 15.8351 48.8518 18.0195 49.249C19.4096 50.2419 21.9911 50.8376 23.6791 50.7384C25.5656 50.8376 26.3599 49.1497 25.6649 47.3625Z" fill="#BCBCBB"/>
<path d="M48.3024 27.1061C49.0967 22.7373 51.579 18.7656 53.1677 14.5954L53.0684 11.6167C53.0684 11.021 53.1677 10.4252 52.8698 9.82947C52.3733 8.53869 50.7847 8.14153 49.3946 7.84366C48.9974 7.74436 48.6003 7.64507 48.2031 7.84366C47.5081 8.04224 47.1109 8.83656 46.813 9.63089C44.1322 17.0777 41.3521 24.7231 41.6499 32.5671C43.6357 32.8649 45.3237 31.2763 46.6145 29.7869C47.2102 29.1912 47.7067 28.5954 48.3024 27.9004C48.3024 27.6025 48.3024 27.4039 48.3024 27.1061Z" fill="#BCBCBB"/>
<path d="M4.51448 43.5884C4.71306 43.6877 4.91164 43.787 5.11022 43.787C8.5854 44.482 11.9613 45.5742 15.3372 46.6664C19.0109 47.7586 22.5854 48.9501 26.4577 49.6452C28.5428 50.0423 30.628 50.6381 32.7131 51.2338C34.5996 51.7303 36.3868 52.1274 38.2733 52.6239C38.5712 52.7232 38.8691 52.8225 39.2662 52.9217C38.6705 53.3189 38.2733 53.1203 37.8762 53.1203C35.3939 52.5246 33.0109 51.9288 30.5287 51.3331C28.1457 50.7374 25.7627 50.3402 23.3797 49.6452C20.401 48.6522 17.4223 47.7586 14.3443 46.865C11.4648 46.0707 8.5854 45.2764 5.70596 44.482C5.3088 44.3827 4.91164 44.3827 4.51448 44.3827C4.2166 44.6806 4.01802 45.0778 3.62086 45.4749C4.2166 45.6735 4.71306 45.9714 5.20951 46.0707C6.79816 46.4678 8.48611 46.9643 10.0748 47.1629C12.7556 47.56 15.3372 48.3544 17.8194 49.0494C20.401 49.7444 22.9826 50.5388 25.5641 51.2338C27.6492 51.8296 29.635 52.326 31.7201 52.8225C34.1031 53.4182 36.4861 54.0139 38.7698 54.6097C39.167 54.709 39.4648 54.8083 39.862 55.0069C39.6634 55.5033 39.3655 55.404 38.9684 55.3047C36.3868 54.6097 33.706 53.9147 31.1244 53.2196C28.4436 52.5246 25.7627 51.8296 22.9826 51.1345C20.5996 50.5388 18.2166 49.943 15.8336 49.1487C12.8549 48.1558 9.87618 47.8579 6.79816 47.1629C5.3088 46.7657 3.91873 46.3686 2.33008 45.9714C2.52866 44.9785 2.62795 44.0849 2.82653 43.092C3.42228 40.709 4.11731 38.326 4.81235 35.943C5.01093 35.1487 5.20951 34.4537 5.50738 33.6593C6.59958 30.2835 7.69178 27.0069 8.78398 23.631C10.0748 19.7586 11.4648 15.8863 12.7556 12.014C13.3514 10.1274 13.7485 8.2409 14.245 6.35438C14.7414 4.66643 15.2379 3.07778 15.635 1.38984C16.4294 0.992676 17.2237 0.893385 18.018 1.09197C20.5996 1.68771 23.2804 2.18416 25.862 2.77991C28.7414 3.47494 31.5216 4.16998 34.3017 4.96431C34.7982 5.0636 35.1953 5.16289 35.6918 5.26218C37.1811 5.46076 38.5712 5.85792 39.9613 6.1558C42.7414 6.75154 45.323 7.74445 48.0038 8.34019C49.6918 8.63806 51.3797 9.03523 53.0677 9.43239C53.2662 9.43239 53.3655 9.43239 53.5641 9.53168C53.6634 9.63097 53.862 9.82955 53.862 10.0281C53.862 10.1274 53.6634 10.326 53.4648 10.326C53.2662 10.326 53.0677 10.326 52.8691 10.2267C49.1953 9.43239 45.5216 8.53877 41.8478 7.44658C39.7627 6.85083 37.5783 6.45367 35.3939 5.95721C32.4152 5.26218 29.5358 4.46785 26.557 3.77282C23.8762 3.17707 21.096 2.58133 18.4152 1.98558C17.9187 1.88629 17.323 1.88629 16.628 1.787C15.8336 4.16998 15.4365 6.75154 14.7414 9.53168C15.5358 9.23381 16.0322 8.93594 16.8265 8.53877C16.0322 9.53168 14.5428 9.63097 14.5428 11.2196C15.4365 10.8225 16.2308 10.5246 17.0251 10.1274C17.0251 10.1274 17.0251 10.2267 17.1244 10.2267C16.5287 10.6239 15.9329 10.9218 15.3372 11.3189C14.6421 11.7161 14.1457 12.3118 13.8478 13.1061C12.7556 16.0849 11.6634 19.0636 10.6705 22.0423C10.2733 23.2338 9.87618 24.5246 9.5783 25.7161C8.98256 27.6026 8.48611 29.4891 7.89036 31.3757C6.99674 34.3544 6.10313 37.4324 5.20951 40.4111C4.71306 41.404 4.41518 42.4962 4.51448 43.5884Z" fill="black"/>
<path d="M52.0747 12.113C51.7769 12.2123 51.5783 12.3116 51.3797 12.2123C50.4861 12.0137 49.5925 12.0137 48.7981 11.6166C47.0109 10.9215 45.2237 10.5244 43.3371 10.2265C41.252 9.92864 39.2662 9.63076 37.2804 8.93573C36.1882 8.63786 35.096 8.53857 34.0038 8.33998C31.8194 7.84353 29.7343 7.24779 27.6492 6.75133C27.1528 6.65204 26.557 6.55275 25.9613 6.45346C23.2804 5.95701 20.5003 5.46055 17.8194 4.9641C17.5215 4.86481 17.2237 4.86481 16.9258 4.66623C16.7272 4.56694 16.7272 4.26906 16.6279 4.16977C16.8265 4.07048 16.9258 3.97119 17.1244 3.97119C17.2237 3.97119 17.4223 4.07048 17.6208 4.07048C20.6989 4.66623 23.7769 5.16268 26.8549 5.85772C28.8407 6.25488 30.7272 6.75133 32.713 7.24779C33.8052 7.54566 34.9967 7.74424 36.0889 8.04211C36.8832 8.24069 37.7769 8.24069 38.5712 8.53857C40.8549 9.2336 43.2379 9.53147 45.5215 10.1272C47.6066 10.6237 49.6918 11.3187 51.7769 12.0137C51.8762 11.8152 51.8762 11.9145 52.0747 12.113Z" fill="black"/>
<path d="M53.959 11.3193C53.8597 11.7165 53.8597 12.0144 53.7604 12.3122C53.0653 13.8016 52.6682 15.291 52.271 16.8796C52.0724 17.5747 51.7746 18.2697 51.3774 18.8654C50.5831 20.1562 50.2852 21.447 49.888 22.8371C48.7958 26.5108 47.8029 30.2839 46.6114 33.9576C45.3207 38.2271 43.9306 42.3973 42.9377 46.6669C42.4412 48.5534 41.8455 50.5392 41.2497 52.4257C41.1505 52.8229 40.9519 53.22 40.7533 53.6172C40.654 53.7165 40.3561 53.7165 40.2568 53.7165C40.8526 51.7307 41.4483 49.7449 41.9448 47.7591C43.1363 43.291 44.427 38.8229 45.8171 34.4541C47.1079 30.3832 48.2001 26.213 49.3916 22.142C49.7888 20.8513 50.3845 19.5605 50.8809 18.2697C51.1788 17.3761 51.576 16.4825 51.8739 15.5888C52.1717 14.0995 52.7675 12.8087 53.4625 11.5179C53.4625 11.5179 53.6611 11.5179 53.959 11.3193Z" fill="black"/>
<path d="M36.3839 36.7375C35.391 36.4396 34.696 36.7375 34.0009 37.1347C33.7031 37.3333 33.3059 37.5318 33.5045 37.929C33.6038 38.2269 33.9017 38.5248 34.1995 38.624C34.5967 38.8226 35.0931 38.9219 35.5896 39.0212C34.5967 39.5177 33.008 39.0212 32.8095 38.1276C32.7102 37.8297 32.8095 37.3333 33.008 37.1347C33.7031 36.6382 34.5967 36.2411 35.391 35.8439C35.8875 35.7446 36.0861 35.9432 36.3839 36.7375Z" fill="black"/>
<path d="M20.0062 14.4961C20.5027 14.2975 20.8998 14.2975 21.1977 14.0989C21.6941 13.9003 21.992 13.5032 22.1906 13.0067C22.3892 12.2124 21.992 11.7159 21.0984 11.8152C20.7012 11.8152 20.3041 11.9145 19.8076 12.0138C20.5027 10.9216 21.992 10.9216 22.4885 11.8152C22.7863 12.5103 22.7863 13.2053 22.3892 13.9003C21.8927 14.5954 21.0984 14.8932 20.0062 14.4961Z" fill="black"/>
<path d="M38.9688 18.1694C37.678 17.5736 37.1816 16.8786 37.3802 15.7864C37.4794 15.1906 38.1745 14.5949 38.7702 14.4956C39.2667 14.4956 39.5646 14.6942 39.9617 15.4885C39.8624 15.4885 39.6638 15.4885 39.6638 15.3892C39.1674 14.9921 38.6709 15.0914 38.2738 15.4885C37.8766 15.7864 37.8766 16.3821 38.1745 16.8786C38.2738 17.0772 38.4724 17.375 38.6709 17.5736C38.8695 17.7722 39.0681 17.8715 39.2667 17.9708C39.0681 17.9708 38.9688 18.0701 38.9688 18.1694Z" fill="black"/>
<path d="M10.7704 35.3474C9.97606 35.8438 9.67819 36.3403 9.87677 37.1346C10.1746 38.1275 10.969 38.3261 11.8626 38.5247C11.8626 38.624 11.8626 38.7232 11.7633 38.7232C10.7704 39.0211 10.1746 38.5247 9.5789 37.9289C8.98315 37.3332 8.98315 36.5388 9.38031 35.8438C9.67819 35.0495 9.87677 35.0495 10.7704 35.3474Z" fill="black"/>
<path d="M24.2734 36.6375C25.5642 36.0417 25.5642 36.0417 25.4649 34.7509C25.1671 34.6517 24.8692 34.6517 24.472 34.5524C24.5713 34.3538 24.5713 34.0559 24.7699 34.0559C24.9685 33.9566 25.3656 33.9566 25.5642 34.0559C26.16 34.3538 26.4578 35.3467 26.16 36.141C25.7628 36.7368 25.3656 36.9353 24.2734 36.6375Z" fill="black"/>
<path d="M32.8116 26.2133C33.3081 26.114 33.6059 26.3126 33.7052 26.809C33.8045 27.3055 33.2088 27.7027 32.613 27.802C32.1166 27.802 31.6201 27.4048 31.6201 27.0076C31.7194 26.4119 32.0173 26.3126 32.8116 26.2133Z" fill="black"/>
<path d="M16.3301 27.5033C16.628 27.404 16.8265 27.1062 17.1244 27.1062C17.5216 27.0069 17.8194 27.3047 17.8194 27.7019C17.8194 28.0991 17.5216 28.2976 17.1244 28.2976C16.7272 28.2976 16.4294 28.0991 16.3301 27.5033Z" fill="black"/>
<path d="M25.6611 17.972C26.0583 17.8727 26.3562 17.7734 26.654 17.8727C26.8526 17.8727 27.0512 18.1705 27.1505 18.2698C27.2498 18.3691 27.0512 18.7663 26.8526 18.8656C26.2569 19.2627 25.8597 18.9649 25.6611 17.972Z" fill="black"/>
<path d="M37.6768 49.4465C38.769 49.1486 39.7619 48.7515 40.8541 48.4536C39.8612 49.3472 38.4711 49.7444 37.6768 49.4465Z" fill="black"/>
<path d="M38.1709 48.2555C39.2631 47.759 40.1567 46.8654 41.5468 47.064C40.951 47.2625 40.4546 47.4611 39.8588 47.759C39.3624 47.9576 38.7666 48.2555 38.2702 48.5533C38.2702 48.454 38.2702 48.3547 38.1709 48.2555Z" fill="black"/>
<path d="M14.8398 19.8576C15.1377 19.5598 15.3363 19.2619 15.6342 19.0633C15.932 18.8647 16.2299 19.1626 16.3292 19.4605C16.3292 19.6591 16.1306 19.9569 16.0313 19.9569C15.7335 20.0562 15.3363 20.0562 15.0384 20.0562C14.9391 20.0562 14.9391 19.9569 14.8398 19.8576Z" fill="black"/>
<path d="M31.226 12.4105C30.3323 12.0134 30.1338 11.6162 30.6302 11.219C30.7295 11.1197 31.0274 11.0205 31.1267 11.1197C31.226 11.219 31.4245 11.4176 31.4245 11.5169C31.4245 11.9141 31.3253 12.1126 31.226 12.4105Z" fill="black"/>
<path d="M43.9336 22.9355C44.4301 22.9355 44.9265 23.3327 44.9265 23.6306C44.9265 23.8292 44.7279 24.0277 44.5294 24.127C44.2315 24.2263 43.6357 23.8292 43.6357 23.432C43.6357 23.2334 43.8343 23.1341 43.9336 22.9355Z" fill="black"/>
<path d="M35.791 46.864C35.8903 46.7647 35.9896 46.4668 36.1882 46.4668C36.5853 46.4668 36.7839 46.7647 36.7839 47.1618C36.7839 47.3604 36.5853 47.559 36.3868 47.6583C36.0889 47.7576 35.791 47.3604 35.791 46.864Z" fill="black"/>
<path d="M22.3875 43.2899C21.9903 43.4885 21.7917 43.7864 21.5932 43.7864C21.4939 43.7864 21.196 43.5878 21.196 43.3892C21.0967 42.992 21.3946 42.7935 21.7917 42.7935C21.891 42.7935 21.9903 42.992 22.3875 43.2899Z" fill="black"/>
<path d="M22.5889 11.8154L17.1279 27.1062L12.8584 40.5105L32.4187 45.9715L37.7804 34.1559L43.0428 18.7658L38.1775 15.3899L22.5889 11.8154Z" fill="white"/>
<path d="M14.2493 37.3328C14.9443 37.0349 15.4408 36.9356 16.0365 36.737C15.5401 37.5314 14.5472 37.6306 13.9514 38.6236C14.7457 38.5243 15.4408 38.425 16.0365 38.2264C16.0365 38.3257 16.0365 38.3257 16.0365 38.3257C15.2422 38.6236 14.4479 39.0207 13.455 39.4179C13.9514 39.7157 14.15 39.9143 14.4479 40.0136C15.2422 40.3115 15.9372 40.4108 16.7316 40.7087C20.8025 41.9001 24.9727 43.0916 29.0436 44.2831C30.2351 44.581 31.5259 44.8789 32.916 45.1767C33.1145 44.7796 33.3131 44.4817 33.5117 44.0845C34.4053 41.6023 35.3982 39.12 36.2918 36.5384C37.0862 34.2548 37.7812 31.9711 38.4762 29.6874C38.5755 29.2902 38.7741 28.8931 38.8734 28.3966C39.767 25.9143 40.6606 23.4321 41.5543 20.9498C41.9514 19.7583 42.3486 18.4675 42.845 17.0775C42.0507 16.6803 41.2564 16.2831 40.5613 15.9853C39.9656 15.7867 39.3699 15.5881 38.6748 15.4888C35.6961 14.9923 32.916 13.9002 30.1358 12.9072C27.7528 12.0136 25.3699 11.3186 22.7883 11.2193C22.3911 11.2193 22.0933 11.12 21.994 10.5243C22.1926 10.425 22.4904 10.3257 22.689 10.3257C24.7741 10.6236 26.7599 11.0207 28.7457 11.7158C31.228 12.6094 33.7103 13.503 36.1926 14.198C37.6819 14.5952 39.1713 14.8931 40.6606 15.1909C41.7528 15.4888 42.7457 15.9853 43.7387 16.7796C43.5401 17.3753 43.3415 17.9711 43.1429 18.5668C42.6465 20.2548 42.15 21.9427 41.5543 23.5314C41.0578 25.0207 40.4621 26.5101 39.8663 27.9994C39.5684 28.6945 39.2706 29.2902 39.1713 29.9853C38.9727 31.3753 38.4762 32.5668 37.8805 33.8576C37.6819 34.2548 37.5826 34.6519 37.4833 35.1484C36.7883 37.0349 36.1926 38.9214 35.4975 40.8079C35.0011 42.198 34.4053 43.6874 33.9089 45.0774C33.5117 45.9711 33.4124 45.9711 32.5188 45.7725C29.9372 45.0775 27.455 44.3824 24.8734 43.6874C23.384 43.2902 21.8947 42.8931 20.4053 42.4959C19.1145 42.0987 17.8238 41.8009 16.6323 41.4037C15.4408 41.1058 14.2493 40.7087 13.0578 40.3115C13.0578 40.0136 12.9585 39.7157 13.0578 39.5172C13.5543 37.5314 14.15 35.5455 14.7457 33.659C15.5401 31.1767 16.2351 28.5952 17.0294 26.1129C17.6252 24.1271 18.3202 22.1413 19.0152 20.1555C19.611 18.4675 20.4053 16.7796 21.1004 15.0916C21.3982 14.2973 21.5968 13.4037 21.8947 12.6094C21.994 12.4108 22.0933 12.3115 22.1926 12.1129C22.7883 12.3115 22.689 12.808 22.4904 13.1058C22.1926 13.9002 21.994 14.6945 21.5968 15.4888C20.4053 17.9711 19.5117 20.6519 18.7174 23.3328C17.4266 27.6023 16.0365 31.9711 14.7457 36.2406C14.4479 36.5384 14.4479 36.8363 14.2493 37.3328Z" fill="black"/>
<path d="M24.4709 14.4971L22.0879 24.8233L34.4992 29.1921L35.79 25.4191L36.5843 18.0715L24.4709 14.4971Z" fill="#EB584A"/>
<path d="M36.5843 18.0714C32.5134 16.1849 28.1446 15.9863 23.6765 15.3906C23.6765 15.2913 23.5773 14.8941 23.6765 14.6955C23.7758 14.497 24.173 14.3977 24.3716 14.497C26.556 15.2913 28.8397 15.3906 31.1234 15.6885C32.6127 15.887 34.0028 16.4828 35.4921 16.8799C35.9886 16.9792 36.3858 17.1778 36.8822 17.2771C37.3787 17.3764 37.478 17.6743 37.3787 18.27C37.1801 19.1636 36.9815 20.0572 36.7829 20.9509C36.4851 22.4402 36.1872 23.9296 35.79 25.4189C35.4921 26.6104 34.9957 27.8019 34.4992 29.192C32.3148 28.497 30.329 27.7026 28.2439 27.0076C26.2581 26.3126 24.173 25.5182 22.0879 24.8232C22.4851 22.2416 22.5843 19.6601 23.478 17.0785C23.5773 16.7806 23.7758 16.5821 23.9744 16.2842C24.0737 16.2842 24.173 16.3835 24.173 16.3835C24.173 16.6814 24.173 17.0785 24.0737 17.2771C23.3787 18.7665 23.2794 20.3551 23.0808 21.8445C22.9815 22.5395 22.8822 23.2345 22.8822 24.0289C26.4567 25.7168 30.329 26.7097 33.9035 28.1991C35.095 26.6104 36.3858 21.5466 36.5843 18.0714Z" fill="black"/>
<path d="M30.4314 37.1347C30.3321 37.234 30.3321 37.234 30.3321 37.3333C30.2329 37.3333 30.2329 37.4326 30.1336 37.4326C30.0343 37.4326 29.935 37.4326 29.8357 37.3333C26.3605 35.9432 23.1832 34.156 19.5094 33.1631C19.5094 33.1631 19.4102 33.0638 19.4102 32.8652C19.708 32.8652 19.9066 32.8652 20.2045 32.9645C21.9917 33.3617 23.6797 34.156 25.3676 34.851C26.9563 35.5461 28.6442 36.2411 30.2329 36.9362C30.3321 36.9362 30.3321 37.0354 30.4314 37.1347Z" fill="black"/>
<path d="M27.946 41.5033C26.7545 40.6097 25.4637 40.5104 24.2722 40.1133C22.3857 39.6168 20.4992 39.1203 18.6127 38.6239C18.4141 38.5246 18.3148 38.4253 18.1162 38.2267C18.3148 38.2267 18.5134 38.1274 18.712 38.1274C21.5914 38.9218 24.4708 39.7161 27.251 40.6097C27.6481 40.709 28.0453 40.9076 27.946 41.5033Z" fill="black"/>
<path d="M27.5496 33.2624C27.4504 33.2624 27.2518 33.3617 27.1525 33.2624C24.9681 32.2695 22.6844 31.2766 20.5 30.1844C20.5 30.0851 20.5 30.0851 20.5993 29.9858C20.7979 29.9858 21.0957 29.9858 21.2943 30.0851C22.6844 30.6809 23.9752 31.2766 25.3652 31.8724C26.0603 32.1702 26.656 32.4681 27.3511 32.766C27.4504 32.8653 27.5496 32.9646 27.7482 33.0639C27.5496 33.0639 27.5496 33.1631 27.5496 33.2624Z" fill="black"/>
<path d="M29.6325 18.5675C29.7318 18.5675 29.7318 18.5675 29.7318 18.5675C29.831 18.7661 29.831 19.0639 29.7318 19.3618C29.9303 19.4611 30.0296 19.6597 30.1289 19.759C30.3275 19.3618 30.4268 19.0639 30.3275 18.4682C30.1289 18.3689 29.9303 18.1703 29.9303 17.8725C29.9303 17.6739 30.0296 17.4753 30.1289 17.376C29.9303 17.2767 29.5332 17.1774 29.2353 17.5746C29.136 17.7732 29.136 17.9717 29.136 18.1703C29.2353 18.3689 29.4339 18.4682 29.6325 18.5675ZM30.0296 17.8725C30.0296 18.071 30.1289 18.2696 30.3275 18.3689H30.4268V18.4682C30.5261 19.0639 30.3275 19.5604 30.1289 19.8583C30.2282 19.9576 30.2282 20.1561 30.3275 20.1561C30.5261 19.9576 30.9232 19.2625 30.9232 18.2696C31.1218 18.1703 31.3204 17.8725 31.2211 17.5746C31.1218 17.0781 30.5261 16.8795 30.1289 17.2767C30.1289 17.4753 30.0296 17.6739 30.0296 17.8725ZM31.1218 18.4682C31.1218 19.3618 30.7247 20.0568 30.5261 20.3547C30.5261 20.3547 30.5261 20.5533 30.5261 20.7519C31.3204 19.8583 31.3204 18.8654 31.3204 18.8654C31.6183 18.9647 31.9162 18.7661 32.0154 18.4682C32.1147 18.071 31.8169 17.6739 31.4197 17.6739C31.4197 17.6739 31.4197 17.6739 31.4197 17.7732C31.519 18.071 31.3204 18.2696 31.1218 18.4682ZM29.136 18.4682C29.3346 19.3618 29.0367 20.0569 28.441 20.5533C28.5403 20.5533 28.6396 20.6526 28.7388 20.6526C28.8381 20.6526 28.8381 20.6526 28.9374 20.6526H29.0367C29.136 20.5533 29.4339 20.2554 29.5332 20.0569V19.9576C29.5332 19.8583 29.5332 19.759 29.5332 19.6597C29.6325 19.4611 29.5332 19.3618 29.4339 19.2625C29.5332 19.2625 29.6325 19.3618 29.6325 19.3618C29.6325 19.1632 29.6325 18.9647 29.6325 18.7661C29.6325 18.7661 29.6325 18.7661 29.5332 18.7661C29.2353 18.6668 29.0367 18.4682 29.0367 18.2696C28.9374 18.071 29.0367 17.8725 29.136 17.6739C28.8381 17.5746 28.5403 17.7732 28.5403 18.071C28.5403 18.1703 28.7388 18.4682 29.136 18.4682ZM29.0367 19.1632C28.9374 19.0639 28.8381 19.0639 28.7388 19.0639C28.8381 19.1632 28.7388 19.4611 28.7388 19.6597L28.8381 19.759C28.9374 19.4611 29.0367 19.3618 29.0367 19.1632ZM29.2353 20.8512C29.4339 20.7519 29.6325 20.6526 29.6325 20.454C29.6325 20.3547 29.5332 20.1561 29.4339 20.0569C29.3346 20.3547 29.0367 20.5533 28.9374 20.7519C29.136 20.7519 29.2353 20.7519 29.2353 20.8512ZM28.441 21.149C28.3417 21.0498 28.3417 21.0498 28.3417 21.149C28.3417 21.2483 28.3417 21.2483 28.441 21.2483C28.5403 21.2483 28.5403 21.2483 28.441 21.149C28.5403 21.2483 28.5403 21.149 28.441 21.149C28.5403 21.149 28.5403 21.149 28.441 21.149ZM30.5261 25.3193C29.5332 25.3193 28.8381 24.7235 28.6396 24.1278C28.9374 24.8228 29.831 25.22 30.5261 25.22C30.6254 24.9221 32.3133 22.837 30.3275 21.2483C30.3275 21.3476 30.2282 21.3476 30.2282 21.4469C30.4268 21.6455 30.7247 21.9434 30.7247 22.6384C30.7247 21.9434 30.2282 21.5462 30.0296 21.3476C30.5261 21.4469 30.4268 20.2554 30.4268 20.2554C30.1289 20.0569 30.1289 19.4611 29.6325 19.2625C29.7318 19.3618 29.5332 19.6597 29.5332 19.8583C29.6325 20.0568 29.831 20.3547 29.831 20.3547C29.7318 20.5533 29.5332 20.7519 29.3346 20.8512C29.5332 21.0498 29.7318 21.149 29.831 21.3476C29.5332 21.2483 29.3346 21.4469 29.3346 21.4469C29.3346 21.4469 29.4339 21.2483 29.7318 21.2483C29.5332 21.0498 29.3346 20.8512 29.0367 20.7519C28.8381 20.6526 28.5403 20.7519 28.3417 20.5533C28.1431 20.7519 27.0509 21.2483 25.8594 21.0498C25.6608 21.0498 25.2637 20.9505 25.2637 20.9505V21.0498C25.2637 21.0498 25.4623 21.149 25.6608 21.0498C25.6608 21.149 25.4623 21.2483 25.363 21.149C25.5615 21.7448 27.1502 22.4398 28.1431 21.9434C28.0438 22.142 27.7459 22.2412 27.4481 22.2412C27.5474 22.2412 27.7459 22.3405 27.8452 22.4398C27.9445 22.5391 28.0438 22.5391 28.1431 22.5391C28.1431 22.4398 28.2424 22.3405 28.441 22.3405C28.6396 22.4398 28.8381 22.7377 29.3346 22.837C29.831 22.9363 30.2282 22.6384 30.3275 21.9434C30.2282 22.7377 29.7318 23.0356 29.3346 22.9363C29.3346 23.3334 29.0367 23.7306 28.7388 23.9292C28.5403 23.9292 28.3417 23.9292 28.2424 24.1278C28.441 24.7235 29.3346 25.7164 30.7247 25.6171C30.6254 25.6171 30.6254 25.4186 30.5261 25.3193ZM28.8381 21.4469C28.8381 21.3476 28.8381 21.3476 28.8381 21.4469C28.7388 21.3476 28.7388 21.3476 28.7388 21.3476L28.6396 21.2483V21.3476C28.6396 21.4469 28.5403 21.5462 28.441 21.4469C28.3417 21.3476 28.2424 21.3476 28.2424 21.2483C28.2424 21.0498 28.3417 21.0498 28.3417 21.0498C28.3417 21.0498 28.3417 21.0498 28.2424 21.0498C28.2424 21.0498 28.2424 21.0498 28.1431 21.0498H28.2424C28.2424 21.0498 28.3417 21.0498 28.3417 21.149L28.441 21.2483C28.441 21.2483 28.441 21.2483 28.441 21.3476C28.8381 21.3476 28.8381 21.3476 28.8381 21.4469C28.8381 21.3476 28.8381 21.3476 28.8381 21.4469C28.9374 21.4469 28.9374 21.4469 28.8381 21.4469C28.9374 21.4469 28.8381 21.4469 28.8381 21.4469Z" fill="white"/>
</svg>
