<svg width="85" height="71" viewBox="0 0 85 71" fill="none" xmlns="http://www.w3.org/2000/svg">
<path d="M20.5155 58.3604C17.613 54.1487 19.9934 47.7538 16.8835 43.6915C15.5962 42.0065 13.5859 41.0612 11.6526 40.1804C13.3472 38.0376 14.6832 35.6071 15.5971 33.0338C16.2974 34.6287 18.3211 35.3061 20.0359 34.9575C21.7427 34.6111 23.1805 33.4838 24.4575 32.2972C26.0197 30.8381 27.5527 28.9518 27.341 26.8251C27.2132 25.5204 26.4311 24.2885 26.6211 22.9924C26.7506 22.1389 27.29 21.4144 27.814 20.7281C29.5482 18.4468 31.2882 16.1554 33.0224 13.874C33.9941 12.5987 35.0586 11.2559 36.5832 10.7706C39.9666 9.71048 43.0436 13.3637 46.5799 13.6699C47.3665 13.7406 48.1661 13.6372 48.9247 13.8263C50.9275 14.3302 51.9119 16.5398 53.4811 17.8763C55.4578 19.5557 58.5644 19.977 59.768 22.2729C60.0941 22.8849 60.2398 23.5879 60.5738 24.1978C62.1241 27.0234 66.7375 26.7339 68.4501 29.4649C70.0149 31.9625 68.1369 35.2035 66.005 37.2417C60.7143 42.2927 53.6665 45.0511 46.6811 47.2469C39.6958 49.4428 32.5041 51.2504 26.1424 54.8825" fill="white"/>
<path d="M26.7544 29.8566C27.2401 29.5047 27.7454 29.1305 27.9841 28.5889C28.4805 27.4495 27.6384 26.2167 27.3005 25.0193C26.7548 23.1101 27.6687 20.8865 29.4028 19.9101C29.5354 19.8319 29.6961 19.7633 29.8405 19.7928C29.9949 19.8282 30.1071 19.9602 30.2091 20.0864C32.7953 23.3082 35.4043 26.5836 37.0507 30.3728C37.7016 31.8786 38.1982 33.6049 37.6184 35.1334C37.2317 36.1411 36.4297 36.9359 35.5836 37.5976C32.1416 40.2854 26.9178 41.3525 23.3988 38.1503C19.3788 34.511 23.7295 32.0317 26.7544 29.8566Z" fill="#BCBCBB"/>
<path d="M20.7669 36.9536L42.4447 33.4735L59.1133 28.1372L67.1058 24.5116L79.6484 39.1725L81.4175 46.0931L73.7185 51.9599L47.4303 61.7246L23.3369 66.5343L13.2804 64.7171L15.1758 41.0105L17.3958 41.5926L18.528 45.8181L19.0626 36.7365L20.7669 36.9536Z" fill="#EB584A"/>
<path d="M67.1057 24.5116C68.434 24.4712 69.3274 25.1956 70.0498 26.2046C72.1187 29.0874 74.1578 31.9868 76.2484 34.8552C77.3264 36.3319 78.4855 37.7612 79.6505 39.1804C80.934 40.7555 81.7512 42.5323 81.941 44.5455C81.9914 45.0523 81.7199 45.6623 81.4196 46.101C80.1323 47.9812 78.3173 49.2607 76.3944 50.4241C69.4253 54.654 61.8761 57.5468 54.1412 59.969C51.4495 60.8097 48.6716 61.3919 45.9379 62.1074C41.6105 63.2413 37.2718 64.3015 32.9786 65.5628C28.9081 66.7643 24.7657 66.4243 20.6298 66.5858C17.9957 66.6861 15.594 65.9991 13.2803 64.7171C12.3686 64.2109 12.0819 63.6821 12.0999 62.7306C12.146 59.1787 12.5186 55.6673 13.0371 52.1594C13.4061 49.6212 13.6689 47.0689 13.9859 44.5276C14.0353 44.1391 14.0119 43.7019 14.1702 43.3695C14.3131 43.0753 14.6921 42.6752 14.9442 42.693C15.2302 42.7101 15.6887 43.1161 15.7172 43.3814C15.787 44.0877 15.7375 44.8259 15.6115 45.5334C14.854 49.8047 14.5768 54.1179 14.4578 58.4484C14.4559 58.5683 14.5478 58.6887 14.6622 58.9565C17.8508 59.6203 21.1107 58.7042 24.3688 58.8632C27.6947 59.021 30.9221 58.4292 34.1414 57.7116C37.3289 57.0025 40.5052 56.2196 43.8251 55.7821C43.5541 55.9485 43.2965 56.1967 42.9999 56.2676C38.4602 57.3731 33.9392 58.5163 29.3733 59.4924C27.9217 59.8046 26.3741 59.6308 24.8686 59.7101C22.7142 59.8182 20.5662 59.9503 18.3221 60.074C18.2424 61.75 18.1773 63.2259 18.1042 64.7039C17.8578 63.2432 17.6215 61.7884 17.3623 60.28C16.7807 60.2738 16.3343 60.2313 15.8913 60.2648C15.3903 60.3052 14.8906 60.4135 14.4221 60.4793C14.0647 62.9973 14.2185 63.3484 16.2595 64.2173C16.8372 64.4634 17.5054 64.5061 18.1291 64.6375C18.9852 64.809 19.8436 64.9884 21.0326 65.2242C20.7555 63.84 20.5548 62.8362 20.3562 61.8403C20.4416 61.8089 20.5211 61.7876 20.6065 61.7562C20.9309 62.7439 21.2574 63.7396 21.6159 64.8546C23.8779 65.0844 26.1616 64.8221 28.3963 64.3769C32.3298 63.5873 36.2436 62.6921 40.1339 61.7094C43.065 60.9667 45.9407 60.017 48.8334 59.1311C52.1675 58.1098 55.5373 57.1898 58.8107 56.0056C63.3195 54.371 67.8293 52.6765 72.2088 50.7183C74.464 49.7132 76.4819 48.1405 78.5446 46.7349C79.3309 46.2001 80.5166 45.4048 80.5152 44.7314C80.5094 43.4365 80.0296 41.9958 79.3192 40.8726C77.7816 38.4445 75.9592 36.195 74.3049 33.8408C72.833 31.7533 71.422 29.6067 69.9559 27.5091C69.4461 26.7843 68.8515 26.1249 67.8456 26.7952L67.8939 26.8164C68.2371 25.8374 67.4335 25.2255 67.1428 24.459L67.1057 24.5116Z" fill="black"/>
<path d="M20.0124 35.8254C18.2895 35.5706 16.1894 30.9477 15.837 29.6007C15.639 29.5941 15.2064 28.1066 15.0179 28.0718C14.8374 28.0348 14.9028 29.4246 14.7377 29.3494C14.6994 29.3341 14.6591 29.3108 14.6208 29.2955C14.6135 29.3316 14.596 29.3618 14.5886 29.3979C14.7313 30.2808 15.0257 34.5943 14.5273 35.3761C13.5988 36.8445 12.7127 38.3442 11.7032 39.9879C13.0628 40.3827 14.1404 40.6483 15.1836 41.0085C16.7938 41.5749 17.8568 42.5182 17.8316 44.4611C17.8147 45.4805 17.8926 46.6623 18.8372 47.5776C19.7173 46.4377 19.551 45.3394 19.219 44.2599C18.7204 42.6536 18.6452 41.0362 18.9171 39.3769C19.1036 38.2267 19.39 37.1948 20.7726 36.9437C21.0177 36.9036 21.2255 36.6603 21.3284 36.5986C20.9458 36.1894 20.8814 36.0446 20.7789 36.0123C20.5257 35.9267 20.2688 35.859 20.0124 35.8254ZM17.5905 40.8241C16.0934 40.3297 14.6266 39.8528 12.9246 39.2939C13.9744 37.6735 14.8998 36.2571 15.9773 34.6123C16.7852 35.2402 17.5729 35.8564 18.4132 36.5098C18.138 37.9652 17.8716 39.3586 17.5905 40.8241Z" fill="black"/>
<path d="M66.6917 23.4115C66.5558 23.4138 66.4237 23.398 66.2899 23.4083C66.1944 23.4338 66.099 23.4594 66.0056 23.493C65.6269 23.6712 65.2604 23.8632 64.8876 24.0314C64.5416 24.4908 64.1106 24.8878 63.6143 25.1999C59.5523 27.7382 55.0645 29.1966 50.458 30.3712C49.6363 30.5828 48.8279 30.8762 48.0104 31.1038C46.6199 31.4849 45.23 31.8999 43.8161 32.1935C41.948 32.5746 40.0197 32.699 38.1894 33.1894C33.9162 34.3344 29.6124 35.2062 25.1981 35.5702C24.1963 35.651 23.0671 35.7659 21.9474 36.68C22.5855 36.8332 22.9423 37.019 23.2734 36.9815C26.0177 36.6555 28.7903 36.467 31.4886 35.906C37.9326 34.5546 44.3462 33.0579 50.7519 31.5632C52.4777 31.1605 54.1709 30.6045 55.8541 30.0426C59.8464 28.7084 63.6067 26.8906 67.0878 24.5079C66.8836 24.1277 66.7637 23.776 66.6917 23.4115Z" fill="black"/>
<path d="M42.7094 45.4113C41.459 44.3732 40.6589 43.6153 39.757 42.987C38.9078 42.3958 38.0022 41.7855 37.0318 41.4741C35.8564 41.0982 35.2623 41.7776 35.5944 42.9851C36.0565 44.6779 36.8946 46.1506 38.4119 47.1343C39.6223 47.9272 40.8581 48.6878 42.0685 49.4808C42.4626 49.742 42.818 50.0817 43.1888 50.3832C43.1289 50.5101 43.0713 50.645 43.0194 50.7697C42.6309 50.7203 42.1682 50.7761 41.8634 50.5933C40.5108 49.7788 39.1873 48.9138 37.8834 48.0264C36.1005 46.8154 35.2301 44.9676 34.5935 43.0059C33.9741 41.1079 35.1655 39.8249 37.1053 40.3798C38.0932 40.6609 39.0003 41.2451 39.9004 41.7716C40.4979 42.1232 41.0079 42.6262 41.6905 43.1683C42.5138 41.1481 43.6944 39.6974 45.4106 38.7173C47.6888 37.416 49.1988 38.086 49.609 40.731C49.9069 42.6384 49.7538 44.5814 48.9583 46.3553C48.1263 48.2158 47.1291 50.0012 46.14 51.7844C45.9732 52.0849 45.4978 52.2208 45.1616 52.4303C45.058 52.3302 44.9443 52.2242 44.8407 52.124C45.5806 50.8426 46.3124 49.5633 47.0645 48.2956C48.1645 46.4486 48.8871 44.4981 48.8144 42.317C48.7717 41.2027 48.8334 40.0006 47.6736 39.3647C46.8627 38.9167 44.9585 39.6401 44.2179 40.7597C43.6898 41.5579 43.4123 42.5278 43.0881 43.4505C42.912 43.9071 42.8866 44.4171 42.7094 45.4113Z" fill="white"/>
<path d="M50.807 52.905C51.6087 51.8544 52.8648 51.4495 54.0302 50.9923C55.6183 50.3621 57.2442 49.8411 58.8701 49.3202C64.1096 47.6433 68.8321 44.928 73.4843 42.078C74.6928 41.3363 75.7988 40.4344 77.1021 39.5052C77.4008 40.3974 77.0155 40.7736 76.604 41.0203C72.8516 43.3137 69.1924 45.7952 65.2789 47.7735C61.9578 49.4481 58.3308 50.5223 54.8442 51.8659C53.5776 52.3588 52.3029 52.8539 51.0363 53.3468C50.9618 53.1962 50.8895 53.0535 50.807 52.905Z" fill="black"/>
<path d="M69.6729 29.0947C68.2799 30.0393 66.8848 30.9761 65.3397 32.0212C66.2501 30.5491 67.6918 29.5317 69.6729 29.0947Z" fill="black"/>
<path d="M67.8457 26.7954C66.7817 27.6946 65.7421 28.6213 64.4937 29.2458C64.4155 29.1133 64.3315 28.9908 64.2533 28.8582C65.4609 28.1764 66.6764 27.4925 67.894 26.8166L67.8457 26.7954Z" fill="black"/>
<path d="M20.2604 37.6097C21.7755 35.8476 23.3089 34.345 26.2038 35.2495C26.6091 33.8019 26.6217 33.7217 25.4987 33.6047C24.5237 33.4992 23.5054 33.5503 22.3941 33.5411C22.7858 32.2335 23.8643 31.484 25.2228 30.9835C26.5356 30.5038 27.8985 30.1471 29.23 29.7051C29.7387 29.5347 30.2261 29.2847 30.8371 29.0186C30.1414 28.5227 29.5864 28.2023 29.1301 27.8043C28.0512 26.8652 28.0709 26.4932 29.2593 25.3901C29.8652 24.8184 30.5136 24.2779 31.1418 23.7258C31.0446 23.6494 30.9452 23.5652 30.848 23.4889C29.8204 24.1736 28.7928 24.8584 27.6151 25.6516C27.304 23.7903 29.82 23.4402 30.5898 21.9205C29.3229 22.6353 28.3646 23.165 27.3135 23.7622C26.9218 21.5046 28.0102 19.6778 29.7059 18.0805C30.6245 17.2118 32.2638 16.7725 32.9919 15.861C33.7178 14.9415 33.6606 13.6775 34.0578 12.5817C34.6936 10.8164 36.5922 10.7086 37.9566 11.1532C38.7704 11.4213 39.4328 11.9517 40.1121 12.4179C40.4579 12.6579 40.6934 12.9957 40.9782 13.2946C41.444 13.1869 41.8149 13.1387 42.1607 13.0289C43.6774 12.5458 44.9904 12.6716 46.2309 13.3541C48.9195 14.8257 51.0937 16.6056 51.7837 19.3718C51.893 19.8116 52.1557 20.2188 52.4061 20.6123C52.4779 20.721 52.7597 20.7222 53.0548 20.8052C53.327 20.357 53.5738 19.9412 53.9138 19.3639C55.7556 20.0304 57.6862 20.5195 58.5154 22.0542C59.3898 23.6622 58.5793 25.3805 57.5688 27.0841C57.8883 27.0667 58.133 27.1206 58.2916 27.044C59.7767 26.3475 61.1525 26.1665 62.4958 26.3098C62.9848 26.0338 63.4966 25.8113 64.0212 25.6366C62.7956 25.3595 61.4639 25.1961 60.0693 25.2115C59.9945 23.5002 60.4151 21.5367 58.7325 20.35C57.2257 19.2782 55.6508 18.0797 52.9651 18.5605C51.7989 15.6405 49.6471 13.5305 46.4906 12.1587C45.9007 11.8989 45.0872 11.5369 44.5323 11.6941C42.2576 12.3718 40.8339 11.6104 39.4348 10.5269C39.0237 10.202 38.3358 10.0537 37.7227 9.96214C35.0444 9.57954 33.7965 10.238 32.853 12.4781C32.6609 12.9389 32.445 13.4062 32.349 13.8754C32.1865 14.6695 31.6356 15.0645 30.7902 15.5383C27.7907 17.2035 25.7614 19.4018 25.455 22.3326C25.2352 24.4726 25.2844 26.5661 26.3428 28.5426C25.5753 28.8933 24.874 29.1409 24.2806 29.5046C22.1744 30.811 20.1005 32.1428 20.391 34.5639C20.4398 34.9688 20.1491 35.5073 19.8359 35.8982C19.3897 36.4613 19.0094 37.0152 18.8111 37.5801C19.2871 37.6061 19.7748 37.6118 20.2604 37.6097Z" fill="black"/>
<path d="M36.3097 20.7632C36.0175 19.5451 36.4864 18.558 37.2197 18.4298C38.0108 18.2946 38.5102 18.7578 38.7005 19.5C38.9362 20.4432 38.3705 20.9104 37.6013 21.1591C36.9414 21.3701 36.4662 21.1563 36.3097 20.7632Z" fill="black"/>
<path d="M31.6566 30.1039C32.3244 29.4132 32.5193 28.1669 33.7265 29.0119C34.3453 29.4432 34.4146 30.5931 33.8722 31.0198C32.9173 31.7533 32.2963 31.1862 31.6566 30.1039Z" fill="black"/>
<path d="M47.1991 25.1803C47.3814 24.0141 47.8653 23.5604 48.7131 23.8279C48.9823 23.9093 49.3541 24.6284 49.2556 24.8339C48.8486 25.7021 48.1191 25.4625 47.1991 25.1803Z" fill="black"/>
</svg>
