<svg width="56" height="59" viewBox="0 0 56 59" fill="none" xmlns="http://www.w3.org/2000/svg">
<path d="M6.99845 36.267C6.57181 37.2531 6.23535 38.3302 6.45922 39.3806C6.60535 40.0487 6.96635 40.6593 7.39175 41.2033C8.67205 42.8506 10.4911 43.9917 12.2672 45.0949C18.2943 48.8341 24.4884 52.6438 31.4431 54.0126C32.0599 54.1352 32.7437 54.2316 33.2955 53.9275C33.6908 53.7146 33.9559 53.3228 34.2098 52.9505C38.3623 46.7468 41.5561 39.9117 43.6575 32.7443C43.7976 32.2544 43.9336 31.7491 43.8578 31.2513C43.7151 30.4424 43.0363 29.843 42.3766 29.3453C38.4602 26.3317 34.0911 23.9001 29.4583 22.1723C26.5339 21.0807 23.5236 19.5762 20.5269 18.7672C18.6451 18.2515 16.6823 18.4156 15.2696 19.8962C13.4634 21.8113 13.3014 25.0129 12.1957 27.3324C10.7103 30.4446 8.38248 33.0833 6.99845 36.267Z" fill="white"/>
<path d="M12.5338 25.0626C11.1962 29.4018 9.18639 33.5344 6.60145 37.2702C5.687 38.5844 4.67736 40.3107 5.5479 41.6566C5.87038 42.1541 6.40964 42.4784 6.92532 42.7761C9.51907 44.2607 12.1956 45.6243 14.9369 46.8308C15.5252 47.0926 16.1846 47.3436 16.7959 47.1387C17.7254 46.8321 18.0162 45.6767 18.0498 44.6972C18.1654 41.2612 16.8786 37.9625 16.0476 34.6157C15.3317 31.6986 14.9535 28.6911 14.9377 25.6851C14.928 24.4211 15.6369 20.7439 14.1665 20.1674C13.248 21.4663 12.9976 23.5402 12.5338 25.0626Z" fill="#BCBCBB"/>
<path d="M14.5515 15.6805C16.637 14.8997 18.5924 15.7821 20.5346 16.7997C22.6965 17.9312 24.8881 18.9889 27.3997 19.8292C27.158 19.3265 26.9625 18.8114 26.6789 18.3363C25.3154 15.9793 23.9728 13.6085 23.5084 10.8625C23.4976 10.7914 23.4811 10.73 23.4703 10.6589C23.0324 8.2266 23.4471 7.10385 25.0103 6.55339C27.3495 5.73744 29.3907 6.44887 30.3681 8.531C30.7118 9.26136 30.8586 10.0856 31.0837 10.8642C31.6999 13.0102 32.3104 15.166 33.0114 17.6594C33.8934 17.0529 34.6145 16.613 35.2689 16.1086C37.4321 14.4516 39.7894 13.3347 42.5629 13.2495C43.1734 13.2257 43.7906 13.2578 44.3879 13.3691C47.1392 13.9067 47.8673 15.9487 46.1377 18.1805C44.8986 19.7873 43.0853 20.4788 41.259 20.9681C39.0336 21.5644 36.7384 21.8998 34.4816 22.3482C34.0437 22.4327 33.6016 22.5018 32.7983 22.6348C36.9485 26.0298 41.7484 27.4907 45.7272 30.5533C45.3863 31.7057 45.1763 32.8558 44.7216 33.8906C43.7938 36.0144 42.8076 38.1045 41.7088 40.1426C41.1874 41.1129 40.583 41.9575 41.4821 43.1641C39.7086 43.3597 39.0499 44.5232 38.4383 45.7398C37.0802 48.4066 35.6971 51.0718 34.3196 53.7274C32.4923 57.2519 32.0096 56.7397 29.2154 55.827C26.4407 54.9256 23.7731 53.7487 21.3674 51.9835C20.0131 50.9811 18.4571 50.2384 16.9654 49.4291C14.8357 48.2643 12.682 47.1636 10.5466 46.0086C8.93256 45.1416 7.32564 44.2398 5.70748 43.3574C3.30943 42.0507 3.11505 41.2639 4.1852 38.7812C5.95805 34.6544 7.62237 30.491 9.33122 26.3402C9.43685 26.0899 9.49383 25.8114 9.61892 25.5723C11.2193 22.306 12.8601 19.037 14.5515 15.6805ZM26.7909 47.3309C26.8208 47.5039 26.8563 47.6671 26.8959 47.8456C24.9472 48.2773 22.8818 48.3043 21.0475 49.3469C21.6976 50.4228 22.4324 50.3411 23.3731 50.015C25.2852 49.3546 26.2146 49.3852 27.8369 49.9457C27.0659 50.0454 26.3786 50.0897 25.7202 50.2415C25.0157 50.4056 24.3344 50.6868 23.338 51.0196C23.9891 51.5771 24.3396 52.026 24.7861 52.2189C26.4691 52.9441 28.1393 53.7138 29.8901 54.2316C31.883 54.8244 32.3678 54.5465 33.3318 52.7419C34.8018 49.9711 36.2369 47.1932 37.6777 44.4056C37.9223 43.937 38.064 43.4221 38.3277 42.7181C35.7882 41.2519 33.4123 39.6597 30.8466 38.4637C28.2516 37.2509 25.8668 35.4719 22.9082 34.8665C21.7612 37.707 20.657 40.3387 19.6264 42.9999C19.1372 44.2743 18.737 45.574 18.3661 46.8907C18.0389 48.064 18.5837 48.7158 19.802 48.6279C20.2774 48.591 20.7311 48.4118 21.2039 48.3345C23.0728 47.9735 24.929 47.6571 26.7909 47.3309ZM39.278 41.4765C41.6834 38.636 42.9133 35.3374 43.9511 31.9668C44.0628 31.6162 43.8523 31.0146 43.5832 30.7166C43.1451 30.2171 42.5771 29.7854 41.9877 29.4581C38.5029 27.4721 35.0069 25.5056 31.4884 23.5779C30.7474 23.1761 29.9038 22.9744 28.9285 22.6189C27.0922 26.2939 25.357 29.7937 23.5615 33.3755C26.3046 34.8036 28.986 36.0014 31.4611 37.5342C33.9556 39.0782 36.4802 40.4579 39.278 41.4765ZM16.8931 47.1949C17.9816 42.4784 20.5842 38.5323 21.5226 33.7162C17.8397 32.0958 14.8788 29.1799 10.5931 28.379C8.31756 32.4102 7.20263 36.813 5.74033 41.3007C9.47368 43.1707 12.6921 45.8203 16.8931 47.1949ZM17.5855 26.2669C17.5949 26.3631 17.5986 26.469 17.6079 26.5652C16.1215 26.7579 14.6407 26.9408 13.1544 27.1335C13.1453 27.2839 13.121 27.4385 13.1119 27.589C15.8071 29.145 18.4925 30.6954 21.1877 32.2515C22.0342 32.7402 22.5725 32.3246 23.0384 31.6076C25.0126 28.5701 26.0647 25.1299 27.6311 21.6753C23.8105 20.0014 20.5104 17.5382 16.4477 16.7105C15.4 19.4915 13.1659 21.406 12.361 24.4181C13.305 24.2885 14.0162 24.1802 14.7356 24.1026C15.3839 24.0358 16.042 23.6374 17.0031 24.0625C12.3656 25.264 12.1589 25.3523 11.5916 26.335C13.4911 26.303 15.5411 26.2801 17.5855 26.2669ZM32.8774 21.1496C33.0286 21.3147 33.1797 21.4798 33.3365 21.6352C37.0006 21.2209 40.6954 20.7984 43.9707 18.8105C44.6708 18.3844 45.2388 17.5577 45.6018 16.7943C46.2138 15.4871 45.662 14.5328 44.26 14.2423C43.6683 14.1212 43.047 14.0739 42.4462 14.1032C38.6201 14.2813 35.926 16.5659 33.4563 19.1357C33.0265 19.5881 33.0491 20.4703 32.8774 21.1496ZM30.1619 20.1007C31.7495 19.3957 31.7487 18.3185 31.4582 17.2037C30.8227 14.7092 30.1468 12.2173 29.4709 9.72546C29.401 9.46455 29.2641 9.22983 29.1481 8.98126C28.8279 8.27749 28.255 8.01156 27.4997 8.01655C25.6922 8.02384 24.658 9.3208 25.0209 11.0741C25.6087 13.9433 27.2747 16.2932 28.6921 18.7591C29.0213 19.3125 29.665 19.6581 30.1619 20.1007Z" fill="black"/>
</svg>
