<svg width="22" height="22" viewBox="0 0 22 22" fill="none" xmlns="http://www.w3.org/2000/svg">
<path d="M10.3547 0.577182C10.5042 0.0960125 11.1852 0.0960126 11.3347 0.577182L13.5235 7.6219C13.5901 7.83652 13.7887 7.98278 14.0135 7.98278H21.1435C21.635 7.98278 21.8453 8.60711 21.454 8.90446L15.6467 13.3169C15.4748 13.4475 15.4031 13.6717 15.4671 13.8778L17.6758 20.987C17.824 21.4638 17.273 21.8499 16.8754 21.5478L11.1552 17.2014C10.9717 17.062 10.7178 17.062 10.5343 17.2014L4.81404 21.5478C4.41648 21.8499 3.86545 21.4638 4.01359 20.987L6.22236 13.8778C6.28639 13.6717 6.21462 13.4475 6.04278 13.3169L0.235489 8.90446C-0.155851 8.60711 0.0544319 7.98278 0.545922 7.98278H7.67597C7.90071 7.98278 8.0993 7.83652 8.16598 7.6219L10.3547 0.577182Z" fill="#F7BE45"/>
</svg>
