<svg width="136" height="136" viewBox="0 0 136 136" fill="none" xmlns="http://www.w3.org/2000/svg">
<path d="M105.101 50.4992C104.801 50.7992 104.601 50.8992 104.601 50.9992C104.601 50.7992 104.501 50.6992 104.501 50.5992C104.501 50.2992 104.101 49.9992 103.901 49.8992C103.601 49.7992 103.401 49.8992 103.101 49.8992C100.001 50.0992 96.8008 50.1992 93.8008 50.3992C92.8008 50.4992 91.7008 50.4992 90.7008 50.4992V51.1992C90.5008 51.0992 90.2008 51.0992 90.2008 51.0992V50.1992C89.9008 47.5992 89.6008 44.1992 88.1008 40.9992C87.0008 38.5992 85.7008 36.6992 84.0008 35.3992C83.4008 34.8992 82.6008 34.2992 82.0008 33.8992L81.6008 33.5992H81.4008C81.3008 33.5992 81.2008 33.5992 81.2008 33.4992C80.7008 33.3992 80.5008 33.1992 80.2008 32.9992H80.1008C79.8008 32.8992 79.6008 32.7992 79.4008 32.7992C78.9008 32.5992 78.4008 32.4992 77.9008 32.2992C75.4008 31.1992 72.8008 30.6992 70.4008 30.6992C69.9008 30.6992 69.3008 30.6992 68.8008 30.7992C68.4008 30.7992 68.0008 30.8992 67.6008 30.8992C66.9008 30.8992 66.1008 30.9992 65.5008 31.0992C64.1008 31.3992 63.2008 31.5992 62.1008 31.6992L61.7008 31.7992C61.2008 31.8992 60.6008 32.1992 60.1008 32.3992C59.6008 32.6992 59.0008 32.8992 58.5008 32.8992H58.4008C58.3008 32.8992 58.2008 32.9992 58.1008 32.9992C58.0008 32.9992 57.9008 33.0992 57.9008 33.0992C57.9008 33.0992 57.8008 33.0992 57.8008 33.1992C57.6008 33.2992 57.5008 33.4992 57.4008 33.5992C57.4008 33.5992 57.4008 33.5992 57.3008 33.5992H57.2008C56.9008 33.7992 56.7008 33.9992 56.5008 34.0992C55.2008 35.0992 54.1008 35.9992 53.1008 37.1992C51.4008 39.1992 49.5008 41.6992 48.5008 44.8992C48.0008 46.6992 47.6008 48.5992 47.5008 50.6992V50.9992C44.3008 51.1992 40.5008 51.3992 37.3008 51.4992C35.8008 51.5992 34.3008 51.9992 33.1008 52.9992C33.0008 56.1992 32.8008 59.2992 32.8008 62.2992C32.8008 65.7992 33.0008 69.3992 32.8008 72.8992C32.3008 80.2992 32.5008 75.0992 32.0008 82.4992C31.5008 88.7992 31.1008 95.1992 30.7008 101.499C30.6008 102.999 30.6008 104.399 30.6008 105.899C30.5008 110.299 30.3008 111.299 30.3008 115.699C30.3008 117.399 30.6008 119.099 30.7008 120.999C33.7008 120.999 36.4008 121.099 39.1008 121.099C44.6008 120.999 50.2008 120.199 55.8008 120.599C60.2008 120.899 64.8008 120.799 69.3008 120.799H99.3008C99.8008 120.799 100.401 120.899 100.701 119.999C101.001 119.899 101.301 119.699 101.401 119.499C101.701 118.799 102.001 115.799 102.001 114.999C102.201 111.399 102.401 107.699 102.401 104.099C102.301 95.9992 102.801 91.5992 103.101 83.5992C103.401 76.5992 103.601 82.1992 103.701 75.2992C103.801 72.6992 104.201 64.9992 104.201 63.6992C104.201 60.7992 104.501 55.2992 105.001 52.3992C105.401 51.8992 105.201 51.3992 105.101 50.4992Z" fill="white"/>
<path d="M89.9004 51.8998C88.4004 56.1998 88.9004 60.7998 86.8004 64.6998C85.3004 67.3998 83.1004 69.4998 80.4004 70.6998C80.9004 70.4998 81.6004 70.2998 82.1004 70.1998C83.2004 69.7998 84.3004 69.4998 85.4004 68.9998C87.7004 67.8998 89.2004 65.4998 90.5004 63.1998C92.4004 59.8998 92.5004 56.9998 92.9004 53.1998C92.9004 52.8998 93.1004 51.6998 93.0004 51.5998C92.6004 51.4998 92.6004 51.8998 92.3004 51.7998C92.0004 51.7998 91.8004 51.5998 91.7004 51.4998C91.6004 51.3998 90.4004 51.1998 90.3004 51.0998C89.8004 50.8998 90.0004 51.5998 89.9004 51.8998Z" fill="#BCBCBB"/>
<path d="M84.2008 47.0999C83.9008 47.4999 83.8008 47.8 83.7008 48.2C82.6008 52.5 81.1008 56.6 78.4008 60.2C77.7008 61.2 76.9008 62.0999 75.8008 62.5999C74.2008 63.4999 72.3008 63.4999 70.6008 64.0999C69.9008 64.3999 69.2008 64.7999 68.5008 65.0999C67.4008 65.5999 66.2008 65.6 65.1008 66C64.0008 66.4 62.8008 66.9999 62.4008 68.0999C62.3008 68.2999 62.3008 68.4999 62.3008 68.5999C62.4008 68.9999 62.8008 69.0999 63.0008 69.0999C68.7008 70.6999 75.2008 69.3999 79.8008 65.6999C84.4008 61.9999 87.1008 55.9999 86.8008 50.0999C86.7008 48.9999 86.2008 48.2999 85.9008 47.2999C85.6008 46.4999 84.7008 46.3999 84.2008 47.0999Z" fill="#BCBCBB"/>
<path d="M73.9004 113.3C73.2004 112.3 72.1004 111.7 70.9004 111.1C62.5004 106.9 53.4004 103.8 46.1004 97.9C41.9004 94.5 38.2004 89.9 32.9004 89C32.1004 93.3 31.4004 97.5 30.9004 101.9C31.6004 105.2 30.8004 108.4 31.6004 111.6C32.1004 113.8 30.5004 118.1 32.0004 119.8C32.1004 121.7 44.3004 120.5 49.1004 120.3C53.1004 120.1 57.1004 120.7 61.2004 120.4C64.6004 120.6 72.4004 121 75.2004 120.2C78.6004 120.3 76.0004 116.1 73.9004 113.3Z" fill="#BCBCBB"/>
<path d="M85.2008 26.9996C84.9008 26.4996 84.7008 26.4996 84.7008 26.3996C84.3008 22.9996 84.1008 19.4996 83.7008 16.0996C83.6008 15.3996 83.4008 14.5996 84.6008 14.0996C85.6008 18.1996 86.6008 22.2996 85.2008 26.9996Z" fill="#EB584A"/>
<path d="M98.101 19.8994C97.801 20.5994 97.701 21.2994 97.501 21.3994C94.601 23.7994 92.301 26.7994 89.901 29.6994C89.401 28.9994 89.501 28.2994 89.901 27.8994C92.301 25.2994 94.101 22.1994 97.101 20.0994C97.201 19.9994 97.401 19.9994 98.101 19.8994Z" fill="#EB584A"/>
<path d="M91.6016 33.0995C93.6016 31.5995 102.102 31.5995 104.802 33.5995C104.002 33.6995 103.402 33.8995 103.002 33.8995C101.702 33.7995 100.502 33.4995 99.1016 33.3995C96.6016 33.2995 94.2016 33.1995 91.6016 33.0995Z" fill="#EB584A"/>
<path d="M85.6 119.899C81.8 119.899 77.9 119.999 74.1 119.899C69.3 119.799 64.4 119.699 59.5 119.599C54.6 119.499 49.8 119.299 45 119.899C42 120.199 38.9 120.099 35.8 120.199C34.8 120.199 33.9 119.999 32.7 119.799C33.2 118.799 33.4 118.099 33.7 117.399C34.5 117.299 35.2 117.199 36 117.199C41.4 117.299 46.9 117.199 52.3 117.299C58.1 117.499 63.9 117.699 69.7 117.699C74.1 117.799 78.5 117.599 82.9 117.499C87.4 117.399 92.1 117.399 96.6 117.299C97.3 117.299 98.1 117.399 99 116.399C98.2 116.399 97.6 116.099 97.1 116.099C93.7 116.199 90.2 116.199 86.8 116.299C82.9 116.399 78.9 116.399 75 116.499C68 116.699 61.2 116.699 54.3 116.299C47.9 115.999 41.3 115.799 34.9 116.099C34.5 116.099 34.2 115.999 33.8 115.999C33.1 114.099 33.3 112.099 33.3 110.099C33.5 104.399 33.8 102.299 33.9 96.5994C34 93.0994 34.2 89.4994 34.3 85.9994C34.4 83.5994 34.4 81.3994 34.6 78.9994C35.1 73.2994 34.8 80.2994 35.2 74.5994C35.3 73.0994 35.8 71.7994 36.9 70.7994C37.8 69.8994 38.7 68.9994 39.6 68.0994C39.6 67.9994 39.6 67.9994 39.5 67.9994C38.3 68.8994 37.1 69.8994 35.7 70.9994C34.9 68.1994 37.6 67.3994 38.5 65.2994C37.4 66.1994 36.5 66.8994 35.3 67.8994C35.2 62.7994 34.7 58.0994 35.4 53.2994C36.6 53.0994 37.6 52.8994 38.6 52.7994C41.3 52.6994 44.1 52.4994 46.9 52.3994C46.9 52.1994 47 51.9994 47 51.8994C47 51.6994 47.1 51.4994 47.1 51.3994C47.1 51.3994 47.1 51.3994 47.1 51.2994V51.1994C47.1 51.0994 47.1 50.9994 47.1 50.8994C43.9 51.0994 40.8 51.2994 37.5 51.3994C36 51.4994 34.5 51.8994 33.3 52.8994C33.2 56.0994 33 59.1994 33 62.1994C33 65.6994 33.2 69.2994 33 72.7994C32.5 80.1994 32.7 74.9994 32.2 82.3994C31.7 88.6994 31.3 95.0994 30.9 101.399C30.8 102.899 30.8 104.299 30.8 105.799C30.7 110.199 30.5 111.199 30.5 115.599C30.5 117.299 30.8 118.999 30.9 120.899C33.9 120.899 36.6 120.999 39.3 120.999C44.8 120.899 50.4 120.099 56 120.499C60.4 120.799 65 120.699 69.5 120.699C74.6 120.699 79.7 120.699 84.7 120.699C89.6 120.699 94.6 120.699 99.5 120.699C100 120.699 100.7 120.799 100.9 119.799C100.2 119.699 99.4 119.599 98.7 119.599C94.5 119.799 90.1 119.899 85.6 119.899Z" fill="black"/>
<path d="M103.901 49.8999C103.601 49.7999 103.401 49.8999 103.101 49.8999C100.001 50.0999 96.8012 50.1999 93.8012 50.3999C92.8012 50.4999 91.7012 50.4999 90.7012 50.4999C90.7012 50.7999 90.7012 51.0999 90.7012 51.3999C90.7012 51.4999 90.7012 51.5999 90.7012 51.6999V51.7999C90.7012 51.7999 90.7012 51.7999 90.7012 51.8999C94.8012 51.8999 98.9012 51.7999 102.901 51.5999C103.301 51.5999 103.601 51.5999 104.001 51.4999C104.301 51.3999 104.501 50.9999 104.501 50.6999C104.501 50.3999 104.101 49.9999 103.901 49.8999Z" fill="black"/>
<path d="M105.102 50.5C105.202 51.3 105.402 51.9 105.302 52.3C104.802 55.2 104.502 60.7 104.502 63.6C104.502 64.9 104.002 72.6 104.002 75.2C103.802 82.2 103.602 76.6 103.402 83.5C103.002 91.5 102.602 95.9 102.702 104C102.702 107.6 102.502 111.3 102.302 114.9C102.302 115.7 102.202 116.5 101.902 117.3C101.802 117.5 101.402 117.7 101.102 117.8C101.202 114 101.502 110.3 101.502 106.6C101.602 98.2 101.802 93.5 102.202 85C102.602 77.3 102.602 82.2 102.902 74.5C103.002 72 103.402 63.5 103.302 61.8C103.202 59.1 103.802 53.8 104.502 51.2C104.402 51.1 104.702 51 105.102 50.5Z" fill="black"/>
<path d="M94.7012 111.3C96.4012 110.2 98.1012 109.1 99.8012 108.1C98.5012 110 96.3012 111.5 94.7012 111.3Z" fill="black"/>
<path d="M95.1016 108.899C96.7016 107.499 98.0016 105.499 100.502 105.399C99.6016 105.999 98.7016 106.699 97.9016 107.299C97.1016 107.899 96.3016 108.799 95.5016 109.499C95.3016 109.199 95.2016 109.099 95.1016 108.899Z" fill="black"/>
<path d="M78.6012 89.6C78.5012 89.9 78.5012 90 78.5012 90C78.4012 90.1 78.3012 90.2 78.2012 90.2C78.0012 90.3 77.8012 90.3 77.7012 90.3C71.0012 90.1 64.3012 89 57.6012 89.7C57.5012 89.7 57.4012 89.5 57.2012 89.2C57.7012 89 58.1012 88.9 58.6012 88.8C62.0012 88.3 65.2012 88.6 68.6012 88.8C71.8012 89 75.0012 89.2 78.2012 89.3C78.2012 89.4 78.3012 89.5 78.6012 89.6Z" fill="black"/>
<path d="M76.8 98.7998C74.4 97.7998 72 98.2998 69.7 98.1998C66.2 98.0998 62.6 98.1998 59.1 98.1998C58.7 98.1998 58.5 98.0998 58 97.6998C58.4 97.5998 58.6 97.2998 59 97.2998C64.4 97.2998 69.8 97.3998 75.2 97.4998C75.9 97.4998 76.7 97.5998 76.8 98.7998Z" fill="black"/>
<path d="M75.1016 81.9996C74.9016 82.0996 74.6016 82.2996 74.5016 82.2996C70.1016 82.1996 65.6016 82.0996 61.2016 81.8996C61.2016 81.6996 61.2016 81.5996 61.1016 81.3996C61.6016 81.2996 61.9016 81.0996 62.4016 81.0996C65.1016 81.0996 67.8016 81.0996 70.5016 81.0996C71.9016 81.0996 73.1016 81.1996 74.5016 81.2996C74.8016 81.2996 75.0016 81.3996 75.3016 81.4996C75.1016 81.6996 75.1016 81.7996 75.1016 81.9996Z" fill="black"/>
<path d="M90.2016 52.3992C90.2016 52.2992 90.2016 52.2992 90.2016 52.1992C90.2016 51.9992 90.2016 51.7992 90.2016 51.6992C90.2016 51.5992 90.2016 51.5992 90.2016 51.4992C90.2016 51.3992 90.2016 51.2992 90.2016 51.2992C90.2016 50.8992 90.2016 50.5992 90.2016 50.1992C89.9016 47.5992 89.6016 44.1992 88.1016 40.9992C87.0016 38.5992 85.7016 36.6992 84.0016 35.3992C83.4016 34.8992 82.6016 34.2992 82.0016 33.8992L81.6016 33.5992H81.5016H81.4016C81.3016 33.5992 81.2016 33.5992 81.2016 33.4992C80.7016 33.3992 80.5016 33.1992 80.2016 32.9992H80.1016C79.8016 32.8992 79.6016 32.7992 79.4016 32.7992C78.9016 32.5992 78.4016 32.4992 77.9016 32.2992C75.4016 31.1992 72.8016 30.6992 70.4016 30.6992C69.9016 30.6992 69.3016 30.6992 68.8016 30.7992C68.4016 30.7992 68.0016 30.8992 67.6016 30.8992C66.9016 30.8992 66.1016 30.9992 65.5016 31.0992C64.1016 31.3992 63.2016 31.5992 62.1016 31.6992L61.7016 31.7992C61.2016 31.8992 60.6016 32.1992 60.1016 32.3992C59.6016 32.6992 59.0016 32.8992 58.5016 32.8992H58.4016C58.3016 32.8992 58.2016 32.9992 58.1016 32.9992C58.0016 32.9992 58.0016 33.0992 58.0016 33.0992C58.0016 33.0992 57.9016 33.0992 57.9016 33.1992C57.7016 33.2992 57.6016 33.4992 57.5016 33.5992C57.5016 33.5992 57.5016 33.5992 57.4016 33.5992H57.3016C57.0016 33.7992 56.8016 33.9992 56.6016 34.0992C55.3016 35.0992 54.2016 35.9992 53.2016 37.1992C51.5016 39.1992 49.6016 41.6992 48.6016 44.8992C48.1016 46.6992 47.7016 48.5992 47.6016 50.6992V50.9992C47.6016 51.3992 47.6016 51.6992 47.6016 52.0992C47.6016 52.0992 47.6016 52.0992 47.6016 52.1992C47.6016 52.1992 47.6016 52.1992 47.6016 52.2992C47.6016 52.6992 47.6016 52.9992 47.6016 53.3992V53.6992C47.7016 55.7992 48.1016 57.6992 48.6016 59.4992C49.6016 62.6992 51.5016 65.0992 53.2016 67.1992C54.2016 68.3992 55.4016 69.2992 56.6016 70.2992C56.9016 70.4992 57.1016 70.6992 57.3016 70.7992H57.4016C57.5016 70.7992 57.5016 70.7992 57.5016 70.7992C57.6016 70.8992 57.7016 71.0992 57.9016 71.1992C57.9016 71.1992 58.0016 71.1992 58.0016 71.2992C58.1016 71.2992 58.2016 71.3992 58.2016 71.3992C58.3016 71.3992 58.4016 71.4992 58.4016 71.4992H58.5016H58.6016C59.1016 71.5992 59.7016 71.8992 60.2016 71.9992C60.7016 72.2992 61.3016 72.4992 61.8016 72.5992L62.2016 72.6992C63.4016 72.9992 64.3016 73.1992 65.6016 73.2992C66.2016 73.3992 67.0016 73.4992 67.7016 73.4992C68.1016 73.4992 68.5016 73.5992 68.9016 73.5992C69.4016 73.6992 70.0016 73.6992 70.5016 73.6992C72.9016 73.6992 75.5016 73.1992 78.0016 72.0992C78.5016 71.8992 78.9016 71.7992 79.5016 71.5992C79.8016 71.4992 80.0016 71.4992 80.2016 71.3992H80.3016C80.5016 71.1992 80.8016 70.9992 81.3016 70.8992C81.4016 70.8992 81.5016 70.8992 81.5016 70.7992H81.6016H81.7016L82.1016 70.4992C82.8016 69.9992 83.5016 69.3992 84.1016 68.9992C85.8016 67.5992 87.1016 65.6992 88.2016 63.3992C89.7016 60.1992 90.1016 56.7992 90.3016 54.1992C90.3016 53.7992 90.3016 53.4992 90.3016 53.0992C90.2016 52.5992 90.2016 52.4992 90.2016 52.3992ZM82.3016 68.0992C81.8016 68.3992 81.5016 68.5992 81.0016 68.7992L80.9016 68.9992C80.7016 69.0992 80.5016 69.1992 80.4016 69.2992C79.9016 69.4992 79.4016 69.6992 78.9016 69.7992C77.4016 70.2992 75.9016 70.9992 74.4016 71.4992C73.8016 71.7992 72.9016 71.8992 72.1016 71.9992C71.4016 72.0992 70.6016 72.1992 69.7016 72.1992C68.5016 72.1992 67.3016 72.0992 65.9016 71.8992C63.9016 71.5992 62.2016 71.2992 60.4016 70.5992C58.2016 69.8992 56.8016 68.9992 55.7016 67.6992C55.4016 67.3992 55.2016 67.1992 54.9016 66.8992C54.7016 66.6992 54.5016 66.4992 54.4016 66.3992C54.1016 66.0992 53.9016 65.8992 53.7016 65.6992C53.1016 65.1992 52.5016 64.4992 52.0016 63.7992C50.6016 61.7992 49.6016 59.5992 49.1016 57.2992C48.7016 55.6992 48.6016 53.9992 48.6016 52.1992C48.6016 50.4992 48.8016 48.7992 49.1016 47.0992C49.6016 44.6992 50.6016 42.4992 52.0016 40.5992C52.5016 39.9992 53.1016 39.2992 53.7016 38.6992C54.0016 38.3992 54.2016 38.1992 54.4016 37.9992C54.6016 37.7992 54.8016 37.5992 54.9016 37.4992C55.2016 37.1992 55.4016 36.9992 55.7016 36.6992C56.8016 35.3992 58.2016 34.4992 60.4016 33.7992C62.2016 33.2992 63.8016 32.7992 65.9016 32.4992C67.3016 32.2992 68.5016 32.1992 69.7016 32.1992C70.5016 32.1992 71.2016 32.2992 72.1016 32.3992C72.9016 32.4992 73.7016 32.5992 74.4016 32.8992C75.9016 33.3992 77.4016 34.0992 78.9016 34.5992C79.4016 34.7992 79.9016 34.9992 80.4016 35.0992C80.6016 35.1992 80.8016 35.2992 80.9016 35.3992L81.0016 35.4992C81.5016 35.7992 81.8016 35.9992 82.3016 36.1992L82.7016 36.3992L82.5016 36.7992L82.4016 37.0992L81.8016 37.5992L81.6016 37.6992V37.5992L81.0016 37.6992C80.9016 37.7992 80.8016 37.7992 80.7016 37.7992C80.5016 37.7992 80.3016 37.6992 80.2016 37.4992C80.1016 37.4992 80.1016 37.3992 80.0016 37.3992C79.6016 37.0992 79.3016 36.8992 78.9016 36.6992C77.9016 36.0992 76.9016 35.2992 75.8016 34.7992C73.9016 33.7992 71.9016 33.2992 69.7016 33.2992C69.5016 33.2992 69.3016 33.2992 69.2016 33.2992C69.0016 33.2992 68.7016 33.2992 68.6016 33.2992C67.4016 33.2992 66.2016 33.3992 65.2016 33.7992C64.7016 33.9992 64.3016 34.0992 63.9016 34.2992C63.3016 34.4992 62.6016 34.7992 62.0016 34.9992C60.5016 35.6992 58.6016 36.5992 57.4016 38.0992C57.0016 38.5992 56.6016 38.8992 56.1016 39.2992C55.8016 39.5992 55.6016 39.7992 55.3016 39.9992C53.5016 41.6992 52.3016 43.8992 51.9016 46.3992C51.8016 46.8992 51.7016 47.2992 51.5016 47.6992C51.4016 48.0992 51.3016 48.3992 51.2016 48.7992C51.0016 49.4992 50.9016 50.1992 50.8016 50.8992V50.9992V51.1992C50.8016 51.5992 50.8016 51.8992 50.8016 52.2992C50.8016 52.6992 50.8016 52.9992 50.8016 53.3992V53.5992V53.6992C50.8016 54.3992 51.0016 55.0992 51.2016 55.7992C51.3016 56.1992 51.4016 56.4992 51.5016 56.8992C51.6016 57.3992 51.8016 57.6992 51.9016 58.1992C52.4016 60.6992 53.5016 62.8992 55.3016 64.5992C55.6016 64.8992 55.8016 65.0992 56.1016 65.2992C56.6016 65.6992 57.0016 65.9992 57.4016 66.4992C58.8016 67.9992 60.5016 68.8992 62.0016 69.5992C62.6016 69.8992 63.3016 70.0992 63.9016 70.2992C64.4016 70.4992 64.8016 70.5992 65.2016 70.7992C66.3016 71.2992 67.5016 71.2992 68.6016 71.2992C68.8016 71.2992 69.1016 71.2992 69.2016 71.2992C69.4016 71.2992 69.6016 71.2992 69.7016 71.2992C71.9016 71.2992 74.0016 70.7992 75.8016 69.7992C76.9016 69.2992 77.9016 68.4992 78.9016 67.8992C79.3016 67.5992 79.6016 67.3992 80.0016 67.1992C80.1016 67.1992 80.1016 67.0992 80.2016 67.0992C80.4016 66.9992 80.6016 66.7992 80.7016 66.7992C80.8016 66.7992 80.9016 66.7992 81.0016 66.8992L81.5016 67.2992V66.9992L81.7016 67.0992L82.3016 67.5992L82.4016 67.8992L82.6016 68.2992H82.3016V68.0992ZM85.8016 51.3992C85.8016 51.5992 85.8016 51.7992 85.9016 51.8992V51.9992V52.0992C85.9016 52.2992 85.9016 52.4992 85.8016 52.5992V52.8992H85.9016C85.9016 53.2992 85.8016 53.5992 85.7016 53.9992C85.2016 56.5992 84.1016 58.8992 83.0016 60.7992C82.5016 61.7992 81.9016 62.4992 81.5016 63.1992L81.3016 63.4992C80.8016 64.0992 80.3016 64.8992 79.7016 65.3992C77.3016 67.3992 74.9016 68.6992 72.3016 69.2992C71.8016 69.3992 71.3016 69.4992 70.7016 69.4992C70.4016 69.4992 70.2016 69.4992 69.8016 69.4992C69.5016 69.4992 69.2016 69.4992 68.9016 69.4992C68.8016 69.4992 68.7016 69.4992 68.5016 69.4992C68.4016 69.4992 68.3016 69.4992 68.2016 69.4992C67.1016 69.4992 66.0016 69.2992 64.9016 68.8992C64.0016 68.4992 63.2016 68.2992 62.3016 67.8992C61.9016 67.6992 59.8016 66.3992 59.6016 66.2992C56.9016 64.2992 54.9016 61.7992 53.7016 58.7992C53.0016 56.8992 52.5016 54.9992 52.4016 53.1992V52.9992V52.8992C52.4016 52.5992 52.4016 52.2992 52.4016 51.9992C52.4016 51.6992 52.4016 51.4992 52.4016 51.0992C52.4016 50.9992 52.4016 50.9992 52.4016 50.8992V50.7992C52.5016 48.9992 52.9016 47.0992 53.7016 45.1992C54.9016 42.1992 56.8016 39.6992 59.6016 37.6992C59.8016 37.4992 62.0016 36.1992 62.3016 36.0992C63.1016 35.6992 64.0016 35.3992 64.9016 35.0992C66.0016 34.5992 67.1016 34.4992 68.2016 34.4992C68.3016 34.4992 68.4016 34.4992 68.5016 34.4992C68.6016 34.4992 68.7016 34.4992 68.9016 34.4992C69.2016 34.4992 69.5016 34.4992 69.8016 34.4992C70.1016 34.4992 70.3016 34.4992 70.7016 34.4992C71.3016 34.4992 71.9016 34.5992 72.3016 34.6992C74.9016 35.2992 77.4016 36.5992 79.7016 38.5992C80.3016 39.0992 80.9016 39.7992 81.3016 40.4992L81.5016 40.7992C82.0016 41.3992 82.5016 42.2992 83.0016 43.1992C84.1016 45.0992 85.3016 47.3992 85.7016 49.9992C85.8016 50.3992 85.8016 50.6992 85.9016 51.0992H85.8016V51.3992ZM89.0016 53.3992C88.7016 57.1992 88.0016 60.3992 86.6016 63.1992C85.9016 64.7992 84.8016 66.1992 83.4016 67.3992L83.0016 67.2992L82.6016 67.0992H82.4016L82.5016 66.8992C82.4016 66.7992 82.3016 66.6992 82.2016 66.5992C81.9016 66.1992 81.6016 65.9992 81.0016 65.8992C80.9016 65.3992 81.1016 65.1992 81.5016 64.7992L82.4016 65.3992L82.6016 65.4992L82.7016 65.3992L82.8016 65.2992L83.0016 65.0992L82.9016 64.8992L82.1016 63.9992C82.4016 63.4992 82.6016 63.0992 82.8016 62.5992C83.4016 61.4992 84.1016 60.4992 84.6016 59.3992C85.7016 57.1992 86.8016 54.5992 86.7016 51.6992C86.8016 48.7992 85.7016 46.1992 84.6016 43.9992C84.1016 42.8992 83.4016 41.8992 82.8016 40.7992C82.5016 40.2992 82.3016 39.8992 82.1016 39.3992L82.9016 38.4992L83.0016 38.2992V38.3992L82.9016 38.2992L82.8016 38.1992L82.6016 38.2992L81.7016 38.8992C81.2016 38.4992 81.1016 38.2992 81.2016 37.7992C81.7016 37.6992 82.1016 37.2992 82.4016 37.0992C82.5016 36.9992 82.6016 36.8992 82.7016 36.7992H82.6016L82.8016 36.6992L83.3016 36.4992L83.6016 36.3992C85.0016 37.5992 86.0016 38.9992 86.8016 40.5992C88.2016 43.3992 88.9016 46.5992 89.2016 50.2992V50.3992C89.2016 50.6992 89.2016 50.8992 89.2016 51.0992C89.2016 51.1992 89.2016 51.2992 89.2016 51.3992C89.2016 51.5992 89.2016 51.7992 89.2016 51.8992C89.2016 52.0992 89.2016 52.1992 89.2016 52.3992C89.2016 52.4992 89.2016 52.5992 89.2016 52.7992C89.0016 52.9992 89.0016 53.2992 89.0016 53.3992Z" fill="#1D1D1B"/>
<path d="M56 43.8994H55.5L55.7 44.1994C55.7 44.2994 55.8 44.2994 55.8 44.3994C55.9 44.5994 56 44.7994 56.2 44.8994C57 45.1994 58.1 45.4994 59.1 45.4994C59.2 45.4994 59.3 45.4994 59.4 45.4994H60.1L59.4 45.0994C58.2 44.3994 56.9 43.8994 56 43.8994Z" fill="#1D1D1B"/>
<path d="M80.4008 50.1992C79.7008 50.1992 79.0008 50.4992 78.6008 50.9992L78.3008 51.3992H78.8008L79.9008 51.2992L82.6008 51.0992L83.6008 50.9992L82.7008 50.5992C81.7008 50.3992 81.0008 50.1992 80.4008 50.1992Z" fill="#1D1D1B"/>
<path d="M80.1008 43.9998L80.5008 43.2998L79.9008 43.7998C79.5008 44.0998 79.1008 44.1998 78.7008 44.2998C78.1008 44.5998 77.3008 44.7998 76.8008 45.4998L76.3008 45.8998H76.8008C78.0008 45.6998 79.7008 44.7998 80.1008 43.9998Z" fill="#1D1D1B"/>
<path d="M62.9016 40.9996L63.6016 41.8996L64.2016 42.6996L63.9016 41.6996C63.4016 39.7996 63.0016 39.0996 61.6016 39.0996H61.1016L61.5016 39.4996L62.9016 40.9996Z" fill="#1D1D1B"/>
<path d="M57.3 51.9998V51.7998V51.5998V51.3998V51.2998L57.2 51.1998C57 50.9998 56.7 50.7998 56.5 50.7998C56.3 50.7998 56.1 50.8998 56 50.8998C55.9 50.8998 55.7 50.9998 55.6 50.9998H55.5C55 51.0998 54.3 51.1998 53.9 51.5998L53.5 52.0998H54H54.2L57 51.9998H57.3Z" fill="#1D1D1B"/>
<path d="M69.5017 40.0996L69.6017 39.6996C69.9017 38.8996 69.7017 37.0996 69.3017 36.4996L69.0017 36.0996V36.6996C68.6017 38.1996 68.7017 39.2996 69.3017 39.8996L69.5017 40.0996Z" fill="#1D1D1B"/>
<path d="M75.3004 39.2998C74.5004 39.2998 73.9004 39.7998 73.5004 40.1998C73.4004 40.2998 73.4004 40.4998 73.4004 40.6998C73.4004 40.7998 73.4004 40.8998 73.4004 41.0998V41.5998L73.8004 41.1998L75.4004 39.6998L75.9004 39.2998H75.3004Z" fill="#1D1D1B"/>
<path d="M58.9008 58.0996C57.8008 58.0996 56.8008 58.4996 56.0008 58.6996C55.8008 58.7996 55.7008 58.9996 55.6008 59.1996C55.6008 59.2996 55.5008 59.3996 55.5008 59.3996L55.3008 59.6996H55.7008H55.8008C56.7008 59.6996 58.2008 59.1996 59.2008 58.4996L59.7008 58.0996H59.0008C59.1008 58.0996 59.0008 58.0996 58.9008 58.0996Z" fill="#1D1D1B"/>
<path d="M76.7012 58.1992H76.2012L76.6012 58.5992C77.1012 59.1992 77.9012 59.4992 78.5012 59.7992C79.0012 59.9992 79.3012 60.1992 79.7012 60.2992L80.3012 60.7992L79.9012 59.9992C79.7012 59.1992 78.0012 58.2992 76.7012 58.1992Z" fill="#1D1D1B"/>
<path d="M63.4016 62.1998L61.5016 64.4998L61.1016 64.8998H61.6016C63.0016 64.8998 63.3016 64.2998 63.9016 62.2998L64.2016 61.2998L63.6016 62.0998L63.4016 62.1998Z" fill="#1D1D1B"/>
<path d="M69.5012 63.8994L69.2012 64.1994C68.7012 64.6994 68.6012 65.8994 68.9012 67.3994L69.0012 67.8994L69.3012 67.3994C69.7012 66.8994 69.8012 64.9994 69.6012 64.1994L69.5012 63.8994Z" fill="#1D1D1B"/>
<path d="M73.8004 62.7994L73.4004 62.3994V62.9994C73.4004 63.1994 73.4004 63.2994 73.4004 63.3994C73.4004 63.5994 73.4004 63.7994 73.5004 63.8994C74.0004 64.3994 74.4004 64.7994 75.3004 64.7994H75.8004L75.3004 64.3994L73.8004 62.7994Z" fill="#1D1D1B"/>
<path d="M69.3008 49.7998C69.2008 49.7998 69.0008 49.7998 68.9008 49.7998H68.8008C68.2008 49.2998 67.6008 48.5998 67.1008 48.0998C66.7008 47.6998 66.4008 47.2998 65.9008 46.8998C64.6008 45.4998 63.4008 44.1998 61.8008 43.0998C61.5008 42.7998 61.2008 42.5998 60.9008 42.3998L60.5008 41.9998L60.3008 41.7998L60.2008 42.0998C59.7008 42.8998 60.2008 43.2998 60.5008 43.4998H60.6008C62.1008 44.5998 63.6008 45.8998 64.9008 47.2998C65.4008 47.7998 65.7008 48.1998 66.2008 48.6998C66.3008 48.7998 66.5008 48.9998 66.6008 49.0998C67.1008 49.5998 67.7008 50.0998 68.1008 50.5998C67.9008 50.9998 67.9008 51.1998 68.0008 51.5998C68.2008 52.2998 68.8008 52.8998 69.5008 52.8998C69.6008 52.8998 69.8008 52.8998 69.9008 52.8998C70.8008 52.6998 71.4008 51.7998 71.1008 50.9998C70.7008 50.3998 70.0008 49.7998 69.3008 49.7998Z" fill="#1D1D1B"/>
</svg>
