<svg width="136" height="136" viewBox="0 0 136 136" fill="none" xmlns="http://www.w3.org/2000/svg">
<path d="M107.001 43.4006C108.201 46.4006 108.201 50.0006 108.701 53.3006C109.301 57.0006 110.401 60.3006 110.601 63.9006C111.201 73.0006 111.201 81.6006 110.301 90.7006C109.701 97.0006 109.101 103.201 108.501 109.601C108.201 112.301 110.501 115.901 108.201 117.301C108.201 117.301 102.201 117.801 99.2012 117.801C99.2012 117.801 97.9012 121.501 96.5012 122.701C94.8012 124.001 89.5012 123.801 87.4012 123.901C77.7012 124.301 68.3012 121.201 58.7012 121.101C53.3012 121.001 37.6012 118.501 37.6012 118.201C35.9012 115.301 41.9012 107.801 42.4012 104.501C44.3012 88.0006 48.8012 77.0006 50.2012 60.4006C50.6012 55.3006 51.3012 46.5006 53.5012 44.0006C54.5012 42.9006 70.9012 42.6006 76.6012 43.1006C86.7012 44.0006 96.9012 44.9006 107.001 43.4006Z" fill="white"/>
<path d="M110.6 90.0005C109.7 99.1005 109.9 106.4 108.9 115.6C108.8 116 108.9 116.5 108.6 116.9C107.7 118.5 103.5 117.8 100.9 117.9C100.3 117.9 99.9004 117.9 99.4004 117.9C100.7 114.9 100.8 112.9 102 109.7C103.2 106.5 103.6 102.1 104.4 98.8005C104.9 96.6005 105.2 93.7005 105.4 91.4005C105.6 89.6005 106.7 83.7005 107.3 79.0005C107.8 75.1005 108.4 61.1005 109.4 60.5005C111.4 59.7005 110.9 76.4005 110.8 78.2005C110.7 82.0005 110.6 86.1005 110.6 90.0005Z" fill="#BCBCBB"/>
<path d="M53.9001 58.6007C54.3001 56.7007 54.3001 53.7007 54.7001 51.9007C54.8001 51.5007 55.4001 51.6007 55.7001 51.4007C56.0001 51.2007 56.4001 51.6007 56.7001 51.6007C64.7001 51.3007 72.7001 51.9007 80.6001 53.2007C80.6001 54.3007 79.6001 55.2007 78.4001 55.5007C77.3001 55.8007 76.1001 55.7007 75.0001 55.8007C73.3001 56.0007 71.8001 56.8007 70.2001 57.5007C63.9001 60.5007 56.6001 64.2007 52.7001 70.0007C52.4001 69.2007 52.9001 66.4007 53.0001 64.7007C53.1001 63.0007 52.7001 61.5007 53.2001 59.8007C53.8001 58.1007 54.3001 56.5007 54.9001 54.8007" fill="#BCBCBB"/>
<path d="M80.0008 71.7C81.8008 72.2 79.7008 74.3 77.2008 72.8C77.0008 72.7 76.8008 72.5 76.7008 72.4C76.4008 72.1 76.4008 71.5 76.4008 71.1C76.5008 69.7 77.2008 68.5 77.4008 67.1C77.6008 65.8 77.4008 64.2 78.3008 63.3C78.5008 63.1 78.7008 63 79.0008 63C79.3008 63.1 79.4008 63.5 79.4008 63.9C79.8008 68.5 81.9008 75.1 86.7008 77C87.3008 77.3 88.0008 77.3 88.4008 77.9C88.7008 78.2 88.9008 78.6 89.1008 78.9C89.4008 79.7 89.6008 80.6 89.7008 81.3C89.7008 81.5 89.7008 81.8 89.5008 81.9C89.3008 82.1 89.2008 82 89.0008 82C86.0008 81.7 82.9008 81 80.1008 79.7C78.6008 79 72.8008 76.6 72.8008 74.7C72.8008 72.9 77.3008 71.7 78.7008 71.7C79.2008 71.5 79.6008 71.6 80.0008 71.7Z" fill="#BCBCBB"/>
<path d="M43.4012 97.0002C43.5012 96.6002 43.6012 96.1002 43.9012 95.9002C44.4012 95.6002 45.2012 96.0002 45.5012 96.5002C45.8012 97.0002 45.8012 97.8002 45.8012 98.4002C46.1012 101.9 49.5012 104.2 52.6012 106C57.8012 109 63.1012 112.1 68.3012 115.1C70.4012 116.3 72.8012 118 72.8012 120.4C72.8012 120.7 72.7012 121.2 72.5012 121.4C72.1012 122 71.1012 122 70.3012 121.9C62.3012 121.2 54.3012 120.4 46.4012 119.7C43.9012 119.4 39.8012 120 38.5012 117.3C37.3012 114.9 38.8012 111.3 39.6012 108.9C41.0012 105 42.6012 101.1 43.4012 97.0002Z" fill="#BCBCBB"/>
<path d="M109.301 61.4008C109.301 62.4008 109.401 63.5008 109.301 64.5008C108.801 71.8008 108.601 79.1008 106.701 86.2008C106.301 87.9008 106.201 89.8008 105.901 91.6008C105.701 93.1008 105.601 94.6008 105.401 96.1008C104.701 100.101 104.001 104.001 103.301 108.001C103.101 109.001 102.901 109.801 102.601 111.101C103.601 110.601 104.301 110.201 105.001 109.901C105.701 109.601 106.501 109.201 107.301 109.601C106.001 110.201 104.801 110.901 103.501 111.501C102.501 111.901 101.801 112.601 101.501 113.801C100.801 117.001 98.7008 119.501 97.4008 122.401C97.1008 122.901 96.2008 123.401 95.5008 123.501C94.5008 123.801 93.6008 123.901 92.6008 123.901C88.9008 124.001 85.1008 124.001 81.4008 124.001C80.0008 124.001 78.6008 123.801 77.2008 123.701C72.0008 123.301 66.8008 122.801 61.6008 122.301C55.9008 121.801 50.1008 121.201 44.4008 120.501C42.3008 120.201 40.3008 119.701 38.3008 119.201C37.6008 119.001 37.0008 118.501 36.3008 118.201C36.4008 117.701 36.5008 117.301 36.6008 117.101C39.3008 111.001 41.4008 104.701 42.9008 98.1008C44.1008 92.7008 45.2008 87.4008 46.2008 82.0008C47.3008 75.7008 48.3008 69.4008 49.2008 63.0008C49.6008 60.2008 49.7008 57.3008 50.1008 54.5008C50.3008 53.2008 50.5008 51.9008 50.8008 50.6008C51.1008 49.1008 51.6008 47.6008 51.2008 46.1008C51.1008 45.8008 51.2008 45.4008 51.4008 45.1008C51.8008 44.5008 51.7008 44.0008 51.3008 43.4008C50.3008 41.2008 51.6008 39.1008 53.2008 38.4008C54.2008 38.0008 55.3008 37.8008 56.4008 37.6008C57.8008 37.4008 59.2008 37.5008 60.5008 37.3008C63.3008 37.0008 66.1008 37.2008 68.8008 36.5008C69.1008 36.4008 69.4008 36.4008 69.7008 36.5008C72.7008 37.5008 76.1008 36.6008 79.2008 37.4008C79.7008 37.6008 80.4008 37.5008 81.0008 37.2008C83.4008 36.3008 85.6008 36.6008 87.8008 37.8008C88.6008 38.2008 89.3008 38.5008 90.1008 38.3008C92.1008 37.8008 94.0008 37.7008 95.3008 39.7008C96.1008 39.4008 96.8008 39.2008 97.4008 39.1008C98.6008 38.9008 99.8008 38.8008 101.101 38.8008C103.201 38.9008 104.701 39.9008 105.301 41.9008C105.401 42.1008 105.501 42.2008 105.601 42.5008C105.901 42.5008 106.101 42.6008 106.401 42.5008C107.301 42.4008 107.701 42.8008 107.801 43.6008C108.301 46.4008 108.901 49.2008 109.401 52.0008C109.701 53.9008 109.701 55.8008 110.601 57.7008C111.101 58.7008 110.901 59.9008 111.001 61.0008C111.801 66.5008 111.601 72.0008 111.801 77.4008C111.901 79.1008 111.701 80.9008 111.601 82.6008C111.401 86.6008 111.201 90.6008 111.101 94.7008C110.901 99.2008 110.901 103.701 110.701 108.301C110.501 111.101 110.201 113.801 109.801 116.601C109.701 117.301 109.301 117.701 108.601 117.801C106.301 118.001 104.101 118.201 101.701 118.401C101.501 118.401 101.401 118.101 101.001 117.801C102.401 117.101 103.801 117.401 105.001 117.201C105.401 117.101 105.901 117.301 106.201 117.201C108.101 116.901 108.501 116.801 108.601 114.801C109.101 109.701 109.701 104.501 109.701 99.4008C109.701 97.2008 109.901 95.1008 109.901 93.0008C110.001 90.6008 110.001 88.1008 110.101 85.7008C110.201 80.4008 110.401 75.2008 110.401 69.9008C110.401 67.1008 109.901 64.2008 109.701 61.5008C109.501 61.4008 109.401 61.4008 109.301 61.4008ZM107.201 64.8008C107.901 63.9008 108.201 63.1008 107.501 61.8008C106.401 62.5008 105.201 63.1008 104.201 63.7008C104.101 63.3008 104.201 63.0008 104.401 62.9008C105.201 62.4008 105.901 61.9008 106.701 61.5008C107.701 61.1008 108.101 60.4008 108.201 59.4008C108.301 58.9008 108.401 58.3008 108.301 57.7008C107.901 54.0008 107.401 50.2008 106.901 46.6008C106.801 45.7008 106.601 44.9008 105.601 44.0008C105.301 44.6008 104.901 45.1008 104.601 45.7008C104.301 46.7008 103.501 47.0008 102.601 46.7008C101.701 46.4008 100.901 46.1008 100.301 45.6008C99.1008 44.6008 98.5008 44.5008 97.2008 45.2008C96.4008 45.6008 95.5008 46.0008 94.8008 46.3008C93.7008 46.7008 92.8008 46.3008 92.1008 45.3008C91.8008 45.0008 91.8008 44.6008 91.4008 44.0008C90.4008 45.6008 89.1008 46.7008 87.3008 46.6008C85.3008 46.5008 84.5008 44.9008 83.6008 43.6008C83.3008 43.7008 83.3008 43.7008 83.3008 43.7008C83.1008 43.8008 83.0008 44.0008 82.9008 44.1008C81.3008 46.0008 79.3008 46.0008 77.2008 45.5008C76.6008 45.3008 76.1008 45.1008 75.5008 44.8008C75.2008 45.0008 75.1008 45.1008 75.0008 45.2008C72.9008 47.0008 71.9008 47.1008 69.6008 45.7008C69.0008 45.4008 68.5008 45.0008 67.9008 44.7008C63.5008 47.3008 62.8008 47.3008 60.2008 45.0008C59.9008 45.3008 59.5008 45.6008 59.1008 45.9008C58.2008 46.7008 57.2008 46.8008 56.1008 46.3008C55.4008 46.0008 54.8008 45.5008 54.2008 45.2008C53.9008 45.0008 53.5008 44.9008 53.3008 44.8008C52.9008 47.7008 52.5008 50.4008 52.2008 53.2008C52.0008 54.3008 51.9008 55.4008 51.8008 56.5008C51.4008 60.4008 50.9008 64.3008 50.4008 68.2008C49.7008 73.0008 48.8008 77.8008 48.1008 82.6008C47.8008 84.8008 47.2008 86.9008 46.9008 89.1008C46.0008 93.8008 45.2008 98.5008 43.7008 103.101C42.4008 107.301 40.7008 111.401 39.3008 115.501C39.1008 116.001 39.0008 116.501 38.8008 117.201C41.8008 117.601 44.5008 118.201 47.2008 118.401C53.3008 119.101 59.4008 119.501 65.5008 120.201C74.5008 121.301 83.5008 121.701 92.6008 121.701C94.2008 121.701 95.7008 121.401 97.3008 121.401C99.2008 117.901 101.001 114.401 101.801 110.701C103.401 103.901 104.801 97.1008 105.201 90.2008C105.201 89.9008 105.301 89.5008 105.401 89.2008C107.101 81.7008 107.701 74.1008 108.401 66.5008C108.501 66.1008 108.501 65.6008 108.401 65.3008C107.801 65.1008 107.401 65.0008 107.201 64.8008ZM96.2008 40.9008C96.7008 42.0008 97.1008 43.2008 98.6008 43.2008C99.9008 43.2008 101.201 43.3008 102.501 43.3008C103.001 43.3008 103.501 43.0008 104.101 43.0008C103.001 39.7008 99.7008 38.8008 96.2008 40.9008ZM74.7008 42.5008C74.7008 40.9008 74.5008 40.0008 73.8008 39.3008C73.5008 39.0008 73.1008 38.8008 72.8008 38.9008C71.5008 39.0008 69.4008 41.1008 69.1008 42.6008C70.9008 42.5008 72.7008 42.5008 74.7008 42.5008ZM87.1008 39.3008C85.0008 37.6008 83.2008 37.5008 81.4008 38.6008C82.0008 39.8008 82.5008 41.0008 83.1008 42.2008C84.2008 42.0008 84.2008 42.0008 87.1008 39.3008ZM66.6008 42.3008C66.9008 41.2008 66.3008 40.2008 65.8008 39.3008C65.6008 39.0008 65.0008 38.6008 64.8008 38.7008C64.1008 39.0008 63.4008 39.5008 62.8008 40.0008C62.2008 40.5008 61.6008 41.1008 61.8008 42.2008C63.4008 42.7008 65.0008 42.8008 66.6008 42.3008ZM59.7008 42.5008C59.5008 41.5008 59.5008 40.8008 59.4008 40.1008C59.2008 39.5008 58.6008 39.0008 57.9008 39.4008C56.6008 40.2008 55.2008 41.1008 54.7008 43.0008C56.4008 42.7008 57.9008 42.7008 59.7008 42.5008ZM81.6008 42.2008C80.9008 40.1008 80.9008 40.1008 79.4008 39.3008C78.4008 40.1008 77.2008 40.7008 76.8008 42.3008C78.5008 42.7008 80.0008 42.5008 81.6008 42.2008ZM57.0008 38.6008C55.0008 38.3008 53.7008 38.9008 52.7008 39.9008C51.7008 40.9008 51.8008 41.8008 53.0008 42.9008C53.6008 42.2008 54.1008 41.5008 54.7008 40.8008C55.3008 40.1008 56.0008 39.5008 57.0008 38.6008ZM67.7008 40.9008C68.9008 39.9008 70.1008 39.2008 71.3008 37.9008C69.6008 37.4008 68.0008 37.5008 66.5008 38.2008C66.8008 39.1008 67.2008 39.9008 67.7008 40.9008ZM93.7008 40.4008C92.3008 39.1008 91.8008 39.0008 89.9008 39.9008C90.4008 40.8008 90.3008 42.1008 91.6008 42.2008C92.7008 42.4008 93.2008 41.3008 93.7008 40.4008ZM69.3008 44.0008C71.9008 46.3008 73.3008 46.3008 74.3008 44.0008C72.7008 44.0008 71.2008 44.0008 69.3008 44.0008ZM61.4008 44.0008C62.0008 45.5008 62.2008 45.7008 63.0008 45.7008C64.2008 45.9008 65.3008 45.3008 66.4008 44.0008C64.7008 44.0008 63.2008 44.0008 61.4008 44.0008ZM75.8008 40.8008C76.7008 40.0008 77.4008 39.4008 78.2008 38.6008C76.9008 37.8008 75.9008 37.7008 74.6008 38.2008C75.1008 39.2008 75.4008 40.0008 75.8008 40.8008ZM85.2008 43.9008C86.2008 44.9008 86.9008 45.8008 88.1008 45.6008C88.9008 45.4008 89.8008 45.3008 89.7008 43.9008C88.2008 43.9008 87.0008 43.9008 85.2008 43.9008ZM60.5008 40.5008C61.5008 39.7008 62.4008 39.0008 63.4008 38.2008C62.1008 37.9008 61.0008 37.8008 59.9008 38.7008C60.1008 39.3008 60.3008 39.9008 60.5008 40.5008C60.6008 40.7008 60.6008 40.6008 60.5008 40.5008ZM55.2008 44.4008C56.8008 46.1008 58.2008 46.1008 59.1008 44.0008C57.7008 43.7008 56.5008 43.7008 55.2008 44.4008ZM85.8008 42.1008C87.2008 42.8008 88.2008 42.4008 89.5008 41.9008C89.0008 41.2008 88.6008 40.7008 88.1008 40.0008C87.4008 40.7008 86.7008 41.4008 85.8008 42.1008ZM76.8008 44.3008C78.5008 44.8008 79.8008 45.0008 81.4008 44.1008C79.4008 43.7008 78.8008 43.7008 76.8008 44.3008ZM93.4008 44.0008C94.4008 45.3008 94.4008 45.3008 95.7008 44.3008C94.7008 44.2008 94.1008 44.1008 93.4008 44.0008ZM93.9008 42.3008C94.6008 42.4008 94.9008 42.5008 95.6008 42.6008C95.1008 41.6008 94.7008 41.5008 93.9008 42.3008ZM103.601 45.4008C103.601 45.2008 103.601 45.1008 103.601 44.9008C103.301 45.0008 102.801 45.1008 102.501 45.1008C102.501 45.2008 102.501 45.4008 102.501 45.4008C102.901 45.4008 103.301 45.4008 103.601 45.4008Z" fill="black"/>
<path d="M39.5004 41.0008C39.2004 41.8008 38.5004 41.8008 38.0004 41.7008C37.2004 41.5008 36.5004 41.3008 35.8004 41.1008C33.5004 40.5008 31.3004 39.9008 28.9004 39.4008C26.8004 39.0008 25.0004 38.1008 23.4004 36.8008C23.7004 36.0008 24.1004 35.9008 24.6004 36.3008C26.9004 37.8008 29.5004 38.1008 32.1004 38.7008C34.4004 39.2008 36.6004 40.0008 38.9004 40.7008C39.1004 40.7008 39.2004 40.8008 39.5004 41.0008Z" fill="#F15748"/>
<path d="M59.7007 29.7003C59.7007 28.8004 59.6007 28.2003 59.7007 27.8003C60.1007 25.8003 60.7007 23.7003 61.3007 21.8003C62.0007 19.5003 62.8007 17.3003 63.5007 15.1003C63.7007 14.3003 63.6007 13.6003 63.8007 12.9003C64.0007 12.0003 64.5007 11.8003 65.5007 12.2003C64.1007 17.9003 61.5007 23.2003 60.7007 28.9003C60.5007 29.1003 60.2007 29.3004 59.7007 29.7003Z" fill="#F15748"/>
<path d="M38.1996 22.2002C38.4996 22.3002 38.9996 22.4002 39.1996 22.5002C39.7996 23.2002 40.3996 24.1002 40.8996 24.8002C42.5996 27.3002 44.2996 29.8002 45.8996 32.4002C46.2996 33.1002 46.8996 33.7002 46.7996 34.9002C42.8996 31.2002 40.9996 26.3002 37.5996 22.5002C37.8996 22.6002 37.9996 22.4002 38.1996 22.2002Z" fill="#F15748"/>
<path d="M102.6 114.8C103.1 113.1 103.8 112.6 106.6 111.9C105.2 112.9 103.9 113.8 102.6 114.8Z" fill="black"/>
<path d="M98.7008 89.7007C99.3008 90.9007 98.8008 92.0007 98.7008 93.0007C98.6008 93.8007 98.1008 94.6007 98.6008 95.4007C98.7008 95.6007 98.4008 96.0007 98.3008 96.3007C98.0008 97.6007 97.7008 98.8007 97.5008 100.101C97.4008 100.401 97.8008 100.901 97.8008 101.201C96.0008 102.901 96.3008 105.201 95.8008 107.401C96.5008 107.701 97.1008 108.101 98.1008 108.601C97.1008 108.701 96.5008 108.801 95.8008 108.801C95.5008 110.001 95.1008 111.401 94.8008 112.701C94.7008 113.101 94.6008 113.701 94.5008 114.201C93.8008 117.201 93.0008 117.701 89.9008 117.601C87.8008 117.501 85.7008 117.501 83.7008 117.301C82.7008 117.201 81.5008 117.501 80.4008 117.601C80.1008 117.601 79.9008 117.701 79.6008 117.601C76.6008 117.101 73.4008 116.601 70.4008 116.101C69.1008 115.901 67.8008 115.701 66.5008 115.501C64.7008 115.201 62.8008 114.801 60.9008 114.601C60.3008 114.501 59.6008 114.901 58.8008 114.901C57.0008 113.901 55.1008 113.201 53.1008 114.801C52.7008 113.701 51.8008 113.401 50.8008 113.201C49.3008 113.001 47.9008 112.701 46.8008 111.501C47.2008 110.401 47.8008 109.201 48.1008 108.001C48.5008 106.901 49.3008 105.701 47.6008 104.501C49.5008 104.001 49.7008 102.701 49.9008 101.501C50.1008 100.201 50.8008 99.0007 50.2008 97.7007C50.1008 97.5007 50.2008 97.3007 50.2008 97.1007C51.5008 94.5007 51.2008 91.7007 51.3008 88.9007C51.3008 88.3007 51.4008 87.7007 51.5008 87.0007C53.5008 86.4007 55.4008 86.5007 57.3008 86.7007C62.8008 87.2007 68.3008 87.7007 73.7008 88.4007C79.6008 89.1007 85.6008 89.4007 91.5008 89.3007C93.5008 89.3007 95.5008 89.3007 97.5008 89.4007C97.9008 89.5007 98.3008 89.6007 98.7008 89.7007ZM58.8008 88.2007C58.6008 89.2007 58.4008 89.9007 58.4008 90.6007C58.3008 92.3007 58.7008 92.8007 60.3008 93.0007C61.3008 93.2007 62.5008 93.3007 63.6008 93.3007C64.1008 91.9007 63.4008 90.3007 64.7008 89.1007C65.5008 90.6007 64.6008 92.1007 65.3008 93.7007C66.4008 93.9007 67.6008 94.1007 69.0008 94.4007C69.8008 92.7007 70.1008 91.1007 69.8008 89.4007C66.0008 88.6007 62.5008 88.7007 58.8008 88.2007ZM81.8008 108.501C80.0008 108.501 78.4008 108.401 76.8008 108.401C76.2008 108.401 75.6008 108.701 75.3008 109.401C74.7008 111.301 74.0008 113.301 73.4008 115.301C75.1008 116.001 76.6008 115.901 78.2008 115.901C79.8008 115.901 80.0008 115.801 80.5008 114.301C80.9008 112.601 81.3008 110.801 81.8008 108.501ZM81.2008 116.101C83.2008 116.201 85.1008 116.301 87.1008 116.401C87.6008 113.801 88.1008 111.401 88.5008 108.701C86.6008 108.701 84.8008 108.701 83.0008 108.701C82.4008 111.101 81.8008 113.501 81.2008 116.101ZM69.4008 100.801C69.1008 102.001 69.1008 103.001 68.7008 103.801C68.2008 104.801 68.4008 105.801 68.6008 106.901C70.3008 107.001 71.9008 107.201 73.6008 107.201C74.3008 107.301 74.8008 106.901 74.9008 106.201C75.2008 104.601 75.5008 103.001 75.8008 101.201C73.6008 101.001 71.6008 100.901 69.4008 100.801ZM66.7008 114.401C68.4008 114.701 69.7008 114.901 71.2008 115.101C71.8008 115.201 72.3008 114.801 72.5008 114.201C73.1008 112.401 73.6008 110.501 74.2008 108.501C71.9008 108.501 69.8008 108.501 67.4008 108.501C67.2008 110.301 66.9008 112.201 66.7008 114.401ZM88.1008 116.301C88.6008 116.401 88.9008 116.501 89.2008 116.501C89.5008 116.601 89.9008 116.601 90.2008 116.601C91.8008 116.501 92.4008 116.101 92.8008 114.501C93.1008 113.601 93.2008 112.801 93.5008 111.901C93.8008 110.901 94.0008 109.901 94.4008 108.701C92.7008 108.601 91.2008 108.401 89.6008 109.001C89.2008 111.301 88.7008 113.601 88.1008 116.301ZM82.8008 101.601C80.9008 101.301 79.1008 101.101 77.2008 101.601C76.6008 103.401 76.2008 105.301 76.1008 107.301C78.2008 107.501 80.0008 107.401 81.8008 107.101C82.4008 105.201 83.1008 103.601 82.8008 101.601ZM53.2008 112.501C54.0008 110.501 54.9008 108.801 54.7008 106.601C53.1008 106.101 51.7008 105.901 50.2008 106.101C49.5008 107.801 48.9008 109.501 48.2008 111.201C49.8008 112.301 51.4008 112.301 53.2008 112.501ZM83.2008 107.001C85.3008 107.401 87.1008 107.301 88.9008 107.201C89.6008 105.401 89.8008 103.701 89.6008 101.801C87.9008 101.701 86.2008 101.601 84.4008 101.501C84.0008 103.501 83.6008 105.201 83.2008 107.001ZM51.8008 98.4007C51.2008 100.301 50.9008 102.201 50.8008 104.201C52.4008 104.701 53.7008 105.401 55.4008 105.101C55.7008 103.101 56.2008 101.201 56.5008 99.1007C55.0008 98.6007 53.5008 98.6007 51.8008 98.4007ZM62.8008 100.001C61.1008 99.7007 59.6008 99.2007 57.8008 99.6007C57.5008 101.601 57.1008 103.501 56.7008 105.601C58.0008 106.201 59.3008 106.201 60.6008 106.201C61.7008 104.301 62.4008 102.301 62.8008 100.001ZM61.7008 107.501C61.2008 109.601 60.2008 111.301 60.0008 113.201C61.7008 113.701 63.2008 114.101 64.9008 113.801C65.4008 111.901 66.0008 110.101 66.2008 107.901C64.6008 107.801 63.3008 107.601 61.7008 107.501ZM71.3008 89.5007C71.0008 91.2007 70.8008 92.7007 70.5008 94.3007C72.2008 95.3007 74.1008 94.6007 76.0008 94.7007C76.3008 93.3007 76.7008 91.9007 77.0008 90.4007C75.1008 89.9007 73.3008 89.4007 71.3008 89.5007ZM78.2008 94.8007C80.2008 95.3007 82.2008 95.1007 84.1008 94.5007C84.6008 93.1007 84.4008 91.8007 84.0008 90.4007C82.2008 90.4007 80.5008 90.4007 78.9008 90.4007C78.4008 91.9007 77.5008 93.1007 78.2008 94.8007ZM77.4008 100.001C79.5008 100.501 81.4008 100.501 83.3008 100.201C83.7008 98.7007 84.0008 97.4007 83.6008 95.9007C81.7008 95.9007 79.9008 95.7007 77.9008 96.0007C77.7008 97.4007 77.5008 98.6007 77.4008 100.001ZM68.1008 100.401C66.5008 100.201 65.5008 100.101 64.3008 100.001C63.6008 102.201 62.9008 104.201 62.1008 106.401C63.7008 106.601 65.1008 106.701 66.4008 106.701C67.1008 104.701 67.6008 102.801 68.1008 100.401ZM84.7008 100.501C86.6008 100.501 88.3008 100.501 90.0008 100.501C90.6008 99.1007 90.7008 97.7007 90.8008 96.2007C88.9008 95.8007 87.1008 95.9007 85.3008 95.9007C85.0008 97.4007 84.8008 98.7007 84.7008 100.501ZM76.4008 95.8007C74.2008 95.6007 72.4008 95.5007 70.5008 95.7007C70.3008 97.0007 70.2008 98.1007 70.2008 99.4007C72.3008 100.001 74.2008 100.001 76.4008 100.001C76.2008 98.5007 76.3008 97.3007 76.4008 95.8007ZM56.6008 106.901C55.9008 109.101 55.3008 110.801 54.7008 112.801C56.2008 113.001 57.3008 113.101 58.6008 113.201C59.3008 111.201 60.1008 109.501 60.3008 107.401C58.9008 107.201 57.8008 107.001 56.6008 106.901ZM52.6008 92.3007C52.4008 94.1007 51.6008 95.5007 52.2008 97.2007C53.8008 97.5007 55.2008 98.2007 56.7008 97.6007C57.0008 96.1007 57.2008 94.7007 56.8008 93.2007C55.4008 92.9007 54.2008 92.6007 52.6008 92.3007ZM94.5008 107.301C94.8008 105.501 95.6008 103.801 95.3008 101.801C93.9008 101.901 92.6008 102.001 91.2008 102.101C90.9008 103.901 90.6008 105.601 90.3008 107.301C91.8008 107.301 93.0008 107.301 94.5008 107.301ZM58.3008 98.1007C60.0008 98.4007 61.5008 98.7007 63.2008 99.0007C63.4008 97.5007 63.5008 96.1007 63.6008 94.7007C61.8008 94.4007 60.2008 94.0007 58.5008 93.7007C58.4008 94.4007 58.3008 94.8007 58.3008 95.3007C58.2008 96.2007 58.3008 97.0007 58.3008 98.1007ZM91.4008 101.001C93.2008 100.801 94.6008 100.701 96.1008 100.601C96.4008 99.1007 96.6008 97.7007 96.9008 96.2007C95.4008 96.2007 94.1008 96.1007 92.9008 96.1007C92.6008 96.1007 91.9008 96.5007 91.9008 96.9007C91.7008 98.2007 91.5008 99.4007 91.4008 101.001ZM92.4008 94.8007C94.0008 95.3007 95.4008 95.5007 97.1008 95.1007C97.1008 93.7007 98.0008 92.6007 97.5008 91.2007C95.9008 90.7007 94.4008 90.7007 92.6008 91.1007C92.6008 92.2007 91.9008 93.4007 92.4008 94.8007ZM91.0008 90.9007C89.1008 90.7007 87.5008 90.6007 85.9008 90.8007C85.8008 92.2007 85.6008 93.4007 85.6008 94.8007C87.4008 94.8007 89.2008 95.1007 90.9008 94.5007C90.9008 93.4007 90.9008 92.2007 91.0008 90.9007ZM65.1008 94.8007C64.6008 96.4007 64.5008 97.6007 64.8008 98.9007C66.0008 99.2007 67.2008 99.6007 68.7008 99.2007C68.8008 97.9007 68.9008 96.7007 69.0008 95.3007C67.5008 95.0007 66.4008 94.9007 65.1008 94.8007ZM57.2008 88.2007C55.5008 87.8007 54.1008 87.4007 52.6008 88.1007C52.6008 89.0007 52.6008 89.8007 52.6008 90.7007C54.0008 91.4007 55.3008 91.9007 56.9008 91.8007C57.0008 90.7007 57.1008 89.5007 57.2008 88.2007Z" fill="black"/>
<path d="M71.3004 76.3008C71.0004 76.2008 70.8004 76.0008 70.7004 76.1008C67.7004 77.1008 64.4004 76.5008 61.4004 76.3008C59.6004 76.2008 57.9004 75.5008 56.6004 73.7008C57.2004 72.6008 57.7004 71.4008 58.3004 70.3008C60.2004 67.3008 62.6004 64.7008 65.6004 62.7008C68.6004 60.8008 71.7004 59.4008 75.0004 58.3008C77.2004 57.5008 79.5004 57.4008 81.8004 57.4008C82.4004 57.4008 83.1004 57.7008 83.6004 58.2008C84.5004 58.9008 85.2004 59.8008 85.9004 60.6008C87.3004 62.4008 88.7004 64.3008 90.1004 66.0008C91.3004 67.5008 92.0004 69.2008 92.3004 71.1008C92.7004 73.4008 91.9004 75.4008 90.8004 77.3008C90.4004 78.1008 90.3004 78.6008 90.6004 79.4008C91.2004 80.7008 91.7004 82.1008 92.4004 83.6008C94.0004 83.4008 95.4004 83.3008 96.9004 83.0008C97.2004 82.9008 97.7004 82.2008 97.9004 81.8008C98.2004 80.2008 98.6004 78.7008 98.7004 77.1008C99.0004 71.0008 100.2 65.1008 101.1 59.2008C101.3 58.0008 101.3 56.7008 101.4 55.5008C101.5 54.4008 100.8 53.7008 99.7004 53.4008C99.1004 53.2008 98.5004 53.1008 97.9004 53.1008C93.5004 53.1008 89.0004 53.1008 84.6004 53.0008C82.9004 53.0008 81.3004 52.8008 79.6004 52.7008C76.1004 52.5008 72.6004 52.7008 69.2004 51.8008C68.9004 51.7008 68.7004 51.7008 68.3004 51.7008C64.4004 51.6008 60.4004 51.5008 56.4004 51.5008C56.0004 51.5008 55.6004 51.5008 55.1004 51.6008C54.8004 54.9008 54.6004 58.2008 54.2004 61.8008C56.6004 60.7008 57.9004 58.5008 60.4004 57.6008C60.3004 58.0008 60.3004 58.2008 60.2004 58.3008C58.4004 59.8008 56.6004 61.3008 54.7004 62.8008C53.8004 63.4008 53.7004 64.2008 53.7004 65.2008C56.2004 63.5008 58.5004 61.8008 60.8004 60.2008C60.9004 60.3008 61.0004 60.4008 61.1004 60.5008C60.7004 60.9008 60.3004 61.4008 59.9004 61.7008C58.2004 63.1008 56.4004 64.6008 54.6004 65.7008C53.6004 66.4008 53.3004 67.1008 53.2004 68.2008C52.8004 72.8008 52.2004 77.4008 51.6004 82.1008C51.5004 82.7008 51.5004 83.3008 50.6004 83.5008C50.5004 83.2008 50.4004 82.8008 50.4004 82.5008C50.8004 79.0008 51.4004 75.5008 51.9004 72.0008C52.6004 65.9008 53.1004 59.8008 53.6004 53.7008C53.6004 53.3008 53.7004 52.8008 53.8004 52.5008C54.1004 50.9008 55.1004 50.3008 56.8004 50.3008C59.7004 50.5008 62.6004 50.6008 65.6004 50.6008C68.1004 50.5008 70.6004 50.7008 73.1004 51.1008C73.7004 51.2008 74.3004 51.3008 74.9004 51.4008C82.6004 51.7008 90.5004 51.9008 98.2004 51.7008C98.3004 51.7008 98.4004 51.7008 98.4004 51.7008C102.1 51.6008 103.2 52.7008 102.9 56.4008C102.6 58.9008 102.1 61.4008 101.8 64.1008C101.3 67.8008 100.9 71.4008 100.5 75.1008C100.2 77.5008 100 80.0008 99.6004 82.3008C99.4004 83.5008 98.6004 84.4008 97.4004 84.5008C95.3004 84.7008 93.2004 84.9008 91.1004 85.0008C86.6004 85.1008 82.1004 85.3008 77.5004 84.8008C73.2004 84.4008 68.9004 84.7008 64.6004 84.4008C62.8004 84.2008 61.0004 84.1008 59.2004 83.8008C57.5004 83.6008 55.9004 83.4008 54.2004 83.1008C53.8004 83.0008 53.2004 83.0008 52.8004 82.8008C52.6004 82.7008 52.5004 82.3008 52.5004 82.0008C52.5004 81.8008 52.8004 81.6008 53.1004 81.6008C53.5004 81.6008 53.9004 81.7008 54.3004 81.8008C58.8004 82.5008 63.3004 83.5008 68.0004 83.3008C69.6004 83.3008 70.0004 83.0008 70.3004 81.6008C70.7004 79.7008 71.0004 78.0008 71.3004 76.3008ZM80.4004 59.0008C77.7004 58.4008 75.5004 59.0008 73.4004 60.0008C70.8004 61.2008 68.3004 62.5008 65.9004 64.0008C64.0004 65.2008 62.2004 66.8008 61.1004 68.9008C62.4004 70.6008 62.7004 72.6008 62.1004 74.8008C64.6004 75.1008 67.0004 75.5008 69.2004 75.0008C73.2004 74.0008 77.1004 72.5008 80.8004 70.4008C79.6004 66.6008 79.0004 62.9008 80.4004 59.0008ZM90.6004 83.9008C90.6004 83.6008 90.7004 83.3008 90.6004 83.1008C89.9004 81.5008 89.3004 80.0008 88.5004 78.4008C88.3004 78.1008 87.6004 77.7008 87.3004 77.9008C86.3004 78.2008 85.7004 77.6008 85.1004 77.1008C83.4004 75.7008 82.1004 74.1008 81.3004 72.1008C79.7004 72.7008 78.3004 73.3008 76.8004 73.8008C76.0004 74.1008 75.2004 74.4008 74.5004 74.7008C73.7004 75.0008 73.4004 75.5008 73.1004 76.2008C72.7004 77.6008 72.4004 79.0008 72.0004 80.5008C74.0004 79.6008 75.0004 77.7008 77.0004 77.2008C76.0004 78.2008 75.0004 79.0008 74.0004 80.0008C71.9004 81.9008 71.9004 81.9008 71.4004 83.4008C72.3004 82.5008 72.9004 81.9008 73.5004 81.4008C74.2004 80.9008 74.8004 80.2008 76.1004 79.9008C75.0004 81.1008 74.2004 81.9008 73.1004 83.0008C79.0004 84.2008 84.8004 83.5008 90.6004 83.9008ZM82.3004 58.8008C82.0004 59.0008 81.9004 59.1008 81.9004 59.1008C80.5004 62.7008 80.6004 66.1008 82.4004 69.5008C82.6004 69.8008 82.7004 70.4008 82.7004 70.8008C82.8004 71.1008 82.8004 71.6008 82.9004 72.2008C83.9004 71.6008 84.9004 71.2008 85.8004 70.6008C85.3004 71.5008 84.6004 72.0008 83.9004 72.6008C83.5004 73.0008 83.5004 73.5008 84.2004 73.7008C85.4004 72.9008 86.4004 71.6008 88.2004 71.1008C87.1004 72.7008 85.2004 73.1008 84.8004 74.8008C86.2004 76.3008 87.8004 76.7008 89.7004 76.5008C91.7004 73.3008 91.6004 70.2008 89.4004 67.3008C87.5004 64.8008 85.5004 62.3008 83.5004 59.7008C83.2004 59.4008 82.7004 59.2008 82.3004 58.8008Z" fill="black"/>
<path d="M107.2 64.8008C106.2 65.6008 105.2 66.3008 103.9 67.2008C104.6 65.5008 105.4 65.0008 107.2 64.8008Z" fill="black"/>
<path d="M72.7004 66.5004C71.4004 66.4004 70.7004 66.0004 70.8004 65.1004C70.9004 64.2004 71.8004 63.4004 72.9004 63.4004C73.8004 63.4004 74.5004 64.1004 74.6004 65.0004C74.6004 66.0004 73.9004 66.5004 72.7004 66.5004Z" fill="black"/>
<path d="M64.3008 69.5002C64.8008 69.3002 65.2008 69.2002 65.4008 69.2002C65.6008 69.2002 65.7008 69.5002 65.8008 69.7002C65.5008 69.9002 65.2008 70.1002 64.8008 70.2002C64.8008 70.1002 64.6008 69.8002 64.3008 69.5002Z" fill="black"/>
<path d="M68.0012 71.4003C67.6012 71.7003 67.4012 71.9003 67.1012 72.0003C67.0012 72.0003 66.7012 71.6003 66.7012 71.6003C66.9012 71.3003 67.0012 71.1003 67.3012 71.0003C67.4012 70.8003 67.7012 71.1003 68.0012 71.4003Z" fill="black"/>
<path d="M68.4 67.9004C68.7 68.2004 69 68.5004 69 68.5004C68.8 68.8004 68.6 68.9004 68.4 69.1004L68.1 68.8004C68 68.5004 68.1 68.2004 68.4 67.9004Z" fill="black"/>
<path d="M56.7012 87.5008C56.6012 87.9008 56.5012 88.5008 56.5012 88.9008C56.6012 90.6008 57.2012 92.2008 58.8012 93.1008C61.4012 94.5008 64.7012 92.5008 64.9012 89.5008C65.0012 88.5008 64.2012 87.5008 63.1012 87.3008C61.5012 87.0008 60.2012 87.3008 59.1012 88.5008C58.8012 88.8008 58.6012 89.4008 58.2012 89.6008C57.9012 89.9008 57.5012 89.9008 57.2012 90.0008C57.5012 87.7008 58.9012 86.3008 61.2012 86.0008C61.9012 85.9008 62.6012 85.9008 63.3012 86.0008C65.6012 86.3008 66.8012 88.6008 65.7012 90.7008C65.3012 91.5008 64.7012 92.3008 64.1012 92.9008C62.4012 94.7008 60.6012 95.0008 58.3012 93.7008C56.2012 92.6008 55.3012 90.5008 55.9012 88.3008C56.0012 88.0008 56.2012 87.6008 56.5012 87.3008C56.6012 87.5008 56.6012 87.5008 56.7012 87.5008Z" fill="#F15748"/>
</svg>
