<svg width="136" height="136" viewBox="0 0 136 136" fill="none" xmlns="http://www.w3.org/2000/svg">
<path d="M48.7997 92.3007C49.8997 93.9007 51.8997 94.6007 53.6997 95.1007C57.1997 96.0007 60.9997 96.3007 64.1997 94.8007C64.7997 94.5007 65.3997 94.0007 65.2997 93.4007C65.1997 93.0007 64.8997 92.7007 64.4997 92.5007C63.6997 92.0007 62.7997 91.7007 61.8997 91.5007C60.8997 91.3007 59.8997 91.3007 58.8997 91.0007C58.0997 90.8007 57.3997 90.5007 56.5997 90.2007C53.7997 89.1007 43.8997 85.5007 48.7997 92.3007Z" fill="#BCBCBB"/>
<path d="M33.6005 49.8005C35.6005 50.9005 37.2005 54.5005 38.8005 56.0005C41.7005 58.8005 42.7005 60.4005 43.0005 64.4005C43.2005 67.9005 48.4005 72.3005 48.7005 75.7005C48.8005 78.0005 47.4005 83.6005 48.0005 85.8005C50.0005 93.4005 54.1005 95.0005 62.0005 95.0005C64.2005 95.0005 67.1005 93.8005 66.8005 91.6005C66.6005 90.2005 65.1005 89.3005 63.6005 89.1005C62.2005 88.9005 60.7005 89.1005 59.3005 88.7005C56.7005 87.9005 55.1005 85.0005 55.0005 82.2005C54.9005 79.4005 56.1005 76.8005 57.4005 74.4005C57.8005 73.7005 58.2005 73.0005 59.0005 72.9005C60.0005 72.7005 60.8005 73.8005 61.3005 74.7005C64.1005 79.7005 68.0005 84.2005 72.5005 87.7005C74.4005 89.2005 76.5005 90.6005 78.9005 91.1005C81.3005 91.6005 84.0005 91.1005 85.7005 89.3005C87.4005 88.4005 86.3005 85.5005 84.5005 84.9005C82.7005 84.3005 80.7005 84.9005 78.7005 85.0005C73.8005 85.2005 69.1005 81.0005 68.8005 76.1005C68.7005 75.0005 68.8005 73.9005 69.4005 73.0005C69.8005 72.4005 70.3005 71.9005 70.9005 71.5005C72.5005 70.2005 74.1005 68.8005 75.7005 67.5005C76.5005 66.9005 77.3005 66.2005 78.2005 65.9005C79.6005 65.4005 81.1005 65.7005 82.5005 66.3005C87.0005 68.4005 88.6005 74.0005 88.7005 79.0005C88.8005 84.7005 87.3005 90.8005 82.9005 94.4005C81.2005 95.8005 78.8005 97.2005 78.8005 99.5005C83.2005 100.6 87.8005 98.1005 90.6005 94.5005C93.4005 90.9005 94.6005 86.5005 95.9005 82.1005C97.1005 77.8005 98.4005 73.3005 101.101 69.7005C103.201 67.0005 106.001 64.9005 108.001 62.1005C110.501 58.6005 111.601 54.2005 114.101 50.7005C115.601 48.5005 117.701 46.7005 119.001 44.4005C120.001 42.5005 120.601 40.4005 120.901 38.3005C121.801 31.3005 119.901 23.4005 114.101 19.2005C111.901 17.6005 109.201 16.7005 106.501 17.1005C103.801 17.5005 101.301 19.3005 100.601 21.9005C102.801 23.4005 105.901 22.2005 108.301 23.3005C109.901 24.0005 110.901 25.6005 111.701 27.1005C113.201 29.7005 114.701 32.5005 114.901 35.5005C115.001 38.5005 113.301 41.8005 110.401 42.5005C107.801 43.1005 105.201 41.5005 103.401 39.7005C101.501 37.8005 100.001 35.6005 97.9005 34.1005C93.3005 30.9005 86.8005 32.1005 81.8005 34.6005C76.8005 37.2005 72.4005 40.9005 67.1005 42.9005C65.8005 43.4005 64.3005 43.8005 62.9005 43.6005C61.4005 43.4005 60.1005 42.7005 58.8005 41.9005C56.4005 40.5005 53.9005 39.1005 51.5005 37.7005C49.8005 36.7005 47.9005 35.0005 48.8005 33.3005C49.2005 32.6005 50.0005 32.2005 50.6005 31.6005C52.4005 29.8005 51.5005 26.5005 49.4005 25.0005C47.3005 23.5005 44.6005 23.3005 42.1005 23.3005C40.1005 23.3005 38.1005 23.3005 36.0005 23.4005C34.7005 23.5005 33.3005 23.6005 32.3005 24.3005C31.3005 24.9005 30.7005 26.0005 29.7005 26.6005C27.9005 27.7005 25.5005 27.0005 23.7005 25.9005C21.6005 24.6005 20.0005 23.0005 18.1005 22.2005C15.7005 21.2005 12.9005 21.5005 10.3005 21.9005C9.00054 26.0005 11.6005 30.8005 15.7005 32.0005C17.0005 32.4005 18.3005 32.4005 19.5005 33.0005C20.7005 33.6005 16.9005 34.1005 16.6005 35.4005C14.4005 35.6005 17.0005 35.7005 14.8005 35.6005C12.6005 35.5005 10.2005 35.9005 8.90054 37.7005C7.00054 40.1005 8.40054 43.8005 11.0005 45.4005C13.6005 47.0005 16.8005 47.0005 19.8005 46.8005C22.3005 46.6005 25.8005 45.4005 28.2005 45.9005C30.4005 46.3005 31.6005 48.7005 33.6005 49.8005Z" fill="white"/>
<path d="M46.6002 39.5005C46.9002 39.5005 47.3002 39.5005 47.5002 39.3005C47.9002 39.0005 47.9002 38.4005 47.9002 38.0005C47.9002 37.0005 47.9002 36.0005 47.9002 34.9005C45.6002 33.7005 42.8002 34.4005 40.3002 34.2005C39.5002 34.1005 36.1002 32.9005 35.5002 33.8005C34.9002 35.0005 38.2002 37.5005 39.0002 38.0005C41.2002 39.2005 44.1002 39.6005 46.6002 39.5005Z" fill="#BCBCBB"/>
<path d="M64.8009 81.9001C66.5009 83.7001 67.6009 85.9001 69.5009 87.6001C72.5009 90.2001 76.7008 90.8001 80.7008 90.6001C81.0008 90.6001 81.2009 90.6001 81.4009 90.4001C81.6009 90.2001 81.6009 90.0001 81.6009 89.8001C81.7009 88.5001 80.6009 87.4001 79.4009 86.9001C78.2009 86.3001 76.9009 86.1001 75.7008 85.6001C72.2008 83.9001 71.1009 79.6001 69.5009 76.1001C69.0009 75.1001 68.5009 74.2001 67.5009 73.8001C67.0009 73.6001 66.4009 73.6001 65.8009 73.5001C63.9009 73.5001 59.1009 73.1001 58.9009 76.0001C58.7009 78.2001 63.3009 80.3001 64.8009 81.9001Z" fill="#BCBCBB"/>
<path d="M86.5011 33.7002C86.9011 34.6002 86.4011 35.7002 85.7011 36.3002C85.0011 37.0002 84.0011 37.3002 83.2011 37.8002C81.1011 38.8002 79.3011 40.3002 77.8011 42.0002C75.5011 44.7002 73.7011 48.3002 70.3011 49.1002C67.7011 49.7002 65.1011 48.4002 62.7011 47.2002C61.1011 46.3002 59.4011 45.5002 57.8011 44.6002C53.2011 42.2002 59.1011 41.4002 61.4011 41.1002C63.8011 40.9002 66.0011 40.8002 68.4011 40.1002C74.5011 38.2002 80.0011 34.4002 86.5011 33.7002Z" fill="#BCBCBB"/>
<path d="M15.2011 24.7003C15.9011 23.9003 17.0011 23.7003 18.0011 23.9003C19.0011 24.1003 19.9011 24.7003 20.7011 25.3003C22.0011 26.2003 24.4011 27.6003 24.2011 29.6003C24.0011 31.2003 21.5011 32.7003 20.0011 32.8003C17.1011 32.8003 12.8011 27.3003 15.2011 24.7003Z" fill="#BCBCBB"/>
<path d="M41.8004 31.0008C41.7004 31.5008 41.5004 32.0008 41.4004 32.6008C42.2004 33.2008 43.2004 33.4008 44.2004 33.4008C46.3004 33.3008 48.3004 32.8008 49.8004 31.1008C50.9004 29.9008 51.5004 27.2008 50.6004 25.3008C50.2004 24.4008 49.4004 23.8008 48.3004 23.7008C46.5004 23.5008 44.6004 23.4008 42.8004 23.2008C41.6004 23.1008 40.5004 23.2008 39.4004 23.6008C38.4004 24.0008 37.4004 24.0008 36.4004 23.9008C34.4004 23.7008 32.8004 24.5008 31.3004 25.8008C31.2004 25.9008 31.1004 25.9008 31.0004 26.0008H30.9004C30.7004 25.6008 30.9004 25.3008 31.2004 25.1008C32.5004 24.0008 33.9004 23.1008 35.6004 23.3008C36.8004 23.4008 38.0004 23.3008 39.2004 22.9008C40.3004 22.5008 41.5004 22.4008 42.7004 22.6008C44.7004 22.8008 46.6004 23.0008 48.6004 23.2008C50.1004 23.4008 51.3004 24.5008 51.6004 26.0008C52.0004 27.7008 51.9004 29.4008 51.1004 31.0008C50.5004 32.3008 49.3004 32.9008 48.1004 33.5008C47.6004 33.7008 47.1004 34.0008 46.6004 34.2008C47.4004 35.2008 48.3004 35.9008 49.2004 36.5008C49.5004 36.7008 49.9004 36.9008 50.2004 37.2008C51.4004 38.3008 52.8004 39.1008 54.1004 39.9008C55.2004 40.5008 56.4004 40.7008 57.6004 40.9008C59.5004 41.1008 61.3004 41.4008 63.2004 40.9008C65.9004 40.1008 68.7004 39.3008 71.4004 38.4008C72.4004 38.1008 73.4004 37.5008 74.3004 37.0008C77.3004 35.6008 80.4004 34.7008 83.6004 33.9008C85.8004 33.3008 88.1004 33.3008 90.4004 33.2008C93.2004 33.0008 95.9004 33.4008 98.5004 34.0008C100.1 34.4008 101.6 35.2008 103.1 35.9008C103.7 36.2008 104.4 36.5008 104.9 36.9008C106.3 37.9008 107.9 38.7008 108.8 40.4008C109 40.7008 109.3 41.0008 109.5 41.4008C109.8 41.2008 110 41.0008 110.2 40.8008C111 39.8008 111.4 38.6008 111.5 37.4008C111.7 35.8008 111.8 34.2008 111.8 32.5008C111.9 29.5008 111.2 26.7008 109 24.4008C108 23.4008 106.9 22.9008 105.4 23.0008C103.5 23.1008 101.7 23.2008 99.8004 23.6008C99.1004 23.7008 98.3004 23.6008 97.6004 23.4008C97.1004 23.3008 96.8004 23.0008 96.6004 22.5008C97.0004 21.8008 97.6004 21.3008 98.3004 20.8008C98.9004 20.4008 99.5004 20.0008 100.1 19.6008C101.4 18.7008 102.5 17.7008 104.1 17.4008C104.6 17.3008 105.2 17.3008 105.7 17.3008C108.3 17.4008 110.7 18.1008 113.1 19.2008C114.4 19.9008 115.4 21.0008 116.2 22.1008C117.9 24.4008 119.2 26.8008 120.2 29.5008C121.5 32.9008 121.6 36.4008 120.8 39.9008C120.7 40.6008 120.3 41.2008 120.1 41.8008C120.1 41.9008 120 42.0008 119.9 42.1008C119.3 44.1008 117.9 45.8008 116.7 47.5008C115.7 49.0008 114.5 50.4008 112.4 50.5008C112.3 50.5008 112.1 50.6008 112 50.6008C111.8 51.5008 111.6 52.4008 111.5 53.4008C111.1 55.8008 110.3 58.1008 108.8 60.1008C108.6 60.4008 108.4 60.8008 108.1 61.0008C107.1 61.9008 106 62.7008 105 63.5008C103.5 64.8008 102.1 66.1008 100.7 67.4008C100.6 67.5008 100.5 67.7008 100.4 67.8008C99.8004 69.0008 99.0004 70.2008 98.8004 71.5008C98.6004 72.6008 98.1004 73.5008 97.8004 74.6008C97.8004 76.0008 97.4004 77.0008 97.0004 78.1008C96.6004 79.1008 96.4004 80.2008 96.1004 81.3008C95.7004 83.5008 95.0004 85.6008 94.3004 87.7008C93.8004 89.1008 93.4004 90.6008 92.9004 92.0008C92.7004 92.5008 92.5004 93.0008 92.0004 93.3008C90.5004 94.3008 89.0004 95.3008 87.5004 96.3008C87.0004 96.6008 86.6004 96.9008 86.2004 97.2008C85.0004 98.2008 83.9004 99.2008 82.8004 100.201C81.7004 101.201 80.3004 101.701 78.8004 101.701C77.0004 101.701 75.4004 99.8008 75.9004 98.1008C76.1004 97.2008 76.8004 96.5008 77.7004 96.0008C79.0004 95.2008 80.4004 94.5008 81.7004 93.7008C83.5004 92.7008 84.3004 91.9008 85.2004 90.4008C85.1004 90.4008 85.0004 90.3008 84.9004 90.4008C83.2004 91.6008 81.3004 91.7008 79.3004 91.6008C77.7004 91.5008 76.1004 91.2008 74.5004 90.8008C73.1004 90.4008 71.8004 90.1008 70.5004 89.5008C69.0004 88.8008 68.0004 87.6008 67.0004 86.3008C65.6004 84.5008 64.2004 82.6008 62.8004 80.8008C61.8004 79.6008 60.7004 78.6008 59.6004 77.6008C59.1004 77.1008 58.7004 76.6008 58.2004 76.1008C58.0004 75.8008 57.9004 75.5008 58.4004 75.2008C59.7004 76.3008 61.0004 77.5008 62.3004 78.7008C63.4004 78.2008 63.8004 76.9008 64.8004 76.4008C64.1004 77.3008 63.5004 78.1008 62.8004 79.1008C62.9004 79.3008 63.1004 79.5008 63.3004 79.7008C64.1004 78.9008 64.8004 78.2008 65.5004 77.5008C65.6004 77.6008 65.6004 77.6008 65.7004 77.7008C65.3004 78.1008 65.0004 78.4008 64.7004 78.8008C64.4004 79.2008 64.0004 79.5008 63.7004 79.9008C63.9004 80.2008 64.1004 80.3008 64.2004 80.5008C64.9004 79.9008 65.5004 79.4008 66.1004 78.8008C65.9004 79.1008 65.7004 79.4008 65.4004 79.7008C65.1004 80.1008 64.8004 80.4008 64.5004 80.8008C65.2004 81.7008 65.8004 82.6008 66.4004 83.4008C67.3004 84.5008 68.2004 85.6008 69.0004 86.7008C69.8004 87.8008 70.9004 88.4008 72.2004 88.8008C74.9004 89.6008 77.7004 90.3008 80.5004 90.6008C82.0004 90.7008 83.3004 90.5008 84.5004 89.6008C84.8004 89.4008 85.1004 89.1008 85.3004 88.8008C85.6004 88.5008 85.7004 87.9008 86.2004 87.6008C86.3004 87.6008 86.3004 87.3008 86.4004 87.1008C87.0004 84.4008 87.6004 81.7008 88.0004 79.0008C88.1004 78.0008 88.3004 77.1008 88.4004 76.1008C88.6004 74.1008 87.9004 72.8008 86.1004 71.9008C85.8004 71.8008 85.6004 71.6008 85.3004 71.5008C83.0004 70.5008 81.7004 68.6008 80.5004 66.5008C80.2004 66.0008 80.0004 65.6008 79.7004 65.0008C78.0004 65.7008 76.7004 66.6008 75.5004 67.9008C75.0004 68.5008 74.4004 69.1008 73.8004 69.6008C72.3004 71.0008 70.7004 72.4008 68.8004 73.1008C68.7004 73.1008 68.6004 73.2008 68.4004 73.3008C68.6004 74.2008 69.1004 75.1008 69.5004 75.9008C70.2004 77.1008 71.0004 78.2008 71.7004 79.4008C72.4004 80.6008 72.9004 81.8008 73.6004 82.9008C74.0004 83.7008 74.7004 84.1008 75.6004 84.4008C77.7004 85.0008 79.8004 85.2008 81.9004 85.4008C82.4004 85.4008 82.7004 85.2008 83.1004 85.0008C83.7004 84.7008 84.3004 84.4008 85.0004 84.1008C85.5004 83.9008 86.0004 84.0008 86.5004 84.5008C85.3004 84.8008 83.9004 84.7008 83.5004 86.1008C80.7004 86.0008 78.0004 85.6008 75.3004 85.0008C74.5004 84.8008 73.8004 84.4008 73.4004 83.7008C73.1004 83.2008 72.7004 82.7008 72.5004 82.1008C71.6004 79.9008 70.2004 78.0008 69.0004 76.0008C68.7004 75.5008 68.4004 74.8008 68.1004 74.3008C67.8004 73.8008 67.5004 73.5008 66.8004 73.6008C65.0004 73.7008 63.1004 73.6008 61.3004 73.8008C60.1004 73.9008 58.9004 74.1008 57.7004 74.3008C56.8004 75.5008 56.6004 76.8008 56.3004 78.1008C55.9004 79.5008 55.6004 81.0008 55.2004 82.4008C55.0004 83.6008 54.8004 84.7008 54.6004 85.9008C54.5004 86.7008 54.8004 87.3008 55.5004 87.8008C56.8004 88.6008 58.0004 89.5008 59.6004 89.5008C59.8004 89.5008 60.1004 89.6008 60.3004 89.7008C60.4004 89.7008 60.4004 89.8008 60.5004 89.9008C59.7004 90.3008 59.0004 90.3008 58.2004 90.1008C56.8004 89.7008 55.6004 89.0008 54.5004 88.1008C53.8004 87.5008 53.5004 86.8008 53.7004 85.9008C54.1004 84.2008 54.4004 82.5008 54.8004 80.8008C55.3004 78.9008 55.8004 77.0008 56.4004 75.1008C56.6004 74.6008 56.2004 74.3008 56.0004 74.1008C56.3004 73.6008 56.6004 73.7008 56.9004 73.7008C57.6004 73.7008 58.3004 73.7008 58.9004 73.6008C61.1004 73.2008 63.4004 73.3008 65.6004 73.2008C66.1004 73.2008 66.6004 73.2008 67.1004 73.1008C67.7004 73.0008 68.2004 72.7008 68.3004 71.9008C68.5004 70.8008 69.0004 69.7008 69.7004 68.8008C69.3004 70.0008 68.6004 71.0008 68.6004 72.4008C69.1004 72.4008 69.3004 72.1008 69.5004 71.7008C70.0004 70.7008 70.5004 69.8008 71.0004 68.9008C71.1004 68.9008 71.1004 69.0008 71.2004 69.0008C70.8004 69.8008 70.4004 70.6008 69.9004 71.6008C70.4004 71.7008 70.7004 71.4008 71.0004 71.1008C72.2004 70.0008 73.4004 68.8008 74.6004 67.7008C75.3004 67.1008 76.0004 66.5008 76.5004 66.1008C76.5004 65.4008 76.5004 64.9008 76.5004 64.4008C76.5004 64.2008 76.5004 64.0008 76.5004 63.9008C76.1004 62.6008 75.8004 61.2008 75.1004 60.1008C74.2004 58.6008 73.7004 56.9008 74.2004 55.1008C74.5004 53.8008 74.9004 52.5008 75.6004 51.3008C76.4004 49.9008 77.1004 48.4008 78.0004 47.0008C79.5004 44.5008 81.6004 42.9008 84.5004 42.3008C86.9004 41.8008 89.3004 41.6008 91.6004 41.0008C94.8004 40.2008 98.0004 39.3008 100.7 37.2008C101 37.0008 101.3 36.7008 101.7 36.4008C101.4 36.2008 101.2 36.0008 101 35.9008C99.0004 34.8008 96.8004 34.4008 94.6004 34.0008C90.7004 33.3008 86.9004 33.7008 83.1004 34.4008C81.9004 34.6008 80.7004 35.2008 79.5004 35.5008C76.8004 36.3008 74.2004 37.4008 71.7004 38.7008C70.7004 39.2008 69.5004 39.5008 68.5004 39.9008C68.1004 40.1008 67.7004 40.3008 67.2004 40.4008C66.8004 40.6008 66.3004 40.8008 65.9004 41.0008C65.8004 40.9008 65.6004 40.8008 65.5004 40.8008C65.1004 40.8008 64.8004 40.9008 64.4004 41.0008C61.6004 42.0008 58.8004 41.7008 56.0004 41.3008C53.4004 40.9008 51.4004 39.6008 49.4004 38.0008C48.7004 37.4008 47.9004 36.9008 47.2004 36.3008C46.6004 35.8008 46.0004 35.2008 45.4004 34.6008C44.9004 34.6008 44.3004 34.7008 43.7004 34.6008C41.0004 34.4008 38.5004 33.6008 36.3004 31.8008C35.6004 31.2008 34.9004 30.6008 34.1004 30.0008C32.9004 29.1008 31.6004 28.5008 30.2004 27.9008C30.0004 27.8008 29.7004 27.7008 29.6004 27.5008C29.3004 26.9008 28.8004 27.0008 28.3004 27.0008C28.2004 27.0008 28.2004 27.0008 28.1004 27.0008C25.3004 27.2008 23.9004 29.0008 23.0004 31.3008C22.5004 32.5008 21.9004 33.4008 20.7004 33.8008C20.3004 33.9008 20.1004 34.2008 19.7004 34.5008C18.5004 34.7008 17.3004 35.0008 16.0004 35.2008C15.2004 35.7008 14.0004 36.0008 12.8004 36.8008C13.6004 37.8008 13.3004 38.9008 12.9004 40.0008C12.5004 41.2008 11.5004 42.0008 10.5004 42.7008C10.3004 42.7008 10.0004 42.8008 9.70043 43.0008C9.90043 44.4008 10.6004 45.4008 11.9004 45.8008C12.5004 46.0008 13.2004 46.1008 13.9004 46.2008C14.9004 46.3008 15.9004 46.4008 16.9004 46.5008C19.5004 46.9008 22.0004 46.4008 24.5004 45.9008C25.8004 45.6008 26.8004 44.8008 27.9004 44.1008C28.1004 44.0008 28.2004 43.8008 28.3004 43.8008C28.4004 43.8008 28.7004 43.8008 28.8004 43.9008C28.9004 44.1008 28.9004 44.3008 28.8004 44.5008C28.7004 44.7008 28.4004 44.8008 28.2004 45.0008C28.5004 45.3008 28.7004 45.6008 28.9004 45.8008C30.0004 44.4008 30.0004 44.3008 31.9004 44.1008C32.4004 44.0008 32.8004 44.1008 33.3004 44.2008C34.9004 44.6008 36.5004 44.5008 38.1004 44.2008C38.8004 44.1008 39.2004 43.8008 39.4004 43.1008C39.9004 41.3008 41.1004 40.3008 42.8004 39.7008C44.3004 39.2008 45.8004 38.5008 47.1004 37.4008C47.2004 37.3008 47.3004 37.3008 47.4004 37.2008C47.5004 37.2008 47.5004 37.2008 47.7004 37.2008C47.8004 37.7008 47.4004 38.0008 47.1004 38.2008C46.1004 38.8008 45.2004 39.6008 44.0004 39.9008C43.2004 40.1008 42.5004 40.5008 41.8004 40.9008C41.2004 41.2008 40.9004 41.8008 40.6004 42.4008C40.3004 42.9008 40.1004 43.4008 39.8004 44.0008C39.6004 44.4008 39.3004 44.6008 38.8004 44.7008C36.9004 45.1008 35.0004 45.3008 33.1004 44.9008C32.2004 44.7008 31.4004 44.9008 30.6004 45.1008C29.8004 45.3008 29.4004 46.4008 29.9004 47.1008C30.7004 48.2008 31.6004 49.2008 32.6004 50.4008C33.0004 49.8008 33.4004 49.4008 33.7004 49.0008L33.8004 49.1008C33.6004 49.5008 33.4004 49.8008 33.2004 50.2008C32.9004 50.7008 33.0004 51.1008 33.6004 51.4008C33.9004 51.0008 34.3004 50.6008 34.6004 50.3008L34.7004 50.4008C34.4004 50.9008 34.1004 51.3008 33.8004 51.9008C35.4004 53.8008 37.5004 55.3008 39.3004 57.1008C39.5004 56.9008 39.7004 56.8008 39.8004 56.6008C40.3004 56.7008 40.5004 57.0008 40.6004 57.4008C40.7004 60.2008 41.8004 62.7008 42.6004 65.3008C43.2004 67.3008 44.0004 69.1008 45.1004 70.9008C45.8004 72.1008 46.8004 73.1008 47.7004 74.2008C48.2004 74.7008 48.3004 75.2008 48.2004 76.0008C48.0004 77.8008 47.9004 79.6008 47.7004 81.4008C47.6004 82.4008 47.5004 83.3008 47.4004 84.3008C47.4004 84.8008 47.4004 85.4008 47.4004 86.1008C47.9004 85.8008 48.3004 85.7008 48.5004 85.5008C49.0004 85.0008 49.4004 84.4008 49.8004 83.8008C50.2004 83.3008 50.4004 82.6008 50.8004 82.2008C51.8004 81.0008 52.0004 79.5008 52.1004 78.0008C52.1004 77.4008 52.1004 76.7008 52.2004 76.1008C52.4004 74.4008 52.0004 72.9008 51.1004 71.5008C50.8004 71.0008 50.6004 70.6008 50.3004 70.1008C49.3004 68.0008 48.1004 66.1008 46.8004 64.1008C46.1004 62.9008 45.5004 61.5008 44.9004 60.2008C44.6004 59.6008 44.4004 58.9008 44.1004 58.3008C43.0004 56.2008 42.8004 53.9008 42.9004 51.6008C43.0004 48.6008 44.3004 46.0008 45.5004 43.4008C46.1004 42.1008 46.7004 41.0008 47.4004 39.7008C47.5004 39.5008 47.7004 39.4008 48.0004 39.3008C48.0004 39.5008 48.0004 39.6008 47.9004 39.8008C46.6004 42.1008 45.4004 44.5008 44.5004 47.0008C44.0004 48.4008 43.6004 49.9008 43.5004 51.4008C43.5004 52.4008 43.5004 53.3008 43.6004 54.3008C43.8004 55.8008 44.2004 57.3008 44.9004 58.6008C45.5004 59.6008 45.8004 60.8008 46.3004 61.9008C47.2004 63.6008 48.3004 65.2008 49.2004 66.9008C50.1004 68.4008 50.9004 70.0008 51.8004 71.5008C52.5004 72.8008 52.8004 74.2008 52.7004 75.7008C52.6004 77.1008 52.5004 78.4008 52.4004 79.8008C52.3004 80.7008 52.0004 81.5008 51.5004 82.3008C50.9004 83.1008 50.4004 84.1008 49.8004 85.0008C49.2004 85.9008 48.6004 86.6008 47.4004 86.7008C47.2004 88.6008 47.6004 90.4008 48.4004 92.0008C48.7004 92.6008 49.3004 93.2008 49.9004 93.5008C51.4004 94.4008 53.0004 95.3008 54.9004 95.4008C55.4004 94.5008 55.6004 93.4008 56.5004 92.8008C56.3004 93.2008 56.1004 93.5008 55.9004 93.9008C55.8004 94.2008 55.6004 94.6008 55.5004 94.9008C55.5004 95.0008 55.5004 95.2008 55.5004 95.3008C55.5004 95.4008 55.6004 95.4008 55.6004 95.5008C55.8004 95.5008 55.9004 95.6008 56.1004 95.6008C56.5004 94.7008 56.9004 93.9008 57.3004 93.1008C57.4004 93.1008 57.4004 93.2008 57.5004 93.2008C57.3004 93.9008 57.0004 94.6008 56.7004 95.4008C57.5004 95.5008 57.8004 94.9008 58.5004 94.8008C58.5004 95.0008 58.5004 95.2008 58.5004 95.5008C60.4004 95.2008 62.3004 95.3008 64.1004 94.7008C64.2004 94.7008 64.4004 94.6008 64.5004 94.5008C64.3004 94.1008 63.7004 93.8008 64.3004 93.4008C64.8004 93.1008 64.9004 93.8008 65.3004 93.9008C66.0004 93.7008 66.4004 93.1008 66.6004 92.4008C66.9004 91.4008 66.0004 90.1008 64.8004 89.8008C63.7004 89.6008 62.6004 89.7008 61.5004 89.8008C61.1004 89.8008 60.6004 89.9008 60.2004 89.8008C60.1004 89.8008 60.0004 89.6008 59.7004 89.4008C60.0004 89.3008 60.2004 89.2008 60.4004 89.2008C61.5004 89.1008 62.7004 88.9008 63.8004 88.8008C64.4004 88.8008 65.0004 88.9008 65.5004 89.2008C67.3004 90.4008 67.9004 91.6008 66.7004 93.4008C66.1004 94.4008 65.2004 95.0008 64.0004 95.3008C63.0004 95.6008 62.0004 95.7008 60.9004 95.8008C59.7004 95.9008 58.5004 96.1008 57.4004 96.3008C56.0004 96.6008 54.6004 96.5008 53.2004 96.1008C51.4004 95.6008 49.6004 94.9008 48.2004 93.7008C48.1004 93.6008 48.0004 93.6008 48.0004 93.5008C47.1004 92.0008 45.8004 90.7008 45.9004 88.8008C46.0004 86.4008 46.0004 84.0008 46.1004 81.6008C46.2004 79.7008 46.2004 77.7008 46.4004 75.8008C46.4004 75.1008 46.2004 74.7008 45.8004 74.3008C45.7004 74.2008 45.7004 74.2008 45.7004 74.1008C44.2004 72.8008 43.3004 71.1008 42.5004 69.3008C42.0004 68.1008 41.6004 66.9008 41.2004 65.7008C40.4004 63.6008 39.7004 61.4008 39.3004 59.2008C39.2004 58.8008 39.1004 58.5008 38.7004 58.4008C37.3004 57.7008 36.1004 56.7008 35.1004 55.6008C34.0004 54.4008 32.8004 53.2008 31.7004 52.0008C30.1004 50.0008 28.5004 48.0008 26.9004 45.9008C26.9004 45.9008 26.7004 45.9008 26.6004 46.0008C24.8004 47.2008 22.7004 47.5008 20.5004 47.8008C18.7004 48.0008 16.9004 48.0008 15.1004 47.7008C15.0004 47.0008 14.1004 46.9008 13.3004 46.8008C10.3004 46.5008 9.20043 44.9008 8.70043 42.0008C8.60043 41.6008 8.70043 41.2008 8.70043 40.8008C8.70043 40.5008 8.70043 40.1008 8.60043 39.8008C8.20043 38.8008 8.70043 38.1008 9.20043 37.4008C9.40043 37.2008 9.70043 37.0008 10.0004 36.9008C10.9004 36.5008 11.8004 36.3008 12.7004 35.9008C14.2004 35.3008 15.7004 34.7008 17.3004 34.5008C17.4004 34.5008 17.5004 34.4008 17.7004 34.3008C17.4004 33.8008 16.9004 33.6008 16.5004 33.4008C15.1004 32.6008 14.0004 31.4008 13.0004 30.2008C11.7004 28.5008 11.1004 26.6008 11.1004 24.4008C11.1004 24.0008 11.3004 23.5008 11.5004 23.1008C11.8004 22.6008 12.1004 22.0008 12.5004 21.6008C12.9004 21.3008 13.4004 21.0008 13.9004 20.7008C15.7004 19.9008 17.4004 20.0008 19.1004 21.2008C20.5004 22.2008 21.8004 23.3008 22.8004 24.8008C23.2004 25.4008 23.8004 25.8008 24.5004 26.0008C25.1004 26.2008 25.6004 26.4008 26.1004 26.5008C26.4004 26.6008 26.7004 26.5008 27.0004 26.5008C27.7004 26.4008 28.5004 26.2008 29.2004 26.1008C29.5004 26.1008 29.8004 26.2008 30.1004 26.3008C30.9004 26.7008 31.7004 27.3008 32.6004 27.6008C33.6004 28.1008 34.6004 28.6008 35.5004 29.3008C36.8004 30.4008 38.3004 31.3008 39.8004 32.0008C40.1004 32.1008 40.5004 32.3008 40.7004 32.4008C41.2004 32.0008 41.5004 31.5008 41.8004 31.0008ZM115.4 47.6008C115.8 47.2008 116.2 46.9008 116.4 46.5008C117.6 44.9008 118.5 43.2008 119.1 41.3008C119.7 39.4008 120.2 37.4008 120.3 35.4008C120.4 33.6008 120.4 31.8008 119.7 30.2008C119 28.4008 118.1 26.6008 117.1 24.8008C116.4 23.5008 115.7 23.3008 114.2 23.8008C114.1 23.8008 113.9 24.0008 113.8 24.0008C113.4 24.1008 113 24.1008 112.6 24.1008C112.4 24.1008 112.2 24.0008 112 23.9008C111.6 23.8008 111.2 23.8008 110.9 24.2008C110.6 24.6008 110.6 24.9008 110.8 25.3008C110.9 25.5008 111 25.7008 111.1 25.9008C112.2 28.2008 112.7 30.7008 112.5 33.3008C112.4 34.3008 112.2 35.2008 112.2 36.2008C112.3 37.7008 111.7 39.0008 111.2 40.4008C110.9 41.1008 110.5 41.7008 109.7 42.1008C109 41.3008 108.3 40.6008 107.6 39.8008C107 39.1008 106.3 38.6008 105.4 38.3008C104.7 38.7008 104.4 39.5008 103.7 39.9008C103.6 39.8008 103.6 39.8008 103.5 39.7008C104 39.2008 104.5 38.6008 105.1 38.0008C104.3 37.2008 103.3 37.0008 102.5 36.6008C101.8 37.1008 101.2 37.5008 100.6 38.0008C99.1004 39.1008 97.5004 39.9008 95.7004 40.4008C94.5004 40.7008 93.4004 41.1008 92.2004 41.4008C89.4004 42.0008 86.5004 42.4008 83.7004 43.2008C82.4004 43.6008 81.2004 44.2008 80.3004 45.2008C79.5004 46.2008 78.7004 47.2008 78.1004 48.3008C77.2004 49.9008 76.3004 51.5008 75.6004 53.2008C74.8004 54.9008 74.6004 56.7008 75.4004 58.6008C75.6004 59.0008 75.8004 59.4008 76.0004 59.8008C76.8004 61.4008 77.5004 63.1008 77.4004 65.0008C77.4004 65.2008 77.5004 65.4008 77.5004 65.7008C78.2004 65.4008 78.8004 65.1008 79.4004 64.7008C78.9004 62.8008 78.5004 61.1008 78.8004 59.2008C79.1004 57.1008 79.8004 54.5008 80.4004 53.9008C80.4004 54.2008 80.5004 54.4008 80.5004 54.6008C80.4004 55.1008 80.2004 55.6008 80.0004 56.2008C79.5004 57.9008 79.2004 59.7008 79.4004 61.5008C79.6004 63.5008 80.5004 65.3008 81.5004 67.0008C81.6004 67.3008 81.9004 67.5008 82.1004 67.7008C83.0004 67.1008 83.4004 66.2008 84.3004 65.8008C83.8004 66.4008 83.3004 67.0008 82.9004 67.5008C82.6004 67.8008 82.4004 68.2008 82.8004 68.6008C83.6004 68.2008 84.0004 67.4008 84.9004 66.9008C84.3004 67.8008 83.4004 68.2008 83.1004 69.2008C83.4004 69.7008 83.8004 70.1008 84.4004 70.3008C84.8004 70.0008 85.2004 69.7008 85.6004 69.4008C87.1004 68.3008 89.7004 68.6008 90.5004 70.6008C90.8004 71.4008 91.1004 72.1008 91.3004 72.9008C91.5004 73.9008 91.9004 74.9008 92.5004 75.8008C93.0004 76.4008 93.0004 77.0008 93.0004 77.7008C93.0004 79.3008 92.6004 80.8008 92.0004 82.2008C91.3004 83.9008 90.2004 85.4008 88.4004 86.1008C87.4004 86.5008 87.1004 87.1008 86.9004 88.0008C86.8004 88.4008 86.8004 88.8008 86.6004 89.2008C86.5004 89.6008 86.3004 90.0008 86.1004 90.4008C84.5004 92.7008 82.4004 94.4008 79.9004 95.6008C79.1004 96.0008 78.3004 96.5008 77.6004 97.0008C77.1004 97.4008 76.6004 97.9008 76.5004 98.5008C76.8004 99.0008 77.0004 99.5008 77.3004 100.001C77.6004 99.6008 77.9004 99.3008 78.2004 99.0008C77.8004 100.601 77.8004 100.601 78.2004 101.001C78.5004 100.401 78.7004 99.7008 79.5004 99.3008C79.3004 100.001 78.7004 100.401 78.8004 101.101C79.3004 101.301 79.6004 101.001 80.0004 100.701C81.9004 99.6008 83.6004 98.3008 85.3004 97.0008C85.9004 96.5008 86.3004 96.1008 86.3004 95.2008C86.3004 94.8008 86.2004 94.3008 86.7004 94.0008C86.7004 94.6008 86.7004 95.2008 86.7004 96.0008C87.3004 95.6008 87.7004 95.3008 88.0004 95.1008C88.1004 94.5008 87.8004 94.0008 88.2004 93.5008C88.3004 94.0008 88.4004 94.3008 88.5004 94.8008C89.3004 94.4008 89.9004 94.0008 90.5004 93.6008C91.2004 93.1008 91.8004 92.5008 92.0004 91.6008C92.4004 90.3008 92.9004 88.9008 93.3004 87.6008C93.4004 87.4008 93.4004 87.3008 93.4004 87.1008C93.7004 85.3008 94.2004 83.5008 94.8004 81.8008C95.0004 81.2008 95.2004 80.6008 95.3004 80.0008C95.7004 77.5008 96.3004 75.1008 97.1004 72.7008C97.8004 70.6008 98.9004 68.8008 99.7004 66.7008C99.9004 66.1008 100.3 65.7008 100.9 65.4008C101 65.7008 101.1 65.9008 101.2 66.2008C101.6 65.8008 101.9 65.5008 102.2 65.3008C103.8 63.8008 105.2 62.2008 106.9 60.9008C107.3 60.6008 107.5 60.1008 107.8 59.7008C108.6 58.5008 109.3 57.2008 109.8 55.8008C110 55.1008 110.3 54.4008 110.5 53.8008C110.9 52.3008 111 50.7008 110.9 49.1008C110.9 48.6008 110.8 48.1008 111.4 47.7008C111.8 48.4008 111.5 49.3008 111.8 49.9008C113.2 49.8008 113.5 49.6008 113.4 48.3008C113.3 47.2008 113.1 46.2008 113 45.1008C113 45.0008 113 44.9008 113.1 44.8008C113.3 44.8008 113.4 44.8008 113.5 44.8008C113.6 44.8008 113.8 44.8008 113.9 44.8008C114.9 45.4008 114.8 46.6008 115.4 47.6008ZM19.9004 33.8008C21.8004 33.0008 22.3004 32.7008 23.0004 30.7008C23.5004 29.3008 24.3004 28.0008 25.4004 26.9008C25.1004 26.8008 24.9004 26.7008 24.7004 26.8008C24.0004 27.0008 23.6004 26.6008 23.2004 26.2008C22.9004 25.9008 22.6004 25.7008 22.4004 25.3008C21.4004 23.8008 20.0004 22.7008 18.6004 21.7008C17.4004 20.9008 16.1004 20.6008 14.8004 21.2008C14.4004 21.3008 14.1004 21.5008 13.7004 21.7008C12.4004 22.4008 11.7004 23.8008 11.8004 25.3008C12.0004 27.8008 13.2004 29.8008 15.0004 31.5008C15.1004 31.6008 15.2004 31.6008 15.4004 31.7008C15.9004 31.0008 16.3004 30.4008 16.7004 29.7008C16.8004 29.7008 16.8004 29.8008 16.9004 29.8008C16.7004 30.2008 16.4004 30.6008 16.2004 31.0008C16.0004 31.4008 15.5004 31.8008 16.0004 32.4008C16.8004 31.7008 17.2004 30.7008 18.2004 30.2008C17.6004 31.0008 16.9004 31.7008 16.5004 32.8008C17.7004 33.1008 18.8004 33.5008 19.9004 33.8008ZM98.1004 22.5008C98.2004 23.0008 98.5004 23.0008 98.8004 23.0008C99.8004 23.0008 100.9 22.9008 101.9 22.8008C103.4 22.7008 104.8 22.5008 106.3 22.4008C106.7 22.4008 107.2 22.5008 107.6 22.7008C108.5 23.2008 109.4 23.7008 110.4 24.2008C111 23.3008 111.8 23.3008 112.8 23.6008C113.2 23.7008 113.7 23.6008 114.2 23.5008C114.7 23.4008 115.1 23.1008 115.6 22.9008C114.6 21.4008 113.5 20.0008 111.5 19.6008C111.3 19.6008 111 19.5008 110.9 19.4008C110.6 18.8008 110 18.7008 109.4 18.6008C108.7 18.3008 107.8 18.2008 107 18.0008C105.6 17.7008 104.1 17.9008 102.9 18.7008C101.2 19.8008 99.7004 21.1008 98.1004 22.3008C98.1004 22.4008 98.1004 22.4008 98.1004 22.5008ZM85.6004 70.7008C86.3004 71.3008 86.9004 71.9008 87.6004 72.3008C88.9004 73.1008 89.4004 74.2008 89.3004 75.6008C89.2004 76.9008 89.0004 78.1008 88.8004 79.3008C88.5004 81.4008 88.1004 83.4008 87.8004 85.5008C88.8004 85.5008 89.4004 85.0008 89.9004 84.3008C91.7004 82.3008 92.4004 80.0008 92.4004 77.4008C92.4004 76.9008 92.2004 76.5008 91.9004 76.1008C91.2004 75.1008 90.9004 74.1008 90.6004 72.9008C90.4004 72.1008 90.2004 71.4008 89.9004 70.7008C89.1004 69.0008 86.7004 68.9008 85.6004 70.7008ZM114.2 45.0008C114.2 46.1008 114.3 47.2008 114.4 48.4008C114.9 48.3008 114.9 48.0008 114.9 47.6008C114.7 46.7008 114.4 45.9008 114.2 45.0008Z" fill="black"/>
<path d="M50.6004 39C50.6004 39.3 50.6004 39.5 50.6004 39.8C50.4004 41.6 50.2004 43.3 50.1004 45.1C50.0004 46.7 50.7004 48 52.2004 48.7C52.7004 48.9 53.1004 49.2 53.6004 49.4C54.7004 49.9 55.2004 50.7 55.3004 51.9C55.4004 53 55.1004 54 54.8004 55C54.7004 55.4 54.5004 55.9 54.4004 56.3C54.2004 57.2 54.4004 57.9 55.2004 58.3C56.0004 58.7 56.9004 59 57.8004 59.3C58.5004 59.5 59.2004 59.8 59.6004 60.4C60.3004 61.2 60.7004 62.2 60.8004 63.2C60.9004 64.2 61.0004 65.1 61.2004 66.1C61.5004 67.5 62.3004 68.6 63.4004 69.5C63.9004 69.9 64.4004 70.2 64.9004 70.6C65.2004 70.8 65.5004 71.1 65.7004 71.5C65.5004 71.5 65.2004 71.5 65.0004 71.4C63.5004 70.7 62.1004 69.7 61.2004 68.3C61.0004 68 60.7004 67.5 60.6004 67.1C60.4004 66 60.1004 65 60.1004 63.9C60.0004 62.9 59.7004 62.1 59.2004 61.3C58.8004 60.5 58.0004 60.2 57.2004 60C56.3004 59.8 55.3004 59.5 54.5004 58.9C53.4004 58 53.2004 57.3 53.6004 56C54.0004 54.9 54.3004 53.9 54.5004 52.8C54.8004 51.5 54.4004 50.7 53.2004 50.1C52.7004 49.9 52.2004 49.6 51.8004 49.4C50.7004 48.8 50.0004 48 49.6004 46.8C49.5004 46.5 49.4004 46.2 49.4004 45.9C49.6004 43.8 49.9004 41.8 50.1004 39.7C50.1004 39.5 50.3004 39.3 50.4004 39.1C50.4004 39 50.5004 39 50.6004 39Z" fill="black"/>
<path d="M23 45.9003C22.6 45.9003 22.5 45.5003 22.5 45.2003C22.6 44.6003 22.6 44.0003 22.8 43.5003C23.2 42.4003 23.1 41.5003 22.3 40.7003C22 40.4003 21.8 40.1003 21.5 39.9003C20.9 39.4003 20.5 38.7003 20.3 37.9003C20.1 37.0003 19.8 36.3003 19.1 35.8003C19 35.8003 19 35.6003 19 35.5003C19.2 35.1003 19.4 35.1003 19.7 35.3003C20.2 35.6003 20.6 36.1003 20.7 36.7003C21 38.1003 21.7 39.1003 22.8 40.0003C23.9 41.0003 24.2 42.2003 23.7 43.6003C23.2 44.4003 23.2 45.2003 23 45.9003Z" fill="black"/>
<path d="M27 34.3009C26.9 34.6009 26.7 35.0009 26.4 35.4009C26.1 35.8009 25.5 35.9009 25.1 35.7009C24.6 35.5009 24.3 34.8009 24.4 34.4009C24.5 34.0009 24.7 33.7009 25 33.4009C25.3 33.0009 25.8 32.9009 26.2 33.0009C26.7 33.2009 26.9 33.6009 27 34.3009Z" fill="black"/>
<path d="M127.4 70.4004C127.2 70.0004 126.8 69.9004 126.4 69.9004H125.9C124.2 70.1004 122.3 70.2004 120.3 70.2004C119.1 70.2004 117.9 70.2004 116.5 70.1004C113.4 69.9004 110.2 69.9004 107.2 69.9004H107.1C106.1 69.9004 105.2 70.0004 104.3 70.1004C104.1 70.1004 104 70.1004 103.9 70.2004C103.8 70.2004 103.7 70.2004 103.5 70.2004C103.3 70.2004 103.1 70.3004 102.9 70.4004C102.8 70.4004 102.8 70.5004 102.8 70.5004L102 70.8004L102.8 71.1004C102.9 71.2004 103.3 71.3004 103.7 71.3004H104C105.4 71.1004 106.7 71.0004 108 71.0004H109.1C109.4 71.0004 109.8 71.0004 110.1 71.0004C110.5 71.0004 110.9 71.1004 111.3 71.1004H116.8C117.3 71.1004 117.8 71.1004 118.3 71.2004C118.8 71.2004 119.4 71.2004 119.9 71.2004C120.4 71.2004 121 71.3004 121.5 71.3004C122.6 71.3004 123.6 71.3004 124.4 71.2004H126.7C126.8 71.2004 127 71.2004 127.1 71.1004C127.2 71.1004 127.2 71.1004 127.2 71.1004H127.4L128 70.9004L127.4 70.4004Z" fill="#F15748"/>
<path d="M121.1 75.5C121 75.3 120.9 75.2 120.8 75.1C120.7 75 120.3 74.9 119.9 74.9C118.7 74.9 117.4 74.8 116.2 74.7C114.9 74.6 113.5 74.5 112.2 74.5H110.2C108.7 74.5 107.3 74.6 106.1 74.8H106C105.7 74.8 105.1 74.9 104.8 75.6L104.5 76.2H105.1C105.5 76.2 106.1 76.1 106.4 76C106.9 75.9 107.3 75.9 107.7 75.8C108.1 75.8 108.5 75.7 108.9 75.7H115.7C115.8 75.7 116 75.7 116.7 75.8C117.2 75.9 117.6 75.9 118.1 75.9C118.5 75.9 119 75.9 119.5 76C119.7 76 119.9 76 120.1 76C120.3 76 120.5 76.1 120.7 76.1H121.3L121.1 75.5Z" fill="#F15748"/>
<path d="M77.6 25.6004C77.4 25.4004 77.1 25.4004 76.9 25.4004H76.7C76.4 25.4004 76.1 25.4004 75.8 25.5004C75.5 25.5004 75.3 25.5004 74.9 25.6004C74.5 25.6004 74.1 25.7004 73.7 25.7004C73.3 25.7004 72.8 25.8004 72.5 25.8004H72.2C70.4 25.9004 68.7 26.0004 66.9 26.0004C66.4 26.0004 66 26.0004 65.5 26.0004C65 26.0004 64.6 26.0004 64.1 26.0004C63.5 26.0004 62.9 26.0004 62.2 26.1004C61.6 26.1004 61 26.1004 60.4 26.1004C60.3 26.1004 60.2 26.1004 60.1 26.2004C60 26.2004 59.9 26.2004 59.8 26.2004C59.7 26.2004 59.7 26.2004 59.6 26.3004H59.5L59 26.4004L59.3 26.8004C59.5 27.2004 59.9 27.5004 60.3 27.5004C60.4 27.5004 60.6 27.5004 60.8 27.4004C61.7 27.1004 62.5 27.0004 63.5 27.0004C63.7 27.0004 63.9 27.0004 64.2 27.0004H66C68.2 26.9004 70.2 26.8004 72.2 26.8004H73.5C73.8 26.8004 74.1 26.8004 74.4 26.7004C74.7 26.7004 74.9 26.7004 75.2 26.7004C76 26.7004 76.6 26.7004 77.2 26.9004H77.5L77.6 26.6004C77.7 26.1004 77.7 25.9004 77.6 25.6004Z" fill="#F15748"/>
<path d="M74.2012 30.5004C74.1012 30.6004 74.1012 30.6004 74.0012 30.6004C73.9012 30.6004 73.8012 30.6004 73.7012 30.6004C73.6012 30.6004 73.5012 30.5004 73.4012 30.5004H72.7012C70.3012 30.4004 67.8012 30.4004 65.4012 30.4004C64.8012 30.4004 64.1012 30.5004 63.7012 30.6004L63.4012 30.7004C63.2012 30.7004 63.1012 30.9004 63.0012 31.0004C63.0012 31.0004 63.0012 31.1004 62.9012 31.1004L62.7012 31.3004V31.7004L62.9012 32.1004L63.2012 32.0004C64.7012 31.7004 66.4012 31.5004 68.4012 31.5004H71.6012C72.7012 31.5004 73.6012 31.5004 74.4012 31.4004L77.2012 31.1004L74.2012 30.5004Z" fill="#F15748"/>
<path d="M42.4008 75.2004C42.3008 75.2004 42.3008 75.2004 42.2008 75.2004V75.1004C42.1008 75.0004 42.0008 74.9004 41.8008 74.9004C38.0008 75.4004 34.2008 75.6004 29.7008 75.8004C29.6008 75.8004 29.6008 75.8004 29.5008 75.9004H29.4008H29.3008L29.2008 76.0004L28.3008 76.6004L29.3008 76.7004H30.4008C33.3008 76.7004 40.3008 76.2004 42.2008 75.8004L43.0008 75.6004L42.4008 75.2004Z" fill="#F15748"/>
<path d="M40.3012 80.2002C39.8012 80.2002 39.4012 80.2002 39.0012 80.3002C38.7012 80.3002 38.4012 80.3002 38.1012 80.4002H35.8012C34.9012 80.4002 33.9012 80.4002 33.0012 80.5002C31.9012 80.5002 30.8012 80.6002 29.7012 80.7002H29.0012C28.6012 80.7002 28.1012 80.8002 27.6012 81.5002L27.2012 82.2002L28.0012 82.0002C28.2012 82.0002 28.3012 82.0002 28.5012 81.9002C28.6012 81.9002 28.8012 81.9002 29.0012 81.9002H29.3012C29.8012 81.8002 30.2012 81.7002 30.6012 81.7002C32.4012 81.6002 34.0012 81.5002 36.0012 81.5002C37.8012 81.5002 39.3012 81.3002 40.5012 81.0002L43.0012 80.3002L40.3012 80.2002Z" fill="#F15748"/>
<path d="M63.9015 90.8008C64.5015 90.8008 65.0015 91.1008 65.1015 91.6008C65.2015 92.0008 65.0015 92.3008 64.5015 92.6008C64.2015 92.7008 63.8015 92.8008 63.5015 92.8008C62.8015 92.8008 62.4015 92.2008 62.8015 91.5008C63.0015 91.0008 63.4015 90.8008 63.9015 90.8008Z" fill="black"/>
<path d="M27 31.4002C27.3 31.2002 27.4 31.0002 27.6 31.0002C28.3 30.9002 29.4 31.4002 30 31.9002C29.4 32.2002 28.3 32.0002 27 31.4002Z" fill="black"/>
<path d="M41.501 29.8008C41.201 30.5008 40.901 31.2008 40.501 32.1008C40.401 31.1008 40.701 30.5008 41.501 29.8008Z" fill="black"/>
<path d="M16.4 40.0002C16.4 40.1002 16.4 40.1002 16.4 40.2002C16.2 40.6002 16 40.8002 15.6 40.6002C15.5 40.6002 15.5 40.3002 15.5 40.2002C15.7 39.9002 16.1 39.9002 16.4 40.0002Z" fill="black"/>
<path d="M41.8008 31.1008C42.0008 30.3008 42.1008 30.1008 42.9008 29.3008C42.6008 30.1008 42.4008 30.4008 41.8008 31.1008Z" fill="black"/>
<path d="M67.1004 41.5C66.9004 42.2 66.7004 42.9 66.4004 43.5C66.4004 42.8 66.5004 42.1 67.1004 41.5Z" fill="black"/>
<path d="M65.7012 91.7008C65.9012 91.5008 66.1012 91.3008 66.2012 91.3008C66.4012 91.4008 66.5012 91.6008 66.7012 91.8008C66.6012 91.9008 66.4012 92.1008 66.3012 92.1008C66.1012 92.1008 66.0012 91.9008 65.7012 91.7008Z" fill="black"/>
<path d="M65.4996 90.3004C65.2996 90.5004 65.0996 90.7004 64.9996 90.7004C64.8996 90.7004 64.5996 90.5004 64.5996 90.3004C64.5996 90.2004 64.7996 89.9004 64.8996 89.9004C65.0996 89.9004 65.2996 90.1004 65.4996 90.3004Z" fill="black"/>
<path d="M65.9003 42.1006C65.8003 42.6006 65.7003 43.0006 65.5003 43.5006C65.3003 42.9006 65.5003 42.5006 65.9003 42.1006Z" fill="black"/>
<path d="M17.2 42.1006C17.4 42.3006 17.5 42.4006 17.5 42.5006C17.5 42.6006 17.3 42.8006 17.2 42.9006C17.2 42.9006 17 42.8006 17 42.7006C17.1 42.5006 17.1 42.4006 17.2 42.1006Z" fill="black"/>
<path d="M67.6996 40.4004C67.7996 40.5004 67.8996 40.7004 67.7996 40.7004C67.5996 41.0004 67.2996 41.3004 67.0996 41.5004C67.2996 41.2004 67.4996 40.8004 67.6996 40.4004Z" fill="black"/>
<path d="M17.5996 40.0006C17.6996 39.8006 17.7996 39.6006 17.8996 39.6006C17.9996 39.6006 18.1996 39.7006 18.2996 39.8006L18.1996 40.1006C17.9996 40.1006 17.7996 40.1006 17.5996 40.0006Z" fill="black"/>
<path d="M65.9004 42.1004C66.1004 41.7004 66.2004 41.3004 66.4004 40.9004C66.5004 41.4004 66.3004 41.8004 65.9004 42.1004Z" fill="black"/>
<path d="M41.5 29.8004C41.6 29.5004 41.8 29.2004 41.9 28.9004C42 28.9004 42 29.0004 42.1 29.0004C41.9 29.3004 41.7 29.5004 41.5 29.8004Z" fill="black"/>
<path d="M35.3008 49.4C35.4008 49.3 35.5008 49.1 35.6008 49L35.7008 49.1C35.6008 49.2 35.5008 49.4 35.3008 49.4C35.4008 49.5 35.3008 49.5 35.3008 49.4Z" fill="black"/>
<path d="M66 78.9008C66.1 78.7008 66.3 78.5008 66.4 78.3008C66.5 78.4008 66.5 78.4008 66.6 78.5008C66.4 78.6008 66.2 78.7008 66 78.9008Z" fill="black"/>
<path d="M106.201 39.3008C105.901 39.7008 105.601 40.1008 105.301 40.5008C105.301 39.8008 105.301 39.8008 106.201 39.3008Z" fill="black"/>
<path d="M25.8996 33.8004C25.8996 34.0004 25.6996 34.2004 25.4996 34.2004C25.2996 34.2004 25.0996 34.0004 25.0996 33.8004C25.0996 33.6004 25.2996 33.4004 25.4996 33.4004C25.6996 33.4004 25.8996 33.5004 25.8996 33.8004Z" fill="white"/>
<path d="M9.60078 39.5006C9.80078 38.7006 10.5008 38.1006 11.3008 38.0006C11.4008 38.0006 11.5008 37.9006 11.5008 37.8006C11.5008 37.7006 11.4008 37.6006 11.3008 37.6006C10.3008 37.7006 9.50078 38.5006 9.30078 39.4006C9.30078 39.5006 9.30078 39.6006 9.50078 39.7006C9.50078 39.7006 9.60078 39.7006 9.60078 39.5006Z" fill="white"/>
<path d="M65.9009 118.1C66.8009 118.1 67.7009 118.2 68.6009 118.1C71.8009 118 74.9009 117.9 78.1009 117.9C81.3009 117.9 84.4009 117.9 87.6009 117.8C88.3009 117.8 89.1009 117.7 89.8009 117.7C90.0009 117.7 90.3009 117.7 90.5009 117.7C94.1009 117.5 98.0009 117.1 100.601 114.7C101.301 114 101.901 113.1 102.001 112.2C102.001 110.9 101.001 109.7 99.7009 109.2C98.5009 108.7 97.1009 108.7 95.8009 108.8L62.7009 109.6C59.5009 109.7 56.2009 109.8 53.3009 111.1C51.5009 111.9 49.8009 113.9 50.8009 115.5C51.4009 116.4 52.5009 116.6 53.5009 116.8C57.7009 117.5 61.9009 117.9 66.1009 118.1H65.9009Z" fill="#BCBCBB"/>
</svg>
