<svg width="136" height="136" viewBox="0 0 136 136" fill="none" xmlns="http://www.w3.org/2000/svg">
<path d="M39.5994 90.2C40.8994 91.7 42.9994 92.5 44.9994 92.4C46.9994 92.3 48.8994 91.3 50.3994 89.9C51.7994 88.5 52.8994 86.7 54.6994 85.8C56.9994 84.6 59.7994 85.1 62.1994 84.2C64.7994 83.2 66.5994 80.3 66.2994 77.5C65.9994 74.7 63.6994 72.2 60.8994 71.8C59.4994 71.6 58.0994 71.8 56.7994 71.2C55.1994 70.4 54.5994 68.6 54.0994 66.9C53.6994 65.6 53.2994 64.4 52.9994 63.1C52.6994 62.3 52.4994 61.4 52.5994 60.5C52.6994 59.5 53.1994 58.7 53.6994 57.8C54.2994 56.8 54.7994 55.6 54.8994 54.5C54.9994 53.3 54.5994 52 53.6994 51.3C52.6994 50.5 51.2994 50.5 49.9994 50.5C48.0994 50.6 46.1994 50.7 44.3994 51.4C42.5994 52.1 40.9994 53.4 40.3994 55.2C39.5994 54.2 38.1994 53.7 36.8994 53.8C35.5994 53.9 34.2994 54.5 33.1994 55.2C30.9994 56.5 28.9994 58.7 29.1994 61.3C29.2994 63 30.3994 64.4 31.3994 65.8C31.9994 66.6 32.6994 67.5 33.5994 67.9C34.2994 68.2 35.0994 68.3 35.6994 68.7C37.0994 69.4 37.6994 71.1 38.1994 72.6C39.1994 75.8 39.6994 78.1 38.4994 81.2C37.4994 83.9 37.5994 87.8 39.5994 90.2Z" fill="white"/>
<path d="M64.7002 74.0001C65.5002 74.9001 65.9002 76.0001 66.2002 77.2001C66.4002 78.2001 66.6002 79.4001 66.2002 80.4001C65.8002 81.5001 65.0002 82.4001 63.9002 83.0001C62.8002 83.5001 61.6002 83.7001 60.5002 83.6001C60.1002 83.6001 59.8002 83.5001 59.4002 83.3001C58.8002 82.9001 58.5002 82.2001 58.4002 81.4001C58.3002 80.1001 58.8002 78.8001 58.8002 77.5001C58.8002 76.2001 58.4002 75.1001 58.0002 73.9001C57.8002 73.2001 57.5002 72.0001 58.2002 71.5001C58.9002 70.9001 60.6002 71.8001 61.4002 72.0001C62.7002 72.6001 63.9002 73.1001 64.7002 74.0001Z" fill="#BCBCBB"/>
<path d="M40.4008 80.7002C40.9008 79.6002 41.7008 78.7002 41.9008 77.6002C42.3008 75.5002 40.6008 73.7002 40.1008 71.7002C39.9008 70.8002 39.9008 69.8002 39.4008 69.0002C38.9008 68.1002 37.9008 67.7002 36.9008 67.3002C34.9008 66.4002 32.8008 65.6002 30.8008 64.7002C31.3008 66.8002 32.9008 68.7002 34.9008 69.6002C35.9008 70.1002 37.1008 70.3002 37.9008 71.2002C38.4008 71.8002 38.6008 72.5002 38.8008 73.3002C39.2008 74.7002 39.6008 76.2002 39.2008 77.5002C38.8008 79.1002 37.4008 80.3002 36.8008 81.8002C36.2008 83.5002 36.7008 85.3002 37.7008 86.7002C38.4008 87.7002 40.5008 90.2002 42.0008 89.8002C44.1008 89.2002 41.8008 87.6002 41.2008 86.6002C40.1008 84.8002 39.6008 82.6002 40.4008 80.7002Z" fill="#BCBCBB"/>
<path d="M60.4005 72.7001C60.3005 71.8001 59.5005 71.9001 58.9005 71.8001C57.8005 71.7001 56.7005 71.8001 55.4005 71.8001C55.2005 71.3001 54.9005 70.7001 54.7005 70.1001C53.9005 67.6001 53.1004 65.1001 52.3004 62.5001C52.2004 62.2001 52.1004 62.0001 52.1004 61.7001C51.8004 60.3001 51.6004 59.1001 52.8004 57.8001C54.1004 56.4001 54.1005 54.5001 53.7005 52.7001C53.3005 51.1001 51.3005 49.8001 49.4005 49.9001C47.6005 49.9001 46.2004 50.8001 44.6004 51.5001C42.9004 52.3001 42.1005 53.7001 41.5005 55.3001C41.4005 55.7001 41.1005 56.1001 40.8005 56.6001C38.6005 54.1001 36.1005 53.8001 33.5005 55.1001C31.6005 56.1001 30.6005 57.8001 30.7005 60.3001C32.1005 59.6001 33.3005 58.8001 35.0005 58.8001C33.8005 59.7001 32.2004 59.6001 31.3005 61.1001C32.9005 60.6001 34.2004 60.1001 35.6004 59.6001C35.6004 59.7001 35.7005 59.8001 35.7005 59.9001C35.3005 60.0001 35.0004 60.1001 34.6004 60.3001C33.6004 60.8001 32.5005 61.3001 31.5005 61.9001C30.9005 62.2001 30.9005 62.8001 31.3005 63.2001C31.8005 63.7001 32.3005 64.3001 33.0005 64.6001C34.5005 65.3001 35.9004 66.2001 37.6004 66.1001C38.3004 66.0001 38.6005 66.6001 38.8005 67.2001C39.5005 69.1001 40.2005 71.0001 40.9005 72.9001C41.3005 73.8001 41.7004 74.7001 42.1004 75.7001C42.2004 75.9001 41.9005 76.3001 41.8005 76.6001C41.6005 76.5001 41.2004 76.4001 41.1004 76.1001C40.7004 75.3001 40.4005 74.4001 40.0005 73.6001C39.7005 72.9001 39.3005 72.2001 38.9005 71.5001C38.6005 70.4001 38.2005 69.3001 37.9005 68.2001C37.7005 67.4001 37.2005 67.1001 36.4005 67.1001C35.0005 67.0001 33.8004 66.4001 32.6004 65.7001C32.3004 65.5001 32.0005 65.4001 31.5005 65.2001C31.7005 66.2001 32.2004 66.8001 32.8005 67.1001C33.9005 67.7001 35.0004 68.3001 36.1004 68.5001C37.1004 68.7001 37.7004 69.2001 38.1004 70.1001C38.3004 70.6001 38.7005 71.1001 38.9005 71.6001C39.2005 72.9001 39.5005 74.3001 40.0005 75.6001C40.4005 76.8001 40.5004 77.8001 39.6004 78.8001C38.9004 79.7001 38.5004 80.8001 38.6004 82.0001C39.4004 82.2001 39.4004 81.6001 39.6004 81.2001C40.2004 80.3001 40.8005 79.3001 41.4005 78.5001C41.6005 78.3001 42.0005 78.2001 42.3005 78.1001C42.4005 78.2001 42.5005 78.3001 42.5005 78.4001C42.3005 78.7001 42.1005 79.1001 41.9005 79.3001C40.1005 81.0001 39.8004 83.0001 40.6004 85.3001C41.0004 86.6001 41.6005 87.7001 42.7005 88.6001C45.1005 90.5001 48.1004 90.0001 50.1004 88.4001C51.3004 87.5001 52.6004 86.6001 53.3004 85.2001C53.4004 85.0001 53.8004 84.9001 54.1004 84.7001C54.5004 85.5001 54.1005 86.0001 53.7005 86.5001C51.4005 89.5001 48.3004 91.2001 44.8005 92.2001C43.8005 92.5001 42.7004 92.2001 41.8005 91.6001C39.1005 89.7001 37.1004 87.2001 37.1004 83.7001C37.1004 81.8001 37.4005 79.8001 38.7005 78.2001C39.2005 77.6001 39.3005 77.0001 39.0005 76.3001C38.5005 74.7001 38.0005 73.1001 37.4005 71.5001C37.1005 70.5001 36.4005 69.9001 35.3005 69.5001C34.1005 69.1001 33.0005 68.5001 31.9005 67.8001C30.6005 66.9001 30.0005 65.5001 29.8005 64.0001C29.6005 62.6001 29.6005 61.1001 29.7005 59.7001C29.8005 56.7001 32.0005 54.4001 34.9005 53.8001C37.0005 53.4001 38.9005 53.9001 40.5005 55.1001C40.7005 54.9001 40.8005 54.9001 40.8005 54.8001C42.0005 51.0001 45.2004 50.0001 48.6004 49.1001C50.5004 48.6001 54.0004 50.0001 54.6004 52.3001C55.2004 54.6001 55.0005 56.8001 53.4005 58.6001C52.6005 59.5001 52.4005 60.4001 52.7005 61.5001C53.6005 64.4001 54.6004 67.3001 55.6004 70.2001C55.6004 70.3001 55.8004 70.5001 55.8004 70.6001C57.3004 70.8001 58.8005 70.8001 60.2005 71.1001C64.1005 72.0001 68.0005 75.5001 66.5005 80.8001C65.9005 83.0001 64.3004 84.0001 62.3004 84.3001C60.4004 84.6001 58.5004 84.5001 56.6004 84.6001C56.4004 84.6001 56.3004 84.6001 56.1004 84.5001C55.7004 84.3001 55.0005 84.3001 55.2005 83.7001C55.3005 83.0001 55.9005 83.3001 56.4005 83.4001C58.6005 83.7001 60.7005 83.6001 62.9005 83.1001C64.4005 82.8001 65.3004 81.8001 65.7004 80.4001C66.5004 77.7001 65.7004 75.6001 63.6004 73.9001C63.0005 73.4001 62.4004 73.0001 61.8004 72.6001C61.3004 72.3001 60.8005 72.2001 60.4005 72.7001ZM44.2005 91.2001C44.3005 91.1001 44.4005 90.9001 44.5005 90.8001C41.2005 89.9001 40.4005 87.0001 39.3005 84.5001C38.7004 84.6001 38.4004 84.8001 38.6004 85.4001C39.2004 88.0001 40.8004 89.8001 43.1004 91.0001C43.3004 91.2001 43.8005 91.1001 44.2005 91.2001ZM39.2005 82.9001C38.6005 83.0001 38.3005 83.2001 38.5005 83.8001C38.5005 83.9001 38.9005 84.1001 39.0005 84.0001C39.5005 83.8001 39.4005 83.3001 39.2005 82.9001Z" fill="black"/>
<path d="M56.8008 75.9002C57.8008 74.6002 58.8008 73.4002 60.4008 72.7002C59.6008 73.5002 58.7008 74.4002 57.9008 75.2002C57.6008 75.5002 57.2008 75.6002 56.8008 75.9002Z" fill="black"/>
<path d="M58.5 75.8002C59.4 75.1002 60.2 74.4002 61.1 73.7002C61.2 73.8002 61.3 73.9002 61.3 74.0002C60.5 74.7002 59.6 75.4002 58.8 76.1002C58.7 76.0002 58.6 75.9002 58.5 75.8002Z" fill="black"/>
<path d="M56.7992 75.9004C56.4992 76.3004 56.2992 76.6004 55.9992 77.0004C55.8992 76.9004 55.7992 76.8004 55.6992 76.7004C56.0992 76.4004 56.4992 76.1004 56.7992 75.9004Z" fill="black"/>
<path d="M93.6002 93.3002C94.8002 91.3002 95.9002 89.3002 97.6002 87.8002C99.2002 86.3002 101.2 85.3002 103.3 84.6002C104.9 84.0002 106.6 83.5002 107.7 82.2002C108.8 81.0002 109.1 78.7002 107.8 77.7002C106.9 77.7002 106.6 78.7002 106.2 79.5002C105.7 80.5002 104.9 81.3002 103.9 81.7002C102.5 82.3002 100.9 82.1002 99.6002 82.9002C98.6002 83.6002 98.1002 84.8002 97.4002 85.9002C96.1002 88.1002 93.9002 89.6002 92.3002 91.5002C91.3002 92.7002 89.5002 95.3002 90.1002 97.0002C90.5002 98.4002 90.9002 97.6002 91.5002 96.6002C92.2002 95.6002 92.9002 94.4002 93.6002 93.3002Z" fill="#BCBCBB"/>
<path d="M74.7998 99.7998C75.6998 100.3 76.7998 100.6 77.6998 101.2C79.5998 102.6 80.0998 105.4 82.1998 106.4C83.7998 107.2 85.6998 106.8 87.3998 106.1C87.8998 105.9 88.3998 105.7 88.6998 105.3C89.4998 104.5 89.5998 103.3 89.6998 102.2C90.2998 96.2998 93.0998 90.7998 97.4998 86.7998C98.0998 86.2998 98.5998 85.7998 99.2998 85.3998C101 84.3998 102.9 83.8998 104.7 83.0998C106.5 82.2998 108.2 80.9998 108.6 78.9998C108.9 77.4998 108.3 75.7998 107.2 74.6998C106.1 73.5998 104.6 72.8998 103.1 72.3998C101.8 71.9998 100.4 71.6998 99.4998 70.5998C98.9998 69.8998 98.6998 69.0998 98.2998 68.3998C96.9998 66.3998 94.1998 65.8998 91.9998 66.7998C89.7998 67.6998 88.1998 69.6998 87.1998 71.7998C86.7998 72.6998 86.3998 73.5998 86.4998 74.5998C86.4998 75.5998 86.9998 76.5998 87.7998 77.0998C85.0998 80.4998 82.3998 83.8998 79.6998 87.2998C79.4998 87.4998 79.3998 87.6998 79.0998 87.7998C78.6998 87.8998 78.2998 87.7998 77.9998 87.6998C70.7998 86.0998 69.6998 96.8998 74.7998 99.7998Z" fill="white"/>
<path d="M96.3993 66.5996C97.1993 66.7996 98.0993 67.2996 98.0993 68.0996C98.0993 68.4996 97.7993 68.9996 97.4993 69.1996C97.0993 69.4996 96.6993 69.5996 96.2993 69.7996C94.2993 70.5996 93.2993 71.6996 91.8993 73.0996C90.8993 74.0996 90.2993 73.8996 89.6993 72.4996C87.5993 68.0996 92.6993 65.6996 96.3993 66.5996Z" fill="#BCBCBB"/>
<path d="M72.6009 97.9004C72.8009 98.3004 73.0009 98.7004 73.3009 99.1004C73.9009 99.7004 74.7009 99.8004 75.5009 99.9004C77.1009 100.1 78.7009 100.2 80.3009 100C79.8009 101.8 80.7009 103.8 82.2009 104.9C83.7009 106 85.6009 106.4 87.5009 106.5C84.5009 108.5 79.9009 107.5 77.9009 104.5C77.5009 103.9 77.2009 103.2 76.7009 102.6C75.8009 101.5 74.5009 100.9 73.5009 100C72.2009 98.8004 71.3009 96.7004 71.6009 94.9004C71.9009 96.0004 72.2009 97.0004 72.6009 97.9004Z" fill="#BCBCBB"/>
<path d="M100.299 71.1005C101.399 71.1005 102.299 71.1005 103.199 71.1005C104.299 71.2005 105.399 71.5005 106.199 72.4005C106.599 72.9005 107.099 73.3005 107.599 73.7005C109.699 75.6005 110.299 78.3005 108.899 80.9005C107.499 83.5005 105.399 85.2005 102.399 85.7005C101.399 85.8005 100.799 86.3005 100.199 87.0005C98.2992 89.3005 96.3992 91.5005 94.4992 93.8005C93.2992 95.3005 92.1992 96.8005 90.9992 98.3005C90.7992 98.5005 90.8992 98.9005 90.8992 99.2005C90.6992 100.4 90.5992 101.7 90.3992 102.9C90.2992 103.3 90.0992 103.7 90.0992 104.1C90.1992 105.5 89.3992 106.4 88.3992 107.1C86.1992 108.8 83.2992 108.9 81.0992 107.5C79.4992 106.5 78.0992 105.3 77.1992 103.6C76.9992 103.2 76.5992 102.9 76.1992 102.7C75.6992 102.4 75.1992 102.1 74.5992 101.9C71.0992 100.4 69.4992 97.6005 69.7992 93.8005C69.7992 93.2005 69.8992 92.5005 69.9992 91.9005C70.0992 91.3005 70.1992 90.6005 71.0992 90.7005C71.1992 90.7005 71.3992 90.4005 71.4992 90.3005C71.8992 89.8005 72.2992 89.2005 72.6992 88.7005C73.7992 87.2005 75.2992 87.0005 76.8992 87.4005C77.5992 87.6005 78.2992 87.8005 79.0992 88.0005C82.3992 84.8005 84.8992 80.8005 87.6992 77.0005C85.8992 75.0005 86.6992 72.7005 87.2992 70.6005C87.8992 68.6005 89.2992 67.2005 91.2992 66.4005C91.5992 66.3005 91.8992 66.2005 92.1992 66.0005C95.2992 64.2005 98.4992 66.4005 99.4992 69.1005C99.5992 69.4005 99.6992 69.8005 99.7992 70.2005C99.9992 70.5005 100.099 70.8005 100.299 71.1005ZM97.9992 70.5005C97.8992 69.5005 98.0992 68.8005 97.7992 68.3005C97.4992 67.8005 96.7992 67.6005 96.2992 67.3005C96.1992 67.2005 96.0992 67.1005 95.8992 67.0005C95.2992 66.5005 94.5992 66.3005 93.7992 66.5005C91.0992 67.2005 88.7992 68.4005 88.0992 71.4005C87.9992 71.7005 87.8992 71.9005 87.8992 72.2005C87.4992 74.0005 87.2992 75.8005 89.2992 76.8005C88.1992 78.2005 87.0992 79.5005 86.0992 80.8005C85.2992 81.8005 84.6992 82.9005 83.8992 83.9005C82.5992 85.6005 81.2992 87.3005 79.8992 89.0005C79.4992 89.5005 79.0992 89.5005 78.3992 89.1005C75.7992 87.4005 73.1992 88.3005 72.2992 91.4005C71.7992 93.0005 71.7992 94.8005 72.5992 96.3005C73.7992 98.8005 75.4992 100.5 78.7992 99.5005C79.0992 99.4005 79.4992 99.4005 79.8992 99.3005C79.9992 99.6005 80.0992 99.8005 79.9992 100C79.7992 102.3 81.0992 103.8 82.8992 104.9C84.1992 105.7 85.3992 105.6 86.6992 105C87.1992 104.8 87.9992 104.5 87.3992 103.6C87.2992 103.5 87.4992 103.1 87.6992 102.9C88.0992 102.4 88.3992 101.9 88.8992 101.4C89.5992 100.7 89.6992 99.8005 89.4992 98.9005C89.3992 98.3005 88.9992 97.8005 88.8992 97.3005C88.7992 96.8005 88.6992 96.0005 88.8992 95.6005C89.7992 94.3005 90.7992 92.9005 91.9992 91.8005C93.1992 90.7005 94.2992 89.5005 95.1992 88.1005C96.0992 86.7005 97.1992 85.3005 98.1992 84.0005C98.3992 83.7005 98.6992 83.6005 98.8992 83.3005C99.4992 83.8005 99.1992 84.2005 98.8992 84.5005C98.4992 85.1005 98.0992 85.7005 97.5992 86.3005C95.6992 88.6005 94.4992 91.4005 92.1992 93.4005C91.6992 93.9005 91.2992 94.5005 90.8992 95.2005C90.7992 95.4005 90.8992 95.7005 90.8992 96.4005C91.5992 95.6005 91.9992 95.2005 92.3992 94.7005C94.8992 91.6005 97.3992 88.4005 99.8992 85.3005C100.299 84.8005 100.699 84.6005 101.399 84.6005C104.299 84.5005 106.399 83.2005 107.899 80.7005C108.499 79.6005 108.599 79.1005 108.199 77.9005C107.999 78.3005 107.899 78.7005 107.799 79.0005C107.199 80.6005 106.299 82.0005 104.599 82.5005C103.499 82.9005 102.199 83.1005 100.999 83.2005C100.299 83.3005 99.4992 83.1005 98.7992 83.0005C98.5992 83.0005 98.4992 82.6005 98.2992 82.3005C98.4992 82.2005 98.6992 82.0005 98.8992 81.9005C98.9992 81.8005 99.1992 81.9005 99.3992 81.9005C100.999 82.4005 102.399 82.0005 103.899 81.6005C105.799 81.1005 107.199 79.2005 107.199 77.2005C107.099 73.5005 104.099 71.6005 100.999 72.3005C100.499 72.4005 99.9992 72.5005 99.4992 72.6005C98.8992 71.6005 99.3992 70.3005 98.5992 69.4005C98.2992 69.8005 98.1992 70.0005 97.9992 70.5005ZM78.8992 100.7C74.5992 101.2 72.3992 98.9005 70.9992 95.3005C70.9992 97.1005 71.6992 98.6005 72.9992 99.7005C73.9992 100.5 75.1992 101.2 76.4992 101.6C77.4992 101.9 77.9992 102.5 78.4992 103.4C79.7992 105.8 81.8992 107.2 84.6992 107.4C84.9992 107.4 85.1992 107.3 85.4992 107.2C82.0992 106.3 79.5992 104.5 78.8992 100.7Z" fill="black"/>
<path d="M74.9996 94.5C74.3996 94.9 73.6996 95.3 73.0996 95.7C73.3996 94.8 74.1996 94.6 74.9996 94.5Z" fill="black"/>
<path d="M75 94.5996C75.3 94.3996 75.6 94.2996 76 94.0996C76 94.1996 76.1 94.2996 76.1 94.3996C75.7 94.3996 75.3 94.4996 75 94.5996C75 94.5996 75 94.4996 75 94.5996Z" fill="black"/>
<path d="M45.9991 112.1C46.5991 111.3 47.4991 110.7 48.3991 110.1C49.4991 109.3 50.4991 108.5 51.3991 107.5C52.0991 106.8 52.7991 106 53.5991 105.4C54.3991 104.8 55.4991 104.5 56.4991 104.7C58.1991 105.1 58.8991 107.2 57.9991 108.6C57.0991 110.1 54.9991 110.6 53.7991 111.9C52.1991 113.7 51.5991 116.8 48.5991 116.6C46.0991 116.5 44.1991 114.3 45.9991 112.1Z" fill="white"/>
<path d="M54.7996 111.6C55.5996 111 56.3996 110.5 56.9996 109.7C57.5996 109 58.0996 108 57.9996 107C57.9996 106.9 57.9996 106.7 57.8996 106.6C57.6996 106.4 57.2995 106.5 57.0995 106.7C54.6995 108.3 52.4995 110.1 50.5995 112.2C49.7995 113.1 49.7995 114.2 51.0995 114C52.2995 113.9 53.8996 112.3 54.7996 111.6Z" fill="#BCBCBB"/>
<path d="M55.2991 103.3C56.3991 104.2 57.3991 105 58.2991 105.9C59.1991 106.9 59.0991 107.1 58.2991 108.1C57.5991 109 56.8991 110 56.0991 110.8C54.6991 112.2 53.0991 113.4 51.7991 114.8C50.9991 115.7 50.0991 116.3 49.0991 116.8C47.0991 117.8 45.9991 117.4 44.6991 115.4C43.9991 114.3 44.5991 112.4 45.6991 111.4C47.6991 109.8 49.5991 108.1 51.4991 106.5C52.6991 105.4 53.8991 104.5 55.2991 103.3ZM46.3991 113.9C46.4991 114.8 46.2991 115.9 47.3991 116.1C48.2991 116.3 49.0991 115.6 49.4991 114.7C49.4991 114.6 49.4991 114.5 49.5991 114.3C49.0991 113.7 48.4991 113.1 47.8991 112.5C47.1991 112.7 46.5991 112.9 45.9991 113C46.0991 113.4 46.2991 113.7 46.3991 113.9ZM50.7991 114C51.4991 113.3 52.0991 112.7 52.6991 112.1C53.1991 111.6 53.2991 111 52.8991 110.4C52.6991 110 52.4991 109.7 52.2991 109.3C52.3991 109.2 52.4991 109.2 52.5991 109.1C52.9991 109.6 53.3991 110.1 53.7991 110.6C55.2991 110 53.9991 109 54.3991 108.1C54.6991 108.4 54.9991 108.7 55.2991 109C56.0991 108.5 56.7991 108.1 57.3991 107.5C57.5991 107.3 57.7991 106.8 57.6991 106.6C57.2991 105.2 55.3991 104.5 54.2991 105.4C52.5991 106.9 50.8991 108.4 49.1991 109.9C48.8991 110.2 48.5991 110.6 48.2991 111C48.9991 112.1 49.7991 113 50.7991 114Z" fill="black"/>
<path d="M95.1995 101C94.9995 101 94.7995 100.9 94.5995 100.8C94.4995 100.7 94.3995 100.5 94.3995 100.3C94.1995 99.0999 93.9995 97.7999 94.2995 96.5999C94.5995 95.3999 95.4995 94.2999 96.6995 93.9999C97.7995 93.7999 98.7995 94.1999 99.7995 94.6999C100.999 95.1999 102.199 95.6999 103.399 96.0999C104.299 96.3999 106.099 96.5999 106.799 97.0999C107.899 97.9999 107.699 101.3 106.199 102C105.099 102.5 103.299 101.4 102.099 101.3C99.8995 101.1 97.5995 101.3 95.1995 101Z" fill="white"/>
<path d="M95.5993 99.1004C95.8993 98.9004 96.1993 98.8004 96.4993 98.8004C98.9993 98.6004 101.399 98.4004 103.899 98.4004C104.199 98.4004 104.399 98.4004 104.599 98.6004C104.699 98.8004 104.699 99.0004 104.699 99.2004C104.699 99.6004 104.699 100 104.699 100.4C104.699 100.6 104.699 100.7 104.599 100.9C104.499 101.1 104.299 101.1 104.099 101.1C102.099 101.3 99.9993 101.3 97.9993 101C97.4993 100.9 93.9993 100.4 95.5993 99.1004Z" fill="#BCBCBB"/>
<path d="M94.8996 95.6998C95.5996 95.3998 96.1996 95.1998 96.8996 94.9998C97.1996 94.8998 97.5996 94.7998 97.7996 94.8998C99.0996 95.8998 100.8 95.5998 102.2 95.6998C104.2 95.7998 106 96.6998 107.9 96.9998C108.4 97.0998 108.6 97.4998 108.4 97.9998C108.1 99.0998 107.7 100.1 107.3 101.1C106.9 101.9 106.2 102.1 105.3 102.1C103.7 102 102.1 102 100.6 101.9C98.8996 101.7 97.1996 101.4 95.4996 101C94.5996 100.8 94.4996 100.6 94.5996 99.5998C94.6996 98.2998 94.7996 97.0998 94.8996 95.6998ZM98.8996 100.2C100.7 100.8 102.3 100.6 103.9 100.5C104 99.3998 104.1 98.3998 104.2 97.2998C103.3 97.0998 102.6 96.8998 101.8 96.7998C101.4 96.7998 100.9 96.9998 100.6 97.2998C99.9996 98.0998 99.4996 99.0998 98.8996 100.2ZM100.3 96.6998C99.0996 96.1998 97.9996 96.3998 96.8996 96.4998C96.0996 96.5998 95.7996 97.2998 95.8996 98.3998C95.8996 99.0998 95.8996 99.8998 96.8996 99.8998C97.3996 98.7998 97.8996 97.7998 98.3996 96.7998C98.4996 96.7998 98.5996 96.8998 98.6996 96.8998C98.2996 97.8998 97.8996 98.8998 97.3996 100.1C97.7996 99.9998 98.0996 100.1 98.0996 99.9998C98.8996 98.9998 99.5996 97.8998 100.3 96.6998ZM107.3 98.0998C106.1 97.9998 105.8 98.0998 105.5 98.7998C105.2 99.5998 105.4 100.4 106.2 100.9C107 100.1 107 99.0998 107.3 98.0998Z" fill="black"/>
<path d="M78.9009 61.9001C82.5009 63.1001 86.9009 61.7001 89.1009 58.6001C89.4009 58.1001 89.7009 57.6001 90.2009 57.3001C90.6009 57.0001 91.1009 56.9001 91.6009 56.7001C96.6009 55.4001 101.901 54.1001 106.901 55.3001C108.101 55.6001 109.401 56.0001 110.601 55.8001C111.901 55.6001 112.901 54.7001 113.701 53.8001C115.701 51.4001 116.501 47.4001 114.301 45.2001C113.601 44.5001 112.601 44.0001 112.101 43.1001C111.201 41.3001 113.001 38.9001 111.901 37.2001C111.501 36.6001 110.901 36.3001 110.201 36.0001C107.801 35.0001 104.901 34.7001 102.501 35.8001C100.101 36.9001 98.4009 39.7001 99.0009 42.3001C93.5009 43.2001 88.0009 43.8001 82.5009 44.2001C82.0009 44.2001 81.4009 44.3001 81.0009 43.9001C80.6009 43.6001 80.5009 43.1001 80.2009 42.6001C79.5009 41.5001 78.1009 41.0001 76.8009 41.1001C74.4009 41.2001 72.2009 43.0001 71.7009 45.3001C71.1009 47.8001 72.4009 50.0001 74.2009 51.4001C73.0009 54.0001 72.1009 54.8001 73.7009 57.6001C74.8009 59.6001 76.7009 61.2001 78.9009 61.9001Z" fill="white"/>
<path d="M87.9009 61.0995C89.1009 59.8995 89.9009 58.3995 91.3009 57.4995C92.2009 56.7995 93.3009 56.4995 94.5009 56.1995C96.3009 55.6995 98.0009 55.2995 99.8009 54.9995C101.101 54.6995 102.501 54.4995 103.901 54.7995C105.201 54.9995 106.301 55.6995 107.601 55.9995C108.901 56.2995 110.401 55.9995 111.001 54.8995C108.101 53.4995 104.901 52.6995 101.601 52.4995C99.0009 52.3995 96.4009 52.5995 93.9009 52.2995C92.6009 52.1995 91.3009 51.8995 90.1009 52.4995C89.1009 52.9995 88.5009 53.9995 87.9009 54.7995C86.7009 56.2995 85.2009 57.5995 83.4009 58.4995C82.1009 59.1995 80.4009 59.5995 80.1009 61.3995C79.3009 65.4995 86.5009 62.4995 87.9009 61.0995Z" fill="#BCBCBB"/>
<path d="M105.9 35.2998C106.8 34.9998 107.9 34.9998 108.8 35.0998C109.4 35.0998 110.1 35.1998 110.5 35.5998C110.8 35.8998 110.9 36.2998 110.9 36.7998C111.1 38.1998 111.2 39.6998 111.1 41.0998C110.7 41.3998 110.1 41.3998 109.6 41.1998C109.1 40.9998 108.7 40.5998 108.3 40.2998C107.4 39.5998 106.3 39.2998 105.2 39.0998C104.5 38.9998 102.6 39.1998 102.2 38.6998C101.4 37.5998 104.9 35.6998 105.9 35.2998Z" fill="#BCBCBB"/>
<path d="M82.1008 43.7004C87.7008 43.5004 93.3008 43.7004 99.0008 43.0004C99.0008 40.7004 100.001 38.9004 101.501 37.4004C102.901 35.9004 104.601 35.0004 106.701 34.6004C109.001 34.1004 110.601 35.5004 112.501 36.3004C113.501 38.3004 113.201 40.4004 112.401 42.5004C114.701 43.5004 115.601 45.2004 116.401 47.3004C117.101 49.3004 116.901 51.0004 115.901 52.8004C115.701 53.1004 115.601 53.4004 115.401 53.6004C113.201 55.7004 110.701 57.1004 107.501 56.5004C106.801 56.4004 106.201 56.1004 105.601 55.7004C104.601 55.2004 103.701 54.9004 102.601 55.3004C101.301 55.7004 99.9008 55.8004 98.5008 56.1004C96.0008 56.7004 93.5008 57.3004 90.9008 57.9004C89.9008 58.1004 89.2008 58.8004 88.6008 59.5004C87.7008 60.4004 86.7008 61.4004 85.7008 62.2004C83.6008 63.8004 81.2008 64.0004 78.6008 63.4004C76.9008 63.0004 75.2008 62.5004 73.8008 61.3004C73.1008 60.7004 72.5008 60.1004 72.5008 59.1004C72.5008 58.7004 72.4008 58.4004 72.3008 58.0004C71.6008 56.0004 71.8008 54.3004 73.2008 52.7004C73.3008 52.6004 73.3008 52.4004 73.4008 52.3004C73.3008 52.2004 73.3008 52.1004 73.2008 52.0004C71.0008 51.2004 70.6008 49.3004 70.3008 47.3004C70.1008 45.3004 71.2008 43.8004 72.7008 42.8004C73.8008 42.0004 75.1008 41.5004 76.4008 41.0004C78.6008 40.3004 80.4008 41.2004 81.6008 43.2004C81.9008 43.3004 82.0008 43.5004 82.1008 43.7004ZM110.601 40.9004C109.701 41.1004 108.801 41.2004 107.701 41.4004C108.601 40.7004 109.401 40.1004 110.401 39.9004C111.101 39.7004 111.401 39.2004 111.001 38.4004C110.101 38.8004 109.201 39.2004 108.301 39.5004C108.301 39.4004 108.201 39.3004 108.201 39.2004C108.901 38.8004 109.701 38.4004 110.401 38.0004C111.301 37.5004 111.301 36.9004 110.401 36.4004C109.401 35.8004 108.301 35.5004 107.101 35.6004C104.101 36.0004 102.301 37.9004 100.701 40.2004C100.101 41.0004 99.8008 42.0004 100.501 43.1004C100.601 43.3004 100.501 43.8004 100.501 44.1004C99.6008 44.1004 99.0008 44.2004 98.3008 44.2004C94.7008 44.4004 91.1008 44.6004 87.5008 44.7004C85.4008 44.8004 83.3008 44.4004 81.2008 45.3004C81.0008 44.8004 80.8008 44.5004 80.7008 44.1004C80.2008 42.6004 79.1008 41.7004 77.6008 41.9004C75.4008 42.2004 73.4008 43.2004 72.1008 45.1004C70.7008 47.2004 71.7008 50.2004 74.1008 51.1004C74.5008 51.3004 74.9008 51.5004 75.4008 51.7004C74.7008 53.2004 72.9008 54.0004 73.5008 56.0004C74.1008 55.7004 74.5008 55.4004 75.0008 55.1004C75.5008 54.8004 75.9008 54.4004 76.3008 54.1004C76.3008 54.5004 76.1008 54.8004 75.9008 54.9004C75.2008 55.4004 74.5008 55.9004 73.8008 56.3004C73.1008 56.7004 73.2008 57.1004 73.7008 57.6004C74.9008 57.1004 75.8008 56.1004 77.4008 55.9004C76.2008 57.0004 74.8008 57.3004 74.0008 58.4004C74.3008 59.1004 74.7008 59.8004 75.5008 60.0004C79.0008 61.3004 83.9008 60.2004 85.7008 56.9004C85.9008 56.5004 86.3008 56.2004 86.4008 55.9004C87.0008 54.4004 88.3008 54.0004 89.7008 53.8004C90.0008 53.8004 90.2008 53.7004 90.5008 53.7004C93.7008 53.2004 97.0008 52.6004 100.201 52.1004C101.201 51.9004 102.201 51.8004 103.201 51.9004C104.001 52.0004 104.601 51.9004 105.001 51.1004C106.101 51.5004 107.401 51.4004 107.901 52.8004C108.001 52.9004 108.301 53.0004 108.401 53.1004C110.201 53.9004 112.101 53.5004 113.501 52.1004C114.001 51.5004 114.401 51.0004 114.801 50.3004C116.201 47.7004 114.901 44.6004 112.001 43.7004C111.701 43.6004 111.301 43.4004 111.001 43.3004C111.101 42.7004 111.201 42.3004 111.201 41.8004C111.401 41.3004 111.701 40.7004 111.901 40.2004C111.801 40.1004 111.701 40.1004 111.601 40.0004C111.301 40.3004 111.001 40.6004 110.601 40.9004ZM112.101 54.3004C111.801 54.3004 111.501 54.2004 111.301 54.3004C109.801 54.6004 108.501 54.4004 107.201 53.7004C106.601 53.4004 105.801 53.3004 105.101 53.3004C102.701 53.5004 100.401 53.7004 98.0008 54.0004C95.8008 54.3004 93.5008 54.6004 91.1008 54.9004C91.2008 55.6004 91.3008 56.1004 91.4008 56.7004C92.1008 56.5004 92.7008 56.4004 93.2008 56.2004C94.1008 56.0004 95.0008 55.6004 95.9008 55.5004C98.6008 54.9004 101.401 54.3004 104.101 53.8004C104.501 53.7004 104.901 53.8004 105.301 54.0004C105.701 54.2004 106.101 54.6004 106.401 54.9004C108.001 55.9004 110.601 55.7004 112.101 54.3004ZM88.7008 55.3004C87.8008 56.4004 87.2008 57.2004 86.5008 58.0004C85.3008 59.4004 84.0008 60.7004 82.0008 61.0004C80.8008 61.2004 79.6008 61.5004 78.0008 61.8004C80.6008 62.8004 82.8008 62.7004 84.9008 61.4004C86.7008 60.2004 88.0008 58.5004 89.2008 56.7004C89.1008 56.4004 88.9008 56.0004 88.7008 55.3004ZM90.7008 56.6004C90.6008 56.0004 90.7008 55.2004 89.7008 55.2004C89.5008 56.8004 89.5008 56.9004 90.7008 56.6004Z" fill="black"/>
<path d="M27.2 84.5004C25.6 85.9004 23.9 87.4004 21.7 87.8004C21.1 87.9004 20.5 87.9004 20 87.7004C19.5 87.5004 19 87.0004 19 86.4004C19 85.8004 19.3 85.3004 19.8 85.0004C20.3 84.7004 20.8 84.5004 21.3 84.3004C22.5 83.9004 23.6 83.4004 24.7 82.8004C26.8 81.8004 29 80.5004 31.2 81.2004C31.4 82.0004 31 82.9004 30.4 83.5004C29.8 84.1004 29 84.5004 28.2 84.8004C26.7 85.5004 25.1 86.3004 23.6 87.0004" fill="white"/>
<path d="M22.5996 86.2002C22.7996 86.6002 22.9996 86.8002 22.9996 86.9002C22.9996 87.1002 22.6996 87.3002 22.4996 87.3002C22.2996 87.3002 22.0996 87.0002 22.0996 86.8002C22.0996 86.7002 22.2996 86.5002 22.5996 86.2002Z" fill="black"/>
<path d="M30.8005 82.8004C31.0005 82.4004 31.2005 81.8004 30.8005 81.6004C30.6005 81.5004 30.4005 81.5004 30.2005 81.6004C28.6005 81.8004 22.6005 83.4004 24.7005 85.9004C26.6005 87.9004 29.9005 84.2004 30.8005 82.8004Z" fill="#BCBCBB"/>
<path d="M20.5994 84.4001C22.8994 82.8001 25.1994 81.2001 27.4994 79.6001C28.0994 79.1001 28.5994 79.0001 29.2994 79.4001C29.9994 79.9001 30.8994 80.2001 31.6994 80.7001C32.7994 81.4001 32.7994 83.1001 31.6994 83.9001C29.6994 85.3001 27.6994 86.6001 25.6994 88.1001C24.4994 89.0001 23.0994 89.0001 21.7994 88.9001C20.6994 88.9001 19.7994 87.3001 20.0994 86.1001C20.2994 85.6001 20.3994 85.1001 20.5994 84.4001ZM25.2994 83.5001C25.3994 83.4001 25.4994 83.3001 25.5994 83.2001C26.1994 83.9001 26.6994 84.6001 27.2994 85.3001C30.0994 83.7001 30.7994 83.0001 31.1994 81.7001C29.4994 80.3001 28.7994 80.2001 27.0994 81.2001C25.7994 82.0001 24.4994 82.8001 23.1994 83.7001C22.8994 83.9001 22.6994 84.3001 22.3994 84.6001C23.4994 85.4001 24.9994 85.1001 25.5994 86.5001C25.8994 85.2001 24.2994 85.0001 24.0994 83.9001C25.2994 84.1001 25.5994 85.4001 26.8994 85.7001C26.1994 84.8001 25.7994 84.2001 25.2994 83.5001ZM22.3994 85.9001C21.6994 85.9001 21.2994 86.2001 21.2994 86.9001C21.2994 87.6001 21.6994 87.9001 22.3994 88.0001C23.2994 88.0001 24.2994 87.5001 24.2994 87.0001C24.2994 86.4001 23.5994 85.9001 22.3994 85.9001Z" fill="black"/>
<path d="M61.8008 37.8996C61.2008 38.0996 61.1008 38.1996 61.0008 38.1996C57.2008 37.6996 53.4008 37.0996 49.7008 36.5996C48.9008 36.4996 48.1008 36.4996 47.8008 35.0996C52.5008 35.1996 57.2008 35.1996 61.8008 37.8996Z" fill="#EB584A"/>
<path d="M57.4995 22.2998C58.1995 22.7998 58.8995 22.9998 58.9995 23.3998C60.7995 27.0998 63.3995 30.2998 65.8995 33.6998C64.9995 33.9998 64.2995 33.6998 63.9995 33.1998C61.7995 29.9998 58.8995 27.2998 57.4995 23.4998C57.3995 23.2998 57.4995 22.9998 57.4995 22.2998Z" fill="#EB584A"/>
<path d="M70.0995 32.6C68.9995 30.1 71.1995 20.9 73.9995 18.5C73.8995 19.4 73.8995 20 73.7995 20.5C73.3995 21.8 72.7995 23.1 72.2995 24.6C71.5995 27.3 70.7995 29.9 70.0995 32.6Z" fill="#EB584A"/>
</svg>
