<svg width="126" height="90" viewBox="0 0 126 90" fill="none" xmlns="http://www.w3.org/2000/svg">
<path d="M68.3996 21C68.3996 15.3 68.3996 9.6 68.3996 3.8C68.3996 3.3 67.9996 3 67.4996 3C66.9996 3 66.5996 3.4 66.5996 3.9C66.5996 9.6 66.5996 15.3 66.5996 21.1C66.5996 21.6 66.9996 22 67.4996 22C67.9996 21.9 68.3996 21.5 68.3996 21Z" fill="#F15748"/>
<path d="M72.6003 7.1002C71.6003 5.0002 70.4003 3.0002 69.0003 1.1002C68.9003 1.0002 68.8003 0.800195 68.6003 0.600195C68.4003 0.400195 68.1003 0.200195 67.8003 0.200195H67.5003C67.1003 0.200195 66.7003 0.400195 66.5003 0.500195C66.3003 0.600195 66.1003 0.800195 66.0003 1.0002C65.0003 2.2002 64.1003 3.5002 63.5003 4.9002C63.3003 5.3002 63.5003 5.9002 63.9003 6.1002C64.3003 6.3002 64.9003 6.1002 65.1003 5.7002C65.7003 4.4002 66.5003 3.2002 67.4003 2.2002L67.7003 1.9002L67.6003 1.7002V1.9002H67.7003L67.6003 1.7002V2.0002V1.7002V2.0002V1.7002V2.0002V1.8002L67.4003 2.0002H67.5003V1.8002L67.4003 2.0002L67.6003 2.3002C68.9003 4.1002 70.1003 6.0002 71.0003 8.1002C71.2003 8.5002 71.8003 8.7002 72.2003 8.5002C72.6003 8.0002 72.8003 7.5002 72.6003 7.1002Z" fill="#F15748"/>
<path d="M66.1992 61.1002C66.1992 66.8002 66.1992 72.5002 66.1992 78.3002C66.1992 78.8002 66.5992 79.2002 67.0992 79.2002C67.5992 79.2002 67.9992 78.8002 67.9992 78.3002C67.9992 72.6002 67.9992 66.9002 67.9992 61.1002C67.9992 60.6002 67.5992 60.2002 67.0992 60.2002C66.5992 60.2002 66.1992 60.6002 66.1992 61.1002Z" fill="#F15748"/>
<path d="M62.1 74.9996C63.1 77.0996 64.3 79.0996 65.7 80.9996C65.8 81.0996 65.9 81.2996 66.1 81.4996C66.3 81.6996 66.6 81.8996 66.9 81.8996H67.2C67.6 81.8996 68 81.6996 68.2 81.5996C68.5 81.3996 68.6 81.1996 68.8 81.0996C69.8 79.8996 70.7 78.5996 71.3 77.1996C71.5 76.7996 71.3 76.1996 70.9 75.9996C70.4 75.7996 69.9 75.9996 69.7 76.3996C69.1 77.6996 68.3 78.8996 67.4 79.8996L67.1 80.1996L67.2 80.3996V80.1996H67L67.1 80.3996V80.1996V80.4996V80.1996V80.4996V80.1996V80.3996L67.2 80.1996H67.1V80.3996L67.2 80.1996L67 79.8996C65.7 77.9996 64.6 76.0996 63.6 74.0996C63.4 73.6996 62.8 73.4996 62.4 73.6996C62 74.0996 61.9 74.5996 62.1 74.9996Z" fill="#F15748"/>
<path d="M42.2007 77.2003C42.4007 78.9003 42.5007 80.8003 41.7007 82.4003C40.9007 83.8003 39.3007 85.1003 39.7007 86.6003C40.0007 88.1003 42.2007 88.7003 43.5007 87.9003C44.9007 87.2003 45.6007 85.7003 46.1007 84.2003C48.5007 77.1003 47.3007 69.4003 47.8007 61.9003C47.9007 60.4003 48.1007 58.9003 49.2007 57.8003C50.8007 56.1003 53.5007 56.4003 55.8007 56.4003C64.3007 56.4003 71.8007 50.3003 80.3007 49.6003C82.3007 49.4003 84.7007 49.8003 85.8007 51.5003C86.8007 53.1003 86.3007 55.2003 86.7007 57.0003C87.3007 59.1003 89.1007 60.6003 90.8007 62.0003C93.9007 64.5003 97.0007 66.9003 100.001 69.4003C102.301 71.3003 104.701 73.2003 106.201 75.7003C107.701 78.2003 108.201 81.6003 106.601 84.1003C105.901 85.2003 104.901 86.2003 105.001 87.4003C105.201 88.5003 106.401 89.3003 107.501 89.3003C109.501 89.3003 111.201 87.7003 111.801 85.7003C112.401 83.8003 112.101 81.7003 111.801 79.7003C111.301 76.1003 110.701 72.3003 108.701 69.3003C107.501 67.5003 105.701 66.0003 104.601 64.2003C102.401 60.7003 102.401 56.2003 102.501 52.1003C108.501 54.4003 109.301 63.1003 114.901 66.2003C116.101 66.9003 118.001 67.1003 118.701 65.9003C119.301 64.9003 118.601 63.6003 117.901 62.7003C114.301 57.8003 109.701 53.5003 106.801 48.1003C104.701 44.2003 103.501 39.7003 100.501 36.5003C97.1007 32.9003 91.9007 31.4003 86.9007 31.0003C81.9007 30.6003 76.9007 31.2003 71.9007 30.7003C64.2007 30.1003 56.9007 27.2003 49.8007 24.2003C47.6007 23.3003 45.2007 22.3003 43.4007 20.6003C41.4007 18.8003 40.1007 16.5003 38.8007 14.1003C37.6007 11.9003 36.3007 9.6003 35.1007 7.4003C34.6007 6.3003 33.9007 5.3003 32.9007 4.6003C31.8007 3.9003 30.4007 3.8003 29.1007 3.8003C26.7007 3.7003 24.3007 3.8003 21.9007 3.8003C20.9007 3.8003 19.8007 3.9003 19.1007 4.6003C17.9007 5.8003 18.5007 7.9003 17.6007 9.3003C16.0007 12.2003 11.0007 10.2003 8.50074 12.4003C6.90074 13.8003 7.10074 16.5003 8.20074 18.4003C10.9007 23.1003 17.4007 24.4003 22.8007 23.5003C23.8007 23.3003 24.9007 23.1003 25.8007 23.6003C26.4007 23.9003 26.8007 24.5003 27.1007 25.2003C29.4007 29.9003 28.6007 35.6003 30.2007 40.6003C31.2007 43.4003 32.9007 46.0003 34.7007 48.4003C37.9007 52.6003 39.9007 54.7003 40.5007 59.9003C41.0007 65.8003 41.6007 71.5003 42.2007 77.2003Z" fill="white"/>
<path d="M35.6995 20.1003C36.5995 19.0003 36.8995 17.5003 36.6995 16.1003C36.5995 15.3003 36.3995 14.5003 35.8995 13.9003C33.6995 11.1003 29.4995 15.9003 28.9995 18.0003C28.0995 21.7003 33.6995 22.7003 35.6995 20.1003Z" fill="#BCBCBB"/>
<path d="M39.6004 27C39.4004 28.1 38.6004 28.9 37.8004 29.6C37.0004 30.2 35.9004 30.7 35.0004 31.2C33.1004 32.3 31.5004 33.7 30.3004 35.4C30.1004 35.6 30.0004 35.9 29.7004 35.9C29.1004 36 28.9004 35.2 28.9004 34.6C28.9004 31.2 29.7004 31.6 32.7004 30.3C33.6004 29.9 39.5004 28 39.6004 27Z" fill="#BCBCBB"/>
<path d="M60.6005 53.5C60.8005 53.5 61.0005 53.5 61.1005 53.6C61.4005 53.7 61.6005 54 61.7005 54.3C62.0005 55.1 61.4005 55.9 60.7005 56.3C60.0005 56.7 59.1005 56.8 58.3005 56.8C55.2005 57 52.0005 57.1 48.9005 57.1C48.1005 54.8 47.9005 52.1 50.9005 52.2C54.1005 52.4 57.5005 53 60.6005 53.5Z" fill="#BCBCBB"/>
<path d="M111.599 88.1998C110.599 87.9998 109.699 88.3998 108.699 88.5998C107.699 88.7998 106.599 88.6998 105.899 87.9998C105.099 86.9998 105.699 85.5998 106.299 84.4998C107.299 82.5998 109.499 76.4998 111.799 76.2998C112.099 77.2998 111.099 88.1998 111.599 88.1998Z" fill="#BCBCBB"/>
<path d="M47.4 83.7996C47.4 84.5996 47.4 85.4996 47.1 86.2996C46.8 87.0996 46.1 87.6996 45.2 87.6996C44.4 87.6996 43.7 87.0996 43.3 86.2996C43 85.6996 43 84.7996 43 83.9996C43.2 80.7996 44.1 75.7996 46.6 73.5996C48.6 75.1996 47.4 81.5996 47.4 83.7996Z" fill="#BCBCBB"/>
<path d="M58.8 29.4998C63.7 30.5998 68.8 30.8998 73.9 31.1998C74.7 31.1998 75.4 31.2998 76.1 31.6998C76.7 32.0998 77.2 32.8998 76.9 33.5998C76.6 34.3998 75.6 34.4998 74.8 34.6998C69.5 35.2998 63.8 35.8998 59 33.5998C57.4 32.7998 55.9 31.6998 54.5 30.6998C52.3 29.0998 48.3 27.1998 47 24.7998C50.6 26.9998 54.5 28.6998 58.8 29.4998Z" fill="#BCBCBB"/>
<path d="M26.4004 27.7004L34.3004 24.0004L42.5004 18.9004L44.3004 22.6004L36.4004 28.7004L26.5004 31.4004L26.4004 27.7004Z" fill="#EB584A"/>
<path d="M118.5 64.8001C118.5 64.6001 118.3 64.3 118.2 64.1C117.4 63 116.7 61.9001 116 60.9001C115.2 59.9001 114.3 58.9001 113.7 57.9001C112.2 55.4001 110.8 52.9 109.5 50.3C107.8 46.9 106.2 43.4001 104.4 40C103.9 39 103.2 38.1 102.5 37.3C102.2 36.9 101.7 36.7 101.2 36.6C100.7 36.5 100.4 36.3001 100 35.9001C99.2 35.0001 98.3 34.1001 97.2 33.5001C94.4 32.0001 91.4 31.6001 88.3 31.5001C85 31.3001 81.7 31.3001 78.4 31.2001C77.6 31.2001 76.8 31.2001 76 31.1001C73.9 31.0001 71.9 31.0001 69.8 30.8001C67.1 30.5001 64.4 30.2001 61.7 29.8001C60.6 29.6 59.5 29.3001 58.3 29.0001C58.1 29.0001 57.9 28.8001 57.8 28.7001C57.6 28.2001 57.2 28.2001 56.8 28.2001C55.9 28.0001 54.9 27.7001 54 27.5001C53.7 27.5001 53.5 27.4001 53.3 27.3001C50.1 26.9001 47.5 25.2001 45.1 23.3001C44.8 23.0001 44.5 22.8001 44.3 22.7001C44.4 22.1001 44.5 21.6001 44.6 21.1001C43.9 21.2001 43.6 20.9001 43.4 20.4001C43.1 19.9001 42.8 19.4001 42.6 19.0001C42.3 18.6001 42.2 18.4001 42 18.3C40.7 16.4001 39.6 14.0001 38.4 11.6001C37.1 9.20005 35.7 6.80005 33.7 5.00005C33.6 4.90005 33.4 4.90005 33.3 4.90005C32.9 4.50005 32.5 4.20005 31.9 4.10005C31.2 3.90005 30.5 3.80005 29.8 3.70005C26.7 3.40005 23.5 3.70005 20.5 4.50005C19.6 4.80005 19 5.30005 18.5 6.10005C18.3 6.40005 18.4 6.80005 18.9 6.90005C19.4 6.50005 19.7 5.80005 20.3 5.70005C21.5 5.30005 22.8 4.90005 24.1 4.80005C25.7 4.60005 27.3 4.60005 29 4.50005C30.3 4.50005 31.4 4.80005 32.5 5.40005C32.9 5.70005 33.3 5.90005 33.6 6.20005C35.2 7.80005 36.5 9.90005 37.6 12.1001C38.8 14.4001 39.9 16.8001 41.2 18.7001C41.2 18.7001 41.1 18.8 41 18.8C40.5 19.3 39.9 19.9001 39.3 20.3001C37.1 21.7001 35.2 23.3001 32.9 24.4001C31.2 25.3001 29.5 26.1001 27.6 26.5001C27.6 25.4001 27.2 24.5001 26.6 23.6001C26 22.8001 25.2 22.1001 24.2 21.7001V21.6001C24 21.6001 23.9 21.6001 23.8 21.6001C22.5 22.4001 21.1 22.7001 19.6 22.6001C17.6 22.6001 15.7 22.5001 13.7 22.3001C13.2 22.3001 12.6 22.1001 12.1 22.0001C11.6 21.8001 11.2 21.5001 10.9 21.2001C9.9 20.1001 9.5 18.6 8.8 17.4001C9.4 16.3 9.9 15.5001 10.4 14.5001C10.9 13.7001 11.2 13.0001 10.9 12.0001C10.9 12.0001 11 11.9001 11 11.7001C12.1 11.4001 13.3 11.2001 14.4 10.9001C15.2 10.7001 16.1 10.4001 16.9 10.1001C18 9.70005 18.9 8.10005 18.8 6.90005C18.8 6.90005 18.8 6.90005 18.6 6.80005C18.3 7.00005 18.1 7.00005 18 7.20005C17.8 7.50005 17.6 7.90005 17.5 8.30005C17.2 9.10005 16.6 9.70005 15.7 9.90005C14.8 10.1001 14 10.4001 13.1 10.6001C11.6 10.9001 10.1 11.2001 8.6 11.6001C7.2 11.9001 6.7 12.6001 6.5 14.0001C6.5 14.5001 6.5 15.0001 6.6 15.5001C7.1 17.7001 8.2 19.7001 9.6 21.6001C10.1 22.3001 10.7 22.7001 11.5 22.8001C12.5 22.9001 13.4 23.0001 14.4 23.1001C16.6 23.4001 18.8 23.4001 21 23.2001C21.8 23.1001 22.7 22.9001 23.5 22.5001C23.5 22.5001 23.5 22.5001 23.6 22.5001C24.4 22.8001 25.1 23.3001 25.6 24.1001C26.1 24.9001 26.4 25.7001 26.4 26.6001V26.7001C26.4 26.7001 26.3 26.8001 26.2 26.8001C26.2 26.8001 26.3 26.9001 26.4 26.9001C26.4 27.0001 26.4 27.1001 26.4 27.2001C26.4 27.5001 26.5 27.7001 26.7 27.7001C26.9 27.7001 27 27.7001 27.1 27.5001C27.7 28.4001 27.6 29.4001 27.9 30.4001C27.4 30.7001 27.1 30.6001 27 30.1001C26.9 29.6001 26.8 29.0001 26.7 28.5001C26.6 28.1001 26.6 27.7001 26.2 27.6001C26.1 27.7001 26 27.8001 26 27.8001C26.1 28.9001 26.2 30.1001 26.3 31.2001C26.3 31.7001 26.8 31.7001 27.1 31.7001C27.5 31.7001 27.9 31.7001 28.5 31.6001C29 34.6001 29 37.6 29 40.5C29.3 40.8 29.6 41.2 29.8 41.6C30 42 30.1 42.5 30.3 42.9001C32.4 46.5 34.3 50.2001 37.2 53.3C37.5 53.6 37.9 54 38.3 54.3C38.4 54.2001 38.5 54.2 38.6 54.1C38 53.1 37.3 52.2001 36.7 51.2001C35.7 49.9001 35.7 49.8 37 48.6C37.2 48.4 37.4 48.2 37.6 48.1C38.1 47.6 38.7 47.2001 39.3 46.7001C39.3 46.7001 39.2 46.6 39.1 46.5C37.7 47.2001 36.7 48.5 35.4 49.5C35 49 34.6 48.5 34.3 48C33.3 46.3 32.3 44.5 31.4 42.8C31.1 42.2001 30.9 41.5 30.7 40.8C30.5 40.1 30.7 39.2001 29.9 38.7001C29.8 38.6001 29.8 38.3 29.8 38.2001C29.7 36 29.6 33.8001 29.5 31.5001C30.5 31.1001 31.5 30.5001 32.6 30.2001C35.4 29.4001 37.8 27.7001 40.1 26.1001C41.4 25.2001 42.4 24.1001 43.6 23.1001C44.9 24.0001 46.2 24.9001 47.5 25.8001C49.6 27.2001 52.1 27.6001 54.4 28.4001C55.3 28.7001 56.3 28.5001 57 29.4001C57.1 29.5001 57.4 29.6001 57.5 29.6001C58.7 29.9001 60 30.2001 61.3 30.4001C62.6 30.6001 63.8 30.7001 65.1 30.9001C68.4 31.4001 71.8 31.7001 75.2 31.8001C77.1 31.8001 78.9 32 80.7 32.1C81.4 32.1 82.1 32.2001 82.9 32.2001C85.1 32.2001 87.3 32.2001 89.5 32.3001C92.2 32.5001 94.7 33.0001 97.1 34.3001C98.2 34.9001 98.9 35.7001 99.7 36.5C100.2 37 100.1 37.3 99.6 37.7001C98.9 38.3 98.2 38.8001 97.6 39.4001C97.4 39.6001 97.3 39.9 97.2 40.1C97.3 40.2 97.4 40.2001 97.5 40.3C97.6 40.2001 97.6 40 97.7 39.9001C98.5 39.2001 99.2 38.4 100 37.8C101.1 36.9 101.3 37 102.2 38C102.8 38.7001 103.3 39.4 103.7 40.3C104.4 41.7001 105 43.3 105.8 44.7001C107.5 47.9001 109.1 51.3 110.8 54.5C112.3 57.2001 113.9 60 116.1 62.3C116.7 62.9 117.1 63.7001 117.5 64.3001C117.7 64.6001 117.8 65.1 117.9 65.5C116.8 65.7001 116.4 65.6001 115.7 65.3001C113.1 64.3001 111.4 62.2001 109.4 60.4001C110.1 59.6001 110.2 59.5 109.6 58.8C108.6 57.5 107.5 56.3 106.5 55C105.2 53.4001 103.6 51.9001 102.7 50C102.1 48.8 101.6 47.6 100.9 46.3C100.9 46.9 100.7 47.4 100.9 47.8C101.4 48.9 101.2 49.8001 101.1 50.9001C100.9 52.7001 101.1 54.5 101.4 56.2001C102 59.4001 103.4 62.2001 105.1 64.9001C106.4 67 108.4 68.5001 110.1 70.1001C110.2 70.2001 110.4 70.2001 110.7 70.3001C110.2 69.3001 109.7 68.6001 109.1 68.1001C106.8 66.1001 105.2 63.7001 103.9 61C102.4 58.1 101.8 54.9001 101.7 51.7001C101.7 51.2001 101.8 50.8 101.8 50.2001C102.4 51 102.8 51.7001 103.4 52.3C104.9 54 106.4 55.8 108 57.5C108.4 58 108.8 58.5 109.2 59C108.8 59.3 108.6 59.4 108.2 59.6C108.3 59.9 108.4 60.1001 108.6 60.4001C110 61.8001 111.4 63.2001 113 64.5C114.2 65.5 115.6 66.1001 117.3 66.3001C118.3 66.5001 118.8 65.9001 118.5 64.8001ZM28.5 30.5001C28.3 29.4001 28.1 28.5001 27.9 27.6001C27.8 27.1001 28 26.8001 28.7 26.9001C29 27.9001 29.3 28.9001 29.7 30.1001C29.4 30.2001 29 30.4001 28.5 30.5001ZM30.3 30.0001C29.7 28.9001 29.5 27.9001 29.4 26.8001C33 25.2001 36.2 23.4001 39.3 21.0001C39.8 22.0001 40.3 22.9001 40.8 23.9001C37.8 26.8001 34.2 28.7001 30.3 30.0001ZM39.9 21.2001C39.8 21.0001 39.9 20.8001 39.9 20.7001C39.9 20.6001 40.1 20.6001 40.3 20.5001C40.6 21.5001 41.3 22.3001 41.3 23.3001C40.6 22.7001 40.2 22.0001 39.9 21.2001ZM41.8 22.7001C41.4 21.8001 41.1 21.1 40.8 20.3001C40.6 19.7001 41 19.5001 41.4 19.2001C43.1 20.5001 43.2 21.4001 41.8 22.7001Z" fill="black"/>
<path d="M112.5 79.6004C112.3 76.7004 111.9 73.8004 112.2 70.8004C112.2 70.5004 112.1 70.2004 112.1 69.9004C112 69.9004 111.8 69.9004 111.8 69.8004C111.7 70.1004 111.5 70.3004 111.5 70.6004C111.5 71.2004 111.4 71.9004 111.5 72.5004C111.7 75.3004 111.9 78.0004 112.1 80.8004C112.2 82.7004 112.3 84.6004 112.3 86.5004C112.3 87.5004 112.2 87.6004 111.2 87.8004C109.9 88.0004 108.7 88.1004 107.4 88.2004C106.6 88.2004 105.9 87.9004 105.5 87.2004C105 86.6004 105 86.0004 105.6 85.6004C106.1 85.3004 106.7 85.0004 107.2 84.9004C108.3 84.6004 108.4 84.6004 108.3 83.5004C108.2 82.1004 108.1 80.8004 108 79.4004C108 78.3004 108 77.1004 108 75.9004C108 75.1004 107.7 74.7004 107 74.3004C104.8 73.0004 102.8 71.6004 100.6 70.3004C98.1996 68.9004 96.1996 67.0004 94.1996 65.1004C93.9996 64.9004 93.8996 64.7004 93.6996 64.5004C94.1996 63.4004 95.2996 62.9004 96.0996 62.2004C94.9996 62.5004 94.1996 63.3004 93.2996 64.1004C92.9996 63.7004 92.6996 63.3004 92.2996 62.8004C93.3996 61.8004 94.3996 60.9004 95.3996 60.0004C95.2996 59.9004 95.2996 59.8004 95.1996 59.8004C94.0996 60.7004 92.9996 61.6004 91.8996 62.5004C91.5996 62.2004 91.3996 61.9004 91.1996 61.6004C90.9996 61.4004 90.6996 61.1004 90.4996 61.1004C89.6996 61.1004 89.5996 60.6004 89.3996 60.1004C88.2996 57.6004 87.3996 55.1004 86.7996 52.4004C86.6996 52.1004 86.6996 51.7004 86.4996 51.4004C85.0996 49.2004 82.6996 48.3004 80.0996 48.9004C78.3996 49.3004 76.6996 49.8004 75.0996 50.5004C72.3996 51.6004 69.5996 52.8004 66.8996 54.0004C64.0996 55.1004 61.1996 55.9004 58.0996 56.4004C57.7996 55.8004 57.3996 55.4004 56.6996 55.7004C54.5996 56.5004 52.4996 56.7004 50.2996 56.5004C49.9996 56.5004 49.7996 56.5004 49.5996 56.5004C49.3996 56.5004 49.2996 56.7004 49.0996 56.9004C49.5996 57.4004 50.0996 57.4004 50.5996 57.4004C52.3996 57.5004 54.1996 57.3004 55.9996 56.8004C56.3996 56.7004 56.7996 56.5004 57.1996 57.0004C57.6996 57.6004 58.2996 57.5004 58.9996 57.4004C59.8996 57.2004 60.7996 57.0004 61.6996 56.8004C62.9996 56.5004 64.3996 56.2004 65.5996 55.8004C66.9996 55.3004 68.2996 54.7004 69.5996 54.2004C71.2996 53.5004 73.0996 52.8004 74.7996 52.2004C76.1996 51.7004 77.4996 51.1004 78.8996 50.6004C82.8996 49.4004 85.5996 51.2004 86.5996 54.4004C87.0996 56.0004 87.5996 57.7004 88.1996 59.4004C88.5996 60.5004 89.0996 61.5004 89.5996 62.5004C89.9996 62.5004 90.3996 62.5004 90.5996 62.4004C91.2996 63.2004 91.9996 64.0004 92.6996 64.8004C94.7996 66.9004 96.8996 69.0004 99.4996 70.6004C101.9 72.0004 104.2 73.6004 106.5 75.0004C106.9 75.3004 107.1 75.5004 107.1 76.1004C107.2 78.6004 107.3 81.0004 107.3 83.5004C107.3 83.6004 107.3 83.7004 107.2 83.9004C106.7 84.1004 106.1 84.2004 105.7 84.4004C104 85.3004 103.5 86.7004 105 88.1004C105.6 88.7004 106.3 89.0004 107.2 89.0004C108.8 89.0004 110.4 88.9004 112 88.5004C113.1 88.2004 113.2 88.2004 113.2 87.0004C112.8 84.5004 112.7 82.0004 112.5 79.6004Z" fill="black"/>
<path d="M50.1996 54.2002C50.9996 53.7002 51.6996 53.4002 52.4996 52.9002C50.9996 53.0002 49.9996 54.0002 48.6996 54.6002C48.6996 52.7002 50.3996 52.6002 51.4996 51.7002C50.2996 51.6002 49.6996 52.5002 48.7996 52.8002C48.4996 51.6002 49.0996 50.3002 48.4996 49.2002C48.3996 49.2002 48.2996 49.2002 48.1996 49.2002C47.9996 50.0002 47.6996 50.7002 47.6996 51.5002C47.6996 52.8002 47.5996 54.1002 47.5996 55.4002C47.5996 58.4002 47.2996 61.4002 47.2996 64.3002C47.1996 67.0002 47.1996 69.7002 47.0996 72.4002C47.0996 72.9002 47.0996 73.3002 47.0996 73.8002C47.0996 76.1002 47.0996 78.5002 47.0996 80.8002C47.0996 82.4002 46.9996 84.1002 46.8996 85.7002C46.8996 86.3002 46.5996 86.5002 46.0996 86.8002C44.5996 87.6002 42.9996 87.5002 41.3996 87.6002C41.1996 87.6002 40.9996 87.6002 40.7996 87.5002C40.0996 87.2002 39.6996 86.6002 39.4996 85.9002C39.3996 85.1002 39.7996 84.6002 40.2996 84.3002C40.9996 83.9002 41.6996 83.7002 42.4996 83.4002C42.7996 83.3002 43.1996 83.2002 43.5996 83.1002C43.7996 81.2002 42.4996 79.7002 42.6996 78.0002C43.3996 77.3002 43.9996 76.7002 44.5996 76.1002C45.1996 75.5002 45.7996 74.9002 46.4996 74.4002C46.4996 74.4002 46.3996 74.3002 46.2996 74.2002C44.8996 75.0002 44.1996 76.4002 42.7996 77.2002C42.1996 75.6002 42.2996 74.9002 43.3996 73.9002C43.8996 73.4002 44.4996 72.9002 45.0996 72.4002C43.9996 72.5002 43.3996 73.5002 42.3996 74.0002C42.2996 73.7002 42.1996 73.5002 42.1996 73.2002C41.8996 70.0002 41.6996 66.9002 41.3996 63.7002C41.1996 61.0002 40.2996 58.5002 39.4996 56.0002C39.3996 55.7002 39.1996 55.2002 38.5996 55.2002C38.5996 55.5002 38.5996 55.7002 38.6996 56.0002C38.7996 56.4002 38.9996 56.7002 39.1996 57.1002C40.4996 60.6002 40.7996 64.3002 41.0996 68.0002C41.2996 71.0002 41.4996 74.0002 41.7996 77.1002C41.8996 78.4002 42.1996 79.7002 42.5996 80.9002C42.7996 81.5002 42.8996 82.0002 42.6996 82.4002C41.6996 82.9002 40.6996 83.3002 39.7996 83.8002C39.0996 84.2002 38.6996 84.9002 38.6996 85.7002C38.7996 87.1002 39.6996 88.4002 41.1996 88.5002C42.5996 88.6002 43.8996 88.4002 45.2996 88.2002C45.9996 88.1002 46.6996 87.6002 47.2996 87.2002C47.5996 87.0002 47.7996 86.7002 47.8996 86.4002C47.9996 85.3002 48.0996 84.2002 48.0996 83.2002C48.0996 80.5002 48.0996 77.8002 48.0996 75.1002C48.0996 72.4002 48.0996 69.6002 48.1996 66.9002C48.2996 63.6002 48.5996 60.4002 48.5996 57.1002C48.6996 55.5002 49.1996 54.8002 50.1996 54.2002Z" fill="black"/>
<path d="M68.0996 45.8998C67.7996 43.7998 67.3996 42.3998 66.5996 41.7998C66.9996 43.9998 67.3996 45.8998 67.6996 48.0998C68.2996 47.3998 68.1996 46.6998 68.0996 45.8998Z" fill="black"/>
<path d="M86.3 36.4996C85.9 36.1996 85.5 35.9996 85 36.1996C86.1 37.4996 87.2 38.7996 88.4 40.2996C88.2 38.7996 87.3 37.3996 86.3 36.4996Z" fill="black"/>
<path d="M79.0996 45.1C81.3996 44.6 83.4996 43.7 85.1996 42C84.1996 42.5 83.1996 43 82.1996 43.6C81.1996 44.2 79.8996 44.1 79.0996 45.1Z" fill="black"/>
<path d="M38.4008 32.5996C36.8008 33.4996 34.8008 36.0996 34.8008 37.4996C36.1008 35.6996 37.3008 34.1996 38.4008 32.5996Z" fill="black"/>
<path d="M69.4996 46.3004C69.8996 43.0004 69.6996 41.6004 68.5996 40.9004C68.6996 41.7004 68.7996 42.3004 68.8996 42.8004C68.9996 43.4004 68.9996 44.0004 68.9996 44.6004C69.0996 45.1004 68.8996 45.7004 69.4996 46.3004Z" fill="black"/>
<path d="M36.9008 50.9996C36.8008 51.0996 36.8008 51.2996 36.8008 51.3996C37.9008 50.4996 39.0008 49.4996 40.2008 48.5996C38.8008 48.9996 37.9008 49.9996 36.9008 50.9996Z" fill="black"/>
<path d="M98.9004 36.2998C98.0004 36.9998 97.1004 37.7998 96.4004 38.7998C96.4004 38.7998 96.5004 38.8998 96.6004 38.9998C97.4004 38.1998 98.2004 37.3998 99.1004 36.4998C99.0004 36.4998 99.0004 36.3998 98.9004 36.2998Z" fill="black"/>
<path d="M23.9004 8.2002C24.0004 8.7002 23.9004 9.1002 24.1004 9.4002C24.4004 9.9002 24.4004 10.5002 24.4004 11.1002C24.3004 11.8002 24.3004 12.5002 24.1004 13.2002C24.0004 13.8002 24.1004 14.4002 24.4004 14.9002C25.0004 15.7002 25.6004 16.5002 26.2004 17.4002C26.6004 17.8002 27.1004 18.2002 27.8004 18.0002C28.4004 17.8002 28.9004 17.7002 29.4004 17.3002C31.2004 16.1002 32.8004 14.6002 34.3004 13.0002C34.6004 12.7002 34.9004 12.2002 35.0004 11.8002C35.3004 11.0002 34.8004 9.9002 33.8004 9.4002C33.9004 9.8002 34.0004 10.2002 34.1004 10.5002C34.5004 11.4002 34.2004 12.1002 33.6004 12.8002C32.8004 13.6002 32.0004 14.4002 31.2004 15.1002C30.6004 15.6002 29.9004 16.1002 29.2004 16.6002C28.4004 17.2002 27.1004 17.1002 26.6004 16.6002C26.1004 16.0002 25.8004 15.3002 25.9004 14.5002C26.4004 14.2002 26.8004 14.0002 27.4004 13.6002C26.5004 13.6002 25.8004 14.6002 25.1004 13.7002C25.2004 13.3002 25.4004 13.0002 25.4004 12.7002C25.4004 12.4002 25.3004 12.0002 25.3004 11.7002C25.3004 11.0002 25.3004 10.3002 25.3004 9.7002C25.3004 8.8002 24.9004 8.4002 23.9004 8.2002Z" fill="black"/>
<path d="M18.4004 10.7005C18.4004 11.3005 18.7004 11.9005 19.2004 12.0005C19.6004 12.1005 20.1004 11.8005 20.5004 11.2005C20.5004 11.1005 20.6004 11.0005 20.6004 10.9005C20.8004 10.4005 20.9004 9.90046 20.5004 9.50046C20.1004 9.10046 19.6004 9.50046 19.2004 9.60046C18.8004 9.60046 18.4004 9.90046 18.4004 10.7005Z" fill="black"/>
<path d="M28.6004 5.49969C27.5004 5.39969 26.0004 5.79969 25.4004 6.39969C26.7004 6.59969 27.5004 5.99969 28.6004 5.49969Z" fill="black"/>
<path d="M20.3 7.9998C20.8 7.9998 21.4 7.9998 21.9 7.9998C21.9 7.8998 21.9 7.7998 21.9 7.6998C21.4 7.5998 21 7.3998 20.5 7.2998C20.4 7.2998 20.2 7.3998 20 7.4998C20.1 7.6998 20.1 7.9998 20.3 7.9998Z" fill="black"/>
<path d="M14.3008 15.1002C14.3008 15.1002 14.5008 15.4002 14.6008 15.4002C14.8008 15.4002 14.9008 15.2002 15.0008 15.1002C15.0008 15.1002 14.9008 14.9002 14.7008 14.7002C14.5008 14.8002 14.4008 14.9002 14.3008 15.1002Z" fill="black"/>
<path d="M12.4 14.7998C12.2 14.8998 12.1 15.0998 12 15.1998C12.1 15.2998 12.2 15.4998 12.3 15.3998C12.5 15.3998 12.6 15.1998 12.8 15.0998C12.7 14.9998 12.5 14.7998 12.4 14.7998Z" fill="black"/>
<path d="M12.7 17.5C12.8 17.5 12.9 17.3 13 17.2C13 17.2 13 17.1 12.8 17C12.7 17.1 12.6 17.2 12.5 17.3C12.6 17.4 12.7 17.6 12.7 17.5Z" fill="black"/>
<path d="M19.3004 10.5998C19.5004 10.5998 19.7004 10.3998 19.7004 10.1998C19.7004 9.9998 19.5004 9.7998 19.3004 9.7998C19.1004 9.7998 18.9004 9.9998 18.9004 10.1998C18.9004 10.3998 19.0004 10.5998 19.3004 10.5998Z" fill="white"/>
<path d="M7.49961 13.7002C8.09961 13.2002 8.89961 12.9002 9.69961 12.7002C9.79961 12.7002 9.89961 12.6002 9.89961 12.4002C9.89961 12.3002 9.79961 12.2002 9.59961 12.2002C8.79961 12.3002 7.89961 12.7002 7.29961 13.3002C7.19961 13.4002 7.19961 13.5002 7.29961 13.6002C7.29961 13.7002 7.39961 13.7002 7.49961 13.7002Z" fill="white"/>
</svg>
