<svg width="126" height="90" viewBox="0 0 126 90" fill="none" xmlns="http://www.w3.org/2000/svg">
<path d="M8.80021 20.7C10.6002 21 12.6002 20.7 14.3002 21.2C15.7002 21.7 16.8002 22.7 17.9002 23.7C20.5002 26.5 22.5002 29.8 23.7002 33.4C25.3002 38.1 25.9002 43.4 29.2002 47C31.2002 49.2 34.1002 50.5 35.8002 52.9C37.4002 55.2 37.8002 58.1 38.1002 60.9C38.6002 65.4 39.1002 69.8 39.6002 74.3C39.8002 75.7 39.9002 77 39.6002 78.4C39.0002 80.7 36.9002 82.6 37.2002 85C37.5002 87.1 40.0002 88.6 41.9002 87.7C43.5002 87 44.4002 85.1 44.5002 83.3C44.6002 81.5 46.2002 80.4 45.8002 78.6C45.0002 74.8 46.2002 68.6 46.3002 64.6C46.4002 60.5 45.7002 58 49.0002 55.7C51.2002 54.2 51.8002 53.5 54.4002 53.5C60.4002 53.3 66.4002 52.7 72.3002 51.6C75.6002 51 79.1002 50.2 82.3002 51.3C86.3002 52.6 88.9002 56.2 91.3002 59.6C93.8002 63.3 96.4002 67 98.9002 70.6C100.7 73.2 102.5 76.4 101.2 79.3C100.7 80.3 99.9002 81.2 99.8002 82.2C99.6002 83.9 101.5 85.4 103.2 85.1C104.9 84.8 106.2 83.4 106.8 81.7C107.4 80.1 107.3 78.3 107.3 76.5C107.2 73.8 107.1 71.2 107 68.5C107 67.4 106.9 66.3 106.4 65.4C105.8 64.3 104.7 63.6 103.7 62.7C99.0002 58.6 98.9002 50.2 103.7 46C107.5 52.6 113 58.2 119.6 62C120.1 62.3 120.7 62.6 121.3 62.4C121.8 62.2 122 61.8 122.1 61.3C122.7 59.2 121.5 56.9 120 55.3C118.4 53.7 116.4 52.6 114.9 51C111 46.9 110.5 40.7 107.2 36.1C106.1 34.5 104.7 33.2 103.3 31.9C99.8002 28.6 96.1002 25.1 91.5002 23.5C86.8002 21.9 81.7002 22.5 76.7002 22.7C66.1002 23.2 55.4002 21.8 45.2002 18.7C42.2002 17.8 39.2002 16.7 36.9002 14.6C35.4002 13.2 34.2002 11.4 32.8002 9.8C29.4002 6.1 24.5002 3.8 19.4002 3.5C17.9002 3.5 16.4002 3.6 15.1002 4.3C13.7002 5 12.7002 6.3 11.5002 7.4C10.0002 8.8 8.30021 9.6 6.40021 10.4C5.20021 10.9 3.80021 11.3 3.30021 12.7C2.20021 16.1 5.80021 20.1 8.80021 20.7Z" fill="white"/>
<path d="M22.9006 18.6999C24.0006 19.1999 25.4006 18.6999 26.5006 18.1999C27.3006 17.7999 28.1006 17.3999 28.6006 16.5999C29.1006 15.7999 29.1006 14.7999 29.1006 13.7999C29.1006 12.9999 28.9006 11.8999 28.1006 11.7999C27.7006 11.6999 27.3006 11.9999 27.0006 12.2999C26.7006 12.5999 26.6006 13.0999 26.4006 13.4999C25.6006 15.0999 24.3006 15.2999 22.8006 16.0999C21.6006 16.6999 21.1006 17.8999 22.9006 18.6999Z" fill="#BCBCBB"/>
<path d="M48.9997 55.3C49.5997 55.6 50.3997 55.7 51.0997 55.8C57.8997 56.2 64.7997 54.7 70.9997 51.9C72.0997 51.4 73.3997 50.6 73.4997 49.4C71.9997 48.6 70.1997 48.9 68.4997 49.1C63.2997 49.8 57.9997 50.2 52.6997 50.3C51.3997 50.3 48.5997 49.9 47.6997 51C46.4997 52.3 47.6997 54.6 48.9997 55.3Z" fill="#BCBCBB"/>
<path d="M105.4 46.8998C105.9 47.9998 106.5 48.9998 107.1 49.9998C108.3 51.8998 109.9 53.4998 111.5 55.0998C112.4 55.9998 113.4 56.9998 114.3 57.8998C114.9 58.4998 115.5 59.0998 116.1 59.5998C116.9 60.2998 118.4 60.8998 119.1 59.9998C119.6 59.2998 119.2 58.2998 118.7 57.4998C116.1 53.6998 112.5 50.6998 109.8 46.9998C109 45.9998 108.3 44.7998 107.3 43.9998C106.7 43.5998 104.7 42.3998 104 43.1998C103.4 43.8998 105 46.1998 105.4 46.8998Z" fill="#BCBCBB"/>
<path d="M44.7997 83.9998C44.7997 84.7998 44.7997 85.6998 44.2997 86.2998C43.7997 86.6998 43.1997 86.7998 42.4997 86.7998C41.7997 86.7998 40.9997 86.7998 40.3997 86.2998C39.6997 85.6998 39.5997 84.5998 39.8997 83.7998C40.1997 82.8998 40.7997 82.1998 41.3997 81.4998C43.1997 79.2998 44.5997 76.7998 45.0997 74.0998C45.6997 71.0998 45.0997 68.1998 45.2997 65.2998C45.6997 61.1998 46.9997 64.8998 46.7997 66.9998C46.3997 72.7998 44.6997 78.2998 44.7997 83.9998Z" fill="#BCBCBB"/>
<path d="M107.801 67.5998C107.201 72.7998 108.401 77.9998 108.201 83.1998C108.201 83.3998 108.201 83.5998 108.101 83.7998C107.901 84.1998 107.501 84.3998 107.001 84.4998C106.101 84.6998 105.101 84.4998 104.401 83.9998C103.701 83.4998 103.301 82.4998 103.501 81.4998C103.601 81.0998 103.801 80.6998 104.001 80.2998C105.401 77.5998 106.201 74.4998 106.201 71.3998C106.201 69.1998 106.001 66.7998 107.501 65.2998L107.801 67.5998Z" fill="#BCBCBB"/>
<path d="M47.5998 25.9998C50.2998 27.0998 53.3998 27.5998 56.3998 27.9998C61.5998 28.6998 66.7998 29.3998 71.9998 28.9998C74.0998 28.7998 76.2998 28.4998 78.1998 27.4998C78.6998 27.1998 79.1998 26.8998 79.4998 26.3998C79.8998 25.3998 79.1998 24.2998 78.1998 23.8998C77.1998 23.4998 76.0998 23.5998 75.0998 23.5998C67.6998 24.1998 60.2998 23.7998 53.0998 22.2998C51.0998 21.8998 44.9998 19.1998 43.2998 20.3998C40.4998 22.5998 46.0998 25.4998 47.5998 25.9998Z" fill="#BCBCBB"/>
<path d="M20.1992 25.7002L24.2992 23.1002L30.7992 16.8002L34.1992 12.7002L36.4992 14.3002L37.0992 15.4002L34.3992 20.4002L29.5992 25.1002C29.5992 25.1002 25.4992 27.3002 25.2992 27.6002C25.0992 27.9002 21.8992 29.3002 21.8992 29.3002L20.1992 25.7002Z" fill="#EB584A"/>
<path d="M123 59.0003C122.1 57.8003 121.1 56.6003 120.1 55.5003C118.7 53.9003 117.3 52.4003 115.8 50.8003C115.5 50.4003 115 50.1003 114.7 49.7003C114.5 49.5003 114.2 49.3003 114.1 49.0003C113.1 47.5003 112 46.0003 111.2 44.4003C109.8 41.6003 108.6 38.6003 107.2 35.8003C106.3 34.0003 105.6 32.1003 104.3 30.5003C103.4 29.3003 102.4 28.1003 100.5 28.7003C99.6996 27.9003 98.9996 27.2003 98.2996 26.5003C97.3996 25.5003 96.3996 24.7003 94.9996 24.3003C92.2996 23.5003 89.4996 22.8003 86.6996 22.7003C84.5996 22.7003 82.4996 22.5003 80.3996 22.5003C78.8996 22.5003 77.2996 22.6003 75.7996 22.8003C72.8996 23.2003 69.9996 23.5003 67.1996 23.7003C67.0996 23.7003 66.9996 23.7003 66.8996 23.7003C66.7996 23.4003 66.6996 23.2003 66.5996 22.9003C65.8996 23.0003 65.1996 23.1003 64.5996 23.1003C63.4996 23.1003 62.4996 23.2003 61.3996 23.1003C60.0996 23.0003 58.7996 22.7003 57.4996 22.5003C55.6996 22.2003 53.8996 22.0003 52.0996 21.7003C50.7996 21.5003 49.5996 20.7003 48.1996 20.8003C48.0996 20.8003 47.8996 20.7003 47.7996 20.6003C45.5996 19.9003 43.5996 18.9003 41.6996 17.6003C40.3996 16.7003 39.0996 15.9003 37.9996 14.9003C37.9996 14.9003 37.9996 14.9003 37.9996 14.8003C37.6996 14.6003 37.4996 14.4003 37.1996 14.2003C36.7996 13.8003 36.3996 13.4003 35.9996 13.0003C35.6996 12.7003 35.3996 12.5003 35.0996 12.5003C34.9996 12.5003 34.8996 12.5003 34.7996 12.4003C34.6996 12.4003 34.5996 12.3003 34.4996 12.2003C34.3996 12.1003 34.2996 12.0003 34.1996 11.9003C32.9996 10.4003 31.8996 8.90026 30.5996 7.50026C29.5996 6.40026 28.3996 5.30026 27.2996 4.20026C26.8996 3.70026 26.4996 3.50026 25.8996 3.30026C25.2996 3.10026 24.5996 3.00026 23.8996 2.90026C20.8996 2.70026 17.8996 2.90026 15.0996 3.70026C14.2996 3.90026 13.6996 4.50026 13.1996 5.20026C12.9996 5.50026 13.0996 5.90026 13.4996 5.90026C13.9996 5.50026 14.2996 4.90026 14.8996 4.70026C15.9996 4.30026 17.2996 3.90026 18.4996 3.80026C19.9996 3.60026 21.5996 3.60026 23.0996 3.50026C24.2996 3.40026 25.3996 3.80026 26.3996 4.40026C27.7996 5.20026 28.7996 6.40026 29.8996 7.60026C30.6996 8.40026 31.2996 9.50026 32.0996 10.3003C32.6996 10.9003 33.1996 11.6003 33.6996 12.2003C32.0996 14.8003 30.0996 17.1003 27.8996 19.3003C25.5996 21.6003 22.8996 23.4003 20.1996 25.1003C20.9996 26.0003 22.2996 28.0003 22.3996 28.6003C22.1996 28.4003 22.0996 28.3003 21.9996 28.2003C21.5996 27.7003 21.2996 27.1003 20.8996 26.5003C20.7996 26.3003 20.5996 26.1003 20.3996 26.2003C20.0996 25.6003 19.7996 25.0003 19.3996 24.5003C18.8996 23.8003 18.3996 23.1003 17.8996 22.4003C17.6996 22.1003 17.5996 21.9003 17.0996 22.2003C17.2996 22.5003 17.3996 22.8003 17.5996 23.1003C18.6996 24.9003 19.7996 26.6003 20.6996 28.5003C21.6996 30.4003 22.3996 32.3003 22.7996 34.4003C22.8996 35.1003 23.0996 35.8003 23.3996 36.5003C23.7996 36.2003 23.9996 36.1003 24.2996 35.9003C24.2996 36.0003 24.3996 36.1003 24.3996 36.2003C25.1996 39.3003 26.3996 42.2003 27.8996 45.1003C29.2996 47.8003 30.8996 50.3003 32.4996 52.9003C32.5996 53.1003 32.7996 53.2003 32.9996 53.3003C33.2996 53.5003 33.6996 53.6003 33.8996 53.9003C34.3996 54.4003 34.8996 54.9003 35.4996 55.3003C36.2996 55.9003 37.1996 56.4003 37.9996 56.9003C38.0996 56.9003 38.2996 56.9003 38.4996 56.8003C38.4996 56.6003 38.3996 56.5003 38.2996 56.3003C38.2996 56.3003 38.1996 56.2003 38.0996 56.2003C36.6996 55.5003 35.6996 54.4003 34.5996 53.4003C34.0996 52.9003 33.6996 52.5003 33.1996 52.2003C32.6996 51.9003 32.2996 51.5003 32.0996 51.0003C31.3996 49.7003 30.6996 48.4003 29.8996 47.2003C28.2996 44.5003 26.8996 41.8003 25.8996 38.9003C25.5996 37.9003 25.0996 37.0003 25.2996 35.9003C25.3996 35.4003 25.0996 34.9003 24.5996 34.5003C24.1996 34.2003 23.7996 34.4003 23.4996 34.6003C23.1996 33.4003 22.9996 32.3003 22.5996 31.3003C22.2996 30.7003 22.0996 30.0003 21.8996 29.4003C22.0996 29.6003 22.3996 29.6003 22.6996 29.5003C24.8996 28.7003 26.9996 27.7003 28.6996 26.1003C29.2996 26.3003 29.6996 26.1003 30.0996 25.9003C31.7996 25.1003 33.0996 23.7003 34.3996 22.5003C34.3996 22.5003 34.3996 22.5003 34.2996 22.3003C33.2996 22.9003 32.4996 23.7003 31.5996 24.5003C30.8996 25.1003 29.9996 25.4003 29.0996 25.9003C30.4996 24.5003 31.8996 23.1003 33.2996 21.6003C33.9996 20.9003 34.4996 20.0003 34.9996 19.2003C35.7996 18.0003 36.6996 16.8003 37.3996 15.5003C39.1996 17.0003 41.1996 18.2003 43.1996 19.5003C43.8996 20.0003 44.6996 20.3003 45.5996 20.6003C46.6996 20.9003 47.6996 21.4003 48.7996 21.7003C50.5996 22.1003 52.3996 22.3003 54.0996 22.6003C55.3996 22.8003 56.6996 23.0003 57.9996 23.2003C60.1996 23.7003 62.3996 24.1003 64.5996 23.6003C64.7996 23.6003 64.9996 23.6003 65.1996 23.6003C65.3996 24.6003 66.0996 24.5003 66.7996 24.5003C67.8996 24.4003 68.9996 24.3003 70.0996 24.2003C71.2996 24.1003 72.3996 23.9003 73.5996 23.8003C74.6996 23.7003 75.8996 23.5003 77.0996 23.4003C79.2996 23.1003 81.4996 23.3003 83.6996 23.4003C86.9996 23.5003 90.1996 23.9003 93.2996 24.7003C93.6996 24.8003 94.0996 25.0003 94.4996 25.1003C93.6996 26.0003 92.4996 26.3003 91.8996 27.2003C92.4996 26.9003 92.9996 26.6003 93.3996 26.3003C93.8996 26.0003 94.2996 25.8003 94.7996 25.5003C95.1996 25.3003 95.3996 25.4003 95.5996 25.8003C95.2996 26.1003 95.0996 26.4003 94.7996 26.6003C95.1996 26.4003 95.5996 26.3003 96.1996 26.0003C97.7996 27.0003 99.0996 28.5003 100.3 29.9003C101.4 29.3003 102.2 29.6003 102.9 30.4003C103.7 31.3003 104.5 32.3003 105.1 33.4003C105.6 34.2003 106 35.1003 106.4 36.0003C106.9 37.0003 107.4 37.9003 107.8 39.0003C109.1 42.1003 110.5 45.2003 112.3 48.0003C113.1 49.2003 113.6 50.6003 115.1 51.2003C115.2 51.2003 115.3 51.4003 115.4 51.5003C116.2 52.4003 117.1 53.3003 117.9 54.2003C119.3 55.8003 120.7 57.3003 122 58.9003C122.3 59.3003 122.5 59.7003 122.8 60.1003C123.1 60.7003 122.9 61.1003 122.3 61.4003C121.6 61.7003 120.9 61.9003 120.1 61.6003C119.7 61.4003 119.3 61.3003 118.8 61.1003C118.3 60.9003 117.7 60.8003 117.5 60.1003C117.5 60.0003 117.2 59.8003 117.1 59.8003C116.5 59.4003 115.8 59.1003 115.2 58.7003C114.4 58.2003 113.6 57.6003 112.8 57.0003C113.4 56.2003 112.8 55.8003 112.3 55.4003C110.6 54.2003 109.3 52.7003 108 51.1003C107.2 50.0003 106.4 48.7003 105.8 47.3003C106.3 47.0003 106.7 46.8003 107.1 46.5003C107.5 46.2003 107.9 46.2003 108.3 45.5003C107.2 46.0003 106.4 46.5003 105.6 46.9003C105.2 46.5003 105.1 46.1003 105.6 45.7003C105.7 45.6003 105.8 45.4003 105.9 45.3003C105.6 45.3003 105.3 45.4003 105 45.5003C104.4 44.3003 103.9 43.2003 103.7 42.0003C103.6 41.5003 103.4 40.9003 103.3 40.4003C103.3 40.3003 103 40.2003 102.7 40.1003C102.7 41.0003 102.8 41.7003 102.8 42.4003C102.9 44.2003 102.5 46.0003 102 47.7003C101.1 50.4003 100.2 53.2003 100.6 56.2003C100.9 58.5003 101.7 60.6003 103.4 62.2003C104.6 63.3003 105.8 64.6003 107 65.8003C106.6 66.3003 106.5 66.9003 106.8 67.4003C107.1 67.9003 107 68.3003 106.9 68.8003C106.6 70.3003 106.6 71.9003 106.7 73.4003C106.8 75.9003 107 78.5003 107 81.1003C107 81.3003 107.1 81.5003 107.1 81.7003C107.7 81.4003 107.6 80.9003 107.6 80.6003C107.5 78.4003 107.4 76.2003 107.3 74.0003C107.2 72.5003 107.2 71.0003 107.4 69.5003C107.5 68.7003 107.7 67.9003 107.4 67.1003C107.4 67.0003 107.4 66.8003 107.5 66.7003C107.9 66.0003 107.8 66.0003 107.4 65.4003C106.1 63.9003 104.7 62.4003 103.3 61.1003C102.9 60.7003 102.5 60.2003 102.2 59.7003C101.9 58.9003 101.7 58.1003 101.4 57.4003C100.9 55.9003 100.9 54.5003 101.1 53.0003C101.5 50.5003 102.2 48.2003 102.9 45.8003C102.9 45.6003 103 45.3003 103.2 45.0003C103.9 46.3003 104.5 47.5003 105.1 48.7003C106.5 51.4003 108 53.9003 110.5 55.8003C110.7 55.9003 110.9 56.2003 111 56.4003C111.2 57.4003 111.9 57.9003 112.6 58.5003C113.3 59.0003 114.1 59.5003 114.8 60.1003C116.2 61.3003 118 61.9003 119.7 62.6003C120.7 63.0003 121.6 62.6003 122.5 62.0003C123.8 61.2003 123.8 59.9003 123 59.0003ZM23.1996 28.4003C22.3996 27.7003 21.8996 26.8003 21.3996 25.9003C21.2996 25.8003 21.3996 25.6003 21.3996 25.4003C21.5996 25.4003 21.8996 25.4003 21.8996 25.5003C22.5996 26.2003 23.1996 27.0003 23.9996 27.8003C23.6996 28.0003 23.4996 28.2003 23.1996 28.4003ZM32.2996 21.5003C30.8996 23.0003 29.2996 24.3003 27.6996 25.6003C26.8996 26.3003 25.8996 26.8003 24.9996 27.4003C24.6996 27.7003 24.3996 27.6003 24.0996 27.3003C23.4996 26.5003 22.8996 25.8003 22.1996 24.9003C26.4996 22.1003 30.0996 18.6003 33.1996 14.6003C33.9996 15.6003 34.7996 16.5003 35.4996 17.4003C34.3996 18.9003 33.4996 20.3003 32.2996 21.5003ZM36.3996 15.1003C36.1996 15.6003 35.9996 16.1003 35.7996 16.7003C34.8996 15.8003 34.2996 14.8003 33.8996 13.7003C33.7996 13.5003 33.9996 13.1003 34.1996 12.7003C34.3996 13.0003 34.4996 13.2003 34.6996 13.4003C34.6996 13.5003 34.8996 13.6003 34.9996 13.7003C35.1996 13.7003 35.2996 13.6003 35.4996 13.6003C35.7996 13.8003 35.9996 14.0003 36.2996 14.2003C36.3996 14.5003 36.4996 14.7003 36.3996 15.1003Z" fill="black"/>
<path d="M106.399 83.2001C104.899 84.0001 103.399 83.9001 101.799 83.3001C100.999 83.0001 100.799 82.3001 100.599 81.7001C100.499 81.0001 100.899 80.5001 101.399 80.2001C101.799 79.9001 102.399 79.8001 102.899 79.7001C103.199 79.6001 103.399 79.6001 103.699 79.6001C103.599 79.1001 103.499 78.8001 103.399 78.3001C103.199 76.8001 102.999 75.3001 102.799 73.8001C102.599 73.0001 102.399 72.1001 102.199 71.3001C101.699 70.0001 101.099 68.8001 99.9992 67.9001C99.3992 67.4001 98.6992 66.8001 98.1992 66.2001C96.4992 64.2001 94.8992 62.1001 93.1992 60.1001C92.8992 59.7001 92.5992 59.3001 92.2992 58.8001C93.0992 58.3001 93.7992 57.8001 94.4992 57.4001C94.4992 57.4001 94.3992 57.3001 94.3992 57.2001C93.5992 57.6001 92.7992 58.0001 92.0992 58.4001C91.5992 57.9001 91.5992 57.9001 91.8992 57.3001C91.9992 57.2001 92.0992 57.1001 92.0992 57.0001L91.9992 56.9001C91.6992 57.1001 91.4992 57.2001 91.1992 57.4001C90.4992 56.3001 89.5992 55.4001 88.9992 54.2001C88.1992 52.6001 87.0992 51.2001 85.7992 50.0001C85.0992 49.4001 84.3992 48.9001 83.3992 48.7001C82.0992 48.4001 80.7992 48.3001 79.4992 48.6001C77.1992 49.1001 74.7992 49.6001 72.5992 50.4001C69.6992 51.5001 66.7992 52.5001 63.8992 53.5001C63.4992 53.6001 63.0992 53.7001 62.6992 53.6001C62.3992 53.5001 62.0992 53.5001 61.8992 53.6001C61.5992 53.7001 61.2992 53.9001 60.8992 53.9001C57.6992 54.6001 54.3992 55.3001 51.0992 55.6001C50.3992 55.6001 49.6992 55.7001 48.8992 55.3001C49.9992 54.5001 51.0992 53.7001 52.0992 53.0001C52.0992 52.9001 51.9992 52.9001 51.9992 52.8001C50.7992 53.6001 49.4992 54.4001 48.1992 55.3001C47.8992 54.8001 48.0992 54.4001 48.4992 54.0001C48.8992 53.5001 49.2992 53.1001 49.7992 52.6001C49.2992 53.0001 48.6992 53.3001 48.1992 53.7001C47.6992 52.7001 48.0992 51.8001 48.1992 50.9001C48.2992 50.3001 48.1992 49.7001 47.7992 49.2001C47.6992 49.1001 47.4992 49.0001 47.1992 48.9001C47.1992 49.8001 47.1992 50.5001 47.1992 51.3001C47.0992 54.6001 46.8992 58.0001 46.7992 61.3001C46.7992 61.6001 46.6992 62.0001 46.6992 62.3001C46.6992 64.7001 45.8992 67.0001 46.1992 69.4001C46.2992 70.0001 45.9992 70.6001 45.9992 71.2001C45.7992 73.1001 45.6992 75.1001 45.4992 77.0001C45.1992 79.7001 44.8992 82.3001 44.5992 85.0001C44.5992 85.4001 44.3992 85.6001 44.0992 85.8001C42.9992 86.6001 41.7992 86.6001 40.5992 86.6001C39.8992 86.6001 39.1992 86.5001 38.4992 86.3001C37.1992 85.8001 36.3992 84.5001 37.5992 83.2001C37.8992 82.9001 38.2992 82.5001 38.5992 82.1001C39.0992 81.6001 39.5992 81.3001 40.1992 81.7001C40.4992 81.4001 40.7992 81.0001 40.4992 80.6001C40.1992 80.1001 40.1992 79.7001 40.1992 79.2001C40.1992 78.2001 40.0992 77.2001 39.9992 76.2001C39.8992 74.2001 39.7992 72.2001 39.6992 70.2001C39.6992 69.5001 39.7992 68.9001 40.3992 68.5001C40.3992 68.5001 40.3992 68.4001 40.3992 68.3001C40.1992 68.3001 39.9992 68.4001 39.6992 68.5001C39.6992 68.2001 39.5992 68.0001 39.5992 67.8001C39.2992 65.1001 39.0992 62.4001 38.8992 59.7001C38.8992 59.1001 38.6992 58.5001 38.5992 57.9001C38.4992 57.6001 38.1992 57.5001 37.7992 57.7001C37.8992 58.2001 38.0992 58.6001 38.0992 59.1001C38.3992 62.3001 38.7992 65.5001 38.9992 68.7001C39.1992 71.4001 39.0992 74.0001 39.4992 76.7001C39.5992 77.8001 39.6992 78.8001 39.6992 79.9001C39.6992 80.2001 39.5992 80.5001 39.2992 80.7001C38.4992 81.3001 37.8992 81.9001 37.0992 82.5001C36.4992 83.0001 36.2992 83.7001 36.1992 84.4001C36.1992 84.8001 36.1992 85.2001 36.3992 85.6001C36.8992 86.4001 37.5992 86.9001 38.5992 87.1001C40.4992 87.5001 42.3992 87.4001 44.1992 86.6001C45.0992 86.2001 45.6992 85.6001 45.7992 84.6001C45.9992 82.4001 46.0992 80.3001 46.2992 78.2001C46.3992 76.6001 46.5992 74.9001 46.5992 73.3001C46.5992 71.3001 47.2992 69.3001 47.0992 67.3001C46.9992 65.9001 47.3992 64.5001 47.4992 63.0001C47.7992 61.2001 47.9992 59.4001 47.9992 57.5001C47.9992 57.1001 47.9992 56.8001 48.0992 56.4001C48.3992 56.4001 48.5992 56.3001 48.7992 56.4001C50.8992 56.7001 52.9992 56.5001 55.0992 56.1001C56.9992 55.8001 58.7992 55.4001 60.5992 55.0001C60.8992 55.0001 61.1992 54.8001 61.4992 54.9001C62.2992 55.2001 63.0992 54.9001 63.7992 54.6001C64.8992 54.3001 65.9992 53.9001 66.9992 53.5001C67.7992 53.2001 68.6992 52.9001 69.4992 52.6001C70.8992 52.1001 72.1992 51.5001 73.5992 51.1001C74.8992 50.7001 76.1992 50.3001 77.4992 49.9001C78.8992 49.5001 80.2992 49.3001 81.6992 49.4001C82.8992 49.4001 84.0992 49.7001 84.9992 50.5001C86.0992 51.5001 86.9992 52.5001 87.6992 53.8001C88.4992 55.4001 89.2992 56.9001 90.2992 58.3001C91.4992 59.9001 92.4992 61.6001 93.8992 63.1001C95.8992 65.3001 97.9992 67.4001 100.099 69.5001C100.999 70.4001 101.699 71.5001 101.899 72.8001C102.199 74.7001 102.499 76.6001 102.799 78.5001C102.799 78.7001 102.699 78.8001 102.699 78.9001C102.099 79.1001 101.599 79.2001 101.099 79.5001C100.399 80.0001 99.7992 80.7001 99.8992 81.5001C99.9992 82.4001 100.199 83.4001 101.199 83.7001C103.299 84.5001 105.399 84.6001 107.499 83.5001C107.899 83.3001 108.199 83.0001 107.999 82.5001C107.399 82.6001 106.899 83.0001 106.399 83.2001Z" fill="black"/>
<path d="M18.5 20.1004C18.4 20.1004 18.2 20.1004 18.2 20.1004C17 20.9004 15.6 21.1004 14.2 21.1004C12.3 21.1004 10.4 21.0004 8.6 20.9004C8.1 20.9004 7.5 20.8004 7.1 20.6004C6.7 20.4004 6.2 20.1004 5.9 19.8004C4.9 18.7004 4.6 17.3004 3.9 16.2004C4.5 15.2004 5 14.3004 5.5 13.5004C5.9 12.8004 6.2 12.0004 6 11.2004C6 11.2004 6.1 11.1004 6.1 11.0004C7.2 10.7004 8.3 10.5004 9.4 10.2004C10.2 10.0004 11 9.80039 11.8 9.50039C12.9 9.10039 13.7 7.60039 13.7 6.50039C13.7 6.50039 13.7 6.50039 13.6 6.40039C13.5 6.50039 13.3 6.50039 13.2 6.70039C13 7.00039 12.9 7.40039 12.7 7.70039C12.4 8.50039 11.8 9.00039 11 9.20039C9.9 9.20039 9.1 9.40039 8.3 9.60039C6.9 9.90039 5.4 10.2004 4 10.6004C2.7 10.9004 2.1 11.5004 2 12.9004C2 13.4004 2 13.9004 2.1 14.3004C2.6 16.5004 3.6 18.4004 4.9 20.1004C5.4 20.7004 6 21.2004 6.8 21.3004C7.7 21.4004 8.7 21.5004 9.6 21.6004C11.7 21.9004 13.8 21.9004 15.9 21.7004C16.7 21.6004 17.5 21.4004 18.3 21.0004C18.5 20.8004 18.7 20.5004 18.5 20.1004Z" fill="black"/>
<path d="M18.4004 7.2998C18.5004 7.6998 18.4004 8.1998 18.6004 8.4998C18.9004 8.9998 18.9004 9.5998 18.9004 10.0998C18.8004 10.7998 18.8004 11.4998 18.7004 12.0998C18.6004 12.6998 18.7004 13.1998 19.0004 13.6998C19.5004 14.4998 20.1004 15.2998 20.7004 15.9998C21.1004 16.3998 21.6004 16.7998 22.2004 16.5998C22.7004 16.3998 23.3004 16.2998 23.8004 15.8998C25.5004 14.6998 27.0004 13.2998 28.4004 11.7998C28.7004 11.4998 28.9004 11.0998 29.1004 10.6998C29.4004 9.8998 28.9004 8.8998 28.0004 8.3998C28.1004 8.7998 28.1004 9.1998 28.3004 9.3998C28.7004 10.1998 28.4004 10.9998 27.8004 11.5998C27.1004 12.3998 26.3004 13.0998 25.5004 13.7998C24.9004 14.2998 24.2004 14.7998 23.6004 15.1998C22.8004 15.6998 21.6004 15.6998 21.1004 15.1998C20.6004 14.5998 20.3004 13.8998 20.4004 13.1998C20.8004 12.8998 21.2004 12.6998 21.8004 12.3998C20.9004 12.3998 20.3004 13.3998 19.6004 12.4998C19.7004 12.0998 19.9004 11.7998 19.9004 11.4998C19.9004 11.1998 19.8004 10.8998 19.8004 10.4998C19.8004 9.8998 19.8004 9.1998 19.8004 8.5998C19.7004 7.9998 19.3004 7.5998 18.4004 7.2998Z" fill="black"/>
<path d="M87.1994 42.3002C87.1994 42.0002 87.1994 41.7002 86.7994 41.7002C85.3994 46.4002 88.5994 52.3002 91.6994 54.1002C91.3994 53.8002 91.1994 53.5002 90.8994 53.1002C90.2994 52.3002 89.5994 51.6002 89.0994 50.8002C87.7994 48.6002 86.7994 46.4002 86.9994 43.8002C86.9994 43.3002 87.0994 42.8002 87.1994 42.3002Z" fill="black"/>
<path d="M13.1991 9.70046C13.1991 10.3005 13.4991 10.8005 13.9991 11.0005C14.3991 11.1005 14.8991 10.8005 15.1991 10.2005C15.1991 10.1005 15.2991 10.0005 15.2991 9.90046C15.4991 9.40046 15.5991 8.90046 15.1991 8.50046C14.7991 8.10046 14.3991 8.50046 13.8991 8.60046C13.4991 8.70046 13.0991 9.00046 13.1991 9.70046Z" fill="black"/>
<path d="M47.2001 45.7002C46.3001 46.9002 48.2001 48.0002 49.9001 49.2002C50.4001 48.9002 50.4001 48.9002 50.1001 48.7002C49.6001 48.3002 49.0001 47.9002 48.8001 47.5002C48.5001 47.0002 48.5001 46.6002 48.4001 46.1002C48.4001 45.8002 48.7001 45.7002 47.2001 45.7002Z" fill="black"/>
<path d="M82.0992 40.2998C81.2992 42.0998 80.9992 44.0998 79.6992 45.7998C79.6992 45.7998 79.6992 45.8998 79.6992 45.9998L79.7992 46.0998C80.8992 45.5998 82.0992 42.8998 82.0992 40.2998Z" fill="black"/>
<path d="M22.8008 4.80047C21.7008 4.70047 20.3008 5.10047 19.8008 5.70047C21.0008 5.80047 21.9008 5.20047 22.8008 4.80047Z" fill="black"/>
<path d="M14.9 7.10039C15.4 7.10039 15.9 7.10039 16.4 7.10039C16.4 7.00039 16.4 6.90039 16.4 6.80039C15.9 6.70039 15.5 6.50039 15 6.40039C14.9 6.40039 14.7 6.50039 14.5 6.60039C14.7 6.80039 14.8 7.10039 14.9 7.10039Z" fill="black"/>
<path d="M43.5 68.0996C42.4 68.5996 41.5 69.1996 41 70.2996C41.8 69.5996 42.6 68.8996 43.5 68.0996Z" fill="black"/>
<path d="M23.0004 21.2002C22.3004 21.9002 21.4004 22.2002 20.9004 23.1002C21.7004 22.7002 22.5004 22.0002 23.0004 21.2002Z" fill="black"/>
<path d="M49.9004 52.5004C50.6004 52.1004 51.3004 51.7004 51.9004 51.4004C51.1004 51.6004 50.4004 51.8004 49.9004 52.5004Z" fill="black"/>
<path d="M49.9008 52.5C49.9008 52.5 49.9008 52.6 49.9008 52.5C49.8008 52.6 49.8008 52.6 49.8008 52.6C49.8008 52.6 49.9008 52.6 49.9008 52.5Z" fill="black"/>
<path d="M94.8008 26.6C94.9008 26.6 94.9008 26.6 94.8008 26.6L94.9008 26.5C94.9008 26.5 94.9008 26.5 94.8008 26.6C94.9008 26.5 94.8008 26.5 94.8008 26.6Z" fill="black"/>
<path d="M93.3008 27.9996C93.8008 27.4996 94.3008 27.0996 94.9008 26.5996C93.7008 26.9996 93.5008 27.1996 93.3008 27.9996Z" fill="black"/>
<path d="M19.4004 23.1C19.9004 22.7 20.3004 22.4 20.8004 22C19.6004 22.4 19.6004 22.4 19.4004 23.1Z" fill="black"/>
<path d="M20.8996 23.2002C20.1996 23.4002 19.7996 23.9002 19.5996 24.5002C20.1996 24.2002 20.5996 23.8002 20.8996 23.2002Z" fill="black"/>
<path d="M9.19922 13.9C9.19922 13.9 9.39922 14.2 9.49922 14.2C9.59922 14.2 9.79922 14 9.89922 13.9C9.89922 13.9 9.79922 13.7 9.69922 13.5C9.39922 13.7 9.29922 13.8 9.19922 13.9Z" fill="black"/>
<path d="M7.49961 13.7002C7.29961 13.8002 7.19961 14.0002 7.09961 14.1002C7.19961 14.2002 7.29961 14.3002 7.39961 14.3002C7.59961 14.3002 7.69961 14.1002 7.89961 14.0002C7.69961 13.9002 7.49961 13.7002 7.49961 13.7002Z" fill="black"/>
<path d="M43 66.5C42.6 66.7 42.2 66.8 42 67.3C42.4 67.2 42.8 66.9 43 66.5Z" fill="black"/>
<path d="M42.0008 67.2002C41.9008 67.2002 41.9008 67.3002 42.0008 67.2002C41.9008 67.3002 42.0008 67.3002 42.0008 67.2002Z" fill="black"/>
<path d="M41.1992 68.0998C41.4992 67.7998 41.6992 67.5998 41.9992 67.2998C41.4992 67.2998 41.1992 67.5998 41.1992 68.0998Z" fill="black"/>
<path d="M7.7 16.2998C7.8 16.2998 7.9 16.0998 8 15.9998C8 15.9998 7.9 15.8998 7.8 15.7998C7.7 15.8998 7.6 15.9998 7.5 16.0998C7.6 16.1998 7.7 16.2998 7.7 16.2998Z" fill="black"/>
<path d="M107.199 44.7002C106.599 44.9002 106.499 44.9002 106.199 45.3002C106.599 45.3002 106.899 45.1002 107.199 44.7002Z" fill="black"/>
<path d="M29.7996 45.5996H29.8996C29.8996 45.3996 29.7996 45.2996 29.7996 45.0996C29.6996 45.0996 29.5996 45.0996 29.5996 45.0996C29.5996 45.2996 29.6996 45.4996 29.7996 45.5996Z" fill="black"/>
<path d="M14.3 9.1998C14.3 9.3998 14.1 9.5998 13.9 9.5998C13.7 9.5998 13.5 9.3998 13.5 9.1998C13.5 8.9998 13.7 8.7998 13.9 8.7998C14.2 8.8998 14.3 8.9998 14.3 9.1998Z" fill="white"/>
<path d="M2.80078 12.6002C3.40078 12.1002 4.10078 11.8002 4.80078 11.7002C4.90078 11.7002 5.00078 11.6002 5.00078 11.4002C5.00078 11.3002 4.90078 11.2002 4.70078 11.2002C3.90078 11.3002 3.10078 11.7002 2.50078 12.2002C2.40078 12.3002 2.40078 12.4002 2.50078 12.5002C2.50078 12.6002 2.70078 12.7002 2.80078 12.6002Z" fill="white"/>
</svg>
