<svg width="126" height="90" viewBox="0 0 126 90" fill="none" xmlns="http://www.w3.org/2000/svg">
<path d="M69.8008 1.4C69.8008 7.1 69.8008 12.8 69.8008 18.6C69.8008 19.1 70.2008 19.5 70.7008 19.5C71.2008 19.5 71.6008 19.1 71.6008 18.6C71.6008 12.9 71.6008 7.2 71.6008 1.4C71.6008 0.9 71.2008 0.5 70.7008 0.5C70.2008 0.5 69.8008 0.9 69.8008 1.4Z" fill="#F15748"/>
<path d="M65.6991 15.3003C66.6991 17.4003 67.8991 19.4003 69.2991 21.3003C69.3991 21.4003 69.4991 21.6003 69.6991 21.8003C69.8991 22.0003 70.1991 22.2003 70.4991 22.2003H70.7991C71.1991 22.2003 71.5991 22.0003 71.7991 21.9003C72.0991 21.7003 72.1991 21.5003 72.2991 21.3003C73.2991 20.1003 74.1991 18.8003 74.7991 17.4003C74.9991 17.0003 74.7991 16.4003 74.3991 16.2003C73.9991 16.0003 73.3991 16.2003 73.1991 16.6003C72.5991 17.9003 71.7991 19.1003 70.8991 20.1003L70.5991 20.4003L70.6991 20.6003V20.5003H70.5991L70.6991 20.7003V20.5003V20.8003V20.5003V20.8003V20.5003V20.7003L70.7991 20.5003H70.6991V20.7003L70.7991 20.5003L70.5991 20.2003C69.2991 18.3003 68.1991 16.4003 67.1991 14.4003C66.9991 14.0003 66.3991 13.8003 65.9991 14.0003C65.5991 14.4003 65.3991 14.9003 65.6991 15.3003Z" fill="#F15748"/>
<path d="M71.9992 88.1996C71.9992 82.4996 71.9992 76.7996 71.9992 70.9996C71.9992 70.4996 71.5992 70.0996 71.0992 70.0996C70.5992 70.0996 70.1992 70.4996 70.1992 70.9996C70.1992 76.6996 70.1992 82.3996 70.1992 88.1996C70.1992 88.6996 70.5992 89.0996 71.0992 89.0996C71.5992 89.0996 71.9992 88.6996 71.9992 88.1996Z" fill="#F15748"/>
<path d="M76.1003 74.3004C75.1003 72.2004 73.9003 70.2004 72.5003 68.3004C72.4003 68.2004 72.3003 68.0004 72.1003 67.8004C71.9003 67.6004 71.6003 67.4004 71.3003 67.4004H71.0003C70.6003 67.4004 70.2003 67.6004 70.0003 67.7004C69.8003 67.8004 69.6003 68.1004 69.5003 68.2004C68.5003 69.4004 67.6003 70.7004 67.0003 72.1004C66.8003 72.5004 67.0003 73.1004 67.4003 73.3004C67.8003 73.5004 68.4003 73.3004 68.6003 72.9004C69.2003 71.6004 70.0003 70.4004 70.9003 69.4004L71.2003 69.1004L71.0003 68.8004V69.0004H71.1003L71.0003 68.8004V69.0004V68.7004V69.0004V68.7004V69.0004V68.8004L70.9003 69.0004H71.0003V68.8004L70.9003 69.0004L71.1003 69.3004C72.4003 71.2004 73.5003 73.1004 74.5003 75.1004C74.7003 75.5004 75.3003 75.7004 75.7003 75.5004C76.1003 75.2004 76.3003 74.7004 76.1003 74.3004Z" fill="#F15748"/>
<path d="M118.101 66.3998C118.801 64.1998 117.501 61.7998 115.901 60.1998C114.301 58.5998 112.301 57.3998 111.001 55.4998C108.401 51.4998 109.601 45.7998 107.401 41.5998C104.901 36.8998 97.9008 34.9998 95.8008 32.2998C94.4008 30.6998 92.7008 29.6998 90.6008 29.3998C80.8008 27.6998 72.0008 28.1998 59.7008 25.9998C49.8008 24.0998 44.3008 17.8998 36.7008 9.19976C36.0008 8.29976 33.0008 6.89976 32.1008 6.29976C31.2008 5.79976 30.1008 5.49976 29.1008 5.39976C25.2008 4.69976 20.3008 4.39976 18.0008 7.79976C17.5008 8.49976 17.2008 9.39976 16.6008 9.99976C14.9008 11.9998 11.7008 11.6998 9.60082 13.3998C6.90082 15.5998 7.70082 20.3998 10.2008 22.5998C12.8008 24.7998 16.5008 25.0998 19.9008 24.6998C21.7008 24.4998 23.5008 24.0998 25.2008 24.6998C31.1008 26.8998 25.5008 35.3998 26.6008 39.4998C26.9008 40.7998 27.7008 41.9998 28.5008 43.0998C31.8008 47.9998 35.0008 52.7998 39.0008 56.7998C41.3008 58.9998 43.8008 61.0998 45.4008 63.8998C47.3008 67.1998 47.6008 70.9998 47.9008 74.7998C48.1008 77.4998 48.3008 80.5998 46.7008 82.7998C45.9008 83.8998 44.7008 84.9998 44.7008 86.3998C44.7008 87.5998 45.8008 88.5998 46.9008 88.8998C49.4008 89.5998 52.1008 87.5998 53.2008 85.0998C54.3008 82.5998 54.2008 79.6998 54.0008 76.9998C53.9008 73.9998 53.7008 70.9998 53.6008 67.8998C53.6008 67.4998 53.6008 67.0998 53.7008 66.6998C54.0008 66.0998 54.7008 65.7998 55.3008 65.5998C60.4008 63.9998 65.7008 63.6998 71.1008 63.6998C71.4008 63.4998 71.8008 63.2998 72.2008 63.1998C73.5008 62.6998 74.8008 62.3998 76.0008 62.0998C78.9008 60.2998 82.0008 58.9998 85.5008 59.7998C88.0008 60.3998 90.2008 62.2998 91.5008 64.6998C91.9008 65.3998 92.1008 66.1998 92.4008 66.8998C92.5008 67.1998 92.7008 67.7998 92.7008 67.6998C93.2008 68.7998 93.7008 69.8998 94.1008 70.9998C94.4008 71.1998 94.7008 71.2998 95.1008 71.4998C98.7008 73.0998 102.601 73.9998 106.001 75.9998C107.401 76.8998 108.801 78.0998 109.501 79.6998C110.101 81.2998 109.801 83.4998 108.301 84.3998C107.901 84.5998 107.501 84.7998 107.201 85.1998C106.801 85.9998 107.601 86.7998 108.301 87.1998C109.901 87.9998 111.801 87.9998 113.501 87.3998C114.101 84.3998 114.601 81.4998 115.101 78.5998C115.201 77.7998 115.401 76.9998 115.201 76.1998C114.901 75.1998 114.101 74.4998 113.301 73.7998C110.101 71.0998 107.301 67.9998 105.401 64.1998C103.601 60.3998 102.901 55.8998 104.101 51.7998C107.701 57.5998 112.501 62.5998 118.101 66.3998Z" fill="white"/>
<path d="M35.1004 14.5C35.7004 14.5 36.2004 15.1 36.2004 15.8C36.2004 16.5 35.9004 17.1 35.5004 17.6C34.7004 18.7 27.6004 23.4 28.3004 20.5C28.5004 19.5 30.8004 18.5 31.5004 17.9C32.4004 17.1 33.9004 14.6 35.1004 14.5Z" fill="#BCBCBB"/>
<path d="M27.6992 34.7996C28.5992 35.0996 29.5992 34.7996 30.3992 34.4996C31.4992 33.9996 32.6992 33.5996 33.8992 33.0996C35.8992 32.2996 37.9992 31.3996 39.6992 29.8996C41.2992 28.3996 42.4992 26.0996 42.1992 23.8996C40.9992 23.6996 39.6992 24.1996 38.6992 24.9996C37.6992 25.7996 36.7992 26.7996 35.8992 27.5996C34.1992 28.9996 32.3992 29.4996 30.2992 29.8996C28.8992 30.1996 28.8992 29.7996 28.3992 31.1996C27.7992 32.1996 27.7992 33.6996 27.6992 34.7996Z" fill="#BCBCBB"/>
<path d="M57.1 29.3001C60.5 30.4001 63.9 31.6001 67.5 31.8001C69.8 31.9001 72.1 31.6001 74.3 31.4001C78.3 30.9001 82.3 30.4001 86.2 29.9001C87.1 29.8001 88.1 29.6001 88.8 29.1001C88.9 28.6001 88.2 28.3001 87.6 28.3001C80.2 28.3001 72.8 28.0001 65.3 27.2001C62 26.9001 57.9 25.6001 54.6 25.9001C50.2 26.6001 55.6 28.8001 57.1 29.3001Z" fill="#BCBCBB"/>
<path d="M52.5005 87.3998C51.4005 87.6998 50.4005 87.8998 49.3005 88.1998C49.0005 88.1998 48.8005 88.2998 48.6005 88.1998C48.4005 88.0998 48.2005 87.8998 48.1005 87.6998C47.6005 86.7998 48.0005 85.5998 48.4005 84.6998C49.8005 81.2998 51.0005 77.5998 52.7005 74.2998C52.7005 75.4998 52.9005 87.2998 52.5005 87.3998Z" fill="#BCBCBB"/>
<path d="M56.1991 60.7C65.8991 59 75.6991 57.4 85.5991 57.6C85.1991 59.4 82.9991 59.6 81.1991 59.7C76.1991 60 71.5991 62.2 66.7991 63.8C64.6991 64.5 62.5991 65 60.4991 65.5C58.9991 65.8 56.2991 67 54.7991 66.6C51.4991 65.6 53.6991 61.2 56.1991 60.7Z" fill="#BCBCBB"/>
<path d="M114.3 84.8001C114.3 85.6001 114.3 86.5001 113.9 87.3001C113.6 88.1001 112.7 88.7001 112 88.4001C111.1 88.1001 110.9 86.9001 110.9 85.9001C110.9 84.2001 111.4 77.7001 113.4 77.1001C116.2 76.2001 114.4 83.5001 114.3 84.8001Z" fill="#BCBCBB"/>
<path d="M107.3 57.3002C106.3 56.2002 105.3 55.0002 104.6 53.6002C103.9 52.2002 103.5 50.7002 103.8 49.2002C104.5 49.3002 104.9 49.9002 105.4 50.5002C106.8 52.4002 108.5 53.9002 110.2 55.5002C111.6 56.8002 114.2 58.6002 114.7 60.5002C115.3 62.6002 114 63.3002 112.4 62.4002C110.5 61.1002 108.8 59.0002 107.3 57.3002Z" fill="#BCBCBB"/>
<path d="M43.1 16.0996C43.7 16.9996 44.2 17.9996 44.6 18.9996C44.7 19.2996 44.9 19.5996 44.9 19.9996C44.9 20.3996 44.7 20.6996 44.6 20.9996C42.9 23.8996 40 25.8996 36.9 26.9996C33.8 28.0996 30 30.7996 27.3 28.9996C27.3 28.9996 27 26.5996 27 26.3996C27.2 25.5996 27.5 25.5996 28.2 25.1996C29.9 24.2996 31.6 23.3996 33.3 22.4996C36.7 20.4996 40 18.3996 43.1 16.0996Z" fill="#EB584A"/>
<path d="M118.2 63.8997C117.6 62.7997 117.1 61.7997 116.3 60.8997C115 59.2997 113.5 58.0997 112.4 56.2997C110.5 53.1997 108.7 49.8997 107.7 46.2997C107.1 43.8997 106.3 41.5997 104.9 39.4997C104.3 38.4997 103.5 37.5997 102.7 36.7997C102.1 36.1997 101.3 35.6997 100.5 35.2997C99.6 34.7997 98.5 35.2997 97.9 36.2997C98.2 36.2997 98.4 36.2997 98.6 36.1997C99.4 35.6997 100.2 35.7997 101 36.3997C101.8 36.9997 102.5 37.5997 103.1 38.2997C104.5 39.8997 105.4 41.8997 106.1 43.9997C106.6 45.5997 107.1 47.2997 107.7 48.8997C108.5 50.7997 109.3 52.5997 110.2 54.3997C111.4 56.6997 112.8 58.8997 114.9 60.4997C115.9 61.2997 116.6 62.4997 117.2 63.7997C117.3 63.9997 117.3 64.0997 117.3 64.3997C115.4 64.4997 113.9 63.7997 112.4 62.7997C113 62.2997 112.7 61.7997 112.3 61.3997C111.6 60.6997 110.8 59.9997 110.1 59.1997C109.1 58.0997 108.2 56.9997 107.3 55.9997C106.8 55.4997 106.4 54.7997 105.9 54.1997C106.2 53.7997 106.5 53.3997 106.8 53.0997L106.7 52.9997C106.4 53.2997 106 53.4997 105.6 53.7997C105.4 53.4997 105.3 53.1997 105.1 52.7997C105.6 52.2997 106 51.8997 106.6 51.3997C105.8 51.3997 105.5 52.0997 104.9 52.3997C104.2 50.6997 103.6 48.9997 102.9 47.1997C102.7 47.3997 102.7 47.4997 102.7 47.5997C103 49.7997 102.6 51.8997 102.5 53.9997C102.5 54.9997 102.5 55.8997 102.5 56.9997C102.5 57.8997 102.7 58.6997 102.8 59.5997C102.9 60.7997 103.2 61.8997 103.8 62.8997C104.2 63.5997 104.5 64.2997 104.9 64.9997C105.4 65.7997 105.8 66.6997 106.4 67.4997C108.5 70.2997 111 72.6997 113.8 74.6997C114.3 75.0997 114.6 75.4997 114.6 76.1997C114.6 79.2997 114.7 82.3997 114.7 85.4997C114.7 86.0997 114.7 86.7997 114.7 87.3997C113.5 87.4997 112.3 87.6997 111.2 87.7997C110.4 87.8997 109.6 87.6997 108.9 87.1997C108.3 86.6997 108 85.7997 108.2 85.1997C108.4 84.5997 109.6 84.0997 110.2 84.2997C110.5 84.3997 110.8 84.4997 110.9 84.1997C111 83.8997 111 83.5997 111 83.2997C110.9 82.6997 110.7 81.9997 110.7 81.3997C110.6 80.5997 110.6 79.8997 110.4 79.0997C110.1 77.4997 109.4 76.8997 107.9 76.5997C107.2 76.4997 106.5 76.3997 105.9 76.0997C104.6 75.3997 103.2 74.9997 101.9 74.5997C100 73.9997 98.3 73.0997 96.7 71.9997C95.7 71.2997 95.1 70.0997 93.8 69.7997C93.8 69.7997 93.7 69.6997 93.7 69.5997C93.4 69.0997 93.1 68.6997 92.6 68.0997C93 67.7997 93.3 67.4997 93.7 67.1997C94 66.8997 94.5 66.7997 94.6 66.0997C93.7 66.5997 93.1 67.2997 92.3 67.4997C92 67.0997 92.2 66.8997 92.5 66.6997C93.2 66.1997 93.9 65.5997 94.7 65.0997C95 64.8997 95.4 64.7997 95.5 64.0997C94.2 64.9997 93.1 65.7997 91.9 66.6997C91.3 65.8997 90.7 65.2997 90.3 64.4997C89.9 63.7997 89.5 63.0997 89.2 62.4997C89.2 62.3997 89.1 62.2997 89 62.1997C88.9 62.0997 88.9 61.8997 88.8 61.7997C88.5 61.4997 88.2 61.2997 88 60.8997L87.9 60.7997C87.3 60.1997 86.6 59.7997 85.7 59.5997C85.4 59.4997 85.2 59.4997 84.9 59.3997C85.3 58.8997 85.6 58.1997 85.6 57.7997C85 58.2997 84.6 58.7997 84.3 59.3997C83.6 59.2997 82.8 59.3997 82.1 59.4997C82.1 59.4997 82 59.4997 81.9 59.4997C82.6 58.8997 83.4 57.9997 83.8 57.2997C83.9 57.0997 83.9 56.8997 84 56.5997C83.5 56.7997 82.1 58.4997 81.3 59.5997C79.4 59.9997 77.5 60.3997 75.7 61.1997C73 62.2997 70.4 63.1997 67.7 64.1997C67.4 64.2997 66.9 64.3997 66.6 64.2997C66.3 64.1997 66.1 64.1997 65.8 64.2997C65.5 64.3997 65.2 64.5997 64.9 64.5997C61.9 65.2997 58.9 65.9997 55.9 66.1997C55.3 66.1997 54.7 66.2997 54 65.8997V65.7997C55 64.9997 55.9 64.3997 56.8 63.5997C56.8 63.5997 56.7 63.4997 56.7 63.3997C55.8 63.9997 54.8 64.6997 53.9 65.2997C53.9 64.9997 53.9 64.7997 53.9 64.4997C53.9 64.2997 53.9 64.1997 53.9 63.9997C54.2 63.6997 54.4 63.3997 54.7 63.0997C54.4 63.2997 54.2 63.4997 53.9 63.5997C53.9 63.3997 53.6 63.1997 53.6 63.1997C53.4 63.1997 53 63.5997 52.9 63.8997C52.9 64.0997 52.8 64.2997 52.8 64.4997C52.8 64.8997 52.8 65.2997 52.8 65.6997C52.8 65.7997 52.8 65.9997 52.9 66.2997C52.9 66.6997 52.9 67.0997 52.9 67.4997C52.9 69.0997 52.9 70.7997 53 72.3997C53 75.0997 53.1 77.6997 53.1 80.3997C53.1 82.3997 53 84.4997 52.7 86.3997C51.3 87.1997 49.9 87.5997 48.3 87.5997C47.4 87.5997 46.7 87.0997 46.3 86.2997C45.9 85.3997 46.2 84.3997 47.1 83.8997C47.6 83.5997 48.1 83.3997 48.7 83.1997C49.2 82.9997 49.3 82.6997 49.3 82.1997C49.3 81.2997 49.3 80.2997 49.3 79.3997C49.2 78.2997 49.7 77.7997 50.5 77.2997C50.9 76.9997 51.3 76.7997 51.7 76.5997C51.7 76.4997 51.6 76.3997 51.6 76.3997C50.9 76.6997 50.2 77.0997 49.4 77.4997C49.2 75.8997 50.5 75.6997 51.5 74.9997C50.5 74.6997 50 75.5997 49.2 75.7997C49.1 75.4997 49.1 75.0997 49 74.7997C48.7 73.1997 48.3 71.6997 47.9 70.0997C47.6 68.9997 47.1 67.8997 46.7 66.7997C45.9 64.2997 44.7 61.9997 43 59.8997C42.4 59.0997 41.5 58.4997 40.5 57.9997C40.5 58.7997 41 59.0997 41.3 59.4997C42.4 60.3997 43.3 61.5997 44 62.7997C45.4 65.0997 46.1 67.5997 47.1 70.0997C47.8 71.7997 48 73.6997 48.3 75.4997C48.6 77.4997 48.6 79.4997 48.4 81.4997C48.3 82.3997 47.7 82.8997 46.8 82.8997C46.7 82.8997 46.5 82.8997 46.4 82.7997C46.1 83.0997 45.9 83.3997 45.7 83.6997C45.5 83.9997 45.4 84.1997 45.4 84.4997C45 85.5997 45.2 86.5997 46 87.3997C46.7 87.9997 47.5 88.4997 48.5 88.3997C49.5 88.2997 50.4 88.2997 51.4 88.1997C51.9 88.1997 52.3 87.9997 52.7 87.8997C53.3 87.6997 53.7 87.1997 53.7 86.4997C53.7 85.7997 53.8 85.0997 53.8 84.3997C53.9 83.1997 54 81.8997 54 80.6997C54 76.0997 53.9 71.5997 53.8 66.9997C53.8 66.7997 53.8 66.6997 53.8 66.4997C53.8 66.4997 53.8 66.4997 53.9 66.4997C55.8 66.7997 57.8 66.5997 59.7 66.1997C61.4 65.8997 63.1 65.4997 64.8 65.1997C65.1 65.1997 65.4 64.9997 65.6 65.0997C66.4 65.3997 67 65.0997 67.7 64.7997C68.7 64.4997 69.7 64.0997 70.7 63.6997C71.5 63.3997 72.3 63.1997 73 62.8997C74.3 62.3997 75.5 61.8997 76.8 61.3997C78 60.9997 79.2 60.5997 80.4 60.2997C81.7 59.8997 83 59.7997 84.3 59.7997C85.4 59.7997 86.5 60.0997 87.3 60.7997C87.7 61.1997 88.1 61.5997 88.4 61.9997C88.6 62.2997 88.7 62.6997 88.9 62.9997C90.6 65.5997 92.4 68.0997 94.2 70.5997C94.3 70.7997 94.6 70.9997 94.8 70.8997C95.2 70.6997 95.4 70.9997 95.7 71.1997C97.4 72.5997 99.2 73.8997 101.3 74.4997C102.3 74.7997 103.3 75.0997 104.3 75.4997C105.7 75.9997 107.1 76.6997 108.6 76.7997C109.3 76.7997 109.8 77.3997 109.9 78.0997C110.1 79.3997 110.2 80.6997 110.3 81.9997C110.3 82.3997 110.1 82.6997 109.7 82.7997C109.2 82.9997 108.7 83.2997 108.3 83.5997C107.7 83.9997 107.3 84.9997 107.6 85.5997C108 86.6997 108.7 87.4997 109.9 87.7997C111.7 88.0997 113.5 87.7997 115.2 87.7997C115.6 87.7997 115.7 87.3997 115.6 86.9997C115.5 84.9997 115.4 82.9997 115.4 80.9997C115.4 78.9997 115.4 76.9997 115.4 74.9997C115.4 74.3997 115.1 73.9997 114.7 73.5997C113.9 72.9997 113.1 72.2997 112.3 71.6997C109.5 69.4997 107.5 66.7997 105.9 63.6997C105.9 63.5997 105.8 63.4997 105.8 63.3997C105.3 61.7997 104.7 60.1997 104.2 58.6997C103.5 56.4997 103.5 54.3997 103.9 51.9997C105.8 55.1997 107.6 58.2997 110.6 60.3997C110.4 60.6997 110.3 60.7997 110 61.0997C110.4 61.4997 110.8 61.6997 111 62.0997C111.5 62.8997 112.2 63.4997 113.1 63.7997C114.1 64.1997 115.1 64.5997 116.2 64.8997C116.7 64.9997 117.3 64.9997 117.7 64.8997C118.2 65.0997 118.5 64.5997 118.2 63.8997Z" fill="black"/>
<path d="M26.9008 29.2002V29.3002C26.9008 29.4002 26.9008 29.5002 26.9008 29.5002C26.9008 29.8002 27.1008 30.0002 27.5008 30.0002C28.6008 30.0002 29.8008 30.2002 30.9008 29.7002C32.6008 28.9002 34.3008 28.1002 36.0008 27.4002C36.5008 27.2002 37.0008 27.2002 37.5008 26.9002C40.4008 25.2002 43.3008 23.5002 45.4008 20.6002C46.0008 21.1002 46.8008 21.5002 47.6008 21.8002C48.6008 22.2002 49.5008 22.8002 50.5008 23.2002C52.1008 23.8002 53.8008 24.1002 55.5008 24.6002C56.7008 24.9002 57.9008 25.2002 59.1008 25.6002C61.1008 26.2002 63.1008 26.9002 65.3008 26.7002C65.5008 26.7002 65.6008 26.7002 65.9008 26.7002C65.9008 27.7002 66.7008 27.7002 67.4008 27.7002C68.4008 27.7002 69.5008 27.7002 70.5008 27.7002C71.6008 27.7002 72.7008 27.6002 73.8008 27.6002C74.9008 27.6002 76.0008 27.5002 77.1008 27.5002C79.2008 27.5002 81.3008 27.8002 83.4008 28.1002C86.4008 28.5002 89.4008 29.2002 92.4008 30.3002C92.7008 30.4002 93.1008 30.6002 93.5008 30.8002C92.6008 31.6002 91.5008 31.8002 90.8008 32.7002C91.3008 32.5002 91.8008 32.2002 92.3008 31.9002C92.7008 31.6002 93.2008 31.4002 93.7008 31.2002C94.1008 31.0002 94.3008 31.2002 94.4008 31.5002C94.1008 31.8002 93.9008 32.0002 93.6008 32.2002C94.0008 32.1002 94.4008 31.9002 94.9008 31.8002C96.3008 32.9002 97.3008 34.3002 98.3008 35.8002C98.5008 35.4002 98.8008 35.1002 99.1008 34.8002C99.0008 34.8002 98.8008 34.8002 98.6008 34.8002C98.0008 34.0002 97.3008 33.2002 96.7008 32.4002C95.9008 31.4002 95.0008 30.5002 93.8008 30.0002C91.3008 29.0002 88.8008 28.0002 86.1008 27.7002C84.1008 27.4002 82.1008 27.1002 80.1008 26.9002C78.8008 27.0002 77.3008 27.0002 75.9008 27.0002C73.2008 27.1002 70.4008 27.1002 67.7008 27.1002C67.6008 27.1002 67.5008 27.1002 67.4008 27.0002C67.4008 26.7002 67.3008 26.5002 67.2008 26.2002C66.5008 26.2002 65.9008 26.2002 65.3008 26.2002C64.3008 26.1002 63.3008 26.1002 62.3008 25.9002C61.1008 25.6002 59.9008 25.2002 58.7008 24.9002C57.1008 24.5002 55.4008 24.0002 53.7008 23.6002C52.5008 23.3002 51.4008 22.4002 50.1008 22.3002C50.0008 22.3002 49.8008 22.2002 49.7008 22.1002C48.3008 21.5002 47.1008 20.7002 45.9008 19.9002V19.8002C45.9008 19.7002 45.9008 19.6002 45.9008 19.5002C45.9008 19.2002 45.8008 19.0002 45.8008 18.8002C45.3008 18.7002 45.0008 18.3002 44.8008 17.9002C44.4008 17.3002 44.0008 16.7002 43.7008 16.1002C43.6008 16.0002 43.5008 15.9002 43.5008 15.8002C43.5008 15.8002 43.5008 15.8002 43.5008 15.7002C43.0008 15.0002 42.4008 14.2002 41.6008 13.2002C40.4008 11.8002 38.9008 10.2002 37.5008 8.80025C36.1008 7.40025 34.8008 6.20025 33.8008 5.50025C33.5008 5.20025 33.1008 5.00025 32.7008 4.80025C32.0008 4.60025 31.3008 4.40025 30.6008 4.40025C27.5008 4.10025 24.3008 4.40025 21.3008 5.20025C20.4008 5.50025 19.8008 6.10025 19.3008 6.80025C19.1008 7.20025 19.2008 7.50025 19.7008 7.60025C20.2008 7.10025 20.5008 6.50025 21.1008 6.30025C22.3008 5.80025 23.6008 5.50025 24.9008 5.30025C26.5008 5.10025 28.2008 5.10025 29.8008 5.00025C31.1008 4.90025 32.2008 5.30025 33.3008 6.00025C34.2008 6.60025 35.0008 7.40025 35.7008 8.10025C35.7008 8.10025 35.7008 8.00025 35.7008 7.90025C36.6008 8.70025 37.6008 9.70025 38.5008 10.7002C39.4008 11.7002 40.3008 12.6002 41.1008 13.6002C41.8008 14.4002 42.3008 15.1002 42.7008 15.7002C39.4008 18.4002 36.0008 20.9002 32.3008 22.8002C30.8008 23.6002 29.2008 24.4002 27.7008 25.1002C27.7008 25.3002 27.6008 25.5002 27.6008 25.7002C27.5008 25.6002 27.4008 25.4002 27.3008 25.3002C26.7008 24.5002 25.9008 23.7002 24.9008 23.4002C24.9008 23.4002 24.9008 23.3002 24.9008 23.2002C24.7008 23.2002 24.6008 23.2002 24.5008 23.2002C23.2008 24.0002 21.8008 24.3002 20.3008 24.3002C18.3008 24.3002 16.4008 24.2002 14.4008 24.0002C13.9008 24.0002 13.3008 23.8002 12.8008 23.6002C12.3008 23.4002 11.9008 23.1002 11.5008 22.7002C10.5008 21.5002 10.1008 20.0002 9.40078 18.7002C10.0008 17.6002 10.5008 16.6002 11.0008 15.7002C11.5008 14.9002 11.8008 14.1002 11.5008 13.1002C11.5008 13.1002 11.6008 13.0002 11.6008 12.8002C12.7008 12.5002 13.9008 12.3002 15.0008 12.0002C15.8008 11.8002 16.7008 11.5002 17.5008 11.2002C18.6008 10.8002 19.5008 9.10025 19.4008 7.90025C19.4008 7.90025 19.4008 7.90025 19.2008 7.80025C19.1008 7.90025 18.9008 7.90025 18.8008 8.10025C18.6008 8.40025 18.4008 8.80025 18.3008 9.20025C18.0008 10.1002 17.4008 10.6002 16.5008 10.8002C15.6008 11.1002 14.7008 11.3002 13.9008 11.5002C12.4008 11.9002 10.9008 12.2002 9.40078 12.6002C8.00078 12.9002 7.50078 13.6002 7.30078 15.1002C7.30078 15.6002 7.30078 16.2002 7.40078 16.7002C7.90078 19.1002 9.00078 21.1002 10.4008 23.1002C10.9008 23.8002 11.5008 24.3002 12.3008 24.4002C13.3008 24.6002 14.2008 24.6002 15.2008 24.8002C17.4008 25.1002 19.6008 25.1002 21.8008 24.9002C22.7008 24.8002 23.5008 24.6002 24.3008 24.1002C24.3008 24.1002 24.4008 24.1002 24.4008 24.0002C25.2008 24.3002 25.9008 24.9002 26.4008 25.6002C26.8008 26.2002 27.1008 26.9002 27.2008 27.7002C26.9008 28.4002 26.9008 28.8002 26.9008 29.2002ZM42.6008 16.5002C43.2008 17.2002 43.7008 18.0002 44.2008 18.9002C44.3008 19.1002 44.1008 19.5002 44.0008 19.7002C43.7008 20.2002 43.3008 20.6002 42.7008 21.2002C42.0008 19.9002 41.4008 18.9002 40.8008 17.9002C41.4008 17.4002 41.9008 17.0002 42.6008 16.5002ZM40.4008 18.4002C40.5008 18.4002 40.6008 18.5002 40.6008 18.6002C41.1008 19.4002 41.7008 20.3002 42.2008 21.2002C42.3008 21.3002 42.1008 21.7002 42.0008 21.9002C41.9008 21.9002 41.8008 21.9002 41.7008 21.9002C41.2008 20.8002 40.7008 19.7002 40.3008 18.6002L40.4008 18.4002ZM31.3008 24.0002C32.1008 23.5002 33.0008 23.1002 33.9008 22.6002C35.4008 21.7002 36.9008 20.7002 38.3008 19.8002C38.7008 19.5002 39.1008 19.2002 39.7008 18.8002C40.4008 19.9002 40.9008 21.1002 41.4008 22.4002C38.5008 24.9002 35.4008 26.9002 31.9008 28.5002C31.3008 27.3002 31.0008 26.1002 30.8008 24.9002C30.7008 24.4002 31.0008 24.2002 31.3008 24.0002ZM29.9008 24.8002C30.0008 24.9002 30.3008 25.0002 30.3008 25.2002C30.6008 26.3002 30.9008 27.4002 31.3008 28.6002C30.9008 28.7002 30.5008 28.8002 30.0008 28.9002C29.8008 27.6002 29.6008 26.4002 29.5008 25.3002C29.5008 25.2002 29.8008 25.0002 29.9008 24.8002ZM28.9008 25.2002C29.4008 26.5002 29.4008 27.7002 29.6008 29.1002H27.8008C27.7008 28.0002 27.7008 26.9002 27.6008 25.7002C27.9008 25.6002 28.3008 25.4002 28.9008 25.2002Z" fill="black"/>
<path d="M33.7996 47.8005C33.2996 48.1005 32.6996 48.5005 32.1996 48.8005C31.8996 48.3005 31.6996 48.0005 31.4996 47.6005C31.9996 46.5005 33.0996 46.1005 33.6996 45.1005C33.1996 45.3005 32.7996 45.6005 32.3996 45.9005C31.9996 46.2005 31.5996 46.6005 31.1996 47.0005C29.5996 43.8005 28.0996 40.8005 28.0996 37.3005C27.7996 37.2005 27.5996 37.1005 27.3996 37.0005C27.6996 35.3005 27.9996 33.5005 28.2996 31.8005C28.2996 31.4005 28.6996 30.7005 28.0996 30.6005C27.5996 30.5005 27.5996 31.2005 27.5996 31.6005C27.1996 33.9005 26.8996 36.2005 26.5996 38.5005C26.5996 38.6005 26.6996 38.7005 26.6996 38.8005C26.9996 38.7005 27.2996 38.6005 27.4996 38.5005C27.7996 39.6005 27.9996 40.7005 28.3996 41.8005C29.1996 44.1005 30.1996 46.5005 31.5996 48.5005C31.8996 48.9005 31.7996 49.2005 31.5996 49.6005C31.5996 49.6005 31.5996 49.8005 31.5996 49.9005C31.7996 49.8005 31.9996 49.7005 32.1996 49.6005C33.0996 50.9005 34.0996 52.2005 34.9996 53.4005C35.2996 53.8005 35.6996 54.1005 35.8996 54.5005C36.7996 56.1005 38.1996 57.2005 39.4996 58.5005C39.4996 58.5005 39.5996 58.5005 39.8996 58.5005C37.3996 55.2005 34.6996 52.4005 32.6996 49.0005C32.8996 48.6005 33.5996 48.5005 33.7996 47.8005Z" fill="black"/>
<path d="M24.1992 9.40039C24.2992 9.90039 24.1992 10.4004 24.3992 10.7004C24.6992 11.3004 24.6992 11.9004 24.6992 12.5004C24.5992 13.2004 24.5992 14.0004 24.3992 14.7004C24.2992 15.3004 24.3992 16.0004 24.6992 16.5004C25.2992 17.4004 25.8992 18.3004 26.5992 19.1004C26.9992 19.6004 27.4992 19.9004 28.1992 19.7004C28.6992 19.5004 29.2992 19.3004 29.7992 19.0004C31.5992 17.7004 33.1992 16.2004 34.6992 14.5004C34.9992 14.2004 35.2992 13.7004 35.3992 13.2004C35.6992 12.3004 35.1992 11.3004 34.1992 10.7004C34.2992 11.2004 34.3992 11.5004 34.4992 11.8004C34.8992 12.7004 34.5992 13.5004 33.9992 14.2004C33.1992 15.0004 32.3992 15.8004 31.5992 16.6004C30.9992 17.1004 30.2992 17.7004 29.5992 18.2004C28.7992 18.8004 27.4992 18.8004 26.9992 18.2004C26.4992 17.6004 26.1992 16.8004 26.1992 16.0004C26.6992 15.7004 27.0992 15.5004 27.6992 15.1004C26.7992 15.1004 26.0992 16.2004 25.3992 15.3004C25.4992 14.9004 25.6992 14.5004 25.6992 14.2004C25.6992 13.9004 25.5992 13.5004 25.5992 13.1004C25.5992 12.4004 25.5992 11.7004 25.5992 11.0004C25.5992 10.1004 25.0992 9.60039 24.1992 9.40039Z" fill="black"/>
<path d="M18.701 12.0001C18.701 12.7001 19.001 13.3001 19.501 13.4001C19.901 13.5001 20.401 13.1001 20.801 12.5001C20.801 12.4001 20.901 12.3001 20.901 12.2001C21.101 11.7001 21.201 11.1001 20.801 10.7001C20.401 10.2001 19.901 10.7001 19.501 10.8001C19.001 10.9001 18.601 11.2001 18.701 12.0001Z" fill="black"/>
<path d="M28.7996 6.49952C27.6996 6.29952 26.1996 6.79952 25.5996 7.49952C26.9996 7.69952 27.7996 6.99952 28.7996 6.49952Z" fill="black"/>
<path d="M20.4992 9.2C20.9992 9.2 21.5992 9.2 22.0992 9.2C22.0992 9.1 22.0992 9 22.0992 8.9C21.5992 8.8 21.1992 8.6 20.6992 8.5C20.5992 8.5 20.3992 8.6 20.1992 8.7C20.2992 8.8 20.3992 9.2 20.4992 9.2Z" fill="black"/>
<path d="M14.5 16.5996C14.5 16.5996 14.7 16.8996 14.8 16.8996C15 16.8996 15.1 16.6996 15.2 16.5996C15.2 16.5996 15.1 16.2996 14.9 16.0996C14.8 16.3996 14.6 16.4996 14.5 16.5996Z" fill="black"/>
<path d="M12.6992 16.4C12.4992 16.5 12.3992 16.7 12.1992 16.8C12.2992 16.9 12.3992 17.1 12.4992 17.1C12.6992 17.1 12.7992 16.9 12.9992 16.8C12.8992 16.5 12.6992 16.3 12.6992 16.4Z" fill="black"/>
<path d="M13.2992 18.8996C13.1992 18.7996 13.1992 18.7996 12.9992 18.5996C12.8992 18.6996 12.7992 18.8996 12.6992 18.8996C12.7992 18.9996 12.8992 19.0996 12.8992 19.0996C13.0992 19.1996 13.1992 18.9996 13.2992 18.8996Z" fill="black"/>
<path d="M19.4996 11.8C19.6996 11.8 19.8996 11.6 19.8996 11.4C19.8996 11.2 19.6996 11 19.4996 11C19.2996 11 19.0996 11.2 19.0996 11.4C19.0996 11.7 19.2996 11.8 19.4996 11.8Z" fill="white"/>
<path d="M7.70039 15.0996C8.30039 14.5996 9.10039 14.1996 9.90039 14.0996C10.0004 14.0996 10.1004 13.9996 10.1004 13.7996C10.1004 13.5996 10.0004 13.5996 9.90039 13.5996C9.10039 13.7996 8.30039 14.0996 7.60039 14.6996C7.50039 14.7996 7.50039 14.8996 7.60039 14.9996C7.50039 15.1996 7.70039 15.1996 7.70039 15.0996Z" fill="white"/>
</svg>
