<svg width="136" height="136" viewBox="0 0 136 136" fill="none" xmlns="http://www.w3.org/2000/svg">
<path d="M11.5995 42.0004C13.4995 42.4004 15.4995 42.0004 17.3995 42.5004C18.8995 43.0004 19.9995 44.0004 21.0995 45.1004C23.7995 48.0004 25.8995 51.4004 27.1995 55.2004C28.8995 60.1004 29.3995 65.6004 32.9995 69.4004C35.0995 71.6004 38.0995 73.0004 39.8995 75.5004C41.5995 77.9004 41.9995 81.0004 42.2995 83.9004C42.7995 88.6004 43.2995 93.2004 43.7995 97.9004C43.9995 99.3004 44.0995 100.8 43.7995 102.2C43.1995 104.6 40.9995 106.6 41.2995 109C41.5995 111.2 44.1995 112.7 46.1995 111.8C47.8995 111.1 48.7995 109.1 48.8995 107.2C48.9995 105.3 50.6995 104.2 50.2995 102.3C49.4995 98.3004 50.6995 91.9004 50.7995 87.8004C50.8995 83.6004 50.0995 80.9004 53.5995 78.5004C55.7995 77.0004 56.4995 76.3004 59.1995 76.2004C65.4995 76.0004 71.6995 75.4004 77.7995 74.2004C81.2995 73.5004 84.8995 72.8004 88.1995 73.8004C92.2995 75.1004 95.0995 78.9004 97.4995 82.5004C100.1 86.3004 102.8 90.2004 105.4 94.0004C107.3 96.7004 109.2 100.1 107.8 103C107.3 104 106.4 104.9 106.3 106C106.1 107.8 108.1 109.3 109.9 109C111.7 108.7 113.1 107.2 113.6 105.5C114.2 103.8 114.1 101.9 114.1 100.1C114 97.3004 113.9 94.5004 113.8 91.8004C113.8 90.7004 113.7 89.6004 113.2 88.6004C112.6 87.5004 111.4 86.7004 110.4 85.8004C105.5 81.5004 105.4 72.8004 110.4 68.4004C114.3 75.3004 120.1 81.1004 127 85.1004C127.5 85.4004 128.1 85.7004 128.7 85.5004C129.2 85.3004 129.4 84.8004 129.6 84.4004C130.3 82.2004 129 79.8004 127.4 78.2004C125.8 76.6004 123.7 75.4004 122.1 73.8004C118 69.6004 117.5 63.1004 114.1 58.2004C113 56.6004 111.5 55.2004 110 53.8004C106.3 50.3004 102.5 46.7004 97.6995 45.1004C92.7995 43.5004 87.4995 44.1004 82.2995 44.3004C71.1995 44.8004 60.0995 43.4004 49.4995 40.2004C46.3995 39.2004 43.1995 38.1004 40.8995 35.9004C39.2995 34.4004 38.0995 32.6004 36.6995 30.9004C33.1995 27.1004 27.9995 24.6004 22.6995 24.4004C21.1995 24.4004 19.5995 24.5004 18.1995 25.2004C16.7995 25.9004 15.7995 27.3004 14.4995 28.4004C12.9995 29.9004 11.1995 30.7004 9.19952 31.5004C7.99952 32.0004 6.49952 32.4004 5.99952 33.9004C4.69952 37.3004 8.39952 41.4004 11.5995 42.0004Z" fill="white"/>
<path d="M26.1995 40.0006C27.3995 40.6006 28.7995 40.0006 29.9995 39.5006C30.7995 39.1006 31.6995 38.6006 32.1995 37.8006C32.6995 37.0006 32.6995 35.9006 32.6995 34.9006C32.6995 34.1006 32.4995 33.0006 31.6995 32.8006C31.2995 32.7006 30.7995 33.0006 30.4995 33.4006C30.1995 33.8006 30.0995 34.2006 29.7995 34.6006C28.8995 36.3006 27.5995 36.5006 26.0995 37.3006C24.8995 37.9006 24.3995 39.1006 26.1995 40.0006Z" fill="#BCBCBB"/>
<path d="M53.399 78.0004C54.099 78.4004 54.799 78.4004 55.599 78.5004C62.699 78.9004 69.799 77.4004 76.299 74.4004C77.499 73.9004 78.799 73.1004 78.899 71.8004C77.299 71.0004 75.399 71.3004 73.699 71.5004C68.199 72.2004 62.799 72.7004 57.299 72.8004C55.999 72.8004 53.099 72.4004 52.099 73.5004C50.799 74.9004 52.099 77.3004 53.399 78.0004Z" fill="#BCBCBB"/>
<path d="M112.2 69.3004C112.8 70.4004 113.3 71.5004 114 72.6004C115.3 74.5004 116.9 76.2004 118.6 77.9004C119.6 78.9004 120.5 79.8004 121.5 80.8004C122.1 81.4004 122.7 82.0004 123.4 82.6004C124.3 83.3004 125.8 83.9004 126.5 83.0004C127.1 82.3004 126.6 81.2004 126.1 80.4004C123.4 76.4004 119.7 73.3004 116.8 69.4004C116 68.3004 115.3 67.2004 114.2 66.3004C113.6 65.9004 111.5 64.7004 110.8 65.4004C110.1 66.2004 111.8 68.5004 112.2 69.3004Z" fill="#BCBCBB"/>
<path d="M49.0992 108.001C49.0992 108.801 49.0992 109.801 48.4992 110.401C47.9992 110.801 47.2992 110.901 46.5992 110.901C45.8992 110.901 44.9992 110.901 44.3992 110.401C43.6992 109.801 43.4992 108.601 43.8992 107.801C44.1992 106.901 44.8992 106.201 45.4992 105.401C47.3992 103.201 48.7992 100.601 49.3992 97.7009C49.9992 94.6009 49.3992 91.6009 49.5992 88.5009C49.9992 84.3009 51.3992 88.1009 51.1992 90.3009C50.6992 96.3009 48.9992 102.001 49.0992 108.001Z" fill="#BCBCBB"/>
<path d="M114.701 90.8008C114.001 96.2008 115.301 101.601 115.101 107.001C115.101 107.201 115.101 107.401 115.001 107.601C114.801 108.001 114.301 108.201 113.901 108.301C113.001 108.501 111.901 108.301 111.201 107.801C110.501 107.201 110.001 106.201 110.201 105.201C110.301 104.801 110.501 104.401 110.701 104.001C112.201 101.101 113.001 97.9008 113.001 94.7008C113.001 92.5008 112.801 89.9008 114.401 88.3008L114.701 90.8008Z" fill="#BCBCBB"/>
<path d="M52 47.6001C54.9 48.8001 58 49.2001 61.1 49.7001C66.5 50.4001 71.9 51.2001 77.4 50.8001C79.6 50.6001 81.8 50.3001 83.8 49.3001C84.3 49.0001 84.9 48.7001 85.1 48.1001C85.5 47.1001 84.8 45.9001 83.8 45.5001C82.8 45.1001 81.6 45.1001 80.5 45.2001C72.8 45.8001 65.1 45.4001 57.6 43.9001C55.5 43.5001 49.1 40.6001 47.4 42.0001C44.6 44.0001 50.5 47.0001 52 47.6001Z" fill="#BCBCBB"/>
<path d="M23.5 47.2002L27.7 44.5002L34.4 38.0002L37.9 33.7002L40.3 35.3002L40.9 36.5002L38.1 41.7002L33.1 46.5002C33.1 46.5002 28.8 48.7002 28.7 49.1002C28.5 49.4002 25.2 50.9002 25.2 50.9002L23.5 47.2002Z" fill="white"/>
<path d="M32.4004 44.8008C31.6004 45.2008 30.8004 45.6008 30.0004 45.9008C29.0004 46.3008 28.0004 46.7008 27.0004 47.2008C26.1004 47.8008 25.2004 48.5008 24.9004 49.5008C26.1004 49.9008 27.4004 49.8008 28.4004 49.2008C29.0004 48.8008 29.5004 48.3008 30.1004 47.9008C30.8004 47.4008 31.6004 47.0008 32.4004 46.5008C34.3004 45.3008 35.9004 43.7008 37.4004 42.0008C38.0004 41.4008 38.7004 40.7008 39.0004 39.8008C39.2004 39.1008 38.8004 38.4008 38.2004 39.0008C37.6004 39.6008 37.1004 40.4008 36.5004 41.1008C35.9004 41.8008 35.3004 42.4008 34.7004 43.0008C34.0004 43.7008 33.3004 44.3008 32.4004 44.8008Z" fill="#BCBCBB"/>
<path d="M130.501 81.8005C129.501 80.6005 128.501 79.3005 127.501 78.2005C126.001 76.6005 124.501 74.9005 123.101 73.4005C122.701 73.0005 122.301 72.7005 121.901 72.3005C121.701 72.1005 121.401 71.9005 121.301 71.6005C120.301 70.0005 119.101 68.5005 118.301 66.8005C116.801 63.8005 115.601 60.8005 114.101 57.9005C113.201 56.0005 112.401 54.0005 111.101 52.3005C110.101 51.1005 109.101 49.8005 107.101 50.4005C106.301 49.6005 105.501 48.9005 104.801 48.1005C103.801 47.1005 102.801 46.2005 101.401 45.9005C98.6009 45.1005 95.7009 44.3005 92.8009 44.3005C90.6009 44.3005 88.4009 44.1005 86.2009 44.1005C84.6009 44.1005 83.0009 44.2005 81.4009 44.4005C78.4009 44.8005 75.4009 45.1005 72.4009 45.4005C72.3009 45.4005 72.2009 45.4005 72.0009 45.4005C71.9009 45.1005 71.8009 44.9005 71.7009 44.6005C71.0009 44.7005 70.3009 44.8005 69.6009 44.8005C68.5009 44.8005 67.4009 44.9005 66.3009 44.8005C64.9009 44.7005 63.6009 44.4005 62.2009 44.1005C60.3009 43.8005 58.5009 43.5005 56.6009 43.3005C55.2009 43.1005 54.0009 42.2005 52.5009 42.3005C52.4009 42.3005 52.2009 42.2005 52.1009 42.1005C49.8009 41.4005 47.7009 40.3005 45.7009 38.9005C44.4009 38.0005 43.0009 37.1005 41.8009 36.0005C41.8009 36.0005 41.8009 36.0005 41.8009 35.9005C41.5009 35.7005 41.3009 35.5005 41.0009 35.2005C40.6009 34.8005 40.2009 34.4005 39.8009 34.0005C39.5009 33.7005 39.2009 33.5005 38.8009 33.4005C38.7009 33.4005 38.6009 33.4005 38.5009 33.3005C38.4009 33.3005 38.3009 33.2005 38.2009 33.1005C38.1009 33.0005 38.0009 32.9005 37.9009 32.8005C36.7009 31.3005 35.5009 29.7005 34.2009 28.3005C33.1009 27.1005 31.9009 26.1005 30.8009 24.9005C30.4009 24.4005 29.9009 24.2005 29.3009 24.0005C28.6009 23.8005 27.9009 23.6005 27.2009 23.6005C24.1009 23.4005 21.0009 23.6005 18.0009 24.4005C17.1009 24.6005 16.5009 25.2005 16.0009 26.0005C15.8009 26.4005 15.9009 26.7005 16.4009 26.7005C17.1009 26.1005 17.5009 25.5005 18.1009 25.3005C19.3009 24.9005 20.6009 24.5005 21.8009 24.3005C23.4009 24.1005 25.0009 24.1005 26.6009 24.0005C27.8009 23.9005 29.0009 24.3005 30.0009 24.9005C31.4009 25.9005 32.5009 27.1005 33.6009 28.3005C34.4009 29.2005 35.1009 30.2005 35.9009 31.1005C36.5009 31.7005 37.0009 32.4005 37.6009 33.1005C35.9009 35.8005 33.9009 38.3005 31.6009 40.5005C29.2009 42.9005 26.4009 44.7005 23.6009 46.6005C24.5009 47.6005 25.8009 49.6005 25.9009 50.3005C25.7009 50.1005 25.5009 50.0005 25.5009 49.9005C25.1009 49.3005 24.8009 48.7005 24.4009 48.1005C24.3009 47.9005 24.1009 47.7005 23.9009 47.8005C23.6009 47.2005 23.2009 46.6005 22.8009 46.0005C22.3009 45.3005 21.8009 44.5005 21.3009 43.8005C21.1009 43.5005 20.9009 43.3005 20.5009 43.6005C20.7009 43.9005 20.9009 44.3005 21.0009 44.6005C22.1009 46.5005 23.2009 48.3005 24.3009 50.2005C25.3009 52.2005 26.1009 54.2005 26.5009 56.4005C26.6009 57.1005 26.9009 57.8005 27.1009 58.6005C27.5009 58.3005 27.8009 58.2005 28.1009 58.0005C28.1009 58.1005 28.2009 58.2005 28.2009 58.4005C29.0009 61.6005 30.3009 64.7005 31.9009 67.7005C33.4009 70.5005 35.1009 73.1005 36.7009 75.8005C36.8009 76.0005 37.0009 76.1005 37.2009 76.2005C37.5009 76.4005 37.9009 76.6005 38.2009 76.8005C38.8009 77.3005 39.3009 77.9005 39.9009 78.3005C40.7009 78.9005 41.7009 79.5005 42.5009 80.0005C42.6009 80.0005 42.9009 80.0005 43.0009 79.9005C43.0009 79.7005 42.9009 79.5005 42.8009 79.4005C42.8009 79.4005 42.7009 79.3005 42.6009 79.3005C41.2009 78.6005 40.1009 77.4005 39.0009 76.3005C38.5009 75.8005 38.1009 75.3005 37.5009 75.0005C36.9009 74.7005 36.6009 74.3005 36.3009 73.8005C35.6009 72.5005 34.8009 71.1005 34.1009 69.8005C32.4009 67.0005 30.9009 64.2005 29.9009 61.2005C29.5009 60.2005 29.1009 59.2005 29.2009 58.0005C29.3009 57.5005 29.0009 57.0005 28.5009 56.6005C28.1009 56.2005 27.7009 56.5005 27.4009 56.7005C27.0009 55.5005 26.8009 54.3005 26.4009 53.2005C26.1009 52.5005 25.9009 51.9005 25.7009 51.2005C25.9009 51.4005 26.2009 51.4005 26.5009 51.3005C28.8009 50.5005 30.9009 49.4005 32.8009 47.8005C33.4009 48.0005 33.9009 47.8005 34.3009 47.6005C36.1009 46.8005 37.4009 45.4005 38.8009 44.0005C38.8009 44.0005 38.8009 44.0005 38.7009 43.8005C37.6009 44.4005 36.8009 45.3005 35.9009 46.0005C35.2009 46.6005 34.2009 47.0005 33.3009 47.4005C34.8009 45.9005 36.3009 44.5005 37.7009 43.0005C38.4009 42.3005 38.9009 41.3005 39.5009 40.5005C40.4009 39.3005 41.3009 38.0005 42.0009 36.6005C43.9009 38.2005 46.0009 39.4005 48.0009 40.8005C48.7009 41.3005 49.6009 41.6005 50.5009 41.9005C51.6009 42.2005 52.7009 42.8005 53.8009 43.0005C55.7009 43.4005 57.5009 43.6005 59.4009 43.9005C60.8009 44.1005 62.1009 44.3005 63.5009 44.6005C65.8009 45.1005 68.0009 45.5005 70.4009 45.0005C70.6009 45.0005 70.8009 45.0005 71.0009 45.0005C71.2009 46.1005 72.0009 46.0005 72.7009 45.9005C73.8009 45.8005 74.9009 45.7005 76.1009 45.6005C77.3009 45.5005 78.5009 45.3005 79.7009 45.2005C80.9009 45.1005 82.1009 44.9005 83.3009 44.8005C85.6009 44.5005 87.9009 44.7005 90.2009 44.8005C93.6009 44.9005 96.9009 45.3005 100.201 46.1005C100.601 46.2005 101.001 46.4005 101.501 46.5005C100.601 47.5005 99.4009 47.8005 98.8009 48.7005C99.4009 48.4005 99.9009 48.1005 100.401 47.7005C100.901 47.4005 101.301 47.1005 101.801 46.9005C102.201 46.7005 102.501 46.8005 102.601 47.2005C102.301 47.5005 102.101 47.8005 101.801 48.0005C102.201 47.8005 102.701 47.6005 103.201 47.4005C104.901 48.5005 106.201 50.0005 107.501 51.5005C108.601 50.8005 109.501 51.2005 110.201 52.0005C111.001 53.0005 111.801 54.0005 112.501 55.1005C113.001 55.9005 113.401 56.9005 113.901 57.8005C114.401 58.8005 115.001 59.8005 115.401 60.9005C116.701 64.1005 118.201 67.3005 120.101 70.2005C120.901 71.4005 121.501 72.9005 123.001 73.5005C123.101 73.5005 123.201 73.7005 123.301 73.9005C124.201 74.9005 125.101 75.8005 125.901 76.8005C127.301 78.4005 128.801 80.0005 130.201 81.6005C130.501 82.0005 130.801 82.4005 131.001 82.9005C131.301 83.5005 131.101 84.0005 130.501 84.3005C129.801 84.7005 129.001 84.8005 128.301 84.5005C127.901 84.3005 127.401 84.1005 127.001 84.0005C126.501 83.8005 125.901 83.7005 125.701 83.0005C125.701 82.9005 125.401 82.7005 125.301 82.6005C124.701 82.2005 124.001 81.9005 123.401 81.5005C122.601 80.9005 121.701 80.4005 120.901 79.7005C121.501 78.9005 120.901 78.5005 120.401 78.1005C118.701 76.8005 117.201 75.3005 115.901 73.6005C115.001 72.4005 114.201 71.1005 113.601 69.7005C114.101 69.4005 114.501 69.1005 114.901 68.8005C115.301 68.5005 115.801 68.4005 116.201 67.7005C115.101 68.3005 114.301 68.8005 113.401 69.2005C113.001 68.8005 112.901 68.4005 113.401 68.0005C113.501 67.9005 113.601 67.7005 113.801 67.6005C113.501 67.6005 113.201 67.7005 112.801 67.8005C112.201 66.6005 111.701 65.4005 111.401 64.1005C111.301 63.5005 111.101 63.0005 111.001 62.4005C111.001 62.3005 110.701 62.2005 110.401 62.0005C110.401 62.9005 110.501 63.7005 110.501 64.4005C110.601 66.3005 110.201 68.1005 109.601 70.0005C108.601 72.9005 107.701 75.8005 108.101 78.9005C108.401 81.3005 109.201 83.4005 111.101 85.2005C112.401 86.4005 113.601 87.7005 114.901 89.0005C114.501 89.6005 114.401 90.1005 114.701 90.7005C115.001 91.2005 114.901 91.7005 114.801 92.2005C114.501 93.8005 114.501 95.4005 114.601 97.0005C114.701 99.6005 114.901 102.3 115.001 105C115.001 105.2 115.101 105.4 115.101 105.6C115.701 105.3 115.601 104.8 115.601 104.4C115.501 102.1 115.401 99.8005 115.301 97.5005C115.201 95.9005 115.201 94.4005 115.401 92.8005C115.501 92.0005 115.801 91.2005 115.401 90.3005C115.401 90.2005 115.401 90.0005 115.501 89.9005C115.901 89.2005 115.901 89.2005 115.401 88.5005C114.101 86.9005 112.601 85.4005 111.101 84.0005C110.701 83.6005 110.201 83.1005 110.001 82.5005C109.601 81.7005 109.501 80.9005 109.201 80.1005C108.701 78.6005 108.701 77.1005 108.901 75.5005C109.301 72.9005 110.001 70.5005 110.701 68.0005C110.701 67.8005 110.801 67.5005 111.001 67.2005C111.701 68.6005 112.401 69.8005 113.001 71.1005C114.401 74.0005 116.001 76.6005 118.601 78.5005C118.801 78.6005 119.001 78.9005 119.101 79.1005C119.301 80.2005 120.001 80.7005 120.801 81.3005C121.501 81.8005 122.401 82.4005 123.101 82.9005C124.601 84.2005 126.401 84.8005 128.201 85.5005C129.301 85.9005 130.201 85.5005 131.101 84.9005C131.301 84.2005 131.301 82.9005 130.501 81.8005ZM26.6009 50.0005C25.8009 49.3005 25.2009 48.4005 24.7009 47.4005C24.6009 47.3005 24.7009 47.0005 24.7009 46.9005C24.9009 46.9005 25.2009 46.9005 25.3009 47.0005C26.0009 47.7005 26.7009 48.5005 27.5009 49.4005C27.1009 49.6005 26.9009 49.8005 26.6009 50.0005ZM36.0009 42.9005C34.5009 44.4005 32.9009 45.8005 31.2009 47.2005C30.3009 47.9005 29.3009 48.4005 28.3009 49.1005C27.9009 49.4005 27.6009 49.3005 27.3009 49.0005C26.7009 48.2005 26.0009 47.5005 25.3009 46.5005C29.8009 43.5005 33.5009 40.0005 36.7009 35.8005C37.5009 36.8005 38.3009 37.8005 39.1009 38.8005C38.2009 40.1005 37.3009 41.6005 36.0009 42.9005ZM40.3009 36.2005C40.1009 36.7005 39.9009 37.3005 39.6009 37.9005C38.7009 36.9005 38.0009 36.0005 37.6009 34.8005C37.5009 34.6005 37.7009 34.2005 37.9009 33.7005C38.1009 34.0005 38.3009 34.2005 38.4009 34.4005C38.4009 34.5005 38.6009 34.6005 38.7009 34.7005C38.9009 34.7005 39.1009 34.6005 39.2009 34.6005C39.5009 34.8005 39.8009 35.0005 40.0009 35.2005C40.3009 35.5005 40.5009 35.8005 40.3009 36.2005Z" fill="black"/>
<path d="M113.199 107.1C111.599 107.9 109.999 107.8 108.399 107.2C107.599 106.9 107.299 106.2 107.199 105.5C107.099 104.8 107.499 104.3 107.999 103.9C108.399 103.6 108.999 103.5 109.499 103.4C109.799 103.3 109.999 103.3 110.299 103.3C110.199 102.8 110.099 102.4 109.999 102C109.799 100.5 109.599 98.9005 109.299 97.3005C109.099 96.4005 108.899 95.5005 108.599 94.7005C108.099 93.3005 107.499 92.1005 106.299 91.1005C105.599 90.6005 104.999 90.0005 104.399 89.3005C102.599 87.2005 100.899 85.0005 99.1992 82.9005C98.8992 82.5005 98.5992 82.1005 98.2992 81.6005C99.0992 81.1005 99.7992 80.5005 100.599 80.1005C100.599 80.1005 100.499 80.0005 100.499 79.9005C99.6992 80.3005 98.8992 80.7005 98.0992 81.2005C97.4992 80.6005 97.4992 80.6005 97.8992 80.1005C97.9992 80.0005 98.0992 79.9005 98.0992 79.7005L97.9992 79.6005C97.6992 79.8005 97.4992 79.9005 97.0992 80.1005C96.3992 79.0005 95.4992 78.0005 94.8992 76.8005C94.0992 75.1005 92.8992 73.7005 91.5992 72.4005C90.8992 71.7005 90.0992 71.3005 89.0992 71.1005C87.6992 70.8005 86.3992 70.7005 84.9992 71.0005C82.5992 71.5005 80.1992 72.0005 77.8992 72.9005C74.8992 74.0005 71.8992 75.1005 68.7992 76.1005C68.3992 76.2005 67.8992 76.3005 67.5992 76.2005C67.1992 76.1005 66.9992 76.1005 66.6992 76.2005C66.3992 76.3005 65.9992 76.5005 65.6992 76.6005C62.3992 77.3005 58.9992 78.1005 55.4992 78.4005C54.7992 78.4005 53.9992 78.5005 53.1992 78.0005C54.3992 77.2005 55.3992 76.4005 56.4992 75.6005C56.4992 75.5005 56.3992 75.5005 56.3992 75.4005C55.0992 76.2005 53.7992 77.1005 52.4992 78.0005C52.1992 77.4005 52.3992 77.0005 52.7992 76.6005C53.1992 76.1005 53.6992 75.7005 54.1992 75.2005C53.5992 75.6005 53.0992 75.9005 52.4992 76.3005C51.9992 75.2005 52.3992 74.3005 52.4992 73.3005C52.5992 72.6005 52.4992 72.1005 52.0992 71.5005C51.9992 71.4005 51.6992 71.3005 51.3992 71.2005C51.3992 72.1005 51.3992 72.9005 51.3992 73.7005C51.2992 77.2005 51.0992 80.7005 50.9992 84.1005C50.9992 84.5005 50.8992 84.8005 50.8992 85.2005C50.8992 87.7005 49.9992 90.1005 50.2992 92.6005C50.3992 93.2005 50.0992 93.8005 50.0992 94.5005C49.8992 96.5005 49.7992 98.6005 49.5992 100.6C49.2992 103.4 48.9992 106.2 48.6992 108.9C48.6992 109.3 48.4992 109.5 48.1992 109.7C47.0992 110.5 45.7992 110.5 44.5992 110.5C43.8992 110.5 43.0992 110.4 42.3992 110.1C40.9992 109.6 40.1992 108.2 41.4992 106.9C41.8992 106.5 42.1992 106.2 42.5992 105.8C43.0992 105.3 43.5992 105 44.2992 105.4C44.6992 105 44.8992 104.7 44.6992 104.3C44.2992 103.8 44.3992 103.3 44.3992 102.8C44.3992 101.7 44.2992 100.7 44.1992 99.6005C44.0992 97.5005 43.9992 95.5005 43.8992 93.4005C43.8992 92.7005 43.9992 92.1005 44.5992 91.6005C44.5992 91.6005 44.5992 91.5005 44.5992 91.4005C44.3992 91.4005 44.1992 91.5005 43.8992 91.6005C43.8992 91.3005 43.7992 91.1005 43.7992 90.9005C43.4992 88.1005 43.2992 85.3005 43.0992 82.4005C43.0992 81.8005 42.8992 81.2005 42.6992 80.5005C42.5992 80.1005 42.2992 80.1005 41.8992 80.3005C41.9992 80.8005 42.1992 81.3005 42.1992 81.8005C42.5992 85.1005 42.8992 88.5005 43.0992 91.8005C43.2992 94.6005 43.1992 97.4005 43.5992 100.1C43.6992 101.2 43.7992 102.3 43.7992 103.4C43.7992 103.8 43.6992 104 43.3992 104.3C42.5992 104.9 41.8992 105.5 41.1992 106.2C40.5992 106.7 40.2992 107.4 40.1992 108.1C40.1992 108.5 40.1992 109 40.3992 109.3C40.8992 110.1 41.6992 110.7 42.5992 110.9C44.5992 111.3 46.5992 111.2 48.4992 110.4C49.4992 110 49.9992 109.3 50.0992 108.3C50.2992 106.1 50.4992 103.9 50.5992 101.6C50.6992 99.9005 50.8992 98.2005 50.9992 96.4005C50.9992 94.3005 51.6992 92.3005 51.5992 90.1005C51.4992 88.6005 51.8992 87.1005 51.9992 85.7005C52.2992 83.8005 52.5992 81.9005 52.4992 80.0005C52.4992 79.6005 52.4992 79.3005 52.5992 78.9005C52.8992 78.9005 53.0992 78.8005 53.2992 78.9005C55.4992 79.3005 57.6992 79.0005 59.8992 78.6005C61.7992 78.2005 63.6992 77.9005 65.6992 77.5005C65.9992 77.5005 66.3992 77.3005 66.5992 77.4005C67.4992 77.8005 68.1992 77.4005 68.9992 77.1005C70.0992 76.7005 71.1992 76.4005 72.2992 76.0005C73.1992 75.7005 74.0992 75.4005 74.8992 75.1005C76.2992 74.6005 77.7992 74.0005 79.1992 73.5005C80.4992 73.1005 81.8992 72.7005 83.2992 72.3005C84.7992 71.9005 86.1992 71.7005 87.6992 71.7005C88.8992 71.7005 90.1992 72.0005 91.0992 72.8005C92.1992 73.8005 93.1992 74.9005 93.8992 76.3005C94.6992 77.9005 95.4992 79.5005 96.5992 81.0005C97.7992 82.7005 98.8992 84.4005 100.299 86.0005C102.399 88.3005 104.499 90.5005 106.799 92.7005C107.799 93.7005 108.499 94.8005 108.699 96.1005C109.099 98.1005 109.299 100.1 109.599 102C109.599 102.2 109.499 102.4 109.499 102.4C108.899 102.6 108.299 102.8 107.899 103C107.199 103.5 106.499 104.2 106.599 105.1C106.699 106 106.999 107 107.899 107.4C110.099 108.3 112.299 108.4 114.499 107.2C114.899 107 115.199 106.7 114.999 106.1C114.199 106.5 113.699 106.9 113.199 107.1Z" fill="black"/>
<path d="M21.7 41.4004C21.6 41.4004 21.4 41.4004 21.3 41.4004C20 42.2004 18.6 42.5004 17.1 42.4004C15.2 42.4004 13.2 42.3004 11.2 42.2004C10.7 42.2004 10.1 42.1004 9.6 41.8004C9.2 41.6004 8.7 41.3004 8.4 41.0004C7.4 39.9004 7.1 38.4004 6.3 37.3004C6.9 36.2004 7.4 35.3004 8 34.4004C8.4 33.7004 8.8 32.9004 8.5 32.0004C8.5 32.0004 8.6 31.9004 8.6 31.8004C9.7 31.5004 10.9 31.3004 12 31.0004C12.9 30.7004 13.7 30.5004 14.5 30.2004C15.6 29.8004 16.5 28.2004 16.4 27.0004C16.4 27.0004 16.4 27.0004 16.3 26.9004C16.2 27.0004 16 27.0004 15.9 27.2004C15.7 27.6004 15.5 27.9004 15.4 28.3004C15.1 29.1004 14.5 29.6004 13.6 29.8004C12.8 30.0004 11.9 30.3004 11 30.5004C9.5 30.9004 8 31.1004 6.6 31.5004C5.2 31.9004 4.7 32.5004 4.5 33.9004C4.5 34.4004 4.5 34.9004 4.6 35.4004C5.1 37.6004 6.2 39.6004 7.6 41.5004C8.1 42.2004 8.7 42.6004 9.5 42.7004C10.5 42.8004 11.4 42.9004 12.4 43.1004C14.6 43.5004 16.8 43.4004 19 43.2004C19.9 43.1004 20.7 42.9004 21.5 42.5004C21.7 42.1004 21.8 41.8004 21.7 41.4004Z" fill="black"/>
<path d="M21.5 28.1006C21.6 28.5006 21.5 29.0006 21.7 29.3006C22 29.9006 22 30.4006 22 31.0006C21.9 31.7006 21.9 32.4006 21.8 33.1006C21.7 33.7006 21.8 34.3006 22.1 34.8006C22.7 35.6006 23.2 36.5006 23.9 37.2006C24.3 37.6006 24.8 38.0006 25.4 37.8006C26 37.6006 26.5 37.4006 27 37.1006C28.8 35.9006 30.3 34.4006 31.8 32.8006C32.1 32.4006 32.4 32.1006 32.5 31.6006C32.8 30.7006 32.3 29.7006 31.4 29.2006C31.5 29.6006 31.5 30.0006 31.7 30.3006C32.1 31.2006 31.8 31.9006 31.2 32.6006C30.5 33.4006 29.7 34.1006 28.8 34.9006C28.2 35.4006 27.5 35.9006 26.8 36.4006C26 37.0006 24.7 37.0006 24.2 36.4006C23.7 35.8006 23.4 35.1006 23.5 34.3006C23.9 34.0006 24.4 33.8006 25 33.4006C24.1 33.4006 23.4 34.4006 22.7 33.5006C22.8 33.1006 23 32.8006 23 32.5006C23 32.1006 22.9 31.8006 22.9 31.5006C22.9 30.8006 22.9 30.2006 22.9 29.5006C22.9 28.8006 22.5 28.3006 21.5 28.1006Z" fill="black"/>
<path d="M93.2008 64.5008C93.2008 64.1008 93.2008 63.9008 92.8008 63.8008C91.3008 68.7008 94.7008 74.9008 97.9008 76.7008C97.6008 76.3008 97.4008 76.0008 97.1008 75.7008C96.5008 74.9008 95.7008 74.2008 95.2008 73.3008C93.8008 71.1008 92.8008 68.7008 93.0008 66.0008C93.0008 65.5008 93.1008 65.0008 93.2008 64.5008Z" fill="black"/>
<path d="M16.0996 30.6003C16.0996 31.2003 16.4996 31.8003 16.8996 31.9003C17.2996 32.0003 17.7996 31.7003 18.1996 31.1003C18.1996 31.0003 18.2996 30.9003 18.2996 30.8003C18.4996 30.3003 18.5996 29.8003 18.1996 29.3003C17.7996 28.9003 17.2996 29.3003 16.8996 29.4003C16.4996 29.5003 16.0996 29.8003 16.0996 30.6003Z" fill="black"/>
<path d="M51.499 68C50.499 69.3 52.499 70.4 54.399 71.6C54.999 71.3 54.899 71.3 54.599 71C54.099 70.6 53.499 70.2 53.199 69.7C52.899 69.2 52.899 68.7 52.799 68.3C52.799 68.2 53.099 68.1 51.499 68Z" fill="black"/>
<path d="M88 62.5C87.1 64.4 86.8 66.5 85.5 68.2C85.5 68.2 85.5 68.3 85.5 68.4L85.6 68.5C86.7 68 87.9 65.2 88 62.5Z" fill="black"/>
<path d="M26.2 25.4001C25.1 25.3001 23.6 25.7001 23 26.3001C24.3 26.5001 25.2 25.9001 26.2 25.4001Z" fill="black"/>
<path d="M17.9996 27.9002C18.4996 27.9002 18.9996 27.9002 19.4996 27.9002C19.4996 27.8002 19.4996 27.7002 19.4996 27.6002C18.9996 27.5002 18.5996 27.3002 18.0996 27.2002C17.9996 27.2002 17.7996 27.3002 17.5996 27.4002C17.6996 27.6002 17.7996 27.9002 17.9996 27.9002Z" fill="black"/>
<path d="M47.6996 91.4004C46.5996 91.9004 45.5996 92.5004 45.0996 93.6004C45.8996 92.9004 46.7996 92.2004 47.6996 91.4004Z" fill="black"/>
<path d="M26.3992 42.5C25.6992 43.2 24.6992 43.6 24.1992 44.5C25.0992 44.1 25.7992 43.4 26.3992 42.5Z" fill="black"/>
<path d="M54.4004 75.2C55.1004 74.8 55.8004 74.4 56.5004 74C55.7004 74.1 54.9004 74.4 54.4004 75.2Z" fill="black"/>
<path d="M54.3992 75.2002C54.2992 75.3002 54.2992 75.3002 54.3992 75.2002C54.2992 75.2002 54.3992 75.2002 54.3992 75.2002Z" fill="black"/>
<path d="M99.5996 49.6006C100.1 49.1006 100.7 48.6006 101.2 48.1006C99.9996 48.6006 99.7996 48.8006 99.5996 49.6006Z" fill="black"/>
<path d="M22.5996 44.5004C23.0996 44.1004 23.5996 43.8004 23.9996 43.4004C22.7996 43.8004 22.7996 43.8004 22.5996 44.5004Z" fill="black"/>
<path d="M24.2008 44.6006C23.5008 44.8006 23.1008 45.3006 22.8008 46.0006C23.4008 45.6006 23.9008 45.2006 24.2008 44.6006Z" fill="black"/>
<path d="M12 35.0006C12 35.0006 12.2 35.3006 12.3 35.3006C12.4 35.3006 12.6 35.1006 12.7 35.0006C12.7 35.0006 12.6 34.8006 12.5 34.6006C12.2 34.8006 12.1 34.8006 12 35.0006Z" fill="black"/>
<path d="M10.2008 34.7002C10.0008 34.8002 9.90078 35.0002 9.80078 35.1002C9.90078 35.2002 10.0008 35.3002 10.1008 35.3002C10.3008 35.3002 10.4008 35.1002 10.6008 35.0002C10.4008 34.9002 10.3008 34.7002 10.2008 34.7002Z" fill="black"/>
<path d="M47.1996 89.7002C46.7996 89.9002 46.2996 90.0002 46.0996 90.5002C46.5996 90.4002 46.9996 90.1002 47.1996 89.7002Z" fill="black"/>
<path d="M45.3008 91.4006C45.6008 91.1006 45.8008 90.8006 46.1008 90.6006C45.6008 90.6006 45.4008 90.9006 45.3008 91.4006Z" fill="black"/>
<path d="M10.5008 37.4008C10.6008 37.4008 10.7008 37.2008 10.9008 37.1008C10.8008 37.0008 10.8008 37.0008 10.6008 36.8008C10.5008 36.9008 10.4008 37.0008 10.3008 37.1008C10.3008 37.3008 10.4008 37.4008 10.5008 37.4008Z" fill="black"/>
<path d="M114.1 67C113.4 67.2 113.4 67.2 113 67.6C113.5 67.6 113.7 67.4 114.1 67Z" fill="black"/>
<path d="M33.5008 68C33.6008 67.8 33.5008 67.6 33.5008 67.5C33.4008 67.5 33.3008 67.5 33.3008 67.5C33.3008 67.7 33.4008 67.8 33.5008 68Z" fill="black"/>
<path d="M17.2996 30.1002C17.2996 30.3002 17.0996 30.5002 16.8996 30.5002C16.6996 30.5002 16.5996 30.3002 16.5996 30.1002C16.5996 29.9002 16.7996 29.7002 16.9996 29.7002C17.1996 29.7002 17.2996 29.9002 17.2996 30.1002Z" fill="white"/>
<path d="M5.30078 33.6006C5.90078 33.1006 6.70078 32.8006 7.40078 32.6006C7.50078 32.6006 7.60078 32.5006 7.60078 32.3006C7.60078 32.2006 7.50078 32.1006 7.30078 32.1006C6.50078 32.3006 5.70078 32.7006 5.00078 33.2006C4.90078 33.3006 4.90078 33.4006 5.00078 33.5006C5.10078 33.6006 5.20078 33.7006 5.30078 33.6006Z" fill="white"/>
<path d="M62.8999 37.5002C62.3999 37.3002 62.1999 37.4002 62.1999 37.3002C59.8999 34.9002 57.5999 32.5002 55.2999 30.2002C54.7999 29.7002 54.1999 29.3002 54.7999 28.2002C57.9999 30.7002 61.1999 33.2002 62.8999 37.5002Z" fill="#EB584A"/>
<path d="M68.3008 24.7002C68.5008 25.4002 68.8008 25.9002 68.7008 26.2002C67.9008 29.7002 68.0008 33.2002 67.9008 36.9002C67.1008 36.6002 66.8008 36.1002 66.8008 35.5002C67.0008 32.1002 66.5008 28.8002 67.5008 25.4002C67.7008 25.3002 67.9008 25.1002 68.3008 24.7002Z" fill="#EB584A"/>
<path d="M71.3008 38.3008C71.9008 36.0008 78.3008 31.0008 81.4008 30.8008C80.8008 31.4008 80.5008 31.8008 80.2008 32.1008C79.2008 32.8008 78.1008 33.3008 77.0008 34.1008C75.1008 35.5008 73.3008 36.9008 71.3008 38.3008Z" fill="#EB584A"/>
</svg>
