<svg width="136" height="136" viewBox="0 0 136 136" fill="none" xmlns="http://www.w3.org/2000/svg">
<path d="M45.7999 100.401C45.9999 102.301 46.0999 104.301 45.1999 105.901C44.3999 107.401 42.6999 108.701 42.9999 110.401C43.2999 112.001 45.5999 112.601 46.9999 111.801C48.4999 111.001 49.2999 109.401 49.7999 107.901C52.3999 100.401 51.0999 92.1006 51.5999 84.2006C51.6999 82.6006 51.9999 81.0007 52.9999 79.8007C54.6999 78.0007 57.5999 78.3007 60.0999 78.3007C69.1999 78.2007 77.0999 71.8006 86.1999 71.1006C88.2999 70.9006 90.7999 71.3006 91.9999 73.1006C93.0999 74.8006 92.4999 77.0006 92.9999 78.9007C93.5999 81.2006 95.4999 82.8006 97.2999 84.2006C100.6 86.8006 103.8 89.4007 107.1 92.0006C109.6 94.0006 112.1 96.0006 113.7 98.7006C115.3 101.401 115.8 105.001 114.1 107.601C113.4 108.701 112.3 109.801 112.5 111.101C112.7 112.301 113.9 113.101 115.1 113.101C117.2 113.201 119.1 111.301 119.7 109.301C120.3 107.301 120.1 105.101 119.8 103.001C119.3 99.2006 118.7 95.2006 116.5 92.0006C115.2 90.1006 113.3 88.5006 112.1 86.5006C109.7 82.8006 109.8 78.1006 109.9 73.7006C116.3 76.1006 117.1 85.4006 123.1 88.7006C124.4 89.4006 126.4 89.6007 127.1 88.3007C127.7 87.2007 127 85.9007 126.2 84.9007C122.3 79.7006 117.4 75.1007 114.4 69.4007C112.2 65.2006 110.9 60.5006 107.7 57.0006C104.1 53.1006 98.5999 51.6006 93.2999 51.2006C87.9999 50.9006 82.5999 51.4006 77.2999 51.0006C69.0999 50.3006 61.3999 47.3006 53.7999 44.1006C51.3999 43.1006 48.9999 42.0006 46.9999 40.3006C44.8999 38.4006 43.4999 35.9006 42.0999 33.4006C40.7999 31.0006 39.4999 28.6006 38.1999 26.3006C37.5999 25.2006 36.9999 24.0006 35.8999 23.3006C34.6999 22.5006 33.1999 22.4006 31.7999 22.4006C29.2999 22.3006 26.6999 22.3006 24.1999 22.5006C23.0999 22.5006 21.9999 22.7006 21.1999 23.4006C19.8999 24.6006 20.4999 26.9006 19.5999 28.4006C17.8999 31.5006 12.4999 29.4006 9.89993 31.7006C8.19993 33.2006 8.39993 36.1006 9.59993 38.0006C12.4999 43.0006 19.2999 44.4006 25.0999 43.4006C26.1999 43.2006 27.2999 43.0006 28.2999 43.5006C28.8999 43.9006 29.2999 44.5006 29.5999 45.2006C32.0999 50.2006 31.0999 56.3006 32.8999 61.5006C33.8999 64.5006 35.7999 67.2007 37.6999 69.8007C41.0999 74.3007 43.2999 76.4007 43.7999 82.0006C44.5999 88.3007 45.1999 94.3007 45.7999 100.401Z" fill="white"/>
<path d="M38.9003 39.7002C39.8003 38.5002 40.1003 36.9002 40.0003 35.4002C39.9003 34.5002 39.7003 33.7002 39.2003 33.0002C36.9003 30.0002 32.4003 35.1002 31.9003 37.4002C30.9003 41.4002 36.8003 42.5002 38.9003 39.7002Z" fill="#BCBCBB"/>
<path d="M43.1 47.1006C42.9 48.2006 42.1 49.2006 41.1 49.8006C40.2 50.5006 39.1 50.9006 38.1 51.5006C36.1 52.6006 34.4 54.1006 33.1 56.0006C32.9 56.2006 32.7 56.5006 32.4 56.5006C31.8 56.6006 31.5 55.7006 31.5 55.1006C31.5 51.5006 32.3 51.8006 35.6 50.5006C36.7 50.2006 43 48.2006 43.1 47.1006Z" fill="#BCBCBB"/>
<path d="M65.4003 75.1013C65.6003 75.1013 65.8002 75.2013 66.0002 75.2013C66.3002 75.3013 66.6002 75.6013 66.7002 76.0013C67.0002 76.8013 66.4002 77.7013 65.6002 78.2013C64.8002 78.6013 63.9002 78.7013 63.0002 78.7013C59.7002 78.9013 56.3002 79.0013 53.0002 79.1013C52.2002 76.7013 51.9002 73.7013 55.2002 73.8013C58.5002 74.0013 62.1003 74.7013 65.4003 75.1013Z" fill="#BCBCBB"/>
<path d="M119.501 112.1C118.501 111.9 117.401 112.3 116.401 112.5C115.401 112.7 114.201 112.7 113.501 111.8C112.701 110.8 113.301 109.2 113.901 108.1C115.001 106.1 117.301 99.6004 119.701 99.4004C120.001 100.5 119.001 112 119.501 112.1Z" fill="#BCBCBB"/>
<path d="M51.4008 107.4C51.4008 108.3 51.4008 109.2 51.1008 110C50.8008 110.8 50.0008 111.5 49.1008 111.5C48.2008 111.5 47.5008 110.8 47.1008 110.1C46.8008 109.3 46.8008 108.4 46.8008 107.6C47.0008 104.2 48.0008 98.7996 50.6008 96.5996C52.6008 98.1996 51.4008 105 51.4008 107.4Z" fill="#BCBCBB"/>
<path d="M63.5008 49.8008C68.8008 50.9008 74.1008 51.3008 79.5008 51.7008C80.3008 51.8008 81.1008 51.8008 81.8008 52.2008C82.5008 52.6008 82.9008 53.5008 82.6008 54.2008C82.3008 55.0008 81.2008 55.2008 80.4008 55.3008C74.7008 56.0008 68.7008 56.6008 63.6008 54.1008C61.9008 53.3008 60.3008 52.1008 58.8008 51.0008C56.5008 49.3008 52.2008 47.2008 50.8008 44.8008C54.8008 47.1008 58.9008 48.9008 63.5008 49.8008Z" fill="#BCBCBB"/>
<path d="M29 47.8004L37.4 43.8004L46.2 38.4004L48.1 42.3004L39.7 48.7004L29.2 51.6004L29 47.8004Z" fill="#EB584A"/>
<path d="M126.9 87.2004C126.8 87.0004 126.7 86.7004 126.6 86.5004C125.8 85.3004 125 84.2004 124.2 83.1004C123.4 82.0004 122.5 81.0004 121.8 79.8004C120.2 77.1004 118.7 74.4004 117.3 71.7004C115.4 68.1004 113.8 64.4004 111.9 60.8004C111.4 59.8004 110.6 58.8004 109.9 57.9004C109.6 57.5004 109 57.2004 108.5 57.1004C107.9 57.0004 107.6 56.7004 107.2 56.4004C106.3 55.4004 105.4 54.5004 104.2 53.9004C101.2 52.3004 98.0004 51.9004 94.7004 51.8004C91.2004 51.6004 87.7004 51.6004 84.2004 51.5004C83.3004 51.5004 82.5004 51.4004 81.6004 51.4004C79.4004 51.3004 77.2004 51.3004 75.0004 51.1004C72.1004 50.8004 69.2004 50.5004 66.4004 50.1004C65.2004 49.9004 64.0004 49.6004 62.8004 49.3004C62.6004 49.3004 62.4004 49.1004 62.3004 48.9004C62.1004 48.4004 61.7004 48.4004 61.3004 48.3004C60.3004 48.1004 59.3004 47.8004 58.3004 47.5004C58.1004 47.4004 57.8004 47.4004 57.6004 47.3004C54.2004 46.9004 51.5004 45.1004 48.9004 43.0004C48.6004 42.7004 48.2004 42.5004 48.0004 42.3004C48.1004 41.6004 48.2004 41.2004 48.3004 40.6004C47.6004 40.7004 47.3004 40.4004 47.0004 39.9004C46.7004 39.4004 46.4004 38.9004 46.1004 38.4004C45.8004 38.0004 45.6004 37.7004 45.4004 37.6004C44.1004 35.6004 42.9004 33.0004 41.6004 30.5004C40.3004 27.9004 38.8004 25.4004 36.7004 23.5004C36.6004 23.4004 36.4004 23.4004 36.3004 23.4004C35.9004 23.0004 35.4004 22.7004 34.9004 22.5004C34.2004 22.3004 33.4004 22.1004 32.7004 22.1004C29.4004 21.8004 26.1004 22.1004 22.8004 22.9004C21.8004 23.2004 21.2004 23.8004 20.7004 24.6004C20.5004 25.0004 20.6004 25.3004 21.1004 25.4004C21.6004 24.9004 22.0004 24.3004 22.6004 24.1004C23.9004 23.6004 25.2004 23.3004 26.6004 23.1004C28.3004 22.9004 30.0004 22.9004 31.7004 22.8004C33.0004 22.7004 34.3004 23.1004 35.4004 23.8004C35.8004 24.1004 36.2004 24.4004 36.6004 24.7004C38.3004 26.4004 39.6004 28.7004 40.8004 31.0004C42.1004 33.5004 43.2004 36.0004 44.6004 38.0004C44.5004 38.0004 44.5004 38.1004 44.4004 38.1004C43.8004 38.6004 43.3004 39.3004 42.6004 39.7004C40.3004 41.2004 38.2004 42.9004 35.8004 44.1004C34.0004 45.0004 32.2004 45.9004 30.2004 46.3004C30.2004 45.2004 29.8004 44.1004 29.1004 43.2004C28.5004 42.3004 27.6004 41.6004 26.5004 41.2004V41.1004C26.3004 41.1004 26.2004 41.1004 26.1004 41.1004C24.7004 41.9004 23.2004 42.2004 21.6004 42.2004C19.5004 42.2004 17.4004 42.1004 15.3004 42.0004C14.7004 42.0004 14.1004 41.8004 13.6004 41.6004C13.1004 41.4004 12.6004 41.1004 12.3004 40.7004C11.2004 39.5004 10.9004 37.9004 10.0004 36.7004C10.6004 35.6004 11.2004 34.6004 11.8004 33.6004C12.3004 32.8004 12.6004 32.0004 12.3004 31.0004C12.3004 31.0004 12.4004 30.9004 12.4004 30.7004C13.6004 30.4004 14.8004 30.2004 16.0004 29.9004C16.9004 29.7004 17.8004 29.4004 18.7004 29.1004C19.9004 28.7004 20.9004 27.0004 20.8004 25.7004C20.8004 25.7004 20.7004 25.6004 20.6004 25.6004C20.5004 25.7004 20.2004 25.8004 20.2004 25.9004C20.0004 26.3004 19.8004 26.6004 19.7004 27.0004C19.4004 27.9004 18.7004 28.4004 17.8004 28.7004C16.9004 28.9004 15.9004 29.2004 15.0004 29.4004C13.4004 29.8004 11.8004 30.1004 10.2004 30.5004C8.70041 30.9004 8.10041 31.5004 8.00041 33.0004C7.90041 33.5004 8.00041 34.1004 8.10041 34.6004C8.70041 37.0004 9.80041 39.1004 11.3004 41.1004C11.8004 41.8004 12.5004 42.3004 13.4004 42.4004C14.4004 42.6004 15.5004 42.6004 16.5004 42.8004C18.8004 43.2004 21.2004 43.1004 23.5004 42.9004C24.4004 42.8004 25.3004 42.6004 26.1004 42.1004C26.1004 42.1004 26.1004 42.1004 26.2004 42.1004C27.1004 42.4004 27.8004 43.0004 28.4004 43.8004C29.0004 44.6004 29.3004 45.6004 29.3004 46.5004C29.3004 46.6004 29.3004 46.6004 29.3004 46.7004C29.2004 46.7004 29.2004 46.8004 29.1004 46.8004C29.2004 46.8004 29.2004 46.9004 29.3004 46.9004C29.3004 47.0004 29.3004 47.1004 29.3004 47.2004C29.3004 47.5004 29.4004 47.7004 29.7004 47.7004C29.9004 47.7004 30.0004 47.7004 30.1004 47.5004C30.8004 48.4004 30.7004 49.6004 30.9004 50.6004C30.3004 50.9004 30.0004 50.8004 29.9004 50.3004C29.8004 49.7004 29.7004 49.1004 29.6004 48.6004C29.5004 48.2004 29.5004 47.8004 29.0004 47.6004C28.9004 47.7004 28.8004 47.8004 28.8004 47.8004C28.9004 49.0004 29.0004 50.2004 29.2004 51.4004C29.3004 51.9004 29.7004 52.0004 30.1004 52.0004C30.5004 52.0004 31.0004 52.0004 31.5004 51.9004C32.0004 55.1004 32.0004 58.3004 32.1004 61.4004C32.5004 61.8004 32.8004 62.2004 33.0004 62.6004C33.2004 63.0004 33.3004 63.6004 33.6004 64.0004C35.8004 67.8004 37.9004 71.7004 40.9004 75.0004C41.3004 75.4004 41.6004 75.7004 42.0004 76.1004C42.1004 76.0004 42.2004 76.0004 42.3004 75.9004C41.6004 74.9004 40.9004 73.8004 40.2004 72.8004C39.1004 71.4004 39.1004 71.3004 40.5004 70.0004C40.7004 69.8004 40.9004 69.6004 41.2004 69.4004C41.8004 68.9004 42.4004 68.4004 43.0004 67.9004C42.9004 67.8004 42.9004 67.8004 42.8004 67.7004C41.3004 68.5004 40.3004 69.8004 38.8004 70.9004C38.4004 70.4004 38.0004 69.9004 37.7004 69.3004C36.6004 67.5004 35.6004 65.6004 34.6004 63.8004C34.2004 63.1004 34.0004 62.4004 33.8004 61.7004C33.6004 60.9004 33.8004 60.0004 32.9004 59.4004C32.8004 59.3004 32.8004 59.0004 32.8004 58.8004C32.7004 56.4004 32.6004 54.1004 32.5004 51.6004C33.5004 51.2004 34.6004 50.6004 35.8004 50.2004C38.8004 49.3004 41.3004 47.6004 43.8004 45.8004C45.1004 44.9004 46.3004 43.7004 47.5004 42.6004C48.9004 43.5004 50.3004 44.5004 51.7004 45.4004C53.9004 46.9004 56.6004 47.3004 59.0004 48.2004C59.9004 48.5004 61.0004 48.3004 61.8004 49.3004C61.9004 49.4004 62.2004 49.5004 62.4004 49.5004C63.7004 49.8004 65.0004 50.1004 66.4004 50.3004C67.7004 50.5004 69.1004 50.7004 70.5004 50.8004C74.0004 51.3004 77.6004 51.7004 81.2004 51.8004C83.2004 51.8004 85.1004 52.0004 87.1004 52.1004C87.9004 52.1004 88.6004 52.2004 89.4004 52.2004C91.7004 52.2004 94.1004 52.1004 96.4004 52.3004C99.2004 52.5004 101.9 53.0004 104.5 54.4004C105.6 55.0004 106.4 55.9004 107.3 56.8004C107.8 57.3004 107.7 57.6004 107.2 58.1004C106.5 58.7004 105.8 59.3004 105.1 60.0004C104.9 60.2004 104.8 60.5004 104.7 60.8004C104.8 60.9004 104.9 61.0004 105 61.0004C105.1 60.8004 105.1 60.7004 105.2 60.5004C106 59.7004 106.8 58.9004 107.6 58.2004C108.7 57.3004 109 57.3004 109.9 58.4004C110.5 59.2004 111.1 59.9004 111.5 60.8004C112.3 62.3004 112.9 63.9004 113.7 65.5004C115.6 68.9004 117.2 72.5004 119 75.9004C120.6 78.8004 122.3 81.7004 124.6 84.2004C125.2 84.8004 125.7 85.6004 126.1 86.4004C126.3 86.8004 126.4 87.2004 126.5 87.7004C125.3 87.9004 124.9 87.8004 124.1 87.5004C121.3 86.4004 119.5 84.2004 117.4 82.3004C118.1 81.5004 118.2 81.4004 117.6 80.6004C116.6 79.2004 115.4 77.9004 114.3 76.6004C112.9 74.9004 111.2 73.3004 110.2 71.3004C109.6 70.0004 109 68.8004 108.3 67.3004C108.3 68.0004 108.1 68.5004 108.3 68.9004C108.8 70.0004 108.6 71.1004 108.5 72.2004C108.3 74.1004 108.5 76.0004 108.8 77.9004C109.4 81.3004 111 84.3004 112.8 87.2004C114.2 89.5004 116.3 91.0004 118.1 92.8004C118.2 92.9004 118.4 92.9004 118.8 93.0004C118.3 92.0004 117.7 91.2004 117 90.6004C114.6 88.5004 112.9 85.9004 111.4 83.1004C109.8 80.0004 109.2 76.6004 109.1 73.2004C109.1 72.7004 109.2 72.2004 109.2 71.6004C109.8 72.4004 110.3 73.2004 110.8 73.9004C112.4 75.8004 114 77.6004 115.7 79.4004C116.1 79.9004 116.5 80.4004 117 81.0004C116.6 81.2004 116.3 81.4004 115.9 81.7004C116 82.0004 116.1 82.3004 116.3 82.5004C117.8 84.0004 119.3 85.5004 120.9 86.8004C122.2 87.8004 123.7 88.6004 125.4 88.7004C126.7 89.0004 127.2 88.4004 126.9 87.2004ZM31.3004 50.8004C31.1004 49.7004 30.8004 48.7004 30.7004 47.7004C30.6004 47.1004 30.9004 46.8004 31.6004 47.0004C31.9004 48.0004 32.3004 49.1004 32.6004 50.4004C32.2004 50.5004 31.8004 50.7004 31.3004 50.8004ZM33.2004 50.3004C32.5004 49.2004 32.4004 48.1004 32.2004 46.9004C36.0004 45.2004 39.4004 43.3004 42.7004 40.7004C43.3004 41.8004 43.8004 42.7004 44.3004 43.7004C41.1004 46.9004 37.4004 48.9004 33.2004 50.3004ZM43.4004 40.9004C43.3004 40.7004 43.3004 40.5004 43.4004 40.3004C43.4004 40.2004 43.6004 40.2004 43.8004 40.1004C44.2004 41.1004 44.9004 42.0004 44.8004 43.1004C44.1004 42.5004 43.8004 41.7004 43.4004 40.9004ZM45.4004 42.5004C45.0004 41.6004 44.7004 40.8004 44.4004 40.0004C44.2004 39.4004 44.6004 39.1004 45.1004 38.9004C46.8004 40.2004 47.0004 41.1004 45.4004 42.5004Z" fill="black"/>
<path d="M120.5 102.9C120.3 99.8003 119.9 96.7003 120.1 93.5003C120.1 93.2003 120 92.9003 119.9 92.6003C119.8 92.6003 119.6 92.6003 119.5 92.5003C119.4 92.8003 119.2 93.1003 119.2 93.3003C119.1 94.0003 119.1 94.7003 119.1 95.3003C119.3 98.2003 119.6 101.2 119.7 104.1C119.8 106.1 119.9 108.1 119.9 110.2C119.9 111.2 119.8 111.4 118.8 111.6C117.5 111.8 116.1 111.9 114.7 112C113.8 112.1 113.1 111.6 112.6 110.9C112.1 110.2 112.1 109.6 112.7 109.1C113.2 108.7 113.8 108.5 114.4 108.3C115.6 108 115.7 108 115.6 106.8C115.5 105.4 115.4 103.9 115.3 102.5C115.3 101.3 115.3 100.1 115.3 98.8003C115.3 98.0003 115 97.5003 114.3 97.1003C112 95.7003 109.8 94.2003 107.5 92.8003C104.9 91.3003 102.8 89.3003 100.7 87.3003C100.5 87.1003 100.3 86.9003 100.1 86.7003C100.6 85.5003 101.8 85.0003 102.6 84.3003C101.4 84.6003 100.6 85.4003 99.6 86.3003C99.3 85.8003 98.9 85.4003 98.6 84.9003C99.8 83.8003 100.8 82.9003 101.9 81.9003C101.8 81.8003 101.8 81.7003 101.7 81.7003C100.5 82.7003 99.4 83.6003 98.2 84.6003C97.9 84.2003 97.7 83.9003 97.4 83.7003C97.2 83.5003 96.9 83.1003 96.6 83.1003C95.8 83.1003 95.6 82.5003 95.4 82.0003C94.2 79.4003 93.2 76.7003 92.6 73.9003C92.5 73.5003 92.5 73.1003 92.3 72.8003C90.9 70.5003 88.3 69.5003 85.5 70.2003C83.7 70.7003 81.9 71.2003 80.2 71.9003C77.3 73.1003 74.4 74.4003 71.5 75.6003C68.5 76.8003 65.4 77.6003 62.2 78.1003C61.9 77.5003 61.5 77.1003 60.7 77.4003C58.5 78.2003 56.2 78.5003 53.9 78.3003C53.6 78.3003 53.4 78.2003 53.1 78.3003C52.9 78.4003 52.7 78.5003 52.5 78.7003C53 79.3003 53.5 79.3003 54.1 79.3003C56 79.4003 57.9 79.2003 59.8 78.7003C60.2 78.6003 60.7 78.4003 61.1 78.9003C61.6 79.5003 62.3 79.5003 63 79.3003C64 79.1003 64.9 78.9003 65.9 78.7003C67.3 78.4003 68.7 78.1003 70.1 77.6003C71.5 77.1003 72.9 76.4003 74.3 75.9003C76.2 75.2003 78 74.4003 79.9 73.7003C81.4 73.1003 82.8 72.5003 84.3 72.0003C88.5 70.8003 91.4 72.6003 92.5 76.1003C93.1 77.9003 93.6 79.6003 94.2 81.4003C94.6 82.5003 95.2 83.6003 95.7 84.7003C96.2 84.7003 96.5 84.6003 96.7 84.6003C97.5 85.5003 98.2 86.3003 99 87.1003C101.3 89.3003 103.5 91.6003 106.2 93.3003C108.7 94.8003 111.1 96.5003 113.6 98.0003C114 98.3003 114.3 98.6003 114.3 99.1003C114.4 101.7 114.5 104.3 114.5 106.9C114.5 107 114.4 107.1 114.4 107.3C113.9 107.5 113.3 107.6 112.8 107.9C111 108.9 110.5 110.4 112.1 111.8C112.7 112.4 113.5 112.8 114.4 112.8C116.1 112.8 117.8 112.7 119.5 112.2C120.7 111.9 120.8 111.8 120.7 110.6C120.8 108.1 120.7 105.5 120.5 102.9Z" fill="black"/>
<path d="M54.2995 76.0006C55.0995 75.5006 55.8995 75.1006 56.6995 74.6006C55.1995 74.6006 54.0995 75.7006 52.6995 76.3006C52.5995 74.2006 54.5995 74.2006 55.6995 73.2006C54.3995 73.1006 53.7995 74.1006 52.8995 74.4006C52.5995 73.1006 53.1995 71.8006 52.5995 70.6006C52.4995 70.6006 52.3995 70.6006 52.2995 70.6006C52.0995 71.4006 51.7995 72.2006 51.7995 73.1006C51.7995 74.5006 51.6995 75.8006 51.6995 77.2006C51.6995 80.4006 51.3995 83.5006 51.2995 86.7006C51.1995 89.6006 51.1995 92.4006 51.0995 95.3006C51.0995 95.8006 51.0995 96.3006 51.0995 96.8006C51.0995 99.3006 51.0995 101.801 51.0995 104.301C51.0995 106.001 50.9995 107.801 50.8995 109.501C50.8995 110.101 50.5995 110.401 50.0995 110.701C48.4995 111.601 46.7995 111.501 45.0995 111.601C44.8995 111.601 44.6995 111.501 44.4995 111.401C43.6995 111.101 43.2995 110.501 43.1995 109.701C43.0995 108.901 43.4995 108.401 44.0995 108.001C44.7995 107.601 45.5995 107.301 46.3995 107.001C46.6995 106.901 47.0995 106.801 47.5995 106.701C47.7995 104.701 46.3995 103.101 46.6995 101.301C47.3995 100.601 48.0995 100.001 48.6995 99.3006C49.3995 98.7006 49.9995 98.1006 50.6995 97.4006C50.5995 97.3006 50.5995 97.3006 50.4995 97.2006C49.0995 98.0006 48.1995 99.5006 46.7995 100.301C46.0995 98.6006 46.2995 97.9006 47.4995 96.8006C48.0995 96.3006 48.6995 95.8006 49.2995 95.2006C48.0995 95.3006 47.4995 96.4006 46.3995 96.9006C46.2995 96.6006 46.1995 96.3006 46.1995 96.0006C45.8995 92.6006 45.5995 89.3006 45.3995 85.9006C45.1995 83.0006 44.1995 80.4006 43.3995 77.7006C43.2995 77.3006 43.0995 76.9006 42.4995 76.9006C42.4995 77.2006 42.4995 77.5006 42.5995 77.7006C42.6995 78.1006 42.9995 78.5006 43.0995 78.9006C44.4995 82.6006 44.8995 86.5006 45.0995 90.5006C45.2995 93.7006 45.4995 96.9006 45.7995 100.101C45.8995 101.501 46.1995 102.901 46.5995 104.201C46.7995 104.801 46.8995 105.301 46.6995 105.801C45.5995 106.301 44.5995 106.801 43.5995 107.301C42.7995 107.701 42.3995 108.401 42.4995 109.301C42.5995 110.801 43.5995 112.201 45.0995 112.301C46.4995 112.401 47.9995 112.201 49.3995 111.901C50.1995 111.801 50.8995 111.201 51.4995 110.801C51.7995 110.601 52.0995 110.201 52.0995 109.901C52.1995 108.801 52.2995 107.601 52.2995 106.501C52.2995 103.601 52.2995 100.801 52.2995 97.9006C52.2995 95.0006 52.2995 92.1006 52.3995 89.2006C52.4995 85.7006 52.7995 82.3006 52.7995 78.8006C52.6995 77.3006 53.2995 76.6006 54.2995 76.0006Z" fill="black"/>
<path d="M73.4008 67.2008C73.2008 65.0008 72.6008 63.5008 71.8008 62.8008C72.2008 65.1008 72.6008 67.2008 73.0008 69.5008C73.6008 68.7008 73.4008 67.9008 73.4008 67.2008Z" fill="black"/>
<path d="M92.6012 57.2001C92.2012 56.9001 91.8012 56.6001 91.2012 56.8001C92.4012 58.2001 93.5012 59.6001 94.8012 61.1001C94.7012 59.6001 93.8012 58.1001 92.6012 57.2001Z" fill="black"/>
<path d="M85 66.3C87.5 65.8 89.7 64.8 91.4 63C90.3 63.5 89.3 64.1 88.2 64.7C87.3 65.3 85.8 65.2 85 66.3Z" fill="black"/>
<path d="M41.8 53C40 53.9 38 56.7 38 58.2C39.4 56.4 40.6 54.7 41.8 53Z" fill="black"/>
<path d="M74.8004 67.5002C75.2004 64.0002 75.0004 62.5002 73.9004 61.7002C74.0004 62.5002 74.1004 63.2002 74.2004 63.8002C74.3004 64.4002 74.4004 65.1002 74.4004 65.7002C74.4004 66.3002 74.2004 66.9002 74.8004 67.5002Z" fill="black"/>
<path d="M40.3012 72.5004C40.2012 72.6004 40.2012 72.8004 40.2012 72.9004C41.4012 71.9004 42.6012 70.9004 43.8012 69.9004C42.3012 70.5004 41.3012 71.5004 40.3012 72.5004Z" fill="black"/>
<path d="M106.1 57C105.1 57.8 104.2 58.6 103.5 59.6C103.6 59.7 103.6 59.7 103.7 59.8C104.6 58.9 105.4 58 106.3 57.2C106.2 57.1 106.1 57 106.1 57Z" fill="black"/>
<path d="M26.4004 27.1006C26.5004 27.6006 26.4004 28.1006 26.6004 28.4006C26.9004 29.0006 26.9004 29.6006 26.9004 30.2006C26.8004 30.9006 26.8004 31.7006 26.6004 32.4006C26.5004 33.0006 26.6004 33.7006 26.9004 34.2006C27.5004 35.1006 28.1004 36.0006 28.9004 36.8006C29.3004 37.3006 29.9004 37.7006 30.6004 37.4006C31.2004 37.2006 31.8004 37.0006 32.3004 36.7006C34.2004 35.4006 35.9004 33.9006 37.5004 32.2006C37.8004 31.8006 38.1004 31.4006 38.3004 30.9006C38.6004 30.0006 38.1004 28.9006 37.1004 28.3006C37.2004 28.8006 37.3004 29.1006 37.4004 29.4006C37.8004 30.3006 37.5004 31.1006 36.9004 31.8006C36.1004 32.7006 35.3004 33.5006 34.4004 34.2006C33.7004 34.8006 33.0004 35.3006 32.3004 35.8006C31.4004 36.4006 30.0004 36.4006 29.5004 35.7006C29.0004 35.0006 28.6004 34.3006 28.7004 33.5006C29.2004 33.2006 29.6004 32.9006 30.3004 32.5006C29.3004 32.5006 28.6004 33.6006 27.8004 32.6006C27.9004 32.2006 28.1004 31.9006 28.1004 31.5006C28.1004 31.1006 28.0004 30.8006 28.0004 30.4006C28.0004 29.7006 28.1004 29.0006 28.0004 28.3006C27.9004 27.8006 27.4004 27.3006 26.4004 27.1006Z" fill="black"/>
<path d="M20.6007 29.7003C20.6007 30.4003 21.0007 31.0003 21.5007 31.1003C22.0007 31.2003 22.5007 30.9003 22.9007 30.2003C23.0007 30.1003 23.0007 30.0003 23.1007 29.9003C23.3007 29.4003 23.4007 28.8003 23.0007 28.4003C22.6007 27.9003 22.0007 28.4003 21.6007 28.5003C21.0007 28.6003 20.5007 28.9003 20.6007 29.7003Z" fill="black"/>
<path d="M31.3004 24.3003C30.1004 24.1003 28.5004 24.6003 27.9004 25.3003C29.3004 25.4003 30.3004 24.7003 31.3004 24.3003Z" fill="black"/>
<path d="M22.6008 26.9002C23.1008 27.0002 23.7008 26.9002 24.3008 26.9002C24.3008 26.8002 24.3008 26.7002 24.3008 26.6002C23.8008 26.5002 23.3008 26.3002 22.8008 26.2002C22.6008 26.2002 22.5008 26.3002 22.3008 26.4002C22.3008 26.5002 22.4008 26.9002 22.6008 26.9002Z" fill="black"/>
<path d="M16.2012 34.4C16.2012 34.4 16.4012 34.7 16.5012 34.7C16.7012 34.7 16.8012 34.5 16.9012 34.4C16.9012 34.4 16.8012 34.2 16.6012 34C16.4012 34.2 16.3012 34.3 16.2012 34.4Z" fill="black"/>
<path d="M14.3008 34.1006C14.1008 34.2006 14.0008 34.4006 13.8008 34.5006C13.9008 34.6006 14.0008 34.8006 14.1008 34.7006C14.3008 34.7006 14.4008 34.5006 14.6008 34.4006C14.5008 34.3006 14.3008 34.1006 14.3008 34.1006Z" fill="black"/>
<path d="M14.5008 37.0004C14.6008 37.0004 14.7008 36.8004 14.9008 36.7004C14.8008 36.6004 14.7008 36.6004 14.6008 36.4004C14.5008 36.5004 14.4008 36.6004 14.3008 36.7004C14.4008 36.9004 14.5008 37.0004 14.5008 37.0004Z" fill="black"/>
<path d="M21.4996 29.6008C21.6996 29.6008 21.8996 29.4008 21.8996 29.2008C21.8996 29.0008 21.6996 28.8008 21.4996 28.8008C21.2996 28.8008 21.0996 29.0008 21.0996 29.2008C21.0996 29.4008 21.1996 29.6008 21.4996 29.6008Z" fill="white"/>
<path d="M9 32.9004C9.7 32.4004 10.5 32.0004 11.3 31.9004C11.4 31.9004 11.5 31.8004 11.5 31.6004C11.5 31.5004 11.4 31.4004 11.2 31.4004C10.3 31.6004 9.4 31.9004 8.7 32.5004C8.6 32.6004 8.6 32.7004 8.7 32.8004C8.8 33.0004 8.9 33.0004 9 32.9004Z" fill="white"/>
</svg>
