<svg width="136" height="136" viewBox="0 0 136 136" fill="none" xmlns="http://www.w3.org/2000/svg">
<path d="M131.9 88.4001C132.7 86.1001 131.2 83.5001 129.4 81.8001C127.5 80.1001 125.2 78.8001 123.8 76.8001C120.7 72.6001 122.2 66.5001 119.6 62.0001C116.7 57.0001 108.6 55.0001 106.1 52.2001C104.6 50.4001 102.5 49.5001 100.1 49.1001C88.5996 47.4001 78.3996 47.9001 64.2996 45.5001C52.8996 43.5001 46.4996 36.9001 37.6996 27.6001C36.7996 26.7001 33.3996 25.3001 32.2996 24.6001C31.2996 24.0001 29.9996 23.8001 28.7996 23.6001C24.1996 22.9001 18.5996 22.6001 15.8996 26.2001C15.2996 27.0001 14.8996 27.9001 14.2996 28.6001C12.2996 30.7001 8.59962 30.4001 6.19962 32.2001C3.09962 34.5001 3.89962 39.6001 6.99962 42.0001C9.99962 44.4001 14.2996 44.7001 18.1996 44.2001C20.2996 44.0001 22.3996 43.6001 24.3996 44.2001C31.1996 46.5001 24.7996 55.5001 25.9996 59.9001C26.3996 61.3001 27.2996 62.5001 28.0996 63.7001C31.7996 68.8001 35.5996 73.9001 40.2996 78.2001C42.8996 80.6001 45.8996 82.7001 47.7996 85.7001C49.8996 89.2001 50.2996 93.3001 50.6996 97.3001C50.8996 100.2 51.0996 103.4 49.2996 105.8C48.3996 107 46.9996 108.1 46.9996 109.6C46.9996 110.9 48.1996 112 49.5996 112.3C52.5996 113.1 55.6996 111 56.8996 108.3C58.1996 105.6 57.9996 102.6 57.8996 99.7001C57.6996 96.5001 57.5996 93.3001 57.3996 90.1001C57.3996 89.7001 57.3996 89.2001 57.5996 88.8001C57.8996 88.1001 58.7996 87.8001 59.4996 87.6001C65.3996 85.9001 71.5996 85.6001 77.7996 85.6001C78.1996 85.4001 78.6996 85.2001 79.0996 85.0001C80.5996 84.5001 82.0996 84.2001 83.5996 83.8001C86.9996 81.9001 90.5996 80.5001 94.5996 81.3001C97.5996 81.9001 99.9996 84.0001 101.5 86.5001C101.9 87.2001 102.3 88.1001 102.6 88.9001C102.7 89.2001 103 89.8001 102.9 89.7001C103.4 90.9001 104 92.0001 104.6 93.2001C105 93.4001 105.4 93.6001 105.7 93.7001C109.9 95.4001 114.4 96.3001 118.3 98.5001C120 99.4001 121.6 100.7 122.3 102.4C123 104.1 122.6 106.4 120.9 107.3C120.5 107.5 119.9 107.7 119.7 108.2C119.2 109 120.2 109.9 121 110.3C122.9 111.1 125.1 111.2 127 110.5C127.6 107.4 128.2 104.2 128.9 101.1C129.1 100.3 129.2 99.4001 129 98.6001C128.7 97.5001 127.7 96.8001 126.8 96.0001C123.1 93.1001 119.8 89.8001 117.7 85.8001C115.6 81.8001 114.8 77.0001 116.2 72.7001C120 79.1001 125.5 84.4001 131.9 88.4001Z" fill="white"/>
<path d="M35.8001 33.2995C36.5001 33.1995 37.1001 33.9995 37.1001 34.6995C37.1001 35.3995 36.7001 35.9995 36.2001 36.5995C35.3001 37.6995 27.1001 42.6995 27.8001 39.6995C28.1001 38.5995 30.7001 37.4995 31.5001 36.8995C32.7001 36.0995 34.5001 33.3995 35.8001 33.2995Z" fill="#BCBCBB"/>
<path d="M27.2012 54.8999C28.2012 55.2999 29.3012 54.8999 30.3012 54.4999C31.6012 53.9999 33.0012 53.4999 34.3012 52.9999C36.7012 52.0999 39.1012 51.1999 41.0012 49.5999C42.9012 47.9999 44.3012 45.5999 43.8012 43.1999C42.4012 42.9999 40.9012 43.5999 39.7012 44.3999C38.5012 45.1999 37.5012 46.2999 36.4012 47.0999C34.5012 48.5999 32.3012 49.0999 29.9012 49.4999C28.2012 49.7999 28.3012 49.3999 27.7012 50.8999C27.4012 52.0999 27.3012 53.6999 27.2012 54.8999Z" fill="#BCBCBB"/>
<path d="M61.3007 49.1002C65.2007 50.3002 69.2007 51.6002 73.3007 51.8002C75.9007 51.9002 78.6007 51.6002 81.2007 51.3002C85.8007 50.8002 90.4007 50.3002 95.0007 49.7002C96.1007 49.6002 97.2007 49.4002 98.0007 48.9002C98.1007 48.3002 97.2007 48.1002 96.6007 48.1002C88.0007 48.1002 79.4007 47.7002 70.8007 47.0002C67.0007 46.7002 62.2007 45.3002 58.5007 45.7002C53.3007 46.2002 59.5007 48.5002 61.3007 49.1002Z" fill="#BCBCBB"/>
<path d="M55.9012 110.701C54.7012 111.001 53.5012 111.301 52.2012 111.601C51.9012 111.701 51.6012 111.701 51.4012 111.601C51.1012 111.501 50.9012 111.301 50.8012 111.101C50.2012 110.101 50.7012 108.901 51.1012 107.901C52.7012 104.201 54.1012 100.301 56.1012 96.8008C56.2012 98.1008 56.5012 110.601 55.9012 110.701Z" fill="#BCBCBB"/>
<path d="M60.3009 82.3994C71.6009 80.5994 82.9009 78.7994 94.3009 79.0994C93.9009 80.9994 91.2009 81.2994 89.2009 81.3994C83.4009 81.6994 78.0009 84.0994 72.5009 85.6994C70.1009 86.3994 67.6009 86.9994 65.1009 87.4994C63.4009 87.8994 60.2009 89.0994 58.5009 88.5994C54.8009 87.5994 57.4009 82.8994 60.3009 82.3994Z" fill="#BCBCBB"/>
<path d="M127.7 107.899C127.7 108.799 127.6 109.699 127.2 110.499C126.8 111.299 125.8 111.899 124.9 111.599C123.8 111.299 123.6 109.999 123.6 108.899C123.6 107.099 124.2 100.099 126.5 99.4994C129.8 98.7994 127.7 106.599 127.7 107.899Z" fill="#BCBCBB"/>
<path d="M119.5 78.8002C118.4 77.6002 117.201 76.3002 116.401 74.9002C115.601 73.5002 115.1 71.8002 115.401 70.2002C116.201 70.3002 116.7 71.0002 117.2 71.6002C118.8 73.6002 120.801 75.2002 122.801 76.9002C124.401 78.2002 127.4 80.2002 128 82.2002C128.7 84.4002 127.201 85.2002 125.401 84.2002C123.101 82.8002 121.2 80.6002 119.5 78.8002Z" fill="#BCBCBB"/>
<path d="M45.0996 35C45.7996 36 46.3996 37 46.8996 38C47.0996 38.3 47.1996 38.7 47.1996 39C47.1996 39.4 46.9996 39.7 46.7996 40C44.8996 43.1 41.4996 45.2 37.8996 46.4C34.2996 47.6 29.8996 50.4 26.7996 48.5C26.8996 48.5 26.3996 46 26.4996 45.7C26.6996 44.9 27.0996 44.8 27.8996 44.4C29.8996 43.4 31.8996 42.5 33.7996 41.5C37.6996 39.6 41.4996 37.4 45.0996 35Z" fill="#EB584A"/>
<path d="M132.101 85.7999C131.501 84.6999 130.801 83.4999 129.901 82.5999C128.401 80.9999 126.701 79.5999 125.401 77.6999C123.101 74.3999 121.101 70.8999 120.001 67.0999C119.301 64.4999 118.401 62.0999 116.801 59.8999C116.101 58.8999 115.201 57.8999 114.301 57.0999C113.601 56.3999 112.701 55.8999 111.801 55.4999C110.801 54.9999 109.501 55.4999 108.801 56.4999C109.201 56.3999 109.401 56.4999 109.601 56.2999C110.601 55.6999 111.501 55.8999 112.301 56.4999C113.201 57.0999 114.001 57.7999 114.701 58.5999C116.301 60.3999 117.401 62.4999 118.201 64.6999C118.801 66.4999 119.301 68.2999 120.101 69.9999C121.001 71.9999 122.001 73.8999 123.001 75.8999C124.401 78.3999 126.001 80.6999 128.401 82.3999C129.601 83.2999 130.401 84.5999 131.001 85.8999C131.101 86.0999 131.101 86.2999 131.101 86.5999C128.901 86.6999 127.201 85.9999 125.401 84.8999C126.101 84.2999 125.801 83.7999 125.301 83.3999C124.501 82.5999 123.601 81.8999 122.801 81.0999C121.701 79.9999 120.601 78.7999 119.501 77.6999C118.901 77.0999 118.501 76.3999 117.901 75.7999C118.301 75.2999 118.601 74.9999 118.901 74.5999L118.801 74.4999C118.401 74.7999 118.001 74.9999 117.501 75.3999C117.301 75.0999 117.101 74.7999 116.901 74.2999C117.501 73.7999 118.001 73.3999 118.601 72.7999C117.701 72.7999 117.401 73.5999 116.601 73.7999C115.801 71.9999 115.101 70.0999 114.301 68.2999C114.101 68.4999 114.001 68.5999 114.001 68.6999C114.401 70.9999 113.901 73.2999 113.801 75.4999C113.801 76.4999 113.701 77.5999 113.801 78.5999C113.801 79.4999 114.001 80.4999 114.101 81.3999C114.201 82.6999 114.501 83.7999 115.301 84.8999C115.801 85.5999 116.101 86.3999 116.501 87.1999C117.001 88.0999 117.501 88.9999 118.201 89.8999C120.701 92.8999 123.601 95.3999 126.801 97.5999C127.401 97.9999 127.701 98.4999 127.701 99.1999C127.701 102.5 127.801 105.8 127.901 109.1C127.901 109.8 127.901 110.5 127.901 111.1C126.501 111.2 125.201 111.4 123.901 111.5C122.901 111.6 122.001 111.4 121.201 110.9C120.501 110.4 120.101 109.4 120.401 108.8C120.701 108.2 122.001 107.6 122.801 107.8C123.101 107.9 123.501 108 123.701 107.7C123.801 107.4 123.801 107.1 123.801 106.7C123.701 106 123.501 105.4 123.401 104.7C123.301 103.9 123.301 103.1 123.101 102.3C122.801 100.6 122.001 99.8999 120.201 99.6999C119.401 99.5999 118.601 99.4999 117.901 99.0999C116.401 98.3999 114.801 97.8999 113.201 97.4999C111.001 96.8999 109.101 95.8999 107.201 94.6999C106.101 93.8999 105.301 92.5999 103.801 92.3999C103.701 92.3999 103.701 92.2999 103.601 92.1999C103.201 91.6999 102.801 91.1999 102.401 90.5999C102.801 90.1999 103.201 89.8999 103.601 89.5999C103.901 89.2999 104.501 89.0999 104.701 88.4999C103.701 88.9999 103.001 89.7999 102.001 89.9999C101.701 89.5999 101.901 89.3999 102.201 89.1999C103.001 88.5999 103.901 88.0999 104.701 87.4999C105.001 87.2999 105.501 87.0999 105.601 86.4999C104.101 87.4999 102.801 88.2999 101.401 89.1999C100.701 88.3999 100.001 87.5999 99.5012 86.7999C99.0012 86.0999 98.6012 85.3999 98.2012 84.6999C98.2012 84.6999 98.2012 84.6999 98.3012 84.6999C98.2012 84.5999 98.1012 84.4999 98.1012 84.3999C98.0012 84.2999 97.9012 84.0999 97.9012 83.9999C97.5012 83.6999 97.2012 83.3999 96.9012 83.0999C96.9012 83.0999 96.9012 83.0999 96.8012 83.0999L96.7012 82.9999C96.0012 82.2999 95.2012 81.8999 94.2012 81.6999C93.9012 81.5999 93.6012 81.5999 93.3012 81.4999C93.8012 80.8999 94.1012 80.2999 94.2012 79.6999C93.5012 80.1999 93.1012 80.7999 92.7012 81.3999C91.9012 81.2999 91.0012 81.3999 90.1012 81.4999C90.0012 81.4999 90.0012 81.4999 89.9012 81.4999C90.7012 80.8999 91.6012 79.8999 92.1012 79.1999C92.2012 78.9999 92.3012 78.7999 92.4012 78.3999C91.9012 78.5999 90.1012 80.3999 89.3012 81.5999C87.1012 82.0999 84.9012 82.4999 82.8012 83.2999C79.7012 84.3999 76.6012 85.3999 73.5012 86.4999C73.1012 86.5999 72.6012 86.6999 72.2012 86.5999C71.9012 86.4999 71.6012 86.4999 71.3012 86.5999C71.0012 86.6999 70.6012 86.8999 70.3012 86.8999C66.8012 87.5999 63.4012 88.3999 59.9012 88.5999C59.2012 88.6999 58.5012 88.6999 57.7012 88.2999V88.1999C58.9012 87.3999 59.9012 86.6999 61.0012 85.8999C61.0012 85.7999 60.9012 85.7999 60.8012 85.6999C59.7012 86.3999 58.6012 87.0999 57.5012 87.7999C57.5012 87.4999 57.5012 87.1999 57.6012 86.9999C57.6012 86.7999 57.6012 86.6999 57.6012 86.4999C57.9012 86.1999 58.2012 85.8999 58.5012 85.5999C58.2012 85.7999 57.9012 85.9999 57.6012 86.1999C57.6012 85.9999 57.3012 85.6999 57.2012 85.7999C57.0012 85.7999 56.5012 86.1999 56.4012 86.5999C56.3012 86.7999 56.3012 86.9999 56.2012 87.1999C56.2012 87.5999 56.2012 87.9999 56.2012 88.4999C56.2012 88.5999 56.3012 88.8999 56.3012 89.0999C56.3012 89.4999 56.3012 89.8999 56.3012 90.3999C56.3012 92.0999 56.4012 93.8999 56.4012 95.5999C56.4012 98.3999 56.5012 101.3 56.5012 104.1C56.5012 106.3 56.4012 108.4 56.0012 110.5C54.4012 111.4 52.7012 111.8 50.9012 111.8C49.8012 111.8 49.0012 111.3 48.6012 110.4C48.1012 109.4 48.5012 108.4 49.5012 107.9C50.1012 107.6 50.7012 107.4 51.3012 107.2C51.9012 107 52.1012 106.7 52.0012 106.2C52.0012 105.2 52.0012 104.2 51.9012 103.2C51.8012 102.1 52.3012 101.5 53.3012 101C53.8012 100.8 54.2012 100.5 54.7012 100.3C54.7012 100.2 54.6012 100.1 54.6012 100.1C53.8012 100.5 53.0012 100.8 52.0012 101.3C51.8012 99.5999 53.3012 99.3999 54.4012 98.6999C53.2012 98.3999 52.7012 99.2999 51.8012 99.5999C51.7012 99.1999 51.6012 98.8999 51.5012 98.4999C51.1012 96.7999 50.7012 95.1999 50.2012 93.4999C49.8012 92.2999 49.2012 91.1999 48.8012 89.9999C47.9012 87.2999 46.5012 84.8999 44.6012 82.6999C43.9012 81.8999 42.9012 81.1999 41.7012 80.6999C41.7012 81.4999 42.2012 81.8999 42.7012 82.2999C44.0012 83.2999 45.0012 84.4999 45.9012 85.7999C47.5012 88.1999 48.4012 90.8999 49.5012 93.4999C50.3012 95.2999 50.6012 97.2999 50.9012 99.2999C51.2012 101.4 51.3012 103.5 51.0012 105.7C50.9012 106.6 50.2012 107.2 49.2012 107.1C49.0012 107.1 48.9012 107 48.7012 107C48.4012 107.3 48.2012 107.6 47.9012 108C47.7012 108.3 47.6012 108.5 47.5012 108.8C47.0012 109.9 47.3012 111 48.2012 111.8C49.0012 112.5 49.9012 112.9 51.1012 112.8C52.2012 112.7 53.4012 112.7 54.5012 112.6C55.0012 112.6 55.5012 112.4 56.0012 112.2C56.7012 112 57.1012 111.5 57.1012 110.7C57.1012 110 57.2012 109.2 57.3012 108.5C57.4012 107.2 57.5012 105.9 57.5012 104.6C57.5012 99.7999 57.4012 94.8999 57.3012 90.0999C57.3012 89.8999 57.3012 89.7999 57.4012 89.5999H57.5012C59.8012 89.8999 62.0012 89.6999 64.2012 89.2999C66.2012 88.9999 68.1012 88.5999 70.1012 88.1999C70.4012 88.0999 70.8012 87.9999 71.0012 88.0999C71.9012 88.4999 72.7012 88.0999 73.4012 87.7999C74.6012 87.4999 75.7012 87.0999 76.8012 86.6999C77.7012 86.3999 78.6012 86.0999 79.5012 85.7999C81.0012 85.2999 82.4012 84.6999 83.9012 84.1999C85.3012 83.7999 86.7012 83.3999 88.1012 82.9999C89.6012 82.5999 91.1012 82.3999 92.6012 82.3999C93.9012 82.3999 95.1012 82.6999 96.1012 83.4999C96.6012 83.8999 97.0012 84.2999 97.4012 84.7999C97.6012 85.1999 97.8012 85.4999 98.0012 85.7999C100.001 88.4999 102.101 91.1999 104.201 93.8999C104.301 94.0999 104.701 94.2999 104.901 94.1999C105.401 93.9999 105.601 94.2999 106.001 94.4999C108.001 95.9999 110.001 97.3999 112.501 97.9999C113.701 98.2999 114.801 98.6999 116.001 98.9999C117.601 99.5999 119.201 100.2 121.001 100.4C121.801 100.5 122.401 101 122.501 101.7C122.701 103.1 122.801 104.5 123.001 105.9C123.101 106.4 122.801 106.6 122.401 106.8C121.801 107 121.301 107.3 120.801 107.6C120.101 108 119.701 109.1 120.001 109.7C120.501 110.9 121.201 111.7 122.701 112C124.801 112.3 126.801 112 128.901 111.9C129.401 111.9 129.401 111.5 129.401 111.1C129.301 109 129.201 106.8 129.201 104.7C129.201 102.6 129.201 100.4 129.201 98.2999C129.201 97.5999 128.901 97.1999 128.401 96.7999C127.501 96.0999 126.501 95.3999 125.601 94.7999C122.401 92.4999 120.001 89.5999 118.101 86.2999C118.001 86.1999 118.001 86.0999 118.001 85.9999C117.401 84.2999 116.801 82.5999 116.201 80.9999C115.401 78.6999 115.401 76.3999 115.801 73.8999C117.901 77.2999 120.001 80.5999 123.501 82.7999C123.301 83.0999 123.101 83.2999 122.901 83.5999C123.301 83.9999 123.801 84.2999 124.001 84.5999C124.601 85.4999 125.401 86.0999 126.401 86.3999C127.601 86.7999 128.801 87.1999 130.001 87.5999C130.601 87.6999 131.201 87.6999 131.801 87.5999C132.201 87.0999 132.501 86.4999 132.101 85.7999Z" fill="black"/>
<path d="M26.3004 48.9998C26.3004 48.9998 26.3004 49.0998 26.3004 49.1998C26.3004 49.2998 26.3004 49.3998 26.3004 49.3998C26.3004 49.6998 26.5004 49.9998 26.9004 49.9998C28.2004 49.9998 29.6004 50.1998 30.9004 49.6998C32.9004 48.8998 34.8004 47.9998 36.8004 47.1998C37.3004 46.9998 38.0004 46.9998 38.5004 46.6998C41.8004 44.7998 45.3004 43.0998 47.6004 39.9998C48.3004 40.5998 49.2004 40.9998 50.1004 41.2998C51.3004 41.6998 52.3004 42.3998 53.5004 42.6998C55.4004 43.2998 57.3004 43.6998 59.3004 44.0998C60.7004 44.3998 62.1004 44.7998 63.5004 45.1998C65.8004 45.8998 68.2004 46.5998 70.7004 46.2998C70.9004 46.2998 71.1004 46.2998 71.4004 46.3998C71.5004 47.4998 72.3004 47.4998 73.1004 47.4998C74.3004 47.4998 75.5004 47.4998 76.7004 47.4998C78.0004 47.4998 79.3004 47.3998 80.6004 47.3998C81.9004 47.3998 83.2004 47.2998 84.4004 47.2998C86.9004 47.2998 89.3004 47.6998 91.7004 47.9998C95.2004 48.3998 98.7004 49.1998 102.1 50.2998C102.5 50.3998 102.9 50.5998 103.4 50.8998C102.4 51.7998 101.1 51.9998 100.3 52.8998C100.9 52.6998 101.5 52.3998 102.1 52.0998C102.6 51.7998 103.1 51.5998 103.7 51.3998C104.1 51.1998 104.4 51.3998 104.5 51.7998C104.2 52.0998 103.9 52.2998 103.6 52.5998C104.1 52.4998 104.6 52.2998 105.1 52.1998C106.7 53.3998 107.9 54.8998 109 56.4998C109.3 56.0998 109.6 55.6998 109.9 55.3998C109.7 55.3998 109.6 55.3998 109.4 55.4998C108.6 54.5998 107.9 53.7998 107.2 52.8998C106.3 51.7998 105.2 50.7998 103.9 50.2998C101 49.1998 98.1004 48.1998 95.0004 47.7998C92.7004 47.4998 90.4004 47.1998 88.1004 46.9998C86.4004 46.8998 84.7004 46.7998 83.0004 46.8998C79.8004 46.9998 76.6004 47.0998 73.4004 46.9998C73.3004 46.9998 73.2004 46.8998 73.1004 46.8998C73.0004 46.5998 73.0004 46.3998 72.9004 46.0998C72.1004 46.0998 71.4004 46.0998 70.6004 46.0998C69.4004 45.9998 68.3004 45.9998 67.1004 45.7998C65.7004 45.4998 64.3004 45.0998 62.9004 44.6998C61.0004 44.1998 59.0004 43.7998 57.1004 43.2998C55.7004 42.9998 54.4004 41.9998 52.9004 41.9998C52.8004 41.9998 52.6004 41.8998 52.5004 41.7998C50.9004 41.0998 49.5004 40.2998 48.1004 39.3998V39.2998C48.1004 39.1998 48.1004 39.0998 48.1004 38.9998C48.0004 38.6998 48.0004 38.4998 47.9004 38.2998C47.3004 38.1998 47.0004 37.6998 46.7004 37.2998C46.2004 36.6998 45.8004 35.9998 45.4004 35.2998C45.3004 35.1998 45.2004 35.0998 45.1004 34.9998C45.1004 34.9998 45.1004 34.9998 45.1004 34.8998C44.6004 34.1998 43.8004 33.2998 42.9004 32.2998C41.5004 30.7998 39.8004 29.1998 38.2004 27.6998C36.6004 26.1998 35.1004 24.9998 33.9004 24.1998C33.5004 23.8998 33.1004 23.5998 32.6004 23.4998C31.8004 23.2998 31.0004 23.0998 30.2004 23.0998C26.6004 22.7998 22.9004 23.0998 19.4004 23.9998C18.4004 24.2998 17.6004 24.8998 17.1004 25.7998C16.8004 26.1998 16.9004 26.5998 17.5004 26.5998C18.0004 26.0998 18.5004 25.3998 19.1004 25.1998C20.5004 24.6998 22.0004 24.2998 23.5004 24.0998C25.4004 23.8998 27.3004 23.8998 29.1004 23.7998C30.6004 23.6998 31.9004 24.0998 33.1004 24.7998C34.2004 25.3998 35.1004 26.1998 35.9004 27.0998C35.9004 26.9998 35.9004 26.9998 35.8004 26.8998C36.8004 27.7998 38.0004 28.7998 39.1004 29.7998C40.2004 30.7998 41.2004 31.8998 42.1004 32.7998C42.9004 33.5998 43.5004 34.3998 44.0004 34.9998C44.0004 34.9998 44.0004 34.9998 43.9004 34.9998C40.1004 37.8998 36.2004 40.4998 31.8004 42.5998C30.0004 43.3998 28.2004 44.2998 26.5004 44.9998C26.5004 45.1998 26.4004 45.3998 26.4004 45.5998C26.3004 45.4998 26.2004 45.2998 26.1004 45.1998C25.4004 44.2998 24.5004 43.4998 23.3004 43.0998C23.3004 42.9998 23.3004 42.9998 23.2004 42.8998C23.0004 42.8998 22.9004 42.8998 22.8004 42.8998C21.3004 43.7998 19.6004 44.0998 17.9004 43.9998C15.6004 43.9998 13.3004 43.8998 11.0004 43.6998C10.4004 43.6998 9.70041 43.4998 9.10041 43.2998C8.60041 43.0998 8.00041 42.7998 7.70041 42.3998C6.60041 40.9998 6.20041 39.2998 5.30041 37.9998C6.00041 36.7998 6.60041 35.7998 7.20041 34.7998C7.70041 33.9998 8.10041 33.0998 7.70041 32.0998C7.70041 31.9998 7.80041 31.9998 7.90041 31.7998C9.20041 31.4998 10.5004 31.2998 11.9004 30.8998C12.9004 30.6998 13.9004 30.3998 14.8004 30.0998C16.1004 29.5998 17.2004 27.8998 17.1004 26.4998C17.1004 26.4998 17.0004 26.3998 16.9004 26.2998C16.8004 26.3998 16.5004 26.4998 16.4004 26.5998C16.2004 26.9998 16.0004 27.3998 15.8004 27.7998C15.4004 28.7998 14.7004 29.2998 13.7004 29.4998C12.7004 29.7998 11.7004 29.9998 10.6004 30.2998C8.90041 30.6998 7.10041 30.9998 5.40041 31.3998C3.80041 31.7998 3.20041 32.4998 3.00041 33.9998C2.90041 34.5998 3.00041 35.1998 3.10041 35.6998C3.70041 38.1998 5.00041 40.3998 6.60041 42.4998C7.20041 43.1998 7.90041 43.6998 8.90041 43.8998C10.0004 44.0998 11.2004 44.0998 12.3004 44.2998C14.9004 44.6998 17.4004 44.5998 20.0004 44.3998C21.0004 44.2998 22.0004 44.0998 22.9004 43.5998L23.0004 43.4998C23.9004 43.7998 24.8004 44.4998 25.4004 45.2998C25.9004 45.9998 26.2004 46.6998 26.3004 47.4998C26.3004 48.0998 26.3004 48.4998 26.3004 48.9998ZM44.4004 35.4998C45.1004 36.2998 45.7004 37.0998 46.2004 37.9998C46.3004 38.1998 46.1004 38.5998 45.9004 38.7998C45.5004 39.2998 45.1004 39.6998 44.5004 40.3998C43.7004 38.9998 43.0004 37.9998 42.4004 36.8998C43.2004 36.3998 43.7004 35.9998 44.4004 35.4998ZM41.9004 37.3998C42.0004 37.4998 42.1004 37.4998 42.2004 37.5998C42.8004 38.4998 43.4004 39.3998 44.0004 40.2998C44.1004 40.4998 43.8004 40.7998 43.7004 40.9998C43.6004 40.9998 43.5004 40.9998 43.4004 40.8998C42.8004 39.6998 42.3004 38.5998 41.7004 37.3998H41.9004ZM31.4004 43.3998C32.4004 42.8998 33.4004 42.3998 34.4004 41.8998C36.1004 40.8998 37.9004 39.8998 39.6004 38.8998C40.1004 38.5998 40.6004 38.1998 41.2004 37.8998C42.0004 39.0998 42.6004 40.2998 43.1004 41.7998C39.7004 44.3998 36.1004 46.5998 32.1004 48.2998C31.4004 46.9998 31.0004 45.7998 30.8004 44.4998C30.7004 43.7998 31.0004 43.5998 31.4004 43.3998ZM29.8004 44.1998C30.0004 44.2998 30.2004 44.3998 30.3004 44.5998C30.7004 45.7998 31.1004 46.9998 31.5004 48.1998C31.0004 48.2998 30.6004 48.3998 30.0004 48.5998C29.8004 47.1998 29.6004 45.9998 29.4004 44.7998C29.3004 44.5998 29.6004 44.3998 29.8004 44.1998ZM28.6004 44.6998C29.2004 45.9998 29.2004 47.3998 29.4004 48.8998H27.3004C27.2004 47.6998 27.1004 46.5998 27.0004 45.2998C27.5004 45.0998 28.0004 44.8998 28.6004 44.6998Z" fill="black"/>
<path d="M34.3012 68.7C33.7012 69.1 33.1012 69.4 32.4012 69.8C32.1012 69.3 31.8012 68.9 31.6012 68.5C32.2012 67.4 33.4012 66.9 34.1012 65.9C33.6012 66.1 33.1012 66.4 32.6012 66.8C32.1012 67.1 31.7012 67.5 31.2012 68C29.4012 64.6 27.6012 61.4 27.6012 57.7C27.3012 57.6 27.1012 57.5 26.7012 57.4C27.1012 55.5 27.5012 53.7 27.8012 51.9C27.9012 51.5 28.3012 50.8 27.5012 50.7C26.9012 50.6 27.0012 51.4 26.9012 51.8C26.5012 54.2 26.1012 56.7 25.7012 59.1C25.7012 59.2 25.8012 59.3 25.8012 59.5C26.2012 59.4 26.5012 59.3 26.8012 59.2C27.2012 60.4 27.4012 61.6 27.9012 62.7C28.9012 65.2 29.9012 67.7 31.6012 69.9C31.9012 70.3 31.9012 70.7 31.6012 71C31.6012 71.1 31.6012 71.2 31.6012 71.3C31.9012 71.2 32.1012 71.1 32.3012 71C33.4012 72.4 34.5012 73.8 35.5012 75.1C35.8012 75.5 36.3012 75.8 36.5012 76.2C37.5012 77.9 39.2012 79.1 40.6012 80.4C40.6012 80.4 40.7012 80.4 41.0012 80.4C38.2012 76.9 35.0012 73.9 32.6012 70.3C33.2012 69.6 34.1012 69.4 34.3012 68.7Z" fill="black"/>
<path d="M23.0996 27.8994C23.1996 28.3994 23.0996 28.8994 23.3996 29.2994C23.7996 29.8994 23.7996 30.4994 23.6996 31.1994C23.5996 31.9994 23.4996 32.7994 23.3996 33.4994C23.2996 34.1994 23.3996 34.7994 23.7996 35.3994C24.4996 36.2994 25.1996 37.2994 25.8996 38.0994C26.2996 38.5994 26.9996 38.9994 27.6996 38.7994C28.3996 38.5994 28.9996 38.3994 29.5996 37.9994C31.6996 36.5994 33.4996 34.9994 35.1996 33.1994C35.5996 32.7994 35.8996 32.3994 35.9996 31.8994C36.3996 30.8994 35.7996 29.7994 34.5996 29.1994C34.6996 29.6994 34.7996 30.0994 34.8996 30.3994C35.3996 31.3994 34.9996 32.1994 34.2996 32.8994C33.3996 33.7994 32.4996 34.5994 31.4996 35.4994C30.7996 36.0994 29.9996 36.5994 29.1996 37.0994C28.1996 37.6994 26.6996 37.6994 26.1996 36.9994C25.5996 36.2994 25.1996 35.4994 25.2996 34.5994C25.7996 34.2994 26.2996 33.9994 26.9996 33.5994C25.8996 33.5994 25.0996 34.6994 24.2996 33.7994C24.3996 33.3994 24.5996 32.9994 24.5996 32.6994C24.5996 32.2994 24.4996 31.8994 24.4996 31.5994C24.4996 30.8994 24.5996 30.0994 24.4996 29.3994C24.7996 28.5994 24.2996 28.0994 23.0996 27.8994Z" fill="black"/>
<path d="M16.7999 30.5995C16.7999 31.2995 17.1999 31.8995 17.7999 32.0995C18.2999 32.1995 18.8999 31.7995 19.2999 31.0995C19.3999 30.9995 19.3999 30.8996 19.4999 30.6996C19.6999 30.0996 19.7999 29.5995 19.3999 29.0995C18.8999 28.5995 18.3999 29.0996 17.8999 29.1996C17.1999 29.4996 16.6999 29.7995 16.7999 30.5995Z" fill="black"/>
<path d="M28.5008 24.8999C27.2008 24.6999 25.5008 25.1999 24.8008 25.8999C26.3008 26.0999 27.4008 25.3999 28.5008 24.8999Z" fill="black"/>
<path d="M18.9004 27.6994C19.5004 27.7994 20.1004 27.6994 20.7004 27.6994C20.7004 27.5994 20.7004 27.4994 20.7004 27.2994C20.1004 27.1994 19.6004 26.9994 19.0004 26.8994C18.8004 26.8994 18.6004 26.9994 18.4004 27.0994C18.7004 27.2994 18.8004 27.5994 18.9004 27.6994Z" fill="black"/>
<path d="M12 35.5996C12 35.5996 12.2 35.8996 12.3 35.8996C12.5 35.8996 12.7 35.6996 12.8 35.5996C12.8 35.5996 12.7 35.2996 12.5 35.0996C12.2 35.2996 12 35.3996 12 35.5996Z" fill="black"/>
<path d="M9.90039 35.2998C9.70039 35.3998 9.50039 35.5998 9.40039 35.6998C9.50039 35.7998 9.60039 35.9998 9.70039 35.9998C9.90039 35.9998 10.0004 35.7998 10.3004 35.6998C10.1004 35.4998 9.90039 35.2998 9.90039 35.2998Z" fill="black"/>
<path d="M10.6004 38.0002C10.5004 37.9002 10.4004 37.8002 10.3004 37.7002C10.2004 37.8002 10.1004 37.9002 9.90039 38.1002C10.0004 38.2002 10.1004 38.3002 10.2004 38.3002C10.3004 38.2002 10.4004 38.1002 10.6004 38.0002Z" fill="black"/>
<path d="M17.7008 30.5002C17.9008 30.5002 18.1008 30.3002 18.1008 30.1002C18.1008 29.9002 17.9008 29.7002 17.7008 29.7002C17.5008 29.7002 17.3008 29.9002 17.3008 30.1002C17.3008 30.3002 17.5008 30.5002 17.7008 30.5002Z" fill="white"/>
<path d="M4.09961 33.9994C4.79961 33.3994 5.69961 33.0994 6.59961 32.8994C6.69961 32.8994 6.79961 32.7994 6.79961 32.5994C6.79961 32.3994 6.69961 32.3994 6.49961 32.3994C5.49961 32.5994 4.59961 32.9994 3.79961 33.5994C3.69961 33.6994 3.69961 33.7994 3.79961 33.8994C3.79961 33.9994 3.99961 33.9994 4.09961 33.9994Z" fill="white"/>
</svg>
