<svg width="136" height="136" viewBox="0 0 136 136" fill="none" xmlns="http://www.w3.org/2000/svg">
<path d="M32.501 50.2994C32.201 53.8994 31.901 57.5994 33.001 60.9994C35.001 67.1994 41.401 70.9994 43.601 77.0994C44.501 79.3994 44.701 81.9994 44.901 84.4994C45.501 90.9994 46.001 97.4994 46.601 103.999C46.701 105.299 46.701 106.899 45.701 107.799C44.901 108.399 43.501 109.099 44.001 109.899C44.201 110.199 44.501 110.299 44.801 110.399C46.701 110.899 48.601 111.099 50.501 110.799C53.601 100.099 48.101 87.6994 53.401 77.9994C64.101 79.2994 74.401 73.9994 84.901 71.6994C86.101 71.3994 87.501 71.1994 88.701 71.5994C91.301 72.3994 92.401 75.1994 93.601 77.6994C95.901 82.3994 99.501 86.3994 103.701 89.3994C107.201 91.9994 111.301 93.9994 113.801 97.5994C115.501 100.099 116.301 103.299 115.901 106.399C115.801 107.199 115.601 107.899 115.201 108.499C114.701 109.199 113.901 109.499 113.201 109.999C112.501 110.499 112.001 111.499 112.501 112.199C115.101 112.699 117.801 112.799 120.501 112.699C120.701 108.499 121.001 104.199 121.201 99.9994C121.201 99.1994 121.301 98.2994 121.001 97.5994C120.501 96.3994 119.201 95.6994 118.001 95.0994C111.501 91.2994 107.801 82.9994 109.401 75.4994C112.301 76.9994 114.801 79.0994 116.801 81.6994C117.901 83.0994 118.801 84.5994 120.201 85.5994C121.601 86.5994 123.701 86.9994 125.001 85.7994C125.501 84.0994 124.501 82.2994 123.101 81.1994C121.701 80.0994 120.101 79.4994 118.601 78.5994C113.801 75.5994 111.501 69.7994 109.801 64.2994C109.201 62.4994 108.701 60.6994 107.501 59.1994C106.601 57.9994 105.301 57.1994 104.001 56.4994C89.901 48.5994 72.401 52.6994 56.801 48.8994C54.901 48.3994 53.001 47.7994 51.401 46.5994C49.301 44.9994 48.101 42.5994 47.001 40.1994C45.301 36.6994 43.601 33.1994 41.901 29.7994C40.901 27.7994 39.901 25.6994 38.101 24.3994C35.501 22.3994 31.901 22.4994 28.601 22.6994C26.701 22.7994 24.601 22.9994 23.101 24.2994C21.601 25.6994 21.101 27.9994 19.601 29.3994C17.001 31.7994 12.501 30.5994 9.80097 32.9994C9.30097 37.2994 12.701 41.2994 16.601 42.8994C20.501 44.4994 25.001 44.1994 29.201 43.7994C31.801 46.7994 31.401 46.5994 32.701 50.3994L32.501 50.2994Z" fill="white"/>
<path d="M35.7008 39.2993C37.1008 39.9993 38.8008 39.2993 40.2008 38.5993C41.2008 38.0993 42.2008 37.4993 42.8008 36.4993C43.4008 35.4993 43.4008 34.1993 43.4008 32.8993C43.4008 31.8993 43.1008 30.4993 42.1008 30.3993C41.6008 30.2993 41.0008 30.6993 40.7008 31.0993C40.4008 31.5993 40.2008 32.0993 39.9008 32.5993C38.9008 34.6993 37.3008 34.9993 35.5008 35.9993C34.0008 36.7993 33.4008 38.1993 35.7008 39.2993Z" fill="#BCBCBB"/>
<path d="M51.9997 109.199C51.9997 110.099 52.0997 110.999 51.4997 111.599C50.9997 112.099 50.2997 112.099 49.6997 112.199C48.9997 112.199 48.0997 112.199 47.4997 111.799C46.6997 111.199 46.5997 110.099 46.8997 109.099C47.1997 108.199 47.7997 107.399 48.3997 106.599C50.1997 104.299 51.5997 101.599 52.0997 98.6991C52.6997 95.5991 51.8997 92.4991 52.0997 89.3991C52.3997 85.0991 53.7997 88.8991 53.6997 91.1991C53.2997 97.1991 51.6997 103.099 51.9997 109.199Z" fill="#BCBCBB"/>
<path d="M121.001 96.8988C120.601 101.399 121.701 105.899 121.601 110.399C121.601 110.599 121.601 110.799 121.501 110.899C121.401 111.299 121.001 111.399 120.601 111.499C119.801 111.699 119.001 111.599 118.401 111.099C117.801 110.599 117.401 109.799 117.601 108.999C117.701 108.599 117.801 108.299 118.001 107.999C119.201 105.599 119.801 102.899 119.701 100.199C119.701 98.2988 119.401 96.1988 120.701 94.7988L121.001 96.8988Z" fill="#BCBCBB"/>
<path d="M58.9002 55.7997C61.9002 56.9997 65.2002 57.3997 68.4002 57.6997C74.0002 58.2997 79.7002 58.9997 85.3002 58.3997C87.6002 58.1997 89.9002 57.6997 91.9002 56.5997C92.4002 56.2997 93.0002 55.8997 93.2002 55.2997C93.6002 54.1997 92.8002 52.9997 91.8002 52.4997C90.7002 52.0997 89.6002 52.1997 88.4002 52.2997C80.5002 53.1997 72.4002 52.8997 64.6002 51.4997C62.4002 51.0997 55.7002 48.1997 54.0002 49.6997C51.1002 52.1997 57.3002 55.1997 58.9002 55.7997Z" fill="#BCBCBB"/>
<path d="M91.6 67.7C91.6 68.8 91.6 70 91.6 71.1C91.6 71.3 91.6 71.6 91.5 71.7C91.3 72 90.9 72 90.6 72C86 71.8 81.1 71 77 73C76.1 73.5 74.9 74 74.2 73.4C73.6 72.9 73.7 71.7 74.3 71.1C74.9 70.5 75.7 70.2 76.5 70C78.6 69.4 80.7 69 82.6 68.1C83.9 67.5 85.2 66.8 86.6 66.4C87.8 66.1 89.1 66 90.4 66C90.9 66 91.4 66 91.8 66.3C92.8 66.9 92.6 68.4 92.3 69.5L91.6 67.7Z" fill="#BCBCBB"/>
<path d="M119.1 84.999C120.5 85.699 122.2 85.9991 123.6 85.399C123.7 85.399 123.8 85.299 123.9 85.199C124 85.099 124 84.9991 124 84.7991C124.1 83.9991 123.7 83.199 123.1 82.599C122.5 81.999 121.8 81.599 121.1 81.199C118.5 79.599 116.4 77.699 114.3 75.499C113.4 74.599 110.6 71.799 110.1 74.099C109.5 76.999 117.2 83.899 119.1 84.999Z" fill="#BCBCBB"/>
<path d="M31.3008 44.8996L38.6008 41.3996L45.2008 37.0996L46.9008 40.2996L40.5008 45.3996L34.4008 48.5996L29.8008 49.5996L30.0008 45.2996L31.3008 44.8996Z" fill="#EB584A"/>
<path d="M28.0996 27.5996C28.1996 28.0996 28.1996 28.5996 28.3996 28.9996C28.7996 29.5996 28.7996 30.2996 28.6996 30.8996C28.5996 31.6996 28.5996 32.4996 28.4996 33.2996C28.3996 33.9996 28.4996 34.6996 28.8996 35.1996C29.5996 36.0996 30.2996 37.0996 30.9996 37.8996C31.3996 38.3996 31.9996 38.7996 32.7996 38.5996C33.3996 38.3996 34.0996 38.1996 34.5996 37.7996C36.4996 36.2996 38.2996 34.5996 39.8996 32.7996C40.1996 32.3996 40.4996 31.8996 40.6996 31.3996C40.9996 30.3996 40.4996 29.2996 39.2996 28.6996C39.3996 29.1996 39.4996 29.5996 39.5996 29.8996C40.0996 30.8996 39.7996 31.7996 39.0996 32.4996C38.2996 33.3996 37.3996 34.2996 36.4996 35.1996C35.7996 35.7996 35.0996 36.3996 34.2996 36.8996C33.3996 37.5996 31.9996 37.5996 31.3996 36.8996C30.7996 36.1996 30.3996 35.3996 30.4996 34.4996C30.9996 34.1996 31.4996 33.8996 32.0996 33.3996C31.0996 33.3996 30.3996 34.5996 29.4996 33.5996C29.5996 33.0996 29.7996 32.7996 29.7996 32.3996C29.7996 31.9996 29.6996 31.5996 29.6996 31.1996C29.6996 30.3996 29.6996 29.6996 29.6996 28.8996C29.6996 28.2996 29.1996 27.8996 28.0996 27.5996Z" fill="black"/>
<path d="M22.1007 30.6002C22.1007 31.3002 22.5007 32.0002 23.1007 32.1002C23.6007 32.2002 24.1007 31.8002 24.5007 31.1002C24.6007 31.0002 24.6007 30.9002 24.7007 30.7002C24.9007 30.1002 25.0007 29.5002 24.6007 29.1002C24.1007 28.6002 23.6007 29.1002 23.1007 29.3002C22.5007 29.4002 22.0007 29.8002 22.1007 30.6002Z" fill="black"/>
<path d="M33.1992 24.3995C31.9992 24.2995 30.2992 24.7995 29.6992 25.4995C31.1992 25.7995 32.0992 24.8995 33.1992 24.3995Z" fill="black"/>
<path d="M23.6992 26.9002C23.7992 27.1002 23.8992 27.5002 24.0992 27.5002C24.6992 27.5002 25.2992 27.5002 25.7992 27.5002C25.7992 27.4002 25.7992 27.3002 25.7992 27.1002C25.2992 27.0002 24.6992 26.8002 24.1992 26.7002C24.0992 26.7002 23.8992 26.8002 23.6992 26.9002Z" fill="black"/>
<path d="M17.5996 35.7998C17.5996 35.7998 17.7996 36.0998 17.8996 36.0998C18.0996 36.0998 18.2996 35.8998 18.3996 35.7998C18.3996 35.7998 18.2996 35.4998 18.0996 35.2998C17.8996 35.4998 17.6996 35.5998 17.5996 35.7998Z" fill="black"/>
<path d="M15.5996 35.5C15.3996 35.6 15.2996 35.8 15.0996 36C15.1996 36.1 15.3996 36.3 15.4996 36.2C15.6996 36.2 15.7996 36 16.0996 35.8C15.7996 35.7 15.5996 35.5 15.5996 35.5Z" fill="black"/>
<path d="M16.2992 38.3C16.1992 38.2 16.0992 38.1 15.9992 38C15.8992 38.1 15.7992 38.3 15.6992 38.4C15.7992 38.5 15.8992 38.6 15.9992 38.6C16.0992 38.6 16.1992 38.4 16.2992 38.3Z" fill="black"/>
<path d="M125.7 84.0002C124.5 82.9002 123.3 81.9002 121.9 81.0002C119.2 79.1002 116.9 76.7002 115.2 73.8002C113.8 71.3002 112.5 68.7002 111.2 66.2002C109.9 63.6002 108.5 61.1002 107.3 58.5002C106.3 56.5002 104.5 55.8002 102.5 55.3002C102.1 55.2002 101.6 55.1002 101.2 54.9002C98.7005 53.4002 95.9005 52.7002 93.0005 52.7002C91.1005 52.7002 89.1005 52.4002 87.2005 52.3002C86.1005 52.2002 84.9005 52.2002 83.8005 52.2002C83.6005 52.2002 83.4005 52.4002 83.0005 52.7002C83.6005 52.8002 83.8005 52.9002 84.1005 52.9002C85.2005 52.9002 86.3005 52.9002 87.4005 53.0002C89.5005 53.2002 91.7005 53.4002 93.8005 53.6002C96.6005 53.8002 99.3005 54.5002 101.7 56.1002C102 56.3002 102.5 56.4002 102.9 56.5002C104.5 56.8002 105.9 57.5002 106.7 59.0002C108.3 62.3002 110 65.5002 111.6 68.8002C113.3 72.1002 114.8 75.4002 117.5 78.1002C119.5 80.1002 121.6 82.1002 123.8 83.8002C124.4 84.2002 125 84.6002 125.3 85.3002C124.5 85.8002 123.8 85.8002 123 85.5002C120.7 84.6002 118.4 83.6002 115.9 82.5002C116.8 81.7002 116.4 81.3002 116 80.8002C114.4 79.0002 112.8 77.2002 111.3 75.3002C110.5 74.3002 109.8 73.1002 109.1 72.0002C108.7 71.3002 108.5 70.4002 108.1 69.6002C107.9 69.2002 107.7 68.7002 106.9 69.1002C107.2 69.8002 107.5 70.4002 107.7 71.1002C108 72.2002 108.4 73.3002 108.5 74.5002C108.7 78.3002 109.3 82.0002 110.7 85.5002C110.8 85.8002 110.9 86.2002 110.8 86.3002C110.5 86.8002 110.7 87.2002 111 87.6002C111.2 87.9002 111.4 88.2002 111.7 88.6002C113.9 91.7002 116.3 94.7002 119.9 96.2002C120.4 96.4002 120.5 96.8002 120.6 97.3002C120.6 98.3002 120.7 99.4002 120.7 100.4C120.8 103.3 120.9 106.3 121 109.2C121 110.3 120.7 111.2 119.7 111.7C117.8 112.7 115.8 112.7 113.8 112C112.7 111.6 112.6 110.7 113.5 109.9C113.7 109.7 114 109.5 114.3 109.4C115 109.1 115.6 108.9 116.3 108.7C116.9 108.5 117.1 108.1 116.7 107.8C115.9 107.2 116.1 106.3 116.1 105.5C116 103.6 116 101.8 115.9 99.9002C115.9 99.6002 115.8 99.2002 115.8 98.9002C115.4 98.7002 115 98.6002 114.7 98.3002C112 96.2002 109.2 94.1002 106.7 91.8002C103.7 89.1002 100.9 86.1002 98.0005 83.2002C97.3005 82.5002 97.3005 82.3002 98.0005 81.6002C98.6005 81.0002 99.2005 80.4002 99.8005 79.7002C100 79.5002 100.2 79.2002 100.4 79.0002C100.4 79.0002 100.3 78.9002 100.2 78.9002C99.1005 79.9002 98.1005 80.9002 97.0005 81.8002C96.3005 81.4002 96.4005 81.0002 96.7005 80.6002C97.4005 79.8002 98.0005 78.9002 98.7005 78.1002C98.8005 77.9002 98.9005 77.7002 99.0005 77.5002C98.9005 77.4002 98.9005 77.4002 98.8005 77.3002C97.9005 78.4002 97.0005 79.5002 96.0005 80.6002C93.4005 77.5002 92.8005 73.7002 92.0005 70.0002C91.1005 70.7002 91.6005 71.4002 91.6005 72.1002C91.5005 72.2002 91.4005 72.2002 91.4005 72.2002C91.2005 72.2002 91.0005 72.2002 90.8005 72.2002C87.6005 71.9002 84.4005 71.7002 81.2005 72.4002C81.0005 72.5002 80.7005 72.4002 80.4005 72.5002C78.1005 72.8002 75.7005 73.1002 73.5005 74.0002C71.1005 75.0002 68.6005 76.0002 66.2005 77.0002C65.9005 77.1002 65.5005 77.3002 65.2005 77.2002C63.9005 76.9002 62.7005 77.3002 61.5005 77.6002C60.3005 77.9002 59.1005 78.1002 57.9005 78.3002C56.3005 78.5002 54.7005 78.6002 53.2005 78.8002C53.0005 79.6002 53.2005 79.8002 53.9005 79.7002C56.9005 79.3002 60.1005 79.5002 63.0005 78.3002C64.0005 79.3002 64.0005 79.3002 65.3005 78.8002C67.1005 78.0002 68.9005 77.2002 70.8005 76.4002C72.2005 75.8002 73.7005 75.2002 75.2005 74.8002C77.1005 74.3002 79.0005 74.0002 80.9005 73.7002C83.2005 73.3002 85.5005 72.9002 87.8005 73.3002C88.4005 73.4002 89.0005 73.3002 89.6005 73.1002C90.3005 72.9002 91.1005 72.9002 91.8005 72.8002C92.0005 73.5002 92.1005 74.0002 92.2005 74.5002C92.8005 77.3002 94.1005 79.9002 95.9005 82.1002C97.3005 83.7002 98.8005 85.3002 100.2 86.8002C103.8 90.6002 107.6 94.1002 111.8 97.3002C112.7 98.0002 113.6 98.8002 114.5 99.6002C114.9 100 115.1 100.4 115.1 100.9C115.2 102.9 115.3 105 115.4 107C115.4 107.3 115.4 107.7 115.4 107.8C114.4 108.4 113.4 108.9 112.7 109.5C111.5 110.5 111.7 111.9 112.9 112.6C115.3 113.8 119 113.7 121.1 111.7C121.5 111.3 121.8 110.8 121.7 110.2C121.6 108 121.5 105.7 121.5 103.5C121.4 101.1 121.4 98.8002 121.4 96.4002C121.4 95.9002 121.6 95.3002 120.9 94.8002C120.4 95.6002 119.8 95.3002 119.2 94.9002C118.7 94.6002 118.3 94.3002 117.8 94.0002C115.4 92.3002 113.7 89.9002 112 87.5002C112.5 87.0002 112.5 86.5002 112.1 85.9002C110.7 83.5002 110.3 80.7002 109.8 78.0002C109.7 77.5002 109.8 77.0002 109.8 76.5002C111.5 78.1002 113.1 79.7002 114.6 81.2002C114 82.1002 114.1 82.2002 114.9 82.8002C115.2 83.0002 115.5 83.1002 115.8 83.3002C116.5 83.6002 117.2 83.8002 117.8 84.2002C119.4 85.3002 121.2 85.9002 123 86.5002C124.3 86.9002 125.6 86.5002 126.7 85.4002C126.4 84.8002 126.1 84.4002 125.7 84.0002Z" fill="black"/>
<path d="M52.7 84.3998C52.7 80.8998 52.6 77.3998 52.5 73.8998C52.5 73.4998 52.5 73.0998 52 72.8998C51.9 72.9998 51.8 73.1998 51.8 73.2998C51.7 74.6998 51.7 76.0998 51.7 77.3998C51.7 81.3998 51.8 85.2998 51.8 89.2998C51.8 94.1998 51.8 99.0998 51.7 103.9C51.7 105.5 51.6 107.1 51.5 108.7C51.5 109.2 51.5 109.9 50.8 110.1C49.9 110.3 48.9 110.3 47.7 110.5C48.1 109.8 48.3 109.4 48.6 108.8C47.4 109.2 47.4 110.9 45.8 110.8C46.4 109.7 46.9 108.8 47.5 107.8C47.4 107.7 47.3 107.7 47.3 107.6C46.7 108.6 46 109.5 45.4 110.5C44.6 109.7 44.5 109.3 45 108.5C45.4 107.7 46.1 107.2 46.9 106.9C47.9 106.4 47.9 106.4 47.8 105.2C47.4 100.7 47 96.2998 46.6 91.7998C46.3 89.1998 46 86.5998 45.7 83.9998C45.5 81.9998 45.2 80.0998 45 78.0998C45 77.6998 44.9 77.3998 44.8 76.8998C44.4 76.9998 44.1 76.9998 43.7 77.0998C42.5 75.2998 41.3 73.4998 40.1 71.6998C39.5 70.7998 39.6 70.7998 40.2 69.8998C40.6 69.3998 41 68.8998 41.4 68.3998C41.3 68.2998 41.3 68.2998 41.2 68.1998C40.5 68.8998 39.9 69.4998 39.2 70.1998C38.7 69.6998 39 69.3998 39.2 69.0998C39.7 68.2998 40.2 67.5998 40.7 66.8998C40.6 66.7998 40.5 66.7998 40.5 66.6998C39.8 67.4998 39.2 68.2998 38.5 69.0998C38.3 68.8998 38.2 68.8998 38.1 68.7998C36.8 66.4998 35.6 64.0998 35.5 61.2998C35.5 60.7998 35.3 60.0998 35 59.8998C34.3 59.4998 34.2 58.8998 34.1 58.2998C33.7 56.3998 33.3 54.4998 33 52.5998C32.8 51.6998 32.6 50.7998 32.4 49.8998C38.5 48.9998 43.2 45.6998 47.2 41.0998C49.8 44.3998 52.6 47.1998 55.7 49.5998C56.2 49.4998 56.6 49.4998 57 49.5998C57.9 49.8998 58.8 50.2998 59.8 50.4998C62.7 51.2998 65.5 51.9998 68.5 51.7998C69.5 51.6998 70.5 51.7998 71.5 51.8998C74.7 51.9998 77.9 52.1998 81.1 51.7998C81.4 51.7998 81.6 51.6998 81.8 51.5998C81.8 51.4998 81.8 51.3998 81.8 51.2998C81.4 51.2998 80.9 51.1998 80.5 51.1998C78.9 51.1998 77.4 51.1998 75.8 51.1998C72.8 51.0998 69.9 51.0998 66.9 50.8998C65.7 50.8998 64.5 50.6998 63.3 50.4998C62.3 50.2998 61.4 49.8998 60.4 49.6998C59 49.3998 57.6 48.9998 56.4 48.0998C56.1 47.8998 55.7 47.6998 55.5 47.7998C54.9 48.0998 54.5 47.6998 54.2 47.3998C52.6 45.7998 51 44.2998 49.6 42.5998C48.8 41.6998 47.6 40.6998 48 39.1998V39.0998C47.4 37.6998 46.4 36.5998 45.6 35.5998C45.6 35.5998 45.5 35.6998 45.4 35.6998C44.6 33.7998 43.5 31.1998 42.5 28.7998C41.9 27.4998 41.3 26.3998 40.7 25.3998C40.4 24.8998 40.1 24.4998 39.8 24.0998C39.5 23.6998 39.2 23.3998 38.9 23.1998C38.8 23.1998 38.8 23.0998 38.7 23.0998C38.7 23.0998 38.7 23.0998 38.6 22.9998C38.1 22.4998 37.6 22.0998 37 21.9998C36.2 21.7998 35.5 21.5998 34.7 21.5998C31.2 21.3998 27.7 21.6998 24.4 22.7998C23.4 23.0998 22.7 23.7998 22.2 24.6998C22 25.0998 22.1 25.4998 22.6 25.4998C23.1 24.9998 23.5 24.2998 24.1 23.9998C25.4 23.4998 26.9 22.9998 28.3 22.7998C30.1 22.4998 31.9 22.4998 33.7 22.3998C35.1 22.2998 36.4 22.6998 37.6 23.3998C38 23.5998 38.4 23.8998 38.7 24.1998C38.8 24.2998 38.9 24.4998 39.1 24.5998C39.5 25.1998 40 25.9998 40.5 26.8998C41.9 29.5998 43.4 33.4998 44.6 36.0998C42.5 37.4998 40.4 38.7998 38.6 40.2998C36.4 42.0998 33.6 42.7998 31.4 44.4998C31.9 46.2998 32 47.2998 31.6 48.1998C30.9 47.2998 31.2 45.9998 30.5 45.0998C30.6 44.9998 30.6 44.7998 30.6 44.5998C30.4 44.0998 30.3 43.7998 30.3 43.5998C30.3 43.2998 30.3 42.9998 30.1 42.2998C30.1 42.0998 29.9 41.9998 29.7 41.8998C29.6 41.8998 29.5 41.8998 29.4 41.8998C28.8 41.8998 28.1 42.1998 27.7 42.6998C26.4 43.3998 25 43.6998 23.6 43.6998C21.4 43.6998 19.2 43.6998 17 43.5998C16.4 43.5998 15.8 43.4998 15.2 43.1998C14.7 42.9998 14.2 42.6998 13.8 42.2998C12.6 40.9998 12.2 39.2998 11.3 37.9998C11.9 36.7998 12.5 35.6998 13.1 34.6998C13.6 33.7998 13.9 32.8998 13.6 31.8998C13.6 31.7998 13.7 31.7998 13.7 31.5998C14.9 31.2998 16.2 30.9998 17.5 30.5998C18.4 30.2998 19.4 29.9998 20.3 29.6998C21.5 29.1998 22.5 27.3998 22.4 25.9998C22.4 25.9998 22.3 25.8998 22.2 25.7998C22.1 25.8998 21.8 25.9998 21.8 26.0998C21.6 26.4998 21.4 26.8998 21.3 27.2998C21 28.2998 20.3 28.8998 19.4 29.0998C18.4 29.3998 17.5 29.6998 16.5 29.9998C14.8 30.3998 13.2 30.7998 11.5 31.2998C9.7 32.1998 9.1 32.9998 9 34.5998C9 35.1998 9 35.7998 9.1 36.2998C9.8 38.8998 11 41.0998 12.6 43.1998C13.2 43.9998 13.9 44.3998 14.8 44.5998C15.9 44.6998 17 44.7998 18.1 44.8998C20.6 45.1998 23 45.0998 25.5 44.8998C26.5 44.7998 27.4 44.5998 28.2 43.9998C28.4 43.8998 28.5 43.6998 28.6 43.5998C28.8 43.4998 29 43.3998 29.2 43.3998C29.3 43.6998 29.3 43.9998 29.3 44.1998C29.3 44.4998 29.4 44.8998 29.7 45.4998C29.8 45.5998 29.9 45.6998 30 45.7998C29.8 47.0998 29.9 48.3998 29.9 49.6998C30.4 49.7998 30.8 49.8998 31.3 50.0998C32.6 53.5998 33.1 57.1998 33.8 60.7998C34 61.6998 33.9 61.6998 34.7 61.9998C34.9 64.3998 35.8 66.5998 37.1 68.5998C39.1 71.8998 41.4 74.9998 43.6 78.0998C44.1 78.7998 44.4 79.4998 44.5 80.2998C44.7 82.0998 44.8 83.8998 45.2 85.6998C46 88.9998 45.9 92.2998 46.3 95.5998C46.7 98.5998 46.9 101.7 47.2 104.7C47.3 105.9 47.3 106 46.2 106.6C45.2 107.2 44.3 107.9 44 109.1C43.6 110.6 44.3 111.7 45.8 112.1C47.8 112.6 49.7 112.1 51.6 111.5C52.2 111.3 52.5 111 52.6 110.4C52.7 108.8 52.9 107.2 52.9 105.6C52.9 102.6 52.9 99.6998 52.9 96.6998C52.7 92.4998 52.7 88.4998 52.7 84.3998ZM32.2 45.1998C32.3 45.1998 32.4 45.1998 32.5 45.1998C32.7 46.0998 32.9 46.9998 33 47.8998C33.1 47.8998 33.2 47.8998 33.3 47.8998C33.2 47.2998 33.2 46.5998 33.1 45.9998C32.9 45.1998 33.2 44.5998 34 44.1998C34.3 44.0998 34.5 43.8998 34.8 43.7998C36.3 43.3998 37.5 42.3998 38.6 41.3998C39.5 40.6998 40.5 40.1998 41.4 39.5998C42.7 38.7998 43.9 37.8998 45.2 37.0998C45.3 37.0998 45.3 37.0998 45.3 37.0998C47.3 39.0998 47.2 39.1998 45.5 41.0998C44.1 42.6998 42.4 44.1998 40.6 45.2998C40.4 45.4998 40.1 45.5998 39.8 45.6998C38.6 46.2998 37.4 46.7998 36.3 47.3998C35.1 47.9998 33.9 48.4998 32.5 48.4998C32 47.3998 32 46.2998 32.2 45.1998Z" fill="black"/>
<path d="M68.1 71.4C68.1 71.7 68.1 71.9 68.1 72.2C68.4 72 68.6 71.8 68.6 71.6C68.9 70.2 69.2 68.7001 69.3 67.3001C69.5 65.2001 69.3 63.1 68.5 61.1C68.3 60.7 68.2 60.2 67.6 60.3C67.5 60.4 67.5 60.5 67.5 60.5C67.5 60.7 67.6 60.8 67.7 61C68.5 62.9 69 64.9 68.7 67C68.6 68.4 68.3 69.9 68.1 71.4Z" fill="black"/>
<path d="M61.1004 73.3002C61.2004 73.0002 61.5004 72.7002 61.5004 72.4002C61.7004 71.1002 62.0004 69.8002 61.9004 68.5002C61.8004 66.8002 61.4004 65.0002 61.1004 63.3002C61.0004 62.9002 60.8004 62.5002 60.6004 62.1002C60.5004 62.0002 60.2004 61.9002 59.9004 61.7002C61.3004 65.6002 61.9004 69.3002 60.8004 73.2002C60.9004 73.2002 61.0004 73.3002 61.1004 73.3002Z" fill="black"/>
<path d="M56.9004 62.2998C57.3004 64.3998 57.8004 66.3998 58.0004 68.3998C58.2004 70.3998 58.1004 72.4998 58.2004 74.4998C58.3004 74.4998 58.4004 74.4998 58.5004 74.4998C59.2004 70.8998 58.7004 67.2998 57.8004 63.6998C57.7004 63.1998 57.7004 62.5998 56.9004 62.2998Z" fill="black"/>
<path d="M63.4004 60.8994C64.1004 62.8994 64.2004 64.8994 64.2004 66.8994C64.2004 68.8994 64.2004 70.8994 64.2004 72.9994C64.3004 72.9994 64.4004 72.9994 64.4004 72.9994C64.5004 72.4994 64.7004 71.8994 64.7004 71.3994C64.7004 68.6994 64.6004 65.9994 64.4004 63.2994C64.4004 62.5994 64.1004 61.9994 63.8004 61.2994C64.0004 60.9994 63.6004 60.9994 63.4004 60.8994Z" fill="black"/>
<path d="M54.3996 64.5994C54.2996 64.4994 53.9996 64.4994 53.5996 64.3994C55.1996 67.5994 55.0996 70.7994 55.5996 73.9994C55.6996 73.9994 55.7996 73.9994 55.8996 73.9994C55.8996 73.5994 55.9996 73.1994 55.9996 72.7994C55.8996 70.4994 55.6996 68.2994 55.0996 65.9994C54.8996 65.4994 54.5996 64.9994 54.3996 64.5994Z" fill="black"/>
<path d="M89.6 65.0996C88.7 65.1996 84 67.8996 83 68.8996C84.2 68.8996 84.8 68.2996 85.5 67.8996C86.2 67.4996 86.9 66.9996 87.5 66.5996C88.2 66.0996 89 65.8996 89.6 65.0996Z" fill="black"/>
<path d="M42.1 54.2994C42.3 54.1994 42.6 54.0994 42.7 53.8994C44 52.4994 45.5 51.2994 46.5 49.5994C46.4 49.4994 46.4 49.4994 46.3 49.3994C44.7 50.8994 43.2 52.4994 41.5 54.0994C41.8 54.2994 42 54.3994 42.1 54.2994Z" fill="black"/>
<path d="M20.5996 41.1002C20.7996 41.1002 21.0996 41.2002 21.2996 41.1002C23.0996 40.7002 24.9996 40.4002 26.6996 39.5002C26.6996 39.4002 26.5996 39.3002 26.5996 39.2002C24.4996 39.7002 22.3996 40.1002 20.0996 40.6002C20.3996 40.9002 20.4996 41.1002 20.5996 41.1002Z" fill="black"/>
<path d="M75.0008 62.8002C74.7008 61.1002 74.5008 60.6002 73.8008 60.2002C74.1008 62.3002 75.0008 64.2002 74.5008 66.2002C75.4008 65.2002 75.2008 64.0002 75.0008 62.8002Z" fill="black"/>
<path d="M76.5996 59.8994C76.7996 60.8994 77.0996 61.7994 77.1996 62.6994C77.2996 63.5994 77.2996 64.4994 77.2996 65.3994C78.2996 63.8994 77.8996 60.7994 76.5996 59.8994Z" fill="black"/>
<path d="M99.0996 60.9C100.1 59.7 100.9 58.7 101.9 57.5C100.4 58.5 99.1996 59.9 99.0996 60.9Z" fill="black"/>
<path d="M51.5 65.4002C51.8 66.2002 52.1 67.0002 52.4 67.7002C52.5 67.7002 52.6 67.6002 52.6 67.6002C52.5 66.7002 52.7 65.8002 51.8 65.2002C51.7 65.3002 51.6 65.4002 51.5 65.4002Z" fill="black"/>
<path d="M97.8008 59.1996C97.9008 59.2996 98.0008 59.3996 98.1008 59.4996C98.7008 58.4996 99.7008 57.7996 100.301 56.7996C100.201 56.6996 100.201 56.6996 100.101 56.5996C99.3008 57.3996 98.5008 58.2996 97.8008 59.1996Z" fill="black"/>
<path d="M23.3996 29.9996C23.3996 30.1996 23.1996 30.3996 22.9996 30.3996C22.7996 30.3996 22.5996 30.1996 22.5996 29.9996C22.5996 29.7996 22.7996 29.5996 22.9996 29.5996C23.1996 29.5996 23.3996 29.7996 23.3996 29.9996Z" fill="white"/>
<path d="M10 34.2996C10.7 33.6996 11.5 33.2996 12.4 33.0996C12.5 33.0996 12.6 32.9996 12.6 32.7996C12.6 32.6996 12.5 32.5996 12.3 32.5996C11.4 32.7996 10.5 33.1996 9.7 33.8996C9.6 33.9996 9.6 34.0996 9.7 34.1996C9.8 34.3996 9.9 34.3996 10 34.2996Z" fill="white"/>
</svg>
