<svg width="136" height="136" viewBox="0 0 136 136" fill="none" xmlns="http://www.w3.org/2000/svg">
<path d="M10.2996 41.5003C12.1996 41.9003 14.2996 41.4003 16.1996 42.0003C17.6996 42.5003 18.8996 43.6003 19.9996 44.7003C22.6996 47.7003 24.8996 51.2003 26.1996 55.0003C27.8996 60.0003 28.4996 65.6003 32.0996 69.5003C34.2996 71.8003 37.2996 73.2003 39.0996 75.7003C40.8996 78.1003 41.1996 81.3003 41.5996 84.3003C42.0996 89.0003 42.5996 93.8003 43.1996 98.5003C43.3996 100 43.4996 101.4 43.0996 102.8C42.3996 105.2 40.2996 107.3 40.5996 109.8C40.8996 112 43.5996 113.6 45.5996 112.7C47.3996 112 48.2996 109.9 48.3996 108C48.4996 106.1 50.1996 104.9 49.7996 103C48.9996 98.9003 50.1996 92.4003 50.2996 88.2003C50.3996 83.9003 49.5996 81.2003 53.1996 78.7003C55.4996 77.1003 56.1996 76.4003 58.8996 76.3003C65.2996 76.1003 71.5996 75.4003 77.8996 74.3003C81.3996 73.6003 85.0996 72.8003 88.4996 73.9003C92.6996 75.2003 95.4996 79.1003 97.9996 82.7003C100.7 86.6003 103.4 90.5003 106.1 94.4003C108 97.1003 110 100.6 108.5 103.6C108 104.7 107.1 105.6 107 106.7C106.8 108.5 108.8 110.1 110.6 109.8C112.4 109.5 113.8 107.9 114.4 106.2C115 104.5 114.9 102.6 114.9 100.7C114.8 97.9003 114.7 95.1003 114.6 92.2003C114.6 91.1003 114.5 89.9003 114 88.9003C113.4 87.7003 112.2 87.0003 111.2 86.1003C106.2 81.7003 106.1 72.8003 111.1 68.4003C115.1 75.4003 121 81.4003 128 85.4003C128.5 85.7003 129.2 86.0003 129.8 85.8003C130.3 85.6003 130.6 85.1003 130.7 84.6003C131.4 82.3003 130.1 79.9003 128.5 78.3003C126.8 76.6003 124.7 75.5003 123.1 73.8003C118.9 69.5003 118.4 62.8003 115 57.9003C113.8 56.2003 112.3 54.8003 110.8 53.4003C107.1 49.8003 103.1 46.2003 98.1996 44.5003C93.1996 42.8003 87.7996 43.5003 82.4996 43.7003C71.1996 44.2003 59.8996 42.8003 49.0996 39.5003C45.8996 38.5003 42.6996 37.4003 40.2996 35.1003C38.5996 34.0003 37.3996 32.0003 35.9996 30.4003C32.3996 26.4003 27.1996 23.9003 21.7996 23.6003C20.1996 23.5003 18.5996 23.7003 17.1996 24.4003C15.6996 25.2003 14.5996 26.6003 13.3996 27.7003C11.7996 29.2003 9.99957 30.1003 7.99957 30.9003C6.69957 31.4003 5.19957 31.9003 4.69957 33.3003C3.39957 36.8003 7.19957 40.9003 10.2996 41.5003Z" fill="white"/>
<path d="M25.3012 39.4997C26.5012 40.0997 27.9012 39.5997 29.2012 38.9997C30.1012 38.5997 31.0012 38.0997 31.5012 37.2997C32.0012 36.3997 32.1012 35.3997 32.1012 34.3997C32.1012 33.4997 31.9012 32.3997 31.0012 32.2997C30.5012 32.1997 30.1012 32.4997 29.8012 32.8997C29.5012 33.2997 29.3012 33.6997 29.1012 34.0997C28.2012 35.7997 26.8012 35.9997 25.3012 36.7997C23.9012 37.3997 23.4012 38.5997 25.3012 39.4997Z" fill="#BCBCBB"/>
<path d="M52.9999 78.2999C53.6999 78.6999 54.3999 78.6999 55.1999 78.7999C62.3999 79.2999 69.6999 77.6999 76.2999 74.6999C77.4999 74.1999 78.7999 73.2999 78.8999 71.9999C77.2999 71.1999 75.3999 71.3999 73.5999 71.6999C68.0999 72.4999 62.4999 72.8999 56.8999 72.9999C55.5999 72.9999 52.5999 72.5999 51.5999 73.7999C50.3999 75.0999 51.6999 77.5999 52.9999 78.2999Z" fill="#BCBCBB"/>
<path d="M112.9 69.4002C113.5 70.5002 114 71.7002 114.7 72.7002C116 74.7002 117.7 76.4002 119.4 78.1002C120.4 79.1002 121.4 80.1002 122.3 81.1002C122.9 81.7002 123.6 82.4002 124.2 82.9002C125.1 83.7002 126.6 84.3002 127.3 83.3002C127.9 82.5002 127.4 81.5002 126.9 80.7002C124.2 76.7002 120.3 73.5002 117.4 69.5002C116.6 68.4002 115.8 67.2002 114.8 66.4002C114.2 65.9002 112 64.7002 111.3 65.5002C110.8 66.2002 112.5 68.6002 112.9 69.4002Z" fill="#BCBCBB"/>
<path d="M48.6001 108.899C48.6001 109.799 48.6001 110.699 48.0001 111.299C47.5001 111.699 46.8001 111.799 46.1001 111.799C45.3001 111.799 44.5001 111.799 43.9001 111.299C43.1001 110.699 43.0001 109.499 43.3001 108.599C43.6001 107.699 44.3001 106.899 44.9001 106.199C46.8001 103.899 48.3001 101.299 48.9001 98.399C49.5001 95.299 48.8001 92.199 49.1001 88.999C49.5001 84.699 50.9001 88.499 50.7001 90.899C50.3001 96.899 48.5001 102.799 48.6001 108.899Z" fill="#BCBCBB"/>
<path d="M115.501 91.4004C114.801 96.9004 116.101 102.4 115.901 107.9C115.901 108.1 115.901 108.3 115.801 108.5C115.601 108.9 115.101 109.2 114.701 109.3C113.801 109.5 112.701 109.3 111.901 108.7C111.101 108.1 110.701 107.1 110.901 106.1C111.001 105.7 111.201 105.3 111.401 104.9C112.901 102 113.701 98.7004 113.801 95.4004C113.801 93.1004 113.601 90.5004 115.201 88.9004L115.501 91.4004Z" fill="#BCBCBB"/>
<path d="M51.5011 47.2C54.4011 48.4 57.6011 48.9 60.8011 49.3C66.3011 50 71.8011 50.8 77.4011 50.4C79.7011 50.2 81.9011 49.9 83.9011 48.8C84.4011 48.5 85.0011 48.2 85.2011 47.6C85.7011 46.6 84.9011 45.3 83.9011 44.9C82.9011 44.4 81.7011 44.5 80.6011 44.6C72.8011 45.2 64.9011 44.8 57.2011 43.2C55.0011 42.8 48.6011 39.9 46.8011 41.2C44.0011 43.6 50.0011 46.6 51.5011 47.2Z" fill="#BCBCBB"/>
<path d="M22.5 46.8002L26.8 44.1002L33.7 37.5002L37.3 33.2002L39.8 34.9002L40.4 36.1002L37.5 41.5002L32.4 46.4002C32.4 46.4002 28 48.7002 27.9 49.0002C27.7 49.3002 24.3 50.8002 24.3 50.8002L22.5 46.8002Z" fill="#EB584A"/>
<path d="M131.701 82.1999C130.701 80.8999 129.701 79.6999 128.601 78.4999C127.101 76.7999 125.601 75.1999 124.101 73.4999C123.701 73.0999 123.301 72.6999 122.901 72.3999C122.701 72.1999 122.401 71.9999 122.301 71.6999C121.301 70.0999 120.101 68.4999 119.201 66.7999C117.701 63.7999 116.401 60.6999 114.901 57.6999C114.001 55.7999 113.201 53.6999 111.801 51.9999C110.801 50.6999 109.801 49.4999 107.801 50.0999C107.001 49.2999 106.201 48.4999 105.401 47.6999C104.401 46.6999 103.301 45.7999 101.901 45.3999C99.0009 44.5999 96.1009 43.7999 93.1009 43.6999C90.9009 43.5999 88.6009 43.4999 86.4009 43.4999C84.8009 43.4999 83.1009 43.5999 81.5009 43.7999C78.4009 44.1999 75.4009 44.4999 72.3009 44.7999C72.2009 44.7999 72.1009 44.7999 72.0009 44.6999C71.9009 44.3999 71.8009 44.1999 71.7009 43.8999C70.9009 43.9999 70.2009 44.0999 69.5009 44.0999C68.4009 44.0999 67.3009 44.1999 66.1009 44.0999C64.7009 43.9999 63.3009 43.5999 62.0009 43.3999C60.1009 43.0999 58.2009 42.7999 56.3009 42.4999C54.9009 42.2999 53.6009 41.3999 52.1009 41.4999C52.0009 41.4999 51.8009 41.3999 51.7009 41.2999C49.4009 40.4999 47.2009 39.3999 45.2009 38.0999C43.8009 37.1999 42.5009 36.1999 41.2009 35.1999C41.2009 35.1999 41.2009 35.1999 41.2009 35.0999C40.9009 34.8999 40.6009 34.6999 40.4009 34.3999C40.0009 33.9999 39.5009 33.5999 39.2009 33.0999C39.0009 32.7999 38.6009 32.5999 38.2009 32.4999C38.1009 32.4999 38.0009 32.3999 37.9009 32.3999C37.8009 32.2999 37.7009 32.2999 37.6009 32.1999C37.5009 32.0999 37.4009 31.9999 37.3009 31.8999C36.0009 30.3999 34.8009 28.7999 33.5009 27.2999C32.4009 26.0999 31.1009 24.9999 30.0009 23.7999C29.6009 23.2999 29.1009 22.9999 28.5009 22.8999C27.8009 22.6999 27.1009 22.4999 26.4009 22.4999C23.2009 22.2999 20.1009 22.4999 17.0009 23.2999C16.1009 23.4999 15.5009 24.0999 15.0009 24.8999C14.8009 25.2999 14.9009 25.5999 15.4009 25.6999C15.9009 25.2999 16.3009 24.5999 16.8009 24.3999C18.0009 23.9999 19.3009 23.5999 20.6009 23.3999C22.2009 23.1999 23.9009 23.1999 25.5009 23.1999C26.8009 23.0999 27.9009 23.4999 29.0009 24.1999C30.4009 25.0999 31.6009 26.3999 32.7009 27.5999C33.5009 28.4999 34.2009 29.5999 35.0009 30.4999C35.6009 31.1999 36.2009 31.8999 36.7009 32.5999C35.0009 35.3999 32.9009 37.8999 30.6009 40.1999C28.1009 42.5999 25.3009 44.4999 22.5009 46.3999C23.4009 47.3999 24.7009 49.4999 24.8009 50.0999C24.6009 49.8999 24.4009 49.7999 24.3009 49.5999C23.9009 48.9999 23.6009 48.3999 23.2009 47.7999C23.1009 47.5999 22.9009 47.3999 22.7009 47.4999C22.4009 46.8999 22.0009 46.2999 21.6009 45.6999C21.1009 44.9999 20.6009 44.1999 20.0009 43.4999C19.8009 43.1999 19.6009 42.8999 19.1009 43.2999C19.3009 43.5999 19.4009 43.9999 19.6009 44.2999C20.7009 46.1999 21.9009 47.9999 22.9009 49.9999C23.9009 51.9999 24.7009 54.0999 25.1009 56.2999C25.2009 56.9999 25.5009 57.6999 25.7009 58.5999C26.1009 58.2999 26.4009 58.1999 26.7009 57.9999C26.8009 58.0999 26.8009 58.1999 26.8009 58.2999C27.7009 61.5999 29.0009 64.6999 30.5009 67.6999C32.0009 70.4999 33.7009 73.1999 35.3009 75.9999C35.4009 76.1999 35.6009 76.2999 35.8009 76.4999C36.1009 76.6999 36.5009 76.8999 36.8009 77.0999C37.4009 77.5999 37.9009 78.1999 38.5009 78.5999C39.4009 79.1999 40.3009 79.7999 41.2009 80.3999C41.3009 80.4999 41.5009 80.2999 41.7009 80.2999C41.6009 80.0999 41.6009 79.8999 41.5009 79.7999C41.5009 79.6999 41.4009 79.6999 41.3009 79.6999C39.8009 78.9999 38.7009 77.7999 37.6009 76.6999C37.1009 76.1999 36.6009 75.6999 36.1009 75.3999C35.5009 75.0999 35.2009 74.6999 34.9009 74.0999C34.1009 72.6999 33.4009 71.3999 32.6009 69.9999C30.9009 67.1999 29.4009 64.2999 28.3009 61.1999C28.0009 60.0999 27.4009 59.1999 27.6009 57.9999C27.7009 57.4999 27.4009 56.9999 26.9009 56.5999C26.4009 56.1999 26.1009 56.4999 25.7009 56.6999C25.4009 55.4999 25.1009 54.2999 24.7009 53.1999C24.5009 52.4999 24.2009 51.8999 23.9009 51.1999C24.1009 51.3999 24.4009 51.3999 24.7009 51.2999C27.0009 50.4999 29.2009 49.3999 31.1009 47.6999C31.7009 47.8999 32.2009 47.6999 32.6009 47.4999C34.4009 46.5999 35.7009 45.1999 37.2009 43.8999C37.2009 43.8999 37.2009 43.7999 37.1009 43.6999C36.0009 44.2999 35.2009 45.1999 34.2009 45.9999C33.4009 46.5999 32.5009 46.9999 31.5009 47.3999C33.0009 45.8999 34.5009 44.3999 36.0009 42.8999C36.7009 42.0999 37.2009 41.1999 37.9009 40.2999C38.8009 38.9999 39.7009 37.7999 40.4009 36.3999C42.3009 37.9999 44.5009 39.2999 46.5009 40.6999C47.3009 41.1999 48.1009 41.5999 49.0009 41.7999C50.2009 42.0999 51.2009 42.6999 52.4009 42.8999C54.3009 43.2999 56.2009 43.4999 58.1009 43.7999C59.5009 43.9999 60.9009 44.1999 62.2009 44.4999C64.5009 44.9999 66.8009 45.4999 69.2009 44.9999C69.4009 44.9999 69.6009 44.9999 69.8009 44.9999C70.0009 46.0999 70.8009 45.9999 71.5009 45.8999C72.7009 45.7999 73.8009 45.6999 75.0009 45.5999C76.2009 45.4999 77.5009 45.2999 78.7009 45.0999C79.9009 44.8999 81.2009 44.7999 82.4009 44.5999C84.8009 44.2999 87.1009 44.4999 89.5009 44.5999C93.0009 44.6999 96.4009 45.1999 99.7009 45.9999C100.101 46.0999 100.501 46.2999 101.001 46.3999C100.101 47.3999 98.9009 47.6999 98.2009 48.6999C98.8009 48.3999 99.3009 48.0999 99.8009 47.6999C100.301 47.3999 100.701 47.0999 101.201 46.7999C101.601 46.5999 101.901 46.6999 102.001 47.0999C101.701 47.3999 101.501 47.6999 101.201 47.8999C101.701 47.6999 102.101 47.4999 102.601 47.2999C104.301 48.3999 105.701 49.8999 107.001 51.4999C108.101 50.7999 109.101 51.1999 109.801 51.9999C110.701 52.9999 111.401 54.0999 112.101 55.1999C112.701 56.0999 113.001 57.0999 113.501 57.9999C114.001 58.9999 114.601 60.0999 115.001 61.0999C116.401 64.3999 117.801 67.5999 119.801 70.5999C120.601 71.7999 121.201 73.2999 122.701 73.9999C122.801 74.0999 122.901 74.1999 123.001 74.2999C123.901 75.2999 124.801 76.1999 125.701 77.1999C127.201 78.7999 128.601 80.4999 130.001 82.1999C130.301 82.5999 130.601 83.0999 130.801 83.4999C131.101 84.0999 130.901 84.5999 130.301 84.8999C129.601 85.2999 128.801 85.4999 128.001 85.0999C127.601 84.8999 127.101 84.7999 126.701 84.5999C126.201 84.3999 125.501 84.2999 125.401 83.4999C125.401 83.3999 125.101 83.1999 125.001 83.0999C124.401 82.6999 123.701 82.3999 123.001 81.8999C122.101 81.2999 121.301 80.6999 120.401 80.0999C121.001 79.2999 120.401 78.8999 119.901 78.4999C118.201 77.1999 116.701 75.5999 115.401 73.8999C114.501 72.6999 113.701 71.3999 113.101 69.8999C113.601 69.5999 114.001 69.2999 114.501 68.9999C114.901 68.6999 115.401 68.5999 115.801 67.8999C114.701 68.4999 113.801 68.9999 112.901 69.3999C112.501 68.8999 112.401 68.5999 112.901 68.1999C113.001 68.0999 113.101 67.8999 113.201 67.7999C112.901 67.8999 112.601 67.8999 112.201 67.9999C111.601 66.7999 111.001 65.5999 110.801 64.2999C110.701 63.6999 110.501 63.0999 110.401 62.5999C110.401 62.4999 110.101 62.3999 109.801 62.1999C109.801 63.0999 109.901 63.8999 109.901 64.5999C110.001 66.4999 109.601 68.3999 109.001 70.1999C108.001 73.0999 107.101 76.0999 107.501 79.1999C107.801 81.5999 108.701 83.7999 110.501 85.5999C111.801 86.7999 113.001 88.0999 114.301 89.4999C113.801 90.0999 113.801 90.5999 114.101 91.1999C114.401 91.6999 114.301 92.1999 114.201 92.6999C113.901 94.2999 113.901 95.9999 114.001 97.5999C114.101 100.3 114.201 103 114.401 105.7C114.401 105.9 114.501 106.1 114.601 106.4C115.201 106.1 115.101 105.6 115.101 105.2C115.001 102.8 114.901 100.5 114.801 98.0999C114.701 96.4999 114.701 94.8999 114.901 93.2999C115.001 92.4999 115.201 91.5999 115.001 90.7999C115.001 90.6999 115.001 90.4999 115.101 90.3999C115.501 89.5999 115.501 89.5999 115.001 88.9999C113.601 87.3999 112.201 85.7999 110.601 84.3999C110.101 83.9999 109.701 83.3999 109.501 82.8999C109.101 82.0999 108.901 81.1999 108.701 80.3999C108.101 78.7999 108.201 77.2999 108.401 75.6999C108.801 73.0999 109.601 70.5999 110.301 67.9999C110.401 67.7999 110.501 67.4999 110.601 67.1999C111.301 68.5999 112.001 69.8999 112.601 71.1999C114.001 74.0999 115.701 76.7999 118.401 78.7999C118.601 78.9999 118.901 79.1999 118.901 79.3999C119.101 80.4999 119.801 80.9999 120.601 81.5999C121.401 82.1999 122.201 82.6999 122.901 83.2999C124.401 84.5999 126.301 85.1999 128.101 85.8999C129.201 86.2999 130.201 85.8999 131.001 85.2999C132.401 84.5999 132.501 83.1999 131.701 82.1999ZM25.6009 49.6999C24.8009 48.8999 24.2009 47.9999 23.7009 47.0999C23.6009 46.9999 23.7009 46.6999 23.7009 46.4999C23.9009 46.4999 24.2009 46.4999 24.3009 46.5999C25.0009 47.3999 25.7009 48.1999 26.5009 49.0999C26.2009 49.3999 25.9009 49.4999 25.6009 49.6999ZM35.3009 42.4999C33.8009 44.0999 32.1009 45.4999 30.4009 46.7999C29.5009 47.4999 28.5009 48.0999 27.5009 48.6999C27.1009 48.8999 26.8009 48.8999 26.5009 48.5999C25.9009 47.7999 25.2009 46.9999 24.4009 46.0999C29.0009 43.0999 32.8009 39.4999 36.0009 35.1999C36.9009 36.1999 37.6009 37.1999 38.5009 38.1999C37.5009 39.6999 36.6009 41.1999 35.3009 42.4999ZM39.7009 35.5999C39.5009 36.0999 39.3009 36.6999 39.0009 37.2999C38.1009 36.2999 37.4009 35.2999 37.0009 34.1999C36.9009 33.9999 37.2009 33.5999 37.3009 33.0999C37.5009 33.3999 37.6009 33.5999 37.8009 33.8999C37.9009 33.9999 38.0009 34.0999 38.1009 34.1999C38.3009 34.1999 38.4009 34.0999 38.6009 34.0999C38.9009 34.2999 39.2009 34.4999 39.4009 34.6999C39.7009 34.9999 39.8009 35.2999 39.7009 35.5999Z" fill="black"/>
<path d="M114.001 108C112.401 108.8 110.801 108.7 109.101 108.2C108.201 107.9 108.001 107.2 107.901 106.4C107.801 105.7 108.201 105.1 108.801 104.8C109.301 104.5 109.801 104.4 110.401 104.2C110.701 104.1 110.901 104.1 111.201 104.1C111.101 103.6 111.001 103.2 110.901 102.8C110.701 101.2 110.501 99.6003 110.201 98.1003C110.001 97.2003 109.801 96.3003 109.501 95.4003C109.001 94.0003 108.301 92.7003 107.101 91.8003C106.401 91.3003 105.801 90.6003 105.201 90.0003C103.401 87.8003 101.701 85.7003 99.901 83.5003C99.601 83.1003 99.3009 82.7003 99.0009 82.2003C99.8009 81.6003 100.601 81.1003 101.301 80.6003C101.301 80.5003 101.201 80.5003 101.201 80.4003C100.401 80.8003 99.5009 81.3003 98.7009 81.7003C98.1009 81.1003 98.1009 81.1003 98.5009 80.6003C98.6009 80.5003 98.7009 80.4003 98.7009 80.3003L98.6009 80.2003C98.3009 80.4003 98.1009 80.5003 97.7009 80.7003C96.9009 79.5003 96.0009 78.5003 95.401 77.3003C94.601 75.6003 93.401 74.1003 92.0009 72.8003C91.3009 72.1003 90.5009 71.7003 89.5009 71.4003C88.1009 71.1003 86.801 71.0003 85.401 71.3003C82.901 71.8003 80.5009 72.3003 78.1009 73.2003C75.0009 74.4003 71.901 75.4003 68.801 76.5003C68.401 76.6003 67.9009 76.7003 67.5009 76.6003C67.201 76.5003 66.9009 76.5003 66.6009 76.6003C66.3009 76.8003 65.9009 76.9003 65.6009 76.9003C62.2009 77.7003 58.701 78.4003 55.201 78.7003C54.501 78.8003 53.7009 78.8003 52.8009 78.4003C54.0009 77.5003 55.101 76.7003 56.201 75.9003C56.201 75.8003 56.1009 75.8003 56.1009 75.7003C54.8009 76.6003 53.5009 77.4003 52.1009 78.3003C51.8009 77.7003 52.001 77.3003 52.401 76.9003C52.901 76.4003 53.3009 75.9003 53.8009 75.5003C53.2009 75.9003 52.7009 76.3003 52.1009 76.7003C51.6009 75.6003 52.0009 74.7003 52.1009 73.7003C52.2009 73.0003 52.101 72.4003 51.701 71.9003C51.601 71.8003 51.301 71.7003 51.0009 71.6003C51.0009 72.6003 51.0009 73.4003 51.0009 74.1003C50.9009 77.7003 50.7009 81.2003 50.5009 84.8003C50.5009 85.2003 50.401 85.5003 50.401 85.9003C50.301 88.4003 49.5009 90.9003 49.8009 93.5003C49.9009 94.1003 49.6009 94.8003 49.6009 95.4003C49.4009 97.5003 49.3009 99.5003 49.1009 101.6C48.8009 104.4 48.501 107.2 48.201 110.1C48.201 110.5 48.0009 110.7 47.6009 111C46.5009 111.8 45.201 111.8 43.901 111.9C43.201 111.9 42.401 111.8 41.701 111.5C40.301 111 39.4009 109.6 40.8009 108.2C41.2009 107.8 41.501 107.5 41.901 107.1C42.401 106.5 42.9009 106.2 43.6009 106.7C44.0009 106.3 44.201 106 43.901 105.6C43.601 105.1 43.6009 104.6 43.6009 104.1C43.5009 103 43.501 101.9 43.401 100.9C43.301 98.8003 43.2009 96.7003 43.1009 94.6003C43.1009 93.9003 43.2009 93.3003 43.8009 92.8003C43.8009 92.8003 43.8009 92.7003 43.8009 92.6003C43.6009 92.7003 43.4009 92.7003 43.1009 92.8003C43.1009 92.3003 43.0009 92.0003 43.0009 91.8003C42.7009 88.9003 42.501 86.1003 42.201 83.2003C42.101 82.6003 42.001 81.9003 41.901 81.3003C41.801 80.9003 41.5009 80.8003 41.1009 81.1003C41.2009 81.6003 41.401 82.1003 41.401 82.6003C41.701 86.0003 42.101 89.4003 42.401 92.8003C42.601 95.6003 42.501 98.5003 42.901 101.3C43.101 102.4 43.1009 103.5 43.1009 104.7C43.1009 105.1 43.0009 105.3 42.6009 105.6C41.8009 106.2 41.1009 106.8 40.3009 107.5C39.7009 108 39.4009 108.7 39.3009 109.5C39.2009 109.9 39.3009 110.4 39.5009 110.7C40.0009 111.5 40.8009 112.1 41.8009 112.3C43.8009 112.7 45.8009 112.6 47.8009 111.8C48.8009 111.4 49.401 110.7 49.401 109.7C49.601 107.4 49.801 105.2 49.901 102.9C50.001 101.1 50.2009 99.4003 50.3009 97.6003C50.4009 95.5003 51.001 93.4003 50.901 91.2003C50.801 89.7003 51.201 88.2003 51.401 86.7003C51.701 84.8003 52.0009 82.8003 52.0009 80.9003C52.0009 80.5003 52.1009 80.1003 52.1009 79.7003C52.4009 79.7003 52.6009 79.6003 52.8009 79.7003C55.0009 80.1003 57.3009 79.8003 59.5009 79.4003C61.5009 79.1003 63.401 78.6003 65.401 78.3003C65.701 78.2003 66.101 78.1003 66.301 78.2003C67.201 78.6003 67.9009 78.1003 68.7009 77.9003C69.8009 77.5003 71.0009 77.1003 72.1009 76.7003C73.0009 76.4003 73.901 76.1003 74.801 75.8003C76.301 75.3003 77.7009 74.7003 79.2009 74.2003C80.6009 73.7003 81.901 73.3003 83.301 73.0003C84.801 72.6003 86.301 72.4003 87.801 72.4003C89.101 72.4003 90.301 72.7003 91.301 73.5003C92.401 74.5003 93.4009 75.7003 94.1009 77.0003C94.9009 78.6003 95.701 80.3003 96.801 81.8003C98.101 83.5003 99.2009 85.3003 100.601 86.9003C102.701 89.3003 104.901 91.5003 107.201 93.7003C108.201 94.7003 108.901 95.8003 109.101 97.2003C109.401 99.2003 109.701 101.2 110.001 103.2C110.001 103.4 109.901 103.6 109.901 103.6C109.301 103.8 108.701 103.9 108.201 104.2C107.401 104.7 106.801 105.4 106.901 106.4C107.001 107.3 107.201 108.4 108.301 108.8C110.501 109.7 112.801 109.8 115.001 108.6C115.401 108.4 115.701 108.1 115.501 107.5C115.001 107.4 114.501 107.8 114.001 108Z" fill="black"/>
<path d="M20.6004 40.8996C20.4004 40.8996 20.3004 40.8996 20.2004 40.8996C18.9004 41.6996 17.5004 41.9996 15.9004 41.8996C13.9004 41.8996 11.9004 41.7996 9.90039 41.6996C9.30039 41.6996 8.80039 41.4996 8.30039 41.2996C7.80039 41.0996 7.40039 40.7996 7.00039 40.3996C6.00039 39.2996 5.60039 37.6996 4.90039 36.5996C5.50039 35.4996 6.00039 34.5996 6.60039 33.6996C7.10039 32.8996 7.40039 32.0996 7.10039 31.1996C7.10039 31.1996 7.20039 31.0996 7.20039 30.9996C8.30039 30.6996 9.50039 30.4996 10.7004 30.1996C11.5004 29.9996 12.4004 29.6996 13.2004 29.3996C14.3004 28.9996 15.3004 27.3996 15.2004 26.1996C15.2004 26.1996 15.1004 26.0996 15.0004 26.0996C14.9004 26.1996 14.7004 26.1996 14.6004 26.3996C14.4004 26.6996 14.2004 27.0996 14.1004 27.4996C13.8004 28.3996 13.2004 28.8996 12.3004 29.0996C11.4004 29.2996 10.5004 29.5996 9.60039 29.7996C8.10039 30.1996 6.60039 30.4996 5.00039 30.7996C3.60039 31.0996 3.00039 31.7996 2.90039 33.1996C2.90039 33.6996 2.90039 34.2996 3.00039 34.6996C3.60039 36.9996 4.60039 38.9996 6.00039 40.8996C6.50039 41.5996 7.10039 41.9996 8.00039 42.1996C9.00039 42.3996 10.0004 42.3996 11.0004 42.5996C13.2004 42.8996 15.5004 42.8996 17.7004 42.6996C18.6004 42.5996 19.4004 42.3996 20.2004 41.9996C20.7004 41.6996 20.8004 41.3996 20.6004 40.8996Z" fill="black"/>
<path d="M20.5 27.3994C20.6 27.8994 20.5 28.2994 20.7 28.6994C21 29.2994 21 29.7994 21 30.3994C20.9 31.0994 20.9 31.7994 20.8 32.4994C20.7 33.0994 20.8 33.6994 21.1 34.1994C21.7 35.0994 22.3 35.8994 23 36.6994C23.4 37.0994 23.9 37.4994 24.6 37.2994C25.2 37.0994 25.8 36.8994 26.2 36.5994C28 35.2994 29.6 33.8994 31.1 32.1994C31.4 31.8994 31.7 31.3994 31.8 30.9994C32.1 30.0994 31.6 29.0994 30.6 28.4994C30.7 28.9994 30.8 29.2994 30.9 29.5994C31.3 30.4994 31 31.2994 30.4 31.8994C29.6 32.6994 28.8 33.4994 28 34.1994C27.4 34.6994 26.7 35.1994 26 35.6994C25.2 36.2994 23.9 36.2994 23.4 35.5994C22.9 34.9994 22.6 34.2994 22.7 33.3994C23.2 33.0994 23.6 32.8994 24.2 32.4994C23.2 32.4994 22.6 33.4994 21.9 32.5994C22 32.1994 22.2 31.8994 22.2 31.5994C22.2 31.2994 22.1 30.8994 22.1 30.5994C22.1 29.8994 22.2 29.1994 22.1 28.5994C22 28.0994 21.5 27.5994 20.5 27.3994Z" fill="black"/>
<path d="M93.6011 64.4998C93.6011 64.1998 93.5011 63.8998 93.1011 63.7998C91.6011 68.7998 95.0012 75.0998 98.3012 76.8998C98.0012 76.5998 97.8011 76.1998 97.5011 75.8998C96.9011 75.0998 96.1011 74.2998 95.6011 73.4998C94.2011 71.1998 93.2012 68.7998 93.4012 65.9998C93.4012 65.4998 93.5011 64.9998 93.6011 64.4998Z" fill="black"/>
<path d="M14.9997 29.8995C14.9997 30.4995 15.3997 31.0995 15.8997 31.1995C16.2997 31.2995 16.7997 30.9995 17.1997 30.2995C17.2997 30.1995 17.2997 30.0995 17.2997 29.9995C17.4997 29.4995 17.5997 28.9995 17.1997 28.4995C16.7997 28.0995 16.2997 28.4995 15.8997 28.5995C15.2997 28.7995 14.8997 29.1995 14.9997 29.8995Z" fill="black"/>
<path d="M51.1003 68.0996C50.1003 69.3996 52.2003 70.5996 54.0003 71.7996C54.6003 71.4996 54.5003 71.4996 54.2003 71.1996C53.7003 70.7996 53.1003 70.2996 52.8003 69.8996C52.5003 69.3996 52.5003 68.8996 52.4003 68.4996C52.4003 68.2996 52.7003 68.1996 51.1003 68.0996Z" fill="black"/>
<path d="M88.1996 62.5C87.2996 64.4 86.9996 66.6 85.5996 68.3C85.5996 68.3 85.5996 68.4 85.5996 68.5L85.6996 68.6C86.8996 68.1 88.1996 65.2 88.1996 62.5Z" fill="black"/>
<path d="M25.2 24.6999C24.1 24.5999 22.6 24.9999 22 25.5999C23.3 25.7999 24.2 25.0999 25.2 24.6999Z" fill="black"/>
<path d="M16.8996 27.2C17.3996 27.3 17.9996 27.2 18.4996 27.2C18.4996 27.1 18.4996 27 18.4996 26.9C17.9996 26.8 17.4996 26.6 17.0996 26.5C16.9996 26.5 16.7996 26.6 16.5996 26.7C16.5996 26.9 16.6996 27.2 16.8996 27.2Z" fill="black"/>
<path d="M47.2 91.9004C46 92.4004 45 93.0004 44.5 94.3004C45.4 93.5004 46.3 92.7004 47.2 91.9004Z" fill="black"/>
<path d="M25.5008 42.0996C24.8008 42.7996 23.8008 43.1996 23.3008 44.1996C24.1008 43.6996 24.9008 42.9996 25.5008 42.0996Z" fill="black"/>
<path d="M54 75.3992C54.7 74.9992 55.4 74.5992 56.1 74.1992C55.3 74.3992 54.5 74.5992 54 75.3992Z" fill="black"/>
<path d="M54.0008 75.4004C53.9008 75.5004 53.9008 75.5004 53.8008 75.5004C53.9008 75.5004 53.9008 75.5004 54.0008 75.4004Z" fill="black"/>
<path d="M101.701 47.8002C101.801 47.8002 101.801 47.8002 101.701 47.8002C101.801 47.8002 101.801 47.7002 101.801 47.7002C101.801 47.8002 101.801 47.8002 101.701 47.8002C101.801 47.8002 101.701 47.8002 101.701 47.8002Z" fill="black"/>
<path d="M100.1 49.2998C100.6 48.7998 101.2 48.2998 101.7 47.7998C100.5 48.2998 100.4 48.4998 100.1 49.2998Z" fill="black"/>
<path d="M21.5996 44.1C22.0996 43.7 22.5996 43.3 23.0996 43C21.7996 43.4 21.7996 43.4 21.5996 44.1Z" fill="black"/>
<path d="M23.2008 44.2002C22.5008 44.4002 22.1008 44.9002 21.8008 45.6002C22.4008 45.3002 22.9008 44.8002 23.2008 44.2002Z" fill="black"/>
<path d="M10.8008 34.4C10.8008 34.4 11.0008 34.7 11.1008 34.7C11.3008 34.7 11.4008 34.5 11.5008 34.4C11.5008 34.4 11.4008 34.2 11.3008 34C11.0008 34.2 10.9008 34.3 10.8008 34.4Z" fill="black"/>
<path d="M8.99961 34.1995C8.79961 34.2995 8.69961 34.4994 8.59961 34.5994C8.69961 34.6994 8.79961 34.7994 8.89961 34.7994C9.09961 34.7994 9.19961 34.5994 9.39961 34.4994C9.19961 34.2994 8.99961 34.0995 8.99961 34.1995Z" fill="black"/>
<path d="M46.6996 90.1992C46.2996 90.3992 45.7996 90.4992 45.5996 90.9992C46.0996 90.8992 46.3996 90.6992 46.6996 90.1992Z" fill="black"/>
<path d="M45.6004 91C45.5004 91 45.5004 91 45.6004 91C45.5004 91.1 45.6004 91.1 45.6004 91Z" fill="black"/>
<path d="M44.7012 91.9C45.0012 91.6 45.2012 91.3 45.5012 91C45.1012 91.1 44.8012 91.4 44.7012 91.9Z" fill="black"/>
<path d="M9.2 36.8994C9.3 36.8994 9.4 36.6994 9.6 36.6994C9.5 36.5994 9.5 36.5994 9.3 36.3994C9.2 36.4994 9.1 36.5994 9 36.6994C9.1 36.7994 9.2 36.8994 9.2 36.8994Z" fill="black"/>
<path d="M114.901 67.0996C114.201 67.2996 114.201 67.2996 113.801 67.6996C114.201 67.6996 114.501 67.4996 114.901 67.0996Z" fill="black"/>
<path d="M32.7 68.0996H32.8C32.8 67.8996 32.7 67.7996 32.7 67.5996C32.6 67.5996 32.5 67.5996 32.5 67.6996C32.5 67.6996 32.6 67.8996 32.7 68.0996Z" fill="black"/>
<path d="M16.2004 29.4C16.2004 29.6 16.0004 29.8 15.8004 29.8C15.6004 29.8 15.4004 29.6 15.4004 29.4C15.4004 29.2 15.6004 29 15.8004 29C16.0004 29 16.2004 29.2 16.2004 29.4Z" fill="white"/>
<path d="M4 33C4.6 32.5 5.4 32.2 6.2 32C6.3 32 6.4 31.9 6.4 31.7C6.4 31.6 6.3 31.5 6.1 31.5C5.2 31.7 4.4 32 3.7 32.6C3.6 32.7 3.6 32.8 3.7 32.9C3.7 33 3.9 33.1 4 33Z" fill="white"/>
</svg>
