<svg width="122" height="87" viewBox="0 0 122 87" fill="none" xmlns="http://www.w3.org/2000/svg">
<g clip-path="url(#clip0_9502_6384)">
<path d="M119.155 29.5568C118.548 30.617 117.941 31.4845 117.27 32.2876C114.265 35.7895 109.95 37.3637 106.466 38.0384C106.466 39.8375 106.466 41.7651 106.434 43.6927H106.53C106.498 43.7249 106.466 43.757 106.434 43.7891C106.434 46.4878 106.434 49.2507 106.402 51.9815C106.338 67.2097 106.307 81.5705 106.275 82.4701V84.1407C106.243 84.6547 106.243 85.3615 105.444 85.49C105.348 85.49 105.188 85.5221 104.932 85.5221C104.772 85.5221 104.613 85.5543 104.549 85.5543C104.357 85.5543 102.183 85.6828 101.161 85.7149C100.681 85.7149 100.01 85.7792 99.3707 85.8113C98.6675 85.8434 97.9644 85.9077 97.421 85.9077C95.1836 85.9398 81.344 86.1968 79.1386 86.2289C78.2436 86.2289 70.285 86.2611 60.2169 86.2932C41.9025 86.3574 16.7802 86.4217 15.1182 86.4538C13.2324 86.4859 11.6343 86.5823 9.81242 86.6787L9.42887 86.7108C8.59785 86.7751 7.57506 86.7751 6.5203 86.8072C5.20985 86.8393 3.83547 86.8393 2.81268 86.9357H2.68483C2.30128 86.9678 1.98166 87 1.694 87C1.1826 87 0.862981 86.9036 0.767095 86.5181C0.735132 86.3896 0.671208 86.1968 0.607283 85.9719C0.319623 84.9438 0.0639245 83.9479 0.127849 83.3375C0.127849 82.4379 0.0958868 81.5705 0.0639245 80.7352C0.0319623 79.7393 0 78.8076 0 77.8116C0 77.7153 0 74.7274 0.0319623 69.9405C0.127849 54.5517 0.255698 22.5531 0.255698 19.5332L0.223736 18.0232L0.607283 17.9269C0.831019 17.8626 1.31045 17.8626 1.31045 17.8626C1.82185 17.8305 2.30128 17.8626 2.78072 17.8626H5.27378C5.88106 17.8305 6.48834 17.8305 7.12759 17.8305C8.05449 17.7983 9.04532 17.7983 9.9083 17.7662C10.8352 17.7341 24.7068 17.7662 39.4095 17.7983C53.9523 17.8305 69.0065 17.8626 69.9335 17.8305C70.9882 17.7662 73.0018 17.8305 74.9835 17.8947C76.7414 17.959 78.4035 18.0232 79.2984 17.9911C80.0016 17.959 81.4718 17.9269 83.3256 17.8947C83.4855 15.0354 84.2206 12.2404 85.4991 9.73446C86.5858 7.61408 87.9602 5.91134 89.5263 4.62626C90.3573 3.9516 91.3482 3.34118 92.6267 2.66651C94.6403 1.63845 96.5261 0.899528 98.3799 0.481877C103.526 -0.706824 109.183 0.353368 113.562 3.30906C118.196 6.42538 121.297 11.3408 121.872 16.4169C122.352 20.9468 121.425 25.6052 119.155 29.5568Z" fill="white"/>
<path d="M105.604 31.8047H0.991211V44.4627H105.604V31.8047Z" fill="#BBBBBA"/>
<path d="M105.571 84.078C95.4069 85.2346 15.0857 83.4676 4.63404 84.7206C3.41947 84.8812 1.24604 85.2346 1.24604 85.2346C0.990339 84.6884 1.34192 83.5961 1.30996 82.9857C1.278 81.4115 0.862489 69.7172 1.05426 67.3398C1.5337 67.9181 1.30996 77.0422 8.62932 80.7368C15.5332 84.2065 80.8641 82.8251 85.5625 83.1142C90.1012 83.4034 105.507 83.4034 105.571 84.078Z" fill="#BBBBBA"/>
<path d="M106.498 20.3374C106.498 20.1125 106.498 19.9519 106.53 19.7912C106.562 19.0202 106.498 18.731 106.466 18.6025C106.466 18.5704 106.434 18.5061 106.434 18.474C106.211 17.8315 105.507 17.8636 105.092 17.8636H104.804C104.293 17.8636 103.75 17.8315 103.238 17.8315C101.896 17.7993 100.489 17.7672 99.083 17.7672H99.0191C98.4118 17.7672 97.1973 17.7672 95.695 17.7993C92.7225 17.8315 88.6633 17.8315 85.2434 17.8957C84.8918 17.8957 84.5722 17.8957 84.2526 17.8957C83.9329 17.8957 83.6133 17.8957 83.3256 17.8957C81.4718 17.9278 80.0016 17.96 79.2984 17.9921C78.4035 18.0242 76.7414 17.96 74.9835 17.8957C73.0018 17.8315 70.9882 17.7672 69.9335 17.8315C69.0065 17.8636 53.9523 17.8315 39.4095 17.7993C24.7068 17.7672 10.8352 17.7351 9.9083 17.7672C9.04532 17.7993 8.05449 17.7993 7.12759 17.8315C6.48834 17.8315 5.88106 17.8315 5.27378 17.8636H2.78072C2.30128 17.8636 1.82185 17.8315 1.31045 17.8636C1.31045 17.8636 0.831019 17.8636 0.607283 17.9278L0.223736 18.0242L0.255698 19.5342C0.255698 22.5541 0.127849 54.5527 0.0319623 69.9415C0 74.7284 0 77.7163 0 77.8126C0 78.8086 0.0319623 79.7403 0.0639245 80.7362C0.0958868 81.5715 0.127849 82.4389 0.127849 83.3385C0.0639245 83.9489 0.319623 84.9448 0.607283 85.9729C0.671208 86.1978 0.735132 86.3905 0.767095 86.5191C0.862981 86.9046 1.1826 87.001 1.694 87.001C1.98166 87.001 2.30128 86.9688 2.68483 86.9367H2.84464C3.86743 86.8403 5.24181 86.8403 6.55227 86.8082C7.60702 86.7761 8.62981 86.7761 9.46083 86.7118L9.84438 86.6797C11.6662 86.5833 13.2643 86.4869 15.1501 86.4548C16.8122 86.4227 41.9345 86.3584 60.2489 86.2942C70.317 86.262 78.2756 86.2299 79.1705 86.2299C81.3759 86.1978 95.2156 85.9408 97.453 85.9086C97.9963 85.9086 98.6995 85.8444 99.4027 85.8123C100.042 85.7801 100.713 85.7159 101.193 85.7159C102.215 85.6838 104.389 85.5552 104.581 85.5552C104.644 85.5552 104.804 85.5231 104.964 85.5231C105.22 85.5231 105.38 85.491 105.476 85.491C106.275 85.3625 106.275 84.6557 106.307 84.1417V82.4711C106.338 81.5715 106.37 67.2107 106.434 51.9825C106.434 49.2196 106.434 46.4567 106.466 43.7901V43.6937C106.466 41.7661 106.466 39.8385 106.498 38.0394C106.498 37.7181 106.498 37.3968 106.498 37.0756C106.498 36.7543 106.498 36.4009 106.498 36.0796C106.498 34.3448 106.498 32.6742 106.53 31.1642C106.53 28.9153 106.562 26.9555 106.562 25.3813C106.562 23.0682 106.594 21.6225 106.594 21.3654V20.8193C106.498 20.6265 106.498 20.4659 106.498 20.3374ZM104.836 32.6099C104.836 33.7986 104.836 35.0837 104.836 36.4009V37.3968C104.836 37.7181 104.836 38.0072 104.836 38.3285C104.836 40.0634 104.836 41.8625 104.836 43.7259V44.4969C104.836 44.7218 104.836 44.9467 104.836 45.1716C104.868 61.203 104.868 79.7403 104.868 80.4149C104.836 81.4751 104.804 82.5353 104.772 83.5955C104.772 83.6276 104.772 83.6276 104.772 83.6598C104.293 83.6598 103.877 83.6919 103.43 83.724C103.27 83.724 103.142 83.7561 102.982 83.7883C102.439 83.8525 101.896 83.9168 101.193 83.9489H101.097C101.001 83.981 100.873 83.981 100.745 83.981H100.585C100.266 84.0453 99.8821 84.0453 99.4986 84.0453C99.0191 84.0453 98.5397 84.0774 98.0602 84.1095C96.6859 84.1738 95.2795 84.1738 93.9052 84.1738H92.0513C90.4532 84.2059 83.901 84.1417 78.1158 84.0774C73.8009 84.0453 69.7097 84.0132 68.4951 84.0132H61.6872C46.601 84.0132 11.2507 84.0453 10.196 84.0774C9.74849 84.0774 9.26906 84.1095 8.82159 84.1417C7.89468 84.1738 6.90385 84.2059 5.97695 84.2059C4.73042 84.2059 3.70762 84.238 2.65287 84.3987C2.97249 84.1095 3.32408 83.7883 3.6437 83.4991C4.02725 83.1457 4.41079 82.7923 4.73042 82.5032L5.24181 81.8285L4.79434 81.1217L4.47472 81.3787C4.47472 81.3787 4.28294 81.4751 4.18706 81.5715C4.12313 81.6679 3.80351 81.8285 3.67566 81.9249C3.388 82.1819 3.16426 82.2783 2.84464 82.5674C2.81268 82.5996 2.42913 82.8887 2.36521 82.953C2.33325 82.9851 2.10951 83.1457 2.07755 83.1778C2.07755 83.0815 2.01362 81.957 2.01362 81.8928C2.14147 81.7643 2.49306 81.4109 2.65287 81.2181C3.16427 80.5756 3.48389 80.2543 3.99528 79.9009L4.47472 79.3547C4.50668 79.0977 4.44276 79.1941 4.05921 78.8086L3.73959 78.5837L3.19623 78.9692C2.78072 79.2584 2.46109 79.6118 2.10951 79.933C2.04559 79.9973 2.01362 80.0615 1.9497 80.0937C1.88577 78.5516 1.88577 75.4674 1.88577 71.4836C1.88577 64.255 1.98166 54.0065 2.07755 44.4969C2.14147 40.2883 2.17343 36.2081 2.23736 32.6099C2.23736 32.3529 2.23736 32.0959 2.23736 31.8389C2.23736 31.5497 2.23736 31.2606 2.23736 31.0036C2.30128 25.799 2.36521 21.751 2.39717 20.0161H2.55698C3.26015 20.0804 3.8994 20.1446 4.31491 20.1125C5.56144 20.241 7.22347 20.2731 8.75766 20.241C9.65261 20.2089 22.4695 20.1446 36.0215 20.0804C51.6191 20.0161 67.76 19.9519 68.7828 19.8876C69.8695 19.8233 73.4813 19.8555 76.1022 19.8876H78.7231C79.3623 19.9197 81.1842 19.9197 83.2937 19.8876C83.6133 19.8876 83.901 19.8876 84.2206 19.8876C84.5402 19.8876 84.8918 19.8876 85.2114 19.8876C88.6314 19.8233 92.1792 19.7591 92.8184 19.727C93.4577 19.6948 94.001 19.6627 94.4805 19.6627C95.0878 19.6306 95.6631 19.5985 96.4302 19.5663C96.9735 19.5663 98.0922 19.5021 98.6675 19.5021C99.4986 19.4699 100.074 19.4699 100.713 19.4699H101.8C102.823 19.4699 103.558 19.4699 104.613 19.5021H104.772C104.804 19.8233 104.804 20.1125 104.804 20.4338V32.6099H104.836Z" fill="black"/>
<path d="M1.11858 30.9696H1.05465C0.735029 30.9696 0.479331 30.9696 0.223633 30.9375C0.639142 31.5479 1.11858 32.0941 1.75782 32.576C1.82175 32.576 1.85371 32.576 1.91763 32.576C2.36511 32.576 7.38318 32.576 14.9582 32.576C40.592 32.576 100.585 32.5117 102.183 32.5439C103.206 32.576 104.197 32.576 105.22 32.6081C105.188 32.3832 105.284 32.1583 105.571 31.9334C105.891 31.6764 106.179 31.4194 106.498 31.1624C106.179 31.1624 105.859 31.1624 105.571 31.1624C104.069 31.1303 79.9056 31.0981 54.3038 31.0339C29.7568 31.0339 4.34677 30.9696 2.8765 30.9696C2.58884 30.9696 2.23726 30.9696 1.9496 30.9696C1.62997 30.9696 1.37427 31.0018 1.11858 30.9696Z" fill="black"/>
<path d="M106.562 43.6945C106.53 43.7266 106.498 43.7588 106.466 43.7909C106.179 44.0158 105.891 44.2407 105.635 44.4656C105.348 44.6905 105.252 44.9153 105.284 45.1402C105.124 45.1402 104.996 45.1402 104.836 45.1402C103.973 45.1081 103.142 45.1081 102.311 45.076C100.745 45.0439 42.1263 45.1081 17.0998 45.1081H4.21902C3.96333 44.9153 3.73959 44.6905 3.51585 44.4656C3.19623 44.1443 2.94053 43.823 2.7168 43.4696C2.94053 43.5018 3.22819 43.5018 3.51585 43.5018H3.57978C3.80351 43.5018 4.09117 43.5018 4.37883 43.4375H5.30574C6.74404 43.4696 31.5787 43.5339 55.5824 43.566C78.5313 43.6303 100.298 43.6624 104.836 43.6945C105.22 43.6945 105.475 43.6945 105.603 43.6945H106.562Z" fill="black"/>
<path d="M47.6872 65.6342C45.7376 65.6342 43.7879 65.5699 41.8701 65.4735L41.966 63.8672C44.8106 64.0278 47.6553 64.0921 50.4999 63.9957L50.5319 65.602C49.605 65.6342 48.6461 65.6342 47.6872 65.6342Z" fill="black"/>
<path d="M32.3455 65.6342C30.3958 65.6342 28.4461 65.5699 26.5283 65.4735L26.6242 63.8672C29.4689 64.0278 32.3135 64.0921 35.1581 63.9957L35.1901 65.602C34.2632 65.6342 33.3043 65.6342 32.3455 65.6342Z" fill="black"/>
<path d="M55.998 65.4423L55.8701 63.836C58.491 63.6432 61.1439 63.6432 63.7968 63.836L63.6689 65.4423C61.1119 65.2496 58.523 65.2496 55.998 65.4423Z" fill="black"/>
<path d="M77.86 65.6672C76.9011 65.5387 75.8783 65.5387 74.8875 65.5387L69.5498 65.6029V63.9966L74.8875 63.9323C75.9423 63.9323 77.029 63.9002 78.1157 64.0608L77.86 65.6672Z" fill="black"/>
<path d="M96.7177 62.7113C96.6858 61.9724 96.5579 61.2978 96.4301 60.6231L96.3342 60.1091H95.7908C95.0877 60.1091 94.1927 60.0127 93.5215 60.0127C92.8183 60.0448 92.1471 60.0448 91.444 60.0448C90.1015 60.0769 88.7272 60.0769 87.3847 60.0127C86.9373 59.9806 86.5218 59.9484 86.0743 59.9163C84.9556 59.8199 83.9967 59.852 82.8461 59.9163L82.3667 59.9484L82.2708 60.4303C82.2388 60.591 82.2388 60.8159 82.2388 60.9765V61.105C82.2069 63.5145 82.2069 65.9241 82.2388 68.3336V68.944L82.8461 68.9761C84.4442 69.0404 86.1063 69.0725 87.7044 69.0082C88.6313 68.9761 89.6221 68.9119 90.549 68.9119C92.3389 68.8797 94.1288 68.9119 95.8547 69.0082L96.494 69.0404V68.3978C96.5259 67.691 96.5579 66.9842 96.5899 66.2774C96.6218 65.5707 96.6538 64.8639 96.6858 64.1571C96.7177 63.7073 96.7497 63.1933 96.7177 62.7113ZM95.4392 64.1249C95.4073 64.8317 95.3753 65.5385 95.3433 66.2453C95.3114 66.7272 95.3114 67.2091 95.2794 67.691C93.7452 67.5947 92.1471 67.6268 90.549 67.6268C89.5901 67.6268 88.6313 67.691 87.6724 67.7232C86.298 67.7553 84.8917 67.7232 83.5173 67.691C83.4853 65.5064 83.4854 63.3218 83.4854 61.2656C84.3483 61.2335 85.0195 61.2014 85.9464 61.2656C86.3939 61.2978 86.8414 61.3299 87.2889 61.362C88.6952 61.4263 90.1015 61.4263 91.444 61.3941C92.1471 61.362 92.8503 61.362 93.5215 61.362C94.0329 61.3299 94.768 61.4584 95.2794 61.4584C95.3753 61.9082 95.4392 62.358 95.4712 62.8077C95.4712 63.2254 95.4712 63.6752 95.4392 64.1249Z" fill="black"/>
<path d="M85.1151 24.7379C85.179 25.8624 85.7543 26.8904 86.3296 27.8864C87.7679 30.3923 89.3021 33.0267 91.6993 34.6652C93.3294 35.7896 95.2791 36.3679 97.1968 36.8498C98.4433 37.1711 99.6899 37.4281 100.968 37.5245C102.311 37.6209 103.685 37.5245 105.028 37.3317C109.374 36.7213 113.721 35.0186 116.566 31.6774C117.237 30.8742 117.812 30.0068 118.324 29.1072C120.465 25.3162 121.36 20.8827 120.881 16.5455C120.306 11.5337 117.173 6.93955 112.986 4.11237C108.799 1.28519 103.461 0.289256 98.5712 1.4137C96.6534 1.86348 94.7996 2.6024 93.0417 3.53409C92.0189 4.08025 91.0281 4.65853 90.1012 5.39745C88.5031 6.68254 87.2565 8.35314 86.3296 10.1844C82.8457 16.9311 83.7407 25.7339 88.567 31.6131L85.1151 24.7379Z" fill="white"/>
<path d="M121.872 16.4169C121.297 11.3408 118.197 6.42538 113.562 3.30906C109.183 0.353368 103.526 -0.706824 98.3801 0.481877C96.5263 0.899528 94.6405 1.63845 92.6269 2.66651C91.3484 3.34118 90.3576 3.9516 89.5266 4.62626C87.9604 5.91134 86.5861 7.61408 85.4993 9.73446C84.2208 12.2404 83.4857 15.0354 83.3259 17.8947C83.2939 18.5373 83.2939 19.1798 83.2939 19.8545C83.3579 21.6536 83.6455 23.4848 84.1889 25.2518C84.3487 26.1835 84.7322 27.0188 85.0199 27.565C85.5633 28.85 86.2345 30.0066 87.0016 31.0989C87.1614 31.3238 87.3531 31.5808 87.513 31.8057C87.6088 31.9342 87.7047 32.0627 87.8326 32.1913L88.0244 32.4483H88.0563C88.0883 32.4804 88.0883 32.5125 88.1203 32.5447C89.0472 33.7976 90.0699 34.7614 91.1247 35.4682C92.9146 36.689 94.9602 37.2995 96.9418 37.7814C98.0925 38.0705 99.4669 38.3596 100.873 38.4882C101.225 38.5203 101.608 38.5203 101.992 38.5203C102.887 38.5203 103.814 38.456 104.837 38.2954C104.932 38.2954 105.028 38.2633 105.124 38.2633C105.284 38.2311 105.444 38.2311 105.604 38.199C105.891 38.1669 106.179 38.1026 106.467 38.0384C109.95 37.3637 114.265 35.7895 117.27 32.2876C117.941 31.4845 118.548 30.617 119.156 29.5568C121.425 25.6052 122.352 20.9468 121.872 16.4169ZM106.467 36.0786C106.179 36.1429 105.891 36.2071 105.604 36.2393C105.348 36.2714 105.124 36.3035 104.9 36.3356C104.868 36.3356 104.868 36.3356 104.837 36.3356C103.366 36.5605 102.152 36.6248 101.033 36.5284C99.7545 36.432 98.508 36.1429 97.4213 35.8859C95.6314 35.4361 93.7776 34.8899 92.2434 33.8297C91.6681 33.4442 91.1567 32.9944 90.6772 32.5125C90.4535 32.2876 90.2298 32.0306 90.038 31.7736C89.8462 31.5487 89.6544 31.3238 89.4946 31.0668C88.5997 29.8781 87.8646 28.593 87.1614 27.3722C87.0335 27.1473 86.9057 26.9224 86.7778 26.6975C86.5221 26.0871 86.2984 25.4767 86.1066 24.8663C86.1066 24.802 86.1066 24.7378 86.0747 24.6735L86.0427 24.3523H85.9468C85.5313 22.8423 85.2756 21.3002 85.2436 19.7902C85.2117 19.1477 85.2436 18.5051 85.2756 17.8626C85.4354 15.3246 86.1066 12.8187 87.2573 10.6019C88.2161 8.73852 89.3987 7.22855 90.7731 6.10411C91.5082 5.49369 92.3712 4.94753 93.5538 4.33712C95.4076 3.37331 97.1336 2.69864 98.8596 2.31312C103.462 1.25293 108.576 2.21674 112.507 4.88328C116.695 7.71046 119.475 12.1119 119.987 16.6096C120.434 20.7219 119.571 24.9627 117.557 28.593C117.046 29.5247 116.471 30.3279 115.895 31.0026C113.307 34.0225 109.599 35.4361 106.467 36.0786Z" fill="#F15748"/>
<path d="M109.822 10.4438C107.617 12.4678 105.635 14.7167 103.59 16.8692C101.64 14.8452 98.9873 11.6646 95.7271 12.532C95.3436 12.6284 93.5537 13.0461 93.7455 13.6243C93.8094 13.8492 94.097 13.9135 94.4167 13.9456C94.3208 13.9456 94.5765 13.9777 95.1838 14.3954C95.7271 14.7809 96.2385 15.2307 96.7499 15.6483C97.549 16.323 98.348 17.0298 99.0832 17.7687C99.6585 18.3149 100.202 18.861 100.745 19.4072C100.809 19.4715 100.841 19.5036 100.905 19.5678C99.6265 20.8529 98.348 22.1059 97.0056 23.3588C95.9189 24.3869 94.5126 25.8005 93.2021 26.443C90.6132 27.6639 92.9784 29.3666 95.0559 28.3707C98.2521 26.8286 100.809 24.2905 103.174 21.8167C103.718 22.3629 104.261 22.9412 104.804 23.4873C105.38 24.0978 105.955 24.7403 106.498 25.3828C107.106 26.0896 107.681 26.8286 108.192 27.5996C108.864 28.5634 112.955 27.2141 112.539 26.6358C110.877 24.1941 108.704 21.9452 106.498 19.7927C106.275 19.5678 106.051 19.343 105.795 19.1181C105.987 18.8932 106.211 18.7004 106.403 18.4755C108.672 16.066 110.877 13.5922 113.306 11.3433C115.256 9.67272 111.037 9.31932 109.822 10.4438ZM94.4806 13.9456C94.96 13.9777 95.5993 13.8492 95.9189 13.785C95.1198 13.9777 94.6404 13.9777 94.4806 13.9456Z" fill="#F15748"/>
</g>
<defs>
<clipPath id="clip0_9502_6384">
<rect width="122" height="87" fill="white"/>
</clipPath>
</defs>
</svg>
