<svg width="101" height="145" viewBox="0 0 101 145" fill="none" xmlns="http://www.w3.org/2000/svg">
<path d="M100.205 127.051C99.9049 125.951 99.7049 124.951 99.3049 123.851C98.8049 122.551 98.4049 121.351 97.4049 120.451C97.5049 120.251 97.5049 120.151 97.6049 120.051C97.8049 119.751 97.9049 119.451 98.1049 119.151C99.0049 116.851 99.6049 114.551 97.8049 112.451C95.9049 110.151 93.3049 108.651 90.4049 107.851C89.9049 107.751 89.2049 107.951 88.6049 108.151C88.3049 108.251 88.2049 108.551 87.9049 109.051C88.9049 109.051 89.7049 108.751 90.4049 109.051C92.9049 109.751 95.1049 110.951 96.8049 112.951C97.1049 113.351 97.5049 113.951 97.5049 114.451C97.5049 116.351 97.1049 118.051 95.6049 119.651C95.5049 118.951 95.5049 118.551 95.3049 118.151C94.9049 116.651 94.4049 115.151 93.2049 114.051C92.8049 113.751 92.4049 113.651 92.1049 114.251C92.3049 114.551 92.4049 114.951 92.7049 115.151C93.7049 116.651 94.4049 118.151 94.4049 119.951C94.4049 120.451 94.3049 120.851 93.6049 121.051C91.0049 121.451 88.5049 121.851 86.0049 120.751C85.8049 120.651 85.6049 120.451 85.1049 120.151C85.6049 119.851 85.9049 119.851 86.3049 119.551C85.4049 119.151 84.7049 120.051 84.0049 119.151C84.3049 118.051 85.6049 117.851 86.3049 117.051C85.7049 117.351 85.2049 117.351 84.5049 117.651C84.4049 115.951 86.4049 115.451 86.6049 113.651C84.5049 114.651 83.5049 116.351 82.8049 118.451C81.6049 117.151 80.7049 116.151 81.3049 114.551C81.6049 113.551 82.1049 112.551 82.5049 111.651C82.5049 111.351 82.7049 111.051 82.8049 110.751C82.2049 110.251 81.8049 110.451 81.4049 110.751C81.0049 110.951 80.6049 111.151 80.3049 111.451C79.4049 109.351 79.6049 108.751 81.2049 107.651C82.1049 107.051 82.9049 106.551 83.7049 106.051C84.0049 105.851 84.1049 105.751 84.4049 105.551L84.2049 105.251C82.9049 105.851 81.7049 106.451 80.3049 107.151C80.3049 105.851 80.8049 105.351 81.4049 104.651C81.5049 104.651 81.4049 104.451 81.4049 104.351C81.2049 104.251 80.9049 104.251 80.5049 104.151C80.4049 103.651 80.4049 103.251 80.4049 102.751C80.6049 99.4508 80.7049 96.3508 80.9049 93.0508C80.9049 92.4508 80.8049 91.8508 80.8049 91.1508C80.8049 88.6508 80.6049 86.2508 81.3049 83.7508C81.9049 81.5508 82.6049 79.2508 83.0049 77.0508C83.3049 75.5508 83.7049 73.8508 82.6049 72.4508C80.5049 72.4508 78.4049 72.4508 76.3049 72.2508C72.0049 71.9508 67.8049 71.5508 63.5049 71.3508C60.0049 71.2508 56.0049 71.1508 52.1049 71.0508C48.7049 70.9508 45.5049 71.0508 42.1049 70.8508C37.8049 70.7508 33.4049 70.4508 29.1049 70.1508C27.6049 70.0508 26.0049 69.8508 24.4049 69.7508C24.7049 69.0508 25.0049 68.7508 25.3049 68.3508C25.0049 68.5508 24.8049 68.5508 24.4049 68.3508C24.0049 68.5508 23.7049 68.8508 23.3049 69.0508C22.9049 69.1508 21.2049 69.5508 20.8049 69.4508C20.8049 69.1508 20.9049 68.8508 21.1049 68.5508C21.4049 68.2508 23.2049 67.2508 23.5049 67.0508C24.0049 66.7508 23.8049 66.4508 24.4049 66.1508C24.3049 66.1508 24.2049 65.9508 24.1049 65.8508C23.0049 66.5508 21.5049 66.7508 20.3049 67.5508C20.2049 66.0508 19.5049 64.8508 19.4049 63.5508L18.3049 64.1508C18.4049 66.5508 19.2049 67.5508 18.6049 69.9508C17.4049 69.9508 18.5049 69.7508 17.3049 69.8508C15.1049 69.9508 12.7049 69.6508 11.0049 71.9508C11.1049 72.6508 11.3049 73.4508 11.3049 74.0508C11.3049 77.7508 11.1049 81.5508 11.0049 85.3508C10.9049 89.5508 10.7049 93.7508 10.9049 97.9508C10.9049 100.851 11.3049 103.851 11.6049 106.851C11.9049 111.851 12.2049 116.751 12.5049 121.751C12.6049 123.051 13.1049 123.951 14.1049 124.651C15.1049 125.451 16.2049 125.751 17.4049 125.651C18.4049 125.551 19.7049 125.351 20.5049 126.751C20.3049 125.951 20.6049 125.751 21.2049 125.751C22.7049 125.751 24.1049 125.651 25.7049 125.751C31.8049 126.051 38.0049 125.751 44.2049 125.451C46.0049 125.451 47.7049 125.151 49.5049 125.151C52.6049 125.151 55.8049 125.351 58.8049 124.451C59.1049 124.351 59.4049 124.451 59.7049 124.451C62.7049 124.351 65.9049 124.351 68.9049 124.251C70.8049 124.151 72.7049 123.651 74.6049 124.351C74.7049 124.351 74.8049 124.251 74.9049 124.151C75.2049 123.851 75.7049 123.751 76.0049 123.451C77.1049 122.751 78.0049 121.951 78.2049 120.551C78.5049 118.351 78.9049 116.151 79.2049 114.051C79.3049 113.451 79.3049 112.751 80.0049 112.351C79.6049 114.051 79.1049 115.751 79.7049 117.651C80.3049 119.651 81.8049 120.551 83.2049 121.851C81.9049 123.351 82.3049 124.751 82.9049 126.351C83.2049 126.751 83.2049 127.251 83.4049 127.851C83.7049 129.051 84.2049 130.151 84.9049 131.151H88.6049C89.4049 130.551 90.2049 129.851 91.0049 129.151C89.6049 129.351 88.7049 130.451 87.6049 131.051C87.5049 131.051 87.3049 131.051 87.3049 130.951C85.4049 129.351 85.1049 128.351 88.3049 126.951C90.4049 126.051 92.7049 125.751 94.8049 125.351C95.9049 125.151 96.9049 125.151 98.0049 125.051C98.2049 125.351 98.3049 125.451 98.3049 125.651C99.0049 127.351 99.2049 129.351 99.2049 131.151H100.505C100.705 130.051 100.505 128.551 100.205 127.051ZM85.3049 128.451C84.7049 126.151 84.3049 124.251 83.8049 122.251C85.1049 122.551 86.3049 123.051 87.6049 123.251C88.3049 123.351 88.8049 123.551 89.5049 123.551C90.9049 123.551 90.9049 123.551 91.6049 125.251C89.4049 125.951 87.1049 126.451 85.3049 128.451ZM96.7049 124.751C95.8049 124.851 94.9049 124.951 94.0049 125.051C92.5049 125.151 92.5049 125.151 92.3049 123.551C93.8049 122.851 95.1049 122.051 96.8049 121.351C97.8049 122.051 97.8049 123.151 98.1049 124.451C97.5049 124.551 97.1049 124.651 96.7049 124.751Z" fill="#F15748"/>
<path d="M14.5048 47.75C14.7048 48.05 15.1048 48.15 15.4048 47.95C15.6048 47.75 15.6048 47.65 15.7048 47.55C16.6048 45.35 17.6048 43.15 18.5048 40.85C18.7048 40.35 18.9048 39.85 18.9048 39.25C19.2048 37.35 17.5048 35.85 17.1048 34.05C16.9048 33.55 16.9048 32.85 16.8048 32.35C16.6048 31.85 16.3048 31.25 15.9048 30.95C15.8048 30.85 15.6048 30.85 15.6048 30.95C15.5048 31.05 15.4048 31.25 15.4048 31.25C14.9048 34.45 14.2048 37.55 13.8048 40.75C13.5048 43.25 14.3048 45.35 14.5048 47.75Z" fill="#BCBCBB"/>
<path d="M62.2049 50.6494C61.8049 51.5494 62.0049 52.6494 62.5049 53.3494C62.6049 53.5494 62.8049 53.6494 62.9049 53.7494C62.9049 53.7494 62.9049 53.8494 62.8049 53.8494C63.2049 54.6494 63.4049 55.2494 63.7049 56.0494C62.6049 56.3494 61.3049 56.1494 60.3049 55.6494C60.3049 55.6494 60.3049 55.6494 60.2049 55.6494C58.6049 54.7494 57.3049 49.2494 56.3049 47.6494C53.1049 42.7494 52.6049 37.4494 52.8049 31.4494C53.0049 23.4494 58.0049 43.9494 59.5049 45.9494C60.0049 46.6494 62.1049 42.1494 62.1049 42.1494C62.5049 42.3494 63.0049 42.3494 63.4049 42.4494C63.5049 42.4494 63.5049 42.5494 63.6049 42.5494C63.9049 42.8494 64.0049 43.0494 64.1049 43.4494C64.1049 43.5494 64.1049 43.5494 64.1049 43.6494C64.3049 43.9494 64.4049 44.4494 64.5049 44.7494C64.5049 45.2494 64.3049 45.8494 64.0049 46.3494C63.3049 47.8494 62.8049 49.2494 62.2049 50.6494Z" fill="#BCBCBB"/>
<path d="M76.0048 73.2524C76.3048 73.3524 76.7048 73.3524 76.9048 73.1524C77.6048 72.8524 75.8048 71.8524 75.5048 71.0524C74.6048 67.2524 70.3048 63.6524 66.7048 62.2524C65.0048 61.5524 72.0048 69.9524 70.1048 70.0524C62.0048 70.5524 53.3048 68.8524 43.7048 69.7524C39.7048 70.3524 35.9048 70.0524 36.4048 71.2524C36.7048 72.1524 41.3048 71.1524 42.2048 71.1524C53.4048 72.4524 64.7048 71.9524 76.0048 73.2524Z" fill="#BCBCBB"/>
<path d="M91.4045 116.152C91.1045 114.552 90.0045 113.152 89.3045 111.552C87.8045 108.952 86.7045 106.252 86.0045 103.352C85.7045 102.052 85.3045 100.652 84.4045 99.6518C83.3045 98.7518 81.7045 98.7518 80.4045 99.3518C79.3045 103.052 79.5045 106.952 79.5045 110.652C80.4045 113.252 80.3045 117.452 82.5045 119.252C83.1045 119.752 83.8045 120.052 84.6045 120.252C86.4045 120.952 88.6045 121.552 90.2045 120.452C91.4045 119.752 91.8045 117.852 91.4045 116.152Z" fill="#BCBCBB"/>
<path d="M87.1048 133.751C87.7048 134.351 88.3048 134.951 89.2048 134.951C90.0048 135.051 90.7048 134.451 91.2048 133.751C91.6048 133.051 91.8048 132.251 91.9048 131.451C92.4048 128.851 93.0048 126.951 90.9048 125.151C89.5048 123.951 87.0048 123.051 85.2048 124.051C81.1048 126.251 85.1048 131.451 87.1048 133.751Z" fill="#BCBCBB"/>
<path d="M27.0041 122.753C26.7041 123.153 26.3041 123.253 25.9041 123.453C25.3041 123.653 24.8041 123.753 24.3041 123.953C23.5041 124.253 22.8041 124.553 22.1041 124.853C20.9041 125.253 19.6041 125.753 18.3041 125.653C16.3041 125.653 14.6041 124.253 13.5041 122.653C13.2041 122.153 12.9041 121.653 12.6041 121.153C12.3041 116.553 12.1041 111.853 11.8041 107.253C11.6041 105.053 11.3041 102.753 11.2041 100.553C11.6041 99.7527 12.0041 99.5527 12.4041 99.6527C12.7041 99.8527 13.3041 100.453 13.9041 101.253C15.4041 103.253 16.1041 106.153 17.6041 108.253C19.8041 111.753 22.8041 114.953 25.4041 118.053C25.7041 118.353 25.9041 118.653 26.2041 118.953L26.3041 119.053C27.1041 120.153 27.9041 121.753 27.0041 122.753Z" fill="#BF3737"/>
<path d="M54.8043 57.1508C53.6043 57.6508 52.4043 58.1508 51.2043 58.6508C49.9043 59.1508 48.7043 59.6508 47.2043 60.4508C47.1043 60.7508 47.0043 61.1508 46.9043 61.4508C49.3043 60.2508 51.7043 59.1508 54.2043 58.1508C55.5043 57.6508 56.7043 56.9508 57.9043 56.1508C58.2043 55.9508 58.3043 55.5508 58.8043 55.0508C56.9043 55.4508 56.0043 56.7508 54.8043 57.1508Z" fill="black"/>
<path d="M41.2042 43.7523C40.1042 42.6523 39.2042 41.3523 38.2042 40.1523C37.8042 39.7523 37.7042 39.2523 37.0042 39.1523C36.6042 39.7523 37.0042 40.0523 37.3042 40.5523C38.4042 42.0523 39.4042 43.4523 40.6042 44.7523C41.8042 46.0523 42.6042 47.4523 43.1042 49.0523C43.1042 49.1523 43.1042 49.1523 43.1042 49.2523C43.2042 48.8523 43.5042 48.3523 43.8042 47.9523" fill="black"/>
<path d="M100.205 127.051C99.9049 125.951 99.7049 124.951 99.3049 123.851C98.8049 122.551 98.4049 121.351 97.4049 120.451C97.5049 120.251 97.5049 120.151 97.6049 120.051C97.8049 119.751 97.9049 119.451 98.1049 119.151C99.0049 116.851 99.6049 114.551 97.8049 112.451C95.9049 110.151 93.3049 108.651 90.4049 107.851C89.9049 107.751 89.2049 107.951 88.6049 108.151C88.3049 108.251 88.2049 108.551 87.9049 109.051C88.9049 109.051 89.7049 108.751 90.4049 109.051C92.9049 109.751 95.1049 110.951 96.8049 112.951C97.1049 113.351 97.5049 113.951 97.5049 114.451C97.5049 116.351 97.1049 118.051 95.6049 119.651C95.5049 118.951 95.5049 118.551 95.3049 118.151C94.9049 116.651 94.4049 115.151 93.2049 114.051C92.8049 113.751 92.4049 113.651 92.1049 114.251C92.3049 114.551 92.4049 114.951 92.7049 115.151C93.7049 116.651 94.4049 118.151 94.4049 119.951C94.4049 120.451 94.3049 120.851 93.6049 121.051C91.0049 121.451 88.5049 121.851 86.0049 120.751C85.8049 120.651 85.6049 120.451 85.1049 120.151C85.6049 119.851 85.9049 119.851 86.3049 119.551C85.4049 119.151 84.7049 120.051 84.0049 119.151C84.3049 118.051 85.6049 117.851 86.3049 117.051C85.7049 117.351 85.2049 117.351 84.5049 117.651C84.4049 115.951 86.4049 115.451 86.6049 113.651C84.5049 114.651 83.5049 116.351 82.8049 118.451C81.6049 117.151 80.7049 116.151 81.3049 114.551C81.6049 113.551 82.1049 112.551 82.5049 111.651C82.5049 111.351 82.7049 111.051 82.8049 110.751C82.2049 110.251 81.8049 110.451 81.4049 110.751C81.0049 110.951 80.6049 111.151 80.3049 111.451C79.4049 109.351 79.6049 108.751 81.2049 107.651C82.1049 107.051 82.9049 106.551 83.7049 106.051C84.0049 105.851 84.1049 105.751 84.4049 105.551L84.2049 105.251C82.9049 105.851 81.7049 106.451 80.3049 107.151C80.3049 105.851 80.8049 105.351 81.4049 104.651C81.5049 104.651 81.4049 104.451 81.4049 104.351C81.2049 104.251 80.9049 104.251 80.5049 104.151C80.4049 103.651 80.4049 103.251 80.4049 102.751C80.6049 99.4508 80.7049 96.3508 80.9049 93.0508C80.9049 92.4508 80.8049 91.8508 80.8049 91.1508C80.8049 88.6508 80.6049 86.2508 81.3049 83.7508C81.9049 81.5508 82.6049 79.2508 83.0049 77.0508C83.3049 75.5508 83.7049 73.8508 82.6049 72.4508C80.5049 72.4508 78.4049 72.4508 76.3049 72.2508C72.0049 71.9508 67.8049 71.5508 63.5049 71.3508C60.0049 71.2508 56.0049 71.1508 52.1049 71.0508C48.7049 70.9508 45.5049 71.0508 42.1049 70.8508C37.8049 70.7508 33.4049 70.4508 29.1049 70.1508C27.6049 70.0508 26.0049 69.8508 24.4049 69.7508C24.7049 69.0508 25.0049 68.7508 25.3049 68.3508C25.0049 68.5508 24.8049 68.5508 24.4049 68.3508C24.0049 68.5508 23.7049 68.8508 23.3049 69.0508C22.9049 69.1508 21.2049 69.5508 20.8049 69.4508C20.8049 69.1508 20.9049 68.8508 21.1049 68.5508C21.4049 68.2508 23.2049 67.2508 23.5049 67.0508C24.0049 66.7508 23.8049 66.4508 24.4049 66.1508C24.3049 66.1508 24.2049 65.9508 24.1049 65.8508C23.0049 66.5508 21.5049 66.7508 20.3049 67.5508C20.2049 66.0508 19.5049 64.8508 19.4049 63.5508L18.3049 64.1508C18.4049 66.5508 19.2049 67.5508 18.6049 69.9508C17.4049 69.9508 18.5049 69.7508 17.3049 69.8508C15.1049 69.9508 12.7049 69.6508 11.0049 71.9508C11.1049 72.6508 11.3049 73.4508 11.3049 74.0508C11.3049 77.7508 11.1049 81.5508 11.0049 85.3508C10.9049 89.5508 10.7049 93.7508 10.9049 97.9508C10.9049 98.7508 10.9049 99.4508 11.0049 100.251C11.1049 102.351 11.4049 104.651 11.6049 106.951C11.9049 111.551 12.2049 116.251 12.4049 120.851C12.4049 121.151 12.4049 121.451 12.5049 121.751C12.6049 123.051 13.1049 123.951 14.1049 124.651C15.1049 125.451 16.2049 125.751 17.4049 125.651C18.4049 125.551 19.7049 125.351 20.5049 126.751C20.3049 125.951 20.6049 125.751 21.2049 125.751C22.7049 125.751 24.1049 125.651 25.7049 125.751C31.8049 126.051 38.0049 125.751 44.2049 125.451C46.0049 125.451 47.7049 125.151 49.5049 125.151C52.6049 125.151 55.8049 125.351 58.8049 124.451C59.1049 124.351 59.4049 124.451 59.7049 124.451C62.7049 124.351 65.9049 124.351 68.9049 124.251C70.8049 124.151 72.7049 123.651 74.6049 124.351C74.7049 124.351 74.8049 124.251 74.9049 124.151C75.2049 123.851 75.7049 123.751 76.0049 123.451C77.1049 122.751 78.0049 121.951 78.2049 120.551C78.5049 118.351 78.9049 116.151 79.2049 114.051C79.3049 113.451 79.3049 112.751 80.0049 112.351C79.6049 114.051 79.1049 115.751 79.7049 117.651C80.3049 119.651 81.8049 120.551 83.2049 121.851C81.9049 123.351 82.3049 124.751 82.9049 126.351C83.2049 126.751 83.2049 127.251 83.4049 127.851C83.7049 129.051 84.2049 130.151 84.9049 131.251C85.3049 131.851 85.8049 132.251 86.4049 132.751C86.9049 133.151 87.3049 133.851 87.6049 134.351C88.3049 134.751 89.0049 135.051 89.6049 135.451C91.9049 136.951 94.4049 137.451 97.1049 136.751C99.2049 136.351 100.105 135.351 100.405 133.351C100.505 132.651 100.605 131.851 100.605 131.251C100.705 130.051 100.505 128.551 100.205 127.051ZM14.0049 121.951C13.8049 121.051 13.8049 120.051 13.7049 118.851C14.6049 118.851 15.3049 118.751 16.2049 118.751C16.4049 120.451 16.5049 121.951 16.7049 123.551C14.9049 123.651 14.3049 123.351 14.0049 121.951ZM71.9049 122.651C71.7049 121.351 71.4049 119.951 71.4049 118.651C71.6049 118.551 71.7049 118.551 71.8049 118.551C72.0049 119.851 72.1049 121.251 72.2049 122.551C72.1049 122.651 72.0049 122.651 71.9049 122.651ZM73.1049 122.851C72.7049 121.451 72.6049 120.051 72.8049 118.551C72.8049 118.351 73.1049 118.351 73.6049 118.151C73.7049 119.851 73.7049 121.251 73.8049 122.751C73.6049 122.851 73.4049 122.851 73.1049 122.851ZM79.8049 93.6508C79.8049 95.0508 79.9049 96.3508 79.7049 97.7508C79.1049 102.751 79.4049 107.751 78.0049 112.551C77.6049 114.251 77.4049 116.051 77.1049 117.751C77.0049 118.151 77.0049 118.551 76.9049 118.951C76.6049 120.451 76.2049 121.751 74.4049 122.251C73.9049 120.951 74.1049 119.551 74.1049 118.051C74.9049 117.851 75.6049 117.651 76.8049 117.351C76.2049 116.951 75.9049 116.751 75.7049 116.651C75.5049 116.551 75.3049 116.651 75.0049 116.651C69.3049 117.451 63.6049 116.751 57.9049 116.951C57.4049 116.951 56.9049 117.051 56.4049 117.251C56.1049 117.351 56.1049 117.651 55.8049 118.051C58.4049 118.051 60.7049 118.051 63.0049 118.151C65.3049 118.151 67.6049 118.251 70.0049 118.351C70.7049 119.751 70.7049 121.051 70.9049 122.651C70.5049 122.751 70.1049 122.951 69.8049 122.951C65.9049 123.351 62.2049 123.451 58.4049 123.251C57.6049 123.251 56.8049 123.351 56.0049 123.351C50.4049 123.451 44.8049 123.451 39.2049 123.651C36.5049 123.751 33.6049 123.951 30.9049 124.051C28.7049 124.151 26.3049 124.051 24.1049 124.051C22.8049 124.051 21.4049 124.051 20.1049 124.051C19.4049 124.051 19.1049 123.751 18.9049 123.151C18.7049 122.251 18.4049 121.351 18.1049 120.451C18.1049 120.451 18.0049 120.551 17.8049 120.551C18.0049 121.651 18.1049 122.651 18.0049 124.051C17.4049 124.351 16.9049 124.251 16.8049 123.551C16.7049 122.151 16.7049 120.851 16.5049 119.251C18.5049 118.951 20.3049 118.951 22.0049 119.051C23.3049 119.151 24.6049 119.151 26.0049 119.251C28.7049 119.351 31.3049 119.551 34.0049 119.551C38.5049 119.551 42.9049 119.351 47.4049 119.251C48.0049 119.251 48.6049 119.351 49.3049 119.251C49.6049 119.251 49.9049 119.051 50.2049 118.951C49.9049 118.051 49.2049 118.151 48.6049 118.151C46.8049 118.151 45.1049 118.051 43.4049 118.251C37.7049 118.651 32.0049 118.451 26.3049 118.251C26.0049 118.251 25.5049 118.251 25.2049 118.151C22.8049 117.951 20.4049 117.851 17.9049 117.851C17.0049 117.851 16.2049 117.951 15.3049 117.951C14.8049 117.951 14.2049 117.851 13.7049 117.851C13.2049 116.351 13.4049 115.251 14.6049 114.551C15.8049 113.751 16.9049 112.851 17.9049 111.751C16.4049 112.651 15.0049 113.651 13.4049 114.651C12.9049 113.051 14.7049 112.951 14.9049 111.851C14.3049 112.151 13.9049 112.551 13.2049 112.851C12.9049 110.751 12.7049 108.651 12.5049 106.551C12.4049 104.451 12.2049 102.251 12.2049 100.151C12.2049 99.9508 12.2049 99.8508 12.2049 99.7508C12.1049 97.3508 11.9049 94.7508 11.9049 92.3508C11.9049 88.6508 12.0049 84.9508 12.2049 81.2508C12.3049 78.2508 12.5049 75.3508 11.9049 72.4508C11.9049 72.2508 12.0049 72.1508 12.1049 71.8508C13.0049 71.6508 14.0049 71.2508 15.0049 71.3508C19.3049 71.5508 23.7049 71.7508 28.0049 72.0508C32.0049 72.2508 36.1049 72.5508 40.1049 72.7508C43.5049 72.9508 46.9049 72.9508 50.3049 72.9508C53.0049 72.9508 55.6049 72.8508 58.4049 72.7508C59.6049 72.7508 60.6049 72.7508 61.8049 72.8508C66.8049 73.1508 71.9049 73.4508 76.8049 73.7508C78.5049 73.8508 80.3049 74.0508 82.2049 74.1508C82.5049 75.5508 82.3049 76.9508 81.9049 78.4508C81.2049 81.1508 80.4049 83.7508 79.8049 86.4508C79.5049 87.9508 79.6049 89.8508 79.5049 91.4508C79.8049 91.9508 79.8049 92.8508 79.8049 93.6508ZM96.7049 121.251C97.7049 121.951 97.7049 123.051 98.0049 124.351C97.5049 124.551 97.1049 124.651 96.7049 124.751C95.8049 124.851 94.9049 124.951 94.0049 125.051C92.5049 125.151 92.5049 125.151 92.3049 123.551C93.7049 122.851 95.0049 122.051 96.7049 121.251ZM85.3049 128.451C84.7049 126.151 84.3049 124.251 83.8049 122.251C85.1049 122.551 86.3049 123.051 87.6049 123.251C88.3049 123.351 88.8049 123.551 89.5049 123.551C90.9049 123.551 90.9049 123.551 91.6049 125.251C89.4049 125.951 87.1049 126.451 85.3049 128.451ZM99.4049 132.251C99.3049 134.951 96.9049 136.051 94.6049 135.751C92.0049 135.451 90.3049 134.351 88.2049 131.951C88.5049 131.751 88.6049 131.651 88.9049 131.451C89.7049 130.851 90.5049 130.151 91.3049 129.451C89.9049 129.651 89.0049 130.751 87.9049 131.351C87.8049 131.351 87.6049 131.351 87.6049 131.251C85.7049 129.651 85.4049 128.651 88.6049 127.251C90.7049 126.351 93.0049 126.051 95.1049 125.651C96.2049 125.451 97.2049 125.451 98.3049 125.351C98.5049 125.651 98.6049 125.751 98.6049 125.951C99.3049 127.651 99.5049 129.651 99.5049 131.451C99.4049 131.751 99.4049 131.951 99.4049 132.251Z" fill="black"/>
<path d="M17.8045 51.6523C18.1045 48.0523 19.7045 45.0523 23.5045 43.1523C23.8045 43.0523 23.9045 42.9523 24.2045 42.7523C23.7045 41.7523 24.1045 41.0523 24.8045 40.3523C25.4045 39.8523 25.9045 39.3523 26.4045 38.6523C27.7045 36.9523 28.2045 34.8523 28.6045 32.6523C28.2045 33.0523 27.9045 33.5523 27.7045 34.1523C27.1045 35.2523 26.7045 36.6523 26.0045 37.7523C24.9045 39.3523 23.5045 40.7523 22.2045 42.1523C21.9045 42.5523 21.4045 43.0523 20.8045 43.1523C20.0045 43.3523 19.7045 43.7523 19.4045 44.3523C19.1045 45.0523 18.7045 45.4523 18.4045 46.0523C17.6045 47.5523 17.0045 48.9523 16.6045 50.3523C17.0045 50.8523 17.4045 51.2523 17.8045 51.6523Z" fill="black"/>
<path d="M14.0047 43.2516C14.0047 43.0516 13.9047 42.9516 13.9047 42.8516C13.7047 43.1516 13.6047 43.4516 13.3047 43.7516C13.4047 44.0516 13.5047 44.4516 13.6047 44.8516C13.8047 46.4516 14.0047 48.2516 14.3047 49.7516C14.4047 50.4516 14.6047 51.0516 15.4047 51.6516C15.1047 50.5516 15.1047 49.7516 14.9047 48.9516C14.6047 47.0516 14.5047 45.1516 14.0047 43.2516Z" fill="black"/>
<path d="M49.6045 12.5508C49.1045 12.3508 48.7045 12.3508 48.4045 12.6508C47.5045 13.3508 46.7045 13.2508 45.7045 12.8508C44.6045 12.4508 43.5045 12.0508 42.3045 11.9508C38.7045 11.5508 35.1045 11.8508 31.6045 12.2508C30.9045 12.3508 30.1045 12.4508 29.5045 12.5508C29.2045 12.0508 29.1045 11.6508 28.8045 11.0508C27.3045 12.0508 25.9045 13.1508 24.2045 14.5508C23.3045 15.2508 22.3045 15.9508 21.3045 16.6508C21.0045 17.0508 20.6045 17.4508 20.3045 17.8508C20.0045 18.1508 19.8045 18.4508 19.6045 18.7508C22.3045 16.6508 25.0045 14.7508 27.8045 12.6508C28.5045 13.5508 29.3045 13.3508 30.2045 13.2508C32.0045 12.9508 33.7045 12.8508 35.5045 12.6508C39.3045 12.4508 43.1045 12.5508 46.6045 14.0508C47.2045 14.3508 47.9045 14.3508 48.6045 14.5508C48.4045 14.0508 48.3045 13.6508 48.2045 13.4508C48.5045 13.1508 49.1045 12.8508 49.6045 12.5508Z" fill="black"/>
<path d="M95.5047 108.751C94.6047 108.051 94.7047 107.151 94.6047 106.251C94.4047 103.551 94.2047 101.051 93.6047 98.3506C93.3047 96.8506 92.7047 95.6506 91.5047 94.5506C91.2047 94.2506 90.9047 93.7506 90.6047 93.3506C91.2047 92.9506 91.6047 92.6506 92.2047 92.2506C90.3047 91.7506 88.5047 91.4506 87.0047 90.7506C85.5047 90.0506 83.7047 89.8506 82.3047 88.6506C83.5047 87.1506 83.6047 87.1506 85.0047 87.6506C87.2047 88.4506 89.4047 89.3506 91.6047 90.2506C92.9047 90.7506 94.3047 91.2506 95.6047 91.7506C95.6047 93.2506 94.1047 93.2506 93.5047 93.9506C95.6047 98.7506 96.7047 103.551 95.5047 108.751Z" fill="black"/>
<path d="M29.2043 32.3531C28.5043 30.2531 28.9043 28.0531 28.6043 26.1531C28.3043 24.1531 27.9043 22.1531 27.6043 20.0531C27.9043 19.8531 28.3043 19.7531 28.7043 19.6531C28.3043 17.6531 27.9043 15.7531 27.4043 13.4531C27.9043 13.8531 28.3043 14.1531 28.3043 14.3531C28.8043 16.4531 29.2043 18.5531 29.6043 20.6531C29.7043 20.9531 29.7043 21.3531 29.5043 21.5531C28.8043 22.4531 29.2043 23.4531 29.2043 24.3531C29.4043 26.9531 29.5043 29.5531 29.5043 32.0531C29.5043 31.9531 29.4043 32.0531 29.2043 32.3531Z" fill="black"/>
<path d="M41.1043 19.1523C41.1043 19.4523 41.1043 19.8523 41.0043 20.0523C40.8043 20.3523 40.7043 20.7523 40.4043 21.0523C38.3043 24.9523 37.2043 29.0523 36.0043 33.1523C35.6043 34.6523 35.5043 35.9523 36.3043 37.5523C36.5043 37.8523 36.5043 38.0523 36.6043 38.5523C35.7043 37.9523 35.2043 37.5523 35.2043 36.8523C35.1043 35.9523 34.9043 34.8523 35.2043 33.9523C36.2043 29.7523 37.4043 25.5523 39.5043 21.6523C39.9043 20.7523 40.3043 20.0523 40.6043 19.1523C40.8043 19.1523 40.9043 19.1523 41.1043 19.1523Z" fill="black"/>
<path d="M59.3043 57.6523C58.1043 59.7523 54.1043 61.9523 51.1043 62.0523C50.8043 62.5523 50.4043 63.0523 50.2043 63.5523C49.9043 64.0523 49.8043 64.7523 48.9043 64.9523C49.0043 64.5523 49.0043 64.1523 49.2043 63.8523C49.5043 63.0523 50.1043 62.3523 50.4043 61.5523C50.7043 60.8523 51.2043 60.6523 51.9043 60.8523C52.6043 61.1523 53.1043 60.8523 53.7043 60.5523C55.3043 59.6523 56.9043 58.7523 58.5043 57.8523C58.6043 57.9523 58.9043 57.8523 59.3043 57.6523Z" fill="black"/>
<path d="M31.2049 45.6525C31.0049 45.9525 31.1049 46.0525 31.0049 46.0525C29.4049 46.3525 27.7049 46.5525 26.0049 46.7525C26.6049 45.6525 28.0049 45.3525 31.2049 45.6525Z" fill="black"/>
<path d="M58.5049 65.7516C59.0049 64.8516 59.8049 64.8516 60.8049 64.8516C61.1049 65.5516 61.2049 66.0516 61.5049 66.8516C60.4049 67.0516 60.6049 65.9516 60.2049 65.3516C59.5049 65.4516 59.0049 65.5516 58.5049 65.7516Z" fill="black"/>
<path d="M42.6045 54.3531C43.0045 52.9531 44.3045 52.1531 45.1045 50.9531C44.8045 51.9531 44.1045 52.8531 42.6045 54.3531Z" fill="black"/>
<path d="M58.4045 65.7508C57.9045 66.0508 57.3045 66.4508 56.6045 66.9508C56.6045 65.7508 57.4045 65.3508 57.7045 64.5508C57.7045 65.0508 57.6045 65.6508 58.4045 65.7508Z" fill="black"/>
<path d="M57.5049 63.0523C58.1049 62.6523 58.6049 62.1523 59.2049 61.6523C59.5049 62.7523 59.5049 62.7523 58.8049 62.8523C58.4049 63.0523 57.9049 63.0523 57.5049 63.0523Z" fill="black"/>
<path d="M57.5041 63.0508C56.9041 63.5508 56.3041 64.1508 55.7041 64.6508C56.2041 63.6508 56.2041 63.6508 57.5041 63.0508Z" fill="black"/>
<path d="M60.4043 53.95C61.0043 53.55 61.5043 53.05 62.0043 52.75C62.1043 52.85 62.2043 52.95 62.3043 53.05C61.8043 53.45 61.2043 53.95 60.7043 54.35C60.7043 54.15 60.6043 53.95 60.4043 53.95Z" fill="black"/>
<path d="M25.3047 68.5516C25.8047 68.1516 26.3047 67.7516 26.8047 67.3516C26.9047 67.4516 27.0047 67.6516 27.1047 67.6516C26.6047 67.9516 26.2047 68.5516 25.3047 68.5516Z" fill="black"/>
<path d="M62.0044 55.6523C61.7044 55.9523 61.7044 56.2523 61.4044 56.5523C61.2044 55.7523 61.5044 55.6523 62.0044 55.6523Z" fill="black"/>
<path d="M16.4043 110.452C17.4043 109.752 18.4043 109.052 19.4043 108.352C19.5043 108.452 19.6043 108.652 19.7043 108.652C18.7043 109.352 17.7043 110.052 16.8043 110.752C16.6043 110.652 16.5043 110.552 16.4043 110.452Z" fill="black"/>
<path d="M28.0044 35.5508C26.9044 37.4508 25.9044 39.1508 24.6044 40.8508C23.5044 42.5508 21.8044 43.5508 20.0044 44.4508C19.2044 44.7508 18.4044 44.8508 17.4044 44.5508C14.5044 43.2508 12.2044 41.4508 11.3044 38.1508C11.0044 36.9508 10.5044 35.8508 10.4044 34.6508C9.90439 31.1508 11.9044 28.9508 14.3044 27.5508C16.4044 26.3508 18.5044 25.6508 20.7044 25.4508C22.9044 25.1508 25.3044 25.0508 27.5044 25.1508C31.8044 25.3508 36.1044 25.2508 40.3044 25.3508C43.6044 25.3508 47.1044 25.8508 50.3044 26.9508C52.6044 27.8508 53.9044 29.6508 54.1044 32.0508C54.3044 33.5508 54.2044 35.2508 53.5044 36.6508C52.7044 38.6508 51.8044 40.2508 50.3044 41.8508C49.2044 42.8508 48.0044 43.5508 46.5044 43.8508C45.4044 44.0508 44.2044 44.1508 43.1044 44.3508C42.8044 44.4508 42.3044 44.4508 42.0044 44.2508C39.8044 43.4508 38.0044 42.3508 36.9044 40.2508C36.3044 39.1508 36.0044 37.9508 35.4044 36.7508C35.1044 36.1508 35.0044 35.8508 34.3044 35.7508C32.8044 35.4508 31.4044 35.2508 29.8044 35.7508C29.2044 35.6508 28.6044 35.5508 28.0044 35.5508ZM13.3044 38.9508C14.3044 40.9508 15.5044 42.2508 17.4044 42.9508C18.2044 43.2508 18.9044 43.2508 19.8044 42.7508C21.5044 41.7508 23.2044 40.6508 24.0044 38.6508C24.2044 38.1508 24.6044 37.8508 24.8044 37.4508C26.0044 35.7508 27.9044 34.2508 28.2044 32.0508C28.3044 31.1508 28.5044 30.4508 28.6044 29.6508C28.7044 29.3508 28.8044 29.0508 28.9044 28.8508C29.4044 29.1508 29.2044 29.4508 29.2044 29.6508C29.2044 30.4508 29.0044 31.1508 28.9044 31.9508C28.8044 32.7508 28.6044 33.4508 28.5044 34.2508C30.7044 34.1508 32.6044 34.1508 34.8044 34.1508C34.4044 31.3508 35.5044 29.1508 37.5044 27.4508C37.8044 27.1508 38.0044 26.8508 38.3044 26.5508C38.0044 26.3508 38.0044 26.2508 37.8044 26.2508C32.1044 26.1508 26.4044 26.3508 20.7044 26.8508C17.4044 27.1508 14.9044 28.5508 13.0044 31.1508C11.8044 32.6508 11.8044 35.1508 12.9044 36.6508C13.6044 36.2508 14.4044 35.7508 15.0044 35.2508C14.6044 36.2508 13.1044 36.6508 12.9044 38.0508C14.0044 37.4508 14.9044 36.9508 15.6044 36.5508C15.7044 36.6508 15.7044 36.7508 15.8044 36.8508C14.9044 37.5508 14.0044 38.3508 13.3044 38.9508ZM37.7044 38.4508C39.2044 41.9508 41.7044 43.3508 45.1044 42.9508C45.4044 42.8508 45.7044 42.7508 46.0044 42.7508C47.5044 42.5508 48.9044 41.8508 49.8044 40.6508C50.7044 39.5508 51.4044 38.3508 52.1044 37.0508C52.8044 35.6508 53.1044 34.1508 53.0044 32.4508C52.8044 29.9508 51.2044 27.8508 48.5044 27.2508C46.1044 26.7508 43.8044 26.3508 41.3044 26.0508C40.6044 25.9508 40.1044 26.0508 39.7044 26.8508C39.4044 27.2508 39.0044 27.5508 38.7044 27.8508C36.6044 29.4508 36.1044 31.6508 36.4044 34.1508C36.6044 34.8508 36.3044 35.6508 37.0044 36.0508C38.2044 35.7508 39.1044 34.5508 40.5044 34.4508C39.3044 35.5508 37.7044 35.9508 37.1044 37.5508C38.1044 37.3508 38.6044 36.3508 39.6044 36.6508C39.0044 37.3508 38.4044 37.9508 37.7044 38.4508Z" fill="black"/>
<path d="M92.4043 137.253C88.4043 138.753 84.0043 139.453 79.7043 139.453C78.7043 139.453 77.6043 139.353 76.7043 139.253C75.2043 139.053 73.7043 138.853 72.4043 138.253C71.2043 137.553 70.3043 136.753 69.8043 135.353C69.7043 135.053 69.6043 134.753 69.6043 134.453C69.6043 133.753 69.9043 133.153 70.3043 132.753C70.7043 132.353 71.2043 132.053 72.0043 132.053C72.4043 132.053 72.7043 132.153 73.0043 132.353C73.4043 132.653 73.8043 133.053 74.1043 133.653C74.4043 134.253 74.4043 134.853 74.4043 135.453C74.4043 137.553 73.4043 139.353 71.9043 140.753C70.4043 142.253 68.3043 143.253 66.2043 143.553C65.4043 143.753 64.6043 143.853 63.7043 143.853C60.3043 143.853 56.7043 142.853 53.4043 141.753C41.3043 138.053 28.9043 134.753 16.2043 134.753C16.1043 134.753 16.0043 134.753 15.9043 134.753C14.3043 134.753 12.5043 134.853 10.8043 135.653C9.7043 136.353 8.7043 137.253 8.3043 138.553C8.2043 138.853 8.1043 139.053 8.1043 139.253C8.1043 140.053 8.4043 140.753 9.0043 141.153C9.5043 141.553 10.2043 141.853 10.9043 141.853C11.3043 141.853 11.8043 141.753 12.2043 141.553C12.6043 141.253 13.0043 140.853 13.2043 140.453C13.8043 139.353 14.1043 137.953 14.1043 136.553C14.1043 133.753 12.9043 130.853 10.5043 129.253C9.6043 128.653 8.8043 128.253 8.1043 127.753C7.8043 127.453 7.5043 127.153 7.3043 126.853C7.0043 126.553 7.0043 126.153 7.0043 125.553C7.0043 125.453 7.0043 125.353 7.0043 125.253C7.0043 124.553 7.2043 123.953 7.5043 123.353C8.4043 121.753 9.9043 120.753 11.5043 119.753C11.8043 119.553 11.8043 119.253 11.7043 119.053C11.5043 118.753 11.2043 118.753 11.0043 118.853C9.4043 119.853 7.6043 120.953 6.6043 122.853C6.3043 123.553 5.9043 124.453 5.9043 125.353C5.9043 125.453 5.9043 125.653 5.9043 125.653C6.0043 126.353 6.2043 126.853 6.4043 127.353C6.8043 128.053 7.4043 128.553 8.0043 128.953C8.7043 129.353 9.3043 129.653 9.8043 130.053C11.9043 131.453 13.0043 133.953 13.0043 136.453C13.0043 137.553 12.7043 138.753 12.3043 139.753C12.1043 140.053 12.0043 140.253 11.7043 140.453C11.4043 140.653 11.2043 140.753 10.9043 140.753C10.5043 140.753 10.0043 140.553 9.7043 140.353C9.4043 140.053 9.2043 139.653 9.2043 139.253C9.2043 139.053 9.2043 138.953 9.3043 138.853C9.6043 137.953 10.3043 137.053 11.3043 136.553C12.6043 135.853 14.2043 135.753 15.8043 135.753C15.9043 135.753 16.0043 135.753 16.1043 135.753C28.6043 135.853 40.9043 139.153 53.0043 142.753C56.4043 143.753 60.0043 144.853 63.7043 144.853C64.6043 144.853 65.4043 144.753 66.4043 144.553C68.7043 144.253 71.0043 143.053 72.7043 141.553C74.4043 139.953 75.6043 137.853 75.6043 135.353C75.6043 134.353 75.3043 133.253 74.7043 132.453C74.4043 132.053 74.0043 131.653 73.6043 131.353C73.2043 131.053 72.6043 130.953 72.0043 130.953C71.0043 130.953 70.1043 131.353 69.5043 131.953C68.9043 132.553 68.6043 133.453 68.6043 134.453C68.6043 134.753 68.7043 135.253 68.8043 135.553C69.3043 137.353 70.5043 138.453 72.0043 139.253C73.5043 139.953 75.1043 140.253 76.6043 140.353C77.6043 140.453 78.7043 140.553 79.7043 140.553C84.1043 140.553 88.5043 139.753 92.8043 138.253C93.1043 138.153 93.2043 137.853 93.1043 137.553C93.1043 137.353 92.7043 137.153 92.4043 137.253Z" fill="#010202"/>
<path d="M17.2049 16.7503C17.6049 17.1503 18.1049 17.7503 17.8049 18.2503C17.7049 18.5503 17.5049 18.6503 17.2049 18.7503C15.4049 19.9503 13.6049 21.1503 11.8049 22.3503C11.5049 22.6503 11.0049 22.8503 10.5049 22.8503C9.60488 22.8503 9.00488 21.9503 9.00488 21.0503C9.00488 20.5503 9.10488 19.9503 9.30488 19.4503C9.70488 18.2503 10.7049 17.3503 11.1049 16.0503C11.4049 15.1503 11.2049 13.1503 11.9049 12.5503C13.3049 11.1503 16.0049 15.4503 17.2049 16.7503Z" fill="#BBBBBA"/>
<path d="M7.00421 51.05C7.30421 52.65 12.9042 57.35 13.4042 58.85C13.5042 59.15 18.3042 64.25 18.4042 64.65C18.7042 64.45 19.2042 64.35 19.5042 64.15C19.3042 63.25 14.4042 57.75 14.2042 56.95C13.9042 55.85 8.60421 51.65 8.40421 50.55C8.30421 50.15 8.20421 49.65 8.00421 49.45C7.50421 48.95 7.70421 48.55 7.80421 47.95C8.20421 46.75 10.6042 41.55 11.0042 40.25C11.2042 39.65 11.9042 38.15 11.9042 37.55C12.0042 36.95 11.3042 37.05 10.5042 36.75C10.4042 37.15 10.4042 37.65 10.2042 38.15C9.70421 40.05 7.10421 46.05 6.50421 47.95C6.20421 48.95 5.70421 49.95 5.40421 50.95C5.30421 51.15 5.50421 51.25 5.60421 51.55C6.20421 51.35 6.60421 51.25 7.00421 51.05Z" fill="black"/>
<path d="M76.8044 71.25C74.4044 68.55 71.8044 65.75 69.3044 63.05C68.5044 62.25 67.7044 61.45 66.5044 61.65C66.0044 60.95 66.1044 59.55 65.6044 59.05C63.8044 56.95 64.8044 58.55 63.8044 56.25C63.4044 55.35 63.3044 54.75 62.9044 54.05C62.9044 54.05 62.9044 53.95 63.0044 53.95C62.8044 53.85 62.7044 53.65 62.6044 53.55C62.1044 52.65 61.9044 51.65 62.3044 50.85C62.9044 49.45 63.4044 48.15 64.3044 46.85C64.6044 46.25 66.0044 47.15 65.9044 46.55C65.9044 46.15 64.6044 44.35 64.4044 43.85C64.4044 43.75 64.3044 43.75 64.3044 43.65C64.1044 43.35 64.0044 43.15 63.9044 42.95C63.0044 41.15 61.4044 35.75 61.9044 33.75C62.1044 32.95 62.4044 32.25 62.8044 31.65C62.5044 31.35 62.3044 30.95 62.0044 30.75C60.5044 33.45 61.4044 39.55 62.5044 42.55C62.7044 43.05 62.9044 43.55 63.3044 44.05C63.7044 44.65 63.7044 45.35 63.3044 45.95C62.5044 47.15 62.4044 48.65 61.2044 49.55C61.0044 49.75 61.0044 50.05 60.9044 50.35C60.7044 50.85 60.6044 51.35 60.5044 51.85C59.8044 53.25 60.2044 54.55 60.7044 55.85C60.7044 55.85 60.7044 55.95 60.8044 56.05C60.8044 56.15 60.8044 56.15 60.9044 56.25C61.4044 57.25 62.1044 57.15 62.5044 58.15C62.8044 58.75 62.5044 57.25 62.5044 57.95C62.6044 58.15 62.7044 58.25 62.8044 58.55C62.9044 58.65 63.0044 58.65 63.0044 58.75C63.0044 58.85 63.0044 58.95 63.0044 59.05C64.2044 60.95 66.6044 63.85 66.9044 63.75C68.8044 65.65 71.0044 66.95 72.8044 68.95C74.6044 70.85 77.4044 73.55 77.8044 72.85C77.4044 72.25 77.2044 71.65 76.8044 71.25Z" fill="black"/>
<path d="M25.3045 13.8514C24.9045 13.8514 24.5045 13.7514 24.1045 13.5514C21.6045 12.0514 19.6045 10.1514 17.6045 8.35137C17.4045 8.15137 17.2045 7.95137 17.2045 7.85137C17.6045 6.75137 16.6045 6.55137 16.0045 6.05137C13.8045 4.05137 10.9045 2.95137 8.30454 1.55137C7.10454 0.951372 5.90454 0.951372 4.80454 1.15137C4.20454 1.25137 3.80454 1.75137 3.30454 2.05137C2.60454 1.75137 2.40454 2.15137 2.20454 3.05137C2.70454 2.65137 3.00454 2.25137 3.30454 2.05137C2.60454 3.65137 2.10454 5.45137 2.30454 7.25137C2.60454 9.65137 3.20454 11.8514 4.00454 14.1514C4.70454 16.1514 5.60454 18.0514 6.10454 20.0514C7.00454 23.1514 7.80454 26.2514 9.10454 29.2514C9.40454 29.8514 9.60454 30.5514 9.20454 31.2514L11.9045 37.5514C10.4045 37.7514 10.3045 37.7514 9.80454 36.4514C9.50454 34.8514 6.60454 26.9514 6.00454 25.5514C5.10454 22.9514 4.00454 20.4514 3.00454 17.9514C2.70454 17.1514 2.30454 16.4514 2.10454 15.5514C1.40454 12.5514 0.704541 9.65137 0.104541 6.65137C-0.195459 4.75137 0.104541 2.95137 1.60454 1.65137C3.00454 0.451372 4.70454 -0.348628 6.60454 0.151372C10.2045 1.05137 13.3045 2.65137 16.0045 4.75137C16.7045 5.25137 17.5045 5.65137 18.2045 6.15137C19.1045 6.75137 19.9045 7.45137 19.2045 8.75137C20.8045 9.95137 22.5045 11.1514 24.2045 12.4514" fill="black"/>
<path d="M14.8041 14.3508C12.9041 12.5508 11.1041 10.7508 9.2041 8.95078C9.2041 8.95078 9.3041 8.75078 9.4041 8.55078C9.6041 8.65078 9.8041 8.55078 10.0041 8.75078C10.4041 9.05078 10.9041 9.35078 11.2041 9.65078C13.6041 11.8508 16.0041 14.1508 18.7041 16.5508C18.1041 18.5508 16.2041 20.0508 15.1041 22.0508C14.9041 22.3508 14.3041 22.6508 13.9041 22.9508C13.6041 22.0508 13.6041 22.0508 15.3041 19.7508C16.0041 18.8508 16.8041 17.8508 17.5041 16.7508C16.5041 15.8508 15.7041 15.0508 14.8041 14.3508Z" fill="black"/>
<path d="M14.7043 14.3516C13.6043 15.2516 12.4043 16.0516 10.9043 16.8516C11.7043 15.4516 12.9043 14.6516 14.7043 14.3516Z" fill="black"/>
<path d="M12.8041 13.6523C11.9041 14.3523 11.1041 15.0523 10.2041 15.7523C10.6041 14.4523 11.5041 13.6523 12.8041 13.6523Z" fill="black"/>
<path d="M54.8048 17.4498C54.4048 17.8498 53.9048 18.4498 54.2048 18.9498C54.3048 19.2498 54.5048 19.3498 54.8048 19.5498C56.6048 20.8498 58.3048 22.1498 60.1048 23.3498C60.4048 23.6498 60.9048 23.8498 61.4048 23.9498C62.3048 23.9498 62.9048 23.0498 62.9048 22.1498C63.0048 21.6498 62.9048 21.0498 62.7048 20.5498C62.3048 19.3498 61.4048 18.4498 61.1048 17.1498C60.8048 16.2498 61.1048 14.2498 60.5048 13.5498C59.0048 11.9498 56.0048 16.1498 54.8048 17.4498Z" fill="#BBBBBA"/>
<path d="M70.9047 2.85206C69.5047 1.55206 67.9047 0.752057 65.9047 1.25206C62.4047 2.05206 59.2047 3.45206 56.4047 5.55206C55.7047 6.05206 54.9047 6.45206 54.2047 6.85206C53.2047 7.35206 52.4047 8.05206 53.0047 9.45206C51.1047 10.7521 49.3047 12.0521 47.3047 13.3521C47.4047 13.6521 47.5047 13.9521 47.5047 14.2521C47.7047 14.1521 47.8047 14.1521 47.9047 14.0521C50.4047 12.6521 52.5047 10.8521 54.6047 9.05206C54.8047 8.85206 55.0047 8.75206 55.0047 8.55206C54.7047 7.45206 55.7047 7.25206 56.3047 6.85206C58.6047 4.95206 61.5047 3.95206 64.2047 2.65206C65.4047 2.05206 66.6047 2.05206 67.7047 2.35206C68.2047 2.45206 68.6047 2.95206 69.1047 3.25206C69.8047 5.05206 70.2047 6.75206 70.0047 8.55206C69.7047 10.9521 68.9047 13.1521 68.0047 15.3521C67.2047 17.3521 66.3047 19.2521 65.6047 21.1521C64.7047 24.2521 63.7047 27.3521 62.2047 30.1521C62.0047 30.5521 61.3047 31.1521 61.3047 31.6521C61.6047 31.9521 61.8047 32.2521 62.2047 32.5521C62.7047 32.0521 62.9047 31.6521 63.4047 30.7521C64.2047 29.3521 64.9047 28.0521 65.5047 26.7521C66.5047 24.2521 67.7047 21.7521 68.9047 19.2521C69.2047 18.4521 69.6047 17.7521 69.8047 16.8521C70.6047 13.9521 71.4047 10.9521 72.1047 8.05206C72.6047 6.15206 72.4047 4.35206 70.9047 2.85206ZM69.2047 3.25206C70.0047 2.95206 70.2047 3.35206 70.3047 4.25206C69.8047 3.75206 69.5047 3.45206 69.2047 3.25206Z" fill="black"/>
<path d="M57.3043 15.0531C59.2043 13.3531 61.2043 11.5531 63.1043 9.85313C63.1043 9.85313 63.0043 9.65313 63.0043 9.45312C62.8043 9.45312 62.6043 9.45313 62.4043 9.55313C62.0043 9.85313 61.5043 10.1531 61.1043 10.4531C58.6043 12.5531 56.1043 14.7531 53.4043 17.0531C53.9043 19.0531 55.7043 20.6531 56.8043 22.6531C57.0043 23.0531 57.5043 23.2531 57.9043 23.6531C58.2043 22.7531 58.2043 22.7531 56.7043 20.3531C56.0043 19.3531 55.3043 18.3531 54.6043 17.2531C55.5043 16.5531 56.4043 15.8531 57.3043 15.0531Z" fill="black"/>
<path d="M57.3047 15.0508C58.3047 15.9508 59.5047 16.8508 61.0047 17.7508C60.3047 16.2508 59.2047 15.5508 57.3047 15.0508Z" fill="black"/>
<path d="M47.4043 32.8508C48.4043 32.3508 49.4043 31.7508 50.5043 31.0508C49.3043 31.0508 48.3043 31.6508 47.4043 32.8508Z" fill="black"/>
<path d="M51.5043 34.8531C50.2043 34.5531 49.0043 34.4531 47.9043 34.4531C49.3043 35.2531 50.3043 35.3531 51.5043 34.8531Z" fill="black"/>
<path d="M47.7041 33.8508C49.2041 33.4508 50.5041 33.0508 51.6041 32.5508C49.9041 32.6508 48.7041 32.9508 47.7041 33.8508Z" fill="black"/>
<path d="M59.3047 14.4531C60.2047 15.1531 60.9047 15.9531 61.8047 16.5531C61.5047 15.4531 60.7047 14.5531 59.3047 14.4531Z" fill="black"/>
<path d="M20.6041 33.3507C20.6041 32.4507 21.8041 31.6507 23.1041 31.7507C24.6041 31.8507 25.8041 32.6507 25.7041 33.8507C25.6041 34.8507 24.4041 35.7507 23.3041 35.7507C22.1041 35.7507 20.5041 34.2507 20.6041 33.3507Z" fill="black"/>
<path d="M19.0049 28.4512C21.1049 27.0512 24.3049 27.5512 26.2049 29.3512C24.8049 29.7512 24.0049 28.8512 22.8049 28.7512C21.8049 28.6512 20.5049 28.6512 19.0049 28.4512Z" fill="black"/>
<path d="M40.7041 34.9506C42.1041 33.1506 44.9041 32.8506 47.0041 34.1506C45.9041 34.8506 45.0041 34.2506 44.0041 34.3506C43.1041 34.5506 42.0041 34.7506 40.7041 34.9506Z" fill="black"/>
<path d="M23.1049 34.45C23.4049 34.45 23.7049 34.15 23.7049 33.85C23.7049 33.55 23.4049 33.25 23.1049 33.25C22.8049 33.25 22.5049 33.55 22.5049 33.85C22.5049 34.15 22.8049 34.45 23.1049 34.45Z" fill="white"/>
<path d="M46.3042 30.9503C44.7042 30.4503 43.2042 29.9503 41.4042 30.7503C41.2042 30.4503 40.9042 30.1503 41.0042 29.9503C41.1042 29.6503 41.4042 29.3503 41.9042 29.3503C43.4042 28.8503 46.1042 29.5503 46.6042 30.4503C46.6042 30.5503 46.4042 30.6503 46.3042 30.9503Z" fill="black"/>
<path d="M30.9047 61.5504C30.0047 62.1504 29.0047 62.3504 28.0047 62.6504C27.9047 62.6504 27.9047 62.5504 27.8047 62.5504C28.5047 61.8504 29.5047 61.4504 30.9047 61.5504Z" fill="black"/>
<path d="M26.5049 61.5531C27.6049 60.8531 28.4049 59.9531 29.8049 59.9531C29.8049 59.9531 29.9049 60.0531 29.9049 60.1531C29.8049 60.2531 29.8049 60.3531 29.7049 60.3531C28.8049 60.8531 27.7049 61.3531 26.8049 61.8531H26.7049C26.8049 61.7531 26.8049 61.6531 26.5049 61.5531Z" fill="black"/>
<path d="M36.9043 50.6515C37.4043 50.6515 37.8043 50.7515 38.0043 50.8515C38.2043 50.8515 38.4043 50.6515 38.3043 50.4515C38.2043 50.3515 38.1043 50.2515 37.9043 50.2515C37.7043 50.1515 37.6043 50.1515 36.9043 50.6515Z" fill="black"/>
<path d="M35.0046 51.5523C35.2046 51.4523 35.3046 51.3523 35.4046 51.1523C35.5046 50.9523 35.5046 50.8523 35.3046 50.7523C35.1046 50.6523 34.9046 50.6523 34.9046 50.6523C34.7046 50.9523 34.7046 51.0523 34.7046 51.2523C34.5046 51.4523 34.8046 51.4523 35.0046 51.5523Z" fill="black"/>
<path d="M35.2042 53.7508C35.3042 53.6508 35.4042 53.4508 35.4042 53.3508C35.5042 53.0508 35.2042 53.0508 35.0042 53.0508C34.9042 53.0508 34.7042 53.2508 34.7042 53.3508C34.6042 53.5508 34.9042 53.8508 35.2042 53.7508Z" fill="black"/>
<path d="M23.4047 52.0509C22.9047 52.2509 22.6047 52.3509 22.3047 52.4509C22.1047 52.4509 21.9047 52.3509 21.8047 52.1509C21.9047 52.0509 22.0047 51.8509 22.0047 51.7509C22.5047 51.6509 22.6047 51.6509 23.4047 52.0509Z" fill="black"/>
<path d="M25.5047 52.4524C25.3047 52.3524 25.1047 52.3524 25.1047 52.2524C25.0047 52.1524 25.0047 51.9524 25.2047 51.8524C25.4047 51.7524 25.4047 51.6524 25.6047 51.7524C25.7047 51.8524 25.9047 51.9524 25.9047 52.1524C25.8047 52.2524 25.6047 52.3524 25.5047 52.4524Z" fill="black"/>
<path d="M25.7045 54.7508C25.6045 54.6508 25.4045 54.5508 25.4045 54.4508C25.3045 54.2508 25.5045 54.1508 25.7045 54.0508C25.8045 54.0508 26.0045 54.1508 26.1045 54.2508C26.2045 54.4508 26.1045 54.6508 25.7045 54.7508Z" fill="black"/>
<path d="M27.8047 63.8496C27.2047 63.0496 25.2047 57.5496 23.5047 59.1496C22.7047 59.7496 24.4047 61.3496 24.9047 61.8496C25.3047 62.3496 25.6047 62.8496 26.1047 63.2496C26.3047 63.4496 27.8047 63.8496 27.8047 63.8496Z" fill="#BBBBBA"/>
<path d="M38.9045 55.8501C38.9045 56.8501 38.1045 62.6501 35.8045 60.6501C35.0045 59.9501 35.5045 58.2501 36.1045 57.4501C36.2045 57.2501 38.9045 55.2501 38.9045 55.8501Z" fill="#BBBBBA"/>
<path d="M17.9043 52.0526C18.3043 52.6526 18.7043 53.1526 18.9043 53.6526C20.4043 56.3526 22.6043 56.7526 25.9043 56.0526C27.6043 55.6526 28.5043 54.3526 29.1043 53.0526C27.5043 51.3526 26.0043 49.6526 24.5043 48.0526C25.1043 46.4526 26.5043 45.6526 28.1043 45.2526C29.7043 44.8526 31.3043 44.7526 32.9043 45.2526C33.4043 45.3526 34.0043 45.5526 34.4043 45.8526C35.9043 46.9526 36.1043 47.9526 34.7043 49.2526C33.4043 50.5526 32.0043 51.7526 30.5043 53.0526C33.4043 55.6526 36.7043 55.7526 39.8043 53.2526C40.8043 52.4526 41.9043 51.7526 42.5043 50.6526C42.7043 50.2526 43.3043 49.2526 43.6043 48.8526C44.4043 49.4526 44.0043 50.0526 43.7043 50.5526C43.2043 51.4526 42.9043 51.8526 42.2043 52.6526C41.5043 53.3526 40.1043 54.6526 39.7043 55.5526C39.1043 56.5526 38.0043 57.1526 36.9043 57.9526C36.1043 58.5526 35.6043 59.0526 35.5043 60.0526C35.5043 61.9526 34.2043 63.2526 32.3043 64.1526C30.9043 64.8526 29.6043 64.9526 28.2043 64.2526C26.3043 63.3526 24.7043 61.7526 24.2043 59.6526C20.8043 58.8526 19.1043 56.4526 17.4043 54.0526C17.6043 53.4526 17.1043 52.9526 17.9043 52.0526ZM30.3043 54.3526C29.4043 55.0526 28.4043 55.7526 27.7043 56.5526C26.5043 57.6526 26.0043 59.0526 26.4043 60.4526C26.9043 62.0526 28.3043 62.9526 30.2043 63.5526C30.5043 63.6526 30.9043 63.6526 31.2043 63.5526C32.9043 62.9526 34.3043 61.9526 34.6043 60.3526C34.9043 58.7526 34.7043 57.1526 33.2043 56.1526C32.1043 55.2526 31.1043 54.8526 30.3043 54.3526Z" fill="black"/>
<path d="M28.0045 46.85C28.6045 46.65 29.3045 46.45 29.9045 46.35C30.0045 46.35 30.1045 46.35 30.2045 46.35C30.4045 46.35 30.5045 46.35 30.7045 46.35C31.0045 46.45 31.2045 46.55 31.8045 46.75C31.9045 46.85 32.1045 46.75 32.1045 46.65C32.2045 46.55 32.1045 46.35 32.0045 46.35C31.5045 46.15 31.1045 45.95 30.8045 45.95C30.5045 45.85 30.4045 45.85 30.1045 45.95C30.0045 45.95 29.9045 45.95 29.8045 45.95C29.1045 46.05 28.4045 46.25 27.8045 46.55C27.7045 46.55 27.6045 46.75 27.6045 46.85C27.8045 46.85 27.9045 46.85 28.0045 46.85Z" fill="white"/>
<path d="M33.5043 92.4507C33.3043 92.6507 33.0043 92.6507 32.8043 92.4507C32.6043 92.2507 32.5043 92.0507 32.5043 91.7507C32.3043 91.3507 32.2043 90.8507 32.1043 90.3507C31.8043 89.2507 31.3043 87.9507 31.8043 86.9507C32.2043 86.1507 33.0043 85.6507 33.9043 85.2507C34.1043 85.1507 34.3043 84.9507 34.5043 85.0507C34.7043 85.0507 34.8043 85.1507 34.9043 85.2507C36.0043 86.1507 36.8043 87.3507 37.4043 88.6507C37.8043 89.5507 38.2043 90.3507 38.3043 91.3507C38.4043 92.3507 38.0043 93.2507 37.2043 93.7507C36.9043 94.0507 36.4043 94.0507 36.0043 94.0507C35.5043 94.1507 34.9043 94.1507 34.5043 93.8507C33.4043 93.3507 33.0043 91.9507 32.5043 90.8507" fill="white"/>
<path d="M47.5046 81.95C47.8046 81.85 47.9046 81.75 48.2046 81.85C48.5046 81.95 48.7047 82.15 48.9047 82.25C49.6047 82.95 50.0046 83.85 50.1046 84.95C50.1046 85.35 50.1046 85.85 50.0046 86.25C49.7046 87.65 48.6046 88.85 47.3046 89.15C45.4046 89.65 44.0046 88.35 44.1046 86.55C44.0046 84.45 45.7046 82.65 47.5046 81.95Z" fill="white"/>
<path d="M58.8044 85.6521C59.0044 85.6521 59.1044 85.8521 59.2044 85.9521C59.7044 86.2521 60.2044 86.7521 60.5044 87.2521C62.0044 89.9521 57.7044 94.4521 55.3044 91.8521C54.4044 90.9521 54.2044 89.4521 54.7044 88.3521C55.2044 87.2521 57.5044 85.4521 58.8044 85.6521Z" fill="white"/>
<path d="M44.3046 93.5531C45.2046 92.9531 46.4046 92.4531 47.5046 92.4531C48.3046 92.4531 49.1046 92.6531 49.8046 92.8531C52.4046 93.7531 54.7046 95.5531 55.7046 98.0531C56.8046 100.553 57.2046 106.353 55.3046 108.253C53.7046 109.853 49.5046 106.953 47.2046 107.353C45.9046 107.553 45.6046 108.153 44.3046 107.953C43.2046 107.753 39.3046 109.553 37.9046 108.853C36.2046 107.853 37.2046 104.053 37.4046 102.253C38.0046 98.9531 41.6046 95.2531 44.3046 93.5531Z" fill="white"/>
<path opacity="0.3" d="M36.0043 93.3498C35.9043 93.7498 31.4043 91.7498 33.3043 89.9498C34.8043 88.2498 36.3043 92.1498 36.0043 93.3498Z" fill="#BBBBBA"/>
<path opacity="0.3" d="M45.5046 88.9509C43.9046 88.8509 42.4046 84.3509 44.9046 84.4509C47.2046 84.4509 47.6046 89.1509 45.5046 88.9509Z" fill="#BBBBBA"/>
<path opacity="0.3" d="M55.6043 92.4501C55.3043 92.1501 55.2043 91.7501 55.1043 91.4501C54.9043 90.7501 54.8043 89.9501 54.7043 89.3501C54.5043 88.3501 54.4043 86.9501 55.6043 86.4501C56.6043 85.9501 58.1043 86.7501 58.6043 87.7501C59.1043 88.8501 57.7043 94.1501 55.6043 92.4501Z" fill="#BBBBBA"/>
<path opacity="0.3" d="M43.4045 100.15C44.3045 102.05 45.1045 104.35 44.1045 106.25C43.2045 107.75 41.4045 108.45 39.7045 108.55C39.3045 108.55 38.8045 108.55 38.5045 108.35C37.9045 108.05 37.6045 107.45 37.4045 106.85C36.5045 104.55 36.5045 101.95 37.4045 99.75C37.8045 98.65 39.4045 95.35 40.8045 95.25C42.5045 95.25 42.9045 99.05 43.4045 100.15Z" fill="#BBBBBA"/>
<path d="M57.2045 102.653C57.2045 103.353 57.3045 104.253 57.3045 105.153C57.4045 106.953 56.4045 108.253 55.0045 109.153C54.7045 109.453 54.1045 109.453 53.6045 109.453C52.6045 109.253 51.5045 108.953 50.6045 108.553C49.1045 107.953 47.5045 107.753 45.9045 108.253C44.5045 108.553 43.2045 109.153 41.7045 109.353C40.9045 109.553 40.0045 109.653 39.2045 109.653C37.5045 109.453 36.4045 107.953 36.6045 106.253C36.9045 104.653 37.1045 103.053 37.4045 101.453C37.8045 99.3526 38.9045 97.5526 40.3045 96.1526C41.2045 95.1526 42.4045 94.2526 43.6045 93.4526C44.2045 93.0526 44.8045 92.6526 45.5045 92.4526C49.3045 91.1526 50.7045 91.9526 53.4045 94.5526C54.3045 95.4526 54.9045 96.5526 55.6045 97.5526C56.0045 98.3526 56.5045 99.0526 56.7045 99.9526C56.8045 100.653 56.9045 101.553 57.2045 102.653ZM41.0045 102.753C41.0045 102.853 41.1045 102.953 41.1045 102.953C40.3045 103.353 39.5045 103.853 38.7045 104.253C37.6045 104.853 37.5045 105.153 37.7045 106.353C37.7045 106.553 37.8045 106.753 37.9045 106.953C38.3045 108.453 39.3045 108.953 40.7045 108.753C41.3045 108.653 42.0045 108.453 42.6045 108.353C43.7045 108.053 44.8045 107.653 46.0045 107.453C47.5045 107.153 49.0045 107.153 50.6045 107.753C51.5045 108.153 52.6045 108.253 53.5045 108.653C54.3045 108.953 55.0045 108.653 55.5045 108.153C56.2045 107.453 56.6045 106.653 56.7045 105.753C56.8045 103.953 56.4045 102.153 56.0045 100.353C55.4045 98.0526 54.0045 96.2526 52.3045 94.5526C51.5045 93.7526 50.5045 92.9526 49.2045 93.0526C46.9045 93.0526 44.8045 93.5526 43.0045 95.0526C42.7045 95.3526 42.4045 95.4526 42.1045 95.7526C41.0045 96.5526 40.1045 97.5526 39.5045 98.7526C39.1045 99.6526 38.7045 100.453 38.4045 101.353C38.2045 101.753 38.0045 102.253 38.1045 102.753C39.6045 102.053 41.0045 101.353 42.5045 100.653C42.5045 100.753 42.6045 100.853 42.6045 100.953C42.4045 101.053 42.3045 101.153 42.1045 101.253C41.0045 101.753 39.9045 102.253 38.8045 102.853C38.3045 103.153 37.5045 103.353 37.7045 104.453C39.0045 103.753 40.0045 103.253 41.0045 102.753Z" fill="black"/>
<path d="M38.4043 90.0512C38.6043 91.6512 37.7043 93.4512 36.6043 93.9512C35.5043 94.4512 34.4043 94.2512 33.4043 93.5512C31.6043 92.0512 31.0043 90.3512 31.5043 88.0512C31.8043 86.8512 32.4043 85.9512 33.5043 85.3512C33.8043 85.1512 34.4043 85.2512 34.9043 85.4512C36.2043 86.0512 37.0043 87.1512 37.6043 88.3512C37.9043 88.9512 38.2043 89.6512 38.4043 90.0512ZM32.4043 89.3512C32.7043 90.5512 33.4043 91.7512 34.7043 92.5512C36.2043 93.5512 37.4043 93.1512 37.8043 91.3512C38.0043 90.4512 37.6043 89.7512 37.3043 89.0512C36.8043 87.8512 36.0043 86.8512 34.8043 86.1512C34.4043 85.8512 33.9043 85.8512 33.5043 86.2512C32.8043 87.0512 32.3043 88.0512 32.4043 89.3512Z" fill="black"/>
<path d="M49.7041 84.2523C49.9041 85.8523 49.2041 87.2523 48.2041 88.4523C47.4041 89.3523 44.9041 88.8523 44.2041 87.8523C43.0041 86.1523 43.7041 83.7523 44.7041 82.6523C45.4041 82.0523 46.2041 81.6523 47.0041 81.1523C47.5041 80.8523 47.9041 81.0523 48.3041 81.4523C49.0041 82.0523 49.6041 83.2523 49.7041 84.2523ZM45.1041 87.4523C45.9041 87.1523 46.6041 86.8523 47.3041 86.5523C46.1041 87.3523 46.1041 87.3523 45.7041 88.0523C46.1041 88.0523 46.6041 87.9523 46.8041 88.1523C47.7041 88.6523 48.0041 88.0523 48.3041 87.5523C48.6041 87.0523 48.9041 86.4523 49.1041 85.7523C49.4041 84.2523 48.7041 82.5523 47.4041 81.8523C46.0041 82.7523 44.5041 83.5523 44.7041 85.7523C45.4041 85.4523 46.0041 85.2523 46.6041 85.0523C46.3041 85.3523 45.9041 85.5523 45.6041 85.7523C44.7041 86.2523 44.7041 86.2523 45.1041 87.4523Z" fill="black"/>
<path d="M54.2041 90.351C54.0041 88.651 55.1041 86.451 56.7041 85.751C58.1041 85.051 59.4041 85.451 60.1041 86.751C60.7041 88.151 60.6041 89.451 59.7041 90.651C58.8041 91.851 57.7041 92.751 56.0041 92.451C54.7041 92.151 54.4041 91.851 54.2041 90.351ZM55.8041 88.651C55.6041 88.951 55.5041 89.151 55.1041 89.651C55.8041 89.451 56.3041 89.351 56.8041 89.251V89.351C56.4041 89.651 55.9041 89.751 55.3041 90.151C55.8041 90.751 56.2041 91.251 56.7041 91.751C57.9041 91.551 58.7041 90.951 59.4041 89.751C60.0041 88.751 59.9041 87.351 59.1041 86.451C58.9041 86.251 58.6041 86.151 58.2041 86.151C57.2041 86.051 55.7041 87.151 55.4041 88.251C55.5041 88.451 55.7041 88.651 55.8041 88.651Z" fill="black"/>
<path d="M55.8047 88.6503C56.1047 88.2503 56.6047 88.0503 57.1047 88.2503C56.6047 88.3503 56.2047 88.5503 55.8047 88.6503Z" fill="black"/>
</svg>
