<svg width="110" height="102" viewBox="0 0 110 102" fill="none" xmlns="http://www.w3.org/2000/svg">
<g clip-path="url(#clip0_13513_4917)">
<path d="M43.29 16.8625C42.6817 16.8625 42.7831 16.9647 42.0734 16.9647C41.8707 16.3514 41.5665 15.7382 41.4651 15.2272C40.4513 11.8544 39.5389 8.4817 38.525 5.10895C38.4236 4.80234 38.3223 4.39352 38.3223 3.9847C38.4236 3.67809 38.7278 3.26927 38.8292 3.37148C39.1333 3.37148 39.4375 3.78029 39.6402 3.9847C40.0458 4.90454 40.1472 5.72218 40.4513 6.64202C41.4651 10.0148 42.2762 13.2853 43.29 16.8625Z" fill="#E8443C"/>
<path d="M31.9354 19.3171C31.3271 19.5215 31.5299 19.6237 30.8202 19.7259C30.4146 19.1127 29.9077 18.7039 29.6036 18.1929C27.5759 15.2289 27.8801 15.9444 25.7511 12.9804C25.5483 12.6738 25.3455 12.265 25.2441 11.9584C25.2441 11.6518 25.3455 11.243 25.4469 11.243C25.7511 11.1408 26.1566 11.4474 26.3593 11.6518C26.9676 12.3672 27.3732 13.1848 28.0829 14.0025C30.2119 16.8642 29.8064 16.1488 31.9354 19.3171Z" fill="#E8443C"/>
<path d="M75.5294 19.5206C75.0225 19.2139 75.0225 19.3162 74.5156 19.0095C74.8198 18.3963 75.1239 17.7831 75.4281 17.3743C77.253 14.3081 76.746 14.9214 78.6723 11.8552C78.8751 11.5486 79.0778 11.1398 79.382 10.9354C79.6861 10.8332 80.193 10.6288 80.2944 10.731C80.5986 10.9354 80.4972 11.3442 80.3958 11.6508C79.9903 12.5707 79.382 13.1839 78.9765 14.1037C77.1516 16.9654 77.5571 16.25 75.5294 19.5206Z" fill="#E8443C"/>
<path d="M54.34 15.9439C54.0359 16.0461 53.9345 16.0461 53.7317 15.9439C53.4276 15.7395 53.3262 14.9218 53.4276 14.6152C53.4276 13.5932 53.4276 12.1623 53.3262 11.3447C53.3262 9.40281 53.4276 4.5992 53.4276 2.55511C53.5289 1.94188 53.4276 1.22645 53.6303 0.613226C53.8331 0.102204 53.4276 0 54.1372 0C54.8469 0 54.6441 0.613226 54.7455 1.02204C54.8469 4.29258 54.6441 11.3447 54.6441 14.6152C54.6441 15.1263 54.5428 15.5351 54.34 15.9439Z" fill="#E8443C"/>
<path d="M64.5801 16.8654C64.5801 16.5588 64.5801 16.2522 64.6815 15.9456C64.8842 15.2301 65.2898 14.5147 65.4925 13.7993C66.2022 11.653 67.0133 9.60888 67.7229 7.46259C68.1285 6.54275 68.2299 5.52071 68.8381 4.60087C68.9395 4.39646 69.3451 4.29425 69.7506 4.08984C69.852 4.39646 69.9534 4.70307 69.9534 5.00968C68.7368 8.58684 67.3174 12.0618 65.9994 15.6389C65.7967 16.15 65.3911 16.5588 64.9856 17.0698C64.9856 16.9676 64.6815 16.9676 64.5801 16.8654Z" fill="#E8443C"/>
<path d="M61.6406 71.0319C62.2489 71.0319 62.1475 70.9297 62.8572 70.9297C63.06 71.5429 63.3641 72.1561 63.4655 72.6672C64.4793 76.0399 65.3918 79.4127 66.4056 82.7854C66.507 83.092 66.6084 83.5008 66.6084 83.9096C66.507 84.2163 66.2028 84.6251 66.1014 84.5229C65.7973 84.5229 65.4932 84.1141 65.2904 83.9096C64.8849 82.9898 64.7835 82.1722 64.4793 81.2523C63.4655 77.9818 62.6544 74.609 61.6406 71.0319Z" fill="#E8443C"/>
<path d="M53.8345 71.9517C54.1386 71.8494 54.24 71.8494 54.4428 71.9517C54.7469 72.1561 54.8483 72.9737 54.7469 73.2803C54.7469 74.3023 54.7469 75.7332 54.8483 76.5509C54.8483 78.4927 54.7469 83.2963 54.7469 85.3404C54.6455 85.9537 54.7469 86.6691 54.5442 87.2823C54.4428 87.8955 54.7469 87.9977 54.1386 87.8955C53.429 87.8955 53.6317 87.2823 53.5303 86.8735C53.429 83.603 53.6317 76.5508 53.6317 73.2803C53.6317 72.8715 53.7331 72.4627 53.8345 71.9517Z" fill="#E8443C"/>
<path d="M47.3462 71.1335C47.3462 71.4401 47.3462 71.7467 47.2448 72.0533C47.0421 72.7687 46.6365 73.4842 46.4338 74.1996C45.7241 76.3459 44.913 78.39 44.2034 80.5363C43.7978 81.4561 43.6964 82.4781 43.0882 83.398C42.9868 83.6024 42.5812 83.7046 42.1757 83.909C42.0743 83.6024 41.8716 83.398 41.9729 83.0914C43.1895 79.5142 44.6089 76.0393 45.9269 72.4621C46.1296 71.9511 46.5352 71.5423 46.9407 71.0313C47.0421 71.0313 47.2448 71.0312 47.3462 71.1335Z" fill="#E8443C"/>
<path d="M106.755 87.5907C106.755 87.5907 106.349 88.1017 106.349 88.2039C105.031 90.3502 103.105 92.0877 100.976 93.5185C99.2524 94.745 97.5289 95.9715 95.6026 96.8913C95.0957 97.1979 94.5888 97.4023 93.9805 97.6067C92.6625 98.1177 91.3446 98.4243 90.0266 98.8332C89.9252 98.8332 89.9252 98.8332 89.8238 98.9354C89.7225 98.9354 89.6211 99.0376 89.5197 99.0376C89.4183 98.9354 89.3169 98.8332 89.3169 98.6288C88.9114 97.9133 87.999 96.5847 87.0865 95.1538C86.9851 94.9494 86.7824 94.745 86.681 94.5406C86.0727 93.5185 85.363 92.5987 84.8561 91.7811C84.8561 91.7811 84.8561 91.6789 84.7547 91.6789C84.4506 91.1678 84.2478 90.759 84.045 90.4524C81.3077 85.1378 78.8745 79.6187 75.022 75.224C73.5013 73.3843 71.6764 71.749 69.8515 70.1137C68.2294 68.6829 66.5059 67.3542 64.7824 66.0256C62.9575 64.4925 61.234 62.9594 59.5105 61.4264C59.0036 61.0175 58.4966 60.5065 57.9897 59.9955C57.8884 59.8933 57.8883 59.8933 57.787 59.7911C57.6856 59.6889 57.5842 59.6889 57.5842 59.5867C57.3814 59.4845 57.2801 59.2801 57.1787 59.1779C57.0773 59.0757 57.0773 59.0757 56.9759 58.9735C56.6718 58.6668 56.469 58.4624 56.1648 58.1558C55.5566 57.6448 55.0496 57.0316 54.5427 56.5205C54.34 56.3161 54.1372 56.1117 53.9344 55.9073C53.022 54.9875 52.1095 54.0676 51.2985 53.1478C50.893 52.739 50.6902 52.4324 50.2847 52.0236C49.3722 51.1037 48.3584 49.9795 48.1556 48.6508C47.6487 46.9133 48.257 45.1759 48.8653 43.5406C49.7778 42.9274 50.1833 42.0075 50.386 40.5767C50.386 40.1678 50.4874 39.759 50.4874 39.3502V39.248C50.4874 39.1458 50.5888 39.0436 50.5888 38.9414C50.6902 38.6348 50.893 38.3282 50.9943 38.0216C51.5013 36.6929 52.2109 36.0797 53.022 35.4664C53.2248 35.262 53.5289 35.1598 53.833 34.9554C54.0358 34.8532 54.34 34.6488 54.5427 34.4444C54.5427 34.4444 54.6441 34.4444 54.6441 34.3422C54.8469 34.24 54.9483 34.1378 55.151 33.9334C55.3538 33.729 55.5566 33.6268 55.7593 33.3201C55.8607 33.2179 56.0635 33.0135 56.1648 32.8091C56.2662 32.7069 56.2662 32.6047 56.3676 32.5025C56.469 32.4003 56.469 32.2981 56.5704 32.1959C58.8008 28.0055 59.2063 27.0857 62.045 27.4945C62.7547 27.5967 63.4644 27.5967 64.2754 27.6989C66.5059 29.0276 68.7363 29.8452 71.575 29.232C71.8791 29.1298 72.1833 29.1298 72.386 29.1298C74.6165 29.743 76.6441 30.765 77.9621 32.2981C79.9897 34.751 81.6119 39.759 82.5243 42.6208C82.7271 43.3362 82.9298 44.0516 83.234 44.767C83.5381 46.1979 83.8423 47.731 84.2478 49.1618C84.6533 50.8993 85.363 52.4324 86.3768 54.0676C86.681 54.5787 86.9851 55.0897 87.2893 55.6007C89.9252 61.9374 93.0681 68.0696 96.7178 73.9975C97.022 74.4063 97.4275 74.6107 97.7317 75.1217C99.6579 78.3923 103.308 83.0937 106.755 87.5907Z" fill="white"/>
<path d="M94.0836 97.6039C95.0975 97.1951 96.0099 96.684 96.9223 96.173C94.4891 92.5959 89.8256 85.5438 87.7979 81.5578C85.973 77.8784 83.7426 74.1991 80.9039 71.1329C75.9362 65.9205 69.7518 62.9566 64.0744 58.664C59.9177 55.5979 54.95 51.5097 49.8809 50.5898C49.8809 51.4075 51.3002 52.1229 51.4016 53.0428C55.6597 57.6419 60.2219 61.9345 64.9868 65.9205C68.5352 68.7822 70.867 72.4616 73.8071 75.9365C78.9776 81.9666 84.9592 91.9826 89.6228 99.0347C91.1435 98.5237 92.6643 98.1149 94.0836 97.6039Z" fill="#B9B9B8"/>
<path d="M107.161 86.7713C107.06 87.078 106.857 87.2824 106.756 87.589C103.309 83.092 99.8615 78.4928 97.5297 75.3245L97.327 75.0178C95.8062 72.9738 94.4883 70.7253 93.2717 68.579C90.8385 64.2864 88.5067 59.8916 85.7694 55.7012C84.1473 53.0439 83.1334 50.2844 82.6265 47.2182C82.0182 44.2543 81.5113 41.2904 80.5989 38.4287C79.9906 36.7934 79.0781 35.2603 78.2671 33.7273C76.8477 31.2744 74.5159 30.2523 71.7786 30.6611C69.244 31.07 67.115 30.4567 64.8846 29.2303C63.9721 28.7193 63.1611 28.4126 62.2486 28.2082C60.7279 27.7994 59.4099 28.2082 58.903 29.6391C58.3961 30.8655 57.7878 31.8876 56.8754 32.7052C56.774 32.8074 56.6726 32.9096 56.5712 32.9096C56.4698 33.0118 56.2671 33.114 56.1657 33.2162C55.8615 33.4207 55.5574 33.6251 55.2532 33.8295C55.0505 33.9317 54.9491 34.0339 54.7463 34.1361C54.7463 34.1361 54.6449 34.1361 54.6449 34.2383C54.4422 34.3405 54.138 34.5449 53.9353 34.7493C53.4284 35.0559 53.0228 35.5669 52.7187 35.9758C52.5159 36.2824 52.3132 36.589 52.2118 36.9978C52.009 37.611 51.9076 38.3265 51.9076 39.0419C52.009 41.4948 50.9952 43.5389 49.88 45.583C48.8661 47.116 49.6772 51.102 51.2993 52.2263C51.4007 52.2263 51.4007 52.3285 51.5021 52.3285C53.8339 53.6571 55.456 55.599 57.4837 57.3365C57.7878 57.5409 57.9906 57.8475 58.2947 58.0519C58.3961 58.1541 58.5989 58.2563 58.7002 58.3585C58.903 58.5629 59.1058 58.6651 59.2072 58.8695C60.4238 59.9938 61.6403 61.118 62.8569 62.3445C65.2901 64.7974 67.7233 67.1481 69.9537 69.8054C70.6634 70.6231 71.3731 71.5429 72.0827 72.3605C75.6311 76.9597 78.5712 81.9677 81.8155 86.6691C82.6265 87.7934 83.3362 89.0198 84.1473 90.1441C85.4652 92.086 87.797 95.4587 90.0274 98.6271C90.0274 98.6271 90.0274 98.6271 89.9261 98.6271C89.9261 98.6271 89.8247 98.6271 89.8247 98.7293C89.3178 98.9337 88.8108 99.0359 88.3039 99.2403C84.0459 92.9036 79.0781 85.4427 75.4284 80.2303C72.7924 76.3465 69.9537 72.7693 66.9122 69.09C65.2901 67.1481 63.3638 65.5128 61.6403 63.6732C60.3224 62.4467 59.0044 61.2202 57.6864 59.9938C57.585 59.8916 57.3823 59.7894 57.2809 59.585C57.0781 59.4828 56.9767 59.2784 56.8754 59.1762C56.4698 58.7673 56.0643 58.4607 55.6588 58.0519C54.138 56.621 52.4145 55.2924 50.8938 53.8615C49.4744 52.5329 48.562 50.9998 48.1565 49.1601C48.0551 48.6491 47.5482 48.2403 47.244 47.6271C46.9399 47.0138 46.6357 46.4006 46.433 45.7874C46.1288 44.9697 46.6357 44.2543 47.4468 44.0499C47.9537 43.8455 48.4606 43.6411 48.7648 43.4367C49.6772 42.8235 50.0827 41.9036 50.2855 40.4728C50.2855 40.0639 50.3869 39.6551 50.3869 39.2463V39.1441V38.9397C50.4883 38.1221 50.5897 37.4066 50.5897 36.6912C50.5897 36.2824 50.5897 35.8736 50.3869 35.4647C50.3869 35.2603 50.2855 35.0559 50.0827 34.8515C49.6772 33.8295 49.88 32.9096 50.5897 32.1942C51.6035 31.3766 52.2118 32.3986 52.7187 32.9096C52.9214 32.9096 53.1242 32.8074 53.327 32.7052C53.8339 32.603 54.2394 32.3986 54.6449 32.092C54.7463 31.9898 54.9491 31.8876 55.0505 31.7854C55.9629 31.1722 56.5712 30.2523 56.9767 29.2303C57.585 28.106 58.2947 26.9818 59.0044 25.9597C59.7141 24.9377 60.1196 25.0399 61.2348 25.8575C62.1473 26.4708 62.9583 27.084 63.8708 27.595C66.1012 28.9237 68.3316 29.7413 71.1703 29.1281C71.4744 29.0259 71.7786 29.0259 71.9814 29.0259C72.2855 28.9237 72.5896 28.8215 72.8938 28.5148C73.5021 27.7994 74.2118 28.0038 74.8201 28.617C75.8339 29.8435 76.9491 30.8655 77.9629 32.092C80.3961 34.7493 81.2072 37.9176 82.0182 41.2904C82.221 42.4146 82.5251 43.6411 82.7279 44.7653C83.032 46.1962 83.3362 47.7293 83.7417 49.1601C84.1473 50.8976 84.8569 52.4307 85.8708 54.0659C86.1749 54.577 86.479 55.088 86.7832 55.599C88.9122 58.9718 90.8385 62.5489 92.8661 66.1261C96.1104 71.9517 99.8615 77.4707 103.815 82.7854C104.829 83.603 105.539 84.5229 107.161 86.7713Z" fill="#020203"/>
<path d="M63.8717 60.5062C61.5399 59.9952 60.526 58.1555 59.9177 55.907C59.4108 53.6585 60.0191 51.8189 61.844 50.5924C63.5675 49.4681 64.0744 48.0373 63.6689 45.9932C63.3647 44.5623 63.5675 42.9271 64.8855 41.905C65.7979 40.9852 66.609 40.883 67.6228 41.5984C69.5491 43.1315 71.374 43.9491 73.8071 42.9271C74.0099 42.8249 74.5168 42.9271 74.821 42.9271C77.5583 43.4381 80.1942 47.4241 79.5859 50.1836C79.2818 51.7166 78.4707 52.6365 76.7472 52.9431C72.5905 53.6585 72.0836 54.1696 69.6505 57.7467C69.4477 58.1555 69.1435 58.4621 68.9408 58.7688C67.3187 61.1195 66.609 61.4261 63.8717 60.5062Z" fill="#020203"/>
<path d="M57.484 35.6683C57.991 35.975 59.1062 36.486 60.12 37.0992C61.5393 38.019 62.1476 39.3477 61.7421 40.983C61.438 42.7204 60.3228 43.9469 58.5993 44.3557C58.0923 44.4579 57.2813 44.1513 56.8757 43.6403C55.355 41.9028 54.2398 39.9609 54.037 37.7124C53.7329 35.6683 54.8481 34.9529 57.484 35.6683Z" fill="#020203"/>
<path d="M61.742 31.8871C62.2489 31.376 62.6545 30.7628 63.2627 30.4562C64.0738 30.0474 64.5807 30.7628 65.0876 31.376C66.1015 32.7047 67.1153 34.1355 68.0277 35.6686C68.9402 37.0995 68.5346 37.9171 67.0139 38.5303C64.0738 39.859 61.9448 38.6325 61.6406 35.362C61.742 34.2377 61.8434 33.1135 61.742 31.8871Z" fill="#020203"/>
<path d="M55.7595 53.2494C55.2526 53.045 54.7457 53.045 54.4415 52.8406C52.6166 51.6141 51.1973 49.8766 50.3862 47.7303C49.8793 46.0951 50.4876 45.2774 52.0083 45.3796C53.0221 45.3796 53.8332 45.584 54.847 45.7884C56.6719 46.1973 57.483 47.1171 56.9761 49.059C56.7733 50.2854 56.165 51.5119 55.7595 53.2494Z" fill="#020203"/>
<path d="M74.0086 40.1674C72.4879 39.5542 71.1699 38.8388 71.3727 36.9991C71.4741 36.2836 71.1699 35.5682 71.1699 34.7506C71.1699 33.7285 71.7782 33.0131 72.6907 32.8087C73.7045 32.5021 74.5155 33.0131 74.9211 33.8307C75.5294 35.1594 76.239 36.3858 76.6446 37.7145C77.0501 39.452 75.7321 40.6784 74.0086 40.1674Z" fill="#020203"/>
<path d="M86.0744 67.5586C87.1896 68.785 87.1896 69.7049 86.3785 70.9313C85.0606 73.0776 82.9315 73.8953 80.5997 73.0776C79.4845 72.771 79.1804 72.1578 79.9914 71.3402C80.9039 70.3181 82.1205 69.3983 83.3371 68.7851C84.3509 68.1718 85.2633 67.9674 86.0744 67.5586Z" fill="#020203"/>
<path d="M71.8798 66.332C70.9674 64.2879 71.0688 63.3681 72.3867 62.346C72.7923 62.0394 73.1978 61.835 73.6033 61.5284C74.9213 60.9152 76.5434 60.6086 77.3545 58.8711C77.9628 60.6086 77.6586 61.324 76.3407 61.9372C75.631 62.2438 74.9213 62.4483 74.313 62.7549C73.2992 63.1637 72.4881 63.7769 72.6909 65.0034C72.4881 65.4122 72.184 65.821 71.8798 66.332Z" fill="#020203"/>
<path d="M83.5383 56.7227C85.7687 56.9271 86.2756 57.8469 85.2618 59.891C84.4507 58.9712 83.4369 58.2557 83.5383 56.7227Z" fill="#020203"/>
<path d="M84.2482 80.5352C84.0454 82.6815 84.0454 84.8277 83.8427 87.1784C83.0316 85.8498 83.133 83.2947 84.2482 80.5352Z" fill="#020203"/>
<path d="M81.309 84.6264C80.498 82.5823 81.1063 80.5383 82.0187 78.8008C81.8159 80.6405 81.6132 82.5823 81.309 84.6264Z" fill="#020203"/>
<path d="M110 82.8867C107.06 89.1212 102.396 94.8446 96.009 97.7064C92.2578 99.4438 88.2025 100.159 84.5527 101.999C88.608 98.2174 94.1841 97.2975 98.5435 94.027C103.004 91.0631 106.35 86.8727 110 82.8867Z" fill="black"/>
<path d="M59.613 42.6227C59.613 44.0535 60.7282 46.7108 60.6268 48.1417L62.0461 48.7549C61.8434 50.9012 60.424 52.3321 59.613 53.8651C59.613 53.9674 58.9033 53.9674 58.9033 54.0696C58.8019 54.274 58.7005 54.4784 58.4978 54.6828C58.295 54.9894 58.0922 55.296 57.8895 55.6026C57.3825 56.2159 56.8756 56.7269 56.3687 57.2379C56.0646 57.5445 55.7604 57.7489 55.4563 58.0555C55.3549 58.1577 55.1521 58.2599 55.0507 58.3621C54.1383 59.0776 53.2259 59.793 52.212 60.4062C51.5024 60.9173 50.6913 61.5305 49.9816 62.0415C48.9678 62.6547 47.954 63.1657 47.0415 63.8812C45.318 65.0054 44.2028 66.1297 42.9862 67.5605C42.5807 67.9694 42.2766 68.4804 41.871 68.8892C37.8157 72.5686 33.8618 76.5545 30.212 80.7449C30.212 80.7449 30.1107 80.8471 30.1107 80.9493C29.1982 81.9714 28.9954 83.0956 28.083 84.1177C24.5346 88.5124 22.0001 93.1116 18.8572 98.0175C18.6544 98.2219 18.1475 98.9373 17.9448 99.2439C16.7282 98.5285 14.4978 97.6086 13.1798 97.1998C10.6452 96.3822 8.11065 95.9734 6.083 94.2359C4.76503 93.1116 3.95397 91.783 3.34568 90.2499C3.24429 90.0455 3.24429 89.8411 3.14291 89.6367C3.04153 89.4323 2.94015 89.2279 2.94015 88.9213C2.83876 88.5124 2.73738 88.1036 2.636 87.6948C2.53462 87.286 2.53462 86.8772 2.43323 86.4684C2.33185 86.0595 2.33185 85.6507 2.33185 85.2419C2.33185 84.9353 2.23047 84.6287 2.23047 84.3221C2.23047 84.2199 2.23047 84.1176 2.23047 84.0154C2.53462 83.6066 2.83876 83.1978 3.14291 82.6868C5.17056 80.1317 7.09683 77.27 9.32724 74.9193C12.8756 71.2399 15.613 67.4583 18.0461 62.9613C18.9586 61.5305 20.7835 60.5084 21.3918 58.9754C22.507 56.3181 23.4194 53.5585 24.4332 50.799C26.6636 44.9734 29.1982 39.1477 32.1383 33.7309C32.3411 33.2199 32.6452 32.811 32.848 32.4022C33.5577 31.1758 34.6729 30.3581 35.8895 29.6427C37.4102 28.6207 36.8019 28.4163 38.6268 28.5185C39.1337 28.5185 39.5392 28.7229 40.0461 28.9273C40.3503 29.0295 40.5531 29.1317 40.9586 29.2339C42.2766 29.5405 44.4056 29.6427 49.4747 28.1096C52.3134 27.292 50.3872 28.6207 52.7189 30.4603C52.9217 30.6647 53.2259 30.8692 53.53 31.0736C53.6314 31.1758 53.7328 31.1758 53.8342 31.278C53.9355 31.3802 54.0369 31.3802 54.2397 31.4824C56.2673 32.5044 58.5991 33.1177 59.613 34.8551C59.8157 35.1617 59.9171 35.4684 60.0185 35.8772C60.0185 35.8772 60.0185 35.8772 60.0185 35.9794C60.2213 37.0014 59.7143 37.308 59.8157 38.5345C59.9171 39.9654 59.5116 41.0896 59.613 42.6227Z" fill="white"/>
<path d="M34.3685 31.8906C33.6589 32.2994 33.0506 33.6281 32.3409 33.9347C29.4008 39.4538 26.8662 45.1772 24.6358 51.0029C23.0137 55.3976 20.4791 58.6682 18.1473 62.6542C14.092 69.9107 8.41462 76.0429 3.24411 82.7884C2.83858 83.2994 2.43305 83.9127 2.12891 84.4237C2.23029 85.9568 2.43305 87.3876 2.83858 88.8185C3.3455 90.556 4.15656 92.1912 5.37315 93.5199C9.02292 88.0009 13.8893 83.1972 18.4515 78.2914C21.1888 75.4297 24.0275 72.3636 25.9538 68.6842C29.198 62.3475 28.9953 54.7844 31.2257 47.9367C32.8478 43.1331 35.7879 38.5339 34.3685 31.8906Z" fill="#B9B9B8"/>
<path d="M63.3641 48.753C62.6544 50.0816 61.8434 51.5125 61.1337 52.8412C60.6268 53.761 60.0185 54.5786 59.4102 55.3963C59.0047 55.8051 58.7005 56.1117 58.295 56.5205C57.8895 56.9293 57.3825 57.3382 56.8756 57.747C56.5715 58.0536 56.166 58.258 55.8618 58.4624C55.7604 58.5646 55.5577 58.6668 55.4563 58.769C54.9494 59.0756 54.4425 59.4845 53.9355 59.7911C52.6176 60.6087 51.2996 61.3241 49.9816 62.1418C48.9678 62.755 47.954 63.266 47.0415 63.9814C45.318 65.1057 44.2028 66.2299 42.9862 67.6608C42.5807 68.0696 42.2766 68.5806 41.871 68.9895C39.3365 72.0556 36.7005 75.1217 34.0646 78.0857C29.7051 83.0937 25.7512 88.4083 22.1014 94.0295C20.8848 95.8692 19.5669 97.8111 18.3503 99.6508C18.1475 99.4464 17.9448 99.3442 17.742 99.1398C20.8848 94.4384 23.9263 89.6347 27.0692 85.0355C27.9816 83.6047 29.0968 82.276 30.212 80.9474C30.212 80.8452 30.3134 80.8452 30.3134 80.743C30.8203 80.1297 31.2259 79.6187 31.7328 79.0055C34.977 75.2239 38.3226 71.6468 41.3641 67.763C43.2904 65.4123 45.5208 63.4704 48.1567 62.0396C50.3872 60.8131 52.5162 59.4845 54.6452 57.9514C54.7466 57.8492 54.9494 57.747 55.0507 57.6448C55.2535 57.4404 55.5577 57.3382 55.7604 57.1338C55.8618 57.0315 55.9632 57.0315 56.0646 56.9293C56.6729 56.4183 57.2812 55.9073 57.8895 55.2941C58.0922 55.0897 58.295 54.8853 58.4978 54.6808C58.7005 54.4764 58.9033 54.1698 59.106 53.9654C59.2074 53.8632 59.2074 53.761 59.3088 53.761C60.6268 52.1257 61.1337 50.1839 60.7282 48.3442C60.6268 47.7309 60.424 47.2199 60.1199 46.6067C59.613 45.4824 59.2074 44.3582 59.106 43.3362C59.0047 43.0295 59.0047 42.6207 59.0047 42.3141C59.0047 41.9053 59.0047 41.3943 59.0047 40.9855C59.0047 40.5766 59.0047 40.0656 59.106 39.5546C59.2074 38.9414 59.2074 38.2259 59.3088 37.6127C59.3088 37.3061 59.3088 36.9995 59.3088 36.6929C59.3088 35.0576 58.3964 34.0356 56.8756 33.9334C55.7604 33.9334 54.848 33.6267 53.9355 33.2179C53.6314 33.1157 53.3272 32.9113 53.0231 32.7069C53.0231 32.7069 53.0231 32.7069 52.9217 32.7069C52.719 32.6047 52.6176 32.5025 52.4148 32.4003C52.1107 32.0937 51.7051 31.7871 51.401 31.4804L51.2996 31.3782C49.7789 29.8452 47.6498 29.5386 45.7236 30.254C44.4056 30.765 43.189 30.9694 41.871 30.8672C41.3641 30.8672 40.7558 30.765 40.2489 30.6628C39.742 30.5606 39.3365 30.4584 38.8295 30.3562C37.106 29.9474 33.7604 31.9915 33.1521 33.7289C33.1521 33.8311 33.0507 33.9334 33.0507 34.0356C32.6452 36.7951 31.3272 38.9414 30.3134 41.3943C29.401 43.6428 28.3872 45.9935 27.2719 48.1398C25.6498 51.4103 24.1291 54.8853 22.2028 58.1558C22.0001 58.5646 21.6959 58.9734 21.4931 59.3822C21.2904 59.6889 21.189 59.8933 20.9862 60.1999C17.8434 65.0035 14.1936 69.5005 10.848 74.2019C10.4425 74.7129 10.0369 75.2239 9.73277 75.735C9.42863 76.1438 9.22586 76.4504 8.92171 76.8592C6.79268 79.7209 4.66365 82.6848 2.43323 85.5466C2.43323 85.24 2.33185 84.9333 2.33185 84.6267C2.33185 84.5245 2.33185 84.4223 2.33185 84.3201C2.33185 83.8091 2.23047 83.2981 2.23047 82.8893C6.38715 77.3702 10.6452 71.749 14.8019 66.2299C17.5392 62.4484 20.0738 58.4624 22.507 54.5786C23.8249 52.4324 24.7374 50.0816 25.8526 47.7309C26.9678 45.278 28.083 42.7229 29.1982 40.0656C30.0093 38.0215 30.7189 36.0796 31.53 34.24C32.2397 32.5025 33.4563 31.0716 35.0784 30.0496C35.5853 29.743 35.7881 29.1297 36.295 28.6187C36.8019 28.1077 37.2074 27.5967 37.7143 27.1879C38.424 26.6768 39.0323 26.8812 39.6406 27.5967C40.8572 29.1297 42.1752 29.6408 44.0001 29.1297C45.2166 28.8231 46.5346 28.6187 47.7512 28.2099C48.1567 28.1077 48.4609 27.9033 48.8664 27.6989C48.9678 27.5967 49.2719 27.3923 49.3733 27.2901C50.1844 26.5746 51.0968 26.4724 52.1107 26.9835C53.2259 27.6989 52.5162 28.6187 52.212 29.2319C52.5162 29.743 52.9217 30.254 53.3272 30.6628C53.6314 30.9694 53.9355 31.1738 54.2397 31.3782C54.4425 31.4804 54.5438 31.5826 54.7466 31.5826C55.4563 31.9915 56.2673 32.0937 57.1798 32.1959C57.9908 32.2981 58.8019 32.4003 59.7143 32.7069C60.1199 32.8091 60.6268 33.0135 61.0323 33.1157C62.1475 33.4223 62.2489 33.9334 61.8434 35.1598C61.6406 35.8752 61.4378 36.5907 61.2351 37.3061C61.0323 38.0215 60.9309 38.737 60.8295 39.4524C60.6268 40.9855 60.7282 42.4163 61.1337 43.8472C61.3365 44.3582 61.5392 44.767 61.742 45.278C61.8434 45.3802 61.8434 45.4824 61.9448 45.5847C62.3503 46.1979 62.4517 46.8111 63.1613 47.0155C63.6683 47.2199 63.871 48.0376 63.3641 48.753Z" fill="#020203"/>
<path d="M40.0469 28.7227C41.9732 30.1535 42.1759 30.7667 41.4663 32.2998C41.2635 32.7086 40.9593 33.1174 40.7566 33.6285C39.8441 34.9571 38.6275 35.9792 38.8303 37.8188C37.5123 36.6946 37.3096 35.877 38.222 34.5483C38.7289 33.9351 39.2358 33.4241 39.6414 32.7086C40.2497 31.7888 40.6552 30.9712 39.9455 29.8469C39.8441 29.8469 40.0469 29.4381 40.0469 28.7227Z" fill="#020203"/>
<path d="M59.8153 42.4159C57.6863 41.4961 56.9766 41.5983 55.9628 42.9269C55.6587 43.2336 55.4559 43.7446 55.2531 44.2556C54.5435 45.6865 54.3407 47.3217 52.6172 48.0372C54.2393 48.6504 55.0504 48.3438 55.76 46.9129C56.0642 46.1975 56.1656 45.4821 56.5711 44.7666C56.9766 43.8468 57.4835 43.0291 58.8015 43.0291C58.9029 43.1313 59.1057 42.8247 59.8153 42.4159Z" fill="#020203"/>
<path d="M55.1531 32.3997C53.1254 31.6842 52.3143 31.7864 51.4019 33.0129C51.0978 33.3195 50.895 33.7283 50.5908 34.1371C49.8812 35.3636 49.577 36.8967 47.8535 37.6121C49.4756 38.1231 50.2867 37.8165 50.9964 36.4878C51.3005 35.7724 51.5033 35.1592 51.9088 34.546C52.4157 33.7283 52.9226 32.9107 54.2406 32.9107C54.2406 33.0129 54.4434 32.7063 55.1531 32.3997Z" fill="#020203"/>
<path d="M44.8111 58.1562C42.4793 61.018 34.166 73.4869 31.9355 73.1803C32.4425 72.1583 43.189 58.5651 44.8111 58.1562Z" fill="#020203"/>
<path d="M17.3361 74.508C15.3085 75.019 13.1795 75.7344 10.8477 76.2454C11.9629 75.1212 14.396 74.3036 17.3361 74.508Z" fill="#020203"/>
<path d="M12.6738 72.9771C14.3973 71.5462 16.3236 71.444 18.3512 71.7506C16.425 72.1594 14.6001 72.5683 12.6738 72.9771Z" fill="#020203"/>
<path d="M0 80.4375C1.92627 81.1529 2.83871 83.2992 3.14286 85.2411C3.54839 87.0808 3.54839 88.9205 4.25806 90.5557C6.89401 95.0527 12.977 96.3814 17.6406 98.5277C19.3641 99.3453 20.9862 100.265 22.4055 101.492C20.682 100.674 18.9585 100.163 17.235 99.6519C11.8618 98.2211 5.37327 96.8924 2.63594 91.3734C1.01382 87.7962 3.24424 83.197 0 80.4375Z" fill="black"/>
</g>
<defs>
<clipPath id="clip0_13513_4917">
<rect width="110" height="102" fill="white"/>
</clipPath>
</defs>
</svg>
