<svg width="176" height="254" viewBox="0 0 176 254" fill="none" xmlns="http://www.w3.org/2000/svg">
<path d="M21.0832 205.954C15.0764 193.298 9.0237 180.551 5.57322 166.967C2.12274 153.383 1.40052 138.767 6.02027 125.538C12.222 107.758 27.6631 93.1539 28.9012 74.3539C29.4744 65.6991 26.8951 56.8149 29.1763 48.4581C30.3341 44.2052 32.6841 40.3879 34.9997 36.6279C41.4192 26.2306 47.8387 15.8333 54.2582 5.43604C57.4565 10.0787 57.1126 16.3721 55.3243 21.714C53.536 27.056 50.4753 31.905 48.4577 37.1667C44.9155 46.4062 44.7436 56.8952 47.9878 66.2493C48.4119 67.4759 48.9163 68.7139 49.7875 69.6654C51.9655 72.0269 55.6338 71.9581 58.8321 71.7403C68.6792 71.0754 78.7899 70.7544 88.2128 73.7235C94.0362 75.5576 99.3896 78.5954 104.697 81.6217C111.804 85.6568 119.336 90.1505 122.763 97.5673C127.418 107.644 123.016 119.852 126.489 130.398C129.687 140.096 139.339 147.903 138.537 158.083C137.677 168.973 125.618 175.003 119.955 184.334C115.679 191.361 115.255 199.993 114.945 208.212C114.808 211.96 114.705 215.892 116.367 219.251C117.857 222.243 120.757 224.971 120.196 228.261C119.6 231.804 115.473 233.351 111.999 234.234C100.158 237.249 88.0064 240.286 75.8553 238.98C63.7499 237.684 53.1921 231.46 41.6714 228.445C31.0907 225.694 25.4622 215.159 21.0832 205.954Z" fill="white"/>
<path d="M24.9363 238.522C24.6268 239.209 24.2829 239.943 23.6409 240.367C22.4831 241.135 20.947 240.597 19.6861 240.035C17.5653 239.095 15.4102 238.132 13.7136 236.561C12.017 234.991 10.8363 232.664 11.2261 230.383C11.4095 229.282 11.9482 228.273 12.5673 227.345C14.7797 224.055 18.1843 221.625 19.9497 218.082C21.4743 215.033 21.6348 211.502 21.7494 208.086C21.9214 203.146 22.1048 198.193 22.2768 193.253C22.3226 191.82 22.3914 190.33 23.0104 189.034C23.6409 187.739 24.9821 186.673 26.4151 186.845C28.0658 187.04 29.1089 188.69 29.8082 190.203C37.3626 206.287 31.8258 223.126 24.9363 238.522Z" fill="#BCBCBB"/>
<path d="M64.1975 209.519C64.1975 209.863 64.1861 210.241 63.9683 210.505C63.6473 210.883 63.0627 210.837 62.5812 210.78C61.0107 210.585 59.4173 210.539 57.8354 210.619C56.4598 210.699 55.0841 210.871 53.7429 211.158C53.4105 211.227 53.0666 211.307 52.7341 211.227C51.8171 211.009 51.5878 209.817 51.5534 208.877C51.37 203.821 48.8825 192.862 56.9298 193.401C64.2205 193.883 64.1517 204.188 64.1975 209.519Z" fill="#BCBCBB"/>
<path d="M30.1287 68.2554C26.4146 60.2883 24.2136 51.0832 26.8616 42.7035C27.7558 39.872 29.2346 37.1552 31.4814 35.2179C33.7282 33.2691 36.8119 32.1801 39.735 32.7303C39.4943 35.9974 39.265 39.253 39.0243 42.5201C38.3938 51.2781 37.7633 60.1737 39.5516 68.7712C39.735 69.6539 39.9414 70.5481 39.8267 71.4422C39.5401 73.6317 36.1699 76.9332 34.0606 76.0849C32.857 75.592 30.7363 69.5507 30.1287 68.2554Z" fill="#BCBCBB"/>
<path d="M57.7552 123.727C59.1537 122.294 60.7357 121.033 62.5125 120.093C66.0891 118.202 70.2388 117.755 74.2739 117.388C81.2895 116.746 88.5 116.265 95.2749 118.225C97.7624 118.947 100.216 120.025 102.038 121.859C103.861 123.693 104.961 126.387 104.388 128.909C99.8487 129.711 95.6188 126.731 91.2741 125.172C84.9463 122.913 77.9881 123.67 71.3164 124.472C68.1181 124.851 64.8625 125.252 61.9737 126.662C60.3344 127.464 55.8293 132.577 54.0181 131.671C51.2898 130.319 56.3223 125.195 57.7552 123.727Z" fill="#BCBCBB"/>
<path d="M115.153 177.628C115.21 176.986 115.221 176.24 114.728 175.828C114.407 175.553 113.96 175.495 113.548 175.53C111.037 175.713 109.558 178.35 108.378 180.574C101.74 193.115 90.5521 202.583 82.2067 214.07C81.5762 214.941 80.9572 216.145 81.5992 217.004C82.1953 217.807 83.4218 217.658 84.3962 217.428C88.6033 216.397 95.1031 215.766 98.7484 213.393C101.855 211.376 103.666 206.962 105.512 203.787C110.2 195.705 114.281 187.039 115.153 177.628Z" fill="#BCBCBB"/>
<path d="M62.5699 210.78L65.3441 219.802L98.2555 215.285L101.431 211.983L105.34 214.517L112.126 231.471L118.534 245.365L94.4496 249.985L53.9036 251.727L33.7624 249.343C33.7624 249.343 26.2539 247.268 26.2539 245.376C26.2539 243.473 33.7624 217.165 33.7624 217.165L37.488 213.68L53.7431 211.17L62.5699 210.78Z" fill="#EB584A"/>
<path d="M34.8742 216.168C35.9174 214.414 37.4535 213.428 39.4481 212.958C42.2796 212.293 45.0652 211.479 48.1374 210.654C48.6876 208.694 48.252 206.412 48.3552 204.154C48.55 199.58 48.7908 195.018 48.9054 190.444C48.9513 188.449 48.7335 186.443 48.6303 184.299C49.0774 184.105 49.5818 183.933 50.0288 183.68C51.9662 182.58 52.4476 181.434 51.9088 179.187C51.691 178.293 51.3815 177.433 51.1752 176.539C50.9803 175.69 50.8657 174.819 50.2696 173.971C50.1205 175.117 49.9486 176.264 49.834 177.421C49.5703 179.92 48.9513 182.316 47.3579 184.311C46.693 185.148 45.8447 185.858 44.9964 186.512C42.0159 188.782 39.3793 188.495 36.3989 186.053C33.2694 183.486 31.5957 180.115 29.7386 176.768C26.1964 170.383 24.7635 163.448 24.4655 156.214C24.4196 155.114 24.8782 153.784 23.0555 153.474C22.7918 153.429 22.7345 152.213 22.5855 151.514C22.1499 151.377 21.6569 151.216 21.015 151.01C21.2213 150.288 21.2328 149.565 21.5881 149.107C23.7203 146.379 25.7723 143.559 28.1682 141.082C29.9221 139.271 32.0084 137.655 34.2208 136.451C38.5769 134.078 43.3915 134.193 48.1717 134.674C49.2378 134.778 50.0632 134.778 50.9459 134.055C54.9008 130.811 58.9359 127.659 62.9137 124.438C63.5556 123.922 64.06 123.245 64.702 122.753C65.2064 122.374 65.8369 122.156 66.6852 121.721C66.8571 122.844 66.9602 123.521 67.0519 124.174C67.3385 124.22 67.5334 124.323 67.6825 124.266C72.0729 122.604 76.5895 122.42 81.1863 123.028C84.4534 123.452 87.7205 123.876 90.9646 124.392C92.0307 124.564 93.1197 124.908 94.0826 125.412C97.0287 126.971 100.089 128.129 103.414 128.519C103.769 128.564 104.125 128.702 104.457 128.84C104.617 128.908 104.721 129.069 104.916 129.252C104.377 130.88 103.288 131.293 101.763 130.777C99.2526 129.917 96.6963 129.138 94.2546 128.117C90.8041 126.673 87.1702 126.375 83.4331 125.951C82.5963 127.361 81.6448 128.53 81.7022 130.41C81.748 131.866 80.9112 133.391 80.3036 134.812C77.22 142.091 75.3171 149.691 73.8956 157.441C73.4715 159.722 73.5403 162.038 74.4573 164.204C75.7412 167.23 77.22 170.177 78.5268 173.203C79.9368 176.481 81.5187 179.714 82.5275 183.119C83.6395 186.856 83.1236 190.088 79.9253 193.287C75.9017 197.322 71.0412 200.004 66.5705 203.306C65.9973 203.73 65.3325 204.509 64.2091 203.684C64.5644 203.271 64.8051 202.813 65.1949 202.549C67.8315 200.726 70.4451 198.869 73.1849 197.196C75.3514 195.877 77.048 194.135 78.4924 192.106C78.7561 191.728 78.928 191.258 79.2605 190.971C81.7251 188.85 81.6678 186.214 80.831 183.428C79.719 179.737 78.1944 176.264 76.1424 172.951C74.4688 170.257 73.1046 167.299 72.0156 164.319C71.0756 161.739 70.6629 158.965 70.0898 156.26C70.0095 155.882 70.2732 155.412 70.4337 154.999C72.0385 150.631 73.6205 146.252 75.2827 141.908C77.2659 136.715 79.3178 131.545 81.4614 126.043C80.4641 125.951 79.421 125.871 78.3893 125.767C73.9185 125.286 69.6083 125.744 65.619 127.957C64.3924 128.633 63.2347 128.713 62.0195 127.888C59.0505 130.479 55.8866 132.634 53.4908 135.741C52.3788 137.185 50.7281 137.701 48.6074 137.196C43.7698 136.039 39.0469 136.096 34.7252 139.306C32.765 140.762 30.3233 141.575 28.8216 143.662C28.1338 144.613 27.4804 145.599 26.8499 146.585C26.3226 147.399 26.185 148.178 26.7352 149.13C27.0677 149.703 26.9416 150.54 27.0103 151.262C27.4345 155.905 27.7669 160.559 28.2942 165.19C28.6037 167.953 29.3718 169.535 30.8277 171.587C32.6962 170.635 34.1177 168.778 36.8459 168.251C34.6908 170.108 32.9369 171.621 31.1716 173.157C31.6989 174.143 32.0771 174.854 32.4784 175.622C34.2552 174.888 35.2754 172.916 37.763 172.744C35.9976 174.154 34.5418 175.312 33.1891 176.39C34.0947 179.336 35.2869 181.468 37.1325 183.176C38.8062 184.735 40.6633 185.515 43.1164 185.125C44.9047 184.838 46.0166 184.001 46.6127 182.488C47.2203 180.964 47.7476 179.37 47.9884 177.765C48.9742 171.117 49.0086 164.445 48.0113 157.785C47.9196 157.154 47.7935 156.512 47.8049 155.87C47.8164 155.446 47.9425 154.724 48.1947 154.644C50.602 153.853 50.0173 151.789 50.2466 150.081C50.3498 149.313 50.4186 148.545 51.0147 147.697C51.2669 148.201 51.6337 148.683 51.7484 149.221C52.2527 151.766 51.5764 154.208 50.4415 156.386C49.8569 157.498 49.8798 158.404 49.983 159.481C50.1435 161.212 50.3498 162.943 50.3842 164.674C50.4186 166.76 50.1664 168.824 51.691 170.624C52.161 171.174 52.0922 172.194 52.2757 172.997C52.6654 174.785 52.9749 176.596 53.4679 178.35C53.6627 179.038 54.2474 179.622 54.7861 180.482C54.0754 181.25 53.9722 182.397 54.5225 183.669C55.3593 185.595 56.1159 187.498 57.7093 189.045C58.6378 189.939 59.3027 191.326 59.6122 192.599C61.091 198.927 62.4093 205.277 63.7964 211.628C64.06 212.843 64.3466 214.047 64.6217 215.285C63.4983 215.698 63.0283 214.884 62.9022 214.311C62.3749 211.984 60.5178 211.594 58.7066 211.571C56.07 211.548 53.4334 211.892 50.4988 212.098C50.5791 213.554 50.6364 214.746 50.7052 215.927C52.7801 216.087 53.8805 213.6 56.1847 214.781C54.1786 215.778 52.4705 216.638 50.4759 217.624C49.96 216.328 49.5015 215.182 49.0086 213.944C47.8164 214.654 47.4037 216.569 45.3288 216.672C45.3174 215.537 45.2944 214.505 45.283 213.313C42.6808 212.82 40.5601 213.818 37.9923 215.274C39.1616 215.812 39.8493 216.363 40.583 216.443C45.111 216.924 49.5932 218.254 54.19 217.475C58.8442 216.695 63.441 217.52 68.0722 217.555C74.7439 217.612 81.4271 217.394 87.9841 215.732C90.4602 215.102 93.0165 214.792 95.527 214.311C96.8912 214.047 97.7165 213.508 98.4617 212.018C101.442 206.057 104.709 200.222 108.057 194.456C110.384 190.432 111.266 185.916 112.94 181.674C115.038 176.378 115.382 170.761 115.576 165.236C115.703 161.762 116.024 158.094 114.751 154.655C114.648 154.369 114.797 153.979 114.831 153.52C116.23 153.921 116.597 154.93 116.803 156.019C116.952 156.822 117.09 157.659 117.078 158.472C116.998 164.502 118.889 170.199 120.093 176C120.162 176.344 120.403 176.642 120.552 176.928C123.933 178.006 124.461 175.117 125.813 172.974C126.444 173.902 126.914 174.59 127.453 175.381C129.997 174.613 131.855 173.088 133.31 170.784C135.626 167.104 135.431 162.909 136.245 158.908C137.368 153.325 135.385 148.499 133.242 143.639C133.138 143.398 132.886 143.238 132.703 143.031L132.76 143.1C131.946 139.386 130.697 135.947 127.67 133.333C125.79 131.717 123.738 130.674 121.308 130.364C116.551 129.745 111.839 129.814 106.945 132.015C108.744 129.413 111.186 128.759 113.536 128.61C116.505 128.427 119.554 128.633 122.489 129.115C127.579 129.952 130.972 133.104 132.921 137.815C134.56 141.793 136.394 145.714 137.666 149.806C138.457 152.362 138.687 155.217 138.595 157.911C138.492 161.098 137.758 164.25 137.3 167.425C137.277 167.609 137.277 167.815 137.185 167.964C135.03 171.22 134.021 175.232 130.72 177.719C130.284 178.052 129.871 178.43 129.413 178.728C127.349 180.035 126.478 179.943 124.85 178.407C123.005 178.923 121.262 179.405 119.268 179.955C119.027 181.651 118.775 183.543 118.5 185.423C118.133 187.865 117.628 190.295 117.388 192.748C116.964 197.127 116.734 201.517 116.345 205.896C116.046 209.255 115.852 212.648 115.198 215.938C114.533 219.286 114.854 222.048 117.651 224.307C119.497 225.797 120.403 227.952 121.148 230.119C122.065 232.813 119.348 235.862 116.482 235.312C116.631 235.071 116.723 234.796 116.906 234.658C120.127 232.308 120.437 231.127 118.202 227.86C117.078 226.21 115.657 224.742 114.201 223.355C112.802 222.025 112.413 220.593 112.596 218.69C113.295 211.215 113.823 203.73 114.419 196.256C114.453 195.797 114.419 195.339 114.499 194.88C115.427 189.469 116.333 184.07 117.319 178.671C117.537 177.467 117.984 176.309 118.328 175.129C118.133 175.06 117.949 175.003 117.755 174.934C116.975 177.043 115.932 179.095 115.45 181.262C113.914 188.231 110.831 194.536 107.506 200.761C105.523 204.464 103.517 208.155 101.477 211.915C101.889 212.236 102.348 212.603 102.944 213.084C99.9175 216.145 103.448 218.414 103.723 221.097C102.623 222.564 100.949 222.197 99.4475 222.461C94.3921 223.321 89.3482 224.181 84.3158 225.178C78.0568 226.416 71.7978 226.897 65.493 225.602C64.9198 225.487 64.3695 225.235 63.1659 224.834C64.2434 224.456 64.6905 224.169 65.1261 224.181C66.0432 224.192 66.9488 224.341 67.8544 224.479C72.8868 225.27 77.8734 225.075 82.8715 224.112C87.9039 223.149 92.9707 222.358 98.0261 221.464C98.817 221.326 99.5965 221.063 100.617 220.787C100.25 219.802 100.044 218.907 99.5965 218.162C98.9546 217.096 98.0719 216.454 96.639 216.752C92.4319 217.624 88.2134 218.495 83.9604 219.171C81.1634 219.618 78.3205 219.916 75.489 219.951C71.2017 219.996 66.903 219.744 62.6042 219.63C58.6722 219.515 54.7288 219.584 50.8198 219.251C47.0025 218.93 43.2081 218.208 39.4137 217.669C38.9781 217.612 38.554 217.543 38.1298 217.475C36.972 221.475 36.972 221.475 38.1757 222.232C38.4852 221.005 38.7947 219.79 39.1042 218.575C39.2877 218.609 39.4825 218.644 39.6659 218.678C39.6889 219.893 39.7232 221.12 39.7576 222.622C43.0247 223.08 46.2459 223.527 49.4671 223.986C49.4671 224.135 49.4557 224.284 49.4557 224.433C47.6674 224.41 45.8791 224.421 44.0793 224.375C42.2796 224.33 40.4454 224.421 38.6801 224.112C36.823 223.791 35.0347 223.069 33.1318 222.507C31.4123 225.602 30.5296 228.846 29.8189 232.136C29.0852 235.529 28.4089 238.945 27.8586 242.373C27.4689 244.826 27.9962 245.525 30.3118 246.534C34.0259 248.173 37.9349 249.274 41.9471 249.629C48.2291 250.18 54.5569 250.604 60.8617 250.615C71.6488 250.638 82.4358 250.134 93.1426 248.735C97.556 248.162 101.889 247.027 106.222 246.156C106.509 244.78 106.383 243.875 105.007 244.241C96.7651 246.454 88.2134 245.376 79.8795 246.649C78.2402 246.901 76.4634 247.05 74.9846 245.594C75.2941 245.342 75.5005 245.032 75.6839 245.044C83.4904 245.64 91.1824 244.104 98.9546 243.852C104.457 243.668 109.57 241.364 114.854 239.255C114.453 236.08 112.928 233.34 111.839 230.474C110.762 227.654 109.524 224.891 108.194 222.186C106.853 219.469 105.305 216.855 103.54 213.646C104.56 214.058 105.156 214.116 105.42 214.437C106.543 215.881 107.758 217.303 108.607 218.896C111.748 224.811 114.304 230.978 116.402 237.341C116.998 239.163 117.812 240.906 118.557 242.682C118.935 243.588 119.371 244.471 119.818 245.434C118.374 245.502 118.374 245.502 115.382 240.791C113.284 241.318 110.911 241.353 109.879 243.909C107.724 243.072 107.667 243.107 107.701 245.044C108.87 244.803 110.166 244.115 111.106 244.448C112.367 244.895 113.341 244.7 114.476 244.425C114.854 244.333 115.634 244.689 115.737 245.01C115.863 245.376 115.576 246.167 115.233 246.351C113.949 247.039 112.607 247.703 111.209 248.093C107.781 249.056 104.342 250.237 100.835 250.661C91.8587 251.75 82.8485 252.736 73.8154 253.263C67.4303 253.63 60.9993 253.183 54.5913 253.091C48.0686 253 41.6262 252.209 35.2754 250.741C32.7879 250.168 30.3462 249.366 27.9618 248.449C26.2882 247.807 25.0501 246.569 24.7177 244.666C24.5342 243.588 24.3623 242.522 24.156 241.238C23.5943 241.123 22.895 240.974 22.1957 240.86C20.6596 240.596 19.1006 240.447 17.5874 240.092C11.4545 238.682 9.05867 233.569 11.0991 227.551C12.4633 223.539 15.4552 220.868 17.8052 217.669C19.135 215.858 20.7857 214.299 22.1269 212.809C21.4277 207.157 19.2038 202.4 16.7506 197.815C13.4033 191.556 11.2023 184.873 8.71478 178.281C6.46796 172.309 5.56235 166.073 4.31284 159.894C3.77406 157.223 3.16649 154.552 2.58186 151.778C2.40991 151.812 2.07748 151.915 1.73358 151.961C1.16041 152.03 0.587242 152.076 0.0140721 152.122C0.0255355 151.606 -0.0432462 151.09 0.0484609 150.597C0.759191 146.539 1.20624 142.424 2.2838 138.457C4.10648 131.694 5.6655 124.85 8.4855 118.362C9.67769 115.622 10.0904 112.562 10.8584 109.638C11.1106 108.675 11.3858 107.724 11.6265 106.853C12.7728 106.635 13.2428 106.967 13.0594 107.976C12.8875 108.939 12.6696 109.891 12.4633 110.888C13.2084 111.129 13.7243 111.289 14.3547 111.495C15.5126 108.343 16.6704 105.271 17.7823 102.187C19.8228 96.5014 23.3077 91.6867 26.804 86.8721C26.8613 86.8033 26.953 86.746 26.9874 86.6772C28.5694 83.8343 31.1945 82.0919 33.9342 80.338C33.3955 79.1687 32.9942 78.1599 32.4784 77.197C28.7986 70.3304 26.3913 62.9939 26.1506 55.2561C25.9213 47.8507 27.3428 40.732 33.1662 35.1951C35.3901 33.0744 37.1211 30.4264 39.024 27.9732C42.0045 24.1215 44.492 19.9718 46.693 15.6271C47.5184 13.9993 48.4583 12.4976 48.4583 10.5603C48.4583 9.39105 48.8366 8.21032 49.1003 7.05252C49.4671 5.41326 49.5932 3.8657 48.8137 2.2379C48.1603 0.862293 48.6991 0.163017 50.1778 0.0254566C51.8171 -0.123567 53.2615 0.380835 54.4078 1.56156C55.5542 2.74229 56.7349 3.91156 57.7666 5.19546C58.2481 5.79155 58.5805 6.62838 58.6952 7.39642C59.5778 13.5293 58.7869 19.6508 58.3169 25.7493C58.1793 27.5032 57.159 29.1883 56.4827 31.0912C56.8151 31.3091 57.2852 31.6071 58.1564 32.1803C57.0674 32.9139 56.2305 33.4756 54.9237 34.3468C53.6857 37.8776 52.3215 41.9471 50.8198 45.9593C49.7537 48.7907 48.8825 51.6336 48.3208 54.6256C47.4496 59.2683 48.2176 63.739 49.0315 68.2326C49.3066 69.7343 49.8798 71.1787 50.3613 72.8065C52.0464 72.4855 53.5825 72.3021 55.0613 71.878C58.9015 70.789 62.8105 70.5597 66.7654 70.5597C71.5341 70.5712 76.2914 70.5024 81.0602 70.4909C82.9861 70.4909 84.889 70.6399 86.8607 72.1875C86.0239 72.2677 85.5653 72.3365 85.0954 72.348C77.4951 72.4168 69.8834 72.3021 62.2947 72.6231C58.9473 72.7607 55.6115 73.7007 52.2986 74.4229C51.6108 74.5719 51.0605 75.3743 50.2466 76.0392C49.4098 75.0419 48.0228 75.2138 46.5898 75.8443C43.8272 77.0709 41.053 78.2746 38.3018 79.5241C35.3672 80.8653 33.3381 83.1465 31.5842 86.2416C33.7164 87.6172 35.9518 88.8094 37.912 90.3799C39.8264 91.9045 41.4313 93.8074 43.2998 95.6531C46.3605 93.0394 49.0774 90.1048 52.7342 88.3624C50.1893 91.3658 46.4752 93.2343 44.5149 96.9943C47.9539 102.095 50.3269 107.907 54.7747 112.665C55.1874 112.126 55.5198 111.816 55.6917 111.438C56.2534 110.154 57.2737 109.776 58.3742 110.406C62.6386 112.848 66.9373 111.507 71.2132 110.67C75.4317 109.833 79.6502 108.939 83.8229 107.919C88.2363 106.841 92.2256 104.801 95.8709 102.095C98.7941 99.9289 100.548 97.0172 101.259 93.4521C101.614 91.6638 102.21 89.9099 102.497 88.1102C102.726 86.6428 102.657 85.1182 102.726 83.4904C104.434 84.0407 104.56 85.3704 104.274 86.7575C103.872 88.7292 103.311 90.6665 102.818 92.6267C102.703 93.0738 102.508 93.4979 102.462 93.945C101.832 99.5621 98.198 102.783 93.6126 105.374C88.3509 108.343 82.7454 110.154 76.8188 111.117C73.8383 111.599 70.8807 112.264 67.9232 112.905C62.7073 114.017 62.7073 114.04 57.5603 112.378C57.1705 112.86 56.7349 113.421 56.2764 113.949C55.0498 115.359 54.4078 115.439 53.2386 113.891C51.5879 111.702 50.132 109.375 48.6188 107.094C46.4981 103.895 44.5264 100.605 42.2567 97.5101C39.173 93.2916 35.1494 90.1392 30.2774 88.0414C26.0818 90.976 16.9455 109.249 15.994 116.975C18.6535 115.473 20.6023 113.158 23.2045 111.908C23.3306 112.057 23.4452 112.195 23.5713 112.344C23.2733 112.688 23.0096 113.077 22.6657 113.364C20.7628 114.957 18.8255 116.494 16.9455 118.098C15.9367 118.958 15.4896 119.887 15.7304 121.434C16.1545 124.22 16.0972 127.086 16.1889 129.917C16.2233 131.109 16.0169 132.256 14.5726 133.31C13.7128 131.109 14.2401 129.023 13.9765 127.051C13.7014 124.999 13.1167 122.982 12.9906 120.93C12.8645 118.844 13.1167 116.746 12.9562 114.476C11.5118 117.709 9.90696 120.873 8.66892 124.185C6.46795 130.066 5.88333 136.291 5.20699 142.481C5.12674 143.203 5.25285 143.937 5.28724 144.671C5.4248 147.491 5.56234 150.299 5.6999 153.119C5.72283 153.578 5.69989 154.048 5.79159 154.495C6.57111 158.438 7.21306 162.427 8.2333 166.313C8.8294 168.572 10.1248 170.635 10.9272 172.859C12.4862 177.158 14.0911 181.456 15.3521 185.847C16.8194 190.971 18.6077 195.935 21.2786 200.669C23.216 200.406 24.3394 198.205 26.6321 198.537C25.4169 199.42 24.2133 200.314 22.9867 201.174C21.7257 202.068 21.657 203.031 22.8721 204.246C23.6974 203.948 24.603 203.627 25.6577 203.248C25.5316 203.592 25.5087 203.89 25.3482 204.028C23.2504 205.862 23.2389 205.851 24.3279 208.579C25.2679 210.963 25.7379 213.313 24.0299 215.594C23.8235 215.881 23.7662 216.385 23.514 216.512C20.4991 217.956 18.9057 220.891 16.7162 223.172C14.1599 225.831 12.8072 229.156 13.346 232.962C13.5065 234.085 14.0109 235.151 14.5382 236.79C15.7533 234.475 16.5328 232.675 17.576 231.047C18.6077 229.442 19.4216 227.539 21.8633 226.703C21.3933 229.098 19.5592 230.279 18.7911 232.044C18.0345 233.787 16.785 235.369 17.2206 237.604C19.5133 238.991 22.2072 238.808 24.924 239.484C25.6462 237.169 26.2881 235.094 26.9301 233.019C28.0994 229.27 29.4406 225.556 30.3806 221.75C31.0569 219.011 31.7218 216.294 31.1372 213.267C30.0252 207.524 29.6698 201.632 28.6611 195.866C27.7325 190.558 26.7352 185.217 24.4082 180.276C20.6826 172.355 18.6421 163.895 16.1775 155.561C15.845 154.449 15.4667 153.36 15.0884 152.213C16.3035 151.594 16.7506 152.294 17.0257 153.096C17.5072 154.483 17.9543 155.882 18.3211 157.292C20.247 164.846 22.9065 172.125 25.9786 179.301C28.9477 186.237 30.415 193.619 31.2862 201.105C31.4238 202.274 31.6301 203.432 31.8479 204.865C34.7023 203.604 36.7084 201.116 39.815 200.738C37.7859 202.251 35.734 203.741 33.7164 205.277C32.3752 206.298 31.6071 207.559 32.444 209.668C34.152 208.545 35.8257 207.444 37.4993 206.344C37.6254 206.504 37.7515 206.676 37.8776 206.836C36.6855 207.88 35.5047 208.923 34.3125 209.955C31.6415 212.27 31.653 213.073 34.3584 215.274C34.622 215.48 34.8054 215.789 35.0232 216.042C35.9976 217.864 34.1406 219.022 33.8769 220.684C34.4615 220.936 35.0118 221.166 35.9289 221.567C36.2154 219.962 36.4676 218.586 36.7198 217.199C35.9289 216.844 35.4016 216.5 34.8742 216.168ZM48.6647 73.139C48.5271 72.497 48.4584 71.6831 48.1947 70.9495C45.7186 64.2778 45.8447 57.5144 47.312 50.6822C47.5183 49.7078 47.7705 48.7219 48.1374 47.7934C48.8366 46.0166 49.7078 44.32 50.3956 42.5317C51.5649 39.4595 52.5966 36.33 53.8003 33.2693C54.2588 32.1 53.6857 31.4008 52.9176 30.9995C52.4476 30.7473 51.5649 31.0225 50.9803 31.2976C50.3383 31.6071 49.8569 32.2376 49.2723 32.6617C47.3808 34.0259 46.7159 34.0259 44.8359 32.719C44.3889 32.4095 43.873 31.6988 43.552 31.7791C41.672 32.2834 41.3281 31.0683 41.2364 29.3717C36.8803 34.1634 33.0515 38.8176 30.2316 44.2054C29.6928 45.2371 29.3489 46.4293 29.1311 47.5756C28.363 51.5763 28.7184 55.6114 29.154 59.6122C29.2457 60.4719 29.6011 61.2973 29.8647 62.2602C32.4898 60.598 34.8284 59.1078 37.1669 57.629C37.2701 57.778 37.3732 57.927 37.4764 58.0875C35.6194 59.6466 33.831 61.3087 31.8708 62.7187C30.3232 63.8307 30.1399 65.1146 30.6443 66.7653C31.9282 70.9724 33.2235 75.1565 36.1237 78.5611C40.2276 76.8073 44.3086 75.0304 48.6647 73.139ZM51.7598 9.11593C51.9432 9.23057 52.1266 9.34521 52.31 9.45984C49.1805 15.7991 45.8103 22.0008 42.3369 28.1566C42.8527 28.5005 43.4145 28.7986 43.8844 29.1998C44.4462 29.6698 44.9047 30.2544 45.432 30.7588C47.0484 32.2949 47.4954 32.3866 49.0659 30.8047C50.8313 29.0278 52.5508 27.7669 55.13 30.071C55.5198 28.6725 55.9898 27.6637 56.0815 26.6091C56.5171 21.1639 57.9386 15.8335 57.2966 10.2393C56.8839 6.68569 54.6715 4.80569 52.3674 2.76521C52.1266 2.5474 51.542 2.7079 50.9115 2.67351C50.8083 5.01205 50.7166 7.17861 50.6249 9.48275C50.9574 9.36812 51.3586 9.24203 51.7598 9.11593ZM61.5151 209.84C61.5266 209.473 61.6298 209.095 61.5495 208.762C60.4261 203.776 59.3142 198.789 58.1334 193.826C57.95 193.046 57.652 192.106 57.0788 191.636C55.0039 189.894 54.4078 187.349 53.2959 185.09C53.0322 184.575 52.7915 184.047 52.5049 183.463C51.2669 184.368 50.5103 185.228 50.4759 186.707C50.3269 193.275 50.0747 199.844 49.9027 206.412C49.8683 207.834 50.0174 209.267 50.0861 210.837C53.9837 210.493 57.5947 210.172 61.5151 209.84ZM101.637 220.627C101.912 220.489 102.187 220.363 102.451 220.226C101.901 219.205 101.35 218.185 100.812 217.165C100.663 217.234 100.514 217.303 100.365 217.371C100.789 218.449 101.213 219.538 101.637 220.627ZM48.5615 212.82C46.6815 212.637 46.4408 213.359 46.8649 214.861C47.4496 214.162 47.9081 213.611 48.5615 212.82ZM129.55 176.837C129.459 176.665 129.367 176.493 129.275 176.321C128.782 176.665 128.289 177.02 127.785 177.364C127.865 177.49 127.957 177.605 128.037 177.731C128.542 177.433 129.046 177.135 129.55 176.837Z" fill="black"/>
<path d="M87.1127 131.9C86.9178 132.634 86.8147 133.058 86.6542 133.666C86.0466 131.969 85.4849 130.433 84.8086 128.564C85.5079 128.541 86.1842 128.324 86.5739 128.564C87.4108 129.092 88.3164 129.722 88.8093 130.548C91.0103 134.227 93.1425 137.941 95.1486 141.724C96.1803 143.662 96.742 145.828 97.7851 147.754C99.7683 151.434 100.513 155.492 101.694 159.424C101.843 159.905 101.751 160.524 101.614 161.029C100.399 165.522 99.1837 170.016 97.8883 174.498C97.2808 176.607 96.5586 178.682 95.802 180.734C94.0022 185.572 93.2227 190.467 94.8849 195.488C95.6644 197.826 96.4898 200.176 97.5559 202.389C98.1176 203.546 99.2295 204.441 100.089 205.449C98.5646 206.355 97.7163 206.378 96.9254 204.899C93.8188 199.122 91.0905 193.184 92.6495 186.363C93.2915 183.531 94.4034 180.803 95.1829 177.995C96.7305 172.355 98.3927 166.749 99.6307 161.04C100.341 157.739 99.0232 154.552 97.6476 151.514C96.8566 149.76 95.8478 148.087 95.2747 146.264C93.7042 141.197 90.632 136.967 87.9152 132.531C87.7776 132.301 87.491 132.187 87.1127 131.9Z" fill="black"/>
<path d="M123.429 116.987C125.355 115.393 124.22 113.571 123.968 111.633C119.371 113.204 115.543 115.817 111.416 118.741C112.425 116.31 115.715 114.224 124.037 110.475C123.452 106.807 122.558 103.127 120.942 99.6425C119.326 96.1691 116.437 93.7732 113.353 91.4003C114.007 90.7011 114.408 90.2654 114.82 89.8298C114.717 89.6579 114.66 89.4745 114.522 89.3598C109.903 85.3706 104.79 82.1952 99.0812 80.0401C97.1209 79.295 95.069 78.7677 93.0629 78.1257C92.547 77.9652 91.9165 77.8506 91.5956 77.4952C91.4122 77.2889 91.6414 76.326 91.8936 76.2228C92.3407 76.0394 92.9712 76.1884 93.4756 76.326C100.136 78.2289 106.464 80.7394 111.863 85.2789C114.167 87.2162 116.735 88.844 119.119 90.6896C120.907 92.0767 120.885 92.2257 119.52 94.5986C123.899 98.8744 123.567 105.305 126.226 110.533C124.622 115.554 127.212 120.987 124.496 125.905C124.564 124.38 124.656 122.867 124.679 121.343C124.69 120.15 124.679 118.958 124.496 117.789C124.438 117.457 123.75 117.216 123.361 116.941L123.429 116.987Z" fill="black"/>
<path d="M167.838 203.351C166.887 204.842 166.107 204.165 165.385 203.626C163.047 201.861 160.777 200.027 158.415 198.307C154.793 195.682 151.125 193.114 147.468 190.558C146.814 190.1 146.15 189.607 146.78 188.85C147.021 188.564 147.915 188.678 148.442 188.839C149.038 189.011 149.611 189.377 150.116 189.767C155.985 194.249 161.843 198.754 167.838 203.351Z" fill="#EB584A"/>
<path d="M171.414 145.817C171.712 146.298 172.044 146.585 172.044 146.883C172.044 147.204 171.827 147.628 171.574 147.834C166.404 152.099 161.796 157.062 155.927 160.455C155.285 160.834 154.528 161.751 153.864 160.639C153.267 159.653 154.276 159.137 154.884 158.701C156.741 157.395 158.621 156.099 160.581 154.953C164.169 152.867 167.081 150.012 169.958 147.101C170.371 146.688 170.841 146.321 171.414 145.817Z" fill="#EB584A"/>
<path d="M55.0955 245.101C50.384 246.121 30.6326 244.115 28.2139 242.602C28.8902 242.293 29.3716 242.052 29.876 241.857C30.0251 241.8 30.2314 241.891 30.4148 241.914C38.6455 242.969 46.8762 244.035 55.0955 245.101Z" fill="black"/>
<path d="M176.001 175.06C175.026 175.266 174.166 175.599 173.33 175.587C167.151 175.507 160.984 175.347 154.105 175.198C154.942 174.498 155.298 173.925 155.71 173.879C157.338 173.696 158.989 173.627 160.628 173.616C165.007 173.581 169.375 173.616 173.754 173.581C174.728 173.581 175.531 173.707 176.001 175.06Z" fill="#EB584A"/>
<path d="M75.6606 185.95C74.8237 189.939 69.2869 192.049 66.4325 189.504C65.8938 189.022 65.8364 188.013 65.332 186.615C66.9254 186.959 67.9113 187.005 68.7481 187.383C70.3645 188.105 71.7745 188.013 72.9896 186.695C73.7691 185.858 74.6059 185.652 75.6606 185.95Z" fill="black"/>
<path d="M58.3857 134.617C60.9535 132.68 63.4067 130.582 66.6165 129.138C66.8916 131.476 64.8396 132.221 64.1862 133.975C65.3326 133.712 66.3414 133.482 67.5794 133.196C67.5335 134.296 67.4991 135.213 67.4533 136.13C67.3043 136.176 67.1553 136.222 67.0062 136.268C66.6967 135.741 66.3757 135.213 65.9974 134.56C64.4384 135.328 62.845 136.119 61.0682 136.99C60.7243 135.557 61.6299 135.076 62.1572 134.422C62.6501 133.803 63.1201 133.173 64.0028 132.049C61.6069 132.76 60.4835 134.789 58.3857 134.617Z" fill="black"/>
<path d="M107.415 186.959C108.171 188.644 107.174 189.16 106.222 189.687C104.354 190.696 102.405 191.739 100.41 190.134C99.4017 189.32 97.8885 188.552 98.7139 186.34C99.6998 186.913 100.64 187.257 101.293 187.899C102.325 188.908 103.322 188.919 104.503 188.346C105.42 187.876 106.371 187.452 107.415 186.959Z" fill="black"/>
<path d="M30.7132 237.822C30.0368 235.197 31.9741 227.149 33.7624 225.155C33.3154 229.511 31.2405 233.477 30.7132 237.822Z" fill="black"/>
<path d="M65.6885 215.801C68.8982 213.417 72.1653 211.158 76.4755 210.94C73.0136 212.763 69.5631 214.586 66.1012 216.42C65.9751 216.214 65.8375 216.007 65.6885 215.801Z" fill="black"/>
<path d="M73.5751 178.384C72.9905 178.843 72.5893 179.416 72.2224 179.393C70.5029 179.278 68.772 179.083 67.0754 178.739C66.6513 178.648 66.3761 177.88 66.0322 177.421C66.4793 177.192 66.9722 176.699 67.3734 176.768C69.3795 177.112 71.4773 177.169 73.5751 178.384Z" fill="black"/>
<path d="M100.983 181.64C100.708 180.287 101.339 180.023 102.141 179.943C104.285 179.737 106.52 178.888 108.939 181.032C105.913 181.273 103.425 181.456 100.983 181.64Z" fill="black"/>
<path d="M132.646 143.1C132.485 143.49 132.428 144.04 132.13 144.258C129.517 146.206 126.846 148.109 124.197 150.012C124.071 150.104 123.854 150.058 123.682 150.081C124.186 148.201 129.459 144.154 132.703 143.169C132.715 143.169 132.646 143.1 132.646 143.1Z" fill="black"/>
<path d="M45.7637 97.4416C47.7354 94.3809 50.991 92.9938 53.9141 91.1597C51.7475 93.9453 48.6181 95.5272 45.7637 97.4416Z" fill="black"/>
<path d="M133.081 147.525C130.502 149.761 127.923 151.996 125.332 154.231C126.639 150.551 129.94 149.084 133.081 147.525Z" fill="black"/>
<path d="M123.383 116.929C120.471 118.694 117.559 120.459 114.521 122.294C114.716 120.517 114.693 120.482 118.396 118.832C120.024 118.109 121.743 117.582 123.429 116.975C123.429 116.986 123.383 116.929 123.383 116.929Z" fill="black"/>
<path d="M74.446 204.693C71.4312 206.734 68.657 208.614 65.7109 210.608C66.1809 208.751 71.4426 205.255 74.446 204.693Z" fill="black"/>
<path d="M22.5289 116.975C21.0272 119.153 19.0211 120.746 16.6367 121.858C17.9206 119.416 20.4196 118.442 22.5289 116.975Z" fill="black"/>
<path d="M32.2602 238.532C31.859 235.678 32.3748 233.03 33.4868 230.531C33.7275 230.588 33.9682 230.646 34.1975 230.692C33.5556 233.317 32.9022 235.919 32.2602 238.532Z" fill="black"/>
<path d="M103.895 143.135C102.244 144.476 100.582 145.817 98.7363 147.319C99.149 145.358 100.33 144.304 103.895 143.135Z" fill="black"/>
<path d="M99.7793 149.21C100.845 146.355 101.751 145.496 104.41 144.625C102.863 146.161 101.315 147.685 99.7793 149.21Z" fill="black"/>
<path d="M39.9176 61.0447C37.4988 64.5754 34.2547 67.04 31.5264 67.3152C34.2547 64.9652 36.7422 63.0164 39.9176 61.0447Z" fill="black"/>
</svg>
