<svg width="15" height="14" viewBox="0 0 15 14" fill="none" xmlns="http://www.w3.org/2000/svg">
<path d="M14.8604 7C14.8604 5.61553 14.4498 4.26215 13.6806 3.11101C12.9115 1.95987 11.8182 1.06266 10.5391 0.532846C9.26005 0.003033 7.85259 -0.13559 6.49472 0.134506C5.13685 0.404603 3.88957 1.07129 2.91061 2.05026C1.93164 3.02922 1.26495 4.2765 0.994858 5.63437C0.724761 6.99224 0.863385 8.3997 1.3932 9.67879C1.92301 10.9579 2.82022 12.0511 3.97136 12.8203C5.12251 13.5895 6.47588 14 7.86035 14C9.71687 14 11.4973 13.2625 12.8101 11.9497C14.1229 10.637 14.8604 8.85652 14.8604 7ZM7.86035 12.7556C6.72201 12.7556 5.60923 12.418 4.66274 11.7856C3.71624 11.1531 2.97854 10.2542 2.54291 9.20256C2.10729 8.15087 1.99331 6.99362 2.21539 5.87715C2.43747 4.76068 2.98563 3.73514 3.79056 2.93021C4.59549 2.12528 5.62103 1.57712 6.7375 1.35504C7.85397 1.13296 9.01122 1.24694 10.0629 1.68256C11.1146 2.11819 12.0135 2.85589 12.6459 3.80239C13.2783 4.74888 13.6159 5.86166 13.6159 7C13.6142 8.52594 13.0072 9.98888 11.9282 11.0679C10.8492 12.1469 9.38629 12.7538 7.86035 12.7556Z" fill="black" fill-opacity="0.5"/>
<path d="M7.86054 4.32485C7.98303 4.32485 8.10277 4.28852 8.20461 4.22047C8.30646 4.15242 8.38584 4.05569 8.43271 3.94253C8.47958 3.82936 8.49185 3.70484 8.46795 3.5847C8.44406 3.46456 8.38507 3.35421 8.29846 3.2676C8.21184 3.18099 8.10149 3.122 7.98136 3.0981C7.86122 3.07421 7.7367 3.08647 7.62353 3.13335C7.51036 3.18022 7.41364 3.2596 7.34559 3.36145C7.27753 3.46329 7.24121 3.58303 7.24121 3.70552C7.24121 3.78685 7.25723 3.86739 7.28835 3.94253C7.31948 4.01767 7.3651 4.08594 7.42261 4.14345C7.48012 4.20096 7.54839 4.24658 7.62353 4.27771C7.69867 4.30883 7.77921 4.32485 7.86054 4.32485Z" fill="black" fill-opacity="0.5"/>
<path d="M8.9563 9.99438C8.74197 9.9257 8.48006 9.72421 8.48006 9.14962V5.37744C8.48006 5.36404 8.47742 5.35077 8.47229 5.3384C8.46717 5.32602 8.45965 5.31477 8.45018 5.3053C8.4407 5.29582 8.42946 5.28831 8.41708 5.28318C8.4047 5.27805 8.39143 5.27541 8.37803 5.27541H6.87449C6.82416 5.27541 6.77432 5.28533 6.72782 5.30459C6.68131 5.32385 6.63906 5.35208 6.60347 5.38767C6.56788 5.42326 6.53965 5.46551 6.52039 5.51201C6.50113 5.55851 6.49121 5.60835 6.49121 5.65868C6.49191 5.74105 6.51885 5.82105 6.56812 5.88706C6.61739 5.95307 6.68643 6.00165 6.7652 6.02574C6.97952 6.09444 7.24141 6.29592 7.24141 6.8705V9.14963C7.24141 9.72422 6.97952 9.92569 6.7652 9.99439C6.68643 10.0185 6.6174 10.0671 6.56812 10.1331C6.51885 10.1991 6.49191 10.2791 6.49121 10.3614C6.49121 10.4118 6.50113 10.4616 6.52039 10.5081C6.53965 10.5546 6.56788 10.5969 6.60347 10.6325C6.63906 10.6681 6.68131 10.6963 6.72782 10.7155C6.77432 10.7348 6.82416 10.7447 6.87449 10.7447H8.84702C8.89735 10.7447 8.94719 10.7348 8.99369 10.7155C9.04019 10.6963 9.08244 10.6681 9.11803 10.6325C9.15362 10.5969 9.18185 10.5546 9.20111 10.5081C9.22037 10.4616 9.23029 10.4118 9.23028 10.3614C9.22959 10.2791 9.20265 10.1991 9.15337 10.1331C9.1041 10.0671 9.03507 10.0185 8.9563 9.99438Z" fill="black" fill-opacity="0.5"/>
</svg>
