<svg width="145" height="121" viewBox="0 0 145 121" fill="none" xmlns="http://www.w3.org/2000/svg">
<path d="M104.613 105.394C103.819 106.629 102.93 108.027 101.692 108.746C99.4968 109.996 96.8141 109.446 94.3415 108.755C68.9623 101.779 42.8871 91.6199 26.5797 70.9469C24.786 68.6941 23.0159 66.0207 23.1132 63.123C23.1865 60.646 24.6129 58.3862 26.039 56.4302C34.8993 44.0879 47.6543 33.5182 50.5208 18.6682C55.1185 18.1539 59.7366 19.9536 63.9811 21.7981C78.2773 28.0173 91.8243 35.8452 104.436 45.0007C110.731 49.6369 116.792 54.5289 122.549 59.7232C126.301 63.1077 127.35 63.6272 125.315 68.3146C123.606 72.2792 121.384 76.0776 119.349 79.8535C114.74 88.5712 109.805 97.1004 104.613 105.394Z" fill="white"/>
<path d="M114.555 87.9855C111.539 92.7148 108.592 97.3976 105.529 102.057C103.144 105.76 100.198 109.836 95.8112 110.211C93.7107 110.387 91.7278 109.676 89.8153 108.919C84.5675 106.929 79.4368 104.659 74.4696 102.18C72.9771 101.447 71.3218 100.317 71.5806 98.7295C71.6515 98.0754 72.0723 97.4933 72.5863 97.0518C76.0912 93.5171 81.6456 93.0777 86.4543 91.8166C94.9048 89.6624 102.145 84.4638 109.828 80.3891C110.855 79.8101 111.929 79.3013 113.073 79.3538C116.293 79.3468 118.178 83.5633 117.077 86.6194C115.976 89.6755 113.08 91.6942 110.418 93.457" fill="#BCBCBB"/>
<path d="M53.4329 22.3052C52.4527 22.347 51.356 22.3648 50.4221 22.7807C48.3205 23.8686 47.7802 26.5536 47.4972 28.866C47.4263 29.52 47.3319 30.2908 47.5879 30.8297C48.0763 32.0242 49.429 32.5452 50.6887 32.9255C63.4714 36.7063 76.6975 40.3958 89.9306 38.9203C90.1682 35.6261 87.3015 32.9705 84.6908 30.8538C81.0776 27.9842 77.4178 25.0442 73.1968 23.083C68.9757 21.1218 64.1463 20.3728 59.6409 21.6355" fill="#BCBCBB"/>
<path d="M51.0062 22.2934C50.4452 22.9684 49.8376 23.573 49.3935 24.2718C48.6454 25.2731 48.037 26.4854 47.1258 27.3922C45.5369 28.9501 44.5309 30.9316 43.3616 32.8188C40.5554 37.4089 37.8657 42.0228 35.0594 46.6129C33.4458 49.199 31.8789 51.8555 30.7315 54.8413C30.0758 56.5909 29.1402 58.2222 28.2513 59.9238C27.3387 61.7422 26.3797 63.4902 25.4672 65.3086C26.9359 66.4613 27.9841 67.8923 29.7098 68.6722C29.9435 68.4164 30.1071 68.2068 30.2708 67.9973C30.3878 67.7174 30.4348 67.4839 30.5052 67.1337C29.293 66.2161 28.1508 65.252 26.9386 64.3344C28.619 64.1326 29.2003 65.7715 30.3898 66.1983C31.1602 65.9919 31.2775 65.4081 31.5116 64.8484C32.6117 62.3999 33.7117 59.9514 34.8116 57.503C35.3499 56.3371 36.0749 55.1488 36.7297 54.0069C36.8464 54.0309 37.0096 54.1252 37.1263 54.1491C36.7751 54.9888 36.3539 55.8747 36.0027 56.7144C34.1312 60.2808 32.5861 64.0358 31.2743 67.8387C30.7823 69.3788 30.0104 70.8005 28.7949 72.3136C28.679 71.682 28.4462 71.3302 28.5632 71.0503C28.7272 70.5371 29.0545 70.118 29.4052 69.5823C28.3336 68.268 27.0982 67.1632 25.4891 66.4072C24.835 66.9414 24.5074 67.6643 24.4365 68.3183C25.0655 69.1161 25.7414 69.6805 26.1372 70.4304C28.8844 75.1888 32.6361 79.181 36.6916 82.8709C39.8147 85.7614 43.265 88.2329 46.879 90.495C51.3556 93.2989 56.0428 95.6598 60.9877 97.3442C63.7633 98.3399 66.5153 99.4522 69.291 100.448C70.5972 100.899 71.9498 101.419 73.4193 101.965C73.608 100.423 72.4423 99.5758 72.1171 98.4756C71.7452 97.3052 71.2334 96.2274 70.6517 94.8923C71.3512 95.3399 71.5371 95.9251 71.7465 96.3936C72.6076 98.1508 73.4687 99.9081 74.3297 101.666C74.5391 102.134 74.7951 102.673 75.6586 102.607C75.7306 101.041 74.2386 100.006 74.1243 98.1586C75.3588 99.871 75.9401 101.509 76.8242 103.455C80.953 104.667 85.2684 105.858 89.6304 107.118C90.8434 107.429 92.1024 107.809 93.3856 108.072C95.066 108.478 96.7453 108.884 98.5421 108.706C99.5924 108.618 100.643 108.834 101.692 109.05C102.042 109.122 102.345 109.426 102.812 109.826C103.046 109.267 103.349 108.66 103.63 108.171C101.695 106.618 100.926 106.521 98.9405 107.633C98.2647 107.069 98.6848 106.487 98.9656 105.997C99.8549 104.295 100.673 102.64 101.726 101.033C103.924 97.6549 105.959 94.1828 107.667 90.5221C107.972 89.9159 108.322 89.3802 108.93 88.4717C108.975 90.0613 108.134 90.9218 107.759 91.8781C107.361 92.9512 106.799 93.93 106.237 94.9088C105.723 95.9579 105.255 97.0774 104.67 98.1729C104.108 99.1517 103.43 100.106 102.823 101.015C102.215 101.924 101.583 102.949 100.882 104.02C101.931 104.539 102.748 105.011 103.634 105.437C104.753 105.909 105.01 105.841 105.525 104.792C106.601 102.764 107.607 100.782 108.683 98.7542C108.87 98.4279 109.01 98.0313 109.314 97.729C113.266 91.3685 116.822 84.8657 120.121 78.128C121.245 75.8665 122.46 73.7459 123.631 71.5549C123.91 71.0655 124.145 70.5057 124.473 69.7828C123.47 69.3337 122.653 68.8621 121.604 68.3426C120.623 69.9036 119.71 71.4181 118.798 72.9327C117.956 74.4009 117.114 75.869 116.272 77.3372C115.384 78.735 114.937 80.3454 113.839 81.5785C113.676 81.4842 113.56 81.4603 113.396 81.366C113.443 81.1325 113.373 80.8751 113.537 80.6655C116.11 76.0276 118.73 71.4599 121.373 66.7756C122.095 67.4103 122.561 68.1137 123.214 68.491C123.75 68.8443 124.496 69.3623 125.29 68.7353C125.083 67.3553 123.402 67.5571 122.75 66.2684C123.31 66.5049 123.66 66.5768 124.056 66.7191C124.499 66.9316 124.942 67.1442 125.432 67.4272C125.853 67.1489 126.32 66.9409 126.74 66.6626C126.834 66.8032 127.043 66.9678 127.043 66.9678C126.925 67.5516 126.925 68.1593 126.644 68.6487C124.071 73.5905 121.334 78.4379 118.807 83.45C117.193 86.6438 115.369 89.6729 113.592 92.7724C111.089 97.0602 108.306 101.23 106.41 105.825C105.684 107.62 104.679 109.298 103.79 110.999C103.298 111.932 102.574 112.208 101.199 111.804C99.8686 111.471 98.6095 111.091 97.2795 110.756C93.6402 109.826 89.9313 108.942 86.2923 108.013C82.3032 107.011 78.4078 105.846 74.6064 104.214C73.207 103.623 71.8073 103.335 70.3845 102.861C65.2299 101.012 60.1218 99.2329 55.0607 97.2207C52.3086 96.1083 49.8372 94.5065 47.2022 93.1142C46.5959 92.8073 46.0831 92.3372 45.4768 92.0304C42.0723 90.2368 39.1119 87.7446 36.2919 85.1593C32.4461 81.6341 28.6941 77.9457 26.2502 73.1888C25.6217 72.0872 24.9229 71.0319 24.2243 69.9767C23.9448 69.5545 23.4552 69.2716 22.9424 68.8016C24.1125 66.3067 25.3526 63.7654 26.6393 61.2946C28.0896 58.6142 29.7267 55.9113 30.8506 53.0423C31.9522 49.3785 34.2198 46.2581 36.2311 42.9027C38.7802 38.6853 41.3759 34.5383 43.9715 30.3913C44.7666 29.1565 45.5616 27.9218 46.5199 26.7815C48.4128 24.6175 49.7931 21.9834 51.3131 19.5604C51.7339 18.9783 52.1547 18.3961 52.482 17.9771C53.3447 18.519 53.9971 19.2001 54.7436 19.4142C57.2158 20.4084 59.6649 21.2154 62.3247 21.5794C65.8009 22.1112 69.0896 23.2731 72.3548 24.5516C75.97 25.9021 79.5152 27.2991 83.0602 28.6959C89.2407 31.1812 95.2806 34.0632 100.783 37.8071C105.865 41.2218 110.434 45.3817 114.791 49.6808C118.031 52.8991 120.827 56.5125 123.762 60.0332C124.507 60.855 125.37 61.7008 126.163 62.5928C125.205 63.1256 125.974 63.8306 126.183 64.6029C125.996 64.6254 125.926 64.6717 125.739 64.6942C125.529 64.5295 125.249 64.4112 125.063 64.1298C122.5 60.8682 119.962 57.4898 117.399 54.2281C116.42 53.0546 115.326 51.8571 114.254 50.8467C111.526 48.4022 108.776 46.0745 105.886 43.8395C103.041 41.675 100.128 39.5567 97.0957 37.7184C93.365 35.4324 89.5413 33.3096 85.7171 31.1868C83.8517 30.1957 81.9392 29.4382 80.0267 28.6806C77.5079 27.6161 74.9191 26.598 72.3768 25.6503C70.1844 24.7744 67.9921 23.8985 65.4955 23.6288C65.306 25.778 66.0034 27.7449 66.0241 29.7549C65.0234 27.7866 65.5863 25.5925 64.5624 23.4371C63.886 23.1766 63.0229 22.9386 62.23 22.6541C59.5475 21.7991 56.8416 21.0609 54.1826 20.0892C52.013 19.7043 51.546 19.9123 51.0062 22.2934C51.0062 22.2934 50.9361 22.3398 51.0062 22.2934ZM104.052 106.677C103.912 106.466 103.842 106.208 103.679 106.115C102.793 105.689 101.837 105.31 100.927 105.002C100.765 104.908 100.437 105.327 100.274 105.536C100.25 105.653 100.344 105.794 100.32 105.91C101.649 105.636 102.465 107.324 104.052 106.677Z" fill="black"/>
<path d="M50.9371 22.3394C51.3568 22.6687 51.7063 23.0444 52.1258 23.3737C52.6622 23.7271 53.2684 24.0339 53.8512 24.4576C54.2952 24.0626 54.6224 23.6435 55.0663 23.2484C54.7848 24.3455 54.5969 25.2794 53.8258 26.0934C53.1247 26.8613 52.8432 27.9583 52.3519 28.8907C49.7089 33.575 47.0192 38.189 44.3761 42.8734C43.9784 43.6427 43.4641 44.3879 42.9031 45.0629C42.8095 45.2261 42.5062 45.2245 41.8525 45.4549C45.2918 38.6243 48.9637 32.4494 53.0554 26.2999C51.936 25.8269 51.0964 25.472 50.0235 25.0692C51.2843 24.538 52.1927 25.758 53.6633 25.3915C52.8006 24.8496 52.2179 24.4259 51.635 24.0023C51.0522 23.5787 50.7261 23.0862 50.9371 22.3394Z" fill="black"/>
<path d="M37.4453 77.9198C38.5425 77.5981 38.8916 78.2777 39.2642 78.8405C41.4768 82.0303 44.4841 84.2893 47.5849 86.385C49.3568 87.5392 51.1287 88.6934 53.0639 89.9419C52.2235 90.1947 51.4071 90.027 50.7542 89.6497C45.5772 87.0059 41.0314 83.6407 37.7008 78.7625C37.5611 78.5515 37.5615 78.2476 37.4453 77.9198Z" fill="black"/>
<path d="M116.431 63.2681C117.293 64.1137 116.988 64.7199 116.709 65.2093C115.515 67.8209 114.322 70.4325 113.127 73.0441C113.034 73.2072 112.987 73.4407 112.847 73.5335C112.567 73.7191 112.194 73.764 111.866 73.8792C111.867 73.5753 111.704 73.1772 111.798 73.0141C112.78 70.8454 113.81 68.7472 114.84 66.6488C115.284 65.6462 115.799 64.597 116.431 63.2681Z" fill="black"/>
<path d="M82.2468 79.5254C82.6405 81.7944 83.1759 82.7554 84.4589 83.019C85.6254 83.2586 86.5362 82.6555 87.3787 80.8835C87.7739 81.9372 87.6331 82.6377 86.9554 83.2887C86.0442 84.1956 84.4805 84.4214 83.3845 83.8315C82.1253 83.1474 81.3103 81.7643 81.4987 80.5266C81.5691 80.1763 81.9896 79.898 82.2468 79.5254Z" fill="black"/>
<path d="M66.6559 64.0449C66.63 65.9847 66.1622 66.8003 64.9249 67.2147C63.8042 67.6531 61.8213 67.2458 61.2158 66.3311C60.3307 64.9945 59.8427 63.4963 60.5219 61.6299C61.1278 62.2406 60.9403 62.8708 61.0095 63.432C61.195 64.321 61.4271 65.2805 62.2898 65.8224C63.9451 66.9526 65.5794 66.3767 66.6559 64.0449Z" fill="black"/>
<path d="M105.136 81.0666C104.971 82.4915 104.27 83.2592 102.893 83.1588C100.933 82.9385 99.3712 81.9489 98.2536 80.2605C97.7879 79.5571 97.8586 78.903 98.5128 78.0649C98.7217 78.5334 98.9089 78.8148 99.071 79.2129C99.3975 79.7054 99.5836 80.2907 100.049 80.6903C101.495 82.2636 103.057 82.3416 105.136 81.0666Z" fill="black"/>
<path d="M104.287 70.8017C103.05 70.9123 101.606 69.0354 102.028 67.8455C102.145 67.5656 102.565 67.2873 102.892 67.1721C103.965 66.9672 105.48 68.1901 105.62 69.3128C105.759 70.1314 105.15 70.7361 104.287 70.8017Z" fill="black"/>
<path d="M45.0342 56.5032C45.9236 54.4977 48.4212 53.856 50.0997 55.1733C51.3585 56.1613 51.8701 57.5427 51.8911 59.249C51.6347 59.014 51.3784 58.7789 51.1921 58.4975C50.9126 58.0755 50.7267 57.4902 50.4472 57.0682C49.2593 55.4261 47.6963 55.0443 46.1313 56.1815C45.8511 56.3671 45.4542 56.5287 45.1273 56.6438C45.1974 56.5975 45.0808 56.5735 45.0342 56.5032Z" fill="black"/>
<path d="M71.8416 41.8911C69.8562 43.3068 67.8725 43.507 66.357 42.5879C65.6575 42.1403 65.2382 41.5071 65.0527 40.618C64.8672 39.729 64.9142 39.4955 65.8028 38.0977C65.8955 38.5422 65.8952 38.8461 65.8947 39.1498C65.8454 41.2064 66.7077 42.0521 68.7611 42.1093C69.7412 42.0675 70.6748 41.9553 71.8416 41.8911Z" fill="black"/>
<path d="M95.1266 98.5223C94.3092 98.6584 92.9804 97.4129 92.7955 96.5238C92.679 95.8922 93.1699 95.2636 93.824 95.0333C94.6642 94.7804 95.5512 95.2057 95.9234 96.0722C96.3184 96.8221 96.1312 97.7561 95.5467 98.244C95.4531 98.4071 95.1962 98.4759 95.1266 98.5223Z" fill="black"/>
<path d="M60.0208 88.2706C59.975 87.5926 60.4193 86.8937 61.0495 86.78C61.9831 86.6679 63.1487 87.5152 63.1941 88.497C63.2163 89.2917 62.8191 89.7571 62.0021 89.8933C61.0921 89.8887 60.1362 89.2061 60.0208 88.2706Z" fill="black"/>
<path d="M52.1846 49.3409C52.208 49.2241 52.255 48.9907 52.4186 48.7812C52.9561 48.223 53.6094 48.2964 54.2858 48.5569C54.9621 48.8174 55.4983 49.1707 55.5206 49.9655C55.5429 50.7603 55.0289 51.2017 54.4218 51.5025C54.2818 51.5952 54.0484 51.5473 53.8617 51.5698C53.3951 51.4739 52.2769 50.0892 52.1846 49.3409Z" fill="black"/>
<path d="M53.3625 76.0837C52.5696 75.7992 52.0102 75.2588 51.8247 74.3698C51.5926 73.4104 52.1536 72.7355 53.1102 72.8104C54.0203 72.815 54.7894 73.5201 54.9283 74.3388C54.9972 75.2039 54.7635 75.4597 53.3625 76.0837Z" fill="black"/>
<path d="M95.9092 53.5814C97.0782 52.3018 97.9652 52.1194 99.2015 52.6164C100.763 53.302 101.882 54.9906 101.762 56.7896C100.994 55.7806 100.318 54.9125 99.5257 54.0203C98.5702 53.0339 97.2151 54.032 95.9092 53.5814Z" fill="black"/>
<path d="M88.0611 40.6641C89.0877 40.6927 89.7403 41.3738 89.739 42.2852C89.6913 43.1264 88.9437 43.8237 88.2202 43.7968C87.3803 43.7457 86.565 42.6665 86.6362 41.7086C86.7772 41.0081 87.221 40.6131 88.0611 40.6641Z" fill="black"/>
<path d="M82.0857 95.4176C79.895 93.3263 79.3118 93.2066 76.3698 94.5472C76.0206 93.8677 76.6278 93.567 76.9315 93.2647C77.5856 92.7304 78.2628 92.3833 79.1259 92.6213C80.2223 92.9074 81.2716 93.4268 81.8536 94.4581C82.2267 94.7171 82.0861 95.1137 82.0857 95.4176Z" fill="black"/>
<path d="M38.2025 69.6269C39.1125 69.6316 39.8116 70.383 39.8104 71.2945C39.8328 72.0892 39.2017 72.8106 38.4784 72.7835C37.7084 72.6861 36.9161 71.794 36.964 70.9529C36.9417 70.1581 37.4792 69.6 38.2025 69.6269Z" fill="black"/>
<path d="M80.5755 38.0313C80.1092 37.6317 79.5731 37.2785 79.0603 36.8084C78.0583 35.7516 76.8918 35.512 75.6306 36.3469C75.4905 36.4398 75.4204 36.4861 75.2337 36.5086C75.1636 36.5549 75.117 36.4846 74.8838 36.4367C74.9307 36.2032 74.838 35.7587 74.9781 35.6659C76.1927 34.7605 78.4568 34.3746 79.7144 36.2741C80.0404 36.7666 80.3664 37.2591 80.7626 37.7051C80.8092 37.7755 80.7155 37.9386 80.5755 38.0313Z" fill="black"/>
<path d="M86.2569 64.4239C87.0968 64.4748 87.5164 64.8041 87.5156 65.4118C87.4913 66.1362 86.6031 67.2302 86.1831 67.2048C85.5764 67.2017 84.8774 66.4502 84.8551 65.6554C84.7162 64.8368 85.3468 64.4192 86.2569 64.4239Z" fill="black"/>
<path d="M79.4348 53.662C79.1538 54.4553 78.9662 55.0853 78.7788 55.7155C77.9383 55.9682 77.168 56.1748 76.7957 55.3081C76.6795 54.9803 76.7504 54.3263 76.9375 54C77.6386 53.2322 78.3854 53.1426 79.4348 53.662Z" fill="black"/>
<path d="M60.1408 32.4358C60.5143 32.391 61.0509 32.4405 61.2134 33.1425C61.3057 33.8908 60.6512 34.7289 60.0911 34.7962C59.5309 34.8634 58.6917 34.2048 58.599 33.7603C58.4832 33.1287 59.0907 32.5241 60.1408 32.4358Z" fill="black"/>
<path d="M66.8519 75.147C67.7607 76.0631 68.5995 77.0256 69.5084 77.9417C68.5744 78.3576 68.2946 78.2393 67.1994 77.0418C66.3372 76.1961 66.3372 76.1961 66.8519 75.147Z" fill="black"/>
<path d="M62.7418 24.6431C63.0898 26.2341 63.4378 27.8252 63.8557 29.3699C63.739 29.3459 63.5989 29.4386 63.4823 29.4148C62.9477 27.8461 62.2964 26.2535 62.7418 24.6431Z" fill="black"/>
<path d="M70.5148 22.228C65.9652 21.5972 56.6795 20.3583 70.5084 27.0893C72.164 27.9157 67.431 24.8768 65.6586 24.0264" fill="#BCBCBB"/>
<path d="M90.0229 93.4012L66.1388 85.03L47.5355 71.24L45.0195 68.0487L58.5661 41.1695L67.5275 40.7007L86.3708 49.3735L100.775 61.6933L105.787 66.6734L90.0229 93.4012Z" fill="white"/>
<path d="M91.499 52.8588C91.1727 52.6701 90.8697 52.3647 90.5433 52.1761C87.9092 50.1762 85.3685 48.0131 82.4305 46.3155C82.1506 46.1972 81.9873 46.1029 81.7775 45.9382C77.1834 43.718 72.4954 41.9648 67.5267 40.701C66.6636 40.4628 65.8706 40.1783 65.0075 39.9402C64.4242 39.8205 63.841 39.7006 63.2578 39.5808C63.4445 39.5583 63.5612 39.5823 63.7013 39.4896C63.0249 39.2291 62.3951 39.0389 61.6953 38.8951C61.5786 38.8712 61.3453 38.8233 61.2287 38.7993C60.4584 39.0057 59.7115 39.0954 58.9411 39.3018C58.1243 39.438 57.7034 40.0201 57.3758 40.7431C56.5334 42.515 55.6209 44.3335 54.6619 46.0814C53.7964 47.6663 52.9774 49.3216 52.112 50.9066C50.1704 54.5193 48.3454 58.156 46.4038 61.7689C45.9125 62.7012 45.4679 63.704 44.86 64.6125C44.5092 65.1482 43.832 65.4954 44.0876 66.3381C44.32 66.9937 44.4359 67.6253 44.8786 68.1417C45.6939 69.2209 46.5793 70.2538 47.4646 71.2866C50.2374 74.4091 53.5945 76.7399 56.8582 79.2338C60.938 82.1993 65.2513 84.909 69.7989 87.0588C72.9706 88.5005 76.2358 89.7792 79.6181 90.7778C82.6039 91.6343 85.5896 92.4909 88.5288 93.277C88.9954 93.3729 89.4619 93.4686 89.9286 93.5645C90.5117 93.6844 91.0488 93.4299 91.1197 92.7759C91.1905 92.1219 90.7244 91.7222 90.1176 91.7192C87.9476 91.638 85.942 90.7398 83.8893 90.0749C81.277 89.1736 78.6882 88.1555 76.0988 87.4412C73.1131 86.5848 70.2443 85.4484 67.4927 84.0321C62.5957 81.5066 58.0728 78.3284 53.7136 74.9409C51.0328 72.8706 48.5857 70.5443 46.7226 67.7304C45.8376 66.3937 45.8157 65.295 46.5177 63.9197C48.1785 60.7963 49.8395 57.6728 51.5239 54.4327C53.4891 50.7031 56.1069 47.3509 57.5358 43.268C57.6528 42.9881 57.8865 42.7322 58.0271 42.3356C58.3547 41.6127 58.9853 41.1953 59.7788 41.1759C62.1825 41.0011 64.5862 40.8263 67.0123 41.4462C74.6403 43.378 81.6131 46.7554 87.8605 51.625C90.7511 53.8599 93.6657 55.9781 96.4854 58.2595C99.3998 60.6816 102.266 63.0332 104.527 65.9896C104.035 67.5296 103.659 69.0936 103.19 70.5168C102.651 71.9866 102.067 73.386 101.364 74.7613C100.709 76.207 99.9604 77.5121 99.2583 78.8875C98.5334 80.3796 97.8781 81.8253 97.1064 83.2472C96.4043 84.6225 95.4922 85.8333 94.7205 87.255C93.9716 88.5601 92.6405 89.4415 92.3357 90.9591L92.9648 91.4531C93.152 91.1268 93.2924 90.7302 93.4796 90.4039C94.8826 88.2609 96.2856 86.1177 97.5722 83.9506C100.963 78.5689 103.631 72.8563 105.575 66.8129C105.879 65.9029 105.811 65.3416 105.088 64.7069C103.294 63.0618 101.522 61.3 99.611 59.6309C97.2571 57.1415 94.6006 54.6507 91.499 52.8588Z" fill="black"/>
<path d="M52.1836 66.8457L68.6248 74.478L80.5746 55.2333L74.6055 51.6973L62.4999 47.5693L52.1836 66.8457Z" fill="#EB584A"/>
<path d="M62.5003 47.5699C57.8018 53.7163 56.0185 61.0693 53.3954 68.3714C53.2787 68.3475 52.4853 68.3669 52.2289 68.1318C51.9259 67.8264 51.8802 67.1485 52.0673 66.8222C54.1486 63.4204 55.1105 59.5455 56.3988 55.8594C57.2654 53.363 58.7851 51.2439 59.9783 48.936C60.3059 48.2132 60.7502 47.5142 61.0779 46.7914C61.4055 46.0685 61.9191 45.9308 62.9219 46.38C64.3678 47.0417 65.8837 47.6571 67.3296 48.3188C69.7784 49.4297 72.1805 50.4702 74.5357 51.7442C76.5178 52.7592 78.2663 54.0301 80.4347 55.3266C78.3769 58.6116 76.3892 61.8503 74.4714 65.0425C72.5071 68.1643 70.5894 71.3565 68.6017 74.5952C64.3101 72.9842 59.9712 71.9105 56.1008 69.4135C55.6112 69.1306 55.3317 68.7084 54.9822 68.3327C55.0758 68.1696 55.0992 68.0529 55.2394 67.9601C55.7525 68.1263 56.3593 68.1294 56.7322 68.3883C58.9935 70.1293 61.5828 70.8435 64.125 71.7913C65.2679 72.1477 66.3409 72.5504 67.7636 73.0251C71.9012 67.5536 74.8962 61.4219 78.6839 55.8787C76.2371 53.2486 68.192 49.1646 62.5003 47.5699Z" fill="black"/>
<path d="M92.4162 64.8994C92.5555 65.1105 92.673 65.1345 92.673 65.1345C92.7187 65.2048 92.7427 65.3919 92.6719 65.4382C92.5783 65.6014 92.5555 65.7182 92.4619 65.8813C88.9075 71.1687 84.6541 76.0086 81.7997 81.7435C81.7296 81.79 81.613 81.766 81.2861 81.8812C81.4502 81.3678 81.5206 81.0176 81.6611 80.621C82.9252 77.6592 84.8886 75.145 86.7355 72.6068C88.5123 70.115 90.2891 67.6232 92.0657 65.1314C92.0189 65.0611 92.2061 65.0386 92.4162 64.8994Z" fill="black"/>
<path d="M99.0134 70.7524C97.0978 72.4255 96.4883 74.5493 95.4357 76.4604C93.8683 79.4207 92.4174 82.4049 90.8496 85.3653C90.7326 85.6451 90.4524 85.8307 89.9854 86.0387C90.0559 85.6884 89.9396 85.3606 90.1268 85.0344C92.5601 80.4892 94.922 75.9904 97.3559 71.4452C97.5431 70.815 97.8935 70.2793 99.0134 70.7524Z" fill="black"/>
<path d="M84.8499 68.3902C84.8028 68.6237 84.8725 68.8812 84.779 69.0443C82.2777 72.4205 79.7763 75.7967 77.3215 79.2434C77.2049 79.2194 77.0417 79.1251 76.9951 79.0548C77.1356 78.6581 77.1595 78.2375 77.4633 77.9353C78.9129 75.8625 80.3623 73.7897 81.8119 71.717C82.5599 70.7158 83.3079 69.7146 84.1261 68.667C84.2897 68.4575 84.4999 68.3184 84.7101 68.1792C84.64 68.2255 84.7332 68.3662 84.8499 68.3902Z" fill="black"/>
<path d="M60.8275 59.5042C60.8509 59.3875 60.921 59.3411 60.921 59.3411C61.341 59.3666 61.8075 59.4624 62.2041 59.6047C62.5079 59.3024 62.7646 59.2336 63.0915 59.1183C62.5087 58.6947 62.019 58.4118 61.0157 58.2665C60.7586 58.6391 60.3617 58.8008 59.8952 58.7049C59.4751 58.6794 59.1487 58.4908 58.9624 58.2094C58.5885 58.5581 58.4476 59.2585 59.0069 59.7988C59.2633 60.0339 59.6598 60.1761 59.9166 60.1073C60.29 60.0624 60.6404 59.8305 60.8275 59.5042ZM59.802 58.5642C60.1519 58.636 60.5488 58.4745 60.7825 58.2185L60.8526 58.1722L60.9692 58.1962C62.0425 58.295 62.6953 58.6723 63.3248 59.1663C63.5816 59.0974 63.8383 59.0287 63.9785 58.9359C63.699 58.5138 62.7201 57.6441 61.0871 57.3086C60.9242 56.9104 60.5747 56.5347 60.0847 56.5556C59.1746 56.551 58.6833 57.4834 59.1956 58.2572C59.2422 58.3277 59.5687 58.5163 59.802 58.5642ZM61.2041 57.0288C62.767 57.4107 63.816 58.234 64.1421 58.7264L64.1886 58.7968C64.3053 58.8207 64.5386 58.8686 64.8885 58.9405C63.7006 57.2984 61.9043 56.8686 61.9043 56.8686C62.1851 56.3792 61.9525 55.7237 61.5095 55.5111C60.8566 55.1339 60.0392 55.5737 60.0149 56.2982C60.0149 56.2982 60.085 56.2518 60.1316 56.3222C60.5751 56.2309 61.0413 56.6306 61.2041 57.0288ZM60.4062 60.3903C61.9231 60.3979 62.9721 61.2212 63.7874 62.3005C63.8574 62.254 63.9044 62.0206 63.9979 61.8574C64.0214 61.7408 64.0449 61.624 64.115 61.5776L64.0684 61.5072C63.9521 61.1795 63.6027 60.8038 63.183 60.4744L63.0198 60.3801C62.8331 60.4025 62.6699 60.3082 62.5066 60.2139C62.1803 60.0253 61.9935 60.0477 61.8533 60.1405L61.8067 60.0701C61.9003 59.9069 61.9704 59.8606 61.994 59.7439C61.714 59.6255 61.2475 59.5298 60.944 59.5282C60.944 59.5282 60.8741 59.5746 60.9206 59.6449C60.71 60.088 60.3597 60.3199 59.8696 60.3407C59.5663 60.3393 59.0997 60.2434 58.8433 60.0084C58.5626 60.4978 58.8187 61.0366 59.3318 61.2029C59.7984 61.2986 60.3589 60.9275 60.4062 60.3903ZM61.5492 60.7466C61.4091 60.8394 61.3155 61.0025 61.2219 61.1656C61.4322 61.0265 61.8517 61.3558 62.2251 61.311C62.2952 61.2645 62.3653 61.2182 62.3653 61.2182C62.1089 60.9831 61.8991 60.8185 61.5492 60.7466ZM64.4892 60.9251C64.373 60.5973 64.2101 60.1992 63.9303 60.0809C63.7435 60.1033 63.3701 60.1482 63.16 60.2873C63.5795 60.6167 63.9756 61.0627 64.0918 61.3905C64.3021 61.2514 64.3956 61.0882 64.4892 60.9251ZM64.8606 62.3994C64.744 62.3754 64.744 62.3754 64.6739 62.4218C64.6504 62.5385 64.697 62.6089 64.7436 62.6793C64.8602 62.7032 64.9303 62.6568 64.9537 62.5401C65.0238 62.4938 64.9772 62.4233 64.8606 62.3994C64.814 62.329 64.9307 62.353 64.8606 62.3994ZM72.6105 60.4052C72.2816 62.0396 70.997 62.9914 69.9232 63.1963C71.1371 62.8986 72.259 61.5487 72.4473 60.311C71.9341 60.1447 68.9755 56.437 65.7282 59.2953C65.8447 59.3193 65.9379 59.46 65.9145 59.5767C66.2882 59.228 66.9654 58.8809 68.1084 59.2373C66.8253 58.9737 66.031 59.6007 65.7039 60.0197C66.1016 59.2504 64.0486 58.8895 64.0486 58.8895C63.5811 59.4013 62.6715 59.0929 62.1571 59.8382C62.4139 59.7694 62.7168 60.0748 63.0668 60.1467C63.3471 59.961 64.0238 59.9178 64.0238 59.9178C64.3503 60.1064 64.6297 60.5285 64.6293 60.8323C65.0032 60.4837 65.3535 60.2517 65.6102 60.1829C65.3296 60.6723 65.6557 61.1647 65.6557 61.1647C65.6557 61.1647 65.3527 60.8594 65.4932 60.4628C65.0728 60.7411 64.7224 60.9731 64.3718 61.5088C64.1381 61.7647 64.1373 62.3724 63.7869 62.6043C64.0664 63.0264 64.4604 64.9916 63.8044 67.045C63.6639 67.4417 63.4297 68.0014 63.4297 68.0014C63.4763 68.0717 63.5464 68.0254 63.6631 68.0494C63.7331 68.0029 63.9668 67.747 63.7805 67.4656C63.8271 67.536 64.0134 67.8174 63.8497 68.0269C64.9 67.9387 66.7233 65.5172 66.2356 63.7151C66.4454 63.8799 66.4912 64.5578 66.4208 64.9081C66.5143 64.745 66.678 64.5355 66.8881 64.3963C67.1684 64.2107 67.0752 64.0701 67.0522 63.8829C66.9355 63.859 66.6791 63.6239 66.8662 63.2977C67.0067 62.9011 67.7071 62.741 68.0347 62.0182C68.3624 61.2952 67.9201 60.475 66.9172 60.0259C68.2935 60.4301 68.5256 61.3896 68.2214 61.9957C68.8046 62.1156 69.5272 62.7502 69.5964 63.3115C69.4794 63.5914 69.4555 64.0119 69.7119 64.247C70.8787 64.1827 72.8406 62.8838 73.1938 60.5251C72.9839 60.3604 72.7507 60.3124 72.6105 60.4052ZM65.398 61.8412L65.258 61.9339C65.258 61.9339 65.258 61.9339 65.1879 61.9804C65.1178 62.0267 65.0477 62.0731 64.9777 62.1196L64.9076 62.1659C64.9777 62.1195 65.0243 62.1899 65.0243 62.1899C65.1874 62.2842 65.2806 62.4249 65.1871 62.5881C65.0935 62.7512 64.9534 62.8439 64.7901 62.7496C64.6735 62.7256 64.6269 62.6553 64.6504 62.5385C64.6504 62.5385 64.5803 62.585 64.6269 62.6553C64.6269 62.6553 64.6269 62.6553 64.5568 62.7016L64.5334 62.8184C64.5334 62.8184 64.5334 62.8184 64.4633 62.8648C64.4633 62.8648 64.4633 62.8648 64.3932 62.9112C64.3932 62.9112 64.3932 62.9112 64.3231 62.9576C64.3231 62.9576 64.3231 62.9576 64.2531 63.0039C64.2066 62.9336 64.23 62.8169 64.3001 62.7705C64.3001 62.7705 64.3001 62.7705 64.2535 62.7002C64.2535 62.7002 64.2535 62.7002 64.2069 62.6298C64.2069 62.6298 64.2069 62.6298 64.1603 62.5594L64.2304 62.513C64.2304 62.513 64.2304 62.5131 64.3005 62.4667C64.3239 62.3499 64.394 62.3036 64.4641 62.2571C64.5342 62.2108 64.6043 62.1644 64.6277 62.0476C64.6277 62.0476 64.6277 62.0476 64.6978 62.0013L64.7679 61.9548C64.7679 61.9548 64.7679 61.9548 64.838 61.9085C64.838 61.9085 64.838 61.9085 64.9079 61.8621L64.978 61.8157C65.2814 61.8173 65.2815 61.8173 65.398 61.8412C65.4681 61.7948 65.4681 61.7948 65.398 61.8412Z" fill="white"/>
<path d="M94.3456 35.6941C94.9039 36.5383 95.09 37.4274 94.832 38.4078C94.4564 40.2756 92.9837 42.1613 91.4415 43.4856C89.6895 44.9491 87.7033 46.9725 87.3505 49.0274C87.2096 49.7279 87.2554 50.4059 87.4878 51.0615C87.767 51.7874 88.3494 52.5148 88.3716 53.3096C88.5085 55.6476 84.6099 56.9132 85.1903 59.1599C90.1606 59.2084 95.1311 59.2569 100.148 59.3758C101.852 59.361 103.602 59.4167 104.977 60.4286C106.353 61.4405 107.026 63.2202 106.628 64.901C106.183 66.5114 104.71 67.7894 102.984 67.9209C101.49 68.1003 99.9976 67.3683 98.6448 66.8471C93.8639 64.9533 88.5905 64.2955 83.4792 64.9474C80.9819 65.2853 77.9463 66.7891 78.3631 69.2454L78.4097 69.3157C78.7576 70.9067 80.4132 71.7331 81.9293 72.3485C85.1244 73.6734 88.3662 75.0688 91.4917 76.4402C95.7361 78.2846 100.05 80.0827 104.295 81.9273C106.861 83.0621 118.056 86.5777 113.85 91.7918C111.114 95.1202 98.7088 88.56 95.4678 87.1646C88.6109 84.1149 82.012 80.3888 75.8573 75.9638C74.5013 77.8734 75.7813 80.5677 77.0854 82.5375C81.0679 88.4006 85.7977 93.8701 91.112 98.548C87.7966 99.9335 84.1556 100.523 80.5387 100.388C77.3472 96.3282 75.3703 91.3634 74.7704 86.1951C74.1872 86.0753 73.5804 86.0723 73.067 86.2099C71.9697 86.5315 70.9653 87.2977 70.2873 88.2526C70.1937 88.4157 70.1002 88.5788 69.9365 88.7883C69.118 90.1397 68.6961 91.6333 68.0407 93.0792C67.1514 95.0846 65.912 97.0182 64.3697 98.6464C63.2013 99.926 61.4962 101.157 59.8166 100.75C58.3703 100.392 57.3221 98.9614 57.0674 97.511C56.8126 96.0606 57.1179 94.543 57.4233 93.0254C58.0341 89.9902 58.6914 87.0252 59.302 83.99C57.2482 84.2367 55.3365 82.8715 54.2187 81.183C53.1709 79.4482 52.7303 77.4126 52.3596 75.3307C52.1045 74.1842 51.9193 72.9912 52.3876 71.8718C53.8626 68.1632 60.3938 70.1126 62.7316 66.9459C62.0552 66.6854 61.4954 66.4488 60.8891 66.142C57.3675 64.6284 53.963 62.8348 50.6519 60.8782C44.9626 57.4605 39.6943 53.4606 34.9166 48.8322C33.495 47.4461 31.934 45.545 32.4966 43.6548C32.9656 41.9276 34.927 40.9326 36.7703 41.1288C38.5669 41.2548 40.1992 42.1979 41.7147 43.1171C46.9143 46.2519 52.0674 49.3164 57.2669 52.451L67.8294 58.815C68.8087 59.3809 69.8346 60.0171 70.7438 60.6293C71.1675 57.9203 70.611 55.2532 70.3113 52.5171C70.0115 49.7811 69.9685 46.9762 71.3484 44.6461C72.7282 42.3159 75.9271 40.9064 78.2122 42.2267C79.1915 42.7926 80.1003 43.7087 81.1274 43.4335C81.7111 43.2494 82.0618 42.7136 82.4591 42.2482C83.1371 41.2933 83.7451 40.385 84.3529 39.4765C85.5453 37.7765 86.8077 36.03 88.5825 35.0574C90.6375 33.8991 93.1573 34.0521 94.3456 35.6941Z" fill="white"/>
<path d="M57.4302 52.2417C57.3828 52.779 57.3119 53.4331 57.1479 53.9464C56.3508 56.7003 52.5231 57.3119 51.0497 59.8052C50.9326 60.0851 50.7455 60.4114 50.7451 60.7152C54.0562 62.6719 57.4607 64.4654 60.9823 65.979C62.009 66.0075 63.0122 66.1529 64.0389 66.1814C65.2989 66.2579 66.559 66.3344 67.6331 65.8257C68.8472 65.2241 70.4366 63.3624 70.4616 62.0304C70.5337 60.4648 68.9481 59.592 67.9226 58.652L57.4302 52.2417Z" fill="#BCBCBB"/>
<path d="M72.0995 76.5296C72.2862 76.5071 72.5195 76.5551 72.7527 76.603C73.0326 76.7213 73.2189 77.0027 73.3587 77.2138C74.4296 79.1356 73.3296 81.5842 73.1866 83.8038C73.0922 84.5746 73.1846 85.3229 73.2769 86.0713C72.1798 86.393 71.1754 87.1591 70.4974 88.1139C70.4038 88.2771 70.3102 88.4402 70.1466 88.6497C69.7279 87.7128 69.2389 86.8221 68.563 86.2577C67.3512 85.0364 65.4383 84.5826 64.904 82.7102C63.9518 79.2929 69.4159 76.5861 72.0995 76.5296Z" fill="#BCBCBB"/>
<path d="M94.9489 38.4319C94.5733 40.2998 93.1007 42.1855 91.5584 43.5099C89.8063 44.9734 87.8202 46.9968 87.4674 49.0517C85.4845 48.6443 82.8499 46.9482 82.0589 45.1445C80.8956 42.4743 85.5388 42.9419 87.1737 41.7582C88.3183 40.8992 88.9735 39.4534 90.1882 38.5482C91.45 37.4093 93.5973 37.3033 94.9489 38.4319Z" fill="#BCBCBB"/>
<path d="M78.5961 69.2935C78.9441 70.8845 80.5997 71.7109 82.1157 72.3263C85.3109 73.6512 88.5526 75.0466 91.6773 76.4179C91.2092 77.8413 90.3206 79.2391 89.0594 80.0741C88.4989 80.4452 87.7751 80.722 87.0517 80.695C86.4451 80.6919 85.8388 80.385 85.349 80.102C82.9239 78.8744 78.2127 76.9342 77.2131 74.0543C76.7716 72.6264 77.4508 70.76 78.5961 69.2935Z" fill="#BCBCBB"/>
<path d="M85.9123 78.2115C87.5676 79.3416 89.1294 80.635 90.9017 81.4854C95.7053 83.8703 100.557 86.0217 105.408 88.173C107.646 89.1193 110.002 89.7856 112.335 90.5686C113.245 90.8771 114.061 91.3486 115.063 91.7977C116.347 91.1499 116.49 89.538 117.495 88.1641C104.365 81.8807 91.4232 75.575 78.4567 69.3859C77.5446 70.9005 76.5159 72.391 75.4402 74.1151C76.6711 78.562 79.2559 82.6184 82.3783 86.1167C85.4539 89.5445 89.0436 92.5309 92.6561 96.0082C91.4415 96.6097 90.4608 97.2592 89.5038 97.4881C87.1928 98.1074 84.8121 98.4692 82.4545 99.0182C80.4238 99.452 79.0483 98.4401 78.2808 96.5198C77.2107 93.9901 76.1642 91.3438 75.0941 88.8142C74.6522 87.6902 74.1637 86.4958 73.6056 85.0438C71.828 88.1433 70.1209 90.8926 68.507 93.7825C67.3843 95.7401 66.2385 97.5105 64.3001 98.6926C62.9689 99.5741 61.6384 99.8478 60.1459 99.1157C58.8402 98.3612 57.581 97.6771 56.2752 96.9225C55.1327 96.2623 55.0407 95.2101 55.4388 94.1371C56.3987 91.7814 57.4051 89.496 58.4115 87.2106C58.8328 86.3247 59.1839 85.485 59.7687 84.3896C58.8587 84.3849 58.2754 84.2651 57.7153 84.3324C55.8717 84.4399 54.6595 83.5223 53.7749 81.8818C53.286 80.9912 52.8672 80.0542 52.7518 79.1188C52.4046 76.92 52.1276 74.675 52.0373 72.4074C51.947 70.1399 52.8356 68.7421 54.9598 68.1451C56.3838 67.7083 57.8075 67.5753 59.3011 67.3958C60.048 67.3062 60.7248 67.2628 62.0083 67.2226C61.1456 66.6807 60.6794 66.2809 60.1197 66.0444C55.1752 64.0562 51.1428 60.5534 46.7833 57.4695C43.4962 55.0924 40.092 52.9951 36.8048 50.6179C35.103 49.4173 33.5647 48.0072 31.8863 46.6898C31.0472 46.0313 30.8852 45.0254 31.3529 44.2098C32.2184 42.6249 33.2471 41.1342 34.3225 39.714C34.5797 39.3414 35.4196 39.3924 35.8862 39.4882C36.4694 39.608 36.9355 40.0077 37.4253 40.2907C43.9537 44.3671 50.6928 48.0004 56.847 52.7292C60.1572 55.2936 63.9118 57.1589 67.4791 59.3506C67.8056 59.5392 68.1555 59.6111 68.6686 59.7772C69.021 58.0262 68.8598 56.4127 68.7451 54.8696C68.6079 52.8355 68.5171 50.8719 68.4964 48.8618C68.4531 46.3607 69.4825 44.2625 70.7454 42.2122C70.9325 41.886 71.5861 41.6555 72.0762 41.6346C74.2933 41.4822 76.5099 41.6337 78.4451 42.8822C78.9813 43.2354 79.5877 43.5424 80.3572 43.9435C80.8715 43.1983 81.3624 42.5698 81.8067 41.8709C83.2097 39.7277 84.6126 37.5846 86.1321 35.4655C86.623 34.8369 87.2306 34.2323 87.9313 33.7684C89.1224 32.9798 90.3828 32.7525 91.5716 33.7868C91.9906 34.1161 92.4107 34.4455 92.8308 34.7748C94.5089 36.0922 94.9964 37.8943 94.0603 39.8294C93.3114 41.4382 92.6322 43.0007 91.8376 44.5392C91.4392 45.3085 90.8086 46.0299 90.2476 46.7048C89.6867 47.3797 89.1258 48.0547 88.4247 48.8224C89.9152 51.0736 89.0261 52.7753 87.554 54.3571C86.6192 55.3808 85.7776 56.5451 84.7023 57.9653C86.8958 57.9297 88.4828 57.891 90.1161 57.9226C93.5226 57.8931 96.9999 57.8173 100.454 57.858C102.204 57.9136 103.954 57.9692 105.516 58.9587C106.169 59.336 106.494 59.8285 106.587 60.5769C106.747 63.4056 106.976 66.1881 107.16 68.9002C107.183 69.0873 106.879 69.3896 106.855 69.5062C104.29 68.6753 101.934 67.7051 99.4383 67.1315C96.7087 66.5101 93.9792 66.1925 91.226 65.6877C90.5726 65.6143 89.7322 65.8671 89.4536 64.8373C89.407 64.767 89.2438 64.6727 89.1272 64.6487C85.7667 64.7486 82.2897 64.8244 78.8592 64.9706C78.5559 64.9691 78.3222 65.2251 77.9253 65.3866C78.2736 66.6739 79.1125 67.6363 80.0917 68.2022C85.058 71.289 90.0714 74.1424 95.4827 76.2265C98.1882 77.2686 100.707 78.6369 103.365 79.9124C108.029 82.0862 112.624 84.3065 117.24 86.4099C119.293 87.3786 119.456 87.7766 118.193 89.827C115.62 94.1612 115.013 94.462 110.56 92.149C106.875 90.2372 102.886 88.9316 99.0615 87.4164C92.8103 84.9775 87.1682 81.3263 81.3389 78.0013C79.9165 77.2229 78.7047 76.0014 77.3758 75.0598C76.5366 74.4011 76.7707 73.8414 77.4487 72.8866C78.9873 73.9929 80.4094 75.0752 81.948 76.1814C82.0881 76.0886 82.1817 75.9255 82.3218 75.8328C81.88 74.7086 81.5082 73.5382 81.0197 72.3437C81.1598 72.2509 81.3465 72.2286 81.4166 72.1821C81.9285 73.2599 82.4405 74.3375 82.8824 75.4616C83.3469 77.0766 84.3724 78.0167 85.9123 78.2115ZM85.0813 53.6668C85.1745 53.8075 85.3142 54.0185 85.3843 53.9722C86.622 53.2539 87.5799 52.4174 87.6754 50.7351C86.5325 50.3787 86.0651 50.8905 85.7606 51.8005C85.503 52.477 85.3154 53.1071 85.0813 53.6668C85.2693 52.7329 85.3406 51.775 85.5986 50.7947C85.9974 49.114 85.8346 48.7158 84.3657 47.867C83.7128 47.4897 82.9197 47.2053 82.2203 46.7576C79.0728 44.5915 75.6902 43.8966 71.8406 43.4097C71.395 45.02 70.903 46.5602 70.6442 48.1481C70.0561 51.6743 70.7982 55.2306 71.1201 58.7613C71.3741 60.8194 71.8152 62.551 74.1951 62.7968C74.545 62.8687 74.8715 63.0573 75.3846 63.2236C75.7127 62.1968 76.0173 61.2869 76.3217 60.3769C77.001 58.5107 77.517 56.55 78.2427 54.7541C79.3666 51.885 81.7488 50.3077 84.2474 49.0584C84.3876 48.9656 84.5973 49.1302 85.1805 49.2501C83.7788 50.4817 82.6573 51.5277 81.4658 52.6201C81.9538 54.1184 82.629 55.2904 84.0981 56.1393C84.4726 55.183 84.7537 54.3897 85.0813 53.6668ZM66.7465 66.3116C67.5881 65.1473 68.3827 64.2165 69.0607 63.2617C69.6451 62.47 69.6228 61.6752 68.8067 61.2036C67.1745 60.2606 65.4257 59.2934 63.7935 58.3503C60.8089 56.5823 57.7778 54.744 54.8868 52.8128C53.1148 51.6587 51.4133 50.1543 49.5713 49.0465C45.9573 46.7845 42.3199 44.6392 38.6824 42.494C37.5399 41.8338 36.3273 41.22 35.068 40.5358C33.9458 42.1895 32.2877 43.1861 32.4947 45.4776C33.1245 45.6678 33.7077 45.7876 34.1974 46.0705C36.2257 47.4597 38.254 48.8489 40.2588 50.3549C46.2733 54.8727 52.3349 59.157 58.7936 62.9759C59.0034 63.1407 59.3067 63.1422 59.7499 63.3548C59.611 62.5361 59.6118 61.9284 59.4959 61.2968C60.6616 62.1441 60.1683 64.5956 62.4319 64.5135C61.7806 62.921 61.2691 61.5395 60.7109 60.0876C61.6193 61.3075 62.4343 62.6906 62.9459 64.0721C63.4108 65.3833 64.1568 65.9012 65.3233 66.1409C65.8134 66.12 66.28 66.2159 66.7465 66.3116ZM57.3969 78.0672C57.3503 77.9968 57.4204 77.9504 57.3738 77.8801C57.584 77.7409 57.7242 77.6481 57.9108 77.6257C61.1546 77.5019 64.1894 76.6057 67.3639 75.9207C67.8074 75.8294 68.391 75.6454 68.6474 75.8804C69.6498 76.6333 70.5136 76.2638 71.4477 75.8478C72.4517 75.3855 72.9879 75.7388 73.1264 76.8613C73.2419 77.7967 73.1705 78.7546 73.4261 79.5973C75.1455 85.2387 77.0751 90.7408 79.7283 95.9661C80.3335 97.1845 81.2658 97.9838 82.5496 97.6398C84.5804 97.206 86.6347 96.6555 88.6888 96.1049C89.0857 95.9434 89.413 95.5243 89.8103 95.0589C87.8525 93.3195 85.8942 91.8839 84.2863 90.2163C82.6318 88.4785 81.1409 86.5311 79.5799 84.63C77.5763 82.2126 75.7829 79.656 74.8769 76.613C74.4123 74.998 73.4568 74.0116 71.9174 73.513C69.9814 72.8722 68.2791 71.9755 67.3253 69.7736C67.1625 69.3755 66.5331 68.8815 66.1596 68.9263C62.7758 69.143 59.3218 69.4059 55.9144 69.7392C54.7942 69.8738 54.3729 70.7598 54.5115 71.8823C54.7424 73.7533 55.0199 75.6945 55.2973 77.6359C55.4131 78.2674 55.8323 78.9006 56.1113 79.6266C57.3256 79.0251 58.2831 78.4923 59.3572 77.9836C59.3106 77.9133 59.334 77.7965 59.2409 77.6557C58.6573 77.8398 58.0271 77.9535 57.3969 78.0672ZM71.6789 77.4149C69.7405 78.5971 68.0824 79.5937 66.4708 80.6606C63.8083 82.4234 60.9826 84.0919 59.9045 87.639C59.7873 87.9188 59.5537 88.1747 59.4366 88.4545C58.6408 90.2969 57.8215 92.256 57.0722 94.1687C56.7676 95.0786 57.0468 95.8046 57.7693 96.4393C60.2399 98.6487 63.4606 98.3379 65.5407 95.8476C65.7743 95.5917 65.9615 95.2654 66.1486 94.9391C67.6686 92.5161 69.1886 90.0933 70.662 87.5999C72.1119 85.2233 73.3285 82.7988 71.9791 79.8471C71.7931 79.2618 71.8174 78.5375 71.6789 77.4149ZM77.8859 59.8473C77.7677 61.0387 77.626 62.3468 77.4842 63.6548C80.2614 63.4352 82.7818 63.2844 85.3022 63.1335C91.0664 62.8588 96.5957 63.7516 101.913 66.3026C102.846 66.7982 103.919 66.8972 105.249 67.2311C105.042 64.6357 104.881 62.4146 104.721 59.8897C103.555 59.65 102.365 59.2233 101.199 59.2875C93.6607 59.3195 86.1004 59.4682 78.493 59.5465C78.353 59.6393 78.2829 59.6857 77.8859 59.8473ZM81.4767 44.4167C82.3629 44.8418 82.8059 45.0544 83.2254 45.3838C83.7152 45.6668 84.1813 46.0664 84.7176 46.4197C86.4195 47.6202 87.2594 47.6712 88.7082 46.2061C89.5493 45.3456 90.1807 44.3205 90.8122 43.2954C91.4666 42.1534 91.7954 40.8229 92.4267 39.7978C93.316 38.3999 92.8274 37.2055 92.0819 36.0799C91.0807 34.4155 89.6574 34.2446 88.2091 35.4059C87.7186 35.7306 87.2747 36.1257 86.8775 36.5911C85.1707 39.0365 83.4405 41.5986 81.4767 44.4167ZM72.3037 63.7455C69.5966 63.9188 67.7493 66.7609 68.8664 69.0569C69.7274 70.8141 71.149 72.2002 73.2025 72.2574C74.3459 72.31 75.5831 71.8956 76.1214 70.7297C76.6832 69.4471 77.7584 68.0269 76.8735 66.6902C75.7556 65.0017 74.1704 63.8251 72.3037 63.7455ZM68.4582 77.7258C68.365 77.5851 68.2719 77.4444 68.2253 77.374C66.5446 77.8797 64.8872 78.2687 63.2064 78.7744C61.4089 79.256 59.5414 79.7841 57.8372 80.4066C57.1835 80.637 56.6691 81.3823 55.9215 82.0796C57.5545 82.4151 58.7209 82.6547 59.8873 82.8943C60.1908 82.8959 60.541 82.664 60.868 82.5488C62.5961 81.5057 64.3243 80.4628 66.0059 79.3494C66.8702 78.676 67.6409 78.1657 68.4582 77.7258ZM80.9749 53.2487C79.5493 54.9009 78.5906 56.3451 78.611 58.6591C79.7081 58.3374 80.4785 58.131 81.3889 57.8316C81.2034 56.9426 81.0875 56.3109 80.9717 55.6793C81.4383 55.7752 81.7181 55.8935 82.3013 56.0133C81.836 55.006 81.4868 54.3264 80.9749 53.2487Z" fill="black"/>
<path d="M85.9575 78.2826C85.3062 76.6901 84.5849 75.1438 83.9336 73.5513C84.0738 73.4585 84.1438 73.412 84.2839 73.3193C85.0288 74.7487 85.7736 76.1782 86.4018 77.5837C86.495 77.7245 86.0745 78.0028 85.9575 78.2826C85.9575 78.2826 85.9109 78.2123 85.9575 78.2826Z" fill="black"/>
<path d="M19.6276 78.5913C19.3944 79.2218 19.3362 79.3795 19.1987 79.5079C15.9673 82.1655 12.7066 84.902 9.47511 87.5596C8.8171 88.1226 8.20921 88.7937 6.79297 88.0014C10.5699 84.1119 14.0511 80.2924 19.6276 78.5913Z" fill="#F15748"/>
<path d="M0 62.8224C0.966233 62.6421 1.5659 62.2367 2.04069 62.4123C6.40152 63.7558 10.9329 63.9082 15.5851 64.4636C15.2354 65.4094 14.4775 65.7563 13.7069 65.6506C9.42956 65.0546 5.09818 65.3345 1.01224 63.7342C0.745679 63.7252 0.645677 63.5091 0 62.8224Z" fill="#F15748"/>
<path d="M20.8234 55.6498C17.9453 54.6753 12.1299 46.0745 12.1751 42.0596C12.8707 42.8543 13.3664 43.2168 13.6455 43.6783C14.4038 45.0338 15.0246 46.5177 15.891 47.8235C17.5157 50.4849 19.1695 53.0674 20.8234 55.6498Z" fill="#F15748"/>
<path d="M93.0039 9.46479C94.1249 9.02631 94.5211 9.47244 94.7768 10.0113C95.2893 11.0889 95.8716 12.1202 95.7996 13.382C95.7289 14.036 96.1238 14.7859 96.5439 15.4192C97.4983 16.7094 98.5257 16.4341 99.181 14.9884C99.4847 14.3823 99.9755 13.7537 100.49 13.3123C100.63 13.2194 101.097 13.3153 101.376 13.4336C101.539 13.5279 101.586 13.9021 101.538 14.1356C101.469 14.4858 101.351 14.7657 101.117 15.0215C99.9025 16.5346 100.39 18.0328 101.111 19.5791C101.903 21.0789 102.695 22.5787 103.369 24.0545C103.532 24.4526 103.742 24.9211 103.764 25.4121C103.763 25.7159 103.46 26.0181 103.156 26.6243C102.55 25.7097 102.014 25.0526 101.618 24.3027C101.013 23.0843 100.595 21.8435 99.9904 20.6251C99.036 18.7271 97.4732 18.3452 95.5816 19.294C94.9743 19.5947 94.367 19.8955 93.5496 20.3354C93.972 18.8417 94.2539 17.7447 94.5348 16.6476C94.8396 15.4339 94.4686 14.2634 94.0268 13.1393C93.5382 11.9449 93.3532 10.7519 93.0039 9.46479ZM98.9207 17.7917C98.9435 17.6749 98.8979 17.6046 98.9207 17.4878C97.8248 17.2018 96.7745 16.9862 95.6786 16.7002C95.4674 17.4471 95.4663 18.0547 96.3305 17.989C97.1239 17.9696 98.0565 17.8574 98.9207 17.7917Z" fill="black"/>
<path d="M137.681 104.346C136.61 102.425 135.632 100.643 134.771 98.8861C134.26 97.8085 133.723 97.1514 132.487 96.9581C131.367 96.7888 130.364 96.6436 129.569 97.5744C129.499 97.6208 129.265 97.5728 129.079 97.5953C129.079 97.2914 128.846 96.9397 129.011 96.7301C130.086 94.7022 130.182 93.3238 129.321 91.2628C128.972 90.2794 128.577 89.2256 128.298 88.1958C128.182 87.8681 128.322 87.4715 128.277 87.0973C129.28 86.9387 129.583 87.5479 129.885 88.1571C130.304 89.0941 130.606 90.0071 130.884 91.037C131.442 93.0965 132.865 93.5712 134.407 92.2467C134.546 92.154 134.664 91.8741 134.85 91.8516C135.107 91.7829 135.551 91.6915 135.761 91.8563C135.97 92.0209 135.947 92.4414 135.946 92.7453C135.852 93.2122 135.595 93.585 135.384 94.0279C134.729 95.4737 134.891 96.7833 136.055 97.9344C137.221 99.0856 138.106 100.422 138.501 102.084C138.64 102.599 138.965 103.394 137.681 104.346ZM131.301 93.797C131.393 94.5453 131.463 95.1066 131.578 95.7382C132.231 95.8116 132.885 95.885 133.655 95.9824C133.633 95.1876 133.61 94.6968 133.611 94.0891C132.841 93.9917 132.188 93.9183 131.301 93.797Z" fill="black"/>
<path d="M51.4632 118.12C50.3924 116.198 49.4146 114.417 48.5535 112.66C48.0416 111.583 47.5058 110.925 46.2692 110.732C45.1493 110.563 44.1461 110.417 43.3516 111.349C43.2815 111.394 43.0481 111.346 42.8615 111.369C42.8618 111.065 42.629 110.714 42.7926 110.504C43.8687 108.476 43.9639 107.097 43.1032 105.037C42.7544 104.053 42.3592 102.999 42.0805 101.969C41.9642 101.642 42.1047 101.246 42.0586 100.871C43.0622 100.713 43.3648 101.322 43.6673 101.931C44.0862 102.868 44.3883 103.781 44.6669 104.811C45.2242 106.87 46.6471 107.345 48.1889 106.021C48.3291 105.928 48.4461 105.648 48.6329 105.626C48.8896 105.556 49.3331 105.466 49.5429 105.63C49.7528 105.795 49.7288 106.215 49.7284 106.52C49.6345 106.987 49.3773 107.359 49.1667 107.802C48.5114 109.248 48.6731 110.557 49.8383 111.708C51.0035 112.86 51.8884 114.196 52.283 115.858C52.3057 116.349 52.6778 117.215 51.4632 118.12ZM45.0834 107.571C45.1757 108.319 45.245 108.88 45.3608 109.512C46.0141 109.586 46.6674 109.659 47.4373 109.756C47.415 108.962 47.3923 108.471 47.3931 107.863C46.5066 107.741 45.8532 107.668 45.0834 107.571Z" fill="black"/>
<path d="M66.7494 117.006C65.186 116.928 63.6227 116.85 62.3169 116.095C60.1484 114.799 59.2886 112.131 58.685 109.697C52.1617 84.1647 48.138 56.472 57.9476 32.1682C58.9779 29.4622 60.4517 26.6651 62.9737 25.2989C65.1454 24.1647 67.8055 24.2249 70.232 24.541C85.3277 26.1833 100.814 32.2216 115.195 27.4564C117.897 31.2328 118.614 36.1212 119.145 40.7281C120.827 56.2089 120.713 71.8673 118.989 87.3775C118.163 95.1094 116.799 102.791 115.156 110.357C114.052 115.236 114.098 116.521 109.079 117.01C104.809 117.409 100.445 117.364 96.1041 117.505C86.4901 117.597 76.6196 117.453 66.7494 117.006Z" fill="white"/>
<path d="M86.8883 117.132C81.3117 116.776 75.7816 116.492 70.205 116.135C65.8183 115.904 60.7787 115.293 58.2866 111.681C57.1222 109.923 56.7515 107.841 56.4275 105.829C55.5948 100.309 55.0187 94.7203 54.6294 89.1091C54.5383 87.4492 54.7509 85.4871 56.1984 84.9334C56.8522 84.7031 57.5054 84.7765 58.2053 84.9203C63.104 86.2305 66.1781 90.8738 69.5802 94.4902C75.6623 100.785 83.708 104.564 91.0757 109.3C91.9853 109.913 93.0573 110.618 93.5927 111.579C95.2229 114.345 92.4637 118.094 89.2666 118.593C86.069 119.091 82.9674 117.602 80.0525 116.092" fill="#BCBCBB"/>
<path d="M113.672 31.7026C113.183 30.812 112.578 29.8974 111.715 29.3555C109.733 28.0367 107.189 28.9119 104.947 29.7886C104.294 30.0191 103.686 30.3198 103.219 30.8317C102.354 31.8089 102.655 33.3296 102.957 34.5465C105.997 47.5098 109.316 60.8953 117.166 71.6861C120.177 70.2991 121.07 66.4706 121.611 63.1779C122.294 58.5771 123.046 53.93 122.633 49.347C122.219 44.764 120.615 40.0581 117.329 36.7694" fill="#BCBCBB"/>
<path d="M112.462 29.5692C111.645 29.4014 110.782 29.1634 109.942 29.1123C108.706 28.9191 107.352 29.0057 106.139 28.6958C103.947 28.1237 101.753 28.1595 99.5824 28.0783C94.2159 27.8875 88.8253 27.8136 83.482 27.506C80.3553 27.35 77.3217 27.3347 74.2642 27.7398C72.4438 28.0345 70.507 28.0012 68.6167 28.0385C66.6565 28.122 64.5795 28.1816 62.5027 28.2412C62.2435 30.133 61.4947 31.742 61.6789 33.5425C62.0289 33.6144 62.2621 33.6623 62.5656 33.6638C62.8689 33.6654 63.0791 33.5261 63.4525 33.4814C63.6877 32.0101 63.8766 30.4685 64.1118 28.9973C65.1135 30.3579 63.9915 31.7078 64.1767 32.9007C64.7359 33.4411 65.3662 33.3274 65.9264 33.2602C68.5868 33.0165 71.2474 32.7729 73.9545 32.5996C75.3081 32.513 76.5681 32.5895 77.9682 32.5731C77.9447 32.6899 77.9678 32.877 78.0143 32.9474C77.0809 33.0595 76.1473 33.1717 75.2372 33.167C71.2 33.3102 67.1625 33.7572 63.1945 34.4617C61.5606 34.7338 59.9738 34.7725 58.0841 34.506C58.5279 34.1109 58.7851 33.7381 59.0419 33.6694C59.5555 33.5317 60.1387 33.6515 60.7454 33.6546C61.3075 32.0681 61.683 30.5042 61.4987 28.7035C60.7056 28.4192 59.9122 28.4385 59.3051 28.7393C58.9304 29.6956 58.7661 30.5127 58.3217 31.2117C55.3518 36.0112 53.7582 41.2151 52.561 46.5611C51.5988 50.7399 51.1265 54.8976 51.0042 59.1273C50.8573 64.3853 51.0838 69.5983 52.0336 74.8384C52.5431 77.7392 52.9826 80.6863 53.4221 83.6333C53.6302 85.0133 53.9085 86.3469 54.1864 87.9844C55.5873 87.3604 55.7991 86.0059 56.5702 85.1917C57.4115 84.3312 58.0429 83.3061 59.0011 82.1658C58.9533 83.0069 58.556 83.4723 58.2287 83.8914C57.1765 85.4987 56.0077 87.0821 54.9555 88.6894C54.6283 89.1084 54.3476 89.5978 54.8133 90.3013C56.2378 89.5607 56.3569 87.7615 57.9449 86.8114C57.0789 88.7002 55.887 90.0964 54.6482 91.7261C55.6927 95.8916 56.6903 100.291 57.8746 104.667C58.1763 105.884 58.5246 107.171 58.8964 108.341C59.4076 110.027 59.8721 111.642 60.8969 113.19C61.4558 114.034 61.8512 115.088 62.1998 116.071C62.3161 116.399 62.1756 116.796 62.1047 117.45C62.7814 117.407 63.3416 117.339 63.9483 117.342C64.3716 114.937 63.9758 114.187 62.0872 113.009C62.2516 112.192 62.905 112.265 63.5116 112.268C65.4018 112.231 67.2455 112.123 69.1588 112.273C73.1721 112.55 77.2324 112.595 81.2229 112.381C81.8997 112.338 82.553 112.411 83.6262 112.51C82.2485 113.321 81.1055 112.965 80.1484 113.194C79.0748 113.399 77.8848 113.275 76.718 113.34C75.5511 113.404 74.3141 113.515 73.1007 113.508C72.004 113.526 70.8141 113.403 69.6241 113.281C68.4808 113.228 67.3374 113.176 66.0308 113.029C66.0993 114.198 66.0981 115.109 66.1901 116.161C66.2585 117.33 66.5149 117.565 67.6817 117.501C69.9919 117.49 72.2089 117.337 74.5192 117.326C74.9391 117.351 75.3126 117.306 75.7325 117.331C83.1994 117.65 90.6201 117.594 98.1109 117.187C100.562 117.084 103.105 117.119 105.602 117.086C106.208 117.088 106.769 117.021 107.562 117.001C107.54 115.903 107.495 114.921 107.426 113.752C105.56 113.673 103.81 113.618 102.129 113.515C100.497 113.484 98.7924 113.498 97.0424 113.443C95.4088 113.411 93.7056 113.73 92.1427 113.348C92.1199 113.161 92.1427 113.044 92.1199 112.857C92.3768 112.788 92.54 112.579 92.774 112.627C98.047 112.677 103.344 112.61 108.734 112.684C108.476 113.665 108.22 114.34 108.194 115.065C108.124 115.719 108.076 116.561 108.963 116.985C110.107 116.127 109.105 114.766 109.9 113.531C110.016 114.163 110.133 114.491 110.109 114.911C110.132 115.402 110.153 115.893 110.176 116.384C110.619 116.596 111.039 116.926 111.482 117.138C111.389 117.302 111.411 117.489 111.342 117.536C110.758 117.719 110.268 118.044 109.661 118.041C104.106 118.176 98.507 118.241 92.9293 118.493C89.3119 118.662 85.8118 118.552 82.2882 118.556C77.3179 118.508 72.3013 118.086 67.3768 118.715C65.4396 118.985 63.4562 118.882 61.566 118.919C60.4693 118.938 59.9565 118.467 59.5616 117.11C59.2133 115.822 58.935 114.489 58.5867 113.201C57.6113 109.597 56.5194 105.969 55.4975 102.294C54.406 98.3626 53.4545 94.3377 53.0633 90.2457C52.8786 88.749 52.367 87.3675 52.1122 85.9171C51.186 80.5602 50.1429 75.1795 49.4734 69.7538C49.0806 66.877 49.2712 63.8164 49.1351 60.8708C49.0893 60.1928 49.2303 59.4924 49.2311 58.8847C49.0962 55.0277 49.8012 51.2216 50.6696 47.5099C51.8198 42.3972 53.2033 37.3325 56.1028 32.8832C56.8041 31.8116 57.3424 30.6458 57.9272 29.5502C58.1378 29.1073 58.1852 28.57 58.3262 27.8695C61.0333 27.6962 63.8806 27.4302 66.6809 27.3976C69.7845 27.3666 72.8646 27.4523 75.9221 27.0471C79.7262 26.5521 83.576 27.0391 87.3794 27.1518C92.3265 27.3171 97.2034 27.5287 102.126 27.8107C103.573 27.8648 105.067 27.9893 106.513 28.3471C109.359 28.9926 112.3 28.8672 115.123 29.0217C115.845 29.0488 116.546 29.1925 117.012 29.2884C116.917 30.3629 116.753 31.1802 116.892 31.9989C117.285 34.5718 117.795 37.1687 118.748 39.6742C120.028 42.9761 120.607 46.4381 121.186 49.9C121.763 53.6659 122.389 57.502 122.85 61.2438C123.705 67.8624 124.187 74.5259 123.641 81.1607C123.142 87.2582 121.804 93.3047 120.256 99.1866C119.061 103.621 117.305 107.82 115.713 112.112C115.315 113.185 115.033 114.282 114.728 115.496C113.866 114.953 113.537 115.981 112.999 116.539C112.907 116.397 112.79 116.374 112.697 116.233C112.697 115.929 112.698 115.626 112.814 115.346C114.383 111.474 116.115 107.696 117.614 103.871C118.199 102.471 118.621 100.978 118.926 99.4603C119.702 95.9117 120.359 92.3392 120.9 88.7426C121.372 85.1925 121.774 81.6888 121.895 78.0668C122.041 73.7203 122.024 69.2796 121.982 64.9555C121.915 62.8751 121.591 60.8635 121.291 58.7352C120.921 56.0455 120.504 53.2855 120.134 50.5959C119.811 48.2805 119.487 45.965 118.44 43.6225C116.502 44.5008 115.147 46.1067 113.372 47.0793C114.587 45.2625 116.828 44.6895 118.138 42.7095C117.976 42.0075 117.791 41.1184 117.651 40.2997C117.049 37.5622 116.398 34.7543 115.912 32.0407C115.215 29.1625 114.843 28.9034 112.462 29.5692C112.462 29.5692 112.392 29.6155 112.462 29.5692ZM65.3954 117.093C65.5124 116.812 65.7226 116.674 65.6995 116.487C65.5841 115.55 65.4922 114.499 65.2602 113.539C65.237 113.352 64.7003 113.303 64.4205 113.184C64.2803 113.278 64.2104 113.323 64.0702 113.416C65.1187 114.544 64.09 116.034 65.3954 117.093Z" fill="black"/>
<path d="M112.392 29.6157C112.298 30.0827 112.134 30.5961 112.086 31.1333C112.015 31.7875 112.061 32.4654 112.037 33.1899C112.667 33.38 113.134 33.4759 113.693 33.7124C112.596 34.0341 111.685 34.3333 110.589 34.0473C109.61 33.7852 108.442 34.1533 107.416 34.1247C102.072 34.1211 96.6816 34.047 91.2912 33.973C90.3811 33.9683 89.5412 33.9174 88.6546 33.7961C88.4678 33.8184 88.2815 33.537 87.8154 33.1374C95.4693 32.8255 102.657 33.0255 110.03 33.5069C109.915 32.2676 109.8 31.3322 109.661 30.2096C110.756 31.1033 110.125 32.4322 111.173 33.5594C111.268 32.4849 111.339 31.8307 111.363 31.1064C111.411 30.2652 111.645 29.7055 112.392 29.6157Z" fill="black"/>
<path d="M57.4411 44.9502C58.2568 45.7256 57.8126 46.4244 57.5784 46.9841C55.9171 50.4114 55.3987 54.195 55.1372 57.9099C54.9476 60.0591 54.8281 62.162 54.7553 64.3352C54.0793 63.7708 53.9403 62.9521 53.848 62.2038C53.5523 56.4295 54.2598 50.8003 56.8336 45.5548C56.9272 45.3916 57.1373 45.2525 57.4411 44.9502Z" fill="black"/>
<path d="M109.28 106.657C108.928 107.801 108.321 107.797 107.761 107.865C104.913 108.131 102.02 108.327 99.1725 108.593C98.9864 108.615 98.7295 108.684 98.5663 108.589C98.2398 108.401 98.0537 108.119 97.7969 107.884C98.0777 107.699 98.3106 107.443 98.5674 107.374C100.855 107.175 103.189 107.047 105.522 106.918C106.689 106.854 107.855 106.79 109.28 106.657Z" fill="black"/>
<path d="M78.203 84.8343C76.4509 86.298 75.8429 87.2063 76.1913 88.4936C76.5165 89.5937 77.5659 90.1132 79.4796 89.9592C78.7786 90.7269 78.0548 91.0038 77.1917 90.7656C75.9321 90.3854 74.9536 89.2118 74.9086 87.9262C74.8872 86.5238 75.6591 85.1019 76.8498 84.6172C77.2933 84.5259 77.7829 84.8089 78.203 84.8343Z" fill="black"/>
<path d="M83.9232 63.6415C82.2185 64.5677 81.3085 64.5631 80.3295 63.6935C79.3972 62.894 78.7464 60.9976 79.2376 60.0653C79.963 58.5731 81.0379 57.4567 83.0451 57.1396C82.7641 57.9329 82.1338 58.0465 81.76 58.3953C81.0358 58.9759 80.3583 59.6268 80.2635 60.7015C80.0974 62.734 81.4494 63.8626 83.9232 63.6415Z" fill="black"/>
<path d="M88.1865 105.545C86.8556 106.122 85.8759 105.861 85.2707 104.643C84.4797 102.839 84.5522 100.969 85.5113 99.2211C85.909 98.4518 86.5627 98.2214 87.5659 98.3667C87.3088 98.7393 87.0516 99.112 86.8645 99.4382C86.5838 99.9276 86.2331 100.463 85.999 101.023C85.3664 102.96 86.1112 104.389 88.1865 105.545Z" fill="black"/>
<path d="M96.6883 99.8152C95.9896 98.7599 96.9029 96.6377 98.1632 96.4104C98.42 96.3416 98.9098 96.6245 99.1655 96.8595C99.8413 97.7277 99.5822 99.6195 98.6484 100.339C98.0171 100.757 97.154 100.519 96.6883 99.8152Z" fill="black"/>
<path d="M79.8231 41.1602C82.0402 41.0078 83.8578 42.8401 83.505 44.895C83.2464 46.483 82.3346 47.6937 80.8401 48.4807C80.9571 48.2009 81.0277 47.8507 81.2148 47.5244C81.4954 47.035 81.8693 46.6864 82.0333 46.173C82.8992 44.2843 82.4112 42.786 80.6853 42.006C80.359 41.8173 80.1026 41.5824 79.7295 41.3234C79.7996 41.277 79.8231 41.1602 79.8231 41.1602Z" fill="black"/>
<path d="M105.845 57.3252C103.676 56.3327 102.488 54.6906 102.608 52.8916C102.655 52.0504 102.982 51.3275 103.636 50.7933C104.361 50.2127 104.618 50.1438 106.228 50.2922C105.808 50.5705 105.643 50.78 105.433 50.9193C103.659 51.8919 103.308 53.0353 104.332 54.8869C104.61 55.6128 105.194 56.3403 105.845 57.3252Z" fill="black"/>
<path d="M68.0722 105.303C67.6063 104.6 67.9587 102.849 68.6129 102.314C69.1268 101.873 69.8967 101.971 70.456 102.511C71.0619 103.121 71.1774 104.056 70.5929 104.849C70.1486 105.547 69.2382 105.846 68.4451 105.562C68.3285 105.538 68.1653 105.443 68.0722 105.303Z" fill="black"/>
<path d="M59.6236 69.7119C60.1841 69.3407 61.024 69.3918 61.4668 69.9081C62.0958 70.7059 61.8139 72.1069 60.9965 72.5467C60.3659 72.9642 59.6661 72.8205 59.247 72.1874C58.6645 71.4598 58.8993 70.2925 59.6236 69.7119Z" fill="black"/>
<path d="M89.5515 43.8271C89.6682 43.8511 89.9484 43.6655 90.1117 43.7598C90.858 43.974 91.1607 44.5831 91.2064 45.2611C91.2522 45.9392 91.298 46.6172 90.5973 47.0811C89.9667 47.4986 89.3369 47.3084 88.7541 46.8848C88.5909 46.7905 88.4511 46.5794 88.4281 46.3923C88.3353 45.9478 88.9675 44.315 89.5515 43.8271Z" fill="black"/>
<path d="M66.8506 57.945C66.7117 57.1264 66.9226 56.3794 67.5302 55.7749C68.2077 55.1239 69.0944 55.2453 69.4665 56.1119C69.9089 56.9322 69.7209 57.8661 68.9968 58.4467C68.4593 59.005 68.1094 58.933 66.8506 57.945Z" fill="black"/>
<path d="M107.514 84.0474C109.193 84.4532 109.846 85.1343 109.96 86.3736C110.168 88.0574 109.256 89.8758 107.574 90.6853C107.997 89.4954 108.511 88.4463 108.839 87.4196C109.354 86.0667 107.792 85.381 107.514 84.0474Z" fill="black"/>
<path d="M114.881 70.9732C115.37 71.8637 115.112 72.8441 114.364 73.2376C113.617 73.6311 112.591 73.2987 112.242 72.6192C111.916 71.8229 112.454 70.6571 113.272 70.2171C113.948 69.87 114.509 70.1065 114.881 70.9732Z" fill="black"/>
<path d="M64.3314 92.5002C65.1054 89.5593 64.9194 88.9741 62.2617 87.0909C62.6825 86.5088 63.2888 86.8156 63.6854 86.9579C64.4083 87.2887 65.1779 87.69 65.3634 88.579C65.6886 89.6792 65.757 90.848 65.1256 91.8733C65.0086 92.1531 64.6117 92.3147 64.3314 92.5002Z" fill="black"/>
<path d="M64.9824 41.5761C65.3782 42.326 65.1202 43.3063 64.2328 43.7926C63.6022 44.2101 62.6224 43.9481 62.3199 43.3388C61.9708 42.6594 62.4389 41.5398 63.1862 41.1463C63.9334 40.7528 64.6799 40.9669 64.9824 41.5761Z" fill="black"/>
<path d="M113.491 63.0896C113.562 62.4355 113.632 61.7814 113.82 61.1513C114.289 59.728 113.894 58.6743 112.588 57.9198C112.471 57.8959 112.378 57.7551 112.284 57.6145C112.239 57.544 112.192 57.4737 112.169 57.2866C112.426 57.2178 112.729 56.9155 112.893 57.0098C114.291 57.6012 115.69 59.4079 114.73 61.4598C114.495 62.0195 114.215 62.5089 113.981 63.0687C113.771 63.2079 113.607 63.1134 113.491 63.0896Z" fill="black"/>
<path d="M93.3751 80.9611C93.7712 81.711 93.6536 82.2947 93.1171 82.5491C92.5098 82.8498 91.1564 82.6327 90.877 82.2105C90.5509 81.7181 90.879 80.6913 91.5098 80.2739C92.2107 79.81 92.9333 80.1409 93.3751 80.9611Z" fill="black"/>
<path d="M99.2707 69.7721C98.3837 69.9546 97.7535 70.0683 97.193 70.1356C96.5879 69.5248 96.0286 68.9845 96.6131 68.1928C96.8003 67.8666 97.4533 67.6361 97.8037 67.708C98.7364 67.8997 99.2718 68.5568 99.2707 69.7721Z" fill="black"/>
<path d="M108.151 42.5419C108.384 42.8936 108.594 43.3621 108.079 43.8035C107.565 44.245 106.492 44.1461 106.049 43.6297C105.724 43.1372 105.864 42.133 106.239 41.7843C106.799 41.4132 107.592 41.6977 108.151 42.5419Z" fill="black"/>
<path d="M74.3498 69.2725C73.9747 70.5327 73.5531 71.7225 73.2016 72.8659C72.409 72.2776 72.3392 72.0201 72.7848 70.4097C73.2529 69.2903 73.2529 69.2903 74.3498 69.2725Z" fill="black"/>
<path d="M116.251 40.9238C115.059 42.0163 113.867 43.1088 112.677 44.2012C112.583 44.0605 112.536 43.9902 112.373 43.8958C113.589 42.6867 114.64 41.3832 116.251 40.9238Z" fill="black"/>
<path d="M122.288 46.5403C120.544 42.231 117.054 33.6126 118.038 48.9494C118.199 50.8667 118.44 45.1418 118.326 43.2949" fill="#BCBCBB"/>
<path d="M69.9483 98.3946L65.501 73.4109L68.2848 50.5206L69.7133 46.7415L99.7945 45.4448L104.708 53.0187L106.5 73.6885L102.882 92.2742L101.03 99.0661L69.9483 98.3946Z" fill="white"/>
<path d="M106.049 79.8561C106.072 79.4356 106.143 79.0853 106.167 78.6648C106.591 75.3481 107.249 72.0794 107.253 68.7372C107.253 68.4335 107.23 68.2464 107.23 67.9425C106.864 62.8222 106.147 57.9339 104.708 53.0185C104.452 52.1758 104.313 51.357 104.128 50.468C103.942 49.8828 103.756 49.2975 103.616 48.7827C103.709 48.9233 103.802 49.0641 103.849 49.1344C103.687 48.4324 103.524 47.7305 103.408 47.0988C103.386 46.9117 103.339 46.8414 103.245 46.7007C102.757 46.1139 102.197 45.5736 101.708 44.9868C101.218 44.4 100.518 44.2562 99.7246 44.2756C97.6949 44.4055 95.7348 44.4891 93.7279 44.5023C91.9539 44.5635 90.0637 44.6006 88.2902 44.6618C84.2065 44.7346 80.0992 44.9241 76.0155 44.997C74.9186 45.0148 73.8685 45.103 72.7717 45.1208C72.1185 45.0474 71.489 44.5534 70.9281 45.2284C70.4608 45.7401 69.9933 46.2519 69.7593 46.8117C69.1509 48.024 68.7759 49.2842 68.3308 50.5907C66.9955 54.5104 66.5933 58.6218 66.1447 62.6629C65.5546 67.7082 65.3379 72.7087 65.7746 77.7826C66.0966 81.3133 66.5589 84.7513 67.3944 88.1446C68.0671 91.1395 68.8565 94.1585 69.6459 97.1774C69.7387 97.6219 69.9481 98.0905 70.0409 98.535C70.2268 99.1203 70.7631 99.4736 71.3001 99.2191C71.8371 98.9648 72.0011 98.4514 71.6986 97.8423C70.6978 95.874 70.4673 93.6993 70.0967 91.6172C69.5402 88.9501 69.1938 86.1436 68.5207 83.4524C67.7313 80.4335 67.3153 77.3696 67.2728 74.261C67.0466 68.7441 67.544 63.2542 68.3912 57.8363C68.8857 54.4732 69.6601 51.2285 71.2275 48.2682C71.9293 46.8928 72.9103 46.2433 74.4271 46.251C77.9741 46.1287 81.5678 46.0768 85.1149 45.9545C89.3388 45.7889 93.632 46.4884 97.7862 45.7616C98.1595 45.7167 98.5099 45.7887 98.7668 45.7198C99.6298 45.6541 100.283 46.0312 100.702 46.6645C102.052 48.7046 103.427 50.628 104.031 53.0618C106.144 60.6683 106.647 68.4304 105.493 76.2775C104.952 79.8739 104.597 83.4481 103.985 87.091C103.42 90.8042 102.622 94.4696 101.265 97.8983C99.6766 98.2409 98.1367 98.6538 96.6891 98.9036C95.172 99.1997 93.632 99.3089 92.092 99.4179C90.5512 99.5269 89.0344 99.5193 87.4942 99.6284C85.9073 99.6671 84.2969 99.8225 82.7101 99.8612C81.1933 99.8535 79.6299 99.7755 78.0667 99.6975C76.5498 99.6898 75.1274 98.9114 73.6333 99.3946L73.539 100.165C73.959 100.191 74.3324 100.146 74.7524 100.172C77.2725 100.325 79.7924 100.477 82.3825 100.584C88.7525 100.92 94.9836 100.438 101.193 99.1601C102.08 98.9776 102.569 98.6529 102.827 97.6726C103.367 95.2914 104.024 92.9342 104.518 90.4826C105.106 86.9564 105.998 83.4318 106.049 79.8561Z" fill="black"/>
<path d="M74.3477 52.3745L75.8638 70.4954L98.4979 71.498L98.6703 64.6042L96.2136 52.0645L74.3477 52.3745Z" fill="#EB584A"/>
<path d="M96.2144 52.0645C88.5386 50.974 81.2553 53.064 73.5998 54.2873C73.5766 54.1002 73.1574 53.4671 73.2745 53.1872C73.415 52.7906 73.9756 52.4195 74.349 52.3746C78.269 52.5112 82.1207 51.479 86.0886 50.7746C88.6095 50.3199 91.2927 50.5673 93.9062 50.5571C94.6996 50.5377 95.493 50.5184 96.3571 50.4526C97.1037 50.3629 97.4999 50.8089 97.5912 51.8611C97.7521 53.4746 97.9839 55.0417 98.0992 56.5849C98.3515 59.2506 98.6745 61.8698 98.7419 64.5579C98.7853 66.7551 98.6426 68.9746 98.5695 71.4518C94.6493 71.315 90.9155 71.1559 87.182 70.9967C83.4486 70.8377 79.7853 70.6321 75.9818 70.5194C75.241 66.0516 74.1032 61.7455 74.2494 57.0951C74.2968 56.5579 74.5073 56.1149 74.5547 55.5775C74.6714 55.6015 74.8581 55.5791 74.9748 55.6031C75.1141 56.118 75.37 56.6568 75.3226 57.1941C74.9457 59.9734 75.6187 62.6646 76.0587 65.3079C76.2438 66.5007 76.4989 67.6473 76.8238 69.0512C83.613 70.0204 90.4508 69.5409 97.1243 70.1823C98.1083 66.7985 97.63 57.7043 96.2144 52.0645Z" fill="black"/>
<path d="M95.9588 86.5362C95.912 86.7696 95.8892 86.8864 95.8892 86.8864C95.8184 86.9327 95.678 87.0256 95.6083 87.0719C95.4211 87.0944 95.2351 87.1168 95.1186 87.0928C88.7252 86.5697 82.4264 85.2757 76.0555 85.5473C75.9855 85.5937 75.9623 85.4066 75.7061 85.1716C76.2195 85.034 76.5464 84.9188 77.0364 84.8979C80.2106 84.5166 83.3834 85.0469 86.5332 85.39C89.5664 85.7092 92.5991 86.0284 95.6323 86.3476C95.6323 86.3476 95.7956 86.4419 95.9588 86.5362Z" fill="black"/>
<path d="M94.1732 95.1048C91.7942 94.2514 89.577 94.7076 87.4301 94.8136C84.0696 94.9135 80.7558 95.0837 77.3955 95.1836C77.092 95.182 76.7421 95.1101 76.3926 94.7344C76.7194 94.6192 77.0232 94.3169 77.3265 94.3184C82.4605 94.1574 87.641 94.0668 92.7052 93.9521C93.3113 93.9552 94.0351 93.9823 94.1732 95.1048Z" fill="black"/>
<path d="M89.1749 81.6172C88.9181 81.686 88.7545 81.8955 88.5212 81.8475C84.3683 81.3591 80.1686 80.8002 75.969 80.2414C75.9925 80.1248 75.9694 79.9377 75.9229 79.8674C76.2963 79.8225 76.6932 79.6608 77.1132 79.6863C79.6798 79.9097 82.1763 80.1795 84.6727 80.4491C85.9794 80.596 87.2158 80.7892 88.4524 80.9824C88.6856 81.0304 88.9655 81.1487 89.1288 81.243C89.2219 81.3837 89.1984 81.5004 89.1749 81.6172Z" fill="black"/>
<path d="M85.0307 56.3317C85.1473 56.3556 85.2174 56.3092 85.2174 56.3092C85.4503 56.661 85.5896 57.1759 85.6358 57.5501C86.0323 57.6923 86.2421 57.8569 86.4985 58.092C86.5928 57.3212 86.6402 56.7839 86.2215 55.8468C85.8014 55.8214 85.3818 55.492 85.289 55.0475C85.1728 54.7197 85.1733 54.4159 85.3604 54.0896C84.8938 53.9937 84.1934 54.1538 83.9825 54.9007C83.8655 55.1805 83.9582 55.625 84.0979 55.8361C84.2141 56.1639 84.6573 56.3765 85.0307 56.3317ZM85.3591 55.0012C85.4753 55.3289 85.7783 55.6343 86.1983 55.6597L86.315 55.6837L86.3615 55.754C86.7804 56.691 86.8492 57.5561 86.7082 58.2566C86.918 58.4213 87.0578 58.6323 87.2911 58.6802C87.5017 58.2373 87.7601 56.9532 87.2255 55.3845C87.5291 55.0822 87.6932 54.5689 87.4137 54.1468C86.9715 53.3265 85.9212 53.4147 85.5235 54.1839C85.2432 54.3695 85.1728 54.7197 85.3591 55.0012ZM87.342 55.4085C87.8302 56.9067 87.6183 58.2613 87.3377 58.7506L87.2676 58.797C87.3142 58.8674 87.3838 59.1248 87.43 59.499C88.2959 57.6102 87.7847 55.9249 87.7847 55.9249C88.3915 55.928 88.7888 55.4626 88.8361 54.9253C88.8604 54.2008 88.1144 53.6829 87.3907 53.9597L87.4372 54.03C87.7633 54.5225 87.6458 55.1062 87.342 55.4085ZM84.027 56.4901C84.7954 57.8028 84.5835 59.1574 84.0453 60.3232C84.1619 60.3472 84.3487 60.3248 84.5353 60.3023C84.652 60.3263 84.7221 60.2799 84.9088 60.2575L84.9788 60.2111C85.1425 60.0016 85.3766 59.4419 85.4239 58.9046L85.4475 58.7878C85.3543 58.6471 85.3313 58.46 85.3547 58.3433C85.3551 58.0395 85.2154 57.8284 85.0521 57.7341C85.1688 57.7581 85.3555 57.7356 85.4721 57.7596C85.426 57.3854 85.3097 57.0576 85.1469 56.6594C85.1469 56.6594 85.0768 56.7059 85.0302 56.6355C84.5403 56.6563 84.1672 56.3974 83.8642 56.0921C83.6779 55.8107 83.5852 55.3661 83.7022 55.0862C83.1421 55.1535 82.8149 55.5725 82.9076 56.0171C82.9538 56.3913 83.5601 56.6981 84.027 56.4901ZM84.2823 57.6367C84.1656 57.6128 84.0023 57.5185 83.8157 57.5408C84.0254 57.7055 83.9315 58.1725 84.1879 58.4075C84.2344 58.4778 84.3045 58.4315 84.3511 58.5018C84.398 58.2684 84.3519 57.8942 84.2823 57.6367ZM85.6322 60.2845C85.9124 60.099 86.1231 59.656 86.17 59.4225C86.0768 59.2817 85.8204 59.0468 85.6107 58.8821C85.5633 59.4194 85.3292 59.9791 85.0955 60.2351C85.2823 60.2127 85.3988 60.2366 85.6322 60.2845ZM84.4641 61.2602C84.4641 61.2602 84.3474 61.2362 84.4641 61.2602C84.4175 61.1899 84.4175 61.1899 84.4641 61.2602C84.4175 61.1899 84.3474 61.2362 84.3239 61.353C84.3705 61.4233 84.4171 61.4937 84.5337 61.5176C84.4872 61.4473 84.5573 61.401 84.4641 61.2602C84.5808 61.2842 84.5808 61.2842 84.4641 61.2602C84.5107 61.3305 84.5808 61.2842 84.4641 61.2602ZM90.1036 67.0382C88.4929 67.4976 87.0935 66.9061 86.3478 66.0844C87.1867 67.0469 88.8898 67.3359 90.0805 66.8512C90.0113 66.2899 91.7435 61.9048 87.6621 60.4584C87.6386 60.5752 87.6617 60.7623 87.5216 60.8551C88.0347 61.0212 88.6175 61.4448 88.9428 62.5449C88.5244 61.3042 87.5682 60.9254 87.0315 60.876C87.9416 60.8805 87.1274 58.8898 87.1274 58.8898C86.4976 58.6997 86.3121 57.8106 85.3555 57.7356C85.5653 57.9003 85.4012 58.4136 85.5875 58.695C85.914 58.8837 86.2401 59.3762 86.2401 59.3762C86.2397 59.6799 85.959 60.1693 85.7253 60.4253C86.2385 60.5915 86.565 60.7801 86.7747 60.9447C86.2847 60.9656 85.9574 61.3847 85.9574 61.3847C85.9574 61.3847 86.0979 60.9881 86.4248 60.8729C85.9817 60.6602 85.5386 60.4476 85.0019 60.3982C84.6986 60.3966 84.115 60.5808 83.7885 60.392C83.5078 60.8814 82.0361 62.1594 79.9588 62.5229C79.5853 62.5678 78.9551 62.6814 78.9551 62.6814C79.0017 62.7518 78.9783 62.8685 79.0948 62.8925C79.2115 62.9164 79.4914 63.0347 79.6785 62.7084C79.655 62.8252 79.4914 63.0347 79.188 63.0332C79.7936 63.9477 82.7566 64.3133 84.1118 63.0114C84.1114 63.3152 83.5508 63.6863 83.224 63.8015C83.4107 63.7791 83.6906 63.8974 83.9238 63.9453C84.2037 64.0636 84.3439 63.9708 84.484 63.878C84.5075 63.7613 84.5078 63.4574 84.8812 63.4126C85.2548 63.3677 85.7675 63.8378 86.5608 63.8184C87.3778 63.6823 87.8221 62.9834 87.7302 61.9312C88.0549 63.3352 87.3774 63.9861 86.7006 64.0295C86.8865 64.6146 86.6986 65.5486 86.2081 65.8733C85.8347 65.9182 85.5544 66.1037 85.4374 66.3836C86.0895 67.3686 88.1182 68.4539 90.3596 67.5771C90.3365 67.39 90.1502 67.1086 90.1036 67.0382ZM85.2106 61.4744L85.1174 61.3336C85.1174 61.3336 85.1174 61.3336 85.0709 61.2633C85.0243 61.193 84.9076 61.169 84.9076 61.169C84.9076 61.169 84.861 61.0987 84.7909 61.145C84.8375 61.2154 84.8375 61.2154 84.8841 61.2858C84.9072 61.4728 84.8137 61.6359 84.6269 61.6584C84.4403 61.6808 84.277 61.5865 84.2539 61.3994C84.2773 61.2827 84.3009 61.1659 84.371 61.1196L84.3009 61.1659C84.3009 61.1659 84.3009 61.1659 84.2308 61.2123L84.1608 61.2587C84.1608 61.2587 84.1608 61.2587 84.0907 61.3051C84.0907 61.3051 84.0907 61.3051 84.0206 61.3514C84.0206 61.3514 84.0206 61.3515 83.9505 61.3979C83.9505 61.3979 83.9505 61.3979 83.8805 61.4442C83.9505 61.3979 84.0206 61.3514 84.0907 61.3051C84.0907 61.3051 84.0907 61.3051 84.1608 61.2587C84.1608 61.2587 84.1608 61.2587 84.2308 61.2123C84.2308 61.2123 84.2308 61.2123 84.3009 61.1659L84.371 61.1196C84.371 61.1196 84.371 61.1196 84.441 61.0731C84.5111 61.0268 84.6277 61.0507 84.6743 61.1211C84.7909 61.145 84.7909 61.145 84.9076 61.169C84.9076 61.169 84.9076 61.169 84.9542 61.2393C84.9542 61.2393 85.0008 61.3096 85.0709 61.2633C85.0709 61.2633 85.0709 61.2633 85.1174 61.3336C85.1174 61.3336 85.1174 61.3336 85.164 61.4041L85.2106 61.4744C85.234 61.3576 85.234 61.3576 85.2106 61.4744C85.2106 61.4744 85.3271 61.4984 85.2106 61.4744Z" fill="white"/>
<path d="M122.298 73.956C121.877 74.842 121.082 75.4691 120.171 75.7683C118.351 76.3667 115.948 75.9339 114.082 75.2467C111.936 74.4412 109.231 73.7029 107.269 74.3941C106.615 74.6246 106.055 74.9956 105.588 75.5075C105.097 76.1361 104.745 76.9757 104.045 77.4395C102.083 78.7384 99.0065 75.9183 97.3478 77.5225C99.7451 81.9052 102.213 86.2415 104.611 90.6241C105.403 92.1239 106.241 93.6941 106.145 95.3764C105.933 97.0347 104.717 98.5478 103.06 98.9367C101.403 99.3257 99.5362 98.6384 98.6515 97.3018C97.8136 96.0354 97.6983 94.4922 97.5134 92.9955C96.8444 87.8737 94.7268 83.0017 91.6753 78.8494C90.1379 76.8316 87.3637 74.9245 85.4013 76.5272L85.3313 76.5735C84.1398 77.666 84.254 79.513 84.4152 81.1265C84.8072 84.6108 85.2695 88.0488 85.6149 91.4629C86.1456 96.0699 86.6762 100.677 87.2068 105.284C87.5065 108.02 89.9882 119.531 83.4091 118.423C79.1163 117.724 78.7384 103.605 78.3462 100.12C77.6095 92.6143 77.6661 85.0889 78.376 77.6369C75.9962 77.3911 74.3595 79.7902 73.2599 81.9347C70.1013 88.276 67.7122 95.0183 66.2562 101.953C63.4356 99.671 61.0359 96.8075 59.43 93.6208C61.4198 88.863 64.6923 84.6727 68.8732 81.7022C68.6873 81.117 68.4313 80.5781 67.9652 80.1784C67.2195 79.3567 65.9834 78.8595 64.7934 78.7367C64.5602 78.6888 64.3734 78.7113 64.1868 78.7336C62.6234 78.6557 61.0361 78.9981 59.5425 79.1776C57.3019 79.4467 55.0387 79.2248 52.8926 78.7232C51.2129 78.3174 49.324 77.4431 48.8128 75.7578C48.3713 74.3299 49.1202 72.7209 50.2883 71.7452C51.4562 70.7695 52.8803 70.3326 54.3743 69.8494C57.2925 68.9293 60.2107 68.0092 63.1288 67.0891C61.9408 65.4471 62.1073 63.1108 63.0898 61.246C64.0489 59.4979 65.6608 58.1271 67.2027 56.8027C68.0904 56.0125 69.0949 55.2464 70.2151 55.1118C74.1361 54.6409 75.6675 61.2161 79.6338 61.727C79.588 61.049 79.4722 60.4173 79.4264 59.7393C79.0347 55.9511 78.8532 52.0238 78.9516 48.2146C79.1937 41.5782 80.0892 35.0153 81.6844 28.5962C82.2004 26.6355 83.0667 24.4429 84.9343 23.9148C86.6616 23.4795 88.5267 24.7744 89.2947 26.391C90.0626 28.0074 90.0367 29.9472 89.9877 31.6999C89.8629 37.7525 89.7383 43.8052 89.5671 49.7875L89.2707 62.1264C89.2225 63.2713 89.1743 64.4163 89.1262 65.5613C91.6239 64.6157 93.7507 62.8035 95.946 61.2486C98.1412 59.6938 100.616 58.2574 103.277 58.3175C105.937 58.3777 108.805 60.4256 108.801 63.1601C108.823 64.2586 108.447 65.5188 109.147 66.2703C109.613 66.67 110.266 66.7434 110.802 66.7928C111.946 66.8453 113.066 67.0146 114.209 67.0672C116.24 67.241 118.433 67.5093 120.158 68.5931C122.047 69.7712 123.164 72.0673 122.298 73.956Z" fill="white"/>
<path d="M89.6134 49.857C89.0764 50.1114 88.5394 50.3658 87.9792 50.433C85.1781 51.0733 82.7553 48.0227 79.9085 47.9849C79.6051 47.9833 79.2316 48.0282 78.9514 48.2138C78.8531 52.0229 78.9879 55.88 79.4262 59.7385C79.845 60.6755 80.3338 61.566 80.7526 62.5031C81.2646 63.5808 81.8231 64.7288 82.8956 65.4354C83.9681 66.142 86.4176 66.6452 87.6318 66.0437C88.9862 65.3494 88.9886 63.5264 89.3171 62.1959L89.6134 49.857Z" fill="#BCBCBB"/>
<path d="M75.7893 74.4916C75.929 74.7027 76.0222 74.8433 76.0217 75.1472C76.0214 75.451 75.9043 75.7309 75.7872 76.0107C74.6179 77.8979 72.0276 78.0952 70.0194 79.0199C69.3422 79.367 68.7116 79.7845 68.0811 80.202C67.3355 79.3803 66.0993 78.8831 64.9094 78.7603C64.6761 78.7123 64.4894 78.7348 64.3027 78.7572C64.8871 77.9655 65.425 77.1035 65.6129 76.1696C66.0118 74.4888 65.5476 72.57 66.9028 71.268C69.3564 68.7329 74.4389 72.1476 75.7893 74.4916Z" fill="#BCBCBB"/>
<path d="M120.171 75.7676C118.35 76.3662 115.947 75.9333 114.082 75.246C111.935 74.4405 109.23 73.7023 107.269 74.3935C106.641 72.3805 106.762 69.3661 107.931 67.7827C109.731 65.478 111.545 69.7409 113.434 70.6151C114.763 71.2529 116.374 71.0974 117.727 71.6185C119.359 72.2579 120.5 74.1334 120.171 75.7676Z" fill="#BCBCBB"/>
<path d="M85.306 76.6894C84.1144 77.7819 84.2287 79.6288 84.3899 81.2422C84.782 84.7266 85.2442 88.1646 85.5897 91.5788C84.0725 91.8749 82.4626 91.7265 81.0868 91.0183C80.4805 90.7115 79.851 90.2174 79.5485 89.6083C79.2925 89.0694 79.2468 88.3913 79.1775 87.8301C79.0644 85.0716 78.371 80.0666 80.4042 77.8098C81.479 76.6934 83.4862 76.3763 85.306 76.6894Z" fill="#BCBCBB"/>
<path d="M81.2094 87.3966C81.0434 89.4292 80.7141 91.3674 80.8514 93.4014C81.171 98.7552 81.6308 104.016 82.2537 109.371C82.554 111.804 83.1809 114.12 83.5977 116.577C83.7832 117.466 83.7584 118.494 83.8505 119.546C85.0161 120.393 86.487 119.723 88.2137 119.895C87.1827 105.4 86.1985 90.9744 85.1906 76.6658C83.3939 76.5398 81.6439 76.4842 79.5438 76.3567C76.2727 79.6356 74.0268 83.8545 72.5976 88.2411C71.1683 92.6279 70.3689 97.2047 69.1491 102.059C68.03 101.283 66.9807 100.763 66.2816 100.012C64.6271 98.2741 63.0661 96.3731 61.4817 94.5888C60.107 92.9692 60.3192 91.3109 61.5582 89.6811C63.2179 87.4692 64.9942 85.2813 66.7005 83.1397C67.4486 82.1385 68.2432 81.2077 69.1549 79.9969C65.5847 79.9321 62.3179 79.8688 59.051 79.8056C56.8109 79.7709 54.6643 79.573 52.6821 78.5579C51.2597 77.7795 50.3043 76.793 50.2832 75.0867C50.2853 73.5676 50.2637 72.1652 50.2658 70.646C50.2909 69.314 51.0851 68.6869 52.322 68.5763C54.8193 68.2384 57.2931 68.0173 59.837 67.7497C60.7706 67.6375 61.7507 67.5957 62.9175 67.5315C62.4753 66.7113 62.2893 66.126 62.0099 65.7039C60.9852 64.1562 61.1739 62.6146 62.1561 61.0536C62.6939 60.1916 63.2783 59.3999 64.0726 58.7729C65.8713 57.3797 67.6464 56.1032 69.5381 54.8508C71.4765 53.6685 73.1566 53.7706 74.6714 55.2973C75.7434 56.3079 76.5352 57.5038 77.5138 58.6773C78.0031 59.2641 78.3056 59.8732 79.0042 60.9285C79.0289 59.9003 79.1463 59.3166 79.0772 58.7553C78.314 53.4928 79.371 48.2395 79.8915 42.9368C80.2701 38.942 80.5321 34.9235 80.8642 30.8584C81.1003 28.7795 81.453 26.7245 81.8058 24.6697C82.0172 23.619 82.7413 23.0384 83.7215 22.9966C85.5416 23.0058 87.3382 23.1317 89.1114 23.3744C89.5314 23.3999 89.9271 24.1498 90.0664 24.6647C90.2057 25.1796 90.1348 25.8336 90.134 26.4413C89.7972 34.1523 90.0205 41.796 88.9602 49.48C88.3713 53.6139 88.5524 57.845 88.4536 61.958C88.4532 62.2619 88.546 62.7064 88.6853 63.2213C90.3196 62.6452 91.6511 61.7638 92.9822 60.8824C94.7105 59.8395 96.3921 58.7261 98.1204 57.6831C100.269 56.3619 102.649 56.3038 105.005 56.3624C105.425 56.3879 105.938 56.858 106.171 57.2097C107.382 59.0389 108.383 61.0072 108.333 63.3674C108.262 64.0215 108.379 64.6532 108.378 65.5646C109.263 65.6859 110.104 65.737 110.874 65.8343C113.44 66.0576 115.96 66.2106 118.573 66.5043C119.344 66.6017 120.207 66.8398 120.929 67.1707C122.188 67.8548 123.027 68.8173 122.721 70.3349C122.628 70.8019 122.627 71.4096 122.533 71.8765C122.227 74.0018 120.942 75.2574 118.725 75.4098C116.998 75.5413 115.201 75.7192 113.498 75.7339C112.588 75.7293 111.654 75.5377 110.838 75.3698C109.951 75.2485 109.088 75.0105 108.085 74.8652C106.938 77.2433 104.931 77.2564 102.832 76.8251C101.432 76.5376 100.055 76.4371 98.2357 76.1241C99.3762 77.9996 100.191 79.3827 100.937 80.8121C102.635 83.8357 104.405 86.8129 106.058 89.7661C106.896 91.3363 107.617 92.8825 107.615 94.7055C107.638 95.5002 107.357 95.9896 106.726 96.4071C104.414 97.938 102.102 99.4688 99.7894 101C99.5794 101.139 99.2289 101.067 99.1125 101.043C98.5565 98.3757 98.2095 95.8732 97.4891 93.4155C96.6992 90.7003 95.5599 88.2172 94.6295 85.5949C94.3966 84.9393 93.7208 84.3748 94.5393 83.6311C94.6089 83.5848 94.5861 83.3977 94.4925 83.2569C92.723 80.2798 90.9301 77.4193 89.1605 74.4422C89.0208 74.2311 88.7409 74.1129 88.3679 73.8538C87.3865 74.8072 86.9649 75.9969 86.9167 77.1419C86.7224 82.9371 86.6447 88.7563 87.6172 94.4874C88.0801 97.3177 88.0996 100.239 88.3058 103.138C88.6724 108.259 89.109 113.332 89.5457 118.407C89.7528 120.698 89.449 121 87.0922 120.941C82.0052 120.869 81.539 120.47 81.2891 115.374C81.0845 111.258 80.2732 107.141 79.6952 103.072C78.724 96.429 79.0361 89.7462 79.1151 83.0156C79.1405 81.3796 79.5861 79.7693 79.7282 78.1572C79.823 77.0827 80.4997 77.0393 81.6897 77.1622C81.5005 79.0076 81.3114 80.8531 81.0757 82.6281C81.239 82.7224 81.3555 82.7464 81.5889 82.7943C82.3835 81.8635 83.1781 80.9326 83.9727 80.0018C84.136 80.0961 84.1825 80.1664 84.3458 80.2607C83.6678 81.2155 82.9197 82.2168 82.2417 83.1716C80.9096 84.6606 80.5346 85.9208 81.2094 87.3966ZM102.111 74.6713C102.087 74.788 101.971 75.0679 101.971 75.0679C103.159 75.7985 104.466 76.2491 105.89 75.5084C105.635 74.3619 105.005 74.1718 104.049 74.4006C103.372 74.4439 102.742 74.5576 102.111 74.6713C103.021 74.3721 103.885 74.0025 104.843 73.7736C106.524 73.268 106.827 72.9657 106.806 71.2594C106.784 70.4646 106.645 69.646 106.739 68.8752C107.07 65.1139 105.979 61.7896 104.466 58.136C102.856 58.5952 101.222 58.8674 99.7746 59.4211C96.3658 60.6658 93.6557 62.9659 90.8064 65.055C89.1013 66.285 87.8162 67.5407 88.77 69.7424C88.8863 70.0702 88.9324 70.4444 88.9551 70.9354C90.0288 70.7305 90.9859 70.5016 91.989 70.343C93.9502 69.9557 95.8647 69.4979 97.8476 69.2976C100.906 68.8923 103.447 70.1439 105.732 71.7682C105.896 71.8625 105.848 72.0959 106.034 72.6812C104.261 72.1346 102.792 71.5896 101.253 71.0911C100.224 72.2778 99.4995 73.4661 99.4743 75.102C100.431 74.8731 101.247 74.7371 102.111 74.6713ZM82.0326 64.8937C83.5024 65.1349 84.6923 65.2577 85.8121 65.427C86.8154 65.5724 87.446 65.1549 87.4472 64.2433C87.4731 62.3037 87.429 60.4102 87.4549 58.4706C87.5528 54.9653 87.5807 51.5064 87.7953 48.025C87.9148 45.9222 88.3611 43.7041 88.4806 41.6012C88.6728 37.3252 88.7251 33.1419 88.8008 28.8418C88.8259 27.5098 88.7344 26.1537 88.7129 24.7513C86.753 24.5311 85.0041 23.5639 83.1589 24.8868C83.2748 25.5184 83.5773 26.1277 83.4598 26.7114C83.27 29.1644 83.08 31.6176 82.7734 34.0466C81.8302 41.4508 81.1203 48.9028 81.0171 56.3579C81.0167 56.6618 81.0863 56.9192 81.1792 57.3637C81.8332 56.8295 82.3237 56.5047 82.8842 56.1335C82.719 57.5585 80.3144 58.3409 81.502 60.2868C82.6238 58.9369 83.5821 57.7965 84.5403 56.6562C83.9551 58.0555 83.1366 59.4069 82.1784 60.5474C81.3136 61.5245 81.1723 62.5288 81.6142 63.6529C81.7304 63.9806 81.8932 64.3788 82.0326 64.8937ZM67.218 62.4582C67.288 62.4118 67.3581 62.3654 67.3581 62.3654C67.5213 62.4597 67.7311 62.6245 67.8243 62.7651C69.5241 65.4848 71.8546 67.7871 73.9283 70.1581C74.2313 70.4635 74.6274 70.9096 74.6269 71.2134C74.4386 72.4512 75.1847 72.9691 76.0239 73.6278C76.8631 74.2865 76.8623 74.8941 75.998 75.5674C75.2738 76.1482 74.4099 76.5177 73.7323 77.1687C69.713 81.4488 65.8569 85.8232 62.6302 90.6916C61.8587 91.8095 61.6238 92.9769 62.5092 94.0098C63.8838 95.6293 65.352 97.0859 66.8667 98.6126C67.1697 98.918 67.7764 98.9211 68.2896 99.0873C68.8064 96.519 69.0895 94.2067 69.7459 91.8495C70.4024 89.4922 71.3854 87.3235 72.2752 85.0142C73.3525 82.0749 74.6396 79.3001 76.9295 76.9746C78.0745 75.8118 78.5196 74.5052 78.1251 72.8438C77.731 70.8785 77.6403 68.9148 79.1128 67.0291C79.37 66.6565 79.511 65.956 79.2781 65.6043C77.3685 62.7199 75.5053 59.9059 73.5256 57.0678C72.8735 56.083 71.8699 56.2414 70.889 56.8909C69.324 58.0282 67.759 59.1655 66.3572 60.3971C65.8433 60.8386 65.5392 61.4447 65.0483 62.0733C66.1208 62.7798 67.1466 63.4161 68.1025 64.0987C68.1726 64.0523 68.1961 63.9356 68.3362 63.8427C68.0567 63.4207 67.614 62.9043 67.218 62.4582ZM74.8558 74.6035C72.8971 73.4717 71.1949 72.5749 69.446 71.6079C66.5777 70.1677 63.7098 68.4237 60.1849 69.3407C59.9282 69.4095 59.5782 69.3376 59.2749 69.336C57.2211 69.5827 55.2373 69.7831 53.1835 70.0298C52.2499 70.1419 51.7591 70.7704 51.5712 71.7043C50.8668 74.9027 52.6834 77.6465 55.9263 78.1303C56.2763 78.2022 56.6963 78.2277 57.0697 78.1828C59.9631 78.2909 62.7865 78.4455 65.6798 78.5536C68.4566 78.6378 71.2103 78.5349 73.0807 75.8799C73.2678 75.5536 73.8749 75.2529 74.8558 74.6035ZM93.1078 71.4237C91.9879 71.8622 90.8433 72.4173 89.5826 72.9484C91.1196 75.2701 92.5164 77.3806 93.9137 79.4912C97.0576 84.3917 98.9641 89.7068 99.423 95.5755C99.5154 96.6276 99.8636 97.6111 100.213 98.8982C102.384 97.4602 104.206 96.2541 106.308 94.8624C105.866 93.7383 105.634 92.4752 105.052 91.4437C101.281 84.8339 97.3693 78.3167 93.5747 71.8234C93.5975 71.7067 93.481 71.6828 93.1078 71.4237ZM108.398 66.967C108.444 67.9489 108.467 68.4398 108.42 68.9771C108.419 69.5848 108.301 70.1685 108.3 70.7761C108.064 72.8551 108.46 73.605 110.465 74.1994C111.609 74.5558 112.822 74.562 114.035 74.568C115.319 74.5278 116.649 74.2541 117.91 74.3306C119.59 74.4325 120.338 73.4313 120.946 72.2191C121.834 70.5174 121.37 69.2062 119.574 68.4726C119.015 68.2361 118.454 67.9996 117.872 67.8797C114.839 67.5605 111.735 67.2878 108.398 66.967ZM87.0215 68.4715C85.5311 66.2203 82.1711 66.0163 80.7216 68.0891C79.5993 69.7428 79.1068 71.5867 80.0845 73.3679C80.5965 74.4455 81.5288 75.245 82.8824 75.1583C84.236 75.0717 86.0091 75.3144 86.8045 73.7759C87.6469 72.0038 87.7895 70.0881 87.0215 68.4715ZM72.9693 71.9062C73.0628 71.743 73.0863 71.6263 73.2265 71.5336C72.0146 70.3121 70.8028 69.0906 69.591 67.8691C68.216 66.5533 66.911 65.1912 65.5125 63.9921C64.9997 63.5221 64.1597 63.471 63.1334 63.1387C63.668 64.7073 63.9932 65.8074 64.4817 67.0018C64.5979 67.3297 64.9944 67.4719 65.3209 67.6605C67.0698 68.6277 68.8652 69.665 70.6141 70.6322C71.3836 71.0333 72.1532 71.4346 72.9693 71.9062ZM100.436 70.9233C98.2894 70.4217 96.5861 70.4364 94.5553 71.4779C95.3704 72.2532 95.9765 72.864 96.6992 73.4987C97.4229 72.9181 97.867 72.523 98.3807 72.0815C98.4743 72.5261 98.5896 72.8538 98.7757 73.4391C99.3134 72.5771 99.7586 71.8781 100.436 70.9233Z" fill="black"/>
<path d="M81.1865 87.5136C82.1918 86.1398 83.3136 84.7899 84.3189 83.416C84.4356 83.44 84.5287 83.5808 84.6454 83.6047C83.7803 84.8858 82.8917 86.2836 82.0266 87.5646C81.8864 87.6574 81.4434 87.4449 81.1865 87.5136C81.1865 87.5136 81.21 87.3969 81.1865 87.5136Z" fill="black"/>
<path d="M116.768 15.0184C116.575 14.3688 116.507 14.2149 116.551 14.1041C117.553 10.0863 118.599 5.95767 119.679 1.90598C119.872 1.08701 119.998 0.114158 121.514 0C120.786 5.27387 120.256 10.3691 116.768 15.0184Z" fill="#F15748"/>
<path d="M141.887 16.2084C141.206 16.9658 140.911 17.554 140.524 17.7234C136.217 19.2449 132.425 21.7332 128.378 24.0582C128.127 23.0669 128.466 22.368 129.127 21.9862C132.933 19.9505 136.324 17.1792 140.501 15.99C140.733 15.8884 140.989 16.0515 141.887 16.2084Z" fill="#F15748"/>
<path d="M129.355 34.2725C132.195 33.3946 141.94 36.9209 144.299 40.1993C143.29 39.9993 142.648 40.0056 142.17 39.7564C140.692 39.1194 139.336 38.3376 137.86 37.7006C135.017 36.4697 132.131 35.3496 129.355 34.2725Z" fill="#F15748"/>
</svg>
