<svg width="158" height="125" viewBox="0 0 158 125" fill="none" xmlns="http://www.w3.org/2000/svg">
<path d="M127.189 116.827C120.849 120.929 113.856 121.861 106.584 122.421C94.4627 123.447 82.3418 123.447 70.2209 123.726C61.1768 124.006 52.0396 124.099 43.0888 123.447C35.8162 122.887 28.5437 122.328 21.1779 122.421C15.6769 122.514 10.1759 121.768 4.95459 119.997C4.58164 119.81 4.02221 119.717 3.64926 119.624C-0.173478 118.039 -1.01262 116.36 1.22509 112.724C3.18307 109.647 5.51401 106.757 7.75172 103.867C11.388 99.4845 15.1175 95.1023 18.7537 90.9066C16.7025 83.5408 15.1175 76.3615 14.0919 68.9958C13.9054 67.6904 13.7189 66.4783 13.5324 65.2663C13.0663 60.1382 12.2271 55.0101 12.0406 49.8821C11.8542 45.5931 12.973 41.4907 15.5837 37.8544C16.7025 36.2694 18.0078 35.5235 19.8726 35.337C27.891 34.4046 35.723 33.0993 43.7414 33.9384C44.6738 34.0317 45.7926 33.8452 46.725 33.6587C50.3613 33.006 53.7178 32.9128 57.3541 33.2858C60.8039 33.6587 64.2537 33.0993 67.6102 33.0061C73.2045 32.9128 78.7988 32.8196 84.4862 32.6331C89.9873 32.4466 95.4883 32.3534 100.896 31.7007C104.719 31.3278 108.262 32.1669 111.712 33.379C113.856 34.0317 115.068 35.7099 114.975 38.1341C114.602 45.0337 114.416 51.84 113.67 58.7396C112.644 68.3431 111.245 78.0398 109.94 88.1095C114.322 89.3216 116.653 92.3984 119.077 95.2888C122.993 99.8574 127.003 104.519 129.427 110.207C131.012 113.936 130.639 114.589 127.189 116.827Z" fill="white"/>
<path d="M78.1455 40.2788C80.1967 40.6518 82.248 41.0247 84.2992 41.3977C85.6045 41.6774 87.0031 41.8638 88.3084 42.2368C91.7582 43.0759 95.0215 44.5677 98.0051 46.4325C99.4037 47.3649 100.802 48.2972 101.735 49.6026C103.133 51.2808 103.972 53.3321 104.625 55.3833C104.625 54.8239 104.718 54.1712 104.718 53.6118C104.998 49.789 105.184 45.5934 103.133 42.33C102.947 42.0503 102.76 41.7706 102.574 41.5841C102.201 41.3044 101.735 41.2112 101.362 41.1179C100.523 40.8382 99.6834 40.745 98.8442 40.5585C97.8186 40.372 96.6065 40.372 95.4877 40.372C90.0799 40.372 84.6721 40.2788 79.2644 40.2788" fill="#BCBCBB"/>
<path d="M70.5006 106.478C68.0764 106.851 65.4658 106.851 63.3213 108.063C69.7547 107.876 76.2813 107.596 82.8079 107.223C82.7147 105.918 82.3418 104.613 81.7823 103.494C81.6891 103.307 81.5959 103.214 81.4094 103.121C81.0364 102.841 80.3838 102.841 80.0108 102.841C79.6379 102.841 79.0784 102.748 78.7055 102.748C78.1461 102.748 77.6799 102.935 77.2137 103.214C76.7475 103.587 76.1881 104.147 75.7219 104.52C75.0692 105.079 74.3233 105.545 73.4842 105.825C72.4586 106.105 71.433 106.384 70.5006 106.478Z" fill="#BCBCBB"/>
<path d="M67.0503 112.258C67.7962 112.445 68.6354 112.724 69.0083 113.284C69.3813 113.843 69.4745 114.869 69.0083 115.428C68.6354 115.801 67.8894 115.895 67.33 115.988C65.2788 116.174 63.3208 116.361 61.2696 116.454C60.244 116.547 59.0319 116.64 58.0063 116.827C55.955 117.2 53.9038 117.853 52.0391 118.692C59.0319 119.624 66.1179 119.997 73.1108 119.717C73.2972 119.717 73.4837 119.717 73.6702 119.624C73.9499 119.531 74.0431 119.438 74.2296 119.251C75.7214 118.132 76.5605 116.174 76.3741 114.309C76.3741 114.03 76.2808 113.657 76.0011 113.284C75.6282 112.818 74.9755 112.631 74.3228 112.631C72.3649 112.445 70.5001 112.258 68.5421 112.072" fill="#BCBCBB"/>
<path d="M21.4571 83.8207C21.9233 84.5666 22.4827 85.3125 23.1354 85.8719C24.0677 86.8043 25.1866 87.457 26.3054 88.1096C28.6364 89.5082 31.0605 90.9068 33.6712 91.5594C31.3403 91.5594 28.9161 91.6527 26.4919 91.7459C26.0257 91.7459 25.4663 91.8391 24.9069 92.0256C24.0677 92.3053 23.3218 92.958 22.7624 93.6107C20.6179 95.6619 18.8464 97.9928 17.1681 100.51C15.7696 102.561 14.4643 104.706 12.2266 105.732C10.3618 106.664 8.03086 106.571 6.53906 107.969C10.9212 103.774 13.6251 97.9928 18.1938 93.8904C19.2194 92.958 20.3382 92.1189 20.5247 90.8135C20.6179 89.8812 20.245 89.1353 20.0585 88.2961C19.6856 87.2705 19.3126 86.0584 19.0329 85.0328C18.7532 83.9139 18.6599 82.7019 18.6599 81.583C18.6599 81.2101 18.6599 80.9304 18.6599 80.5574C18.6599 80.3709 18.6599 80.1845 18.6599 80.0912C18.6599 79.998 18.6599 79.7183 18.7532 79.7183C18.8464 79.8115 18.9397 80.0912 18.9397 80.0912C19.0329 80.2777 19.1261 80.4642 19.2194 80.5574C19.4058 80.9304 19.5923 81.1168 19.6856 81.4898C20.0585 82.0492 20.4315 82.6086 20.8044 83.168C20.8976 83.168 21.1774 83.4478 21.4571 83.8207Z" fill="#BCBCBB"/>
<path d="M118.797 99.2978C119.916 102.002 119.823 104.985 119.823 107.969C119.823 108.808 119.823 109.647 119.543 110.3C119.077 111.978 117.678 113.097 116.186 113.936C112.83 115.987 108.821 116.92 104.998 117.479C103.413 117.759 101.921 117.852 100.429 118.318C98.9374 118.784 97.4456 119.53 96.6064 120.836C97.8185 120.836 98.9374 120.836 100.243 120.929C101.268 120.929 102.201 120.929 103.133 120.742C103.972 120.556 104.811 120.183 105.557 119.903C107.795 119.251 110.126 119.437 112.457 119.344C117.212 119.157 121.967 118.039 126.256 115.894C127.375 115.335 128.587 114.682 128.96 113.563C129.333 112.538 128.96 111.232 128.587 110.207C128.028 108.342 127.375 106.477 126.163 104.892C125.23 103.773 124.112 102.841 123.086 101.908C122.154 100.976 121.408 100.137 120.569 99.2045C120.196 98.8316 119.636 98.2722 119.263 97.9924C119.077 97.806 118.89 97.7127 118.611 97.6195C118.517 97.6195 118.238 97.5263 118.238 97.7127C118.238 97.806 118.331 97.9924 118.424 98.0857C118.517 98.2722 118.611 98.4586 118.704 98.5519C118.517 98.6451 118.611 99.0181 118.797 99.2978Z" fill="#BCBCBB"/>
<path d="M100.244 76.4549C99.7777 77.3873 99.4048 78.3197 98.7521 79.1588C98.3792 79.7183 97.7265 80.1844 97.2603 80.6506C93.997 83.3545 90.2675 85.5922 86.165 86.3381C89.2419 86.8043 92.412 85.499 95.582 85.126C96.7941 84.9396 97.913 84.9396 99.2183 84.7531C100.337 84.4734 101.549 84.0072 102.295 83.0748C103.6 81.583 103.507 79.4385 103.88 77.5738C104.067 76.5482 104.346 75.3361 104.533 74.3105C104.719 72.9119 104.719 71.4201 104.719 70.0216C104.719 69.6486 104.719 69.1824 104.626 68.9027C104.626 68.7162 104.44 67.9703 104.253 68.4365C104.16 68.623 104.16 68.8095 104.16 68.9027C104.16 68.9959 104.067 69.2757 104.067 69.3689C103.973 69.7418 103.787 70.0216 103.694 70.3945C103.228 71.7931 102.388 73.0052 101.642 74.2172C101.083 74.9631 100.524 75.709 100.244 76.4549Z" fill="#BCBCBB"/>
<path d="M69.9407 75.3358C69.9407 75.7087 69.9407 76.1749 69.7542 76.3614C69.3813 77.1073 68.7286 77.387 67.8895 77.8532C67.0504 78.2261 66.2112 78.6923 65.3721 79.0653C66.3977 79.4382 67.6098 79.5314 68.5421 79.2517C69.4745 78.972 70.4069 78.2261 70.8731 77.387C71.246 76.8276 71.246 75.9884 71.0596 75.2425C70.9663 74.8696 70.8731 74.4966 70.5934 74.3101C70.5001 74.2169 70.4069 73.9372 70.2204 73.9372C70.1272 73.844 69.8475 73.5642 69.7542 73.7507C69.661 73.844 69.661 73.9372 69.7542 74.1237C69.7542 74.2169 69.7542 74.4966 69.7542 74.4966C69.9407 74.6831 69.9407 74.9628 69.9407 75.3358Z" fill="#BCBCBB"/>
<path d="M78.7981 49.9754C78.7981 50.3484 78.7981 50.8145 78.6117 51.001C78.2387 51.7469 77.586 52.0266 76.7469 52.4928C75.9078 52.8658 75.0686 53.332 74.2295 53.7049C75.2551 54.0779 76.4672 54.1711 77.3996 53.8914C78.4252 53.5184 79.2643 52.8658 79.7305 52.0266C80.1035 51.4672 80.1035 50.6281 79.917 49.8822C79.8237 49.5092 79.7305 49.1363 79.4508 48.9498C79.3576 48.8566 79.2643 48.5768 79.0779 48.5768C78.9846 48.4836 78.7049 48.2039 78.6117 48.3904C78.5184 48.4836 78.5184 48.5768 78.6117 48.7633C78.6117 48.8566 78.6117 49.1363 78.6117 49.1363C78.7981 49.3227 78.7981 49.6025 78.7981 49.9754Z" fill="#BCBCBB"/>
<path d="M73.95 50.1616C63.6939 50.1616 46.4449 50.1616 39.7318 50.2549C38.9859 50.1616 38.5198 50.6278 37.4941 50.8143C38.24 52.4926 39.1724 52.3061 40.0116 52.2128C45.6058 51.8399 55.6755 51.7467 61.1765 51.4669C63.0412 51.3737 68.7287 51.4669 73.8568 51.5602C73.95 51.1872 73.95 50.721 73.95 50.1616Z" fill="#010202"/>
<path d="M87.2833 50.1616C85.978 50.1616 82.062 50.1616 80.2905 50.1616C80.3837 50.6278 80.2905 51.1872 80.1973 51.8399C81.8755 51.8399 85.4186 51.8399 86.2577 51.9331C87.1901 52.0264 88.0292 51.9331 88.4954 50.9075C87.936 50.5346 87.4698 50.1616 87.2833 50.1616Z" fill="#010202"/>
<path d="M50.8267 62.935C48.3092 62.935 41.6894 62.935 39.8246 62.935C39.0787 62.8418 38.6125 63.308 37.5869 63.4945C38.3328 65.1727 39.2652 64.9863 40.1043 64.893C42.2488 64.7998 48.7754 64.7066 50.8267 64.5201C50.7334 64.1471 50.7334 63.4945 50.8267 62.935Z" fill="#010202"/>
<path d="M87.2827 62.9355C81.0358 62.9355 67.0501 62.9355 57.0737 62.9355C57.1669 63.4017 57.1669 63.9612 56.9805 64.6138C58.4723 64.6138 59.8708 64.5206 61.3626 64.5206C64.8124 64.4273 82.714 64.7071 86.1638 64.7071C87.0962 64.8003 87.9354 64.7071 88.4015 63.6815C87.9354 63.4017 87.4692 63.0288 87.2827 62.9355Z" fill="#010202"/>
<path d="M64.8128 75.5225C56.8876 75.5225 44.5802 75.5225 39.9184 75.6157C39.1725 75.5225 38.7063 75.9886 37.6807 76.1751C38.4266 77.8534 39.3589 77.6669 40.1981 77.5737C45.7923 77.2007 55.862 77.1075 61.363 76.8278C62.1089 76.8278 63.2278 76.8278 64.906 76.8278C64.7196 76.4548 64.7196 75.9886 64.8128 75.5225Z" fill="#010202"/>
<path d="M87.1896 75.5225C83.7398 75.5225 76.3741 75.5225 70.9663 75.5225C71.0595 75.9886 70.9663 76.5481 70.873 77.0143C76.0944 77.1075 84.1128 77.2007 85.9775 77.2007C86.9099 77.294 87.749 77.2007 88.2152 76.1751C87.9355 75.8954 87.4693 75.5225 87.1896 75.5225Z" fill="#010202"/>
<path d="M111.618 105.545C110.592 103.121 109.66 100.697 108.727 98.1794C108.261 96.7808 107.515 96.0349 105.93 96.1282C104.718 96.2214 103.413 96.3147 102.201 96.5011C94.9282 97.5267 87.7489 98.2726 80.3832 97.0606C75.9077 96.3147 71.2459 96.5944 66.7705 96.5011C62.2018 96.4079 57.6332 96.5011 53.0646 96.3147C47.6568 96.1282 42.249 95.9417 36.9344 95.5688C33.3914 95.3823 29.8484 95.1958 26.3054 94.7296C24.5338 94.4499 23.415 95.1958 22.5759 96.4079C21.457 97.8997 20.5246 99.3915 19.5923 100.977C19.1261 101.816 18.7531 102.655 18.5666 103.494C17.914 105.825 18.4734 106.851 20.7111 107.223C23.415 107.69 26.2121 108.063 28.916 108.249C29.1957 108.249 29.4754 108.342 29.7552 108.342C30.2213 108.342 30.6875 108.436 31.1537 108.436C31.6199 108.436 32.0861 108.529 32.5523 108.529C33.0185 108.529 33.4847 108.622 33.9508 108.622C34.417 108.622 34.8832 108.715 35.3494 108.715C35.8156 108.715 36.2818 108.808 36.748 108.808C37.2142 108.808 37.6803 108.902 38.1465 108.902C38.6127 108.902 39.1721 108.995 39.5451 108.995C40.0113 108.995 40.5707 109.088 40.9437 109.088C41.4099 109.088 41.9693 109.181 42.3422 109.181C42.8084 109.181 43.3678 109.275 43.834 109.275C44.9529 109.368 46.165 109.554 47.3771 109.554C48.5891 109.648 49.8012 109.648 51.0133 109.648C51.1998 109.648 51.293 109.648 51.3863 109.648C51.8525 109.648 52.4119 109.648 52.7848 109.648C55.209 109.648 57.7264 109.648 60.0574 109.648C60.6168 109.648 61.083 109.648 61.7356 109.648C62.1086 109.648 62.5748 109.554 63.041 109.461C69.9406 109.181 76.7469 108.995 83.6465 108.808C90.8258 108.622 97.9118 108.715 105.184 108.622C106.863 108.622 108.634 108.342 110.312 108.156C111.897 108.063 112.364 107.317 111.618 105.545ZM77.6793 100.883C74.6957 101.536 73.4836 101.256 73.1106 100.51C72.9242 100.231 72.9242 99.3915 72.7377 99.0185C75.0686 98.6456 76.8401 98.0862 77.6793 99.205C77.959 99.4847 77.3996 100.231 77.6793 100.883ZM68.3555 98.6456C69.1947 98.5524 70.0338 99.6712 70.6865 100.79L60.9897 100.604C60.8965 100.231 60.8965 99.8577 60.8033 99.4847C63.041 97.8997 65.8381 98.7388 68.3555 98.6456ZM58.752 98.8321C58.6588 99.205 58.6588 100.231 58.0994 100.417C56.7008 100.883 52.9713 100.79 51.1066 100.231C50.5471 100.044 50.4539 99.578 50.3607 99.2983C50.6404 98.6456 50.4539 98.5524 51.1066 98.3659C53.3443 97.9929 56.6076 98.4591 58.752 98.8321ZM33.6711 106.105C29.289 106.664 24.9068 106.198 20.5246 104.986C20.2449 101.443 22.7623 99.6712 24.6271 97.7132C26.3054 96.0349 28.4498 97.3403 30.5943 97.3403C30.5011 99.6712 29.1957 99.6712 27.7972 99.578L24.1609 99.4847C24.0677 99.8577 23.9744 100.231 23.8812 100.51C24.9068 100.883 25.9324 101.256 27.1445 101.722C26.8648 102.562 26.5851 103.401 26.3054 104.147C26.4918 104.333 26.6783 104.52 26.8648 104.613C27.9836 103.68 29.1025 102.562 30.4078 101.909C31.8064 101.163 33.2982 101.629 34.79 102.189C34.3238 103.587 34.0441 104.706 33.6711 106.105ZM32.6455 99.578C33.8576 97.1538 33.9508 97.1538 37.5871 97.8997C37.2142 98.4591 37.1209 99.205 36.8412 99.578C36.0953 100.51 35.1629 100.324 32.6455 99.578ZM47.0973 107.317C43.1814 107.037 39.4519 106.664 35.4426 106.291C36.8412 101.629 37.1209 101.443 41.2234 102.002C42.249 102.189 43.2746 102.189 44.3002 102.282C45.3258 102.375 46.3514 102.468 47.75 102.562C47.5635 104.24 47.3771 105.638 47.0973 107.317ZM40.1045 100.324C40.5707 99.6712 40.3842 98.8321 40.9437 98.5524C42.7152 97.4335 45.792 97.4335 49.0553 98.9253C48.5891 99.2983 48.6824 100.231 48.2162 100.417C45.5123 101.443 42.7152 99.8577 40.1045 100.324ZM49.1486 107.596C49.2418 106.291 49.2418 105.265 49.5215 104.333C49.8012 103.028 50.5471 102.375 51.9457 102.468C58.5656 102.748 65.1854 103.028 71.8053 103.307C73.7633 103.401 75.7213 103.587 77.586 103.494C79.7305 103.401 80.9426 104.333 81.7817 106.757C70.6864 106.664 60.1506 108.342 49.1486 107.596ZM81.5952 101.349C81.2223 101.256 81.1291 100.51 80.7561 99.9509C84.0194 100.044 87.0963 100.044 90.1731 100.137C91.292 100.137 92.2243 100.51 92.3176 102.282C88.6813 101.909 85.1383 102.468 81.5952 101.349ZM85.045 106.478C83.9262 106.478 83.46 105.732 83.7397 104.333C84.7653 104.24 85.6977 104.053 86.7233 103.96C88.6813 103.867 90.5461 103.867 92.504 103.867C93.9958 103.867 93.9958 103.867 94.7417 106.478C91.3852 106.664 88.2151 106.571 85.045 106.478ZM94.7417 99.7644C98.2848 99.2983 101.641 98.7388 104.905 98.4591C106.396 98.2726 106.956 99.205 106.583 101.349C102.76 101.256 98.9374 101.256 95.3012 101.07C95.2079 101.163 95.1147 100.604 94.7417 99.7644ZM97.4456 106.664C97.0727 105.638 96.8862 104.799 96.6065 103.867C97.1659 103.587 97.4456 103.307 97.7253 103.307C100.895 103.028 104.066 102.841 107.609 102.562C107.981 103.587 108.448 104.52 109.007 105.918C104.998 107.41 101.268 106.478 97.4456 106.664Z" fill="#010202"/>
<path d="M129.427 110.393C127.003 104.799 122.993 100.137 119.077 95.4753C116.653 92.5849 114.322 89.5081 109.94 88.296C111.245 78.2263 112.644 68.6228 113.67 58.9261C114.416 52.0266 114.602 45.2202 114.975 38.3206C115.068 35.9897 113.856 34.2182 111.712 33.5655C108.262 32.4467 104.719 31.5143 100.896 31.8872C95.395 32.4467 89.894 32.6331 84.4862 32.8196C78.892 33.0061 73.2977 33.0993 67.6102 33.1926C64.1605 33.2858 60.7107 33.752 57.3541 33.4723C53.7178 33.0993 50.3613 33.1926 46.725 33.8452C45.7926 34.0317 44.6738 34.1249 43.7414 34.1249C35.723 33.2858 27.891 34.4979 19.8726 35.5235C18.1011 35.8032 16.7958 36.4559 15.5837 38.0409C13.0663 41.6772 11.9474 45.7796 12.0406 50.0686C12.2271 55.1966 12.973 60.3247 13.5324 65.4528C13.7189 66.6648 13.9054 67.8769 14.0919 69.1823C15.1175 76.548 16.7025 83.7273 18.7537 91.0931C15.1175 95.2888 11.388 99.5777 7.75172 104.053C5.42078 106.943 3.18307 109.741 1.22509 112.911C-1.01262 116.547 -0.173478 118.225 3.64926 119.81C4.02221 119.997 4.58164 120.09 4.95459 120.183C10.1759 121.955 15.6769 122.701 21.1779 122.607C28.5437 122.514 35.8162 123.074 43.0888 123.633C52.0396 124.286 61.1768 124.099 70.2209 123.913C82.435 123.633 94.4627 123.633 106.584 122.607C113.856 122.048 120.849 121.022 127.189 117.013C130.639 114.589 131.012 113.936 129.427 110.393ZM18.3808 76.4548C17.2619 72.0726 16.7025 67.504 16.2363 62.9353C15.7701 58.2735 15.6769 53.5184 15.3972 48.8565C15.1175 45.2202 15.9566 41.8637 18.9402 39.253C20.1523 38.2274 21.3644 37.295 23.1359 37.1085C27.7978 36.6423 32.4597 35.5235 37.1216 35.5235C42.2496 35.6167 47.3777 34.9641 52.5058 35.0573C64.7199 35.337 76.7475 34.4046 88.8684 34.5911C93.1573 34.6844 97.2598 34.0317 101.549 33.9385C103.88 33.8452 106.397 34.0317 108.635 34.4979C111.618 35.1505 112.924 36.7356 112.83 39.9057C112.551 46.2458 112.271 52.7725 111.618 59.1126C110.779 67.504 109.567 75.9886 108.542 84.38C108.075 88.3892 107.423 89.3216 103.507 90.1607C101.642 90.6269 99.684 90.8134 97.8192 90.8134C88.7752 90.9999 79.7311 91.0931 70.6871 91.1863C66.5846 91.2796 62.3889 91.2796 58.3797 91.3728C57.8203 91.3728 57.2609 91.2796 56.7014 91.3728C48.4965 92.4917 40.4781 90.9999 32.3664 90.6269C29.3828 90.4404 26.4925 90.5337 23.5089 90.4404C21.4576 85.4988 19.5929 81.1167 18.3808 76.4548ZM74.976 117.946C74.6031 119.064 73.5774 119.251 72.4586 119.251C71.06 119.251 69.7547 119.251 68.3561 119.158C65.4658 119.064 62.6686 118.878 59.7783 118.598C58.1932 118.412 56.7014 118.225 55.1164 118.225C53.9043 118.318 52.4125 118.598 51.2937 117.946C48.8695 116.64 51.2937 113.563 52.5058 112.351C52.7855 112.072 53.1584 111.978 53.5314 111.978C54.184 111.699 55.0232 111.699 55.8623 111.699C58.8459 111.699 61.5498 111.978 64.5334 112.351C67.2373 112.724 69.9412 113.004 72.6451 113.19C73.6707 113.19 74.8828 113.563 75.1625 114.775C75.349 115.708 75.2557 117.106 74.976 117.946ZM126.443 114.775C124.672 114.309 123.366 115.148 121.968 115.894C119.917 117.013 117.772 117.573 115.441 117.759C108.728 118.412 102.015 119.437 95.3018 119.997C92.9709 120.183 90.6399 120.276 88.309 120.37C85.978 120.463 83.5539 120.463 81.1297 120.463H77.1205C77.1205 120.463 77.1205 120.463 77.0272 120.463C76.934 120.463 76.934 120.463 76.8408 120.463H75.7219C75.9084 120.37 76.0949 120.276 76.1881 120.183C76.3746 120.09 76.4678 119.904 76.4678 119.81C76.6543 119.624 76.7475 119.531 76.8408 119.344C76.934 119.251 76.934 119.158 76.934 119.064V118.971C76.934 118.878 76.934 118.878 76.934 118.785C77.0272 118.412 77.0272 117.852 77.0272 117.386C77.0272 117.013 77.1205 116.547 77.1205 116.081C77.1205 115.801 77.2137 115.335 77.2137 115.055V114.682C77.2137 112.165 76.0016 112.165 73.4842 111.885C71.06 111.605 68.5426 111.605 66.0252 111.232C65.7455 111.232 65.559 111.139 65.2793 111.139C64.8131 111.046 64.2537 111.046 63.7875 110.953H63.4146C63.3213 110.953 63.3213 110.953 63.2281 110.953C63.1348 110.953 63.1348 110.953 63.0416 110.953C62.7619 110.953 62.5754 110.953 62.2957 110.859C61.8295 110.859 61.3633 110.766 60.8039 110.766C60.3377 110.766 59.8715 110.673 59.3121 110.673C58.8459 110.673 58.3797 110.673 57.8203 110.58C57.3541 110.58 56.7947 110.58 56.3285 110.487H51.9463C51.5734 110.487 51.2937 110.487 50.9207 110.58C50.5478 110.673 50.1748 110.766 49.8951 110.953C49.7086 111.046 49.6154 111.232 49.5221 111.232C49.4289 111.326 49.3357 111.419 49.1492 111.512C48.9627 111.699 48.8695 111.792 48.683 111.978C48.3101 112.258 48.1236 112.724 47.8439 113.004C47.3777 113.843 47.098 114.682 46.8183 115.521C46.725 115.894 46.5385 116.454 46.4453 116.827C46.3521 117.106 46.3521 117.2 46.2588 117.479C46.2588 117.573 46.1656 117.759 46.1656 117.852C46.1656 117.946 46.1656 117.946 46.1656 118.039V118.225C46.9115 118.785 47.6574 118.598 48.4033 119.158C48.1236 120.649 13.4392 119.531 8.40438 117.759C10.0827 116.827 11.388 116.081 12.8798 115.428C12.7865 115.242 12.6933 115.148 12.6001 114.869C10.7353 115.615 8.87057 116.36 6.91258 117.106C5.2343 117.759 5.2343 117.666 3.08984 115.801C7.09905 113.19 11.388 111.512 15.6769 110.02C11.5745 110.207 8.12467 112.538 4.02221 113.657C4.02221 111.605 5.04783 110.487 6.16668 109.274C9.7097 105.358 13.2527 101.442 16.7025 97.5265C18.1943 95.8482 19.4997 94.1699 20.9915 92.4917C24.9074 92.7714 28.8234 92.9579 32.7394 93.3308C35.6297 93.5173 38.4269 93.9835 41.3172 93.9835C47.6574 94.0767 54.184 93.8902 60.5242 93.797C71.9924 93.7038 83.4606 93.5173 94.8356 93.424C99.1245 93.3308 103.32 93.5173 107.143 91.0931C108.355 90.254 109.474 90.5337 110.686 91.2796C111.712 92.0255 112.924 92.5849 113.67 93.6105C117.679 98.6453 121.688 103.867 125.511 109.181C126.35 110.3 126.723 111.885 127.096 113.284C128.121 114.03 127.376 115.055 126.443 114.775Z" fill="#010202"/>
<path d="M119.823 20.792C123.926 13.7992 127.469 6.52663 132.69 0C132.69 0.559426 132.877 1.30533 132.597 1.67828C129.52 7.36577 126.443 13.1465 123.18 18.7408C122.62 19.7664 121.408 20.5123 120.476 21.3514C120.196 21.2582 120.01 20.9785 119.823 20.792Z" fill="#EB594B"/>
<path d="M137.259 44.0081C140.429 42.9825 142.946 44.754 145.557 45.7796C149.566 47.4579 153.202 49.7889 155.16 54.0778C152.27 52.213 149.473 50.3483 146.489 48.4835C143.599 46.8053 140.056 46.2458 137.259 44.0081Z" fill="#EB594B"/>
<path d="M157.584 24.4285C157.211 24.7082 156.745 25.0811 156.279 25.2676C149.472 27.5985 142.666 29.8362 135.953 32.1672C135.767 31.8875 135.673 31.701 135.58 31.4213C136.233 30.9551 136.699 30.2092 137.445 29.9295C143.878 27.2256 150.591 25.1744 157.304 23.4961C157.398 23.7758 157.491 24.1488 157.584 24.4285Z" fill="#EB594B"/>
<path d="M104.252 48.2038C101.828 49.2294 101.269 49.5091 99.2174 50.3482C99.1242 50.0685 99.031 49.8821 98.9377 49.6023C101.082 48.67 101.828 48.297 103.973 47.3646C104.159 45.0337 103.04 43.3554 100.989 42.423C99.4039 41.7704 97.7256 41.3974 96.0474 41.3042C87.9357 41.0245 82.3414 41.3042 74.2298 41.3974C68.449 41.4907 62.5751 42.1433 56.7011 42.3298C53.8107 42.423 51.0136 41.8636 48.1232 41.8636C41.3169 42.0501 34.6038 42.3298 27.8907 42.6095C27.0516 42.6095 26.2124 42.6095 24.5341 42.5163C25.5598 41.4907 26.0259 40.838 26.4921 40.7448C35.7227 39.7192 44.9532 38.9733 54.1837 40.1853C55.3025 40.3718 56.5146 40.3718 57.6335 40.2786C71.0597 39.253 81.8753 38.88 95.2082 39.1597C95.8609 39.1597 96.6068 39.3462 97.2595 39.3462C104.625 39.7192 105.837 42.3298 106.49 49.0429C106.676 50.5347 106.49 52.4927 106.49 54.3575C106.397 62.0962 106.77 69.7417 105.464 77.2007C105.091 79.4384 104.159 81.4896 103.413 83.7273C102.854 85.4056 101.548 86.2447 99.7769 86.5244C96.7933 86.8974 93.9029 87.55 90.9193 87.55C82.9941 87.8298 75.1621 88.0162 67.237 88.0162C57.82 88.0162 48.403 87.6433 38.986 87.4568C36.0956 87.3636 33.2985 87.0838 30.4081 86.8974C27.4245 86.7109 25.653 85.4056 24.3477 82.5152C22.5762 78.506 20.8046 63.4947 20.8046 58.9261C20.7114 54.3575 20.6182 49.7888 20.6182 45.2202C20.6182 44.5675 21.0844 44.0081 21.5505 42.8892C22.8559 44.754 22.5762 46.2458 22.5762 47.6444C22.4829 58.087 22.2964 68.1566 25.4665 78.4128C27.7975 84.1002 27.1448 85.1259 34.4173 85.2191C40.1048 85.3123 45.8855 85.8718 51.573 86.0582C55.489 86.1515 59.3118 85.965 63.2277 85.965C69.7544 85.965 76.281 86.1515 82.8076 85.8718C88.0289 85.6853 93.2502 85.0326 98.4715 84.5664C100.243 84.38 101.455 83.4476 101.828 81.5828C102.854 77.2939 102.947 74.59 103.227 69.9281C103.973 65.6392 103.506 59.5788 103.879 55.1966C104.346 53.0521 104.252 50.9077 104.252 48.2038Z" fill="#010202"/>
<path d="M104.718 50.3485C104.252 50.6282 102.387 51.3741 101.735 51.6538C101.642 51.4674 101.548 51.2809 101.455 51.1877C101.921 50.9079 103.786 50.162 104.439 49.8823C104.532 50.0688 104.625 50.162 104.718 50.3485Z" fill="#010202"/>
<path d="M81.0356 48.8563C80.8491 48.4834 80.2896 47.8307 80.1032 47.6442C79.5437 47.1781 78.8911 46.7119 78.2384 46.6186C77.8655 46.5254 77.7722 46.5254 77.4925 46.5254C77.3993 46.5254 77.306 46.5254 77.306 46.5254C77.1196 46.5254 76.8399 46.5254 76.5601 46.6186C76.3737 46.6186 76.1872 46.7119 76.0007 46.8051C75.6278 46.9916 75.1616 47.1781 74.9751 47.3645C74.6022 47.7375 74.2292 47.924 73.9495 48.3901C73.763 48.7631 73.4833 49.2293 73.3901 49.6955C73.2036 50.9076 73.2036 51.6535 73.5765 52.4926C73.763 52.8655 73.9495 53.3317 74.3224 53.5182C74.6954 53.8912 74.8819 53.9844 75.2548 54.2641C76.0007 54.7303 76.4669 54.8235 77.1196 54.8235C77.4925 54.8235 77.5858 54.8235 77.9587 54.7303C78.3317 54.7303 79.264 54.3573 79.637 54.2641C80.1032 53.8912 80.4761 53.7047 80.6626 53.3317C81.5017 51.8399 81.6882 50.4414 81.0356 48.8563ZM75.8142 53.1453C75.6278 52.9588 75.3481 52.7723 75.2548 52.6791C75.0683 52.4926 74.8819 52.2129 74.7886 51.8399C74.6022 51.467 74.4157 50.8143 74.6954 50.0684C74.6954 49.8819 74.8819 49.6022 75.0683 49.2293V49.136C75.1616 48.9496 75.4413 48.7631 75.5345 48.5766C75.9075 48.3901 76.0007 48.2037 76.3737 48.2037C76.4669 48.2037 76.7466 48.1104 76.7466 48.1104C76.9331 48.1104 77.1196 48.1104 77.1196 48.0172C77.2128 48.0172 77.306 48.0172 77.4925 48.0172C77.679 48.0172 77.8655 48.0172 77.8655 48.0172C78.3317 48.1104 78.7978 48.3901 79.1708 48.7631C79.3573 48.9496 79.637 49.3225 79.7302 49.6022C80.2896 50.9076 79.9167 51.8399 79.264 52.8655C79.1708 53.052 79.0776 53.2385 78.7978 53.2385C78.6114 53.3317 77.8655 53.6114 77.7722 53.6114C76.6534 53.5182 76.4669 53.5182 75.8142 53.1453Z" fill="#010202"/>
<path d="M57.7264 61.7235C57.54 61.3506 56.9805 60.6979 56.7941 60.5114C56.2346 60.0452 55.582 59.5791 54.9293 59.4858C54.5564 59.3926 54.4631 59.3926 54.0902 59.3926C53.9969 59.3926 53.9969 59.3926 53.9037 59.3926C53.7172 59.3926 53.4375 59.3926 53.1578 59.4858C52.9713 59.4858 52.7849 59.5791 52.5984 59.6723C52.2254 59.8588 51.7592 60.0452 51.5728 60.2317C51.1998 60.6047 50.8269 60.7911 50.5471 61.2573C50.3607 61.6303 50.081 62.0965 49.9877 62.5627C49.8012 63.7747 49.8012 64.5206 50.1742 65.3598C50.3607 65.7327 50.5471 66.1989 50.9201 66.3854C51.293 66.7583 51.4795 66.8516 51.8525 67.2245C52.5984 67.6907 53.0646 67.784 53.7172 67.784C54.0902 67.784 54.1834 67.784 54.5564 67.6907C54.9293 67.6907 55.8617 67.3178 56.2346 67.2245C56.7008 66.8516 57.0738 66.6651 57.2603 66.2922C58.2859 64.8004 58.5656 63.4018 57.7264 61.7235ZM52.6916 66.1057C52.5051 65.9192 52.2254 65.7327 52.1322 65.6395C51.9457 65.453 51.7592 65.1733 51.666 64.8004C51.4795 64.4274 51.293 63.7747 51.5728 63.0288C51.5728 62.8424 51.7592 62.5627 51.9457 62.1897V62.0965C52.039 61.91 52.3187 61.7235 52.4119 61.537C52.7849 61.3506 52.8781 61.1641 53.251 61.1641C53.3443 61.1641 53.624 61.0709 53.624 61.0709C53.8105 61.0709 53.9969 60.9776 53.9969 60.9776C53.9969 60.9776 54.1834 60.9776 54.3699 60.9776C54.5564 60.9776 54.7428 60.9776 54.7428 60.9776C55.209 61.0709 55.6752 61.3506 56.0482 61.7235C56.2346 61.91 56.5144 62.2829 56.6076 62.5627C57.167 63.868 56.7941 64.8004 56.1414 65.826C56.0482 66.0124 55.9549 66.1989 55.6752 66.1989C55.3023 66.2922 54.6496 66.5719 54.4631 66.5719C53.4375 66.5719 53.251 66.4786 52.6916 66.1057Z" fill="#010202"/>
<path d="M71.8061 74.2172C71.6196 73.8442 71.0602 73.1916 70.8737 73.0051C70.3143 72.5389 69.6616 72.0727 69.0089 71.9795C68.636 71.8862 68.5427 71.8862 68.263 71.8862C68.1698 71.8862 68.1698 71.8862 68.0765 71.8862C67.8901 71.8862 67.7036 71.8862 67.3306 71.9795C67.1442 71.9795 66.9577 72.0727 66.7712 72.1659C66.3983 72.3524 65.9321 72.5389 65.7456 72.7254C65.3727 73.0983 64.9997 73.2848 64.72 73.751C64.5335 74.1239 64.2538 74.5901 64.1606 75.0563C63.9741 76.2684 63.9741 77.0143 64.347 77.8534C64.5335 78.2264 64.72 78.6926 65.0929 78.879C65.4659 79.252 65.6524 79.3452 66.0253 79.625C66.7712 80.0911 67.2374 80.3708 67.8901 80.3708C68.263 80.3708 68.3563 80.3709 68.7292 80.2776C69.1022 80.2776 70.0345 79.9047 70.4075 79.8114C70.8737 79.4385 71.2466 79.252 71.4331 78.879C72.4587 77.294 72.6452 75.8954 71.8061 74.2172ZM65.9321 78.0399C65.7456 77.8534 65.5591 77.5737 65.4659 77.2008C65.2794 76.8278 65.0929 76.1752 65.3727 75.4293C65.3727 75.2428 65.5591 74.9631 65.7456 74.6834L65.8388 74.5901C65.9321 74.4036 66.2118 74.2172 66.3983 74.0307C66.7712 73.8442 66.8645 73.6577 67.2374 73.6577C67.3306 73.6577 67.4239 73.5645 67.6104 73.5645H67.7036C67.7968 73.5645 68.0765 73.4713 68.0765 73.4713C68.1698 73.4713 68.263 73.4713 68.4495 73.4713C68.636 73.4713 68.8225 73.4713 68.8225 73.4713C69.2886 73.5645 69.7548 73.8442 70.1278 74.2172C70.3142 74.4036 70.594 74.7766 70.6872 75.0563C71.2466 76.3616 70.8737 77.294 70.221 78.3196C70.1278 78.5061 70.0345 78.6926 69.7548 78.6926C69.5684 78.7858 68.8224 79.0655 68.7292 79.0655C67.7968 79.1588 67.7036 79.1588 66.9577 78.6926L66.8645 78.7858L66.9577 78.6926C66.3983 78.4129 66.2118 78.1331 65.9321 78.0399Z" fill="#010202"/>
</svg>
