<svg width="146" height="124" viewBox="0 0 146 124" fill="none" xmlns="http://www.w3.org/2000/svg">
<path d="M55.6704 119.83C52.2922 119.972 48.6605 120.046 45.8192 118.212C44.104 117.101 42.8661 115.4 41.6953 113.715C36.9301 106.847 32.575 99.5014 30.6883 91.3654C28.824 83.3413 29.4578 74.9742 30.0917 66.7637C30.9493 55.7641 31.7994 44.772 32.657 33.7724C32.8286 31.5651 33.015 29.3055 33.9248 27.292C34.8644 25.2189 36.4976 23.5559 38.1009 21.9451C43.7685 16.2328 50.1445 10.17 58.1611 9.48388C65.4022 8.85747 72.1362 12.7875 78.9447 15.323C95.1644 21.3709 114.158 19.432 128.819 10.2296C130.08 9.43914 131.467 8.55917 132.936 8.76798C133.905 8.90221 134.748 9.4988 135.434 10.1923C138.536 13.3244 138.872 18.1791 139.021 22.579C139.99 51.931 140.475 81.3055 140.46 110.68C140.46 114.938 139.871 120.128 135.978 121.851C132.555 123.365 128.7 121.172 125.665 118.965C121.019 115.587 116.545 111.97 112.249 108.144C101.898 98.9048 97.5955 110.538 87.5505 114.64C77.5427 118.741 66.3567 119.383 55.6704 119.83Z" fill="white"/>
<path d="M64.8965 56.8908L65.4707 64.3555L74.7849 64.8179L74.8819 61.9692L73.9348 56.8013L64.8965 56.8908Z" fill="#F15748"/>
<path d="M73.9351 56.8002C70.7881 56.3379 67.7605 57.1731 64.5836 57.6728C64.5613 57.6056 64.4047 57.3446 64.4494 57.2104C64.5091 57.0463 64.7402 56.8897 64.8968 56.8972C66.53 56.9569 68.1259 56.5542 69.7367 56.2782C70.7956 56.0993 71.8769 56.2186 72.9508 56.1962C73.2863 56.1887 73.6219 56.1962 73.95 56.1664C74.2782 56.1365 74.4273 56.3081 74.4646 56.7406C74.5168 57.3968 74.5988 58.0456 74.651 58.7019C74.7405 59.7906 74.8524 60.8794 74.8822 61.9756C74.9046 62.878 74.8226 63.7803 74.7853 64.8169C73.167 64.7423 71.6308 64.6677 70.0946 64.5932C68.5733 64.5186 67.0446 64.444 65.4711 64.362C65.1951 62.5126 64.7104 60.7377 64.8148 58.8212C64.8297 58.6124 64.9118 58.4036 64.964 58.1948C65.0236 58.1948 65.0833 58.2022 65.1429 58.2022C65.1951 58.4185 65.307 58.6422 65.2772 58.8361C65.1056 59.992 65.3667 61.0808 65.5531 62.177C65.6351 62.6617 65.7321 63.1464 65.8439 63.7207C68.6479 64.1159 71.4593 63.9593 74.226 64.2501C74.651 62.878 74.487 59.1568 73.9351 56.8002Z" fill="black"/>
<path d="M73.7046 71.0218C73.6747 71.1188 73.6747 71.1486 73.6598 71.1635C73.6225 71.1934 73.5853 71.2307 73.5405 71.2381C73.4734 71.253 73.3988 71.2605 73.3317 71.253C70.7067 71.0218 68.1116 70.47 65.4568 70.5595C65.4269 70.5595 65.4046 70.4998 65.3076 70.388C65.509 70.3432 65.673 70.291 65.8371 70.2761C67.1496 70.1344 68.4472 70.3581 69.7447 70.5073C70.9976 70.649 72.2429 70.7907 73.4958 70.9398C73.5554 70.9324 73.6151 70.9771 73.7046 71.0218Z" fill="black"/>
<path d="M72.9126 74.5567C71.9357 74.2062 71.0333 74.3926 70.1385 74.4001C68.7589 74.415 67.3792 74.4896 65.9996 74.5268C65.8729 74.5343 65.7386 74.4821 65.582 74.3404C65.7088 74.2882 65.8356 74.1838 65.9698 74.1838C68.0877 74.1391 70.2056 74.1018 72.3235 74.072C72.577 74.0645 72.8529 74.0794 72.9126 74.5567Z" fill="black"/>
<path d="M70.9003 68.9861C70.8182 69.0159 70.7287 69.0905 70.6467 69.0756C68.9166 68.8593 67.194 68.6282 65.4713 68.4044C65.4713 68.3522 65.4639 68.2926 65.4639 68.2404C65.6279 68.218 65.792 68.1583 65.9561 68.1733C67.0001 68.2777 68.0441 68.3895 69.0881 68.5088C69.6101 68.5685 70.1247 68.6505 70.6467 68.7326C70.7511 68.7475 70.8406 68.8071 70.9376 68.8444C70.9226 68.8892 70.9077 68.9414 70.9003 68.9861Z" fill="black"/>
<path d="M69.2811 58.5534C69.3183 58.5534 69.3482 58.5459 69.3705 58.5459C69.4526 58.6876 69.5197 58.8964 69.5346 59.0754C69.6987 59.1201 69.7956 59.2171 69.8702 59.2991C69.9224 58.9934 69.9149 58.7547 69.7509 58.3595C69.5719 58.3297 69.4153 58.2103 69.3556 58.0314C69.3034 57.8897 69.3183 57.748 69.3855 57.6287C69.1916 57.5839 68.9156 57.6585 68.8187 57.9568C68.774 58.0836 68.8038 58.2625 68.8709 58.352C68.9678 58.4788 69.1245 58.5534 69.2811 58.5534ZM69.4227 58.0015C69.4824 58.1507 69.6092 58.2551 69.7658 58.2849L69.8031 58.2924L69.818 58.3297C69.9895 58.7174 69.997 59.0679 69.9298 59.3662C70.0044 59.4483 70.0715 59.5228 70.161 59.5452C70.2505 59.3737 70.3624 58.8368 70.161 58.1731C70.2803 58.0463 70.3475 57.83 70.2431 57.651C70.0641 57.3304 69.6241 57.3453 69.4451 57.6585C69.3929 57.748 69.378 57.8897 69.4227 58.0015ZM70.2505 58.188C70.4369 58.8218 70.3475 59.3588 70.2356 59.575L70.2281 59.5974C70.2356 59.6272 70.2729 59.7391 70.3027 59.8808C70.6681 59.1201 70.4593 58.4042 70.4593 58.4042C70.6905 58.4042 70.8769 58.2029 70.8769 57.9941C70.8844 57.6883 70.5786 57.4795 70.2878 57.5914C70.2953 57.5988 70.3027 57.6138 70.3102 57.6287C70.4295 57.8151 70.3624 58.0463 70.2505 58.188ZM68.8858 58.5907C69.1767 59.1276 69.1095 59.6794 68.8709 60.1716C68.9231 60.1791 68.9977 60.1716 69.0648 60.1567C69.1095 60.1492 69.1543 60.1418 69.199 60.1418L69.2289 60.1045C69.3034 60.0076 69.4004 59.7913 69.4302 59.575L69.4377 59.5154C69.4078 59.4483 69.4078 59.3737 69.4078 59.3066C69.4078 59.1649 69.3482 59.0829 69.2885 59.053L69.296 59.0306C69.3556 59.0306 69.4078 59.0306 69.46 59.0381C69.4451 58.8964 69.4004 58.7324 69.3333 58.6056C69.3183 58.6056 69.3034 58.6056 69.2885 58.613H69.2811C69.0946 58.6205 68.9156 58.531 68.8038 58.3744C68.7292 58.2625 68.6994 58.0836 68.7367 57.9419C68.5055 57.9493 68.3713 58.1432 68.4011 58.3446C68.4384 58.5534 68.6696 58.6876 68.8858 58.5907ZM68.9828 59.0828C68.9231 59.0605 68.856 59.0456 68.7814 59.053C68.8709 59.1201 68.8411 59.3066 68.9231 59.4259C68.9455 59.4333 68.9753 59.4483 68.9977 59.4632C69.0126 59.3364 69.0051 59.2096 68.9828 59.0828ZM69.5122 60.1865L69.5421 60.1567C69.6241 60.0821 69.7136 59.9404 69.7285 59.8137C69.6837 59.754 69.5868 59.6422 69.5048 59.5825C69.4749 59.7988 69.378 60.0225 69.2885 60.1418C69.3705 60.1567 69.4451 60.1642 69.5122 60.1865ZM69.0499 60.5892C69.035 60.5892 69.02 60.5818 69.02 60.5669C69.02 60.5594 69.02 60.5445 69.0275 60.5445C69.02 60.5445 69.0126 60.5445 69.0051 60.5445C68.9678 60.5519 68.938 60.5818 68.9455 60.6191C68.9529 60.6563 68.9828 60.6787 69.02 60.6787C69.0573 60.6713 69.0872 60.6414 69.0797 60.6041C69.0797 60.5967 69.0723 60.5818 69.0723 60.5743C69.0648 60.5818 69.0573 60.5892 69.0499 60.5892ZM71.3318 62.983C70.6681 63.1918 70.0864 62.9308 69.7807 62.5654L69.7882 62.558C70.1312 62.9383 70.8322 63.0725 71.3169 62.8861C71.2871 62.6624 72.0179 60.8651 70.34 60.2611C70.34 60.3208 70.3251 60.373 70.2803 60.4028C70.4817 60.4699 70.7278 60.6489 70.862 61.1187C70.7054 60.6191 70.2952 60.4475 70.0939 60.4252C70.4593 60.4177 70.1461 59.6049 70.1461 59.6049C69.8776 59.5303 69.7956 59.15 69.4302 59.1127C69.5122 59.1947 69.4526 59.3737 69.5122 59.5005C69.6465 59.575 69.7956 59.7913 69.7956 59.7913C69.7956 59.933 69.6912 60.112 69.5793 60.2089C69.7732 60.276 69.9149 60.3581 70.0044 60.4252C69.7807 60.4252 69.6539 60.6191 69.6539 60.6191C69.6539 60.6191 69.7061 60.455 69.8627 60.4028C69.6614 60.3059 69.5197 60.2313 69.2736 60.2164C69.1394 60.2014 68.9007 60.2984 68.7814 60.2238C68.6845 60.4252 68.0655 60.9472 67.193 61.1038C67.0364 61.1336 66.7754 61.156 66.7754 61.156C66.7754 61.1784 66.7978 61.2231 66.8201 61.2529C66.8574 61.2678 66.9842 61.2977 67.0588 61.1709C67.0513 61.2156 66.9917 61.3126 66.8574 61.3126C67.111 61.678 68.334 61.857 68.8933 61.3051C68.8784 61.4245 68.6472 61.5736 68.5055 61.6258C68.5875 61.6258 68.6994 61.6482 68.7814 61.6855C68.9007 61.7377 68.9529 61.678 69.0051 61.6631C68.9977 61.6109 69.0275 61.4767 69.1841 61.4617C69.3631 61.4468 69.557 61.6482 69.8851 61.6109C70.2207 61.5736 70.4295 61.2678 70.3773 60.8204C70.5115 61.3797 70.2281 61.678 69.9373 61.7004C70.0193 61.9539 69.9149 62.3268 69.736 62.4685C69.5943 62.4834 69.4675 62.5505 69.4078 62.6922C69.6688 63.0874 70.519 63.5573 71.4362 63.2068C71.4288 63.1247 71.3766 63.0054 71.3318 62.983ZM69.3556 60.6638C69.3407 60.6563 69.3333 60.6414 69.3183 60.634C69.3034 60.6265 69.296 60.6191 69.2811 60.6041L69.2736 60.5967L69.2661 60.5892C69.2587 60.5818 69.2512 60.5818 69.2438 60.5743C69.2139 60.5594 69.1916 60.5445 69.1617 60.537C69.1468 60.5296 69.1394 60.5296 69.1245 60.5221C69.1394 60.537 69.1468 60.5594 69.1468 60.5818C69.1543 60.6489 69.1021 60.716 69.035 60.7235C68.9678 60.7309 68.8933 60.6862 68.8858 60.6116C68.8784 60.5669 68.9007 60.5296 68.9306 60.4997C68.9156 60.4997 68.9082 60.4997 68.8933 60.5072C68.8858 60.5072 68.8858 60.5072 68.8784 60.5072H68.8634C68.856 60.5072 68.8485 60.5072 68.8411 60.5147C68.8262 60.5147 68.8112 60.5221 68.7963 60.5221C68.7889 60.5221 68.7814 60.5221 68.774 60.5296C68.7665 60.5296 68.759 60.537 68.7516 60.537C68.7441 60.537 68.7367 60.5445 68.7292 60.5445C68.7218 60.5445 68.7143 60.5519 68.7068 60.5519C68.7367 60.5296 68.759 60.5147 68.7889 60.4997C68.7963 60.4997 68.8038 60.4923 68.8112 60.4923C68.8187 60.4923 68.8262 60.4848 68.8336 60.4848C68.8411 60.4848 68.8485 60.4774 68.856 60.4774L68.8709 60.4699C68.8784 60.4699 68.8784 60.4699 68.8858 60.4699H68.9007H68.9082H68.9156L68.938 60.4625C68.9455 60.4625 68.9529 60.4625 68.9604 60.4625C68.9678 60.4625 68.9678 60.4625 68.9753 60.4625H68.9902C69.0275 60.4625 69.0573 60.4625 69.0946 60.4699C69.1319 60.4774 69.1617 60.4848 69.1916 60.4997C69.199 60.4997 69.2065 60.5072 69.2139 60.5147L69.2214 60.5221L69.2289 60.5296C69.2438 60.537 69.2587 60.5519 69.2661 60.5594C69.2736 60.5669 69.2811 60.5669 69.2885 60.5743C69.296 60.5818 69.3034 60.5818 69.3034 60.5892C69.3183 60.6041 69.3258 60.6116 69.3333 60.6265C69.3407 60.6414 69.3556 60.6489 69.3631 60.6638C69.3705 60.6787 69.378 60.6862 69.3929 60.7011C69.378 60.6787 69.3631 60.6713 69.3556 60.6638Z" fill="white"/>
<path d="M78.3781 67.867C78.4526 63.6984 78.572 59.5222 78.654 55.3536C78.6614 54.7868 78.5645 54.2126 78.4974 53.4893C77.6622 53.534 77.0208 53.5415 76.3795 53.6011C75.6114 53.6682 74.8433 53.7876 74.0752 53.8472C71.3533 54.0635 68.6313 54.2797 65.9094 54.4662C64.9027 54.5333 63.8885 54.5706 62.8892 54.496C62.0838 54.4363 61.3753 54.5333 60.6818 54.9285C60.6744 55.2417 60.6594 55.4729 60.6744 55.7041C60.8459 59.5744 61.0099 63.4373 61.1889 67.3077C61.2859 69.448 61.3604 71.5957 61.5469 73.7285C61.6363 74.765 61.6587 75.8613 62.2031 76.6294C67.5798 76.7189 72.7776 76.8083 78.0723 76.8978C78.2811 74.7725 78.7435 72.8709 78.5048 70.8947C78.3855 69.9029 78.3631 68.8812 78.3781 67.867ZM77.5279 60.4395C77.6025 64.5485 77.1625 68.6426 77.431 72.759C77.61 75.4809 76.991 75.9507 74.2616 75.9135C73.0088 75.8985 71.7634 75.7569 70.5106 75.727C68.7283 75.6972 66.946 75.727 65.1711 75.7121C64.5522 75.7047 63.9332 75.6226 62.9041 75.548C63.262 75.1603 63.5305 74.862 63.7915 74.5861C63.6349 74.3847 63.5081 74.1684 63.4112 73.9373C63.3366 74.0044 63.262 74.064 63.1875 74.1312C62.3597 72.3787 61.4872 58.4484 62.0241 55.8383C62.218 55.7712 62.4343 55.6444 62.658 55.6295C67.5575 55.3238 72.4569 55.0255 77.61 54.7123C77.5727 56.7705 77.4906 58.605 77.5279 60.4395Z" fill="black"/>
<path d="M52.4284 22.8628C52.6297 23.9963 52.8385 25.1224 53.0548 26.323C53.3456 26.1291 53.5693 25.98 53.8751 25.7712C54.9042 26.5915 55.1055 28.2395 56.7536 28.5304C56.2689 29.1344 55.8736 28.8585 55.6126 28.6124C55.016 28.0531 54.4866 27.4267 53.711 26.5915C53.3978 27.9711 53.1517 29.0598 52.9056 30.1561C52.8385 30.1411 52.7714 30.1188 52.7043 30.1039C52.5253 27.7175 52.3538 25.3312 52.1748 22.9374C52.2568 22.915 52.3389 22.8852 52.4284 22.8628Z" fill="black"/>
<path d="M80.0276 80.1945C78.6555 80.5972 78.3721 80.53 77.947 79.7992C77.5071 79.0386 77.5294 77.9722 78.0887 77.48C78.2975 77.2936 78.7301 77.2787 79.0358 77.3234C79.1328 77.3383 79.2372 77.8305 79.1924 78.084C78.9985 79.2996 78.9836 79.2921 80.0276 80.1945Z" fill="black"/>
<path d="M59.9229 75.1011C58.6477 75.3546 57.8796 74.8922 57.641 73.7364C57.4545 72.8266 57.7901 72.3344 58.7894 72.0659C58.8789 73.6618 58.8789 73.6618 59.9229 75.1011Z" fill="black"/>
<path d="M82.5546 56.286C81.2197 56.6514 80.7051 56.4873 80.3174 55.7565C79.9072 54.9959 80.0564 54.3694 80.9139 53.5864C81.16 54.6976 81.2644 55.8684 82.5546 56.286Z" fill="black"/>
<path d="M68.1102 79.6052C67.2749 80.336 66.4472 81.0668 65.6119 81.7976C65.5299 81.7007 65.4404 81.6037 65.3584 81.5068C65.8804 80.4329 66.82 79.8065 67.8193 79.2397C67.9163 79.3665 68.0132 79.4858 68.1102 79.6052Z" fill="black"/>
<path d="M57.8641 59.8506C58.1549 60.2085 58.4532 60.4099 58.4458 60.6038C58.4383 60.8349 58.2071 61.1631 57.9983 61.2451C57.8492 61.2973 57.3793 60.9916 57.3868 60.8648C57.4092 60.5889 57.6329 60.3129 57.8641 59.8506Z" fill="black"/>
<path d="M80.5498 69.5304C80.6169 69.1799 80.684 68.8368 80.7512 68.4863C80.96 68.5385 81.3477 68.6131 81.3477 68.6504C81.3254 68.9934 81.2284 69.329 81.1538 69.6646C80.9525 69.6198 80.7512 69.5751 80.5498 69.5304Z" fill="black"/>
<path d="M84.7463 98.3158C82.7552 99.0615 81.9871 100.971 80.4658 102.104C81.7559 99.2331 84.3511 97.5626 86.4988 95.2583C86.991 96.2949 86.29 96.6901 86.0215 97.2196C85.7307 97.7938 85.4175 98.3531 84.9029 99.3225C86.5137 98.5992 87.2595 97.1077 88.8255 97.0928C89.2506 98.1667 88.5943 98.8826 87.9604 99.6208C88.0276 99.0764 88.0947 98.5321 88.1916 97.7863C86.2527 98.7558 85.0595 100.337 83.6128 101.59C83.5159 101.515 83.4189 101.448 83.322 101.373C83.7992 100.352 84.2765 99.3375 84.7463 98.3158Z" fill="black"/>
<path d="M55.3508 108.099C55.5597 107.331 55.761 106.563 55.9922 105.713C55.6342 105.735 55.3807 105.75 54.8438 105.78C55.6417 104.684 56.3278 103.737 57.424 102.79C57.7148 104.393 56.3874 105.25 56.4844 106.779C56.9691 106.25 57.3047 105.825 57.6999 105.467C58.0728 105.124 58.5053 104.848 59.0199 104.467C59.3554 105.243 59.609 105.825 59.8924 106.473C60.4144 106.444 60.914 106.421 61.5926 106.384C59.9744 107.644 59.7059 107.555 58.565 105.415C57.5657 106.399 56.6037 107.353 55.6491 108.301C55.5447 108.233 55.4478 108.166 55.3508 108.099Z" fill="black"/>
<path d="M89.8115 39.4845C87.8055 40.1557 85.7994 40.8269 83.7412 41.5204C84.5466 40.2004 87.1418 39.2906 89.8115 39.4845Z" fill="black"/>
<path d="M56.0889 90.4554C58.341 88.4419 60.2948 86.3986 62.9422 84.8848C62.9645 85.2427 63.0466 85.5783 62.972 85.6156C60.705 86.7491 58.9972 88.5761 57.1627 90.2466C56.9987 90.3957 56.7749 90.4927 56.5736 90.6045C56.5363 90.6195 56.4692 90.5747 56.0889 90.4554Z" fill="black"/>
<path d="M54.5518 89.7098C55.5436 87.7933 58.9665 84.9147 60.6295 84.4673C58.6757 86.1526 56.7517 87.8156 54.5518 89.7098Z" fill="black"/>
<path d="M59.5195 90.2691C60.6008 88.0841 62.5248 86.8909 64.7844 86.1079C63.0245 87.495 61.272 88.882 59.5195 90.2691Z" fill="black"/>
<path d="M95.1215 98.7037C95.4422 98.9573 95.7852 99.2407 95.8821 99.6359C96.0462 100.344 95.3452 100.948 94.689 101.262C91.2362 102.917 87.1571 101.955 83.3464 102.365C77.6415 102.977 72.7644 106.646 67.2982 108.368C64.8074 109.151 62.2048 109.532 59.5947 109.659C58.3494 109.718 57.0742 109.718 55.8735 109.36C53.1441 108.547 51.1456 105.736 51.2798 102.895C51.3171 102.03 51.5707 101.112 52.2269 100.546C53.1591 99.7329 54.561 99.8596 55.784 100.068C59.2815 100.658 62.779 101.455 66.3213 101.321C71.9814 101.112 77.1866 98.5397 81.8474 95.4971C83.9057 94.1548 85.6656 92.4023 88.1936 93.4911C90.6844 94.5575 92.9887 97.0408 95.1215 98.7037Z" fill="#BCBCBB"/>
<path d="M52.1739 22.4452C52.4423 20.2527 52.8003 17.8887 54.3663 16.3376C55.6117 15.1146 57.394 14.6373 59.1241 14.4061C61.3538 14.1004 63.6358 14.1153 65.8581 14.4509C66.8573 14.6 67.9237 14.861 68.5576 15.6515C69.1468 16.3898 69.2064 17.404 69.2139 18.3436C69.2213 19.5592 69.184 20.7971 68.759 21.9306C67.9834 24.0336 66.0221 25.4877 63.9788 26.4199C61.9355 27.3446 59.7207 27.8741 57.6923 28.8361C56.4469 29.4252 53.0986 32.7736 51.5996 31.7743C50.2275 30.8496 51.98 24.0037 52.1739 22.4452Z" fill="#BCBCBB"/>
<path d="M96.7903 27.9634C96.9544 27.8814 97.1557 27.8068 97.3123 27.9038C97.4018 27.9634 97.4466 28.0678 97.4913 28.1648C98.4608 30.6555 97.6628 33.5564 96.0893 35.7191C94.5158 37.8817 92.2712 39.4328 90.0489 40.9168C88.3934 42.0205 86.4768 43.1615 84.5379 42.714C84.0159 42.5947 83.4939 42.3337 83.218 41.8788C82.8973 41.3344 82.9942 40.6558 83.0315 40.0294C83.2776 35.4133 82.0546 35.5177 86.6483 33.0642C89.9892 31.2819 93.3823 29.604 96.7903 27.9634Z" fill="#BCBCBB"/>
<path d="M55.2671 79.0683C55.2596 79.5828 55.2522 80.1123 55.3864 80.597C55.8189 82.1556 57.3626 82.521 58.6453 82.6403C60.2188 82.7895 62.2546 82.5658 62.7319 80.6194C63.0451 79.3367 62.456 78.0093 61.9116 76.8684C60.0174 72.9011 58.3544 64.4668 55.5579 61.894C55.1254 67.5392 55.3417 73.3933 55.2671 79.0683Z" fill="#BCBCBB"/>
<path d="M31.8526 103.058C31.2858 102.573 30.6967 102.074 30.3686 101.41C30.0405 100.739 29.9957 99.9706 29.9659 99.2323C29.6601 91.9614 29.8242 84.6756 30.4506 77.4271C30.5774 75.9431 31.2635 73.9892 32.74 74.1682C33.9407 74.3099 34.4105 75.7715 34.6267 76.9647C36.6775 88.6354 41.3905 100.284 42.9342 111.88C39.213 110.881 34.9176 105.653 31.8526 103.058Z" fill="#BCBCBB"/>
<path d="M96.5675 85.3996C92.5033 84.8254 88.193 86.9134 86.1347 90.4631C85.3815 91.7607 84.3226 93.0135 83.4352 94.2216C81.3695 97.0181 78.8937 98.3231 75.7019 99.6953C68.5578 102.76 60.0266 101.798 53.0242 98.9719C52.6289 98.8153 52.2039 98.6885 51.913 98.3828C51.5103 97.9503 51.4507 97.3089 51.4134 96.7198C51.1971 93.2671 50.9734 89.8218 50.7571 86.369C50.6602 84.7955 50.5633 83.1698 51.1226 81.6933C51.6819 80.2242 53.0913 78.949 54.6573 79.0683C55.8281 79.5307 54.6051 81.6933 55.582 82.4912C55.8729 82.7298 56.2756 82.7522 56.6559 82.7671C64.9186 83.0878 73.2112 83.1475 81.4814 82.8715C83.1443 82.8119 82.8162 82.9163 84.1436 82.2153C84.7924 81.8723 83.905 79.4934 84.8148 79.2473C87.0371 78.6358 94.7852 84.1915 96.5675 85.3996Z" fill="#F15748"/>
<path d="M98.746 25.4722C99.6111 25.8003 100.506 26.0688 101.319 26.4938C101.595 26.643 101.796 27.1948 101.796 27.5602C101.818 32.0272 102.721 36.427 102.572 40.9312C102.363 47.2401 102.512 53.564 102.579 59.8878C102.609 62.9826 102.855 66.0774 102.892 69.1722C102.945 73.0425 102.885 76.9203 102.87 80.7981C102.87 81.6259 102.922 82.4611 102.862 83.2889C102.587 87.0921 102.385 90.8954 101.953 94.6837C101.714 96.7568 100.827 98.6734 99.5887 100.411C98.4701 101.97 98.5745 102.439 100.103 103.953C100.953 103.573 101.535 102.969 101.535 101.97C101.543 100.858 101.96 100.038 102.609 99.1059C103.317 98.0917 103.646 96.6748 103.75 95.4071C104.063 91.6709 104.153 87.9124 104.376 84.1614C104.652 79.4633 104.965 74.7652 105.286 70.0745C105.555 66.0848 105.48 62.1026 105.167 58.1204C105.092 57.2031 105.182 56.271 105.204 55.3388C105.323 55.3015 105.443 55.2717 105.562 55.2344C105.734 55.5327 106.032 55.8235 106.054 56.1367C106.405 61.5508 106.934 66.9573 106.032 72.3714C105.935 72.9605 105.875 73.5571 105.845 74.1537C105.674 78.5013 105.555 82.8489 105.353 87.1891C105.204 90.4628 104.973 93.7292 104.764 97.0029C104.749 97.2938 104.734 97.7412 104.563 97.8382C103.302 98.5391 103.75 99.8367 103.288 100.829C106.449 103.454 109.462 106.026 112.796 108.256C117.792 111.597 122.677 115.117 127.539 118.659C129.411 120.024 131.506 120.702 133.758 121.5C134.042 119.494 134.385 117.682 134.541 115.855C135.019 110.389 135.212 104.923 134.974 99.4266C134.877 97.1745 135.183 94.9149 135.28 92.6553C135.369 90.5822 135.421 88.5016 135.488 86.4284C135.503 86.0183 135.503 85.6081 135.518 84.8549C136.346 86.3539 136.115 87.6962 136.301 88.9416C136.45 89.9334 136.324 90.9625 136.286 91.9767C136.189 95.0118 136.092 98.047 135.966 101.082C135.749 106.198 135.518 111.321 135.294 116.437C135.265 117.093 135.22 117.749 135.205 118.398C135.205 118.622 135.287 118.853 135.332 119.069C137.651 119.129 138.024 118.927 138.009 117.563C137.688 117.526 137.345 117.503 137.01 117.429C136.749 117.369 136.503 117.25 136.271 116.899C136.816 116.787 137.353 116.668 138.083 116.511C138.3 114.699 138.441 112.82 138.374 110.926C138.359 110.449 138.27 109.964 138.352 109.509C139.068 105.557 139.068 101.559 139.172 97.5697C139.314 92.0885 139.53 86.6074 139.702 81.1337C139.843 76.6146 139.858 72.088 140.164 67.5763C140.358 64.6381 140.067 61.767 139.881 58.8587C139.664 55.5327 139.724 52.1918 139.642 48.8584C139.597 47.0164 139.5 45.1745 139.433 43.34C139.411 42.7434 139.411 42.1468 139.411 41.5577C139.403 38.7015 139.456 35.8453 139.396 32.9892C139.299 28.8802 139.142 24.7712 138.971 20.6622C138.896 18.8874 138.866 17.0901 138.21 15.2631C137.524 15.1736 136.749 15.2482 136.145 14.9573C135.436 14.6143 134.981 16.2251 134.146 15.099C134.228 15.636 134.318 16.1803 134.392 16.6651C135.548 16.9708 136.57 17.2318 137.584 17.5003C137.576 17.6047 137.561 17.7091 137.554 17.8135C136.57 17.7986 135.578 17.7837 134.608 17.7613C134.772 20.8785 134.966 23.839 135.086 26.807C135.257 31.2665 135.376 35.7335 135.526 40.193C135.652 43.9365 135.861 47.6727 135.898 51.4162C135.943 55.8832 135.831 60.3576 135.824 64.832C135.824 66.4353 135.943 68.0386 135.958 69.642C135.966 70.2013 135.816 70.768 135.391 71.3721C135.272 71.1036 135.048 70.8426 135.041 70.5667C135.011 69.1349 135.048 67.7031 135.041 66.2713C135.011 61.3196 135.011 56.3754 134.936 51.4237C134.862 46.1215 134.75 40.8194 134.586 35.5172C134.437 30.6327 134.303 25.7481 133.967 20.871C133.751 17.7315 133.177 14.6218 132.759 11.4673C131.655 11.1094 130.79 11.4897 129.933 11.8924C128.426 12.6008 126.979 13.4882 125.406 14.0177C119.485 16.0163 114.257 19.387 108.746 22.191C108.008 22.5638 107.27 22.9441 106.643 23.2574C105.405 32.1092 105.331 40.9238 105.212 49.9844C104.212 49.3431 104.227 48.575 104.235 47.8442C104.264 44.4436 104.324 41.0506 104.339 37.65C104.354 34.063 104.727 30.5133 105.219 26.9711C105.249 26.7325 105.264 26.4938 105.279 26.2552C105.487 22.5116 104.936 22.2879 102.094 21.5273C100.655 21.1469 99.2531 20.6324 97.8437 20.1626C97.6423 20.0954 97.4783 19.9016 97.1352 19.6331C97.5529 19.4168 97.8288 19.1409 98.0898 19.1633C98.6193 19.2006 99.1413 19.3721 99.6484 19.5361C101.006 19.9612 102.363 20.4012 103.72 20.8561C104.115 20.9903 104.593 21.0649 104.868 21.3334C105.957 22.4072 107.054 21.9672 108.135 21.4229C110.685 20.1327 113.213 18.7979 115.749 17.4779C118.694 15.9417 121.506 14.1072 124.809 13.3242C125.488 13.1601 126.092 12.6978 126.733 12.392C128.188 11.7059 129.612 10.9677 131.103 10.386C131.849 10.0952 132.476 9.78941 132.722 8.89453C133.378 9.10334 133.773 9.61043 134.534 9.424C136.242 9.00639 137.793 9.89381 139.366 10.4158C139.672 10.5202 139.948 11.005 140.045 11.3629C140.179 11.87 140.172 12.4293 140.164 12.9588C140.134 17.2467 140.433 21.5123 140.962 25.763C141.029 26.2776 140.947 26.822 140.858 27.344C140.537 29.2381 140.507 31.1099 140.917 32.9966C141.089 33.802 141.044 34.6596 141.074 35.4874C141.178 38.4554 141.275 41.4234 141.372 44.3914C141.395 44.988 141.335 45.5846 141.395 46.1737C141.454 46.7554 141.462 47.4266 141.76 47.874C143.341 50.2231 144.005 52.8928 144.355 55.6073C144.788 58.9631 145.25 62.3338 144.944 65.7492C144.706 68.3817 144.131 70.9246 143.311 73.4228C143.132 73.9747 142.826 74.534 142.453 74.974C141.633 75.9434 141.32 77.062 141.298 78.2776C141.186 83.9377 140.91 89.6053 141.037 95.2654C141.141 100.232 140.552 105.117 140.097 110.031C139.851 112.701 139.724 115.378 139.642 118.055C139.597 119.539 139.21 120.874 138.389 122.082C138.173 122.403 137.8 122.805 137.465 122.843C135.884 123.007 134.295 123.618 132.707 122.94C130.462 121.985 128.143 121.15 126.025 119.972C124.332 119.032 122.923 117.6 121.327 116.467C118.322 114.334 115.219 112.343 112.274 110.135C109.939 108.39 107.777 106.414 105.547 104.535C104.824 103.923 104.115 103.297 103.317 102.603C102.907 103.342 102.594 103.946 102.251 104.527C101.192 106.302 99.3277 107.108 97.7095 108.181C96.6804 108.86 95.4499 109.233 94.3089 109.748C93.9286 109.919 93.5259 110.053 93.1829 110.284C89.9016 112.432 86.1431 113.499 82.5263 114.863C80.0803 115.788 77.6119 116.653 75.1212 117.451C72.7423 118.219 70.356 118.965 67.9249 119.546C64.9718 120.255 61.9963 120.881 58.9984 121.336C57.3056 121.59 55.5457 121.515 53.8305 121.433C51.295 121.306 49.1697 120.143 47.2904 118.502C42.9801 114.744 38.6399 111.023 34.3892 107.197C33.1215 106.056 31.9134 104.744 31.0334 103.304C30.3847 102.253 30.146 100.866 30.0118 99.5906C29.7657 97.2341 29.7657 94.8627 29.6091 92.4987C29.0722 84.3404 29.102 76.1821 29.3705 68.0088C29.5271 63.3181 29.1169 58.6051 28.9603 53.907C28.8186 49.7383 28.5278 45.5622 28.5576 41.3936C28.58 38.0676 28.3264 34.7342 28.9305 31.4082C29.3108 29.35 29.8776 27.5826 31.6375 26.1955C33.9194 24.3909 35.9926 22.3177 38.1552 20.3565C38.3342 20.1998 38.5057 20.0283 38.6921 19.8866C42.033 17.3884 45.3664 14.8977 48.7073 12.4069C49.4754 11.8327 50.2883 11.43 51.2652 11.2361C53.0699 10.8856 54.8596 10.4084 56.6345 9.90127C59.4459 9.10334 62.2349 9.62535 64.9569 10.1772C69.6251 11.1317 74.2338 12.3622 78.8648 13.4808C79.2675 13.5777 79.7224 13.615 80.0505 13.8387C81.5494 14.8455 83.2944 14.9201 84.9798 15.2556C86.7845 15.621 88.6041 15.9715 90.3714 16.4786C92.0792 16.9708 93.7422 17.6122 95.3902 18.2684C95.8973 18.4697 96.3 18.9396 96.6132 19.5883C96.3149 19.5511 96.0092 19.5585 95.7333 19.4765C94.7042 19.1633 93.675 18.865 92.6758 18.4847C89.1634 17.1274 85.5838 16.0387 81.8253 15.6061C81.3033 15.5465 80.7888 15.3302 80.2966 15.1139C77.0377 13.6821 73.5328 13.2347 70.08 12.5635C69.7445 12.4964 69.3791 12.5412 68.9092 12.5337C68.8869 13.7045 68.872 14.8007 68.8496 16.0088C69.6923 16.2176 70.4305 16.3966 71.1688 16.5756C72.4366 16.8739 73.7043 17.1423 74.9721 17.4556C76.7022 17.8881 78.4248 18.3803 80.1624 18.783C83.19 19.4839 86.076 20.5727 88.962 21.7062C91.1023 22.5489 93.4513 22.8397 95.696 23.4289C96.5461 23.6526 97.3739 23.9956 98.1942 24.3461C98.6715 24.5549 98.8952 24.98 98.7759 25.5244C98.224 25.8749 97.6423 26.1881 97.1203 26.5759C96.8519 26.7772 96.4417 27.1575 96.4939 27.3738C96.7549 28.567 95.8302 28.992 95.1367 29.4246C91.7138 31.5574 88.4475 34.0257 84.3161 34.6969C83.6002 34.8162 83.0558 35.1145 82.9365 35.8677C82.7501 37.0161 82.7128 38.1646 83.026 39.3727C84.3236 38.8656 85.4123 38.4032 86.5309 38.008C88.4997 37.3144 88.7458 37.2995 90.1104 37.65C87.4183 38.2019 85.1066 39.0371 82.9141 40.275C82.9887 42.1468 83.0558 43.9738 83.1304 45.8456C83.3988 45.9351 83.6151 46.0097 83.8314 46.0843C85.2632 46.5615 85.5093 46.8598 85.5391 48.3886C85.5689 50.059 85.6062 51.7295 85.5391 53.3924C85.2557 60.6559 84.9351 67.9193 84.6517 75.1828C84.6069 76.4132 84.6815 77.6437 84.6964 78.6281C89.7227 80.4029 94.212 82.4984 98.1494 85.8095C98.0152 86.5179 97.6573 87.3084 97.784 88.0094C98.0674 89.5456 97.4485 90.6567 96.479 91.6859C96.4193 91.7455 96.2553 91.7082 96.0241 91.7231C95.9122 91.3354 95.7855 90.9252 95.6662 90.53C95.0845 90.873 95.2635 91.9618 94.1971 91.9618C93.3245 89.5083 95.3008 87.8901 96.0539 85.8468C94.5848 85.6901 93.2798 85.9735 92.1016 86.4359C90.4311 87.0921 88.88 88.1212 88.0075 89.732C87.1648 91.2832 86.1059 92.5956 84.8456 93.7814C83.5927 94.9596 82.1833 95.9962 81.0796 97.2938C79.6478 98.9791 77.8133 99.7994 75.8073 100.448C73.1226 101.313 70.356 101.649 67.552 101.887C64.7704 102.126 62.1231 101.82 59.4533 101.008C57.0968 100.292 54.6583 99.874 52.1377 99.2923C52.1228 100.113 51.996 100.784 52.1228 101.403C52.6523 104.117 52.5404 106.862 52.4882 109.591C52.4807 110.165 52.3465 110.747 52.175 111.291C51.3845 113.797 52.7045 115.9 55.322 116.116C56.187 116.191 57.1117 116.094 57.9544 115.87C60.5421 115.184 63.1074 114.408 65.6728 113.648C67.4401 113.126 69.2001 112.581 70.9525 112C73.7789 111.053 76.6052 110.12 79.4017 109.084C83.4212 107.6 87.4183 106.034 91.4229 104.498C93.4812 103.707 95.435 102.745 97.1129 100.918C96.4939 100.195 96.0465 99.4117 95.3753 98.9269C93.69 97.6965 91.9002 96.6226 90.1776 95.4518C89.2901 94.8478 88.4475 94.1841 87.5899 93.5427C87.0902 93.1699 87.0902 92.8045 87.6794 92.3645C88.3953 92.8045 89.1112 93.2146 89.7972 93.677C91.9151 95.1162 94.0405 96.548 96.1061 98.0544C96.6207 98.4273 96.9264 99.091 97.3813 99.6876C97.3888 99.6876 97.5603 99.6428 97.702 99.5533C99.805 98.1514 100.342 95.8992 100.566 93.6471C100.946 89.7991 101.244 85.9213 101.289 82.0584C101.349 77.3007 101.117 72.5354 101.021 67.7702C100.991 66.2862 101.006 64.8022 101.013 63.3181C101.021 61.767 101.058 60.2234 101.043 58.6722C101.028 55.6968 100.983 52.7213 100.961 49.7458C100.924 44.4436 101.021 39.1415 100.819 33.8468C100.722 31.274 100.663 28.5744 98.9623 26.3372C98.7833 26.121 98.8057 25.763 98.746 25.4722ZM66.6944 15.636C66.7168 14.3906 66.8063 13.4435 66.7093 12.5113C66.672 12.1385 66.2768 11.6239 65.9263 11.5046C64.9196 11.1466 63.8681 10.8633 62.8166 10.7216C59.9381 10.3413 57.1117 10.7365 54.3227 11.4599C53.4576 11.6836 52.6 11.9148 51.9885 12.6754C51.8319 12.8693 51.4442 13.0483 51.213 12.9961C50.5418 12.8395 50.1988 13.272 49.8483 13.6523C48.4985 15.099 47.2681 16.68 46.761 18.6114C46.1867 20.7964 45.6722 23.0262 45.4336 25.2708C44.8221 30.9682 44.7326 36.6955 45.0607 42.4227C45.0905 42.9298 45.2471 43.4294 45.3366 43.9216C46.746 44.1081 47.969 44.2572 49.3487 43.6532C49.3039 40.6479 49.1771 37.6202 49.2293 34.6C49.2965 30.0137 49.3114 25.4274 50.1093 20.8785C50.43 19.0738 51.2577 17.5078 51.8394 15.8299C52.0333 15.278 52.4658 14.8082 53.316 15.2706C53.1743 15.5688 53.0624 15.8224 52.9431 16.0759C52.4434 17.1573 51.7499 18.1864 51.4889 19.3199C51.0191 21.3483 50.7208 23.4214 50.5195 25.4946C49.9825 31.0204 50.3032 36.5612 50.333 42.102C50.3703 48.2991 50.5344 54.4961 50.6388 60.6932C50.6611 62.0057 50.6015 63.3181 50.6388 64.6232C50.7581 68.4935 50.9072 72.3639 51.0489 76.2343C51.0862 77.3454 51.131 78.4565 51.1832 79.8361C52.339 79.4409 53.2638 79.1277 54.181 78.807C54.2183 78.3596 54.2929 78.0613 54.2556 77.7705C53.7634 73.9747 54.0319 70.1565 53.9424 66.3458C53.8753 63.43 53.6739 60.5142 53.577 57.5984C53.4726 54.6826 53.3905 51.7667 53.3458 48.8435C53.3309 47.9635 53.4949 47.091 54.7701 46.7629C54.9044 47.7994 55.1132 48.7316 55.1355 49.6638C55.2847 54.8466 55.3966 60.0295 55.501 65.2198C55.5904 69.5674 55.4115 73.9225 56.0006 78.2477C56.1497 79.3514 56.2765 80.4551 56.4257 81.6781C57.4324 81.8571 58.2975 82.0957 59.17 82.1405C61.2506 82.2523 63.3312 82.2598 65.4118 82.3418C66.0605 82.3642 66.5378 82.1479 67.0076 81.7154C67.6788 81.0964 68.3201 80.4178 69.3791 80.2538C68.8347 80.9249 68.2903 81.6035 67.6042 82.4462C69.5357 82.9533 71.2061 82.8116 72.8542 82.7743C74.5172 82.7296 76.1801 82.573 77.8431 82.4015C79.4614 82.2374 81.1691 82.9682 82.7575 81.9466C82.8097 81.4618 82.8843 80.992 82.9067 80.5222C83.1751 74.8696 83.451 69.2169 83.6971 63.5568C83.8686 59.6864 84.0029 55.8161 84.1297 51.9383C84.152 51.3715 84.0476 50.7973 83.9954 50.1932C83.3392 50.1858 82.8619 50.1038 82.407 50.1783C80.6769 50.4543 78.9617 50.402 77.2465 50.0516C76.7842 49.9546 76.2995 49.895 75.8296 49.88C72.5037 49.7831 69.1852 50.0366 65.8443 49.88C62.5929 49.7234 59.3266 50.0143 56.0453 50.1112C55.762 49.5221 55.8813 49.0896 56.4406 48.933C56.9477 48.7913 57.4921 48.7689 58.0215 48.7689C60.6987 48.7689 63.3834 48.7913 66.0605 48.8136C66.6571 48.8211 67.2537 48.8658 67.8503 48.8733C68.6184 48.8808 69.3865 48.8435 70.1621 48.8509C73.0108 48.8733 75.8595 48.6496 78.7156 49.1343C80.1549 49.3804 81.6762 49.2089 83.1527 49.097C84.1222 49.0224 84.1147 48.918 83.7941 47.4862C81.9447 47.4042 80.0505 47.2849 78.1563 47.2476C73.928 47.1581 69.6923 47.6354 65.4789 46.994C65.1358 46.9418 64.7704 47.0686 64.4199 47.0835C61.7427 47.2252 59.073 47.3744 56.3958 47.4713C55.9857 47.4862 55.5755 47.2551 55.1132 47.1283C55.4413 46.2707 56.0155 46.2707 56.5375 46.2781C60.6316 46.3527 64.7182 45.4951 68.8272 46.1887C69.4014 46.2856 70.0129 46.129 70.6095 46.1066C71.4373 46.0768 72.2725 46.0544 73.1003 46.0544C75.8968 46.047 78.7007 46.0544 81.4972 46.0395C81.6538 46.0395 81.803 45.8904 82.0565 45.7561C81.8999 42.4003 81.7433 39.0296 81.5793 35.4426C80.7291 35.2637 79.9461 34.9803 79.1556 34.9579C70.6915 34.7491 62.2648 33.9735 53.8454 33.0936C53.4427 33.0488 53.0699 32.7878 52.354 32.4895C53.6068 31.9302 54.4793 32.2136 55.3145 32.2733C58.3422 32.4821 61.3699 32.758 64.3976 32.9892C66.8958 33.1756 69.4014 33.2278 71.8847 33.5336C75.8818 34.0332 79.8417 34.0183 83.7792 33.1159C86.3221 32.5343 88.5519 31.3113 90.6101 29.7378C91.4602 29.0964 92.3327 28.4626 93.2649 27.9629C94.7936 27.1575 96.0017 25.9867 97.702 24.7861C96.8295 24.5848 96.397 24.4505 95.9495 24.3834C93.2351 23.9882 90.5355 23.5855 87.9404 22.6086C85.5988 21.7286 83.2422 20.8785 80.8559 20.1402C78.4695 19.4019 76.0161 18.8874 73.6297 18.1416C72.0264 17.642 70.4753 17.1051 68.7601 17.3362C68.5587 17.3661 68.335 17.2244 68.1113 17.1796C66.7839 16.9261 65.4565 16.5905 64.1142 16.4563C61.6309 16.2027 59.1327 16.0685 56.6345 15.8597C56.1945 15.8224 55.6799 15.8149 55.5233 14.9573C57.4026 14.8007 59.1028 15.4943 60.8553 15.5241C62.6898 15.5614 64.5243 15.5987 66.6944 15.636ZM46.485 115.423C46.6044 115.348 46.7237 115.266 46.8504 115.191C46.8579 114.722 46.9176 114.252 46.8654 113.797C46.6267 111.672 46.2688 109.554 46.1122 107.421C45.9034 104.691 45.8213 101.955 45.7244 99.2178C45.5305 93.677 45.359 88.1436 45.2024 82.6028C45.1576 80.9995 45.2397 79.3887 45.1949 77.7779C45.0681 73.0201 44.9115 68.2549 44.7549 63.4971C44.6953 61.8341 44.7475 60.1413 44.4716 58.5082C44.0241 55.8981 44.0316 53.2955 43.9719 50.6705C43.9197 48.4184 44.6058 46.1887 44.1136 43.9216C43.9645 43.2281 43.8824 42.5047 43.8899 41.7963C43.9272 37.5083 43.9346 33.2129 44.0838 28.9249C44.2404 24.3238 44.919 19.8046 46.8952 15.5763C46.9176 15.5241 46.8057 15.4048 46.746 15.2929C45.7095 15.9865 44.6431 16.6278 43.6587 17.3735C41.3469 19.1334 39.0128 20.871 36.8054 22.7652C35.0082 24.3088 33.3303 26.0166 31.727 27.7616C31.1155 28.4327 30.7277 29.3798 30.4369 30.2673C29.3257 33.6753 29.6091 37.2175 29.6315 40.7224C29.6389 41.9678 29.721 43.2206 29.8328 44.4586C29.9969 46.2856 30.2504 48.1052 30.3921 49.9322C30.5413 51.8264 30.6084 53.7206 30.7053 55.6147C30.8619 58.6424 31.0782 61.6701 31.1378 64.7052C31.2348 69.5227 31.2124 74.3401 31.2721 79.1575C31.3019 82.0137 31.4063 84.8773 31.4287 87.7335C31.4436 89.7544 31.2795 91.7828 31.3839 93.8037C31.4958 96.0558 31.809 98.3005 32.07 100.545C32.1297 101.045 32.3683 101.515 32.5249 101.999C32.8903 98.9567 32.5547 95.9962 32.3236 93.0207C33.0245 93.9976 32.7188 95.1386 32.853 96.205C33.0022 97.346 33.1513 98.4795 33.3452 99.9411C33.912 99.0164 34.2848 98.3975 34.7845 97.5771C35.9404 99.2178 36.1566 100.881 36.3058 102.574C35.8583 101.328 35.4034 100.075 34.956 98.83C34.3296 99.434 34.0089 100.046 33.7927 100.694C33.2557 102.26 33.3378 103.64 34.695 104.885C37.0217 107.018 39.1843 109.33 41.5185 111.455C43.077 112.887 44.8221 114.11 46.485 115.423ZM85.375 82.0957C84.4429 83.1845 83.4958 83.8184 81.9969 83.8109C78.7305 83.7885 75.4642 84.0197 72.1905 84.1167C70.52 84.1614 68.8496 84.1838 67.1866 84.1167C66.068 84.0719 64.9569 83.8035 63.8308 83.6991C61.6383 83.4902 59.4384 83.3187 57.2385 83.1248C56.2691 83.0353 55.4786 82.8415 55.1057 81.6557C54.7478 80.5073 53.9647 80.2239 53.0475 80.4402C51.7425 80.7534 51.2876 81.253 51.2726 82.4984C51.2279 87.6291 51.7275 92.7224 52.1899 97.8158C52.8387 97.9575 53.4054 98.0992 53.9722 98.1961C58.0141 98.9045 61.9739 99.9933 66.1127 100.232C72.4366 100.59 77.6567 98.2259 82.1908 94.1244C83.9432 92.536 85.3974 90.6045 86.9784 88.8297C88.5891 87.0101 90.4535 85.5932 92.8771 85.0115C93.2574 84.9221 93.6005 84.6983 94.0106 84.5119C91.9449 82.8116 87.4855 80.7459 84.8157 80.2165C84.249 81.0219 84.7412 81.5812 85.375 82.0957ZM59.7442 119.576C59.9381 118.361 60.214 117.384 59.5652 116.377C59.0432 116.519 58.5808 116.601 58.1409 116.765C56.6046 117.332 55.0833 117.115 53.577 116.683C52.8238 116.467 52.1601 116.086 51.7947 115.311C51.1608 113.991 50.8177 112.544 51.0564 111.157C51.6381 107.779 51.653 104.423 51.2204 101.037C51.1608 100.568 51.1757 100.083 51.1533 99.613C51.0266 96.9358 50.8998 94.2661 50.773 91.5889C50.6015 87.7857 50.4076 83.9824 50.2659 80.1792C50.1615 77.4423 50.154 74.698 50.0646 71.9612C49.9303 67.8522 49.729 63.7507 49.6171 59.6417C49.5127 55.5327 49.4829 51.4237 49.4158 47.3147C49.4083 47.0313 49.3188 46.748 49.2741 46.5392C47.9168 46.5168 46.6566 46.4944 45.3366 46.472C45.3814 49.2611 45.3664 51.8711 45.4932 54.4812C45.62 57.0316 45.9183 59.5671 46.1122 62.1101C46.1644 62.8185 46.0674 63.5344 46.0973 64.2503C46.2688 68.2922 46.5 72.3341 46.6342 76.3759C46.761 80.1195 46.7684 83.8706 46.9026 87.6142C47.0443 91.4771 47.2904 95.3325 47.4619 99.1954C47.5365 100.978 47.5738 102.76 47.5589 104.535C47.5514 105.9 47.3277 107.272 47.3874 108.629C47.4694 110.471 47.723 112.298 47.9168 114.132C47.9541 114.483 47.9765 114.878 48.148 115.162C48.767 116.168 49.3636 117.205 50.1317 118.092C50.6089 118.644 51.3099 119.159 52.0035 119.33C54.5091 119.979 57.067 119.815 59.7442 119.576ZM96.7848 103.446C90.8189 105.698 85.1289 107.943 79.3719 109.994C73.5701 112.059 67.7086 113.939 61.8397 115.907C61.8248 116.795 61.8099 117.548 61.8024 118.301C61.7427 118.309 61.6831 118.323 61.6234 118.331C61.3997 117.652 61.176 116.981 60.9523 116.303C60.4452 117.339 60.2587 118.309 60.7136 119.345C74.0026 116.996 86.0462 111.657 97.9854 105.639C97.5081 104.781 97.1502 104.117 96.7848 103.446ZM49.5724 44.7196C47.969 44.4958 46.7162 44.6823 45.3441 44.9955C46.6864 46.2334 48.2897 46.1812 49.5724 44.7196ZM135.25 12.1161C136.212 12.131 137.099 12.1459 138.248 12.1683C137.927 11.6537 137.822 11.251 137.584 11.1466C136.764 10.7812 135.943 10.2294 134.929 10.5799C134.922 10.9006 134.877 11.1392 134.929 11.3555C134.996 11.6314 135.145 11.8849 135.25 12.1161ZM68.0293 15.9119C68.4842 13.7194 68.335 12.653 67.5371 12.0714C67.1493 13.1601 66.9554 15.1214 67.2835 15.6136C67.4029 15.8 67.7608 15.8149 68.0293 15.9119ZM138.322 14.3906C138.039 12.7425 137.084 12.4964 135.242 13.451C136.018 14.5472 137.099 14.3757 138.322 14.3906ZM137.793 119.793C136.801 119.442 136.077 120.031 135.324 120.24C135.101 120.859 135.168 121.336 135.772 121.441C136.264 121.523 136.786 121.403 137.293 121.373C137.479 120.769 137.621 120.329 137.793 119.793ZM99.5514 104.438C98.9921 103.662 98.5671 103.073 98.1122 102.447C96.919 103.655 98.0525 104.333 98.3732 105.31C98.8057 104.997 99.1115 104.766 99.5514 104.438ZM142.565 58.6499C142.483 58.6499 142.401 58.6573 142.319 58.6573C142.342 59.1197 142.364 59.5746 142.386 60.0369C142.439 60.0369 142.491 60.0295 142.543 60.0295C142.55 59.5671 142.558 59.1048 142.565 58.6499Z" fill="black"/>
<path d="M25.4268 20.3736C25.4948 19.4607 25.6569 18.956 25.5102 18.6485C22.4568 13.4108 21.2514 7.24309 17.5316 2.29751C17.1844 1.8339 16.7347 1.41914 15.9254 1.20072C15.9685 1.60782 15.8563 2.16434 16.0538 2.47277C18.8731 6.63955 20.2551 11.541 22.5605 16.0028C23.0505 16.977 23.5414 17.9004 24.0833 18.8247C24.3288 19.2864 24.7287 19.6494 25.4268 20.3736Z" fill="#F15748"/>
<path d="M20.8063 25.4669C17.9726 24.7532 15.2905 24.0931 12.5576 23.4322C9.67301 22.7175 6.73292 22.2557 3.7814 22.4033C3.06893 22.4406 2.20585 22.3734 2.38236 23.7988C3.04202 23.862 3.74976 24.0785 4.46223 24.0412C7.97385 23.8536 11.3138 24.6784 14.6518 25.6047C16.1688 26.0395 17.6869 26.4238 19.1531 26.8577C20.114 27.1297 20.6788 26.8357 20.8063 25.4669Z" fill="#F15748"/>
<path d="M3.14513 45.2941C3.34744 45.3488 3.65042 45.4561 3.80477 45.3574C9.75494 42.5749 15.6551 39.7408 21.658 36.8577C21.4768 35.6862 20.6578 35.9754 19.9914 36.2677C17.994 37.0425 15.9966 37.8174 14.047 38.7455C11.0715 40.1621 8.14479 41.6813 5.21819 43.2003C4.39639 43.6418 3.62253 44.2367 2.8497 44.7807C2.99933 44.936 3.04632 45.1399 3.14513 45.2941Z" fill="#F15748"/>
</svg>
