<svg width="203" height="125" viewBox="0 0 203 125" fill="none" xmlns="http://www.w3.org/2000/svg">
<path d="M25.9861 22.6221L23.5938 23.7096L23.7025 27.1893L26.0948 104.396L84.3802 102.112L119.504 101.351L148.646 100.916L171.7 101.025L175.723 100.481L175.941 99.0674L174.092 35.3449L173.874 24.0358L172.352 20.7735L168.546 20.1211L149.951 20.7735L76.6596 22.0784L36.3165 22.2959L25.9861 22.6221Z" fill="white"/>
<path d="M165.83 80.2658C166.808 81.2445 167.134 82.7669 167.134 84.0718C167.134 87.0078 165.721 89.8351 163.764 92.0099C161.806 94.1847 159.196 95.8159 156.695 97.1208C157.783 92.4449 162.785 89.4001 163.437 84.7242C163.546 83.6368 163.437 82.3319 162.567 81.5707C161.806 80.9183 159.631 81.3532 159.305 80.5921C158.979 79.6134 161.589 79.0697 162.241 78.9609C163.546 78.9609 164.96 79.2872 165.83 80.2658Z" fill="#B9B7B7"/>
<path d="M54.5873 38.4037C55.7835 33.5103 69.9199 28.617 74.2695 26.4421C77.2055 24.9198 80.5765 24.2673 82.9688 21.9837C82.6426 22.31 80.2503 21.875 79.8153 21.875C78.6192 21.875 77.423 21.875 76.2269 21.9837C73.9433 22.0925 71.6597 22.2012 69.3761 22.4187C68.0712 22.5274 55.566 22.9624 54.9135 24.1586C54.0436 25.6809 54.2611 28.7257 54.2611 30.4656C54.0436 33.0754 54.1523 35.7939 54.5873 38.4037Z" fill="#B9B7B7"/>
<path d="M155.501 31.9799C163.874 39.3743 170.508 50.4659 174.531 60.9051C175.401 49.2698 173.879 37.1995 174.422 25.4554C174.531 23.6068 174.422 21.5407 172.9 20.4533C171.921 19.8008 170.616 19.8008 169.42 19.6921C163.874 19.4746 158.111 19.9096 152.565 20.1271C146.911 20.2358 141.256 20.3445 135.602 20.562C133.97 20.562 132.448 20.6708 130.817 20.6708C129.838 20.6708 127.772 20.3445 127.229 21.1057C135.167 22.4106 142.887 23.8243 149.955 27.9564C151.913 29.1526 153.761 30.5662 155.501 31.9799Z" fill="#B9B7B7"/>
<path d="M34.9064 85.3678C30.448 77.9734 29.4694 68.9478 25.2285 61.3359C23.2711 74.2762 27.4033 87.4339 26.2071 100.483C26.0984 101.57 25.9897 102.766 26.8596 103.528C27.512 104.18 28.4907 104.071 29.3606 104.071C36.6463 103.963 43.932 103.854 51.2177 103.745C52.1963 103.745 53.175 103.745 53.9362 103.31C56.546 102.005 54.4799 101.027 53.0663 100.265C51.3264 99.3954 49.5865 98.4168 47.9554 97.4381C44.6932 95.4807 41.5397 93.1972 38.9299 90.3699C37.4075 88.9563 35.9939 87.2164 34.9064 85.3678Z" fill="#B9B7B7"/>
<path d="M172.572 20.2357C171.811 20.5619 171.485 20.9969 171.05 20.9969C169.963 20.9969 172.572 20.6707 171.376 20.7794C168.005 20.8881 164.525 21.1056 161.046 21.2144C158.871 21.3231 156.587 21.6493 154.304 21.6493C151.694 21.7581 115.809 22.193 113.091 22.193C108.85 22.193 104.609 22.193 100.259 22.3018C98.3019 22.3018 96.4533 22.4105 94.496 22.4105C88.189 22.5193 81.9907 22.4105 75.6837 22.628C67.6368 22.9542 48.7158 23.7154 40.5602 23.3892C39.799 23.2804 39.1466 23.3892 38.3854 23.3892C38.1679 23.3892 37.9504 23.3892 37.6242 23.3892C34.2532 23.2804 30.991 23.3892 27.7287 23.3892C26.6413 23.3892 25.5539 23.7154 24.3577 23.8242L24.684 29.8049C24.5752 29.8049 24.5752 29.9137 24.5752 29.9137C24.5752 30.3486 24.684 30.6749 24.684 31.1098C24.684 31.1098 24.684 31.1098 24.5752 31.1098C24.5752 31.2186 24.5752 31.4361 24.5752 31.5448V31.6535C24.4665 34.2633 24.3577 36.3294 24.4665 38.5042C24.7927 44.1588 25.2277 49.8134 25.6626 55.5766C26.0976 62.7536 25.8801 69.713 26.5326 76.7812C26.8588 79.9347 27.0763 96.4634 26.9675 99.6169C26.8588 100.378 27.185 101.248 26.0976 101.466C25.4452 101.574 25.1189 101.031 25.0102 99.6169C25.0102 99.2907 25.0102 98.9645 25.0102 98.6383C24.7927 94.7236 24.4665 77.8686 24.3577 73.9539C24.1403 67.212 23.9228 60.47 23.5965 53.728C23.4878 50.6833 23.1616 47.6385 22.9441 44.5938C22.6179 39.3742 22.5091 34.4808 22.4004 29.4787C22.4004 27.8476 22.5091 26.1077 22.7266 24.4766C22.8354 22.8455 23.814 21.9755 25.3364 21.8668C28.4899 21.7581 31.7522 21.3231 34.9057 21.4318C35.8843 21.5406 36.863 21.5406 37.7329 21.5406C37.9504 21.5406 38.1679 21.5406 38.4941 21.6493C47.3022 21.9755 66.9844 21.3231 75.7924 21.2144C82.0994 21.1056 88.2977 21.1056 94.6047 20.8881C101.02 20.7794 107.436 20.6706 113.852 20.5619C115.483 20.5619 117.223 20.6707 118.854 20.6707C121.246 20.5619 161.481 19.3658 162.568 19.257C166.592 19.1483 166.809 19.3658 170.941 19.3658C171.485 19.5832 171.811 19.9095 172.572 20.2357Z" fill="black"/>
<path d="M53.3887 27.0894C53.3887 28.6117 53.4974 30.0254 53.4974 31.5478C53.4974 35.7887 53.4974 40.0296 53.4974 44.3793C53.4974 46.9891 53.6062 82.8737 53.7149 85.4835C53.7149 87.6583 54.0411 89.9419 54.1499 92.2255C54.2586 95.5965 54.4761 99.0762 54.5848 102.556C54.5848 103.643 54.2586 101.034 54.3673 102.23C54.3673 102.665 54.6936 102.991 55.0198 103.752C55.346 102.991 55.6722 102.665 55.6722 102.23C55.781 98.2063 55.9985 97.9888 55.8897 93.8566C55.8897 92.7692 54.8023 52.5349 54.8023 50.1426C54.8023 48.5114 54.9111 46.7716 54.9111 45.1404C54.8023 39.1597 54.8023 33.0701 54.8023 27.0894C54.2586 26.9806 53.9324 26.9806 53.3887 27.0894Z" fill="black"/>
<path d="M24.6855 104.299C25.4467 103.972 25.773 103.537 26.2079 103.537C27.2953 103.537 24.6855 103.864 25.8817 103.755C29.2527 103.646 32.7324 103.429 36.2121 103.32C38.387 103.211 40.6705 102.885 42.9541 102.885C45.5639 102.776 94.715 101.036 97.3248 101.036C101.566 101.036 105.807 101.036 110.156 100.928C112.114 100.928 113.962 100.819 115.92 100.819C122.227 100.71 128.425 100.819 134.732 100.601C142.779 100.275 150.934 100.166 158.981 100.384C159.742 100.493 160.395 100.384 161.156 100.384C161.374 100.384 161.591 100.384 161.917 100.384C165.288 100.493 168.55 100.384 171.813 100.384C172.9 100.384 173.988 100.058 175.184 99.949L174.857 93.9682C174.966 93.9682 174.966 93.8595 174.966 93.8595C174.966 93.4245 174.857 93.0983 174.857 92.6633C174.857 92.6633 174.857 92.6633 174.966 92.6633C174.966 92.5546 174.966 92.3371 174.966 92.2283V92.1196C175.075 89.5098 175.184 87.4437 175.075 85.2689C174.749 79.6143 174.314 73.9598 173.879 68.1965C173.444 61.0195 173.661 54.0601 173.009 46.9919C172.683 43.8384 172.791 28.2884 172.9 25.0261C173.009 24.2649 172.683 23.395 173.77 23.1775C174.423 23.0688 174.749 23.6125 174.857 25.0261C174.857 25.3524 174.857 25.6786 174.857 26.0048C175.075 29.9195 174.966 45.7957 175.184 49.7104C175.401 56.4524 175.619 63.1944 175.945 69.9363C176.054 72.9811 176.38 76.0259 176.597 79.0706C176.815 83.964 177.032 88.9661 177.141 93.9682C177.141 95.5993 177.032 97.3392 176.815 98.9703C176.706 100.601 175.727 101.471 174.205 101.58C171.052 101.689 167.789 102.124 164.636 102.015C163.657 101.906 162.678 101.906 161.809 101.906C161.591 101.906 161.374 101.906 161.047 101.798C152.239 101.471 143.431 101.471 134.514 101.689C128.207 101.798 122.009 101.798 115.702 102.015C109.286 102.124 102.871 102.233 96.4549 102.341C94.8238 102.341 93.0839 102.233 91.4528 102.233C89.0605 102.341 35.6684 104.951 34.4723 104.951C30.4488 105.06 30.2314 104.842 26.0992 104.842C25.8817 104.951 25.5555 104.625 24.6855 104.299Z" fill="black"/>
<path d="M81.2294 85.267C77.5322 82.5484 73.6175 79.6124 72.0951 75.3715C71.0077 72.3267 71.1165 68.847 71.6602 65.5848C72.0951 62.54 72.8563 59.604 73.835 56.668C74.0525 56.0155 74.3787 53.8407 75.2486 54.0582C76.0098 54.1669 76.1186 56.233 76.2273 56.7767C76.6623 63.0837 76.6623 68.9558 78.0759 75.0453C78.8371 78.525 79.9245 82.0047 81.2294 85.267Z" fill="#B9B7B7"/>
<path d="M92.7583 21.3242C92.6495 21.6504 92.6495 22.0854 92.4321 22.1941C90.366 24.2602 88.0824 26.2176 85.7988 28.2837C86.4513 26.2176 89.1698 23.499 92.7583 21.3242Z" fill="black"/>
<path d="M89.4927 20.8984C89.3839 21.2247 89.3839 21.6596 89.1664 21.7684C87.1003 23.8345 84.8168 25.7918 82.5332 27.8579C83.1857 25.9005 85.9042 23.182 89.4927 20.8984Z" fill="black"/>
<path d="M71.4442 71.991C71.2267 71.8823 70.683 71.6648 70.683 71.4473C69.1606 68.7288 67.747 66.0102 66.2246 63.0742C67.9645 64.1616 70.0306 67.8588 71.4442 71.991Z" fill="black"/>
<path d="M72.6376 68.7293C72.4201 68.6206 71.8764 68.4031 71.8764 68.1856C70.354 65.4671 68.9403 62.7485 67.418 59.8125C69.2666 60.8999 71.3327 64.4884 72.6376 68.7293Z" fill="black"/>
<path d="M39.6902 51.9866C37.0804 52.0954 34.7968 52.2041 32.622 52.3129C30.7734 49.7031 30.7734 49.7031 31.3171 42.6349C32.9482 42.1999 33.8181 42.7436 33.8181 44.4835C33.8181 46.0059 33.8181 47.5282 33.8181 49.0506C35.4493 49.7031 36.1017 49.4856 36.5367 47.7457C37.2979 44.266 38.494 43.3961 41.6475 43.5048C45.0185 43.6135 46.6496 45.0272 46.9759 48.1807C47.1933 50.138 48.0633 52.3129 45.3447 54.0527C45.1273 52.9653 44.6923 52.2041 44.6923 51.6604C44.4748 50.4643 44.5836 49.1594 44.4748 47.9632C44.1486 46.1146 42.6262 45.6796 41.2126 45.7884C39.364 45.8971 39.1465 47.3108 39.4727 48.7244C39.4727 49.7031 39.4727 50.573 39.6902 51.9866Z" fill="black"/>
<path d="M48.6048 35.3443C48.7135 34.6918 48.7135 34.2569 48.6048 33.6044C48.3873 32.517 47.9523 31.6471 47.0824 30.7771C46.6474 30.3422 46.3212 30.1247 45.8863 29.7985C45.4513 29.581 45.1251 29.3635 44.5814 29.2547C44.1464 29.0373 43.6027 28.9285 43.2765 28.9285C42.8415 28.8198 42.5153 28.8198 42.0803 28.9285L41.8628 28.8198C41.3191 28.8198 40.6667 28.8198 40.2317 28.6023C39.7967 28.711 39.688 28.711 39.3618 28.4936L35.5558 28.0586C35.3383 28.0586 35.0121 28.0586 34.5771 28.0586C34.1422 28.1673 33.9247 28.3848 33.5985 28.711C33.4897 28.8198 33.381 29.0373 33.1635 29.146L33.0548 29.2547C32.946 29.3635 32.7285 29.6897 32.6198 29.9072C32.2936 30.3422 32.1848 30.7771 31.9673 31.3208C31.6411 32.4083 31.6411 33.6044 31.8586 34.3656C31.9673 34.4743 31.9673 34.8006 31.9673 34.8006C32.0761 35.5618 32.2936 36.2142 32.6198 37.0841C32.946 37.6278 33.2722 38.0628 33.7072 38.389C33.8159 38.4978 33.9247 38.4978 34.1422 38.6065C34.5771 38.7153 34.9034 38.824 35.3383 38.9327L37.8394 39.259C39.5792 39.4764 41.4279 39.3677 42.9502 39.5852H43.1677C44.0376 39.6939 44.9076 39.5852 45.995 39.1502C46.5387 38.9327 46.9737 38.4978 47.4086 37.8453C47.7349 37.4104 47.8436 37.0841 48.0611 36.6492L48.1698 36.5404C48.2786 36.3229 48.496 35.888 48.6048 35.3443ZM46.1037 35.888C45.995 36.3229 45.7775 36.6492 45.56 36.8666C45.4513 37.0841 45.3425 37.1929 45.0163 37.3016C44.5814 37.5191 43.7114 37.6278 43.059 37.6278H42.5153C41.5366 37.5191 40.6667 37.5191 39.688 37.4104C39.253 37.3016 38.7093 37.3016 38.2743 37.1929H36.317C35.9908 37.1929 35.6646 37.0841 35.5558 36.9754C35.4471 36.8667 35.1208 36.5404 35.0121 36.4317C34.7946 35.9967 34.4684 35.453 34.4684 34.8006V34.5831C34.2509 33.6044 34.3597 33.0607 34.5771 32.517C34.6859 32.2995 34.7946 31.9733 35.0121 31.6471C35.1208 31.5383 35.2296 31.4296 35.3383 31.2121C35.4471 31.1034 35.5558 30.8859 35.6646 30.7771L35.7733 30.6684C35.7733 30.6684 35.882 30.7771 35.9908 30.6684L37.2957 30.7771C37.9481 30.8859 38.0569 30.7771 38.6006 30.8859C41.3191 31.1034 44.1464 31.4296 45.6688 32.7345C46.1037 33.1694 46.5387 33.7131 46.5387 34.2569C46.43 34.5831 46.43 35.1268 46.1037 35.888Z" fill="black"/>
<path d="M142.344 36.4391C141.909 33.7205 141.692 31.2195 141.365 29.0447C143.975 26.8698 143.975 26.8698 151.587 26.6523C152.131 28.2835 151.696 29.2621 149.956 29.4796C148.325 29.5884 146.694 29.8058 145.063 29.9146C144.519 31.6544 144.845 32.4156 146.585 32.6331C150.282 33.0681 151.37 34.2642 151.587 37.6352C151.805 41.2237 150.5 43.0723 147.129 43.7247C145.063 44.051 142.779 45.2471 140.713 42.6373C141.8 42.3111 142.561 41.8761 143.214 41.7674C144.41 41.5499 145.824 41.4412 147.02 41.2237C148.869 40.68 149.303 39.1576 149.086 37.6352C148.76 35.7866 147.346 35.5691 145.824 36.0041C144.736 35.8954 143.866 36.0041 142.344 36.4391Z" fill="black"/>
<path d="M160.938 44.2717C161.59 44.3804 162.134 44.2717 162.786 44.1629C163.874 43.8367 164.744 43.293 165.722 42.3143C166.157 41.8794 166.375 41.4444 166.592 40.9007C166.701 40.4657 166.918 40.0308 167.027 39.4871C167.136 39.0521 167.245 38.3996 167.353 37.9647C167.353 37.5297 167.462 37.0947 167.353 36.6598L167.245 36.551C167.245 36.0073 167.245 35.2461 167.245 34.7024C167.136 34.2675 167.027 34.05 167.245 33.7238L167.353 29.7003C167.353 29.4828 167.353 29.1566 167.245 28.7217C167.136 28.2867 166.81 28.0692 166.375 27.743C166.266 27.6342 165.94 27.5255 165.831 27.308H165.722C165.614 27.1993 165.287 26.9818 164.961 26.9818C164.526 26.6556 163.982 26.5468 163.439 26.3293C162.134 26.0031 160.938 26.2206 160.177 26.5468C160.068 26.6556 159.742 26.6556 159.742 26.7643C158.98 26.9818 158.219 27.1993 157.349 27.743C156.806 28.178 156.371 28.6129 156.044 29.0479C155.936 29.2654 155.936 29.3741 155.936 29.4828C155.827 29.9178 155.827 30.3528 155.718 30.7877L155.609 33.5063C155.609 35.4636 155.827 37.3122 155.827 38.9434V39.1608C155.827 40.1395 155.936 41.0094 156.588 42.0969C156.806 42.6406 157.458 43.0755 158.002 43.5105C158.437 43.8367 158.872 43.8367 159.307 44.0542L159.524 44.1629C159.85 43.9455 160.285 44.1629 160.938 44.2717ZM160.068 41.6619C159.633 41.5531 159.307 41.3357 158.98 41.2269C158.654 41.1182 158.545 41.0094 158.545 40.6832C158.219 40.2482 158.11 39.2696 158.11 38.6171V38.0734C158.11 37.0947 158.11 36.1161 158.002 35.1374C158.11 34.5937 158.002 34.1587 158.002 33.5063L157.893 31.4402C157.893 31.114 158.002 30.7877 158.002 30.5703C158.11 30.3528 158.437 30.1353 158.545 29.9178C158.98 29.5916 159.524 29.2654 160.285 29.0479H160.503C161.481 28.8304 162.134 28.7217 162.678 28.9391C163.004 29.0479 163.33 29.1566 163.656 29.3741C163.874 29.4828 163.874 29.5916 164.2 29.7003C164.417 29.8091 164.635 29.9178 164.635 30.0266H164.744C164.744 30.0266 164.744 30.1353 164.744 30.244V31.5489C164.744 32.3101 164.852 32.3101 164.744 32.8538C164.744 35.7898 164.635 38.8346 163.439 40.5745C163.004 41.1182 162.46 41.4444 161.916 41.6619C161.373 41.9881 160.938 41.8794 160.068 41.6619Z" fill="black"/>
<path d="M133.318 53.8308C133.101 55.462 132.557 57.2018 132.122 58.8329V58.9417C132.013 59.1592 132.013 59.3766 132.013 59.5941V59.7029C131.469 61.8777 131.143 61.1165 130.6 61.8777C130.382 62.2039 130.491 62.9651 130.056 63.0738C129.512 63.2913 129.077 63.0738 128.533 62.7476C127.881 62.4214 127.555 61.769 127.011 61.334C126.794 61.1165 126.359 60.899 126.032 60.7903C125.706 60.6815 125.38 60.7903 125.054 61.0078C124.836 61.2252 124.728 61.4427 124.728 61.7689C124.728 61.8777 124.728 61.9864 124.619 62.2039C124.619 63.5088 124.401 64.705 124.293 65.9011C124.184 66.3361 124.184 66.7711 124.184 67.206C124.184 67.641 124.075 67.9672 124.184 68.4022C123.966 70.9032 123.858 73.6218 123.858 76.2316C123.858 77.2102 123.966 78.0802 124.184 79.0588C124.184 79.1676 124.184 79.3851 124.293 79.6025C124.293 79.7113 124.293 79.7113 124.293 79.82C124.401 80.255 124.51 80.7987 124.619 81.3424C124.728 81.6686 124.836 81.9949 124.836 82.3211C124.945 82.4298 124.945 82.6473 125.054 82.8648C125.162 83.2998 125.38 83.626 125.597 83.9522C126.032 84.6046 126.467 85.3658 126.576 86.2358C126.685 86.7795 126.032 86.0183 125.924 86.562C125.924 86.6707 125.924 86.7795 125.924 86.997C125.924 87.6494 126.141 88.6281 126.25 89.7155C126.141 89.8242 126.032 89.933 125.924 89.933C125.706 90.0417 125.489 90.1505 125.271 90.2592C124.293 90.8029 123.205 91.3466 122.118 91.8903C121.357 92.1078 120.704 92.2166 119.943 92.3253C118.094 92.6515 116.137 92.9777 114.18 93.1952C112.005 93.4127 109.612 93.5214 107.438 93.6302C105.807 93.6302 104.393 93.7389 102.762 93.6302C102.001 93.6302 101.239 93.6302 100.478 93.5215C97.6509 93.4127 94.9324 93.0865 92.1051 92.434C88.7341 91.6728 85.4719 90.368 82.5358 88.5193C82.4271 88.4106 82.4271 88.4106 82.3184 88.4106L82.2096 88.3019C82.2096 87.5407 82.2096 86.997 82.3184 86.2358C82.4271 85.4746 82.4271 84.8221 82.5358 84.0609C82.8621 81.7774 84.0582 79.7113 84.7107 77.5365C84.9282 76.6665 85.1456 75.7966 85.2544 74.9267C85.3631 74.4917 85.3631 74.1655 85.5806 73.7305C85.6893 73.4043 85.7981 73.0781 85.9068 72.7518C86.233 71.9906 86.5593 71.1207 86.8855 70.2508C86.9942 70.142 86.9942 69.8158 86.9942 69.7071C87.103 69.2721 87.103 68.8371 87.103 68.4022C87.103 68.2934 87.103 68.2934 87.103 68.1847V68.076C87.4292 68.1847 87.5379 67.8585 87.5379 67.641C87.5379 67.641 87.4292 67.641 87.4292 67.5322C87.3205 67.4235 87.103 67.4235 86.9942 67.3148V67.206C86.4505 65.6836 84.8194 64.5962 83.5145 63.5088C83.0795 62.7476 82.3184 61.9864 81.7746 61.1165C81.8834 61.0078 81.8834 61.0078 82.2096 60.899C82.3184 60.7903 82.3184 60.899 82.4271 60.7903C82.4271 60.6815 82.4271 60.6815 82.3184 60.6815C82.1009 60.1378 81.7746 59.7029 81.5572 59.1592C81.0135 58.1805 80.361 57.2018 79.8173 56.2231C79.4911 55.6794 79.3823 55.1357 79.4911 54.592C79.4911 54.4833 79.4911 54.3745 79.5998 54.2658C79.7086 53.2871 79.926 52.3084 80.1435 51.3298C80.2523 50.6773 80.4697 50.0249 80.6872 49.3724C80.4697 49.2637 80.1435 49.2637 79.8173 49.2637C79.7086 49.2637 79.3823 49.2637 79.3823 49.1549C79.2736 49.0462 79.2736 49.0462 79.3823 48.9375C79.3823 48.8287 79.3823 48.8287 79.4911 48.8287C80.361 47.3063 81.4484 45.8927 82.8621 44.6965C83.6233 44.0441 84.3844 43.3917 85.1456 42.7392C85.2544 42.6305 85.2544 42.6305 85.2544 42.5217C85.2544 42.5217 85.1456 42.5217 85.1456 42.413C85.0369 42.3042 84.9282 42.3042 84.7107 42.3042C84.8194 42.1955 84.8194 42.1955 84.8194 42.1955C85.2544 41.8693 85.4719 41.543 85.9068 41.2168C86.233 40.9993 86.5593 40.7819 86.8855 40.6731C86.9942 40.6731 86.9942 40.6731 86.9942 40.5644C87.103 40.4556 87.2117 40.4556 87.4292 40.3469C87.8642 40.1294 88.0817 40.0207 88.5166 39.8032C90.039 39.1507 91.5614 38.607 93.1925 38.1721C93.1925 38.1721 93.1925 38.1721 93.3012 38.1721C93.41 38.1721 93.41 38.1721 93.41 38.1721C94.2799 37.9546 95.0411 37.7371 95.911 37.5196C95.911 37.5196 95.911 37.5196 96.0198 37.5196C96.5635 37.3021 97.2159 37.3021 97.7596 37.0846H97.8684C99.282 36.7584 100.804 36.4322 102.327 36.106C102.653 35.9972 102.979 35.9972 103.305 35.8885C104.502 35.671 105.807 35.4535 107.003 35.236C111.135 34.6923 115.376 34.6923 119.399 35.7797C119.508 35.7797 119.508 35.7798 119.508 35.8885C119.834 35.9972 120.16 35.9972 120.487 36.2147C120.595 36.3235 120.813 36.3235 120.922 36.3235C121.357 36.4322 121.683 36.6497 122.009 36.7584C122.77 37.0846 123.64 37.4109 124.293 37.8458C124.293 37.8458 124.401 37.8458 124.401 37.9546C124.51 38.0633 124.728 38.1721 124.836 38.2808C126.359 39.3682 127.664 40.1294 128.968 41.543C129.403 42.0868 130.056 42.3042 130.491 42.8479C130.926 43.2829 131.469 43.6091 131.796 44.2616C132.013 44.6965 131.578 44.6965 131.687 45.1315C131.904 46.1102 132.774 47.3063 132.992 48.0675C133.318 49.8074 133.536 51.8735 133.318 53.8308Z" fill="white"/>
<path d="M94.9323 38.7266C93.9536 44.0549 94.2798 49.7094 95.9109 54.929C96.3459 56.3427 96.8896 57.6476 96.9984 59.0612C97.2158 61.0186 96.5634 63.0846 95.5847 64.9332C94.9323 66.0207 94.1711 66.9993 93.0837 67.7605C92.105 68.413 90.6914 68.7392 89.4952 68.3042C88.9515 68.1955 88.4078 67.6518 88.6253 67.1081C89.8214 67.2168 91.1263 66.9993 92.2137 66.3469C93.7361 65.2595 94.2798 63.4109 94.2798 61.5623C94.2798 59.7137 93.6274 58.0825 93.0837 56.3427C92.54 54.7116 91.8875 52.9717 91.7788 51.2318C91.5613 47.6434 93.6274 44.4899 94.4973 41.0101L94.9323 38.7266Z" fill="#B9B7B7"/>
<path d="M116.03 63.7344C116.791 63.7344 117.552 64.0606 118.204 64.3868C118.639 64.6043 119.074 64.8218 119.183 65.3655C119.292 65.8005 118.966 66.3442 118.531 66.5617C117.552 67.3228 116.247 67.4316 115.268 68.1928C114.833 68.6277 114.181 70.9113 113.746 71.455C111.789 73.8473 106.895 69.2802 107.548 66.2354C107.765 65.0393 109.94 65.4742 111.136 65.2568C112.115 65.0393 112.876 65.0393 113.746 64.6043C114.616 64.2781 115.268 63.8431 116.03 63.7344Z" fill="#B9B7B7"/>
<path d="M125.811 59.9281C125.593 60.4718 125.049 61.0155 124.506 60.9068C123.745 60.798 123.31 60.0368 123.201 59.0581C122.875 56.8833 123.962 54.7085 124.288 52.6424C124.941 47.5316 121.461 42.7469 121.461 37.5273C124.397 42.6382 125.593 48.7277 125.919 54.5997C125.919 56.1221 126.354 58.4057 125.811 59.9281Z" fill="#B9B7B7"/>
<path d="M125.27 82.6525C125.161 82.7613 124.835 82.7613 124.618 82.87C123.422 83.0875 122.225 83.1962 121.029 83.305C119.289 83.5225 117.55 83.74 115.701 83.6312C114.07 83.6312 112.439 83.305 110.808 83.0875C105.153 82.5438 99.281 83.6312 94.0614 81.3476C92.104 80.4777 90.4729 79.2816 88.4068 78.6291C87.4282 78.3029 86.3407 78.0854 85.3621 77.5417C85.2533 77.4329 84.9271 77.3242 84.8184 77.1067C85.0358 76.2368 85.2533 75.3669 85.3621 74.4969C85.4708 74.062 85.4708 73.7357 85.6883 73.3008C85.797 73.3008 86.0145 73.3008 86.1233 73.4095C87.2107 73.8445 88.2981 75.2581 89.2768 76.0193C91.6691 77.7592 94.4963 78.8466 97.3236 79.7165C101.021 80.9127 104.827 81.6739 108.633 81.1302C110.046 80.9127 111.46 80.4777 112.874 80.5865C113.852 80.6952 114.831 80.9127 115.701 81.0214C117.876 81.2389 120.268 80.8039 122.334 79.934C122.987 79.7165 123.53 79.3903 124.183 79.2816C124.291 79.8253 124.4 80.369 124.509 81.0214C124.944 81.6739 125.053 82.2176 125.27 82.6525Z" fill="#B9B7B7"/>
<path d="M107.11 72.7506C107.437 73.6206 107.871 74.5992 108.415 75.2517C109.068 75.9041 110.155 76.4479 111.025 76.0129C111.134 76.0129 111.134 75.9041 111.134 75.9041C111.134 75.7954 111.134 75.7954 111.134 75.6867C110.916 74.8167 110.699 74.0555 110.481 73.2944C110.373 72.9681 110.264 72.5332 110.155 72.3157C109.611 71.337 108.633 71.1195 107.763 70.4671C107.328 70.1408 105.044 66.8786 104.392 67.7485C104.174 67.966 106.784 71.9895 107.11 72.7506Z" fill="#B9B7B7"/>
<path d="M105.479 86.1296C105.37 86.0209 105.479 85.6947 105.587 85.6947C105.696 85.5859 105.914 85.5859 106.131 85.5859C106.457 85.5859 106.784 85.5859 107.001 85.8034C107.11 85.9122 107.11 85.9122 107.218 86.1296C107.436 86.4559 107.545 86.7821 107.653 87.2171C107.762 87.4345 107.871 87.7608 107.653 87.9783C107.545 88.087 107.219 88.1957 107.001 88.1957C106.566 88.1957 106.131 88.3045 105.805 88.087C105.37 87.7608 105.479 87.1083 105.479 86.6734V86.1296Z" fill="#B9B7B7"/>
<path d="M86.3438 73.4146L86.0176 72.1097L86.8875 70.1523L90.1498 70.8048L96.8917 73.9583L102.111 75.6982L110.158 76.2419H111.246L112.442 79.6128L112.877 80.9177L107.657 81.0265L102.546 80.9177L94.9344 78.7429L90.1498 76.6768L87.8662 75.3719L86.67 73.8496L86.3438 73.4146Z" fill="#F15748"/>
<path d="M121.354 74.9311L124.073 74.4961L124.29 78.302L122.876 80.3681L118.418 81.2381L120.158 78.0846L120.702 75.6922L121.354 74.9311Z" fill="#E7443B"/>
<path d="M115.811 67.9775C115.702 68.0863 115.702 68.0863 115.593 68.195C115.485 68.3038 115.376 68.4125 115.267 68.63C115.376 69.065 115.485 69.6087 115.593 70.0436C115.702 70.8048 115.702 71.6747 115.702 72.3272C115.593 73.0884 115.376 73.7408 115.376 74.6108C115.485 74.502 115.702 74.3933 115.702 74.2845C115.92 73.6321 116.246 73.0884 116.355 72.4359C116.355 71.0223 116.137 69.4999 115.811 67.9775ZM124.945 61.7793C124.945 61.453 124.945 61.0181 124.945 60.8006V60.6919C124.945 60.4744 124.728 60.2569 124.51 60.2569C124.402 60.3656 124.402 60.5831 124.293 60.6919C124.075 61.0181 123.967 61.453 123.749 61.7793C123.532 62.6492 122.879 63.1929 122.227 63.6279C121.574 64.0628 120.922 64.1716 120.269 64.0628C118.856 63.8454 117.551 63.3017 116.355 62.4317C116.137 62.323 115.92 61.9968 115.702 61.7793C116.137 61.5618 116.463 61.453 116.79 61.2356C117.116 61.0181 117.442 60.6919 117.66 60.3656C117.986 60.0394 118.312 59.6044 118.638 59.2782C119.399 58.2996 120.269 57.3209 120.487 56.1247C120.596 55.3635 120.704 54.6023 120.161 53.9499C119.617 53.2974 119.073 52.9712 118.312 52.8625C117.768 52.7537 117.333 52.9712 116.681 52.9712C116.028 52.9712 115.376 52.9712 114.724 52.9712C114.071 53.08 113.527 53.2974 112.875 53.5149C112.766 53.5149 112.549 53.6237 112.44 53.7324C111.788 54.2761 110.918 54.7111 110.591 55.6898C111.244 57.7558 111.57 58.0821 113.092 59.9307C113.527 60.4744 113.962 61.0181 114.397 61.5618C113.527 63.1929 112.331 64.2803 110.483 64.6066C108.308 65.0415 106.133 64.824 103.958 64.0628C103.306 63.8454 101.783 62.2142 101.131 62.323C101.131 62.9754 102.436 65.0415 102.653 65.4765C102.871 65.694 102.979 65.9114 103.197 66.1289C103.523 66.6726 103.958 67.2163 104.393 67.6513C104.828 68.0863 105.263 68.63 105.698 69.065C106.459 69.8261 107.329 70.5873 107.873 71.3485C108.308 71.8922 108.743 72.2185 109.395 72.3272C110.048 72.4359 110.156 72.5447 110.156 73.1971C110.374 74.1758 110.483 75.1545 110.7 76.1331V76.2419C110.918 77.0031 111.026 77.873 111.135 78.7429C111.353 79.6129 111.679 80.2653 112.331 80.809C112.44 80.9178 112.44 80.9178 112.549 80.9178L112.657 81.0265C112.984 81.244 113.31 81.4615 113.636 81.679C114.289 82.1139 115.05 82.3314 115.702 82.3314C116.572 82.4401 117.333 82.0052 117.986 81.7877C118.095 81.679 118.203 81.4615 118.312 81.3527C118.312 81.3527 118.312 81.3527 118.421 81.244C118.529 81.1352 118.638 80.9178 118.856 80.809C119.726 79.8303 120.596 78.8517 120.704 77.5468C120.704 77.438 120.813 77.438 120.813 77.438C120.922 76.7856 121.031 76.1331 121.139 75.372C121.9 75.1545 122.77 74.937 123.423 74.7195C123.532 74.8282 123.532 74.8282 123.532 74.8282C123.64 75.8069 123.858 77.0031 123.858 77.9817C123.858 78.8517 123.205 79.9391 122.009 80.0478C121.466 80.0478 120.922 80.2653 120.269 80.4828C120.378 80.5915 120.487 80.809 120.704 80.809H120.813C120.922 80.809 121.031 80.809 121.248 80.809C121.683 80.7003 122.009 80.7003 122.335 80.5915C123.097 80.4828 123.64 80.0478 123.967 79.6129C124.075 79.5041 124.293 79.1779 124.402 78.9604C124.51 78.6342 124.619 78.1992 124.619 77.7643C124.619 76.7856 124.51 75.9157 124.402 75.0457C124.184 74.0671 124.184 73.3059 124.402 72.4359C124.619 71.3485 124.619 70.1524 124.619 69.065C124.619 68.5212 124.728 67.9775 125.271 67.8688C125.271 67.6513 125.271 67.3251 125.271 67.1076C125.163 65.259 125.054 63.5191 124.945 61.7793ZM121.248 65.259C121.357 65.259 121.357 65.259 121.357 65.259C121.357 65.3677 121.357 65.4765 121.357 65.5852H121.248C121.248 65.3677 121.248 65.3677 121.248 65.259ZM120.922 71.6747C121.031 72.2185 120.922 72.7622 120.922 73.3059C120.813 73.9583 120.704 74.6108 120.704 75.2632C120.596 76.1331 120.378 76.8943 120.161 77.7643C119.834 78.9604 119.182 79.9391 118.203 80.7003C117.768 81.1352 117.116 81.4615 116.355 81.244C116.028 81.1352 115.702 81.1353 115.376 81.1353C114.941 81.0265 114.506 80.809 114.289 80.3741C115.05 79.5041 115.702 78.6342 116.463 77.7643C116.463 77.6555 116.355 77.6555 116.355 77.6555C115.376 78.4167 114.506 79.0692 113.419 79.8304C113.092 79.2866 112.766 78.8517 112.549 78.4167C112.331 77.7643 112.114 77.1118 111.896 76.3506C111.788 75.6982 111.679 75.1545 111.57 74.502C111.353 73.6321 111.244 72.6534 111.026 71.7835C111.026 71.6747 111.026 71.6747 111.026 71.6747C111.026 71.566 111.135 71.3485 111.135 71.2398C111.57 70.8048 112.005 70.2611 112.549 69.6087C111.679 69.9349 111.461 70.5873 110.809 70.9136C110.7 70.8048 110.591 70.5873 110.591 70.4786C110.591 70.3698 110.7 70.1524 110.7 70.0436C111.135 69.6087 111.57 69.2824 111.896 68.9562C112.005 68.8475 112.114 68.7387 112.222 68.5212C111.461 68.7387 111.026 69.4999 110.265 69.9349C109.721 68.9562 109.069 67.9775 108.525 66.9989C108.634 66.6726 108.743 66.2377 108.96 65.9114C109.395 65.8027 109.83 65.694 110.265 65.694C110.591 65.5852 110.918 65.5852 111.244 65.4765C111.896 65.259 112.44 65.4765 113.092 65.4765C113.31 66.0202 113.745 65.694 114.071 65.5852C114.506 66.2377 114.615 66.9989 114.724 67.7601C114.832 68.0863 114.941 68.4125 114.941 68.7387C115.05 69.1737 115.159 69.7174 115.267 70.1524C115.376 70.9136 115.376 71.7835 115.376 72.4359C115.267 73.1971 115.05 73.8496 115.05 74.7195C115.159 74.6108 115.376 74.502 115.376 74.3933C115.593 73.7408 115.92 73.1971 116.028 72.5447C116.355 71.0223 116.137 69.4999 115.811 67.9775C115.811 67.8688 115.702 67.7601 115.702 67.5426C115.485 66.8901 115.376 66.2377 115.159 65.694C115.702 65.3677 116.246 65.259 116.79 65.4765C116.79 64.824 116.79 64.824 116.246 64.6066C116.463 64.3891 116.681 64.1716 116.898 64.0628C117.333 64.2803 117.877 64.4978 118.421 64.7153C118.529 64.7153 118.638 64.824 118.638 64.9328C118.856 65.259 118.856 65.694 119.073 65.9114C119.399 66.7814 119.834 67.7601 120.052 68.63C120.596 69.6087 120.704 70.6961 120.922 71.6747ZM108.96 70.6961H108.852C108.852 70.5873 108.96 70.4786 108.96 70.2611C109.069 70.2611 109.069 70.2611 109.069 70.2611C108.96 70.3698 108.96 70.5873 108.96 70.6961ZM114.941 61.0181C115.159 61.1268 115.376 61.1268 115.702 61.1268C115.267 61.4531 115.159 61.3443 114.941 61.0181ZM124.51 67.2163C124.184 67.4338 124.075 67.6513 124.184 67.9775C124.293 68.7387 124.293 69.3912 124.184 70.1524C124.184 70.5873 124.075 71.2398 124.075 71.6747C123.967 72.1097 123.967 72.6534 123.967 73.1971C123.967 73.4146 123.967 73.6321 123.967 73.9583C122.988 74.3933 122.118 74.6108 121.466 74.6108C121.466 74.3933 121.466 74.1758 121.574 73.8496C121.792 72.6534 121.792 71.4573 121.683 70.1524C121.683 70.0436 121.683 69.7174 121.574 69.6087C121.139 68.3038 121.683 67.1076 122.009 66.0202C122.118 65.8027 122.227 65.5852 122.335 65.259C122.444 64.7153 122.662 64.2803 123.205 64.0628C123.532 63.8454 123.749 63.4104 123.967 62.9754C124.075 62.758 124.184 62.4317 124.51 62.2142C124.51 62.9754 124.51 63.8454 124.619 64.7153C124.619 65.1503 124.619 65.5852 124.728 66.0202C124.728 66.4552 124.836 66.7814 124.836 67.2163C124.619 67.1076 124.51 67.2163 124.51 67.2163Z" fill="black" stroke="black" stroke-width="0.3872" stroke-miterlimit="10"/>
<path d="M108.087 87.1152C107.978 87.224 107.869 87.3327 107.76 87.3327C107.76 87.4415 107.869 87.5502 107.869 87.6589C107.978 87.5502 108.087 87.4415 108.304 87.224C108.087 87.224 108.087 87.224 108.087 87.1152ZM107.434 86.4628C107.543 86.5715 107.543 86.5715 107.543 86.6803C107.652 86.5715 107.978 86.4628 108.087 86.2453C107.76 86.2453 107.652 86.2453 107.434 86.4628ZM118.2 35.2456C117.656 35.1368 117.003 35.0281 116.351 34.9193C115.59 34.8106 114.829 34.5931 114.067 34.4844C112.11 34.4844 110.262 34.4844 108.304 34.4844C108.195 34.4844 107.978 34.4844 107.869 34.5931C107.434 34.8106 106.891 34.9193 106.456 35.0281C105.694 35.1368 104.824 35.0281 103.955 35.1368C103.737 35.1368 103.411 35.1368 103.193 35.1368C101.671 35.4631 100.149 35.7893 98.6262 36.0068C97.5388 36.2242 96.5601 36.6592 95.6902 37.3117C95.2552 37.6379 94.7115 37.9641 94.7115 38.6166C94.7115 38.7253 94.6028 38.7253 94.6028 38.834C94.0591 39.4865 93.7328 40.2477 93.5153 41.0089C93.2979 41.6613 93.0804 42.3138 92.7542 42.9662C92.6454 43.2924 92.4279 43.7274 92.4279 44.0536C92.1017 45.3585 91.7755 46.7722 91.4493 48.0771C91.3405 48.6208 91.123 48.947 90.4706 49.1645C90.0356 49.2732 89.7094 49.5994 89.2744 49.8169C89.1657 49.9257 89.1657 49.9257 89.057 50.1431C89.9269 50.2519 90.3618 49.382 91.2318 49.2732C91.123 49.7082 91.123 50.1431 91.0143 50.4694C90.9056 50.7956 90.9056 51.0131 91.2318 51.3393C91.4493 51.6655 91.4493 51.883 91.4493 52.2092C91.6667 53.0792 91.7755 53.9491 91.993 54.7103C92.5367 56.2327 93.0804 57.6463 93.7328 59.1687C93.9503 59.8211 94.1678 60.4736 94.3853 61.0173C94.3853 61.126 94.494 61.3435 94.494 61.561C94.494 61.6697 94.494 61.6697 94.494 61.8872C94.6028 63.4096 94.0591 64.8232 93.2979 66.0194C92.7542 66.7806 92.1017 67.1068 91.2318 66.9981H91.123C91.0143 66.9981 91.0143 66.9981 90.7968 66.9981C90.0356 66.8893 89.4919 66.7806 88.8395 66.6718C88.4045 66.5631 88.0783 66.4544 87.752 66.2369C86.9909 65.6932 86.3384 65.1495 85.5772 64.6058C84.4898 63.9533 83.8374 62.8659 82.9674 61.7785C83.5111 61.0173 83.5111 60.9086 82.9674 60.2561C82.4237 59.3862 81.88 58.5162 81.3363 57.6463C81.1188 57.2113 80.9013 56.8851 80.7926 56.4502C80.0314 55.689 79.9227 54.7103 80.1401 53.7316C80.2489 53.0792 80.4664 52.4267 80.6839 51.7743C80.9013 50.9043 81.1188 50.0344 81.4451 49.1645C81.5538 48.8382 81.5538 48.512 81.4451 48.1858C81.1188 48.0771 80.6839 48.0771 80.2489 48.1858C81.0101 47.4246 81.6625 46.7722 82.2062 46.011L82.0975 45.9022C82.2062 45.6847 82.4237 45.4673 82.7499 45.2498V45.4673C84.1636 44.2711 86.2297 42.205 86.5559 41.5526C86.4472 41.4438 86.2297 41.1176 86.1209 41.0089C86.3384 40.7914 86.6646 40.5739 86.9909 40.2477C87.0996 40.2477 87.0996 40.2477 87.0996 40.1389C87.2083 40.0302 87.3171 40.0302 87.5346 39.9214C87.6433 39.9214 87.6433 39.9214 87.6433 39.8127C87.9695 39.704 88.2958 39.5952 88.622 39.5952C89.7094 39.269 90.7968 39.0515 91.8842 38.7253C92.6454 38.5078 93.2979 38.3991 94.0591 38.5078C94.1678 38.5078 94.3853 38.5078 94.7115 38.3991C94.2765 37.9641 93.8416 37.8554 93.4066 37.8554H93.2979C92.8629 37.8554 92.4279 38.0728 91.993 38.0728C91.123 38.2903 90.2531 38.6166 89.2744 38.5078C89.1657 38.5078 89.057 38.5078 88.9482 38.6166C87.6433 39.1603 86.4472 39.8127 85.251 40.3564C85.1423 40.4652 85.1423 40.4652 85.0335 40.5739L84.9248 40.6826C84.9248 40.6826 84.9248 40.6826 84.9248 40.7914C84.816 41.2263 84.4898 41.4438 84.1636 41.5526C84.0548 41.6613 83.9461 41.7701 83.7286 41.9875H83.8374C84.2723 42.0963 84.4898 41.8788 84.816 41.7701C84.9248 41.7701 84.9248 41.7701 84.9248 41.7701C85.0335 41.7701 85.1423 41.7701 85.251 41.8788L84.9248 41.9875C84.9248 42.0963 84.816 42.0963 84.816 42.0963C84.0548 42.7487 83.2937 43.4012 82.5325 44.0536C81.1188 45.2498 80.1402 46.7722 79.1615 48.1858C79.0527 48.2945 79.0527 48.4033 79.0527 48.512C79.0527 48.6208 79.0527 48.6208 79.0527 48.6208C79.1615 48.7295 79.2702 48.7295 79.4877 48.7295C79.8139 48.7295 80.0314 48.512 80.3576 48.8383C80.3576 48.947 80.3576 48.947 80.3576 48.947C80.1402 49.5994 80.0314 50.2519 79.8139 50.7956C79.5964 51.7743 79.4877 52.7529 79.2702 53.7316C79.2702 53.8404 79.1615 54.0578 79.1615 54.1666C79.1615 54.7103 79.1615 55.1452 79.4877 55.689C80.0314 56.6676 80.6839 57.6463 81.2276 58.625C81.445 59.1687 81.88 59.7124 82.0975 60.3648C81.9888 60.3648 81.9888 60.3648 81.88 60.4736C81.6625 60.5823 81.4451 60.5823 81.4451 60.6911C81.3363 60.7998 81.445 60.9085 81.5538 61.126C81.7713 61.561 82.0975 62.1047 82.4237 62.5397C83.2937 63.5183 84.0548 64.3883 84.9248 65.2582C85.5772 65.9107 86.3384 66.4544 86.8821 67.3243C86.8821 67.433 86.9909 67.433 87.0996 67.5418C86.9909 67.3243 86.8821 67.1068 86.8821 66.7806C86.9909 66.7806 86.9909 66.8893 87.0996 66.8893C87.0996 66.8893 87.0996 66.8893 87.2083 66.8893C87.3171 66.9981 87.5346 66.9981 87.6433 67.1068V67.2155C87.6433 67.5418 87.5346 67.6505 87.2083 67.6505C87.3171 67.6505 87.3171 67.7593 87.3171 67.7593C87.3171 67.868 87.3171 67.868 87.3171 67.9767C87.3171 68.1942 87.0996 68.4117 86.9909 68.7379C86.7734 69.0642 86.8821 69.1729 87.2083 69.2816H87.3171L87.2083 69.3904C86.9909 69.6079 86.6646 69.8253 86.5559 70.0428C86.1209 70.9128 85.686 71.8914 85.5772 72.8701C85.4685 74.3925 84.9248 75.8061 84.4898 77.2198C84.1636 77.981 83.8374 78.8509 83.6199 79.6121C83.0762 81.4607 82.5325 83.3093 81.9888 85.1579C81.9888 85.2666 81.88 85.2666 81.88 85.4841C81.88 85.5929 81.7713 85.8103 81.7713 85.9191C81.7713 86.2453 81.7713 86.6803 81.7713 87.0065C81.88 87.1152 82.2062 87.3327 82.2062 87.7677C82.2062 87.8764 82.2062 87.8764 82.2062 87.8764C82.315 87.9852 82.315 87.9852 82.4237 87.9852L82.5325 88.0939C82.6412 88.2026 82.6412 88.2026 82.7499 88.2026C82.8587 87.7677 82.8587 87.1152 82.9674 86.6803C82.9674 86.5715 82.9674 86.4628 82.9674 86.354C82.9674 86.2453 82.9674 85.9191 82.8587 85.9191C82.6412 85.4841 82.7499 85.1579 82.7499 84.9404C83.0762 83.853 83.2937 82.6568 83.7286 81.5694C84.1636 80.1558 84.4898 78.8509 85.0335 77.546V77.4372C85.3597 76.6761 85.5772 76.0236 85.7947 75.2624C85.9035 74.9362 85.9034 74.61 85.9034 74.175C86.1209 74.3925 86.2297 74.61 86.3384 74.7187C86.8821 75.4799 87.5346 76.1323 88.4045 76.4586C90.2531 77.3285 92.2105 78.0897 94.0591 78.7421C94.1678 78.8509 94.494 78.8509 94.6028 78.8509C96.8863 79.5033 99.2786 80.1558 101.671 80.8082C102.106 80.917 102.432 81.0257 102.976 81.1345C103.52 81.2432 104.063 81.3519 104.607 81.4607C105.368 81.5694 105.912 81.4607 106.673 81.5694C106.891 82.0044 106.999 82.4393 107.108 82.9831C107.108 83.2005 107.217 83.418 107.217 83.6355C106.782 83.853 106.347 83.9617 106.021 84.1792C105.042 84.9404 104.281 86.5715 104.824 88.2026C105.259 89.1813 106.021 89.725 107.108 90.0512C107.869 90.2687 108.739 90.3775 109.283 90.0512C110.588 89.5075 111.24 88.4201 111.349 87.0065C111.458 86.2453 111.24 85.5928 110.588 85.1579C110.044 84.7229 109.392 84.288 108.522 83.9617C108.413 83.9617 108.195 83.853 108.087 83.853C108.087 83.6355 108.087 83.418 108.195 83.2005C108.304 82.8743 108.413 82.4394 108.522 82.1131C108.739 81.5694 109.065 81.2432 109.718 81.2432C109.827 81.2432 110.044 81.2432 110.153 81.2432C110.262 81.2432 110.262 81.1345 110.37 81.0257C110.37 81.0257 110.37 81.0257 110.479 81.0257C110.588 81.0257 110.588 80.917 110.588 80.917C110.479 80.8082 110.262 80.8082 110.153 80.8082C109.718 80.6995 109.392 80.6995 108.957 80.6995C108.848 80.6995 108.848 80.6995 108.63 80.8082C108.195 80.917 107.869 80.917 107.543 81.0257C107.217 81.1345 106.999 80.917 106.891 80.5907C106.673 79.5033 106.347 78.4159 106.456 77.3285C106.456 76.7848 106.673 76.6761 107.217 76.7848C107.326 76.7848 107.543 76.8935 107.652 76.8935C108.413 76.8935 108.522 76.8935 108.63 77.6547C108.739 77.981 108.63 78.3072 108.63 78.6334C108.63 78.8509 108.63 79.1771 108.522 79.3946C108.63 79.2859 108.848 79.1771 108.848 78.9596C108.957 78.3072 109.065 77.6547 108.848 77.0023C108.739 76.5673 108.957 76.5673 109.283 76.5673C109.5 77.546 109.065 78.5247 109.392 79.6121C109.5 79.5033 109.609 79.2858 109.609 79.1771C109.718 78.4159 109.718 77.8722 109.827 77.111C109.827 76.8935 109.827 76.6761 109.827 76.5673V76.4586C109.718 76.1323 109.392 76.0236 108.957 76.0236C108.848 76.0236 108.848 76.0236 108.63 76.0236C107.869 75.9149 107.217 76.0236 106.456 76.0236C105.151 76.0236 103.955 76.0236 102.758 75.9149C102.65 75.9149 102.432 75.8061 102.215 75.8061C102.867 75.0449 103.737 74.61 104.281 73.74C103.846 73.74 103.628 74.0663 103.302 74.2837C102.867 74.61 102.432 75.0449 102.106 75.3712C101.671 75.6974 101.236 75.8061 100.801 75.5886C100.366 75.4799 99.9311 75.2624 99.4961 75.0449C98.3 74.5012 97.1038 73.9575 95.9077 73.4138C94.2765 72.6526 92.4279 71.8914 90.7968 71.0215V70.9128C90.6881 70.9128 90.6881 70.804 90.6881 70.804C89.7094 70.5865 88.7307 70.4778 87.752 70.0428C87.8608 69.1729 87.752 68.303 88.2958 67.5418C88.4045 67.5418 88.4045 67.6505 88.5132 67.6505C88.5132 67.6505 88.622 67.6505 88.622 67.7593C88.7307 67.868 88.9482 67.868 89.057 67.868C89.8181 68.1942 90.6881 68.303 91.4493 68.0855C91.558 67.9767 91.8842 67.868 91.993 67.868C92.6454 67.9767 92.9716 67.6505 93.2979 66.9981C93.4066 66.8893 93.6241 66.5631 93.7328 66.4544C94.929 65.0407 95.1465 63.4096 95.0377 61.561C95.0377 60.7998 94.7115 60.1474 94.494 59.3862C94.2765 58.4075 94.0591 57.5376 93.8416 56.6676C93.5154 55.3627 93.0804 53.9491 92.6454 52.5355C92.4279 51.883 92.2105 51.2306 91.8842 50.5781C91.7755 50.4694 91.7755 50.4694 91.7755 50.3606C91.7755 50.2519 91.7755 50.1431 91.7755 49.9257C91.7755 49.7082 91.8842 49.7082 91.8842 49.4907C91.993 48.947 92.1017 48.4033 92.2105 47.8596C92.3192 47.7508 92.3192 47.5333 92.3192 47.4246C92.4279 47.2071 92.4279 46.9896 92.4279 46.6634C92.9716 44.3798 93.5154 42.3138 94.3853 40.1389C94.3853 40.1389 94.3853 40.1389 94.3853 40.0302C94.494 39.9214 94.494 39.9214 94.494 39.8127C94.494 39.8127 94.494 39.8127 94.494 39.704C94.6028 39.5952 94.6028 39.5952 94.6028 39.4865C94.7115 39.3777 94.7115 39.0515 94.7115 38.9428C94.6028 38.5078 94.8202 38.3991 95.0377 38.1816C95.1465 38.1816 95.364 38.0728 95.4727 37.9641C95.9077 37.5291 96.5601 37.3117 97.1038 37.0942H97.2126C97.3213 36.9854 97.5388 36.9854 97.6475 36.8767C98.9524 36.6592 100.257 36.2242 101.562 36.1155C101.888 36.0068 102.215 36.0068 102.541 35.898C103.52 35.7893 104.498 35.898 105.586 35.7893C106.129 35.7893 106.564 35.6805 107.217 35.463C107.652 35.2456 108.087 35.2456 108.522 35.2456C109.283 35.2456 110.153 35.1368 110.914 35.1368C112.219 35.1368 113.741 35.0281 114.937 35.463C115.916 35.6805 116.786 35.7893 117.765 35.898C118.091 35.898 118.308 36.0068 118.635 35.6805C118.635 35.6805 118.743 35.6805 118.743 35.5718C118.743 35.463 118.852 35.463 118.852 35.463C118.852 35.3543 118.526 35.3543 118.2 35.2456ZM110.37 85.4841C111.131 86.0278 111.349 87.0065 111.023 87.8764C110.588 88.8551 109.5 89.5075 108.522 89.3988C108.087 89.3988 107.434 89.0726 106.782 88.7464C106.891 88.6376 107.108 88.4201 107.217 88.3114C107.434 88.0939 107.652 87.8764 107.869 87.7677C107.978 87.6589 108.087 87.5502 108.304 87.3327C108.195 87.224 108.195 87.224 108.195 87.224C108.087 87.3327 107.978 87.4415 107.869 87.4415C107.76 87.5502 107.543 87.6589 107.434 87.7677C107.217 87.9852 106.999 88.2026 106.782 88.4201L106.673 88.5289L106.564 88.4201C106.456 88.3114 106.347 88.2027 106.347 87.9852C106.782 87.5502 107.217 87.1152 107.652 86.789C107.76 86.6803 108.087 86.5715 108.195 86.354C107.978 86.2453 107.76 86.354 107.543 86.4628C107.434 86.5715 107.326 86.6803 107.108 86.6803C106.782 86.8977 106.456 87.1152 106.129 87.4415C105.912 86.6803 106.129 86.1366 106.456 85.5928C106.891 85.0491 107.434 84.7229 107.978 84.7229C108.957 84.6142 109.718 84.9404 110.37 85.4841ZM96.4514 73.8488C97.2126 74.175 97.865 74.5012 98.5175 74.8274C100.257 75.6974 101.997 76.1323 103.846 76.2411C104.498 76.3498 105.042 76.2411 105.694 76.3498C105.803 76.3498 105.912 76.4586 106.129 76.4586C105.803 77.8722 106.347 79.2859 106.564 80.5907C106.021 80.8082 105.477 80.8082 104.933 80.5907C104.063 80.1558 103.085 80.047 102.106 79.8296C101.127 79.6121 100.257 79.2858 99.2786 79.0684C98.6262 78.9596 97.9737 78.7421 97.3213 78.5247C94.929 78.0897 92.6454 77.111 90.4706 76.2411C90.0356 76.0236 89.4919 75.8061 89.057 75.5886C88.622 75.3712 88.5132 74.9362 88.5132 74.5012C88.622 73.6313 88.8395 72.7614 88.9482 71.8914C88.9482 71.5652 88.9482 71.3477 89.057 71.0215C88.9482 71.0215 88.9482 71.0215 88.8395 71.0215C88.5132 72.3264 88.622 73.6313 88.187 74.9362C88.0783 74.8275 87.9695 74.8274 87.9695 74.8274C87.9695 73.5225 88.0783 72.1089 88.0783 70.6953C88.7307 70.5865 89.1657 70.6953 89.7094 70.9128C90.2531 71.0215 90.7968 71.3477 91.3405 71.5652C93.1891 72.3264 94.8202 73.0876 96.4514 73.8488ZM86.8821 71.5652C86.9909 71.239 87.0996 70.9128 87.2083 70.5865C87.3171 70.2603 87.6433 70.369 87.8608 70.4778C87.7521 71.7827 87.8608 73.0876 87.5346 74.5012C86.7734 73.5226 86.5559 72.5439 86.8821 71.5652ZM108.413 81.6782C108.304 82.0044 108.195 82.3306 107.978 82.7656C107.76 82.3306 107.76 82.1131 107.652 81.7869C107.978 81.6782 108.087 81.5694 108.413 81.5694C108.304 81.5694 108.413 81.6782 108.413 81.6782Z" fill="black" stroke="black" stroke-width="0.3872" stroke-miterlimit="10"/>
<path d="M133.641 51.8815C133.641 51.3378 133.641 50.7941 133.533 50.2504C133.533 49.7067 133.424 49.2717 133.315 48.6193C133.098 47.6406 132.989 46.7707 132.337 45.9007C132.119 45.4658 131.902 45.0308 131.684 44.5959C132.01 44.3784 132.445 44.4871 132.554 43.9434C132.119 43.6172 131.684 43.291 131.249 42.856C129.727 41.4424 128.096 40.1375 126.573 38.7238C126.464 38.6151 126.356 38.5063 126.247 38.3976C125.16 37.3102 123.855 36.549 122.659 35.8965C122.332 35.7878 121.897 35.6791 121.571 35.5703C121.245 35.5703 121.027 35.5703 120.81 35.7878C120.701 35.8965 120.701 35.8965 120.701 36.0053C120.81 36.0053 121.136 36.0053 121.354 36.0053C121.136 36.6577 121.245 37.0927 121.571 37.6364C121.897 37.9626 122.115 38.3976 122.332 38.7238C122.55 39.1588 122.659 39.7025 122.876 40.0287C123.093 40.4637 123.311 40.7899 123.42 41.2249C123.746 42.0948 124.072 42.856 124.29 43.8347C124.29 43.9434 124.398 44.0521 124.398 44.1609C125.051 47.2056 125.595 50.2504 125.595 53.4039C125.595 54.1651 125.595 54.7088 125.377 55.3613C125.268 55.47 125.268 55.7962 125.268 55.905C125.268 56.3399 125.268 56.8836 125.377 57.3186C125.486 57.8623 125.486 58.2973 125.703 58.9497C125.812 59.2759 125.921 59.4934 125.921 59.8197C125.921 60.1459 126.138 60.3634 126.356 60.5808C126.899 61.4508 127.769 62.1032 128.748 62.6469C128.966 62.7557 129.4 62.9732 129.618 62.9732C130.379 63.0819 130.597 62.9732 130.705 62.3207C130.705 62.212 130.814 61.9945 130.814 61.8857C131.032 61.777 131.358 61.6683 131.684 61.6683C131.793 61.2333 131.902 60.6896 132.01 60.2546C132.01 59.9284 132.119 59.6022 132.119 59.3847V59.2759C132.228 59.0585 132.228 58.841 132.228 58.6235V58.5148C132.337 57.8623 132.554 57.3186 132.88 56.6662C132.989 56.3399 133.098 56.0137 133.206 55.7962C133.315 55.3612 133.533 54.7088 133.641 54.2738C133.75 53.8389 133.75 53.5127 133.75 53.1864C133.75 52.9689 133.641 52.534 133.641 51.8815ZM131.467 60.3634C131.467 60.4721 131.467 60.4721 131.358 60.6896C131.249 61.2333 131.14 61.2333 130.597 61.342C130.488 61.342 130.488 61.342 130.162 61.4508C130.053 61.777 130.162 61.9945 130.053 62.3207C130.053 62.7557 129.835 62.9732 129.4 62.8644C129.074 62.7557 128.857 62.6469 128.639 62.5382C128.096 62.1032 127.552 61.5595 127.008 61.0158C126.464 60.3634 126.138 59.7109 126.03 58.9497C125.921 58.7322 125.921 58.406 125.921 58.1885C125.812 57.5361 125.812 56.9924 125.812 56.3399C125.812 56.1224 125.812 55.905 125.921 55.6875C125.921 55.5787 126.03 55.5787 126.03 55.47C126.138 54.9263 126.247 54.2738 126.247 53.7301C126.247 53.6214 126.247 53.6214 126.356 53.4039C127.334 52.8602 128.204 52.2078 128.966 51.7728C128.966 51.7728 128.857 51.7728 128.857 51.664C127.987 51.7728 127.334 52.534 126.573 52.7515C126.573 52.6427 126.464 52.6427 126.464 52.534C126.356 51.4466 126.356 50.2504 126.247 49.0543C125.921 47.2056 125.595 45.4658 125.268 43.7259C125.051 42.421 124.29 41.1161 123.746 39.92C123.202 38.9413 122.659 37.9626 122.115 36.8752C122.332 36.8752 122.55 36.984 122.659 36.984C123.311 37.3102 123.855 37.6364 124.398 38.0714C124.398 38.0714 124.507 38.0714 124.507 38.1801C125.051 38.6151 125.595 39.05 126.247 39.485C127.334 40.5724 128.639 41.4424 129.944 42.5298C130.488 43.0735 131.032 43.6172 131.684 44.2696C131.358 44.5959 131.467 44.9221 131.684 45.2483C131.902 45.5745 131.902 45.9007 132.228 46.1182C133.098 47.3144 133.315 48.6193 133.424 50.0329C133.424 50.9029 133.206 51.7728 133.641 52.6427C133.75 52.7515 133.641 53.0777 133.641 53.4039C133.533 54.3826 133.315 55.3612 133.098 56.3399C133.098 56.5574 132.989 56.7749 132.88 57.1011C131.902 57.8623 131.467 59.1672 131.467 60.3634Z" fill="black" stroke="black" stroke-width="0.3872" stroke-miterlimit="10"/>
<path d="M101.021 47.9598C100.695 48.1773 100.477 48.286 100.26 48.5035C100.151 48.6123 99.8248 48.721 99.7161 48.5035C99.4986 48.286 99.7161 48.0686 99.8248 47.9598L99.9336 47.8511C100.804 47.3074 101.565 46.7637 102.326 46.3287C102.543 46.1112 103.087 46.2199 103.305 46.3287C104.066 46.5462 104.827 46.9811 105.044 47.7423C105.262 48.6123 104.936 49.2647 104.392 49.8084C103.957 50.2434 103.305 50.3521 102.761 50.0259C102.652 49.9172 102.435 49.8084 102.326 49.6997C101.782 49.4822 101.456 49.0472 101.238 48.5035C101.13 48.286 101.13 48.1773 101.021 47.9598Z" fill="black"/>
<path d="M122.878 46.7679C122.77 46.8766 122.661 47.0941 122.443 47.2028C122.008 46.8766 121.682 46.6591 121.247 46.3329C121.138 46.4416 121.03 46.5504 121.03 46.5504C120.921 47.3116 120.377 47.6378 119.833 47.8553C119.616 47.964 119.399 48.2902 118.964 48.0728C118.529 47.8553 118.094 47.7465 117.876 47.4203C117.441 46.8766 117.006 45.5717 117.767 44.593C117.876 44.4843 118.094 44.3756 118.202 44.3756C119.29 44.2668 120.377 44.3756 121.138 45.1367C121.465 45.463 121.9 45.6805 122.226 46.0067C122.443 46.4416 122.661 46.6591 122.878 46.7679Z" fill="black"/>
<path d="M126.247 86.6795V86.7882C126.465 87.6581 126.573 88.5281 126.573 89.398C126.465 89.5067 126.465 89.5067 126.356 89.6155C126.247 89.7242 126.138 89.833 126.03 89.833C126.03 89.7242 126.03 89.7242 126.03 89.6155C125.921 88.8543 125.812 87.9844 125.703 87.1144C125.595 86.462 125.486 85.9183 125.377 85.2658C125.921 84.9396 125.921 85.4833 126.356 85.5921C126.247 84.9396 126.138 84.2872 125.921 83.7435C125.703 83.1997 125.486 82.656 125.268 82.1123C125.16 81.8948 125.051 81.5686 124.942 81.3511V81.2424C124.833 81.1337 124.725 81.0249 124.725 80.8074C124.398 81.0249 124.072 81.0249 123.855 81.3511C122.985 82.0036 122.115 82.656 121.245 83.4172C121.136 83.526 121.136 83.526 121.028 83.6347C120.81 83.8522 120.484 84.0697 120.266 84.1784C120.158 84.1784 120.158 84.0697 120.049 84.0697C120.158 83.9609 120.484 83.7435 120.593 83.6347C121.789 82.5473 123.202 81.6774 124.507 80.6987C124.616 80.4812 124.29 80.155 124.616 79.9375H124.725H124.833C125.268 79.9375 125.16 80.2637 125.377 80.5899C125.921 81.8948 126.356 83.3085 126.791 84.7221C127.008 85.2658 127.117 85.9183 127.226 86.462C127.226 86.5707 127.226 86.897 127.226 87.1144C126.682 86.7882 126.465 86.7882 126.247 86.6795Z" fill="black"/>
<path d="M125.815 90.1579V89.8317C125.815 89.723 125.815 89.723 125.815 89.6142C125.706 88.7443 125.489 87.8744 125.489 87.2219L125.38 86.7869C125.271 86.352 125.162 85.8083 125.054 85.3733V85.2646L125.162 85.1558C125.597 84.9383 125.815 84.9383 125.924 85.1558C125.815 84.7209 125.706 84.3946 125.597 83.9597C125.38 83.5247 125.271 82.981 124.945 82.3285L124.836 82.2198C124.727 82.0023 124.619 81.7848 124.619 81.5674V81.4586C124.619 81.3499 124.51 81.3499 124.51 81.3499C124.51 81.3499 124.51 81.3499 124.401 81.3499C124.184 81.4586 123.966 81.5674 123.749 81.6761C123.314 82.1111 122.77 82.4373 122.226 82.8723C121.791 83.0897 121.574 83.416 121.139 83.7422L121.03 83.8509L120.921 83.9597C120.704 84.1772 120.378 84.3946 120.16 84.5034V84.3946H120.052C119.943 84.2859 119.834 84.2859 119.617 84.1772L119.508 84.0684L119.617 83.9597C119.834 83.7422 120.052 83.6334 120.269 83.416C121.248 82.546 122.335 81.8936 123.314 81.1324C123.531 80.9149 123.857 80.6974 124.075 80.5887C124.075 80.4799 124.075 80.4799 124.075 80.4799C124.075 80.3712 123.966 80.045 124.292 79.8275C124.401 79.8275 124.401 79.7188 124.401 79.7188C124.51 79.7188 124.51 79.7188 124.51 79.7188C124.945 79.7188 124.945 80.045 125.054 80.2625C125.054 80.3712 125.054 80.3712 125.162 80.3712L125.706 82.0023C126.032 82.8723 126.25 83.6334 126.685 84.5034C126.902 85.0471 127.011 85.5908 127.12 86.1345V86.2432C127.12 86.352 127.12 86.5695 127.12 86.6782C127.12 86.7869 127.12 86.787 127.12 86.8957V87.1132L126.902 87.0044C126.793 87.0044 126.793 86.8957 126.576 86.8957C126.467 86.8957 126.467 86.8957 126.467 86.7869C126.576 87.5481 126.793 88.4181 126.793 89.288V89.3967L126.685 89.5055C126.576 89.6142 126.576 89.6142 126.467 89.723C126.359 89.723 126.359 89.8317 126.359 89.8317C126.25 89.8317 126.25 89.9404 126.25 89.9404L125.815 90.1579ZM125.597 85.3733C125.706 85.8083 125.815 86.2432 125.815 86.6782L125.924 87.1132C126.032 87.7656 126.25 88.6355 126.25 89.5055C126.25 89.5055 126.25 89.5055 126.359 89.5055L126.467 89.3967C126.359 88.6355 126.25 87.7656 126.141 86.8957C126.141 86.787 126.141 86.7869 126.141 86.7869V86.4607L126.467 86.5695C126.576 86.6782 126.685 86.6782 126.902 86.6782C126.902 86.6782 126.902 86.6782 127.011 86.6782C127.011 86.5695 127.011 86.4607 127.011 86.352V86.2432C126.902 85.6995 126.793 85.1558 126.576 84.6121C126.25 83.7422 126.032 82.981 125.597 82.1111L125.054 80.5887C125.054 80.4799 124.945 80.4799 124.945 80.3712C124.836 80.1537 124.836 80.1537 124.727 80.1537H124.619V80.2625C124.619 80.3712 124.619 80.5887 124.619 80.6974V80.8062H124.51C124.401 80.8062 124.401 80.9149 124.401 80.9149L124.727 80.6974L124.836 80.9149C124.836 81.0237 124.945 81.0237 124.945 81.1324C124.945 81.2411 125.054 81.2411 125.054 81.3499L124.945 81.4586L125.054 81.3499C125.162 81.5674 125.271 81.7848 125.38 82.0023L125.489 82.1111C125.706 82.7635 126.032 83.3072 126.141 83.7422C126.359 84.5034 126.467 85.0471 126.576 85.5908L126.685 85.917L126.359 85.8083C126.141 85.6995 126.032 85.5908 125.924 85.482C125.597 85.3733 125.597 85.3733 125.597 85.3733Z" fill="black"/>
<path d="M101.345 59.8222C101.345 59.3872 101.671 58.9523 101.888 58.6261C102.106 58.1911 102.323 57.8649 102.65 57.2124C101.888 57.4299 101.562 58.0823 101.019 58.4086C100.584 58.2998 100.584 58.0823 100.801 57.6474C100.91 57.7561 101.019 57.7561 101.236 57.7561C101.997 57.2124 102.758 56.6687 103.628 56.125C103.628 56.3425 103.737 56.56 103.628 56.56C102.976 57.3212 102.65 58.4086 101.997 59.3872C101.888 59.496 101.78 59.7135 101.671 59.8222C101.562 59.931 101.454 59.931 101.345 59.8222Z" fill="black"/>
<path d="M101.673 60.2559L101.565 60.1472C101.456 60.0384 101.347 60.0384 101.238 60.0384L101.13 59.9297V59.8209C101.13 59.386 101.347 59.0598 101.456 58.7335C101.565 58.6248 101.565 58.6248 101.565 58.516C101.673 58.2986 101.782 58.0811 101.891 57.7549C101.782 57.8636 101.565 57.9723 101.456 58.1898C101.347 58.2986 101.021 58.516 100.803 58.7335H100.695H100.586C100.368 58.6248 100.151 58.6248 100.151 58.4073C99.9335 58.1898 100.042 57.8636 100.151 57.6461L100.26 57.4286L100.477 57.5374C100.586 57.5374 100.586 57.6461 100.586 57.6461C100.586 57.6461 100.695 57.6461 100.695 57.7549C101.021 57.5374 101.347 57.2111 101.782 56.9937C102.217 56.7762 102.543 56.45 102.978 56.1237L103.304 55.9062V56.3412C103.304 56.45 103.304 56.45 103.304 56.5587C103.304 56.6674 103.413 56.8849 103.196 56.9937C102.761 57.4286 102.543 58.0811 102.217 58.7335C102.108 59.0598 101.891 59.4947 101.673 59.8209C101.565 59.9297 101.565 59.9297 101.565 60.0384C101.456 60.1472 101.456 60.1472 101.456 60.2559H101.673ZM102.978 56.9937L102.435 57.9723C102.326 58.2986 102.108 58.516 102 58.7335C101.891 58.8423 101.891 58.8423 101.891 58.951C101.782 59.1685 101.565 59.386 101.565 59.7122C101.565 59.7122 101.565 59.7122 101.565 59.6035C101.673 59.4947 101.673 59.4947 101.673 59.386C101.782 59.0597 102.108 58.7335 102.217 58.2986C102.543 57.6461 102.869 57.1024 103.304 56.5587C103.087 56.7762 102.869 56.8849 102.652 57.1024L102.978 56.9937ZM100.803 57.9723C100.803 58.0811 100.803 58.0811 100.803 58.0811L100.912 58.1898C101.021 58.1898 101.021 58.0811 101.021 58.0811L100.912 57.9723C100.912 58.0811 100.803 58.0811 100.803 57.9723Z" fill="black"/>
<path d="M115.811 48.5117C116.028 48.7292 116.246 48.8379 116.354 48.9467C116.898 49.5991 117.333 50.3603 117.877 51.0128C118.094 51.339 118.42 51.6652 118.747 51.9914C118.964 52.3177 118.964 52.3177 118.747 52.7526C117.985 52.2089 116.028 49.3817 115.811 48.5117Z" fill="black"/>
<path d="M118.855 53.174L118.746 53.0652C117.985 52.4128 115.919 49.5855 115.81 48.7156L115.701 48.1719L116.136 48.6068C116.245 48.7156 116.245 48.7156 116.354 48.7156C116.462 48.8243 116.571 48.8243 116.68 49.0418C116.897 49.368 117.224 49.6943 117.441 50.0205C117.659 50.3467 117.985 50.6729 118.202 50.9992C118.311 51.1079 118.42 51.3254 118.637 51.4341C118.746 51.5429 118.963 51.7603 119.072 51.9778C119.398 52.4128 119.29 52.5215 119.072 52.9565L118.855 53.174ZM116.462 49.4768C117.006 50.4554 117.985 51.8691 118.637 52.5215C118.746 52.4128 118.637 52.4128 118.528 52.1953C118.42 52.0866 118.311 51.8691 118.093 51.7603C117.985 51.6516 117.767 51.4341 117.659 51.3254C117.441 50.9992 117.115 50.6729 116.897 50.3467C116.789 49.9117 116.68 49.6943 116.462 49.4768Z" fill="black"/>
<path d="M120.375 84.7179C120.484 84.6092 120.484 84.5004 120.484 84.3917C121.571 83.5217 122.659 82.6518 123.855 81.8906C123.855 81.8906 123.963 81.8906 124.072 81.8906C123.855 82.3256 121.027 84.5004 120.375 84.7179Z" fill="black"/>
<path d="M84.5996 61.2282C84.9258 60.4671 86.557 59.1622 87.3181 58.8359C87.3181 58.9447 87.3181 58.9447 87.2094 59.0534C86.3395 59.8146 85.5783 60.5758 84.7083 61.337C84.9258 61.337 84.8171 61.2282 84.5996 61.2282Z" fill="black"/>
<path d="M124.292 83.2989C124.292 83.4076 124.183 83.4076 124.183 83.4076C123.313 83.9513 122.552 84.495 121.79 85.0387C121.682 85.1475 121.356 85.2562 121.029 85.0387C122.117 84.3863 123.095 83.7338 124.183 82.9727C124.183 83.2989 124.183 83.2989 124.292 83.2989Z" fill="black"/>
<path d="M107.98 40.3594C108.524 40.7943 108.85 41.4468 109.067 42.4255C109.067 42.6429 109.285 42.9692 108.959 43.2954C108.85 42.8604 108.741 42.5342 108.741 42.3167C108.632 41.9905 108.524 41.773 108.306 41.338C108.197 40.9031 107.762 40.6856 107.98 40.3594Z" fill="black"/>
<path d="M108.96 43.5103L108.851 43.1841C108.743 43.0754 108.743 42.8579 108.634 42.7492C108.525 42.6404 108.525 42.3142 108.416 42.2054C108.308 42.0967 108.308 41.988 108.199 41.7705C108.09 41.6617 107.982 41.4443 107.982 41.2268C107.982 41.118 107.873 41.118 107.764 41.0093C107.547 40.7918 107.438 40.5743 107.547 40.1394L107.655 39.9219L107.873 40.0306C108.416 40.4656 108.851 41.118 109.069 42.2054C109.069 42.3142 109.069 42.3142 109.069 42.3142C109.178 42.5317 109.286 42.9666 108.851 43.1841L108.96 43.5103ZM108.525 41.2268C108.634 41.3355 108.743 41.553 108.743 41.6617C108.634 41.4443 108.634 41.3355 108.525 41.2268Z" fill="black"/>
<path d="M87.6463 60.1367C86.9938 60.8979 86.4501 61.7678 85.689 62.4203C85.689 62.2028 85.5802 61.9853 85.689 61.9853C86.2327 61.3329 86.8851 60.6804 87.6463 60.1367Z" fill="black"/>
<path d="M110.263 53.5088C110.045 53.0738 110.045 52.7476 109.828 52.4213C109.719 52.2039 109.828 51.8776 110.045 51.6602C110.263 51.8776 110.48 52.2039 110.806 52.5301C110.698 52.8563 110.48 53.1825 110.263 53.5088Z" fill="black"/>
<path d="M110.264 53.9464L110.047 53.5114C109.829 53.0764 109.829 52.859 109.72 52.5327C109.612 52.0978 109.72 51.7715 110.047 51.5541L110.155 51.4453L110.264 51.5541C110.482 51.7715 110.699 52.0978 111.025 52.424L111.134 52.5327L111.025 52.6415C110.917 52.9677 110.699 53.2939 110.482 53.7289L110.264 53.9464ZM110.155 51.989C110.047 52.0978 110.047 52.2065 110.047 52.424C110.155 52.6415 110.264 52.859 110.264 53.1852C110.373 53.0764 110.373 52.859 110.482 52.7502C110.482 52.424 110.264 52.2065 110.155 51.989Z" fill="black"/>
<path d="M120.92 77.4293C121.681 76.8856 122.442 76.4506 123.095 76.0156C123.095 76.0156 123.203 76.0156 123.421 76.0156C122.986 76.4506 122.551 76.5593 122.225 76.8856C121.79 77.2118 121.464 77.4293 121.029 77.8642C121.029 77.538 121.029 77.4293 120.92 77.4293C120.92 77.3205 120.92 77.4293 120.92 77.4293Z" fill="black"/>
<path d="M82.4281 53.1941C81.8843 53.9552 81.2319 54.3902 80.4707 54.9339C80.4707 54.3902 80.9057 54.1727 81.2319 53.8465C81.6669 53.629 81.8843 53.3028 82.3193 52.9766C82.428 53.194 82.4281 53.1941 82.4281 53.1941Z" fill="black"/>
<path d="M103.523 72.7578C102.653 73.4103 101.891 73.954 101.13 74.7152L101.021 74.6064C101.13 74.4977 101.13 74.3889 101.239 74.2802C101.891 73.6277 102.979 72.8666 103.523 72.7578Z" fill="black"/>
<path d="M86.666 61.8766C87.2097 61.3329 87.7534 60.7892 88.4059 60.1367C88.1884 60.8979 87.5359 61.6591 86.666 61.8766Z" fill="black"/>
<path d="M111.241 40.0273C111.459 40.5711 111.459 41.5497 111.241 42.4197C110.915 41.5497 111.024 40.4623 111.241 40.0273Z" fill="black"/>
<path d="M111.135 43.2831L110.917 42.522C110.7 41.5433 110.7 40.5646 111.026 40.0209L111.243 39.5859L111.461 40.0209C111.678 40.5646 111.787 41.652 111.461 42.522L111.135 43.2831Z" fill="black"/>
<path d="M90.7988 70.4788C91.4513 69.7176 92.3212 69.0651 92.8649 68.8477C92.3212 69.2826 91.7775 69.9351 91.1251 70.37C91.0163 70.4788 90.9076 70.4788 90.7988 70.4788Z" fill="black"/>
<path d="M121.355 78.4182C121.682 77.7657 122.334 77.3308 123.204 77.1133C122.769 77.657 122.225 77.9832 121.355 78.4182Z" fill="black"/>
<path d="M88.2965 84.2812C87.6441 84.6075 86.9917 85.0424 86.2305 85.3687C86.448 84.825 87.3179 84.2812 88.2965 84.2812Z" fill="black"/>
<path d="M118.635 90.1558C118.744 89.3946 119.07 89.0684 120.048 88.7422C119.505 89.2859 119.178 89.6121 118.635 90.1558Z" fill="black"/>
<path d="M86.3398 84.2776C86.7748 83.6251 87.4273 83.2989 88.1884 82.9727C87.6447 83.6251 86.9923 83.9513 86.3398 84.2776Z" fill="black"/>
<path d="M32.2949 74.3828C29.5764 75.7965 26.8578 77.3188 24.248 78.7325C25.2267 76.2314 28.489 74.4916 32.2949 74.3828Z" fill="black"/>
<path d="M24.4668 74.5008C26.2067 71.9998 28.7077 70.5861 31.6437 69.2812C29.6864 71.4561 27.2941 73.3047 24.4668 74.5008Z" fill="black"/>
<path d="M175.619 77.3272C173.335 75.2611 171.161 73.195 168.877 71.1289C171.487 71.2376 174.205 73.8474 175.619 77.3272Z" fill="black"/>
<path d="M169.094 65.7969C171.812 67.1018 173.661 69.3853 175.509 71.8864C173.008 70.4728 170.942 68.4067 169.094 65.7969Z" fill="black"/>
<path d="M91.1239 47.6406C90.689 48.2931 90.1453 48.728 89.6016 48.9455C89.6016 48.8368 89.6016 48.6193 89.7103 48.5106C90.1453 48.0756 90.4715 47.7494 91.1239 47.6406Z" fill="black"/>
<path d="M95.1504 54.702C95.4766 54.267 95.9116 54.0495 96.564 53.832C96.1291 54.4845 95.6941 54.702 95.1504 54.702Z" fill="black"/>
<path d="M91.8848 70.5894C92.1022 70.0457 92.5372 69.6107 93.0809 69.1758C92.8634 69.8282 92.646 70.1545 91.8848 70.5894Z" fill="black"/>
<path d="M108.091 72.7548C107.765 72.3198 107.439 72.1023 107.004 71.6673L107.113 71.5586C107.439 71.8848 107.874 72.211 108.2 72.5373C108.309 72.646 108.2 72.646 108.091 72.7548Z" fill="black"/>
<path d="M95.1504 53.8341C95.2591 53.1817 95.6941 53.073 96.1291 52.8555C95.9116 53.3992 95.9116 53.3992 95.1504 53.8341Z" fill="black"/>
<path d="M80.6836 56.3368C80.7923 55.7931 81.2273 55.5756 81.6623 55.1406C81.5535 55.7931 81.4448 55.9018 80.6836 56.3368Z" fill="black"/>
<path d="M113.961 84.5039C114.613 84.6126 114.613 84.6127 114.722 85.3738C114.396 85.1564 114.178 84.9389 113.961 84.5039Z" fill="black"/>
<path d="M95.8028 88.092C95.5854 87.8745 95.3679 87.5482 95.1504 87.222L95.2591 87.1133C95.3679 87.1133 95.4766 87.1133 95.5854 87.222C95.8028 87.4395 95.9116 87.657 96.1291 87.8745C96.0203 87.9832 95.9116 87.9832 95.8028 88.092Z" fill="black"/>
<path d="M97.3231 68.189C96.9968 67.754 96.6706 67.5365 96.4531 67.1016C96.8881 67.2103 97.2143 67.4278 97.3231 68.189Z" fill="black"/>
<path d="M120.486 90.5835C120.16 90.801 119.725 90.801 119.398 91.1272C119.833 90.5835 119.942 90.4747 120.486 90.4747C120.486 90.366 120.486 90.4747 120.486 90.5835Z" fill="black"/>
<path d="M96.4531 86.3555C96.9968 86.4642 97.2143 86.7904 97.3231 87.3341C96.8881 87.2254 96.5619 86.8992 96.4531 86.3555Z" fill="black"/>
<path d="M97.7599 67.1017C97.4336 66.9929 97.2162 66.8842 97.1074 66.4492C97.4336 66.558 97.6511 66.8842 97.7599 67.1017Z" fill="black"/>
<path d="M108.523 61.8867C108.632 62.3217 108.523 62.4304 108.197 62.5392C108.197 62.2129 108.306 62.1042 108.523 61.8867Z" fill="black"/>
<path d="M122.879 58.9492C122.987 59.3842 122.879 59.4929 122.552 59.6017C122.444 59.3842 122.661 59.1667 122.879 58.9492Z" fill="black"/>
<path d="M107.545 59.8125C107.653 60.2475 107.545 60.3562 107.219 60.4649C107.11 60.1387 107.219 60.03 107.545 59.8125Z" fill="black"/>
<path d="M120.919 59.1667C120.81 59.2754 120.701 59.3842 120.592 59.3842C120.484 59.3842 120.484 59.2754 120.375 59.1667C120.484 59.1667 120.484 59.058 120.592 58.9492C120.701 58.9492 120.81 59.058 120.919 59.1667Z" fill="black"/>
<path d="M121.137 61.1276C121.245 61.0189 121.245 61.0189 121.245 60.9102C121.354 61.0189 121.354 61.0189 121.354 61.0189L121.245 61.1276C121.354 61.2364 121.354 61.2364 121.137 61.1276Z" fill="black"/>
<path d="M109.395 60.2566C109.503 60.1478 109.503 60.1478 109.503 60.0391C109.612 60.1478 109.612 60.1478 109.612 60.1478L109.503 60.2566C109.503 60.2566 109.503 60.2566 109.395 60.2566Z" fill="black"/>
<path d="M83.6225 61.4414C83.7313 61.5501 83.7313 61.5501 83.84 61.6589C83.84 61.6589 83.7313 61.6589 83.7313 61.7676C83.7313 61.6589 83.6225 61.6589 83.6225 61.4414C83.5138 61.4414 83.6225 61.4414 83.6225 61.4414Z" fill="black"/>
<path d="M119.508 80.6979C119.617 80.5892 119.617 80.5892 119.725 80.4805C119.725 80.4805 119.725 80.4805 119.834 80.5892C119.725 80.6979 119.725 80.6979 119.725 80.8067C119.508 80.8067 119.508 80.6979 119.508 80.6979Z" fill="black"/>
<path d="M123.746 71.017C123.42 71.2345 123.094 71.5607 122.659 71.7782C122.55 71.6694 122.441 71.3432 122.441 71.2345C122.659 71.017 122.876 70.7995 123.094 70.6908C123.529 70.4733 123.638 70.582 123.746 71.017Z" fill="black"/>
<path d="M128.312 52.5234C127.768 53.0671 127.225 53.6109 126.246 54.0458C126.355 53.8283 126.355 53.6109 126.464 53.6109C127.116 53.0671 127.66 52.7409 128.312 52.5234Z" fill="black"/>
<path d="M127.228 44.8138C127.663 44.7051 127.989 45.0313 128.207 45.575C127.88 45.4663 127.445 45.2488 127.119 45.0313C127.228 45.0313 127.228 44.9225 127.228 44.8138Z" fill="black"/>
<path d="M127.88 46.5594C127.228 46.342 127.01 45.907 126.793 45.3633C127.337 45.6895 127.554 46.1245 127.88 46.5594Z" fill="black"/>
<path d="M102.652 48.504C102.833 48.504 102.979 48.358 102.979 48.1778C102.979 47.9976 102.833 47.8516 102.652 47.8516C102.472 47.8516 102.326 47.9976 102.326 48.1778C102.326 48.358 102.472 48.504 102.652 48.504Z" fill="white"/>
<path d="M119.18 46.7696C119.36 46.7696 119.506 46.6236 119.506 46.4434C119.506 46.2632 119.36 46.1172 119.18 46.1172C119 46.1172 118.854 46.2632 118.854 46.4434C118.854 46.6236 119 46.7696 119.18 46.7696Z" fill="white"/>
<path d="M112.981 55.6807C113.96 55.137 115.156 54.9195 116.244 54.9195C116.679 54.9195 117.005 54.9195 117.331 54.9195C117.766 55.0283 118.31 55.0283 118.636 55.2457C118.745 55.3545 119.071 55.2457 119.071 55.137C119.18 55.0283 119.071 54.702 118.962 54.702C118.527 54.4846 117.875 54.3758 117.331 54.2671C116.896 54.2671 116.57 54.1583 116.135 54.2671C114.83 54.2671 113.634 54.5933 112.546 55.137C112.438 55.2457 112.329 55.3545 112.438 55.572C112.655 55.6807 112.873 55.7895 112.981 55.6807Z" fill="white"/>
<path d="M121.355 42.7382C120.376 42.412 119.506 42.1945 118.419 42.6295C118.31 42.5207 118.093 42.3032 118.202 42.1945C118.31 42.0858 118.528 41.8683 118.745 41.7595C119.724 41.542 121.246 41.8683 121.573 42.412C121.464 42.412 121.464 42.5207 121.355 42.7382Z" fill="black"/>
<path d="M121.464 42.966L121.355 42.8572C120.485 42.531 119.615 42.3135 118.528 42.7485L118.419 42.8572L118.311 42.7485C118.311 42.6398 118.202 42.6398 118.202 42.6398C118.093 42.531 117.984 42.3135 117.984 42.2048V42.0961C118.093 41.9873 118.311 41.6611 118.637 41.5523C119.615 41.2261 121.247 41.6611 121.682 42.3135C121.79 42.4223 121.682 42.531 121.573 42.6398L121.464 42.7485V42.966ZM119.507 42.0961C120.05 42.0961 120.594 42.2048 121.138 42.4223C120.703 41.9873 119.507 41.7698 118.637 41.9873C118.528 41.9873 118.311 42.2048 118.202 42.2048L118.311 42.3135C118.311 42.3135 118.311 42.3135 118.419 42.4223C118.854 42.2048 119.181 42.0961 119.507 42.0961Z" fill="black"/>
<path d="M98.8438 43.1832C100.04 42.2046 102.106 42.2046 103.52 43.1832C102.65 43.5094 102.106 43.0745 101.345 43.0745C100.584 43.0745 99.7137 43.1832 98.8438 43.1832Z" fill="black"/>
<path d="M102.977 43.5115C102.65 43.5115 102.324 43.4027 101.998 43.4027C101.781 43.294 101.563 43.294 101.237 43.294C100.693 43.294 100.258 43.294 99.6057 43.294C99.2795 43.294 98.9533 43.294 98.6271 43.294H97.9746L98.5183 42.859C99.8232 41.8803 102.107 41.8803 103.412 42.859L103.738 43.0765L103.303 43.294C103.412 43.4027 103.194 43.5115 102.977 43.5115ZM99.7145 42.859C100.258 42.859 100.802 42.859 101.346 42.859C101.672 42.859 101.889 42.9677 102.216 42.9677C102.433 43.0765 102.65 43.0765 102.977 43.0765C101.998 42.6415 100.802 42.424 99.7145 42.859Z" fill="black"/>
<path d="M139.295 51.8728C137.446 46.1095 135.163 40.3462 130.269 36.3228C122.005 29.4721 114.393 26.6448 101.779 27.8409C101.018 27.8409 100.257 28.0584 99.6043 28.0584C94.8196 28.6021 90.6875 30.4507 86.9903 33.3867C82.6406 36.5402 79.3784 40.5637 76.6598 45.3483C74.1588 49.698 72.9626 54.4826 71.549 59.1585C70.5703 62.9644 70.679 66.9878 70.679 70.7938C70.5703 71.7725 70.8965 72.9686 71.4402 73.8386C74.2675 79.2756 77.2035 84.604 82.5319 88.4099C89.9263 93.7382 98.0819 96.1306 106.781 95.2606C112.218 94.8257 117.329 93.6295 122.331 91.4547C123.31 90.911 124.397 90.476 125.485 89.8235C125.702 89.7148 125.92 89.6061 126.137 89.4973C126.246 89.3886 126.355 89.2798 126.463 89.2798C126.572 89.1711 126.572 89.1711 126.681 89.0624C130.161 86.8875 132.988 84.169 135.489 81.0155C137.773 78.1882 139.839 74.926 140.165 71.0113C140.382 67.8578 140.817 64.7043 141.035 61.877C140.491 58.506 140.165 54.9175 139.295 51.8728ZM127.007 86.2351C126.681 86.4526 126.355 86.6701 126.028 86.8875C125.92 86.9963 125.811 87.105 125.593 87.105C124.724 87.6487 123.854 88.1924 122.984 88.6274C118.09 91.2372 112.871 92.8683 107.651 93.412C105.368 93.6295 103.084 93.6295 100.692 93.3033C97.8644 92.977 94.8196 92.3246 91.9924 91.2372C88.6214 90.041 85.5766 88.4099 82.9668 86.3438C82.8581 86.2351 82.6406 86.1263 82.5319 85.9089C82.3144 85.6914 82.0969 85.4739 81.7707 85.2564C77.7472 81.6679 74.8112 76.9921 73.6151 71.12C72.7451 67.3141 73.0713 62.7469 74.485 58.941C76.4423 52.7427 78.3997 46.4357 82.5319 41.3249C82.6406 41.2161 85.0329 38.2801 85.0329 38.2801C86.2291 36.9752 86.1203 37.084 87.534 35.9965C93.406 31.2119 101.344 29.0371 108.956 29.2546C116.894 29.5808 123.854 33.0605 129.617 38.7151C135.815 44.8046 138.642 53.0689 138.751 61.7683C139.512 72.8599 135.163 80.5805 127.007 86.2351Z" fill="black"/>
<path d="M45.8898 95.2634C45.8898 95.1547 45.7811 94.9372 45.7811 94.8285C45.6723 94.5022 45.5636 94.176 45.5636 93.9585C45.3461 93.5236 45.2374 93.0886 45.0199 92.7624C44.6937 92.3274 44.3674 91.7837 43.9325 91.3487C42.6276 90.1526 41.8664 89.8264 40.2353 90.4788C39.909 90.6963 39.5828 90.805 39.3653 91.0225L39.2566 91.1313C38.8216 91.5662 38.2779 92.0012 37.9517 92.4362C37.2992 93.1973 36.8643 94.176 36.7555 95.0459C36.6468 95.6984 36.6468 96.3508 36.5381 97.0033L36.4293 97.4383C36.3206 97.8732 36.5381 98.3082 36.7555 98.6344C36.973 98.9606 37.2992 99.0694 37.7342 99.0694C37.843 99.0694 37.843 99.0694 37.9517 99.0694C38.2779 99.0694 38.4954 98.9606 38.9304 98.8519C39.3653 98.7432 39.8003 98.6344 40.2353 98.4169C40.344 98.3082 40.6702 98.1994 40.779 98.1994C41.4314 97.982 42.0839 97.982 42.8451 98.1994C43.28 98.3082 43.715 98.5257 44.15 98.5257C44.3674 98.6344 44.5849 98.5257 44.9111 98.3082C45.5636 97.7645 45.9986 97.112 45.8898 96.3508C45.8898 96.0246 45.8898 95.5897 45.8898 95.2634Z" fill="black"/>
<path d="M36.319 91.2456C36.2102 91.1369 36.2102 91.1369 36.1015 91.0281C35.9928 90.8107 35.884 90.5932 35.6665 90.3757C35.1228 89.6145 34.5791 89.1795 33.9267 88.962C33.7092 88.8533 33.2742 88.8533 33.1655 89.0708C32.7305 89.5058 32.4043 90.1582 32.4043 90.8107C32.4043 92.1156 32.948 92.9855 34.0354 93.7467C34.3616 93.9642 34.6879 94.0729 35.0141 94.0729C35.3403 94.0729 35.5578 93.9642 35.7753 93.8554C36.319 93.203 36.5365 92.1156 36.319 91.2456Z" fill="black"/>
<path d="M37.1903 89.5028L37.299 89.6116C38.0602 89.9378 39.4739 89.6116 39.6913 88.7417C39.9088 87.5455 39.9088 86.3493 39.3651 85.1532C39.1476 84.7182 38.8214 84.392 38.4952 84.0658C38.2777 83.8483 38.0602 83.6308 37.734 83.5221C37.4078 83.4133 37.0815 83.4133 36.8641 83.7396C36.5378 84.2833 36.2116 84.827 35.9941 85.4794C35.6679 86.6756 35.9941 88.6329 37.1903 89.5028Z" fill="black"/>
<path d="M41.8637 88.8487C42.5161 89.5012 44.0385 89.3924 44.3647 88.6312C44.9084 87.5438 45.2346 86.3477 44.9084 85.1515C44.7997 84.7165 44.5822 84.2816 44.3647 83.8466C44.1472 83.5204 43.9298 83.3029 43.821 83.1942C43.4948 82.9767 43.2773 82.8679 42.9511 83.1942C42.5161 83.6291 41.9724 84.1728 41.6462 84.7166C41.1025 85.6952 40.7763 87.5438 41.8637 88.8487Z" fill="black"/>
<path d="M48.3879 87.7625C48.1704 87.4362 47.7354 87.2188 47.4092 87.2188C46.9742 87.2188 46.5393 87.4362 46.1043 87.7625C45.9956 87.8712 45.8868 87.9799 45.7781 88.1974C45.4519 88.6324 45.3431 89.2848 45.2344 89.9373C45.2344 90.3723 45.2344 90.8072 45.4519 91.2422C45.7781 92.0034 45.9956 92.2209 46.5393 92.2209H46.648C46.7568 92.2209 46.7568 92.2209 46.8655 92.2209H46.9742C47.3005 92.2209 47.5179 92.0034 47.7354 91.8946C48.2791 91.4597 48.6054 90.8072 48.9316 90.1548C49.2578 89.3936 49.0403 88.5236 48.3879 87.7625Z" fill="black"/>
<path d="M163.654 81.0189C162.893 80.4752 161.914 80.4752 160.5 80.9102C158.543 81.5626 157.021 82.65 155.716 84.4986C155.607 84.3899 155.498 84.1724 155.39 84.0637C155.063 83.6287 154.737 83.1937 154.302 82.8675L153.976 82.5413C153.215 81.8888 152.562 81.2364 151.692 80.8014C150.714 80.2577 149.735 80.2577 149.191 80.6927C148.539 81.2364 148.213 82.1063 148.321 83.085C148.648 86.021 149.409 88.0871 150.714 89.5007C151.149 89.9357 151.584 90.4794 152.127 91.0231C152.997 92.0018 153.867 92.9805 154.52 93.6329C154.737 93.8504 155.063 93.9591 155.39 93.9591C155.498 93.9591 155.607 94.0679 155.825 94.0679L155.933 94.1766L156.042 94.0679C156.151 93.9591 156.151 93.8504 156.26 93.7416L156.368 93.6329L156.26 93.5242C156.151 93.4154 156.042 93.3067 155.933 93.0892C155.716 92.763 155.498 92.5455 155.281 92.2193C154.737 91.6756 154.193 91.0231 153.541 90.2619C152.889 89.6095 152.236 88.8483 151.801 88.3046C150.714 87.1084 149.953 85.2598 149.844 83.085C149.844 82.5413 149.953 81.9976 150.17 81.8888C150.387 81.7801 150.822 81.7801 151.257 81.9976C152.127 82.5413 152.889 83.3025 153.65 84.1724C154.085 84.7161 154.628 85.3686 155.172 86.1297C155.39 86.5647 155.716 86.8909 156.042 87.3259L156.26 87.5434L156.368 87.2172C156.477 86.8909 156.586 86.5647 156.694 86.456C156.803 86.021 157.021 85.6948 157.129 85.3686C157.238 85.2598 157.238 85.0423 157.456 84.9336C157.891 84.1724 158.326 83.52 158.869 82.8675C159.848 81.8888 161.805 81.6713 162.458 82.2151C163.328 82.9762 163.11 84.0637 162.893 85.0423L162.784 85.2598C162.458 87.2172 161.479 89.0658 159.631 90.9144C158.761 91.7843 157.999 92.6542 157.129 93.6329L156.368 94.3941L156.803 95.0465L156.912 94.9378C157.021 94.9378 157.129 94.8291 157.347 94.8291C157.673 94.7203 157.999 94.6116 158.217 94.3941L158.326 94.2854C159.739 92.763 161.153 91.1319 162.349 89.392C163.545 87.7609 164.198 85.8035 164.306 83.6287C164.741 82.5413 164.306 81.5626 163.654 81.0189Z" fill="#1D1E1C"/>
<path d="M10.763 9.79297C13.9165 12.5115 16.8525 15.23 19.8973 17.8398C20.006 17.8398 19.8973 18.1661 19.7885 18.4923C19.3536 18.2748 18.9186 18.3835 18.7011 18.1661C16.0913 15.8825 13.699 13.7077 11.0892 11.5328C10.6543 11.0979 10.1105 10.5542 10.763 9.79297Z" fill="#F15748"/>
<path d="M13.8102 26.2051C13.3752 26.3139 12.9402 26.5313 12.5053 26.5313C10.113 26.8576 7.6119 27.1838 5.21959 27.51C3.91469 27.7275 2.60979 27.945 1.3049 28.0537C0.76119 28.1625 0.217483 28.2712 0 27.51C0.652449 27.075 9.35176 25.5527 12.179 25.4439C12.8315 25.3352 12.8315 25.3352 13.8102 26.2051Z" fill="#F15748"/>
<path d="M26.6405 12.0703C25.9881 8.15561 25.6619 4.34966 25.7706 0.543707C25.7706 0.326224 25.9881 0.217483 26.0968 0C26.9668 0.217483 26.858 0.761191 26.858 1.3049C26.6405 4.4584 27.0755 7.6119 27.6192 10.7654C27.728 11.7441 27.728 11.7441 26.6405 12.0703Z" fill="#F15748"/>
<path d="M189.536 116.471C186.709 113.426 183.99 110.381 181.272 107.445C181.163 107.445 181.272 107.119 181.38 106.793C181.815 107.01 182.25 107.01 182.468 107.228C184.751 109.729 187.035 112.23 189.318 114.731C189.862 115.166 190.297 115.71 189.536 116.471Z" fill="#F15748"/>
<path d="M188.342 99.8231C188.777 99.7144 189.212 99.6057 189.647 99.6057C192.039 99.4969 194.54 99.4969 197.041 99.4969C198.346 99.3882 199.76 99.3882 201.065 99.3882C201.608 99.3882 202.152 99.2794 202.369 100.041C201.608 100.476 192.8 101.019 190.082 100.802C189.212 100.802 189.212 100.802 188.342 99.8231Z" fill="#F15748"/>
<path d="M173.988 112.434C174.205 116.348 174.097 120.263 173.662 123.96C173.662 124.178 173.444 124.286 173.335 124.395C172.465 124.069 172.683 123.525 172.792 122.982C173.335 119.828 173.335 116.675 173.009 113.521C172.9 112.651 172.9 112.651 173.988 112.434Z" fill="#F15748"/>
</svg>
