<svg width="246" height="97" viewBox="0 0 246 97" fill="none" xmlns="http://www.w3.org/2000/svg">
<path d="M190.405 41.6453C189.511 39.3609 189.214 36.8778 188.618 34.4941C186.929 27.6408 182.956 21.6815 178.983 15.8214C177.791 14.0336 176.5 12.1465 174.613 11.1533C173.223 10.3587 171.534 10.1601 169.945 10.0607C131.209 5.59122 92.1754 2.31358 53.2409 4.49867C44.5999 25.1578 56.7172 50.8823 45.9904 70.4489C44.5005 73.1306 42.7127 75.6136 41.5209 78.3947C40.4283 81.1757 40.1303 84.652 41.8188 87.135C44.0039 90.512 48.6721 91.2073 52.7443 91.3066C58.4057 91.6046 65.1596 91.0086 67.742 86.0425C68.5366 84.5527 68.8346 82.8642 69.8278 81.573C71.6156 79.3879 74.7939 79.1892 77.5749 79.1892C93.6652 78.9906 109.656 78.7919 125.746 78.494C129.719 78.3947 133.99 78.3947 137.466 80.3811C141.837 82.8642 144.419 88.1283 149.087 90.0154C154.053 92.1012 159.615 89.8167 164.482 87.5323C163.588 84.2547 166.071 80.8777 169.15 79.4872C172.229 78.0967 175.706 78.196 179.083 78.3947C189.71 78.8913 204.807 82.3676 208.184 68.7604C209.674 62.7017 210.27 56.643 204.41 53.564C198.848 50.6837 192.888 47.8033 190.405 41.6453Z" fill="white"/>
<path d="M153.652 4.29997L48.0723 0.128418L45.3906 2.51216L47.3771 68.8596L67.1423 69.9522L147.494 70.5481L156.433 69.0583L153.652 4.29997Z" fill="#F15748"/>
<path d="M147.694 70.0571C144.019 70.0571 140.344 70.0571 136.669 70.0571C135.874 70.0571 135.08 70.0571 134.285 70.1564C131.901 70.5537 129.915 72.1429 128.227 73.9307C127.432 74.7253 126.737 75.7185 126.339 76.7117C126.141 77.109 126.041 77.705 126.339 78.1023C126.538 78.3009 126.836 78.4995 127.134 78.5989C129.12 79.2941 131.306 79.0955 133.391 78.8968C135.08 78.6982 136.768 78.4995 138.457 78.4002C139.45 78.3009 140.443 78.2016 141.436 77.9036C144.217 77.109 146.502 74.7253 147.098 71.8449" fill="#BCBCBB"/>
<path d="M68.7303 78.5998C69.0283 78.8978 69.5249 78.9971 69.9222 79.0965C71.2134 79.3944 72.5046 79.5931 73.7958 79.6924C75.1863 79.7917 76.5768 79.6924 77.9673 79.5931C84.8206 79.2951 91.6738 78.8978 98.5271 78.5998C99.719 78.5005 101.01 78.4012 101.904 77.7059C102.798 76.9114 103.096 75.5208 102.599 74.5276C101.805 72.9385 99.8183 72.5412 98.1298 72.2432C90.482 71.1506 82.8341 70.3561 75.087 69.8595C72.9019 69.7601 67.5385 68.2703 66.2473 70.8527C65.552 72.4418 67.6378 77.5073 68.7303 78.5998Z" fill="#BCBCBB"/>
<path d="M178.378 34.9949C178.974 34.101 179.868 33.2071 180.066 32.1146C180.166 31.1213 179.669 30.1281 179.172 29.1349C178.08 27.1484 177.087 25.2613 175.994 23.2748C175.696 22.6789 175.199 22.083 174.603 22.1823C174.206 22.2816 174.008 22.5796 173.809 22.9769C171.227 27.2477 168.545 31.6179 165.962 35.8888C165.764 36.2861 165.466 36.6834 165.466 37.18C165.466 37.7759 165.962 38.3719 166.558 38.5705C167.154 38.7692 167.75 38.7692 168.445 38.7692C170.829 38.7692 173.61 39.1665 175.895 38.6698C177.782 38.3719 177.385 36.4847 178.378 34.9949Z" fill="#BCBCBB"/>
<path d="M209.473 80.973C208.877 78.6886 208.579 76.3048 208.48 73.9211C205.599 74.1197 202.719 74.0204 199.938 73.9211C198.945 73.8218 197.852 73.8218 196.859 73.8218C195.568 73.9211 194.376 74.1197 193.184 74.6164C192.787 74.815 192.389 74.9143 192.091 75.2123C191.793 75.5103 191.595 75.9075 191.396 76.2055C190.701 77.4967 190.006 79.0859 190.8 80.3771C191.595 81.6683 193.383 81.7676 194.872 81.6683C199.044 81.5689 203.216 81.5689 207.486 81.8669" fill="#BCBCBB"/>
<path d="M69.5252 80.8827C69.4259 81.3793 69.4259 81.7766 69.3266 82.2732C68.8299 85.0543 67.5387 87.3387 65.453 89.1265C64.2611 90.1197 62.8706 91.0136 61.5794 91.9075C56.9112 95.1852 48.8661 96.377 43.2047 90.7157C42.3108 89.8218 41.3176 88.9278 40.523 87.9346C37.5433 83.9617 36.3515 79.6908 38.5366 75.0227C39.8278 72.341 41.6156 69.8579 43.9993 67.9708C46.681 65.885 49.6607 64.7925 53.137 65.2891C54.1302 65.4877 55.2227 65.4877 56.216 65.4877C58.4011 65.4877 60.3875 66.3816 62.1753 67.5735C62.7713 67.9708 63.3672 68.3681 63.9631 68.7654C64.857 69.5599 65.8503 69.7586 67.0421 69.8579C74.69 70.6525 82.2385 70.2552 89.8863 70.1559C95.2497 70.0566 100.712 69.8579 106.076 69.7586C107.566 69.7586 109.056 69.9572 110.545 70.0566C114.518 70.1559 118.491 70.1559 122.464 70.1559C127.43 70.1559 132.496 70.1559 137.462 70.1559C139.945 70.1559 142.428 69.9572 144.812 70.7518C145.805 71.0498 146.699 71.0498 147.493 70.4539C149.083 69.3613 150.97 69.0633 152.857 68.666C153.353 68.5667 153.85 68.4674 154.446 68.4674C154.347 67.4742 154.247 66.5803 154.148 65.6864C151.566 63.8986 148.983 62.0114 146.302 60.1243C149.281 60.7202 151.268 63.104 154.247 64.3952C154.347 63.104 154.446 62.1108 154.446 61.1175C154.446 59.727 154.347 58.2372 154.347 56.8467C154.446 53.4697 154.645 50.1921 154.645 46.8151C154.645 45.2259 154.545 43.6368 154.446 42.0476C154.247 38.2733 153.85 34.4991 153.85 30.6255C153.751 27.7452 154.148 24.9641 154.347 22.0838C154.744 17.0183 154.545 11.9529 154.247 6.88742C154.148 6.09284 154.446 5.19894 154.744 4.40436C154.843 4.00707 155.539 3.80842 156.134 3.41113C156.234 5.09962 156.234 6.39081 156.333 7.78133C156.929 7.97997 157.326 8.27794 157.724 8.37726C161.399 8.77455 165.073 9.17184 168.848 9.46981C171.331 9.66845 173.913 9.8671 176.396 10.0657C176.595 10.0657 176.794 10.2644 176.992 10.463C176.893 10.9596 176.794 11.5556 176.794 11.8535C177.389 12.4495 178.085 12.7475 178.383 13.3434C178.979 14.3366 179.376 15.5285 179.674 16.621C181.164 22.0838 184.243 26.7519 186.527 31.8174C187.62 34.1018 188.712 36.3862 189.705 38.6706C190.699 40.8557 192.288 42.6435 192.983 45.0273C193.082 45.5239 193.778 46.0205 194.274 46.3185C195.665 47.1131 197.254 47.8083 198.645 48.7022C201.028 50.0927 203.313 51.6819 205.696 53.0724C206.69 53.6683 207.683 54.3636 208.775 54.8602C209.769 55.2575 210.067 55.9528 210.067 56.946C210.067 61.7135 210.265 66.4809 209.967 71.2484C209.769 74.2281 209.669 77.1085 209.967 79.9888C210.166 81.4787 209.669 82.5712 208.577 83.6637C207.683 83.0678 206.69 82.7699 205.696 83.2665C204.604 82.4719 203.412 82.7699 202.22 82.7699C196.658 82.7699 191.096 82.7698 185.534 82.6705C184.938 82.6705 184.243 82.5712 183.647 82.5712C181.76 82.4719 179.873 82.0746 177.985 82.2732C175.204 82.5712 172.423 82.6705 169.742 82.4719C169.642 82.4719 169.444 82.6705 169.344 82.6705C169.344 82.7698 169.245 82.7699 169.245 82.8692C169.245 83.5644 169.146 84.2597 169.146 85.0543C169.146 88.8285 167.656 91.8082 164.378 93.7947C163.286 94.3906 162.094 94.7879 160.902 95.1852C157.028 96.675 153.254 96.2777 149.48 94.9865C147.096 94.1919 144.911 92.9007 143.52 90.815C141.435 87.9346 139.945 84.657 139.846 80.8827C139.846 80.3861 139.746 79.9888 139.647 79.2936C138.654 79.0949 137.66 78.8963 136.568 78.8963C134.482 78.8963 132.297 79.0949 130.112 79.1942C126.139 79.3929 122.166 79.6908 118.193 79.6908C110.446 79.6908 102.699 80.2868 94.8524 79.9888C88.7938 79.7902 82.8344 79.9888 76.7757 80.5848C76.3785 80.5848 75.9812 80.4854 75.5839 80.4854C73.5974 80.4854 71.611 80.4854 69.5252 80.4854C69.6245 80.6841 69.5252 80.7834 69.5252 80.8827ZM201.922 77.6051C201.426 79.3929 201.525 79.5915 202.518 80.6841C203.213 79.7902 202.22 78.8963 202.419 78.0024C202.816 78.3997 203.213 78.8963 203.71 79.5915C204.008 78.3003 204.107 77.2078 203.611 76.1152C203.511 75.8173 202.816 75.8173 202.22 75.6186C202.319 76.6118 202.419 77.3071 202.419 78.1017C202.319 77.903 202.121 77.7044 201.922 77.6051ZM179.078 23.7723C179.575 25.5601 180.171 27.2485 180.766 28.937C181.064 29.8309 181.362 30.5262 182.753 30.3275C182.256 29.235 181.859 28.2418 181.362 27.2485C180.766 25.7587 180.171 24.1695 179.575 22.6797C179.376 22.1831 178.879 21.6865 178.482 21.1899C178.681 19.6007 178.184 18.2102 176.893 17.1176C177.389 18.5082 177.985 19.7994 178.482 21.1899C178.78 22.0838 178.879 22.9777 179.078 23.7723ZM154.347 82.7699C155.439 83.3658 156.532 84.061 157.624 84.657C158.121 84.9549 158.618 85.2529 159.114 85.5509C159.809 84.8556 159.611 84.359 159.114 83.9617C158.32 83.3658 157.426 82.7698 156.631 82.1739C156.234 81.8759 155.836 81.4787 155.539 81.0814C157.326 81.28 158.518 82.6705 160.008 83.4651C160.207 81.4787 159.114 79.3929 157.227 78.499C155.241 77.6051 153.155 77.2078 150.97 77.5058C149.877 77.7044 149.182 78.3003 148.586 79.2936C146.699 82.6705 149.877 88.0339 153.85 87.9346C154.247 87.9346 154.744 88.0339 155.042 87.8353C155.737 87.2394 156.432 87.2394 157.227 87.3387C157.426 87.3387 157.624 86.9414 158.121 86.6434C157.525 86.0475 157.028 85.6502 156.532 85.1536C155.737 84.359 154.645 83.8624 154.347 82.7699ZM178.581 64.1965C179.674 64.9911 180.766 65.6864 181.859 66.481C182.455 66.9776 183.051 67.4742 183.746 68.0701C184.441 67.2755 184.243 66.4809 184.143 65.7857C183.945 62.0114 183.746 58.3365 183.647 54.6616C183.547 52.4765 183.647 50.1921 183.746 48.007C183.746 47.3117 183.845 46.6164 183.845 46.0205C184.938 45.6232 185.236 46.2192 185.236 46.9144C185.236 48.9009 185.335 50.8873 185.137 52.8738C184.64 57.0453 185.435 61.1175 185.335 65.1898C185.335 66.9776 185.435 68.8647 185.435 70.6525C185.435 71.8444 185.534 72.9369 185.534 74.3274C193.082 74.9234 200.333 74.0295 207.484 74.2281C208.08 69.7586 208.378 69.4606 207.484 66.0837C205.498 65.7857 203.412 65.587 201.326 65.2891C200.532 62.7067 201.227 56.946 202.518 54.4629C203.412 55.2575 203.313 56.0521 203.114 57.0453C202.915 58.2372 202.617 59.3297 202.419 60.5216C202.319 61.4155 202.419 62.4087 202.419 63.6006C203.313 63.7992 204.207 63.9979 205.498 64.2959C205.1 63.6006 205.001 63.3026 204.802 63.0047C204.604 62.7067 204.405 62.508 204.207 62.2101C204.405 62.1108 204.505 62.0114 204.604 62.0114C205.498 62.4087 206.392 62.9053 207.683 63.5013C207.484 62.806 207.385 62.2101 207.186 62.1108C205.796 61.6141 205.1 60.323 203.809 59.1311C205.597 59.0318 206.491 60.2236 207.484 61.0182C208.279 59.727 208.08 58.6345 207.385 57.5419C206.193 55.9528 204.802 54.5622 203.015 53.6683C199.737 51.9799 196.459 50.0927 193.182 48.4042C191.791 47.709 191.096 46.7158 190.5 45.3252C189.606 42.9415 188.315 40.7564 187.222 38.472C187.024 38.0747 186.626 37.7767 186.13 37.1808C186.031 37.9754 185.832 38.3727 185.832 38.77C185.832 39.3659 185.832 40.0612 185.832 40.6571C185.832 42.2463 185.733 43.7361 184.143 44.5307C182.952 45.1266 180.171 44.5307 179.078 43.2395C177.985 41.7496 176.595 41.253 174.807 41.1537C171.43 40.9551 167.954 40.6571 164.577 40.3591C164.08 40.3591 163.584 40.3591 163.186 40.2598C160.803 39.9618 160.306 39.2666 160.107 36.8828C159.611 30.4269 159.511 23.8716 159.611 17.4156C159.611 16.1244 159.71 14.9325 160.405 13.542C165.57 13.4427 170.735 14.2373 176.098 15.2305C175.9 13.7407 175.8 12.6481 175.105 11.6549C168.947 11.1583 162.789 10.6617 156.631 10.1651C156.134 11.4563 156.432 12.8468 156.432 14.138C156.432 17.4156 156.432 20.5939 156.432 23.8716C156.432 26.454 156.432 29.1357 156.532 31.7181C156.532 32.016 156.631 32.314 156.631 32.7113C156.73 40.1605 156.83 47.6097 156.83 55.0589C156.83 58.0385 156.631 60.9189 156.532 63.8986C156.432 65.6864 156.532 67.4742 156.532 69.262C158.22 69.9572 160.107 70.7518 161.895 71.5464C162.193 71.6457 162.491 71.8444 162.69 72.043C163.882 73.4335 165.471 73.6322 167.259 73.5329C169.543 73.4335 171.827 73.5329 174.112 73.8308C176.694 74.2281 179.277 74.2281 181.958 74.4268C182.554 74.4268 183.25 74.3274 183.845 74.2281C184.938 72.6389 184.044 71.0498 184.342 69.7586C182.157 67.6728 180.369 65.885 178.581 64.1965C178.681 64.0972 178.581 64.1965 178.581 64.1965ZM176.694 35.4923C176.595 34.7971 176.297 34.2011 175.8 33.6052C175.304 33.0093 174.608 32.612 173.913 32.1154C173.317 31.6187 172.721 31.2214 172.423 30.4269C173.913 31.4201 175.403 32.4133 176.794 33.3072C177.489 32.8106 177.588 32.314 177.092 31.8174C176.396 31.1221 175.701 30.5262 175.006 29.8309C174.211 29.1357 173.417 28.5397 172.92 27.5465C173.417 27.9438 173.913 28.2418 174.41 28.6391C175.006 29.0364 175.602 29.4336 176.198 29.8309C176.794 30.2282 177.29 30.6255 177.886 31.0228C179.575 29.6323 179.575 29.533 178.184 28.3411C178.184 27.3479 178.383 26.454 178.184 25.7587C177.389 23.077 176.396 20.3953 175.403 17.6143C175.204 16.919 174.807 16.3231 174.012 16.1244C170.04 15.1312 165.967 14.6346 161.796 14.7339C161.101 15.9258 161.001 17.0183 161.001 18.3095C161.101 20.3953 160.902 22.3817 161.101 24.4675C161.299 28.5397 161.597 32.7113 161.895 36.7835C161.994 37.9754 162.491 38.472 163.782 38.5713C164.676 38.6706 165.57 38.5713 166.365 38.6706C169.444 38.8693 172.523 39.1673 175.602 39.4652C175.999 39.4652 176.396 39.4652 176.794 39.4652C176.794 38.0747 176.893 36.7835 176.694 35.4923ZM82.8344 77.1085C86.1121 77.2078 89.3897 77.2078 92.568 77.3071C99.1233 77.4064 105.579 77.5058 112.035 77.6051C117.995 77.6051 123.954 77.6051 129.913 77.5058C132.396 77.5058 134.78 77.2078 137.263 77.0091C138.058 75.42 138.058 73.8308 137.958 72.043C117.299 71.3478 96.6403 71.2484 75.7825 72.341C75.9812 73.6322 76.1798 75.0227 76.3785 76.5125C78.5635 76.9098 80.6493 77.0091 82.8344 77.1085ZM200.73 75.8173C199.936 75.7179 199.34 75.6186 198.744 75.6186C196.161 75.6186 193.678 75.8173 191.096 75.7179C183.547 75.42 176.098 75.0227 168.55 74.7247C167.656 74.7247 166.663 74.7247 165.57 74.7247C165.967 76.8105 167.159 78.3003 168.152 79.7902C178.879 80.1875 189.507 80.5848 200.035 80.8827C200.333 80.8827 200.631 80.6841 201.028 80.4854C200.929 78.8963 200.83 77.4064 200.73 75.8173ZM56.4146 80.982C54.7261 79.7902 53.137 78.5983 51.4485 77.2078C52.541 77.7044 53.7329 76.6118 54.9248 77.6051C55.918 78.3997 57.1099 78.8963 58.4011 79.6908C58.8977 78.201 58.4011 77.0091 57.5072 76.2146C55.4214 74.3274 52.9383 73.3342 50.058 74.1288C47.9722 74.7247 46.8797 76.5125 47.0783 78.6976C47.6742 83.9617 52.0444 85.6502 55.7194 85.0543C57.5072 84.8556 58.5004 83.4651 58.7984 81.0814C57.8051 81.578 57.1099 81.4787 56.4146 80.982ZM184.044 40.5578C183.845 39.0679 182.256 38.77 181.66 37.3794C182.554 37.7767 183.15 37.9754 183.746 38.2733C184.342 35.8896 183.746 34.0025 181.859 32.7113C180.468 31.7181 179.177 32.016 178.78 33.7045C178.184 35.8896 177.687 38.174 179.277 40.3591C179.773 41.0544 179.873 42.2463 180.766 42.6435C181.462 42.9415 182.256 43.1402 182.952 43.3388C183.15 43.3388 183.547 42.9415 183.746 42.6435C183.845 42.4449 183.746 41.9483 183.547 41.849C182.852 41.253 182.058 40.6571 181.263 40.1605C181.362 40.0612 181.362 39.8625 181.462 39.7632C182.356 39.7632 183.051 40.1605 184.044 40.5578ZM71.5116 78.797C71.8096 76.5125 72.2069 74.3274 72.5049 72.1423C70.5184 71.6457 69.4259 71.5464 67.3401 72.043C68.1347 74.2281 68.9293 76.4132 69.8232 78.6976C70.2205 78.7969 70.8164 78.797 71.5116 78.797ZM140.144 77.0091C140.739 75.5193 140.441 73.8308 141.733 72.6389C141.633 73.2349 141.534 73.8308 141.435 75.0227C142.527 74.0295 143.322 73.3342 144.315 72.5396C142.627 71.3478 140.938 71.8444 139.25 71.5464C138.952 73.3342 138.753 75.0227 138.455 76.8105C139.051 76.9098 139.647 76.9098 140.144 77.0091ZM73.6967 72.2417C72.6042 73.4335 72.8028 74.7247 72.8028 76.1152C73.5974 76.3139 74.392 76.4132 75.2859 76.6118C75.8818 75.122 75.2859 73.9301 74.69 72.341C74.392 72.9369 74.1934 73.3342 73.9947 73.7315C73.8954 73.3342 73.7961 72.8376 73.6967 72.2417ZM206.59 79.9888C206.69 80.2868 207.087 80.4854 207.385 80.6841C207.584 80.3861 207.981 80.0881 207.981 79.7902C207.881 78.5983 207.782 77.5058 207.584 75.7179C206.491 77.4064 206.392 78.6976 206.59 79.9888ZM205.994 75.8173C205.597 75.8173 205.2 75.8173 205.2 75.9166C204.703 76.8105 204.803 78.1017 205.696 80.4854C205.796 78.5983 205.895 77.2078 205.994 75.8173Z" fill="black"/>
<path d="M47.0827 8.97214C49.963 10.7599 52.3468 12.1505 54.7305 13.6403C54.1346 11.9518 52.6447 11.4552 51.3535 10.6606C49.963 9.86604 48.6718 9.07146 47.2813 8.17756C47.2813 6.09178 47.2813 4.00601 47.2813 1.82091C48.4732 1.72159 49.5657 1.52295 50.6583 1.52295C54.8298 1.72159 59.1007 1.82091 63.2722 2.2182C71.3174 2.81414 79.2632 3.11211 87.3083 3.21143C93.4663 3.31075 99.7236 3.60872 105.882 3.90669C107.769 4.00601 109.656 4.00601 111.543 4.00601C115.715 4.20465 119.985 4.30398 124.157 4.50262C126.739 4.60194 129.421 4.89991 132.003 4.89991C134.189 4.89991 136.473 4.80059 138.658 4.70127C142.035 4.70127 145.511 4.70127 148.888 4.70127C149.981 4.70127 151.073 4.89991 152.265 4.89991C152.663 4.89991 153.06 4.60194 153.755 4.30398C153.06 3.90669 152.663 3.60872 152.265 3.60872C148.292 3.41007 144.319 3.21143 140.347 3.11211C139.254 3.11211 138.161 3.5094 137.069 3.60872C134.685 3.60872 132.301 3.5094 129.918 3.5094C128.229 3.41007 126.64 3.21143 124.952 3.21143C118.595 3.01278 112.238 2.81414 105.882 2.61549C99.7236 2.41685 93.5656 2.2182 87.3083 2.01956C77.3761 1.52295 67.4438 1.12566 57.6109 0.13243C54.4325 -0.165538 51.2542 0.13243 48.0759 0.13243C46.4867 0.13243 45.5928 1.02633 45.2949 2.51617C45.0962 4.10533 44.8976 5.79382 44.7983 7.4823C44.6989 12.4484 44.5996 17.3152 44.5996 22.182C44.5996 25.1617 44.7983 28.2407 44.7983 31.2204C44.7983 37.875 44.6989 44.5296 44.5996 51.1842C44.5996 54.9585 44.5996 58.8321 44.5996 62.6063C44.5996 62.9043 44.5996 63.2023 44.5996 63.5995C44.6989 64.9901 44.8976 65.4867 45.5928 65.4867C46.6854 65.3873 46.6854 64.3941 46.7847 63.6989C47.0827 60.5205 47.48 57.3422 47.2813 54.1639C46.884 47.112 46.9833 40.0601 46.884 33.0082C46.7847 27.3468 46.5861 21.7847 46.4867 16.1234C46.5861 13.9383 46.884 11.7532 47.0827 8.97214Z" fill="black"/>
<path d="M205.502 47.6134C205.403 48.4079 205.999 48.5073 206.495 48.6066C207.389 48.7059 208.383 48.8052 209.376 48.9046C216.229 49.4012 223.182 49.9971 230.035 50.1957C234.802 50.3944 239.57 50.3944 244.238 51.3876C244.536 51.4869 244.834 51.4869 245.132 51.4869C245.231 51.4869 245.43 51.3876 245.628 51.2883C245.628 50.1957 244.735 50.0964 244.039 49.9971C241.556 49.6991 238.974 49.3018 236.491 49.2025C234.405 49.0039 232.319 49.2025 230.333 49.1032C225.665 48.8052 220.996 48.5073 216.328 48.2093C212.852 48.0107 209.376 47.7127 205.899 47.514C205.701 47.3154 205.601 47.4147 205.502 47.6134Z" fill="#F15748"/>
<path d="M200.533 39.2655C201.129 39.4642 201.328 39.6628 201.626 39.5635C206.493 39.4642 211.459 39.2655 216.325 39.1662C217.915 39.1662 219.504 38.9676 221.093 38.9676C222.98 38.9676 224.867 38.8682 226.754 38.9676C229.734 39.1662 232.714 39.4642 235.793 39.6628C236.19 39.6628 236.687 39.4642 236.985 39.3649C237.084 38.3716 236.488 38.2723 235.892 38.2723C233.508 38.173 231.125 38.0737 228.741 37.9743C223.675 37.6764 218.61 37.7757 213.544 38.0737C209.87 38.2723 206.095 38.0737 202.42 37.9743C201.626 38.0737 201.626 37.9743 200.533 39.2655Z" fill="#F15748"/>
<path d="M0 39.959C0.39729 40.1576 0.893903 40.6542 1.29119 40.5549C5.46274 39.8596 9.63429 40.0583 13.9052 39.959C17.6794 39.8596 21.553 39.7603 25.3272 39.8596C27.8103 39.8596 30.3927 40.1576 32.8758 40.2569C33.7697 40.2569 34.7629 40.2569 36.1534 40.2569C35.5575 39.5617 35.3588 39.0651 34.9615 38.9657C34.2663 38.7671 33.571 38.7671 32.8758 38.7671C28.3069 38.7671 23.7381 38.8664 19.0699 38.8664C14.8984 38.8664 10.6275 38.8664 6.45597 38.9657C4.37019 38.9657 2.1851 39.1644 0.0993225 39.363C0.0993225 39.661 0.0993225 39.7603 0 39.959Z" fill="#F15748"/>
<path d="M7.95612 47.9018C7.8568 48.7957 8.15477 49.2923 8.85003 49.193C13.8162 48.1997 18.7823 48.9943 23.7484 48.895C26.6288 48.7957 29.4098 49.2923 32.2901 49.5903C34.2766 49.7889 36.263 50.0869 38.1502 50.1862C38.4481 50.1862 38.8454 49.9875 39.1434 49.9875C39.2427 48.9943 38.7461 48.895 38.1502 48.7957C35.6671 48.597 33.2834 48.1997 30.8003 48.1004C23.9471 47.9018 16.9945 47.8024 10.1412 47.7031C9.44596 47.7031 8.7507 47.8024 7.95612 47.9018Z" fill="#F15748"/>
<path d="M56.0136 11.6429C53.4312 8.86185 49.7563 6.77608 47.8691 6.67676C47.8691 6.77608 47.8691 7.07405 47.9685 7.07405C50.7495 8.56389 53.4312 10.153 56.0136 11.6429Z" fill="black"/>
<path d="M152.855 67.2731C151.564 64.9886 149.379 63.6974 147.293 62.4062C147.392 63.3002 148.286 63.5981 148.882 64.0947C149.478 64.6907 150.173 65.2866 150.769 65.8825C151.365 66.4785 151.961 67.0744 152.557 67.6703C152.557 67.571 152.756 67.4717 152.855 67.2731Z" fill="black"/>
<path d="M180.575 49.289C180.376 48.7923 180.376 48.5937 180.277 48.3951C178.787 45.3161 178.191 46.0113 175.112 46.4086C174.814 46.4086 174.516 46.6073 174.218 46.7066C174.019 46.8059 173.92 47.0045 173.622 47.2032C173.622 48.2957 174.317 48.693 175.112 48.991C176.9 49.5869 178.588 50.1829 180.575 49.289Z" fill="black"/>
<path d="M177.488 66.5786C178.978 67.8698 180.468 69.0617 182.057 70.4522C181.858 69.0617 181.064 68.3664 177.488 66.5786Z" fill="black"/>
<path d="M178.587 64.1928C177.494 63.0009 177.494 63.0009 175.905 62.3057C176.501 63.2989 176.501 63.2989 178.587 64.1928Z" fill="black"/>
<path d="M154.342 82.7568C154.045 81.9641 153.45 81.3696 152.559 81.1714C152.955 81.9641 153.351 82.6577 154.342 82.7568Z" fill="black"/>
<path d="M60.6924 16.1289C60.8911 15.8309 60.9904 15.5329 61.1891 15.235C60.3945 15.235 59.7985 15.235 59.004 15.235C58.706 15.4336 58.706 16.0296 58.0107 16.3275C58.3087 15.7316 58.5074 15.3343 58.8053 14.8377C58.5074 14.639 58.3087 14.5397 58.0107 14.3411C58.408 13.9438 58.706 14.1424 58.9046 14.3411C59.4013 14.937 60.0965 14.7384 60.7918 14.7384C60.5931 14.5397 60.3945 14.3411 60.1958 14.0431C61.0897 13.8445 61.3877 14.639 62.083 14.639C62.6789 14.639 63.2748 15.0363 64.0694 14.7384C63.6721 14.0431 63.1755 13.5465 62.6789 13.1492C62.6789 12.9506 62.4803 12.9506 62.2816 12.9506C61.785 12.8512 61.785 12.8512 61.3877 12.4539C61.5864 12.3546 61.785 12.3546 61.9836 12.2553C61.9836 11.858 61.5864 11.4607 60.9904 11.4607C60.5931 11.3614 60.2952 11.3614 59.8979 11.2621C59.7985 11.2621 59.6992 11.1628 59.5999 10.9641C59.7985 10.8648 59.9972 10.8648 60.0965 10.8648C60.8911 11.0634 60.9904 10.9641 61.0897 10.0702C61.0897 9.97088 61.1891 9.97088 61.1891 9.87156C61.487 9.87156 61.5864 10.0702 61.5864 10.2688C61.5864 11.1628 62.1823 11.56 62.7782 12.156C63.1755 11.858 62.9769 11.3614 63.4735 11.1628C63.4735 11.4607 63.4735 11.6594 63.3742 11.858C63.0762 12.7519 63.5728 13.4472 64.3674 13.9438C64.4667 13.2485 64.566 12.6526 64.1687 12.0567C64.0694 11.858 64.0694 11.56 64.1687 11.3614C64.566 10.7655 64.4667 10.2688 64.0694 9.77224C63.8708 9.57359 63.7714 9.37495 63.6721 9.1763C63.5728 9.07698 63.6721 8.97766 63.8708 8.77901C64.1687 9.1763 64.566 9.57359 64.864 9.97088C65.3606 9.57359 65.8572 9.07698 66.3538 8.67969L66.4532 8.77901C66.0559 9.1763 65.7579 9.67291 65.3606 10.0702C64.864 10.5668 64.7647 11.0634 64.864 11.858C65.162 11.7587 65.4599 11.6594 65.7579 11.56C65.7579 11.9573 65.5593 12.156 65.2613 12.2553C64.6653 12.6526 64.6653 13.1492 64.7647 13.7451C65.4599 13.3478 65.8572 12.8512 66.2545 12.2553C66.4532 11.9573 66.5525 11.6594 67.0491 11.4607C67.3471 11.3614 67.5457 10.9641 67.7443 10.6661C68.0423 10.2688 68.0423 9.67291 68.6383 9.47427C68.7376 10.1695 67.943 10.4675 68.1416 11.2621C68.6383 11.3614 69.1349 11.4607 69.7308 11.6594C69.7308 11.7587 69.7308 11.7587 69.7308 11.858C69.3335 11.858 68.9362 11.858 68.4396 11.858C67.4464 11.7587 67.1484 11.9573 66.7511 12.9506C67.0491 13.1492 67.5457 12.9506 67.7443 13.4472C67.0491 13.6458 66.1552 13.1492 65.5593 13.8445C65.2613 14.1424 64.864 14.4404 64.7647 15.0363C65.5593 15.0363 66.2545 15.1357 66.9498 15.1357C67.0491 15.1357 67.1484 15.1357 67.1484 15.0363C67.5457 14.3411 68.4396 14.5397 69.0355 14.2418C69.0355 14.2418 69.1349 14.2417 69.1349 14.3411C69.1349 14.8377 68.5389 14.7384 68.3403 15.1357C69.8301 15.235 71.32 14.937 72.9091 14.7384C72.5118 15.4336 71.5186 14.937 71.2206 15.8309C71.4193 16.0296 71.6179 16.2282 71.9159 16.6255C71.32 16.6255 71.1213 16.3275 70.9227 16.0296C70.724 15.5329 70.3267 15.5329 69.8301 15.5329C69.3335 15.5329 68.8369 15.6323 68.241 15.6323C68.3403 15.9302 68.3403 16.1289 68.3403 16.4268C68.241 16.4268 68.1416 16.4268 68.1416 16.4268C67.5457 15.3343 66.5525 15.6323 65.4599 15.6323C66.1552 16.9235 67.1484 17.6187 68.4396 18.1153C68.241 18.314 68.1416 18.5126 68.0423 18.6119C68.241 19.1086 69.0355 19.4065 68.6383 20.1018C69.0355 20.3004 69.4328 20.4991 69.8301 20.797C69.2342 21.1943 68.8369 20.4991 68.3403 20.797C68.241 21.095 68.1416 21.4923 67.943 21.8896C67.4464 21.4923 67.8437 21.1943 67.8437 20.8964C67.943 20.4991 68.0423 20.2011 68.241 19.8038C67.8437 19.3072 67.3471 18.8106 66.8505 18.314C66.6518 18.6119 66.4532 18.8106 66.3538 19.0092C66.2545 19.0092 66.2545 19.0092 66.2545 19.0092C66.2545 18.9099 66.1552 18.7113 66.2545 18.5126C66.4532 17.9167 66.2545 17.5194 65.9565 17.1221C65.5593 16.6255 65.0626 16.2282 64.4667 15.6323C64.4667 16.5262 64.2681 17.2214 64.6653 18.016C64.9633 18.5126 64.9633 19.3072 65.0626 19.9031C64.9633 19.9031 64.864 20.0025 64.7647 20.1018C64.6653 19.9031 64.566 19.8038 64.4667 19.5058C64.3674 19.8038 64.2681 20.1018 64.2681 20.3004C64.1687 20.3004 64.1687 20.3004 64.0694 20.3004C64.0694 19.8038 63.9701 19.3072 63.9701 18.7113C63.7715 18.7113 63.4735 18.7113 63.2748 18.7113C63.2748 18.6119 63.2748 18.5126 63.2748 18.5126C64.3674 17.8174 64.0694 16.8241 63.9701 15.8309C63.0762 16.6255 62.4803 17.4201 62.3809 18.5126C62.3809 18.7113 62.3809 19.0092 61.8843 19.0092C61.8843 18.8106 61.8843 18.5126 61.8843 18.2147C61.3877 18.7113 60.9904 19.1086 60.7918 19.7045C60.6925 20.1018 60.4938 20.4991 60.2952 20.8964C60.1958 20.9957 60.0965 21.095 59.7985 21.095C59.9972 20.5984 60.0965 20.1018 60.2952 19.6052C59.8979 19.5058 59.5006 19.4065 59.1033 19.3072C59.5999 18.8106 59.9972 19.1086 60.4938 19.1086C60.8911 18.6119 61.3877 18.016 61.8843 17.3207C61.487 17.1221 61.1891 17.0228 60.7918 16.9235C61.2884 16.5262 61.6857 16.5262 62.2816 16.8241C62.5796 16.4268 62.8775 16.1289 63.2748 15.6323C62.6789 15.3343 62.1823 15.235 61.6857 15.3343C61.487 15.3343 61.2884 15.5329 61.1891 15.7316C60.8911 15.9302 60.6925 16.2282 60.4938 16.5262C60.7918 16.2282 60.7918 16.1289 60.6924 16.1289Z" fill="black"/>
<path d="M90.1836 41.1512C90.5809 40.4559 90.9782 39.7607 91.4748 38.7674C89.5877 38.7674 87.8992 38.7674 85.9128 38.7674C85.2175 39.2641 85.2175 40.8532 83.4297 41.6478C84.2243 40.158 84.7209 38.9661 85.3168 37.7742C84.6216 37.2776 84.0256 36.8803 83.4297 36.483C84.3236 35.4898 85.3168 35.9864 85.8134 36.483C87.2039 37.9729 88.7931 37.5756 90.6802 37.3769C90.0843 36.6817 89.687 36.2844 89.0911 35.5891C91.2762 34.8939 92.2694 37.2776 93.9579 37.1783C95.547 37.1783 97.1362 38.1715 99.0233 37.4763C98.0301 35.6884 96.7389 34.4966 95.4477 33.3047C95.1497 33.0067 94.4545 33.1061 93.9579 33.0067C92.766 32.8081 92.766 32.8081 91.6735 31.7155C92.2694 31.5169 92.766 31.3183 93.2626 31.1196C93.1633 30.0271 92.1701 29.2325 90.7796 29.0338C89.8857 28.9345 88.9917 28.7359 87.9985 28.5372C87.7999 28.4379 87.6012 28.2393 87.1046 27.842C87.7006 27.7426 88.0978 27.4447 88.3958 27.544C90.5809 28.0406 90.7796 27.842 90.9782 25.5575C90.9782 25.3589 91.1768 25.1603 91.2762 25.0609C92.1701 24.9616 92.3687 25.6569 92.2694 26.1535C92.1701 28.4379 93.8586 29.5304 95.2491 30.921C96.143 30.2257 95.6464 28.8352 97.1362 28.2393C97.0369 29.0338 97.0369 29.5304 96.8382 30.0271C96.143 32.4108 97.2355 34 99.3213 35.3905C99.5199 33.702 99.7186 32.2122 98.924 30.623C98.7254 30.1264 98.5267 29.2325 98.8247 28.8352C99.8179 27.3454 99.5199 26.1535 98.626 24.8623C98.2288 24.3657 97.8315 23.8691 97.5335 23.2731C97.4342 23.0745 97.5335 22.6772 97.9308 22.1806C98.7254 23.1738 99.6193 24.2664 100.414 25.2596C101.804 24.167 103.096 23.0745 104.287 21.9819C104.387 22.0813 104.486 22.1806 104.585 22.2799C103.691 23.3724 102.897 24.6636 101.804 25.6569C100.513 26.9481 100.215 28.3386 100.612 30.1264C101.407 29.9277 102.102 29.6298 102.996 29.3318C102.897 30.2257 102.4 30.7223 101.804 31.1196C100.215 32.0135 100.215 33.3047 100.612 34.9932C102.301 34 103.493 32.7088 104.387 31.1196C104.883 30.2257 105.281 29.4311 106.373 29.0338C107.068 28.7359 107.565 27.6433 108.062 26.9481C108.757 25.9548 108.956 24.465 110.445 23.7697C110.644 25.5575 108.757 26.4514 109.154 28.3386C110.445 28.6365 111.836 28.9345 113.226 29.2325C113.226 29.4311 113.226 29.5304 113.127 29.7291C112.035 29.7291 110.942 29.7291 109.949 29.7291C107.366 29.6298 106.671 30.0271 105.579 32.6094C106.274 33.2054 107.664 32.7088 108.26 34C106.373 34.4966 104.287 33.2054 102.698 34.9932C101.904 35.7878 101.01 36.483 100.712 37.9729C102.698 38.0722 104.585 38.2708 106.373 38.3702C106.572 38.3702 106.87 38.2708 106.969 38.1715C108.161 36.2844 110.247 36.781 111.935 35.9864C111.935 35.9864 112.035 36.0857 112.233 36.1851C112.233 37.4763 110.545 37.079 110.147 38.2708C114.12 38.4695 117.795 37.6749 121.868 37.2776C120.775 39.1647 118.193 37.8735 117.497 40.0586C117.895 40.5552 118.491 41.1512 119.186 41.9458C117.795 41.9458 117.001 41.2505 116.603 40.4559C116.007 39.2641 115.014 39.0654 113.922 39.1647C112.631 39.2641 111.339 39.3634 109.949 39.562C110.048 40.3566 110.147 40.9525 110.247 41.5485C109.949 41.5485 109.75 41.6478 109.651 41.5485C108.062 38.7674 105.479 39.3634 102.798 39.3634C104.486 42.641 107.068 44.5281 110.346 45.8193C109.949 46.4153 109.651 46.8126 109.353 47.2099C109.75 48.6004 111.935 49.1963 110.942 51.1828C111.935 51.7787 112.928 52.2753 114.021 52.8712C112.631 53.9638 111.538 52.0767 110.247 52.8712C109.949 53.6658 109.651 54.5597 109.353 55.6523C108.062 54.7584 109.055 53.8645 109.154 53.0699C109.254 52.176 109.849 51.3814 110.247 50.1895C109.154 48.9977 107.962 47.7065 106.671 46.316C106.175 47.0112 105.777 47.5078 105.38 48.0044C105.281 48.0044 105.181 47.9051 104.983 47.9051C104.983 47.5078 104.883 47.1105 104.983 46.7132C105.579 45.3227 104.983 44.2302 104.089 43.1376C102.996 41.8464 101.804 40.7539 100.215 39.3634C100.315 41.7471 99.6193 43.5349 100.811 45.4221C101.705 46.8126 101.606 48.6997 101.904 50.2889C101.705 50.3882 101.506 50.5868 101.208 50.6861C101.01 50.2889 100.811 49.7922 100.513 49.1963C100.215 49.9909 100.116 50.5868 99.9172 51.1828C99.7186 51.1828 99.6193 51.1828 99.4206 51.1828C99.3213 49.8916 99.222 48.6004 99.1227 47.2099C98.4274 47.2099 97.9308 47.2099 97.4342 47.2099C97.4342 46.9119 97.3348 46.7132 97.4342 46.7132C100.215 44.9254 99.4206 42.4424 99.1227 39.7607C96.7389 41.7471 95.3484 43.8329 95.0504 46.7132C94.9511 47.3092 95.0504 48.1038 93.8586 48.0044C93.8586 47.4085 93.7592 46.8126 93.7592 46.018C92.3687 47.2099 91.3755 48.3024 90.8789 49.7922C90.5809 50.7855 90.1836 51.878 89.687 52.7719C89.4884 53.0699 89.0911 53.2685 88.3958 53.2685C88.7931 52.0767 89.2897 50.7855 89.687 49.395C88.5945 49.097 87.7999 48.8983 86.7073 48.6004C87.9985 47.4085 89.0911 48.2031 90.2829 48.1038C91.3755 46.7132 92.5674 45.2234 93.8586 43.6342C92.766 43.237 92.0708 42.939 91.1769 42.5417C92.5674 41.4492 93.3619 41.4492 95.0504 42.3431C95.845 41.4492 96.7389 40.4559 97.7321 39.3634C96.2423 38.5688 94.8518 38.4695 93.5606 38.5688C93.064 38.5688 92.6667 39.1647 92.2694 39.562C91.5741 40.158 90.9782 40.8532 90.3823 41.5485C90.5809 41.4492 90.3823 41.2505 90.1836 41.1512Z" fill="white"/>
</svg>
