<svg width="145" height="123" viewBox="0 0 145 123" fill="none" xmlns="http://www.w3.org/2000/svg">
<path d="M133.928 56.7219C134.199 57.5468 134.47 58.3717 134.632 58.8667C134.957 59.8566 135.282 60.8465 135.553 61.6714C135.878 62.6614 136.203 63.6513 136.583 64.8062L136.691 65.1362C136.799 65.4661 136.962 65.9611 137.07 66.2911C137.389 67.8341 136.694 69.7259 135.221 70.9673C134.032 71.9274 132.343 72.5088 130.992 72.9739L129.133 73.6134C130.446 76.4669 131.591 79.3785 132.62 82.5132C133.162 84.1631 133.704 85.813 134.022 87.356C134.293 88.1809 134.341 88.899 134.612 89.7239L134.822 90.937C134.931 91.267 135.039 91.5969 134.81 92.0432C134.465 92.7126 133.79 92.9451 133.621 93.0033L130.58 94.0498C127.877 94.98 125.174 95.9102 122.64 96.7823C120.106 97.6544 117.234 98.6428 114.7 99.5149L72.5204 114.215L70.831 114.796C70.6621 114.854 70.4932 114.913 70.3242 114.971C70.1553 115.029 70.1553 115.029 69.9863 115.087C69.1417 115.378 68.4659 115.61 67.7902 115.843C66.2698 116.366 65.0331 116.608 63.7963 116.85C63.2353 116.859 62.7285 117.034 61.9444 116.936C61.5524 116.888 61.1603 116.839 60.9372 116.732C60.7141 116.625 60.3221 116.577 59.93 116.528C58.977 116.489 58.3076 116.168 57.6925 116.013L57.3004 115.964C56.239 115.595 55.3466 115.167 54.5688 114.517C54.1226 114.303 53.8453 114.031 53.5138 113.594C53.1824 113.158 53.0198 112.663 52.8573 112.168C52.5864 111.343 52.3696 110.683 51.984 110.081C51.7673 109.421 51.3816 108.819 51.1649 108.159L50.9482 107.499C50.7314 106.839 50.4605 106.014 50.3522 105.684C49.3227 102.55 48.3475 99.5799 47.318 96.4452C46.4512 93.8054 45.6384 91.3306 44.7716 88.6908L41.7374 79.4516C41.304 78.1317 40.9247 76.9768 40.5454 75.8219C40.4913 75.6569 40.2745 74.997 40.0036 74.172C39.516 72.6872 38.7575 70.3774 38.5408 69.7174C37.6133 67.4657 36.9089 65.3209 36.2046 63.1761C35.7775 61.3031 35.3441 59.9832 34.7481 58.1684C34.3147 56.8485 33.7728 55.1986 33.961 53.4812C34.2638 51.5406 35.405 49.8624 36.6003 48.3493C37.1135 47.6218 37.7414 46.6711 38.4778 46.0504C39.5519 45.3135 40.5114 44.7997 41.6939 44.3927C44.5116 43.2393 50.0259 41.7088 53.2898 40.7692L53.9656 40.5366C53.9656 40.5366 54.1345 40.4785 54.0803 40.3135L56.5252 37.4521C56.6941 37.394 56.8089 37.1708 56.8089 37.1708C56.9236 36.9477 57.8353 35.7158 58.0042 35.6577C59.6521 33.8051 62.7855 29.605 64.8925 26.8599C66.0336 25.1817 66.8847 24.3379 67.1142 23.8917C67.9653 23.0479 70.018 20.1378 70.2476 19.6915C70.3623 19.4684 70.646 19.1871 70.9297 18.9059L71.2134 18.6246C72.0039 18.1689 72.9027 18.0432 74.0183 18.5774C74.2414 18.6843 74.9108 19.0048 79.7523 22.2967L80.1986 22.5104C81.1452 23.1027 82.146 23.8601 83.0927 24.4525C83.5453 24.1131 84.1127 23.5505 84.5111 23.0461L84.7948 22.7649C84.9637 22.7067 85.0785 22.4836 85.2474 22.4255C85.3622 22.2023 85.7001 22.0861 85.869 22.0279C86.2069 21.9116 86.1527 21.7467 86.3216 21.6885L86.6053 21.4072C87.1727 20.8447 87.9632 20.389 88.5306 19.8265L89.1521 19.429C89.8342 18.6433 90.9084 17.9063 91.9284 17.0044C92.4958 16.4419 93.0632 15.8793 94.0162 15.9186C95.2529 15.6766 96.139 16.6571 96.5247 17.2589C97.1334 17.9676 99.0139 20.2585 99.0681 20.4235C99.3996 20.8603 99.7853 21.4621 100.286 21.8408C100.563 22.1126 100.949 22.7144 101.557 23.4231C102.402 23.1324 103.416 22.7836 104.598 22.3766L107.977 21.2138C108.653 20.9812 109.666 20.6324 110.728 21.0016C111.789 21.3709 112.283 22.3027 112.723 23.0694C114.97 27.6215 116.71 32.348 117.943 37.2488C118.16 37.9088 118.262 38.7919 118.479 39.4518C118.804 40.4417 118.96 41.4898 119.285 42.4797C119.61 43.4696 119.99 44.6245 120.369 45.7794C121.045 45.5469 121.72 45.3143 122.396 45.0817C124.085 44.5003 125.829 44.0839 127.62 44.3856C128.235 44.5412 128.851 44.6967 129.351 45.0754C129.797 45.2891 130.129 45.7259 130.46 46.1627C130.9 46.9295 131.117 47.5895 131.219 48.4725C131.76 50.1224 133.007 53.9171 133.928 56.7219Z" fill="white"/>
<path d="M48.7763 63.5792C54.8316 62.2367 60.9471 60.5131 67.1762 58.5706C71.0685 57.4244 74.9074 56.116 78.8531 55.1319C81.0763 54.5546 83.2995 53.9772 85.5761 53.5619C87.1316 53.2121 88.9075 52.9675 90.5164 52.7798C95.9041 51.6648 101.412 49.7877 106.7 47.8053C108.035 47.3502 109.537 46.8383 110.766 46.059C112.048 45.4418 113.056 44.5572 113.51 43.6812C113.911 42.6431 113.257 41.7842 112.436 40.9822C112.216 40.8769 112.163 40.7148 111.775 40.6665C111.555 40.5612 111.221 40.675 110.888 40.7888C104.992 42.6176 98.9835 44.6654 93.0882 46.4942C88.4147 48.0869 83.6879 49.5176 79.288 51.3777C76.8377 52.393 74.2739 53.6274 71.7702 54.4807C69.6004 55.2201 67.2103 55.8544 65.0404 56.5939C63.318 57.0006 61.482 57.6263 59.8129 58.1952C58.1437 58.764 56.3077 59.3897 54.6386 59.9586C52.9695 60.5274 51.1335 61.1531 49.5178 61.8841C48.6832 62.1685 47.8487 62.4529 47.0675 62.8994C46.5667 63.0701 45.9525 63.4597 45.7254 63.8977C45.4449 64.1736 45.8321 64.222 46.2193 64.2703C47.1072 64.148 47.8282 64.0826 48.6628 63.7982C48.4425 63.693 48.6094 63.6361 48.7763 63.5792Z" fill="#BCBCBB"/>
<path d="M108.231 69.9147C108.34 70.2451 108.503 70.7405 108.273 71.1872C108.151 71.9643 107.245 72.6438 106.954 73.479C107.462 73.3044 107.969 73.1298 108.646 72.897C108.815 72.8388 108.985 72.7806 108.985 72.7806C109.154 72.7224 109.1 72.5573 109.214 72.3339C109.329 72.1105 109.668 71.9941 109.952 71.7126C110.236 71.431 110.073 70.9356 110.134 70.547C109.917 69.8864 109.754 69.391 109.422 68.9537C109.368 68.7885 109.144 68.6816 108.921 68.5746C108.697 68.4677 108.528 68.5259 108.359 68.5841C108.19 68.6423 107.966 68.5353 107.797 68.5935C107.628 68.6517 107.513 68.8751 107.682 68.8169C107.737 68.982 107.737 68.982 107.96 69.089C108.014 69.2541 108.014 69.2541 108.068 69.4193C108.068 69.4193 108.123 69.5844 108.231 69.9147Z" fill="#BCBCBB"/>
<path d="M121.349 47.3029C122.019 47.6236 122.52 48.0026 122.906 48.6048C123.461 49.1488 123.847 49.751 124.064 50.4113C124.281 51.0717 124.498 51.7321 124.207 52.567C124.093 52.7902 124.032 53.1786 123.917 53.4019C123.687 53.8484 123.458 54.2949 123.228 54.7415C124.635 54.4411 125.819 54.0339 127.117 53.4034C127.455 53.287 127.793 53.1707 127.854 52.7823C127.969 52.559 128.138 52.5009 128.084 52.3358C128.199 52.1125 128.368 52.0543 128.652 51.7729C129.389 51.1518 129.178 49.938 129.076 49.0544C128.859 48.394 128.696 47.8987 128.649 47.1802C128.432 46.5198 128.215 45.8594 127.545 45.5387C127.044 45.1598 126.482 45.1692 125.921 45.1787C125.19 45.2463 124.46 45.3139 123.729 45.3815C122.999 45.4491 122.268 45.5168 121.592 45.7495C120.915 45.9822 120.185 46.0498 119.508 46.2825C119.339 46.3407 119.001 46.457 119.109 46.7872C119.164 46.9523 119.218 47.1174 119.387 47.0592C119.949 47.0498 120.679 46.9822 121.349 47.3029Z" fill="#BCBCBB"/>
<path d="M119.057 78.7858C120.915 78.6992 122.997 78.7197 124.448 79.6927C124.896 79.9068 125.228 80.3445 125.73 80.7239C126.232 81.1034 126.565 81.541 127.067 81.9205C127.623 82.4652 128.18 83.01 128.566 83.613C129.062 84.5466 129.219 85.5968 129.714 86.5304C130.21 87.4641 130.821 88.1741 131.147 89.166C131.31 89.662 131.249 90.0509 131.581 90.4886C131.69 90.8192 131.968 91.0916 132.192 91.1986C132.525 91.6363 132.972 91.8504 133.305 92.2881C133.765 91.3939 133.494 90.5673 133.222 89.7407C131.815 84.8883 129.785 80.4342 128.378 75.5818C128.269 75.2512 128.106 74.7553 127.713 74.7064C127.489 74.5994 127.32 74.6576 127.15 74.7159C125.008 75.0843 122.92 75.618 121.001 76.0935C120.154 76.3848 119.252 76.5107 118.405 76.802C117.558 77.0932 116.71 77.3845 115.917 77.8411C115.578 77.9576 115.124 78.2977 114.785 78.4142C114.616 78.4724 114.501 78.696 114.162 78.8125C113.992 78.8708 113.992 78.8708 113.877 79.0943C113.877 79.0943 113.708 79.1526 113.762 79.3179C113.647 79.5415 114.603 79.5808 114.603 79.5808C114.996 79.6296 115.505 79.4549 115.898 79.5037C116.8 79.3777 117.701 79.2518 118.603 79.1258C118.833 78.6787 119.057 78.7858 119.057 78.7858Z" fill="#BCBCBB"/>
<path d="M133.063 65.7563C132.719 66.4254 132.206 67.1527 131.639 67.715C130.444 69.2276 129.249 70.7402 127.723 71.8161C127.271 72.1554 126.65 72.5528 126.474 73.1638C126.529 73.3287 126.36 73.3868 126.414 73.5518C126.522 73.8816 127.083 73.8722 127.421 73.7559C129.501 73.2235 131.473 72.3611 133.222 71.392C134.012 70.9365 134.802 70.481 135.146 69.8119C135.376 69.3658 135.382 68.8129 135.388 68.26C135.401 67.1542 135.583 65.9903 135.258 65.0008C135.21 64.283 134.825 63.6814 134.554 62.8568C134.391 62.362 134.229 61.8673 133.844 61.2657C133.789 61.1008 133.735 60.9358 133.566 60.9939C133.398 61.0521 133.283 61.2751 133.337 61.44C133.222 61.6631 133.276 61.828 133.331 61.9929C133.385 62.1578 133.324 62.5458 133.378 62.7107C133.372 63.2636 133.311 63.6516 133.305 64.2045C133.299 64.7574 133.292 65.3102 133.063 65.7563Z" fill="#BCBCBB"/>
<path d="M50.0251 43.616C49.4055 44.0124 48.732 44.2443 48.1124 44.6407C47.6612 44.9792 47.2101 45.3176 46.9813 45.7626C45.3386 47.61 43.6959 49.4574 41.8308 51.1983C41.4337 51.7012 40.9825 52.0397 40.5853 52.5427C39.5622 53.9937 38.9838 55.6578 38.7962 57.3705C38.7835 58.4737 38.7707 59.5768 38.1447 60.5248C38.1447 60.5248 38.0303 60.7473 37.8619 60.8053C37.6935 60.8633 37.6395 60.6987 37.6395 60.6987C36.534 59.6143 36.102 58.298 35.616 56.8172C35.3461 55.9945 35.0761 55.1718 35.1429 54.2332C35.0953 53.517 35.2701 52.9075 35.4448 52.2979C36.1376 50.4113 36.8303 48.5247 38.2442 47.1223C38.9782 46.5034 39.7661 46.049 40.5541 45.5946C41.5104 45.0822 42.5208 44.7344 43.4771 44.2221C44.6558 43.8163 45.6661 43.4685 46.6765 43.1206C47.6868 42.7728 48.6971 42.425 49.8759 42.0192C50.381 41.8453 50.8862 41.6714 51.3914 41.4975C51.7281 41.3815 52.2873 41.3722 52.2269 41.7592C52.1665 42.1463 51.8837 42.4267 51.601 42.7072C51.1498 43.0457 50.6986 43.3841 50.3618 43.5001C50.1935 43.558 50.1935 43.558 50.0251 43.616Z" fill="#BCBCBB"/>
<path d="M57.8742 100.641C62.6475 103.76 68.2759 105.486 74.146 105.664C76.8283 105.839 79.6855 105.405 82.4283 105.194C87.8598 104.606 93.4598 103.961 98.9453 103.538C93.6154 105.006 88.7717 107.956 83.6039 109.918C81.2456 110.73 78.8874 111.542 76.4751 112.19C72.8837 113.243 69.4608 114.238 65.8694 115.291C64.8587 115.639 63.6256 115.88 62.5068 115.899C61.5566 115.86 60.4983 115.492 59.6084 115.065C58.4961 114.532 57.2153 114.057 56.2174 113.302C53.9452 111.519 53.0269 108.721 52.1626 106.088C50.7042 101.644 49.1917 97.0351 47.7332 92.5911C47.5171 91.9327 47.3011 91.2744 47.2534 90.558C47.1994 90.3934 46.8817 88.8541 47.2726 88.9027C47.1646 88.5735 47.3266 89.0673 47.3807 89.2319C47.4887 89.5611 47.7652 89.8323 47.8732 90.1614C48.2577 90.7618 48.6422 91.3622 48.9727 91.798C49.7418 92.9987 50.4568 94.0349 51.3402 95.0131C52.2237 95.9913 53.1072 96.9694 54.1591 97.8896C55.211 98.8098 56.2089 99.5654 57.4292 100.428C57.6517 100.534 57.7057 100.699 57.8742 100.641Z" fill="#BCBCBB"/>
<path d="M110.677 31.17C111 32.7228 111.035 34.5586 110.219 36.13C110.102 36.3545 109.814 36.6374 109.924 36.9695C109.807 37.194 109.917 37.5261 110.027 37.8582C110.247 38.5223 110.412 39.0205 110.632 39.6847C110.687 39.8507 110.742 40.0168 110.914 39.9583C110.914 39.9583 111.14 40.0659 111.312 40.0075C112.568 39.7645 113.995 39.463 115.251 39.22C115.594 39.1031 115.766 39.0446 116.054 38.7617C116.342 38.4788 116.177 37.9807 116.067 37.6486C115.359 34.9334 114.425 32.1106 113.545 29.4539C113.27 28.6236 112.94 27.6274 112.494 26.8556C111.718 25.0875 110.255 23.5532 109.019 22.1265C108.738 21.8529 108.395 21.9697 108.051 22.0866C107.708 22.2035 107.592 22.428 107.475 22.6525C107.297 23.2675 107.86 23.8148 108.196 24.2545C109.034 25.632 109.701 27.068 110.195 28.5624C110.47 29.3926 110.574 30.2813 110.677 31.17Z" fill="#BCBCBB"/>
<path d="M88.5412 43.4941C91.2761 42.1965 94.0109 40.899 95.5956 38.3656C95.9901 37.8686 96.1639 37.266 96.7791 36.8746C97.3942 36.4831 97.8422 36.1489 98.4507 36.3028C98.8386 36.3511 99.1127 36.6194 99.3869 36.8877C101.085 38.6601 102.45 40.5469 103.312 42.6052C100.236 44.5624 96.5654 45.2751 93.2756 46.5814C91.4368 47.2104 89.8721 48.1077 88.0868 48.8994C85.1313 50.0914 81.9551 51.1778 78.8926 52.0444C70.3136 54.7979 61.7881 57.7141 53.3696 60.9558C53.2626 60.6304 52.9884 60.3621 52.8814 60.0366C52.8279 59.8739 52.7744 59.7112 52.8881 59.4913C52.8881 59.4913 53.2224 59.3769 53.3896 59.3197C53.6704 59.0426 54.0047 58.9283 54.2856 58.6512C55.3487 57.9254 56.5791 57.1425 57.6957 56.5795C58.8124 56.0165 60.0427 55.2336 61.3266 54.6134C62.6104 53.9933 63.7271 53.4303 65.0109 52.8101C66.2947 52.1899 67.4649 51.7896 68.7487 51.1695C70.0861 50.712 71.2027 50.149 72.5401 49.6916C73.8774 49.2341 74.9941 48.6711 76.3314 48.2137C77.6687 47.7562 78.7854 47.1932 80.1227 46.7358C81.4601 46.2783 82.5767 45.7153 83.9141 45.2579C85.2514 44.8004 86.3681 44.2374 87.6519 43.6172C87.8726 43.7228 88.2069 43.6084 88.5412 43.4941Z" fill="#BCBCBB"/>
<path d="M55.8397 54.4472C50.6512 56.2258 45.5097 58.7144 40.5892 61.3087C40.2545 61.4235 39.9734 61.7014 40.027 61.8645C40.1342 62.1908 40.3551 62.2966 40.5761 62.4023C42.9531 63.4027 45.8991 63.3004 48.4698 62.0561C48.9719 61.884 49.4204 61.5487 49.7016 61.2708C49.9827 60.9929 50.0429 60.6093 50.3776 60.4945C50.8261 60.1593 51.3282 59.9871 51.7768 59.6519C52.2253 59.3166 52.5064 59.0387 52.9549 58.7034C54.3005 57.6976 55.9742 57.1239 57.2661 55.9549C57.5473 55.677 57.9422 55.1786 58.2233 54.9007C58.5045 54.6228 58.8994 54.1244 59.1269 53.6833C59.2407 53.4628 59.3009 53.0792 59.1335 53.1365C58.9661 53.1939 58.6314 53.3087 58.464 53.366C58.2967 53.4234 57.9619 53.5382 57.7945 53.5955C57.0113 54.0455 56.5092 54.2177 55.8397 54.4472Z" fill="#BCBCBB"/>
<path d="M73.6313 28.3112C72.7683 30.2598 71.9594 32.3732 71.0964 34.3218C74.768 31.7734 78.2167 29.1183 81.6113 26.2983C81.7801 26.2402 81.8947 26.0173 82.0094 25.7943C81.9553 25.6294 81.9011 25.4646 81.847 25.2997C81.1847 24.4267 80.5765 23.7186 79.7996 23.0685C79.0226 22.4185 78.0769 21.8265 77.1312 21.2346C76.6854 21.021 76.4084 20.7494 75.8479 20.7588C75.2875 20.7682 75.4499 21.2628 75.3893 21.6507C75.3766 22.7561 75.1409 23.7547 74.9052 24.7533C74.6695 25.7519 74.2651 26.8086 73.8606 27.8653C73.746 28.0883 73.8001 28.2531 73.6313 28.3112Z" fill="#BCBCBB"/>
<path d="M127.756 53.8373C127.586 53.8955 127.417 53.9537 127.194 53.8468C127.025 53.905 126.632 53.8562 126.463 53.9144L126.294 53.9726C125.477 56.6429 124.606 59.1481 123.498 62.6535C125.892 59.6246 126.6 56.624 127.756 53.8373Z" fill="black"/>
<path d="M123.806 55.9138C123.806 55.9138 123.583 55.8069 123.806 55.9138C123.414 55.865 123.191 55.7581 123.021 55.8163C122.852 55.8745 122.629 55.7676 122.46 55.8257C122.291 55.8839 122.291 55.8839 122.067 55.777C121.196 58.2823 120.324 60.7876 119.507 63.458C119.785 63.73 119.954 63.6718 120.177 63.7788C121.441 61.3222 122.536 58.9239 123.408 56.4186C123.522 56.1953 123.692 56.1371 123.806 55.9138Z" fill="black"/>
<path d="M71.9439 18.6824C71.6033 18.7992 71.433 18.8575 71.2626 18.9159C71.0923 18.9742 70.922 19.0326 70.922 19.0326C70.7517 19.091 70.7517 19.091 70.5814 19.1493C70.7258 21.3126 70.7804 21.4783 70.9793 23.8073C71.2042 23.9146 71.3745 23.8562 71.5448 23.7979C71.7411 21.5179 71.6865 21.3522 71.8828 19.0722C72.0531 19.0138 71.9985 18.8481 71.9439 18.6824Z" fill="black"/>
<path d="M73.5471 18.5056C73.4924 18.3398 73.4924 18.3398 73.5471 18.5056C73.2061 18.6223 73.2061 18.6223 73.0356 18.6807C72.8652 18.7391 72.8652 18.7391 72.6947 18.7975L72.5242 18.8559C72.5593 20.6884 72.7845 20.7958 72.8196 22.6283C73.0447 22.7357 73.2152 22.6773 73.3857 22.6189C73.521 20.728 73.521 20.728 73.6564 18.8371C73.6017 18.6713 73.5471 18.5056 73.5471 18.5056Z" fill="black"/>
<path d="M49.831 99.4316C49.8851 99.5966 49.9393 99.7615 49.9935 99.9264C50.0476 100.091 50.1559 100.421 50.0412 100.644L50.0954 100.809C52.724 101.373 54.6166 102.558 58.252 103.326C54.9671 101.335 52.7368 100.267 49.831 99.4316Z" fill="black"/>
<path d="M51.912 103.349C51.912 103.349 51.966 103.514 51.912 103.349C51.8515 103.736 51.737 103.959 51.7911 104.124C51.8451 104.288 51.8992 104.453 51.7306 104.511C51.7847 104.676 51.7847 104.676 51.8387 104.841C54.0173 105.19 54.5771 105.181 56.8097 105.696C57.0928 105.415 57.0387 105.25 57.1533 105.027C55.0351 104.29 54.4213 104.135 52.3572 103.562C52.3031 103.397 52.1346 103.456 51.912 103.349Z" fill="black"/>
<path d="M107.999 74.3729C107.829 74.4317 107.829 74.4317 107.999 74.3729C107.15 74.6669 106.195 74.6324 105.302 74.2105C105.079 74.105 104.463 73.9528 104.134 73.5188C103.581 72.9793 103.591 72.4276 103.377 71.7705C103.217 71.2776 103.281 70.8902 103.121 70.3974C103.184 70.01 103.077 69.6815 103.48 69.1765C103.766 68.8946 103.829 68.5072 104.285 68.1665C104.857 67.6028 105.706 67.3087 106.385 67.0735C106.894 66.8971 107.573 66.6619 108.189 66.8141C108.974 66.9074 109.697 67.3881 110.303 68.0919C110.686 68.6903 110.899 69.3474 111.113 70.0045C111.273 70.4974 111.316 71.2133 110.797 71.9414C110.448 72.6106 109.992 72.9513 109.706 73.2332C109.08 73.6327 108.508 74.1965 107.999 74.3729ZM106.409 68.8928C106.069 69.0104 105.56 69.1868 105.274 69.4687C105.104 69.5275 104.988 69.7506 104.871 69.9736C104.871 69.9736 104.871 69.9737 104.755 70.1967C104.692 70.5841 104.798 70.9127 104.905 71.2412C105.012 71.5698 105.118 71.8984 105.225 72.2269C105.278 72.3912 105.501 72.4967 105.724 72.6022C106.171 72.8131 106.786 72.9653 107.126 72.8477C107.465 72.7301 107.752 72.4482 108.207 72.1075C108.494 71.8256 108.833 71.708 108.95 71.4849C109.066 71.2618 108.959 70.9333 109.022 70.5459C108.862 70.053 108.703 69.5602 108.596 69.2316C108.319 68.9619 108.043 68.6921 107.65 68.6454C107.257 68.5988 106.918 68.7164 106.579 68.834C106.579 68.834 106.579 68.834 106.409 68.8928Z" fill="black"/>
<path d="M62.2488 109.823L61.5512 108.252C62.9584 107.403 64.6396 106.823 66.3208 106.242L66.8503 107.872C65.1691 108.452 63.656 108.975 62.2488 109.823Z" fill="black"/>
<path d="M76.102 105.118C75.4303 105.349 74.7586 105.581 74.0869 105.813L73.5576 104.185C75.0689 103.664 76.7482 103.085 78.2595 102.564L78.7888 104.191C77.9492 104.481 77.1096 104.77 76.102 105.118Z" fill="black"/>
<path d="M89.9236 98.6088L85.2217 100.23L85.751 101.857L90.4529 100.236L89.9236 98.6088Z" fill="black"/>
<path d="M99.598 97.15C98.9267 97.3813 98.2553 97.6126 97.5839 97.844L97.0547 96.2173C98.7331 95.639 100.411 95.0607 102.09 94.4824L102.619 96.1091C101.78 96.3982 100.605 96.803 99.598 97.15Z" fill="black"/>
<path d="M113.923 90.4711L109.221 92.0923L109.75 93.7197L114.452 92.0986L113.923 90.4711Z" fill="black"/>
<path d="M121.47 89.93L120.772 88.357C121.95 87.9496 123.244 87.321 124.591 86.8555L125.12 88.4867C123.942 88.894 122.595 89.3596 121.47 89.93Z" fill="black"/>
<path d="M53.0067 70.3822C51.4958 70.9029 49.932 71.2609 48.5361 71.5611L48.1747 69.8762C50.0743 69.4025 52.1417 68.8709 53.9354 68.0718L54.4646 69.6988C54.1818 69.9772 53.6782 70.1508 53.0067 70.3822Z" fill="black"/>
<path d="M60.9201 67.5373L60.2229 65.9675C61.8495 65.2254 63.5291 64.6462 65.2086 64.067L65.738 65.6947C64.0584 66.274 62.5997 66.9581 60.9201 67.5373Z" fill="black"/>
<path d="M77.7043 59.8293L71.8359 61.8481L72.3652 63.4734L78.2336 61.4545L77.7043 59.8293Z" fill="black"/>
<path d="M89.7623 55.928L84.0605 57.8901L84.5898 59.5156L90.2916 57.5535L89.7623 55.928Z" fill="black"/>
<path d="M99.1037 54.5763C98.0968 54.9231 97.09 55.2699 96.0302 55.454L95.6688 53.7698C97.5676 53.2967 99.2456 52.7187 101.039 51.9202L101.736 53.4888C100.897 53.7778 100.111 54.2295 99.1037 54.5763Z" fill="black"/>
<path d="M108.922 51.2568C108.586 51.3726 108.082 51.5463 107.747 51.6622L107.385 49.9766C108.614 49.734 109.904 49.1079 111.195 48.4818L112.486 47.8557L113.183 49.4254L111.892 50.0515C110.77 50.6197 109.93 50.9093 108.922 51.2568Z" fill="black"/>
<path d="M71.262 114.727C71.0924 114.786 70.9228 114.845 70.5835 114.962C70.4139 115.021 70.2443 115.08 70.0747 115.138C69.905 115.197 69.905 115.197 69.7354 115.256C68.8873 115.55 68.2088 115.785 67.5304 116.02C66.0038 116.549 64.7631 116.796 63.5225 117.043C62.9604 117.055 62.2819 117.29 61.6665 117.138C61.2739 117.092 60.8814 117.045 60.6585 116.94C60.266 116.893 59.8735 116.846 59.6506 116.741C58.6959 116.706 58.0272 116.39 57.4118 116.238L57.1356 115.968C56.0743 115.605 55.1827 115.184 54.4074 114.539C53.9616 114.328 53.6854 114.059 53.356 113.625C53.0265 113.191 52.8667 112.698 52.7068 112.206C52.4404 111.385 52.2272 110.728 51.8445 110.13C51.6314 109.473 51.2486 108.875 51.0355 108.218L50.8223 107.562C50.6092 106.905 50.3428 106.084 50.2362 105.755C49.2238 102.636 48.2647 99.6803 47.2523 96.5606C46.3998 93.9335 45.6005 91.4706 44.748 88.8435L41.7641 79.6486C41.3378 78.335 40.9648 77.1857 40.5386 75.8721C40.4853 75.7079 40.2721 75.0512 40.0057 74.2302C39.5262 72.7524 38.7802 70.4537 38.5671 69.7969C37.7047 67.7212 37.0121 65.5867 36.3194 63.4521C35.9029 61.5872 35.4766 60.2737 34.8905 58.4675C34.4642 57.154 33.9314 55.512 34.1303 53.7992C34.4456 51.8634 35.5992 50.1852 36.806 48.6711C37.3247 47.9434 37.9596 46.9928 38.7012 46.3706C39.7287 45.4666 40.7464 45.114 41.9337 44.7026C44.764 43.5393 50.2984 41.9871 53.5212 40.8705L54.1996 40.6354L54.6694 42.6645L53.991 42.8996C50.7149 43.852 45.4034 45.5097 42.5731 46.6729C41.725 46.9668 40.7606 47.4836 39.9658 47.9416C39.3938 48.5051 38.8219 49.0686 38.3033 49.7962C37.3824 51.0286 36.3451 52.4839 36.2625 53.9737C36.1267 55.2994 36.4996 56.4488 36.9259 57.7623C37.512 59.5685 37.7687 60.9408 38.3548 62.7469C38.8246 64.776 39.6869 66.8518 40.4959 68.7633C40.7091 69.4201 41.2952 71.2262 41.9879 73.3608C42.201 74.0176 42.4141 74.6743 42.4674 74.8385C42.8937 76.1521 43.2667 77.3014 43.693 78.615L46.6769 87.8099C47.5294 90.437 48.3286 92.8999 49.1812 95.527C50.1936 98.6467 51.1527 101.602 52.1651 104.722C52.2716 105.05 52.5381 105.871 52.7512 106.528L52.9643 107.185C53.1775 107.842 53.3906 108.498 53.7734 109.096C53.9865 109.753 54.4225 110.515 54.689 111.336C54.7955 111.665 54.9021 111.993 54.9554 112.157C55.0087 112.321 55.2316 112.427 55.5078 112.697C56.2297 113.177 57.1214 113.599 57.9597 113.856L58.1826 113.962C58.798 114.114 59.2438 114.325 59.806 114.312C60.3681 114.3 60.8139 114.511 61.2065 114.558C61.4294 114.663 61.8219 114.71 61.9915 114.651C62.4906 115.026 63.0527 115.014 63.392 114.897C64.463 114.708 65.7036 114.461 67.0606 113.991C67.7391 113.756 68.2479 113.579 68.9264 113.344C69.2656 113.227 69.6049 113.109 69.9441 112.992C70.453 112.815 70.9618 112.639 71.3011 112.522L113.769 97.4422C116.822 96.3844 120.045 95.2678 123.098 94.2099C125.303 93.4459 127.508 92.682 129.713 91.918L132.427 90.9777L132.161 90.1567C131.895 89.3357 131.851 88.6202 131.585 87.7992C131.275 86.2627 130.742 84.6207 130.209 82.9788C129.197 79.8591 128.015 76.7982 126.663 73.796L128.645 72.9266C129.997 75.9288 131.232 79.1539 132.298 82.4378C132.831 84.0797 133.363 85.7217 133.673 87.2582C133.94 88.0791 133.983 88.7947 134.25 89.6157L134.453 90.8238C134.506 90.988 134.666 91.4806 134.434 91.9265C134.138 92.7596 133.406 92.8305 133.236 92.8892L130.183 93.9471C127.469 94.8874 124.755 95.8277 122.211 96.7092C119.497 97.6495 116.953 98.531 114.239 99.4713L71.9405 114.492C71.7709 114.551 71.6012 114.609 71.262 114.727Z" fill="black"/>
<path d="M121.149 55.5184C119.667 51.5962 117.903 47.4013 116.712 43.1953C116.384 42.2001 116.23 41.1458 115.903 40.1505C115.685 39.487 115.585 38.5986 115.367 37.9351C114.185 33.1725 112.43 28.421 110.211 24.0122C110.048 23.5146 109.656 22.91 109.201 22.6962C108.801 22.6483 108.228 22.6593 107.536 22.8952C106.498 23.249 105.288 23.6618 104.077 24.0746C102.867 24.4874 101.656 24.9002 100.619 25.254L100.073 23.5952C101.111 23.2414 102.321 22.8286 103.532 22.4158C104.742 22.003 105.953 21.5902 106.99 21.2364C107.682 21.0005 108.72 20.6467 109.803 21.0154C110.886 21.384 111.386 22.3203 111.831 23.0908C114.105 27.6654 115.86 32.4169 117.096 37.3454C117.314 38.0089 117.414 38.8973 117.632 39.5608C117.959 40.5561 118.114 41.6103 118.441 42.6056C119.632 46.8116 121.168 50.8996 122.823 54.7628L121.149 55.5184Z" fill="black"/>
<path d="M109.797 80.6307C109.459 80.7479 109.121 80.8652 108.952 80.9238L108.613 81.041C107.768 81.334 106.869 81.4632 105.917 81.4286C104.965 81.394 104.075 80.973 103.408 80.6574C101.63 79.8155 99.2377 78.8219 98.0393 76.8678C97.382 76.002 97.01 74.8552 96.6911 73.8722C96.3722 72.8892 96.2224 71.8475 96.1258 70.9698C96.1355 70.4196 96.3144 69.8109 96.3241 69.2608C96.6286 67.8795 97.0395 66.8259 97.6727 65.8775C98.1899 65.1516 98.707 64.4257 99.4465 63.805C100.355 63.1257 101.148 62.6688 102.11 62.1533C102.279 62.0947 102.448 62.0361 102.564 61.8136C102.733 61.755 102.902 61.6964 103.018 61.474C103.356 61.3568 103.695 61.2396 103.864 61.1809L104.033 61.1223L106.063 60.419C107.416 59.9502 108.769 59.4813 110.123 59.0125L111.814 58.4264C113.337 57.8989 114.859 57.3715 116.381 56.844L116.889 56.6682C119.373 55.6252 121.857 54.5823 124.341 53.5393C124.849 53.3635 125.526 53.1291 125.98 52.7894L126.149 52.7308C126.318 52.6722 126.487 52.6136 126.772 52.3325C126.942 52.2739 127.396 51.9343 127.512 51.7118C127.681 51.6532 127.797 51.4308 127.797 51.4308C128.251 51.0911 128.43 50.4824 128.609 49.8737C128.851 48.8787 128.585 48.0595 128.097 47.1351C127.991 46.8074 127.715 46.5384 127.493 46.4331C127.271 46.3279 126.826 46.1175 126.435 46.0708C125.038 45.8257 123.462 46.1894 121.94 46.7168C120.925 47.0685 119.91 47.4201 119.064 47.7132L118.915 46.6716C119.929 46.3199 120.944 45.9683 121.959 45.6166C123.651 45.0305 125.396 44.6083 127.353 44.8414C127.967 44.9933 128.58 45.1451 129.078 45.5194C129.523 45.7298 129.851 46.1627 130.18 46.5956C130.615 47.3562 130.828 48.0116 130.924 48.8893C131.625 50.4691 132.9 54.4011 133.804 57.1863C134.07 58.0055 134.336 58.8247 134.495 59.3162C134.814 60.2992 135.133 61.2822 135.399 62.1014C135.717 63.0844 136.036 64.0674 136.408 65.2143L136.515 65.5419C136.621 65.8696 136.78 66.3611 136.887 66.6888C137.196 68.2219 136.49 70.1067 135.011 71.3481C133.648 72.3671 132.126 72.8945 130.773 73.3634L109.797 80.6307ZM104.279 63.0417L104.11 63.1003C103.941 63.159 103.772 63.2176 103.825 63.3814C103.656 63.44 103.371 63.7211 103.033 63.8383C102.24 64.2951 101.394 64.5882 100.655 65.2089C100.031 65.6072 99.63 66.1106 99.282 66.778C98.7648 67.5039 98.3539 68.5575 98.1122 69.5525C97.9334 70.1612 97.8705 70.5475 97.9237 70.7114C98.0203 71.5891 98.1169 72.4669 98.3826 73.2861C98.6484 74.1053 98.9673 75.0883 99.4022 75.8489C100.494 77.4752 102.442 78.2584 103.998 78.995C104.665 79.3107 105.279 79.4626 105.893 79.6144C106.506 79.7663 107.352 79.4732 108.029 79.2388L108.367 79.1216C108.705 79.0044 108.874 78.9458 109.213 78.8285L129.797 71.5146C131.15 71.0457 132.503 70.5769 133.359 69.7337C134.267 69.0544 134.847 67.9422 134.644 66.7367C134.538 66.4091 134.432 66.0814 134.325 65.7537L134.219 65.426C133.847 64.2792 133.528 63.2962 133.156 62.1493C132.89 61.3302 132.571 60.3471 132.253 59.3641C132.093 58.8726 131.827 58.0535 131.562 57.2343C131.03 55.5959 130.339 53.4661 129.754 51.6639C129.469 51.9449 129.406 52.3312 129.121 52.6123C129.005 52.8347 128.667 52.9519 128.551 53.1744C128.382 53.233 127.811 53.7951 127.642 53.8537C127.304 53.9709 127.019 54.2519 126.85 54.3105L126.681 54.3692C126.004 54.6036 125.55 54.9432 124.873 55.1777C122.389 56.2206 119.905 57.2636 117.42 58.3065L116.913 58.4823C115.391 59.0098 113.868 59.5373 112.346 60.0647L110.654 60.6508C109.301 61.1197 107.948 61.5885 106.594 62.0574L104.565 62.7607L104.226 62.8779C104.449 62.9831 104.449 62.9831 104.279 63.0417Z" fill="black"/>
<path d="M39.3482 61.4597L37.9119 60.5026C38.7118 59.4986 39.4587 58.3312 40.3742 57.1054C41.2897 55.8796 42.0366 54.7121 42.8365 53.7081C43.352 52.9843 43.8676 52.2605 44.5519 51.4783C44.7831 51.0347 45.2361 50.6961 45.6361 50.1941C46.089 49.8555 46.3203 49.4119 46.6046 49.1317C47.6262 48.2328 48.3731 47.0653 49.1199 45.8979C49.5199 45.3959 49.7511 44.9523 50.1511 44.4503C51.2979 42.7809 52.6664 41.2165 53.9192 39.8739L56.2033 37.0837C56.3719 37.0253 56.4876 36.8035 56.4876 36.8035C56.6032 36.5817 57.5187 35.3559 57.6874 35.2975C59.3402 33.453 62.4867 29.2735 64.6021 26.5417C65.7489 24.8723 66.6018 24.0317 66.8331 23.5881C67.686 22.7475 69.7483 19.8523 69.9796 19.4087C70.0952 19.1869 70.3795 18.9067 70.6638 18.6265L71.1168 18.2879C71.9071 17.8325 72.8565 17.8675 73.912 18.2293C74.1337 18.3343 74.7989 18.6494 79.6042 21.8942L80.0476 22.1043C80.9875 22.6878 82.2021 23.5399 83.195 24.2869L82.1638 25.7345C81.1709 24.9875 80.0094 24.2989 79.0165 23.5519L78.5731 23.3418C74.4858 20.5756 73.546 19.992 73.3243 19.8869C72.9339 19.8403 72.4905 19.6302 71.9845 19.8054L71.5315 20.1439C71.1846 20.8094 68.9536 23.763 68.1537 24.767C67.8694 25.0472 67.1226 26.2146 66.0384 27.4988C63.9761 30.394 60.6609 34.6318 59.0081 36.4764C58.7238 36.7566 58.2082 37.4804 58.0925 37.7022C57.9769 37.924 57.6926 38.2042 57.577 38.426L55.2399 41.0528C54.0401 42.5588 52.6716 44.1232 51.6404 45.5708C51.2405 46.0728 51.0092 46.5164 50.6093 47.0184C49.8624 48.1859 49.1156 49.3533 48.147 50.4157C47.7471 50.9177 47.4627 51.1979 47.0098 51.5364C46.5568 51.875 46.3255 52.3186 45.8725 52.6572C45.3039 53.2176 44.8414 54.1048 44.2728 54.6652C43.4729 55.6692 42.726 56.8366 41.8105 58.0624C40.895 59.2883 39.9795 60.5141 39.3482 61.4597Z" fill="black"/>
<path d="M50.1869 62.691L49.0392 61.4583C52.0877 58.7795 56.5501 54.709 59.7045 52.3556C61.0563 51.347 62.4082 50.3385 63.7601 49.3299L64.3786 48.9358C65.5626 47.9851 66.7466 47.0343 67.9306 46.0836L68.2134 45.8052C73.2943 41.3407 78.5959 36.981 84.0034 32.9466C84.7368 32.332 86.2566 31.2656 87.1049 30.4305C87.5555 30.0943 87.8383 29.816 88.0061 29.7582C90.1443 28.2977 91.593 28.1603 92.3703 28.2544C92.7589 28.3014 93.1475 28.3484 93.4212 28.6159C93.642 28.7207 93.9157 28.9882 94.1894 29.2558C96.2203 30.9079 97.9154 32.6757 99.3807 34.8846C99.7074 35.3148 101.182 36.9777 101.455 37.2453C102.056 37.943 102.603 38.478 103.036 39.2336L104.995 41.8148L103.476 42.8812L101.631 40.0795C101.251 39.4866 100.651 38.7889 100.271 38.196C99.9448 37.7658 98.4704 36.1028 98.0909 35.5099C96.6785 33.4638 95.0363 31.8586 93.2262 30.3114C93.0054 30.2065 92.9525 30.0438 92.7317 29.939C92.5109 29.8342 92.3431 29.892 92.1223 29.7871C91.7337 29.7401 90.7885 29.704 89.101 30.8282C89.101 30.8282 88.8182 31.1066 88.3676 31.4428C87.4663 32.1152 85.9995 33.3443 85.0983 34.0167C79.6908 38.051 74.3891 42.4108 69.4761 46.8175L69.1933 47.0958C68.0093 48.0466 66.8782 49.16 65.5263 50.1686L64.9078 50.5626C63.556 51.5712 62.2041 52.5798 60.8522 53.5884C57.6978 55.9418 53.2354 60.0123 50.1869 62.691Z" fill="black"/>
<path d="M110.445 40.2868C107.397 36.0859 104.296 31.722 101.7 27.1842C101.267 26.4279 99.2001 23.5187 98.5993 22.8204C98.2195 22.2269 97.7246 21.8543 97.3448 21.2609C97.2919 21.098 95.3836 18.6774 94.8358 18.1419C94.5618 17.8742 94.182 17.2808 93.8459 17.3967C93.6779 17.4547 93.2267 17.7916 92.9435 18.0704C91.926 18.965 90.7404 19.9175 89.6699 20.6492L89.0507 21.044C88.4314 21.4388 87.8651 21.9965 87.2988 22.5542L87.1837 22.7751C87.0685 22.9959 86.7324 23.1119 86.6173 23.3328L86.4493 23.3907L86.2812 23.4487C86.1132 23.5067 85.9981 23.7276 85.83 23.7856L85.5469 24.0644C84.6974 24.901 83.7328 25.9584 82.6623 26.69C81.6448 27.5846 80.5743 28.3162 79.5568 29.2108C79.1056 29.5476 76.1681 32.0104 73.1777 34.3102C69.789 37.1098 66.0642 40.0254 65.3298 40.6411C58.5617 45.6937 47.5461 54.929 40.0873 61.3067L38.9386 60.0729C46.3974 53.6952 57.413 44.4599 64.1812 39.4073C64.9155 38.7916 68.6403 35.8761 72.029 33.0765C75.3026 30.4977 77.9569 28.3138 78.4081 27.977C79.4786 27.2453 80.3281 26.4088 81.3986 25.6771C82.4161 24.7826 83.2656 23.9461 84.1151 23.1095L84.3982 22.8307C84.5133 22.6098 84.6814 22.5518 84.7965 22.331C84.9116 22.1101 85.2477 21.9941 85.4158 21.9361C85.7518 21.8201 85.6989 21.6573 85.867 21.5993L86.1501 21.3204C86.7164 20.7628 87.5038 20.3099 88.0701 19.7522L88.6893 19.3574C89.5388 18.5209 90.6093 17.7892 91.6268 16.8947C92.1931 16.337 92.7595 15.7793 93.7056 15.815C94.9349 15.5719 95.8096 16.538 96.1894 17.1314C96.7902 17.8297 98.6455 20.0875 98.6984 20.2504C99.0253 20.6809 99.4051 21.2744 99.9 21.647C100.501 22.3453 102.789 25.3594 103.275 26.2785C105.871 30.8164 108.919 35.0173 111.966 39.2183L110.445 40.2868Z" fill="black"/>
<path d="M48.6675 63.4563C48.5005 63.5132 48.1665 63.6271 47.9995 63.6841L47.8325 63.7411C47.4985 63.855 46.9975 64.0259 46.6104 63.9776C45.7223 64.1001 44.8342 64.2227 44.06 64.1261C43.0656 63.9242 41.9042 63.7793 40.5835 63.1477C38.8225 62.3056 36.8414 61.3582 35.9838 59.3063L37.6006 58.5744C38.2458 59.9775 39.8397 60.8766 41.3806 61.6134C42.4812 62.1398 43.3086 62.3986 44.2498 62.4382C44.8039 62.4296 45.5782 62.5262 46.2461 62.2984C46.5801 62.1844 46.9141 62.0705 47.3012 62.1188L47.4682 62.0619C47.6352 62.0049 47.9692 61.891 48.1362 61.834L48.3032 61.7771C48.4702 61.7201 48.6372 61.6631 48.6372 61.6631L74.2483 52.5669L78.2562 51.1998L94.007 46.0078C94.842 45.723 98.0149 44.6408 98.1819 44.5838L107.481 41.2318C108.149 41.004 108.816 40.7761 109.484 40.5483C110.152 40.3205 110.987 40.0357 111.709 39.97C113.098 39.6766 114.267 39.2779 115.549 38.66L116.248 40.2252C114.965 40.8431 113.576 41.1366 112.24 41.5923C111.572 41.8201 110.684 41.9427 110.016 42.1705C109.348 42.3984 108.847 42.5693 108.179 42.7971L98.8801 46.1491C98.5461 46.263 95.3732 47.3452 94.5382 47.63L78.7875 52.8221L55.1272 61.0726L49.1685 63.2854C49.0015 63.3423 49.0015 63.3423 48.8345 63.3993C48.8345 63.3993 48.6675 63.4563 48.5005 63.5132C48.8345 63.3993 48.6675 63.4563 48.6675 63.4563Z" fill="black"/>
<path d="M88.2491 31.5574C87.6641 33.2331 86.8542 34.8014 86.6098 36.3604C86.195 37.9777 86.2302 39.8096 86.0404 41.5342C85.8349 39.7606 85.6295 37.9871 85.649 36.3208C85.6139 34.4889 86.1443 32.6475 86.559 31.0302L88.2491 31.5574Z" fill="black"/>
<path d="M83.5814 35.3654C83.1095 36.8192 82.9186 38.5465 82.6727 40.1078C82.6529 41.7767 82.6331 43.4455 82.7845 45.0559C82.2359 43.3964 81.9133 41.8444 81.7071 40.068C81.5008 38.2917 81.3494 36.6812 81.6567 34.7296L83.5814 35.3654Z" fill="black"/>
<path d="M35.4344 50.3971C35.9441 49.6754 36.6687 49.6086 37.1718 49.4357L38.8425 49.4082C39.3994 49.399 39.9025 49.2261 40.3455 49.4383C40.9561 49.5928 41.399 49.805 41.728 50.2386C41.285 50.0264 40.8959 49.9779 40.339 49.9871C39.9498 49.9386 39.4467 50.1115 38.9435 50.2844L37.6018 50.7455C37.0986 50.9184 36.3676 51.534 36.2536 51.7554L35.4344 50.3971Z" fill="black"/>
<path d="M28.4555 38.7832C28.4165 37.6383 28.5497 36.9883 28.3256 36.6257C23.817 30.5231 21.4814 23.013 16.1832 17.3642C15.6885 16.8344 15.0728 16.3793 14.0363 16.2173C14.1451 16.7179 14.081 17.4255 14.3685 17.7825C18.4407 22.5844 20.8244 28.4952 24.2971 33.7338C25.0388 34.8795 25.7747 35.9617 26.5742 37.0383C26.9421 37.5794 27.4889 37.9769 28.4555 38.7832Z" fill="#F15748"/>
<path d="M23.3976 45.7462C19.7756 45.2423 16.3492 44.7846 12.8595 44.3326C9.17386 43.8344 5.45342 43.6583 1.80133 44.2418C0.919996 44.3849 -0.162899 44.4182 0.249876 46.1677C1.07913 46.1569 1.98901 46.3304 2.87034 46.1874C7.21383 45.4781 11.4809 46.0516 15.7594 46.7517C17.7057 47.0871 19.6464 47.3594 21.5294 47.7006C22.7617 47.9088 23.4246 47.4665 23.3976 45.7462Z" fill="#F15748"/>
<path d="M4.11185 72.8074C4.37096 72.848 4.76244 72.9404 4.9411 72.7967C11.9668 68.5285 18.9233 64.203 26.001 59.8026C25.6167 58.3696 24.637 58.8404 23.8476 59.2943C21.4675 60.529 19.0875 61.7637 16.7877 63.1826C13.2778 65.3482 9.84247 67.635 6.40726 69.9215C5.44465 70.5821 4.56251 71.4272 3.67472 72.2087C3.88191 72.3815 3.96802 72.6289 4.11185 72.8074Z" fill="#F15748"/>
</svg>
