<svg width="158" height="125" viewBox="0 0 158 125" fill="none" xmlns="http://www.w3.org/2000/svg">
<path d="M127.189 116.827C120.849 120.929 113.856 121.861 106.584 122.421C94.4627 123.447 82.3418 123.447 70.2209 123.726C61.1768 124.006 52.0396 124.099 43.0888 123.447C35.8162 122.887 28.5437 122.328 21.1779 122.421C15.6769 122.514 10.1759 121.768 4.95459 119.997C4.58164 119.81 4.02221 119.717 3.64926 119.624C-0.173478 118.039 -1.01262 116.36 1.22509 112.724C3.18307 109.647 5.51401 106.757 7.75172 103.867C11.388 99.4845 15.1175 95.1023 18.7537 90.9066C16.7025 83.5408 15.1175 76.3615 14.0919 68.9958C13.9054 67.6904 13.7189 66.4783 13.5324 65.2663C13.0663 60.1382 12.2271 55.0101 12.0406 49.8821C11.8542 45.5931 12.973 41.4907 15.5837 37.8544C16.7025 36.2694 18.0078 35.5235 19.8726 35.337C27.891 34.4046 35.723 33.0993 43.7414 33.9384C44.6738 34.0317 45.7926 33.8452 46.725 33.6587C50.3613 33.006 53.7178 32.9128 57.3541 33.2858C60.8039 33.6587 64.2537 33.0993 67.6102 33.0061C73.2045 32.9128 78.7988 32.8196 84.4862 32.6331C89.9873 32.4466 95.4883 32.3534 100.896 31.7007C104.719 31.3278 108.262 32.1669 111.712 33.379C113.856 34.0317 115.068 35.7099 114.975 38.1341C114.602 45.0337 114.416 51.84 113.67 58.7396C112.644 68.3431 111.245 78.0398 109.94 88.1095C114.322 89.3216 116.653 92.3984 119.077 95.2888C122.993 99.8574 127.003 104.519 129.427 110.207C131.012 113.936 130.639 114.589 127.189 116.827Z" fill="white"/>
<path d="M28.5 41H43.5H57L81.5 40L99.5 41L104.5 43.5L105.5 48.5L104.5 76.5L101.5 83.5L98.5 86L84 87H53.5L31.5 86L26 83.5L23.5 75L21 55.5L22 43.5L28.5 41Z" fill="#F15748" stroke="black"/>
<path d="M70.5016 106.478C68.0774 106.851 65.4667 106.851 63.3223 108.063C69.7557 107.876 76.2823 107.596 82.8089 107.223C82.7157 105.918 82.3427 104.613 81.7833 103.494C81.6901 103.307 81.5968 103.214 81.4104 103.121C81.0374 102.841 80.3847 102.841 80.0118 102.841C79.6388 102.841 79.0794 102.748 78.7065 102.748C78.147 102.748 77.6809 102.935 77.2147 103.214C76.7485 103.587 76.189 104.147 75.7229 104.52C75.0702 105.079 74.3243 105.545 73.4852 105.825C72.4595 106.105 71.4339 106.384 70.5016 106.478Z" fill="#BCBCBB"/>
<path d="M67.0503 112.258C67.7962 112.445 68.6354 112.724 69.0083 113.284C69.3813 113.843 69.4745 114.869 69.0083 115.428C68.6354 115.801 67.8894 115.895 67.33 115.988C65.2788 116.174 63.3208 116.361 61.2696 116.454C60.244 116.547 59.0319 116.64 58.0063 116.827C55.955 117.2 53.9038 117.853 52.0391 118.692C59.0319 119.624 66.1179 119.997 73.1108 119.717C73.2972 119.717 73.4837 119.717 73.6702 119.624C73.9499 119.531 74.0431 119.438 74.2296 119.251C75.7214 118.132 76.5605 116.174 76.3741 114.309C76.3741 114.03 76.2808 113.657 76.0011 113.284C75.6282 112.818 74.9755 112.631 74.3228 112.631C72.3649 112.445 70.5001 112.258 68.5421 112.072" fill="#BCBCBB"/>
<path d="M21.4571 83.8207C21.9233 84.5666 22.4827 85.3125 23.1354 85.8719C24.0677 86.8043 25.1866 87.457 26.3054 88.1096C28.6364 89.5082 31.0605 90.9068 33.6712 91.5594C31.3403 91.5594 28.9161 91.6527 26.4919 91.7459C26.0257 91.7459 25.4663 91.8391 24.9069 92.0256C24.0677 92.3053 23.3218 92.958 22.7624 93.6107C20.6179 95.6619 18.8464 97.9928 17.1681 100.51C15.7696 102.561 14.4643 104.706 12.2266 105.732C10.3618 106.664 8.03086 106.571 6.53906 107.969C10.9212 103.774 13.6251 97.9928 18.1938 93.8904C19.2194 92.958 20.3382 92.1189 20.5247 90.8135C20.6179 89.8812 20.245 89.1353 20.0585 88.2961C19.6856 87.2705 19.3126 86.0584 19.0329 85.0328C18.7532 83.9139 18.6599 82.7019 18.6599 81.583C18.6599 81.2101 18.6599 80.9304 18.6599 80.5574C18.6599 80.3709 18.6599 80.1845 18.6599 80.0912C18.6599 79.998 18.6599 79.7183 18.7532 79.7183C18.8464 79.8115 18.9397 80.0912 18.9397 80.0912C19.0329 80.2777 19.1261 80.4642 19.2194 80.5574C19.4058 80.9304 19.5923 81.1168 19.6856 81.4898C20.0585 82.0492 20.4315 82.6086 20.8044 83.168C20.8976 83.168 21.1774 83.4478 21.4571 83.8207Z" fill="#BCBCBB"/>
<path d="M118.798 99.2978C119.917 102.002 119.824 104.985 119.824 107.969C119.824 108.808 119.824 109.647 119.544 110.3C119.078 111.978 117.679 113.097 116.187 113.936C112.831 115.987 108.822 116.92 104.999 117.479C103.414 117.759 101.922 117.852 100.43 118.318C98.9384 118.784 97.4466 119.53 96.6074 120.836C97.8195 120.836 98.9384 120.836 100.244 120.929C101.269 120.929 102.202 120.929 103.134 120.742C103.973 120.556 104.812 120.183 105.558 119.903C107.796 119.251 110.127 119.437 112.458 119.344C117.213 119.157 121.968 118.039 126.257 115.894C127.376 115.335 128.588 114.682 128.961 113.563C129.334 112.538 128.961 111.232 128.588 110.207C128.028 108.342 127.376 106.477 126.164 104.892C125.231 103.773 124.113 102.841 123.087 101.908C122.155 100.976 121.409 100.137 120.569 99.2045C120.197 98.8316 119.637 98.2722 119.264 97.9924C119.078 97.806 118.891 97.7127 118.611 97.6195C118.518 97.6195 118.239 97.5263 118.239 97.7127C118.239 97.806 118.332 97.9924 118.425 98.0857C118.518 98.2722 118.611 98.4586 118.705 98.5519C118.518 98.6451 118.611 99.0181 118.798 99.2978Z" fill="#BCBCBB"/>
<ellipse cx="54" cy="63.5" rx="3" ry="3.5" fill="white"/>
<ellipse cx="68" cy="76.5" rx="3" ry="3.5" fill="white"/>
<ellipse cx="77" cy="50.5" rx="3" ry="3.5" fill="white"/>
<path d="M69.9397 75.3358C69.9397 75.7087 69.9397 76.1749 69.7533 76.3614C69.3803 77.1073 68.7277 77.387 67.8885 77.8532C67.0494 78.2261 66.2102 78.6923 65.3711 79.0653C66.3967 79.4382 67.6088 79.5314 68.5412 79.2517C69.4735 78.972 70.4059 78.2261 70.8721 77.387C71.2451 76.8276 71.2451 75.9884 71.0586 75.2425C70.9653 74.8696 70.8721 74.4966 70.5924 74.3101C70.4992 74.2169 70.4059 73.9372 70.2195 73.9372C70.1262 73.844 69.8465 73.5642 69.7533 73.7507C69.66 73.844 69.66 73.9372 69.7533 74.1237C69.7533 74.2169 69.7533 74.4966 69.7533 74.4966C69.9397 74.6831 69.9397 74.9628 69.9397 75.3358Z" fill="#BCBCBB"/>
<path d="M56.5686 62.6478C56.5686 63.0207 56.5686 63.4869 56.3822 63.6734C56.0092 64.4193 55.3566 64.699 54.5174 65.1652C53.6783 65.5381 52.8391 66.0043 52 66.3773C53.0256 66.7502 54.2377 66.8435 55.1701 66.5637C56.1025 66.284 57.0348 65.5381 57.501 64.699C57.874 64.1396 57.874 63.3004 57.6875 62.5545C57.5943 62.1816 57.501 61.8086 57.2213 61.6222C57.1281 61.5289 57.0348 61.2492 56.8484 61.2492C56.7551 61.156 56.4754 60.8763 56.3822 61.0627C56.2889 61.156 56.2889 61.2492 56.3822 61.4357C56.3822 61.5289 56.3822 61.8086 56.3822 61.8086C56.5686 61.9951 56.5686 62.2748 56.5686 62.6478Z" fill="#BCBCBB"/>
<path d="M78.7991 49.9754C78.7991 50.3484 78.7991 50.8145 78.6126 51.001C78.2397 51.7469 77.587 52.0266 76.7479 52.4928C75.9087 52.8658 75.0696 53.332 74.2305 53.7049C75.2561 54.0779 76.4682 54.1711 77.4005 53.8914C78.4262 53.5184 79.2653 52.8658 79.7315 52.0266C80.1044 51.4672 80.1044 50.6281 79.918 49.8822C79.8247 49.5092 79.7315 49.1363 79.4518 48.9498C79.3585 48.8566 79.2653 48.5768 79.0788 48.5768C78.9856 48.4836 78.7059 48.2039 78.6126 48.3904C78.5194 48.4836 78.5194 48.5768 78.6126 48.7633C78.6126 48.8566 78.6126 49.1363 78.6126 49.1363C78.7991 49.3227 78.7991 49.6025 78.7991 49.9754Z" fill="#BCBCBB"/>
<path d="M73.95 50.1616C63.6939 50.1616 46.4449 50.1616 39.7318 50.2549C38.9859 50.1616 38.5198 50.6278 37.4941 50.8143C38.24 52.4926 39.1724 52.3061 40.0116 52.2128C45.6058 51.8399 55.6755 51.7467 61.1765 51.4669C63.0412 51.3737 68.7287 51.4669 73.8568 51.5602C73.95 51.1872 73.95 50.721 73.95 50.1616Z" fill="#010202"/>
<path d="M87.2833 50.1616C85.978 50.1616 82.062 50.1616 80.2905 50.1616C80.3837 50.6278 80.2905 51.1872 80.1973 51.8399C81.8755 51.8399 85.4186 51.8399 86.2577 51.9331C87.1901 52.0264 88.0292 51.9331 88.4954 50.9075C87.936 50.5346 87.4698 50.1616 87.2833 50.1616Z" fill="#010202"/>
<path d="M50.8276 62.935C48.3102 62.935 41.6903 62.935 39.8256 62.935C39.0797 62.8418 38.6135 63.308 37.5879 63.4945C38.3338 65.1727 39.2662 64.9863 40.1053 64.893C42.2498 64.7998 48.7764 64.7066 50.8276 64.5201C50.7344 64.1471 50.7344 63.4945 50.8276 62.935Z" fill="#010202"/>
<path d="M87.2827 62.9355C81.0358 62.9355 67.0501 62.9355 57.0737 62.9355C57.1669 63.4017 57.1669 63.9612 56.9805 64.6138C58.4723 64.6138 59.8708 64.5206 61.3626 64.5206C64.8124 64.4273 82.714 64.7071 86.1638 64.7071C87.0962 64.8003 87.9354 64.7071 88.4015 63.6815C87.9354 63.4017 87.4692 63.0288 87.2827 62.9355Z" fill="#010202"/>
<path d="M64.8138 75.5225C56.8886 75.5225 44.5812 75.5225 39.9193 75.6157C39.1734 75.5225 38.7073 75.9886 37.6816 76.1751C38.4275 77.8534 39.3599 77.6669 40.1991 77.5737C45.7933 77.2007 55.863 77.1075 61.364 76.8278C62.1099 76.8278 63.2287 76.8278 64.907 76.8278C64.7205 76.4548 64.7205 75.9886 64.8138 75.5225Z" fill="#010202"/>
<path d="M87.1896 75.5225C83.7398 75.5225 76.3741 75.5225 70.9663 75.5225C71.0595 75.9886 70.9663 76.5481 70.873 77.0143C76.0944 77.1075 84.1128 77.2007 85.9775 77.2007C86.9099 77.294 87.749 77.2007 88.2152 76.1751C87.9355 75.8954 87.4693 75.5225 87.1896 75.5225Z" fill="#010202"/>
<path d="M111.619 105.545C110.593 103.121 109.661 100.697 108.728 98.1794C108.262 96.7808 107.516 96.0349 105.931 96.1282C104.719 96.2214 103.414 96.3147 102.202 96.5011C94.9292 97.5267 87.7499 98.2726 80.3841 97.0606C75.9087 96.3147 71.2469 96.5944 66.7715 96.5011C62.2028 96.4079 57.6342 96.5011 53.0655 96.3147C47.6577 96.1282 42.25 95.9417 36.9354 95.5688C33.3924 95.3823 29.8494 95.1958 26.3063 94.7296C24.5348 94.4499 23.416 95.1958 22.5768 96.4079C21.458 97.8997 20.5256 99.3915 19.5932 100.977C19.127 101.816 18.7541 102.655 18.5676 103.494C17.915 105.825 18.4744 106.851 20.7121 107.223C23.416 107.69 26.2131 108.063 28.917 108.249C29.1967 108.249 29.4764 108.342 29.7561 108.342C30.2223 108.342 30.6885 108.436 31.1547 108.436C31.6209 108.436 32.0871 108.529 32.5533 108.529C33.0194 108.529 33.4856 108.622 33.9518 108.622C34.418 108.622 34.8842 108.715 35.3504 108.715C35.8166 108.715 36.2828 108.808 36.7489 108.808C37.2151 108.808 37.6813 108.902 38.1475 108.902C38.6137 108.902 39.1731 108.995 39.5461 108.995C40.0123 108.995 40.5717 109.088 40.9446 109.088C41.4108 109.088 41.9703 109.181 42.3432 109.181C42.8094 109.181 43.3688 109.275 43.835 109.275C44.9539 109.368 46.1659 109.554 47.378 109.554C48.5901 109.648 49.8022 109.648 51.0143 109.648C51.2008 109.648 51.294 109.648 51.3872 109.648C51.8534 109.648 52.4129 109.648 52.7858 109.648C55.21 109.648 57.7274 109.648 60.0583 109.648C60.6178 109.648 61.084 109.648 61.7366 109.648C62.1096 109.648 62.5758 109.554 63.0419 109.461C69.9415 109.181 76.7479 108.995 83.6474 108.808C90.8267 108.622 97.9128 108.715 105.185 108.622C106.864 108.622 108.635 108.342 110.313 108.156C111.898 108.063 112.365 107.317 111.619 105.545ZM77.6803 100.883C74.6966 101.536 73.4846 101.256 73.1116 100.51C72.9251 100.231 72.9251 99.3915 72.7387 99.0185C75.0696 98.6456 76.8411 98.0862 77.6803 99.205C77.96 99.4847 77.4005 100.231 77.6803 100.883ZM68.3565 98.6456C69.1956 98.5524 70.0348 99.6712 70.6874 100.79L60.9907 100.604C60.8975 100.231 60.8975 99.8577 60.8042 99.4847C63.0419 97.8997 65.8391 98.7388 68.3565 98.6456ZM58.753 98.8321C58.6598 99.205 58.6598 100.231 58.1004 100.417C56.7018 100.883 52.9723 100.79 51.1075 100.231C50.5481 100.044 50.4549 99.578 50.3616 99.2983C50.6413 98.6456 50.4549 98.5524 51.1075 98.3659C53.3452 97.9929 56.6086 98.4591 58.753 98.8321ZM33.6721 106.105C29.2899 106.664 24.9078 106.198 20.5256 104.986C20.2459 101.443 22.7633 99.6712 24.6281 97.7132C26.3063 96.0349 28.4508 97.3403 30.5953 97.3403C30.502 99.6712 29.1967 99.6712 27.7981 99.578L24.1619 99.4847C24.0686 99.8577 23.9754 100.231 23.8822 100.51C24.9078 100.883 25.9334 101.256 27.1455 101.722C26.8658 102.562 26.5861 103.401 26.3063 104.147C26.4928 104.333 26.6793 104.52 26.8658 104.613C27.9846 103.68 29.1035 102.562 30.4088 101.909C31.8074 101.163 33.2992 101.629 34.791 102.189C34.3248 103.587 34.0451 104.706 33.6721 106.105ZM32.6465 99.578C33.8586 97.1538 33.9518 97.1538 37.5881 97.8997C37.2151 98.4591 37.1219 99.205 36.8422 99.578C36.0963 100.51 35.1639 100.324 32.6465 99.578ZM47.0983 107.317C43.1823 107.037 39.4528 106.664 35.4436 106.291C36.8422 101.629 37.1219 101.443 41.2244 102.002C42.25 102.189 43.2756 102.189 44.3012 102.282C45.3268 102.375 46.3524 102.468 47.751 102.562C47.5645 104.24 47.378 105.638 47.0983 107.317ZM40.1055 100.324C40.5717 99.6712 40.3852 98.8321 40.9446 98.5524C42.7162 97.4335 45.793 97.4335 49.0563 98.9253C48.5901 99.2983 48.6834 100.231 48.2172 100.417C45.5133 101.443 42.7162 99.8577 40.1055 100.324ZM49.1495 107.596C49.2428 106.291 49.2428 105.265 49.5225 104.333C49.8022 103.028 50.5481 102.375 51.9467 102.468C58.5665 102.748 65.1864 103.028 71.8063 103.307C73.7643 103.401 75.7223 103.587 77.587 103.494C79.7315 103.401 80.9436 104.333 81.7827 106.757C70.6874 106.664 60.1516 108.342 49.1495 107.596ZM81.5962 101.349C81.2233 101.256 81.13 100.51 80.7571 99.9509C84.0204 100.044 87.0972 100.044 90.1741 100.137C91.2929 100.137 92.2253 100.51 92.3185 102.282C88.6823 101.909 85.1393 102.468 81.5962 101.349ZM85.046 106.478C83.9272 106.478 83.461 105.732 83.7407 104.333C84.7663 104.24 85.6987 104.053 86.7243 103.96C88.6823 103.867 90.547 103.867 92.505 103.867C93.9968 103.867 93.9968 103.867 94.7427 106.478C91.3862 106.664 88.2161 106.571 85.046 106.478ZM94.7427 99.7644C98.2858 99.2983 101.642 98.7388 104.906 98.4591C106.397 98.2726 106.957 99.205 106.584 101.349C102.761 101.256 98.9384 101.256 95.3021 101.07C95.2089 101.163 95.1157 100.604 94.7427 99.7644ZM97.4466 106.664C97.0737 105.638 96.8872 104.799 96.6075 103.867C97.1669 103.587 97.4466 103.307 97.7263 103.307C100.896 103.028 104.066 102.841 107.61 102.562C107.982 103.587 108.449 104.52 109.008 105.918C104.999 107.41 101.269 106.478 97.4466 106.664Z" fill="#010202"/>
<path d="M129.427 110.393C127.003 104.799 122.993 100.137 119.077 95.4753C116.653 92.5849 114.322 89.5081 109.94 88.296C111.245 78.2263 112.644 68.6228 113.67 58.9261C114.416 52.0266 114.602 45.2202 114.975 38.3206C115.068 35.9897 113.856 34.2182 111.712 33.5655C108.262 32.4467 104.719 31.5143 100.896 31.8872C95.395 32.4467 89.894 32.6331 84.4862 32.8196C78.892 33.0061 73.2977 33.0993 67.6102 33.1926C64.1605 33.2858 60.7107 33.752 57.3541 33.4723C53.7178 33.0993 50.3613 33.1926 46.725 33.8452C45.7926 34.0317 44.6738 34.1249 43.7414 34.1249C35.723 33.2858 27.891 34.4979 19.8726 35.5235C18.1011 35.8032 16.7958 36.4559 15.5837 38.0409C13.0663 41.6772 11.9474 45.7796 12.0406 50.0686C12.2271 55.1966 12.973 60.3247 13.5324 65.4528C13.7189 66.6648 13.9054 67.8769 14.0919 69.1823C15.1175 76.548 16.7025 83.7273 18.7537 91.0931C15.1175 95.2888 11.388 99.5777 7.75172 104.053C5.42078 106.943 3.18307 109.741 1.22509 112.911C-1.01262 116.547 -0.173478 118.225 3.64926 119.81C4.02221 119.997 4.58164 120.09 4.95459 120.183C10.1759 121.955 15.6769 122.701 21.1779 122.607C28.5437 122.514 35.8162 123.074 43.0888 123.633C52.0396 124.286 61.1768 124.099 70.2209 123.913C82.435 123.633 94.4627 123.633 106.584 122.607C113.856 122.048 120.849 121.022 127.189 117.013C130.639 114.589 131.012 113.936 129.427 110.393ZM18.3808 76.4548C17.2619 72.0726 16.7025 67.504 16.2363 62.9353C15.7701 58.2735 15.6769 53.5184 15.3972 48.8565C15.1175 45.2202 15.9566 41.8637 18.9402 39.253C20.1523 38.2274 21.3644 37.295 23.1359 37.1085C27.7978 36.6423 32.4597 35.5235 37.1216 35.5235C42.2496 35.6167 47.3777 34.9641 52.5058 35.0573C64.7199 35.337 76.7475 34.4046 88.8684 34.5911C93.1573 34.6844 97.2598 34.0317 101.549 33.9385C103.88 33.8452 106.397 34.0317 108.635 34.4979C111.618 35.1505 112.924 36.7356 112.83 39.9057C112.551 46.2458 112.271 52.7725 111.618 59.1126C110.779 67.504 109.567 75.9886 108.542 84.38C108.075 88.3892 107.423 89.3216 103.507 90.1607C101.642 90.6269 99.684 90.8134 97.8192 90.8134C88.7752 90.9999 79.7311 91.0931 70.6871 91.1863C66.5846 91.2796 62.3889 91.2796 58.3797 91.3728C57.8203 91.3728 57.2609 91.2796 56.7014 91.3728C48.4965 92.4917 40.4781 90.9999 32.3664 90.6269C29.3828 90.4404 26.4925 90.5337 23.5089 90.4404C21.4576 85.4988 19.5929 81.1167 18.3808 76.4548ZM74.976 117.946C74.6031 119.064 73.5774 119.251 72.4586 119.251C71.06 119.251 69.7547 119.251 68.3561 119.158C65.4658 119.064 62.6686 118.878 59.7783 118.598C58.1932 118.412 56.7014 118.225 55.1164 118.225C53.9043 118.318 52.4125 118.598 51.2937 117.946C48.8695 116.64 51.2937 113.563 52.5058 112.351C52.7855 112.072 53.1584 111.978 53.5314 111.978C54.184 111.699 55.0232 111.699 55.8623 111.699C58.8459 111.699 61.5498 111.978 64.5334 112.351C67.2373 112.724 69.9412 113.004 72.6451 113.19C73.6707 113.19 74.8828 113.563 75.1625 114.775C75.349 115.708 75.2557 117.106 74.976 117.946ZM126.443 114.775C124.672 114.309 123.366 115.148 121.968 115.894C119.917 117.013 117.772 117.573 115.441 117.759C108.728 118.412 102.015 119.437 95.3018 119.997C92.9709 120.183 90.6399 120.276 88.309 120.37C85.978 120.463 83.5539 120.463 81.1297 120.463H77.1205C77.1205 120.463 77.1205 120.463 77.0272 120.463C76.934 120.463 76.934 120.463 76.8408 120.463H75.7219C75.9084 120.37 76.0949 120.276 76.1881 120.183C76.3746 120.09 76.4678 119.904 76.4678 119.81C76.6543 119.624 76.7475 119.531 76.8408 119.344C76.934 119.251 76.934 119.158 76.934 119.064V118.971C76.934 118.878 76.934 118.878 76.934 118.785C77.0272 118.412 77.0272 117.852 77.0272 117.386C77.0272 117.013 77.1205 116.547 77.1205 116.081C77.1205 115.801 77.2137 115.335 77.2137 115.055V114.682C77.2137 112.165 76.0016 112.165 73.4842 111.885C71.06 111.605 68.5426 111.605 66.0252 111.232C65.7455 111.232 65.559 111.139 65.2793 111.139C64.8131 111.046 64.2537 111.046 63.7875 110.953H63.4146C63.3213 110.953 63.3213 110.953 63.2281 110.953C63.1348 110.953 63.1348 110.953 63.0416 110.953C62.7619 110.953 62.5754 110.953 62.2957 110.859C61.8295 110.859 61.3633 110.766 60.8039 110.766C60.3377 110.766 59.8715 110.673 59.3121 110.673C58.8459 110.673 58.3797 110.673 57.8203 110.58C57.3541 110.58 56.7947 110.58 56.3285 110.487H51.9463C51.5734 110.487 51.2937 110.487 50.9207 110.58C50.5478 110.673 50.1748 110.766 49.8951 110.953C49.7086 111.046 49.6154 111.232 49.5221 111.232C49.4289 111.326 49.3357 111.419 49.1492 111.512C48.9627 111.699 48.8695 111.792 48.683 111.978C48.3101 112.258 48.1236 112.724 47.8439 113.004C47.3777 113.843 47.098 114.682 46.8183 115.521C46.725 115.894 46.5385 116.454 46.4453 116.827C46.3521 117.106 46.3521 117.2 46.2588 117.479C46.2588 117.573 46.1656 117.759 46.1656 117.852C46.1656 117.946 46.1656 117.946 46.1656 118.039V118.225C46.9115 118.785 47.6574 118.598 48.4033 119.158C48.1236 120.649 13.4392 119.531 8.40438 117.759C10.0827 116.827 11.388 116.081 12.8798 115.428C12.7865 115.242 12.6933 115.148 12.6001 114.869C10.7353 115.615 8.87057 116.36 6.91258 117.106C5.2343 117.759 5.2343 117.666 3.08984 115.801C7.09905 113.19 11.388 111.512 15.6769 110.02C11.5745 110.207 8.12467 112.538 4.02221 113.657C4.02221 111.605 5.04783 110.487 6.16668 109.274C9.7097 105.358 13.2527 101.442 16.7025 97.5265C18.1943 95.8482 19.4997 94.1699 20.9915 92.4917C24.9074 92.7714 28.8234 92.9579 32.7394 93.3308C35.6297 93.5173 38.4269 93.9835 41.3172 93.9835C47.6574 94.0767 54.184 93.8902 60.5242 93.797C71.9924 93.7038 83.4606 93.5173 94.8356 93.424C99.1245 93.3308 103.32 93.5173 107.143 91.0931C108.355 90.254 109.474 90.5337 110.686 91.2796C111.712 92.0255 112.924 92.5849 113.67 93.6105C117.679 98.6453 121.688 103.867 125.511 109.181C126.35 110.3 126.723 111.885 127.096 113.284C128.121 114.03 127.376 115.055 126.443 114.775Z" fill="#010202"/>
<path d="M119.822 20.792C123.925 13.7992 127.468 6.52663 132.689 0C132.689 0.559426 132.876 1.30533 132.596 1.67828C129.519 7.36577 126.442 13.1465 123.179 18.7408C122.619 19.7664 121.407 20.5123 120.475 21.3514C120.195 21.2582 120.009 20.9785 119.822 20.792Z" fill="#EB594B"/>
<path d="M137.258 44.0081C140.428 42.9825 142.945 44.754 145.556 45.7796C149.565 47.4579 153.201 49.7889 155.159 54.0778C152.269 52.213 149.472 50.3483 146.488 48.4835C143.598 46.8053 140.055 46.2458 137.258 44.0081Z" fill="#EB594B"/>
<path d="M157.584 24.4285C157.211 24.7082 156.745 25.0811 156.279 25.2676C149.472 27.5985 142.666 29.8362 135.953 32.1672C135.767 31.8875 135.673 31.701 135.58 31.4213C136.233 30.9551 136.699 30.2092 137.445 29.9295C143.878 27.2256 150.591 25.1744 157.304 23.4961C157.398 23.7758 157.491 24.1488 157.584 24.4285Z" fill="#EB594B"/>
<path d="M104.251 48.2038C101.827 49.2294 101.268 49.5091 99.2165 50.3482C99.1232 50.0685 99.03 49.8821 98.9368 49.6023C101.081 48.67 101.827 48.297 103.972 47.3646C104.158 45.0337 103.039 43.3554 100.988 42.423C99.4029 41.7704 97.7247 41.3974 96.0464 41.3042C87.9347 41.0245 82.3405 41.3042 74.2288 41.3974C68.4481 41.4907 62.5741 42.1433 56.7001 42.3298C53.8098 42.423 51.0126 41.8636 48.1223 41.8636C41.3159 42.0501 34.6028 42.3298 27.8897 42.6095C27.0506 42.6095 26.2114 42.6095 24.5332 42.5163C25.5588 41.4907 26.025 40.838 26.4912 40.7448C35.7217 39.7192 44.9522 38.9733 54.1827 40.1853C55.3016 40.3718 56.5137 40.3718 57.6325 40.2786C71.0587 39.253 81.8743 38.88 95.2073 39.1597C95.8599 39.1597 96.6058 39.3462 97.2585 39.3462C104.624 39.7192 105.836 42.3298 106.489 49.0429C106.675 50.5347 106.489 52.4927 106.489 54.3575C106.396 62.0962 106.769 69.7417 105.463 77.2007C105.09 79.4384 104.158 81.4896 103.412 83.7273C102.853 85.4056 101.547 86.2447 99.7759 86.5244C96.7923 86.8974 93.9019 87.55 90.9183 87.55C82.9931 87.8298 75.1612 88.0162 67.236 88.0162C57.819 88.0162 48.402 87.6433 38.985 87.4568C36.0946 87.3636 33.2975 87.0838 30.4071 86.8974C27.4235 86.7109 25.652 85.4056 24.3467 82.5152C22.5752 78.506 20.8037 63.4947 20.8037 58.9261C20.7104 54.3575 20.6172 49.7888 20.6172 45.2202C20.6172 44.5675 21.0834 44.0081 21.5496 42.8892C22.8549 44.754 22.5752 46.2458 22.5752 47.6444C22.4819 58.087 22.2955 68.1566 25.4655 78.4128C27.7965 84.1002 27.1438 85.1259 34.4164 85.2191C40.1038 85.3123 45.8846 85.8718 51.5721 86.0582C55.488 86.1515 59.3108 85.965 63.2268 85.965C69.7534 85.965 76.28 86.1515 82.8067 85.8718C88.028 85.6853 93.2493 85.0326 98.4706 84.5664C100.242 84.38 101.454 83.4476 101.827 81.5828C102.853 77.2939 102.946 74.59 103.226 69.9281C103.972 65.6392 103.505 59.5788 103.878 55.1966C104.345 53.0521 104.251 50.9077 104.251 48.2038Z" fill="#010202"/>
<path d="M104.718 50.3485C104.252 50.6282 102.387 51.3741 101.735 51.6538C101.642 51.4674 101.548 51.2809 101.455 51.1877C101.921 50.9079 103.786 50.162 104.439 49.8823C104.532 50.0688 104.625 50.162 104.718 50.3485Z" fill="#010202"/>
<path d="M81.0356 48.8563C80.8491 48.4834 80.2896 47.8307 80.1032 47.6442C79.5437 47.1781 78.8911 46.7119 78.2384 46.6186C77.8655 46.5254 77.7722 46.5254 77.4925 46.5254C77.3993 46.5254 77.306 46.5254 77.306 46.5254C77.1196 46.5254 76.8399 46.5254 76.5601 46.6186C76.3737 46.6186 76.1872 46.7119 76.0007 46.8051C75.6278 46.9916 75.1616 47.1781 74.9751 47.3645C74.6022 47.7375 74.2292 47.924 73.9495 48.3901C73.763 48.7631 73.4833 49.2293 73.3901 49.6955C73.2036 50.9076 73.2036 51.6535 73.5765 52.4926C73.763 52.8655 73.9495 53.3317 74.3224 53.5182C74.6954 53.8912 74.8819 53.9844 75.2548 54.2641C76.0007 54.7303 76.4669 54.8235 77.1196 54.8235C77.4925 54.8235 77.5858 54.8235 77.9587 54.7303C78.3317 54.7303 79.264 54.3573 79.637 54.2641C80.1032 53.8912 80.4761 53.7047 80.6626 53.3317C81.5017 51.8399 81.6882 50.4414 81.0356 48.8563ZM75.8142 53.1453C75.6278 52.9588 75.3481 52.7723 75.2548 52.6791C75.0683 52.4926 74.8819 52.2129 74.7886 51.8399C74.6022 51.467 74.4157 50.8143 74.6954 50.0684C74.6954 49.8819 74.8819 49.6022 75.0683 49.2293V49.136C75.1616 48.9496 75.4413 48.7631 75.5345 48.5766C75.9075 48.3901 76.0007 48.2037 76.3737 48.2037C76.4669 48.2037 76.7466 48.1104 76.7466 48.1104C76.9331 48.1104 77.1196 48.1104 77.1196 48.0172C77.2128 48.0172 77.306 48.0172 77.4925 48.0172C77.679 48.0172 77.8655 48.0172 77.8655 48.0172C78.3317 48.1104 78.7978 48.3901 79.1708 48.7631C79.3573 48.9496 79.637 49.3225 79.7302 49.6022C80.2896 50.9076 79.9167 51.8399 79.264 52.8655C79.1708 53.052 79.0776 53.2385 78.7978 53.2385C78.6114 53.3317 77.8655 53.6114 77.7722 53.6114C76.6534 53.5182 76.4669 53.5182 75.8142 53.1453Z" fill="#010202"/>
<path d="M57.7264 61.7235C57.54 61.3506 56.9805 60.6979 56.7941 60.5114C56.2346 60.0452 55.582 59.5791 54.9293 59.4858C54.5564 59.3926 54.4631 59.3926 54.0902 59.3926C53.9969 59.3926 53.9969 59.3926 53.9037 59.3926C53.7172 59.3926 53.4375 59.3926 53.1578 59.4858C52.9713 59.4858 52.7849 59.5791 52.5984 59.6723C52.2254 59.8588 51.7592 60.0452 51.5728 60.2317C51.1998 60.6047 50.8269 60.7911 50.5471 61.2573C50.3607 61.6303 50.081 62.0965 49.9877 62.5627C49.8012 63.7747 49.8012 64.5206 50.1742 65.3598C50.3607 65.7327 50.5471 66.1989 50.9201 66.3854C51.293 66.7583 51.4795 66.8516 51.8525 67.2245C52.5984 67.6907 53.0646 67.784 53.7172 67.784C54.0902 67.784 54.1834 67.784 54.5564 67.6907C54.9293 67.6907 55.8617 67.3178 56.2346 67.2245C56.7008 66.8516 57.0738 66.6651 57.2603 66.2922C58.2859 64.8004 58.5656 63.4018 57.7264 61.7235ZM52.6916 66.1057C52.5051 65.9192 52.2254 65.7327 52.1322 65.6395C51.9457 65.453 51.7592 65.1733 51.666 64.8004C51.4795 64.4274 51.293 63.7747 51.5728 63.0288C51.5728 62.8424 51.7592 62.5627 51.9457 62.1897V62.0965C52.039 61.91 52.3187 61.7235 52.4119 61.537C52.7849 61.3506 52.8781 61.1641 53.251 61.1641C53.3443 61.1641 53.624 61.0709 53.624 61.0709C53.8105 61.0709 53.9969 60.9776 53.9969 60.9776C53.9969 60.9776 54.1834 60.9776 54.3699 60.9776C54.5564 60.9776 54.7428 60.9776 54.7428 60.9776C55.209 61.0709 55.6752 61.3506 56.0482 61.7235C56.2346 61.91 56.5144 62.2829 56.6076 62.5627C57.167 63.868 56.7941 64.8004 56.1414 65.826C56.0482 66.0124 55.9549 66.1989 55.6752 66.1989C55.3023 66.2922 54.6496 66.5719 54.4631 66.5719C53.4375 66.5719 53.251 66.4786 52.6916 66.1057Z" fill="#010202"/>
<path d="M71.8051 74.2172C71.6186 73.8442 71.0592 73.1916 70.8727 73.0051C70.3133 72.5389 69.6606 72.0727 69.0079 71.9795C68.635 71.8862 68.5418 71.8862 68.262 71.8862C68.1688 71.8862 68.1688 71.8862 68.0756 71.8862C67.8891 71.8862 67.7026 71.8862 67.3297 71.9795C67.1432 71.9795 66.9567 72.0727 66.7702 72.1659C66.3973 72.3524 65.9311 72.5389 65.7446 72.7254C65.3717 73.0983 64.9987 73.2848 64.719 73.751C64.5325 74.1239 64.2528 74.5901 64.1596 75.0563C63.9731 76.2684 63.9731 77.0143 64.3461 77.8534C64.5325 78.2264 64.719 78.6926 65.092 78.879C65.4649 79.252 65.6514 79.3452 66.0243 79.625C66.7702 80.0911 67.2364 80.3708 67.8891 80.3708C68.2621 80.3708 68.3553 80.3709 68.7282 80.2776C69.1012 80.2776 70.0336 79.9047 70.4065 79.8114C70.8727 79.4385 71.2456 79.252 71.4321 78.879C72.4577 77.294 72.6442 75.8954 71.8051 74.2172ZM65.9311 78.0399C65.7446 77.8534 65.5582 77.5737 65.4649 77.2008C65.2784 76.8278 65.092 76.1752 65.3717 75.4293C65.3717 75.2428 65.5582 74.9631 65.7446 74.6834L65.8379 74.5901C65.9311 74.4036 66.2108 74.2172 66.3973 74.0307C66.7702 73.8442 66.8635 73.6577 67.2364 73.6577C67.3297 73.6577 67.4229 73.5645 67.6094 73.5645H67.7026C67.7959 73.5645 68.0756 73.4713 68.0756 73.4713C68.1688 73.4713 68.262 73.4713 68.4485 73.4713C68.635 73.4713 68.8215 73.4713 68.8215 73.4713C69.2877 73.5645 69.7538 73.8442 70.1268 74.2172C70.3133 74.4036 70.593 74.7766 70.6862 75.0563C71.2457 76.3616 70.8727 77.294 70.22 78.3196C70.1268 78.5061 70.0336 78.6926 69.7539 78.6926C69.5674 78.7858 68.8215 79.0655 68.7282 79.0655C67.7959 79.1588 67.7026 79.1588 66.9567 78.6926L66.8635 78.7858L66.9567 78.6926C66.3973 78.4129 66.2108 78.1331 65.9311 78.0399Z" fill="#010202"/>
</svg>
