<svg width="24" height="24" viewBox="0 0 24 24" fill="none" xmlns="http://www.w3.org/2000/svg">
<path d="M2.50029 16C-0.699717 13.6 0.83362 8.33333 2.00029 6C1.50057 7.5 2 12.5 2.5 14C3 15.5 5.5 17 5.5 17.5C5.5 17.9 6.5 19.8333 7 20.5L6 22.5L4.5 17C4.5 17 3.91626 17.062 2.50029 16Z" fill="#AFB1B0"/>
<path d="M16.0002 17C22.0002 16.2 22.1669 8 21.5002 4C24.5004 6.5 23.5 13 23 14C22.5 15 20 16.5 17.5 17.5C15.5 18.3 11.3335 18.5 9.5002 18.5C9.16686 18.3333 10.0002 17.8 16.0002 17Z" fill="#AFB1B0"/>
<path d="M8.14772 18.3551C7.48099 19.4627 7.13141 21.4891 6.5 22.5C6.36754 22.711 5.70311 23.4868 5.5 23.5C5.06729 23.5264 5.19379 22.4241 5.12756 22.134C4.95094 21.3824 4.85822 19.7924 4.72576 19.032C4.54031 17.9727 4.12967 17.1376 3.03465 16.6936C2.1913 16.3508 1.33029 15.8893 0.963808 14.9838C-0.0782341 12.3994 -0.616917 9.80609 1.15367 7.27875C1.19341 7.22161 1.24198 7.16447 1.25964 7.09854C1.82482 4.99755 3.64398 3.84596 4.97302 2.33395C5.41456 1.83287 6.12103 1.53399 6.74802 1.22631C8.65549 0.294491 10.7043 0.0219769 12.806 0C12.9782 0 13.1681 5.21541e-08 13.327 0.05714C15.5745 0.870285 17.844 1.63068 20.0561 2.53174C21.4867 3.11632 22.5729 4.08331 23.063 5.68762C23.6768 7.68752 24.1669 9.6962 23.9461 11.784C23.7474 13.6696 22.9173 15.1772 21.1997 16.2717C18.8728 17.7617 16.3119 18.3947 13.6626 18.8518C12.0863 19.1243 10.5188 19.1814 8.99548 18.5353C8.7438 18.4386 8.45238 18.421 8.14772 18.3551ZM6 22C6.80802 21.011 7.09243 18.9968 7.50307 18.0298C7.78124 17.3617 7.79449 17.3969 8.49654 17.5727C9.58715 17.8452 10.7043 18.3419 11.7772 18.2716C14.9519 18.0606 18.0604 17.5156 20.8288 15.7179C21.9989 14.9575 22.8114 14.0257 23.0984 12.6939C23.615 10.3335 23.3765 8.01277 22.4405 5.78871C22.1358 5.06348 21.9371 4.24154 21.1158 3.83277C20.4889 3.5207 19.9104 3.08555 19.2658 2.82623C17.8308 2.24164 16.356 1.75815 14.921 1.18675C13.8966 0.777982 12.8678 0.729633 11.8037 0.909843C11.2827 0.997751 10.7617 1.08566 10.2406 1.17796C9.86532 1.24389 9.45469 1.44608 9.12353 1.36257C7.96669 1.05929 7.09243 1.70101 6.17402 2.14494C5.80312 2.32516 5.22912 2.54492 5.47638 3.22181C5.49846 3.27895 5.33067 3.43279 5.22912 3.50751C4.88471 3.74926 4.48732 3.93386 4.18266 4.21956C3.62631 4.74261 3.05672 5.27885 2.61077 5.88981C2.20013 6.45241 1.93079 7.12051 1.61729 7.74905C0.875501 9.23908 0.509019 10.7775 1.0477 12.4301C1.20224 12.896 1.30821 13.3795 1.41418 13.8586C1.61288 14.7421 2.13832 15.3838 2.92868 15.7838C3.74553 16.1926 4.60212 16.5266 5.42781 16.9222C5.81195 17.1068 6.16519 17.3617 6.53167 17.5815C6.50518 17.6518 6.47427 17.7178 6.44777 17.7881C6.02831 17.7881 5.60884 17.7881 5.12756 17.7881C5.3395 18.8034 5.76598 20.8616 6 22Z" fill="black"/>
<path d="M7 13.1769C7.34569 12.7251 7.57615 12.2878 7.93624 12.0235C8.07548 11.9226 8.56041 12.1677 8.79087 12.3647C9.14136 12.6675 8.99252 13.0808 8.77167 13.398C8.54121 13.7344 8.24833 14.1429 7.773 13.9507C7.50413 13.8401 7.32649 13.5133 7 13.1769Z" fill="black"/>
<path d="M11 13.1769C11.3457 12.7251 11.5761 12.2878 11.9362 12.0235C12.0755 11.9226 12.5604 12.1677 12.7909 12.3647C13.1414 12.6675 12.9925 13.0808 12.7717 13.398C12.5412 13.7344 12.2483 14.1429 11.773 13.9507C11.5041 13.8401 11.3265 13.5133 11 13.1769Z" fill="black"/>
<path d="M15 13.1769C15.3457 12.7251 15.5761 12.2878 15.9362 12.0235C16.0755 11.9226 16.5604 12.1677 16.7909 12.3647C17.1414 12.6675 16.9925 13.0808 16.7717 13.398C16.5412 13.7344 16.2483 14.1429 15.773 13.9507C15.5041 13.8401 15.3265 13.5133 15 13.1769Z" fill="black"/>
</svg>
