<svg width="174" height="253" viewBox="0 0 174 253" fill="none" xmlns="http://www.w3.org/2000/svg">
<path d="M1.59833 220.12C4.56612 217.609 7.30562 214.869 11.3007 213.956C14.4968 213.157 17.1222 211.331 19.5192 209.39C19.4051 208.477 19.1768 207.792 19.1768 207.107C19.1768 204.254 19.2909 201.4 19.4051 198.546C19.6334 189.643 19.8617 180.74 20.09 171.836C20.2041 168.869 19.5192 166.015 18.6061 163.161C17.5788 160.079 16.8939 156.883 16.4373 153.573C15.7524 148.208 15.2958 142.729 14.611 137.364C13.9261 132 13.6978 126.635 15.1817 121.384C15.41 120.471 15.6383 119.443 15.9807 118.302C15.1817 118.987 14.4968 119.329 13.9261 119.9C13.9261 119.101 14.0402 118.53 14.3827 117.96C15.6383 115.563 17.1222 112.709 18.6061 109.969C20.7748 105.746 23.0577 101.408 24.9982 97.7558C24.9982 97.6416 25.1124 97.5275 25.1124 97.5275C24.9982 97.185 24.8841 96.8426 24.7699 96.5002C24.5416 95.587 24.3134 94.5597 24.1992 93.6465C24.1992 93.3041 24.0851 93.0758 24.0851 92.8475C24.0851 92.2768 23.9709 91.5919 23.9709 91.0212C23.8568 88.9666 23.8568 87.0261 24.0851 84.9714C24.0851 84.2866 24.1992 83.6017 24.1992 82.8027C24.3134 81.4329 25.2265 80.0632 25.3407 78.6934C25.3407 78.351 25.3407 78.0086 25.3407 77.552C25.4548 74.6983 25.4548 71.9588 25.3407 69.1052C25.1124 63.8545 24.7699 58.6038 24.5416 53.4672C24.4275 51.0701 24.4275 48.5589 24.1992 46.0477C24.1992 45.7053 23.8568 45.3629 23.6285 45.1346C20.3183 42.2809 16.8939 39.6556 13.5836 36.6878C8.90366 32.3502 6.62076 26.9854 7.19148 20.5932C7.19148 20.4791 7.19148 20.2508 7.19148 20.1366C6.84904 20.2508 6.50661 20.2508 6.05002 20.3649C6.16417 19.2235 6.16415 18.1962 6.39244 17.283C6.96318 15.5708 7.64807 13.8586 8.33295 12.2606C9.4744 9.63522 11.0724 7.23816 10.0451 4.15622C9.93098 3.81379 10.0451 3.47135 10.0451 3.12891C10.2734 1.53087 11.7573 -0.0671692 13.0129 0.275268C16.7797 1.07429 20.6607 1.87331 24.3134 3.12891C27.7377 4.27037 30.9338 6.21085 34.3582 7.46645C37.2118 8.60791 40.0655 9.63522 43.2616 8.26547C43.7181 8.03718 44.1747 8.03718 44.5172 7.80889C46.6859 6.89572 48.8547 6.66743 51.1376 7.00987C53.8771 7.35231 56.8449 7.12402 59.5844 7.46645C65.1775 8.26547 70.4283 10.206 75.2224 12.9454C77.0487 13.9728 78.9892 15.0001 80.1306 17.1688C81.2721 18.3103 82.9843 20.7074 83.6692 21.5064C86.5228 24.7025 89.3764 27.8986 92.2301 30.9805C92.3442 31.0946 92.3442 31.2088 92.4584 31.3229C92.8008 32.5785 93.1433 33.8341 93.4857 35.0897C94.1706 37.4868 94.7413 39.8839 95.1979 42.2809C95.312 43.0799 95.5403 43.9931 95.6545 44.7921C96.3393 48.7872 96.7959 52.7823 97.2525 56.7774C97.8232 61.115 96.3393 64.6535 92.3442 66.8223C90.7462 67.6213 88.9199 68.4203 87.2077 68.8769C86.0662 69.2193 85.4955 69.5618 85.4955 70.8174C85.3813 72.5296 85.2672 74.2417 84.6965 75.8398C84.354 76.753 84.2399 77.7803 83.6692 78.5793C83.8975 78.5793 84.1257 78.6934 84.2399 78.9217C84.2399 79.0359 84.354 79.0359 84.354 79.15C84.5823 78.8076 84.8106 78.4651 85.1531 78.1227C85.3814 78.5793 85.7238 79.0359 85.9521 79.6066C87.2077 82.2319 87.8926 85.0856 87.6643 88.0534C87.5501 88.8524 87.2077 89.7656 87.3218 90.4504C87.2077 90.6787 86.9794 90.907 86.8652 91.2495C86.637 91.5919 86.5228 91.9343 86.2945 92.2768C85.8379 92.7334 85.4955 93.0758 85.0389 93.5324C87.436 96.8426 107.183 123.667 117.228 138.163C120.767 143.186 122.365 147.409 122.479 147.752C128.3 159.509 129.442 172.293 131.953 185.191C133.779 183.593 135.149 182.11 136.747 180.854C142.454 176.288 145.879 170.124 148.846 163.618C152.157 156.427 152.157 148.779 151.472 141.131C151.129 137.821 150.901 134.397 150.901 131.086C150.901 129.488 151.358 127.89 153.184 127.205C155.695 126.178 157.636 126.863 158.891 129.717C160.033 132.114 160.832 134.625 161.402 137.136C162.087 140.332 162.544 143.528 162.772 146.838C163 150.149 162.772 153.573 162.772 156.883C162.772 158.481 162.772 160.079 162.658 161.677C162.658 163.047 162.658 164.417 162.544 165.787V165.901C162.544 166.472 162.316 167.042 162.316 167.613C162.316 167.613 162.201 167.841 163 167.613C162.087 170.352 161.402 172.407 160.375 174.576C158.321 178.571 156.494 182.68 154.44 186.789C151.7 192.383 149.189 198.09 144.737 202.656C141.769 205.624 138.687 208.363 134.806 209.847C131.839 210.988 129.556 212.358 129.442 215.783C129.442 216.467 129.442 217.152 129.213 217.837C128.985 218.979 128.985 220.348 128.414 221.376C126.36 225.371 123.049 227.768 118.826 229.138C112.548 231.192 105.928 231.877 99.4213 232.904C96.4535 233.361 93.3716 233.133 90.4038 233.475C85.9521 233.932 81.5004 234.502 76.8204 235.073C76.8204 235.187 76.8204 235.53 76.8204 235.986C77.0487 238.269 77.277 240.666 77.3911 243.063C77.5053 245.232 76.478 246.83 74.7658 248.086C72.3687 249.912 69.5151 250.255 66.7756 251.054C62.3239 252.423 57.8722 252.88 53.9913 249.57C53.8771 249.456 53.6488 249.341 53.4205 249.227C50.9093 248.2 49.6537 246.145 49.083 243.52C48.8547 242.378 48.5123 241.237 48.284 240.21C47.5991 237.47 47.9415 235.872 50.2244 234.845C52.7357 233.703 53.3064 232.105 53.3064 229.48C53.1922 224.115 53.763 218.864 53.4205 213.5C53.0781 207.906 53.9913 202.313 54.3337 196.834C54.4478 194.551 54.4478 192.268 54.4478 190.1C54.4478 189.643 54.1054 189.072 53.8771 188.844C53.3064 188.388 52.5074 188.388 52.0508 187.931C49.9962 186.219 48.0557 184.507 46.1152 182.68C45.0879 181.767 43.9464 180.74 42.805 179.712C42.4625 179.37 42.1201 179.142 41.7777 178.799C41.4352 180.283 41.2069 181.653 40.8645 183.023C40.5221 184.849 40.0655 186.675 39.6089 188.388C37.0977 197.633 35.9562 206.993 35.4996 216.467C35.3855 218.18 35.1572 220.006 34.9289 221.718C34.7006 223.088 33.7875 223.887 32.7601 223.43C32.646 224.001 32.7601 224.914 32.4177 225.142C29.9065 226.626 27.3953 228.11 24.7699 229.252C22.7153 230.165 20.4324 230.621 18.1495 231.078C14.8392 231.763 11.529 232.219 7.99049 231.535C4.33783 230.85 1.82661 228.909 0.114426 225.713V223.316C0.571014 222.061 0.799301 220.805 1.59833 220.12Z" fill="white"/>
<path d="M25.2262 77.3232C25.112 78.4647 25.112 79.6061 25.9111 80.5193C26.5959 81.3183 27.8515 81.5466 28.993 81.6608C31.0476 81.8891 33.1022 82.0032 35.1569 82.0032C36.1842 82.0032 37.2115 82.0032 38.0105 81.4325C39.7227 80.291 39.6086 77.7798 39.0378 75.8393C37.6681 70.5886 34.7003 65.9087 31.9608 61.2287C30.2486 58.375 28.6506 55.0648 26.4818 52.4395C26.1393 60.8862 25.7969 69.1047 25.2262 77.3232Z" fill="#BCBBBA"/>
<path d="M23.8566 90.7928C23.8566 91.3635 23.9707 92.0484 23.9707 92.6191L23.8566 90.1079C23.9707 90.3362 23.8566 90.5645 23.8566 90.7928Z" fill="#BCBBBA"/>
<path d="M16.5511 118.302C16.3228 119.329 16.8936 118.987 16.7794 120.014C16.6653 121.041 16.5511 121.954 16.437 122.982C16.0945 126.292 15.9804 129.602 15.9804 132.912C15.9804 135.538 16.0945 138.163 16.2087 140.788C16.437 141.017 16.6653 141.131 16.8936 141.359C18.2633 142.272 19.9755 142.729 21.5735 142.158C23.1716 141.587 24.1989 140.104 24.8838 138.506C25.5686 136.908 25.7969 135.309 26.2535 133.711C27.5091 129.716 30.2486 126.292 33.4447 123.552C36.6408 120.813 40.4076 118.758 44.0603 116.818C46.3432 115.676 48.6261 114.421 50.5666 112.823C52.507 111.111 53.9909 108.942 54.2192 106.316C53.8768 106.202 53.5344 106.088 53.1919 105.974C48.7402 104.604 43.832 104.718 39.3803 103.463C39.2661 103.463 39.152 103.349 39.0378 103.349C36.8691 102.778 34.7003 101.865 32.7598 100.837C32.6457 100.723 32.4174 100.609 32.3032 100.495C31.5042 100.267 30.7052 99.9243 30.0203 99.4677C29.9062 99.4677 29.9062 99.3535 29.792 99.3535C29.5637 99.1253 29.5637 98.897 29.5637 98.6687V98.5545C28.0798 97.4131 26.7101 96.1575 25.5686 94.7877C25.2262 94.3311 24.7696 93.8746 24.4272 93.418C24.5413 94.3311 24.7696 95.3584 24.9979 96.2716C25.1121 96.6141 25.2262 96.9565 25.3403 97.2989C25.3403 97.4131 25.2262 97.5272 25.2262 97.5272C23.2857 101.18 21.0028 105.517 18.834 109.741C18.7199 110.426 15.2955 117.046 15.0672 117.731C14.3824 119.443 16.7794 116.59 16.5511 118.302Z" fill="#BCBBBA"/>
<path d="M85.9516 87.0261C86.1799 88.51 86.1799 90.108 85.6092 91.4778C85.0384 92.9617 83.7828 94.1032 82.5272 95.0163C76.5917 99.8104 69.058 102.664 61.5244 103.806C53.8766 104.947 46.1147 104.49 38.5811 103.349C34.8143 102.778 30.8192 101.865 28.0797 99.2397C25.9109 97.1851 24.6553 94.2173 24.3129 91.1354C23.9704 88.0534 24.1987 85.0856 24.6553 82.1178C24.7695 81.5471 24.8836 80.9764 25.2261 80.5198C26.0251 79.6066 27.509 79.9491 28.7646 80.2915C36.9831 82.9169 45.6581 83.4876 54.3332 83.031C59.5839 82.6886 64.9488 82.0037 70.1995 81.2047C72.8249 80.7481 75.4502 80.2915 78.0755 79.8349C79.3312 79.6066 80.5868 79.4925 81.7282 79.0359C82.5272 78.8076 83.4404 78.1227 84.0111 78.9218C84.8102 79.9491 85.0384 81.7754 85.2667 82.9169C85.495 84.2866 85.8375 85.6564 85.9516 87.0261Z" fill="#F15748"/>
<path d="M77.2765 62.3702C77.1624 63.9682 77.9614 65.6804 79.3312 66.3653C79.3312 66.3653 79.4453 66.3653 79.5594 66.4794C80.1302 66.7077 80.815 66.8218 81.4999 66.8218C84.2394 67.0501 87.2072 66.7077 89.7184 65.4521C90.4033 65.1097 90.974 64.7672 91.5447 64.3106C91.773 64.0824 92.1155 63.8541 92.3438 63.6258C92.4579 63.5116 92.6862 63.2833 92.8004 63.055C93.0286 62.7126 93.2569 62.3702 93.4852 62.1419C94.2842 60.658 94.7408 59.0599 95.0833 57.4619C95.4257 55.8639 95.7681 50.1566 95.5399 44.7917C95.4257 43.9927 95.3116 43.0795 95.0833 42.2805C94.6267 39.8834 94.056 37.4864 93.3711 35.0893C92.9145 34.5186 92.3438 34.1762 91.773 34.062C91.4306 34.062 90.974 34.1762 90.5174 34.4044C87.4355 36.0025 86.6365 42.7371 85.2667 45.7049C83.3263 49.8141 80.9292 53.8092 78.8746 57.8043C78.0755 59.1741 77.2765 60.7721 77.2765 62.3702Z" fill="#BCBBBA"/>
<path d="M73.1671 35.7744C72.5963 39.4271 69.8568 42.3949 67.1173 44.7919C64.2637 47.189 61.1818 49.3578 59.1271 52.4397C56.1593 56.8914 55.931 63.3977 59.4696 67.3928C60.611 68.7625 62.0949 69.6757 63.693 70.5889C68.3729 73.2142 73.6236 74.8123 78.9885 75.1547C80.5865 75.2689 82.4129 75.1547 83.326 73.8991C84.2392 72.7577 84.1251 71.2738 83.8968 69.904C83.8968 69.4474 83.7826 68.8767 83.4402 68.5343C83.2119 68.1918 82.7553 67.9635 82.2987 67.8494C80.13 67.1645 77.7329 67.8494 75.45 67.6211C70.3134 67.1645 66.3183 62.3704 65.7476 57.2338C65.1769 52.0973 67.3456 47.0748 70.6559 43.0797L73.1671 35.7744Z" fill="#BCBBBA"/>
<path d="M23.8558 89.1948V90.108C23.9699 89.7656 23.9699 89.5373 23.8558 89.1948Z" fill="#BCBBBA"/>
<path d="M130.126 209.961C130.468 209.276 130.925 208.705 131.381 208.135L131.495 208.02C132.637 206.651 134.235 205.623 135.605 204.596C139.257 201.857 142.225 198.546 144.965 194.894C145.193 194.665 145.421 194.323 145.65 194.095C145.992 193.524 146.449 193.067 146.791 192.497C146.905 192.382 147.019 192.154 147.133 192.04C147.476 191.583 147.818 191.127 148.047 190.67C149.302 188.844 150.444 187.018 151.585 185.191C155.58 179.027 159.575 172.749 162.087 165.901V165.787C162.087 164.417 162.087 163.047 162.201 161.677C161.63 162.248 161.059 163.047 160.603 163.732C159.918 164.987 159.233 166.243 158.548 167.499C156.493 171.151 154.325 174.69 151.813 178C149.074 181.539 145.878 184.849 142.91 188.273C142.796 188.387 142.682 188.502 142.568 188.616C142.111 189.186 141.54 189.757 141.084 190.328C137.431 194.437 134.121 198.66 131.838 203.683C131.724 204.025 131.61 204.254 131.495 204.596C130.582 206.194 130.012 208.135 130.126 209.961Z" fill="#BCBBBA"/>
<path d="M76.8197 187.017C76.9338 186.104 77.048 185.077 77.1621 184.164C77.1621 184.05 77.1621 183.935 77.1621 183.821L76.8197 187.017Z" fill="#BCBBBA"/>
<path d="M76.2494 215.212C76.2494 215.782 76.3635 216.239 76.4777 216.81C76.4777 216.81 76.4777 216.81 76.4777 216.924C76.5918 217.495 76.7059 218.065 76.9342 218.636C77.0484 218.864 77.1625 219.093 77.3908 219.321C80.1303 218.864 82.984 218.294 86.0659 217.837C86.0659 217.837 86.0659 217.837 86.1801 217.723C86.4083 217.266 86.5225 216.81 86.4083 216.353C86.4083 216.011 86.4083 215.668 86.2942 215.44C86.2942 215.212 86.1801 214.983 86.1801 214.755C85.381 209.733 85.2669 204.482 85.6093 199.46C85.7235 197.976 85.8376 196.492 85.6093 195.008C85.6093 194.894 85.6093 194.78 85.4952 194.665C85.2669 193.524 84.8103 192.497 84.3537 191.355C84.3537 191.241 84.2396 191.127 84.2396 191.013C84.1254 190.556 83.8971 190.214 83.783 189.757C83.2123 188.387 82.6415 187.018 82.0708 185.648C81.9567 185.42 81.8425 185.077 81.7284 184.849C80.9293 182.794 80.0162 180.74 79.2172 178.685C78.304 178.799 77.9616 179.941 77.8474 180.968C77.7333 182.109 77.505 183.251 77.3908 184.392C77.7333 186.333 77.8474 188.273 77.8474 190.214C77.8474 195.579 76.9342 200.943 76.3635 206.194C76.3635 206.422 76.3635 206.651 76.3635 206.879C76.0211 209.504 75.9069 212.358 76.2494 215.212Z" fill="#BCBBBA"/>
<path d="M19.5187 224.229C19.5187 225.256 19.6329 226.512 20.3178 227.311C21.0026 228.224 22.1441 228.681 23.2855 228.909C25.4543 228.11 27.3948 227.083 29.107 225.485C30.4767 224.115 31.504 222.517 32.1889 220.805C33.5587 217.494 34.1294 213.728 34.4718 210.075C35.1567 204.025 35.8416 197.976 36.5265 191.926C36.8689 189.072 37.2113 186.104 39.1518 184.05C39.6084 183.593 40.065 183.137 40.6357 182.794C40.9781 181.424 41.2064 180.055 41.5489 178.571C41.8913 178.913 42.2337 179.142 42.5762 179.484C42.5762 179.142 42.462 178.685 42.2337 178.342C41.8913 177.658 41.0923 177.315 40.2933 177.201C39.7225 177.087 39.1518 177.201 38.5811 177.429C37.3255 178 36.4123 179.027 35.7274 180.169C34.9284 181.31 34.2435 182.452 33.6728 183.707C33.5587 183.936 33.5587 184.05 33.4445 184.278C33.1021 184.963 32.8738 185.762 32.5313 186.447C32.4172 186.675 32.4172 186.789 32.3031 187.018C31.504 189.415 31.0475 191.812 30.8192 194.323C30.8192 195.236 30.8192 196.149 30.8192 196.948C30.8192 197.291 30.8192 197.519 30.8192 197.861C30.8192 198.432 30.8192 199.003 30.8192 199.574C30.8192 199.916 30.8192 200.144 30.8192 200.487C30.8192 202.085 30.705 203.569 30.3626 205.167C29.5636 208.705 27.3948 211.787 24.9977 214.527C22.4865 217.494 19.6329 220.462 19.5187 224.229Z" fill="#BCBBBA"/>
<path d="M63.9213 248.77C67.5739 248.314 71.1125 246.373 72.8246 243.063C73.6237 241.465 74.0802 239.639 75.2217 238.269L75.3359 238.041C74.4227 232.79 73.5095 227.653 74.7651 222.631C75.2217 220.919 75.9066 219.207 76.249 217.494C76.249 217.266 76.3632 217.038 76.3632 216.81C76.8197 214.298 77.3905 209.276 76.249 206.536C75.6783 205.167 74.5368 204.368 72.7105 204.824C67.4598 206.194 66.7749 215.212 66.09 219.549C65.0627 225.485 64.1496 231.306 63.3506 237.242C62.894 241.237 62.5515 245.346 63.9213 248.77Z" fill="#BCBBBA"/>
<path d="M-0.00018692 222.973V225.37C1.712 228.567 4.10905 230.507 7.87587 231.192C11.4144 231.877 14.7246 231.534 18.0349 230.735C20.3178 230.279 22.6007 229.822 24.6553 228.909C27.2807 227.768 29.7919 226.284 32.3031 224.8C32.6455 224.571 32.5314 223.772 32.6455 223.088C30.5909 224.457 28.4221 225.827 26.3675 227.311C23.1714 229.366 19.4046 229.822 15.8661 230.735C14.268 231.192 12.4417 230.964 10.3871 231.078C10.7295 228.338 10.9578 225.941 11.1861 223.658C9.58806 223.658 9.58806 223.658 9.13148 230.393C5.93539 230.621 3.31003 227.882 2.39686 225.713C1.59784 223.887 2.39688 220.69 4.56565 218.978C7.53344 216.695 10.3871 214.412 14.1539 213.385C16.0944 212.814 17.8066 211.559 19.4046 210.303C20.2036 209.618 20.7743 208.134 20.8885 206.993C21.1168 203.454 21.2309 200.03 21.2309 196.492C21.2309 189.072 21.1168 181.538 21.2309 174.119C21.3451 168.183 19.9753 162.59 19.0622 156.769C18.3773 152.431 17.9207 147.98 17.35 143.642C17.2358 142.843 17.1217 141.93 17.0075 141.131C16.6651 138.277 16.3227 135.538 15.9802 132.684C15.8661 131.885 15.8661 131.086 15.7519 130.287C15.4095 126.748 15.9802 123.21 16.7792 119.786C17.0075 118.987 17.1217 118.188 17.35 117.503C17.4641 117.274 17.4641 117.046 17.5783 116.475C17.4641 116.475 17.35 116.59 17.2358 116.704C16.5509 117.046 16.0944 117.274 15.5236 117.503C16.3227 115.562 17.2358 113.622 18.0349 111.681C19.5187 108.371 21.2309 105.289 23.2855 102.321C23.8563 101.636 24.7694 99.3535 25.3402 97.8696C25.3402 97.8696 25.3402 97.8696 25.3402 97.7554C25.4543 97.5272 25.5685 97.2989 25.6826 97.0706C25.4543 96.9564 25.3402 96.9564 25.1119 96.8423C25.1119 96.8423 25.1119 96.9564 24.9977 96.9564C24.9977 97.0706 24.8836 97.1847 24.8836 97.1847C22.9431 100.837 20.6602 105.175 18.4914 109.398C17.0075 112.252 15.5236 114.991 14.268 117.389C13.9256 117.959 13.8114 118.53 13.8114 119.329C14.4963 118.872 15.0671 118.416 15.8661 117.731C15.5236 118.872 15.2953 119.9 15.0671 120.813C13.5832 126.064 13.9256 131.428 14.4963 136.793C15.1812 142.158 15.5236 147.637 16.3227 153.002C16.7792 156.198 17.4641 159.394 18.4914 162.59C19.4046 165.444 20.0895 168.298 19.9753 171.265C19.6329 180.169 19.5187 189.072 19.2904 197.975C19.1763 200.829 19.1763 203.683 19.0622 206.536C19.0622 207.221 19.2905 207.906 19.4046 208.819C17.0075 210.76 14.3822 212.586 11.1861 213.385C7.191 214.298 4.4515 217.038 1.48371 219.549C0.798838 220.805 0.570541 222.06 -0.00018692 222.973Z" fill="#1D1D1B"/>
<path d="M76.1356 95.3585C76.0214 95.3585 76.0214 95.4726 75.9073 95.4726C75.5649 92.5048 75.1083 89.537 74.5375 86.6834C74.4234 85.6561 74.1951 84.6288 74.081 83.7156H74.1951C74.5375 83.6015 74.88 83.4873 75.2224 83.4873C76.2497 87.14 77.5053 90.7926 77.3912 94.7877C77.277 94.7877 77.277 94.7877 77.1629 94.9019C76.9346 94.9019 76.478 95.1302 76.1356 95.3585Z" fill="#1D1D1B"/>
<path d="M7.1909 19.9081C6.84846 20.0223 6.50603 20.0223 6.04945 20.1364C6.16359 18.995 6.16357 17.9676 6.39187 17.0545C6.96259 15.3423 7.64748 13.6301 8.33236 12.0321C9.47382 9.40671 11.0719 7.00965 10.0445 3.92771C9.9304 3.58527 10.0445 3.24284 10.0445 2.9004C10.2728 1.30236 11.7567 -0.295685 13.0123 0.0467525C16.7791 0.845773 20.6601 1.64479 24.3128 2.9004C27.7371 4.04186 30.9332 5.98233 34.3576 7.23794C37.2112 8.37939 40.0649 9.40671 43.261 8.03696C43.7175 7.80867 44.1741 7.80867 44.5166 7.58037C46.6853 6.66721 48.8541 6.43892 51.137 6.78135C53.8765 7.12379 56.8443 6.8955 59.5838 7.23794C65.177 8.03696 70.4277 9.97744 75.2218 12.7169C77.1623 13.8584 79.2169 14.9999 80.3583 17.3969C79.5593 16.9403 78.9886 16.4837 78.3037 16.2555C74.5369 14.4291 70.7701 12.3745 67.0033 10.6623C62.4375 8.60769 57.415 8.1511 52.3926 8.03696C48.8541 7.92281 45.3156 7.92281 41.8912 9.29256C40.7498 9.74914 39.1517 9.86329 37.8961 9.52085C34.1293 8.1511 30.3625 6.43892 26.7098 4.84088C25.2259 4.156 23.9703 3.35698 22.2581 2.55796C22.943 5.29746 21.4591 6.66721 19.6328 7.58037C17.8064 8.49354 15.866 9.17842 13.9255 9.86329C13.4689 10.0916 12.8982 10.3199 12.6699 10.7765C12.0992 12.4886 11.7567 14.2008 11.3001 15.913C11.186 16.2555 11.186 16.8262 11.4143 17.1686C13.0123 19.794 14.4962 22.5335 16.3226 24.9305C20.8884 30.8661 27.1664 34.6329 33.7869 37.6007C35.3849 38.2856 37.4395 37.829 38.1244 36.6876C38.3527 37.7149 38.581 38.5139 38.6951 39.3129C38.0103 39.0846 37.2112 38.628 36.9829 38.8563C35.6132 39.9978 34.3576 39.5412 33.102 38.8563C32.1888 38.3997 31.1615 37.9432 30.2483 37.4866C24.8835 35.2037 20.0894 31.8934 16.3226 27.4417C13.8114 24.474 11.985 21.1637 9.7021 17.8535C9.13138 18.4242 7.98991 18.995 7.87576 19.6798C7.30504 24.0174 8.90308 27.8516 11.3001 31.3901C13.0123 33.9013 14.9528 36.3451 17.3499 38.2856C20.7742 41.1392 24.4269 43.7646 27.8513 46.3899H27.7371C27.2805 46.3899 26.824 46.2758 26.1391 46.2758C26.5957 48.6729 26.9381 51.0699 27.2805 53.467C28.3079 61.9138 28.5362 70.2464 26.7098 78.5791C27.5088 78.9215 28.1937 79.1498 28.8786 79.3781C30.2483 79.9488 31.5039 80.7478 32.8737 80.9761C34.4717 81.2044 36.0698 81.4327 37.6678 81.661C40.9781 82.1176 44.1741 82.3459 47.4844 82.46C52.6209 82.5742 57.7575 82.1176 62.894 81.8893C64.0355 81.8893 65.177 81.7751 66.3184 81.661H66.4326C67.574 81.5468 68.6013 81.4327 69.7428 81.3186C71.5691 81.0903 73.3954 80.9761 75.2218 80.5195C76.0208 80.2912 76.934 80.063 77.733 79.8347C78.6462 79.4922 79.4452 79.2639 80.3583 78.9215C80.7008 78.8073 81.0432 78.5791 81.2715 78.4649C81.0432 78.2366 80.7008 77.8942 80.4725 77.78C79.2169 76.8669 78.0754 75.9537 76.8198 75.0405C75.5642 74.1274 74.4228 73.2142 73.1672 72.301C73.2813 72.1869 73.3955 72.0727 73.3955 71.8445C75.3359 72.5293 76.934 73.8991 78.532 75.1547C79.4452 75.9537 80.4725 76.7527 81.4998 77.4376C81.7281 76.5244 81.9564 75.6113 82.1847 74.8122C82.6413 73.1001 82.9837 71.502 83.4403 70.0181C80.2442 69.7898 77.1623 69.3333 74.0803 69.4474C66.5467 69.4474 62.095 61.1148 63.2365 56.3206C63.9213 53.5811 65.2911 50.9558 66.3184 48.3304C66.775 47.189 67.574 46.1617 68.0306 45.0202C68.1447 44.7919 68.1447 44.4495 68.0306 44.107C68.0306 43.8787 67.9165 43.6504 67.6882 43.5363C66.3184 41.9383 64.8345 40.5685 63.2365 38.8563C65.7477 39.5412 67.0033 41.71 68.8296 43.308C69.1721 42.7373 69.5145 42.1665 69.8569 41.71C68.4872 40.2261 67.1174 38.7422 65.7477 37.3724L65.976 37.1441C67.4599 38.5139 68.8296 39.7695 70.656 41.3675C70.656 41.3675 70.656 41.3675 70.656 41.2534C72.254 37.03 73.852 33.0349 75.3359 29.1539C74.7652 28.6973 74.4228 28.4691 73.9662 28.0125C75.4501 27.3276 76.0208 28.6973 76.934 28.9256C76.7057 29.3822 76.4774 29.8388 76.3632 30.1812C76.0208 31.551 76.0208 32.9207 75.5642 34.2905C73.9662 39.5412 70.9984 43.9929 68.2589 48.5587C66.0901 52.0972 65.2911 55.4075 67.3457 59.1743C69.1721 62.5986 71.2267 65.6806 75.6784 66.023C76.934 66.1372 78.3037 66.1372 79.5593 66.2513C80.1301 66.2513 80.7008 66.2513 81.2715 66.2513C84.1252 66.2513 86.8647 66.1372 89.7183 65.224C90.4032 64.9957 91.2022 64.7674 91.8871 64.425C91.7729 64.3108 91.6588 64.1967 91.5446 64.0825C89.6042 62.0279 87.6637 60.0874 85.8373 58.147C85.9515 58.0328 86.0656 57.9187 86.2939 57.6904C88.3486 59.6309 90.4032 61.4572 92.4578 63.3977C92.6861 63.626 92.9144 63.8543 93.1427 64.0825C93.5993 63.2835 93.7134 62.5986 93.4851 61.9138C93.371 61.4572 93.0285 61.0006 92.5719 60.6582C92.0012 60.0874 91.4305 59.6309 90.8598 59.0601C89.3759 57.5762 87.892 56.2065 86.2939 54.7226L86.5222 54.3801C89.1476 55.9782 91.3163 58.2611 93.5993 60.544C93.7134 60.0874 93.7134 59.8591 93.7134 59.6309C93.5993 55.4075 93.5993 51.2982 93.371 47.0748C93.2568 44.6778 92.8002 42.3948 92.5719 40.1119C92.3437 38.2856 91.8871 36.5734 91.8871 34.7471C91.8871 34.4046 91.8871 34.1763 91.7729 33.8339C91.5446 32.35 91.088 31.0944 90.0607 29.8388C88.8051 28.2408 87.5495 26.6427 86.2939 25.0447C85.2666 23.6749 84.011 22.5335 82.9837 21.1637C82.2988 20.3647 81.7281 19.4515 81.1574 18.6525C82.1847 19.3374 83.2124 19.7472 83.8973 20.5462C86.7509 23.7423 86.7509 23.3999 89.6046 26.8243C89.6046 26.8243 92.3437 30.752 92.4578 30.8661C92.8002 32.1217 93.1427 33.3773 93.4851 34.6329C94.17 37.03 94.7407 39.4271 95.1973 41.8241C95.3114 42.6231 95.5397 43.5363 95.6539 44.3353C96.3388 48.3304 96.7953 52.3255 97.2519 56.3206C97.8227 60.6582 96.3388 64.1967 92.3437 66.3655C90.7456 67.1645 88.9193 67.9635 87.2071 68.4201C86.0656 68.7625 85.4949 69.105 85.4949 70.3606C85.3808 72.0727 85.2666 73.7849 84.6959 75.383C84.3534 76.2961 84.2393 77.3234 83.6686 78.1225C83.3261 78.5791 82.9837 78.9215 82.2988 79.1498C82.0705 79.2639 81.7281 79.2639 81.3857 79.2639C79.2169 79.6064 76.934 79.8347 75.1076 81.2044C74.7652 81.3186 74.4228 81.3186 74.0803 81.4327C74.0803 81.4327 74.0803 81.4327 73.9662 81.4327C70.656 81.661 67.2316 82.0034 64.1496 82.2317C63.9214 82.1176 63.8072 82.1176 63.5789 82.2317C62.5516 82.46 61.6384 82.9166 60.7253 83.0307H60.6111C60.3828 83.0307 60.1545 83.1449 60.0404 83.259H49.7673C49.6531 83.1449 49.4248 83.1449 49.3107 83.1449C48.8541 83.1449 48.2834 83.259 47.8268 83.3732C47.5985 83.3732 47.2561 83.3732 47.0278 83.3732C46.7995 83.3732 46.5712 83.4873 46.457 83.6015C42.8044 83.259 39.0376 82.9166 35.2708 82.5742C35.1566 82.46 35.0425 82.2317 34.8142 82.2317C33.901 82.0034 32.9878 81.7751 32.0747 81.661C31.9605 81.661 31.9605 81.661 31.8464 81.661C31.5039 81.5468 31.0474 81.3186 30.7049 81.2044C29.3352 80.6337 28.0796 80.1771 26.7098 79.7205C26.5957 79.7205 26.4815 79.6064 26.3674 79.6064H26.2532C26.025 79.6064 25.9108 79.6064 25.7967 79.7205C25.6825 79.8347 25.5684 79.9488 25.4542 80.1771C25.4542 80.1771 25.4542 80.1771 25.4542 80.2912C25.4542 80.4054 25.4542 80.4054 25.4542 80.5195C25.4542 80.6337 25.4542 80.6337 25.4542 80.7478C25.4542 84.1722 25.3401 87.4824 25.5684 90.9068C25.7967 93.8746 28.0796 95.5868 30.0201 97.4131C30.1342 97.5273 30.1342 97.5273 30.2483 97.5273C30.2483 97.5273 30.1342 97.5273 30.1342 97.6414C30.0201 97.7555 30.0201 97.8697 30.0201 98.098C30.0201 98.3263 30.1342 98.5546 30.2483 98.7829C30.2483 98.7829 30.3625 98.897 30.4766 98.897C31.1615 99.3536 31.9605 99.696 32.7596 99.9243C33.5586 100.153 34.2434 100.267 35.0425 100.267C35.2708 100.267 35.499 100.153 35.7273 99.9243C38.581 100.153 41.5488 100.267 44.5166 100.495C44.6307 100.609 44.7449 100.723 44.859 100.723C46.5712 101.294 48.3975 100.952 50.2239 100.952C50.5663 100.952 50.7946 100.723 50.9087 100.495C54.4473 100.837 58.0999 101.408 61.8667 100.609C63.0082 100.609 64.2638 100.495 65.4052 100.495C65.7477 100.495 66.0901 100.267 66.2043 99.9243C69.0579 99.696 71.9116 98.5546 74.5369 97.1848C76.0208 96.9565 77.5047 96.3858 78.6462 95.5868C78.7603 95.4726 78.8745 95.3585 78.9886 95.2443C80.8149 94.217 82.413 93.418 84.011 92.3907C85.1525 91.7058 85.0383 91.2492 83.7827 90.6785C82.8695 90.2219 81.9564 89.6512 80.9291 89.0805C80.9291 88.9663 81.0432 88.8522 81.1574 88.738C82.413 89.3088 83.7827 89.7653 85.0383 90.3361C85.1525 90.2219 85.2666 90.1078 85.3808 89.9936C84.2393 88.2814 82.1847 87.7107 80.7008 86.4551C80.8149 86.341 80.8149 86.1127 80.9291 85.9985C82.413 86.7976 83.8969 87.4824 85.7232 88.5097C85.1525 86.2268 84.9242 84.1722 84.1252 82.3459C83.4403 80.7478 83.7827 79.6064 84.4676 78.4649C84.6959 78.1225 84.9242 77.78 85.2666 77.4376C85.4949 77.8942 85.8373 78.3508 86.0656 78.9215C87.3212 81.5468 88.0061 84.4005 87.7778 87.3683C87.6637 88.1673 87.3212 89.0805 87.4354 89.7653C87.3212 89.9936 87.0929 90.2219 86.9788 90.5644C86.7505 90.9068 86.6364 91.2492 86.4081 91.5917C84.5817 93.418 82.7554 95.3585 80.8149 97.299C80.5866 97.4131 80.2442 97.5273 80.0159 97.6414C79.4452 97.8697 78.8745 97.9838 78.4179 98.3263C75.7925 99.696 73.2813 101.066 70.656 102.436C70.1994 102.436 69.7428 102.55 69.2862 102.778C68.9438 102.892 68.6013 103.12 68.373 103.349C65.177 104.833 61.6384 104.604 58.2141 105.175C56.8443 105.403 55.3604 105.403 53.9907 105.289C53.8765 105.289 53.7624 105.289 53.6482 105.289C50.5663 105.061 47.3702 104.718 44.2883 104.262C40.2932 103.691 36.2981 103.12 32.4171 102.093C29.7918 101.408 27.3947 100.038 26.1391 97.7555C26.0249 97.6414 26.0249 97.5273 25.9108 97.4131C25.7967 97.1848 25.6825 96.9565 25.5684 96.6141C25.4542 96.2717 25.3401 95.9292 25.2259 95.5868C24.9976 94.6736 24.7693 93.6463 24.6552 92.7331C24.6552 92.3907 24.5411 92.1624 24.5411 91.9341C24.5411 91.3634 24.4269 90.6785 24.4269 90.1078C24.3128 88.0532 24.3128 86.1127 24.5411 84.0581C24.5411 83.3732 24.6552 82.6883 24.6552 81.8893C24.7693 80.5195 25.6825 79.1498 25.7967 77.78C25.7967 77.4376 25.7967 77.0952 25.7967 76.6386C25.9108 73.7849 25.9108 71.0454 25.7967 68.1918C25.5684 62.9411 25.2259 57.6904 24.9976 52.5538C24.8835 50.1568 24.7698 48.1695 24.5415 45.6583C24.5415 45.3159 22.4869 44.1744 22.2586 43.9461C18.9483 41.0925 16.5513 39.3803 13.6976 36.5267C9.01766 32.1891 6.62017 26.6366 7.1909 20.2444C6.73431 20.8152 7.1909 20.1364 7.1909 19.9081ZM10.7294 14.8857C10.8436 13.516 11.3001 12.0321 11.5284 10.6623C11.6426 9.97744 11.4143 9.17842 10.9577 8.37939C9.35966 11.8038 7.30505 14.8857 7.1909 18.995C9.13138 18.0818 10.6153 17.1686 10.7294 14.8857Z" fill="#1D1D1B"/>
<path d="M47.599 85.656C47.9414 85.656 48.398 85.5419 48.7405 85.4277H48.8546C48.8546 85.4277 48.8546 85.4277 48.9688 85.4277V99.8101C48.398 99.8101 47.7131 99.9242 47.1424 99.9242C47.0283 99.9242 46.9141 99.9242 46.6858 99.9242C47.0283 94.9018 47.2566 90.2219 47.599 85.656Z" fill="#1D1D1B"/>
<path d="M62.095 84.857C62.5516 84.7428 63.0081 84.5145 63.5789 84.4004C63.693 85.1994 63.693 85.9984 63.8072 86.6833C63.9213 88.0531 64.0355 89.4228 64.1496 90.7926C64.3779 93.6462 64.6062 96.3857 64.8345 99.2393C64.1496 99.2393 63.3506 99.2393 62.6657 99.3535V98.4403C59.6979 96.8423 56.7301 95.1301 53.4199 93.4179C56.9584 93.8745 59.6979 95.7008 62.5516 97.1847C61.8667 95.1301 59.4696 94.7877 58.5565 92.9613C59.8121 93.7603 61.0677 94.5594 62.5516 95.5867C62.3233 91.8199 61.9808 88.2813 61.7525 84.857C61.8667 84.9711 61.9808 84.9711 62.095 84.857Z" fill="#1D1D1B"/>
<path d="M33.3313 98.8971C33.2171 98.8971 33.103 98.8971 32.9888 98.7829C32.8747 98.7829 32.6464 98.6688 32.5323 98.6688C32.4181 98.6688 32.1898 98.5546 32.0757 98.5546C31.9615 98.5546 31.8474 98.4405 31.8474 98.4405C31.8474 98.4405 31.8474 98.4405 31.7332 98.4405C31.7332 98.4405 31.6191 98.4405 31.6191 98.3263C31.2767 96.5 31.0484 94.7878 30.5918 93.1898C30.3635 92.5049 29.3362 92.1625 28.6513 91.5917C27.9664 91.021 27.1674 90.5644 26.5967 89.7654C27.8523 90.4503 29.1079 91.021 30.5918 91.82C30.7059 89.6513 28.3089 89.8795 27.5098 88.2815C28.6513 88.9664 29.5645 89.423 30.5918 89.9937C30.9342 88.0532 31.1625 85.9986 31.505 84.0581H31.6191H31.7332C32.0757 84.1723 32.5323 84.1723 32.8747 84.2864C32.304 88.9664 32.9888 93.7605 33.5596 98.8971C33.4454 98.8971 33.4454 98.8971 33.3313 98.8971Z" fill="#1D1D1B"/>
<path d="M26.9384 198.204C28.194 199.003 29.3354 199.916 30.591 200.487C30.591 200.487 30.7052 200.487 30.7052 200.601C32.3032 201.4 32.7598 202.541 32.5315 204.368C32.1891 209.39 32.0749 214.298 31.9608 219.321C31.9608 219.777 31.9608 220.348 32.0749 220.805C32.1891 221.604 32.4174 222.289 32.4174 223.088C33.4447 223.544 34.3578 222.859 34.5861 221.375C34.8144 219.663 35.0427 217.837 35.1569 216.125C35.6134 206.651 36.7549 197.291 39.2661 188.045C39.7227 186.333 40.1793 184.506 40.5217 182.68C40.8642 181.31 41.0924 179.941 41.4349 178.457C41.7773 178.799 42.1198 179.027 42.4622 179.37C43.6037 180.397 44.7451 181.424 45.7724 182.338C47.7129 184.05 49.6534 185.876 51.708 187.588C52.1646 188.045 52.9636 188.045 53.5343 188.501C53.8768 188.73 54.1051 189.301 54.1051 189.757C54.1051 192.04 54.1051 194.323 53.9909 196.492C53.5343 202.085 52.6212 207.564 53.0778 213.157C53.4202 218.522 52.8495 223.773 52.9636 229.137C52.9636 231.763 52.3929 233.361 49.8817 234.502C47.5988 235.53 47.2563 237.128 47.9412 239.867C48.2836 241.009 48.5119 242.15 48.7402 243.177C49.3109 245.689 50.4524 247.743 53.0778 248.885C53.306 248.999 53.4202 249.113 53.6485 249.227C57.5294 252.537 62.0953 252.195 66.4328 250.711C69.0582 249.798 72.026 249.569 74.423 247.743C76.2493 246.373 77.1625 244.89 77.0484 242.721C76.9342 240.324 76.7059 238.041 76.4776 235.644C76.4776 235.301 76.4776 234.845 76.4776 234.731C81.0435 234.16 85.4952 233.589 90.061 233.132C93.0288 232.79 96.1107 233.018 99.0785 232.562C105.585 231.534 112.205 230.85 118.483 228.795C122.593 227.425 126.017 224.914 128.072 221.033C128.642 220.006 128.642 218.75 128.871 217.495C128.985 216.81 128.985 216.125 129.099 215.44C129.213 211.901 131.61 210.646 134.464 209.504C138.345 208.02 141.427 205.281 144.394 202.313C148.846 197.747 151.357 192.04 154.097 186.447C156.037 182.338 157.978 178.228 160.032 174.233C161.174 172.064 161.745 170.01 162.658 167.27C161.859 167.385 161.973 167.27 161.973 167.27C162.087 166.7 162.201 166.129 162.201 165.558V165.444C162.201 164.074 162.201 162.705 162.315 161.335C162.315 159.737 162.315 158.139 162.429 156.541C162.429 153.23 162.658 149.806 162.429 146.496C162.201 143.3 161.745 139.99 161.06 136.793C160.489 134.282 159.69 131.771 158.548 129.374C157.179 126.52 155.352 125.835 152.841 126.863C151.015 127.548 150.558 129.146 150.558 130.744C150.558 134.054 150.901 137.478 151.129 140.789C151.814 148.436 151.814 156.084 148.504 163.275C145.536 169.782 141.997 175.831 136.404 180.511C134.806 181.767 133.436 183.137 131.61 184.849C129.099 171.95 127.957 159.052 122.136 147.295C122.136 147.295 122.022 147.295 121.908 147.181C121.794 147.181 121.565 147.067 121.451 147.067C123.163 152.888 124.875 158.595 126.588 164.417C126.93 165.444 126.93 166.471 127.158 167.727C124.076 165.558 121.109 163.389 117.684 162.02C117.57 162.134 117.456 162.248 117.456 162.362C118.597 163.161 119.853 163.846 120.994 164.645C122.935 165.901 124.875 166.928 126.702 168.298C127.273 168.64 127.273 169.667 127.729 170.695C124.191 168.64 121.109 166.7 117.913 164.759C117.798 164.987 117.684 165.102 117.57 165.33C118.027 165.672 118.369 166.129 118.826 166.357C121.451 168.069 123.962 169.667 126.588 171.38C127.387 171.95 127.957 172.521 128.186 173.548C129.099 179.142 130.126 184.735 130.925 190.328C131.153 191.812 131.039 193.296 131.382 195.008C131.724 194.095 132.295 193.181 132.409 192.268C132.523 190.556 132.295 188.844 132.295 187.132C132.295 186.675 132.523 185.876 132.866 185.762C137.089 183.251 140.628 179.941 143.595 176.06C148.618 169.553 152.27 162.248 153.526 154.029C153.983 151.062 153.754 147.866 153.526 144.784C153.298 140.446 152.841 136.109 152.499 131.885C152.385 130.858 152.499 129.602 152.727 128.575C153.184 126.863 154.553 126.406 155.695 127.776C156.836 129.26 157.749 130.972 158.32 132.684C160.147 138.277 161.288 143.985 160.946 149.92C160.603 155.742 160.603 161.791 159.576 167.385C159.347 168.868 158.777 170.923 158.434 172.407C158.206 173.206 157.521 175.032 157.065 175.717C155.01 179.37 153.069 182.908 151.129 186.561C150.216 188.273 149.531 188.958 148.732 190.784C148.618 191.127 148.389 191.469 148.161 191.698C148.047 191.926 147.705 191.355 147.59 191.583L147.476 191.469C146.107 190.214 144.623 188.958 143.253 187.817C142.796 187.36 142.226 187.018 141.769 186.561C141.655 186.675 141.541 186.789 141.427 186.903C141.883 187.36 142.34 187.817 142.91 188.159C144.28 189.415 145.764 190.784 147.134 192.04C147.248 192.04 147.248 192.154 147.362 192.154C146.906 192.953 146.677 193.41 146.335 193.866C146.221 193.752 146.107 193.638 145.992 193.524C144.28 192.04 142.568 190.67 141.427 189.757C141.312 189.643 141.198 189.529 141.084 189.529C141.198 189.643 141.312 189.757 141.312 189.871C142.111 190.899 143.481 192.382 144.851 193.866C145.079 194.095 145.193 194.209 145.308 194.437C145.536 194.894 145.422 195.236 145.193 195.693C144.737 196.378 144.394 197.062 143.824 197.747C140.399 201.857 136.404 205.167 131.61 208.135C131.61 208.02 131.61 207.906 131.61 207.792C131.724 206.194 131.838 204.71 131.952 203.226C132.181 200.829 132.409 198.432 132.523 196.149C132.409 196.149 132.181 196.149 132.067 196.035C131.838 197.633 131.724 199.117 131.496 200.943C131.153 200.601 130.925 200.373 130.469 200.03C130.012 201.286 129.327 202.427 129.099 203.683C128.414 207.221 127.501 210.76 127.387 214.298C127.387 217.723 125.56 219.663 123.277 221.49C122.935 221.718 122.593 222.06 122.25 222.174C119.282 219.321 116.429 216.467 113.575 213.614C113.461 213.728 113.233 213.956 113.118 214.07C115.858 216.924 118.483 219.777 121.223 222.631C120.081 224.001 120.081 224.001 118.826 222.745C116.543 220.234 114.146 217.723 111.863 215.326C111.749 215.212 111.52 215.097 111.292 215.212C113.347 218.864 116.429 221.604 119.396 224.572C117.684 226.17 115.63 227.083 113.461 227.882C108.21 229.708 102.617 230.165 97.138 231.192C94.9693 231.649 92.5722 231.42 90.4034 231.42C90.061 231.42 89.7186 230.964 89.3761 230.735C87.0932 228.11 84.9244 225.371 82.5274 222.859C84.1254 226.17 87.0932 228.453 89.1478 231.534C84.9244 232.105 80.8152 232.676 76.4776 233.247V218.978C76.8201 218.978 77.0484 218.864 77.3908 218.864C80.1303 218.408 82.9839 217.837 86.0659 217.38C86.5225 217.266 87.0932 217.152 87.5498 217.152C88.1205 217.495 88.6912 217.837 89.1478 218.065C89.1478 217.495 89.1478 216.81 89.0337 216.239C88.3488 214.184 87.6639 212.016 86.8649 209.961C85.2669 205.281 86.2942 200.715 86.7508 196.035C87.2073 191.469 89.8327 188.045 92.6863 184.735C93.2571 184.05 93.9419 183.593 94.6268 183.022C94.5127 182.908 94.2844 182.68 94.1702 182.566C92.1156 184.735 89.9468 187.018 87.8922 189.3C85.9517 187.702 83.8971 185.99 81.8425 184.392C81.7283 184.506 81.7283 184.621 81.6142 184.735C81.8425 184.849 81.9566 185.077 82.1849 185.191C84.0113 186.789 85.9517 188.273 87.7781 189.871C87.3215 190.442 86.979 191.013 86.4083 191.698C85.4952 190.899 84.6961 190.1 83.783 189.3C82.9839 188.501 82.1849 187.817 81.3859 187.018L81.1576 187.246C82.1849 188.273 83.2122 189.415 84.3537 190.442C84.4678 190.556 84.6961 190.784 84.8103 190.899C85.7234 191.698 85.9517 192.497 85.6093 193.866C85.6093 193.98 85.6093 193.98 85.6093 194.095C84.4678 198.432 84.0113 202.884 84.2395 207.336C84.2395 207.678 84.2395 208.02 84.2395 208.477C82.1849 206.651 80.2445 204.824 78.304 203.112C80.3586 206.422 84.8103 207.906 85.6093 212.7C82.984 210.417 80.5869 208.363 78.1898 206.422C80.3586 209.618 84.1254 211.216 86.18 214.298C86.5225 214.755 86.7508 215.326 87.0932 215.896C86.979 216.011 86.8649 216.125 86.8649 216.239C86.7508 216.125 86.6366 216.125 86.5225 216.011C85.7234 215.554 84.9244 215.097 84.1254 214.527C82.2991 213.043 80.4727 211.559 78.6464 209.961C78.304 209.733 77.9615 209.504 77.6191 209.276C77.505 209.39 77.505 209.504 77.3908 209.618C80.2444 212.016 83.0981 214.413 85.8376 216.924C82.9839 217.38 80.0162 217.837 77.0484 218.408C76.8201 218.408 76.5918 218.522 76.3635 218.522V217.723C76.3635 216.81 76.3635 215.896 76.3635 215.097C76.3635 214.755 76.3635 214.413 76.3635 214.07C76.3635 211.559 76.3635 209.048 76.4776 206.537C76.4776 206.308 76.4776 206.08 76.4776 205.852C76.4776 204.368 76.5918 202.998 76.7059 201.514C77.0484 197.633 77.505 193.638 77.8474 189.757C78.304 185.99 78.6464 182.109 79.2171 178.343C79.3313 177.087 79.5596 175.831 79.7879 174.576C80.5869 168.868 82.2991 163.161 83.4405 157.454C83.783 155.513 83.5547 153.345 83.783 151.29C83.8971 149.806 82.8698 149.349 82.0708 149.121C81.3859 148.893 80.5869 149.464 79.6737 149.92C81.6142 150.719 81.3859 152.089 81.1576 153.459C80.5869 156.997 80.0162 160.536 79.4454 164.417C76.7059 162.248 74.0806 160.193 71.5694 158.253C71.4552 158.367 71.3411 158.481 71.2269 158.595C72.5967 159.737 74.0806 160.878 75.4503 162.02C76.1352 162.59 76.9342 163.161 77.7332 163.732C79.103 164.873 79.4454 164.873 78.304 167.042C75.222 164.759 72.1401 162.362 68.944 160.079C68.8299 160.193 68.8299 160.307 68.7157 160.422C69.6289 161.221 70.5421 162.02 71.5694 162.705C73.624 164.188 75.6786 165.672 77.7332 167.27C78.0757 167.499 78.1898 168.184 78.0757 168.64C77.3908 171.608 76.7059 174.576 76.0211 177.658C75.5645 179.826 75.3362 181.995 75.222 184.278C74.8796 190.556 74.5372 196.834 74.3089 203.112C74.3089 203.683 74.3089 204.139 74.3089 204.71C74.423 206.194 74.6513 207.678 74.6513 209.048C74.6513 212.472 74.423 215.896 74.3089 219.321C74.3089 220.12 74.3089 220.919 74.3089 221.832C71.6835 220.234 69.0582 218.864 66.6611 217.38C66.4328 217.266 66.0904 217.038 65.8621 216.924C65.7479 217.038 65.6338 217.266 65.5196 217.38C65.7479 217.609 65.9762 217.837 66.3187 218.065C66.4328 218.065 66.547 218.179 66.6611 218.294C68.8299 219.663 70.8845 221.033 73.0533 222.174C74.7655 222.974 74.5372 224.229 74.423 225.827C71.5694 223.773 68.944 221.946 66.3187 220.006L66.2045 219.892C66.0904 220.006 65.9762 220.12 65.8621 220.234C65.9762 220.348 66.0904 220.462 66.2045 220.576C66.547 221.033 66.8894 221.375 67.346 221.718C69.4006 223.202 71.4552 224.8 73.624 226.17C74.0806 226.512 74.423 226.854 74.5372 227.197C74.6513 227.425 74.5372 227.653 74.5372 227.882C74.5372 227.996 74.5372 228.11 74.423 228.224C71.5694 226.512 68.7157 224.686 65.8621 222.974C65.0631 222.517 64.3782 222.06 63.5792 221.604C63.465 221.718 63.465 221.832 63.3509 221.946C63.9216 222.403 64.3782 222.859 64.9489 223.202C65.1772 223.43 65.4055 223.544 65.7479 223.773C66.0904 224.001 66.4328 224.229 66.7753 224.457C69.1723 225.941 71.6835 227.425 74.0806 229.023C74.3089 229.137 74.5372 229.48 74.5372 229.708C74.7654 232.79 74.9937 235.872 75.222 238.84C75.3362 239.981 75.4503 241.009 75.4503 242.15C75.9069 246.716 71.9118 248.999 68.4874 249.341C68.6016 248.77 68.6016 248.086 68.6016 247.515C68.6016 245.232 67.9167 243.177 66.7753 241.009C66.6611 241.351 66.4328 241.808 66.4328 242.15C66.6611 244.205 67.0035 246.145 67.346 248.086V248.314C67.5743 249.341 67.2318 249.798 66.3187 250.14C63.9216 251.282 61.4104 251.053 58.8992 250.711C58.785 250.711 58.5567 250.597 58.4426 250.597C56.7304 249.455 54.9041 248.314 53.0778 247.058C54.3334 244.89 55.589 242.721 56.9587 240.438C54.1051 241.465 53.8768 244.205 52.6212 246.602C52.2787 245.46 51.9363 244.661 51.708 243.748C51.2514 242.264 50.909 240.78 50.5665 239.182C50.11 236.329 50.6807 235.301 53.306 233.932C54.9041 233.132 56.388 232.219 57.8719 231.306C56.7304 231.534 55.589 231.763 54.2192 232.105C54.2192 231.306 54.2192 230.393 54.2192 229.594C54.4475 225.599 54.9041 221.718 55.0182 217.837C55.1324 210.646 54.9041 203.455 56.1597 196.378C56.6163 193.638 56.388 190.67 56.6163 187.817C57.187 180.283 57.187 172.864 55.4748 165.444C55.3607 164.873 55.9314 164.074 56.2738 163.389H53.5343C54.7899 165.558 55.7031 183.593 54.6758 188.844C49.3109 182.908 42.9188 178.685 37.6681 172.978C38.353 172.407 38.8095 172.064 39.3803 171.608C37.3256 170.581 36.1842 170.923 34.9286 172.749C37.3256 172.064 37.5539 174.462 38.9237 175.261C39.6086 175.717 40.4076 176.402 40.6359 177.201C40.6359 177.201 40.6359 177.201 40.6359 177.315C40.75 177.886 39.8368 178.685 39.4944 179.37C38.4671 181.539 37.6681 183.822 36.6408 186.104C35.7276 185.305 34.8144 184.506 33.9013 183.707C32.7598 182.68 31.7325 181.767 30.591 180.854C30.4769 180.968 30.3627 181.082 30.3627 181.196C31.5042 182.223 32.5315 183.251 33.673 184.278C34.2437 184.849 34.8144 185.305 35.3852 185.762C36.5266 186.675 36.7549 187.474 36.07 188.958C34.9286 188.159 33.9013 187.246 32.7598 186.447C31.39 185.42 30.0203 184.392 28.7647 183.365C28.6506 183.479 28.5364 183.593 28.5364 183.707C29.9062 184.849 31.2759 185.876 32.6457 187.018C33.7871 187.931 34.8144 188.73 35.9559 189.643C35.271 192.611 34.5861 195.579 34.0154 198.546C32.9881 198.09 32.0749 197.519 31.1618 197.062C30.1344 196.606 29.2213 196.035 28.3081 195.579C28.194 195.693 28.194 195.807 28.0798 195.921C29.1071 196.606 30.1344 197.291 31.1618 197.976C31.7325 198.318 32.1891 198.66 32.7598 199.003C33.5588 199.459 33.7871 200.03 33.2164 200.829C32.5315 200.487 31.8466 200.03 31.1618 199.688C30.0203 199.003 28.7647 198.318 27.6232 197.747L26.9384 198.204Z" fill="#1D1D1B"/>
<path d="M32.7596 107.458C35.9556 109.056 39.0376 110.54 42.2337 112.138C42.5761 112.252 43.0327 112.138 43.3751 112.138C43.3751 111.909 43.4893 111.681 43.4893 111.567C40.7498 110.197 38.1244 108.828 35.3849 107.686C32.6454 106.43 29.6776 105.403 26.824 104.376C26.3674 104.148 25.6825 104.49 25.1118 104.49C25.1118 104.718 24.9976 104.947 24.9976 105.061C28.3079 107.001 31.504 109.056 34.8142 110.996L34.7 111.225C33.6727 110.996 32.5313 110.654 31.5039 110.426C30.5908 110.197 29.6776 110.197 29.3352 111.11C29.221 111.567 29.5635 112.48 29.9059 112.937C30.8191 114.192 31.9605 115.334 33.3303 116.704C32.0747 116.932 31.1615 117.16 30.3625 117.388C31.5039 118.302 32.303 118.302 33.2161 117.503C34.1293 116.704 34.8142 115.79 33.901 114.649C33.102 113.622 32.303 112.708 31.1615 111.453C33.4444 112.252 35.2708 112.937 37.2112 113.622C37.5537 113.736 37.8961 114.078 38.2386 113.964C38.8093 113.736 39.38 113.393 39.9507 113.051C39.7224 112.708 39.6083 112.138 39.2659 111.909C37.0971 110.426 34.8142 109.056 32.5313 107.572C32.5313 107.686 32.6454 107.572 32.7596 107.458Z" fill="#1D1D1B"/>
<path d="M51.3655 17.9677C51.3655 20.1365 53.1918 22.4194 54.904 22.5335C56.2737 22.5335 58.5566 20.0223 58.5566 18.4243C58.5566 16.2555 56.8445 14.4292 54.6757 14.4292C53.1918 14.4292 51.4796 16.3697 51.3655 17.9677Z" fill="#1D1D1B"/>
<path d="M59.3557 59.9733C59.6981 58.946 60.0406 58.0328 60.6113 56.6631C60.6113 58.946 60.6113 60.8864 60.6113 62.8269C60.8396 62.8269 61.0679 62.9411 61.182 62.9411C61.4103 62.3703 61.981 61.6855 61.981 61.1147C62.2093 57.0055 62.3235 52.7821 62.5518 48.6729C61.4103 49.586 62.0952 51.8689 61.182 52.4397C59.6981 53.467 59.8123 54.9509 59.2415 56.4348C58.8991 55.5216 58.5567 54.7226 58.2142 53.9236C58.1001 53.8094 57.8718 53.8094 57.7576 53.6953C57.3011 54.6084 56.7303 55.5216 56.1596 56.5489C56.0454 56.5489 55.703 56.4348 55.4747 56.3206C55.2464 56.2065 54.904 56.0923 54.3333 56.2065C54.6757 56.6631 55.1323 57.5762 55.4747 57.5762C56.1596 57.5762 56.9586 57.0055 57.7576 56.6631C57.9859 57.5762 58.3284 58.7177 58.6708 59.8591C58.8991 59.8591 59.1274 59.9733 59.3557 59.9733Z" fill="#1D1D1B"/>
<path d="M97.138 140.332C99.3068 141.474 101.59 142.615 103.759 143.756C104.215 143.985 104.9 144.099 105.471 144.213C105.585 144.099 105.585 143.871 105.699 143.756C103.53 141.816 101.476 139.876 99.3068 137.935C99.421 137.821 99.421 137.707 99.5351 137.593C102.503 139.419 105.471 141.359 108.438 143.186C104.672 140.104 100.791 137.478 96.4532 135.424C96.339 135.538 96.2249 135.766 96.1107 135.88C98.1654 137.821 100.22 139.761 102.275 141.702L102.16 141.816C101.019 141.359 99.9917 140.675 98.8502 140.332C98.3936 140.104 97.7088 140.332 97.138 140.332Z" fill="#1D1D1B"/>
<path d="M35.3855 169.325C35.8421 168.526 36.5269 167.499 37.0977 166.357C36.9835 166.243 36.8694 166.129 36.8694 166.015C36.0703 166.586 35.2713 167.271 34.3582 167.955C34.5864 166.928 34.8147 166.015 35.043 165.102C34.9289 164.988 34.8147 164.874 34.7006 164.759C34.0157 165.216 33.3308 165.673 32.4177 166.243C33.3308 163.618 31.8469 162.591 29.4499 162.362C30.1348 162.705 30.8196 163.047 31.5045 163.275C31.5045 164.759 31.5045 166.243 31.5045 167.841C32.0752 167.841 32.5318 167.841 33.1026 167.841C32.9884 168.526 32.7601 169.097 32.5318 170.124C33.5591 169.782 34.3582 169.553 35.3855 169.325Z" fill="#1D1D1B"/>
<path d="M127.729 174.462C123.62 172.522 119.739 170.581 115.63 168.641C117.228 171.152 125.675 175.261 127.729 174.462Z" fill="#1D1D1B"/>
<path d="M118.141 225.485C114.83 222.403 111.748 219.435 108.667 216.467C108.552 216.581 108.438 216.696 108.21 216.924C110.721 220.12 113.803 222.859 116.885 225.599C117.113 225.713 117.57 225.485 118.141 225.485Z" fill="#1D1D1B"/>
<path d="M69.2867 108.371C71.7979 111.453 74.1949 114.649 76.7061 117.731C76.9344 117.617 77.0486 117.389 77.2769 117.275C75.1081 113.964 72.711 110.768 69.8574 107.915C69.6291 108.143 69.5149 108.257 69.2867 108.371Z" fill="#1D1D1B"/>
<path d="M75.2227 119.329C73.3963 116.475 71.4558 113.736 69.4012 110.54C69.0588 112.366 70.771 114.991 74.8802 119.557C74.9944 119.557 75.1085 119.443 75.2227 119.329Z" fill="#1D1D1B"/>
<path d="M18.6054 34.8607C18.1488 33.9475 17.8064 33.1485 17.2356 32.2354C17.1215 32.3495 16.6649 32.5778 16.2083 32.6919C16.2083 32.8061 16.3225 33.0344 16.3225 33.1485C15.7518 32.8061 15.181 32.4636 14.6103 32.2354C14.4962 32.3495 14.382 32.4636 14.2679 32.5778C15.6376 34.5183 17.3498 36.0022 19.1761 37.3719L19.5186 37.1436C18.9478 36.5729 18.263 36.1163 17.5781 35.5456C18.1488 35.2031 18.3771 35.089 18.6054 34.8607Z" fill="#1D1D1B"/>
<path d="M18.0347 222.631C15.7518 223.202 14.2679 226.512 14.6103 229.708C16.4366 227.539 16.2083 224.8 18.0347 222.631Z" fill="#1D1D1B"/>
<path d="M78.874 77.8942C76.477 76.4103 74.194 74.9264 71.9111 73.5566C73.9658 76.4103 77.6184 78.6932 78.874 77.8942Z" fill="#1D1D1B"/>
<path d="M35.8423 58.3753C35.2716 56.4348 30.0208 52.7821 27.8521 52.668C30.5916 54.6084 33.1028 56.4348 35.8423 58.3753Z" fill="#1D1D1B"/>
<path d="M97.138 140.332C97.0238 140.789 96.6814 141.359 96.7955 141.702C97.2521 142.729 97.8228 143.642 98.5077 145.012C97.5946 144.67 96.9097 144.441 96.339 144.099C96.6814 145.126 97.4804 145.697 98.3936 145.583C99.3067 145.469 99.7633 144.784 99.0784 143.871C98.3936 142.843 97.8228 141.588 97.138 140.332Z" fill="#1D1D1B"/>
<path d="M80.7013 224.914C82.8701 227.197 85.153 229.594 87.3217 231.877C87.4359 231.763 87.55 231.649 87.7783 231.535C85.4954 229.252 83.3266 226.855 81.0437 224.572C80.9296 224.686 80.8154 224.8 80.7013 224.914Z" fill="#1D1D1B"/>
<path d="M28.6504 56.7769C30.7051 58.1466 32.7597 59.6305 34.8143 61.0003C34.9285 60.8861 35.0426 60.6578 35.1567 60.5437C33.3304 58.7173 31.1616 57.4617 28.6504 56.7769Z" fill="#1D1D1B"/>
<path d="M64.72 21.2775C65.519 19.1087 65.6332 16.7793 64.72 14.8389C64.6059 14.8389 63.3508 14.8389 63.6927 15.3419C64.0351 17.1683 64.3776 19.2229 64.72 21.2775Z" fill="#1D1D1B"/>
<path d="M43.3755 12.5563C42.1199 10.6158 39.2658 9.17837 37.097 8.83594C36.9829 8.95008 36.9829 9.06423 36.8687 9.17838C38.6951 10.0915 41.5492 11.529 43.3755 12.5563Z" fill="#1D1D1B"/>
<path d="M18.2637 4.72664C17.8071 4.04176 17.0081 3.47104 16.209 3.1286C15.41 2.78616 14.4968 2.55787 13.5837 2.44372C13.2412 2.44372 13.013 2.10129 13.1271 1.87299C13.1271 1.53056 13.4695 1.30227 13.6978 1.41641C14.7251 1.53056 15.7524 1.75885 16.6656 2.10129C17.5788 2.55787 18.492 3.1286 19.1768 4.04176C19.4051 4.27006 19.291 4.61249 19.0627 4.84079C18.8344 5.06908 18.492 4.95493 18.2637 4.72664Z" fill="white"/>
<path d="M54.4479 16.2553C54.4479 16.5977 54.6762 16.826 55.0186 16.826C55.3611 16.826 55.5894 16.5977 55.5894 16.2553C55.5894 15.9129 55.3611 15.6846 55.0186 15.6846C54.6762 15.6846 54.4479 15.9129 54.4479 16.2553Z" fill="white"/>
<path d="M122.136 147.637L121.565 147.409C120.195 145.354 118.826 141.702 116.428 138.392C106.269 124.123 88.691 101.751 83.5545 94.5596L83.4403 93.8747L84.4676 93.0757C84.4676 93.0757 106.269 122.525 116.885 138.049C120.424 143.072 122.022 147.409 122.136 147.637Z" fill="#1D1D1B"/>
<path d="M141.375 125.323C140.614 125.387 140.397 125.478 140.238 125.406C135.729 123.536 131.223 121.652 126.731 119.75C125.828 119.37 124.765 119.084 124.877 117.262C130.824 118.971 136.619 120.472 141.375 125.323Z" fill="#F15748"/>
<path d="M144.178 101.134C144.923 102.016 145.599 102.447 145.699 103.002C146.67 108.208 148.917 112.961 150.827 118C149.665 118.14 148.86 117.588 148.567 116.747C146.891 112.073 144.278 107.719 143.703 102.66C143.668 102.402 143.865 102.123 144.178 101.134Z" fill="#F15748"/>
<path d="M159.543 117.199C159.019 113.767 164.802 103.203 168.94 101.088C168.533 102.193 168.395 102.926 168.023 103.505C167.04 105.051 165.867 106.487 164.915 108.05C163.069 111.058 161.331 114.144 159.543 117.199Z" fill="#F15748"/>
</svg>
