<svg width="141" height="267" viewBox="0 0 141 267" fill="none" xmlns="http://www.w3.org/2000/svg">
<path d="M120.83 199.099C119.646 197.494 117.709 196.643 116.28 195.244C112.366 191.428 113.276 185.098 113.218 179.628C113.081 165.891 105.195 153.808 99.8622 141.02C96.3595 141.118 92.7491 140.54 89.3735 140.286C75.0396 139.229 60.148 137.458 47.7612 130.13C45.2564 134.797 43.0648 139.63 41.2253 144.591C37.2432 155.314 34.8362 166.625 34.1611 178.053C34.0633 179.638 33.9948 181.252 33.7111 182.818C33.8872 182.867 34.0633 182.935 34.2101 183.023C35.4527 183.747 35.5994 185.156 35.0906 186.37C34.5329 187.681 33.8676 188.914 33.1338 190.088C34.8265 190.41 35.5896 192.886 34.3372 194.275C29.5234 199.647 25.414 205.791 22.606 212.454C21.3047 215.536 20.3262 218.746 19.7783 222.023C20.0327 226.446 20.8154 230.858 22.107 235.115C22.5962 235.897 23.0854 236.68 23.555 237.443C25.4532 240.506 27.3317 243.588 28.77 246.885C30.0518 249.83 30.7562 253.167 32.0967 255.896C32.4098 256.532 32.7522 257.159 33.1338 257.765C33.3197 258.049 33.5056 258.333 33.7111 258.616C33.9165 258.9 33.7306 258.665 34.0242 259.018C34.8265 259.937 35.7657 260.828 36.5093 261.346C37.4486 262.002 38.4271 262.55 39.425 263.019C50.1583 263.303 61.3711 260.309 72.2218 258.89C83.4932 257.413 95.0875 257.716 106.026 260.808C109.832 261.884 114.744 262.961 117.082 259.771C117.767 258.841 118.071 257.706 118.345 256.591C122.581 239.703 123.971 222.102 122.425 204.754C122.258 202.768 122.004 200.684 120.83 199.099Z" fill="white"/>
<path d="M139.668 65.5153C139.188 65.0652 138.494 64.9576 137.838 64.9087C128.543 64.2825 119.659 72.1196 110.667 69.6736C104.405 67.9711 100.492 61.8462 95.0028 58.3924C89.7487 55.0755 82.9291 54.1264 78.7219 49.5474C75.2974 45.8196 74.3679 40.497 72.0099 36.0256C71.2174 34.5189 70.0726 32.9827 68.3897 32.699C65.8948 32.2783 63.9575 34.783 62.754 37.0138C56.0812 49.3028 52.0012 62.9909 50.8466 76.9335C50.4259 82.0311 50.3868 87.2069 49.1637 92.1773C47.5102 98.8991 43.8802 106.452 47.7744 112.176C49.4377 114.632 52.1773 116.09 54.3983 118.057C58.5566 121.735 57.6369 124.651 55.7094 128.164C57.3923 129.181 59.1436 130.101 60.9439 130.923C68.2332 134.22 76.2954 135.766 84.201 136.686C88.2811 137.165 92.3807 137.478 96.4705 137.772C97.2336 137.83 98.0066 137.899 98.7893 137.987C98.4469 137.116 98.6523 136.069 99.3079 135.355C98.9459 134.514 98.6426 133.662 98.4469 132.762C98.3099 132.087 98.3784 131.481 98.6915 130.874C99.0046 130.277 99.5623 129.993 100.149 129.749C100.658 129.533 101.186 129.396 101.725 129.299C101.901 127.567 102.586 125.913 103.447 124.387C107.311 117.548 114.493 113.135 118.642 106.462C121.919 101.198 123.084 94.9071 125.745 89.3105C129.218 82.0213 135.118 76.1801 139.316 69.2724C140.04 68.1081 140.656 66.4546 139.668 65.5153Z" fill="white"/>
<path d="M22.7898 100.484C22.4962 101.188 22.4767 101.423 22.3397 101.531C18.6021 104.672 14.8548 107.802 11.0976 110.914C10.3442 111.54 9.60063 112.352 8.03516 111.413C12.2913 106.922 16.293 102.47 22.7898 100.484Z" fill="#F15748"/>
<path d="M0 82.1969C1.12519 81.9425 1.81987 81.5413 2.358 81.7077C7.42623 83.2438 12.6804 83.4395 18.0323 84.0656C17.6214 85.1615 16.7604 85.6213 15.8798 85.4941C10.9583 84.8288 5.8901 85.1419 1.13497 83.322C0.890365 83.234 0.733817 82.9307 0 82.1969Z" fill="#F15748"/>
<path d="M24.1343 73.7541C20.8468 72.6387 14.1348 62.6392 14.1642 57.9917C14.9567 58.8625 15.5437 59.3224 15.8862 59.9192C16.8059 61.5042 17.5397 63.2067 18.4888 64.7722C20.3087 67.7955 22.2459 70.7601 24.1343 73.7541Z" fill="#F15748"/>
<path d="M28.4049 210.009C27.5146 211.036 27.1428 212.406 26.9177 213.756C26.4579 216.505 26.5166 219.304 26.5851 222.082C26.7416 229.195 26.8982 236.299 27.0547 243.412C27.6711 244.547 28.2582 245.701 28.767 246.885C30.0487 249.83 30.7532 253.167 32.0936 255.897C32.4067 256.533 32.7491 257.159 33.1307 257.765C33.3166 258.049 33.5025 258.333 33.708 258.617C33.9135 258.9 33.7276 258.666 34.0211 259.018C34.6375 259.732 35.342 260.417 35.9779 260.936L38.8643 260.828C39.7546 260.799 40.7526 260.72 41.3593 260.055C41.8485 259.527 41.9463 258.763 42.0246 258.059C42.2301 256.083 42.3768 254.096 42.4551 252.11C42.4844 251.278 42.504 250.417 42.1909 249.645C41.8876 248.901 41.2908 248.314 40.8016 247.678C36.5161 242.13 36.5846 231.446 36.7705 224.744C36.8585 221.329 34.1483 203.375 28.4049 210.009Z" fill="#BCBCBB"/>
<path d="M98.5992 214.127C99.0297 221.866 99.4603 229.606 99.881 237.345C100.096 241.19 100.302 245.074 99.6364 248.871C98.971 252.667 97.3273 256.405 94.392 258.9C93.1299 259.976 91.5937 260.817 89.9304 260.896C88.2769 260.974 86.5157 260.152 85.8113 258.655C85.4199 257.814 85.3808 256.855 85.4492 255.925C85.6156 253.714 86.3592 251.601 87.1908 249.546C91.0458 239.996 96.9066 231.21 99.3526 221.211" fill="#BCBCBB"/>
<path d="M104.5 154.229C104.148 155.002 103.238 155.345 102.397 155.501C100.254 155.883 98.0621 155.492 95.9193 155.1C88.3464 153.711 80.7734 152.331 73.2102 150.942C70.5782 150.462 67.8973 149.964 65.5295 148.711C63.1618 147.459 61.1169 145.316 60.6668 142.684C60.6081 142.342 60.5983 141.94 60.8527 141.706C61.0581 141.52 61.3712 141.5 61.6452 141.5C70.8913 141.5 79.6482 140.894 88.7671 140.062C91.9763 139.768 95.5867 140.326 98.3067 142.224C100.792 143.956 106.007 150.932 104.5 154.229Z" fill="#BCBCBB"/>
<path d="M97.6015 131.578C97.5525 131.686 97.5134 131.783 97.4547 131.891C96.6426 133.32 95.0967 133.916 93.5019 133.858C92.1027 133.809 91.046 133.642 89.6762 134.044C88.4141 134.415 87.0149 135.237 85.469 134.65C84.0503 134.102 83.7176 132.772 82.9643 131.627L82.8762 131.5C82.5142 131.578 82.1424 131.627 81.7804 131.695C80.8607 131.862 79.9409 132.038 79.0114 132.165C77.1916 132.419 75.3521 132.537 73.5225 132.322C71.6635 132.106 69.7066 131.578 67.8476 130.844C65.8614 130.492 63.9437 129.739 62.2315 128.623C60.9106 127.752 59.7952 126.725 59.0614 125.375C57.8384 124.563 56.6349 123.721 55.3727 122.987C54.7368 122.616 54.091 122.263 53.3963 121.999C53.093 121.882 52.7897 121.784 52.4766 121.706C52.369 121.676 52.2614 121.647 52.1439 121.627C52.0168 121.911 51.8211 122.185 51.6841 122.469C51.4199 123.027 51.2144 123.565 50.9503 124.142C50.6665 124.758 50.0795 125.13 49.4239 125.267L46.0288 134.552L73.1898 142.781H92.1516L99.9986 138.623L97.6015 131.578Z" fill="#F15748"/>
<path d="M43.4021 238.108C42.8737 239.116 42.2769 240.094 41.8268 241.141C41.4061 242.119 40.7799 242.159 39.8602 241.728C38.6861 236.582 37.4924 231.376 36.2694 226.024C33.931 226.924 32.9232 229.185 31.0837 230.457C32.1307 228.147 33.8918 226.494 35.878 224.88C35.7019 223.911 35.5258 222.952 35.3007 221.69C33.4613 223.255 31.886 224.606 30.1445 226.093C30.5065 224.85 30.5163 224.86 32.3361 223.265C33.2754 222.443 34.1658 221.563 35.1638 220.633C34.3419 219.792 33.5787 218.999 32.5025 217.894C32.5025 205.35 32.5025 192.327 32.5025 179.148C31.6708 179.481 30.9174 179.784 30.0466 180.136C29.44 178.346 29.5476 176.947 30.3499 175.293C32.9623 169.971 35.3399 164.54 37.7762 159.13C38.2751 158.034 38.6274 156.869 39.1655 155.431C36.9249 156.292 35.8584 158.347 33.3635 158.895C33.5787 157.916 33.5592 157.212 33.8722 156.684C36.5727 152.026 39.4003 147.437 42.0421 142.741C43.4901 140.168 44.6447 137.428 46.034 134.552C44.8404 132.957 45.4666 131.147 46.3569 129.483C47.2375 127.849 48.3627 126.352 49.4389 124.836C50.0651 123.955 50.8087 123.143 51.4936 122.312C52.9417 123.29 52.9613 123.574 52.0416 125.002C50.8185 126.9 49.6346 128.828 48.4703 130.765C48.1964 131.225 48.03 131.753 47.6778 132.575C48.0496 132.937 48.4801 133.348 48.8617 133.73C49.8597 133.006 50.5935 132.468 51.3273 131.929C50.9849 132.663 50.6326 133.397 50.1923 134.346C51.0044 134.659 51.7382 134.933 52.5405 135.236C53.0787 133.495 53.4994 132.017 53.4407 130.217C52.5405 130.951 51.9046 131.47 51.2686 131.988C52.2568 130.295 53.0395 128.476 53.8712 126.685C54.1354 126.793 54.4093 126.91 54.6735 127.018C54.3213 129.806 53.969 132.605 53.5972 135.589C53.6462 135.628 53.8321 135.961 54.0962 136.029C57.6088 137.047 61.1115 138.113 64.6632 138.984C67.3147 139.63 70.0152 140.089 72.7156 140.461C75.4161 140.833 78.1556 141.068 80.8757 141.195C82.3433 141.264 83.8207 140.98 85.2981 140.862C87.6268 140.686 89.9554 140.393 92.2841 140.383C94.0355 140.373 95.5911 140.207 97.186 139.287C98.409 138.583 98.5851 137.849 98.5068 136.665C98.3405 134.346 97.4991 132.282 96.0314 130.354C97.274 129.699 97.8415 130.384 98.3112 131.039C99.9451 133.319 100.444 135.951 99.994 138.622C99.7592 140.011 99.9256 140.872 100.875 141.929C102.117 143.318 103.057 144.972 104.074 146.547C105.845 149.306 107.753 152.007 109.279 154.913C110.62 157.456 111.618 160.196 112.586 162.916C114.083 167.113 115.453 171.35 116.813 175.596C117.361 177.299 117.772 179.06 118.144 180.811C118.261 181.34 118.056 181.937 117.977 182.631C116.598 182.259 115.502 181.966 114.093 181.584C114.612 185.185 116.089 188.11 116.931 191.124C120.355 191.525 123.241 194.284 124.132 197.748C125.472 202.963 125.844 208.217 125.149 213.559C124.905 215.408 124.826 217.287 124.66 219.312C126.363 219.694 126.451 220.858 126.128 222.316C124.914 227.893 123.691 233.46 122.586 239.057C121.813 242.99 120.825 246.826 118.731 250.299C118.3 251.003 118.535 251.571 118.936 252.236C119.856 253.772 120.697 255.357 121.49 256.962C122.057 258.097 121.862 259.154 121.118 260.259C119.934 262.011 119.024 264.016 116.823 264.701C113.477 265.748 110.17 267.069 106.52 266.12C104.485 265.592 102.401 265.279 100.356 264.829C97.6263 264.232 96.2467 262.099 95.1215 259.858C94.7986 259.222 95.0432 258.136 95.3563 257.383C95.9238 256.023 96.5696 254.643 97.4599 253.479C98.8884 251.61 99.7299 249.604 99.9353 247.266C100.16 244.702 100.493 242.149 100.787 239.468C99.8668 239.067 98.9471 238.744 99.1917 237.413C100.16 232.091 99.1526 226.827 98.6145 221.543C98.4286 219.753 98.2818 217.962 98.2329 216.162C98.135 212.062 97.1664 208.119 96.2075 204.176C95.9727 203.217 95.8455 202.239 95.6009 200.908C96.3641 201.153 96.9414 201.163 97.0881 201.407C97.4697 202.063 97.7632 202.816 97.91 203.56C99.3287 210.614 99.4266 217.815 100.239 224.938C100.258 225.085 100.346 225.222 100.532 225.701C102.059 224.204 103.497 222.805 104.925 221.396C105.062 221.524 105.209 221.651 105.346 221.778C104.994 222.179 104.661 222.59 104.299 222.981C103.291 224.077 102.225 225.114 101.305 226.269C100.894 226.787 100.787 227.541 100.542 228.187C100.679 228.265 100.816 228.353 100.963 228.431C102.235 227.267 103.507 226.103 104.788 224.938C104.925 225.075 105.052 225.222 105.189 225.359C104.514 226.044 103.82 226.729 103.154 227.423C101.52 229.146 99.9549 230.916 100.914 233.47C101.354 234.184 101.99 234.801 102.117 235.515C102.323 236.65 102.293 237.853 102.176 239.008C101.794 242.804 101.325 246.601 100.884 250.407C101.52 250.72 102.117 251.003 102.753 251.317C102.616 251.649 102.577 252.001 102.45 252.041C100.718 252.54 99.2113 253.234 99.0156 255.348C98.996 255.524 98.7025 255.671 98.5264 255.837C95.8064 258.488 96.6478 261.551 100.513 262.842C101.109 260.103 101.325 257.138 104.182 255.426C105.395 256.629 104.387 257.344 103.81 258.058C102.254 259.985 102.068 260.797 102.792 263.381C106.589 263.381 110.404 265.66 114.377 263.351C113.78 260.416 112.087 258.097 110.385 255.876C111.197 255.113 111.784 255.24 112.205 255.808C112.86 256.678 113.486 257.588 114.025 258.537C114.817 259.946 115.522 261.414 116.255 262.833C119.191 262.118 120.805 258.831 119.543 256.355C118.907 255.123 118.359 253.919 117.019 253.127C116.255 252.667 115.942 251.463 115.336 250.456C117.165 249.976 117.097 248.195 117.498 246.689C117.831 245.417 118.114 244.135 118.437 242.794C118.017 242.687 117.664 242.599 117.195 242.491C118.555 236.953 118.76 231.278 119.23 225.623C119.426 223.304 119.21 220.956 119.171 218.618C119.161 218.236 118.985 217.815 119.063 217.463C120.12 213.158 119.171 208.902 118.653 204.665C117.723 197.083 115.238 189.921 112.508 182.837C112.175 181.976 111.862 181.105 111.53 180.185C113.301 178.796 114.739 180.547 116.5 180.352C116.422 179.774 116.422 179.168 116.236 178.63C113.849 171.604 111.432 164.589 109.025 157.564C108.927 157.271 108.78 156.987 108.614 156.723C106.06 152.603 103.546 148.465 100.914 144.385C100.17 143.23 99.0939 142.281 98.2133 141.283C93.9963 142.389 89.8576 142.604 85.7873 143.191C80.1516 144.013 74.741 142.917 69.2716 142.252C66.258 141.89 63.3032 141.048 60.3092 140.451C56.7478 139.737 53.4701 138.26 50.2119 136.733C49.5172 136.411 48.8128 136.088 47.8441 135.647C44.8991 141.146 42.0029 146.537 39.1166 151.928C39.9776 152.506 41.093 152.858 41.2789 153.484C41.5333 154.355 41.2691 155.519 40.9071 156.419C38.9894 161.116 36.9738 165.783 34.9876 170.45C34.5278 171.526 34.0777 172.602 33.6081 173.708C34.2832 174.041 35.1051 174.178 35.3888 174.647C35.7019 175.156 35.5747 175.968 35.5453 176.643C35.2225 185.469 34.8017 194.284 34.6061 203.11C34.518 206.926 34.8996 210.761 35.0659 214.772C36.4259 214.919 36.9151 215.898 37.0815 217.14C37.2576 218.461 37.4239 219.772 37.6196 221.093C37.737 221.925 37.9033 222.747 38.0697 223.725C39.3221 223.539 40.3788 223.392 41.4355 223.236L41.5333 223.441C40.6136 223.833 39.6939 224.224 38.4904 224.743C39.4297 229.429 40.369 234.106 41.3376 238.92C42.1497 238.499 42.678 238.225 43.2162 237.951L43.4021 238.108ZM120.424 241.875C121.852 235.241 123.271 228.627 124.68 222.081C123.926 221.749 123.417 221.524 123.134 221.387C123.339 219.596 123.545 218.06 123.691 216.514C123.809 215.271 123.877 214.019 123.956 212.776C124.278 207.992 124.005 203.256 122.85 198.589C122.312 196.427 120.913 194.881 119.318 193.472C119.083 193.267 118.623 193.306 117.909 193.159C118.085 194.353 118.154 195.331 118.388 196.261C120.316 203.736 121.05 211.368 120.874 219.029C120.727 225.261 119.925 231.484 119.367 237.707C119.23 239.213 118.574 240.769 120.424 241.875Z" fill="black"/>
<path d="M88.3958 255.457C87.6131 256.122 87.0847 256.464 86.7031 256.924C85.7443 258.089 84.3451 258.333 83.3178 257.638C81.2337 256.22 79.2476 256.22 76.958 256.895C75.4513 257.345 73.7977 257.325 71.929 257.55C71.8213 257.413 71.4984 256.983 71.1756 256.552C69.6101 254.429 68.6806 254.361 66.9977 256.298C66.4009 256.983 65.8432 257.619 64.6984 256.954C64.1603 251.905 62.1447 247.032 61.8316 241.641C62.5654 242.258 63.1134 242.718 64.0918 243.539C64.1211 242.463 64.2385 241.886 64.1309 241.348C63.5047 238.285 62.8785 235.223 62.1545 232.19C61.0293 227.483 60.6575 222.787 62.0762 218.061C62.5263 216.564 62.996 215.077 63.3775 213.57C63.6026 212.7 63.9157 211.77 63.1231 210.792C62.3013 211.193 61.5381 211.565 60.4129 212.112C60.863 210.048 61.1957 208.375 61.6066 206.721C62.3013 203.933 62.722 201.086 64.6201 198.669C65.3344 197.759 65.6279 196.252 64.3853 195.078C61.8316 199.031 58.4365 212.651 59.503 215.126C60.3053 214.48 61.0489 213.883 61.7925 213.277C61.9001 214.118 61.7044 214.823 61.4794 215.517C60.9119 217.22 59.9628 218.883 59.8161 220.615C59.5128 224.343 59.3954 228.1 60.5695 231.769C61.2054 233.755 61.6262 235.8 62.1545 237.845C60.0803 238.148 59.9433 238.168 60.1585 239.763C60.5401 242.698 61.088 245.614 61.587 248.539C62.1252 251.69 62.6535 254.85 63.2406 257.991C63.5243 259.488 62.859 260.407 61.6262 261.024C59.6008 262.032 57.5853 263.078 55.5012 263.959C54.2097 264.507 52.8106 264.634 51.2157 264.086C51.4212 261.924 51.6071 259.83 51.8028 257.736C51.5778 257.697 51.3527 257.658 51.1277 257.629C49.3861 259.468 50.1884 262.032 49.6796 264.272C49.2198 264.233 48.8284 264.233 48.4566 264.155C44.2005 263.255 43.4275 261.278 45.8931 257.629C46.1084 257.306 46.353 256.993 46.5389 256.65C46.7444 256.259 46.9107 255.848 47.1161 255.369C45.7072 254.517 45.1495 255.427 44.6799 256.308C43.995 257.599 43.3981 258.93 42.6937 260.388C41.725 258.676 41.6761 257.13 42.361 255.545C43.3003 253.392 44.2396 251.23 46.1279 249.694C46.9009 249.058 46.9303 248.49 46.1866 247.727C45.7072 247.981 45.2963 248.177 44.9049 248.412C44.4646 248.676 44.0537 248.989 43.3492 249.469C41.5685 246.416 39.8758 243.53 38.1832 240.633C37.2732 241.68 37.7233 242.776 38.2419 243.696C39.3377 245.672 40.4922 247.649 41.8327 249.459C42.7132 250.653 42.8404 251.641 42.0284 252.834C40.8934 254.498 40.0324 256.23 40.0519 258.128C40.1204 258.451 40.1596 258.803 40.1498 259.145L40.1987 259.36C40.4922 260.319 40.8347 261.259 41.1184 262.217C41.9501 263.078 42.6448 264.008 43.5547 264.311C45.9812 265.133 48.5153 265.691 51.0494 266.033C52.4681 266.229 54.1021 266.092 55.423 265.564C58.0158 264.536 60.4618 263.118 62.9764 261.895C64.2483 261.278 65.0115 260.329 64.9626 258.705C66.4302 259.312 66.9879 258.411 67.6435 257.59C68.8958 256.014 69.4535 256.093 70.5102 257.844C70.9603 258.597 71.5278 259.282 72.1246 260.124C73.5629 258.783 74.9816 258.304 76.6449 258.568C77.1635 258.646 77.7799 258.588 78.2496 258.372C79.5998 257.736 80.6663 258 81.948 258.764C84.3256 260.192 86.9575 259.458 88.5132 257.159C88.7578 256.875 88.4937 256.269 88.3958 255.457Z" fill="black"/>
<path d="M37.5809 245.497C36.2893 246.974 34.988 248.452 33.5693 250.076C33.7748 248.217 34.9587 246.789 37.5809 245.497Z" fill="black"/>
<path d="M35.8275 243.539C34.399 244.722 33.0194 245.877 31.5225 247.129C32.2856 244.83 33.9587 243.47 35.8275 243.539Z" fill="black"/>
<path d="M43.6008 261.318L43.5714 261.191C43.2094 261.23 42.8474 261.279 42.4952 261.357C42.006 260.065 41.6439 258.881 41.1058 257.776C40.9297 257.414 40.3133 257.257 39.8926 257.013C39.7752 257.472 39.511 257.962 39.5893 258.382C39.7458 259.204 40.1078 259.987 40.3818 260.799C39.0413 261.592 37.8085 261.807 36.3898 261.132C36.517 259.028 36.654 256.954 36.7812 254.938C35.5973 254.449 35.0592 254.713 34.8928 255.75C34.6776 257.091 34.4134 258.412 34.1394 259.928C32.6033 258.236 32.5642 256.69 33.7579 255.193C34.3156 254.488 34.8341 253.754 35.6462 252.668C34.1394 251.348 32.4174 250.408 31.5271 248.96C28.9049 244.704 24.9618 241.152 24.3748 235.742C24.1889 234 22.369 233.002 20.5198 233.11C19.6294 230.233 19.8349 225.772 20.921 222.279C21.4787 220.498 21.8798 218.678 22.3103 217.044C21.0188 215.557 19.8056 214.989 17.9759 216.702C19.5707 211.946 20.3828 207.524 23.8269 204.315C24.228 203.943 24.5118 203.454 24.864 203.043C26.0381 201.693 26.6741 200.176 26.2436 198.395C28.1906 196.771 30.5682 195.323 32.9947 194.266C33.2589 193.425 33.6111 192.613 34.0025 191.811C32.7403 192.329 31.5466 193.024 30.4214 193.797C27.2807 195.949 23.6018 197.221 20.7938 199.931C19.9915 200.704 19.2087 201.282 19.0424 202.397C20.0697 203.366 21.1753 202.984 22.6234 202.426C21.7037 203.747 21.1753 204.726 20.4317 205.508C18.8761 207.162 18.0542 209.089 17.5258 211.281C16.8409 214.138 15.8723 216.927 14.9819 219.911C16.5572 220.38 15.3733 222.063 15.8527 223.149C17.3497 223.776 17.3889 222.142 18.3575 221.652C18.3771 222.044 18.426 222.318 18.3966 222.592C18.3379 223.13 18.2303 223.668 18.1618 224.206C17.3986 229.617 17.7313 234.851 20.6274 239.783C21.371 239.606 22.007 239.46 22.9463 239.244C22.868 242.023 24.5803 243.863 26.1751 245.771C26.3708 246.005 26.4686 246.328 26.6643 246.573C27.7601 247.992 28.7483 249.537 30.0203 250.77C31.2629 251.984 31.938 253.05 31.1259 254.811C30.715 255.692 30.6954 256.788 30.6465 257.795C30.5584 259.566 31.302 260.936 32.7599 261.993C33.9535 262.864 35.2451 263.265 36.6833 263.343C39.2468 263.48 41.7907 263.529 44.2074 263.059C43.9628 262.492 43.7769 261.905 43.6008 261.318Z" fill="black"/>
<path d="M84.2436 170.148C83.8033 170.402 83.3532 170.667 82.6977 171.058C81.729 169.277 80.8093 167.585 79.6548 165.471C81.1029 165.814 81.23 166.733 81.641 167.369C82.0617 168.015 82.4433 168.69 82.8934 169.424C83.3239 169.14 83.6859 168.896 84.136 168.602C84.8893 169.17 85.6721 169.757 86.5233 170.393C87.1397 169.903 87.6583 169.502 88.2258 169.052C87.6387 171.498 86.8951 171.704 84.2436 170.148Z" fill="black"/>
<path d="M73.7302 217.19C74.738 216.779 75.736 216.006 76.6165 216.123C77.3993 216.231 78.0548 217.317 78.8473 218.041C77.3601 219.01 76.9492 217.209 75.9317 216.945C75.0609 217.542 74.1803 218.139 73.1138 218.873C72.8594 217.972 72.6637 217.258 72.4289 216.436C72.0375 216.622 71.6559 216.808 71.0493 217.092C71.3624 215.859 71.8712 215.066 73.1236 214.509C73.3388 215.497 73.5345 216.338 73.7302 217.19Z" fill="black"/>
<path d="M100.725 195.831C100.989 195.292 101.283 194.696 101.743 193.766C102.545 195.195 103.191 196.349 103.876 197.592C105.539 196.77 106.449 198.159 107.926 198.6C105.519 199.147 103.69 198.58 102.516 197.21C102.066 196.682 101.4 196.339 100.725 195.831Z" fill="black"/>
<path d="M94.6062 138.741C94.205 137.919 93.8137 137.097 93.3831 136.226C93.207 136.628 93.0603 136.96 92.9037 137.322C92.0525 134.964 91.9351 133.076 92.5026 131.148C92.6298 131.197 92.8548 131.227 92.8744 131.305C93.119 132.753 93.0798 134.191 94.2442 135.463C94.9193 136.207 94.9095 137.577 95.2128 138.663C95.0171 138.692 94.8116 138.721 94.6062 138.741Z" fill="black"/>
<path d="M47.3167 166.301C47.0624 165.498 46.9058 164.999 46.6906 164.315C45.9274 164.667 45.2816 164.97 44.5674 165.303C45.1642 164.06 46.0546 163.18 46.7101 163.424C47.2678 163.63 47.6592 164.275 48.256 164.863C50.164 164.686 51.7979 165.694 53.2166 167.201C51.2989 166.653 49.6356 164.902 47.3167 166.301Z" fill="black"/>
<path d="M47.8137 238.998C45.896 241.013 43.9685 243.029 42.0508 245.035C42.3834 243.381 44.0761 241.502 47.4223 238.685C47.5495 238.792 47.6767 238.89 47.8137 238.998Z" fill="black"/>
<path d="M86.2734 238.519C86.6844 238.333 87.0073 238.069 87.3203 238.079C88.2499 238.138 89.9719 239.273 91.4884 240.838C89.5316 239.977 88.0542 239.312 86.2734 238.519Z" fill="black"/>
<path d="M43.2471 237.96C43.6971 236.698 44.8028 236.248 45.8008 235.661C45.9084 235.788 46.0258 235.925 46.1334 236.052C45.2235 236.737 44.3233 237.422 43.4134 238.107L43.2471 237.96Z" fill="black"/>
<path d="M52.5247 90.5232C50.8809 88.8207 50.0591 86.3649 50.3624 84.0167C55.0392 82.9795 60.1857 84.408 63.6591 87.6955C62.6807 88.8696 61.0565 89.2317 59.5498 89.5252C56.5754 90.1025 53.601 90.6895 50.6168 91.2668" fill="#BCBCBB"/>
<path d="M106.735 117.764C108.203 118.576 110.12 118.116 111.441 117.079C112.762 116.042 113.603 114.525 114.367 113.028C115.815 110.181 117.096 107.246 118.192 104.242C118.632 103.029 119.034 101.62 118.378 100.514C117.556 99.1151 115.462 99.0271 114.024 99.8C112.586 100.573 111.588 101.923 110.404 103.039C108.496 104.839 100.766 106.121 100.228 107.921C99.8566 109.144 105.717 117.206 106.735 117.764Z" fill="#BCBCBB"/>
<path d="M93.6773 49.0677C95.6733 48.5198 95.9668 45.8683 97.1409 44.1658C99.2151 41.1523 103.647 41.5045 107.307 41.5926C115.242 41.7883 123.216 39.0095 129.311 33.9315C130.623 32.8357 131.885 31.6029 132.589 30.0374C133.352 28.3545 133.411 26.4368 133.391 24.5876C133.343 20.1847 132.863 15.635 130.711 11.7898C127.873 6.71182 122.414 3.51238 116.768 2.09366C111.123 0.674949 105.213 0.821713 99.3913 0.97826C96.1331 1.06632 92.6989 1.2033 89.9201 2.90575C86.9359 4.7354 85.2237 8.04247 83.8441 11.2615C81.2807 17.2103 79.3532 24.2647 82.3961 29.9885C84.3725 33.7065 89.108 34.9491 91.0062 38.1583C91.5443 39.0389 92.0237 49.5276 93.6773 49.0677Z" fill="white"/>
<path d="M86.1843 134.632C89.0217 133.898 91.2525 131.775 94.0117 130.874C94.1584 131.021 94.2954 131.168 94.4422 131.315C94.041 132.166 93.6399 133.007 93.1018 134.142C93.8454 133.908 94.4324 133.8 94.9314 133.536C99.3832 131.227 102.925 128.086 104.305 123.027C104.403 122.656 104.344 122.098 104.579 121.922C106.663 120.386 105.557 118.439 105.058 116.814C104.491 114.975 103.512 113.214 102.426 111.609C101.037 109.535 99.5398 107.48 97.7688 105.739C96.2425 104.232 94.3052 103.117 92.4853 101.933C89.2272 99.8193 85.4016 100.573 81.8401 100.015C80.8617 99.8584 79.7659 100.485 78.6505 100.768C77.8873 100.22 78.0634 99.6529 78.8168 99.2029C80.1572 98.4006 81.6151 98.3321 83.1218 98.5277C85.6755 98.8506 88.239 99.0659 90.7927 99.4181C91.5069 99.516 92.1918 99.9269 92.8669 100.23C93.1409 100.357 93.3366 100.651 93.6105 100.788C98.1406 103.146 101.095 107.128 103.992 111.11C105.596 113.321 106.858 115.797 107.191 118.576C107.426 120.542 107.308 122.489 105.606 123.957C105.273 124.241 105.136 124.759 104.941 125.18C102.602 130.248 98.8451 133.8 93.6203 135.757C92.7202 136.089 91.7124 136.119 90.46 136.344C90.7144 135.326 90.871 134.7 91.0666 133.908C89.0707 134.759 87.1921 135.561 85.2939 136.363C84.3742 134.495 83.6111 132.919 82.7794 131.236C79.8637 132.753 76.9871 133.692 73.9345 133.839C72.4864 133.908 71.0285 133.555 69.5707 133.36C69.0326 133.281 68.514 133.086 67.9759 132.988C61.9879 131.941 58.2601 128.057 55.5597 122.969C55.0803 122.059 55.0118 120.934 54.7182 119.76C54.1899 120.092 53.6224 120.444 52.9277 120.894C52.5168 120.366 52.1254 119.848 51.7438 119.349C49.787 120.239 49.7381 120.288 48.2606 118.585C47.0963 117.245 46.0788 115.787 45.0025 114.368C44.9047 114.241 44.8949 114.036 44.7872 113.957C42.0966 112.108 42.8108 109.515 43.2805 107.001C43.5544 105.572 44.0143 104.242 43.5838 102.666C43.349 101.825 44.0045 100.543 44.6013 99.7116C46.4212 97.1971 48.4857 94.8782 51.7732 93.254C50.1881 93.2149 48.8575 94.3988 48.0454 92.5398C48.5542 92.2561 48.9749 91.894 49.4641 91.7473C52.0765 90.9548 54.6791 90.084 57.3404 89.4871C58.6808 89.1838 60.1289 89.3501 61.5378 89.3893C62.7022 89.4186 63.8665 89.585 65.0406 89.6828C65.158 89.0566 65.2558 88.5478 65.4026 87.7847C71.0872 90.4264 75.0596 94.3303 76.9676 100.827C76.2337 100.377 75.7054 100.24 75.5195 99.9073C74.8933 98.8311 74.3747 97.6863 73.8562 96.5513C73.1713 95.025 72.2222 93.7335 70.8231 92.755C70.0305 92.1973 69.3457 91.7668 68.2694 92.0212C67.5747 92.1778 66.7528 91.8158 65.9897 91.6984C64.0622 91.4146 62.1347 91.0037 60.1974 90.9058C58.4362 90.8178 56.7534 90.9548 55.3836 92.6181C54.503 93.6846 52.9375 94.2814 51.5873 94.8684C48.7988 96.0817 47.155 98.4397 45.1688 100.67C45.7755 101.013 46.206 101.258 46.8224 101.61C46.4408 102.383 46.069 103.048 45.7852 103.753C45.2765 104.976 44.7481 106.199 44.3763 107.461C44.2198 108.009 44.2002 109.026 44.5035 109.212C45.7265 109.995 45.5308 111.189 45.8244 112.304C46.1375 113.488 46.7539 114.593 47.2627 115.787C47.8986 115.689 48.4074 115.601 49.0336 115.503C49.2195 116.051 49.3858 116.541 49.5522 117.03C49.6891 117.069 49.8555 117.167 49.9631 117.128C51.9884 116.423 53.9746 115.885 56.0782 116.991C56.4892 117.206 57.2328 116.912 57.7807 116.746C60.3148 115.983 62.8196 115.151 65.3635 114.447C65.7451 114.339 66.4887 114.662 66.7039 115.014C67.1931 115.787 67.8878 116.814 67.7117 117.548C67.3888 118.859 66.1169 117.754 65.2852 117.979C64.0133 118.321 62.7119 118.527 61.4302 118.84C60.1191 119.163 58.9548 120.2 57.4382 119.544C57.36 119.505 56.6164 120.444 56.724 120.63C57.722 122.45 58.7298 124.28 59.943 125.973C62.2227 129.133 65.8527 129.857 69.2967 130.865C70.1969 131.129 71.1068 131.324 72.0167 131.55C72.3201 131.628 72.6332 131.833 72.9169 131.784C75.7935 131.305 78.7483 131.187 81.8792 130.248C81.39 129.661 81.1356 129.319 80.8323 129.025C80.5682 128.761 80.0594 128.595 79.9713 128.301C78.8461 124.476 75.7935 122.401 72.7701 120.288C72.6527 120.2 72.5842 120.043 72.3983 119.808C72.5451 119.613 72.6723 119.339 72.8778 119.182C73.1126 118.996 73.4257 118.908 73.4648 118.899C79.169 123.018 82.5054 128.82 86.1843 134.632Z" fill="black"/>
<path d="M92.2729 56.8468C91.7249 57.6393 91.2357 58.3633 90.5802 59.3124C95.1494 60.5159 99.6404 61.8661 103.926 64.0382C103.769 64.7035 103.632 65.2808 103.486 65.9363C106.89 68.3824 110.266 70.8089 113.71 73.2843C121.919 69.6543 130.324 66.0929 139.658 66.7484C140.715 67.7953 140.441 68.7738 139.863 69.6641C136.654 74.6639 133.386 79.6049 129.218 83.9002C127.75 85.4069 126.322 87.0116 125.236 88.7923C124.453 90.0642 124.062 91.6688 123.817 93.1854C123.445 95.4945 123.719 97.9699 123.015 100.152C122.31 102.324 120.716 104.202 119.571 106.238C118.612 107.93 117.908 109.789 116.792 111.355C115.442 113.243 114.199 115.376 111.372 116.394C111.587 115.679 111.577 115.239 111.792 115.053C115.373 111.952 117.213 107.666 119.62 103.752C121.841 100.142 122.565 96.2185 122.487 92.0896C122.457 90.7002 122.839 89.6239 123.719 88.4988C125.735 85.9059 127.936 83.4892 130.069 81.004C133.269 77.2762 136.273 73.3528 138.503 68.9205C138.562 68.8031 138.513 68.6172 138.513 68.265C136.644 67.8443 134.717 67.991 132.848 68.3433C127.692 69.3315 122.682 70.8676 117.888 73.0103C116.9 73.4506 115.98 74.0768 115.041 74.6247C114.053 75.1922 113.182 75.2509 112.311 74.3018C111.89 73.842 111.196 73.6267 110.628 73.3136C110.432 73.206 110.139 73.1767 110.021 73.0103C108.368 70.7404 105.775 69.6446 103.642 67.9812C102.673 67.2376 101.509 66.7582 100.286 66.0733C100.648 65.545 100.932 65.134 101.343 64.5176C101.186 64.4296 100.991 64.2926 100.785 64.2143C97.7716 63.1185 94.7776 61.9835 91.7445 60.9757C90.815 60.6724 89.7681 60.7213 88.4668 60.5844C88.8484 59.5962 89.1615 58.7645 89.5235 57.8448C88.32 56.9935 86.9111 57.0718 85.5511 57.062C83.9856 57.0425 82.4201 57.1012 80.8644 57.1794C79.9349 57.2284 79.2794 56.9838 78.6826 56.1717C76.1778 52.7374 74.2894 49.0194 72.8218 45.0177C71.7945 42.2096 71.0802 39.2058 68.8592 36.6521C68.2721 37.6403 67.7047 38.472 67.2644 39.3722C65.513 42.9434 63.7225 46.5049 62.0885 50.1348C60.298 54.117 58.6836 58.1774 56.9518 62.189C56.3745 63.5098 55.7288 64.8796 53.7915 64.1263C52.7054 66.6799 54.0263 69.488 52.3728 71.8558C51.7857 71.7188 51.228 71.5916 50.4061 71.3959C51.4531 75.4075 52.1771 79.2624 51.365 83.3033C50.2202 83.0881 49.2712 82.912 47.8916 82.6576C48.9874 85.1232 49.9169 87.217 50.9443 89.5261C50.4159 89.438 49.9659 89.4772 49.6625 89.2815C49.2907 89.0369 48.9385 88.6357 48.7526 88.2248C47.7448 85.9646 46.786 83.6849 45.8369 81.4639C47.1969 80.0941 48.5765 81.053 49.7897 80.9062C50.5236 79.1059 50.3572 75.9652 49.4082 73.3919C49.1146 72.5896 48.733 71.8069 48.4982 70.985C48.0286 69.3119 48.508 68.8325 50.2398 69.1847C50.6899 69.2728 51.1302 69.3902 51.864 69.5565C51.864 68.4607 51.8151 67.5409 51.8738 66.6212C51.9423 65.6134 52.0401 64.5959 52.2456 63.6077C52.5978 61.9933 52.6957 61.9737 54.4862 62.3162C54.7014 62.3553 54.9362 62.3259 55.4646 62.3259C56.4724 59.8114 57.4801 57.2088 58.5662 54.6356C59.8675 51.534 61.1394 48.4226 62.5875 45.3992C64.0747 42.2976 65.738 39.2841 67.372 36.2608C67.7634 35.527 68.3504 34.9008 69.0647 33.9321C70.3855 35.7031 71.3933 37.3273 72.1467 39.0884C73.5458 42.3955 74.7982 45.771 76.2756 49.039C77.0682 50.8099 78.1934 52.4243 79.1816 54.1072C79.8762 55.2911 80.8938 55.7118 82.2929 55.7607C85.3261 55.8586 88.3592 56.1521 91.3923 56.3869C91.588 56.4163 91.7739 56.5924 92.2729 56.8468Z" fill="black"/>
<path d="M99.0014 40.8589C97.524 43.3246 96.1836 45.6043 94.7844 47.8546C94.4909 48.3243 93.9626 48.9407 93.5125 48.9701C92.5536 49.0288 92.6417 48.0503 92.4949 47.4046C92.1036 45.7315 91.7122 44.0584 91.4187 42.3657C91.0077 40.0077 90.0978 38.1487 87.6713 37.1605C85.8025 36.3973 83.8946 35.37 83.0825 33.3544C80.7734 27.6013 79.5797 21.8286 83.5032 16.2027C83.5913 16.0755 83.6989 15.9483 83.738 15.8015C84.9904 11.1247 89.0215 8.5612 91.9666 5.19542C92.945 4.08002 94.5105 3.4147 95.8998 2.7298C100.127 0.655544 104.666 0.0489211 109.324 0C109.705 0 110.126 1.16637e-07 110.478 0.127195C115.458 1.93728 120.488 3.62995 125.389 5.63571C128.56 6.93702 130.966 9.08955 132.053 12.6608C133.413 17.1126 134.499 21.584 134.009 26.2315C133.569 30.4289 131.73 33.7849 127.924 36.2212C122.767 39.5381 117.092 40.947 111.222 41.9645C107.729 42.5712 104.256 42.6984 100.88 41.2601C100.322 41.0448 99.6765 41.0057 99.0014 40.8589ZM93.7277 46.4849C95.5183 44.2834 96.663 42.2874 97.5729 40.1349C98.1893 38.6477 98.2187 38.726 99.7744 39.1173C102.191 39.724 104.667 40.8296 107.044 40.673C114.079 40.2034 120.967 38.9901 127.102 34.9884C129.695 33.2957 131.495 31.2215 132.131 28.2568C133.276 23.0027 132.747 17.8366 130.673 12.8858C129.998 11.2714 129.558 9.44178 127.738 8.53184C126.348 7.83716 125.067 6.86853 123.638 6.29126C120.458 4.98995 117.19 3.91369 114.01 2.64174C111.74 1.73181 109.461 1.62418 107.103 2.02533C105.948 2.22102 104.794 2.4167 103.639 2.62217C102.807 2.76894 101.898 3.21901 101.164 3.03311C98.6003 2.358 96.663 3.7865 94.6279 4.7747C93.806 5.17586 92.5341 5.66507 93.082 7.17184C93.1309 7.29903 92.7591 7.64148 92.5341 7.80781C91.7709 8.34594 90.8903 8.75688 90.2152 9.39286C88.9824 10.5572 87.7202 11.7509 86.732 13.1109C85.8221 14.3632 85.2252 15.8504 84.5306 17.2496C82.8868 20.5664 82.0747 23.9909 83.2684 27.6698C83.6108 28.7069 83.8457 29.7832 84.0805 30.8497C84.5208 32.8163 85.6851 34.2448 87.4365 35.1352C89.2466 36.0451 91.1447 36.7887 92.9743 37.6693C93.8256 38.0802 94.6083 38.6477 95.4204 39.1369C95.3617 39.2934 95.2932 39.4402 95.2345 39.5968C94.305 39.5968 93.3755 39.5968 92.309 39.5968C92.7787 41.8569 93.2092 43.9507 93.7277 46.4849Z" fill="black"/>
<path d="M84.3412 109.027C83.6955 109.936 82.8736 110.827 81.9441 111.394C79.772 112.686 77.5412 113.879 75.2223 114.887C73.1089 115.817 70.2226 114.535 68.9311 112.431C67.5319 110.171 67.2873 107.696 67.3363 105.132C67.3363 104.604 67.346 104.085 67.3363 103.557C67.2776 100.465 68.0505 99.575 71.1325 99.076C73.4318 98.7042 75.5746 98.9585 77.7467 99.9663C79.8992 100.974 81.905 102.08 83.6466 103.694C85.3001 105.24 85.6621 107.197 84.3412 109.027Z" fill="black"/>
<path d="M69.3416 78.2645C71.6702 78.2058 73.7836 81.1118 72.9324 83.4404C72.3943 84.9178 71.4843 86.2387 69.8993 86.9236C67.8544 87.8042 66.0932 87.3737 64.8311 85.6223C63.5102 83.7926 63.6472 82.1685 65.2909 80.4856C66.4063 79.331 67.6 78.2939 69.3416 78.2645Z" fill="black"/>
<path d="M95.8159 96.9409C95.8648 93.4185 98.898 91.1584 101.726 91.7454C103.34 92.0781 104.416 95.7472 103.36 97.3127C102.137 99.1325 100.424 100.033 98.3109 100.023C97.7043 100.023 96.902 99.4652 96.5497 98.9271C96.0703 98.203 95.9235 97.254 95.8159 96.9409Z" fill="black"/>
<path d="M101.753 87.9109C100.138 89.222 98.2302 87.5685 96.9681 89.7895C96.8017 87.4021 97.1638 86.776 99.4826 84.9365C99.8153 85.5236 100.138 86.0715 100.471 86.6488C102.917 86.3748 102.917 86.3748 103.533 88.8991C104.952 89.7601 106.273 90.5527 107.584 91.355C108.474 91.9029 109.052 92.4899 109.091 93.7423C109.12 94.5838 110.079 95.3861 110.617 96.1884C109.169 96.5602 107.946 96.1395 107.76 94.6718C107.467 92.4215 105.823 91.7953 104.228 91.081C102.917 90.5037 101.665 89.9852 101.753 87.9109Z" fill="black"/>
<path d="M65.2794 56.8474C65.661 57.0137 65.8958 57.0724 66.0817 57.1996C68.2538 58.6575 68.3223 58.6281 69.2029 56.1234C69.3007 55.8396 69.4475 55.5559 69.5062 55.4189C71.0032 55.0764 72.3534 54.7633 73.8406 54.4209C73.6645 55.4776 73.0872 56.319 72.1968 56.4854C70.6314 56.7691 70.1421 57.9432 69.4377 59.0391C69.0757 59.5968 68.5473 60.1055 67.9798 60.4382C67.7254 60.585 67.1873 60.2425 66.7274 60.0957C66.7274 60.5263 66.7274 60.9274 66.7274 61.4166C64.4184 59.8609 64.0368 58.6673 65.2794 56.8474Z" fill="black"/>
<path d="M80.4058 71.678C78.8306 71.316 78.948 69.2613 77.2064 69.4178C74.5255 67.0892 71.0814 68.6938 68.1266 67.8034C67.5493 67.6273 66.9819 67.461 65.7393 67.099C66.796 66.6587 67.1873 66.3652 67.5885 66.3456C69.7899 66.238 71.9914 66.1695 74.1928 66.1499C74.731 66.1499 75.4941 66.1988 75.7681 66.5413C76.8248 67.8328 78.0967 67.5784 79.4274 67.1185C80.8657 68.4785 80.2003 70.1419 80.4058 71.678Z" fill="black"/>
<path d="M79.4243 94.1825C78.7491 94.6326 78.3089 94.9164 77.8881 95.1903C77.0565 94.7402 76.0096 91.8441 76.2639 90.6309C77.5163 90.8755 77.3304 92.2453 78.1817 92.9791C79.1894 92.4507 80.1581 92.6464 81.2246 93.3704C81.9094 93.8401 82.9955 93.6933 83.8761 93.9281C84.1696 94.0064 84.3849 94.388 84.6392 94.6326C84.3751 94.8674 84.1207 95.2881 83.8467 95.3077C82.3008 95.4056 80.6962 95.66 79.4243 94.1825Z" fill="black"/>
<path d="M88.0422 68.6567C88.502 69.596 88.8543 70.3298 89.1771 70.9854C90.4882 70.9854 91.8189 70.7603 93.0028 71.0637C93.7757 71.2593 94.3432 72.228 95.3706 73.1868C94.3726 73.1086 93.8246 73.2358 93.5115 73.0205C92.3277 72.1888 91.2025 72.0029 89.8229 72.6389C88.5901 73.2064 88.0422 72.1888 87.6997 71.0734C87.1029 71.5627 86.6332 71.954 86.0266 72.453C86.007 70.4864 86.2027 70.1146 88.0422 68.6567Z" fill="black"/>
<path d="M123.362 78.2271C124.213 80.4872 123.606 81.1721 120.456 82.0038C120.602 82.8648 120.739 83.7356 120.896 84.6651C119.223 84.3031 119.076 83.9802 118.636 79.9197C118.89 79.8317 119.174 79.636 119.428 79.6653C120.182 79.773 121.004 80.2622 121.639 80.0665C122.256 79.8708 122.657 79.0196 123.362 78.2271Z" fill="black"/>
<path d="M91.6173 125.874C89.6213 126.06 89.7485 124.289 88.6037 123.751C88.3004 124.006 87.8699 124.28 87.547 124.651C87.1948 125.062 86.9502 125.561 86.6469 126.021C84.6607 124.798 84.9151 122.783 83.8584 121.53C85.6391 121.697 85.3652 123.507 86.3436 124.622C87.097 123.878 87.821 123.154 88.7799 122.225C89.6996 123.409 90.5508 124.505 91.6173 125.874Z" fill="black"/>
<path d="M115.119 104.418C113.123 105.074 111.792 107.099 109.992 104.946C109.366 105.445 108.877 105.837 108.397 106.218C108.27 106.12 108.143 106.032 108.016 105.935C108.417 105.201 108.818 104.457 109.278 103.616C110.286 104.164 111.078 104.604 111.763 104.976C112.908 105.103 113.475 103.41 115.119 104.418Z" fill="black"/>
<path d="M59.2195 111.392C57.0768 111.226 57.9867 108.966 56.705 108.173C56.0885 108.701 55.4624 109.24 54.7188 109.875C54.934 108.398 54.934 108.398 57.3996 107.048C57.9867 108.447 58.564 109.817 59.2195 111.392Z" fill="black"/>
<path d="M102.45 13.4735C101.589 12.0352 102.029 11.2231 102.89 10.5676C105.444 8.62051 110.404 9.70656 111.979 12.5146C112.566 13.5615 112.733 14.5498 111.813 15.4988C110.248 17.1132 108.702 18.7374 107.029 20.479C106.96 22.3086 108.555 24.2264 107.753 26.6235C106.618 25.283 105.385 21.6335 105.023 18.845C107.234 18.8157 108.594 17.2698 110.023 15.8706C111.617 14.2954 111.246 12.3189 109.093 11.5069C107.029 10.7339 105.15 10.6361 103.477 12.3874C103.213 12.6516 102.968 12.9158 102.45 13.4735Z" fill="#F15748"/>
<path d="M105.386 32.042C106.091 31.1223 106.56 30.2319 107.294 29.6938C107.578 29.4883 108.566 29.9873 109.036 30.3885C109.75 31.0049 109.447 31.8463 108.997 32.4921C108.527 33.177 107.93 34.0087 106.961 33.6173C106.414 33.3922 106.052 32.7269 105.386 32.042Z" fill="#F15748"/>
<path d="M70.1122 81.4637C70.1122 81.9432 69.7208 82.3247 69.2511 82.3247C68.7717 82.3247 68.3901 81.9334 68.3901 81.4637C68.3901 80.9941 68.7815 80.6027 69.2511 80.6027C69.7208 80.5929 70.1122 80.9843 70.1122 81.4637Z" fill="white"/>
<path d="M100.659 94.34C100.659 94.8194 100.267 95.201 99.7975 95.201C99.3279 95.201 98.9365 94.8097 98.9365 94.34C98.9365 93.8704 99.3181 93.479 99.7975 93.479C100.277 93.479 100.659 93.8606 100.659 94.34Z" fill="white"/>
<path d="M72.8036 102.509C72.9797 102.499 73.1461 102.49 73.3222 102.49C75.6313 102.49 77.9501 103.654 79.3003 105.523C79.4569 105.738 79.7602 105.787 79.9852 105.63C80.2005 105.474 80.2494 105.171 80.0929 104.946C78.547 102.803 75.9541 101.511 73.3222 101.501C73.1265 101.501 72.9308 101.511 72.7253 101.521C72.4514 101.541 72.2557 101.775 72.2753 102.049C72.3046 102.323 72.5394 102.529 72.8036 102.509Z" fill="white"/>
</svg>
