<svg width="130" height="156" viewBox="0 0 130 156" fill="none" xmlns="http://www.w3.org/2000/svg">
<path d="M107.947 136.683C107.669 135.482 107.392 134.465 106.929 133.264C106.374 131.877 106.004 130.583 104.893 129.659C104.986 129.474 104.986 129.289 105.078 129.197C105.263 128.92 105.448 128.55 105.633 128.273C106.651 125.777 107.207 123.282 105.356 121.064C103.32 118.568 100.543 116.997 97.3968 116.165C96.8415 116.073 96.1011 116.258 95.4533 116.443C95.1757 116.535 94.9906 116.905 94.7129 117.367C95.8235 117.367 96.6564 117.09 97.3968 117.367C100.081 118.106 102.487 119.4 104.338 121.526C104.708 121.988 105.078 122.635 105.078 123.19C105.078 125.223 104.615 127.071 103.042 128.827C102.95 128.088 102.95 127.626 102.764 127.164C102.302 125.593 101.746 123.929 100.543 122.727C100.081 122.45 99.7104 122.265 99.3403 122.912C99.5253 123.19 99.7104 123.652 99.9881 123.929C101.099 125.5 101.839 127.164 101.839 129.105C101.839 129.659 101.746 130.121 101.006 130.306C98.2297 130.768 95.5459 131.138 92.862 130.029C92.6769 129.936 92.3993 129.659 91.9366 129.382C92.4918 129.105 92.7695 129.012 93.2322 128.735C92.3067 128.273 91.4738 129.289 90.7335 128.273C91.1036 127.071 92.4918 126.886 93.2322 125.962C92.5844 126.239 92.0291 126.332 91.2887 126.609C91.1962 124.761 93.3248 124.206 93.5098 122.265C91.1962 123.374 90.1782 125.223 89.4378 127.441C88.1422 126.055 87.2167 124.946 87.8645 123.282C88.2347 122.173 88.6974 121.156 89.1602 120.14C89.1602 119.862 89.3453 119.493 89.4378 119.215C88.79 118.661 88.3273 118.938 87.9571 119.215C87.4943 119.4 87.1242 119.677 86.754 119.955C85.8285 117.737 86.0136 116.997 87.6794 115.888C88.6049 115.241 89.5304 114.687 90.3633 114.132C90.6409 113.947 90.826 113.762 91.1036 113.578L90.9185 113.3C89.5303 113.947 88.2347 114.594 86.754 115.334C86.754 113.947 87.3092 113.393 87.9571 112.653C88.0496 112.653 87.9571 112.468 87.9571 112.376C87.772 112.284 87.4018 112.284 87.0316 112.191C86.9391 111.637 86.9391 111.175 86.9391 110.712C87.1242 107.2 87.3092 103.781 87.4943 100.269C87.4943 99.6217 87.4018 98.9747 87.4018 98.2353C87.4018 95.555 87.2167 92.9672 87.9571 90.2869C88.6049 87.8839 89.3453 85.4809 89.808 83.0779C90.0856 81.4143 90.5484 79.6583 89.3453 78.0871C87.0316 78.0871 84.8105 78.0871 82.5894 77.9022C77.9621 77.625 73.4273 77.1629 68.8 76.8856C64.6354 76.6083 60.2858 76.5159 56.1212 76.4235C52.5119 76.3311 48.9951 76.4235 45.3858 76.2386C40.7585 76.1462 36.0387 75.7765 31.4114 75.4992C29.7455 75.4068 28.0797 75.222 26.3213 75.0371C26.6915 74.2977 26.9691 73.9281 27.2468 73.5584C26.9691 73.7432 26.6915 73.7432 26.3213 73.5584C25.8586 73.7432 25.5809 74.1129 25.1182 74.2978C24.6555 74.3902 22.8046 74.8523 22.4344 74.7599C22.4344 74.4826 22.5269 74.1129 22.712 73.8356C22.9897 73.5584 24.9331 72.4493 25.3033 72.172C25.8586 71.8023 25.6735 71.5251 26.2288 71.2478C26.1362 71.2478 26.0437 71.0629 25.9511 70.9705C24.748 71.7099 23.1747 71.9872 21.8791 72.819C21.7866 71.2478 21.0462 69.8614 20.9536 68.4751L19.7505 69.1221C19.8431 71.7099 20.7685 72.819 20.1207 75.4068C18.8251 75.4068 20.0282 75.222 18.7325 75.3144C16.3263 75.4068 13.735 75.1296 11.9767 77.5326C12.0692 78.2719 12.3468 79.1037 12.3468 79.8431C12.3468 83.8173 12.1618 87.8839 12.0692 91.9505C11.9767 96.4793 11.7916 101.008 11.9767 105.537C11.9767 108.679 12.4394 111.914 12.717 115.149C13.0872 120.509 13.3649 125.777 13.6425 131.138C13.735 132.524 14.2903 133.541 15.4009 134.28C16.5114 135.112 17.622 135.482 18.9176 135.389C20.0282 135.297 21.4164 135.02 22.2493 136.591C22.0642 135.759 22.3418 135.482 22.9897 135.482C24.5629 135.482 26.1362 135.389 27.8021 135.482C34.3728 135.851 41.0362 135.482 47.6995 135.205C49.643 135.205 51.4939 134.927 53.4373 134.927C56.769 134.927 60.1932 135.112 63.4323 134.188C63.71 134.095 64.0802 134.188 64.3578 134.188C67.5969 134.095 71.0211 134.095 74.2602 134.003C76.2962 133.911 78.3323 133.356 80.3683 134.095C80.4608 134.095 80.5534 134.003 80.7385 133.911C81.1087 133.633 81.5714 133.448 81.9416 133.171C83.1447 132.432 84.0701 131.6 84.3478 130.029C84.718 127.626 85.0881 125.315 85.4583 123.005C85.5509 122.358 85.5509 121.618 86.2912 121.156C85.8285 123.005 85.3658 124.853 86.0136 126.886C86.6614 129.012 88.2347 130.029 89.808 131.415C88.4198 133.079 88.79 134.558 89.5303 136.221C89.808 136.683 89.9005 137.238 90.0856 137.792C90.4558 139.086 90.9185 140.288 91.7515 141.397H95.7309C96.5639 140.75 97.4893 140.011 98.3222 139.271C96.8415 139.456 95.8235 140.657 94.6204 141.304C94.5278 141.304 94.3428 141.304 94.2502 141.212C92.2142 139.456 91.844 138.439 95.3608 136.961C97.5819 135.944 100.081 135.667 102.394 135.205C103.597 135.02 104.708 135.02 105.818 134.835C106.004 135.205 106.096 135.297 106.189 135.482C106.929 137.33 107.114 139.456 107.114 141.397H108.502C108.502 139.826 108.317 138.254 107.947 136.683ZM91.844 138.162C91.1962 135.667 90.7335 133.633 90.2707 131.508C91.6589 131.877 92.9546 132.339 94.3428 132.617C95.0831 132.709 95.6384 132.894 96.3788 132.894C97.8595 132.894 97.8595 132.894 98.5999 134.742C96.2862 135.482 93.7875 135.944 91.844 138.162ZM104.153 134.188C103.135 134.28 102.209 134.373 101.191 134.465C99.6179 134.558 99.6179 134.558 99.3403 132.802C100.914 132.062 102.394 131.23 104.153 130.399C105.263 131.138 105.263 132.339 105.541 133.726C104.986 133.911 104.615 134.095 104.153 134.188Z" fill="#F15748"/>
<path d="M15.5869 51.2845C15.772 51.5617 16.2347 51.7466 16.5124 51.4693C16.6975 51.2845 16.6975 51.192 16.79 51.0072C17.808 48.6042 18.826 46.2936 19.844 43.7982C20.0291 43.2437 20.3068 42.6891 20.3068 42.0422C20.5844 40.0089 18.826 38.3452 18.3633 36.4044C18.1782 35.8498 18.1782 35.1104 17.9931 34.5559C17.808 34.0014 17.4378 33.3544 16.9751 33.0771C16.8826 32.9847 16.6975 32.9847 16.6049 33.0771C16.5124 33.1696 16.4198 33.3544 16.4198 33.4468C15.8645 36.8665 15.1242 40.1937 14.6614 43.7058C14.5689 46.4785 15.4018 48.6966 15.5869 51.2845Z" fill="#BCBCBB"/>
<path d="M67.042 54.4271C66.5793 55.4438 66.8569 56.5528 67.3196 57.3846C67.4122 57.5695 67.5973 57.7543 67.7824 57.8468C67.7824 57.8468 67.7824 57.9392 67.6898 57.9392C68.1526 58.771 68.3376 59.4179 68.7078 60.3422C67.5047 60.6194 66.1165 60.4346 65.0985 59.8801C65.0985 59.8801 65.0985 59.8801 65.006 59.8801C63.2476 58.9558 61.8594 52.9483 60.8414 51.2847C57.4172 46.0166 56.8619 40.2864 57.047 33.9092C57.2321 25.3138 62.5998 47.3105 64.2656 49.5287C64.8209 50.2681 67.042 45.4621 67.042 45.4621C67.5047 45.6469 68.06 45.6469 68.4302 45.8318C68.5227 45.8318 68.5227 45.9242 68.6153 45.9242C68.8929 46.2015 69.078 46.4787 69.1706 46.8484C69.1706 46.9408 69.1706 46.9408 69.1706 47.0333C69.3557 47.403 69.4482 47.8651 69.6333 48.2348C69.6333 48.7893 69.4482 49.4363 69.078 49.9908C68.2451 51.4696 67.6898 52.9483 67.042 54.4271Z" fill="#BCBCBB"/>
<path d="M81.8495 78.7343C82.1272 78.8267 82.5899 78.8267 82.775 78.6418C83.5153 78.3646 81.5719 77.2555 81.2942 76.4237C80.3688 72.3571 75.6489 68.4753 71.762 66.9965C69.9111 66.2571 77.4998 75.3146 75.4638 75.407C66.7645 75.9616 57.3248 74.1131 47.0521 75.0373C42.795 75.6843 38.6304 75.3146 39.1857 76.701C39.5559 77.6252 44.4609 76.6085 45.3863 76.6085C57.5099 77.9025 69.726 77.3479 81.8495 78.7343Z" fill="#BCBCBB"/>
<path d="M98.4147 124.946C98.0445 123.19 96.934 121.711 96.101 120.047C94.5278 117.275 93.3247 114.317 92.5843 111.175C92.3067 109.788 91.8439 108.217 90.8259 107.2C89.6228 106.184 87.957 106.276 86.5688 106.923C85.3657 110.897 85.6433 115.056 85.5508 119.123C86.5688 121.896 86.3837 126.424 88.7899 128.365C89.4377 128.92 90.1781 129.197 91.011 129.474C92.9545 130.214 95.2681 130.861 97.0265 129.659C98.4147 128.735 98.8774 126.702 98.4147 124.946Z" fill="#BCBCBB"/>
<path d="M93.8798 143.893C94.5276 144.54 95.1754 145.187 96.1009 145.187C96.9338 145.279 97.7667 144.632 98.2295 143.893C98.6922 143.153 98.8773 142.229 98.9698 141.397C99.5251 138.625 100.173 136.591 97.8593 134.651C96.3785 133.357 93.6947 132.432 91.7512 133.449C87.4015 135.76 91.6587 141.397 93.8798 143.893Z" fill="#BCBCBB"/>
<path d="M29.0978 131.97C28.8202 132.432 28.3575 132.524 27.8947 132.709C27.2469 132.894 26.6916 133.079 26.1364 133.264C25.3034 133.541 24.5631 133.911 23.7302 134.188C22.4345 134.65 21.0463 135.112 19.6581 135.02C17.5296 135.02 15.6786 133.541 14.4755 131.785C14.1054 131.23 13.8277 130.676 13.5501 130.121C13.2724 125.131 12.9948 120.14 12.7172 115.149C12.5321 112.746 12.1619 110.343 12.0693 107.94C12.5321 107.108 12.9023 106.831 13.365 106.923C13.7352 107.108 14.2904 107.755 14.9383 108.679C16.5116 110.805 17.3445 113.947 18.9178 116.258C21.324 120.047 24.4705 123.467 27.3395 126.794C27.6171 127.164 27.8947 127.441 28.1724 127.811L28.2649 127.903C29.1904 129.197 30.0233 130.953 29.0978 131.97Z" fill="#BF3737"/>
<path d="M58.9908 61.4509C57.6952 62.0055 56.3995 62.56 55.1039 63.1145C53.7157 63.6691 52.42 64.2236 50.8467 65.0554C50.7542 65.4251 50.6617 65.7948 50.4766 66.1645C53.0679 64.8706 55.6591 63.6691 58.343 62.6524C59.7312 62.0979 61.0268 61.3585 62.3225 60.5267C62.6927 60.3419 62.7852 59.8797 63.2479 59.3252C61.3045 59.6025 60.2865 60.9888 58.9908 61.4509Z" fill="black"/>
<path d="M44.1832 48.1423C43.0726 46.8483 42.2397 45.3696 41.3142 43.9832C40.944 43.5211 40.8515 42.9666 40.1111 42.7817C39.6484 43.4287 40.0186 43.7984 40.2962 44.2605C41.3142 45.9241 42.2397 47.5877 43.4428 49.0665C44.5533 50.5453 45.2937 52.1165 45.6639 53.8725C45.6639 53.9649 45.6639 53.9649 45.6639 54.0573C45.849 53.5952 46.2192 53.1331 46.5894 52.7634" fill="black"/>
<path d="M107.947 136.683C107.669 135.482 107.392 134.465 106.929 133.264C106.374 131.877 106.004 130.583 104.893 129.659C104.986 129.474 104.986 129.289 105.078 129.197C105.263 128.92 105.448 128.55 105.633 128.273C106.651 125.777 107.207 123.282 105.356 121.064C103.32 118.568 100.543 116.997 97.3968 116.165C96.8415 116.073 96.1011 116.258 95.4533 116.443C95.1757 116.535 94.9906 116.905 94.7129 117.367C95.8235 117.367 96.6564 117.09 97.3968 117.367C100.081 118.106 102.487 119.4 104.338 121.526C104.708 121.988 105.078 122.635 105.078 123.19C105.078 125.223 104.615 127.071 103.042 128.827C102.95 128.088 102.95 127.626 102.764 127.164C102.302 125.593 101.746 123.929 100.543 122.727C100.081 122.45 99.7104 122.265 99.3403 122.912C99.5253 123.19 99.7104 123.652 99.9881 123.929C101.099 125.5 101.839 127.164 101.839 129.105C101.839 129.659 101.746 130.121 101.006 130.306C98.2297 130.768 95.5459 131.138 92.862 130.029C92.6769 129.936 92.3993 129.659 91.9366 129.382C92.4918 129.105 92.7695 129.012 93.2322 128.735C92.3067 128.273 91.4738 129.289 90.7335 128.273C91.1036 127.071 92.4918 126.886 93.2322 125.962C92.5844 126.239 92.0291 126.332 91.2887 126.609C91.1962 124.761 93.3248 124.206 93.5098 122.265C91.1962 123.374 90.1782 125.223 89.4378 127.441C88.1422 126.055 87.2167 124.946 87.8645 123.282C88.2347 122.173 88.6974 121.156 89.1602 120.14C89.1602 119.862 89.3453 119.493 89.4378 119.215C88.79 118.661 88.3273 118.938 87.9571 119.215C87.4943 119.4 87.1242 119.677 86.754 119.955C85.8285 117.737 86.0136 116.997 87.6794 115.888C88.6049 115.241 89.5304 114.687 90.3633 114.132C90.6409 113.947 90.826 113.762 91.1036 113.578L90.9185 113.3C89.5303 113.947 88.2347 114.594 86.754 115.334C86.754 113.947 87.3092 113.393 87.9571 112.653C88.0496 112.653 87.9571 112.468 87.9571 112.376C87.772 112.284 87.4018 112.284 87.0316 112.191C86.9391 111.637 86.9391 111.175 86.9391 110.712C87.1242 107.2 87.3092 103.781 87.4943 100.269C87.4943 99.6217 87.4018 98.9747 87.4018 98.2353C87.4018 95.555 87.2167 92.9672 87.9571 90.2869C88.6049 87.8839 89.3453 85.4809 89.808 83.0779C90.0856 81.4143 90.5484 79.6583 89.3453 78.0871C87.0316 78.0871 84.8105 78.0871 82.5894 77.9022C77.9621 77.625 73.4273 77.1629 68.8 76.8856C64.6354 76.6083 60.2858 76.5159 56.1212 76.4235C52.5119 76.3311 48.9951 76.4235 45.3858 76.2386C40.7585 76.1462 36.0387 75.7765 31.4114 75.4992C29.7455 75.4068 28.0797 75.222 26.3213 75.0371C26.6915 74.2977 26.9691 73.9281 27.2468 73.5584C26.9691 73.7432 26.6915 73.7432 26.3213 73.5584C25.8586 73.7432 25.5809 74.1129 25.1182 74.2977C24.6555 74.3902 22.8046 74.8523 22.4344 74.7599C22.4344 74.4826 22.5269 74.1129 22.712 73.8356C22.9897 73.5584 24.9331 72.4493 25.3033 72.172C25.8586 71.8023 25.6735 71.5251 26.2288 71.2478C26.1362 71.2478 26.0437 71.0629 25.9511 70.9705C24.748 71.7099 23.1747 71.9872 21.8791 72.819C21.7866 71.2478 21.0462 69.8614 20.9536 68.4751L19.7505 69.1221C19.8431 71.7099 20.7685 72.819 20.1207 75.4068C18.8251 75.4068 20.0282 75.222 18.7325 75.3144C16.3263 75.4068 13.735 75.1296 11.9767 77.5326C12.0692 78.2719 12.3468 79.1037 12.3468 79.8431C12.3468 83.8173 12.1618 87.8839 12.0692 91.9505C11.9767 96.4793 11.7916 101.008 11.9767 105.537C11.9767 106.369 11.9767 107.2 12.0692 108.032C12.1618 110.343 12.5319 112.746 12.717 115.241C13.0872 120.232 13.3649 125.223 13.5499 130.214C13.5499 130.583 13.5499 130.861 13.6425 131.23C13.735 132.617 14.2903 133.633 15.4009 134.373C16.5114 135.205 17.622 135.574 18.9176 135.482C20.0282 135.389 21.4164 135.112 22.2493 136.683C22.0642 135.851 22.3418 135.574 22.9897 135.574C24.5629 135.574 26.1362 135.482 27.8021 135.574C34.3728 135.944 41.0362 135.574 47.6995 135.297C49.643 135.297 51.4939 135.02 53.4373 135.02C56.769 135.02 60.1932 135.205 63.4323 134.28C63.71 134.188 64.0802 134.28 64.3578 134.28C67.5969 134.188 71.0211 134.188 74.2602 134.095C76.2962 134.003 78.3323 133.448 80.3683 134.188C80.4608 134.188 80.5534 134.095 80.7385 134.003C81.1087 133.726 81.5714 133.541 81.9416 133.264C83.1447 132.524 84.0701 131.692 84.3478 130.121C84.718 127.718 85.0881 125.408 85.4583 123.097C85.5509 122.45 85.5509 121.711 86.2912 121.249C85.8285 123.097 85.3658 124.946 86.0136 126.979C86.6614 129.105 88.2347 130.121 89.808 131.508C88.4198 133.171 88.79 134.65 89.5303 136.314C89.808 136.776 89.9005 137.33 90.0856 137.885C90.4558 139.179 90.9185 140.38 91.7515 141.489C92.2142 142.136 92.6769 142.598 93.3248 143.153C93.88 143.615 94.2502 144.354 94.6204 144.909C95.3608 145.371 96.1011 145.648 96.749 146.11C99.2477 147.774 101.932 148.236 104.8 147.497C107.022 147.035 108.04 146.018 108.317 143.8C108.41 143.06 108.502 142.229 108.502 141.489C108.502 139.826 108.317 138.254 107.947 136.683ZM15.1232 131.138C14.9381 130.121 14.9381 129.105 14.753 127.811C15.7711 127.811 16.5114 127.718 17.4369 127.718C17.622 129.567 17.8071 131.138 17.9922 132.894C16.0487 132.986 15.4009 132.617 15.1232 131.138ZM77.4068 131.877C77.2217 130.491 76.8515 129.012 76.8515 127.533C77.0366 127.441 77.1292 127.441 77.3143 127.441C77.4994 128.827 77.5919 130.306 77.777 131.785C77.6844 131.877 77.5919 131.877 77.4068 131.877ZM78.795 132.062C78.3323 130.583 78.2397 129.012 78.4248 127.441C78.4248 127.256 78.795 127.256 79.2577 126.979C79.3503 128.827 79.3503 130.306 79.4428 131.97C79.2577 132.062 79.0726 132.062 78.795 132.062ZM86.0136 100.731C86.0136 102.209 86.1061 103.688 85.9211 105.167C85.2732 110.528 85.5509 115.888 84.0701 121.064C83.6074 122.912 83.4223 124.853 83.1447 126.702C83.0521 127.164 83.0521 127.533 82.9596 127.996C82.5894 129.567 82.2192 131.045 80.2757 131.508C79.7205 130.121 79.9056 128.642 79.9981 126.979C80.831 126.794 81.6639 126.517 82.867 126.239C82.2192 125.777 81.9416 125.593 81.6639 125.5C81.4788 125.408 81.2012 125.5 80.9236 125.5C74.8155 126.332 68.6149 125.593 62.5069 125.87C61.9516 125.87 61.3963 125.962 60.841 126.147C60.5634 126.239 60.4709 126.609 60.1932 126.979C62.9696 126.979 65.4683 126.979 67.9671 127.071C70.4658 127.071 72.9646 127.164 75.5559 127.256C76.2962 128.735 76.2962 130.214 76.5739 131.877C76.1112 131.97 75.741 132.155 75.3708 132.247C71.2062 132.709 67.2267 132.802 63.0621 132.524C62.2292 132.524 61.3038 132.617 60.4709 132.617C54.4554 132.709 48.4399 132.709 42.4244 132.894C39.4629 132.986 36.4088 133.264 33.4474 133.356C31.0412 133.448 28.5424 133.356 26.1362 133.356C24.748 133.356 23.2673 133.356 21.8791 133.356C21.1387 133.356 20.7685 133.079 20.5835 132.339C20.3984 131.323 20.0282 130.399 19.7505 129.382C19.7505 129.382 19.658 129.474 19.4729 129.474C19.658 130.676 19.8431 131.785 19.658 133.264C19.0102 133.541 18.4549 133.448 18.3623 132.709C18.2698 131.23 18.2698 129.752 18.0847 128.088C20.2133 127.811 22.1567 127.811 24.0077 127.903C25.3959 127.996 26.784 127.996 28.2648 128.088C31.1337 128.18 34.0026 128.365 36.8716 128.365C41.684 128.365 46.4964 128.18 51.3088 128.088C51.9566 128.088 52.6044 128.18 53.3448 128.088C53.6224 128.088 53.9926 127.903 54.3628 127.811C53.9926 126.794 53.2523 126.979 52.6044 126.979C50.661 126.979 48.81 126.886 46.9591 127.071C40.8511 127.533 34.6505 127.256 28.5424 127.071C28.1722 127.071 27.7095 127.071 27.3393 126.979C24.748 126.794 22.1567 126.702 19.4729 126.609C18.5474 126.609 17.622 126.702 16.6965 126.702C16.1412 126.702 15.4934 126.609 14.9381 126.609C14.3829 124.946 14.6605 123.836 15.9561 123.005C17.2518 122.173 18.4549 121.156 19.4729 119.955C17.8996 120.971 16.3263 121.988 14.6605 123.097C14.1052 121.341 16.0487 121.249 16.3263 120.047C15.6785 120.417 15.2158 120.787 14.4754 121.156C14.1978 118.846 13.9201 116.627 13.735 114.409C13.6425 112.191 13.4574 109.788 13.3649 107.57C13.3649 107.385 13.3649 107.293 13.3649 107.108C13.2723 104.52 13.0872 101.747 13.0872 99.1595C13.0872 95.1854 13.1798 91.2112 13.3649 87.237C13.4574 84.0022 13.735 80.8598 13.0872 77.7174C13.0872 77.5326 13.1798 77.4401 13.2723 77.0704C14.1978 76.8856 15.3083 76.4235 16.4189 76.5159C21.0462 76.7007 25.766 76.978 30.3933 77.2553C34.743 77.4401 39.0927 77.8098 43.4424 77.9947C47.1442 78.1795 50.7535 78.1795 54.4554 78.1795C57.3243 78.1795 60.1932 78.0871 63.1547 77.9947C64.4503 77.9947 65.5609 77.9947 66.764 78.0871C72.1317 78.3644 77.5919 78.7341 82.9596 79.0113C84.8105 79.1037 86.754 79.2886 88.79 79.4734C89.1602 80.9522 88.8825 82.5234 88.5123 84.0946C87.772 86.9597 86.8465 89.8248 86.2912 92.6899C85.9211 94.3535 86.1061 96.2944 86.0136 98.0505C85.9211 98.8823 86.0136 99.8065 86.0136 100.731ZM104.153 130.399C105.263 131.138 105.263 132.339 105.541 133.726C104.986 133.911 104.615 134.095 104.153 134.188C103.135 134.28 102.209 134.373 101.191 134.465C99.6179 134.558 99.6179 134.558 99.3403 132.802C100.914 132.062 102.394 131.23 104.153 130.399ZM91.844 138.162C91.1962 135.667 90.7335 133.633 90.2707 131.508C91.6589 131.877 92.9546 132.339 94.3428 132.617C95.0831 132.709 95.6384 132.894 96.3788 132.894C97.8595 132.894 97.8595 132.894 98.5999 134.742C96.2862 135.482 93.7875 135.944 91.844 138.162ZM107.114 142.229C107.022 145.186 104.43 146.295 101.932 146.018C99.1552 145.648 97.3042 144.539 94.9906 141.951C95.2682 141.767 95.4533 141.582 95.7309 141.397C96.5639 140.75 97.4893 140.011 98.3222 139.271C96.8415 139.456 95.8235 140.657 94.6204 141.304C94.5278 141.304 94.3428 141.304 94.2502 141.212C92.2142 139.456 91.844 138.439 95.3608 136.961C97.5819 135.944 100.081 135.667 102.394 135.205C103.597 135.02 104.708 135.02 105.818 134.835C106.004 135.205 106.096 135.297 106.189 135.482C106.929 137.33 107.114 139.456 107.114 141.397C107.114 141.674 107.114 141.951 107.114 142.229Z" fill="black"/>
<path d="M19.6587 54.7968C20.0289 50.915 21.7873 47.7726 25.9518 45.7393C26.2295 45.6469 26.4146 45.5545 26.6922 45.3696C26.1369 44.2606 26.5997 43.5212 27.34 42.7818C27.9879 42.2273 28.5431 41.6727 29.0984 40.9333C30.5791 39.0849 31.1344 36.8667 31.5972 34.5562C31.1344 35.0183 30.8568 35.4804 30.5791 36.1273C29.9313 37.3288 29.4686 38.8076 28.6357 39.9167C27.4326 41.5803 25.8593 43.0591 24.4711 44.6303C24.1009 45.0924 23.5456 45.5545 22.9904 45.6469C22.1574 45.8318 21.7873 46.2939 21.4171 46.9408C21.0469 47.6802 20.6767 48.1423 20.3065 48.7893C19.3811 50.3605 18.7332 51.8393 18.2705 53.4104C18.8258 53.965 19.2885 54.3347 19.6587 54.7968Z" fill="black"/>
<path d="M15.1232 46.4787C15.1232 46.2939 15.0306 46.2014 15.0306 46.0166C14.8455 46.3863 14.6605 46.6636 14.3828 47.0333C14.4754 47.4029 14.5679 47.7726 14.6605 48.2348C14.8455 49.9908 15.1232 51.8392 15.4008 53.5029C15.4934 54.2422 15.6785 54.8892 16.6039 55.5362C16.3263 54.3347 16.2337 53.5029 16.0486 52.6711C15.771 50.5453 15.5859 48.512 15.1232 46.4787Z" fill="black"/>
<path d="M53.4378 13.4839C52.8825 13.2991 52.4198 13.2991 52.1422 13.5763C51.2167 14.3157 50.2912 14.2233 49.1807 13.7612C47.9776 13.2991 46.7745 12.9294 45.5714 12.837C41.6844 12.3748 37.7975 12.7445 34.0031 13.1142C33.2627 13.2067 32.4298 13.2991 31.6895 13.3915C31.4118 12.837 31.2267 12.4673 30.9491 11.8203C29.2833 12.9294 27.8025 14.0385 25.9516 15.6097C24.9336 16.349 23.9156 17.0884 22.805 17.9202C22.4348 18.3823 22.0647 18.752 21.6945 19.2142C21.4168 19.4914 21.1392 19.8611 20.9541 20.1384C23.9156 17.9202 26.7845 15.7945 29.8385 13.5763C30.5789 14.5006 31.5044 14.3157 32.4298 14.2233C34.3733 13.946 36.2242 13.7612 38.1677 13.5763C42.2397 13.3915 46.3118 13.4839 50.1061 15.0551C50.754 15.3324 51.4943 15.3324 52.2347 15.6097C52.0496 15.0551 51.9571 14.6854 51.772 14.4082C52.2347 14.1309 52.8825 13.7612 53.4378 13.4839Z" fill="black"/>
<path d="M102.858 116.905C101.932 116.166 102.025 115.149 101.932 114.225C101.747 111.36 101.469 108.587 100.822 105.722C100.451 104.151 99.8036 102.857 98.6005 101.655C98.2303 101.286 97.9526 100.824 97.5825 100.362C98.2303 99.8994 98.693 99.6222 99.3408 99.16C97.3048 98.6055 95.3613 98.3282 93.6955 97.4964C92.0297 96.757 90.1788 96.4798 88.6055 95.2783C89.9011 93.7071 89.9937 93.6147 91.4744 94.1692C93.8806 95.001 96.1943 96.0177 98.6005 96.9419C99.9887 97.4964 101.469 98.051 102.95 98.6055C102.95 100.177 101.284 100.177 100.729 101.008C102.95 106.184 104.153 111.36 102.858 116.905Z" fill="black"/>
<path d="M31.4122 34.7408C30.6719 32.4302 31.1346 30.1196 30.7644 28.0863C30.3942 25.9606 30.024 23.7424 29.6538 21.5243C29.9315 21.3394 30.3942 21.247 30.8569 21.0622C30.3942 18.9364 30.024 16.9031 29.4688 14.4077C30.024 14.8698 30.3942 15.1471 30.3942 15.3319C30.9495 17.5501 31.3197 19.8607 31.7824 22.0788C31.8749 22.3561 31.875 22.8182 31.6899 23.0031C30.9495 23.9273 31.4122 25.0364 31.4122 26.053C31.5973 28.8257 31.6899 31.5984 31.6899 34.3711C31.7824 34.3711 31.6899 34.4635 31.4122 34.7408Z" fill="black"/>
<path d="M44.2755 20.6001C44.2755 20.8774 44.2755 21.3395 44.1829 21.5243C43.9979 21.894 43.8128 22.2637 43.5351 22.6334C41.314 26.7924 40.1109 31.2287 38.8153 35.6651C38.3525 37.3287 38.26 38.715 39.0929 40.3786C39.278 40.6559 39.278 40.9332 39.3705 41.4877C38.4451 40.8407 37.8898 40.3786 37.8898 39.6392C37.7973 38.6226 37.6122 37.5135 37.8898 36.4969C39.0004 31.9681 40.296 27.4394 42.5171 23.2804C42.9798 22.3561 43.35 21.5243 43.7202 20.6001C43.9053 20.6001 44.0904 20.6001 44.2755 20.6001Z" fill="black"/>
<path d="M63.8961 62.0054C62.6005 64.3159 58.2508 66.6265 55.0117 66.7189C54.734 67.2735 54.2713 67.828 53.9937 68.3826C53.716 68.9371 53.5309 69.6765 52.6055 69.8613C52.698 69.3992 52.698 69.0295 52.8831 68.6598C53.2533 67.828 53.8086 66.9962 54.1788 66.1644C54.5489 65.425 55.0117 65.1478 55.8446 65.425C56.585 65.7023 57.1402 65.425 57.7881 65.1478C59.5464 64.2235 61.2123 63.2069 62.9706 62.2826C63.1557 62.2826 63.4334 62.1902 63.8961 62.0054Z" fill="black"/>
<path d="M33.8179 49.0663C33.6328 49.3436 33.6328 49.5284 33.5403 49.5284C31.7819 49.7133 29.931 49.8057 28.0801 49.8981C28.913 48.7891 30.3937 48.5118 33.8179 49.0663Z" fill="black"/>
<path d="M62.9707 70.6937C63.526 69.7694 64.3589 69.677 65.4694 69.7694C65.7471 70.5088 65.9322 71.0634 66.2098 71.8952C65.0067 72.08 65.2844 70.9709 64.8216 70.324C64.0813 70.324 63.526 70.5088 62.9707 70.6937Z" fill="black"/>
<path d="M45.3857 59.2331C45.941 57.7544 47.4218 57.015 48.3472 55.8135C47.977 56.8301 47.1441 57.7544 45.3857 59.2331Z" fill="black"/>
<path d="M62.8771 70.6938C62.3218 71.0635 61.674 71.4332 60.9336 71.9877C60.9336 70.6938 61.7665 70.2317 62.1367 69.3999C62.1367 69.9544 62.0441 70.6014 62.8771 70.6938Z" fill="black"/>
<path d="M61.9521 67.8284C62.6 67.3663 63.1552 66.9041 63.8031 66.3496C64.0807 67.5511 64.0807 67.5511 63.3403 67.6435C62.8776 67.736 62.4149 67.8284 61.9521 67.8284Z" fill="black"/>
<path d="M61.9523 67.8281C61.3044 68.3827 60.6566 69.0296 60.0088 69.5842C60.5641 68.3827 60.5641 68.3827 61.9523 67.8281Z" fill="black"/>
<path d="M65.0996 57.9389C65.7474 57.4768 66.3027 57.0147 66.858 56.645C66.9505 56.7374 67.0431 56.8299 67.1356 56.9223C66.5803 57.3844 65.9325 57.8465 65.3772 58.3086C65.3772 58.2162 65.2847 58.0314 65.0996 57.9389Z" fill="black"/>
<path d="M27.2471 73.6509C27.8023 73.1887 28.3576 72.8191 28.9129 72.3569C29.0055 72.4494 29.098 72.6342 29.1905 72.6342C28.6353 73.0039 28.1725 73.7433 27.2471 73.6509Z" fill="black"/>
<path d="M66.7645 59.7876C66.4869 60.0649 66.3943 60.4346 66.1167 60.7118C65.9316 59.9724 66.2092 59.7876 66.7645 59.7876Z" fill="black"/>
<path d="M17.7148 118.753C18.8254 118.014 19.8434 117.275 20.954 116.535C21.0465 116.628 21.1391 116.812 21.2316 116.812C20.121 117.552 19.103 118.291 18.085 119.031C17.8999 118.938 17.8074 118.846 17.7148 118.753Z" fill="black"/>
<path d="M30.208 38.1605C29.0049 40.1938 27.8943 42.0423 26.5062 43.8907C25.3031 45.7392 23.4521 46.8483 21.5087 47.7725C20.6757 48.1422 19.7503 48.2346 18.7323 47.8649C15.5857 46.4786 13.087 44.5377 12.1615 41.0256C11.8839 39.7317 11.3286 38.5302 11.1435 37.2363C10.5882 33.4469 12.7168 31.1364 15.3081 29.5652C17.5292 28.2712 19.8428 27.5319 22.249 27.2546C24.6552 26.8849 27.154 26.7925 29.5602 26.8849C34.1875 27.0697 38.8148 26.9773 43.3496 27.0697C46.8663 27.0697 50.6607 27.6243 54.0849 28.8258C56.5837 29.75 57.9719 31.6909 58.1569 34.2787C58.342 35.9423 58.2495 37.6984 57.5091 39.2696C56.6762 41.3953 55.6582 43.1513 54.0849 44.815C52.8818 45.924 51.5862 46.6634 50.0129 46.9407C48.8098 47.1255 47.5141 47.3104 46.311 47.4952C45.9408 47.5877 45.4781 47.5876 45.1079 47.4028C42.7017 46.571 40.7583 45.3695 39.6477 43.1513C38.9999 41.9498 38.6297 40.6559 38.0744 39.362C37.7968 38.715 37.6117 38.3454 36.8713 38.2529C35.2055 37.9757 33.7248 37.6984 32.0589 38.2529C31.5036 38.2529 30.8558 38.1605 30.208 38.1605ZM14.2901 41.8574C15.4006 43.9832 16.6963 45.3695 18.7323 46.2013C19.5652 46.4786 20.3981 46.571 21.3236 46.0165C23.1745 44.9074 24.9329 43.7059 25.8583 41.5802C26.0434 41.0256 26.5061 40.7483 26.6912 40.2862C27.9869 38.4378 29.6527 36.8666 30.0229 34.4636C30.1155 33.5394 30.3005 32.7075 30.3931 31.7833C30.4856 31.506 30.5782 31.1364 30.6707 30.9515C31.226 31.2288 31.3186 31.5985 31.3186 31.8757C31.3186 32.7075 31.1335 33.5394 31.0409 34.3712C30.9484 35.203 30.6707 35.9424 30.5782 36.8666C32.9844 36.7742 35.0204 36.7742 37.3341 36.7742C36.8713 33.7242 38.0744 31.4136 40.203 29.5652C40.4806 29.2879 40.7583 28.9182 41.0359 28.5485C40.7583 28.3637 40.6657 28.2712 40.4806 28.2712C34.3726 28.1788 28.172 28.3637 22.0639 28.9182C18.5472 29.1955 15.7708 30.7667 13.7348 33.5394C12.4391 35.203 12.4391 37.8832 13.6422 39.4544C14.3826 38.9923 15.2155 38.4378 15.9559 37.9757C15.4932 39.0847 13.9199 39.4544 13.6422 41.0256C14.8453 40.3787 15.7708 39.8241 16.6037 39.4544C16.6963 39.5468 16.6963 39.6393 16.7888 39.7317C16.0484 40.3787 15.123 41.2105 14.2901 41.8574ZM40.5732 41.3029C42.1465 45.0922 44.8303 46.571 48.5321 46.1089C48.8098 46.0165 49.18 45.924 49.4576 45.924C51.1234 45.7392 52.6042 44.9074 53.5296 43.6135C54.4551 42.412 55.288 41.118 56.0284 39.7317C56.7688 38.2529 57.1389 36.5893 57.0464 34.8333C56.8613 32.153 55.1029 29.9349 52.234 29.2879C49.6427 28.7334 47.144 28.3637 44.4601 27.994C43.7197 27.9015 43.1645 27.994 42.7017 28.8258C42.4241 29.2879 41.9614 29.5652 41.5912 29.9349C39.3701 31.6909 38.8148 34.0015 39.0924 36.6817C39.2775 37.4211 38.9999 38.2529 39.7403 38.715C41.0359 38.3454 41.9614 37.1439 43.5346 36.959C42.239 38.1605 40.4806 38.5302 39.8328 40.2862C40.9434 40.1014 41.4986 38.9923 42.5166 39.2696C41.9614 40.1014 41.3135 40.7483 40.5732 41.3029Z" fill="black"/>
<path d="M99.5257 147.589C95.1761 149.161 90.4562 149.992 85.8289 149.992C84.7184 149.992 83.6078 149.9 82.5898 149.808C81.0165 149.623 79.3507 149.345 77.9625 148.698C76.6668 147.959 75.6488 147.035 75.1861 145.556C75.0936 145.279 75.001 144.909 75.001 144.632C75.001 143.892 75.2786 143.246 75.7414 142.783C76.2041 142.321 76.7594 142.044 77.5923 142.044C78.055 142.044 78.3327 142.136 78.7029 142.321C79.1656 142.599 79.5358 143.061 79.906 143.708C80.1836 144.355 80.2761 145.002 80.2761 145.649C80.2761 147.867 79.1656 149.808 77.5923 151.379C76.019 152.95 73.7054 154.059 71.4843 154.429C70.6513 154.614 69.7259 154.706 68.8004 154.706C65.0986 154.706 61.3042 153.597 57.6949 152.488C44.6459 148.514 31.3192 144.909 17.6224 144.909C17.5298 144.909 17.4373 144.909 17.3447 144.909C15.5864 144.909 13.6429 145.002 11.8845 145.926C10.6814 146.665 9.6634 147.682 9.20067 149.068C9.10812 149.345 9.01558 149.623 9.01558 149.808C9.01558 150.639 9.38576 151.379 9.94104 151.841C10.4963 152.303 11.2367 152.58 11.9771 152.58C12.4398 152.58 12.9951 152.488 13.3652 152.211C13.828 151.933 14.1982 151.471 14.4758 151.009C15.1236 149.808 15.4013 148.329 15.4013 146.85C15.4013 143.8 14.1056 140.75 11.5143 138.994C10.5889 138.347 9.6634 137.885 8.92303 137.33C8.55285 137.053 8.27521 136.683 8.09011 136.406C7.81248 136.129 7.71993 135.667 7.71993 135.02C7.71993 134.927 7.71993 134.835 7.71993 134.743C7.71993 134.003 7.90502 133.356 8.27521 132.709C9.20067 130.953 10.8665 129.937 12.6249 128.828C12.9025 128.643 12.9951 128.273 12.81 128.088C12.6249 127.811 12.2547 127.718 12.0696 127.903C10.3112 129.012 8.36775 130.214 7.34974 132.247C6.97956 132.987 6.60938 134.003 6.60938 134.927C6.60938 135.02 6.60938 135.205 6.60938 135.297C6.70192 136.037 6.88701 136.591 7.16465 137.146C7.62738 137.885 8.27521 138.44 8.92303 138.902C9.6634 139.364 10.3112 139.641 10.8665 140.103C13.0876 141.582 14.2907 144.262 14.2907 147.035C14.2907 148.236 14.0131 149.53 13.5503 150.639C13.3652 150.917 13.1802 151.194 12.9025 151.379C12.6249 151.564 12.3472 151.656 12.0696 151.656C11.6069 151.656 11.1441 151.471 10.774 151.194C10.4963 150.917 10.2187 150.455 10.2187 149.992C10.2187 149.808 10.2187 149.715 10.3112 149.53C10.5889 148.514 11.4218 147.589 12.4398 147.035C13.828 146.295 15.5864 146.203 17.2522 146.203C17.3447 146.203 17.4373 146.203 17.5298 146.203C31.0416 146.295 44.2757 149.9 57.2321 153.782C60.934 154.891 64.8209 156 68.8004 156C69.7259 156 70.6513 155.907 71.6693 155.723C74.1681 155.353 76.5743 154.151 78.4252 152.488C80.2761 150.732 81.5718 148.514 81.5718 145.833C81.5718 144.724 81.2942 143.615 80.6463 142.691C80.3687 142.229 79.906 141.859 79.4432 141.489C78.9805 141.212 78.3327 141.027 77.6849 141.027C76.5743 141.027 75.6488 141.489 75.001 142.136C74.3532 142.783 73.983 143.8 73.983 144.817C73.983 145.186 74.0755 145.649 74.1681 146.018C74.7234 147.959 76.019 149.161 77.5923 149.992C79.1656 150.732 80.924 151.101 82.5898 151.194C83.7003 151.286 84.8109 151.379 85.9215 151.379C90.6413 151.379 95.4537 150.547 99.9885 148.883C100.266 148.791 100.451 148.421 100.266 148.144C100.266 147.682 99.8959 147.497 99.5257 147.589Z" fill="#010202"/>
<path d="M73.7978 1.93056C72.2246 1.09875 69.2631 2.85479 69.078 2.66994C68.6152 2.30025 68.3376 2.66994 67.6898 2.76236C61.7668 3.50175 56.6768 12.4668 51.124 14.6849C52.0495 19.0288 53.8079 23.2803 56.7693 26.6075C59.5457 29.7499 62.6923 31.5983 66.1165 33.9089C67.042 31.6908 69.8183 30.7665 70.5587 27.162C71.9469 20.1379 76.8519 14.2228 76.7593 7.01382C76.8519 6.64413 75.9264 2.94721 73.7978 1.93056Z" fill="white"/>
<path d="M18.5475 17.9197C19.0103 18.3818 19.473 19.0287 19.1953 19.5833C19.1028 19.8605 18.8252 20.0454 18.5475 20.1378C16.6041 21.4317 14.6606 22.7257 12.7171 24.0196C12.3469 24.2969 11.8842 24.5741 11.3289 24.5741C10.4035 24.5741 9.75563 23.5575 9.66309 22.6332C9.66309 22.0787 9.75563 21.4317 9.94072 20.8772C10.4035 19.5833 11.4215 18.5666 11.8842 17.2727C12.1618 16.3485 11.9767 14.1303 12.7171 13.4834C14.2904 11.9122 17.2519 16.5333 18.5475 17.9197Z" fill="#BBBBBA"/>
<path d="M7.5348 54.8892C7.90499 56.6453 13.9205 61.6361 14.3832 63.2997C14.4758 63.6694 19.6584 69.1224 19.7509 69.5845C20.1211 69.3996 20.5838 69.2148 20.954 69.0299C20.7689 68.1057 15.4938 62.1907 15.2161 61.2664C14.9385 60.0649 9.20064 55.5362 9.01554 54.3347C8.923 53.8726 8.83045 53.4105 8.55281 53.1332C7.99753 52.5787 8.18263 52.1165 8.36772 51.562C8.83045 50.2681 11.4217 44.6303 11.7919 43.2439C11.977 42.597 12.7174 41.0258 12.8099 40.2864C12.9025 39.6394 12.1621 39.7319 11.3292 39.4546C11.2367 39.9167 11.2367 40.4712 11.0516 40.9334C10.4963 42.9667 7.7199 49.4363 7.07207 51.4696C6.70189 52.5787 6.23916 53.5953 5.86897 54.7044C5.77643 54.8892 5.96152 55.0741 6.05407 55.3513C6.70189 55.1665 7.07207 55.0741 7.5348 54.8892Z" fill="black"/>
<path d="M82.7745 76.6085C80.1832 73.651 77.4068 70.6935 74.723 67.7359C73.8901 66.9041 72.9646 65.9799 71.669 66.2571C71.1137 65.5178 71.2062 64.039 70.7435 63.4845C68.8 61.2663 69.9106 62.9299 68.8 60.4345C68.3373 59.5103 68.2448 58.7709 67.782 58.0315C67.782 58.0315 67.782 57.9391 67.8746 57.9391C67.6895 57.8467 67.5044 57.6618 67.4119 57.477C66.8566 56.5527 66.6715 55.4437 67.1342 54.5194C67.782 53.0407 68.3373 51.5619 69.2628 50.268C69.633 49.621 71.1137 50.5452 71.0212 49.9907C71.0212 49.5286 69.633 47.5877 69.3553 47.1256C69.3553 47.0332 69.2628 47.0332 69.2628 46.9407C69.0777 46.6635 68.9851 46.3862 68.8 46.2014C67.782 44.2605 66.1162 38.4378 66.6715 36.3121C66.8566 35.4803 67.2268 34.7409 67.5969 34.0015C67.3193 33.6318 67.0417 33.2621 66.764 32.9849C65.0982 35.85 66.1162 42.5044 67.3193 45.6468C67.5044 46.2014 67.782 46.7559 68.1522 47.3104C68.615 47.9574 68.615 48.6968 68.1522 49.3437C67.3193 50.6377 67.1342 52.2089 65.8386 53.2255C65.6535 53.4104 65.6535 53.78 65.5609 54.0573C65.3758 54.6119 65.2833 55.1664 65.0982 55.6285C64.3578 57.1073 64.728 58.586 65.2833 59.9724C65.2833 59.9724 65.2833 60.0648 65.3758 60.1572C65.3758 60.2497 65.3758 60.2497 65.4684 60.3421C66.0237 61.4512 66.764 61.2663 67.2268 62.3754C67.5044 63.0223 67.2268 61.3587 67.2268 62.1905C67.3193 62.3754 67.4119 62.5602 67.5044 62.8375C67.5969 62.9299 67.6895 62.9299 67.6895 63.0223C67.6895 63.1148 67.6895 63.2072 67.6895 63.2996C68.9851 65.3329 71.5764 68.4753 71.8541 68.3829C73.8901 70.4162 76.2963 71.8025 78.2398 73.9283C80.1832 75.9616 83.2373 78.9191 83.6074 78.0873C83.4223 77.6252 83.1447 76.9782 82.7745 76.6085Z" fill="black"/>
<path d="M27.2472 14.8699C26.7845 14.8699 26.4143 14.7774 25.9516 14.5002C23.2677 12.929 21.1392 10.8957 18.9181 8.9548C18.733 8.76995 18.4553 8.49268 18.4553 8.40026C18.9181 7.19876 17.8075 7.01392 17.1597 6.45938C14.7535 4.33365 11.6994 3.13215 8.83052 1.65338C7.62742 1.00642 6.33177 1.00642 5.12867 1.19126C4.57339 1.28369 4.11066 1.83823 3.55538 2.11549C2.81501 1.83823 2.53738 2.20792 2.35228 3.22457C2.90756 2.76246 3.27775 2.39276 3.55538 2.11549C2.81501 3.87153 2.25974 5.71999 2.44483 7.7533C2.72247 10.3411 3.46284 12.7441 4.29575 15.1471C5.03612 17.2729 6.05413 19.3062 6.60941 21.5243C7.53487 24.8516 8.46033 28.1788 9.84853 31.4136C10.1262 32.0606 10.4038 32.7999 9.94107 33.5393L12.9025 40.2862C11.2367 40.471 11.1442 40.471 10.6814 39.0847C10.2187 37.4211 7.07214 28.9182 6.51686 27.4394C5.49885 24.6667 4.29575 21.9864 3.1852 19.3062C2.81501 18.4744 2.44483 17.6426 2.25974 16.7183C1.51937 13.4835 0.778998 10.3411 0.131175 7.10634C-0.23901 5.07303 0.131175 3.13215 1.79701 1.7458C3.27775 0.451881 5.12867 -0.379926 7.16469 0.174612C10.9591 1.09884 14.2907 2.76246 17.2522 5.07303C17.9926 5.62757 18.8255 6.08968 19.6584 6.5518C20.6764 7.19876 21.5093 7.93815 20.769 9.32449C22.5274 10.6184 24.2857 11.9123 26.1367 13.2987" fill="black"/>
<path d="M15.9559 15.3321C13.9199 13.3912 11.9764 11.4504 9.94043 9.50948C9.94043 9.50948 10.033 9.32463 10.1255 9.04736C10.3106 9.13979 10.5883 9.04736 10.7733 9.23221C11.2361 9.50948 11.6988 9.87917 12.069 10.2489C14.6603 12.6519 17.2516 15.0549 20.1205 17.6427C19.4727 19.7684 17.4367 21.432 16.2336 23.5578C16.0485 23.9275 15.4007 24.2047 14.9379 24.5744C14.6603 23.6502 14.5677 23.5578 16.4187 21.1548C17.159 20.1381 17.9919 19.1215 18.8249 17.92C17.8069 16.9957 16.8814 16.1639 15.9559 15.3321Z" fill="black"/>
<path d="M15.863 15.332C14.6599 16.3487 13.3643 17.1805 11.791 18.0123C12.6239 16.5335 13.9196 15.7017 15.863 15.332Z" fill="black"/>
<path d="M13.8281 14.5928C12.9027 15.3322 11.9772 16.0715 11.0518 16.8109C11.4219 15.517 12.3474 14.6852 13.8281 14.5928Z" fill="black"/>
<path d="M58.9904 18.7518C58.5277 19.2139 58.065 19.8608 58.3426 20.4154C58.4352 20.6926 58.7128 20.8775 58.9904 21.0623C60.9339 22.4487 62.7848 23.835 64.7283 25.1289C65.0985 25.4062 65.5612 25.6835 66.1165 25.7759C67.0419 25.7759 67.6898 24.7593 67.7823 23.835C67.8749 23.2805 67.7823 22.6335 67.5972 22.079C67.1345 20.7851 66.209 19.7684 65.8388 18.4745C65.5612 17.5503 65.8388 15.3321 65.191 14.5927C63.5252 12.8367 60.3786 17.3654 58.9904 18.7518Z" fill="#BBBBBA"/>
<path d="M76.3889 3.03966C74.9082 1.65332 73.1498 0.821509 71.0212 1.28362C67.2268 2.11543 63.8026 3.68662 60.7486 5.90478C60.0082 6.45931 59.1753 6.82901 58.3424 7.29112C57.3244 7.84566 56.3989 8.58504 57.1393 10.0638C55.1033 11.4502 53.1598 12.8365 51.0312 14.2228C51.1238 14.5925 51.2163 14.8698 51.2163 15.2395C51.4014 15.1471 51.5865 15.1471 51.6791 15.0547C54.3629 13.5759 56.584 11.635 58.8977 9.69412C59.0828 9.50927 59.3604 9.32443 59.3604 9.13958C58.9902 7.93808 60.1008 7.75324 60.7486 7.29112C63.2474 5.25781 66.3014 4.14874 69.2629 2.76239C70.466 2.20785 71.7616 2.20785 72.9647 2.48512C73.52 2.57755 73.9827 3.13208 74.4454 3.50178C75.1858 5.35024 75.6485 7.1987 75.4635 9.13958C75.0933 11.7274 74.2603 14.038 73.3349 16.441C72.502 18.5667 71.484 20.6 70.7436 22.7258C69.7256 26.053 68.7076 29.3802 67.1343 32.4302C66.9492 32.8923 66.1163 33.5393 66.1163 34.0014C66.4865 34.2786 66.6716 34.6483 67.0417 34.9256C67.597 34.3711 67.7821 34.0014 68.3374 32.9847C69.1703 31.506 70.0032 30.1196 70.6511 28.6408C71.7616 25.9606 73.0572 23.2803 74.2603 20.6C74.6305 19.7682 75.0007 18.9364 75.2784 18.0122C76.1113 14.8698 77.0367 11.635 77.7771 8.49262C78.2398 6.55174 77.9622 4.61085 76.3889 3.03966ZM74.538 3.40935C75.3709 3.13208 75.6485 3.50178 75.7411 4.51843C75.1858 3.96389 74.9082 3.68662 74.538 3.40935Z" fill="black"/>
<path d="M61.7669 16.1639C63.8029 14.3154 65.9315 12.3745 67.9675 10.5261C67.9675 10.5261 67.8749 10.3412 67.8749 10.064C67.6898 10.064 67.4122 10.064 67.2271 10.1564C66.7644 10.4337 66.3016 10.8033 65.8389 11.173C63.1551 13.4836 60.4712 15.7942 57.5098 18.2896C58.065 20.4153 60.0085 22.1714 61.1191 24.2971C61.3042 24.7592 61.8594 24.9441 62.3222 25.4062C62.6924 24.482 62.6923 24.482 61.0265 21.8941C60.2862 20.785 59.5458 19.7684 58.7129 18.5669C59.8234 17.7351 60.7489 16.9957 61.7669 16.1639Z" fill="black"/>
<path d="M61.7666 16.1641C62.8772 17.1807 64.1728 18.1049 65.7461 19.0292C65.0057 17.458 63.8026 16.6262 61.7666 16.1641Z" fill="black"/>
<path d="M63.8955 15.5166C64.821 16.256 65.6539 17.0878 66.5794 17.8272C66.2092 16.5333 65.3763 15.609 63.8955 15.5166Z" fill="black"/>
<path d="M21.7863 36.1272C21.6937 34.9257 22.8968 33.7242 24.285 33.6318C25.9508 33.5394 27.2465 34.556 27.2465 36.1272C27.2465 37.5136 26.0434 38.8999 24.8403 38.9923C23.6372 39.1772 21.7863 37.4211 21.7863 36.1272Z" fill="black"/>
<path d="M21.6016 30.3971C23.3599 28.1789 26.2289 28.3638 28.1723 30.6743C26.9692 31.4137 26.1363 30.3046 25.1183 30.3046C24.1003 30.3046 22.9898 30.3971 21.6016 30.3971Z" fill="black"/>
<path d="M24.4711 38.1606C24.8288 38.1606 25.1189 37.871 25.1189 37.5137C25.1189 37.1564 24.8288 36.8667 24.4711 36.8667C24.1133 36.8667 23.8232 37.1564 23.8232 37.5137C23.8232 37.871 24.1133 38.1606 24.4711 38.1606Z" fill="white"/>
<path d="M48.3475 37.1441C48.44 38.8077 47.3294 40.1941 45.6636 40.2865C44.0903 40.3789 42.7947 39.2699 42.6096 37.6987C42.517 36.1275 43.9978 34.5563 45.5711 34.4639C46.8667 34.4639 48.2549 35.8502 48.3475 37.1441Z" fill="black"/>
<path d="M48.8098 32.3383C47.4216 31.5989 46.1259 30.9519 44.5526 32.061C44.3675 31.5989 44.0899 31.2292 44.1824 30.9519C44.275 30.5822 44.5526 30.1201 44.9228 30.0277C46.2185 29.3807 48.5321 30.3049 48.9948 31.5989C49.0874 31.7837 48.9023 31.9686 48.8098 32.3383Z" fill="black"/>
<path d="M45.3855 38.8076C45.3855 39.1773 45.1079 39.4546 44.7377 39.4546C44.3675 39.4546 44.0898 39.1773 44.0898 38.8076C44.0898 38.4379 44.3675 38.1606 44.7377 38.1606C45.0153 38.1606 45.2929 38.4379 45.3855 38.8076Z" fill="white"/>
<path d="M31.7819 66.719C30.7638 67.2735 29.7458 67.4583 28.6353 67.7356C28.5427 67.7356 28.5427 67.6432 28.4502 67.6432C29.2831 66.8114 30.3937 66.4417 31.7819 66.719Z" fill="black"/>
<path d="M27.2471 66.3495C28.4502 65.7025 29.3756 64.7783 30.8564 64.8707C30.8564 64.8707 30.9489 64.9631 30.9489 65.0555C30.8564 65.148 30.8564 65.2404 30.7638 65.2404C29.7458 65.7025 28.6353 66.1646 27.6173 66.6267H27.5247C27.5247 66.5343 27.5247 66.4419 27.2471 66.3495Z" fill="black"/>
<path d="M39.5557 54.8892C40.1109 54.9816 40.4811 55.074 40.7588 55.1665C40.9439 55.1665 41.2215 54.9816 41.129 54.7968C41.0364 54.7043 40.9439 54.5195 40.7588 54.5195C40.4811 54.4271 40.3886 54.4271 39.5557 54.8892Z" fill="black"/>
<path d="M37.4267 55.7208C37.6117 55.6284 37.7968 55.536 37.8894 55.3511C37.9819 55.1663 37.9819 55.0739 37.7968 54.889C37.6117 54.7966 37.4267 54.7042 37.3341 54.7966C37.149 55.0739 37.0565 55.2587 37.0565 55.4436C36.9639 55.536 37.2416 55.6284 37.4267 55.7208Z" fill="black"/>
<path d="M37.5197 58.1238C37.6122 58.0314 37.7973 57.8465 37.7973 57.6617C37.8899 57.3844 37.6122 57.292 37.4271 57.292C37.3346 57.292 37.057 57.4768 37.057 57.5693C36.8719 57.8465 37.1495 58.1238 37.5197 58.1238Z" fill="black"/>
<path d="M24.9334 55.3516C24.3781 55.5364 24.1005 55.6288 23.7303 55.7213C23.5452 55.7213 23.2676 55.5364 23.2676 55.3516C23.3601 55.2592 23.4527 55.0743 23.5452 54.9819C24.0079 54.8895 24.1005 54.8895 24.9334 55.3516Z" fill="black"/>
<path d="M27.1544 55.9985C26.9693 55.9061 26.7842 55.8137 26.6916 55.7212C26.5991 55.6288 26.5991 55.444 26.7842 55.2591C26.9693 55.1667 27.0618 55.0743 27.2469 55.1667C27.3395 55.2591 27.5246 55.444 27.5246 55.6288C27.5246 55.8137 27.3395 55.9061 27.1544 55.9985Z" fill="black"/>
<path d="M27.247 58.4933C27.1545 58.4009 26.9694 58.216 26.9694 58.1236C26.8768 57.9388 27.0619 57.7539 27.3396 57.7539C27.4321 57.7539 27.7098 57.8463 27.7098 58.0312C27.8023 58.1236 27.6172 58.4009 27.247 58.4933Z" fill="black"/>
<path d="M28.3571 69.0294C27.8019 68.1052 26.136 61.9129 24.1926 63.4841C23.3596 64.131 25.0255 65.9795 25.4882 66.6264C25.8584 67.181 26.136 67.8279 26.6913 68.2901C26.8764 68.4749 28.3571 69.0294 28.3571 69.0294Z" fill="#BBBBBA"/>
<path d="M40.573 60.9887C40.4804 62.0977 39.2773 68.4749 36.9637 66.0719C36.1307 65.2401 36.8711 63.3917 37.5189 62.5598C37.704 62.2826 40.6655 60.3417 40.573 60.9887Z" fill="#BBBBBA"/>
<path d="M18.9172 55.1664C19.2874 55.9058 19.6576 56.4603 19.8427 57.0148C21.2309 60.0648 23.452 60.7118 26.9687 60.1572C28.8197 59.8799 29.8377 58.4936 30.578 57.1073C29.0048 55.0739 27.6166 53.1331 26.1358 51.1922C26.8762 49.4361 28.4495 48.6968 30.1153 48.3271C31.7811 47.9574 33.5395 48.0498 35.1128 48.6968C35.6681 48.8816 36.2234 49.1589 36.6861 49.5286C38.1668 50.8225 38.2594 52.024 36.7786 53.3179C35.2979 54.6118 33.7246 55.9058 32.1513 57.1997C35.0203 60.3421 38.4445 60.6193 41.8687 58.1239C42.9792 57.2921 44.0898 56.4603 44.8302 55.3512C45.1078 54.8891 45.6631 54.6118 46.0333 54.2421C46.7736 54.9815 46.4034 55.4436 46.0333 55.9058C45.2929 56.7376 44.46 57.5694 43.6271 58.4012C42.8867 59.1406 42.1463 59.6951 41.591 60.6193C40.9432 61.636 39.6476 62.2829 38.537 63.0223C37.6116 63.5769 37.0563 64.1314 36.9637 65.2405C36.8712 67.3662 35.3904 68.6601 33.3544 69.5844C31.8737 70.2313 30.4855 70.2313 29.0973 69.3995C27.1538 68.2904 25.6731 66.3496 25.2104 64.039C21.6936 62.9299 20.1203 60.1572 18.547 57.2921C18.4545 56.7376 17.9918 56.0906 18.9172 55.1664ZM31.6886 58.6784C30.6706 59.4178 29.6526 60.0648 28.8197 60.8966C27.524 62.0057 26.8762 63.5769 27.1538 65.0556C27.524 66.8117 29.0048 68.0132 30.8557 68.7526C31.1333 68.845 31.5961 68.9374 31.8737 68.845C33.7246 68.2904 35.2054 67.2738 35.6681 65.5178C36.1308 63.7617 36.0383 62.0057 34.465 60.7118C33.5395 59.7875 32.5215 59.233 31.6886 58.6784Z" fill="black"/>
<path d="M30.3003 50.0828C30.9482 49.8979 31.6885 49.7131 32.4289 49.7131C32.5214 49.7131 32.614 49.7131 32.7065 49.7131C32.8916 49.7131 33.0767 49.7131 33.2618 49.8055C33.5394 49.8979 33.8171 50.0828 34.4649 50.2676C34.5575 50.3601 34.7425 50.2676 34.8351 50.1752C34.9276 50.0828 34.8351 49.8979 34.7425 49.8979C34.1873 49.6207 33.8171 49.4358 33.5394 49.3434C33.2618 49.251 33.0767 49.251 32.7991 49.251C32.7065 49.251 32.614 49.251 32.5214 49.251C31.7811 49.3434 31.0407 49.4358 30.3003 49.7131C30.2078 49.7131 30.1152 49.8979 30.1152 49.9904C30.1152 50.0828 30.2078 50.1752 30.3003 50.0828Z" fill="white"/>
<path d="M36.0396 99.4369C35.8545 99.6218 35.4844 99.6218 35.2993 99.4369C35.1142 99.2521 35.0216 98.9748 34.9291 98.6976C34.744 98.2355 34.5589 97.7733 34.4664 97.2188C34.0962 96.0173 33.6334 94.6309 34.1887 93.5219C34.6514 92.6901 35.4844 92.1355 36.4098 91.6734C36.5949 91.581 36.8726 91.3961 37.0576 91.4886C37.2427 91.4886 37.3353 91.581 37.5204 91.6734C38.7235 92.5976 39.5564 93.984 40.2042 95.3703C40.6669 96.2946 41.0371 97.2188 41.1297 98.2355C41.2222 99.2521 40.7595 100.269 39.9266 100.823C39.5564 101.101 39.0937 101.193 38.6309 101.193C38.0757 101.285 37.4278 101.285 36.9651 101.008C35.762 100.454 35.3918 98.9748 34.8365 97.7733" fill="white"/>
<path d="M51.2177 88.0687C51.4953 87.9763 51.6804 87.8838 51.958 87.9763C52.2357 88.0687 52.5133 88.2535 52.6984 88.4384C53.4388 89.1778 53.9015 90.1944 53.9941 91.3035C53.9941 91.7656 53.9941 92.2277 53.9015 92.6899C53.5313 94.1686 52.4208 95.4625 50.94 95.8322C48.904 96.3868 47.4233 95.0004 47.5158 93.0595C47.4233 90.749 49.1817 88.8081 51.2177 88.0687Z" fill="white"/>
<path d="M63.3414 92.1352C63.5265 92.1352 63.619 92.32 63.8041 92.4124C64.3594 92.7821 64.9147 93.2442 65.1923 93.7988C66.7656 96.6639 62.1383 101.562 59.547 98.7896C58.6215 97.8654 58.3439 96.2018 58.8992 95.0003C59.4544 93.7988 61.9532 91.8579 63.3414 92.1352Z" fill="white"/>
<path d="M47.7006 100.639C48.7186 99.9916 49.9217 99.437 51.1248 99.437C51.9577 99.437 52.8832 99.6219 53.6235 99.8991C56.3999 100.916 58.8987 102.857 60.0092 105.537C61.2123 108.217 61.6751 114.502 59.5465 116.535C57.7881 118.291 53.2533 115.149 50.8471 115.519C49.459 115.703 49.0888 116.35 47.7006 116.166C46.4975 115.981 42.3329 117.922 40.8522 117.09C39.0012 115.981 40.1118 111.914 40.2969 109.973C40.9447 106.369 44.8316 102.395 47.7006 100.639Z" fill="white"/>
<path opacity="0.3" d="M38.8162 100.361C38.7237 100.823 33.8187 98.605 35.8547 96.6642C37.5206 94.9081 39.0938 99.0672 38.8162 100.361Z" fill="#BBBBBA"/>
<path opacity="0.3" d="M48.9962 95.6477C47.2378 95.5552 45.6645 90.7492 48.3484 90.8416C50.8471 90.8416 51.3099 95.8325 48.9962 95.6477Z" fill="#BBBBBA"/>
<path opacity="0.3" d="M59.9159 99.4366C59.5458 99.1593 59.4532 98.6972 59.3607 98.3275C59.1756 97.5882 58.9905 96.7564 58.8979 96.017C58.7128 94.9079 58.6203 93.4291 59.8234 92.8746C60.934 92.32 62.5072 93.2443 63.0625 94.2609C63.6178 95.5548 62.1371 101.193 59.9159 99.4366Z" fill="#BBBBBA"/>
<path opacity="0.3" d="M46.7749 107.663C47.7929 109.696 48.6258 112.191 47.5152 114.225C46.5898 115.796 44.6463 116.628 42.7954 116.72C42.3327 116.72 41.8699 116.72 41.4997 116.535C40.8519 116.258 40.5743 115.611 40.2966 114.964C39.3712 112.469 39.3712 109.696 40.2966 107.293C40.7594 106.091 42.4252 102.579 43.9985 102.487C45.7569 102.394 46.2196 106.461 46.7749 107.663Z" fill="#BBBBBA"/>
<path d="M61.5819 110.343C61.5819 111.082 61.6744 112.099 61.6744 113.023C61.767 114.964 60.749 116.35 59.1757 117.275C58.8055 117.552 58.1577 117.644 57.695 117.552C56.5844 117.367 55.4738 116.997 54.4558 116.628C52.79 115.981 51.1242 115.796 49.3658 116.258C47.8851 116.628 46.4043 117.182 44.831 117.459C43.9981 117.644 42.9801 117.829 42.1472 117.737C40.2963 117.552 39.0932 115.888 39.3708 114.04C39.6485 112.284 39.9261 110.62 40.2037 108.864C40.6665 106.646 41.777 104.705 43.3503 103.134C44.3683 102.025 45.664 101.101 46.8671 100.176C47.5149 99.7142 48.1627 99.3445 48.9031 99.0672C52.9751 97.6809 54.5484 98.5127 57.4173 101.378C58.3428 102.302 59.0831 103.504 59.8235 104.613C60.2862 105.444 60.749 106.276 61.0266 107.2C61.2117 108.217 61.3043 109.141 61.5819 110.343ZM44.1832 110.435C44.1832 110.528 44.2758 110.62 44.2758 110.62C43.4428 111.082 42.5174 111.544 41.6845 112.006C40.4814 112.653 40.3888 112.931 40.5739 114.317C40.5739 114.502 40.6665 114.779 40.759 114.964C41.2217 116.535 42.2397 117.09 43.813 116.905C44.4609 116.812 45.2012 116.628 45.849 116.443C47.0521 116.165 48.2552 115.703 49.5509 115.426C51.2167 115.056 52.79 115.149 54.4558 115.796C55.4738 116.258 56.5844 116.35 57.6024 116.72C58.4353 116.997 59.1757 116.72 59.731 116.165C60.4713 115.426 60.9341 114.594 61.0266 113.578C61.1192 111.637 60.749 109.696 60.2862 107.755C59.6384 105.26 58.1577 103.319 56.3068 101.563C55.4738 100.731 54.3633 99.8066 52.9751 99.899C50.5689 100.084 48.2552 100.638 46.3118 102.21C46.0341 102.487 45.664 102.672 45.3863 102.949C44.1832 103.781 43.2578 104.89 42.6099 106.184C42.1472 107.108 41.777 108.032 41.4068 108.956C41.2217 109.419 40.9441 109.881 41.1292 110.435C42.795 109.696 44.2758 108.956 45.849 108.217C45.849 108.31 45.9416 108.402 45.9416 108.494C45.7565 108.587 45.5714 108.679 45.3863 108.772C44.1832 109.326 42.9801 109.881 41.8696 110.528C41.3143 110.897 40.4814 111.082 40.6665 112.284C41.9621 111.544 43.0727 110.99 44.1832 110.435Z" fill="black"/>
<path d="M41.3145 96.8491C41.4996 98.6051 40.5741 100.454 39.371 101.008C38.1679 101.563 36.9648 101.378 35.9468 100.546C34.0959 98.9748 33.3555 97.1263 33.9108 94.7233C34.1885 93.4294 34.9288 92.4128 36.0394 91.7658C36.4096 91.581 37.0574 91.6734 37.5201 91.8582C38.9083 92.5052 39.8338 93.7067 40.4816 95.0006C40.8518 95.6476 41.1294 96.3869 41.3145 96.8491ZM34.9288 96.1097C35.299 97.4036 36.0394 98.6975 37.4276 99.5293C39.0934 100.638 40.2965 100.176 40.7592 98.2354C40.9443 97.3112 40.5741 96.4794 40.204 95.74C39.6487 94.4461 38.8158 93.337 37.5201 92.5976C37.0574 92.3203 36.5021 92.2279 36.1319 92.69C35.299 93.6143 34.7437 94.6309 34.9288 96.1097Z" fill="black"/>
<path d="M53.5306 90.5642C53.7157 92.3203 52.9753 93.799 51.9573 95.093C51.1244 96.1096 48.4406 95.5551 47.7002 94.446C46.4045 92.5975 47.1449 90.0097 48.2555 88.9006C48.9958 88.2537 49.8287 87.7916 50.7542 87.237C51.3095 86.9597 51.7722 87.1446 52.1424 87.5143C52.7902 88.2537 53.438 89.4552 53.5306 90.5642ZM48.6256 94.0763C49.4586 93.7066 50.2915 93.4294 51.0318 93.1521C49.7362 93.9839 49.7362 93.9839 49.2735 94.7233C49.7362 94.7233 50.1989 94.6309 50.4766 94.8157C51.402 95.3702 51.7722 94.7233 52.1424 94.1687C52.5126 93.6142 52.7902 92.9672 52.9753 92.2279C53.3455 90.5642 52.5126 88.8082 51.1244 88.0688C49.6437 88.9931 47.9778 89.9173 48.1629 92.2279C48.9033 91.9506 49.5511 91.6733 50.1989 91.4885C49.8287 91.8582 49.4586 92.043 49.0884 92.2279C48.1629 92.69 48.1629 92.7824 48.6256 94.0763Z" fill="black"/>
<path d="M58.4358 97.1266C58.2507 95.2782 59.4538 92.9676 61.1196 92.1358C62.6004 91.3964 64.0811 91.7661 64.7289 93.2449C65.3767 94.7236 65.2842 96.11 64.2662 97.4039C63.2482 98.6978 62.1376 99.7145 60.2867 99.3448C58.8985 99.0675 58.6209 98.7903 58.4358 97.1266ZM60.1016 95.3706C59.9165 95.6479 59.7314 95.9251 59.3612 96.4797C60.1016 96.2948 60.6569 96.2024 61.2122 96.0176V96.11C60.7494 96.3873 60.2867 96.5721 59.6389 96.9418C60.1942 97.5888 60.6569 98.1433 61.1196 98.6978C62.4153 98.513 63.2482 97.866 64.0811 96.5721C64.7289 95.463 64.6364 93.9843 63.7109 93.06C63.5258 92.8752 63.1556 92.6903 62.7855 92.6903C61.6749 92.5979 60.1016 93.7994 59.7314 94.9085C59.824 95.0933 60.0091 95.2782 60.1016 95.3706Z" fill="black"/>
<path d="M60.1016 95.3703C60.4717 94.9082 60.9345 94.7234 61.4898 94.9082C61.027 95.0007 60.5643 95.1855 60.1016 95.3703Z" fill="black"/>
<path d="M109.312 116.696C109.381 116.136 109.347 115.967 109.424 115.861C111.478 112.835 113.542 109.813 115.616 106.803C116.032 106.198 116.403 105.464 117.719 105.783C115.565 109.873 113.585 113.879 109.312 116.696Z" fill="#F15748"/>
<path d="M125.766 119.678C125.013 120.098 124.597 120.526 124.179 120.527C120.25 120.549 116.457 121.545 112.508 122.262C112.582 121.411 113.105 120.905 113.76 120.804C117.409 120.207 120.968 118.897 124.73 119.14C124.922 119.148 125.095 119.326 125.766 119.678Z" fill="#F15748"/>
<path d="M110.73 127.729C113.341 127.796 120.245 133.395 121.171 136.689C120.419 136.247 119.899 136.051 119.53 135.704C118.54 134.785 117.661 133.741 116.654 132.843C114.718 131.104 112.71 129.432 110.73 127.729Z" fill="#F15748"/>
</svg>
