<svg width="30" height="30" viewBox="0 0 30 30" fill="none" xmlns="http://www.w3.org/2000/svg">
<path d="M3.7002 24.9C2.8002 24.3 3.2002 23.5 2.9002 22.5C2.8002 21.9 2.7002 21.3 2.7002 20.7C2.7002 20.5 2.8002 20.3 2.9002 20.2C3.0002 20.1 3.2002 20.2 3.4002 20.2C4.2002 20.4 4.8002 20.8 5.5002 21.2C8.8002 22.9 11.6002 22.9 15.1002 24C15.5002 24.1 17.2002 24.4 17.2002 24.4C18.8002 24.8 20.5002 25.6 20.5002 25.9C20.5002 26 18.3002 25.8 18.3002 26C18.0002 26.5 16.6002 26.1 16.0002 26C14.0002 25.9 12.0002 25.6 10.1002 25.8C8.4002 25.9 5.2002 26 3.7002 24.9Z" fill="#AFB1B0"/>
<path d="M5.40039 10.7001C5.40039 10.6001 5.40039 10.5001 5.50039 10.4001C5.60039 10.3001 5.70039 10.3001 5.80039 10.3001C7.60039 10.0001 7.80039 13.4001 9.40039 14.7001C12.2004 17.0001 13.9004 16.9001 16.9004 15.8001C18.7004 15.3001 21.4004 15.0001 21.4004 15.0001C21.3004 15.2001 19.7004 15.7001 19.5004 15.8001C18.2004 16.4001 17.6004 16.8001 16.1004 17.6001C15.8004 18.0001 14.8004 18.5001 14.3004 18.7001C13.8004 18.9001 13.4004 18.4001 12.9004 18.1001C10.8004 17.1001 8.80039 16.0001 6.90039 14.9001C5.20039 13.8001 5.50039 12.6001 5.40039 10.7001Z" fill="#AFB1B0"/>
<path d="M2.8003 22.8C2.8003 21.7 2.9003 20.5 2.8003 19.4C2.7003 17.9 2.8003 16.5 2.8003 15C2.8003 14.1 3.0003 13.3 3.1003 12.4C3.1003 12.2 3.2003 12.1 3.3003 12C3.8003 11.6 4.2003 11.2 4.7003 10.9C5.0003 10.7 5.1003 10.5 5.1003 10.1C5.1003 8.90005 5.2003 9.40005 5.3003 8.20005C5.3003 7.30005 5.4003 7.60005 5.4003 6.70005C5.4003 6.10005 5.3003 6.10005 5.1003 5.60005C5.0003 5.10005 5.1003 4.80005 5.5003 4.60005C5.6003 4.50005 5.8003 4.50005 5.9003 4.50005C6.9003 4.50005 7.9003 4.40005 9.0003 4.50005C10.3003 4.50005 11.7003 4.40005 13.0003 4.20005C14.0003 4.10005 14.9003 4.10005 15.9003 4.20005C17.7003 4.30005 19.4003 4.10005 21.2003 4.00005C22.4003 3.90005 23.3003 3.90005 24.5003 3.80005C25.0003 3.80005 25.1003 4.00005 25.0003 4.40005C24.8003 5.70005 24.9003 5.30005 24.7003 6.70005C24.7003 6.90005 24.7003 7.00005 24.6003 7.20005C24.3003 8.20005 24.5003 7.70005 24.4003 8.50005C24.4003 8.80005 24.4003 9.20005 24.3003 9.60005C24.3003 10.3 24.4003 10.7 24.9003 11.1C25.6003 11.7 26.2003 12.4 26.6003 13.3C27.1003 14.3 27.2003 15.4 27.1003 16.4C27.0003 18 26.8003 19.7 26.6003 21.3C26.5003 22.6 26.3003 23.9001 26.2003 25.2001C26.2003 25.6 25.7003 26 25.3003 26C23.7003 26.1 22.1003 26.3001 20.4003 26.1C19.7003 26 19.0003 26.1 18.3003 26.1C15.5003 26.1 12.6003 26.1 9.8003 26.1C8.8003 26.1 7.9003 26.1 7.0003 26C6.1003 25.9 5.2003 25.7001 4.3003 25.5C3.4003 25.3 2.9003 24.8 2.8003 23.8C2.8003 23.5 2.8003 23.1 2.8003 22.8ZM25.8003 22.7001C26.1003 22.6 26.2003 22.3 26.2003 22C26.3003 20.7001 26.4003 19.5 26.6003 18.2C26.8003 17 26.8003 15.8 26.6003 14.6C26.5003 14.1 26.4003 13.6 26.0003 13.2C25.8003 13.3 25.6003 13.3 25.5003 13.4C24.2003 14 22.9003 14.6 21.6003 15.1C19.2003 16.1 16.9003 17.2 14.7003 18.5C14.6003 18.6 14.5003 18.7 14.3003 18.8C14.8003 19.2 22.4003 23 23.1003 23.2001C23.6003 22.8001 24.0003 22.3001 24.6003 22.1C24.2003 22.5 23.8003 22.9 23.3003 23.4C23.6003 23.6 23.8003 23.7001 23.9003 23.7001C24.4003 23.4001 24.9003 23.1 25.3003 22.8C25.1003 23 25.0003 23.2 24.8003 23.3C24.6003 23.5 24.4003 23.7 24.2003 23.9C24.8003 24.3 25.2003 24.6 25.7003 24.9C25.8003 24.3 25.9003 23.9 26.0003 23.4C26.0003 23.2 26.0003 23 26.0003 22.9C26.1003 22.8 25.9003 22.7001 25.8003 22.7001ZM7.7003 22.2001C8.1003 22 8.5003 21.8001 8.9003 21.6C9.9003 21 11.0003 20.4 12.0003 19.8C12.4003 19.6 12.8003 19.3 13.2003 19C13.3003 18.9 13.3003 18.8 13.4003 18.7C10.3003 17 7.3003 15.2 4.4003 13.3C4.2003 13.2 4.0003 13.1 3.9003 13C3.9003 13 3.8003 13 3.7003 13C3.5003 13.4 3.5003 13.9 3.4003 14.4C3.4003 16 3.3003 17.6 3.3003 19.2C3.3003 20.3 3.3003 21.4 3.3003 22.5C3.3003 22.9 3.4003 23.4 3.4003 23.8C3.4003 24.4 3.8003 24.6 4.2003 24.8C4.3003 24.9 4.5003 24.9 4.7003 24.9C5.3003 25.1 6.0003 25.1 6.6003 25.2001C8.7003 25.5 10.7003 25.5 12.8003 25.5C13.8003 25.5 14.7003 25.5 15.7003 25.5C16.4003 25.5 17.1003 25.5 17.9003 25.5C19.0003 25.5 20.2003 25.4 21.3003 25.4C22.2003 25.4 23.0003 25.4 23.9003 25.4C24.3003 25.4 24.7003 25.4 25.1003 25.3C25.2003 25.3 25.3003 25.2001 25.5003 25.2001C24.9003 24.8001 24.4003 24.5 23.9003 24.1C22.9003 23.4 21.8003 23 20.8003 22.3C20.1003 21.8 19.3003 21.5 18.5003 21.4C18.1003 21.4 17.7003 21.2 17.5003 20.9C17.3003 20.6 17.1003 20.5 16.9003 20.4C16.1003 20 15.2003 19.6 14.4003 19.1C14.1003 18.9 13.9003 18.9 13.6003 19.1C11.9003 20.1 10.2003 21.1 8.6003 22.1C7.6003 22.7001 6.5003 23.3 5.5003 23.9C5.2003 24.2 5.0003 24.2001 4.8003 24C4.9003 23.9 4.9003 23.9 4.9003 23.8C5.5003 23.5 6.0003 23.3 6.6003 22.9C7.0003 22.7 7.4003 22.5 7.7003 22.2001ZM11.5003 17.2C11.7003 17.3 11.8003 17.4 12.0003 17.5C12.4003 17.8 12.9003 18 13.3003 18.3C13.7003 18.5 14.0003 18.5 14.3003 18.3C15.0003 17.9 15.7003 17.5 16.4003 17.1C17.0003 16.8 17.5003 16.5 18.1003 16.2C19.7003 15.5 21.3003 14.8 23.0003 14.1C23.3003 14 23.5003 13.8 23.5003 13.4C23.5003 12.9 23.6003 12.3 23.7003 11.8C23.8003 10.5 23.9003 9.80005 24.1003 8.50005C24.2003 7.70005 23.9003 8.20005 24.1003 7.40005C24.4003 6.10005 24.3003 6.60005 24.4003 5.30005C24.4003 5.00005 24.4003 4.70005 24.4003 4.40005C23.9003 4.50005 23.7003 4.70005 23.3003 4.70005C22.2003 4.80005 21.1003 4.70005 20.0003 4.80005C19.2003 4.80005 18.5003 4.90005 17.7003 4.90005C16.2003 4.90005 14.6003 4.90005 13.1003 4.90005C11.1003 5.00005 9.1003 5.10005 7.1003 5.00005C6.7003 5.00005 6.3003 5.00005 5.9003 5.20005C5.9003 5.30005 5.8003 5.40005 5.8003 5.50005C5.8003 6.50005 5.8003 6.40005 5.8003 7.40005C5.8003 7.60005 5.8003 7.30005 5.8003 7.50005C5.8003 8.00005 5.7003 7.30005 5.8003 7.80005C5.9003 9.60005 5.9003 10.8 6.0003 12.6C6.0003 13.2 6.0003 13.2 5.6003 13.6C6.3003 14.2 9.5003 16.2 10.4003 16.6C11.0003 16.3 11.4003 15.7 12.1003 15.5C11.7003 15.9 11.1003 16.2 10.8003 16.8C11.0003 17.1 11.2003 17 11.4003 16.9C11.8003 16.6 12.2003 16.2 12.9003 15.9C12.5003 16.4 11.9003 16.6 11.5003 17.2ZM24.1003 13.6C24.8003 13.3 25.3003 13.1 25.7003 12.6C25.2003 12.2 24.9003 11.6 24.3003 11.2C24.2003 12 24.2003 12.7 24.1003 13.6ZM5.0003 11.2C4.5003 11.6 4.1003 12 4.0003 12.5C4.4003 12.7 4.7003 12.9 5.1003 13.2C5.1003 12.5 5.0003 11.9 5.0003 11.2Z" fill="black"/>
<path d="M21.7003 11.5001C21.6003 11.6001 21.5003 11.7001 21.3003 11.7001C21.1003 11.7001 20.9003 11.6001 20.7003 11.6001C19.7003 11.6001 18.7003 11.6001 17.6003 11.6001C16.7003 11.6001 15.9003 11.6001 15.0003 11.6001C14.4003 11.6001 13.9003 11.6001 13.3003 11.7001C12.3003 11.9001 11.4003 11.9001 10.4003 11.7001C9.70029 11.6001 8.90029 11.7001 8.20029 11.7001C7.90029 11.7001 7.70029 11.8001 7.30029 11.6001C7.40029 11.5001 7.50029 11.4001 7.60029 11.4001C8.70029 11.3001 9.90029 11.2001 11.0003 11.5001C11.5003 11.6001 12.1003 11.6001 12.7003 11.5001C13.8003 11.3001 14.9003 11.3001 16.0003 11.4001C16.7003 11.4001 17.4003 11.4001 18.2003 11.3001C19.3003 11.2001 20.4003 11.3001 21.5003 11.3001C21.7003 11.4001 21.7003 11.5001 21.7003 11.5001Z" fill="black"/>
<path d="M21.7003 9.50006C21.6003 9.60006 21.5003 9.70006 21.3003 9.70006C21.1003 9.70006 20.9003 9.60006 20.7003 9.60006C19.7003 9.60006 18.7003 9.60006 17.6003 9.60006C16.7003 9.60006 15.9003 9.60006 15.0003 9.60006C14.4003 9.60006 13.9003 9.60006 13.3003 9.70006C12.3003 9.90006 11.4003 9.90006 10.4003 9.70006C9.70029 9.60006 8.90029 9.70006 8.20029 9.70006C7.90029 9.70006 7.70029 9.80006 7.30029 9.60006C7.40029 9.50006 7.50029 9.40006 7.60029 9.40006C8.70029 9.30006 9.90029 9.20006 11.0003 9.50006C11.5003 9.60006 12.1003 9.60006 12.7003 9.50006C13.8003 9.30006 14.9003 9.30006 16.0003 9.40006C16.7003 9.40006 17.4003 9.40006 18.2003 9.30006C19.3003 9.20006 20.4003 9.30006 21.5003 9.30006C21.6003 9.30006 21.6003 9.40006 21.7003 9.50006Z" fill="black"/>
<path d="M12.1004 7.79995C12.1004 7.69995 12.1004 7.69995 12.1004 7.79995C12.1004 7.69995 12.1004 7.69995 12.1004 7.79995C12.1004 7.69995 12.1004 7.69995 12.1004 7.59995V7.49995C11.8004 7.49995 11.5004 7.49995 11.2004 7.39995C10.0004 7.09995 8.90039 7.19995 7.70039 7.29995C7.60039 7.29995 7.50039 7.39995 7.40039 7.49995C7.70039 7.69995 8.00039 7.59995 8.30039 7.59995C9.00039 7.59995 9.80039 7.49995 10.5004 7.59995C11.0004 7.69995 11.5004 7.79995 12.1004 7.79995Z" fill="black"/>
<path d="M20.4003 13.2C20.3003 13.6 20.1003 13.5 19.9003 13.5C18.9003 13.5 17.9003 13.5 16.9003 13.4C16.8003 13.4 16.6003 13.4 16.5003 13.4C14.5003 13.5 12.4003 13.5 10.4003 13.6C9.90029 13.6 9.50029 13.7 9.00029 13.8C8.80029 13.8 8.60029 13.8 8.30029 13.8C8.50029 13.6 8.50029 13.5 8.60029 13.4C8.90029 13.3 9.10029 13.3 9.40029 13.3C10.6003 13.3 11.9003 13.2 13.1003 13.2C13.9003 13.2 14.7003 13.2 15.5003 13.2C17.0003 13.2 18.5003 13.2 20.0003 13.2C20.1003 13.1 20.2003 13.2 20.4003 13.2Z" fill="black"/>
<path d="M7.70029 22.2C7.60029 22.2 7.50029 22.2 7.40029 22.2C7.10029 21.7 6.80029 21.3 6.80029 20.7C7.20029 21.2 7.40029 21.7 7.70029 22.2Z" fill="black"/>
<path d="M7.7001 20.3C7.8001 20.8 7.9001 21.3 8.1001 21.8H8.0001C7.9001 21.3 7.7001 20.8 7.6001 20.3C7.6001 20.3 7.6001 20.3 7.7001 20.3Z" fill="black"/>
</svg>
