<svg width="30" height="30" viewBox="0 0 30 30" fill="none" xmlns="http://www.w3.org/2000/svg">
<path d="M6.69979 26.9C6.79979 27.4 7.19979 27.8 7.69979 28.1C8.19979 28.3 8.69979 28.4 9.19979 28.5C11.3998 28.9 13.7998 28.6 15.9998 28.6C16.2998 28.6 19.2998 28.5 19.2998 28.5C17.1998 28.4 12.1998 28.2 10.3998 27.1C9.69979 26.7 9.19979 25.5 8.69979 24.9C8.19979 24.3 7.79979 23.5 7.19979 23C6.89979 23.7 6.59979 26.3 6.69979 26.9Z" fill="#BBBBBA"/>
<path d="M9.59971 24.2C9.29971 24 9.19971 23.6 9.09971 23.3C8.49971 20.7 8.69971 17.9 8.89971 15.2C8.89971 14.8 8.79971 13.6 9.09971 13.7C9.89971 15.5 9.99971 17.1 12.9997 20.8C16.5997 24.9 19.7997 25.1 19.7997 25.1C18.9997 25.6 15.2997 25.5 14.3997 25.4C13.0997 25.1 10.5997 25.1 9.59971 24.2Z" fill="#BBBBBA"/>
<path d="M20.6998 1.40015C21.3998 1.50015 22.1998 1.60015 22.4998 2.20015C22.6998 2.60015 22.5998 3.00015 22.5998 3.40015C22.4998 4.20015 22.9998 5.00015 22.6998 5.70015C22.6998 5.70015 22.3998 5.40015 22.3998 5.30015C22.2998 5.10015 22.1998 5.00015 22.0998 4.80015C21.8998 4.50015 21.7998 4.10015 21.5998 3.70015C21.4998 3.50015 21.2998 3.20015 20.9998 3.00015C20.7998 2.80015 20.5998 2.70015 20.2998 2.60015C19.4998 2.20015 18.6998 1.80015 17.7998 1.50015C17.9998 0.900146 20.2998 1.40015 20.6998 1.40015Z" fill="#BBBBBA"/>
<path d="M19.3998 29.2001C18.7998 29.2001 18.0998 29.2001 17.3998 29.2001C15.9998 29.1001 10.6998 29.2001 9.39982 29.0001C8.79982 28.9001 8.29982 28.7001 7.69982 28.6001C7.19982 28.5001 6.99982 28.2001 6.99982 27.8001C6.89982 27.1001 6.89982 25.8001 6.79982 25.1001C6.79982 22.6001 6.79982 20.1001 6.79982 17.6001C6.79982 16.3001 6.69982 15.0001 6.79982 13.7001C6.79982 12.5001 6.99982 8.90006 6.99982 8.20006C6.99982 7.00006 7.29982 2.70006 7.39982 2.20006C7.59982 1.20006 8.69982 1.20006 9.69982 1.00006C11.2998 0.80006 12.9998 0.80006 14.5998 0.80006C14.9998 0.80006 15.4998 0.70006 15.8998 0.80006C16.4998 0.80006 16.9998 0.90006 17.5998 0.90006C18.5998 1.00006 19.4998 1.00006 20.4998 1.00006C20.6998 1.00006 20.8998 1.00006 21.0998 1.10006C22.3998 1.20006 22.7998 2.00006 22.8998 3.10006C22.8998 4.10006 22.9998 5.20006 22.9998 6.30006C23.0998 7.90006 23.1998 9.50006 23.1998 11.0001C23.1998 12.3001 23.2998 13.6001 23.2998 14.9001C23.2998 16.5001 23.1998 18.1001 23.1998 19.7001C23.0998 21.7001 23.0998 23.8001 22.7998 25.8001C22.5998 27.2001 22.6998 28.1001 21.5998 28.9001C21.3998 29.2001 19.8998 29.1001 19.3998 29.2001ZM8.89982 28.2001C9.09982 28.3001 9.19982 28.3001 9.29982 28.3001C11.4998 28.6001 13.7998 28.6001 16.0998 28.6001C17.2998 28.6001 18.4998 28.6001 19.5998 28.6001C20.1998 28.6001 21.2998 28.7001 21.6998 28.2001C22.1998 27.7001 22.1998 26.8001 22.2998 26.4001C22.5998 24.5001 22.6998 22.7001 22.7998 20.8001C22.7998 19.6001 22.8998 18.4001 22.8998 17.3001C22.8998 15.7001 22.8998 14.2001 22.7998 12.6001C22.7998 11.4001 22.7998 10.3001 22.6998 9.10006C22.6998 8.50006 22.5998 8.00006 22.5998 7.40006C22.4998 6.00006 22.4998 4.70006 22.3998 3.30006C22.2998 2.00006 21.7998 1.70006 20.8998 1.70006C19.1998 1.60006 17.4998 1.40006 15.7998 1.30006H15.6998C14.2998 1.30006 12.7998 1.40006 11.3998 1.30006C10.6998 1.30006 10.0998 1.40006 9.39982 1.60006C8.99981 1.70006 8.19982 1.80006 8.09982 2.00006C7.89982 2.80006 7.79982 3.60006 7.79982 4.40006C7.79982 6.30006 7.49982 8.20006 7.49982 10.2001C7.19982 12.2001 7.29982 24.7001 7.49982 26.4001C7.49982 26.8001 7.49982 27.1001 7.79982 27.5001C7.99982 27.3001 8.09982 27.2001 8.29982 27.1001C8.49982 27.0001 8.59982 26.7001 8.89982 26.8001C8.59982 27.2001 8.29982 27.6001 7.99982 28.0001C8.39982 28.3001 8.49982 28.1001 8.69982 27.9001C8.99982 27.5001 9.39982 27.2001 9.99982 27.1001C9.69982 27.4001 9.29982 27.8001 8.89982 28.2001Z" fill="black"/>
<path d="M21.5998 5.70015C21.6998 7.50015 21.6998 8.80015 21.7998 10.6002C21.8998 12.9002 21.6998 15.2002 21.5998 17.5002C21.5998 19.5002 21.3998 21.5002 21.2998 23.4002C21.2998 23.6002 21.2998 23.8002 21.1998 24.0002C20.9998 25.0002 20.5998 25.3002 19.5998 25.3002C17.6998 25.5002 15.6998 25.6002 13.7998 25.5002C12.5998 25.4002 11.3998 25.5002 10.1998 25.2002C8.99978 24.9002 8.69978 24.7002 8.69978 23.4002C8.69978 21.7002 8.69978 20.0002 8.59978 18.3002C8.49978 17.7002 8.69978 17.0002 8.69978 16.4002C8.69978 15.3002 8.59978 14.3002 8.59978 13.2002C8.59978 11.6002 8.69978 9.90015 8.79978 8.30015C8.79978 7.20015 8.79978 6.20015 8.79978 5.10015C8.79978 4.30015 9.09978 4.00015 9.79978 4.00015C11.1998 3.90015 12.6998 3.80015 14.0998 3.70015C15.9998 3.60015 17.8998 3.40015 19.7998 3.50015C19.9998 3.50015 20.2998 3.50015 20.4998 3.60015C20.9998 3.80015 21.2998 4.10015 21.3998 4.60015C21.3998 4.80015 21.4998 5.00015 21.4998 5.20015C21.5998 5.20015 21.5998 5.70015 21.5998 5.70015ZM9.99978 24.5002C10.3998 24.6002 10.6998 24.7002 10.9998 24.8002C13.2998 25.1002 15.5998 25.1002 17.8998 25.0002C18.4998 25.0002 19.0998 24.9002 19.6998 24.8002C20.4998 24.7002 20.5998 24.6002 20.6998 23.8002C20.7998 23.0002 20.8998 22.3002 20.8998 21.5002C20.9998 20.2002 20.9998 19.0002 20.9998 17.7002C21.0998 15.3002 21.2998 13.0002 21.1998 10.6002C21.0998 8.80015 21.0998 6.90015 20.8998 5.10015C20.7998 4.20015 20.4998 4.00015 19.5998 4.00015C18.2998 4.00015 16.9998 4.00015 15.6998 4.10015C13.9998 4.20015 12.2998 4.30015 10.5998 4.40015C10.1998 4.40015 9.79978 4.50015 9.29978 4.60015C9.29978 4.70015 9.29978 4.90015 9.29978 5.00015C9.29978 6.50015 9.19978 7.90015 9.19978 9.40015C9.19978 12.4002 9.19978 15.3002 9.09978 18.3002C9.09978 18.4002 9.09978 18.5002 9.09978 18.5002C9.39978 19.9002 9.29978 21.3002 9.29978 22.8002C9.29978 23.0002 9.29978 23.1002 9.39978 23.3002C9.89978 23.1002 10.0998 22.6002 10.5998 22.5002C10.3998 22.8002 10.0998 23.0002 9.89978 23.3002C9.69978 23.6002 9.19978 23.8002 9.49978 24.4002C9.79978 24.1002 10.0998 23.9002 10.3998 23.7002C10.9998 23.2002 10.9998 23.2002 11.3998 23.1002C10.9998 23.5002 10.5998 23.9002 9.99978 24.5002Z" fill="black"/>
<path d="M17.4997 2.39995C17.3997 2.49995 17.2997 2.69995 17.1997 2.69995C16.4997 2.69995 15.6997 2.79995 14.9997 2.79995C14.8997 2.79995 14.6997 2.69995 14.6997 2.59995C14.6997 2.49995 14.7997 2.39995 14.8997 2.29995C14.9997 2.19995 15.1997 2.19995 15.2997 2.19995C15.9997 2.19995 16.6997 2.29995 17.3997 2.29995C17.4997 2.29995 17.4997 2.29995 17.4997 2.39995Z" fill="black"/>
<path d="M14.5997 27C14.4997 26.7 14.7997 26.4 15.0997 26.3C15.2997 26.3 15.4997 26.3 15.5997 26.6C15.6997 26.9 15.4997 27.3 15.1997 27.4C14.9997 27.4 14.6997 27.2 14.5997 27Z" fill="black"/>
<path d="M13.4 2.1001C13.5 2.2001 13.6 2.3001 13.7 2.4001C13.8 2.6001 13.6 2.8001 13.3 2.8001C13.1 2.8001 12.9 2.7001 12.9 2.5001C12.8 2.4001 13 2.1001 13.4 2.1001Z" fill="black"/>
</svg>
