<svg width="161" height="160" viewBox="0 0 161 160" fill="none" xmlns="http://www.w3.org/2000/svg">
<path d="M27.395 66.1399C37.0736 63.0312 46.8344 59.8732 55.5913 54.725C61.6651 51.1558 67.1463 46.6819 72.6111 42.241C88.7091 29.1155 104.807 15.9901 120.905 2.86462C131.555 31.6156 156.904 54.725 160.574 85.1537C140.262 103.181 119.753 121.323 96.2479 134.909C72.7263 148.495 45.6822 157.377 18.6052 155.173C14.9017 136.175 11.1817 117.178 7.47817 98.1805C6.3918 92.621 1.0587 79.2818 4.43303 74.3967C7.72507 69.6268 22.1442 67.834 27.395 66.1399Z" fill="white"/>
<path d="M95.3097 123.477C95.7047 123.642 96.1327 123.823 96.3631 124.201C96.8405 125.04 95.9681 125.961 95.2109 126.57C92.4127 128.839 90.1741 131.784 88.7585 135.09C88.2976 136.159 87.5569 137.491 86.4047 137.31C85.6969 137.195 85.2361 136.537 84.8904 135.912C83.5407 133.478 82.7176 130.813 82.1745 128.099C81.7465 125.879 80.7753 122.392 81.4173 120.155C82.2238 117.342 85.3842 119.563 87.2277 120.27C89.9272 121.323 92.6102 122.392 95.3097 123.477Z" fill="#BCBCBB"/>
<path d="M59.9697 95.9273C60.6446 97.3089 61.3359 98.7234 62.3729 99.8583C63.4099 100.993 64.8584 101.865 66.4057 101.816C67.5743 101.783 68.7101 101.223 69.4508 100.319C69.6483 100.072 69.8294 99.7761 69.8294 99.4636C69.8129 99.0524 69.5166 98.7234 69.2368 98.4273C65.7802 94.7594 63.0807 90.483 60.4142 86.223C59.2784 84.4301 53.9947 74.8739 53.7478 82.1932C53.5832 86.1078 58.2414 92.4896 59.9697 95.9273Z" fill="#BCBCBB"/>
<path d="M106.996 99.5787C107.638 99.0359 108.264 98.4767 108.906 97.9339C109.679 97.2596 110.453 96.5852 111.013 95.7463C111.572 94.891 111.902 93.8384 111.655 92.8515C109.564 93.0653 107.49 93.493 105.499 94.1509C105.136 94.7924 105.087 95.549 105.038 96.2727C104.922 98.1642 104.807 100.072 104.692 101.964" fill="#BCBCBB"/>
<path d="M34.3412 83.6242C34.5881 84.315 34.9338 85.1045 35.658 85.2525C36.0531 85.3347 36.481 85.1867 36.8431 85.0058C39.0982 83.8709 40.3821 81.4859 41.5343 79.249C44.4971 73.4593 47.4435 67.4229 47.6904 60.926C47.7069 60.4326 47.7069 59.9062 47.4106 59.5115C47.1637 59.1825 46.7686 59.018 46.3736 58.9029C42.703 57.8338 38.8019 60.3339 35.6086 61.8306C33.3207 62.8997 30.6212 63.9195 29.8146 66.5676C28.3003 71.4856 32.7775 79.1832 34.3412 83.6242Z" fill="#BCBCBB"/>
<path d="M142.09 41.8135C148.97 54.4948 154.056 68.1466 157.151 82.2425C157.216 82.5715 157.299 82.9169 157.249 83.2458C157.151 84.0847 156.426 84.6933 155.768 85.2196C149.266 90.3678 143.538 96.5029 138.83 103.345C141.76 99.2826 141.76 93.8712 141.612 88.8546C141.118 71.502 140.427 54.1494 139.538 36.8133" fill="#BCBCBB"/>
<path d="M19.0827 140.452C19.1814 144.103 19.1979 148.1 21.5188 150.929C24.2183 154.252 29.0246 154.729 33.2878 154.975C36.3329 155.14 39.3616 155.321 42.4068 155.485C43.2627 155.535 44.1845 155.567 44.9087 155.107C46.5876 154.038 45.9457 151.488 45.0733 149.696C38.9666 137.014 31.5101 124.991 22.8521 113.872C21.6175 112.276 18.2597 107.112 15.84 108C12.9101 109.086 14.803 114.398 15.2639 116.175C17.2885 124.218 18.8358 132.146 19.0827 140.452Z" fill="#BCBCBB"/>
<path d="M75.9032 111.125L90.6515 109.678L102.421 104.283L113.844 94.7265L118.519 87.3414C118.519 87.3414 118.733 96.1575 118.519 96.7167C118.305 97.2759 111.737 109.25 111.737 109.25L100.824 125.155C100.824 125.155 92.0835 124.07 90.635 122.622C89.1865 121.175 77.9607 117.638 76.9237 115.155C75.8867 112.655 75.8867 112.655 75.8867 112.655L75.9032 111.125Z" fill="#EB584A"/>
<path d="M124.033 0.59491C124.477 0.825181 124.658 0.874525 124.691 0.956765C127.44 10.5788 131.703 19.4443 137.53 27.6353C139.077 29.8065 139.653 32.6355 140.74 35.1356C145.184 45.2346 149.76 55.2843 154.072 65.4327C155.916 69.7585 157.266 74.3146 158.846 78.7555C158.928 79.0023 158.961 79.2983 159.126 79.4957C162.006 83.032 160.574 85.417 157.76 88.5256C150.287 96.8483 142.55 104.776 133.399 111.29C129.349 114.168 125.777 117.737 121.745 120.665C113.778 126.455 105.745 132.178 97.5647 137.623C87.3265 144.449 76.0348 149.136 64.3316 152.788C59.0644 154.433 53.83 156.39 48.4311 157.327C43.2955 158.216 37.9624 158.117 32.7281 158.183C30.3907 158.216 27.9876 157.804 25.6996 157.278C23.4116 156.752 21.815 157.048 20.7615 159.86C20.3171 159.054 19.5106 158.281 19.4612 157.459C18.5065 143.33 14.1116 129.892 11.4122 116.109C10.0624 109.151 8.15304 102.325 6.62225 95.4009C5.45358 90.154 4.59765 84.8248 3.37959 79.5944C2.93517 77.6535 1.8488 75.8607 0.844727 73.4922C1.75004 73.1303 2.96809 72.456 4.25198 72.1435C15.7576 69.2651 26.967 65.5643 37.7155 60.5312C47.5916 55.9093 57.583 51.5013 67.3438 46.6163C76.4134 42.0931 84.9068 36.6981 92.7254 30.0861C102.371 21.9279 111.408 13.1447 120.494 4.39439C121.745 3.17724 122.897 1.81206 124.033 0.59491ZM153.052 73.8047C153.217 72.8343 153.776 71.7323 153.496 70.8934C152.097 66.6499 150.813 62.3405 148.904 58.3272C142.139 44.0997 135.16 29.9709 128.197 15.8257C126.535 12.4539 124.642 9.21363 122.732 5.66088C121.778 6.45038 121.152 6.91092 120.593 7.4537C111.276 16.5165 101.779 25.382 91.8695 33.8527C84.0345 40.547 75.146 45.2182 66.2245 49.9058C56.8258 54.8567 46.9826 58.9687 37.3369 63.4754C34.5387 64.7748 31.7899 66.1893 28.8929 67.6038C29.9134 70.2191 30.7693 72.3737 31.543 74.3968C32.6787 74.5942 33.5346 74.7422 34.5222 74.9067C36.6127 72.6369 38.2587 69.7256 42.1927 68.4098C41.6495 69.5447 41.5343 70.1697 41.1557 70.548C39.592 72.0777 37.7978 73.3935 36.3822 75.0547C34.0778 77.7851 34.2095 78.8542 36.695 82.2425C38.7361 80.3181 40.7771 78.4101 42.8017 76.5022C43.0157 76.6995 43.2297 76.8969 43.4437 77.0943C42.884 77.8838 42.3737 78.7226 41.7318 79.4464C40.6784 80.6142 39.5591 81.7326 38.4233 82.8346C37.1394 84.0847 36.8925 85.3841 37.5838 87.0946C38.5056 89.3974 39.3945 91.7659 39.8883 94.2002C41.9622 104.381 45.1884 114.217 48.2994 124.119C50.2746 130.369 52.0688 136.669 52.5626 143.281C52.7601 145.847 53.3033 148.38 53.7477 151.209C55.5583 148.149 54.1099 144.235 57.2373 141.324C56.8093 144.86 56.4472 147.837 56.0686 150.863C58.4389 151.077 58.801 149.959 58.9821 148.511C59.2784 146.258 59.3607 143.906 61.3688 141.291C61.1548 144.498 60.9902 146.866 60.7762 149.959C68.5125 147.014 75.4752 144.366 82.4543 141.735C84.0015 141.159 84.0345 139.794 84.2978 138.527L84.232 138.61C86.2895 136.521 88.347 134.432 90.3881 132.343L90.7996 132.672C89.4663 134.629 88.1495 136.587 86.8162 138.544C92.1164 136.159 96.9886 133.396 101.63 130.287C107.161 126.57 112.576 122.655 117.893 118.642C123.44 114.464 128.724 109.941 134.304 105.812C143.126 99.2661 150.352 91.1737 157.562 82.8675C156.887 80.5484 156.212 78.295 155.603 76.0252C155.225 74.5942 154.5 73.6731 152.904 73.7554L153.052 73.8047ZM6.21074 74.5284C6.0626 78.443 15.7576 116.092 17.4695 118.395C19.6752 117.178 20.5476 114.3 24.0207 113.165C23.1976 114.48 22.9178 115.122 22.4569 115.599C21.1237 117.046 19.7081 118.395 18.3748 119.842C17.1403 121.191 17.0415 122.589 18.5394 124.053C20.1361 122.425 21.7327 120.813 23.3129 119.217C23.5268 119.398 23.7244 119.596 23.9384 119.777C23.2799 120.681 22.7368 121.701 21.9467 122.458C18.8357 125.385 18.309 128.872 19.1155 132.886C20.4653 139.564 21.6504 146.274 22.9343 153.15C31.8886 155.633 40.6125 154.827 49.4022 153.084C49.4845 151.834 49.5668 151.061 49.5668 150.271C49.5175 140.139 46.3736 130.583 43.6576 121.01C39.8389 107.507 35.4111 94.1673 31.1314 80.7786C29.8311 76.6831 28.1357 72.7191 26.4732 68.3275C19.5106 70.4658 13.0088 72.456 6.21074 74.5284Z" fill="black"/>
<path d="M117.004 80.3346C118.568 78.5911 119.374 77.6865 120.197 76.7654C120.362 76.8477 120.527 76.9299 120.708 77.0286C120.033 79.3971 119.358 81.7492 118.683 84.1177C118.946 84.2492 119.193 84.3644 119.457 84.496C120.346 83.7394 121.218 82.9827 122.222 82.1275C122.387 82.7196 122.601 83.065 122.502 83.1801C120.296 86.1736 120.197 89.529 120.164 93.1147C120.099 99.661 116.708 105.171 113.35 110.451C110.486 114.974 106.898 119.053 103.573 123.297C102.058 125.238 100.182 125.649 97.647 125.139C90.1576 123.609 83.6064 119.941 77.0717 116.339C75.1953 115.303 73.7962 112.934 72.825 110.862C71.8045 108.658 70.4877 107.178 68.2491 106.355C65.3356 105.286 62.9489 103.526 61.1547 101.01C62.5374 97.2102 61.8131 95.697 57.2701 92.6706C55.5418 98.3287 57.8627 109.003 62.093 114.25C63.0806 112.573 64.0353 110.977 65.3192 108.806C66.6689 112.441 62.6197 114.777 64.8089 118.379C66.2409 116.158 67.4425 114.3 68.6277 112.441C68.8746 112.54 69.1215 112.655 69.3684 112.754C68.5947 115.138 67.8211 117.523 66.9323 120.221C69.928 122.326 72.8415 124.399 75.8043 126.488C74.7344 127.655 73.4011 128.478 73.3682 129.366C73.3353 130.139 74.7344 130.978 75.7055 131.998C74.2241 133.05 72.9732 132.211 71.7551 131.718C66.6031 129.662 62.4057 126.192 58.9326 122.063C54.6201 116.931 51.0482 111.257 49.7643 104.414C48.3487 96.9306 48.7932 92.2758 52.3156 84.4795C52.8259 87.6704 53.2868 90.4501 53.83 93.7891C54.1262 92.5555 54.0604 91.5192 54.5378 91.0916C55.9698 89.8086 55.2291 88.608 54.834 87.2263C53.7641 83.4433 52.6942 79.6603 51.9535 75.795C51.6243 74.1009 52.1346 72.2422 52.2498 70.4659C55.6241 69.6599 58.1425 71.1073 60.6116 72.0284C63.1629 72.9824 65.4673 74.5943 68.068 76.0088C68.5124 75.5483 69.0721 75.17 69.3355 74.6436C71.9691 69.3639 76.0677 65.7289 81.6312 63.788C83.6064 63.0972 85.5981 62.4064 87.6556 62.0445C89.4333 61.7156 90.3716 61.0247 90.9147 59.2155C91.9353 55.8272 93.1863 52.5047 94.4866 49.2151C95.5236 46.5834 96.396 46.4025 98.9638 47.6032C101.499 48.8039 102.931 51.0079 104.297 53.2449C106.881 57.5049 109.169 61.9787 111.951 66.1072C114.7 70.1534 116.988 74.3147 117.004 80.3346ZM93.0216 80.8939C92.857 82.5222 92.7089 84.1506 92.4949 86.1901C87.6721 85.1374 84.9397 87.8349 82.2238 90.6146C80.9234 90.2856 79.7383 89.9731 78.4709 89.6606C77.9606 91.5521 77.7466 93.2627 77.0224 94.743C76.3146 96.2234 75.3599 97.9668 74.0266 98.6576C71.5905 99.9077 70.5535 102.029 69.2038 103.937C74.8002 109.48 78.6684 105.418 82.767 101.125C83.3595 102.029 83.6393 102.654 84.0838 103.115C90.6349 109.809 88.7585 108.691 96.0009 106.207C99.1613 105.138 102.569 104.266 104.824 101.437C108.05 99.2991 110.239 96.3878 111.803 92.1278C109.103 92.7528 107.046 93.2298 105.466 93.6081C105.252 96.651 105.071 99.0853 104.889 101.503C104.247 98.5261 103.589 95.5325 102.881 92.2923C105.038 91.7495 106.7 91.437 108.297 90.9107C110.025 90.3514 111.687 89.6113 113.317 88.9534C114.535 84.2328 114.947 79.6438 113.547 75.1371C112.906 73.0811 111.539 71.2554 110.469 69.3474C107.408 63.8538 104.346 58.3437 101.235 52.8666C100.429 51.452 99.3424 50.3336 97.0215 50.4816C96.0009 53.2613 94.5689 56.1068 93.927 59.1332C93.1369 62.7847 91.2933 64.1992 87.6062 64.8571C80.8082 66.0743 75.0965 69.3638 71.6234 75.7457C70.9156 77.0615 69.7963 78.1635 68.8252 79.4135C64.0353 77.2095 60.3811 73.2949 54.5542 73.4265C54.439 80.8281 56.6447 87.177 61.27 92.7199C63.2616 95.1049 65.6648 97.2431 65.1546 100.895C65.0723 101.503 66.2574 102.293 67.1133 103.28C68.8417 101.043 69.8457 98.5425 71.6234 97.7201C74.4875 96.4043 75.1788 94.118 76.2652 91.6015C74.1583 90.006 73.3847 87.8842 73.8291 85.3513C74.1418 83.6242 75.0636 82.4729 76.9565 82.3906C78.7178 82.3248 79.6066 83.3775 80.0181 84.9072C80.3144 86.0092 80.4296 87.1441 80.693 88.6902C81.73 88.0487 82.4707 87.6211 83.1949 87.1605C84.3965 86.371 85.5158 85.0881 86.7997 84.8743C89.5486 84.3973 91.4744 82.9827 93.1039 80.9268L93.0216 80.8939ZM93.1698 113.625C93.3344 113.74 93.5154 113.856 93.6801 113.971C92.6266 115.944 91.5732 117.902 90.5032 119.859C90.8324 120.139 91.1452 120.418 91.4744 120.698C94.7664 120.385 94.7829 116.109 97.828 114.415C96.6264 117.046 95.6882 119.119 94.6347 121.454C97.4494 122.178 100.248 123.922 101.992 120.961C103.441 118.527 105.762 117.063 107.227 114.842C110.107 110.467 112.955 106.043 115.44 101.421C117.267 98.0162 117.531 94.1345 117.251 90.2856C117.202 89.6442 116.84 89.0191 116.626 88.3777C117.646 91.4205 115.194 92.8515 113.877 94.7101C113.35 95.4667 112.79 96.2069 112.297 96.98C108.593 102.654 103.82 106.947 97.219 108.971C94.5854 109.776 91.9847 110.698 89.4004 111.668C86.1907 112.885 82.9645 112.786 79.7054 112.112C78.7178 111.915 77.7466 111.602 75.9524 111.109C79.0305 116.076 83.804 116.734 88.4128 119.366C89.993 117.425 91.5732 115.517 93.1698 113.625ZM86.9314 109.25C86.9643 108.971 86.9972 108.707 87.0301 108.428C85.5158 107.046 84.0015 105.681 82.4542 104.266C80.693 105.582 79.047 106.618 78.6848 109.25C81.5983 109.25 84.2648 109.25 86.9314 109.25ZM51.4432 100.993C51.7395 100.96 52.0358 100.927 52.3321 100.878C52.2662 99.5458 53.4185 98.0655 51.4432 96.7003C51.4432 98.3287 51.4432 99.661 51.4432 100.993ZM54.0439 105.78C53.6983 105.812 53.3526 105.845 53.007 105.895C52.7107 107.063 52.2827 108.247 54.2909 109.678C54.1756 108.033 54.1098 106.898 54.0439 105.78Z" fill="black"/>
<path d="M129.349 100.747C129.596 98.3122 129.925 95.8944 130.057 93.4601C130.09 92.7364 129.514 91.9962 129.02 90.7791C127.819 92.1936 127.045 93.0982 126.074 94.2496C124.872 92.4403 125.531 90.9435 125.843 89.4797C126.535 86.1407 127.193 82.8511 126.238 79.3806C124.51 72.9824 121.432 67.5381 115.918 63.6728C114.222 62.4886 112.445 61.403 110.502 60.153C111.21 59.0345 111.918 57.8996 112.741 56.6002C111.243 55.8601 109.959 55.2351 108.297 54.4127C110.042 53.0146 111.309 53.5903 112.478 53.985C120.115 56.6002 126.107 61.2385 129.892 68.4921C130.567 69.775 131.341 70.9922 132.016 72.2751C135.489 78.7392 136.164 85.4664 133.826 92.4403C133.201 94.2989 132.74 96.2562 131.868 97.9997C131.341 99.0524 130.172 99.7925 129.283 100.664L129.349 100.747ZM132.921 80.7294C131.604 82.9005 131.604 82.9005 132.921 85.5651C132.921 83.5749 132.921 82.2755 132.921 80.7294ZM128.642 87.9171C128.856 87.8842 129.069 87.8349 129.283 87.802C129.432 86.7 129.563 85.598 129.711 84.4959C129.465 84.463 129.201 84.4466 128.954 84.4137C128.839 85.5815 128.74 86.7493 128.642 87.9171ZM129.069 70.9593C128.757 70.9264 128.46 70.877 128.148 70.8441C128.098 71.5679 128.049 72.2916 128 73.0317L128.378 73.0975C128.609 72.3738 128.839 71.6665 129.069 70.9593ZM125.415 65.5808C125.201 65.663 124.971 65.7453 124.757 65.8275C125.02 66.4361 125.284 67.0447 125.563 67.6532C125.794 67.5546 126.024 67.4394 126.255 67.3407C125.975 66.7486 125.695 66.1729 125.415 65.5808Z" fill="black"/>
<path d="M90.6514 51.8137C87.8697 52.2249 85.0714 52.6526 82.2896 53.0638C82.2567 53.2776 82.2238 53.4914 82.2073 53.7052C84.5447 54.6263 86.8656 55.5474 89.4827 56.5836C88.6104 58.2613 86.7668 58.212 85.2689 58.36C81.2691 58.7548 77.4504 59.7581 74.0431 61.7976C72.0679 62.9819 70.3396 64.6267 68.6277 66.2057C66.9158 67.7682 65.3521 69.4788 63.3934 71.4855C62.6197 70.0545 62.1589 69.2157 61.6157 68.2288C60.8914 68.2617 60.0684 68.311 59.1796 68.3604C61.5498 58.3929 80.3144 48.2281 90.6514 51.8137Z" fill="black"/>
<path d="M109.709 23.9482C111.652 22.2705 113.265 21.2672 114.351 19.8527C116.442 17.1223 118.779 16.4315 122.104 18.2408C119.223 20.1652 116.475 22.0074 113.561 23.9647C114.302 25.4121 114.812 26.4154 115.339 27.4845C118.96 26.8924 122.795 24.7213 125.1 29.3925C126.779 32.7808 126.449 36.4815 124.425 38.1757C122.45 39.8205 118.68 40.0014 116.129 38.1263C117.808 37.8961 119.009 37.748 120.211 37.5836C121.857 37.3533 123.602 36.827 123.717 35.0177C123.832 33.3071 123.536 31.3333 122.729 29.8366C121.841 28.1918 119.981 28.603 118.532 29.4747C117.561 30.0504 116.722 30.8728 115.487 31.8597C113.528 29.1787 111.718 26.695 109.709 23.9482Z" fill="black"/>
<path d="M84.3637 138.511C82.3061 138.939 81.3185 137.277 80.907 135.994C79.3762 131.29 78.1582 126.487 76.8908 121.701C76.7261 121.109 76.8084 120.369 77.0224 119.793C77.1706 119.415 77.7631 118.971 78.1417 118.971C78.5368 118.971 79.1623 119.398 79.2939 119.777C79.5408 120.5 79.5079 121.306 79.5902 122.096C79.9359 125.764 81.3021 129.103 82.6847 132.754C84.232 131.438 85.4336 130.419 86.6516 129.399C86.8656 129.547 87.0796 129.711 87.2936 129.859C85.7299 132.606 82.158 134.744 84.3307 138.593L84.3637 138.511Z" fill="black"/>
<path d="M129.283 100.681C130.057 101.733 130.864 102.769 131.588 103.855C131.769 104.135 131.703 104.562 131.818 105.631C129.481 103.707 127.44 102.26 125.712 100.516C124.049 98.822 121.218 98.0983 120.543 94.5948C124.922 95.335 126.502 98.9865 129.349 100.763L129.283 100.681Z" fill="black"/>
<path d="M152.986 73.7389C152.904 74.2488 153.003 74.8902 152.706 75.2357C149.48 79.1503 146.205 83.0155 142.814 87.0617C143.291 83.5419 147.472 78.2292 153.052 73.8047L152.986 73.7389Z" fill="black"/>
<path d="M150.27 70.9263C148.904 74.9067 144.213 80.3181 141.003 82.1109C144.427 77.9825 147.357 74.4462 150.27 70.9263Z" fill="black"/>
<path d="M44.2338 142.425C44.6782 141.866 44.9087 141.57 45.1391 141.291C45.2873 141.471 45.5835 141.685 45.5506 141.833C44.9581 145.139 42.0611 147.59 39.0982 147.327C36.1848 147.064 33.1232 143.955 32.9586 141.077C32.8105 138.494 34.2425 136.471 36.6951 135.83C39.1641 135.188 41.452 136.159 42.6043 138.445C43.2133 139.679 43.6577 140.995 44.2338 142.425Z" fill="black"/>
<path d="M22.0505 87.083C19.7626 88.1685 17.6886 89.1719 15.7134 90.1094C13.0633 88.4482 13.0633 88.4482 10.7095 81.8196C11.9934 80.8492 12.9974 80.915 13.7217 82.5434C14.3472 83.9579 14.9562 85.3888 15.5488 86.754C17.2935 86.754 17.8696 86.277 17.5404 84.5993C16.8656 81.1782 17.6227 79.8952 20.5197 78.8097C23.6307 77.6419 25.6553 78.2011 27.219 80.9972C28.1408 82.6585 29.7704 84.402 27.9762 86.9678C27.3342 86.1126 26.824 85.5698 26.4783 84.9448C25.9022 83.9085 25.5236 82.7736 24.9146 81.7867C23.9599 80.2406 22.462 80.3393 21.0794 80.9972C19.4663 81.7867 19.8284 83.0697 20.5527 84.3197C20.9806 85.1092 21.4086 85.8987 22.0505 87.083Z" fill="black"/>
<path d="M26.5226 133.922C26.572 131.981 27.8065 130.961 29.9298 131.126C31.4771 131.241 32.2836 132.063 32.2178 133.675C32.152 135.682 30.9504 136.998 29.1562 137.031C27.4279 137.047 26.4732 135.912 26.5226 133.922Z" fill="black"/>
<path d="M31.0821 144.35C29.3209 146.653 27.4938 147.179 25.5021 145.781C24.8766 145.337 24.284 144.235 24.4157 143.577C24.5474 142.903 25.5186 142.014 26.2099 141.916C28.3333 141.587 30.0122 142.491 31.0821 144.35Z" fill="black"/>
<path d="M35.5428 128.938C35.6745 127.26 37.2382 125.78 38.7526 125.862C40.1023 125.928 40.9912 126.57 40.9747 128.05C40.9582 129.826 39.6744 131.027 37.9131 130.863C36.6621 130.747 35.6251 130.303 35.5428 128.938Z" fill="black"/>
<path d="M84.0345 98.4602C86.5035 99.003 89.0713 99.809 90.5198 96.5523C89.6803 96.2233 88.9561 96.0588 88.3306 95.6805C86.3224 94.5127 85.6805 92.9666 86.3554 91.1903C87.1125 89.1836 89.7955 87.4401 91.5568 87.7855C92.8736 88.0487 93.2193 89.0356 93.104 90.1376C92.9559 91.5357 92.6102 92.9008 92.3633 94.2496C96.5113 96.174 97.647 95.5983 100.281 90.154C101.301 91.7659 100.643 93.1311 100.034 94.2167C98.9803 96.0753 98.4536 97.9833 98.1573 100.089C97.8116 102.523 95.9187 103.674 93.5649 103.148C91.0465 102.572 88.5446 101.849 86.092 100.993C85.2525 100.697 84.6106 99.8419 83.8699 99.2333C83.9357 98.9701 83.9851 98.707 84.0345 98.4602ZM91.1946 100.648C92.709 100.681 94.0752 100.878 95.3755 100.664C95.8693 100.582 96.5442 99.5294 96.5113 98.9701C96.4784 98.4109 95.7212 97.6543 95.1122 97.4569C93.2193 96.8155 92.4621 97.424 91.1946 100.648Z" fill="black"/>
<path d="M93.104 80.9595C92.709 80.2851 92.2152 79.6436 91.9683 78.9199C91.4086 77.2916 92.1164 76.1238 93.5484 75.3507C95.0957 74.5283 96.4454 75.1205 97.3836 76.3212C98.075 77.2093 98.3713 78.4265 98.9474 79.7588C103.655 80.9101 107.951 79.0844 113.087 76.8639C112.346 78.1962 112.181 79.0022 111.72 79.2653C108.083 81.2555 104.182 82.2589 100.001 81.8148C97.6635 81.568 95.3426 81.2062 93.0217 80.9101L93.104 80.9595Z" fill="black"/>
<path d="M100.807 64.9393C98.7334 64.6597 97.1038 64.4458 95.0957 64.1827C96.0669 61.9951 96.9557 60.0378 97.9268 57.8502C100.33 59.7088 100.988 61.88 100.807 64.9393Z" fill="black"/>
<path d="M61.6486 85.9762C60.7269 84.2491 59.8051 82.5221 58.8998 80.828C61.0396 79.1996 61.0396 79.1996 63.772 80.7786C63.4099 82.3905 63.0313 84.0847 62.6362 85.7788C62.307 85.8282 61.9778 85.9104 61.6486 85.9762Z" fill="black"/>
<path d="M74.7674 79.3148C73.2037 81.5353 71.6564 83.7393 70.0434 86.0256C69.0393 83.3281 70.3232 81.2557 74.7674 79.3148Z" fill="black"/>
<path d="M91.853 70.3507C93.5649 69.6763 95.2932 69.1664 97.038 70.2355C97.0544 70.548 97.0709 70.877 97.0874 71.1895C95.359 71.3046 93.6307 71.4033 91.9024 71.5185C91.8859 71.1237 91.8695 70.7454 91.853 70.3507Z" fill="black"/>
<path d="M76.9401 86.1078C76.9401 86.5684 76.5615 86.9467 76.1171 86.9467C75.6562 86.9467 75.2776 86.5684 75.2776 86.1078C75.2776 85.6473 75.6562 85.2854 76.1171 85.2854C76.5779 85.269 76.9401 85.6473 76.9401 86.1078Z" fill="white"/>
<path d="M94.4703 77.9825C94.4703 78.4431 94.0918 78.8214 93.6309 78.8214C93.17 78.8214 92.8079 78.4431 92.8079 77.9825C92.8079 77.522 93.1864 77.1437 93.6309 77.1437C94.0918 77.1437 94.4703 77.522 94.4703 77.9825Z" fill="white"/>
<path d="M88.1661 91.9303C88.3636 91.3382 88.7915 90.8118 89.3347 90.4829C89.7627 90.2197 90.2565 90.0881 90.7503 90.0881L91.1618 90.121L91.2276 89.7098C91.0795 89.6934 90.9149 89.6769 90.7668 89.6769C90.1907 89.6769 89.6146 89.8414 89.1372 90.1375C88.5117 90.5158 88.0344 91.1243 87.7875 91.8151L88.1661 91.9303Z" fill="#F6F6F6"/>
</svg>
