<?xml version="1.0" encoding="utf-8"?>
<!-- Generator: Adobe Illustrator 19.0.0, SVG Export Plug-In . SVG Version: 6.00 Build 0)  -->
<svg version="1.1" xmlns="http://www.w3.org/2000/svg" xmlns:xlink="http://www.w3.org/1999/xlink" x="0px" y="0px"
	 viewBox="-465 40 409 122" style="enable-background:new -465 40 409 122;" xml:space="preserve">
<style type="text/css">
	.st0{fill:none;}
	.st1{fill:none;stroke:#FFFFFF;stroke-width:2;stroke-linecap:round;stroke-linejoin:round;}
	.st2{fill:#FFFFFF;}
</style>
<g id="Warstwa_2">
</g>
<g id="Warstwa_1">
	<rect x="-247" y="40" class="st0" width="191" height="122"/>
	<line class="st1" x1="-256" y1="70" x2="-256" y2="132"/>
	<g>
		<g>
			<path class="st2" d="M-443.4,100c3.3,0,4.8-1.1,4.8-3.9c0-2.8-1.5-3.9-4.8-3.9H-457v7.9H-443.4z M-462.8,87.3h20.4
				c5.9,0,9.6,3.9,9.6,8.7c0,5.8-4.1,8.7-9.6,8.7H-457v11.1h-5.8V87.3z"/>
			<path class="st2" d="M-429.9,114.9v-4.7c3.4,1.3,6.4,1.7,10,1.7c5,0,7.2-0.6,7.2-2.2c0-4.4-18.1,0.6-18.1-8.2
				c0-4.6,4.8-6.8,12-6.8c2.5,0,6.6,0.5,10.2,1.1v4.5c-2.9-0.6-6.5-1.1-9.6-1.1c-4.8,0-6.9,0.8-6.9,2.2c0,3.9,18.2-0.6,18.2,8.3
				c0,4.7-4.8,6.7-12,6.7C-422.1,116.6-426.5,115.9-429.9,114.9z"/>
			<path class="st2" d="M-404,95.5h5.8v20.4h-5.8V95.5z M-404.7,88.7c0-2.2,1.4-3.3,3.6-3.3c2.2,0,3.6,1.1,3.6,3.3
				c0,2.2-1.4,3.3-3.6,3.3C-403.3,92-404.7,90.9-404.7,88.7z"/>
			<path class="st2" d="M-371.2,111c3,0,4.8-1.1,4.8-3.9c0-2.6-1.7-3.7-4.8-3.7h-14.9l0,7.5L-371.2,111L-371.2,111z M-391.8,87.3
				h21.2c5.9,0,9.2,3.2,9.2,7.5c0,4.2-3.1,6.2-7.9,6.5c5.3,0.1,8.8,2.5,8.8,6.9c0,4.6-3.7,7.6-9.2,7.6h-22.1V87.3L-391.8,87.3z
				 M-372,99.4c3,0,4.8-1,4.8-3.5c0-2.6-1.7-3.7-4.8-3.7h-14l0,7.2H-372z"/>
			<path class="st2" d="M-332.6,115.9h-6.3l0.8-8.4h-0.3c-0.8,5.4-3.9,9.1-10,9.1c-5.8,0-8.5-3.3-8.5-12.2v-8.8h5.8v8.2
				c0,6.1,1.7,8.5,5.6,8.5c4.4,0,7.2-4.4,7.2-11v-5.6h5.8L-332.6,115.9C-332.6,115.9-332.6,115.9-332.6,115.9z"/>
			<path class="st2" d="M-325.9,99.7h-2.7v-4.2h2.7v-0.8c0-5.2,1.7-7.7,6.6-7.7c1.4,0,2.7,0.3,4.7,0.6v3.2c-0.5,0-1,0-1.4,0
				c-3.9,0-4.1,0.9-4.1,4.7h5.5v3.8h-5.5v16.6h-5.8V99.7L-325.9,99.7z"/>
			<path class="st2" d="M-294.1,104.3c-0.2-3.7-2.4-5-6.8-5c-4.3,0-6.5,1.5-6.9,5.3L-294.1,104.3z M-313.2,105.7
				c0-6.5,4.9-10.8,12.3-10.8c7.3,0,12.1,3.7,12.3,9.3v3.3h-19c0.6,3.3,3.4,4.7,8.8,4.7c5,0,7-1.3,9.4-2.2v4.7
				c-3.9,1.5-6.2,2-11.4,2C-308.2,116.6-313.2,112.2-313.2,105.7z"/>
			<path class="st2" d="M-283.7,108.6v-8.8h-2.9v-4.2h3.8v-4.9l5-0.8v5.7h5.9v4.2h-5.9v7.6c0,4.1,0,5.2,3.7,5.2c0.6,0,1.3,0,2.2-0.1
				v3.1c-1.7,0.6-3.3,0.8-5.5,0.8C-282.9,116.3-283.7,114.4-283.7,108.6z"/>
		</g>
	</g>
</g>
</svg>
