<?xml version="1.0" encoding="utf-8"?>
<!-- Generator: Adobe Illustrator 24.2.1, SVG Export Plug-In . SVG Version: 6.00 Build 0)  -->
<svg version="1.1" id="Layer_1" xmlns="http://www.w3.org/2000/svg" xmlns:xlink="http://www.w3.org/1999/xlink" x="0px" y="0px"
	 viewBox="0 0 450.7 73.5" style="enable-background:new 0 0 450.7 73.5;" xml:space="preserve">
<style type="text/css">
	.st0{fill:#FFFFFF;}
</style>
<g>
	<g>
		<path class="st0" d="M45.8,34.4c7.9,0,11.4-2.7,11.4-9.3c0-6.5-3.5-9.3-11.4-9.3H13.6v18.6H45.8z M0,4.5h48.2
			c14,0,22.6,9.3,22.6,20.6c0,13.7-9.6,20.5-22.6,20.5H13.7v26.3H0V4.5z"/>
		<path class="st0" d="M77.7,69.7v-11c8.1,3.1,15.1,4.1,23.6,4.1c11.9,0,17-1.3,17-5.3c0-10.3-42.8,1.5-42.8-19.4
			c0-10.8,11.4-16,28.3-16c5.8,0,15.7,1.1,24.1,2.7v10.6c-6.8-1.4-15.4-2.5-22.6-2.5C94,33,89,34.7,89,38c0,9.3,42.9-1.4,42.9,19.6
			c0,11.2-11.4,15.9-28.3,15.9C96.1,73.5,85.7,72,77.7,69.7z"/>
		<path class="st0" d="M139,23.8h13.7V72H139V23.8z M137.2,7.7c0-5.2,3.3-7.7,8.4-7.7c5.2,0,8.6,2.5,8.6,7.7c0,5.3-3.3,7.8-8.6,7.8
			C140.5,15.5,137.2,13,137.2,7.7z"/>
		<path class="st0" d="M216.5,60.3c7.2,0,11.4-2.7,11.4-9.1c0-6.1-4.1-8.8-11.4-8.8h-35.2l0.1,17.8h35.1V60.3z M167.7,4.5h50.1
			c14,0,21.7,7.5,21.7,17.8c0,9.9-7.3,14.6-18.7,15.3c12.6,0.3,20.9,5.9,20.9,16.4c0,10.8-8.7,17.9-21.8,17.9h-52.2L167.7,4.5
			L167.7,4.5z M214.4,32.9c7.2,0,11.4-2.4,11.4-8.3c0-6.1-4.1-8.7-11.4-8.7h-33.1l0.1,17H214.4z"/>
		<path class="st0" d="M307.5,71.9h-15l1.9-19.8h-0.8c-2,12.8-9.2,21.5-23.7,21.4c-13.6-0.1-20-7.8-20-28.8V23.8h13.7v19.3
			c0,14.5,3.9,20.1,13.2,20.1c10.4,0,17.1-10.3,17.1-26.1V23.8h13.7v48.1H307.5z"/>
		<path class="st0" d="M323.4,33.7h-6.3v-9.9h6.3v-1.9c0-12.4,3.9-18.2,15.6-18.2c3.3,0,6.4,0.6,11.2,1.5v7.5
			c-1.2,0-2.3-0.1-3.3-0.1c-9.1,0-9.8,2.1-9.8,11.2h13.1v9h-13.1V72h-13.7L323.4,33.7L323.4,33.7z"/>
		<path class="st0" d="M398.5,44.6c-0.4-8.7-5.6-11.8-16-11.8c-10.1,0-15.3,3.5-16.2,12.6L398.5,44.6z M353.5,47.9
			c0-15.4,11.6-25.6,29-25.6c17.2,0,28.7,8.8,29,21.9V52h-44.9c1.5,7.9,8,11.1,20.7,11.1c11.8,0,16.6-3,22.1-5.3v11
			c-9.3,3.6-14.7,4.7-26.9,4.7C365.1,73.5,353.5,63.3,353.5,47.9z"/>
		<path class="st0" d="M423.1,54.6V33.7h-6.9v-9.9h8.9V12.2l11.8-1.9v13.5h13.9v9.9h-13.9v18c0,9.8,0,12.2,8.8,12.2
			c1.4,0,3.1-0.1,5.1-0.2V71c-4,1.3-7.9,1.9-13.1,1.9C425,72.9,423.1,68.4,423.1,54.6z"/>
	</g>
</g>
</svg>
