<svg width="207" height="167" viewBox="0 0 207 167" fill="none" xmlns="http://www.w3.org/2000/svg">
<path d="M60.3325 46.8924C60.5088 44.7741 60.685 42.6557 60.8612 40.5374C60.8809 40.2842 60.9069 40.0001 61.0709 39.7957C61.6001 39.158 62.5739 39.9618 62.9723 40.6865C64.8503 44.0483 66.8012 47.6823 66.4147 51.5197C66.3528 52.1051 66.1013 52.7997 65.5315 52.8503C65.2447 52.8687 64.9823 52.7057 64.7334 52.539C62.1685 50.8051 59.9443 48.6008 58.1689 46.0573" fill="white"/>
<path d="M133.139 57.2252C133.819 56.0074 134.192 54.624 134.183 53.2264C134.188 52.9188 134.172 52.5875 134.352 52.335C134.756 51.7746 135.637 52.1221 136.207 52.5089C137.974 53.7128 139.775 54.9367 141.125 56.6022C142.476 58.2676 143.322 60.4473 142.91 62.556C142.803 63.0806 142.512 63.6836 141.966 63.7133C141.666 63.7354 141.382 63.5488 141.147 63.3785C138.38 61.4361 135.737 59.3003 133.255 57.0045" fill="white"/>
<path d="M66.5763 139.542C61.6127 132.339 65.6834 121.404 60.3653 114.457C58.1639 111.575 54.7261 109.959 51.4201 108.453C54.3179 104.788 56.6026 100.632 58.1655 96.2313C59.363 98.9587 62.8238 100.117 65.7561 99.521C68.6748 98.9285 71.1337 97.0008 73.3174 94.9717C75.9888 92.4765 78.6104 89.2508 78.2485 85.614C78.0298 83.3827 76.6924 81.2762 77.0173 79.0597C77.2388 77.6002 78.1612 76.3612 79.0573 75.1877C82.0229 71.2864 84.9984 67.3679 87.964 63.4666C89.6257 61.2857 91.4461 58.9894 94.0533 58.1595C99.8392 56.3467 105.101 62.594 111.148 63.1176C112.493 63.2385 113.861 63.0617 115.158 63.3851C118.583 64.2467 120.266 68.0254 122.95 70.3109C126.33 73.1827 131.643 73.9032 133.701 77.8293C134.259 78.8759 134.508 80.0781 135.079 81.121C137.73 85.953 145.619 85.458 148.548 90.1282C151.224 94.3993 148.013 99.9416 144.367 103.427C135.319 112.065 123.267 116.782 111.321 120.537C99.376 124.292 87.0776 127.383 76.1987 133.594" fill="white"/>
<path d="M77.2455 90.798C78.0761 90.1962 78.9402 89.5563 79.3484 88.6302C80.1973 86.6817 78.7573 84.5734 78.1794 82.5259C77.2463 79.2609 78.809 75.4584 81.7745 73.7887C82.0012 73.655 82.276 73.5376 82.5229 73.5882C82.7871 73.6487 82.9788 73.8744 83.1533 74.0902C87.5758 79.5998 92.0375 85.201 94.853 91.6808C95.966 94.2558 96.8153 97.2078 95.8238 99.8217C95.1625 101.545 93.7911 102.904 92.3441 104.036C86.4581 108.632 77.525 110.457 71.5072 104.981C64.6326 98.7573 72.0727 94.5177 77.2455 90.798Z" fill="#BCBCBB"/>
<path d="M67.0062 102.934L104.077 96.9831L132.581 87.8576L146.249 81.6576L167.698 106.729L170.723 118.564L157.557 128.596L112.603 145.295L71.401 153.52L54.2038 150.412L57.445 109.872L61.2413 110.867L63.1775 118.093L64.0918 102.563L67.0062 102.934Z" fill="#EB584A"/>
<path d="M146.249 81.6575C148.521 81.5886 150.048 82.8273 151.284 84.5528C154.822 89.4826 158.309 94.4407 161.884 99.346C163.727 101.871 165.709 104.315 167.702 106.742C169.896 109.436 171.294 112.474 171.618 115.917C171.705 116.784 171.241 117.827 170.727 118.577C168.526 121.792 165.422 123.98 162.134 125.97C150.216 133.203 137.306 138.15 124.079 142.292C119.476 143.73 114.725 144.726 110.051 145.949C102.65 147.888 95.231 149.701 87.8892 151.858C80.9284 153.913 73.8447 153.332 66.7719 153.608C62.2673 153.779 58.1604 152.604 54.2037 150.412C52.6445 149.546 52.1543 148.642 52.185 147.015C52.264 140.941 52.9011 134.936 53.7878 128.937C54.4188 124.597 54.8682 120.232 55.4102 115.887C55.4947 115.222 55.4548 114.474 55.7255 113.906C55.9699 113.403 56.618 112.719 57.0491 112.749C57.5382 112.778 58.3222 113.473 58.3709 113.926C58.4903 115.134 58.4056 116.397 58.1902 117.607C56.8948 124.911 56.4209 132.287 56.2174 139.692C56.214 139.897 56.3712 140.103 56.5669 140.561C62.0196 141.696 67.5943 140.129 73.1658 140.401C78.8534 140.671 84.3725 139.659 89.8778 138.432C95.3286 137.219 100.76 135.881 106.438 135.133C105.974 135.417 105.534 135.841 105.026 135.963C97.2632 137.853 89.5319 139.808 81.7239 141.477C79.2416 142.011 76.595 141.714 74.0206 141.85C70.3364 142.035 66.6631 142.26 62.8255 142.472C62.6892 145.338 62.5778 147.862 62.4529 150.389C62.0316 147.892 61.6275 145.404 61.1842 142.824C60.1896 142.814 59.4263 142.741 58.6686 142.798C57.812 142.867 56.9574 143.053 56.1562 143.165C55.5451 147.471 55.8081 148.071 59.2983 149.557C60.2862 149.978 61.4288 150.051 62.4954 150.276C63.9596 150.569 65.4274 150.876 67.4607 151.279C66.9868 148.912 66.6436 147.195 66.3039 145.492C66.45 145.439 66.586 145.402 66.7321 145.349C67.2868 147.038 67.8451 148.74 68.4581 150.647C72.3264 151.04 76.2317 150.592 80.0532 149.83C86.7798 148.48 93.4726 146.949 100.125 145.269C105.138 143.999 110.055 142.375 115.002 140.859C120.704 139.113 126.466 137.54 132.064 135.515C139.774 132.719 147.487 129.822 154.976 126.473C158.832 124.754 162.283 122.065 165.81 119.661C167.155 118.747 169.183 117.387 169.18 116.235C169.171 114.021 168.35 111.557 167.135 109.636C164.506 105.484 161.389 101.637 158.56 97.6112C156.043 94.0414 153.63 90.3707 151.123 86.7836C150.251 85.5441 149.234 84.4164 147.514 85.5628L147.597 85.599C148.184 83.9249 146.81 82.8784 146.313 81.5676L146.249 81.6575Z" fill="black"/>
<path d="M65.7162 101.005C62.7699 100.569 59.1786 92.6636 58.5759 90.3601C58.2374 90.3488 57.4975 87.805 57.1753 87.7455C56.8666 87.6823 56.9784 90.059 56.696 89.9304C56.6306 89.9042 56.5616 89.8643 56.4962 89.8381C56.4836 89.8998 56.4537 89.9516 56.4411 90.0133C56.6852 91.5231 57.1886 98.8996 56.3363 100.236C54.7484 102.748 53.2332 105.312 51.5069 108.123C53.8318 108.798 55.6746 109.252 57.4586 109.868C60.2122 110.837 62.03 112.45 61.9868 115.772C61.958 117.516 62.0911 119.537 63.7065 121.102C65.2116 119.153 64.9271 117.274 64.3595 115.428C63.5068 112.681 63.3782 109.916 63.8431 107.078C64.162 105.111 64.6518 103.346 67.0162 102.917C67.4354 102.849 67.7906 102.432 67.9666 102.327C67.3123 101.627 67.2022 101.38 67.027 101.324C66.594 101.178 66.1546 101.062 65.7162 101.005ZM61.5746 109.553C59.0144 108.707 56.506 107.892 53.5955 106.936C55.3908 104.165 56.9733 101.743 58.8158 98.9303C60.1974 100.004 61.5445 101.058 62.9815 102.175C62.5107 104.664 62.0553 107.047 61.5746 109.553Z" fill="black"/>
<path d="M145.541 79.7763C145.309 79.7802 145.083 79.7533 144.854 79.7708C144.691 79.8145 144.527 79.8583 144.368 79.9156C143.72 80.2204 143.093 80.5488 142.456 80.8363C141.864 81.622 141.127 82.3008 140.278 82.8345C133.332 87.1753 125.658 89.6692 117.78 91.6778C116.375 92.0398 114.992 92.5415 113.594 92.9307C111.217 93.5824 108.84 94.2922 106.422 94.7942C103.227 95.446 99.9298 95.6586 96.8 96.4973C89.4924 98.4553 82.1325 99.9461 74.5838 100.569C72.8706 100.707 70.9397 100.903 69.0249 102.466C70.116 102.728 70.7262 103.046 71.2924 102.982C75.9854 102.425 80.7267 102.102 85.3411 101.143C96.3608 98.8319 107.329 96.2723 118.283 93.7164C121.234 93.0277 124.13 92.0768 127.008 91.1159C133.835 88.8345 140.265 85.7258 146.218 81.6513C145.869 81.001 145.664 80.3996 145.541 79.7763Z" fill="black"/>
<path d="M104.53 117.398C102.391 115.622 101.023 114.326 99.4808 113.252C98.0285 112.241 96.48 111.197 94.8204 110.665C92.8104 110.022 91.7945 111.184 92.3624 113.249C93.1526 116.144 94.5859 118.662 97.1806 120.344C99.2504 121.7 101.364 123.001 103.434 124.357C104.107 124.803 104.715 125.384 105.349 125.9C105.247 126.117 105.148 126.348 105.06 126.561C104.395 126.477 103.604 126.572 103.083 126.259C100.77 124.866 98.5065 123.387 96.2767 121.87C93.2278 119.799 91.7393 116.639 90.6509 113.284C89.5915 110.039 91.629 107.844 94.9461 108.793C96.6356 109.274 98.1868 110.273 99.7261 111.173C100.748 111.775 101.62 112.635 102.787 113.562C104.195 110.107 106.214 107.626 109.149 105.95C113.045 103.725 115.627 104.871 116.328 109.394C116.838 112.656 116.576 115.978 115.216 119.012C113.793 122.194 112.088 125.247 110.396 128.296C110.111 128.81 109.298 129.042 108.723 129.401C108.546 129.229 108.351 129.048 108.174 128.877C109.439 126.686 110.691 124.498 111.977 122.33C113.858 119.172 115.094 115.836 114.97 112.106C114.896 110.201 115.002 108.145 113.019 107.057C111.632 106.291 108.376 107.529 107.109 109.443C106.206 110.808 105.732 112.467 105.177 114.045C104.876 114.825 104.833 115.698 104.53 117.398Z" fill="white"/>
<path d="M118.377 130.212C119.748 128.416 121.896 127.723 123.889 126.941C126.605 125.864 129.385 124.973 132.166 124.082C141.126 121.214 149.201 116.571 157.157 111.697C159.224 110.429 161.115 108.887 163.344 107.298C163.855 108.823 163.196 109.467 162.492 109.889C156.075 113.81 149.817 118.054 143.125 121.437C137.446 124.301 131.243 126.138 125.281 128.435C123.115 129.278 120.935 130.125 118.769 130.968C118.642 130.71 118.518 130.466 118.377 130.212Z" fill="black"/>
<path d="M164.464 60.5291C166.525 57.3367 176.256 54.7877 184.207 54.9034C187.458 54.9513 187.75 55.0626 189.26 57.05C180.536 55.9015 172.457 57.7017 164.464 60.5291Z" fill="#EB584A"/>
<path d="M158.238 48.3996C158.393 47.2351 158.314 46.8332 158.478 46.6288C162.908 41.0079 167.377 35.4205 173.011 30.9207C174.165 29.9992 174.909 29.9456 175.186 31.1986C173.642 32.2395 172.122 32.8802 171.122 33.994C167.416 38.1811 163.901 42.5359 160.289 46.8C159.9 47.2542 159.338 47.5507 158.238 48.3996Z" fill="#EB584A"/>
<path d="M165.239 77.1382C165.971 75.1916 167.112 75.7465 167.854 76.1749C170.373 77.6293 172.97 79.0483 175.236 80.8624C178.097 83.1586 180.468 85.9653 182.054 89.4346C177.292 84.293 172.425 79.3547 165.239 77.1382Z" fill="#EB584A"/>
<path d="M15.0835 78.6047C15.6822 78.4443 16.3451 78.0333 16.8498 78.1752C19.5279 78.9161 22.253 79.6152 24.8307 80.6894C28.0004 82.0132 31.0289 83.6812 34.3232 85.3072C33.7294 86.5747 32.5078 86.4791 31.4038 86.0603C29.9421 85.5039 28.492 84.8277 27.2059 83.9472C23.5375 81.4151 19.5462 79.8009 15.0835 78.6047Z" fill="#EB584A"/>
<path d="M32.0338 101.366C29.3065 101.149 26.5571 100.631 23.8565 100.786C21.2449 100.946 18.655 101.786 15.6447 102.418C16.1457 101.729 16.3746 101.114 16.818 100.864C20.0883 99.0247 23.65 98.8726 27.2614 99.2321C28.9387 99.3953 30.5973 99.8697 32.2638 100.211C32.1953 100.608 32.1232 100.992 32.0338 101.366Z" fill="#EB584A"/>
<path d="M30.3619 121.636C30.6748 120.735 30.8806 119.761 31.3279 118.926C32.7595 116.268 34.2219 113.615 35.7779 111.039C36.6256 109.631 37.7961 108.719 39.6895 109.743C35.7397 113.237 33.7678 117.908 30.9967 121.991C30.786 121.857 30.569 121.755 30.3619 121.636Z" fill="#EB584A"/>
<path d="M150.639 89.495C148.257 91.1104 145.871 92.7123 143.229 94.4996C144.786 91.9822 147.251 90.2423 150.639 89.495Z" fill="black"/>
<path d="M147.514 85.5629C145.695 87.1005 143.917 88.6853 141.782 89.7533C141.648 89.5266 141.505 89.3171 141.371 89.0904C143.436 87.9245 145.515 86.755 147.597 85.5991L147.514 85.5629Z" fill="black"/>
<path d="M66.14 104.056C68.7309 101.043 71.3532 98.4734 76.3037 100.02C76.9968 97.5446 77.0184 97.4076 75.0979 97.2075C73.4306 97.0271 71.6892 97.1145 69.7889 97.0986C70.4587 94.8626 72.303 93.5808 74.6261 92.725C76.8712 91.9047 79.2018 91.2948 81.4787 90.5388C82.3487 90.2474 83.1821 89.8198 84.227 89.3648C83.0372 88.5168 82.0882 87.9689 81.3078 87.2883C79.4628 85.6825 79.4965 85.0463 81.5289 83.1599C82.565 82.1821 83.6737 81.2579 84.748 80.3137C84.5818 80.1832 84.4119 80.0391 84.2457 79.9087C82.4883 81.0796 80.731 82.2506 78.7171 83.607C78.1851 80.4241 82.4877 79.8255 83.8041 77.2266C81.6376 78.4489 79.9988 79.3547 78.2014 80.376C77.5315 76.5154 79.3927 73.3913 82.2925 70.6599C83.8635 69.1743 86.6667 68.4231 87.9118 66.8644C89.1532 65.292 89.0553 63.1305 89.7346 61.2566C90.8218 58.2378 94.0686 58.0534 96.4018 58.8138C97.7936 59.2722 98.9263 60.1793 100.088 60.9765C100.679 61.3869 101.082 61.9645 101.569 62.4757C102.366 62.2914 103 62.209 103.591 62.0213C106.185 61.1951 108.43 61.4102 110.552 62.5775C115.149 65.0939 118.867 68.1378 120.047 72.8681C120.234 73.6202 120.683 74.3166 121.112 74.9894C121.234 75.1753 121.716 75.1775 122.221 75.3193C122.686 74.5529 123.108 73.8418 123.69 72.8546C126.839 73.9943 130.141 74.8307 131.559 77.4553C133.054 80.2051 131.668 83.1434 129.94 86.0567C130.487 86.027 130.905 86.1191 131.176 85.9881C133.716 84.7971 136.069 84.4876 138.366 84.7326C139.202 84.2606 140.077 83.8802 140.974 83.5815C138.878 83.1075 136.601 82.828 134.216 82.8545C134.088 79.9279 134.808 76.5702 131.93 74.5409C129.353 72.7081 126.66 70.6586 122.067 71.4808C120.073 66.4874 116.393 62.879 110.996 60.5333C109.987 60.0889 108.596 59.4698 107.647 59.7387C103.757 60.8977 101.322 59.5956 98.9297 57.7426C98.2267 57.1872 97.0502 56.9336 96.0019 56.7769C91.4218 56.1226 89.2878 57.2487 87.6744 61.0794C87.3459 61.8675 86.9766 62.6665 86.8124 63.4689C86.5345 64.8269 85.5924 65.5023 84.1468 66.3126C79.0174 69.1601 75.5471 72.9195 75.0231 77.9314C74.6472 81.5909 74.7314 85.1708 76.5413 88.5509C75.2289 89.1506 74.0297 89.574 73.015 90.1959C69.413 92.43 65.8665 94.7075 66.3633 98.8478C66.4468 99.5402 65.9496 100.461 65.4141 101.13C64.6511 102.092 64.0007 103.04 63.6615 104.006C64.4756 104.05 65.3096 104.06 66.14 104.056Z" fill="black"/>
<path d="M70.5891 43.094C70.2349 43.5682 69.8915 44.0832 69.5237 44.5609C67.6461 46.9163 66.756 49.2551 68.4903 52.4075C69.6008 54.429 69.984 56.8933 70.5149 59.2014C70.8324 60.604 70.7925 62.0878 68.8932 62.9468C68.4819 62.0652 68.0219 61.3279 67.7759 60.5187C67.3595 59.128 67.1064 57.6936 66.7308 56.2919C65.2429 50.5211 63.2397 49.4681 57.9187 51.4918C56.7268 51.9424 55.4138 52.1046 54.1682 52.4092C54.0435 52.1072 53.9188 51.8051 53.7805 51.5067C54.3598 51.0015 54.8581 50.3575 55.5084 50.0082C59.2775 47.9627 60.6602 44.6314 59.3971 40.2443C58.5588 37.3331 57.5707 34.4621 58.1495 31.2878C60.3178 30.7798 60.8917 32.595 61.3071 33.9276C61.892 35.7837 62.0115 37.8081 62.2833 39.7481C62.8253 43.7304 64.7904 44.7499 67.8477 42.443C69.0491 41.5377 69.7732 41.5187 70.5891 43.094ZM65.1139 48.9513C65.8303 45.4193 65.3969 45.0541 61.1502 45.3169C61.0805 46.2545 61.0181 47.2192 60.9405 48.2902C62.4209 48.5352 63.6544 48.7298 65.1139 48.9513Z" fill="black"/>
<path d="M134.605 42.1743C134.999 43.644 135.433 45.1028 135.773 46.587C136.094 48.0033 136.194 49.4642 136.606 50.8413C137.58 54.0953 139.865 55.4375 143.253 55.0696C144.088 54.9769 144.996 55.317 146.768 55.6153C142.313 59.1281 142.854 62.6731 144.768 66.5503C145.504 68.045 145.814 69.7998 146.102 71.4729C146.349 72.9382 146.03 74.3071 144.094 75.0299C143.576 73.0976 143.11 71.3557 142.647 69.6275C142.271 68.2259 142.014 66.7778 141.469 65.4508C139.995 61.9078 137.252 60.6007 133.75 61.6267C132.696 61.9384 131.627 62.1956 130.144 62.593C131.214 60.2204 132.059 58.2002 133.041 56.2597C134.225 53.9296 134.458 51.6942 133.385 49.1082C132.712 47.4655 132.577 45.5472 132.431 43.7487C132.391 43.2197 133.136 42.6262 133.527 42.0694C133.873 42.1081 134.232 42.143 134.605 42.1743ZM141.206 60.3872C140.965 56.4408 137.843 56.4899 135.786 54.6928C135.215 56.3188 134.789 57.5563 134.368 58.7628C136.718 59.3145 138.636 59.7778 141.206 60.3872Z" fill="black"/>
<path d="M93.5855 75.2474C93.0857 73.1644 93.8877 71.4764 95.1416 71.2571C96.4944 71.0259 97.3484 71.818 97.6739 73.0872C98.077 74.7003 97.1096 75.4991 95.7943 75.9245C94.6658 76.2852 93.8531 75.9196 93.5855 75.2474Z" fill="black"/>
<path d="M85.6287 91.2208C86.7707 90.0397 87.1039 87.9085 89.1684 89.3535C90.2265 90.0909 90.345 92.0573 89.4175 92.7871C87.7846 94.0414 86.7226 93.0717 85.6287 91.2208Z" fill="black"/>
<path d="M112.207 82.8009C112.519 80.8068 113.347 80.0308 114.796 80.4882C115.257 80.6274 115.893 81.8572 115.724 82.2086C115.028 83.6932 113.781 83.2836 112.207 82.8009Z" fill="black"/>
</svg>
