<svg width="47" height="20" viewBox="0 0 47 20" fill="none" xmlns="http://www.w3.org/2000/svg">
<path d="M8.58779 2.5785C8.03694 3.25404 7.15559 3.78687 6.27424 3.71075C6.16407 2.79734 6.59557 1.82683 7.10051 1.2274C7.65135 0.532826 8.61533 0.038059 9.39569 0C9.4875 0.951475 9.12945 1.88392 8.58779 2.5785ZM9.38651 3.89153C8.11039 3.81541 7.01788 4.6432 6.41195 4.6432C5.79684 4.6432 4.86959 3.92959 3.85971 3.94862C2.54686 3.96765 1.32582 4.73834 0.655628 5.96575C-0.721483 8.42055 0.29758 12.0552 1.62879 14.0533C2.28062 15.0428 3.06098 16.1275 4.08922 16.0894C5.06238 16.0514 5.44797 15.4329 6.62311 15.4329C7.80742 15.4329 8.14711 16.0894 9.17535 16.0704C10.2403 16.0514 10.9105 15.0809 11.5623 14.0913C12.306 12.9686 12.609 11.8744 12.6273 11.8173C12.609 11.7983 10.5708 10.9895 10.5525 8.55376C10.5341 6.5176 12.1591 5.5471 12.2325 5.49001C11.3145 4.08183 9.88227 3.92959 9.38651 3.89153ZM16.7586 1.13225V15.9657H18.9804V10.8944H22.0559C24.8652 10.8944 26.8391 8.89629 26.8391 6.00381C26.8391 3.11132 24.902 1.13225 22.1294 1.13225H16.7586ZM18.9804 3.07326H21.5418C23.4698 3.07326 24.5715 4.13892 24.5715 6.01332C24.5715 7.88773 23.4698 8.96289 21.5326 8.96289H18.9804V3.07326ZM30.897 16.0799C32.2925 16.0799 33.5869 15.3473 34.1745 14.1865H34.2204V15.9657H36.2769V8.5823C36.2769 6.44148 34.6244 5.06185 32.0813 5.06185C29.7218 5.06185 27.9775 6.46051 27.9132 8.38249H29.9146C30.0799 7.46908 30.897 6.86965 32.017 6.86965C33.3758 6.86965 34.1378 7.52617 34.1378 8.73454V9.55281L31.3652 9.72407C28.7854 9.88582 27.3899 10.98 27.3899 12.883C27.3899 14.8049 28.8313 16.0799 30.897 16.0799ZM31.4937 14.3197C30.3094 14.3197 29.5566 13.7298 29.5566 12.8259C29.5566 11.8934 30.2819 11.3511 31.6682 11.2655L34.1378 11.1037V11.941C34.1378 13.3302 32.9994 14.3197 31.4937 14.3197ZM39.0219 20C41.1886 20 42.2077 19.1437 43.0982 16.5461L47 5.20457H44.7415L42.125 13.9677H42.0791L39.4626 5.20457H37.1399L40.904 16.0038L40.702 16.6603C40.3623 17.7736 39.8115 18.2017 38.8291 18.2017C38.6547 18.2017 38.315 18.1827 38.1773 18.1637V19.9429C38.3058 19.981 38.8567 20 39.0219 20Z" fill="black"/>
</svg>
