<svg width="39" height="20" viewBox="0 0 39 20" fill="none" xmlns="http://www.w3.org/2000/svg">
<path d="M34.8571 20H3.15528C1.41615 20 0 18.5839 0 16.8447V3.15528C0 1.41615 1.41615 0 3.15528 0H34.8571C36.5963 0 38.0124 1.41615 38.0124 3.15528V16.8447C38.0124 18.5839 36.5963 20 34.8571 20Z" fill="url(#paint0_linear)"/>
<path d="M18.2323 2.99414H15.6484V17.4289H18.2323V2.99414Z" fill="white"/>
<path d="M23.0174 7.86328H20.4336V17.4285H23.0174V7.86328Z" fill="white"/>
<path d="M34.5565 17.4289L30.6931 12.373L34.2583 7.86371H31.2024L27.7987 12.2364V2.99414H25.2148V17.4289H27.7987V12.5221L31.2024 17.4289H34.5565Z" fill="white"/>
<path d="M9.08121 7.76433C8.24891 7.76433 7.45388 7.97551 6.77065 8.34818V2.99414H4.19922V12.6587C4.19922 15.3544 6.38555 17.5531 9.09363 17.5531C11.8017 17.5531 13.988 15.3668 13.988 12.6587C13.988 9.95066 11.7893 7.76433 9.08121 7.76433ZM9.08121 14.9693C7.8017 14.9693 6.77065 13.9382 6.77065 12.6587C6.77065 11.3792 7.8017 10.3482 9.08121 10.3482C10.3607 10.3482 11.3918 11.3792 11.3918 12.6587C11.3918 13.9382 10.3607 14.9693 9.08121 14.9693Z" fill="white"/>
<path d="M11.5989 6.86971C12.8681 6.86971 13.8971 5.8408 13.8971 4.57157C13.8971 3.30235 12.8681 2.27344 11.5989 2.27344C10.3297 2.27344 9.30078 3.30235 9.30078 4.57157C9.30078 5.8408 10.3297 6.86971 11.5989 6.86971Z" fill="url(#paint1_radial)"/>
<defs>
<linearGradient id="paint0_linear" x1="19.0062" y1="20" x2="19.0062" y2="0" gradientUnits="userSpaceOnUse">
<stop stop-color="#5A5A5A"/>
<stop offset="1"/>
</linearGradient>
<radialGradient id="paint1_radial" cx="0" cy="0" r="1" gradientUnits="userSpaceOnUse" gradientTransform="translate(9.72728 2.15335) scale(7.53451)">
<stop stop-color="#FF0000"/>
<stop offset="0.495" stop-color="#E83E49"/>
<stop offset="1" stop-color="#FF00FF"/>
</radialGradient>
</defs>
</svg>
