<svg width="150" height="20" viewBox="0 0 150 20" fill="none" xmlns="http://www.w3.org/2000/svg">
<rect width="150" height="20" rx="2" fill="#FECC00"/>
<path d="M10 14.2646H18.7055L18.1994 14.9732H10V14.2646Z" fill="#D40511"/>
<path d="M81.7167 14.9732H71.0625L71.5939 14.2646H81.7167V14.9732Z" fill="#D40511"/>
<path d="M10 12.9486H19.6925L19.1611 13.6572H10V12.9486H10Z" fill="#D40511"/>
<path d="M10 11.6326H20.6795L20.148 12.3412H10V11.6326Z" fill="#D40511"/>
<path d="M81.7121 13.6572H72.0449L72.5764 12.9486H81.7121V13.6572Z" fill="#D40511"/>
<path d="M73.6291 11.6326H81.7779V12.3412H73.0977L73.6291 11.6326Z" fill="#D40511"/>
<path d="M19.4053 14.9747L24.0111 8.8252C24.0111 8.8252 29.1231 8.8252 29.7304 8.8252C30.3631 8.8252 30.3631 9.05296 30.0341 9.48317C29.7304 9.88808 29.199 10.622 28.87 11.0522C28.7182 11.28 28.4145 11.6596 29.3761 11.6596C30.4137 11.6596 37.0188 11.6596 37.0188 11.6596C36.3861 12.52 34.311 15 30.6162 15C27.63 14.9747 19.4053 14.9747 19.4053 14.9747Z" fill="#D40511"/>
<path d="M45.756 11.6326L43.2507 14.9731H36.6709L39.1763 11.6326H45.756Z" fill="#D40511"/>
<path d="M55.3019 11.6326L52.7966 14.9731H46.2168L48.7222 11.6326H55.3019Z" fill="#D40511"/>
<path d="M57.4283 11.6326C57.4283 11.6326 56.9474 12.2905 56.7197 12.5942C55.8845 13.6824 56.6184 14.9731 59.3263 14.9731C62.439 14.9731 69.9045 14.9731 69.9045 14.9731L72.4099 11.6326H57.4283Z" fill="#D40511"/>
<path d="M22.6203 5L20.3174 8.06212C20.3174 8.06212 32.1863 8.06212 32.8189 8.06212C33.4516 8.06212 33.4516 8.28988 33.1226 8.7201C32.8189 9.125 32.2875 9.8589 31.9585 10.2891C31.8067 10.4916 31.503 10.8965 32.4646 10.8965C33.5022 10.8965 37.5766 10.8965 37.5766 10.8965C37.5766 10.8965 38.4117 9.78298 39.095 8.87194C40.0314 7.6319 39.1709 5.02531 35.8304 5.02531C32.8189 5 22.6203 5 22.6203 5V5Z" fill="#D40511"/>
<path d="M55.8802 10.8712H39.7598L44.1631 5H50.7429L48.2375 8.3658H51.1731L53.7038 5H60.2836L55.8802 10.8712Z" fill="#D40511"/>
<path d="M69.3949 5L64.9915 10.8712H58.0068L62.4102 5H69.3949Z" fill="#D40511"/>
<path d="M93.0996 11.4951V14H91.6348V6.89062H94.4082C94.9421 6.89062 95.4108 6.98828 95.8145 7.18359C96.2214 7.37891 96.5339 7.65723 96.752 8.01855C96.9701 8.37663 97.0791 8.78516 97.0791 9.24414C97.0791 9.94076 96.8398 10.4909 96.3613 10.8945C95.8861 11.2949 95.2269 11.4951 94.3838 11.4951H93.0996ZM93.0996 10.3086H94.4082C94.7956 10.3086 95.0902 10.2174 95.292 10.0352C95.4971 9.85286 95.5996 9.59245 95.5996 9.25391C95.5996 8.9056 95.4971 8.62402 95.292 8.40918C95.0869 8.19434 94.8037 8.08366 94.4424 8.07715H93.0996V10.3086ZM103.93 10.6064C103.93 11.3063 103.806 11.9199 103.559 12.4473C103.311 12.9746 102.956 13.3815 102.494 13.668C102.035 13.9544 101.508 14.0977 100.912 14.0977C100.323 14.0977 99.7972 13.9561 99.335 13.6729C98.8727 13.3896 98.5146 12.986 98.2607 12.4619C98.0068 11.9346 97.8783 11.3291 97.875 10.6455V10.2939C97.875 9.59408 98.0003 8.97884 98.251 8.44824C98.5049 7.91439 98.8613 7.50586 99.3203 7.22266C99.7826 6.9362 100.31 6.79297 100.902 6.79297C101.495 6.79297 102.021 6.9362 102.479 7.22266C102.942 7.50586 103.298 7.91439 103.549 8.44824C103.803 8.97884 103.93 9.59245 103.93 10.2891V10.6064ZM102.445 10.2842C102.445 9.53874 102.312 8.97233 102.045 8.58496C101.778 8.19759 101.397 8.00391 100.902 8.00391C100.411 8.00391 100.032 8.19596 99.7646 8.58008C99.4977 8.96094 99.3626 9.52083 99.3594 10.2598V10.6064C99.3594 11.3324 99.4928 11.8955 99.7598 12.2959C100.027 12.6963 100.411 12.8965 100.912 12.8965C101.404 12.8965 101.781 12.7044 102.045 12.3203C102.309 11.9329 102.442 11.3698 102.445 10.6309V10.2842ZM104.994 14V6.89062H107.484C108.347 6.89062 109.001 7.05664 109.447 7.38867C109.893 7.71745 110.116 8.20085 110.116 8.83887C110.116 9.18717 110.027 9.49479 109.848 9.76172C109.669 10.0254 109.42 10.2191 109.101 10.3428C109.465 10.4339 109.752 10.6178 109.96 10.8945C110.172 11.1712 110.277 11.5098 110.277 11.9102C110.277 12.5938 110.059 13.1113 109.623 13.4629C109.187 13.8145 108.565 13.9935 107.758 14H104.994ZM106.459 10.9043V12.8232H107.714C108.059 12.8232 108.327 12.7419 108.52 12.5791C108.715 12.4131 108.812 12.1852 108.812 11.8955C108.812 11.2445 108.476 10.9141 107.802 10.9043H106.459ZM106.459 9.86914H107.543C108.282 9.85612 108.651 9.56152 108.651 8.98535C108.651 8.66309 108.557 8.43197 108.368 8.29199C108.183 8.14876 107.888 8.07715 107.484 8.07715H106.459V9.86914ZM114.013 11.3975H112.846V14H111.381V6.89062H114.022C114.862 6.89062 115.51 7.0778 115.966 7.45215C116.422 7.8265 116.649 8.35547 116.649 9.03906C116.649 9.52409 116.544 9.92936 116.332 10.2549C116.124 10.5771 115.806 10.8343 115.38 11.0264L116.918 13.9316V14H115.346L114.013 11.3975ZM112.846 10.2109H114.027C114.395 10.2109 114.68 10.1182 114.882 9.93262C115.084 9.74382 115.185 9.48503 115.185 9.15625C115.185 8.82096 115.089 8.55729 114.896 8.36523C114.708 8.17318 114.416 8.07715 114.022 8.07715H112.846V10.2109ZM121.781 12.5352H119.213L118.725 14H117.167L119.813 6.89062H121.171L123.832 14H122.274L121.781 12.5352ZM119.608 11.3486H121.386L120.492 8.6875L119.608 11.3486ZM130.277 14H128.812L125.961 9.32227V14H124.496V6.89062H125.961L128.817 11.5781V6.89062H130.277V14ZM133.114 14H131.649V6.89062H133.114V14ZM138.754 10.9189H135.941V12.8232H139.242V14H134.477V6.89062H139.232V8.07715H135.941V9.77148H138.754V10.9189Z" fill="#D40511"/>
</svg>
