<svg width="102" height="25" viewBox="0 0 102 25" fill="none" xmlns="http://www.w3.org/2000/svg">
<path d="M101.242 0.1C101.242 0.1 101.242 0 101.142 0C88.9422 0 76.6422 0 64.2422 0C64.2422 8.3 64.2422 16.7 64.2422 25C76.5422 25 88.8422 25 101.242 25C101.242 16.7 101.242 8.4 101.242 0.1ZM100.442 24.2C88.6422 24.2 76.9422 24.2 65.1422 24.2C65.0422 23.7 64.9422 3 65.0422 0.8C76.8422 0.8 88.6422 0.8 100.442 0.8C100.442 8.6 100.442 16.4 100.442 24.2Z" fill="white"/>
<path d="M17.843 8.5002C17.843 7.7002 17.843 6.9002 17.843 6.0002C18.143 6.5002 18.343 6.9002 18.543 7.2002C18.743 7.6002 19.043 8.0002 19.243 8.4002C19.543 8.4002 19.843 8.4002 20.143 8.4002C20.243 7.8002 20.243 5.1002 20.143 4.7002C19.943 4.7002 19.643 4.7002 19.343 4.8002C19.243 5.5002 19.343 6.3002 19.343 7.1002C18.943 6.2002 18.443 5.5002 18.043 4.7002C17.643 4.7002 17.343 4.7002 17.043 4.7002C17.043 5.9002 17.043 7.2002 17.043 8.4002C17.343 8.5002 17.643 8.5002 17.843 8.5002Z" fill="white"/>
<path d="M40.2398 5.20069C39.4398 4.40069 38.2398 4.60069 37.5398 5.40069C37.3398 5.70069 37.2398 6.00069 37.1398 6.30069C37.0398 7.20069 37.4398 8.30069 38.5398 8.50069C39.4398 8.70069 40.3398 8.20069 40.6398 7.20069C40.8398 6.60069 40.7398 6.00069 40.4398 5.40069C40.4398 5.40069 40.3398 5.30069 40.2398 5.20069ZM39.2398 7.80069C39.0398 7.90069 38.8398 7.80069 38.6398 7.80069C38.0398 7.30069 37.8398 6.50069 38.2398 5.90069C38.4398 5.60069 38.6398 5.50069 38.9398 5.50069C39.0398 5.50069 39.2398 5.50069 39.3398 5.50069C40.0398 6.30069 39.9398 7.20069 39.2398 7.80069Z" fill="white"/>
<path d="M53.8414 8.50069C53.8414 8.10069 53.8414 7.7007 53.8414 7.30069C53.9414 7.2007 54.0414 7.00069 54.1414 7.00069C54.5414 7.40069 54.6414 8.00069 55.0414 8.40069C55.4414 8.40069 55.7414 8.40069 56.0414 8.40069C55.6414 7.70069 55.1414 7.00069 54.7414 6.30069C55.1414 5.80069 55.5414 5.20069 55.9414 4.70069C55.5414 4.70069 55.1414 4.70069 54.8414 4.70069C54.5414 5.20069 54.2414 5.70069 53.8414 6.10069C53.7414 5.60069 53.9414 5.20069 53.7414 4.70069C53.4414 4.70069 53.1414 4.60069 52.9414 4.70069C52.9414 5.90069 52.9414 7.20069 52.9414 8.40069C53.2414 8.50069 53.5414 8.50069 53.8414 8.50069Z" fill="white"/>
<path d="M34.1414 8.50039C34.4414 8.50039 34.6414 8.50039 34.9414 8.50039C34.9414 8.00039 34.9414 7.60039 34.9414 7.20039C35.2414 7.00039 35.3414 7.10039 35.5414 7.30039C35.7414 7.70039 35.7414 8.20039 36.0414 8.60039C36.3414 8.60039 36.6414 8.70039 36.8414 8.60039C36.6414 8.00039 36.6414 7.40039 36.2414 6.90039C36.3414 6.90039 36.3414 6.80039 36.4414 6.80039C37.1414 6.10039 36.8414 5.30039 36.0414 5.00039C35.6414 4.90039 35.1414 4.90039 34.7414 4.90039C34.5414 4.90039 34.3414 4.90039 34.1414 5.10039C34.1414 6.20039 34.1414 7.40039 34.1414 8.60039C34.0414 8.40039 34.0414 8.40039 34.1414 8.50039ZM34.9414 5.50039C35.2414 5.40039 35.2414 5.40039 35.6414 5.50039C35.9414 6.00039 35.9414 6.00039 35.5414 6.40039C35.4414 6.40039 35.3414 6.40039 35.2414 6.40039C35.1414 6.40039 35.1414 6.40039 34.9414 6.40039C34.9414 6.00039 34.9414 5.80039 34.9414 5.50039Z" fill="white"/>
<path d="M33.3406 4.7002C33.0406 4.7002 32.7406 4.7002 32.4406 4.7002C32.3406 4.8002 32.3406 5.0002 32.3406 5.1002C32.3406 5.7002 32.3406 6.3002 32.3406 6.9002C32.3406 7.2002 32.3406 7.4002 32.1406 7.6002C31.9406 7.8002 31.7406 7.8002 31.4406 7.7002C31.1406 7.5002 31.0406 7.2002 31.0406 6.9002C31.0406 6.3002 31.0406 5.8002 31.0406 5.2002C31.0406 5.0002 31.1406 4.8002 30.9406 4.7002C30.6406 4.7002 30.4406 4.7002 30.1406 4.7002C30.1406 5.5002 30.1406 6.4002 30.1406 7.2002C30.1406 7.8002 30.6406 8.5002 31.4406 8.5002C32.3406 8.6002 32.9406 8.1002 33.1406 7.4002C33.4406 6.6002 33.3406 5.7002 33.3406 4.7002Z" fill="white"/>
<path d="M13.3406 7.5002C13.4406 8.0002 14.1406 8.6002 14.8406 8.6002C15.5406 8.5002 16.2406 8.1002 16.2406 7.4002C16.3406 6.5002 16.2406 5.7002 16.2406 4.8002C15.9406 4.8002 15.6406 4.8002 15.4406 4.8002V4.9002C15.4406 5.5002 15.4406 6.2002 15.4406 6.8002C15.4406 7.1002 15.4406 7.4002 15.2406 7.7002C15.1406 7.7002 15.1406 7.8002 15.0406 7.8002C14.6406 7.9002 14.2406 7.7002 14.2406 7.2002C14.2406 7.1002 14.2406 6.9002 14.2406 6.8002C14.2406 6.2002 14.2406 5.7002 14.2406 5.1002C14.2406 5.0002 14.2406 4.8002 14.1406 4.7002C13.9406 4.7002 13.6406 4.7002 13.3406 4.7002C13.3406 5.4002 13.3406 6.0002 13.3406 6.7002C13.2406 7.0002 13.2406 7.3002 13.3406 7.5002Z" fill="white"/>
<path d="M23.4422 7.5998C23.7422 7.5998 24.0422 7.5998 24.4422 7.5998C24.5422 7.8998 24.6422 8.1998 24.7422 8.4998C25.0422 8.4998 25.3422 8.4998 25.6422 8.4998C25.2422 7.1998 24.8422 5.9998 24.4422 4.7998C24.0422 4.7998 23.7422 4.7998 23.3422 4.7998C22.9422 5.9998 22.5422 7.1998 22.2422 8.4998C22.5422 8.4998 22.8422 8.4998 23.1422 8.4998C23.3422 8.1998 23.2422 7.8998 23.4422 7.5998ZM23.8422 5.6998C24.1422 5.9998 24.0422 6.3998 24.2422 6.7998C23.9422 6.8998 23.7422 6.7998 23.5422 6.7998C23.6422 6.3998 23.7422 6.0998 23.8422 5.6998Z" fill="white"/>
<path d="M57.3422 4.7998C56.9422 5.9998 56.5422 7.2998 56.2422 8.4998C56.5422 8.4998 56.8422 8.4998 57.1422 8.4998C57.3422 8.2998 57.2422 7.8998 57.4422 7.5998C57.7422 7.5998 58.0422 7.5998 58.3422 7.5998C58.5422 7.8998 58.5422 8.1998 58.7422 8.4998C59.0422 8.4998 59.3422 8.4998 59.6422 8.4998C59.2422 7.1998 58.8422 5.9998 58.4422 4.7998C58.0422 4.7998 57.7422 4.7998 57.3422 4.7998ZM57.5422 6.7998C57.6422 6.3998 57.7422 6.0998 57.8422 5.6998C58.0422 5.9998 58.0422 6.3998 58.2422 6.7998C57.9422 6.8998 57.7422 6.8998 57.5422 6.7998Z" fill="white"/>
<path d="M45.543 7.7002C45.543 7.4002 45.543 7.2002 45.543 6.9002C45.943 6.9002 46.443 6.9002 46.843 6.9002C46.843 6.6002 46.843 6.4002 46.843 6.1002C46.443 6.1002 45.943 6.1002 45.543 6.1002C45.543 5.9002 45.543 5.7002 45.543 5.4002C46.043 5.4002 46.443 5.4002 46.943 5.4002C46.943 5.1002 47.043 4.9002 46.843 4.7002C46.043 4.7002 45.343 4.7002 44.543 4.7002C44.543 5.9002 44.543 7.2002 44.543 8.4002C45.343 8.4002 46.143 8.4002 46.943 8.4002C46.943 8.1002 47.043 7.9002 46.843 7.6002C46.443 7.7002 45.943 7.7002 45.543 7.7002Z" fill="white"/>
<path d="M12.943 16.7C12.743 17.5 12.543 18.4 12.243 19.3C12.043 18.4 11.843 17.5 11.643 16.7C11.443 16.6 11.243 16.6 11.043 16.7C10.843 17.5 10.643 18.4 10.343 19.2C10.243 19.2 10.243 19.1 10.143 19C10.043 18.3 9.84297 17.7 9.64297 17C9.54297 16.7 9.44297 16.6 9.04297 16.7C9.34297 17.9 9.64297 19.1 9.94297 20.2C10.143 20.2 10.343 20.3 10.443 20.2C10.643 19.4 10.943 18.6 11.143 17.7C11.243 17.8 11.243 17.8 11.243 17.9C11.443 18.6 11.543 19.3 11.743 20C11.743 20.1 11.843 20.1 11.843 20.2C12.043 20.2 12.143 20.3 12.343 20.1C12.643 19 13.043 17.8 13.343 16.7C13.343 16.6 13.143 16.6 12.943 16.7Z" fill="white"/>
<path d="M27.3422 8.40011C27.3422 8.40011 27.3422 8.50011 27.3422 8.40011C28.1422 8.40011 28.9422 8.40011 29.7422 8.40011C29.7422 8.10011 29.7422 7.90011 29.7422 7.70011C29.2422 7.70011 28.7422 7.70011 28.2422 7.70011C28.2422 7.40011 28.1422 7.20011 28.2422 6.90011C28.6422 6.90011 29.0422 6.90011 29.4422 6.90011C29.4422 6.60011 29.4422 6.40011 29.4422 6.10011C29.0422 6.10011 28.5422 6.10011 28.1422 6.10011C28.1422 5.90011 28.1422 5.70011 28.1422 5.40011C28.6422 5.40011 29.0422 5.40011 29.5422 5.40011C29.5422 5.10011 29.5422 4.90011 29.5422 4.60011C29.1422 4.60011 28.7422 4.60011 28.3422 4.60011C27.9422 4.60011 27.5422 4.50011 27.2422 4.60011C27.3422 6.00011 27.3422 7.20011 27.3422 8.40011Z" fill="white"/>
<path d="M41.3398 8.40004C41.3398 8.50004 41.3398 8.50004 41.3398 8.40004C41.6398 8.40004 41.9398 8.50004 42.2398 8.40004C42.2398 8.20004 42.2398 8.00004 42.2398 7.80004C42.2398 7.60004 42.2398 7.40004 42.2398 7.20004C42.5398 7.20004 42.7398 7.10004 43.0398 7.10004C43.7398 7.00004 44.0398 6.50004 44.0398 6.00004C44.0398 5.50004 43.7398 5.00004 43.1398 4.80004C42.5398 4.60004 42.0398 4.70004 41.4398 4.80004C41.4398 4.80004 41.3398 4.80004 41.3398 4.90004C41.3398 6.10004 41.3398 7.20004 41.3398 8.40004ZM42.2398 5.50004C42.5398 5.40004 42.7398 5.50004 42.9398 5.50004C43.2398 5.70004 43.1398 5.90004 43.1398 6.20004C42.9398 6.50004 42.6398 6.50004 42.3398 6.50004C42.1398 6.20004 42.2398 5.80004 42.2398 5.50004Z" fill="white"/>
<path d="M51.6406 8.49961C52.1406 8.39961 52.3406 7.99961 52.4406 7.49961C52.4406 6.89961 52.0406 6.59961 51.5406 6.29961C51.3406 6.19961 51.2406 6.19961 51.0406 6.09961C50.8406 5.99961 50.6406 5.89961 50.7406 5.59961C51.0406 5.29961 51.1406 5.29961 51.9406 5.49961C52.0406 5.29961 52.1406 5.09961 52.1406 4.79961C51.7406 4.59961 51.2406 4.59961 50.8406 4.59961C50.3406 4.59961 49.8406 5.09961 49.7406 5.59961C49.6406 5.99961 49.9406 6.39961 50.4406 6.69961C50.5406 6.69961 50.6406 6.79961 50.6406 6.79961C50.7406 6.89961 50.9406 6.89961 51.0406 6.99961C51.2406 7.09961 51.2406 7.19961 51.2406 7.39961C50.7406 7.89961 50.2406 7.49961 49.7406 7.49961C49.7406 7.79961 49.6406 7.89961 49.6406 8.19961C50.3406 8.59961 50.9406 8.59961 51.6406 8.49961Z" fill="white"/>
<path d="M46.4422 10.9998C46.4422 11.7998 46.4422 12.5998 46.4422 13.3998C45.8422 12.4998 45.3422 11.6998 44.8422 10.8998C44.6422 10.8998 44.4422 10.8998 44.2422 10.8998C44.2422 12.0998 44.2422 13.1998 44.2422 14.3998C44.4422 14.3998 44.6422 14.4998 44.7422 14.2998C44.7422 13.4998 44.7422 12.5998 44.7422 11.6998C45.3422 12.5998 45.8422 13.4998 46.4422 14.3998C46.6422 14.2998 46.8422 14.3998 46.9422 14.2998C46.9422 13.0998 46.9422 11.9998 46.9422 10.7998C46.7422 10.8998 46.5422 10.7998 46.4422 10.9998Z" fill="white"/>
<path d="M49.9398 11.0997C49.2398 10.7997 49.0398 10.7997 47.7398 10.8997C47.6398 11.8997 47.7398 13.8997 47.7398 14.3997C48.1398 14.3997 48.5398 14.4997 49.0398 14.3997C49.9398 14.2997 50.5398 13.6997 50.6398 12.7997C50.6398 12.1997 50.5398 11.5997 49.9398 11.0997ZM49.9398 13.3997C49.5398 13.9997 48.9398 13.9997 48.3398 13.9997C48.3398 13.0997 48.3398 12.2997 48.3398 11.3997C48.9398 11.1997 49.5398 11.2997 49.8398 11.6997C50.1398 12.0997 50.1398 12.8997 49.9398 13.3997Z" fill="white"/>
<path d="M35.043 16.7998C34.343 17.0998 34.043 17.7998 34.043 18.4998C34.043 18.6998 34.043 18.7998 34.043 18.9998C34.143 19.7998 34.743 20.3998 35.543 20.3998C36.443 20.4998 37.043 19.9998 37.243 19.0998C37.343 18.6998 37.343 18.2998 37.243 17.8998C36.943 16.8998 36.043 16.2998 35.043 16.7998ZM36.043 19.7998C35.643 19.7998 35.243 19.8998 34.943 19.4998C34.643 19.0998 34.543 18.5998 34.643 18.0998C34.643 17.7998 34.843 17.5998 35.043 17.2998C35.543 16.8998 36.343 16.9998 36.643 17.5998C36.843 18.1998 36.843 19.3998 36.043 19.7998Z" fill="white"/>
<path d="M16.8406 17.6993C16.6406 17.1993 16.2406 16.7993 15.7406 16.5993C15.1406 16.4993 14.5406 16.5993 14.1406 17.0993C13.6406 17.7993 13.5406 18.4993 13.8406 19.2993C14.1406 19.8993 14.5406 20.1993 15.2406 20.1993C15.9406 20.1993 16.4406 19.8993 16.7406 19.2993C16.8406 18.9993 16.9406 18.6993 16.9406 18.3993C17.0406 18.1993 16.9406 17.9993 16.8406 17.6993ZM16.2406 19.1993C15.9406 19.6993 15.7406 19.8993 15.2406 19.7993C14.8406 19.7993 14.4406 19.3993 14.3406 18.9993C14.2406 18.5993 14.2406 18.1993 14.3406 17.7993C14.4406 17.3993 14.8406 17.0993 15.3406 16.9993C15.7406 16.9993 16.0406 17.1993 16.2406 17.5993C16.3406 17.7993 16.4406 18.0993 16.4406 18.3993C16.4406 18.7993 16.3406 18.9993 16.2406 19.1993Z" fill="white"/>
<path d="M40.1414 16.6996C40.1414 17.4996 40.1414 18.3996 40.1414 19.2996C39.5414 18.3996 39.0414 17.5996 38.5414 16.6996C38.3414 16.6996 38.1414 16.6996 37.9414 16.6996C37.9414 17.8996 37.9414 19.0996 37.9414 20.2996C38.1414 20.1996 38.2414 20.2996 38.4414 20.1996C38.4414 19.3996 38.4414 18.5996 38.4414 17.5996C39.0414 18.4996 39.5414 19.3996 40.1414 20.2996C40.3414 20.2996 40.4414 20.3996 40.6414 20.2996C40.6414 19.0996 40.6414 17.9996 40.6414 16.7996C40.3414 16.6996 40.2414 16.5996 40.1414 16.6996Z" fill="white"/>
<path d="M3.84219 16.6998C3.24219 16.8998 2.74219 17.6998 2.74219 18.5998C2.74219 18.5998 2.74219 18.6998 2.74219 18.7998C2.84219 19.3998 3.14219 19.8998 3.64219 20.0998C4.64219 20.4998 5.64219 19.9998 5.94219 18.9998C6.04219 18.5998 6.04219 18.1998 5.94219 17.7998C5.74219 17.0998 4.84219 16.2998 3.84219 16.6998ZM4.74219 19.7998C4.64219 19.7998 4.64219 19.7998 4.54219 19.7998C3.94219 19.8998 3.54219 19.5998 3.34219 18.8998C3.24219 18.2998 3.24219 17.7998 3.74219 17.2998C4.24219 16.8998 4.84219 16.8998 5.24219 17.4998C5.64219 18.2998 5.44219 19.1998 4.74219 19.7998Z" fill="white"/>
<path d="M49.7406 16.7996C49.6406 16.7996 49.6406 16.7996 49.7406 16.7996C49.5406 16.6996 49.4406 16.6996 49.3406 16.7996C49.3406 17.5996 49.3406 18.3996 49.3406 19.2996C48.7406 18.3996 48.2406 17.5996 47.7406 16.6996C47.5406 16.6996 47.3406 16.6996 47.1406 16.5996C47.1406 17.7996 47.1406 18.9996 47.1406 20.0996C47.3406 20.1996 47.4406 20.1996 47.6406 20.0996C47.6406 19.2996 47.6406 18.3996 47.6406 17.5996C48.2406 18.3996 48.7406 19.2996 49.3406 20.0996C49.5406 20.1996 49.6406 20.1996 49.8406 20.0996C49.7406 19.0996 49.7406 17.8996 49.7406 16.7996Z" fill="white"/>
<path d="M58.6406 16.7998C57.7406 16.3998 56.7406 16.7998 56.3406 17.7998C56.2406 18.2998 56.2406 18.7998 56.3406 19.2998C56.5406 19.6998 56.8406 19.9998 57.2406 20.1998C57.7406 20.3998 58.6406 20.2998 59.0406 19.7998C59.3406 19.3998 59.4406 18.9998 59.4406 18.4998C59.4406 18.3998 59.4406 18.2998 59.4406 18.1998C59.4406 17.4998 59.2406 17.0998 58.6406 16.7998ZM58.8406 19.2998C58.6406 19.6998 58.2406 19.8998 57.8406 19.8998C57.4406 19.8998 57.1406 19.5998 57.0406 19.1998C56.8406 18.4998 56.8406 17.7998 57.4406 17.1998C58.3406 16.8998 58.9406 17.2998 59.0406 18.3998C59.0406 18.6998 58.9406 18.9998 58.8406 19.2998Z" fill="white"/>
<path d="M20.243 10.9005C19.643 11.1005 19.043 11.7005 19.043 12.7005C19.043 13.0005 19.143 13.3005 19.243 13.7005C19.843 14.8005 21.443 14.7005 21.943 13.8005C22.343 13.2005 22.343 12.5005 22.143 11.9005C21.943 11.1005 21.143 10.6005 20.243 10.9005ZM21.443 13.7005C21.043 14.0005 20.643 14.1005 20.243 13.8005C19.843 13.6005 19.743 13.2005 19.743 12.8005C19.643 12.5005 19.743 12.1005 19.943 11.8005C20.043 11.5005 20.443 11.2005 20.943 11.2005C21.343 11.2005 21.743 11.6005 21.843 12.0005C21.843 12.6005 21.843 13.2005 21.443 13.7005Z" fill="white"/>
<path d="M55.8433 18.3993C55.7433 18.2993 55.6433 18.2993 55.5433 18.2993C55.2433 18.2993 54.9433 18.2993 54.7433 18.2993C54.5433 18.4993 54.5433 18.5993 54.7433 18.7993C54.9433 18.8993 55.1433 18.7993 55.3433 18.8993C55.4433 19.0993 55.3433 19.1993 55.3433 19.3993C55.3433 19.4993 55.3433 19.6993 55.3433 19.7993C54.6433 20.0993 54.0433 19.8993 53.7433 19.2993C53.3433 18.5993 53.5433 17.7993 54.3433 17.2993C54.8433 17.0993 55.2433 17.1993 55.8433 17.2993C55.8433 17.1993 55.9433 17.0993 55.9433 16.9993C55.7433 16.7993 55.5433 16.7993 55.3433 16.7993C54.4433 16.6993 53.4433 16.9993 53.1433 18.0993C52.8433 18.9993 53.2433 20.0993 54.3433 20.2993C54.9433 20.3993 55.5433 20.3993 56.0433 20.0993C55.8433 19.4993 55.8433 18.8993 55.8433 18.3993Z" fill="white"/>
<path d="M32.2433 18.3C32.0433 18.3 31.8433 18.3 31.6433 18.3C31.4433 18.3 31.2433 18.3 31.0433 18.3C31.0433 18.5 30.9433 18.6 31.0433 18.7C31.2433 18.8 31.4433 18.7 31.6433 18.8C31.6433 19.1 31.6433 19.4 31.6433 19.6C31.0433 19.8 30.6433 19.7 30.2433 19.4C29.8433 19.1 29.8433 18.6 29.8433 18.2C29.8433 17.6 30.1433 17.3 30.7433 17.1C31.1433 17 31.5433 17 31.8433 17.2H31.9433C32.0433 17.1 32.0433 17 32.0433 16.9C31.2433 16.5 30.3433 16.6 29.7433 17.3C29.0433 18 29.1433 19.3 29.8433 19.9C30.5433 20.5 31.3433 20.4 32.2433 20.2C32.2433 19.5 32.3433 18.9 32.2433 18.3Z" fill="white"/>
<path d="M18.2414 14.4002C18.4414 14.4002 18.6414 14.5002 18.7414 14.4002C18.5414 13.8002 18.5414 13.2002 18.0414 12.7002C18.4414 12.5002 18.5414 12.2002 18.6414 11.8002C18.5414 11.2002 18.2414 11.0002 17.7414 10.8002C17.2414 10.7002 16.8414 10.8002 16.4414 10.9002C16.4414 12.1002 16.4414 13.2002 16.4414 14.4002C16.6414 14.4002 16.7414 14.5002 16.9414 14.4002C17.0414 13.9002 16.9414 13.4002 17.0414 13.0002C17.3414 12.9002 17.5414 13.0002 17.8414 13.1002C18.1414 13.4002 18.0414 14.0002 18.2414 14.4002ZM16.9414 12.4002C16.9414 12.0002 16.9414 11.7002 16.9414 11.3002C17.5414 11.1002 17.8414 11.2002 18.1414 11.8002C18.1414 11.9002 18.0414 12.1002 18.0414 12.2002C17.6414 12.5002 17.6414 12.5002 16.9414 12.4002Z" fill="white"/>
<path d="M25.743 18.5005C26.243 18.2005 26.443 17.8005 26.243 17.2005C25.743 16.5005 25.043 16.4005 24.043 16.7005C24.043 17.8005 24.043 19.0005 24.043 20.1005C24.143 20.1005 24.143 20.1005 24.143 20.1005C24.243 20.1005 24.343 20.1005 24.543 20.1005C24.543 19.6005 24.543 19.1005 24.543 18.6005C24.743 18.6005 24.943 18.6005 25.143 18.6005C25.443 18.7005 25.543 18.9005 25.543 19.2005C25.543 19.4005 25.643 19.7005 25.743 19.9005L25.843 20.0005C26.043 20.0005 26.143 20.1005 26.343 20.0005C26.243 19.7005 26.143 19.4005 26.143 19.1005C26.243 19.0005 26.043 18.8005 25.743 18.5005ZM24.643 18.3005C24.643 18.1005 24.643 17.9005 24.643 17.7005C24.643 17.5005 24.643 17.3005 24.643 17.2005C25.043 17.1005 25.043 17.1005 25.643 17.3005C26.043 18.1005 25.743 18.3005 24.643 18.3005Z" fill="white"/>
<path d="M1.74142 18.6002C1.94142 18.4002 2.14142 18.3002 2.24142 18.0002C2.24142 17.8002 2.24142 17.5002 2.24142 17.2002C1.64142 16.4002 0.841421 16.6002 0.0414214 16.7002C-0.0585786 18.2002 0.0414214 20.1002 0.141421 20.2002C0.341421 20.2002 0.441421 20.3002 0.641421 20.1002C0.641421 19.6002 0.641421 19.2002 0.641421 18.7002C0.841421 18.7002 1.04142 18.7002 1.24142 18.7002C1.84142 19.0002 1.64142 19.7002 1.94142 20.2002C2.14142 20.2002 2.24142 20.3002 2.44142 20.1002C2.24142 19.6002 2.24142 19.0002 1.74142 18.6002ZM0.641421 18.3002C0.641421 17.9002 0.641421 17.5002 0.641421 17.1002C1.04142 17.0002 1.34142 17.0002 1.64142 17.3002C1.74142 17.5002 1.74142 17.7002 1.74142 17.9002C1.54142 18.4002 1.04142 18.2002 0.641421 18.3002Z" fill="white"/>
<path d="M22.2422 16.8001C22.0422 16.6001 21.9422 16.7001 21.7422 16.7001C21.7422 17.4001 21.7422 18.1001 21.7422 18.8001C21.7422 19.2001 21.6422 19.6001 21.2422 19.8001C20.4422 19.8001 20.2422 19.6001 20.2422 18.8001C20.2422 18.2001 20.2422 17.6001 20.2422 17.0001C20.2422 16.9001 20.2422 16.7001 20.1422 16.6001C20.0422 16.6001 19.8422 16.5001 19.7422 16.6001C19.7422 17.3001 19.7422 18.0001 19.7422 18.7001C19.7422 19.3001 19.9422 19.8001 20.5422 20.1001C20.6422 20.1001 20.7422 20.1001 20.8422 20.1001C21.8422 20.2001 22.3422 19.6001 22.3422 18.7001C22.3422 18.4001 22.3422 18.1001 22.3422 17.8001C22.2422 17.6001 22.2422 17.2001 22.2422 16.8001Z" fill="white"/>
<path d="M35.5406 14.3999C35.0406 13.6999 34.6406 13.0999 34.2406 12.3999C34.6406 11.8999 35.0406 11.3999 35.5406 10.8999C35.2406 10.8999 35.1406 10.8999 34.9406 10.8999C34.5406 11.2999 34.2406 11.8999 33.6406 12.3999C33.6406 11.8999 33.6406 11.3999 33.6406 10.8999C33.4406 10.8999 33.2406 10.7999 33.1406 10.8999C33.1406 12.0999 33.1406 13.1999 33.1406 14.3999C33.3406 14.4999 33.4406 14.3999 33.6406 14.3999C33.6406 13.8999 33.6406 13.4999 33.6406 13.1999C33.7406 12.9999 33.8406 12.8999 33.9406 12.6999C34.3406 13.2999 34.7406 13.8999 35.1406 14.3999C35.1406 14.3999 35.3406 14.4999 35.5406 14.3999Z" fill="white"/>
<path d="M42.3406 16.6996C42.1406 16.7996 42.1406 16.8996 42.1406 16.9996C41.7406 17.9996 41.4406 19.0996 41.1406 20.0996C41.1406 20.0996 41.1406 20.1996 41.2406 20.1996C41.3406 20.1996 41.5406 20.2996 41.7406 20.0996C41.9406 19.7996 41.9406 19.3996 42.1406 19.0996C42.5406 19.0996 42.9406 19.0996 43.2406 19.0996C43.3406 19.4996 43.4406 19.7996 43.6406 20.0996C43.8406 20.1996 44.0406 20.1996 44.2406 20.0996C43.8406 18.8996 43.4406 17.7996 43.0406 16.5996C42.6406 16.5996 42.5406 16.5996 42.3406 16.6996ZM42.5406 18.6996C42.4406 18.6996 42.2406 18.6996 42.0406 18.6996C42.1406 18.2996 42.3406 17.8996 42.4406 17.4996C42.6406 17.8996 42.8406 18.2996 42.9406 18.6996C42.8406 18.7996 42.7406 18.6996 42.5406 18.6996Z" fill="white"/>
<path d="M41.6414 14.4C42.4414 14.6 43.2414 14.5 43.4414 13.4C43.6414 12.6 43.4414 11.8 43.5414 10.9C43.3414 10.9 43.1414 10.8 42.9414 11C42.9414 11.6 42.9414 12.3 42.9414 12.9C42.9414 13.3 42.8414 13.7 42.4414 14C42.2414 14 42.0414 14 41.8414 14C41.7414 13.9 41.5414 13.8 41.5414 13.6C41.3414 12.7 41.4414 11.8 41.4414 10.9C41.2414 10.9 41.1414 10.8 40.9414 11C40.9414 11.5 40.9414 12 40.9414 12.5C40.9414 12.8 40.9414 13.2 41.0414 13.5C40.9414 13.9 41.1414 14.2 41.6414 14.4Z" fill="white"/>
<path d="M51.7406 13.0004C51.7406 12.3004 51.7406 11.7004 51.7406 11.0004C51.6406 10.9004 51.5406 10.9004 51.4406 10.9004C51.3406 10.9004 51.2406 10.9004 51.1406 11.0004C51.1406 11.3004 51.1406 11.7004 51.1406 12.1004C51.1406 12.6004 51.1406 13.0004 51.2406 13.5004C51.3406 13.8004 51.3406 14.0004 51.5406 14.2004C51.9406 14.6004 52.4406 14.6004 52.9406 14.5004C53.4406 14.4004 53.7406 14.0004 53.8406 13.5004C53.9406 12.7004 53.9406 11.9004 53.9406 11.1004C53.7406 11.0004 53.6406 11.0004 53.4406 11.1004C53.4406 11.7004 53.4406 12.3004 53.4406 12.9004C53.4406 13.2004 53.4406 13.4004 53.3406 13.7004C53.2406 14.1004 53.0406 14.3004 52.6406 14.3004C52.5406 14.3004 52.4406 14.3004 52.3406 14.3004C51.8406 13.7004 51.7406 13.4004 51.7406 13.0004Z" fill="white"/>
<path d="M51.0406 19.7002C51.0406 19.3002 51.0406 19.0002 51.0406 18.6002C51.4406 18.6002 51.9406 18.6002 52.3406 18.6002C52.3406 18.4002 52.4406 18.3002 52.3406 18.1002C51.9406 18.1002 51.5406 18.1002 51.1406 18.1002C51.1406 17.7002 51.1406 17.4002 51.1406 17.1002C51.6406 17.1002 52.0406 17.1002 52.5406 17.1002C52.5406 16.9002 52.6406 16.7002 52.4406 16.6002C52.1406 16.6002 51.8406 16.6002 51.5406 16.6002C51.2406 16.6002 50.9406 16.5002 50.6406 16.7002C50.6406 17.9002 50.6406 19.0002 50.6406 20.2002C51.3406 20.2002 51.9406 20.2002 52.6406 20.2002C52.7406 20.1002 52.7406 20.0002 52.7406 20.0002C52.7406 19.9002 52.7406 19.9002 52.6406 19.8002C52.0406 19.7002 51.5406 19.9002 51.0406 19.7002Z" fill="white"/>
<path d="M8.74219 17.3002C8.84219 17.1002 9.04219 16.9002 8.84219 16.7002C8.04219 16.7002 7.24219 16.7002 6.44219 16.7002C6.44219 16.8002 6.44219 16.9002 6.44219 17.0002C6.44219 17.1002 6.44219 17.1002 6.54219 17.2002C7.04219 17.3002 7.54219 17.1002 8.14219 17.3002C7.84219 17.8002 7.44219 18.3002 7.14219 18.7002C6.84219 19.2002 6.44219 19.6002 6.24219 20.1002C6.34219 20.2002 6.34219 20.2002 6.44219 20.2002C7.24219 20.2002 8.04219 20.2002 8.94219 20.2002C8.94219 20.1002 9.04219 19.9002 8.84219 19.7002C8.24219 19.7002 7.64219 19.7002 7.04219 19.7002C7.14219 19.5002 7.34219 19.3002 7.44219 19.1002C7.84219 18.5002 8.34219 17.9002 8.74219 17.3002Z" fill="white"/>
<path d="M48.3428 8.5002C48.7428 8.4002 48.9428 8.2002 49.1428 7.9002C49.2428 7.7002 49.2428 7.5002 49.2428 7.2002C49.2428 6.5002 49.2428 5.8002 49.2428 5.1002C49.2428 5.0002 49.3428 4.8002 49.1428 4.7002C48.9428 4.7002 48.6428 4.7002 48.3428 4.7002C48.3428 5.2002 48.3428 5.7002 48.3428 6.1002C48.3428 6.6002 48.4428 7.1002 48.2428 7.5002C47.9428 7.8002 47.6428 7.7002 47.3428 7.6002C47.3428 7.9002 47.1428 8.1002 47.2428 8.3002C47.6428 8.6002 48.0428 8.6002 48.3428 8.5002Z" fill="white"/>
<path d="M27.5398 19.7996C27.5398 19.3996 27.5398 18.9996 27.5398 18.5996C27.9398 18.5996 28.4398 18.5996 28.8398 18.5996C28.7398 18.3996 28.8398 18.2996 28.7398 18.0996C28.3398 18.0996 27.9398 18.0996 27.5398 18.0996C27.5398 17.7996 27.5398 17.4996 27.5398 17.0996C28.0398 17.0996 28.4398 17.0996 28.8398 17.0996C29.0398 16.9996 28.9398 16.8996 28.9398 16.7996C28.9398 16.6996 28.9398 16.6996 28.8398 16.5996C28.2398 16.5996 27.6398 16.5996 27.0398 16.5996C26.9398 17.1996 26.9398 19.7996 27.0398 20.1996C27.6398 20.1996 28.3398 20.1996 28.9398 20.1996C29.0398 20.0996 29.0398 19.8996 28.9398 19.6996C28.4398 19.7996 28.0398 19.7996 27.5398 19.7996Z" fill="white"/>
<path d="M13.0414 13.5004C13.1414 14.0004 13.4414 14.3004 13.8414 14.4004C14.3414 14.5004 14.9414 14.5004 15.3414 14.0004C15.5414 13.7004 15.6414 13.5004 15.6414 13.1004C15.6414 12.4004 15.6414 11.6004 15.6414 10.9004C15.6414 10.9004 15.6414 10.8004 15.5414 10.8004C15.4414 10.8004 15.2414 10.7004 15.1414 10.9004C15.1414 11.5004 15.1414 12.1004 15.1414 12.7004C15.1414 13.2004 15.1414 13.6004 14.6414 13.9004C14.4414 13.9004 14.1414 13.9004 13.9414 13.9004C13.6414 13.7004 13.5414 13.3004 13.5414 12.9004C13.5414 12.3004 13.5414 11.6004 13.5414 11.0004C13.5414 11.0004 13.5414 10.9004 13.4414 10.8004C13.3414 10.8004 13.1414 10.8004 12.9414 10.9004C12.9414 11.6004 12.9414 12.2004 12.9414 12.8004C13.0414 13.1004 13.0414 13.3004 13.0414 13.5004Z" fill="white"/>
<path d="M27.7422 14.4004C27.6422 14.2004 27.7422 14.1004 27.6422 14.0004C27.2422 14.0004 26.7422 14.0004 26.2422 14.0004C26.2422 13.6004 26.2422 13.2004 26.2422 12.8004C26.6422 12.8004 27.1422 12.8004 27.5422 12.8004C27.6422 12.6004 27.6422 12.5004 27.5422 12.4004C27.1422 12.3004 26.6422 12.4004 26.2422 12.3004C26.3422 12.0004 26.2422 11.7004 26.3422 11.3004C26.7422 11.3004 27.2422 11.3004 27.6422 11.3004C27.7422 11.1004 27.7422 11.0004 27.6422 10.9004C27.0422 10.9004 26.3422 10.9004 25.7422 10.9004C25.7422 12.1004 25.7422 13.2004 25.7422 14.4004C26.1422 14.4004 26.4422 14.4004 26.7422 14.4004C27.0422 14.4004 27.4422 14.4004 27.7422 14.4004Z" fill="white"/>
<path d="M59.5414 14.0004C58.9414 14.0004 58.3414 14.0004 57.6414 14.0004C57.7414 13.8004 57.8414 13.7004 57.9414 13.5004C58.4414 12.8004 58.8414 12.1004 59.3414 11.4004C59.4414 11.2004 59.5414 11.1004 59.4414 10.9004C58.6414 10.9004 57.8414 10.9004 57.1414 10.9004C57.0414 11.0004 57.0414 11.1004 57.0414 11.2004C57.0414 11.2004 57.0414 11.3004 57.1414 11.4004C57.6414 11.4004 58.2414 11.4004 58.8414 11.4004C58.7414 11.5004 58.7414 11.6004 58.6414 11.7004C58.1414 12.4004 57.6414 13.2004 57.1414 13.9004C57.0414 14.0004 56.9414 14.2004 57.0414 14.4004C58.0414 14.5004 59.5414 14.5004 59.6414 14.3004C59.5414 14.2004 59.6414 14.1004 59.5414 14.0004Z" fill="white"/>
<path d="M12.3414 14.4004C12.3414 14.4004 12.4414 14.4004 12.3414 14.4004C12.4414 14.2004 12.4414 14.1004 12.3414 14.0004C11.9414 13.9004 11.4414 14.0004 10.9414 13.9004C10.9414 13.5004 10.9414 13.2004 10.9414 12.8004C11.3414 12.8004 11.8414 12.8004 12.2414 12.8004C12.2414 12.6004 12.3414 12.5004 12.1414 12.3004C11.7414 12.3004 11.3414 12.3004 10.9414 12.3004C10.9414 12.0004 10.9414 11.7004 10.9414 11.3004C11.4414 11.3004 11.8414 11.3004 12.3414 11.3004C12.4414 11.1004 12.4414 11.0004 12.3414 10.9004C11.7414 10.9004 11.1414 10.9004 10.4414 10.9004C10.4414 12.1004 10.4414 13.2004 10.4414 14.4004C11.1414 14.4004 11.7414 14.4004 12.3414 14.4004Z" fill="white"/>
<path d="M24.4414 10.9006C23.9414 10.7006 23.4414 10.8006 22.9414 10.9006C22.9414 12.1006 22.9414 13.2006 22.9414 14.3006C23.0414 14.3006 23.2414 14.4006 23.4414 14.2006C23.4414 13.8006 23.4414 13.4006 23.4414 12.9006C23.6414 12.9006 23.8414 12.9006 24.0414 12.9006C24.3414 12.9006 24.5414 12.8006 24.7414 12.6006C25.3414 12.3006 25.3414 11.3006 24.4414 10.9006ZM24.4414 12.3006C24.2414 12.7006 23.8414 12.6006 23.4414 12.6006C23.4414 12.2006 23.4414 11.8006 23.4414 11.4006C23.7414 11.2006 24.0414 11.4006 24.3414 11.4006C24.6414 11.6006 24.6414 12.0006 24.4414 12.3006Z" fill="white"/>
<path d="M21.7422 8.4998C21.8422 7.8998 21.8422 5.1998 21.7422 4.7998C21.4422 4.7998 21.2422 4.7998 20.9422 4.7998C20.8422 5.1998 20.8422 7.9998 20.9422 8.4998C21.1422 8.4998 21.4422 8.4998 21.7422 8.4998Z" fill="white"/>
<path d="M31.9406 12.5998C31.7406 12.4998 31.5406 12.3998 31.3406 12.2998C30.9406 12.0998 30.8406 11.8998 30.9406 11.3998C31.3406 10.9998 31.7406 11.2998 32.1406 11.2998C32.2406 11.1998 32.3406 11.0998 32.3406 10.8998C31.8406 10.5998 31.2406 10.5998 30.7406 10.8998C30.3406 11.1998 30.2406 11.5998 30.3406 11.9998C30.5406 12.2998 30.8406 12.5998 31.2406 12.6998C31.5406 12.7998 31.7406 12.8998 31.8406 13.1998C31.8406 13.6998 31.6406 13.8998 31.1406 13.8998C30.8406 13.8998 30.6406 13.8998 30.3406 13.6998C30.2406 13.7998 30.2406 13.8998 30.1406 14.0998C30.7406 14.3998 31.2406 14.4998 31.7406 14.1998C32.5406 13.9998 32.6406 13.0998 31.9406 12.5998Z" fill="white"/>
<path d="M56.3414 12.6996C56.1414 12.4996 55.8414 12.3996 55.6414 12.2996C55.2414 12.1996 55.0414 11.9996 55.0414 11.6996C55.3414 11.2996 55.5414 11.1996 55.9414 11.2996C56.0414 11.2996 56.1414 11.3996 56.3414 11.3996H56.4414C56.5414 11.2996 56.6414 11.1996 56.5414 10.9996C55.7414 10.5996 55.3414 10.6996 54.7414 11.3996C54.7414 11.4996 54.6414 11.6996 54.6414 11.8996C54.7414 12.1996 54.9414 12.3996 55.2414 12.5996C55.3414 12.6996 55.5414 12.6996 55.6414 12.7996C55.9414 12.8996 56.1414 13.1996 56.1414 13.4996C56.0414 13.6996 55.9414 13.7996 55.7414 13.8996C55.3414 13.8996 54.9414 13.8996 54.6414 13.6996C54.5414 13.7996 54.4414 13.8996 54.4414 14.0996C54.9414 14.3996 55.5414 14.4996 56.0414 14.1996C56.7414 13.8996 56.8414 13.1996 56.3414 12.6996Z" fill="white"/>
<path d="M40.1422 11.3004C40.2422 11.1004 40.2422 11.0004 40.1422 10.9004C39.5422 10.9004 38.8422 10.9004 38.2422 10.9004C38.2422 12.1004 38.2422 13.2004 38.2422 14.4004C38.4422 14.4004 38.5422 14.5004 38.7422 14.4004C38.7422 13.9004 38.7422 13.4004 38.7422 12.9004C39.1422 12.9004 39.6422 12.9004 40.0422 12.9004C40.0422 12.7004 40.1422 12.6004 39.9422 12.4004C39.6422 12.4004 39.2422 12.4004 38.7422 12.4004C38.7422 12.0004 38.7422 11.7004 38.7422 11.4004C39.3422 11.3004 39.7422 11.3004 40.1422 11.3004Z" fill="white"/>
<path d="M45.043 19.6998C45.043 18.6998 45.043 17.6998 45.043 16.6998C44.843 16.6998 44.643 16.5998 44.543 16.7998C44.543 17.8998 44.543 19.0998 44.543 20.2998C45.243 20.2998 45.843 20.2998 46.543 20.2998C46.643 20.0998 46.643 19.9998 46.543 19.8998C46.043 19.6998 45.543 19.8998 45.043 19.6998Z" fill="white"/>
<path d="M18.7422 16.6998C18.5422 16.6998 18.4422 16.5998 18.2422 16.7998C18.1422 16.9998 18.2422 17.1998 18.2422 17.2998C18.2422 17.8998 18.2422 18.4998 18.2422 19.1998C18.2422 19.4998 18.2422 19.6998 17.9422 19.8998C17.7422 19.8998 17.5422 19.8998 17.3422 19.8998C17.3422 19.9998 17.2422 20.0998 17.2422 20.1998C17.3422 20.3998 17.5422 20.3998 17.6422 20.3998C18.4422 20.3998 18.8422 20.0998 18.8422 19.2998C18.8422 18.5998 18.8422 17.9998 18.8422 17.2998C18.8422 16.9998 18.9422 16.7998 18.7422 16.6998Z" fill="white"/>
<path d="M29.643 11.9998C29.643 11.5998 29.643 11.1998 29.643 10.7998C29.443 10.7998 29.343 10.7998 29.143 10.7998C29.043 10.9998 29.143 11.1998 29.143 11.2998C29.143 11.8998 29.143 12.4998 29.143 13.1998C29.143 13.4998 29.143 13.6998 28.843 13.8998C28.643 13.8998 28.443 13.8998 28.143 13.8998C28.043 14.0998 28.043 14.1998 28.043 14.3998C28.343 14.4998 28.743 14.4998 29.043 14.3998C29.643 13.8998 29.643 13.7998 29.643 13.0998C29.643 12.7998 29.643 12.3998 29.643 11.9998Z" fill="white"/>
<path d="M33.243 16.6998C33.143 16.6998 33.143 16.6998 33.043 16.7998C33.043 17.9998 33.043 19.0998 33.043 20.2998C33.243 20.3998 33.343 20.2998 33.543 20.2998C33.543 19.0998 33.543 17.8998 33.543 16.7998C33.343 16.5998 33.243 16.6998 33.243 16.6998Z" fill="white"/>
<path d="M35.8398 10.8998V10.9998C35.8398 12.0998 35.8398 13.1998 35.8398 14.3998C36.0398 14.2998 36.2398 14.4998 36.3398 14.2998C36.3398 13.0998 36.3398 11.9998 36.3398 10.7998C36.1398 10.8998 36.0398 10.7998 35.8398 10.8998Z" fill="white"/>
<path d="M87.0414 18.8C86.8414 18.6 86.9414 18.2 86.6414 18C86.4414 18.3 86.5414 18.6 86.2414 18.8C85.9414 18.9 85.6414 18.7 85.4414 19C85.6414 19.2 85.9414 19.3 86.1414 19.5C86.1414 19.8 85.9414 20.1 85.9414 20.4C86.2414 20.3 86.4414 20.1 86.6414 19.9C86.8414 20.1 87.1414 20.3 87.5414 20.5C87.4414 20.1 87.2414 19.8 87.2414 19.5C87.4414 19.3 87.7414 19.2 87.9414 18.9C87.5414 18.8 87.2414 18.9 87.0414 18.8Z" fill="white"/>
<path d="M79.2406 18.8C79.0406 18.6 79.0406 18.2 78.8406 18C78.7406 18.3 78.6406 18.6 78.5406 18.9C78.2406 18.9 77.9406 18.9 77.6406 18.9C77.8406 19.2 78.2406 19.3 78.3406 19.6C78.3406 19.9 78.1406 20.1 78.1406 20.4C78.4406 20.2 78.6406 20 78.8406 19.9C79.0406 20 79.2406 20.2 79.5406 20.3C79.5406 20 79.3406 19.7 79.4406 19.4C79.6406 19.2 79.8406 19.2 79.9406 18.9C79.8406 18.7 79.4406 19 79.2406 18.8Z" fill="white"/>
<path d="M86.1422 6.1C86.1422 6.4 85.8422 6.7 85.9422 7C86.2422 6.8 86.4422 6.6 86.7422 6.4C87.0422 6.6 87.2422 6.8 87.4422 6.9C87.4422 6.6 87.2422 6.3 87.2422 6C87.4422 5.8 87.7422 5.6 87.9422 5.4C87.6422 5.3 87.2422 5.4 86.9422 5.3C86.8422 5.1 86.8422 4.8 86.6422 4.5C86.4422 4.8 86.4422 5.1 86.2422 5.3C85.9422 5.3 85.6422 5.3 85.2422 5.3C85.6422 5.8 85.9422 5.9 86.1422 6.1Z" fill="white"/>
<path d="M82.243 20.5996C82.243 20.8996 81.943 21.1996 82.043 21.4996C82.243 21.2996 82.543 21.0996 82.743 20.8996C82.943 21.0996 83.243 21.1996 83.543 21.3996C83.543 20.9996 83.343 20.7996 83.343 20.4996C83.543 20.2996 83.743 20.1996 84.043 19.9996C83.743 19.8996 83.443 19.9996 83.143 19.8996C82.943 19.6996 83.043 19.2996 82.743 19.0996C82.643 19.3996 82.543 19.6996 82.443 19.8996C82.143 19.8996 81.843 19.8996 81.543 19.8996C81.743 20.1996 82.043 20.2996 82.243 20.5996Z" fill="white"/>
<path d="M78.143 6.9002C78.443 6.8002 78.643 6.6002 78.943 6.5002C79.243 6.6002 79.343 6.9002 79.643 6.9002C79.643 6.6002 79.543 6.4002 79.443 6.1002C79.643 5.9002 79.943 5.7002 80.243 5.5002C79.843 5.5002 79.543 5.5002 79.343 5.5002C79.043 5.2002 79.043 4.9002 78.843 4.7002C78.643 4.9002 78.743 5.3002 78.443 5.6002C78.243 5.6002 77.943 5.6002 77.543 5.6002C77.843 5.8002 78.043 6.0002 78.343 6.2002C78.343 6.4002 78.143 6.6002 78.143 6.9002Z" fill="white"/>
<path d="M89.8398 16.0002C89.6398 15.9002 89.7398 15.7002 89.6398 15.6002C89.5398 15.5002 89.6398 15.3002 89.4398 15.2002C89.2398 15.4002 89.3398 15.8002 89.0398 16.0002C88.8398 16.0002 88.5398 16.0002 88.3398 16.0002C88.5398 16.3002 88.8398 16.4002 89.0398 16.6002C89.0398 16.9002 88.7398 17.1002 88.8398 17.4002C89.0398 17.2002 89.3398 17.1002 89.5398 16.9002C89.8398 17.0002 90.0398 17.3002 90.3398 17.4002C90.2398 17.1002 90.1398 16.8002 90.0398 16.6002C90.3398 16.4002 90.5398 16.2002 90.7398 16.1002C90.4398 16.0002 90.1398 16.1002 89.8398 16.0002Z" fill="white"/>
<path d="M75.5398 9C75.4398 9.2 75.3398 9.5 75.2398 9.9C75.5398 9.7 75.8398 9.5 76.0398 9.4C76.3398 9.6 76.5398 9.7 76.8398 9.9C76.8398 9.5 76.5398 9.3 76.6398 9C76.8398 8.8 77.1398 8.7 77.2398 8.5C76.9398 8.4 76.6398 8.5 76.3398 8.4C76.2398 8 76.2398 7.7 76.0398 7.5C75.9398 7.8 75.9398 8.1 75.6398 8.4C75.3398 8.4 75.1398 8.4 74.8398 8.4C75.0398 8.6 75.3398 8.7 75.5398 9Z" fill="white"/>
<path d="M77.3398 16.0998C77.0398 15.9998 76.6398 16.0998 76.3398 15.9998C76.1398 15.7998 76.2398 15.4998 76.0398 15.2998C75.8398 15.4998 75.8398 15.8998 75.6398 16.0998C75.3398 16.1998 75.1398 16.0998 74.8398 16.1998C75.0398 16.4998 75.3398 16.4998 75.4398 16.7998C75.4398 16.9998 75.3398 17.0998 75.3398 17.2998C75.1398 17.3998 75.2398 17.5998 75.2398 17.7998C75.3398 17.6998 75.4398 17.6998 75.4398 17.5998C75.6398 17.4998 75.7398 17.2998 75.9398 17.2998C76.2398 17.3998 76.3398 17.6998 76.7398 17.7998C76.7398 17.4998 76.5398 17.1998 76.5398 16.8998C76.8398 16.3998 77.1398 16.2998 77.3398 16.0998Z" fill="white"/>
<path d="M82.243 5.1002C82.243 5.4002 82.043 5.6002 82.043 6.0002C82.343 5.8002 82.543 5.6002 82.743 5.5002C82.943 5.7002 83.243 5.8002 83.543 6.0002C83.543 5.7002 83.343 5.4002 83.343 5.1002C83.543 4.9002 83.743 4.8002 83.943 4.6002C83.643 4.5002 83.443 4.6002 83.143 4.5002C82.943 4.3002 83.043 3.9002 82.743 3.7002C82.543 4.0002 82.643 4.3002 82.343 4.5002C82.143 4.5002 81.843 4.5002 81.543 4.5002C81.743 4.8002 82.043 4.8002 82.243 5.1002Z" fill="white"/>
<path d="M74.4406 12.8002C74.4406 13.1002 74.1406 13.3002 74.2406 13.6002C74.4406 13.4002 74.6406 13.3002 74.9406 13.1002C75.2406 13.3002 75.4406 13.4002 75.6406 13.6002C75.6406 13.3002 75.4406 13.0002 75.4406 12.7002C75.6406 12.5002 75.9406 12.4002 76.0406 12.2002C75.7406 12.1002 75.4406 12.2002 75.2406 12.1002C75.0406 11.8002 75.0406 11.5002 74.8406 11.2002C74.6406 11.5002 74.6406 11.9002 74.4406 12.1002C74.1406 12.2002 73.9406 12.1002 73.6406 12.2002C74.0406 12.5002 74.3406 12.6002 74.4406 12.8002Z" fill="white"/>
<path d="M90.1422 12.1998C89.8422 12.1998 89.6422 12.1998 89.2422 12.1998C89.5422 12.3998 89.7422 12.5998 89.9422 12.7998C89.9422 13.0998 89.7422 13.3998 89.7422 13.6998C90.0422 13.4998 90.2422 13.2998 90.5422 13.1998C90.7422 13.3998 90.9422 13.5998 91.2422 13.6998C91.1422 13.3998 91.0422 13.0998 90.9422 12.7998C91.1422 12.5998 91.4422 12.4998 91.6422 12.1998C91.3422 12.1998 91.0422 12.1998 90.8422 12.1998C90.6422 11.8998 90.6422 11.5998 90.4422 11.2998C90.3422 11.5998 90.3422 11.8998 90.1422 12.1998Z" fill="white"/>
<path d="M88.9422 9.00039C88.9422 9.30039 88.6422 9.50039 88.7422 9.80039C89.0422 9.60039 89.2422 9.50039 89.4422 9.30039C89.7422 9.50039 89.9422 9.60039 90.2422 9.80039C90.2422 9.50039 90.0422 9.20039 90.0422 8.90039C90.2422 8.70039 90.5422 8.60039 90.6422 8.40039C90.3422 8.30039 90.1422 8.40039 89.8422 8.30039C89.6422 8.00039 89.7422 7.70039 89.4422 7.40039C89.2422 7.70039 89.3422 8.10039 89.0422 8.30039C88.7422 8.30039 88.5422 8.30039 88.2422 8.30039C88.4422 8.60039 88.8422 8.70039 88.9422 9.00039Z" fill="white"/>
</svg>
