<svg width="51" height="20" viewBox="0 0 51 20" fill="none" xmlns="http://www.w3.org/2000/svg">
<path d="M23.8099 9.76598V15.6267H21.9507V1.15332H26.8818C27.4704 1.14102 28.0556 1.24541 28.6036 1.46047C29.1517 1.67552 29.6517 1.99698 30.0749 2.4063C30.5023 2.79076 30.8425 3.26226 31.0725 3.78912C31.3026 4.31597 31.4172 4.88597 31.4087 5.4608C31.4209 6.03871 31.3081 6.61243 31.0778 7.14264C30.8476 7.67285 30.5055 8.14701 30.0749 8.53263C29.2126 9.35486 28.1482 9.76559 26.8818 9.76482H23.8099V9.76598ZM23.8099 2.93521V7.98755H26.928C27.2698 7.99768 27.61 7.93636 27.9267 7.80751C28.2435 7.67865 28.5299 7.4851 28.7676 7.23923C29.004 7.00935 29.192 6.73439 29.3203 6.43061C29.4487 6.12683 29.5148 5.8004 29.5148 5.47062C29.5148 5.14084 29.4487 4.81441 29.3203 4.51063C29.192 4.20685 29.004 3.93189 28.7676 3.70201C28.5329 3.45096 28.2475 3.25266 27.9303 3.12027C27.6132 2.98787 27.2715 2.9244 26.928 2.93405H23.8099V2.93521Z" fill="#5F6368"/>
<path d="M35.6898 5.40234C37.0641 5.40234 38.1488 5.76958 38.9441 6.50404C39.7394 7.23851 40.1367 8.24552 40.1359 9.52506V15.6283H38.3575V14.2541H38.2766C37.5067 15.3858 36.4828 15.9516 35.2048 15.9516C34.1139 15.9516 33.2012 15.6283 32.4667 14.9816C32.1142 14.6848 31.8324 14.313 31.6418 13.8935C31.4513 13.474 31.3567 13.0172 31.365 12.5565C31.365 11.5318 31.7523 10.7168 32.5268 10.1117C33.3013 9.50658 34.3352 9.20325 35.6286 9.20171C36.7326 9.20171 37.6419 9.4038 38.3563 9.80799V9.38301C38.3584 9.06892 38.2906 8.7583 38.1578 8.47367C38.0249 8.18904 37.8304 7.93753 37.5883 7.73739C37.0967 7.2938 36.4559 7.05176 35.7938 7.05951C34.7552 7.05951 33.9333 7.49758 33.3282 8.3737L31.6907 7.34244C32.5914 6.04904 33.9245 5.40234 35.6898 5.40234ZM33.2843 12.5969C33.2831 12.8335 33.3384 13.067 33.4457 13.2779C33.5529 13.4888 33.709 13.6711 33.901 13.8094C34.3122 14.1329 34.8226 14.3043 35.3457 14.2945C36.1303 14.2932 36.8823 13.9809 37.4371 13.426C38.053 12.8463 38.3609 12.1661 38.3609 11.3855C37.7812 10.9235 36.9728 10.6926 35.9358 10.6926C35.1805 10.6926 34.5508 10.8747 34.0465 11.2388C33.5372 11.6084 33.2843 12.0576 33.2843 12.5969Z" fill="#5F6368"/>
<path d="M50.3533 5.73047L44.145 19.9983H42.2257L44.5296 15.006L40.4473 5.73047H42.4682L45.4188 12.8442H45.4592L48.3289 5.73047H50.3533Z" fill="#5F6368"/>
<path d="M16.2999 8.51097C16.3006 7.94436 16.2527 7.37873 16.1567 6.82031H8.31543V10.0226H12.8065C12.7146 10.5341 12.5201 11.0216 12.2347 11.4559C11.9493 11.8902 11.5789 12.2621 11.1459 12.5494V14.6281H13.8262C15.3956 13.1811 16.2999 11.0412 16.2999 8.51097Z" fill="#4285F4"/>
<path d="M8.31569 16.6335C10.5595 16.6335 12.4488 15.8968 13.8265 14.6264L11.1462 12.5478C10.4001 13.0536 9.43933 13.3423 8.31569 13.3423C6.14693 13.3423 4.30615 11.8803 3.6479 9.91016H0.886719V12.0524C1.57877 13.4295 2.63994 14.5871 3.95178 15.3961C5.26361 16.205 6.77448 16.6335 8.31569 16.6335Z" fill="#34A853"/>
<path d="M3.64655 9.8991C3.29856 8.86674 3.29856 7.74877 3.64655 6.71641V4.57422H0.885369C0.303196 5.73268 0 7.01124 0 8.30776C0 9.60428 0.303196 10.8828 0.885369 12.0413L3.64655 9.8991Z" fill="#FBBC04"/>
<path d="M8.31569 3.29179C9.50144 3.27242 10.6472 3.72043 11.5053 4.539L13.8785 2.16584C12.3736 0.752422 10.3801 -0.0235661 8.31569 0.000545523C6.77448 0.000615765 5.26361 0.429048 3.95178 1.23801C2.63994 2.04697 1.57877 3.20462 0.886719 4.58172L3.6479 6.72392C4.30615 4.75379 6.14693 3.29179 8.31569 3.29179Z" fill="#EA4335"/>
</svg>
