<svg width="26" height="20" viewBox="0 0 26 20" fill="none" xmlns="http://www.w3.org/2000/svg">
<path d="M4.68196 19.8892V18.5649C4.68968 18.4535 4.67357 18.3418 4.63472 18.2371C4.59587 18.1325 4.53516 18.0373 4.45663 17.9579C4.37811 17.8786 4.28358 17.8169 4.17933 17.7769C4.07509 17.737 3.96352 17.7197 3.85207 17.7262C3.70619 17.7166 3.56042 17.7464 3.42997 17.8124C3.29953 17.8784 3.18919 17.9782 3.11048 18.1014C3.03873 17.9819 2.93607 17.884 2.81332 17.818C2.69057 17.7519 2.55228 17.7202 2.41302 17.7262C2.29163 17.7201 2.17075 17.7458 2.06235 17.8007C1.95395 17.8557 1.86179 17.9381 1.79502 18.0396V17.7792H1.33594V19.8892H1.79944V18.7283C1.78958 18.6561 1.79578 18.5827 1.8176 18.5132C1.83942 18.4437 1.87633 18.3799 1.92567 18.3263C1.97501 18.2728 2.03558 18.2308 2.10304 18.2033C2.1705 18.1759 2.24319 18.1637 2.31591 18.1676C2.62049 18.1676 2.77499 18.3663 2.77499 18.7238V19.898H3.23849V18.7283C3.22903 18.6562 3.23552 18.5829 3.25749 18.5136C3.27946 18.4443 3.31638 18.3806 3.36564 18.3272C3.4149 18.2737 3.4753 18.2317 3.54257 18.2041C3.60984 18.1766 3.68235 18.1641 3.75496 18.1676C4.06837 18.1676 4.21846 18.3663 4.21846 18.7238V19.898L4.68196 19.8892ZM11.5395 17.7792H10.7847V17.1391H10.3212V17.7792H9.90184V18.1985H10.33V19.1697C10.33 19.6597 10.5198 19.951 11.0628 19.951C11.2656 19.9517 11.4646 19.8951 11.6367 19.7877L11.5042 19.3948C11.3811 19.4682 11.2414 19.5092 11.0981 19.514C10.8774 19.514 10.7935 19.3727 10.7935 19.1608V18.1985H11.544L11.5395 17.7792ZM15.455 17.7262C15.3431 17.7229 15.2323 17.7499 15.1344 17.8043C15.0365 17.8587 14.9551 17.9384 14.8988 18.0352V17.7792H14.4441V19.8892H14.9032V18.7062C14.9032 18.3575 15.0533 18.1632 15.3446 18.1632C15.4428 18.1619 15.5403 18.1799 15.6316 18.2162L15.7728 17.7748C15.668 17.7373 15.5575 17.7179 15.4462 17.7174L15.455 17.7262ZM9.53546 17.9469C9.27559 17.7924 8.97682 17.7158 8.67467 17.7262C8.14054 17.7262 7.79182 17.9822 7.79182 18.4016C7.79182 18.7459 8.04784 18.9578 8.52017 19.024L8.74089 19.0549C8.9925 19.0902 9.11168 19.1564 9.11168 19.2756C9.11168 19.4389 8.94394 19.5316 8.63053 19.5316C8.37843 19.5389 8.13121 19.4612 7.92866 19.3109L7.70794 19.6685C7.97536 19.8552 8.29567 19.9511 8.6217 19.9422C9.23087 19.9422 9.58401 19.6552 9.58401 19.2535C9.58401 18.8518 9.30591 18.6885 8.84683 18.6223L8.62611 18.5914C8.42747 18.5649 8.26856 18.5252 8.26856 18.3839C8.26856 18.2427 8.41864 18.1367 8.67026 18.1367C8.90282 18.1394 9.1308 18.2018 9.3324 18.3177L9.53546 17.9469ZM21.8314 17.7262C21.7195 17.7229 21.6087 17.7499 21.5109 17.8043C21.413 17.8587 21.3316 17.9384 21.2752 18.0352V17.7792H20.8206V19.8892H21.2796V18.7062C21.2796 18.3575 21.4297 18.1632 21.7211 18.1632C21.8193 18.1619 21.9167 18.1799 22.008 18.2162L22.1492 17.7748C22.0444 17.7373 21.9339 17.7179 21.8226 17.7174L21.8314 17.7262ZM15.9163 18.8298C15.9108 18.9781 15.9364 19.1258 15.9913 19.2637C16.0463 19.4015 16.1294 19.5264 16.2353 19.6302C16.3413 19.7341 16.4677 19.8147 16.6066 19.8669C16.7455 19.9191 16.8938 19.9417 17.0419 19.9333C17.3176 19.9474 17.5885 19.8576 17.8012 19.6817L17.5805 19.3109C17.4218 19.432 17.2283 19.4985 17.0287 19.5007C16.859 19.487 16.7007 19.4099 16.5853 19.2848C16.4698 19.1596 16.4057 18.9956 16.4057 18.8254C16.4057 18.6551 16.4698 18.4911 16.5853 18.366C16.7007 18.2408 16.859 18.1637 17.0287 18.15C17.2283 18.1522 17.4218 18.2188 17.5805 18.3398L17.8012 17.969C17.5885 17.7931 17.3176 17.7034 17.0419 17.7174C16.8938 17.709 16.7455 17.7316 16.6066 17.7838C16.4677 17.836 16.3413 17.9166 16.2353 18.0205C16.1294 18.1244 16.0463 18.2492 15.9913 18.387C15.9364 18.5249 15.9108 18.6727 15.9163 18.821V18.8298ZM20.2158 18.8298V17.7792H19.7567V18.0352C19.6787 17.9349 19.578 17.8546 19.4629 17.8008C19.3478 17.7471 19.2215 17.7215 19.0946 17.7262C18.8019 17.7262 18.5212 17.8425 18.3142 18.0494C18.1073 18.2564 17.991 18.5371 17.991 18.8298C17.991 19.1225 18.1073 19.4032 18.3142 19.6101C18.5212 19.8171 18.8019 19.9333 19.0946 19.9333C19.2215 19.938 19.3478 19.9125 19.4629 19.8587C19.578 19.805 19.6787 19.7247 19.7567 19.6243V19.8804H20.2158V18.8298ZM18.5075 18.8298C18.5148 18.7056 18.5583 18.5862 18.6326 18.4864C18.7069 18.3866 18.8087 18.3107 18.9256 18.2681C19.0425 18.2254 19.1693 18.2179 19.2904 18.2464C19.4115 18.2749 19.5216 18.3382 19.6072 18.4285C19.6928 18.5188 19.7501 18.6322 19.7721 18.7547C19.794 18.8771 19.7797 19.0033 19.7309 19.1178C19.682 19.2322 19.6008 19.3298 19.4971 19.3987C19.3935 19.4675 19.272 19.5045 19.1475 19.5052C19.0602 19.5063 18.9735 19.4893 18.893 19.4553C18.8125 19.4212 18.7399 19.3709 18.6798 19.3075C18.6196 19.2441 18.5733 19.1689 18.5436 19.0867C18.514 19.0044 18.5017 18.917 18.5075 18.8298ZM12.9676 17.7262C12.6749 17.7303 12.3958 17.8505 12.1917 18.0604C11.9877 18.2702 11.8753 18.5525 11.8794 18.8452C11.8835 19.1379 12.0037 19.417 12.2136 19.621C12.4234 19.8251 12.7058 19.9374 12.9985 19.9333C13.316 19.9496 13.6283 19.8474 13.8747 19.6464L13.654 19.3065C13.4797 19.4463 13.2638 19.524 13.0404 19.5272C12.8886 19.5403 12.7378 19.4936 12.6199 19.3972C12.502 19.3007 12.4264 19.1621 12.4091 19.0108H13.9762C13.9762 18.9534 13.9762 18.896 13.9762 18.8342C13.9762 18.1721 13.5657 17.7306 12.9742 17.7306L12.9676 17.7262ZM12.9676 18.1367C13.0363 18.1353 13.1046 18.1474 13.1686 18.1723C13.2326 18.1972 13.2911 18.2346 13.3407 18.2821C13.3903 18.3297 13.43 18.3865 13.4577 18.4494C13.4853 18.5124 13.5002 18.5801 13.5017 18.6488H12.3981C12.4061 18.5071 12.4693 18.3742 12.574 18.2785C12.6788 18.1828 12.8169 18.1319 12.9587 18.1367H12.9676ZM24.469 18.8342V16.9316H24.0275V18.0352C23.9496 17.9349 23.8489 17.8546 23.7337 17.8008C23.6186 17.7471 23.4923 17.7215 23.3654 17.7262C23.0727 17.7262 22.792 17.8425 22.585 18.0494C22.3781 18.2564 22.2618 18.5371 22.2618 18.8298C22.2618 19.1225 22.3781 19.4032 22.585 19.6101C22.792 19.8171 23.0727 19.9333 23.3654 19.9333C23.4923 19.938 23.6186 19.9125 23.7337 19.8587C23.8489 19.805 23.9496 19.7247 24.0275 19.6243V19.8804H24.469V18.8342ZM25.2348 19.5824C25.2635 19.5821 25.292 19.5873 25.3187 19.5979C25.344 19.6082 25.3672 19.6232 25.3871 19.642C25.4065 19.661 25.4222 19.6835 25.4335 19.7082C25.4446 19.734 25.4504 19.7618 25.4504 19.7899C25.4504 19.818 25.4446 19.8458 25.4335 19.8715C25.4222 19.8963 25.4065 19.9187 25.3871 19.9378C25.3672 19.9566 25.344 19.9716 25.3187 19.9819C25.2923 19.9936 25.2637 19.9996 25.2348 19.9996C25.193 19.9992 25.1521 19.987 25.1169 19.9644C25.0818 19.9417 25.0538 19.9095 25.0362 19.8715C25.0251 19.8457 25.0194 19.818 25.0194 19.7899C25.0194 19.7618 25.0251 19.734 25.0362 19.7082C25.0474 19.6835 25.0631 19.661 25.0825 19.642C25.1024 19.6232 25.1256 19.6082 25.151 19.5979C25.1797 19.5864 25.2105 19.5812 25.2414 19.5824H25.2348ZM25.2348 19.9554C25.2569 19.9556 25.2787 19.951 25.2988 19.9422C25.3178 19.9337 25.335 19.9217 25.3496 19.9069C25.3772 19.8767 25.3925 19.8374 25.3925 19.7965C25.3925 19.7556 25.3772 19.7163 25.3496 19.6861C25.3351 19.6713 25.3178 19.6593 25.2988 19.6508C25.2786 19.642 25.2568 19.6375 25.2348 19.6376C25.2128 19.6377 25.1911 19.6422 25.1708 19.6508C25.151 19.659 25.133 19.671 25.1178 19.6861C25.0902 19.7163 25.0749 19.7556 25.0749 19.7965C25.0749 19.8374 25.0902 19.8767 25.1178 19.9069C25.133 19.922 25.151 19.934 25.1708 19.9422C25.1931 19.9518 25.2172 19.9563 25.2414 19.9554H25.2348ZM25.2481 19.6928C25.2687 19.6918 25.289 19.698 25.3055 19.7104C25.3122 19.716 25.3175 19.7231 25.321 19.7312C25.3244 19.7393 25.3259 19.748 25.3253 19.7568C25.3256 19.7641 25.3244 19.7714 25.3218 19.7783C25.3191 19.7851 25.3151 19.7913 25.3099 19.7965C25.2971 19.8081 25.2808 19.8151 25.2635 19.8164L25.3275 19.8892H25.2768L25.2172 19.8164H25.1973V19.8892H25.1554V19.695L25.2481 19.6928ZM25.1995 19.7303V19.7833H25.2481C25.2567 19.7858 25.2659 19.7858 25.2746 19.7833C25.2761 19.7802 25.2769 19.7768 25.2769 19.7733C25.2769 19.7699 25.2761 19.7665 25.2746 19.7634C25.2761 19.7603 25.2769 19.7569 25.2769 19.7535C25.2769 19.75 25.2761 19.7466 25.2746 19.7435C25.2659 19.741 25.2567 19.741 25.2481 19.7435L25.1995 19.7303ZM22.7717 18.8342C22.779 18.71 22.8225 18.5906 22.8968 18.4908C22.9711 18.391 23.0729 18.3151 23.1898 18.2725C23.3067 18.2299 23.4335 18.2223 23.5546 18.2508C23.6757 18.2793 23.7858 18.3426 23.8714 18.433C23.957 18.5233 24.0143 18.6366 24.0363 18.7591C24.0582 18.8815 24.0439 19.0078 23.9951 19.1222C23.9462 19.2366 23.8649 19.3343 23.7613 19.4031C23.6577 19.4719 23.5361 19.5089 23.4117 19.5096C23.3243 19.5107 23.2377 19.4937 23.1572 19.4597C23.0767 19.4257 23.0041 19.3753 22.9439 19.3119C22.8838 19.2485 22.8375 19.1733 22.8078 19.0911C22.7782 19.0089 22.7659 18.9214 22.7717 18.8342ZM7.27093 18.8342V17.7792H6.81185V18.0352C6.73388 17.9349 6.63318 17.8546 6.51805 17.8008C6.40292 17.7471 6.27667 17.7215 6.14971 17.7262C5.85702 17.7262 5.57632 17.8425 5.36936 18.0494C5.1624 18.2564 5.04614 18.5371 5.04614 18.8298C5.04614 19.1225 5.1624 19.4032 5.36936 19.6101C5.57632 19.8171 5.85702 19.9333 6.14971 19.9333C6.27667 19.938 6.40292 19.9125 6.51805 19.8587C6.63318 19.805 6.73388 19.7247 6.81185 19.6243V19.8804H7.27093V18.8342ZM5.56261 18.8342C5.56993 18.71 5.61341 18.5906 5.6877 18.4908C5.762 18.391 5.86385 18.3151 5.98074 18.2725C6.09762 18.2299 6.22442 18.2223 6.34553 18.2508C6.46663 18.2793 6.57676 18.3426 6.66234 18.433C6.74793 18.5233 6.80523 18.6366 6.8272 18.7591C6.84917 18.8815 6.83485 19.0078 6.786 19.1222C6.73714 19.2366 6.65589 19.3343 6.55225 19.4031C6.4486 19.4719 6.32709 19.5089 6.20268 19.5096C6.11492 19.5113 6.02776 19.4948 5.94673 19.461C5.8657 19.4273 5.79256 19.3771 5.73197 19.3136C5.67137 19.2501 5.62463 19.1747 5.59472 19.0921C5.5648 19.0096 5.55236 18.9218 5.55819 18.8342H5.56261Z" fill="#231F20"/>
<path d="M16.3314 1.69922H9.37891V14.1938H16.3314V1.69922Z" fill="#FF5F00"/>
<path d="M9.8206 7.9468C9.81931 6.74331 10.0919 5.5553 10.6177 4.47274C11.1435 3.39018 11.9087 2.44145 12.8554 1.6984C11.6832 0.777186 10.2755 0.204339 8.79316 0.0453281C7.31081 -0.113683 5.81363 0.147557 4.47273 0.799191C3.13183 1.45083 2.0013 2.46656 1.21037 3.73031C0.419436 4.99407 0 6.45485 0 7.9457C0 9.43655 0.419436 10.8973 1.21037 12.1611C2.0013 13.4248 3.13183 14.4406 4.47273 15.0922C5.81363 15.7438 7.31081 16.0051 8.79316 15.8461C10.2755 15.6871 11.6832 15.1142 12.8554 14.193C11.909 13.4502 11.1439 12.5018 10.6182 11.4196C10.0924 10.3375 9.81965 9.14992 9.8206 7.9468Z" fill="#EB001B"/>
<path d="M25.712 7.94772C25.712 9.43869 25.2925 10.8996 24.5014 12.1634C23.7103 13.4271 22.5796 14.4429 21.2386 15.0944C19.8975 15.746 18.4002 16.007 16.9177 15.8478C15.4353 15.6885 14.0276 15.1154 12.8555 14.1939C13.8015 13.4504 14.5663 12.5018 15.0923 11.4196C15.6182 10.3374 15.8915 9.14985 15.8915 7.94662C15.8915 6.74338 15.6182 5.55586 15.0923 4.47365C14.5663 3.39144 13.8015 2.4428 12.8555 1.69932C14.0276 0.777816 15.4353 0.204691 16.9177 0.045452C18.4002 -0.113787 19.8975 0.147285 21.2386 0.798826C22.5796 1.45037 23.7103 2.46609 24.5014 3.72988C25.2925 4.99368 25.712 6.45455 25.712 7.94552V7.94772Z" fill="#F79E1B"/>
<path d="M24.9558 12.8695V12.6135H25.0595V12.5605H24.7969V12.6135H24.9094V12.8695H24.9558ZM25.4656 12.8695V12.5605H25.3862L25.2935 12.7813L25.2008 12.5605H25.1302V12.8695H25.1875V12.6378L25.2736 12.8386H25.3332L25.4193 12.6378V12.8718L25.4656 12.8695Z" fill="#F79E1B"/>
</svg>
