<svg width="60" height="20" viewBox="0 0 60 20" fill="none" xmlns="http://www.w3.org/2000/svg">
<path fill-rule="evenodd" clip-rule="evenodd" d="M12.4245 11.5277L17.3193 11.5215L17.1409 12.6357L13.0473 16.5446L16.4837 16.5384L16.2834 17.7402L11.2227 17.7433L11.4355 16.5008L15.3601 12.7421H12.2273L12.4245 11.5277Z" fill="#D13239"/>
<path fill-rule="evenodd" clip-rule="evenodd" d="M7.06686 9.62067C6.96045 9.508 6.80709 9.42037 6.63809 9.35151C6.4597 9.28266 6.26252 9.23259 6.06848 9.19816C5.82437 9.15434 5.58651 9.13557 5.41751 9.12931C5.26102 9.12305 5.16087 9.12305 5.16087 9.12305H3.02016H1.42714L0 17.7422H1.33325L1.85904 14.5499L4.44417 14.5625C4.44417 14.5625 5.45193 14.6031 6.1655 14.2245C6.87907 13.8458 7.06999 12.9851 7.06999 12.9851C7.06999 12.9851 7.14823 12.6659 7.21395 12.2778C7.28593 11.849 7.35792 11.3357 7.39547 11.0635C7.41112 10.9445 7.42051 10.8694 7.42051 10.8694C7.42051 10.8694 7.43929 10.7818 7.43929 10.6441C7.44242 10.4532 7.41425 10.1652 7.26403 9.88982C7.21082 9.7928 7.14823 9.70517 7.06686 9.62067ZM6.04032 11.1417C6.04032 11.1574 5.92139 11.849 5.7649 12.669C5.70544 12.982 5.46445 13.151 5.18904 13.2104C4.7321 13.3075 4.24074 13.2887 4.24074 13.2887L2.08125 13.2824L2.55696 10.4187L4.51302 10.425C4.51302 10.425 4.64447 10.4219 4.82912 10.425C5.03881 10.4281 5.31736 10.4375 5.54582 10.4688C5.74299 10.4939 5.89948 10.5345 5.94955 10.5971C6.01528 10.6785 6.04032 10.7849 6.04971 10.8788C6.06222 11.0165 6.04032 11.1323 6.04032 11.1417Z" fill="#D13239"/>
<path fill-rule="evenodd" clip-rule="evenodd" d="M23.9553 9.12305H25.2385L23.8019 17.7422L22.5156 17.7391L23.9553 9.12305Z" fill="#D13239"/>
<path fill-rule="evenodd" clip-rule="evenodd" d="M30.8047 11.527L32.0347 11.5238L32.4697 15.8992L34.3632 11.5176L35.8811 11.5207L36.3286 15.9148L38.2189 11.5238H39.4959L36.7855 17.7363H35.2708L34.8326 13.386L32.9204 17.7363L31.4306 17.7425L30.8047 11.527Z" fill="#D13239"/>
<path d="M21.5864 11.5769C21.2265 11.4611 20.6037 11.436 20.0748 11.4423C19.5646 11.4486 19.3299 11.4736 19.139 11.5143C19.139 11.5143 18.2314 11.6457 17.715 12.2842C17.1986 12.9226 17.0452 14.3185 17.0452 14.3185C17.0452 14.3185 16.7385 15.8614 16.8293 16.3778C16.9201 16.8911 17.0797 17.3699 17.6618 17.5921C18.2439 17.8175 18.7384 17.805 18.7384 17.805C18.7384 17.805 19.7775 17.8863 20.5599 17.7017C21.3423 17.517 21.7554 16.9662 21.7554 16.9662C21.7554 16.9662 21.9401 16.7284 22.0715 16.4467C22.203 16.165 22.2437 15.9678 22.2499 15.9428L22.3313 15.6079L21.0012 15.6111C21.0012 15.6111 20.9292 16.4905 20.2094 16.5719C19.4927 16.6532 19.1077 16.6219 18.9669 16.6157C18.8292 16.6094 18.0593 16.6438 18.1219 15.9991C18.1219 15.9897 18.1219 15.9772 18.125 15.9584C18.1594 15.2261 18.2408 15.0352 18.2408 15.0352L22.4189 15.0227L22.5973 13.9899C22.8039 12.8194 22.6568 11.9274 21.5864 11.5769ZM21.3079 13.8428L18.4442 13.8396L18.5569 13.3858C18.5569 13.3858 18.657 13.029 18.8542 12.8788C19.0545 12.7286 19.308 12.7004 19.5459 12.6785C19.7837 12.6566 20.4191 12.6097 20.9355 12.7161C21.1076 12.7505 21.2703 12.8475 21.3141 12.9915C21.4143 13.3295 21.3079 13.8428 21.3079 13.8428Z" fill="#D13239"/>
<path d="M18.1289 15.9708C18.1289 15.98 18.1259 15.9893 18.1259 15.9986C18.1228 16.0479 18.1289 15.9677 18.1289 15.9708Z" fill="#D13239"/>
<path d="M26.007 15.9747C26.007 15.984 26.0039 15.9932 26.0039 16.0025C26.0039 16.0518 26.007 15.9716 26.007 15.9747Z" fill="#D13239"/>
<path d="M29.4692 11.5798C29.1093 11.464 28.4865 11.439 27.9576 11.4452C27.4475 11.4515 27.2127 11.4765 27.0218 11.5172C27.0218 11.5172 26.1142 11.6487 25.5978 12.2871C25.0814 12.9256 24.9281 14.3214 24.9281 14.3214C24.9281 14.3214 24.6213 15.8644 24.7121 16.3808C24.8029 16.894 24.9625 17.3729 25.5446 17.5951C26.1267 17.8204 26.6212 17.8079 26.6212 17.8079C26.6212 17.8079 27.6603 17.8893 28.4427 17.7046C29.2251 17.52 29.6382 16.9691 29.6382 16.9691C29.6382 16.9691 29.8229 16.7313 29.9543 16.4496C30.0858 16.1679 30.1265 15.9708 30.1327 15.9457L30.2141 15.6109L28.884 15.614C28.884 15.614 28.812 16.4934 28.0922 16.5748C27.3755 16.6562 26.9905 16.6249 26.8497 16.6217C26.712 16.6155 25.9421 16.6468 26.0047 16.0052C26.0047 15.9958 26.0047 15.9833 26.0078 15.9645C26.0422 15.2322 26.1236 15.0412 26.1236 15.0412L30.3017 15.0287L30.4801 13.9959C30.6867 12.8223 30.5396 11.9272 29.4692 11.5798ZM29.1782 13.8426L26.3145 13.8394L26.4272 13.3856C26.4272 13.3856 26.5273 13.0288 26.7245 12.8786C26.9217 12.7284 27.1783 12.7002 27.4162 12.6783C27.654 12.6564 28.2893 12.6095 28.8057 12.7159C28.9779 12.7503 29.1406 12.8473 29.1844 12.9913C29.2846 13.3262 29.1782 13.8426 29.1782 13.8426Z" fill="#D13239"/>
<path fill-rule="evenodd" clip-rule="evenodd" d="M40.9715 11.5275L41.7946 16.0719L44.12 11.5244L45.4282 11.5369L42.0763 18.0311C42.0763 18.0311 41.4691 19.2078 41.0936 19.5051C40.718 19.8025 40.4864 19.937 40.1797 19.9683C39.873 19.9996 39.7478 20.0215 39.4536 19.9683L39.1406 19.912L39.3347 18.7509C39.3347 18.7509 39.8542 18.8479 40.1609 18.7258C40.4707 18.6038 40.718 18.078 40.718 18.078L40.8745 17.8151L39.6633 11.5244L40.9715 11.5275Z" fill="#D13239"/>
<path fill-rule="evenodd" clip-rule="evenodd" d="M45.9092 12.1446L47.2581 12.1477L47.3395 11.625C47.3395 11.625 47.4835 10.6799 47.8058 10.4983C47.9091 10.4389 48.075 10.3857 48.2659 10.3513C48.6195 10.2887 49.0671 10.2824 49.4333 10.2949C49.9935 10.3137 50.2063 10.32 50.7759 10.3857C51.3455 10.4514 51.2015 11.0022 51.2015 11.0022L51.0889 11.8253C51.0889 11.8253 51.0388 12.1946 50.9073 12.4231C50.7915 12.6265 50.4723 12.7642 50.2877 12.8237C49.8432 12.9677 48.3222 13.3558 48.3222 13.3558L47.1267 13.7C47.1267 13.7 46.3912 13.9128 45.9812 14.3667C45.5681 14.8236 45.4053 15.34 45.349 15.6091C45.2927 15.8783 44.9766 17.7405 44.9766 17.7405L51.43 17.7436L51.6459 16.4542L46.5414 16.4604L46.6322 15.9346C46.6322 15.9346 46.6916 15.3932 46.9107 15.2148C46.9796 15.1585 47.014 15.0834 47.4209 14.9394C47.665 14.8518 48.4975 14.6295 48.4975 14.6295L50.4222 14.1038C50.4222 14.1038 51.4738 13.8346 51.8869 13.2587C52.3001 12.686 52.4597 11.5875 52.4597 11.5875C52.4597 11.5875 52.5723 10.5203 52.4847 10.1854C52.4002 9.8505 52.0841 9.4499 51.6992 9.27777C51.3142 9.10563 50.9136 9.00548 49.7525 9.02113C48.5914 9.03678 48.0155 9.08998 47.4271 9.30906C46.8387 9.52501 46.4976 9.91935 46.2816 10.4764C46.0469 11.0054 45.9092 12.1446 45.9092 12.1446Z" fill="#B3B2B1"/>
<path fill-rule="evenodd" clip-rule="evenodd" d="M58.0526 14.5408L58.9571 9.12012H57.3547L52.366 14.4782L52.1406 15.8364H56.5034L56.1842 17.7393L57.5237 17.7424L57.8398 15.8364L59.076 15.8396L59.2982 14.5408H58.0526ZM56.7194 14.5439L53.8995 14.5408L57.3328 10.8821L56.7194 14.5439Z" fill="#B3B2B1"/>
<path fill-rule="evenodd" clip-rule="evenodd" d="M9.89844 9.83383H14.0077C14.0077 9.83383 14.9279 9.08896 15.582 8.61012C16.2361 8.13128 17.4254 7.37702 17.4254 7.37702L15.1031 6.29102C15.1031 6.29102 13.1408 7.50534 12.3083 8.07807C11.5008 8.60699 9.89844 9.83383 9.89844 9.83383Z" fill="#B3B2B1"/>
<path fill-rule="evenodd" clip-rule="evenodd" d="M18.7263 6.61003L16.8203 5.32686C16.8203 5.32686 18.5448 4.34726 20.8388 3.43339C23.1298 2.51952 24.3535 2.1377 24.3535 2.1377L24.7416 3.95605C24.7416 3.95605 22.5351 4.69466 21.2707 5.29243C19.9625 5.84952 18.7263 6.61003 18.7263 6.61003Z" fill="#B3B2B1"/>
<path fill-rule="evenodd" clip-rule="evenodd" d="M26.1521 3.55932L25.8203 1.69716C25.8203 1.69716 28.1738 1.07122 30.3271 0.670614C32.4834 0.270013 35.3409 0.0791016 35.3409 0.0791016L34.3957 2.95529C34.3957 2.95529 31.8825 2.61103 29.5227 2.93339C27.6856 3.15246 26.1521 3.55932 26.1521 3.55932Z" fill="#B3B2B1"/>
<path fill-rule="evenodd" clip-rule="evenodd" d="M35.8906 3.199L37.4805 0.00357862C37.4805 0.00357862 40.9639 -0.0652748 43.9684 0.40105C46.9729 0.864245 49.7208 1.57782 49.6613 1.60911L42.0436 5.59322C42.0436 5.59322 40.2628 4.46653 38.0532 3.77486C36.8014 3.40556 35.8906 3.199 35.8906 3.199Z" fill="#B3B2B1"/>
<path fill-rule="evenodd" clip-rule="evenodd" d="M43.4102 6.45982L45.0845 7.73048H58.8458C58.8458 7.73048 58.8177 7.28606 58.4515 6.65386C58.223 6.25952 57.8068 5.84014 57.3717 5.40511C57.2121 5.24863 56.5799 4.75414 56.1042 4.4443C54.8899 3.65561 54.2107 3.35203 52.9495 2.7793L43.4102 6.45982Z" fill="#B3B2B1"/>
<path d="M10.7846 11.5215C10.2682 11.5215 9.77999 11.7249 9.36374 11.9534L9.43573 11.5215H8.06805L6.97266 17.7089H8.34346L8.95062 14.2819C9.07581 13.5871 9.59534 12.7264 10.6094 12.7264L11.3167 12.7233L11.5295 11.5215H10.7846Z" fill="#D13239"/>
</svg>
