<svg width="62" height="20" viewBox="0 0 62 20" fill="none" xmlns="http://www.w3.org/2000/svg">
<path d="M26.7795 19.7111H21.7734L24.9046 0.350586H29.9103L26.7795 19.7111Z" fill="#00579F"/>
<path d="M44.9268 0.824255C43.9394 0.432522 42.3733 0 40.4368 0C35.4932 0 32.012 2.63619 31.9906 6.40515C31.9496 9.18588 34.4831 10.7304 36.378 11.6575C38.3147 12.605 38.9731 13.2234 38.9731 14.0679C38.9534 15.3649 37.4081 15.9628 35.9668 15.9628C33.9682 15.9628 32.8973 15.6545 31.2699 14.9329L30.6107 14.6236L29.9102 18.9696C31.0843 19.5045 33.2474 19.9792 35.4932 20C40.7459 20 44.1655 17.4046 44.2061 13.3882C44.226 11.1842 42.8882 9.49549 40.004 8.11552C38.2531 7.22968 37.1809 6.63236 37.1809 5.72598C37.2014 4.902 38.0878 4.05804 40.0643 4.05804C41.6917 4.0167 42.8874 4.40789 43.7932 4.79934L44.246 5.00493L44.9268 0.824255Z" fill="#00579F"/>
<path d="M51.5811 12.8524C51.9933 11.7401 53.5797 7.43545 53.5797 7.43545C53.5589 7.47679 53.9912 6.30268 54.2384 5.5819L54.5882 7.25012C54.5882 7.25012 55.5362 11.8844 55.742 12.8524C54.9597 12.8524 52.5699 12.8524 51.5811 12.8524ZM57.7604 0.350586H53.8882C52.6941 0.350586 51.7869 0.700435 51.2717 1.95694L43.8359 19.7108H49.0886C49.0886 19.7108 49.9534 17.3213 50.1393 16.8067C50.7155 16.8067 55.8253 16.8067 56.5666 16.8067C56.7103 17.4864 57.1639 19.7108 57.1639 19.7108H61.799L57.7604 0.350586Z" fill="#00579F"/>
<path d="M17.5938 0.350586L12.6913 13.5526L12.1555 10.8751C11.2492 7.78557 8.40656 4.42888 5.23438 2.75984L9.72493 19.6906H15.0187L22.8873 0.350586H17.5938Z" fill="#00579F"/>
<path d="M8.1366 0.350586H0.0823977L0 0.741771C6.28278 2.3484 10.4437 6.2211 12.1533 10.8759L10.4024 1.97802C10.1142 0.741497 9.22831 0.391374 8.1366 0.350586Z" fill="#FAA61A"/>
</svg>
