<svg width="160" height="160" viewBox="0 0 160 160" fill="none" xmlns="http://www.w3.org/2000/svg">
<path d="M26.6855 65.9041C36.3641 62.7955 46.125 59.6375 54.8818 54.4893C60.9556 50.9201 66.4368 46.4462 71.9016 42.0053C87.9997 28.8798 104.098 15.7544 120.196 2.62891C130.845 31.3799 156.194 54.4893 159.865 84.918C139.553 102.945 119.044 121.087 95.5384 134.673C72.0168 148.259 44.9728 157.141 17.8958 154.937C14.1922 135.939 10.4722 116.942 6.76869 97.9447C5.68232 92.3853 0.349226 79.0461 3.72356 74.161C7.0156 69.3911 21.4347 67.5983 26.6855 65.9041Z" fill="white"/>
<path d="M94.6001 123.242C94.9951 123.406 95.4231 123.587 95.6535 123.965C96.1309 124.804 95.2585 125.725 94.5013 126.334C91.7031 128.604 89.4645 131.548 88.0489 134.854C87.588 135.923 86.8473 137.255 85.6951 137.074C84.9873 136.959 84.5265 136.301 84.1808 135.676C82.8311 133.242 82.008 130.578 81.4649 127.864C81.0369 125.643 80.0658 122.156 80.7077 119.919C81.5142 117.107 84.6746 119.327 86.5181 120.034C89.2176 121.087 91.9006 122.156 94.6001 123.242Z" fill="#BCBCBB"/>
<path d="M59.2601 95.6914C59.935 97.073 60.6263 98.4875 61.6633 99.6224C62.7003 100.757 64.1488 101.629 65.6961 101.58C66.8647 101.547 68.0005 100.988 68.7412 100.083C68.9387 99.8362 69.1198 99.5402 69.1198 99.2277C69.1033 98.8165 68.807 98.4875 68.5272 98.1914C65.0706 94.5235 62.3711 90.2471 59.7046 85.9871C58.5688 84.1942 53.2851 74.638 53.0382 81.9573C52.8736 85.8719 57.5318 92.2537 59.2601 95.6914Z" fill="#BCBCBB"/>
<path d="M106.287 99.3429C106.929 98.8002 107.555 98.2409 108.196 97.6981C108.97 97.0238 109.744 96.3494 110.303 95.5106C110.863 94.6553 111.192 93.6026 110.945 92.6157C108.855 92.8295 106.781 93.2572 104.789 93.9151C104.427 94.5566 104.378 95.3132 104.328 96.0369C104.213 97.9284 104.098 99.8364 103.983 101.728" fill="#BCBCBB"/>
<path d="M33.6318 83.3883C33.8787 84.0791 34.2244 84.8686 34.9487 85.0166C35.3437 85.0988 35.7717 84.9508 36.1338 84.7699C38.3888 83.635 39.6727 81.25 40.8249 79.0131C43.7878 73.2234 46.7341 67.187 46.981 60.6901C46.9975 60.1967 46.9975 59.6703 46.7012 59.2756C46.4543 58.9466 46.0593 58.7821 45.6642 58.667C41.9936 57.5979 38.0926 60.098 34.8993 61.5947C32.6113 62.6638 29.9118 63.6836 29.1053 66.3317C27.591 71.2497 32.0681 78.9473 33.6318 83.3883Z" fill="#BCBCBB"/>
<path d="M141.38 41.5778C148.261 54.2592 153.347 67.911 156.441 82.0069C156.507 82.3358 156.589 82.6812 156.54 83.0102C156.441 83.849 155.717 84.4576 155.059 84.9839C148.557 90.1321 142.829 96.2672 138.121 103.11C141.051 99.0469 141.051 93.6355 140.903 88.6189C140.409 71.2663 139.718 53.9138 138.829 36.5776" fill="#BCBCBB"/>
<path d="M18.3732 140.216C18.472 143.868 18.4884 147.864 20.8093 150.693C23.5088 154.016 28.3152 154.493 32.5783 154.74C35.6235 154.904 38.6521 155.085 41.6973 155.249C42.5532 155.299 43.475 155.332 44.1992 154.871C45.8782 153.802 45.2362 151.253 44.3638 149.46C38.2571 136.778 30.8006 124.755 22.1426 113.636C20.9081 112.041 17.5502 106.876 15.1306 107.764C12.2006 108.85 14.0936 114.163 14.5544 115.939C16.579 123.982 18.1263 131.91 18.3732 140.216Z" fill="#BCBCBB"/>
<path d="M75.1937 110.889L89.942 109.442L101.711 104.047L113.134 94.4906L117.809 87.1055C117.809 87.1055 118.023 95.9216 117.809 96.4808C117.595 97.04 111.028 109.014 111.028 109.014L100.114 124.919C100.114 124.919 91.3741 123.834 89.9256 122.386C88.4771 120.939 77.2512 117.403 76.2142 114.919C75.1772 112.419 75.1772 112.419 75.1772 112.419L75.1937 110.889Z" fill="#EB584A"/>
<path d="M123.323 0.359131C123.768 0.589402 123.949 0.638746 123.982 0.720986C126.73 10.343 130.994 19.2085 136.821 27.3996C138.368 29.5707 138.944 32.3997 140.03 34.8998C144.475 44.9988 149.05 55.0485 153.363 65.1969C155.207 69.5227 156.556 74.0788 158.136 78.5198C158.219 78.7665 158.252 79.0625 158.416 79.2599C161.297 82.7962 159.865 85.1812 157.05 88.2898C149.577 96.6125 141.841 104.54 132.689 111.054C128.64 113.932 125.068 117.501 121.035 120.429C113.069 126.219 105.036 131.943 96.8552 137.387C86.617 144.213 75.3253 148.901 63.6222 152.552C58.3549 154.197 53.1206 156.154 47.7216 157.092C42.586 157.98 37.253 157.881 32.0186 157.947C29.6813 157.98 27.2781 157.569 24.9901 157.042C22.7022 156.516 21.1055 156.812 20.0521 159.625C19.6076 158.819 18.8011 158.046 18.7517 157.223C17.797 143.094 13.4022 129.656 10.7027 115.873C9.35295 108.916 7.44357 102.09 5.91278 95.1651C4.7441 89.9182 3.88817 84.5891 2.67012 79.3586C2.2257 77.4177 1.13932 75.6249 0.135254 73.2564C1.04056 72.8946 2.25862 72.2202 3.54251 71.9077C15.0482 69.0293 26.2576 65.3285 37.006 60.2954C46.8822 55.6736 56.8735 51.2655 66.6344 46.3805C75.7039 41.8573 84.1974 36.4624 92.016 29.8503C101.662 21.6921 110.698 12.9089 119.784 4.15861C121.035 2.94146 122.187 1.57628 123.323 0.359131ZM152.342 73.5689C152.507 72.5985 153.067 71.4965 152.787 70.6576C151.388 66.4141 150.104 62.1047 148.195 58.0914C141.429 43.8639 134.45 29.7352 127.488 15.5899C125.825 12.2181 123.932 8.97785 122.023 5.4251C121.068 6.2146 120.443 6.67514 119.883 7.21792C110.567 16.2807 101.069 25.1462 91.16 33.6169C83.325 40.3112 74.4365 44.9824 65.5151 49.6701C56.1163 54.6209 46.2731 58.7329 36.6275 63.2396C33.8292 64.539 31.0804 65.9535 28.1834 67.3681C29.2039 69.9833 30.0599 72.138 30.8335 74.161C31.9692 74.3584 32.8252 74.5065 33.8128 74.6709C35.9032 72.4011 37.5492 69.4898 41.4832 68.174C40.94 69.3089 40.8248 69.9339 40.4462 70.3122C38.8825 71.8419 37.0883 73.1577 35.6728 74.819C33.3683 77.5493 33.5 78.6184 35.9855 82.0067C38.0266 80.0823 40.0676 78.1744 42.0922 76.2664C42.3062 76.4638 42.5202 76.6611 42.7342 76.8585C42.1745 77.648 41.6643 78.4869 41.0223 79.2106C39.9689 80.3784 38.8496 81.4968 37.7138 82.5988C36.4299 83.8489 36.183 85.1483 36.8744 86.8589C37.7961 89.1616 38.685 91.5301 39.1788 93.9644C41.2528 104.146 44.479 113.982 47.5899 123.883C49.5652 130.133 51.3593 136.433 51.8531 143.045C52.0507 145.611 52.5938 148.144 53.0383 150.973C54.8489 147.914 53.4004 143.999 56.5278 141.088C56.0999 144.624 55.7377 147.601 55.3591 150.628C57.7294 150.841 58.0915 149.723 58.2726 148.275C58.5689 146.022 58.6512 143.67 60.6593 141.055C60.4453 144.262 60.2807 146.631 60.0668 149.723C67.803 146.779 74.7657 144.131 81.7448 141.499C83.2921 140.923 83.325 139.558 83.5883 138.292L83.5225 138.374C85.58 136.285 87.6376 134.196 89.6786 132.107L90.0901 132.436C88.7568 134.393 87.44 136.351 86.1068 138.308C91.4069 135.923 96.2791 133.16 100.921 130.051C106.452 126.334 111.867 122.419 117.184 118.406C122.731 114.228 128.014 109.705 133.594 105.577C142.417 99.0303 149.643 90.938 156.853 82.6317C156.178 80.3126 155.503 78.0592 154.894 75.7894C154.515 74.3584 153.791 73.4373 152.194 73.5196L152.342 73.5689ZM5.50127 74.2926C5.35313 78.2072 15.0482 115.857 16.76 118.159C18.9657 116.942 19.8381 114.064 23.3112 112.929C22.4882 114.245 22.2084 114.886 21.7475 115.363C20.4142 116.811 18.9986 118.159 17.6653 119.607C16.4308 120.955 16.3321 122.354 17.8299 123.817C19.4266 122.189 21.0232 120.577 22.6034 118.982C22.8174 119.163 23.0149 119.36 23.2289 119.541C22.5705 120.446 22.0273 121.465 21.2372 122.222C18.1262 125.15 17.5995 128.637 18.406 132.65C19.7558 139.328 20.9409 146.039 22.2248 152.914C31.1791 155.397 39.903 154.592 48.6928 152.848C48.7751 151.598 48.8574 150.825 48.8574 150.035C48.808 139.903 45.6641 130.347 42.9482 120.775C39.1294 107.271 34.7016 93.9315 30.422 80.5429C29.1216 76.4473 27.4262 72.4834 25.7637 68.0918C18.8011 70.23 12.2993 72.2202 5.50127 74.2926Z" fill="black"/>
<path d="M116.295 80.0988C117.859 78.3553 118.665 77.4507 119.488 76.5296C119.653 76.6118 119.817 76.6941 119.998 76.7928C119.323 79.1613 118.649 81.5133 117.974 83.8818C118.237 84.0134 118.484 84.1285 118.747 84.2601C119.636 83.5035 120.509 82.7469 121.513 81.8916C121.677 82.4837 121.891 82.8291 121.792 82.9443C119.587 85.9378 119.488 89.2932 119.455 92.8788C119.389 99.4251 115.999 104.935 112.641 110.215C109.777 114.738 106.188 118.817 102.863 123.061C101.349 125.002 99.4725 125.413 96.9376 124.903C89.4482 123.373 82.8971 119.705 76.3624 116.103C74.4859 115.067 73.0868 112.699 72.1157 110.626C71.0951 108.422 69.7783 106.942 67.5397 106.119C64.6263 105.05 62.2396 103.29 60.4454 100.774C61.828 96.9744 61.1038 95.4612 56.5608 92.4347C54.8325 98.0928 57.1534 108.768 61.3836 114.014C62.3712 112.337 63.3259 110.741 64.6098 108.57C65.9596 112.205 61.9104 114.541 64.0996 118.143C65.5316 115.922 66.7332 114.064 67.9183 112.205C68.1652 112.304 68.4121 112.419 68.659 112.518C67.8854 114.903 67.1118 117.288 66.2229 119.985C69.2187 122.09 72.1321 124.163 75.095 126.252C74.025 127.42 72.6918 128.242 72.6588 129.13C72.6259 129.903 74.025 130.742 74.9962 131.762C73.5148 132.814 72.2638 131.976 71.0458 131.482C65.8937 129.426 61.6964 125.956 58.2233 121.827C53.9107 116.695 50.3388 111.021 49.055 104.179C47.6394 96.6948 48.0838 92.04 51.6063 84.2437C52.1165 87.4346 52.5774 90.2143 53.1206 93.5532C53.4169 92.3196 53.3511 91.2834 53.8284 90.8557C55.2604 89.5728 54.5197 88.3721 54.1247 86.9905C53.0548 83.2075 51.9849 79.4244 51.2442 75.5592C50.9149 73.865 51.4252 72.0064 51.5404 70.23C54.9148 69.4241 57.4332 70.8715 59.9022 71.7926C62.4535 72.7466 64.758 74.3585 67.3587 75.773C67.8031 75.3124 68.3627 74.9341 68.6261 74.4078C71.2597 69.128 75.3583 65.493 80.9219 63.5522C82.8971 62.8613 84.8888 62.1705 86.9463 61.8087C88.724 61.4797 89.6622 60.7889 90.2054 58.9796C91.2259 55.5913 92.4769 52.2689 93.7773 48.9793C94.8143 46.3476 95.6866 46.1667 98.2544 47.3674C100.789 48.5681 102.221 50.7721 103.588 53.009C106.172 57.269 108.46 61.7429 111.242 65.8713C113.99 69.9175 116.278 74.0788 116.295 80.0988ZM92.3123 80.658C92.1477 82.2864 91.9996 83.9147 91.7856 85.9543C86.9627 84.9016 84.2303 87.5991 81.5144 90.3788C80.2141 90.0498 79.0289 89.7373 77.7615 89.4248C77.2512 91.3163 77.0373 93.0269 76.313 94.5072C75.6052 95.9875 74.6505 97.731 73.3173 98.4218C70.8811 99.6718 69.8442 101.794 68.4944 103.702C74.0909 109.245 77.959 105.182 82.0576 100.889C82.6502 101.794 82.93 102.419 83.3744 102.879C89.9256 109.574 88.0491 108.455 95.2916 105.971C98.4519 104.902 101.859 104.031 104.114 101.202C107.34 99.0633 109.53 96.152 111.093 91.892C108.394 92.517 106.336 92.994 104.756 93.3723C104.542 96.4152 104.361 98.8494 104.18 101.267C103.538 98.2902 102.88 95.2967 102.172 92.0565C104.328 91.5137 105.991 91.2012 107.587 90.6748C109.316 90.1156 110.978 89.3754 112.608 88.7175C113.826 83.997 114.237 79.408 112.838 74.9012C112.196 72.8452 110.83 71.0195 109.76 69.1116C106.699 63.6179 103.637 58.1079 100.526 52.6307C99.7194 51.2162 98.633 50.0977 96.3121 50.2458C95.2916 53.0255 93.8596 55.871 93.2176 58.8974C92.4275 62.5488 90.584 63.9634 86.8969 64.6213C80.0988 65.8384 74.3872 69.128 70.9141 75.5098C70.2063 76.8256 69.087 77.9277 68.1158 79.1777C63.3259 76.9737 59.6718 73.0591 53.8449 73.1907C53.7296 80.5922 55.9353 86.9411 60.5606 92.4841C62.5523 94.869 64.9555 97.0073 64.4452 100.659C64.3629 101.267 65.5481 102.057 66.404 103.044C68.1323 100.807 69.1364 98.3067 70.9141 97.4843C73.7781 96.1684 74.4695 93.8822 75.5558 91.3656C73.4489 89.7702 72.6753 87.6484 73.1197 85.1154C73.4325 83.3884 74.3542 82.237 76.2472 82.1548C78.0084 82.089 78.8973 83.1417 79.3088 84.6713C79.605 85.7733 79.7203 86.9082 79.9836 88.4543C81.0206 87.8129 81.7613 87.3852 82.4856 86.9247C83.6872 86.1352 84.8065 84.8522 86.0904 84.6384C88.8392 84.1614 90.765 82.7469 92.3946 80.6909L92.3123 80.658ZM92.4604 113.389C92.625 113.505 92.8061 113.62 92.9707 113.735C91.9173 115.709 90.8638 117.666 89.7939 119.623C90.1231 119.903 90.4358 120.182 90.765 120.462C94.0571 120.15 94.0735 115.873 97.1187 114.179C95.9171 116.811 94.9788 118.883 93.9254 121.219C96.7401 121.942 99.5383 123.686 101.283 120.725C102.732 118.291 105.052 116.827 106.517 114.607C109.398 110.231 112.246 105.807 114.731 101.185C116.558 97.7803 116.822 93.8986 116.542 90.0498C116.492 89.4083 116.13 88.7833 115.916 88.1418C116.937 91.1847 114.484 92.6157 113.167 94.4743C112.641 95.2309 112.081 95.9711 111.587 96.7441C107.884 102.419 103.11 106.712 96.5096 108.735C93.876 109.541 91.2753 110.462 88.6911 111.432C85.4813 112.649 82.2551 112.551 78.996 111.876C78.0084 111.679 77.0373 111.366 75.2431 110.873C78.3211 115.84 83.0946 116.498 87.7034 119.13C89.2836 117.189 90.8638 115.281 92.4604 113.389ZM86.222 109.014C86.255 108.735 86.2879 108.471 86.3208 108.192C84.8065 106.81 83.2921 105.445 81.7449 104.031C79.9836 105.346 78.3376 106.383 77.9755 109.014C80.8889 109.014 83.5555 109.014 86.222 109.014ZM50.7339 100.757C51.0302 100.725 51.3265 100.692 51.6227 100.642C51.5569 99.31 52.7091 97.8297 50.7339 96.4645C50.7339 98.0928 50.7339 99.4251 50.7339 100.757ZM53.3346 105.544C52.9889 105.577 52.6433 105.61 52.2976 105.659C52.0013 106.827 51.5734 108.011 53.5815 109.442C53.4663 107.797 53.4004 106.662 53.3346 105.544Z" fill="black"/>
<path d="M128.64 100.511C128.887 98.0764 129.216 95.6585 129.348 93.2242C129.381 92.5005 128.805 91.7604 128.311 90.5432C127.109 91.9577 126.336 92.8624 125.364 94.0137C124.163 92.2045 124.821 90.7077 125.134 89.2438C125.825 85.9049 126.484 82.6153 125.529 79.1448C123.801 72.7465 120.723 67.3023 115.208 63.437C113.513 62.2528 111.735 61.1672 109.793 59.9171C110.501 58.7987 111.209 57.6638 112.032 56.3644C110.534 55.6242 109.25 54.9992 107.587 54.1768C109.332 52.7787 110.6 53.3544 111.768 53.7492C119.406 56.3644 125.397 61.0027 129.183 68.2562C129.858 69.5392 130.632 70.7563 131.307 72.0393C134.78 78.5033 135.454 85.2305 133.117 92.2045C132.492 94.0631 132.031 96.0204 131.158 97.7639C130.632 98.8165 129.463 99.5567 128.574 100.428L128.64 100.511ZM132.212 80.4935C130.895 82.6646 130.895 82.6646 132.212 85.3292C132.212 83.339 132.212 82.0396 132.212 80.4935ZM127.932 87.6813C128.146 87.6484 128.36 87.599 128.574 87.5661C128.722 86.4641 128.854 85.3621 129.002 84.2601C128.755 84.2272 128.492 84.2108 128.245 84.1779C128.13 85.3457 128.031 86.5135 127.932 87.6813ZM128.36 70.7234C128.047 70.6905 127.751 70.6412 127.438 70.6083C127.389 71.332 127.34 72.0557 127.29 72.7959L127.669 72.8617C127.899 72.138 128.13 71.4307 128.36 70.7234ZM124.706 65.345C124.492 65.4272 124.262 65.5094 124.048 65.5917C124.311 66.2003 124.574 66.8088 124.854 67.4174C125.085 67.3187 125.315 67.2036 125.545 67.1049C125.266 66.5128 124.986 65.9371 124.706 65.345Z" fill="black"/>
<path d="M89.9418 51.578C87.1601 51.9892 84.3618 52.4169 81.5801 52.8281C81.5471 53.0419 81.5142 53.2557 81.4978 53.4695C83.8351 54.3906 86.156 55.3117 88.7732 56.3479C87.9008 58.0256 86.0572 57.9763 84.5593 58.1243C80.5595 58.519 76.7408 59.5224 73.3335 61.5619C71.3583 62.7462 69.63 64.391 67.9181 65.97C66.2063 67.5325 64.6425 69.2431 62.6838 71.2498C61.9101 69.8188 61.4493 68.9799 60.9061 67.9931C60.1818 68.026 59.3588 68.0753 58.47 68.1246C60.8402 58.1572 79.6048 47.9924 89.9418 51.578Z" fill="black"/>
<path d="M109 23.7124C110.942 22.0347 112.555 21.0314 113.642 19.6169C115.732 16.8865 118.07 16.1957 121.395 18.005C118.514 19.9294 115.765 21.7716 112.852 23.7289C113.592 25.1763 114.103 26.1796 114.629 27.2487C118.251 26.6566 122.086 24.4855 124.39 29.1567C126.069 32.545 125.74 36.2458 123.715 37.9399C121.74 39.5847 117.971 39.7656 115.419 37.8906C117.098 37.6603 118.3 37.5123 119.502 37.3478C121.148 37.1175 122.892 36.5912 123.008 34.7819C123.123 33.0713 122.827 31.0976 122.02 29.6008C121.131 27.956 119.271 28.3672 117.823 29.2389C116.852 29.8146 116.012 30.637 114.778 31.6239C112.819 28.9429 111.008 26.4592 109 23.7124Z" fill="black"/>
<path d="M83.6541 138.275C81.5965 138.703 80.6089 137.041 80.1974 135.759C78.6666 131.054 77.4486 126.252 76.1812 121.465C76.0166 120.873 76.0989 120.133 76.3128 119.557C76.461 119.179 77.0535 118.735 77.4321 118.735C77.8272 118.735 78.4527 119.163 78.5843 119.541C78.8312 120.265 78.7983 121.07 78.8806 121.86C79.2263 125.528 80.5925 128.867 81.9751 132.518C83.5224 131.202 84.724 130.183 85.942 129.163C86.156 129.311 86.37 129.475 86.584 129.623C85.0203 132.37 81.4484 134.508 83.6211 138.357L83.6541 138.275Z" fill="black"/>
<path d="M128.574 100.445C129.347 101.498 130.154 102.534 130.878 103.619C131.059 103.899 130.994 104.327 131.109 105.396C128.771 103.471 126.73 102.024 125.002 100.28C123.34 98.5863 120.508 97.8625 119.833 94.3591C124.212 95.0993 125.792 98.7507 128.64 100.527L128.574 100.445Z" fill="black"/>
<path d="M152.277 73.5032C152.195 74.0131 152.293 74.6545 151.997 74.9999C148.771 78.9146 145.495 82.7798 142.104 86.826C142.582 83.3062 146.763 77.9935 152.343 73.569L152.277 73.5032Z" fill="black"/>
<path d="M149.561 70.6904C148.194 74.6708 143.503 80.0822 140.293 81.875C143.717 77.7466 146.647 74.2103 149.561 70.6904Z" fill="black"/>
<path d="M43.5242 142.19C43.9686 141.63 44.1991 141.334 44.4295 141.055C44.5777 141.236 44.874 141.449 44.841 141.598C44.2485 144.904 41.3515 147.354 38.3886 147.091C35.4752 146.828 32.4136 143.719 32.249 140.841C32.1009 138.259 33.5329 136.235 35.9855 135.594C38.4545 134.953 40.7424 135.923 41.8947 138.209C42.5037 139.443 42.9481 140.759 43.5242 142.19Z" fill="black"/>
<path d="M21.3411 86.8472C19.0531 87.9328 16.9791 88.9361 15.0039 89.8736C12.3538 88.2124 12.3538 88.2124 10 81.5839C11.2839 80.6134 12.288 80.6792 13.0122 82.3076C13.6377 83.7221 14.2467 85.1531 14.8393 86.5182C16.5841 86.5182 17.1602 86.0413 16.831 84.3636C16.1561 80.9424 16.9133 79.6594 19.8103 78.5739C22.9212 77.4061 24.9458 77.9653 26.5096 80.7615C27.4313 82.4227 29.0609 84.1662 27.2667 86.7321C26.6248 85.8768 26.1145 85.334 25.7688 84.709C25.1927 83.6728 24.8142 82.5378 24.2051 81.551C23.2504 80.0049 21.7526 80.1035 20.3699 80.7615C18.7568 81.551 19.1189 82.8339 19.8432 84.0839C20.2711 84.8734 20.6991 85.6629 21.3411 86.8472Z" fill="black"/>
<path d="M25.8131 133.686C25.8625 131.745 27.097 130.726 29.2204 130.89C30.7676 131.005 31.5742 131.828 31.5083 133.439C31.4425 135.446 30.2409 136.762 28.4467 136.795C26.7184 136.811 25.7637 135.676 25.8131 133.686Z" fill="black"/>
<path d="M30.3726 144.114C28.6114 146.417 26.7843 146.943 24.7926 145.545C24.1671 145.101 23.5746 143.999 23.7063 143.341C23.8379 142.667 24.8091 141.779 25.5004 141.68C27.6238 141.351 29.3027 142.256 30.3726 144.114Z" fill="black"/>
<path d="M34.8333 128.702C34.9649 127.025 36.5287 125.544 38.043 125.627C39.3927 125.692 40.2816 126.334 40.2651 127.814C40.2487 129.591 38.9648 130.791 37.2035 130.627C35.9525 130.512 34.9156 130.068 34.8333 128.702Z" fill="black"/>
<path d="M83.325 98.2245C85.794 98.7673 88.3618 99.5732 89.8103 96.3165C88.9708 95.9876 88.2466 95.8231 87.6211 95.4448C85.613 94.277 84.971 92.7309 85.6459 90.9545C86.4031 88.9479 89.0861 87.2044 90.8473 87.5498C92.1641 87.813 92.5098 88.7998 92.3946 89.9018C92.2464 91.2999 91.9008 92.6651 91.6539 94.0138C95.8018 95.9382 96.9376 95.3626 99.5712 89.9183C100.592 91.5302 99.9333 92.8954 99.3243 93.9809C98.2708 95.8395 97.7441 97.7475 97.4478 99.8528C97.1022 102.287 95.2092 103.438 92.8554 102.912C90.337 102.336 87.8351 101.613 85.3825 100.757C84.5431 100.461 83.9011 99.6061 83.1604 98.9975C83.2262 98.7344 83.2756 98.4712 83.325 98.2245ZM90.4852 100.412C91.9995 100.445 93.3657 100.642 94.6661 100.429C95.1599 100.346 95.8347 99.2936 95.8018 98.7344C95.7689 98.1752 95.0117 97.4185 94.4027 97.2212C92.5098 96.5797 91.7526 97.1883 90.4852 100.412Z" fill="black"/>
<path d="M92.3945 80.7238C91.9995 80.0494 91.5057 79.4079 91.2588 78.6842C90.6991 77.0559 91.4069 75.8881 92.839 75.115C94.3862 74.2926 95.7359 74.8847 96.6742 76.0854C97.3655 76.9736 97.6618 78.1908 98.2379 79.5231C102.946 80.6744 107.242 78.8487 112.377 76.6282C111.636 77.9605 111.472 78.7665 111.011 79.0296C107.373 81.0198 103.472 82.0231 99.2913 81.579C96.954 81.3323 94.6331 80.9705 92.3122 80.6744L92.3945 80.7238Z" fill="black"/>
<path d="M100.098 64.7036C98.0239 64.4239 96.3944 64.2101 94.3862 63.947C95.3574 61.7594 96.2462 59.8021 97.2174 57.6145C99.6206 59.4731 100.279 61.6442 100.098 64.7036Z" fill="black"/>
<path d="M60.9393 85.7405C60.0175 84.0134 59.0957 82.2864 58.1904 80.5922C60.3303 78.9639 60.3303 78.9639 63.0626 80.5429C62.7005 82.1548 62.3219 83.8489 61.9269 85.5431C61.5977 85.5924 61.2685 85.6747 60.9393 85.7405Z" fill="black"/>
<path d="M74.0578 79.0791C72.4941 81.2996 70.9469 83.5036 69.3338 85.7899C68.3297 83.0924 69.6136 81.02 74.0578 79.0791Z" fill="black"/>
<path d="M91.1436 70.115C92.8554 69.4406 94.5837 68.9308 96.3285 69.9999C96.345 70.3124 96.3614 70.6413 96.3779 70.9539C94.6496 71.069 92.9213 71.1677 91.1929 71.2828C91.1765 70.8881 91.16 70.5098 91.1436 70.115Z" fill="black"/>
<path d="M76.2306 85.872C76.2306 86.3325 75.852 86.7108 75.4076 86.7108C74.9467 86.7108 74.5681 86.3325 74.5681 85.872C74.5681 85.4114 74.9467 85.0496 75.4076 85.0496C75.8685 85.0331 76.2306 85.4114 76.2306 85.872Z" fill="white"/>
<path d="M93.7609 77.7468C93.7609 78.2074 93.3823 78.5857 92.9214 78.5857C92.4605 78.5857 92.0984 78.2074 92.0984 77.7468C92.0984 77.2863 92.477 76.908 92.9214 76.908C93.3823 76.908 93.7609 77.2863 93.7609 77.7468Z" fill="white"/>
<path d="M87.4565 91.6945C87.654 91.1024 88.082 90.5761 88.6251 90.2471C89.0531 89.9839 89.5469 89.8524 90.0407 89.8524L90.4522 89.8853L90.5181 89.4741C90.3699 89.4576 90.2053 89.4412 90.0572 89.4412C89.4811 89.4412 88.905 89.6056 88.4276 89.9017C87.8021 90.28 87.3248 90.8886 87.0779 91.5794L87.4565 91.6945Z" fill="#F6F6F6"/>
</svg>
