<svg width="15" height="15" viewBox="0 0 15 15" fill="none" xmlns="http://www.w3.org/2000/svg">
<path d="M11.7584 0.510262C10.2911 2.12765 8.97718 3.89177 7.62325 5.61253C6.33267 3.99514 4.56189 1.49737 2.40093 2.171C2.13748 2.25104 0.953616 2.56784 1.08034 3.04139C1.12369 3.20813 1.30711 3.27482 1.53387 3.2915C1.46051 3.28483 1.64392 3.31818 2.0441 3.65833C2.41093 3.96847 2.74775 4.31862 3.08456 4.66211C4.05833 5.65588 4.9654 6.70968 5.8658 7.77016C5.02209 8.78727 4.16838 9.79439 3.28465 10.7748C2.55766 11.5785 1.62391 12.7224 0.750192 13.2192C-0.967238 14.1997 0.606795 15.5503 1.98741 14.7599C4.11502 13.5461 5.81578 11.5118 7.38981 9.57429C8.60702 11.0283 9.79421 12.5356 10.728 14.153C11.1648 14.9067 13.8927 13.8362 13.6259 13.376C12.3987 11.2484 10.7713 9.29083 9.15059 7.41C10.8047 5.34574 12.372 3.19145 14.1461 1.23725C15.3634 -0.0933396 12.5588 -0.373464 11.7584 0.510262ZM1.56722 3.29817C1.91071 3.31484 2.34423 3.2248 2.56433 3.16477C2.00742 3.32485 1.68394 3.30817 1.56722 3.29817Z" fill="#F15748"/>
</svg>
