<?xml version="1.0" encoding="utf-8"?>
<!-- Generator: Adobe Illustrator 24.0.2, SVG Export Plug-In . SVG Version: 6.00 Build 0)  -->
<svg version="1.1" id="Layer_1" xmlns="http://www.w3.org/2000/svg" xmlns:xlink="http://www.w3.org/1999/xlink" x="0px" y="0px"
	 viewBox="0 0 164.41 138.9" style="enable-background:new 0 0 164.41 138.9;" xml:space="preserve">
<style type="text/css">
	.st0{fill:#FFFFFF;}
	.st1{fill:#BCBCBB;}
</style>
<g>
	<g>
		<path class="st0" d="M33.78,95.53c1.94,2.33,5.09,3.49,8.11,3.29s5.89-1.65,8.08-3.74c2.18-2.07,3.81-4.81,6.47-6.23
			c3.42-1.83,7.71-1.02,11.33-2.41c3.99-1.53,6.67-5.92,6.22-10.16c-0.45-4.25-3.99-7.97-8.21-8.63c-2.05-0.32-4.26-0.01-6.11-0.95
			c-2.34-1.2-3.31-3.97-4.06-6.48c-0.57-1.89-1.14-3.78-1.71-5.68c-0.38-1.27-0.77-2.59-0.64-3.91c0.15-1.46,0.91-2.77,1.6-4.06
			c0.84-1.58,1.61-3.25,1.77-5.04c0.16-1.79-0.39-3.72-1.78-4.85c-1.51-1.22-3.63-1.26-5.57-1.19c-2.86,0.1-5.77,0.34-8.43,1.4
			s-5.06,3.09-5.96,5.8c-1.22-1.58-3.35-2.26-5.34-2.1s-3.85,1.05-5.53,2.12c-3.23,2.08-6.17,5.44-5.86,9.27
			c0.2,2.54,1.78,4.73,3.3,6.78c0.92,1.24,1.89,2.52,3.28,3.21c1.03,0.51,2.21,0.66,3.22,1.19c2.09,1.11,2.99,3.56,3.73,5.81
			c1.56,4.78,2.27,8.35,0.52,12.98C30.61,86.13,30.81,91.97,33.78,95.53z"/>
		<path class="st1" d="M71.7,71.16c1.22,1.31,1.88,3.05,2.28,4.79c0.36,1.58,0.53,3.27,0.03,4.81c-0.55,1.69-1.88,3.07-3.46,3.87
			c-1.59,0.8-3.41,1.05-5.18,0.94c-0.55-0.04-1.12-0.11-1.6-0.38c-0.96-0.54-1.37-1.71-1.45-2.81c-0.14-1.95,0.54-3.87,0.6-5.83
			c0.06-1.94-0.63-3.56-1.14-5.38c-0.28-0.98-0.7-2.79,0.29-3.55c1.13-0.87,3.61,0.38,4.76,0.77C68.59,69,70.4,69.76,71.7,71.16z"/>
		<path class="st1" d="M35.07,81.29c0.7-1.59,1.96-2.94,2.31-4.64c0.63-3.11-1.99-5.88-2.77-8.95c-0.35-1.38-0.34-2.9-1.08-4.11
			c-0.81-1.32-2.32-2-3.74-2.6c-3.06-1.3-6.11-2.59-9.17-3.89c0.81,3.2,3.12,5.99,6.12,7.38c1.55,0.71,3.34,1.12,4.46,2.41
			c0.76,0.87,1.09,2.02,1.41,3.13c0.59,2.08,1.19,4.3,0.61,6.38c-0.66,2.4-2.76,4.18-3.59,6.53c-0.87,2.49-0.12,5.23,1.29,7.36
			c1.03,1.56,4.29,5.25,6.47,4.68c3.13-0.83-0.37-3.33-1.27-4.85C34.59,87.49,33.8,84.18,35.07,81.29z"/>
		<g>
			<path d="M65.15,69.23c-0.22-1.31-1.34-1.28-2.23-1.34c-1.66-0.11-3.33-0.03-5.21-0.03c-0.33-0.81-0.74-1.66-1.03-2.55
				c-1.24-3.79-2.44-7.59-3.66-11.39c-0.12-0.38-0.28-0.75-0.37-1.14c-0.52-2.1-0.74-3.91,1.12-5.81c2.01-2.04,1.97-5,1.35-7.7
				c-0.56-2.43-3.67-4.34-6.55-4.27c-2.64,0.07-4.87,1.37-7.19,2.46c-2.54,1.19-3.79,3.29-4.63,5.79c-0.21,0.61-0.64,1.15-1.1,1.94
				c-3.31-3.7-7.03-4.29-11.01-2.19c-2.86,1.51-4.37,4.05-4.29,7.82c2.13-0.98,3.87-2.33,6.49-2.28c-1.84,1.41-4.23,1.24-5.61,3.51
				c2.41-0.82,4.43-1.5,6.45-2.19c0.06,0.17,0.12,0.34,0.18,0.51c-0.53,0.2-1.09,0.36-1.6,0.61c-1.58,0.76-3.16,1.5-4.69,2.34
				c-0.86,0.48-0.97,1.3-0.27,2.01c0.78,0.79,1.58,1.66,2.54,2.14c2.2,1.1,4.38,2.37,6.99,2.2c1.13-0.08,1.49,0.74,1.8,1.6
				c1.04,2.85,2.06,5.71,3.14,8.54c0.54,1.41,1.28,2.76,1.79,4.18c0.13,0.37-0.24,0.92-0.38,1.38c-0.37-0.22-0.91-0.36-1.08-0.68
				c-0.61-1.21-1.06-2.49-1.63-3.73c-0.5-1.07-1.07-2.11-1.61-3.17c-0.49-1.68-1-3.35-1.48-5.03c-0.33-1.15-1.08-1.64-2.26-1.72
				c-2.13-0.14-3.97-1.08-5.77-2.16c-0.44-0.26-0.93-0.44-1.66-0.77c0.25,1.5,1.02,2.34,1.95,2.85c1.59,0.87,3.25,1.75,5,2.18
				c1.48,0.36,2.41,1.01,3.01,2.34c0.36,0.79,0.83,1.51,1.26,2.27c0.52,1.99,0.95,4.02,1.59,5.97c0.58,1.78,0.72,3.27-0.61,4.89
				c-1.08,1.31-1.73,3.01-1.47,4.85c1.19,0.27,1.14-0.67,1.49-1.23c0.88-1.41,1.77-2.81,2.76-4.14c0.25-0.34,0.89-0.39,1.35-0.57
				c0.12,0.14,0.24,0.28,0.36,0.42c-0.31,0.47-0.54,1.01-0.93,1.39c-2.65,2.58-3.16,5.62-1.97,9.01c0.66,1.89,1.48,3.69,3.13,5
				c3.6,2.86,8.18,2.05,11.1-0.25c1.8-1.42,3.75-2.72,4.84-4.87c0.17-0.34,0.71-0.49,1.2-0.8c0.54,1.21,0.04,2.01-0.53,2.75
				c-3.44,4.5-8.1,7.15-13.48,8.57c-1.58,0.42-3.23,0.06-4.59-0.91c-4.06-2.91-7.03-6.61-7.07-11.84c-0.02-2.92,0.49-5.89,2.35-8.35
				c0.71-0.93,0.85-1.82,0.5-2.89c-0.8-2.43-1.56-4.86-2.34-7.29c-0.49-1.56-1.45-2.45-3.1-2.98c-1.8-0.57-3.54-1.51-5.1-2.57
				c-1.94-1.32-2.86-3.49-3.2-5.71c-0.33-2.11-0.26-4.3-0.21-6.45c0.11-4.47,3.48-8.06,7.89-8.96c3.22-0.66,5.98,0.11,8.5,1.95
				c0.24-0.27,0.4-0.37,0.44-0.5c1.82-5.73,6.66-7.31,11.73-8.53c2.9-0.7,8.12,1.39,9.03,4.8c0.91,3.4,0.55,6.74-1.76,9.49
				c-1.19,1.42-1.53,2.71-1,4.36c1.43,4.4,2.87,8.79,4.32,13.18c0.07,0.22,0.24,0.4,0.37,0.6c2.23,0.24,4.49,0.26,6.64,0.76
				c5.92,1.36,11.73,6.68,9.44,14.58c-0.96,3.33-3.33,4.87-6.39,5.33c-2.82,0.42-5.73,0.31-8.6,0.43c-0.23,0.01-0.48-0.04-0.7-0.13
				c-0.63-0.25-1.65-0.28-1.43-1.26s1.09-0.59,1.8-0.49c3.27,0.46,6.54,0.29,9.75-0.41c2.22-0.48,3.56-1.9,4.19-4.13
				c1.14-4.02,0.05-7.23-3.24-9.74c-0.89-0.68-1.79-1.34-2.72-1.96c-0.71-0.47-1.47-0.67-2.18,0.04
				C65.1,69.19,65.15,69.23,65.15,69.23z M40.69,97.08c0.14-0.19,0.29-0.38,0.43-0.57c-4.93-1.36-6.17-5.66-7.87-9.47
				c-0.97,0.11-1.32,0.51-1.13,1.31c0.9,3.89,3.35,6.57,6.75,8.45C39.38,97.07,40.08,96.99,40.69,97.08z M33.13,84.53
				c-0.9,0.09-1.38,0.5-1.13,1.4c0.05,0.18,0.55,0.41,0.72,0.34C33.59,85.88,33.47,85.22,33.13,84.53z"/>
			<path d="M59.79,73.98c1.44-1.97,3.07-3.73,5.36-4.75c0,0-0.05-0.04-0.04-0.04c-1.26,1.28-2.5,2.58-3.81,3.81
				c-0.43,0.41-1.02,0.64-1.54,0.95L59.79,73.98z"/>
			<path d="M62.37,73.84c1.29-1.05,2.59-2.09,3.88-3.14c0.12,0.14,0.25,0.29,0.37,0.43c-1.26,1.06-2.53,2.12-3.79,3.18
				C62.67,74.16,62.52,74,62.37,73.84z"/>
			<path d="M59.75,73.95c-0.4,0.53-0.8,1.07-1.2,1.6c-0.15-0.16-0.3-0.32-0.44-0.47c0.56-0.36,1.12-0.73,1.68-1.09
				C59.79,73.98,59.75,73.95,59.75,73.95z"/>
		</g>
	</g>
	<path class="st1" d="M115.18,100.24c1.74-2.97,3.52-5.99,6.06-8.31c2.45-2.23,5.5-3.71,8.61-4.87c2.38-0.89,4.92-1.69,6.64-3.55
		s2.14-5.22,0.12-6.75c-1.3-0.05-1.86,1.56-2.41,2.74c-0.68,1.46-1.93,2.65-3.42,3.26c-2.08,0.85-4.58,0.61-6.44,1.87
		c-1.56,1.05-2.31,2.91-3.31,4.5c-2.03,3.25-5.22,5.59-7.7,8.51c-1.58,1.86-4.15,5.71-3.31,8.36c0.66,2.08,1.22,0.93,2.09-0.53
		C113.15,103.73,114.16,101.98,115.18,100.24z"/>
	<g>
		<path class="st0" d="M86.86,110.01c1.42,0.79,3.05,1.21,4.36,2.17c2.83,2.08,3.69,6.29,6.81,7.91c2.38,1.24,5.28,0.54,7.77-0.45
			c0.73-0.29,1.47-0.62,2.03-1.16c1.18-1.15,1.31-2.97,1.49-4.61c0.93-8.83,5.2-17.26,11.76-23.23c0.84-0.77,1.72-1.5,2.69-2.1
			c2.49-1.56,5.43-2.24,8.12-3.45c2.68-1.21,5.3-3.24,5.89-6.13c0.48-2.33-0.52-4.79-2.17-6.5s-3.88-2.76-6.15-3.47
			c-1.96-0.61-4.14-1.08-5.45-2.66c-0.81-0.98-1.16-2.27-1.85-3.34c-1.91-3.02-6.24-3.83-9.55-2.48s-5.67,4.37-7.18,7.61
			c-0.62,1.33-1.14,2.77-1.09,4.24s0.73,3,2.03,3.7c-4.05,5.17-8.14,10.31-12.27,15.42c-0.24,0.3-0.5,0.6-0.85,0.75
			c-0.53,0.22-1.14,0.02-1.7-0.12C80.9,89.42,79.11,105.73,86.86,110.01z"/>
		<path class="st1" d="M119.41,59.95c1.21,0.27,2.59,1,2.62,2.24c0.01,0.67-0.4,1.29-0.93,1.7s-1.17,0.65-1.78,0.91
			c-2.94,1.21-4.54,2.88-6.69,5.04c-1.54,1.55-2.38,1.22-3.38-0.97C106.21,62.23,113.8,58.72,119.41,59.95z"/>
		<path class="st1" d="M83.61,107.26c0.29,0.64,0.62,1.27,1.12,1.76c0.88,0.85,2.16,1.12,3.37,1.28c2.4,0.32,4.83,0.39,7.23,0.19
			c-0.74,2.72,0.67,5.7,2.91,7.42c2.24,1.71,5.14,2.33,7.96,2.41c-4.73,2.88-11.6,1.39-14.71-3.19c-0.63-0.93-1.12-1.95-1.83-2.81
			c-1.31-1.59-3.26-2.51-4.75-3.93c-1.94-1.84-3.32-5.03-2.81-7.67C82.49,104.27,82.94,105.79,83.61,107.26z"/>
		<g>
			<path d="M125.27,66.83c1.68,0,3.03-0.05,4.38,0.01c1.72,0.09,3.27,0.62,4.51,1.92c0.66,0.69,1.39,1.32,2.1,1.96
				c3.23,2.89,4.05,6.96,2,10.8c-2.12,3.94-5.34,6.55-9.86,7.17c-1.5,0.21-2.42,0.91-3.32,2.02c-2.82,3.46-5.75,6.83-8.57,10.28
				c-1.81,2.21-3.53,4.5-5.23,6.81c-0.24,0.33-0.13,0.91-0.2,1.37c-0.26,1.88-0.51,3.77-0.8,5.65c-0.1,0.63-0.49,1.25-0.44,1.85
				c0.19,2.14-1.12,3.45-2.55,4.56c-3.26,2.53-7.62,2.76-10.97,0.55c-2.37-1.57-4.45-3.32-5.83-5.86c-0.31-0.57-0.96-1.01-1.53-1.38
				c-0.73-0.47-1.53-0.86-2.34-1.21c-5.34-2.32-7.7-6.41-7.26-12.17c0.07-0.95,0.17-1.91,0.35-2.85c0.18-0.91,0.23-2,1.67-1.86
				c0.18,0.02,0.41-0.38,0.59-0.62c0.62-0.82,1.25-1.63,1.83-2.47c1.62-2.32,3.85-2.61,6.38-1.97c1.08,0.27,2.15,0.58,3.38,0.91
				c5.01-4.89,8.67-10.88,12.91-16.61c-2.67-3.07-1.57-6.42-0.56-9.71c0.95-3.09,3.04-5.18,6.07-6.32c0.45-0.17,0.89-0.36,1.31-0.6
				c4.74-2.64,9.56,0.61,10.98,4.66c0.18,0.52,0.27,1.08,0.44,1.61C124.86,65.83,125.08,66.34,125.27,66.83z M121.83,65.83
				c-0.08-1.45,0.15-2.56-0.26-3.3c-0.4-0.71-1.48-1.03-2.25-1.54c-0.2-0.13-0.36-0.32-0.54-0.47c-0.94-0.75-2.03-1-3.16-0.69
				c-4,1.11-7.51,2.83-8.59,7.36c-0.09,0.39-0.25,0.76-0.33,1.15c-0.59,2.73-0.95,5.4,2.05,6.88c-1.65,2.09-3.25,4.04-4.77,6.06
				c-1.15,1.53-2.15,3.17-3.3,4.69c-1.96,2.6-3.98,5.17-6,7.73c-0.64,0.8-1.22,0.78-2.21,0.16c-3.99-2.49-7.77-1.18-9.15,3.42
				c-0.73,2.45-0.7,5.06,0.38,7.36c1.75,3.71,4.39,6.27,9.36,4.89c0.5-0.14,1.03-0.15,1.64-0.23c0.1,0.47,0.24,0.77,0.22,1.06
				c-0.25,3.48,1.68,5.66,4.34,7.45c1.89,1.27,3.81,1.07,5.68,0.15c0.71-0.35,2.01-0.7,1.06-2.09c-0.11-0.16,0.22-0.7,0.44-0.99
				c0.56-0.78,1.13-1.56,1.77-2.26c1.03-1.12,1.16-2.44,0.85-3.81c-0.19-0.84-0.76-1.61-0.92-2.45c-0.16-0.81-0.33-1.91,0.07-2.49
				c1.39-2.03,2.81-4.13,4.62-5.75c1.87-1.67,3.48-3.46,4.87-5.53c1.42-2.12,2.94-4.18,4.45-6.24c0.29-0.39,0.74-0.67,1.1-0.98
				c0.91,0.76,0.38,1.3,0.05,1.8c-0.62,0.93-1.24,1.86-1.93,2.73c-2.79,3.48-4.69,7.63-8.08,10.67c-0.82,0.73-1.42,1.73-2.01,2.67
				c-0.17,0.28,0.02,0.78,0.07,1.78c0.98-1.14,1.62-1.83,2.2-2.56c3.76-4.74,7.53-9.48,11.26-14.24c0.59-0.75,1.22-1.1,2.21-1.13
				c4.34-0.13,7.58-2.18,9.73-5.93c0.92-1.6,0.99-2.47,0.47-4.25c-0.23,0.63-0.43,1.14-0.61,1.66c-0.83,2.48-2.29,4.45-4.83,5.28
				c-1.73,0.57-3.56,0.91-5.37,1.13c-1.08,0.13-2.23-0.11-3.32-0.34c-0.31-0.07-0.52-0.65-0.78-1c0.31-0.2,0.6-0.45,0.93-0.59
				c0.2-0.08,0.49-0.05,0.71,0.03c2.34,0.8,4.57,0.08,6.81-0.5c2.9-0.76,4.97-3.58,4.91-6.59c-0.11-5.6-4.6-8.43-9.41-7.36
				c-0.76,0.17-1.52,0.34-2.26,0.5c-0.94-1.56-0.21-3.43-1.41-4.86C122.34,64.8,122.17,65.13,121.83,65.83z M92.98,111.43
				c-6.43,0.78-9.85-2.64-11.87-8.14c-0.06,2.75,1.06,5.03,3.09,6.65c1.53,1.23,3.36,2.24,5.21,2.87c1.52,0.52,2.28,1.29,3.02,2.66
				c1.98,3.68,5.15,5.79,9.4,6.05c0.38,0.02,0.78-0.2,1.17-0.3C97.85,119.82,94.09,117.19,92.98,111.43z"/>
			<path d="M87.15,102.13c-0.95,0.62-1.9,1.24-2.85,1.85c0.51-1.44,1.61-1.8,2.89-1.81L87.15,102.13z"/>
			<path d="M87.18,102.17c0.49-0.26,0.97-0.52,1.46-0.78c0.05,0.14,0.09,0.27,0.14,0.41c-0.54,0.11-1.09,0.22-1.63,0.34
				C87.15,102.13,87.18,102.17,87.18,102.17z"/>
		</g>
	</g>
	<g>
		<path class="st0" d="M43.39,128.56c0.96-1.23,2.32-2.07,3.59-2.97c1.62-1.15,3.13-2.45,4.51-3.87c1.07-1.1,2.07-2.28,3.33-3.16
			c1.26-0.87,2.85-1.42,4.34-1.04c2.54,0.65,3.58,3.79,2.25,5.92c-1.38,2.22-4.54,2.97-6.28,5c-2.39,2.78-3.37,7.45-7.84,7.07
			C43.68,135.2,40.8,131.88,43.39,128.56z"/>
		<path class="st1" d="M56.76,127.82c1.19-0.86,2.39-1.72,3.32-2.85s1.6-2.55,1.51-4.01c-0.01-0.21-0.05-0.44-0.2-0.59
			c-0.31-0.32-0.85-0.08-1.22,0.16c-3.58,2.38-6.88,5.18-9.81,8.32c-1.23,1.32-1.25,2.99,0.82,2.74
			C52.99,131.37,55.33,128.86,56.76,127.82z"/>
		<path d="M57.49,115.26c1.64,1.41,3.22,2.51,4.46,3.91c1.29,1.44,1.22,1.79,0.07,3.35c-1.03,1.41-2.12,2.81-3.36,4.04
			c-2.09,2.08-4.5,3.86-6.43,6.07c-1.2,1.36-2.56,2.2-4.11,2.96c-2.95,1.46-4.67,0.94-6.57-2.13c-1.01-1.64-0.2-4.56,1.53-5.99
			c2.94-2.44,5.81-4.97,8.73-7.44C53.57,118.53,55.35,117.06,57.49,115.26z M43.99,131.35c0.14,1.31-0.17,3.07,1.53,3.36
			c1.33,0.23,2.56-0.68,3.19-2.05c0.06-0.13,0.04-0.3,0.08-0.66c-0.81-0.88-1.71-1.85-2.49-2.7c-1.1,0.32-1.89,0.55-2.83,0.82
			c0.2,0.47,0.37,0.87,0.55,1.28L43.99,131.35z M50.65,131.44c1.02-1.03,1.91-1.91,2.79-2.8c0.77-0.79,0.86-1.65,0.25-2.59
			c-0.35-0.54-0.62-1.13-0.93-1.7c0.13-0.08,0.27-0.16,0.4-0.25c0.6,0.76,1.2,1.53,1.74,2.22c2.31-0.83,0.3-2.42,0.84-3.7
			c0.49,0.52,0.89,0.95,1.31,1.39c1.16-0.78,2.25-1.42,3.22-2.22c0.34-0.28,0.62-0.98,0.51-1.38c-0.57-2.16-3.41-3.17-5.07-1.76
			c-2.61,2.22-5.14,4.54-7.67,6.85c-0.51,0.47-0.88,1.08-1.38,1.72C47.99,128.63,49.23,129.94,50.65,131.44z"/>
	</g>
	<g>
		<path class="st0" d="M117.7,111.85c-0.32-0.04-0.67-0.09-0.89-0.33c-0.19-0.2-0.24-0.5-0.29-0.77c-0.29-1.83-0.55-3.73-0.11-5.53
			c0.44-1.8,1.74-3.52,3.55-3.91c1.59-0.34,3.18,0.37,4.67,1.01c1.78,0.77,3.59,1.48,5.43,2.11c1.31,0.46,4.14,0.72,5.16,1.58
			c1.66,1.39,1.34,6.39-0.93,7.35c-1.73,0.74-4.4-0.83-6.17-1.03C124.68,111.95,121.17,112.27,117.7,111.85z"/>
		<path class="st1" d="M118.2,108.97c0.38-0.33,0.92-0.4,1.42-0.45c3.7-0.36,7.42-0.56,11.13-0.6c0.39,0,0.82,0.02,1.07,0.31
			c0.2,0.24,0.21,0.57,0.22,0.88c0.01,0.59,0.01,1.18,0.02,1.77c0,0.24,0,0.49-0.14,0.68c-0.18,0.24-0.51,0.29-0.81,0.32
			c-3.05,0.3-6.13,0.26-9.18-0.09C121.12,111.69,115.85,111.02,118.2,108.97z"/>
		<path d="M117.24,103.87c1.03-0.39,1.97-0.78,2.94-1.1c0.44-0.15,1.1-0.37,1.37-0.17c2.03,1.51,4.46,1.1,6.67,1.24
			c3.02,0.19,5.69,1.52,8.59,2.02c0.79,0.14,1.03,0.78,0.81,1.47c-0.51,1.59-1.01,3.2-1.69,4.71c-0.55,1.21-1.71,1.57-3.02,1.5
			c-2.39-0.12-4.79-0.08-7.16-0.34c-2.6-0.29-5.19-0.78-7.76-1.31c-1.43-0.3-1.49-0.66-1.3-2.18
			C116.93,107.82,117.05,105.93,117.24,103.87z M123.17,110.59c2.78,0.86,5.09,0.58,7.47,0.42c0.16-1.72,0.3-3.18,0.46-4.82
			c-1.33-0.29-2.46-0.67-3.62-0.75c-0.58-0.04-1.43,0.32-1.76,0.79C124.81,107.5,124.12,108.92,123.17,110.59z M125.37,105.4
			c-1.85-0.78-3.52-0.49-5.13-0.23c-1.14,0.18-1.59,1.17-1.55,2.87c0.02,1.13,0.06,2.3,1.57,2.3c0.76-1.6,1.49-3.13,2.22-4.65
			c0.17,0.07,0.34,0.14,0.51,0.22c-0.62,1.52-1.23,3.04-1.93,4.77c0.66-0.1,1.01-0.06,1.09-0.18
			C123.21,108.85,124.24,107.2,125.37,105.4z M135.84,107.48c-1.83-0.22-2.29-0.01-2.67,1.03c-0.44,1.24-0.08,2.39,1.07,3.17
			C135.41,110.57,135.48,109.06,135.84,107.48z"/>
	</g>
	<g>
		<path class="st0" d="M93.02,52.93c5.5,1.77,12.02-0.37,15.41-5.04c0.5-0.69,0.95-1.44,1.64-1.93c0.62-0.45,1.38-0.65,2.11-0.85
			c7.55-1.99,15.5-3.99,23.08-2.13c1.84,0.45,3.7,1.13,5.57,0.82c1.89-0.31,3.47-1.61,4.71-3.06c3.09-3.64,4.28-9.65,0.84-12.96
			c-1.1-1.06-2.61-1.78-3.29-3.16c-1.36-2.73,1.3-6.38-0.36-8.94c-0.58-0.9-1.58-1.43-2.57-1.85c-3.69-1.56-8.03-2.02-11.66-0.33
			c-3.63,1.69-6.21,5.88-5.23,9.77c-8.25,1.31-16.57,2.24-24.91,2.79c-0.78,0.05-1.64,0.08-2.27-0.4c-0.6-0.46-0.82-1.24-1.2-1.9
			c-0.98-1.69-3.11-2.42-5.06-2.33c-3.58,0.18-6.88,2.91-7.72,6.39c-0.9,3.7,0.99,7.06,3.84,9.25c-1.84,3.85-3.13,5.09-0.69,9.38
			C86.94,49.45,89.73,51.87,93.02,52.93z"/>
		<path class="st1" d="M106.6,51.67c1.78-1.75,3.03-4.03,5.07-5.46c1.41-0.99,3.09-1.5,4.75-1.96c2.64-0.72,5.32-1.34,8.01-1.84
			c2.02-0.38,4.1-0.69,6.12-0.3c1.91,0.37,3.65,1.36,5.56,1.76s4.22,0,5.18-1.69c-4.43-2.07-9.26-3.29-14.14-3.56
			c-3.89-0.22-7.8,0.16-11.66-0.29c-1.92-0.22-3.97-0.62-5.7,0.24c-1.48,0.73-2.39,2.23-3.39,3.54c-1.79,2.33-4.11,4.19-6.72,5.52
			c-2.02,1.03-4.52,1.7-4.94,4.34C93.7,58.29,104.45,53.78,106.6,51.67z"/>
		<path class="st1" d="M133.79,12.87c1.42-0.44,2.94-0.39,4.43-0.32c0.92,0.04,1.95,0.13,2.56,0.82c0.42,0.47,0.54,1.13,0.63,1.75
			c0.3,2.14,0.4,4.31,0.29,6.46c-0.59,0.52-1.51,0.47-2.23,0.14c-0.71-0.33-1.29-0.89-1.93-1.36c-1.37-1.01-2.97-1.54-4.61-1.87
			c-0.99-0.2-3.86,0.13-4.54-0.63C127.01,16.31,132.24,13.35,133.79,12.87z"/>
		<g>
			<path d="M97.95,25.44c8.45-0.26,16.91,0.05,25.49-1c0-3.45,1.53-6.11,3.73-8.39c2.14-2.22,4.71-3.61,7.84-4.28
				c3.49-0.75,5.92,1.36,8.78,2.51c1.57,3.04,1.07,6.21-0.18,9.35c3.41,1.45,4.89,4.01,6.03,7.21c1.09,3.05,0.73,5.6-0.74,8.22
				c-0.23,0.42-0.44,0.88-0.78,1.2c-3.34,3.11-7.06,5.27-11.85,4.43c-0.99-0.17-1.96-0.67-2.85-1.16c-1.46-0.8-2.82-1.15-4.54-0.6
				c-1.96,0.63-4.08,0.73-6.11,1.19c-3.81,0.86-7.61,1.82-11.41,2.73c-1.47,0.35-2.5,1.31-3.52,2.36c-1.38,1.43-2.8,2.84-4.37,4.05
				c-3.21,2.46-6.85,2.73-10.69,1.79c-2.58-0.63-5.06-1.42-7.17-3.13c-1.1-0.89-1.94-1.88-1.97-3.39c-0.01-0.55-0.11-1.12-0.3-1.63
				c-1.08-2.95-0.78-5.64,1.36-8.04c0.15-0.16,0.2-0.41,0.29-0.6c-0.13-0.16-0.2-0.35-0.33-0.39c-3.36-1.2-3.99-4.07-4.32-7.09
				c-0.34-3.09,1.36-5.25,3.64-6.84c1.68-1.16,3.64-2.02,5.6-2.64c3.29-1.04,6.07,0.25,7.83,3.3
				C97.57,24.86,97.75,25.11,97.95,25.44z M140.85,21.24c-1.35,0.24-2.7,0.49-4.39,0.79c1.36-1.13,2.62-1.89,4.08-2.31
				c1.11-0.32,1.51-0.98,0.97-2.19c-1.43,0.6-2.75,1.16-4.08,1.72c-0.07-0.16-0.14-0.31-0.21-0.47c1.1-0.61,2.22-1.2,3.31-1.84
				c1.34-0.79,1.37-1.66,0.01-2.48c-1.53-0.92-3.11-1.42-5-1.16c-4.48,0.6-7.25,3.48-9.58,6.92c-0.83,1.22-1.3,2.74-0.35,4.3
				c0.22,0.36,0.03,0.98,0.03,1.45c-1.31,0.07-2.33,0.13-3.36,0.18c-5.42,0.25-10.84,0.57-16.27,0.74c-3.15,0.1-6.34-0.5-9.43,0.89
				c-0.31-0.72-0.6-1.28-0.8-1.88c-0.73-2.24-2.43-3.59-4.6-3.26c-3.35,0.51-6.28,1.94-8.24,4.83c-2.17,3.2-0.65,7.72,2.96,9.07
				c0.61,0.23,1.19,0.55,1.89,0.87c-1.04,2.27-3.74,3.46-2.83,6.48c0.83-0.51,1.58-0.93,2.28-1.4c0.69-0.47,1.34-0.99,2.01-1.5
				c-0.03,0.63-0.28,1.01-0.63,1.26c-1.04,0.74-2.09,1.47-3.18,2.14c-1.09,0.67-0.94,1.27-0.13,1.95c1.85-0.71,3.18-2.31,5.61-2.54
				c-1.77,1.64-3.94,2.1-5.15,3.83c0.5,1.12,1,2.05,2.19,2.47c5.31,1.91,12.69,0.24,15.32-4.62c0.3-0.56,0.89-0.98,1.1-1.56
				c0.85-2.33,2.83-2.8,4.91-3.16c0.39-0.07,0.79-0.14,1.18-0.21c4.88-0.8,9.76-1.64,14.65-2.39c1.49-0.23,3.04-0.42,4.52-0.29
				c1.24,0.12,2.15-0.06,2.74-1.21c1.67,0.62,3.59,0.46,4.33,2.49c0.08,0.22,0.53,0.33,0.81,0.46c2.68,1.23,5.64,0.67,7.62-1.54
				c0.74-0.83,1.43-1.73,1.96-2.7c2.15-3.92,0.12-8.66-4.18-9.93c-0.51-0.15-1-0.38-1.49-0.57c0.12-0.84,0.23-1.54,0.33-2.23
				c0.37-0.79,0.74-1.59,1.11-2.38c-0.15-0.1-0.3-0.2-0.44-0.29C141.91,20.41,141.38,20.83,140.85,21.24z M143.05,41.51
				c-0.49-0.03-0.88-0.14-1.23-0.06c-2.2,0.51-4.2,0.18-6.21-0.89c-0.92-0.49-2.14-0.65-3.19-0.58c-3.57,0.25-7.13,0.64-10.68,1.04
				c-3.38,0.38-6.75,0.85-10.33,1.3c0.18,1.05,0.3,1.78,0.46,2.73c1.1-0.28,1.93-0.48,2.76-0.71c1.38-0.37,2.75-0.83,4.14-1.13
				c4.12-0.89,8.25-1.75,12.39-2.55c0.56-0.11,1.26,0.04,1.78,0.29c0.63,0.3,1.14,0.86,1.71,1.29
				C136.87,43.93,140.85,43.64,143.05,41.51z M107.85,43.02c-1.32,1.61-2.3,2.86-3.33,4.05c-1.85,2.12-3.81,4.05-6.81,4.5
				c-1.86,0.28-3.68,0.76-6.03,1.25c3.89,1.56,7.17,1.4,10.36-0.62c2.76-1.75,4.6-4.35,6.5-7.03
				C108.38,44.66,108.19,44.07,107.85,43.02z M110.9,44.98c-0.15-0.94,0.07-2.06-1.46-2.11C108.98,45.29,109.02,45.35,110.9,44.98z"
				/>
		</g>
	</g>
	<g>
		<path class="st0" d="M15.08,87.01c-2.43,2.14-5.04,4.36-8.23,4.92C6,92.08,5.1,92.1,4.3,91.77s-1.47-1.06-1.54-1.92
			C2.69,89,3.22,88.19,3.91,87.68c0.69-0.51,1.52-0.78,2.32-1.07c1.75-0.62,3.46-1.35,5.12-2.19c3.1-1.56,6.5-3.54,9.8-2.48
			c0.34,1.24-0.24,2.58-1.14,3.5s-2.09,1.48-3.25,2.03c-2.32,1.1-4.65,2.2-6.97,3.3"/>
		<path d="M8.16,89.61c0.27,0.47,0.61,0.8,0.55,1.02c-0.07,0.27-0.49,0.61-0.75,0.6c-0.24-0.01-0.67-0.47-0.64-0.68
			C7.36,90.27,7.75,90.04,8.16,89.61z"/>
		<path class="st1" d="M20.6,84.36c0.37-0.58,0.62-1.51,0.02-1.85c-0.24-0.14-0.55-0.11-0.83-0.07c-2.4,0.34-11.42,2.66-8.27,6.41
			C14.2,92.04,19.18,86.57,20.6,84.36z"/>
		<path d="M5.15,86.89c3.41-2.37,6.95-4.79,10.43-7.31c0.96-0.7,1.72-0.93,2.78-0.23c1.12,0.73,2.44,1.18,3.55,1.93
			c1.66,1.11,1.68,3.61,0.04,4.78c-2.97,2.13-6.04,4.13-8.98,6.3c-1.83,1.35-3.88,1.31-5.92,1.23c-1.68-0.07-3.03-2.43-2.57-4.15
			C4.71,88.63,4.91,87.83,5.15,86.89z M12.28,85.53c0.16-0.15,0.31-0.3,0.47-0.45c0.86,1.05,1.73,2.1,2.57,3.12
			c4.17-2.44,5.23-3.43,5.84-5.43c-2.49-2.08-3.64-2.27-6.18-0.76c-1.99,1.18-3.91,2.47-5.83,3.77c-0.46,0.31-0.75,0.86-1.16,1.34
			c1.67,1.15,3.92,0.78,4.77,2.89c0.42-1.95-1.95-2.27-2.31-3.94c1.8,0.26,2.24,2.27,4.16,2.68C13.67,87.44,12.97,86.49,12.28,85.53
			z M7.94,89.11c-1.08-0.03-1.67,0.51-1.68,1.51c0,1.01,0.56,1.57,1.61,1.61c1.39,0.05,2.84-0.72,2.86-1.53
			C10.76,89.8,9.62,89.15,7.94,89.11z"/>
	</g>
</g>
</svg>
