<svg width="42" height="23" viewBox="0 0 42 23" fill="none" xmlns="http://www.w3.org/2000/svg">
<path d="M36.5905 9.94727C36.3718 9.4007 36.2982 8.80898 36.1556 8.23627C35.7516 6.60132 34.7915 5.16837 33.8505 3.77106C33.563 3.34331 33.2564 2.89892 32.8001 2.65891C32.4579 2.47831 32.0611 2.43078 31.6761 2.38562C22.4153 1.32338 13.0857 0.532048 3.77977 1.05723C1.72182 6.00248 4.62338 12.143 2.04501 16.8364C1.69568 17.4733 1.2513 18.065 0.982768 18.7399C0.714237 19.4171 0.650074 20.2299 1.04931 20.8382C1.57924 21.6486 2.68426 21.8007 3.65144 21.8482C4.99647 21.9147 6.61954 21.7721 7.24691 20.5792C7.42989 20.2299 7.50356 19.8211 7.7507 19.5146C8.17132 18.9942 8.93414 18.9419 9.60428 18.9324C13.4445 18.8801 17.2847 18.8302 21.1226 18.7779C22.0779 18.766 23.0855 18.7636 23.9172 19.2318C24.9747 19.8259 25.5736 21.0782 26.6928 21.544C27.8787 22.0359 29.2165 21.487 30.3786 20.9452C30.1719 20.1705 30.7564 19.3601 31.4884 19.0322C32.2203 18.7042 33.0568 18.7328 33.8576 18.7708C36.4051 18.8896 40.022 19.7237 40.8109 16.4728C41.165 15.0137 41.3028 13.5855 39.9103 12.8322C38.5985 12.1264 37.1822 11.4278 36.5905 9.94727Z" fill="white"/>
<path d="M27.8003 1.02676L2.54888 0.0239258L1.89062 0.601385L2.37778 16.478L7.09015 16.7346L26.3293 16.8772L28.4586 16.5089L27.8003 1.02676Z" fill="#EB584A"/>
<path d="M26.3651 16.7651C25.4882 16.7651 24.6137 16.7627 23.7368 16.7627C23.5467 16.7627 23.3542 16.7627 23.1665 16.7936C22.5938 16.891 22.109 17.2784 21.7192 17.7085C21.5386 17.9105 21.3675 18.1267 21.2701 18.3786C21.2297 18.4832 21.2036 18.6091 21.2677 18.7018C21.3105 18.7612 21.3818 18.7921 21.4507 18.8183C21.9236 18.9846 22.4393 18.9323 22.9383 18.8801C23.3447 18.8373 23.7487 18.7945 24.155 18.7517C24.3927 18.7256 24.6327 18.7018 24.8632 18.6329C25.5286 18.4357 26.068 17.8606 26.2201 17.1857" fill="#BCBCBB"/>
<path d="M7.48915 18.7899C7.56757 18.8636 7.67689 18.8945 7.78145 18.9182C8.09038 18.9895 8.40406 19.0323 8.72012 19.0489C9.05519 19.0656 9.39263 19.0489 9.7277 19.0323C11.365 18.9515 13 18.8731 14.6373 18.7923C14.9225 18.778 15.2338 18.7543 15.45 18.5665C15.6615 18.3835 15.7281 18.0532 15.6069 17.8013C15.4263 17.4259 14.9534 17.3189 14.5399 17.2595C12.7124 16.9957 10.8731 16.8056 9.02905 16.6916C8.49436 16.6583 7.21587 16.3232 6.91169 16.9292C6.71921 17.3166 7.21111 18.5261 7.48915 18.7899Z" fill="#BCBCBB"/>
<path d="M33.7177 8.3626C33.865 8.1416 34.0742 7.94199 34.1122 7.67821C34.1478 7.43344 34.0266 7.1958 33.9078 6.97718C33.6559 6.50903 33.404 6.04326 33.1521 5.57511C33.0785 5.43966 32.9573 5.28044 32.8076 5.32084C32.7244 5.3446 32.6697 5.4254 32.6246 5.49907C31.9948 6.53042 31.3651 7.56414 30.7354 8.59549C30.6759 8.69292 30.6142 8.79749 30.6189 8.91155C30.6237 9.06127 30.7472 9.18721 30.8874 9.24187C31.0276 9.29652 31.1821 9.29415 31.3318 9.29177C31.895 9.28226 32.5723 9.37732 33.1212 9.26325C33.5704 9.1682 33.4872 8.71431 33.7177 8.3626Z" fill="#BCBCBB"/>
<path d="M41.1584 19.3771C41.0205 18.8281 40.9445 18.2649 40.9302 17.7017C40.2458 17.7374 39.5591 17.735 38.8747 17.6993C38.6275 17.6851 38.378 17.6684 38.1285 17.6827C37.8291 17.6993 37.532 17.7611 37.2516 17.8633C37.1565 17.8989 37.0615 17.9393 36.9854 18.0083C36.9118 18.0748 36.8642 18.1651 36.8167 18.253C36.6504 18.5596 36.4864 18.9398 36.6646 19.2392C36.8524 19.5505 37.2849 19.5695 37.6461 19.56C38.6489 19.5291 39.6541 19.541 40.6569 19.5957" fill="#BCBCBB"/>
<path d="M7.67487 19.3343C7.66061 19.446 7.65348 19.5601 7.63447 19.6718C7.52278 20.3324 7.2186 20.8932 6.7053 21.321C6.41539 21.5634 6.08982 21.7654 5.77852 21.984C4.6735 22.7635 2.74388 23.0462 1.37271 21.7012C1.15646 21.4873 0.925946 21.283 0.742964 21.043C0.0205443 20.1019 -0.25274 19.0587 0.274817 17.9513C0.583746 17.3049 1.01862 16.7132 1.58896 16.2546C2.22107 15.746 2.94112 15.5036 3.76572 15.6224C4.01049 15.6581 4.25763 15.67 4.50478 15.6747C5.03946 15.6842 5.4981 15.9005 5.93773 16.1785C6.08269 16.2688 6.22765 16.3615 6.35836 16.4708C6.57223 16.6514 6.817 16.7037 7.09028 16.7346C8.91059 16.9318 10.7333 16.8344 12.5536 16.8154C13.844 16.8011 15.1343 16.7465 16.4247 16.7251C16.7835 16.7179 17.1424 16.7821 17.5012 16.7869C18.4494 16.8011 19.3976 16.8059 20.3457 16.8082C21.5411 16.8106 22.7388 16.8011 23.9341 16.8011C24.5234 16.8011 25.1199 16.7631 25.6855 16.9485C25.9326 17.0292 26.1298 17.0102 26.3271 16.8772C26.7168 16.6158 27.1636 16.5326 27.6151 16.4589C27.7387 16.4375 27.8622 16.4233 27.9906 16.4043C27.9668 16.1643 27.9454 15.9575 27.9216 15.727C27.3038 15.2874 26.6812 14.8454 26.0562 14.4034C26.7691 14.5531 27.2515 15.1163 27.9478 15.4323C27.9715 15.1234 28.0001 14.881 28.0048 14.6386C28.0096 14.2964 27.9834 13.9542 27.9929 13.612C28.0143 12.8136 28.0547 12.0175 28.069 11.219C28.0761 10.8412 28.0405 10.4609 28.0191 10.0807C27.9668 9.17293 27.8789 8.26516 27.8646 7.35738C27.8527 6.67536 27.9288 5.99333 27.9787 5.31131C28.0666 4.09461 28.0262 2.88265 27.9502 1.66832C27.9383 1.46871 27.9906 1.25483 28.0618 1.06472C28.0951 0.976794 28.2425 0.929268 28.3969 0.824707C28.4159 1.22632 28.4326 1.54237 28.4468 1.86318C28.5799 1.91546 28.6797 1.98438 28.7866 1.99626C29.673 2.09369 30.5571 2.184 31.4458 2.26717C32.047 2.3242 32.653 2.35985 33.2542 2.41451C33.3018 2.41926 33.3445 2.47392 33.4016 2.51194C33.3826 2.64026 33.3636 2.76621 33.3517 2.83988C33.5061 2.97533 33.6677 3.05851 33.7366 3.19158C33.8697 3.43873 33.9743 3.70964 34.048 3.98055C34.3997 5.27805 35.1363 6.3997 35.6829 7.6069C35.9324 8.15822 36.1962 8.70479 36.4528 9.25136C36.6929 9.76466 37.0755 10.2043 37.2276 10.7675C37.2608 10.8934 37.4058 11.0146 37.5294 11.0859C37.8716 11.2855 38.2375 11.4424 38.5773 11.6467C39.1453 11.9866 39.699 12.3478 40.2622 12.6995C40.5022 12.8492 40.7351 13.0155 40.9917 13.1296C41.2222 13.2318 41.2983 13.3934 41.2983 13.6191C41.3007 14.7574 41.3482 15.8981 41.2864 17.034C41.2484 17.7374 41.2104 18.4384 41.2912 19.1371C41.3316 19.4959 41.2151 19.755 40.9537 20.0092C40.7327 19.8667 40.5093 19.7954 40.2717 19.9142C40.015 19.7312 39.7228 19.8049 39.4423 19.8049C38.1116 19.8001 36.7832 19.7954 35.4524 19.7859C35.3003 19.7859 35.1482 19.7692 34.9961 19.7573C34.5422 19.7264 34.0836 19.6385 33.6368 19.6813C32.9738 19.7455 32.3156 19.774 31.6549 19.7169C31.6264 19.7146 31.5932 19.755 31.5646 19.774C31.5551 19.7906 31.5361 19.8049 31.5337 19.8215C31.5266 19.9926 31.5195 20.1613 31.5171 20.3324C31.5076 21.2355 31.1606 21.9602 30.3741 22.4284C30.1174 22.5805 29.8204 22.6637 29.54 22.773C28.6227 23.1366 27.703 23.0225 26.8071 22.7207C26.2463 22.533 25.7259 22.2169 25.3742 21.7297C24.8704 21.0287 24.5282 20.2469 24.4925 19.3629C24.4878 19.2512 24.464 19.1395 24.4426 18.9826C24.1979 18.947 23.9578 18.8805 23.7178 18.8828C23.2069 18.8876 22.696 18.9304 22.1827 18.9517C21.2345 18.9921 20.2863 19.0611 19.3382 19.0634C17.4774 19.0682 15.6215 19.1965 13.7584 19.1395C12.3207 19.0943 10.8759 19.1466 9.43814 19.2773C9.34546 19.2868 9.25041 19.2512 9.15536 19.2512C8.68246 19.2488 8.21193 19.2488 7.71527 19.2488C7.6915 19.3035 7.67725 19.3177 7.67487 19.3343ZM39.3544 18.5573C39.2427 18.9898 39.2522 19.042 39.5065 19.2892C39.6752 19.0634 39.4328 18.8614 39.4756 18.6499C39.5659 18.7569 39.6562 18.8638 39.7893 19.023C39.8558 18.7094 39.8867 18.4408 39.7584 18.1913C39.7251 18.1295 39.5778 18.1248 39.4281 18.0772C39.4518 18.3101 39.4685 18.486 39.4851 18.6642C39.4423 18.6286 39.3972 18.5929 39.3544 18.5573ZM33.8911 5.68441C34.0147 6.10027 34.1549 6.50901 34.2856 6.9225C34.3498 7.12449 34.4305 7.30985 34.768 7.26233C34.6516 7.00093 34.5422 6.77042 34.4472 6.53515C34.2999 6.16919 34.1691 5.7961 34.0123 5.43489C33.9576 5.30656 33.8436 5.20437 33.758 5.08793C33.7961 4.70533 33.682 4.3774 33.3873 4.11124C33.5133 4.43443 33.6392 4.75762 33.7652 5.0808C33.8056 5.28042 33.8317 5.48717 33.8911 5.68441ZM27.9525 19.7882C28.2116 19.9379 28.473 20.09 28.732 20.2421C28.8556 20.3134 28.9791 20.3871 29.0908 20.4536C29.2595 20.2944 29.2191 20.178 29.1003 20.0853C28.9055 19.9332 28.7011 19.7977 28.5039 19.648C28.4064 19.5744 28.3185 19.4888 28.2472 19.3795C28.6773 19.4342 28.9577 19.7668 29.319 19.9617C29.3594 19.4769 29.0932 18.9874 28.6441 18.7735C28.1735 18.5525 27.6745 18.4646 27.1493 18.5406C26.8784 18.581 26.7192 18.7236 26.5885 18.9612C26.1417 19.7692 26.8927 21.0643 27.848 21.0263C27.943 21.0216 28.0618 21.043 28.1236 20.9931C28.2876 20.8624 28.4563 20.8576 28.6488 20.879C28.6963 20.8837 28.7558 20.7911 28.8508 20.7055C28.7154 20.5748 28.5918 20.4679 28.4825 20.3491C28.3042 20.1637 28.0286 20.0663 27.9597 19.7811L27.9525 19.7882ZM33.7699 15.3396C34.0313 15.5226 34.2951 15.7009 34.5517 15.8886C34.7015 15.9979 34.8417 16.1262 35.0104 16.2664C35.172 16.0787 35.1221 15.891 35.115 15.7104C35.0746 14.8192 35.027 13.9281 35.0009 13.0369C34.9866 12.5046 35.0056 11.9723 35.0128 11.4424C35.0151 11.276 35.0318 11.1121 35.0413 10.9623C35.3074 10.8768 35.3645 11.0099 35.3645 11.1786C35.3621 11.6539 35.393 12.1339 35.3336 12.6021C35.2076 13.593 35.4096 14.5744 35.3906 15.5606C35.3811 15.9955 35.4025 16.4328 35.412 16.8677C35.4191 17.1457 35.4286 17.4237 35.4405 17.7374C37.2347 17.8705 38.9694 17.6661 40.6947 17.7232C40.8254 16.6514 40.9181 16.5825 40.6899 15.7864C40.2052 15.7246 39.7037 15.6581 39.2118 15.5963C39.0312 14.9689 39.1786 13.6025 39.4994 13.006C39.7037 13.1843 39.6966 13.3958 39.6538 13.6168C39.6016 13.8972 39.5303 14.1752 39.497 14.4556C39.4709 14.679 39.4922 14.9048 39.4922 15.1876C39.7085 15.2375 39.9176 15.2826 40.2313 15.3539C40.141 15.1828 40.1053 15.1068 40.0626 15.0378C40.0222 14.9737 39.9746 14.9166 39.9295 14.8549C39.9723 14.8311 40.0103 14.7955 40.0269 14.8026C40.2456 14.9024 40.4594 15.0093 40.7541 15.1519C40.6947 14.9856 40.6852 14.8335 40.6258 14.8145C40.2836 14.6909 40.1172 14.3891 39.8131 14.1111C40.2503 14.0873 40.4452 14.3677 40.6947 14.5602C40.8753 14.256 40.8444 13.9827 40.659 13.7403C40.3715 13.3625 40.0388 13.0322 39.6063 12.8064C38.8174 12.3929 38.0426 11.9533 37.2489 11.5446C36.9258 11.3782 36.7451 11.1453 36.6121 10.8031C36.3958 10.2399 36.0988 9.70525 35.8279 9.16343C35.7803 9.06838 35.6924 8.9947 35.5688 8.84499C35.5332 9.02797 35.5023 9.13016 35.4952 9.23472C35.4857 9.38681 35.4928 9.5389 35.4928 9.69099C35.4952 10.0617 35.4667 10.4277 35.0841 10.6225C34.7894 10.7722 34.1335 10.6225 33.884 10.3041C33.6107 9.95476 33.2804 9.82881 32.855 9.80505C32.0399 9.76228 31.2272 9.67911 30.4145 9.61494C30.3004 9.60544 30.1863 9.61732 30.0723 9.60069C29.5114 9.51751 29.3712 9.35591 29.3285 8.78558C29.2144 7.23143 29.1835 5.6749 29.2049 4.11837C29.2096 3.8142 29.2405 3.51477 29.3997 3.20109C30.645 3.18921 31.8712 3.36031 33.1568 3.6122C33.0998 3.26287 33.0926 2.98959 32.9215 2.74958C31.4458 2.62838 29.9772 2.50956 28.492 2.38837C28.3636 2.6973 28.4397 3.02048 28.4397 3.33654C28.4373 4.11362 28.4349 4.8907 28.4373 5.6654C28.4397 6.29039 28.4468 6.91775 28.454 7.54274C28.454 7.61878 28.4682 7.69482 28.4706 7.77087C28.492 9.55553 28.5205 11.3402 28.5276 13.1249C28.53 13.8259 28.4753 14.5293 28.4563 15.2303C28.4444 15.6605 28.454 16.093 28.454 16.5112C28.8651 16.6847 29.2999 16.8677 29.7301 17.053C29.799 17.0839 29.8727 17.1196 29.9226 17.1742C30.2196 17.5069 30.5927 17.5425 31.0109 17.5212C31.5599 17.4926 32.1064 17.5164 32.6554 17.6043C33.2709 17.7041 33.903 17.7113 34.528 17.7493C34.6753 17.7588 34.8274 17.7208 34.9747 17.7041C35.2243 17.3358 35.0246 16.9485 35.0983 16.6419C34.6278 16.1761 34.2 15.7531 33.7747 15.3325C33.7794 15.3301 33.7699 15.3396 33.7699 15.3396ZM33.316 8.49329C33.2994 8.33883 33.2138 8.17248 33.1117 8.05128C32.9905 7.91107 32.817 7.81364 32.6697 7.6972C32.5294 7.58789 32.3916 7.47382 32.3108 7.28846C32.6625 7.51897 33.0166 7.75186 33.3588 7.97761C33.5228 7.86592 33.5489 7.74473 33.4348 7.62591C33.278 7.46194 33.1069 7.31223 32.9358 7.16252C32.7528 7.00092 32.5627 6.84646 32.4273 6.61357C32.5461 6.69675 32.6625 6.78229 32.7813 6.86547C32.9215 6.9629 33.0618 7.06033 33.202 7.15777C33.3374 7.2552 33.4729 7.355 33.6012 7.45006C34.0075 7.11023 34.0076 7.09123 33.6677 6.81557C33.6677 6.58506 33.7153 6.37356 33.6582 6.19296C33.4586 5.54183 33.2257 4.9002 33 4.25383C32.9429 4.08986 32.8645 3.93777 32.6744 3.89024C31.7143 3.6431 30.7424 3.53853 29.7515 3.56705C29.5756 3.85222 29.5566 4.1255 29.5637 4.41304C29.5756 4.90495 29.5495 5.39687 29.5756 5.8864C29.6255 6.87022 29.6944 7.85404 29.7705 8.83549C29.7942 9.12541 29.9226 9.23472 30.2101 9.26324C30.4168 9.28462 30.626 9.27037 30.8351 9.287C31.5718 9.34641 32.3061 9.41057 33.0427 9.46998C33.133 9.47711 33.2257 9.46285 33.3208 9.4581C33.3255 9.09214 33.3493 8.79034 33.316 8.49329ZM10.8426 18.4289C11.622 18.4456 12.3991 18.4598 13.1786 18.4717C14.7351 18.4955 16.2916 18.5311 17.8458 18.5383C19.2692 18.5454 20.6951 18.5359 22.1185 18.5121C22.7031 18.5026 23.2853 18.4384 23.8723 18.398C24.0672 18.0107 24.0624 17.6376 24.0434 17.2003C19.0958 17.0316 14.1553 17.0197 9.15773 17.274C9.20288 17.5877 9.25041 17.9133 9.30032 18.2673C9.82787 18.3957 10.334 18.4194 10.8426 18.4289ZM39.0692 18.1248C38.891 18.1058 38.7461 18.0796 38.6011 18.0796C37.9951 18.082 37.3868 18.1176 36.7808 18.0939C34.9819 18.025 33.1853 17.9323 31.3864 17.8539C31.163 17.8443 30.9373 17.8515 30.664 17.8515C30.7614 18.3577 31.0561 18.6975 31.27 19.0516C33.8365 19.1419 36.3697 19.2322 38.9053 19.3177C38.9718 19.3201 39.0384 19.2654 39.1358 19.225C39.1144 18.8662 39.093 18.5121 39.0692 18.1248ZM4.53092 19.37C4.13881 19.0729 3.73721 18.7901 3.34273 18.4717C3.6065 18.5905 3.88692 18.3268 4.16496 18.5668C4.39071 18.7593 4.67825 18.8781 4.98481 19.0563C5.11551 18.6975 4.9753 18.4076 4.77331 18.2198C4.27665 17.7612 3.68255 17.5259 2.99578 17.7303C2.48723 17.8824 2.22583 18.2982 2.28761 18.821C2.43257 20.0734 3.4758 20.4821 4.35744 20.3538C4.77331 20.2944 5.03233 19.9688 5.0965 19.3938C4.85648 19.5221 4.69489 19.4936 4.53092 19.37ZM35.0698 9.69812C35.0223 9.33928 34.6325 9.27274 34.5113 8.92817C34.7276 9.01372 34.8749 9.07313 35.0223 9.13254C35.1672 8.56458 35.0199 8.1202 34.5803 7.79701C34.2452 7.54987 33.9363 7.62591 33.8317 8.02276C33.6939 8.5527 33.5679 9.08501 33.9434 9.60544C34.067 9.77891 34.0741 10.0498 34.2975 10.1568C34.4638 10.2352 34.6468 10.2875 34.8298 10.3136C34.8844 10.3207 34.9819 10.2138 35.0151 10.1377C35.0365 10.0878 35.0056 9.97853 34.9605 9.93813C34.7894 9.79317 34.604 9.66484 34.4234 9.52939C34.4424 9.49612 34.4591 9.46286 34.4781 9.42959C34.6587 9.51276 34.8393 9.59356 35.0698 9.69812ZM8.13351 18.8496C8.21669 18.2982 8.29511 17.7731 8.37353 17.2526C7.8935 17.1267 7.62734 17.1219 7.1283 17.2241C7.32079 17.7493 7.50852 18.2673 7.71289 18.8258C7.82696 18.8329 7.96954 18.8401 8.13351 18.8496ZM24.5686 18.4147C24.7112 18.0558 24.6327 17.6542 24.9417 17.3619C24.9227 17.5117 24.9036 17.659 24.868 17.9347C25.1413 17.6994 25.329 17.5378 25.5524 17.3453C25.146 17.072 24.7492 17.1837 24.3286 17.1172C24.2644 17.5426 24.2074 17.9394 24.1408 18.3767C24.3119 18.3909 24.4355 18.4028 24.5686 18.4147ZM8.67057 17.2788C8.39967 17.5687 8.44957 17.8681 8.4567 18.2008C8.64919 18.2388 8.83692 18.2769 9.04842 18.3196C9.18625 17.9608 9.04129 17.6828 8.89633 17.3049C8.82028 17.4546 8.77989 17.5354 8.72285 17.6447C8.70622 17.5307 8.69196 17.4261 8.67057 17.2788ZM40.4594 19.1252C40.4713 19.1894 40.5854 19.2345 40.6543 19.2868C40.7018 19.2179 40.7921 19.1442 40.7874 19.0777C40.7731 18.7973 40.7327 18.5192 40.6876 18.1057C40.4452 18.5026 40.4048 18.8092 40.4594 19.1252ZM40.324 18.1224C40.2265 18.1319 40.141 18.1176 40.1291 18.1438C40.0174 18.36 40.0436 18.6618 40.2408 19.2298C40.2741 18.7854 40.2978 18.4646 40.324 18.1224Z" fill="black"/>
<path d="M2.29706 2.13142C2.98383 2.54729 3.55178 2.89186 4.12211 3.23643C3.97478 2.83245 3.61594 2.7065 3.30464 2.51877C2.98145 2.32391 2.65589 2.12904 2.32795 1.93418C2.32795 1.43514 2.32795 0.947979 2.32795 0.418046C2.62262 0.38953 2.88402 0.334876 3.14305 0.346758C4.14826 0.387156 5.15346 0.427553 6.1563 0.50835C8.06928 0.662815 9.98465 0.722226 11.9048 0.743613C13.3852 0.760248 14.8657 0.850548 16.3438 0.905205C16.7977 0.92184 17.254 0.92184 17.7079 0.938474C18.7131 0.976497 19.7183 1.0169 20.7235 1.06205C21.3485 1.09056 21.9735 1.1476 22.6009 1.15948C23.1308 1.16899 23.6607 1.12621 24.1907 1.12146C25.0058 1.11433 25.8209 1.11433 26.6359 1.12383C26.9021 1.12621 27.1659 1.17849 27.432 1.18087C27.5247 1.18324 27.6174 1.1072 27.798 1.02878C27.6222 0.943228 27.5318 0.864806 27.4392 0.860053C26.491 0.807773 25.5452 0.757869 24.597 0.734106C24.3356 0.726976 24.0742 0.841044 23.8104 0.843421C23.2425 0.852926 22.6721 0.831539 22.1042 0.810151C21.7073 0.795893 21.3105 0.745987 20.9136 0.734106C19.3951 0.681825 17.8766 0.639052 16.3581 0.591525C14.8776 0.543997 13.3995 0.494091 11.919 0.444187C9.54977 0.36339 7.18052 0.251701 4.8184 0.0330738C4.06746 -0.0358412 3.30464 0.0235673 2.54657 0.02832C2.16635 0.0306964 1.9406 0.237443 1.88832 0.605783C1.83366 0.997885 1.78375 1.39474 1.77425 1.79159C1.74573 2.9679 1.7291 4.14421 1.72672 5.31814C1.72435 6.03819 1.77662 6.75823 1.77425 7.48065C1.7695 9.0752 1.74098 10.6698 1.7291 12.2643C1.72197 13.1768 1.72672 14.087 1.72672 14.9995C1.72672 15.0756 1.72197 15.1516 1.72672 15.2277C1.74098 15.5532 1.80514 15.6839 1.96436 15.672C2.22814 15.6506 2.23527 15.4154 2.24952 15.2443C2.31131 14.4886 2.4135 13.7258 2.3731 12.9725C2.28517 11.2852 2.31131 9.59801 2.27567 7.9084C2.24715 6.561 2.19962 5.21596 2.18774 3.86856C2.18774 3.33387 2.25428 2.80631 2.29706 2.13142Z" fill="black"/>
<path d="M4.45029 2.7754C3.84194 2.11714 2.94842 1.60147 2.50879 1.58008C2.51829 1.61335 2.51829 1.66563 2.53968 1.67751C3.17655 2.04585 3.81342 2.41181 4.45029 2.7754Z" fill="black"/>
<path d="M27.6005 16.0973C27.2868 15.5602 26.7759 15.2394 26.2578 14.9233C26.2911 15.1443 26.4955 15.2085 26.6333 15.3321C26.7877 15.4675 26.9351 15.6125 27.0824 15.7551C27.2274 15.8953 27.37 16.0402 27.5149 16.1828C27.5434 16.1519 27.5719 16.1258 27.6005 16.0973Z" fill="black"/>
<path d="M34.2446 11.7892C34.2042 11.6704 34.1899 11.6157 34.1662 11.5658C33.8002 10.8339 33.6719 10.986 32.9399 11.0787C32.8663 11.0882 32.795 11.119 32.7285 11.1547C32.6809 11.1808 32.6477 11.2284 32.5978 11.2735C32.593 11.5254 32.7641 11.6419 32.9613 11.7108C33.3653 11.8557 33.7717 11.9959 34.2446 11.7892Z" fill="black"/>
<path d="M33.5039 15.9312C33.8627 16.233 34.2239 16.5348 34.6042 16.8556C34.5376 16.5205 34.3523 16.3518 33.5039 15.9312Z" fill="black"/>
<path d="M33.77 15.3393C33.511 15.0422 33.511 15.0422 33.126 14.8901C33.2662 15.1278 33.2662 15.1278 33.7795 15.3298L33.77 15.3393Z" fill="black"/>
<path d="M27.9527 19.7881C27.8767 19.5885 27.7341 19.4649 27.5273 19.415C27.6248 19.5933 27.7317 19.7596 27.9622 19.7786L27.9527 19.7881Z" fill="black"/>
</svg>
