<?xml version="1.0" encoding="utf-8"?>
<!-- Generator: Adobe Illustrator 23.1.0, SVG Export Plug-In . SVG Version: 6.00 Build 0)  -->
<svg version="1.1" id="Layer_1" xmlns="http://www.w3.org/2000/svg" xmlns:xlink="http://www.w3.org/1999/xlink" x="0px" y="0px"
	 viewBox="0 0 77.3 117.9" style="enable-background:new 0 0 77.3 117.9;" xml:space="preserve">
<style type="text/css">
	.st0{fill:#BCBCBC;}
	.st1{fill:#FFFFFF;}
	.st2{fill:#010101;}
</style>
<path class="st0" d="M25.2,113c-0.3,0.5-0.6,1.1-0.5,1.6c0.2,0.6,1,0.8,1.6,0.9c0.9,0.1,2,0.1,2.7-0.4c1-0.7,1.2-2.2,1.2-3.4
	c0.1-3.5-0.3-7-1-10.4c-0.2-0.7-0.8-3.4-1.8-1.7c-0.5,1,0,3.4,0,4.6C27.4,107.3,26.8,110.4,25.2,113z"/>
<path class="st1" d="M76.3,107.3c-0.5-2.5-1.6-11.4-1.7-13.9c-0.3-6.4-1.8-5.7-2.5-10.5c-0.6-4-1.1-8-1.7-12c0.9,1.5,2.3,3.2,4,2.8
	c1.8-0.4,2.2-2.8,1.7-4.6c-1.1-3.9-4.5-6.8-5.8-10.6c-1.4-3.8-0.7-8.4-3.4-11.4c-1.9-2.1-5-2.7-7.6-4c-2.5-1.2-4.6-3.1-7.3-3.8
	c-1.6-0.4-3.4-0.3-5-0.5c-4.1-0.5-7.7-2.8-11.1-5.1c-2.8-1.9-5.7-4-7.7-6.7s-3.2-6.4-2.3-9.7c0.7-2.5,2.4-4.5,4.3-6.4
	c0.9-0.9,2-2.1,1.4-3.3c-0.2-0.5-0.7-0.8-1.1-1.2c-4-2.8-8.5-5-13.3-5.5S7,2.3,3.9,6c-2.7,3.2-3.5,7.4-3.7,11.5
	c-0.1,2.4-0.8,6.7,1.5,8.3c1.6,1.2,3.9,0.8,5.6,1.6c3,1.4,2.9,5.6,2.5,8.4c-0.6,4.1-3,7.6-4.2,11.4C4,51.9,4.2,57,5,61.9
	c1.2,7.7,3.7,15.2,5,22.8s1.3,15.9-2.3,22.9c-1,1.9-2.2,4.1-1.3,6c1.2,2.3,5,1.9,6.6-0.2s1.7-4.9,1.8-7.5c0.1-9.6,0.4-19.2,0.9-28.8
	c0-0.9,0.1-1.9,0.8-2.4c0.5-0.4,1.1-0.4,1.8-0.5c2.7-0.1,5.5,0.3,8.1,1c2,12.5,1.7,25.4-0.9,37.8c-0.2,0.8-0.4,1.7-0.1,2.4
	c0.7,1.8,3.6,1.8,4.9,0.4s1.5-3.6,1.6-5.5c0.7-10.6,1.3-21.1,2-31.7c0.1-2.4,0.4-5,1.9-6.8c0.5-0.6,1.3-1.1,2-1
	c1.5,0.2,1.8,2.3,1.7,3.8c-0.2,3.4,0,7,1.9,9.8c1.9,2.8,5.4,4.6,6.5,7.8c0.5,1.5,0.5,3.2,0.5,4.8c-0.1,2.6-0.2,5.3-1.5,7.5
	c-0.3,0.5-0.7,1.1-0.8,1.7c-0.1,1.2,1.1,2.1,2.2,2.8c0.7,0.4,1.6,0.8,2.1,0.2c0.3-0.2,0.4-0.6,0.5-0.9c1.8-6,3.5-11.9,5.3-17.9
	c0.2-0.8,0.4-1.5,0.4-2.3c-0.1-2.1-2-3.6-3.4-5.2c-4.3-5-3.7-12.6,1.5-16.6c4.4,8.7,4.4,7.1,8.2,16.4c1.7,4,3.6,1,5.3,6.7
	c0.2,0.2,0.4,0.4,0.5,0.6c0.2,0.2,0.4,0.3,0.5,0.5c0.5,0.4,0.7,1,0.9,1.6c0.1,0.6,0.2,1.3,0.2,1.9c0.1,0.4,0.3,0.7,0.4,1.1
	c0.3,1.2,0.6,2.4,0.7,3.6c0,0.6,0,1.2,0.2,1.8c0.1,0.5,0.4,1,0.4,1.6c0,0.1,0,0.2,0,0.3c0.1,0.2,0.1,0.4,0.1,0.6
	c0,0.4-0.2,0.7-0.4,1c-0.1,0.1-0.1,0.3-0.3,0.4c0,0.1-0.1,0.1-0.2,0.2c-0.3,0.3-0.5,0.7-0.7,1.1c-0.2,0.4-0.3,0.9-0.4,1.3
	c-0.1,0.3-0.2,0.7,0,0.9c0.1,0.1,0.1,0.2,0.2,0.3C73,108.8,76.8,109.7,76.3,107.3z"/>
<path class="st0" d="M18.5,24.8c0.7-1,1.4-2.3,2.6-2.3c0.3,1.1,0.1,2.2-0.4,3.3c-0.5,1-1.1,1.9-1.7,2.9c-0.9,1.5-1.4,3.2-2.2,4.8
	c-1,2.1-2.3,4-3.6,6c-0.5,0.7-1,1.4-1.6,1.9s-1.6,0.8-2.4,0.5c0.2-2.5,0.4-4.9,0.6-7.4c0.1-1.5,0-3.5,0.8-4.8
	c0.8-1.2,2.2-1.3,3.5-1.7C15.9,27.4,17.3,26.3,18.5,24.8z"/>
<path class="st0" d="M49,66.3c0.2,0,0.4-0.1,0.5,0.1c0.1,0.1,0.1,0.2,0.1,0.3c0.2,1.2-0.7,2.3-1.4,3.3c-2.3,3.5-2.1,8-2.2,12.3
	c0,1.2-0.2,2.6-1.2,3.3c-0.8,0.5-1.9,0.2-2.7-0.4c-0.7-0.6-1.2-1.5-1.6-2.4c-1.5-3.4-2.6-8.4-1.6-12.1c0.4-1.6,2.4-2,3.8-2.6
	C44.8,67.3,46.9,66.7,49,66.3z"/>
<path class="st0" d="M67,57.3c0.7,4.4,1.3,9.1,4.1,12.5c0.6-2.5-0.6-4.9-1.3-7.4c-1-3.8-0.8-7.8-2.2-11.5c-0.4-1-1-2-1.5-3
	c-0.4-0.8-1.8-3.3-3-2.5C62,46.3,64,48,64.4,48.7C65.9,51.3,66.6,54.4,67,57.3z"/>
<path class="st0" d="M19,17c-0.1,1.1-0.1,2.3,0.2,3.4c0.4,1.1,1.3,2.1,2.4,2.2c0.4,0,0.8,0,1.1-0.3c0.4-0.3,0.5-0.8,0.5-1.3
	c0.1-1.2,0.3-2.4-0.1-3.5c-0.1-0.4-0.3-0.7-0.4-1c-0.3-0.6-0.6-1.2-0.9-1.8c-0.4-0.9-1.2-3.4-2.3-2.1C18.7,13.4,19,15.9,19,17z"/>
<path class="st0" d="M3.8,12c0,0.2,0,0.4-0.1,0.5c-0.1,0.1-0.2,0.2-0.3,0.2c-0.5,0.3-1,0.5-1.5,0.8c-0.1,0.1-0.3,0.1-0.4,0.1
	c-0.1,0-0.1-0.1-0.2-0.2c-0.5-1.5,0-6.2,1.9-6.5C5.5,6.4,3.9,10.9,3.8,12z"/>
<path class="st2" d="M40.2,69.6c0.8-0.4,1.6-0.8,2.4-1.1c2.5-1,5-2,7.5-3c0.5-0.2,0.9-0.4,1.4-0.5c0.3-0.1,0.6-0.1,0.9,0.2
	c1.5,1.5,3,3,4.4,4.6c0.5,0.5,1.8,3.3,2.2,3.9c-0.3-0.7-1.2-2.9-1.6-4.2c-0.2-0.4-0.4-0.8-0.7-1.1v0c-0.8-1-1.7-2-2.8-2.7
	c-0.3-0.2-0.5-0.5-0.8-0.7c0.2-0.3,0.3-0.6,0.4-0.8c-0.6-0.4-0.6-0.4-1.2-0.3c-1.8,0.3-3.5,0.8-5.2,1.6c-2.1,1-4.2,2-6.4,2.7
	c-1.3,0.4-2.6,1.1-3.7,1.9c-0.2,0.1-0.4,0.3-0.6,0.4c-0.2,0.1-0.5,0.2-0.9,0.3c0.1-0.6,0.2-1,0.2-1.3c1-0.4,2.8-1.8,3.3-2.6
	c-0.6,0.4-1.1,0.7-1.6,1c-0.5,0.3-0.8,0.8-1.5,0.8c0.2-0.7,0.1-1.4,0.7-1.9c0.6-0.5,1.2-1.1,2-1.3c0.3-0.1,0.5-0.2,0.3-0.7
	c-0.8,0.5-1.6,1-2.6,1.5c0.3-1.4,0.6-2.7,0.8-3.9c0.2-0.9,0.3-1.9,0.5-2.8c0-0.1-0.1-0.3-0.2-0.6c-0.1,0.3-0.2,0.5-0.2,0.6
	c-0.1,0.7-0.3,1.4-0.4,2.1c-0.3,1.3-0.6,2.7-0.9,4c-0.3,1.1-0.5,2.1-0.8,3.2c-0.4,1.8-0.9,3.6-1.2,5.4c-0.3,1.4-0.5,2.8-0.8,4.1
	c-0.1,0.3-0.1,0.7-0.3,0.9c-0.3,0.3-0.3,0.5-0.3,0.8c0.1,0.6,0.3,1.3,0.2,1.9c-0.1,2.8-0.3,5.7-0.3,8.5c-0.1,1.8,0,3.7-0.5,5.5
	c-0.3,1.3-0.3,2.6-0.4,3.9c-0.1,1.8-0.1,3.7-0.1,5.5c0,1.7-0.1,3.4-0.1,5.1c0,1.4,0,2.8-0.4,4.1c-0.3,1-1.1,1.7-2.1,2.1
	c-0.3-0.8,0.2-1.6-0.1-2.5c-0.8,0.9-0.6,1.8-0.6,2.7c-1.1,0.1-1.3-0.1-1.2-1.1c0-0.2,0.1-0.5,0.1-0.7c0-0.3,0.1-0.6,0.2-0.9
	c-0.2,0-0.3-0.1-0.3-0.1c-0.6,0.6-0.5,1.5-0.8,2.3c-1.1-0.7-1.3-1.2-1-2.3c0.2-0.5,0.5-1,0.8-1.4c0.3-0.4,0.8-0.8,1.2-1.2
	c0.1-0.1,0.1-0.2,0.2-0.5c-0.2-0.1-0.5-0.2-0.5-0.2c0.2-0.8,0.4-1.3,0.4-1.9c0.1-2.1,0.2-4.1,0.2-6.2c0-1.4,0-2.8,0-4.1
	c0-2.2,0-2.2,1.8-3.4c0.2-0.2,0.5-0.3,0.5-0.8c-0.7,0.5-1.4,0.9-2.1,1.4c-0.4-0.9,0.3-1.3,0.8-1.8c0.5-0.5,1-0.8,1.6-1.2
	c-1,0-1.5,1-2.5,1.3c0-2,0-3.8,0-5.7c0-1.6,0.3-3.1,0.3-4.7c0.1-1.8,0.1-3.7,0-5.5c-0.1-1.4-0.4-2.9-0.8-4.3c-0.2-1-0.8-1.8-1.5-2.5
	c-0.3-0.3-0.6-0.6-1.1-0.4c-0.1,0.5,0.2,0.7,0.5,1c0.3,0.3,0.5,0.7,0.8,1.1c-2.2,0.8-4.3,1.2-6.6,0.4c0.5-0.8,1.3-1.1,1.6-1.8
	c-0.7,0.4-1.3,0.9-1.9,1.4c-0.5,0.4-0.6,0.4-1.4-0.1c0.9-0.8,1.7-1.7,2.6-2.5c0-0.1-0.1-0.1-0.1-0.2c-1.1,0.8-2.1,1.7-3,2.6
	c-0.6-0.2,0.1-1.1-0.7-1.3c-0.1,0.5-0.2,0.9-0.3,1.3c-0.5,2.7-0.5,5.4-1,8.1c-0.4,2.3-0.4,4.7-0.6,7c0,0.4-0.2,0.7-0.5,0.9
	c-0.8,0.5-1.6,1.1-2.4,1.7c-0.1,0.1-0.2,0.3-0.3,0.4c1.2-0.4,2-1.3,3.1-2c0,0.3,0.1,0.5,0.1,0.7c0,0.9,0,1.9,0,2.8
	c0.1,5.2-0.1,10.3-0.4,15.4c-0.1,1.7-0.4,3.3-1.3,4.7c-0.4,0.8-1.5,1.5-2.4,1.6c-0.1-0.9,0.2-1.7,0.5-2.8c-0.3,0.2-0.5,0.2-0.6,0.3
	c-0.6,0.9-0.5,1.9-0.6,3c-0.3,0.1-0.6,0.3-1.1,0.4c0-0.6-0.1-1.1-0.1-1.5c0-0.5,0.2-0.9,0.3-1.5c-0.2,0.1-0.3,0-0.4,0.1
	c-0.1,0.1-0.3,0.3-0.3,0.4c-0.2,0.8-0.3,1.6-0.4,2.3c-1-0.1-1.3-0.3-1.4-1.2c-0.2-1.4,0-2.8,1-3.8c0.3-0.4,0.7-0.7,1.1-1.1
	c0.5-0.5,0.9-1,1.4-1.5c0.2-0.2,0.4-0.5,0.1-0.7c-0.3-0.2-0.4,0.1-0.6,0.3c-0.3,0.3-0.6,0.7-0.9,1c-0.1-0.3-0.1-0.5,0-0.7
	c1-3,1.5-6.1,1.8-9.2c0-0.3,0-0.6,0.2-0.9c0.5-0.8,0.5-1.7,0.4-2.7c-0.1-1-0.2-2-0.2-2.9c-0.1-1.6-0.2-3.1-0.2-4.7
	c-0.1-1.6-0.2-3.2-0.1-4.8c0.3-3-0.1-6-0.5-8.9c-0.3-2.5-1.1-4.9-1.9-7.4S6.6,61,6.3,58.5c0-0.2-0.1-0.6-0.3-0.7
	c-0.3-0.2-0.4-0.5-0.4-0.9c0-1.3,0-2.7,0.1-4c0.1-1.1,0.1-2.2,0.4-3.3c0.6-2.6,1.2-5.1,2-7.6c0.6-2.1,1.5-4.2,2.1-6.3
	c0.4-1.4,0.8-2.9,0.8-4.4c0-0.8,0.1-1.7,0.2-2.5c0.2,0,0.3,0,0.5,0c1.6,0.2,3-0.4,4.2-1.5c0.6-0.6,1.3-1.2,2-1.9
	c0.5-0.5,1-1.1,1.4-1.7c0.1-0.2,0.4-0.4,0.1-0.7c-0.1,0.1-0.2,0.1-0.3,0.2c-1.2,1.2-2.3,2.4-3.5,3.6c-0.5,0.4-1,0.8-1.6,1.1
	c-0.9,0.3-1.9,0.5-2.7,0c-2.5-1.4-4.1-3.4-4.7-6.3c-0.3-1.3-0.5-2.6-0.7-3.9c0.8-0.8,1.3-1.9,1.5-3.1c0.3-1.3-0.2-1.8-1.6-1.8
	c-0.1,0-0.1,0-0.2,0c-0.5,0-1.1,0.1-1.6,0.1c-0.8,0-1.5,0.6-1.3,1.5C2.6,15.4,3,16.4,4,17c0.4,0.2,0.5,0.5,0.5,0.9
	c0,2.7-0.4,5.3-1,7.9c0,0-0.1,0.1-0.2,0.2c-0.2-0.2-0.5-0.3-0.6-0.6c-0.3-0.6-0.5-1.1-0.7-1.7c-0.6-2.5-0.4-5.1,0.2-7.6
	c0.1-0.3,0.2-0.5-0.1-0.7c-0.6,0.1-0.4,0.7-0.7,1c-0.1-0.2-0.1-0.3-0.1-0.4c-0.3-1.8-0.4-3.6-0.4-5.5c0-1.2,0.4-2.1,1.2-3
	C2.8,6.8,3.4,6.1,4,5.3c0.3-0.3,0.6-0.6,1-0.8c-0.4,1.1-0.7,2.1-1,3C4,7.5,3.9,7.4,3.7,7.3c-0.1,1.5-0.2,2.9-0.3,4.4
	c-0.4,0.4-1,0.9-1.6,1.3c0.4,0.3,0.6,0,0.8-0.1c0.2-0.1,0.4-0.4,0.6-0.4C3.8,12.7,4,12.3,4.4,12c0.4-0.3,0.8-0.6,1.2-0.8
	c0.5-0.3,1-0.5,1.4-0.9c0.8-0.8,1.5-1.8,2.2-2.7c-0.3,0-0.4,0.1-0.5,0.1c-0.2,0-0.3-0.1-0.5-0.2C7.9,7.9,8,8.5,7.3,8.7
	C7.4,8.3,7.4,8,7.5,7.6c-0.9,0-1.6,0.2-2.2,0.6C5.1,8.3,5,8.6,5.1,8.8c0.1,0.5,0.4,1,0.6,1.6c-0.4,0.2-0.9,0.5-1.5,0.9
	C3.9,10.6,4,10,4.2,9.5C4.7,7.8,5,6,5.8,4.4c0.1-0.2,0-0.5,0-0.9C5.3,3.7,4.9,3.7,4.7,3.9C4.3,4.3,3.9,4.7,3.5,5.1
	C2.9,5.7,2.3,6.4,1.8,7S0.5,8.3,0.4,9.3c-0.2,2.4-0.1,4.9,0.4,7.3c0.2,1.2,0.5,2.3,0.3,3.5C1,21.6,1.3,23,1.6,24.4
	c0.1,0.5,0.3,1,0.6,1.4c0.4,0.8,1.1,1,1.9,0.9c1,0,1.5-0.8,2.2-1.5c0.4-0.4,0.1-1,0.1-1.5c0-0.1,0-0.1,0-0.3C7,25.3,8,26.6,9.5,27.7
	c0.3,0.2,0.5,0.6,0.5,1c0.1,1.1-0.2,2.2-0.4,3.3c-0.3,1.6-0.5,3.2-0.9,4.9c-0.5,2.5-1.6,4.8-2.3,7.3c-0.5,1.5-0.9,3-1.2,4.5
	c-0.2,0.9-0.1,1.9-0.3,2.8c-0.3,1.9-0.2,3.8-0.2,5.7c0,0.3,0,0.6,0.1,0.9c0.2,0.8,0.5,1.7,0.7,2.5c0.7,2.9,1.4,5.8,2.1,8.7
	C8,70.1,8.3,71,8.6,71.9c0.1,0.5,0.2,1.1,0.3,1.6c0.2,1.3,0.4,2.6,0.5,3.8c0.1,1,0,2,0,2.9c0.1,2.3,0.3,4.5,0,6.8
	c-0.1,0.6-0.1,1.1-0.1,1.7c0,0.4-0.1,0.8,0.4,1.1c0-0.3,0.1-0.6,0.1-0.9c0.2,2,0.3,4,0.4,6c0,0.5,0.2,1.1-0.4,1.4
	c-0.1,0.1-0.1,0.4-0.1,0.6c0.2,1.4-0.1,2.7-0.4,4c-0.4,2.6-1,5.1-1.9,7.6c-0.1,0.4-0.3,0.8-0.6,1.1c-1.2,1.3-1.5,2.9-1.3,4.7
	c0.1,0.8,0.5,1.3,1.3,1.5c0.3,0.1,0.6,0.2,0.9,0.3c0.3,0.1,0.6,0.1,0.9,0c1.5-0.5,2.9-1.3,4.2-2.3c0.2-0.2,0.4-0.4,0.5-0.6
	c0.5-1.1,1.1-2.1,1.2-3.3c0.1-1.3,0.3-2.6,0.4-3.9c0.1-2.9,0.2-5.8,0.3-8.7c0.1-2.5,0.2-5,0.2-7.5c0-0.5,0-1,0-1.4
	c0.3-3.9,0.7-7.8,1-11.7c0.1-0.9,0.3-1.8,0.4-2.9c3.1,1.2,6.1,1.2,9.2,0.1c0.4,1.3,0.7,2.5,0.9,3.8c0.3,3.5,0.1,7-0.3,10.5
	c0,0.4-0.1,0.8-0.1,1.2c0,4.3-0.1,8.6,0.1,12.8c0.1,2.1,0,4.3-0.1,6.5c0,0.8-0.1,1.5-0.2,2.3c-0.1,0.5-0.3,1.1-0.7,1.4
	c-0.9,0.8-1.3,1.9-1.4,3.1c-0.1,0.5,0,1,0.5,1.4c0.7,0.6,1.5,1,2.4,1.2c0.9,0.2,1.8-0.1,2.6-0.3c1.4-0.4,2.1-1.3,2.4-2.6
	c0.4-1.5,0.6-3,0.4-4.6c-0.1-0.9,0-1.8,0-2.7c0-1.4,0.1-2.8,0.1-4.1c0-2.6,0-5.2,0.3-7.8c0.1-0.4,0.1-0.9,0.1-1.3
	c0.1-1.3,0.1-2.6,0.1-4c0.1-2.2,0.2-4.3,0.3-6.4c0.1-1.4,0-2.8,0.2-4.2c0.4-2.3,0.7-4.7,1.3-7c0.1-0.6,0.3-1,0.9-1.2
	c0.6-0.3,1.2-0.8,1.8-1.1c0.3-0.2,0.6-0.2,1-0.4c0,0.8-0.1,1.5-0.1,2.1c0,0.7-0.2,1.5-0.1,2.2c0.1,1.5,0.2,3.1,0.4,4.6
	c0.3,2.3,1.1,4.3,2.7,6c1.1,1.2,2.1,2.4,3.3,3.6c0.8,0.8,1.6,1.6,2.5,2.2c0.6,0.4,0.8,0.9,0.9,1.6c0.1,2,0,4-0.3,6
	c-0.3,1.7-0.6,3.4-0.4,5.2c0,0.3-0.1,0.6-0.4,0.7c-0.9,0.3-1.5,1.1-1.9,1.9c-0.7,1.2,0.1,2.8,1.4,3.1c0.4,0.1,0.8,0.1,1.1,0.2
	c1.5,0.3,2.8-0.1,4-0.9c0.5-0.3,0.8-0.7,0.9-1.3c0.1-0.8,0.3-1.6,0.3-2.4c0-0.9,0-1.8,0-2.7c0.1-1,0.1-2.1,0.4-3.1
	c0.6-2.2,1.3-4.3,2-6.4c0.2-0.7,0.4-1.4,0.8-2c0.4-0.8,0.5-1.7,0.5-2.6c0-0.5-0.2-0.9-0.6-1.2c-1.3-0.9-2.2-2.1-3.1-3.5
	c-1.2-2-1.7-4.2-1.9-6.5c-0.2-2.2,0.2-4.3,1-6.4c0.4-0.9,0.7-1.9,1-2.9c0-0.1,0-0.3,0-0.5c-0.2,0.1-0.4,0.1-0.5,0.2
	c-0.1,0.1-0.2,0.4-0.3,0.6c-0.5,1.6-1,3.3-1.5,4.9c-0.2,0.8-0.3,1.7-0.3,2.5c-0.1,1.8,0.2,3.5,0.6,5.2c0.7,2.5,2,4.7,4,6.4
	c0.2,0.2,0.5,0.4,0.7,0.6c0.5,0.5,0.4,1.4-0.3,1.8c-1.3,0.8-2.5,1.5-3.7,2.3c-0.1,0.1-0.2,0.2-0.3,0.3c0,0.1,0.1,0.1,0.1,0.1
	c0.6-0.4,1.3-0.9,2-1.3c0.7-0.4,1.3-1,2.2-1.1c-0.1,0.6-0.5,0.9-0.9,1.2c-1,0.6-1.9,1.2-2.8,1.8c-0.1,0.1-0.2,0.3-0.3,0.4
	c1.2-0.3,2-1.3,3.4-1.7c-0.1,0.5-0.2,0.8-0.3,1c-0.2,0.5-0.3,1.1-0.5,1.6c-0.3,0.8-0.5,1.6-0.8,2.4c-0.5,1.4-0.9,2.8-1,4.3
	c-0.1,1.8-0.2,3.7-0.2,5.5c0,1.6-1.4,2.7-3,2.7c-0.4-0.9,0.2-1.9,0.1-2.8c-0.8,0.5-0.9,0.8-1,2.8c-1.2,0.1-1.5-0.2-1.4-1.3
	c0-0.3,0.1-0.6,0.2-0.9c0-0.3,0.1-0.6,0.2-0.9c-1.2,0.6-0.9,1.7-1.3,2.6c-0.2-0.3-0.3-0.6-0.4-0.9c-0.1-0.9,0.7-2,1.7-2.4
	c0.2-0.1,0.5-0.2,0.8-0.3c0-0.4-0.1-0.8-0.1-1.1c0.2-1.5,0.2-3.1,0.5-4.6c0.6-2.9,0.4-6,0.6-8.9c0-0.1-0.1-0.2-0.2-0.5
	c-0.2,0.4-0.4,0.7-0.5,1.1c-0.5-0.3-1-0.6-1.4-0.9c-1.7-1.5-3.2-3.3-4.6-5c-0.3-0.4-0.5-0.8-0.9-1.2c1-0.8,1.9-1.6,2.9-2.3
	c-1.3,0.3-2.1,1.3-3.2,1.9c-0.2-0.3-0.4-0.6-0.5-0.8c0.7-1,1.7-1.5,2.5-2.3c-1.1,0.3-1.9,1.1-2.8,1.7c-0.1-0.5-0.3-0.8-0.4-1.2
	c-0.6-3.2-1-6.5-0.5-9.8C39.7,70.1,39.8,69.8,40.2,69.6z M6.6,14.2C6.1,14,6.1,14,6.1,13.4C6.6,13.5,6.6,13.8,6.6,14.2z"/>
<path class="st2" d="M27.3,26.4c-0.6,0.4-1.1,0.8-1.7,1.2c0,0.1,0.1,0.1,0.1,0.2c0.7-0.2,1.1-0.9,1.9-1.1c0.2,0.4,0.5,0.8,0.7,1.1
	c0.6,1,1.3,2,2.2,2.8c0.3,0.3,0.7,0.5,0.9,0.8c2.6,2.9,5.9,4.6,9.5,5.9c0.2,0.1,0.4,0.1,0.5,0.1c1.1,0.2,2.2,0.3,3.3,0.5
	c1.6,0.3,3.3,0.8,4.9,1c2.3,0.4,4.5,1,6.6,1.9c0.3,0.1,0.6,0.3,0.9,0.4c2.3,1.4,4.2,3.2,5.5,5.5c0.5,0.9,1.1,1.9,1.6,2.8
	c0.5,1,0.9,2,1.3,3c0.8,2.3,1.7,4.5,2.1,6.8c0.3,1.7,0.7,3.4,1,5.1c0.5,2.7,1.1,5.4,1.6,8.1c0.2,1.1,0.4,2.2,0.7,3.3
	c0.2,0.8,0.5,1.7,0.7,2.5c0.3,1.1,0.7,2.2,1,3.3c0,0.1,0,0.2,0,0.3c-0.5-0.3-0.6-1.1-1.3-1.4c0,0.2,0,0.3,0,0.4
	c0.6,1.6,1.3,3.1,1.9,4.7c0.1,0.3,0.2,0.6,0.3,0.9c0.2-0.1,0.4-0.2,0.6-0.3c-0.4-1-0.8-2-1.2-3c-0.1-0.3-0.2-0.6-0.3-0.9
	c0.6-0.1,0.5-0.5,0.4-0.8c-0.6-2.3-1.3-4.5-1.9-6.7c-0.2-0.9-0.4-1.8-0.4-2.8c0.2,0.1,0.3,0.2,0.4,0.2c0.5,0.4,1,0.8,1.6,1.2
	c1.1,0.7,2.4,0.8,3.7,1c0.6,0.1,1-0.2,0.9-0.9c-0.2-1.3-0.5-2.6-1.5-3.6c-0.2-0.2-0.5-0.5-0.6-0.7c-0.7-1.3-1.5-2.5-2.2-3.8
	c-0.3-0.5-0.5-1-0.6-1.5c-0.5-2.2-1.1-4.4-1.5-6.6c-0.6-3.4-1.6-6.7-3.2-9.8c-0.1-0.2-0.2-0.4-0.4-0.6c-0.3-0.4-0.6-0.9-0.9-1.3
	c-0.3-0.5-0.6-0.8-1.2-0.8c-0.4,0-0.8-0.1-1.1-0.2c-0.6-0.1-1.2-0.2-1.7,0.3c-0.5-0.5-0.9-1-1.4-1.5c-1.3-1.3-2.7-2.6-4.4-3.3
	c-1.5-0.7-3.1-1.3-4.8-1.6c-1.4-0.3-2.9-0.7-4.3-0.9c-1.7-0.3-3.4-0.5-5.1-0.8c-0.4-0.1-0.9-0.3-1.3-0.4c-0.3-0.1-0.6-0.2-0.9-0.3
	c-0.5-0.1-0.9-0.2-1.4-0.3c-3.7-1.3-6.3-4-9-6.7c-0.1-0.1-0.1-0.2-0.2-0.3c-1.7-2.4-3.1-5-3.5-8c0-0.3-0.1-0.5-0.6-0.4
	c-0.1,1,0.3,2,0.6,3C26.5,24.5,26.9,25.4,27.3,26.4z M71.5,63.4c0,0.9,0.3,1.7,0.7,2.5c0.6,1.1,1.2,2.3,1.8,3.4
	c0.2,0.4,0.5,0.9,0.7,1.3c0.5,0.8,0.9,1.5,1.4,2.3c0.1,0.1,0.1,0.3,0.2,0.4c-0.5,0.4-1,0.3-1.5,0.2c-2-0.6-3.5-1.7-4.4-3.5
	c-0.1-0.3-0.2-0.6-0.3-0.9c-0.3-1.3-0.5-2.7-0.8-4c-0.1-0.6,0-1,0.5-1.3c0.5-0.3,1-0.7,1.6-1.1C71.4,63,71.5,63.2,71.5,63.4z
	 M70.2,57.3c0.3,1.3,0.5,2.7,0.9,4c0.2,0.9,0.2,0.9-0.6,1.4c-0.2,0.1-0.5,0.3-0.7,0.4c-0.2,0.1-0.4,0.3-0.6,0.4
	c-0.3-0.9-0.3-1,0.3-1.3c0.3-0.1,0.6-0.2,0.8-0.4c0.1-0.1,0.2-0.2,0.5-0.4c-0.8-0.1-1.3,0.5-1.9,0.6c-0.6-2.3-1.2-4.6-1.8-7
	c0.7-0.5,1.3-1.2,2.3-1.6C69.6,54.9,70,56.1,70.2,57.3z M62.9,45.6c0.2-0.2,0.6-0.2,0.9-0.3c0.3,0,0.5,0.1,0.8,0.1
	c0.7,0,1.3,0.3,1.6,1.1c0.1,0.3,0.4,0.5,0.5,0.7c0.3,0.5,0.6,0.9,0.8,1.4c0.5,1.2,1,2.4,1.5,3.6c0.3,0.9,0.3,0.9-0.5,1.3
	c-0.5,0.3-1.1,0.7-1.7,1c-0.1-0.2-0.2-0.3-0.2-0.4c-1-2.7-2.1-5.3-3.5-7.8C62.9,46.2,62.8,45.8,62.9,45.6z"/>
<path class="st2" d="M21.1,16.4c-0.7,0.5-1.2,0.9-1.8,1.4c-0.6,0.5-0.6,0.5-0.3,1.3c0.9-0.4,1.6-1.4,2.8-1.5c-1,0.7-1.8,1.4-2.7,2
	c0.5,1.5,1.4,2.6,2.9,3c0.8,0.2,1.5-0.2,1.6-1.1c0.1-1,0.1-2,0.1-3c0-0.5,0-0.9,0-1.4c0-0.2,0.1-0.5,0.2-0.8
	c0.4,0.6,0.4,0.8,0.3,2.4c0.3-0.4,0.3-0.4,0.5-1.9c0.1,0.3,0.1,0.4,0.2,0.6c0.1,0,0.2-0.1,0.2-0.1c0.7-1.7,2-3,2.8-4.6
	c0.5-0.9,1.4-1.5,1.9-2.4c0.4-0.8,0.9-1.6,1.3-2.3c0.4-0.8,0.4-0.9-0.4-1.3C29.3,6,27.7,5.2,26,4.5c-1.4-0.6-2.9-1.1-4.4-1.6
	c-0.2-0.1-0.4-0.2-0.6-0.3c0.2-0.5,0.5-0.5,0.8-0.4c2,0.8,4,1.5,6,2.3c1.2,0.5,2.3,1.1,3.5,1.6c0.4,0.2,0.8,0.5,1.2,0.8
	c-0.1,0.3-0.2,0.7-0.3,0.9c-0.7,1.2-1.3,2.5-2,3.7C30.1,11.8,30,12,29.9,12c-0.6,0.1-0.8,0.6-1.1,1.1c-1.3,1.8-2.6,3.6-3.5,5.7
	C25.1,19,25,19.2,25,19.5c-0.3,0.8-0.5,1.6-0.7,2.5c-0.3,1-1.2,1.6-2.3,1.3c-1.6-0.5-2.6-1.6-3.3-3.1c-1-2.2-0.9-4.5-0.6-6.8
	c0.2-1.1,0.3-2.3,0.4-3.4c0.1-1,0.3-2,0.5-3c0.3-0.9,0.8-1.8,1.5-2.5c0.1,0,0.1,0.1,0.2,0.1c-0.1,0.2-0.1,0.5-0.2,0.7
	c-0.8,1.2-1,2.6-1.2,4c-0.3,1.6-0.5,3.2-0.7,4.8c-0.1,1.1-0.1,2.2,0.1,3.5c0.5-0.3,0.8-0.5,1.2-0.8C20.2,16.7,20.4,16.2,21.1,16.4z"
	/>
<path class="st2" d="M6.1,3.6C6,3,6.3,2.8,6.6,2.7c0.6-0.4,1.2-0.7,1.9-1.1c1.2-0.8,2.6-1,3.9-1.5C12.7,0,13.2,0,13.6,0
	C15,0.3,16.4,0.6,17.7,1c0.9,0.3,1.6,0.7,2.4,1.1c0.5,0.3,0.7,0.6,0.9,1.2c-0.1,0-0.2,0-0.3,0c-1.5-1.2-3.3-1.7-5.2-2.2
	c-0.7-0.2-1.3-0.3-2-0.4c-0.5-0.1-1-0.1-1.4,0.1c-1.8,0.6-3.7,1.1-5.2,2.3C6.7,3.3,6.4,3.4,6.1,3.6z"/>
<path class="st2" d="M13.5,11.3c-0.4-0.3-0.8-0.4-1-0.7c-0.4-0.6-0.4-1.4-0.1-2.1c0.1-0.4,0.5-0.4,0.7-0.3c0.9,0.6,1.9,0.6,2.9,0.8
	c0,0,0.1,0,0.1,0c0.1,0.1,0.3,0.2,0.3,0.4c0,0.1-0.2,0.3-0.3,0.3c-0.6-0.1-0.9,0.4-1.3,0.7C14.4,10.7,14,11,13.5,11.3z"/>
<path class="st2" d="M11.9,55.8c0-0.4,0-0.9,0-1.3c0.1-3-0.4-6-1.1-9c-0.1-0.6-0.5-1.1-0.8-1.7c-0.1-0.2-0.2-0.5,0.1-0.6
	c0.3-0.1,0.5,0,0.6,0.4c1.3,3.2,1.8,6.4,1.7,9.8c0,0.8-0.1,1.6-0.2,2.4C12.1,55.8,12,55.8,11.9,55.8z"/>
<path class="st2" d="M27.1,38c-0.1-0.2-0.3-0.3-0.4-0.5c-0.9-1.6-1.8-3.2-2.1-5.1c-0.1-0.8-0.5-1.5-0.7-2.2
	c-0.2-0.7-0.4-1.5-0.5-2.3c0-0.1,0.1-0.2,0.2-0.4c0.1,0.1,0.3,0.2,0.4,0.2c0,0,0,0,0,0.1c0.5,1.7,0.9,3.4,1.4,5.1
	c0.3,1,0.8,1.9,1.2,2.8c0.3,0.7,0.8,1.3,0.8,2C27.2,37.9,27.1,37.9,27.1,38z"/>
<path class="st2" d="M17.7,54c-1.4-2.2-0.4-8.8,1.4-9.7c-0.1,0.9-0.6,1.6-0.9,2.4c-0.2,0.8-0.3,1.6-0.5,2.6c0.6-0.4,1.1-0.7,1.7-1
	c0,0.5-0.3,0.6-0.6,0.7c-1.3,1-1.4,1-1.3,2.6c0,0.5,0.1,1,0.1,1.4C17.6,53.3,17.7,53.5,17.7,54z"/>
<path class="st2" d="M12.1,13.8c0.9,0.4,1.3,1.2,1.5,2c0.5,1.9,0.7,3.8,0.6,5.8c0,0.2-0.1,0.4-0.2,0.5c-0.1,0-0.1,0-0.2,0
	c0-0.3-0.1-0.6-0.1-0.9c-0.2-1.6-0.4-3.2-0.6-4.8c-0.1-0.7-0.4-1.4-1-1.9C11.8,14.2,11.9,14.2,12.1,13.8z"/>
<path class="st2" d="M19.1,32.7c0.3-0.6,0.5-1.2,0.9-2c0.1,0.3,0.2,0.5,0.1,0.6c-0.2,0.6-0.3,1.2-0.6,1.7c-0.4,0.7-0.8,0.7-1.2,0
	c-0.2-0.4-0.4-0.8-0.5-1.1c-0.4-0.9-0.8-1.7-1.2-2.6c0,0-0.1-0.1-0.1-0.2c0-0.2,0.1-0.3,0.1-0.5c0.1,0,0.3,0,0.4,0.1
	c0.2,0.3,0.4,0.6,0.5,0.9c0.4,0.8,0.7,1.6,1,2.4c0.1,0.2,0.2,0.4,0.4,0.6C19,32.7,19,32.7,19.1,32.7z"/>
<path class="st2" d="M56.4,55.1c0,0.1-0.1,0.3-0.1,0.4c-1,1.5-2,3-3,4.5c-0.3,0.5-0.8,0.8-1.2,1.2c-0.2,0.2-0.5,0.3-0.9,0.6
	c0-0.4,0-0.6,0-0.7c1.9-1.3,2.9-3.5,4.3-5.3c0.2-0.3,0.5-0.5,0.8-0.8C56.3,55.1,56.4,55.1,56.4,55.1z"/>
<path class="st2" d="M10.6,11.8c-0.6-0.8-0.7-1.7-0.8-2.6c-0.1-0.8,0.9-1.7,1.9-2c-0.2,0.4-0.4,0.9-0.6,1.1c-0.6,0.6-0.6,1.2-0.4,2
	c0.1,0.3,0.2,0.6,0.2,0.9c0,0.2,0,0.4,0,0.6C10.7,11.8,10.6,11.8,10.6,11.8z"/>
<path class="st2" d="M12.6,34.3c-0.9-0.8-1.2-2.8-0.5-4.1c0.4,0,0.4,0.3,0.4,0.6c0,0.5-0.1,0.9-0.2,1.4c0,0.6,0,0.8,0.5,1.3
	c0.3-0.4,0.6-0.8,0.9-1.1C13.6,33.4,13.3,33.9,12.6,34.3z"/>
<path class="st2" d="M57.5,59.3c0,0.3,0,0.4,0,0.4c-1.2,0.9-2.3,1.8-3.1,3.1c-0.3-0.4-0.1-0.6,0-0.7c0.6-0.7,1.3-1.3,2-1.9
	C56.7,59.9,57,59.7,57.5,59.3z"/>
<path class="st2" d="M57.1,58.4c-1,1.4-2.4,2-3.5,3c0-0.6,0.5-0.9,0.9-1.2c0.4-0.3,0.8-0.6,1.3-0.8C56.2,59.1,56.3,58.5,57.1,58.4z"
	/>
<path class="st2" d="M8.7,12.9c-0.4-0.3-0.7-0.6-1.1-0.8c-0.3-0.2-0.7-0.3-1.1-0.4c0.4-0.4,1.1-0.5,1.5-0.2
	C8.5,11.8,8.8,12.2,8.7,12.9z"/>
<path class="st2" d="M58.3,60.9c-0.9,0.8-1.8,1.7-2.7,2.5c-0.1,0-0.1-0.1-0.2-0.1c0-0.2,0-0.4,0.1-0.4c0.8-0.7,1.7-1.4,2.6-2
	c0,0,0.1,0,0.2,0C58.3,60.8,58.3,60.9,58.3,60.9z"/>
<path class="st2" d="M8.6,6.3c-0.2-0.5-0.5-0.9-1.1-1C7.4,5.3,7.3,5,7.2,4.9c0.2-0.1,0.4-0.2,0.5-0.1C8.7,4.9,8.9,5.4,8.6,6.3z"/>
<path class="st2" d="M11.5,5.8c1-1.1,1.6-1.2,2.4-0.7c-0.4,0.1-0.8,0.2-1.2,0.4C12.4,5.6,12.1,6,11.5,5.8z"/>
<path class="st2" d="M13.4,87.8c-0.8,0.5-1.5,1-2.3,1.5C11.2,88.5,12.6,87.7,13.4,87.8z"/>
<path class="st2" d="M20.4,49.6c-0.9,0.5-1.6,1-2.5,1.4C18.2,50.3,19.2,49.7,20.4,49.6z"/>
<path class="st2" d="M26.8,25.9c-0.6,0.5-1.2,0.9-1.9,1.1C25.2,26.4,25.9,26,26.8,25.9z"/>
<path class="st2" d="M3.2,10.2c-0.6,0.5-1.2,1-1.9,1.5C1.6,10.8,2.3,10.2,3.2,10.2z"/>
<path class="st2" d="M8.8,17.3c0.1,0.2,0.2,0.4,0.3,0.5C8.9,17.9,8.8,18,8.7,18c-0.1,0-0.2-0.2-0.2-0.3C8.5,17.6,8.6,17.5,8.8,17.3z
	"/>
<path class="st2" d="M9.5,19.8c0.1,0.2,0.3,0.3,0.3,0.4c0,0.1-0.2,0.2-0.3,0.2c-0.1,0-0.3-0.2-0.3-0.3C9.2,20.1,9.4,20,9.5,19.8z"/>
<path class="st2" d="M10.6,17.9c-0.2,0.1-0.4,0.2-0.4,0.2c-0.1,0-0.1-0.2-0.2-0.3c0.1-0.1,0.2-0.2,0.3-0.2
	C10.3,17.7,10.4,17.8,10.6,17.9z"/>
<path class="st2" d="M66.9,53.5c0.1-0.5,0.5-0.6,1-0.5c-0.3,0.2-0.6,0.5-0.9,0.7C67,53.7,66.9,53.6,66.9,53.5z"/>
<path class="st1" d="M5.9,8.9c0,0.1-0.1,0.2-0.2,0.2S5.5,9,5.5,8.9s0.1-0.2,0.2-0.2S5.9,8.8,5.9,8.9z"/>
<path class="st1" d="M12.9,9.3c0,0.1-0.1,0.2-0.2,0.2s-0.2-0.1-0.2-0.2s0.1-0.2,0.2-0.2C12.8,9.1,12.9,9.2,12.9,9.3z"/>
<path class="st1" d="M3.9,13.9c0.3-0.1,0.6-0.1,0.9-0.1c0.2,0,0.3,0,0.5,0c0.1,0,0.1,0,0.2-0.1c0-0.1,0-0.1-0.1-0.2
	c-0.2,0-0.4,0-0.5,0c-0.3,0-0.6,0-1,0.1c-0.1,0-0.1,0.1-0.1,0.2C3.8,13.9,3.8,14,3.9,13.9L3.9,13.9z"/>
<path class="st2" d="M76.7,106.7c-0.4-3.1-0.8-6.2-1.2-9.3c0-0.1,0-0.2,0-0.3c-0.1-1.1-0.2-2.3-0.3-3.4c-0.3-2.4-0.6-4.8-0.9-7.2
	c0-0.3-0.1-0.5-0.2-0.8c-0.1,0-0.1,0-0.2-0.1c-0.2,0.4-0.6,0.7-0.6,1.2c0,0.6-0.1,1.2,0.2,1.7c0.1,0.2,0.1,0.5,0.2,0.8
	c0.3,2.5,0.7,4.9,1,7.4c0.1,0.9,0.3,1.8,0.4,2.6c0.2,1.8,0.3,3.5,0.4,5.3c0,0.2,0.1,0.4,0.1,0.6c0.1,0.8,0.1,1.5,0,2.3
	c0,0-0.1,0-0.1,0.1c-0.1,0.2-0.3,0.3-0.5,0.3h0l-0.1,0c-0.1,0-0.2,0-0.2,0.1c-0.2,0.1-0.4,0.1-0.5,0.1c-0.3,0-0.6,0-0.9,0
	c-0.3,0-0.5,0-0.8,0c-0.3,0-0.6,0-0.8-0.1c-0.3,0-0.5-0.2-0.6-0.3h0l0,0c-0.2-0.3-0.3-0.6-0.2-1c0-0.1,0.1-0.3,0.2-0.4l0-0.1l0-0.1
	c0.1-0.3,0.2-0.6,0.4-0.8c0.3-0.5,0.7-0.9,1.1-1.2c0.1-0.1,0.2-0.2,0.4-0.2c0.1-0.1,0.3-0.2,0.4-0.2c-0.2-0.6-0.3-1.2-0.5-1.8
	c-0.1-0.6-0.1-1,0.3-1.4c0.5-0.5,0.9-1,1.3-1.5c0.1-0.1,0.2-0.3,0.2-0.4c0,0-0.1-0.1-0.1-0.1c-0.6,0.6-1.3,1.3-1.9,1.9
	c-0.6-1.3-0.6-1.5,0.3-2.4c0.3-0.3,0.5-0.5,0.8-0.8c0.1-0.1,0.1-0.3,0.2-0.4c0,0-0.1-0.1-0.1-0.1c-0.5,0.6-1.1,1.1-1.6,1.7
	c-0.1-0.2-0.1-0.2-0.1-0.3c-0.6-2.6-0.6-5.2-2.3-8.2c-1.4-1.4-0.6-0.3-0.9-0.2c0.1,0.3,1.1,1.5,1.1,1.8c0.3,1.8,0.6,3.6,0.9,5.4
	c0.3,1.9,0.8,3.8,1.4,5.6c0.1,0.4,0.1,0.8-0.3,1.1c-1,0.8-2.5,2.5-2.5,3.7c0,1.2,1.6,1.8,2.8,1.7c0.6-0.1,0.8-0.1,1,0
	c0.4-0.1,0.7-0.2,1-0.2c0.4,0,0.8,0,1.2-0.1C76.4,108.5,76.8,107.9,76.7,106.7z"/>
<path class="st2" d="M55.6,68.3c1,1.4,2.2,3.7,3.3,5.9c1.1,2.3,2,4.5,2.4,5.8c0.3,0.9,0.6,1.9,1.1,2.8c0.5,0.8,1.3,1.5,1.9,2.1
	c1.4,1.3,2.6,2.7,3.8,4.2c1,1.2,1.8,2.5,2,3.9l0.6-0.1c-0.2-1.6-1.1-3-2.1-4.2c-1.2-1.5-2.5-2.9-3.8-4.2c-0.7-0.7-1.4-1.3-1.9-2
	c-0.5-0.8-0.8-1.7-1.1-2.6c-0.4-1.4-1.3-3.6-2.4-5.9c-1.1-2.3-2.3-4.6-3.3-6L55.6,68.3L55.6,68.3z"/>
<path class="st2" d="M72.4,107.9c-0.2-0.3-0.4-0.7-0.4-1.1c0-0.4,0.1-0.8,0.4-1.1c0.1-0.1,0.1-0.3-0.1-0.4c-0.1-0.1-0.3-0.1-0.4,0.1
	c-0.3,0.4-0.5,0.9-0.5,1.5c0,0.5,0.1,1,0.5,1.4c0.1,0.1,0.3,0.2,0.4,0.1C72.5,108.2,72.5,108.1,72.4,107.9L72.4,107.9z"/>
<path class="st2" d="M74.3,107.9c-0.1-0.4-0.2-0.8-0.2-1.1v-0.1c0-0.3,0.1-0.7,0.3-0.9c0.1-0.1,0.1-0.3-0.1-0.4s-0.3-0.1-0.4,0.1
	c-0.3,0.4-0.4,0.8-0.4,1.2v0.1c0,0.4,0.1,0.8,0.2,1.2c0,0.2,0.2,0.2,0.3,0.2C74.2,108.2,74.3,108.1,74.3,107.9L74.3,107.9z"/>
</svg>
