<svg width="41" height="40" viewBox="0 0 41 40" fill="none" xmlns="http://www.w3.org/2000/svg">
<path d="M2.4226 13.2013C2.14232 13.4535 1.67285 13.3274 1.4276 13.0471C1.18236 12.7669 1.09829 12.3815 1.02121 12.0171C0.895084 11.3795 0.76195 10.7418 0.635825 10.1042C0.313506 8.51364 0.0262235 6.72686 0.923112 5.36751C1.60979 4.31647 2.84301 3.79096 4.00616 3.3215C4.28644 3.20939 4.59474 3.09025 4.88904 3.17434C5.09224 3.23039 5.2604 3.37754 5.41456 3.5317C6.81595 4.91907 7.60773 6.80395 8.25937 8.6678C8.67979 9.88 9.05116 11.1412 8.96007 12.4165C8.86197 13.6918 8.19632 14.9951 7.02616 15.5206C6.49363 15.7588 5.90505 15.8149 5.32347 15.8079C4.58074 15.8009 3.80997 15.6817 3.18635 15.2753C1.74292 14.3504 1.53972 12.3815 0.937119 10.7699" fill="white"/>
<path d="M23.5346 1.19139C23.8569 1.12132 24.2003 1.07928 24.5156 1.17738C24.8729 1.2965 25.1392 1.59078 25.3634 1.89208C26.1692 2.98516 26.5826 4.35853 26.5266 5.71087C26.5055 6.29245 26.3934 6.87401 26.1902 7.42756C25.5176 9.24937 23.8289 10.6718 21.902 10.9661C19.2393 11.3725 17.5787 9.36148 17.929 6.86C18.3214 4.02219 20.8089 1.76595 23.5346 1.19139Z" fill="white"/>
<path d="M38.3823 8.33846C38.5925 8.42255 38.7677 8.5837 38.9289 8.74486C39.5385 9.34045 40.1551 9.97107 40.4774 10.7558C42.061 14.6237 35.3133 20.1452 32.5245 16.2283C31.5505 14.8549 31.4104 12.7108 32.2653 11.2534C33.1201 9.7819 36.6376 7.6658 38.3823 8.33846Z" fill="white"/>
<path d="M17.1021 16.6485C18.5385 15.9969 20.101 15.5274 21.6706 15.6816C22.7707 15.7937 23.8217 16.2071 24.8097 16.7116C28.159 18.4143 31.0319 21.2871 32.1039 24.8887C33.176 28.4903 32.167 32.7855 29.189 35.0698C26.7016 36.9757 23.3663 37.263 20.2272 37.3681C18.4124 37.4311 16.5625 37.4522 14.8108 36.9687C11.2232 35.9807 5.3374 31.7205 6.38844 27.4042C7.49554 22.8917 13.1011 18.4633 17.1021 16.6485Z" fill="white"/>
<path d="M5.74412 14.7984C5.51989 15.415 -0.344922 11.7784 2.55595 9.55019C4.97335 7.70036 6.31869 13.2008 5.74412 14.7984Z" fill="#BCBCBB"/>
<path d="M19.4847 10.4333C17.2985 9.99183 16.0373 3.67858 19.4287 4.15505C22.6238 4.60349 22.4066 11.0218 19.4847 10.4333Z" fill="#BCBCBB"/>
<path d="M32.8191 16.9988C32.4337 16.5854 32.3356 15.9968 32.2585 15.4362C32.1254 14.4272 32.0413 13.4182 31.9923 12.4022C31.9292 10.9798 32.0903 9.01086 33.6949 8.49234C35.1734 8.00886 37.1003 9.3612 37.5418 10.7696C38.1514 12.7035 35.3205 19.6684 32.8191 16.9988Z" fill="#BCBCBB"/>
<path d="M14.783 25.4211C15.799 28.1749 16.4086 31.4962 14.6568 33.8575C13.2484 35.7634 10.6629 36.4361 8.29453 36.3309C7.70595 36.3029 7.10336 36.2328 6.61287 35.9105C5.88415 35.4411 5.56883 34.5512 5.37264 33.7104C4.61589 30.4241 5.06433 26.8716 6.61287 23.8796C7.37663 22.4011 10.0603 18.1549 12.0853 18.3792C14.2504 18.6104 14.1874 23.8025 14.783 25.4211Z" fill="#BCBCBB"/>
<path d="M33.127 31.2578C33.05 32.1757 32.9449 33.458 32.8257 34.7333C32.5945 37.2207 31.1301 38.8183 28.9649 39.7993C28.4114 40.0515 27.6126 40.0585 27.031 39.8623C25.6576 39.3999 24.3123 38.8253 23.03 38.1526C20.984 37.0736 18.8749 36.52 16.5626 36.8564C14.5726 37.1436 12.5897 37.508 10.5857 37.7042C9.43656 37.8163 8.21735 37.8303 7.09624 37.5851C4.7349 37.0806 3.45963 34.7613 4.1323 32.435C4.75591 30.2908 5.35151 28.1397 6.07322 26.0306C7.01215 23.2699 8.75689 20.9996 10.9711 19.1708C12.4636 17.9376 14.1873 16.9707 15.8759 15.9967C16.7308 15.5062 17.7048 15.1278 18.6787 14.9316C24.0741 13.8315 26.015 15.1559 29.1891 19.1919C30.2472 20.5372 31.0179 22.1348 31.7467 23.6973C32.2652 24.7974 32.6155 26.0166 32.8328 27.2148C33.057 28.413 33.0289 29.6602 33.127 31.2578ZM11.0482 28.5391C11.0832 28.6372 11.1182 28.7423 11.1533 28.8404C9.96908 29.3029 8.77791 29.7443 7.60074 30.2208C5.9401 30.9004 5.75091 31.2158 5.84901 32.9815C5.86302 33.2618 5.90506 33.5421 5.95411 33.8153C6.31847 35.8614 7.45359 36.8143 9.53466 36.7372C10.4245 36.7022 11.3144 36.5551 12.1973 36.4359C13.8019 36.2187 15.3995 35.9244 17.0181 35.7773C19.1762 35.5881 21.2222 35.9314 23.1491 37.0736C24.3403 37.7743 25.7347 38.1246 27.003 38.7132C28.068 39.2037 28.9929 38.9514 29.8198 38.2998C30.8498 37.494 31.6276 36.527 31.8728 35.1537C32.3212 32.6382 32.1881 30.1227 31.8448 27.6282C31.3963 24.377 29.8057 21.5742 27.8158 19.0657C26.8418 17.8395 25.6156 16.5362 23.8639 16.4521C20.7598 16.305 17.7188 16.6483 14.9791 18.33C14.5516 18.5892 14.1102 18.8275 13.6687 19.0657C12.0081 19.9556 10.6488 21.1818 9.63275 22.7724C8.93906 23.8585 8.28041 24.9656 7.64979 26.0797C7.34148 26.6262 6.90705 27.1728 7.11025 27.9225C9.30342 27.2218 11.4125 26.5421 13.5216 25.8695C13.5566 25.9746 13.5917 26.0867 13.6267 26.1918C13.3955 26.2759 13.1643 26.367 12.933 26.444C11.3425 26.9906 9.73786 27.4951 8.17531 28.1047C7.3625 28.427 6.30445 28.6442 6.33248 30.1297C7.99312 29.5831 9.52064 29.0576 11.0482 28.5391Z" fill="black"/>
<path d="M9.5348 10.7203C9.54882 12.9906 8.07035 15.1557 6.41671 15.7023C4.82614 16.2278 3.29863 15.7863 2.17051 14.5671C0.0824376 12.3039 -0.555198 9.73936 0.502851 6.81746C1.07742 5.22688 2.17751 4.01468 3.69101 3.33501C4.16749 3.11779 5.02933 3.35604 5.53383 3.67135C7.20149 4.74341 8.14742 6.41105 8.84111 8.21183C9.19146 9.14376 9.37364 10.1458 9.5348 10.7203ZM1.49083 8.82845C1.81315 10.5171 2.49283 12.2759 4.09742 13.6282C6.06637 15.2889 7.69198 14.8895 8.57485 12.4791C9.00228 11.3159 8.63792 10.2649 8.30158 9.21384C7.74804 7.48313 6.89319 5.92057 5.40071 4.79946C4.82614 4.37203 4.21653 4.16884 3.56488 4.70137C2.34567 5.69636 1.49083 6.88753 1.49083 8.82845Z" fill="black"/>
<path d="M26.1132 4.72949C26.0711 7.00674 24.901 8.71645 23.3595 10.258C22.1753 11.4422 18.833 10.293 17.9991 8.77251C16.5907 6.19395 17.9851 3.03382 19.5687 1.83564C20.5637 1.07889 21.8039 0.637448 22.9671 0.125941C23.6678 -0.189372 24.2353 0.118917 24.7188 0.700494C25.5106 1.63942 26.1062 3.27905 26.1132 4.72949ZM19.2814 8.35209C20.4446 8.05079 21.4956 7.77751 22.5537 7.51125C20.8229 8.3731 20.8229 8.37311 20.0802 9.18592C20.6478 9.27701 21.2434 9.19992 21.5657 9.45918C22.6167 10.307 23.2614 9.57129 23.8009 8.91263C24.3544 8.23296 24.8239 7.43417 25.1322 6.61436C25.889 4.61037 25.0902 2.18597 23.3945 1.0088C21.3134 1.98977 19.0922 2.84462 18.9311 5.8506C19.9401 5.61937 20.8089 5.42318 21.6848 5.21998C21.2013 5.63339 20.6758 5.80857 20.1643 6.03279C18.882 6.58634 18.868 6.62838 19.2814 8.35209Z" fill="black"/>
<path d="M31.3544 13.8106C31.3895 11.4282 33.3024 8.70249 35.5236 7.86866C37.5135 7.12593 39.3563 7.92472 39.966 9.88667C40.5826 11.8556 40.2743 13.6144 38.6767 15.0998C37.1422 16.5293 35.6076 17.7134 33.3024 16.9497C31.5857 16.3821 31.3194 16.0458 31.3544 13.8106ZM33.7088 11.8766C33.4075 12.22 33.0991 12.5633 32.6087 13.1239C33.6107 13.0258 34.3254 12.9557 35.0401 12.8786C35.0401 12.9347 35.0471 12.9907 35.0471 13.0538C34.4024 13.299 33.7578 13.5443 32.91 13.8736C33.5546 14.8196 34.0661 15.5623 34.5636 16.298C36.2032 16.284 37.4505 15.6043 38.6767 14.0908C39.6997 12.8296 39.7978 10.8326 38.8238 9.57135C38.5856 9.26304 38.1231 9.03181 37.7237 8.95473C36.3223 8.67445 34.0801 9.94973 33.4705 11.3371C33.4145 11.4632 33.6387 11.7155 33.7298 11.9047L33.7088 11.8766Z" fill="black"/>
<path d="M33.7299 11.9047C34.2274 11.3231 34.8651 11.183 35.6288 11.4913C34.9842 11.6174 34.3465 11.7505 33.7019 11.8767C33.7089 11.8767 33.7299 11.9047 33.7299 11.9047Z" fill="black"/>
</svg>
