<?xml version="1.0" encoding="utf-8"?>
<!-- Generator: Adobe Illustrator 24.0.2, SVG Export Plug-In . SVG Version: 6.00 Build 0)  -->
<svg version="1.1" xmlns="http://www.w3.org/2000/svg" xmlns:xlink="http://www.w3.org/1999/xlink" x="0px" y="0px"
	 viewBox="0 0 228.4 280.75" style="enable-background:new 0 0 228.4 280.75;" xml:space="preserve">
<style type="text/css">
	.st0{fill:#EB584A;}
	.st1{fill:#FFFFFF;}
	.st2{fill:#BCBCBB;}
	.st3{fill:#020203;}
	.st4{fill:#030304;}
</style>
<g id="Layer_1">
</g>
<g id="Layer_2">
</g>
<g id="Layer_3">
</g>
<g id="Layer_4">
</g>
<g id="Layer_5">
</g>
<g id="Layer_6">
</g>
<g id="Layer_7">
</g>
<g id="Layer_8">
</g>
<g id="Layer_9">
</g>
<g id="Layer_10">
	<g>
		<path class="st1" d="M119.67,215.16c-0.07,2.79-0.14,5.6-0.21,8.38c-0.02,1.17-0.07,2.36,0.19,3.48c0.29,1.33,0.93,2.55,1.55,3.74
			c2.19,4.14,4.43,8.33,7.71,11.67c1.31,1.31,2.74,2.48,4.05,3.79c3.26,3.33,5.52,7.67,6.33,12.26c0.67,3.71,0.1,8.17-3.05,10.24
			c-1,0.67-2.29,1.1-2.86,2.14c-0.67,1.21-0.12,2.81,0.95,3.71c1.05,0.9-0.47,2.98,2.47,2.98c2.94,0.01,5.84-2.63,6.72-3.53
			c1.62-1.69,3.26-3.43,4.14-5.6c1.57-3.86,0.43-8.19,0.07-12.33c-0.21-2.52-0.1-5.05,0-7.57c0.29-7.19,0.57-14.38,0.88-21.6
			c0.1-2.6,0.19-5.33-0.98-7.67c-1.88-3.83-6.5-5.48-10.76-5.71c-4.71-0.24-9.5,0.83-13.64,3.07"/>
		<path class="st1" d="M41.81,204.75c2.38,11.6,1.57,31.19,2.55,42.98c0.48,5.86,1.6,11.69,1.29,17.57c-0.1,1.76-0.33,3.57-1.19,5.1
			c-0.64,1.14-1.67,2.33-1.26,3.6c0.36,1.12,1.69,1.57,2.86,1.79c1.98,0.36,3.98,0.55,5.98,0.52c0.29,0,0.57,0,0.83-0.14
			c0.45-0.24,0.6-0.79,0.71-1.26c2.6-11.52-0.4-23.67,1.57-35.31c0.55-3.19,1.45-6.33,2.05-9.52c0.57-3.02,0.83-6.07,0.83-9.14
			c0-0.98-0.02-1.95-0.36-2.88c-0.62-1.69-2.14-2.88-3.6-3.95c-1.79-1.31-3.74-2.69-5.95-2.67"/>
		<path class="st1" d="M183.75,218.47c-5-9.76-3.07-22.31-9.26-31.36c-3.07-4.5-7.64-7.43-12.74-9.52
			c-11.52-1.21-23-2.79-34.43-4.14c-17.26-2.07-35.36-5.14-49.31-16.29c-0.26-0.21-0.48-0.45-0.62-0.69
			c-2.14-1.07-4.21-2.33-5.71-4.19c-3.12-3.9-2.93-9.57-1.29-14.29c1.64-4.71,4.52-8.91,6.45-13.52c0.76-1.86,1.21-4.36-0.38-5.55
			c-0.67-0.5-1.52-0.62-2.33-0.71c-4.52-0.6-9.02-1.17-13.55-1.76c-2.05-0.26-4.14-0.52-6.14-0.05c-3.6,0.86-6.48,3.95-10.17,4.14
			c-4.12,0.21-7.38-3.24-10.38-6.1c-3-2.83-7.48-5.41-11.05-3.31c-2.81,1.67-3.45,5.36-3.83,8.6c-0.24,2.19-0.5,4.38-0.74,6.6
			c-0.07,0.74-0.12,1.57,0.38,2.1c0.57,0.57,1.48,0.45,2.26,0.52c4.12,0.36,5.55,6.02,4.05,9.86c-1.5,3.83-4.71,6.83-6.17,10.69
			c-1.81,4.79-0.62,10.41,2.38,14.57c0.43,0.57,0.88,1.17,1.55,1.48c2.24,1.05,4.36-1.62,5.33-3.88c2-4.6,5.86-6.07,5.38,0.29
			c-0.24,3.31-1.74,5.81-2.64,8.88c-2.64,8.91,0.64,19.55,4.81,27.48c5.1,9.69,12.69,17.81,20.19,25.79
			c1.1,1.17,2.21,2.36,3.19,3.62c0.95,0.07,1.86,0.38,2.62,0.95c4.52,3.43,7.86,7.55,8.95,13.26c1,5.19,0.86,10.67,1.05,15.91
			c0.12,3.14,0.26,6.41-0.81,9.43c-0.79,2.24-2.1,4.1-3.24,6.14c-0.62,1.12-1.07,2.31-1.24,3.5c2.5,1.1,5.57,1.52,8.29,1.67
			c1.26,0.07,2.67,0.1,3.69-0.67c0.79-0.6,1.21-1.55,1.57-2.45c4.64-11.52,6.71-24.07,6-36.48c-0.17-2.9-0.43-6.02,1.17-8.45
			c1.5-2.31,4.31-3.36,6.93-4.21c12.48-4.05,25.41-6.76,38.48-8.02c1.86-0.19,3.88-0.29,5.43,0.79c2.57,1.81,2.21,5.79,0.86,8.62
			c-0.05,0.1-0.1,0.21-0.14,0.31c0.83,0.81,1.5,1.83,1.93,3c1.62,4.55,5.5,8.02,8.62,11.6c3.36,3.83,6.74,7.83,8.81,12.52
			c1.71,3.88,3.26,8.1,2.07,12.33c-0.86,3.02-2.95,5.21-5.55,6.67c-0.57,1.1-1.33,2.26-1.55,3.38c-0.52,2.62,2.36,2.44,5.02,2.51
			c4.93,0.14,9.17-1.75,10.79-6.39c1.62-4.64,1.36-8.71,1.38-13.62c0.05-4.93,0.5-10.12,3.33-14.14c0.62-0.88,1.4-1.74,2.48-1.93
			c0.98-0.19,1.98,0.21,2.88,0.64c8.33,3.88,16.79,9.88,25.81,8.12c2.05-4.88,4.12-9.76,6.17-14.64
			C200.25,233.66,188.91,228.59,183.75,218.47z"/>
		<path class="st2" d="M28.07,158.87c-0.24,0.14-0.45,0.31-0.67,0.5c-0.9,0.83-1.6,1.86-2.38,2.81c-0.79,0.93-1.74,1.81-2.9,2.17
			c-0.31,0.1-0.62,0.14-0.93,0.07c-0.6-0.17-0.88-0.79-1.1-1.36c-0.48-1.29-0.81-2.74-0.29-4c0.52-1.26,1.86-2.1,3.21-2.19
			s2.71,0.48,3.74,1.38"/>
		<path class="st2" d="M64.15,135.39c0.36,0.21,0.79,0.26,1.19,0.4c1.14,0.43,1.76,1.64,2.31,2.74c0.17,0.36,0.33,0.74,0.29,1.12
			c-0.07,0.48-0.5,0.83-0.9,1.12c-1.17,0.86-2.38,1.62-3.67,2.29c-0.5,0.26-1.02,0.52-1.6,0.62c-0.69,0.12-1.43,0-2.1-0.19
			c-2.5-0.74-4.62-2.6-5.79-4.93c-1.17-2.33-1.4-5.07-0.83-7.62c0.71-3.14,3.4-4.14,5.41-1.69c1.05,1.26,1.76,1.95,3.07,2.93
			C62.67,133.03,63,134.7,64.15,135.39z"/>
		<path class="st2" d="M86.15,228.78c1.57-1.24,3-2.71,4.17-4.33c0.6-0.07,0.55,0.83,0.64,1.43c0.19,1.21,1.95,1.48,3.05,0.88
			c1.1-0.6,1.83-1.69,2.93-2.29c2.14-1.14,4.74-0.07,7.17-0.07c2.71,0,5.19-1.38,7.55-2.71c3.19-1.81,6.36-3.64,9.55-5.45
			c0.64-0.38,1.4-1.02,1.12-1.71c-0.1-0.26-0.33-0.45-0.57-0.6c-2.43-1.64-5.62-1.67-8.45-1c-2.83,0.69-5.48,2-8.24,2.95
			c-5,1.71-10.43,2.19-15.67,1.36c-3.12-0.5-3.95-0.86-3.98,2.69C85.38,222.9,85.62,225.87,86.15,228.78z"/>
		<path class="st2" d="M39.83,158.8c0.6,2.71,1.19,5.43,1.81,8.17c0.29,1.29,0.57,2.62,0.45,3.95c-0.17,1.69-0.98,3.21-1.62,4.79
			c-2.24,5.55-2.29,11.69-3.62,17.52c-0.1,0.43-0.24,0.9-0.6,1.17c-0.24,0.17-0.55,0.21-0.86,0.19c-1.67-0.1-2.93-1.69-3.29-3.33
			c-0.36-1.64-0.07-3.33,0.02-5.02c0.1-1.67-0.07-3.5-1.14-4.79c-0.33-0.4-0.74-0.74-0.95-1.21c-0.17-0.38-0.19-0.79-0.21-1.19
			c-0.14-3.95,0.38-7.93,1.5-11.71c0.62-2.05,1.26-4,1.21-6.17c-0.05-1.31-0.62-2.93-0.14-4.21c0.57-1.5,2.79-2.57,4.26-2.88
			c1.55-0.33,1.62-0.21,2.29,1.36C39.33,156.49,39.57,157.65,39.83,158.8z"/>
		<path class="st2" d="M20.41,128.46c-0.17,0.17-0.33,0.33-0.55,0.43c-0.33,0.17-0.76,0.12-1.1,0c-1.33-0.5-1.93-2.14-1.64-3.52
			c0.29-1.38,1.24-2.55,2.24-3.52c0.14-0.14,0.29-0.29,0.45-0.38c0.6-0.38,1.38-0.24,2,0.05c1.4,0.67,4.69,1.71,4,3.79
			C25.17,127.13,21.79,127.22,20.41,128.46z"/>
		<path class="st2" d="M47.57,275.73c0.43,0.17,0.86,0.33,1.31,0.45c-0.05-0.05,0.4-0.02,0.76-0.02c0.1-0.05,1.05-0.19,1.19-0.24
			c0.07-0.02,1.98-0.71,0.79-0.19c0.9-0.38,1.81-0.62,2.69-0.71c0.17-0.1,0.33-0.21,0.45-0.38c0.26-0.33,0.31-0.76,0.36-1.17
			c0.26-2.64,0.31-5.31,0.12-7.98c-0.19-2.69-0.6-5.36-0.62-8.05c-0.02-5.14,1.36-10.43-0.19-15.33c-0.26-0.83-0.69-1.71-1.5-2.07
			c-1.02-0.43-2.24,0.26-2.79,1.21c-0.55,0.98-0.6,2.12-0.62,3.24c-0.14,5.12-0.26,10.24-0.4,15.38c-0.07,2.88-0.21,5.93-1.86,8.29
			c-0.67,0.95-1.57,1.74-2.21,2.71c-0.93,1.38-1.26,3.17-0.79,4.76C45.38,275.3,46.53,275.3,47.57,275.73z"/>
		<path class="st2" d="M140.34,233.75c0.86,0.6,1.76,1.17,2.31,2.02c0.19,0.31,0.33,0.64,0.43,1c0.81,1.05,1.55,2.12,2.24,3.29
			c0.21,0.36,0.86,1.05,0.98,1.36c0.1-0.05,0.19-0.1,0.26-0.19c0.43-0.45,0.81-0.93,1.17-1.43c-0.83-0.67-1.5-1.29-1.88-2.4
			c-0.43-1.29-0.43-2.69-0.5-4.05c-0.05-0.83-0.19-1.64-0.31-2.45c-0.14,0.12-0.33,0.24-0.43,0.33c-0.26,0.26-0.5,0.57-0.74,0.86
			c-0.57,0.71-1.71,0.1-1.71-0.71c0-1.93,0.12-3.88,0.62-5.76c0.1-0.38,0.24-0.76,0.36-1.12c-0.05-0.29,0.12-0.67,0.43-1.1
			c0.07-0.14,0.12-0.31,0.19-0.45c0.19-0.45,0.29-0.64,0.45-1.24c0.19-0.67,0.33-1.36,0.43-2.05c-0.79,0.67-2.1-0.4-1.48-1.31
			c0.14-0.21,0.33-0.45,0.52-0.69l0.05-0.05l-0.05-0.02c-0.12-0.07-0.24-0.1-0.43-0.14c-0.9-0.26-1.88-0.26-2.81-0.26
			c-2.81-0.02-5.6,0.33-8.41,0.29c-0.6,2.81-0.1,5.86,1.17,8.45C134.77,229.16,137.41,231.75,140.34,233.75z"/>
		<path class="st2" d="M173.46,239.71c1.38,3.36,4.79,5.38,7.98,7.14c0.45,0.26,1.05,0.5,1.45,0.19c0.17-0.12,0.26-0.31,0.4-0.43
			c0.55-0.43,1.31,0.1,1.79,0.57c1.07,1.07,2.19,2.17,3.52,2.9c1.33,0.74,2.98,1.1,4.43,0.62c2.26-0.74,3.52-3.69,2.48-5.83
			c-0.79-1.62-2.48-2.55-4.05-3.43c-4.76-2.69-9.24-5.91-13.31-9.57c-1.81-1.62-3.52-3.69-4.71-0.4
			C172.56,233.92,172.46,237.25,173.46,239.71z"/>
		<path class="st2" d="M93.77,166.18c1.76,1.05,3.74,1.69,5.71,2.24c8.33,2.36,17.12,3.19,25.76,2.45c0.67,0.83,0.31,2.17-0.5,2.88
			c-0.81,0.71-1.9,0.98-2.98,1.21c-1.71,0.38-3.43,0.76-5.17,1.14c-3.74,0.83-7.52,1.67-11.36,1.83
			c-5.14,0.21-10.41-0.83-14.79-3.55c-4.38-2.71-7.74-7.19-8.6-12.26c1.86-0.57,3.76,0.5,5.48,1.43c3.38,1.88,6.93,3.45,10.62,4.64"
			/>
		<path class="st1" d="M29.98,132.56c0,0.43-0.33,0.76-0.76,0.76c-0.43,0-0.76-0.33-0.76-0.76c0-0.43,0.33-0.76,0.76-0.76
			C29.64,131.77,29.98,132.13,29.98,132.56z"/>
		<path class="st3" d="M211.7,236.9c-0.86-0.14-1.74-0.29-2.57-0.52c-2.69-0.79-5.36-1.67-8.07-2.43c-3.14-0.88-6.05-2.26-8.64-4.19
			c-3.74-2.76-7.14-5.88-10.02-9.55c-0.33-0.4-0.67-0.86-0.83-1.33c-0.88-2.62-1.5-5.29-1-8.07c0.17-0.95,0.14-1.83-0.31-2.81
			c-0.52-1.14-0.88-2.45-0.69-4c0.86,0.6,1.55,1.07,2.21,1.52c0.57-0.62,0.26-1.05,0.05-1.52c-0.71-1.67-1.55-3.31-2.05-5.02
			c-1.45-5.1-4.36-9.43-7.14-13.81c-0.76-1.19-1.64-2.31-2.17-3.74c0.43,0.05,0.69,0.07,1.12,0.14c-0.71-0.74-1.19-1.64-1.9-1.93
			c-2.17-0.83-4.14-2.17-6.5-2.6c-1.79-0.33-3.52-0.88-5.29-1.31c-1.14-0.26-2.29-0.55-3.43-0.69c-2.79-0.33-5.57-0.64-8.38-0.86
			c-4.19-0.31-8.41-0.55-12.62-0.81c-2.29-0.14-4.57-0.21-6.83-0.33c-0.38-0.02-0.74-0.17-1.4-0.33c0.69-0.5,1.14-0.86,1.62-1.17
			c0.5-0.33,0.86-0.71,1.05-1.38c-0.33-0.1-0.55-0.24-0.76-0.24c-4.57,0.26-9.12-0.07-13.67-0.5c-1.1-0.1-2.21-0.33-3.31-0.26
			c-2.9,0.24-5.76-0.17-8.52-0.81c-5.41-1.29-10.6-3.31-15.76-5.36c-2.19-0.88-3.88-2.33-5.26-4.24c-1.26-1.76-2.6-3.48-3.86-5.24
			c-0.5-0.71-0.98-1.45-1.36-2.24c-1.88-3.9-3.45-7.93-4.02-12.26c-0.07-0.48,0.02-1.1-0.57-1.36c-0.71,0.17-0.5,0.67-0.45,1.12
			c0.21,2.4,1.07,4.67,1.69,6.98c1.02,3.81,2.86,7.17,5.19,10.29c0.81,1.07,1.57,2.19,2.4,3.24c1.24,1.57,2.48,3.17,4.33,4.02
			c2.71,1.21,5.45,2.45,8.24,3.48c5.14,1.86,10.43,3.07,15.91,3.4c0.29,0.02,0.57,0.33,0.95,0.6c0.52-0.67,1.48-0.71,2.5-0.67
			c4.43,0.26,8.88,0.5,13.33,0.74c0.21,0,0.4,0.07,0.71,0.14c-0.45,0.86-1.6,1.05-1.6,2.26c0.36,0.14,0.76,0.43,1.17,0.48
			c1.45,0.17,2.9,0.33,4.38,0.38c1.76,0.05,3.52-0.1,5.26,0c5.1,0.33,10.17,0.69,15.24,1.14c2.1,0.19,4.17,0.55,6.24,0.95
			c2.07,0.4,4.12,0.88,6.14,1.45c1.74,0.5,3.43,1.14,5.12,1.79c0.38,0.14,0.76,0.5,1,0.86c0.86,1.33,1.64,2.71,2.48,4.05
			c1.62,2.57,3.29,5.12,4.86,7.71c1.95,3.24,2.81,6.93,4.24,10.38c0.05,0.12-0.1,0.29-0.14,0.45c-1.14-0.36-1.14-0.36-2.14-0.1
			c0.43,1.57,0.83,3.14,1.26,4.69c0.36,1.26,0.5,2.5,0.33,3.81c-0.12,0.98,0.02,1.98,0.14,2.95c0.14,1.17,0.43,2.29,0.62,3.45
			c0.19,1.26,0.67,2.36,1.52,3.29c0.74,0.83,1.45,1.69,2.21,2.5c2.71,2.93,5.67,5.6,8.98,7.86c2.14,1.45,4.38,2.71,6.93,3.33
			c0.67,0.17,1.02,0.48,0.86,1.17c0.76-0.31,1.5-0.4,2.33-0.14c2.07,0.62,4.17,1.12,6.26,1.71c0.69,0.19,1.36,0.55,2.14,0.88
			c-0.36,0.57-0.6,0.98-0.86,1.36c-0.71,1.07-1.5,2.1-2.12,3.24c-1.57,2.88-2.79,5.93-3.69,9.07c-0.14,0.48-0.1,1.07-0.88,1.24
			c-0.69-1.21-1.38-2.4-2.07-3.64c-0.29-0.55-0.62-0.98-1.29-0.9c-0.95,0.95-0.95,2.4-1.93,3.24c-1.43-0.67-1.33-2.6-2.86-3.12
			c-1.33,1.1-1.71,2.95-3.21,3.98c-0.36-0.29-0.69-0.5-0.98-0.79c-1.05-1.07-2.21-1.69-3.79-1.19c-0.21,0.07-0.55-0.19-0.79-0.26
			c0.5-0.57,0.9-1.05,1.29-1.52c0.05-0.07-0.07-0.29-0.12-0.5c-0.45,0.26-0.83,0.48-1.24,0.71c-0.79-0.74-1.24-1.81-2.4-1.6
			c-0.86-1.45-0.24-3.29-1.76-4.67c-0.38,1.69-0.69,3.12-1.02,4.62c-0.36-0.12-0.62-0.17-0.79-0.29c-1.93-1.33-3.93-2.55-5.71-4.05
			c-1.29-1.07-2.38-2.43-2.33-4.33c0.05-2.12,0.05-4.24,2.07-5.62c0.21-0.14,0.33-0.38,0.48-0.6c-0.6,0.26-1.17,0.52-1.86,0.83
			c-0.02-0.24-0.1-0.45-0.07-0.67c0.17-1.62,0.26-3.26,0.52-4.88c0.57-3.4,1.19-6.79,1.83-10.19c0.26-1.38,0.57-2.76,0.83-4.12
			c0.1-0.48,0.07-0.95-0.71-0.98c-0.19,0.98-0.38,1.93-0.55,2.88c-0.67,3.38-1.4,6.74-2,10.14c-0.33,1.95-0.45,3.95-0.67,5.91
			c-0.29,2.9-0.55,5.81-0.86,8.71c-0.12,1.29-0.07,2.62-0.5,3.81c-0.62,1.69-1.57,3.26-2.45,4.86c-0.48,0.88-0.81,0.93-1.74,0.52
			c-0.48-0.21-0.93-0.45-1.45-0.69c-1.05,1.83-0.29,3.9-1.17,5.64c-0.69-0.33-1.29-0.62-1.98-0.93c-0.26,0.79-0.48,1.38-0.69,2
			c-0.24-1.33,0.17-2.64-0.43-4.24c-0.76,1.88-0.31,3.64-1.07,5.26c-0.98-1.76-1.76-3.45-2.81-4.95c-1.12-1.57-2.52-2.93-3.79-4.38
			c-0.19-0.21-0.36-0.48-0.55-0.69c-0.45-0.52-0.9-1.02-1.4-1.6c1.21-1,2.26-1.86,3.33-2.71c-0.05-0.07-0.12-0.17-0.17-0.24
			c-1.14,0.71-2.29,1.45-3.45,2.19c-0.62-1.07-1.1-2-1.67-2.88c-0.45-0.69-0.76-1.67-1.95-1.31c-0.17,0.05-0.55-0.26-0.67-0.48
			c-0.48-0.93-1.02-1.86-1.31-2.83c-0.48-1.64-0.52-3.33-0.21-5.05c0.14-0.76,0.38-1.6-0.29-2.52c-1.26,0.76-1.17,2.57-2.5,3.14
			c-0.12-0.19-0.21-0.29-0.21-0.38c-0.14-4.48,0.5-8.76,2.93-12.62c0.33-0.55,0.5-1-0.02-1.67c-1.05,0.74-1.81,1.79-3.02,2.43
			c0.07-1.67,1.4-1.95,2.31-2.76c-0.64-0.98-0.05-1.79,0.43-2.57c1.19-1.93,2.1-4.07,3.69-5.76c0.33-0.36,0.52-0.81-0.19-1.14
			c-0.17,0.14-0.38,0.29-0.48,0.48c-1.38,2.31-2.86,4.55-4.1,6.95c-0.64,1.29-1.5,1.88-2.83,1.93c-0.64,0.02-1.31,0.07-1.93-0.02
			c-2.29-0.4-4.55-0.14-6.81,0.31c-0.57,0.12-1.19,0.17-1.74,0.05c-2.31-0.55-4.4-0.24-6.14,1.55c-0.33-0.5-0.64-0.93-1-1.48
			c-1,0.88-1.9,1.67-2.81,2.48c-0.6-0.81,0.17-1.86-0.98-2.48c-0.74,0.62-1.52,1.31-2.33,1.93c-0.79,0.6-1.24,1.64-2.43,1.9
			c0.19-1.05,0.36-1.88,0.52-2.71c-1.24-0.6-2.12,0-2.93,0.45c-2.55,1.43-5.05,2.93-7.57,4.4c-1.45,0.83-2.9,1.67-4.48,2.57
			c-0.12-1.69,1.17-3.1,0.48-4.76c-2,1.31-2.98,3.43-4.79,4.69c-0.64-1.17,0.5-2.52-0.79-3.67c-1.71,1.86-3.36,3.62-5.19,5.6
			c-0.24-1.31,0.31-2.21,0.38-3.17c0.07-0.9,0.62-1.93-0.48-2.83c-1.81,2.05-2.76,4.6-4.6,6.69c-0.48-1.81-0.76-7.1-0.55-8.76
			c0.21-1.62,0.43-3.24,0.62-4.88c0.07-0.6,0.1-1.19-0.79-1.29c-0.07,0.14-0.19,0.29-0.21,0.43c-0.36,4.5-0.79,8.98-0.12,13.48
			c0.12,0.81,0.12,1.6-0.29,2.4c-0.21,0.45-0.17,1.02-0.24,1.57c0.36-0.02,0.62-0.02,0.93-0.05c0.36,1.57,0.71,3.1,1,4.64
			c0.07,0.36-0.02,0.86-0.24,1.14c-0.95,1.21-1.95,2.43-3,3.57c-1.5,1.6-2.64,3.33-3.05,5.55c-0.17,0.88-0.33,1.81-0.98,2.64
			c-0.48-0.62-0.88-1.12-1.48-1.88c-1.1,2.17-0.83,4.4-1.83,6.36c-0.48-0.21-0.9-0.55-1.31-0.55c-0.4,0.02-0.79,0.38-1.24,0.64
			c-0.1-0.52-0.21-1.02-0.26-1.55c-0.12-1.62-0.19-3.26-0.33-4.88c-0.36-3.67-0.76-7.33-1.1-11c-0.17-1.93-0.17-3.86-0.31-5.79
			c-0.12-1.45-0.36-2.9-0.48-4.36c-0.21-2.69-0.36-5.38-0.57-8.07c-0.02-0.29-0.24-0.52-0.38-0.81c-0.36,0.4-0.48,0.76-0.45,1.12
			c0.1,1.69,0.24,3.38,0.36,5.07c0.19,2.45,0.4,4.9,0.62,7.36c0.07,0.88,0.29,1.76,0.24,2.62c-0.21,3.24,0.38,6.43,0.67,9.62
			c0.4,4.71,0.86,9.43,1.21,14.17c0.19,2.38,0.12,4.81,0.33,7.19c0.19,2.31-0.5,4.29-1.93,6.02c-0.67,0.81-1.57,1.45-2.12,2.33
			c-0.14,0.21-0.26,0.38-0.4,0.55c-0.6,1-1.24,1.95-1.93,2.88c0,0.07,0,0.12,0,0.19c-0.14,1.43,0.33,2.5,1.74,3.07
			c1.93,0.79,3.9,1.12,5.98,0.98c0.36-0.02,0.69-0.02,1.05,0c1.52,0.05,3.05,0.12,4.57,0.17c0.95,0.02,1.86-0.05,2.74-0.86
			c0.05-1.76,0.12-3.62,0.17-5.48c0.05-1.64,0.02-3.29,0.12-4.9c0.05-0.81,0.12-1.74,0.57-2.33c0.57-0.76,0.62-1.48,0.62-2.29
			c0-1.29-0.12-2.57-0.02-3.86c0.19-2.5,0.5-5,0.74-7.52c0.17-1.69,0.29-3.36,0.43-5.05c0.52,0.07,0.9,0.12,1.43,0.19
			c0.31-2.6-0.57-5.17,0.21-7.71c0.9,0.38,0.64,1.88,2,1.86c-0.05-0.48-0.05-0.88-0.17-1.26c-0.69-2.1-0.79-4.36-1.52-6.45
			c-0.29-0.81-0.4-1.71-0.55-2.57c-0.07-0.38-0.1-0.86,0.05-1.19c0.81-1.88,1.67-3.74,2.55-5.57c0.19-0.38,0.57-0.64,0.88-0.95
			c0.1,1.1-0.12,2.05-0.24,3.02c-0.1,0.93-0.69,1.83-0.19,2.9c1.55-0.64,1.93-2.14,2.86-3.14c0.9-1,1.52-2.31,2.88-2.88
			c0.67,1.24-0.24,2.57,0.36,3.81c1.21-0.45,1.71-1.4,2.4-2.19c0.67-0.79,1.07-1.83,2.36-2.38c-0.17,0.81-0.29,1.36-0.38,1.93
			c-0.12,0.62-0.52,1.21,0.05,2.02c0.43-0.17,0.9-0.29,1.33-0.55c3.64-2.21,7.29-4.45,10.93-6.64c0.62-0.36,1.29-0.79,2.12-0.6
			c0.21,1.45-0.93,2.76-0.14,4.26c1.33-0.31,1.71-1.6,2.52-2.33c0.88-0.81,1.55-1.86,2.93-2.5c-0.19,0.98-0.33,1.69-0.45,2.43
			c-0.14,0.88,0,1.6,1,1.88c0.4-1.9,1.83-3,3.24-4.17c0.19,0.6,0.36,1.05,0.48,1.48c0.95,0.14,1.24-0.57,1.64-1.02
			c1.21-1.36,2.69-1.83,4.43-1.48c1.31,0.26,2.57,0.17,3.83-0.17c2.02-0.55,4.07-0.43,6.1-0.14c0.79,0.12,1.55,0.26,2.31,0.4
			c0,1.21-1.14,2.07-0.86,3.57c0.76-0.29,1.4-0.55,2.43-0.93c-1.29,2.33-1.62,4.6-1.79,6.86c-0.17,2.29-0.1,4.6-0.14,7
			c1.4-0.19,1.64-1.52,2.67-2.21c0.02,0.88,0.1,1.52,0.07,2.17c-0.05,3,1.6,5.19,3.48,7.24c0.14,0.17,0.38,0.4,0.55,0.38
			c0.86-0.05,1.02,0.6,1.38,1.12c0.79,1.21,1.6,2.45,2.5,3.6c1.6,2.02,3.31,3.95,4.95,5.93c0.24,0.29,0.36,0.64,0.64,1.17
			c-0.21,0-0.4-0.02-0.57-0.02c0.14,0.19,0.29,0.38,0.38,0.6c0.12,0.19,0.21,0.43,0.31,0.67c0.12,0.07,0.24,0.12,0.33,0.19
			c1.02,0.69,1.98,1.93,1.81,3.38c-0.38,3.5-0.55,6-0.5,9.5c0,0.88-0.12,1.74-0.19,2.69c-0.69,0.29-1.33,0.6-1.98,0.79
			c-2.81,0.81-4.17,2.83-4.88,5.48c-0.26,0.93-0.02,1.67,0.83,2.07c0.88,0.4,1.83,0.76,2.79,0.93c0.79,0.14,1.64,0.02,2.45-0.1
			c2.14-0.29,4.31-0.55,6.43-0.98c1.07-0.21,2.1-0.74,3.14-1.1c1.1-0.38,1.52-1.21,1.6-2.29c0.1-1.29,0.19-2.57,0.26-3.86
			c0.24-4.67,0.38-8.36,0.71-13.02c0.29-4.14,0.76-8.26,1.17-12.41c0.12-1.33,0.19-2.71,1.5-3.62c0.17,0.12,0.38,0.24,0.55,0.38
			c2.17,1.79,4.26,3.62,6.83,4.88c1.79,0.86,3.43,1.98,5.19,2.88c0.52,0.29,1.29,0.5,1.81,0.33c1.21-0.36,1.95,0.05,2.74,0.9
			c1.45,1.6,1.86,1.52,3.26-0.19c0.57-0.71,1.17-1.43,1.81-2.21c1,1.05,1.29,2.45,2.67,3c1.33-0.55,1.31-2.26,2.52-3.07
			c0.24,0.29,0.52,0.52,0.67,0.81c0.55,1.24,1,2.5,1.55,3.71c0.14,0.33,0.43,0.81,0.69,0.86c0.55,0.07,0.69-0.45,0.83-0.93
			c0.31-1.19,0.62-2.38,1.05-3.55c1.21-3.36,2.4-6.74,4.62-9.62c0.71-0.93,1.38-1.9,1.98-2.9
			C213.01,237.63,212.68,237.06,211.7,236.9z M84.19,243.87c-0.05,1.29-0.02,2.52-0.14,3.74c-0.38,4.31-0.74,8.62-1.19,12.91
			c-0.24,2.36-0.76,4.69-0.98,7.05c-0.31,3.43-0.43,6.88-0.64,10.31c-0.02,0.45-0.12,0.9-0.19,1.43c-1.05,0.05-2.02,0.14-3,0.1
			c-0.62-0.02-1.26-0.24-1.81-0.33c-1.02-1.43-1.33-2.9-0.93-4.55c0.12-0.45,0.17-0.95-0.55-1.21c-0.98,1.79-0.64,3.55,0.02,5.45
			c-1.07-0.93-2.12,0.45-3.21-0.29c-0.33-0.71-0.17-1.48,0.19-2.26c0.21-0.48,0.48-0.95,0.57-1.48c0.07-0.33-0.12-0.69-0.26-1.33
			c-1.43,1.57-1.48,3.29-1.93,4.86c-0.86,0.24-1.6-0.02-2.02-0.69c-0.26-0.45-0.52-1.33-0.29-1.6c1.02-1.14,1.29-2.74,2.52-3.81
			c1.05-0.88,1.83-2.12,2.6-3.29c0.64-1.02,1.1-2.19,0.79-3.5c-0.1-0.38-0.07-0.81-0.1-1.21c-0.07-1.86-0.29-3.67,0.36-5.5
			c0.45-1.29,0.38-2.74,0.55-4.31c0.69,0.31,1.19,0.52,1.86,0.79c0.17-0.31,0.45-0.62,0.5-0.98c0.17-0.81,0.19-1.62,0.33-2.43
			c0.12-0.71,0.31-1.43,0.52-2.31c0.64,0.43,1.12,0.74,1.69,1.12c0.24-0.43,0.48-0.74,0.6-1.1c0.48-1.45,0.86-2.9,1.36-4.36
			c0.67-1.98,1.95-3.5,3.88-5.05c0.07,1.57,0.1,2.71,0.14,3.95C85.03,243.94,84.65,243.92,84.19,243.87z M171.39,248.09
			c-0.31,2.83-0.69,5.69-0.95,8.52c-0.33,3.67-0.55,6.33-0.83,10c-0.26,3.07-0.62,6.17-0.81,9.24c-0.07,1.14-0.67,1.76-1.6,2.07
			c-2.1,0.69-4.26,1.14-6.62,1.31c-0.1-0.93-0.17-1.76-0.29-2.93c-0.31,0.43-0.55,0.6-0.6,0.81c-0.14,0.74-0.24,1.5-0.33,2.21
			c-0.86,0.55-1.67,0.62-2.52,0.24c-0.21-1.17-0.21-1.17,0.88-3.93c-1.02-0.07-1.02-0.07-2.29,3.6c-1.21-0.36-1.55-0.71-1.31-1.74
			c0.43-1.76,1.19-3.31,3-4.07c1.19-0.5,2.38-0.93,3.79-1.48c0-1.64,0-3.33,0.02-5c0.05-2.21,0.1-3.43,0.17-5.64
			c0-0.29-0.02-0.71,0.14-0.83c1.26-0.9,1.12-2.36,1.5-3.62c0.17-0.55,0.36-1.1,0.6-1.83c0.71,0.57,1.26,1,1.93,1.55
			c1-1.98,0.43-4.12,1.14-6.02c0.26,0.02,0.43,0.02,0.6,0.05c1.76,0.4,2.38,0.1,3.12-1.57c0.26-0.62,0.52-1.24,1.12-1.81
			C171.32,247.49,171.41,247.8,171.39,248.09z M185.41,249.61c-0.55-0.21-1.14-0.4-1.67-0.69c-1.12-0.55-1.17-0.74-0.52-2.36
			c0.45,1.29,1.02,2.36,2.43,2.6C185.56,249.32,185.48,249.47,185.41,249.61z"/>
		<path class="st3" d="M54.14,226.11c-0.02-0.64-0.05-1.36-0.1-2.5c1.05,1.31,1.88,2.29,2.62,3.29c0.57,0.79,1.1,1.6,1.6,2.38
			c0.38-0.12,0.81-0.19,1.21-0.24c0.12-0.67-0.17-1.45,0.52-1.88c0.74,0.26,1.17,0.67,1.43,1.19c0.55,0.33,1.1,0.71,1.6,1.14
			c1.05,0.4,1.95,1.05,2.6,1.95l0.17-0.12c-1.02-1.1-1.95-2.14-2.95-3.12c-0.74-0.74-1.52-1.43-2.36-2.07
			c-0.4-0.31-0.95-0.52-1.45-0.52c-0.38,0-0.76,0.38-1.14,0.57c-1.17-0.74-2.02-1.67-2.62-2.86c-0.31-0.62-0.67-1.24-1.1-1.79
			c-0.21-0.26-0.64-0.33-0.95-0.5c-0.5,0.98,0.12,2.02-0.67,2.98c-1.02-1.17-1.98-2.24-2.93-3.33c-1.24-1.43-2.38-2.86-2.69-4.83
			c-0.1-0.67-0.4-1.29-1.33-1.4c-0.43-0.05-0.9-0.5-1.21-0.9c-1.95-2.5-3.52-5.21-4.62-8.24c-0.57-1.57-1.38-3.14-2.48-4.38
			c-0.86-0.98-1.48-1.95-1.79-3.12c-0.38-1.4-0.62-2.86-0.9-4.29c-0.12-0.6-0.21-1.14-0.83-1.19c-0.76,0.29-0.57,1.36-1.57,1.24
			c-0.74-4.45-1.38-8.91,0.36-13.31c0.19-0.5,0.4-1.12-0.17-1.64c-1.17,0.19-1.52,1.62-2.83,1.81c0.02-0.62,0-1.14,0.1-1.64
			c0.5-3.12,0.88-6.26,1.57-9.33c0.55-2.45,1.5-4.79,2.29-7.19c0.36-1.12,0.83-2.19,1.19-3.31c0.1-0.31-0.05-0.69-0.07-1.05
			c-0.1-0.02-0.21-0.05-0.31-0.05c-0.38,0.6-0.74,1.19-1.12,1.81c-0.57-0.38-1.05-0.69-1.76-1.14c0.36-0.29,0.62-0.5,0.9-0.71
			c2.43-1.93,4.86-3.83,7.29-5.76c0.64-0.5,1.29-1.02,1.95-1.5c0.52-0.38,0.76-0.83,0.36-1.64c-0.6,0.36-1.17,0.62-1.67,1
			c-2.93,2.24-5.88,4.48-9.17,6.14c-1.14,0.57-2.38,0.98-3.6,1.31c-1.07,0.29-2.14,0.07-2.88-0.81c-0.45-0.55-1.02-0.69-1.62-0.79
			c0.36-1,0.86-1.86,1.71-2.57c1.12-0.93,1.62-2.29,1.86-3.69c0.21-1.19-0.24-1.9-1.4-2.26c-1.4-0.45-2.83-0.69-4.33-0.33
			c-0.43,0.12-0.9,0.14-1.81,0.29c1.05-1.33,1.71-2.52,2.93-3.12c1.07-0.52,2.21-0.79,2.52-2.14c0.05-0.24,0.38-0.43,0.62-0.62
			c1.29-1,2.62-1.98,3.9-2.98c3.48-2.69,6.45-5.74,7.67-10.17c0.21-0.76,0.74-1.48,1.29-2.05c0.74-0.79,1.17-1.57,0.67-2.52
			c2.93-2.79,6.5-2.83,10.12-2.86c-0.02-0.21,0-0.43-0.1-0.52c-0.21-0.19-0.48-0.33-0.74-0.4c-1.74-0.5-3.45-0.1-4.93,0.31
			c-0.52-0.55-0.83-1.07-1.29-1.36c-0.95-0.57-1.93-1.1-2.95-1.48c-1.29-0.45-2.26-1.07-2.69-2.5c-0.29-0.93-0.88-1.79-1.43-2.6
			c-0.79-1.14-1.95-1.79-3.31-1.64c-2.07,0.24-4.17,0.55-6.19,1.07c-1.64,0.4-3.19,1.14-4.76,1.76c-0.26,0.1-0.45,0.38-0.76,0.69
			c0.71,0.36,1.29,0.62,2,0.95c-0.52,0.64-0.98,1.17-1.36,1.74c-0.98,1.38-1.93,2.79-2.86,4.19c-0.19,0.29-0.1,0.71-0.14,1.07
			c0.55,0.1,0.9,0.17,1.36,0.24c-0.4,1-0.74,1.86-1.1,2.71c-0.57,1.45-1.14,2.88-1.67,4.33c-0.07,0.24,0.14,0.57,0.21,0.83
			c1.02-0.24,1.55-1.26,2.79-1.24c-0.45,0.93-0.83,1.69-1.29,2.57c0.36,0.07,0.69,0.24,0.86,0.14c0.4-0.24,0.76-0.55,1.05-0.88
			c1.43-1.6,3.19-2.74,5.07-3.74c0.33-0.19,0.74-0.26,1.12-0.38c0.12,0.26,0.24,0.43,0.24,0.6c-0.07,2.74-0.17,5.48-0.24,8.21
			c-0.02,1-0.02,1.98,0.71,2.86c0.67-1.07,0.79-1.93,0.55-3.05c-0.12-0.62-0.21-1.26-0.19-1.88c0.1-2.17,0.24-4.31,0.38-6.38
			c0.6-0.76,1.21-1.48,1.74-2.24c0.5-0.76,1.69-1.21,1.14-2.69c-1,0.88-1.88,1.71-2.79,2.5c-0.29,0.26-0.62,0.5-0.98,0.67
			c-0.79,0.38-1.57,0.71-2.36,1.05c-0.33,0.14-0.67,0.26-1.33,0.52c0.69-1.14,1.19-1.95,1.69-2.76c-1.24,0.79-2.05,1.88-2.55,3.12
			c-0.31,0.76-0.76,1-1.38,1.24c-0.14-0.79-0.29-1.43-0.43-2.24c-0.74,0.52-1.31,0.93-2.05,1.43c0.07-0.55,0.02-0.88,0.14-1.19
			c0.64-1.5,1.31-3,1.98-4.48c0.29-0.69,0.57-1.38,0.81-2.1c0.02-0.1-0.14-0.29-0.29-0.5c-0.45,0.19-0.88,0.38-1.52,0.64
			c0.93-2.4,3.07-3.52,4.17-5.36c-0.29-0.4-0.48-0.69-0.79-1.14c1.45-0.5,2.69-1.07,3.98-1.36c1.6-0.33,3.24-0.52,4.86-0.6
			c1.4-0.07,2.45,0.67,3.17,1.88c0.29,0.5,0.74,1.02,0.79,1.55c0.12,2.19,1.86,2.6,3.36,3.24c0.26,0.12,0.57,0.12,0.83,0.24
			c1.02,0.43,2,0.9,2.67,1.95c-1.88,1.48-4.24,2.1-5.93,3.86c0.45,0.38,0.83,0.69,1.26,1.02c-0.98,1.02-1.43,2.17-1.9,3.4
			c-0.76,2.05-1.6,4.17-3.29,5.74c-1.12,1.02-2.19,2.1-3.36,3.05c-2.29,1.83-4.57,3.67-6.98,5.31c-0.93,0.64-1.79,1.29-2.52,2.12
			c-1.29,1.45-2.24,3.19-1.86,5.1c0.29,1.36,0.33,2.64,0.29,3.95c-0.02,1.31,0.29,2.43,1.38,3.24c0.17,0.12,0.29,0.33,0.48,0.6
			c-1.02,1.76-0.98,3.6-0.4,5.45c0.05,0.17,0.05,0.36,0.07,0.52c0.33,1.95,2.19,3.93,4.1,4.36c1.48,0.33,2.38,0.05,3.1-1.31
			c0.57-1.07,1.05-2.24,1.31-3.43c0.4-1.83,1.57-2.93,3.19-3.88c0.71,0.43,1.45,0.86,2.12,1.26c-0.9,3.76-2.6,7.1-2.9,10.83
			c-0.31,3.67-1.6,7.24-1.19,11.31c0.86-0.67,1.45-1.12,2.33-1.81c-0.12,0.76-0.19,1.21-0.29,1.64c-0.12,0.57-0.33,1.14-0.33,1.71
			c-0.07,3.64,0.12,7.26,0.76,10.83c0.1,0.5,0.26,0.88,0.93,0.95c0.4-0.48,0.81-1,1.36-1.64c0.21,0.93,0.31,1.69,0.6,2.38
			c0.64,1.57,1.12,3.26,2.12,4.57c0.79,1.02,1.48,2.07,2.02,3.21c0.67,1.38,1.17,2.83,1.95,4.12c1.33,2.21,3.02,4.19,4.17,6.48
			c1.17,2.36,2.9,4.19,4.67,6.05l0.12,0.14c1.19,1.38,2.36,2.76,3.55,4.12C53.03,226.11,53.36,226.63,54.14,226.11z M24.79,148.65
			c0.71,1.05,0.71,1.05-0.24,2.14C24.64,149.99,24.71,149.32,24.79,148.65z M21.95,152.42c0.17,0.36,0.31,0.67,0.45,1
			C21.41,153.39,21.41,153.39,21.95,152.42z M19.05,155.94c-0.6-1-0.52-2.07-0.43-3.48c1.33,1,2.33,1.76,3.43,2.57
			c-0.24,0.43-0.43,0.83-0.71,1.17C20.64,156.99,19.62,156.84,19.05,155.94z M27.52,159.77c-0.64,0.74-0.79,1.64-1,2.55
			c-0.33,1.36-0.69,2.71-1.26,3.98c-0.5,1.14-0.93,1.19-2.12,0.74c-0.88-0.33-1.69-0.79-2.12-1.74c0.64-1.31,2.02-1.71,3.29-2.55
			c-1.62-0.05-2.6,0.88-3.6,1.64c-1.05-1.52-0.95-2.26,0.38-3.24c0.74-0.52,1.52-0.95,2.14-1.71c-1.02,0.48-2.05,0.95-3.1,1.45
			c-0.48-1.74-0.29-2.24,0.9-3.17c0.67-0.52,1.21-1.21,1.81-1.86c0.95,2.07,2.57,3.02,5.07,2.71
			C27.76,159.08,27.74,159.51,27.52,159.77z"/>
		<path class="st3" d="M66.86,203.16c0.62-0.45,1.02-0.76,1.43-1.07c1.24-0.98,2.4-2.05,3.71-2.9c1.93-1.29,3.6-2.81,5.1-4.55
			c1.21-1.38,2.74-2.38,4.26-3.33c0.17-0.12,0.43-0.1,0.81-0.19c-0.02,0.5-0.02,0.88-0.07,1.26c-0.05,0.4-0.12,0.81-0.21,1.33
			c1.31-0.02,2.1-1.02,3.14-1.43c1.02-0.4,2.02-0.86,3.05-1.29c1,0.86,0.07,1.88,0.55,2.88c4.74-2.33,8.6-6.12,13.26-8.5
			c1.14,0.6,0.33,1.79,0.88,2.55c2.5-0.88,3.76-3.26,5.76-4.71c0.6,0.29,1.12,0.55,1.69,0.81c0.88-0.4,1.31-1.24,1.88-1.98
			c1.83-2.36,3.62-4.76,5.48-7.07c0.74-0.9,1.6-1.71,2.45-2.52c0.19-0.19,0.55-0.19,1.19-0.36c-0.33,0.52-0.43,0.79-0.62,0.98
			c-1.12,1.26-2.33,2.45-3.38,3.76c-1.71,2.14-3.36,4.36-5.02,6.55c-0.1,0.14-0.24,0.26-0.33,0.4c-1.29,1.45-1.48,1.5-3.48,0.64
			c-1.95,1.9-3.9,3.98-6.69,5.36c-0.12-0.57-0.24-1-0.29-1.43c-0.05-0.4,0-0.79,0-1.38c-1.19,0.19-2.05,0.71-2.88,1.31
			c-2.52,1.81-5.05,3.6-7.57,5.41c-0.71,0.5-1.45,1-2.19,1.45c-0.38,0.21-0.81,0.33-1.5,0.62c0.02-1.21,0.02-2.14,0.05-3.19
			c-1.79,0.31-3.17,1.12-4.52,2.05c-0.62,0.4-1.19,0.98-2.17,0.64c0.05-0.69,0.1-1.36,0.14-2.14c-0.79-0.02-1.29,0.38-1.71,0.79
			c-0.79,0.71-1.55,1.43-2.26,2.21c-1.31,1.43-2.64,2.79-4.36,3.76c-1.95,1.1-3.5,2.71-5.02,4.33c-0.43,0.45-0.9,0.86-1.33,1.24
			c-0.88-0.36-0.6-0.9-0.5-1.4c0.69-3.19,1.45-6.38,2.05-9.62c0.9-4.83,1.79-9.67,2.55-14.5c0.29-1.9,0.26-3.86,0.33-5.79
			c0.12-3.29,0.29-6.55,0.31-9.83c0.05-5.1,0.24-10.19-0.24-15.26c-0.14-1.38-0.38-2.74-0.57-4.21c0.93,0,1.14,0.6,1.19,1.26
			c0.17,2.05,0.4,4.07,0.43,6.12c0.05,4.86,0.07,9.71-0.05,14.57c-0.1,4.62-0.14,9.26-0.64,13.83c-0.52,4.69-1.57,9.33-2.43,14
			c-0.4,2.24-0.93,4.45-1.4,6.69C66.95,201.87,66.93,202.37,66.86,203.16z"/>
		<path class="st3" d="M54.29,121.2c-0.29,0.24-0.64,0.71-0.83,0.67c-0.52-0.17-0.6-0.64-0.31-1.14c0.17-0.29,0.33-0.57,0.6-1.02
			c-0.9-0.29-1.67-0.5-2.4-0.81c-1.05-0.45-1.24-1.21-0.36-1.86c1.93-1.4,3.74-3.07,6.29-3.33c0.98-0.1,1.98-0.14,2.98-0.17
			c1.4-0.05,2.81-0.1,4.21-0.07c1.9,0.02,3.69,0.57,5.43,1.29c1.79,0.71,3.55,1.5,5.31,2.29c1.71,0.79,2.95,2.19,4.62,3.57
			c-0.76,0.21-1.24,0.36-1.88,0.57c0,0.6-0.02,1.29,0.02,1.95c0.07,0.69,0.21,1.38,0.33,2.07c-0.05,0.1-0.1,0.24-0.17,0.29
			c-1.6,0.64-2.31,2.02-3.02,3.45c-0.43,0.88-1.02,1.69-1.6,2.5c-1.07,1.48-2.12,2.93-3.29,4.33c-0.88,1.07-1.93,2.02-2.21,3.43
			c-1.4-0.1-1.4-0.1-1.76-3.86c-0.52-0.05-1.1-0.05-1.64-0.12c-1.95-0.21-2.86-0.48-2.76-2.74c0-0.17-0.07-0.33-0.1-0.5
			c-0.12-0.1-0.19-0.21-0.29-0.24c-2.26-0.36-3.38-1.9-4.02-3.93c-0.17-0.55-0.33-1.12-0.48-1.69c-0.43-1.71-0.9-3.4-2.45-4.5
			c-0.12-0.1-0.14-0.31-0.21-0.48c1.67,0.55,2.55,1.71,2.9,3.4c0.26,1.26,0.67,2.48,1.07,3.69c0.12,0.38,0.43,0.71,0.69,1.12
			c0.48-0.48,0.83-0.83,1.19-1.19l0.14,0.1c-0.21,0.55-0.45,1.12-0.74,1.88c1.05,0.19,1.93,0.36,2.83,0.55
			c0.1,0.24,0.21,0.43,0.29,0.67c0.1,0.4,0.17,0.79,0.21,1.19c0.17,1.1,0.31,1.29,1.38,1.45c0.52,0.07,1.05,0.05,1.57,0.07
			c1.4,0.12,1.71,0.45,1.71,1.83c0,0.33,0.02,0.64,0.05,1.24c2.98-2.88,5.36-5.83,6.93-9.38c0.57-1.29,1.31-2.45,2.45-3.19
			c0.4-1.9-1.1-3.62-0.24-5.55c-0.36-0.26-0.69-0.64-1.12-0.81c-3.02-1.24-6.05-2.45-9.1-3.64c-0.26-0.1-0.57-0.14-0.86-0.17
			c-2.98-0.12-5.95-0.26-8.91,0.36c-2,0.4-3.52,1.55-5.05,3.14c0.93,0.33,1.64,0.52,2.33,0.81c1.14,0.48,1.21,0.69,0.64,1.83
			C54.53,120.82,54.38,121.01,54.29,121.2z"/>
		<path class="st3" d="M59.41,176.3c-1.19,3.19-1.36,5.69-0.67,10.24c1.43-0.48,1.95-2.17,3.62-2.64c-1.4,1.74-3.4,2.86-3.74,5.55
			c1.52-1.19,2.74-2.12,3.95-3.05c0.07,0.07,0.12,0.14,0.19,0.21c-0.74,0.69-1.45,1.36-2.19,2.05c-0.55,0.52-1.1,1.05-1.64,1.6
			c-0.67,0.67-0.76,1.57-0.24,2.24c0.76,0.98,0.81,2.05,0.88,3.14c0.24,3.9,0.43,7.83,0.64,11.74c0.02,0.52,0.1,1.05,0.24,1.55
			c0.36,1.24,0.81,2.43,1.14,3.67c0.6,2.29,1.48,4.43,2.5,6.55c0.29,0.62,0.52,1.26,0.52,2.07c-0.31-0.29-0.69-0.55-0.88-0.9
			c-1.31-2.29-2.5-4.62-3.02-7.24c-0.07-0.4-0.12-0.83-0.29-1.19c-1.14-2.29-1.1-4.74-1.24-7.19c-0.14-2.81-0.31-5.6-0.5-8.41
			c-0.05-0.83,0.1-1.79-0.98-2.24c-0.17-0.07-0.26-0.5-0.26-0.76c0-0.76-0.05-1.55,0.12-2.29c0.38-1.64,0.24-3.26,0.07-4.88
			c-0.29-3.1-0.36-6.19,0.26-9.26c0.31-1.48,0.29-1.48,1.69-2.24c-0.74-3.86-1.38-7.79-3.12-11.41c-0.21-0.45-0.57-0.86-0.93-1.24
			c-0.36-0.4-0.48-0.79,0.05-1.29c0.26,0.19,0.62,0.33,0.76,0.6c0.64,1.19,1.36,2.33,1.76,3.6c0.74,2.21,1.26,4.5,1.88,6.76
			c0.4,1.45,0.79,2.93,1.19,4.52C60.86,177.06,60.07,176.25,59.41,176.3z"/>
		<path class="st3" d="M37.19,141.51c0.1-0.33,0.12-0.48,0.19-0.55c1.57-1.36,2.64-3.1,3.67-4.88c1.21-2.12,2.45-4.24,3.69-6.38
			c-0.29-0.52-0.52-0.95-0.76-1.38c5.02-6.14,5.33-6.48,6.83-6.81c-0.19,0.38-0.29,0.69-0.48,0.9c-1.24,1.4-2.5,2.79-3.74,4.17
			c-0.4,0.45-0.67,0.88-0.31,1.55c0.36,0.71-0.12,1.36-0.48,1.95c-1.4,2.29-2.86,4.55-4.29,6.83c-0.76,1.24-1.52,2.48-2.36,3.81
			c2,0.79,3.43,2.17,4.6,3.86c0.45,0.67,1.1,1.21,1.64,1.83c0.74,0.83,1.21,1.71,1.57,2.83c0.55,1.69,1.33,3.36,2.62,4.62
			c0.67-0.17,1.26-0.48,1.83-0.43c0.79,0.05,1.1,0.81,1.4,1.43c0.6,1.14,1.17,2.29,1.69,3.48c0.17,0.38,0.17,0.83,0.31,1.62
			c-1.29-0.83-1.26-2-1.79-2.86c-0.5-0.83-0.98-1.69-1.55-2.67c-0.52,0.5-0.88,0.83-1.26,1.21c-0.17-0.05-0.38-0.02-0.48-0.14
			c-0.69-0.86-1.43-1.69-2.02-2.62c-1.26-1.95-2.45-3.98-3.69-5.95c-0.6-0.93-1.21-1.86-1.9-2.74c-1.05-1.31-2.29-2.36-4.12-2.36
			C37.76,141.87,37.52,141.65,37.19,141.51z"/>
		<path class="st3" d="M41.98,182.73c1.95,0.1,2.71,2.14,4.6,2.43c1.07-1.17,1.14-2.83,1.88-4.12c0.31,1.19-0.38,3.83-1.24,4.71
			c-0.5,0.52-1.05,0.52-1.6,0.19c-0.55-0.33-1.02-0.79-1.55-1.14c-0.45-0.31-0.93-0.57-1.74-1.05c0.05,1.24,0.1,2.1,0.12,2.95
			c0.02,0.81,0.29,1.69-0.4,2.52C41.19,187.56,41.17,184.49,41.98,182.73z"/>
		<path class="st3" d="M47.22,136.3c0.07,0.9-0.74,2.12-1.52,2.33c-0.71,0.17-1.74-0.36-2.17-1.14c-0.62-1.14,0.64-3.29,1.93-3.26
			C46.24,134.22,47.14,135.27,47.22,136.3z"/>
		<path class="st3" d="M28.02,133.7c-0.07-1.29,0.6-2.19,1.67-2.21c0.93-0.02,1.52,0.55,1.55,1.5c0.02,1.02-0.88,1.98-1.98,2.02
			C28.48,135.06,28.07,134.65,28.02,133.7z"/>
		<path class="st3" d="M146.67,231.47c-0.02-0.21-0.1-0.48-0.05-0.52c1.86-1.17,3.45-2.81,5.79-3.69c-0.21,1-0.86,1.43-1.43,1.62
			c-1.48,0.5-2.62,1.5-3.79,2.43C147.08,231.4,146.89,231.4,146.67,231.47z"/>
		<path class="st3" d="M39.86,160.75c-0.24-0.98-0.38-1.5-0.6-2.33c-0.43,0.81-0.74,1.33-1.02,1.86c-0.07-0.02-0.17-0.07-0.24-0.1
			c0.5-1.33,1.02-2.64,1.62-4.19c0.69,1.02,0.12,2.05,0.5,3.02c0.19,0,0.45,0.02,0.83,0.05C40.64,159.53,40.36,159.96,39.86,160.75z
			"/>
		<path class="st3" d="M50.05,134.27c-1.88-1.24-2.64-2.24-2.71-3.43C48.43,131.03,49.74,132.6,50.05,134.27z"/>
		<path class="st3" d="M180.41,233.09c-2.02,1.26-4.05,2.5-6.1,3.74c-0.12,0.07-0.33,0-0.52-0.02
			C174.39,236.04,178.89,233.35,180.41,233.09z"/>
		<path class="st3" d="M153.34,229.37c-1.81,1.24-3.5,2.4-5.5,3.79c0.1-0.64,0.1-1.17,0.17-1.17c1.52-0.21,2.48-1.4,3.69-2.14
			C152.17,229.54,152.6,229.16,153.34,229.37z"/>
		<path class="st3" d="M91.62,219.59c-1.5,1.21-3.19,2.6-4.81,3.9C87.29,221.97,89.5,220.16,91.62,219.59z"/>
		<path class="st3" d="M72.05,184.82c1.6-1.02,3.19-2.05,4.79-3.1c-1.33,1.38-2.88,2.43-4.48,3.45
			C72.24,185.06,72.15,184.94,72.05,184.82z"/>
		<path class="st3" d="M154.2,245.68c0.88-1.6,2.45-2.26,3.83-3.21c0.07,0.1,0.14,0.19,0.21,0.29
			C156.89,243.73,155.53,244.71,154.2,245.68z"/>
		<path class="st3" d="M20.38,126.06c0.69-1.86,2-2.93,2.88-4.31C22.88,123.08,21.6,125.01,20.38,126.06z"/>
		<path class="st3" d="M41.45,157.75c0.36-0.57,0.71-1.14,1.17-1.83c0.67,0.81,1.21,1.48,1.79,2.17c-1.02,0.33-1.17-0.79-2.05-1.17
			c-0.17,0.31-0.36,0.71-0.55,1.12C41.67,157.94,41.57,157.84,41.45,157.75z"/>
		<path class="st3" d="M47.72,176.2c-1.62-0.6-2.55-1.55-3.19-2.79c0.07-0.1,0.17-0.17,0.24-0.26
			C45.69,174.13,46.6,175.06,47.72,176.2z"/>
		<path class="st3" d="M175.51,232.63c1.17-1.31,2.93-2.26,4.79-2.43c-1.07,0.55-1.76,0.9-2.5,1.26c-0.76,0.38-1.55,0.76-2.33,1.12
			L175.51,232.63z"/>
		<path class="st3" d="M25.6,145.46c-1.1,0.17-1.9,0.4-2.67-0.26C23.98,144.39,24.36,144.41,25.6,145.46z"/>
		<path class="st3" d="M201.7,239.25c-0.74,1-2.24,2.21-3.4,2.62c0.95-1.12,2.1-1.98,3.43-2.6L201.7,239.25z"/>
		<path class="st3" d="M31.91,128.7c-1.1,0.45-1.79,1.07-2.69,0.5C29.93,128.25,29.93,128.25,31.91,128.7z"/>
		<path class="st3" d="M73.65,239.21c0.45-1.45,1.57-2.29,2.81-3.02C75.53,237.18,74.57,238.18,73.65,239.21z"/>
		<path class="st3" d="M199.27,239.04c-0.81,1.31-2.19,1.9-3.31,2.83c0.64-1.07,1.93-2.12,3.33-2.79L199.27,239.04z"/>
		<path class="st3" d="M76.48,238.25c-0.83,1.17-1.74,2.29-3.05,3.26c0.45-1.12,1.88-2.57,3.07-3.21L76.48,238.25z"/>
		<path class="st3" d="M109.29,205.7c-0.86-0.48-1.62-0.93-1.95-1.9C108.29,204.01,108.43,204.18,109.29,205.7z"/>
		<path class="st3" d="M105.34,206.06c1.07,0.17,1.45,0.95,1.81,1.79C106.36,207.39,105.77,206.82,105.34,206.06z"/>
		<path class="st3" d="M47.38,173.11c-0.55-0.48-1.07-0.98-1.9-1.71C46.62,171.65,46.62,171.65,47.38,173.11z"/>
		<path class="st3" d="M108.08,174.35c-0.36,1-1.19,1.55-2.05,2.05c0.45-0.93,1.12-1.62,2.07-2.02L108.08,174.35z"/>
		<path class="st3" d="M196.13,238.85c-0.55,0.64-1.12,1.26-1.67,1.9c-0.1-0.1-0.17-0.19-0.26-0.29c0.5-0.71,1.02-1.38,1.98-1.6
			L196.13,238.85z"/>
		<path class="st3" d="M27.38,152.49c0.29,0.33,0.6,0.55,0.57,0.71c-0.02,0.19-0.33,0.4-0.55,0.48c-0.1,0.02-0.43-0.26-0.43-0.38
			C26.98,153.08,27.19,152.87,27.38,152.49z"/>
		<path class="st3" d="M73.46,180.65c-0.57,0.43-1.14,0.86-1.69,1.26c0.17-0.9,0.95-1.07,1.5-1.55
			C73.31,180.49,73.38,180.56,73.46,180.65z"/>
		<path class="st3" d="M109.55,173.32c0.57-0.6,1.14-1.19,1.74-1.79c-0.43,0.98-0.43,0.98-1.76,1.76L109.55,173.32z"/>
		<path class="st3" d="M27.86,154.39c0.48,0.4,0.62,0.79,0.17,1.19c-0.07,0.07-0.38,0.02-0.45-0.07
			C27.14,155.01,27.45,154.7,27.86,154.39z"/>
		<path class="st3" d="M200.63,235.85c-0.79,0.5-1.6,1-2.38,1.52l0.02,0.02c0.57-0.86,1.38-1.36,2.38-1.52L200.63,235.85z"/>
		<path class="st3" d="M48.29,202.73c-0.48,0.62-0.93,1.26-1.4,1.88c-0.1-0.07-0.19-0.17-0.29-0.24c0.33-0.74,0.9-1.29,1.71-1.6
			L48.29,202.73z"/>
		<path class="st3" d="M88.05,219.49c-0.29,0.88-1.02,1.26-1.76,1.64c0.4-0.76,0.93-1.36,1.79-1.6L88.05,219.49z"/>
		<path class="st3" d="M47.36,206.8c0.31-0.86,0.95-0.86,1.67-0.6C48.48,206.42,47.93,206.61,47.36,206.8z"/>
		<path class="st3" d="M196.18,238.87c0.43-0.86,1.12-1.38,2.1-1.48l-0.02-0.02c-0.69,0.5-1.4,0.98-2.1,1.48L196.18,238.87z"/>
		<path class="st3" d="M199.29,239.06c0.52-0.45,1.07-0.9,1.6-1.36c-0.31,0.81-0.86,1.24-1.64,1.33L199.29,239.06z"/>
		<path class="st3" d="M137.53,199.42c0.45-0.29,0.93-0.57,1.38-0.86c0.07,0.1,0.12,0.21,0.19,0.31c-0.45,0.29-0.9,0.6-1.36,0.88
			C137.67,199.66,137.6,199.54,137.53,199.42z"/>
		<path class="st3" d="M30.26,151.42c0.29,0.31,0.55,0.5,0.52,0.6c-0.07,0.24-0.29,0.43-0.45,0.64c-0.12-0.1-0.36-0.21-0.36-0.31
			C29.98,152.08,30.12,151.84,30.26,151.42z"/>
		<path class="st3" d="M106.98,172.75c-0.29,0.26-0.57,0.52-0.86,0.79l-0.07-0.07c0.24-0.33,0.48-0.67,0.71-1.02
			C106.84,172.56,106.91,172.65,106.98,172.75z"/>
		<path class="st3" d="M48.31,202.75c0.43-0.43,0.88-0.88,1.5-1.48c-0.5,0.98-0.5,0.98-1.52,1.45L48.31,202.75z"/>
		<path class="st3" d="M77.19,178.35c-0.24,0.93-0.6,1-1.38,0.55C76.34,178.68,76.69,178.54,77.19,178.35z"/>
		<path class="st3" d="M89.46,218.42c0.14-0.64,0.64-0.86,1.31-0.86c-0.45,0.29-0.88,0.55-1.33,0.83L89.46,218.42z"/>
		<path class="st3" d="M137.98,197.85c-0.38,0.26-0.74,0.5-1.12,0.76c-0.07-0.07-0.12-0.17-0.19-0.24c0.33-0.26,0.69-0.55,1.02-0.81
			C137.82,197.66,137.89,197.75,137.98,197.85z"/>
		<path class="st3" d="M201.72,239.28c0.43-0.29,0.83-0.55,1.26-0.83c0.05,0.07,0.1,0.17,0.12,0.24c-0.48,0.19-0.95,0.36-1.43,0.55
			L201.72,239.28z"/>
		<path class="st3" d="M109.53,173.3c-0.48,0.36-0.95,0.71-1.43,1.07l0.02,0.02c0.33-0.55,0.71-1.05,1.45-1.07L109.53,173.3z"/>
		<path class="st3" d="M104.74,174.89c-0.24,0.21-0.45,0.45-0.69,0.67c-0.07-0.07-0.14-0.12-0.21-0.19c0.21-0.26,0.45-0.5,0.67-0.76
			C104.58,174.7,104.65,174.8,104.74,174.89z"/>
		<path class="st3" d="M89.43,218.39c-0.26,0.62-0.69,1.05-1.38,1.1l0.02,0.02c0.45-0.36,0.93-0.74,1.38-1.1L89.43,218.39z"/>
		<path class="st3" d="M76.5,238.3c0.05-0.14,0.07-0.36,0.19-0.45c0.19-0.19,0.43-0.31,0.81-0.24c-0.33,0.21-0.69,0.45-1.02,0.67
			L76.5,238.3z"/>
		<path class="st3" d="M63.26,125.87c-0.43,0.33-0.86,0.64-1.43,1.1C62.26,126.13,62.26,126.13,63.26,125.87z"/>
		<path class="st3" d="M58.53,127.37c0.19-0.19,0.4-0.38,0.6-0.57c0.07,0.05,0.12,0.1,0.19,0.17c-0.17,0.21-0.33,0.45-0.48,0.67
			C58.72,127.56,58.62,127.46,58.53,127.37z"/>
		<path class="st1" d="M29.57,132.65c0.07,0.31-0.12,0.62-0.43,0.71c-0.31,0.07-0.62-0.12-0.71-0.43c-0.07-0.31,0.12-0.62,0.43-0.71
			C29.19,132.15,29.5,132.34,29.57,132.65z"/>
		<path class="st1" d="M45.29,135.7c0.07,0.31-0.12,0.62-0.43,0.71c-0.31,0.07-0.62-0.12-0.71-0.43c-0.07-0.31,0.12-0.62,0.43-0.71
			C44.88,135.22,45.19,135.39,45.29,135.7z"/>
		<path class="st1" d="M18.74,148.92c0.64-0.21,1.31-0.31,1.98-0.31c0.83,0,1.64,0.17,2.4,0.48c0.17,0.07,0.36,0,0.43-0.19
			c0.07-0.17,0-0.36-0.19-0.43c-0.86-0.36-1.76-0.52-2.67-0.52c-0.74,0-1.48,0.12-2.19,0.36c-0.17,0.05-0.26,0.24-0.21,0.43
			C18.36,148.89,18.55,148.99,18.74,148.92L18.74,148.92z"/>
		<path class="st3" d="M148.77,241.4c-0.02,0.24-0.05,0.5-0.1,0.74c0.05,0.24,0.12,0.45,0.12,0.69c-0.17,2.86-0.43,5.71-0.52,8.57
			c-0.14,3.67-0.17,7.36-0.29,11.05c-0.1,3.1-0.31,6.19-0.36,9.26c-0.02,1.14-0.57,1.81-1.48,2.14c-2.07,0.79-4.21,1.36-6.55,1.64
			c-0.14-0.9-0.26-1.76-0.43-2.93c-0.31,0.45-0.52,0.62-0.55,0.83c-0.12,0.74-0.17,1.5-0.24,2.24c-0.81,0.6-1.64,0.69-2.5,0.36
			c-0.29-1.17-0.29-1.17,0.69-3.98c-1.02-0.02-1.02-0.02-2.1,3.69c-1.24-0.31-1.6-0.64-1.38-1.67c0.33-1.79,1.02-3.38,2.79-4.21
			c1.17-0.55,2.33-1.05,3.71-1.67c-0.07-1.64-0.17-3.33-0.21-5c-0.07-2.21-0.12-4.43-0.17-6.64c0-0.29-0.05-0.71,0.12-0.83
			l0.12-0.12c-0.05-0.93-0.17-1.86-0.52-2.71c-0.17-0.43-0.38-0.81-0.55-1.19l-0.05,0.14c-1.07-1.69-1.93-3.38-3.07-4.81
			c-1.19-1.5-2.67-2.79-4-4.19c-0.21-0.21-0.38-0.45-0.57-0.67c-0.48-0.5-0.95-0.98-1.48-1.52c1.17-1.05,2.17-1.98,3.19-2.88
			c-0.05-0.07-0.12-0.14-0.17-0.24c-1.1,0.79-2.21,1.57-3.36,2.36c-0.67-1.02-1.19-1.95-1.81-2.79c-0.48-0.67-0.83-1.62-2.02-1.21
			c-0.17,0.05-0.55-0.24-0.69-0.45c-0.52-0.9-1.12-1.79-1.45-2.76c-0.57-1.62-0.69-3.31-0.48-5.02c0.1-0.76,0.29-1.62-0.4-2.5
			c-1.21,0.81-1.02,2.62-2.33,3.26c-0.12-0.19-0.24-0.29-0.24-0.38c-0.24-2.71-0.14-5.36,0.45-7.93c-0.33,0.1-0.69,0.19-1.02,0.29
			c-0.26,1.26-0.36,2.5-0.38,3.74c-0.07,2.31,0.12,4.6,0.21,7c1.4-0.26,1.57-1.62,2.55-2.36c0.07,0.88,0.17,1.52,0.19,2.14
			c0.12,3,1.83,5.1,3.83,7.07c0.17,0.17,0.4,0.38,0.57,0.36c0.83-0.1,1.05,0.55,1.43,1.05c0.86,1.17,1.71,2.38,2.67,3.45
			c1.71,1.93,3.5,3.79,5.24,5.69c0.24,0.26,0.4,0.62,0.69,1.12c-0.21,0-0.4,0-0.57,0c0.14,0.19,0.29,0.38,0.43,0.57
			c0.12,0.19,0.24,0.4,0.36,0.64c0.12,0.05,0.24,0.12,0.36,0.19c1.05,0.64,2.07,1.83,1.98,3.29c-0.21,3.52-0.19,7.02,0.02,10.52
			c0.05,0.86-0.02,1.74-0.07,2.69c-0.69,0.31-1.29,0.67-1.95,0.88c-2.76,0.93-4,3.05-4.6,5.71c-0.21,0.93,0.05,1.67,0.93,2.02
			c0.9,0.36,1.88,0.67,2.83,0.79c0.79,0.1,1.64-0.05,2.43-0.21c2.12-0.38,4.26-0.76,6.36-1.29c1.07-0.26,2.05-0.83,3.07-1.24
			c1.07-0.43,1.45-1.29,1.48-2.36c0.05-1.29,0.05-2.57,0.05-3.86c0-4.69-0.1-9.36,0-14.05c0.07-4.14,0.33-8.29,0.55-12.45
			c0-0.1,0-0.17,0.02-0.26C149.36,241.42,149.05,241.47,148.77,241.4z"/>
		<path class="st3" d="M123.29,227.47c-0.02-0.21-0.12-0.48-0.07-0.52c1.81-1.26,3.31-2.98,5.6-3.98c-0.17,1-0.79,1.48-1.33,1.69
			c-1.45,0.6-2.55,1.62-3.67,2.62C123.7,227.4,123.51,227.4,123.29,227.47z"/>
		<path class="st3" d="M129.84,225.06c-1.74,1.33-3.38,2.57-5.31,4.05c0.05-0.64,0.05-1.17,0.12-1.19c1.52-0.31,2.4-1.52,3.57-2.33
			C128.67,225.28,129.1,224.87,129.84,225.06z"/>
		<path class="st3" d="M131.51,241.3c0.81-1.62,2.33-2.38,3.67-3.4c0.07,0.1,0.14,0.17,0.21,0.26
			C134.08,239.21,132.79,240.25,131.51,241.3z"/>
		<path class="st3" d="M59.5,234.47c-0.69-2.26-0.83-4.69-1.55-6.95c-0.1-0.29-0.17-0.6-0.24-0.9c-0.38-0.57-0.64-1.24-0.81-1.95
			c-0.14-0.07-0.26-0.17-0.4-0.26c0.33,1.55,0.67,3.05,0.95,4.57c0.07,0.38,0,0.93-0.17,1.24c-0.17,0.26-0.33,0.55-0.5,0.81
			c0.17,0.14,0.26,0.38,0.24,0.69c-0.05,0.57-0.17,1.14-0.31,1.69c0.1,1.62,0.17,2.83,0.26,4.14c-0.36-0.02-0.69-0.05-1.12-0.1
			c0,1.4,0.05,2.74,0,4.05c-0.19,4.69-0.38,9.36-0.64,14.02c-0.14,2.57-0.52,5.12-0.64,7.67c-0.17,3.74-0.17,7.48-0.24,11.21
			c0,0.5-0.07,0.98-0.14,1.55c-0.93,0.07-1.79,0.19-2.64,0.19c-0.57,0-1.12-0.21-1.62-0.33c-0.95-1.52-1.29-3.12-0.98-4.9
			c0.07-0.48,0.12-1.05-0.52-1.31c-0.81,1.95-0.45,3.88,0.19,5.91c-0.98-0.98-1.88,0.55-2.86-0.24c-0.33-0.79-0.19-1.6,0.1-2.45
			c0.17-0.52,0.38-1.05,0.45-1.6c0.05-0.36-0.14-0.74-0.29-1.43c-1.21,1.74-1.21,3.62-1.55,5.31c-0.76,0.29-1.4,0.02-1.81-0.71
			c-0.26-0.48-0.5-1.43-0.31-1.71c0.88-1.26,1.05-3.02,2.12-4.19c0.9-1,1.57-2.33,2.19-3.64c0.55-1.14,0.9-2.4,0.57-3.81
			c-0.1-0.43-0.1-0.88-0.12-1.33c-0.1-1.48-0.26-2.95-0.12-4.43c-0.33-2.48-0.67-4.98-0.74-7.45c-0.07-0.4-0.17-0.83-0.19-1.24
			c-0.17-1.76-0.26-3.55-0.45-5.29c-0.43-3.98-0.93-7.93-1.33-11.91c-0.21-2.07-0.29-4.17-0.48-6.26c-0.14-1.57-0.4-3.14-0.57-4.71
			c-0.24-2.4-0.43-4.81-0.64-7.21c-0.21-0.19-0.4-0.36-0.62-0.55c-0.07-0.07-0.14-0.14-0.21-0.24c0.14,1.71,0.29,3.43,0.45,5.12
			c0.26,2.64,0.5,5.31,0.79,7.95c0.1,0.95,0.31,1.9,0.31,2.83c-0.07,3.52,0.55,6.95,0.9,10.43c0.52,5.12,1.05,10.21,1.52,15.33
			c0.24,2.6,0.26,5.19,0.52,7.79c0.24,2.5-0.31,4.64-1.52,6.57c-0.57,0.9-1.33,1.62-1.81,2.57c-0.12,0.24-0.24,0.43-0.36,0.62
			c-0.5,1.1-1.05,2.14-1.62,3.19c0,0.07,0,0.14,0,0.19c-0.07,1.57,0.38,2.69,1.64,3.29c1.74,0.79,3.5,1.1,5.33,0.9
			c0.31-0.02,0.62-0.05,0.93-0.02c1.36,0.02,2.69,0.05,4.05,0.07c0.83,0,1.67-0.1,2.4-1c0-1.9-0.02-3.93-0.05-5.93
			c-0.02-1.79-0.1-3.55-0.05-5.33c0.02-0.86,0.05-1.88,0.43-2.55c0.48-0.83,0.5-1.62,0.48-2.5c-0.05-1.4-0.19-2.79-0.14-4.19
			c0.1-2.71,0.29-5.45,0.4-8.17c0.1-1.83,0.14-3.67,0.21-5.5c0.48,0.07,0.81,0.1,1.26,0.17c0.19-2.83-0.69-5.6-0.07-8.38
			c0.81,0.38,0.62,2.02,1.83,1.95C59.62,235.3,59.62,234.85,59.5,234.47z"/>
		<path class="st3" d="M46.33,232.66c0.36-1.57,1.33-2.52,2.4-3.36C47.93,230.42,47.14,231.54,46.33,232.66z"/>
		<path class="st3" d="M48.83,231.56c-0.71,1.29-1.48,2.52-2.6,3.62c0.36-1.24,1.57-2.83,2.62-3.57L48.83,231.56z"/>
		<path class="st3" d="M48.86,231.59c0.05-0.17,0.05-0.38,0.14-0.5c0.17-0.21,0.38-0.36,0.71-0.29c-0.31,0.24-0.6,0.5-0.9,0.74
			L48.86,231.59z"/>
	</g>
</g>
</svg>
