<?xml version="1.0" encoding="utf-8"?>
<!-- Generator: Adobe Illustrator 24.0.2, SVG Export Plug-In . SVG Version: 6.00 Build 0)  -->
<svg version="1.1" xmlns="http://www.w3.org/2000/svg" xmlns:xlink="http://www.w3.org/1999/xlink" x="0px" y="0px"
	 viewBox="0 0 228.4 280.75" style="enable-background:new 0 0 228.4 280.75;" xml:space="preserve">
<style type="text/css">
	.st0{fill:#EB584A;}
	.st1{fill:#FFFFFF;}
	.st2{fill:#BCBCBB;}
	.st3{fill:#020203;}
	.st4{fill:#030304;}
</style>
<g id="Layer_1">
</g>
<g id="Layer_2">
</g>
<g id="Layer_3">
</g>
<g id="Layer_4">
</g>
<g id="Layer_5">
</g>
<g id="Layer_6">
</g>
<g id="Layer_7">
</g>
<g id="Layer_8">
</g>
<g id="Layer_9">
</g>
<g id="Layer_10">
	<g>
		<path class="st1" d="M154.73,222.43c-3.12-5.79-9.57-9.67-16.14-9.5c-1.12,0.02-2.29,0.19-3.17,0.86
			c-1.95,1.45-1.88,4.69-3.95,5.98c-1.74,1.1-4,0.17-5.86-0.76c-0.64-0.33-1.29-0.64-1.93-0.98c-0.31-0.17-0.64-0.33-0.88-0.57
			c-9.41-1.6-5.76-15.33-11.14-20.64c-4.76-4.71-11.88-5.76-18.22-6.57c-2.86-0.38-5.07,1.45-7.88,1.14
			c-0.88-0.1-1.74-0.36-2.6-0.69c-2.12,1.5-4.1,3.17-5.88,5.05c-1.95,2.02-3.69,4.29-4.74,6.91c-1.24,3.1-1.38,6.52-1.21,9.86
			c0.05,0.81,0.12,1.67,0.57,2.33c0.36,0.5,1,12.21,1.55,12.52c2.67,1.43,5.52-1.69,6.62,1.6c1.17,3.43-0.74,0.21-1.88,3.29
			c-2.24,6.05-0.21,12.76,2.02,18.81c2.24,6.05,4.76,12.45,3.4,18.74c-0.62,2.86-1.95,6.05-0.36,8.5c1.33,2.02,4.33,2.5,6.5,1.36
			c2.14-1.14,3.43-3.5,3.81-5.91c0.4-2.62-0.12-5.31,0-7.98c0.12-2.67,1.14-5.57,3.55-6.71c2.71-1.26,6.12,0.43,7.6,3.05
			c1.48,2.62,1.45,5.81,1,8.79c-0.29,1.93-0.71,3.86-0.4,5.79c0.31,1.9,1.64,3.83,3.57,4.12c1.74,0.26,3.45-0.9,4.36-2.43
			c0.9-1.52,1.19-3.31,1.45-5.07c0.6-4.07,1.21-8.17,1.81-12.24c0.24-1.64,0.5-3.31,1.33-4.74c1.05-1.79,3.02-3.02,5.07-2.95
			c2.05,0.05,4.05,1.5,4.57,3.48c0.5,1.98-0.38,4.02-0.6,6.05c-0.21,2.02,0.88,4.62,2.93,4.52c3.36-0.17,3.19-6.76,6.55-6.93
			c1.71,1.1,2.02,3.48,1.6,5.45c-0.43,1.98-1.43,3.81-1.74,5.81c-0.1,0.57-0.12,1.19,0.12,1.71c0.74,1.74,3.33,1.5,4.93,0.5
			c4.12-2.57,5.79-7.71,6.5-12.5c0.71-4.81,0.83-9.83,3.02-14.17c1.05-2.1,2.57-3.9,3.71-5.95
			C157.63,235.57,157.85,228.19,154.73,222.43z"/>
		<path class="st2" d="M94.04,224.43c-0.05-0.55,0.02-2.6-0.36-3.38c-0.81,0.05-1.62,0.1-2.45,0.1c-0.81,0.36-1.62,0.79-2.07,0.9
			c-1.55,0.43-3.05,0.31-4.55-0.17c-0.19-0.05-0.36-0.14-0.5-0.21c-1.52,2.05-2.76,4.38-4.43,6.26c-0.5,1.81-0.9,3.57-1.17,4.79
			c-0.29,1.21-0.45,2.69,0.33,3.55c1.02,1.12,2.71,0.14,3.62-1.1c1.24-1.67,2.02-3.76,3.19-5.5c1.5-2.19,3.64-3.76,5.98-4.36
			c0.81-0.21,1.62-0.31,2.43-0.36C94.06,224.76,94.04,224.59,94.04,224.43z"/>
		<path class="st2" d="M82.34,215.88c-0.38,1.21-0.43,2.79,0.62,3.52c0.64,0.45,1.5,0.4,2.26,0.21c1.67-0.43,3.12-1.64,3.88-3.19
			c0.24-0.5,0.4-1.02,0.45-1.57c0.12-1.21-0.43-2.45-1.38-3.19C84.99,209.12,83.11,213.31,82.34,215.88z"/>
		<path class="st2" d="M72.99,215.83c0.88-0.69,1.36-1.93,1.88-2.88c0.67-1.24,1.38-2.4,2.36-3.4c0.19-0.21,0.43-0.38,0.67-0.5
			c-0.26-5.19-0.1-10.26,1.36-15.45c-4.57,5.71-6.95,13.17-6.45,20.45C72.8,214.64,72.87,215.26,72.99,215.83z"/>
		<path class="st2" d="M111.37,217.28c-0.05,1.76,0.05,3.83,1.5,4.86c1.38,0.98,3.5,0.38,4.52-0.98c1.02-1.36,1.14-3.21,0.81-4.9
			c-0.33-1.67-1.1-3.21-1.69-4.81c-0.62-1.62-1.07-3.31-1.36-5.05c-0.33-1.9-0.45-3.95-1.29-5.74c-1.45-3.19-2.05-0.98-2.1,1.29
			C111.63,207.07,111.49,212.19,111.37,217.28z"/>
		<path class="st2" d="M135.11,215.17c1.62-0.93,3.6-0.95,5.48-0.95c2.74,0,5.71,0.1,7.79,1.88c1.57,1.36,2.33,3.48,2.45,5.55
			c0.12,2.07-0.31,4.14-0.76,6.17c-0.31,1.48-0.64,2.95-0.95,4.43c-0.19,0.88-0.38,1.76-0.86,2.52c-0.48,0.76-1.26,1.38-2.17,1.36
			c-1.74-0.02-2.55-2.07-3.36-3.62c-1.05-2.02-2.74-3.64-4.4-5.21c-1.17-1.12-2.36-2.24-3.52-3.33c-0.76-0.71-2.93-2.12-3.24-3.1
			c-0.31-1.02,0.57-2.33,1.14-3.21C132.97,217.21,135.11,215.28,135.11,215.17z"/>
		<path class="st2" d="M126.49,260.55c-0.31,0.93-0.81,1.79-1,2.74c-0.14,0.79-0.07,1.6,0.21,2.33c1.93,0.48,4.07-0.07,5.55-1.4
			c1.57-1.43,2.29-3.55,2.86-5.57c0.19-0.69,0.4-1.4,0.4-2.12c0.02-1.88-1.17-3.55-2.29-5.05c-0.14-0.19-0.29-0.38-0.5-0.5
			c-0.21-0.12-0.5-0.14-0.74-0.12c-1.26,0.12-3.64,1.98-4.19,3.14C125.89,255.83,127.2,258.45,126.49,260.55z"/>
		<path class="st2" d="M95.27,271.1c0.36,1.76,0.57,3.62,0.12,5.36c-0.48,1.74-1.79,3.36-3.55,3.69c-1.64,0.31-3.38-0.52-4.31-1.9
			c-0.95-1.38-1.14-3.17-0.79-4.79c0.36-1.62,1.24-3.02,2.02-4.48c0.57-1.1,1.12-3.57,2.17-4.29
			C93.89,262.62,94.94,269.38,95.27,271.1z"/>
		<path class="st3" d="M157.3,229.17c-0.29-0.4-0.19-1.02-0.31-1.48c-0.95-3.38-2.26-6.6-4.5-9.33c-1.67-2.07-3.64-3.67-6.29-4.5
			c-3.1-0.98-6.12-1.19-9.1,0.1c-2.83,1.24-5.76,2.45-6.91,5.79c-2.4-1-4.69-1.98-7-2.93c0-0.19-4.57-1.45-4.55-1.6
			c-0.67,0.4,0.76,0.57,0.19,1.07c0.62,0.52,3.81,2.45,4.38,2.9c1.43,0.62,2.83,1.19,4.33,1.52c3.21,0.74,6.33,1.64,8.41,4.52
			c0.07,0.12,0.24,0.17,0.6,0.4c-0.52-3.07-2.88-3.95-5.07-5.1c0.33-0.36,0.67-0.6,0.81-0.9c0.86-2.05,2.79-2.88,4.43-4.05
			c0.48-0.33,0.88-0.24,1.31,0.07c1.9,1.4,3.74,2.86,5.12,4.81c0.31,0.43,0.67,0.83,0.98,1.29c0.31,0.4,0.6,0.83,0.88,1.26
			c-0.36-1.55-1.12-2.81-2.17-3.9c-1.02-1.07-2.02-2.19-3.02-3.29c0.07-0.1,0.12-0.19,0.19-0.29c0.69,0.24,1.4,0.4,2.05,0.74
			c2.88,1.55,4.19,4.45,5.98,6.98c-0.4-1.98-1.52-3.55-2.64-5.14c-1.19-1.69-2.76-2.86-4.79-3.45c0.43-0.19,0.79-0.31,1.12-0.29
			c2.52,0.31,4.88,1.07,7.12,2.33c1.71,0.98,2.74,2.55,3.76,4.1c1.67,2.52,3,5.24,3.07,8.31c0.05,2.24-0.12,4.48-0.26,6.71
			c-0.07,1-0.21,2.02-0.5,3c-0.26,0.9-0.86,1.64-0.67,2.74c0.07,0.48-0.55,1.07-0.86,1.62c-0.12,0.48-0.21,0.98-0.33,1.45
			c0.02,0.31,0.07,0.64,0.1,0.95c0.1,0.02,0.21,0.02,0.31,0.05c1.19-3.29,2.9-6.33,3.67-9.79c0.1-0.45,0.19-0.9,0.29-1.36
			C157.54,232.69,157.37,230.93,157.3,229.17z"/>
		<path class="st3" d="M138.7,264.1c-0.4-1.45-0.93-2.86-1.19-4.33c-0.33-1.76-1.21-3.19-2.21-4.57c-0.33-0.48-0.69-0.95-0.95-1.48
			c-0.9-1.88-1.76-3.76-2.62-5.62c-1.1,0.43-0.29,1.21-0.31,1.95c-4.38,1.83-8.74,3.67-13.24,5.55c0.33-2.05,0.76-3.98,0.93-5.91
			c0.24-2.9,0.52-4.5-0.57-5.62c-0.05,0.17-0.12,0.31-0.12,0.45c0.07,3.55-0.26,7.05-1.17,10.48c-0.1,0.36-0.02,0.74,0,1.12
			c0.05,1.5,0.21,3,0.1,4.48c-0.19,2.71-0.31,5.43-1,8.1c-0.24,0.88-0.31,1.79-0.48,2.67c-0.02,0.12-0.17,0.24-0.26,0.33
			c-0.33-0.19-0.64-0.38-0.93-0.55c-0.48,0.62,0,0.95,0.21,1.36c0.79,1.57,1.19,3.17,0.67,4.95c-0.31,1.07-0.93,1.69-1.93,2.14
			c-0.67-1.1-0.33-2.69-2.12-3.29c0.55,1.26,0.98,2.26,1.4,3.29c-2.1,0.36-3.62,0.05-5.93-1.14c0.52-1.5,0.52-1.5,0.4-1.93
			c-1.17-0.02-1.12,1.07-1.45,1.71c-2.02-0.43-2.38-1-1.79-2.76c0.1-0.31,0.26-0.57,0.38-0.88c0.57-1.5,1.12-3,1.69-4.5
			c0.43-1.14,0.26-2.19-0.38-3.21c-1.07-1.67-1.48-3.52-1.36-5.5c0.07-1.19,0.02-2.38,0.02-3.69c-1.21,0.55-0.6,1.71-1.17,2.55
			c-1.17,0.26-2.4,0.76-3.64,0.76c-1.31,0-2.62-0.45-3.9-0.81c-0.67-0.19-1.31-0.48-1.79-0.19c-0.1,1.02-0.02,1.93-0.26,2.74
			c-0.36,1.36-0.29,2.62,0.14,3.93c0.93,2.76,1.31,5.62,1.45,8.5c0.1,1.98-0.9,3.24-2.98,3.74c-0.4-0.79-0.81-1.6-1.29-2.52
			c-0.62,0.71-0.17,1.07-0.02,1.5c0.17,0.43,0.29,0.88,0.48,1.43c-1.36,0.33-2.57,0.64-3.86,0.33c-1.17-0.29-1.5-0.71-1.38-1.93
			c0.02-0.38,0.1-0.74,0.17-1.26c-1.21,0.52-0.6,1.55-1.02,2.17c-2.05-0.57-2.95-2.1-2.29-3.95c0.6-1.69,1.29-3.38,1.93-5.07
			c0.07-0.19,0.12-0.43,0.1-0.62c-0.31-1.45-0.6-2.93-1-4.36s-0.95-2.83-1.48-4.24c-0.57-1.6-1.14-3.21-1.79-4.79
			c-0.83-2.02-1.64-4.05-1.74-6.48c1.76-1.1,3.6-2.19,5.41-3.31c-0.05-0.1-0.1-0.17-0.14-0.26c-1.81,1-3.6,2-5.41,3
			c-0.95-2.48-0.98-6.86-0.1-9.36c0.6-1.64,0.38-3.74-0.57-5.26c0.38-0.69,0.76-1.45,1.17-2.19c1.36-2.55,2.71-5.1,4.05-7.67
			c0.19-0.36,0.24-0.79,0.4-1.33l-0.05-0.07c-1.48,0.71-1.81,1.19-5.67,8.91c-1.38,2.76-2.71,5.62-2.95,9.02
			c0.67-0.21,1.07-0.33,1.76-0.57c0,0.76,0,1.38,0,2c0,1.76-0.36,3.6,0.07,5.26c0.76,2.98,1.14,6.07,2.43,8.95
			c1.48,3.26,2.57,6.69,3.83,10.05c0.52,1.43,0.79,2.86,0.17,4.36c-0.52,1.29-0.9,2.62-1.45,3.9c-0.4,0.93-0.31,1.76,0.12,2.62
			c0.5,1,1.26,1.69,2.21,2.24c2.38,1.38,4.95,1.5,7.45,0.79c2.67-0.76,4.07-1.93,4.36-4.33c0.1-0.79,0-1.6-0.17-2.38
			c-0.52-2.74-1.07-5.45-1.64-8.17c-0.33-1.57,0.12-2.9,0.81-4.17c1.48,0.26,2.79,0.69,4.1,0.67c1.33,0,2.67-0.45,4.14-0.71
			c0.05,0.57,0.02,1.05,0.12,1.5c0.31,1.4,0.4,2.93,1.1,4.14c0.88,1.6,0.98,2.98,0.24,4.55c-0.21,0.43-0.36,0.88-0.52,1.33
			c-0.48,1.31-1.02,2.6-1.36,3.93c-0.29,1.17,0.02,1.76,1.14,2.14c2.62,0.95,5.17,2.07,8.02,2.12c0.83,0.02,1.52-0.12,2.26-0.6
			c1.07-0.69,1.64-1.55,1.95-2.79c0.29-1.12,0.38-2.19,0.1-3.31c-0.1-0.4-0.12-0.86-0.05-1.26c0.45-2.43,0.95-4.83,1.4-7.24
			c0.07-0.31,0.1-0.64,0.12-0.95c0.1-2.19,0.19-4.38,0.21-6.57c0-0.86,0.26-1.43,1.05-1.79c1.62-0.71,3.21-1.45,4.83-2.14
			c0.21-0.1,0.5-0.07,0.95-0.12c0.17,3.38,1.48,6.69-0.57,9.88c-0.12,0.17-0.17,0.4-0.21,0.6c-0.62,1.98,0.21,3.48,2.24,3.79
			c4.91,0.79,8.33-1.36,9.57-6.29c0.14-0.55,0.24-1.1,0.4-1.88c1,1.71,0.45,3.86,2.43,5.1C138.78,264.67,138.8,264.38,138.7,264.1z
			 M135.11,261.14c-0.52,1.33-1.02,2.69-1.74,3.93c-0.9,1.52-2.52,2.1-4.21,2.33c-0.86,0.12-1.76,0-2.98-0.02
			c0.55-1.02,0.93-1.76,1.31-2.48c-0.76-0.55-0.76-0.55-2,1.48c-0.14-0.45-0.36-0.76-0.31-1.02c0.17-0.71,0.45-1.43,0.67-2.14
			c0.26-0.9,0.62-1.81,0.74-2.74c0.1-0.69,0.4-1.05,0.98-1.33c1.19-0.6,2.38-1.21,3.55-1.81c-0.05-0.07-0.1-0.17-0.14-0.24
			c-1.45,0.62-2.88,1.21-4.4,1.86c0.07-1.07,0.07-1.07,3.21-3.4c-0.52,0.24-1.05,0.48-1.52,0.74c-0.55,0.29-1.07,0.64-1.64,0.98
			c-0.14-0.31-0.21-0.45-0.24-0.6c-0.71-3.1-0.71-3.1,2.1-4.43c1.05-0.5,2.1-1.02,3.26-1.6c1.48,2.6,2.9,5.12,4.33,7.62
			C135.73,259.24,135.49,260.22,135.11,261.14z"/>
		<path class="st3" d="M153.44,243.12c-0.12,0.48-0.21,0.98-0.33,1.45c-1.05,1.55-2.1,3.1-3.17,4.62c-1,1.45-0.93,3.14-1.1,4.76
			c-0.12,1.21-0.1,2.48,0.02,3.69c0.33,3.21,0.02,6.41-0.33,9.6c-0.24,2.29-1.24,4.17-2.9,5.88c-1.69,1.71-3.74,2.31-5.86,3.05
			c-2.71,0.93-5.93-1.71-5.26-4.95c0.5-2.38,2.19-4.17,4.02-5.93c0.45,0.79-0.02,1.12-0.31,1.5c-0.74,1.05-1.55,2.05-2.19,3.14
			c-0.64,1.1-0.69,2.31-0.14,3.57c0.98-0.6,0.9-2.17,2.6-2.43c-0.52,0.95-0.93,1.55-1.24,2.21c-0.5,1.12-0.33,1.64,0.52,1.98
			c1.12,0.43,2.1,0.02,2.45-0.95c0.21-0.6,0.4-1.21,0.69-1.79c0.12-0.24,0.43-0.38,0.64-0.55c0.1,0.05,0.19,0.12,0.29,0.17
			c-0.33,0.79-0.69,1.57-1.17,2.69c0.74-0.19,1.29-0.19,1.69-0.43c2.29-1.4,4.17-3.24,5-5.83c0.4-1.24,0.29-2.64,0.4-3.98
			c0.07-0.64,0.19-1.26,0.24-1.9c0.07-0.95,0.21-1.93,0.12-2.86c-0.24-2.57-0.33-5.12,0.05-7.69c0.19-1.31,0-2.6-0.36-3.93
			c-0.5-1.83-0.6-3.79-0.79-5.71c-0.29-2.88-1.33-5.48-2.93-7.88c-0.4-0.6-0.67-1.26-1.02-1.95c0.76-0.24,1,0.1,1.19,0.5
			c0.79,1.62,1.33,1.67,2.69,0.69c0.12-0.07,0.26-0.1,0.48-0.19c-0.19,0.95-2.05,0.83-1.36,2.4c0.95-0.55,1.83-1.05,2.71-1.55
			c0.05,0.07,0.1,0.17,0.14,0.24c-0.83,0.6-1.69,1.19-2.4,1.69c0.88,4.1,1.71,8.05,2.62,12.17c1.5-1.43,2.38-3.07,3.02-4.79
			c0.6-1.64,0.76-3.45,1.14-5.29C153.87,239.55,153.9,241.07,153.44,243.12z"/>
		<path class="st3" d="M88.18,251.6c0.79-1.24,1.95-1.88,3.67-2.21c-1.29,0.98-2.36,1.76-3.4,2.55
			C88.34,251.81,88.27,251.69,88.18,251.6z"/>
		<path class="st3" d="M91.49,272.72c-1,0.67-2,1.36-3,2.02c-0.07-0.12-0.14-0.21-0.21-0.33C88.94,273.24,90.13,272.86,91.49,272.72
			z"/>
		<path class="st3" d="M122.42,247.1c1.6,0.14,2.26,1.02,2.88,2.05C124.54,249.17,124.11,248.86,122.42,247.1z"/>
		<path class="st3" d="M87.58,272.31c0.31-1.21,1.26-1.76,2.38-2.14C89.18,270.88,88.39,271.6,87.58,272.31z"/>
		<path class="st3" d="M142.11,255.69c-0.43,1.05-1.17,1.83-1.98,2.55C140.25,257.05,140.59,256.62,142.11,255.69z"/>
		<path class="st3" d="M90.56,247.67c-0.79,0.57-1.12,1.64-2.24,1.9C88.51,248.38,89.11,247.83,90.56,247.67z"/>
		<path class="st3" d="M142.54,258.79c-0.6,0.95-1.33,1.67-2.52,2.36C140.54,259.98,141.16,259.41,142.54,258.79z"/>
		<path class="st3" d="M109.15,250.6c-0.52,1-1.24,1.79-2.21,2.29C107.23,251.69,108.23,251.17,109.15,250.6z"/>
		<path class="st3" d="M102.25,240.29c-0.98-0.4-1.74-0.71-2.62-1.07C100.73,238.62,101.18,238.81,102.25,240.29z"/>
		<path class="st3" d="M123.47,245.81c1.19-0.14,1.19-0.14,2.33,0.55C125.08,246.86,124.97,246.83,123.47,245.81z"/>
		<path class="st3" d="M126.37,232.05c0.36-1.33,1.21-1.64,2.17-2.12C128.08,231,127.97,231.12,126.37,232.05z"/>
		<path class="st3" d="M124.99,229.57c0.83-0.76,1.64-1.5,2.48-2.26c-0.29,1.33-1.33,1.83-2.1,2.67
			C125.25,229.83,125.11,229.69,124.99,229.57z"/>
		<path class="st3" d="M107.85,254.79c0.52-0.76,1.26-1.26,2.36-1.29c-0.69,0.55-1.36,1.07-2.05,1.62
			C108.04,255.02,107.94,254.91,107.85,254.79z"/>
		<path class="st3" d="M103.56,238c-0.55-0.43-1.1-0.88-1.64-1.31c1.17-0.31,1.36,0.55,1.9,1
			C103.73,237.79,103.65,237.88,103.56,238z"/>
		<path class="st3" d="M80.44,245.83c0.64-0.52,1.31-1.02,1.95-1.55c0.07,0.12,0.17,0.24,0.24,0.33c-0.74,0.38-1.33,1-2.21,1.17
			L80.44,245.83z"/>
		<path class="st3" d="M148.59,232.9c0.38-0.24,0.74-0.45,1.12-0.69c0.05,0.07,0.1,0.14,0.12,0.19c-0.36,0.24-0.74,0.48-1.1,0.71
			C148.68,233.07,148.63,232.98,148.59,232.9z"/>
		<path class="st3" d="M117.27,249.86c0,0.31,0,0.62,0,0.93h-0.1c0-0.29,0-0.57,0-0.86l0.05-0.14L117.27,249.86z"/>
		<path class="st3" d="M80.39,245.81c-0.43,0.36-0.83,0.71-1.26,1.07c0.14-0.76,0.64-1,1.29-1.05L80.39,245.81z"/>
		<path class="st3" d="M128.54,259.83c0.83-0.86,1.95-1.19,3.17-1.36c-1,0.55-2,1.1-3,1.64
			C128.66,260.03,128.61,259.93,128.54,259.83z"/>
		<path class="st3" d="M131.58,266c-0.31-1-0.31-1,0.52-1.24C131.92,265.26,131.75,265.64,131.58,266z"/>
		<path class="st3" d="M120.06,223.21c-0.45-3.29-0.62-6.62-1.55-9.81c-0.88-2.98-1.74-5.95-2.6-8.93
			c-0.31-1.07-0.48-2.21-0.93-3.21c-0.74-1.67-1.55-3.31-2.5-4.83c-1.71-2.71-4-4.71-7.33-5.21c-0.43-0.07-0.81-0.26-1.24-0.33
			c-2.26-0.43-4.52-0.83-6.62,0.6c-0.48-0.19-0.95-0.31-1.38-0.52c-1.71-0.86-3.45-0.93-5.31-0.52c-2.12,0.45-4.29,0.69-6.5,0.57
			c-1.48-0.1-2.98,0.17-4.48,0.29c-0.31,0.02-0.69,0.07-0.9,0.26c-1.29,1.12-2.74,2.12-3.74,3.48c-1.45,1.9-2.62,4.05-3.24,6.41
			c-0.26,1.02-0.55,2.07-0.62,3.14c-0.14,2.24-0.17,4.48-0.19,6.71c0,0.86,0,1.71,0.14,2.55c0.24,1.43,0.55,2.83,0.88,4.24
			c0.38,1.52,0.4,3.07,0.24,4.62c-0.07,0.6-0.12,1.17-0.17,1.76c-0.1,2.05,0.4,2.81,2.29,3.52c1.33,0.48,2.79,0.43,4.1,1.07
			c0.6,0.29,0.93-0.05,1.07-0.76c0.19-0.95,0.33-1.9,0.55-2.83c0.26-1.17,0.6-2.33,0.93-3.62c1.02,0.38,1.9,0.64,2.74,0.98
			c2.79,1.14,5.24,0.6,7.45-1.33c0.31-0.26,0.69-0.57,0.36-1.17c-0.62,0.43-1.24,0.83-1.83,1.24c-1.26,0.83-2.64,1.14-4.12,0.81
			c-0.88-0.21-1.76-0.43-2.64-0.71c-0.64-0.21-1.24-0.57-1.81-0.86c-0.02-0.36-0.07-0.57-0.05-0.79c0.14-2.71,1.26-5.07,2.81-7.21
			c0.19-0.26,0.43-0.52,0.71-0.71c0.05-0.07,0.1-0.14,0.14-0.21c0.12-0.14,0.24-0.29,0.38-0.4c0.14-0.12,0.31-0.21,0.45-0.33
			c0.17-0.07,0.33-0.12,0.52-0.1l0.12,0.02c0.05-0.17,0.14-0.31,0.29-0.43c0.67,0.12,1.26,0.38,1.86,0.95
			c1.74,1.71,2.79,3.76,3.36,6.1c0.12,0.52,0.36,1,0.5,1.52c0.26,0.98,0.52,1.95,0.76,2.93c0.57,2.14,0.86,4.31,0.48,6.5l0.02,0.17
			c0.17,0.17,0.36,0.31,0.57,0.48c0.14-1,0.43-1.86,0.36-2.69c-0.12-1.43,0.67-2.29,1.57-3.14c0.55-0.52,1.12-1,1.67-1.5
			c0.19-0.17,0.33-0.38,0.5-0.57l-0.14-0.12c-1.14,0.93-2.29,1.86-3.62,2.95c-0.21-0.93-0.38-1.64-0.57-2.33
			c-0.26-0.98-0.57-1.93-0.86-2.9c-0.14-0.45-0.31-0.9-0.43-1.38c-0.55-2.17-1.48-4.12-2.93-5.81c-0.17-0.19-0.26-0.45-0.48-0.76
			c0.45-0.64,0.9-1.29,1.43-2.02c1.12,0.83,2.21,1.57,3.21,2.45c1.14,1,1.19,2.55,1.71,3.86c0.05-2.36-0.74-4.24-2.93-5.43
			c-0.64-0.33-1.17-0.88-1.74-1.33c0.24-0.71,0.43-1.33,0.62-1.93c2.43-0.6,4.62-0.14,6.71,0.93c2.67,1.38,4.12,3.83,5.45,6.33
			c1.9,3.57,2.17,7.45,2.31,11.38c0.05,1.36-0.12,2.55-1.48,3.19c-0.62,0.14-1.26,0.36-1.88,0.57c-0.29,0.1-0.57,0.21-0.88,0.26
			c-0.62,0.1-1.26,0.14-1.88,0.19c-0.36,0.02-0.81,0.17-1.1,0.02c-1.21-0.62-2.38-0.1-3.62-0.12c0.19,0.71,0.79,0.74,1.19,0.67
			c0.93-0.14,1.81-0.02,2.69,0.21c0.24,0.07,0.55,0.07,0.79,0c0.79-0.21,1.55-0.38,2.36-0.12c0.19,0.07,0.57-0.07,0.71-0.24
			c0.55-0.57,1.17-0.64,2.02-0.21c0.29-1.33,1.38-0.86,2.26-1.05c0.12-0.88,0.24-1.71,0.38-2.71c0.9-0.14,1.79-0.31,2.67-0.38
			c1.21-0.12,2.43-0.1,3.48-0.93c0.93-0.76,1.98-1.07,3.14-0.1c0.48-0.67,0.88-1.26,1.29-1.83c0.74,0.29,0.88,1.29,1.83,1.29
			C119.94,223.59,120.08,223.4,120.06,223.21z M73.32,216.52c-0.12,0-0.21,0-0.33-0.02c-0.07-1.74-0.14-3.5-0.19-5.24
			c-0.05-2.29-0.17-4.6-0.05-6.88c0.14-2.83,1.07-5.43,2.79-7.74c0.07-0.1,0.24-0.14,0.57-0.33c-0.74,1.71-1.45,3.21-1.21,5
			c0.64-2.98,1.5-5.74,3.98-7.57l0.36,0.17c-0.07,0.29-0.07,0.62-0.21,0.86c-0.79,1.48-1.26,3.05-1.69,4.64
			c-0.74,2.79-1.43,5.6-1.43,8.5c0,0.88,0.17,1.76,0.29,2.88C75.32,212.52,74.32,214.52,73.32,216.52z M80.7,217.21
			c-0.21,0.55-0.4,1.12-0.43,1.71c-0.12,2.26-0.52,4.45-1.14,6.62c-0.31,1.05-0.24,1.07-1.21,1.88c-0.55-0.05-1.07-0.07-1.57-0.12
			c-0.43-0.02-0.86,0-1.26-0.1c-1.33-0.31-1.9-1.02-1.71-2.38c0.19-1.36,0.38-2.76,1.86-3.48c0.31-0.14,0.52-0.48,0.64-0.93
			c-0.57,0.31-1.14,0.62-1.88,1c0.12-0.69,0.19-1.24,0.31-1.79c0.6-2.62,1.43-5.14,2.69-7.5c0.81-1.48,1.86-2.76,3.19-3.74
			c0.57-0.4,1.33-0.67,2.05-0.79c0.83-0.14,1.57,0.12,1.93,1.05c0.24,0.57,0.62,1.1,1,1.79C82.51,212.05,81.68,214.69,80.7,217.21z
			 M102.54,208.88c-0.02,0.1-0.1,0.17-0.17,0.31c-0.14-0.05-0.31-0.07-0.4-0.17c-2.21-2.79-5.33-3.81-8.69-4.26
			c-0.74-0.1-1.81-0.4-2.1,0.86c-1.79-0.9-2.26-1.79-1.64-3.45c0.43-1.14,1-2.24,1.98-3.07c1.48-1.29,3.21-1.64,5.1-1.26
			c0.6,0.12,1.19,0.36,1.93,0.21c-5.31-2.86-9.52,0.74-10.1,6.24c-0.26-0.26-0.55-0.4-0.57-0.6c-0.17-1.05-0.17-2.14-0.4-3.17
			c-0.52-2.24-2.12-3.45-4.38-3.48c-0.14,0-0.26,0.07-0.71,0.21c0.6,0.19,0.9,0.33,1.24,0.4c1.71,0.33,2.74,1.43,3.14,3.07
			c0.26,1.12,0.33,2.31,0.48,3.31c-1.29,0.95-2.38,1.79-3.6,2.69c-0.19-0.05-0.48-0.12-0.79-0.19c-1.05-0.17-2.02-0.1-2.86,0.64
			c-0.69,0.6-1.4,1.17-2.1,1.74c-0.31,0.26-0.62,0.55-1.12,1.02c-0.05-2.21-0.07-4.17,0.29-6.1c0.36-1.83,0.95-3.62,1.36-5.43
			c0.33-1.55,1.21-2.86,1.93-4.21c0.14-0.29,0.57-0.43,0.86-0.67c0.19-0.17,0.5-0.29,0.55-0.5c0.21-0.86,0.9-1,1.6-1.12
			c1.19-0.19,2.33-0.1,3.4,0.55c0.4,0.24,0.83,0.45,1.36,0.74c1.07-1.05,2.38-1.62,3.86-1.71c0.62-0.05,1.31-0.05,1.88,0.12
			c1.43,0.43,2.95,0.62,4.05,1.81c1.33,1.43,2.43,2.98,3,4.88c0.12,0.36,0.24,0.71,0.4,1.05c1.26,2.93,1.38,6.02,1.36,9.14
			C102.61,208.57,102.58,208.74,102.54,208.88z M116.61,222.98c-0.62,0-1.26-0.14-1.83,0c-0.6,0.17-1.12,0.6-1.69,0.9
			c-0.33,0.17-0.64,0.43-1,0.48c-0.79,0.12-1.6,0.12-2.38,0.21c-0.74,0.1-1.45,0.26-2.29,0.43c-0.43-0.88-0.33-1.79-0.45-2.67
			c-0.24-1.74-0.45-3.5-0.74-5.24c-0.07-0.48-0.29-0.93-0.45-1.36c-0.52-1.24-0.52-1.21,0.05-2.29c-0.31,0.07-0.6,0.14-0.86,0.21
			c-0.71-0.64-0.6-1.26-0.07-1.86c0.48-0.55,1-1.05,1.38-1.74c-0.71,0.6-1.45,1.19-2.21,1.81c-0.24-0.26-0.45-0.48-0.71-0.74
			c1-1.14,0.74-2.55,0.74-3.83c-0.02-2.9-0.67-5.69-1.62-8.45c-0.69-1.98-1.69-3.67-2.95-5.26c-0.29-0.36-0.52-0.79-0.88-1.33
			c0.57-0.17,1-0.43,1.45-0.43c2.98,0.02,5.88,0.36,8.36,2.24c1.17,0.88,2.1,1.98,2.9,3.17c1.81,2.64,2.93,5.55,3.52,8.69
			c0.93,4.93,1.9,9.86,2.86,14.72C117.35,221.45,116.99,222.21,116.61,222.98z"/>
		<path class="st3" d="M85.08,217.07c-1.07,0.69-1.83,1.19-2.9,1.88c0.17-0.5,0.17-0.76,0.31-0.88
			C83.15,217.52,83.87,217.12,85.08,217.07z"/>
		<path class="st3" d="M82.65,220.38c0.69-0.98,1.45-1.29,2.21-1.55C84.37,219.52,83.77,220,82.65,220.38z"/>
		<path class="st3" d="M95.58,225.98c0.57-0.43,1.14-0.88,1.71-1.31c-0.24,0.81-0.88,1.19-1.45,1.62
			C95.75,226.17,95.65,226.07,95.58,225.98z"/>
		<path class="st3" d="M107.2,199.09c-0.21-0.12-0.5-0.19-0.64-0.38c-0.38-0.52-0.74-1.05-1.02-1.62c-0.79-1.6-2-2.76-3.5-3.67
			c-0.43-0.26-0.83-0.57-1.17-1c1.6,0.6,3.07,1.43,4.05,2.83c0.86,1.21,1.5,2.57,2.26,3.86L107.2,199.09z"/>
		<path class="st3" d="M108.23,215.31c0.69,1.21,2,7,1.93,8.41C109.25,221.09,108.73,218.38,108.23,215.31z"/>
		<path class="st3" d="M111.46,215.48c0.5,2.48,0.74,4.98,0.93,7.48C111.73,221.52,111.11,216.62,111.46,215.48z"/>
		<path class="st3" d="M107.18,199.12c0.79,0.95,1.31,2.05,1.4,3.31c-0.52-1.07-1.45-2-1.36-3.33L107.18,199.12z"/>
		<path class="st3" d="M83.96,203.14c-0.1,1.24-0.62,1.79-1.62,1.71c-1.29-0.1-2.31-1.14-2.17-2.26c0.14-1.12,1.19-2.1,2.24-2.05
			C83.61,200.62,84.11,201.43,83.96,203.14z"/>
		<path class="st3" d="M96.65,202.26c-0.14,0.26-0.38,0.83-0.79,1.31c-0.81,0.95-1.74,0.9-2.55-0.05c-0.5-0.6-0.52-1.5-0.02-2.21
			c0.6-0.83,1.48-1.19,2.31-0.95C96.42,200.59,96.75,201.09,96.65,202.26z"/>
		<path class="st3" d="M94.23,194.62c-1.05,0.07-1.93,0-2.69,0.24c-0.79,0.24-1.5,0.79-2.26,1.21c0.07-0.67,0.62-1.36,1.5-1.74
			C91.87,193.86,92.99,193.83,94.23,194.62z"/>
		<path class="st3" d="M85.82,195.16c-0.93,0.43-1.31-0.02-2.02-0.29C84.73,194.47,85.08,194.95,85.82,195.16z"/>
		<path class="st3" d="M74.27,223.33c0.38-0.24,0.76-0.5,1.14-0.74c0.07,0.1,0.14,0.19,0.21,0.29c-0.36,0.29-0.69,0.57-1.05,0.86
			C74.46,223.59,74.37,223.48,74.27,223.33z"/>
		<path class="st3" d="M80.03,209.62c0.29-0.07,0.57-0.17,0.88-0.24c0.02,0.1,0.07,0.19,0.1,0.29c-0.29,0.12-0.57,0.24-0.88,0.36
			C80.11,209.88,80.06,209.76,80.03,209.62z"/>
		<path class="st3" d="M78.72,211.98c0.29-0.07,0.57-0.17,0.88-0.24c0.02,0.1,0.07,0.19,0.1,0.29c-0.29,0.12-0.57,0.24-0.88,0.36
			C78.8,212.24,78.77,212.09,78.72,211.98z"/>
		<path class="st3" d="M81.2,212.05c0.17,0.1,0.29,0.19,0.4,0.26c-0.12,0.14-0.26,0.26-0.38,0.4c-0.1-0.1-0.26-0.19-0.26-0.29
			C80.94,212.31,81.11,212.19,81.2,212.05z"/>
		<path class="st3" d="M93.42,208.59c0.29-0.07,0.57-0.17,0.88-0.24c0.02,0.1,0.07,0.19,0.1,0.29c-0.29,0.12-0.57,0.24-0.88,0.36
			C93.49,208.88,93.46,208.74,93.42,208.59z"/>
		<path class="st3" d="M91.63,211.98c0.29-0.07,0.57-0.17,0.88-0.24c0.02,0.1,0.07,0.19,0.1,0.29c-0.29,0.12-0.57,0.24-0.88,0.36
			C91.7,212.24,91.68,212.09,91.63,211.98z"/>
		<path class="st3" d="M95.51,209.86c0.17,0.1,0.29,0.19,0.4,0.26c-0.12,0.14-0.26,0.26-0.38,0.4c-0.1-0.1-0.26-0.19-0.26-0.29
			C95.25,210.12,95.39,210,95.51,209.86z"/>
		<path class="st1" d="M86.77,206.93c0.24-0.33,0.64-0.55,1.05-0.57h0.07c0.38,0,0.76,0.17,1.02,0.43c0.12,0.14,0.33,0.14,0.48,0
			c0.14-0.12,0.14-0.33,0-0.48c-0.4-0.4-0.95-0.64-1.5-0.64h-0.12c-0.62,0.05-1.17,0.36-1.55,0.83c-0.12,0.14-0.07,0.36,0.07,0.48
			C86.46,207.12,86.65,207.07,86.77,206.93L86.77,206.93z"/>
		<path class="st1" d="M82.01,201.86c0,0.31-0.26,0.57-0.57,0.57c-0.31,0-0.57-0.26-0.57-0.57c0-0.31,0.26-0.57,0.57-0.57
			S82.01,201.55,82.01,201.86z"/>
		<path class="st1" d="M94.7,201.69c0,0.31-0.26,0.57-0.57,0.57c-0.31,0-0.57-0.26-0.57-0.57s0.26-0.57,0.57-0.57
			C94.44,201.12,94.7,201.38,94.7,201.69z"/>
		<path class="st4" d="M96.44,197.86c0.76,0.14,1.38,0.52,1.93,1.1c0.81,0.86,1.38,2.14,1.74,3.52c0.36,1.38,0.5,2.83,0.5,4.05
			c0,0.12,0,0.21,0,0.33c0,0.19,0.14,0.33,0.33,0.33s0.33-0.14,0.33-0.33c0-0.12,0-0.21,0-0.33c0-1.67-0.29-3.81-0.98-5.62
			c-0.36-0.9-0.83-1.74-1.43-2.4c-0.62-0.67-1.38-1.14-2.29-1.31c-0.19-0.02-0.36,0.1-0.38,0.26
			C96.13,197.64,96.27,197.81,96.44,197.86L96.44,197.86z"/>
		<path class="st4" d="M78.82,206.64c-0.05-0.38-0.05-0.76-0.05-1.17c0-2.24,0.67-4.48,1.95-6.5c0.24-0.38,0.5-0.74,0.86-1
			c0.31-0.24,0.74-0.4,1.14-0.4h0.12c0.19,0.02,0.36-0.12,0.36-0.31c0.02-0.19-0.12-0.36-0.31-0.36c-0.07,0-0.12,0-0.19,0
			c-0.6,0-1.12,0.21-1.55,0.52c-0.45,0.33-0.76,0.76-1,1.17c-1.33,2.12-2.05,4.48-2.05,6.86c0,0.4,0.02,0.81,0.07,1.21
			c0.02,0.19,0.19,0.31,0.36,0.31C78.7,207,78.82,206.83,78.82,206.64L78.82,206.64z"/>
	</g>
</g>
</svg>
