<svg width="11" height="10" viewBox="0 0 11 10" fill="none" xmlns="http://www.w3.org/2000/svg">
<path opacity="0.5" d="M5.59857 4.00036L8.75369 5.11592V9.66669C8.75369 9.75509 8.71822 9.83987 8.65508 9.90237C8.59194 9.96488 8.5063 10 8.41701 10H7.07029C6.98099 10 6.89536 9.96488 6.83222 9.90237C6.76908 9.83987 6.73361 9.75509 6.73361 9.66669V7.33349H3.3668V9.66669C3.3668 9.75509 3.33133 9.83987 3.26819 9.90237C3.20505 9.96488 3.11942 10 3.03012 10H1.6834C1.59411 10 1.50847 9.96488 1.44533 9.90237C1.38219 9.83987 1.34672 9.75509 1.34672 9.66669V5.21049C0.564781 4.93447 0 4.20159 0 3.33373C0 3.15693 0.0709431 2.98737 0.197223 2.86235C0.323502 2.73734 0.494774 2.6671 0.673361 2.6671C0.851947 2.6671 1.02322 2.73734 1.1495 2.86235C1.27578 2.98737 1.34672 3.15693 1.34672 3.33373C1.34705 3.51043 1.41811 3.6798 1.54431 3.80474C1.67052 3.92969 1.8416 4.00003 2.02008 4.00036H5.59857ZM10.7738 1.66716V2.33379C10.7738 2.68739 10.6319 3.02651 10.3793 3.27654C10.1268 3.52658 9.78422 3.66704 9.42705 3.66704H8.75369V4.40825L6.06025 3.45601V0.333909C6.06025 0.0370515 6.4226 -0.11169 6.63492 0.0982979L7.20896 0.667222H8.33747C8.56704 0.667222 8.83723 0.832213 8.9397 1.03574L9.09037 1.33385H10.4371C10.5264 1.33385 10.612 1.36897 10.6752 1.43147C10.7383 1.49398 10.7738 1.57876 10.7738 1.66716ZM8.41701 1.66716C8.41701 1.60124 8.39726 1.5368 8.36027 1.48198C8.32327 1.42717 8.27069 1.38445 8.20917 1.35922C8.14765 1.33399 8.07995 1.32739 8.01464 1.34025C7.94933 1.35311 7.88934 1.38486 7.84226 1.43147C7.79517 1.47809 7.76311 1.53748 7.75012 1.60214C7.73713 1.66679 7.74379 1.73381 7.76928 1.79472C7.79476 1.85562 7.83791 1.90768 7.89328 1.9443C7.94864 1.98093 8.01374 2.00048 8.08033 2.00048C8.16962 2.00048 8.25526 1.96536 8.3184 1.90285C8.38154 1.84034 8.41701 1.75556 8.41701 1.66716Z" fill="black"/>
</svg>
