<svg width="143" height="193" viewBox="0 0 143 193" fill="none" xmlns="http://www.w3.org/2000/svg">
<path d="M2.02717 60.7099C2.52717 58.9099 4.52717 55.4099 5.22717 53.0099C5.62717 51.8099 4.42717 51.6099 4.92717 50.6099C5.72717 48.8099 7.12717 48.1099 8.22717 46.8099C9.32717 45.3099 10.9272 44.6099 12.1272 43.2099C15.4272 39.5099 18.7272 37.3099 22.7272 34.4099C26.3272 31.8099 30.3272 30.0099 34.4272 28.6099C35.2272 28.3099 36.0272 28.0099 36.8272 27.8099C47.4272 24.6099 58.7272 24.1099 69.8272 25.3099C73.0272 25.7099 76.3272 26.2099 79.5272 26.8099C86.0272 28.0099 92.2272 29.2099 98.3272 30.5099C100.727 31.0099 103.127 31.6099 105.527 32.2099C105.627 32.2099 105.627 32.2099 105.627 32.2099C110.627 33.5099 115.627 35.0099 120.827 37.4099C121.127 37.5099 121.527 37.7099 121.827 37.8099C121.927 37.9099 122.127 37.9099 122.227 38.0099C124.027 38.8099 126.127 40.5099 128.027 42.3099C127.527 42.3099 127.127 42.3099 126.727 42.6099C126.927 42.8099 127.027 43.0099 127.227 43.2099C129.227 44.9099 131.227 46.6099 133.227 48.2099C136.927 51.1099 139.727 54.9099 142.327 58.8099C142.527 59.0099 142.627 59.7099 142.427 59.9099C142.327 60.2099 141.727 60.2099 141.327 60.2099C140.527 60.2099 139.727 59.8099 139.027 60.4099C139.627 62.2099 140.227 63.9099 140.627 65.6099C141.227 68.2099 141.727 70.8099 142.227 73.4099C142.627 75.2099 142.527 77.0099 141.627 78.7099C140.227 81.3099 138.827 84.0099 137.327 86.5099C136.527 88.0099 135.727 89.4099 135.227 91.0099C135.527 91.1099 135.727 91.1099 135.927 91.2099C136.527 91.4099 136.927 91.6099 137.027 91.8099C135.527 94.0099 133.727 96.1099 131.827 97.9099C128.527 101.11 124.027 103.81 122.827 108.21C122.327 108.51 121.927 108.71 121.427 108.91C121.427 109.71 121.627 110.31 122.527 110.21C122.527 110.31 122.527 110.51 122.527 110.61C122.527 110.81 122.527 111.11 122.527 111.31C122.527 112.41 122.727 113.51 123.027 114.61V114.71C124.027 118.11 125.927 121.71 127.127 125.11C127.427 126.21 127.727 127.31 127.927 128.31C128.327 130.61 128.927 132.91 129.527 135.11C131.127 140.71 134.627 146.11 135.627 151.91C136.427 156.91 136.727 162.21 136.827 167.31C136.827 168.61 137.627 177.81 137.127 179.01C137.027 179.21 136.927 179.41 136.727 179.61C135.927 180.61 134.027 181.41 132.827 181.91C122.827 186.61 115.027 188.31 104.827 190.51C98.6272 191.81 89.8272 192.71 83.4272 192.71C64.4272 192.81 54.7272 191.31 35.0272 186.71C30.7272 185.71 23.4272 182.41 21.9272 180.71C19.8272 178.31 23.0272 164.81 22.4272 161.51C22.1272 159.91 20.4272 162.11 20.6272 160.61C21.0272 157.31 23.2272 154.71 24.1272 151.61C24.5272 150.31 24.8272 149.11 25.1272 147.81C25.4272 146.31 25.7272 144.81 25.9272 143.31C27.3272 133.71 26.4272 123.91 25.4272 114.21C24.9272 108.81 24.3272 103.31 23.8272 97.9099C23.7272 96.8099 23.6272 95.6099 22.8272 94.9099C21.4272 93.7099 19.2272 94.5099 17.9272 95.8099C16.6272 97.1099 15.6272 98.8099 14.0272 99.6099C12.6272 100.31 11.5272 101.11 10.1272 100.41C9.12717 99.9099 9.42717 98.1099 8.72717 97.2099C7.22717 95.0099 6.42717 97.7099 4.52717 89.6099C3.52717 85.3099 1.82717 80.8099 1.12717 76.5099C0.32717 71.2099 0.82717 65.9099 2.02717 60.7099Z" fill="white"/>
<path d="M101.727 40.0096C104.127 49.0096 109.727 57.4096 109.627 66.7096C109.627 71.3096 108.127 75.9096 106.627 80.3096C105.227 84.8096 103.727 89.3096 103.827 94.0096C103.927 98.7096 105.727 103.61 109.627 106.21C112.327 108.01 115.727 108.51 118.927 108.11C119.427 109.51 118.027 110.91 116.627 111.41C113.527 112.61 109.927 111.91 107.127 110.21C104.327 108.51 102.227 105.81 100.527 103.01C97.8267 98.5096 96.0267 93.2096 96.4267 87.9096C96.7267 84.1096 98.0267 80.5096 99.1267 76.8096C103.227 63.1096 103.727 48.3096 100.727 34.3096L101.727 40.0096Z" fill="#BCBBBA"/>
<path d="M52.7281 103.51C55.1281 104.61 57.1281 104.71 59.6281 105.11C62.6281 105.61 68.3281 104.31 69.0281 107.41C70.7281 115.21 58.4281 127.51 53.0281 121.31C51.9281 120.01 50.2281 114.11 48.9281 112.91C46.5281 110.91 42.9281 110.71 40.4281 108.81C39.4281 108.11 38.5281 106.81 38.8281 105.61C39.1281 104.51 40.2281 103.81 41.3281 103.21C43.1281 102.21 45.0281 101.21 47.0281 101.31C49.1281 101.41 50.9281 102.71 52.7281 103.51Z" fill="#BCBBBA"/>
<path d="M20.8295 77.9098C21.0295 69.9098 20.3295 61.5098 22.1295 53.6098C23.8295 46.3098 27.8295 39.6098 31.3295 33.0098C31.6295 40.2098 27.4295 46.2098 25.4295 53.2098C23.7295 59.3098 24.0295 66.5098 25.0295 72.8098C25.9295 78.5098 25.1295 80.5098 24.5295 86.2098C24.3295 88.3098 24.9295 94.4098 24.9295 94.4098C23.3295 94.5098 21.9295 93.3098 21.3295 91.9098C19.6295 88.0098 20.6295 82.0098 20.8295 77.9098Z" fill="#BCBBBA"/>
<path d="M25.5281 147.91C25.8281 146.41 26.1281 144.91 26.3281 143.41C28.0281 143.71 29.5281 144.41 31.1281 145.01C36.6281 147.11 42.7281 148.31 48.6281 147.41C51.1281 147.01 53.6281 146.21 56.1281 146.01C59.8281 145.61 63.6281 146.61 67.3281 147.01C77.3281 148.21 87.4281 145.91 96.9281 142.61C104.228 140.11 111.528 136.91 117.828 132.31C120.428 130.31 123.028 126.51 126.028 125.31C126.428 125.11 126.928 125.01 127.328 125.01C127.628 126.11 127.928 127.21 128.128 128.21C128.528 130.51 129.128 132.81 129.728 135.01C129.228 135.41 128.728 135.71 128.228 136.01C125.728 137.41 122.928 138.01 120.328 138.91C115.228 140.71 110.728 144.11 105.828 146.41C92.4281 152.61 76.7281 150.31 62.0281 152.01C57.7281 152.51 53.4281 153.31 49.1281 153.61C44.4281 153.91 39.8281 153.51 35.2281 153.11C32.1281 152.81 29.0281 152.61 25.9281 152.01C25.4281 151.91 24.8281 151.81 24.3281 151.61C24.7281 150.31 25.0281 149.01 25.5281 147.91Z" fill="#BCBBBA"/>
<path d="M77.9265 110.81C76.2265 108.71 70.5265 117.31 69.3265 118.21C67.1265 119.91 64.4265 120.91 63.1265 123.31C62.6265 124.11 62.4265 125.01 62.2265 125.91C61.7265 128.11 61.1265 130.21 60.6265 132.41C60.6265 132.61 60.5265 132.81 60.6265 133.01C60.7265 133.11 60.8265 133.21 61.0265 133.31C63.3265 134.21 66.1265 132.91 67.7265 131.01C69.3265 129.11 70.2265 126.61 71.1265 124.31C71.9265 122.51 78.6265 111.61 77.9265 110.81Z" fill="#BCBBBA"/>
<path d="M76.1278 160.91C76.2278 162.21 76.3278 163.81 75.3278 164.61C74.5278 165.31 73.3278 165.11 72.2278 165.01C71.6278 164.91 70.9278 164.81 70.5278 164.31C70.1278 163.71 70.3278 162.91 70.5278 162.21C70.8278 161.21 71.2278 160.21 71.6278 159.31C71.7278 159.01 71.9278 158.71 72.1278 158.51C72.6278 157.91 73.5278 157.91 74.3278 157.91C74.8278 157.91 75.3278 157.91 75.7278 158.11C76.2278 158.31 76.4278 158.91 76.2278 159.31" fill="#BCBBBA"/>
<path d="M124.827 125.809L121.727 130.009L115.927 133.609L103.427 139.309L83.7273 145.409L70.3273 146.209H56.5273L57.6273 142.909L60.6273 133.709H63.3273L84.6273 131.809L97.8273 126.709L115.327 117.909L124.027 116.109L126.527 121.209L125.527 124.809L124.827 125.809Z" fill="#F15748"/>
<path d="M35.6273 133.11L37.1273 139.31L42.0273 147.51L30.2273 145.41L26.5273 140.21L26.7273 130.01L34.0273 131.11L35.6273 133.11Z" fill="#F15748"/>
<path d="M35.2266 137.31C34.9266 135.61 34.5266 133.91 34.2266 131.91C32.1266 131.31 30.1266 130.81 28.2266 130.31C28.0266 130.61 27.8266 130.71 27.8266 130.81C27.6266 133.61 27.2266 136.41 27.3266 139.21C27.4266 141.51 29.1266 144.31 32.2266 144.51C33.7266 144.61 35.1266 145.11 36.7266 145.51C36.1266 146.51 35.4266 146.61 34.6266 146.51C33.6266 146.41 32.6266 146.21 31.6266 146.01C28.0266 145.41 25.4266 142.61 25.4266 138.91C25.4266 136.51 25.5266 134.11 25.9266 131.81C26.4266 129.41 26.3266 127.21 25.8266 124.91C25.2266 121.91 24.9266 118.91 25.0266 115.91C25.0266 114.51 24.8266 113.31 23.2266 112.81C23.2266 112.11 23.2266 111.41 23.2266 110.81C23.4266 106.11 23.5266 101.51 23.7266 96.9096C23.7266 96.0096 23.7266 95.0096 23.7266 94.1096C23.7266 93.5096 24.0266 93.0096 24.7266 93.1096C25.4266 94.4096 26.3266 95.7096 26.8266 97.1096C27.5266 99.3096 29.1266 100.71 30.9266 101.91C32.5266 103.01 34.2266 103.41 36.2266 103.01C39.9266 102.31 43.3266 100.81 46.3266 98.4096C46.9266 97.9096 47.4266 97.3096 48.0266 96.6096C46.9266 96.1096 45.9266 95.8096 45.1266 95.2096C44.2266 94.6096 43.5266 93.8096 42.7266 93.0096C41.9266 92.1096 41.0266 91.2096 40.2266 90.3096C38.1266 87.8096 35.9266 85.4096 35.2266 82.1096C34.8266 80.1096 34.6266 78.2096 35.9266 76.5096C37.1266 74.9096 38.7266 74.0096 40.6266 73.5096C42.0266 73.1096 43.4266 73.6096 44.8266 73.6096C46.5266 73.6096 48.2266 73.3096 49.8266 73.5096C51.4266 73.7096 53.0266 74.4096 54.6266 74.8096C55.0266 74.9096 55.5266 75.0096 55.8266 75.2096C57.7266 76.6096 60.0266 77.6096 60.8266 80.1096C59.1266 85.5096 58.5266 86.6096 54.6266 91.3096C53.4266 92.7096 52.3266 94.3096 51.2266 95.7096C53.6266 99.9096 56.9266 102.51 61.6266 103.31C67.5266 104.31 73.1266 103.61 78.6266 101.51C80.2266 100.91 84.3266 96.5096 85.9266 96.7096C86.0266 98.3096 82.9266 104.01 82.1266 105.11C81.7266 105.71 81.2266 106.11 80.9266 106.71C79.1266 109.61 76.9266 112.21 74.5266 114.61C72.5266 116.61 70.4266 118.51 68.8266 120.81C67.7266 122.31 66.6266 123.11 64.9266 123.51C63.2266 123.91 63.1266 124.11 62.8266 125.81C62.0266 130.61 61.1266 135.31 60.3266 140.11C59.9266 142.31 58.8266 144.01 57.3266 145.51C56.3266 146.41 55.2266 147.21 54.1266 148.11C52.5266 149.41 50.6266 149.71 48.6266 149.91C46.4266 150.11 44.5266 149.21 42.6266 148.71C41.9266 147.81 41.3266 147.11 40.6266 146.31C38.4266 143.81 36.1266 141.31 35.5266 137.91C35.5266 137.71 35.3266 137.51 35.2266 137.31C35.2266 137.31 35.3266 137.41 35.2266 137.31ZM40.7266 103.81C40.4266 103.91 40.1266 104.21 40.0266 104.51C38.8266 107.81 37.4266 111.01 36.4266 114.41C35.6266 117.11 35.2266 119.81 34.8266 122.51C34.6266 123.91 34.8266 125.41 35.0266 126.81C35.2266 128.51 35.7266 130.21 35.8266 131.91C36.0266 134.21 36.7266 136.31 37.4266 138.41C38.4266 141.51 40.2266 144.01 42.6266 146.01C43.9266 147.11 45.5266 147.91 47.4266 147.31C48.2266 147.01 49.1266 147.01 49.9266 146.81C51.1266 146.51 52.1266 145.81 52.9266 144.81C50.9266 142.61 48.9266 140.41 47.0266 138.21C47.1266 138.01 47.2266 137.91 47.3266 137.81C49.8266 139.61 52.4266 141.31 55.1266 143.31C55.9266 141.91 56.7266 140.81 57.1266 139.51C57.7266 137.81 58.1266 135.91 58.5266 134.11C58.8266 132.51 59.0266 131.01 59.3266 129.41C59.7266 127.11 60.1266 124.71 60.5266 122.41C60.6266 121.71 60.4266 121.31 60.0266 120.81C58.9266 119.51 57.8266 118.31 56.3266 116.71C58.5266 117.51 59.3266 119.21 60.9266 120.11C61.2266 119.71 61.5266 119.31 61.5266 119.01C61.5266 118.61 61.3266 118.21 61.0266 117.91C59.9266 116.91 58.7266 115.91 57.6266 114.91C57.3266 114.61 57.0266 114.21 56.8266 113.71C58.9266 114.41 60.1266 116.31 62.1266 117.31C63.6266 114.71 65.0266 112.11 66.5266 109.51C66.2266 108.71 65.8266 107.71 65.3266 106.61C64.3266 106.51 63.0266 106.31 61.7266 106.11C60.9266 105.91 60.0266 105.91 59.2266 105.61C57.6266 105.01 56.1266 105.91 54.5266 105.61C53.9266 107.11 52.9266 106.21 51.9266 106.01C50.8266 107.71 50.6266 109.71 50.2266 111.71C49.8266 113.81 49.4266 115.81 49.2266 117.91C49.0266 120.01 49.0266 122.01 49.3266 124.01C49.6266 125.91 50.3266 127.81 50.4266 129.91C50.1266 129.61 49.6266 129.41 49.5266 129.11C48.9266 127.51 48.0266 126.01 47.7266 124.31C46.9266 120.01 47.4266 115.71 48.4266 111.41C48.8266 109.71 49.2266 108.01 49.6266 106.31C48.1266 105.41 46.7266 105.31 45.2266 105.81C45.2266 104.21 45.2266 104.21 46.5266 103.51C45.9266 103.01 45.3266 102.51 44.6266 102.01C43.3266 102.71 42.1266 103.21 40.7266 103.81ZM26.2266 113.11C26.1266 114.91 26.1266 116.81 26.2266 118.71C26.3266 120.01 26.3266 121.41 26.7266 122.61C27.1266 123.91 27.2266 125.21 27.2266 126.61C27.2266 127.21 27.2266 127.91 27.2266 128.51C29.6266 129.61 32.0266 130.21 33.8266 129.91C33.7266 129.31 33.7266 128.71 33.6266 128.11C32.9266 125.01 32.9266 121.81 32.9266 118.61C32.9266 118.11 32.9266 117.61 33.0266 117.11C34.1266 113.71 32.6266 110.71 31.5266 107.71C31.3266 107.01 30.9266 106.41 30.7266 105.71C30.4266 104.31 29.7266 103.31 28.4266 102.51C27.5266 102.01 27.0266 100.81 26.4266 99.8096C26.0266 99.1096 25.7266 98.4096 25.0266 97.8096C25.0266 99.9096 25.0266 102.11 24.9266 104.21C24.9266 106.31 24.7266 108.51 24.5266 110.91C25.9266 111.11 26.2266 112.01 26.2266 113.11ZM49.8266 94.1096C49.1266 94.3096 48.7266 94.4096 48.0266 94.6096C49.0266 95.1096 49.3266 94.9096 49.8266 94.1096ZM33.5266 105.51C33.3266 105.51 33.1266 105.51 33.1266 105.51C33.1266 105.81 33.1266 106.11 33.1266 106.41C33.3266 106.41 33.4266 106.41 33.5266 106.41C33.5266 106.11 33.5266 105.81 33.5266 105.51ZM66.0266 119.11C66.0266 119.11 66.3266 119.11 66.4266 119.11C66.3266 118.71 66.3266 118.41 66.3266 118.01C66.2266 118.01 66.1266 118.01 66.0266 118.01C66.0266 118.31 66.0266 118.61 66.0266 119.11Z" fill="black"/>
<path d="M36.8281 27.2098C36.9281 27.3098 37.0281 27.4098 37.1281 27.5098C38.0281 28.2098 38.8281 28.1098 39.6281 28.0098C42.0281 27.6098 44.4281 27.3098 46.8281 26.6098C50.3281 25.6098 53.9281 25.6098 57.5281 25.5098C59.6281 25.4098 61.7281 25.5098 63.8281 25.6098C65.0281 25.6098 66.2281 25.8098 67.2281 26.2098C68.6281 26.7098 69.9281 26.9098 71.4281 26.9098C74.1281 26.9098 76.8281 26.6098 79.4281 26.9098C83.8281 27.4098 88.1281 28.3098 92.4281 29.2098C94.4281 29.7098 96.4281 30.5098 98.1281 31.8098C98.4281 32.1098 98.8281 32.3098 99.2281 32.4098C100.128 32.7098 100.528 33.2098 100.328 34.2098C100.228 34.6098 100.528 35.2098 100.728 35.6098C101.028 36.1098 101.228 36.5098 101.428 37.0098C101.428 37.1098 101.528 37.1098 101.528 37.2098C104.128 42.6098 105.828 48.3098 107.228 54.1098C107.428 54.8098 107.528 55.4098 107.728 56.1098C108.328 58.3098 108.828 60.4098 109.428 62.6098C109.628 63.3098 109.528 63.8098 109.228 64.4098C108.428 66.0098 107.928 67.8098 107.428 69.5098C106.328 73.1098 105.328 76.8098 104.428 80.4098C103.828 82.8098 103.428 85.2098 102.828 87.6098C102.328 89.5098 101.728 91.3098 101.628 93.3098C101.428 98.0098 102.328 102.31 105.428 106.01C105.828 106.51 106.328 107.01 106.628 107.51C107.428 108.81 108.428 109.71 110.128 109.51C110.628 109.51 111.128 109.71 111.628 109.91C113.828 110.61 115.928 110.31 117.928 109.31C118.328 109.11 118.828 108.91 119.228 108.71C119.428 108.61 119.728 108.51 119.928 108.41C121.428 110.41 121.228 112.61 121.628 114.91C119.228 116.01 116.528 116.31 114.028 117.01C109.528 119.61 104.828 121.81 100.128 124.01C97.0281 125.41 93.9281 127.11 90.8281 128.61C89.7281 129.21 88.5281 129.51 87.4281 130.01C86.1281 130.61 84.9281 130.31 83.9281 129.51C82.7281 128.71 81.6281 127.71 80.5281 126.81C79.8281 126.31 79.3281 125.61 78.0281 125.51C79.3281 127.81 81.6281 128.81 83.4281 130.61C82.8281 130.81 82.4281 131.01 82.0281 131.11C78.8281 131.61 75.6281 131.81 72.3281 131.81C70.1281 131.81 67.9281 132.01 65.8281 132.21C63.9281 132.41 63.2281 133.31 63.4281 135.11C63.5281 136.91 63.8281 138.71 64.0281 140.51C64.1281 140.91 64.4281 141.31 64.7281 141.71C65.3281 139.11 64.2281 136.51 64.7281 133.81C65.6281 133.71 66.2281 133.91 66.0281 134.91C65.6281 136.61 66.0281 138.31 66.2281 139.91C66.3281 140.31 66.6281 140.61 67.1281 140.91C67.1281 140.21 67.0281 139.51 67.0281 138.81C67.0281 138.01 66.9281 137.21 67.0281 136.41C67.3281 134.31 67.4281 134.31 69.5281 134.41C69.9281 134.51 70.3281 134.31 70.7281 134.21C72.1281 134.01 72.6281 134.31 72.7281 135.71C72.9281 138.61 72.4281 141.51 71.7281 144.31C71.5281 145.11 71.0281 145.51 70.1281 145.41C69.1281 145.31 68.1281 145.11 67.1281 145.01C66.8281 145.01 66.6281 144.91 66.3281 144.91C65.2281 145.11 64.1281 145.21 63.1281 145.41C62.7281 145.41 62.4281 145.61 61.9281 145.91C62.3281 146.21 62.6281 146.61 62.9281 146.71C63.2281 146.81 63.6281 146.71 64.0281 146.71C65.6281 146.51 66.5281 147.31 67.1281 148.81C67.7281 150.21 68.4281 151.61 68.4281 153.21C68.0281 153.41 67.6281 153.61 67.2281 153.71C65.2281 154.51 63.6281 155.71 62.1281 157.01C60.5281 158.41 60.0281 160.21 60.2281 162.11C60.5281 165.81 62.5281 168.51 65.8281 170.01C67.6281 170.81 69.7281 170.51 71.7281 169.81C74.3281 168.91 76.5281 167.61 77.5281 164.81C78.9281 160.71 76.7281 156.41 74.2281 154.51C73.3281 153.91 72.1281 153.61 71.0281 153.11C71.1281 151.21 71.7281 149.41 72.3281 147.71C74.2281 147.61 76.0281 147.61 77.8281 147.31C80.4281 146.91 82.9281 146.41 85.4281 145.71C92.1281 143.71 98.7281 141.61 105.328 139.51C110.328 137.81 115.228 135.61 120.028 133.21C122.228 132.11 123.828 130.41 125.228 128.41C125.528 128.01 125.828 127.61 126.328 126.91C126.528 128.01 126.628 128.81 126.828 129.61C127.528 131.51 128.028 133.51 128.928 135.31C130.628 138.71 131.428 142.41 132.728 145.91C133.728 148.81 134.528 151.71 135.428 154.61C135.628 155.51 136.028 156.31 135.328 157.31C135.028 157.81 135.128 158.71 135.228 159.41C136.328 165.41 136.828 171.51 136.728 177.71C136.728 178.21 136.628 178.71 136.728 179.21C136.728 179.21 136.728 179.31 136.828 179.41C136.928 179.61 137.128 179.71 137.228 179.71C137.428 179.71 137.828 179.51 137.928 179.31C138.128 178.91 138.128 178.41 138.128 178.01C138.128 172.71 138.028 167.41 137.228 162.21C137.128 161.11 137.828 160.71 138.328 160.21C138.328 159.11 138.428 158.21 138.328 157.31C138.328 156.61 138.128 155.91 137.928 155.21C136.428 150.41 134.928 145.61 133.328 140.81C132.628 138.71 131.528 136.71 130.728 134.61C129.328 131.01 128.028 127.31 127.528 123.41C127.228 120.81 126.028 118.41 124.828 116.11C124.528 115.41 123.728 114.91 123.128 114.41L123.028 114.31H123.128C124.228 113.91 124.328 113.81 123.728 112.91C123.328 112.31 122.728 111.71 122.628 111.01C122.628 110.81 122.628 110.61 122.628 110.31C122.628 110.21 122.628 110.01 122.828 109.91H122.728C121.828 110.01 121.628 109.51 121.628 108.61C122.028 108.31 122.528 108.11 123.028 107.91C123.228 107.81 123.428 107.71 123.628 107.61C123.328 108.51 123.128 109.11 122.928 109.71C123.128 109.51 123.428 109.31 123.528 109.11C124.728 106.91 126.728 105.51 128.428 103.71C130.628 101.41 132.828 98.9098 134.828 96.4098C135.628 95.3098 136.228 93.9098 136.828 92.6098C137.128 92.0098 137.328 91.6098 137.128 91.4098C137.028 91.1098 136.628 91.0098 136.028 90.8098C135.828 90.7098 135.628 90.7098 135.328 90.6098C135.728 89.0098 136.628 87.6098 137.328 86.1098C138.828 83.5098 140.228 80.9098 141.628 78.3098C142.528 76.6098 142.528 74.8098 142.228 73.0098C141.728 70.4098 141.228 67.8098 140.628 65.2098C140.228 63.5098 139.628 61.8098 139.028 60.0098C139.828 59.4098 140.528 59.8098 141.328 59.8098C141.728 59.8098 142.228 59.7098 142.428 59.5098C142.628 59.3098 142.528 58.7098 142.328 58.4098C139.728 54.6098 136.928 50.8098 133.228 47.8098C131.228 46.2098 129.228 44.5098 127.228 42.8098C127.028 42.7098 126.928 42.4098 126.728 42.2098C127.228 41.9098 127.628 41.9098 128.028 41.9098C128.928 42.0098 129.728 42.5098 130.828 42.2098C130.328 41.7098 130.028 41.4098 129.628 41.1098C128.828 40.6098 127.828 40.2098 127.628 39.0098C127.628 38.7098 127.128 38.5098 126.928 38.2098C123.628 36.8098 120.328 35.3098 117.028 33.9098C116.828 33.8098 116.528 33.7098 116.228 33.7098C113.828 34.0098 111.528 33.0098 109.228 32.7098C108.028 32.5098 106.928 32.2098 105.728 32.1098C105.628 32.1098 105.628 32.1098 105.628 32.1098C105.428 32.1098 105.328 32.1098 105.128 32.1098C103.928 32.0098 102.728 32.2098 101.728 33.5098C102.528 33.6098 102.928 33.8098 103.428 33.7098C105.428 33.4098 107.328 33.6098 109.228 34.1098C113.028 35.0098 116.728 35.8098 120.428 36.8098C120.628 36.9098 120.728 36.9098 120.928 37.0098C121.228 37.1098 121.628 37.2098 121.928 37.4098C122.028 37.5098 122.228 37.5098 122.328 37.6098C123.228 38.1098 124.028 38.7098 124.728 39.4098C124.228 39.9098 123.828 40.4098 123.428 40.9098C124.328 42.5098 129.828 48.0098 133.628 50.9098V50.2098C134.428 50.6098 134.928 51.1098 135.228 51.8098C135.228 51.9098 134.928 52.1098 134.828 52.2098C136.528 53.9098 138.228 55.6098 140.228 57.7098C138.928 57.8098 138.028 57.9098 137.128 58.0098C136.628 58.9098 136.628 59.7098 137.128 60.5098C138.328 62.6098 138.928 64.9098 139.528 67.2098C140.028 68.9098 140.528 70.7098 140.928 72.4098C141.528 75.0098 141.328 77.5098 139.428 79.6098C139.028 80.6098 138.628 81.7098 138.028 82.7098C136.628 85.0098 135.228 87.3098 133.928 89.5098C132.828 91.2098 132.828 91.6098 134.228 93.5098C132.228 96.2098 130.628 99.1098 127.628 101.01C125.628 102.31 123.928 103.91 121.928 105.31C121.128 105.91 120.228 106.31 119.228 106.51C117.428 106.91 115.728 107.21 113.928 107.61C113.628 107.61 113.428 107.71 113.128 107.71C110.728 108.01 108.728 107.41 107.228 105.21C104.928 101.91 103.528 98.3098 103.728 94.3098C103.828 93.5098 103.928 92.8098 104.028 92.1098C104.428 90.5098 105.028 88.8098 105.528 87.2098C106.828 83.3098 108.428 79.5098 109.628 75.6098C110.328 73.5098 110.628 71.2098 110.928 69.0098C111.028 68.3098 111.028 67.6098 111.628 67.1098C112.328 66.4098 112.328 65.7098 112.028 64.9098C111.628 64.0098 111.528 63.0098 111.328 61.8098C113.428 62.1098 114.628 64.2098 116.928 63.9098C116.628 63.5098 116.528 63.2098 116.228 63.0098C115.228 62.4098 114.228 61.7098 113.128 61.4098C111.628 61.0098 110.828 60.1098 110.528 58.6098C109.728 55.1098 108.728 51.6098 107.828 48.1098C107.528 47.2098 107.128 46.2098 106.728 45.3098C106.028 43.7098 105.328 42.0098 104.728 40.3098C103.928 38.2098 103.128 36.2098 101.628 34.6098C101.428 34.4098 101.128 34.1098 101.128 33.9098C101.028 32.1098 99.6281 31.3098 98.4281 30.5098C98.3281 30.5098 98.3281 30.5098 98.3281 30.5098C96.0281 28.9098 93.4281 27.8098 90.6281 27.3098C86.5281 26.6098 82.5281 25.9098 78.5281 25.2098C77.8281 25.1098 77.1281 25.2098 76.4281 25.2098C74.2281 25.4098 72.0281 25.6098 69.9281 25.3098C68.6281 25.1098 67.3281 24.8098 66.1281 24.2098C65.8281 24.0098 65.3281 24.0098 65.0281 24.0098C60.1281 24.1098 55.1281 24.1098 50.1281 24.4098C48.1281 24.5098 46.2281 25.2098 44.2281 25.6098C42.6281 25.9098 41.0281 26.2098 39.5281 26.6098C38.6281 26.9098 37.7281 27.2098 36.8281 27.2098ZM70.5281 148.11C70.2281 149.01 70.0281 149.61 69.6281 150.71C69.0281 149.51 68.7281 148.71 68.3281 147.91C68.4281 147.81 68.5281 147.61 68.6281 147.51C69.2281 147.61 69.7281 147.81 70.5281 148.11ZM74.8281 162.71C73.9281 162.01 73.1281 161.41 72.3281 160.91C71.4281 160.41 70.7281 159.61 69.5281 160.01C71.3281 161.11 73.1281 162.41 74.5281 164.11C74.2281 164.51 74.0281 164.91 73.7281 165.31C72.9281 164.61 72.3281 164.01 71.6281 163.51C71.0281 163.01 70.3281 162.61 69.6281 162.11C69.5281 162.31 69.4281 162.41 69.3281 162.51C70.5281 163.71 71.8281 164.91 73.2281 166.21C71.5281 167.21 69.9281 167.91 68.6281 168.01C65.9281 168.31 63.1281 166.71 61.9281 164.21C60.8281 162.01 61.3281 159.51 63.3281 158.01C65.1281 156.51 67.1281 155.51 69.6281 155.61C72.9281 155.71 75.5281 159.01 74.8281 162.71ZM121.528 117.21C122.228 116.91 122.828 116.61 123.228 117.51C123.528 118.31 124.028 119.11 124.228 119.91C125.028 122.61 124.528 125.11 122.528 127.61C121.628 124.11 121.828 120.81 121.528 117.21ZM121.428 128.71C121.428 128.81 121.128 129.01 120.828 129.21C119.528 125.91 119.828 122.41 118.928 119.11C118.728 119.21 118.528 119.21 118.328 119.21C118.428 120.01 118.428 120.71 118.528 121.51C118.928 123.81 119.328 126.01 119.728 128.31C119.928 129.61 119.628 130.61 118.428 131.21C117.228 131.81 116.028 132.41 114.728 133.01C108.928 135.51 103.128 138.11 96.8281 139.41C95.1281 139.81 93.5281 140.31 91.8281 140.81C89.4281 141.51 87.0281 142.21 84.6281 143.01C82.2281 143.81 79.7281 144.11 77.4281 145.31C76.1281 145.91 74.6281 145.91 73.1281 145.31C73.5281 141.71 74.9281 138.11 73.9281 134.41C74.4281 134.21 74.8281 134.01 75.1281 134.01C76.6281 133.81 78.2281 133.71 79.8281 133.51C84.7281 132.91 89.5281 131.91 93.8281 129.31C95.6281 128.31 97.4281 127.41 99.2281 126.51C103.428 124.41 107.728 122.31 111.928 120.31C113.428 119.61 114.828 118.91 116.328 118.41C117.728 117.91 119.128 117.61 120.728 117.81C121.028 121.61 121.228 125.11 121.428 128.71Z" fill="black"/>
<path d="M31.328 33.9095C30.528 34.8095 30.028 35.9095 29.528 36.9095C28.928 38.1095 28.628 39.3095 28.028 40.5095C26.328 43.9095 26.228 44.9095 25.728 45.9095C25.528 46.9095 22.128 53.6095 21.928 54.6095C20.728 61.6095 21.628 68.5095 21.928 75.6095C22.028 77.4095 22.228 79.1095 22.828 80.7095C23.028 81.2095 23.028 81.7095 23.028 82.2095C23.028 83.5095 22.928 84.7095 22.828 85.9095C22.628 87.3095 22.528 88.7095 22.228 90.0095C21.228 94.7095 18.028 97.6095 14.228 100.109C13.528 100.509 12.628 100.909 11.828 101.109C10.028 101.609 9.328 101.209 8.928 99.4095C8.828 99.0095 8.728 98.6095 8.628 98.1095C7.928 98.0095 7.228 97.8095 6.328 97.7095C6.028 96.5095 5.628 95.3095 5.428 94.0095C5.028 90.8095 4.128 87.8095 2.728 84.9095C2.328 84.1095 2.028 83.3095 1.728 82.5095C1.328 81.2095 0.828 79.9095 0.428 78.6095C0.228 77.6095 0.028 76.6095 0.028 75.6095C-0.072 74.2095 0.128 72.9095 0.128 71.5095C0.128 70.1095 0.128 68.6095 0.228 67.2095C0.328 65.8095 0.528 64.4095 0.728 63.1095C1.228 60.7095 1.628 58.3095 2.928 56.1095C3.528 55.0095 4.028 53.9095 4.628 52.7095C3.728 52.3095 2.528 52.4095 2.428 51.0095C3.428 50.1095 4.628 49.1095 5.728 48.1095C9.728 44.4095 13.828 40.7095 17.828 37.0095C18.128 36.7095 18.428 36.4095 18.728 36.1095C21.428 33.1095 24.728 31.1095 28.128 29.2095C29.028 28.7095 30.028 28.5095 31.028 28.4095C32.028 28.3095 33.028 28.6095 33.528 29.8095C33.028 29.8095 32.528 29.8095 31.828 29.8095C32.528 31.5095 32.228 32.8095 31.328 33.9095ZM5.928 52.8095C5.528 53.6095 5.228 54.4095 4.728 55.1095C2.728 58.3095 1.928 61.8095 1.728 65.6095C1.628 67.9095 2.328 70.2095 1.428 72.4095C1.128 72.9095 1.328 73.7095 1.428 74.3095C1.928 76.9095 2.428 79.5095 3.028 82.1095C3.128 82.7095 3.328 83.3095 3.628 83.9095C5.128 87.0095 6.228 90.2095 6.528 93.6095C6.628 93.8095 6.628 94.1095 6.728 94.4095C7.128 95.8095 7.328 95.9095 8.828 96.0095C9.028 96.0095 9.328 96.1095 9.828 96.1095C9.928 96.9095 9.928 97.6095 10.028 98.4095C10.128 99.7095 10.728 100.009 11.928 99.6095C12.728 99.4095 13.428 99.0095 14.028 98.5095C15.428 97.3095 16.928 96.0095 18.128 94.6095C20.028 92.4095 20.528 89.6095 20.828 86.8095C21.028 85.2095 21.028 83.6095 21.128 82.0095C21.128 81.4095 21.128 80.8095 20.928 80.3095C20.228 78.6095 20.028 76.8095 20.128 75.0095C20.128 74.7095 20.028 74.5095 20.028 74.1095C17.628 72.7095 15.328 71.3095 13.028 69.9095C13.028 69.9095 13.128 69.8095 13.128 69.5095C15.428 69.7095 17.028 71.5095 19.128 72.1095C19.228 71.8095 19.428 71.7095 19.428 71.5095C19.628 68.5095 19.528 65.4095 19.928 62.4095C20.528 57.7095 21.428 53.1095 22.228 48.5095C22.828 44.9095 24.528 41.7095 26.028 38.4095C27.228 35.7095 28.728 33.1095 30.128 30.2095C29.528 30.3095 29.128 30.4095 28.728 30.6095C25.428 32.4095 22.328 34.5095 19.628 37.2095C16.628 40.1095 13.328 42.7095 10.228 45.5095C8.828 46.9095 7.528 48.5095 5.928 50.2095C6.728 51.0095 6.628 51.9095 5.928 52.8095Z" fill="black"/>
<path d="M85.1264 60.3099C84.7264 61.8099 83.8264 62.9099 82.4264 63.5099C81.9264 63.7099 81.5264 64.1099 81.1264 64.3099C79.7264 65.1099 77.9264 65.0099 76.7264 63.9099C75.2264 62.5099 74.3264 60.7099 74.8264 58.5099C75.3264 56.2099 77.1264 55.1099 79.2264 54.5099C80.0264 54.2099 81.2264 54.1099 81.9264 54.5099C84.1264 55.6099 86.2264 57.0099 88.4264 58.3099C88.5264 58.4099 88.6264 58.5099 88.7264 58.6099C89.1264 59.0099 89.5264 59.5099 89.1264 60.1099C88.7264 60.8099 88.1264 60.5099 87.6264 60.2099C87.0264 59.8099 86.4264 59.4099 85.6264 58.9099C85.3264 59.6099 85.2264 60.0099 85.1264 60.3099Z" fill="black"/>
<path d="M29.5289 56.1103C30.5289 55.3103 31.5289 54.6103 32.4289 53.8103C34.6289 51.7103 37.3289 51.1103 40.2289 51.4103C40.6289 51.4103 41.1289 51.8103 41.4289 52.1103C43.4289 54.3103 42.7289 57.8103 41.4289 59.3103C40.7289 60.1103 39.5289 60.5103 38.5289 61.0103C37.6289 61.4103 37.0289 60.7103 36.3289 60.4103C34.8289 59.7103 33.4289 58.8103 33.0289 57.0103C32.9289 56.8103 32.6289 56.6103 32.3289 56.3103C31.2289 57.1103 30.2289 57.8103 29.1289 58.6103C28.8289 58.2103 28.5289 57.8103 28.1289 57.3103C28.7289 56.8103 29.1289 56.5103 29.5289 56.1103Z" fill="black"/>
<path d="M37.8273 155.01C37.2273 154.51 36.5273 154.01 35.8273 153.51C33.3273 151.71 30.8273 149.81 28.3273 148.01C27.6273 147.51 26.8273 147.21 26.0273 146.81C24.1273 150.91 22.4273 154.91 21.8273 159.41C22.8273 159.11 22.9273 157.51 24.3273 158.41C23.8273 162.11 23.0273 165.81 22.7273 169.61C22.4273 173.31 22.6273 177.21 22.6273 181.01C22.0273 181.41 21.5273 181.21 21.3273 180.51C21.2273 180.01 21.1273 179.51 21.1273 179.01C20.6273 173.51 21.1273 168.01 21.9273 162.61C21.9273 162.51 21.8273 162.31 21.8273 162.21C21.3273 162.41 20.7273 162.51 19.9273 162.71C19.9273 162.01 19.8273 161.51 19.9273 161.01C20.2273 159.51 20.5273 157.91 21.0273 156.41C22.2273 152.71 23.4273 149.11 24.6273 145.51C24.9273 144.71 24.8273 143.71 26.0273 143.91C27.1273 144.11 26.3273 145.21 26.6273 145.81C30.6273 148.61 34.8273 151.31 38.5273 154.61C38.3273 154.81 38.2273 154.91 37.8273 155.01Z" fill="black"/>
<path d="M84.7264 90.51C84.4264 90.11 84.1264 89.61 83.8264 89.21C82.3264 86.81 81.4264 84.11 79.5264 82.01C79.3264 81.81 79.5264 81.31 79.5264 80.71C81.8264 82.21 83.9264 83.61 85.9264 84.91C86.3264 84.71 86.6264 84.61 87.0264 84.41C87.4264 85.51 87.3264 86.21 86.3264 86.41C84.9264 85.71 84.1264 84.01 82.0264 83.51C82.8264 84.91 83.4264 85.91 84.0264 87.01C84.6264 88.01 85.4264 88.91 85.4264 90.21C85.2264 90.31 85.0264 90.41 84.7264 90.51Z" fill="black"/>
<path d="M39.3273 72.9098C38.6273 71.8098 38.6273 71.7098 39.2273 70.9098C39.9273 70.0098 40.7273 69.1098 41.4273 68.2098C42.7273 66.4098 43.8273 64.5098 45.1273 62.7098C45.3273 62.3098 45.8273 62.1098 46.5273 61.5098C46.2273 63.7098 41.2273 71.3098 39.3273 72.9098Z" fill="black"/>
<path d="M27.2266 149.31C27.4266 149.31 27.7266 149.31 27.8266 149.41C30.8266 151.61 33.7266 153.71 36.7266 155.91C36.8266 156.01 36.9266 156.21 37.1266 156.71C35.3266 156.11 27.9266 150.51 27.2266 149.31Z" fill="black"/>
<path d="M128.628 92.9098C126.428 91.0098 124.228 89.0098 122.028 87.1098C121.928 87.0098 121.928 86.7098 121.828 86.5098C124.028 87.3098 128.228 90.8098 129.228 92.8098C128.928 92.8098 128.728 92.9098 128.628 92.9098Z" fill="black"/>
<path d="M27.1281 152.91C29.8281 154.61 32.6281 156.31 35.5281 158.01C34.8281 158.71 34.2281 158.31 33.7281 158.01C31.5281 156.61 29.4281 155.21 27.2281 153.81C27.0281 153.71 26.9281 153.51 26.8281 153.31C26.9281 153.21 27.0281 153.01 27.1281 152.91Z" fill="black"/>
<path d="M136.03 172.21C134.13 171.41 127.63 166.81 126.93 165.41C130.03 167.51 133.13 169.71 136.23 171.81C136.23 171.91 136.13 172.01 136.03 172.21Z" fill="black"/>
<path d="M65.9266 41.8096C65.6266 42.7096 65.2266 43.4096 64.9266 44.2096C64.6266 45.0096 64.5266 45.9096 64.2266 46.9096C63.2266 46.2096 63.7266 45.4096 63.8266 44.7096C64.3266 42.2096 65.2266 40.3096 66.6266 39.3096C67.1266 40.4096 66.2266 41.0096 65.9266 41.8096Z" fill="black"/>
<path d="M126.828 94.8098C126.928 94.9098 126.828 95.3098 126.728 95.9098C124.428 94.2098 122.928 92.1098 121.328 90.0098C123.428 91.2098 125.128 93.0098 126.828 94.8098Z" fill="black"/>
<path d="M60.0273 71.6102C60.6273 70.8102 61.2273 70.1102 61.8273 69.4102C62.5273 69.9102 62.7273 70.6102 62.5273 71.3102C62.2273 72.3102 61.9273 73.1102 61.5273 74.2102C60.9273 73.3102 60.4273 72.5102 60.0273 71.6102Z" fill="black"/>
<path d="M35.3273 137.409C35.1273 137.609 35.1273 137.909 35.0273 138.309C33.9273 137.409 32.8273 136.709 31.8273 135.909C30.8273 135.209 29.6273 134.809 28.5273 133.709C29.0273 133.809 29.3273 133.709 29.4273 133.809C31.4273 135.009 33.3273 136.209 35.3273 137.409C35.3273 137.409 35.2273 137.309 35.3273 137.409Z" fill="black"/>
<path d="M134.827 71.0098C135.827 71.7098 136.727 72.5098 137.727 73.2098C138.627 73.9098 139.727 74.5098 139.827 75.9098C137.927 74.5098 135.927 73.4098 134.527 71.4098C134.627 71.3098 134.727 71.2098 134.827 71.0098Z" fill="black"/>
<path d="M127.629 169.109C130.129 169.909 133.729 172.409 134.429 173.809C133.129 173.309 129.229 170.609 127.629 169.109Z" fill="black"/>
<path d="M86.5281 128.01C86.8281 128.21 86.9281 128.61 87.1281 128.91C87.0281 129.01 86.9281 129.11 86.8281 129.21C84.6281 127.51 82.5281 125.91 80.3281 124.31C81.8281 124.51 84.7281 126.31 86.5281 128.01Z" fill="black"/>
<path d="M119.328 90.1094C121.128 91.6094 122.628 93.0094 124.128 94.4094C121.828 94.0094 119.928 92.2094 119.328 90.1094Z" fill="black"/>
<path d="M58.5264 45.1096C57.8264 42.8096 57.6264 40.2096 58.2264 38.8096C58.9264 40.0096 59.1264 42.6096 58.5264 45.1096Z" fill="black"/>
<path d="M113.827 117.41C113.527 117.31 113.027 117.41 112.827 117.31C111.227 116.01 109.727 114.61 108.227 113.31C109.827 113.61 112.227 115.41 113.827 117.41Z" fill="black"/>
<path d="M28.8281 136.91C31.2281 137.41 33.1281 138.61 33.9281 140.21C32.0281 139.21 30.4281 138.31 28.8281 136.91Z" fill="black"/>
<path d="M126.728 156.11C124.928 155.21 123.128 154.31 121.328 153.41C123.828 153.41 126.028 154.51 126.728 156.11Z" fill="black"/>
<path d="M38.4297 167.31C40.8297 167.91 41.6297 168.71 42.1297 170.81C40.7297 169.51 39.6297 168.41 38.4297 167.31Z" fill="black"/>
<path d="M121.727 150.109C123.627 150.909 125.327 151.809 126.527 153.409C124.627 152.609 123.027 151.509 121.727 150.109Z" fill="black"/>
<path d="M115.03 59.6102C115.23 59.9102 115.23 60.3102 115.33 60.7102C113.83 60.0102 112.73 59.0102 111.43 57.4102C113.13 57.8102 114.13 58.6102 115.03 59.6102Z" fill="black"/>
<path d="M97.4297 74.4102C99.2297 74.7102 100.33 75.2102 101.23 76.4102C99.8297 76.3102 98.7297 75.8102 97.4297 74.4102Z" fill="black"/>
<path d="M107.629 114.31C109.029 115.41 110.329 116.31 110.929 117.81C109.029 116.61 108.229 115.71 107.629 114.31Z" fill="black"/>
<path d="M68.1289 124.11C69.0289 123.21 69.9289 122.21 70.8289 121.31C70.9289 121.41 71.0289 121.51 71.1289 121.61C70.2289 122.61 69.4289 123.51 68.5289 124.51C68.3289 124.31 68.2289 124.21 68.1289 124.11Z" fill="black"/>
<path d="M98.8281 71.5098C99.9281 72.0098 101.128 72.3098 101.428 73.9098C99.3281 72.8098 99.3281 72.8098 98.8281 71.5098Z" fill="black"/>
<path d="M139.427 79.6102C137.227 78.3102 137.027 78.1102 136.727 76.4102C137.927 77.5102 139.127 78.1102 139.427 79.6102Z" fill="black"/>
<path d="M52.1289 158.01C52.3289 156.01 52.3289 156.01 54.0289 155.81C53.4289 156.81 52.9289 157.41 52.1289 158.01Z" fill="black"/>
<path d="M101.227 163.41C101.627 162.81 102.027 162.11 102.427 161.51C102.527 161.31 102.927 161.31 103.227 161.21C103.227 161.31 103.327 161.41 103.427 161.51C102.927 162.21 102.327 163.01 101.727 163.71C101.527 163.61 101.327 163.51 101.227 163.41Z" fill="black"/>
<path d="M98.9289 108.91C98.2289 109.91 97.5289 110.71 96.6289 111.81C96.7289 109.71 97.4289 109.01 98.9289 108.91Z" fill="black"/>
<path d="M37.2289 171.609C38.6289 171.609 38.9289 171.809 40.1289 173.209C38.9289 172.709 38.0289 172.409 37.1289 172.009C37.1289 171.909 37.1289 171.709 37.2289 171.609Z" fill="black"/>
<path d="M97.9297 162.01C98.1297 160.71 98.7297 160.01 100.13 159.51C99.6297 160.91 99.0297 161.61 97.9297 162.01Z" fill="black"/>
<path d="M97.1297 107.51C96.9297 108.51 96.2297 108.91 95.4297 109.11C95.5297 108.21 95.9297 107.51 97.1297 107.51Z" fill="black"/>
<path d="M67.4261 97.7098C66.5261 97.4098 66.3261 97.0098 66.6261 96.0098C67.3261 96.5098 67.7261 96.9098 67.4261 97.7098Z" fill="black"/>
<path d="M29.6293 90.91C28.7293 90.61 28.5293 90.21 28.8293 89.21C29.5293 89.71 29.9293 90.11 29.6293 90.91Z" fill="black"/>
<path d="M69.9261 92.3094C69.0261 92.0094 68.8261 91.6094 69.1261 90.6094C69.9261 91.0094 70.2261 91.4094 69.9261 92.3094Z" fill="black"/>
<path d="M34.8273 89.1094C35.0273 89.1094 35.2273 89.4094 35.4273 89.5094C35.2273 89.7094 35.1273 90.0094 34.9273 90.1094C34.7273 90.1094 34.4273 89.9094 34.0273 89.7094C34.4273 89.3094 34.6273 89.1094 34.8273 89.1094Z" fill="black"/>
<path d="M32.7297 95.0094C32.6297 95.0094 32.4297 94.7094 32.4297 94.6094C32.5297 94.4094 32.7297 94.3094 32.9297 94.1094C33.0297 94.3094 33.2297 94.4094 33.4297 94.7094C33.1297 94.9094 32.9297 95.0094 32.7297 95.0094Z" fill="black"/>
<path d="M63.6281 91.8102C63.5281 91.8102 63.3281 91.5102 63.3281 91.4102C63.4281 91.2102 63.6281 91.1102 63.8281 90.9102C63.9281 91.1102 64.1281 91.2102 64.3281 91.5102C64.0281 91.7102 63.8281 91.9102 63.6281 91.8102Z" fill="black"/>
<path d="M132.128 93.3094C131.928 93.5094 131.728 93.8094 131.528 94.0094C131.528 93.9094 131.428 93.9094 131.328 93.8094C131.528 93.6094 131.728 93.3094 131.928 93.1094C132.028 93.1094 132.128 93.2094 132.128 93.3094Z" fill="black"/>
<path d="M38.8281 146.21C38.6281 146.01 38.5281 145.81 38.3281 145.61C38.4281 145.51 38.4281 145.51 38.5281 145.41C38.7281 145.61 38.9281 145.71 39.1281 145.91C39.0281 146.01 39.0281 146.11 38.8281 146.21Z" fill="black"/>
<path d="M29.0266 120.01C29.6266 120.41 30.2266 120.91 30.9266 121.41C30.7266 121.91 30.5266 122.41 30.2266 122.91C29.1266 122.31 28.1266 121.71 27.2266 121.11C27.8266 119.71 28.0266 119.61 29.0266 120.01Z" fill="black"/>
<path d="M18.7273 75.3096C18.9273 75.5096 19.0273 75.8096 19.4273 76.5096C17.0273 75.6096 15.4273 74.3096 14.0273 72.8096C15.8273 73.3096 17.3273 74.1096 18.7273 75.3096Z" fill="black"/>
<path d="M16.7273 53.1095C15.8273 53.6095 14.9273 54.1095 14.0273 54.6095C14.4273 53.2095 15.2273 52.4095 16.5273 52.6095C16.6273 52.7095 16.6273 52.9095 16.7273 53.1095Z" fill="black"/>
<path d="M17.9273 54.0098C17.3273 55.5098 16.7273 56.5098 15.0273 57.1098C15.8273 55.8098 16.4273 54.9098 17.9273 54.0098Z" fill="black"/>
<path d="M81.1281 60.6098C81.5699 60.6098 81.9281 60.2516 81.9281 59.8098C81.9281 59.3679 81.5699 59.0098 81.1281 59.0098C80.6863 59.0098 80.3281 59.3679 80.3281 59.8098C80.3281 60.2516 80.6863 60.6098 81.1281 60.6098Z" fill="white"/>
<path d="M37.8273 56.809C38.2692 56.809 38.6273 56.4508 38.6273 56.009C38.6273 55.5672 38.2692 55.209 37.8273 55.209C37.3855 55.209 37.0273 55.5672 37.0273 56.009C37.0273 56.4508 37.3855 56.809 37.8273 56.809Z" fill="white"/>
<path d="M54.6296 80.0098C55.0296 80.2098 55.6296 80.0098 55.8296 79.7098C56.1296 79.2098 55.9296 78.7098 55.4296 78.5098C52.6296 77.2098 49.3296 76.5098 45.9296 76.5098C44.9296 76.5098 43.8296 76.6098 42.8296 76.7098C41.4296 76.9098 39.9296 77.2098 38.7296 77.9098C38.3296 78.1098 38.1296 78.7098 38.4296 79.1098C38.6296 79.5098 39.2296 79.7098 39.6296 79.4098C40.5296 78.9098 41.7296 78.6098 43.0296 78.4098C44.0296 78.3098 44.9296 78.2098 45.9296 78.2098C49.0296 78.2098 52.1296 78.8098 54.6296 80.0098Z" fill="white"/>
<path d="M33.9289 39.5104C34.8289 38.0104 38.9289 36.9104 41.3289 37.6104C41.9289 37.7104 42.4289 38.2104 42.7289 38.6104C42.8289 38.9104 42.3289 39.3104 42.0289 39.8104C39.0289 38.5104 36.7289 39.3104 34.2289 40.2104C34.0289 39.8104 33.8289 39.6104 33.9289 39.5104Z" fill="black"/>
<path d="M84.9266 42.4098C83.0266 42.4098 81.4266 43.7098 79.2266 42.9098C82.7266 40.2098 88.1266 40.0098 91.5266 42.4098C89.0266 42.4098 87.0266 42.3098 84.9266 42.4098Z" fill="black"/>
<path d="M50.6269 60.4088C48.2269 63.4088 46.2269 66.4088 43.5269 69.1088C41.2269 71.9088 38.0269 73.4088 34.5269 74.6088C33.1269 75.1088 31.5269 75.0088 30.0269 74.2088C25.1269 71.4088 21.4269 67.7088 20.5269 61.8088C20.2269 59.7088 19.7269 57.5088 19.5269 55.4088C19.3269 49.2088 23.2269 45.7088 27.8269 43.6088C31.6269 42.0088 35.6269 41.1088 39.6269 41.1088C43.6269 41.0088 47.7269 41.3088 51.6269 41.9088C59.1269 43.0088 66.7269 43.7088 74.1269 44.7088C79.9269 45.4088 85.9269 46.9088 91.3269 49.5088C95.2269 51.4088 97.1269 55.0088 96.9269 59.2088C96.9269 62.0088 96.4269 64.7088 95.0269 67.2088C93.3269 70.5088 91.3269 73.3088 88.4269 75.7088C86.2269 77.3088 84.0269 78.3088 81.3269 78.5088C79.4269 78.7088 77.1269 78.6088 75.2269 78.8088C74.6269 78.9088 73.9269 78.7088 73.2269 78.4088C69.5269 76.7088 66.4269 74.3088 65.1269 70.4088C64.2269 68.3088 63.8269 66.1088 63.3269 63.9088C63.0269 62.8088 62.7269 62.2088 61.5269 61.9088C58.8269 61.2088 56.4269 60.4088 53.6269 61.0088C52.6269 60.7088 51.6269 60.4088 50.6269 60.4088ZM23.2269 64.1088C24.6269 67.7088 26.9269 70.3088 30.1269 72.0088C31.5269 72.7088 33.2269 73.4088 34.7269 72.8088C37.9269 71.4088 42.2269 69.3088 44.1269 66.0088C44.5269 65.2088 45.9269 64.1088 46.2269 63.4088C48.7269 60.7088 49.8269 58.1088 50.8269 54.3088C51.2269 52.9088 51.5269 51.5088 51.9269 50.0088C52.1269 49.6088 52.3269 49.0088 52.6269 48.6088C53.4269 49.2088 53.6269 49.8088 53.5269 50.2088C53.3269 51.5088 52.9269 52.9088 52.6269 54.2088C52.3269 55.5088 51.3269 56.6088 50.9269 58.0088C54.8269 58.3088 58.7269 58.8088 62.5269 59.2088C62.4269 54.2088 64.7269 50.5088 68.5269 48.0088C69.0269 47.6088 69.5269 47.0088 70.1269 46.5088C69.7269 46.1088 69.6269 46.0088 69.3269 45.9088C59.3269 44.7088 50.4269 43.1088 40.2269 42.9088C34.5269 42.8088 28.1269 44.4088 24.2269 48.6088C21.8269 51.0088 20.7269 57.1088 22.3269 59.9088C23.6269 59.2088 25.9269 58.0088 27.2269 57.3088C26.2269 59.1088 23.7269 59.3088 22.8269 61.8088C24.9269 60.9088 26.4269 60.3088 28.0269 59.8088C28.1269 60.0088 28.1269 60.1088 28.2269 60.3088C26.9269 61.4088 24.7269 63.2088 23.2269 64.1088ZM65.9269 68.3088C67.7269 74.8088 72.7269 77.3088 78.9269 77.2088C79.4269 77.1088 81.1269 76.9088 81.6269 77.0088C84.4269 77.0088 86.9269 75.4088 88.6269 73.5088C90.3269 71.7088 91.7269 69.7088 93.1269 67.5088C94.6269 65.2088 95.5269 62.4088 95.7269 59.4088C95.9269 55.0088 92.8269 51.0088 88.1269 49.4088C84.0269 48.0088 80.5269 47.2088 76.2269 46.1088C75.1269 45.8088 72.3269 45.9088 71.6269 47.1088C71.1269 47.8088 69.5269 48.8088 68.9269 49.3088C65.0269 51.8088 63.9269 55.4088 64.0269 59.8088C64.1269 61.0088 63.9269 62.6088 64.9269 63.5088C67.0269 63.1088 69.8269 60.8088 72.4269 60.9088C70.1269 62.6088 67.0269 62.7088 65.7269 65.4088C67.5269 65.2088 68.7269 63.9088 70.4269 64.4088C69.4269 65.6088 67.2269 67.5088 65.9269 68.3088Z" fill="black"/>
<path d="M132.626 51.7092C129.926 48.6092 126.526 47.8092 122.026 49.4092C120.826 49.8092 119.926 50.2092 118.126 50.7092C118.326 49.9092 118.526 47.6092 118.726 45.9092C120.126 37.7092 120.926 35.3092 121.426 28.4092C121.626 25.3092 120.326 22.3092 119.226 19.3092C118.526 17.1092 116.826 15.4092 115.226 13.4092C112.026 9.4092 106.026 6.5092 100.426 4.6092C97.0261 3.4092 91.2261 2.6092 87.8261 1.5092C79.2261 -1.0908 69.7261 0.309204 60.7261 1.0092C52.5261 1.7092 35.8261 9.5092 34.0261 10.2092C30.2261 11.2092 28.0261 12.9092 25.3261 14.6092L23.9261 15.5092C23.9261 15.5092 23.6261 15.4092 23.1261 16.0092C22.2261 17.2092 21.4261 18.3092 20.5261 19.5092C19.6261 21.1092 19.0261 22.8092 18.6261 24.6092C17.9261 27.6092 18.1261 28.3092 18.2261 31.3092C18.2261 32.9092 18.4261 34.7092 18.5261 36.4092C18.5261 36.7092 18.5261 37.4092 18.5261 37.8092C19.3261 37.1092 20.2261 36.7092 21.0261 36.0092L20.8261 35.4092C20.2261 32.1092 19.9261 29.2092 20.7261 25.3092C21.9261 19.7092 23.6261 17.0092 30.5261 13.7092C41.3261 8.7092 51.6261 2.8092 65.9261 2.1092C69.5261 1.7092 72.3261 1.7092 75.7261 1.7092C77.4261 1.7092 79.2261 1.9092 80.9261 2.3092C82.0261 2.6092 83.0261 2.9092 83.9261 3.0092C94.7261 5.0092 108.026 7.9092 113.726 14.5092C117.526 18.9092 119.226 22.5092 119.726 27.2092C119.926 29.2092 119.426 32.8092 118.826 34.7092C118.126 37.6092 118.126 38.2092 117.226 41.0092C116.626 43.1092 116.126 44.0092 115.426 47.5092C114.626 51.3092 113.826 56.6092 113.726 60.1092C113.626 63.0092 114.926 65.7092 116.326 68.3092C117.126 69.8092 119.226 70.6092 121.426 70.6092C124.326 70.5092 127.226 70.4092 129.426 69.1092C135.626 65.1092 137.126 56.9092 132.626 51.7092Z" fill="black"/>
<path d="M128.824 54.209C129.624 55.909 129.824 57.809 129.724 59.809C129.624 60.909 129.424 62.009 129.024 63.209C128.824 63.709 129.124 63.909 129.424 64.009C129.924 64.209 130.024 63.909 130.224 63.609C130.824 62.309 130.924 61.209 131.024 59.809C131.224 57.709 130.824 55.609 129.924 53.509C129.824 53.209 129.524 53.009 129.024 53.109C128.824 53.409 128.724 53.709 128.824 54.209Z" fill="white"/>
<path d="M80.0267 121.109C80.5267 123.409 82.5267 124.809 85.4267 124.609C89.0267 124.409 92.6267 123.609 95.4267 121.409C96.4267 120.509 98.0267 119.109 97.7267 118.009C97.3267 114.609 99.4267 112.409 101.427 110.809C107.727 105.609 110.627 99.909 113.027 91.609C114.227 87.009 115.427 82.609 116.227 78.209C116.227 77.909 119.127 63.109 119.127 62.709C117.927 63.109 117.027 63.409 115.827 63.809C114.727 70.609 111.427 91.909 108.627 97.709C106.427 101.809 103.927 105.809 99.8267 108.609C95.6267 106.409 91.5267 107.509 87.4267 108.509C86.3267 108.709 85.2267 109.609 84.2267 110.109C79.3267 112.609 79.3267 115.709 80.0267 121.109Z" fill="black"/>
<path d="M90.6273 110.31C90.5273 110.01 90.3273 109.61 89.8273 109.81C86.4273 110.21 83.4273 112.11 81.6273 115.11C81.4273 115.61 81.5273 115.91 81.9273 116.11C82.4273 116.31 82.7273 116.21 82.9273 115.81C84.4273 113.31 87.2273 111.41 90.1273 111.11C90.4273 110.91 90.7273 110.81 90.6273 110.31Z" fill="white"/>
</svg>
