<svg width="155" height="222" viewBox="0 0 155 222" fill="none" xmlns="http://www.w3.org/2000/svg">
<path d="M18.9201 180.15C13.6801 169.11 8.40011 157.99 5.39011 146.14C2.38011 134.29 1.75009 121.54 5.78009 110C11.1901 94.49 24.6601 81.75 25.7401 65.35C26.2401 57.8 23.9901 50.05 25.9801 42.76C26.9901 39.05 29.0401 35.72 31.0601 32.44C36.6601 23.37 42.2601 14.3 47.8601 5.22998C50.6501 9.27998 50.3501 14.77 48.7901 19.43C47.2301 24.09 44.5601 28.32 42.8001 32.91C39.7101 40.97 39.5601 50.12 42.3901 58.28C42.7601 59.35 43.2001 60.43 43.9601 61.26C45.8601 63.32 49.0601 63.26 51.8501 63.07C60.4401 62.49 69.2601 62.21 77.4801 64.8C82.5601 66.4 87.2301 69.05 91.8601 71.69C98.0601 75.21 104.63 79.13 107.62 85.6C111.68 94.39 107.84 105.04 110.87 114.24C113.66 122.7 122.08 129.51 121.38 138.39C120.63 147.89 110.11 153.15 105.17 161.29C101.44 167.42 101.07 174.95 100.8 182.12C100.68 185.39 100.59 188.82 102.04 191.75C103.34 194.36 105.87 196.74 105.38 199.61C104.86 202.7 101.26 204.05 98.2301 204.82C87.9001 207.45 77.3001 210.1 66.7001 208.96C56.1401 207.83 46.9301 202.4 36.8801 199.77C27.6501 197.37 22.7401 188.18 18.9201 180.15Z" fill="white"/>
<path d="M22.28 208.56C22.01 209.16 21.71 209.8 21.15 210.17C20.14 210.84 18.8001 210.37 17.7001 209.88C15.8501 209.06 13.97 208.22 12.49 206.85C11.01 205.48 9.98005 203.45 10.32 201.46C10.48 200.5 10.95 199.62 11.49 198.81C13.42 195.94 16.39 193.82 17.93 190.73C19.26 188.07 19.4 184.99 19.5 182.01C19.65 177.7 19.81 173.38 19.96 169.07C20 167.82 20.06 166.52 20.6 165.39C21.15 164.26 22.32 163.33 23.57 163.48C25.01 163.65 25.92 165.09 26.53 166.41C33.12 180.44 28.29 195.13 22.28 208.56Z" fill="#BCBCBB"/>
<path d="M56.53 183.26C56.53 183.56 56.52 183.89 56.33 184.12C56.05 184.45 55.54 184.41 55.12 184.36C53.75 184.19 52.36 184.15 50.98 184.22C49.78 184.29 48.58 184.44 47.41 184.69C47.12 184.75 46.82 184.82 46.53 184.75C45.73 184.56 45.53 183.52 45.5 182.7C45.34 178.29 43.17 168.73 50.19 169.2C56.55 169.62 56.49 178.61 56.53 183.26Z" fill="#BCBCBB"/>
<path d="M26.8101 60.03C23.5701 53.08 21.6501 45.05 23.9601 37.74C24.7401 35.27 26.0301 32.9 27.9901 31.21C29.9501 29.51 32.6401 28.56 35.1901 29.04C34.9801 31.89 34.7801 34.73 34.5701 37.58C34.0201 45.22 33.4701 52.98 35.0301 60.48C35.1901 61.25 35.3701 62.03 35.2701 62.81C35.0201 64.72 32.0801 67.6 30.2401 66.86C29.1901 66.43 27.3401 61.16 26.8101 60.03Z" fill="#BCBCBB"/>
<path d="M50.9102 108.42C52.1302 107.17 53.5102 106.07 55.0602 105.25C58.1802 103.6 61.8002 103.21 65.3202 102.89C71.4402 102.33 77.7302 101.91 83.6402 103.62C85.8102 104.25 87.9502 105.19 89.5402 106.79C91.1302 108.39 92.0902 110.74 91.5902 112.94C87.6302 113.64 83.9402 111.04 80.1502 109.68C74.6302 107.71 68.5602 108.37 62.7402 109.07C59.9502 109.4 57.1102 109.75 54.5902 110.98C53.1602 111.68 49.2302 116.14 47.6502 115.35C45.2702 114.17 49.6602 109.7 50.9102 108.42Z" fill="#BCBCBB"/>
<path d="M100.98 155.44C101.03 154.88 101.04 154.23 100.61 153.87C100.33 153.63 99.9401 153.58 99.5801 153.61C97.3901 153.77 96.1001 156.07 95.0701 158.01C89.2801 168.95 79.5201 177.21 72.2401 187.23C71.6901 187.99 71.1501 189.04 71.7101 189.79C72.2301 190.49 73.3001 190.36 74.1501 190.16C77.8201 189.26 83.4901 188.71 86.6701 186.64C89.3801 184.88 90.9601 181.03 92.5701 178.26C96.6601 171.21 100.22 163.65 100.98 155.44Z" fill="#BCBCBB"/>
<path d="M55.1102 184.36L57.5302 192.23L86.2402 188.29L89.0102 185.41L92.4202 187.62L98.3402 202.41L103.93 214.53L82.9202 218.56L47.5502 220.08L29.9802 218C29.9802 218 23.4302 216.19 23.4302 214.54C23.4302 212.88 29.9802 189.93 29.9802 189.93L33.2302 186.89L47.4102 184.7L55.1102 184.36Z" fill="#EB584A"/>
<path d="M30.9501 189.06C31.8601 187.53 33.2001 186.67 34.9401 186.26C37.4101 185.68 39.8401 184.97 42.5201 184.25C43.0001 182.54 42.6201 180.55 42.7101 178.58C42.8801 174.59 43.0901 170.61 43.1901 166.62C43.2301 164.88 43.0401 163.13 42.9501 161.26C43.3401 161.09 43.7801 160.94 44.1701 160.72C45.8601 159.76 46.2801 158.76 45.8101 156.8C45.6201 156.02 45.3501 155.27 45.1701 154.49C45.0001 153.75 44.9001 152.99 44.3801 152.25C44.2501 153.25 44.1001 154.25 44.0001 155.26C43.7701 157.44 43.2301 159.53 41.8401 161.27C41.2601 162 40.5201 162.62 39.7801 163.19C37.1801 165.17 34.8801 164.92 32.2801 162.79C29.5501 160.55 28.0901 157.61 26.4701 154.69C23.3801 149.12 22.1301 143.07 21.8701 136.76C21.8301 135.8 22.2301 134.64 20.6401 134.37C20.4101 134.33 20.3601 133.27 20.2301 132.66C19.8501 132.54 19.4201 132.4 18.8601 132.22C19.0401 131.59 19.0501 130.96 19.3601 130.56C21.2201 128.18 23.0101 125.72 25.1001 123.56C26.6301 121.98 28.4501 120.57 30.3801 119.52C34.1801 117.45 38.3801 117.55 42.5501 117.97C43.4801 118.06 44.2001 118.06 44.9701 117.43C48.4201 114.6 51.9401 111.85 55.4101 109.04C55.9701 108.59 56.4101 108 56.9701 107.57C57.4101 107.24 57.9601 107.05 58.7001 106.67C58.8501 107.65 58.9401 108.24 59.0201 108.81C59.2701 108.85 59.4401 108.94 59.5701 108.89C63.4001 107.44 67.3401 107.28 71.3501 107.81C74.2001 108.18 77.0501 108.55 79.8801 109C80.8101 109.15 81.7601 109.45 82.6001 109.89C85.1701 111.25 87.8401 112.26 90.7401 112.6C91.0501 112.64 91.3601 112.76 91.6501 112.88C91.7901 112.94 91.8801 113.08 92.0501 113.24C91.5801 114.66 90.6301 115.02 89.3001 114.57C87.1101 113.82 84.8801 113.14 82.7501 112.25C79.7401 110.99 76.5701 110.73 73.3101 110.36C72.5801 111.59 71.7501 112.61 71.8001 114.25C71.8401 115.52 71.1101 116.85 70.5801 118.09C67.8901 124.44 66.2301 131.07 64.9901 137.83C64.6201 139.82 64.6801 141.84 65.4801 143.73C66.6001 146.37 67.8901 148.94 69.0301 151.58C70.2601 154.44 71.6401 157.26 72.5201 160.23C73.4901 163.49 73.0401 166.31 70.2501 169.1C66.7401 172.62 62.5001 174.96 58.6001 177.84C58.1001 178.21 57.5201 178.89 56.5401 178.17C56.8501 177.81 57.0601 177.41 57.4001 177.18C59.7001 175.59 61.9801 173.97 64.3701 172.51C66.2601 171.36 67.7401 169.84 69.0001 168.07C69.2301 167.74 69.3801 167.33 69.6701 167.08C71.8201 165.23 71.7701 162.93 71.0401 160.5C70.0701 157.28 68.7401 154.25 66.9501 151.36C65.4901 149.01 64.3001 146.43 63.3501 143.83C62.5301 141.58 62.1701 139.16 61.6701 136.8C61.6001 136.47 61.8301 136.06 61.9701 135.7C63.3701 131.89 64.7501 128.07 66.2001 124.28C67.9301 119.75 69.7201 115.24 71.5901 110.44C70.7201 110.36 69.8101 110.29 68.9101 110.2C65.0101 109.78 61.2501 110.18 57.7701 112.11C56.7001 112.7 55.6901 112.77 54.6301 112.05C52.0401 114.31 49.2801 116.19 47.1901 118.9C46.2201 120.16 44.7801 120.61 42.9301 120.17C38.7101 119.16 34.5901 119.21 30.8201 122.01C29.1101 123.28 26.9801 123.99 25.6701 125.81C25.0701 126.64 24.5001 127.5 23.9501 128.36C23.4901 129.07 23.3701 129.75 23.8501 130.58C24.1401 131.08 24.0301 131.81 24.0901 132.44C24.4601 136.49 24.7501 140.55 25.2101 144.59C25.4801 147 26.1501 148.38 27.4201 150.17C29.0501 149.34 30.2901 147.72 32.6701 147.26C30.7901 148.88 29.2601 150.2 27.7201 151.54C28.1801 152.4 28.5101 153.02 28.8601 153.69C30.4101 153.05 31.3001 151.33 33.4701 151.18C31.9301 152.41 30.6601 153.42 29.4801 154.36C30.2701 156.93 31.3101 158.79 32.9201 160.28C34.3801 161.64 36.0001 162.32 38.1401 161.98C39.7001 161.73 40.6701 161 41.1901 159.68C41.7201 158.35 42.1801 156.96 42.3901 155.56C43.2501 149.76 43.2801 143.94 42.4101 138.13C42.3301 137.58 42.2201 137.02 42.2301 136.46C42.2401 136.09 42.3501 135.46 42.5701 135.39C44.6701 134.7 44.1601 132.9 44.3601 131.41C44.4501 130.74 44.5101 130.07 45.0301 129.33C45.2501 129.77 45.5701 130.19 45.6701 130.66C46.1101 132.88 45.5201 135.01 44.5301 136.91C44.0201 137.88 44.0401 138.67 44.1301 139.61C44.2701 141.12 44.4501 142.63 44.4801 144.14C44.5101 145.96 44.2901 147.76 45.6201 149.33C46.0301 149.81 45.9701 150.7 46.1301 151.4C46.4701 152.96 46.7401 154.54 47.1701 156.07C47.3401 156.67 47.8501 157.18 48.3201 157.93C47.7001 158.6 47.6101 159.6 48.0901 160.71C48.8201 162.39 49.4801 164.05 50.8701 165.4C51.6801 166.18 52.2601 167.39 52.5301 168.5C53.8201 174.02 54.9701 179.56 56.1801 185.1C56.4101 186.16 56.6601 187.21 56.9001 188.29C55.9201 188.65 55.5101 187.94 55.4001 187.44C54.9401 185.41 53.3201 185.07 51.7401 185.05C49.4401 185.03 47.1401 185.33 44.5801 185.51C44.6501 186.78 44.7001 187.82 44.7601 188.85C46.5701 188.99 47.5301 186.82 49.5401 187.85C47.7901 188.72 46.3001 189.47 44.5601 190.33C44.1101 189.2 43.7101 188.2 43.2801 187.12C42.2401 187.74 41.8801 189.41 40.0701 189.5C40.0601 188.51 40.0401 187.61 40.0301 186.57C37.7601 186.14 35.9101 187.01 33.6701 188.28C34.6901 188.75 35.2901 189.23 35.9301 189.3C39.8801 189.72 43.7901 190.88 47.8001 190.2C51.8601 189.52 55.8701 190.24 59.9101 190.27C65.7301 190.32 71.5601 190.13 77.2801 188.68C79.4401 188.13 81.6701 187.86 83.8601 187.44C85.0501 187.21 85.7701 186.74 86.4201 185.44C89.0201 180.24 91.8701 175.15 94.7901 170.12C96.8201 166.61 97.5901 162.67 99.0501 158.97C100.88 154.35 101.18 149.45 101.35 144.63C101.46 141.6 101.74 138.4 100.63 135.4C100.54 135.15 100.67 134.81 100.7 134.41C101.92 134.76 102.24 135.64 102.42 136.59C102.55 137.29 102.67 138.02 102.66 138.73C102.59 143.99 104.24 148.96 105.29 154.02C105.35 154.32 105.56 154.58 105.69 154.83C108.64 155.77 109.1 153.25 110.28 151.38C110.83 152.19 111.24 152.79 111.71 153.48C113.93 152.81 115.55 151.48 116.82 149.47C118.84 146.26 118.67 142.6 119.38 139.11C120.36 134.24 118.63 130.03 116.76 125.79C116.67 125.58 116.45 125.44 116.29 125.26L116.34 125.32C115.63 122.08 114.54 119.08 111.9 116.8C110.26 115.39 108.47 114.48 106.35 114.21C102.2 113.67 98.0901 113.73 93.8201 115.65C95.3901 113.38 97.5201 112.81 99.5701 112.68C102.16 112.52 104.82 112.7 107.38 113.12C111.82 113.85 114.78 116.6 116.48 120.71C117.91 124.18 119.51 127.6 120.62 131.17C121.31 133.4 121.51 135.89 121.43 138.24C121.34 141.02 120.7 143.77 120.3 146.54C120.28 146.7 120.28 146.88 120.2 147.01C118.32 149.85 117.44 153.35 114.56 155.52C114.18 155.81 113.82 156.14 113.42 156.4C111.62 157.54 110.86 157.46 109.44 156.12C107.83 156.57 106.31 156.99 104.57 157.47C104.36 158.95 104.14 160.6 103.9 162.24C103.58 164.37 103.14 166.49 102.93 168.63C102.56 172.45 102.36 176.28 102.02 180.1C101.76 183.03 101.59 185.99 101.02 188.86C100.44 191.78 100.72 194.19 103.16 196.16C104.77 197.46 105.56 199.34 106.21 201.23C107.01 203.58 104.64 206.24 102.14 205.76C102.27 205.55 102.35 205.31 102.51 205.19C105.32 203.14 105.59 202.11 103.64 199.26C102.66 197.82 101.42 196.54 100.15 195.33C98.9301 194.17 98.5901 192.92 98.7501 191.26C99.3601 184.74 99.8201 178.21 100.34 171.69C100.37 171.29 100.34 170.89 100.41 170.49C101.22 165.77 102.01 161.06 102.87 156.35C103.06 155.3 103.45 154.29 103.75 153.26C103.58 153.2 103.42 153.15 103.25 153.09C102.57 154.93 101.66 156.72 101.24 158.61C99.9001 164.69 97.2101 170.19 94.3101 175.62C92.5801 178.85 90.8301 182.07 89.0501 185.35C89.4101 185.63 89.8101 185.95 90.3301 186.37C87.6901 189.04 90.7701 191.02 91.0101 193.36C90.0501 194.64 88.5901 194.32 87.2801 194.55C82.8701 195.3 78.4701 196.05 74.0801 196.92C68.6201 198 63.1601 198.42 57.6601 197.29C57.1601 197.19 56.6801 196.97 55.6301 196.62C56.5701 196.29 56.9601 196.04 57.3401 196.05C58.1401 196.06 58.9301 196.19 59.7201 196.31C64.1101 197 68.4601 196.83 72.8201 195.99C77.2101 195.15 81.6301 194.46 86.0401 193.68C86.7301 193.56 87.4101 193.33 88.3001 193.09C87.9801 192.23 87.8001 191.45 87.4101 190.8C86.8501 189.87 86.0801 189.31 84.8301 189.57C81.1601 190.33 77.4801 191.09 73.7701 191.68C71.3301 192.07 68.8501 192.33 66.3801 192.36C62.6401 192.4 58.8901 192.18 55.1401 192.08C51.7101 191.98 48.2701 192.04 44.8601 191.75C41.5301 191.47 38.2201 190.84 34.9101 190.37C34.5301 190.32 34.1601 190.26 33.7901 190.2C32.7801 193.69 32.7801 193.69 33.8301 194.35C34.1001 193.28 34.3701 192.22 34.6401 191.16C34.8001 191.19 34.9701 191.22 35.1301 191.25C35.1501 192.31 35.1801 193.38 35.2101 194.69C38.0601 195.09 40.8701 195.48 43.6801 195.88C43.6801 196.01 43.6701 196.14 43.6701 196.27C42.1101 196.25 40.5501 196.26 38.9801 196.22C37.4101 196.18 35.8101 196.26 34.2701 195.99C32.6501 195.71 31.0901 195.08 29.4301 194.59C27.9301 197.29 27.1601 200.12 26.5401 202.99C25.9001 205.95 25.3101 208.93 24.8301 211.92C24.4901 214.06 24.9501 214.67 26.9701 215.55C30.2101 216.98 33.6201 217.94 37.1201 218.25C42.6001 218.73 48.1201 219.1 53.6201 219.11C63.0301 219.13 72.4401 218.69 81.7801 217.47C85.6301 216.97 89.4101 215.98 93.1901 215.22C93.4401 214.02 93.3301 213.23 92.1301 213.55C84.9401 215.48 77.4801 214.54 70.2101 215.65C68.7801 215.87 67.2301 216 65.9401 214.73C66.2101 214.51 66.3901 214.24 66.5501 214.25C73.3601 214.77 80.0701 213.43 86.8501 213.21C91.6501 213.05 96.1101 211.04 100.72 209.2C100.37 206.43 99.0401 204.04 98.0901 201.54C97.1501 199.08 96.0701 196.67 94.9101 194.31C93.7401 191.94 92.3901 189.66 90.8501 186.86C91.7401 187.22 92.2601 187.27 92.4901 187.55C93.4701 188.81 94.5301 190.05 95.2701 191.44C98.0101 196.6 100.24 201.98 102.07 207.53C102.59 209.12 103.3 210.64 103.95 212.19C104.28 212.98 104.66 213.75 105.05 214.59C103.79 214.65 103.79 214.65 101.18 210.54C99.3501 211 97.2801 211.03 96.3801 213.26C94.5001 212.53 94.4501 212.56 94.4801 214.25C95.5001 214.04 96.6301 213.44 97.4501 213.73C98.5501 214.12 99.4001 213.95 100.39 213.71C100.72 213.63 101.4 213.94 101.49 214.22C101.6 214.54 101.35 215.23 101.05 215.39C99.9301 215.99 98.7601 216.57 97.5401 216.91C94.5501 217.75 91.5501 218.78 88.4901 219.15C80.6601 220.1 72.8001 220.96 64.9201 221.42C59.3501 221.74 53.7401 221.35 48.1501 221.27C42.4601 221.19 36.8401 220.5 31.3001 219.22C29.1301 218.72 27.0001 218.02 24.9201 217.22C23.4601 216.66 22.3801 215.58 22.0901 213.92C21.9301 212.98 21.7801 212.05 21.6001 210.93C21.1101 210.83 20.5001 210.7 19.8901 210.6C18.5501 210.37 17.1901 210.24 15.8701 209.93C10.5201 208.7 8.43009 204.24 10.2101 198.99C11.4001 195.49 14.0101 193.16 16.0601 190.37C17.2201 188.79 18.6601 187.43 19.8301 186.13C19.2201 181.2 17.2801 177.05 15.1401 173.05C12.2201 167.59 10.3001 161.76 8.1301 156.01C6.1701 150.8 5.38011 145.36 4.29011 139.97C3.82011 137.64 3.2901 135.31 2.7801 132.89C2.6301 132.92 2.34011 133.01 2.04011 133.05C1.54011 133.11 1.04011 133.15 0.540108 133.19C0.550108 132.74 0.490107 132.29 0.570106 131.86C1.19011 128.32 1.58009 124.73 2.52009 121.27C4.11009 115.37 5.47009 109.4 7.93009 103.74C8.97009 101.35 9.3301 98.68 10.0001 96.13C10.2201 95.29 10.4601 94.46 10.6701 93.7C11.6701 93.51 12.0801 93.8 11.9201 94.68C11.7701 95.52 11.5801 96.35 11.4001 97.22C12.0501 97.43 12.5001 97.57 13.0501 97.75C14.0601 95 15.0701 92.32 16.0401 89.63C17.8201 84.67 20.8601 80.47 23.9101 76.27C23.9601 76.21 24.0401 76.16 24.0701 76.1C25.4501 73.62 27.7401 72.1 30.1301 70.57C29.6601 69.55 29.3101 68.67 28.8601 67.83C25.6501 61.84 23.5501 55.44 23.3401 48.69C23.1401 42.23 24.3801 36.02 29.4601 31.19C31.4001 29.34 32.9101 27.03 34.5701 24.89C37.1701 21.53 39.3401 17.91 41.2601 14.12C41.9801 12.7 42.8001 11.39 42.8001 9.7C42.8001 8.68 43.1301 7.65 43.3601 6.64C43.6801 5.21 43.7901 3.86001 43.1101 2.44001C42.5401 1.24001 43.0101 0.63 44.3001 0.51C45.7301 0.38 46.9901 0.820011 47.9901 1.85001C48.9901 2.88001 50.0201 3.90001 50.9201 5.02001C51.3401 5.54001 51.6301 6.27001 51.7301 6.94001C52.5001 12.29 51.8101 17.63 51.4001 22.95C51.2801 24.48 50.3901 25.95 49.8001 27.61C50.0901 27.8 50.5001 28.06 51.2601 28.56C50.3101 29.2 49.5801 29.69 48.4401 30.45C47.3601 33.53 46.1701 37.08 44.8601 40.58C43.9301 43.05 43.1701 45.53 42.6801 48.14C41.9201 52.19 42.5901 56.09 43.3001 60.01C43.5401 61.32 44.0401 62.58 44.4601 64C45.9301 63.72 47.2701 63.56 48.5601 63.19C51.9101 62.24 55.3201 62.04 58.7701 62.04C62.9301 62.05 67.0801 61.99 71.2401 61.98C72.9201 61.98 74.5801 62.11 76.3001 63.46C75.5701 63.53 75.1701 63.59 74.7601 63.6C68.1301 63.66 61.4901 63.56 54.8701 63.84C51.9501 63.96 49.0401 64.78 46.1501 65.41C45.5501 65.54 45.0701 66.24 44.3601 66.82C43.6301 65.95 42.4201 66.1 41.1701 66.65C38.7601 67.72 36.3401 68.77 33.9401 69.86C31.3801 71.03 29.6101 73.02 28.0801 75.72C29.9401 76.92 31.8901 77.96 33.6001 79.33C35.2701 80.66 36.6701 82.32 38.3001 83.93C40.9701 81.65 43.3401 79.09 46.5301 77.57C44.3101 80.19 41.0701 81.82 39.3601 85.1C42.3601 89.55 44.4301 94.62 48.3101 98.77C48.6701 98.3 48.9601 98.03 49.1101 97.7C49.6001 96.58 50.4901 96.25 51.4501 96.8C55.1701 98.93 58.9201 97.76 62.6501 97.03C66.3301 96.3 70.0101 95.52 73.6501 94.63C77.5001 93.69 80.9801 91.91 84.1601 89.55C86.7101 87.66 88.2401 85.12 88.8601 82.01C89.1701 80.45 89.6901 78.92 89.9401 77.35C90.1401 76.07 90.0801 74.74 90.1401 73.32C91.6301 73.8 91.7401 74.96 91.4901 76.17C91.1401 77.89 90.6501 79.58 90.2201 81.29C90.1201 81.68 89.9501 82.05 89.9101 82.44C89.3601 87.34 86.1901 90.15 82.1901 92.41C77.6001 95 72.7101 96.58 67.5401 97.42C64.9401 97.84 62.3601 98.42 59.7801 98.98C55.2301 99.95 55.2301 99.97 50.7401 98.52C50.4001 98.94 50.0201 99.43 49.6201 99.89C48.5501 101.12 47.9901 101.19 46.9701 99.84C45.5301 97.93 44.2601 95.9 42.9401 93.91C41.0901 91.12 39.3701 88.25 37.3901 85.55C34.7001 81.87 31.1901 79.12 26.9401 77.29C23.2801 79.85 15.3101 95.79 14.4801 102.53C16.8001 101.22 18.5001 99.2 20.7701 98.11C20.8801 98.24 20.9801 98.36 21.0901 98.49C20.8301 98.79 20.6001 99.13 20.3001 99.38C18.6401 100.77 16.9501 102.11 15.3101 103.51C14.4301 104.26 14.0401 105.07 14.2501 106.42C14.6201 108.85 14.5701 111.35 14.6501 113.82C14.6801 114.86 14.5001 115.86 13.2401 116.78C12.4901 114.86 12.9501 113.04 12.7201 111.32C12.4801 109.53 11.9701 107.77 11.8601 105.98C11.7501 104.16 11.9701 102.33 11.8301 100.35C10.5701 103.17 9.1701 105.93 8.0901 108.82C6.1701 113.95 5.66011 119.38 5.07011 124.78C5.00011 125.41 5.11011 126.05 5.14011 126.69C5.26011 129.15 5.3801 131.6 5.5001 134.06C5.5201 134.46 5.50009 134.87 5.58009 135.26C6.26009 138.7 6.82009 142.18 7.71009 145.57C8.23009 147.54 9.3601 149.34 10.0601 151.28C11.4201 155.03 12.8201 158.78 13.9201 162.61C15.2001 167.08 16.7601 171.41 19.0901 175.54C20.7801 175.31 21.7601 173.39 23.7601 173.68C22.7001 174.45 21.6501 175.23 20.5801 175.98C19.4801 176.76 19.4201 177.6 20.4801 178.66C21.2001 178.4 21.9901 178.12 22.9101 177.79C22.8001 178.09 22.7801 178.35 22.6401 178.47C20.8101 180.07 20.8001 180.06 21.7501 182.44C22.5701 184.52 22.9801 186.57 21.4901 188.56C21.3101 188.81 21.2601 189.25 21.0401 189.36C18.4101 190.62 17.0201 193.18 15.1101 195.17C12.8801 197.49 11.7001 200.39 12.1701 203.71C12.3101 204.69 12.7501 205.62 13.2101 207.05C14.2701 205.03 14.9501 203.46 15.8601 202.04C16.7601 200.64 17.4701 198.98 19.6001 198.25C19.1901 200.34 17.5901 201.37 16.9201 202.91C16.2601 204.43 15.1701 205.81 15.5501 207.76C17.5501 208.97 19.9001 208.81 22.2701 209.4C22.9001 207.38 23.4601 205.57 24.0201 203.76C25.0401 200.49 26.2101 197.25 27.0301 193.93C27.6201 191.54 28.2001 189.17 27.6901 186.53C26.7201 181.52 26.4101 176.38 25.5301 171.35C24.7201 166.72 23.8501 162.06 21.8201 157.75C18.5701 150.84 16.7901 143.46 14.6401 136.19C14.3501 135.22 14.0201 134.27 13.6901 133.27C14.7501 132.73 15.1401 133.34 15.3801 134.04C15.8001 135.25 16.1901 136.47 16.5101 137.7C18.1901 144.29 20.5101 150.64 23.1901 156.9C25.7801 162.95 27.0601 169.39 27.8201 175.92C27.9401 176.94 28.1201 177.95 28.3101 179.2C30.8001 178.1 32.5501 175.93 35.2601 175.6C33.4901 176.92 31.7001 178.22 29.9401 179.56C28.7701 180.45 28.1001 181.55 28.8301 183.39C30.3201 182.41 31.7801 181.45 33.2401 180.49C33.3501 180.63 33.4601 180.78 33.5701 180.92C32.5301 181.83 31.5001 182.74 30.4601 183.64C28.1301 185.66 28.1401 186.36 30.5001 188.28C30.7301 188.46 30.8901 188.73 31.0801 188.95C31.9301 190.54 30.3101 191.55 30.0801 193C30.5901 193.22 31.0701 193.42 31.8701 193.77C32.1201 192.37 32.3401 191.17 32.5601 189.96C31.8701 189.65 31.4101 189.35 30.9501 189.06ZM42.9801 64.29C42.8601 63.73 42.8001 63.02 42.5701 62.38C40.4101 56.56 40.5201 50.66 41.8001 44.7C41.9801 43.85 42.2001 42.99 42.5201 42.18C43.1301 40.63 43.8901 39.15 44.4901 37.59C45.5101 34.91 46.4101 32.18 47.4601 29.51C47.8601 28.49 47.3601 27.88 46.6901 27.53C46.2801 27.31 45.5101 27.55 45.0001 27.79C44.4401 28.06 44.0201 28.61 43.5101 28.98C41.8601 30.17 41.2801 30.17 39.6401 29.03C39.2501 28.76 38.8001 28.14 38.5201 28.21C36.8801 28.65 36.5801 27.59 36.5001 26.11C32.7001 30.29 29.3601 34.35 26.9001 39.05C26.4301 39.95 26.1301 40.99 25.9401 41.99C25.2701 45.48 25.5801 49 25.9601 52.49C26.0401 53.24 26.3501 53.96 26.5801 54.8C28.8701 53.35 30.9101 52.05 32.9501 50.76C33.0401 50.89 33.1301 51.02 33.2201 51.16C31.6001 52.52 30.0401 53.97 28.3301 55.2C26.9801 56.17 26.8201 57.29 27.2601 58.73C28.3801 62.4 29.5101 66.05 32.0401 69.02C35.6201 67.49 39.1801 65.94 42.9801 64.29ZM45.6801 8.44001C45.8401 8.54001 46.0001 8.64001 46.1601 8.74001C43.4301 14.27 40.4901 19.68 37.4601 25.05C37.9101 25.35 38.4001 25.61 38.8101 25.96C39.3001 26.37 39.7001 26.88 40.1601 27.32C41.5701 28.66 41.9601 28.74 43.3301 27.36C44.8701 25.81 46.3701 24.71 48.6201 26.72C48.9601 25.5 49.3701 24.62 49.4501 23.7C49.8301 18.95 51.0701 14.3 50.5101 9.42C50.1501 6.32 48.2201 4.68 46.2101 2.9C46.0001 2.71 45.4901 2.85001 44.9401 2.82001C44.8501 4.86001 44.7701 6.75 44.6901 8.76C44.9801 8.66 45.3301 8.55001 45.6801 8.44001ZM54.1901 183.54C54.2001 183.22 54.2901 182.89 54.2201 182.6C53.2401 178.25 52.2701 173.9 51.2401 169.57C51.0801 168.89 50.8201 168.07 50.3201 167.66C48.5101 166.14 47.9901 163.92 47.0201 161.95C46.7901 161.5 46.5801 161.04 46.3301 160.53C45.2501 161.32 44.5901 162.07 44.5601 163.36C44.4301 169.09 44.2101 174.82 44.0601 180.55C44.0301 181.79 44.1601 183.04 44.2201 184.41C47.6201 184.11 50.7701 183.83 54.1901 183.54ZM89.1901 192.95C89.4301 192.83 89.6701 192.72 89.9001 192.6C89.4201 191.71 88.9401 190.82 88.4701 189.93C88.3401 189.99 88.2101 190.05 88.0801 190.11C88.4501 191.05 88.8201 192 89.1901 192.95ZM42.8901 186.14C41.2501 185.98 41.0401 186.61 41.4101 187.92C41.9201 187.31 42.3201 186.83 42.8901 186.14ZM113.54 154.75C113.46 154.6 113.38 154.45 113.3 154.3C112.87 154.6 112.44 154.91 112 155.21C112.07 155.32 112.15 155.42 112.22 155.53C112.66 155.27 113.1 155.01 113.54 154.75Z" fill="black"/>
<path d="M76.52 115.55C76.35 116.19 76.26 116.56 76.12 117.09C75.59 115.61 75.1 114.27 74.51 112.64C75.12 112.62 75.71 112.43 76.05 112.64C76.78 113.1 77.57 113.65 78 114.37C79.92 117.58 81.78 120.82 83.53 124.12C84.43 125.81 84.92 127.7 85.83 129.38C87.56 132.59 88.21 136.13 89.24 139.56C89.37 139.98 89.29 140.52 89.17 140.96C88.11 144.88 87.05 148.8 85.92 152.71C85.39 154.55 84.76 156.36 84.1 158.15C82.53 162.37 81.85 166.64 83.3 171.02C83.98 173.06 84.7 175.11 85.63 177.04C86.12 178.05 87.09 178.83 87.84 179.71C86.51 180.5 85.77 180.52 85.08 179.23C82.37 174.19 79.99 169.01 81.35 163.06C81.91 160.59 82.88 158.21 83.56 155.76C84.91 150.84 86.36 145.95 87.44 140.97C88.06 138.09 86.91 135.31 85.71 132.66C85.02 131.13 84.14 129.67 83.64 128.08C82.27 123.66 79.59 119.97 77.22 116.1C77.1 115.9 76.85 115.8 76.52 115.55Z" fill="black"/>
<path d="M108.2 102.54C109.88 101.15 108.89 99.56 108.67 97.87C104.66 99.24 101.32 101.52 97.7201 104.07C98.6001 101.95 101.47 100.13 108.73 96.8599C108.22 93.6599 107.44 90.45 106.03 87.41C104.62 84.38 102.1 82.29 99.4101 80.22C99.9801 79.61 100.33 79.23 100.69 78.85C100.6 78.7 100.55 78.54 100.43 78.44C96.4001 74.96 91.9401 72.19 86.9601 70.31C85.2501 69.66 83.4601 69.2 81.7101 68.64C81.2601 68.5 80.7101 68.4 80.4301 68.09C80.2701 67.91 80.4701 67.07 80.6901 66.98C81.0801 66.82 81.6301 66.95 82.0701 67.07C87.8801 68.73 93.4001 70.92 98.1101 74.88C100.12 76.57 102.36 77.99 104.44 79.6C106 80.81 105.98 80.94 104.79 83.01C108.61 86.74 108.32 92.35 110.64 96.91C109.24 101.29 111.5 106.03 109.13 110.32C109.19 108.99 109.27 107.67 109.29 106.34C109.3 105.3 109.29 104.26 109.13 103.24C109.08 102.95 108.48 102.74 108.14 102.5L108.2 102.54Z" fill="black"/>
<path d="M146.94 177.88C146.11 179.18 145.43 178.59 144.8 178.12C142.76 176.58 140.78 174.98 138.72 173.48C135.56 171.19 132.36 168.95 129.17 166.72C128.6 166.32 128.02 165.89 128.57 165.23C128.78 164.98 129.56 165.08 130.02 165.22C130.54 165.37 131.04 165.69 131.48 166.03C136.6 169.94 141.71 173.87 146.94 177.88Z" fill="#EB584A"/>
<path d="M150.06 127.69C150.32 128.11 150.61 128.36 150.61 128.62C150.61 128.9 150.42 129.27 150.2 129.45C145.69 133.17 141.67 137.5 136.55 140.46C135.99 140.79 135.33 141.59 134.75 140.62C134.23 139.76 135.11 139.31 135.64 138.93C137.26 137.79 138.9 136.66 140.61 135.66C143.74 133.84 146.28 131.35 148.79 128.81C149.15 128.45 149.56 128.13 150.06 127.69Z" fill="#EB584A"/>
<path d="M48.5901 214.3C44.4801 215.19 27.2501 213.44 25.1401 212.12C25.7301 211.85 26.1501 211.64 26.5901 211.47C26.7201 211.42 26.9001 211.5 27.0601 211.52C34.2401 212.44 41.4201 213.37 48.5901 214.3Z" fill="black"/>
<path d="M154.06 153.2C153.21 153.38 152.46 153.67 151.73 153.66C146.34 153.59 140.96 153.45 134.96 153.32C135.69 152.71 136 152.21 136.36 152.17C137.78 152.01 139.22 151.95 140.65 151.94C144.47 151.91 148.28 151.94 152.1 151.91C152.95 151.91 153.65 152.02 154.06 153.2Z" fill="#EB584A"/>
<path d="M66.53 162.7C65.8 166.18 60.97 168.02 58.48 165.8C58.01 165.38 57.96 164.5 57.52 163.28C58.91 163.58 59.77 163.62 60.5 163.95C61.91 164.58 63.14 164.5 64.2 163.35C64.88 162.62 65.61 162.44 66.53 162.7Z" fill="black"/>
<path d="M51.46 117.92C53.7 116.23 55.84 114.4 58.64 113.14C58.88 115.18 57.09 115.83 56.52 117.36C57.52 117.13 58.4 116.93 59.48 116.68C59.44 117.64 59.41 118.44 59.37 119.24C59.24 119.28 59.11 119.32 58.98 119.36C58.71 118.9 58.43 118.44 58.1 117.87C56.74 118.54 55.35 119.23 53.8 119.99C53.5 118.74 54.29 118.32 54.75 117.75C55.18 117.21 55.59 116.66 56.36 115.68C54.27 116.3 53.29 118.07 51.46 117.92Z" fill="black"/>
<path d="M94.2301 163.58C94.8901 165.05 94.0201 165.5 93.1901 165.96C91.5601 166.84 89.8601 167.75 88.1201 166.35C87.2401 165.64 85.9202 164.97 86.6402 163.04C87.5002 163.54 88.3202 163.84 88.8902 164.4C89.7902 165.28 90.6601 165.29 91.6901 164.79C92.4901 164.38 93.3201 164.01 94.2301 163.58Z" fill="black"/>
<path d="M27.3201 207.95C26.7301 205.66 28.4201 198.64 29.9801 196.9C29.5901 200.7 27.7801 204.16 27.3201 207.95Z" fill="black"/>
<path d="M57.8301 188.74C60.6301 186.66 63.4801 184.69 67.2401 184.5C64.2201 186.09 61.2101 187.68 58.1901 189.28C58.0801 189.1 57.9601 188.92 57.8301 188.74Z" fill="black"/>
<path d="M64.7101 156.1C64.2001 156.5 63.8501 157 63.5301 156.98C62.0301 156.88 60.5201 156.71 59.0401 156.41C58.6701 156.33 58.4301 155.66 58.1301 155.26C58.5201 155.06 58.9501 154.63 59.3001 154.69C61.0501 154.99 62.8801 155.04 64.7101 156.1Z" fill="black"/>
<path d="M88.6202 158.94C88.3802 157.76 88.9302 157.53 89.6302 157.46C91.5002 157.28 93.4502 156.54 95.5602 158.41C92.9202 158.62 90.7502 158.78 88.6202 158.94Z" fill="black"/>
<path d="M116.24 125.32C116.1 125.66 116.05 126.14 115.79 126.33C113.51 128.03 111.18 129.69 108.87 131.35C108.76 131.43 108.57 131.39 108.42 131.41C108.86 129.77 113.46 126.24 116.29 125.38C116.3 125.38 116.24 125.32 116.24 125.32Z" fill="black"/>
<path d="M40.4502 85.49C42.1702 82.82 45.0102 81.61 47.5602 80.01C45.6702 82.44 42.9402 83.82 40.4502 85.49Z" fill="black"/>
<path d="M116.62 129.18C114.37 131.13 112.12 133.08 109.86 135.03C111 131.82 113.88 130.54 116.62 129.18Z" fill="black"/>
<path d="M108.16 102.49C105.62 104.03 103.08 105.57 100.43 107.17C100.6 105.62 100.58 105.59 103.81 104.15C105.23 103.52 106.73 103.06 108.2 102.53C108.2 102.54 108.16 102.49 108.16 102.49Z" fill="black"/>
<path d="M65.4701 179.05C62.8401 180.83 60.4201 182.47 57.8501 184.21C58.2601 182.59 62.8501 179.54 65.4701 179.05Z" fill="black"/>
<path d="M20.18 102.53C18.87 104.43 17.12 105.82 15.04 106.79C16.16 104.66 18.34 103.81 20.18 102.53Z" fill="black"/>
<path d="M28.6702 208.57C28.3202 206.08 28.7702 203.77 29.7402 201.59C29.9502 201.64 30.1602 201.69 30.3602 201.73C29.8002 204.02 29.2302 206.29 28.6702 208.57Z" fill="black"/>
<path d="M91.1602 125.35C89.7202 126.52 88.2702 127.69 86.6602 129C87.0202 127.29 88.0502 126.37 91.1602 125.35Z" fill="black"/>
<path d="M87.5701 130.65C88.5001 128.16 89.29 127.41 91.61 126.65C90.26 127.99 88.9101 129.32 87.5701 130.65Z" fill="black"/>
<path d="M35.35 53.74C33.24 56.82 30.41 58.97 28.03 59.21C30.41 57.16 32.58 55.46 35.35 53.74Z" fill="black"/>
</svg>
