<?xml version="1.0" encoding="utf-8"?>
<!-- Generator: Adobe Illustrator 24.0.2, SVG Export Plug-In . SVG Version: 6.00 Build 0)  -->
<svg version="1.1" id="Layer_1" xmlns="http://www.w3.org/2000/svg" xmlns:xlink="http://www.w3.org/1999/xlink" x="0px" y="0px"
	 viewBox="0 0 307.24 263.6" style="enable-background:new 0 0 307.24 263.6;" xml:space="preserve">
<style type="text/css">
	.st0{fill:#FFFFFF;}
	.st1{fill:#EB584A;}
	.st2{fill:#BCBCBB;}
</style>
<g>
	<path class="st0" d="M69.76,28.62c0.1-1.17,0.29-2.48,1.23-3.17c0.84-0.61,1.98-0.51,3-0.31c9.27,1.82,16.18,9.47,24.68,13.61
		c10.02,4.88,21.77,4.64,32.78,2.93c11.02-1.7,21.87-4.76,33.01-5.16c5-0.18,10.5,0.38,14.03,3.93c3.68,3.7,4.08,9.72,2.46,14.69
		c-1.62,4.97-4.9,9.19-7.91,13.46c-4.4,6.24-8.35,12.8-11.8,19.62c-3.38,6.68-6.35,14.26-4.45,21.51c0.41,1.56,1.11,3.15,2.44,4.06
		c1.34,0.91,3.06,0.98,4.68,0.97c18.73-0.04,37.33-4.84,56.01-3.49c5.95,0.43,12.04,1.56,17.04,4.82
		c4.28,2.79,7.45,6.95,10.53,11.02c4.29,5.67,8.58,11.33,12.87,17c3.39,4.48,6.84,9.05,8.77,14.34c1.78,4.88,2.19,10.16,2.21,15.35
		c0.06,19.67-5.71,39.89-18.89,54.48c-1.02,1.13-2.16,2.27-3.64,2.64c-2.49,0.62-5.05-1.28-6.11-3.61c-1.07-2.34-1.04-5-1.1-7.57
		c-0.2-8.12-1.53-16.21-3.96-23.97c-1.82-5.85-5.37-12.37-11.47-12.94c-6.62-0.62-11.54,6.45-12.52,13.03
		c-0.98,6.58,0.37,13.42-1.28,19.87c-1.87,7.33-7.8,13.48-15.06,15.61c-0.87-5.98-1.73-11.96-2.6-17.94
		c-0.43-2.98-0.92-6.11-2.73-8.52c-3.5-4.65-10.58-4.82-16.04-2.82c-5.47,2-10.24,5.66-15.79,7.43c-6.31,2-13.47,1.52-19.12,4.98
		c-4.55,2.79-7.3,7.67-10.43,12c-3.13,4.33-7.38,8.55-12.72,8.83c-2.87,0.15-5.83-0.88-8.56,0c-6.52,2.09-8.5,13.62-15.21,12.28
		c-2.85-0.57-4.63-3.62-4.8-6.52s0.88-5.72,1.76-8.49c3.61-11.36,4.45-24.44-1.76-34.61c-5.57-9.11-16.12-14.81-19.99-24.76
		c-1.96-5.03-1.96-10.59-1.84-15.99c0.52-23.24,4.12-45.78,6.39-68.82c0.82-8.3-2.48-16.1-3.47-24.31
		C68.99,52.31,68.78,40.41,69.76,28.62z"/>
	<path d="M114.63,110.02c-1.47,0.78-3.05,1.14-4.64,1.47c-0.08,0.02-0.2-0.14-0.3-0.21C110.93,109.98,112.52,109.53,114.63,110.02z"
		/>
	<path d="M107.99,109.18c1.86-0.96,3.27-2.39,5.34-2.3c0.07,0,0.13,0.2,0.19,0.3c-0.07,0.1-0.12,0.26-0.22,0.3
		c-1.58,0.7-3.16,1.39-4.74,2.07l-0.18-0.05C108.32,109.46,108.28,109.41,107.99,109.18z"/>
	<path d="M126.66,91.13c0.81,0.24,1.28,0.41,1.77,0.52c0.29,0.06,0.7-0.34,0.61-0.6c-0.07-0.21-0.27-0.47-0.47-0.53
		C128.04,90.36,127.9,90.43,126.66,91.13z"/>
	<path d="M123.4,92.4c0.27-0.21,0.49-0.34,0.65-0.52c0.2-0.23,0.12-0.47-0.09-0.68c-0.21-0.21-0.48-0.31-0.68-0.1
		c-0.2,0.21-0.37,0.51-0.41,0.79C122.85,92.02,123.18,92.2,123.4,92.4z"/>
	<path d="M123.41,96.36c0.13-0.18,0.39-0.4,0.45-0.67c0.09-0.38-0.22-0.64-0.56-0.64c-0.19,0-0.48,0.21-0.56,0.4
		C122.57,95.82,122.91,96.31,123.41,96.36z"/>
	<path d="M105.09,91.13c-0.81,0.24-1.28,0.41-1.77,0.52c-0.29,0.06-0.7-0.34-0.61-0.6c0.07-0.21,0.27-0.47,0.47-0.53
		C103.71,90.36,103.84,90.43,105.09,91.13z"/>
	<path d="M108.35,92.4c-0.27-0.21-0.49-0.34-0.65-0.52c-0.2-0.23-0.12-0.47,0.09-0.68c0.21-0.21,0.48-0.31,0.68-0.1
		c0.2,0.21,0.37,0.51,0.41,0.79C108.89,92.02,108.57,92.2,108.35,92.4z"/>
	<path d="M108.34,96.36c-0.13-0.18-0.39-0.4-0.45-0.67c-0.09-0.38,0.22-0.64,0.56-0.64c0.19,0,0.48,0.21,0.56,0.4
		C109.17,95.82,108.84,96.31,108.34,96.36z"/>
	<path class="st1" d="M38.55,120.68c-0.21,1.08-0.13,1.77-0.43,2.08c-5.17,5.32-8.44,12.24-14.29,16.97
		c-0.56,0.45-1.19,0.81-2.22,0.83c0.17-0.5,0.18-1.17,0.53-1.48c4.58-4.13,7.68-9.48,11.69-14.08c0.86-0.98,1.71-1.97,2.64-2.88
		C36.92,121.68,37.53,121.38,38.55,120.68z"/>
	<path class="st1" d="M34.59,113.29c-3.58,0-6.97,0.01-10.36,0c-3.62-0.01-7.21-0.33-10.7-1.37c-0.83-0.25-1.87-0.45-1.27-2.04
		c0.81,0.1,1.7,0.07,2.52,0.32c4.1,1.26,8.3,1.25,12.51,1.15c1.9-0.04,3.81-0.09,5.71-0.16C34.27,111.13,34.89,111.63,34.59,113.29z
		"/>
	<path class="st1" d="M266.4,117.84c0.78-1.21,1.04-1.75,1.43-2.19c3.03-3.47,6.09-6.93,9.14-10.39c0.99-1.13,1.9-2.33,2.96-3.38
		c0.33-0.32,1.03-0.26,1.56-0.38c0.03,0.54,0.26,1.2,0.03,1.59c-0.54,0.95-1.14,1.97-1.99,2.61c-3.42,2.58-5.91,5.99-8.68,9.17
		c-0.79,0.91-1.51,1.89-2.38,2.71C268.19,117.84,267.53,117.71,266.4,117.84z"/>
	<path class="st1" d="M19.56,84.6c0.27,0.03,0.63-0.03,0.81,0.11c6.2,5.08,12.38,10.18,18.64,15.34c-0.57,1.33-1.42,0.73-2.12,0.23
		c-2.12-1.53-4.27-3.03-6.28-4.69c-3.1-2.56-6.11-5.21-9.12-7.87c-0.87-0.77-1.58-1.72-2.37-2.59
		C19.27,84.95,19.42,84.77,19.56,84.6z"/>
	<path class="st1" d="M271.78,139.59c0.86-1.27,1.5-0.87,2.03-0.38c1.18,1.09,2.26,2.28,3.45,3.35c3.05,2.75,6.14,5.44,9.19,8.19
		c0.76,0.68,1.91,1.25,1.1,2.94C281.1,150.18,276.98,144.34,271.78,139.59z"/>
	<path class="st1" d="M295.16,124.07c0,0.6,0,1.08,0,1.6c-0.35,0.09-0.62,0.22-0.9,0.23c-4.11,0.14-8.22,0.19-12.32,0.43
		c-1.88,0.11-3.75,0.58-5.61,0.94c-0.83,0.16-1.6,0.39-2-0.92c0.43-0.26,0.87-0.68,1.39-0.8c1.76-0.4,3.53-0.88,5.32-0.98
		C285.62,124.31,290.23,124.24,295.16,124.07z"/>
	<path class="st2" d="M84.92,53.07c0.66,0.8,1.35,1.87,0.88,2.8c-0.21,0.42-0.63,0.69-1.02,0.95c-3.15,2.03-6.3,4.07-9.45,6.1
		c-0.67,0.43-1.4,0.89-2.2,0.85c-1.53-0.06-2.41-1.84-2.45-3.37c-0.02-0.96,0.15-1.93,0.52-2.82c0.84-2.07,2.45-3.69,3.22-5.8
		c0.55-1.51,0.3-5.13,1.5-6.29C78.61,42.88,82.97,50.69,84.92,53.07z"/>
	<path class="st2" d="M149.92,52.37c0.3-0.71,0.89-1.25,1.49-1.73c4.71-3.86,10.67-5.85,16.62-7.17c1.24-0.27,2.54-0.52,3.76-0.17
		c1.22,0.35,2.31,1.48,2.18,2.74c-0.16,1.46-1.73,2.28-3.14,2.7c-3.26,0.97-7.12,1.42-9.03,4.24c-1.2,1.78-1.27,4.07-1.17,6.22
		c0.04,0.82,0.09,1.69-0.31,2.4c-0.35,0.63-1.01,1.05-1.7,1.28C154.91,64.1,148.61,55.43,149.92,52.37z"/>
	<path class="st2" d="M110.51,209.84c-0.43-5.27-0.41-11.08,2.91-15.19c2.14-2.66,5.36-4.19,8.51-5.51
		c7.13-2.97,14.53-5.28,22.09-6.87c-1.24,5.03-4.68,9.19-8.02,13.16c-0.75,0.89-1.52,1.8-2.55,2.35c-0.89,0.48-1.92,0.65-2.9,0.88
		c-8.25,1.95-15.02,9.13-16.47,17.48c-0.19,1.12-1.29,9.83-3.53,5.77c-0.52-0.95,0.42-4.9,0.38-6.14
		C110.87,213.79,110.67,211.81,110.51,209.84z"/>
	<path class="st2" d="M218.69,194.48c3.14-1.37,6.31-2.75,9.01-4.85c-5.81-2.46-11.18-5.95-15.79-10.26
		c-1.58-1.47-3.34-3.15-5.5-3.05c-1.79,0.09-3.26,1.41-4.45,2.75c-2.77,3.12,14.54,13.72,11.7,16.77
		c-8.48,9.1-36.87,11.6-48.67,15.89c4.72,0,10.54-2.18,15.14-3.32c2.99-0.74,5.88-1.74,8.81-2.68
		C199.1,202.48,208.9,198.74,218.69,194.48z"/>
	<path class="st2" d="M169.04,125.88c5.41,0.73,10.89-0.53,16.07-2.23c5.18-1.71,10.23-3.87,15.56-5.05
		c4.19-0.93,8.51-1.23,12.68-2.27c0.33-0.33-0.17-0.83-0.6-1.02c-4.3-1.89-8.7-3.74-13.38-4.21c-4-0.4-8.02,0.22-11.98,0.85
		c-8.47,1.33-17.74,1.8-25.99,4.09C152.01,118.64,164.4,125.88,169.04,125.88z"/>
	<path class="st2" d="M77.18,131.03c0.45,2.38,0.46,4.81,0.47,7.23c0.03,12.45,0.02,24.91-0.04,37.36c0,0.93-0.08,2-0.85,2.53
		c-1.22,0.85-2.77-0.49-3.56-1.75c-3.94-6.37-4.93-14.07-5.82-21.51c-1.29-10.71-2.57-21.42-3.86-32.12
		c-0.33-2.77-2.79-10.46,0.55-11.95c3.32-1.48,5.47,4.82,6.81,6.94C73.52,121.89,76.24,126.13,77.18,131.03z"/>
	<path class="st2" d="M109.41,113.68c-0.71-1.52-2.92-11.73-5.84-9.25c-1.21,1.02,1.12,4.08,1.74,5.23
		c0.49,0.91,0.89,2.01,1.65,2.74C107.26,112.69,109.41,113.68,109.41,113.68z"/>
	<path class="st1" d="M120.2,13.67c1.79-0.74,3.77-1.49,5.62-0.89c2.18,0.71,3.42,3.19,3.28,5.48c-0.14,2.29-1.37,4.37-2.8,6.16
		c-3.03,3.78-7.08,6.65-10.13,10.42c-1.85-2.2-4.24-3.95-6.91-5.05c-1.9-0.79-4-1.28-5.54-2.66c-1.99-1.79-2.57-4.64-3.03-7.27
		c-0.19-1.07-0.38-2.17-0.2-3.24c0.18-1.07,0.8-2.13,1.81-2.54c0.83-0.34,1.76-0.19,2.63,0.01c1.48,0.34,2.92,0.83,4.31,1.45
		c1.01,0.45,3.47,2.57,4.42,2.55c1.09-0.02,1.72-1.58,2.61-2.32C117.41,14.83,118.84,14.23,120.2,13.67z"/>
	<path class="st2" d="M127.89,101.07c-0.21,1.86-2.22,12.06-5.6,8.03c-1.24-1.47,0.04-4.34,0.96-5.64
		C123.56,103.03,128,100.11,127.89,101.07z"/>
	<path d="M70.58,78.15c1.81,1.06,1.91,2.77,1.47,4.47c-0.45,1.74-1.12,3.44-1.88,5.07c-1.48,3.19-3.08,6.32-4.66,9.46
		c-0.65,1.29-1.22,2.41-0.2,3.9c0.55,0.82,0.51,2.12,0.52,3.2c0.04,3.02-0.2,6.04-0.02,9.05c0.3,5.1,0.82,10.19,1.3,15.8
		c1.65-2.93,3.14-5.35,4.4-7.88c1.3-2.6,2.43-5.29,3.55-7.97c1.1-2.61,1.79-5.42,4.11-8.19c0.13,1.21,0.43,1.91,0.22,2.4
		c-2.24,5.15-4.52,10.29-6.88,15.39c-1.39,3.01-2.95,5.94-4.4,8.92c-0.22,0.44-0.43,0.95-0.43,1.42c0.06,3.51,0.11,6.99,1.13,10.44
		c2,6.77,5.36,12.97,7.84,19.54c1.17,3.09,2.48,6.12,3.68,9.2c0.28,0.71,0.35,1.5,0.58,2.5c-2.08-0.61-3.02-1.89-3.62-3.55
		c-1.22-3.4-2.41-6.81-3.72-10.17c-1.09-2.8-2.35-5.53-3.67-8.62c-0.78,2.3,0.05,4.16,0.24,6.03c0.23,2.29,0.73,4.56,1,6.85
		c0.26,2.11,0.65,4.07,1.97,5.89c0.84,1.16,1.05,2.79,1.52,4.21c0.72,2.21,2.05,3.63,4.54,3.65c0.49,0,0.98,0.12,1.75,0.23
		c-0.09-1.16-0.16-2.17-0.27-3.54c2.05,1.01,2.23,2.87,3.16,4.31c-1.49,1.37-3.23,0.47-4.72,0.89c0.86,2.25,1.89,3.39,6.66,7.31
		c-0.69,0.29-1.25,0.52-1.95,0.81c1.41,1.93,2.85,3.91,4.29,5.88c0.7,0.1,1.43-1.03,2.05,0.1c0.14,0.26,0.36,0.5,0.46,0.77
		c2.41,6.78,5.94,13.2,6.15,20.68c0.13,4.6,0.67,9.2,1.19,13.79c0.21,1.88-0.53,3.07-1.96,4.02c-1.59,1.06-3.21,2.07-4.8,3.11
		c-1.86,1.21-3.09,2.83-3.36,5.1c-0.18,1.49,0.13,2.77,1.59,3.88c0.27-0.49,0.65-0.86,0.68-1.27c0.2-2.95,2.08-4.7,4.33-6.17
		c0.39-0.25,1.25-0.33,1.53-0.08c0.71,0.65,0.24,1.33-0.44,1.68c-2.41,1.26-3.25,3.4-3.55,6.01c2.79,1.79,5.92,1.62,8.98,2.03
		c1-2.58,1.54-5.22,3.87-6.95c1.2,0.36,1.23,1.08,0.63,2.01c-0.92,1.43-2.02,2.78-1.91,4.84c2.39,0.08,4.74-0.63,6.34-2.05
		c1.74-1.55,1.92-4.21,1.45-6.5c-0.27-1.3-0.61-2.64-2.15-3.62c-2.7-1.73-3.43-6.75-1.8-9.54c0.65-1.13,1.25-2.36,2.17-3.24
		c3.15-3,3.68-7.01,4.5-10.92c0.25-1.17,0.39-2.37,0.61-3.55c0.92-4.89,4.33-7.45,8.63-9.16c2.61-1.03,5.21-2.09,7.85-3.06
		c1.69-0.63,3.42-1.16,5.15-1.68c0.73-0.22,0.75-0.15,2.07,0.89c-2.48,2.06-5.04,3.84-7.98,5.21c-4.38,2.04-8.42,4.69-11.31,8.71
		c-0.78,1.08-1.29,2.34-2.12,3.88c2.27-0.23,3.79-1.59,6.32-1.12c-1.79,0.75-2.94,1.32-4.15,1.72c-2.02,0.66-3.05,2.01-3.29,4.26
		c2.52-0.94,4.71-2.41,7.36-2.58c-2.63,1.83-5.92,2.56-8.35,4.99c0.6,0.79,1.12,1.48,1.75,2.31c-1.89,0.99-4.06,1.57-5,3.63
		c-0.39,0.85-0.47,1.84-0.84,3.37c2.05-1.34,3.51-2.29,4.95-3.23c1.06,1.02,0.29,1.53-0.24,2.1c-0.88,0.94-1.92,1.79-2.59,2.86
		c-0.97,1.55-0.58,2.71,1.17,3.31c1.58,0.54,3.3,0.69,4.94,1.01c1.1-2.13,1.86-4.33,4.29-4.94c0.41-0.11,0.97,0.35,1.64,0.62
		c-1.15,1.42-3.52,1.63-2.95,4.12c3.87-0.33,7.01-1.83,8.65-5.46c1.23-2.72,2.32-5.5,2.95-8.51c0.54-2.6,1.91-5.05,3.09-7.47
		c0.28-0.57,1.22-0.97,1.93-1.14c2.44-0.59,4.91-1.06,7.37-1.56c0.59-0.12,1.21-0.37,1.78-0.29c4.1,0.6,7.67-1.19,11.38-2.38
		c1.15-0.37,2.25-0.89,3.39-1.26c1.7-0.55,1.86-0.43,2.46,1.43c0.06,0.19,0.13,0.37,0.21,0.54c0.04,0.08,0.14,0.14,0.31,0.3
		c0.8-0.19,1.73-0.27,2.53-0.63c4.17-1.88,8.7-2.4,13.06-3.52c3.3-0.85,6.55-1.87,9.83-2.81c1.54-0.45,3.07-1,4.64-1.33
		c4.96-1.01,9.58-2.97,14.19-4.99c4.14-1.81,8.29-3.57,12.45-5.35c1.32-0.56,2.64-0.63,4.33-0.06c-1.63,2.09-3.98,1.84-5.7,2.85
		c-1.9,1.11-3.92,2.03-5.94,2.91c-1.93,0.84-3.95,1.49-5.9,2.28c-2.05,0.83-4.05,1.77-6.12,2.56c-1.97,0.74-4,1.34-6.16,2.06
		c0,1.48-0.11,2.96,0.03,4.42c0.17,1.82-0.29,3.32-1.5,4.71c-1.44,1.67-2.8,3.43-4.07,5.23c-1.01,1.44-1.36,3.02-0.07,5.34
		c1.17-4.29,2.42-7.87,6.47-9.27c1.01,0.91,1.43,1.66,0.3,2.59c-3.58,2.98-3.67,3.15-4.13,7.48c2.22,1.01,6.13,1.1,8.33,0.32
		c0.81-2.24,1.48-4.31,2.33-6.3c0.34-0.79,1.06-1.45,1.71-2.07c0.54-0.51,1.34-0.79,1.81-0.02c0.21,0.35,0.05,1.21-0.26,1.55
		c-1.38,1.52-2.29,3.22-2.72,5.45c1.91-1.2,3.77-2.13,5.3-3.45c0.81-0.7,1.2-2.05,1.48-3.18c0.92-3.74,0.94-7.56,0.87-11.39
		c-0.03-1.31-0.08-2.62-0.03-3.92c0.03-0.65,0.28-1.28,0.44-2c1.23,0.23,1.42,1.01,1.48,1.8c0.42,5.52,0.61,11.08-0.76,16.48
		c-0.7,2.76-2.01,5.39-4.67,7.07c-2.99,1.89-5.97,3.63-9.61,4.05c-1.89,0.22-3.56-0.6-5.3-0.69c-2.88-0.15-4.58-1.82-6.15-3.77
		c-2.11-2.6-2.18-4.68-0.3-7.43c0.9-1.32,1.93-2.58,3.05-3.73c2.27-2.32,2.33-5.12,2.27-8.26c-10.08,2.67-19.85,5.26-29.83,7.9
		c-0.22-1.08-0.39-1.92-0.59-2.92c-0.34,0-0.75-0.09-1.1,0.01c-3.57,1.02-7.1,2.17-10.69,3.09c-2.71,0.69-5.48,1.15-8.24,1.59
		c-1.9,0.31-3.44,0.94-4.14,2.92c-0.77,2.17-1.62,4.3-2.45,6.44c-1.23,3.18-2.4,6.39-3.74,9.52c-1.11,2.6-3.64,3.96-5.65,5.71
		c-0.68,0.59-2.11,0.55-3.16,0.44c-3.36-0.36-6.71-0.88-10.06-1.35c-0.31,3.02-0.64,6.26-0.97,9.59c-4.11,1.55-7.72,3.9-12.23,3.27
		c-1.18-0.16-2.41,0.06-3.61,0.13c-4.24,0.25-7.55-1.9-10.57-4.41c-1.82-1.52-1.97-3.96-1.48-6.18c0.43-1.96,1.32-3.75,3.19-4.93
		c2.62-1.65,5.13-3.45,8.09-5.46c0-0.31,0.04-1.1-0.01-1.88c-0.32-4.9-0.47-9.83-1.05-14.71c-0.45-3.77-1.3-7.51-2.85-11.04
		c-0.76-1.73-1.28-3.6-3.33-4.35c-0.34-0.13-0.61-0.52-0.86-0.83c-3.98-4.92-7.99-9.82-11.92-14.78c-0.87-1.09-1.5-2.38-2.17-3.61
		c-0.53-0.95-0.86-1.9-2.17-2.27c-0.58-0.17-1.09-1.35-1.25-2.15c-0.76-3.74-1.44-7.5-2.06-11.27c-0.78-4.75-1.53-9.51-2.19-14.29
		c-0.38-2.78-0.61-5.59-0.81-8.4c-0.54-7.81-1.13-15.61-2.27-23.38c-0.62-4.26-0.65-8.6-0.95-13.02c-1.04,0.25-2.08,0.51-3.35,0.82
		c-0.08-0.7-0.37-1.35-0.17-1.73c1.35-2.56,2.93-4.99,4.19-7.59c2.37-4.87,4.6-9.81,6.83-14.74c0.53-1.18,0.84-2.47,1.26-3.7
		L70.58,78.15z"/>
	<path d="M182.96,111.27c0.13,0.56,0.25,1.11,0.46,2.02c2.7-0.88,5.26-1.7,7.82-2.54c3.44-1.13,6.87-2.25,10.3-3.4
		c1.16-0.39,2.13-0.06,2.45,1.04c0.5,1.73,1.81,2.03,3.22,2.19c1.6,0.18,3.21,0.23,4.81,0.35c6.51,0.47,13.02,0.96,19.54,1.41
		c3.72,0.26,6.92,1.99,10.43,3.47c-0.1,0.45-0.19,0.88-0.28,1.3c3.03,3.3,6.2,6.64,9.24,10.09c4.94,5.6,9.25,11.62,12.03,18.63
		c0.63,1.58,1.4,3.12,2.23,4.61c0.57,1.01,0.28,1.68-0.49,2.34c-0.55-0.11-1.11-0.22-1.99-0.4c1.9,5.76,2.08,11.44,1.63,17.17
		c-0.62,7.84-1.94,15.53-4.39,23.04c-2.04,6.27-2.91,12.6-1.73,19.29c1.16,6.58-1,12.5-5.63,17.4c-0.6,0.63-1.43,1.16-2.26,1.45
		c-7.11,2.46-11.08,1.74-15.89-2.65c-1.63-1.49-2.05-3.47-1.91-5.5c0.12-1.77,0.51-3.5,1.57-5.1c1.61-2.41,2.77-4.92,2.69-8.1
		c-0.09-3.14,0.61-6.34,1.26-9.45c0.31-1.49-0.09-2.28-1.19-3.03c-4-2.69-7.99-5.38-11.99-8.08c-4.92-3.31-9.92-6.51-14.73-9.97
		c-3.48-2.49-6.38-5.56-6.86-10.23c-1.43,0.61-2.66,1.13-4.11,1.75c-0.17-0.75-0.48-1.29-0.34-1.63c2.6-6.3,4.34-12.95,7.64-18.97
		c0.48-0.88,0.85-1.83,2.24-2c0.67,1.24,0.29,2.46-0.19,3.62c-1.3,3.15-2.66,6.28-4,9.42c-0.51,1.19-1.01,2.39-1.63,3.87
		c0.84-0.09,1.39-0.15,2.29-0.25c0.24,0.74,0.7,1.54,0.72,2.34c0.09,4.84,2.74,8.12,6.51,10.6c7.14,4.68,14.38,9.2,21.55,13.82
		c2.08,1.34,4.27,2.61,6.08,4.27c1.18,1.09,1.76,2.83,2.68,4.39c-3.64,1.36-2.22,4.16-2.35,6.94c1.53-0.48,2.78-0.87,4.04-1.27
		c0.06,0.13,0.13,0.27,0.19,0.4c-1.38,0.83-2.76,1.66-4.51,2.7c1.94,0.55,3.24-0.58,4.81-0.08c-1.14,0.46-2.32,0.85-3.39,1.42
		c-0.65,0.35-1.62,0.98-1.64,1.52c-0.11,3.11-2.14,5.38-3.28,8.02c-0.51,1.19-1.28,2.31-0.54,3.91c0.66-1.41,1.1-2.76,1.87-3.88
		c0.8-1.17,1.75-2.47,3.92-1.89c-0.49,0.77-0.78,1.37-1.19,1.86c-1.48,1.76-2.25,3.75-2.26,6.08c0,1.66,0.29,2.24,1.71,2.7
		c2.53,0.82,4.91,0.67,7.77-0.55c0.14-2.69,0.1-5.58,2.27-7.75c0.5-0.5,1.22-0.77,2.34-1.45c-0.31,3.26-3.28,5.12-2.21,8.27
		c1.83-1.47,3.76-2.76,4.52-5c1.03-3.05,1.8-6.18,1.21-9.46c-0.21-1.19-0.53-2.38-0.53-3.57c-0.01-2.19,0.06-4.39,0.31-6.57
		c0.29-2.48,0.82-4.94,1.26-7.48c-2.33-1.8-5.01-2.66-7.62-3.63c-1.04-0.39-2.15-0.61-3.1-1.15c-0.73-0.41-1.65-1.1-1.8-1.81
		c-0.34-1.57-1.31-1.89-2.6-1.94c-2.13-0.08-4.14-0.42-5.95-1.75c-0.67-0.49-1.72-0.49-2.61-0.65c-2.72-0.5-5.14-1.63-7.42-3.18
		c-1.22-0.83-2.62-1.46-4.01-1.98c-3.01-1.12-6.08-2.07-9.1-3.17c-0.8-0.29-1.48-0.88-2.1-1.92c0.59-0.03,1.23-0.22,1.75-0.05
		c3.62,1.18,7.21,2.43,10.81,3.66c1.61,0.55,3.1,1.15,4.49,2.3c1.95,1.62,4.45,2.27,7,2.49c1.49,0.13,2.85,0.31,4.17,1.36
		c0.9,0.71,2.46,0.7,3.75,0.78c1.9,0.11,3.32,0.56,3.65,2.76c0.09,0.57,0.67,1.32,1.21,1.54c3.25,1.32,6.55,2.51,9.99,3.81
		c0.28-0.5,0.64-0.98,0.82-1.51c2.78-8.38,3.76-17.04,4.11-25.81c0.17-4.38-0.82-8.58-1.97-12.76c-0.13-0.48-0.29-0.94-0.48-1.57
		c0.71-0.43,1.34-0.82,2.02-1.23c-0.04-0.3-0.02-0.61-0.13-0.87c-2.04-5.04-4.72-9.68-7.83-14.18c-2.94-4.25-6.5-7.91-9.65-11.94
		c-1.41-1.8-3.28-3.25-5.05-4.73c-0.55-0.46-1.45-0.63-2.21-0.67c-6.11-0.4-12.26-0.48-18.34-1.17c-4.67-0.52-9.29-1.67-13.87-2.78
		c-1.25-0.3-2.3-1.48-3.82-2.52c-3.95,1.38-8.28,2.94-12.65,4.39c-1.71,0.57-3.49,0.93-5.26,1.31c-0.68,0.15-1.6,0.41-2.06,0.09
		c-2.53-1.73-5.08-0.57-7.49-0.02c-5.55,1.28-11.05,2.05-16.7,0.75c-0.56-0.13-1.23,0.27-2.06,0.47c-0.92-2.57-1.53-5.09-0.21-7.76
		c0.4-0.8,0.57-1.71,0.85-2.57c0.15-0.47,0.18-1.12,0.51-1.38c2.11-1.64,2.4-4.34,3.83-6.36c0.77-1.09,0.68-2.25,0.05-3.42
		c-3.65-6.82-1.71-13.05,2.2-18.95c1.38-2.08,3.16-3.88,4.76-5.81c4.9-5.9,9.36-12.07,12.18-19.28c1.1-2.8,2.28-5.57,3.46-8.45
		c-0.7-0.77-1.65-1.35-1.32-2.85c0.66-3.05-0.99-4.8-4.13-4.49c-1.59,0.16-3.14,0.66-4.7,1.05c-4.38,1.09-8.78,2.17-13.14,3.34
		c-1.72,0.46-3.39,1.14-5.07,1.74c-3.03,1.07-6.06,2.13-9.07,3.25c-1.22,0.45-2.42,0.99-3.57,1.59c-1.01,0.53-1.7,0.37-2.38-0.99
		c0.9-0.75,1.77-1.71,2.84-2.32c2.18-1.24,4.47-2.28,6.73-3.4c0.36-0.18,0.74-0.34,1.13-0.4c8.39-1.24,16.22-4.43,24.23-6.97
		c2.93-0.93,5.67-1.16,8.4,0.5c2.54,1.54,3.87,4.3,3.07,7.17c-0.72,2.6-1.63,5.16-2.66,7.65c-1.91,4.64-3.93,9.22-6.57,13.53
		c-2.7,4.41-6.05,8.26-9.35,12.18c-2.47,2.93-4.84,5.9-5.89,9.71c-1.1,3.97-1.49,7.88,0.71,11.6c1.16,1.96,1.07,3.61-0.21,5.55
		c-1.42,2.17-2.49,4.59-3.54,6.97c-0.72,1.63-0.49,3.44,0.26,4.98c0.36,0.75,1.47,1.36,2.35,1.58c2.73,0.69,5.4-0.07,8-0.83
		c3.28-0.95,6.52-2.05,9.74-3.17c1.03-0.35,1.83-0.59,2.69,0.4C181.44,111.23,182.31,111.14,182.96,111.27z"/>
	<path d="M96.26,90.58c0.54,1.22,0.98,2.1,1.32,3.01c1.84,4.98,5.2,6.17,10.38,5.44c2.7-0.38,4.34-2.61,5.43-4.86
		c-2.17-3.38-4.23-6.56-6.3-9.78c1.13-2.81,3.46-3.94,6.05-4.5c2.49-0.54,5.01-0.32,7.34,0.84c0.8,0.4,1.61,0.88,2.24,1.49
		c2.18,2.15,2.18,4.08-0.07,6.15c-2.27,2.09-4.67,4.04-7.01,6.06c4.13,5.21,9.09,5.87,14.31,1.98c1.7-1.27,3.34-2.54,4.54-4.34
		c0.45-0.68,1.23-1.14,1.88-1.72c1.04,1.17,0.53,1.95-0.07,2.63c-1.19,1.35-2.41,2.69-3.68,3.97c-1.1,1.1-2.23,2.04-3.09,3.5
		c-0.94,1.61-2.92,2.68-4.58,3.79c-1.33,0.89-2.21,1.74-2.36,3.51c-0.28,3.44-2.53,5.56-5.53,6.94c-2.16,0.99-4.25,0.87-6.27-0.5
		c-2.81-1.9-4.95-5.2-5.47-8.89c-5.11-1.93-7.3-6.6-9.44-11.27C95.49,93.18,94.8,92.04,96.26,90.58z M114.85,96.85
		c-1.55,1.21-3.03,2.22-4.33,3.41c-1.96,1.78-3.02,4.2-2.6,6.72c0.49,2.9,2.54,4.94,5.27,6.15c0.43,0.19,1.01,0.3,1.44,0.17
		c2.74-0.82,4.94-2.36,5.7-5.27c0.74-2.83,0.66-5.65-1.53-7.9C117.55,98.86,116.05,97.83,114.85,96.85z"/>
	<path d="M70.64,78.09c-2.61,0.2-2.83,0.15-3.45-2.13c-0.71-2.61-1.02-5.34-1.84-7.91c-1.46-4.58-3.2-9.07-4.77-13.61
		c-0.49-1.42-0.96-2.86-1.23-4.33c-0.98-5.33-1.96-10.65-2.75-16.01c-0.49-3.33,0.24-6.49,2.93-8.77c2.45-2.08,5.32-3.3,8.58-2.35
		c5.86,1.71,11.04,4.69,15.65,8.69c1.13,0.98,2.41,1.77,3.64,2.62c1.59,1.11,2.87,2.34,1.53,4.64c3.27,2.75,6.41,5.38,9.77,8.2
		c3.31-1.52,6.56-3.01,9.99-4.58c0.37,0.62,0.75,1.26,1.24,2.08c2.32-0.38,4.72-0.62,7.05-1.17c4.45-1.05,8.96-1.2,13.49-1.01
		c2.37,0.1,4.4,1.11,6.8,2.82c-1.79,0.28-3.01-0.04-4.15-0.28c-4.64-0.96-9.23-0.25-13.8,0.33c-3.67,0.47-7.3,1.29-10.94,2.04
		c-1.3,0.27-2.14-0.12-2.58-1.53c-1.94,0.79-3.71,1.46-5.44,2.25c-1.32,0.6-2.43,0.47-3.66-0.34c-4.07-2.68-7.35-6.22-10.76-9.63
		c-0.28-0.28-0.74-0.74-0.66-0.95c0.72-1.92-0.99-2.33-1.91-3.22c-3.72-3.63-8.4-5.81-12.79-8.43c-1.83-1.09-3.86-1.19-5.85-0.92
		c-0.87,0.12-1.65,0.98-2.47,1.5c-1.26-0.54-1.73,0.03-1.98,1.7c0.92-0.79,1.47-1.27,2.02-1.75c-1.33,2.94-2.4,5.92-2.22,9.25
		c0.23,4.24,1.3,8.29,2.52,12.31c1.08,3.55,2.48,7.01,3.3,10.61c1.27,5.57,2.47,11.14,4.58,16.47c0.44,1.12,0.76,2.3,0.09,3.47
		L70.64,78.09z"/>
	<path d="M113.8,17.01c0.37-0.44,0.7-0.8,0.98-1.19c1.72-2.33,4.06-3.52,6.92-3.66c1.4-0.06,2.81-0.09,4.21,0.01
		c3.08,0.22,4.29,1.65,3.72,4.73c-0.32,1.74-0.9,3.57-1.86,5.04c-2.36,3.6-4.96,7.04-7.55,10.48c-0.9,1.19-2,2.25-3.1,3.28
		c-0.69,0.64-1.54,1.12-2.66,1.91c-0.38-2.36-1.8-3.31-3.38-4.19c-1.84-1.02-3.58-2.21-5.36-3.34c-4.23-2.68-6.27-6.53-6.39-11.54
		c-0.06-2.68,1.13-4.6,2.99-6.28c1.06-0.96,2.24-0.77,3.36-0.16c2.41,1.33,5.34,1.81,7.01,4.37
		C112.86,16.74,113.36,16.8,113.8,17.01z M127.31,14.44c-2.11-0.81-4.37-0.69-6.45-0.11c-2.54,0.72-4.84,1.98-4.83,5.27
		c0,0.82-0.54,1.64-1.03,3.02c-1.09-1.3-1.87-2.14-2.55-3.07c-1.84-2.51-4.35-3.8-7.39-4.02c-1.56-0.12-2.7,0.61-2.61,1.83
		c0.18,2.51,0.05,5.21,2.3,7.15c1.29-0.9,2.48-1.73,3.65-2.55c0.36,0.96,0.62,1.66,0.87,2.33c-0.91,0.86-1.83,1.73-2.83,2.68
		c3.04,2.9,6.63,4.24,9.85,6.05c0.3-0.11,0.53-0.13,0.66-0.26c4.17-3.97,7.39-8.68,10.23-13.64
		C127.99,17.7,128.24,16.1,127.31,14.44z"/>
	<path d="M148.51,99.24c1.11-1.76,2.22-3.51,3.21-5.06c-0.71-2.04-3.46-1.43-3.67-3.78c2.43-0.3,3.92,1.3,5.71,2.11
		c0.18,2.46-0.79,4.32-2.04,6.02c-2.12,2.89-3.3,6.23-4.19,9.59c-0.89,3.37-0.19,6.78,1.44,9.92c0.14,0.26,0.29,0.61,0.53,0.72
		c3.68,1.59,3.66,5.82,5.99,8.38c0.63,0.69,0.25,1.49-0.21,2.22c-0.89,1.42-1.74,2.87-2.64,4.38c0.55,0.39,0.85,0.64,1.18,0.84
		c1.92,1.2,2.63,2.58,1.78,4.49c-2.77,6.22-3.5,12.96-5.06,19.48c-0.35,1.46-0.37,2.99-0.63,4.47c-0.09,0.51-0.47,0.98-1.07,2.13
		c-0.56-2.1-0.66-3.54-0.42-4.95c0.85-4.94,1.7-9.89,2.72-14.8c0.49-2.34,1.37-4.6,2.04-6.9c0.11-0.37,0.09-0.78,0.14-1.27
		c-0.66-0.33-1.28-0.62-1.88-0.95c-1.47-0.81-1.8-1.37-1.14-2.91c0.82-1.93,1.87-3.75,3-5.95c-1.1-1.44-2.27-3.05-3.5-4.6
		c-2.31-2.9-3.7-6.18-4.29-9.82c-0.6-3.72,0.2-7.16,1.86-10.49c0.52-1.05,0.8-2.22,1.19-3.33L148.51,99.24z"/>
	<path d="M87.35,88.11c2.86-3.66,5.56-6.5,9.24-8.35c1.31-0.66,2.5-1.68,3.53-2.74c2.51-2.6,4.91-5.31,7.33-7.99
		c0.8-0.88,1.74-1.67,1.26-3.15c-0.15-0.46,0.17-1.19,0.48-1.68c2.04-3.26,2.4-6.98,2.99-10.64c0.1-0.65,0.32-1.28,1.01-2.03
		c0.24,0.53,0.7,1.07,0.69,1.6c-0.04,1.4-0.25,2.8-0.44,4.19c-0.35,2.65-1.43,5.12-1.46,7.89c-0.02,1.42-1.1,3.03-2.12,4.2
		c-3.09,3.56-6.14,7.23-9.67,10.33c-3.36,2.95-7.3,5.23-11,7.78C88.82,87.75,88.32,87.8,87.35,88.11z"/>
	<path d="M118.78,59.39c0.28,0.49,0.63,0.96,0.83,1.48c0.67,1.68,1.21,3.41,1.94,5.06c1.48,3.33,3.33,6.29,6.47,8.5
		c3.63,2.56,7.11,5.17,11.51,6.34c3.06,0.82,6,2.05,9.25,3.19c-0.55,0.27-0.99,0.65-1.46,0.69c-1.09,0.08-2.27,0.24-3.28-0.06
		c-5.89-1.74-11.7-3.67-16.32-8.01c-0.66-0.61-1.48-1.04-2.13-1.66c-1.08-1.03-2.44-1.97-3.06-3.25c-1.67-3.41-3.05-6.97-4.47-10.5
		c-0.18-0.46,0.03-1.07,0.07-1.61C118.35,59.5,118.56,59.44,118.78,59.39z"/>
	<path d="M149.67,50.91c2.05-2.22,4.86-3.03,7.33-4.38c2.66-1.45,5.46-2.45,8.41-3.16c2.8-0.68,5.55-1.55,8.32-2.33
		c1.91,1.14,3.11,2.62,3.31,4.81c0.14,1.6,0.04,1.81-1.77,3.44c-0.04-1.19-0.03-2.12-0.12-3.05c-0.18-1.89-0.89-2.57-2.74-2.27
		c-4.46,0.72-8.82,1.85-12.95,3.73c-2.46,1.12-4.9,2.31-7.35,3.46C151.39,51.48,150.66,51.88,149.67,50.91z"/>
	<path d="M80.91,48.55c-3.04-3.33-6.08-6.65-9.1-10c-0.06-0.07,0.12-0.35,0.26-0.73c0.32,0.08,0.73,0.08,0.99,0.28
		c0.7,0.56,1.37,1.17,2,1.82c3.96,4.11,7.9,8.24,12.19,12.72c-1.14,3.52-4.45,6.09-6.42,9.5c-0.39,0.67-1.3,1.03-2.08,1.61
		c-0.44-1.61-0.46-1.63,2.46-5.64c1.23-1.69,2.54-3.31,4.04-5.25c-1.43-1.43-2.89-2.89-4.36-4.34L80.91,48.55z"/>
	<path d="M153.9,174.16c-0.83,1.11-1.67,2.3-2.57,3.45c-2.22,2.84-4.4,5.7-6.71,8.46c-2.19,2.61-4.52,5.09-6.78,7.63l-0.23,0.19
		c-0.55,0.05-1.11,0.08-1.66,0.12c0.05-0.53-0.1-1.22,0.18-1.58c1.23-1.58,2.59-3.06,3.88-4.59c1.28-1.53,2.51-3.1,3.8-4.62
		c1.48-1.75,3-3.48,4.51-5.21c1.11-1.27,2.24-2.54,3.37-3.8C152.25,173.6,152.83,173,153.9,174.16z"/>
	<path d="M136.63,67.59c0.05,2.37-1.5,4.18-3.67,4.27c-2.08,0.09-3.83-1.57-3.9-3.7c-0.08-2.2,1.95-4.38,4.06-4.39
		C134.81,63.77,136.59,65.71,136.63,67.59z"/>
	<path d="M94.67,68.4c-0.01-1.77,1.61-3.33,3.52-3.4c2.24-0.08,3.94,1.5,3.89,3.65c-0.04,1.97-1.71,3.95-3.41,4.05
		C97.1,72.78,94.68,70.19,94.67,68.4z"/>
	<path d="M155.5,59.59c0.49,1.22,0.87,2.19,1.37,3.43c-2.19-0.04-2.33-1.75-3.16-2.67c-1-1.11-1.91-2.3-2.84-3.46
		c-0.84-1.06-1.67-2.14-2.58-3.31c1.7-1.09,2.16,0.29,2.84,0.91c0.8,0.73,1.49,1.58,2.09,2.23c1.86-0.36,3.51-0.68,5.17-1
		c0.08,0.14,0.16,0.28,0.25,0.43C157.61,57.27,156.59,58.39,155.5,59.59z"/>
	<path d="M81.35,91.65c-1.41,1.52-2.75,2.97-4.06,4.38c0.95,2.18,3.36,2.74,4.64,5.18c-3.14-0.81-5.16-2.05-6.48-4.3
		c-0.5-0.85-0.4-1.78,0.3-2.52c1.18-1.23,2.36-2.46,3.63-3.58C80.14,90.15,80.88,90.36,81.35,91.65z"/>
	<path d="M148.56,99.18c-1.38,1.53-2.79,3.04-4.13,4.6c-0.74,0.86-1.14,2.07-2.45,2.45c-0.46-3.05,1.86-6.41,5.88-8.56
		c0.23,0.54,0.44,1.05,0.66,1.57L148.56,99.18z"/>
	<path d="M118.58,58.08c-1.92-2.99-1.99-5.79-2.41-8.46c-0.07-0.42,0.45-0.94,0.75-1.49C118.32,49.86,119.07,54.08,118.58,58.08z"/>
	<path d="M94.75,60.22c2.44-3.07,6.38-2.67,8.87,0.69c-1.62,1.01-2.76-0.62-4.11-0.67C98.04,60.18,96.57,60.22,94.75,60.22z"/>
	<path d="M137.47,60.86c-1.78-1.11-3.53-2.09-5.66-0.56c-0.24-0.7-0.6-1.2-0.48-1.53c0.17-0.51,0.58-1.09,1.05-1.32
		c1.72-0.87,4.76,0.53,5.35,2.41C137.8,60.08,137.6,60.39,137.47,60.86z"/>
	<path d="M232.07,157.69c2.31-1.21,4.13-2.16,5.96-3.12C237.14,156.97,234.96,158.28,232.07,157.69z"/>
	<path d="M80.88,48.52c-1.91,1.62-4,2.94-6.58,4.25c1.32-2.46,3.38-3.69,6.6-4.23L80.88,48.52z"/>
	<path d="M168.53,155.25c0.23-2.27,1.22-2.95,5.05-3.35C171.63,153.19,170.15,154.17,168.53,155.25z"/>
	<path d="M230.85,155.28c1.47-1.98,3.23-3.01,5.27-3.93C235.31,153.2,233.66,154.45,230.85,155.28z"/>
	<path d="M103.77,183.82c0.52-2.05,2.11-3.15,4.21-3.81c-1.2,1.41-2.4,2.83-3.6,4.24C104.18,184.11,103.97,183.96,103.77,183.82z"/>
	<path d="M173.64,145.94c-1.01,1.48-2.16,2.79-4.48,3.64C170.34,147.32,171.76,146.35,173.64,145.94z"/>
	<path d="M77.69,47.28c-1.5,1.17-3.01,2.33-4.51,3.5C73.88,48.59,75.28,47.28,77.69,47.28z"/>
	<path d="M123.17,136.01c-1.6-0.58-3.2-1.16-5.2-1.89C120.25,133.42,120.99,133.67,123.17,136.01z"/>
	<path d="M107.84,184.1c1.07-2.23,2.74-2.66,4.4-3.45C111.15,182.51,110.89,182.72,107.84,184.1z"/>
	<path d="M184.28,179.01c1.64,0.57,2.74,1.72,3.46,3.27C186.1,181.7,184.93,180.63,184.28,179.01z"/>
	<path d="M115.62,135.81c1.87-0.29,2.94,0.98,4.1,2.1C118.09,137.76,116.88,136.75,115.62,135.81z"/>
	<path d="M180.52,182.43c2.04-0.32,3.05,0.71,3.35,2.65C182.75,184.2,181.63,183.31,180.52,182.43z"/>
	<path d="M93.79,145.41c2.4-1.97,2.4-1.97,4.89-1.94C97.27,144.63,95.94,145.14,93.79,145.41z"/>
	<path d="M95.1,141.48c-0.58,0.52-1.15,1.04-1.88,1.71c0-0.47-0.11-0.84,0.02-0.96c0.49-0.44,1.05-0.79,1.59-1.17
		C94.91,141.21,95.01,141.34,95.1,141.48z"/>
	<path class="st0" d="M97.87,66.92c0,0.49-0.4,0.89-0.89,0.89s-0.89-0.4-0.89-0.89s0.4-0.89,0.89-0.89S97.87,66.43,97.87,66.92z"/>
	<path class="st0" d="M132.19,66.16c0,0.49-0.4,0.89-0.89,0.89s-0.89-0.4-0.89-0.89s0.4-0.89,0.89-0.89S132.19,65.67,132.19,66.16z"
		/>
	<path class="st0" d="M113.3,82.88c1.02-0.3,2.08-0.48,3.15-0.55c0.14-0.01,0.25-0.01,0.36-0.01c0.31,0,0.49,0.03,0.84,0.18
		c0.35,0.15,0.86,0.42,1.7,0.87c0.18,0.1,0.41,0.03,0.51-0.15c0.1-0.18,0.03-0.41-0.15-0.51c-0.84-0.45-1.35-0.73-1.76-0.9
		c-0.41-0.18-0.75-0.24-1.13-0.24c-0.13,0-0.26,0.01-0.4,0.01c-1.12,0.07-2.24,0.26-3.32,0.58c-0.2,0.06-0.31,0.27-0.25,0.47
		C112.9,82.83,113.11,82.94,113.3,82.88L113.3,82.88z"/>
</g>
</svg>
