<svg width="169" height="320" viewBox="0 0 169 320" fill="none" xmlns="http://www.w3.org/2000/svg">
<path d="M145.301 239.116C143.879 237.188 141.552 236.166 139.836 234.486C135.136 229.903 136.229 222.3 136.158 215.732C135.994 199.234 126.523 184.721 120.119 169.363C115.912 169.481 111.576 168.787 107.522 168.482C90.3071 167.213 72.4225 165.086 57.5461 156.285C54.5379 161.89 51.9057 167.695 49.6966 173.652C44.914 186.531 42.0233 200.115 41.2125 213.84C41.095 215.743 41.0128 217.682 40.672 219.562C40.8835 219.621 41.095 219.703 41.2713 219.809C42.7636 220.679 42.9399 222.371 42.3289 223.828C41.6591 225.402 40.86 226.883 39.9787 228.293C42.0116 228.681 42.9281 231.654 41.4241 233.322C35.6427 239.774 30.7074 247.153 27.3349 255.155C25.7721 258.857 24.597 262.711 23.939 266.648C24.2445 271.959 25.1845 277.258 26.7356 282.37C27.3232 283.31 27.9107 284.25 28.4747 285.167C30.7544 288.845 33.0105 292.546 34.7379 296.506C36.2772 300.043 37.1233 304.05 38.7331 307.329C39.1092 308.092 39.5204 308.844 39.9787 309.573C40.202 309.914 40.4252 310.255 40.672 310.595C40.9188 310.936 40.6955 310.654 41.048 311.077C42.0116 312.182 43.1397 313.251 44.0327 313.874C45.1608 314.661 46.3359 315.319 47.5344 315.883C60.425 316.224 73.8913 312.628 86.9229 310.924C100.46 309.15 114.384 309.514 127.522 313.227C132.093 314.52 137.992 315.813 140.8 311.982C141.623 310.866 141.987 309.502 142.316 308.163C147.404 287.881 149.073 266.742 147.216 245.908C147.016 243.522 146.711 241.019 145.301 239.116Z" fill="white"/>
<path d="M167.932 78.6828C167.356 78.1423 166.522 78.013 165.735 77.9543C154.572 77.2022 143.902 86.6146 133.103 83.6769C125.583 81.6322 120.882 74.2763 114.29 70.1283C107.98 66.1448 99.7898 65.005 94.7369 59.5056C90.6242 55.0286 89.5079 48.6362 86.6759 43.2661C85.7241 41.4565 84.3493 39.6116 82.3282 39.2709C79.3317 38.7656 77.0051 41.7738 75.5598 44.4529C67.5458 59.2119 62.6457 75.6511 61.2591 92.3959C60.7538 98.518 60.7068 104.734 59.238 110.704C57.2521 118.776 52.8926 127.848 57.5694 134.722C59.567 137.671 62.8572 139.422 65.5246 141.784C70.5187 146.203 69.4141 149.704 67.0992 153.923C69.1204 155.145 71.2237 156.249 73.3859 157.236C82.1402 161.196 91.8228 163.053 101.317 164.158C106.217 164.733 111.141 165.109 116.053 165.462C116.969 165.532 117.898 165.615 118.838 165.72C118.426 164.675 118.673 163.417 119.46 162.56C119.026 161.549 118.661 160.527 118.426 159.446C118.262 158.635 118.344 157.906 118.72 157.178C119.096 156.461 119.766 156.12 120.471 155.826C121.082 155.568 121.717 155.403 122.363 155.286C122.574 153.206 123.397 151.22 124.431 149.387C129.073 141.173 137.698 135.874 142.68 127.86C146.616 121.538 148.015 113.982 151.211 107.261C155.382 98.5063 162.468 91.4911 167.509 83.1951C168.379 81.7968 169.119 79.8109 167.932 78.6828Z" fill="white"/>
<path d="M27.5582 120.68C27.2057 121.526 27.1822 121.808 27.0177 121.937C22.5289 125.709 18.0284 129.469 13.5161 133.206C12.6113 133.958 11.7183 134.934 9.83813 133.805C14.9497 128.412 19.7557 123.065 27.5582 120.68Z" fill="#EB584A"/>
<path d="M0.190918 98.7179C1.54225 98.4123 2.37655 97.9306 3.02284 98.1303C9.10972 99.9752 15.4199 100.21 21.8475 100.962C21.354 102.278 20.3199 102.831 19.2624 102.678C13.3517 101.879 7.26486 102.255 1.554 100.069C1.26023 99.9634 1.07222 99.5992 0.190918 98.7179Z" fill="#EB584A"/>
<path d="M29.1799 88.5769C25.2317 87.2373 17.1707 75.2281 17.2059 69.6465C18.1577 70.6923 18.8628 71.2446 19.2741 71.9614C20.3786 73.865 21.2599 75.9096 22.3997 77.7897C24.5854 81.4207 26.912 84.9812 29.1799 88.5769Z" fill="#EB584A"/>
<path d="M34.3033 252.217C33.2339 253.451 32.7874 255.096 32.5171 256.718C31.9649 260.02 32.0354 263.381 32.1176 266.718C32.3056 275.261 32.4936 283.792 32.6817 292.334C33.422 293.698 34.127 295.084 34.738 296.506C36.2774 300.043 37.1234 304.05 38.7333 307.328C39.1093 308.092 39.5206 308.844 39.9789 309.573C40.2021 309.914 40.4254 310.254 40.6722 310.595C40.9189 310.936 40.6957 310.654 41.0482 311.077C41.7885 311.935 42.6345 312.757 43.3983 313.38L46.8648 313.251C47.9341 313.216 49.1327 313.122 49.8612 312.322C50.4488 311.688 50.5663 310.771 50.6603 309.925C50.907 307.552 51.0833 305.166 51.1773 302.781C51.2126 301.782 51.2361 300.748 50.86 299.82C50.4958 298.927 49.779 298.222 49.1914 297.458C44.0446 290.795 44.1269 277.963 44.3501 269.914C44.4559 265.813 41.2009 244.25 34.3033 252.217Z" fill="#BCBCBB"/>
<path d="M118.615 257.165C119.132 266.459 119.649 275.754 120.154 285.049C120.413 289.667 120.659 294.332 119.86 298.891C119.061 303.451 117.087 307.939 113.562 310.936C112.046 312.228 110.201 313.239 108.204 313.333C106.218 313.427 104.103 312.44 103.256 310.642C102.786 309.632 102.739 308.48 102.822 307.364C103.021 304.708 103.915 302.17 104.913 299.702C109.543 288.233 116.582 277.681 119.519 265.672" fill="#BCBCBB"/>
<path d="M125.689 185.226C125.266 186.155 124.173 186.566 123.162 186.754C120.589 187.212 117.957 186.742 115.383 186.272C106.288 184.604 97.193 182.947 88.1097 181.278C84.9488 180.702 81.7291 180.103 78.8854 178.599C76.0417 177.095 73.5858 174.522 73.0453 171.361C72.9748 170.949 72.963 170.468 73.2685 170.186C73.5153 169.962 73.8913 169.939 74.2204 169.939C85.3248 169.939 95.8417 169.21 106.793 168.211C110.648 167.859 114.984 168.529 118.25 170.808C121.235 172.888 127.498 181.266 125.689 185.226Z" fill="#BCBCBB"/>
<path d="M117.416 158.023C117.357 158.153 117.31 158.27 117.24 158.4C116.264 160.115 114.408 160.832 112.492 160.761C110.812 160.703 109.543 160.503 107.898 160.985C106.382 161.431 104.702 162.418 102.845 161.713C101.141 161.055 100.742 159.457 99.8368 158.082L99.731 157.929C99.2963 158.023 98.8497 158.082 98.415 158.165C97.3104 158.364 96.2058 158.576 95.0895 158.729C92.9039 159.034 90.6947 159.175 88.4973 158.917C86.2647 158.658 83.9146 158.023 81.6819 157.142C79.2965 156.719 76.9934 155.814 74.937 154.475C73.3506 153.429 72.0111 152.195 71.1298 150.574C69.6609 149.598 68.2156 148.588 66.6997 147.706C65.9359 147.26 65.1604 146.837 64.3261 146.52C63.9618 146.379 63.5975 146.261 63.2215 146.167C63.0923 146.132 62.963 146.096 62.822 146.073C62.6692 146.414 62.4342 146.743 62.2697 147.084C61.9524 147.753 61.7057 148.4 61.3884 149.093C61.0476 149.833 60.3426 150.28 59.5553 150.444L55.4778 161.596L88.0978 171.478H110.871L120.295 166.484L117.416 158.023Z" fill="#EB584A"/>
<path d="M52.3172 285.966C51.6826 287.176 50.9658 288.351 50.4253 289.608C49.92 290.783 49.168 290.83 48.0634 290.313C46.6533 284.133 45.2197 277.881 43.7509 271.453C40.9425 272.535 39.7321 275.249 37.523 276.777C38.7803 274.003 40.8955 272.018 43.2808 270.079C43.0693 268.915 42.8578 267.764 42.5876 266.248C40.3784 268.128 38.4865 269.75 36.3949 271.536C36.8297 270.043 36.8414 270.055 39.0271 268.14C40.1552 267.153 41.2245 266.095 42.423 264.979C41.436 263.968 40.5194 263.016 39.2268 261.689C39.2268 246.624 39.2268 230.984 39.2268 215.156C38.228 215.555 37.3232 215.92 36.2774 216.343C35.5489 214.192 35.6781 212.512 36.6417 210.526C39.7791 204.134 42.6346 197.612 45.5605 191.114C46.1598 189.798 46.5828 188.399 47.2291 186.672C44.5382 187.706 43.2573 190.174 40.2609 190.832C40.5194 189.657 40.4959 188.811 40.8719 188.176C44.1152 182.583 47.5111 177.072 50.6838 171.431C52.4229 168.341 53.8095 165.051 55.4781 161.596C54.0445 159.681 54.7966 157.507 55.8659 155.509C56.9234 153.547 58.2748 151.749 59.5674 149.927C60.3194 148.87 61.2125 147.895 62.035 146.896C63.7741 148.071 63.7976 148.412 62.6931 150.127C61.2242 152.407 59.8024 154.722 58.404 157.048C58.075 157.601 57.8753 158.235 57.4522 159.222C57.8988 159.657 58.4158 160.151 58.8741 160.609C60.0726 159.739 60.9539 159.093 61.8353 158.447C61.424 159.328 61.001 160.209 60.4722 161.349C61.4475 161.725 62.3288 162.054 63.2923 162.418C63.9386 160.327 64.4439 158.552 64.3734 156.39C63.2923 157.272 62.5285 157.894 61.7647 158.517C62.9516 156.484 63.8916 154.299 64.8904 152.148C65.2077 152.278 65.5367 152.419 65.854 152.548C65.431 155.897 65.0079 159.258 64.5614 162.842C64.6202 162.889 64.8434 163.288 65.1607 163.37C69.3792 164.592 73.586 165.873 77.8515 166.919C81.0359 167.695 84.2792 168.247 87.5224 168.693C90.7656 169.14 94.0558 169.422 97.3225 169.575C99.0851 169.657 100.859 169.316 102.634 169.175C105.43 168.964 108.227 168.611 111.024 168.599C113.127 168.588 114.996 168.388 116.911 167.283C118.38 166.437 118.591 165.556 118.497 164.134C118.298 161.349 117.287 158.87 115.524 156.555C117.017 155.768 117.698 156.59 118.262 157.377C120.225 160.115 120.824 163.276 120.283 166.484C120.001 168.153 120.201 169.187 121.341 170.456C122.833 172.125 123.961 174.11 125.183 176.002C127.31 179.316 129.602 182.559 131.435 186.049C133.045 189.104 134.243 192.395 135.407 195.661C137.204 200.702 138.85 205.79 140.483 210.89C141.141 212.935 141.634 215.05 142.081 217.153C142.222 217.788 141.975 218.505 141.881 219.339C140.224 218.892 138.908 218.54 137.216 218.082C137.839 222.406 139.613 225.919 140.624 229.539C144.737 230.02 148.203 233.334 149.272 237.494C150.882 243.757 151.329 250.067 150.495 256.483C150.201 258.704 150.107 260.96 149.907 263.392C151.952 263.851 152.057 265.249 151.67 267C150.213 273.698 148.744 280.384 147.416 287.105C146.488 291.829 145.301 296.436 142.786 300.607C142.269 301.453 142.551 302.135 143.033 302.934C144.137 304.779 145.148 306.682 146.1 308.609C146.781 309.972 146.546 311.241 145.653 312.569C144.231 314.673 143.139 317.082 140.495 317.904C136.476 319.161 132.504 320.748 128.121 319.608C125.677 318.973 123.174 318.597 120.718 318.057C117.44 317.34 115.783 314.778 114.432 312.088C114.044 311.324 114.338 310.019 114.714 309.115C115.395 307.481 116.171 305.824 117.24 304.426C118.956 302.182 119.966 299.773 120.213 296.964C120.483 293.886 120.883 290.819 121.235 287.599C120.131 287.117 119.026 286.729 119.32 285.131C120.483 278.739 119.273 272.417 118.627 266.072C118.403 263.921 118.227 261.771 118.168 259.609C118.051 254.685 116.887 249.95 115.736 245.214C115.454 244.063 115.301 242.887 115.007 241.289C115.924 241.583 116.617 241.595 116.793 241.889C117.252 242.676 117.604 243.581 117.78 244.474C119.484 252.946 119.602 261.595 120.577 270.149C120.601 270.325 120.706 270.49 120.93 271.066C122.763 269.268 124.49 267.588 126.206 265.895C126.37 266.048 126.547 266.201 126.711 266.354C126.288 266.835 125.888 267.329 125.454 267.799C124.243 269.115 122.963 270.361 121.858 271.747C121.364 272.37 121.235 273.275 120.941 274.05C121.106 274.144 121.27 274.25 121.447 274.344C122.974 272.946 124.502 271.548 126.041 270.149C126.206 270.314 126.359 270.49 126.523 270.654C125.712 271.477 124.878 272.3 124.079 273.134C122.117 275.202 120.236 277.329 121.388 280.396C121.917 281.254 122.681 281.994 122.833 282.852C123.08 284.215 123.045 285.66 122.904 287.047C122.446 291.606 121.881 296.165 121.353 300.736C122.117 301.112 122.833 301.453 123.597 301.829C123.433 302.229 123.386 302.652 123.233 302.699C121.153 303.298 119.343 304.132 119.108 306.67C119.085 306.882 118.732 307.058 118.521 307.258C115.254 310.442 116.265 314.12 120.906 315.671C121.623 312.381 121.881 308.821 125.313 306.764C126.77 308.21 125.559 309.068 124.866 309.925C122.998 312.24 122.775 313.216 123.644 316.318C128.203 316.318 132.786 319.056 137.557 316.283C136.84 312.757 134.807 309.972 132.763 307.305C133.738 306.388 134.443 306.541 134.948 307.223C135.736 308.269 136.488 309.361 137.134 310.501C138.086 312.193 138.932 313.956 139.813 315.66C143.338 314.802 145.277 310.854 143.761 307.881C142.998 306.4 142.34 304.955 140.73 304.003C139.813 303.451 139.437 302.005 138.709 300.795C140.906 300.219 140.824 298.081 141.305 296.271C141.705 294.743 142.046 293.204 142.434 291.594C141.928 291.465 141.505 291.359 140.941 291.23C142.575 284.579 142.821 277.764 143.385 270.972C143.62 268.187 143.362 265.367 143.315 262.558C143.303 262.1 143.092 261.595 143.186 261.172C144.455 256.001 143.315 250.89 142.692 245.802C141.576 236.695 138.591 228.093 135.313 219.586C134.913 218.552 134.537 217.506 134.138 216.401C136.264 214.733 137.992 216.836 140.107 216.601C140.013 215.908 140.013 215.179 139.79 214.533C136.922 206.096 134.02 197.671 131.129 189.234C131.012 188.881 130.836 188.54 130.636 188.223C127.569 183.276 124.549 178.305 121.388 173.405C120.495 172.019 119.202 170.879 118.145 169.68C113.08 171.008 108.11 171.267 103.221 171.972C96.4529 172.959 89.9548 171.643 83.3861 170.844C79.7669 170.409 76.2181 169.398 72.6224 168.682C68.3452 167.824 64.4087 166.049 60.4957 164.216C59.6614 163.829 58.8153 163.441 57.652 162.912C54.115 169.516 50.6368 175.991 47.1703 182.465C48.2044 183.159 49.544 183.582 49.7673 184.334C50.0728 185.379 49.7555 186.778 49.3207 187.859C47.0176 193.499 44.5969 199.104 42.2115 204.709C41.6592 206.002 41.1187 207.295 40.5547 208.622C41.3655 209.022 42.3525 209.186 42.6933 209.75C43.0693 210.361 42.9166 211.337 42.8813 212.148C42.4935 222.747 41.9883 233.334 41.7533 243.933C41.6475 248.516 42.1058 253.122 42.3055 257.94C43.9389 258.116 44.5264 259.291 44.7262 260.784C44.9377 262.37 45.1375 263.945 45.3725 265.531C45.5135 266.53 45.7132 267.517 45.913 268.692C47.4171 268.469 48.6862 268.293 49.9553 268.105L50.0728 268.351C48.9682 268.821 47.8636 269.291 46.4183 269.914C47.5464 275.543 48.6744 281.16 49.8378 286.941C50.8131 286.436 51.4476 286.107 52.0939 285.778L52.3172 285.966ZM144.819 290.49C146.535 282.523 148.238 274.579 149.93 266.718C149.026 266.318 148.415 266.048 148.074 265.884C148.321 263.733 148.567 261.888 148.744 260.032C148.885 258.539 148.967 257.035 149.061 255.543C149.449 249.797 149.12 244.11 147.733 238.504C147.087 235.908 145.406 234.051 143.491 232.359C143.209 232.112 142.657 232.159 141.799 231.983C142.01 233.416 142.093 234.591 142.375 235.708C144.69 244.685 145.571 253.851 145.359 263.052C145.183 270.537 144.22 278.01 143.55 285.484C143.385 287.293 142.598 289.162 144.819 290.49Z" fill="black"/>
<path d="M106.359 306.8C105.419 307.599 104.784 308.01 104.326 308.562C103.174 309.961 101.494 310.254 100.26 309.42C97.7573 307.716 95.3719 307.716 92.6222 308.527C90.8126 309.068 88.8267 309.044 86.5823 309.314C86.4531 309.15 86.0653 308.633 85.6775 308.116C83.7974 305.566 82.6811 305.484 80.6599 307.81C79.9431 308.633 79.2734 309.397 77.8985 308.597C77.2522 302.534 74.8316 296.682 74.4556 290.208C75.3369 290.948 75.9949 291.5 77.17 292.487C77.2052 291.195 77.3462 290.501 77.217 289.855C76.4649 286.177 75.7129 282.499 74.8433 278.856C73.492 273.204 73.0455 267.564 74.7493 261.888C75.2899 260.09 75.8539 258.304 76.3122 256.495C76.5824 255.449 76.9585 254.333 76.0066 253.158C75.0196 253.639 74.103 254.086 72.7517 254.744C73.2922 252.264 73.6918 250.255 74.1853 248.269C75.0196 244.92 75.5249 241.501 77.8045 238.598C78.6623 237.506 79.0148 235.696 77.5225 234.286C74.4556 239.033 70.3781 255.39 71.6589 258.363C72.6224 257.588 73.5155 256.871 74.4085 256.142C74.5378 257.153 74.3028 257.999 74.0325 258.833C73.351 260.878 72.2112 262.875 72.0349 264.955C71.6706 269.432 71.5296 273.945 72.9397 278.351C73.7035 280.737 74.2088 283.192 74.8433 285.648C72.3522 286.013 72.1877 286.036 72.4462 287.951C72.9045 291.477 73.5625 294.978 74.1618 298.492C74.8081 302.276 75.4426 306.071 76.1477 309.843C76.4884 311.641 75.6894 312.746 74.2088 313.486C71.7764 314.696 69.3557 315.953 66.8528 317.011C65.3017 317.669 63.6214 317.822 61.706 317.164C61.9528 314.567 62.176 312.052 62.4111 309.538C62.1408 309.491 61.8705 309.444 61.6003 309.408C59.5086 311.617 60.4722 314.696 59.8611 317.387C59.3089 317.34 58.8388 317.34 58.3923 317.246C53.2807 316.165 52.3524 313.791 55.3136 309.408C55.5721 309.021 55.8659 308.645 56.0892 308.233C56.3359 307.763 56.5357 307.27 56.7825 306.694C55.0903 305.672 54.4206 306.764 53.8565 307.822C53.034 309.373 52.3172 310.971 51.4711 312.722C50.3078 310.666 50.249 308.809 51.0716 306.905C52.1997 304.32 53.3277 301.723 55.5956 299.878C56.5239 299.115 56.5592 298.433 55.6661 297.517C55.0903 297.822 54.5968 298.057 54.1268 298.339C53.598 298.656 53.1045 299.032 52.2584 299.608C50.1198 295.942 48.0869 292.476 46.054 288.997C44.9612 290.255 45.5017 291.571 46.1245 292.675C47.4406 295.049 48.8272 297.423 50.4371 299.596C51.4946 301.03 51.6474 302.217 50.6721 303.65C49.309 305.648 48.2749 307.728 48.2984 310.008C48.3807 310.395 48.4277 310.818 48.4159 311.23L48.4747 311.488C48.8272 312.64 49.2385 313.768 49.5793 314.919C50.5781 315.953 51.4124 317.07 52.5052 317.434C55.4194 318.421 58.4628 319.091 61.5062 319.502C63.2101 319.737 65.1725 319.573 66.7588 318.938C69.8728 317.704 72.8104 316 75.8304 314.532C77.358 313.791 78.2745 312.652 78.2158 310.701C79.9784 311.429 80.6482 310.348 81.4355 309.361C82.9396 307.469 83.6094 307.563 84.8785 309.667C85.419 310.572 86.1005 311.394 86.8173 312.405C88.5447 310.795 90.2485 310.219 92.2462 310.536C92.8689 310.63 93.6092 310.56 94.1733 310.301C95.7949 309.538 97.0757 309.855 98.6151 310.771C101.47 312.487 104.631 311.606 106.5 308.844C106.794 308.503 106.476 307.775 106.359 306.8Z" fill="black"/>
<path d="M45.3256 294.837C43.7745 296.612 42.2117 298.386 40.5078 300.337C40.7546 298.104 42.1764 296.388 45.3256 294.837Z" fill="black"/>
<path d="M43.2216 292.487C41.506 293.909 39.8491 295.296 38.0513 296.8C38.9678 294.038 40.9772 292.405 43.2216 292.487Z" fill="black"/>
<path d="M52.5523 313.839L52.517 313.686C52.0823 313.733 51.6475 313.792 51.2244 313.886C50.6369 312.334 50.2021 310.913 49.5558 309.585C49.3443 309.15 48.604 308.962 48.0988 308.668C47.9577 309.22 47.6405 309.808 47.7345 310.313C47.9225 311.3 48.3573 312.24 48.6863 313.216C47.0764 314.168 45.5959 314.426 43.892 313.615C44.0448 311.089 44.2093 308.598 44.362 306.177C42.9402 305.59 42.2939 305.907 42.0941 307.152C41.8356 308.762 41.5183 310.349 41.1893 312.17C39.3445 310.137 39.2975 308.28 40.731 306.483C41.4008 305.637 42.0236 304.755 42.9989 303.451C41.1893 301.865 39.1212 300.736 38.0519 298.997C34.9027 293.886 30.1671 289.62 29.4621 283.122C29.2388 281.03 27.0532 279.832 24.8323 279.961C23.763 276.506 24.0098 271.148 25.3141 266.953C25.9839 264.814 26.4657 262.629 26.9827 260.666C25.4316 258.88 23.9745 258.199 21.7771 260.255C23.6925 254.544 24.6678 249.233 28.8041 245.379C29.2858 244.932 29.6266 244.345 30.0496 243.851C31.4597 242.23 32.2235 240.408 31.7065 238.27C34.0449 236.319 36.9003 234.58 39.8145 233.311C40.1318 232.3 40.5548 231.325 41.0248 230.361C39.509 230.984 38.0754 231.818 36.724 232.747C32.9521 235.332 28.5338 236.859 25.1613 240.114C24.1978 241.043 23.2577 241.736 23.0579 243.076C24.2918 244.239 25.6196 243.781 27.3587 243.111C26.2541 244.697 25.6196 245.872 24.7266 246.812C22.8582 248.798 21.8711 251.113 21.2366 253.745C20.414 257.177 19.2507 260.525 18.1814 264.109C20.0733 264.673 18.6514 266.695 19.2272 267.999C21.0251 268.751 21.0721 266.789 22.2354 266.201C22.2589 266.671 22.3177 267 22.2824 267.329C22.2119 267.975 22.0826 268.622 22.0004 269.268C21.0838 275.766 21.4834 282.053 24.9616 287.975C25.8546 287.764 26.6184 287.587 27.7465 287.329C27.6525 290.666 29.7089 292.875 31.6242 295.167C31.8592 295.449 31.9768 295.836 32.2118 296.13C33.5279 297.834 34.7147 299.691 36.2423 301.171C37.7346 302.628 38.5454 303.909 37.5701 306.024C37.0766 307.082 37.0531 308.398 36.9943 309.608C36.8886 311.735 37.7816 313.38 39.5325 314.649C40.9661 315.695 42.5172 316.177 44.2445 316.271C47.3232 316.435 50.3784 316.494 53.2808 315.93C52.9871 315.249 52.7638 314.544 52.5523 313.839Z" fill="black"/>
<path d="M101.365 204.345C100.836 204.651 100.296 204.968 99.5082 205.438C98.3449 203.299 97.2403 201.266 95.8538 198.728C97.5929 199.14 97.7456 200.244 98.2392 201.008C98.7444 201.783 99.2027 202.594 99.7433 203.476C100.26 203.135 100.695 202.841 101.236 202.489C102.14 203.17 103.08 203.875 104.103 204.639C104.843 204.051 105.466 203.57 106.147 203.029C105.442 205.967 104.549 206.213 101.365 204.345Z" fill="black"/>
<path d="M88.7446 260.843C89.9549 260.349 91.1535 259.421 92.2111 259.562C93.1511 259.691 93.9384 260.996 94.8902 261.865C93.1041 263.028 92.6106 260.866 91.3885 260.549C90.3427 261.266 89.2851 261.983 88.0043 262.864C87.6988 261.783 87.4638 260.925 87.1818 259.938C86.7117 260.161 86.2534 260.384 85.5249 260.725C85.9009 259.245 86.512 258.293 88.0161 257.623C88.2746 258.81 88.5096 259.82 88.7446 260.843Z" fill="black"/>
<path d="M121.165 235.191C121.482 234.545 121.835 233.828 122.387 232.711C123.35 234.427 124.126 235.814 124.949 237.306C126.946 236.319 128.039 237.988 129.813 238.516C126.923 239.174 124.725 238.493 123.315 236.848C122.775 236.213 121.976 235.802 121.165 235.191Z" fill="black"/>
<path d="M113.809 166.625C113.327 165.638 112.857 164.651 112.34 163.605C112.128 164.087 111.952 164.487 111.764 164.922C110.742 162.09 110.601 159.822 111.282 157.507C111.435 157.566 111.705 157.601 111.729 157.695C112.023 159.434 111.976 161.161 113.374 162.689C114.185 163.582 114.173 165.227 114.537 166.531C114.302 166.567 114.055 166.602 113.809 166.625Z" fill="black"/>
<path d="M57.0173 199.727C56.7118 198.763 56.5238 198.164 56.2652 197.342C55.3487 197.765 54.5731 198.129 53.7153 198.528C54.4321 197.036 55.5014 195.979 56.2887 196.272C56.9585 196.519 57.4286 197.295 58.1454 198C60.4368 197.788 62.3991 198.998 64.103 200.808C61.7998 200.15 59.8022 198.047 57.0173 199.727Z" fill="black"/>
<path d="M57.6165 287.035C55.3133 289.456 52.9985 291.877 50.6953 294.285C51.0948 292.3 53.1277 290.043 57.1465 286.659C57.2992 286.788 57.452 286.906 57.6165 287.035Z" fill="black"/>
<path d="M103.809 286.459C104.302 286.236 104.69 285.918 105.066 285.93C106.182 286.001 108.251 287.364 110.072 289.244C107.722 288.21 105.947 287.411 103.809 286.459Z" fill="black"/>
<path d="M52.1294 285.789C52.6699 284.273 53.9978 283.733 55.1963 283.028C55.3256 283.181 55.4666 283.345 55.5959 283.498C54.503 284.32 53.422 285.143 52.3292 285.966L52.1294 285.789Z" fill="black"/>
<path d="M63.2689 108.718C61.2948 106.673 60.3077 103.724 60.672 100.903C66.2888 99.6578 72.4697 101.373 76.6412 105.322C75.4661 106.732 73.5155 107.167 71.7059 107.519C68.1337 108.212 64.5615 108.917 60.9775 109.611" fill="#BCBCBB"/>
<path d="M128.38 141.432C130.142 142.407 132.446 141.855 134.032 140.609C135.618 139.364 136.629 137.542 137.545 135.744C139.284 132.325 140.824 128.8 142.14 125.192C142.669 123.735 143.15 122.043 142.363 120.715C141.376 119.035 138.861 118.929 137.134 119.857C135.407 120.786 134.208 122.407 132.786 123.747C130.495 125.909 121.212 127.448 120.566 129.61C120.119 131.079 127.158 140.762 128.38 141.432Z" fill="#BCBCBB"/>
<path d="M112.692 58.9297C115.09 58.2717 115.442 55.0872 116.852 53.0426C119.343 49.4234 124.666 49.8464 129.061 49.9522C138.591 50.1872 148.168 46.85 155.489 40.7514C157.063 39.4353 158.579 37.9547 159.425 36.0746C160.342 34.0534 160.412 31.7503 160.389 29.5294C160.33 24.2416 159.754 18.7775 157.169 14.1594C153.761 8.06081 147.204 4.21833 140.424 2.51447C133.644 0.810614 126.547 0.986875 119.555 1.17489C115.642 1.28064 111.517 1.44515 108.18 3.48978C104.596 5.68717 102.54 9.65891 100.883 13.5249C97.8043 20.6693 95.4894 29.1416 99.1439 36.0158C101.518 40.4811 107.205 41.9734 109.485 45.8277C110.131 46.8852 110.707 59.482 112.692 58.9297Z" fill="white"/>
<path d="M103.691 161.69C107.099 160.809 109.778 158.259 113.092 157.178C113.268 157.354 113.432 157.53 113.609 157.706C113.127 158.729 112.645 159.739 111.999 161.102C112.892 160.82 113.597 160.691 114.196 160.374C119.543 157.601 123.797 153.829 125.453 147.754C125.571 147.307 125.5 146.637 125.782 146.426C128.285 144.581 126.958 142.243 126.358 140.292C125.677 138.083 124.502 135.968 123.197 134.041C121.529 131.549 119.731 129.082 117.604 126.99C115.771 125.18 113.444 123.841 111.259 122.419C107.346 119.881 102.751 120.786 98.4738 120.116C97.2987 119.928 95.9826 120.68 94.6431 121.021C93.7265 120.363 93.938 119.681 94.8428 119.141C96.4527 118.177 98.2035 118.095 100.013 118.33C103.08 118.718 106.159 118.976 109.226 119.399C110.084 119.517 110.906 120.01 111.717 120.374C112.046 120.527 112.281 120.88 112.61 121.044C118.051 123.876 121.599 128.659 125.077 133.441C127.005 136.097 128.52 139.07 128.92 142.407C129.202 144.769 129.061 147.107 127.016 148.87C126.617 149.211 126.452 149.834 126.217 150.339C123.409 156.426 118.897 160.691 112.622 163.041C111.541 163.441 110.33 163.476 108.826 163.746C109.132 162.524 109.32 161.772 109.555 160.82C107.158 161.843 104.901 162.806 102.622 163.77C101.517 161.525 100.601 159.634 99.6019 157.612C96.1002 159.434 92.6454 160.562 88.9792 160.738C87.2401 160.82 85.4892 160.397 83.7384 160.162C83.0921 160.068 82.4693 159.833 81.823 159.716C74.6316 158.459 70.1545 153.793 66.9113 147.683C66.3355 146.59 66.2533 145.239 65.9008 143.829C65.2662 144.228 64.5847 144.651 63.7504 145.192C63.2569 144.557 62.7868 143.935 62.3285 143.335C59.9784 144.405 59.9197 144.463 58.1453 142.419C56.747 140.809 55.5249 139.058 54.2323 137.354C54.1148 137.201 54.103 136.955 53.9738 136.861C50.7423 134.64 51.6001 131.526 52.1642 128.506C52.4932 126.79 53.0455 125.192 52.5284 123.3C52.2464 122.29 53.0337 120.75 53.7505 119.752C55.9362 116.732 58.4156 113.947 62.3638 111.996C60.4602 111.949 58.8621 113.371 57.8868 111.138C58.4978 110.798 59.0031 110.363 59.5906 110.187C62.7281 109.235 65.8538 108.189 69.05 107.472C70.6598 107.108 72.3989 107.308 74.091 107.355C75.4894 107.39 76.8877 107.59 78.2978 107.707C78.4388 106.955 78.5563 106.344 78.7326 105.427C85.5597 108.6 90.3305 113.289 92.6219 121.091C91.7406 120.551 91.1061 120.386 90.8828 119.987C90.1308 118.694 89.508 117.319 88.8852 115.956C88.0626 114.123 86.9228 112.572 85.2425 111.397C84.2907 110.727 83.4681 110.21 82.1755 110.516C81.3412 110.704 80.3542 110.269 79.4376 110.128C77.1227 109.787 74.8078 109.293 72.4812 109.176C70.366 109.07 68.3449 109.235 66.6998 111.232C65.6423 112.513 63.7621 113.23 62.1405 113.935C58.7916 115.392 56.8175 118.224 54.4321 120.903C55.1606 121.314 55.6776 121.608 56.4179 122.031C55.9597 122.96 55.5131 123.759 55.1724 124.605C54.5613 126.074 53.9268 127.542 53.4802 129.058C53.2922 129.716 53.2687 130.938 53.633 131.162C55.1019 132.102 54.8668 133.535 55.2194 134.875C55.5954 136.297 56.3357 137.624 56.9467 139.058C57.7105 138.941 58.3215 138.835 59.0736 138.717C59.2969 139.375 59.4966 139.963 59.6964 140.55C59.8609 140.597 60.0607 140.715 60.1899 140.668C62.6223 139.822 65.0077 139.176 67.5341 140.503C68.0277 140.762 68.9207 140.409 69.5788 140.21C72.6222 139.293 75.6304 138.294 78.6856 137.448C79.1438 137.319 80.0369 137.707 80.2954 138.13C80.883 139.058 81.7173 140.292 81.5057 141.173C81.118 142.748 79.5904 141.42 78.5916 141.69C77.064 142.102 75.5011 142.348 73.9618 142.724C72.3872 143.112 70.9888 144.358 69.1675 143.57C69.0735 143.523 68.1804 144.651 68.3097 144.875C69.5082 147.06 70.7186 149.258 72.1757 151.291C74.9136 155.086 79.2731 155.956 83.4094 157.166C84.4904 157.483 85.5832 157.718 86.6761 157.989C87.0403 158.083 87.4164 158.329 87.7571 158.271C91.2118 157.695 94.7606 157.554 98.5208 156.426C97.9333 155.721 97.6278 155.309 97.2635 154.957C96.9462 154.64 96.3352 154.44 96.2294 154.087C94.8781 149.493 91.2118 147.002 87.5809 144.463C87.4399 144.358 87.3576 144.17 87.1343 143.888C87.3106 143.653 87.4634 143.324 87.7101 143.136C87.9921 142.912 88.3682 142.807 88.4152 142.795C95.2658 147.742 99.2728 154.71 103.691 161.69Z" fill="black"/>
<path d="M111.012 68.2717C110.354 69.2235 109.767 70.093 108.979 71.2329C114.467 72.6782 119.86 74.2998 125.007 76.9085C124.819 77.7075 124.655 78.4008 124.478 79.1881C128.568 82.1258 132.622 85.04 136.758 88.0129C146.617 83.6534 156.711 79.3761 167.921 80.1634C169.19 81.4207 168.861 82.5958 168.168 83.6651C164.313 89.6698 160.389 95.6039 155.383 100.762C153.62 102.572 151.905 104.499 150.6 106.638C149.66 108.165 149.19 110.093 148.896 111.914C148.45 114.687 148.779 117.66 147.933 120.28C147.087 122.889 145.172 125.145 143.797 127.589C142.645 129.622 141.799 131.855 140.459 133.735C138.838 136.003 137.346 138.565 133.95 139.787C134.208 138.929 134.196 138.4 134.455 138.177C138.756 134.452 140.965 129.305 143.855 124.605C146.523 120.269 147.392 115.557 147.298 110.598C147.263 108.929 147.721 107.637 148.779 106.285C151.2 103.171 153.844 100.269 156.405 97.2842C160.248 92.8072 163.855 88.0952 166.534 82.7721C166.605 82.6311 166.546 82.4078 166.546 81.9848C164.302 81.4795 161.987 81.6558 159.742 82.0788C153.55 83.2656 147.533 85.1105 141.776 87.6839C140.589 88.2127 139.484 88.9647 138.356 89.6228C137.169 90.3043 136.123 90.3748 135.078 89.235C134.572 88.6827 133.738 88.4242 133.057 88.0482C132.821 87.9189 132.469 87.8836 132.328 87.6839C130.342 84.9577 127.228 83.6416 124.666 81.644C123.503 80.7509 122.105 80.1752 120.636 79.3526C121.071 78.7181 121.412 78.2245 121.905 77.4843C121.717 77.3785 121.482 77.214 121.235 77.12C117.616 75.8039 114.02 74.4408 110.378 73.2305C109.261 72.8662 108.004 72.925 106.441 72.7605C106.899 71.5736 107.275 70.5748 107.71 69.4703C106.265 68.4479 104.573 68.5419 102.939 68.5302C101.059 68.5067 99.1792 68.5772 97.3108 68.6712C96.1945 68.73 95.4072 68.4362 94.6904 67.4609C91.6822 63.3364 89.4143 58.8711 87.6517 54.065C86.4179 50.6926 85.56 47.0851 82.8926 44.0182C82.1876 45.205 81.5061 46.2038 80.9773 47.2849C78.8739 51.5739 76.7235 55.8512 74.7611 60.2107C72.6107 64.9932 70.6719 69.8698 68.592 74.6876C67.8987 76.2739 67.1232 77.919 64.7965 77.0142C63.4922 80.0812 65.0785 83.4536 63.0927 86.2973C62.3876 86.1328 61.7178 85.98 60.7308 85.745C61.9881 90.5628 62.8576 95.1926 61.8823 100.046C60.5075 99.7871 59.3677 99.5756 57.7108 99.2701C59.0269 102.231 60.1432 104.746 61.377 107.519C60.7425 107.413 60.202 107.46 59.8377 107.225C59.3912 106.932 58.9681 106.45 58.7449 105.956C57.5346 103.242 56.383 100.504 55.2432 97.8365C56.8765 96.1914 58.5334 97.343 59.9905 97.1667C60.8718 95.0046 60.672 91.2326 59.5322 88.1422C59.1797 87.1786 58.7214 86.2385 58.4394 85.2515C57.8753 83.2421 58.4511 82.6663 60.531 83.0893C61.0715 83.1951 61.6003 83.3361 62.4816 83.5359C62.4816 82.2198 62.4229 81.1152 62.4934 80.0107C62.5756 78.8003 62.6931 77.5783 62.9399 76.3914C63.3629 74.4526 63.4804 74.4291 65.6308 74.8403C65.8893 74.8873 66.1713 74.8521 66.8059 74.8521C68.0162 71.8321 69.2265 68.7065 70.5309 65.616C72.0937 61.891 73.6213 58.1543 75.3604 54.5233C77.1465 50.7983 79.1442 47.1791 81.1065 43.5481C81.5766 42.6668 82.2816 41.9148 83.1394 40.7515C84.7257 42.8783 85.9361 44.829 86.8409 46.9441C88.5212 50.9158 90.0253 54.9698 91.7997 58.8946C92.7515 61.0215 94.1028 62.9603 95.2897 64.9815C96.124 66.4033 97.346 66.9086 99.0264 66.9673C102.669 67.0849 106.312 67.4374 109.955 67.7194C110.19 67.7546 110.413 67.9662 111.012 68.2717Z" fill="black"/>
<path d="M119.085 49.071C117.31 52.0322 115.7 54.7702 114.02 57.4728C113.667 58.0369 113.033 58.7772 112.492 58.8124C111.341 58.8829 111.447 57.7078 111.27 56.9323C110.8 54.9229 110.33 52.9135 109.978 50.8807C109.484 48.0487 108.391 45.8161 105.477 44.6293C103.233 43.7127 100.941 42.4789 99.9661 40.0582C97.1929 33.1488 95.7593 26.2159 100.471 19.4592C100.577 19.3065 100.706 19.1537 100.753 18.9774C102.257 13.3606 107.099 10.2819 110.636 6.23964C111.811 4.90005 113.691 4.10101 115.36 3.27845C120.436 0.7873 125.888 0.0587537 131.482 0C131.94 0 132.445 1.4008e-07 132.868 0.15276C138.849 2.32664 144.889 4.35952 150.776 6.76842C154.583 8.33127 157.474 10.9164 158.778 15.2054C160.412 20.552 161.716 25.9221 161.129 31.5037C160.6 36.5448 158.391 40.5753 153.82 43.5012C147.627 47.4847 140.812 49.1768 133.761 50.3989C129.566 51.1274 125.395 51.2802 121.341 49.5528C120.671 49.2943 119.895 49.2473 119.085 49.071ZM112.751 55.8277C114.901 53.1838 116.276 50.7867 117.369 48.2015C118.109 46.4154 118.144 46.5094 120.013 46.9794C122.915 47.708 125.888 49.0358 128.744 48.8478C137.192 48.2837 145.465 46.8267 152.833 42.0206C155.947 39.9877 158.109 37.4966 158.873 33.9361C160.247 27.626 159.613 21.4216 157.122 15.4757C156.311 13.5368 155.782 11.3395 153.596 10.2466C151.928 9.41233 150.388 8.24901 148.673 7.55572C144.854 5.99287 140.929 4.70029 137.11 3.1727C134.384 2.07988 131.646 1.95062 128.814 2.4324C127.428 2.66742 126.041 2.90243 124.654 3.1492C123.656 3.32546 122.563 3.86599 121.681 3.64273C118.603 2.83193 116.276 4.54753 113.832 5.73436C112.845 6.21614 111.317 6.80367 111.975 8.61329C112.034 8.76605 111.588 9.17732 111.317 9.37708C110.401 10.0234 109.343 10.5169 108.532 11.2807C107.052 12.679 105.536 14.1126 104.349 15.746C103.256 17.2501 102.54 19.0362 101.705 20.7165C99.7311 24.7 98.7558 28.8128 100.189 33.2311C100.601 34.4766 100.883 35.7692 101.165 37.0501C101.693 39.4119 103.092 41.1276 105.195 42.1969C107.369 43.2897 109.649 44.1827 111.846 45.2403C112.868 45.7338 113.808 46.4154 114.784 47.0029C114.713 47.1909 114.631 47.3672 114.56 47.5552C113.444 47.5552 112.328 47.5552 111.047 47.5552C111.611 50.2696 112.128 52.7843 112.751 55.8277Z" fill="black"/>
<path d="M101.482 130.938C100.707 132.031 99.7197 133.1 98.6034 133.782C95.9947 135.333 93.3156 136.767 90.5307 137.977C87.9925 139.093 84.526 137.554 82.9749 135.027C81.2946 132.313 81.0008 129.34 81.0596 126.261C81.0596 125.627 81.0713 125.004 81.0596 124.37C80.9891 120.656 81.9174 119.587 85.6188 118.988C88.3803 118.541 90.9537 118.847 93.5623 120.057C96.1475 121.267 98.5564 122.595 100.648 124.534C102.634 126.391 103.069 128.741 101.482 130.938Z" fill="black"/>
<path d="M83.4682 93.994C86.2648 93.9235 88.803 97.4134 87.7807 100.21C87.1344 101.984 86.0416 103.571 84.138 104.393C81.6821 105.451 79.5669 104.934 78.0511 102.831C76.4647 100.633 76.6292 98.6825 78.6034 96.6614C79.943 95.2748 81.3765 94.0292 83.4682 93.994Z" fill="black"/>
<path d="M115.266 116.426C115.325 112.196 118.968 109.481 122.364 110.186C124.302 110.586 125.595 114.992 124.326 116.873C122.857 119.058 120.801 120.139 118.263 120.128C117.534 120.128 116.57 119.458 116.147 118.811C115.572 117.942 115.395 116.802 115.266 116.426Z" fill="black"/>
<path d="M122.398 105.58C120.46 107.155 118.168 105.169 116.652 107.836C116.453 104.969 116.887 104.217 119.672 102.008C120.072 102.713 120.46 103.371 120.859 104.064C123.797 103.735 123.797 103.735 124.537 106.767C126.241 107.801 127.827 108.753 129.402 109.716C130.471 110.374 131.164 111.079 131.212 112.583C131.247 113.594 132.398 114.558 133.045 115.521C131.306 115.968 129.837 115.462 129.613 113.7C129.261 110.997 127.287 110.245 125.371 109.387C123.797 108.694 122.293 108.071 122.398 105.58Z" fill="black"/>
<path d="M78.5918 68.2716C79.0501 68.4714 79.3321 68.5419 79.5554 68.6946C82.164 70.4455 82.2463 70.4102 83.3039 67.4021C83.4214 67.0613 83.5976 66.7205 83.6681 66.556C85.466 66.1447 87.0876 65.7687 88.8737 65.3574C88.6622 66.6265 87.9689 67.6371 86.8996 67.8368C85.0195 68.1776 84.4319 69.5877 83.5859 70.9038C83.1511 71.5736 82.5166 72.1846 81.835 72.5841C81.5295 72.7604 80.8832 72.3491 80.3309 72.1728C80.3309 72.6899 80.3309 73.1717 80.3309 73.7592C77.5577 71.8908 77.0995 70.4572 78.5918 68.2716Z" fill="black"/>
<path d="M96.7582 86.0857C94.8663 85.6509 95.0073 83.1833 92.9157 83.3713C89.696 80.5746 85.5597 82.5017 82.011 81.4324C81.3177 81.2209 80.6361 81.0211 79.1438 80.5864C80.4129 80.0576 80.8829 79.705 81.3647 79.6815C84.0086 79.5523 86.6525 79.47 89.2964 79.4465C89.9427 79.4465 90.8593 79.5053 91.1883 79.9166C92.4574 81.4677 93.985 81.1621 95.5831 80.6099C97.3104 82.2432 96.5114 84.2408 96.7582 86.0857Z" fill="black"/>
<path d="M95.5831 113.112C94.7723 113.653 94.2435 113.994 93.7383 114.323C92.7394 113.782 91.4821 110.304 91.7876 108.847C93.2917 109.141 93.0685 110.786 94.0908 111.667C95.3011 111.033 96.4644 111.268 97.7452 112.137C98.5678 112.701 99.8721 112.525 100.93 112.807C101.282 112.901 101.541 113.359 101.846 113.653C101.529 113.935 101.223 114.44 100.894 114.464C99.0378 114.581 97.1107 114.887 95.5831 113.112Z" fill="black"/>
<path d="M105.924 82.4548C106.477 83.5829 106.9 84.4642 107.287 85.2515C108.862 85.2515 110.46 84.9812 111.882 85.3455C112.81 85.5805 113.492 86.7438 114.726 87.8954C113.527 87.8014 112.869 87.9542 112.493 87.6957C111.071 86.6968 109.72 86.4736 108.063 87.2374C106.582 87.9189 105.924 86.6968 105.513 85.3573C104.796 85.9448 104.232 86.4148 103.504 87.0141C103.48 84.6522 103.715 84.2057 105.924 82.4548Z" fill="black"/>
<path d="M148.344 93.947C149.366 96.6614 148.638 97.484 144.854 98.4828C145.03 99.5169 145.195 100.563 145.383 101.679C143.373 101.244 143.197 100.856 142.668 95.9799C142.974 95.8741 143.315 95.6391 143.62 95.6744C144.525 95.8036 145.512 96.3912 146.276 96.1562C147.016 95.9212 147.498 94.8988 148.344 93.947Z" fill="black"/>
<path d="M110.225 151.173C107.827 151.396 107.98 149.27 106.605 148.623C106.241 148.929 105.724 149.258 105.336 149.704C104.913 150.198 104.619 150.797 104.255 151.349C101.87 149.881 102.175 147.46 100.906 145.956C103.045 146.156 102.716 148.329 103.891 149.669C104.796 148.776 105.665 147.906 106.817 146.79C107.921 148.212 108.944 149.528 110.225 151.173Z" fill="black"/>
<path d="M138.45 125.404C136.053 126.191 134.455 128.623 132.293 126.038C131.541 126.638 130.953 127.108 130.377 127.566C130.224 127.448 130.072 127.343 129.919 127.225C130.401 126.344 130.882 125.451 131.435 124.44C132.645 125.098 133.597 125.627 134.419 126.074C135.794 126.226 136.476 124.193 138.45 125.404Z" fill="black"/>
<path d="M71.3182 133.782C68.7448 133.582 69.8376 130.868 68.2982 129.916C67.5579 130.551 66.8059 131.197 65.9128 131.961C66.1714 130.186 66.1714 130.186 69.1325 128.565C69.8376 130.245 70.5309 131.89 71.3182 133.782Z" fill="black"/>
<path d="M123.233 16.1808C122.199 14.4534 122.727 13.4781 123.761 12.6908C126.828 10.3524 132.786 11.6567 134.678 15.0292C135.383 16.2865 135.583 17.4733 134.478 18.6132C132.598 20.552 130.741 22.5027 128.732 24.5943C128.65 26.7917 130.565 29.0948 129.602 31.9737C128.239 30.3639 126.758 25.9809 126.323 22.6319C128.979 22.5967 130.612 20.7401 132.328 19.0597C134.243 17.1678 133.797 14.7942 131.211 13.8189C128.732 12.8906 126.476 12.7731 124.467 14.8764C124.149 15.1937 123.855 15.511 123.233 16.1808Z" fill="#EB584A"/>
<path d="M126.758 38.4836C127.604 37.379 128.168 36.3097 129.049 35.6634C129.39 35.4166 130.577 36.0159 131.141 36.4977C131.999 37.238 131.634 38.2485 131.094 39.0241C130.53 39.8466 129.813 40.8455 128.65 40.3754C127.992 40.1052 127.557 39.3061 126.758 38.4836Z" fill="#EB584A"/>
<path d="M84.3965 97.8363C84.3965 98.4121 83.9265 98.8703 83.3624 98.8703C82.7866 98.8703 82.3284 98.4003 82.3284 97.8363C82.3284 97.2723 82.7984 96.8022 83.3624 96.8022C83.9265 96.7905 84.3965 97.2605 84.3965 97.8363Z" fill="white"/>
<path d="M121.083 113.301C121.083 113.876 120.613 114.335 120.048 114.335C119.484 114.335 119.014 113.865 119.014 113.301C119.014 112.737 119.473 112.267 120.048 112.267C120.624 112.267 121.083 112.725 121.083 113.301Z" fill="white"/>
<path d="M87.6281 123.112C87.8396 123.101 88.0394 123.089 88.2509 123.089C91.0241 123.089 93.809 124.487 95.4306 126.732C95.6186 126.99 95.9829 127.049 96.2531 126.861C96.5117 126.673 96.5704 126.309 96.3824 126.038C94.5258 123.465 91.4118 121.914 88.2509 121.902C88.0159 121.902 87.7809 121.914 87.5341 121.926C87.2051 121.949 86.9701 122.231 86.9936 122.56C87.0288 122.889 87.3108 123.136 87.6281 123.112Z" fill="white"/>
</svg>
