<svg width="11" height="11" viewBox="0 0 11 11" fill="none" xmlns="http://www.w3.org/2000/svg">
<path d="M10.3103 3.94937C10.3853 4.00379 10.4229 4.08543 10.4229 4.19427V9.71808C10.4229 9.80878 10.3947 9.88135 10.3385 9.93577C10.2822 9.99019 10.2025 10.0219 10.0993 10.031H6.85011C6.75634 10.031 6.67663 9.99926 6.61099 9.93577C6.54535 9.87228 6.51253 9.79971 6.51253 9.71808V6.24869C6.51253 6.15799 6.4844 6.08089 6.42813 6.0174C6.37187 5.95391 6.29216 5.9267 6.18901 5.93577H4.23385C4.14007 5.93577 4.06505 5.96298 4.00879 6.0174C3.95253 6.07182 3.91971 6.14892 3.91033 6.24869V9.71808C3.91033 9.80878 3.8822 9.88135 3.82593 9.93577C3.76967 9.99019 3.68996 10.0219 3.58681 10.031H0.323516C0.229744 10.031 0.154725 9.99926 0.0984615 9.93577C0.0421978 9.87228 0.00937729 9.79971 0 9.71808V4.19427C0 4.08543 0.0421978 4.00379 0.126593 3.94937L5.00747 0.112639C5.14813 0.00379498 5.2841 0.00379498 5.41538 0.112639L10.3103 3.94937Z" fill="black" fill-opacity="0.5"/>
</svg>
