<svg width="284" height="241" viewBox="0 0 284 241" fill="none" xmlns="http://www.w3.org/2000/svg">
<path d="M57.6784 17.0286C57.7784 15.8586 57.9683 14.5486 58.9083 13.8586C59.7483 13.2486 60.8883 13.3486 61.9083 13.5486C71.1783 15.3686 78.0883 23.0186 86.5883 27.1586C96.6083 32.0386 108.358 31.7986 119.368 30.0886C130.388 28.3886 141.238 25.3286 152.378 24.9286C157.378 24.7486 162.878 25.3086 166.408 28.8586C170.088 32.5586 170.488 38.5786 168.868 43.5486C167.248 48.5186 163.968 52.7386 160.958 57.0086C156.558 63.2486 152.608 69.8086 149.158 76.6286C145.778 83.3086 142.808 90.8886 144.708 98.1386C145.118 99.6986 145.818 101.289 147.148 102.199C148.488 103.109 150.208 103.179 151.828 103.169C170.558 103.129 189.158 98.3286 207.838 99.6786C213.788 100.109 219.878 101.239 224.878 104.499C229.158 107.289 232.328 111.449 235.408 115.519C239.698 121.189 243.988 126.849 248.278 132.519C251.668 136.999 255.118 141.569 257.048 146.859C258.828 151.739 259.238 157.019 259.258 162.209C259.318 181.879 253.548 202.099 240.368 216.689C239.348 217.819 238.208 218.959 236.728 219.329C234.238 219.949 231.678 218.049 230.618 215.719C229.548 213.379 229.578 210.719 229.518 208.149C229.318 200.029 227.988 191.939 225.558 184.179C223.738 178.329 220.188 171.809 214.088 171.239C207.468 170.619 202.548 177.689 201.568 184.269C200.588 190.849 201.938 197.689 200.288 204.139C198.418 211.469 192.488 217.619 185.228 219.749C184.358 213.769 183.498 207.789 182.628 201.809C182.198 198.829 181.708 195.699 179.898 193.289C176.398 188.639 169.318 188.469 163.858 190.469C158.388 192.469 153.618 196.129 148.068 197.899C141.758 199.899 134.598 199.419 128.948 202.879C124.398 205.669 121.648 210.549 118.518 214.879C115.388 219.209 111.138 223.429 105.798 223.709C102.928 223.859 99.9683 222.829 97.2383 223.709C90.7183 225.799 88.7383 237.329 82.0283 235.989C79.1783 235.419 77.3983 232.369 77.2283 229.469C77.0583 226.569 78.1084 223.749 78.9883 220.979C82.5984 209.619 83.4383 196.539 77.2283 186.369C71.6583 177.259 61.1083 171.559 57.2383 161.609C55.2783 156.579 55.2784 151.019 55.3984 145.619C55.9184 122.379 59.5184 99.8386 61.7884 76.7986C62.6084 68.4986 59.3084 60.6986 58.3184 52.4886C56.9084 40.7186 56.6984 28.8186 57.6784 17.0286Z" fill="white"/>
<path d="M102.557 98.4289C101.087 99.2089 99.5072 99.5689 97.9172 99.8989C97.8372 99.9189 97.7172 99.7589 97.6172 99.6889C98.8572 98.3889 100.447 97.9289 102.557 98.4289Z" fill="black"/>
<path d="M95.9062 97.5892C97.7663 96.6292 99.1762 95.1992 101.246 95.2892C101.316 95.2892 101.376 95.4892 101.436 95.5892C101.366 95.6892 101.316 95.8492 101.216 95.8892C99.6362 96.5892 98.0562 97.2792 96.4762 97.9592L96.2962 97.9092C96.2462 97.8692 96.1962 97.8192 95.9062 97.5892Z" fill="black"/>
<path d="M114.59 79.529C115.4 79.769 115.87 79.939 116.36 80.049C116.65 80.109 117.06 79.709 116.97 79.449C116.9 79.239 116.7 78.979 116.5 78.919C115.96 78.769 115.83 78.839 114.59 79.529Z" fill="black"/>
<path d="M111.328 80.8087C111.598 80.5987 111.818 80.4687 111.978 80.2887C112.178 80.0587 112.098 79.8187 111.888 79.6087C111.678 79.3987 111.408 79.2987 111.208 79.5087C111.008 79.7187 110.838 80.0187 110.798 80.2987C110.778 80.4287 111.108 80.6087 111.328 80.8087Z" fill="black"/>
<path d="M111.328 84.769C111.458 84.589 111.718 84.369 111.778 84.099C111.868 83.719 111.558 83.459 111.218 83.459C111.028 83.459 110.738 83.669 110.658 83.859C110.498 84.229 110.828 84.719 111.328 84.769Z" fill="black"/>
<path d="M93.0098 79.529C92.1998 79.769 91.7298 79.939 91.2398 80.049C90.9498 80.109 90.5398 79.709 90.6298 79.449C90.6998 79.239 90.8998 78.979 91.0998 78.919C91.6298 78.769 91.7698 78.839 93.0098 79.529Z" fill="black"/>
<path d="M96.2691 80.8087C95.9991 80.5987 95.7791 80.4687 95.6191 80.2887C95.4191 80.0587 95.4991 79.8187 95.7091 79.6087C95.9191 79.3987 96.1891 79.2987 96.3891 79.5087C96.5891 79.7187 96.7591 80.0187 96.7991 80.2987C96.8191 80.4287 96.4891 80.6087 96.2691 80.8087Z" fill="black"/>
<path d="M96.2665 84.769C96.1365 84.589 95.8765 84.369 95.8165 84.099C95.7265 83.719 96.0365 83.459 96.3765 83.459C96.5665 83.459 96.8565 83.669 96.9365 83.859C97.0965 84.229 96.7665 84.719 96.2665 84.769Z" fill="black"/>
<path d="M26.479 109.089C26.2691 110.169 26.3491 110.859 26.0491 111.169C20.8791 116.489 17.6091 123.409 11.7591 128.139C11.1991 128.589 10.5691 128.949 9.53906 128.969C9.70906 128.469 9.71906 127.799 10.0691 127.489C14.6491 123.359 17.7491 118.009 21.7591 113.409C22.6191 112.429 23.4691 111.439 24.3991 110.529C24.8391 110.079 25.449 109.789 26.479 109.089Z" fill="#EB584A"/>
<path d="M22.5082 101.699C18.9282 101.699 15.5382 101.709 12.1482 101.699C8.52819 101.689 4.93818 101.369 1.44818 100.329C0.618182 100.079 -0.421807 99.8791 0.178193 98.2891C0.988193 98.3891 1.87818 98.3591 2.69818 98.6091C6.79818 99.8691 10.9982 99.8591 15.2082 99.7591C17.1082 99.7191 19.0182 99.6691 20.9182 99.5991C22.1882 99.5391 22.8082 100.039 22.5082 101.699Z" fill="#EB584A"/>
<path d="M254.316 106.248C255.096 105.038 255.356 104.498 255.746 104.058C258.776 100.588 261.836 97.1282 264.886 93.6682C265.876 92.5382 266.786 91.3382 267.846 90.2882C268.176 89.9682 268.876 90.0282 269.406 89.9082C269.436 90.4482 269.666 91.1082 269.436 91.4982C268.896 92.4482 268.296 93.4682 267.446 94.1082C264.026 96.6882 261.536 100.098 258.766 103.278C257.976 104.188 257.256 105.168 256.386 105.988C256.116 106.248 255.456 106.118 254.316 106.248Z" fill="#EB584A"/>
<path d="M7.47905 73.0088C7.74905 73.0388 8.10906 72.9788 8.28906 73.1188C14.4891 78.1988 20.6691 83.2988 26.9291 88.4588C26.3591 89.7888 25.5091 89.1888 24.8091 88.6888C22.6891 87.1588 20.5391 85.6588 18.5291 83.9988C15.4291 81.4388 12.4191 78.7888 9.40906 76.1288C8.53906 75.3588 7.82906 74.4088 7.03906 73.5388C7.19906 73.3588 7.33905 73.1788 7.47905 73.0088Z" fill="#EB584A"/>
<path d="M259.707 127.998C260.567 126.728 261.207 127.128 261.737 127.618C262.917 128.708 263.997 129.898 265.187 130.968C268.237 133.718 271.327 136.408 274.377 139.158C275.137 139.838 276.287 140.408 275.477 142.098C269.027 138.588 264.907 132.748 259.707 127.998Z" fill="#EB584A"/>
<path d="M283.088 112.479C283.088 113.079 283.088 113.559 283.088 114.079C282.738 114.169 282.468 114.299 282.188 114.309C278.078 114.449 273.968 114.499 269.868 114.739C267.988 114.849 266.118 115.319 264.258 115.679C263.428 115.839 262.658 116.069 262.258 114.759C262.688 114.499 263.128 114.079 263.648 113.959C265.408 113.559 267.178 113.079 268.968 112.979C273.548 112.719 278.148 112.639 283.088 112.479Z" fill="#EB584A"/>
<path d="M72.8471 41.4791C73.5071 42.2791 74.197 43.3491 73.727 44.2791C73.517 44.6991 73.0971 44.9691 72.7071 45.2291C69.5571 47.2591 66.4071 49.2991 63.2571 51.3291C62.5871 51.7591 61.857 52.2191 61.057 52.1791C59.527 52.1191 58.647 50.3391 58.607 48.8091C58.587 47.8491 58.7571 46.8791 59.1271 45.9891C59.9671 43.9191 61.5771 42.2991 62.3471 40.1891C62.8971 38.6791 62.6471 35.0591 63.8471 33.8991C66.5271 31.2891 70.8971 39.0991 72.8471 41.4791Z" fill="#BCBCBB"/>
<path d="M137.847 40.779C138.147 40.069 138.737 39.529 139.337 39.049C144.047 35.189 150.007 33.199 155.957 31.879C157.197 31.609 158.497 31.359 159.717 31.709C160.937 32.059 162.027 33.189 161.897 34.449C161.737 35.909 160.167 36.729 158.757 37.149C155.497 38.119 151.637 38.569 149.727 41.389C148.527 43.169 148.457 45.459 148.557 47.609C148.597 48.429 148.647 49.299 148.247 50.009C147.897 50.639 147.237 51.059 146.547 51.289C142.827 52.509 136.527 43.839 137.847 40.779Z" fill="#BCBCBB"/>
<path d="M98.4284 198.249C97.9984 192.979 98.0184 187.169 101.338 183.059C103.478 180.399 106.698 178.869 109.848 177.549C116.978 174.579 124.378 172.269 131.938 170.679C130.698 175.709 127.258 179.869 123.918 183.839C123.168 184.729 122.398 185.639 121.368 186.189C120.478 186.669 119.448 186.839 118.468 187.069C110.218 189.019 103.448 196.199 101.998 204.549C101.808 205.669 100.708 214.379 98.4684 210.319C97.9484 209.369 98.8884 205.419 98.8484 204.179C98.7984 202.199 98.5884 200.219 98.4284 198.249Z" fill="#BCBCBB"/>
<path d="M206.606 182.889C209.746 181.519 212.916 180.139 215.616 178.039C209.806 175.579 204.436 172.089 199.826 167.779C198.246 166.309 196.486 164.629 194.326 164.729C192.536 164.819 191.066 166.139 189.876 167.479C187.106 170.599 204.416 181.199 201.576 184.249C193.096 193.349 164.706 195.849 152.906 200.139C157.626 200.139 163.446 197.959 168.046 196.819C171.036 196.079 173.926 195.079 176.856 194.139C187.026 190.889 196.816 187.149 206.606 182.889Z" fill="#BCBCBB"/>
<path d="M156.967 114.288C162.377 115.018 167.857 113.758 173.037 112.058C178.217 110.348 183.267 108.188 188.597 107.008C192.787 106.078 197.107 105.778 201.277 104.738C201.607 104.408 201.107 103.908 200.677 103.718C196.377 101.828 191.977 99.9785 187.297 99.5085C183.297 99.1085 179.277 99.7285 175.317 100.358C166.847 101.688 157.577 102.158 149.327 104.448C139.927 107.048 152.317 114.288 156.967 114.288Z" fill="#BCBCBB"/>
<path d="M65.0996 119.439C65.5496 121.819 65.5596 124.249 65.5696 126.669C65.5996 139.119 65.5896 151.579 65.5296 164.029C65.5296 164.959 65.4496 166.029 64.6796 166.559C63.4596 167.409 61.9096 166.069 61.1196 164.809C57.1796 158.439 56.1896 150.739 55.2996 143.299C54.0096 132.589 52.7296 121.879 51.4396 111.179C51.1096 108.409 48.6496 100.719 51.9896 99.2286C55.3096 97.7486 57.4596 104.049 58.7996 106.169C61.4396 110.299 64.1696 114.539 65.0996 119.439Z" fill="#BCBCBB"/>
<path d="M97.3395 102.089C96.6295 100.569 94.4195 90.3586 91.4995 92.8386C90.2895 93.8586 92.6195 96.9186 93.2395 98.0686C93.7295 98.9786 94.1295 100.079 94.8895 100.809C95.1895 101.099 97.3395 102.089 97.3395 102.089Z" fill="#BCBCBB"/>
<path d="M108.118 2.0789C109.908 1.3389 111.888 0.588903 113.738 1.1889C115.918 1.8989 117.158 4.37891 117.018 6.66891C116.878 8.95891 115.648 11.0389 114.218 12.8289C111.188 16.6089 107.138 19.4789 104.088 23.2489C102.238 21.0489 99.8482 19.2989 97.1782 18.1989C95.2782 17.4089 93.1782 16.9189 91.6382 15.5389C89.6482 13.7489 89.0682 10.8989 88.6082 8.2689C88.4182 7.1989 88.2282 6.0989 88.4082 5.0289C88.5882 3.9589 89.2082 2.89891 90.2182 2.48891C91.0482 2.14891 91.9782 2.2989 92.8482 2.4989C94.3282 2.8389 95.7682 3.3289 97.1582 3.9489C98.1682 4.3989 100.628 6.5189 101.578 6.4989C102.668 6.4789 103.298 4.9189 104.188 4.1789C105.328 3.2289 106.768 2.6389 108.118 2.0789Z" fill="#EB584A"/>
<path d="M115.817 89.4788C115.607 91.3388 113.597 101.539 110.217 97.5088C108.977 96.0388 110.257 93.1688 111.177 91.8688C111.477 91.4388 115.917 88.5088 115.817 89.4788Z" fill="#BCBCBB"/>
<path d="M58.4966 66.5489C60.3066 67.6089 60.4066 69.3189 59.9666 71.0189C59.5166 72.7589 58.8466 74.4589 58.0866 76.0889C56.6066 79.2789 55.0066 82.4089 53.4266 85.5489C52.7766 86.8389 52.2066 87.9589 53.2266 89.4489C53.7766 90.2689 53.7366 91.5689 53.7466 92.6489C53.7866 95.6689 53.5466 98.6889 53.7266 101.699C54.0266 106.799 54.5466 111.889 55.0266 117.499C56.6766 114.569 58.1666 112.149 59.4266 109.619C60.7266 107.019 61.8566 104.329 62.9766 101.649C64.0766 99.0389 64.7666 96.2289 67.0866 93.4589C67.2166 94.6689 67.5166 95.3689 67.3066 95.8589C65.0666 101.009 62.7866 106.149 60.4266 111.249C59.0366 114.259 57.4766 117.189 56.0266 120.169C55.8066 120.609 55.5966 121.119 55.5966 121.589C55.6566 125.099 55.7066 128.579 56.7266 132.029C58.7266 138.799 62.0866 144.999 64.5666 151.569C65.7366 154.659 67.0466 157.689 68.2466 160.769C68.5266 161.479 68.5966 162.269 68.8266 163.269C66.7466 162.659 65.8066 161.379 65.2066 159.719C63.9866 156.319 62.7966 152.909 61.4866 149.549C60.3966 146.749 59.1366 144.019 57.8166 140.929C57.0366 143.229 57.8666 145.089 58.0566 146.959C58.2866 149.249 58.7866 151.519 59.0566 153.809C59.3166 155.919 59.7066 157.879 61.0266 159.699C61.8666 160.859 62.0766 162.489 62.5466 163.909C63.2666 166.119 64.5966 167.539 67.0866 167.559C67.5766 167.559 68.0666 167.679 68.8366 167.789C68.7466 166.629 68.6766 165.619 68.5666 164.249C70.6166 165.259 70.7966 167.119 71.7266 168.559C70.2366 169.929 68.4966 169.029 67.0066 169.449C67.8666 171.699 68.8966 172.839 73.6666 176.759C72.9766 177.049 72.4166 177.279 71.7166 177.569C73.1266 179.499 74.5666 181.479 76.0066 183.449C76.7066 183.549 77.4366 182.419 78.0566 183.549C78.1966 183.809 78.4166 184.049 78.5166 184.319C80.9266 191.099 84.4566 197.519 84.6666 204.999C84.7966 209.599 85.3366 214.199 85.8566 218.789C86.0666 220.669 85.3266 221.859 83.8966 222.809C82.3066 223.869 80.6866 224.879 79.0966 225.919C77.2366 227.129 76.0066 228.749 75.7366 231.019C75.5566 232.509 75.8666 233.789 77.3266 234.899C77.5966 234.409 77.9766 234.039 78.0066 233.629C78.2066 230.679 80.0866 228.929 82.3366 227.459C82.7266 227.209 83.5866 227.129 83.8666 227.379C84.5766 228.029 84.1066 228.709 83.4266 229.059C81.0166 230.319 80.1766 232.459 79.8766 235.069C82.6666 236.859 85.7966 236.689 88.8566 237.099C89.8566 234.519 90.3966 231.879 92.7266 230.149C93.9266 230.509 93.9566 231.229 93.3566 232.159C92.4366 233.589 91.3366 234.939 91.4466 236.999C93.8366 237.079 96.1866 236.369 97.7866 234.949C99.5266 233.399 99.7066 230.739 99.2366 228.449C98.9666 227.149 98.6266 225.809 97.0866 224.829C94.3866 223.099 93.6566 218.079 95.2866 215.289C95.9366 214.159 96.5366 212.929 97.4566 212.049C100.607 209.049 101.137 205.039 101.957 201.129C102.207 199.959 102.347 198.759 102.567 197.579C103.487 192.689 106.897 190.129 111.197 188.419C113.807 187.389 116.407 186.329 119.047 185.359C120.737 184.729 122.467 184.199 124.197 183.679C124.927 183.459 124.947 183.529 126.267 184.569C123.787 186.629 121.227 188.409 118.287 189.779C113.907 191.819 109.867 194.469 106.977 198.489C106.197 199.569 105.687 200.829 104.857 202.369C107.127 202.139 108.647 200.779 111.177 201.249C109.387 201.999 108.237 202.569 107.027 202.969C105.007 203.629 103.977 204.979 103.737 207.229C106.257 206.289 108.447 204.819 111.097 204.649C108.467 206.479 105.177 207.209 102.747 209.639C103.347 210.429 103.867 211.119 104.497 211.949C102.607 212.939 100.437 213.519 99.4966 215.579C99.1066 216.429 99.0266 217.419 98.6566 218.949C100.707 217.609 102.167 216.659 103.607 215.719C104.667 216.739 103.897 217.249 103.367 217.819C102.487 218.759 101.447 219.609 100.777 220.679C99.8066 222.229 100.197 223.389 101.947 223.989C103.527 224.529 105.247 224.679 106.887 224.999C107.987 222.869 108.747 220.669 111.177 220.059C111.587 219.949 112.147 220.409 112.817 220.679C111.667 222.099 109.297 222.309 109.867 224.799C113.737 224.469 116.877 222.969 118.517 219.339C119.747 216.619 120.837 213.839 121.467 210.829C122.007 208.229 123.377 205.779 124.557 203.359C124.837 202.789 125.777 202.389 126.487 202.219C128.927 201.629 131.397 201.159 133.857 200.659C134.447 200.539 135.067 200.289 135.637 200.369C139.737 200.969 143.307 199.179 147.017 197.989C148.167 197.619 149.267 197.099 150.407 196.729C152.107 196.179 152.267 196.299 152.867 198.159C152.927 198.349 152.997 198.529 153.077 198.699C153.117 198.779 153.217 198.839 153.387 198.999C154.187 198.809 155.117 198.729 155.917 198.369C160.087 196.489 164.617 195.969 168.977 194.849C172.277 193.999 175.527 192.979 178.807 192.039C180.347 191.589 181.877 191.039 183.447 190.709C188.407 189.699 193.027 187.739 197.637 185.719C201.777 183.909 205.927 182.149 210.087 180.369C211.407 179.809 212.727 179.739 214.417 180.309C212.787 182.399 210.437 182.149 208.717 183.159C206.817 184.269 204.797 185.189 202.777 186.069C200.847 186.909 198.827 187.559 196.877 188.349C194.827 189.179 192.827 190.119 190.757 190.909C188.787 191.649 186.757 192.249 184.597 192.969C184.597 194.449 184.487 195.929 184.627 197.389C184.797 199.209 184.337 200.709 183.127 202.099C181.687 203.769 180.327 205.529 179.057 207.329C178.047 208.769 177.697 210.349 178.987 212.669C180.157 208.379 181.407 204.799 185.457 203.399C186.467 204.309 186.887 205.059 185.757 205.989C182.177 208.969 182.087 209.139 181.627 213.469C183.847 214.479 187.757 214.569 189.957 213.789C190.767 211.549 191.437 209.479 192.287 207.489C192.627 206.699 193.347 206.039 193.997 205.419C194.537 204.909 195.337 204.629 195.807 205.399C196.017 205.749 195.857 206.609 195.547 206.949C194.167 208.469 193.257 210.169 192.827 212.399C194.737 211.199 196.597 210.269 198.127 208.949C198.937 208.249 199.327 206.899 199.607 205.769C200.527 202.029 200.547 198.209 200.477 194.379C200.447 193.069 200.397 191.759 200.447 190.459C200.477 189.809 200.727 189.179 200.887 188.459C202.117 188.689 202.307 189.469 202.367 190.259C202.787 195.779 202.977 201.339 201.607 206.739C200.907 209.499 199.597 212.129 196.937 213.809C193.947 215.699 190.967 217.439 187.327 217.859C185.437 218.079 183.767 217.259 182.027 217.169C179.147 217.019 177.447 215.349 175.877 213.399C173.767 210.799 173.697 208.719 175.577 205.969C176.477 204.649 177.507 203.389 178.627 202.239C180.897 199.919 180.957 197.119 180.897 193.979C170.817 196.649 161.047 199.239 151.067 201.879C150.847 200.799 150.677 199.959 150.477 198.959C150.137 198.959 149.727 198.869 149.377 198.969C145.807 199.989 142.277 201.139 138.687 202.059C135.977 202.749 133.207 203.209 130.447 203.649C128.547 203.959 127.007 204.589 126.307 206.569C125.537 208.739 124.687 210.869 123.857 213.009C122.627 216.189 121.457 219.399 120.117 222.529C119.007 225.129 116.477 226.489 114.467 228.239C113.787 228.829 112.357 228.789 111.307 228.679C107.947 228.319 104.597 227.799 101.247 227.329C100.937 230.349 100.607 233.589 100.277 236.919C96.1666 238.469 92.5566 240.819 88.0466 240.189C86.8666 240.029 85.6366 240.249 84.4366 240.319C80.1966 240.569 76.8866 238.419 73.8666 235.909C72.0466 234.389 71.8966 231.949 72.3866 229.729C72.8166 227.769 73.7066 225.979 75.5766 224.799C78.1966 223.149 80.7066 221.349 83.6666 219.339C83.6666 219.029 83.7066 218.239 83.6566 217.459C83.3366 212.559 83.1866 207.629 82.6066 202.749C82.1566 198.979 81.3066 195.239 79.7566 191.709C78.9966 189.979 78.4766 188.109 76.4266 187.359C76.0866 187.229 75.8166 186.839 75.5666 186.529C71.5866 181.609 67.5766 176.709 63.6466 171.749C62.7766 170.659 62.1466 169.369 61.4766 168.139C60.9466 167.189 60.6166 166.239 59.3066 165.869C58.7266 165.699 58.2166 164.519 58.0566 163.719C57.2966 159.979 56.6166 156.219 55.9966 152.449C55.2166 147.699 54.4666 142.939 53.8066 138.159C53.4266 135.379 53.1966 132.569 52.9966 129.759C52.4566 121.949 51.8666 114.149 50.7266 106.379C50.1066 102.119 50.0766 97.7789 49.7766 93.3589C48.7366 93.6089 47.6966 93.8689 46.4266 94.1789C46.3466 93.4789 46.0566 92.8289 46.2566 92.4489C47.6066 89.8889 49.1866 87.4589 50.4466 84.8589C52.8166 79.9889 55.0466 75.0489 57.2766 70.1189C57.8066 68.9389 58.1166 67.6489 58.5366 66.4189L58.4966 66.5489Z" fill="black"/>
<path d="M170.889 99.6792C171.019 100.239 171.139 100.789 171.349 101.699C174.049 100.819 176.609 99.9992 179.169 99.1592C182.609 98.0292 186.039 96.9092 189.469 95.7592C190.629 95.3692 191.599 95.6992 191.919 96.7992C192.419 98.5292 193.729 98.8292 195.139 98.9892C196.739 99.1692 198.349 99.2192 199.949 99.3392C206.459 99.8092 212.969 100.299 219.489 100.749C223.209 101.009 226.409 102.739 229.919 104.219C229.819 104.669 229.729 105.099 229.639 105.519C232.669 108.819 235.839 112.159 238.879 115.609C243.819 121.209 248.129 127.229 250.909 134.239C251.539 135.819 252.309 137.359 253.139 138.849C253.709 139.859 253.419 140.529 252.649 141.189C252.099 141.079 251.539 140.969 250.659 140.789C252.559 146.549 252.739 152.229 252.289 157.959C251.669 165.799 250.349 173.489 247.899 180.999C245.859 187.269 244.989 193.599 246.169 200.289C247.329 206.869 245.169 212.789 240.539 217.689C239.939 218.319 239.109 218.849 238.279 219.139C231.169 221.599 227.199 220.879 222.389 216.489C220.759 214.999 220.339 213.019 220.479 210.989C220.599 209.219 220.989 207.489 222.049 205.889C223.659 203.479 224.819 200.969 224.739 197.789C224.649 194.649 225.349 191.449 225.999 188.339C226.309 186.849 225.909 186.059 224.809 185.309C220.809 182.619 216.819 179.929 212.819 177.229C207.899 173.919 202.899 170.719 198.089 167.259C194.609 164.769 191.709 161.699 191.229 157.029C189.799 157.639 188.569 158.159 187.119 158.779C186.949 158.029 186.639 157.489 186.779 157.149C189.379 150.849 191.119 144.199 194.419 138.179C194.899 137.299 195.269 136.349 196.659 136.179C197.329 137.419 196.949 138.639 196.469 139.799C195.169 142.949 193.809 146.079 192.469 149.219C191.959 150.409 191.459 151.609 190.839 153.089C191.679 152.999 192.229 152.939 193.129 152.839C193.369 153.579 193.829 154.379 193.849 155.179C193.939 160.019 196.589 163.299 200.359 165.779C207.499 170.459 214.739 174.979 221.909 179.599C223.989 180.939 226.179 182.209 227.989 183.869C229.169 184.959 229.749 186.699 230.669 188.259C227.029 189.619 228.449 192.419 228.319 195.199C229.849 194.719 231.099 194.329 232.359 193.929C232.419 194.059 232.489 194.199 232.549 194.329C231.169 195.159 229.789 195.989 228.039 197.029C229.979 197.579 231.279 196.449 232.849 196.949C231.709 197.409 230.529 197.799 229.459 198.369C228.809 198.719 227.839 199.349 227.819 199.889C227.709 202.999 225.679 205.269 224.539 207.909C224.029 209.099 223.259 210.219 223.999 211.819C224.659 210.409 225.099 209.059 225.869 207.939C226.669 206.769 227.619 205.469 229.789 206.049C229.299 206.819 229.009 207.419 228.599 207.909C227.119 209.669 226.349 211.659 226.339 213.989C226.339 215.649 226.629 216.229 228.049 216.689C230.579 217.509 232.959 217.359 235.819 216.139C235.959 213.449 235.919 210.559 238.089 208.389C238.589 207.889 239.309 207.619 240.429 206.939C240.119 210.199 237.149 212.059 238.219 215.209C240.049 213.739 241.979 212.449 242.739 210.209C243.769 207.159 244.539 204.029 243.949 200.749C243.739 199.559 243.419 198.369 243.419 197.179C243.409 194.989 243.479 192.789 243.729 190.609C244.019 188.129 244.549 185.669 244.989 183.129C242.659 181.329 239.979 180.469 237.369 179.499C236.329 179.109 235.219 178.889 234.269 178.349C233.539 177.939 232.619 177.249 232.469 176.539C232.129 174.969 231.159 174.649 229.869 174.599C227.739 174.519 225.729 174.179 223.919 172.849C223.249 172.359 222.199 172.359 221.309 172.199C218.589 171.699 216.169 170.569 213.889 169.019C212.669 168.189 211.269 167.559 209.879 167.039C206.869 165.919 203.799 164.969 200.779 163.869C199.979 163.579 199.299 162.989 198.679 161.949C199.269 161.919 199.909 161.729 200.429 161.899C204.049 163.079 207.639 164.329 211.239 165.559C212.849 166.109 214.339 166.709 215.729 167.859C217.679 169.479 220.179 170.129 222.729 170.349C224.219 170.479 225.579 170.659 226.899 171.709C227.799 172.419 229.359 172.409 230.649 172.489C232.549 172.599 233.969 173.049 234.299 175.249C234.389 175.819 234.969 176.569 235.509 176.789C238.759 178.109 242.059 179.299 245.499 180.599C245.779 180.099 246.139 179.619 246.319 179.089C249.099 170.709 250.079 162.049 250.429 153.279C250.599 148.899 249.609 144.699 248.459 140.519C248.329 140.039 248.169 139.579 247.979 138.949C248.689 138.519 249.319 138.129 249.999 137.719C249.959 137.419 249.979 137.109 249.869 136.849C247.829 131.809 245.149 127.169 242.039 122.669C239.099 118.419 235.539 114.759 232.389 110.729C230.979 108.929 229.109 107.479 227.339 105.999C226.789 105.539 225.889 105.369 225.129 105.329C219.019 104.929 212.869 104.849 206.789 104.159C202.119 103.639 197.499 102.489 192.919 101.379C191.669 101.079 190.619 99.8992 189.099 98.8592C185.149 100.239 180.819 101.799 176.449 103.249C174.739 103.819 172.959 104.179 171.189 104.559C170.509 104.709 169.589 104.969 169.129 104.649C166.599 102.919 164.049 104.079 161.639 104.629C156.089 105.909 150.589 106.679 144.939 105.379C144.379 105.249 143.709 105.649 142.879 105.849C141.959 103.279 141.349 100.759 142.669 98.0892C143.069 97.2892 143.239 96.3792 143.519 95.5192C143.669 95.0492 143.699 94.3992 144.029 94.1392C146.139 92.4992 146.429 89.7992 147.859 87.7792C148.629 86.6892 148.539 85.5292 147.909 84.3592C144.259 77.5392 146.199 71.3092 150.109 65.4092C151.489 63.3292 153.269 61.5292 154.869 59.5992C159.769 53.6992 164.229 47.5292 167.049 40.3192C168.149 37.5192 169.329 34.7492 170.509 31.8692C169.809 31.0992 168.859 30.5192 169.189 29.0192C169.849 25.9692 168.199 24.2192 165.059 24.5292C163.469 24.6892 161.919 25.1892 160.359 25.5792C155.979 26.6692 151.579 27.7492 147.219 28.9192C145.499 29.3792 143.829 30.0592 142.149 30.6592C139.119 31.7292 136.089 32.7892 133.079 33.9092C131.859 34.3592 130.659 34.8992 129.509 35.4992C128.499 36.0292 127.809 35.8692 127.129 34.5092C128.029 33.7592 128.899 32.7992 129.969 32.1892C132.149 30.9492 134.439 29.9092 136.699 28.7892C137.059 28.6092 137.439 28.4492 137.829 28.3892C146.219 27.1492 154.049 23.9592 162.059 21.4192C164.989 20.4892 167.729 20.2592 170.459 21.9192C172.999 23.4592 174.329 26.2192 173.529 29.0892C172.809 31.6892 171.899 34.2492 170.869 36.7392C168.959 41.3792 166.939 45.9592 164.299 50.2692C161.599 54.6792 158.249 58.5292 154.949 62.4492C152.479 65.3792 150.109 68.3492 149.059 72.1592C147.959 76.1292 147.569 80.0392 149.769 83.7592C150.929 85.7192 150.839 87.3692 149.559 89.3092C148.139 91.4792 147.069 93.8992 146.019 96.2792C145.299 97.9092 145.529 99.7192 146.279 101.259C146.639 102.009 147.749 102.619 148.629 102.839C151.359 103.529 154.029 102.769 156.629 102.009C159.909 101.059 163.149 99.9592 166.369 98.8392C167.399 98.4892 168.199 98.2492 169.059 99.2392C169.359 99.6392 170.229 99.5492 170.889 99.6792Z" fill="black"/>
<path d="M84.1889 78.9887C84.7289 80.2087 85.1689 81.0887 85.5089 81.9987C87.3489 86.9787 90.7089 88.1687 95.8889 87.4387C98.5889 87.0587 100.229 84.8287 101.319 82.5787C99.1489 79.1987 97.0889 76.0187 95.0189 72.7987C96.1489 69.9887 98.4789 68.8587 101.069 68.2987C103.559 67.7587 106.079 67.9787 108.409 69.1387C109.209 69.5387 110.019 70.0187 110.649 70.6287C112.829 72.7787 112.829 74.7087 110.579 76.7787C108.309 78.8687 105.909 80.8187 103.569 82.8387C107.699 88.0487 112.659 88.7087 117.879 84.8187C119.579 83.5487 121.219 82.2787 122.419 80.4787C122.869 79.7987 123.649 79.3387 124.299 78.7587C125.339 79.9287 124.829 80.7087 124.229 81.3887C123.039 82.7387 121.819 84.0787 120.549 85.3587C119.449 86.4587 118.319 87.3987 117.459 88.8587C116.519 90.4687 114.539 91.5387 112.879 92.6487C111.549 93.5387 110.669 94.3887 110.519 96.1587C110.239 99.5987 107.989 101.719 104.989 103.099C102.829 104.089 100.739 103.969 98.7189 102.599C95.9089 100.699 93.7689 97.3987 93.2489 93.7087C88.1389 91.7787 85.9489 87.1087 83.8089 82.4387C83.4089 81.5887 82.7189 80.4487 84.1889 78.9887ZM102.769 85.2587C101.219 86.4687 99.7389 87.4787 98.4389 88.6687C96.4789 90.4487 95.4189 92.8687 95.8389 95.3887C96.3289 98.2887 98.3789 100.329 101.109 101.539C101.539 101.729 102.119 101.839 102.549 101.709C105.289 100.889 107.489 99.3487 108.249 96.4387C108.989 93.6087 108.909 90.7887 106.719 88.5387C105.479 87.2687 103.969 86.2387 102.769 85.2587Z" fill="black"/>
<path d="M58.5571 66.4988C55.9471 66.6988 55.7271 66.6488 55.1071 64.3688C54.3971 61.7588 54.0871 59.0288 53.2671 56.4588C51.8071 51.8788 50.0671 47.3888 48.4971 42.8488C48.0071 41.4288 47.5371 39.9888 47.2671 38.5188C46.2871 33.1888 45.3071 27.8688 44.5171 22.5088C44.0271 19.1788 44.7571 16.0188 47.4471 13.7388C49.8971 11.6588 52.7671 10.4388 56.0271 11.3888C61.8871 13.0988 67.0671 16.0788 71.6771 20.0788C72.8071 21.0588 74.0871 21.8488 75.3171 22.6988C76.9071 23.8088 78.1871 25.0388 76.8471 27.3388C80.1171 30.0888 83.2571 32.7188 86.6171 35.5388C89.9271 34.0188 93.1771 32.5288 96.6071 30.9588C96.9771 31.5788 97.3571 32.2188 97.8471 33.0388C100.167 32.6588 102.567 32.4188 104.897 31.8688C109.347 30.8188 113.857 30.6688 118.387 30.8588C120.757 30.9588 122.787 31.9688 125.187 33.6788C123.397 33.9588 122.177 33.6388 121.037 33.3988C116.397 32.4388 111.807 33.1488 107.237 33.7288C103.567 34.1988 99.9371 35.0188 96.2971 35.7688C94.9971 36.0388 94.1571 35.6488 93.7171 34.2388C91.7771 35.0288 90.0071 35.6988 88.2771 36.4888C86.9571 37.0888 85.8471 36.9588 84.6171 36.1488C80.5471 33.4688 77.2671 29.9288 73.8571 26.5188C73.5771 26.2388 73.1171 25.7788 73.1971 25.5688C73.9171 23.6488 72.2071 23.2388 71.2871 22.3488C67.5671 18.7188 62.8871 16.5388 58.4971 13.9188C56.6671 12.8288 54.6371 12.7288 52.6471 12.9988C51.7771 13.1188 50.9971 13.9788 50.1771 14.4988C48.9171 13.9588 48.4471 14.5288 48.1971 16.1988C49.1171 15.4088 49.6671 14.9288 50.2171 14.4488C48.8871 17.3888 47.8171 20.3688 47.9971 23.6988C48.2271 27.9388 49.2971 31.9888 50.5171 36.0088C51.5971 39.5588 52.9971 43.0188 53.8171 46.6188C55.0871 52.1888 56.2871 57.7588 58.3971 63.0888C58.8371 64.2088 59.1571 65.3888 58.4871 66.5588L58.5571 66.4988Z" fill="black"/>
<path d="M101.73 5.41881C102.1 4.97881 102.43 4.6188 102.71 4.2288C104.43 1.8988 106.77 0.708799 109.63 0.568799C111.03 0.508799 112.44 0.478802 113.84 0.578802C116.92 0.798802 118.13 2.22881 117.56 5.3088C117.24 7.04881 116.66 8.8788 115.7 10.3488C113.34 13.9488 110.74 17.3888 108.15 20.8288C107.25 22.0188 106.15 23.0788 105.05 24.1088C104.36 24.7488 103.51 25.2288 102.39 26.0188C102.01 23.6588 100.59 22.7088 99.01 21.8288C97.17 20.8088 95.43 19.6188 93.65 18.4888C89.42 15.8088 87.38 11.9588 87.26 6.9488C87.2 4.2688 88.39 2.34881 90.25 0.668805C91.31 -0.291194 92.49 -0.101198 93.61 0.508802C96.02 1.8388 98.95 2.3188 100.62 4.8788C100.79 5.1488 101.28 5.20881 101.73 5.41881ZM115.23 2.8488C113.12 2.0388 110.86 2.15881 108.78 2.73881C106.24 3.45881 103.94 4.7188 103.95 8.0088C103.95 8.8288 103.41 9.6488 102.92 11.0288C101.83 9.7288 101.05 8.8888 100.37 7.9588C98.53 5.4488 96.02 4.1588 92.98 3.9388C91.42 3.8188 90.28 4.5488 90.37 5.7688C90.55 8.2788 90.42 10.9788 92.67 12.9188C93.96 12.0188 95.15 11.1888 96.32 10.3688C96.68 11.3288 96.94 12.0288 97.19 12.6988C96.28 13.5588 95.36 14.4288 94.36 15.3788C97.4 18.2788 100.99 19.6188 104.21 21.4288C104.51 21.3188 104.74 21.2988 104.87 21.1688C109.04 17.1988 112.26 12.4888 115.1 7.5288C115.91 6.1088 116.16 4.5088 115.23 2.8488Z" fill="black"/>
<path d="M136.429 87.6485C137.539 85.8885 138.649 84.1385 139.639 82.5885C138.929 80.5485 136.179 81.1585 135.969 78.8085C138.399 78.5085 139.889 80.1085 141.679 80.9185C141.859 83.3785 140.889 85.2384 139.639 86.9384C137.519 89.8284 136.339 93.1685 135.449 96.5285C134.559 99.8985 135.259 103.308 136.889 106.448C137.029 106.708 137.179 107.058 137.419 107.168C141.099 108.758 141.079 112.988 143.409 115.548C144.039 116.238 143.659 117.038 143.199 117.768C142.309 119.188 141.459 120.638 140.559 122.148C141.109 122.538 141.409 122.788 141.739 122.988C143.659 124.188 144.369 125.568 143.519 127.478C140.749 133.698 140.019 140.438 138.459 146.958C138.109 148.418 138.089 149.948 137.829 151.428C137.739 151.938 137.359 152.408 136.759 153.558C136.199 151.458 136.099 150.018 136.339 148.608C137.189 143.668 138.039 138.718 139.059 133.808C139.549 131.468 140.429 129.208 141.099 126.908C141.209 126.538 141.189 126.128 141.239 125.638C140.579 125.308 139.959 125.018 139.359 124.688C137.889 123.878 137.559 123.318 138.219 121.778C139.039 119.848 140.089 118.028 141.219 115.828C140.119 114.388 138.949 112.778 137.719 111.228C135.409 108.328 134.019 105.048 133.429 101.408C132.829 97.6885 133.629 94.2485 135.289 90.9185C135.809 89.8685 136.089 88.6985 136.479 87.5885L136.429 87.6485Z" fill="black"/>
<path d="M75.2695 76.5195C78.1295 72.8595 80.8295 70.0195 84.5095 68.1695C85.8195 67.5095 87.0095 66.4895 88.0395 65.4295C90.5495 62.8295 92.9495 60.1195 95.3695 57.4395C96.1695 56.5595 97.1095 55.7695 96.6295 54.2895C96.4795 53.8295 96.7995 53.0995 97.1095 52.6095C99.1495 49.3495 99.5095 45.6295 100.1 41.9695C100.2 41.3195 100.42 40.6895 101.11 39.9395C101.35 40.4695 101.81 41.0095 101.8 41.5395C101.76 42.9395 101.55 44.3395 101.36 45.7295C101.01 48.3795 99.9295 50.8495 99.8995 53.6195C99.8795 55.0395 98.7995 56.6495 97.7795 57.8195C94.6895 61.3795 91.6395 65.0495 88.1095 68.1495C84.7495 71.0995 80.8095 73.3795 77.1095 75.9295C76.7395 76.1595 76.2495 76.2095 75.2695 76.5195Z" fill="black"/>
<path d="M106.71 47.7891C106.99 48.2791 107.34 48.7491 107.54 49.2691C108.21 50.9491 108.75 52.6791 109.48 54.3291C110.96 57.6591 112.81 60.6191 115.95 62.8291C119.58 65.3891 123.06 67.9991 127.46 69.1691C130.52 69.9891 133.46 71.2191 136.71 72.3591C136.16 72.6291 135.72 73.0091 135.25 73.0491C134.16 73.1291 132.98 73.2891 131.97 72.9891C126.08 71.2491 120.27 69.3191 115.65 64.9791C114.99 64.3691 114.17 63.9391 113.52 63.3191C112.44 62.2891 111.08 61.3491 110.46 60.0691C108.79 56.6591 107.41 53.0991 105.99 49.5691C105.81 49.1091 106.02 48.4991 106.06 47.9591C106.27 47.8991 106.49 47.8491 106.71 47.7891Z" fill="black"/>
<path d="M137.59 39.3192C139.64 37.0992 142.45 36.2892 144.92 34.9392C147.58 33.4892 150.38 32.4892 153.33 31.7792C156.13 31.0992 158.88 30.2292 161.65 29.4492C163.56 30.5892 164.76 32.0692 164.96 34.2592C165.1 35.8592 165 36.0692 163.19 37.6992C163.15 36.5092 163.16 35.5792 163.07 34.6492C162.89 32.7592 162.18 32.0792 160.33 32.3792C155.87 33.0992 151.51 34.2292 147.38 36.1092C144.92 37.2292 142.48 38.4192 140.03 39.5692C139.31 39.8892 138.58 40.2892 137.59 39.3192Z" fill="black"/>
<path d="M68.8267 36.9487C65.7867 33.6187 62.7467 30.2987 59.7267 26.9487C59.6667 26.8787 59.8467 26.5987 59.9867 26.2188C60.3067 26.2987 60.7167 26.2987 60.9767 26.4987C61.6767 27.0587 62.3467 27.6687 62.9767 28.3187C66.9367 32.4287 70.8767 36.5587 75.1667 41.0387C74.0267 44.5587 70.7167 47.1287 68.7467 50.5387C68.3567 51.2087 67.4467 51.5687 66.6667 52.1487C66.2267 50.5387 66.2067 50.5187 69.1267 46.5087C70.3567 44.8187 71.6667 43.1987 73.1667 41.2587C71.7367 39.8287 70.2767 38.3687 68.8067 36.9187L68.8267 36.9487Z" fill="black"/>
<path d="M141.817 162.568C140.987 163.678 140.147 164.869 139.247 166.019C137.027 168.859 134.847 171.718 132.537 174.478C130.347 177.088 128.017 179.569 125.757 182.109L125.527 182.299C124.977 182.349 124.417 182.378 123.867 182.418C123.917 181.888 123.767 181.198 124.047 180.838C125.277 179.258 126.637 177.778 127.927 176.248C129.207 174.718 130.437 173.148 131.727 171.628C133.207 169.878 134.727 168.148 136.237 166.418C137.347 165.148 138.477 163.878 139.607 162.618C140.167 162.008 140.747 161.398 141.817 162.568Z" fill="black"/>
<path d="M124.549 55.9987C124.599 58.3687 123.049 60.1787 120.879 60.2687C118.799 60.3587 117.049 58.6987 116.979 56.5687C116.899 54.3687 118.929 52.1887 121.039 52.1787C122.729 52.1787 124.509 54.1187 124.549 55.9987Z" fill="black"/>
<path d="M82.5899 56.8092C82.5799 55.0392 84.1999 53.4792 86.1099 53.4092C88.3499 53.3292 90.0499 54.9092 89.9999 57.0592C89.9599 59.0292 88.2899 61.0092 86.5899 61.1092C85.0299 61.1892 82.5999 58.5992 82.5899 56.8092Z" fill="black"/>
<path d="M143.417 47.9984C143.907 49.2184 144.287 50.1884 144.787 51.4284C142.597 51.3884 142.457 49.6784 141.627 48.7584C140.627 47.6484 139.717 46.4583 138.787 45.2983C137.947 44.2383 137.117 43.1584 136.207 41.9884C137.907 40.8984 138.367 42.2784 139.047 42.8984C139.847 43.6284 140.537 44.4783 141.137 45.1283C142.997 44.7683 144.647 44.4483 146.307 44.1283C146.387 44.2683 146.467 44.4084 146.557 44.5584C145.527 45.6784 144.507 46.7984 143.417 47.9984Z" fill="black"/>
<path d="M69.2789 80.0583C67.8689 81.5783 66.5289 83.0283 65.2189 84.4383C66.1689 86.6183 68.5789 87.1783 69.8589 89.6183C66.7189 88.8083 64.6989 87.5683 63.3789 85.3183C62.8789 84.4683 62.9789 83.5383 63.6789 82.7983C64.8589 81.5683 66.0389 80.3383 67.3089 79.2183C68.0689 78.5583 68.7989 78.7683 69.2789 80.0583Z" fill="black"/>
<path d="M136.478 87.5891C135.098 89.1191 133.688 90.6291 132.348 92.1891C131.608 93.0491 131.208 94.2591 129.898 94.6391C129.438 91.5891 131.758 88.2291 135.778 86.0791C136.008 86.6191 136.218 87.1291 136.438 87.6491L136.478 87.5891Z" fill="black"/>
<path d="M106.498 46.4891C104.578 43.4991 104.508 40.6991 104.088 38.0291C104.018 37.6091 104.538 37.0891 104.838 36.5391C106.238 38.2691 106.998 42.4891 106.498 46.4891Z" fill="black"/>
<path d="M82.668 48.6285C85.108 45.5585 89.048 45.9585 91.538 49.3185C89.918 50.3285 88.778 48.6985 87.428 48.6485C85.968 48.5885 84.498 48.6285 82.668 48.6285Z" fill="black"/>
<path d="M125.386 49.2691C123.606 48.1591 121.856 47.1791 119.726 48.7091C119.486 48.0091 119.126 47.5091 119.246 47.1791C119.416 46.6691 119.826 46.0891 120.296 45.8591C122.016 44.9891 125.057 46.3891 125.647 48.2691C125.717 48.4891 125.516 48.7991 125.386 49.2691Z" fill="black"/>
<path d="M220 146.099C222.31 144.889 224.13 143.939 225.96 142.979C225.06 145.369 222.89 146.689 220 146.099Z" fill="black"/>
<path d="M68.8066 36.9287C66.8966 38.5487 64.8066 39.8687 62.2266 41.1787C63.5466 38.7187 65.6066 37.4887 68.8266 36.9487L68.8066 36.9287Z" fill="black"/>
<path d="M156.449 143.659C156.679 141.389 157.669 140.709 161.499 140.309C159.549 141.599 158.079 142.579 156.449 143.659Z" fill="black"/>
<path d="M218.77 143.679C220.24 141.699 222 140.669 224.04 139.749C223.23 141.609 221.58 142.859 218.77 143.679Z" fill="black"/>
<path d="M91.6875 172.229C92.2075 170.179 93.7975 169.079 95.8975 168.419C94.6975 169.829 93.4975 171.249 92.2975 172.659C92.0975 172.519 91.8975 172.369 91.6875 172.229Z" fill="black"/>
<path d="M161.558 134.349C160.548 135.829 159.398 137.139 157.078 137.989C158.258 135.729 159.688 134.759 161.558 134.349Z" fill="black"/>
<path d="M65.6077 35.6895C64.1077 36.8595 62.5977 38.0195 61.0977 39.1895C61.8077 36.9995 63.2077 35.6895 65.6077 35.6895Z" fill="black"/>
<path d="M111.087 124.419C109.487 123.839 107.887 123.259 105.887 122.529C108.167 121.829 108.917 122.079 111.087 124.419Z" fill="black"/>
<path d="M95.7695 172.509C96.8395 170.279 98.5095 169.849 100.17 169.059C99.0695 170.919 98.8095 171.129 95.7695 172.509Z" fill="black"/>
<path d="M172.199 167.408C173.839 167.978 174.939 169.128 175.659 170.678C174.019 170.108 172.849 169.038 172.199 167.408Z" fill="black"/>
<path d="M103.539 124.209C105.409 123.919 106.479 125.189 107.639 126.309C106.009 126.159 104.809 125.159 103.539 124.209Z" fill="black"/>
<path d="M168.438 170.839C170.477 170.519 171.487 171.549 171.787 173.489C170.667 172.609 169.558 171.719 168.438 170.839Z" fill="black"/>
<path d="M81.707 133.819C84.107 131.849 84.107 131.849 86.597 131.879C85.187 133.029 83.857 133.549 81.707 133.819Z" fill="black"/>
<path d="M83.0172 129.889C82.4372 130.409 81.8672 130.929 81.1372 131.599C81.1372 131.129 81.0272 130.759 81.1572 130.639C81.6472 130.199 82.2072 129.849 82.7472 129.469C82.8372 129.609 82.9272 129.749 83.0172 129.889Z" fill="black"/>
<path d="M85.7878 55.3187C85.7878 55.8087 85.3878 56.2087 84.8978 56.2087C84.4078 56.2087 84.0078 55.8087 84.0078 55.3187C84.0078 54.8287 84.4078 54.4287 84.8978 54.4287C85.3878 54.4287 85.7878 54.8287 85.7878 55.3187Z" fill="white"/>
<path d="M120.12 54.5687C120.12 55.0587 119.72 55.4587 119.23 55.4587C118.74 55.4587 118.34 55.0587 118.34 54.5687C118.34 54.0787 118.74 53.6787 119.23 53.6787C119.72 53.6787 120.12 54.0787 120.12 54.5687Z" fill="white"/>
<path d="M101.228 71.2885C102.248 70.9885 103.308 70.8085 104.378 70.7385C104.518 70.7285 104.628 70.7285 104.738 70.7285C105.048 70.7285 105.228 70.7585 105.578 70.9085C105.928 71.0585 106.438 71.3285 107.278 71.7785C107.458 71.8785 107.688 71.8085 107.788 71.6285C107.888 71.4485 107.818 71.2185 107.638 71.1185C106.798 70.6685 106.288 70.3885 105.878 70.2185C105.468 70.0385 105.128 69.9785 104.748 69.9785C104.618 69.9785 104.488 69.9885 104.348 69.9885C103.228 70.0585 102.108 70.2485 101.028 70.5685C100.828 70.6285 100.718 70.8385 100.778 71.0385C100.818 71.2385 101.028 71.3485 101.228 71.2885Z" fill="white"/>
</svg>
