<?xml version="1.0" encoding="utf-8"?>
<!-- Generator: Adobe Illustrator 25.2.1, SVG Export Plug-In . SVG Version: 6.00 Build 0)  -->
<svg version="1.1" xmlns="http://www.w3.org/2000/svg" xmlns:xlink="http://www.w3.org/1999/xlink" x="0px" y="0px"
	 viewBox="0 0 300 340.3" style="enable-background:new 0 0 300 340.3;" xml:space="preserve">
<style type="text/css">
	.st0{fill:#FFFFFF;}
	.st1{fill:#BBBBBA;}
	.st2{fill:#F15748;}
</style>
<g id="Corgi">
	<g>
		<path class="st0" d="M78.4,280.4c0,0,60.1,18.9,144.3-1l10.4-59.8l4.6,2.2L227.3,185c0,0,0.6-11.7,2.3-16
			c1.7-4.3,13.7-50.2,13.7-50.2s4.8-23.4-5.8-26.7c-10.6-3.2-21.5,5.3-21.5,5.3l-19.3,13.3l1.3,3.1l-17.1,15.4c0,0-7-6.5-31.8-1.3
			l-12.9,2.5l-1.1-3.3l-14.6,6.2L106,121.6l-4.7-4.7l0.6-3.5c0,0-25.4-22.3-37.7-19.4s-8.8,22.4-8.8,22.4l17.4,62.8l2.1,4.6
			l-11.2,38.8l4.2-1.6l11.4,56.6L78.4,280.4z"/>
		<path d="M166.2,203.8c1.3,0.4,2.1,0.7,2.9,0.8c0.5,0.1,1.1-0.5,1-1c-0.1-0.3-0.4-0.8-0.8-0.9C168.4,202.5,168.2,202.6,166.2,203.8
			z"/>
		<path d="M160.9,205.9c0.4-0.3,0.8-0.5,1.1-0.9c0.3-0.4,0.2-0.8-0.1-1.1c-0.3-0.3-0.8-0.5-1.1-0.2c-0.3,0.3-0.6,0.8-0.7,1.3
			C160,205.2,160.5,205.5,160.9,205.9z"/>
		<path d="M160.9,212.3c0.2-0.3,0.6-0.7,0.7-1.1c0.1-0.6-0.3-1-0.9-1.1c-0.3,0-0.8,0.3-0.9,0.7C159.5,211.4,160.1,212.2,160.9,212.3
			z"/>
		<path d="M131,203.8c-1.3,0.4-2.1,0.7-2.9,0.8c-0.5,0.1-1.1-0.5-1-1c0.1-0.3,0.4-0.8,0.8-0.9C128.8,202.5,129,202.6,131,203.8z"/>
		<path d="M136.3,205.9c-0.4-0.3-0.8-0.5-1.1-0.9c-0.3-0.4-0.2-0.8,0.1-1.1s0.8-0.5,1.1-0.2c0.3,0.3,0.6,0.8,0.7,1.3
			C137.2,205.2,136.7,205.5,136.3,205.9z"/>
		<path d="M136.3,212.3c-0.2-0.3-0.6-0.7-0.7-1.1c-0.1-0.6,0.3-1,0.9-1.1c0.3,0,0.8,0.3,0.9,0.7
			C137.7,211.4,137.1,212.2,136.3,212.3z"/>
		<path class="st1" d="M98.2,141.7c1.1,1.3,2.2,3.1,1.4,4.6c-0.3,0.7-1,1.1-1.7,1.6c-5.1,3.3-10.3,6.6-15.4,9.9
			c-1.1,0.7-2.3,1.4-3.6,1.4c-2.5-0.1-3.9-3-4-5.5c0-1.6,0.2-3.1,0.8-4.6c1.4-3.4,4-6,5.3-9.5c0.9-2.5,0.5-8.4,2.4-10.2
			C87.9,125.1,95,137.9,98.2,141.7z"/>
		<path class="st1" d="M79.5,280.7c1.5,0.5,3,0.9,4.5,1.3c5.3,1.4,10.5,2.2,15.9,2.8c-0.5-3.2-0.9-6.5-1.4-9.7
			c-0.5-3.9-1.1-7.8-2.4-11.6c-2.6-7.7-8-13.9-13.1-20c-2.7-3.1-7.5-12.8-12.6-9.7c-5,3.1,0.6,15,1.8,19.4
			C74.6,262.4,77,271.6,79.5,280.7z"/>
		<path class="st1" d="M138.1,240.5c-1.2-2.5-4.8-19.1-9.5-15.1c-2,1.7,1.8,6.6,2.8,8.5c0.8,1.5,1.5,3.3,2.7,4.5
			C134.6,238.9,138.1,240.5,138.1,240.5z"/>
		<path class="st1" d="M168.2,220c-0.3,3-3.6,19.7-9.1,13.1c-2-2.4,0.1-7.1,1.6-9.2C161.1,223.2,168.4,218.4,168.2,220z"/>
		<path d="M65.6,225c1.5,7.1,2.5,14.1,4.4,20.8c3.3,11.4,5.9,23,8.4,34.6c1.8,0.6,3.7,1.2,5.6,1.6c0,0,0.1,0,0.1,0
			c-1.4-4.2-2.1-8.5-2.8-12.9c-0.1-0.8,0.1-1.6,0.4-2.4c1.7-5.1,3.5-10.2,5.1-15.4c2.7-8.7,5.2-17.6,7.6-26.4
			c0.2-0.8-0.4-1.9-0.9-3.8c-3.1,5-3.6,9.7-4.8,14.1c-1.2,4.6-2.4,9.2-4,13.7c-1.5,4.4-3.3,8.6-5.3,13.7c-2-8.9-4-17-5.7-25.2
			c-0.9-4.8-1.2-9.8-2-14.6c-0.2-1.7-0.5-3.8-1.6-5c-2-2.2-1.3-4.1-0.6-6.3c1.9-5.4,3.7-10.9,5.4-16.3c0.9-2.8,1.5-5.7,1.9-8.6
			c0.3-2.8-0.2-5.5-3.3-6.8c-0.4,2-0.6,4.1-1.2,6.1c-2.5,8.4-5,16.9-7.7,25.3c-1.5,4.5-3.5,8.8-5.1,13.2c-0.3,0.7,0.4,1.6,0.7,2.7
			C62.3,226.3,63.9,225.6,65.6,225z"/>
		<g>
			<path d="M116.6,202.9c0.9,2,1.6,3.4,2.1,4.9c3,8.1,8.5,10,16.9,8.9c4.4-0.6,7.1-4.2,8.9-7.9c-3.5-5.5-6.9-10.7-10.3-15.9
				c1.8-4.6,5.7-6.4,9.8-7.3c4-0.9,8.2-0.5,12,1.4c1.3,0.6,2.6,1.4,3.7,2.4c3.6,3.5,3.6,6.6-0.1,10c-3.7,3.4-7.6,6.6-11.4,9.9
				c6.7,8.5,14.8,9.6,23.3,3.2c2.8-2.1,5.4-4.1,7.4-7.1c0.7-1.1,2-1.9,3.1-2.8c1.7,1.9,0.9,3.2-0.1,4.3c-1.9,2.2-3.9,4.4-6,6.5
				c-1.8,1.8-3.6,3.3-5,5.7c-1.5,2.6-4.7,4.5-8,5.2c-9.3,1.5-14-9.2-16.5-9.1c-2,0.1-9.4,11.1-14.6,8.9c-8.3-3.1-12.2-7.9-15.6-15.5
				C115.4,207.1,114.2,205.3,116.6,202.9z"/>
		</g>
		<path d="M74.9,182.5c-4.2,0.3-4.6,0.2-5.6-3.5c-1.2-4.3-1.7-8.7-3-12.9c-2.4-7.5-5.2-14.8-7.8-22.2c-0.8-2.3-1.6-4.7-2-7.1
			c-1.6-8.7-3.2-17.3-4.5-26.1c-0.8-5.4,0.4-10.6,4.8-14.3c4-3.4,8.7-5.4,14-3.8c9.5,2.8,18,7.6,25.5,14.2c1.8,1.6,3.9,2.9,5.9,4.3
			c2.6,1.8,4.7,3.8,2.5,7.6c5.3,4.5,10.4,8.8,15.9,13.4c5.4-2.5,10.7-4.9,16.3-7.5c0.6,1,1.2,2,2,3.4c3.8-0.6,7.7-1,11.5-1.9
			c7.3-1.7,14.6-1.9,22-1.7c3.8,0.1,7.2,1.8,11.1,4.6c-2.9,0.4-4.9-0.1-6.8-0.5c-7.6-1.6-15-0.4-22.5,0.5c-6,0.8-11.9,2.1-17.8,3.3
			c-2.1,0.4-3.5-0.2-4.2-2.5c-3.2,1.3-6,2.4-8.9,3.7c-2.2,1-3.9,0.8-5.9-0.6c-6.6-4.4-12-10.1-17.5-15.7c-0.4-0.4-1.2-1.2-1.1-1.6
			c1.2-3.1-1.6-3.8-3.1-5.3c-6.1-5.9-13.7-9.5-20.9-13.7c-3-1.8-6.3-1.9-9.5-1.5c-1.4,0.2-2.7,1.6-4,2.4c-2-0.9-2.8,0-3.2,2.8
			c1.5-1.3,2.4-2.1,3.3-2.9c-2.2,4.8-3.9,9.6-3.6,15.1c0.4,6.9,2.1,13.5,4.1,20.1c1.8,5.8,4,11.4,5.4,17.3c2.1,9.1,4,18.2,7.5,26.8
			C75.4,178.7,75.9,180.6,74.9,182.5L74.9,182.5z"/>
		<path d="M102.1,198.8c4.7-6,9.1-10.6,15.1-13.6c2.1-1.1,4.1-2.7,5.7-4.5c4.1-4.2,8-8.7,11.9-13c1.3-1.4,2.8-2.7,2-5.1
			c-0.2-0.8,0.3-1.9,0.8-2.7c3.3-5.3,3.9-11.4,4.9-17.3c0.2-1.1,0.5-2.1,1.7-3.3c0.4,0.9,1.1,1.8,1.1,2.6c0,2.3-0.4,4.6-0.7,6.8
			c-0.6,4.3-2.3,8.3-2.4,12.9c0,2.3-1.8,4.9-3.5,6.8c-5,5.8-10,11.8-15.8,16.8c-5.5,4.8-11.9,8.5-17.9,12.7
			C104.5,198.3,103.7,198.3,102.1,198.8z"/>
		<path d="M153.3,152c0.5,0.8,1,1.6,1.4,2.4c1.1,2.7,2,5.6,3.2,8.2c2.4,5.4,5.4,10.2,10.5,13.8c5.9,4.2,11.6,8.4,18.8,10.3
			c5,1.3,9.8,3.4,15.1,5.2c-0.9,0.4-1.6,1.1-2.4,1.1c-1.8,0.1-3.7,0.4-5.4-0.1c-9.6-2.8-19-6-26.6-13.1c-1.1-1-2.4-1.7-3.5-2.7
			c-1.8-1.7-4-3.2-5-5.3c-2.7-5.6-5-11.4-7.3-17.1c-0.3-0.7,0-1.8,0.1-2.6C152.6,152.2,153,152.1,153.3,152z"/>
		<path d="M91.6,134.4c-5-5.4-9.9-10.8-14.8-16.3c-0.1-0.1,0.2-0.6,0.4-1.2c0.5,0.1,1.2,0.1,1.6,0.5c1.1,0.9,2.2,1.9,3.3,3
			c6.4,6.7,12.9,13.4,19.9,20.7c-1.9,5.7-7.3,9.9-10.5,15.5c-0.6,1.1-2.1,1.7-3.4,2.6c-0.7-2.6-0.7-2.7,4-9.2c2-2.7,4.1-5.4,6.6-8.6
			C96.4,139.1,94,136.7,91.6,134.4L91.6,134.4z"/>
		<path d="M182.4,165.4c0.1,3.9-2.4,6.8-6,7c-3.4,0.1-6.2-2.6-6.4-6c-0.1-3.6,3.2-7.2,6.6-7.2C179.4,159.2,182.3,162.4,182.4,165.4z
			"/>
		<path d="M114,166.7c0-2.9,2.6-5.4,5.7-5.6c3.7-0.1,6.4,2.4,6.3,5.9c-0.1,3.2-2.8,6.4-5.6,6.6C118,173.9,114.1,169.7,114,166.7z"/>
		<path d="M93.9,199c-1.9,2.8-3.8,5.4-5.6,8c2,3.3,6,3.7,8.7,7.3c-5.2-0.6-8.8-2.1-11.4-5.5c-1-1.3-1.1-2.8-0.1-4.1
			c1.6-2.2,3.3-4.5,5.1-6.6C91.7,196.9,92.9,197,93.9,199z"/>
		<path d="M153,149.9c-3.1-4.9-3.2-9.4-3.9-13.8c-0.1-0.7,0.7-1.5,1.2-2.4C152.6,136.5,153.8,143.4,153,149.9z"/>
		<path d="M91.6,134.3c-3.1,2.6-6.5,4.8-10.7,6.9C83,137.3,86.3,135.3,91.6,134.3L91.6,134.3z"/>
		<path d="M86.4,132.3c-2.4,1.9-4.9,3.8-7.4,5.7C80.2,134.4,82.5,132.3,86.4,132.3z"/>
		<path d="M194.7,258.2c-2.6-0.9-5.2-1.9-8.5-3.1C190,254,191.2,254.4,194.7,258.2z"/>
		<path d="M182.4,257.9c3-0.5,4.8,1.6,6.7,3.4C186.4,261.1,184.5,259.5,182.4,257.9z"/>
		<path d="M109.1,268.7c3.9-3.2,3.9-3.2,8-3.2C114.8,267.4,112.6,268.3,109.1,268.7z"/>
		<path d="M111.3,262.3c-0.9,0.9-1.9,1.7-3.1,2.8c0-0.8-0.2-1.4,0-1.6c0.8-0.7,1.7-1.3,2.6-1.9C111,261.9,111.1,262.1,111.3,262.3z"
			/>
		<circle class="st0" cx="117.8" cy="164.3" r="1.5"/>
		<path class="st0" d="M175.2,163.1c0,0.8-0.6,1.5-1.5,1.5c-0.8,0-1.5-0.6-1.5-1.5c0-0.8,0.6-1.5,1.5-1.5
			C174.5,161.6,175.2,162.3,175.2,163.1z"/>
		<path class="st0" d="M144.4,190.3c1.7-0.5,3.4-0.8,5.1-0.9c0.2,0,0.4,0,0.6,0c0.5,0,0.8,0,1.4,0.3c0.6,0.2,1.4,0.7,2.8,1.4
			c0.3,0.1,0.7,0,0.8-0.2c0.1-0.3,0-0.7-0.2-0.8c-1.4-0.7-2.2-1.2-2.9-1.5c-0.7-0.3-1.2-0.4-1.9-0.4c-0.2,0-0.4,0-0.7,0
			c-1.8,0.1-3.7,0.4-5.4,0.9c-0.3,0.1-0.5,0.4-0.4,0.8C143.8,190.2,144.1,190.4,144.4,190.3z"/>
		<path class="st1" d="M200.7,142.6c-1.2-1.1-2.6-2.7-2.1-4.3c0.2-0.7,0.8-1.3,1.4-1.8c4.6-4,9.2-8.1,13.8-12.1
			c1-0.9,2.1-1.8,3.4-1.9c2.5-0.3,4.3,2.4,4.8,4.8c0.3,1.5,0.2,3.1-0.2,4.7c-0.9,3.5-3.1,6.5-3.8,10.1c-0.5,2.6,0.7,8.3-0.9,10.5
			C213.3,157.5,204.4,146,200.7,142.6z"/>
		<path class="st1" d="M221.6,279.8c-1.5,0.5-3,0.9-4.5,1.3c-5.3,1.3-10.6,2.1-15.9,2.6c0.5-3.2,1-6.5,1.4-9.7
			c0.6-3.9,1.2-7.8,2.5-11.5c2.7-7.7,8.1-13.8,13.3-19.9c2.7-3.1,7.7-12.7,12.6-9.5c5,3.2-0.8,15-2,19.4
			C226.6,261.5,224.1,270.6,221.6,279.8z"/>
		<path d="M236,224.1c-1.5,7.1-2.6,14.1-4.6,20.8c-3.4,11.4-6.1,22.9-8.7,34.5c-1.8,0.6-3.7,1.1-5.6,1.6c0,0-0.1,0-0.1,0
			c1.4-4.2,2.2-8.5,2.9-12.9c0.1-0.8-0.1-1.6-0.3-2.4c-1.6-5.2-3.4-10.2-5-15.4c-2.6-8.8-5-17.6-7.4-26.4c-0.2-0.8,0.4-1.9,0.9-3.8
			c3.1,5,3.5,9.7,4.7,14.2c1.2,4.6,2.4,9.2,3.8,13.7c1.4,4.4,3.3,8.6,5.2,13.7c2.1-8.9,4.2-17,5.9-25.1c1-4.8,1.3-9.8,2.1-14.6
			c0.3-1.7,0.5-3.8,1.6-5c2-2.2,1.4-4.1,0.6-6.3c-1.8-5.4-3.6-10.9-5.3-16.4c-0.8-2.8-1.5-5.7-1.8-8.6c-0.3-2.8,0.3-5.5,3.3-6.8
			c0.3,2,0.6,4.1,1.1,6.1c2.4,8.5,4.8,17,7.5,25.4c1.4,4.5,3.4,8.8,4.9,13.2c0.3,0.7-0.4,1.6-0.7,2.7
			C239.2,225.5,237.6,224.8,236,224.1z"/>
		<path d="M243.2,93.5c-4-3.4-8.7-5.4-14-3.8c-9.5,2.8-18,7.6-25.5,14.2c-1.8,1.6-3.9,2.9-5.9,4.3c-2.6,1.8-4.7,3.8-2.5,7.6
			c-5.3,4.5-10.4,8.8-15.9,13.4c-0.1-0.1-0.2-0.1-0.4-0.2c0,0.8,0,1.5,0,2.3c1.2,0,2.3-0.4,3.5-1.2c6.6-4.4,12-10.1,17.5-15.7
			c0.4-0.4,1.2-1.2,1.1-1.6c-1.2-3.1,1.6-3.8,3.1-5.3c6.1-5.9,13.7-9.5,20.9-13.7c3-1.8,6.3-1.9,9.5-1.5c1.4,0.2,2.7,1.6,4,2.4
			c2.2,4.8,3.9,9.6,3.6,15c-0.4,6.9-2.1,13.5-4.1,20.1c-1.8,5.8-4,11.4-5.4,17.3c-2.1,9.1-4,18.2-7.5,26.8c-0.7,1.8-1.2,3.7-0.2,5.6
			c4.2,0.3,4.6,0.2,5.6-3.5c1.2-4.3,1.7-8.7,3-12.9c2.4-7.5,5.2-14.8,7.8-22.2c0.8-2.3,1.6-4.7,2-7.1c1.6-8.7,3.2-17.3,4.5-26.1
			C248.7,102.3,247.5,97.2,243.2,93.5z M238.7,94.6c2-0.8,2.8,0.1,3.2,2.8C240.4,96.2,239.5,95.4,238.7,94.6z"/>
		<path d="M208.3,131.3c5-5.4,9.9-10.8,14.8-16.3c0.1-0.1-0.2-0.6-0.4-1.2c-0.5,0.1-1.2,0.1-1.6,0.5c-1.1,0.9-2.2,1.9-3.3,3
			C211.4,124,205,130.7,198,138c1.9,5.7,7.3,9.9,10.5,15.5c0.6,1.1,2.1,1.7,3.4,2.6c0.6-2.3,0.7-2.6-2.4-7c-0.5-0.6,2.4-7.1,1.8-7.9
			c-0.8-1.1-5,3.5-5.9,2.3c-1.3-1.6-2.6-3.3-4.1-5.2C203.6,136,206,133.6,208.3,131.3L208.3,131.3z"/>
		<path d="M207.8,197.9c1.9,2.8,3.7,5.4,5.5,8c-2.1,3.3-6.1,3.6-8.7,7.2c5.2-0.5,8.8-2.1,11.5-5.4c1-1.2,1.1-2.8,0.1-4.1
			c-1.6-2.3-3.2-4.5-5-6.7C210.1,195.8,208.9,196,207.8,197.9z"/>
		<path d="M208.4,131.3c3.1,2.6,6.5,4.8,10.7,6.9C216.9,134.2,213.6,132.2,208.4,131.3L208.4,131.3z"/>
		<path d="M213.6,129.3c2.4,1.9,4.9,3.8,7.4,5.7C219.8,131.4,217.5,129.3,213.6,129.3z"/>
		<g>
			<path class="st0" d="M155.7,219.4c0.5,0.4,1.1,0.9,1.4,1.5c0.4,0.6,0.6,1.4,0.7,2.1c0.3,2.1,0.4,4.2,0.1,6.3
				c-0.1,1.1-0.4,2.2-0.5,3.4c-0.2,1.3-0.3,2.6-0.6,3.9c-0.3,1.3-1,2.5-2,3.3c-0.7,0.5-1.6,0.8-2.4,1.1c-2.1,0.7-4.1,1.4-6.2,2.2
				c-0.6,0.2-1.3,0.4-1.9,0.6c-0.5,0.1-1,0.1-1.5-0.2c-0.3-0.2-0.5-0.5-0.7-0.7c-0.7-0.9-1.6-1.6-2.4-2.5c-1.9-2.1-3.1-4.6-4.3-7.1
				c-0.5-1-1-2.1-1.2-3.2c-0.2-1.1,0-2.2,0.2-3.3c0.6-3,1.8-5.8,3.3-8.4c0.5-0.9,1.1-1.8,1.9-2.6c0.6-0.6,1.2-1,1.9-1.5
				c0.9-0.6,1.9-1.1,3-1.4c0.5-0.2,1-0.3,1.6-0.5c0.4-0.1,0.7-0.2,1,0c0.5,0.3,0.9,0.7,1.4,1c0.5,0.4,0.9,0.7,1.4,1.1
				c0.9,0.7,1.9,1.5,2.8,2.2c0.9,0.7,1.8,1.5,2.7,2.2C155.5,219.2,155.6,219.3,155.7,219.4z"/>
			<path d="M146.6,236.6c-2.4,1.3-5,1.9-7.6,2.4c-0.1,0-0.3-0.2-0.5-0.3C140.5,236.5,143.1,235.7,146.6,236.6z"/>
			<path d="M135.7,235.2c3-1.6,5.3-3.9,8.7-3.8c0.1,0,0.2,0.3,0.3,0.5c-0.1,0.2-0.2,0.4-0.4,0.5c-2.6,1.1-5.1,2.3-7.7,3.4l-0.3-0.1
				C136.3,235.6,136.2,235.6,135.7,235.2z"/>
			<path d="M182,202.5c-1,1-2.3,1.7-3.1,2.8c-2,2.9-4.6,5-7.4,7.1c-8.4,6.3-16.4,5.3-23.1-2.9h-4.3c-1.8,3.4-4.4,6.6-8.5,7.2
				c-8.4,1.2-13.9-0.7-16.9-8.9c-0.5-1.5-1.3-2.9-2.1-4.9c-2.4,2.4-1.3,4.2-0.6,5.6c3.5,7.6,7,15.2,15.4,18.4
				c0.8,6,4.3,13.4,8.9,16.5c3.3,2.2,6.7,2.4,10.2,0.8c4.9-2.2,8.5-5.7,9-11.3c0.2-2.9,1.7-6.3,3.8-7.7c2.7-1.8,5.9-3.6,7.5-6.2
				c1.4-2.4,3.2-3.9,5-5.7c2.1-2.1,4-4.3,6-6.5C182.8,205.7,183.7,204.5,182,202.5z M155.9,233.3c-1.2,4.7-4.8,7.3-9.3,8.6
				c-0.7,0.2-1.7,0-2.3-0.3c-4.4-2-7.8-5.3-8.6-10c-0.7-4.1,1-10,4.2-13c2.1-1.9,4.5-3.6,7.1-5.6c1.9,1.6,4.4,3.3,6.4,5.4
				C157,222.1,157.1,228.7,155.9,233.3z"/>
		</g>
	</g>
</g>
<g id="Powieki">
	<path id="Prawa_Powieka_2_" class="st0" d="M183.5,150.8c0.1,4.5-2.9,8-7,8.2c-4,0.2-7.3-3-7.5-7.1c-0.1-4.2,3.7-8.4,7.7-8.4
		C180,143.5,183.4,147.2,183.5,150.8z"/>
	<path id="Lewa_Powieka_2_" class="st0" d="M112.7,152c0-3.5,3.2-6.6,7-6.8c4.5-0.2,7.8,3,7.7,7.3c-0.1,3.9-3.4,7.9-6.8,8
		C117.6,160.7,112.7,155.6,112.7,152z"/>
</g>
<g id="Brwi">
	<path id="Prawa_Brew" d="M183.8,154.5c-2.9-1.8-5.7-3.4-9.2-0.9c-0.4-1.1-1-1.9-0.8-2.5c0.3-0.8,0.9-1.8,1.7-2.1
		c2.8-1.4,7.7,0.9,8.7,3.9C184.3,153.2,184,153.7,183.8,154.5z"/>
	<path id="Lewa_Brew" d="M114.2,153.4c4-5,10.4-4.4,14.5,1.1c-2.6,1.7-4.5-1-6.7-1.1C119.5,153.3,117.2,153.4,114.2,153.4z"/>
</g>
<g id="Serce">
	<g>
		<path class="st2" d="M162.2,56.6c3-1.1,6.3-2.1,9.3-1c3.5,1.4,5.3,5.5,4.9,9.3c-0.4,3.7-2.6,7.1-5.1,9.9
			c-5.3,5.9-12.2,10.3-17.5,16.2c-2.8-3.8-6.6-6.8-10.9-8.9c-3-1.5-6.5-2.4-8.9-4.8c-3.1-3.1-3.8-7.8-4.3-12.2
			c-0.2-1.8-0.4-3.6,0-5.3s1.5-3.4,3.2-4c1.4-0.5,2.9-0.2,4.3,0.2c2.4,0.7,4.7,1.6,6.9,2.8c1.6,0.8,5.5,4.5,7,4.6
			c1.8,0.1,3-2.4,4.5-3.6C157.5,58.3,159.9,57.4,162.2,56.6z"/>
		<path d="M151.4,61.5c0.6-0.7,1.2-1.3,1.7-1.9c3-3.7,7-5.4,11.7-5.4c2.3,0,4.6,0.1,6.9,0.4c5,0.6,6.9,3.1,5.7,8.1
			c-0.7,2.8-1.8,5.8-3.5,8.1c-4.2,5.7-8.7,11.1-13.3,16.5c-1.6,1.9-3.5,3.5-5.4,5.1c-1.2,1-2.6,1.7-4.5,2.9
			c-0.4-3.9-2.7-5.6-5.2-7.2c-2.9-1.8-5.7-3.9-8.5-5.9c-6.7-4.8-9.7-11.3-9.5-19.5c0.1-4.4,2.3-7.4,5.4-10c1.8-1.5,3.7-1.1,5.5,0
			c3.8,2.4,8.6,3.4,11.1,7.8C149.9,61,150.7,61.1,151.4,61.5z M173.8,58.5c-3.4-1.5-7.1-1.5-10.6-0.7c-4.2,1-8.1,2.8-8.4,8.2
			c-0.1,1.3-1,2.6-2,4.9c-1.7-2.2-2.9-3.7-3.9-5.3c-2.8-4.3-6.8-6.6-11.8-7.2c-2.5-0.3-4.5,0.8-4.4,2.8c0.1,4.1-0.4,8.6,3.2,11.9
			c2.2-1.4,4.2-2.6,6.2-3.9c0.5,1.6,0.9,2.8,1.2,3.9c-1.6,1.3-3.2,2.7-4.9,4.2c4.7,5,10.5,7.5,15.6,10.8c0.5-0.2,0.9-0.2,1.1-0.4
			c7.2-6.2,12.9-13.6,18-21.5C174.6,63.9,175.1,61.3,173.8,58.5z"/>
	</g>
</g>
</svg>
