<svg width="98" height="185" viewBox="0 0 98 185" fill="none" xmlns="http://www.w3.org/2000/svg">
<path d="M83.6439 137.826C82.8244 136.715 81.4833 136.126 80.4944 135.157C77.7852 132.515 78.4151 128.133 78.3745 124.347C78.2796 114.838 72.8205 106.473 69.1292 97.6205C66.7044 97.6882 64.2052 97.2886 61.8684 97.1125C51.9459 96.381 41.6372 95.1551 33.0625 90.082C31.3285 93.3128 29.8114 96.6587 28.538 100.093C25.7814 107.516 24.1152 115.346 23.6479 123.257C23.5801 124.354 23.5327 125.471 23.3363 126.555C23.4582 126.589 23.5801 126.636 23.6817 126.697C24.5419 127.199 24.6435 128.174 24.2913 129.014C23.9052 129.921 23.4447 130.775 22.9367 131.588C24.1084 131.811 24.6367 133.525 23.7698 134.486C20.4374 138.205 17.5927 142.458 15.6488 147.071C14.748 149.204 14.0707 151.426 13.6914 153.695C13.8675 156.756 14.4094 159.811 15.3034 162.757C15.6421 163.299 15.9807 163.841 16.3058 164.369C17.6198 166.489 18.9202 168.623 19.9159 170.905C20.8032 172.944 21.2908 175.254 22.2187 177.143C22.4355 177.584 22.6725 178.017 22.9367 178.437C23.0654 178.633 23.1941 178.83 23.3363 179.026C23.4785 179.223 23.3498 179.06 23.553 179.304C24.1084 179.941 24.7586 180.557 25.2734 180.916C25.9236 181.37 26.6009 181.749 27.2918 182.074C34.7219 182.271 42.4838 180.198 49.9952 179.216C57.7978 178.193 65.8239 178.403 73.3962 180.543C76.031 181.289 79.4311 182.034 81.0498 179.826C81.524 179.182 81.7339 178.396 81.9236 177.624C84.8563 165.934 85.8181 153.749 84.7479 141.74C84.6328 140.365 84.4567 138.923 83.6439 137.826Z" fill="white"/>
<path d="M96.6837 45.3528C96.3518 45.0412 95.871 44.9667 95.4172 44.9328C88.9827 44.4994 82.8328 49.9246 76.6083 48.2313C72.2735 47.0528 69.5643 42.8129 65.7645 40.422C62.1274 38.1259 57.4065 37.4689 54.4941 34.2991C52.1235 31.7185 51.4801 28.034 49.8478 24.9387C49.2992 23.8956 48.5067 22.8322 47.3417 22.6358C45.6146 22.3446 44.2735 24.0785 43.4404 25.6227C38.8212 34.1297 35.9968 43.6053 35.1976 53.257C34.9063 56.7858 34.8792 60.3687 34.0326 63.8095C32.8879 68.4626 30.3751 73.6914 33.0708 77.6537C34.2222 79.3537 36.1187 80.3629 37.6562 81.7243C40.5348 84.271 39.8981 86.2894 38.5638 88.7209C39.7288 89.4253 40.9412 90.062 42.1874 90.6309C47.2334 92.9134 52.8144 93.9836 58.287 94.6203C61.1114 94.9521 63.9494 95.1689 66.7805 95.3721C67.3088 95.4127 67.8439 95.4601 68.3857 95.5211C68.1487 94.9183 68.2909 94.1936 68.7447 93.6991C68.4941 93.1166 68.2841 92.5274 68.1487 91.9043C68.0539 91.4369 68.1013 91.017 68.318 90.597C68.5347 90.1839 68.9208 89.9875 69.3272 89.8181C69.6794 89.6691 70.0451 89.5743 70.4177 89.5066C70.5396 88.3077 71.0137 87.1631 71.6097 86.1065C74.2851 81.3721 79.2566 78.3174 82.1283 73.6982C84.3973 70.0542 85.2033 65.6991 87.0456 61.8249C89.4501 56.779 93.5342 52.7354 96.4399 47.9536C96.9411 47.1476 97.3678 46.003 96.6837 45.3528Z" fill="white"/>
<path d="M15.7763 69.5596C15.5731 70.0472 15.5596 70.2098 15.4648 70.2843C12.8774 72.4585 10.2833 74.6258 7.68248 76.7797C7.16095 77.2132 6.6462 77.7753 5.5625 77.1251C8.5088 74.0163 11.279 70.9345 15.7763 69.5596Z" fill="#EB584A"/>
<path d="M0 56.9009C0.778906 56.7248 1.2598 56.4471 1.63232 56.5623C5.14078 57.6257 8.77793 57.7611 12.4828 58.1946C12.1983 58.9532 11.6023 59.2715 10.9927 59.1835C7.58587 58.7229 4.0774 58.9396 0.785679 57.6798C0.616352 57.6189 0.507982 57.4089 0 56.9009Z" fill="#EB584A"/>
<path d="M16.7065 51.056C14.4308 50.2839 9.78443 43.3618 9.80475 40.1445C10.3534 40.7473 10.7598 41.0657 10.9968 41.4788C11.6335 42.5761 12.1415 43.7546 12.7985 44.8383C14.0583 46.9312 15.3993 48.9834 16.7065 51.056Z" fill="#EB584A"/>
<path d="M19.6631 145.378C19.0467 146.089 18.7894 147.037 18.6336 147.972C18.3152 149.875 18.3559 151.812 18.4033 153.736C18.5117 158.66 18.62 163.577 18.7284 168.501C19.1551 169.287 19.5615 170.086 19.9137 170.905C20.801 172.944 21.2886 175.254 22.2165 177.144C22.4333 177.584 22.6703 178.017 22.9345 178.437C23.0632 178.634 23.1919 178.83 23.3341 179.026C23.4763 179.223 23.3476 179.06 23.5508 179.304C23.9775 179.799 24.4652 180.273 24.9055 180.632L26.9035 180.557C27.5199 180.537 28.2107 180.483 28.6307 180.022C28.9693 179.656 29.037 179.128 29.0912 178.64C29.2335 177.272 29.3351 175.897 29.3892 174.522C29.4096 173.947 29.4231 173.351 29.2064 172.815C28.9964 172.301 28.5833 171.894 28.2446 171.454C25.278 167.614 25.3254 160.218 25.4541 155.578C25.515 153.214 23.6389 140.786 19.6631 145.378Z" fill="#BCBCBB"/>
<path d="M68.2548 148.229C68.5528 153.586 68.8508 158.944 69.1421 164.301C69.2911 166.963 69.4333 169.652 68.9727 172.28C68.5122 174.908 67.3743 177.495 65.3424 179.222C64.4686 179.967 63.4053 180.55 62.2538 180.604C61.1092 180.658 59.89 180.089 59.4024 179.053C59.1314 178.47 59.1043 177.807 59.1518 177.163C59.2669 175.632 59.7817 174.169 60.3574 172.747C63.026 166.137 67.0831 160.054 68.7763 153.132" fill="#BCBCBB"/>
<path d="M72.34 106.765C72.0961 107.3 71.4662 107.537 70.8838 107.645C69.4005 107.909 67.8833 107.638 66.4 107.367C61.1576 106.406 55.9152 105.451 50.6796 104.489C48.8577 104.157 47.0018 103.812 45.3627 102.945C43.7236 102.078 42.3081 100.594 41.9965 98.7724C41.9559 98.5353 41.9491 98.2576 42.1252 98.0951C42.2674 97.9664 42.4842 97.9528 42.6738 97.9528C49.0744 97.9528 55.1363 97.5329 61.4488 96.9572C63.6704 96.754 66.1697 97.1401 68.0526 98.454C69.773 99.6529 73.383 104.482 72.34 106.765Z" fill="#BCBCBB"/>
<path d="M67.5643 91.0845C67.5304 91.159 67.5033 91.2268 67.4627 91.3013C66.9005 92.2901 65.8304 92.7033 64.7263 92.6627C63.7578 92.6288 63.0263 92.5137 62.0781 92.7914C61.2043 93.0487 60.2358 93.6177 59.1656 93.2113C58.1835 92.832 57.9532 91.9108 57.4317 91.1184L57.3708 91.0303C57.1202 91.0845 56.8628 91.1184 56.6122 91.1658C55.9755 91.281 55.3388 91.4029 54.6954 91.4909C53.4356 91.667 52.1623 91.7483 50.8957 91.5993C49.6088 91.4503 48.2542 91.0845 46.9673 90.5765C45.5923 90.3327 44.2648 89.8112 43.0795 89.039C42.1652 88.4362 41.393 87.7251 40.885 86.7904C40.0384 86.2282 39.2053 85.6457 38.3316 85.1377C37.8913 84.8804 37.4443 84.6365 36.9634 84.4537C36.7535 84.3724 36.5435 84.3047 36.3268 84.2505C36.2522 84.2302 36.1777 84.2098 36.0965 84.1963C36.0084 84.3927 35.873 84.5824 35.7781 84.7788C35.5953 85.1648 35.453 85.5374 35.2701 85.937C35.0737 86.3637 34.6673 86.6211 34.2135 86.7159L31.8633 93.1436L50.6654 98.8397H63.7917L69.2237 95.9612L67.5643 91.0845Z" fill="#EB584A"/>
<path d="M30.0451 164.83C29.6793 165.527 29.2662 166.204 28.9546 166.929C28.6634 167.606 28.2299 167.634 27.5932 167.336C26.7804 163.773 25.9541 160.17 25.1075 156.465C23.4887 157.088 22.7911 158.652 21.5177 159.533C22.2425 157.935 23.4616 156.79 24.8366 155.672C24.7146 155.002 24.5927 154.338 24.4369 153.464C23.1636 154.548 22.0731 155.483 20.8675 156.512C21.1181 155.652 21.1249 155.659 22.3847 154.555C23.0349 153.986 23.6513 153.376 24.3421 152.733C23.7732 152.15 23.2449 151.602 22.4998 150.836C22.4998 142.153 22.4998 133.138 22.4998 124.015C21.9241 124.245 21.4026 124.455 20.7998 124.699C20.3799 123.459 20.4544 122.491 21.0098 121.346C22.8182 117.662 24.464 113.903 26.1505 110.157C26.496 109.399 26.7398 108.593 27.1123 107.597C25.5613 108.193 24.823 109.615 23.0959 109.995C23.2449 109.317 23.2313 108.83 23.4481 108.464C25.3174 105.24 27.2749 102.063 29.1036 98.8122C30.106 97.0308 30.9052 95.1344 31.867 93.1431C31.0407 92.0391 31.4742 90.786 32.0905 89.6346C32.7001 88.5035 33.479 87.4672 34.2241 86.4174C34.6575 85.8078 35.1723 85.2456 35.6464 84.6699C36.6488 85.3472 36.6624 85.5437 36.0257 86.5325C35.1791 87.8465 34.3595 89.1808 33.5535 90.5219C33.3639 90.8402 33.2487 91.206 33.0049 91.7749C33.2623 92.0255 33.5603 92.31 33.8245 92.5741C34.5153 92.0729 35.0233 91.7004 35.5313 91.3279C35.2942 91.8359 35.0504 92.3438 34.7456 93.0008C35.3078 93.2176 35.8157 93.4072 36.3711 93.6172C36.7437 92.4116 37.0349 91.3888 36.9943 90.1426C36.3711 90.6506 35.9309 91.0095 35.4906 91.3685C36.1747 90.1968 36.7166 88.937 37.2923 87.6975C37.4751 87.772 37.6648 87.8533 37.8477 87.9278C37.6038 89.8581 37.36 91.7952 37.1026 93.861C37.1365 93.8881 37.2652 94.1184 37.4481 94.1658C39.8796 94.8702 42.3044 95.6085 44.763 96.2113C46.5985 96.6583 48.4679 96.9766 50.3373 97.234C52.2066 97.4914 54.1031 97.6539 55.986 97.742C57.002 97.7894 58.0247 97.593 59.0475 97.5117C60.6595 97.3898 62.2715 97.1866 63.8834 97.1798C65.0958 97.1731 66.1728 97.0579 67.2768 96.4212C68.1234 95.9336 68.2453 95.4256 68.1911 94.6061C68.076 93.0008 67.4935 91.5717 66.4775 90.2374C67.3377 89.7836 67.7306 90.2577 68.0557 90.7115C69.1868 92.2897 69.5322 94.1116 69.2206 95.9607C69.0581 96.9225 69.1732 97.5185 69.8302 98.25C70.6904 99.2118 71.3406 100.356 72.045 101.447C73.271 103.357 74.5917 105.226 75.6483 107.238C76.5762 108.999 77.2671 110.895 77.9376 112.778C78.9739 115.684 79.9221 118.617 80.8636 121.556C81.2429 122.735 81.5274 123.954 81.7847 125.166C81.866 125.532 81.7238 125.945 81.6696 126.426C80.7146 126.169 79.956 125.965 78.9807 125.701C79.3397 128.194 80.3624 130.219 80.9449 132.305C83.3155 132.583 85.3135 134.493 85.9299 136.89C86.8578 140.501 87.1152 144.138 86.6343 147.836C86.465 149.116 86.4108 150.416 86.2956 151.818C87.4741 152.083 87.5351 152.889 87.3116 153.898C86.4717 157.758 85.6251 161.612 84.8597 165.487C84.3247 168.209 83.6406 170.864 82.1911 173.269C81.8931 173.756 82.0557 174.149 82.3334 174.61C82.97 175.673 83.5525 176.77 84.1011 177.881C84.494 178.667 84.3585 179.398 83.8438 180.164C83.0242 181.376 82.3943 182.765 80.8704 183.239C78.554 183.964 76.2647 184.878 73.7383 184.221C72.3295 183.855 70.8868 183.638 69.4713 183.327C67.5816 182.914 66.6266 181.437 65.8476 179.886C65.6241 179.446 65.7935 178.694 66.0102 178.173C66.403 177.231 66.8501 176.276 67.4664 175.47C68.4553 174.176 69.0378 172.788 69.18 171.169C69.3358 169.395 69.5661 167.627 69.7693 165.771C69.1326 165.493 68.4959 165.27 68.6653 164.349C69.3358 160.664 68.6382 157.02 68.2656 153.363C68.137 152.123 68.0354 150.884 68.0015 149.637C67.9338 146.8 67.2632 144.07 66.5995 141.34C66.4369 140.677 66.3489 139.999 66.1795 139.078C66.7078 139.248 67.1074 139.254 67.209 139.424C67.4732 139.877 67.6764 140.399 67.778 140.914C68.7601 145.797 68.8278 150.782 69.39 155.713C69.4035 155.815 69.4645 155.909 69.5932 156.241C70.6498 155.205 71.6454 154.236 72.6343 153.261C72.7291 153.349 72.8307 153.437 72.9255 153.525C72.6817 153.803 72.4514 154.087 72.2008 154.358C71.5032 155.117 70.7649 155.835 70.1282 156.634C69.8438 156.993 69.7693 157.515 69.5999 157.962C69.6948 158.016 69.7896 158.077 69.8912 158.131C70.7717 157.325 71.6522 156.519 72.5395 155.713C72.6343 155.808 72.7223 155.909 72.8172 156.004C72.3498 156.478 71.8689 156.952 71.4084 157.433C70.2773 158.625 69.1936 159.851 69.8573 161.619C70.1621 162.114 70.6024 162.54 70.6904 163.035C70.8326 163.82 70.8123 164.653 70.731 165.453C70.4669 168.081 70.1418 170.709 69.837 173.343C70.2773 173.56 70.6904 173.756 71.1307 173.973C71.0358 174.203 71.0087 174.447 70.9207 174.474C69.7219 174.82 68.6788 175.301 68.5433 176.764C68.5298 176.886 68.3266 176.987 68.2047 177.102C66.3218 178.938 66.9042 181.058 69.5796 181.952C69.9928 180.055 70.1418 178.003 72.1195 176.818C72.9594 177.651 72.2618 178.145 71.8622 178.64C70.7852 179.974 70.6565 180.536 71.1578 182.324C73.7857 182.324 76.4272 183.903 79.1771 182.304C78.7639 180.272 77.5922 178.667 76.4137 177.129C76.9758 176.601 77.3822 176.689 77.6735 177.082C78.1273 177.685 78.5607 178.315 78.9333 178.972C79.4819 179.947 79.9696 180.963 80.4775 181.945C82.5095 181.451 83.627 179.175 82.7533 177.461C82.313 176.608 81.9338 175.775 81.0058 175.226C80.4775 174.908 80.2608 174.075 79.8409 173.377C81.1074 173.045 81.06 171.813 81.3377 170.77C81.568 169.889 81.7644 169.002 81.9879 168.074C81.6967 167.999 81.4529 167.938 81.1278 167.864C82.0692 164.03 82.2114 160.102 82.5366 156.187C82.672 154.582 82.523 152.956 82.4959 151.338C82.4891 151.073 82.3672 150.782 82.4214 150.538C83.1529 147.558 82.4959 144.612 82.1369 141.679C81.4935 136.43 79.7731 131.472 77.8834 126.568C77.6532 125.972 77.4364 125.369 77.2061 124.733C78.4321 123.771 79.4277 124.983 80.6469 124.848C80.5927 124.448 80.5927 124.028 80.464 123.656C78.8114 118.793 77.1384 113.936 75.4722 109.073C75.4045 108.87 75.3029 108.674 75.1877 108.491C73.42 105.639 71.6793 102.774 69.8573 99.95C69.3426 99.1508 68.5975 98.4938 67.9879 97.803C65.0687 98.5683 62.2037 98.7173 59.3861 99.1237C55.4848 99.6927 51.7393 98.9341 47.9531 98.4735C45.867 98.2229 43.8215 97.6404 41.749 97.2272C39.2836 96.7328 37.0146 95.7101 34.7591 94.6535C34.2782 94.43 33.7906 94.2064 33.12 93.9017C31.0813 97.7081 29.0765 101.44 27.0784 105.172C27.6745 105.572 28.4466 105.816 28.5753 106.249C28.7514 106.852 28.5685 107.658 28.3179 108.281C26.9904 111.532 25.5951 114.763 24.2202 117.994C23.9019 118.739 23.5903 119.484 23.2652 120.249C23.7325 120.479 24.3015 120.574 24.4979 120.899C24.7146 121.251 24.6266 121.814 24.6063 122.281C24.3828 128.39 24.0915 134.493 23.9561 140.602C23.8951 143.244 24.1592 145.899 24.2744 148.676C25.2158 148.777 25.5545 149.455 25.6696 150.315C25.7916 151.229 25.9067 152.137 26.0422 153.051C26.1234 153.627 26.2386 154.196 26.3537 154.873C27.2207 154.744 27.9522 154.643 28.6837 154.534L28.7514 154.677C28.1147 154.948 27.4781 155.218 26.645 155.577C27.2952 158.822 27.9454 162.059 28.6159 165.392C29.1781 165.1 29.5439 164.911 29.9164 164.721L30.0451 164.83ZM83.3629 167.437C84.3517 162.845 85.3338 158.266 86.3092 153.735C85.7876 153.505 85.4354 153.349 85.239 153.254C85.3813 152.015 85.5235 150.951 85.6251 149.881C85.7064 149.021 85.7538 148.154 85.808 147.294C86.0315 143.982 85.8418 140.704 85.0426 137.473C84.6701 135.976 83.7015 134.906 82.5975 133.931C82.435 133.788 82.1166 133.816 81.6222 133.714C81.7441 134.54 81.7915 135.218 81.9541 135.861C83.2884 141.036 83.7964 146.319 83.6744 151.622C83.5728 155.936 83.0174 160.244 82.6314 164.552C82.5366 165.595 82.0828 166.672 83.3629 167.437Z" fill="black"/>
<path d="M61.1916 176.839C60.6497 177.299 60.284 177.536 60.0198 177.855C59.356 178.661 58.3875 178.83 57.6763 178.349C56.2336 177.367 54.8587 177.367 53.2738 177.834C52.2307 178.146 51.0861 178.132 49.7924 178.288C49.7179 178.193 49.4944 177.895 49.2709 177.597C48.1872 176.128 47.5438 176.08 46.3788 177.421C45.9656 177.895 45.5796 178.336 44.7871 177.875C44.4146 174.38 43.0193 171.007 42.8026 167.275C43.3106 167.702 43.6899 168.02 44.3672 168.589C44.3875 167.844 44.4688 167.444 44.3943 167.072C43.9608 164.952 43.5273 162.832 43.0261 160.732C42.2472 157.474 41.9898 154.223 42.9719 150.952C43.2835 149.916 43.6086 148.886 43.8727 147.843C44.0285 147.24 44.2453 146.597 43.6966 145.92C43.1277 146.197 42.5994 146.455 41.8205 146.834C42.1321 145.405 42.3623 144.247 42.6468 143.102C43.1277 141.172 43.4189 139.201 44.7329 137.528C45.2274 136.898 45.4306 135.855 44.5704 135.042C42.8026 137.778 40.4523 147.206 41.1906 148.92C41.746 148.473 42.2607 148.06 42.7755 147.64C42.85 148.222 42.7145 148.71 42.5588 149.191C42.1659 150.37 41.5089 151.521 41.4073 152.72C41.1974 155.3 41.1161 157.901 41.9289 160.441C42.3691 161.816 42.6604 163.232 43.0261 164.647C41.5902 164.857 41.4954 164.871 41.6444 165.975C41.9085 168.007 42.2878 170.025 42.6333 172.05C43.0058 174.231 43.3715 176.419 43.7779 178.593C43.9743 179.629 43.5138 180.266 42.6604 180.693C41.2583 181.39 39.8631 182.115 38.4204 182.725C37.5263 183.104 36.5578 183.192 35.4538 182.813C35.596 181.316 35.7247 179.866 35.8602 178.417C35.7044 178.39 35.5486 178.363 35.3928 178.342C34.1872 179.616 34.7426 181.39 34.3904 182.941C34.0721 182.914 33.8011 182.914 33.5438 182.86C30.5975 182.237 30.0624 180.869 31.7692 178.342C31.9182 178.119 32.0876 177.902 32.2162 177.665C32.3585 177.394 32.4736 177.11 32.6159 176.778C31.6405 176.189 31.2545 176.818 30.9294 177.428C30.4552 178.322 30.0421 179.243 29.5544 180.252C28.8839 179.067 28.85 177.997 29.3241 176.9C29.9743 175.41 30.6246 173.913 31.9318 172.849C32.4668 172.409 32.4872 172.016 31.9724 171.488C31.6405 171.664 31.3561 171.8 31.0851 171.962C30.7803 172.145 30.4959 172.362 30.0082 172.694C28.7755 170.58 27.6038 168.582 26.432 166.578C25.8021 167.302 26.1137 168.061 26.4727 168.697C27.2312 170.066 28.0305 171.434 28.9584 172.687C29.568 173.513 29.656 174.197 29.0938 175.024C28.3082 176.175 27.7121 177.374 27.7257 178.688C27.7731 178.911 27.8002 179.155 27.7934 179.392L27.8273 179.541C28.0305 180.205 28.2675 180.855 28.4639 181.519C29.0397 182.115 29.5205 182.758 30.1504 182.968C31.8302 183.537 33.5844 183.923 35.3386 184.16C36.3207 184.296 37.4518 184.201 38.3662 183.835C40.1611 183.124 41.8544 182.142 43.595 181.295C44.4755 180.869 45.0038 180.212 44.97 179.087C45.9859 179.507 46.372 178.884 46.8258 178.315C47.6928 177.225 48.0788 177.279 48.8103 178.491C49.1219 179.013 49.5147 179.487 49.9279 180.07C50.9235 179.142 51.9056 178.81 53.0571 178.993C53.416 179.047 53.8427 179.006 54.1678 178.857C55.1025 178.417 55.8408 178.6 56.7281 179.128C58.3739 180.117 60.1959 179.609 61.2728 178.017C61.4422 177.821 61.2593 177.401 61.1916 176.839Z" fill="black"/>
<path d="M26.0152 169.944C25.1212 170.967 24.2204 171.99 23.2383 173.114C23.3805 171.827 24.2001 170.838 26.0152 169.944Z" fill="black"/>
<path d="M24.8005 168.589C23.8116 169.408 22.8566 170.207 21.8203 171.074C22.3486 169.483 23.5068 168.541 24.8005 168.589Z" fill="black"/>
<path d="M30.1824 180.896L30.1621 180.808C29.9115 180.835 29.6609 180.869 29.417 180.923C29.0784 180.029 28.8278 179.21 28.4553 178.444C28.3333 178.194 27.9066 178.086 27.6154 177.916C27.5341 178.235 27.3512 178.573 27.4054 178.864C27.5138 179.433 27.7644 179.975 27.9541 180.537C27.0261 181.086 26.1727 181.235 25.1906 180.768C25.2787 179.311 25.3735 177.876 25.4615 176.48C24.642 176.142 24.2695 176.325 24.1543 177.042C24.0053 177.97 23.8225 178.885 23.6328 179.935C22.5694 178.763 22.5423 177.693 23.3687 176.656C23.7547 176.169 24.1137 175.661 24.6759 174.909C23.6328 173.995 22.4408 173.344 21.8244 172.342C20.0092 169.396 17.2797 166.937 16.8733 163.191C16.7446 161.986 15.4848 161.295 14.2047 161.37C13.5883 159.378 13.7305 156.29 14.4824 153.872C14.8684 152.639 15.1461 151.379 15.4441 150.248C14.5501 149.219 13.7102 148.826 12.4437 150.011C13.5477 146.719 14.1098 143.658 16.494 141.436C16.7717 141.179 16.9681 140.84 17.2119 140.556C18.0247 139.621 18.4649 138.571 18.1669 137.339C19.5148 136.214 21.1606 135.212 22.8404 134.48C23.0232 133.898 23.2671 133.336 23.538 132.78C22.6643 133.139 21.8379 133.62 21.059 134.155C18.8849 135.645 16.3382 136.526 14.3943 138.402C13.8389 138.937 13.2971 139.337 13.1819 140.109C13.8931 140.779 14.6585 140.515 15.6609 140.129C15.0242 141.043 14.6585 141.721 14.1437 142.263C13.0668 143.407 12.4978 144.742 12.1321 146.259C11.658 148.236 10.9874 150.167 10.3711 152.233C11.4616 152.558 10.642 153.723 10.9739 154.474C12.0102 154.908 12.0373 153.777 12.7078 153.438C12.7214 153.709 12.7552 153.899 12.7349 154.088C12.6943 154.461 12.6198 154.833 12.5723 155.206C12.044 158.952 12.2743 162.575 14.2792 165.989C14.7939 165.867 15.2342 165.765 15.8844 165.616C15.8302 167.54 17.0155 168.813 18.1195 170.134C18.255 170.296 18.3227 170.52 18.4582 170.689C19.2168 171.671 19.9008 172.742 20.7813 173.595C21.6415 174.435 22.1089 175.173 21.5467 176.392C21.2622 177.002 21.2487 177.76 21.2148 178.458C21.1539 179.684 21.6686 180.632 22.6778 181.364C23.5041 181.966 24.3982 182.244 25.3938 182.298C27.1684 182.393 28.9294 182.427 30.6023 182.102C30.433 181.709 30.3043 181.303 30.1824 180.896Z" fill="black"/>
<path d="M58.3172 117.784C58.0124 117.961 57.7009 118.143 57.2471 118.414C56.5765 117.182 55.9399 116.01 55.1406 114.547C56.143 114.784 56.2311 115.421 56.5156 115.861C56.8068 116.308 57.071 116.775 57.3825 117.283C57.6805 117.087 57.9311 116.917 58.2427 116.714C58.7642 117.107 59.3061 117.513 59.8953 117.954C60.322 117.615 60.681 117.337 61.0739 117.026C60.6675 118.719 60.1527 118.861 58.3172 117.784Z" fill="black"/>
<path d="M51.0394 150.349C51.7371 150.065 52.4279 149.529 53.0375 149.611C53.5793 149.685 54.0331 150.437 54.5818 150.938C53.5522 151.609 53.2678 150.363 52.5634 150.18C51.9606 150.593 51.351 151.006 50.6127 151.514C50.4366 150.891 50.3012 150.396 50.1386 149.827C49.8677 149.956 49.6035 150.085 49.1836 150.281C49.4003 149.428 49.7525 148.879 50.6195 148.493C50.7685 149.177 50.904 149.76 51.0394 150.349Z" fill="black"/>
<path d="M69.7266 135.563C69.9094 135.19 70.1126 134.777 70.431 134.134C70.9864 135.123 71.4334 135.922 71.9075 136.782C73.0589 136.213 73.6888 137.175 74.7116 137.48C73.0454 137.859 71.7788 137.466 70.966 136.518C70.6545 136.152 70.1939 135.915 69.7266 135.563Z" fill="black"/>
<path d="M65.4909 96.043C65.2133 95.4741 64.9423 94.9052 64.6443 94.3023C64.5224 94.58 64.4208 94.8103 64.3124 95.0609C63.7232 93.4286 63.6419 92.1214 64.0347 90.7871C64.1228 90.821 64.2786 90.8413 64.2921 90.8955C64.4614 91.8979 64.4343 92.8935 65.2403 93.774C65.7077 94.2888 65.7009 95.237 65.9109 95.9889C65.7754 96.0092 65.6332 96.0295 65.4909 96.043Z" fill="black"/>
<path d="M32.7548 115.121C32.5787 114.566 32.4703 114.22 32.3213 113.746C31.793 113.99 31.346 114.2 30.8516 114.43C31.2647 113.57 31.8811 112.961 32.3349 113.13C32.7209 113.272 32.9919 113.719 33.405 114.126C34.7258 114.004 35.8569 114.701 36.839 115.744C35.5115 115.365 34.36 114.153 32.7548 115.121Z" fill="black"/>
<path d="M33.0987 165.445C31.7712 166.841 30.4369 168.236 29.1094 169.624C29.3397 168.48 30.5114 167.179 32.8278 165.229C32.9159 165.303 33.0039 165.371 33.0987 165.445Z" fill="black"/>
<path d="M59.7227 165.114C60.0071 164.985 60.2306 164.802 60.4474 164.809C61.0908 164.849 62.2829 165.635 63.3327 166.719C61.9781 166.123 60.9554 165.662 59.7227 165.114Z" fill="black"/>
<path d="M29.9375 164.727C30.2491 163.854 31.0144 163.542 31.7053 163.136C31.7798 163.224 31.8611 163.319 31.9356 163.407C31.3057 163.881 30.6825 164.355 30.0526 164.829L29.9375 164.727Z" fill="black"/>
<path d="M36.3601 62.6644C35.2223 61.4858 34.6533 59.7858 34.8633 58.1602C38.1008 57.4423 41.6635 58.4312 44.0679 60.7069C43.3906 61.5197 42.2663 61.7703 41.2232 61.9735C39.1642 62.3731 37.1052 62.7795 35.0394 63.1791" fill="#BCBCBB"/>
<path d="M73.8869 81.5215C74.9029 82.0837 76.2304 81.7654 77.1448 81.0474C78.0592 80.3295 78.6416 79.2796 79.1699 78.2434C80.1724 76.2724 81.0596 74.2405 81.8182 72.1611C82.123 71.3213 82.4007 70.3459 81.9469 69.5806C81.378 68.612 79.9285 68.5511 78.9329 69.0861C77.9372 69.6212 77.2464 70.5559 76.4268 71.328C75.1061 72.5743 69.7553 73.4615 69.3828 74.7078C69.1254 75.5544 73.1825 81.1355 73.8869 81.5215Z" fill="#BCBCBB"/>
<path d="M64.8476 33.9669C66.2293 33.5876 66.4325 31.7521 67.2453 30.5735C68.6812 28.4874 71.7494 28.7313 74.2825 28.7922C79.7755 28.9277 85.2956 27.0041 89.5152 23.4889C90.4228 22.7303 91.2965 21.8769 91.7842 20.7932C92.3125 19.6282 92.3531 18.3007 92.3396 17.0206C92.3057 13.9727 91.9739 10.8232 90.4838 8.16137C88.5196 4.64614 84.7402 2.43133 80.8321 1.44923C76.924 0.467135 72.8331 0.568731 68.8031 0.677101C66.5476 0.738059 64.1703 0.832882 62.2467 2.0114C60.1809 3.27797 58.9956 5.56728 58.0406 7.79562C56.2661 11.9137 54.9318 16.7971 57.0382 20.7593C58.4064 23.3331 61.6846 24.1933 62.9985 26.4149C63.3711 27.0244 63.7029 34.2852 64.8476 33.9669Z" fill="white"/>
<path d="M59.6609 93.1981C61.6251 92.6902 63.1694 91.2204 65.0794 90.5973C65.181 90.6989 65.2758 90.8005 65.3774 90.9021C65.0997 91.4913 64.822 92.0738 64.4495 92.8595C64.9643 92.6969 65.3706 92.6224 65.7161 92.4395C68.7978 90.8411 71.2497 88.6669 72.2047 85.1653C72.2724 84.9079 72.2318 84.5218 72.3943 84.3999C73.837 83.3365 73.0717 81.9887 72.7262 80.8643C72.3334 79.591 71.6561 78.3718 70.9043 77.261C69.9425 75.8251 68.9062 74.4028 67.6803 73.1972C66.6237 72.1541 65.2826 71.382 64.0228 70.5625C61.7674 69.0995 59.1191 69.621 56.6537 69.2349C55.9764 69.1266 55.2178 69.56 54.4456 69.7565C53.9173 69.3772 54.0393 68.9843 54.5608 68.6728C55.4887 68.1174 56.4979 68.0699 57.5409 68.2054C59.3087 68.4289 61.0833 68.5779 62.8511 68.8218C63.3455 68.8895 63.8196 69.174 64.2869 69.3839C64.4766 69.472 64.6121 69.6752 64.8017 69.77C67.9376 71.4023 69.9831 74.159 71.988 76.9156C73.0987 78.4463 73.9725 80.1599 74.2028 82.0835C74.3653 83.4449 74.284 84.7927 73.1055 85.8087C72.8752 86.0051 72.7804 86.3641 72.645 86.6553C71.0262 90.1638 68.4253 92.6224 64.8085 93.977C64.1854 94.2073 63.4877 94.2277 62.6208 94.3834C62.7969 93.679 62.9052 93.2456 63.0407 92.6969C61.659 93.2862 60.3586 93.8416 59.0446 94.397C58.4079 93.1033 57.8796 92.0128 57.3039 90.8479C55.2855 91.8977 53.2942 92.5479 51.181 92.6495C50.1786 92.6969 49.1694 92.4531 48.1602 92.3176C47.7877 92.2635 47.4287 92.128 47.0562 92.0603C42.9111 91.3355 40.3305 88.6466 38.4611 85.1246C38.1293 84.4947 38.0818 83.7158 37.8786 82.903C37.5129 83.1333 37.1201 83.3771 36.6392 83.6887C36.3547 83.323 36.0838 82.964 35.8196 82.6186C34.465 83.2349 34.4311 83.2688 33.4084 82.0903C32.6024 81.1623 31.898 80.1532 31.153 79.1711C31.0852 79.083 31.0785 78.9408 31.004 78.8866C29.1414 77.6065 29.6358 75.8116 29.9609 74.0709C30.1505 73.082 30.4689 72.1609 30.1709 71.0704C30.0083 70.4879 30.4621 69.6007 30.8753 69.025C32.1351 67.2843 33.5642 65.679 35.8399 64.5547C34.7427 64.5276 33.8216 65.3472 33.2594 64.0603C33.6116 63.8639 33.9028 63.6133 34.2415 63.5117C36.0499 62.963 37.8516 62.3602 39.6938 61.9471C40.6218 61.7371 41.6242 61.8522 42.5995 61.8793C43.4055 61.8997 44.2115 62.0148 45.0243 62.0825C45.1055 61.6491 45.1733 61.2969 45.2749 60.7686C49.21 62.5973 51.9599 65.2998 53.2807 69.7971C52.7727 69.4855 52.4069 69.3907 52.2783 69.1604C51.8448 68.4154 51.4858 67.6229 51.1268 66.8372C50.6527 65.7806 49.9957 64.8866 49.0272 64.2093C48.4785 63.8232 48.0044 63.5252 47.2594 63.7013C46.7785 63.8097 46.2096 63.5591 45.6813 63.4778C44.347 63.2814 43.0127 62.9969 41.6716 62.9292C40.4524 62.8682 39.2875 62.963 38.3392 64.1145C37.7296 64.8527 36.6459 65.2659 35.7113 65.6723C33.7809 66.5121 32.643 68.1445 31.2681 69.6887C31.688 69.9258 31.9861 70.0951 32.4128 70.3389C32.1486 70.874 31.8912 71.3346 31.6948 71.8222C31.3426 72.6689 30.9769 73.5155 30.7195 74.3893C30.6111 74.7685 30.5976 75.4729 30.8075 75.6016C31.6542 76.1435 31.5187 76.9698 31.7219 77.7419C31.9386 78.5615 32.3654 79.3268 32.7176 80.1532C33.1578 80.0854 33.51 80.0245 33.9435 79.9567C34.0722 80.336 34.1873 80.6747 34.3025 81.0133C34.3973 81.0404 34.5124 81.1082 34.5869 81.0811C35.989 80.5934 37.3639 80.2209 38.8201 80.9862C39.1046 81.1353 39.6193 80.9321 39.9986 80.8169C41.7529 80.2886 43.4868 79.7129 45.2478 79.2252C45.5119 79.1507 46.0267 79.3742 46.1757 79.6181C46.5143 80.1532 46.9952 80.8643 46.8733 81.3723C46.6498 82.2799 45.7693 81.5145 45.1936 81.6703C44.3131 81.9074 43.4123 82.0496 42.525 82.2664C41.6174 82.4899 40.8114 83.2078 39.7616 82.754C39.7074 82.7269 39.1926 83.3771 39.2671 83.5058C39.958 84.7656 40.6556 86.0322 41.4955 87.2039C43.0736 89.3917 45.5864 89.8929 47.9706 90.5905C48.5937 90.7734 49.2236 90.9088 49.8535 91.0646C50.0634 91.1188 50.2802 91.261 50.4766 91.2272C52.4679 90.8953 54.5134 90.814 56.6808 90.1638C56.3421 89.7574 56.166 89.5203 55.956 89.3172C55.7732 89.1343 55.421 89.0191 55.36 88.8159C54.5811 86.1677 52.4679 84.7318 50.375 83.2688C50.2937 83.2078 50.2463 83.0995 50.1176 82.9369C50.2192 82.8014 50.3073 82.6118 50.4495 82.5034C50.6121 82.3747 50.8288 82.3138 50.8559 82.307C54.8046 85.1585 57.1142 89.1749 59.6609 93.1981Z" fill="black"/>
<path d="M63.8756 39.3518C63.4963 39.9005 63.1576 40.4017 62.7038 41.0587C65.8669 41.8918 68.9757 42.8264 71.9423 44.3301C71.834 44.7906 71.7391 45.1903 71.6375 45.6441C73.9946 47.3373 76.3313 49.0171 78.7154 50.7307C84.3981 48.2178 90.2161 45.7524 96.6777 46.2062C97.4092 46.9309 97.2195 47.6083 96.8199 48.2246C94.5983 51.6857 92.3361 55.1061 89.4508 58.0795C88.4348 59.1225 87.4459 60.2333 86.6941 61.466C86.1523 62.3465 85.8814 63.4573 85.712 64.5071C85.4547 66.1056 85.6443 67.8192 85.1567 69.3296C84.669 70.8332 83.565 72.1336 82.7725 73.5424C82.1088 74.7142 81.6211 76.0011 80.849 77.0848C79.9143 78.392 79.0541 79.8685 77.0967 80.5729C77.2457 80.0785 77.2389 79.7737 77.3879 79.645C79.8669 77.4979 81.1402 74.5313 82.8064 71.8221C84.3439 69.3228 84.8451 66.6068 84.7909 63.7485C84.7706 62.7868 85.0347 62.0417 85.6443 61.2628C87.0396 59.4679 88.5635 57.795 90.04 56.0746C92.2548 53.4941 94.3342 50.7781 95.8785 47.7099C95.9191 47.6286 95.8852 47.4999 95.8852 47.2561C94.5916 46.9648 93.2573 47.0664 91.9636 47.3102C88.3942 47.9943 84.9264 49.0577 81.6075 50.541C80.9235 50.8458 80.2868 51.2793 79.6366 51.6586C78.9525 52.0514 78.3497 52.092 77.7469 51.4351C77.4556 51.1167 76.9748 50.9677 76.5819 50.751C76.4464 50.6765 76.2433 50.6561 76.162 50.541C75.0173 48.9696 73.2225 48.2111 71.7459 47.0596C71.0754 46.5449 70.2694 46.213 69.4227 45.7389C69.6734 45.3731 69.8698 45.0887 70.1542 44.662C70.0459 44.601 69.9104 44.5062 69.7682 44.452C67.6821 43.6934 65.6095 42.9077 63.5098 42.2101C62.8664 42.0001 62.1417 42.034 61.2408 41.9392C61.505 41.2551 61.7217 40.6794 61.9723 40.0427C61.1393 39.4534 60.1639 39.5076 59.2225 39.5009C58.1388 39.4873 57.0551 39.5279 55.9782 39.5821C55.3347 39.616 54.8809 39.4467 54.4678 38.8845C52.7338 36.5071 51.4266 33.9334 50.4107 31.1632C49.6995 29.2193 49.2051 27.14 47.6676 25.3722C47.2612 26.0563 46.8683 26.632 46.5635 27.2551C45.3512 29.7273 44.1117 32.1927 42.9806 34.7055C41.7411 37.4622 40.6235 40.273 39.4247 43.05C39.0251 43.9643 38.5781 44.9126 37.237 44.391C36.4852 46.1588 37.3995 48.1027 36.2549 49.7418C35.8485 49.647 35.4624 49.5589 34.8935 49.4234C35.6182 52.2004 36.1194 54.869 35.5573 57.6663C34.7648 57.5173 34.1078 57.3954 33.1528 57.2193C33.9114 58.9261 34.5549 60.3755 35.266 61.974C34.9003 61.913 34.5887 61.9401 34.3787 61.8047C34.1214 61.6353 33.8775 61.3576 33.7489 61.0732C33.0512 59.5086 32.3875 57.9305 31.7305 56.393C32.6719 55.4447 33.6269 56.1085 34.4668 56.0069C34.9748 54.7606 34.8596 52.5865 34.2026 50.8052C33.9995 50.2498 33.7353 49.7079 33.5728 49.139C33.2476 47.9808 33.5795 47.6489 34.7784 47.8927C35.0899 47.9537 35.3947 48.035 35.9027 48.1501C35.9027 47.3915 35.8688 46.7548 35.9095 46.1182C35.9569 45.4205 36.0246 44.7161 36.1668 44.0321C36.4107 42.9145 36.4784 42.901 37.7179 43.138C37.8669 43.1651 38.0294 43.1448 38.3952 43.1448C39.0928 41.4041 39.7905 39.6025 40.5423 37.8211C41.4431 35.6741 42.3236 33.5202 43.326 31.4273C44.3555 29.2803 45.5069 27.1941 46.6381 25.1013C46.909 24.5933 47.3154 24.1598 47.8098 23.4893C48.7242 24.7152 49.4218 25.8395 49.9433 27.0587C50.9119 29.348 51.7788 31.6847 52.8016 33.9469C53.3502 35.1728 54.1291 36.2904 54.8132 37.4554C55.2941 38.2749 55.9985 38.5662 56.967 38.6C59.0667 38.6678 61.1663 38.871 63.266 39.0335C63.4015 39.0538 63.5302 39.1757 63.8756 39.3518Z" fill="black"/>
<path d="M68.5334 28.2844C67.5107 29.9913 66.5828 31.5694 65.6142 33.1272C65.411 33.4523 65.0453 33.879 64.7337 33.8993C64.07 33.94 64.1309 33.2627 64.0293 32.8156C63.7584 31.6574 63.4875 30.4993 63.2843 29.3275C62.9998 27.6952 62.3699 26.4083 60.6902 25.7242C59.3965 25.1959 58.0758 24.4847 57.5136 23.0895C55.9151 19.1069 55.0888 15.1108 57.8048 11.2162C57.8658 11.1282 57.9403 11.0401 57.9674 10.9386C58.8344 7.70101 61.6249 5.92646 63.6636 3.59651C64.3409 2.82438 65.4246 2.36381 66.3864 1.88969C69.3123 0.453798 72.455 0.0338655 75.679 0C75.9432 0 76.2344 8.07416e-08 76.4783 0.0880503C79.9258 1.34107 83.4071 2.51282 86.8005 3.9013C88.9949 4.80212 90.6611 6.29221 91.4129 8.76439C92.3544 11.8461 93.1062 14.9415 92.7676 18.1587C92.4628 21.0643 91.1894 23.3875 88.5547 25.074C84.9853 27.3701 81.0569 28.3454 76.993 29.0498C74.575 29.4697 72.1706 29.5578 69.8339 28.5621C69.4478 28.4131 69.0008 28.386 68.5334 28.2844ZM64.8827 32.179C66.1222 30.655 66.9147 29.2733 67.5446 27.7832C67.9713 26.7537 67.9916 26.8079 69.0685 27.0788C70.7415 27.4988 72.4551 28.2641 74.1009 28.1558C78.9708 27.8307 83.739 26.9908 87.9858 24.2206C89.7806 23.0488 91.0269 21.6129 91.4671 19.5607C92.2596 15.9235 91.8938 12.3474 90.4579 8.92017C89.9906 7.80261 89.6858 6.53604 88.426 5.90614C87.4642 5.42525 86.577 4.75471 85.5881 4.3551C83.3868 3.45428 81.1246 2.70924 78.9234 1.82874C77.352 1.19884 75.7739 1.12433 74.1416 1.40203C73.3423 1.53749 72.5431 1.67295 71.7439 1.81519C71.1682 1.91679 70.5383 2.22835 70.0303 2.09966C68.2557 1.63232 66.9147 2.62119 65.5059 3.30527C64.9369 3.58297 64.0564 3.92162 64.4357 4.96468C64.4696 5.05273 64.2122 5.28979 64.0564 5.40493C63.5281 5.77745 62.9185 6.06192 62.4512 6.50217C61.5978 7.30817 60.724 8.13449 60.04 9.07595C59.4101 9.94291 58.9969 10.9724 58.516 11.941C57.3781 14.237 56.816 16.6076 57.6423 19.1543C57.8793 19.8723 58.0419 20.6173 58.2045 21.3556C58.5092 22.717 59.3152 23.7058 60.5276 24.3222C61.7807 24.9521 63.0946 25.4668 64.3612 26.0764C64.9505 26.3609 65.4923 26.7537 66.0545 27.0924C66.0138 27.2008 65.9664 27.3023 65.9258 27.4107C65.2823 27.4107 64.6389 27.4107 63.9006 27.4107C64.2257 28.9753 64.5238 30.4247 64.8827 32.179Z" fill="black"/>
<path d="M58.385 75.4733C57.9379 76.1032 57.369 76.7196 56.7255 77.1124C55.2219 78.0064 53.6777 78.8328 52.0724 79.5304C50.6094 80.1738 48.6114 79.2866 47.7173 77.8303C46.7488 76.2658 46.5794 74.5522 46.6133 72.7776C46.6133 72.4119 46.6201 72.0529 46.6133 71.6871C46.5727 69.5468 47.1077 68.9305 49.2413 68.5851C50.833 68.3277 52.3163 68.5038 53.8199 69.2014C55.31 69.899 56.6985 70.6644 57.9041 71.782C59.0487 72.8521 59.2993 74.2067 58.385 75.4733Z" fill="black"/>
<path d="M48.0023 54.1783C49.6143 54.1377 51.0773 56.1493 50.4881 57.7613C50.1156 58.784 49.4857 59.6984 48.3884 60.1725C46.9728 60.7821 45.7537 60.4841 44.8799 59.2717C43.9656 58.0051 44.0604 56.8808 45.1983 55.7158C45.9704 54.9166 46.7967 54.1987 48.0023 54.1783Z" fill="black"/>
<path d="M66.3281 67.1069C66.362 64.6686 68.4617 63.104 70.4191 63.5104C71.5366 63.7407 72.2817 66.2806 71.5502 67.3643C70.7035 68.6241 69.5183 69.2472 68.0553 69.2404C67.6353 69.2404 67.0799 68.8544 66.8361 68.4818C66.5042 67.9806 66.4026 67.3236 66.3281 67.1069Z" fill="black"/>
<path d="M70.4378 60.8559C69.3203 61.7635 67.9995 60.6188 67.1258 62.1563C67.0106 60.5037 67.2612 60.0702 68.8665 58.7969C69.0967 59.2033 69.3202 59.5826 69.5505 59.9822C71.2438 59.7925 71.2438 59.7925 71.6705 61.54C72.6526 62.136 73.567 62.6846 74.4746 63.24C75.0909 63.6193 75.4905 64.0257 75.5176 64.8927C75.538 65.4751 76.2017 66.0305 76.5742 66.5859C75.5718 66.8433 74.7252 66.5521 74.5965 65.5361C74.3933 63.9783 73.2554 63.5448 72.1514 63.0504C71.2438 62.6508 70.3769 62.2918 70.4378 60.8559Z" fill="black"/>
<path d="M45.1894 39.3526C45.4536 39.4677 45.6161 39.5084 45.7448 39.5964C47.2485 40.6056 47.2959 40.5853 47.9054 38.8514C47.9732 38.655 48.0748 38.4585 48.1154 38.3637C49.1517 38.1266 50.0864 37.9099 51.1159 37.6729C50.994 38.4043 50.5944 38.9868 49.978 39.102C48.8943 39.2984 48.5557 40.1112 48.068 40.8698C47.8174 41.2558 47.4516 41.608 47.0588 41.8383C46.8827 41.9399 46.5102 41.7028 46.1919 41.6012C46.1919 41.8993 46.1919 42.177 46.1919 42.5156C44.5934 41.4387 44.3293 40.6124 45.1894 39.3526Z" fill="black"/>
<path d="M55.6607 49.6188C54.5702 49.3682 54.6515 47.9458 53.4459 48.0542C51.5901 46.4422 49.2059 47.553 47.1604 46.9366C46.7608 46.8147 46.368 46.6996 45.5078 46.449C46.2393 46.1442 46.5102 45.941 46.7879 45.9275C48.3119 45.8529 49.8358 45.8055 51.3598 45.792C51.7323 45.792 52.2606 45.8259 52.4502 46.0629C53.1817 46.957 54.0622 46.7809 54.9834 46.4625C55.979 47.404 55.5185 48.5554 55.6607 49.6188Z" fill="black"/>
<path d="M54.9802 65.1969C54.5129 65.5085 54.2081 65.7049 53.9169 65.8945C53.3411 65.583 52.6164 63.5781 52.7925 62.7383C53.6595 62.9076 53.5308 63.8558 54.12 64.3638C54.8177 63.9981 55.4882 64.1335 56.2265 64.6348C56.7006 64.9599 57.4524 64.8583 58.062 65.0208C58.2652 65.075 58.4142 65.3392 58.5903 65.5085C58.4074 65.671 58.2313 65.9623 58.0417 65.9758C56.9715 66.0436 55.8607 66.2197 54.9802 65.1969Z" fill="black"/>
<path d="M60.9469 47.5273C61.2652 48.1776 61.5091 48.6855 61.7326 49.1393C62.6402 49.1393 63.5613 48.9836 64.3808 49.1935C64.9159 49.329 65.3088 49.9995 66.0199 50.6633C65.3291 50.6091 64.9498 50.6972 64.733 50.5481C63.9135 49.9724 63.1346 49.8437 62.1796 50.284C61.3262 50.6768 60.9469 49.9724 60.7098 49.2003C60.2967 49.539 59.9716 49.8099 59.5516 50.1553C59.5381 48.7939 59.6735 48.5365 60.9469 47.5273Z" fill="black"/>
<path d="M85.3964 54.1523C85.9857 55.7169 85.5657 56.191 83.3848 56.7668C83.4864 57.3628 83.5812 57.9656 83.6896 58.609C82.5314 58.3584 82.4298 58.1349 82.125 55.3241C82.3011 55.2631 82.4975 55.1277 82.6736 55.148C83.1951 55.2225 83.7641 55.5612 84.2043 55.4257C84.631 55.2902 84.9087 54.701 85.3964 54.1523Z" fill="black"/>
<path d="M63.4218 87.1362C62.0401 87.2649 62.1282 86.0389 61.3357 85.6664C61.1258 85.8425 60.8277 86.0321 60.6042 86.2895C60.3604 86.574 60.1911 86.9194 59.9811 87.2378C58.6062 86.3911 58.7823 84.9959 58.0508 84.1289C59.2835 84.244 59.0938 85.4971 59.7711 86.2692C60.2927 85.7545 60.7939 85.2532 61.4576 84.6098C62.0943 85.4293 62.6836 86.1879 63.4218 87.1362Z" fill="black"/>
<path d="M79.6907 72.2829C78.309 72.7367 77.3879 74.1388 76.1416 72.6487C75.7081 72.9941 75.3695 73.265 75.0376 73.5292C74.9495 73.4614 74.8615 73.4005 74.7734 73.3328C75.0511 72.8248 75.3288 72.31 75.6472 71.7275C76.3448 72.1068 76.8934 72.4116 77.3675 72.669C78.16 72.757 78.5528 71.5853 79.6907 72.2829Z" fill="black"/>
<path d="M40.9945 77.1108C39.5112 76.9956 40.1411 75.431 39.2538 74.8824C38.8271 75.2482 38.3937 75.6207 37.8789 76.0609C38.0279 75.0382 38.0279 75.0382 39.7347 74.1035C40.1411 75.0721 40.5407 76.0203 40.9945 77.1108Z" fill="black"/>
<path d="M70.9203 9.327C70.3243 8.33135 70.6291 7.76919 71.2251 7.31539C72.9929 5.96754 76.4269 6.71936 77.5173 8.66323C77.9237 9.38795 78.0389 10.072 77.4022 10.729C76.3185 11.8466 75.2484 12.9709 74.0902 14.1765C74.0427 15.4431 75.1468 16.7706 74.5914 18.43C73.8057 17.5021 72.9523 14.9758 72.7017 13.0454C74.2324 13.0251 75.1739 11.955 76.1627 10.9864C77.2667 9.89594 77.0094 8.52777 75.5193 7.9656C74.0902 7.43053 72.7897 7.3628 71.6315 8.57518C71.4486 8.75806 71.2793 8.94093 70.9203 9.327Z" fill="#EB584A"/>
<path d="M72.9531 22.1811C73.4408 21.5444 73.7659 20.9281 74.2739 20.5556C74.4703 20.4133 75.1544 20.7587 75.4795 21.0364C75.9739 21.4632 75.764 22.0456 75.4524 22.4927C75.1273 22.9668 74.7141 23.5425 74.0436 23.2716C73.6643 23.1158 73.4137 22.6552 72.9531 22.1811Z" fill="#EB584A"/>
<path d="M48.5358 56.393C48.5358 56.7249 48.2649 56.9891 47.9398 56.9891C47.6079 56.9891 47.3438 56.7181 47.3438 56.393C47.3438 56.0679 47.6147 55.797 47.9398 55.797C48.2649 55.7902 48.5358 56.0612 48.5358 56.393Z" fill="white"/>
<path d="M69.6803 65.307C69.6803 65.6388 69.4094 65.903 69.0843 65.903C68.7592 65.903 68.4883 65.6321 68.4883 65.307C68.4883 64.9819 68.7524 64.7109 69.0843 64.7109C69.4162 64.7109 69.6803 64.9751 69.6803 65.307Z" fill="white"/>
<path d="M50.3979 70.9613C50.5198 70.9545 50.635 70.9478 50.7569 70.9478C52.3554 70.9478 53.9606 71.7538 54.8953 73.0474C55.0036 73.1964 55.2136 73.2303 55.3694 73.1219C55.5184 73.0135 55.5523 72.8036 55.4439 72.6478C54.3737 71.1645 52.5789 70.2704 50.7569 70.2637C50.6214 70.2637 50.486 70.2704 50.3437 70.2772C50.1541 70.2908 50.0186 70.4533 50.0322 70.643C50.0525 70.8326 50.2151 70.9748 50.3979 70.9613Z" fill="white"/>
</svg>
