<svg width="14" height="14" viewBox="0 0 14 14" fill="none" xmlns="http://www.w3.org/2000/svg">
<path d="M6.99974 1.00039C8.60292 1.00039 10.1091 1.62373 11.2444 2.75898C13.4179 4.93247 13.5858 8.39316 11.678 10.7614L11.5821 10.8803L11.6523 11.0158C11.9145 11.5246 12.2483 11.8967 12.6566 12.0977H12.6574C12.8265 12.1807 12.9184 12.3587 12.8904 12.5442C12.862 12.7335 12.7225 12.8746 12.5351 12.9026H12.5343L12.5335 12.9034C12.3863 12.9268 12.2269 12.9392 12.0633 12.9392C11.6414 12.9392 10.8376 12.8555 10.0386 12.3221L9.92286 12.2446L9.79975 12.3093C8.94031 12.762 7.98035 13 7.00013 13C5.39695 13 3.89079 12.3767 2.75551 11.2414C1.62296 10.1089 1 8.60626 1 7C1 5.39686 1.62335 3.89072 2.75863 2.75547C3.8939 1.62295 5.39695 1 7.00013 1L6.99974 1.00039ZM7.00052 1.40595C5.50721 1.40595 4.09961 1.98877 3.04381 3.04415C1.98801 4.09954 1.40557 5.50711 1.40557 7C1.40557 8.49328 1.9884 9.90007 3.04381 10.9558C4.09922 12.0116 5.5076 12.5941 7.00052 12.5941C7.99866 12.5941 8.97771 12.3287 9.83326 11.8238L9.83404 11.8231C9.86559 11.8044 9.90027 11.795 9.93611 11.795C9.98013 11.795 10.0218 11.8083 10.0592 11.8367L10.06 11.8375C10.6911 12.3287 11.3492 12.4811 11.7964 12.5193L12.4918 12.5785L11.9721 12.1121C11.6566 11.8289 11.3819 11.4311 11.1579 10.9184L11.1571 10.9177C11.1251 10.846 11.1376 10.7642 11.1914 10.7046V10.7038H11.1922C13.1483 8.49796 13.0439 5.12882 10.9557 3.04298C9.90027 1.98799 8.49305 1.40556 7.00052 1.40556V1.40595Z" fill="black" stroke="black" stroke-width="0.2"/>
</svg>
