<svg width="13" height="12" viewBox="0 0 13 12" fill="none" xmlns="http://www.w3.org/2000/svg">
<path d="M0.206272 5.16564L5.1178 7.00813L7.00582 11.7965C7.05402 11.9197 7.17186 12 7.30308 12H7.30576C7.43698 12 7.55482 11.9223 7.60302 11.8018L12.2575 0.444252C12.3057 0.326418 12.2789 0.189838 12.1905 0.0961068C12.0995 0.00505336 11.9656 -0.0244051 11.845 0.0211216L0.203594 4.56576C0.0804041 4.61396 -0.0026151 4.73447 6.29414e-05 4.86838C6.29414e-05 4.9996 0.0830823 5.12011 0.206272 5.16564ZM7.31112 10.819L5.74178 6.83941L11.0764 1.63598L7.31112 10.819ZM10.6051 1.19678L5.28652 6.38683L1.21857 4.86034L10.6051 1.19678Z" fill="black"/>
</svg>
