<svg width="15" height="15" viewBox="0 0 15 15" fill="none" xmlns="http://www.w3.org/2000/svg">
<path d="M11.7584 0.510231C10.2911 2.12762 8.97718 3.89173 7.62325 5.6125C6.33267 3.99511 4.56189 1.49734 2.40093 2.17097C2.13748 2.25101 0.953616 2.56781 1.08034 3.04136C1.12369 3.2081 1.30711 3.27479 1.53387 3.29147C1.46051 3.2848 1.64392 3.31815 2.0441 3.6583C2.41093 3.96844 2.74775 4.31859 3.08456 4.66208C4.05833 5.65585 4.9654 6.70965 5.8658 7.77012C5.02209 8.78724 4.16838 9.79436 3.28465 10.7748C2.55766 11.5785 1.62391 12.7223 0.750192 13.2192C-0.967238 14.1996 0.606795 15.5502 1.98741 14.7599C4.11502 13.546 5.81578 11.5118 7.38981 9.57426C8.60702 11.0282 9.79421 12.5356 10.728 14.153C11.1648 14.9066 13.8927 13.8362 13.6259 13.3759C12.3987 11.2483 10.7713 9.2908 9.15059 7.40996C10.8047 5.34571 12.372 3.19142 14.1461 1.23722C15.3634 -0.0933702 12.5588 -0.373495 11.7584 0.510231ZM1.56722 3.29814C1.91071 3.31481 2.34423 3.22477 2.56433 3.16474C2.00742 3.32482 1.68394 3.30814 1.56722 3.29814Z" fill="#F15748"/>
</svg>
