<svg width="302" height="304" viewBox="0 0 302 304" fill="none" xmlns="http://www.w3.org/2000/svg">
<path d="M75.8827 133.495C68.7384 135.536 61.1859 141.251 54.0416 143.497C49.9591 145.742 46.2849 147.579 42.4066 150.233C33.8335 167.583 13.8295 180.851 5.25635 198.201C15.2583 194.323 35.6706 184.933 45.2643 180.034C44.8561 213.919 45.0602 252.498 44.8561 286.382C44.652 290.465 45.2643 295.364 48.5303 297.609C50.5715 298.834 52.8168 299.038 55.0622 298.834C89.3547 299.242 123.647 299.446 157.94 300.058C170.391 300.262 183.251 300.262 195.09 296.18C204.276 292.914 209.991 285.974 216.523 278.83C221.014 273.931 227.341 269.848 230.199 263.52C237.139 248.824 241.222 226.37 238.976 210.245C237.956 203.917 239.385 192.282 239.385 192.282C241.426 190.036 262.246 191.465 265.104 190.241C269.391 188.199 275.514 179.422 279.801 173.707C284.904 167.175 293.273 161.663 298.172 150.641C290.211 149.62 278.168 148.804 268.982 146.558C256.531 143.905 246.937 139.822 236.119 138.598C205.092 134.719 175.29 134.719 145.693 134.107C123.035 134.311 99.765 132.882 75.8827 133.495ZM45.8767 185.137C46.2849 184.933 46.4891 184.729 46.8973 184.729C46.4891 214.939 45.8767 245.354 45.4684 275.564L45.8767 185.137Z" fill="white"/>
<path d="M224.075 152.886C226.525 152.478 234.69 145.946 230.607 145.538C219.585 144.721 200.806 149.212 189.783 150.233C174.474 151.457 146.305 160.439 131.404 156.969C123.443 155.336 116.503 151.253 108.542 148.804C100.581 146.763 88.13 136.352 80.7816 139.822C79.3528 140.639 82.0064 143.293 81.1899 144.517C80.5775 145.742 80.3734 147.375 79.9651 148.804C79.3528 155.744 75.8827 170.033 77.1074 178.606C99.765 178.402 122.627 178.606 145.488 179.83C147.121 178.606 149.163 177.993 151.816 177.993C166.513 178.402 181.006 178.402 195.702 180.851C195.907 180.851 202.234 178.81 202.439 179.014C207.337 173.503 206.725 170.441 213.053 166.154C218.36 163.092 224.075 152.886 224.075 152.886Z" fill="#BCBCBB"/>
<path d="M96.2949 299.039C96.9073 296.794 53.4292 300.06 44.4479 222.085C41.386 222.289 44.2437 229.842 44.0396 233.312C43.8355 237.802 43.8355 242.497 43.6314 246.988C43.2231 258.623 43.6314 284.75 43.4272 296.385C43.2231 301.284 44.2437 297.814 52.2045 299.243C56.4911 300.264 95.2743 302.509 96.2949 299.039Z" fill="#BCBCBB"/>
<path d="M242.038 249.437C241.018 252.703 236.119 256.99 234.077 259.439C231.22 263.113 227.545 266.992 224.484 270.258C215.502 280.26 207.133 290.058 196.927 297.406C195.906 293.323 197.744 288.833 199.581 284.954C202.03 280.056 210.195 276.79 212.645 271.891C221.83 259.847 223.667 258.214 229.587 245.763C232.036 240.456 238.976 213.92 238.976 213.92C241.426 218.615 243.671 244.538 242.038 249.437Z" fill="#BCBCBB"/>
<path d="M300.621 148.397C302.05 150.642 300.621 151.663 299.601 152.887C296.947 155.949 294.089 159.011 291.232 162.277C286.129 168.197 281.026 174.116 275.922 180.24C274.698 181.669 273.677 183.302 272.657 184.73C270.207 189.833 265.512 191.466 260.613 192.487C257.347 192.895 254.081 192.895 250.815 193.099C237.343 193.508 224.075 191.671 211.42 186.772C207.337 185.139 203.459 183.914 199.581 182.281C198.764 182.077 197.54 182.077 196.723 182.077C190.803 181.669 184.68 181.464 178.76 181.056C170.187 180.444 161.41 179.627 152.633 180.036C143.447 180.444 134.057 180.444 124.872 180.444C110.992 180.852 97.3155 181.26 83.4352 181.669C77.9239 181.873 72.4126 182.281 66.9013 182.281C62.0023 182.281 57.3075 181.873 52.4086 182.077C50.7756 182.077 48.9385 182.077 47.5096 182.077C47.1014 192.487 47.1014 202.489 46.489 212.491C46.0808 218.819 45.0602 225.147 44.6519 231.679C44.4478 239.639 44.2437 247.6 44.4478 255.561C44.4478 265.971 44.856 276.585 45.0602 286.996C45.0602 290.67 46.0808 294.344 42.8148 297.61C51.5921 299.855 59.757 299.651 67.7177 299.447C80.1692 299.243 92.6207 298.835 105.276 298.427C115.891 298.018 126.505 296.998 137.119 296.794C150.183 296.385 163.247 295.773 176.311 297.406C180.801 298.018 185.292 296.998 189.987 296.794C192.028 296.589 193.865 296.794 193.253 299.855C194.886 299.855 196.111 299.855 197.54 300.06C197.744 300.468 197.948 301.284 197.948 301.488C197.131 302.101 196.315 302.713 195.498 302.713C191.62 302.917 187.742 303.53 184.067 303.121C170.391 302.509 156.715 303.325 143.039 301.488C136.915 300.672 130.587 301.08 124.26 301.284C113.441 301.488 102.623 301.897 92.0083 302.509C78.128 303.325 64.4518 303.938 50.5715 302.713C39.3447 301.693 41.1818 301.897 41.1818 292.711C41.1818 282.097 41.1818 271.278 40.9777 260.664C40.9777 254.949 40.3654 249.233 40.3654 243.518C40.3654 238.823 40.7736 233.924 40.9777 229.025C41.386 222.697 41.9983 216.165 42.4066 209.837C42.8148 201.673 43.0189 193.508 43.2231 185.547C43.2231 184.73 43.0189 183.914 43.0189 182.485C41.1818 183.097 39.5489 183.097 38.12 183.71C31.5881 186.772 25.4644 190.242 19.1366 193.304C14.0336 195.753 8.93052 198.202 3.82746 200.856C3.21509 201.264 2.19448 201.06 0.765625 201.06C1.17387 199.835 1.17387 198.815 1.78624 198.202C9.54288 188.813 17.5037 179.831 25.2603 170.442C29.9551 164.726 34.6499 158.399 38.9365 152.479C41.5901 148.805 44.4478 146.355 48.3261 144.518C56.8993 140.028 65.4724 135.945 74.4538 132.067C77.5156 130.842 80.3733 130.026 84.0475 131.25C87.9258 132.679 92.6207 132.067 96.7031 132.067C104.052 132.067 111.196 131.863 118.544 132.271C123.239 132.475 127.934 133.087 132.629 133.087C140.794 133.292 148.754 133.292 156.919 133.496C162.635 133.7 168.35 134.108 174.065 134.312C179.781 134.516 185.496 134.312 191.008 134.516C198.968 134.72 206.929 135.537 214.89 135.945C222.034 136.353 228.974 137.578 236.119 136.966C237.139 136.762 238.364 137.17 239.385 137.782C252.04 142.681 265.512 145.131 278.372 148.193C285.924 149.417 293.273 149.417 300.621 148.397ZM231.424 139.824C230.199 139.619 229.383 139.211 228.566 139.211C222.647 138.599 216.931 137.782 211.012 137.578C192.845 136.966 174.678 136.558 156.307 135.945C146.305 135.537 136.099 135.537 125.893 135.333C112.012 134.72 98.3361 134.516 84.4558 134.108C83.4352 134.108 82.4146 134.516 81.8022 134.516C80.9857 149.417 80.1692 163.706 79.3527 177.994C79.9651 178.403 80.1692 178.607 80.3733 178.607C88.5382 178.403 96.9072 178.607 105.072 178.199C111.196 177.994 117.115 177.586 123.239 177.382C127.934 177.178 132.629 177.382 137.323 177.178C146.509 176.974 155.694 176.77 165.084 177.178C173.657 177.382 182.434 178.403 191.008 179.219C197.54 179.831 202.438 177.994 206.521 172.687C213.053 164.318 220.197 156.153 226.933 147.988C228.158 146.355 229.791 144.722 229.587 142.273C229.995 141.456 230.607 140.844 231.424 139.824ZM295.722 152.683C295.518 152.275 295.314 152.071 295.314 151.663C293.885 151.663 292.456 151.458 291.232 151.254C286.741 150.642 282.046 150.642 277.555 149.826C269.391 148.193 261.634 145.947 253.469 143.906C249.387 142.885 245.508 141.865 241.63 140.436C238.976 139.824 236.935 139.619 235.506 142.273C234.69 143.702 233.465 144.722 232.24 145.743C223.667 155.949 215.502 166.155 206.929 176.361C205.909 177.586 205.092 178.811 203.663 180.036C204.888 180.648 205.5 181.26 206.521 181.464C210.399 182.689 214.482 183.506 218.156 185.139C229.995 189.425 242.242 190.65 254.49 189.833C261.43 189.425 267.349 187.384 272.044 180.852C276.739 173.708 283.067 167.584 288.578 160.848C291.028 158.195 293.273 155.541 295.722 152.683ZM53.6333 145.539C53.4292 145.335 53.0209 145.131 52.8168 144.927C47.5096 147.172 43.0189 150.642 39.3447 155.745C34.6499 162.277 29.5469 168.605 24.4438 175.137C19.749 181.056 14.8501 186.976 10.1553 193.304C9.74701 193.916 9.33876 194.937 8.7264 196.365C10.5635 195.549 11.5841 194.937 12.4006 194.732C17.5037 191.875 22.8108 189.017 28.118 186.363C31.7922 184.526 35.6705 183.097 39.3447 181.464C42.8148 180.036 46.6931 178.403 48.7344 174.728C49.755 172.687 51.5921 170.646 53.0209 169.013C60.1652 159.623 67.3095 150.234 74.4538 140.64C75.2703 139.415 76.0868 137.782 77.1074 136.558C76.9033 136.353 76.6991 136.149 76.2909 135.741C72.0043 137.374 67.5136 139.211 63.4312 141.048C62.2064 141.661 60.9817 143.089 60.1652 144.314C58.9405 146.56 57.9199 149.009 56.6951 151.663C56.491 149.417 56.6951 147.784 56.6951 146.151C55.2663 147.376 54.858 148.805 53.8374 150.03C53.2251 151.254 53.4292 153.091 50.9797 153.704C52.0003 149.826 52.8168 147.784 53.6333 145.539ZM79.3527 138.599C78.9445 138.395 78.7403 138.395 78.3321 138.395C77.5156 139.415 76.6991 140.64 75.6785 141.661C67.5136 152.479 59.1446 163.093 51.1838 173.912C50.1632 175.341 49.5509 176.77 48.5302 178.403C54.2457 180.036 73.0249 180.24 76.6991 178.811C75.4744 164.931 78.128 151.867 79.3527 138.599Z" fill="black"/>
<path d="M198.356 295.568C201.214 293.119 203.663 291.486 205.5 289.444C214.686 279.238 223.463 269.032 232.649 258.622C234.486 256.377 236.527 254.131 238.568 252.09C240.201 250.253 241.018 248.416 240.61 245.762C238.568 229.841 237.139 213.715 238.364 197.589C238.364 196.16 237.956 194.732 240.201 194.119C241.834 195.344 241.426 196.977 241.018 198.406C239.589 212.49 241.222 226.166 242.651 240.047C242.855 242.088 243.263 243.925 243.671 245.762C244.488 248.212 243.467 250.049 241.834 252.09C235.302 259.234 228.77 266.379 222.239 273.523C216.931 279.442 211.624 285.362 206.317 291.281C203.868 294.343 200.806 296.997 196.315 296.589C196.111 295.976 195.907 295.364 195.907 294.547C196.111 280.259 196.723 266.174 196.519 251.886C196.519 239.638 195.907 227.391 195.907 215.144C195.907 205.346 196.111 195.548 196.519 185.75C196.519 185.342 196.723 184.73 197.131 183.913C198.764 184.321 198.969 185.342 198.969 186.567C198.764 194.936 198.152 203.305 198.152 211.674C197.948 215.552 198.969 219.226 198.969 223.105C198.969 233.923 198.764 244.742 198.969 255.56C198.764 267.195 198.56 278.83 198.356 290.669C198.356 292.302 198.152 293.323 198.356 295.568Z" fill="black"/>
<path d="M51.1837 282.913C52.2043 280.26 53.429 277.606 54.4496 274.748C56.8991 277.198 55.8785 279.851 56.0826 282.097C56.2867 284.546 55.8785 286.996 55.8785 289.649C58.7362 288.833 58.328 285.771 60.5733 284.75C62.2063 286.588 63.8393 288.833 65.6764 290.874C62.8186 291.691 62.0022 288.833 60.1651 287.608C58.7362 290.058 57.3073 292.507 55.8785 295.161C53.8373 292.507 55.2661 289.853 55.062 287.404C54.8579 284.955 55.2661 282.505 54.8579 280.056C52.0002 284.546 51.5919 289.649 49.7548 294.14C48.7342 290.874 49.3466 287.608 49.7548 284.138C50.1631 279.647 50.3672 275.157 50.7754 270.462C50.7754 269.033 50.5713 267.4 49.9589 265.971C49.3466 264.338 49.5507 263.113 51.3878 261.276C52.0002 269.033 51.3878 275.973 51.1837 282.913Z" fill="black"/>
<path d="M200.398 280.464C200.193 277.606 202.439 276.381 203.868 275.156C209.175 271.074 214.278 267.196 219.789 263.317C216.931 266.787 213.87 269.441 210.604 272.299C207.134 274.748 203.868 277.402 200.398 280.464Z" fill="black"/>
<path d="M213.665 262.705C209.583 265.971 205.704 269.237 201.214 272.707C202.234 269.033 207.337 264.95 213.665 262.705Z" fill="black"/>
<path d="M200.193 284.954C203.255 280.668 206.725 277.606 211.216 275.36C207.95 278.626 205.092 282.096 201.826 285.566C201.622 285.566 201.01 285.158 200.193 284.954Z" fill="black"/>
<path d="M220.402 266.992C218.769 269.646 216.319 271.279 213.666 272.708C215.707 270.666 217.34 268.013 220.402 266.992Z" fill="black"/>
<path d="M220.605 266.991C221.218 265.562 222.034 264.133 223.259 262.092C223.055 265.358 223.055 265.358 220.605 266.991C220.401 266.991 220.605 266.991 220.605 266.991Z" fill="black"/>
<path d="M207.746 151.663C206.317 150.642 205.5 149.825 204.48 149.213C203.459 148.805 202.439 148.805 201.214 147.58C203.051 146.764 204.684 146.151 207.133 145.131C202.847 143.702 199.377 145.539 195.907 145.131C198.356 142.885 209.583 142.069 216.115 143.294C213.87 146.559 210.399 145.131 207.542 146.968C207.95 147.784 208.562 148.601 208.562 149.417C208.971 150.234 208.154 151.05 207.746 151.663Z" fill="black"/>
<path d="M225.709 163.501C225.505 164.113 225.505 164.93 225.3 165.338C221.83 170.237 218.156 175.34 214.686 180.035C213.87 181.056 213.053 182.28 211.624 181.26C216.115 174.932 220.606 168.604 224.892 162.48C225.096 163.093 225.3 163.297 225.709 163.501Z" fill="black"/>
<path d="M227.341 169.217C224.075 173.707 221.218 177.994 218.156 182.485C218.156 177.79 223.259 170.237 227.341 169.217Z" fill="black"/>
<path d="M71.1881 177.791C70.5757 169.014 73.0252 160.236 73.4334 151.459C74.8623 154.113 73.6375 167.993 71.1881 177.791Z" fill="black"/>
<path d="M68.5344 176.565C66.4932 171.666 66.6973 164.522 69.9633 160.439C69.7592 163.093 69.1468 165.747 68.9427 168.604C68.7386 171.258 68.7386 173.912 68.5344 176.565Z" fill="black"/>
<path d="M72.8204 231.063C75.0658 231.063 76.0864 230.451 76.0864 228.614C76.0864 226.777 75.0658 225.96 72.8204 225.756L63.839 225.552L63.6349 230.859C63.839 230.859 72.8204 231.063 72.8204 231.063ZM60.369 222.286L73.841 222.694C77.7194 222.898 80.1688 225.552 79.9647 228.614C79.7606 232.492 77.107 234.329 73.4328 234.125L63.839 233.717L63.6349 241.065L59.7566 240.861L60.369 222.286Z" fill="#F15748"/>
<path d="M81.5978 241.475V238.413C83.8432 239.23 85.8844 239.842 88.1298 239.842C91.3957 240.046 92.8246 239.638 92.8246 238.617C92.8246 235.76 80.7814 238.617 80.9855 232.698C80.9855 229.636 84.4556 228.411 89.1504 228.411C90.7833 228.411 93.6411 229.023 95.8864 229.432V232.494C94.0493 232.085 91.5998 231.677 89.5586 231.677C86.2927 231.473 85.0679 231.881 85.0679 232.902C85.0679 235.555 97.1111 232.902 96.907 238.821C96.907 241.883 93.4369 243.108 88.7421 243.108C86.4968 242.496 83.8432 242.087 81.5978 241.475Z" fill="#F15748"/>
<path d="M99.1524 228.82L103.031 229.024L102.622 242.496L98.7441 242.292L99.1524 228.82ZM98.7441 224.329C98.7441 222.9 99.7648 222.084 101.194 222.084C102.622 222.084 103.643 222.696 103.643 224.329C103.643 225.758 102.622 226.575 101.194 226.575C99.7648 226.575 98.7441 225.758 98.7441 224.329Z" fill="#F15748"/>
<path d="M120.585 240.048C122.626 240.048 123.851 239.435 123.851 237.598C123.851 235.965 122.626 235.149 120.585 234.944L110.787 234.536L110.583 239.639L120.585 240.048ZM107.521 223.922L121.606 224.33C125.484 224.534 127.729 226.575 127.525 229.637C127.525 232.495 125.28 233.72 122.014 233.72C125.484 233.924 127.934 235.557 127.729 238.619C127.525 241.681 125.076 243.722 121.402 243.518L106.705 243.109L107.521 223.922ZM120.177 232.291C122.218 232.291 123.443 231.883 123.443 230.25C123.443 228.617 122.218 227.8 120.177 227.596L110.787 227.188L110.583 231.883C110.787 231.883 120.177 232.291 120.177 232.291Z" fill="#F15748"/>
<path d="M145.896 244.129L141.61 243.925L142.426 238.414H142.222C141.406 242.088 139.364 244.538 135.282 244.129C131.404 243.925 129.567 241.68 129.771 235.76L129.975 229.841L133.853 230.045L133.649 235.556C133.445 239.639 134.465 241.272 137.119 241.476C139.977 241.476 142.018 238.822 142.222 234.332L142.426 230.657L146.305 230.861L145.896 244.129Z" fill="#F15748"/>
<path d="M150.795 233.514H148.958V230.656H150.795V230.044C150.999 226.574 152.02 224.941 155.286 225.145C156.306 225.145 157.123 225.349 158.348 225.553V227.594C157.939 227.594 157.735 227.594 157.327 227.594C154.673 227.594 154.673 228.207 154.673 230.656L158.348 230.86V233.31L154.673 233.106L154.265 244.128L150.387 243.924L150.795 233.514Z" fill="#F15748"/>
<path d="M172.024 237.189C171.82 234.74 170.595 233.923 167.737 233.719C164.879 233.515 163.451 234.536 163.042 236.985L172.024 237.189ZM159.164 237.801C159.368 233.515 162.634 230.861 167.533 230.861C172.432 231.065 175.698 233.515 175.494 237.189V239.434L162.838 239.026C163.247 241.272 164.879 242.088 168.35 242.292C171.616 242.496 173.044 241.68 174.473 241.067V244.129C171.82 245.15 170.391 245.15 166.921 245.15C162.226 245.15 159.164 242.088 159.164 237.801Z" fill="#F15748"/>
<path d="M178.76 240.251L178.964 234.332H177.127V231.474H179.576L179.781 228.208L183.047 227.8L182.842 231.678L186.721 231.882V234.74L182.842 234.536L182.638 239.639C182.638 242.292 182.434 243.109 184.884 243.109C185.292 243.109 185.7 243.109 186.312 243.109V245.15C185.088 245.558 184.067 245.763 182.638 245.558C178.964 245.354 178.556 244.13 178.76 240.251Z" fill="#F15748"/>
<path d="M174.474 177.587C171.412 177.382 168.35 177.178 165.288 176.974C156.103 176.77 146.917 176.974 137.732 177.178C133.037 177.178 128.342 177.178 123.647 177.382C117.524 177.587 111.604 177.995 105.48 178.199C102.827 178.403 99.9691 178.199 97.1114 178.403C96.0908 178.403 95.2743 178.403 94.2537 178.607C94.2537 178.811 94.0496 179.015 94.0496 179.015C94.0496 178.811 94.0496 178.607 94.0496 178.607C94.4578 175.954 95.2743 173.3 96.0908 170.646C97.3155 166.36 98.7444 161.869 100.581 157.787C100.581 157.583 100.786 157.378 100.786 157.174C102.419 153.5 104.052 149.826 106.093 146.152C106.705 144.927 107.522 143.498 108.338 142.273H108.542C108.746 142.478 109.155 142.682 109.359 142.682C110.379 143.294 111.4 143.702 112.421 144.315C113.033 144.723 113.849 144.927 114.462 145.335C114.666 145.539 114.87 145.539 115.278 145.744C126.913 151.255 139.977 153.092 152.837 154.521C153.245 154.521 153.857 154.521 154.266 154.725C155.082 154.725 155.899 154.929 156.715 154.929C158.144 155.133 159.777 155.337 161.206 155.541C161.818 155.541 162.226 155.541 162.839 155.746C163.655 155.746 164.472 155.746 165.288 155.746C165.492 155.746 165.492 155.746 165.696 155.746C165.901 155.95 165.901 156.358 166.105 156.562C166.921 158.603 167.534 160.44 168.554 162.482C169.371 164.115 169.779 165.543 170.595 167.176C171.82 170.851 173.453 174.117 174.474 177.587Z" fill="white"/>
<path d="M113.237 88.5892C112.012 88.3851 110.584 88.3851 109.359 87.9768C109.359 88.5892 109.563 89.2016 109.563 90.018C109.563 90.4263 109.563 90.8345 109.767 91.0387C109.971 91.4469 110.175 91.651 110.379 92.0593C111.604 93.8964 112.421 95.5294 113.645 97.5706C114.054 98.1829 114.462 98.9994 114.258 99.8159C113.645 100.02 113.033 100.02 112.625 100.224C113.237 100.224 113.85 100.428 114.666 100.428H114.87C115.074 100.632 115.074 101.041 115.074 101.245C115.074 101.449 114.666 101.653 114.258 101.857C113.033 102.47 112.012 103.286 110.992 103.898C110.584 104.307 110.175 104.715 109.767 105.123C109.359 105.531 108.951 105.735 108.542 106.144C108.134 106.756 107.522 107.368 107.522 108.185C106.909 108.593 106.909 109.206 106.909 109.614C106.705 110.839 106.093 111.859 105.685 113.084C105.48 114.309 105.48 115.533 105.276 116.758C105.276 117.983 105.276 119.208 105.48 120.432C105.685 121.657 106.297 122.882 106.909 123.698C107.318 124.106 107.726 124.311 108.134 124.719C108.542 125.331 108.746 125.944 109.155 126.556C109.563 127.168 110.379 127.781 111.196 128.189C111.808 128.597 112.625 128.801 113.441 128.801C114.258 128.801 115.074 128.393 115.891 128.189C116.503 127.985 117.115 129.005 117.524 129.414C118.34 130.434 119.157 131.455 119.157 132.884C119.361 133.904 119.157 135.129 118.748 136.15C118.748 136.354 117.115 139.416 117.115 139.416C118.953 140.64 120.994 141.865 122.627 142.682C130.588 146.56 139.365 148.601 148.142 149.826C152.633 150.642 157.123 150.846 161.818 151.459C162.635 151.459 163.451 151.663 164.472 151.663C164.064 150.642 164.268 149.622 165.084 148.805C164.676 147.785 164.268 146.968 164.064 145.948C163.859 145.131 164.064 144.519 164.268 143.906C164.676 143.294 165.288 142.886 165.901 142.682C166.513 142.477 167.125 142.273 167.738 142.273C167.942 140.436 168.963 138.599 169.779 136.762C174.27 129.414 182.435 124.719 187.129 117.575C188.762 114.921 190.191 112.063 191.212 109.41C191.62 108.185 192.641 106.552 192.641 105.123C192.641 103.49 192.641 101.857 192.845 100.224C193.049 99.4077 193.049 98.5912 193.661 97.9788C194.07 97.5706 194.478 97.1623 194.886 96.7541C196.927 94.917 199.173 92.8758 200.806 90.6304C202.643 88.181 204.684 85.9356 206.521 83.4861C207.542 82.0573 208.562 80.6284 209.787 79.4037C210.195 78.7913 211.012 77.9748 211.216 77.1583C211.216 76.7501 210.808 75.5254 210.399 75.1171C209.787 74.3006 208.562 74.5047 207.542 74.7089C203.255 75.7295 198.969 76.7501 194.478 77.7707C191.008 78.5872 187.334 79.4037 183.863 80.8325C184.884 81.649 184.68 81.649 184.272 81.649C183.863 81.649 183.455 81.4449 183.047 81.2408C180.393 79.6078 177.74 77.7707 175.494 75.5254C174.882 74.913 174.066 74.0965 173.249 73.8924C172.841 73.8924 172.433 73.8924 172.228 73.6883C171.82 73.4841 171.616 73.28 171.616 72.8718C171.616 72.2594 172.228 72.0553 171.82 71.4429C171.412 70.8306 170.596 70.2182 170.187 69.8099C169.779 69.4017 168.963 69.4017 168.35 69.1976C166.513 68.5852 164.676 67.9728 162.839 67.1564C161.002 66.544 159.165 65.5234 157.532 64.911C158.348 64.0945 158.756 63.0739 158.756 62.0533C155.082 61.8492 151.612 61.4409 148.142 60.8286C147.734 60.8286 147.121 60.6244 146.713 60.4203C146.305 60.2162 145.897 59.6038 145.488 59.1956C143.243 55.5214 140.794 51.8472 139.569 47.5606C138.957 45.7235 138.957 43.8864 138.14 42.0493C137.324 40.2122 136.303 38.7833 134.874 37.3545C130.383 44.7029 126.301 52.4595 122.627 60.4203C122.014 62.0533 121.198 63.6863 120.381 65.1151C119.973 65.9316 119.361 66.544 118.748 67.1564C118.136 67.5646 117.115 67.7687 116.299 67.3605L115.074 75.7295L112.421 75.5254L114.054 83.6903L113.237 88.5892Z" fill="white"/>
<path d="M81.8022 107.981C81.394 108.798 81.394 109.002 81.394 109.206C77.1074 112.472 72.8209 115.942 68.5343 119.208C67.7178 119.821 66.9013 120.841 65.0642 119.616C69.9631 114.717 74.658 110.023 81.8022 107.981Z" fill="#F15748"/>
<path d="M57.512 86.9572C58.7367 86.753 59.5532 86.1407 60.1656 86.3448C65.6769 88.1819 71.5964 88.5901 77.5159 89.6108C77.1077 90.8355 76.0871 91.2437 75.0665 91.2437C69.5552 90.2231 64.0439 90.4272 58.7367 88.1819C58.3285 88.1819 58.3285 87.7736 57.512 86.9572Z" fill="#F15748"/>
<path d="M84.2518 78.5868C80.5776 77.1579 73.6374 65.9312 73.8416 60.8281C74.6581 61.8487 75.2704 62.257 75.6787 62.8693C76.6993 64.7064 77.3116 66.5436 78.3323 68.1765C80.3735 71.8507 82.4147 75.1167 84.2518 78.5868Z" fill="#F15748"/>
<path d="M170.187 170.646C169.779 171.462 168.758 171.87 167.942 172.074C165.492 172.483 163.043 171.87 160.798 171.462C152.429 169.625 144.264 167.788 135.895 165.951C133.037 165.338 129.975 164.726 127.322 163.297C124.668 161.868 122.627 159.419 122.219 156.357C122.219 155.949 122.219 155.54 122.423 155.336C122.627 155.132 123.035 155.132 123.239 155.132C133.445 155.54 143.243 155.132 153.245 154.52C156.715 154.316 160.798 154.928 163.859 157.378C166.513 159.011 172.024 166.971 170.187 170.646Z" fill="#BCBCBB"/>
<path d="M163.656 145.335C163.656 145.539 163.656 145.539 163.452 145.744C162.635 147.376 160.798 147.989 159.165 147.785C157.532 147.785 156.511 147.581 154.878 147.785C153.45 148.193 152.021 149.009 150.184 148.193C148.551 147.581 148.347 146.152 147.53 144.927V144.723C147.122 144.723 146.714 144.927 146.305 144.927C145.285 145.131 144.264 145.335 143.243 145.335C141.202 145.539 139.161 145.539 137.12 145.335C135.079 145.131 132.833 144.315 130.792 143.498C128.547 143.09 126.505 142.069 124.668 140.845C123.239 139.824 122.015 138.803 121.402 136.966C119.974 136.15 118.749 135.129 117.32 134.109C116.708 133.7 115.891 133.292 115.075 133.088C114.666 132.884 114.462 132.884 114.054 132.68C113.85 132.68 113.85 132.68 113.646 132.68C113.442 133.088 113.237 133.292 113.237 133.7C113.033 134.313 112.625 134.925 112.421 135.537C112.013 136.15 111.4 136.558 110.788 136.762L106.706 146.764L136.099 156.766L157.124 157.378L166.105 152.888L163.656 145.335Z" fill="#F15748"/>
<path d="M175.494 171.666C174.065 168.4 171.82 165.338 170.187 162.276C169.167 160.439 168.146 158.602 166.921 156.969C165.901 155.745 165.696 154.928 166.105 153.295C166.513 151.05 166.513 148.804 165.492 146.559C165.492 146.355 165.492 146.355 165.288 146.151C165.084 145.947 165.084 145.538 164.88 145.334L164.676 145.13L164.472 144.926C163.859 144.11 163.247 143.497 162.022 144.11C162.43 144.722 163.043 145.334 163.247 145.947C163.451 146.355 163.655 146.763 163.655 147.171V147.375C164.063 148.396 164.268 149.621 164.268 150.846V152.274C164.063 152.887 163.655 153.295 162.839 153.703C161.818 154.52 160.593 154.724 159.369 154.724C159.165 154.724 159.165 154.724 158.96 154.724H155.899C153.857 154.724 151.612 154.928 149.571 154.928C147.734 154.928 146.101 155.132 144.468 155.132C143.243 155.132 142.018 154.928 140.794 154.724C140.589 154.724 140.589 154.724 140.385 154.724C138.752 154.52 137.119 154.112 135.486 153.907C132.425 153.499 129.567 152.887 126.505 152.07C122.627 150.846 118.748 149.825 115.074 148.396C114.87 148.396 114.666 147.988 114.462 147.988C114.666 147.171 114.666 146.151 114.87 145.334C115.074 142.885 115.686 140.639 115.891 138.394C115.482 138.19 115.278 138.19 115.074 137.986C114.054 140.027 113.033 142.068 112.012 143.905C111.196 144.518 110.379 145.13 109.563 145.743C109.155 145.334 108.746 144.926 108.338 144.518C108.746 143.701 108.95 143.089 109.155 142.477C109.155 142.477 109.155 142.272 109.359 142.272C110.583 140.231 112.012 138.19 113.441 136.353C114.462 134.924 114.462 134.516 113.033 133.495V132.883C112.216 133.903 111.4 134.72 110.788 135.741C109.563 137.374 108.134 139.006 107.113 140.639C106.297 142.068 105.48 143.905 106.093 145.334C106.093 145.538 106.297 145.538 106.297 145.743C106.297 145.947 106.501 146.151 106.705 146.151C106.705 146.355 106.501 146.355 106.501 146.559C104.868 149.621 103.643 152.479 102.01 154.928C101.806 155.132 101.806 155.336 101.602 155.54C101.398 155.949 101.194 156.153 100.99 156.561C98.132 161.052 95.2743 165.542 92.6207 170.237C92.2124 170.85 92.2124 171.666 92.0083 172.687C93.8454 172.278 95.0701 171.258 96.2949 170.441C96.499 170.237 96.499 170.237 96.7031 170.033C97.3155 169.625 97.7237 169.217 98.5402 169.012C97.9278 170.645 97.5196 171.87 96.7031 173.095C96.0907 174.524 95.4784 175.953 94.6619 177.381C94.4578 177.79 94.4578 177.994 94.2536 178.402C95.2743 178.402 96.2949 178.402 97.1114 178.198C98.3361 175.34 99.5608 172.483 100.786 170.033C101.194 169.012 101.398 167.788 101.398 166.767C101.194 166.155 99.9691 165.747 98.9485 165.134C102.419 159.623 105.48 153.499 108.95 147.988C108.95 147.988 109.155 147.784 109.155 147.58C110.175 147.988 110.992 148.396 111.604 148.804C111.604 148.804 111.604 148.804 111.808 148.804C115.482 150.641 118.748 152.274 122.831 153.295C124.464 153.703 126.301 154.316 127.934 154.52C128.546 154.724 129.159 154.928 129.771 154.928C130.179 154.928 130.792 155.132 131.404 155.132C131.812 155.132 132.016 155.132 132.425 155.336C133.853 155.54 135.282 155.745 136.711 156.153H137.323C141.814 156.969 146.509 157.377 151.204 156.969C152.428 156.765 153.653 156.561 154.674 156.765C156.103 156.561 157.736 156.561 159.165 156.357C159.369 156.357 159.777 156.357 159.981 156.153C160.593 156.153 161.206 155.949 161.818 155.745C162.022 155.745 162.431 155.54 162.635 155.54C162.839 155.54 163.247 155.336 163.451 155.336C163.859 155.336 164.268 155.132 164.676 155.132C164.88 155.336 164.88 155.336 165.084 155.54C165.288 155.745 165.696 156.153 165.901 156.357C166.513 156.969 167.329 157.786 167.738 158.602C168.35 159.419 168.758 160.235 169.371 161.256C171.412 164.93 173.657 168.808 175.903 172.483C176.107 172.687 176.311 173.095 176.311 173.503C176.719 174.728 177.127 176.157 177.331 177.381C177.536 177.381 177.74 177.381 177.944 177.381C177.536 175.749 176.515 173.503 175.494 171.666ZM110.992 146.559C111.4 145.538 111.808 144.722 112.216 144.11C113.033 143.497 113.645 142.885 114.666 142.068C114.666 143.089 114.666 144.11 114.258 144.926C114.258 144.926 114.258 144.926 114.258 145.13C114.054 145.947 113.849 146.763 113.645 147.58C112.829 147.171 112.012 146.967 110.992 146.559Z" fill="black"/>
<path d="M159.777 153.093C159.369 152.276 158.961 151.256 158.348 150.235C158.144 150.643 157.94 151.051 157.736 151.46C156.715 148.806 156.919 146.765 157.532 144.724C157.736 144.724 157.94 144.724 157.94 144.928C158.144 146.561 157.94 148.194 159.165 149.623C159.981 150.439 159.981 151.868 159.981 153.093C160.389 153.093 160.185 153.093 159.777 153.093Z" fill="black"/>
<path d="M115.074 98.1826C113.237 96.3455 112.625 93.4877 112.829 91.0383C117.932 90.0177 123.647 91.8548 127.321 95.529C126.301 96.7537 124.464 97.162 122.831 97.3661C119.565 97.7743 116.299 98.3867 113.033 98.7949L115.074 98.1826Z" fill="#BCBCBB"/>
<path d="M174.066 130.231C175.699 131.048 177.74 130.844 179.373 129.619C181.006 128.394 181.822 126.761 182.843 125.332C184.476 122.27 186.109 119.209 187.538 115.738C187.946 114.31 188.559 112.881 187.946 111.656C187.13 110.023 184.68 109.819 183.047 110.635C181.414 111.452 180.394 113.085 178.761 114.106C176.719 116.147 167.942 117.167 167.33 119.004C166.922 120.433 173.045 129.619 174.066 130.231Z" fill="#BCBCBB"/>
<path d="M207.134 28.1698C207.134 30.211 206.929 32.2522 206.113 34.0893C205.296 35.9264 203.868 37.1512 202.235 38.1718C195.294 43.6831 186.517 46.3367 177.74 45.7243C175.903 45.7243 173.658 45.316 171.82 45.5202C171.412 45.316 171.004 45.316 170.596 45.1119C169.983 44.9078 169.167 44.9078 168.554 44.7037C166.921 47.3573 165.288 49.8067 163.656 52.2562C163.247 52.6645 162.839 53.4809 162.227 53.4809H162.023C160.594 52.2562 160.39 42.4583 159.981 41.6418C159.369 40.6212 158.552 39.8047 157.532 38.9883C156.307 37.9676 154.674 36.947 153.449 35.7223C152.429 34.7017 151.408 33.6811 150.796 32.4563C149.979 31.0275 149.571 29.5986 149.571 27.9657C149.571 27.9657 149.571 27.9657 149.571 27.7615C149.367 24.0873 149.979 20.6172 152.633 16.943C152.633 16.7389 152.837 16.7389 152.837 16.5348C154.47 11.4317 158.961 8.77815 162.431 5.10395C163.451 3.87922 165.288 3.06273 166.717 2.65448C168.554 1.83799 170.392 1.22563 172.229 0.817383C177.332 0.817383 182.435 1.02151 187.538 2.04212C191.008 3.47097 194.478 4.69571 197.744 6.32868C200.806 8.16579 203.255 10.8194 204.888 13.8812C206.725 18.1678 207.338 23.2708 207.134 28.1698Z" fill="white"/>
<path d="M150.796 148.397C153.857 147.785 156.307 145.539 159.573 144.519C159.777 144.723 159.981 144.927 159.981 144.927C159.573 145.948 159.165 146.764 158.552 147.989C159.369 147.785 159.981 147.58 160.593 147.376C165.492 144.927 169.575 141.457 171.412 136.15C171.616 135.741 171.412 135.129 171.616 134.925C173.861 133.292 172.841 131.047 172.432 129.209C171.82 127.168 171.004 125.127 169.779 123.494C168.146 121.249 166.717 118.799 164.88 116.758C163.247 115.125 161.002 113.696 159.165 112.267C155.49 109.818 151.408 110.634 147.325 109.818C146.305 109.614 145.08 110.43 143.855 110.43C143.039 109.818 143.243 109.205 144.059 108.797C145.488 107.981 147.121 107.981 148.754 108.185C151.612 108.593 154.47 109.001 157.327 109.41C158.144 109.614 158.96 110.022 159.573 110.226C159.777 110.43 160.185 110.634 160.389 110.838C165.492 113.696 168.554 117.983 171.412 122.678C173.249 125.127 174.474 127.985 174.678 131.047C174.882 133.292 174.678 135.333 172.637 136.966C172.228 137.374 172.024 137.783 171.82 138.395C168.962 143.906 164.676 147.785 158.96 149.622C157.94 150.03 156.919 150.03 155.49 150.03C155.694 148.805 155.899 148.193 156.103 147.376C154.061 148.397 152.02 149.213 149.979 150.03C148.958 147.989 148.346 146.152 147.325 144.315C144.059 145.743 140.998 146.764 137.528 146.764C135.895 146.764 134.262 146.152 132.629 145.948C132.016 145.948 131.404 145.743 130.792 145.539C124.26 144.11 120.177 139.62 117.524 134.108C116.911 133.088 116.911 131.863 116.707 130.638C116.095 131.047 115.482 131.455 114.666 131.863C114.258 131.251 113.849 130.638 113.441 130.23C111.196 131.251 111.196 131.251 109.563 129.209C108.338 127.781 107.317 126.148 106.093 124.311C105.889 124.106 105.889 123.902 105.889 123.902C102.827 121.861 103.847 119.003 104.46 116.146C104.664 114.513 105.276 113.084 105.072 111.247C104.868 110.226 105.48 108.797 106.501 107.981C108.542 105.123 110.992 102.878 114.666 101.041C112.829 101.041 111.4 102.061 110.583 100.02C111.196 99.6117 111.604 99.2035 112.216 99.2035C115.074 98.387 117.932 97.5705 120.994 96.9582C122.423 96.5499 124.055 96.754 125.688 96.9582C126.913 96.9582 128.342 97.1623 129.567 97.5705C129.771 96.9582 129.771 96.3458 129.975 95.5293C136.303 98.5911 140.385 103.082 142.427 110.43C141.61 110.022 140.998 109.818 140.794 109.41C140.181 108.185 139.569 106.96 139.161 105.735C138.344 104.102 137.528 102.674 136.099 101.245C135.282 100.632 134.466 100.224 133.241 100.428C132.425 100.632 131.608 100.224 130.792 100.02C128.75 99.6117 126.505 98.9994 124.464 98.9994C122.423 98.9994 120.585 98.7953 119.157 100.632C118.136 101.857 116.503 102.469 114.87 102.878C111.808 104.102 109.767 106.552 107.522 109.001C108.134 109.41 108.746 109.614 109.359 110.022C108.95 110.838 108.542 111.655 108.134 112.471C107.522 113.9 106.909 115.125 106.297 116.554C106.093 117.166 106.093 118.187 106.501 118.391C107.93 119.207 107.726 120.636 107.726 121.861C108.134 123.086 108.746 124.311 109.155 125.739C109.767 125.535 110.379 125.535 111.196 125.331C111.4 125.944 111.604 126.556 111.808 126.964C112.012 126.964 112.216 127.168 112.216 127.168C114.462 126.352 116.707 125.944 118.952 127.168C119.361 127.372 120.177 127.168 120.79 126.964C123.647 126.148 126.301 125.331 129.159 124.719C129.567 124.515 130.383 124.923 130.587 125.331C131.2 126.148 131.812 127.372 131.608 128.189C131.2 129.618 129.771 128.393 128.954 128.597C127.526 129.005 126.097 129.209 124.668 129.414C123.239 129.822 122.014 130.842 120.177 130.026C120.177 130.026 119.361 131.047 119.361 131.251C120.381 133.292 121.402 135.333 122.627 137.374C124.872 140.844 128.954 141.865 132.833 143.294C133.853 143.498 134.874 143.702 135.895 144.11C136.303 144.11 136.507 144.519 136.915 144.315C140.181 143.906 143.447 143.906 146.917 143.09C146.305 142.477 146.101 142.069 145.692 141.661C145.488 141.457 144.876 141.253 144.672 140.844C143.651 136.558 140.181 134.108 136.915 131.863C136.711 131.863 136.711 131.659 136.507 131.251C136.711 131.047 136.711 130.638 137.119 130.638C137.323 130.434 137.732 130.434 137.732 130.23C143.447 135.129 146.917 141.661 150.796 148.397Z" fill="black"/>
<path d="M160.39 62.4617C159.777 63.2781 159.165 64.0946 158.553 65.1152C163.656 66.7482 168.555 68.3812 173.045 70.8307C172.841 71.6472 172.637 72.2595 172.637 72.8719C176.311 75.7296 179.985 78.3832 183.66 81.445C193.049 77.7708 202.235 74.0966 212.645 75.3214C213.87 76.5461 213.461 77.5667 212.645 78.5873C208.971 83.8945 205.092 89.4058 200.193 93.8965C198.56 95.5295 196.723 97.1624 195.499 99.2037C194.682 100.633 194.07 102.47 193.662 104.103C193.253 106.756 193.253 109.41 192.641 111.859C191.824 114.309 189.987 116.35 188.559 118.391C187.538 120.228 186.517 122.269 185.293 123.902C183.864 125.944 182.231 128.393 179.169 129.21C179.373 128.393 179.373 127.985 179.577 127.781C183.66 124.515 185.701 119.82 188.559 115.533C191.212 111.451 192.029 107.369 192.233 102.878C192.233 101.245 192.641 100.224 193.866 98.9995C196.111 96.1418 198.765 93.6924 201.01 90.8347C204.684 86.9563 208.154 82.6698 210.808 77.7708C210.808 77.5667 210.808 77.3626 210.808 76.9543C208.767 76.5461 206.521 76.5461 204.48 76.7502C198.765 77.5667 193.253 79.1997 187.742 81.2409C186.721 81.6492 185.701 82.4656 184.68 82.8739C183.66 83.2821 182.639 83.4863 181.618 82.4656C181.21 82.0574 180.394 81.6492 179.781 81.445C179.577 81.2409 179.169 81.2409 179.169 81.0368C177.332 78.5873 174.678 77.1585 172.229 75.3214C171.208 74.5049 169.779 73.8925 168.555 73.076C168.963 72.4636 169.371 72.0554 169.779 71.443C169.575 71.443 169.371 71.2389 169.167 71.0348C165.901 69.6059 162.431 68.3812 159.369 66.9523C158.348 66.5441 157.124 66.7482 155.695 66.34C156.103 65.3194 156.511 64.2988 156.92 63.2781C155.491 62.2575 154.062 62.4617 152.429 62.2575C150.796 62.2575 148.959 62.0534 147.326 62.2575C146.305 62.2575 145.489 62.0534 144.876 61.2369C142.223 57.3586 140.182 53.072 138.753 48.7855C137.732 45.7236 137.12 42.2535 134.874 39.3958C134.262 40.4164 133.65 41.4371 133.037 42.4577C130.996 46.336 128.955 50.2143 126.914 54.0926C124.668 58.5833 123.035 62.8699 120.79 67.1565C120.178 68.5853 119.361 70.2183 117.32 69.1977C116.095 72.0554 117.32 75.1172 115.483 77.7708C114.87 77.5667 114.258 77.5667 113.237 77.3626C114.258 81.8533 115.074 86.1399 113.85 90.6305C112.625 90.4264 111.604 90.2223 109.971 89.6099C111.196 92.2635 112.013 94.713 113.237 97.3666C112.625 97.3666 112.217 97.3666 111.809 97.1624C111.4 96.9583 110.992 96.346 110.788 95.9377C109.767 93.4883 108.747 90.8347 107.726 88.1811C109.155 86.7522 110.788 87.9769 112.013 87.7728C112.829 85.7316 112.829 82.2615 111.809 79.4038C111.4 78.5873 110.992 77.5667 110.788 76.7502C110.176 74.9131 110.788 74.3008 112.625 74.709C113.033 74.709 113.646 74.9131 114.462 75.1172C114.462 73.8925 114.462 72.8719 114.666 71.8513C114.666 70.8307 114.87 69.6059 115.279 68.5853C115.687 66.7482 115.687 66.7482 117.728 67.1565C117.932 67.1565 118.136 67.1565 118.749 67.1565C119.769 64.2988 121.198 61.441 122.423 58.7875C124.056 55.3174 125.485 51.8473 127.322 48.7855C129.159 45.3154 130.996 42.2536 133.037 38.7835C133.445 37.967 134.058 37.3546 134.874 36.1299C136.303 38.1711 137.324 39.8041 138.14 42.0494C139.569 45.7236 140.794 49.3978 142.223 53.2762C143.039 55.3174 144.06 56.9504 145.285 58.9916C146.101 60.2163 147.122 60.8287 148.755 61.0328C152.021 61.441 155.491 61.6452 158.757 62.0534C159.573 61.8493 159.777 62.0534 160.39 62.4617Z" fill="black"/>
<path d="M206.113 14.9009C205.092 11.0226 202.438 8.36901 198.968 6.94016C198.764 6.94016 198.764 6.73604 198.56 6.73604C198.152 6.53191 197.948 6.53191 197.54 6.32779C194.069 4.69481 190.599 3.47008 187.333 2.04122C186.925 1.8371 186.517 1.8371 186.109 1.63298C184.884 1.22473 183.863 0.816489 182.639 0.204122C182.23 0 181.822 0 181.414 0C178.556 0 175.698 0 173.045 0.612367C172.841 0.612367 172.432 0.816489 172.228 0.816489C170.391 1.22473 168.554 1.63298 166.717 2.65359C165.084 3.47008 163.451 3.87832 162.43 5.10306C158.96 8.57314 154.47 11.4309 152.837 16.5339C152.837 16.738 152.633 16.738 152.633 16.9422C150.796 19.3916 149.775 22.0452 149.775 24.6988C149.775 25.3112 149.775 25.9235 149.775 26.74C149.775 27.1483 149.775 27.5565 149.775 27.9648C149.775 27.9648 149.775 27.9648 149.775 28.1689C149.979 30.8225 150.796 33.4761 151.816 36.3338C152.633 38.5791 154.674 39.5997 156.715 40.8245C159.369 41.8451 160.185 44.0904 160.593 46.744C161.002 48.5811 161.206 50.4182 161.614 52.2553C161.818 52.8677 161.614 53.8883 162.43 53.8883H162.635C163.043 53.8883 163.655 53.2759 164.063 52.6636C165.696 50.2141 167.329 47.7646 168.962 45.111C169.779 45.3152 170.391 45.3152 171.004 45.5193C171.412 45.7234 171.82 45.9275 172.228 45.9275C175.494 47.1523 178.964 47.1523 182.434 46.744C188.966 45.9275 195.294 44.4987 201.214 41.0286C205.5 38.5791 207.746 34.9049 208.358 30.2101C208.358 25.107 207.337 19.7999 206.113 14.9009ZM158.144 39.3956C157.94 39.1915 157.532 38.9874 157.327 38.9874C156.919 38.7832 156.307 38.5791 155.899 38.375C154.674 37.7626 153.857 36.9461 153.041 35.9255C152.837 35.7214 152.633 35.3132 152.428 34.9049C152.224 34.4967 152.02 34.0884 152.02 33.6802C151.816 32.4554 151.408 31.2307 151.408 30.2101C150.183 26.1277 151.204 22.4535 153.245 18.5751C154.061 16.9422 154.878 15.3092 155.899 14.0844C156.919 12.6556 158.348 11.2267 159.981 10.2061C160.798 9.59375 161.614 8.98138 162.635 8.36901C162.839 8.16489 163.247 7.75665 163.247 7.75665C162.635 6.12367 164.063 5.5113 164.88 5.10306C167.125 4.08245 169.371 2.65359 172.024 3.26596C172.841 3.26596 173.861 2.85771 174.678 2.65359C175.903 2.44947 177.127 2.24535 178.556 2.24535C181.414 2.04122 183.863 2.24535 186.517 3.26596C189.987 4.89894 193.661 6.12367 196.927 7.75665C198.56 8.36901 199.989 9.38963 201.418 10.4102C203.459 11.4308 203.663 13.4721 204.48 15.5133C206.521 21.0246 206.929 26.74 205.5 32.4554C204.684 35.7214 202.643 37.9667 199.785 39.5997C192.845 43.8863 185.088 44.9069 177.331 45.111C174.678 45.3152 172.024 43.8863 169.371 43.2739C167.534 42.8657 167.534 42.6616 166.921 44.2945C165.901 46.744 164.472 48.7852 162.43 51.0306C161.818 48.1729 161.614 45.9275 161.002 43.4781L164.268 43.6822C164.268 43.4781 164.472 43.2739 164.472 43.2739C163.655 42.6616 162.635 42.0492 161.818 41.6409C160.798 40.6203 159.573 40.008 158.144 39.3956Z" fill="black"/>
<path d="M149.775 119.82C148.959 120.841 148.142 121.861 147.122 122.474C144.672 123.903 142.223 124.923 139.569 126.148C137.324 127.169 134.058 125.536 132.629 123.29C130.996 120.841 130.996 117.983 130.996 115.125C130.996 114.513 130.996 113.901 130.996 113.288C131.2 109.818 132.016 108.798 135.487 108.594C137.936 108.185 140.385 108.594 142.835 109.818C145.284 110.839 147.53 112.268 149.163 114.105C150.796 115.534 151.204 117.983 149.775 119.82Z" fill="black"/>
<path d="M134.262 85.3232C136.915 85.3232 138.957 88.5892 137.936 91.2428C137.324 92.8757 136.303 94.3046 134.466 94.917C132.221 95.9376 130.179 95.1211 128.955 93.284C127.526 91.2428 127.934 89.4057 129.567 87.5686C130.996 86.3438 132.221 85.1191 134.262 85.3232Z" fill="black"/>
<path d="M162.839 106.756C163.043 102.877 166.513 100.632 169.575 101.245C171.412 101.653 172.433 105.735 171.208 107.368C169.779 109.409 167.942 110.226 165.697 110.226C165.084 110.226 164.064 109.614 163.656 109.001C163.043 108.185 163.043 107.164 162.839 106.756Z" fill="black"/>
<path d="M169.575 96.9584C167.738 98.3872 165.696 96.346 164.268 98.7955C164.063 96.1419 164.676 95.5295 167.329 93.4883C167.738 94.1006 168.146 94.713 168.35 95.3254C171.004 95.1213 171.004 95.1213 171.82 97.979C173.453 98.9996 174.882 99.8161 176.311 100.837C177.331 101.449 177.944 102.061 177.944 103.49C177.944 104.511 178.964 105.327 179.577 106.144C177.944 106.552 176.719 106.144 176.515 104.511C176.107 102.061 174.474 101.245 172.841 100.428C171.004 100.02 169.575 99.2037 169.575 96.9584Z" fill="black"/>
<path d="M130.588 61.4407C130.996 61.6448 131.2 61.6448 131.404 61.8489C133.854 63.4819 133.854 63.4819 134.874 60.8283C135.078 60.42 135.078 60.2159 135.283 60.0118C136.916 59.6036 138.344 59.3994 140.182 59.1953C139.977 60.42 139.365 61.2365 138.344 61.4407C136.711 61.8489 136.099 63.0736 135.283 64.0942C134.874 64.7066 134.262 65.319 133.65 65.7272C133.445 65.9314 132.833 65.5231 132.221 65.319C132.221 65.7272 132.221 66.3396 132.221 66.7478C129.567 64.7066 129.159 63.4819 130.588 61.4407Z" fill="black"/>
<path d="M146.713 78.3824C144.876 77.9742 145.08 75.7288 143.243 75.7288C140.181 73.0752 136.507 74.7082 133.241 73.4835C132.629 73.2793 132.017 73.0752 130.588 72.667C131.812 72.2587 132.221 71.8505 132.629 71.8505C135.078 71.6464 137.528 71.8505 139.977 71.8505C140.59 71.8505 141.406 71.8505 141.814 72.2587C143.039 73.6876 144.468 73.4835 145.897 73.0752C147.326 74.9123 146.509 76.7494 146.713 78.3824Z" fill="black"/>
<path d="M144.672 103.081C143.855 103.49 143.447 103.898 143.039 104.102C142.018 103.694 141.202 100.428 141.406 98.999C142.835 99.2031 142.631 100.836 143.447 101.653C144.468 101.04 145.693 101.244 146.713 102.265C147.53 102.877 148.754 102.673 149.571 102.877C149.979 102.877 150.183 103.286 150.387 103.694C150.183 103.898 149.775 104.51 149.571 104.51C147.938 104.714 146.101 104.919 144.672 103.081Z" fill="black"/>
<path d="M155.286 75.3223C155.695 76.3429 156.103 77.1594 156.511 77.9759C157.94 77.9759 159.369 77.7717 160.798 78.18C161.614 78.3841 162.227 79.4047 163.451 80.6294C162.431 80.6294 161.818 80.6294 161.41 80.4253C160.185 79.4047 158.756 79.2006 157.328 79.813C155.899 80.4253 155.286 79.4047 154.878 78.18C154.266 78.7923 153.653 79.2006 153.041 79.6088C153.041 77.3635 153.245 76.9552 155.286 75.3223Z" fill="black"/>
<path d="M193.866 87.1602C194.886 89.6096 193.866 90.4261 190.396 91.0385C190.6 92.0591 190.804 92.8756 190.804 93.8962C188.967 93.4879 188.763 93.0797 188.559 88.589C188.763 88.589 189.171 88.1808 189.375 88.3849C190.192 88.589 191.212 88.9973 191.825 88.7931C192.641 88.9973 193.253 87.9766 193.866 87.1602Z" fill="black"/>
<path d="M157.123 138.803C154.878 139.007 155.082 136.966 153.857 136.15C153.449 136.354 153.041 136.762 152.633 137.17C152.224 137.579 152.02 138.191 151.612 138.599C149.367 137.17 149.979 134.925 148.754 133.7C150.796 133.904 150.387 135.946 151.204 137.17C152.02 136.354 152.837 135.537 153.857 134.517C155.082 135.946 156.103 137.17 157.123 138.803Z" fill="black"/>
<path d="M183.864 115.942C181.618 116.758 180.189 118.799 178.148 116.35C177.536 116.962 176.923 117.37 176.311 117.779C176.107 117.575 176.107 117.575 175.903 117.37C176.311 116.554 176.719 115.737 177.332 114.717C178.352 115.329 179.373 115.737 179.985 116.146C181.414 116.35 182.231 114.717 183.864 115.942Z" fill="black"/>
<path d="M121.811 121.658C119.361 121.454 120.382 119.004 119.157 118.188C118.545 118.8 117.728 119.412 116.912 120.025C117.116 118.392 117.116 118.392 119.973 117.167C120.586 118.392 121.198 119.821 121.811 121.658Z" fill="black"/>
<path d="M173.249 14.9009C172.229 13.2679 172.841 12.4514 173.862 11.6349C176.719 9.38958 182.231 10.8184 183.864 14.2885C184.476 15.5133 184.68 16.5339 183.455 17.5545C181.822 19.3916 179.781 21.0246 177.944 22.8617C177.944 24.9029 179.373 26.9441 178.557 29.5977C177.332 28.1688 176.107 24.0864 175.699 21.0246C178.148 21.0246 179.577 19.3916 181.414 17.9627C183.251 16.1256 183.047 14.0844 180.598 13.0638C178.352 12.2473 176.311 11.839 174.474 13.8803C174.066 13.8803 173.862 14.2885 173.249 14.9009Z" fill="#F15748"/>
<path d="M175.698 35.3133C176.515 34.2927 176.923 33.2721 177.74 32.6597C178.148 32.4556 179.169 33.0679 179.577 33.4762C180.393 34.0885 179.985 35.1092 179.577 35.7215C178.964 36.538 178.352 37.3545 177.331 36.9463C176.923 37.1504 176.515 36.1298 175.698 35.3133Z" fill="#F15748"/>
<path d="M135.078 88.7931C135.078 89.4054 134.67 89.8137 134.058 89.8137C133.445 89.8137 133.037 89.4054 133.037 88.7931C133.037 88.1807 133.445 87.7725 134.058 87.7725C134.67 87.9766 135.078 88.3848 135.078 88.7931Z" fill="white"/>
<path d="M168.146 104.103C168.146 104.715 167.738 105.123 167.125 105.123C166.513 105.123 166.105 104.715 166.105 104.103C166.105 103.49 166.513 103.082 167.125 103.082C167.738 103.082 168.146 103.694 168.146 104.103Z" fill="white"/>
<path d="M137.119 112.064C137.324 112.064 137.528 112.064 137.732 112.064C140.385 112.064 142.835 113.492 144.06 115.534C144.264 115.738 144.468 115.738 144.876 115.738C145.08 115.534 145.08 115.33 145.08 114.921C143.447 112.472 140.794 110.839 137.732 110.839C137.528 110.839 137.324 110.839 137.119 110.839C136.915 110.839 136.507 111.043 136.711 111.451C136.711 111.859 136.915 112.268 137.119 112.064Z" fill="white"/>
</svg>
