<svg width="25" height="28" viewBox="0 0 25 28" fill="none" xmlns="http://www.w3.org/2000/svg">
<path d="M24.1187 11.6475C24.2658 11.5104 24.4128 11.5104 24.5599 11.3734C24.7069 11.2364 24.7069 10.9623 24.7069 10.8253C24.5599 9.72912 24.4128 8.49589 24.1187 7.3997C23.6775 6.3035 22.9422 5.34432 21.7657 4.79622C20.2951 3.97407 18.3834 4.38515 16.6186 4.24812C15.7363 4.24812 15.001 4.1111 14.2657 4.38515C13.5304 4.52217 12.9421 4.93325 12.501 5.34432C11.7657 5.89242 11.1774 6.3035 10.4421 6.8516C10.2951 6.8516 10.148 6.98862 10.0009 6.98862C9.55976 8.35887 9.70682 9.86614 9.26564 11.2364C9.85388 11.6475 9.85388 12.4696 9.85388 13.2918C9.85388 13.4288 9.85388 13.5658 9.70682 13.7028C9.55976 13.8399 9.55976 13.8399 9.4127 13.8399C8.97152 14.1139 9.26564 14.662 9.4127 14.9361C10.4421 16.4433 12.0598 17.5395 12.9421 19.1838C13.2363 19.7319 13.6774 20.4171 13.6774 21.1022C13.8245 22.0614 13.6774 22.7465 14.4127 23.5686C15.001 24.1167 15.8833 24.3908 16.7657 24.5278C17.3539 24.5278 17.9422 24.5278 18.5304 24.5278C18.9716 24.5278 19.4128 24.3908 19.7069 24.1167C20.1481 23.7057 20.1481 23.1576 20.1481 22.7465C20.1481 22.1984 19.854 21.7873 19.854 21.2392C19.7069 20.006 20.4422 18.9098 21.1775 17.9506C21.9128 16.9914 22.9422 16.3063 23.8246 15.3471C24.1187 15.0731 24.4128 14.525 24.1187 14.1139C23.9716 13.9769 23.8246 13.8399 23.6775 13.7028C23.3834 13.1547 23.3834 12.0585 24.1187 11.6475Z" fill="white"/>
<path d="M21.4708 14.7982C21.3238 16.0315 20.5885 17.2647 20.4414 18.4979C20.4414 18.6349 20.4414 18.772 20.4414 18.909C20.4414 19.046 20.7355 19.183 20.8826 19.046C21.0296 19.046 21.0296 18.909 21.1767 18.909C22.5002 17.2647 23.0885 15.2093 23.6767 13.291C23.8238 12.7429 23.9708 12.1948 23.5297 11.7837C23.0885 11.5096 21.7649 11.6467 21.4708 12.0577C21.0296 12.7429 21.6179 14.1131 21.4708 14.7982Z" fill="#BCBCBB"/>
<path d="M11.031 5.75453C11.6193 5.0694 12.3546 4.38428 13.237 4.38428C13.384 4.38428 13.384 4.38428 13.5311 4.38428C13.8252 4.5213 13.8252 4.93238 13.8252 5.20643C13.8252 6.43965 13.6782 7.8099 13.6782 9.04312C13.6782 10.4134 13.6782 10.9615 12.2075 11.0985C10.2957 11.2355 8.8251 11.0985 9.26628 8.9061C9.56041 7.8099 10.1487 6.7137 11.031 5.75453Z" fill="#BCBCBB"/>
<path d="M15.5928 23.8424C15.5928 23.8424 15.5928 23.9794 15.5928 23.8424C15.5928 23.9794 15.4457 23.9794 15.4457 23.9794C15.1516 23.9794 14.8575 23.7054 14.5634 23.5684C14.2693 23.4313 14.1222 23.2943 13.9752 23.0203C13.8281 22.8832 13.8281 22.6092 13.8281 22.3351C13.8281 21.787 13.8281 21.376 13.8281 20.8279C13.8281 20.4168 15.4457 21.2389 15.5928 21.513C16.034 22.0611 15.7398 23.1573 15.5928 23.8424Z" fill="#BCBCBB"/>
<path d="M13.6758 22.8829L16.1759 24.2532L17.4994 24.6643L20.5877 22.6089L22.0583 23.7051L22.3524 24.9383L22.2054 26.4456L21.6171 26.8567L20.5877 25.6234L19.4112 25.3494L17.9406 24.9383L16.47 24.8013L14.8523 24.9383L12.7935 26.3086L12.2052 27.2677L11.1758 26.3086L11.9111 25.0753L12.3523 24.3902V23.8421L13.6758 22.8829Z" fill="#EB594B"/>
<path d="M6.61763 2.46645C6.47058 2.32942 6.47058 2.05537 6.47058 1.91835C6.32352 1.78132 6.17646 1.50727 6.17646 1.37025C5.88235 1.0962 5.88235 0.82215 5.73529 0.5481C5.58823 0.27405 5.44117 0 5 0C5 0.137025 5.14706 0.27405 5.14706 0.5481C5.29412 0.959175 5.58823 1.23322 5.73529 1.6443C6.0294 2.32942 6.17646 3.01455 6.47058 3.69967C6.76469 4.24777 7.05881 4.79587 7.20586 5.34397C7.35292 5.481 7.49998 5.481 7.64704 5.61802L7.7941 5.481C7.64704 4.9329 7.20586 4.3848 6.91175 3.8367C6.76469 3.42562 6.61763 3.01455 6.61763 2.46645Z" fill="#EB594B"/>
<path d="M0 5.89209C1.9118 6.16614 3.67653 6.98829 5.73539 7.26234C5.58833 7.67341 5.44127 7.67341 5.14715 7.53639C4.70597 7.39936 4.26478 7.39936 3.97066 7.26234C2.79417 7.12531 1.61768 6.71424 0.441184 6.44019C0.147062 6.44019 0 6.30316 0 5.89209Z" fill="#EB594B"/>
<path d="M6.32267 11.2363C6.46973 11.6474 6.17561 11.7844 5.88149 11.7844C4.26383 12.0585 2.79322 12.3325 1.17556 12.6066C1.0285 12.6066 1.0285 12.4696 0.734375 12.4696C1.32262 12.0585 1.91086 12.1955 2.4991 12.0585C3.2344 11.9215 3.82265 11.7844 4.41089 11.6474C4.99913 11.5104 5.58737 11.3734 6.32267 11.2363Z" fill="#EB594B"/>
<path d="M11.0276 17.265C10.8805 16.991 10.7335 16.854 10.7335 16.5799C10.5864 16.1688 10.2923 15.7578 9.85111 15.4837C9.70405 15.3467 9.55699 15.2097 9.40993 15.0726C9.11581 14.7986 8.96875 14.5245 9.11581 14.1135C9.26287 13.7024 9.55699 13.5654 9.99818 13.5654C9.99818 13.5654 9.99817 13.5654 10.1452 13.5654C10.1452 13.0173 9.99818 12.3321 9.99818 11.784C9.85111 11.784 9.70405 11.784 9.40993 11.647C8.96875 11.647 8.96875 11.51 8.96875 11.0989C8.96875 10.6878 8.96875 10.1397 9.11581 9.72867C9.40993 8.7695 9.70405 7.94735 9.99818 7.1252C10.5864 6.029 11.3217 5.06983 12.4982 4.52173C13.5276 4.11066 14.5571 3.83661 15.7335 3.97363C16.1747 3.97363 16.4689 4.11066 16.91 4.11066C17.3512 4.24768 17.6453 4.24768 18.0865 4.11066C18.2336 3.97363 18.5277 3.97363 18.8218 3.97363C20.2924 3.97363 21.616 4.24768 22.7925 5.20686C23.0866 5.48091 23.3807 5.89198 23.5278 6.30305C24.2631 7.53628 24.8513 8.90653 24.9984 10.4138C24.9984 10.6878 24.9984 10.9619 24.9984 11.373C24.9984 11.647 24.8513 11.9211 24.5572 11.9211C24.2631 12.0581 23.8219 12.0581 23.5278 12.0581C23.0866 12.0581 22.6454 12.1951 22.3513 12.1951C21.763 12.1951 21.3219 12.1951 20.7336 12.0581C19.8513 11.9211 18.9689 11.784 18.0865 11.784C17.9395 11.784 17.7924 11.784 17.7924 11.784C17.3512 12.0581 16.763 11.9211 16.3218 11.9211C15.5865 11.9211 14.9982 11.9211 14.2629 11.9211C13.9688 11.9211 13.6747 11.9211 13.3806 12.3321C13.2335 12.6062 12.6453 12.7432 12.2041 12.8802C12.2041 12.8802 12.057 12.7432 11.7629 12.6062C12.2041 12.4692 12.4982 12.3321 12.7923 12.1951C12.3511 11.9211 11.0276 11.9211 10.4394 12.0581C10.2923 12.4692 10.4394 12.8802 10.4394 13.4283C10.7335 14.6616 11.1747 15.7578 11.6158 16.854C12.057 18.2242 12.9394 19.3204 13.9688 20.2796C14.8512 20.9647 15.8806 21.2388 16.91 21.3758C17.0571 21.3758 17.3512 21.3758 17.4983 21.2388C18.9689 20.8277 19.9983 20.0055 20.8807 18.9093C21.9101 17.6761 22.6454 16.1688 23.0866 14.6616C23.2337 13.9764 23.2336 13.2913 23.3807 12.7432C23.3807 12.6062 23.3807 12.4692 23.3807 12.1951C23.8219 12.3321 23.6748 12.4692 23.6748 12.7432C23.6748 12.8802 23.6748 13.1543 23.6748 13.2913L23.8219 13.4283C24.7043 13.8394 24.8513 14.1135 24.4101 14.9356C24.2631 15.3467 23.969 15.6207 23.8219 16.0318C23.6748 16.1688 23.3807 16.3059 23.2336 16.4429C23.0866 16.5799 22.9395 16.5799 22.7925 16.7169C22.2042 18.0872 21.3219 19.1834 20.2924 20.1426C20.2924 20.4166 20.2924 20.6907 20.2924 20.9647C20.2924 21.2388 20.2924 21.5128 20.2924 21.7869C20.2924 22.1979 20.4395 22.472 20.8807 22.746C22.0572 23.2941 23.0866 24.6644 22.4983 26.0346C22.3513 26.4457 22.2042 26.7198 21.616 26.8568C20.7336 26.0346 19.5571 25.2125 18.2336 25.0755C17.7924 24.9384 17.3512 24.9384 16.763 24.9384C15.5865 25.0755 14.41 25.3495 13.3806 26.0346C12.9394 26.4457 12.4982 26.7198 11.91 27.1308C12.057 27.2679 11.91 27.4049 11.7629 27.4049C11.0276 26.8568 10.8805 25.8976 11.3217 25.0755C11.7629 24.1163 12.6453 23.4312 13.6747 23.0201C13.6747 22.335 13.5276 21.6498 13.6747 20.8277C13.9688 20.9647 13.9688 21.2388 13.9688 21.5128C13.9688 21.7869 13.9688 21.9239 14.1159 22.335C14.5571 22.1979 14.8512 21.9239 15.1453 21.7869C15.1453 21.7869 15.1453 21.7869 15.1453 21.9239C14.8512 22.1979 14.5571 22.472 14.1159 22.746C14.1159 22.746 14.1159 22.8831 14.1159 23.0201C14.41 22.8831 14.8512 22.746 15.1453 22.609C15.1453 22.609 15.1453 22.609 15.1453 22.746C14.8512 23.0201 14.5571 23.1571 14.1159 23.4312C14.41 23.7052 14.7041 23.8422 15.1453 23.9793C15.7335 24.1163 16.1747 24.3903 16.763 24.5274C17.0571 24.6644 17.2042 24.6644 17.4983 24.5274C18.0865 24.2533 18.6748 23.8422 19.263 23.5682C19.8513 23.2941 20.1454 22.8831 19.9983 22.1979C19.9983 21.7869 19.9983 21.2388 19.9983 20.6907C19.8513 20.8277 19.7042 20.8277 19.5571 20.8277C18.8218 21.1017 18.0865 21.3758 17.4983 21.7869C17.0571 22.0609 16.6159 21.7869 16.0277 21.6498C15.5865 21.5128 15.1453 21.3758 14.7041 21.2388C14.1159 20.9647 13.6747 20.6907 13.2335 20.2796C12.6453 19.5945 12.057 18.9093 11.6158 18.2242C11.4688 17.9502 11.1747 17.8131 11.0276 17.5391C11.3217 17.4021 11.1747 17.265 11.0276 16.991C11.0276 17.128 11.0276 17.265 11.0276 17.265ZM21.3219 23.4312C21.0277 23.2941 20.7336 23.0201 20.5866 22.8831C19.7042 23.4312 18.8218 23.8422 17.9395 24.3903C18.5277 24.5274 18.9689 24.6644 19.4101 24.8014C19.8513 24.9384 20.2924 25.2125 20.7336 25.4865C21.1748 25.7606 21.4689 26.0346 21.9101 26.3087C22.6454 25.4865 22.4983 24.2533 21.616 23.7052C21.3219 23.9793 20.8807 24.2533 20.5866 24.5274C20.5866 24.5274 20.5866 24.3903 20.4395 24.3903C20.7336 24.1163 21.0277 23.9793 21.1748 23.7052C21.3219 23.7052 21.4689 23.7052 21.3219 23.4312ZM22.2042 10.9619C22.3513 11.0989 22.4983 11.2359 22.4983 11.2359C22.6454 11.51 22.7925 11.647 23.2336 11.647C23.3807 11.647 23.5278 11.647 23.5278 11.647C24.5572 11.647 24.7043 11.51 24.5572 10.5508C24.4101 9.18058 23.969 8.08438 23.3807 6.85115C23.0866 6.30305 22.7925 5.61793 22.2042 5.20686C21.4689 4.65876 20.5866 4.52173 19.7042 4.38471C18.9689 4.24768 18.3806 4.38471 17.7924 4.65876C17.4983 4.79578 17.0571 4.79578 16.763 4.79578C16.0277 4.52173 15.2924 4.52173 14.5571 4.52173C13.3806 4.52173 12.3511 4.93281 11.6158 5.75496C10.5864 6.71413 9.99818 7.81033 9.55699 9.18058C9.55699 9.3176 9.55699 9.45463 9.55699 9.59165C9.99818 9.3176 10.4394 8.90653 10.8805 8.7695C10.5864 9.04355 10.2923 9.18058 9.99818 9.45463C9.70405 9.72868 9.26287 9.8657 9.26287 10.2768C9.70405 10.1397 9.99818 9.72867 10.4394 9.72867C10.1452 10.2768 9.26287 10.2768 9.26287 11.0989C9.70405 11.0989 9.99818 11.0989 10.2923 11.0989C11.6158 11.0989 12.9394 11.2359 14.2629 11.2359C14.8512 11.2359 15.2924 11.2359 15.8806 11.2359C16.1747 11.2359 16.3218 11.2359 16.4689 11.51C16.6159 11.784 16.91 11.647 16.91 11.373C16.91 11.0989 17.0571 10.9619 17.0571 10.6878C17.0571 10.5508 17.2042 10.5508 17.3512 10.4138C17.3512 10.6878 17.3512 10.9619 17.2042 11.0989C18.3806 11.373 21.0277 11.647 21.616 11.647C22.0572 11.51 22.0572 11.373 22.2042 10.9619ZM15.7335 24.2533C14.9982 23.9793 14.2629 23.8422 13.6747 23.2941C13.5276 23.2941 13.3806 23.2941 13.2335 23.4312C12.6453 23.8422 12.057 24.3903 11.7629 24.9384C11.4688 25.4865 11.4688 26.0346 11.7629 26.5827C12.9394 25.6236 14.41 25.0755 15.7335 24.2533ZM23.2336 16.0318C23.8219 15.4837 24.116 14.9356 24.2631 14.3875C24.2631 14.1135 24.116 13.9764 23.969 13.9764C23.6748 13.9764 23.6748 14.1135 23.5278 14.2505C23.3807 14.7986 23.2337 15.3467 23.0866 15.7578C23.0866 15.8948 23.2336 15.8948 23.2336 16.0318ZM10.4394 15.0726C10.4394 14.7986 10.2923 14.5245 10.1452 14.3875C9.99817 14.2505 9.85111 14.1135 9.70405 14.2505C9.55699 14.3875 9.40993 14.6616 9.55699 14.7986C9.70405 15.0726 9.85111 15.2097 10.1452 15.4837C10.2923 15.2097 10.2923 15.0726 10.4394 15.0726Z" fill="#020203"/>
<path d="M19.5547 14.3873C19.7017 14.2502 19.7017 13.9762 19.9959 13.8392C20.1429 13.7021 20.4371 13.7021 20.5841 13.7021C20.8782 13.7021 20.8782 13.9762 21.0253 14.1132C21.0253 14.5243 21.0253 14.9354 20.5841 15.2094C20.29 15.4835 19.8488 15.3464 19.7017 14.9354C19.5547 14.7983 19.5547 14.6613 19.5547 14.3873Z" fill="#020203"/>
<path d="M14.1149 13.9767C13.9678 14.2507 13.8208 14.6618 13.6737 14.7988C13.3796 15.0729 13.0855 15.0729 12.9384 14.6618C12.7914 14.2507 12.7914 13.8396 12.9384 13.5656C13.0855 13.2915 13.3796 13.1545 13.6737 13.2915C13.9678 13.4286 14.1149 13.5656 14.1149 13.9767Z" fill="#020203"/>
<path d="M17.9409 16.7168C17.4998 16.7168 17.0586 16.8538 16.6174 16.8538C16.1762 16.8538 16.0292 16.7168 16.1762 16.3057C16.1762 15.8947 16.3233 15.3466 16.3233 14.9355C16.3233 14.7985 16.3233 14.6614 16.4704 14.5244C16.7645 14.7985 16.6174 15.2095 16.6174 15.4836C16.6174 15.7576 16.6174 16.1687 16.6174 16.4428C17.0586 16.7168 17.4998 16.3057 17.7939 16.7168C17.9409 16.5798 17.9409 16.5798 17.9409 16.7168Z" fill="#020203"/>
<path d="M15.8789 18.772C16.173 18.9092 16.4672 19.0464 16.9083 19.1836C17.2025 19.1836 17.6437 19.0464 17.9378 18.9092C17.9378 18.9092 17.9378 19.0464 17.9378 19.1836C17.3495 19.7325 16.3201 19.5953 15.8789 18.772C15.8789 18.9092 15.8789 18.772 15.8789 18.772Z" fill="#020203"/>
<path d="M21.4655 12.8792C21.0244 13.0159 20.5832 13.0159 20.2891 12.8792C20.4361 12.4693 20.8773 12.4693 21.4655 12.8792Z" fill="#020203"/>
<path d="M17.2043 20.5536C17.0572 20.5536 16.9102 20.5536 16.9102 20.5536C16.9102 20.4169 16.9102 20.4169 17.0572 20.2803C17.0572 20.2803 17.0572 20.4169 17.2043 20.5536C17.2043 20.4169 17.2043 20.4169 17.2043 20.5536Z" fill="#020203"/>
<path d="M21.3236 23.4312C20.8824 23.7056 20.4412 23.98 20 24.2545C20.1471 23.8428 20.7353 23.5684 21.3236 23.4312Z" fill="#020203"/>
</svg>
