<svg width="41" height="39" viewBox="0 0 41 39" fill="none" xmlns="http://www.w3.org/2000/svg">
<path d="M1.86347 7.86937C1.65639 7.24813 1.65639 6.62689 1.44931 6.00566V5.79858C1.44931 5.5915 1.86347 5.79858 2.07055 5.79858C2.89887 6.62689 3.72718 7.45521 3.93426 8.4906C3.93426 8.69768 3.93426 8.90476 3.72718 9.11184H3.5201C2.48471 9.11184 1.86347 8.4906 1.03516 8.07645" fill="white"/>
<path d="M24.8477 4.55605C25.0547 3.93481 25.0547 3.52065 24.8477 3.31357V3.10649C24.8477 2.89941 25.2618 2.89941 25.4689 2.89941C26.0901 3.10649 26.7114 3.10649 27.3326 3.52065C27.7468 3.93481 28.368 4.34897 28.1609 5.17728C28.1609 5.38436 28.1609 5.59144 27.9538 5.59144H27.7468C26.7114 5.17728 25.8831 4.9702 24.8477 4.55605Z" fill="white"/>
<path d="M10.3531 34.3767C8.28235 32.5129 8.90358 28.9926 6.62571 27.5431C5.7974 26.9218 4.55493 26.7147 3.51953 26.5077C4.14077 25.2652 4.55493 23.8156 4.762 22.3661C5.38324 22.9873 6.62571 22.9873 7.24695 22.5732C8.07527 22.159 8.6965 21.3307 9.31774 20.5024C9.93898 19.6741 10.5602 18.4316 10.3531 17.6033C10.1461 16.775 9.52482 16.5679 9.52482 15.7396C9.52482 15.3254 9.7319 14.7042 9.93898 14.4971C10.5602 13.0475 11.1814 11.598 11.8027 10.1484C12.0098 9.32011 12.4239 8.4918 13.2522 8.07764C14.9089 7.04224 16.7726 8.28472 18.8434 8.07764C19.2575 8.07764 19.6717 7.87056 20.0858 7.87056C21.3283 7.87056 21.9496 8.69887 22.9849 9.32011C24.2274 9.94135 25.8841 9.52719 26.9194 10.5626C27.1265 10.9767 27.3336 11.1838 27.7478 11.3909C28.9902 12.6334 31.2681 11.598 32.5106 12.8405C33.546 13.8758 33.1318 15.7396 32.3035 17.1891C30.0256 20.5024 26.9194 22.9873 23.6062 25.0581C20.2929 27.1289 16.5655 29.1997 13.8735 31.8917" fill="white"/>
<path d="M10.147 19.0495C10.3541 18.8425 10.5612 18.6354 10.5612 18.4283C10.5612 17.8071 10.147 17.1858 9.73286 16.7717C9.3187 15.9433 9.52578 14.4938 10.3541 13.8726H10.5612H10.7683C12.632 14.908 14.2886 16.3575 15.5311 18.0141C16.1523 18.4283 16.5665 19.2566 16.5665 20.0849C16.3594 20.7062 16.1523 21.1203 15.7381 21.5345C14.2886 23.3982 11.5966 24.8477 9.3187 23.6053C6.83375 22.7769 8.90454 20.7062 10.147 19.0495Z" fill="#BCBCBB"/>
<path d="M7.86771 23.6071L18.8429 18.6372L26.919 13.4602L30.6464 10.354L39.1366 15.7381L41.0003 18.8442L37.6871 23.1929L24.8482 32.0973L12.8376 37.8955L7.45355 38.5167L5.58984 26.5062H6.83232L7.86771 28.3699L7.0394 23.8141L7.86771 23.6071Z" fill="#EB594B"/>
<path d="M30.6503 10.5607C31.4787 10.3537 31.8928 10.5607 32.5141 10.9749C33.9636 12.2174 35.4132 13.2528 36.6556 14.2882C37.4839 14.9094 38.1052 15.3235 38.9335 15.9448C39.7618 16.566 40.3831 17.1873 40.7972 18.2226C40.7972 18.4297 41.0043 18.8439 40.7972 19.051C40.3831 20.2934 39.5547 20.9147 38.7264 21.9501C35.4132 25.0563 31.8928 27.7483 28.3725 30.0261C26.9229 30.8545 25.6805 31.6828 24.438 32.304C22.3672 33.5465 20.0893 34.789 18.0185 36.0314C15.9477 37.2739 13.877 37.481 11.5991 38.5164C10.1495 38.9305 8.90706 38.9305 7.66459 38.7235C7.04335 38.5164 7.04335 38.3093 6.83627 37.8951C6.42211 36.2385 6.21503 34.3748 6.00796 32.5111C6.00796 31.2686 5.5938 30.0261 5.5938 28.5766C5.5938 28.3695 5.5938 28.1624 5.38672 27.9554C5.38672 27.7483 5.5938 27.5412 5.80088 27.5412C6.00796 27.5412 6.42211 27.7483 6.42211 27.7483C6.62919 28.1624 6.62919 28.5766 6.62919 28.9908C6.83627 31.2686 7.04335 33.3394 7.66459 35.4102V35.6173C9.32122 35.4102 10.9778 34.5819 12.8416 34.1677C14.7053 33.7536 16.3619 32.9253 17.8115 32.0969C19.261 31.2686 20.9176 30.4403 22.5743 29.8191C22.3672 29.8191 22.3672 30.2332 22.1601 30.2332C19.8822 31.4757 17.6044 32.7182 15.5336 33.7536C14.9123 34.1677 13.877 34.1677 13.2557 34.3748C12.2203 34.789 10.9778 35.2031 9.73537 35.6173C9.94245 36.4456 9.94245 37.2739 10.1495 37.8951C9.73538 37.2739 9.5283 36.4456 9.11414 35.8244C8.69998 36.0314 8.4929 36.0314 8.28582 36.0314C8.07874 36.0314 7.87167 36.2385 7.66459 36.4456C7.66459 37.6881 7.87167 37.8951 9.11414 38.1022C9.32122 38.1022 9.73538 38.1022 10.1495 37.8951C10.5637 37.8951 10.9778 37.8951 11.8062 37.8951C11.392 37.2739 11.1849 36.8598 11.1849 36.4456C11.1849 36.4456 11.1849 36.4456 11.392 36.4456C11.5991 36.8598 12.0132 37.481 12.2203 37.8951C13.4628 37.6881 14.4982 37.2739 15.7407 36.6527C17.8115 35.6173 19.6752 34.5819 21.5389 33.5465C22.9884 32.7182 24.438 31.8899 25.6804 30.8545C27.3371 29.8191 28.9937 28.9908 30.6503 27.7483C32.7211 26.2987 34.999 24.8492 36.8627 22.9855C37.8981 22.1571 38.7264 21.1218 39.7618 20.0864C39.9689 19.6722 40.5901 19.258 40.5901 18.8439C40.383 18.2226 39.9689 17.3943 39.5547 16.9802C38.5193 15.9448 37.0698 15.1165 36.0344 14.2882C34.999 13.4598 33.9636 12.6315 32.9282 11.8032C32.5141 11.5961 32.307 11.389 31.6857 11.8032C31.2716 10.9749 31.0645 10.7678 30.6503 10.5607Z" fill="#020203"/>
<path d="M7.45398 23.1945C6.62567 23.4016 4.76196 21.5379 4.55488 20.9166C4.3478 20.9166 3.93364 20.2954 3.93364 20.2954C3.93364 20.2954 4.14072 21.1237 3.93364 20.9166C4.14072 21.3308 4.76196 23.4016 4.76196 23.8158C4.3478 24.6441 4.14072 25.6795 3.72656 26.5078C4.3478 26.5078 4.96904 26.3007 5.79735 26.5078C6.83275 26.5078 7.45398 26.9219 7.66106 27.7502C7.45398 28.1644 7.86814 28.5786 8.2823 28.9927C8.69646 28.3715 8.2823 27.9573 7.86814 27.3361C7.45398 26.5078 7.2469 25.8865 7.2469 24.8511C7.03982 24.2299 7.2469 23.8158 8.07522 23.4016C8.2823 23.4016 8.2823 23.4016 8.2823 22.9874C8.07522 22.9874 7.86814 22.7804 7.86814 22.7804C7.66106 23.1945 7.66106 23.1945 7.45398 23.1945ZM6.83275 26.0936C6.00443 26.0936 5.17611 25.8865 4.3478 26.0936C4.76196 25.0582 4.96904 24.2299 5.38319 23.4016C6.00443 23.6087 6.21151 23.8158 6.83275 24.0228C6.83275 24.437 6.62567 25.2653 6.83275 26.0936Z" fill="#020203"/>
<path d="M30.4386 9.94141L30.0244 10.1485C29.8174 10.1485 29.6103 10.3556 29.6103 10.5626C29.6103 10.7697 29.1961 11.1839 29.1961 11.1839C27.3324 13.0476 25.2616 14.4971 22.7767 15.7396C22.3625 15.9467 21.9484 16.1538 21.5342 16.3609C20.913 16.775 20.0847 17.1892 19.4634 17.6033C18.6351 18.2246 17.5997 18.6387 16.5643 19.26C14.4935 20.5024 12.4227 21.5378 10.1449 22.3661C9.73071 22.5732 9.10947 22.7803 8.69531 23.4015C9.10947 23.4015 9.31655 23.6086 9.31655 23.4015C10.7661 22.7803 12.2157 22.3661 13.4581 21.5378C16.7714 19.8812 20.0847 18.4316 23.1908 16.5679C24.0191 16.1538 24.8475 15.5325 25.6758 15.1184C27.7466 13.6688 29.4032 12.4264 30.8528 10.5626C30.6457 10.3556 30.4386 10.1485 30.4386 9.94141Z" fill="#020203"/>
<path d="M20.5035 24.4349C19.6752 24.0207 19.261 23.8136 18.6398 23.6066C18.0186 23.3995 17.6044 23.3995 16.9832 23.1924C16.3619 23.1924 16.1548 23.6066 16.3619 24.2278C16.7761 25.0561 17.3973 25.4703 18.4327 25.8844C19.261 26.0915 19.8823 26.2986 20.7106 26.5057C20.9177 26.5057 21.3318 26.7127 21.3318 26.7127V26.9198C21.3318 26.9198 20.9177 26.9198 20.7106 27.1269C19.8823 26.9198 19.054 26.7127 18.2256 26.5057C17.1902 26.2986 16.3619 25.4703 15.9478 24.4349C15.5336 23.6066 15.9478 22.7782 16.9832 22.7782C17.3973 22.7782 18.0186 22.9853 18.6398 23.1924C18.8469 23.1924 19.261 23.3995 19.8823 23.6066C20.0893 22.3641 20.5035 21.5358 21.3318 20.9145C22.3672 19.8791 23.4026 19.8791 23.8168 21.1216C24.0238 21.9499 24.438 22.9853 24.0238 24.0207C23.6097 25.0561 23.6097 26.0915 23.1955 27.1269C23.1955 27.334 22.9885 27.5411 22.7814 27.5411C22.7814 27.5411 22.7814 27.334 22.5743 27.5411C22.7814 26.7127 22.9885 25.8844 23.1955 25.2632C23.6097 24.2278 23.8168 22.9853 23.4026 21.9499C23.1955 21.3287 23.1955 20.7075 22.3672 20.7075C21.746 20.5004 21.1247 21.3287 20.7106 21.9499C20.5035 22.5712 20.5035 22.9853 20.5035 23.3995C20.2964 23.8136 20.5035 24.0207 20.5035 24.4349Z" fill="white"/>
<path d="M25.6758 27.1269C26.0899 26.5057 26.7112 26.0915 27.1253 25.6774C27.9537 25.0562 28.5749 24.642 29.4032 24.0208C31.8881 22.3641 34.166 20.2933 36.2368 18.2225C36.858 17.6013 37.0651 16.9801 37.6864 16.5659C37.8934 16.9801 37.8934 17.1872 37.6864 17.3942C35.8226 19.0509 34.3731 20.7075 32.5094 22.5712C31.0598 23.8137 29.1961 24.8491 27.5395 26.0915C26.9183 26.2986 26.5041 26.7128 25.6758 27.1269Z" fill="#020203"/>
<path d="M32.7153 12.4243C32.3011 13.0456 31.4728 13.8739 30.8516 14.7022C31.0586 13.4597 31.6799 13.0456 32.7153 12.4243Z" fill="#020203"/>
<path d="M31.4769 11.5952C31.0627 12.2165 30.6486 12.8377 30.0273 13.2518V13.0448C30.2344 12.4235 30.8557 12.0094 31.4769 11.5952Z" fill="#020203"/>
<path d="M7.65639 24.0197C8.07055 22.7772 8.69179 21.9489 10.3484 21.9489C10.3484 21.1206 10.3484 21.1206 9.72718 21.3276C9.10594 21.5347 8.69179 21.5347 8.07055 21.7418C8.07055 21.1206 8.48471 20.4993 9.10595 20.0852C9.72718 19.671 10.5555 19.2569 11.1767 18.6356C11.3838 18.6356 11.5909 18.4285 12.005 18.0144C11.5909 17.8073 11.1767 17.8073 10.9697 17.8073C10.3484 17.6002 10.3484 17.3932 10.7626 16.5648C10.9697 16.1507 11.1767 15.9436 11.5909 15.5294C11.5909 15.5294 11.5909 15.3224 11.3838 15.5294C10.7626 15.9436 10.3484 16.3578 9.72718 16.979C9.31302 16.1507 10.5555 15.5294 10.9697 14.494C10.3484 15.1153 9.93426 15.5294 9.5201 16.1507C9.10594 15.1153 9.5201 14.0799 10.1413 13.0445C10.7626 12.4233 11.3838 12.0091 11.798 11.3879C12.2121 10.7666 11.798 10.3525 12.005 9.52415C12.005 8.48876 13.0404 8.28168 13.6617 8.28168C14.0758 8.28168 14.49 8.48876 15.1112 8.48876C15.3183 8.48876 15.5254 8.69584 15.7325 8.69584C15.9395 8.69584 16.1466 8.48876 16.1466 8.48876C16.7679 8.0746 17.5962 7.86752 18.4245 8.0746C20.0811 8.48876 21.5307 8.90292 21.9448 10.3525C21.9448 10.5595 22.1519 10.7666 22.5661 10.9737C22.5661 10.9737 22.7732 10.9737 22.9802 10.9737C22.9802 10.7666 23.1873 10.3525 23.1873 10.1454C24.2227 10.1454 25.2581 10.1454 25.8793 10.7666C26.5006 11.3879 26.2935 12.4233 26.0864 13.4587C26.2935 13.4587 26.2935 13.4587 26.5006 13.2516C27.1218 12.6303 27.9501 12.4233 28.5714 12.2162C28.7784 12.2162 28.9855 11.802 29.3997 11.5949C28.7784 11.5949 28.1572 11.802 27.3289 12.0091C27.1218 11.1808 27.1218 9.93831 26.0864 9.73123C25.2581 9.31707 24.2227 9.10999 22.7732 9.73123C21.7378 8.48876 20.4953 7.66044 18.4245 7.45336C18.2174 7.45336 17.5962 7.24628 17.182 7.45336C16.1466 8.0746 15.3183 7.86752 14.49 7.45336C14.2829 7.45336 13.8688 7.45336 13.4546 7.45336C12.005 7.66044 11.3838 8.28168 11.1767 9.52415C11.1767 9.73123 10.9697 10.1454 11.1767 10.1454C11.1767 10.5595 10.9697 10.9737 10.5555 11.1808C9.10594 12.4233 8.48471 13.8728 8.48471 15.3224C8.69179 16.5648 8.89887 17.3932 9.72718 18.2215C9.31302 18.2215 9.10595 18.6356 8.89887 18.8427C7.86347 19.8781 7.03516 20.7064 7.44931 21.9489C7.44931 22.156 7.44931 22.363 7.44931 22.5701C7.24223 22.9843 7.03516 23.1914 7.03516 23.6055C7.24224 24.2268 7.44931 24.0197 7.65639 24.0197Z" fill="#020203"/>
<path d="M4.76281 6.00513C4.76281 6.21221 4.76281 6.21221 4.55574 6.62637C4.14158 7.2476 4.14158 8.07592 4.96989 8.90423C5.59113 9.52547 5.79821 10.1467 6.00529 10.7679C6.00529 10.975 6.21237 11.5963 5.79821 11.8033C5.59113 11.5963 5.17697 11.3892 5.17697 11.3892C4.96989 10.975 4.76281 10.5609 4.55574 10.1467C3.52034 8.49008 2.8991 8.49008 1.44955 9.52547C1.03539 9.73255 0.828315 9.93963 0.414158 10.1467C0.414158 9.93963 0.414158 9.93963 0.207079 9.73255C0.207079 9.52547 0.414158 9.31839 0.621237 9.11131C1.44955 8.283 1.65663 7.2476 1.03539 6.00513C0.414158 5.17681 0 4.3485 0 3.52018C0.621237 3.10602 1.03539 3.52018 1.24247 3.93434C1.44955 4.3485 1.65663 4.96973 1.86371 5.38389C2.27787 6.41929 3.10618 6.62637 3.9345 5.79805C4.14158 5.59097 4.34866 5.59097 4.76281 6.00513ZM3.52034 8.07592C3.52034 7.04052 3.31326 6.83344 2.07079 7.45468C2.07079 7.45468 2.07079 7.86884 2.07079 8.283C2.69203 8.283 3.10618 8.07592 3.52034 8.07592Z" fill="#020203"/>
<path d="M24.4337 0C24.6408 0.414158 24.8479 0.828316 25.055 1.03539C25.2621 1.44955 25.2621 1.86371 25.6762 2.07079C26.0904 2.8991 26.9187 3.10618 28.1612 2.69203C28.3682 2.69203 28.7824 2.48495 29.1966 2.48495C27.747 4.14158 28.3682 5.17697 29.1966 6.21237C29.6107 6.62652 29.6107 7.04068 30.0249 7.45484C30.2319 7.869 30.2319 8.28316 29.6107 8.69731C29.1966 8.28316 28.9895 7.869 28.5753 7.45484C28.3682 7.04068 28.1612 6.62652 27.9541 6.41945C27.1258 5.59113 26.2974 5.38405 25.4691 6.00529C25.055 6.21237 24.8479 6.41945 24.4337 6.62652C24.6408 5.79821 24.6408 5.17697 24.8479 4.55574C25.055 3.72742 24.8479 3.10618 24.4337 2.48495C24.2267 2.07079 23.8125 1.44955 23.8125 1.03539C23.8125 0.828316 24.0196 0.621237 24.0196 0.414158C24.0196 0 24.2267 0 24.4337 0ZM27.5399 4.76281C27.1258 3.72742 26.2974 3.9345 25.4691 3.52034C25.2621 4.14158 25.2621 4.55574 25.2621 4.96989C26.0904 4.76281 26.9187 4.76281 27.5399 4.76281Z" fill="#020203"/>
<path d="M14.0813 13.2515C13.8743 12.8373 13.8743 12.009 14.2884 11.8019C14.7026 11.5949 14.9096 11.8019 15.1167 12.2161C15.3238 12.6303 15.1167 13.0444 14.7026 13.2515C14.2884 13.4586 14.0813 13.4586 14.0813 13.2515Z" fill="#020203"/>
<path d="M12.8359 18.636C13.043 18.2219 13.043 17.3935 13.8713 17.8077C14.0784 18.0148 14.4926 18.636 14.0784 18.8431C13.6643 19.2573 13.2501 19.0502 12.8359 18.636Z" fill="#020203"/>
<path d="M20.5043 13.8728C20.2972 13.2516 20.7114 12.8374 21.1255 12.8374C21.3326 12.8374 21.5397 13.2516 21.5397 13.2516C21.3326 13.6657 20.9185 13.8728 20.5043 13.8728Z" fill="#020203"/>
</svg>
