<?xml version="1.0" encoding="utf-8"?>
<!-- Generator: Adobe Illustrator 24.0.2, SVG Export Plug-In . SVG Version: 6.00 Build 0)  -->
<svg version="1.1" xmlns="http://www.w3.org/2000/svg" xmlns:xlink="http://www.w3.org/1999/xlink" x="0px" y="0px"
	 viewBox="0 0 183.94 207.57" style="enable-background:new 0 0 183.94 207.57;" xml:space="preserve">
<style type="text/css">
	.st0{fill:#FFFFFF;}
	.st1{fill:#BCBCBB;}
	.st2{fill:#EB584A;}
	.st3{fill:#010202;}
	.st4{fill:#020203;}
</style>
<g id="Layer_1">
</g>
<g id="Layer_2">
</g>
<g id="Layer_3">
	<g>
		<path class="st0" d="M43.2,113.54c-1.75-1.35-3.41-3.09-5.6-3.35c-1.81-0.22-3.55,0.63-5.22,1.36c-3.68,1.61-7.63,2.76-11.65,2.67
			c-4.01-0.09-8.1-1.54-10.84-4.48c-1.88-2.03-3.02-4.61-4.13-7.15c-2.02-4.61-4.06-9.83-2.24-14.53c1.24-3.21,4.07-5.52,6.98-7.37
			c4.49-2.86,9.53-5.02,14.84-5.49s10.89,0.86,14.94,4.32c6.51,5.55,6.95,13.89,8.44,21.68C49.56,105.68,52.89,121.01,43.2,113.54z"
			/>
		<path class="st0" d="M60.48,103.73c-0.88,13.07-1.76,26.14-2.64,39.21c-0.36,5.37-0.72,10.78-0.11,16.13
			c0.38,3.31,1.14,6.57,2.25,9.71c0.71,2.01,1.65,4.08,3.41,5.29c2.04,1.4,4.7,1.34,7.16,1.23c25.25-1.1,50.49-2.2,75.74-3.3
			c1.26-0.06,2.58-0.13,3.67-0.78c2.59-1.55,2.69-5.6,5.24-7.21c3.77,2.86,3.46,8.46,4.57,13.06c1.98,8.25,10.13,14.58,18.61,14.45
			c0.95-0.01,1.98-0.13,2.68-0.77c0.62-0.56,0.86-1.41,1.04-2.22c1.07-4.83,0.64-9.98-1.21-14.57c-0.86-2.13-2.02-4.15-2.71-6.34
			c-0.84-2.68-0.96-5.52-1.04-8.32c-0.21-7.05-0.28-14.25-2.62-20.89c-2.35-6.65-7.48-12.78-14.38-14.24
			c-1.57-0.33-3.32-0.48-4.46-1.6c-0.74-0.72-1.1-1.75-1.27-2.76c-0.81-4.71,1.85-9.74,0.13-14.2c-0.93-2.42-2.99-4.18-4.7-6.12
			c-2.12-2.41-3.75-5.2-5.38-7.96c-6.1-10.4-12.44-21.97-10.31-33.84c1.12-6.22,4.47-11.76,7.04-17.53
			c2.57-5.77,4.37-12.4,2.24-18.34c-3.32-9.25-15.58-12.96-24.72-9.33c-3.68,1.46-7.01,3.84-10.85,4.8
			c-9.84,2.45-21.44-4.73-29.79,1.02c-2.43,1.67-4.74,4.44-7.63,3.86c-1.26-0.25-2.29-1.13-3.4-1.77
			c-5.58-3.24-13.18-0.17-16.83,5.15s-4.23,12.14-4.08,18.6c0.12,4.93,0.94,10.5,4.97,13.34c3.65,2.58,8.9,2.08,12.37,4.9
			c6.67,5.41,1.31,17.18,6.13,24.29c1.1,1.63,2.68,2.89,3.81,4.5c1.13,1.61,1.77,3.84,0.74,5.52c-1.7,2.78-5.91,1.75-9.07,2.56
			c-4.04,1.03-6.47,6.12-4.72,9.91"/>
		<path class="st1" d="M64.38,67.12c0.38,0.49,1.12,0.77,1.65,0.45c0.27-0.16,0.45-0.44,0.61-0.71c2.24-3.66,4.48-7.33,6.72-10.99
			c0.51-0.84,1.03-1.7,1.24-2.66c0.68-3.17-2.16-5.97-2.86-9.14c-0.22-1.01-0.23-2.05-0.48-3.05s-0.82-2-1.78-2.39
			c-0.21-0.08-0.46-0.13-0.66-0.02c-0.22,0.12-0.31,0.38-0.38,0.62c-1.52,5.32-3.28,10.63-4.58,16.01
			C62.85,59.45,64.38,63.07,64.38,67.12z"/>
		<path class="st1" d="M124.94,52.44c0.66,0.91,1.39,1.87,2.46,2.23c0.64,0.22,1.36,0.21,1.91,0.59c0.56,0.39,0.8,1.09,1.01,1.74
			c0.77,2.42,1.53,4.84,2.3,7.26c0.96,3.03,1.8,6.71-0.3,9.1c-1.76,1.99-4.99,2.08-7.35,0.85s-4-3.47-5.4-5.74
			c-4.38-7.11-8.34-16.77-8.11-25.3C111.76,31.45,122.79,49.5,124.94,52.44z"/>
		<path class="st1" d="M148.81,104.45c0.42,0.05,0.87,0.09,1.25-0.09c0.92-0.44,0.86-1.76,0.62-2.75
			c-1.24-5.2-3.72-10.75-8.68-12.71c-2.42-0.96-5.11-0.92-7.7-0.75c-11.24,0.71-22.35,3.47-32.62,8.11c-1.67,0.75-3.63,2.3-2.9,3.98
			c0.5,1.16,1.98,1.46,3.24,1.58C117.59,103.41,133.21,102.71,148.81,104.45z"/>
		<path class="st1" d="M170.09,163.88c-0.53-2.26-1.86-4.24-3.01-6.26c-2.02-3.55-3.55-7.38-4.52-11.35
			c-0.45-1.83-0.86-3.83-2.29-5.06c-1.5-1.29-3.72-1.21-5.49-0.26c-1.52,5.05-1.2,10.38-1.33,15.66l0.01,0.02
			c1.27,3.64,1.12,9.39,4.25,11.88c0.83,0.66,1.82,1.07,2.81,1.45c2.51,0.98,5.54,1.77,7.73,0.21
			C170.13,168.84,170.62,166.14,170.09,163.88z"/>
		<path class="st1" d="M164.27,188.16c0.76,0.84,1.68,1.67,2.81,1.72c1.12,0.05,2.14-0.71,2.73-1.66c0.58-0.95,0.81-2.07,1.03-3.17
			c0.71-3.61,1.51-6.19-1.38-8.7c-1.94-1.68-5.37-2.82-7.78-1.56C155.96,177.77,161.48,185.05,164.27,188.16z"/>
		<path class="st1" d="M59.61,165c0.43,2.69,1.11,5.4,2.6,7.67c1.5,2.27,3.93,4.06,6.65,4.2c1.8,0.09,3.55-0.53,5.24-1.14
			c1.76-0.63,3.52-1.27,5.29-1.9c0.58-0.21,1.19-0.43,1.62-0.88c1.35-1.42,0.08-3.71-1.19-5.19c-4.13-4.81-8.42-9.52-11.95-14.79
			c-2.02-3.01-3.07-6.96-5.14-9.8c-1.87-2.56-2.52-3.23-3.83-0.79c-1.27,2.37-0.1,9.07-0.06,11.82
			C58.88,157.8,59.04,161.42,59.61,165z"/>
		<path d="M78.77,97.81c-0.33,0.52-0.66,1.03-1.18,1.86c2.26,0.21,4.36,0.46,6.46,0.58c5.98,0.37,11.96,0.77,17.95,1
			c4.55,0.17,9.11,0.06,13.66,0.16c5.43,0.12,10.86,0.25,16.28,0.55c5.9,0.33,11.78,0.9,17.68,1.28c2.86,0.18,5.73,0.15,8.7,0.22
			c1.5,1.98,1.01,4.28,0.61,6.4c-0.59,3.13-1.51,6.21-2.38,9.28c-0.95,3.38-0.66,6.81-0.67,10.24c0,0.88,0.09,1.76,0.05,2.63
			c-0.22,4.46-0.48,8.93-0.7,13.39c-0.03,0.62,0.04,1.25,0.07,1.88c0.49,0.08,0.87,0.13,1.24,0.19c0.01,0.14,0.08,0.33,0.01,0.4
			c-0.77,0.9-1.65,1.74-1.51,3.45c1.91-0.94,3.64-1.79,5.38-2.64l0.21,0.26c-0.3,0.25-0.59,0.52-0.91,0.74
			c-1.14,0.74-2.31,1.43-3.44,2.19c-2.14,1.45-2.38,2.41-1.22,5.23c0.52-0.37,1-0.72,1.49-1.03c0.54-0.35,1.1-0.71,1.86-0.01
			c-0.13,0.36-0.26,0.78-0.43,1.18c-0.55,1.32-1.18,2.61-1.66,3.96c-0.76,2.13,0.33,3.6,1.98,5.27c1-2.9,2.26-5.2,5.17-6.55
			c-0.24,2.46-3.04,3.17-2.92,5.61c0.88-0.28,1.7-0.54,2.53-0.8c-1,1.17-2.67,1.45-3.17,3.02c0.87,1.32,2,0.04,3.25,0.57
			c-0.61,0.29-1.04,0.48-1.72,0.8c0.59,0.4,0.86,0.66,1.18,0.79c3.42,1.42,6.9,0.96,10.39,0.34c0.87-0.16,1.11-0.79,1.11-1.6
			c-0.02-2.5-1.02-4.65-2.38-6.67c-0.29-0.44-0.58-0.88-0.84-1.27c0.54-0.82,1.02-0.62,1.48-0.19c1.65,1.56,2.22,3.66,2.79,5.74
			c0.17,0.6,0.25,1.22,0.44,2.11c2.03-2.19,2.58-4.64,2.64-7.2c0.02-0.7-0.51-1.54-1.02-2.1c-2.43-2.67-5.51-4.35-8.93-5.35
			c-0.92-0.27-1.99-0.01-3.35,0.02c0.44-0.59,0.63-1.12,0.94-1.2c0.83-0.21,1.77-0.49,2.54-0.29c4.04,1.05,7.58,3.05,10.24,6.29
			c2.4,2.93,1.66,6.13,0.29,9.27c-0.19,0.43-0.48,0.82-0.71,1.24c-0.08,0.14-0.11,0.3-0.21,0.59c1.35,1.2,1.92,2.84,2.59,4.56
			c0.57,1.46,0.95,2.92,1.34,4.41c0.79,2.98,0.84,6,0.47,9.03c-0.35,2.87-1.66,4.17-4.49,4.84c-3.71,0.88-7.12,0.36-10.27-1.84
			c-0.83-0.58-1.79-0.98-2.69-1.47c-0.53-0.72-0.99-1.66-1.71-2.28c-2.17-1.83-3.36-4.2-4.2-6.83c-0.22-0.68-0.44-1.37-0.74-2.02
			c-0.95-2.08-1.35-4.13,0.32-6.19c-1.96-1.75-4.14-3.13-4.95-5.76c-0.79-2.57-0.25-4.96,0.45-7.43c-0.89,0.62-0.99,1.54-1.13,2.44
			c-0.47,3-0.97,6-1.37,9.01c-0.26,1.97-1.5,3.09-3.05,4.03c-0.52,0.32-1.08,0.58-1.62,0.85c-0.17,0.09-0.39,0.25-0.53,0.2
			c-2.59-0.9-5.2-0.17-7.8-0.13c-4.23,0.08-8.47,0.15-12.7,0.22c-0.4,0.01-0.82-0.1-1.19,0c-4.21,1.17-8.52,0.89-12.82,0.91
			c-2.47,0.01-4.94,0.29-7.41,0.41c-8.54,0.39-17.08,0.75-25.64,0.28c-2.07-0.12-4.15-0.01-6.23-0.04
			c-0.83-0.01-1.17,0.37-1.04,1.36c-1.08-1.99-2.8-1.69-4.33-1.6c-1.71,0.1-3.11-0.43-4.46-1.38c-1.42-1-2.09-2.3-2.18-4.03
			c-0.36-6.86-0.73-13.72-1.18-20.57c-0.27-4.15-0.9-8.28-1-12.42c-0.15-5.83,0.01-11.67,0.09-17.5c0.08-5.2,0.26-10.39,0.32-15.59
			c0.01-1.01-0.32-2.03-0.48-2.96c2.26-3.1,5.6-2.69,8.73-2.85c1.66-0.08,3.32,0.02,5.01,0.04c1.03-3.26,0.72-6.36,0.56-9.65
			c-0.59-0.31-1.26-0.73-1.98-1.04c-2.15-0.92-3.35-2.64-4.11-4.74c-1.95-5.45-0.84-10.52,1.96-15.37c0.48-0.83,1-1.64,1.45-2.49
			c0.46-0.86,0.88-1.58,2.04-1.77c0.7-0.11,1.39-0.79,1.9-1.37c1.85-2.09,3.77-4.15,5.38-6.43c1.09-1.54,1.7-3.41,2.53-5.13
			c0.36-0.75,0.73-1.5,1.33-2.14c-0.6,3.06-1.28,6.08-3.21,8.61c-0.68,0.89-1.36,1.8-2.18,2.55c-1.02,0.95-1.58,1.94-0.81,3.52
			c-0.35,0.18-0.64,0.31-0.92,0.47c-6.48,3.88-8.41,9.88-7.83,16.99c0.42,5.24,5.03,6.86,8.9,6.66c1.25-0.06,2.26-0.67,2.7-2.02
			c0.15-0.47,0.6-0.85,1.24-1.72c0,1.28-0.01,2.01-0.01,2.7c2.66,1.79,5.46,2.8,8.63,2.4c0.86-0.11,1.83-0.2,2.52-0.65
			c2.01-1.28,4.1-2.54,5.81-4.17c3.18-3.03,4.17-6.89,3.21-11.19c-0.52-2.36-1.45-4.51-2.94-6.49c-1.53-2.03-2.73-4.31-4.01-6.52
			c-0.33-0.57-0.85-1.22-0.16-2.03c0.92,0.2,1.06,1.09,1.47,1.71c1.23,1.86,2.31,3.84,3.66,5.6c1.83,2.39,3.11,4.98,3.52,8.3
			c1.54-1.08,2.8-1.96,4.07-2.84l0.26,0.27c-0.42,0.38-0.78,0.85-1.26,1.13c-2.96,1.75-3.39,4.51-3.25,8.04
			c1.7-1.46,3.1-2.71,4.55-3.9c1.42-1.17,2.86-2.3,4.31-3.43c1.44-1.12,2.06-3.15,4.47-4.08c-0.34,1.01-0.38,1.6-0.69,1.94
			c-1.3,1.4-2.55,2.91-4.07,4.04c-4.37,3.25-8.34,6.94-12.34,10.61c-1.64,1.5-3.37,3.04-5.32,4.04c-3.38,1.74-6.96,1.5-10.41-0.06
			c-0.94-0.42-1.8-1.02-2.77-1.58c-1.21,2.65-3.66,2.14-5.68,2.3c0.1,1.93,0.19,3.77,0.3,5.86c1.74-1.06,3.39-2.07,5.03-3.07
			c0.1,0.14,0.2,0.27,0.29,0.41c-0.65,0.44-1.32,0.85-1.95,1.32c-0.71,0.52-1.38,1.09-2.06,1.64c-0.5,0.4-1.05,0.76-1.45,1.25
			c-0.25,0.31-0.26,0.81-0.38,1.23c0.49,0.13,1.04,0.46,1.47,0.34c0.58-0.17,1.04-0.71,1.6-1.02c0.4-0.23,0.87-0.34,1.3-0.5
			L78.77,97.81z M68.78,169.58c0.15-0.03,0.3-0.06,0.45-0.09c0.37,1.27,0.75,2.53,1.09,3.81c0.24,0.89,0.72,1.29,1.71,1.29
			c4.95,0.02,9.91,0.2,14.86,0.13c3.83-0.06,7.65-0.53,11.47-0.62c7.74-0.18,15.48-0.23,23.23-0.34c1.12-0.02,2.24-0.13,3.35-0.06
			c5.27,0.31,10.53,0.2,15.78-0.33c0.51-0.05,1.01-0.31,1.55-0.48c-0.3-2.1-0.3-4.1-1.28-5.91c-3.29-0.08-6.48-0.17-9.67-0.22
			c-3.22-0.05-6.45-0.06-9.99-0.09c0.36-0.52,0.51-0.97,0.77-1.05c0.68-0.2,1.41-0.29,2.12-0.32c7.9-0.34,15.82,0.55,23.71-0.49
			c0.31-0.04,0.67-0.07,0.95,0.04c0.38,0.15,0.72,0.43,1.46,0.89c-1.52,0.42-2.62,0.72-3.73,1.02c-0.05,2.07-0.34,4.02,0.43,5.82
			c2.54-0.61,3.01-2.54,3.36-4.53c0.1-0.55,0.15-1.11,0.24-1.66c0.39-2.44,0.55-4.95,1.23-7.31c1.91-6.69,1.59-13.61,2.43-20.41
			c0.23-1.89,0.06-3.83,0.07-5.74c0-1.19-0.05-2.39-0.01-3.58c0.08-2.3-0.07-4.66,0.36-6.89c0.72-3.74,1.85-7.4,2.75-11.11
			c0.48-2,0.79-4.02,0.32-6c-2.62-0.22-5.08-0.48-7.53-0.63c-6.94-0.43-13.88-0.83-20.82-1.21c-1.51-0.08-3.04-0.09-4.55-0.07
			c-3.75,0.06-7.5,0.21-11.25,0.21c-4.71,0-9.42,0-14.13-0.19c-5.58-0.23-11.15-0.7-16.72-1.02c-5.98-0.34-11.96-0.69-17.94-0.9
			c-1.38-0.05-2.77,0.47-4.02,0.7c-0.13,0.46-0.23,0.63-0.2,0.77c0.75,4.05,0.45,8.11,0.31,12.18c-0.17,5.11-0.29,10.22-0.3,15.34
			c-0.01,3.59,0.17,7.18,0.32,10.77c0.12,2.95,0.27,5.9,0.5,8.84c0.22,2.83,0.56,5.66,0.86,8.73c0.9-0.51,1.61-0.9,2.44-1.36
			c-0.34,1.57-2.77,1.72-2.14,3.85c2.14-1.38,4.16-2.69,6.17-3.99c-1.35,1.53-2.89,2.77-4.53,3.86c-1.67,1.11-2.03,2.52-1.35,4.55
			c0.73,0.02,1.5,0.08,2.28,0.07c1.2-0.01,2.4-0.13,3.59-0.08c3.91,0.16,7.81,0.45,11.72,0.55c7.9,0.21,15.8,0.65,23.7-0.04
			c2.38-0.21,4.79-0.15,7.18-0.12c0.81,0.01,1.81-0.16,2.33,1.06c-0.46,0.13-0.88,0.33-1.3,0.36c-0.88,0.06-1.76,0.01-2.64,0.03
			c-6.15,0.13-12.3,0.41-18.45,0.37c-5.51-0.03-11.02-0.38-16.53-0.63c-2.45-0.11-4.89-0.08-7.59,0.16
			c0.15,2.15,0.24,4.05,0.45,5.93c0.11,0.93,0.77,1.1,1.71,0.67C69.17,172.61,68.98,171.09,68.78,169.58z M165.71,185.84
			c3.01,3.3,5.42,4.83,8.91,5.2c3.23,0.34,6.49-1.05,6.55-4.89c0.05-2.94-0.09-5.89-1.17-8.7c-0.08-0.21-0.25-0.39-0.49-0.75
			c-1.43,0.16-2.95,0.2-4.42,0.51c-3.04,0.64-6.22,1.03-9.03,2.24c-4.47,1.92-4,3.21-1.38,5.5c0.11,0.09,0.29,0.09,0.51,0.15
			c1.6-0.76,2.75-2.43,4.75-2.59C168.57,183.6,167.2,184.67,165.71,185.84z M170.35,176.52c-0.85-2.41-0.85-2.37-2.76-2.41
			c-0.87-0.02-1.74-0.16-2.59-0.38c-1.75-0.44-3.48-0.95-5.25-1.45c0.64,2.74,1.25,5.37,1.99,8.5
			C164.14,177.96,167.35,177.44,170.35,176.52z M177.48,170.9c-2.21,1.1-4.19,2.09-6.18,3.08c0.35,2.26,0.4,2.3,2.42,2.06
			c1.27-0.15,2.54-0.25,3.81-0.45c0.59-0.09,1.15-0.36,1.78-0.56C178.96,173.38,178.98,171.79,177.48,170.9z M62.66,167.6
			c0.18,1.67,0.25,3,0.49,4.3c0.33,1.87,1.23,2.41,3.7,2.19c-0.23-2.16-0.46-4.3-0.7-6.6C64.92,167.53,64,167.56,62.66,167.6z
			 M144.86,172.99c0.28-0.02,0.56-0.04,0.84-0.06c-0.06-2.05-0.12-4.09-0.18-6.42c-0.57,0.29-1.12,0.41-1.14,0.6
			C144.13,169.11,144.23,171.09,144.86,172.99z M143.16,172.83c0.17-0.02,0.34-0.04,0.51-0.06c-0.2-1.88-0.4-3.77-0.59-5.65
			c-0.19,0.02-0.39,0.04-0.58,0.06C142.47,169.09,142.89,170.95,143.16,172.83z"/>
		<path d="M127.08,74c1.76-1.35,3.51-2.7,5.27-4.03c0.44-0.33,0.93-0.58,1.43-0.89c-0.03-0.38-0.15-0.72-0.06-0.99
			c0.36-1.08-1.53-1.05-1.03-2.35c0.31-0.81,0.02-1.87-0.07-2.8c-0.2-2.05-0.44-4.09-0.69-6.33c-2.5,0.85-4.51,0.02-6.35-1.36
			c-0.89-0.67-1.76-1.41-2.48-2.25c-3.4-3.94-6.53-8.05-8.66-12.86c-1.45-3.28-3.15-6.45-4.73-9.67c-0.28-0.57-0.62-1.16-0.69-1.77
			c-0.04-0.41,0.36-0.86,0.68-1.51c3.24,2.94,3.59,7.21,6.18,10.3c1.59-1.12,3.14-2.21,4.69-3.3l0.22,0.19
			c-0.33,0.32-0.66,0.64-1,0.95c-0.35,0.32-0.72,0.63-1.08,0.95c-0.67,0.57-1.34,1.14-1.99,1.72c-0.76,0.68-0.31,1.22,0.24,1.99
			c1.68-1.28,3.24-2.48,4.81-3.68l0.24,0.25c-1.54,1.44-3.07,2.89-4.72,4.44c0.55,0.8,0.97,1.42,1.45,2.11
			c1.53-0.88,2.9-1.66,4.26-2.44l0.2,0.26c-1.31,1.02-2.62,2.04-3.96,3.07c0.26,0.56,0.36,0.96,0.6,1.26
			c2.1,2.61,4.2,5.22,6.35,7.79c0.39,0.47,0.98,0.8,1.53,1.11c1.8,1.02,3.41,0.88,5.01-0.57c3.07-2.78,5.63-5.86,6.74-9.95
			c0.38-1.39,0.9-2.74,1.23-4.14c0.31-1.31,0.49-2.65,0.67-3.98c0.16-1.12-0.29-2.47,1.41-2.88c0.22-0.05,0.43-0.65,0.45-1.01
			c0.03-0.79-0.05-1.59-0.11-2.39c-0.03-0.39-0.3-0.87-0.16-1.16c1.41-2.87-0.1-5.45-1.01-7.94c-0.88-2.42-2.94-4.05-5.52-4.55
			c-2.49-0.48-5.04-0.61-7.57-0.87c-1.17-0.12-2.41,0.05-3.23-1.13c-0.57-0.83-1.47-0.52-2.21-0.39c-2.34,0.39-4.67,0.87-7.11,1.17
			c0.43-0.22,0.84-0.51,1.3-0.65c1.99-0.58,3.98-1.19,6-1.66c1.7-0.4,3.4-0.8,4.77,1.03c0.4,0.53,1.6,0.52,2.45,0.64
			c1.97,0.29,3.98,0.38,5.92,0.8c3.77,0.81,6.15,3.18,7.24,6.89c1.02,3.46,1.61,9.8,1.19,13.91c-1.42,0.04-1.61,1.01-1.93,2.3
			c-1.09,4.3-1.8,8.8-4.65,12.44c-1.33,1.69-2.73,3.34-4.26,4.84c-0.76,0.75-0.88,1.37-0.63,2.32c0.34,1.3,0.61,2.63,0.8,3.96
			c0.53,3.72,1.14,7.42,2.64,10.9c0.41,0.95,0.71,1.95,1.13,3.1c1.71,0.14,2.47,1.54,3.17,3c2.27,4.75,4.56,9.49,6.78,14.27
			c0.27,0.59,0.53,1.54,0.25,1.97c-0.74,1.13-0.23,1.96,0.22,2.9c0.45,0.94,0.9,1.87,1.29,2.83c0.12,0.3,0.03,0.68-0.17,1.08
			c-2.53-2.86-3.7-6.4-5.29-9.73c-1.61-3.37-3.46-6.63-5.23-9.99c-0.35,0.14-0.76,0.31-1.25,0.5c-0.7-1.28-1.23-2.47-1.48-3.95
			c-0.48-2.79-1.52-5.49-2.43-8.58c-1.38,0.92-2.4,1.64-3.47,2.3c-1.2,0.75-2.43,1.44-3.65,2.15L127.08,74z"/>
		<path d="M83.44,14.12c0.4,0.9,0.63,1.4,0.93,2.07c1-0.11,2.02-0.23,3.03-0.32c4.93-0.46,9.86-0.98,14.8-0.27
			c1.56,0.22,3.13,0.68,4.6,1.28c1.38,0.56,2.56,0.7,3.81-0.23c0.41-0.3,1-0.37,1.71-0.14c-0.74,0.4-1.49,0.8-2.31,1.25
			c0.18,0.5,0.35,0.99,0.59,1.66c-1.02-0.28-1.9-0.41-2.69-0.74c-4.92-2.1-10.08-2.31-15.31-1.95c-2.46,0.17-4.92,0.47-7.37,0.78
			c-1.21,0.15-2.37,0.27-3.27-0.76c-4.02,3.09-7.91,6.07-11.79,9.05c-0.69-0.54-0.43-1.1-0.23-1.74c0.35-1.14,0.67-2.3,0.82-3.48
			c0.13-1-0.39-1.73-1.49-1.77c-4.31-0.13-8.65-0.45-12.72,1.45c-0.72,0.33-1.41,0.71-2.28,1.16c0.32,0.41,0.62,0.79,1.02,1.29
			c-0.38,0.37-0.71,0.83-1.16,1.09c-3.34,1.87-4.59,5.19-5.92,8.45c-0.17,0.42-0.19,0.96-0.1,1.41c0.5,2.63,0.55,5.23-0.13,7.84
			c-0.09,0.36,0.02,0.78,0.05,1.34c1.91-0.32,3.1-1.96,4.99-2.06c-1.4,0.96-2.83,1.87-4.2,2.87c-1.37,1-1.39,1.29-0.61,3.33
			c1.21-0.78,2.41-1.54,3.6-2.3c-0.53,1.3-1.65,2-2.67,2.77c-1.07,0.81-1.37,1.71-1.14,3.1c0.82,4.98,4.04,7.61,8.54,9.02
			c2.17,0.68,3.92,0.11,4.81-1.93c1.46-3.36,2.77-6.8,3.83-10.3c0.99-3.27,1.57-6.67,2.3-10.02c0.55-2.49,1.05-5,1.59-7.49
			c0.08-0.38,0.19-0.84,0.45-1.08c0.3-0.28,0.81-0.49,1.2-0.45c0.26,0.02,0.66,0.52,0.67,0.82c0.04,0.79-0.01,1.6-0.18,2.37
			c-1.68,7.23-3.35,14.46-5.14,21.66c-0.34,1.36-1.16,2.62-1.87,3.86c-0.62,1.09-0.79,2.05-0.5,3.36c0.6,2.71,0.81,5.51,1.2,8.26
			c0.17,1.17,0.39,2.33,0.66,3.94c-1.22-0.83-1.42-1.81-1.57-2.73c-0.39-2.35-0.69-4.72-1.05-7.08c-0.12-0.76-0.31-1.51-0.47-2.3
			c-1.2,0.47-2.2,0.98-3.25,1.24c-2.24,0.54-4.27-0.32-6.21-1.28c-5.08-2.5-7.56-6.83-7.83-12.3c-0.24-4.95,0.23-9.91,1.44-14.74
			c1-4.03,2.68-7.69,6.41-10.25c-0.83-0.46-1.49-0.82-2.44-1.35c0.79-0.44,1.3-0.74,1.83-1.01c3.15-1.61,6.5-2.65,9.95-3.4
			c1.17-0.25,2.32-0.5,3.54,0.22c0.61,0.36,1.56,0.13,2.36,0.16c0.64,0.02,1.29-0.05,1.91,0.05c1.37,0.22,1.75,0.69,1.71,2.1
			c-0.03,1.01-0.16,2.02-0.27,3.27c2.17-1.6,4.1-2.98,5.98-4.42C79.5,17.3,81.33,15.8,83.44,14.12z"/>
		<path d="M40.68,110.72c-1.94,1.04-3.92,2.25-6.02,3.21c-5.98,2.72-12.07,2.64-18.2,0.46c-3.74-1.33-7.26-2.97-9.7-6.28
			c-0.75-1.02-1.52-2.05-2.07-3.18c-0.73-1.5-1.25-3.11-1.88-4.66C0.2,93.79,2.61,85.43,8.2,81.68c2.31-1.55,4.38-3.46,7.09-4.34
			c3.33-1.07,6.65-2.07,10.18-2.32c4.56-0.33,8.69,0.95,12.57,3.1c1.43,0.79,2.84,1.88,3.79,3.18c1.79,2.43,3.54,4.98,4.77,7.73
			c1.61,3.59,2.28,7.46,1.42,11.43c-0.12,0.55-0.23,1.09-0.36,1.64c-0.39,1.58-0.1,2.86,1.06,4.15c1.91,2.12,2.76,4.84,3.49,7.54
			c0.35,1.28-0.3,2.04-1.46,1.75C47.1,114.65,43.58,113.44,40.68,110.72z M50.86,114.06c-0.66-3.29-1.86-6.07-3.85-7.96
			c-1.27-1.21-1.28-2.28-0.84-3.82c0.52-1.82,0.91-3.75,0.89-5.64c-0.07-6.4-3.66-11.25-7.43-15.98c-0.19-0.24-0.48-0.43-0.75-0.6
			c-4.45-2.81-9.25-4.36-14.57-3.69c-5.89,0.75-11.35,2.6-15.98,6.5c-2.67,2.25-4.47,4.87-4.81,8.49
			c-0.33,3.51-0.06,6.83,1.35,10.08c0.89,2.05,1.77,4.06,3.22,5.84c2.78,3.42,6.56,4.97,10.58,6.2c5.84,1.8,11.38,0.87,16.71-1.84
			c2.18-1.11,4.29-2.36,6.62-3.65c-0.13,0.78-0.23,1.43-0.32,2C44.57,111.84,47.24,113.72,50.86,114.06z"/>
		<path d="M83.11,70.06c1.26,0.46,2.91,0.02,4.05,1.65c0.89,1.27,1.07,2.36,0.73,3.76c-0.5,2.01-1.91,3.44-3.05,5.04
			c-0.28,0.39-0.63,0.72-0.92,1.1c-1.69,2.19-3.77,2.19-5.38-0.07c-0.6-0.84-1.12-1.75-1.57-2.68c-0.65-1.36-1.24-2.76-1.79-4.17
			c-0.76-1.92-0.57-2.36,1.16-3.56c1.5-1.04,3.11-1.54,4.95-1.23C81.84,69.99,82.4,70,83.11,70.06z M76.96,74.34
			c0.11,0.02,0.23,0.04,0.34,0.06c0.09-0.45,0.19-0.9,0.28-1.36c-0.14-0.03-0.28-0.05-0.42-0.08
			C77.09,73.43,77.03,73.88,76.96,74.34z"/>
		<path d="M175.76,153.53c-1.18-0.95-1.1-2.24-1.18-3.46c-0.24-3.67-0.59-7.31-1.4-10.91c-0.46-2.03-1.32-3.73-2.75-5.2
			c-0.47-0.48-0.83-1.07-1.33-1.73c0.79-0.55,1.35-0.95,2.23-1.56c-2.62-0.74-5.09-1.1-7.25-2.13c-2.09-1-4.54-1.31-6.47-2.79
			c1.66-1.96,1.8-2.08,3.73-1.36c3.06,1.14,6.07,2.42,9.11,3.61c1.84,0.72,3.7,1.4,5.56,2.09c0.02,2.04-2.13,1.96-2.88,3.06
			C175.92,139.76,177.42,146.42,175.76,153.53z"/>
		<path d="M106.23,49.57c-0.63,1.26-1.1,2.64-1.94,3.75c-1.21,1.62-3.36,1.27-4.26-0.53c-1.29-2.6,0.26-5.91,2.97-6.32
			C105.25,46.13,106.3,47.18,106.23,49.57z"/>
		<path d="M84.07,45.17c-0.94-3.1-0.34-6.14-0.8-9.06c-0.46-2.9-0.94-5.79-1.43-8.77c0.45-0.18,0.87-0.36,1.53-0.63
			c-0.56-2.79-1.14-5.64-1.82-9.02c0.68,0.64,1.17,0.88,1.24,1.2c0.65,3.04,1.25,6.09,1.83,9.15c0.07,0.38,0.11,0.9-0.09,1.17
			c-1.01,1.33-0.43,2.72-0.34,4.13c0.23,3.74,0.29,7.49,0.4,11.24C84.6,44.69,84.41,44.79,84.07,45.17z"/>
		<path d="M75.9,50c-0.46,1.24-0.76,2.23-1.19,3.16c-0.4,0.86-1.19,1.28-2.14,1.22c-0.93-0.06-1.61-0.57-2.02-1.44
			c-0.88-1.85,0.23-5.51,2.02-6.57c0.89-0.53,1.75-0.43,2.23,0.51C75.31,47.89,75.58,49.05,75.9,50z"/>
		<path d="M100.57,26.16c-0.04,0.42,0.01,0.87-0.13,1.25c-0.18,0.52-0.5,0.99-0.76,1.49c-2.82,5.58-4.37,11.59-6.06,17.56
			c-0.61,2.15-0.72,4.22,0.26,6.29c0.16,0.33,0.15,0.74,0.28,1.5c-1.19-0.76-1.86-1.46-1.91-2.53c-0.07-1.42-0.28-2.91,0.04-4.26
			c1.42-6.13,3.08-12.19,6-17.82c0.61-1.18,1.08-2.43,1.61-3.65C100.13,26.05,100.35,26.11,100.57,26.16z"/>
		<path d="M118.03,81.85c-1.71,3.02-7.34,5.98-11.36,6.07c-0.41,0.66-0.88,1.39-1.32,2.13c-0.42,0.71-0.56,1.65-1.84,1.89
			c0.13-0.61,0.14-1.08,0.33-1.46c0.53-1.07,1.16-2.09,1.71-3.15c0.48-0.91,1.12-1.35,2.13-0.88c0.93,0.44,1.72,0.03,2.49-0.39
			c2.23-1.22,4.44-2.48,6.67-3.72C117.15,82.18,117.49,82.07,118.03,81.85z"/>
		<path d="M70.95,41.44c1.91-1.02,3.52-2.13,5.95-1.2c-1.64,1.22-3.32,1.55-4.94,1.99C71.76,42.28,71.42,41.82,70.95,41.44z"/>
		<path d="M86.03,65.58c-0.15,0.34-0.21,0.6-0.28,0.6c-2.31,0.17-4.61,0.31-7.01,0.46C79.75,65.07,81.68,64.81,86.03,65.58z"/>
		<path d="M108.91,42.29c-1.66-0.92-3.84-0.26-5.39-1.75C105.53,39.23,107.93,40.02,108.91,42.29z"/>
		<path d="M124.51,94.11c0.7-1.24,1.84-1.29,3.19-1.2c0.32,0.87,0.64,1.73,0.98,2.65c-1.6,0.25-1.2-1.18-1.81-2.03
			c-0.77,0.17-1.59,0.35-2.41,0.53L124.51,94.11z"/>
		<path d="M103.83,77.81c0.73-2.02,2.61-3.01,3.85-4.56C107.23,74.69,106.13,76.03,103.83,77.81z"/>
		<path d="M124.47,94.05c-0.74,0.51-1.49,1.03-2.49,1.72c-0.01-1.69,1.08-2.34,1.61-3.33c-0.02,0.8-0.19,1.58,0.92,1.66
			L124.47,94.05z"/>
		<path d="M123.28,90.54c0.76-0.62,1.52-1.24,2.4-1.95c0.32,1.64,0.32,1.62-0.64,1.67c-0.6,0.04-1.2,0.15-1.79,0.23L123.28,90.54z"
			/>
		<path d="M123.25,90.49c-0.82,0.74-1.65,1.49-2.47,2.23c0.68-1.58,0.68-1.58,2.51-2.19L123.25,90.49z"/>
		<path d="M125,71.54c0.76-0.59,1.52-1.18,2.28-1.76c0.1,0.13,0.2,0.25,0.31,0.38c-0.74,0.63-1.48,1.26-2.22,1.89
			C125.24,71.88,125.12,71.71,125,71.54z"/>
		<path d="M131,67.74c-0.67,0.47-1.33,0.94-1.99,1.41c-0.08-0.11-0.16-0.21-0.24-0.32c0.67-0.51,1.34-1.01,2.01-1.52
			C130.85,67.45,130.93,67.59,131,67.74z"/>
		<path d="M90.28,80.58c-0.61,0.14-0.97,0.31-1.28,0.25c-0.19-0.04-0.31-0.42-0.47-0.65c0.32-0.14,0.63-0.38,0.95-0.38
			C89.68,79.8,89.87,80.16,90.28,80.58z"/>
		<path d="M71.44,82.1c0.54-0.19,1.08-0.38,2.02-0.7c-0.47,1.32-1.08,1.38-1.76,1.31C71.61,82.51,71.53,82.31,71.44,82.1z"/>
		<path d="M78.8,97.86c0.7-0.55,1.39-1.11,2.08-1.66c0.09,0.13,0.18,0.26,0.27,0.39c-0.71,0.54-1.19,1.46-2.39,1.22L78.8,97.86z"/>
		<path d="M90.52,83.84c0.35-0.22,0.59-0.47,0.69-0.42c0.23,0.11,0.39,0.36,0.57,0.55c-0.17,0.14-0.36,0.42-0.49,0.39
			C91.06,84.31,90.86,84.08,90.52,83.84z"/>
		<path d="M127.04,73.95c-0.27,0.4-0.53,0.79-0.8,1.19c-0.25-0.88,0.16-1.15,0.84-1.14L127.04,73.95z"/>
		<path d="M74.65,82.88c0.12,0.42,0.27,0.65,0.21,0.79c-0.08,0.18-0.33,0.38-0.51,0.39c-0.13,0-0.43-0.37-0.39-0.44
			C74.08,83.38,74.32,83.21,74.65,82.88z"/>
		<path d="M93.71,80.26c-0.23-0.33-0.45-0.54-0.5-0.79c-0.03-0.12,0.26-0.31,0.41-0.47c0.19,0.19,0.44,0.36,0.55,0.59
			C94.21,79.7,93.95,79.93,93.71,80.26z"/>
		<path class="st2" d="M109.34,140.24c-0.47,1.94-0.77,3.84-1.41,5.63c-1.27,3.56-4.31,3.81-6.59,2.82
			c-2.8-1.21-5.67-2.16-8.54-3.16c-3.58-1.25-4.46-4.47-1.91-7.3c3.17-3.51,7.14-5.54,11.87-6.06c0.87-0.1,1.74-0.24,2.61-0.29
			c1.94-0.09,3.45,0.99,3.72,2.93C109.35,136.61,109.28,138.45,109.34,140.24z"/>
		<path class="st2" d="M103.05,122.12c-0.43,1.48-0.77,2.93-1.29,4.31c-0.41,1.08-1.37,1.47-2.27,1.19c-0.98-0.31-1.4-1.02-1.35-2.2
			c0.06-1.58,1.05-2.61,2.13-3.55C101.01,121.2,101.85,121.32,103.05,122.12z"/>
		<path class="st2" d="M115.41,124.61c1.12,0.07,1.64,0.78,1.43,1.95c-0.23,1.29-2.54,3.08-3.87,3c-1.01-0.06-1.67-0.97-1.46-2
			C111.81,126.12,113.92,124.53,115.41,124.61z"/>
		<path class="st2" d="M118.48,143.06c-1.58-0.09-2.12-0.98-1.43-2.38c0.61-1.23,1.71-1.88,2.95-2.19c1.52-0.38,2.43,0.72,1.97,2.23
			C121.55,142.09,119.98,143.14,118.48,143.06z"/>
		<path d="M66.42,155.92c1.37-0.94,2.74-1.89,4.11-2.83c0.1,0.14,0.2,0.29,0.3,0.43c-1.36,0.95-2.71,1.89-4.07,2.84
			C66.65,156.21,66.54,156.07,66.42,155.92z"/>
		<path class="st2" d="M39.37,104.28c-1.1,0.39-2.1,0.39-2.46,1.55c-0.12,0.38-1.03,0.75-1.57,0.74
			c-5.82-0.04-11.67,0.08-17.41-1.17c-1.48-0.32-2.96-0.64-4.43-0.99c-1.32-0.31-2.02-1.08-2.07-2.52
			c-0.09-2.79-0.32-5.57-0.46-8.36c-0.06-1.16,0.28-1.92,1.42-2.68c3.43-2.3,6.67-4.88,9.99-7.35c0.45-0.33,0.95-0.59,1.42-0.9
			c0.87-0.58,1.62-0.47,2.35,0.27c0.62,0.62,1.36,1.12,1.95,1.76c2.42,2.61,5.43,4.42,8.44,6.21c1.27,0.75,1.86,1.59,1.7,3.07
			c-0.18,1.65-0.25,3.31-0.31,4.97C37.85,100.77,37.67,102.69,39.37,104.28z M15.5,102.91c0.46,0.31,0.63,0.5,0.84,0.55
			c5.87,1.32,11.84,1.57,17.82,1.65c0.31,0,0.67-0.04,0.92-0.19c0.31-0.19,0.7-0.5,0.73-0.79c0.03-0.3-0.25-0.78-0.54-0.94
			c-2.49-1.42-5-2.81-7.54-4.14c-1.02-0.53-2.11-0.61-3.23-0.11C21.61,100.25,18.7,101.5,15.5,102.91z M24.77,83.85
			c-2.95,1.9-6.26,3.27-8.51,6.47c3.1,1.28,6.12,0.75,9,1.2c3.07,0.48,7.41,0.29,8.59-0.26C30.88,88.83,27.93,86.43,24.77,83.85z
			 M23.99,97.79c-4.13-1.95-7.73-3.64-11.4-5.37c-0.72,2.83-0.05,5.44,0.06,8.05c0.03,0.74,0.58,1.15,1.32,1.05
			c0.86-0.11,1.76-0.2,2.56-0.52C18.88,100.06,21.18,99.02,23.99,97.79z M36.32,93.62c-2.9,0.83-5.24,2.38-8.05,3.68
			c2.77,1.52,5.17,2.84,7.62,4.19C36.63,98.59,36.8,95.84,36.32,93.62z M32.11,93.38c-4.79-0.22-9.31-0.44-13.84-0.65
			c1.18,1.47,2.8,1.93,4.26,2.65c2.4,1.19,4.74,1.81,7.08-0.21C30.28,94.59,31.44,94.66,32.11,93.38z"/>
		<circle class="st0" cx="72.45" cy="49.19" r="0.9"/>
		<circle class="st0" cx="101.9" cy="49.19" r="0.9"/>
		<path class="st0" d="M78.52,73.19c0.72-0.19,1.58-0.28,2.45-0.28c0.98,0,1.99,0.11,2.85,0.28c0.27,0.05,0.53-0.12,0.59-0.39
			c0.05-0.27-0.12-0.53-0.39-0.59c-0.92-0.18-1.99-0.3-3.04-0.3c-0.94,0-1.87,0.09-2.71,0.31c-0.27,0.07-0.43,0.35-0.35,0.61
			C77.98,73.1,78.26,73.26,78.52,73.19L78.52,73.19z"/>
		<path d="M82.23,50.01c-1.53,2.65-2.95,5.33-4.6,7.87c-1.59,2.46-3.95,4.16-6.49,5.55c-1.14,0.62-2.45,0.66-3.72,0.16
			c-4.26-1.68-7.68-4.25-9.14-8.82c-0.53-1.66-1.15-3.32-1.5-5.02c-1.02-4.99,1.77-8.2,5.15-10.42c2.76-1.81,5.88-2.98,9.1-3.53
			c3.21-0.56,6.51-0.84,9.76-0.81c6.16,0.05,12.29-0.43,18.43-0.51c4.84-0.06,9.78,0.32,14.45,1.83c3.31,1.07,5.26,3.65,5.71,7.07
			c0.29,2.2,0.18,4.46-0.63,6.63c-1.04,2.79-2.3,5.41-4.35,7.64c-1.47,1.6-3.2,2.64-5.27,3.11c-1.63,0.37-3.3,0.63-4.95,0.88
			c-0.54,0.08-1.14,0.07-1.66-0.08c-3.18-0.9-5.87-2.55-7.51-5.5c-0.89-1.6-1.56-3.32-2.23-5.02c-0.33-0.84-0.73-1.31-1.67-1.42
			c-2.15-0.24-4.26-0.57-6.4,0.15C83.93,50.01,83.03,49.93,82.23,50.01z M61.13,55.8c1.55,2.69,3.47,4.59,6.22,5.6
			c1.21,0.44,2.35,0.36,3.42-0.38c2.38-1.64,4.72-3.29,5.83-6.15c0.25-0.65,0.75-1.21,1.14-1.8c1.66-2.51,3.75-4.8,4.07-7.99
			c0.12-1.19,0.2-2.39,0.34-3.58c0.05-0.42,0.23-0.82,0.35-1.23c0.66,0.37,1.01,0.8,1.02,1.24c0.01,1.11-0.1,2.23-0.22,3.34
			c-0.12,1.07-0.3,2.14-0.47,3.28c3.15-0.16,6.03-0.31,8.96-0.46c-0.67-4.03,0.73-7.17,3.48-9.84c0.41-0.4,0.71-0.92,1.09-1.43
			c-0.38-0.15-0.53-0.26-0.68-0.26c-8.22,0.2-16.42,0.68-24.56,1.8c-4.55,0.63-8.25,2.86-10.92,6.67c-1.65,2.35-1.61,5.86,0.13,7.98
			c1-0.69,2.02-1.38,3.03-2.07c-0.56,1.59-2.56,1.99-3.03,4.25c1.6-0.96,2.74-1.65,3.89-2.34c0.06,0.1,0.13,0.2,0.19,0.3
			C63.34,53.74,62.25,54.75,61.13,55.8z M96.35,53.73c2.32,4.96,5.96,6.9,10.94,6.06c0.39-0.07,0.78-0.17,1.17-0.23
			c2.24-0.37,4.09-1.48,5.35-3.32c1.17-1.7,2.23-3.5,3.07-5.38c0.92-2.05,1.3-4.29,1.12-6.56c-0.29-3.59-2.82-6.37-6.75-7.07
			c-3.44-0.61-6.95-0.87-10.43-1.28c-1.04-0.12-1.82,0.14-2.31,1.23c-0.28,0.62-0.92,1.09-1.45,1.57c-2.78,2.46-3.58,5.57-2.97,9.1
			c0.16,0.94,0.04,2.08,1.02,2.72c1.71-0.59,2.77-2.28,5.01-2.54c-1.7,1.69-3.97,2.16-4.67,4.6c1.43-0.29,2.06-1.77,3.55-1.56
			C98.05,52.04,97.22,52.86,96.35,53.73z"/>
		<path class="st3" d="M171.6,193c-5.61,2.03-11.58,3.08-17.55,3.08c-1.4,0-2.8-0.06-4.19-0.17c-2.03-0.16-4.15-0.55-5.86-1.39
			c-1.71-0.85-2.99-2.09-3.56-4.11c-0.11-0.41-0.17-0.81-0.17-1.19c0-0.95,0.33-1.77,0.88-2.37c0.56-0.59,1.34-0.97,2.37-0.98
			l0.03,0c0.55,0,1.01,0.14,1.42,0.39c0.61,0.37,1.12,1,1.47,1.78c0.35,0.77,0.54,1.68,0.54,2.53l0,0.01c0,2.82-1.36,5.37-3.48,7.37
			c-2.12,1.99-5,3.39-7.88,3.86c-1.13,0.19-2.27,0.27-3.41,0.27c-4.75,0-9.59-1.45-14.34-2.89c-16.72-5.05-33.88-9.68-51.46-9.78
			c-0.12,0-0.24,0-0.35,0c-2.29,0-4.75,0.13-6.95,1.28c-1.6,0.85-2.93,2.34-3.44,4.1c-0.1,0.35-0.15,0.7-0.15,1.04
			c0,1.09,0.51,2.01,1.24,2.62c0.73,0.62,1.67,0.96,2.62,0.96c0.62,0,1.26-0.15,1.84-0.49c0.57-0.34,1.07-0.86,1.4-1.55
			c0.8-1.65,1.18-3.47,1.18-5.29c0-3.9-1.74-7.85-5.02-10.12c-1.15-0.79-2.36-1.37-3.26-2.11c-0.45-0.37-0.82-0.77-1.09-1.25
			c-0.27-0.48-0.46-1.04-0.51-1.78c-0.01-0.12-0.01-0.23-0.01-0.35c0-0.9,0.25-1.82,0.69-2.65c1.15-2.17,3.34-3.61,5.6-5.01
			c0.35-0.22,0.46-0.68,0.24-1.03c-0.22-0.35-0.68-0.46-1.03-0.24c-2.26,1.41-4.72,2.96-6.13,5.58c-0.55,1.02-0.87,2.17-0.87,3.35
			c0,0.15,0.01,0.31,0.02,0.46c0.07,0.94,0.32,1.74,0.71,2.42c0.58,1.01,1.43,1.71,2.29,2.28c0.86,0.57,1.76,1.04,2.51,1.56
			c2.81,1.93,4.38,5.43,4.37,8.89c0,1.61-0.34,3.21-1.03,4.64c-0.22,0.44-0.5,0.73-0.82,0.92c-0.32,0.19-0.69,0.28-1.07,0.28
			c-0.59,0-1.21-0.23-1.65-0.6c-0.44-0.38-0.71-0.87-0.71-1.48c0-0.19,0.03-0.4,0.09-0.63c0.36-1.29,1.43-2.52,2.69-3.18
			c1.8-0.96,4.01-1.11,6.25-1.1c0.12,0,0.23,0,0.35,0c17.32,0.09,34.34,4.67,51.03,9.72c4.75,1.43,9.72,2.95,14.77,2.95
			c1.22,0,2.44-0.09,3.66-0.29c3.18-0.53,6.3-2.04,8.66-4.25c2.35-2.21,3.96-5.14,3.96-8.46l0-0.01c-0.01-1.41-0.39-2.9-1.19-4.09
			c-0.4-0.6-0.91-1.12-1.55-1.5c-0.63-0.38-1.38-0.6-2.19-0.6l-0.04,0c-1.4,0.01-2.62,0.56-3.45,1.45c-0.83,0.89-1.29,2.1-1.29,3.39
			c0,0.52,0.07,1.05,0.22,1.59c0.68,2.48,2.37,4.09,4.35,5.05c1.98,0.97,4.27,1.36,6.4,1.54c1.43,0.12,2.87,0.18,4.31,0.18
			c6.14,0,12.29-1.07,18.07-3.17c0.39-0.14,0.59-0.57,0.45-0.96C172.42,193.06,171.99,192.86,171.6,193L171.6,193z"/>
		<path d="M81.7,86.29c-0.74-0.45-1.43-1.06-2.23-1.34c-2.98-1.02-6-2.01-9.25-0.6c-2.81-2.19-4.52-5.27-5.85-8.44
			c-1.85-4.42-7.28-19.95-8.83-24.49c-0.82-0.29-1.62-0.62-2.4-1.03c0.05,0.19,4.12,11.32,4.19,11.52c1.08,2.99,2.08,6.02,3.27,8.97
			c2.13,5.27,3.95,10.69,8.33,14.76c1.44,1.34,2.87,3.01,2.38,5.52c-0.15,0.76,0.77,1.95,1.5,2.61c2,1.81,4.57,2.5,7.16,2.88
			c2.1,0.3,3.7-0.6,4.17-2.34C85.11,90.68,85.26,88.44,81.7,86.29z"/>
		<path d="M141.11,40.32c-2.13-2.1-4.74-2.45-8.02-1.07c-0.8,0.34-1.6,0.68-2.75,1.18c0.08-0.59,0.08-0.87,0.17-1.14
			c1.62-5.11,0.92-10.28,0.85-15.42c-0.03-2.22-1.21-4.43-1.79-6.66c-0.42-1.63-1.66-2.99-2.97-4.36
			c-2.55-2.67-6.37-4.28-10.74-5.41c-2.61-0.67-5.28-1.24-7.96-1.77c-6.42-1.28-12.99-2.14-19.64-1.13
			c-6.14,0.94-12.14,2.24-17.3,4.76c-1.17,0.57-2.34,1.16-3.62,1.62c-2.68,0.96-4.88,2.25-6.75,3.74l-0.07,0.09l-0.36,0.57
			c-0.29,0.47-0.56,0.95-0.82,1.43c-0.53,0.99-1.02,1.99-1.53,2.98c-0.61,1.2-1.26,2.39-2,3.55c-0.29,2.3-0.27,4.58-0.08,6.87
			c0.1,1.23,0.38,2.45,0.48,3.68c0.22,2.52,1.28,5.02,0.45,7.52c-0.99-0.2-1.99-0.39-2.99-0.59l-0.25,0.06
			c-1.1,0.2-2.24,0.32-3.34,0.52c-0.2,0.04-0.41,0.08-0.61,0.12l-0.06,0.01l-0.15,0.07c-0.49,0.22-0.63,0.28-1.05,0.53
			c-1.79,1.08-3.22,2.08-4.13,3.57c-0.06,0.09-0.09,0.19-0.15,0.29c-0.35,0.84-0.68,1.72-0.98,2.63c0.03,0.21,0.05,0.43,0.1,0.64
			c0.27,1.14,1.09,2.22,1.66,3.32c0.95,1.87,2.23,3.47,5.46,3.95c0.46-0.19,0.99-0.3,1.53-0.28c0.57,0.02,1.15,0.02,1.72,0.01
			l-0.03-0.08c0.51-0.25,1.21-0.5,1.74-0.86c1.23-0.84,2.74-1.62,3.44-2.63c0.82-1.18,0.9-2.57,1.28-3.87
			c0.41-1.38,0.08-2.73-0.2-4.11c-0.44-2.16-0.49-4.35-0.71-6.52c-0.12-1.16-0.12-2.33-0.41-3.48c-0.87-3.46-1.44-6.95-0.9-10.45
			c0.63-4.11,3.03-7.8,7.8-10.63c7.59-4.49,16.47-7.34,26.75-8.22c3.09-0.27,6.15,0.03,8.96,0.77c1.36,0.36,2.68,0.66,4.1,0.79
			c8.13,0.75,14.47,3.17,19.13,7.7c3.09,3.01,3.99,6.27,4.56,9.66c0.24,1.42,0.1,2.9-0.18,4.33c-0.42,2.15-1.23,4.26-1.66,6.41
			c-0.3,1.51-0.84,3.16-0.2,4.54c1.22,2.61,0.58,5.21,0.65,7.79c0.06,2.14,1.16,3.96,2.42,5.81c0.73,1.07,2.17,1.49,3.87,1.37
			c2.15-0.15,4.26-0.53,5.78-1.58C144.09,49.85,144.75,43.91,141.11,40.32z"/>
		<path class="st0" d="M46.36,46.84c0.48,2.51,2.25,4.7,4.59,5.71c0.25,0.11,0.55-0.01,0.66-0.26c0.11-0.25-0.01-0.55-0.26-0.66
			c-2.03-0.86-3.59-2.81-4-4.97c-0.05-0.27-0.31-0.45-0.58-0.4C46.49,46.31,46.31,46.57,46.36,46.84L46.36,46.84z"/>
		<path class="st0" d="M138.46,42.27c0.68,1.21,1.04,2.61,1.04,4c0,0.84-0.13,1.67-0.38,2.46c-0.08,0.26,0.06,0.54,0.32,0.63
			c0.26,0.08,0.54-0.06,0.63-0.32c0.29-0.9,0.43-1.83,0.43-2.77c0-1.56-0.39-3.13-1.17-4.49c-0.14-0.24-0.44-0.33-0.68-0.19
			C138.4,41.72,138.32,42.03,138.46,42.27L138.46,42.27z"/>
		<path class="st0" d="M77.42,86.77c2.14,0.43,4.09,1.88,5.11,3.82c0.13,0.24,0.43,0.34,0.68,0.21c0.24-0.13,0.34-0.43,0.21-0.68
			c-1.17-2.21-3.34-3.83-5.79-4.33c-0.27-0.05-0.53,0.12-0.59,0.39C76.97,86.45,77.15,86.72,77.42,86.77L77.42,86.77z"/>
	</g>
</g>
<g id="Layer_4">
</g>
<g id="Layer_5">
</g>
<g id="Layer_6">
</g>
<g id="Layer_7">
</g>
<g id="Layer_8">
</g>
<g id="Layer_9">
</g>
<g id="Layer_10">
</g>
<g id="Layer_11">
</g>
<g id="Layer_12">
</g>
<g id="Layer_13">
</g>
<g id="Layer_14">
</g>
</svg>
