<svg width="158" height="305" viewBox="0 0 158 305" fill="none" xmlns="http://www.w3.org/2000/svg">
<path d="M21.6237 38.2582C19.248 35.8825 16.8724 33.2909 16.0085 30.2673C15.3606 27.8917 15.3606 25.0841 16.0085 22.7084C18.8161 9.53432 31.9902 10.6142 49.0517 1.54348C58.1224 -3.20783 65.4654 4.56704 75.6159 4.1351C82.7429 3.70316 89.4379 4.1351 96.3489 2.83929C102.396 1.75945 108.443 2.19138 114.49 2.83929C124.641 3.91913 144.078 6.51076 152.285 12.5579C160.492 18.605 155.74 28.9715 150.773 37.6103C147.533 43.4414 141.27 49.2726 135.223 52.5121C131.12 54.4558 130.688 53.376 127.664 56.3995C121.833 62.4467 119.889 73.677 118.81 82.0998C117.73 89.4428 117.298 95.0579 116.218 102.617C115.354 108.88 120.321 114.063 121.185 120.326C122.265 127.669 126.369 134.148 128.312 141.059C131.12 150.778 133.711 158.121 135.223 168.703C136.951 179.934 130.904 194.188 134.143 205.202C135.223 209.305 137.383 213.409 138.463 217.512C141.702 230.902 133.495 244.076 132.632 257.898C132.2 265.457 134.143 272.8 134.575 280.359C134.791 287.918 133.064 296.125 127.016 300.876C122.265 304.332 116.002 304.98 110.171 304.116C103.692 303.036 97.6447 300.444 91.3816 299.58C87.9261 299.148 84.2546 299.148 80.5832 299.364C72.3763 299.58 64.1695 299.796 56.1787 300.012C53.1551 300.012 50.1316 300.228 47.7559 301.74C46.2441 302.604 44.9483 303.9 43.4365 304.548C40.197 305.843 36.7415 304.116 33.718 302.388C25.7271 298.069 16.8724 292.453 15.1446 283.599C13.2009 274.312 19.68 265.673 21.8397 256.387C24.6473 244.508 20.1119 231.55 23.9994 220.104C25.5111 215.784 28.1028 211.897 28.5347 207.362C28.9666 202.178 26.159 197.211 24.8632 192.028C21.6237 178.206 29.3986 164.6 35.6617 151.858C45.1643 132.421 48.4038 104.129 46.0282 82.3158C45.1643 75.1888 45.1643 67.8459 43.6525 63.3105C41.9248 58.5592 38.0373 59.6391 34.5818 56.1836C30.4784 51.8642 27.0229 43.6574 21.6237 38.2582Z" fill="white"/>
<path d="M78.6396 129.396C70.4328 132.42 61.794 134.58 54.883 139.979C41.7089 150.129 38.9013 168.703 29.1827 182.309C27.455 184.684 23.7835 187.06 22.0558 184.684C21.6238 184.037 21.1919 183.173 21.1919 182.525C21.8398 168.919 26.8071 155.097 31.1265 143.002C33.9341 134.796 36.5257 117.734 44.3005 112.767C50.5636 108.879 55.7469 116.654 62.4419 117.95C67.6252 118.814 75.616 118.598 80.1514 120.974C85.3346 123.565 84.2548 127.237 78.6396 129.396Z" fill="#BCBCBB"/>
<path d="M49.4839 52.0789C53.5873 48.6234 53.3714 42.3603 55.0991 37.177C57.6907 29.1862 64.8177 23.571 70.001 17.0919C79.0717 5.64559 60.4983 1.97412 55.3151 11.6927C52.5075 17.3079 50.9957 24.0029 50.1318 30.0501C49.4839 33.7215 49.268 37.393 49.052 41.2804C49.052 42.5762 50.1318 51.431 49.4839 52.0789Z" fill="#BCBCBB"/>
<path d="M117.298 28.5377C117.298 28.9696 117.298 29.1856 117.082 29.4016C116.65 29.8335 116.218 29.6175 115.786 29.4016C113.843 28.7537 112.547 26.8099 111.683 25.0822C110.819 23.1385 110.387 21.1947 109.523 19.251C107.58 14.7157 102.828 10.6123 101.532 5.86097C100.453 1.97353 103.044 0.245779 106.284 2.62143C114.275 8.45259 117.73 19.683 117.298 28.5377Z" fill="#BCBCBB"/>
<path d="M63.7379 288.998C63.9539 289.646 63.9539 290.51 64.6018 290.941C65.0337 291.373 65.6816 291.805 66.3295 292.021C70.6489 293.533 75.4002 293.965 79.9356 293.749C80.5835 293.749 81.4474 293.533 82.0953 293.101C82.7432 292.669 82.9591 292.021 83.1751 291.157C84.039 287.054 82.3112 282.951 79.7196 279.711C77.128 276.472 73.6725 273.88 70.8649 271.072C60.9303 260.706 60.4984 248.396 57.0429 235.438C52.5075 238.461 57.6908 254.875 58.5547 259.626C60.0665 269.345 62.0102 279.279 63.7379 288.998Z" fill="#BCBCBB"/>
<path d="M37.1737 245.372C38.9015 254.658 39.1174 264.593 43.2208 273.232C44.0847 274.743 44.9486 276.471 44.9486 278.199C44.9486 280.79 43.4368 282.95 41.7091 284.894C39.5494 287.701 37.1737 290.509 35.014 293.317C33.7182 295.044 31.9905 296.988 29.6148 296.772C27.0232 296.556 25.5114 293.533 25.7274 290.941C25.9433 288.349 27.4551 285.974 28.535 283.598C32.6384 273.448 28.103 262.001 25.9433 251.203C25.0795 246.235 22.0559 220.319 28.103 219.023C33.0703 226.366 35.6619 236.949 37.1737 245.372Z" fill="#BCBCBB"/>
<path d="M104.34 254.657C103.908 257.249 103.476 259.84 103.044 262.432C101.964 269.559 101.1 276.686 100.884 284.029C100.884 285.757 100.668 287.7 99.3727 288.996C99.1567 289.212 98.9407 289.212 98.7247 289.212C98.5088 289.212 98.2928 288.996 98.0768 288.996C95.7012 287.052 95.2692 283.813 94.8373 280.573C94.4054 275.606 93.9734 270.639 93.5415 265.672C93.3255 262.216 93.1096 258.761 93.5415 255.521C93.9734 252.066 94.8373 248.61 95.7012 245.155C97.6449 237.164 99.5886 228.957 103.476 221.398C104.124 219.886 104.772 219.238 105.852 220.75C106.932 222.262 106.5 224.422 106.284 226.149C106.284 230.685 106.068 235.004 105.636 239.539C105.636 244.507 104.988 249.69 104.34 254.657Z" fill="#BCBCBB"/>
<path d="M129.176 229.389C128.744 234.356 128.312 239.323 128.312 244.291C128.096 257.249 130.256 270.207 132.2 283.165C132.2 283.597 132.2 284.029 131.984 284.245C131.552 284.677 130.688 284.245 130.256 283.813C128.744 282.301 127.233 280.789 125.505 279.277C124.425 278.414 123.561 277.334 122.913 276.038C121.833 273.878 122.049 271.287 122.265 268.695C122.481 266.751 122.697 264.592 122.913 262.648C123.561 255.953 124.425 249.258 125.721 242.563C126.369 239.755 127.017 236.948 127.017 234.14" fill="#BCBCBB"/>
<path d="M24.2155 284.678C25.0793 283.814 26.3752 282.951 27.455 282.303C28.3189 281.871 29.3987 281.439 30.2626 280.791C31.1265 280.143 31.7744 279.063 31.5584 278.199C31.3424 277.119 30.6945 276.471 29.6147 276.039C28.7508 275.608 27.671 275.824 26.5911 275.824C24.4314 276.04 22.4877 276.903 20.328 277.767C18.3843 278.631 16.6566 279.279 14.7128 280.143C12.3372 281.007 9.52959 282.519 9.09766 285.326C11.2573 285.974 13.633 286.19 15.7927 286.19C18.8162 285.974 21.8398 287.054 24.2155 284.678Z" fill="#BCBCBB"/>
<path d="M108.227 93.5446C108.875 91.8168 109.307 90.0891 110.603 88.7933C110.819 88.5773 111.035 88.3613 111.251 88.3613C111.467 88.3613 111.467 88.5773 111.683 88.7933C113.626 91.1689 115.138 93.9765 115.786 96.7841C115.786 97.0001 115.786 97.216 115.786 97.432L115.57 97.648C114.274 98.5118 112.763 98.5118 111.251 98.7278C110.171 98.7278 107.363 99.5917 106.715 98.2959C106.5 97.0001 107.795 94.6244 108.227 93.5446Z" fill="#BCBCBB"/>
<path d="M53.1555 97.6475C53.3714 98.7274 53.5874 99.5913 53.5874 100.671C53.5874 100.887 53.5874 101.103 53.3714 101.319C53.1555 101.319 52.9395 101.319 52.7235 101.103C52.0756 100.671 51.6437 100.239 50.9958 100.023C49.9159 99.5913 48.6201 99.5913 47.9722 98.9433C47.5403 98.5114 47.5403 97.8635 47.5403 97.2156C47.7563 96.5677 47.9722 96.1358 48.4042 95.4879C49.0521 94.408 49.7 93.1122 50.5638 92.0324C50.9958 91.1685 51.6437 89.6567 52.5076 89.0088C52.5076 91.8164 52.5076 94.8399 53.1555 97.6475Z" fill="#BCBCBB"/>
<path d="M22.7037 19.6834C23.5676 19.8993 24.6475 20.1153 25.5113 20.1153C25.2954 26.1624 25.2954 32.2095 26.8071 37.8247C27.0231 38.9046 27.455 39.9844 27.671 41.0643C27.887 41.4962 27.887 42.1441 27.671 42.3601C27.455 42.576 27.2391 42.576 27.0231 42.576C24.6475 42.792 23.1357 39.9844 20.976 39.5525C20.76 39.5525 20.3281 39.5525 20.1121 39.3365C19.8961 39.5525 19.8961 39.3365 19.6802 39.1205C17.7365 35.665 16.6566 31.5616 16.6566 27.4582C16.6566 26.8103 16.6566 25.9464 16.8726 25.2985C17.0886 24.4347 17.5205 23.5708 17.9524 22.7069C18.8163 21.1951 19.6802 19.6834 21.192 18.6035" fill="#BCBCBB"/>
<path d="M118.162 97.2178L119.89 111.904L99.8046 117.519L72.8085 119.679L43.6527 112.12L45.8124 98.9455L50.7797 100.025L54.4511 100.889L63.3059 111.472L69.353 114.711L78.4237 115.143C78.4237 115.143 87.0624 113.847 87.4944 113.631C87.9263 113.415 96.5651 109.096 97.213 109.312C97.8609 109.528 100.668 107.152 100.668 107.152L103.908 100.889L118.162 97.2178Z" fill="#F15748"/>
<path d="M42.1409 225.287C40.4131 227.23 38.6854 228.958 36.9576 230.902C35.8778 232.198 36.0938 233.278 37.1736 234.573C40.8451 231.982 44.5165 229.39 48.188 227.014C47.972 228.526 46.8922 229.174 45.8124 230.038C43.4367 231.766 41.277 233.709 38.9014 235.437C37.6056 236.517 37.1736 237.813 37.6056 239.325C39.1173 245.588 40.8451 252.067 42.3569 258.33C43.8686 264.377 45.5964 270.424 47.3242 276.687C47.9721 278.847 47.5401 280.143 45.3804 281.655C42.3569 283.598 40.6291 287.054 39.1173 290.509C38.4694 292.021 37.8215 293.749 37.6056 295.261C37.1736 297.42 38.0375 298.068 41.0611 298.284C41.493 294.397 41.9249 290.509 46.4603 288.566C46.4603 290.077 45.3804 290.941 44.7325 291.805C43.6527 293.317 43.0048 295.045 43.0048 296.988C43.0048 298.932 43.8686 300.012 45.8124 300.012C48.62 300.228 51.4276 299.796 54.0192 298.932C54.6671 296.34 54.6671 296.34 52.2914 290.725C54.8831 291.805 55.315 292.669 56.6108 297.852C57.6906 297.204 58.3386 296.34 59.2024 296.124C60.0663 295.693 60.9302 295.908 62.01 295.908C62.6579 294.181 62.442 292.237 62.226 290.509C61.1461 285.974 60.0663 281.223 59.2024 276.687C57.9066 269.56 57.0427 262.433 55.9629 255.306C53.8032 240.405 54.0192 225.503 53.8032 210.385C53.8032 207.793 53.8032 207.793 51.6435 205.85C53.8032 204.122 56.6108 204.122 59.4184 203.906C58.3386 205.85 56.3948 205.418 55.531 206.713C53.1553 216.648 57.0427 265.241 61.5781 279.063C64.1697 278.199 65.6815 276.039 67.4092 274.528C69.353 273.016 71.0807 271.72 73.2404 270.424C73.4564 270.64 73.4564 270.856 73.6723 271.072C71.7286 272.584 69.7849 273.88 67.8412 275.391C65.8975 276.903 63.9537 278.631 61.7941 280.575C62.442 283.598 63.0899 286.838 63.7378 290.509C66.9773 291.157 70.2168 291.805 73.2404 292.237C79.2875 292.885 85.3346 293.317 91.3818 292.021C92.2456 291.805 93.3255 291.805 94.1894 292.021C94.6213 292.021 95.2692 292.885 95.2692 293.317C95.2692 293.749 94.8373 294.397 94.4053 294.829C93.9734 295.045 93.5415 295.045 93.1095 295.045C87.4943 295.908 81.6632 296.124 76.048 295.261C73.8883 295.045 71.7286 294.613 69.5689 294.181C67.8412 293.965 66.1134 293.749 64.6016 293.533C63.7378 295.261 63.0899 296.988 62.226 298.5C61.1461 300.444 59.4184 301.524 57.0427 302.172C51.8595 303.251 46.8922 303.035 41.709 302.388C38.9014 301.956 36.7417 300.444 34.798 298.716C33.9341 298.932 33.0702 298.932 32.2063 299.148C28.9668 300.228 26.3752 299.148 23.7836 297.204C22.4877 296.34 22.0558 295.261 22.2718 293.749C22.4877 292.237 22.7037 290.725 22.7037 288.781C20.976 288.566 19.4642 288.134 17.9524 288.134C14.2809 287.918 10.6095 287.918 6.93799 288.134C4.99428 288.134 3.05056 287.702 1.32281 286.838C-0.188974 285.974 -0.404941 284.894 0.674903 283.598C1.75475 282.518 2.83459 281.223 4.1304 280.575C7.80187 278.415 11.6893 276.687 15.5767 274.744C17.9524 273.448 20.3281 271.936 22.9197 270.64C24.2155 269.776 25.7273 269.128 27.0231 268.049C27.671 265.889 26.8071 263.729 25.9432 261.785C24.4315 258.546 23.5676 255.09 22.9197 251.635C22.0558 246.02 20.544 240.62 19.0322 235.437C17.5205 229.822 17.0885 224.207 19.4642 218.592C20.76 215.352 22.4877 212.761 26.3752 211.897C25.7273 209.305 25.5113 206.713 24.8634 204.338C22.4877 195.483 21.4079 186.412 21.1919 177.342C21.1919 175.398 21.1919 173.454 21.1919 171.51C21.1919 169.999 21.6239 168.703 20.1121 167.407C19.6802 167.191 19.8961 166.111 20.1121 165.463C22.9197 158.12 25.5113 150.777 28.9668 143.867C33.7181 134.364 36.0938 124.213 39.3333 114.279C39.7652 113.199 39.7652 112.119 41.277 111.687C42.1409 111.471 42.7888 110.391 42.5728 109.096C42.3569 105.208 42.1409 101.321 44.3006 97.8652C44.5166 97.4332 44.5166 96.7853 44.5166 96.1374C44.5166 92.6819 44.5166 89.2264 44.5166 85.9869C44.5166 79.2918 43.0048 68.4934 41.277 63.3102C36.3097 60.9345 32.2063 57.263 28.7508 52.9437C25.7273 49.0562 22.4877 45.3848 19.4642 41.7133C17.9524 39.9855 16.8726 38.0418 15.3608 35.8821C15.3608 36.746 15.3608 37.6099 15.3608 38.4738C14.065 36.962 13.633 35.2342 13.849 33.2905C14.2809 30.2669 14.7129 27.2434 15.1448 24.2198C15.3608 23.5719 15.5767 22.924 16.2246 22.2761C17.9524 20.5484 19.6801 18.8206 21.8398 17.5248C27.887 13.8533 34.1501 10.6138 40.1972 6.94232C44.3006 4.56667 48.62 3.70279 52.9393 3.27085C54.0192 3.05488 55.315 3.48682 56.3948 3.91876C57.6906 4.56667 58.7705 5.43054 60.4982 6.51038C63.5218 5.64651 66.7613 4.78263 70.0009 3.48682C75.832 1.32713 81.8792 0.463259 87.9263 1.32713C92.8936 1.97504 98.0768 2.62295 103.044 3.70279C104.772 3.91876 106.284 4.78263 107.795 5.64651C108.227 5.86248 108.875 6.07844 108.875 6.51038C109.739 9.74991 113.195 11.2617 114.274 14.5012C115.354 17.5248 117.298 20.3324 118.378 23.5719C119.458 26.5955 119.89 29.835 120.754 33.0745C120.969 33.9384 121.185 35.0183 121.401 36.0981C124.209 35.6662 125.937 32.8586 129.176 32.2107C126.369 34.8023 123.129 36.0981 121.617 38.9057C121.833 39.1217 122.049 39.3376 122.049 39.5536C124.641 38.2578 127.233 37.1779 129.824 35.8821C128.744 37.8259 126.801 38.4738 125.073 39.5536C122.481 41.2814 122.265 41.2813 122.913 44.5209C123.345 46.4646 123.561 48.4083 124.209 50.1361C125.073 53.1596 126.801 54.2395 129.824 54.0235C133.712 53.8075 136.951 52.0798 139.543 49.4882C144.51 44.5209 149.261 39.1217 152.285 32.6426C153.581 29.619 154.661 26.1635 155.309 22.924C156.388 18.8206 154.229 16.013 150.773 13.8533C143.214 8.88604 134.791 5.86248 125.937 5.21457C122.265 4.9986 118.594 5.43054 114.922 5.64651C113.843 5.64651 112.763 5.86248 111.467 5.21457C111.899 4.78263 112.331 4.13473 112.763 4.13473C119.026 3.27085 125.073 2.62294 131.336 4.35069C133.064 4.78263 134.791 5.21457 136.519 5.86248C140.407 6.94232 144.294 8.02216 147.534 10.6138C148.182 11.2617 149.261 11.4777 150.125 11.9096C155.74 14.7172 158.764 19.4685 156.604 25.7316C155.093 30.051 153.797 34.1544 151.205 38.0418C148.182 42.3612 145.158 46.2486 141.702 49.9201C140.623 49.9201 138.679 51.8638 136.519 53.3756C134.144 55.1033 131.12 55.5353 128.096 55.3193C125.721 55.3193 123.777 53.8075 122.697 51.4319C122.265 50.568 121.833 49.7041 121.833 48.6243C120.754 42.5772 118.594 36.962 117.946 30.6989C117.298 24.6518 115.354 18.8206 112.115 13.6374C110.819 11.4777 109.307 9.53394 107.579 7.59023C106.932 6.94232 105.852 6.72635 104.988 6.29441C100.668 4.78263 96.1331 4.56666 91.5977 4.13473C86.1985 3.70279 80.5833 4.13473 75.1841 5.43054C70.8647 6.51038 66.5454 6.51038 62.226 7.8062C59.8503 8.4541 58.5545 9.74991 57.6906 12.1256C54.6671 20.7643 52.5074 29.619 51.4275 38.6897C50.9956 43.0091 50.3477 47.1125 49.6998 51.4319C49.0519 55.5353 47.1082 58.9908 43.6527 61.7984C44.3006 67.6295 45.1645 73.4607 45.5964 79.2918C46.0283 85.123 46.0283 90.9541 46.2443 96.7853C48.62 97.6492 50.5637 98.2971 53.1553 98.945C52.7234 92.6819 50.1317 87.4987 48.8359 81.8835C47.7561 76.2683 46.2443 70.8691 44.7325 64.8219C45.5964 65.0379 46.2443 65.0379 46.6762 65.2539C47.1082 65.9018 47.3242 66.7657 47.7561 67.6295C49.4838 71.9489 50.1317 76.4843 51.2116 81.0196C52.9393 87.9306 54.6671 94.6256 57.4747 101.321C59.8503 106.936 64.1697 110.175 70.0009 111.687C78.4237 113.847 86.4145 112.335 94.1894 108.88C95.7011 108.232 96.997 106.936 97.8608 105.64C100.668 101.753 103.476 98.0811 106.068 93.9777C107.795 91.1701 108.875 88.1466 110.387 85.123C112.115 81.4515 114.058 77.7801 116.002 74.1086C116.218 73.4607 116.866 73.2447 117.514 72.8128C117.298 75.8363 115.138 78.212 114.058 81.0196C112.979 84.0432 111.467 86.8508 110.171 89.6583C109.091 92.4659 107.579 95.0576 106.932 98.2971C110.171 99.161 112.547 97.0013 115.786 96.7853C116.002 95.4895 116.434 94.4097 116.434 93.1138C117.082 85.7709 118.378 78.428 120.322 71.301C121.401 67.8455 122.049 64.174 123.129 60.7185C123.345 60.0706 123.561 59.4227 123.993 58.3429C124.857 60.0706 124.425 61.3664 123.993 62.4463C121.617 69.5732 119.89 76.7002 119.026 84.0432C118.594 87.2827 118.378 90.3062 118.162 93.5458C118.162 94.4097 118.378 95.4895 118.594 96.3534C118.81 97.6492 119.458 98.945 119.242 100.241C119.026 103.912 119.458 107.368 120.322 110.823C121.185 114.927 122.049 119.03 123.777 123.133C125.505 127.021 126.801 131.124 128.096 135.012C129.608 139.547 130.688 144.298 131.984 149.05C133.064 153.369 133.28 154.233 135.223 156.177C134.791 156.609 134.576 157.041 134.36 157.473C135.439 162.224 136.735 166.543 137.599 171.079C138.031 173.454 138.463 175.83 136.519 177.774C136.087 178.421 135.871 179.285 135.655 180.149C134.576 188.356 132.848 196.779 132.848 205.202C132.848 206.281 132.848 207.361 132.848 208.441C132.848 208.873 133.064 209.089 133.28 209.737C134.576 209.737 135.871 209.953 137.167 209.953C138.463 209.953 139.327 210.601 140.191 211.681C143.646 216 143.862 220.751 142.782 225.935C141.055 234.357 138.895 242.78 136.951 251.203C135.871 255.738 135.007 260.49 133.928 265.025C133.28 267.617 133.928 269.776 135.223 271.936C136.087 273.232 136.735 274.528 137.599 275.607C140.407 278.847 141.702 282.734 142.134 286.622C142.782 293.749 138.895 298.068 131.552 297.636C131.12 297.636 130.904 296.772 130.472 296.34C132.416 296.124 134.576 295.908 136.303 294.397C135.223 292.021 134.36 289.861 133.064 286.838C136.519 288.566 136.519 291.805 138.463 293.749C139.543 292.021 140.623 290.293 140.407 288.35C140.191 285.758 138.679 282.086 137.167 280.575C137.167 282.086 137.167 283.598 137.167 284.894C135.871 285.326 135.439 284.678 135.223 283.814C134.144 281.223 132.848 278.415 131.552 275.823C130.256 273.016 129.392 269.992 130.256 266.969C131.552 261.138 132.848 255.306 133.928 249.475C134.144 248.395 135.007 247.316 134.144 245.804C131.768 247.747 129.392 249.691 127.017 251.419C125.073 252.931 124.209 254.874 123.993 257.034C123.561 262.001 122.265 266.753 122.265 271.72C122.265 274.744 122.913 277.119 125.289 279.495C130.256 284.246 132.416 289.861 130.472 296.772C127.88 298.068 125.505 299.364 122.913 300.444C120.322 301.524 117.73 301.524 114.922 301.092C112.115 300.66 109.307 300.228 106.716 299.58C102.612 298.716 99.8045 296.34 99.1566 292.237C98.7247 289.645 98.5087 287.054 98.7247 284.678C99.1566 277.119 99.8046 269.344 100.452 261.785C100.884 256.602 101.964 251.419 102.396 246.236C103.26 236.733 104.556 227.446 104.124 217.728C104.124 215.568 104.124 213.624 103.908 211.465C103.692 209.953 103.26 208.657 103.044 206.713C105.42 205.85 108.011 204.77 111.035 205.634C109.307 206.281 107.579 206.929 105.636 207.577C106.932 211.897 106.284 216.432 106.5 220.751C106.716 228.958 106.068 236.949 105.204 245.156C104.34 254.011 103.26 262.865 102.612 271.72C102.18 277.551 101.964 283.382 101.964 289.213C101.964 292.021 103.044 294.397 105.636 295.908C105.852 295.908 106.068 295.908 106.716 296.124C108.011 293.533 107.147 289.861 110.819 287.918C109.955 289.861 109.307 291.373 108.875 293.101C108.011 296.124 108.659 296.772 111.683 297.204C113.627 297.42 115.57 297.636 117.514 297.852C118.594 296.34 118.162 294.829 117.298 293.533C116.65 292.237 115.57 291.157 114.922 289.861C114.706 289.213 114.706 288.566 114.706 287.918C117.73 290.293 119.242 293.317 119.89 297.204C122.697 297.204 125.073 295.908 126.801 294.181C128.096 292.885 128.096 291.157 127.665 289.429C126.585 285.758 124.209 282.734 121.401 280.143C119.89 278.631 118.594 277.119 117.946 274.96C118.594 274.528 119.242 274.312 119.89 273.88C120.322 270.856 120.969 267.833 121.401 264.593C122.913 255.738 124.641 247.1 125.721 238.245C126.153 234.357 127.449 230.686 128.096 227.014C129.176 222.263 129.608 217.512 130.256 212.545C130.688 208.873 131.336 205.418 130.688 201.746C130.256 201.53 129.824 201.314 129.392 201.098C129.392 200.666 129.392 200.45 129.392 200.018C130.256 193.539 131.12 187.06 131.984 180.365C132.416 177.774 133.064 175.398 133.496 172.806C133.712 171.726 134.144 170.647 133.712 169.567C132.848 166.111 131.768 162.656 130.688 158.768C129.392 159.2 128.096 159.416 126.585 160.064C127.017 158.12 128.96 158.12 129.824 156.825C129.824 156.177 129.608 155.529 129.392 154.233C127.88 155.313 126.369 155.961 124.641 157.041C125.073 155.097 126.369 154.665 127.233 154.017C128.744 152.937 129.176 151.857 128.528 150.346C126.585 144.298 125.937 137.603 122.913 131.772C122.265 130.476 122.049 128.965 121.617 127.669C121.401 126.805 121.185 125.725 120.754 124.861C119.242 120.974 117.73 116.87 116.002 112.767C114.058 115.359 111.251 115.791 108.443 116.438C104.124 117.518 100.021 118.814 95.7011 119.678C87.9263 120.974 79.9354 120.542 71.9446 120.11C62.01 119.678 52.7234 116.007 43.0048 113.415C42.7888 114.063 42.1409 114.711 41.9249 115.575C41.277 120.326 38.9014 124.645 37.1736 128.965C33.9341 136.092 30.4786 143.219 27.2391 150.562C25.9432 153.369 24.8634 156.393 24.2155 159.632C23.7836 161.792 23.9995 163.952 23.9995 166.111C23.9995 166.759 24.2155 167.407 23.9995 167.839C22.0558 178.206 23.5676 188.14 25.5113 198.291C26.8071 204.338 28.1029 210.385 29.6147 216.432C30.6946 220.751 32.2063 225.071 33.7181 229.606C37.8215 228.094 39.9812 226.583 42.1409 225.287ZM39.1173 120.758C38.2535 121.622 37.8215 122.486 38.2535 123.781C39.5493 122.702 39.1173 121.622 39.1173 120.758C40.4132 119.678 40.8451 118.166 40.6291 116.438C40.8451 116.223 40.8451 115.791 40.6291 116.222C40.6291 115.791 40.6291 116.223 40.6291 116.438C39.5493 117.734 39.1173 119.03 39.1173 120.758ZM111.467 111.903C112.115 111.687 112.979 111.471 113.843 111.255C113.843 109.959 113.843 108.88 113.843 107.8C113.843 106.72 113.627 105.64 113.843 104.56C114.058 103.696 113.195 102.401 114.706 101.537C114.922 104.56 115.138 107.152 115.57 109.959C117.298 109.743 118.378 109.311 118.162 107.584C117.946 104.56 117.514 101.537 117.298 98.2971C115.354 98.729 113.411 99.161 111.683 99.5929C109.739 100.025 107.579 100.241 106.068 100.673C104.34 103.48 102.828 105.856 101.316 108.232C99.1566 111.687 95.9171 113.415 92.0297 114.063C88.5742 114.495 85.3346 114.927 81.8792 115.575C76.048 116.654 70.6488 115.143 65.2495 112.983C61.5781 111.471 58.7705 108.664 57.0427 104.992C56.1789 103.48 55.315 101.969 54.6671 100.889C52.2914 100.673 50.1317 100.457 47.9721 100.025C47.1082 102.185 46.2443 104.128 45.8124 106.288C45.3804 108.016 45.1645 109.743 47.3242 111.255C47.5401 109.959 47.972 109.096 48.188 108.232C48.404 107.152 48.404 106.072 48.404 104.992C48.404 104.128 47.9721 103.048 49.4838 102.401C49.2679 104.992 49.0519 107.368 48.8359 109.743C48.8359 110.607 48.404 111.471 49.9158 111.687C51.4276 109.096 50.1317 105.64 52.0755 102.616C53.1553 106.288 50.3477 109.311 51.8595 112.767C54.883 113.631 57.9066 114.711 60.9302 115.143C70.4328 116.654 79.9354 117.734 89.654 117.302C96.781 117.086 103.692 115.143 110.387 112.983C110.387 112.983 110.819 112.335 111.467 111.903ZM21.6239 20.5484C21.8398 20.3324 21.8398 20.5484 21.6239 20.5484C20.544 21.6282 22.2718 20.3324 20.3281 21.6282C20.544 21.6282 20.1121 21.6282 20.3281 21.6282C19.2482 23.14 18.3843 24.6518 17.3045 26.3795C18.8163 27.0274 18.8163 28.3232 18.8163 29.619C18.8163 31.1308 18.6003 32.6426 19.2482 33.9384C20.544 36.746 22.7037 39.1217 24.8634 41.4973C25.9432 40.4175 26.8071 39.5536 27.671 38.6897C29.1828 37.3939 30.6946 35.8821 32.2063 34.5863C32.4223 34.3704 33.0702 34.3703 33.9341 34.3703C31.5584 36.746 29.1828 38.9057 27.2391 41.0654C25.9432 42.5772 25.9432 42.5772 27.455 44.7368C29.1828 46.8965 30.9105 48.8403 32.4223 50.9999C34.1501 53.5916 36.5257 55.3193 39.1173 57.263C42.1409 59.6387 44.3006 58.3429 46.2443 55.1034C46.6762 54.4554 46.6762 53.8075 46.8922 52.9437C47.5401 49.9201 47.9721 46.6806 48.404 43.657C49.2679 38.0418 49.9158 32.4266 51.2116 26.8114C52.2914 21.4122 53.1553 15.797 55.531 10.6138C55.9629 9.53394 56.1789 8.02216 57.9066 7.59023C58.3385 7.37426 58.5545 6.29441 58.7705 5.64651C57.6906 4.13473 55.9629 3.70279 54.6671 3.91876C50.9956 4.3507 47.3241 5.21457 43.6527 6.07845C35.8778 10.1819 28.1029 14.0693 21.6239 20.5484ZM27.2391 254.442C29.1828 260.274 30.9105 265.673 32.8542 271.504C33.7181 270.856 34.366 270.208 35.0139 269.56C35.4459 269.992 35.6618 270.208 35.6618 270.208C35.4459 274.312 34.582 278.415 32.4223 281.87C30.4786 284.678 28.3189 287.27 26.3752 290.077C24.6474 292.453 25.0794 293.965 28.1029 295.045C29.1828 292.885 30.0466 290.725 31.1265 288.566C31.3425 288.134 32.2063 287.918 32.6383 287.702C32.2063 289.213 31.5584 290.293 30.9105 291.589C30.2626 292.885 29.1828 293.965 29.6147 295.693C31.1265 295.908 32.4223 295.908 33.7181 296.124C34.1501 295.693 34.1501 295.693 34.1501 295.693C35.6618 289.429 38.6854 284.03 43.2207 279.279C44.3006 278.199 44.3006 276.903 44.0846 275.607C43.4367 273.448 42.7888 271.504 42.1409 269.344C41.709 268.264 41.277 266.969 41.0611 265.889C39.9812 261.353 38.6854 256.818 37.6056 252.067C37.1736 250.555 36.7417 249.043 36.0938 247.316C33.2862 249.907 30.4786 252.067 27.2391 254.442ZM35.2299 241.916C34.366 238.893 33.7181 235.653 32.6383 232.63C31.7744 229.39 30.6946 226.367 29.6147 223.343C28.5349 220.319 28.5349 217.08 26.5911 213.624C24.8634 216.864 23.3516 219.456 22.0558 222.047C21.6239 222.695 21.4079 223.775 21.4079 224.423C21.6239 227.878 21.8398 231.55 22.4877 235.005C23.3516 239.541 24.6474 243.86 25.7273 248.395C25.9432 249.691 26.3752 250.771 26.8071 252.283C29.8307 250.339 32.4223 248.395 34.798 246.668C35.8778 246.02 35.8778 245.156 34.798 244.292C31.5584 244.94 29.8307 247.963 26.1592 249.043C28.7508 245.372 32.8542 244.94 35.2299 241.916ZM133.28 212.329C133.064 212.761 132.632 213.192 132.632 213.408C130.904 224.207 128.96 234.789 127.233 245.588C127.233 246.02 127.233 246.236 127.449 246.884C129.608 245.372 131.552 243.86 133.712 242.348C134.36 242.996 134.791 243.428 135.007 243.86C136.519 243.428 136.735 242.348 136.951 241.268C137.815 237.813 138.679 234.357 139.327 230.902C139.975 227.014 140.623 223.127 140.839 219.456C140.839 214.92 138.247 212.761 133.28 212.329ZM16.0087 284.462C16.2247 284.678 16.4406 284.894 16.6566 285.11C18.8163 284.03 19.8961 281.655 22.2718 280.791C21.4079 282.086 20.544 283.598 19.6801 285.11C22.4877 286.19 24.6474 286.19 26.1592 283.598C26.5911 282.95 27.2391 282.518 27.887 282.086C29.6147 280.791 30.6946 279.063 31.1265 277.767C30.2626 274.744 29.8307 272.584 29.1828 270.208C27.0231 270.64 25.5113 271.72 24.2155 272.8C22.2718 274.096 20.3281 275.391 18.3843 276.471C15.5767 277.983 12.7692 279.279 9.96156 280.575C9.31365 281.007 8.44978 281.439 7.80187 281.87C7.36993 282.302 7.15396 283.166 7.15396 283.598C7.15396 284.03 8.01784 284.462 8.44978 284.462C11.4733 284.894 14.4969 285.11 16.6566 282.086C17.5205 280.791 18.8163 279.711 19.8961 278.631C20.3281 278.199 20.76 277.983 21.1919 277.767C21.4079 277.983 21.4079 277.983 21.6239 278.199C19.2482 280.359 17.5205 282.302 16.0087 284.462Z" fill="black"/>
<path d="M82.5272 104.559C84.039 105.423 85.1188 106.071 86.1987 106.935C86.4147 107.151 86.4147 108.015 86.1987 108.447C86.1987 108.663 85.3348 108.879 84.9029 108.663C84.4709 108.663 84.039 108.015 83.6071 108.015C81.6633 107.151 79.7196 106.719 77.7759 108.447C76.6961 109.311 75.6162 109.527 74.9683 107.799C76.0482 106.935 76.912 105.855 77.9919 105.207C79.5037 104.343 79.9356 103.263 79.9356 101.752C79.9356 99.3761 79.9356 97.2164 79.9356 95.0567C79.5037 94.6248 79.2877 94.4088 79.0717 94.1928C76.4801 93.7609 74.9683 92.2491 73.8885 90.0894C71.9448 86.6339 70.217 83.1784 70.8649 79.075C71.2968 76.0514 72.5927 74.7556 75.4003 74.3237C79.2877 73.4598 83.3911 73.4598 87.2785 74.3237C88.7903 74.7556 90.3021 75.4035 91.5979 76.2674C93.9736 77.9952 94.4055 80.8028 93.3257 83.3944C92.2458 85.5541 91.166 87.7138 90.0861 89.8734C89.4382 91.1693 88.3584 92.2491 86.8466 92.681C85.9827 92.897 85.3348 93.3289 84.4709 93.5449C83.1751 93.9768 82.5272 94.8407 82.5272 96.1365C82.5272 99.1601 82.5272 101.752 82.5272 104.559Z" fill="black"/>
<path d="M82.9592 11.0454C82.3113 9.53362 81.6634 8.02184 81.0154 6.51006C81.2314 6.29409 81.2314 6.29409 81.4474 6.07812C81.8793 6.51006 82.7432 6.51006 82.9592 7.15797C85.5508 10.3975 87.4945 13.637 88.3584 17.7404C89.8702 24.4355 90.95 31.3465 90.734 38.2575C90.734 41.281 90.3021 44.0886 88.5744 46.4643C87.9264 47.3282 87.2785 48.192 86.6306 48.408C84.9029 48.8399 84.6869 50.3517 84.039 51.6475C82.3113 55.535 81.2314 59.6384 77.9919 62.6619C76.2641 64.1737 74.5364 65.6855 72.3767 66.5494C68.0573 68.2771 63.7379 69.7889 59.4186 71.5166C57.0429 72.5965 54.2353 73.0284 52.9395 76.052C51.8597 75.1881 51.4277 74.3242 52.5076 73.4604C54.0194 72.3805 55.5311 71.3007 57.0429 70.6528C60.7144 69.141 64.3859 67.6292 68.2733 66.3334C75.6162 63.9577 79.9356 58.9905 82.5272 51.8635C83.1751 49.9198 83.823 47.9761 84.6869 46.0323C87.4945 45.8164 88.5744 44.0886 89.0063 41.9289C89.4382 39.7692 89.6542 37.3936 89.4382 35.0179C89.0063 28.7548 88.1424 22.7077 86.4147 16.6606C86.1987 16.0127 85.7668 15.3648 85.3348 14.5009C82.7432 16.6606 80.3675 18.6043 77.56 20.98C77.7759 20.1161 77.7759 19.4682 77.9919 19.2522C79.0717 17.9564 80.3675 16.8766 81.6634 15.7967C82.5272 14.9328 83.6071 14.2849 84.6869 13.4211C83.823 12.5572 83.3911 11.6933 82.9592 11.0454Z" fill="black"/>
<path d="M104.988 57.9116C104.34 59.8553 103.692 61.7991 103.044 63.5268C102.18 65.6865 98.9406 65.9025 97.6448 63.9587C96.9969 63.0949 96.349 61.7991 96.5649 60.9352C96.9969 58.5595 97.8608 56.1839 98.9406 54.2401C100.02 52.5124 102.18 52.5124 103.476 54.2401C104.124 55.32 104.34 56.6158 104.988 57.9116Z" fill="black"/>
<path d="M66.7613 51.4316C67.6252 52.9434 68.4891 54.0233 68.921 55.1031C70.2168 58.1267 68.705 61.5822 65.6815 63.0939C64.6016 63.5259 63.9537 63.3099 63.0898 62.662C61.794 61.5822 61.3621 59.8544 61.5781 58.3426C61.794 56.6149 62.4419 54.8871 63.3058 53.3754C63.7377 52.2955 65.2495 52.0795 66.7613 51.4316Z" fill="black"/>
<path d="M72.8085 45.3848C72.5926 46.6806 72.8085 47.7604 72.3766 48.1924C69.569 52.9437 62.0101 55.9672 56.6109 54.8874C56.6109 54.8874 56.3949 54.6714 56.179 54.2395C59.2025 53.3756 62.2261 52.7277 64.8177 51.4319C67.4093 50.1361 69.785 47.9764 72.8085 45.3848Z" fill="black"/>
<path d="M98.7246 46.4648C100.452 48.8405 102.18 51.2161 103.908 53.3758C105.852 55.5355 108.443 56.6154 111.251 57.2633C111.251 57.9112 111.035 58.3431 111.035 58.7751C104.772 58.5591 98.2926 52.08 98.7246 46.4648Z" fill="black"/>
<path d="M63.9539 282.087C63.9539 281.439 63.9539 281.007 63.9539 281.007C67.8413 277.767 71.9447 274.744 76.48 271.072C76.2641 272.152 76.2641 272.8 76.0481 273.016C72.8086 275.608 69.569 278.199 66.3295 280.575C65.8976 281.223 65.0337 281.439 63.9539 282.087Z" fill="black"/>
<path d="M76.912 77.3474C81.0154 76.2676 84.4709 75.6197 88.1424 78.2113C86.6306 79.9391 85.5507 78.4273 84.2549 78.4273C82.9591 78.4273 81.8793 78.2113 80.5834 78.2113C79.5036 77.9953 78.2078 78.8592 76.912 77.3474Z" fill="white"/>
<path d="M74.5363 278.847C71.5127 281.222 68.4892 283.382 65.0337 286.19C66.5455 282.302 70.001 279.711 74.5363 278.847Z" fill="black"/>
<path d="M82.9591 10.8301C82.7432 11.262 82.7432 11.9099 82.5272 12.1259C81.0154 12.9898 79.5036 13.8536 77.9919 14.7175L77.7759 14.5015C79.0717 12.5578 81.0154 11.694 82.9591 10.8301Z" fill="black"/>
<path d="M77.9917 14.7168C77.1278 15.5807 76.2639 16.6605 75.1841 17.5244C74.7521 17.9563 74.1042 18.3883 73.2404 18.8202C74.5362 16.6605 74.7521 16.2286 77.9917 14.7168Z" fill="black"/>
<path d="M64.6016 100.025C65.0335 99.3772 65.4654 98.9453 65.6814 98.9453C65.8974 98.9453 66.5453 99.3773 66.5453 99.8092C66.5453 100.241 66.1133 100.673 65.8974 100.889C65.6814 100.889 65.2495 100.457 64.6016 100.025Z" fill="black"/>
<path d="M67.1934 93.1137C67.6253 92.8978 68.0572 92.6818 68.4892 92.4658L68.9211 93.1137C68.7051 93.5457 68.2732 93.7616 68.0572 93.9776C67.6253 93.9776 67.4093 93.7616 67.1934 93.1137Z" fill="black"/>
<path d="M94.6214 97.8652C94.8373 98.2972 95.2693 98.7291 95.2693 99.1611C95.2693 99.377 94.8373 99.593 94.6214 99.809C94.4054 99.593 93.9735 99.161 93.9735 98.9451C93.7575 98.7291 94.1894 98.5131 94.6214 97.8652Z" fill="black"/>
<path d="M42.1411 225.286C42.5731 223.774 43.8689 223.558 45.3806 223.774C44.3008 224.206 43.221 224.854 42.1411 225.286Z" fill="black"/>
<path d="M99.8046 91.6002C99.1567 92.0321 98.9407 92.4641 98.5088 92.68C98.2928 92.4641 97.8608 92.0321 97.8608 91.8161C97.8608 91.6002 98.2928 91.1682 98.5088 91.1682C98.9407 90.9523 99.1567 91.3842 99.8046 91.6002Z" fill="black"/>
<path d="M92.0297 93.3291C92.4617 93.5451 92.8936 93.761 93.1096 93.977C92.8936 94.409 92.6777 94.6249 92.2457 94.8409C92.0297 94.8409 91.5978 94.6249 91.3818 94.4089C91.5978 94.193 91.8138 93.761 92.0297 93.3291Z" fill="black"/>
<path d="M60.2822 93.1119C60.4982 92.68 60.7142 92.464 60.9301 92.248C61.1461 92.464 61.578 92.68 61.794 92.896C61.578 93.1119 61.3621 93.5439 61.1461 93.5439C60.9301 93.7598 60.4982 93.3279 60.2822 93.1119Z" fill="black"/>
<path d="M130.688 34.3689C131.12 33.937 131.336 33.505 131.768 33.2891C131.768 33.505 131.984 33.505 131.984 33.721C131.552 33.937 131.12 34.1529 130.688 34.3689Z" fill="black"/>
<path d="M27.4551 44.5197C29.1828 41.4961 32.6383 38.4726 36.3098 37.1768C33.7182 39.5524 31.1265 41.9281 28.5349 44.5197C28.319 44.7357 27.887 44.5197 27.4551 44.5197Z" fill="black"/>
<path d="M111.467 111.902C110.603 108.447 110.387 103.695 111.035 100.672C111.251 101.752 111.467 102.184 111.683 102.832C111.899 104.559 111.899 106.503 112.115 108.231C112.331 109.527 112.331 110.822 111.467 111.902Z" fill="black"/>
<path d="M66.1134 60.286C66.1134 60.9339 65.4654 61.5819 64.8175 61.5819C64.1696 61.5819 63.5217 60.9339 63.5217 60.286C63.5217 59.6381 64.1696 58.9902 64.8175 58.9902C65.4654 58.9902 66.1134 59.6381 66.1134 60.286Z" fill="white"/>
<path d="M99.8046 63.0945C100.52 63.0945 101.1 62.5144 101.1 61.7987C101.1 61.0831 100.52 60.5029 99.8046 60.5029C99.0889 60.5029 98.5088 61.0831 98.5088 61.7987C98.5088 62.5144 99.0889 63.0945 99.8046 63.0945Z" fill="white"/>
<path d="M96.9971 69.5742V72.8137C96.9971 73.0297 97.2131 73.4617 97.2131 73.6776C97.429 74.5415 97.645 75.4054 97.8609 76.2693C98.7248 78.8609 100.453 81.2365 103.044 82.1004C103.476 82.3164 104.124 82.3164 104.556 82.1004C104.988 81.8844 105.204 81.2365 105.204 80.8046C105.204 80.3727 104.988 79.7247 104.772 79.2928C103.044 75.8373 100.021 72.5978 96.9971 69.5742Z" fill="white"/>
<path d="M97.4291 73.6758C97.2131 73.6758 97.2131 73.6758 97.4291 73.6758C97.4291 74.5397 97.645 75.4035 97.861 76.2674C98.7249 78.859 100.453 81.2347 103.044 82.0986C103.476 82.3145 104.124 82.3145 104.556 82.0986C103.692 81.4507 102.612 80.8028 101.748 79.9389C99.8047 78.4271 98.2929 76.2674 97.4291 73.6758Z" fill="#BCBCBB"/>
<path d="M100.885 73.2443C101.748 74.3242 102.612 75.404 103.476 76.4839C104.556 77.7797 105.42 79.2915 105.42 81.0192C105.42 82.747 104.124 83.8268 102.396 83.1789C101.964 82.9629 101.748 82.9629 101.316 82.747C99.5887 82.315 98.5088 81.0192 97.8609 79.5074C96.3492 76.2679 96.3492 72.8124 96.7811 68.709C98.2929 70.4367 99.8047 71.7325 100.885 73.2443ZM99.3727 78.2116C99.3727 79.9394 100.237 81.4511 101.748 81.8831C102.396 82.099 103.26 82.315 103.908 82.747C104.556 82.315 104.772 81.6671 104.772 80.8032C104.556 79.0755 103.692 77.7797 102.612 76.4839C101.748 75.404 100.885 74.3242 100.237 73.2443C99.5887 72.1645 98.7248 71.5166 97.645 70.6527C97.645 72.5964 97.8609 74.3242 98.5089 76.0519C98.5089 76.2679 98.9408 76.4839 99.1568 76.6998C99.5887 76.9158 100.021 76.9158 100.237 77.3477C99.8047 77.3477 99.3727 77.3477 98.7248 77.3477C99.5887 77.7797 100.021 77.9956 100.669 78.2116V78.4276C100.237 78.4276 99.8047 78.4276 99.3727 78.2116Z" fill="black"/>
</svg>
