<svg width="90" height="52" viewBox="0 0 90 52" fill="none" xmlns="http://www.w3.org/2000/svg">
<path d="M88.0354 1.03711V25.7514H1.0354V1.03711H88.0354Z" fill="white"/>
<path d="M89.0714 25.75V0H0V25.75V26.7857V52H89.0714V25.75ZM1.03571 1.03571H88.0357V25.75H1.03571V1.03571Z" fill="#E30613"/>
<path d="M15.6055 31.6429C15.2126 31.2143 14.7483 30.8571 14.2126 30.5714C13.6769 30.2857 13.1412 30.1071 12.6055 30C12.0698 29.8929 11.6055 29.8214 11.2483 29.7857C10.8555 29.75 10.4626 29.75 10.034 29.75H5.81975C5.46261 29.75 5.14118 29.8571 4.9269 30.0714C4.71261 30.2857 4.60547 30.6071 4.60547 31.0357V47.0714C4.60547 47.1786 4.64118 47.25 4.6769 47.3214C4.74833 47.3929 4.81975 47.4643 4.96261 47.5C5.10547 47.5357 5.28404 47.5714 5.53404 47.6071C5.78404 47.6429 6.06975 47.6429 6.4269 47.6429C6.78404 47.6429 7.06975 47.6429 7.31975 47.6071C7.53404 47.5714 7.74833 47.5357 7.85547 47.5C7.99833 47.4643 8.10547 47.3929 8.14118 47.3214C8.21261 47.25 8.24833 47.1786 8.24833 47.0714V41.3929H9.74833C10.9269 41.3929 11.9626 41.25 12.8198 40.9643C13.6769 40.6786 14.4269 40.2857 15.034 39.75C15.6412 39.2143 16.0698 38.5714 16.3912 37.7857C16.7126 37 16.8555 36.1429 16.8555 35.1071C16.8555 34.3929 16.7483 33.7143 16.5698 33.1429C16.284 32.5714 15.9983 32.0714 15.6055 31.6429ZM12.8198 36.6786C12.6769 37.0714 12.4983 37.3929 12.2483 37.6786C11.9983 37.9643 11.6769 38.1786 11.284 38.3214C10.8912 38.4643 10.3912 38.5714 9.81975 38.5714H8.21261V32.5H9.74833C10.1412 32.5 10.4983 32.5357 10.8555 32.5714C11.2126 32.6071 11.534 32.75 11.8555 32.9286C12.1769 33.1071 12.4626 33.4286 12.6769 33.8214C12.8912 34.2143 12.9983 34.75 12.9983 35.3571C12.9983 35.8571 12.9269 36.2857 12.8198 36.6786Z" fill="white"/>
<path d="M33.8555 31.5711C33.1769 30.8211 32.284 30.2854 31.2483 29.9283C30.2126 29.5711 29.034 29.3926 27.6769 29.3926C26.2483 29.3926 25.034 29.6069 23.9626 30.0354C22.8912 30.464 21.9983 31.0711 21.284 31.8926C20.5698 32.714 19.9983 33.6783 19.6412 34.8211C19.284 35.964 19.1055 37.2854 19.1055 38.714C19.1055 40.2854 19.284 41.6426 19.6055 42.7854C19.9626 43.9283 20.4626 44.8926 21.1412 45.6426C21.8198 46.3926 22.6769 46.9283 23.7126 47.3211C24.7483 47.714 25.9626 47.8569 27.3555 47.8569C28.7483 47.8569 29.9983 47.6426 31.0698 47.214C32.1412 46.7854 33.034 46.1783 33.7483 45.3569C34.4626 44.5354 35.034 43.5354 35.3912 42.3926C35.7483 41.214 35.9269 39.8926 35.9269 38.4283C35.9269 36.8926 35.7483 35.5354 35.3912 34.3926C35.0698 33.2497 34.534 32.3211 33.8555 31.5711ZM31.9269 41.0354C31.784 41.7854 31.4983 42.464 31.1412 43.0354C30.784 43.6069 30.284 44.0711 29.6769 44.3926C29.0698 44.714 28.3198 44.8926 27.4269 44.8926C26.534 44.8926 25.784 44.7497 25.2126 44.464C24.6412 44.1783 24.1412 43.7497 23.8198 43.214C23.4626 42.6783 23.2126 41.9997 23.0698 41.214C22.9269 40.4283 22.8555 39.5711 22.8555 38.5711C22.8555 37.7497 22.9269 36.9283 23.0698 36.1783C23.2126 35.4283 23.4983 34.7854 23.8555 34.214C24.2126 33.6426 24.7126 33.214 25.3198 32.8569C25.9269 32.5354 26.6769 32.3569 27.5698 32.3569C28.4626 32.3569 29.1769 32.4997 29.784 32.8211C30.3555 33.1069 30.8555 33.5354 31.2126 34.1069C31.5698 34.6426 31.8198 35.3211 31.9626 36.0711C32.1055 36.8569 32.1769 37.6783 32.1769 38.6426C32.1412 39.464 32.0698 40.2854 31.9269 41.0354Z" fill="white"/>
<path d="M48.9291 44.8926C48.8934 44.7854 48.822 44.6783 48.7506 44.6426C48.6791 44.6069 48.6077 44.5712 48.5006 44.5712H42.8934V30.214C42.8934 30.1069 42.8577 30.0354 42.7863 29.964C42.7148 29.8926 42.6434 29.8212 42.5006 29.7854C42.3577 29.7497 42.1791 29.714 41.9648 29.6783C41.7506 29.6426 41.4291 29.6426 41.072 29.6426C40.7148 29.6426 40.4291 29.6426 40.1791 29.6783C39.9291 29.714 39.7506 29.7497 39.6077 29.7854C39.4648 29.8212 39.3577 29.8926 39.322 29.964C39.2506 30.0354 39.2148 30.1069 39.2148 30.214V46.4283C39.2148 46.8211 39.322 47.1069 39.5363 47.3211C39.7506 47.4997 40.0006 47.6069 40.2863 47.6069H48.4648C48.572 47.6069 48.6434 47.5712 48.7148 47.5354C48.7863 47.464 48.8577 47.3926 48.8934 47.2497C48.9291 47.1426 48.9648 46.964 49.0006 46.7854C49.0363 46.6069 49.0363 46.3569 49.0363 46.0711C49.0363 45.7854 49.0363 45.5711 49.0006 45.3926C49.0363 45.1426 49.0006 44.9997 48.9291 44.8926Z" fill="white"/>
<path d="M60.8566 38.964C60.4994 38.5711 60.1066 38.2497 59.6423 37.964C59.178 37.6783 58.7137 37.4283 58.2494 37.214C57.7852 36.9997 57.2852 36.7854 56.8566 36.5711C56.3923 36.3569 55.9994 36.1783 55.6066 35.9283C55.2494 35.714 54.9637 35.4283 54.7494 35.1426C54.5352 34.8569 54.428 34.4997 54.428 34.1069C54.428 33.8569 54.4637 33.5711 54.5709 33.3569C54.678 33.1069 54.8209 32.9283 54.9994 32.7497C55.2137 32.5711 55.428 32.464 55.7494 32.3569C56.0352 32.2497 56.3923 32.214 56.7852 32.214C57.2852 32.214 57.7494 32.2854 58.178 32.3926C58.6066 32.4997 58.9637 32.6426 59.2852 32.8211C59.6066 32.964 59.8923 33.1069 60.1066 33.2497C60.3209 33.3926 60.4994 33.4283 60.6066 33.4283C60.7137 33.4283 60.7852 33.3926 60.8566 33.3569C60.928 33.2854 60.9637 33.214 60.9994 33.1069C61.0352 32.9997 61.0709 32.8211 61.0709 32.6426C61.0709 32.464 61.1066 32.2497 61.1066 31.964C61.1066 31.714 61.1066 31.5354 61.1066 31.3569C61.1066 31.214 61.0709 31.0711 61.0709 30.964C61.0352 30.8569 61.0352 30.7854 60.9994 30.714C60.9637 30.6426 60.8923 30.5711 60.8209 30.464C60.7137 30.3569 60.5352 30.2497 60.2494 30.1069C59.9637 29.964 59.6423 29.8569 59.2852 29.7497C58.928 29.6426 58.5352 29.5354 58.1066 29.4997C57.678 29.4283 57.2494 29.3926 56.8209 29.3926C55.9994 29.3926 55.2137 29.4997 54.4994 29.714C53.7852 29.9283 53.1423 30.2497 52.6066 30.6783C52.0709 31.1069 51.6423 31.6426 51.3209 32.2854C50.9994 32.9283 50.8566 33.6783 50.8566 34.5354C50.8566 35.2854 50.9637 35.9283 51.178 36.464C51.3923 36.9997 51.678 37.464 52.0352 37.8569C52.3923 38.2497 52.7852 38.5711 53.2494 38.8569C53.7137 39.1426 54.178 39.3926 54.6423 39.6069C55.1066 39.8211 55.5709 40.0354 56.0352 40.2497C56.4994 40.464 56.8923 40.6426 57.2494 40.8926C57.6066 41.1069 57.8923 41.3926 58.1066 41.6783C58.3209 41.964 58.428 42.3211 58.428 42.714C58.428 43.0711 58.3566 43.3926 58.2494 43.6783C58.1066 43.964 57.928 44.214 57.678 44.3926C57.428 44.5711 57.1423 44.7497 56.7852 44.8569C56.428 44.964 56.0352 44.9997 55.6066 44.9997C54.928 44.9997 54.3566 44.9283 53.8209 44.7854C53.3209 44.6426 52.8566 44.464 52.4994 44.2854C52.1423 44.1069 51.8209 43.9283 51.6066 43.7854C51.3566 43.6426 51.178 43.5711 51.0709 43.5711C50.9637 43.5711 50.8923 43.6069 50.8209 43.6426C50.7494 43.6783 50.7137 43.7854 50.6423 43.8926C50.6066 43.9997 50.5709 44.1783 50.5709 44.3569C50.5352 44.5354 50.5352 44.7854 50.5352 45.0711C50.5352 45.4997 50.5709 45.8211 50.6066 46.0354C50.6423 46.2497 50.7494 46.4283 50.8566 46.5354C50.9637 46.6426 51.178 46.7854 51.428 46.964C51.7137 47.1069 52.0352 47.2854 52.428 47.4283C52.8209 47.5711 53.2852 47.6783 53.8209 47.7854C54.3566 47.8926 54.928 47.9283 55.5352 47.9283C56.428 47.9283 57.2852 47.8211 58.1066 47.5711C58.8923 47.3211 59.6066 46.964 60.2137 46.4997C60.8209 46.0354 61.2852 45.4283 61.6423 44.714C61.9994 43.9997 62.178 43.1783 62.178 42.2497C62.178 41.5354 62.0709 40.8926 61.8566 40.3926C61.5352 39.7854 61.2494 39.3569 60.8566 38.964Z" fill="white"/>
<path d="M77.7116 45.9636L72.3902 37.8922L77.2831 31.4636C77.4973 31.1064 77.6759 30.8564 77.7473 30.6779C77.8188 30.4993 77.8545 30.3564 77.8545 30.1779C77.8545 30.0707 77.8188 29.9993 77.7831 29.9279C77.7116 29.8564 77.6402 29.785 77.4973 29.7493C77.3545 29.7136 77.1759 29.6422 76.9259 29.6422C76.6759 29.6064 76.3902 29.6064 76.0331 29.6064C75.6759 29.6064 75.3902 29.6064 75.1402 29.6422C74.9259 29.6779 74.7116 29.6779 74.5688 29.7493C74.4259 29.785 74.3188 29.8564 74.2116 29.9279C74.1045 29.9993 74.0331 30.1064 73.9616 30.2136L68.7473 37.785V30.2136C68.7473 30.1064 68.7116 30.035 68.6759 29.9636C68.6045 29.8922 68.5331 29.8207 68.3902 29.785C68.2473 29.7493 68.0688 29.7136 67.8545 29.6779C67.6402 29.6422 67.3188 29.6422 66.9616 29.6422C66.6045 29.6422 66.3188 29.6422 66.0688 29.6779C65.8188 29.7136 65.6402 29.7493 65.4973 29.785C65.3545 29.8207 65.2474 29.8922 65.2116 29.9636C65.1402 30.035 65.1045 30.1422 65.1045 30.2136V47.035C65.1045 47.1422 65.1402 47.2136 65.2116 47.285C65.2831 47.3564 65.3545 47.4279 65.4973 47.4636C65.6402 47.4993 65.8188 47.5707 66.0688 47.5707C66.3188 47.6064 66.6045 47.6064 66.9616 47.6064C67.3188 47.6064 67.6045 47.6064 67.8545 47.5707C68.0688 47.535 68.2831 47.4993 68.3902 47.4636C68.5331 47.4279 68.6402 47.3564 68.6759 47.285C68.7473 47.2136 68.7473 47.1422 68.7473 47.035V38.5707L74.1402 47.035C74.2116 47.1779 74.2831 47.285 74.4259 47.3564C74.5331 47.4636 74.7116 47.535 74.9973 47.5707C75.2473 47.6064 75.6759 47.6422 76.2831 47.6422C76.6759 47.6422 76.9616 47.6422 77.2116 47.6064C77.4616 47.5707 77.6402 47.535 77.7831 47.4993C77.9259 47.4636 78.0331 47.3922 78.0688 47.3207C78.1045 47.2493 78.1402 47.1422 78.1402 47.035C78.1402 46.9636 78.1045 46.8564 78.0688 46.7493C78.0688 46.6064 77.9259 46.3564 77.7116 45.9636Z" fill="white"/>
<path d="M84.1055 29.7854C83.9626 29.7497 83.784 29.714 83.5698 29.6783C83.3555 29.6426 83.034 29.6426 82.6769 29.6426C82.3198 29.6426 82.034 29.6426 81.8198 29.6783C81.6055 29.714 81.3912 29.7497 81.2483 29.7854C81.1055 29.8212 80.9983 29.8926 80.9626 29.964C80.8912 30.0354 80.8555 30.1069 80.8555 30.214V47.0711C80.8555 47.1783 80.8912 47.2497 80.9626 47.3211C81.034 47.3926 81.1055 47.464 81.2483 47.4997C81.3912 47.5354 81.5698 47.5711 81.8198 47.6069C82.0698 47.6426 82.3555 47.6426 82.7126 47.6426C83.0698 47.6426 83.3555 47.6426 83.6055 47.6069C83.8198 47.5711 84.034 47.5354 84.1412 47.4997C84.284 47.464 84.3912 47.3926 84.4269 47.3211C84.4983 47.2497 84.534 47.1783 84.534 47.0711V30.214C84.534 30.1069 84.4983 30.0354 84.4269 29.964C84.3555 29.8926 84.2483 29.8212 84.1055 29.7854Z" fill="white"/>
<path d="M15.1771 11.0724C15.1771 11.751 15.07 12.3224 14.8557 12.8224C14.6414 13.3224 14.3557 13.751 13.9629 14.1081C13.57 14.4653 13.07 14.7153 12.4986 14.8938C11.9271 15.0724 11.2486 15.1795 10.4629 15.1795H9.46286V18.9295C9.46286 19.001 9.42714 19.0367 9.39143 19.1081C9.35571 19.1438 9.28428 19.1795 9.21286 19.2153C9.10571 19.251 8.99857 19.2867 8.85571 19.2867C8.71286 19.3224 8.49857 19.3224 8.28428 19.3224C8.07 19.3224 7.85571 19.3224 7.71286 19.2867C7.57 19.251 7.42714 19.251 7.35571 19.2153C7.24857 19.1795 7.21286 19.1438 7.17714 19.1081C7.14143 19.0724 7.10571 19.001 7.10571 18.9295V8.35812C7.10571 8.0724 7.17714 7.85812 7.32 7.71526C7.46286 7.57241 7.67714 7.50098 7.89143 7.50098H10.6771C10.9629 7.50098 11.2129 7.50098 11.4629 7.53669C11.7129 7.57241 12.0343 7.60812 12.3557 7.67955C12.7129 7.75098 13.07 7.89383 13.4271 8.07241C13.7843 8.25098 14.1057 8.50098 14.3557 8.78669C14.6057 9.07241 14.82 9.42955 14.9271 9.78669C15.1057 10.1795 15.1771 10.6081 15.1771 11.0724ZM12.6771 11.251C12.6771 10.8224 12.6057 10.501 12.4629 10.2153C12.32 9.96526 12.1414 9.75098 11.9271 9.60812C11.7129 9.46526 11.4986 9.39383 11.2486 9.35812C10.9986 9.32241 10.7843 9.32241 10.5343 9.32241H9.49857V13.3224H10.57C10.9629 13.3224 11.2843 13.2867 11.5343 13.1795C11.7843 13.0724 11.9986 12.9295 12.1771 12.751C12.3557 12.5724 12.4629 12.3581 12.5343 12.0724C12.6057 11.8581 12.6771 11.5724 12.6771 11.251Z" fill="#E30613"/>
<path d="M25.7844 19.0014C25.7844 19.0728 25.7844 19.1085 25.7487 19.18C25.713 19.2157 25.6773 19.2514 25.5701 19.2871C25.463 19.3228 25.3558 19.3228 25.1773 19.3585C24.9987 19.3585 24.7487 19.3943 24.463 19.3943C24.213 19.3943 23.9987 19.3943 23.8558 19.3585C23.713 19.3585 23.5701 19.3228 23.4987 19.2871C23.4273 19.2514 23.3558 19.2157 23.3201 19.1443C23.2844 19.1085 23.2487 19.0371 23.213 18.9657L22.1415 16.3228C21.9987 16.0371 21.8915 15.7514 21.7844 15.5371C21.6773 15.3228 21.5344 15.1085 21.3915 14.9657C21.2487 14.8228 21.0701 14.68 20.8915 14.6085C20.713 14.5371 20.463 14.5014 20.213 14.5014H19.463V19.0014C19.463 19.0728 19.4273 19.1085 19.3915 19.18C19.3558 19.2157 19.2844 19.2514 19.213 19.2871C19.1058 19.3228 18.9987 19.3585 18.8558 19.3585C18.713 19.3943 18.4987 19.3943 18.2844 19.3943C18.0701 19.3943 17.8558 19.3943 17.713 19.3585C17.5701 19.3228 17.4273 19.3228 17.3558 19.2871C17.2487 19.2514 17.213 19.2157 17.1773 19.18C17.1415 19.1443 17.1058 19.0728 17.1058 19.0014V8.28711C17.1058 8.03711 17.1773 7.82282 17.3201 7.71568C17.463 7.60854 17.6415 7.53711 17.8201 7.53711H20.8558C21.1773 7.53711 21.4273 7.53711 21.6058 7.57282C21.8201 7.57282 21.9987 7.60854 22.1415 7.60854C22.6058 7.67997 23.0344 7.78711 23.4273 7.96568C23.8201 8.14425 24.1415 8.35854 24.3915 8.60854C24.6415 8.85854 24.8558 9.17997 24.9987 9.53711C25.1415 9.89425 25.213 10.3228 25.213 10.7871C25.213 11.18 25.1773 11.5371 25.0701 11.8585C24.963 12.18 24.8201 12.4657 24.6415 12.7157C24.463 12.9657 24.213 13.18 23.9273 13.3943C23.6415 13.5728 23.3201 13.7514 22.963 13.8585C23.1415 13.93 23.3201 14.0371 23.463 14.18C23.6058 14.2871 23.7487 14.4657 23.8915 14.6085C24.0344 14.7871 24.1415 14.9657 24.2844 15.2157C24.3915 15.43 24.5344 15.68 24.6415 15.9657L25.6415 18.2871C25.7487 18.5014 25.7844 18.68 25.8201 18.7871C25.7487 18.8585 25.7844 18.93 25.7844 19.0014ZM22.6773 11.0014C22.6773 10.6085 22.6058 10.2871 22.4273 10.0014C22.2487 9.75139 21.963 9.53711 21.5701 9.42997C21.463 9.39425 21.3201 9.35854 21.1415 9.35854C20.9987 9.32282 20.7844 9.32282 20.4987 9.32282H19.4273V12.68H20.6415C20.9987 12.68 21.2844 12.6443 21.5344 12.5728C21.7844 12.5014 21.9987 12.3585 22.1773 12.2157C22.3558 12.0728 22.463 11.8943 22.5701 11.68C22.6415 11.4657 22.6773 11.2514 22.6773 11.0014Z" fill="#E30613"/>
<path d="M37.964 13.251C37.964 14.2153 37.8568 15.1081 37.6068 15.8581C37.3568 16.6438 36.9997 17.2867 36.5354 17.8224C36.0711 18.3581 35.464 18.7867 34.7497 19.0367C34.0354 19.3224 33.214 19.4653 32.2854 19.4653C31.3568 19.4653 30.5711 19.3581 29.8925 19.1081C29.214 18.8581 28.6425 18.501 28.1783 18.001C27.714 17.501 27.3925 16.8938 27.1425 16.1081C26.9283 15.3581 26.7854 14.4653 26.7854 13.3938C26.7854 12.4295 26.8925 11.5724 27.1425 10.8224C27.3925 10.0724 27.7497 9.39383 28.214 8.89383C28.6783 8.35812 29.2854 7.96526 29.9997 7.67955C30.714 7.39383 31.5354 7.25098 32.464 7.25098C33.3568 7.25098 34.1425 7.35812 34.8211 7.60812C35.4997 7.85812 36.0711 8.21526 36.5354 8.71526C36.9997 9.21526 37.3568 9.82241 37.5711 10.5724C37.8568 11.3581 37.964 12.251 37.964 13.251ZM35.464 13.3938C35.464 12.7867 35.4283 12.2153 35.3211 11.7153C35.214 11.2153 35.0711 10.7867 34.8211 10.4295C34.5711 10.0724 34.2854 9.78669 33.8925 9.60812C33.4997 9.39383 33.0354 9.32241 32.4283 9.32241C31.8211 9.32241 31.3568 9.42955 30.964 9.64383C30.5711 9.85812 30.2497 10.1795 29.9997 10.5367C29.7497 10.8938 29.5711 11.3224 29.4997 11.8224C29.3925 12.3224 29.3568 12.8581 29.3568 13.3938C29.3568 14.0367 29.3925 14.6081 29.4997 15.1438C29.6068 15.6438 29.7497 16.1081 29.9997 16.4653C30.214 16.8224 30.5354 17.1081 30.9283 17.2867C31.3211 17.4653 31.8211 17.5724 32.3925 17.5724C32.964 17.5724 33.464 17.4653 33.8568 17.251C34.2497 17.0367 34.5711 16.751 34.8211 16.3581C35.0711 15.9653 35.2497 15.5367 35.3211 15.0367C35.3925 14.501 35.464 13.9653 35.464 13.3938Z" fill="#E30613"/>
<path d="M49.7826 13.2153C49.7826 14.2867 49.6398 15.2153 49.354 16.001C49.0683 16.7867 48.6755 17.3938 48.1398 17.8938C47.604 18.3938 46.9612 18.751 46.2112 18.9653C45.4612 19.1795 44.5683 19.3224 43.4969 19.3224H40.6755C40.4612 19.3224 40.3183 19.251 40.1755 19.1438C40.0326 19.0367 39.9612 18.8224 39.9612 18.5724V8.25098C39.9612 8.00098 40.0326 7.78669 40.1755 7.67955C40.3183 7.57241 40.4969 7.50098 40.6755 7.50098H43.7112C44.7469 7.50098 45.6398 7.60812 46.3898 7.85812C47.104 8.10812 47.7469 8.46526 48.2469 8.96526C48.7469 9.46526 49.1398 10.0367 49.3898 10.751C49.6398 11.4653 49.7826 12.2867 49.7826 13.2153ZM47.2826 13.3224C47.2826 12.751 47.2112 12.251 47.104 11.751C46.9612 11.2867 46.7469 10.8581 46.4612 10.501C46.1755 10.1438 45.8183 9.85812 45.354 9.67955C44.8898 9.50098 44.3183 9.39383 43.5683 9.39383H42.354V17.4295H43.604C44.2469 17.4295 44.8183 17.3581 45.2469 17.1795C45.7112 17.001 46.0683 16.751 46.3898 16.3938C46.6755 16.0367 46.9255 15.6081 47.0683 15.1081C47.2112 14.5724 47.2826 14.001 47.2826 13.3224Z" fill="#E30613"/>
<path d="M61.3579 14.893C61.3579 15.6073 61.2508 16.2501 61.0365 16.8216C60.8222 17.393 60.5008 17.893 60.1079 18.2859C59.6794 18.6787 59.1794 18.9644 58.5722 19.1787C57.9651 19.393 57.2508 19.5001 56.4651 19.5001C55.7151 19.5001 55.0722 19.393 54.4651 19.2144C53.8579 19.0359 53.3937 18.7501 52.9651 18.3573C52.5722 17.9644 52.2508 17.5001 52.0365 16.9644C51.8222 16.393 51.7151 15.7501 51.7151 15.0001V7.82157C51.7151 7.75014 51.7508 7.71443 51.7865 7.643C51.8222 7.60728 51.8937 7.57157 51.9651 7.53585C52.0722 7.50014 52.1794 7.46443 52.3222 7.46443C52.4651 7.42871 52.6794 7.42871 52.8937 7.42871C53.1079 7.42871 53.3222 7.42871 53.4651 7.46443C53.6079 7.50014 53.7508 7.50014 53.8222 7.53585C53.9294 7.57157 53.9651 7.60728 54.0008 7.643C54.0365 7.67871 54.0722 7.75014 54.0722 7.82157V14.7859C54.0722 15.2501 54.1437 15.643 54.2508 16.0001C54.3579 16.3573 54.5365 16.643 54.7508 16.8573C54.9651 17.0716 55.2151 17.2501 55.5365 17.3573C55.8222 17.4644 56.1794 17.5359 56.5365 17.5359C56.9294 17.5359 57.2508 17.4644 57.5365 17.3573C57.8222 17.2501 58.0722 17.0716 58.2865 16.8573C58.5008 16.643 58.6437 16.3573 58.7508 16.0359C58.8579 15.7144 58.9294 15.3573 58.9294 14.9287V7.82157C58.9294 7.75014 58.9651 7.71443 59.0008 7.643C59.0365 7.60728 59.1079 7.57157 59.1794 7.53585C59.2865 7.50014 59.3937 7.46443 59.5365 7.46443C59.6794 7.42871 59.8937 7.42871 60.1079 7.42871C60.3222 7.42871 60.5365 7.42871 60.6794 7.46443C60.8222 7.50014 60.9651 7.50014 61.0365 7.53585C61.1437 7.57157 61.1794 7.60728 61.2151 7.643C61.2508 7.67871 61.2865 7.75014 61.2865 7.82157V14.893H61.3579Z" fill="#E30613"/>
<path d="M72.5321 18.9301C72.5321 19.0015 72.5321 19.073 72.4963 19.1087C72.4606 19.1444 72.3892 19.2158 72.3178 19.2515C72.2106 19.2872 72.1035 19.323 71.9249 19.323C71.7463 19.3587 71.5678 19.3587 71.3178 19.3587C70.9249 19.3587 70.6392 19.3587 70.4606 19.323C70.2821 19.2872 70.1749 19.2515 70.1035 19.1801C70.0321 19.1087 69.9606 19.0372 69.9249 18.9658L66.3535 13.3587V18.9658C66.3535 19.0372 66.3178 19.073 66.2821 19.1444C66.2463 19.1801 66.1749 19.2515 66.1035 19.2515C65.9963 19.2872 65.8892 19.323 65.7463 19.323C65.6035 19.3587 65.3892 19.3587 65.1749 19.3587C64.9606 19.3587 64.7463 19.3587 64.6035 19.323C64.4606 19.2872 64.3178 19.2872 64.2463 19.2515C64.1392 19.2158 64.1035 19.1801 64.0678 19.1444C64.0321 19.1087 63.9963 19.0372 63.9963 18.9658V7.85868C63.9963 7.78725 64.0321 7.75153 64.0678 7.68011C64.1035 7.64439 64.1749 7.60868 64.2463 7.57296C64.3535 7.53725 64.4606 7.50153 64.6035 7.50153C64.7463 7.46582 64.9606 7.46582 65.1749 7.46582C65.4249 7.46582 65.6035 7.46582 65.7463 7.50153C65.8892 7.53725 66.0321 7.53725 66.1035 7.57296C66.2106 7.60868 66.2463 7.64439 66.2821 7.68011C66.3178 7.71582 66.3535 7.78725 66.3535 7.85868V12.8587L69.8178 7.85868C69.8535 7.78725 69.9249 7.71582 69.9606 7.68011C70.0321 7.64439 70.1035 7.57296 70.2106 7.57296C70.3178 7.53725 70.4249 7.53725 70.5678 7.50153C70.7106 7.50153 70.9249 7.46582 71.1392 7.46582C71.3892 7.46582 71.5678 7.46582 71.7463 7.50153C71.8892 7.53725 72.0321 7.53725 72.1392 7.57296C72.2463 7.60868 72.2821 7.64439 72.3178 7.68011C72.3535 7.71582 72.3892 7.78725 72.3892 7.85868C72.3892 7.96582 72.3535 8.07296 72.3178 8.18011C72.2463 8.28725 72.1749 8.46582 71.9963 8.71582L68.7463 12.9658L72.2821 18.2872C72.4249 18.5372 72.4963 18.7158 72.5321 18.7872C72.5321 18.823 72.5321 18.8944 72.5321 18.9301Z" fill="#E30613"/>
<path d="M81.9612 8.50153C81.9612 8.68011 81.9612 8.82296 81.9255 8.96582C81.9255 9.07296 81.8898 9.18011 81.854 9.25153C81.8183 9.32296 81.7826 9.39439 81.7469 9.43011C81.7112 9.46582 81.6398 9.50153 81.604 9.50153H78.6398V19.0015C78.6398 19.073 78.604 19.1087 78.5683 19.1801C78.5326 19.2158 78.4612 19.2515 78.3898 19.2872C78.2826 19.323 78.1755 19.3587 78.0326 19.3587C77.8898 19.3944 77.6755 19.3944 77.4612 19.3944C77.2469 19.3944 77.0326 19.3944 76.8898 19.3587C76.7469 19.323 76.604 19.323 76.5326 19.2872C76.4255 19.2515 76.3898 19.2158 76.354 19.1801C76.3183 19.1444 76.2826 19.073 76.2826 19.0015V9.46582H73.3183C73.2469 9.46582 73.2112 9.43011 73.1755 9.39439C73.1397 9.35868 73.104 9.28725 73.0683 9.21582C73.0326 9.14439 73.0326 9.03725 72.9969 8.93011C72.9969 8.82296 72.9612 8.64439 72.9612 8.46582C72.9612 8.28725 72.9612 8.14439 72.9969 8.00153C72.9969 7.85868 73.0326 7.78725 73.0683 7.68011C73.104 7.60868 73.1397 7.53725 73.1755 7.50153C73.2112 7.46582 73.2826 7.46582 73.3183 7.46582H81.6398C81.7112 7.46582 81.7469 7.46582 81.7826 7.50153C81.8183 7.53725 81.854 7.57296 81.8898 7.68011C81.9255 7.75153 81.9255 7.85868 81.9612 8.00153C81.9612 8.14439 81.9612 8.32296 81.9612 8.50153Z" fill="#E30613"/>
</svg>
