<svg width="284" height="241" viewBox="0 0 284 241" fill="none" xmlns="http://www.w3.org/2000/svg">
<path d="M57.6784 17.0288C57.7784 15.8588 57.9683 14.5488 58.9083 13.8588C59.7483 13.2488 60.8883 13.3488 61.9083 13.5488C71.1783 15.3688 78.0883 23.0188 86.5883 27.1588C96.6083 32.0388 108.358 31.7988 119.368 30.0888C130.388 28.3888 141.238 25.3288 152.378 24.9288C157.378 24.7488 162.878 25.3088 166.408 28.8588C170.088 32.5588 170.488 38.5788 168.868 43.5488C167.248 48.5188 163.968 52.7388 160.958 57.0088C156.558 63.2488 152.608 69.8088 149.158 76.6288C145.778 83.3088 142.808 90.8888 144.708 98.1388C145.118 99.6988 145.818 101.289 147.148 102.199C148.488 103.109 150.208 103.179 151.828 103.169C170.558 103.129 189.158 98.3288 207.838 99.6788C213.788 100.109 219.878 101.239 224.878 104.499C229.158 107.289 232.328 111.449 235.408 115.519C239.698 121.189 243.988 126.849 248.278 132.519C251.668 136.999 255.118 141.569 257.048 146.859C258.828 151.739 259.238 157.019 259.258 162.209C259.318 181.879 253.548 202.099 240.368 216.689C239.348 217.819 238.208 218.959 236.728 219.329C234.238 219.949 231.678 218.049 230.618 215.719C229.548 213.379 229.578 210.719 229.518 208.149C229.318 200.029 227.988 191.939 225.558 184.179C223.738 178.329 220.188 171.809 214.088 171.239C207.468 170.619 202.548 177.689 201.568 184.269C200.588 190.849 201.938 197.689 200.288 204.139C198.418 211.469 192.488 217.619 185.228 219.749C184.358 213.769 183.498 207.789 182.628 201.809C182.198 198.829 181.708 195.699 179.898 193.289C176.398 188.639 169.318 188.469 163.858 190.469C158.388 192.469 153.618 196.129 148.068 197.899C141.758 199.899 134.598 199.419 128.948 202.879C124.398 205.669 121.648 210.549 118.518 214.879C115.388 219.209 111.138 223.429 105.798 223.709C102.928 223.859 99.9683 222.829 97.2383 223.709C90.7183 225.799 88.7383 237.329 82.0283 235.989C79.1783 235.419 77.3983 232.369 77.2283 229.469C77.0583 226.569 78.1084 223.749 78.9883 220.979C82.5984 209.619 83.4383 196.539 77.2283 186.369C71.6583 177.259 61.1083 171.559 57.2383 161.609C55.2783 156.579 55.2784 151.019 55.3984 145.619C55.9184 122.379 59.5184 99.8388 61.7884 76.7988C62.6084 68.4988 59.3084 60.6988 58.3184 52.4888C56.9084 40.7188 56.6984 28.8188 57.6784 17.0288Z" fill="white"/>
<path d="M102.558 98.4289C101.088 99.2089 99.5082 99.5689 97.9182 99.8989C97.8382 99.9189 97.7182 99.7589 97.6182 99.6889C98.8582 98.3889 100.448 97.9289 102.558 98.4289Z" fill="black"/>
<path d="M95.9082 97.5887C97.7682 96.6287 99.1782 95.1987 101.248 95.2887C101.318 95.2887 101.378 95.4887 101.438 95.5887C101.368 95.6887 101.318 95.8487 101.218 95.8887C99.6382 96.5887 98.0582 97.2787 96.4782 97.9587L96.2982 97.9087C96.2482 97.8687 96.1982 97.8187 95.9082 97.5887Z" fill="black"/>
<path d="M114.588 79.5288C115.398 79.7688 115.868 79.9388 116.358 80.0488C116.648 80.1088 117.058 79.7088 116.968 79.4488C116.898 79.2388 116.698 78.9788 116.498 78.9188C115.958 78.7688 115.828 78.8388 114.588 79.5288Z" fill="black"/>
<path d="M111.328 80.8087C111.598 80.5987 111.818 80.4687 111.978 80.2887C112.178 80.0587 112.098 79.8187 111.888 79.6087C111.678 79.3987 111.408 79.2987 111.208 79.5087C111.008 79.7187 110.838 80.0187 110.798 80.2987C110.778 80.4287 111.108 80.6087 111.328 80.8087Z" fill="black"/>
<path d="M111.328 84.7687C111.458 84.5887 111.718 84.3687 111.778 84.0987C111.868 83.7187 111.558 83.4587 111.218 83.4587C111.028 83.4587 110.738 83.6687 110.658 83.8587C110.498 84.2287 110.828 84.7187 111.328 84.7687Z" fill="black"/>
<path d="M93.0079 79.5288C92.1979 79.7688 91.7279 79.9388 91.2379 80.0488C90.9479 80.1088 90.5379 79.7088 90.6279 79.4488C90.6979 79.2388 90.8979 78.9788 91.0979 78.9188C91.6279 78.7688 91.7679 78.8388 93.0079 79.5288Z" fill="black"/>
<path d="M96.2681 80.8087C95.9981 80.5987 95.7781 80.4687 95.6181 80.2887C95.4181 80.0587 95.4981 79.8187 95.7081 79.6087C95.9181 79.3987 96.1881 79.2987 96.3881 79.5087C96.5881 79.7187 96.7581 80.0187 96.7981 80.2987C96.8181 80.4287 96.4881 80.6087 96.2681 80.8087Z" fill="black"/>
<path d="M96.2685 84.7687C96.1385 84.5887 95.8785 84.3687 95.8185 84.0987C95.7285 83.7187 96.0385 83.4587 96.3785 83.4587C96.5685 83.4587 96.8585 83.6687 96.9385 83.8587C97.0985 84.2287 96.7685 84.7187 96.2685 84.7687Z" fill="black"/>
<path d="M26.4781 109.089C26.2681 110.169 26.3481 110.859 26.0481 111.169C20.8781 116.489 17.6081 123.409 11.7581 128.139C11.1981 128.589 10.5681 128.949 9.53809 128.969C9.70809 128.469 9.71808 127.799 10.0681 127.489C14.6481 123.359 17.7481 118.009 21.7581 113.409C22.6181 112.429 23.4681 111.439 24.3981 110.529C24.8381 110.079 25.4481 109.789 26.4781 109.089Z" fill="#EB584A"/>
<path d="M22.5082 101.699C18.9282 101.699 15.5382 101.709 12.1482 101.699C8.52819 101.689 4.93818 101.369 1.44818 100.329C0.618182 100.079 -0.421807 99.8788 0.178193 98.2888C0.988193 98.3888 1.87818 98.3588 2.69818 98.6088C6.79818 99.8688 10.9982 99.8588 15.2082 99.7588C17.1082 99.7188 19.0182 99.6688 20.9182 99.5988C22.1882 99.5388 22.8082 100.039 22.5082 101.699Z" fill="#EB584A"/>
<path d="M254.318 106.249C255.098 105.039 255.358 104.499 255.748 104.059C258.778 100.589 261.838 97.1287 264.888 93.6687C265.878 92.5387 266.788 91.3387 267.848 90.2887C268.178 89.9687 268.878 90.0287 269.408 89.9087C269.438 90.4487 269.668 91.1087 269.438 91.4987C268.898 92.4487 268.298 93.4687 267.448 94.1087C264.028 96.6887 261.538 100.099 258.768 103.279C257.978 104.189 257.258 105.169 256.388 105.989C256.118 106.249 255.458 106.119 254.318 106.249Z" fill="#EB584A"/>
<path d="M7.47807 73.0088C7.74807 73.0388 8.10809 72.9788 8.28809 73.1188C14.4881 78.1988 20.6681 83.2988 26.9281 88.4588C26.3581 89.7888 25.5081 89.1888 24.8081 88.6888C22.6881 87.1588 20.5381 85.6588 18.5281 83.9988C15.4281 81.4388 12.4181 78.7888 9.40808 76.1288C8.53808 75.3588 7.82809 74.4088 7.03809 73.5388C7.19809 73.3588 7.33807 73.1788 7.47807 73.0088Z" fill="#EB584A"/>
<path d="M259.708 127.999C260.568 126.729 261.208 127.129 261.738 127.619C262.918 128.709 263.998 129.899 265.188 130.969C268.238 133.719 271.328 136.409 274.378 139.159C275.138 139.839 276.288 140.409 275.478 142.099C269.028 138.589 264.908 132.749 259.708 127.999Z" fill="#EB584A"/>
<path d="M283.088 112.479C283.088 113.079 283.088 113.559 283.088 114.079C282.738 114.169 282.468 114.299 282.188 114.309C278.078 114.449 273.968 114.499 269.868 114.739C267.988 114.849 266.118 115.319 264.258 115.679C263.428 115.839 262.658 116.069 262.258 114.759C262.688 114.499 263.128 114.079 263.648 113.959C265.408 113.559 267.178 113.079 268.968 112.979C273.548 112.719 278.148 112.639 283.088 112.479Z" fill="#EB584A"/>
<path d="M72.848 41.4788C73.508 42.2788 74.198 43.3488 73.728 44.2788C73.518 44.6988 73.098 44.9688 72.708 45.2288C69.558 47.2588 66.408 49.2988 63.258 51.3288C62.588 51.7588 61.858 52.2188 61.058 52.1788C59.528 52.1188 58.648 50.3388 58.608 48.8088C58.588 47.8488 58.758 46.8788 59.128 45.9888C59.968 43.9188 61.578 42.2988 62.348 40.1888C62.898 38.6788 62.648 35.0588 63.848 33.8988C66.528 31.2888 70.898 39.0988 72.848 41.4788Z" fill="#BCBCBB"/>
<path d="M137.848 40.7787C138.148 40.0687 138.738 39.5287 139.338 39.0487C144.048 35.1887 150.008 33.1987 155.958 31.8787C157.198 31.6087 158.498 31.3587 159.718 31.7087C160.938 32.0587 162.028 33.1887 161.898 34.4487C161.738 35.9087 160.168 36.7287 158.758 37.1487C155.498 38.1187 151.638 38.5687 149.728 41.3887C148.528 43.1687 148.458 45.4587 148.558 47.6087C148.598 48.4287 148.648 49.2987 148.248 50.0087C147.898 50.6387 147.238 51.0587 146.548 51.2887C142.828 52.5087 136.528 43.8387 137.848 40.7787Z" fill="#BCBCBB"/>
<path d="M98.4284 198.249C97.9984 192.979 98.0184 187.169 101.338 183.059C103.478 180.399 106.698 178.869 109.848 177.549C116.978 174.579 124.378 172.269 131.938 170.679C130.698 175.709 127.258 179.869 123.918 183.839C123.168 184.729 122.398 185.639 121.368 186.189C120.478 186.669 119.448 186.839 118.468 187.069C110.218 189.019 103.448 196.199 101.998 204.549C101.808 205.669 100.708 214.379 98.4684 210.319C97.9484 209.369 98.8884 205.419 98.8484 204.179C98.7984 202.199 98.5884 200.219 98.4284 198.249Z" fill="#BCBCBB"/>
<path d="M206.608 182.889C209.748 181.519 212.918 180.139 215.618 178.039C209.808 175.579 204.438 172.089 199.828 167.779C198.248 166.309 196.488 164.629 194.328 164.729C192.538 164.819 191.068 166.139 189.878 167.479C187.108 170.599 204.418 181.199 201.578 184.249C193.098 193.349 164.708 195.849 152.908 200.139C157.628 200.139 163.448 197.959 168.048 196.819C171.038 196.079 173.928 195.079 176.858 194.139C187.028 190.889 196.818 187.149 206.608 182.889Z" fill="#BCBCBB"/>
<path d="M156.968 114.289C162.378 115.019 167.858 113.759 173.038 112.059C178.218 110.349 183.268 108.189 188.598 107.009C192.788 106.079 197.108 105.779 201.278 104.739C201.608 104.409 201.108 103.909 200.678 103.719C196.378 101.829 191.978 99.9787 187.298 99.5087C183.298 99.1087 179.278 99.7287 175.318 100.359C166.848 101.689 157.578 102.159 149.328 104.449C139.928 107.049 152.318 114.289 156.968 114.289Z" fill="#BCBCBB"/>
<path d="M65.0981 119.439C65.5481 121.819 65.5581 124.249 65.5681 126.669C65.5981 139.119 65.5881 151.579 65.5281 164.029C65.5281 164.959 65.4481 166.029 64.6781 166.559C63.4581 167.409 61.9081 166.069 61.1181 164.809C57.1781 158.439 56.1881 150.739 55.2981 143.299C54.0081 132.589 52.7281 121.879 51.4381 111.179C51.1081 108.409 48.6481 100.719 51.9881 99.2289C55.3081 97.7489 57.4581 104.049 58.7981 106.169C61.4381 110.299 64.1681 114.539 65.0981 119.439Z" fill="#BCBCBB"/>
<path d="M97.3385 102.089C96.6285 100.569 94.4185 90.3588 91.4985 92.8388C90.2885 93.8588 92.6185 96.9188 93.2385 98.0688C93.7285 98.9788 94.1285 100.079 94.8885 100.809C95.1885 101.099 97.3385 102.089 97.3385 102.089Z" fill="#BCBCBB"/>
<path d="M108.118 2.07878C109.908 1.33878 111.888 0.588781 113.738 1.18878C115.918 1.89878 117.158 4.37878 117.018 6.66878C116.878 8.95878 115.648 11.0388 114.218 12.8288C111.188 16.6088 107.138 19.4788 104.088 23.2488C102.238 21.0488 99.8482 19.2988 97.1782 18.1988C95.2782 17.4088 93.1782 16.9188 91.6382 15.5388C89.6482 13.7488 89.0682 10.8988 88.6082 8.26878C88.4182 7.19878 88.2282 6.09878 88.4082 5.02878C88.5882 3.95878 89.2082 2.89878 90.2182 2.48878C91.0482 2.14878 91.9782 2.29878 92.8482 2.49878C94.3282 2.83878 95.7682 3.32878 97.1582 3.94878C98.1682 4.39878 100.628 6.51878 101.578 6.49878C102.668 6.47878 103.298 4.91878 104.188 4.17878C105.328 3.22878 106.768 2.63878 108.118 2.07878Z" fill="#EB584A"/>
<path d="M115.818 89.4788C115.608 91.3388 113.598 101.539 110.218 97.5088C108.978 96.0388 110.258 93.1688 111.178 91.8688C111.478 91.4388 115.918 88.5088 115.818 89.4788Z" fill="#BCBCBB"/>
<path d="M58.498 66.5487C60.308 67.6087 60.408 69.3187 59.968 71.0187C59.518 72.7587 58.848 74.4587 58.088 76.0887C56.608 79.2787 55.008 82.4087 53.428 85.5487C52.778 86.8387 52.208 87.9587 53.228 89.4487C53.778 90.2687 53.738 91.5687 53.748 92.6487C53.788 95.6687 53.548 98.6887 53.728 101.699C54.028 106.799 54.548 111.889 55.028 117.499C56.678 114.569 58.168 112.149 59.428 109.619C60.728 107.019 61.858 104.329 62.978 101.649C64.078 99.0387 64.768 96.2287 67.088 93.4587C67.218 94.6687 67.518 95.3687 67.308 95.8587C65.068 101.009 62.788 106.149 60.428 111.249C59.038 114.259 57.478 117.189 56.028 120.169C55.808 120.609 55.598 121.119 55.598 121.589C55.658 125.099 55.708 128.579 56.728 132.029C58.728 138.799 62.088 144.999 64.568 151.569C65.738 154.659 67.048 157.689 68.248 160.769C68.528 161.479 68.598 162.269 68.828 163.269C66.748 162.659 65.808 161.379 65.208 159.719C63.988 156.319 62.798 152.909 61.488 149.549C60.398 146.749 59.138 144.019 57.818 140.929C57.038 143.229 57.868 145.089 58.058 146.959C58.288 149.249 58.788 151.519 59.058 153.809C59.318 155.919 59.708 157.879 61.028 159.699C61.868 160.859 62.078 162.489 62.548 163.909C63.268 166.119 64.598 167.539 67.088 167.559C67.578 167.559 68.068 167.679 68.838 167.789C68.748 166.629 68.678 165.619 68.568 164.249C70.618 165.259 70.798 167.119 71.728 168.559C70.238 169.929 68.498 169.029 67.008 169.449C67.868 171.699 68.898 172.839 73.668 176.759C72.978 177.049 72.418 177.279 71.718 177.569C73.128 179.499 74.568 181.479 76.008 183.449C76.708 183.549 77.438 182.419 78.058 183.549C78.198 183.809 78.418 184.049 78.518 184.319C80.928 191.099 84.458 197.519 84.668 204.999C84.798 209.599 85.338 214.199 85.858 218.789C86.068 220.669 85.328 221.859 83.898 222.809C82.308 223.869 80.688 224.879 79.098 225.919C77.238 227.129 76.008 228.749 75.738 231.019C75.558 232.509 75.868 233.789 77.328 234.899C77.598 234.409 77.978 234.039 78.008 233.629C78.208 230.679 80.088 228.929 82.338 227.459C82.728 227.209 83.588 227.129 83.868 227.379C84.578 228.029 84.108 228.709 83.428 229.059C81.018 230.319 80.178 232.459 79.878 235.069C82.668 236.859 85.798 236.689 88.858 237.099C89.858 234.519 90.398 231.879 92.728 230.149C93.928 230.509 93.958 231.229 93.358 232.159C92.438 233.589 91.338 234.939 91.448 236.999C93.838 237.079 96.188 236.369 97.788 234.949C99.528 233.399 99.708 230.739 99.238 228.449C98.968 227.149 98.628 225.809 97.088 224.829C94.388 223.099 93.658 218.079 95.288 215.289C95.938 214.159 96.538 212.929 97.458 212.049C100.608 209.049 101.138 205.039 101.958 201.129C102.208 199.959 102.348 198.759 102.568 197.579C103.488 192.689 106.898 190.129 111.198 188.419C113.808 187.389 116.408 186.329 119.048 185.359C120.738 184.729 122.468 184.199 124.198 183.679C124.928 183.459 124.948 183.529 126.268 184.569C123.788 186.629 121.228 188.409 118.288 189.779C113.908 191.819 109.868 194.469 106.978 198.489C106.198 199.569 105.688 200.829 104.858 202.369C107.128 202.139 108.648 200.779 111.178 201.249C109.388 201.999 108.238 202.569 107.028 202.969C105.008 203.629 103.978 204.979 103.738 207.229C106.258 206.289 108.448 204.819 111.098 204.649C108.468 206.479 105.178 207.209 102.748 209.639C103.348 210.429 103.868 211.119 104.498 211.949C102.608 212.939 100.438 213.519 99.498 215.579C99.108 216.429 99.028 217.419 98.658 218.949C100.708 217.609 102.168 216.659 103.608 215.719C104.668 216.739 103.898 217.249 103.368 217.819C102.488 218.759 101.448 219.609 100.778 220.679C99.808 222.229 100.198 223.389 101.948 223.989C103.528 224.529 105.248 224.679 106.888 224.999C107.988 222.869 108.748 220.669 111.178 220.059C111.588 219.949 112.148 220.409 112.818 220.679C111.668 222.099 109.298 222.309 109.868 224.799C113.738 224.469 116.878 222.969 118.518 219.339C119.748 216.619 120.838 213.839 121.468 210.829C122.008 208.229 123.378 205.779 124.558 203.359C124.838 202.789 125.778 202.389 126.488 202.219C128.928 201.629 131.398 201.159 133.858 200.659C134.448 200.539 135.068 200.289 135.638 200.369C139.738 200.969 143.308 199.179 147.018 197.989C148.168 197.619 149.268 197.099 150.408 196.729C152.108 196.179 152.268 196.299 152.868 198.159C152.928 198.349 152.998 198.529 153.078 198.699C153.118 198.779 153.218 198.839 153.388 198.999C154.188 198.809 155.118 198.729 155.918 198.369C160.088 196.489 164.618 195.969 168.978 194.849C172.278 193.999 175.528 192.979 178.808 192.039C180.348 191.589 181.878 191.039 183.448 190.709C188.408 189.699 193.028 187.739 197.638 185.719C201.778 183.909 205.928 182.149 210.088 180.369C211.408 179.809 212.728 179.739 214.418 180.309C212.788 182.399 210.438 182.149 208.718 183.159C206.818 184.269 204.798 185.189 202.778 186.069C200.848 186.909 198.828 187.559 196.878 188.349C194.828 189.179 192.828 190.119 190.758 190.909C188.788 191.649 186.758 192.249 184.598 192.969C184.598 194.449 184.488 195.929 184.628 197.389C184.798 199.209 184.338 200.709 183.128 202.099C181.688 203.769 180.328 205.529 179.058 207.329C178.048 208.769 177.698 210.349 178.988 212.669C180.158 208.379 181.408 204.799 185.458 203.399C186.468 204.309 186.888 205.059 185.758 205.989C182.178 208.969 182.088 209.139 181.628 213.469C183.848 214.479 187.758 214.569 189.958 213.789C190.768 211.549 191.438 209.479 192.288 207.489C192.628 206.699 193.348 206.039 193.998 205.419C194.538 204.909 195.338 204.629 195.808 205.399C196.018 205.749 195.858 206.609 195.548 206.949C194.168 208.469 193.258 210.169 192.828 212.399C194.738 211.199 196.598 210.269 198.128 208.949C198.938 208.249 199.328 206.899 199.608 205.769C200.528 202.029 200.548 198.209 200.478 194.379C200.448 193.069 200.398 191.759 200.448 190.459C200.478 189.809 200.728 189.179 200.888 188.459C202.118 188.689 202.308 189.469 202.368 190.259C202.788 195.779 202.978 201.339 201.608 206.739C200.908 209.499 199.598 212.129 196.938 213.809C193.948 215.699 190.968 217.439 187.328 217.859C185.438 218.079 183.768 217.259 182.028 217.169C179.148 217.019 177.448 215.349 175.878 213.399C173.768 210.799 173.698 208.719 175.578 205.969C176.478 204.649 177.508 203.389 178.628 202.239C180.898 199.919 180.958 197.119 180.898 193.979C170.818 196.649 161.048 199.239 151.068 201.879C150.848 200.799 150.678 199.959 150.478 198.959C150.138 198.959 149.728 198.869 149.378 198.969C145.808 199.989 142.278 201.139 138.688 202.059C135.978 202.749 133.208 203.209 130.448 203.649C128.548 203.959 127.008 204.589 126.308 206.569C125.538 208.739 124.688 210.869 123.858 213.009C122.628 216.189 121.458 219.399 120.118 222.529C119.008 225.129 116.478 226.489 114.468 228.239C113.788 228.829 112.358 228.789 111.308 228.679C107.948 228.319 104.598 227.799 101.248 227.329C100.938 230.349 100.608 233.589 100.278 236.919C96.168 238.469 92.558 240.819 88.048 240.189C86.868 240.029 85.638 240.249 84.438 240.319C80.198 240.569 76.888 238.419 73.868 235.909C72.048 234.389 71.898 231.949 72.388 229.729C72.818 227.769 73.708 225.979 75.578 224.799C78.198 223.149 80.708 221.349 83.668 219.339C83.668 219.029 83.708 218.239 83.658 217.459C83.338 212.559 83.188 207.629 82.608 202.749C82.158 198.979 81.308 195.239 79.758 191.709C78.998 189.979 78.478 188.109 76.428 187.359C76.088 187.229 75.818 186.839 75.568 186.529C71.588 181.609 67.578 176.709 63.648 171.749C62.778 170.659 62.148 169.369 61.478 168.139C60.948 167.189 60.618 166.239 59.308 165.869C58.728 165.699 58.218 164.519 58.058 163.719C57.298 159.979 56.618 156.219 55.998 152.449C55.218 147.699 54.468 142.939 53.808 138.159C53.428 135.379 53.198 132.569 52.998 129.759C52.458 121.949 51.868 114.149 50.728 106.379C50.108 102.119 50.078 97.7787 49.778 93.3587C48.738 93.6087 47.698 93.8687 46.428 94.1787C46.348 93.4787 46.058 92.8287 46.258 92.4487C47.608 89.8887 49.188 87.4587 50.448 84.8587C52.818 79.9887 55.048 75.0487 57.278 70.1187C57.808 68.9387 58.118 67.6487 58.538 66.4187L58.498 66.5487Z" fill="black"/>
<path d="M170.888 99.6788C171.018 100.239 171.138 100.789 171.348 101.699C174.048 100.819 176.608 99.9988 179.168 99.1588C182.608 98.0288 186.038 96.9089 189.468 95.7589C190.628 95.3689 191.598 95.6988 191.918 96.7988C192.418 98.5288 193.728 98.8288 195.138 98.9888C196.738 99.1688 198.348 99.2188 199.948 99.3389C206.458 99.8089 212.968 100.299 219.488 100.749C223.208 101.009 226.408 102.739 229.918 104.219C229.818 104.669 229.728 105.099 229.638 105.519C232.668 108.819 235.838 112.159 238.878 115.609C243.818 121.209 248.128 127.229 250.908 134.239C251.538 135.819 252.308 137.359 253.138 138.849C253.708 139.859 253.418 140.529 252.648 141.189C252.098 141.079 251.538 140.969 250.658 140.789C252.558 146.549 252.738 152.229 252.288 157.959C251.668 165.799 250.348 173.489 247.898 180.999C245.858 187.269 244.988 193.599 246.168 200.289C247.328 206.869 245.168 212.789 240.538 217.689C239.938 218.319 239.108 218.849 238.278 219.139C231.168 221.599 227.198 220.879 222.388 216.489C220.758 214.999 220.338 213.019 220.478 210.989C220.598 209.219 220.988 207.489 222.048 205.889C223.658 203.479 224.818 200.969 224.738 197.789C224.648 194.649 225.348 191.449 225.998 188.339C226.308 186.849 225.908 186.059 224.808 185.309C220.808 182.619 216.818 179.929 212.818 177.229C207.898 173.919 202.898 170.719 198.088 167.259C194.608 164.769 191.708 161.699 191.228 157.029C189.798 157.639 188.568 158.159 187.118 158.779C186.948 158.029 186.638 157.489 186.778 157.149C189.378 150.849 191.118 144.199 194.418 138.179C194.898 137.299 195.268 136.349 196.658 136.179C197.328 137.419 196.948 138.639 196.468 139.799C195.168 142.949 193.808 146.079 192.468 149.219C191.958 150.409 191.458 151.609 190.838 153.089C191.678 152.999 192.228 152.939 193.128 152.839C193.368 153.579 193.828 154.379 193.848 155.179C193.938 160.019 196.588 163.299 200.358 165.779C207.498 170.459 214.738 174.979 221.908 179.599C223.988 180.939 226.178 182.209 227.988 183.869C229.168 184.959 229.748 186.699 230.668 188.259C227.028 189.619 228.448 192.419 228.318 195.199C229.848 194.719 231.098 194.329 232.358 193.929C232.418 194.059 232.488 194.199 232.548 194.329C231.168 195.159 229.788 195.989 228.038 197.029C229.978 197.579 231.278 196.449 232.848 196.949C231.708 197.409 230.528 197.799 229.458 198.369C228.808 198.719 227.838 199.349 227.818 199.889C227.708 202.999 225.678 205.269 224.538 207.909C224.028 209.099 223.258 210.219 223.998 211.819C224.658 210.409 225.098 209.059 225.868 207.939C226.668 206.769 227.618 205.469 229.788 206.049C229.298 206.819 229.008 207.419 228.598 207.909C227.118 209.669 226.348 211.659 226.338 213.989C226.338 215.649 226.628 216.229 228.048 216.689C230.578 217.509 232.958 217.359 235.818 216.139C235.958 213.449 235.918 210.559 238.088 208.389C238.588 207.889 239.308 207.619 240.428 206.939C240.118 210.199 237.148 212.059 238.218 215.209C240.048 213.739 241.978 212.449 242.738 210.209C243.768 207.159 244.538 204.029 243.948 200.749C243.738 199.559 243.418 198.369 243.418 197.179C243.408 194.989 243.478 192.789 243.728 190.609C244.018 188.129 244.548 185.669 244.988 183.129C242.658 181.329 239.978 180.469 237.368 179.499C236.328 179.109 235.218 178.889 234.268 178.349C233.538 177.939 232.618 177.249 232.468 176.539C232.128 174.969 231.158 174.649 229.868 174.599C227.738 174.519 225.728 174.179 223.918 172.849C223.248 172.359 222.198 172.359 221.308 172.199C218.588 171.699 216.168 170.569 213.888 169.019C212.668 168.189 211.268 167.559 209.878 167.039C206.868 165.919 203.798 164.969 200.778 163.869C199.978 163.579 199.298 162.989 198.678 161.949C199.268 161.919 199.908 161.729 200.428 161.899C204.048 163.079 207.638 164.329 211.238 165.559C212.848 166.109 214.338 166.709 215.728 167.859C217.678 169.479 220.178 170.129 222.728 170.349C224.218 170.479 225.578 170.659 226.898 171.709C227.798 172.419 229.358 172.409 230.648 172.489C232.548 172.599 233.968 173.049 234.298 175.249C234.388 175.819 234.968 176.569 235.508 176.789C238.758 178.109 242.058 179.299 245.498 180.599C245.778 180.099 246.138 179.619 246.318 179.089C249.098 170.709 250.078 162.049 250.428 153.279C250.598 148.899 249.608 144.699 248.458 140.519C248.328 140.039 248.168 139.579 247.978 138.949C248.688 138.519 249.318 138.129 249.998 137.719C249.958 137.419 249.978 137.109 249.868 136.849C247.828 131.809 245.148 127.169 242.038 122.669C239.098 118.419 235.538 114.759 232.388 110.729C230.978 108.929 229.108 107.479 227.338 105.999C226.788 105.539 225.888 105.369 225.128 105.329C219.018 104.929 212.868 104.849 206.788 104.159C202.118 103.639 197.498 102.489 192.918 101.379C191.668 101.079 190.618 99.8989 189.098 98.8589C185.148 100.239 180.818 101.799 176.448 103.249C174.738 103.819 172.958 104.179 171.188 104.559C170.508 104.709 169.588 104.969 169.128 104.649C166.598 102.919 164.048 104.079 161.638 104.629C156.088 105.909 150.588 106.679 144.938 105.379C144.378 105.249 143.708 105.649 142.878 105.849C141.958 103.279 141.348 100.759 142.668 98.0889C143.068 97.2888 143.238 96.3788 143.518 95.5188C143.668 95.0488 143.698 94.3989 144.028 94.1389C146.138 92.4989 146.428 89.7989 147.858 87.7789C148.628 86.6889 148.538 85.5289 147.908 84.3589C144.258 77.5389 146.198 71.3088 150.108 65.4088C151.488 63.3288 153.268 61.5289 154.868 59.5989C159.768 53.6988 164.228 47.5289 167.048 40.3188C168.148 37.5189 169.328 34.7489 170.508 31.8689C169.808 31.0989 168.858 30.5188 169.188 29.0188C169.848 25.9688 168.198 24.2188 165.058 24.5288C163.468 24.6888 161.918 25.1889 160.358 25.5789C155.978 26.6689 151.578 27.7489 147.218 28.9189C145.498 29.3789 143.828 30.0588 142.148 30.6588C139.118 31.7288 136.088 32.7888 133.078 33.9088C131.858 34.3588 130.658 34.8989 129.508 35.4989C128.498 36.0289 127.808 35.8689 127.128 34.5089C128.028 33.7589 128.898 32.7988 129.968 32.1888C132.148 30.9488 134.438 29.9089 136.698 28.7889C137.058 28.6089 137.438 28.4489 137.828 28.3889C146.218 27.1489 154.048 23.9589 162.058 21.4189C164.988 20.4889 167.728 20.2589 170.458 21.9189C172.998 23.4589 174.328 26.2189 173.528 29.0889C172.808 31.6889 171.898 34.2488 170.868 36.7388C168.958 41.3788 166.938 45.9588 164.298 50.2688C161.598 54.6788 158.248 58.5289 154.948 62.4489C152.478 65.3789 150.108 68.3488 149.058 72.1588C147.958 76.1288 147.568 80.0389 149.768 83.7589C150.928 85.7189 150.838 87.3689 149.558 89.3089C148.138 91.4789 147.068 93.8989 146.018 96.2789C145.298 97.9089 145.528 99.7188 146.278 101.259C146.638 102.009 147.748 102.619 148.628 102.839C151.358 103.529 154.028 102.769 156.628 102.009C159.908 101.059 163.148 99.9589 166.368 98.8389C167.398 98.4889 168.198 98.2488 169.058 99.2388C169.358 99.6388 170.228 99.5489 170.888 99.6788Z" fill="black"/>
<path d="M84.1879 78.9887C84.7279 80.2087 85.1679 81.0887 85.5079 81.9987C87.3479 86.9787 90.7079 88.1687 95.8879 87.4387C98.5879 87.0587 100.228 84.8287 101.318 82.5787C99.1479 79.1987 97.0879 76.0187 95.0179 72.7987C96.1479 69.9887 98.4779 68.8587 101.068 68.2987C103.558 67.7587 106.078 67.9787 108.408 69.1387C109.208 69.5387 110.018 70.0187 110.648 70.6287C112.828 72.7787 112.828 74.7087 110.578 76.7787C108.308 78.8687 105.908 80.8187 103.568 82.8387C107.698 88.0487 112.658 88.7087 117.878 84.8187C119.578 83.5487 121.218 82.2787 122.418 80.4787C122.868 79.7987 123.648 79.3387 124.298 78.7587C125.338 79.9287 124.828 80.7087 124.228 81.3887C123.038 82.7387 121.818 84.0787 120.548 85.3587C119.448 86.4587 118.318 87.3987 117.458 88.8587C116.518 90.4687 114.538 91.5387 112.878 92.6487C111.548 93.5387 110.668 94.3887 110.518 96.1587C110.238 99.5987 107.988 101.719 104.988 103.099C102.828 104.089 100.738 103.969 98.7179 102.599C95.9079 100.699 93.7679 97.3987 93.2479 93.7087C88.1379 91.7787 85.9479 87.1087 83.8079 82.4387C83.4079 81.5887 82.7179 80.4487 84.1879 78.9887ZM102.768 85.2587C101.218 86.4687 99.7379 87.4787 98.4379 88.6687C96.4779 90.4487 95.4179 92.8687 95.8379 95.3887C96.3279 98.2887 98.3779 100.329 101.108 101.539C101.538 101.729 102.118 101.839 102.548 101.709C105.288 100.889 107.488 99.3487 108.248 96.4387C108.988 93.6087 108.908 90.7887 106.718 88.5387C105.478 87.2687 103.968 86.2387 102.768 85.2587Z" fill="black"/>
<path d="M58.5581 66.4988C55.9481 66.6988 55.7281 66.6488 55.1081 64.3688C54.3981 61.7588 54.0881 59.0288 53.2681 56.4588C51.8081 51.8788 50.0681 47.3888 48.4981 42.8488C48.0081 41.4288 47.5381 39.9888 47.2681 38.5188C46.2881 33.1888 45.3081 27.8688 44.5181 22.5088C44.0281 19.1788 44.7581 16.0188 47.4481 13.7388C49.8981 11.6588 52.7681 10.4388 56.0281 11.3888C61.8881 13.0988 67.0681 16.0788 71.6781 20.0788C72.8081 21.0588 74.0881 21.8488 75.3181 22.6988C76.9081 23.8088 78.1881 25.0388 76.8481 27.3388C80.1181 30.0888 83.2581 32.7188 86.6181 35.5388C89.9281 34.0188 93.1781 32.5288 96.6081 30.9588C96.9781 31.5788 97.3581 32.2188 97.8481 33.0388C100.168 32.6588 102.568 32.4188 104.898 31.8688C109.348 30.8188 113.858 30.6688 118.388 30.8588C120.758 30.9588 122.788 31.9688 125.188 33.6788C123.398 33.9588 122.178 33.6388 121.038 33.3988C116.398 32.4388 111.808 33.1488 107.238 33.7288C103.568 34.1988 99.9381 35.0188 96.2981 35.7688C94.9981 36.0388 94.1581 35.6488 93.7181 34.2388C91.7781 35.0288 90.0081 35.6988 88.2781 36.4888C86.9581 37.0888 85.8481 36.9588 84.6181 36.1488C80.5481 33.4688 77.2681 29.9288 73.8581 26.5188C73.5781 26.2388 73.1181 25.7788 73.1981 25.5688C73.9181 23.6488 72.2081 23.2388 71.2881 22.3488C67.5681 18.7188 62.8881 16.5388 58.4981 13.9188C56.6681 12.8288 54.6381 12.7288 52.6481 12.9988C51.7781 13.1188 50.9981 13.9788 50.1781 14.4988C48.9181 13.9588 48.4481 14.5288 48.1981 16.1988C49.1181 15.4088 49.6681 14.9288 50.2181 14.4488C48.8881 17.3888 47.8181 20.3688 47.9981 23.6988C48.2281 27.9388 49.2981 31.9888 50.5181 36.0088C51.5981 39.5588 52.9981 43.0188 53.8181 46.6188C55.0881 52.1888 56.2881 57.7588 58.3981 63.0888C58.8381 64.2088 59.1581 65.3888 58.4881 66.5588L58.5581 66.4988Z" fill="black"/>
<path d="M101.728 5.41881C102.098 4.97881 102.428 4.6188 102.708 4.2288C104.428 1.8988 106.768 0.708799 109.628 0.568799C111.028 0.508799 112.438 0.478802 113.838 0.578802C116.918 0.798802 118.128 2.22881 117.558 5.3088C117.238 7.04881 116.658 8.8788 115.698 10.3488C113.338 13.9488 110.738 17.3888 108.148 20.8288C107.248 22.0188 106.148 23.0788 105.048 24.1088C104.358 24.7488 103.508 25.2288 102.388 26.0188C102.008 23.6588 100.588 22.7088 99.008 21.8288C97.168 20.8088 95.428 19.6188 93.648 18.4888C89.418 15.8088 87.378 11.9588 87.258 6.9488C87.198 4.2688 88.388 2.34881 90.248 0.668805C91.308 -0.291194 92.488 -0.101198 93.608 0.508802C96.018 1.8388 98.948 2.3188 100.618 4.8788C100.788 5.1488 101.278 5.20881 101.728 5.41881ZM115.228 2.8488C113.118 2.0388 110.858 2.15881 108.778 2.73881C106.238 3.45881 103.938 4.7188 103.948 8.0088C103.948 8.8288 103.408 9.6488 102.918 11.0288C101.828 9.7288 101.048 8.8888 100.368 7.9588C98.528 5.4488 96.018 4.1588 92.978 3.9388C91.418 3.8188 90.278 4.5488 90.368 5.7688C90.548 8.2788 90.418 10.9788 92.668 12.9188C93.958 12.0188 95.148 11.1888 96.318 10.3688C96.678 11.3288 96.938 12.0288 97.188 12.6988C96.278 13.5588 95.358 14.4288 94.358 15.3788C97.398 18.2788 100.988 19.6188 104.208 21.4288C104.508 21.3188 104.738 21.2988 104.868 21.1688C109.038 17.1988 112.258 12.4888 115.098 7.5288C115.908 6.1088 116.158 4.5088 115.228 2.8488Z" fill="black"/>
<path d="M136.428 87.6487C137.538 85.8887 138.648 84.1387 139.638 82.5887C138.928 80.5487 136.178 81.1587 135.968 78.8087C138.398 78.5087 139.888 80.1087 141.678 80.9187C141.858 83.3787 140.888 85.2387 139.638 86.9387C137.518 89.8287 136.338 93.1687 135.448 96.5287C134.558 99.8987 135.258 103.309 136.888 106.449C137.028 106.709 137.178 107.059 137.418 107.169C141.098 108.759 141.078 112.989 143.408 115.549C144.038 116.239 143.658 117.039 143.198 117.769C142.308 119.189 141.458 120.639 140.558 122.149C141.108 122.539 141.408 122.789 141.738 122.989C143.658 124.189 144.368 125.569 143.518 127.479C140.748 133.699 140.018 140.439 138.458 146.959C138.108 148.419 138.088 149.949 137.828 151.429C137.738 151.939 137.358 152.409 136.758 153.559C136.198 151.459 136.098 150.019 136.338 148.609C137.188 143.669 138.038 138.719 139.058 133.809C139.548 131.469 140.428 129.209 141.098 126.909C141.208 126.539 141.188 126.129 141.238 125.639C140.578 125.309 139.958 125.019 139.358 124.689C137.888 123.879 137.558 123.319 138.218 121.779C139.038 119.849 140.088 118.029 141.218 115.829C140.118 114.389 138.948 112.779 137.718 111.229C135.408 108.329 134.018 105.049 133.428 101.409C132.828 97.6887 133.628 94.2487 135.288 90.9187C135.808 89.8687 136.088 88.6987 136.478 87.5887L136.428 87.6487Z" fill="black"/>
<path d="M75.2681 76.5188C78.1281 72.8588 80.8281 70.0189 84.5081 68.1689C85.8181 67.5089 87.0081 66.4888 88.0381 65.4288C90.5481 62.8288 92.9481 60.1188 95.3681 57.4388C96.1681 56.5588 97.1081 55.7688 96.6281 54.2888C96.4781 53.8288 96.7981 53.0989 97.1081 52.6089C99.1481 49.3489 99.5081 45.6289 100.098 41.9689C100.198 41.3189 100.418 40.6888 101.108 39.9388C101.348 40.4688 101.808 41.0088 101.798 41.5388C101.758 42.9388 101.548 44.3389 101.358 45.7289C101.008 48.3789 99.9281 50.8489 99.8981 53.6189C99.8781 55.0389 98.7981 56.6488 97.7781 57.8188C94.6881 61.3788 91.6381 65.0488 88.1081 68.1488C84.7481 71.0989 80.8081 73.3788 77.1081 75.9288C76.7381 76.1588 76.2481 76.2088 75.2681 76.5188Z" fill="black"/>
<path d="M106.708 47.7888C106.988 48.2788 107.338 48.7488 107.538 49.2688C108.208 50.9488 108.748 52.6788 109.478 54.3288C110.958 57.6588 112.808 60.6188 115.948 62.8288C119.578 65.3888 123.058 67.9988 127.458 69.1688C130.518 69.9888 133.458 71.2188 136.708 72.3588C136.158 72.6288 135.718 73.0088 135.248 73.0488C134.158 73.1288 132.978 73.2888 131.968 72.9888C126.078 71.2488 120.268 69.3188 115.648 64.9788C114.988 64.3688 114.168 63.9388 113.518 63.3188C112.438 62.2888 111.078 61.3488 110.458 60.0688C108.788 56.6588 107.408 53.0988 105.988 49.5688C105.808 49.1088 106.018 48.4988 106.058 47.9588C106.268 47.8988 106.488 47.8488 106.708 47.7888Z" fill="black"/>
<path d="M137.588 39.3188C139.638 37.0988 142.448 36.2888 144.918 34.9388C147.578 33.4888 150.378 32.4889 153.328 31.7789C156.128 31.0989 158.878 30.2289 161.648 29.4489C163.558 30.5889 164.758 32.0689 164.958 34.2589C165.098 35.8589 164.998 36.0689 163.188 37.6989C163.148 36.5089 163.158 35.5788 163.068 34.6488C162.888 32.7588 162.178 32.0788 160.328 32.3788C155.868 33.0988 151.508 34.2289 147.378 36.1089C144.918 37.2289 142.478 38.4188 140.028 39.5688C139.308 39.8888 138.578 40.2888 137.588 39.3188Z" fill="black"/>
<path d="M68.8282 36.9487C65.7882 33.6187 62.7482 30.2987 59.7282 26.9487C59.6682 26.8787 59.8482 26.5987 59.9882 26.2188C60.3082 26.2987 60.7182 26.2987 60.9782 26.4987C61.6782 27.0587 62.3482 27.6687 62.9782 28.3187C66.9382 32.4287 70.8782 36.5587 75.1682 41.0387C74.0282 44.5587 70.7182 47.1287 68.7482 50.5387C68.3582 51.2087 67.4482 51.5687 66.6682 52.1487C66.2282 50.5387 66.2082 50.5187 69.1282 46.5087C70.3582 44.8187 71.6682 43.1987 73.1682 41.2587C71.7382 39.8287 70.2782 38.3687 68.8082 36.9187L68.8282 36.9487Z" fill="black"/>
<path d="M141.818 162.569C140.988 163.679 140.148 164.869 139.248 166.019C137.028 168.859 134.848 171.719 132.538 174.479C130.348 177.089 128.018 179.569 125.758 182.109L125.528 182.299C124.978 182.349 124.418 182.379 123.868 182.419C123.918 181.889 123.768 181.199 124.048 180.839C125.278 179.259 126.638 177.779 127.928 176.249C129.208 174.719 130.438 173.149 131.728 171.629C133.208 169.879 134.728 168.149 136.238 166.419C137.348 165.149 138.478 163.879 139.608 162.619C140.168 162.009 140.748 161.399 141.818 162.569Z" fill="black"/>
<path d="M124.548 55.9988C124.598 58.3688 123.048 60.1788 120.878 60.2688C118.798 60.3588 117.048 58.6988 116.978 56.5688C116.898 54.3688 118.928 52.1888 121.038 52.1788C122.728 52.1788 124.508 54.1188 124.548 55.9988Z" fill="black"/>
<path d="M82.5879 56.8088C82.5779 55.0388 84.1979 53.4788 86.1079 53.4088C88.3479 53.3288 90.0479 54.9088 89.9979 57.0588C89.9579 59.0288 88.2879 61.0088 86.5879 61.1088C85.0279 61.1888 82.5979 58.5988 82.5879 56.8088Z" fill="black"/>
<path d="M143.418 47.9988C143.908 49.2188 144.288 50.1888 144.788 51.4288C142.598 51.3888 142.458 49.6788 141.628 48.7588C140.628 47.6488 139.718 46.4588 138.788 45.2988C137.948 44.2388 137.118 43.1588 136.208 41.9888C137.908 40.8988 138.368 42.2788 139.048 42.8988C139.848 43.6288 140.538 44.4788 141.138 45.1288C142.998 44.7688 144.648 44.4488 146.308 44.1288C146.388 44.2688 146.468 44.4088 146.558 44.5588C145.528 45.6788 144.508 46.7988 143.418 47.9988Z" fill="black"/>
<path d="M69.2779 80.0588C67.8679 81.5788 66.5279 83.0288 65.2179 84.4388C66.1679 86.6188 68.5779 87.1788 69.8579 89.6188C66.7179 88.8088 64.6979 87.5688 63.3779 85.3188C62.8779 84.4688 62.9779 83.5388 63.6779 82.7988C64.8579 81.5688 66.0379 80.3388 67.3079 79.2188C68.0679 78.5588 68.7979 78.7688 69.2779 80.0588Z" fill="black"/>
<path d="M136.478 87.5889C135.098 89.1189 133.688 90.6288 132.348 92.1888C131.608 93.0488 131.208 94.2589 129.898 94.6389C129.438 91.5889 131.758 88.2289 135.778 86.0789C136.008 86.6189 136.218 87.1288 136.438 87.6488L136.478 87.5889Z" fill="black"/>
<path d="M106.498 46.4888C104.578 43.4988 104.508 40.6988 104.088 38.0288C104.018 37.6088 104.538 37.0888 104.838 36.5388C106.238 38.2688 106.998 42.4888 106.498 46.4888Z" fill="black"/>
<path d="M82.668 48.6288C85.108 45.5588 89.048 45.9588 91.538 49.3188C89.918 50.3288 88.778 48.6988 87.428 48.6488C85.968 48.5888 84.498 48.6288 82.668 48.6288Z" fill="black"/>
<path d="M125.388 49.2688C123.608 48.1588 121.858 47.1788 119.728 48.7088C119.488 48.0088 119.128 47.5088 119.248 47.1788C119.418 46.6688 119.828 46.0888 120.298 45.8588C122.018 44.9888 125.058 46.3888 125.648 48.2688C125.718 48.4888 125.518 48.7988 125.388 49.2688Z" fill="black"/>
<path d="M219.998 146.099C222.308 144.889 224.128 143.939 225.958 142.979C225.058 145.369 222.888 146.689 219.998 146.099Z" fill="black"/>
<path d="M68.808 36.9288C66.898 38.5488 64.808 39.8688 62.228 41.1788C63.548 38.7188 65.608 37.4888 68.828 36.9488L68.808 36.9288Z" fill="black"/>
<path d="M156.448 143.659C156.678 141.389 157.668 140.709 161.498 140.309C159.548 141.599 158.078 142.579 156.448 143.659Z" fill="black"/>
<path d="M218.768 143.679C220.238 141.699 221.998 140.669 224.038 139.749C223.228 141.609 221.578 142.859 218.768 143.679Z" fill="black"/>
<path d="M91.6885 172.229C92.2085 170.179 93.7985 169.079 95.8985 168.419C94.6985 169.829 93.4985 171.249 92.2985 172.659C92.0985 172.519 91.8985 172.369 91.6885 172.229Z" fill="black"/>
<path d="M161.558 134.349C160.548 135.829 159.398 137.139 157.078 137.989C158.258 135.729 159.688 134.759 161.558 134.349Z" fill="black"/>
<path d="M65.6081 35.6888C64.1081 36.8588 62.5981 38.0188 61.0981 39.1888C61.8081 36.9988 63.2081 35.6888 65.6081 35.6888Z" fill="black"/>
<path d="M111.088 124.419C109.488 123.839 107.888 123.259 105.888 122.529C108.168 121.829 108.918 122.079 111.088 124.419Z" fill="black"/>
<path d="M95.7681 172.509C96.8381 170.279 98.5081 169.849 100.168 169.059C99.0681 170.919 98.8081 171.129 95.7681 172.509Z" fill="black"/>
<path d="M172.198 167.409C173.838 167.979 174.938 169.129 175.658 170.679C174.018 170.109 172.848 169.039 172.198 167.409Z" fill="black"/>
<path d="M103.538 124.209C105.408 123.919 106.478 125.189 107.638 126.309C106.008 126.159 104.808 125.159 103.538 124.209Z" fill="black"/>
<path d="M168.438 170.839C170.478 170.519 171.488 171.549 171.788 173.489C170.668 172.609 169.558 171.719 168.438 170.839Z" fill="black"/>
<path d="M81.708 133.819C84.108 131.849 84.108 131.849 86.598 131.879C85.188 133.029 83.858 133.549 81.708 133.819Z" fill="black"/>
<path d="M83.0182 129.889C82.4382 130.409 81.8682 130.929 81.1382 131.599C81.1382 131.129 81.0282 130.759 81.1582 130.639C81.6482 130.199 82.2082 129.849 82.7482 129.469C82.8382 129.609 82.9282 129.749 83.0182 129.889Z" fill="black"/>
<path d="M85.7883 55.3188C85.7883 55.8088 85.3883 56.2088 84.8983 56.2088C84.4083 56.2088 84.0083 55.8088 84.0083 55.3188C84.0083 54.8288 84.4083 54.4288 84.8983 54.4288C85.3883 54.4288 85.7883 54.8288 85.7883 55.3188Z" fill="white"/>
<path d="M120.118 54.5688C120.118 55.0588 119.718 55.4588 119.228 55.4588C118.738 55.4588 118.338 55.0588 118.338 54.5688C118.338 54.0788 118.738 53.6788 119.228 53.6788C119.718 53.6788 120.118 54.0788 120.118 54.5688Z" fill="white"/>
<path d="M101.228 71.2888C102.248 70.9888 103.308 70.8088 104.378 70.7388C104.518 70.7288 104.628 70.7288 104.738 70.7288C105.048 70.7288 105.228 70.7588 105.578 70.9088C105.928 71.0588 106.438 71.3288 107.278 71.7788C107.458 71.8788 107.688 71.8088 107.788 71.6288C107.888 71.4488 107.818 71.2188 107.638 71.1188C106.798 70.6688 106.288 70.3888 105.878 70.2188C105.468 70.0388 105.128 69.9788 104.748 69.9788C104.618 69.9788 104.488 69.9888 104.348 69.9888C103.228 70.0588 102.108 70.2488 101.028 70.5688C100.828 70.6288 100.718 70.8388 100.778 71.0388C100.818 71.2388 101.028 71.3488 101.228 71.2888Z" fill="white"/>
</svg>
