<svg width="9" height="10" viewBox="0 0 9 10" fill="none" xmlns="http://www.w3.org/2000/svg">
<path opacity="0.5" d="M7.87849 1.28138L4.18541 0.0228236C4.14085 0.00760785 4.08108 0 4.0213 0C3.96153 0 3.90175 0.00760785 3.85719 0.0228236L0.164113 1.28138C0.0739051 1.31181 0 1.41615 0 1.51179V6.7547C0 6.85034 0.0619499 6.97642 0.136942 7.03619L3.88327 9.95544C3.92131 9.98479 3.97022 10 4.02022 10C4.07021 10 4.1202 9.98479 4.15716 9.95544L7.90349 7.03619C7.97848 6.9775 8.04043 6.85143 8.04043 6.7547V1.51179C8.0426 1.41615 7.9687 1.3129 7.87849 1.28138ZM6.00478 3.1377L3.69416 6.31888C3.67792 6.34111 3.65666 6.3592 3.63211 6.37167C3.60756 6.38413 3.58041 6.39063 3.55287 6.39063C3.52534 6.39063 3.49819 6.38413 3.47364 6.37167C3.44909 6.3592 3.42783 6.34111 3.41159 6.31888L2.03782 4.42778C1.99652 4.37018 2.03782 4.28975 2.10847 4.28975H2.7084C2.76383 4.28975 2.81709 4.31692 2.84969 4.36148L3.55287 5.32877L5.19291 3.07032C5.22552 3.02576 5.27769 2.99859 5.3342 2.99859H5.93414C6.00478 2.99967 6.04608 3.0801 6.00478 3.1377Z" fill="black"/>
</svg>
