<svg width="49" height="21" viewBox="0 0 49 21" fill="none" xmlns="http://www.w3.org/2000/svg">
<path d="M1.71917 17.9116C4.97278 18.922 8.46217 17.9924 11.7831 17.238C18.4655 15.7156 25.2893 14.914 32.0997 14.1056C32.5443 14.0517 33.0361 14.018 33.3863 14.2942C34.1071 14.8668 33.5143 16.0254 33.6423 16.9348C33.7905 17.9318 34.8885 18.565 35.899 18.5179C36.9027 18.4774 37.8188 17.9385 38.6608 17.3862C42.2513 15.015 45.3971 12.0376 48.5227 9.08035C45.6598 6.91128 42.487 5.14638 39.1324 3.85302C37.2732 3.13897 35.2388 2.47882 34.06 0.882324C33.191 2.46535 32.6184 4.2033 32.3692 5.98841C24.3328 4.6479 16.1415 4.28414 8.01758 4.90387C5.3837 5.10596 1.84716 4.72873 1.34194 7.97561C1.18701 8.97257 1.67201 17.8981 1.71917 17.9116Z" fill="white"/>
<path d="M34.4504 19.5218C33.7364 17.7569 33.1638 16.3288 32.5642 14.8401C32.214 14.8401 31.8367 14.7795 31.4864 14.8468C28.4821 15.4329 25.444 15.8371 22.4801 16.6926C19.5969 17.5279 16.606 17.9927 13.6825 18.6798C10.8937 19.3399 8.0914 19.7643 5.22175 19.7643C4.36625 19.7643 3.51748 19.9866 2.66197 20.0742C1.21367 20.2224 0.364905 19.7037 0.378378 18.3295C0.398586 15.8034 -0.281777 13.311 0.135872 10.7647C0.270597 9.92264 0.149346 9.04693 0.169555 8.18469C0.1965 7.13383 0.243659 6.07624 0.290813 4.84351C10.8398 5.5104 21.2473 5.09948 31.8502 5.20053C32.0186 3.98126 32.1938 2.93713 32.2948 1.88628C32.4497 0.323464 33.3928 -0.323215 34.7872 0.384093C36.4646 1.2396 38.0813 2.21636 39.6912 3.18638C41.8536 4.48648 43.9889 5.83373 46.1378 7.16077C46.414 7.32918 46.7037 7.47065 46.9731 7.65253C48.0846 8.38678 48.1789 9.06714 47.1213 9.92264C45.7404 11.0409 44.2786 12.0446 42.8438 13.0954C41.0654 14.4023 39.2803 15.6889 37.5087 17.0092C36.8687 17.4875 36.2827 18.0466 35.6629 18.5585C35.3531 18.828 35.023 19.0705 34.4504 19.5218ZM32.4093 6.0695C27.0473 6.0695 21.8873 6.0695 16.7206 6.0695C11.5943 6.0695 6.46796 6.0695 1.24062 6.0695C1.40229 10.0776 1.06548 14.0385 1.78626 18.1207C3.29519 18.2015 4.73674 18.3026 6.17157 18.343C7.24263 18.3767 8.34064 18.4103 9.021 17.117C9.12205 17.5414 9.1692 17.73 9.22309 17.9388C10.018 18.1544 10.5299 17.703 11.0419 17.2045C11.8704 16.4029 12.6519 15.5272 13.8105 15.1163C13.1167 15.8034 12.4228 16.4838 11.6145 17.2854C11.9984 17.3527 12.1534 17.4268 12.2881 17.3999C15.0836 16.8341 17.8859 16.3086 20.6613 15.6619C24.2719 14.8266 27.8623 13.8836 31.4662 13.0146C32.6181 12.7384 33.1368 13.055 33.5208 14.1934C33.6959 14.7054 33.7768 15.2443 33.9721 15.7428C34.2348 16.4164 34.3292 17.1978 35.0365 17.7165C38.6538 15.0557 42.2443 12.4218 45.8145 9.77444C46.0974 9.56562 46.2793 9.21533 46.643 8.77074C45.902 8.28573 45.2419 7.84113 44.575 7.42348C42.9852 6.41978 41.4022 5.40935 39.7923 4.43933C38.1823 3.4693 36.5589 2.52622 34.9152 1.60335C34.5649 1.408 34.1271 1.37433 33.6623 1.25308C32.9617 2.86978 33.5073 4.72225 32.4093 6.0695Z" fill="#F15748"/>
<path d="M10.4761 15.7698C11.0082 15.2915 11.5471 14.8132 12.0793 14.335C11.7896 15.1096 11.2305 15.5542 10.4761 15.7698Z" fill="#F15748"/>
</svg>
