<svg width="49" height="21" viewBox="0 0 49 21" fill="none" xmlns="http://www.w3.org/2000/svg">
<path d="M47.2641 17.9889C43.9785 19.0092 40.4548 18.0705 37.1011 17.3086C30.353 15.7712 23.462 14.9617 16.5846 14.1454C16.1356 14.091 15.639 14.057 15.2853 14.3359C14.5574 14.9141 15.156 16.0841 15.0268 17.0025C14.8771 18.0093 13.7683 18.6487 12.7479 18.6011C11.7343 18.5603 10.8092 18.0161 9.95887 17.4583C6.33311 15.0638 3.15633 12.057 -6.10352e-05 9.07071C2.89103 6.88028 6.09504 5.09801 9.48271 3.79192C11.3602 3.07085 13.4146 2.4042 14.605 0.791992C15.4826 2.39059 16.0608 4.14566 16.3125 5.94833C24.4279 4.59462 32.6998 4.22729 40.9037 4.85312C43.5635 5.0572 47.1349 4.67625 47.6451 7.95509C47.8015 8.96187 47.3117 17.9753 47.2641 17.9889Z" fill="white"/>
<path d="M14.2105 19.6143C14.9316 17.8321 15.5098 16.3899 16.1153 14.8866C16.469 14.8866 16.8499 14.8253 17.2037 14.8934C20.2376 15.4852 23.3056 15.8933 26.2987 16.7573C29.2102 17.6008 32.2305 18.0702 35.1828 18.764C37.9991 19.4307 40.829 19.8592 43.7269 19.8592C44.5908 19.8592 45.4479 20.0837 46.3118 20.1721C47.7744 20.3218 48.6315 19.798 48.6179 18.4103C48.5975 15.8593 49.2845 13.3424 48.8628 10.771C48.7267 9.9207 48.8492 9.03636 48.8288 8.16563C48.8016 7.10444 48.7539 6.03644 48.7063 4.79157C38.0535 5.46502 27.5436 5.05007 16.8363 5.15211C16.6663 3.92084 16.4894 2.86644 16.3874 1.80524C16.2309 0.227044 15.2785 -0.425999 13.8704 0.28827C12.1766 1.15219 10.544 2.13857 8.91815 3.11814C6.73452 4.43103 4.57813 5.79154 2.40812 7.13164C2.12921 7.30171 1.83669 7.44457 1.56458 7.62824C0.442162 8.36972 0.346924 9.05677 1.41492 9.9207C2.80945 11.0499 4.28561 12.0635 5.73455 13.1247C7.53043 14.4444 9.33312 15.7437 11.1222 17.077C11.7684 17.56 12.3602 18.1246 12.9861 18.6416C13.299 18.9137 13.6323 19.1586 14.2105 19.6143ZM16.2717 6.02963C21.6866 6.02963 26.8973 6.02963 32.1149 6.02963C37.2916 6.02963 42.4684 6.02963 47.7472 6.02963C47.5839 10.0772 47.924 14.0771 47.1962 18.1994C45.6724 18.281 44.2166 18.3831 42.7677 18.4239C41.6861 18.4579 40.5773 18.4919 39.8902 17.1858C39.7882 17.6144 39.7406 17.8049 39.6861 18.0157C38.8834 18.2334 38.3664 17.7777 37.8494 17.2743C37.0127 16.4648 36.2236 15.5804 35.0536 15.1655C35.7543 15.8593 36.4549 16.5464 37.2712 17.3559C36.8835 17.4239 36.727 17.4988 36.591 17.4715C33.7679 16.9001 30.938 16.3695 28.1354 15.7165C24.4892 14.873 20.8635 13.9206 17.2241 13.0431C16.0608 12.7642 15.537 13.0839 15.1493 14.2335C14.9724 14.7505 14.8908 15.2947 14.6935 15.7981C14.4282 16.4784 14.333 17.2675 13.6187 17.7913C9.96574 15.1042 6.33998 12.4444 2.73462 9.77104C2.44892 9.56016 2.26526 9.20642 1.89792 8.75745C2.64621 8.26767 3.31284 7.8187 3.98629 7.39694C5.5917 6.38336 7.1903 5.36298 8.81611 4.38341C10.4419 3.40384 12.0813 2.45148 13.7412 1.51953C14.0949 1.32226 14.5371 1.28825 15.0064 1.16581C15.7139 2.79842 15.1629 4.66912 16.2717 6.02963Z" fill="#F15748"/>
<path d="M38.4209 15.8254C37.8835 15.3424 37.3393 14.8594 36.8019 14.3765C37.0944 15.1588 37.659 15.6077 38.4209 15.8254Z" fill="#F15748"/>
</svg>
