<?xml version="1.0" encoding="utf-8"?>
<!-- Generator: Adobe Illustrator 23.1.0, SVG Export Plug-In . SVG Version: 6.00 Build 0)  -->
<svg version="1.1" id="Layer_1" xmlns="http://www.w3.org/2000/svg" xmlns:xlink="http://www.w3.org/1999/xlink" x="0px" y="0px"
	 viewBox="0 0 80 76.5" style="enable-background:new 0 0 80 76.5;" xml:space="preserve">
<style type="text/css">
	.st0{fill:#F6AD01;}
</style>
<title>64 Star</title>
<path class="st0" d="M78.7,33.5c1.8-1.7,1.8-4.5,0.1-6.3c-0.7-0.7-1.6-1.2-2.6-1.3L56.3,23c-1.5-0.2-2.7-1.1-3.4-2.5L44,2.5
	c-1.1-2.2-3.8-3.1-6-2c-0.9,0.4-1.6,1.1-2,2l-8.9,18c-0.7,1.3-1.9,2.2-3.4,2.4L3.8,25.8c-2.4,0.4-4.1,2.6-3.8,5.1
	c0.1,1,0.6,1.9,1.3,2.6l14.4,14c1.1,1,1.5,2.5,1.3,4l-3.4,19.9c-0.4,2.4,1.2,4.7,3.6,5.2c1,0.2,2,0,2.8-0.4l17.8-9.3
	c1.3-0.7,2.9-0.7,4.2,0L59.9,76c2.2,1.2,4.9,0.3,6-1.9c0.5-0.9,0.6-1.9,0.4-2.9L63,51.5c-0.3-1.5,0.2-3,1.3-4L78.7,33.5z"/>
</svg>
