<?xml version="1.0" encoding="utf-8"?>
<!-- Generator: Adobe Illustrator 19.0.0, SVG Export Plug-In . SVG Version: 6.00 Build 0)  -->
<svg version="1.1" id="Warstwa_1" xmlns="http://www.w3.org/2000/svg" xmlns:xlink="http://www.w3.org/1999/xlink" x="0px" y="0px"
	 viewBox="0 0 140 110" style="enable-background:new 0 0 140 110;" xml:space="preserve">
<style type="text/css">
	.st0{fill:#FFFFFF;}
	.st1{fill:#BCBCBB;}
	.st2{fill:#010202;}
	.st3{fill:#EB594B;}
</style>
<g id="XMLID_1_">
	<path id="XMLID_19_" class="st0" d="M108.5,4.7c3.4,2.5,5,6.8,5.2,11c0.3,4.2-0.6,8.3-1.4,12.4c-3.3,17.4-4.7,35.1-4.1,52.8
		c0,1.1,0,2.4-0.7,3.3c-0.9,1-2.4,1.1-3.7,1.2c-13.2,0.3-26.5,0.7-39.6-0.8c-6.4-0.7-12.8-1.9-19.2-3.1c-1.5-0.3-3-0.6-4.2-1.5
		c-2.4-1.8-2.6-5.2-2.4-8.1c0.3-4.4,1.3-8.8,2.2-13.1c1.8-8.3,3.7-16.6,5.5-24.9c1.7-7.7,3.4-15.4,6.3-22.7c1.5-3.8,2.5-7.7,6.5-8.3
		c3-0.4,6.5,0.4,9.6,0.3c6.6-0.2,13.3,0.5,19.8,0C94.8,2.7,102.7,0.4,108.5,4.7z"/>
	<path id="XMLID_18_" class="st1" d="M69.4,10.2c3.6-0.5,7.3-0.3,11-0.1c6.8,0.4,13.5,0.9,20.3,1.3c0.4,0,0.9,0,1.2-0.2
		c0.2-0.2,0.3-0.6,0.4-0.9c0.5-2.4,0.7-4.9,0.6-7.4c0-0.5-0.1-1-0.4-1.3c-0.3-0.3-0.9-0.4-1.3-0.4C94,1.1,86.9,1,79.7,1.1
		c-2.1,0-7.6-0.9-9.2,0.5C69.5,2.5,69.6,10.1,69.4,10.2z"/>
	<path id="XMLID_17_" class="st1" d="M43.6,42.5c0.1,6.7-0.9,13.4-3.2,19.8c-2.1,6-5.3,11.8-5.7,18.1c0,0.4,0,0.8,0.3,1
		c0.2,0.2,0.5,0.2,0.8,0.2c1.5,0.1,2.9,0.2,4.4,0.3c5.4,0.3,10.8,0.6,16.2,0.9c1,0.1,2.1,0.1,3-0.3c0.9-0.4,1.7-1.4,1.5-2.4
		c-0.2-0.8-1-1.4-1.7-1.9c-7.7-5.3-14-12.7-18-21.1"/>
	<path id="XMLID_16_" class="st1" d="M57.9,67.4c0.2,2.5,2.1,4.7,4.3,5.9c2.2,1.2,4.8,1.6,7.3,2c3,0.4,6,0.7,8.9,0.7
		c4.9-0.1,10.2-1.1,14.6,1.3c0-2.1-2.6-3.1-4.6-3.6c-6.5-1.5-12.7-4.1-18.5-7.4c-2.2-1.3-5.3-4.5-7.9-4.9
		C58.9,61,57.7,64.9,57.9,67.4z"/>
	<path id="XMLID_10_" class="st2" d="M69.3,2.3c0.4-1.8,0.5-1.9,2.2-1.8c2.9,0.2,5.7,0.6,8.6,0.7c3.3,0.1,6.5-0.1,9.8-0.1
		C93.4,1.1,97,1,100.5,1c0.2,0,0.4,0.1,0.7,0.2c0.3,0.7,0.7,1.5,1.1,2.3c0.9,0.1,1.8,0.2,2.7,0.2c2.6,0.1,5.3,0.2,7.9,0.4
		c2.3,0.1,3.6,1.4,3.7,3.7c0.1,1.8,0.1,3.6-0.1,5.4c-0.6,4.5-1.3,9-1.9,13.5c-0.4,2.8-0.5,5.6-0.9,8.4c-0.7,5.2-1.7,10.3-2.4,15.5
		c-0.8,5.6-1.4,11.3-2.3,16.9c-0.8,5-1,10.1-2.7,15c-0.3,1,0.1,1.7,0.9,2.4c-1.2,0.2-1.8,1.6-3,0.7c-0.5,0.5-0.9,1-1.4,1.5
		c-2.1,0-4.3,0.1-6.4,0c-3.3-0.1-6.7-0.3-10-0.6c-4.5-0.3-9-0.7-13.6-1.1c-4.5-0.4-8.9-0.7-13.4-1.1c-4.5-0.4-9-1-13.5-1.4
		c-3.1-0.3-6.2-0.4-9.3-0.5c-0.4,0-0.7,0-1.3-0.1c0-0.7-0.1-1.4,0-2c1.3-6.8,2.6-13.7,3.8-20.5c0.5-2.7,0.5-5.4,1.1-8.1
		c1.6-7.6,3.3-15.2,5-22.8c0.4-1.8,1.1-3.5,1.6-5.2c0.8-3,1.6-6,2.4-9c1-3.6,1.9-7.3,2.9-11.1c0.8-0.1,1.7-0.2,2.5-0.2
		c3.7,0.1,7.4,0.3,11.1-0.1C67.2,3.1,68.2,2.5,69.3,2.3C70.2,3,70.8,3.8,71,5C71,5,71.2,5,71.3,5.1c0.2-0.5,0.3-1.1,0.5-1.6
		c0.1,0,0.2,0,0.3,0c0,1.8,0.1,3.5,0.1,5.1c0.4,0.2,0.5,0.3,0.6,0.3c4.4,0.2,8.8,0.5,13.1,0.7c0.6,0,1.2,0.1,1.8,0.2
		c3.5,0.8,7.1,0.6,10.6,0.8c0.9,0.1,1.8-0.1,2.7-0.2c0.6-2.9-0.4-5.4-1.1-7.9c-0.6-0.1-1-0.2-1.5-0.2c-5.1,0-10.2,0-15.2,0
		c-1.1,0-2.1,0.3-3.2,0.2C76.6,2,72.9,2.1,69.3,2.3z M60.5,70.7c5.5,4.8,11.8,5.4,18.1,5.1c4.3-0.2,8.5,0,12.7,0.1
		c0.6,0,1.2,0.2,1.8,0.4c3.2,0.9,3.2,0.9,4.4-2.3c1.2-3.4,2.4-6.7,3.4-10.1c1.3-4.6,2.7-9.2,3.6-13.8c1.1-5.3,1.9-10.7,2.7-16.1
		c0.8-5.4,1.5-10.8,2.3-16.2c0.1-0.7,0-1.4,0-2.5c-2.8,1.4-5.3,2.6-7.8,3.8c0.6-1.2,1.6-1.8,2.7-2.3c1.5-0.6,3.1-1.3,4.6-1.9
		c0.8-0.4,1.4-0.8,0.8-2c-1,0.4-2,0.8-3,1.2c-1,0.4-2.1,0.9-3.1,1.4c-0.9,0.4-1.7,1.2-2.9,1.1c3-2,6.2-3.4,9.6-4.9
		c-0.2-0.9-0.3-1.6-0.5-2.4c-2.3-0.2-4.5-0.5-6.8-0.7c-0.3,1.3-0.5,2.4-0.7,3.5c-0.6,0.1-0.9,0.2-1.3,0.1c-2.4-0.1-4.8-0.2-7.3-0.3
		c-6.2-0.4-12.4-0.9-18.6-1.4c-0.8-0.1-1.6-0.2-2.3,0c-1.5,0.4-2.8-0.1-4.3-0.3c-0.1-0.9-0.3-1.7-0.4-2.5c-0.4-0.1-0.6-0.2-0.8-0.2
		c-2.2,0.5-4.5,0.7-6.8,0.6c-1.1,0-1.7,0.4-1.8,1.6c-0.3,2.9-0.9,5.6-1.8,8.4c-0.8,2.7-1.3,5.4-2.1,8.1c-2.7,8.8-5,17.6-6.5,26.7
		c-0.2,1.2-0.3,2.4-0.4,3.5c4,1.5,7.9,1.9,11.8,1.7c0.5,0,1.2,0.1,1.4,0.4c0.2,0.3-0.1,1-0.3,1.4c-0.6,1.2-1.2,2.4-1.8,3.7
		c-0.4,1-0.6,2,0,3.3c2.4-0.8,4.8-1.5,7.2-2.3c-1.2,0.9-2.6,1.4-3.9,1.9c-0.8,0.4-1.7,0.7-2.5,1.2c-1,0.6-1.2,1.4-0.8,2.7
		c2.7-1.1,5-2.9,7.9-3.3C65.1,68.3,62.9,69.4,60.5,70.7z M102.9,5.1c-0.1,0.2-0.2,0.4-0.4,0.6c0.4,0.5,0.7,1.3,1.2,1.4
		c1.7,0.3,3.4,0.5,5.2,0.5c2-0.1,2.1-0.1,2.6,1.9c0.4,1.8-0.1,3.5-0.3,5.2c-0.4,3.5-0.7,6.9-1.3,10.4c-0.7,4.8-1.6,9.6-2.2,14.3
		c-1,8.1-2.7,16.1-5.2,23.9c-1.5,4.9-2.9,9.9-5.1,14.5c-0.6,1.2-0.8,1.3-2,0.8c-0.8-0.3-1.5-0.6-2.3-0.8c-3.8-0.9-7.7-1-11.5-0.8
		c-3.3,0.2-6.5,0.2-9.7-0.1c-2.2-0.2-4.3-0.6-6.4-1.3c-2.4-0.8-4.9-1.4-7.4-2c-1.2-0.3-2.5-0.7-3.7-0.9c-0.8-0.2-1.6-0.2-2.5-0.2
		c0.6-1.1-0.4-1.4-1-1.9c-3.8-3.2-5.1-7.4-4.8-12.2c0.5-6.4,2-12.5,3.5-18.7c1.2-4.8,2.5-9.7,3.7-14.5c1.2-4.8,2.2-9.6,3.3-14.4
		c0.9-3.9,1.6-4.3,5.6-4.1c0.2,0,0.5,0.1,0.7,0.1c1.9-0.1,3.7-0.1,5.6-0.7c-0.2-1.5-1.1-1.3-2-1.3c-2.8,0-5.6,0-8.4,0
		c-0.5,0-0.9,0-1.4,0c-2.4,0.1-2.8,0.4-3.4,2.7c-0.9,3.4-1.6,6.9-2.6,10.3c-2.1,7.6-4,15.2-5.7,22.9c-0.4,2-1,4-1.3,6
		c-0.7,4.3-1.2,8.5-2,12.8c-0.8,4.5-1.9,9-2.9,13.5c-0.2,0.9-0.5,1.7-0.3,2.9c1.1-0.6,2-1.1,2.9-1.6c0.9-0.5,1.7-1,2.6-1.4
		c1.6-0.8,1.6-0.8,2.7-0.6c-2.8,1.5-5.7,3-8.6,4.6c-0.1,1-0.2,2.1-0.4,3.3c1.8,0.3,3.5,0.6,5.2,0.8c2.6,0.3,5.3,0.4,7.9,0.6
		c1.8,0.1,3.6,0.2,5.4,0.4c3.3,0.4,6.6,0.9,9.9,1.1c5.2,0.4,10.4,0.6,15.6,0.9c2,0.1,3.9,0.3,5.9,0.3c4.6,0,9.2,0.1,13.8-0.2
		c3.6-0.2,3.2,0.1,4.1-3.3c0.1-0.4,0.2-0.7,0.2-1.1c0.8-5.4,1.5-10.8,2.3-16.2c0.2-1.6,0.3-3.2,0.6-4.7c0.5-3.3,1.1-6.6,1.6-9.9
		c0.5-3.4,1-6.9,1.5-10.3c0.1-1,0.4-1.9,0.5-2.9c0.3-3,0.6-6,0.9-9c0.5-4.2,1.1-8.4,1.6-12.6c0.2-1.7,0.2-3.5,0.2-5.2
		c-0.1-2.3-0.8-3.1-3.1-3.4C108.9,5.3,105.9,5.2,102.9,5.1z M48.1,58.1c-0.6,4.6,1.3,8.1,4.2,11.1c1.3,1.4,3.1,2.2,5.2,2.2
		c0-2.2-0.2-4.2,0.1-6.1c0.3-1.9,1.1-3.7,1.6-5.4C55.5,59.3,51.9,58.7,48.1,58.1z M71,8.7c0.1,0,0.2,0,0.3,0c0-0.4,0-0.9,0-1.3
		c-0.1,0-0.2,0-0.3,0C71,7.8,71,8.3,71,8.7z"/>
	<path id="XMLID_9_" class="st3" d="M34.9,110c0.6-5.1,1.1-10.1,1.7-15.1c0-0.3,0.3-0.6,0.7-1.2c0.3,0.7,0.5,1,0.5,1.4
		c-0.2,4.6-0.8,9.2-1.7,13.7C36.1,109.4,36,109.9,34.9,110z"/>
	<path id="XMLID_8_" class="st3" d="M32.1,89.3c-4.7,2.4-9.1,4.6-13.5,6.8c-0.1,0-0.2-0.2-0.5-0.3c0.2-0.3,0.4-0.6,0.7-0.7
		c3.4-1.9,6.8-3.9,10.3-5.8C29.9,88.8,31,88.3,32.1,89.3z"/>
	<path id="XMLID_7_" class="st3" d="M27.7,77.2c-1.7,0.5-11.1-1-14.4-2c-0.7-0.2-0.8-0.3-1.5-1.2c1.5-0.5,2.5,0.7,3.8,0.8
		c1.3,0.1,2.7,0.5,4,0.8c1.3,0.2,2.7,0.3,4,0.6C24.8,76.3,26.3,76.1,27.7,77.2z"/>
	<path id="XMLID_6_" class="st3" d="M74.8,25.7c0.3-0.5,0.4-1.1,0.6-1.1c0.7-0.2,1.5-0.4,2.2-0.4c4.4-0.2,8.8-0.5,13.1-0.6
		c2,0,3.9,0.2,5.9,0.4c1.6,0.1,3.3,0.3,5.1,0.5c0,0.6,0,1.1,0,1.7c-0.3,0.1-0.5,0.2-0.6,0.1c-3.5-1-7.1-1.5-10.7-1.3
		c-4.8,0.3-9.5,0.6-14.3,0.9C75.8,25.9,75.5,25.8,74.8,25.7z"/>
	<path id="XMLID_5_" class="st3" d="M70.7,46.1c0.7-0.3,1.1-0.6,1.6-0.6c7.1-0.7,14.3-1.3,21.4-1.9c0.2,0,0.5,0.2,0.9,0.3
		c-0.2,0.9-0.9,1-1.6,1c-2.6,0.2-5.1,0.2-7.7,0.5c-4.2,0.5-8.4,1-12.6,1.6C72,47.1,71.3,47.3,70.7,46.1z"/>
	<path id="XMLID_4_" class="st3" d="M60.8,20.4c0.8-0.7,1.2-0.4,1.5,0.1c0.9,1.7,1.7,3.4,2.5,5.1c0.3,0.7,0.5,1.4,0.8,2.1
		c1.7-0.9,2.2-2.5,3.1-3.7c1-1.3,1.7-2.9,2.7-4.2c0.9-1.2,1.2-2.9,2.9-3.7c0.3,1,0,1.7-0.5,2.4c-2.3,3.2-4.4,6.5-6.6,9.8
		c-0.5,0.8-0.9,1.6-2,1.9c-1.2-1.5-0.9-3.5-1.8-5C62.7,23.6,61.7,22.1,60.8,20.4z"/>
	<path id="XMLID_3_" class="st3" d="M62.1,48.7c1.1-1.4,2-2.7,2.9-4c0.9-1.4,1.7-2.8,2.7-4.2c0.9-1.2,0.9-3,2.2-3.9
		c0.2,0.1,0.3,0.1,0.5,0.2c-0.1,0.5,0,1.2-0.3,1.6c-2.3,3.6-4.7,7.2-7.1,10.8c-0.3,0.5-0.9,0.8-1.5,1.3c-1.5-1.9-3-3.6-4.3-5.4
		c-0.1-0.2,0-0.5,0-1C59.6,44.9,60.2,47.2,62.1,48.7z"/>
	<path id="XMLID_2_" class="st2" d="M41,77.7c2.5-1.9,5.4-3.2,8.3-4.5c0.1,0.1,0.1,0.3,0.2,0.4c-2.7,1.5-5.5,3.1-8.2,4.6
		C41.2,78.1,41.1,77.9,41,77.7z"/>
</g>
</svg>
