<?xml version="1.0" encoding="utf-8"?>
<!-- Generator: Adobe Illustrator 19.0.0, SVG Export Plug-In . SVG Version: 6.00 Build 0)  -->
<svg version="1.1" id="Warstwa_1" xmlns="http://www.w3.org/2000/svg" xmlns:xlink="http://www.w3.org/1999/xlink" x="0px" y="0px"
	 viewBox="0 0 140 110" style="enable-background:new 0 0 140 110;" xml:space="preserve">
<style type="text/css">
	.st0{fill:#FFFFFF;}
	.st1{fill:#BCBCBB;}
	.st2{fill:#010202;}
	.st3{fill:#EB594B;}
</style>
<g id="XMLID_1_">
	<path id="XMLID_76_" class="st0" d="M107.5,31.1c6.1,14.4,4.8,30.6,3.3,46.2c-0.6,6.1-1.2,12.3-1.7,18.4c-0.2,2.6-0.7,5.6-2.9,6.9
		c-2.5,1.5-5.9,0.3-8.3,1.8c-1.5,0.9-2.2,2.6-3.6,3.7c-1.6,1.2-3.8,1.4-5.8,1.5c-9.4,0.4-18.8,0.6-28.2,0.5
		c-5.3-0.1-11.5-0.7-14.3-5.2c-1.7-2.8-1.6-6.3-1.2-9.5C46.6,79.2,53,64,54.4,47.8c0.4-5-1-12.4,3.4-16.1c4.9-4,14.4-1.4,20-0.9
		C87.7,31.6,97.6,32.5,107.5,31.1z"/>
	<path id="XMLID_75_" class="st1" d="M110.3,76.3c-0.9,8.9-1.7,17.8-2.6,26.7c0,0.4-0.1,0.9-0.3,1.2c-1.1,1.9-4.2-0.3-6.1,0.8
		c-1.1-3.2-0.3-6.7,0.9-9.8c1.2-3.1,2.9-6.1,3.7-9.3c0.5-2.1,0.7-4.3,0.9-6.5c0.3-3.3-0.6-20.1,3.1-21.2c2.8-0.9,1.5,4.8,1.4,6.6
		C111,68.6,110.3,72.5,110.3,76.3z"/>
	<path id="XMLID_74_" class="st1" d="M55.7,45.8c0.4-1.8,0.8-3.7,1.2-5.5c0.1-0.5,0.2-1,0.7-1.2c0.3-0.2,0.6-0.2,0.9-0.2
		c7.8-0.2,15.6,0.3,23.3,1.5c0,1.1-1,2-2.1,2.3c-1.1,0.3-2.2,0.2-3.3,0.3c-1.6,0.2-3.2,0.9-4.7,1.7c-6.1,3-12.5,6.3-16.4,11.9
		c-1.1-1.3-1.5-3-1.4-4.7c0.1-1.7,0.7-3.3,1.2-4.9c0.6-1.6,1.1-3.2,1.6-4.8"/>
	<path id="XMLID_73_" class="st1" d="M81.1,58.6c1.8,0.5-0.3,2.6-2.7,1.1c-0.2-0.1-0.4-0.3-0.5-0.4c-0.3-0.3-0.3-0.8-0.3-1.2
		c0.1-1.3,0.7-2.5,0.9-3.9c0.2-1.3,0-2.8,0.8-3.7c0.2-0.2,0.4-0.3,0.6-0.3c0.3,0.1,0.4,0.5,0.4,0.8c0.4,4.5,2.5,10.9,7.1,12.8
		c0.6,0.2,1.2,0.4,1.7,0.8c0.3,0.3,0.5,0.7,0.6,1.1c0.3,0.8,0.5,1.6,0.6,2.4c0,0.2,0,0.5-0.1,0.6c-0.1,0.1-0.4,0.1-0.5,0.1
		c-3-0.2-6-1-8.7-2.3c-1.5-0.7-7.1-3.1-7.2-4.9c0-1.8,4.5-2.9,5.8-3C80.3,58.5,80.8,58.5,81.1,58.6z"/>
	<path id="XMLID_72_" class="st1" d="M45.5,83.3c0.1-0.4,0.2-0.8,0.5-1.1c0.5-0.4,1.3,0.1,1.6,0.6c0.3,0.6,0.2,1.2,0.3,1.9
		c0.3,3.4,3.6,5.6,6.6,7.4c5.1,3,10.2,5.9,15.4,8.9c2.1,1.2,4.4,2.8,4.4,5.2c0,0.4-0.1,0.7-0.3,1c-0.4,0.6-1.3,0.6-2.1,0.5
		c-7.8-0.7-15.6-1.4-23.4-2.1c-2.4-0.2-6.5,0.2-7.8-2.4c-1.2-2.4,0.3-5.9,1.1-8.2C43.1,91.1,44.7,87.3,45.5,83.3z"/>
	<path id="XMLID_49_" class="st2" d="M109.7,48.5c0,1,0.1,2,0,3c-0.5,7.1-0.7,14.2-2.5,21.2c-0.4,1.7-0.5,3.5-0.8,5.2
		c-0.2,1.5-0.3,3-0.5,4.4c-0.6,3.9-1.3,7.8-2,11.6c-0.2,0.9-0.4,1.8-0.7,3.1c1-0.5,1.7-0.9,2.4-1.2c0.7-0.3,1.4-0.7,2.3-0.3
		c-1.3,0.6-2.5,1.2-3.8,1.8c-1,0.4-1.7,1.1-1.9,2.2c-0.7,3.1-2.7,5.6-4,8.4c-0.3,0.5-1.2,0.9-1.8,1.1c-0.9,0.3-1.9,0.4-2.8,0.4
		c-3.7,0.1-7.3,0.1-11,0.1c-1.3,0-2.7-0.2-4.1-0.3c-5.1-0.4-10.1-0.8-15.2-1.3c-5.6-0.5-11.2-1.1-16.8-1.8c-2-0.2-4-0.8-6-1.3
		c-0.7-0.2-1.3-0.6-2-1c0.1-0.5,0.2-0.8,0.3-1.1c2.7-6,4.6-12.2,6.1-18.5c1.2-5.2,2.3-10.5,3.2-15.7c1.1-6.1,2-12.3,2.9-18.5
		c0.4-2.7,0.5-5.5,0.8-8.3c0.1-1.3,0.4-2.5,0.7-3.8c0.3-1.5,0.7-2.9,0.4-4.4c-0.1-0.3,0-0.7,0.1-1c0.4-0.6,0.2-1.1-0.1-1.7
		c-1-2.1,0.2-4.3,1.8-4.9c1-0.4,2.1-0.6,3.1-0.7c1.3-0.2,2.7-0.1,4-0.2c2.7-0.3,5.4-0.1,8-0.8c0.3-0.1,0.6-0.1,0.8,0
		c3,0.9,6.2,0.1,9.2,0.9c0.5,0.1,1.2,0.1,1.8-0.1c2.3-0.9,4.5-0.6,6.7,0.6c0.7,0.4,1.4,0.7,2.3,0.5c1.9-0.5,3.8-0.6,5.1,1.3
		c0.8-0.2,1.4-0.5,2.1-0.6c1.2-0.2,2.4-0.3,3.6-0.3c2,0.1,3.5,1.1,4.1,3.1c0.1,0.2,0.2,0.3,0.3,0.6c0.2,0,0.5,0.1,0.8,0
		c0.8-0.1,1.2,0.3,1.4,1.1c0.5,2.7,1.1,5.4,1.5,8.2c0.3,1.9,0.3,3.7,1.2,5.5c0.5,0.9,0.3,2.1,0.5,3.2c0.7,5.3,0.6,10.7,0.8,16
		c0.1,1.7-0.1,3.4-0.1,5.1c-0.2,3.9-0.4,7.8-0.5,11.8c-0.2,4.4-0.2,8.8-0.4,13.2c-0.1,2.7-0.5,5.4-0.8,8.1c-0.1,0.7-0.5,1.1-1.2,1.2
		c-2.2,0.2-4.4,0.4-6.7,0.6c-0.2,0-0.4-0.3-0.7-0.6c1.4-0.6,2.7-0.4,3.9-0.6c0.4-0.1,0.8,0.1,1.2,0c1.8-0.2,2.2-0.4,2.4-2.3
		c0.5-5,1.1-10,1.1-15c0-2.1,0.1-4.2,0.2-6.3c0.1-2.4,0.1-4.7,0.2-7.1c0.1-5.1,0.3-10.3,0.3-15.4c0-2.7-0.5-5.5-0.7-8.3
		C109.9,48.5,109.8,48.5,109.7,48.5z M107.7,51.9c0.7-0.8,1-1.7,0.3-2.9c-1.1,0.6-2.2,1.2-3.2,1.9c-0.1-0.4,0-0.7,0.2-0.8
		c0.7-0.5,1.5-1,2.3-1.3c1-0.4,1.3-1.1,1.4-2c0.1-0.5,0.1-1.1,0.1-1.6c-0.4-3.6-0.9-7.3-1.3-10.9c-0.1-0.8-0.4-1.7-1.3-2.5
		c-0.4,0.6-0.7,1.1-0.9,1.6c-0.4,0.9-1.1,1.2-2,1c-0.8-0.3-1.7-0.6-2.3-1.1c-1.2-0.9-1.8-1.1-3.1-0.5c-0.8,0.4-1.6,0.8-2.4,1.1
		c-1.1,0.4-2,0-2.7-0.9c-0.2-0.3-0.4-0.7-0.7-1.3c-1,1.5-2.2,2.6-4,2.6c-1.9-0.1-2.8-1.6-3.6-2.9c-0.2,0.1-0.3,0.1-0.3,0.1
		c-0.2,0.1-0.3,0.2-0.5,0.4c-1.5,1.9-3.5,1.9-5.5,1.4c-0.6-0.1-1.1-0.4-1.6-0.7c-0.2,0.2-0.4,0.3-0.5,0.4c-2,1.8-3,1.9-5.3,0.5
		c-0.6-0.4-1.1-0.7-1.7-1c-4.3,2.5-5,2.6-7.5,0.4c-0.3,0.3-0.7,0.6-1.1,0.9c-0.9,0.8-1.8,0.9-2.9,0.5c-0.7-0.3-1.3-0.8-1.9-1.1
		c-0.3-0.2-0.6-0.3-0.8-0.4c-0.4,2.8-0.8,5.4-1.1,8.1c-0.2,1.1-0.3,2.1-0.4,3.2c-0.5,3.8-0.8,7.7-1.4,11.5c-0.7,4.7-1.5,9.4-2.3,14
		c-0.4,2.1-0.8,4.2-1.2,6.4c-0.8,4.6-1.7,9.2-3.1,13.6c-1.3,4.1-2.9,8-4.3,12.1c-0.2,0.5-0.3,1-0.5,1.7c2.9,0.4,5.5,0.9,8.2,1.2
		c5.9,0.7,11.9,1.1,17.8,1.8c8.8,1.1,17.6,1.5,26.4,1.5c1.5,0,3.1-0.2,4.6-0.4c1.9-3.4,3.5-6.8,4.4-10.4c1.5-6.6,2.9-13.2,3.3-20
		c0-0.3,0.1-0.7,0.2-1c1.7-7.3,2.2-14.7,3-22.1c0-0.4,0.1-0.8,0-1.2C108.2,52.2,107.9,52,107.7,51.9L107.7,51.9z M97,28.6
		c0.5,1.1,0.9,2.3,2.3,2.3c1.3,0,2.6,0.1,3.8,0.1c0.5,0,1-0.2,1.5-0.4C103.6,27.4,100.4,26.5,97,28.6z M75.9,30.1
		c0-1.5-0.2-2.5-0.9-3.1c-0.3-0.2-0.7-0.5-1-0.5c-1.3,0.1-3.3,2.1-3.6,3.6C72.2,30.1,74.1,30.1,75.9,30.1z M88,27
		c-2.1-1.6-3.8-1.8-5.6-0.7c0.6,1.2,1.1,2.4,1.7,3.5C85.3,29.7,85.3,29.7,88,27z M68,30c0.3-1.1-0.2-2-0.7-2.9
		c-0.2-0.3-0.8-0.6-1-0.6c-0.7,0.3-1.4,0.8-2,1.3c-0.6,0.5-1.2,1.1-0.9,2.1C65,30.3,66.5,30.4,68,30z M61.3,30.1
		c-0.1-0.9-0.1-1.7-0.3-2.3c-0.2-0.6-0.8-1.1-1.4-0.7c-1.3,0.8-2.6,1.6-3.1,3.5C58.1,30.4,59.5,30.3,61.3,30.1z M82.7,29.8
		C82,27.8,82,27.8,80.6,27c-1,0.8-2.1,1.3-2.5,2.9C79.7,30.2,81.1,30.1,82.7,29.8z M58.7,26.3c-2-0.3-3.2,0.2-4.3,1.3
		c-1,1-0.8,1.8,0.3,2.9c0.6-0.7,1.1-1.4,1.7-2C57,27.8,57.7,27.2,58.7,26.3z M69.1,28.6c1.2-1,2.4-1.7,3.5-2.9
		c-1.7-0.5-3.2-0.5-4.7,0.3C68.3,26.8,68.6,27.5,69.1,28.6z M94.5,28.1c-1.3-1.3-1.9-1.4-3.7-0.5c0.5,0.8,0.4,2.1,1.6,2.3
		C93.4,30,94,28.9,94.5,28.1z M70.7,31.6c2.5,2.2,3.9,2.2,4.9,0C74,31.6,72.6,31.6,70.7,31.6z M63.1,31.5c0.6,1.4,0.7,1.6,1.5,1.7
		c1.2,0.1,2.3-0.4,3.3-1.7C66.3,31.5,64.8,31.5,63.1,31.5z M77.1,28.5c0.8-0.7,1.5-1.4,2.4-2.1c-1.2-0.7-2.2-0.8-3.4-0.4
		C76.4,26.9,76.7,27.6,77.1,28.5z M86.2,31.4c1,1.1,1.6,1.9,2.8,1.6c0.8-0.2,1.6-0.3,1.5-1.6C89.2,31.4,87.9,31.4,86.2,31.4z
		 M62.1,28.1c1-0.8,1.8-1.5,2.8-2.3c-1.3-0.4-2.4-0.4-3.4,0.5C61.7,27,61.9,27.5,62.1,28.1C62.2,28.2,62.3,28.3,62.1,28.1z M56.9,32
		c1.5,1.7,2.9,1.6,3.9-0.4C59.4,31.3,58.2,31.3,56.9,32z M86.8,29.8c1.4,0.6,2.4,0.2,3.6-0.2c-0.5-0.7-0.8-1.2-1.3-1.9
		C88.3,28.4,87.6,29,86.8,29.8z M78,31.9c1.7,0.5,3,0.7,4.5-0.2C80.6,31.3,80,31.3,78,31.9z M94.2,31.6c0.9,1.3,0.9,1.3,2.2,0.4
		C95.5,31.8,94.9,31.7,94.2,31.6z M94.6,30c0.6,0.1,1,0.2,1.6,0.2C95.8,29.2,95.4,29.2,94.6,30z M104.2,33c0-0.2,0-0.3,0-0.5
		c-0.4,0.1-0.7,0.1-1.1,0.2c0,0.1,0,0.2,0,0.3C103.5,33,103.8,33,104.2,33z"/>
	<path id="XMLID_48_" class="st3" d="M41.6,28.7c-0.4,0.8-0.9,0.8-1.5,0.7c-0.7-0.2-1.4-0.4-2.1-0.6c-2.2-0.6-4.4-1.2-6.7-1.7
		c-2-0.4-3.8-1.3-5.3-2.5c0.3-0.8,0.7-0.9,1.2-0.5c2.2,1.5,4.8,1.8,7.3,2.3c2.2,0.5,4.4,1.3,6.6,1.9C41.3,28.3,41.4,28.5,41.6,28.7z
		"/>
	<path id="XMLID_47_" class="st3" d="M61.3,17.6c0-0.9-0.1-1.4,0-1.9c0.5-2,0.9-3.9,1.5-5.9c0.6-2.2,1.4-4.4,2.1-6.6
		c0.2-0.6,0.1-1.3,0.3-2c0.2-0.8,0.7-1.1,1.6-0.7c-1.4,5.5-3.9,10.7-4.7,16.3C62.1,17.1,61.9,17.2,61.3,17.6z"/>
	<path id="XMLID_46_" class="st3" d="M40.4,10.3c0.3,0.1,0.8,0.1,1,0.4c0.6,0.7,1.1,1.5,1.7,2.3c1.7,2.5,3.3,4.9,4.9,7.4
		c0.4,0.6,1,1.3,0.9,2.5c-3.9-3.7-5.7-8.4-9-12C40.1,10.7,40.2,10.5,40.4,10.3z"/>
	<path id="XMLID_45_" class="st2" d="M103.1,100.6c0.5-1.6,1.2-2.1,3.9-2.8C105.7,98.7,104.4,99.6,103.1,100.6z"/>
	<path id="XMLID_16_" class="st2" d="M99.4,76.2c0.6,1.2,0.1,2.2,0,3.2c-0.1,0.8-0.6,1.5-0.1,2.4c0.1,0.2-0.2,0.6-0.3,0.9
		c-0.3,1.2-0.6,2.5-0.8,3.7c-0.1,0.3,0.2,0.7,0.4,1.1c-1.7,1.6-1.5,3.9-2,6c0.7,0.4,1.3,0.7,2.2,1.2c-0.9,0.1-1.5,0.1-2.3,0.2
		c-0.3,1.2-0.7,2.5-1,3.8c-0.1,0.5-0.2,0.9-0.3,1.4c-0.7,2.9-1.5,3.4-4.5,3.3c-2,0-4-0.1-6-0.3c-1.1-0.1-2.1,0.2-3.2,0.2
		c-0.3,0-0.5,0.1-0.8,0c-3-0.5-6-1-9-1.5c-1.3-0.2-2.5-0.4-3.8-0.6c-1.8-0.3-3.6-0.7-5.4-0.9c-0.6-0.1-1.3,0.2-2,0.4
		c-1.8-1-3.6-1.6-5.6,0c-0.4-1.1-1.3-1.4-2.3-1.5c-1.4-0.2-2.8-0.5-3.9-1.7c0.4-1.1,0.9-2.2,1.3-3.4c0.4-1.1,1.2-2.2-0.5-3.4
		c1.9-0.5,2.1-1.7,2.2-2.9c0.2-1.2,0.9-2.5,0.3-3.8c-0.1-0.2,0-0.4,0-0.6c1.3-2.5,1.1-5.3,1.1-8c0-0.6,0.1-1.2,0.1-1.8
		c1.9-0.6,3.8-0.5,5.7-0.3c5.3,0.5,10.7,1,16,1.6c5.8,0.7,11.6,0.9,17.4,0.8c2,0,3.9,0,5.9,0C98.6,76,99,76.1,99.4,76.2z M60.5,74.6
		c-0.2,0.9-0.4,1.6-0.4,2.4c-0.1,1.6,0.3,2.1,1.8,2.4c1,0.2,2.1,0.3,3.2,0.4c0.5-1.3-0.1-2.9,1.1-4.1c0.8,1.5-0.1,2.9,0.6,4.5
		c1.1,0.2,2.3,0.4,3.6,0.6c0.7-1.7,1.1-3.2,0.8-4.9C67.6,75,64.1,75.1,60.5,74.6z M82.8,94.5c-1.8,0-3.3-0.1-4.9,0
		c-0.6,0-1.2,0.2-1.4,0.9c-0.6,1.9-1.2,3.8-1.9,5.8c1.6,0.7,3.1,0.6,4.7,0.6c1.5,0,1.8-0.1,2.2-1.6C82,98.5,82.3,96.7,82.8,94.5z
		 M82.3,101.9c1.9,0.1,3.8,0.2,5.8,0.3c0.5-2.6,0.9-4.9,1.4-7.5c-1.9,0-3.6,0-5.3,0C83.5,97,82.9,99.3,82.3,101.9z M70.9,87
		c-0.3,1.2-0.3,2.1-0.7,2.9c-0.5,1-0.3,1.9-0.1,3.1c1.6,0.1,3.2,0.2,4.8,0.3c0.7,0,1.2-0.3,1.3-1c0.3-1.6,0.6-3.1,0.9-5
		C74.9,87.2,72.9,87.1,70.9,87z M68.2,100.3c1.6,0.2,3,0.5,4.4,0.7c0.6,0.1,1.1-0.2,1.2-0.8c0.6-1.8,1.1-3.6,1.7-5.6
		c-2.3,0-4.3,0-6.6,0C68.6,96.3,68.4,98.1,68.2,100.3z M89.1,102c0.5,0.1,0.8,0.2,1.1,0.2c0.3,0,0.7,0.1,1,0.1
		c1.5-0.1,2.1-0.5,2.5-2.1c0.2-0.8,0.4-1.7,0.7-2.5c0.2-1,0.5-1.9,0.8-3.1c-1.7,0-3.1-0.3-4.6,0.3C90.1,97.2,89.6,99.5,89.1,102z
		 M83.9,87.8c-1.8-0.2-3.6-0.5-5.4,0c-0.6,1.8-0.9,3.5-1.1,5.5c2,0.2,3.8,0.1,5.6-0.1C83.5,91.3,84.1,89.6,83.9,87.8z M55,98.4
		c0.8-2,1.7-3.7,1.5-5.8c-1.5-0.5-2.9-0.7-4.5-0.5c-0.6,1.7-1.3,3.3-1.9,5C51.6,98.2,53.3,98.2,55,98.4z M84.3,93.1
		c2,0.4,3.8,0.3,5.6,0.2c0.7-1.8,0.9-3.4,0.7-5.2c-1.7-0.1-3.3-0.2-5.1-0.3C85,89.6,84.7,91.3,84.3,93.1z M53.6,84.7
		c-0.6,1.8-0.8,3.7-1,5.7c1.5,0.5,2.8,1.2,4.5,0.8c0.4-1.9,0.7-3.8,1.1-5.8C56.8,84.8,55.3,84.8,53.6,84.7z M64.4,86.1
		c-1.6-0.3-3.1-0.8-4.8-0.4c-0.4,1.9-0.7,3.8-1.1,5.8c1.3,0.6,2.5,0.6,3.8,0.6C63.3,90.3,64,88.4,64.4,86.1z M63.3,93.5
		c-0.5,2-1.4,3.7-1.7,5.6c1.7,0.5,3.1,0.8,4.8,0.6c0.5-1.8,1.1-3.6,1.2-5.8C66.2,93.8,64.9,93.7,63.3,93.5z M72.7,76
		c-0.3,1.7-0.5,3.1-0.8,4.6c1.7,0.9,3.5,0.3,5.3,0.4c0.3-1.4,0.6-2.7,1-4.2C76.4,76.3,74.7,75.8,72.7,76z M79.4,81.1
		c2,0.5,3.9,0.2,5.8-0.2c0.5-1.4,0.4-2.7-0.1-4c-1.8,0-3.4,0-5,0C79.6,78.3,78.8,79.5,79.4,81.1z M78.6,86.2
		c2.1,0.5,3.9,0.5,5.7,0.1c0.4-1.4,0.7-2.7,0.3-4.1c-1.9,0-3.7-0.2-5.6,0C78.9,83.6,78.8,84.8,78.6,86.2z M69.6,86.6
		c-1.5-0.2-2.6-0.3-3.8-0.5c-0.7,2.1-1.4,4.1-2.1,6.3c1.6,0.1,2.9,0.2,4.3,0.3C68.5,90.8,69,88.9,69.6,86.6z M85.7,86.6
		c1.9,0,3.5,0,5.2,0c0.6-1.3,0.7-2.7,0.7-4.2c-1.8-0.4-3.5-0.3-5.4-0.3C86,83.6,85.9,84.9,85.7,86.6z M77.6,82.1
		c-2.1-0.2-3.9-0.3-5.8-0.1c-0.1,1.2-0.2,2.3-0.4,3.6c2,0.6,3.9,0.6,6,0.6C77.5,84.7,77.5,83.5,77.6,82.1z M58.2,92.9
		c-0.7,2.1-1.2,3.9-1.9,5.8c1.4,0.1,2.6,0.3,3.8,0.4c0.6-1.9,1.4-3.6,1.6-5.7C60.6,93.2,59.5,93,58.2,92.9z M54.4,78.7
		c-0.1,1.8-1,3.2-0.5,4.8c1.5,0.3,2.9,0.9,4.4,0.4c0.3-1.4,0.5-2.8,0.1-4.3C57.2,79.2,56,79,54.4,78.7z M95.3,93.3
		c0.2-1.8,1.1-3.4,0.8-5.3c-1.4,0.1-2.6,0.2-3.9,0.2c-0.3,1.8-0.6,3.4-0.9,5.1C92.7,93.3,93.8,93.3,95.3,93.3z M59.9,84.3
		c1.7,0.3,3.1,0.6,4.8,0.9c0.2-1.5,0.3-2.8,0.4-4.1c-1.8-0.4-3.3-0.7-5-1c-0.1,0.7-0.2,1.1-0.2,1.6C59.9,82.4,59.9,83.3,59.9,84.3z
		 M92.2,87.2c1.8-0.2,3.1-0.3,4.6-0.4c0.3-1.5,0.5-2.8,0.8-4.4c-1.5,0-2.7-0.1-3.9,0c-0.4,0-0.9,0.5-1,0.8
		C92.5,84.4,92.4,85.6,92.2,87.2z M93.2,81.1c1.5,0.5,3,0.7,4.6,0.3c0-1.3,0.8-2.5,0.4-3.8c-1.6-0.5-3.1-0.5-4.7-0.1
		C93.4,78.7,92.7,79.8,93.2,81.1z M91.9,77.3c-1.9-0.2-3.4-0.4-5-0.1c-0.1,1.3-0.2,2.5-0.3,3.9c1.8,0,3.4,0.3,5.2-0.2
		C91.7,79.7,91.8,78.6,91.9,77.3z M66.6,81.1c-0.5,1.5-0.6,2.7-0.3,4c1.2,0.4,2.4,0.7,3.8,0.3c0.1-1.3,0.1-2.5,0.2-3.8
		C69,81.4,67.8,81.2,66.6,81.1z M58.9,74.8c-1.7-0.4-3-0.8-4.5-0.1c0,0.8,0,1.7,0,2.5c1.4,0.7,2.7,1.2,4.3,1.1
		C58.7,77.1,58.8,76,58.9,74.8z"/>
	<path id="XMLID_11_" class="st2" d="M72.7,63.1c-0.3-0.1-0.5-0.2-0.6-0.2c-3,0.9-6.1,0.4-9.1,0.2c-1.8-0.1-3.4-0.8-4.7-2.5
		c0.6-1.1,1.1-2.2,1.7-3.3c1.8-3,4.2-5.4,7.2-7.4c2.9-1.9,5.9-3.2,9.1-4.3c2.2-0.8,4.4-0.8,6.6-0.9c0.6,0,1.3,0.4,1.8,0.8
		c0.8,0.7,1.5,1.6,2.2,2.4c1.4,1.7,2.7,3.6,4.1,5.3c1.2,1.5,1.8,3.1,2.2,5c0.4,2.2-0.4,4.1-1.5,6c-0.4,0.7-0.5,1.3-0.1,2
		c0.6,1.3,1.1,2.6,1.8,4.1c1.5-0.2,3-0.3,4.4-0.6c0.4-0.1,0.8-0.7,0.9-1.2c0.3-1.5,0.7-3.1,0.8-4.6c0.3-5.9,1.4-11.7,2.3-17.5
		c0.2-1.2,0.2-2.4,0.2-3.6c0.1-1.1-0.6-1.8-1.6-2.1c-0.6-0.2-1.2-0.2-1.8-0.2c-4.3,0-8.7,0-13-0.1c-1.6,0-3.2-0.2-4.9-0.3
		c-3.4-0.2-6.8,0-10.1-0.8c-0.3-0.1-0.5-0.1-0.8-0.1C66,39,62.1,39,58.3,38.9c-0.4,0-0.8,0-1.3,0.1c-0.3,3.3-0.5,6.5-0.8,10
		c2.4-1.1,3.6-3.2,6-4.1c-0.1,0.4-0.1,0.6-0.2,0.7c-1.8,1.5-3.5,3-5.4,4.4c-0.8,0.6-0.9,1.3-1,2.3c2.4-1.7,4.7-3.3,6.9-4.9
		c0.1,0.1,0.2,0.2,0.3,0.3c-0.4,0.4-0.8,0.8-1.2,1.2c-1.7,1.3-3.4,2.8-5.2,3.9c-1.1,0.6-1.3,1.4-1.4,2.4c-0.5,4.5-1,9-1.5,13.5
		c-0.1,0.6-0.1,1.2-1.1,1.3c-0.1-0.4-0.2-0.7-0.2-1c0.5-3.4,1-6.8,1.4-10.3c0.6-5.9,1.2-11.9,1.7-17.8c0-0.4,0.1-0.8,0.1-1.2
		c0.3-1.6,1.2-2.2,2.9-2.1c2.8,0.1,5.7,0.3,8.5,0.2c2.5-0.1,4.9,0.1,7.3,0.5c0.6,0.1,1.2,0.2,1.8,0.2c7.6,0.2,15.2,0.5,22.8,0.3
		c0.1,0,0.1,0,0.2,0c3.6-0.1,4.7,1,4.4,4.6c-0.2,2.5-0.8,5-1.1,7.4c-0.5,3.6-0.8,7.1-1.3,10.7c-0.3,2.4-0.5,4.7-0.8,7.1
		c-0.2,1.2-1,2-2.1,2.1c-2,0.2-4,0.4-6.1,0.5c-4.4,0-8.8,0.3-13.2-0.2c-4.2-0.4-8.4-0.1-12.6-0.4c-1.8-0.1-3.5-0.3-5.3-0.6
		c-1.6-0.2-3.2-0.4-4.8-0.7c-0.5-0.1-1-0.1-1.4-0.2c-0.2-0.1-0.4-0.5-0.4-0.8c0-0.2,0.4-0.4,0.6-0.4c0.4,0,0.8,0.1,1.2,0.2
		C60.6,69,65,70,69.5,69.9c1.6,0,1.9-0.2,2.2-1.7C72.1,66.4,72.4,64.7,72.7,63.1z M81.5,46.2c-2.6-0.6-4.8,0-6.8,1
		c-2.5,1.2-5,2.5-7.3,3.9c-1.9,1.2-3.5,2.7-4.6,4.8c1.2,1.7,1.5,3.6,0.9,5.7c2.4,0.4,4.7,0.7,7,0.2c3.9-0.9,7.7-2.4,11.2-4.5
		C80.8,53.6,80.2,50,81.5,46.2z M91.5,70.5c0-0.4,0.1-0.6,0-0.8c-0.7-1.5-1.3-3.1-2-4.6c-0.2-0.3-0.8-0.6-1.2-0.5
		c-1,0.3-1.5-0.3-2.2-0.8c-1.6-1.3-3-2.9-3.8-4.8c-1.5,0.6-3,1.2-4.4,1.7c-0.8,0.3-1.5,0.6-2.3,0.8c-0.7,0.2-1.1,0.7-1.3,1.4
		c-0.4,1.3-0.7,2.7-1.1,4.3c2-0.9,3-2.7,4.8-3.2c-0.9,1-1.9,1.8-2.9,2.7c-2.1,1.8-2,1.8-2.5,3.3c0.8-0.8,1.4-1.4,2.1-2
		c0.6-0.5,1.2-1.2,2.6-1.5c-1.1,1.2-1.9,2-2.9,3.1C80.2,70.8,85.8,70.1,91.5,70.5z M83.4,46.1c-0.2,0.2-0.4,0.2-0.4,0.3
		c-1.4,3.4-1.3,6.8,0.5,10.1c0.2,0.4,0.3,0.9,0.4,1.3c0.1,0.4,0.1,0.8,0.2,1.3c1-0.6,1.9-1,2.8-1.5c-0.5,0.9-1.2,1.4-1.8,2
		c-0.4,0.4-0.4,0.8,0.3,1.1c1.2-0.8,2.1-2,3.9-2.6c-1.1,1.5-2.9,2-3.3,3.6c1.3,1.4,2.9,1.9,4.7,1.7c1.9-3.2,1.8-6.1-0.4-9
		c-1.9-2.5-3.8-4.9-5.7-7.4C84.3,46.7,83.8,46.4,83.4,46.1z"/>
	<path id="XMLID_10_" class="st2" d="M107.7,51.8c-1,0.7-2,1.5-3.3,2.4C105.1,52.6,106,52,107.7,51.8L107.7,51.8z"/>
	<path id="XMLID_9_" class="st2" d="M74,53.5c-1.3,0-1.9-0.5-1.8-1.3c0.1-0.9,1-1.6,2-1.6c0.9,0,1.6,0.6,1.6,1.5
		C75.8,53,75.2,53.5,74,53.5z"/>
	<path id="XMLID_8_" class="st2" d="M65.9,56.4c0.5-0.2,0.8-0.3,1.1-0.4c0.1,0,0.3,0.3,0.4,0.5c-0.3,0.2-0.6,0.4-0.9,0.5
		C66.4,57.1,66.2,56.8,65.9,56.4z"/>
	<path id="XMLID_7_" class="st2" d="M69.5,58.3c-0.4,0.3-0.6,0.5-0.9,0.6c-0.1,0-0.5-0.4-0.4-0.4c0.2-0.2,0.4-0.5,0.6-0.6
		C68.9,57.7,69.2,58,69.5,58.3z"/>
	<path id="XMLID_6_" class="st2" d="M69.8,54.8c0.3,0.3,0.6,0.6,0.6,0.6c-0.2,0.2-0.4,0.4-0.6,0.6c0,0-0.4-0.2-0.4-0.3
		C69.4,55.5,69.6,55.2,69.8,54.8z"/>
	<path id="XMLID_5_" class="st3" d="M58.5,74c-0.1,0.5-0.2,0.9-0.1,1.4c0.1,1.7,0.7,3.2,2.3,4c2.6,1.3,5.7-0.6,5.9-3.5
		c0.1-1-0.7-2-1.8-2.2c-1.5-0.3-2.8,0-3.9,1.2c-0.3,0.4-0.5,0.8-0.9,1.1c-0.2,0.2-0.6,0.3-1.1,0.4c0.3-2.2,1.7-3.6,3.9-3.9
		c0.7-0.1,1.4-0.1,2,0c2.2,0.4,3.4,2.6,2.4,4.6c-0.4,0.8-0.9,1.5-1.5,2.1c-1.7,1.8-3.4,2-5.7,0.8c-2-1.1-3-3.2-2.4-5.3
		c0.1-0.3,0.4-0.6,0.6-1C58.3,74,58.4,74,58.5,74z"/>
	<path id="XMLID_4_" class="st3" d="M62.6,86.7c-0.1,0.5-0.2,0.9-0.1,1.4c0.1,1.7,0.7,3.2,2.3,4c2.6,1.3,5.7-0.6,5.9-3.5
		c0.1-1-0.7-2-1.8-2.2c-1.5-0.3-2.8,0-3.9,1.2c-0.3,0.4-0.5,0.8-0.9,1.1c-0.2,0.2-0.6,0.3-1.1,0.4c0.3-2.2,1.7-3.6,3.9-3.9
		c0.7-0.1,1.4-0.1,2,0c2.2,0.4,3.4,2.6,2.4,4.6c-0.4,0.8-0.9,1.5-1.5,2.1c-1.7,1.8-3.4,2-5.7,0.8c-2-1.1-3-3.2-2.4-5.3
		c0.1-0.3,0.4-0.6,0.6-1C62.4,86.7,62.5,86.7,62.6,86.7z"/>
	<path id="XMLID_3_" class="st3" d="M89.6,82.4c-0.1,0.5-0.2,0.9-0.1,1.4c0.1,1.7,0.7,3.2,2.3,4c2.6,1.3,5.7-0.6,5.9-3.5
		c0.1-1-0.7-2-1.8-2.2c-1.5-0.3-2.8,0-3.9,1.2c-0.3,0.4-0.5,0.8-0.9,1.1c-0.2,0.2-0.6,0.3-1.1,0.4c0.3-2.2,1.7-3.6,3.9-3.9
		c0.7-0.1,1.4-0.1,2,0c2.2,0.4,3.4,2.6,2.4,4.6c-0.4,0.8-0.9,1.5-1.5,2.1c-1.7,1.8-3.4,2-5.7,0.8c-2-1.1-3-3.2-2.4-5.3
		c0.1-0.3,0.4-0.6,0.6-1C89.4,82.3,89.5,82.4,89.6,82.4z"/>
	<path id="XMLID_2_" class="st3" d="M82.3,92.8c-0.3,0.5-0.7,1-0.9,1.5c-0.9,2-1.1,4-0.1,5.7c1.7,2.7,5.8,2,7.6-1.3
		c0.6-1.1,0.4-2.6-0.5-3.3c-1.3-1-2.7-1.3-4.4-0.4c-0.5,0.3-1,0.7-1.5,0.9c-0.4,0.1-0.8,0-1.3,0c1.6-2.4,3.7-3.4,5.9-2.7
		c0.7,0.2,1.4,0.5,1.9,1c1.9,1.5,1.8,4.5-0.3,6.4c-0.8,0.7-1.7,1.3-2.7,1.8c-2.6,1.3-4.4,0.8-5.9-1.7c-1.3-2.2-1.1-5,0.7-7.3
		c0.3-0.4,0.7-0.6,1.1-0.9C82.1,92.6,82.2,92.7,82.3,92.8z"/>
</g>
</svg>
