<?xml version="1.0" encoding="utf-8"?>
<!-- Generator: Adobe Illustrator 19.0.0, SVG Export Plug-In . SVG Version: 6.00 Build 0)  -->
<svg version="1.1" id="Warstwa_1" xmlns="http://www.w3.org/2000/svg" xmlns:xlink="http://www.w3.org/1999/xlink" x="0px" y="0px"
	 viewBox="0 0 140 110" style="enable-background:new 0 0 140 110;" xml:space="preserve">
<style type="text/css">
	.st0{fill:#FFFFFF;}
	.st1{fill:#EB594B;}
	.st2{fill:#BCBCBB;}
	.st3{fill:#010202;}
</style>
<g id="XMLID_1_">
	<path id="XMLID_34_" class="st0" d="M102.8,51.5c-0.6-1.5-0.8-3.2-1.2-4.8c-1.1-4.6-3.8-8.6-6.5-12.6c-0.8-1.2-1.7-2.5-3-3.1
		c-1-0.5-2.1-0.6-3.2-0.8c-26-3-52.3-5.2-78.4-3.7C4.8,40.5,13,57.7,5.7,70.9c-1,1.8-2.2,3.5-3,5.4c-0.8,1.9-0.9,4.2,0.2,5.9
		c1.5,2.3,4.6,2.7,7.3,2.8c3.8,0.2,8.3-0.2,10.1-3.6c0.5-1,0.7-2.1,1.4-3c1.2-1.5,3.3-1.6,5.2-1.6c10.8-0.1,21.6-0.3,32.4-0.4
		c2.7,0,5.5,0,7.9,1.3c3,1.7,4.7,5.2,7.8,6.5c3.3,1.4,7.1-0.2,10.4-1.7c-0.6-2.2,1.1-4.5,3.1-5.4c2.1-0.9,4.4-0.8,6.7-0.7
		c7.2,0.3,17.3,2.7,19.5-6.5c1-4.1,1.4-8.1-2.5-10.2C108.5,57.7,104.5,55.7,102.8,51.5z"/>
	<path id="XMLID_33_" class="st1" d="M78.1,26.5l-71-2.8l-1.9,1.6l1.4,44.6l13.2,0.7L74,71l6-1L78.1,26.5z"/>
	<path id="XMLID_32_" class="st2" d="M74.1,70.7c-2.5,0-4.9,0-7.4,0c-0.5,0-1.1,0-1.6,0.1c-1.6,0.3-3,1.4-4.1,2.6
		c-0.5,0.6-1,1.2-1.3,1.9c-0.1,0.3-0.2,0.6,0,0.9c0.1,0.2,0.3,0.3,0.5,0.3c1.3,0.5,2.8,0.3,4.2,0.2c1.1-0.1,2.3-0.2,3.4-0.4
		c0.7-0.1,1.3-0.1,2-0.3c1.9-0.6,3.4-2.2,3.8-4.1"/>
	<path id="XMLID_31_" class="st2" d="M21.1,76.4c0.2,0.2,0.5,0.3,0.8,0.4c0.9,0.2,1.7,0.3,2.6,0.4c0.9,0,1.9,0,2.8,0
		c4.6-0.2,9.2-0.4,13.8-0.7c0.8,0,1.7-0.1,2.3-0.6c0.6-0.5,0.8-1.4,0.4-2.2c-0.5-1.1-1.8-1.4-3-1.5c-5.1-0.7-10.3-1.3-15.5-1.6
		c-1.5-0.1-5.1-1-6,0.7C18.9,72.3,20.3,75.7,21.1,76.4z"/>
	<path id="XMLID_30_" class="st2" d="M94.8,47.1c0.4-0.6,1-1.2,1.1-1.9c0.1-0.7-0.2-1.4-0.6-2c-0.7-1.3-1.4-2.6-2.1-3.9
		c-0.2-0.4-0.5-0.8-1-0.7c-0.2,0.1-0.4,0.3-0.5,0.5c-1.8,2.9-3.5,5.8-5.3,8.7c-0.2,0.3-0.3,0.6-0.3,0.9c0,0.4,0.4,0.8,0.8,0.9
		c0.4,0.2,0.8,0.1,1.2,0.1c1.6,0,3.5,0.2,5-0.1C94.4,49.3,94.1,48.1,94.8,47.1z"/>
	<path id="XMLID_29_" class="st2" d="M115.7,78c-0.4-1.5-0.6-3.1-0.6-4.7c-1.9,0.1-3.9,0.1-5.8,0c-0.7,0-1.4-0.1-2.1,0
		c-0.8,0-1.7,0.2-2.5,0.5c-0.3,0.1-0.5,0.2-0.7,0.4c-0.2,0.2-0.3,0.4-0.5,0.7c-0.5,0.9-0.9,1.9-0.4,2.8c0.5,0.9,1.7,0.9,2.8,0.9
		c2.8-0.1,5.6-0.1,8.5,0.1"/>
	<path id="XMLID_13_" class="st3" d="M21.6,77.9c0,0.3-0.1,0.6-0.1,0.9c-0.3,1.9-1.2,3.4-2.6,4.6c-0.8,0.7-1.7,1.2-2.6,1.9
		c-3.1,2.2-8.5,3-12.4-0.8c-0.6-0.6-1.3-1.2-1.8-1.9c-2-2.6-2.8-5.6-1.3-8.7c0.9-1.8,2.1-3.5,3.7-4.8c1.8-1.4,3.8-2.1,6.1-1.8
		c0.7,0.1,1.4,0.1,2.1,0.1c1.5,0,2.8,0.6,4,1.4c0.4,0.3,0.8,0.5,1.2,0.8c0.6,0.5,1.3,0.7,2.1,0.7c5.1,0.6,10.2,0.3,15.4,0.2
		c3.6,0,7.3-0.2,10.9-0.3c1,0,2,0.2,3,0.2c2.7,0,5.3,0.1,8,0.1c3.4,0,6.7,0,10.1,0c1.7,0,3.3-0.1,4.9,0.4c0.7,0.2,1.2,0.2,1.8-0.2
		c1.1-0.7,2.4-1,3.6-1.2c0.3-0.1,0.7-0.1,1.1-0.2c-0.1-0.7-0.1-1.3-0.2-1.9c-1.7-1.2-3.5-2.5-5.2-3.7c2,0.4,3.4,2,5.3,2.9
		c0.1-0.9,0.1-1.5,0.2-2.2c0-1-0.1-1.9,0-2.9c0.1-2.2,0.2-4.5,0.2-6.7c0-1.1-0.1-2.1-0.1-3.2c-0.1-2.6-0.4-5.1-0.4-7.7
		c0-1.9,0.2-3.8,0.3-5.8c0.2-3.4,0.1-6.8-0.1-10.2c0-0.6,0.1-1.2,0.3-1.7c0.1-0.2,0.5-0.4,0.9-0.7c0.1,1.1,0.1,2,0.1,2.9
		c0.4,0.1,0.7,0.3,1,0.4c2.5,0.3,5,0.5,7.5,0.8c1.7,0.2,3.4,0.3,5.1,0.4c0.1,0,0.3,0.2,0.4,0.3c-0.1,0.4-0.1,0.7-0.1,0.9
		c0.4,0.4,0.9,0.6,1.1,1c0.4,0.7,0.7,1.5,0.9,2.2c1,3.6,3.1,6.8,4.6,10.2c0.7,1.5,1.4,3.1,2.2,4.6c0.7,1.4,1.8,2.7,2.2,4.3
		c0.1,0.4,0.5,0.7,0.8,0.9c1,0.6,2,1,2.9,1.6c1.6,1,3.2,2,4.7,3c0.7,0.4,1.3,0.9,2.1,1.2c0.6,0.3,0.9,0.7,0.9,1.4
		c0,3.2,0.1,6.4,0,9.6c-0.1,2-0.2,3.9,0,5.9c0.1,1-0.2,1.7-0.9,2.5c-0.6-0.4-1.2-0.6-1.9-0.3c-0.7-0.5-1.5-0.3-2.3-0.3
		c-3.7,0-7.5,0-11.2-0.1c-0.4,0-0.9,0-1.3-0.1c-1.3-0.1-2.6-0.3-3.8-0.2c-1.9,0.2-3.7,0.3-5.6,0.1c-0.1,0-0.2,0.1-0.3,0.2
		c0,0-0.1,0.1-0.1,0.1c0,0.5,0,1,0,1.4c0,2.5-1,4.6-3.2,5.9c-0.7,0.4-1.6,0.7-2.3,1c-2.6,1-5.2,0.7-7.7-0.1c-1.6-0.5-3-1.4-4-2.8
		c-1.4-2-2.4-4.2-2.5-6.7c0-0.3-0.1-0.6-0.1-1.1c-0.7-0.1-1.4-0.3-2-0.3c-1.4,0-2.9,0.1-4.3,0.2c-2.7,0.1-5.3,0.3-8,0.3
		c-5.2,0-10.4,0.4-15.7,0.2c-4-0.1-8.1,0-12.1,0.4c-0.3,0-0.5-0.1-0.8-0.1c-1.3,0-2.7,0-4,0C21.6,77.8,21.6,77.9,21.6,77.9z
		 M110.6,75.7c-0.3,1.2-0.3,1.4,0.4,2.1c0.5-0.6-0.2-1.2-0.1-1.8c0.3,0.3,0.5,0.6,0.9,1c0.2-0.9,0.3-1.6-0.1-2.3
		c-0.1-0.2-0.5-0.2-0.9-0.3c0.1,0.7,0.1,1.1,0.2,1.6C110.9,75.9,110.7,75.8,110.6,75.7z M95.3,39.6c0.3,1.2,0.7,2.3,1.1,3.5
		c0.2,0.6,0.4,1.1,1.4,1c-0.3-0.7-0.6-1.4-0.9-2c-0.4-1-0.8-2.1-1.2-3.1c-0.2-0.4-0.5-0.6-0.7-1c0.1-1.1-0.2-2-1-2.7
		c0.4,0.9,0.7,1.8,1.1,2.7C95,38.4,95.1,39,95.3,39.6z M78.6,79.2c0.7,0.4,1.5,0.8,2.2,1.3c0.3,0.2,0.7,0.4,1,0.6
		c0.5-0.4,0.4-0.8,0-1c-0.5-0.4-1.1-0.8-1.7-1.2c-0.3-0.2-0.5-0.4-0.7-0.8c1.2,0.2,2,1.1,3,1.6c0.1-1.4-0.6-2.7-1.9-3.3
		c-1.3-0.6-2.7-0.9-4.2-0.7c-0.8,0.1-1.2,0.5-1.6,1.2c-1.3,2.3,0.9,5.9,3.5,5.8c0.3,0,0.6,0,0.8-0.1c0.5-0.4,0.9-0.4,1.5-0.3
		c0.1,0,0.3-0.2,0.6-0.5c-0.4-0.4-0.7-0.7-1-1C79.6,80.3,78.8,80,78.6,79.2L78.6,79.2z M94.9,66.7c0.7,0.5,1.5,1,2.2,1.5
		c0.4,0.3,0.8,0.7,1.3,1.1c0.5-0.5,0.3-1.1,0.3-1.6c-0.1-2.5-0.2-5-0.3-7.5c0-1.5,0-3,0-4.5c0-0.5,0.1-0.9,0.1-1.3
		c0.7-0.2,0.9,0.1,0.9,0.6c0,1.3,0.1,2.7-0.1,4c-0.4,2.8,0.2,5.5,0.2,8.3c0,1.2,0,2.5,0.1,3.7c0,0.8,0,1.6,0.1,2.4
		c5,0.4,9.9-0.2,14.8,0c0.4-3,0.6-3.2,0-5.4c-1.4-0.2-2.8-0.4-4.2-0.5c-0.5-1.8-0.1-5.6,0.8-7.3c0.6,0.5,0.6,1.1,0.4,1.7
		c-0.1,0.8-0.3,1.6-0.4,2.4c-0.1,0.6,0,1.3,0,2.1c0.6,0.1,1.2,0.3,2.1,0.5c-0.3-0.5-0.4-0.7-0.5-0.9c-0.1-0.2-0.2-0.3-0.4-0.5
		c0.1-0.1,0.2-0.2,0.3-0.1c0.6,0.3,1.2,0.6,2,1c-0.2-0.5-0.2-0.9-0.4-0.9c-1-0.3-1.4-1.2-2.3-2c1.2-0.1,1.8,0.7,2.5,1.3
		c0.5-0.9,0.4-1.6-0.1-2.3c-0.8-1.1-1.7-2-3-2.6c-2.2-1.2-4.4-2.4-6.6-3.5c-0.9-0.5-1.4-1.1-1.8-2.1c-0.6-1.6-1.4-3.1-2.2-4.6
		c-0.1-0.3-0.4-0.5-0.7-0.9c-0.1,0.5-0.2,0.8-0.2,1.1c0,0.4,0,0.9,0,1.3c0,1-0.1,2.1-1.1,2.6c-0.8,0.4-2.7,0-3.4-0.9
		c-0.8-1-1.7-1.3-2.9-1.4c-2.3-0.1-4.6-0.4-6.9-0.5c-0.3,0-0.6,0-1,0c-1.6-0.2-2-0.7-2.1-2.3c-0.3-4.4-0.4-8.7-0.3-13.1
		c0-0.9,0.1-1.7,0.5-2.6c3.5,0,6.9,0.4,10.6,1.2c-0.2-1-0.2-1.7-0.7-2.4c-4.1-0.3-8.3-0.7-12.4-1c-0.4,0.9-0.1,1.8-0.1,2.7
		c0,2.2,0,4.4,0,6.5c0,1.8,0,3.5,0,5.3c0,0.2,0,0.4,0,0.6c0.1,5,0.1,10,0.2,15c0,2-0.1,3.9-0.2,5.9c0,1.2,0,2.4,0,3.6
		c1.2,0.5,2.4,1,3.6,1.5c0.2,0.1,0.4,0.2,0.5,0.3c0.8,0.9,1.9,1,3.1,1c1.5-0.1,3.1,0,4.6,0.2c1.7,0.3,3.5,0.3,5.3,0.4
		c0.4,0,0.8-0.1,1.3-0.1c0.7-1,0.1-2.1,0.3-3C97.3,69,96.1,67.9,94.9,66.7C94.9,66.7,94.9,66.7,94.9,66.7z M93.6,47.5
		c0-0.4-0.3-0.9-0.6-1.2c-0.3-0.4-0.8-0.7-1.2-1c-0.4-0.3-0.8-0.6-1-1.1c1,0.6,2,1.3,2.9,1.9c0.5-0.3,0.5-0.7,0.2-1
		c-0.4-0.5-0.9-0.9-1.4-1.3c-0.5-0.5-1-0.9-1.4-1.5c0.3,0.2,0.7,0.5,1,0.7c0.4,0.3,0.8,0.5,1.2,0.8c0.4,0.3,0.8,0.6,1.1,0.8
		c1.1-1,1.1-1,0.2-1.8c0-0.6,0.1-1.2,0-1.7c-0.6-1.8-1.2-3.6-1.9-5.5c-0.2-0.5-0.4-0.9-0.9-1c-2.7-0.7-5.4-1-8.2-0.9
		c-0.5,0.8-0.5,1.6-0.5,2.4c0,1.4,0,2.8,0,4.1c0.1,2.8,0.3,5.5,0.5,8.3c0.1,0.8,0.4,1.1,1.2,1.2c0.6,0.1,1.2,0,1.8,0.1
		c2.1,0.2,4.1,0.3,6.2,0.5c0.3,0,0.5,0,0.8,0C93.7,49.1,93.7,48.3,93.6,47.5z M30.5,75.4c2.2,0,4.4,0.1,6.6,0.1
		c4.4,0.1,8.7,0.2,13.1,0.2c4,0,8,0,12-0.1c1.6,0,3.3-0.2,4.9-0.3c0.5-1.1,0.5-2.1,0.5-3.4c-13.9-0.5-27.8-0.5-41.8,0.2
		c0.1,0.9,0.3,1.8,0.4,2.8C27.6,75.3,29,75.4,30.5,75.4z M109.8,74.5c-0.5-0.1-0.9-0.1-1.3-0.1c-1.7,0-3.4,0.1-5.1,0
		c-5.1-0.2-10.1-0.5-15.2-0.7c-0.6,0-1.3,0-2,0c0.3,1.4,1.1,2.4,1.7,3.4c7.2,0.3,14.3,0.5,21.5,0.7c0.2,0,0.4-0.1,0.6-0.3
		C109.9,76.6,109.9,75.6,109.8,74.5z M12.7,78c-1.1-0.8-2.2-1.6-3.3-2.5c0.7,0.3,1.5-0.4,2.3,0.3c0.6,0.5,1.4,0.9,2.3,1.4
		c0.4-1,0-1.8-0.6-2.4c-1.4-1.3-3.1-2-5-1.4c-1.4,0.4-2.2,1.6-2,3.1c0.4,3.5,3.3,4.7,5.8,4.3c1.2-0.2,1.9-1.1,2.1-2.7
		C13.6,78.5,13.2,78.4,12.7,78z M98.6,50.8c-0.1-1-1.2-1.2-1.6-2.2c0.6,0.2,1,0.4,1.4,0.6c0.4-1.6,0-2.8-1.2-3.8
		c-0.9-0.7-1.8-0.5-2.1,0.6c-0.4,1.5-0.7,3,0.3,4.4c0.3,0.5,0.4,1.2,1,1.5c0.5,0.2,1,0.4,1.5,0.4c0.2,0,0.4-0.3,0.5-0.5
		c0.1-0.1,0-0.4-0.2-0.6c-0.5-0.4-1-0.8-1.5-1.1c0.1-0.1,0.1-0.2,0.2-0.3C97.4,50.3,97.9,50.5,98.6,50.8z M22.9,76.6
		c0.2-1.5,0.5-3,0.7-4.5c-1.3-0.4-2.1-0.4-3.5-0.1c0.5,1.5,1.1,2.9,1.6,4.5C22,76.5,22.4,76.5,22.9,76.6z M69.1,75.3
		c0.4-1,0.2-2.1,1-3C70,72.8,70,73.2,69.9,74c0.8-0.7,1.3-1.1,1.9-1.7c-1.1-0.8-2.3-0.5-3.4-0.6c-0.2,1.2-0.3,2.3-0.5,3.5
		C68.3,75.3,68.7,75.3,69.1,75.3z M24.4,72.1c-0.8,0.8-0.6,1.7-0.6,2.6c0.5,0.1,1.1,0.2,1.7,0.3c0.4-1,0-1.8-0.4-2.9
		c-0.2,0.4-0.3,0.6-0.5,1C24.5,72.9,24.4,72.6,24.4,72.1z M113.7,77.3c0,0.2,0.4,0.3,0.5,0.5c0.1-0.2,0.4-0.4,0.4-0.6
		c0-0.8-0.2-1.6-0.3-2.7C113.7,75.6,113.6,76.4,113.7,77.3z M113.3,74.5c-0.3,0-0.5,0-0.5,0.1c-0.3,0.6-0.2,1.5,0.3,3.1
		C113.2,76.4,113.3,75.5,113.3,74.5z"/>
	<path id="XMLID_12_" class="st3" d="M6.5,29.6c1.9,1.2,3.5,2.1,5.1,3.1c-0.4-1.1-1.4-1.5-2.3-2c-0.9-0.5-1.8-1.1-2.7-1.6
		c0-1.4,0-2.8,0-4.3c0.8-0.1,1.6-0.2,2.3-0.2c2.8,0.1,5.7,0.2,8.5,0.5c5.4,0.4,10.8,0.6,16.2,0.7c4.2,0,8.3,0.3,12.5,0.5
		c1.3,0,2.6,0,3.8,0.1c2.8,0.1,5.7,0.2,8.5,0.3c1.8,0.1,3.5,0.2,5.3,0.3c1.5,0,3-0.1,4.5-0.1c2.3,0,4.6,0,6.9,0
		c0.7,0,1.5,0.2,2.2,0.2c0.3,0,0.5-0.2,1-0.4c-0.5-0.2-0.7-0.5-1-0.5c-2.7-0.1-5.3-0.3-8-0.4c-0.7,0-1.5,0.3-2.2,0.3
		c-1.6,0-3.2,0-4.8-0.1c-1.1,0-2.2-0.2-3.3-0.2c-4.3-0.1-8.5-0.3-12.8-0.4c-4.2-0.1-8.3-0.3-12.5-0.4c-6.7-0.2-13.3-0.5-20-1.2
		c-2.1-0.2-4.3,0-6.4,0c-1.1,0-1.7,0.6-1.9,1.6C5.2,26.4,5,27.5,5,28.6c-0.1,3.3-0.1,6.6-0.1,9.9c0,2,0.1,4,0.1,6.1
		c0,4.5-0.1,9-0.1,13.4c0,2.6,0,5.1,0,7.7c0,0.2,0,0.4,0,0.6c0,0.9,0.2,1.3,0.7,1.2c0.7-0.1,0.8-0.7,0.8-1.2
		c0.2-2.1,0.5-4.3,0.3-6.4c-0.2-4.7-0.2-9.5-0.3-14.2C6.3,42,6.2,38.2,6.1,34.5C6.1,33,6.3,31.5,6.5,29.6z"/>
	<path id="XMLID_11_" class="st1" d="M113,55.5c-0.1,0.5,0.3,0.6,0.7,0.7c0.6,0.1,1.3,0.2,1.9,0.2c4.6,0.3,9.3,0.7,13.9,0.9
		c3.2,0.1,6.4,0.1,9.6,0.8c0.2,0,0.4,0.1,0.6,0.1c0.1,0,0.2-0.1,0.3-0.1c0-0.7-0.6-0.8-1.1-0.9c-1.7-0.2-3.4-0.4-5.1-0.6
		c-1.4-0.1-2.8,0-4.2-0.1c-3.1-0.2-6.3-0.4-9.4-0.6c-2.3-0.2-4.7-0.3-7-0.5C113.1,55.4,113.1,55.5,113,55.5z"/>
	<path id="XMLID_10_" class="st1" d="M109.7,50c0.4,0.1,0.6,0.2,0.7,0.2c3.3-0.1,6.6-0.2,9.9-0.3c1.1,0,2.1-0.1,3.2-0.2
		c1.3,0,2.6,0,3.8,0c2,0.1,4,0.3,6.1,0.5c0.3,0,0.6-0.1,0.8-0.2c0-0.6-0.3-0.7-0.7-0.7c-1.6-0.1-3.2-0.1-4.8-0.2
		c-3.4-0.2-6.8-0.1-10.2,0.1c-2.5,0.1-5,0-7.5-0.1C110.4,49.1,110.4,49.1,109.7,50z"/>
	<path id="XMLID_9_" class="st3" d="M12.5,31.4c-1.7-1.9-4.2-3.3-5.5-3.4c0,0.1,0,0.2,0.1,0.3C8.9,29.3,10.7,30.4,12.5,31.4z"/>
	<path id="XMLID_8_" class="st3" d="M77.6,68.8c-0.9-1.5-2.3-2.4-3.8-3.3c0.1,0.6,0.7,0.8,1.1,1.1c0.4,0.4,0.8,0.8,1.3,1.2
		c0.4,0.4,0.8,0.8,1.2,1.2C77.4,69,77.5,68.9,77.6,68.8z"/>
	<path id="XMLID_7_" class="st3" d="M96.3,56.7c-0.1-0.3-0.2-0.5-0.2-0.6c-1-2.1-1.4-1.6-3.4-1.4c-0.2,0-0.4,0.1-0.6,0.2
		c-0.1,0.1-0.2,0.2-0.4,0.3c0,0.7,0.5,1,1,1.2C93.8,56.9,94.9,57.3,96.3,56.7z"/>
	<path id="XMLID_6_" class="st3" d="M94.2,68.4c1,0.8,2,1.7,3.1,2.6C97.1,70,96.6,69.5,94.2,68.4z"/>
	<path id="XMLID_5_" class="st3" d="M94.9,66.7c-0.7-0.8-0.7-0.8-1.8-1.3C93.5,66.1,93.5,66.1,94.9,66.7L94.9,66.7z"/>
	<path id="XMLID_4_" class="st3" d="M78.6,79.2c-0.2-0.6-0.6-0.9-1.2-1C77.6,78.7,77.9,79.1,78.6,79.2L78.6,79.2z"/>
	<path id="XMLID_3_" class="st3" d="M15.6,34.4c0.1-0.2,0.2-0.4,0.3-0.6c-0.5,0-0.9,0-1.4,0c-0.2,0.1-0.2,0.6-0.6,0.7
		c0.2-0.4,0.3-0.7,0.5-1c-0.2-0.1-0.3-0.2-0.5-0.3c0.2-0.3,0.5-0.1,0.6,0c0.4,0.4,0.8,0.3,1.3,0.2c-0.2-0.2-0.3-0.3-0.4-0.5
		c0.6-0.2,0.8,0.4,1.3,0.4c0.4,0,0.8,0.3,1.3,0.1c-0.3-0.5-0.6-0.8-0.9-1.1c-0.1-0.1-0.2-0.1-0.4-0.1c-0.3-0.1-0.3,0-0.6-0.3
		c0.1-0.1,0.3-0.1,0.4-0.1c0-0.3-0.3-0.5-0.6-0.5c-0.2,0-0.5-0.1-0.7-0.1c-0.1,0-0.1-0.1-0.2-0.2c0.2,0,0.3-0.1,0.3-0.1
		c0.6,0.1,0.6,0.1,0.7-0.5c0,0,0-0.1,0.1-0.1c0.2,0,0.3,0.2,0.3,0.3c0,0.6,0.4,0.9,0.8,1.2c0.2-0.2,0.1-0.6,0.5-0.7
		c0,0.2,0,0.3-0.1,0.5c-0.2,0.6,0.1,1,0.6,1.4c0.1-0.4,0.1-0.8-0.1-1.2c-0.1-0.1-0.1-0.4,0-0.5c0.3-0.4,0.2-0.7-0.1-1
		c-0.1-0.1-0.2-0.3-0.3-0.4c0-0.1,0-0.2,0.1-0.3c0.2,0.3,0.4,0.5,0.7,0.8c0.4-0.3,0.7-0.6,1-0.8c0,0,0.1,0,0.1,0.1
		c-0.2,0.3-0.5,0.6-0.7,0.9c-0.3,0.3-0.4,0.7-0.3,1.2c0.2-0.1,0.4-0.1,0.6-0.2c0,0.2-0.2,0.4-0.3,0.5c-0.4,0.2-0.4,0.6-0.3,1
		c0.4-0.3,0.8-0.6,1-1c0.1-0.2,0.2-0.4,0.5-0.5c0.2-0.1,0.3-0.4,0.4-0.6c0.2-0.3,0.2-0.6,0.6-0.8c0,0.5-0.4,0.7-0.3,1.2
		c0.3,0.1,0.7,0.2,1.1,0.2c0,0,0,0.1,0,0.1c-0.3,0-0.6,0-0.8,0c-0.7,0-0.8,0.1-1.1,0.8c0.2,0.2,0.5,0,0.7,0.4
		c-0.5,0.1-1-0.2-1.5,0.3c-0.2,0.2-0.5,0.4-0.5,0.8c0.5,0,1,0.1,1.5,0.1c0.1,0,0.1,0,0.2-0.1c0.3-0.5,0.9-0.4,1.3-0.6c0,0,0,0,0.1,0
		c0,0.3-0.4,0.2-0.5,0.5c1,0.1,2-0.1,3.1-0.2c-0.3,0.5-0.9,0.2-1.1,0.7c0.1,0.1,0.3,0.3,0.4,0.5c-0.4,0-0.6-0.2-0.7-0.4
		c-0.2-0.3-0.4-0.4-0.7-0.3c-0.3,0-0.7,0.1-1,0.1c0,0.2,0.1,0.4,0.1,0.5c-0.1,0-0.1,0-0.1,0c-0.4-0.7-1.1-0.6-1.8-0.6
		c0.4,0.9,1.1,1.4,2,1.7c-0.1,0.1-0.2,0.2-0.3,0.4c0.1,0.4,0.7,0.5,0.4,1c0.3,0.1,0.5,0.3,0.8,0.4c-0.4,0.3-0.6-0.2-1,0
		c-0.1,0.2-0.1,0.4-0.2,0.7c-0.3-0.2-0.1-0.5,0-0.7c0-0.2,0.2-0.4,0.3-0.8c-0.3-0.3-0.6-0.6-0.9-1c-0.1,0.2-0.2,0.3-0.3,0.4
		c0,0-0.1,0-0.1,0c0-0.1,0-0.2,0-0.3c0.2-0.4,0-0.7-0.2-0.9c-0.3-0.3-0.6-0.6-1-1c0,0.6-0.2,1.1,0.2,1.6c0.2,0.4,0.2,0.8,0.3,1.3
		c-0.1,0-0.1,0.1-0.2,0.1c-0.1-0.1-0.1-0.2-0.2-0.4c-0.1,0.2-0.1,0.4-0.2,0.5c0,0-0.1,0-0.1,0c0-0.3-0.1-0.7-0.1-1
		c-0.2,0-0.3,0-0.4,0c0-0.1,0-0.1,0-0.1c0.7-0.5,0.5-1.1,0.4-1.8c-0.6,0.5-1,1.1-1.1,1.8c0,0.2,0,0.4-0.3,0.3c0-0.1,0-0.3,0-0.5
		c-0.4,0.3-0.6,0.6-0.8,1c-0.1,0.3-0.2,0.5-0.3,0.8c0,0.1-0.2,0.1-0.3,0.1c0.1-0.3,0.2-0.6,0.3-1c-0.3-0.1-0.5-0.1-0.8-0.2
		c0.3-0.3,0.6-0.1,0.9-0.1c0.3-0.4,0.6-0.7,0.9-1.2c-0.3-0.1-0.5-0.2-0.7-0.3c0.4-0.3,0.6-0.3,1,0c0.2-0.2,0.4-0.5,0.7-0.8
		c-0.4-0.2-0.7-0.2-1.1-0.2c-0.1,0-0.2,0.2-0.3,0.3c-0.2,0.2-0.3,0.3-0.5,0.5C15.7,34.5,15.7,34.4,15.6,34.4z"/>
	<path id="XMLID_2_" class="st0" d="M35.5,51.2c0.3-0.5,0.5-1,0.9-1.6c-1.3,0-2.4,0-3.7,0C32.2,50,32.2,51,31,51.5
		c0.5-1,0.9-1.8,1.3-2.6c-0.5-0.3-0.8-0.6-1.3-0.9c0.6-0.7,1.3-0.3,1.6,0c0.9,1,2,0.7,3.3,0.6c-0.4-0.4-0.7-0.7-1-1.2
		c1.5-0.4,2.1,1.1,3.3,1.1c1.1,0,2.1,0.7,3.4,0.2c-0.7-1.2-1.5-2-2.4-2.8c-0.2-0.2-0.6-0.2-1-0.2c-0.8-0.1-0.8-0.1-1.5-0.8
		c0.4-0.1,0.7-0.3,1.1-0.4c-0.1-0.7-0.8-1.3-1.6-1.4c-0.6-0.1-1.2-0.2-1.8-0.3c-0.2,0-0.3-0.2-0.6-0.5c0.4-0.1,0.7-0.3,0.9-0.2
		c1.4,0.3,1.6,0.2,1.7-1.3c0-0.1,0.1-0.2,0.2-0.4c0.6,0,0.7,0.4,0.7,0.8c0,1.5,1.1,2.3,2,3.2c0.6-0.4,0.3-1.4,1.3-1.8
		c-0.1,0.5-0.1,0.9-0.2,1.2c-0.5,1.6,0.3,2.7,1.7,3.6c0.2-1.1,0.3-2.2-0.3-3.2c-0.2-0.3-0.2-0.9-0.1-1.2c0.7-1,0.5-1.8-0.1-2.7
		c-0.3-0.4-0.5-0.7-0.8-1.1c-0.1-0.2,0-0.4,0.3-0.7c0.6,0.7,1.1,1.4,1.7,2.1c0.9-0.8,1.8-1.5,2.6-2.2c0.1,0.1,0.1,0.1,0.2,0.2
		c-0.6,0.7-1.2,1.6-1.9,2.2c-0.9,0.8-1.1,1.8-0.8,3c0.5-0.2,1-0.3,1.6-0.5c0,0.6-0.4,1-0.8,1.2c-1.1,0.6-1.1,1.5-0.8,2.6
		c1.1-0.7,1.9-1.5,2.5-2.6c0.3-0.6,0.6-1.1,1.3-1.4c0.5-0.2,0.8-0.9,1.2-1.4c0.5-0.7,0.6-1.6,1.6-2.1c0.1,1.2-1.1,1.8-0.9,3
		c0.9,0.2,1.8,0.4,2.7,0.6c0,0.1,0,0.2,0,0.3c-0.7,0-1.4,0-2.2,0c-1.7-0.1-2.2,0.2-2.9,1.9c0.5,0.4,1.4,0.1,1.8,0.9
		c-1.3,0.3-2.7-0.5-3.7,0.6c-0.5,0.6-1.2,1-1.3,2c1.3,0.1,2.6,0.2,3.8,0.2c0.1,0,0.3-0.1,0.4-0.2c0.8-1.3,2.2-0.9,3.3-1.4
		c0,0,0.1,0,0.2,0.1c0,0.9-1.1,0.6-1.4,1.4c2.7,0.2,5.2-0.4,7.9-0.6c-0.8,1.3-2.4,0.4-2.9,1.9c0.3,0.3,0.6,0.7,1.1,1.3
		c-0.9,0-1.5-0.4-1.7-1c-0.4-0.8-1-0.9-1.8-0.9C50.9,50,50,50,49.1,50.1c0.1,0.5,0.2,0.9,0.2,1.3c-0.2,0-0.4,0.1-0.4,0
		c-1-1.9-2.8-1.4-4.6-1.4c1.1,2.2,2.9,3.5,5.1,4.3c-0.3,0.4-0.5,0.6-0.7,0.9c0.3,0.9,1.7,1.3,1,2.6c0.7,0.4,1.3,0.7,2.1,1.1
		c-1,0.7-1.7-0.5-2.5,0c-0.2,0.5-0.4,1.1-0.6,1.9c-0.9-0.6-0.2-1.2-0.1-1.7c0.1-0.6,0.4-1.2,0.8-2c-0.7-0.8-1.5-1.6-2.4-2.6
		c-0.4,0.4-0.6,0.8-0.9,1.1c-0.1,0-0.2,0-0.2-0.1c0-0.3-0.1-0.5,0-0.8c0.4-1,0-1.7-0.6-2.4c-0.7-0.8-1.5-1.6-2.6-2.5
		c0,1.6-0.4,2.8,0.4,4.1c0.6,0.9,0.5,2.2,0.7,3.3c-0.1,0.1-0.3,0.2-0.4,0.3c-0.1-0.3-0.3-0.6-0.5-1c-0.2,0.6-0.3,1-0.4,1.4
		c-0.1,0-0.2,0-0.3,0c-0.1-0.9-0.2-1.8-0.2-2.7c-0.4,0-0.8,0-1.2,0c0-0.2-0.1-0.3,0-0.3c1.9-1.2,1.3-2.9,1.1-4.7
		c-1.6,1.3-2.6,2.8-2.8,4.6c0,0.4,0,0.9-0.8,0.9c0-0.4,0-0.8-0.1-1.3c-0.9,0.8-1.6,1.5-1.9,2.5c-0.2,0.7-0.5,1.4-0.8,2
		c-0.1,0.2-0.4,0.3-0.8,0.3c0.3-0.8,0.6-1.7,0.9-2.6c-0.7-0.2-1.3-0.3-2-0.5c0.9-0.8,1.6-0.3,2.4-0.4c0.7-0.9,1.5-1.9,2.4-3
		c-0.7-0.3-1.2-0.5-1.8-0.7c0.9-0.7,1.5-0.8,2.6-0.1c0.5-0.6,1.1-1.3,1.8-2c-1-0.5-1.9-0.6-2.8-0.5c-0.3,0-0.6,0.4-0.9,0.7
		c-0.4,0.4-0.8,0.9-1.3,1.3C35.7,51.4,35.6,51.3,35.5,51.2z"/>
</g>
</svg>
