<?xml version="1.0" encoding="utf-8"?>
<!-- Generator: Adobe Illustrator 19.0.0, SVG Export Plug-In . SVG Version: 6.00 Build 0)  -->
<svg version="1.1" id="Warstwa_1" xmlns="http://www.w3.org/2000/svg" xmlns:xlink="http://www.w3.org/1999/xlink" x="0px" y="0px"
	 viewBox="0 0 140 110" style="enable-background:new 0 0 140 110;" xml:space="preserve">
<style type="text/css">
	.st0{fill:#FFFFFF;}
	.st1{fill:#EB594B;}
	.st2{fill:#010202;}
	.st3{fill:#BCBCBB;}
</style>
<g id="XMLID_1_">
	<path id="XMLID_61_" class="st0" d="M63.6,101.4c-2.4,0.7-4.9,1.4-7.3,0.7c-1.4-0.5-2.6-1.5-3.8-2.5c-4.7-4-9.2-8.5-12.1-14
		c-2.9-5.4-4-11.5-5.2-17.5c-1.5-8-3-16.1-4.5-24.1c-0.3-1.6-0.6-3.3-0.3-4.9c0.3-1.7,1.1-3.2,1.9-4.6c2.9-5.1,6.3-10.7,11.8-12.6
		c5-1.8,10.5-0.2,15.9,0.4c12.7,1.3,25.8-3.5,34.4-12.8C95.1,8.5,96,7.6,97,7.5c0.7-0.1,1.4,0.2,2,0.6c2.8,1.7,4,5.1,4.9,8.2
		c6.3,20.9,12.3,41.8,18,62.9c0.8,3.1,1.4,6.9-1,8.8c-2.1,1.7-5.3,0.9-7.9-0.2c-3.9-1.6-7.8-3.3-11.6-5.3c-9.1-4.7-9.9,4.4-16.3,9.2
		C78.9,96.6,71.1,99.1,63.6,101.4z"/>
	<path id="XMLID_60_" class="st1" d="M58,54.7l1.9,5.3l6.7-1.4l-0.5-2.1l-1.7-3.6L58,54.7z"/>
	<path id="XMLID_59_" class="st2" d="M64.4,52.9c-2.3,0.2-4.3,1.4-6.5,2.3c0,0-0.2-0.2-0.2-0.3c0-0.1,0.1-0.3,0.3-0.3
		c1.2-0.3,2.2-0.8,3.3-1.3c0.7-0.3,1.5-0.4,2.3-0.6c0.2-0.1,0.5-0.1,0.7-0.2c0.2-0.1,0.4,0,0.5,0.3c0.2,0.5,0.3,0.9,0.5,1.4
		c0.3,0.8,0.6,1.5,0.8,2.3c0.2,0.6,0.3,1.3,0.5,2.1c-1.2,0.2-2.3,0.5-3.4,0.7c-1.1,0.2-2.2,0.4-3.3,0.7c-0.6-1.3-1.2-2.5-1.5-3.9
		c0-0.2,0-0.3,0-0.5c0,0,0.1,0,0.1,0c0.1,0.1,0.2,0.3,0.2,0.4c0.1,0.9,0.5,1.6,0.8,2.4c0.2,0.3,0.3,0.7,0.5,1.1c2.1-0.2,4-0.9,6-1.1
		C66.1,57.2,65.3,54.5,64.4,52.9z"/>
	<path id="XMLID_58_" class="st2" d="M67,63.1c0,0.1,0,0.1,0,0.1c0,0,0,0.1-0.1,0.1c0,0-0.1,0-0.1,0.1c-1.9,0.3-3.9,0.4-5.7,0.9
		c0,0,0,0-0.1-0.1c0.1-0.1,0.2-0.1,0.4-0.2c0.9-0.4,1.9-0.4,2.8-0.6c0.9-0.1,1.8-0.3,2.7-0.4C66.9,63.1,66.9,63.1,67,63.1z"/>
	<path id="XMLID_57_" class="st2" d="M67.1,65.8c-0.8-0.1-1.4,0.2-2,0.4c-1,0.3-1.9,0.6-2.9,0.9c-0.1,0-0.2,0-0.3-0.1
		c0.1-0.1,0.2-0.2,0.2-0.2c1.5-0.4,3-0.9,4.5-1.3C66.8,65.5,67,65.4,67.1,65.8z"/>
	<path id="XMLID_56_" class="st2" d="M64.6,62.2c-0.1,0-0.1,0.1-0.2,0.1c-1.3,0.2-2.5,0.3-3.8,0.5c0,0,0-0.1,0-0.1
		c0.1,0,0.2-0.1,0.3-0.1c0.8-0.1,1.5-0.2,2.3-0.3c0.4-0.1,0.8-0.1,1.2-0.1c0.1,0,0.2,0,0.2,0C64.6,62.1,64.6,62.2,64.6,62.2z"/>
	<path id="XMLID_46_" class="st0" d="M61.5,55.1C61.5,55.1,61.5,55.1,61.5,55.1c0.1,0.1,0.2,0.2,0.3,0.3c0.1,0,0.2,0.1,0.3,0.1
		c0-0.2-0.1-0.4-0.3-0.7c-0.1,0-0.3,0-0.3-0.2c-0.1-0.1-0.1-0.2-0.1-0.3c-0.1,0-0.3,0.1-0.3,0.3c0,0.1,0,0.2,0.1,0.3
		C61.2,55.1,61.4,55.1,61.5,55.1z M61.5,54.6c0.1,0.1,0.2,0.1,0.3,0.1l0,0l0,0c0.2,0.2,0.3,0.5,0.3,0.7c0.1,0,0.1,0.1,0.2,0.1
		c0-0.1,0-0.5-0.3-1c0.1-0.1,0.1-0.3,0-0.4c-0.2-0.2-0.5-0.1-0.6,0.1C61.4,54.5,61.4,54.6,61.5,54.6z M62.1,54.6
		c0.3,0.4,0.3,0.8,0.3,1l0,0c0,0,0.1,0.1,0.1,0.2c0.1-0.6-0.2-1.1-0.2-1.1c0.2,0,0.3-0.2,0.2-0.4c-0.1-0.2-0.3-0.3-0.5-0.2
		c0,0,0,0,0,0C62.1,54.3,62.1,54.5,62.1,54.6z M61.2,55.2c0.3,0.3,0.4,0.7,0.3,1.1c0,0,0.1,0,0.1,0c0,0,0.1,0,0.1,0l0,0
		c0-0.1,0.1-0.3,0-0.4l0,0c0,0,0-0.1-0.1-0.1c0-0.1-0.1-0.1-0.1-0.2l0,0c0,0,0.1,0,0.1,0c0-0.1-0.1-0.2-0.2-0.3c0,0,0,0,0,0l0,0
		c-0.1,0-0.3,0-0.4-0.1C61,55,61,54.8,61,54.7c-0.2,0-0.2,0.2-0.2,0.3C60.9,55.2,61.1,55.3,61.2,55.2z M61.4,55.5c0,0-0.1,0-0.1,0
		c0.1,0,0.1,0.2,0.2,0.2c0,0,0,0,0.1,0C61.4,55.7,61.4,55.6,61.4,55.5z M61.9,56.2L61.9,56.2C62,56.1,62,56,62,55.9
		c0,0-0.1-0.1-0.2-0.1c0,0.2,0,0.3,0,0.4C61.8,56.2,61.9,56.2,61.9,56.2z M61.7,56.6C61.7,56.6,61.7,56.6,61.7,56.6
		C61.7,56.6,61.7,56.5,61.7,56.6C61.7,56.5,61.7,56.5,61.7,56.6C61.6,56.6,61.6,56.6,61.7,56.6C61.6,56.6,61.7,56.6,61.7,56.6
		C61.7,56.6,61.7,56.6,61.7,56.6C61.7,56.6,61.7,56.6,61.7,56.6C61.7,56.6,61.7,56.6,61.7,56.6z M63.8,57.9c-0.4,0.3-0.9,0.2-1.2,0
		l0,0C62.9,58.1,63.4,58,63.8,57.9c-0.1-0.2,0.1-1.6-1.2-1.8c0,0,0,0.1,0,0.1c0.2,0,0.4,0.1,0.5,0.4c-0.2-0.3-0.5-0.4-0.7-0.4
		c0.3-0.1-0.1-0.6-0.1-0.6c-0.2,0-0.3-0.3-0.6-0.2c0.1,0,0.1,0.2,0.1,0.3c0.1,0,0.3,0.2,0.3,0.2c0,0.1,0,0.2-0.1,0.3
		c0.2,0,0.3,0,0.3,0.1c-0.2,0-0.2,0.2-0.2,0.2s0-0.1,0.1-0.2c-0.2,0-0.3-0.1-0.5,0c-0.1,0-0.2,0.1-0.3,0.1c0,0.2-0.4,0.6-1,0.9
		c-0.1,0-0.3,0.1-0.3,0.1c0,0,0,0,0.1,0.1c0,0,0.1,0,0.2-0.1c0,0,0,0.1-0.1,0.1c0.2,0.2,1.1,0.1,1.4-0.4c0,0.1-0.1,0.2-0.2,0.3
		c0.1,0,0.1,0,0.2,0c0.1,0,0.1,0,0.2-0.1c0,0,0-0.1,0.1-0.2c0.1,0,0.3,0.1,0.5,0c0.2-0.1,0.3-0.3,0.2-0.7c0.2,0.4,0.1,0.6-0.1,0.7
		c0.1,0.2,0.1,0.5,0,0.6c-0.1,0-0.2,0.1-0.2,0.2c0.3,0.2,1,0.4,1.5,0C63.9,58,63.8,57.9,63.8,57.9z M61.9,56.6
		C61.9,56.6,61.9,56.6,61.9,56.6C61.9,56.6,61.9,56.5,61.9,56.6L61.9,56.6L61.9,56.6C61.8,56.5,61.8,56.5,61.9,56.6
		c-0.1,0-0.1-0.1-0.2-0.1c0,0,0,0,0,0c0,0,0,0,0,0c0,0,0,0.1-0.1,0.1c0,0-0.1,0-0.1-0.1c0,0,0-0.1,0-0.1c0,0,0,0,0,0c0,0,0,0,0,0
		l0,0c0,0,0,0,0,0c0,0,0,0,0,0c0,0,0,0,0,0c0,0,0,0,0,0c0,0,0,0,0,0c0,0,0,0,0,0c0,0,0,0,0-0.1c0,0,0,0,0,0c0,0,0,0,0,0c0,0,0,0,0,0
		l0,0c0,0,0,0,0,0l0,0l0,0l0,0l0,0c0,0,0,0,0,0c0,0,0,0,0,0l0,0c0,0,0,0,0.1,0c0,0,0.1,0,0.1,0c0,0,0,0,0,0l0,0l0,0
		C61.8,56.5,61.8,56.5,61.9,56.6C61.9,56.5,61.9,56.5,61.9,56.6C61.9,56.5,61.9,56.5,61.9,56.6C61.9,56.5,61.9,56.5,61.9,56.6
		C61.9,56.6,61.9,56.6,61.9,56.6C61.9,56.6,62,56.6,61.9,56.6C61.9,56.6,61.9,56.6,61.9,56.6z"/>
	<path id="XMLID_45_" class="st1" d="M23.7,34.9c-1.7-0.5-3.3-1-5-1.4c-1.7-0.4-3.4-0.5-5.1-0.9c3.5-0.1,7.1-0.2,10.2,1.9
		C23.8,34.6,23.8,34.7,23.7,34.9z"/>
	<path id="XMLID_44_" class="st1" d="M48.5,4c2,2.3,2.4,5.2,3.1,8.1c0.1,0.4,0.1,0.4-0.2,1c-0.6-0.2-0.5-0.7-0.6-1.1
		c-0.4-1.7-0.8-3.5-1.3-5.2C49.2,5.9,48.8,5,48.5,4z"/>
	<path id="XMLID_43_" class="st1" d="M65.2,0c0.7,1.9,0.2,8.7-0.6,10.1c-0.5-0.1-0.4-0.5-0.3-0.8c0.3-2.5,0.5-4.9,0.8-7.4
		C65.1,1.3,65.1,0.8,65.2,0z"/>
	<path id="XMLID_42_" class="st1" d="M26.7,13.3c3,0,6.2,2.4,8,4.5c-0.5-0.2-1-0.3-1.5-0.6c-1.1-0.7-2-1.6-3.1-2.2
		C29,14.3,27.8,13.9,26.7,13.3z"/>
	<path id="XMLID_41_" class="st1" d="M25.3,64.1c-0.2,0.4-0.3,0.8-0.4,0.8c-3.4,0.5-6.8,1-10.2,1.5c-0.1,0-0.1-0.1-0.4-0.3
		C18,65.4,21.5,64.8,25.3,64.1z"/>
	<path id="XMLID_40_" class="st1" d="M31.5,86.9c-1.9,1.1-3.6,2-5.3,3c-1.7,1-3.3,1.9-5.1,2.8c0.6-0.5,1.2-1.1,1.9-1.5
		c2.3-1.4,4.6-2.8,7-4.1C30.3,86.9,30.7,86.5,31.5,86.9z"/>
	<path id="XMLID_39_" class="st1" d="M83,6.7c-1.4,2.6-3.9,4.2-5.5,6.7c0-0.2-0.1-0.4,0-0.5c0.4-0.7,0.8-1.3,1.3-1.9
		c1.2-1.4,2.5-2.8,3.7-4.2c0.1-0.1,0.2-0.1,0.3-0.2C82.8,6.6,82.9,6.7,83,6.7z"/>
	<path id="XMLID_38_" class="st1" d="M39.2,103.1c0.4,0.7,0,0.9-0.3,1.2c-0.7,0.7-1.4,1.4-2.1,2.1c-1.1,1.2-2.2,2.3-3.3,3.6
		c0.1-1,0.7-1.7,1.3-2.4c1.2-1.4,2.5-2.7,3.7-4C38.7,103.4,39,103.3,39.2,103.1z"/>
	<path id="XMLID_35_" class="st2" d="M69.7,60c-0.7-3-1.5-6-2.2-9c-0.1-0.4-0.3-0.8-0.5-1.3c-0.6,0.2-1,0.3-1.5,0.5
		c-0.5,0.2-1.1,0.4-1.6,0.6c-1.9,0.7-3.8,1.3-5.7,1.9c-0.7,0.2-1.4,0.4-2.1,0.6c-0.6,0.1-1.1,0.3-1.5,0.7c0.1,0.2,0.1,0.4,0.1,0.6
		c0.9,2.7,1.7,5.5,2.6,8.2c0.5,1.5,0.9,3,1.5,4.5c0.3,0.7,0.5,1.5,1,2c3.8-0.9,7.5-1.8,11.3-2.7c-0.3-1.6-0.3-3-0.8-4.4
		C70.1,61.5,69.9,60.8,69.7,60z M67.7,54.9c0.8,2.9,1.3,5.9,2.3,8.8c0.6,1.9,0.3,2.4-1.6,2.8c-0.9,0.2-1.8,0.3-2.7,0.6
		c-1.3,0.3-2.5,0.7-3.8,1c-0.4,0.1-0.9,0.2-1.6,0.3c0.2-0.3,0.3-0.6,0.4-0.9c-0.1-0.1-0.3-0.2-0.4-0.4c0,0.1-0.1,0.1-0.1,0.2
		c-0.9-1.1-4.2-10.9-4.3-12.9c0.1-0.1,0.3-0.2,0.4-0.3c3.4-1.1,6.8-2.2,10.4-3.4C67,52.2,67.3,53.6,67.7,54.9z"/>
	<path id="XMLID_34_" class="st2" d="M42.7,32.9c0.4,0.8,0.7,1.5,1.1,2.4c0.2-0.2,0.3-0.3,0.5-0.5c0.9,0.4,1.3,1.5,2.6,1.4
		c-0.2,0.5-0.6,0.4-0.8,0.3c-0.5-0.3-1-0.6-1.7-1.1c0,1,0.1,1.9,0.1,2.7c-0.1,0-0.1,0-0.2,0c-0.6-1.7-1.2-3.3-1.8-5
		C42.6,33,42.6,32.9,42.7,32.9z"/>
	<path id="XMLID_33_" class="st2" d="M73.2,68.4c-0.9,0.5-1.1,0.5-1.6,0.1c-0.5-0.5-0.6-1.2-0.3-1.7c0.1-0.2,0.4-0.3,0.6-0.3
		c0.1,0,0.2,0.3,0.3,0.5C72.3,68,72.3,68,73.2,68.4z"/>
	<path id="XMLID_32_" class="st2" d="M58,68.6c-0.9,0.4-1.5,0.2-1.9-0.6c-0.3-0.6-0.2-1,0.5-1.4C57,67.8,57,67.8,58,68.6z"/>
	<path id="XMLID_31_" class="st2" d="M70.5,51c-0.9,0.5-1.3,0.5-1.7,0c-0.4-0.5-0.5-0.9,0-1.7C69.2,50.1,69.5,50.9,70.5,51z"/>
	<path id="XMLID_30_" class="st2" d="M64.6,70.3c-0.5,0.7-0.9,1.4-1.4,2c-0.1-0.1-0.2-0.1-0.2-0.2c0.2-0.9,0.7-1.5,1.3-2.1
		C64.5,70.1,64.6,70.2,64.6,70.3z"/>
	<path id="XMLID_29_" class="st2" d="M53.6,58.2c0.3,0.2,0.5,0.3,0.6,0.4c0,0.2-0.1,0.4-0.2,0.5c-0.1,0.1-0.5-0.1-0.5-0.2
		C53.4,58.8,53.5,58.5,53.6,58.2z"/>
	<path id="XMLID_28_" class="st2" d="M71.6,60.7c0-0.3,0-0.5-0.1-0.8c0.2,0,0.4,0,0.5,0c0,0.2,0,0.5,0.1,0.8
		C71.9,60.7,71.7,60.7,71.6,60.7z"/>
	<path id="XMLID_27_" class="st2" d="M80,80.4c-1.3,0.9-1.4,2.4-2.3,3.5c0.4-2.3,1.9-4,3-6c0.5,0.7,0.1,1.1,0,1.5
		c-0.1,0.5-0.2,0.9-0.4,1.7c1-0.8,1.2-2,2.4-2.3c0.5,0.7,0.2,1.3-0.1,2c-0.1-0.4-0.1-0.8-0.2-1.4c-1.2,1.1-1.7,2.4-2.5,3.6
		c-0.1,0-0.2-0.1-0.2-0.1C79.8,82,79.9,81.2,80,80.4z"/>
	<path id="XMLID_26_" class="st2" d="M61,93c0-0.6,0-1.2,0-1.8c-0.2,0.1-0.4,0.1-0.8,0.3c0.4-0.9,0.7-1.7,1.3-2.6
		c0.5,1.1-0.3,2,0.1,3c0.2-0.5,0.4-0.8,0.6-1.2c0.2-0.3,0.5-0.6,0.7-1c0.4,0.5,0.7,0.9,1,1.3c0.4-0.1,0.7-0.2,1.2-0.4
		c-0.9,1.2-1.1,1.2-2.3-0.1c-0.5,0.9-1,1.8-1.5,2.6C61.2,93,61.1,93,61,93z"/>
	<path id="XMLID_25_" class="st2" d="M72.4,37.6c-1.3,0.9-2.6,1.7-3.9,2.6C68.8,39.1,70.5,38,72.4,37.6z"/>
	<path id="XMLID_24_" class="st2" d="M58.2,80.3c1.2-1.9,2.2-3.7,3.8-5.3c0.1,0.3,0.2,0.5,0.2,0.5c-1.4,1.2-2.2,2.9-3.2,4.4
		c-0.1,0.1-0.2,0.2-0.3,0.4C58.5,80.3,58.5,80.3,58.2,80.3z"/>
	<path id="XMLID_23_" class="st2" d="M57,80c0.3-1.6,2.2-4.3,3.3-4.9C59.2,76.7,58.1,78.3,57,80z"/>
	<path id="XMLID_22_" class="st2" d="M60.6,79.5c0.3-1.8,1.5-3,2.9-4C62.5,76.8,61.6,78.2,60.6,79.5z"/>
	<path id="XMLID_21_" class="st3" d="M87.5,78.8c0.3,0.1,0.6,0.3,0.7,0.5c0.3,0.5-0.1,1-0.5,1.4c-2.1,1.8-5.2,1.9-7.8,2.9
		c-3.9,1.5-6.7,5.1-10.2,7.3c-1.6,1-3.4,1.8-5.2,2.4c-0.9,0.3-1.8,0.5-2.7,0.5c-2.1-0.1-4.1-1.7-4.5-3.8c-0.1-0.6-0.1-1.3,0.2-1.9
		c0.5-0.8,1.5-0.9,2.4-1c2.6-0.2,5.2-0.3,7.7-1c4-1.2,7.2-4,9.9-7.1c1.2-1.4,2.1-2.9,4.1-2.6C83.5,76.6,85.6,78,87.5,78.8z"/>
	<path id="XMLID_20_" class="st3" d="M42.5,32.6c-0.2-1.6-0.4-3.4,0.4-4.8c0.6-1.1,1.8-1.8,3-2.3c1.5-0.6,3.1-1,4.8-1.2
		c0.7-0.1,1.5-0.1,2.1,0.4c0.6,0.4,0.8,1.1,1,1.8c0.2,0.9,0.5,1.8,0.4,2.7c-0.1,1.7-1.3,3.1-2.5,4.1c-1.3,1-2.7,1.8-4,2.9
		c-0.8,0.7-2.5,3.7-3.8,3.2C42.7,39,42.6,33.8,42.5,32.6z"/>
	<path id="XMLID_19_" class="st3" d="M75.2,28.1c0.1-0.1,0.2-0.2,0.4-0.1c0.1,0,0.1,0.1,0.2,0.2c1.2,1.6,1.2,3.8,0.5,5.7
		c-0.7,1.8-2,3.4-3.3,4.8c-1,1.1-2.1,2.3-3.6,2.3c-0.4,0-0.8-0.1-1.1-0.4c-0.3-0.3-0.4-0.8-0.5-1.3c-0.7-3.4-1.6-3.1,1.2-5.7
		C71,31.7,73.1,29.9,75.2,28.1z"/>
	<path id="XMLID_18_" class="st3" d="M55.4,72.3c0.1,0.4,0.2,0.7,0.4,1.1c0.6,1,1.8,1,2.7,0.9c1.1-0.2,2.5-0.7,2.5-2.2
		c0-1-0.7-1.8-1.3-2.5c-2.1-2.5-4.9-8.2-7.4-9.5C53.1,64.1,54.4,68.3,55.4,72.3z"/>
	<path id="XMLID_17_" class="st3" d="M43.4,93.8c-0.5-0.2-1-0.5-1.4-0.9c-0.4-0.4-0.5-1-0.7-1.5c-1.6-5.1-2.9-10.4-3.8-15.6
		c-0.2-1.1-0.1-2.6,1-2.7c0.9-0.1,1.5,0.8,1.9,1.7c3.7,8,9.3,15.4,12.6,23.4C50.1,98.1,46,95.1,43.4,93.8z"/>
	<path id="XMLID_16_" class="st1" d="M86,69c-3,0.3-5.7,2.6-6.4,5.6c-0.3,1.1-0.8,2.2-1.2,3.2c-0.9,2.4-2.4,3.8-4.4,5.4
		c-4.5,3.5-10.7,4.4-16.2,3.7c-0.3,0-0.6-0.1-0.9-0.2c-0.4-0.2-0.5-0.7-0.7-1.1c-0.8-2.5-1.6-4.9-2.5-7.3c-0.4-1.1-0.8-2.3-0.6-3.4
		c0.1-1.2,0.9-2.3,2-2.5c0.9,0.1,0.5,1.9,1.3,2.3c0.3,0.1,0.5,0.1,0.8,0c5.9-1.3,11.8-2.8,17.6-4.5c1.2-0.4,1-0.2,1.8-1
		c0.4-0.4-0.7-1.9-0.1-2.3C77.9,65.9,84.5,68.5,86,69z"/>
	<path id="XMLID_2_" class="st2" d="M76,25.8c0.7,0.1,1.4,0.1,2,0.3c0.2,0.1,0.5,0.4,0.5,0.7c0.9,3.2,2.4,6.2,3.1,9.4
		c1.1,4.6,2.4,9.1,3.7,13.6c0.6,2.2,1.4,4.4,2,6.6c0.8,2.8,1.5,5.6,2.2,8.3c0.2,0.6,0.4,1.2,0.5,1.8c0.5,2.8,1.1,5.5,1.5,8.3
		c0.2,1.5,0,3.1-0.6,4.5c-0.5,1.3-0.3,1.6,1,2.4c0.5-0.4,0.8-1,0.6-1.7c-0.2-0.8-0.1-1.5,0.2-2.3c0.3-0.9,0.3-1.9,0.1-2.9
		c-0.5-2.7-1.2-5.4-1.7-8.2c-0.7-3.4-1.4-6.8-2.1-10.3c-0.6-2.9-1.4-5.8-2.4-8.6c-0.2-0.6-0.3-1.3-0.5-2c0.1,0,0.2-0.1,0.2-0.1
		c0.2,0.2,0.4,0.3,0.5,0.6c1.3,3.8,2.7,7.6,3.1,11.6c0,0.4,0.1,0.9,0.2,1.3c0.7,3.1,1.5,6.3,2.2,9.4c0.5,2.4,1,4.8,1.5,7.1
		c0,0.2,0.1,0.5,0,0.6c-0.8,0.7-0.2,1.6-0.3,2.4c2.7,1.3,5.4,2.6,8.2,3.6c4.2,1.5,8.3,3.1,12.5,4.7c1.6,0.6,3.2,0.7,5,0.9
		c-0.2-1.5-0.3-2.9-0.5-4.2c-0.7-4-1.6-8-2.9-11.9c-0.5-1.6-0.7-3.3-1.1-4.9c-0.3-1.5-0.7-3-1-4.5c-0.1-0.3-0.1-0.6-0.3-1.1
		c0.9,0.9,1,1.9,1.3,2.8c0.3,0.7,0.4,1.4,0.6,2.2c0.5,2.2,1,4.4,1.5,6.6c0.8,3.7,1.7,7.4,2.5,11.1c0.1,0.5,0.2,1,0.3,1.4
		c0,0.2,0.1,0.3,0.2,0.5c1.7-0.4,1.9-0.6,1.6-1.6c-0.2,0-0.5,0.1-0.7,0.1c-0.2,0-0.4,0-0.6-0.2c0.4-0.2,0.7-0.4,1.2-0.6
		c-0.2-1.3-0.5-2.7-0.9-4.1c-0.1-0.3-0.3-0.7-0.3-1c-0.3-3-1-5.8-1.7-8.7c-1-4-1.9-7.9-2.8-11.9c-0.8-3.3-1.6-6.5-2.3-9.8
		c-0.4-2.1-1.2-4.1-1.9-6.2c-0.8-2.3-1.4-4.8-2.1-7.1c-0.4-1.3-0.8-2.6-1.2-3.9c-0.1-0.4-0.2-0.9-0.4-1.3c-0.6-2-1.1-4.1-1.7-6.1
		c-0.9-2.9-1.8-5.8-2.7-8.8c-0.4-1.3-0.8-2.5-1.6-3.7c-0.5,0.1-1,0.3-1.5,0.2c-0.6-0.1-0.6,1.1-1.4,0.5c0.2,0.4,0.3,0.7,0.5,1.1
		c0.9,0,1.7,0,2.4,0c0,0.1,0,0.2,0,0.2c-0.7,0.2-1.4,0.3-2.1,0.5c0.7,2.2,1.4,4.3,2.1,6.4c1,3.2,1.9,6.3,2.9,9.5
		c0.8,2.7,1.7,5.3,2.4,8c0.9,3.2,1.7,6.4,2.5,9.6c0.3,1.2,0.7,2.3,1,3.4c0.1,0.4,0.1,0.8-0.1,1.3c-0.1-0.2-0.3-0.3-0.4-0.5
		c-0.3-1-0.5-2.1-0.8-3.1c-1-3.5-1.9-7.1-2.9-10.6c-1.1-3.8-2.2-7.6-3.3-11.3c-1-3.5-2.1-7-3.3-10.4c-0.8-2.2-1.8-4.3-2.7-6.5
		c-0.9-0.1-1.4,0.4-1.9,0.8c-0.9,0.8-1.8,1.7-2.8,2.4c-3.8,2.5-6.9,5.9-10.2,8.9c-0.5,0.4-0.9,0.8-1.3,1.2
		c0.8,6.6,2.5,12.9,4.1,19.4c-0.8-0.3-1-0.8-1.1-1.4c-0.6-2.4-1.2-4.9-1.9-7.3c-0.7-2.6-1.1-5.2-1.4-7.8c0-0.2-0.1-0.4-0.1-0.5
		c-0.6-2.7-1-2.8-3.2-2.8c-1.1,0-2.2-0.1-3.3-0.2c-0.2,0-0.3-0.1-0.6-0.2c0.3-0.2,0.4-0.5,0.6-0.5c0.4-0.1,0.8,0,1.2,0
		c1,0.1,2.1,0.1,3.1,0.2c0.3,0,0.7,0,0.9,0.1c1,0.6,1.7,0.1,2.3-0.5c1.6-1.4,3.1-2.8,4.6-4.2c1.8-1.6,3.4-3.5,5.6-4.6
		c0.4-0.2,0.8-0.7,1.2-1c0.9-0.8,1.8-1.6,2.7-2.2c0.5-0.3,0.9-0.7,0.9-1.4c0.5,0,0.9,0.3,1.4,0c1.1-0.6,2.4-0.3,3.6-0.2
		c0.2,0,0.5,0.3,0.7,0.6c0.2,0.3,0.3,0.7,0.4,1.1c0.8,3.1,1.8,6.1,3,9c0.1,0.4,0.2,0.8,0.2,1.2c0.1,1.4,0.5,2.8,1.1,4
		c0.3,0.5,0.4,1.2,0.6,1.8c0.6,2.1,1.3,4.2,1.9,6.3c0.1,0.4,0.2,0.9,0.4,1.3c0.2,0.4,0.3,0.9,0.6,1.2c1.6,1.4,2.6,3.2,3.3,5.1
		c1,2.3,1.9,4.7,2.4,7.2c0.3,1.9,0.4,3.9,0.3,5.8c0,0.4-0.1,0.9-0.3,1.3c-0.4,0.8-0.4,1.7-0.2,2.6c1,4.1,1.9,8.2,3.1,12.2
		c1,3.5,1.6,7.2,2.2,10.8c0.3,2,0.8,3.9,1.2,5.8c0.3,1.1,0.2,2.1-0.1,3.1c-0.1,0.3-0.3,0.6-0.5,0.7c-1.1,0.4-2.1,1.1-3.4,0.9
		c-1.8-0.3-3.6-0.4-5.3-0.9c-1.4-0.4-2.7-1.1-4-1.6c-2.5-1-5.1-1.8-7.6-2.9c-2-0.8-3.9-1.8-5.8-2.8c-0.6-0.3-1.3-0.6-2-1
		c-0.1,0.6-0.3,1.1-0.4,1.6c-0.4,1.5-1.6,2.4-2.5,3.5c-0.6,0.7-1.4,1.2-2.1,1.7c-0.2,0.2-0.5,0.4-0.7,0.6c-1.9,2.1-4.4,3.6-6.7,5.2
		c-1.6,1.1-3.1,2.2-4.8,3.2c-1.5,1-3.1,2-4.7,2.8c-2,1.1-3.9,2-6,2.9c-1.2,0.5-2.4,0.8-3.6,1c-1.8,0.4-3.6-0.1-5.2-0.9
		c-3.8-1.9-7.6-3.8-11.3-5.7c-1.1-0.6-2.2-1.3-3.1-2.2c-0.7-0.6-1.1-1.6-1.4-2.5c-0.6-1.6-1.1-3.3-1.6-5C38,80.8,36.4,75,35,69.1
		c-0.8-3.4-2-6.7-3-10c-0.9-3-1.9-5.9-2.7-8.9c-0.6-2.4-1.4-4.7-1.7-7.2c-0.1-1.5-0.1-2.9,0.9-4.2c1.3-1.7,2.3-3.6,3.5-5.4
		c0.1-0.1,0.2-0.3,0.3-0.4c1.9-2.4,3.8-4.8,5.7-7.2c0.4-0.6,0.9-1,1.6-1.3c1.2-0.6,2.4-1.3,3.5-1.9c1.8-1.1,3.9-1.2,6-1.3
		c3.5-0.2,7-0.1,10.5-0.2c0.3,0,0.6-0.1,0.9,0c1.3,0.4,2.5,0.2,3.8,0.1c1.3-0.1,2.7-0.2,4.1-0.1c1.3,0,2.6,0.2,3.9,0.4
		c0.4,0.1,0.8,0.3,1.1,0.7c-0.2,0-0.4,0.1-0.6,0.1c-0.8,0-1.6-0.1-2.4-0.1c-2.8-0.3-5.5-0.4-8.2-0.1c-0.4,0.1-0.8,0-1.2-0.1
		c-2.6-0.4-5.2-0.1-7.7,0.1c-0.3,0-0.5,0.1-0.8,0.2c0.2,0.8,0.4,1.6,0.6,2.5c0.6,0,1.2,0,1.8,0c1,0,1.9-0.1,2.9-0.1
		c1.3,0,2.6,0,3.9,0c2.3-0.1,4.5,0.2,6.8,0.5c1.7,0.2,3.4,0,5.1,0c0.6,0,1.3,0.1,1.9,0.2C75.8,25.1,76,25.4,76,25.8
		c-0.3,0.4-0.6,0.7-0.9,1.1c-0.2,0.2-0.4,0.5-0.3,0.7c0.4,0.8-0.2,1.3-0.6,1.7c-2,2.2-3.9,4.5-6.7,5.8c-0.5,0.2-0.8,0.5-0.8,1.1
		c0.1,0.9,0.3,1.7,0.7,2.5c0.8-0.6,1.5-1.1,2.2-1.6c1.3-0.9,1.4-0.9,2.5-0.9C70.4,37,69,38,67.6,39.3c0.4,1.3,0.8,2.6,1.2,4
		c0.2,0,0.4,0,0.5,0c1.1,0.1,1.3,0.2,1.7,1.3c0.3,1.2,0.7,2.4,1,3.6c1.2,5.3,2.4,10.5,3.6,15.8c0.2,0.9,0.5,1.8,0.7,2.5
		c3.9,0.3,7.5,1,10.9,2.7c0,0.5-0.1,1.2,0.2,1.6c0.5,1,0.3,2-0.2,2.9c0,0.1-0.2,0.1-0.3,0.1c-0.2-0.3-0.3-0.5-0.5-0.8
		c-0.3,0.4,0,1.1-0.8,1.3c-1.1-1.6,0-3.1,0.1-4.7c-1.1,0.2-1.9,0.6-2.7,1.2c-1.1,0.8-2,1.8-2.3,3.1c-0.3,1.3-0.8,2.4-1.5,3.5
		c-0.7,1.1-1.5,2.1-2,3.2c-0.7,1.5-1.8,2.4-3.1,3.2c-1.7,1.1-3.6,1.9-5.6,2.6c-1.9,0.7-3.9,1-5.9,0.9c-1.8-0.1-3.6,0.1-5.5,0.1
		c0.1,0.6,0.2,1.1,0.4,1.5c0.9,1.8,1.3,3.8,1.8,5.8c0.1,0.4,0.1,0.9,0.1,1.3c-0.1,1.9,1.3,3.2,3.2,2.9c0.6-0.1,1.3-0.3,1.8-0.7
		c1.7-1,3.4-2,5-3c1.2-0.7,2.3-1.4,3.4-2.2c1.8-1.2,3.6-2.4,5.4-3.6c2.6-1.8,5.1-3.7,7.6-5.5c1.3-0.9,2.5-2,3.3-3.6
		c-0.6-0.4-1-0.9-1.6-1.1c-1.4-0.6-2.9-1-4.4-1.5c-0.7-0.3-1.5-0.6-2.2-0.9c-0.4-0.2-0.5-0.4-0.2-0.9c0.6,0.2,1.2,0.3,1.8,0.6
		c1.8,0.6,3.6,1.3,5.3,2c0.4,0.2,0.8,0.6,1.2,0.9c0,0,0.1-0.1,0.2-0.2c1.2-1.4,1.2-3.1,0.9-4.8c-0.5-2.8-1-5.7-1.7-8.4
		c-0.9-3.4-2-6.8-2.9-10.2c-0.3-1.1-0.6-2.1-0.9-3.2c-0.3-1.1-0.6-2.2-0.9-3.3c-0.6-2.1-1.2-4.3-1.8-6.4c-1-3.8-2-7.6-3.2-11.4
		c-0.6-1.8-1.1-3.8-2.8-5C76.2,26.2,76.1,26,76,25.8z M51.4,24.6c-0.2-0.9-0.3-1.6-0.6-2.2c-0.1-0.3-0.5-0.6-0.7-0.6
		c-0.8-0.1-1.6-0.1-2.4,0c-2.1,0.3-4,1.1-5.9,2.1c-0.6,0.3-1.1,0.6-1.4,1.3c-0.1,0.2-0.3,0.4-0.5,0.4c-0.5,0-0.7,0.4-0.8,0.7
		c-0.7,1.3-1.2,2.6-1.2,4.1c0,1.7,0.1,3.4,0.3,5c0.7,4.2,1.7,8.3,3,12.4c0.1,0.4,0.3,0.7,0.5,1c1-0.1,1.9-0.2,2.8-0.9
		c-0.6-2.1-1.3-4.3-1.8-6.5c-0.8-3.3-1.7-6.6-2-10c-0.1-1.4,0.2-2.6,0.3-3.9c0-0.4,0.2-0.8,0.9-0.7c0,0.2-0.1,0.4-0.1,0.6
		c-0.1,0.9-0.4,1.7-0.4,2.6c0.1,1.5,0.2,3.1,0.5,4.6c0.7,4.1,2,8,3.1,11.9c1.2,4.4,2.5,8.9,3.8,13.3c0.3,0.9,0.5,1.9,0.8,2.8
		c0.8,2.8,1.7,5.5,2.5,8.3c0.2,0.8,0.5,1.6,0.8,2.6c0.7-0.5,1.3-0.9,1.9-1.3c-0.1-0.3-0.1-0.6-0.1-0.8c-1.1-2.6-1.6-5.4-2.4-8.1
		c-0.6-2.1-1.3-4.1-1.9-6.2c-0.6-2.1-1.3-4.1-1.8-6.2c-0.2-0.6-0.2-1.3,0.6-1.8c0.3,0.7,0.6,1.3,0.8,2c1.1,3.7,2.2,7.4,3.3,11.1
		c0.9,3.1,1.6,6.3,2.9,9.3c0.3,0.8,0.6,1.5,1,2.4c0.7-0.1,1.4,0,2-0.2c1.5-0.3,3-0.7,4.5-1c0.5-0.1,0.8-0.3,1-0.7
		c0.4-0.6,0.7-1.2,1.4-1.5c-0.3,0.6-0.5,1.2-0.8,1.9c1.5,0,2.6-0.4,3.8-0.7c1.2-0.3,2.3-0.8,3.5-1.2c1.1-0.4,2.5-0.2,3.4-1.2
		c-0.1-0.4-0.1-0.7-0.2-1c-0.9-4.1-1.8-8.2-2.7-12.3c-0.6-2.8-1.3-5.6-1.9-8.4c-0.1-0.4-0.3-0.8-0.4-1.2c-0.5,0.1-0.8,0.1-1.1,0.3
		c-1.2,0.5-2.4,0.8-3.7,0.9c-0.3,0-0.7,0.1-1,0.1c-2.4,0.5-4.7,1.3-7.1,1.8c-2.3,0.5-4.6,1.3-6.9,2c-0.3-0.4-0.3-0.7,0.1-0.9
		c0.3-0.2,0.7-0.3,1.1-0.4c1.9-0.5,3.8-1,5.7-1.4c0.4-0.1,0.9-0.2,1.3-0.3c0.5-0.1,1.1-0.3,1.6-0.4c2-0.5,4-1.2,6.1-1.4
		c1.1-0.1,2.1-0.5,3.1-0.8c0.7-0.2,0.6-0.3,0.1-1.3c-1.3,0.3-2.7,0.5-4,0.9c-3,0.7-5.9,1.8-9,2.2c-0.3,0-0.5,0.2-0.7,0.3
		c-1.9,0.6-3.7,1.2-5.6,1.8c-0.3,0.1-0.6,0-1,0c0.1-0.7,0.5-0.8,0.8-0.9c2.9-0.7,5.6-2.1,8.7-2.3c0.4,0,0.8-0.3,1.2-0.4
		c0.6-0.2,1.2-0.3,1.8-0.5c2-0.5,4-1,6-1.6c0.1,0,0.2-0.2,0.3-0.3c-0.8-2.4-1.5-4.8-2.3-7.3c-0.6,0-1.2,0-1.8,0.1
		c-6,1.4-12.2,2.4-18.3,3.3c-0.3,0-0.6-0.1-1.2-0.2c0.8-0.6,1.5-0.6,2.1-0.7c2.2-0.4,4.4-0.8,6.6-1.2c1.8-0.3,3.6-0.8,5.4-1
		c2.9-0.4,5.7-1.1,8.4-2.5c1.7-0.9,3-2.2,4.2-3.7c0.5-0.6,1-1.2,1.5-1.8c0.9-0.9,1.6-1.9,2.5-3.1c-0.7,0-1,0-1.3,0
		c-2,0.2-4,0.4-6,0.2c-1.8-0.2-3.7-0.4-5.5-0.5c-1.8-0.1-3.7,0-5.5-0.1c-1.2-0.1-2.4-0.2-3.6,0.3c-0.1,0.1-0.3,0-0.5,0
		c-1,0.1-2,0.1-3,0.2c-1.8,0.3-3.6,0.6-5.4,0.9c-0.3,0.1-0.7,0.1-1-0.4c1.3-0.5,2.6-0.3,3.9-0.6C48.5,25.3,49.9,25,51.4,24.6z
		 M56.3,99.9c0.1-0.1,0.1-0.2,0.2-0.2c-0.1-0.3-0.1-0.7-0.3-1c-0.6-1.5-1.2-2.9-1.8-4.4c-0.7-1.9-1.3-3.9-1.9-5.8
		c-1.2-3.9-2.4-7.9-3.6-11.8c-0.3-1.1-0.6-2.3-0.9-3.5c-1-3.4-2-6.8-3.1-10.2c-0.4-1.2-0.7-2.4-1.2-3.5c-0.8-1.8-1.3-3.7-1.9-5.5
		c-0.5-1.6-0.4-3.3-1.2-4.9c-0.2-0.5-0.4-1-0.6-1.5c-0.8-3.1-1.6-6.2-2.3-9.3c-0.8-3.3-1.2-6.7-0.6-10.1c0,0-0.1-0.1-0.2-0.2
		c-0.6,0.7-1.2,1.3-1.8,2.1c-1.3,1.7-2.6,3.4-3.8,5.1c-1,1.4-1.8,3-2.6,4.5c-0.3,0.6-0.4,1.3-0.4,2c-0.1,2.6,0.8,5.1,1.4,7.6
		c0.2,0.9,0.5,1.8,0.9,2.6c0.5,1.3,1,2.5,1.4,3.8c0.5,1.3,0.9,2.7,1.3,4c0.7,2.1,1.4,4.3,2.1,6.4c1,3.4,1.9,6.9,2.9,10.3
		c0.6,2,1.2,4.1,1.8,6.1c0.4,1.4,0.7,2.9,1.1,4.4c0.5,1.6,1.2,3.1,1.8,4.7c0.1,0.3,0.4,0.6,0.6,1c-0.3-2.2-1.1-4.3-1.9-6.4
		c0.7,0.6,0.7,1.4,1,2.2c0.3,0.8,0.6,1.6,1.1,2.6c0.2-0.8,0.4-1.3,0.6-2c1.1,1,1.6,2.1,2,3.3c-0.6-0.8-1.1-1.6-1.7-2.4
		c-0.3,0.5-0.4,1-0.5,1.6c-0.1,1.2,0.2,2.2,1.4,2.8c2.1,1.1,4,2.4,6.1,3.5C53.4,98.7,54.8,99.3,56.3,99.9z M77.4,68.8
		c-0.5,1-1,1.6-2.1,1.9c-2.3,0.6-4.6,1.4-6.9,2c-1.2,0.3-2.4,0.7-3.5,0.9c-0.8,0.2-1.6,0.2-2.5,0.3c-1.6,0.3-3.2,0.5-4.8,0.8
		c-0.7,0.1-1.3,0.1-1.8-0.7c-0.5-0.8-1.1-0.8-1.7-0.5c-0.9,0.5-1.1,0.9-0.9,1.8c1,3.7,2.3,7.2,3.6,10.8c0.5,0,0.9,0,1.3-0.1
		c3-0.2,6-0.2,9-0.8c4.6-0.9,7.8-3.6,10.2-7.3c0.9-1.5,1.6-3.1,2.4-4.7c0.8-1.6,1.8-3,3.4-3.8c0.3-0.1,0.5-0.4,0.7-0.6
		c-1.8-0.8-5.4-1.5-7.3-1.4C76.4,68.3,76.9,68.6,77.4,68.8z M66.5,100.4c-0.1-0.9-0.1-1.7-0.7-2.3c-0.3,0.2-0.7,0.3-0.9,0.5
		c-1,0.7-2.1,0.8-3.3,0.8c-0.6,0-1.1-0.2-1.5-0.7C59.3,98,58.8,97,58.7,96c-0.2-2.5-0.9-4.9-1.8-7.3c-0.1-0.3-0.2-0.7-0.3-1
		c-0.6-1.9-1.2-3.8-1.8-5.7c-0.9-2.7-1.7-5.4-2.6-8.1C51.6,72,51,70,50.4,68.1c-0.9-2.9-1.8-5.8-2.7-8.8c-0.9-2.9-1.7-5.9-2.5-8.8
		c-0.1-0.2-0.2-0.4-0.2-0.5c-1,0.2-1.9,0.4-2.8,0.7c0.6,2,1.1,3.9,1.7,5.7c0.6,1.8,1.3,3.6,1.9,5.4c0.2,0.5,0.2,1,0.4,1.5
		c0.9,2.9,1.8,5.7,2.7,8.6c0.8,2.7,1.5,5.4,2.4,8c0.8,2.7,1.8,5.5,2.6,8.2c0.4,1.3,0.8,2.5,1.1,3.8c0.3,1,0.4,2,0.7,3
		c0.4,1.3,0.9,2.6,1.4,3.8c0.1,0.2,0.2,0.5,0.4,0.7c0.6,0.6,1.3,1.2,2,1.7c0.4,0.3,1,0.5,1.6,0.5C62.8,101.7,64.6,101.1,66.5,100.4z
		 M89.6,82.1c-3.8,2.7-7.4,5.4-11.1,7.9c-3.7,2.6-7.5,5-11.3,7.5c0.2,0.6,0.3,1.2,0.4,1.7c0,0-0.1,0-0.1,0.1
		c-0.3-0.4-0.6-0.9-0.9-1.3c-0.2,0.8-0.1,1.6,0.4,2.2c9-4.1,16.5-10.2,23.8-16.7C90.4,82.9,90,82.5,89.6,82.1z M44.9,48.6
		c-1.2,0.1-2,0.5-2.9,1C43.1,50.2,44.2,49.9,44.9,48.6z M99.3,9.5c0.7-0.2,1.3-0.3,2.1-0.5c-0.3-0.3-0.5-0.6-0.7-0.6
		c-0.7-0.1-1.3-0.4-2,0.1C98.9,8.7,98.9,8.8,99,9C99.1,9.2,99.2,9.3,99.3,9.5z M52.4,24.6c-0.1-1.7-0.4-2.4-1.1-2.7
		c-0.1,0.9,0.2,2.3,0.5,2.6C51.9,24.6,52.2,24.6,52.4,24.6z M101.9,10.5c-0.5-1.1-1.2-1.1-2.4-0.1C100.3,11.1,101.1,10.7,101.9,10.5
		z M121.8,86.2c-0.8-0.1-1.2,0.5-1.7,0.8c0,0.5,0.1,0.8,0.5,0.8c0.4,0,0.7-0.2,1.1-0.3C121.8,87,121.8,86.6,121.8,86.2z M91.8,82.3
		c-0.5-0.5-1-0.8-1.4-1.2c-0.6,1.1,0.3,1.4,0.7,2C91.4,82.8,91.5,82.6,91.8,82.3z M113.5,41.5c-0.1,0-0.1,0-0.2,0.1
		c0.1,0.3,0.2,0.6,0.3,1c0,0,0.1,0,0.1,0C113.6,42.2,113.5,41.8,113.5,41.5z"/>
</g>
</svg>
