<?xml version="1.0" encoding="utf-8"?>
<!-- Generator: Adobe Illustrator 19.0.0, SVG Export Plug-In . SVG Version: 6.00 Build 0)  -->
<svg version="1.1" id="Warstwa_1" xmlns="http://www.w3.org/2000/svg" xmlns:xlink="http://www.w3.org/1999/xlink" x="0px" y="0px"
	 viewBox="0 0 140 110" style="enable-background:new 0 0 140 110;" xml:space="preserve">
<style type="text/css">
	.st0{fill:#FFFFFF;}
	.st1{fill:#BCBCBB;}
	.st2{fill:#010202;}
	.st3{fill:#EB594B;}
</style>
<g id="XMLID_1_">
	<path id="XMLID_35_" class="st0" d="M43,78.7c0.3,1.7,0.7,3.5,1.8,4.9c1.5,1.9,4,2.6,6.4,3.2c7.1,1.7,14.3,3.5,21.7,4
		c7.3,0.5,14.9-0.4,21.5-3.7c1.1-0.5,2.2-1.2,2.7-2.3c0.4-0.8,0.4-1.7,0.3-2.5c-0.1-10.5-0.6-21-1.3-31.5c-0.1-1.3-0.2-2.7-0.7-3.9
		c-0.9-2.3-3-3.9-5.2-5.2C82.5,37,73,35.3,64.2,36.9c-6.8,1.2-19.2,5.8-21.8,13.1c-1.1,3.2-0.5,8.3-0.6,11.6
		C41.7,67.3,42.1,73.1,43,78.7z"/>
	<path id="XMLID_34_" class="st1" d="M42.1,75.6c0.2,3.8,0.4,7.8,2.4,11c1.5,0.1,3.1,0.3,4.6,0.4c0.6,0.1,1.3,0.1,1.8-0.2
		c0.5-0.3,0.8-0.8,1-1.4c0.6-1.6,0.5-3.3,0.2-4.9c-0.8-5.1-2.8-9.9-4.6-14.8c-0.9-2.5-1.8-4.9-2.4-7.5c-0.5-2.1-0.3-5.3-1.6-6.9
		C40.6,58.3,41.8,68.1,42.1,75.6z"/>
	<path id="XMLID_33_" class="st1" d="M85.5,47.9c-1.9,0.4-4.2,0.7-5.5-0.8c-0.9-1-0.9-2.5-1.1-3.8c-0.3-2.2-1-4.4-2.1-6.3
		c3.3-0.1,6.7-0.2,9.7,1c2.1,0.8,7.4,3.3,7.2,6.1C93.4,47.4,87.7,47.5,85.5,47.9z"/>
	<path id="XMLID_32_" class="st0" d="M83.7,107.2c0.8-0.2,1.7-0.5,2.2-1.2c0.8-1,0.6-2.3,0.9-3.5c0.6-2.2,2.7-3.6,3.5-5.8
		c0.1-0.3,0.2-0.6,0.1-0.9c-0.1-0.5-0.7-0.8-1.2-1c-6.2-2.3-13,0.4-19.5,0.3c-3.9-0.1-9.3-1.4-12.5,1.7c-2.6,2.5-2.5,6.6-0.1,9
		C62.9,111.5,76.9,109,83.7,107.2z"/>
	<path id="XMLID_21_" class="st2" d="M97.2,84.1c-1-0.3-1-1-1-1.9c0.2-6.2,0.4-12.4,0.5-18.6c0.1-2.3,0-4.7,0-7.3
		c-1,0.2-1.7,0.3-2.4,0.5c-6.2,1.8-12.4,3.4-18.8,4c-4.2,0.4-8.5,0.5-12.7,0.6c-5.9,0.1-11.7-0.2-17.5-1.5c-0.5-0.1-1.1-0.1-1.8-0.1
		c0,2.2-0.1,4.2-0.1,6.3c0.1,3.2,0.4,6.3,0.6,9.5c0.2,2.5,0.5,5,0.7,7.5c0.1,0.9,0.1,1.8-1,2.3c-0.8-0.5-1.1-1.3-1.2-2.2
		c-0.2-4-0.4-8.1-0.7-12.1c-0.3-4.1-0.8-8.2-1.2-12.4c-2.6-0.2-5.1-0.3-7.5-0.5c-0.6,0-1.2-0.1-1.8-0.2c-2.6-0.6-3-1-3.7-3.9
		c2.3-2.8,5.3-4.2,8.9-4.3c0.4,0,0.8-0.1,1.2-0.1c2.7,0.4,4.5-1.1,5.9-2.9c2.3-2.8,5-5.1,8.3-6.7c1.6-0.8,3.4-1.4,5.1-2
		c1.1-0.4,1.7-1.1,2.2-2.1c2-3.6,4.3-6.9,8.6-8.1c2.3-0.7,4.7-0.6,6.8,0.3c1.8,0.7,3.2,2.2,3.9,4.2c0.4,1.1,0.6,2.2,1,3.5
		c3.4,0.1,6.5,1.5,9.7,2.9c3.1,1.4,6.1,3.1,8.2,5.9c-0.3,0.6-0.7,1.1-0.9,1.7c-0.2,0.6-0.5,0.9-1.1,1c-0.9,0.3-1.8,0.6-2.7,1
		c-1.3,0.5-1.5,0.7-1.4,2.1c0.2,1.9,0.5,3.7,0.7,5.5c0.3,0.1,0.5,0.2,0.6,0.2c4.5-1.2,3.6-0.1,4.2-5.2c0-0.2,0-0.4,0-0.6
		c0-2.8,0.2-3.1,3-3.9c3.2-0.8,6.5-0.5,9.6,0.5c2.4,0.8,2.7,2.8,0.8,4.5c-0.5,0.4-1.1,0.8-1.7,1c-3,0.9-5.8,2.1-9,2.5
		c-0.6,0.1-1.3,0.4-2,0.6c-0.1,1.4-0.2,2.7-0.2,4c-0.1,7-0.2,14-0.4,21.1C97.3,81.8,97.2,83,97.2,84.1L97.2,84.1z M76.7,37.2
		c-0.8-0.2-1.5-0.3-2.1-0.6c-1.3-0.5-2.6-0.6-4-0.5c-2.3,0.2-4.5,0.6-6.8,1.2c-1.1,0.3-2.1,0.3-2.5,1.6c-0.1,0.3-0.4,0.6-0.7,0.7
		c-1.4,0.4-2.7,1.1-4.3,0.6c-0.7-0.3-1.7,0.1-2.5,0.3c-0.6,0.2-1.2,0.5-1.8,0.9c-3.1,1.6-5.6,3.9-7.8,6.8c0.6,0.2,1,0.4,1.5,0.4
		c3,0.3,5.9,0.5,8.9,0.7c1.7,0.1,3.4,0.3,5,0.2c6-0.2,12-0.4,18-0.6c1.3-0.1,2.7-0.2,4-0.4c1.5-0.2,2.9-0.5,4.4-0.9
		c2.9-0.7,5.7-1.5,8.6-2.2c0.4-0.1,0.7-0.4,1-0.5c-1.3-2.6-7.9-6.2-12.4-6.8c-0.1,0.1-0.2,0.3-0.3,0.4c-1,1.3-1.3,1.4-2.9,0.9
		c-0.4-0.2-0.9-0.4-1.3-0.5C77.5,38.8,76.8,38.2,76.7,37.2z M47.8,51.5c-0.3,2.7,0.1,5.1,0.8,7.6c4.3,0.5,8.5,1.2,12.7,1
		c2.2-0.1,4.3,0,6.5,0c3.3-0.1,6.6-0.1,9.9-0.5c3.5-0.4,6.9-1.3,10.3-2.1c0.8-0.2,1.5-0.5,2.2-0.8c-0.1-2.5-0.4-4.7-1-6.9
		c-0.7,0.2-1.3,0.3-1.9,0.4c-5.8,1.1-11.6,1.9-17.5,1.9c-6,0-12-0.4-18-0.7C50.5,51.4,49.3,51.5,47.8,51.5z M75.8,35.7
		c0.5-0.7,0.4-1.2-0.2-1.6c-0.7-0.5-1.5-0.9-2.2-1.4c-2.4-1.6-4.8-1.5-7.1,0.3c-1.2,1-2.5,1.9-3.4,3.6
		C67.3,35.6,71.4,34.1,75.8,35.7z M98.3,51.3c3.7,0.3,9.2-1.4,10.3-3.2c-2.3-0.7-4.6-1.1-7-0.9C98.6,47.5,98.2,48,98.3,51.3z
		 M47.9,59.1c-0.3-2.8-0.5-5.2-0.8-7.7c-0.2-0.1-0.7-0.1-1.2-0.3c-0.4,2.4,0.5,4.6,0.2,6.8c-0.2-0.4-0.3-0.8-0.4-1.3
		c-0.2-1.6-0.4-3.2-0.6-4.8c-0.1-0.9-0.6-1.5-1.6-1.1c0,2.4,0,4.7,0,7.2C44.9,58.3,46.2,58.6,47.9,59.1z M32.8,52.4
		c1.9,1.8,5.5,2.7,8.1,2.1c0-1,0.1-2,0.1-3.2C38.1,50.7,35.5,51.2,32.8,52.4z M90.9,56.7c0.6-0.4,0.9-0.5,0.9-0.6
		c-0.2-2.3-0.5-4.6-0.8-7.3c-0.5,0.5-0.9,0.8-0.9,1C90.3,52,90.6,54.2,90.9,56.7z M108.3,51.3c2.1-0.8,2.1-0.8,1.8-2.1
		C109.6,49.8,109.1,50.4,108.3,51.3z M31.2,56.1c0.1-0.1,0.1-0.2,0.1-0.3c-0.3-0.2-0.5-0.5-0.8-0.6c-0.1-0.1-0.4,0.1-0.6,0.3
		c-0.1,0.1,0,0.4,0.1,0.5C30.4,56,30.8,56,31.2,56.1z"/>
	<path id="XMLID_13_" class="st2" d="M66,93.9c1,0.8,1.7,1.4,2.5,2c1.1-0.7,2-1.3,3-2c0.4,0.4,0.8,0.8,1.3,1.3
		c0.3-0.1,0.7-0.2,1-0.4c0.7-0.6,1.3-0.7,2.2-0.3c0.5,0.2,1.3,0.1,1.9-0.1c1.8-0.7,1.8-0.8,3.4,0.5c0.9-0.3,1.9-0.6,2.8-1
		c0.9-0.4,1.5-0.3,2.2,0.3c1,0.9,2,1.2,3.4,1c0.8-0.1,1.7,0.2,2.4,0.3c0.4,1.2-0.3,1.5-0.9,2c-1.4,1-2.8,1.9-4.2,2.9
		c0.2,1.2,0.4,2.2,0.5,3.3c0.1,0.7,0.1,1.4,0,2c-0.1,2.2-0.5,2.4-2.7,3c-6.7,1.8-13.5,1.4-20.3,1.1c-1.5-0.1-2.9-0.5-4.3-0.9
		c-1.5-0.5-2.3-1.7-2.2-3.3c0-1.8-0.6-3.4-1.3-5c-0.5-1.1-0.7-2.3-0.8-3.5c-0.1-1,0.3-1.3,1.3-1.4c0.7-0.1,1.3-0.1,2-0.1
		c1,0,1.6-0.4,1.7-1.5c0-0.3,0.3-0.7,0.6-1.2c0.6,0.5,1,0.9,1.4,1.3c1.2,1.2,1.4,1.2,2.7,0.1C65.7,94,65.9,94,66,93.9z M62,103.6
		c0,0.6,0,0.9,0,1.1c0.4,3.2,0.9,3.6,4.1,3.7c2.8,0,5.6,0.1,8.5,0.1c2.7-0.1,5.4,0.1,8.1-1.1c-0.1-1.4-0.1-2.9-0.2-4.6
		C75.5,102.8,68.8,103.2,62,103.6z M71.1,95.9c-2.7,1.3-2.7,1.3-5.1,0.1c-1.6,1.8-2.7-0.6-4.3-0.6c-0.4,0.5-0.8,1.1-1.2,1.5
		c-1.3,0.1-2.3,0.1-3.4,0.2c0,1.5,0.2,2.6,1.2,3.3c2.3-0.3,4.5-0.4,6.6-0.8c3.2-0.5,6.5-0.4,9.7-0.4c2,0,4,0.3,6,0.4
		c0.7-1,1.2-2,2.6-2.6c-0.5,0.9-0.9,1.6-1.2,2.2c0.1,0.1,0.2,0.2,0.3,0.3c0.7-0.3,1.3-0.7,2.1-1.1c-0.1,0.9,0.4,1.4,1,1.2
		c0.8-0.2,1.6-0.7,2.3-1.2c0.6-0.5,1.6-0.6,1.8-1.6c-1.1-0.4-2.2-0.5-3.1-1.1c-1.3-0.9-2.5-0.9-3.8-0.2c-1.2,0.7-2.4,0.9-3.3-0.4
		c-1.4,0.6-2.6,1.1-4,0.7c-0.3-0.1-0.8,0-1.1,0.3C73,96.9,72,96.7,71.1,95.9z M83,102.6c0.2,1.8-0.5,3.4,0.8,5
		c0.3-0.5,0.6-0.8,0.7-1.2C84.5,104.8,84.1,103.4,83,102.6z M85.2,107.2c1.2-1.8,1.2-3.3,0.1-4.5C84.7,104.1,85,105.4,85.2,107.2z
		 M60.2,107.1c0.6-1.9,0.6-1.9-0.3-3C60,105.2,60.1,106.1,60.2,107.1z M61.6,107.4c0.1,0,0.2-0.1,0.3-0.1c-0.2-0.6-0.3-1.2-0.5-1.8
		c-0.1,0-0.2,0.1-0.3,0.1C61.2,106.2,61.4,106.8,61.6,107.4z"/>
	<path id="XMLID_12_" class="st2" d="M97.2,84.1c0.6-0.2,1.1-0.4,1.7-0.5c0.1,0,0.2,0.1,0.6,0.2c-0.3,0.4-0.4,1-0.8,1.2
		c-3.6,2.4-7.4,4.6-11.7,5.4c-6.6,1.3-13.3,2-20.1,1.7c-3.5-0.1-6.9-0.4-10.2-1.3c-3.8-1-7.6-2.3-11.2-4c-0.8-0.4-0.8-0.4-0.8-1.7
		c1.4,0.6,2.8,1.1,4.1,1.6c4.5,1.8,9,3.3,13.8,3.7c6.4,0.6,12.8,0.5,19.1-0.6c1.9-0.3,3.8-0.6,5.8-1c2.8-0.5,5.3-1.6,7.5-3.3
		C95.7,85.2,96.5,84.6,97.2,84.1L97.2,84.1z"/>
	<path id="XMLID_11_" class="st2" d="M104.8,91.4c2.3,4.8,2.2,9.8,2.1,14.9c-1.1-0.1-1.2-0.7-1.2-1.3c0-1.4,0.1-2.7,0-4
		c-0.3-2.2-0.6-4.4-1.1-6.6c-0.4-1.7-0.7-1.8-2.4-1.9c-3.7,0-7.4,0-11.1,0c-0.6,0-1.3,0.2-1.9-0.3c1.1-1,2.9-1.3,7.8-1.2
		C99.6,91.2,102.2,91.3,104.8,91.4z"/>
	<path id="XMLID_10_" class="st2" d="M57.2,92.1c-0.5,0.4-0.7,0.7-1,0.8c-3,0.5-6,0.9-8.9,1.4c-1.5,0.3-3,0.8-4.5,1.2
		c-1,0.3-1.5,0.9-1.6,1.9c-0.1,1.5-0.2,2.9-0.2,4.4c0,1.9,0.2,3.9,0.3,5.9c-1.1,0.1-1.4-0.6-1.4-1.5c-0.1-1.1-0.2-2.3-0.2-3.4
		c0-2.1-0.4-4.3,0.3-6.4c0.3-1.1,0.8-1.8,1.9-2c2.3-0.4,4.6-0.9,6.9-1.3c2-0.4,3.9-0.8,5.9-1.3C55.6,91.5,56.3,91.4,57.2,92.1z"/>
	<path id="XMLID_9_" class="st3" d="M76.8,0.3c-0.6,0.4-1.3,0.9-1.9,1.3c-2.3,1.6-4.5,3.4-6.3,5.7c-0.1,0.2-0.2,0.3-0.4,0.5
		c-2.1,2.8-1.3,4.4,1.6,5.3c0.4,0.1,0.9,0.3,1.3,0.6c1.6,0.9,2.1,2.9,1.1,4.5c-0.7,1.1-3.8,3.3-5.6,3.8c0.2-0.5,0.3-0.8,0.6-1
		c0.7-0.5,1.4-1,2.1-1.5c0.6-0.4,1.2-0.9,1.7-1.4c1.1-1.3,0.7-2.9-0.8-3.7c-0.8-0.4-1.8-0.7-2.6-1.1c-1.8-0.9-2.3-2.2-1.4-4
		c0.3-0.7,0.7-1.3,1.1-1.9c2.1-2.4,4.2-4.7,7.2-6.1c0.7-0.3,1.4-0.8,2-1.1C76.7,0.1,76.8,0.2,76.8,0.3z"/>
	<path id="XMLID_8_" class="st3" d="M57.9,4.8c-0.2,0.3-0.2,0.5-0.3,0.5c-3.1,1-4.6,3.6-6.1,6.2c-1.2,1.9-0.9,2.9,1.2,3.9
		c1.3,0.6,2.8,0.9,4.2,1.2c0.7,0.2,1.5,0.2,2.1,0.5c1.2,0.5,1.5,1.5,0.9,2.6c-0.7,1.3-1.6,2.4-3.3,3.4c0.1-0.8,0.1-1.2,0.3-1.4
		c0.6-0.8,1.3-1.4,1.8-2.2c0.5-0.7,0.4-1.2-0.4-1.6c-0.4-0.2-0.9-0.3-1.4-0.3c-2.1-0.1-4.1-0.9-5.9-2c-1.4-0.9-1.8-1.8-1.1-3.2
		c1.1-2.4,2.6-4.6,4.5-6.4C55.3,5.1,56.4,4.6,57.9,4.8z"/>
	<path id="XMLID_7_" class="st3" d="M88.6,2.6c-2,1.2-3.6,2.7-5.1,4.4c-0.4,0.4-0.7,0.8-1,1.2c-1.8,2.3-1.5,3.6,1.1,4.9
		c0.3,0.2,0.6,0.3,0.9,0.4c2.2,1.3,2.7,3.9,1.1,5.9c-1.2,1.4-2.8,2.2-4.7,3.4c0.2-0.7,0.2-1.1,0.4-1.3c0.7-0.6,1.5-1.1,2.3-1.6
		c2.6-1.7,2.5-4.1-0.1-5.8c-0.5-0.3-1.1-0.6-1.6-0.9c-2-1.1-2.4-2.7-1.2-4.6c1.3-2.2,3.3-3.7,5.3-5.2C86.8,3,87.6,2.4,88.6,2.6z"/>
	<path id="XMLID_6_" class="st2" d="M45.6,74.1c0.2,2.1,0.3,4.1,0.5,6.6c0.5-0.9,0.8-1.5,1.2-2.2c1,1.2,0.8,2.5,1.1,3.7
		c0.1,0.7,0.4,1.2,1.3,1.4c-0.3,0.5-0.5,1-0.7,1.5c-0.3-0.2-0.5-0.3-0.5-0.4c-0.2-0.8-0.3-1.6-0.5-2.4c-0.1-0.7-0.3-1.4-0.6-2.1
		c-0.8,1.5-0.4,3.2-0.9,4.8C45.7,81.4,45.2,77.8,45.6,74.1z"/>
	<path id="XMLID_5_" class="st2" d="M94.5,84.9c-0.2-4.6-0.4-9.1-0.6-13.7c0.1,0,0.2-0.1,0.3-0.1c0.1,0.3,0.4,0.5,0.4,0.8
		c0,1.1,0,2.1,0,3.2c0,3.2,0,6.5,0,9.7C94.6,84.9,94.6,84.9,94.5,84.9z"/>
	<path id="XMLID_4_" class="st2" d="M92.6,76.2c0.3,2.6,0.6,5.1,0.9,7.7C92.3,81.4,92,78.8,92.6,76.2z"/>
	<path id="XMLID_3_" class="st2" d="M61,42.4c-0.7,0.3-1.4,0.7-1.9,1c-0.1,1.2,1,0.9,1.5,1.5c-0.4,0.2-0.7,0.4-1.1,0.7
		c0.3,0.4,0.6,0.8,1,1.5c-1.7,0.1-3.1,0.1-4.4-0.4c0-0.1,0-0.3,0-0.4c0.8,0,1.5,0.1,2.2,0.1c0.1-0.1,0.1-0.2,0.2-0.3
		c-0.9-0.5-1.7-1.1-2.6-1.6c0.1-0.1,0.1-0.2,0.2-0.3c0.6,0.1,1.3,0.1,2,0.2c0.1-0.6,0.3-1.2,0.4-1.9c0.9-0.2,1.7-0.3,2.5-0.5
		C61,42.1,61,42.3,61,42.4z"/>
	<path id="XMLID_2_" class="st2" d="M78.6,44.2c0.6-0.4,1.1-0.7,1.7-1c0.5,0.7,0.5,1.3-0.1,1.7C79.5,45.3,79.1,44.9,78.6,44.2z"/>
</g>
</svg>
