<svg width="138" height="111" viewBox="0 0 138 111" fill="none" xmlns="http://www.w3.org/2000/svg">
<path d="M10.3739 58.3811C15.0839 55.4311 19.8939 52.4411 25.2939 51.1411C28.5339 50.3611 31.8839 50.2111 35.1839 49.7711C59.6139 46.4911 80.3339 27.2611 104.974 26.8011C105.784 26.7811 106.614 26.7911 107.384 27.0511C108.404 27.3911 109.244 28.1311 109.984 28.9111C114.544 33.7311 116.304 40.4911 117.594 47.0011C118.054 49.3211 118.444 51.8511 117.394 53.9711C117.094 54.5711 116.684 55.1111 116.484 55.7511C115.684 58.2411 118.194 60.4211 119.494 62.6911C122.054 67.1711 119.684 73.1511 115.654 76.3711C111.624 79.5911 106.384 80.7711 101.384 82.0311C93.6039 83.9811 85.9139 86.3411 78.5339 89.4911C68.7539 93.6611 59.5739 99.2111 49.6239 102.971C39.6739 106.731 28.5039 108.621 18.4339 105.211C17.1239 104.761 15.8039 104.211 14.8039 103.251C14.0539 102.531 13.5339 101.621 13.0439 100.701C9.39387 93.7511 7.93388 85.8811 6.52388 78.1611C5.77388 74.0411 5.01387 69.9111 4.26387 65.7911C3.83387 63.4511 4.05388 60.1411 6.41388 59.8111" fill="white"/>
<path d="M1.44389 64.921C1.33389 64.541 1.22389 64.1209 1.38389 63.7509C1.53389 63.4009 1.89389 63.2009 2.24389 63.0309C5.34389 61.5409 7.52388 58.821 10.7339 57.601C13.4339 56.571 17.2039 57.321 19.6739 55.821C25.6039 52.231 32.0439 49.501 38.7539 47.741C37.6839 48.021 35.5639 51.481 34.7239 52.371C33.3239 53.861 31.8539 55.2909 30.3339 56.6609C27.1639 59.511 23.7639 62.101 20.1639 64.391C16.5639 66.681 12.7839 68.671 8.85388 70.331C7.57388 70.871 5.38388 72.2909 4.09388 71.5609C2.77388 70.8109 1.85389 66.321 1.44389 64.921Z" fill="#BCBCBB"/>
<path d="M123.034 72.6611C123.074 73.1411 123.114 73.6511 122.894 74.0711C122.624 74.6011 122.034 74.8811 121.494 75.1111C110.254 79.9311 98.484 83.5111 86.464 85.7811C86.124 84.1011 87.214 82.4811 88.364 81.2111C93.664 75.3911 101.194 72.5311 108.224 69.4311C111.814 67.8511 115.334 66.1811 118.634 64.0511C120.794 62.6611 121.484 61.7711 122.314 64.5811C123.044 67.0011 122.814 70.1511 123.034 72.6611Z" fill="#BCBCBB"/>
<path d="M113.514 59.311C114.394 57.681 114.924 56.4211 115.704 55.3411C116.914 53.6511 117.324 51.831 116.774 49.891C116.034 47.291 115.084 44.741 114.234 42.171C113.784 40.811 113.234 39.471 112.944 38.071C112.244 34.751 110.914 31.671 109.354 28.701C108.214 26.521 107.294 26.0511 105.134 26.5211C100.224 27.5911 95.2939 28.5811 90.3839 29.6811C87.894 30.2411 85.4339 30.9511 82.9739 31.6211C82.2139 31.8311 81.474 32.1411 80.714 32.4011C80.754 33.2211 80.794 33.9311 80.824 34.6511C79.004 32.8611 77.194 33.5211 75.364 34.1811C71.224 35.6611 67.0939 37.141 62.934 38.571C59.764 39.651 56.514 40.5211 53.374 41.7111C45.614 44.6611 37.844 47.621 30.174 50.791C22.584 53.931 15.094 57.341 7.58396 60.671C6.42396 61.181 5.34396 61.9011 4.27396 62.5911C3.58396 63.0311 3.11396 62.981 2.64396 61.971C3.32396 61.521 3.99396 61.001 4.73396 60.611C11.234 57.161 17.974 54.2411 24.944 51.8711C26.224 51.4411 26.934 50.6311 27.364 49.4611C28.874 45.3211 30.984 41.471 33.144 37.641C36.214 32.221 39.124 26.711 42.124 21.261C42.584 20.421 43.174 19.661 43.684 18.851C44.574 17.451 45.524 16.1411 45.444 14.2711C45.374 12.6011 47.424 11.171 49.024 11.611C49.524 11.751 50.074 12.361 50.254 12.881C50.604 13.891 51.284 14.461 52.174 14.881C53.914 15.691 55.714 16.371 57.374 17.321C59.444 18.511 61.494 19.781 63.364 21.251C66.214 23.491 69.324 25.211 72.574 26.781C74.4939 27.711 76.294 28.971 77.964 30.311C79.044 31.171 79.984 31.341 81.244 31.001C86.724 29.541 92.194 28.0611 97.714 26.7411C100.584 26.0511 103.514 25.641 106.434 25.171C108.264 24.871 109.534 25.551 110.394 27.531C111.724 30.601 112.924 33.731 114.114 36.861C114.964 39.101 115.744 41.361 116.474 43.641C117.254 46.071 118.284 48.491 118.544 50.981C118.704 52.561 117.714 54.2911 117.104 55.9011C116.784 56.7511 116.184 57.5011 115.614 58.4611C117.274 58.9011 118.624 59.251 119.964 59.611C121.654 60.071 122.724 61.0611 122.974 62.9011C123.184 64.4011 123.614 65.861 123.904 67.351C124.774 71.791 122.844 75.3011 118.424 76.9611C109.604 80.2611 100.804 83.621 91.9739 86.921C86.9639 88.791 81.914 90.531 76.924 92.441C71.494 94.521 66.114 96.721 60.714 98.881C53.594 101.731 46.414 104.431 39.394 107.501C35.674 109.121 31.944 110.361 27.904 110.561C26.394 110.631 24.854 110.611 23.364 110.411C21.874 110.211 20.734 109.231 20.004 107.951C16.824 102.331 13.234 96.931 11.004 90.791C9.89396 87.731 8.33396 84.831 7.00396 81.851C5.80396 79.171 5.50396 76.481 6.98396 73.781C7.08396 73.601 7.02396 73.331 7.03396 73.001C6.44396 72.951 5.90396 72.901 5.36396 72.861C3.42396 72.711 3.06395 72.371 2.43395 70.631C1.92395 69.221 1.24396 67.861 0.673958 66.471C0.253958 65.451 -0.626049 64.4211 0.713951 63.021C1.97395 65.691 3.13396 68.161 4.48396 71.011C4.87396 71.051 5.63396 71.131 6.39396 71.231C9.69396 71.651 10.324 73.0211 9.24397 75.4611C8.32397 77.551 9.12395 79.581 9.76395 81.521C10.894 84.9311 12.054 88.341 13.524 91.611C15.084 95.101 16.984 98.431 18.764 101.821C19.504 103.231 20.404 104.571 21.074 106.011C22.124 108.271 24.014 108.721 26.214 108.681C27.744 108.651 29.124 108.111 30.544 107.571C33.304 106.521 36.164 105.751 38.934 104.731C45.294 102.381 51.684 100.081 57.974 97.531C69.604 92.821 81.224 88.111 93.114 84.071C99.604 81.861 105.954 79.231 112.374 76.801C114.984 75.8111 117.574 74.731 120.234 73.891C121.824 73.391 122.594 72.301 122.494 70.911C122.304 68.141 121.884 65.3711 121.314 62.6511C121.184 62.0611 120.064 61.541 119.294 61.251C117.564 60.561 115.734 60.041 113.514 59.311ZM77.604 32.081C75.4139 29.681 72.834 28.5611 70.394 27.2411C68.364 26.1411 66.2439 25.101 64.434 23.691C60.434 20.581 56.094 18.091 51.464 16.081C49.684 15.301 46.934 15.971 45.874 17.571C42.164 23.161 39.064 29.111 35.994 35.071C34.974 37.051 33.894 39.001 32.864 40.981C31.614 43.391 30.394 45.821 29.194 48.251C29.004 48.641 28.974 49.1111 28.844 49.6511C45.114 43.7911 61.184 38.001 77.604 32.081Z" fill="black"/>
<path d="M137.954 29.1211C137.704 29.2911 137.434 29.621 137.194 29.601C131.564 29.151 125.934 28.671 120.304 28.161C119.804 28.111 119.324 27.811 118.864 27.631C118.914 27.381 118.924 27.301 118.954 27.231C118.984 27.161 119.054 27.061 119.094 27.061C123.844 27.351 128.594 27.631 133.334 27.971C134.874 28.081 136.394 28.361 137.924 28.571C137.934 28.761 137.944 28.9411 137.954 29.1211Z" fill="#EB584A"/>
<path d="M102.544 18.1711C102.264 16.2411 104.104 2.44104 104.914 0.811035C105.234 1.38104 105.734 1.89105 105.624 2.14105C104.404 4.93105 104.694 7.93105 104.294 10.8311C103.994 12.9611 103.654 15.081 103.284 17.201C103.224 17.4911 102.874 17.7411 102.544 18.1711Z" fill="#EB584A"/>
<path d="M116.074 20.3009C120.374 15.6409 125.904 12.4309 130.514 7.96094C131.164 8.94094 130.804 9.36092 130.224 9.75092C125.714 12.7709 121.484 16.1209 117.654 19.9809C117.304 20.3309 116.844 20.5609 116.434 20.8409C116.324 20.6509 116.204 20.4709 116.074 20.3009Z" fill="#EB584A"/>
<path d="M108.224 59.6011C108.214 60.8511 107.414 61.0311 106.674 61.3011C98.324 64.2711 89.974 67.2611 81.614 70.2111C75.134 72.5011 68.694 74.8811 62.144 76.9511C55.884 78.9211 49.794 81.2811 43.674 83.6311C36.384 86.4411 28.954 88.9011 21.574 91.4811C21.094 91.6511 20.534 91.611 19.834 91.6911C20.024 91.2711 20.064 90.9511 20.214 90.8911C25.594 88.9011 30.964 86.8511 36.384 84.9811C46.564 81.4711 56.554 77.4111 66.894 74.3311C72.544 72.6511 78.064 70.5011 83.604 68.4611C91.534 65.5311 99.414 62.5011 107.324 59.5211C107.524 59.4511 107.784 59.5611 108.224 59.6011Z" fill="#EB584A"/>
<path d="M52.714 94.3011C51.854 94.8011 51.134 95.3011 50.344 95.6511C48.834 96.3111 47.964 95.9011 47.494 94.3211C47.044 92.8011 46.764 91.2111 46.214 89.7311C45.754 88.5011 44.994 87.3911 44.354 86.1911C46.184 84.6911 50.144 83.7111 52.694 84.3911C50.534 85.2211 48.664 85.9411 46.574 86.7411C47.034 87.8411 47.394 88.691 47.764 89.561C49.644 89.291 51.354 89.051 53.514 88.751C53.024 89.401 52.824 89.9111 52.454 90.1211C51.764 90.5011 50.984 90.7011 50.234 90.9911C48.114 91.8011 48.014 92.1411 49.394 94.5411C50.994 93.7611 52.614 92.9711 54.364 92.1211C55.574 94.1311 54.294 95.9211 54.164 97.9511C52.074 97.2111 53.654 95.4511 52.714 94.3011Z" fill="#EB584A"/>
<path d="M32.3239 99.041C31.4239 98.241 30.9739 97.161 30.9439 95.801C31.8939 95.971 32.7239 96.1209 33.5039 96.2509C34.0839 95.5309 34.5839 94.901 35.1639 94.181C35.8939 96.151 36.5039 97.861 37.1539 99.551C37.1739 99.591 37.1839 99.631 37.2039 99.671C37.2939 99.691 37.3739 99.721 37.4639 99.741C37.5339 99.761 37.8939 99.801 37.7839 99.791C37.8739 99.801 37.9639 99.801 38.0539 99.801C38.1339 99.801 38.2239 99.791 38.3039 99.791C38.3139 99.781 38.4139 99.761 38.5039 99.741C38.5039 99.731 38.5039 99.7309 38.5039 99.7209C38.4939 99.6309 38.4939 99.611 38.5039 99.611C38.4939 99.591 38.4839 99.561 38.4739 99.521C38.2339 98.821 37.9639 98.3109 37.6539 97.5309C37.2939 96.6209 37.1539 95.671 37.0139 94.701C36.9139 93.961 36.7739 93.2209 36.5039 92.5609C36.3039 92.0809 36.0839 91.611 35.9039 91.131C35.6239 90.931 35.3339 90.7209 34.9839 90.4709C34.3039 91.9609 33.6939 93.2709 32.9939 94.7809C31.4639 93.7309 30.2039 92.871 28.8339 91.931C28.4139 94.051 29.7939 98.351 31.2039 99.631C31.6439 100.031 32.1339 100.651 32.9639 99.881C32.7339 99.611 32.5239 99.331 32.3239 99.041Z" fill="#EB584A"/>
<path d="M44.3441 97.551C42.8241 97.511 42.8041 96.4109 42.4641 95.7209C40.5241 91.8209 40.3841 91.261 40.7441 89.991C40.9241 90.021 41.2541 90.011 41.2841 90.091C42.1341 92.581 43.7141 94.791 44.3441 97.551Z" fill="#EB584A"/>
<path d="M25.104 93.561C25.444 93.961 25.7841 94.201 25.9141 94.531C26.8941 96.971 27.8541 99.4211 28.7641 101.891C28.8641 102.161 28.5841 102.561 28.4741 102.911C28.1541 102.771 27.6141 102.711 27.5341 102.481C26.5041 99.731 25.5341 96.961 24.5641 94.191C24.5441 94.111 24.754 93.961 25.104 93.561Z" fill="#EB584A"/>
<path d="M103.974 32.4609C102.494 34.0209 101.104 35.4909 99.5039 37.1609C100.384 35.0309 102.064 33.3009 103.974 32.4609Z" fill="black"/>
<path d="M101.984 30.8809C101.634 31.3109 101.274 31.7309 100.924 32.1609C100.834 32.0809 100.734 32.0109 100.644 31.9309C101.014 31.5209 101.384 31.1009 101.754 30.6909C101.834 30.7509 101.914 30.8209 101.984 30.8809Z" fill="black"/>
<path d="M98.7239 34.3211C98.9639 34.0111 99.2039 33.7111 99.4339 33.4011C99.5039 33.4511 99.5739 33.5011 99.6439 33.5511C99.4239 33.8711 99.2039 34.1911 98.9839 34.5111C98.8939 34.4511 98.8139 34.3811 98.7239 34.3211Z" fill="black"/>
</svg>
