<svg width="13" height="13" viewBox="0 0 13 13" fill="none" xmlns="http://www.w3.org/2000/svg">
<path d="M0.0634766 5.30918C0.0253906 5.61387 0 5.92363 0 6.23848C0 9.00605 1.51582 11.4156 3.76035 12.6928L4.1793 11.8092V5.77383L3.71465 5.30918H0.0634766ZM13 5.77383C13 5.30918 12.5354 4.84453 12.0707 4.84453H8.35606C8.58711 3.91523 8.8207 2.98848 8.8207 2.52383C8.8207 1.59453 8.35605 0.667773 8.125 0.43418C8.11992 0.429102 7.89395 0.203125 7.4293 0.203125C6.73359 0.203125 6.73359 0.898828 6.73359 0.898828C6.73359 0.911523 6.50254 2.05918 6.50254 2.52383C6.50254 2.98848 5.57324 4.84453 5.10859 5.30918L4.64395 5.54023V12.0402L5.10859 12.2713H10.2146C11.1439 12.2713 11.6086 11.8066 11.6086 11.342C11.6086 10.8773 11.1439 10.4127 10.6793 10.4127C11.6086 10.4127 12.0732 9.94805 12.0732 9.4834C12.0732 9.01875 11.6086 8.5541 11.1439 8.5541C12.0732 8.5541 12.5379 8.08945 12.5379 7.6248C12.5379 7.16016 12.0732 6.69551 11.6086 6.69551C12.5354 6.70313 13 6.23848 13 5.77383Z" fill="#4769B2"/>
</svg>
