<svg width="135" height="222" viewBox="0 0 135 222" fill="none" xmlns="http://www.w3.org/2000/svg">
<path d="M13.5173 110.151C9.1373 117.201 4.6773 124.411 2.8273 132.501C0.967295 140.591 2.14729 149.851 7.89729 155.841C11.9273 160.031 17.9173 162.391 20.7673 167.461C22.4873 170.511 22.8073 174.131 23.0973 177.621C23.4573 182.081 23.8273 186.531 24.1873 190.991C24.3573 193.091 24.5573 195.281 25.6573 197.081C26.9073 199.131 29.1273 200.361 31.3273 201.301C45.5973 207.411 61.9173 204.801 77.3273 206.621C83.4173 207.341 89.8873 209.051 93.7573 213.801C94.9973 215.321 95.9173 217.101 97.3573 218.431C100.927 221.721 106.447 221.311 111.267 220.681C115.297 220.161 119.687 219.461 122.417 216.451C124.097 214.601 124.887 212.121 125.537 209.711C129.007 196.861 129.887 183.471 130.727 170.191C131.617 156.111 132.477 141.961 131.067 127.931C129.657 113.901 125.867 99.8613 118.137 88.0713C116.127 85.0113 113.757 81.7713 113.977 78.1213C114.137 75.4013 115.727 73.0113 117.147 70.6813C121.237 64.0213 124.467 56.5213 124.457 48.7013C124.447 38.6813 119.217 29.5013 114.147 20.8613C111.867 16.9713 109.437 12.9313 105.597 10.5713C102.947 8.93129 99.8373 8.24128 96.7773 7.63128C91.0773 6.51128 85.2973 5.62129 79.4873 5.70129C70.9273 5.82129 62.5573 8.03129 54.2773 10.2313C50.6773 11.1913 47.0273 12.1613 43.7473 13.9313C33.9373 19.2313 29.1773 30.4613 25.2673 40.8913C23.5973 45.3413 21.9173 50.0513 22.6573 54.7513C23.3973 59.4513 27.4373 64.0013 32.1673 63.5113C36.5173 63.0613 41.2173 58.8313 44.5473 61.6713C48.5973 65.1213 45.7173 72.3113 42.8873 75.5613C40.5473 78.2413 36.9773 79.4313 34.3573 81.8213C25.7673 89.6213 19.5873 100.381 13.5173 110.151Z" fill="white"/>
<path d="M26.1873 163.351C24.5473 163.871 22.8473 164.351 21.1273 164.251C17.4473 164.031 14.5073 161.231 11.9273 158.591C8.86727 155.471 5.55727 151.511 6.60727 147.281C12.1773 147.251 17.2273 150.371 22.6273 151.721C26.2373 152.621 36.7973 151.401 38.0473 156.001C39.3373 160.821 29.4973 162.271 26.1873 163.351Z" fill="#BBBBBA"/>
<path d="M95.3773 56.6913C95.1073 58.1213 94.8873 59.6013 95.1273 61.0413C95.4273 62.8013 96.4273 64.3613 97.4173 65.8613C98.8473 68.0213 100.347 70.1813 102.377 71.7813C104.407 73.3813 107.077 74.3613 109.607 73.8113C110.237 73.6713 110.857 73.4413 111.367 73.0513C111.817 72.7113 112.157 72.2613 112.477 71.7913C115.177 67.7413 115.157 62.2913 113.327 57.7813C111.717 53.7813 106.577 45.7813 101.947 44.8413C96.4073 43.7013 96.0973 52.7913 95.3773 56.6913Z" fill="#BBBBBA"/>
<path d="M34.4773 66.2111C32.6173 66.3411 30.7973 65.4211 29.5173 64.0711C28.2373 62.7211 27.4573 60.9711 26.9273 59.1811C25.1373 53.1811 26.0873 46.4211 29.4573 41.1411C30.6373 42.8811 31.0873 44.9911 31.6373 47.0211C32.2373 49.2211 32.9873 51.4111 34.2873 53.2911C36.2673 56.1611 42.4073 56.5711 43.1573 59.3711C44.0473 62.6611 37.0573 66.0311 34.4773 66.2111Z" fill="#BBBBBA"/>
<path d="M72.8973 84.5414C77.8373 82.2314 82.9873 79.3314 85.6373 73.8514C88.1673 68.6214 88.0773 61.6814 91.4273 57.1914C93.3373 59.6914 93.9073 63.3014 93.5873 66.6014C93.2673 69.9014 92.1473 72.9714 91.0473 76.0014C90.0273 78.8014 89.0073 81.6114 87.9873 84.4114C86.7973 87.6914 85.5773 91.0114 83.6973 93.7714C80.8673 97.9214 76.5573 100.551 72.0373 100.911C68.6073 101.181 60.5173 100.021 60.6573 94.1614C60.7873 88.6114 69.5073 86.1314 72.8973 84.5414Z" fill="#BBBBBA"/>
<path d="M44.6675 156.471C45.4675 158.011 47.1475 158.941 48.8475 159.211C50.5575 159.491 52.3075 159.201 53.9875 158.821C56.9675 158.151 59.8875 157.201 62.6975 155.971C64.1775 155.331 65.6575 154.581 66.6975 153.341C67.7375 152.101 68.2075 150.271 67.4475 148.851C66.2575 147.691 64.4775 147.351 62.8175 147.441C60.1475 147.581 57.6575 148.391 54.9575 148.231C52.8975 148.111 50.4375 146.911 48.3675 147.251C44.4975 147.921 42.8475 152.951 44.6675 156.471Z" fill="#BBBBBA"/>
<path d="M28.3973 130.231C28.8173 129.381 29.2873 128.521 30.0173 127.931C31.8073 126.501 34.3973 127.121 36.6973 127.191C44.0873 127.401 50.7173 121.061 58.0473 122.061C61.5473 122.541 64.5873 124.651 67.4673 126.701C69.9073 128.431 72.4673 130.331 73.4973 133.131C71.3773 134.661 68.6573 132.561 66.3273 131.371C62.6973 129.521 58.3373 129.991 54.3373 130.781C45.6673 132.501 37.2573 135.501 29.4573 139.651C20.0373 144.671 26.8373 133.381 28.3973 130.231Z" fill="#BBBBBA"/>
<path d="M67.5073 41.5211C67.4773 42.0311 67.4273 42.5811 67.1173 42.9811C66.4573 43.8211 65.1573 43.5211 64.1273 43.2311C61.1873 42.3911 58.0673 42.2011 55.0473 42.6811C53.1073 42.9911 50.8173 43.4711 49.4173 42.0911C48.5273 41.2111 48.3473 39.8711 48.2173 38.6311C53.3873 38.7111 58.5673 38.1311 63.5873 36.9011C64.0073 36.8011 64.4473 36.6811 64.7673 36.3811C65.0273 36.1311 65.1773 35.7911 65.3173 35.4511C66.0173 33.7911 67.1373 30.7911 67.7073 33.9111C68.1373 36.2411 67.6473 39.1511 67.5073 41.5211Z" fill="#BBBBBA"/>
<path d="M74.5275 42.1611C77.1275 42.0711 79.6775 42.7711 82.2275 43.2711C86.8675 44.1711 91.6275 44.4211 96.3375 44.0011C96.5475 43.9811 96.7675 43.9611 96.9575 43.8611C97.6375 43.5011 97.4475 42.3811 96.7975 41.9611C96.1575 41.5411 95.3275 41.6111 94.5575 41.6611C90.0875 41.9611 85.5575 41.2211 81.3975 39.5611C77.3475 37.9311 73.9975 35.7411 74.5275 42.1611Z" fill="#BBBBBA"/>
<path d="M53.4273 30.4611C53.9244 30.4611 54.3273 30.0582 54.3273 29.5611C54.3273 29.0641 53.9244 28.6611 53.4273 28.6611C52.9303 28.6611 52.5273 29.0641 52.5273 29.5611C52.5273 30.0582 52.9303 30.4611 53.4273 30.4611Z" fill="white"/>
<path d="M86.3575 33.4514C86.8546 33.4514 87.2575 33.0484 87.2575 32.5514C87.2575 32.0543 86.8546 31.6514 86.3575 31.6514C85.8605 31.6514 85.4575 32.0543 85.4575 32.5514C85.4575 33.0484 85.8605 33.4514 86.3575 33.4514Z" fill="white"/>
<path d="M58.3975 51.951C60.0575 51.511 62.2375 51.611 63.9175 51.941" stroke="white" stroke-miterlimit="10" stroke-linecap="round" stroke-linejoin="round"/>
<path d="M73.1174 148.351C72.4774 151.801 72.1774 155.321 71.4674 158.741C70.2074 164.781 68.3474 170.631 65.1074 175.961C64.7774 176.501 64.6874 177.191 64.3274 177.691C64.0874 178.021 63.5674 178.281 63.1674 178.311C62.9174 178.321 62.5374 177.871 62.3974 177.551C62.0974 176.901 61.9174 176.201 61.6874 175.521C59.6374 169.401 57.3974 163.331 55.5974 157.131C53.9974 151.611 53.2774 145.911 52.7274 140.171C52.2174 134.861 53.0674 129.681 53.3874 124.431C53.6674 119.701 54.6574 115.131 56.1374 110.651C57.1574 107.561 58.1374 104.431 59.3674 101.421C59.8874 100.151 60.9974 99.1211 61.9974 97.7811C58.5574 95.6011 58.4674 92.2511 58.5374 88.7011L60.5174 88.4711L68.7474 87.4811H68.7774C69.5074 87.4011 69.9674 87.8411 70.2874 88.3511C71.6574 90.5111 72.8374 92.8411 71.1974 95.2711C69.3974 97.9311 70.1774 100.281 71.3074 102.871C73.8974 108.781 75.5774 114.901 75.2074 121.461C75.0774 123.761 75.1674 126.091 75.2674 128.401C75.5474 135.171 74.3374 141.751 73.1174 148.351Z" fill="#EA574A"/>
<path d="M75.2674 128.401C75.1674 126.091 75.0774 123.761 75.2074 121.461C75.5774 114.901 73.8974 108.781 71.3074 102.871C70.1774 100.281 69.3974 97.9311 71.1974 95.2711C72.8374 92.8411 71.6574 90.5111 70.2874 88.3511C69.9674 87.8411 69.5074 87.4011 68.7774 87.4811H68.7474C68.5674 87.5111 68.3574 87.5611 68.1274 87.6611C69.6674 89.1511 70.2374 90.9511 70.4974 92.8511C70.7074 94.3611 70.3874 95.9111 69.1274 96.7211C67.6974 97.6411 65.9574 97.7911 64.2774 97.1811C64.0174 97.0811 63.6674 96.7711 63.6574 96.5411C63.5974 95.3811 62.6274 95.0111 61.9374 94.3811C60.6174 93.1811 59.6874 91.8711 60.7274 89.9811C60.9374 89.6111 60.8474 89.0811 60.9074 88.5511C60.7774 88.5211 60.6474 88.4911 60.5174 88.4711C59.8574 88.3211 59.2474 88.2011 58.5474 88.0511C58.5474 88.2711 58.5374 88.4911 58.5374 88.7011C58.4674 92.2511 58.5574 95.6011 61.9974 97.7811C60.9974 99.1211 59.8874 100.151 59.3674 101.421C58.1374 104.431 57.1574 107.561 56.1374 110.651C54.6574 115.131 53.6674 119.701 53.3874 124.431C53.0674 129.681 52.2174 134.861 52.7274 140.171C53.2774 145.911 53.9974 151.611 55.5974 157.131C57.3974 163.331 59.6374 169.401 61.6874 175.521C61.9174 176.201 62.0974 176.901 62.3974 177.551C62.5374 177.871 62.9174 178.321 63.1674 178.311C63.5674 178.281 64.0874 178.021 64.3274 177.691C64.6874 177.191 64.7774 176.501 65.1074 175.961C68.3474 170.631 70.2074 164.781 71.4674 158.741C72.1774 155.321 72.4774 151.801 73.1174 148.351C74.3374 141.751 75.5474 135.171 75.2674 128.401ZM74.0174 133.251C73.7074 137.701 72.9374 142.111 72.2874 146.531C71.7674 150.001 71.1674 153.461 70.5374 156.911C69.4274 162.991 67.6974 168.871 64.6174 174.281C64.5074 174.471 64.2874 174.611 64.0274 174.861C63.8074 174.601 63.5474 174.411 63.4474 174.161C60.5074 166.401 58.3474 158.381 56.3974 150.331C55.5574 146.871 55.3874 143.231 55.1374 139.651C55.0574 138.661 55.7474 137.621 56.0874 136.601C55.5174 136.551 55.1074 136.371 55.0274 135.661C54.8774 134.401 55.1274 133.371 56.0374 131.941C55.6774 131.451 55.0774 130.981 55.1474 130.651C55.6074 128.361 55.1074 126.041 55.5274 123.761C56.1074 120.541 56.4074 117.271 57.2274 114.121C58.2174 110.271 59.5074 106.481 60.9174 102.751C61.4274 101.401 62.5974 100.281 63.5574 99.1311C63.8074 98.8311 64.3974 98.7311 64.8374 98.7011C65.8774 98.6411 66.9074 98.6811 68.2674 98.6811C69.5474 102.091 70.7974 105.601 72.1674 109.061C73.7274 113.001 74.0474 117.091 74.0074 121.271C73.9674 125.271 74.2974 129.281 74.0174 133.251Z" fill="black"/>
<path d="M49.0373 132.061L59.2873 130.521L59.4773 127.121L71.9073 130.111L72.8973 127.121L93.9373 128.931L112.147 130.641L115.557 191.651L87.1273 206.181L36.1673 198.601L30.4973 172.571L49.0373 132.841" fill="white"/>
<path d="M100.107 75.3614C100.877 76.3714 101.397 77.4914 101.707 78.6914C101.927 77.8114 102.127 76.9214 102.297 76.0114C102.397 75.4614 102.147 74.8514 102.047 74.2614C101.467 74.1614 100.897 74.0614 100.237 73.9414C100.187 74.4814 100.147 74.9314 100.107 75.3614Z" fill="black"/>
<path d="M42.2474 157.661C37.7774 159.841 33.4574 161.951 29.0774 164.091C28.7574 163.581 28.4074 163.001 28.0674 162.451C24.6274 163.941 23.7674 164.181 22.1974 163.881C18.9674 163.261 15.8274 162.301 12.9474 160.691C11.3874 159.821 9.94735 158.721 8.24735 157.581C9.65735 156.321 10.7874 155.301 11.9174 154.291L11.6774 153.981C10.3274 154.891 8.96735 155.791 7.55735 156.741C6.97735 156.221 6.45735 155.761 6.03735 155.391C6.56735 154.691 7.00736 154.121 7.43736 153.541C6.66736 153.791 5.89735 154.031 5.06735 154.301C4.77735 153.891 4.43735 153.541 4.24735 153.121C3.01735 150.381 1.71735 147.751 2.35735 144.481C2.85735 141.941 2.45735 139.241 2.73735 136.641C3.24735 131.791 5.10736 127.381 7.69736 123.281C9.52736 120.391 11.5374 117.611 13.3574 114.701C18.1874 106.981 23.0074 99.2612 28.4874 91.9812C29.0874 91.1812 29.7374 90.4212 30.6474 89.2712C31.3874 91.9712 30.9874 94.3212 31.4574 96.5112C31.6474 96.5012 31.8374 96.4912 32.0274 96.4712C32.2474 94.1512 32.4674 91.8212 32.6874 89.5012L33.1273 89.4112C33.5974 91.1412 34.0574 92.8712 34.5274 94.6112C34.6774 94.5912 34.8274 94.5712 34.9874 94.5512C35.1874 93.4712 35.3873 92.3812 35.6273 91.1112C36.2774 91.8512 36.7374 92.3612 37.5274 93.2512C36.9374 90.8712 36.4874 89.0312 36.0274 87.1912C35.8773 87.2012 35.7374 87.2112 35.5874 87.2212C35.2574 88.2912 34.9374 89.3512 34.6074 90.4212C33.9774 89.3512 33.6374 88.3012 33.4774 87.2212C33.3974 86.7212 33.4974 86.0212 33.7974 85.6612C35.0174 84.2112 36.3674 82.8812 38.0174 81.8012C38.1774 81.1812 48.9674 71.9912 49.1374 71.3712C48.1074 70.9812 36.6174 79.9912 35.8374 80.9212C35.1774 81.7112 34.3074 82.3112 33.5674 83.0412C30.2074 86.3412 26.8573 89.6512 24.5574 93.8612C23.8773 95.1112 22.9674 96.2512 22.1074 97.4012C20.8774 99.0512 19.4774 100.601 18.3474 102.321C16.4274 105.251 14.6674 108.281 12.8274 111.251C11.5274 113.351 10.2174 115.451 8.84735 117.501C8.37735 118.211 7.80736 119.031 7.08736 119.351C6.12736 119.771 5.82736 120.411 5.54736 121.281C5.16736 122.411 4.57736 123.471 4.15736 124.591C3.17736 127.201 1.92735 129.771 1.37735 132.471C0.61735 136.211 0.117355 140.051 0.00735512 143.861C-0.112645 148.021 1.23736 151.851 3.93736 155.161C6.72736 158.591 10.2074 161.071 14.1374 162.941C17.1074 164.351 20.1874 165.541 23.5474 165.441C24.8574 165.401 25.8673 165.551 26.3074 167.011C29.5774 166.061 32.0974 164.011 34.9574 162.661C37.3773 161.511 39.7774 160.251 42.4274 159.401C42.3474 158.821 42.2874 158.241 42.2474 157.661Z" fill="black"/>
<path d="M74.6374 136.031C74.5174 135.991 74.4074 135.941 74.2874 135.891C73.8574 135.731 73.4974 135.131 73.2874 134.651C72.6374 133.181 71.5574 132.201 70.1674 131.471C66.6974 129.641 62.8874 129.361 59.1974 129.811C54.8574 130.341 50.5874 131.531 46.3274 132.591C44.5874 133.021 42.9074 133.811 41.5374 135.131C42.4074 135.851 42.3874 135.811 44.7974 134.791C45.9674 134.301 47.2174 134.001 48.4474 133.651C49.7574 133.281 51.0674 132.941 52.3974 132.631C53.5974 132.341 54.7974 132.101 56.1074 131.821C56.0674 132.381 56.0573 132.621 56.0473 132.841C57.2773 132.881 57.8174 130.891 59.4874 131.781C57.9674 133.521 55.9874 134.831 55.3074 137.111C56.8074 135.711 58.1274 134.151 59.6374 132.801C60.3474 132.161 61.4474 131.591 62.3574 131.611C64.1774 131.641 66.0474 131.881 67.7874 132.411C71.5474 133.571 72.8974 136.411 71.9874 140.061C70.4274 146.281 60.5174 150.101 56.2074 148.231C54.3774 147.431 52.5073 146.721 50.7173 145.841C50.0473 145.511 49.5474 144.811 49.0074 144.251C48.7074 143.931 48.4774 143.541 48.1774 143.151C47.3274 144.301 47.2974 144.321 47.4474 144.821C47.8674 146.231 48.8474 147.121 50.1774 147.641C51.9574 148.341 53.7173 149.131 55.5473 149.681C56.7473 150.041 58.0474 150.151 59.3074 150.221C62.3274 150.391 64.8473 148.901 67.4073 147.581C70.0073 146.241 71.7673 144.091 73.0473 141.561C73.5973 140.471 73.7073 139.161 74.0773 137.751C74.2573 137.811 74.4274 137.881 74.6074 137.941C74.5874 137.301 74.5974 136.671 74.6374 136.031Z" fill="black"/>
<path d="M133.637 173.131C133.617 172.341 133.637 171.511 133.847 170.751C134.737 167.471 134.087 164.251 133.537 161.021C132.957 157.641 132.357 154.271 131.787 150.891C131.757 150.691 131.897 150.461 131.997 150.121C132.527 150.341 133.007 150.541 133.777 150.861C133.877 150.021 134.087 149.351 134.017 148.721C133.817 146.981 133.427 145.251 133.227 143.511C132.297 135.481 131.077 127.521 128.317 119.871C127.967 118.891 127.877 117.811 127.607 116.501C128.557 116.741 129.087 116.881 129.617 116.991C130.127 117.101 130.647 117.181 131.277 117.291C131.667 115.341 130.797 113.841 130.137 112.381C127.837 107.291 125.417 102.251 123.027 97.1908C120.327 91.4908 117.597 85.8107 114.907 80.1007C114.627 79.5107 114.497 78.8507 114.227 77.9807C115.157 78.0907 115.707 78.1207 116.227 78.2307C118.387 78.6707 118.587 78.4607 118.537 76.3507C118.497 74.5207 118.557 72.6807 118.717 70.8607C119.167 65.7107 122.067 61.4207 123.767 56.7107C123.907 56.3207 124.337 55.8807 124.727 55.7607C126.597 55.1907 127.297 53.6408 127.787 52.0308C129.027 47.9207 128.537 43.9607 126.367 40.2607C124.467 37.0307 122.377 33.9108 120.547 30.6408C117.517 25.2008 114.657 19.6607 111.647 14.2107C110.967 12.9707 110.027 11.8407 109.057 10.8007C108.167 9.85074 107.067 9.27074 105.607 9.66074C105.097 9.80074 104.317 9.61075 103.887 9.28075C100.467 6.71075 96.5674 5.06075 92.6474 3.48075C88.6774 1.88075 84.3674 1.47074 80.2274 0.52074C73.7774 -0.94926 67.5273 0.830741 61.8473 4.13074C59.0973 5.73074 56.5874 7.74074 54.0374 9.66074C53.1774 10.3107 52.4873 10.6407 51.4673 10.0507C49.7773 9.08074 47.9674 9.29075 46.4074 10.1707C44.1974 11.4107 42.0073 12.7707 40.0573 14.3807C36.1273 17.6207 33.6073 22.0807 30.5273 26.0407C29.4573 27.4207 28.8873 29.1807 27.9573 31.0207H31.4173C30.9573 32.0407 30.5674 32.8808 30.1874 33.7208C27.8774 38.7708 25.0773 43.5908 24.8473 49.4408C24.6473 54.5908 24.8573 59.4808 27.9573 63.8608C29.2273 65.6507 33.1674 67.4807 35.2574 66.9607C37.7974 66.3307 40.0274 65.1407 41.4074 62.7607C42.1274 61.5207 42.8473 60.2707 43.5273 59.0107C43.7174 58.6707 43.7673 58.2507 43.8874 57.8707C43.2474 58.0107 42.8974 58.3107 42.5874 58.6507C41.0174 60.3507 39.5574 62.1707 37.8574 63.7307C36.0074 65.4408 31.7973 65.5307 30.1273 63.7707C28.1373 61.6707 27.1674 58.9707 26.6174 55.8908C29.2474 55.1608 31.5874 54.5007 33.9274 53.8507C33.8974 53.7307 33.8773 53.6107 33.8473 53.4907C31.5173 53.8407 29.1874 54.1807 26.9074 54.5207C26.1074 53.0307 26.6173 52.2007 27.8873 51.7407C28.7073 51.4407 29.5474 51.1808 30.4074 51.0008C31.5974 50.7508 32.8074 50.6007 34.0074 50.4107C31.5374 49.4807 29.2374 50.7207 26.6974 50.8107C26.6974 50.1208 26.6573 49.5707 26.7073 49.0407C26.9873 45.7407 27.9174 42.6208 29.3574 39.6408C30.5774 37.1208 31.8074 34.6107 32.9274 32.0507C33.8774 29.8807 33.5474 29.1507 31.2574 28.1307C32.0074 26.8907 32.6574 25.6107 33.5074 24.4907C35.2874 22.1307 37.0374 19.7307 39.0474 17.5707C41.5574 14.8907 44.3074 12.4107 47.9474 11.2607C49.0374 10.9207 50.1174 10.6508 51.2474 11.5808C51.1574 12.6308 50.9474 13.8607 52.3874 14.6807C52.8274 14.2007 53.2173 13.7307 53.6573 13.3107C55.2473 11.7507 56.7474 10.0808 58.4774 8.69075C62.2674 5.63075 66.6673 3.66075 71.3773 2.64075C73.7473 2.12075 76.3474 2.05074 78.7274 2.46074C80.1774 2.71074 81.6374 3.12075 83.1374 3.17075C86.6974 3.29075 90.0974 4.17075 93.3974 5.39075C95.2374 6.07075 96.9473 7.11075 98.9073 8.08075C98.2673 8.79075 97.8174 9.29075 97.3773 9.78075C97.7573 9.63075 98.1474 9.50074 98.4874 9.30074C99.9574 8.43074 100.017 8.43075 101.227 9.97075C101.967 10.1408 102.697 10.3007 103.477 10.4807C103.347 11.4807 103.247 12.2407 103.087 13.4107C103.887 12.8107 104.357 12.4307 104.857 12.0907C106.427 11.0107 107.317 11.1307 108.577 12.6207C109.037 13.1707 109.467 13.7608 109.797 14.3908C110.857 16.3608 111.797 18.4007 112.907 20.3407C116.807 27.1307 120.767 33.8807 124.677 40.6607C126.407 43.6607 127.147 46.8907 126.487 50.3407C126.307 51.2707 126.077 52.3008 125.517 53.0008C125.157 53.4508 124.157 53.3907 123.617 53.5207C122.297 56.6107 121.127 59.5808 119.767 62.4708C118.047 66.1408 116.757 69.8708 116.997 74.0007C117.037 74.6107 116.907 75.2408 116.837 76.0807C115.847 75.9908 114.997 75.8807 114.147 75.8607C113.277 75.8307 112.157 75.5607 111.577 75.9807C109.787 77.2907 108.637 76.2807 107.347 75.2607C106.657 74.7207 105.847 74.3407 105.157 73.8007C102.317 71.5707 99.8674 69.0207 98.3374 65.4307C99.5174 64.8207 100.547 64.2507 101.617 63.7508C102.757 63.2108 103.927 62.7407 105.087 62.2307C105.037 62.0907 104.977 61.9407 104.927 61.8007C102.507 62.6607 100.087 63.5207 97.6774 64.3807C96.8974 62.4707 96.8773 62.3208 98.2374 61.5808C99.2074 61.0408 100.277 60.6707 101.317 60.2707C102.367 59.8707 103.427 59.5207 104.487 59.1507C104.427 58.9907 104.377 58.8307 104.317 58.6707C101.767 59.4707 99.2074 60.2707 96.5473 61.1007C95.8973 59.0307 96.1874 57.0607 96.5874 55.1307C97.1774 52.3207 97.9174 49.5407 98.5074 46.7307C98.5974 46.3207 98.1973 45.8007 98.0173 45.3407C97.6073 45.6107 96.9774 45.7907 96.8374 46.1507C95.8074 48.9107 94.8474 51.6907 93.9373 54.4907C93.6473 55.3807 93.5474 56.3307 93.3174 57.4907C90.2174 57.3007 88.1973 59.2307 86.0074 60.9807C87.2673 60.7307 88.5374 60.4907 90.2574 60.1507C89.1174 61.6907 88.3573 62.9007 87.4273 63.9507C83.7973 68.0607 79.7673 71.6307 74.4073 73.4107C71.6073 74.3407 68.9674 73.9007 66.5574 72.5307C64.7974 71.5307 63.3273 70.0107 61.8473 68.8207C62.2673 67.2907 63.0674 65.9807 62.8374 64.8907C62.4774 63.2107 63.1674 62.6207 64.3874 61.9107C65.9574 60.9907 67.5874 60.0407 68.8574 58.7707C71.0974 56.5207 71.1173 53.1207 69.1773 51.2107C66.3773 48.4407 60.0474 47.6408 56.6174 49.6108C54.4274 50.8708 53.4073 53.3807 54.3473 55.5407C55.3773 57.9107 56.7773 60.0708 58.9273 61.5808C60.2374 62.5008 61.1573 63.6007 61.5373 65.1807C60.8773 66.4207 60.2473 67.7107 59.5173 68.9507C59.2573 69.4007 58.8373 69.8607 58.3773 70.0807C55.2173 71.6107 52.2174 70.7307 49.4974 69.0407C47.0574 67.5207 46.1974 65.0607 46.4974 62.1807C46.8674 58.5807 47.4374 55.0807 49.1774 51.8107C50.0674 50.1408 50.5273 48.2307 51.1273 46.4107C51.2573 46.0007 51.1474 45.5207 51.1474 45.0707C50.8874 45.0707 50.6374 45.0108 50.5973 45.0808C49.9173 46.1908 49.2574 47.3207 48.3174 48.9107C48.3174 47.0407 48.3773 45.6308 48.2973 44.2208C48.2273 42.9008 48.6574 41.3907 47.0674 40.3207C46.2374 42.1507 46.6874 43.8907 46.6474 45.6007C46.5974 47.7407 46.6773 49.9108 46.4173 52.0308C45.9773 55.5908 45.1873 59.1007 44.7773 62.6607C44.4073 65.9007 45.6274 68.6107 48.2474 70.6207C48.6074 70.9007 48.9474 71.2107 49.1674 71.4007C48.3174 77.2407 48.5173 82.5607 53.0674 86.8707C54.5674 88.2807 56.2073 88.9507 58.1773 89.0607C62.9473 89.3207 67.5674 88.4407 72.1174 87.1307C73.9174 86.6107 75.4774 85.6608 76.6974 84.1908C80.3974 79.7507 83.6474 75.0307 86.2574 69.8607C87.1574 68.0807 88.2074 66.3707 89.3474 64.7407C90.4773 63.1307 91.8074 61.6607 93.2274 59.9107C93.5674 60.6207 93.8274 61.0008 93.9474 61.4207C94.2374 62.4207 94.2174 63.6007 94.7574 64.4107C96.4574 66.9107 95.6774 69.2207 94.6074 71.5907C94.0174 72.9007 93.4573 74.2307 92.9373 75.5707C92.5974 76.4307 92.3474 77.3307 91.9073 78.7007C92.7973 78.1307 93.3674 77.6007 93.6974 77.0007C93.7774 76.3507 93.8774 75.7007 93.9774 75.0407C93.9574 74.7907 93.9474 74.5407 94.0374 74.3307C94.8274 72.3507 95.6973 70.4007 96.5773 68.3407C97.7773 69.1107 98.0874 69.9207 97.3374 71.0207C96.9374 71.6007 96.5473 72.1908 96.1573 72.7807C96.5473 72.7307 96.9374 72.7607 97.2874 72.8907C97.7274 72.1707 98.1774 71.4408 98.6674 70.6407C99.8674 71.9007 100.967 73.0607 102.067 74.2207C102.797 74.7008 103.537 75.1807 104.257 75.6607C106.117 76.9007 107.817 78.6307 109.857 79.2907C113.047 80.3107 114.667 82.3607 115.627 85.3007C115.897 86.1307 116.407 86.8707 116.777 87.6707C117.097 88.3707 117.377 89.0907 117.747 89.9807C114.947 90.6907 112.197 90.2807 109.667 90.9907C109.687 91.1707 109.707 91.3507 109.737 91.5307C112.557 91.3007 115.377 91.0607 118.277 90.8207C118.577 91.5307 118.837 92.1607 119.207 93.0507C115.787 93.9007 112.377 93.0307 109.217 94.1207C110.217 94.3007 111.207 94.3307 112.197 94.2907C113.477 94.2307 114.747 94.0607 116.017 94.0207C120.007 93.9007 120.027 93.9107 121.647 97.4907C122.767 99.9607 123.807 102.471 124.957 104.921C126.337 107.891 127.797 110.811 129.197 113.771C129.377 114.151 129.387 114.621 129.527 115.321C128.077 114.851 126.927 114.471 125.477 114.001C125.517 114.891 125.447 115.441 125.587 115.931C126.007 117.471 126.457 119.011 126.987 120.511C129.717 128.241 131.167 136.241 132.177 144.341C132.307 145.401 132.197 146.501 132.197 147.551C131.247 147.401 130.497 147.281 129.417 147.101C129.577 148.431 129.637 149.451 129.837 150.431C131.427 158.211 131.877 166.121 132.327 174.011C132.597 178.791 132.327 183.601 132.417 188.391C132.507 193.181 132.807 197.961 132.907 202.751C132.987 206.431 132.867 210.111 132.897 213.781C132.907 214.651 132.567 215.671 133.687 216.681C133.897 215.151 134.197 213.911 134.207 212.671C134.257 206.281 134.297 199.881 134.207 193.491C134.047 186.701 133.797 179.921 133.637 173.131ZM61.0373 70.6908C63.0673 72.1708 65.2273 73.7507 67.5473 75.4507C67.3973 77.4407 66.6573 79.4307 65.3173 81.1507C63.9973 82.8507 62.0974 82.7807 60.2774 82.3107C58.4174 81.8407 57.3374 80.5508 57.1974 78.3307C58.4474 78.0407 59.6474 77.7507 61.0673 77.4207C59.4873 77.1607 58.1474 76.9607 56.8173 76.7007C56.7273 76.6807 56.7174 76.2807 56.6074 75.7507C58.2074 75.3907 59.7773 75.0307 61.3473 74.6707C61.3373 74.5407 61.3273 74.4007 61.3273 74.2707C59.9073 74.3407 58.4774 74.4107 56.8874 74.4807C56.6674 74.0107 56.4174 73.4807 56.1774 72.9507C57.8674 72.1607 59.4273 71.4408 61.0373 70.6908ZM80.2673 76.7707C78.9073 78.7407 77.4073 80.6107 75.9373 82.5007C74.4673 84.4007 72.6574 85.5907 70.1974 86.0307C66.9774 86.6007 63.8074 87.2807 60.5074 87.4408C56.0474 87.6608 53.6373 86.0007 51.7173 81.6107C50.4073 78.6007 50.2773 75.3607 50.2373 72.1507C50.4873 72.1307 50.7474 72.1007 50.9974 72.0807C51.2074 73.4508 51.3674 74.8407 51.6474 76.2007C51.8874 77.3607 52.2273 78.5107 52.5773 79.6407C53.1973 81.6607 54.5474 82.5507 56.6674 83.0907C58.9674 83.6807 61.2273 84.3307 63.5973 84.6507C67.2473 85.1407 70.7474 84.4107 73.6374 82.3707C76.0774 80.6507 78.1473 78.1807 78.8773 75.1407C79.2673 73.5307 80.0474 72.6407 81.3574 71.9408C82.0874 71.5508 82.7874 71.0807 83.4974 70.6507C83.6174 70.7607 83.7374 70.8807 83.8574 70.9907C82.6774 72.9307 81.5573 74.9107 80.2673 76.7707ZM89.9274 59.5207L89.7874 59.0507C90.3274 58.8707 90.8774 58.6907 91.4174 58.5107C91.4774 58.7007 91.5374 58.8907 91.5974 59.0907C91.0374 59.2307 90.4874 59.3807 89.9274 59.5207ZM133.477 167.451C133.447 167.111 133.407 166.781 133.377 166.441C133.447 166.431 133.507 166.421 133.577 166.411C133.607 166.751 133.647 167.081 133.677 167.421C133.607 167.431 133.547 167.441 133.477 167.451Z" fill="black"/>
<path d="M107.867 30.0609C106.527 29.6309 105.197 29.2009 103.597 28.6909C103.377 29.8209 103.107 30.8009 103.017 31.8009C102.827 33.9509 102.717 36.1109 102.597 38.2609C102.517 39.6709 102.197 41.0109 101.037 41.8909C100.387 42.3809 99.5074 42.8709 98.7374 42.8509C94.5874 42.7409 90.4274 42.6209 86.2974 42.2109C83.5374 41.9409 80.8374 41.1509 78.0974 40.6409C76.4374 40.3309 75.5974 39.2709 75.3674 37.7109C74.9674 34.8709 74.5774 32.0209 74.3174 29.1609C74.2074 27.9609 73.9974 26.8409 72.8674 26.3609C71.6674 25.8609 70.3274 25.8309 69.2974 26.8609C68.8874 27.2709 68.5674 27.8609 68.4374 28.4309C67.7974 31.1509 67.2474 33.8909 66.6374 36.6209C66.4874 37.3009 66.2374 37.9709 66.0174 38.7109C63.1474 38.7109 60.3674 38.8509 57.5974 38.6809C53.5374 38.4209 49.4574 38.3409 45.5274 36.9809C43.5774 36.3109 43.2574 36.1309 43.0874 33.9909C42.8874 31.3609 42.7574 28.7409 42.5974 26.1109C42.5574 25.4709 42.5874 24.8209 42.4974 24.1909C42.1274 21.6909 42.1374 21.7609 44.5474 20.9209C47.4274 19.9209 50.3074 19.9309 53.2874 20.4109C57.4174 21.0809 61.3174 22.4709 65.2874 23.6709C66.4874 24.0309 67.7674 24.1309 69.0074 24.3109C70.8174 24.5809 72.6274 24.8209 74.4374 25.0609C74.8974 25.1209 75.3774 25.2909 75.8174 25.2209C81.3574 24.3609 86.9274 24.1009 92.5274 24.3209C97.5574 24.5209 102.297 25.9209 106.847 27.9709C107.457 28.2409 107.847 28.9809 108.337 29.5109C108.177 29.6909 108.017 29.8709 107.867 30.0609ZM101.597 27.9709C95.5474 25.4609 80.3274 25.0609 76.0274 27.3609C76.6474 30.3709 77.2774 33.4809 77.9374 36.5809C78.2574 38.0909 79.2774 38.8609 80.7374 39.1509C81.3674 39.2809 81.9874 39.4509 82.6174 39.5209C87.7874 40.0809 92.9574 40.0009 98.1274 39.5609C99.0474 39.4809 99.9474 39.1809 100.977 38.9609C100.667 36.7309 101.567 34.7009 100.787 32.5909C99.3874 32.8009 98.0974 32.9909 96.8074 33.1909C96.7774 33.0209 96.7474 32.8409 96.7174 32.6709C97.9174 32.3209 99.0974 31.8909 100.317 31.6609C101.217 31.5009 101.557 31.0309 101.607 30.2309C101.637 29.5109 101.597 28.8009 101.597 27.9709ZM45.0374 30.1609C45.0074 30.7109 44.9774 31.0309 44.9774 31.3409C45.0374 34.5609 45.4574 35.0309 48.6274 35.4009C50.0574 35.5709 51.4774 35.8009 52.9074 35.9309C56.0874 36.2109 59.2774 36.4909 62.4574 36.6609C64.5574 36.7709 64.8574 36.4609 65.2574 34.5909C65.6274 32.8809 66.0474 31.1709 66.4474 29.4709C66.8374 27.8009 65.8674 25.7609 64.2274 25.2609C60.1774 24.0309 56.1274 22.7609 52.0074 21.8509C50.2974 21.4709 48.3574 21.8009 46.5774 22.1209C44.3774 22.5109 44.1674 23.1509 44.9974 25.6309C46.3574 25.5109 47.7574 25.3909 49.1474 25.2709C48.2574 25.8909 47.2774 26.1109 46.3174 26.4009C44.7674 26.8709 44.7674 26.9009 45.2274 28.8809C46.4474 28.7109 47.6774 28.5509 48.8974 28.3809C48.9174 28.5009 48.9374 28.6309 48.9574 28.7509C47.7174 29.2109 46.4474 29.6609 45.0374 30.1609Z" fill="black"/>
<path d="M30.4972 173.601C29.1072 174.481 27.7072 175.361 26.1472 176.351C26.1872 176.791 26.2472 177.381 26.3272 178.151C29.3772 177.041 32.1372 175.611 35.2572 175.301C34.4472 176.221 33.2972 176.421 32.2372 176.821C30.7472 177.381 29.2372 177.901 27.7572 178.501C26.3172 179.091 25.5072 180.161 25.2872 181.751C24.5072 187.501 25.5172 193.051 27.1372 198.511C27.6972 200.411 28.6672 202.181 29.4172 204.021C29.9572 205.351 30.5472 206.671 30.9372 208.051C31.1472 208.801 30.9772 209.651 30.5572 210.571C30.3372 210.301 29.9772 210.061 29.9172 209.751C29.3472 207.101 27.8672 204.971 26.3172 202.801C24.6072 200.421 24.2172 197.471 23.8772 194.611C23.3972 190.511 23.0872 186.391 22.6972 182.171C22.1972 182.291 21.5972 182.421 21.0672 182.551C20.0772 181.911 21.5872 172.581 23.4972 166.971C25.2272 167.061 25.6272 167.521 25.1472 169.061C24.7372 170.351 24.1772 171.601 23.7472 172.881C23.5172 173.541 23.4172 174.251 23.2772 174.851C24.2572 175.861 25.0972 175.431 26.0172 175.091C27.4972 174.531 29.0272 174.101 30.5372 173.621L30.4972 173.601Z" fill="black"/>
<path d="M25.8673 132.311C26.8573 129.711 27.8973 127.131 28.8273 124.511C29.4373 122.781 30.1673 121.141 31.3973 119.651C32.3673 120.161 32.0973 120.891 31.8573 121.521C30.9873 123.831 30.0573 126.121 29.1673 128.421C28.9073 129.081 28.6373 129.761 28.5173 130.461C28.0173 133.331 26.7273 135.871 25.3773 138.391C25.0573 138.991 24.8773 139.651 24.5573 140.461C30.9673 140.991 35.4573 137.331 40.4973 134.651C40.3373 135.001 40.2673 135.481 39.9973 135.691C36.1973 138.601 32.4573 141.721 27.3973 142.041C24.9573 142.201 22.4873 141.981 20.0273 141.831C19.6373 141.801 18.9773 141.181 18.9773 140.831C18.9773 140.051 19.6173 139.871 20.3673 140.021C21.2173 140.191 22.0873 140.281 22.9973 140.411C23.9973 138.651 24.8373 136.981 25.0873 135.021C25.2073 134.091 25.6273 133.201 25.9073 132.291L25.8673 132.311Z" fill="black"/>
<path d="M67.5873 42.2112C64.8373 42.8712 62.5373 42.5012 59.9873 42.6812C61.3973 40.9812 64.3073 40.8212 67.5873 42.2112Z" fill="black"/>
<path d="M54.0474 140.891C53.7774 142.931 53.5774 144.511 53.3574 146.191C52.1974 146.141 51.7574 145.331 51.8174 144.461C51.8974 143.211 51.8574 141.741 54.0474 140.891Z" fill="black"/>
<path d="M69.2474 143.421C67.8374 142.191 66.8074 141.301 65.8274 140.451C66.3074 139.411 66.9174 139.381 67.4874 139.831C68.4974 140.621 69.7474 141.321 69.2474 143.421Z" fill="black"/>
<path d="M7.52731 153.521C9.43731 151.671 11.9073 150.901 14.3273 150.041C12.1073 151.311 9.9773 152.751 7.4873 153.471C7.4973 153.471 7.52731 153.521 7.52731 153.521Z" fill="black"/>
<path d="M21.1772 129.051C22.7572 128.051 24.4672 127.471 26.3272 127.351C26.3772 127.511 26.4272 127.661 26.4872 127.821C24.7972 128.401 23.1072 128.981 21.4172 129.551C21.3372 129.391 21.2572 129.221 21.1772 129.051Z" fill="black"/>
<path d="M25.9073 132.281C24.9273 132.571 23.9373 132.841 22.9573 133.151C22.0873 133.421 21.2273 133.731 20.2773 133.711C21.9673 132.601 23.6873 131.591 25.8573 132.321C25.8673 132.311 25.9073 132.281 25.9073 132.281Z" fill="black"/>
<path d="M30.5273 173.641C31.9773 172.921 33.4273 172.211 34.8773 171.491C34.9373 171.641 34.9973 171.791 35.0573 171.941C33.7273 172.971 32.2073 173.521 30.4873 173.601C30.4973 173.601 30.5273 173.641 30.5273 173.641Z" fill="black"/>
<path d="M56.0073 132.841C54.9173 134.041 53.8373 135.231 52.7473 136.431C53.3973 134.801 54.3873 133.501 56.0473 132.881L56.0073 132.841Z" fill="black"/>
<path d="M101.167 9.99121C99.9774 10.9512 98.7974 11.9012 97.6074 12.8612C98.3974 11.3412 99.4274 10.1712 101.207 10.0412L101.167 9.99121Z" fill="black"/>
<path d="M51.2075 61.4712C52.1475 61.4712 52.7475 61.4712 53.3575 61.4712C53.3575 61.7112 53.4175 61.9312 53.3475 61.9912C52.6875 62.5912 52.0275 62.9112 51.2075 61.4712Z" fill="black"/>
<path d="M52.2474 66.5908C52.6174 66.9308 52.8274 67.1108 53.0274 67.3008C52.8474 67.5008 52.6774 67.8408 52.4774 67.8508C52.2674 67.8608 51.9274 67.6208 51.8474 67.4108C51.7874 67.2508 52.0474 66.9708 52.2474 66.5908Z" fill="black"/>
<path d="M71.1372 62.3311C71.6372 62.3711 72.1272 62.411 72.9072 62.461C72.1372 63.331 71.6272 63.4011 71.1372 62.3311Z" fill="black"/>
<path d="M75.7273 62.0714C76.1873 61.8414 76.4673 61.5714 76.6873 61.6114C76.9073 61.6514 77.0573 62.0214 77.2473 62.2414C77.0273 62.4014 76.7973 62.7114 76.5773 62.7014C76.3473 62.6814 76.1273 62.3814 75.7273 62.0714Z" fill="black"/>
<path d="M13.7173 153.071C14.2973 152.831 14.8873 152.591 15.4673 152.351C15.5073 152.461 15.5573 152.561 15.5973 152.671C15.0173 152.921 14.4373 153.171 13.8573 153.421C13.8173 153.301 13.7673 153.181 13.7173 153.071Z" fill="black"/>
<path d="M73.8773 65.9414C74.1073 66.4414 74.2973 66.6814 74.2973 66.9314C74.2973 67.0714 73.9373 67.3814 73.8873 67.3514C73.6573 67.2314 73.3573 67.0314 73.3073 66.8014C73.2673 66.6314 73.5673 66.3914 73.8773 65.9414Z" fill="black"/>
<path d="M97.1773 9.86133C97.4073 10.9113 96.7773 11.4013 95.6973 12.0113C95.8673 10.7813 96.6673 10.4313 97.2273 9.90132C97.2273 9.91132 97.1773 9.86133 97.1773 9.86133Z" fill="black"/>
<path d="M89.9275 33.5714C89.4775 34.3714 88.9875 35.5514 88.2175 36.4914C87.4175 37.4714 85.8675 37.3914 85.0475 36.4514C84.1075 35.3614 83.7975 34.0014 84.1875 32.6514C84.6075 31.1914 85.7375 30.2014 87.1875 29.8314C88.2475 29.5714 88.9975 30.3414 89.4075 31.2614C89.6675 31.8314 89.6975 32.4914 89.9275 33.5714Z" fill="black"/>
<path d="M95.2874 35.5909C96.6374 34.3609 98.1774 34.3909 99.7774 34.8109C98.2874 35.0809 96.7874 35.3409 95.2874 35.5909Z" fill="black"/>
<path d="M51.2774 30.3911C51.0774 28.5311 52.4374 26.871 54.1374 26.801C55.7774 26.741 56.8474 27.9011 56.9574 29.9411C57.0174 31.0511 57.0274 32.131 56.0974 33.021C55.1574 33.931 54.1274 34.3711 52.8674 33.9711C51.6074 33.5711 51.2774 32.5311 51.2774 31.3411C51.2774 31.0311 51.2774 30.7111 51.2774 30.3911Z" fill="black"/>
<path d="M42.1373 157.001C41.5473 156.121 40.9873 155.181 40.8173 154.131C40.6473 153.081 40.9473 151.891 41.8073 151.281C44.2773 149.511 50.3373 149.021 51.2773 152.711C52.2873 156.661 47.6373 158.881 45.7073 161.531C44.3273 160.281 43.1773 158.561 42.1373 157.001Z" fill="#BBBBBA"/>
<path d="M52.4973 174.851C59.6773 178.401 66.8573 181.951 74.0373 185.491C74.5273 185.731 75.0673 186.041 75.2073 186.571C75.3473 187.151 74.9073 187.741 74.3573 187.971C73.8073 188.201 73.1873 188.151 72.5973 188.101C66.1073 187.461 59.7973 185.631 53.6573 183.421C50.6073 182.321 47.4673 181.031 45.4073 178.531C44.1673 177.031 42.0873 172.121 45.0073 171.151C46.8373 170.541 50.7973 174.011 52.4973 174.851Z" fill="#BBBBBA"/>
<path d="M105.907 134.821C103.597 134.341 101.237 134.151 98.8972 133.821C97.3672 133.611 96.0672 133.161 95.9672 131.261C95.8972 130.011 95.0172 129.331 93.9472 128.931C93.0972 128.611 92.2372 128.291 91.3472 128.131C86.1572 127.211 80.9672 126.261 75.7572 125.521C74.3572 125.321 72.7072 124.761 71.4172 125.971C71.5472 126.741 71.6472 127.351 71.7372 127.951C67.3972 127.351 63.2972 126.771 59.0172 126.181C58.6172 127.741 58.2272 129.271 57.8372 130.791C58.3172 130.661 58.8072 130.561 59.3072 130.531C59.3172 130.531 59.3272 130.531 59.3472 130.531C60.1172 127.711 60.6672 127.741 64.4272 128.461C66.9072 128.941 69.3672 129.551 71.9372 130.121C72.0072 130.721 72.1072 131.331 72.1472 131.951C72.2772 134.011 72.6172 134.531 74.6872 134.651C77.2772 134.801 79.5872 135.901 82.0272 136.471C86.2472 137.471 90.6072 137.901 94.9272 138.431C96.4772 138.621 97.7172 139.061 98.6172 140.371C99.4572 141.601 99.5572 143.001 99.1072 144.301C98.0072 147.461 96.8672 150.621 95.4772 153.661C93.5172 157.941 91.3272 162.121 89.2372 166.341C88.9972 166.831 88.7672 167.321 88.5072 167.801C86.4972 171.661 84.5272 175.531 82.4572 179.351C81.6872 180.771 80.8172 182.171 79.7772 183.401C78.1172 185.361 77.9572 185.301 75.2972 183.661C75.7672 182.921 76.1272 182.331 76.6372 181.511C70.1472 180.501 64.0972 179.021 58.4872 175.771C53.0272 172.601 47.4072 169.751 41.9372 165.771C43.6172 164.671 45.0072 163.861 46.2772 162.901C48.5372 161.181 51.2672 160.011 52.3172 156.921C52.7172 155.741 54.1572 154.961 54.9872 153.881C56.2372 152.261 57.4972 150.641 58.6872 148.981C57.5672 149.001 56.4572 148.881 55.3972 148.591C53.5472 151.051 51.6872 153.491 49.8272 155.941C48.4972 157.681 46.9472 159.171 44.7472 160.321C40.3472 156.951 39.5372 151.991 38.3472 146.971C39.1972 146.751 39.7072 146.461 40.1872 146.511C43.8572 146.841 47.4172 146.621 50.9572 145.891C50.8172 145.731 50.6672 145.581 50.5272 145.421C50.2772 145.101 50.0472 144.781 49.8372 144.451C45.5672 145.331 41.1872 145.401 36.2972 144.711C37.1272 151.201 38.6672 156.731 43.2972 161.281C41.1272 162.141 39.1672 162.911 36.3172 164.041C37.6272 165.521 38.6172 166.641 39.5872 167.731C36.2972 170.111 32.8572 168.351 29.4072 168.671C30.3572 171.351 31.5672 173.551 33.1072 175.571C36.2372 179.681 40.4172 182.491 45.2672 184.941C44.3572 185.031 43.8272 185.081 43.2372 185.141C43.2772 186.201 43.3872 187.111 43.3172 188.011C43.2472 189.001 42.9572 189.981 42.8672 190.971C42.6072 193.771 43.1572 194.631 45.8672 195.171C49.9572 195.981 54.0872 196.591 58.1772 197.381C61.7272 198.071 65.2672 198.881 68.7972 199.671C72.5172 200.501 76.2472 201.291 79.9472 202.231C84.3972 203.371 88.9172 203.681 93.4672 203.621C96.0672 203.591 96.4772 203.071 97.1272 200.531C98.5972 194.811 99.9472 189.051 101.657 183.401C103.297 177.991 104.147 172.431 105.067 166.891C106.017 161.251 106.517 155.531 107.347 149.871C107.857 146.371 108.757 142.921 109.227 139.421C109.617 136.491 108.787 135.411 105.907 134.821ZM92.0172 136.061C91.3672 136.251 90.6272 136.411 89.9772 136.291C86.5172 135.681 82.9372 135.681 79.6672 134.001C78.5172 133.401 77.0272 133.381 75.6772 133.251C74.1972 133.111 73.5872 132.341 73.6172 130.941C73.6472 129.771 73.7072 128.601 73.7772 127.121C74.9172 127.161 75.8872 127.101 76.8172 127.251C81.1172 127.931 85.4372 128.591 89.7072 129.421C93.9672 130.251 94.5372 130.371 94.6372 135.051C93.7272 135.421 92.8972 135.811 92.0172 136.061ZM89.2672 176.231C90.1672 174.001 91.3672 172.001 93.8272 171.121C94.1572 171.001 94.4272 170.731 94.7172 170.511C94.7672 170.481 94.7372 170.351 94.7772 170.051C93.6372 170.421 92.5772 170.761 91.3072 171.171C91.4072 168.101 94.3972 168.621 96.0972 166.641C94.4172 167.161 93.3272 167.501 91.7972 167.981C91.9972 166.881 92.0272 165.911 92.3672 165.071C93.6772 161.791 95.0772 158.551 96.4672 155.301C97.6872 152.471 98.9372 149.661 100.167 146.831C100.387 146.331 100.447 145.751 100.737 145.311C100.947 144.981 101.597 144.551 101.717 144.631C102.097 144.901 102.507 145.371 102.567 145.801C102.647 146.401 102.447 147.051 102.327 147.681C101.177 153.461 100.137 159.271 98.8172 165.021C97.8372 169.261 96.4672 173.401 95.3072 177.591C94.5872 180.221 93.9472 182.871 93.2772 185.511C92.4272 188.831 92.0572 189.131 88.5972 188.931C87.4272 188.861 86.2772 188.641 84.5472 188.421C85.3972 186.301 86.1172 184.571 86.7872 182.821C87.6172 180.641 88.3872 178.411 89.2672 176.231ZM38.2772 177.411C36.9972 176.021 35.6472 174.701 34.3672 173.311C34.1472 173.071 34.1372 172.651 33.9172 171.991C36.6372 171.201 39.2772 170.441 42.3472 169.551C43.3672 170.261 44.7572 171.221 46.3772 172.351C44.4472 173.751 42.6672 175.041 40.8872 176.331C40.9872 176.491 41.0872 176.651 41.1972 176.821C41.5872 176.611 41.9972 176.431 42.3572 176.181C42.9472 175.761 43.5172 175.311 44.0872 174.851C46.2372 173.131 48.3372 172.911 50.7972 174.471C54.1672 176.611 57.6172 178.681 61.2372 180.351C66.3472 182.711 71.6472 184.661 76.8472 186.821C78.1772 187.371 78.9872 186.841 79.9372 185.931C83.1872 182.821 84.6672 178.671 86.7172 174.851C87.3872 173.611 87.9572 172.311 88.5672 171.041C88.7372 171.101 88.9072 171.171 89.0772 171.231C88.9072 171.981 88.8372 172.761 88.5572 173.471C86.2972 179.111 84.0172 184.751 81.7072 190.371C80.8872 192.381 79.7272 192.641 77.9572 191.441C77.3272 191.021 76.5372 190.621 75.8172 190.591C69.5172 190.411 63.7272 188.221 57.8572 186.271C54.6672 185.211 51.5072 184.051 48.2672 183.211C44.3472 182.201 41.0072 180.371 38.2772 177.411ZM107.567 139.551C107.487 140.721 107.277 141.891 107.087 143.061C106.097 149.241 105.117 155.421 104.107 161.591C103.377 166.071 102.567 170.531 101.877 175.021C100.587 183.391 97.2172 191.231 95.7272 199.551C95.6172 200.161 95.3072 200.731 94.9972 201.551C88.0772 200.431 81.1872 199.491 74.3572 198.171C67.5272 196.861 60.7672 195.181 53.6172 193.581C54.6572 192.701 55.4472 192.041 56.2272 191.371C56.1572 191.241 56.0872 191.111 56.0172 190.981C54.8072 191.661 53.6472 192.471 52.3672 192.971C51.7072 193.231 50.8272 193.021 50.0672 192.881C49.9572 192.861 49.9772 192.081 49.9472 191.651L49.9272 191.621C49.3772 191.901 48.8472 192.261 48.2672 192.441C46.6072 192.961 45.3372 191.911 45.6472 190.201C45.9072 188.781 46.3872 187.411 46.8272 185.821C47.6672 185.891 48.3972 185.831 49.0472 186.031C51.4772 186.791 53.8972 187.551 56.2772 188.461C63.8772 191.351 71.6672 193.331 79.8172 193.771C81.8272 193.881 82.3972 193.591 83.2572 191.841C83.5272 191.281 83.7572 190.691 84.0472 190.041C86.4372 190.181 88.7672 190.381 91.1072 190.431C93.7072 190.481 93.7672 190.441 94.4872 187.901C95.2372 185.291 95.7172 182.591 96.5572 180.011C99.6372 170.471 101.547 160.671 103.217 150.811C103.477 149.291 103.857 147.781 104.087 146.261C104.517 143.371 104.297 143.081 101.397 142.271C100.807 140.281 99.8172 138.531 97.7972 137.461C97.2672 137.181 97.0872 136.261 96.4472 135.081C99.7972 135.521 102.497 135.761 105.137 136.251C107.077 136.621 107.687 137.581 107.567 139.551Z" fill="black"/>
<path d="M66.5273 130.641C66.4973 130.691 66.4673 130.741 66.4473 130.801C66.8673 130.941 67.2773 131.111 67.6973 131.341C67.7073 131.351 67.7273 131.361 67.7373 131.371C68.5873 131.691 69.3673 132.191 70.0473 132.811C70.4273 132.891 70.8373 133.021 71.3073 133.241C70.2773 130.661 68.1773 131.621 66.5273 130.641Z" fill="black"/>
<path d="M46.0974 166.511C47.0774 165.951 48.0574 165.401 49.0374 164.841C49.1374 164.991 49.2274 165.141 49.3274 165.301C48.3774 165.911 47.4274 166.531 46.4774 167.141C46.3574 166.931 46.2274 166.721 46.0974 166.511Z" fill="black"/>
<path d="M54.2574 166.031C53.3474 166.431 52.4273 166.841 51.5173 167.241C51.4373 167.071 51.3674 166.901 51.2874 166.741C52.1974 166.331 53.1073 165.921 54.0173 165.501C54.0973 165.681 54.1774 165.861 54.2574 166.031Z" fill="black"/>
<path d="M49.9175 191.631C50.5675 190.221 51.9275 189.781 53.2875 189.351C52.3275 190.341 51.3175 191.261 49.9375 191.661C49.9375 191.651 49.9175 191.631 49.9175 191.631Z" fill="black"/>
<path d="M43.1875 179.141C44.2375 178.441 45.2875 177.731 46.3375 177.031C46.4575 177.201 46.5875 177.381 46.7075 177.551C45.6575 178.291 44.6175 179.021 43.5675 179.761C43.4375 179.551 43.3075 179.351 43.1875 179.141Z" fill="black"/>
<path d="M116.497 210.281C114.837 210.271 114.837 209.261 114.737 208.451C114.287 204.891 113.727 201.331 113.487 197.751C113.047 191.131 112.537 184.531 111.397 177.981C111.097 176.271 111.247 174.491 111.237 172.741C111.217 170.441 111.327 168.131 111.217 165.831C110.917 159.691 109.797 153.611 110.127 147.431C110.157 146.921 110.257 146.411 110.317 145.901C110.477 145.861 110.647 145.821 110.807 145.781C110.997 146.291 111.327 146.801 111.367 147.321C111.757 153.141 112.087 158.961 112.447 164.781C112.507 165.811 112.597 166.851 112.717 167.881C112.937 169.831 113.487 171.751 112.707 173.731C112.437 174.411 112.667 175.291 112.667 176.251C113.547 176.181 114.267 176.111 115.197 176.041C113.027 177.601 113.027 177.601 113.147 179.331C113.707 179.261 114.257 179.191 115.447 179.031C113.277 180.331 113.487 181.831 113.657 183.471C114.137 188.241 114.417 193.031 114.817 197.801C115.097 201.141 115.427 204.481 115.787 207.821C115.867 208.541 116.197 209.271 116.497 210.281Z" fill="black"/>
<path d="M53.4273 30.4611C53.9244 30.4611 54.3273 30.0582 54.3273 29.5611C54.3273 29.0641 53.9244 28.6611 53.4273 28.6611C52.9303 28.6611 52.5273 29.0641 52.5273 29.5611C52.5273 30.0582 52.9303 30.4611 53.4273 30.4611Z" fill="white"/>
<path d="M86.3573 33.4514C86.8543 33.4514 87.2573 33.0484 87.2573 32.5514C87.2573 32.0543 86.8543 31.6514 86.3573 31.6514C85.8602 31.6514 85.4573 32.0543 85.4573 32.5514C85.4573 33.0484 85.8602 33.4514 86.3573 33.4514Z" fill="white"/>
<path d="M58.3975 51.951C60.0575 51.511 62.2375 51.611 63.9175 51.941" stroke="white" stroke-miterlimit="10" stroke-linecap="round" stroke-linejoin="round"/>
<path d="M54.2473 166.041C53.3373 166.441 52.4173 166.851 51.5073 167.251C51.4273 167.081 51.3573 166.911 51.2773 166.751C52.1873 166.341 53.0973 165.931 54.0073 165.511C54.0873 165.681 54.1673 165.861 54.2473 166.041Z" fill="black"/>
<path d="M55.2174 158.201C59.0674 159.791 62.9074 161.381 66.7574 162.961C68.5874 163.711 70.3874 164.501 72.1374 165.421C73.8974 166.351 75.6474 167.281 77.4274 168.151C79.4974 169.161 81.5874 170.131 83.6674 171.091C84.3174 171.391 84.8874 170.421 84.2374 170.121C80.5374 168.411 76.8474 166.661 73.2574 164.741C69.6574 162.811 65.8374 161.361 62.0674 159.811C59.8874 158.911 57.7074 158.011 55.5274 157.111C54.8474 156.841 54.5574 157.931 55.2174 158.201Z" fill="#1D1E1C"/>
<path d="M73.1972 159.911C72.5972 160.651 71.9372 161.341 71.2172 161.971C71.0672 162.101 71.0772 162.371 71.2172 162.501C71.3772 162.641 71.5872 162.641 71.7472 162.501C72.4672 161.871 73.1272 161.181 73.7272 160.441C73.8472 160.291 73.8872 160.061 73.7272 159.911C73.5872 159.791 73.3272 159.751 73.1972 159.911Z" fill="#1D1E1C"/>
<path d="M75.9372 161.421C76.1972 161.491 76.4472 161.571 76.6772 161.691C76.7672 161.741 76.8872 161.781 76.9672 161.841C76.9872 161.861 77.0172 161.881 77.0372 161.911C77.0172 161.911 77.0072 161.891 77.0172 161.861C77.0072 161.871 76.9972 161.921 76.9872 161.941C76.8272 162.261 76.3872 162.391 76.0672 162.311C76.0672 162.551 76.0672 162.791 76.0672 163.031C76.2972 162.951 76.6072 163.011 76.7172 163.251C76.7472 163.311 76.7472 163.441 76.6972 163.531C76.6472 163.631 76.5772 163.711 76.4572 163.761C76.0872 163.901 75.6072 163.671 75.2672 163.531C74.9172 163.391 74.5572 163.221 74.2972 162.941C73.9672 162.591 73.4472 163.121 73.7672 163.471C74.1672 163.901 74.7372 164.131 75.2772 164.331C75.8572 164.551 76.5572 164.681 77.0672 164.241C77.4772 163.891 77.6072 163.251 77.3072 162.791C77.0072 162.321 76.3772 162.121 75.8572 162.301C75.5272 162.421 75.4772 162.931 75.8572 163.021C76.5572 163.201 77.3772 162.881 77.6772 162.191C78.0672 161.271 76.7772 160.871 76.1272 160.691C75.6772 160.571 75.4772 161.291 75.9372 161.421Z" fill="#1D1E1C"/>
<path d="M80.1573 163.381C80.4973 163.521 80.7773 163.791 80.9573 164.111C81.0073 164.211 81.1373 164.421 81.0873 164.531C81.0573 164.601 80.9173 164.651 80.8573 164.681C80.7673 164.731 80.6673 164.771 80.5673 164.801C79.7473 165.101 78.8073 165.091 78.0073 164.741C78.0073 164.961 78.0073 165.171 78.0073 165.391C78.1673 165.301 78.3873 165.431 78.5273 165.511C78.7773 165.641 79.0173 165.791 79.2673 165.931C79.7773 166.231 80.2773 166.531 80.7673 166.841C81.1773 167.101 81.5473 166.451 81.1473 166.191C80.5773 165.831 79.9973 165.481 79.4073 165.141C78.8873 164.841 78.2373 164.391 77.6373 164.741C77.4173 164.871 77.3773 165.271 77.6373 165.391C78.7673 165.891 80.0673 165.891 81.1773 165.351C81.4573 165.211 81.7273 165.021 81.8073 164.701C81.8873 164.391 81.7673 164.051 81.6173 163.781C81.3473 163.261 80.8773 162.891 80.3473 162.661C80.1573 162.581 79.9373 162.741 79.8873 162.921C79.8373 163.131 79.9673 163.301 80.1573 163.381Z" fill="#1D1E1C"/>
<path d="M67.4373 158.841C67.6173 158.831 67.8073 158.841 67.9873 158.861C68.0373 158.871 68.0373 158.871 67.9973 158.861C68.0173 158.861 68.0473 158.871 68.0673 158.871C68.1173 158.881 68.1673 158.891 68.2073 158.901C68.2873 158.921 68.3773 158.941 68.4573 158.961C68.5373 158.981 68.6173 159.011 68.6973 159.041C68.7473 159.061 68.7873 159.071 68.8373 159.091C68.8773 159.111 68.8773 159.111 68.8473 159.091C68.8673 159.101 68.8873 159.111 68.9173 159.121C69.0773 159.201 69.2373 159.291 69.3873 159.391C69.5473 159.501 69.8073 159.431 69.8973 159.261C69.9973 159.071 69.9373 158.861 69.7673 158.751C69.0873 158.301 68.2473 158.071 67.4373 158.101C67.2373 158.111 67.0573 158.271 67.0673 158.471C67.0673 158.661 67.2273 158.841 67.4373 158.841Z" fill="#1D1E1C"/>
<path d="M68.9874 157.641C68.9874 157.681 68.9774 157.731 68.9774 157.771C68.9774 157.821 68.9874 157.701 68.9774 157.761C68.9774 157.781 68.9674 157.801 68.9674 157.821C68.9574 157.901 68.9374 157.981 68.9174 158.061C68.8974 158.141 68.8674 158.221 68.8374 158.291C68.8274 158.311 68.8274 158.341 68.8074 158.361C68.8174 158.341 68.8274 158.311 68.8074 158.351C68.7874 158.391 68.7674 158.431 68.7474 158.471C68.6774 158.621 68.5874 158.761 68.4874 158.891C68.4574 158.931 68.5274 158.841 68.4874 158.881C68.4774 158.891 68.4674 158.911 68.4474 158.931C68.4174 158.961 68.3874 159.001 68.3574 159.031C68.2974 159.101 68.2274 159.161 68.1674 159.221C68.0174 159.351 68.0274 159.621 68.1674 159.751C68.3274 159.891 68.5374 159.891 68.6974 159.751C69.2974 159.211 69.6674 158.451 69.7174 157.641C69.7274 157.441 69.5374 157.261 69.3474 157.271C69.1474 157.271 68.9974 157.431 68.9874 157.641Z" fill="#1D1E1C"/>
<path d="M73.8973 156.091C74.7173 156.421 75.5373 156.741 76.3573 157.071C76.5373 157.141 76.7773 156.991 76.8173 156.811C76.8673 156.591 76.7473 156.431 76.5573 156.351C75.7373 156.021 74.9173 155.701 74.0973 155.371C73.9173 155.301 73.6773 155.451 73.6373 155.631C73.5873 155.851 73.7073 156.021 73.8973 156.091Z" fill="#1D1E1C"/>
<path d="M79.9872 156.431C79.4272 157.081 78.8572 157.711 78.2672 158.331C78.1372 158.471 78.1172 158.721 78.2672 158.861C78.4172 158.991 78.6472 159.011 78.7972 158.861C79.3872 158.241 79.9572 157.611 80.5172 156.961C80.6472 156.811 80.6772 156.571 80.5172 156.431C80.3772 156.301 80.1272 156.271 79.9872 156.431Z" fill="#1D1E1C"/>
<path d="M84.1973 157.661C83.8273 157.651 83.4673 157.751 83.1273 157.891C82.8473 158.001 82.5673 158.101 82.3173 158.271C82.0473 158.441 81.8173 158.681 81.7273 158.991C81.6373 159.321 81.7373 159.661 81.8473 159.971C82.0673 160.531 82.4873 161.111 83.1573 161.081C83.4973 161.061 83.8173 160.911 84.0373 160.641C84.2673 160.361 84.3473 160.011 84.2873 159.661C84.1473 158.831 83.3173 158.431 82.5673 158.351C82.3673 158.331 82.1973 158.541 82.1973 158.721C82.1973 158.941 82.3673 159.071 82.5673 159.091C82.6473 159.101 82.6173 159.101 82.5973 159.091C82.6273 159.091 82.6573 159.101 82.6773 159.111C82.7373 159.121 82.7873 159.131 82.8473 159.151C82.9773 159.191 83.0373 159.211 83.1473 159.281C83.2473 159.341 83.2873 159.371 83.3673 159.451C83.3873 159.471 83.4073 159.491 83.4273 159.511C83.4073 159.481 83.4373 159.531 83.4473 159.531C83.4573 159.551 83.4773 159.581 83.4873 159.601C83.4873 159.601 83.5373 159.701 83.5173 159.661C83.5373 159.711 83.5473 159.761 83.5573 159.811C83.5473 159.761 83.5573 159.891 83.5573 159.911C83.5573 159.921 83.5473 159.981 83.5573 159.931C83.5573 159.961 83.5473 159.981 83.5373 160.011C83.5373 160.021 83.5173 160.081 83.5373 160.031C83.5273 160.061 83.5073 160.091 83.4973 160.111C83.4873 160.121 83.4473 160.181 83.4773 160.141C83.4573 160.161 83.4473 160.181 83.4273 160.191C83.4073 160.211 83.3873 160.231 83.3673 160.241C83.3873 160.231 83.4073 160.221 83.3473 160.251C83.3273 160.261 83.3073 160.281 83.2773 160.291C83.2673 160.291 83.2173 160.311 83.2673 160.301C83.2473 160.311 83.2173 160.311 83.1973 160.321C83.1873 160.321 83.1773 160.331 83.1573 160.331C83.1873 160.331 83.1873 160.331 83.1673 160.331C83.1373 160.331 83.1173 160.331 83.0873 160.331C83.0273 160.331 83.1373 160.341 83.0773 160.331C83.0573 160.331 83.0273 160.321 83.0073 160.311C82.9973 160.311 82.9273 160.281 82.9673 160.301C83.0073 160.321 82.9473 160.291 82.9373 160.281C82.9173 160.271 82.8973 160.261 82.8773 160.241C82.8273 160.211 82.9173 160.271 82.8673 160.241C82.8473 160.221 82.8273 160.201 82.8073 160.181C82.7873 160.161 82.7673 160.141 82.7473 160.121C82.7073 160.081 82.7773 160.161 82.7373 160.111C82.7073 160.071 82.6873 160.031 82.6573 159.991C82.6373 159.951 82.6073 159.911 82.5873 159.861C82.5773 159.841 82.5673 159.821 82.5573 159.791C82.5373 159.751 82.5673 159.821 82.5473 159.761C82.5073 159.661 82.4773 159.571 82.4473 159.471C82.4373 159.441 82.4173 159.351 82.4173 159.341C82.4173 159.311 82.4173 159.281 82.4173 159.251C82.4173 159.101 82.4173 159.311 82.4273 159.191C82.4273 159.181 82.4473 159.121 82.4273 159.181C82.4373 159.161 82.4473 159.141 82.4573 159.121C82.4673 159.101 82.4773 159.081 82.4973 159.061C82.4573 159.111 82.4973 159.061 82.5073 159.061C82.5373 159.031 82.5773 158.991 82.6073 158.961C82.6673 158.911 82.6273 158.941 82.6173 158.951C82.6473 158.931 82.6773 158.911 82.7073 158.891C82.8073 158.831 82.9073 158.781 83.0073 158.731C83.0273 158.721 83.0573 158.711 83.0773 158.701C83.0173 158.721 83.1273 158.681 83.1273 158.681C83.1973 158.651 83.2573 158.631 83.3273 158.601C83.6073 158.491 83.8873 158.401 84.1773 158.411C84.3773 158.411 84.5473 158.231 84.5473 158.041C84.5773 157.831 84.3973 157.671 84.1973 157.661Z" fill="#1D1E1C"/>
<path d="M83.8074 150.801C83.4574 151.121 83.1074 151.441 82.7674 151.781C82.5974 151.951 82.4274 152.111 82.2674 152.281C82.1074 152.451 81.8774 152.631 81.7974 152.851C81.6174 153.411 82.3474 153.551 82.7274 153.641C83.1974 153.751 83.6574 153.751 84.0974 153.561C83.9674 153.561 83.8474 153.561 83.7174 153.561C83.7274 153.571 83.7374 153.571 83.7474 153.581C83.7074 153.541 83.6574 153.491 83.6174 153.451C83.6274 153.461 83.6274 153.471 83.6374 153.481C83.6174 153.421 83.6074 153.351 83.5874 153.291C83.5874 153.291 83.6674 153.141 83.5674 153.321C83.5374 153.371 83.5074 153.421 83.4774 153.471C83.4074 153.581 83.3474 153.691 83.2774 153.811C83.1474 154.031 83.0174 154.261 82.8874 154.481C82.6474 154.901 83.2874 155.271 83.5374 154.861C83.7274 154.531 83.9174 154.211 84.1074 153.881C84.2674 153.601 84.5074 153.181 84.1274 152.941C83.9274 152.821 83.7774 152.911 83.5874 152.961C83.4674 152.991 83.3374 152.991 83.2174 152.981C83.0674 152.971 82.9174 152.931 82.7774 152.891C82.6974 152.871 82.6174 152.841 82.5374 152.821C82.4974 152.811 82.4574 152.791 82.4174 152.781C82.3374 152.751 82.3374 152.751 82.4174 152.791C82.4474 152.851 82.4774 152.901 82.5174 152.961C82.5174 152.941 82.5074 152.931 82.5074 152.911C82.5074 152.981 82.5074 153.041 82.5074 153.111C82.4874 153.171 82.5374 153.091 82.5574 153.061C82.5974 153.021 82.6374 152.981 82.6774 152.941C82.7574 152.861 82.8374 152.781 82.9174 152.701C83.0674 152.551 83.2174 152.401 83.3774 152.251C83.6974 151.941 84.0174 151.641 84.3474 151.341C84.6974 151.011 84.1674 150.481 83.8074 150.801Z" fill="#1D1E1C"/>
<path d="M86.7773 152.211C86.9773 152.221 87.1672 152.261 87.3472 152.341C87.4572 152.391 87.7772 152.561 87.7872 152.641C87.7872 152.571 87.7872 152.511 87.7872 152.441C87.8272 152.401 87.8172 152.401 87.7672 152.461C87.7372 152.491 87.7072 152.531 87.6772 152.561C87.6172 152.631 87.5472 152.691 87.4772 152.751C87.3572 152.861 87.2372 152.971 87.1272 153.081C86.8872 153.311 86.6572 153.561 86.4672 153.841C86.1072 154.381 85.8972 154.991 85.8172 155.631C85.7972 155.831 86.0072 156.001 86.1872 156.001C86.4072 156.001 86.5373 155.831 86.5573 155.631C86.6073 155.191 86.7672 154.751 87.0072 154.371C87.2672 153.941 87.6372 153.611 88.0072 153.271C88.1772 153.111 88.4272 152.911 88.5072 152.671C88.6072 152.361 88.3872 152.121 88.1572 151.951C87.7572 151.631 87.2873 151.471 86.7773 151.441C86.2873 151.441 86.2973 152.191 86.7773 152.211Z" fill="#1D1E1C"/>
<path d="M85.7373 154.001C86.1373 154.011 86.4473 154.061 86.8473 154.171C86.9373 154.201 87.0273 154.231 87.1173 154.261C87.1673 154.281 87.2173 154.301 87.2673 154.321C87.2773 154.321 87.3773 154.361 87.3273 154.341C87.5173 154.421 87.6973 154.511 87.8673 154.611C88.0373 154.711 88.2873 154.651 88.3773 154.481C88.4673 154.301 88.4273 154.071 88.2473 153.971C87.4773 153.521 86.6073 153.281 85.7273 153.251C85.5273 153.241 85.3473 153.431 85.3573 153.621C85.3773 153.841 85.5273 154.001 85.7373 154.001Z" fill="#1D1E1C"/>
<path d="M77.4873 150.401C77.6873 150.431 77.8773 150.471 78.0773 150.521C78.1773 150.551 78.2673 150.581 78.3573 150.611C78.4073 150.631 78.4473 150.641 78.4973 150.661C78.5173 150.671 78.6073 150.711 78.5873 150.701C78.5673 150.691 78.6673 150.731 78.6773 150.741C78.7173 150.761 78.7673 150.781 78.8073 150.801C78.8973 150.841 78.9773 150.891 79.0673 150.941C79.1473 150.991 79.2373 151.041 79.3173 151.101C79.3573 151.131 79.3973 151.161 79.4373 151.181C79.4573 151.191 79.4773 151.211 79.4973 151.221C79.4673 151.201 79.4773 151.201 79.5073 151.231C79.6573 151.351 79.8873 151.391 80.0373 151.231C80.1573 151.091 80.1973 150.831 80.0373 150.701C79.3573 150.161 78.5473 149.791 77.6873 149.661C77.4973 149.631 77.2773 149.711 77.2273 149.921C77.1873 150.121 77.2773 150.371 77.4873 150.401Z" fill="#1D1E1C"/>
<path d="M79.6074 149.091C78.7774 149.581 78.0774 150.281 77.6074 151.121C77.5074 151.291 77.5574 151.541 77.7374 151.631C77.9174 151.721 78.1474 151.681 78.2474 151.501C78.3574 151.311 78.4674 151.131 78.5974 150.961C78.6174 150.931 78.6374 150.911 78.6074 150.951C78.6274 150.931 78.6474 150.901 78.6674 150.881C78.6974 150.841 78.7274 150.801 78.7674 150.761C78.8374 150.681 78.9174 150.591 78.9974 150.511C79.1474 150.361 79.3074 150.211 79.4774 150.081C79.5574 150.021 79.4174 150.121 79.4974 150.061C79.5174 150.041 79.5374 150.031 79.5574 150.011C79.6074 149.981 79.6474 149.941 79.6974 149.911C79.7874 149.851 79.8874 149.791 79.9874 149.731C80.1574 149.631 80.2274 149.391 80.1174 149.221C80.0174 149.051 79.7874 148.981 79.6074 149.091Z" fill="#1D1E1C"/>
<path d="M80.8172 146.121C80.9772 146.121 81.1272 146.121 81.2872 146.131C81.3672 146.141 81.4572 146.141 81.5372 146.151C81.5372 146.151 81.6572 146.161 81.5772 146.151C81.6172 146.161 81.6572 146.161 81.6972 146.171C82.0072 146.221 82.3172 146.301 82.6172 146.401C82.8072 146.461 83.0372 146.331 83.0772 146.141C83.1272 145.931 83.0172 145.751 82.8172 145.681C82.1772 145.461 81.4872 145.361 80.8172 145.371C80.6172 145.371 80.4372 145.541 80.4472 145.741C80.4472 145.941 80.6072 146.121 80.8172 146.121Z" fill="#1D1E1C"/>
<path d="M82.1073 144.671C81.6773 145.431 81.2773 146.201 80.9073 147.001C80.8273 147.181 80.8473 147.411 81.0373 147.511C81.1973 147.601 81.4573 147.571 81.5473 147.381C81.9073 146.591 82.3073 145.811 82.7473 145.051C82.8473 144.881 82.7973 144.631 82.6173 144.541C82.4473 144.441 82.2173 144.491 82.1073 144.671Z" fill="#1D1E1C"/>
<path d="M86.2873 146.391C86.3673 146.371 86.2373 146.381 86.3173 146.391C86.3473 146.391 86.3773 146.391 86.4173 146.391C86.3273 146.381 86.4273 146.391 86.4473 146.401C86.4573 146.401 86.5673 146.441 86.5273 146.421C86.4873 146.401 86.5773 146.451 86.5873 146.451C86.5973 146.461 86.6773 146.511 86.6473 146.481C86.6073 146.461 86.6873 146.511 86.6973 146.521C86.7073 146.531 86.7673 146.601 86.7373 146.561C86.7073 146.531 86.7673 146.601 86.7673 146.611C86.7773 146.631 86.8173 146.731 86.7873 146.641C86.7973 146.671 86.8073 146.701 86.8073 146.731C86.7873 146.671 86.7973 146.711 86.8073 146.751C86.8173 146.821 86.8173 146.701 86.8073 146.781C86.7973 146.861 86.8173 146.751 86.8273 146.771C86.8373 146.781 86.7273 146.841 86.7973 146.801C86.7673 146.821 86.7373 146.841 86.7073 146.851C86.3873 147.021 86.0573 147.171 85.7273 147.331C85.6473 147.371 85.5573 147.411 85.4773 147.451C85.4373 147.471 85.3973 147.491 85.3573 147.511C85.3673 147.511 85.2473 147.561 85.2973 147.541C85.2673 147.551 85.2473 147.561 85.2173 147.571C85.1773 147.581 85.1673 147.581 85.1873 147.581C85.2073 147.581 85.1973 147.581 85.1573 147.581C85.1773 147.581 85.1873 147.581 85.2073 147.591C85.2273 147.591 85.2373 147.601 85.2473 147.621C85.2273 147.591 85.2173 147.591 85.2373 147.611C85.2673 147.671 85.2973 147.751 85.2573 147.821C85.1173 147.881 84.9773 147.931 84.8373 147.991C84.9773 148.021 85.1273 148.051 85.2673 148.091C85.3273 148.111 85.3973 148.131 85.4573 148.151C85.4973 148.161 85.5273 148.181 85.5673 148.191C85.5273 148.171 85.5973 148.201 85.6073 148.211C85.7373 148.271 85.8573 148.331 85.9773 148.401C86.0373 148.431 86.0873 148.471 86.1473 148.511C86.1773 148.531 86.2073 148.561 86.2473 148.581C86.3073 148.621 86.2373 148.571 86.2973 148.621C86.4473 148.741 86.6773 148.781 86.8273 148.621C86.9473 148.481 86.9873 148.221 86.8273 148.091C86.3073 147.681 85.7073 147.391 85.0473 147.271C84.8773 147.241 84.7173 147.291 84.6273 147.441C84.4873 147.651 84.5473 147.921 84.7073 148.111C84.8773 148.301 85.1373 148.351 85.3773 148.311C85.5873 148.271 85.7773 148.151 85.9673 148.061C86.1573 147.971 86.3373 147.881 86.5273 147.781C86.8873 147.601 87.3773 147.461 87.5273 147.041C87.6573 146.681 87.5173 146.281 87.2673 146.011C86.9773 145.691 86.5373 145.561 86.1173 145.651C85.9273 145.691 85.7973 145.931 85.8573 146.111C85.8873 146.341 86.0773 146.431 86.2873 146.391Z" fill="#1D1E1C"/>
<path d="M89.7573 147.081C89.0673 147.661 88.4673 148.361 87.9973 149.131C87.8973 149.301 87.9572 149.551 88.1272 149.641C88.3072 149.741 88.5273 149.681 88.6373 149.511C88.7473 149.331 88.8672 149.151 88.9872 148.971C89.0172 148.931 89.0472 148.891 89.0772 148.851C89.0972 148.831 89.1072 148.801 89.1272 148.781C89.0972 148.821 89.1273 148.781 89.1373 148.761C89.2073 148.681 89.2772 148.591 89.3472 148.511C89.6272 148.181 89.9373 147.881 90.2773 147.601C90.4273 147.471 90.4173 147.201 90.2773 147.071C90.1273 146.941 89.9173 146.951 89.7573 147.081Z" fill="#1D1E1C"/>
<path d="M86.7472 142.461C86.9172 142.501 87.0872 142.551 87.2472 142.621C87.2172 142.611 87.1872 142.591 87.1572 142.581C87.3972 142.681 87.6272 142.811 87.8372 142.971C87.9072 143.021 88.0472 143.031 88.1272 143.011C88.2172 142.991 88.3072 142.921 88.3472 142.841C88.3972 142.751 88.4172 142.651 88.3872 142.551C88.3572 142.451 88.2972 142.391 88.2172 142.331C87.8472 142.051 87.4072 141.841 86.9472 141.741C86.7572 141.701 86.5372 141.801 86.4872 142.001C86.4472 142.191 86.5472 142.411 86.7472 142.461Z" fill="#1D1E1C"/>
<path d="M90.5072 141.931C90.2572 142.271 90.0072 142.611 89.7572 142.951C89.7072 143.021 89.6972 143.151 89.7172 143.241C89.7372 143.331 89.8072 143.421 89.8872 143.461C89.9772 143.511 90.0772 143.531 90.1772 143.501C90.2772 143.471 90.3372 143.411 90.3972 143.331C90.6472 142.991 90.8972 142.651 91.1472 142.311C91.1972 142.241 91.2072 142.111 91.1872 142.021C91.1672 141.931 91.0972 141.841 91.0172 141.801C90.9272 141.751 90.8272 141.731 90.7272 141.761C90.6372 141.791 90.5672 141.851 90.5072 141.931Z" fill="#1D1E1C"/>
<path d="M89.9074 143.771C90.1174 143.821 90.3274 143.811 90.5374 143.791C90.7274 143.771 90.9174 143.741 91.0574 143.791C91.0774 143.801 91.0674 143.791 91.0974 143.811C91.1274 143.841 91.1674 143.871 91.1974 143.911C91.2474 143.971 91.2974 144.061 91.3374 144.131C91.4274 144.281 91.5174 144.481 91.5374 144.631C91.5574 144.791 91.5374 144.921 91.4374 145.051C91.4774 145.001 91.3974 145.081 91.3874 145.091C91.3774 145.101 91.3574 145.111 91.3474 145.131C91.3574 145.121 91.3874 145.101 91.3474 145.131C91.3174 145.151 91.2874 145.171 91.2574 145.191C91.2374 145.201 91.2174 145.211 91.1874 145.221C91.1274 145.251 91.2274 145.211 91.1774 145.231C90.8574 145.341 90.6074 145.341 90.2674 145.201C89.8674 145.041 89.5374 144.731 89.2174 144.441C89.0674 144.301 88.8374 144.291 88.6874 144.441C88.5474 144.581 88.5374 144.831 88.6874 144.971C89.0674 145.321 89.4574 145.661 89.9374 145.871C90.3874 146.061 90.8974 146.121 91.3574 145.961C91.8574 145.791 92.2274 145.401 92.2774 144.861C92.3374 144.321 92.0374 143.741 91.6874 143.351C91.4774 143.111 91.1774 143.021 90.8574 143.021C90.7274 143.021 90.5874 143.041 90.4574 143.051C90.3374 143.061 90.1774 143.061 90.0974 143.051C89.8974 143.011 89.6974 143.111 89.6374 143.311C89.5974 143.501 89.7074 143.721 89.9074 143.771Z" fill="#1D1E1C"/>
<path d="M91.1072 142.671C91.6172 142.721 92.1372 142.771 92.6472 142.821C92.8472 142.841 93.0272 142.631 93.0172 142.451C93.0072 142.231 92.8572 142.101 92.6472 142.081C92.1372 142.031 91.6172 141.981 91.1072 141.931C90.9072 141.911 90.7272 142.121 90.7372 142.301C90.7472 142.521 90.8972 142.651 91.1072 142.671Z" fill="#1D1E1C"/>
<path d="M66.8876 169.751C66.8776 169.721 66.8776 169.661 66.8576 169.631C66.8476 169.621 66.8676 169.611 66.8476 169.651C66.8076 169.701 66.7776 169.761 66.7376 169.811C66.6676 169.901 66.5976 170.001 66.5276 170.091C66.3776 170.291 66.2076 170.491 66.0476 170.681C65.7076 171.081 65.3576 171.451 64.9776 171.821C64.8376 171.961 64.8376 172.211 64.9776 172.351C65.1176 172.491 65.3576 172.491 65.5076 172.351C65.9376 171.931 66.3376 171.491 66.7276 171.041C66.9276 170.801 67.1176 170.561 67.3076 170.311C67.5176 170.031 67.7176 169.741 67.5376 169.381C67.4476 169.201 67.1876 169.151 67.0276 169.251C66.8376 169.351 66.7976 169.571 66.8876 169.751Z" fill="#1D1E1C"/>
<path d="M69.3473 170.721C69.6973 170.791 70.0073 170.911 70.3173 171.081C70.3973 171.131 70.4773 171.181 70.5573 171.231C70.5773 171.241 70.6473 171.311 70.6773 171.311C70.6273 171.281 70.6273 171.231 70.6673 171.161C70.6973 171.011 70.6973 170.981 70.6373 171.041C70.5673 171.081 70.4973 171.181 70.4373 171.231C70.3673 171.301 70.2973 171.371 70.2173 171.431C69.6573 171.941 69.0573 172.401 68.4173 172.801C68.2473 172.911 68.1773 173.131 68.2873 173.311C68.3873 173.481 68.6273 173.551 68.7973 173.441C69.5873 172.951 70.3373 172.371 71.0073 171.721C71.1973 171.531 71.4273 171.321 71.3473 171.031C71.2873 170.781 71.0173 170.631 70.8073 170.501C70.4173 170.261 69.9873 170.081 69.5373 169.991C69.3373 169.951 69.1373 170.051 69.0773 170.251C69.0373 170.441 69.1573 170.671 69.3473 170.721Z" fill="#1D1E1C"/>
<path d="M69.1774 172.231C69.4874 172.411 69.7874 172.611 70.0674 172.821C70.0374 172.801 70.0174 172.781 69.9874 172.761C70.0174 172.791 70.0574 172.811 70.0874 172.841C70.1674 172.901 70.2474 172.951 70.3474 172.951C70.4374 172.951 70.5474 172.911 70.6074 172.841C70.6774 172.771 70.7174 172.681 70.7174 172.581C70.7174 172.491 70.6874 172.381 70.6074 172.321C70.2674 172.051 69.9174 171.801 69.5374 171.591C69.3674 171.491 69.1174 171.541 69.0274 171.721C68.9574 171.901 68.9974 172.131 69.1774 172.231Z" fill="#1D1E1C"/>
<path d="M73.9973 172.091C73.4773 171.891 72.6973 171.901 72.2673 172.321C71.7873 172.781 72.1673 173.481 72.5673 173.851C72.9673 174.231 73.6073 174.541 74.1673 174.341C74.6873 174.151 74.9073 173.591 75.0273 173.101C75.1173 172.761 74.7673 172.551 74.4773 172.681C74.2373 172.791 74.1573 173.121 74.0673 173.341C73.9673 173.581 73.8673 173.821 73.7373 174.051C73.5173 174.471 73.1873 174.881 72.7173 175.021C72.3073 175.141 71.9473 174.941 71.6273 174.701C71.2673 174.421 70.9373 174.101 70.5173 173.921C70.3273 173.841 70.1173 173.861 70.0073 174.051C69.9173 174.211 69.9573 174.481 70.1373 174.561C70.5873 174.751 70.9273 175.101 71.3173 175.391C71.7473 175.711 72.2573 175.881 72.7873 175.771C73.3573 175.661 73.8273 175.261 74.1573 174.801C74.3173 174.571 74.4473 174.321 74.5673 174.071C74.6273 173.931 74.6873 173.791 74.7473 173.641C74.7773 173.581 74.7973 173.511 74.8273 173.451C74.8373 173.421 74.8573 173.391 74.8673 173.361C74.9073 173.281 74.9073 173.271 74.8573 173.321C74.6773 173.181 74.4873 173.041 74.3073 172.901C74.2473 173.121 74.1873 173.441 73.9973 173.591C73.7673 173.771 73.3773 173.541 73.1873 173.401C73.0673 173.311 72.9573 173.201 72.8873 173.071C72.8573 173.021 72.7973 172.941 72.8073 172.871C72.8173 172.811 72.8073 172.861 72.8273 172.841C72.9073 172.741 73.1573 172.721 73.2773 172.721C73.4673 172.711 73.6373 172.751 73.8173 172.821C74.0073 172.891 74.2273 172.741 74.2773 172.561C74.3173 172.341 74.1873 172.171 73.9973 172.091Z" fill="#1D1E1C"/>
<path d="M70.6474 169.311C67.8774 167.961 64.1174 167.081 61.6574 169.551C60.6674 170.541 60.1974 172.041 60.5074 173.421C60.8274 174.811 61.9974 175.711 63.2874 176.171C64.8574 176.721 66.6274 176.811 68.2674 176.921C70.0674 177.051 71.9274 177.171 73.7074 176.841C75.2374 176.551 76.6674 175.811 77.5574 174.491C78.3774 173.271 78.4874 171.741 77.7174 170.471C76.8074 168.971 75.0974 168.071 73.4774 167.561C71.6574 166.991 69.7174 166.871 67.8174 166.911C67.3374 166.921 67.3374 167.671 67.8174 167.661C70.6174 167.611 73.8174 167.861 76.0674 169.731C77.0874 170.581 77.7874 171.801 77.3774 173.151C76.9674 174.511 75.7574 175.471 74.4474 175.891C73.0074 176.351 71.4674 176.331 69.9774 176.271C68.3974 176.211 66.7974 176.111 65.2274 175.871C64.0174 175.681 62.6674 175.371 61.8274 174.401C60.9774 173.431 60.9974 171.971 61.5974 170.881C62.3274 169.561 63.8374 168.871 65.2874 168.751C67.0274 168.611 68.7174 169.221 70.2674 169.971C70.7074 170.171 71.0874 169.521 70.6474 169.311Z" fill="#E9574A"/>
<path d="M53.9075 159.501C53.9075 159.531 53.8975 159.561 53.8975 159.591C53.8975 159.561 53.9075 159.521 53.9075 159.491C53.8875 159.631 53.8475 159.781 53.7975 159.911C53.8075 159.881 53.8275 159.851 53.8375 159.821C53.8175 159.861 53.8075 159.891 53.7875 159.931C53.7375 160.021 53.7175 160.121 53.7475 160.221C53.7675 160.311 53.8375 160.401 53.9175 160.441C54.0075 160.491 54.1075 160.511 54.2075 160.481C54.2975 160.451 54.3875 160.391 54.4275 160.311C54.4875 160.191 54.5475 160.051 54.5875 159.921C54.6275 159.781 54.6475 159.641 54.6575 159.501C54.6675 159.411 54.6075 159.301 54.5475 159.241C54.4875 159.181 54.3775 159.131 54.2875 159.131C54.1875 159.131 54.0875 159.171 54.0275 159.241C54.0075 159.271 53.9875 159.291 53.9675 159.321C53.9275 159.371 53.9075 159.431 53.9075 159.501Z" fill="#1D1E1C"/>
<path d="M55.7175 160.041C55.7275 160.041 55.8075 160.011 55.7575 160.021C55.7275 160.021 55.7275 160.021 55.7475 160.021C55.7775 160.021 55.7675 160.021 55.7175 160.011C55.7175 160.011 55.7675 160.031 55.7775 160.031C55.7275 160.011 55.7475 160.021 55.7875 160.041C55.8075 160.051 55.8475 160.091 55.7975 160.051C55.8175 160.071 55.8275 160.081 55.8475 160.091C55.8675 160.111 55.8875 160.131 55.9075 160.151C55.9075 160.161 55.9575 160.211 55.9275 160.171C55.8975 160.131 55.9575 160.211 55.9575 160.221C55.9775 160.251 55.9875 160.271 56.0075 160.301C56.0075 160.311 56.0475 160.371 56.0275 160.341C56.0075 160.301 56.0375 160.391 56.0475 160.401C56.0375 160.331 56.0375 160.431 56.0475 160.391C56.0575 160.331 56.0375 160.451 56.0475 160.391C56.0575 160.341 56.0275 160.421 56.0275 160.431C55.9975 160.491 56.0475 160.421 56.0175 160.441C55.9375 160.501 55.8775 160.571 55.7975 160.631C55.7575 160.661 55.7175 160.701 55.6675 160.731C55.7175 160.691 55.6475 160.741 55.6475 160.751C55.6275 160.771 55.5975 160.791 55.5775 160.801C55.4875 160.861 55.3975 160.921 55.3075 160.981C55.2575 161.011 55.2075 161.041 55.1475 161.071C55.1275 161.081 55.1075 161.091 55.0875 161.101C54.9875 161.151 55.1575 161.081 55.0475 161.121C54.8675 161.191 54.7575 161.331 54.7775 161.531C54.7975 161.711 54.9575 161.861 55.1475 161.851C55.2575 161.851 55.3575 161.851 55.4675 161.851C55.4875 161.851 55.5175 161.861 55.5375 161.861C55.5975 161.861 55.4875 161.851 55.5475 161.861C55.6075 161.871 55.6575 161.881 55.7175 161.891C55.8175 161.911 55.9075 161.941 56.0075 161.971C56.0275 161.981 56.0575 161.991 56.0775 162.001C56.1875 162.041 56.0475 161.981 56.1075 162.011C56.1575 162.031 56.2075 162.061 56.2575 162.081C56.4275 162.171 56.6675 162.131 56.7675 161.951C56.8575 161.781 56.8175 161.531 56.6375 161.441C56.1775 161.201 55.6675 161.081 55.1475 161.101C55.1775 161.341 55.2175 161.591 55.2475 161.831C55.5475 161.721 55.8175 161.551 56.0775 161.361C56.3275 161.171 56.6175 160.981 56.7475 160.671C56.9075 160.291 56.7075 159.921 56.4575 159.641C56.2375 159.391 55.8675 159.181 55.5375 159.311C55.3575 159.381 55.2075 159.561 55.2775 159.771C55.3075 159.951 55.5175 160.121 55.7175 160.041Z" fill="#1D1E1C"/>
<path d="M53.4074 162.481C53.4674 162.481 53.5174 162.481 53.5674 162.481C53.6374 162.481 53.5174 162.471 53.5674 162.481C53.5874 162.491 53.6074 162.491 53.6374 162.501C53.7174 162.521 53.5774 162.461 53.6474 162.501C53.6574 162.511 53.6674 162.511 53.6774 162.521C53.6974 162.541 53.6874 162.531 53.6474 162.501L53.6874 162.541C53.7074 162.561 53.6974 162.551 53.6674 162.511C53.6674 162.521 53.6774 162.521 53.6774 162.531C53.6874 162.561 53.6974 162.561 53.6774 162.531C53.6674 162.501 53.6674 162.501 53.6774 162.531C53.6874 162.561 53.6874 162.561 53.6774 162.531C53.6774 162.501 53.6774 162.501 53.6774 162.531C53.6774 162.601 53.6974 162.471 53.6774 162.511C53.6474 162.581 53.6774 162.501 53.6874 162.501C53.6774 162.501 53.6574 162.551 53.6574 162.561C53.6174 162.631 53.7174 162.511 53.6574 162.561C53.6274 162.591 53.5974 162.621 53.5574 162.651C53.5174 162.691 53.5374 162.661 53.5674 162.651C53.5474 162.661 53.5274 162.681 53.5074 162.691C53.4574 162.721 53.4174 162.751 53.3674 162.791C53.2674 162.861 53.1674 162.921 53.0774 162.991C52.8774 163.131 52.6774 163.261 52.4774 163.401C52.3474 163.491 52.2474 163.661 52.3074 163.821C52.3574 163.991 52.4974 164.081 52.6674 164.091C52.9074 164.111 53.1574 164.121 53.3974 164.111C53.5974 164.101 53.7774 163.941 53.7674 163.741C53.7574 163.551 53.6074 163.361 53.3974 163.371C53.1574 163.381 52.9074 163.381 52.6674 163.351C52.7274 163.581 52.7974 163.811 52.8574 164.051C53.0974 163.891 53.3374 163.721 53.5774 163.561C53.8074 163.401 54.0774 163.251 54.2574 163.021C54.4774 162.741 54.4974 162.371 54.2774 162.091C54.0674 161.821 53.7374 161.721 53.4074 161.741C53.2174 161.751 53.0274 161.901 53.0374 162.111C53.0474 162.301 53.1974 162.491 53.4074 162.481Z" fill="#1D1E1C"/>
<path d="M55.4874 163.161C55.5274 163.161 55.5574 163.161 55.5974 163.161C55.6574 163.161 55.6174 163.171 55.5874 163.161C55.5974 163.171 55.6174 163.171 55.6374 163.171C55.6474 163.171 55.7174 163.201 55.6574 163.171C55.6074 163.151 55.6574 163.171 55.6674 163.181C55.7074 163.201 55.6174 163.121 55.6574 163.171C55.6474 163.151 55.6174 163.111 55.6374 163.151C55.6174 163.101 55.6174 163.091 55.6174 163.121C55.6274 163.141 55.6274 163.131 55.6174 163.101C55.6174 163.041 55.6174 163.101 55.6174 163.111C55.6274 163.151 55.6374 163.031 55.6174 163.101C55.6174 163.121 55.6074 163.131 55.6074 163.151C55.5874 163.231 55.6374 163.111 55.6074 163.151C55.5974 163.171 55.5874 163.191 55.5774 163.211C55.5674 163.231 55.5574 163.241 55.5474 163.261C55.5374 163.271 55.4974 163.331 55.5274 163.291C55.5574 163.251 55.5174 163.301 55.5174 163.301C55.5074 163.321 55.4874 163.331 55.4674 163.351C55.4374 163.381 55.4074 163.411 55.3774 163.441C55.3174 163.501 55.2574 163.551 55.1974 163.611C55.1574 163.641 55.2474 163.571 55.2074 163.601C55.1874 163.611 55.1674 163.631 55.1474 163.641C55.1174 163.661 55.0774 163.691 55.0474 163.711C54.9774 163.761 54.8974 163.801 54.8174 163.841C54.6874 163.901 54.6174 164.081 54.6374 164.211C54.6574 164.361 54.7574 164.481 54.9074 164.521C55.2474 164.631 55.5874 164.731 55.9274 164.841C56.1174 164.901 56.3474 164.771 56.3874 164.581C56.4374 164.381 56.3274 164.181 56.1274 164.121C55.7874 164.011 55.4474 163.911 55.1074 163.801C55.1374 164.031 55.1674 164.261 55.1974 164.481C55.4074 164.381 55.5974 164.251 55.7774 164.091C55.9474 163.941 56.1274 163.761 56.2374 163.561C56.3774 163.291 56.4174 162.971 56.2174 162.711C56.0374 162.481 55.7574 162.421 55.4874 162.431C55.2874 162.431 55.1074 162.601 55.1174 162.801C55.1174 162.981 55.2774 163.161 55.4874 163.161Z" fill="#1D1E1C"/>
<path d="M51.9073 164.941C53.3773 165.711 54.9573 166.261 56.5873 166.571C57.0573 166.661 57.2573 165.941 56.7873 165.851C55.2173 165.561 53.6973 165.04 52.2873 164.3C51.8573 164.07 51.4773 164.721 51.9073 164.941Z" fill="#1D1E1C"/>
<path d="M51.8875 166.221C51.8675 166.321 51.8475 166.421 51.8075 166.521C51.8075 166.531 51.7975 166.541 51.7975 166.551C51.7975 166.551 51.8275 166.481 51.8075 166.521C51.7975 166.541 51.7875 166.571 51.7775 166.591C51.7475 166.641 51.7275 166.691 51.6975 166.741C51.5975 166.921 51.4775 167.101 51.3775 167.281C51.3275 167.371 51.2775 167.461 51.2375 167.561C51.1875 167.681 51.1475 167.801 51.1875 167.931C51.2175 168.051 51.3075 168.151 51.4075 168.201C51.6375 168.321 51.9375 168.361 52.1975 168.361C52.5175 168.361 52.8075 168.291 53.0975 168.161C53.1775 168.131 53.2475 168.021 53.2675 167.941C53.2875 167.851 53.2775 167.731 53.2275 167.651C53.1775 167.571 53.0975 167.501 53.0075 167.481C52.9075 167.461 52.8175 167.481 52.7175 167.521C52.8075 167.481 52.7275 167.521 52.7075 167.521C52.6775 167.531 52.6575 167.541 52.6275 167.551C52.5775 167.571 52.5275 167.581 52.4675 167.591C52.4375 167.601 52.4175 167.601 52.3875 167.601C52.2975 167.621 52.4675 167.591 52.3775 167.601C52.3275 167.601 52.2675 167.611 52.2175 167.611C52.1675 167.611 52.1075 167.611 52.0575 167.601C52.0475 167.601 52.0375 167.601 52.0275 167.601C51.9875 167.601 51.9875 167.601 52.0475 167.601C52.0275 167.601 51.9875 167.591 51.9675 167.591C51.9175 167.581 51.8675 167.571 51.8275 167.551C51.7975 167.541 51.7775 167.531 51.7475 167.531C51.6475 167.501 51.7875 167.561 51.7475 167.521C51.7875 167.561 51.8375 167.611 51.8775 167.651C51.8875 167.721 51.8975 167.781 51.9075 167.851C51.8975 167.861 51.8975 167.881 51.8875 167.891C51.8975 167.881 51.8975 167.861 51.9075 167.841C51.9175 167.811 51.9375 167.781 51.9475 167.751C51.9775 167.691 52.0175 167.621 52.0475 167.561C52.1175 167.441 52.1975 167.321 52.2675 167.201C52.4175 166.951 52.5575 166.671 52.6075 166.381C52.6275 166.281 52.6275 166.181 52.5675 166.091C52.5175 166.011 52.4375 165.941 52.3475 165.921C52.1675 165.911 51.9275 166.011 51.8875 166.221Z" fill="#1D1E1C"/>
<path d="M52.4574 167.581C52.3474 167.841 52.2374 168.111 52.1274 168.371C52.0974 168.451 52.1174 168.581 52.1674 168.661C52.2174 168.741 52.2974 168.811 52.3874 168.831C52.4874 168.851 52.5874 168.851 52.6774 168.791C52.7074 168.771 52.7274 168.751 52.7574 168.731C52.8074 168.681 52.8374 168.631 52.8574 168.561C52.9674 168.301 53.0774 168.031 53.1874 167.771C53.2174 167.691 53.1974 167.561 53.1474 167.481C53.0974 167.401 53.0174 167.331 52.9274 167.311C52.8274 167.291 52.7274 167.291 52.6374 167.351C52.6074 167.371 52.5874 167.391 52.5574 167.411C52.5074 167.471 52.4774 167.521 52.4574 167.581Z" fill="#1D1E1C"/>
<path d="M54.8373 167.431C54.8573 167.431 54.8773 167.421 54.8973 167.421C54.8473 167.431 54.8373 167.431 54.8873 167.421C54.9173 167.421 54.9473 167.421 54.9773 167.421C54.9973 167.421 55.0173 167.421 55.0373 167.421C55.0773 167.421 55.0773 167.421 55.0273 167.421L55.1073 167.441C55.1473 167.451 55.1773 167.461 55.2173 167.471C55.3073 167.501 55.1573 167.431 55.2373 167.481C55.2473 167.491 55.3273 167.521 55.3373 167.541C55.3273 167.531 55.3173 167.521 55.2973 167.511C55.2573 167.471 55.2373 167.421 55.2373 167.361C55.2473 167.261 55.2373 167.381 55.2173 167.401C55.2273 167.391 55.2273 167.371 55.2373 167.361C55.2273 167.381 55.2273 167.391 55.2173 167.411C55.1873 167.461 55.1673 167.521 55.1373 167.571C55.1073 167.621 55.0773 167.671 55.0373 167.721C55.0273 167.731 55.0173 167.751 55.0073 167.761C55.0373 167.721 55.0473 167.711 55.0273 167.731C55.0073 167.751 54.9873 167.781 54.9673 167.801C54.9273 167.841 54.8873 167.891 54.8473 167.931C54.8073 167.961 54.7573 168.031 54.7173 168.051C54.7573 168.021 54.7673 168.011 54.7473 168.031C54.7373 168.041 54.7273 168.051 54.7173 168.051C54.6873 168.071 54.6573 168.091 54.6373 168.111C54.5873 168.141 54.5373 168.171 54.4873 168.201C54.4673 168.211 54.4373 168.221 54.4173 168.231C54.3973 168.241 54.3873 168.241 54.3673 168.251C54.3273 168.271 54.3373 168.261 54.3873 168.241C54.3473 168.271 54.2673 168.281 54.2173 168.301C54.1673 168.321 54.1073 168.331 54.0573 168.341C54.0273 168.351 53.9973 168.351 53.9673 168.361C53.9273 168.371 53.9373 168.371 53.9873 168.361C53.9673 168.361 53.9573 168.361 53.9373 168.371C53.7473 168.391 53.5573 168.531 53.5673 168.741C53.5773 168.961 53.7273 169.091 53.9373 169.111C54.2273 169.141 54.5173 169.161 54.8073 169.191C55.0073 169.211 55.1873 169.001 55.1773 168.821C55.1673 168.601 55.0173 168.471 54.8073 168.451C54.5173 168.421 54.2273 168.401 53.9373 168.371C53.9373 168.621 53.9373 168.871 53.9373 169.121C54.4773 169.061 54.9673 168.841 55.3673 168.481C55.5473 168.311 55.7073 168.111 55.8273 167.891C55.8973 167.771 55.9673 167.631 55.9873 167.491C56.0273 167.231 55.9273 167.031 55.7173 166.891C55.4073 166.691 55.0273 166.641 54.6673 166.711C54.4773 166.751 54.3473 166.991 54.4073 167.171C54.4473 167.371 54.6273 167.471 54.8373 167.431Z" fill="#1D1E1C"/>
<path d="M51.8974 160.371C53.3774 159.881 54.9274 159.701 56.4774 159.841C56.4374 159.731 56.3874 159.631 56.3474 159.521C54.8474 160.891 52.7374 161.551 51.5874 163.311C51.5174 163.421 51.6074 163.611 51.7474 163.591C53.8574 163.321 55.9674 163.111 58.0874 162.961C58.0474 162.851 57.9974 162.751 57.9574 162.641C55.9974 164.671 53.0774 165.141 50.6374 166.341C50.4674 166.431 50.5574 166.681 50.7274 166.691C52.9874 166.741 55.5074 166.251 57.5174 167.571C57.7174 167.701 57.9074 167.381 57.7074 167.251C55.6374 165.881 53.0574 166.371 50.7274 166.311C50.7574 166.431 50.7874 166.541 50.8174 166.661C53.2974 165.441 56.2274 164.961 58.2174 162.901C58.3274 162.791 58.2574 162.571 58.0874 162.581C55.9674 162.731 53.8474 162.941 51.7474 163.211C51.7974 163.301 51.8574 163.401 51.9074 163.491C53.0374 161.781 55.1374 161.121 56.6074 159.781C56.7374 159.661 56.6274 159.471 56.4774 159.461C54.8974 159.311 53.2974 159.501 51.7974 160.001C51.5774 160.091 51.6674 160.451 51.8974 160.371Z" fill="#1D1E1C"/>
<path d="M66.2072 148.961C66.2772 148.991 66.3472 149.031 66.4172 149.071C66.4572 149.091 66.3772 149.031 66.4072 149.061C66.4172 149.071 66.4372 149.091 66.4472 149.101C66.4772 149.121 66.4072 149.031 66.4472 149.101C66.4372 149.071 66.4372 149.041 66.4372 149.091C66.4372 149.061 66.4372 149.031 66.4372 149.071C66.4372 149.051 66.4472 149.001 66.4372 149.051C66.4272 149.111 66.4372 149.041 66.4472 149.041C66.4472 149.041 66.3972 149.121 66.4272 149.071C66.4472 149.031 66.4172 149.081 66.4072 149.091C66.3972 149.101 66.3772 149.121 66.3672 149.131C66.3572 149.141 66.3072 149.181 66.3472 149.151C66.3872 149.121 66.3072 149.171 66.3072 149.171C66.2772 149.191 66.2372 149.211 66.1972 149.231C66.1772 149.241 66.1572 149.251 66.1272 149.261C66.1072 149.271 66.0772 149.281 66.1172 149.271C66.0172 149.311 65.9172 149.341 65.8172 149.371C65.7172 149.401 65.6172 149.421 65.5072 149.441C65.5472 149.431 65.5272 149.441 65.4972 149.441C65.4672 149.441 65.4372 149.451 65.4072 149.451C65.3472 149.451 65.2972 149.461 65.2372 149.461C64.9272 149.471 64.7272 149.871 64.9772 150.101C65.2872 150.381 65.5972 150.661 65.8972 150.931C66.0472 151.061 66.2872 151.081 66.4272 150.931C66.5572 150.791 66.5872 150.541 66.4272 150.401C66.1172 150.121 65.8072 149.841 65.5072 149.571C65.4172 149.781 65.3272 150.001 65.2472 150.211C65.5372 150.201 65.8372 150.161 66.1072 150.071C66.3872 149.981 66.6572 149.861 66.8772 149.671C67.1072 149.471 67.2372 149.161 67.1472 148.861C67.0672 148.591 66.8272 148.411 66.5872 148.311C66.4072 148.231 66.1772 148.251 66.0772 148.441C65.9872 148.611 66.0072 148.881 66.2072 148.961Z" fill="#1D1E1C"/>
<path d="M62.0774 149.741C63.1674 151.051 64.4274 152.191 65.8174 153.171C65.9874 153.291 66.2374 153.201 66.3274 153.041C66.4374 152.851 66.3574 152.641 66.1974 152.531C64.8574 151.591 63.6574 150.471 62.6174 149.221C62.4874 149.061 62.2174 149.091 62.0874 149.221C61.9274 149.361 61.9474 149.581 62.0774 149.741Z" fill="#1D1E1C"/>
<path d="M60.9372 150.621C60.9272 150.641 60.9072 150.651 60.8972 150.671C60.9172 150.611 60.9373 150.621 60.9173 150.641C60.9073 150.651 60.9072 150.661 60.8972 150.661C60.8672 150.701 60.8372 150.731 60.7972 150.761C60.7672 150.791 60.7272 150.821 60.6972 150.851C60.6872 150.861 60.6772 150.861 60.6772 150.871C60.6472 150.901 60.7172 150.841 60.7072 150.841C60.6872 150.851 60.6672 150.871 60.6472 150.891C60.4572 151.031 60.2672 151.151 60.0772 151.291C59.9472 151.391 59.8172 151.491 59.6872 151.601C59.5072 151.751 59.3273 151.941 59.4173 152.201C59.4773 152.381 59.6372 152.511 59.7872 152.621C59.9072 152.711 60.0272 152.791 60.1572 152.861C60.4872 153.021 60.8472 153.111 61.2172 153.121C61.4172 153.121 61.5972 152.941 61.5872 152.751C61.5772 152.541 61.4272 152.381 61.2172 152.381C61.1572 152.381 61.0873 152.371 61.0273 152.371C61.1173 152.381 61.0173 152.371 60.9973 152.371C60.9673 152.361 60.9372 152.361 60.9072 152.351C60.8472 152.341 60.7872 152.321 60.7272 152.301C60.6972 152.291 60.6673 152.281 60.6373 152.271C60.6273 152.271 60.5373 152.221 60.6073 152.261C60.4973 152.201 60.3873 152.151 60.2773 152.071C60.2673 152.061 60.1873 152.001 60.2473 152.051C60.2273 152.031 60.2072 152.021 60.1872 152.001C60.1672 151.981 60.1372 151.961 60.1172 151.941C60.1072 151.931 60.0972 151.921 60.0872 151.911C60.0472 151.861 60.0573 151.891 60.1373 151.991C60.1373 152.061 60.1373 152.121 60.1373 152.191C60.1373 152.221 60.0272 152.321 60.1172 152.241C60.1372 152.221 60.1672 152.201 60.1872 152.181C60.2272 152.141 60.2672 152.111 60.3072 152.081C60.3472 152.051 60.3872 152.021 60.4272 151.991C60.4872 151.951 60.4072 152.011 60.4372 151.981C60.4572 151.971 60.4672 151.961 60.4872 151.941C60.6272 151.841 60.7672 151.751 60.8972 151.651C61.1672 151.471 61.4072 151.281 61.5872 151.011C61.6972 150.851 61.6272 150.591 61.4572 150.501C61.2672 150.391 61.0572 150.451 60.9372 150.621Z" fill="#1D1E1C"/>
<path d="M61.3173 152.271C61.0773 152.501 60.8273 152.721 60.5873 152.951C60.5173 153.011 60.4773 153.121 60.4773 153.211C60.4773 153.301 60.5173 153.411 60.5873 153.471C60.6573 153.541 60.7473 153.581 60.8473 153.581C60.9473 153.581 61.0373 153.541 61.1073 153.471C61.3473 153.241 61.5973 153.021 61.8373 152.791C61.9073 152.731 61.9473 152.621 61.9473 152.531C61.9473 152.441 61.9073 152.331 61.8373 152.271C61.7673 152.201 61.6773 152.161 61.5773 152.161C61.4773 152.161 61.3873 152.201 61.3173 152.271Z" fill="#1D1E1C"/>
<path d="M65.2573 148.701C66.5473 149.141 67.8373 149.601 69.1073 150.071C69.1073 149.951 69.1073 149.831 69.1073 149.711C66.0373 150.901 62.7473 150.001 59.5673 150.091C59.3973 150.091 59.2973 150.351 59.4773 150.441C61.8473 151.591 64.7673 152.281 66.2473 154.671C66.3373 154.581 66.4173 154.501 66.5073 154.411C65.5573 153.991 64.6073 153.571 63.6573 153.151C62.1273 152.481 60.5873 151.811 59.0273 151.221C58.7673 151.121 58.4973 151.021 58.2273 150.941C58.1473 150.921 58.0673 150.901 57.9873 150.881C57.9473 150.871 57.9073 150.871 57.8673 150.871C57.7973 150.871 57.8573 150.871 57.9073 150.891C57.9373 150.941 57.9673 151.001 57.9973 151.051C57.9673 151.101 57.9373 151.161 57.9073 151.211C57.8673 151.231 57.7973 151.231 57.8673 151.231C57.9073 151.231 57.9573 151.231 57.9973 151.221C58.1473 151.211 58.2873 151.211 58.4373 151.211C58.9373 151.211 59.4273 151.221 59.9273 151.231C61.3773 151.281 62.8273 151.401 64.2573 151.651C65.1073 151.801 65.9473 151.991 66.7573 152.261C66.9873 152.341 67.0873 151.981 66.8573 151.901C65.3273 151.381 63.7073 151.141 62.1073 150.991C60.8673 150.871 59.6273 150.821 58.3773 150.831C58.1873 150.831 57.6473 150.751 57.6273 151.041C57.6173 151.101 57.6673 151.171 57.7173 151.201C57.7773 151.231 57.8273 151.221 57.8873 151.231C57.9373 151.231 57.8573 151.221 57.9173 151.231C57.9573 151.241 57.9873 151.251 58.0273 151.261C58.2373 151.311 58.4473 151.391 58.6573 151.461C59.3473 151.711 60.0273 151.991 60.6973 152.271C62.2373 152.911 63.7573 153.571 65.2773 154.251C65.6273 154.401 65.9673 154.561 66.3173 154.711C66.4773 154.781 66.6773 154.631 66.5773 154.451C65.0473 152.001 62.1173 151.281 59.6773 150.091C59.6473 150.211 59.6173 150.321 59.5873 150.441C62.7973 150.351 66.1273 151.251 69.2273 150.051C69.3973 149.981 69.4073 149.761 69.2273 149.691C67.9473 149.211 66.6673 148.751 65.3773 148.321C65.1273 148.261 65.0273 148.621 65.2573 148.701Z" fill="#1D1E1C"/>
<path d="M80.9574 171.581C80.5374 172.461 80.1174 173.351 79.7074 174.241C79.3174 175.101 78.8474 175.981 78.6574 176.911C78.5674 177.331 79.0974 177.551 79.3374 177.201C79.9174 176.371 80.4174 175.491 80.8074 174.571C81.2274 173.601 81.5274 172.591 81.8474 171.591C81.9574 171.241 81.4674 170.941 81.2174 171.231C81.0674 171.411 80.9174 171.591 80.7674 171.761C80.4574 172.121 80.9874 172.661 81.2974 172.291C81.4474 172.111 81.5974 171.931 81.7474 171.761C81.5374 171.641 81.3274 171.521 81.1174 171.401C80.8074 172.371 80.5174 173.361 80.1074 174.291C79.7174 175.181 79.2374 176.041 78.6774 176.831C78.9074 176.931 79.1374 177.021 79.3574 177.121C79.5474 176.211 79.9974 175.371 80.3774 174.531C80.7674 173.671 81.1774 172.821 81.5774 171.971C81.8074 171.521 81.1674 171.141 80.9574 171.581Z" fill="#E9574A"/>
<path d="M78.2072 178.381C77.9372 178.521 77.6872 178.711 77.4572 178.921C77.2672 179.101 77.3372 179.501 77.6272 179.551C77.8572 179.591 78.0773 179.581 78.3073 179.541C78.4873 179.511 78.6573 179.451 78.8373 179.391C78.6973 179.211 78.5573 179.021 78.4173 178.841C78.3573 178.941 78.2873 179.031 78.2273 179.131C78.1573 179.241 78.1673 179.401 78.2273 179.511C78.2973 179.631 78.4172 179.681 78.5472 179.701C78.6372 179.711 78.7372 179.721 78.8272 179.731C78.7372 179.521 78.6472 179.301 78.5672 179.091C78.4272 179.231 78.2973 179.381 78.1473 179.521C78.1373 179.531 78.1372 179.531 78.1272 179.541C78.1072 179.561 78.1172 179.551 78.1572 179.521C78.1572 179.521 78.0673 179.561 78.1373 179.541C78.1973 179.521 78.1273 179.541 78.1173 179.541C78.1373 179.541 78.1572 179.531 78.1772 179.531C78.1572 179.531 78.1273 179.541 78.1073 179.541C77.9473 179.561 77.8073 179.631 77.7273 179.781C77.6273 179.951 77.6873 180.191 77.8573 180.291C78.1773 180.471 78.5172 180.591 78.8772 180.641C78.9772 180.651 79.0673 180.661 79.1673 180.601C79.2473 180.551 79.3173 180.471 79.3373 180.381C79.3773 180.201 79.2872 179.951 79.0772 179.921C78.9172 179.901 78.7573 179.861 78.6073 179.811C78.5773 179.801 78.5373 179.791 78.5073 179.771C78.4973 179.771 78.4473 179.741 78.4473 179.741C78.4573 179.741 78.5172 179.771 78.4572 179.751C78.3772 179.721 78.3072 179.681 78.2372 179.641C78.2772 179.811 78.3273 179.981 78.3673 180.151C78.3373 180.201 78.2973 180.241 78.2473 180.261C78.2173 180.271 78.2073 180.281 78.2273 180.271C78.2673 180.251 78.1373 180.281 78.1973 180.271C78.2573 180.261 78.3172 180.261 78.3772 180.241C78.4972 180.201 78.5972 180.131 78.6872 180.041C78.8272 179.911 78.9573 179.771 79.0873 179.631C79.1973 179.521 79.2273 179.361 79.1673 179.221C79.1073 179.071 78.9772 179.011 78.8272 178.991C78.7372 178.981 78.6372 178.971 78.5472 178.961C78.6572 179.151 78.7673 179.341 78.8673 179.521C78.9273 179.421 78.9973 179.331 79.0573 179.231C79.1373 179.101 79.1173 178.931 79.0273 178.811C78.9373 178.701 78.7773 178.631 78.6373 178.681C78.4873 178.731 78.3273 178.791 78.1673 178.821C78.1273 178.831 78.0872 178.831 78.0472 178.841C77.9972 178.851 78.1173 178.841 78.0573 178.841C78.0373 178.841 78.0173 178.841 77.9973 178.841C77.9573 178.841 77.9172 178.841 77.8772 178.841C77.8572 178.841 77.8372 178.841 77.8172 178.841C77.7672 178.841 77.9072 178.861 77.8172 178.841C77.8772 179.051 77.9272 179.261 77.9872 179.471C78.0372 179.431 78.0772 179.381 78.1272 179.341C78.1372 179.331 78.2372 179.251 78.1572 179.311C78.1772 179.291 78.2072 179.271 78.2372 179.251C78.3472 179.171 78.4572 179.101 78.5772 179.041C78.7472 178.951 78.8172 178.691 78.7072 178.531C78.6072 178.331 78.3972 178.281 78.2072 178.381Z" fill="#E9574A"/>
<path d="M79.6273 177.541C80.6373 175.811 81.6473 174.081 82.6573 172.351C82.7473 172.191 82.7073 171.921 82.5273 171.841C82.3973 171.781 82.2673 171.721 82.1373 171.671C81.6973 171.471 81.3173 172.121 81.7573 172.321C81.8873 172.381 82.0173 172.441 82.1473 172.491C82.1073 172.321 82.0573 172.151 82.0173 171.981C81.0073 173.711 79.9973 175.441 78.9873 177.171C78.7373 177.581 79.3773 177.951 79.6273 177.541Z" fill="#E9574A"/>
<path d="M77.5274 179.971C77.8574 180.051 78.2374 180.101 78.5674 180.021C78.7774 179.971 78.9374 179.811 78.9974 179.601C79.0174 179.531 79.0274 179.451 79.0374 179.371C79.0374 179.341 79.0374 179.311 79.0374 179.291C79.0374 179.271 79.0374 179.261 79.0374 179.241C79.0274 179.211 79.0474 179.181 79.0274 179.271C78.9974 179.321 78.9674 179.381 78.9274 179.441C78.8974 179.471 78.8674 179.491 78.8274 179.501C78.8574 179.491 78.8474 179.491 78.8074 179.501C78.7674 179.501 78.7674 179.511 78.7974 179.511C78.7274 179.501 78.7074 179.501 78.7474 179.511C78.8074 179.531 78.6674 179.471 78.7174 179.501C78.6674 179.461 78.6574 179.451 78.6874 179.471C78.6774 179.451 78.6674 179.441 78.6474 179.421C78.6674 179.451 78.6574 179.441 78.6374 179.381C78.6474 179.421 78.6474 179.411 78.6374 179.351C78.6274 179.361 78.6374 179.401 78.6374 179.421C78.6374 179.501 78.6574 179.331 78.6374 179.411C78.6374 179.441 78.6274 179.471 78.6174 179.491C78.6074 179.521 78.6174 179.511 78.6374 179.461C78.6174 179.501 78.6274 179.491 78.6574 179.441L78.6474 179.451C78.6174 179.481 78.6274 179.471 78.6774 179.431C78.6674 179.441 78.6574 179.441 78.6474 179.441C78.6174 179.451 78.6374 179.451 78.6874 179.421C78.6674 179.421 78.6474 179.441 78.6174 179.441C78.5174 179.471 78.4074 179.471 78.3074 179.511C78.1274 179.581 77.9774 179.771 78.0474 179.971C78.1074 180.151 78.3074 180.301 78.5074 180.231C78.6174 180.191 78.7274 180.191 78.8274 180.161C78.9574 180.121 79.0974 180.061 79.1874 179.951C79.3174 179.801 79.3474 179.631 79.3674 179.451C79.3874 179.291 79.3474 179.121 79.2374 178.991C79.1274 178.851 78.9674 178.781 78.7974 178.761C78.5874 178.741 78.3574 178.861 78.2874 179.081C78.2674 179.151 78.2674 179.211 78.2774 179.281C78.2774 179.301 78.2774 179.321 78.2774 179.341C78.2774 179.351 78.2774 179.361 78.2774 179.371C78.2774 179.411 78.2574 179.431 78.2874 179.331C78.2874 179.351 78.2774 179.371 78.2774 179.381C78.2774 179.391 78.2574 179.431 78.2874 179.371C78.3174 179.311 78.2974 179.351 78.2874 179.361C78.2674 179.391 78.3274 179.311 78.3174 179.321C78.3074 179.331 78.2874 179.351 78.3274 179.311C78.3874 179.261 78.2974 179.311 78.3574 179.291C78.4174 179.271 78.3574 179.291 78.3474 179.291C78.3374 179.291 78.3274 179.291 78.3174 179.301C78.4074 179.271 78.3674 179.291 78.3374 179.301C78.3074 179.301 78.2674 179.311 78.2374 179.311C78.1774 179.311 78.1074 179.311 78.0474 179.311C78.0174 179.311 77.9774 179.311 77.9474 179.301C77.9374 179.301 77.9174 179.301 77.9074 179.301C77.8574 179.291 78.0074 179.321 77.9174 179.301C77.8474 179.291 77.7774 179.271 77.7174 179.261C77.5274 179.211 77.3074 179.321 77.2574 179.521C77.2174 179.701 77.3274 179.921 77.5274 179.971Z" fill="#E9574A"/>
</svg>
