<svg width="60" height="62" viewBox="0 0 60 62" fill="none" xmlns="http://www.w3.org/2000/svg">
<path d="M59.1196 35.3667C58.8196 37.7667 58.3196 40.3667 58.0196 42.9667C57.5196 46.2667 55.7196 48.8667 53.7196 51.1667C51.2196 53.9667 48.4196 56.3667 45.0196 58.0667C40.0196 60.5667 34.7196 61.5667 29.2196 61.7667C21.8196 62.0667 15.1196 59.8667 9.21961 55.0667C4.91961 51.6667 2.71962 47.1667 0.519615 42.4667C0.219615 41.6667 -0.0803848 40.6667 0.0196152 39.8667C0.219615 36.6667 0.219615 33.2667 1.21962 30.2667C2.61962 26.3667 3.71962 22.4667 6.01962 18.9667C8.51962 15.0667 11.3196 11.9667 15.1196 9.46671C18.3196 7.16671 21.8196 5.76671 25.8196 5.46671C26.4196 5.46671 27.0196 5.36671 27.6196 5.36671C36.9196 3.76671 44.4196 7.56671 51.0196 13.5667C55.0196 17.0667 56.7196 21.9667 57.9196 26.8667C58.6196 29.2667 58.7196 32.2667 59.1196 35.3667ZM57.0196 35.0667C57.2196 27.7667 55.2196 21.2667 50.3196 15.5667C45.9196 10.4667 40.1196 7.36671 33.5196 6.86671C27.1196 6.26671 21.2196 8.26671 16.3196 12.2667C10.4196 17.0667 6.31962 23.2667 3.71962 30.1667C2.51962 33.2667 2.01962 37.0667 2.61962 40.2667C4.11962 48.6667 9.41962 54.4667 17.1196 57.6667C25.7196 61.1667 34.6196 60.6667 43.0196 56.6667C52.0196 52.3667 57.4196 45.6667 57.0196 35.0667Z" fill="#EB584A"/>
<path d="M12.6657 55.9387C12.6657 55.9387 26.5 65.5 48.6193 55.6845L51.2106 40.4846L52.3567 41.0438L49.7654 31.6899C49.7654 31.6899 49.9149 28.716 50.3385 27.6231C50.7621 26.5301 53.752 14.8632 53.752 14.8632C53.752 14.8632 54.9479 8.91542 52.3069 8.07663C49.6658 7.26325 46.9499 9.42378 46.9499 9.42378L42.1412 12.8044L42.4651 13.5923L38.2045 17.5067C38.2045 17.5067 36.4604 15.8545 30.2812 17.1763L27.0671 17.8117L26.793 16.9729L23.1553 18.5488L19.5425 15.5749L18.3714 14.3803L18.5209 13.4907C18.5209 13.4907 12.1923 7.82245 9.12763 8.55957C6.06297 9.29669 6.93503 14.2532 6.93503 14.2532L11.2704 30.2157L11.7936 31.3849L9.00305 41.2471L10.0495 40.8404L12.8899 55.227L12.6657 55.9387Z" fill="white"/>
<path d="M34.5469 36.4682C34.8708 36.5699 35.0701 36.6461 35.2694 36.6716C35.394 36.697 35.5435 36.5445 35.5186 36.4174C35.4937 36.3411 35.4189 36.214 35.3193 36.1886C35.095 36.1378 35.0452 36.1632 34.5469 36.4682Z" fill="black"/>
<path d="M33.226 37.0012C33.3256 36.925 33.4253 36.8741 33.5001 36.7725C33.5748 36.6708 33.5499 36.5691 33.4751 36.4929C33.4004 36.4166 33.2758 36.3658 33.2011 36.442C33.1263 36.5183 33.0516 36.6454 33.0267 36.7725C33.0017 36.8233 33.1263 36.8995 33.226 37.0012Z" fill="black"/>
<path d="M33.2233 38.6276C33.2732 38.5513 33.3728 38.4496 33.3978 38.348C33.4227 38.1954 33.323 38.0938 33.1735 38.0684C33.0988 38.0684 32.9742 38.1446 32.9493 38.2463C32.8745 38.3988 33.024 38.6021 33.2233 38.6276Z" fill="black"/>
<path d="M25.7713 36.4682C25.4474 36.5699 25.2481 36.6461 25.0488 36.6716C24.9242 36.697 24.7747 36.5445 24.7996 36.4174C24.8245 36.3411 24.8993 36.214 24.9989 36.1886C25.2232 36.1378 25.273 36.1632 25.7713 36.4682Z" fill="black"/>
<path d="M27.0926 37.0012C26.993 36.925 26.8933 36.8741 26.8186 36.7725C26.7438 36.6708 26.7687 36.5691 26.8435 36.4929C26.9182 36.4166 27.0428 36.3658 27.1176 36.442C27.1923 36.5183 27.2671 36.6454 27.292 36.7725C27.3169 36.8233 27.1923 36.8995 27.0926 37.0012Z" fill="black"/>
<path d="M27.0923 38.6276C27.0425 38.5513 26.9428 38.4496 26.9179 38.348C26.893 38.1954 26.9926 38.0938 27.1421 38.0684C27.2169 38.0684 27.3414 38.1446 27.3664 38.2463C27.4411 38.3988 27.2916 38.6021 27.0923 38.6276Z" fill="black"/>
<path d="M17.6023 20.684C17.8763 21.0145 18.1504 21.472 17.9511 21.8533C17.8764 22.0312 17.7019 22.1329 17.5275 22.26C16.2568 23.0987 14.9612 23.9375 13.6905 24.7763C13.4164 24.9543 13.1174 25.1322 12.7935 25.1322C12.1706 25.1068 11.8218 24.3696 11.7969 23.7342C11.7969 23.3275 11.8467 22.9462 11.9962 22.565C12.345 21.7008 12.9928 21.0399 13.3167 20.1503C13.541 19.5148 13.4413 18.0151 13.9147 17.5576C15.0359 16.4647 16.805 19.7182 17.6023 20.684Z" fill="#BBBBBA"/>
<path d="M12.9483 56.0148C13.322 56.1419 13.6263 56.8983 14 57C15.3205 57.3559 16.6545 58.3475 18 58.5C17.8754 57.6866 17.8069 55.4048 17.6823 54.5914C17.5577 53.6001 17.4082 52.6088 17.0843 51.6429C16.4365 49.6858 15.091 48.1098 13.8203 46.5593C13.1476 45.7714 11.9516 43.3058 10.6809 44.0938C9.43512 44.8818 10.8304 47.9065 11.1294 49.0249C11.7274 51.3633 12.3254 53.7018 12.9483 56.0148Z" fill="#BBBBBA"/>
<path d="M27.541 45.7962C27.242 45.1608 26.345 40.9414 25.174 41.9581C24.6757 42.3902 25.6225 43.6357 25.8716 44.1186C26.071 44.4999 26.2454 44.9574 26.5444 45.2624C26.6689 45.3895 27.541 45.7962 27.541 45.7962Z" fill="#BBBBBA"/>
<path d="M35.042 40.5854C34.9673 41.348 34.1451 45.5928 32.7747 43.9152C32.2764 43.3051 32.7996 42.1105 33.1733 41.5767C33.273 41.3988 35.0919 40.1787 35.042 40.5854Z" fill="#BBBBBA"/>
<path d="M9.4756 41.8561C9.84934 43.6608 10.0985 45.4401 10.5719 47.1431C11.3941 50.0407 12.0419 52.9892 12.6648 55.9377C13.1133 56.0902 13.5867 56.2427 14.0601 56.3444H14.085C13.7362 55.2768 13.5618 54.1838 13.3874 53.0655C13.3625 52.8621 13.4123 52.6588 13.4871 52.4554C13.9106 51.1591 14.3591 49.8628 14.7578 48.541C15.4305 46.3297 16.0534 44.0675 16.6514 41.8307C16.7012 41.6274 16.5517 41.3478 16.4271 40.8648C15.6547 42.1357 15.5302 43.3304 15.2312 44.4488C14.9322 45.618 14.6332 46.7872 14.2345 47.931C13.8608 49.0494 13.4123 50.117 12.914 51.4133C12.4157 49.1511 11.9174 47.0922 11.4938 45.0079C11.2695 43.7879 11.1948 42.517 10.9955 41.2969C10.9456 40.8648 10.8709 40.331 10.5968 40.026C10.0985 39.4668 10.2729 38.9839 10.4473 38.4247C10.9207 37.0521 11.3692 35.6541 11.7928 34.2816C12.017 33.5699 12.1665 32.8327 12.2662 32.0956C12.3409 31.3839 12.2163 30.6976 11.444 30.3672C11.3443 30.8755 11.2945 31.4093 11.145 31.9177C10.5221 34.0528 9.89917 36.2133 9.22644 38.3484C8.8527 39.4922 8.35439 40.5852 7.95573 41.7036C7.88099 41.8815 8.0554 42.1103 8.13014 42.3899C8.65338 42.1866 9.05203 42.0086 9.4756 41.8561Z" fill="black"/>
<path d="M22.197 36.2377C22.4213 36.7461 22.5957 37.1019 22.7203 37.4832C23.4677 39.542 24.8381 40.025 26.931 39.7454C28.0273 39.5929 28.7001 38.6778 29.1486 37.7374C28.2765 36.3394 27.4294 35.0176 26.5822 33.6959C27.0307 32.5267 28.0024 32.0691 29.024 31.8404C30.0206 31.6116 31.0671 31.7133 32.0139 32.1962C32.3378 32.3487 32.6617 32.5521 32.9358 32.8063C33.8327 33.6959 33.8327 34.4839 32.9109 35.3481C31.989 36.2123 31.0172 37.0257 30.0704 37.8644C31.7398 40.025 33.758 40.3046 35.8758 38.6778C36.5735 38.144 37.2213 37.6357 37.7196 36.8731C37.894 36.5935 38.2179 36.3902 38.492 36.1614C38.9156 36.6444 38.7163 36.9748 38.4671 37.2544C37.9937 37.8136 37.4954 38.3728 36.9721 38.9066C36.5237 39.3641 36.0752 39.7454 35.7263 40.3554C35.3526 41.0163 34.5553 41.4992 33.7331 41.6771C31.4159 42.0584 30.2449 39.3387 29.622 39.3641C29.1236 39.3895 27.2799 42.1855 25.9842 41.6263C23.9162 40.8384 22.9445 39.6183 22.0974 37.6865C21.898 37.3053 21.599 36.8477 22.197 36.2377Z" fill="black"/>
<path d="M11.7946 31.0547C10.7481 31.131 10.6485 31.1056 10.3993 30.1651C10.1003 29.0721 9.97573 27.9537 9.65182 26.8862C9.05384 24.9798 8.35619 23.1243 7.70838 21.2434C7.50905 20.6588 7.30973 20.0487 7.21006 19.4387C6.81141 17.2273 6.41276 15.0414 6.08885 12.8046C5.88952 11.432 6.18851 10.1103 7.28481 9.16983C8.28145 8.30562 9.45249 7.79726 10.773 8.20395C13.14 8.91565 15.2579 10.1357 17.1266 11.8133C17.5751 12.22 18.0983 12.5504 18.5966 12.9063C19.2444 13.3638 19.7677 13.8722 19.2195 14.838C20.5401 15.9819 21.8108 17.0748 23.1811 18.2441C24.5266 17.6086 25.8471 16.9986 27.2424 16.3377C27.3919 16.5919 27.5414 16.8461 27.7407 17.2019C28.6876 17.0494 29.6593 16.9477 30.6061 16.719C32.4249 16.2869 34.2438 16.236 36.0876 16.2869C37.0344 16.3123 37.8815 16.7444 38.8532 17.4561C38.1307 17.5578 37.6324 17.4307 37.159 17.329C35.2653 16.9223 33.4216 17.2273 31.5529 17.4561C30.0579 17.6594 28.5879 17.9899 27.1179 18.2949C26.5946 18.3966 26.2458 18.2441 26.0714 17.6594C25.2741 17.9899 24.5764 18.2695 23.8539 18.5999C23.3057 18.8541 22.8822 18.8032 22.3838 18.4474C20.7394 17.329 19.3939 15.8802 18.0236 14.4568C17.9239 14.3551 17.7246 14.1518 17.7495 14.0501C18.0485 13.2621 17.3508 13.0842 16.9771 12.7029C15.4572 11.2033 13.5636 10.2882 11.7697 9.22067C11.0222 8.76314 10.2 8.73773 9.40266 8.8394C9.05384 8.89023 8.72993 9.24609 8.40603 9.44943C7.90771 9.22067 7.70838 9.44943 7.60872 10.1611C7.98246 9.8307 8.2067 9.62736 8.43094 9.42401C7.88279 10.6441 7.45922 11.8641 7.53397 13.2621C7.63363 15.016 8.0572 16.6936 8.55552 18.3711C9.00401 19.8454 9.55216 21.2688 9.90098 22.7685C10.4242 25.0815 10.8976 27.3945 11.7697 29.5805C11.9192 30.0888 12.0437 30.5718 11.7946 31.0547Z" fill="black"/>
<path d="M18.5781 35.196C19.7492 33.6709 20.8455 32.5017 22.3404 31.7391C22.8637 31.4595 23.362 31.0528 23.7606 30.5953C24.7822 29.5278 25.7539 28.3839 26.7256 27.291C27.0495 26.9351 27.4233 26.6047 27.2239 25.9947C27.1741 25.7913 27.2987 25.5117 27.4233 25.3084C28.2455 23.9612 28.395 22.4107 28.6441 20.9111C28.694 20.6315 28.7687 20.3773 29.0677 20.0723C29.1674 20.301 29.3418 20.5298 29.3418 20.7331C29.3418 21.3177 29.2421 21.9024 29.1674 22.4616C29.0179 23.5545 28.5943 24.5713 28.5694 25.7405C28.5694 26.3251 28.1209 26.986 27.6973 27.4689C26.4515 28.9431 25.2058 30.4682 23.7606 31.7391C22.3903 32.9592 20.7956 33.8996 19.3007 34.9672C19.1761 35.0689 18.9768 35.0689 18.5781 35.196Z" fill="black"/>
<path d="M31.3235 23.3008C31.4481 23.5041 31.5727 23.7075 31.6724 23.9108C31.9464 24.5971 32.1707 25.3342 32.4697 25.9951C33.0677 27.3677 33.8151 28.5877 35.0858 29.5028C36.5559 30.5703 37.9761 31.6379 39.77 32.1208C41.0158 32.4513 42.2118 32.985 43.5323 33.4426C43.3081 33.5442 43.1337 33.7222 42.9343 33.7222C42.4859 33.7476 42.0125 33.8238 41.5889 33.6967C39.197 32.985 36.8549 32.1717 34.9613 30.367C34.6872 30.1128 34.3633 29.9349 34.0892 29.6807C33.6407 29.2486 33.0926 28.8673 32.8434 28.3335C32.1707 26.9101 31.5976 25.4359 31.0246 23.9871C30.9498 23.8091 31.0246 23.5295 31.0495 23.3262C31.1491 23.3516 31.2488 23.3262 31.3235 23.3008Z" fill="black"/>
<path d="M15.9581 18.828C14.7123 17.4555 13.4915 16.0829 12.2706 14.6849C12.2457 14.6595 12.3204 14.5324 12.3702 14.3799C12.4948 14.4053 12.6692 14.4053 12.7689 14.507C13.043 14.7357 13.317 14.9899 13.5911 15.2695C15.1857 16.9725 16.8053 18.6755 18.5494 20.531C18.076 21.9799 16.7305 23.0474 15.9332 24.4708C15.7837 24.7504 15.41 24.9029 15.0861 25.1317C14.9117 24.4708 14.9117 24.4454 16.0827 22.7932C16.581 22.107 17.1043 21.4207 17.7272 20.6073C17.1541 20.0227 16.5561 19.4126 15.9581 18.828Z" fill="black"/>
<path d="M38.5823 26.7068C38.6072 27.6981 37.9843 28.4352 37.0874 28.486C36.2402 28.5115 35.5426 27.8252 35.4927 26.961C35.4678 26.0459 36.29 25.1309 37.1372 25.1309C37.8348 25.1309 38.5574 25.9442 38.5823 26.7068Z" fill="black"/>
<path d="M21.5391 27.0384C21.5391 26.3013 22.1869 25.6658 22.9593 25.615C23.8812 25.5896 24.5539 26.225 24.529 27.1147C24.5041 27.928 23.8313 28.7414 23.1337 28.7922C22.5357 28.8685 21.564 27.8009 21.5391 27.0384Z" fill="black"/>
<path d="M16.5334 35.2463C16.06 35.958 15.5866 36.6188 15.1381 37.2797C15.6365 38.1185 16.6331 38.2202 17.3058 39.1352C16.0102 38.9827 15.1132 38.6014 14.4654 37.7372C14.2163 37.4068 14.1913 37.0255 14.4405 36.6951C14.8392 36.1359 15.2627 35.5513 15.7112 35.0175C15.9853 34.7125 16.2843 34.7379 16.5334 35.2463Z" fill="black"/>
<path d="M31.2629 22.7671C30.4905 21.5216 30.4656 20.3778 30.2912 19.2594C30.2663 19.0815 30.4656 18.8782 30.5902 18.6494C31.1632 19.3611 31.4622 21.115 31.2629 22.7671Z" fill="black"/>
<path d="M15.9472 18.8027C15.1749 19.4636 14.3277 20.0228 13.2812 20.5566C13.8045 19.5653 14.6267 19.0569 15.9472 18.8027Z" fill="black"/>
<path d="M14.6641 18.2939C14.0661 18.7769 13.4432 19.2598 12.8203 19.7428C13.1193 18.8277 13.6924 18.2939 14.6641 18.2939Z" fill="black"/>
<path d="M41.6413 50.2948C40.9935 50.066 40.3457 49.8118 39.5234 49.5068C40.4702 49.2272 40.7692 49.3289 41.6413 50.2948Z" fill="black"/>
<path d="M38.5703 50.2183C39.3178 50.0912 39.7663 50.6249 40.2397 51.0825C39.567 51.0316 39.0935 50.625 38.5703 50.2183Z" fill="black"/>
<path d="M20.3125 52.9638C21.2842 52.1504 21.2842 52.1504 22.3058 52.1504C21.7327 52.6333 21.1846 52.8621 20.3125 52.9638Z" fill="black"/>
<path d="M20.857 51.3371C20.6328 51.5659 20.3836 51.7692 20.0846 52.0488C20.0846 51.8455 20.0348 51.693 20.0846 51.6421C20.284 51.4642 20.5082 51.3117 20.7325 51.1592C20.7823 51.2354 20.8072 51.2863 20.857 51.3371Z" fill="black"/>
<path d="M22.4987 26.8084C22.7051 26.8084 22.8725 26.6377 22.8725 26.4272C22.8725 26.2166 22.7051 26.0459 22.4987 26.0459C22.2923 26.0459 22.125 26.2166 22.125 26.4272C22.125 26.6377 22.2923 26.8084 22.4987 26.8084Z" fill="white"/>
<path d="M36.7787 26.1225C36.7787 26.3258 36.6292 26.5038 36.405 26.5038C36.2057 26.5038 36.0312 26.3512 36.0312 26.1225C36.0312 25.9191 36.1807 25.7412 36.405 25.7412C36.6043 25.7412 36.7787 25.9191 36.7787 26.1225Z" fill="white"/>
<path d="M29.1121 33.0348C29.5356 32.9077 29.9592 32.8314 30.3828 32.806C30.4326 32.806 30.4824 32.806 30.5323 32.806C30.6568 32.806 30.7316 32.806 30.8811 32.8822C31.0306 32.9331 31.2299 33.0602 31.5787 33.2381C31.6535 33.2635 31.7531 33.2381 31.7781 33.1873C31.803 33.111 31.7781 33.0093 31.7282 32.9839C31.3794 32.806 31.1801 32.6789 31.0057 32.6027C30.8313 32.5264 30.7067 32.501 30.5323 32.501C30.4824 32.501 30.4326 32.501 30.3578 32.501C29.9094 32.5264 29.436 32.6027 29.0124 32.7297C28.9376 32.7552 28.8878 32.8314 28.9127 32.9331C28.9626 33.0093 29.0373 33.0602 29.1121 33.0348Z" fill="white"/>
<path d="M43.1351 20.9098C42.8361 20.6302 42.4873 20.2235 42.6119 19.8168C42.6617 19.6389 42.8112 19.4864 42.9607 19.3593C44.1068 18.3425 45.253 17.3004 46.3991 16.2837C46.6482 16.0549 46.9223 15.8262 47.2462 15.8008C47.8691 15.7245 48.3176 16.4108 48.4422 17.0208C48.5169 17.4021 48.492 17.8088 48.3924 18.2155C48.1681 19.1051 47.62 19.8676 47.4456 20.7827C47.321 21.4435 47.62 22.8924 47.2213 23.4516C46.2745 24.697 44.057 21.774 43.1351 20.9098Z" fill="#BBBBBA"/>
<path d="M48.3407 55.7859C47.9669 55.913 47.5932 56.0147 47.2194 56.1164C45.8989 56.4468 44.3205 57.3729 43 57.5C43.1246 56.6866 43.507 55.1251 43.6066 54.3117C43.7561 53.3204 43.9056 52.3291 44.2295 51.3886C44.9023 49.4314 46.2477 47.8809 47.5433 46.3304C48.2161 45.5425 49.4619 43.1024 50.6827 43.9157C51.9285 44.7291 50.4834 47.7284 50.1844 48.8468C49.5864 51.1344 48.9636 53.4475 48.3407 55.7859Z" fill="#BBBBBA"/>
<path d="M51.9278 41.6276C51.5541 43.4323 51.28 45.2115 50.7817 46.9145C49.9345 49.8122 49.2618 52.7353 48.614 55.6838C48.1655 55.8363 47.6921 55.9634 47.2187 56.0904H47.1938C47.5426 55.0229 47.7419 53.9299 47.9163 52.8115C47.9413 52.6082 47.8914 52.4048 47.8416 52.2015C47.4429 50.8798 46.9945 49.6089 46.5958 48.2871C45.948 46.0503 45.35 43.8135 44.752 41.5768C44.7022 41.3734 44.8517 41.0938 44.9763 40.6109C45.7487 41.8818 45.8483 43.0764 46.1473 44.2202C46.4463 45.3895 46.7453 46.5587 47.0941 47.7025C47.4429 48.8209 47.9163 49.8885 48.3897 51.1848C48.913 48.9226 49.4362 46.8637 49.8598 44.8049C50.1089 43.5848 50.1837 42.3139 50.383 41.0938C50.4578 40.6617 50.5076 40.1279 50.7817 39.8229C51.28 39.2637 51.1305 38.7808 50.9312 38.2216C50.4827 36.849 50.0342 35.451 49.6106 34.053C49.4113 33.3413 49.2369 32.6042 49.1621 31.8671C49.0874 31.1554 49.2369 30.4691 49.9844 30.1387C50.0591 30.647 50.1339 31.1808 50.2584 31.6892C50.8564 33.8497 51.4544 36.0102 52.1271 38.1453C52.4759 39.2891 52.9743 40.3821 53.348 41.5005C53.4227 41.6784 53.2483 41.9072 53.1736 42.1868C52.7251 41.9835 52.3265 41.8055 51.9278 41.6276Z" fill="black"/>
<path d="M53.7304 8.43155C52.7337 7.56734 51.5627 7.05898 50.2421 7.46567C47.8751 8.17737 45.7573 9.39744 43.8886 11.075C43.4401 11.4817 42.9169 11.8121 42.4186 12.168C41.7707 12.6255 41.2475 13.1339 41.7957 14.0998C40.4751 15.2436 39.2044 16.3365 37.834 17.5058C37.8091 17.4804 37.7842 17.4804 37.7344 17.4549C37.7344 17.6583 37.7344 17.8362 37.7344 18.0396C38.0334 18.0396 38.3074 17.9379 38.6064 17.7345C40.2509 16.6161 41.5963 15.1673 42.9667 13.7439C43.0664 13.6422 43.2657 13.4389 43.2408 13.3372C42.9418 12.5493 43.6394 12.3713 44.0132 11.9901C45.533 10.4904 47.4267 9.57536 49.2206 8.50781C49.9681 8.05028 50.7903 8.02486 51.5876 8.12654C51.9364 8.17737 52.2603 8.53322 52.5842 8.73657C53.1324 9.95663 53.556 11.1767 53.4812 12.5493C53.3815 14.3031 52.958 15.9807 52.4597 17.6583C52.0112 19.1325 51.463 20.5559 51.1142 22.0556C50.591 24.3686 50.1176 26.6817 49.2455 28.8676C49.0711 29.3251 48.9465 29.8081 49.1957 30.291C50.2421 30.3673 50.3418 30.3419 50.591 29.4014C50.89 28.3084 51.0145 27.19 51.3384 26.1225C51.9364 24.2161 52.6341 22.3606 53.2819 20.4797C53.4812 19.8951 53.6805 19.285 53.7802 18.675C54.1789 16.4636 54.5775 14.2777 54.9014 12.0409C55.1007 10.6683 54.8018 9.37202 53.7304 8.43155ZM52.6092 8.71115C53.1075 8.50781 53.3068 8.73657 53.4065 9.42285C53.0327 9.11784 52.8085 8.91449 52.6092 8.71115Z" fill="black"/>
<path d="M45.0273 18.0399C46.2731 16.6674 47.4939 15.2948 48.7148 13.8968C48.7397 13.8714 48.665 13.7443 48.6152 13.5918C48.4906 13.6172 48.3162 13.6172 48.2165 13.7189C47.9424 13.9476 47.6684 14.2018 47.3943 14.4814C45.7997 16.1844 44.205 17.8874 42.4609 19.7429C42.9343 21.1918 44.2798 22.2593 45.0771 23.6827C45.2266 23.9623 45.6003 24.1148 45.9242 24.3436C46.0737 23.759 46.0987 23.6827 45.3263 22.5643C45.2017 22.4118 45.9242 20.7597 45.7748 20.5563C45.5754 20.2767 44.529 21.446 44.3047 21.1409C43.9808 20.7343 43.6569 20.3021 43.2832 19.8192C43.8562 19.2346 44.4542 18.6246 45.0273 18.0399Z" fill="black"/>
<path d="M44.9145 34.9685C45.3879 35.6802 45.8364 36.3411 46.2849 37.002C45.7616 37.8408 44.765 37.917 44.1172 38.8321C45.4128 38.705 46.3098 38.2983 46.9825 37.4595C47.2317 37.1545 47.2566 36.7478 47.0074 36.4174C46.6088 35.8327 46.2101 35.2735 45.7616 34.7143C45.4876 34.4348 45.1886 34.4856 44.9145 34.9685Z" fill="black"/>
<path d="M45.0625 18.041C45.8349 18.7019 46.682 19.2611 47.7285 19.7949C47.1804 18.7781 46.3581 18.2698 45.0625 18.041Z" fill="black"/>
<path d="M46.3516 17.5312C46.9495 18.0142 47.5724 18.4971 48.1953 18.9801C47.8963 18.065 47.3233 17.5312 46.3516 17.5312Z" fill="black"/>
<path d="M31.9244 40.4317C32.049 40.5333 32.1985 40.6604 32.2733 40.8129C32.3729 40.9654 32.4228 41.1688 32.4477 41.3467C32.5224 41.8805 32.5473 42.4143 32.4726 42.948C32.4477 43.2276 32.3729 43.5072 32.348 43.8122C32.2982 44.1427 32.2733 44.4731 32.1985 44.8036C32.1238 45.134 31.9493 45.439 31.7002 45.6423C31.5258 45.7694 31.3015 45.8457 31.1022 45.9219C30.579 46.0999 30.0807 46.2778 29.5574 46.4811C29.4079 46.532 29.2335 46.5828 29.084 46.6336C28.9594 46.6591 28.8349 46.6591 28.7103 46.5828C28.6355 46.532 28.5857 46.4557 28.5359 46.4049C28.3615 46.1761 28.1372 45.9982 27.9379 45.7694C27.4645 45.2357 27.1655 44.6002 26.8665 43.9648C26.7419 43.7106 26.6173 43.431 26.5675 43.1514C26.5177 42.8718 26.5675 42.5922 26.6173 42.3126C26.7668 41.55 27.0658 40.8383 27.4396 40.1775C27.5642 39.9487 27.7136 39.72 27.913 39.5166C28.0625 39.3641 28.212 39.2624 28.3864 39.1353C28.6106 38.9828 28.8598 38.8557 29.1339 38.7795C29.2584 38.7287 29.383 38.7032 29.5325 38.6524C29.6322 38.627 29.7069 38.6016 29.7817 38.6524C29.9062 38.7287 30.0059 38.8303 30.1305 38.9066C30.2551 39.0082 30.3547 39.0845 30.4793 39.1862C30.7036 39.3641 30.9527 39.5674 31.177 39.7454C31.4012 39.9233 31.6254 40.1266 31.8497 40.3046C31.8746 40.3808 31.8995 40.4062 31.9244 40.4317Z" fill="white"/>
<path d="M29.6588 44.8032C29.0608 45.1337 28.413 45.2862 27.7652 45.4133C27.7403 45.4133 27.6905 45.3624 27.6406 45.337C28.1389 44.7778 28.7868 44.5745 29.6588 44.8032Z" fill="black"/>
<path d="M26.9375 44.4481C27.685 44.0414 28.258 43.4568 29.1052 43.4822C29.1301 43.4822 29.155 43.5585 29.1799 43.6093C29.155 43.6602 29.1301 43.711 29.0803 43.7364C28.4325 44.016 27.8096 44.321 27.1617 44.6006L27.087 44.5752C27.087 44.5498 27.0621 44.5498 26.9375 44.4481Z" fill="black"/>
<path d="M38.4737 36.1367C38.2245 36.3909 37.9006 36.5688 37.7013 36.8484C37.203 37.5855 36.5552 38.1193 35.8575 38.6531C33.7646 40.2544 31.7713 40.0003 30.102 37.916H29.0306C28.5821 38.7802 27.9343 39.5936 26.9127 39.7461C24.8198 40.0511 23.4494 39.5681 22.702 37.4839C22.5774 37.1026 22.378 36.7467 22.1787 36.2384C21.5807 36.8484 21.8548 37.3059 22.0292 37.6618C22.9013 39.5936 23.7733 41.5253 25.8663 42.3387C26.0656 43.8638 26.9377 45.7447 28.0838 46.5327C28.906 47.0919 29.7531 47.1427 30.6252 46.736C31.8461 46.1768 32.7431 45.2872 32.8676 43.8638C32.9175 43.1267 33.2912 42.2625 33.8144 41.9066C34.4872 41.4491 35.2845 40.9916 35.6831 40.3307C36.0319 39.7207 36.4804 39.3394 36.9289 38.8819C37.4522 38.3481 37.9256 37.7889 38.4239 37.2297C38.673 36.9501 38.8973 36.6451 38.4737 36.1367ZM31.9707 43.9655C31.6717 45.1601 30.7747 45.821 29.6535 46.1514C29.4791 46.2022 29.2299 46.1514 29.0804 46.0752C27.9841 45.5668 27.137 44.728 26.9377 43.5334C26.7632 42.4912 27.1868 40.9916 27.9841 40.229C28.5074 39.7461 29.1053 39.314 29.7531 38.8056C30.2265 39.2123 30.8494 39.6444 31.3478 40.1782C32.2447 41.1186 32.2696 42.7962 31.9707 43.9655Z" fill="black"/>
<path d="M38.8477 22.688C38.8726 23.8092 38.1251 24.6813 37.1035 24.7311C36.1069 24.7809 35.2847 23.9836 35.2349 22.9621C35.2099 21.9156 36.1567 20.8691 37.1534 20.8691C37.9756 20.8691 38.8227 21.791 38.8477 22.688Z" fill="white"/>
<path d="M21.2109 22.9865C21.2109 22.1145 22.0082 21.3421 22.955 21.2923C24.0763 21.2424 24.8985 22.0397 24.8736 23.1111C24.8487 24.0828 24.0264 25.0795 23.1793 25.1044C22.4318 25.1542 21.2109 23.8835 21.2109 22.9865Z" fill="white"/>
<path d="M38.939 23.6089C38.2164 23.1604 37.5188 22.7618 36.6467 23.3847C36.5471 23.1106 36.3976 22.9113 36.4474 22.7618C36.5221 22.5624 36.6716 22.3133 36.871 22.2385C37.5686 21.8897 38.7895 22.4628 39.0386 23.2103C39.0636 23.285 38.9888 23.4096 38.939 23.6089Z" fill="black"/>
<path d="M21.5938 23.3338C22.5904 22.088 24.185 22.2375 25.2066 23.6079C24.5587 24.0315 24.0853 23.3588 23.5372 23.3338C22.9143 23.3089 22.3412 23.3338 21.5938 23.3338Z" fill="black"/>
<path d="M33.5302 1.21571C34.2777 0.941639 35.0999 0.69248 35.8474 0.966555C36.7194 1.31538 37.1679 2.33693 37.0683 3.28373C36.9686 4.20562 36.4204 5.05276 35.7976 5.75041C34.477 7.22044 32.7578 8.31674 31.4373 9.78678C30.7396 8.83997 29.7928 8.0925 28.7214 7.56926C27.974 7.19553 27.1019 6.97128 26.5039 6.3733C25.7315 5.60091 25.5571 4.42986 25.4325 3.33356C25.3827 2.88508 25.3329 2.43659 25.4325 2.01302C25.5322 1.58945 25.8063 1.16588 26.2298 1.01639C26.5787 0.891808 26.9524 0.966555 27.3012 1.06622C27.8992 1.24063 28.4723 1.46487 29.0204 1.76386C29.4191 1.96319 30.3908 2.88508 30.7645 2.90999C31.213 2.93491 31.512 2.31201 31.8858 2.01302C32.3592 1.63928 32.9571 1.41504 33.5302 1.21571Z" fill="#F15748"/>
<path d="M30.84 2.43695C30.9895 2.26254 31.139 2.11304 31.2636 1.96355C32.0111 1.04166 33.0077 0.618089 34.1788 0.618089C34.7518 0.618089 35.3249 0.643004 35.898 0.717752C37.1438 0.867247 37.6172 1.49014 37.3182 2.73594C37.1438 3.43358 36.8697 4.18106 36.4461 4.75413C35.3996 6.17433 34.2784 7.51979 33.1323 8.86525C32.7336 9.33865 32.2602 9.7373 31.7868 10.136C31.4879 10.3851 31.139 10.5595 30.6656 10.8585C30.566 9.8868 29.9929 9.46323 29.37 9.06457C28.6474 8.61609 27.9498 8.09285 27.2522 7.59453C25.5828 6.39857 24.8353 4.77904 24.8851 2.73594C24.9101 1.63964 25.4582 0.892164 26.2306 0.244351C26.6791 -0.129387 27.1525 -0.029724 27.601 0.244351C28.5478 0.842332 29.7437 1.09149 30.3666 2.18779C30.4663 2.31237 30.6656 2.33728 30.84 2.43695ZM36.4212 1.68947C35.5741 1.31573 34.6522 1.31573 33.7801 1.51506C32.7336 1.76422 31.7619 2.21271 31.6872 3.55816C31.6623 3.88207 31.438 4.20598 31.1889 4.77904C30.7653 4.23089 30.4663 3.85715 30.2171 3.4585C29.5195 2.38712 28.5229 1.81405 27.2771 1.66456C26.6542 1.58981 26.1559 1.86388 26.1808 2.3622C26.2057 3.38375 26.0811 4.50497 26.9781 5.32719C27.5262 4.97837 28.0245 4.67938 28.5229 4.35547C28.6474 4.75412 28.7471 5.05312 28.8219 5.32719C28.4232 5.6511 28.0245 5.99992 27.601 6.37366C28.772 7.61945 30.2171 8.24235 31.4879 9.06457C31.6124 9.01474 31.7121 9.01474 31.7619 8.96491C33.5559 7.42012 34.9761 5.57635 36.2468 3.60799C36.6205 3.03493 36.7451 2.38712 36.4212 1.68947Z" fill="black"/>
<path fill-rule="evenodd" clip-rule="evenodd" d="M6.07812 52C6.9931 53.0942 8.02499 54.1228 9.21872 55.0667C15.1187 59.8667 21.8187 62.0667 29.2187 61.7667C34.7187 61.5667 40.0187 60.5667 45.0187 58.0667C48.0764 56.5379 50.6488 54.4429 52.9541 52H50.2088C48.1915 53.8092 45.7738 55.3504 43.0187 56.6667C34.6187 60.6667 25.7187 61.1667 17.1187 57.6667C13.7623 56.2718 10.8619 54.3829 8.53344 52H6.07812Z" fill="#EB584A"/>
</svg>
