<svg width="127" height="117" viewBox="0 0 127 117" fill="none" xmlns="http://www.w3.org/2000/svg">
<path d="M17.4644 110H21.4244V99.74H23.2964C27.2564 99.74 29.2004 97.544 29.2004 93.512V91.028C29.2004 86.996 27.2564 84.8 23.2964 84.8H17.4644V110ZM21.4244 96.14V88.4H23.2964C24.5564 88.4 25.2404 88.976 25.2404 90.776V93.764C25.2404 95.564 24.5564 96.14 23.2964 96.14H21.4244ZM32.0712 110H36.0312V84.8H32.0712V110ZM45.4409 110.36C49.3289 110.36 51.4529 108.056 51.4529 104.024V90.776C51.4529 86.744 49.3289 84.44 45.4409 84.44C41.5529 84.44 39.4289 86.744 39.4289 90.776V104.024C39.4289 108.056 41.5529 110.36 45.4409 110.36ZM45.4409 106.76C44.1809 106.76 43.3889 106.076 43.3889 104.276V90.524C43.3889 88.724 44.1809 88.04 45.4409 88.04C46.7009 88.04 47.4929 88.724 47.4929 90.524V104.276C47.4929 106.076 46.7009 106.76 45.4409 106.76ZM57.8064 110H61.7664V88.4H65.9064V84.8H53.6664V88.4H57.8064V110ZM68.5437 110H72.5037V99.2H73.8717C75.6717 99.2 76.3557 99.956 76.3557 102.296V106.904C76.3557 108.956 76.4997 109.352 76.7157 110H80.7477C80.3517 109.064 80.3157 108.164 80.3157 106.94V102.512C80.3157 99.668 79.6677 97.796 77.6877 97.184V97.112C79.4517 96.392 80.2797 94.736 80.2797 92.144V90.596C80.2797 86.708 78.5157 84.8 74.4117 84.8H68.5437V110ZM72.5037 95.6V88.4H74.3037C75.7077 88.4 76.3197 89.192 76.3197 90.992V92.936C76.3197 94.952 75.4197 95.6 73.9437 95.6H72.5037ZM83.7832 110H94.5832V106.4H87.7432V98.66H93.1792V95.06H87.7432V88.4H94.5832V84.8H83.7832V110ZM97.5813 110H101.541V101.972L103.125 98.768L106.473 110H110.613L105.825 94.052L110.541 84.8H106.581L101.541 95.42V84.8H97.5813V110Z" fill="white"/>
<path fill-rule="evenodd" clip-rule="evenodd" d="M38.7198 14.2149L30.0064 16.5407L32.4776 25.1786L28.4951 26.2743L24.8911 13.6283L37.6294 10.2309L38.7198 14.2149Z" fill="white"/>
<path d="M28.7031 15.5059C46.8985 26.7721 64.6266 38.2161 64.7899 72.3917" stroke="white" stroke-width="4"/>
</svg>
