<svg width="270" height="129" viewBox="0 0 270 129" fill="none" xmlns="http://www.w3.org/2000/svg">
<path d="M7.79168 122.999H16.1317V121.049H10.1917L16.1317 109.799V107.909H8.09168V109.829H13.7317L7.79168 121.109V122.999ZM27.5047 122.999C27.2947 122.129 27.1747 120.779 27.1747 118.889V112.169C27.1747 109.169 25.8847 107.609 23.0047 107.609C20.3047 107.609 18.7447 109.169 18.7447 111.989V112.319H20.8747V111.869C20.8747 110.369 21.6547 109.559 22.9747 109.559C24.2647 109.559 24.9247 110.309 24.9247 111.809V112.169C24.9247 113.189 24.5947 113.489 22.0747 114.629C19.3447 115.919 18.3247 117.239 18.3247 119.579C18.3247 121.859 19.6147 123.299 21.6847 123.299C23.3647 123.299 24.5947 122.459 25.1947 120.959C25.2547 121.919 25.3447 122.699 25.4347 122.999H27.5047ZM22.4647 121.319C21.2347 121.319 20.6047 120.569 20.6047 119.249C20.6047 117.929 21.2347 117.029 22.7347 116.279C24.0247 115.619 24.6247 115.259 24.9247 114.869V117.899C24.9247 120.059 23.9947 121.319 22.4647 121.319ZM35.1004 107.579L33.5104 109.259V101.999H31.2604V111.599L29.7304 113.219V115.589L31.2604 113.969V122.999H33.5104V111.629L35.1004 109.949V107.579ZM41.8443 123.299C44.6943 123.299 46.2843 121.529 46.2843 118.409V112.469C46.2843 109.349 44.6943 107.609 41.8443 107.609C38.9643 107.609 37.4043 109.349 37.4043 112.469V118.409C37.4043 121.529 38.9643 123.299 41.8443 123.299ZM41.8443 121.289C40.2843 121.289 39.6543 120.269 39.6543 118.619V112.259C39.6543 110.639 40.2843 109.619 41.8443 109.619C43.4043 109.619 44.0043 110.639 44.0043 112.259V118.619C44.0043 120.269 43.3743 121.289 41.8443 121.289ZM51.9271 105.749H54.1771V102.509H51.9271V105.749ZM48.7171 122.999H57.0571V121.049H51.1171L57.0571 109.799V107.909H49.0171V109.829H54.6571L48.7171 121.109V122.999ZM61.1108 127.949C63.1808 127.949 64.2008 127.049 64.7408 124.709L68.5508 107.909H66.4208L63.9608 119.399L61.2608 107.909H58.9508L62.8508 123.299L62.5508 124.379C62.2808 125.609 61.8308 125.939 60.7808 125.939C60.3308 125.939 59.9408 125.879 59.5808 125.699V127.649C60.0008 127.889 60.5708 127.949 61.1108 127.949ZM75.1377 123.299C78.0477 123.299 79.4577 121.469 79.4577 118.469V117.509H77.2677V118.679C77.2677 120.359 76.6377 121.289 75.1377 121.289C73.6377 121.289 73.0077 120.359 73.0077 118.679V112.199C73.0077 110.519 73.6377 109.619 75.1377 109.619C76.6377 109.619 77.2677 110.519 77.2677 112.199V113.069H79.4577V112.409C79.4577 109.409 78.0477 107.609 75.1377 107.609C72.2577 107.609 70.7277 109.319 70.7277 112.409V118.469C70.7277 121.559 72.2577 123.299 75.1377 123.299ZM82.4089 105.749H84.6589V102.509H82.4089V105.749ZM82.4089 122.999H84.6589V107.909H82.4089V122.999ZM92.3059 107.609C89.3959 107.609 87.8359 109.349 87.8359 112.469V118.409C87.8359 121.529 89.3959 123.299 92.3059 123.299C95.1859 123.299 96.7759 121.529 96.7759 118.409V118.169H94.5859V118.619C94.5859 120.449 93.8059 121.289 92.3359 121.289C90.8659 121.289 90.1159 120.449 90.1159 118.619V115.799H96.7759V112.469C96.7759 109.349 95.1859 107.609 92.3059 107.609ZM90.1159 113.939V112.259C90.1159 110.459 90.8659 109.619 92.3059 109.619C93.7459 109.619 94.5559 110.459 94.5559 112.259V113.939H90.1159ZM99.8394 122.999H102.089V101.999H99.8394V122.999ZM111.059 122.999H113.399V113.969H115.649C118.889 113.969 120.389 112.289 120.389 108.899V107.099C120.389 103.709 118.889 101.999 115.649 101.999H111.059V122.999ZM113.399 111.839V104.129H115.649C117.299 104.129 118.049 104.879 118.049 106.949V109.019C118.049 111.089 117.299 111.839 115.649 111.839H113.399ZM126.864 123.299C129.564 123.299 131.064 121.679 131.064 119.099C131.064 116.399 129.204 115.409 127.524 114.539C126.084 113.819 124.824 113.129 124.824 111.599C124.824 110.219 125.694 109.559 126.744 109.559C127.884 109.559 128.664 110.219 128.664 111.749V112.109H130.794V111.809C130.794 109.169 129.174 107.609 126.714 107.609C124.134 107.609 122.634 109.169 122.634 111.629C122.634 114.419 124.524 115.379 126.204 116.279C127.584 116.969 128.814 117.659 128.814 119.129C128.814 120.659 127.974 121.319 126.744 121.319C125.514 121.319 124.674 120.629 124.674 119.009V118.439H122.484V118.949C122.484 121.679 124.104 123.299 126.864 123.299ZM133.88 105.749H136.13V102.509H133.88V105.749ZM133.88 122.999H136.13V107.909H133.88V122.999ZM139.607 122.999H144.527C147.797 122.999 149.357 121.349 149.357 118.109V116.309C149.357 113.969 148.577 112.439 146.687 111.899V111.839C148.277 111.269 149.027 109.889 149.027 107.639V106.769C149.027 103.499 147.617 101.999 144.287 101.999H139.607V122.999ZM141.947 110.969V104.129H144.227C145.967 104.129 146.687 104.969 146.687 107.009V108.089C146.687 110.189 145.757 110.969 143.927 110.969H141.947ZM141.947 120.869V113.099H144.047C146.177 113.099 147.017 113.939 147.017 116.249V118.049C147.017 120.059 146.237 120.869 144.527 120.869H141.947ZM158.697 107.909V117.929C158.697 120.179 157.677 121.289 156.327 121.289C155.007 121.289 154.437 120.389 154.437 118.649V107.909H152.157V118.919C152.157 121.949 153.417 123.299 155.637 123.299C157.167 123.299 158.367 122.459 158.967 120.989L158.997 122.999H160.947V107.909H158.697ZM169.13 103.709C169.55 103.709 169.94 103.769 170.39 103.949V101.999C169.85 101.759 169.37 101.699 168.71 101.699C166.49 101.699 165.41 102.839 165.41 105.119V107.909H163.49V109.829H165.41V122.999H167.66V109.829H170.39V107.909H167.66V105.389C167.66 104.159 168.08 103.709 169.13 103.709ZM176.895 107.609C173.985 107.609 172.425 109.349 172.425 112.469V118.409C172.425 121.529 173.985 123.299 176.895 123.299C179.775 123.299 181.365 121.529 181.365 118.409V118.169H179.175V118.619C179.175 120.449 178.395 121.289 176.925 121.289C175.455 121.289 174.705 120.449 174.705 118.619V115.799H181.365V112.469C181.365 109.349 179.775 107.609 176.895 107.609ZM174.705 113.939V112.259C174.705 110.459 175.455 109.619 176.895 109.619C178.335 109.619 179.145 110.459 179.145 112.259V113.939H174.705ZM190.339 109.829V107.909H187.609V103.559H185.659L185.419 107.909H183.469V109.829H185.329V119.849C185.329 122.159 186.409 123.299 188.659 123.299C189.319 123.299 189.799 123.239 190.339 122.999V121.049C189.889 121.229 189.469 121.289 189.079 121.289C187.999 121.289 187.609 120.809 187.609 119.609V109.829H190.339Z" fill="white"/>
<path d="M41.6291 83H47.1291V68.75H49.7291C55.2291 68.75 57.9291 65.7 57.9291 60.1V56.65C57.9291 51.05 55.2291 48 49.7291 48H41.6291V83ZM47.1291 63.75V53H49.7291C51.4791 53 52.4291 53.8 52.4291 56.3V60.45C52.4291 62.95 51.4791 63.75 49.7291 63.75H47.1291ZM61.8674 54.35H67.1674V48.55H61.8674V54.35ZM61.8674 83H67.1674V57.5H61.8674V83ZM79.5912 83.5C84.5912 83.5 87.3912 80.5 87.3912 75.2V65.3C87.3912 60 84.5912 57 79.5912 57C74.5912 57 71.7912 60 71.7912 65.3V75.2C71.7912 80.5 74.5912 83.5 79.5912 83.5ZM79.5912 78.8C77.6912 78.8 77.0912 77.5 77.0912 75.7V64.8C77.0912 63.05 77.6412 61.7 79.5912 61.7C81.5412 61.7 82.0912 63.05 82.0912 64.8V75.7C82.0912 77.5 81.4912 78.8 79.5912 78.8ZM102.592 62V57.5H98.7424V50.6H94.1924L93.6924 57.5H90.5424V62H93.4424V77.3C93.4424 81.45 95.4924 83.5 99.6924 83.5C100.792 83.5 101.692 83.35 102.592 83V78.5C101.942 78.7 101.342 78.8 100.792 78.8C99.2924 78.8 98.7424 78.2 98.7424 76.6V62H102.592ZM116.217 57C113.617 57 111.967 58.6 111.267 61.8L111.167 57.5H106.567V83H111.867V68.3C111.867 64.35 113.417 62.3 116.367 62.3C116.817 62.3 117.317 62.35 117.717 62.45V57.3C117.317 57.1 116.867 57 116.217 57ZM128.442 57C123.342 57 120.592 60 120.592 65.3V75.2C120.592 80.5 123.342 83.5 128.442 83.5C133.542 83.5 136.292 80.5 136.292 75.2V74.75H131.192V75.7C131.192 77.95 130.242 78.8 128.542 78.8C126.792 78.8 125.892 77.95 125.892 75.7V71.4H136.292V65.3C136.292 60 133.542 57 128.442 57ZM125.892 67.2V64.8C125.892 62.55 126.842 61.7 128.492 61.7C130.142 61.7 131.092 62.55 131.092 64.8V67.2H125.892ZM152.243 83H157.943L151.743 66.9L157.643 57.5H151.993L146.093 68.2V48H140.793V83H146.093V75.65L148.193 72.3L152.243 83Z" fill="white"/>
<path fill-rule="evenodd" clip-rule="evenodd" d="M248.979 22.6777L252.565 33.4585L241.763 36.839L243.368 41.789L259.172 36.8253L253.927 21.0666L248.979 22.6777Z" fill="white"/>
<path d="M254.555 34.1133C230.098 22.7653 205.779 12.0323 169.698 35.5254" stroke="white" stroke-width="5.03918"/>
</svg>
