<svg width="60" height="62" viewBox="0 0 60 62" fill="none" xmlns="http://www.w3.org/2000/svg">
<g clip-path="url(#clip0_10080_6292)">
<path d="M59.0962 35.3999C58.7962 37.7999 58.2962 40.3999 57.9962 42.9999C57.4962 46.2999 55.6962 48.8999 53.6962 51.1999C51.1962 53.9999 48.3962 56.3999 44.9962 58.0999C39.9962 60.5999 34.6962 61.5999 29.1962 61.7999C21.7962 62.0999 15.0962 59.8999 9.19618 55.0999C4.89618 51.6999 2.69618 47.1999 0.496178 42.4999C0.196178 41.6999 -0.103822 40.6999 -0.00382226 39.8999C0.196178 36.6999 0.196178 33.2999 1.19618 30.2999C2.59618 26.3999 3.69618 22.4999 5.99618 18.9999C8.49618 15.0999 11.2962 11.9999 15.0962 9.49992C18.2962 7.19992 21.7962 5.79992 25.7962 5.49992C26.3962 5.49992 26.9962 5.39992 27.5962 5.39992C36.8962 3.79992 44.3962 7.59992 50.9962 13.5999C54.9962 17.0999 56.6962 21.9999 57.8962 26.8999C58.5962 29.2999 58.6962 32.2999 59.0962 35.3999ZM56.9962 35.0999C57.1962 27.7999 55.1962 21.2999 50.2962 15.5999C45.8962 10.4999 40.0962 7.39992 33.4962 6.89992C27.0962 6.29992 21.1962 8.29992 16.2962 12.2999C10.3962 17.0999 6.29618 23.2999 3.69618 30.1999C2.49618 33.2999 1.99618 37.0999 2.59618 40.2999C4.09618 48.6999 9.39618 54.4999 17.0962 57.6999C25.6962 61.1999 34.5962 60.6999 42.9962 56.6999C51.9962 52.3999 57.3962 45.6999 56.9962 35.0999Z" fill="#EB584A"/>
<path d="M46.5 24.0994C46.9 23.6994 47.2 23.1994 47.4 22.5994C47.4 22.4994 47.5 22.2994 47.6 22.2994C47.8 22.0994 48.1 22.3994 48.3 22.5994C48.9 23.2994 49.5 23.9994 49.9 24.7994C50.3 25.5994 50.4 26.5994 50 27.3994C49.9 27.5994 49.7 27.7994 49.5 27.7994C49.4 27.7994 49.3 27.6994 49.2 27.5994C48.2 26.3994 47.3 25.1994 46.5 24.0994Z" fill="white"/>
<path d="M10.3 50.3996C9.1 46.8996 11.9 42.8996 10.5 39.4996C9.9 38.0996 8.7 36.9996 7.5 36.0996C9.1 34.8996 10.5 33.4996 11.6 31.7996C11.8 32.9996 13.1 33.8996 14.3 33.9996C15.6 34.0996 16.8 33.5996 17.9 32.9996C19.3 32.2996 20.7 31.1996 20.9 29.6996C21.1 28.7996 20.7 27.7996 21.1 26.8996C21.4 26.2996 21.9 25.8996 22.4 25.4996C24 24.1996 25.7 22.9996 27.3 21.6996C28.2 20.9996 29.2 20.2996 30.4 20.1996C33 20.0996 34.4 23.1996 36.8 24.0996C37.3 24.2996 37.9 24.3996 38.4 24.5996C39.7 25.2996 40 27.0996 40.8 28.2996C41.9 29.7996 44 30.6996 44.4 32.4996C44.5 32.9996 44.5 33.4996 44.6 33.9996C45.2 36.2996 48.4 36.8996 49.1 39.0996C49.7 41.0996 47.8 42.9996 45.9 44.0996C41.3 46.5996 35.8 47.1996 30.5 47.4996C25.2 47.6996 19.9 47.5996 14.7 48.9996" fill="white"/>
<path d="M19.9966 31.7002C20.3966 31.5002 20.7966 31.4002 21.0966 31.0002C21.6966 30.3002 21.2966 29.3002 21.2966 28.4002C21.2966 27.0002 22.2966 25.6002 23.6966 25.2002C23.7966 25.2002 23.8966 25.2002 23.9966 25.2002C24.0966 25.3002 24.1966 25.4002 24.1966 25.5002C25.3966 28.2002 26.5966 31.0002 27.0966 34.0002C27.2966 35.2002 27.2966 36.5002 26.5966 37.4002C26.0966 38.0002 25.3966 38.4002 24.6966 38.7002C21.7966 39.9002 17.8966 39.7002 16.0966 36.8002C13.9966 33.6002 17.4966 32.7002 19.9966 31.7002Z" fill="#BBBBBA"/>
<path d="M14.4937 35.4996L30.2937 37.1996L42.8938 36.5996L49.1938 35.4996L55.1938 48.0996L55.0938 53.2996L48.6938 55.8996L28.4937 57.7996L10.7938 56.6996L4.09375 53.4996L9.79375 37.2996L11.2938 38.1996V41.2996L13.2938 35.0996L14.4937 35.4996Z" fill="#F15748"/>
<path d="M49.1973 35.5C50.0974 35.7 50.5974 36.4 50.8974 37.2C51.7974 39.6 52.6973 42 53.5973 44.4C54.0973 45.6 54.5974 46.8 55.1973 48.1C55.7973 49.4 55.9973 50.8 55.7973 52.3C55.6973 52.7 55.3973 53 55.0973 53.3C53.7973 54.4 52.2973 54.9 50.7973 55.4C45.0973 57 39.2973 57.7 33.4973 57.9C31.4973 58 29.3973 57.9 27.3973 57.9C24.1973 57.9 20.8973 57.8 17.6973 57.9C14.5973 58 11.7973 57 8.89735 56.3C6.99735 55.9 5.49735 54.9 4.09735 53.6C3.59735 53.1 3.49735 52.7 3.59735 52C4.29735 49.5 5.19735 47.1 6.19735 44.8C6.99735 43 7.59735 41.3 8.29735 39.6C8.39735 39.3 8.49735 39 8.59735 38.8C8.79735 38.6 9.09735 38.4 9.29735 38.5C9.49735 38.6 9.69735 38.9 9.69735 39.1C9.59735 39.6 9.39735 40.1 9.19735 40.6C7.99735 43.4 6.99735 46.4 6.09735 49.4C6.09735 49.5 6.09735 49.6 6.09735 49.8C8.19735 50.9 10.5973 50.8 12.8973 51.6C15.1973 52.3 17.5973 52.5 19.8973 52.6C22.2973 52.7 24.5973 52.7 26.9973 53.1C26.7973 53.2 26.5973 53.3 26.2973 53.3C22.8973 53.2 19.5973 53.2 16.1973 53C15.0973 52.9 14.0973 52.5 12.9973 52.3C11.4973 52 9.99735 51.7 8.39735 51.3C7.99735 52.5 7.69735 53.5 7.39735 54.5C7.49735 53.4 7.59735 52.4 7.69735 51.3C7.29735 51.2 6.99735 51.1 6.69735 51C6.29735 50.9 5.99735 50.9 5.59735 50.9C4.89735 52.6 4.89735 52.9 6.19735 53.9C6.59735 54.2 6.99735 54.3 7.39735 54.5C7.99735 54.8 8.49735 55.1 9.29735 55.5C9.39735 54.5 9.39735 53.7 9.49735 53C9.59735 53 9.59735 53 9.69735 53C9.69735 53.8 9.79735 54.5 9.79735 55.4C11.2973 56 12.9973 56.2 14.5973 56.3C17.4973 56.5 20.3973 56.6 23.2973 56.6C25.4973 56.6 27.6973 56.5 29.8973 56.4C32.3973 56.3 34.8974 56.3 37.3974 56.1C40.8974 55.8 44.2973 55.5 47.6973 54.9C49.4973 54.6 51.1973 53.9 52.8974 53.3C53.4973 53.1 54.4973 52.7 54.6973 52.3C54.8974 51.4 54.8973 50.3 54.5973 49.4C53.9973 47.4 53.0974 45.5 52.3974 43.6C51.7974 41.9 51.1973 40.1 50.4973 38.4C50.2973 37.8 49.9973 37.2 49.1973 37.5C49.6973 36.7 49.2973 36.1 49.1973 35.5Z" fill="black"/>
<path d="M14.1937 34.6C12.9937 34.1 12.3937 30.5 12.3937 29.5C12.2937 29.5 12.1938 28.3 12.0938 28.3C11.9938 28.2 11.7937 29.2 11.6937 29.1C11.6937 29.1 11.6938 29.1 11.5938 29C11.5938 29 11.5938 29 11.5938 29.1C11.4938 29.7 10.8937 32.8 10.3937 33.3C9.49375 34.1 8.59375 35 7.59375 36C8.49375 36.5 9.19375 36.9 9.79375 37.4C10.7938 38.1 11.3938 39 10.9938 40.3C10.7938 41 10.5938 41.8 11.0938 42.7C11.8938 42.1 11.9938 41.3 11.9938 40.5C11.9938 39.3 12.1937 38.1 12.6937 37C12.9938 36.2 13.3938 35.6 14.4938 35.6C14.6937 35.6 14.8938 35.5 14.9938 35.5C14.7938 35.1 14.7937 35 14.6937 35C14.4938 34.8 14.3937 34.7 14.1937 34.6ZM11.5938 37.7C10.5938 37.1 9.69375 36.5 8.59375 35.8C9.59375 34.9 10.4938 34 11.5938 33.1C11.9938 33.7 12.4937 34.3 12.8937 34.9C12.4937 35.8 11.9938 36.7 11.5938 37.7Z" fill="black"/>
<path d="M49.0984 34.6996C48.9984 34.6996 48.8984 34.5996 48.7984 34.5996C48.6984 34.5996 48.6984 34.5996 48.5984 34.5996C48.2984 34.6996 47.9984 34.6996 47.6984 34.7996C47.3984 35.0996 46.9984 35.2996 46.5984 35.3996C43.2984 36.3996 39.8984 36.5996 36.3984 36.4996C35.7984 36.4996 35.1984 36.4996 34.5984 36.5996C33.5984 36.5996 32.4984 36.5996 31.4984 36.5996C30.0984 36.4996 28.7984 36.1996 27.3984 36.1996C24.1984 36.1996 20.9984 35.9996 17.8984 35.3996C17.1984 35.2996 16.3984 35.0996 15.3984 35.5996C15.7984 35.7996 15.9984 35.9996 16.2984 36.0996C18.2984 36.3996 20.1984 36.7996 22.1984 36.8996C26.9984 37.1996 31.6984 37.2996 36.4984 37.4996C37.7984 37.4996 39.0984 37.4996 40.2984 37.3996C43.2984 37.1996 46.2984 36.5996 49.1984 35.5996C49.0984 35.1996 49.0984 34.8996 49.0984 34.6996Z" fill="black"/>
<path d="M32.5 52.2994C33.3 51.6994 34.2 51.6994 35.1 51.5994C36.3 51.4994 37.6 51.3994 38.8 51.2994C42.8 51.0994 46.6 50.0994 50.4 48.9994C51.4 48.6994 52.3 48.2994 53.4 47.8994C53.4 48.5994 53.1 48.7994 52.8 48.8994C49.8 49.7994 46.7 50.7994 43.6 51.4994C41 51.9994 38.2 52.0994 35.6 52.3994C34.6 52.4994 33.6 52.5994 32.7 52.6994C32.5 52.4994 32.5 52.3994 32.5 52.2994Z" fill="black"/>
<path d="M50.1 39.2002C49 39.6002 47.8 40.0002 46.5 40.4002C47.4 39.6002 48.6 39.1002 50.1 39.2002Z" fill="black"/>
<path d="M49.2984 37.2998C48.3984 37.6998 47.4984 38.1998 46.4984 38.3998C46.4984 38.2998 46.3984 38.1998 46.3984 38.0998C47.2984 37.7998 48.2984 37.4998 49.2984 37.2998Z" fill="black"/>
<path d="M13.9937 35.8999C15.3937 34.9999 16.6937 34.1999 18.5938 35.3999C19.1937 34.4999 19.1937 34.3999 18.3937 34.0999C17.6937 33.7999 16.9938 33.6999 16.1938 33.4999C16.6938 32.6999 17.5938 32.2999 18.6938 32.1999C19.6938 32.0999 20.6938 32.0999 21.6938 32.0999C22.0938 32.0999 22.4937 31.9999 22.9937 31.8999C22.5938 31.3999 22.2937 31.0999 21.9937 30.6999C21.3937 29.7999 21.4937 29.5999 22.4937 28.9999C22.9937 28.6999 23.5938 28.4999 24.0938 28.1999C23.9937 28.0999 23.9937 28.0999 23.8937 27.9999C23.0937 28.2999 22.1938 28.5999 21.1938 28.8999C21.2938 27.4999 23.1937 27.7999 23.9937 26.8999C22.9937 27.1999 22.1937 27.3999 21.3937 27.5999C21.4937 25.9999 22.6938 24.8999 24.0938 24.0999C24.8938 23.6999 26.0937 23.6999 26.7937 23.1999C27.4937 22.6999 27.6938 21.7999 28.1938 21.0999C28.9938 19.9999 30.2938 20.2999 31.1938 20.7999C31.6938 21.0999 32.0938 21.5999 32.4937 22.0999C32.6938 22.2999 32.7938 22.5999 32.8938 22.8999C33.1938 22.8999 33.4937 22.8999 33.7937 22.8999C34.8937 22.7999 35.7937 23.1999 36.5937 23.8999C38.1937 25.3999 39.3938 27.0999 39.3938 29.0999C39.3938 29.3999 39.4937 29.7999 39.5937 30.0999C39.5937 30.1999 39.7937 30.1999 39.9937 30.3999C40.2937 30.0999 40.4938 29.8999 40.8938 29.5999C42.0938 30.3999 43.2937 31.0999 43.5937 32.2999C43.8937 33.5999 42.9937 34.5999 41.9937 35.5999C42.1938 35.5999 42.3937 35.6999 42.4937 35.6999C43.6938 35.4999 44.6938 35.5999 45.5938 35.9999C45.9938 35.8999 46.3937 35.7999 46.7937 35.7999C45.9937 35.3999 45.0937 34.9999 44.0937 34.7999C44.3937 33.5999 44.9937 32.2999 44.0937 31.1999C43.1937 30.1999 42.3938 28.9999 40.3938 28.8999C40.0938 26.5999 38.9937 24.7999 37.0937 23.1999C36.6937 22.8999 36.1937 22.4999 35.7937 22.4999C34.0937 22.4999 33.1938 21.6999 32.4937 20.6999C32.2937 20.3999 31.7937 20.1999 31.3937 19.9999C29.5938 19.1999 28.5938 19.4999 27.4937 20.7999C27.2937 21.0999 26.9937 21.3999 26.8937 21.6999C26.5937 22.1999 26.1937 22.3999 25.4937 22.5999C23.0938 23.1999 21.2937 24.3999 20.4937 26.2999C19.8937 27.7999 19.5937 29.1999 19.9937 30.7999C19.3937 30.8999 18.8937 30.8999 18.3937 31.0999C16.6937 31.5999 14.9937 32.1999 14.6937 33.8999C14.6937 34.1999 14.3937 34.4999 14.0938 34.6999C13.6938 34.9999 13.2938 35.2999 13.0938 35.6999C13.2938 35.6999 13.6937 35.7999 13.9937 35.8999Z" fill="black"/>
<path d="M48.6969 18.0998C48.6969 18.6998 48.6969 19.3998 48.6969 19.9998C48.6969 20.5998 48.5969 21.1998 48.5969 21.7998C48.5969 23.1998 49.3969 23.9998 50.8969 24.2998C51.2969 24.3998 51.5969 24.5998 52.2969 24.8998C50.0969 25.7998 49.8969 27.3998 50.2969 29.0998C50.3969 29.7998 50.3969 30.4998 50.2969 31.2998C50.1969 31.8998 49.9969 32.3998 49.0969 32.4998C49.0969 31.6998 49.0969 30.8998 49.0969 30.0998C49.0969 29.4998 49.1969 28.8998 49.0969 28.2998C48.8969 26.6998 47.8969 25.8998 46.3969 25.8998C45.8969 25.8998 45.4969 25.8998 44.7969 25.8998C45.4969 24.9998 46.0969 24.2998 46.6969 23.5998C47.3969 22.7998 47.7969 21.8998 47.5969 20.6998C47.4969 19.9998 47.6969 19.1998 47.7969 18.3998C47.7969 18.1998 48.1969 17.9998 48.3969 17.7998C48.3969 17.9998 48.5969 18.0998 48.6969 18.0998ZM49.3969 26.2998C49.6969 24.6998 48.4969 24.2998 47.7969 23.3998C47.3969 23.9998 47.0969 24.4998 46.7969 24.8998C47.6969 25.3998 48.4969 25.7998 49.3969 26.2998Z" fill="black"/>
<path d="M28.3984 27.0996C28.3984 26.1996 28.8984 25.5996 29.4984 25.5996C30.0984 25.6996 30.2984 26.0996 30.2984 26.5996C30.2984 27.2996 29.7984 27.4996 29.1984 27.5996C28.6984 27.6996 28.3984 27.4996 28.3984 27.0996Z" fill="black"/>
<path d="M23.3984 32.7999C23.9984 32.3999 24.3984 31.5999 24.9984 32.3999C25.3984 32.7999 25.1984 33.5999 24.6984 33.7999C23.8984 34.1999 23.5984 33.6999 23.3984 32.7999Z" fill="black"/>
<path d="M35.0938 32.3002C35.3938 31.5002 35.8938 31.3002 36.3938 31.6002C36.5938 31.7002 36.6938 32.3002 36.5938 32.4002C36.1938 32.9002 35.6938 32.6002 35.0938 32.3002Z" fill="black"/>
<path d="M35.0975 0.199805C34.6975 0.499805 34.1975 0.799805 33.7975 1.0998C32.1975 2.1998 30.6975 3.4998 29.3975 5.0998C29.2975 5.1998 29.1975 5.2998 29.0975 5.3998C27.5975 7.3998 28.1975 8.4998 30.1975 9.0998C30.4975 9.19981 30.7975 9.2998 31.0975 9.4998C32.2975 10.0998 32.5975 11.4998 31.8975 12.5998C31.3975 13.3998 29.1975 14.8998 27.9975 15.1998C28.1975 14.8998 28.1975 14.5998 28.3975 14.4998C28.8975 14.0998 29.3975 13.7998 29.8975 13.3998C30.2975 13.0998 30.7975 12.7998 31.0975 12.3998C31.8975 11.4998 31.5975 10.2998 30.4975 9.7998C29.8975 9.4998 29.2975 9.2998 28.6975 8.9998C27.4975 8.3998 27.0975 7.3998 27.6975 6.1998C27.8975 5.6998 28.1975 5.2998 28.4975 4.8998C29.9975 3.1998 31.4975 1.5998 33.4975 0.599805C33.9975 0.399805 34.4975 0.0998047 34.8975 -0.200195C34.9975 0.0998047 34.9975 0.0998047 35.0975 0.199805Z" fill="black"/>
<path d="M21.7985 3.40012C21.6985 3.60012 21.6985 3.70012 21.5985 3.80012C19.4985 4.50012 18.3985 6.30012 17.2985 8.10012C16.4985 9.40012 16.6985 10.1001 18.0985 10.8001C18.9985 11.2001 20.0985 11.4001 21.0985 11.7001C21.5985 11.8001 22.0985 11.8001 22.5985 12.0001C23.4985 12.3001 23.6985 13.0001 23.1985 13.8001C22.6985 14.7001 21.9985 15.5001 20.8985 16.2001C20.9985 15.6001 20.9985 15.4001 21.0985 15.2001C21.4985 14.7001 21.9985 14.2001 22.3985 13.7001C22.7985 13.2001 22.6985 12.8001 22.0985 12.6001C21.7985 12.5001 21.4985 12.4001 21.0985 12.4001C19.5985 12.3001 18.2985 11.8001 16.9985 11.0001C15.9985 10.4001 15.6985 9.80012 16.1985 8.80012C16.9985 7.10012 17.9985 5.60012 19.2985 4.30012C19.9985 3.60012 20.7985 3.20012 21.7985 3.40012Z" fill="black"/>
<path d="M43.3007 1.79972C41.9007 2.69972 40.8007 3.69972 39.8007 4.79972C39.6007 5.09972 39.3007 5.39972 39.1007 5.69972C37.9007 7.29972 38.1007 8.19972 39.9007 9.19972C40.1007 9.29972 40.3007 9.39972 40.5007 9.49972C42.0007 10.3997 42.4007 12.1997 41.2007 13.5997C40.4007 14.5997 39.2007 15.1997 37.9007 15.8997C38.1007 15.3997 38.1007 15.0997 38.2007 14.9997C38.7007 14.5997 39.3007 14.2997 39.8007 13.8997C41.6007 12.6997 41.6007 10.9997 39.7007 9.89972C39.3007 9.69972 39.0007 9.49972 38.6007 9.29972C37.2007 8.49972 36.9007 7.39972 37.8007 6.09972C38.7007 4.59972 40.1007 3.49972 41.5007 2.49972C42.1007 2.09972 42.6007 1.69972 43.3007 1.79972Z" fill="black"/>
</g>
<defs>
<clipPath id="clip0_10080_6292">
<rect width="60" height="62" fill="white"/>
</clipPath>
</defs>
</svg>
