<svg width="60" height="57" viewBox="0 0 60 57" fill="none" xmlns="http://www.w3.org/2000/svg">
<path d="M30.9203 43.3666L48.4203 48.6666C48.4203 48.6666 41.7203 55.8666 30.7203 55.8666C19.7203 55.8666 11.8203 50.3666 11.8203 50.3666L28.7203 43.2666L30.9203 43.3666Z" fill="white"/>
<path d="M59.1196 30.3667C58.8196 32.7667 58.3196 35.3667 58.0196 37.9667C57.5196 41.2667 55.7196 43.8667 53.7196 46.1667C51.2196 48.9667 48.4196 51.3667 45.0196 53.0667C40.0196 55.5667 34.7196 56.5667 29.2196 56.7667C21.8196 57.0667 15.1196 54.8667 9.21961 50.0667C4.91961 46.6667 2.71962 42.1667 0.519615 37.4667C0.219615 36.6667 -0.0803848 35.6667 0.0196152 34.8667C0.219615 31.6667 0.219615 28.2667 1.21962 25.2667C2.61962 21.3667 3.71962 17.4667 6.01962 13.9667C8.51962 10.0667 11.3196 6.96671 15.1196 4.46671C18.3196 2.16671 21.8196 0.766713 25.8196 0.466713C26.4196 0.466713 27.0196 0.366713 27.6196 0.366713C36.9196 -1.23329 44.4196 2.56671 51.0196 8.56671C55.0196 12.0667 56.7196 16.9667 57.9196 21.8667C58.6196 24.2667 58.7196 27.2667 59.1196 30.3667ZM57.0196 30.0667C57.2196 22.7667 55.2196 16.2667 50.3196 10.5667C45.9196 5.46671 40.1196 2.36671 33.5196 1.86671C27.1196 1.26671 21.2196 3.26671 16.3196 7.26671C10.4196 12.0667 6.31961 18.2667 3.71961 25.1667C2.51961 28.2667 2.01962 32.0667 2.61962 35.2667C4.11962 43.6667 9.41962 49.4667 17.1196 52.6667C25.7196 56.1667 34.6196 55.6667 43.0196 51.6667C52.0196 47.3667 57.4196 40.6667 57.0196 30.0667Z" fill="#EB584A"/>
<path d="M45.319 23.2666C45.319 23.1666 45.419 23.0666 45.419 22.9666C45.419 22.7666 45.419 22.6666 45.419 22.4666C45.419 22.3666 45.419 22.2666 45.419 22.1666C45.419 21.9666 45.419 21.8666 45.419 21.6666C45.319 21.3666 45.319 21.0666 45.319 20.6666C45.219 20.0666 45.219 19.3666 45.319 18.5666C45.319 18.1666 45.319 17.8666 45.419 17.4666V17.2666C45.419 16.9666 45.419 16.6666 45.419 16.4666C45.419 15.5666 45.319 14.6666 45.219 13.6666C45.119 13.2666 45.119 12.9666 45.019 12.6666C44.919 12.4666 44.819 12.2666 44.819 12.0666C44.619 11.6666 44.519 11.1666 44.519 10.7666V10.6666L44.319 10.2666C44.219 10.0666 44.119 9.8666 44.019 9.6666C44.019 9.6666 44.019 9.6666 44.119 9.5666H44.019C44.019 9.5666 44.019 9.4666 43.919 9.4666L43.819 9.2666H43.619L43.819 9.0666L41.419 6.0666C40.919 5.4666 40.419 4.7666 39.719 4.2666C38.819 3.8666 38.219 3.5666 37.519 3.2666C36.919 3.0666 36.319 2.7666 35.819 2.5666C34.919 2.1666 33.919 1.7666 32.919 1.5666C31.119 1.1666 29.219 1.2666 27.419 1.3666V1.2666L26.419 1.3666C26.219 1.3666 26.019 1.4666 25.819 1.4666C25.619 1.5666 25.319 1.6666 25.119 1.6666L24.219 2.0666C23.619 2.3666 22.919 2.5666 22.419 3.0666L22.219 3.2666C22.119 3.3666 22.019 3.3666 22.019 3.4666C21.819 3.6666 21.519 3.7666 21.119 3.8666C21.019 3.9666 20.819 3.9666 20.719 4.0666C20.519 4.1666 20.219 4.2666 20.019 4.4666H19.919C19.819 4.4666 19.719 4.4666 19.719 4.5666C19.619 4.5666 19.519 4.5666 19.319 4.5666L18.419 4.4666V4.9666H18.019C18.019 5.6666 17.919 6.4666 17.819 7.1666C17.819 7.4666 17.719 7.7666 17.719 7.9666C17.619 7.9666 17.519 7.9666 17.419 7.9666C17.119 7.9666 17.019 8.2666 16.919 8.6666C16.919 8.8666 16.819 8.9666 16.819 9.1666C16.819 9.2666 16.819 9.3666 16.819 9.3666C16.819 9.4666 16.819 9.5666 16.719 9.7666V9.8666C16.719 10.0666 16.719 10.1666 16.719 10.2666V10.4666L16.619 10.6666C16.019 12.2666 15.519 13.9666 15.219 15.6666C15.019 17.3666 15.019 18.9666 15.019 20.6666V21.9666C15.019 22.2666 15.019 22.6666 15.019 22.9666C14.219 23.0666 13.619 23.3666 13.319 24.2666C13.019 25.2666 13.319 25.8666 14.019 26.4666C14.319 26.7666 14.719 27.0666 15.019 27.4666C15.619 28.2666 15.719 27.9666 16.419 28.3666C17.219 27.5666 17.919 30.9666 18.419 31.5666C18.419 31.5666 19.019 33.3666 19.419 33.9666C20.419 35.5666 20.619 37.1666 21.919 38.7666C22.319 39.1666 22.719 39.5666 23.219 39.8666V40.2666C23.119 40.2666 23.119 40.1666 23.019 40.1666C22.719 42.0666 23.019 44.5666 23.019 46.1666C20.619 47.1666 18.619 47.7666 17.519 50.0666C17.219 50.6666 17.019 51.3666 16.919 52.0666C17.019 52.0666 17.219 52.1666 17.319 52.2666C17.419 52.3666 17.519 52.4666 17.619 52.4666L17.719 52.5666C17.919 52.6666 18.119 52.7666 18.319 52.9666C18.719 53.1666 21.619 52.9666 22.219 52.3666C24.619 50.7666 27.319 50.1666 30.019 49.8666C31.419 49.8666 32.419 49.8666 33.419 50.1666C35.619 50.3666 37.719 51.4666 39.419 52.6666C39.819 52.6666 40.119 52.5666 40.519 52.5666C41.119 52.4666 41.719 52.2666 42.219 51.9666C42.619 51.7666 43.119 51.5666 43.519 51.3666C43.819 50.0666 45.919 49.7666 46.619 49.2666C46.919 49.0666 48.119 48.7666 48.119 48.7666C47.319 48.1666 43.219 46.9666 38.219 45.2666C37.219 44.6666 38.119 43.3666 38.119 42.4666V38.6666C40.319 36.6666 41.319 34.2666 42.519 31.5666C42.619 31.2666 42.719 30.8666 42.819 30.5666C42.719 30.3666 42.819 30.1666 42.919 30.0666C43.119 29.8666 43.419 29.8666 43.619 30.0666C43.719 29.9666 43.819 29.8666 44.019 29.7666C44.219 29.6666 44.419 29.5666 44.619 29.4666C44.819 29.3666 45.119 29.1666 45.319 28.9666C45.619 28.0666 46.219 27.4666 46.619 26.6666C47.519 24.7666 47.319 24.1666 45.319 23.2666Z" fill="white"/>
<path d="M23.3172 11.2666C22.7172 11.5666 22.0172 12.1666 21.1172 12.4666C20.8172 12.7666 20.5172 13.0666 20.1172 13.3666C20.2172 13.3666 20.3172 13.2666 20.4172 13.2666C20.8172 13.0666 21.2172 12.9666 21.6172 12.9666C22.2172 12.4666 22.7172 12.0666 23.2172 11.5666C23.3172 11.2666 23.3172 11.2666 23.3172 11.2666Z" fill="#020203"/>
<path d="M43.1219 13.7666C42.5219 14.0666 41.8219 14.6666 40.9219 14.9666C40.6219 15.2666 40.3219 15.5666 39.9219 15.8666C40.0219 15.8666 40.1219 15.7666 40.2219 15.7666C40.6219 15.5666 41.0219 15.4666 41.4219 15.4666C42.0219 14.9666 42.5219 14.5666 43.0219 14.0666C43.1219 13.7666 43.1219 13.7666 43.1219 13.7666Z" fill="#020203"/>
<path d="M35.9219 5.36719C36.6219 5.16719 37.3219 4.66719 38.2219 4.36719C38.5219 4.06719 38.2219 4.16719 38.6219 3.96719C38.5219 3.96719 38.3219 4.06719 38.2219 4.06719C37.8219 4.16719 38.1219 3.86719 37.7219 3.86719C37.0219 4.26719 36.5219 4.66719 35.9219 5.06719C35.9219 5.36719 35.9219 5.36719 35.9219 5.36719Z" fill="#020203"/>
<path d="M43.9203 9.66699C43.9203 9.66699 43.9203 9.76699 43.9203 9.66699C43.6203 9.86699 43.4203 10.067 43.3203 10.267C42.7203 10.467 42.2203 10.967 41.8203 11.167C41.8203 11.167 41.8203 11.167 41.8203 10.967C42.1203 10.667 42.4203 10.467 42.7203 10.167C42.8203 10.067 42.8203 10.067 42.9203 9.96699C43.2203 9.96699 43.5203 9.86699 43.8203 9.76699C43.7203 9.76699 43.8203 9.76699 43.9203 9.66699C43.8203 9.66699 43.9203 9.66699 43.9203 9.66699Z" fill="#020203"/>
<path d="M25.7234 10.667C25.1234 10.967 24.4234 11.567 23.5234 11.867C23.2234 12.167 22.9234 12.467 22.5234 12.767C22.6234 12.767 22.7234 12.667 22.8234 12.667C23.2234 12.467 23.6234 12.367 24.0234 12.367C24.6234 11.867 25.1234 11.467 25.6234 10.967C25.7234 10.667 25.7234 10.667 25.7234 10.667Z" fill="#020203"/>
<path d="M44.8179 22.1672C44.8179 22.2672 44.7179 22.3672 44.7179 22.4672C44.2179 23.9672 43.7179 25.6672 43.2179 27.4672C42.0179 30.9672 40.6179 34.7672 38.5179 37.2672C38.4179 37.2672 38.3179 37.0672 38.3179 36.8672C38.2179 36.3672 38.3179 35.6672 38.3179 35.3672V34.3672C38.7179 31.4672 40.7179 29.0672 41.0179 26.1672C41.4179 24.6672 36.4179 18.6672 40.3179 14.9672L40.4179 14.8672C40.6179 14.8672 40.8179 15.0672 41.0179 15.4672C41.0179 16.5672 41.0179 17.5672 41.0179 18.6672C41.0179 18.9672 41.0179 19.2672 41.2179 19.5672C41.3179 19.7672 41.4179 19.9672 41.6179 20.1672L41.7179 20.2672C41.9179 20.5672 42.1179 20.7672 42.2179 21.1672C42.3179 21.3672 42.4179 21.6672 42.5179 21.9672C42.5179 22.1672 42.6179 22.2672 42.6179 22.3672C42.6179 22.4672 42.7179 22.5672 42.7179 22.6672C42.8179 22.8672 42.8179 23.0672 42.8179 23.1672C42.8179 23.5672 42.9179 23.7672 43.0179 24.0672V24.1672C43.1179 24.5672 43.2179 24.8672 43.2179 25.1672C43.3179 24.9672 43.4179 24.7672 43.4179 24.5672V24.4672C43.5179 24.2672 43.6179 24.0672 43.7179 23.8672C43.8179 23.6672 44.0179 23.5672 44.1179 23.3672C44.3179 23.1672 44.5179 22.9672 44.5179 22.7672C44.5179 22.6672 44.5179 22.5672 44.5179 22.3672C44.5179 22.2672 44.5179 22.0672 44.5179 21.9672C44.5179 21.9672 44.5179 21.8672 44.5179 21.7672C44.4179 21.4672 44.4179 21.0672 44.4179 20.7672C44.4179 20.4672 44.4179 20.2672 44.3179 19.9672C44.5179 19.9672 44.7179 19.9672 44.9179 19.9672C45.2179 20.6672 45.1179 21.3672 44.8179 22.1672Z" fill="#BCBCBB"/>
<path d="M27.0234 46.8668C27.0234 47.1668 26.7234 47.1668 26.7234 47.1668C26.0234 47.1668 25.3234 46.5668 24.7234 46.1668C24.4234 46.0668 24.2234 45.9668 24.1234 45.7668C23.8234 45.5668 23.6234 45.2668 23.3234 44.8668C23.0234 44.5668 23.0234 43.8668 23.0234 43.2668V39.7668C23.0234 39.2668 23.9234 39.5668 24.9234 39.9668C25.9234 40.4668 26.9234 41.0668 27.1234 41.3668C27.1234 41.3668 27.2234 41.4668 27.2234 41.5668C28.1234 42.8668 27.4234 45.3668 27.0234 46.8668Z" fill="#BCBCBB"/>
<path d="M25.4219 24.2663C25.3219 25.2663 25.0219 25.4663 24.5219 25.6663C23.6219 25.8663 22.8219 25.9663 22.5219 25.2663C22.2219 24.5663 22.2219 23.8663 22.5219 23.3663C22.8219 22.9663 23.2219 22.7663 23.9219 22.8663C24.7219 22.9663 25.4219 23.2663 25.4219 24.2663Z" fill="#020203"/>
<path d="M32.5205 30.1672C31.5205 30.1672 30.4205 30.6672 29.5205 30.6672C28.5205 30.6672 28.1205 30.1672 28.5205 28.8672C28.5205 27.4672 28.8205 25.5672 28.8205 24.2672C28.8205 23.7672 28.8205 23.2672 29.1205 22.8672C29.8205 23.8672 29.4205 25.1672 29.4205 26.1672C29.4205 27.1672 29.3205 28.8672 29.3205 29.8672C30.3205 30.8672 31.5205 28.9672 32.2205 30.3672C32.5205 29.6672 32.5205 29.6672 32.5205 30.1672Z" fill="#020203"/>
<path d="M25.9187 21.3663C24.7187 21.1663 23.1187 20.4663 21.2188 21.1663C23.3187 19.5663 26.1187 19.5663 25.9187 21.3663Z" fill="#020203"/>
<path d="M38.4214 21.1663C36.5214 20.4663 34.9214 21.2663 33.7214 21.3663C33.6214 19.5663 36.4214 19.5663 38.4214 21.1663Z" fill="#020203"/>
<path d="M35.8203 22.8663C36.6203 22.7663 36.9203 22.9663 37.2203 23.3663C37.5203 23.7663 37.5203 24.4663 37.2203 25.2663C36.9203 25.9663 36.1203 25.8663 35.2203 25.6663C34.8203 25.4663 34.5203 25.3663 34.3203 24.2663C34.3203 23.2663 35.1203 22.9663 35.8203 22.8663Z" fill="#020203"/>
<path d="M30.8172 38.2668C30.5172 38.2668 30.1172 38.2668 30.1172 38.2668C30.1172 37.9668 30.1172 37.9668 30.4172 37.6668C30.4172 37.5668 30.4172 37.8668 30.8172 38.2668C30.8172 37.8668 30.8172 37.8668 30.8172 38.2668Z" fill="#020203"/>
<path d="M29.3219 34.0666C27.3219 33.8666 26.5219 33.5666 25.4219 33.0666C27.1219 35.7666 30.9219 36.1666 33.2219 34.5666C33.3219 34.5666 33.3219 34.4666 33.4219 34.4666C34.0219 34.1666 34.6219 33.3666 34.9219 32.7666C34.3219 32.9666 33.7219 33.3666 33.0219 33.5666C32.1219 34.1666 32.0219 33.9666 29.3219 34.0666Z" fill="#020203"/>
<path d="M41.3234 45.3672C40.8234 45.1672 39.9234 44.8672 39.0234 44.5672C38.6234 44.4672 38.5234 44.3672 38.4234 44.3672C38.1234 43.8672 38.0234 43.3672 38.0234 42.7672V38.9672C40.2234 36.9672 41.2234 34.5672 42.4234 31.8672C42.5234 31.5672 42.6234 31.1672 42.7234 30.8672C42.6234 30.6672 42.7234 30.4672 42.8234 30.3672C43.0234 30.1672 43.3234 30.1672 43.5234 30.3672C43.6234 30.2672 43.7234 30.1672 43.9234 30.0672C44.1234 29.9672 44.3234 29.8672 44.5234 29.7672C44.7234 29.6672 45.0234 29.4672 45.2234 29.2672C45.5234 28.3672 46.1234 27.7672 46.5234 26.9672C47.5234 24.7672 47.3234 24.1672 45.3234 23.2672H45.2234L45.1234 23.1672C45.1234 23.0672 45.2234 23.0672 45.2234 22.9672C45.2234 22.8672 45.3234 22.7672 45.3234 22.6672C45.3234 22.4672 45.3234 22.3672 45.3234 22.1672C45.3234 22.0672 45.3234 21.9672 45.3234 21.8672C45.5234 21.8672 45.4234 21.7672 45.4234 21.5672C45.3234 21.2672 45.3234 20.9672 45.3234 20.5672C45.2234 19.9672 45.2234 19.2672 45.3234 18.4672C45.3234 18.0672 45.3234 17.7672 45.4234 17.3672V17.1672C45.4234 16.8672 45.4234 16.5672 45.4234 16.3672C45.4234 15.4672 45.3234 14.5672 45.2234 13.5672C45.1234 13.1672 45.1234 12.8672 45.0234 12.5672C44.9234 12.3672 44.8234 12.1672 44.8234 11.9672C44.6234 11.5672 44.5234 11.0672 44.5234 10.6672V10.5672L44.3234 10.1672C44.2234 9.96719 44.1234 9.76719 44.0234 9.56719C44.0234 9.56719 44.0234 9.46719 43.9234 9.46719L43.8234 9.26719H43.6234H43.5234L43.6234 9.16719L41.2234 6.16719C40.7234 5.56719 40.2234 4.86719 39.5234 4.36719C38.8234 3.86719 38.2234 3.56719 37.6234 3.26719C37.1234 3.06719 36.5234 2.76719 35.9234 2.56719C35.0234 2.16719 34.0234 1.76719 33.0234 1.56719C31.3234 1.06719 29.5234 1.26719 27.8234 1.36719L26.2234 1.46719C26.0234 1.46719 25.8234 1.46719 25.6234 1.56719C25.3234 1.56719 25.1234 1.66719 24.9234 1.76719L24.0234 2.16719C23.4234 2.46719 22.7234 2.76719 22.2234 3.16719L22.0234 3.36719C22.0234 3.46719 21.9234 3.46719 21.8234 3.56719C21.5234 3.76719 21.2234 3.86719 20.9234 3.96719C20.8234 4.06719 20.6234 4.06719 20.5234 4.16719C20.3234 4.26719 20.0234 4.36719 19.8234 4.56719H19.7234C19.7234 4.66719 19.6234 4.66719 19.5234 4.66719C19.3234 4.66719 19.2234 4.66719 19.1234 4.66719L18.2234 4.56719V5.06719H17.7234C17.7234 5.76719 17.6234 6.46719 17.5234 7.26719C17.5234 7.46719 17.4234 7.76719 17.4234 8.06719C17.3234 8.06719 17.2234 8.06719 17.1234 8.06719C16.7234 8.06719 16.7234 8.36719 16.6234 8.76719C16.6234 8.96719 16.5234 9.06719 16.5234 9.26719C16.5234 9.26719 16.5234 9.36719 16.5234 9.46719C16.5234 9.56719 16.5234 9.66719 16.3234 9.66719V9.76719C16.3234 9.86719 16.3234 10.0672 16.3234 10.1672V10.3672V10.5672C16.3234 10.5672 16.3234 10.5672 16.3234 10.6672C15.7234 12.2672 15.2234 13.9672 14.9234 15.6672C14.7234 17.3672 14.7234 18.9672 14.7234 20.6672V21.9672C14.7234 22.2672 14.7234 22.6672 14.7234 22.9672C14.0234 23.0672 13.5234 23.3672 13.2234 24.2672C12.9234 25.2672 13.2234 25.8672 13.9234 26.4672C14.2234 26.7672 14.6234 27.0672 14.9234 27.4672C15.5234 28.2672 15.6234 27.9672 16.3234 28.3672C17.1234 27.5672 17.8234 30.9672 18.3234 31.5672C18.3234 31.5672 18.9234 33.3672 19.3234 33.9672C20.3234 35.5672 20.5234 37.1672 21.8234 38.7672C22.2234 39.1672 22.6234 39.5672 23.1234 39.8672C23.7234 40.2672 24.4234 40.6672 25.2234 40.9672C25.9234 41.1672 26.6234 41.3672 27.3234 41.6672C27.6234 41.7672 27.9234 41.8672 28.3234 41.9672C29.7234 42.2672 30.7234 42.9672 31.7234 42.2672C33.1234 41.2672 34.7234 41.0672 36.2234 39.9672C37.0234 39.2672 37.2234 39.1672 37.5234 38.8672V43.2672C37.8234 44.8672 37.2234 45.7672 35.8234 46.4672C34.4234 47.0672 33.1234 48.0672 31.7234 48.6672C31.0234 48.9672 30.7234 48.9672 30.0234 48.6672C28.6234 48.3672 27.6234 47.6672 26.3234 47.3672C25.3234 47.0672 24.6234 46.7672 23.9234 46.0672C24.0234 46.0672 24.1234 45.9672 24.1234 45.8672C25.0234 45.3672 25.6234 44.9672 26.2234 44.4672C26.2234 44.1672 26.2234 44.1672 26.2234 44.1672C25.5234 44.4672 24.5234 44.7672 23.8234 45.1672C23.8234 44.8672 23.8234 44.5672 23.8234 44.5672C24.8234 43.9672 25.5234 43.2672 26.2234 42.6672C26.2234 42.3672 26.2234 42.3672 26.2234 42.3672C25.5234 42.6672 24.8234 43.3672 23.8234 43.6672C23.5234 42.6672 23.5234 42.3672 23.5234 41.7672C23.5234 41.2672 23.5234 40.5672 23.0234 40.2672C22.9234 40.2672 22.9234 40.1672 22.8234 40.1672C22.5234 41.9672 22.8234 43.4672 22.8234 44.9672C22.6234 45.0672 22.4234 45.0672 21.8234 45.2672C20.9234 45.5672 20.0234 45.8672 19.5234 46.0672C18.9234 46.3672 18.1234 46.6672 17.3234 47.0672C15.9234 47.7672 12.7234 49.2672 11.5234 49.5672L12.5234 50.2672C13.8234 49.9672 16.2234 48.7672 17.7234 47.9672C18.5234 47.6672 19.2234 47.3672 19.9234 47.0672C20.3234 46.8672 21.2234 46.5672 22.1234 46.2672C22.4234 46.1672 22.6234 46.0672 22.6234 45.9672C22.6234 45.9672 22.6234 45.9672 22.7234 46.0672C22.8234 46.1672 22.8234 46.2672 22.8234 46.4672C24.3234 47.5672 27.4234 48.7672 29.1234 49.3672C29.2234 49.3672 29.2234 49.3672 29.3234 49.3672C29.6234 49.4672 29.9234 49.5672 30.2234 49.5672C30.5234 49.5672 30.9234 49.5672 31.2234 49.6672C31.5234 49.6672 31.7234 49.6672 32.0234 49.5672C32.2234 49.4672 32.3234 49.4672 32.5234 49.3672H32.4234H32.5234C33.4234 49.2672 34.2234 48.9672 34.6234 48.3672C34.3234 48.4672 34.0234 48.5672 33.7234 48.6672C35.4234 47.6672 37.3234 46.5672 38.3234 45.4672C38.3234 45.4672 38.3234 45.4672 38.4234 45.3672C38.5234 45.3672 38.6234 45.4672 38.8234 45.5672C39.7234 45.8672 40.6234 46.1672 41.1234 46.3672C43.0234 47.1672 46.0234 48.2672 48.0234 48.7672L48.7234 48.2672C46.8234 47.7672 43.2234 46.0672 41.3234 45.3672ZM45.4234 24.0672C45.7234 24.0672 46.1234 24.3672 46.1234 25.0672C45.8234 26.3672 45.1234 27.5672 43.7234 28.8672C43.7234 28.5672 43.4234 28.5672 43.4234 28.2672C43.7234 27.1672 44.1234 25.8672 44.4234 24.6672C44.7234 24.3672 44.7234 24.0672 45.4234 24.0672ZM43.1234 10.1672C43.1234 10.1672 43.1234 10.2672 43.2234 10.2672C43.3234 10.3672 43.3234 10.5672 43.4234 10.6672L43.5234 10.8672C43.5234 11.3672 43.7234 11.8672 43.9234 12.3672C44.0234 12.5672 44.1234 12.7672 44.1234 12.8672C44.2234 13.1672 44.2234 13.3672 44.3234 13.7672C44.5234 14.7672 44.5234 15.5672 44.5234 16.4672C44.5234 16.7672 44.5234 16.9672 44.5234 17.2672V17.4672C44.5234 17.8672 44.5234 18.1672 44.4234 18.5672C44.4234 19.0672 44.4234 19.5672 44.4234 19.9672C44.4234 20.2672 44.4234 20.4672 44.5234 20.7672C44.5234 21.1672 44.6234 21.4672 44.6234 21.7672C44.6234 21.8672 44.6234 21.9672 44.6234 21.9672C44.6234 22.0672 44.6234 22.2672 44.6234 22.3672C44.6234 22.4672 44.6234 22.5672 44.6234 22.7672C44.6234 22.9672 44.4234 23.1672 44.2234 23.3672C44.1234 23.5672 43.9234 23.6672 43.8234 23.8672C43.7234 24.0672 43.6234 24.2672 43.5234 24.4672V24.5672C43.4234 24.7672 43.3234 24.9672 43.3234 25.1672C43.2234 24.7672 43.2234 24.4672 43.1234 24.1672V24.0672C42.9234 23.7672 42.9234 23.4672 42.8234 23.1672C42.8234 23.0672 42.8234 22.8672 42.7234 22.6672C42.7234 22.5672 42.6234 22.4672 42.6234 22.3672C42.6234 22.1672 42.5234 22.0672 42.5234 21.9672C42.4234 21.6672 42.3234 21.4672 42.2234 21.1672C42.1234 20.8672 41.9234 20.5672 41.7234 20.2672L41.6234 20.1672C41.5234 19.9672 41.3234 19.7672 41.2234 19.5672C41.1234 19.3672 41.0234 19.0672 41.0234 18.6672C40.9234 17.6672 40.9234 16.5672 41.0234 15.4672V14.8672C41.0234 14.2672 41.1234 13.7672 41.1234 13.1672C41.2234 12.5672 41.2234 11.8672 41.0234 11.1672C41.0234 11.0672 41.0234 10.9672 40.9234 10.9672C40.9234 10.8672 40.8234 10.7672 40.8234 10.6672C41.3234 10.3672 41.8234 10.2672 42.5234 10.1672C42.6234 10.1672 42.7234 10.1672 42.8234 10.1672C42.9234 10.1672 43.0234 10.1672 43.1234 10.1672ZM17.1234 10.1672H17.2234C17.2234 10.0672 17.2234 9.96719 17.2234 9.96719C17.3234 9.76719 17.3234 9.66719 17.3234 9.56719V9.36719C17.3234 9.16719 17.4234 9.06719 17.4234 8.86719C17.5234 8.86719 17.6234 8.86719 17.5234 8.96719L18.0234 9.26719L18.1234 8.66719C18.2234 8.26719 18.2234 7.76719 18.3234 7.36719C18.4234 6.76719 18.5234 6.06719 18.5234 5.36719H18.6234H19.1234C19.2234 5.36719 19.3234 5.36719 19.4234 5.36719H19.6234C19.8234 5.36719 19.9234 5.36719 20.1234 5.26719C20.1234 5.26719 20.2234 5.16719 20.3234 5.16719L20.4234 5.06719C20.5234 4.96719 20.7234 4.86719 20.9234 4.76719C21.0234 4.66719 21.2234 4.56719 21.3234 4.56719C21.6234 4.46719 22.0234 4.26719 22.3234 4.06719C22.4234 4.06719 22.5234 3.96719 22.6234 3.86719L22.8234 3.76719C23.2234 3.36719 23.8234 3.06719 24.4234 2.86719L25.4234 2.46719C25.6234 2.36719 25.8234 2.36719 26.0234 2.26719C26.1234 2.26719 26.3234 2.16719 26.5234 2.16719L27.5234 2.06719V2.16719C29.3234 1.96719 31.1234 1.86719 32.8234 2.26719C33.8234 2.46719 34.7234 2.86719 35.6234 3.26719C36.1234 3.46719 36.7234 3.66719 37.3234 3.96719C37.3234 4.06719 37.4234 4.06719 37.4234 4.06719C37.6234 4.16719 37.9234 4.26719 38.1234 4.36719C38.4234 4.56719 38.7234 4.76719 39.0234 4.96719C39.6234 5.46719 40.1234 6.06719 40.6234 6.66719L42.7234 9.26719C42.6234 9.26719 42.6234 9.26719 42.6234 9.36719C41.8234 9.56719 41.2234 9.76719 40.5234 10.0672L40.3234 10.1672V10.4672C40.3234 10.5672 40.3234 10.6672 40.3234 10.7672L40.0234 10.8672H39.9234C40.0234 11.3672 39.9234 11.6672 39.7234 11.8672C39.5234 12.0672 39.1234 12.1672 38.7234 12.1672C38.4234 12.1672 38.0234 12.1672 37.7234 12.0672C37.6234 11.9672 37.4234 11.9672 37.3234 11.9672C36.3234 11.8672 35.2234 11.8672 34.2234 12.0672C33.6234 12.1672 33.1234 12.3672 32.5234 12.5672C31.8234 12.8672 31.0234 13.0672 30.3234 13.1672C29.0234 13.2672 27.7234 13.0672 26.5234 12.7672C26.2234 12.6672 25.9234 12.5672 25.6234 12.5672C25.2234 12.4672 24.8234 12.3672 24.3234 12.3672C24.0234 12.2672 23.7234 12.2672 23.3234 12.2672C23.0234 12.2672 22.8234 12.2672 22.5234 12.2672C21.9234 12.3672 21.3234 12.4672 20.8234 12.7672C20.8234 12.7672 20.8234 12.8672 20.7234 12.8672L20.3234 13.0672C20.1234 13.1672 20.0234 13.2672 19.8234 13.2672C19.7234 13.2672 19.7234 13.2672 19.7234 13.2672C19.6234 13.1672 19.5234 13.1672 19.3234 13.0672C19.2234 13.0672 19.0234 12.9672 18.8234 12.9672C18.6234 12.9672 18.3234 13.0672 18.1234 13.2672C18.0234 13.2672 18.0234 13.3672 17.9234 13.4672C17.7234 12.7672 17.5234 12.1672 17.4234 11.4672C17.3234 11.1672 17.3234 10.8672 17.2234 10.5672V10.2672L17.1234 10.1672ZM15.6234 27.2672C14.9234 26.6672 14.6234 26.1672 14.2234 25.5672C13.9234 25.2672 14.1234 24.9672 14.4234 24.6672C14.6234 24.4672 14.7234 24.5672 14.9234 24.5672C14.9234 24.6672 15.0234 24.6672 15.0234 24.7672C15.1234 24.9672 15.3234 25.0672 15.4234 25.2672L15.6234 25.4672C16.1234 26.0672 16.5234 26.6672 16.5234 27.1672C16.3234 27.2672 16.4234 27.5672 15.6234 27.2672ZM17.0234 25.0672C17.0234 25.1672 17.0234 25.2672 17.0234 25.4672C16.9234 25.3672 16.9234 25.2672 16.8234 25.2672C16.7234 25.1672 16.6234 25.0672 16.5234 24.8672L16.3234 24.6672C16.2234 24.5672 16.0234 24.4672 15.9234 24.2672C15.9234 24.1672 15.8234 24.1672 15.8234 24.0672C15.8234 24.0672 15.7234 23.9672 15.7234 23.8672C15.7234 23.8672 15.7234 23.7672 15.7234 23.6672V23.2672C15.7234 23.0672 15.7234 22.9672 15.7234 22.7672C15.7234 22.3672 15.7234 22.0672 15.7234 21.7672V20.8672V20.4672C15.7234 18.8672 15.6234 17.2672 15.8234 15.6672C16.0234 14.5672 16.3234 13.3672 16.7234 12.2672C16.7234 12.2672 16.7234 12.2672 16.7234 12.3672C16.7234 12.7672 16.8234 13.0672 16.9234 13.3672C17.0234 13.6672 17.2234 13.9672 17.3234 14.2672C17.3234 14.3672 17.4234 14.3672 17.4234 14.4672L17.6234 14.9672C17.6234 15.0672 17.7234 15.2672 17.7234 15.3672C17.6234 16.4672 17.6234 17.5672 17.7234 18.6672C17.7234 18.7672 17.8234 18.9672 17.8234 19.0672C17.9234 19.4672 17.9234 19.6672 17.8234 19.9672C17.7234 20.2672 17.6234 20.6672 17.4234 20.9672C17.4234 21.0672 17.3234 21.1672 17.3234 21.1672L17.2234 21.2672C17.1234 21.4672 17.0234 21.6672 17.0234 21.9672C17.2234 23.0672 17.1234 24.0672 17.0234 25.0672ZM31.5234 41.0672C31.2234 41.3672 30.5234 41.3672 30.1234 41.3672C28.3234 41.1672 26.5234 40.6672 24.9234 39.8672C24.4234 39.5672 23.8234 39.2672 23.3234 38.8672C20.9234 36.6672 19.9234 34.0672 18.9234 30.9672C18.4234 29.7672 17.9234 28.5672 17.5234 27.3672C17.4234 27.0672 17.3234 26.7672 17.2234 26.4672C17.3234 25.9672 17.3234 25.4672 17.4234 25.1672C17.5234 24.1672 17.6234 23.0672 17.4234 22.0672C17.4234 22.0672 17.5234 21.9672 17.5234 21.8672C17.5234 21.8672 17.5234 21.7672 17.6234 21.6672C17.7234 21.5672 17.7234 21.5672 17.7234 21.4672V21.3672C17.9234 20.9672 18.0234 20.5672 18.1234 20.2672C18.7234 19.9672 18.6234 19.5672 18.5234 19.1672C18.5234 19.0672 18.4234 18.9672 18.4234 18.7672C18.2234 17.7672 18.3234 16.6672 18.4234 15.6672C18.4234 15.2672 18.3234 14.9672 18.2234 14.6672C18.2234 14.5672 18.1234 14.5672 18.1234 14.4672C18.1234 14.1672 18.3234 13.8672 18.5234 13.6672C18.6234 13.5672 18.7234 13.5672 18.7234 13.5672C18.7234 13.5672 18.8234 13.6672 18.9234 13.6672H19.0234C19.1234 13.6672 19.2234 13.7672 19.2234 13.7672C19.3234 13.7672 19.4234 13.8672 19.5234 13.8672C19.6234 13.8672 19.7234 13.8672 19.9234 13.8672C20.2234 13.7672 20.4234 13.6672 20.6234 13.5672L21.0234 13.3672C22.3234 12.5672 24.0234 12.7672 25.4234 13.0672C25.7234 13.1672 26.0234 13.1672 26.3234 13.2672C27.6234 13.5672 28.9234 13.8672 30.3234 13.6672C31.2234 13.5672 31.9234 13.2672 32.7234 13.0672C33.3234 12.8672 33.8234 12.6672 34.4234 12.5672C35.3234 12.3672 36.3234 12.3672 37.2234 12.4672L37.6234 12.5672C37.9234 12.5672 38.3234 12.6672 38.7234 12.6672C39.4234 12.6672 40.0234 12.4672 40.3234 12.0672C40.3234 11.9672 40.4234 11.9672 40.4234 11.8672C40.5234 11.7672 40.6234 11.5672 40.6234 11.3672C40.6234 11.4672 40.7234 11.6672 40.7234 11.6672C40.8234 12.0672 40.8234 12.3672 40.7234 12.9672C40.6234 13.5672 40.6234 14.1672 40.5234 14.8672V15.4672V15.5672C40.5234 16.5672 40.5234 17.5672 40.6234 18.5672C40.6234 18.9672 40.7234 19.3672 40.9234 19.7672C41.0234 19.9672 41.2234 20.1672 41.3234 20.4672L41.4234 20.5672C41.6234 20.7672 41.7234 21.0672 41.8234 21.2672C41.9234 21.4672 42.0234 21.7672 42.0234 21.9672C42.0234 22.0672 42.1234 22.2672 42.2234 22.4672C42.2234 22.6672 42.3234 22.7672 42.4234 22.8672V22.9672C42.4234 23.0672 42.4234 23.0672 42.4234 23.0672C42.4234 23.3672 42.5234 23.7672 42.6234 24.0672V24.2672C42.8234 25.2672 43.0234 26.2672 43.0234 27.2672H43.1234C43.1234 27.3672 43.1234 27.3672 43.0234 27.4672C42.1234 30.5672 40.8234 33.8672 38.8234 36.2672C38.6234 36.4672 38.5234 36.6672 38.3234 36.8672C36.5234 38.9672 34.7234 40.1672 31.5234 41.0672Z" fill="#020203"/>
</svg>
