<svg width="165" height="313" viewBox="0 0 165 313" fill="none" xmlns="http://www.w3.org/2000/svg">
<path d="M141.911 233.844C140.52 231.959 138.245 230.959 136.567 229.316C131.971 224.834 133.039 217.399 132.97 210.975C132.81 194.841 123.547 180.649 117.284 165.629C113.17 165.744 108.93 165.066 104.965 164.767C88.13 163.526 70.6397 161.446 56.0912 152.839C53.1494 158.321 50.5752 163.998 48.4148 169.824C43.7377 182.419 40.9108 195.703 40.1178 209.125C40.0029 210.987 39.9225 212.883 39.5892 214.722C39.7961 214.779 40.0029 214.86 40.1753 214.963C41.6347 215.813 41.8071 217.468 41.2095 218.893C40.5545 220.433 39.7731 221.881 38.9112 223.26C40.8993 223.639 41.7956 226.547 40.3247 228.178C34.6708 234.487 29.8443 241.704 26.5462 249.53C25.0178 253.15 23.8686 256.919 23.2251 260.769C23.5239 265.963 24.4432 271.146 25.9601 276.145C26.5347 277.064 27.1093 277.983 27.6609 278.88C29.8903 282.476 32.0967 286.096 33.7859 289.969C35.2913 293.428 36.1187 297.347 37.6931 300.553C38.0608 301.3 38.463 302.035 38.9112 302.748C39.1296 303.081 39.3479 303.414 39.5892 303.748C39.8305 304.081 39.6122 303.805 39.957 304.219C40.8993 305.299 42.0025 306.345 42.8758 306.954C43.979 307.724 45.1282 308.367 46.3004 308.919C58.9067 309.252 72.0761 305.736 84.8204 304.069C98.0588 302.334 111.676 302.69 124.524 306.322C128.994 307.586 134.763 308.85 137.51 305.104C138.314 304.012 138.67 302.679 138.992 301.369C143.968 281.534 145.6 260.861 143.784 240.486C143.589 238.153 143.29 235.705 141.911 233.844Z" fill="white"/>
<path d="M164.043 76.948C163.48 76.4194 162.664 76.293 161.894 76.2355C150.977 75.5001 140.543 84.7049 129.982 81.832C122.627 79.8324 118.03 72.6387 111.584 68.5821C105.413 64.6864 97.403 63.5717 92.4616 58.1936C88.4395 53.8153 87.3478 47.5639 84.5783 42.3122C83.6474 40.5425 82.3029 38.7383 80.3264 38.405C77.396 37.9109 75.1206 40.8527 73.7072 43.4728C65.8699 57.9063 61.0778 73.9832 59.7218 90.3588C59.2277 96.3459 59.1817 102.425 57.7452 108.263C55.8032 116.158 51.5398 125.029 56.1134 131.752C58.067 134.636 61.2847 136.348 63.8933 138.658C68.7772 142.979 67.697 146.404 65.4332 150.529C67.4097 151.724 69.4667 152.804 71.5812 153.77C80.1425 157.642 89.6116 159.458 98.8969 160.538C103.689 161.101 108.504 161.469 113.307 161.814C114.204 161.883 115.112 161.963 116.031 162.067C115.629 161.044 115.87 159.814 116.64 158.975C116.215 157.987 115.859 156.987 115.629 155.93C115.468 155.137 115.548 154.425 115.916 153.712C116.284 153.011 116.939 152.678 117.628 152.391C118.226 152.138 118.846 151.977 119.478 151.862C119.685 149.828 120.49 147.886 121.501 146.093C126.04 138.061 134.475 132.878 139.348 125.041C143.197 118.858 144.565 111.469 147.69 104.896C151.77 96.3345 158.699 89.4739 163.629 81.3608C164.48 79.9933 165.204 78.0512 164.043 76.948Z" fill="white"/>
<path d="M26.764 118.019C26.4192 118.847 26.3963 119.122 26.2354 119.249C21.8456 122.938 17.4443 126.615 13.0315 130.269C12.1466 131.005 11.2732 131.959 9.43457 130.855C14.4334 125.581 19.1335 120.352 26.764 118.019Z" fill="#EB584A"/>
<path d="M0 96.5414C1.32154 96.2426 2.13745 95.7715 2.76949 95.9668C8.72217 97.771 14.8932 98.0008 21.1791 98.7363C20.6965 100.023 19.6852 100.563 18.651 100.414C12.8707 99.6326 6.91798 100 1.33303 97.8629C1.04574 97.7595 0.861874 97.4033 0 96.5414Z" fill="#EB584A"/>
<path d="M28.3498 86.624C24.4886 85.3139 16.6053 73.5694 16.6398 68.1109C17.5706 69.1337 18.2601 69.6738 18.6623 70.3748C19.7425 72.2364 20.6044 74.236 21.7191 76.0746C23.8565 79.6255 26.1319 83.1075 28.3498 86.624Z" fill="#EB584A"/>
<path d="M33.36 246.657C32.3143 247.863 31.8776 249.472 31.6133 251.058C31.0732 254.287 31.1421 257.574 31.2226 260.837C31.4065 269.192 31.5903 277.535 31.7742 285.889C32.4982 287.222 33.1877 288.578 33.7852 289.969C35.2906 293.428 36.118 297.346 37.6924 300.553C38.0601 301.3 38.4623 302.035 38.9105 302.748C39.1289 303.081 39.3472 303.414 39.5885 303.747C39.8298 304.081 39.6115 303.805 39.9563 304.218C40.6802 305.057 41.5076 305.862 42.2546 306.471L45.6446 306.344C46.6904 306.31 47.8625 306.218 48.575 305.437C49.1496 304.816 49.2645 303.92 49.3564 303.092C49.5978 300.771 49.7701 298.438 49.8621 296.105C49.8965 295.129 49.9195 294.117 49.5518 293.209C49.1955 292.336 48.4946 291.647 47.92 290.9C42.8866 284.384 42.9671 271.835 43.1854 263.963C43.2888 259.953 40.1056 238.865 33.36 246.657Z" fill="#BCBCBB"/>
<path d="M115.813 251.495C116.319 260.585 116.824 269.675 117.318 278.765C117.571 283.281 117.812 287.843 117.031 292.302C116.25 296.76 114.319 301.15 110.871 304.081C109.389 305.345 107.585 306.333 105.631 306.425C103.689 306.517 101.621 305.552 100.793 303.793C100.334 302.805 100.288 301.679 100.368 300.587C100.563 297.99 101.437 295.508 102.414 293.095C106.941 281.879 113.825 271.559 116.698 259.815" fill="#BCBCBB"/>
<path d="M122.731 181.143C122.317 182.051 121.248 182.453 120.26 182.637C117.743 183.085 115.169 182.625 112.652 182.165C103.758 180.534 94.8633 178.913 85.9803 177.282C82.889 176.718 79.7403 176.132 76.9593 174.661C74.1784 173.191 71.7766 170.674 71.248 167.583C71.179 167.18 71.1675 166.709 71.4663 166.433C71.7076 166.215 72.0754 166.192 72.3972 166.192C83.2568 166.192 93.5418 165.48 104.252 164.503C108.021 164.158 112.262 164.813 115.456 167.042C118.375 169.076 124.5 177.27 122.731 181.143Z" fill="#BCBCBB"/>
<path d="M114.64 154.54C114.583 154.666 114.537 154.781 114.468 154.907C113.514 156.585 111.699 157.286 109.825 157.217C108.182 157.16 106.941 156.964 105.332 157.435C103.85 157.872 102.206 158.837 100.391 158.148C98.7245 157.504 98.3337 155.942 97.4489 154.597L97.3455 154.448C96.9203 154.54 96.4836 154.597 96.0584 154.677C94.9782 154.873 93.898 155.08 92.8063 155.229C90.6688 155.528 88.5084 155.666 86.3594 155.413C84.176 155.16 81.8777 154.54 79.6943 153.678C77.3615 153.264 75.1091 152.379 73.0981 151.069C71.5467 150.046 70.2366 148.84 69.3748 147.254C67.9383 146.3 66.5248 145.312 65.0424 144.45C64.2954 144.013 63.537 143.6 62.7211 143.289C62.3648 143.151 62.0086 143.036 61.6409 142.944C61.5145 142.91 61.3881 142.876 61.2502 142.853C61.1008 143.186 60.8709 143.508 60.71 143.841C60.3998 144.496 60.1584 145.128 59.8482 145.806C59.5149 146.53 58.8254 146.967 58.0555 147.127L54.0679 158.033L85.9687 167.698H108.24L117.456 162.814L114.64 154.54Z" fill="#EB584A"/>
<path d="M50.9767 279.661C50.3561 280.844 49.6551 281.994 49.1265 283.223C48.6324 284.372 47.8969 284.418 46.8167 283.913C45.4377 277.868 44.0357 271.755 42.5993 265.469C39.8528 266.526 38.6691 269.18 36.5087 270.674C37.7383 267.962 39.8068 266.02 42.1396 264.124C41.9328 262.986 41.7259 261.86 41.4616 260.378C39.3012 262.216 37.451 263.802 35.4055 265.549C35.8307 264.09 35.8422 264.101 37.9796 262.228C39.0828 261.263 40.1286 260.228 41.3007 259.137C40.3354 258.148 39.4391 257.218 38.175 255.919C38.175 241.187 38.175 225.891 38.175 210.412C37.1982 210.803 36.3133 211.159 35.2906 211.573C34.5781 209.47 34.7045 207.826 35.6468 205.884C38.7151 199.633 41.5076 193.255 44.369 186.9C44.9551 185.613 45.3688 184.246 46.0008 182.556C43.3692 183.568 42.1166 185.981 39.1863 186.624C39.4391 185.475 39.4161 184.648 39.7838 184.027C42.9555 178.557 46.2766 173.168 49.3794 167.652C51.0801 164.629 52.4361 161.412 54.0679 158.033C52.666 156.16 53.4014 154.034 54.4472 152.08C55.4814 150.161 56.803 148.403 58.067 146.622C58.8025 145.588 59.6759 144.634 60.4803 143.657C62.1811 144.806 62.204 145.139 61.1238 146.817C59.6874 149.047 58.2969 151.31 56.9294 153.586C56.6076 154.126 56.4122 154.746 55.9985 155.712C56.4352 156.137 56.9409 156.62 57.389 157.068C58.5612 156.217 59.4231 155.585 60.2849 154.953C59.8827 155.815 59.469 156.677 58.9519 157.792C59.9057 158.159 60.7676 158.481 61.7099 158.837C62.3419 156.792 62.8361 155.057 62.7671 152.942C61.7099 153.804 60.9629 154.413 60.216 155.022C61.3766 153.034 62.296 150.897 63.2728 148.794C63.583 148.92 63.9048 149.058 64.2151 149.184C63.8014 152.46 63.3877 155.746 62.951 159.251C63.0085 159.297 63.2268 159.688 63.5371 159.768C67.6626 160.963 71.7766 162.216 75.9481 163.239C79.0623 163.997 82.234 164.537 85.4057 164.974C88.5774 165.411 91.7951 165.686 94.9897 165.836C96.7135 165.916 98.4487 165.583 100.184 165.445C102.919 165.238 105.654 164.894 108.389 164.882C110.446 164.871 112.273 164.675 114.146 163.595C115.583 162.768 115.79 161.906 115.698 160.515C115.502 157.792 114.514 155.367 112.79 153.103C114.25 152.333 114.916 153.138 115.468 153.908C117.387 156.585 117.973 159.676 117.444 162.814C117.169 164.445 117.364 165.457 118.479 166.698C119.938 168.33 121.041 170.272 122.236 172.122C124.316 175.362 126.557 178.534 128.35 181.947C129.924 184.935 131.097 188.153 132.234 191.347C133.992 196.277 135.601 201.253 137.199 206.241C137.842 208.24 138.325 210.309 138.761 212.366C138.899 212.986 138.658 213.687 138.566 214.503C136.946 214.066 135.659 213.722 134.004 213.273C134.613 217.502 136.348 220.938 137.337 224.478C141.359 224.949 144.749 228.19 145.794 232.258C147.369 238.383 147.805 244.554 146.989 250.828C146.702 253 146.61 255.207 146.415 257.585C148.414 258.033 148.518 259.401 148.139 261.113C146.714 267.663 145.277 274.202 143.979 280.775C143.071 285.395 141.91 289.9 139.451 293.979C138.945 294.807 139.221 295.473 139.692 296.255C140.773 298.059 141.761 299.921 142.692 301.805C143.358 303.138 143.128 304.379 142.255 305.678C140.864 307.735 139.796 310.091 137.21 310.895C133.28 312.125 129.396 313.676 125.109 312.561C122.719 311.941 120.271 311.573 117.87 311.045C114.663 310.344 113.043 307.838 111.722 305.207C111.342 304.46 111.63 303.184 111.997 302.299C112.664 300.702 113.422 299.082 114.468 297.714C116.146 295.519 117.134 293.163 117.375 290.417C117.64 287.406 118.031 284.407 118.375 281.258C117.295 280.787 116.215 280.408 116.502 278.845C117.64 272.593 116.456 266.411 115.824 260.205C115.606 258.102 115.433 255.999 115.376 253.885C115.261 249.07 114.123 244.439 112.997 239.808C112.721 238.682 112.572 237.532 112.285 235.969C113.181 236.257 113.859 236.268 114.031 236.556C114.48 237.326 114.824 238.21 114.997 239.084C116.663 247.369 116.778 255.827 117.732 264.193C117.755 264.365 117.858 264.526 118.076 265.089C119.869 263.331 121.558 261.688 123.236 260.033C123.397 260.182 123.569 260.332 123.73 260.481C123.317 260.952 122.926 261.435 122.501 261.895C121.317 263.182 120.065 264.4 118.984 265.756C118.502 266.365 118.375 267.25 118.088 268.008C118.249 268.1 118.41 268.204 118.582 268.296C120.076 266.928 121.57 265.56 123.075 264.193C123.236 264.354 123.386 264.526 123.547 264.687C122.754 265.492 121.938 266.296 121.156 267.112C119.237 269.134 117.398 271.214 118.525 274.214C119.042 275.053 119.789 275.777 119.938 276.615C120.179 277.949 120.145 279.362 120.007 280.718C119.559 285.177 119.007 289.636 118.49 294.106C119.237 294.474 119.938 294.807 120.685 295.174C120.524 295.565 120.478 295.979 120.329 296.025C118.295 296.611 116.525 297.427 116.295 299.909C116.272 300.116 115.928 300.288 115.721 300.484C112.526 303.598 113.514 307.195 118.053 308.712C118.754 305.494 119.007 302.012 122.363 300.001C123.788 301.414 122.604 302.253 121.926 303.092C120.099 305.356 119.881 306.31 120.731 309.344C125.19 309.344 129.672 312.021 134.337 309.309C133.636 305.862 131.648 303.138 129.649 300.53C130.602 299.633 131.292 299.783 131.786 300.449C132.556 301.472 133.291 302.541 133.923 303.655C134.854 305.31 135.682 307.034 136.544 308.7C139.991 307.861 141.887 304 140.405 301.093C139.658 299.645 139.014 298.231 137.44 297.3C136.544 296.76 136.176 295.347 135.463 294.163C137.612 293.6 137.532 291.509 138.003 289.739C138.394 288.245 138.727 286.74 139.106 285.165C138.612 285.039 138.198 284.935 137.647 284.809C139.244 278.305 139.485 271.64 140.037 264.997C140.267 262.274 140.014 259.516 139.968 256.769C139.957 256.321 139.75 255.827 139.842 255.413C141.083 250.357 139.968 245.358 139.359 240.382C138.267 231.476 135.348 223.064 132.142 214.744C131.752 213.733 131.384 212.71 130.993 211.63C133.073 209.998 134.762 212.055 136.831 211.826C136.739 211.147 136.739 210.435 136.521 209.803C133.717 201.552 130.878 193.312 128.051 185.061C127.936 184.717 127.764 184.383 127.569 184.073C124.569 179.235 121.616 174.374 118.525 169.582C117.651 168.226 116.387 167.111 115.353 165.939C110.4 167.238 105.539 167.491 100.759 168.18C94.1394 169.145 87.7845 167.858 81.3606 167.077C77.8212 166.652 74.3507 165.664 70.8343 164.963C66.6513 164.124 62.8016 162.388 58.9749 160.596C58.159 160.216 57.3316 159.837 56.1939 159.32C52.7349 165.778 49.3334 172.11 45.9433 178.442C46.9546 179.12 48.2647 179.534 48.483 180.269C48.7818 181.292 48.4715 182.66 48.0463 183.717C45.794 189.233 43.4267 194.714 41.0939 200.196C40.5538 201.46 40.0251 202.724 39.4735 204.023C40.2665 204.413 41.2318 204.574 41.565 205.126C41.9328 205.723 41.7834 206.677 41.7489 207.47C41.3697 217.836 40.8755 228.19 40.6457 238.555C40.5423 243.037 40.9904 247.542 41.1858 252.253C42.7831 252.426 43.3577 253.575 43.5531 255.034C43.7599 256.586 43.9553 258.125 44.1851 259.677C44.323 260.654 44.5184 261.619 44.7137 262.768C46.1847 262.55 47.4258 262.377 48.6669 262.193L48.7818 262.435C47.7016 262.894 46.6214 263.354 45.2079 263.963C46.3111 269.468 47.4143 274.961 48.552 280.615C49.5058 280.12 50.1263 279.799 50.7584 279.477L50.9767 279.661ZM141.439 284.085C143.117 276.294 144.783 268.525 146.438 260.837C145.553 260.447 144.955 260.182 144.622 260.022C144.864 257.919 145.105 256.114 145.277 254.299C145.415 252.839 145.496 251.368 145.588 249.909C145.967 244.289 145.645 238.727 144.289 233.246C143.657 230.706 142.014 228.891 140.14 227.236C139.865 226.995 139.325 227.04 138.486 226.868C138.693 228.27 138.773 229.419 139.049 230.511C141.313 239.291 142.174 248.254 141.968 257.252C141.795 264.572 140.853 271.881 140.198 279.19C140.037 280.959 139.267 282.786 141.439 284.085Z" fill="black"/>
<path d="M103.827 300.036C102.908 300.817 102.287 301.219 101.839 301.759C100.713 303.127 99.0696 303.414 97.863 302.598C95.4153 300.932 93.0825 300.932 90.3934 301.725C88.6237 302.253 86.6816 302.23 84.4867 302.495C84.3603 302.334 83.9811 301.828 83.6018 301.323C81.7632 298.829 80.6715 298.749 78.6949 301.024C77.9939 301.828 77.3389 302.575 75.9944 301.794C75.3623 295.864 72.995 290.141 72.6273 283.809C73.4892 284.533 74.1327 285.073 75.2819 286.039C75.3164 284.775 75.4543 284.097 75.3278 283.465C74.5924 279.868 73.8569 276.271 73.0065 272.708C71.685 267.181 71.2483 261.665 72.9146 256.114C73.4432 254.356 73.9948 252.609 74.443 250.84C74.7073 249.817 75.075 248.725 74.1442 247.576C73.1789 248.047 72.2826 248.484 70.961 249.128C71.4896 246.703 71.8804 244.738 72.363 242.796C73.1789 239.52 73.673 236.176 75.9024 233.338C76.7413 232.269 77.0861 230.5 75.6266 229.121C72.6273 233.763 68.6397 249.76 69.8923 252.667C70.8346 251.908 71.708 251.208 72.5813 250.495C72.7078 251.483 72.4779 252.311 72.2136 253.127C71.5471 255.126 70.4324 257.08 70.26 259.114C69.9038 263.492 69.7659 267.905 71.1449 272.214C71.8918 274.547 72.386 276.949 73.0065 279.351C70.5703 279.707 70.4094 279.73 70.6622 281.603C71.1104 285.05 71.7539 288.475 72.34 291.911C72.9721 295.611 73.5926 299.323 74.2821 303.012C74.6154 304.77 73.8339 305.85 72.386 306.574C70.0072 307.758 67.6399 308.988 65.1922 310.022C63.6753 310.665 62.032 310.815 60.1589 310.171C60.4002 307.632 60.6185 305.172 60.8484 302.713C60.584 302.667 60.3197 302.621 60.0554 302.587C58.0099 304.747 58.9522 307.758 58.3547 310.39C57.8146 310.344 57.3549 310.344 56.9182 310.252C51.9193 309.194 51.0115 306.873 53.9074 302.587C54.1602 302.207 54.4475 301.84 54.6658 301.438C54.9072 300.978 55.1025 300.495 55.3439 299.932C53.6891 298.932 53.034 300.001 52.4824 301.035C51.678 302.552 50.977 304.115 50.1496 305.827C49.012 303.816 48.9545 302.001 49.7589 300.139C50.8621 297.611 51.9653 295.071 54.1832 293.267C55.091 292.52 55.1255 291.854 54.2521 290.957C53.6891 291.256 53.2064 291.486 52.7467 291.762C52.2296 292.072 51.747 292.44 50.9196 293.003C48.8281 289.417 46.84 286.027 44.852 282.626C43.7832 283.855 44.3119 285.142 44.9209 286.223C46.208 288.544 47.564 290.865 49.1384 292.991C50.1726 294.393 50.322 295.554 49.3682 296.956C48.0352 298.909 47.0239 300.943 47.0469 303.173C47.1273 303.552 47.1733 303.966 47.1618 304.368L47.2192 304.621C47.564 305.747 47.9662 306.85 48.2995 307.976C49.2763 308.988 50.0922 310.079 51.1609 310.436C54.0108 311.401 56.9872 312.056 59.9635 312.458C61.6298 312.688 63.5489 312.527 65.1003 311.906C68.1456 310.7 71.0185 309.034 73.9718 307.597C75.4657 306.873 76.3621 305.758 76.3046 303.851C78.0284 304.563 78.6834 303.506 79.4534 302.541C80.9243 300.691 81.5793 300.783 82.8204 302.84C83.349 303.724 84.0156 304.529 84.7165 305.517C86.4058 303.943 88.0721 303.38 90.0257 303.69C90.6347 303.782 91.3587 303.713 91.9103 303.46C93.4962 302.713 94.7488 303.023 96.2542 303.92C99.0466 305.598 102.138 304.736 103.965 302.035C104.252 301.702 103.942 300.989 103.827 300.036Z" fill="black"/>
<path d="M44.1393 288.337C42.6224 290.072 41.094 291.807 39.4277 293.715C39.6691 291.532 41.0595 289.854 44.1393 288.337Z" fill="black"/>
<path d="M42.0817 286.039C40.4039 287.429 38.7836 288.785 37.0254 290.256C37.9217 287.555 39.8868 285.958 42.0817 286.039Z" fill="black"/>
<path d="M51.2064 306.919L51.1719 306.77C50.7467 306.816 50.3215 306.873 49.9078 306.965C49.3332 305.448 48.908 304.058 48.276 302.759C48.0691 302.334 47.3452 302.15 46.851 301.863C46.7131 302.403 46.4029 302.978 46.4948 303.472C46.6787 304.437 47.1038 305.356 47.4256 306.31C45.8512 307.241 44.4033 307.494 42.737 306.701C42.8864 304.23 43.0473 301.794 43.1967 299.427C41.8062 298.852 41.1741 299.162 40.9788 300.381C40.726 301.955 40.4157 303.506 40.0939 305.288C38.2897 303.299 38.2438 301.484 39.6458 299.726C40.3008 298.898 40.9098 298.036 41.8636 296.761C40.0939 295.209 38.0714 294.106 37.0257 292.405C33.9459 287.407 29.3148 283.235 28.6253 276.88C28.4069 274.835 26.2695 273.662 24.0975 273.789C23.0518 270.41 23.2931 265.17 24.5687 261.068C25.2237 258.976 25.6949 256.839 26.2005 254.92C24.6836 253.173 23.2586 252.506 21.1097 254.517C22.9828 248.932 23.9367 243.738 27.9817 239.969C28.4529 239.532 28.7861 238.958 29.1998 238.475C30.5788 236.889 31.3258 235.108 30.8202 233.016C33.107 231.109 35.8995 229.408 38.7494 228.167C39.0597 227.179 39.4734 226.225 39.933 225.283C38.4506 225.892 37.0486 226.708 35.7271 227.615C32.0383 230.144 27.7174 231.637 24.4193 234.821C23.477 235.729 22.5577 236.407 22.3623 237.717C23.5689 238.854 24.8675 238.406 26.5682 237.751C25.488 239.302 24.8675 240.452 23.9941 241.371C22.1669 243.313 21.2016 245.577 20.5811 248.151C19.7767 251.507 18.639 254.782 17.5933 258.287C19.4434 258.838 18.0529 260.815 18.616 262.09C20.3742 262.826 20.4202 260.907 21.5579 260.332C21.5809 260.792 21.6383 261.114 21.6039 261.435C21.5349 262.067 21.4085 262.699 21.3281 263.331C20.4317 269.686 20.8224 275.834 24.2239 281.626C25.0973 281.419 25.8443 281.247 26.9475 280.994C26.8555 284.258 28.8666 286.418 30.7397 288.659C30.9696 288.935 31.0845 289.314 31.3143 289.601C32.6014 291.268 33.762 293.083 35.2559 294.531C36.7154 295.956 37.5083 297.209 36.5545 299.277C36.0718 300.312 36.0489 301.599 35.9914 302.782C35.888 304.862 36.7614 306.471 38.4736 307.712C39.8756 308.735 41.3925 309.206 43.0818 309.298C46.0926 309.459 49.0804 309.516 51.9188 308.965C51.6316 308.298 51.4132 307.609 51.2064 306.919Z" fill="black"/>
<path d="M98.9428 199.84C98.4257 200.139 97.8971 200.449 97.1271 200.909C95.9895 198.817 94.9092 196.829 93.5532 194.347C95.254 194.749 95.4034 195.829 95.886 196.576C96.3802 197.335 96.8284 198.128 97.357 198.989C97.8626 198.656 98.2878 198.369 98.8164 198.024C99.7013 198.691 100.621 199.38 101.62 200.127C102.344 199.553 102.953 199.081 103.62 198.553C102.93 201.426 102.057 201.667 98.9428 199.84Z" fill="black"/>
<path d="M86.6014 255.092C87.785 254.609 88.9571 253.701 89.9914 253.839C90.9107 253.966 91.6807 255.241 92.6115 256.092C90.8648 257.229 90.3821 255.115 89.187 254.805C88.1642 255.506 87.13 256.207 85.8774 257.068C85.5786 256.011 85.3488 255.172 85.073 254.207C84.6133 254.425 84.1651 254.644 83.4526 254.977C83.8204 253.529 84.4179 252.598 85.8889 251.943C86.1417 253.104 86.3715 254.092 86.6014 255.092Z" fill="black"/>
<path d="M118.307 230.005C118.617 229.373 118.962 228.672 119.502 227.581C120.444 229.258 121.203 230.614 122.007 232.074C123.961 231.109 125.029 232.74 126.765 233.258C123.938 233.901 121.789 233.235 120.41 231.626C119.881 231.005 119.1 230.603 118.307 230.005Z" fill="black"/>
<path d="M111.113 162.952C110.642 161.986 110.182 161.021 109.676 159.998C109.47 160.47 109.297 160.86 109.113 161.285C108.114 158.516 107.976 156.298 108.642 154.034C108.792 154.092 109.056 154.126 109.079 154.218C109.366 155.919 109.32 157.608 110.688 159.102C111.481 159.975 111.469 161.584 111.825 162.86C111.595 162.894 111.354 162.929 111.113 162.952Z" fill="black"/>
<path d="M55.5734 195.324C55.2746 194.381 55.0907 193.795 54.8379 192.991C53.9416 193.405 53.1831 193.761 52.3442 194.151C53.0452 192.692 54.091 191.658 54.8609 191.945C55.5159 192.186 55.9756 192.945 56.6766 193.634C58.9175 193.428 60.8366 194.611 62.5029 196.381C60.2505 195.737 58.2969 193.68 55.5734 195.324Z" fill="black"/>
<path d="M56.1592 280.707C53.9068 283.074 51.643 285.441 49.3906 287.797C49.7813 285.855 51.7694 283.649 55.6995 280.339C55.8489 280.465 55.9983 280.58 56.1592 280.707Z" fill="black"/>
<path d="M101.333 280.143C101.816 279.925 102.195 279.615 102.563 279.626C103.654 279.695 105.677 281.028 107.458 282.867C105.16 281.856 103.424 281.074 101.333 280.143Z" fill="black"/>
<path d="M50.793 279.488C51.3216 278.006 52.6201 277.477 53.7923 276.788C53.9187 276.937 54.0566 277.098 54.183 277.247C53.1143 278.052 52.0571 278.856 50.9883 279.661L50.793 279.488Z" fill="black"/>
<path d="M61.6873 106.321C59.7567 104.321 58.7914 101.437 59.1476 98.6788C64.6406 97.4607 70.6853 99.1385 74.7648 103C73.6156 104.379 71.708 104.804 69.9383 105.149C66.4448 105.827 62.9514 106.516 59.4464 107.194" fill="#BCBCBB"/>
<path d="M125.363 138.313C127.087 139.267 129.339 138.727 130.891 137.509C132.442 136.291 133.43 134.51 134.327 132.751C136.027 129.407 137.533 125.96 138.82 122.432C139.337 121.007 139.808 119.352 139.038 118.054C138.073 116.41 135.614 116.307 133.924 117.215C132.235 118.122 131.063 119.708 129.672 121.018C127.432 123.133 118.353 124.638 117.721 126.753C117.284 128.189 124.168 137.658 125.363 138.313Z" fill="#BCBCBB"/>
<path d="M110.021 57.6304C112.365 56.9869 112.71 53.8726 114.089 51.8731C116.525 48.3336 121.731 48.7473 126.029 48.8508C135.349 49.0806 144.714 45.817 151.874 39.8528C153.414 38.5657 154.896 37.1178 155.723 35.2791C156.62 33.3026 156.689 31.0502 156.666 28.8783C156.608 23.707 156.045 18.3634 153.517 13.8472C150.184 7.88301 143.772 4.12524 137.141 2.45895C130.511 0.792655 123.57 0.965029 116.732 1.1489C112.905 1.25232 108.872 1.4132 105.608 3.41275C102.103 5.56169 100.092 9.44587 98.4719 13.2266C95.4611 20.2136 93.1972 28.499 96.7711 35.2217C99.0925 39.5885 104.654 41.0479 106.884 44.8172C107.516 45.8515 108.079 58.1705 110.021 57.6304Z" fill="white"/>
<path d="M101.218 158.125C104.551 157.263 107.171 154.77 110.412 153.712C110.584 153.885 110.745 154.057 110.917 154.229C110.446 155.229 109.975 156.217 109.343 157.551C110.216 157.275 110.906 157.148 111.492 156.838C116.721 154.126 120.881 150.437 122.501 144.496C122.616 144.059 122.547 143.404 122.823 143.197C125.27 141.393 123.972 139.106 123.386 137.199C122.719 135.038 121.57 132.97 120.295 131.085C118.663 128.649 116.905 126.236 114.825 124.19C113.032 122.421 110.757 121.11 108.619 119.72C104.792 117.238 100.299 118.123 96.1161 117.468C94.967 117.284 93.6799 118.019 92.3699 118.352C91.4735 117.709 91.6804 117.042 92.5652 116.514C94.1396 115.571 95.8518 115.491 97.6215 115.721C100.621 116.1 103.632 116.353 106.631 116.767C107.47 116.882 108.274 117.364 109.067 117.72C109.389 117.87 109.619 118.215 109.941 118.375C115.261 121.145 118.732 125.822 122.133 130.499C124.018 133.096 125.5 136.004 125.891 139.267C126.167 141.577 126.029 143.864 124.029 145.588C123.639 145.921 123.478 146.53 123.248 147.024C120.501 152.977 116.089 157.148 109.952 159.447C108.895 159.837 107.711 159.872 106.24 160.136C106.539 158.941 106.723 158.206 106.953 157.275C104.608 158.274 102.402 159.217 100.173 160.159C99.0925 157.964 98.1961 156.114 97.2193 154.137C93.7948 155.919 90.4163 157.022 86.8309 157.194C85.1301 157.275 83.4179 156.861 81.7056 156.631C81.0736 156.539 80.4645 156.309 79.8325 156.194C72.7996 154.965 68.4212 150.403 65.2495 144.427C64.6864 143.358 64.606 142.037 64.2613 140.658C63.6407 141.048 62.9742 141.462 62.1583 141.991C61.6756 141.37 61.216 140.761 60.7678 140.175C58.4695 141.221 58.412 141.278 56.6768 139.279C55.3093 137.704 54.1141 135.992 52.85 134.326C52.7351 134.176 52.7236 133.935 52.5972 133.843C49.437 131.671 50.2759 128.626 50.8275 125.673C51.1493 123.995 51.6894 122.432 51.1837 120.582C50.9079 119.594 51.6779 118.088 52.3789 117.111C54.5163 114.158 56.9411 111.434 60.8023 109.527C58.9406 109.481 57.3778 110.871 56.4239 108.688C57.0215 108.355 57.5157 107.93 58.0902 107.757C61.1585 106.826 64.2153 105.804 67.341 105.103C68.9154 104.746 70.6161 104.942 72.2709 104.988C73.6385 105.022 75.006 105.217 76.385 105.332C76.5229 104.597 76.6378 103.999 76.8101 103.103C83.4868 106.206 88.1524 110.791 90.3933 118.421C89.5314 117.893 88.9109 117.732 88.6925 117.341C87.9571 116.077 87.348 114.733 86.7389 113.4C85.9345 111.607 84.8198 110.09 83.1765 108.941C82.2457 108.286 81.4413 107.78 80.1772 108.079C79.3613 108.263 78.396 107.838 77.4996 107.7C75.2358 107.366 72.9719 106.884 70.6966 106.769C68.6281 106.665 66.6515 106.826 65.0427 108.78C64.0084 110.032 62.1698 110.733 60.5839 111.423C57.3088 112.848 55.3782 115.617 53.0454 118.238C53.7579 118.64 54.2635 118.927 54.9875 119.341C54.5393 120.249 54.1026 121.03 53.7694 121.857C53.1718 123.294 52.5513 124.73 52.1146 126.213C51.9307 126.856 51.9077 128.051 52.264 128.27C53.7004 129.189 53.4706 130.591 53.8153 131.901C54.1831 133.292 54.907 134.59 55.5046 135.992C56.2516 135.877 56.8491 135.774 57.5846 135.659C57.8029 136.302 57.9983 136.877 58.1937 137.452C58.3545 137.498 58.5499 137.612 58.6763 137.567C61.0551 136.739 63.3879 136.107 65.8586 137.406C66.3412 137.658 67.2146 137.314 67.8581 137.118C70.8345 136.222 73.7763 135.245 76.7642 134.418C77.2124 134.291 78.0857 134.671 78.3385 135.084C78.9131 135.992 79.729 137.199 79.5222 138.061C79.143 139.601 77.649 138.302 76.6723 138.566C75.1783 138.968 73.6499 139.21 72.1445 139.578C70.6047 139.957 69.2371 141.175 67.4559 140.405C67.364 140.359 66.4906 141.462 66.617 141.681C67.7892 143.818 68.9728 145.967 70.3978 147.955C73.0754 151.667 77.3388 152.517 81.3838 153.701C82.4411 154.011 83.5098 154.241 84.5785 154.505C84.9347 154.597 85.3025 154.838 85.6357 154.781C89.0143 154.218 92.4848 154.08 96.1621 152.977C95.5875 152.287 95.2887 151.885 94.9325 151.54C94.6222 151.23 94.0247 151.035 93.9212 150.69C92.5997 146.197 89.0143 143.761 85.4634 141.278C85.3255 141.175 85.245 140.991 85.0267 140.715C85.1991 140.485 85.3484 140.164 85.5898 139.98C85.8656 139.761 86.2333 139.658 86.2793 139.646C92.9789 144.484 96.8976 151.299 101.218 158.125Z" fill="black"/>
<path d="M108.378 66.7665C107.735 67.6973 107.16 68.5477 106.39 69.6624C111.757 71.0759 117.032 72.6617 122.065 75.2129C121.881 75.9943 121.72 76.6723 121.548 77.4422C125.547 80.3152 129.511 83.1651 133.557 86.0725C143.198 81.8091 153.069 77.6261 164.032 78.3961C165.273 79.6257 164.952 80.7748 164.274 81.8206C160.504 87.6928 156.666 93.4961 151.771 98.5409C150.047 100.311 148.369 102.195 147.094 104.287C146.174 105.781 145.715 107.665 145.427 109.447C144.991 112.159 145.312 115.066 144.485 117.629C143.658 120.18 141.785 122.386 140.44 124.776C139.314 126.764 138.486 128.948 137.176 130.787C135.591 133.004 134.131 135.51 130.81 136.705C131.063 135.866 131.051 135.349 131.304 135.13C135.51 131.488 137.671 126.454 140.497 121.858C143.106 117.617 143.956 113.009 143.865 108.159C143.83 106.528 144.278 105.264 145.312 103.942C147.68 100.897 150.265 98.0583 152.771 95.1394C156.528 90.7611 160.056 86.1529 162.676 80.9472C162.745 80.8093 162.688 80.591 162.688 80.1773C160.493 79.6831 158.229 79.8555 156.034 80.2692C149.978 81.4299 144.094 83.234 138.463 85.7507C137.303 86.2678 136.223 87.0033 135.119 87.6468C133.959 88.3134 132.936 88.3823 131.913 87.2676C131.419 86.7275 130.603 86.4747 129.937 86.107C129.707 85.9805 129.362 85.9461 129.224 85.7507C127.282 83.0846 124.237 81.7976 121.732 79.844C120.594 78.9706 119.226 78.4075 117.79 77.6031C118.215 76.9826 118.548 76.4999 119.031 75.776C118.847 75.6725 118.617 75.5116 118.376 75.4197C114.837 74.1326 111.32 72.7996 107.758 71.616C106.666 71.2597 105.436 71.3172 103.908 71.1563C104.356 69.9956 104.724 69.0189 105.149 67.9386C103.736 66.9389 102.081 67.0308 100.484 67.0193C98.6448 66.9963 96.8062 67.0653 94.979 67.1572C93.8873 67.2147 93.1174 66.9274 92.4164 65.9736C89.4745 61.94 87.2566 57.5732 85.5329 52.8731C84.3262 49.575 83.4873 46.047 80.8787 43.0477C80.1892 44.2084 79.5227 45.1852 79.0056 46.2424C76.9486 50.4368 74.8456 54.6198 72.9265 58.8832C70.8235 63.5603 68.9274 68.3294 66.8934 73.0409C66.2154 74.5923 65.4569 76.2011 63.1816 75.3163C61.906 78.3156 63.4574 81.6137 61.5153 84.3947C60.8258 84.2338 60.1708 84.0844 59.2055 83.8546C60.4351 88.5662 61.2855 93.0939 60.3317 97.8399C58.9871 97.5871 57.8724 97.3803 56.2521 97.0815C57.5392 99.9774 58.6309 102.437 59.8375 105.149C59.217 105.045 58.6883 105.091 58.3321 104.861C57.8954 104.574 57.4817 104.103 57.2634 103.62C56.0797 100.966 54.9536 98.2881 53.8389 95.6795C55.4362 94.0707 57.0565 95.1969 58.4815 95.0245C59.3434 92.91 59.148 89.2212 58.0333 86.1989C57.6886 85.2566 57.2404 84.3372 56.9646 83.3719C56.413 81.4069 56.9761 80.8438 59.0101 81.2575C59.5387 81.3609 60.0559 81.4988 60.9177 81.6942C60.9177 80.4071 60.8603 79.3269 60.9292 78.2467C61.0097 77.063 61.1246 75.8679 61.3659 74.7072C61.7796 72.8111 61.8945 72.7881 63.9975 73.1903C64.2503 73.2363 64.5261 73.2018 65.1467 73.2018C66.3303 70.2485 67.5139 67.1917 68.7895 64.1694C70.3179 60.5265 71.8118 56.8722 73.5126 53.3212C75.2593 49.6784 77.2129 46.139 79.132 42.588C79.5917 41.7262 80.2812 40.9907 81.1201 39.853C82.6714 41.933 83.8551 43.8406 84.7399 45.9091C86.3832 49.7933 87.8542 53.7579 89.5894 57.5961C90.5202 59.6761 91.8418 61.5723 93.0024 63.5488C93.8184 64.9393 95.0135 65.4335 96.6568 65.4909C100.219 65.6058 103.782 65.9506 107.344 66.2264C107.574 66.2609 107.792 66.4677 108.378 66.7665Z" fill="black"/>
<path d="M116.272 47.9892C114.537 50.8851 112.963 53.5626 111.319 56.2057C110.975 56.7573 110.354 57.4813 109.825 57.5157C108.699 57.5847 108.803 56.4355 108.63 55.6771C108.171 53.712 107.711 51.7469 107.366 49.7589C106.884 46.9894 105.815 44.806 102.965 43.6453C100.77 42.749 98.5291 41.5423 97.5753 39.1751C94.8633 32.418 93.4613 25.6379 98.0695 19.0302C98.1729 18.8808 98.2993 18.7314 98.3453 18.559C99.8162 13.066 104.551 10.0552 108.01 6.10207C109.159 4.79202 110.998 4.01059 112.629 3.20617C117.594 0.769942 122.926 0.0574583 128.396 0C128.844 0 129.338 1.36991e-07 129.752 0.149392C135.601 2.27535 141.508 4.2634 147.265 6.61919C150.989 8.14758 153.815 10.6758 155.091 14.8702C156.688 20.0989 157.964 25.3506 157.389 30.8091C156.872 35.7391 154.712 39.6807 150.242 42.5421C144.185 46.4378 137.52 48.0926 130.625 49.2877C126.523 50.0002 122.443 50.1496 118.479 48.4603C117.824 48.2075 117.065 48.1615 116.272 47.9892ZM110.078 54.5969C112.181 52.0112 113.526 49.6669 114.594 47.1388C115.318 45.392 115.353 45.484 117.18 45.9436C120.019 46.6561 122.926 47.9547 125.718 47.7708C133.981 47.2192 142.071 45.7943 149.276 41.0942C152.322 39.1061 154.436 36.6699 155.183 33.1879C156.528 27.0169 155.907 20.9493 153.471 15.1345C152.678 13.2384 152.161 11.0894 150.023 10.0207C148.391 9.20482 146.886 8.06714 145.208 7.38914C141.473 5.86074 137.635 4.59666 133.9 3.10275C131.234 2.03402 128.557 1.90762 125.787 2.37877C124.431 2.60861 123.075 2.83844 121.719 3.07976C120.743 3.25214 119.674 3.78076 118.812 3.56241C115.801 2.76949 113.526 4.44727 111.135 5.60793C110.17 6.07909 108.676 6.65367 109.32 8.42339C109.377 8.57278 108.941 8.97498 108.676 9.17034C107.78 9.80238 106.746 10.285 105.953 11.032C104.505 12.3995 103.022 13.8015 101.862 15.3988C100.793 16.8698 100.092 18.6165 99.2761 20.2598C97.3455 24.1555 96.3917 28.1775 97.7937 32.4984C98.1959 33.7165 98.4717 34.9806 98.7475 36.2332C99.2646 38.543 100.632 40.2208 102.689 41.2665C104.815 42.3353 107.044 43.2086 109.193 44.2429C110.193 44.7255 111.112 45.392 112.066 45.9666C111.997 46.1505 111.917 46.3229 111.848 46.5067C110.756 46.5067 109.665 46.5067 108.412 46.5067C108.964 49.1613 109.469 51.6205 110.078 54.5969Z" fill="black"/>
<path d="M99.0583 128.051C98.2998 129.12 97.3345 130.166 96.2428 130.832C93.6917 132.349 91.0716 133.751 88.3481 134.935C85.8659 136.026 82.4758 134.521 80.9589 132.05C79.3156 129.396 79.0283 126.488 79.0858 123.478C79.0858 122.857 79.0973 122.248 79.0858 121.627C79.0168 117.996 79.9247 116.95 83.5445 116.364C86.2451 115.927 88.7618 116.226 91.3129 117.41C93.8411 118.594 96.1969 119.892 98.2424 121.788C100.184 123.604 100.61 125.902 99.0583 128.051Z" fill="black"/>
<path d="M81.4413 91.9216C84.1763 91.8526 86.6585 95.2656 85.6588 98.0006C85.0267 99.7359 83.958 101.287 82.0963 102.092C79.6946 103.126 77.6261 102.62 76.1436 100.563C74.5923 98.4144 74.7532 96.5067 76.6838 94.5302C77.9938 93.1742 79.3958 91.956 81.4413 91.9216Z" fill="black"/>
<path d="M112.538 113.859C112.596 109.722 116.158 107.068 119.479 107.757C121.375 108.148 122.639 112.457 121.398 114.296C119.962 116.433 117.951 117.491 115.468 117.479C114.756 117.479 113.814 116.824 113.4 116.192C112.837 115.342 112.664 114.227 112.538 113.859Z" fill="black"/>
<path d="M119.513 103.252C117.617 104.792 115.376 102.85 113.894 105.459C113.698 102.655 114.123 101.919 116.847 99.7587C117.238 100.448 117.617 101.092 118.008 101.77C120.881 101.448 120.881 101.448 121.605 104.413C123.271 105.424 124.822 106.355 126.362 107.297C127.408 107.941 128.086 108.63 128.132 110.101C128.166 111.089 129.292 112.032 129.924 112.974C128.224 113.411 126.787 112.917 126.569 111.193C126.224 108.55 124.294 107.814 122.42 106.975C120.881 106.297 119.41 105.688 119.513 103.252Z" fill="black"/>
<path d="M76.6725 66.7666C77.1207 66.9619 77.3965 67.0309 77.6148 67.1803C80.1659 68.8925 80.2464 68.858 81.2806 65.9162C81.3955 65.5829 81.5679 65.2497 81.6369 65.0888C83.3951 64.6866 84.981 64.3188 86.7277 63.9166C86.5208 65.1577 85.8428 66.146 84.7971 66.3414C82.9584 66.6746 82.3838 68.0536 81.5564 69.3407C81.1312 69.9957 80.5107 70.5933 79.8442 70.984C79.5454 71.1564 78.9134 70.7542 78.3732 70.5818C78.3732 71.0874 78.3732 71.5586 78.3732 72.1332C75.6612 70.306 75.213 68.904 76.6725 66.7666Z" fill="black"/>
<path d="M94.4389 84.1877C92.5887 83.7625 92.7266 81.3493 90.6811 81.5332C87.5324 78.7981 83.4873 80.6828 80.0169 79.637C79.3389 79.4302 78.6723 79.2348 77.2129 78.8096C78.454 78.2925 78.9137 77.9478 79.3848 77.9248C81.9704 77.7984 84.5561 77.7179 87.1417 77.6949C87.7737 77.6949 88.6701 77.7524 88.9918 78.1546C90.2329 79.6715 91.7269 79.3727 93.2897 78.8326C94.979 80.43 94.1976 82.3835 94.4389 84.1877Z" fill="black"/>
<path d="M93.2892 110.619C92.4963 111.147 91.9791 111.481 91.485 111.802C90.5082 111.274 89.2786 107.872 89.5774 106.447C91.0483 106.734 90.83 108.343 91.8297 109.205C93.0134 108.585 94.151 108.814 95.4036 109.665C96.2081 110.216 97.4836 110.044 98.5179 110.32C98.8626 110.412 99.1154 110.86 99.4142 111.147C99.104 111.423 98.8052 111.917 98.4834 111.94C96.6677 112.055 94.7831 112.354 93.2892 110.619Z" fill="black"/>
<path d="M103.402 80.6368C103.942 81.74 104.356 82.6019 104.735 83.3718C106.275 83.3718 107.838 83.1075 109.228 83.4637C110.136 83.6936 110.803 84.8312 112.009 85.9574C110.837 85.8655 110.193 86.0149 109.826 85.7621C108.435 84.7853 107.114 84.5669 105.493 85.3139C104.045 85.9804 103.402 84.7853 103 83.4752C102.299 84.0498 101.747 84.5095 101.035 85.0955C101.012 82.7857 101.241 82.349 103.402 80.6368Z" fill="black"/>
<path d="M144.886 91.8755C145.886 94.5301 145.174 95.3345 141.473 96.3113C141.646 97.3225 141.807 98.3453 141.991 99.437C140.025 99.0118 139.853 98.6326 139.336 93.8635C139.635 93.7601 139.968 93.5303 140.267 93.5648C141.152 93.6912 142.117 94.2658 142.864 94.0359C143.588 93.8061 144.059 92.8063 144.886 91.8755Z" fill="black"/>
<path d="M107.608 147.84C105.264 148.058 105.413 145.978 104.069 145.346C103.712 145.645 103.207 145.967 102.827 146.404C102.414 146.886 102.126 147.472 101.77 148.012C99.4374 146.576 99.7362 144.209 98.4951 142.738C100.587 142.933 100.265 145.059 101.414 146.369C102.299 145.496 103.149 144.645 104.275 143.554C105.356 144.944 106.355 146.231 107.608 147.84Z" fill="black"/>
<path d="M135.211 122.639C132.866 123.409 131.303 125.787 129.189 123.259C128.454 123.845 127.879 124.305 127.316 124.753C127.166 124.638 127.017 124.535 126.868 124.42C127.339 123.558 127.81 122.685 128.35 121.696C129.534 122.34 130.465 122.857 131.269 123.294C132.613 123.443 133.28 121.455 135.211 122.639Z" fill="black"/>
<path d="M69.5586 130.832C67.042 130.637 68.1107 127.982 66.6053 127.052C65.8813 127.672 65.1458 128.304 64.2725 129.051C64.5253 127.316 64.5253 127.316 67.4212 125.73C68.1107 127.373 68.7887 128.982 69.5586 130.832Z" fill="black"/>
<path d="M120.329 15.8239C119.318 14.1346 119.835 13.1808 120.846 12.4108C123.846 10.124 129.672 11.3996 131.522 14.6977C132.212 15.9273 132.407 17.088 131.327 18.2026C129.488 20.0988 127.672 22.0064 125.707 24.0519C125.627 26.2008 127.5 28.4532 126.558 31.2687C125.225 29.6943 123.777 25.4079 123.352 22.1328C125.949 22.0983 127.546 20.2826 129.224 18.6393C131.097 16.7892 130.66 14.4679 128.132 13.514C125.707 12.6062 123.501 12.4913 121.536 14.5483C121.226 14.8586 120.938 15.1688 120.329 15.8239Z" fill="#EB584A"/>
<path d="M123.776 37.635C124.604 36.5548 125.155 35.5091 126.017 34.877C126.35 34.6357 127.511 35.2218 128.063 35.6929C128.902 36.4169 128.545 37.4052 128.017 38.1636C127.465 38.968 126.764 39.9448 125.627 39.4852C124.983 39.2209 124.558 38.4394 123.776 37.635Z" fill="#EB584A"/>
<path d="M82.3492 95.6791C82.3492 96.2422 81.8895 96.6903 81.3379 96.6903C80.7748 96.6903 80.3267 96.2307 80.3267 95.6791C80.3267 95.1275 80.7863 94.6678 81.3379 94.6678C81.8895 94.6563 82.3492 95.116 82.3492 95.6791Z" fill="white"/>
<path d="M118.226 110.803C118.226 111.366 117.766 111.814 117.215 111.814C116.663 111.814 116.204 111.354 116.204 110.803C116.204 110.251 116.652 109.792 117.215 109.792C117.778 109.792 118.226 110.24 118.226 110.803Z" fill="white"/>
<path d="M85.5093 120.398C85.7162 120.387 85.9115 120.375 86.1184 120.375C88.8304 120.375 91.554 121.743 93.1398 123.938C93.3237 124.19 93.6799 124.248 93.9442 124.064C94.197 123.88 94.2545 123.524 94.0706 123.26C92.2549 120.743 89.2097 119.226 86.1184 119.215C85.8886 119.215 85.6587 119.226 85.4174 119.238C85.0956 119.261 84.8658 119.536 84.8888 119.858C84.9233 120.18 85.1991 120.421 85.5093 120.398Z" fill="white"/>
</svg>
