<?xml version="1.0" encoding="utf-8"?>
<!-- Generator: Adobe Illustrator 23.1.0, SVG Export Plug-In . SVG Version: 6.00 Build 0)  -->
<svg version="1.1" id="Layer_1" xmlns="http://www.w3.org/2000/svg" xmlns:xlink="http://www.w3.org/1999/xlink" x="0px" y="0px"
	 viewBox="0 0 148.5 280.7" style="enable-background:new 0 0 148.5 280.7;" xml:space="preserve">
<style type="text/css">
	.st0{fill:#FFFFFF;}
	.st1{fill:#EB584A;}
</style>
<g id="Layer_3">
</g>
<g id="Layer_4">
</g>
<g id="Layer_5">
</g>
<g id="Layer_6">
</g>
<g id="Layer_7">
</g>
<g id="Layer_8">
	<g>
		<path class="st0" d="M98.5,54.4c2-0.6,2.3-3.3,3.5-5c2.1-3.1,6.7-2.7,10.4-2.6c8.1,0.2,16.3-2.6,22.5-7.8c1.3-1.1,2.6-2.4,3.4-4
			c0.8-1.7,0.8-3.7,0.8-5.6c-0.1-4.5-0.5-9.1-2.7-13.1c-2.9-5.2-8.5-8.5-14.3-9.9c-5.8-1.4-11.8-1.3-17.8-1.1
			c-3.3,0.1-6.8,0.2-9.7,2c-3.1,1.9-4.8,5.3-6.2,8.5C85.8,21.8,83.9,29,87,34.9c2,3.8,6.9,5.1,8.8,8.3
			C96.3,44.1,96.8,54.8,98.5,54.4z"/>
		<path d="M103.9,46c-1.5,2.5-2.9,4.8-4.3,7.2c-0.3,0.5-0.8,1.1-1.3,1.1c-1,0.1-0.9-0.9-1-1.6c-0.4-1.7-0.8-3.4-1.1-5.2
			c-0.4-2.4-1.3-4.3-3.8-5.3c-1.9-0.8-3.9-1.8-4.7-3.9c-2.4-5.9-3.6-11.8,0.4-17.5c0.1-0.1,0.2-0.3,0.2-0.4
			c1.3-4.8,5.4-7.4,8.4-10.8c1-1.1,2.6-1.8,4-2.5c4.3-2.1,9-2.7,13.7-2.8c0.4,0,0.8,0,1.2,0.1c5.1,1.8,10.2,3.6,15.2,5.6
			c3.2,1.3,5.7,3.5,6.8,7.2c1.4,4.6,2.5,9.1,2,13.9c-0.4,4.3-2.3,7.7-6.2,10.2c-5.3,3.4-11.1,4.8-17.1,5.9
			c-3.6,0.6-7.1,0.8-10.6-0.7C105.3,46.2,104.6,46.1,103.9,46z M98.6,51.7c1.8-2.3,3-4.3,3.9-6.5c0.6-1.5,0.7-1.4,2.3-1
			c2.5,0.6,5,1.8,7.4,1.6c7.2-0.5,14.2-1.7,20.5-5.8c2.6-1.7,4.5-3.8,5.1-6.9c1.2-5.4,0.6-10.6-1.5-15.7c-0.7-1.6-1.1-3.5-3-4.4
			c-1.4-0.7-2.7-1.7-4.2-2.3c-3.3-1.3-6.6-2.4-9.8-3.7c-2.3-0.9-4.7-1-7.1-0.6c-1.2,0.2-2.4,0.4-3.5,0.6c-0.8,0.2-1.8,0.6-2.5,0.4
			c-2.6-0.7-4.6,0.8-6.7,1.8c-0.8,0.4-2.1,0.9-1.6,2.4c0.1,0.1-0.3,0.5-0.6,0.6c-0.8,0.6-1.7,1-2.4,1.6c-1.3,1.2-2.6,2.4-3.6,3.8
			c-0.9,1.3-1.5,2.8-2.3,4.2c-1.7,3.4-2.5,6.9-1.3,10.6c0.3,1.1,0.6,2.2,0.8,3.3c0.4,2,1.6,3.5,3.4,4.4c1.8,0.9,3.8,1.7,5.7,2.6
			c0.9,0.4,1.7,1,2.5,1.5c-0.1,0.2-0.1,0.3-0.2,0.5c-0.9,0-1.9,0-3,0C97.6,47,98,49.1,98.6,51.7z"/>
		<path class="st1" d="M107.5,18c-0.9-1.5-0.4-2.3,0.4-3c2.6-2,7.7-0.9,9.3,2c0.6,1.1,0.8,2.1-0.2,3c-1.6,1.6-3.2,3.3-4.9,5.1
			c-0.1,1.9,1.6,3.8,0.7,6.3c-1.2-1.4-2.4-5.1-2.8-8c2.3,0,3.7-1.6,5.1-3c1.6-1.6,1.3-3.6-0.9-4.5c-2.1-0.8-4-0.9-5.7,0.9
			C108.3,17.1,108,17.4,107.5,18z"/>
		<path class="st1" d="M110.5,37c0.7-0.9,1.2-1.8,1.9-2.4c0.3-0.2,1.3,0.3,1.8,0.7c0.7,0.6,0.4,1.5,0,2.2c-0.5,0.7-1.1,1.5-2.1,1.2
			C111.5,38.3,111.2,37.7,110.5,37z"/>
	</g>
</g>
<g id="Layer_9">
</g>
<g id="Layer_10">
</g>
<g id="Layer_11">
</g>
<g id="Layer_12">
</g>
<g id="Layer_13">
</g>
<g id="Layer_14">
</g>
</svg>
