<?xml version="1.0" encoding="utf-8"?>
<!-- Generator: Adobe Illustrator 23.1.0, SVG Export Plug-In . SVG Version: 6.00 Build 0)  -->
<svg version="1.1" id="Layer_1" xmlns="http://www.w3.org/2000/svg" xmlns:xlink="http://www.w3.org/1999/xlink" x="0px" y="0px"
	 viewBox="0 0 183.9 207.6" style="enable-background:new 0 0 183.9 207.6;" xml:space="preserve">
<style type="text/css">
	.st0{fill:#FFFFFF;}
	.st1{fill:#EB584A;}
</style>
<g id="Layer_3">
	<g>
		<path class="st0" d="M43.2,113.5c-1.8-1.3-3.4-3.1-5.6-3.3c-1.8-0.2-3.5,0.6-5.2,1.4c-3.7,1.6-7.6,2.8-11.6,2.7
			c-4-0.1-8.1-1.5-10.8-4.5c-1.9-2-3-4.6-4.1-7.2c-2-4.6-4.1-9.8-2.2-14.5c1.2-3.2,4.1-5.5,7-7.4c4.5-2.9,9.5-5,14.8-5.5
			s10.9,0.9,14.9,4.3c6.5,5.6,7,13.9,8.4,21.7C49.6,105.7,52.9,121,43.2,113.5z"/>
		<path d="M40.7,110.7c-1.9,1-3.9,2.3-6,3.2c-6,2.7-12.1,2.6-18.2,0.5c-3.7-1.3-7.3-3-9.7-6.3c-0.8-1-1.5-2.1-2.1-3.2
			c-0.7-1.5-1.3-3.1-1.9-4.7c-2.6-6.5-0.2-14.8,5.4-18.6c2.3-1.6,4.4-3.5,7.1-4.3c3.3-1.1,6.7-2.1,10.2-2.3C30,74.7,34.2,76,38,78.1
			c1.4,0.8,2.8,1.9,3.8,3.2c1.8,2.4,3.5,5,4.8,7.7c1.6,3.6,2.3,7.5,1.4,11.4c-0.1,0.6-0.2,1.1-0.4,1.6c-0.4,1.6-0.1,2.9,1.1,4.2
			c1.9,2.1,2.8,4.8,3.5,7.5c0.3,1.3-0.3,2-1.5,1.8C47.1,114.6,43.6,113.4,40.7,110.7z M50.9,114.1c-0.7-3.3-1.9-6.1-3.8-8
			c-1.3-1.2-1.3-2.3-0.8-3.8c0.5-1.8,0.9-3.8,0.9-5.6c-0.1-6.4-3.7-11.3-7.4-16c-0.2-0.2-0.5-0.4-0.8-0.6c-4.5-2.8-9.3-4.4-14.6-3.7
			c-5.9,0.8-11.4,2.6-16,6.5c-2.7,2.3-4.5,4.9-4.8,8.5c-0.3,3.5-0.1,6.8,1.3,10.1c0.9,2.1,1.8,4.1,3.2,5.8c2.8,3.4,6.6,5,10.6,6.2
			c5.8,1.8,11.4,0.9,16.7-1.8c2.2-1.1,4.3-2.4,6.6-3.7c-0.1,0.8-0.2,1.4-0.3,2C44.6,111.8,47.2,113.7,50.9,114.1z"/>
		<path class="st1" d="M39.4,104.3c-1.1,0.4-2.1,0.4-2.5,1.6c-0.1,0.4-1,0.8-1.6,0.7c-5.8,0-11.7,0.1-17.4-1.2c-1.5-0.3-3-0.6-4.4-1
			c-1.3-0.3-2-1.1-2.1-2.5c-0.1-2.8-0.3-5.6-0.5-8.4c-0.1-1.2,0.3-1.9,1.4-2.7c3.4-2.3,6.7-4.9,10-7.3c0.5-0.3,1-0.6,1.4-0.9
			c0.9-0.6,1.6-0.5,2.4,0.3c0.6,0.6,1.4,1.1,2,1.8c2.4,2.6,5.4,4.4,8.4,6.2c1.3,0.8,1.9,1.6,1.7,3.1c-0.2,1.7-0.3,3.3-0.3,5
			C37.8,100.8,37.7,102.7,39.4,104.3z M15.5,102.9c0.5,0.3,0.6,0.5,0.8,0.6c5.9,1.3,11.8,1.6,17.8,1.7c0.3,0,0.7,0,0.9-0.2
			c0.3-0.2,0.7-0.5,0.7-0.8c0-0.3-0.3-0.8-0.5-0.9c-2.5-1.4-5-2.8-7.5-4.1c-1-0.5-2.1-0.6-3.2-0.1C21.6,100.2,18.7,101.5,15.5,102.9
			z M24.8,83.8c-3,1.9-6.3,3.3-8.5,6.5c3.1,1.3,6.1,0.8,9,1.2c3.1,0.5,7.4,0.3,8.6-0.3C30.9,88.8,27.9,86.4,24.8,83.8z M24,97.8
			c-4.1-1.9-7.7-3.6-11.4-5.4c-0.7,2.8-0.1,5.4,0.1,8.1c0,0.7,0.6,1.2,1.3,1.1c0.9-0.1,1.8-0.2,2.6-0.5C18.9,100.1,21.2,99,24,97.8z
			 M36.3,93.6c-2.9,0.8-5.2,2.4-8,3.7c2.8,1.5,5.2,2.8,7.6,4.2C36.6,98.6,36.8,95.8,36.3,93.6z M32.1,93.4
			c-4.8-0.2-9.3-0.4-13.8-0.7c1.2,1.5,2.8,1.9,4.3,2.7c2.4,1.2,4.7,1.8,7.1-0.2C30.3,94.6,31.4,94.7,32.1,93.4z"/>
		<path class="st0" d="M46.4,46.8c0.5,2.5,2.3,4.7,4.6,5.7c0.3,0.1,0.5,0,0.7-0.3s0-0.5-0.3-0.7c-2-0.9-3.6-2.8-4-5
			c0-0.3-0.3-0.5-0.6-0.4C46.5,46.3,46.3,46.6,46.4,46.8L46.4,46.8z"/>
	</g>
</g>
<g id="Layer_4">
</g>
<g id="Layer_5">
</g>
<g id="Layer_6">
</g>
<g id="Layer_7">
</g>
<g id="Layer_8">
</g>
<g id="Layer_9">
</g>
<g id="Layer_10">
</g>
<g id="Layer_11">
</g>
<g id="Layer_12">
</g>
<g id="Layer_13">
</g>
<g id="Layer_14">
</g>
</svg>
