<?xml version="1.0" encoding="utf-8"?>
<!-- Generator: Adobe Illustrator 23.1.0, SVG Export Plug-In . SVG Version: 6.00 Build 0)  -->
<svg version="1.1" id="Layer_1" xmlns="http://www.w3.org/2000/svg" xmlns:xlink="http://www.w3.org/1999/xlink" x="0px" y="0px"
	 viewBox="0 0 307.2 263.6" style="enable-background:new 0 0 307.2 263.6;" xml:space="preserve">
<style type="text/css">
	.st0{fill:#FFFFFF;}
	.st1{fill:#BCBCBB;}
</style>
<g>
	<path class="st0" d="M69.8,28.6c0.1-1.2,0.3-2.5,1.2-3.2c0.8-0.6,2-0.5,3-0.3c9.3,1.8,16.2,9.5,24.7,13.6c10,4.9,21.8,4.6,32.8,2.9
		c11-1.7,21.9-4.8,33-5.2c5-0.2,10.5,0.4,14,3.9c3.7,3.7,4.1,9.7,2.5,14.7s-4.9,9.2-7.9,13.5c-4.4,6.2-8.4,12.8-11.8,19.6
		c-3.4,6.7-6.4,14.3-4.4,21.5c0.4,1.6,1.1,3.2,2.4,4.1c1.3,0.9,3.1,1,4.7,1c18.7,0,37.3-4.8,56-3.5c5.9,0.4,12,1.6,17,4.8
		c4.3,2.8,7.4,6.9,10.5,11c4.3,5.7,8.6,11.3,12.9,17c3.4,4.5,6.8,9.1,8.8,14.3c1.8,4.9,2.2,10.2,2.2,15.4
		c0.1,19.7-5.7,39.9-18.9,54.5c-1,1.1-2.2,2.3-3.6,2.6c-2.5,0.6-5.1-1.3-6.1-3.6c-1.1-2.3-1-5-1.1-7.6c-0.2-8.1-1.5-16.2-4-24
		c-1.8-5.9-5.4-12.4-11.5-12.9c-6.6-0.6-11.5,6.4-12.5,13c-1,6.6,0.4,13.4-1.3,19.9c-1.9,7.3-7.8,13.5-15.1,15.6
		c-0.9-6-1.7-12-2.6-17.9c-0.4-3-0.9-6.1-2.7-8.5c-3.5-4.6-10.6-4.8-16-2.8c-5.5,2-10.2,5.7-15.8,7.4c-6.3,2-13.5,1.5-19.1,5
		c-4.6,2.8-7.3,7.7-10.4,12c-3.1,4.3-7.4,8.6-12.7,8.8c-2.9,0.1-5.8-0.9-8.6,0c-6.5,2.1-8.5,13.6-15.2,12.3
		c-2.8-0.6-4.6-3.6-4.8-6.5s0.9-5.7,1.8-8.5c3.6-11.4,4.4-24.4-1.8-34.6c-5.6-9.1-16.1-14.8-20-24.8c-2-5-2-10.6-1.8-16
		c0.5-23.2,4.1-45.8,6.4-68.8c0.8-8.3-2.5-16.1-3.5-24.3C69,52.3,68.8,40.4,69.8,28.6z"/>
	<path d="M114.6,110c-1.5,0.8-3.1,1.1-4.6,1.5c-0.1,0-0.2-0.1-0.3-0.2C110.9,110,112.5,109.5,114.6,110z"/>
	<path d="M108,109.2c1.9-1,3.3-2.4,5.3-2.3c0.1,0,0.1,0.2,0.2,0.3c-0.1,0.1-0.1,0.3-0.2,0.3c-1.6,0.7-3.2,1.4-4.7,2.1l-0.2-0.1
		C108.3,109.5,108.3,109.4,108,109.2z"/>
	<path d="M126.7,91.1c0.8,0.2,1.3,0.4,1.8,0.5c0.3,0.1,0.7-0.3,0.6-0.6c-0.1-0.2-0.3-0.5-0.5-0.5C128,90.4,127.9,90.4,126.7,91.1z"
		/>
	<path d="M123.4,92.4c0.3-0.2,0.5-0.3,0.7-0.5c0.2-0.2,0.1-0.5-0.1-0.7s-0.5-0.3-0.7-0.1s-0.4,0.5-0.4,0.8
		C122.8,92,123.2,92.2,123.4,92.4z"/>
	<path d="M123.4,96.4c0.1-0.2,0.4-0.4,0.4-0.7c0.1-0.4-0.2-0.6-0.6-0.6c-0.2,0-0.5,0.2-0.6,0.4C122.6,95.8,122.9,96.3,123.4,96.4z"
		/>
	<path d="M105.1,91.1c-0.8,0.2-1.3,0.4-1.8,0.5c-0.3,0.1-0.7-0.3-0.6-0.6c0.1-0.2,0.3-0.5,0.5-0.5C103.7,90.4,103.8,90.4,105.1,91.1
		z"/>
	<path d="M108.3,92.4c-0.3-0.2-0.5-0.3-0.7-0.5c-0.2-0.2-0.1-0.5,0.1-0.7s0.5-0.3,0.7-0.1s0.4,0.5,0.4,0.8
		C108.9,92,108.6,92.2,108.3,92.4z"/>
	<path d="M108.3,96.4c-0.1-0.2-0.4-0.4-0.4-0.7c-0.1-0.4,0.2-0.6,0.6-0.6c0.2,0,0.5,0.2,0.6,0.4C109.2,95.8,108.8,96.3,108.3,96.4z"
		/>
	<path class="st1" d="M84.9,53.1c0.7,0.8,1.3,1.9,0.9,2.8c-0.2,0.4-0.6,0.7-1,1c-3.2,2-6.3,4.1-9.4,6.1c-0.7,0.4-1.4,0.9-2.2,0.8
		c-1.5-0.1-2.4-1.8-2.4-3.4c0-1,0.2-1.9,0.5-2.8c0.8-2.1,2.4-3.7,3.2-5.8c0.6-1.5,0.3-5.1,1.5-6.3C78.6,42.9,83,50.7,84.9,53.1z"/>
	<path class="st1" d="M149.9,52.4c0.3-0.7,0.9-1.3,1.5-1.7c4.7-3.9,10.7-5.8,16.6-7.2c1.2-0.3,2.5-0.5,3.8-0.2
		c1.2,0.3,2.3,1.5,2.2,2.7c-0.2,1.5-1.7,2.3-3.1,2.7c-3.3,1-7.1,1.4-9,4.2c-1.2,1.8-1.3,4.1-1.2,6.2c0,0.8,0.1,1.7-0.3,2.4
		c-0.4,0.6-1,1-1.7,1.3C154.9,64.1,148.6,55.4,149.9,52.4z"/>
	<path class="st1" d="M110.5,209.8c-0.4-5.3-0.4-11.1,2.9-15.2c2.1-2.7,5.4-4.2,8.5-5.5c7.1-3,14.5-5.3,22.1-6.9
		c-1.2,5-4.7,9.2-8,13.2c-0.8,0.9-1.5,1.8-2.6,2.4c-0.9,0.5-1.9,0.6-2.9,0.9c-8.3,1.9-15,9.1-16.5,17.5c-0.2,1.1-1.3,9.8-3.5,5.8
		c-0.5-0.9,0.4-4.9,0.4-6.1C110.9,213.8,110.7,211.8,110.5,209.8z"/>
	<path class="st1" d="M218.7,194.5c3.1-1.4,6.3-2.8,9-4.9c-5.8-2.5-11.2-5.9-15.8-10.3c-1.6-1.5-3.3-3.1-5.5-3.1
		c-1.8,0.1-3.3,1.4-4.4,2.8c-2.8,3.1,14.5,13.7,11.7,16.8c-8.5,9.1-36.9,11.6-48.7,15.9c4.7,0,10.5-2.2,15.1-3.3
		c3-0.7,5.9-1.7,8.8-2.7C199.1,202.5,208.9,198.7,218.7,194.5z"/>
	<path class="st1" d="M169,125.9c5.4,0.7,10.9-0.5,16.1-2.2c5.2-1.7,10.2-3.9,15.6-5.1c4.2-0.9,8.5-1.2,12.7-2.3
		c0.3-0.3-0.2-0.8-0.6-1c-4.3-1.9-8.7-3.7-13.4-4.2c-4-0.4-8,0.2-12,0.8c-8.5,1.3-17.7,1.8-26,4.1C152,118.6,164.4,125.9,169,125.9z
		"/>
	<path class="st1" d="M77.2,131c0.4,2.4,0.5,4.8,0.5,7.2c0,12.4,0,24.9,0,37.4c0,0.9-0.1,2-0.8,2.5c-1.2,0.9-2.8-0.5-3.6-1.8
		c-3.9-6.4-4.9-14.1-5.8-21.5c-1.3-10.7-2.6-21.4-3.9-32.1c-0.3-2.8-2.8-10.5,0.6-11.9c3.3-1.5,5.5,4.8,6.8,6.9
		C73.5,121.9,76.2,126.1,77.2,131z"/>
	<path class="st1" d="M109.4,113.7c-0.7-1.5-2.9-11.7-5.8-9.3c-1.2,1,1.1,4.1,1.7,5.2c0.5,0.9,0.9,2,1.7,2.7
		C107.3,112.7,109.4,113.7,109.4,113.7z"/>
	<path class="st1" d="M127.9,101.1c-0.2,1.9-2.2,12.1-5.6,8c-1.2-1.5,0-4.3,1-5.6C123.6,103,128,100.1,127.9,101.1z"/>
	<path d="M70.6,78.1c1.8,1.1,1.9,2.8,1.5,4.5c-0.4,1.7-1.1,3.4-1.9,5.1c-1.5,3.2-3.1,6.3-4.7,9.5c-0.7,1.3-1.2,2.4-0.2,3.9
		c0.6,0.8,0.5,2.1,0.5,3.2c0,3-0.2,6,0,9.1c0.3,5.1,0.8,10.2,1.3,15.8c1.7-2.9,3.1-5.4,4.4-7.9c1.3-2.6,2.4-5.3,3.6-8
		c1.1-2.6,1.8-5.4,4.1-8.2c0.1,1.2,0.4,1.9,0.2,2.4c-2.2,5.2-4.5,10.3-6.9,15.4c-1.4,3-2.9,5.9-4.4,8.9c-0.2,0.4-0.4,0.9-0.4,1.4
		c0.1,3.5,0.1,7,1.1,10.4c2,6.8,5.4,13,7.8,19.5c1.2,3.1,2.5,6.1,3.7,9.2c0.3,0.7,0.3,1.5,0.6,2.5c-2.1-0.6-3-1.9-3.6-3.6
		c-1.2-3.4-2.4-6.8-3.7-10.2c-1.1-2.8-2.3-5.5-3.7-8.6c-0.8,2.3,0.1,4.2,0.2,6c0.2,2.3,0.7,4.6,1,6.9c0.3,2.1,0.7,4.1,2,5.9
		c0.8,1.2,1.1,2.8,1.5,4.2c0.7,2.2,2.1,3.6,4.5,3.6c0.5,0,1,0.1,1.8,0.2c-0.1-1.2-0.2-2.2-0.3-3.5c2.1,1,2.2,2.9,3.2,4.3
		c-1.5,1.4-3.2,0.5-4.7,0.9c0.9,2.3,1.9,3.4,6.7,7.3c-0.7,0.3-1.3,0.5-1.9,0.8c1.4,1.9,2.8,3.9,4.3,5.9c0.7,0.1,1.4-1,2.1,0.1
		c0.1,0.3,0.4,0.5,0.5,0.8c2.4,6.8,5.9,13.2,6.2,20.7c0.1,4.6,0.7,9.2,1.2,13.8c0.2,1.9-0.5,3.1-2,4c-1.6,1.1-3.2,2.1-4.8,3.1
		c-1.9,1.2-3.1,2.8-3.4,5.1c-0.2,1.5,0.1,2.8,1.6,3.9c0.3-0.5,0.7-0.9,0.7-1.3c0.2-2.9,2.1-4.7,4.3-6.2c0.4-0.3,1.3-0.3,1.5-0.1
		c0.7,0.6,0.2,1.3-0.4,1.7c-2.4,1.3-3.3,3.4-3.6,6c2.8,1.8,5.9,1.6,9,2c1-2.6,1.5-5.2,3.9-6.9c1.2,0.4,1.2,1.1,0.6,2
		c-0.9,1.4-2,2.8-1.9,4.8c2.4,0.1,4.7-0.6,6.3-2.1c1.7-1.6,1.9-4.2,1.4-6.5c-0.3-1.3-0.6-2.6-2.2-3.6c-2.7-1.7-3.4-6.8-1.8-9.5
		c0.7-1.1,1.3-2.4,2.2-3.2c3.2-3,3.7-7,4.5-10.9c0.3-1.2,0.4-2.4,0.6-3.6c0.9-4.9,4.3-7.4,8.6-9.2c2.6-1,5.2-2.1,7.9-3.1
		c1.7-0.6,3.4-1.2,5.1-1.7c0.7-0.2,0.8-0.1,2.1,0.9c-2.5,2.1-5,3.8-8,5.2c-4.4,2-8.4,4.7-11.3,8.7c-0.8,1.1-1.3,2.3-2.1,3.9
		c2.3-0.2,3.8-1.6,6.3-1.1c-1.8,0.8-2.9,1.3-4.2,1.7c-2,0.7-3.1,2-3.3,4.3c2.5-0.9,4.7-2.4,7.4-2.6c-2.6,1.8-5.9,2.6-8.3,5
		c0.6,0.8,1.1,1.5,1.8,2.3c-1.9,1-4.1,1.6-5,3.6c-0.4,0.9-0.5,1.8-0.8,3.4c2.1-1.3,3.5-2.3,4.9-3.2c1.1,1,0.3,1.5-0.2,2.1
		c-0.9,0.9-1.9,1.8-2.6,2.9c-1,1.6-0.6,2.7,1.2,3.3c1.6,0.5,3.3,0.7,4.9,1c1.1-2.1,1.9-4.3,4.3-4.9c0.4-0.1,1,0.4,1.6,0.6
		c-1.2,1.4-3.5,1.6-2.9,4.1c3.9-0.3,7-1.8,8.7-5.5c1.2-2.7,2.3-5.5,2.9-8.5c0.5-2.6,1.9-5.1,3.1-7.5c0.3-0.6,1.2-1,1.9-1.1
		c2.4-0.6,4.9-1.1,7.4-1.6c0.6-0.1,1.2-0.4,1.8-0.3c4.1,0.6,7.7-1.2,11.4-2.4c1.1-0.4,2.3-0.9,3.4-1.3c1.7-0.6,1.9-0.4,2.5,1.4
		c0.1,0.2,0.1,0.4,0.2,0.5c0,0.1,0.1,0.1,0.3,0.3c0.8-0.2,1.7-0.3,2.5-0.6c4.2-1.9,8.7-2.4,13.1-3.5c3.3-0.9,6.6-1.9,9.8-2.8
		c1.5-0.4,3.1-1,4.6-1.3c5-1,9.6-3,14.2-5c4.1-1.8,8.3-3.6,12.4-5.4c1.3-0.6,2.6-0.6,4.3-0.1c-1.6,2.1-4,1.8-5.7,2.9
		c-1.9,1.1-3.9,2-5.9,2.9c-1.9,0.8-3.9,1.5-5.9,2.3c-2.1,0.8-4.1,1.8-6.1,2.6c-2,0.7-4,1.3-6.2,2.1c0,1.5-0.1,3,0,4.4
		c0.2,1.8-0.3,3.3-1.5,4.7c-1.4,1.7-2.8,3.4-4.1,5.2c-1,1.4-1.4,3-0.1,5.3c1.2-4.3,2.4-7.9,6.5-9.3c1,0.9,1.4,1.7,0.3,2.6
		c-3.6,3-3.7,3.1-4.1,7.5c2.2,1,6.1,1.1,8.3,0.3c0.8-2.2,1.5-4.3,2.3-6.3c0.3-0.8,1.1-1.4,1.7-2.1c0.5-0.5,1.3-0.8,1.8,0
		c0.2,0.4,0.1,1.2-0.3,1.6c-1.4,1.5-2.3,3.2-2.7,5.4c1.9-1.2,3.8-2.1,5.3-3.4c0.8-0.7,1.2-2.1,1.5-3.2c0.9-3.7,0.9-7.6,0.9-11.4
		c0-1.3-0.1-2.6,0-3.9c0-0.6,0.3-1.3,0.4-2c1.2,0.2,1.4,1,1.5,1.8c0.4,5.5,0.6,11.1-0.8,16.5c-0.7,2.8-2,5.4-4.7,7.1
		c-3,1.9-6,3.6-9.6,4.1c-1.9,0.2-3.6-0.6-5.3-0.7c-2.9-0.1-4.6-1.8-6.1-3.8c-2.1-2.6-2.2-4.7-0.3-7.4c0.9-1.3,1.9-2.6,3.1-3.7
		c2.3-2.3,2.3-5.1,2.3-8.3c-10.1,2.7-19.9,5.3-29.8,7.9c-0.2-1.1-0.4-1.9-0.6-2.9c-0.3,0-0.8-0.1-1.1,0c-3.6,1-7.1,2.2-10.7,3.1
		c-2.7,0.7-5.5,1.1-8.2,1.6c-1.9,0.3-3.4,0.9-4.1,2.9c-0.8,2.2-1.6,4.3-2.4,6.4c-1.2,3.2-2.4,6.4-3.7,9.5c-1.1,2.6-3.6,4-5.7,5.7
		c-0.7,0.6-2.1,0.6-3.2,0.4c-3.4-0.4-6.7-0.9-10.1-1.4c-0.3,3-0.6,6.3-1,9.6c-4.1,1.6-7.7,3.9-12.2,3.3c-1.2-0.2-2.4,0.1-3.6,0.1
		c-4.2,0.3-7.6-1.9-10.6-4.4c-1.8-1.5-2-4-1.5-6.2c0.4-2,1.3-3.8,3.2-4.9c2.6-1.6,5.1-3.4,8.1-5.5c0-0.3,0-1.1,0-1.9
		c-0.3-4.9-0.5-9.8-1.1-14.7c-0.4-3.8-1.3-7.5-2.8-11c-0.8-1.7-1.3-3.6-3.3-4.4c-0.3-0.1-0.6-0.5-0.9-0.8c-4-4.9-8-9.8-11.9-14.8
		c-0.9-1.1-1.5-2.4-2.2-3.6c-0.5-0.9-0.9-1.9-2.2-2.3c-0.6-0.2-1.1-1.4-1.3-2.1c-0.8-3.7-1.4-7.5-2.1-11.3
		c-0.8-4.8-1.5-9.5-2.2-14.3c-0.4-2.8-0.6-5.6-0.8-8.4c-0.5-7.8-1.1-15.6-2.3-23.4c-0.6-4.3-0.7-8.6-1-13c-1,0.3-2.1,0.5-3.3,0.8
		c-0.1-0.7-0.4-1.3-0.2-1.7c1.3-2.6,2.9-5,4.2-7.6c2.4-4.9,4.6-9.8,6.8-14.7c0.5-1.2,0.8-2.5,1.3-3.7L70.6,78.1z"/>
	<path d="M183,111.3c0.1,0.6,0.3,1.1,0.5,2c2.7-0.9,5.3-1.7,7.8-2.5c3.4-1.1,6.9-2.3,10.3-3.4c1.2-0.4,2.1-0.1,2.4,1
		c0.5,1.7,1.8,2,3.2,2.2c1.6,0.2,3.2,0.2,4.8,0.3c6.5,0.5,13,1,19.5,1.4c3.7,0.3,6.9,2,10.4,3.5c-0.1,0.4-0.2,0.9-0.3,1.3
		c3,3.3,6.2,6.6,9.2,10.1c4.9,5.6,9.2,11.6,12,18.6c0.6,1.6,1.4,3.1,2.2,4.6c0.6,1,0.3,1.7-0.5,2.3c-0.5-0.1-1.1-0.2-2-0.4
		c1.9,5.8,2.1,11.4,1.6,17.2c-0.6,7.8-1.9,15.5-4.4,23c-2,6.3-2.9,12.6-1.7,19.3c1.2,6.6-1,12.5-5.6,17.4c-0.6,0.6-1.4,1.2-2.3,1.4
		c-7.1,2.5-11.1,1.7-15.9-2.6c-1.6-1.5-2.1-3.5-1.9-5.5c0.1-1.8,0.5-3.5,1.6-5.1c1.6-2.4,2.8-4.9,2.7-8.1c-0.1-3.1,0.6-6.3,1.3-9.4
		c0.3-1.5-0.1-2.3-1.2-3c-4-2.7-8-5.4-12-8.1c-4.9-3.3-9.9-6.5-14.7-10c-3.5-2.5-6.4-5.6-6.9-10.2c-1.4,0.6-2.7,1.1-4.1,1.8
		c-0.2-0.8-0.5-1.3-0.3-1.6c2.6-6.3,4.3-12.9,7.6-19c0.5-0.9,0.9-1.8,2.2-2c0.7,1.2,0.3,2.5-0.2,3.6c-1.3,3.1-2.7,6.3-4,9.4
		c-0.5,1.2-1,2.4-1.6,3.9c0.8-0.1,1.4-0.1,2.3-0.3c0.2,0.7,0.7,1.5,0.7,2.3c0.1,4.8,2.7,8.1,6.5,10.6c7.1,4.7,14.4,9.2,21.6,13.8
		c2.1,1.3,4.3,2.6,6.1,4.3c1.2,1.1,1.8,2.8,2.7,4.4c-3.6,1.4-2.2,4.2-2.4,6.9c1.5-0.5,2.8-0.9,4-1.3c0.1,0.1,0.1,0.3,0.2,0.4
		c-1.4,0.8-2.8,1.7-4.5,2.7c1.9,0.6,3.2-0.6,4.8-0.1c-1.1,0.5-2.3,0.9-3.4,1.4c-0.6,0.4-1.6,1-1.6,1.5c-0.1,3.1-2.1,5.4-3.3,8
		c-0.5,1.2-1.3,2.3-0.5,3.9c0.7-1.4,1.1-2.8,1.9-3.9c0.8-1.2,1.8-2.5,3.9-1.9c-0.5,0.8-0.8,1.4-1.2,1.9c-1.5,1.8-2.3,3.8-2.3,6.1
		c0,1.7,0.3,2.2,1.7,2.7c2.5,0.8,4.9,0.7,7.8-0.6c0.1-2.7,0.1-5.6,2.3-7.8c0.5-0.5,1.2-0.8,2.3-1.4c-0.3,3.3-3.3,5.1-2.2,8.3
		c1.8-1.5,3.8-2.8,4.5-5c1-3.1,1.8-6.2,1.2-9.5c-0.2-1.2-0.5-2.4-0.5-3.6c0-2.2,0.1-4.4,0.3-6.6c0.3-2.5,0.8-4.9,1.3-7.5
		c-2.3-1.8-5-2.7-7.6-3.6c-1-0.4-2.1-0.6-3.1-1.1c-0.7-0.4-1.6-1.1-1.8-1.8c-0.3-1.6-1.3-1.9-2.6-1.9c-2.1-0.1-4.1-0.4-5.9-1.8
		c-0.7-0.5-1.7-0.5-2.6-0.6c-2.7-0.5-5.1-1.6-7.4-3.2c-1.2-0.8-2.6-1.5-4-2c-3-1.1-6.1-2.1-9.1-3.2c-0.8-0.3-1.5-0.9-2.1-1.9
		c0.6,0,1.2-0.2,1.8-0.1c3.6,1.2,7.2,2.4,10.8,3.7c1.6,0.6,3.1,1.1,4.5,2.3c1.9,1.6,4.4,2.3,7,2.5c1.5,0.1,2.9,0.3,4.2,1.4
		c0.9,0.7,2.5,0.7,3.8,0.8c1.9,0.1,3.3,0.6,3.6,2.8c0.1,0.6,0.7,1.3,1.2,1.5c3.3,1.3,6.6,2.5,10,3.8c0.3-0.5,0.6-1,0.8-1.5
		c2.8-8.4,3.8-17,4.1-25.8c0.2-4.4-0.8-8.6-2-12.8c-0.1-0.5-0.3-0.9-0.5-1.6c0.7-0.4,1.3-0.8,2-1.2c0-0.3,0-0.6-0.1-0.9
		c-2-5-4.7-9.7-7.8-14.2c-2.9-4.3-6.5-7.9-9.6-11.9c-1.4-1.8-3.3-3.3-5.1-4.7c-0.6-0.5-1.4-0.6-2.2-0.7c-6.1-0.4-12.3-0.5-18.3-1.2
		c-4.7-0.5-9.3-1.7-13.9-2.8c-1.3-0.3-2.3-1.5-3.8-2.5c-3.9,1.4-8.3,2.9-12.6,4.4c-1.7,0.6-3.5,0.9-5.3,1.3
		c-0.7,0.2-1.6,0.4-2.1,0.1c-2.5-1.7-5.1-0.6-7.5,0c-5.6,1.3-11.1,2.1-16.7,0.8c-0.6-0.1-1.2,0.3-2.1,0.5c-0.9-2.6-1.5-5.1-0.2-7.8
		c0.4-0.8,0.6-1.7,0.9-2.6c0.1-0.5,0.2-1.1,0.5-1.4c2.1-1.6,2.4-4.3,3.8-6.4c0.8-1.1,0.7-2.3,0.1-3.4c-3.6-6.8-1.7-13.1,2.2-18.9
		c1.4-2.1,3.2-3.9,4.8-5.8c4.9-5.9,9.4-12.1,12.2-19.3c1.1-2.8,2.3-5.6,3.5-8.5c-0.7-0.8-1.6-1.3-1.3-2.8c0.7-3-1-4.8-4.1-4.5
		c-1.6,0.2-3.1,0.7-4.7,1c-4.4,1.1-8.8,2.2-13.1,3.3c-1.7,0.5-3.4,1.1-5.1,1.7c-3,1.1-6.1,2.1-9.1,3.3c-1.2,0.5-2.4,1-3.6,1.6
		c-1,0.5-1.7,0.4-2.4-1c0.9-0.8,1.8-1.7,2.8-2.3c2.2-1.2,4.5-2.3,6.7-3.4c0.4-0.2,0.7-0.3,1.1-0.4c8.4-1.2,16.2-4.4,24.2-7
		c2.9-0.9,5.7-1.2,8.4,0.5c2.5,1.5,3.9,4.3,3.1,7.2c-0.7,2.6-1.6,5.2-2.7,7.7c-1.9,4.6-3.9,9.2-6.6,13.5c-2.7,4.4-6.1,8.3-9.4,12.2
		c-2.5,2.9-4.8,5.9-5.9,9.7c-1.1,4-1.5,7.9,0.7,11.6c1.2,2,1.1,3.6-0.2,5.6c-1.4,2.2-2.5,4.6-3.5,7c-0.7,1.6-0.5,3.4,0.3,5
		c0.4,0.8,1.5,1.4,2.4,1.6c2.7,0.7,5.4-0.1,8-0.8c3.3-0.9,6.5-2.1,9.7-3.2c1-0.3,1.8-0.6,2.7,0.4C181.4,111.2,182.3,111.1,183,111.3
		z"/>
	<path d="M96.3,90.6c0.5,1.2,1,2.1,1.3,3c1.8,5,5.2,6.2,10.4,5.4c2.7-0.4,4.3-2.6,5.4-4.9c-2.2-3.4-4.2-6.6-6.3-9.8
		c1.1-2.8,3.5-3.9,6.1-4.5c2.5-0.5,5-0.3,7.3,0.8c0.8,0.4,1.6,0.9,2.2,1.5c2.2,2.2,2.2,4.1-0.1,6.2c-2.3,2.1-4.7,4-7,6.1
		c4.1,5.2,9.1,5.9,14.3,2c1.7-1.3,3.3-2.5,4.5-4.3c0.4-0.7,1.2-1.1,1.9-1.7c1,1.2,0.5,1.9-0.1,2.6c-1.2,1.3-2.4,2.7-3.7,4
		c-1.1,1.1-2.2,2-3.1,3.5c-0.9,1.6-2.9,2.7-4.6,3.8c-1.3,0.9-2.2,1.7-2.4,3.5c-0.3,3.4-2.5,5.6-5.5,6.9c-2.2,1-4.3,0.9-6.3-0.5
		c-2.8-1.9-4.9-5.2-5.5-8.9c-5.1-1.9-7.3-6.6-9.4-11.3C95.5,93.2,94.8,92,96.3,90.6z M114.8,96.8c-1.6,1.2-3,2.2-4.3,3.4
		c-2,1.8-3,4.2-2.6,6.7c0.5,2.9,2.5,4.9,5.3,6.2c0.4,0.2,1,0.3,1.4,0.2c2.7-0.8,4.9-2.4,5.7-5.3c0.7-2.8,0.7-5.7-1.5-7.9
		C117.6,98.9,116.1,97.8,114.8,96.8z"/>
	<path d="M70.6,78.1c-2.6,0.2-2.8,0.2-3.4-2.1c-0.7-2.6-1-5.3-1.8-7.9c-1.5-4.6-3.2-9.1-4.8-13.6c-0.5-1.4-1-2.9-1.2-4.3
		c-1-5.3-2-10.7-2.8-16c-0.5-3.3,0.2-6.5,2.9-8.8c2.5-2.1,5.3-3.3,8.6-2.4c5.9,1.7,11,4.7,15.7,8.7c1.1,1,2.4,1.8,3.6,2.6
		c1.6,1.1,2.9,2.3,1.5,4.6c3.3,2.8,6.4,5.4,9.8,8.2c3.3-1.5,6.6-3,10-4.6c0.4,0.6,0.8,1.3,1.2,2.1c2.3-0.4,4.7-0.6,7.1-1.2
		c4.4-1,9-1.2,13.5-1c2.4,0.1,4.4,1.1,6.8,2.8c-1.8,0.3-3,0-4.1-0.3c-4.6-1-9.2-0.3-13.8,0.3c-3.7,0.5-7.3,1.3-10.9,2
		c-1.3,0.3-2.1-0.1-2.6-1.5c-1.9,0.8-3.7,1.5-5.4,2.3c-1.3,0.6-2.4,0.5-3.7-0.3c-4.1-2.7-7.3-6.2-10.8-9.6c-0.3-0.3-0.7-0.7-0.7-1
		c0.7-1.9-1-2.3-1.9-3.2c-3.7-3.6-8.4-5.8-12.8-8.4c-1.8-1.1-3.9-1.2-5.8-0.9c-0.9,0.1-1.7,1-2.5,1.5c-1.3-0.5-1.7,0-2,1.7
		c0.9-0.8,1.5-1.3,2-1.8C61,29,59.9,32,60.1,35.3c0.2,4.2,1.3,8.3,2.5,12.3c1.1,3.5,2.5,7,3.3,10.6c1.3,5.6,2.5,11.1,4.6,16.5
		C70.9,75.8,71.2,77,70.6,78.1L70.6,78.1z"/>
	<path d="M148.5,99.2c1.1-1.8,2.2-3.5,3.2-5.1c-0.7-2-3.5-1.4-3.7-3.8c2.4-0.3,3.9,1.3,5.7,2.1c0.2,2.5-0.8,4.3-2,6
		c-2.1,2.9-3.3,6.2-4.2,9.6c-0.9,3.4-0.2,6.8,1.4,9.9c0.1,0.3,0.3,0.6,0.5,0.7c3.7,1.6,3.7,5.8,6,8.4c0.6,0.7,0.3,1.5-0.2,2.2
		c-0.9,1.4-1.7,2.9-2.6,4.4c0.6,0.4,0.9,0.6,1.2,0.8c1.9,1.2,2.6,2.6,1.8,4.5c-2.8,6.2-3.5,13-5.1,19.5c-0.4,1.5-0.4,3-0.6,4.5
		c-0.1,0.5-0.5,1-1.1,2.1c-0.6-2.1-0.7-3.5-0.4-4.9c0.9-4.9,1.7-9.9,2.7-14.8c0.5-2.3,1.4-4.6,2-6.9c0.1-0.4,0.1-0.8,0.1-1.3
		c-0.7-0.3-1.3-0.6-1.9-0.9c-1.5-0.8-1.8-1.4-1.1-2.9c0.8-1.9,1.9-3.8,3-6c-1.1-1.4-2.3-3.1-3.5-4.6c-2.3-2.9-3.7-6.2-4.3-9.8
		c-0.6-3.7,0.2-7.2,1.9-10.5C147.9,101.5,148.2,100.3,148.5,99.2L148.5,99.2z"/>
	<path d="M87.3,88.1c2.9-3.7,5.6-6.5,9.2-8.3c1.3-0.7,2.5-1.7,3.5-2.7c2.5-2.6,4.9-5.3,7.3-8c0.8-0.9,1.7-1.7,1.3-3.2
		c-0.2-0.5,0.2-1.2,0.5-1.7c2-3.3,2.4-7,3-10.6c0.1-0.7,0.3-1.3,1-2c0.2,0.5,0.7,1.1,0.7,1.6c0,1.4-0.3,2.8-0.4,4.2
		c-0.3,2.7-1.4,5.1-1.5,7.9c0,1.4-1.1,3-2.1,4.2c-3.1,3.6-6.1,7.2-9.7,10.3c-3.4,2.9-7.3,5.2-11,7.8C88.8,87.7,88.3,87.8,87.3,88.1z
		"/>
	<path d="M118.8,59.4c0.3,0.5,0.6,1,0.8,1.5c0.7,1.7,1.2,3.4,1.9,5.1c1.5,3.3,3.3,6.3,6.5,8.5c3.6,2.6,7.1,5.2,11.5,6.3
		c3.1,0.8,6,2.1,9.3,3.2c-0.6,0.3-1,0.7-1.5,0.7c-1.1,0.1-2.3,0.2-3.3-0.1c-5.9-1.7-11.7-3.7-16.3-8c-0.7-0.6-1.5-1-2.1-1.7
		c-1.1-1-2.4-2-3.1-3.3c-1.7-3.4-3.1-7-4.5-10.5c-0.2-0.5,0-1.1,0.1-1.6C118.3,59.5,118.6,59.4,118.8,59.4z"/>
	<path d="M149.7,50.9c2.1-2.2,4.9-3,7.3-4.4c2.7-1.5,5.5-2.5,8.4-3.2c2.8-0.7,5.6-1.5,8.3-2.3c1.9,1.1,3.1,2.6,3.3,4.8
		c0.1,1.6,0,1.8-1.8,3.4c0-1.2,0-2.1-0.1-3c-0.2-1.9-0.9-2.6-2.7-2.3c-4.5,0.7-8.8,1.8-12.9,3.7c-2.5,1.1-4.9,2.3-7.4,3.5
		C151.4,51.5,150.7,51.9,149.7,50.9z"/>
	<path d="M80.9,48.5c-3-3.3-6.1-6.7-9.1-10c-0.1-0.1,0.1-0.3,0.3-0.7c0.3,0.1,0.7,0.1,1,0.3c0.7,0.6,1.4,1.2,2,1.8
		c4,4.1,7.9,8.2,12.2,12.7c-1.1,3.5-4.4,6.1-6.4,9.5c-0.4,0.7-1.3,1-2.1,1.6c-0.4-1.6-0.5-1.6,2.5-5.6c1.2-1.7,2.5-3.3,4-5.3
		C83.8,51.4,82.4,50,80.9,48.5L80.9,48.5z"/>
	<path d="M153.9,174.2c-0.8,1.1-1.7,2.3-2.6,3.4c-2.2,2.8-4.4,5.7-6.7,8.5c-2.2,2.6-4.5,5.1-6.8,7.6l-0.2,0.2
		c-0.6,0.1-1.1,0.1-1.7,0.1c0.1-0.5-0.1-1.2,0.2-1.6c1.2-1.6,2.6-3.1,3.9-4.6c1.3-1.5,2.5-3.1,3.8-4.6c1.5-1.8,3-3.5,4.5-5.2
		c1.1-1.3,2.2-2.5,3.4-3.8C152.3,173.6,152.8,173,153.9,174.2z"/>
	<path d="M136.6,67.6c0.1,2.4-1.5,4.2-3.7,4.3c-2.1,0.1-3.8-1.6-3.9-3.7c-0.1-2.2,1.9-4.4,4.1-4.4C134.8,63.8,136.6,65.7,136.6,67.6
		z"/>
	<path d="M94.7,68.4c0-1.8,1.6-3.3,3.5-3.4c2.2-0.1,3.9,1.5,3.9,3.7c0,2-1.7,3.9-3.4,4.1C97.1,72.8,94.7,70.2,94.7,68.4z"/>
	<path d="M155.5,59.6c0.5,1.2,0.9,2.2,1.4,3.4c-2.2,0-2.3-1.8-3.2-2.7c-1-1.1-1.9-2.3-2.8-3.5c-0.8-1.1-1.7-2.1-2.6-3.3
		c1.7-1.1,2.2,0.3,2.8,0.9c0.8,0.7,1.5,1.6,2.1,2.2c1.9-0.4,3.5-0.7,5.2-1c0.1,0.1,0.2,0.3,0.3,0.4
		C157.6,57.3,156.6,58.4,155.5,59.6z"/>
	<path d="M81.3,91.6c-1.4,1.5-2.8,3-4.1,4.4c0.9,2.2,3.4,2.7,4.6,5.2c-3.1-0.8-5.2-2.1-6.5-4.3c-0.5-0.8-0.4-1.8,0.3-2.5
		c1.2-1.2,2.4-2.5,3.6-3.6C80.1,90.1,80.9,90.4,81.3,91.6z"/>
	<path d="M148.6,99.2c-1.4,1.5-2.8,3-4.1,4.6c-0.7,0.9-1.1,2.1-2.4,2.4c-0.5-3.1,1.9-6.4,5.9-8.6C148.1,98.2,148.3,98.7,148.6,99.2
		L148.6,99.2z"/>
	<path d="M118.6,58.1c-1.9-3-2-5.8-2.4-8.5c-0.1-0.4,0.4-0.9,0.8-1.5C118.3,49.9,119.1,54.1,118.6,58.1z"/>
	<path d="M94.8,60.2c2.4-3.1,6.4-2.7,8.9,0.7c-1.6,1-2.8-0.6-4.1-0.7C98,60.2,96.6,60.2,94.8,60.2z"/>
	<path d="M137.5,60.9c-1.8-1.1-3.5-2.1-5.7-0.6c-0.2-0.7-0.6-1.2-0.5-1.5c0.2-0.5,0.6-1.1,1.1-1.3c1.7-0.9,4.8,0.5,5.4,2.4
		C137.8,60.1,137.6,60.4,137.5,60.9z"/>
	<path d="M232.1,157.7c2.3-1.2,4.1-2.2,6-3.1C237.1,157,235,158.3,232.1,157.7z"/>
	<path d="M80.9,48.5c-1.9,1.6-4,2.9-6.6,4.3C75.6,50.3,77.7,49.1,80.9,48.5L80.9,48.5z"/>
	<path d="M168.5,155.3c0.2-2.3,1.2-2.9,5.1-3.4C171.6,153.2,170.1,154.2,168.5,155.3z"/>
	<path d="M230.9,155.3c1.5-2,3.2-3,5.3-3.9C235.3,153.2,233.7,154.4,230.9,155.3z"/>
	<path d="M103.8,183.8c0.5-2.1,2.1-3.1,4.2-3.8c-1.2,1.4-2.4,2.8-3.6,4.2C104.2,184.1,104,184,103.8,183.8z"/>
	<path d="M173.6,145.9c-1,1.5-2.2,2.8-4.5,3.6C170.3,147.3,171.8,146.4,173.6,145.9z"/>
	<path d="M77.7,47.3c-1.5,1.2-3,2.3-4.5,3.5C73.9,48.6,75.3,47.3,77.7,47.3z"/>
	<path d="M123.2,136c-1.6-0.6-3.2-1.2-5.2-1.9C120.3,133.4,121,133.7,123.2,136z"/>
	<path d="M107.8,184.1c1.1-2.2,2.7-2.7,4.4-3.4C111.2,182.5,110.9,182.7,107.8,184.1z"/>
	<path d="M184.3,179c1.6,0.6,2.7,1.7,3.5,3.3C186.1,181.7,184.9,180.6,184.3,179z"/>
	<path d="M115.6,135.8c1.9-0.3,2.9,1,4.1,2.1C118.1,137.8,116.9,136.8,115.6,135.8z"/>
	<path d="M180.5,182.4c2-0.3,3.1,0.7,3.4,2.6C182.8,184.2,181.6,183.3,180.5,182.4z"/>
	<path d="M93.8,145.4c2.4-2,2.4-2,4.9-1.9C97.3,144.6,95.9,145.1,93.8,145.4z"/>
	<path d="M95.1,141.5c-0.6,0.5-1.2,1-1.9,1.7c0-0.5-0.1-0.8,0-1c0.5-0.4,1.1-0.8,1.6-1.2C94.9,141.2,95,141.3,95.1,141.5z"/>
	<path class="st0" d="M97.9,66.9c0,0.5-0.4,0.9-0.9,0.9s-0.9-0.4-0.9-0.9S96.5,66,97,66S97.9,66.4,97.9,66.9z"/>
	<path class="st0" d="M132.2,66.2c0,0.5-0.4,0.9-0.9,0.9s-0.9-0.4-0.9-0.9s0.4-0.9,0.9-0.9S132.2,65.7,132.2,66.2z"/>
	<path class="st0" d="M113.3,82.9c1-0.3,2.1-0.5,3.2-0.6c0.1,0,0.3,0,0.4,0c0.3,0,0.5,0,0.8,0.2s0.9,0.4,1.7,0.9
		c0.2,0.1,0.4,0,0.5-0.2s0-0.4-0.2-0.5c-0.8-0.4-1.3-0.7-1.8-0.9c-0.4-0.2-0.8-0.2-1.1-0.2c-0.1,0-0.3,0-0.4,0
		c-1.1,0.1-2.2,0.3-3.3,0.6c-0.2,0.1-0.3,0.3-0.3,0.5C112.9,82.8,113.1,82.9,113.3,82.9L113.3,82.9z"/>
</g>
</svg>
