<?xml version="1.0" encoding="utf-8"?>
<!-- Generator: Adobe Illustrator 23.1.0, SVG Export Plug-In . SVG Version: 6.00 Build 0)  -->
<svg version="1.1" id="Layer_1" xmlns="http://www.w3.org/2000/svg" xmlns:xlink="http://www.w3.org/1999/xlink" x="0px" y="0px"
	 viewBox="0 0 183.9 207.6" style="enable-background:new 0 0 183.9 207.6;" xml:space="preserve">
<style type="text/css">
	.st0{fill:#FFFFFF;}
	.st1{fill:#BCBCBB;}
	.st2{fill:#EB584A;}
	.st3{fill:#010202;}
</style>
<g id="Layer_3">
	<g>
		<path class="st0" d="M60.5,103.7c-0.9,13.1-1.8,26.1-2.6,39.2c-0.4,5.4-0.7,10.8-0.1,16.1c0.4,3.3,1.1,6.6,2.3,9.7
			c0.7,2,1.7,4.1,3.4,5.3c2,1.4,4.7,1.3,7.2,1.2c25.3-1.1,50.5-2.2,75.7-3.3c1.3-0.1,2.6-0.1,3.7-0.8c2.6-1.6,2.7-5.6,5.2-7.2
			c3.8,2.9,3.5,8.5,4.6,13.1c2,8.3,10.1,14.6,18.6,14.4c0.9,0,2-0.1,2.7-0.8c0.6-0.6,0.9-1.4,1-2.2c1.1-4.8,0.6-10-1.2-14.6
			c-0.9-2.1-2-4.1-2.7-6.3c-0.8-2.7-1-5.5-1-8.3c-0.2-7.1-0.3-14.3-2.6-20.9c-2.4-6.6-7.5-12.8-14.4-14.2c-1.6-0.3-3.3-0.5-4.5-1.6
			c-0.7-0.7-1.1-1.8-1.3-2.8c-0.8-4.7,1.9-9.7,0.1-14.2c-0.9-2.4-3-4.2-4.7-6.1c-2.1-2.4-3.8-5.2-5.4-8c-6.1-10.4-12.4-22-10.3-33.8
			c1.1-6.2,4.5-11.8,7-17.5c2.6-5.8,4.4-12.4,2.2-18.3c-3.3-9.2-15.6-13-24.7-9.3c-3.7,1.5-7,3.8-10.8,4.8c-9.8,2.5-21.4-4.7-29.8,1
			c-2.4,1.7-4.7,4.4-7.6,3.9c-1.3-0.3-2.3-1.1-3.4-1.8c-5.6-3.2-13.2-0.2-16.8,5.1S46,37.7,46.1,44.1c0.1,4.9,0.9,10.5,5,13.3
			c3.7,2.6,8.9,2.1,12.4,4.9c6.7,5.4,1.3,17.2,6.1,24.3c1.1,1.6,2.7,2.9,3.8,4.5s1.8,3.8,0.7,5.5c-1.7,2.8-5.9,1.8-9.1,2.6
			c-4,1-6.5,6.1-4.7,9.9"/>
		<path class="st1" d="M64.4,67.1c0.4,0.5,1.1,0.8,1.7,0.4c0.3-0.2,0.4-0.4,0.6-0.7c2.2-3.7,4.5-7.3,6.7-11c0.5-0.8,1-1.7,1.2-2.7
			c0.7-3.2-2.2-6-2.9-9.1c-0.2-1-0.2-2-0.5-3s-0.8-2-1.8-2.4c-0.2-0.1-0.5-0.1-0.7,0c-0.2,0.1-0.3,0.4-0.4,0.6
			c-1.5,5.3-3.3,10.6-4.6,16C62.8,59.4,64.4,63.1,64.4,67.1z"/>
		<path class="st1" d="M124.9,52.4c0.7,0.9,1.4,1.9,2.5,2.2c0.6,0.2,1.4,0.2,1.9,0.6c0.6,0.4,0.8,1.1,1,1.7c0.8,2.4,1.5,4.8,2.3,7.3
			c1,3,1.8,6.7-0.3,9.1c-1.8,2-5,2.1-7.3,0.8s-4-3.5-5.4-5.7c-4.4-7.1-8.3-16.8-8.1-25.3C111.8,31.4,122.8,49.5,124.9,52.4z"/>
		<path class="st1" d="M148.8,104.4c0.4,0.1,0.9,0.1,1.3-0.1c0.9-0.4,0.9-1.8,0.6-2.8c-1.2-5.2-3.7-10.8-8.7-12.7
			c-2.4-1-5.1-0.9-7.7-0.8c-11.2,0.7-22.3,3.5-32.6,8.1c-1.7,0.8-3.6,2.3-2.9,4c0.5,1.2,2,1.5,3.2,1.6
			C117.6,103.4,133.2,102.7,148.8,104.4z"/>
		<path class="st1" d="M170.1,163.9c-0.5-2.3-1.9-4.2-3-6.3c-2-3.6-3.6-7.4-4.5-11.4c-0.4-1.8-0.9-3.8-2.3-5.1
			c-1.5-1.3-3.7-1.2-5.5-0.3c-1.5,5.1-1.2,10.4-1.3,15.7l0,0c1.3,3.6,1.1,9.4,4.3,11.9c0.8,0.7,1.8,1.1,2.8,1.4
			c2.5,1,5.5,1.8,7.7,0.2C170.1,168.8,170.6,166.1,170.1,163.9z"/>
		<path class="st1" d="M164.3,188.2c0.8,0.8,1.7,1.7,2.8,1.7c1.1,0.1,2.1-0.7,2.7-1.7c0.6-0.9,0.8-2.1,1-3.2
			c0.7-3.6,1.5-6.2-1.4-8.7c-1.9-1.7-5.4-2.8-7.8-1.6C156,177.8,161.5,185.1,164.3,188.2z"/>
		<path class="st1" d="M59.6,165c0.4,2.7,1.1,5.4,2.6,7.7c1.5,2.3,3.9,4.1,6.7,4.2c1.8,0.1,3.6-0.5,5.2-1.1c1.8-0.6,3.5-1.3,5.3-1.9
			c0.6-0.2,1.2-0.4,1.6-0.9c1.3-1.4,0.1-3.7-1.2-5.2c-4.1-4.8-8.4-9.5-11.9-14.8c-2-3-3.1-7-5.1-9.8c-1.9-2.6-2.5-3.2-3.8-0.8
			c-1.3,2.4-0.1,9.1-0.1,11.8C58.9,157.8,59,161.4,59.6,165z"/>
		<path d="M78.8,97.8c-0.3,0.5-0.7,1-1.2,1.9c2.3,0.2,4.4,0.5,6.5,0.6c6,0.4,12,0.8,18,1c4.6,0.2,9.1,0.1,13.7,0.2
			c5.4,0.1,10.9,0.3,16.3,0.6c5.9,0.3,11.8,0.9,17.7,1.3c2.9,0.2,5.7,0.2,8.7,0.2c1.5,2,1,4.3,0.6,6.4c-0.6,3.1-1.5,6.2-2.4,9.3
			c-0.9,3.4-0.7,6.8-0.7,10.2c0,0.9,0.1,1.8,0.1,2.6c-0.2,4.5-0.5,8.9-0.7,13.4c0,0.6,0,1.3,0.1,1.9c0.5,0.1,0.9,0.1,1.2,0.2
			c0,0.1,0.1,0.3,0,0.4c-0.8,0.9-1.6,1.7-1.5,3.4c1.9-0.9,3.6-1.8,5.4-2.6l0.2,0.3c-0.3,0.3-0.6,0.5-0.9,0.7
			c-1.1,0.7-2.3,1.4-3.4,2.2c-2.1,1.4-2.4,2.4-1.2,5.2c0.5-0.4,1-0.7,1.5-1c0.5-0.4,1.1-0.7,1.9,0c-0.1,0.4-0.3,0.8-0.4,1.2
			c-0.6,1.3-1.2,2.6-1.7,4c-0.8,2.1,0.3,3.6,2,5.3c1-2.9,2.3-5.2,5.2-6.6c-0.2,2.5-3,3.2-2.9,5.6c0.9-0.3,1.7-0.5,2.5-0.8
			c-1,1.2-2.7,1.4-3.2,3c0.9,1.3,2,0,3.3,0.6c-0.6,0.3-1,0.5-1.7,0.8c0.6,0.4,0.9,0.7,1.2,0.8c3.4,1.4,6.9,1,10.4,0.3
			c0.9-0.2,1.1-0.8,1.1-1.6c0-2.5-1-4.6-2.4-6.7c-0.3-0.4-0.6-0.9-0.8-1.3c0.5-0.8,1-0.6,1.5-0.2c1.6,1.6,2.2,3.7,2.8,5.7
			c0.2,0.6,0.3,1.2,0.4,2.1c2-2.2,2.6-4.6,2.6-7.2c0-0.7-0.5-1.5-1-2.1c-2.4-2.7-5.5-4.4-8.9-5.4c-0.9-0.3-2,0-3.4,0
			c0.4-0.6,0.6-1.1,0.9-1.2c0.8-0.2,1.8-0.5,2.5-0.3c4,1.1,7.6,3.1,10.2,6.3c2.4,2.9,1.7,6.1,0.3,9.3c-0.2,0.4-0.5,0.8-0.7,1.2
			c-0.1,0.1-0.1,0.3-0.2,0.6c1.4,1.2,1.9,2.8,2.6,4.6c0.6,1.5,0.9,2.9,1.3,4.4c0.8,3,0.8,6,0.5,9c-0.4,2.9-1.7,4.2-4.5,4.8
			c-3.7,0.9-7.1,0.4-10.3-1.8c-0.8-0.6-1.8-1-2.7-1.5c-0.5-0.7-1-1.7-1.7-2.3c-2.2-1.8-3.4-4.2-4.2-6.8c-0.2-0.7-0.4-1.4-0.7-2
			c-0.9-2.1-1.4-4.1,0.3-6.2c-2-1.8-4.1-3.1-4.9-5.8c-0.8-2.6-0.3-5,0.4-7.4c-0.9,0.6-1,1.5-1.1,2.4c-0.5,3-1,6-1.4,9
			c-0.3,2-1.5,3.1-3.1,4c-0.5,0.3-1.1,0.6-1.6,0.9c-0.2,0.1-0.4,0.3-0.5,0.2c-2.6-0.9-5.2-0.2-7.8-0.1c-4.2,0.1-8.5,0.1-12.7,0.2
			c-0.4,0-0.8-0.1-1.2,0c-4.2,1.2-8.5,0.9-12.8,0.9c-2.5,0-4.9,0.3-7.4,0.4c-8.5,0.4-17.1,0.8-25.6,0.3c-2.1-0.1-4.2,0-6.2,0
			c-0.8,0-1.2,0.4-1,1.4c-1.1-2-2.8-1.7-4.3-1.6c-1.7,0.1-3.1-0.4-4.5-1.4c-1.4-1-2.1-2.3-2.2-4c-0.4-6.9-0.7-13.7-1.2-20.6
			c-0.3-4.1-0.9-8.3-1-12.4c-0.2-5.8,0-11.7,0.1-17.5c0.1-5.2,0.3-10.4,0.3-15.6c0-1-0.3-2-0.5-3c2.3-3.1,5.6-2.7,8.7-2.8
			c1.7-0.1,3.3,0,5,0c1-3.3,0.7-6.4,0.6-9.7c-0.6-0.3-1.3-0.7-2-1c-2.2-0.9-3.3-2.6-4.1-4.7c-1.9-5.4-0.8-10.5,2-15.4
			c0.5-0.8,1-1.6,1.4-2.5c0.5-0.9,0.9-1.6,2-1.8c0.7-0.1,1.4-0.8,1.9-1.4c1.8-2.1,3.8-4.2,5.4-6.4c1.1-1.5,1.7-3.4,2.5-5.1
			c0.4-0.8,0.7-1.5,1.3-2.1c-0.6,3.1-1.3,6.1-3.2,8.6c-0.7,0.9-1.4,1.8-2.2,2.5c-1,1-1.6,1.9-0.8,3.5c-0.3,0.2-0.6,0.3-0.9,0.5
			c-6.5,3.9-8.4,9.9-7.8,17c0.4,5.2,5,6.9,8.9,6.7c1.3-0.1,2.3-0.7,2.7-2c0.2-0.5,0.6-0.8,1.2-1.7c0,1.3,0,2,0,2.7
			c2.7,1.8,5.5,2.8,8.6,2.4c0.9-0.1,1.8-0.2,2.5-0.7c2-1.3,4.1-2.5,5.8-4.2c3.2-3,4.2-6.9,3.2-11.2c-0.5-2.4-1.4-4.5-2.9-6.5
			c-1.5-2-2.7-4.3-4-6.5c-0.3-0.6-0.8-1.2-0.2-2c0.9,0.2,1.1,1.1,1.5,1.7c1.2,1.9,2.3,3.8,3.7,5.6c1.8,2.4,3.1,5,3.5,8.3
			c1.5-1.1,2.8-2,4.1-2.8l0.3,0.3c-0.4,0.4-0.8,0.8-1.3,1.1c-3,1.8-3.4,4.5-3.3,8c1.7-1.5,3.1-2.7,4.6-3.9c1.4-1.2,2.9-2.3,4.3-3.4
			c1.4-1.1,2.1-3.2,4.5-4.1c-0.3,1-0.4,1.6-0.7,1.9c-1.3,1.4-2.6,2.9-4.1,4c-4.4,3.3-8.3,6.9-12.3,10.6c-1.6,1.5-3.4,3-5.3,4
			c-3.4,1.7-7,1.5-10.4-0.1c-0.9-0.4-1.8-1-2.8-1.6c-1.2,2.7-3.7,2.1-5.7,2.3c0.1,1.9,0.2,3.8,0.3,5.9c1.7-1.1,3.4-2.1,5-3.1
			c0.1,0.1,0.2,0.3,0.3,0.4c-0.7,0.4-1.3,0.8-1.9,1.3c-0.7,0.5-1.4,1.1-2.1,1.6c-0.5,0.4-1.1,0.8-1.4,1.3c-0.3,0.3-0.3,0.8-0.4,1.2
			c0.5,0.1,1,0.5,1.5,0.3c0.6-0.2,1-0.7,1.6-1C77.9,98.1,78.4,98,78.8,97.8L78.8,97.8z M68.8,169.6c0.2,0,0.3-0.1,0.4-0.1
			c0.4,1.3,0.8,2.5,1.1,3.8c0.2,0.9,0.7,1.3,1.7,1.3c4.9,0,9.9,0.2,14.9,0.1c3.8-0.1,7.7-0.5,11.5-0.6c7.7-0.2,15.5-0.2,23.2-0.3
			c1.1,0,2.2-0.1,3.3-0.1c5.3,0.3,10.5,0.2,15.8-0.3c0.5-0.1,1-0.3,1.6-0.5c-0.3-2.1-0.3-4.1-1.3-5.9c-3.3-0.1-6.5-0.2-9.7-0.2
			c-3.2-0.1-6.4-0.1-10-0.1c0.4-0.5,0.5-1,0.8-1.1c0.7-0.2,1.4-0.3,2.1-0.3c7.9-0.3,15.8,0.6,23.7-0.5c0.3,0,0.7-0.1,0.9,0
			c0.4,0.1,0.7,0.4,1.5,0.9c-1.5,0.4-2.6,0.7-3.7,1c-0.1,2.1-0.3,4,0.4,5.8c2.5-0.6,3-2.5,3.4-4.5c0.1-0.6,0.1-1.1,0.2-1.7
			c0.4-2.4,0.6-4.9,1.2-7.3c1.9-6.7,1.6-13.6,2.4-20.4c0.2-1.9,0.1-3.8,0.1-5.7c0-1.2-0.1-2.4,0-3.6c0.1-2.3-0.1-4.7,0.4-6.9
			c0.7-3.7,1.9-7.4,2.8-11.1c0.5-2,0.8-4,0.3-6c-2.6-0.2-5.1-0.5-7.5-0.6c-6.9-0.4-13.9-0.8-20.8-1.2c-1.5-0.1-3-0.1-4.6-0.1
			c-3.8,0.1-7.5,0.2-11.3,0.2c-4.7,0-9.4,0-14.1-0.2c-5.6-0.2-11.2-0.7-16.7-1c-6-0.3-12-0.7-17.9-0.9c-1.4-0.1-2.8,0.5-4,0.7
			c-0.1,0.5-0.2,0.6-0.2,0.8c0.8,4.1,0.5,8.1,0.3,12.2c-0.2,5.1-0.3,10.2-0.3,15.3c0,3.6,0.2,7.2,0.3,10.8c0.1,2.9,0.3,5.9,0.5,8.8
			c0.2,2.8,0.6,5.7,0.9,8.7c0.9-0.5,1.6-0.9,2.4-1.4c-0.3,1.6-2.8,1.7-2.1,3.9c2.1-1.4,4.2-2.7,6.2-4c-1.3,1.5-2.9,2.8-4.5,3.9
			c-1.7,1.1-2,2.5-1.3,4.6c0.7,0,1.5,0.1,2.3,0.1c1.2,0,2.4-0.1,3.6-0.1c3.9,0.2,7.8,0.4,11.7,0.6c7.9,0.2,15.8,0.6,23.7,0
			c2.4-0.2,4.8-0.1,7.2-0.1c0.8,0,1.8-0.2,2.3,1.1c-0.5,0.1-0.9,0.3-1.3,0.4c-0.9,0.1-1.8,0-2.6,0c-6.2,0.1-12.3,0.4-18.5,0.4
			c-5.5,0-11-0.4-16.5-0.6c-2.4-0.1-4.9-0.1-7.6,0.2c0.2,2.1,0.2,4.1,0.4,5.9c0.1,0.9,0.8,1.1,1.7,0.7
			C69.2,172.6,69,171.1,68.8,169.6z M165.7,185.8c3,3.3,5.4,4.8,8.9,5.2c3.2,0.3,6.5-1.1,6.6-4.9c0.1-2.9-0.1-5.9-1.2-8.7
			c-0.1-0.2-0.3-0.4-0.5-0.8c-1.4,0.2-2.9,0.2-4.4,0.5c-3,0.6-6.2,1-9,2.2c-4.5,1.9-4,3.2-1.4,5.5c0.1,0.1,0.3,0.1,0.5,0.1
			c1.6-0.8,2.8-2.4,4.8-2.6C168.6,183.6,167.2,184.7,165.7,185.8z M170.4,176.5c-0.9-2.4-0.9-2.4-2.8-2.4c-0.9,0-1.7-0.2-2.6-0.4
			c-1.8-0.4-3.5-0.9-5.3-1.4c0.6,2.7,1.3,5.4,2,8.5C164.1,178,167.4,177.4,170.4,176.5z M177.5,170.9c-2.2,1.1-4.2,2.1-6.2,3.1
			c0.4,2.3,0.4,2.3,2.4,2.1c1.3-0.1,2.5-0.3,3.8-0.4c0.6-0.1,1.1-0.4,1.8-0.6C179,173.4,179,171.8,177.5,170.9z M62.7,167.6
			c0.2,1.7,0.3,3,0.5,4.3c0.3,1.9,1.2,2.4,3.7,2.2c-0.2-2.2-0.5-4.3-0.7-6.6C64.9,167.5,64,167.6,62.7,167.6z M144.9,173
			c0.3,0,0.6,0,0.8-0.1c-0.1-2.1-0.1-4.1-0.2-6.4c-0.6,0.3-1.1,0.4-1.1,0.6C144.1,169.1,144.2,171.1,144.9,173z M143.2,172.8
			c0.2,0,0.3,0,0.5-0.1c-0.2-1.9-0.4-3.8-0.6-5.6c-0.2,0-0.4,0-0.6,0.1C142.5,169.1,142.9,170.9,143.2,172.8z"/>
		<path d="M127.1,74c1.8-1.3,3.5-2.7,5.3-4c0.4-0.3,0.9-0.6,1.4-0.9c0-0.4-0.1-0.7-0.1-1c0.4-1.1-1.5-1.1-1-2.3
			c0.3-0.8,0-1.9-0.1-2.8c-0.2-2-0.4-4.1-0.7-6.3c-2.5,0.8-4.5,0-6.3-1.4c-0.9-0.7-1.8-1.4-2.5-2.3c-3.4-3.9-6.5-8-8.7-12.9
			c-1.4-3.3-3.2-6.5-4.7-9.7c-0.3-0.6-0.6-1.2-0.7-1.8c0-0.4,0.4-0.9,0.7-1.5c3.2,2.9,3.6,7.2,6.2,10.3c1.6-1.1,3.1-2.2,4.7-3.3
			l0.2,0.2c-0.3,0.3-0.7,0.6-1,1c-0.3,0.3-0.7,0.6-1.1,1c-0.7,0.6-1.3,1.1-2,1.7c-0.8,0.7-0.3,1.2,0.2,2c1.7-1.3,3.2-2.5,4.8-3.7
			l0.2,0.3c-1.5,1.4-3.1,2.9-4.7,4.4c0.6,0.8,1,1.4,1.4,2.1c1.5-0.9,2.9-1.7,4.3-2.4l0.2,0.3c-1.3,1-2.6,2-4,3.1
			c0.3,0.6,0.4,1,0.6,1.3c2.1,2.6,4.2,5.2,6.3,7.8c0.4,0.5,1,0.8,1.5,1.1c1.8,1,3.4,0.9,5-0.6c3.1-2.8,5.6-5.9,6.7-10
			c0.4-1.4,0.9-2.7,1.2-4.1c0.3-1.3,0.5-2.7,0.7-4c0.2-1.1-0.3-2.5,1.4-2.9c0.2,0,0.4-0.6,0.4-1c0-0.8-0.1-1.6-0.1-2.4
			c0-0.4-0.3-0.9-0.2-1.2c1.4-2.9-0.1-5.4-1-7.9c-0.9-2.4-2.9-4-5.5-4.5c-2.5-0.5-5-0.6-7.6-0.9c-1.2-0.1-2.4,0.1-3.2-1.1
			c-0.6-0.8-1.5-0.5-2.2-0.4c-2.3,0.4-4.7,0.9-7.1,1.2c0.4-0.2,0.8-0.5,1.3-0.6c2-0.6,4-1.2,6-1.7c1.7-0.4,3.4-0.8,4.8,1
			c0.4,0.5,1.6,0.5,2.4,0.6c2,0.3,4,0.4,5.9,0.8c3.8,0.8,6.1,3.2,7.2,6.9c1,3.5,1.6,9.8,1.2,13.9c-1.4,0-1.6,1-1.9,2.3
			c-1.1,4.3-1.8,8.8-4.6,12.4c-1.3,1.7-2.7,3.3-4.3,4.8c-0.8,0.8-0.9,1.4-0.6,2.3c0.3,1.3,0.6,2.6,0.8,4c0.5,3.7,1.1,7.4,2.6,10.9
			c0.4,0.9,0.7,1.9,1.1,3.1c1.7,0.1,2.5,1.5,3.2,3c2.3,4.8,4.6,9.5,6.8,14.3c0.3,0.6,0.5,1.5,0.3,2c-0.7,1.1-0.2,2,0.2,2.9
			s0.9,1.9,1.3,2.8c0.1,0.3,0,0.7-0.2,1.1c-2.5-2.9-3.7-6.4-5.3-9.7c-1.6-3.4-3.5-6.6-5.2-10c-0.4,0.1-0.8,0.3-1.3,0.5
			c-0.7-1.3-1.2-2.5-1.5-3.9c-0.5-2.8-1.5-5.5-2.4-8.6c-1.4,0.9-2.4,1.6-3.5,2.3C129.5,72.5,128.2,73.2,127.1,74L127.1,74z"/>
		<path d="M83.4,14.1c0.4,0.9,0.6,1.4,0.9,2.1c1-0.1,2-0.2,3-0.3c4.9-0.5,9.9-1,14.8-0.3c1.6,0.2,3.1,0.7,4.6,1.3
			c1.4,0.6,2.6,0.7,3.8-0.2c0.4-0.3,1-0.4,1.7-0.1c-0.7,0.4-1.5,0.8-2.3,1.3c0.2,0.5,0.3,1,0.6,1.7c-1-0.3-1.9-0.4-2.7-0.7
			c-4.9-2.1-10.1-2.3-15.3-2c-2.5,0.2-4.9,0.5-7.4,0.8c-1.2,0.1-2.4,0.3-3.3-0.8c-4,3.1-7.9,6.1-11.8,9.1c-0.7-0.5-0.4-1.1-0.2-1.7
			c0.3-1.1,0.7-2.3,0.8-3.5c0.1-1-0.4-1.7-1.5-1.8c-4.3-0.1-8.7-0.5-12.7,1.5c-0.7,0.3-1.4,0.7-2.3,1.2c0.3,0.4,0.6,0.8,1,1.3
			c-0.4,0.4-0.7,0.8-1.2,1.1c-3.3,1.9-4.6,5.2-5.9,8.5c-0.2,0.4-0.2,1-0.1,1.4c0.5,2.6,0.5,5.2-0.1,7.8c-0.1,0.4,0,0.8,0,1.3
			c1.9-0.3,3.1-2,5-2.1c-1.4,1-2.8,1.9-4.2,2.9s-1.4,1.3-0.6,3.3c1.2-0.8,2.4-1.5,3.6-2.3c-0.5,1.3-1.7,2-2.7,2.8
			c-1.1,0.8-1.4,1.7-1.1,3.1c0.8,5,4,7.6,8.5,9c2.2,0.7,3.9,0.1,4.8-1.9c1.5-3.4,2.8-6.8,3.8-10.3c1-3.3,1.6-6.7,2.3-10
			c0.6-2.5,1.1-5,1.6-7.5c0.1-0.4,0.2-0.8,0.4-1.1c0.3-0.3,0.8-0.5,1.2-0.5c0.3,0,0.7,0.5,0.7,0.8c0,0.8,0,1.6-0.2,2.4
			c-1.7,7.2-3.3,14.5-5.1,21.7c-0.3,1.4-1.2,2.6-1.9,3.9c-0.6,1.1-0.8,2-0.5,3.4c0.6,2.7,0.8,5.5,1.2,8.3c0.2,1.2,0.4,2.3,0.7,3.9
			c-1.2-0.8-1.4-1.8-1.6-2.7c-0.4-2.3-0.7-4.7-1-7.1c-0.1-0.8-0.3-1.5-0.5-2.3c-1.2,0.5-2.2,1-3.3,1.2c-2.2,0.5-4.3-0.3-6.2-1.3
			c-5.1-2.5-7.6-6.8-7.8-12.3c-0.2-5,0.2-9.9,1.4-14.7c1-4,2.7-7.7,6.4-10.3c-0.8-0.5-1.5-0.8-2.4-1.4c0.8-0.4,1.3-0.7,1.8-1
			c3.2-1.6,6.5-2.6,10-3.4c1.2-0.3,2.3-0.5,3.5,0.2c0.6,0.4,1.6,0.1,2.4,0.2c0.6,0,1.3,0,1.9,0c1.4,0.2,1.8,0.7,1.7,2.1
			c0,1-0.2,2-0.3,3.3c2.2-1.6,4.1-3,6-4.4C79.5,17.3,81.3,15.8,83.4,14.1z"/>
		<path d="M83.1,70.1c1.3,0.5,2.9,0,4.1,1.7c0.9,1.3,1.1,2.4,0.7,3.8c-0.5,2-1.9,3.4-3.1,5c-0.3,0.4-0.6,0.7-0.9,1.1
			c-1.7,2.2-3.8,2.2-5.4-0.1c-0.6-0.8-1.1-1.8-1.6-2.7c-0.7-1.4-1.2-2.8-1.8-4.2c-0.8-1.9-0.6-2.4,1.2-3.6c1.5-1,3.1-1.5,4.9-1.2
			C81.8,70,82.4,70,83.1,70.1z M77,74.3c0.1,0,0.2,0,0.3,0.1c0.1-0.4,0.2-0.9,0.3-1.4c-0.1,0-0.3-0.1-0.4-0.1
			C77.1,73.4,77,73.9,77,74.3z"/>
		<path d="M175.8,153.5c-1.2-0.9-1.1-2.2-1.2-3.5c-0.2-3.7-0.6-7.3-1.4-10.9c-0.5-2-1.3-3.7-2.8-5.2c-0.5-0.5-0.8-1.1-1.3-1.7
			c0.8-0.6,1.4-0.9,2.2-1.6c-2.6-0.7-5.1-1.1-7.3-2.1c-2.1-1-4.5-1.3-6.5-2.8c1.7-2,1.8-2.1,3.7-1.4c3.1,1.1,6.1,2.4,9.1,3.6
			c1.8,0.7,3.7,1.4,5.6,2.1c0,2-2.1,2-2.9,3.1C175.9,139.8,177.4,146.4,175.8,153.5z"/>
		<path d="M106.2,49.6c-0.6,1.3-1.1,2.6-1.9,3.8c-1.2,1.6-3.4,1.3-4.3-0.5c-1.3-2.6,0.3-5.9,3-6.3C105.3,46.1,106.3,47.2,106.2,49.6
			z"/>
		<path d="M84.1,45.2c-0.9-3.1-0.3-6.1-0.8-9.1c-0.5-2.9-0.9-5.8-1.4-8.8c0.4-0.2,0.9-0.4,1.5-0.6c-0.6-2.8-1.1-5.6-1.8-9
			c0.7,0.6,1.2,0.9,1.2,1.2c0.7,3,1.3,6.1,1.8,9.1c0.1,0.4,0.1,0.9-0.1,1.2c-1,1.3-0.4,2.7-0.3,4.1c0.2,3.7,0.3,7.5,0.4,11.2
			C84.6,44.7,84.4,44.8,84.1,45.2z"/>
		<path d="M75.9,50c-0.5,1.2-0.8,2.2-1.2,3.2c-0.4,0.9-1.2,1.3-2.1,1.2c-0.9-0.1-1.6-0.6-2-1.4c-0.9-1.8,0.2-5.5,2-6.6
			c0.9-0.5,1.8-0.4,2.2,0.5C75.3,47.9,75.6,49,75.9,50z"/>
		<path d="M100.6,26.2c0,0.4,0,0.9-0.1,1.3c-0.2,0.5-0.5,1-0.8,1.5c-2.8,5.6-4.4,11.6-6.1,17.6c-0.6,2.2-0.7,4.2,0.3,6.3
			c0.2,0.3,0.2,0.7,0.3,1.5c-1.2-0.8-1.9-1.5-1.9-2.5c-0.1-1.4-0.3-2.9,0-4.3c1.4-6.1,3.1-12.2,6-17.8c0.6-1.2,1.1-2.4,1.6-3.6
			C100.1,26,100.3,26.1,100.6,26.2z"/>
		<path d="M118,81.8c-1.7,3-7.3,6-11.4,6.1c-0.4,0.7-0.9,1.4-1.3,2.1c-0.4,0.7-0.6,1.7-1.8,1.9c0.1-0.6,0.1-1.1,0.3-1.5
			c0.5-1.1,1.2-2.1,1.7-3.2c0.5-0.9,1.1-1.3,2.1-0.9c0.9,0.4,1.7,0,2.5-0.4c2.2-1.2,4.4-2.5,6.7-3.7C117.2,82.2,117.5,82.1,118,81.8
			z"/>
		<path d="M70.9,41.4c1.9-1,3.5-2.1,5.9-1.2c-1.6,1.2-3.3,1.5-4.9,2C71.8,42.3,71.4,41.8,70.9,41.4z"/>
		<path d="M86,65.6c-0.2,0.3-0.2,0.6-0.3,0.6c-2.3,0.2-4.6,0.3-7,0.5C79.8,65.1,81.7,64.8,86,65.6z"/>
		<path d="M108.9,42.3c-1.7-0.9-3.8-0.3-5.4-1.8C105.5,39.2,107.9,40,108.9,42.3z"/>
		<path d="M124.5,94.1c0.7-1.2,1.8-1.3,3.2-1.2c0.3,0.9,0.6,1.7,1,2.7c-1.6,0.3-1.2-1.2-1.8-2C126.1,93.7,125.3,93.9,124.5,94.1
			L124.5,94.1z"/>
		<path d="M103.8,77.8c0.7-2,2.6-3,3.8-4.6C107.2,74.7,106.1,76,103.8,77.8z"/>
		<path d="M124.5,94c-0.7,0.5-1.5,1-2.5,1.7c0-1.7,1.1-2.3,1.6-3.3C123.6,93.2,123.4,94,124.5,94L124.5,94z"/>
		<path d="M123.3,90.5c0.8-0.6,1.5-1.2,2.4-1.9c0.3,1.6,0.3,1.6-0.6,1.7C124.4,90.3,123.8,90.4,123.3,90.5L123.3,90.5z"/>
		<path d="M123.3,90.5c-0.8,0.7-1.7,1.5-2.5,2.2C121.5,91.1,121.5,91.1,123.3,90.5L123.3,90.5z"/>
		<path d="M125,71.5c0.8-0.6,1.5-1.2,2.3-1.8c0.1,0.1,0.2,0.3,0.3,0.4c-0.7,0.6-1.5,1.3-2.2,1.9C125.2,71.9,125.1,71.7,125,71.5z"/>
		<path d="M131,67.7c-0.7,0.5-1.3,0.9-2,1.4c-0.1-0.1-0.2-0.2-0.2-0.3c0.7-0.5,1.3-1,2-1.5C130.9,67.4,130.9,67.6,131,67.7z"/>
		<path d="M90.3,80.6c-0.6,0.1-1,0.3-1.3,0.3c-0.2,0-0.3-0.4-0.5-0.7c0.3-0.1,0.6-0.4,0.9-0.4C89.7,79.8,89.9,80.2,90.3,80.6z"/>
		<path d="M71.4,82.1c0.5-0.2,1.1-0.4,2-0.7c-0.5,1.3-1.1,1.4-1.8,1.3C71.6,82.5,71.5,82.3,71.4,82.1z"/>
		<path d="M78.8,97.9c0.7-0.6,1.4-1.1,2.1-1.7c0.1,0.1,0.2,0.3,0.3,0.4C80.4,97.1,80,98,78.8,97.9L78.8,97.9z"/>
		<path d="M90.5,83.8c0.3-0.2,0.6-0.5,0.7-0.4c0.2,0.1,0.4,0.4,0.6,0.6c-0.2,0.1-0.4,0.4-0.5,0.4C91.1,84.3,90.9,84.1,90.5,83.8z"/>
		<path d="M127,73.9c-0.3,0.4-0.5,0.8-0.8,1.2C126,74.3,126.4,74,127,73.9L127,73.9z"/>
		<path d="M74.7,82.9c0.1,0.4,0.3,0.7,0.2,0.8c-0.1,0.2-0.3,0.4-0.5,0.4c-0.1,0-0.4-0.4-0.4-0.4C74.1,83.4,74.3,83.2,74.7,82.9z"/>
		<path d="M93.7,80.3c-0.2-0.3-0.4-0.5-0.5-0.8c0-0.1,0.3-0.3,0.4-0.5c0.2,0.2,0.4,0.4,0.6,0.6C94.2,79.7,93.9,79.9,93.7,80.3z"/>
		<path class="st2" d="M109.3,140.2c-0.5,1.9-0.8,3.8-1.4,5.6c-1.3,3.6-4.3,3.8-6.6,2.8c-2.8-1.2-5.7-2.2-8.5-3.2
			c-3.6-1.3-4.5-4.5-1.9-7.3c3.2-3.5,7.1-5.5,11.9-6.1c0.9-0.1,1.7-0.2,2.6-0.3c1.9-0.1,3.4,1,3.7,2.9
			C109.3,136.6,109.3,138.4,109.3,140.2z"/>
		<path class="st2" d="M103.1,122.1c-0.4,1.5-0.8,2.9-1.3,4.3c-0.4,1.1-1.4,1.5-2.3,1.2c-1-0.3-1.4-1-1.3-2.2
			c0.1-1.6,1.1-2.6,2.1-3.6C101,121.2,101.8,121.3,103.1,122.1z"/>
		<path class="st2" d="M115.4,124.6c1.1,0.1,1.6,0.8,1.4,1.9c-0.2,1.3-2.5,3.1-3.9,3c-1-0.1-1.7-1-1.5-2
			C111.8,126.1,113.9,124.5,115.4,124.6z"/>
		<path class="st2" d="M118.5,143.1c-1.6-0.1-2.1-1-1.4-2.4c0.6-1.2,1.7-1.9,2.9-2.2c1.5-0.4,2.4,0.7,2,2.2
			C121.6,142.1,120,143.1,118.5,143.1z"/>
		<path d="M66.4,155.9c1.4-0.9,2.7-1.9,4.1-2.8c0.1,0.1,0.2,0.3,0.3,0.4c-1.4,0.9-2.7,1.9-4.1,2.8C66.7,156.2,66.5,156.1,66.4,155.9
			z"/>
		<circle class="st0" cx="72.4" cy="49.2" r="0.9"/>
		<circle class="st0" cx="101.9" cy="49.2" r="0.9"/>
		<path class="st0" d="M78.5,73.2c0.7-0.2,1.6-0.3,2.4-0.3c1,0,2,0.1,2.8,0.3c0.3,0.1,0.5-0.1,0.6-0.4c0.1-0.3-0.1-0.5-0.4-0.6
			c-0.9-0.2-2-0.3-3-0.3c-0.9,0-1.9,0.1-2.7,0.3c-0.3,0.1-0.4,0.3-0.3,0.6C78,73.1,78.3,73.3,78.5,73.2L78.5,73.2z"/>
		<path d="M82.2,50c-1.5,2.7-2.9,5.3-4.6,7.9c-1.6,2.5-3.9,4.2-6.5,5.5c-1.1,0.6-2.4,0.7-3.7,0.2c-4.3-1.7-7.7-4.3-9.1-8.8
			c-0.5-1.7-1.2-3.3-1.5-5c-1-5,1.8-8.2,5.2-10.4c2.8-1.8,5.9-3,9.1-3.5c3.2-0.6,6.5-0.8,9.8-0.8c6.2,0,12.3-0.4,18.4-0.5
			c4.8-0.1,9.8,0.3,14.4,1.8c3.3,1.1,5.3,3.7,5.7,7.1c0.3,2.2,0.2,4.5-0.6,6.6c-1,2.8-2.3,5.4-4.3,7.6c-1.5,1.6-3.2,2.6-5.3,3.1
			c-1.6,0.4-3.3,0.6-4.9,0.9c-0.5,0.1-1.1,0.1-1.7-0.1c-3.2-0.9-5.9-2.5-7.5-5.5c-0.9-1.6-1.6-3.3-2.2-5c-0.3-0.8-0.7-1.3-1.7-1.4
			c-2.2-0.2-4.3-0.6-6.4,0.2C83.9,50,83,49.9,82.2,50z M61.1,55.8c1.5,2.7,3.5,4.6,6.2,5.6c1.2,0.4,2.3,0.4,3.4-0.4
			c2.4-1.6,4.7-3.3,5.8-6.2c0.3-0.7,0.8-1.2,1.1-1.8c1.7-2.5,3.8-4.8,4.1-8c0.1-1.2,0.2-2.4,0.3-3.6c0.1-0.4,0.2-0.8,0.3-1.2
			c0.7,0.4,1,0.8,1,1.2c0,1.1-0.1,2.2-0.2,3.3c-0.1,1.1-0.3,2.1-0.5,3.3c3.2-0.2,6-0.3,9-0.5c-0.7-4,0.7-7.2,3.5-9.8
			c0.4-0.4,0.7-0.9,1.1-1.4c-0.4-0.2-0.5-0.3-0.7-0.3c-8.2,0.2-16.4,0.7-24.6,1.8c-4.6,0.6-8.3,2.9-10.9,6.7c-1.7,2.3-1.6,5.9,0.1,8
			c1-0.7,2-1.4,3-2.1c-0.6,1.6-2.6,2-3,4.3c1.6-1,2.7-1.7,3.9-2.3c0.1,0.1,0.1,0.2,0.2,0.3C63.3,53.7,62.3,54.7,61.1,55.8z
			 M96.3,53.7c2.3,5,6,6.9,10.9,6.1c0.4-0.1,0.8-0.2,1.2-0.2c2.2-0.4,4.1-1.5,5.3-3.3c1.2-1.7,2.2-3.5,3.1-5.4
			c0.9-2,1.3-4.3,1.1-6.6c-0.3-3.6-2.8-6.4-6.8-7.1c-3.4-0.6-6.9-0.9-10.4-1.3c-1-0.1-1.8,0.1-2.3,1.2c-0.3,0.6-0.9,1.1-1.4,1.6
			c-2.8,2.5-3.6,5.6-3,9.1c0.2,0.9,0,2.1,1,2.7c1.7-0.6,2.8-2.3,5-2.5c-1.7,1.7-4,2.2-4.7,4.6c1.4-0.3,2.1-1.8,3.6-1.6
			C98.1,52,97.2,52.9,96.3,53.7z"/>
		<path class="st3" d="M171.6,193c-5.6,2-11.6,3.1-17.6,3.1c-1.4,0-2.8-0.1-4.2-0.2c-2-0.2-4.1-0.6-5.9-1.4c-1.7-0.9-3-2.1-3.6-4.1
			c-0.1-0.4-0.2-0.8-0.2-1.2c0-0.9,0.3-1.8,0.9-2.4c0.6-0.6,1.3-1,2.4-1h0c0.6,0,1,0.1,1.4,0.4c0.6,0.4,1.1,1,1.5,1.8
			c0.4,0.8,0.5,1.7,0.5,2.5v0c0,2.8-1.4,5.4-3.5,7.4c-2.1,2-5,3.4-7.9,3.9c-1.1,0.2-2.3,0.3-3.4,0.3c-4.8,0-9.6-1.4-14.3-2.9
			c-16.7-5.1-33.9-9.7-51.5-9.8c-0.1,0-0.2,0-0.3,0c-2.3,0-4.8,0.1-7,1.3c-1.6,0.9-2.9,2.3-3.4,4.1c-0.1,0.4-0.2,0.7-0.2,1
			c0,1.1,0.5,2,1.2,2.6c0.7,0.6,1.7,1,2.6,1c0.6,0,1.3-0.1,1.8-0.5c0.6-0.3,1.1-0.9,1.4-1.6c0.8-1.6,1.2-3.5,1.2-5.3
			c0-3.9-1.7-7.9-5-10.1c-1.2-0.8-2.4-1.4-3.3-2.1c-0.5-0.4-0.8-0.8-1.1-1.3s-0.5-1-0.5-1.8c0-0.1,0-0.2,0-0.4
			c0-0.9,0.3-1.8,0.7-2.6c1.2-2.2,3.3-3.6,5.6-5c0.3-0.2,0.5-0.7,0.2-1c-0.2-0.4-0.7-0.5-1-0.2c-2.3,1.4-4.7,3-6.1,5.6
			c-0.5,1-0.9,2.2-0.9,3.4c0,0.1,0,0.3,0,0.5c0.1,0.9,0.3,1.7,0.7,2.4c0.6,1,1.4,1.7,2.3,2.3c0.9,0.6,1.8,1,2.5,1.6
			c2.8,1.9,4.4,5.4,4.4,8.9c0,1.6-0.3,3.2-1,4.6c-0.2,0.4-0.5,0.7-0.8,0.9s-0.7,0.3-1.1,0.3c-0.6,0-1.2-0.2-1.7-0.6
			c-0.4-0.4-0.7-0.9-0.7-1.5c0-0.2,0-0.4,0.1-0.6c0.4-1.3,1.4-2.5,2.7-3.2c1.8-1,4-1.1,6.2-1.1c0.1,0,0.2,0,0.3,0
			c17.3,0.1,34.3,4.7,51,9.7c4.8,1.4,9.7,2.9,14.8,2.9c1.2,0,2.4-0.1,3.7-0.3c3.2-0.5,6.3-2,8.7-4.3c2.4-2.2,4-5.1,4-8.5v0
			c0-1.4-0.4-2.9-1.2-4.1c-0.4-0.6-0.9-1.1-1.6-1.5c-0.6-0.4-1.4-0.6-2.2-0.6h0c-1.4,0-2.6,0.6-3.4,1.4s-1.3,2.1-1.3,3.4
			c0,0.5,0.1,1.1,0.2,1.6c0.7,2.5,2.4,4.1,4.4,5.1c2,1,4.3,1.4,6.4,1.5c1.4,0.1,2.9,0.2,4.3,0.2c6.1,0,12.3-1.1,18.1-3.2
			c0.4-0.1,0.6-0.6,0.4-1C172.4,193.1,172,192.9,171.6,193L171.6,193z"/>
		<path d="M81.7,86.3c-0.7-0.4-1.4-1.1-2.2-1.3c-3-1-6-2-9.3-0.6c-2.8-2.2-4.5-5.3-5.8-8.4c-1.8-4.4-7.3-20-8.8-24.5
			c-0.8-0.3-1.6-0.6-2.4-1c0,0.2,4.1,11.3,4.2,11.5c1.1,3,2.1,6,3.3,9c2.1,5.3,3.9,10.7,8.3,14.8c1.4,1.3,2.9,3,2.4,5.5
			c-0.2,0.8,0.8,1.9,1.5,2.6c2,1.8,4.6,2.5,7.2,2.9c2.1,0.3,3.7-0.6,4.2-2.3C85.1,90.7,85.3,88.4,81.7,86.3z"/>
		<path d="M141.1,40.3c-2.1-2.1-4.7-2.5-8-1.1c-0.8,0.3-1.6,0.7-2.8,1.2c0.1-0.6,0.1-0.9,0.2-1.1c1.6-5.1,0.9-10.3,0.9-15.4
			c0-2.2-1.2-4.4-1.8-6.7c-0.4-1.6-1.7-3-3-4.4c-2.6-2.7-6.4-4.3-10.7-5.4c-2.6-0.7-5.3-1.2-8-1.8c-6.4-1.3-13-2.1-19.6-1.1
			C82.1,5.5,76.1,6.8,71,9.3c-1.2,0.6-2.3,1.2-3.6,1.6c-2.7,1-4.9,2.3-6.8,3.7l-0.1,0.1l-0.4,0.6c-0.3,0.5-0.6,0.9-0.8,1.4
			c-0.5,1-1,2-1.5,3c-0.6,1.2-1.3,2.4-2,3.5c-0.3,2.3-0.3,4.6-0.1,6.9c0.1,1.2,0.4,2.5,0.5,3.7c0.2,2.5,1.3,5,0.5,7.5
			c-1-0.2-2-0.4-3-0.6l-0.3,0.1c-1.1,0.2-2.2,0.3-3.3,0.5c-0.2,0-0.4,0.1-0.6,0.1l-0.1,0l-0.2,0.1c-0.5,0.2-0.6,0.3-1,0.5
			c-1.8,1.1-3.2,2.1-4.1,3.6c-0.1,0.1-0.1,0.2-0.2,0.3c-0.3,0.8-0.7,1.7-1,2.6c0,0.2,0,0.4,0.1,0.6c0.3,1.1,1.1,2.2,1.7,3.3
			c1,1.9,2.2,3.5,5.5,4c0.5-0.2,1-0.3,1.5-0.3c0.6,0,1.2,0,1.7,0l0-0.1c0.5-0.3,1.2-0.5,1.7-0.9c1.2-0.8,2.7-1.6,3.4-2.6
			c0.8-1.2,0.9-2.6,1.3-3.9c0.4-1.4,0.1-2.7-0.2-4.1c-0.4-2.2-0.5-4.3-0.7-6.5c-0.1-1.2-0.1-2.3-0.4-3.5c-0.9-3.5-1.4-7-0.9-10.5
			c0.6-4.1,3-7.8,7.8-10.6C73,9.1,81.9,6.2,92.2,5.3c3.1-0.3,6.2,0,9,0.8c1.4,0.4,2.7,0.7,4.1,0.8c8.1,0.8,14.5,3.2,19.1,7.7
			c3.1,3,4,6.3,4.6,9.7c0.2,1.4,0.1,2.9-0.2,4.3c-0.4,2.1-1.2,4.3-1.7,6.4c-0.3,1.5-0.8,3.2-0.2,4.5c1.2,2.6,0.6,5.2,0.7,7.8
			c0.1,2.1,1.2,4,2.4,5.8c0.7,1.1,2.2,1.5,3.9,1.4c2.1-0.2,4.3-0.5,5.8-1.6C144.1,49.8,144.8,43.9,141.1,40.3z"/>
		<path class="st0" d="M46.4,46.8c0.5,2.5,2.3,4.7,4.6,5.7c0.3,0.1,0.5,0,0.7-0.3s0-0.5-0.3-0.7c-2-0.9-3.6-2.8-4-5
			c0-0.3-0.3-0.5-0.6-0.4C46.5,46.3,46.3,46.6,46.4,46.8L46.4,46.8z"/>
		<path class="st0" d="M138.5,42.3c0.7,1.2,1,2.6,1,4c0,0.8-0.1,1.7-0.4,2.5c-0.1,0.3,0.1,0.5,0.3,0.6c0.3,0.1,0.5-0.1,0.6-0.3
			c0.3-0.9,0.4-1.8,0.4-2.8c0-1.6-0.4-3.1-1.2-4.5c-0.1-0.2-0.4-0.3-0.7-0.2C138.4,41.7,138.3,42,138.5,42.3L138.5,42.3z"/>
		<path class="st0" d="M77.4,86.8c2.1,0.4,4.1,1.9,5.1,3.8c0.1,0.2,0.4,0.3,0.7,0.2c0.2-0.1,0.3-0.4,0.2-0.7
			c-1.2-2.2-3.3-3.8-5.8-4.3c-0.3-0.1-0.5,0.1-0.6,0.4C77,86.4,77.2,86.7,77.4,86.8L77.4,86.8z"/>
	</g>
</g>
<g id="Layer_4">
</g>
<g id="Layer_5">
</g>
<g id="Layer_6">
</g>
<g id="Layer_7">
</g>
<g id="Layer_8">
</g>
<g id="Layer_9">
</g>
<g id="Layer_10">
</g>
<g id="Layer_11">
</g>
<g id="Layer_12">
</g>
<g id="Layer_13">
</g>
<g id="Layer_14">
</g>
</svg>
