<?xml version="1.0" encoding="utf-8"?>
<!-- Generator: Adobe Illustrator 23.1.0, SVG Export Plug-In . SVG Version: 6.00 Build 0)  -->
<svg version="1.1" id="Layer_1" xmlns="http://www.w3.org/2000/svg" xmlns:xlink="http://www.w3.org/1999/xlink" x="0px" y="0px"
	 viewBox="0 0 148.5 280.7" style="enable-background:new 0 0 148.5 280.7;" xml:space="preserve">
<style type="text/css">
	.st0{fill:#FFFFFF;}
	.st1{fill:#BCBCBB;}
	.st2{fill:#EB584A;}
</style>
<g id="Layer_3">
</g>
<g id="Layer_4">
</g>
<g id="Layer_5">
</g>
<g id="Layer_6">
</g>
<g id="Layer_7">
</g>
<g id="Layer_8">
	<g>
		<path class="st0" d="M126.3,207.7c-1.2-1.6-3.2-2.5-4.7-3.9c-4-3.9-3.1-10.4-3.1-16c-0.1-14-8.2-26.4-13.7-39.5
			c-3.6,0.1-7.3-0.5-10.7-0.8c-14.7-1.1-29.9-2.9-42.5-10.4c-2.6,4.8-4.8,9.7-6.7,14.8c-4.1,11-6.5,22.5-7.2,34.2
			c-0.1,1.6-0.2,3.3-0.5,4.9c0.2,0.1,0.4,0.1,0.5,0.2c1.3,0.7,1.4,2.2,0.9,3.4c-0.6,1.3-1.3,2.6-2,3.8c1.7,0.3,2.5,2.9,1.2,4.3
			c-4.9,5.5-9.1,11.8-12,18.6c-1.3,3.1-2.3,6.4-2.9,9.8c0.3,4.5,1.1,9,2.4,13.4c0.5,0.8,1,1.6,1.5,2.4c1.9,3.1,3.9,6.3,5.3,9.7
			c1.3,3,2,6.4,3.4,9.2c0.3,0.6,0.7,1.3,1.1,1.9c0.2,0.3,0.4,0.6,0.6,0.9s0,0,0.3,0.4c0.8,0.9,1.8,1.9,2.5,2.4c1,0.7,2,1.2,3,1.7
			c11,0.3,22.4-2.8,33.5-4.2c11.5-1.5,23.4-1.2,34.5,2c3.9,1.1,8.9,2.2,11.3-1.1c0.7-1,1-2.1,1.3-3.3c4.3-17.3,5.7-35.3,4.2-53
			C127.7,211.5,127.4,209.3,126.3,207.7z"/>
		<path class="st0" d="M145.5,71.2c-0.5-0.5-1.2-0.6-1.9-0.6c-9.5-0.6-18.6,7.4-27.8,4.9c-6.4-1.7-10.4-8-16-11.5
			c-5.4-3.4-12.3-4.4-16.6-9c-3.5-3.8-4.4-9.3-6.9-13.8c-0.8-1.5-2-3.1-3.7-3.4c-2.6-0.4-4.5,2.1-5.8,4.4
			c-6.8,12.6-11,26.5-12.2,40.8c-0.4,5.2-0.5,10.5-1.7,15.6c-1.7,6.9-5.4,14.6-1.4,20.4c1.7,2.5,4.5,4,6.8,6
			c4.3,3.8,3.3,6.7,1.3,10.3c1.7,1,3.5,2,5.4,2.8c7.4,3.4,15.7,4.9,23.8,5.9c4.2,0.5,8.4,0.8,12.5,1.1c0.8,0.1,1.6,0.1,2.4,0.2
			c-0.3-0.9-0.1-2,0.5-2.7c-0.4-0.9-0.7-1.7-0.9-2.6c-0.1-0.7-0.1-1.3,0.3-1.9c0.3-0.6,0.9-0.9,1.5-1.1c0.5-0.2,1.1-0.4,1.6-0.5
			c0.2-1.8,0.9-3.5,1.8-5c3.9-7,11.3-11.5,15.5-18.3c3.3-5.4,4.5-11.8,7.3-17.5c3.6-7.4,9.6-13.4,13.9-20.5
			C145.9,73.8,146.5,72.1,145.5,71.2z"/>
		<path class="st1" d="M31.8,218.9c-0.9,1.1-1.3,2.4-1.5,3.8c-0.5,2.8-0.4,5.7-0.3,8.5c0.2,7.3,0.3,14.5,0.5,21.8
			c0.6,1.2,1.2,2.3,1.8,3.5c1.3,3,2,6.4,3.4,9.2c0.3,0.6,0.7,1.3,1.1,1.9c0.2,0.3,0.4,0.6,0.6,0.9s0,0,0.3,0.4c0.6,0.7,1.3,1.4,2,2
			l3-0.1c0.9,0,1.9-0.1,2.5-0.8c0.5-0.5,0.6-1.3,0.7-2c0.2-2,0.4-4,0.4-6.1c0-0.9,0-1.7-0.3-2.5c-0.3-0.8-0.9-1.4-1.4-2
			c-4.4-5.7-4.3-16.6-4.1-23.4C40.4,230.4,37.7,212.1,31.8,218.9z"/>
		<path class="st1" d="M103.5,223.1c0.4,7.9,0.9,15.8,1.3,23.7c0.2,3.9,0.4,7.9-0.3,11.8c-0.7,3.9-2.4,7.7-5.4,10.3
			c-1.3,1.1-2.9,2-4.6,2c-1.7,0.1-3.5-0.8-4.2-2.3c-0.4-0.9-0.4-1.8-0.4-2.8c0.2-2.3,0.9-4.4,1.8-6.5c3.9-9.8,9.9-18.7,12.4-29"/>
		<path class="st1" d="M109.6,161.9c-0.4,0.8-1.3,1.1-2.2,1.3c-2.2,0.4-4.4,0-6.6-0.4c-7.7-1.4-15.5-2.8-23.2-4.3
			c-2.7-0.5-5.4-1-7.8-2.3s-4.5-3.5-5-6.2c-0.1-0.4-0.1-0.8,0.2-1c0.2-0.2,0.5-0.2,0.8-0.2c9.4,0,18.4-0.6,27.7-1.5
			c3.3-0.3,7,0.3,9.8,2.2C105.8,151.4,111.1,158.5,109.6,161.9z"/>
		<path class="st2" d="M102.5,138.7c-0.1,0.1-0.1,0.2-0.2,0.3c-0.8,1.5-2.4,2.1-4,2c-1.4-0.1-2.5-0.2-3.9,0.2
			c-1.3,0.4-2.7,1.2-4.3,0.6c-1.4-0.6-1.8-1.9-2.6-3.1l-0.1-0.1c-0.4,0.1-0.8,0.1-1.1,0.2c-0.9,0.2-1.9,0.4-2.8,0.5
			c-1.9,0.3-3.7,0.4-5.6,0.2c-1.9-0.2-3.9-0.8-5.8-1.5c-2-0.4-4-1.1-5.7-2.3c-1.3-0.9-2.5-1.9-3.2-3.3c-1.3-0.8-2.5-1.7-3.8-2.4
			c-0.7-0.4-1.3-0.7-2-1c-0.3-0.1-0.6-0.2-0.9-0.3c-0.1,0-0.2-0.1-0.3-0.1c-0.1,0.3-0.3,0.6-0.5,0.9c-0.3,0.6-0.5,1.1-0.8,1.7
			c-0.3,0.6-0.9,1-1.6,1.1l-3.5,9.5l27.8,8.4h19.4l8-4.3L102.5,138.7z"/>
		<path d="M47.1,247.6c-0.5,1-1.2,2-1.6,3.1c-0.4,1-1.1,1-2,0.6c-1.2-5.3-2.4-10.6-3.7-16.1c-2.4,0.9-3.4,3.2-5.3,4.5
			c1.1-2.4,2.9-4.1,4.9-5.7c-0.2-1-0.4-2-0.6-3.3c-1.9,1.6-3.5,3-5.3,4.5c0.4-1.3,0.4-1.3,2.2-2.9c1-0.8,1.9-1.7,2.9-2.7
			c-0.8-0.9-1.6-1.7-2.7-2.8c0-12.8,0-26.1,0-39.6c-0.8,0.3-1.6,0.6-2.5,1c-0.6-1.8-0.5-3.3,0.3-4.9c2.7-5.4,5.1-11,7.6-16.5
			c0.5-1.1,0.9-2.3,1.4-3.8c-2.3,0.9-3.4,3-5.9,3.5c0.2-1,0.2-1.7,0.5-2.3c2.8-4.8,5.7-9.4,8.3-14.3c1.5-2.6,2.7-5.4,4.1-8.4
			c-1.2-1.6-0.6-3.5,0.3-5.2c0.9-1.7,2-3.2,3.2-4.8c0.6-0.9,1.4-1.7,2.1-2.6c1.5,1,1.5,1.3,0.6,2.8c-1.3,1.9-2.5,3.9-3.7,5.9
			c-0.3,0.5-0.5,1-0.8,1.9c0.4,0.4,0.8,0.8,1.2,1.2c1-0.7,1.8-1.3,2.5-1.8c-0.3,0.8-0.7,1.5-1.2,2.5c0.8,0.3,1.6,0.6,2.4,0.9
			c0.5-1.8,1-3.3,0.9-5.1c-0.9,0.8-1.6,1.3-2.2,1.8c1-1.7,1.8-3.6,2.7-5.4c0.3,0.1,0.5,0.2,0.8,0.3c-0.4,2.9-0.7,5.7-1.1,8.8
			c0,0,0.2,0.4,0.5,0.4c3.6,1,7.2,2.1,10.8,3c2.7,0.7,5.5,1.1,8.2,1.5c2.8,0.4,5.6,0.6,8.3,0.8c1.5,0.1,3-0.2,4.5-0.3
			c2.4-0.2,4.8-0.5,7.1-0.5c1.8,0,3.4-0.2,5-1.1c1.3-0.7,1.4-1.5,1.3-2.7c-0.2-2.4-1-4.5-2.5-6.4c1.3-0.7,1.8,0,2.3,0.7
			c1.7,2.3,2.2,5,1.7,7.8c-0.2,1.4-0.1,2.3,0.9,3.4c1.3,1.4,2.2,3.1,3.3,4.7c1.8,2.8,3.8,5.6,5.3,8.6c1.4,2.6,2.4,5.4,3.4,8.2
			c1.5,4.3,2.9,8.6,4.3,13c0.6,1.7,1,3.5,1.4,5.3c0.1,0.5-0.1,1.1-0.2,1.9c-1.4-0.4-2.5-0.7-4-1.1c0.5,3.7,2,6.7,2.9,9.8
			c3.5,0.4,6.5,3.2,7.4,6.8c1.4,5.3,1.8,10.7,1,16.2c-0.3,1.9-0.3,3.8-0.5,5.9c1.7,0.4,1.8,1.6,1.5,3.1c-1.2,5.7-2.5,11.4-3.6,17.1
			c-0.8,4-1.8,7.9-3.9,11.5c-0.4,0.7-0.2,1.3,0.2,2c0.9,1.6,1.8,3.2,2.6,4.8c0.6,1.2,0.4,2.2-0.4,3.4c-1.2,1.8-2.1,3.8-4.4,4.5
			c-3.4,1.1-6.8,2.4-10.5,1.5c-2.1-0.5-4.2-0.9-6.3-1.3c-2.8-0.6-4.2-2.8-5.3-5.1c-0.3-0.6-0.1-1.8,0.2-2.5c0.6-1.4,1.2-2.8,2.2-4
			c1.5-1.9,2.3-4,2.5-6.4c0.2-2.6,0.6-5.2,0.9-8c-0.9-0.4-1.9-0.7-1.6-2.1c1-5.4,0-10.8-0.6-16.2c-0.2-1.8-0.3-3.7-0.4-5.5
			c-0.1-4.2-1.1-8.2-2.1-12.3c-0.2-1-0.4-2-0.6-3.3c0.8,0.3,1.4,0.3,1.5,0.5c0.4,0.7,0.7,1.4,0.8,2.2c1.4,7.2,1.6,14.6,2.4,21.9
			c0,0.1,0.1,0.3,0.3,0.8c1.6-1.5,3-3,4.5-4.4c0.1,0.1,0.3,0.3,0.4,0.4c-0.4,0.4-0.7,0.8-1.1,1.2c-1,1.1-2.1,2.2-3.1,3.4
			c-0.4,0.5-0.5,1.3-0.8,2c0.1,0.1,0.3,0.2,0.4,0.3c1.3-1.2,2.6-2.4,3.9-3.6c0.1,0.1,0.3,0.3,0.4,0.4c-0.7,0.7-1.4,1.4-2.1,2.1
			c-1.7,1.8-3.3,3.6-2.3,6.2c0.4,0.7,1.1,1.4,1.2,2.1c0.2,1.2,0.2,2.4,0.1,3.6c-0.4,3.9-0.9,7.8-1.3,11.7c0.7,0.3,1.3,0.6,1.9,0.9
			c-0.1,0.3-0.2,0.7-0.3,0.7c-1.8,0.5-3.3,1.2-3.5,3.4c0,0.2-0.3,0.3-0.5,0.5c-2.8,2.7-1.9,5.8,2,7.2c0.6-2.8,0.8-5.8,3.8-7.6
			c1.2,1.2,0.2,2-0.4,2.7c-1.6,2-1.8,2.8-1,5.4c3.9,0,7.8,2.3,11.8,0c-0.6-3-2.3-5.4-4.1-7.6c0.8-0.8,1.4-0.6,1.9-0.1
			c0.7,0.9,1.3,1.8,1.9,2.8c0.8,1.4,1.5,2.9,2.3,4.4c3-0.7,4.7-4.1,3.4-6.6c-0.7-1.3-1.2-2.5-2.6-3.3c-0.8-0.5-1.1-1.7-1.7-2.7
			c1.9-0.5,1.8-2.3,2.2-3.9c0.3-1.3,0.6-2.6,1-4c-0.4-0.1-0.8-0.2-1.3-0.3c1.4-5.7,1.6-11.5,2.1-17.2c0.2-2.4,0-4.8-0.1-7.2
			c0-0.4-0.2-0.8-0.1-1.2c1.1-4.4,0.1-8.8-0.4-13.1c-0.9-7.8-3.5-15.1-6.3-22.3c-0.3-0.9-0.7-1.8-1-2.7c1.8-1.4,3.3,0.4,5.1,0.2
			c-0.1-0.6-0.1-1.2-0.3-1.8c-2.4-7.2-4.9-14.4-7.4-21.5c-0.1-0.3-0.3-0.6-0.4-0.9c-2.6-4.2-5.2-8.4-7.9-12.6
			c-0.8-1.2-1.9-2.1-2.8-3.2c-4.3,1.1-8.5,1.4-12.7,1.9c-5.8,0.8-11.3-0.3-16.9-1c-3.1-0.4-6.1-1.2-9.2-1.8c-3.6-0.7-7-2.2-10.3-3.8
			c-0.7-0.3-1.4-0.7-2.4-1.1c-3,5.6-6,11.1-8.9,16.6c0.9,0.6,2,0.9,2.2,1.6c0.3,0.9,0,2.1-0.4,3c-2,4.8-4,9.6-6,14.3
			c-0.5,1.1-0.9,2.2-1.4,3.3c0.7,0.3,1.5,0.5,1.8,1c0.3,0.5,0.2,1.4,0.2,2c-0.3,9-0.8,18-1,27.1c-0.1,3.9,0.3,7.8,0.5,11.9
			c1.4,0.1,1.9,1.1,2.1,2.4c0.2,1.4,0.3,2.7,0.5,4c0.1,0.9,0.3,1.7,0.5,2.7c1.3-0.2,2.4-0.3,3.4-0.5l0.1,0.2
			c-0.9,0.4-1.9,0.8-3.1,1.3c1,4.8,1.9,9.6,2.9,14.5c0.8-0.4,1.4-0.7,1.9-1L47.1,247.6z M125.8,251.4c1.5-6.8,2.9-13.5,4.4-20.2
			c-0.8-0.3-1.3-0.6-1.6-0.7c0.2-1.8,0.4-3.4,0.6-5c0.1-1.3,0.2-2.6,0.3-3.8c0.3-4.9,0.1-9.7-1.1-14.5c-0.6-2.2-2-3.8-3.6-5.2
			c-0.2-0.2-0.7-0.2-1.4-0.3c0.2,1.2,0.3,2.2,0.5,3.2c2,7.6,2.7,15.4,2.5,23.3c-0.2,6.4-1,12.7-1.5,19.1
			C124.6,248.7,123.9,250.3,125.8,251.4z"/>
		<path d="M93.1,265.3c-0.8,0.7-1.3,1-1.7,1.5c-1,1.2-2.4,1.4-3.5,0.7c-2.1-1.5-4.2-1.5-6.5-0.8c-1.5,0.5-3.2,0.4-5.1,0.7
			c-0.1-0.1-0.4-0.6-0.8-1c-1.6-2.2-2.6-2.2-4.3-0.3c-0.6,0.7-1.2,1.4-2.3,0.7c-0.6-5.2-2.6-10.1-2.9-15.6c0.8,0.6,1.3,1.1,2.3,1.9
			c0-1.1,0.2-1.7,0-2.2c-0.6-3.1-1.3-6.3-2-9.4c-1.2-4.8-1.5-9.6-0.1-14.4c0.5-1.5,0.9-3.1,1.3-4.6c0.2-0.9,0.6-1.8-0.3-2.8
			c-0.8,0.4-1.6,0.8-2.8,1.4c0.5-2.1,0.8-3.8,1.2-5.5c0.7-2.9,1.1-5.8,3.1-8.2c0.7-0.9,1-2.5-0.2-3.7c-2.6,4-6.1,18-5,20.5
			c0.8-0.7,1.6-1.3,2.3-1.9c0.1,0.9-0.1,1.6-0.3,2.3c-0.6,1.7-1.6,3.4-1.7,5.2c-0.3,3.8-0.4,7.6,0.8,11.4c0.7,2,1.1,4.1,1.6,6.2
			c-2.1,0.3-2.3,0.3-2,2c0.4,3,0.9,6,1.5,9c0.6,3.2,1.1,6.5,1.7,9.7c0.3,1.5-0.4,2.5-1.7,3.1c-2.1,1-4.1,2.1-6.3,3
			c-1.3,0.6-2.8,0.7-4.4,0.1c0.2-2.2,0.4-4.4,0.6-6.5c-0.2,0-0.5-0.1-0.7-0.1c-1.8,1.9-1,4.5-1.5,6.8c-0.5,0-0.9,0-1.3-0.1
			c-4.3-0.9-5.1-2.9-2.6-6.7c0.2-0.3,0.5-0.6,0.7-1c0.2-0.4,0.4-0.8,0.6-1.3c-1.4-0.9-2,0.1-2.5,1c-0.7,1.3-1.3,2.7-2,4.2
			c-1-1.8-1-3.3-0.3-5c1-2.2,1.9-4.4,3.8-6c0.8-0.6,0.8-1.2,0.1-2c-0.5,0.3-0.9,0.5-1.3,0.7c-0.5,0.3-0.9,0.6-1.6,1.1
			c-1.8-3.1-3.5-6.1-5.3-9c-0.9,1.1-0.5,2.2,0.1,3.1c1.1,2,2.3,4,3.7,5.9c0.9,1.2,1,2.2,0.2,3.5c-1.2,1.7-2,3.5-2,5.4
			c0.1,0.3,0.1,0.7,0.1,1l0,0.2c0.3,1,0.7,1.9,0.9,2.9c0.8,0.9,1.6,1.8,2.5,2.1c2.5,0.8,5.1,1.4,7.7,1.8c1.5,0.2,3.1,0.1,4.5-0.5
			c2.7-1,5.2-2.5,7.7-3.8c1.3-0.6,2.1-1.6,2-3.3c1.5,0.6,2.1-0.3,2.7-1.1c1.3-1.6,1.8-1.5,2.9,0.3c0.5,0.8,1,1.5,1.7,2.3
			c1.5-1.4,2.9-1.9,4.6-1.6c0.5,0.1,1.2,0,1.6-0.2c1.4-0.6,2.5-0.4,3.8,0.4c2.4,1.5,5.1,0.7,6.7-1.6
			C93.5,266.8,93.2,266.1,93.1,265.3z"/>
		<path d="M41.2,255.1c-1.3,1.5-2.7,3-4.1,4.7C37.3,257.9,38.5,256.5,41.2,255.1z"/>
		<path d="M39.4,253.1c-1.5,1.2-2.9,2.4-4.4,3.7C35.8,254.4,37.5,253.1,39.4,253.1z"/>
		<path d="M47.3,271.3l0-0.1c-0.4,0-0.7,0.1-1.1,0.2c-0.5-1.3-0.9-2.5-1.4-3.7c-0.2-0.4-0.8-0.5-1.2-0.8c-0.1,0.5-0.4,1-0.3,1.4
			c0.2,0.8,0.5,1.6,0.8,2.5c-1.4,0.8-2.6,1-4.1,0.3c0.1-2.1,0.3-4.3,0.4-6.3c-1.2-0.5-1.8-0.2-1.9,0.8c-0.2,1.4-0.5,2.7-0.8,4.3
			c-1.6-1.7-1.6-3.3-0.4-4.8c0.6-0.7,1.1-1.5,1.9-2.6c-1.5-1.4-3.3-2.3-4.2-3.8c-2.7-4.4-6.7-8-7.3-13.5c-0.2-1.8-2-2.8-3.9-2.7
			c-0.9-2.9-0.7-7.5,0.4-11.1c0.6-1.8,1-3.7,1.4-5.4c-1.3-1.5-2.6-2.1-4.4-0.4c1.6-4.9,2.5-9.4,6-12.7c0.4-0.4,0.7-0.9,1.1-1.3
			c1.2-1.4,1.9-2.9,1.4-4.8c2-1.7,4.4-3.1,6.9-4.2c0.3-0.9,0.6-1.7,1-2.5c-1.3,0.5-2.5,1.2-3.7,2c-3.2,2.2-7,3.5-9.8,6.3
			c-0.8,0.8-1.6,1.4-1.8,2.5c1,1,2.2,0.6,3.7,0c-0.9,1.4-1.5,2.4-2.2,3.1c-1.6,1.7-2.4,3.7-3,5.9c-0.7,2.9-1.7,5.8-2.6,8.8
			c1.6,0.5,0.4,2.2,0.9,3.3c1.5,0.6,1.6-1,2.6-1.5c0,0.4,0.1,0.7,0,1c-0.1,0.6-0.2,1.1-0.2,1.6c-0.8,5.5-0.4,10.9,2.5,15.9
			c0.8-0.2,1.4-0.3,2.4-0.6c-0.1,2.8,1.7,4.7,3.3,6.7c0.2,0.2,0.3,0.6,0.5,0.8c1.1,1.5,2.1,3,3.4,4.3c1.3,1.2,2,2.3,1.1,4.1
			c-0.4,0.9-0.4,2-0.5,3c-0.1,1.8,0.7,3.2,2.2,4.3c1.2,0.9,2.5,1.3,4,1.4c2.6,0.1,5.2,0.2,7.7-0.3C47.7,272.5,47.5,271.9,47.3,271.3
			z"/>
		<path d="M88.9,178.1c-0.4,0.3-0.9,0.5-1.6,0.9c-1-1.8-1.9-3.6-3.1-5.7c1.5,0.4,1.6,1.3,2,1.9c0.4,0.7,0.8,1.4,1.3,2.1
			c0.4-0.3,0.8-0.5,1.3-0.8c0.8,0.6,1.6,1.2,2.4,1.8c0.6-0.5,1.2-0.9,1.7-1.4C92.3,179.5,91.6,179.7,88.9,178.1z"/>
		<path d="M78.1,226.2c1-0.4,2.1-1.2,2.9-1.1c0.8,0.1,1.5,1.2,2.3,2c-1.5,1-1.9-0.9-3-1.1c-0.9,0.6-1.8,1.2-2.9,2
			c-0.3-0.9-0.5-1.6-0.7-2.5c-0.4,0.2-0.8,0.4-1.4,0.7c0.3-1.3,0.8-2.1,2.1-2.6C77.7,224.5,77.9,225.3,78.1,226.2z"/>
		<path d="M105.7,204.4c0.3-0.6,0.6-1.2,1-2.1c0.8,1.5,1.5,2.6,2.2,3.9c1.7-0.8,2.6,0.6,4.1,1c-2.5,0.6-4.3,0-5.5-1.4
			C107.1,205.2,106.4,204.9,105.7,204.4z"/>
		<path d="M99.4,146c-0.4-0.8-0.8-1.7-1.3-2.6c-0.2,0.4-0.3,0.8-0.5,1.1c-0.9-2.4-1-4.3-0.4-6.3c0.1,0.1,0.4,0.1,0.4,0.2
			c0.3,1.5,0.2,2.9,1.4,4.3c0.7,0.8,0.7,2.2,1,3.3C99.9,146,99.7,146,99.4,146z"/>
		<path d="M51.1,174.2c-0.3-0.8-0.4-1.3-0.6-2c-0.8,0.4-1.4,0.7-2.2,1c0.6-1.3,1.5-2.2,2.2-1.9c0.6,0.2,1,0.9,1.6,1.5
			c2-0.2,3.6,0.9,5.1,2.4C55.2,174.6,53.5,172.8,51.1,174.2z"/>
		<path d="M51.6,248.5c-2,2.1-3.9,4.1-5.9,6.2c0.3-1.7,2.1-3.6,5.5-6.5C51.4,248.3,51.5,248.4,51.6,248.5z"/>
		<path d="M90.9,248c0.4-0.2,0.8-0.5,1.1-0.4c0.9,0.1,2.7,1.2,4.3,2.8C94.3,249.5,92.8,248.8,90.9,248z"/>
		<path d="M47,247.4c0.5-1.3,1.6-1.8,2.6-2.4c0.1,0.1,0.2,0.3,0.3,0.4c-0.9,0.7-1.8,1.4-2.8,2.1L47,247.4z"/>
		<path class="st1" d="M56.4,96.7c-1.7-1.7-2.5-4.3-2.2-6.7c4.8-1.1,10,0.4,13.6,3.8c-1,1.2-2.7,1.6-4.2,1.9c-3,0.6-6.1,1.2-9.1,1.8
			"/>
		<path class="st1" d="M111.8,124.6c1.5,0.8,3.5,0.4,4.8-0.7s2.2-2.6,3-4.1c1.5-2.9,2.8-5.9,3.9-9c0.4-1.2,0.9-2.7,0.2-3.8
			c-0.8-1.4-3-1.5-4.4-0.7s-2.5,2.2-3.7,3.3c-1.9,1.8-9.8,3.2-10.4,5C104.8,115.8,110.8,124,111.8,124.6z"/>
		<path d="M90.8,141.8c2.9-0.8,5.2-2.9,8-3.8c0.2,0.1,0.3,0.3,0.4,0.4c-0.4,0.9-0.8,1.7-1.4,2.9c0.8-0.2,1.4-0.4,1.9-0.6
			c4.6-2.4,8.2-5.6,9.6-10.7c0.1-0.4,0-0.9,0.3-1.1c2.1-1.6,1-3.6,0.5-5.2c-0.6-1.9-1.6-3.7-2.7-5.3c-1.4-2.1-2.9-4.2-4.8-6
			c-1.6-1.5-3.5-2.7-5.4-3.9c-3.3-2.2-7.2-1.4-10.9-2c-1-0.2-2.1,0.5-3.3,0.8c-0.8-0.6-0.6-1.1,0.2-1.6c1.4-0.8,2.9-0.9,4.4-0.7
			c2.6,0.3,5.2,0.6,7.8,0.9c0.7,0.1,1.4,0.5,2.1,0.8c0.3,0.1,0.5,0.4,0.8,0.6c4.6,2.4,7.7,6.5,10.6,10.6c1.6,2.3,2.9,4.8,3.3,7.6
			c0.2,2,0.1,4-1.6,5.5c-0.3,0.3-0.5,0.8-0.7,1.3c-2.4,5.2-6.2,8.8-11.6,10.8c-0.9,0.3-1.9,0.4-3.2,0.6c0.3-1,0.4-1.7,0.6-2.5
			c-2,0.9-4,1.7-5.9,2.5c-0.9-1.9-1.7-3.5-2.6-5.2c-3,1.6-5.9,2.5-9,2.7c-1.5,0.1-3-0.3-4.5-0.5c-0.6-0.1-1.1-0.3-1.6-0.4
			c-6.1-1.1-9.9-5-12.7-10.2c-0.5-0.9-0.6-2.1-0.9-3.3c-0.5,0.3-1.1,0.7-1.8,1.2c-0.4-0.5-0.8-1.1-1.2-1.6c-2,0.9-2,1-3.6-0.8
			c-1.2-1.4-2.2-2.9-3.3-4.3c-0.1-0.1-0.1-0.3-0.2-0.4c-2.8-1.9-2-4.5-1.5-7.1c0.3-1.5,0.8-2.8,0.3-4.4c-0.2-0.9,0.4-2.2,1-3
			c1.9-2.6,4-4.9,7.3-6.6c-1.6,0-3,1.2-3.8-0.7c0.5-0.3,1-0.7,1.5-0.8c2.7-0.8,5.3-1.7,8-2.3c1.4-0.3,2.9-0.1,4.3-0.1
			c1.2,0,2.4,0.2,3.6,0.3c0.1-0.6,0.2-1.2,0.4-1.9c5.8,2.7,9.9,6.7,11.8,13.3c-0.8-0.5-1.3-0.6-1.5-0.9c-0.6-1.1-1.2-2.3-1.7-3.4
			c-0.7-1.6-1.7-2.9-3.1-3.9c-0.8-0.6-1.5-1-2.6-0.8c-0.7,0.2-1.6-0.2-2.3-0.3c-2-0.3-3.9-0.7-5.9-0.8c-1.8-0.1-3.5,0.1-4.9,1.8
			c-0.9,1.1-2.5,1.7-3.9,2.3c-2.8,1.2-4.5,3.7-6.6,5.9c0.6,0.3,1.1,0.6,1.7,1c-0.4,0.8-0.8,1.5-1.1,2.2c-0.5,1.3-1.1,2.5-1.4,3.8
			c-0.2,0.6-0.2,1.6,0.1,1.8c1.3,0.8,1,2,1.3,3.2c0.3,1.2,1,2.3,1.5,3.6c0.7-0.1,1.2-0.2,1.8-0.3c0.2,0.6,0.4,1.1,0.5,1.6
			c0.1,0,0.3,0.1,0.4,0.1c2.1-0.7,4.1-1.3,6.3-0.1c0.4,0.2,1.2-0.1,1.7-0.3c2.6-0.8,5.2-1.6,7.8-2.3c0.4-0.1,1.2,0.2,1.4,0.6
			c0.5,0.8,1.2,1.8,1,2.6c-0.3,1.3-1.6,0.2-2.5,0.4c-1.3,0.3-2.6,0.6-3.9,0.9c-1.3,0.3-2.5,1.4-4.1,0.7c-0.1,0-0.8,0.9-0.7,1.1
			c1,1.9,2,3.7,3.3,5.5c2.3,3.2,6,4,9.6,5c0.9,0.3,1.8,0.5,2.8,0.7c0.3,0.1,0.6,0.3,0.9,0.2c2.9-0.5,6-0.6,9.2-1.6
			c-0.5-0.6-0.8-0.9-1.1-1.3c-0.3-0.3-0.8-0.4-0.9-0.7c-1.2-3.9-4.3-6-7.4-8.2c-0.1-0.1-0.2-0.3-0.4-0.5c0.2-0.2,0.3-0.5,0.5-0.6
			c0.2-0.2,0.6-0.3,0.6-0.3C83.7,129.9,87.1,135.9,90.8,141.8z"/>
		<path d="M97.1,62.3c-0.6,0.8-1.1,1.5-1.7,2.5c4.7,1.2,9.3,2.6,13.6,4.8c-0.2,0.7-0.3,1.3-0.4,1.9c3.5,2.5,6.9,5,10.4,7.5
			c8.4-3.7,17-7.3,26.5-6.7c1.1,1.1,0.8,2.1,0.2,3c-3.3,5.1-6.6,10.2-10.9,14.6c-1.5,1.5-3,3.2-4.1,5c-0.8,1.3-1.2,2.9-1.4,4.5
			c-0.4,2.4-0.1,4.9-0.8,7.1c-0.7,2.2-2.3,4.1-3.5,6.2c-1,1.7-1.7,3.6-2.8,5.2c-1.4,1.9-2.7,4.1-5.5,5.2c0.2-0.7,0.2-1.2,0.4-1.4
			c3.7-3.2,5.5-7.6,8-11.6c2.3-3.7,3-7.7,2.9-11.9c0-1.4,0.4-2.5,1.3-3.7c2.1-2.7,4.3-5.1,6.5-7.7c3.3-3.8,6.3-7.8,8.6-12.3
			c0.1-0.1,0-0.3,0-0.7c-1.9-0.4-3.9-0.3-5.8,0.1c-5.3,1-10.4,2.6-15.3,4.8c-1,0.4-1.9,1.1-2.9,1.7c-1,0.6-1.9,0.6-2.8-0.3
			c-0.4-0.5-1.1-0.7-1.7-1c-0.2-0.1-0.5-0.1-0.6-0.3c-1.7-2.3-4.3-3.4-6.5-5.1c-1-0.8-2.2-1.3-3.4-1.9c0.4-0.5,0.7-1,1.1-1.6
			c-0.2-0.1-0.4-0.2-0.6-0.3c-3.1-1.1-6.1-2.3-9.2-3.3c-0.9-0.3-2-0.3-3.3-0.4c0.4-1,0.7-1.9,1.1-2.8c-1.2-0.9-2.7-0.8-4.1-0.8
			c-1.6,0-3.2,0-4.8,0.1c-0.9,0-1.6-0.2-2.2-1c-2.6-3.5-4.5-7.3-6-11.4c-1.1-2.9-1.8-5.9-4.1-8.5c-0.6,1-1.2,1.9-1.6,2.8
			c-1.8,3.7-3.6,7.3-5.3,11c-1.8,4.1-3.5,8.2-5.3,12.3c-0.6,1.3-1.3,2.8-3.2,2c-1.1,2.6,0.2,5.5-1.5,7.9c-0.6-0.1-1.2-0.3-2-0.5
			c1.1,4.1,1.8,8,1,12.2c-1.2-0.2-2.1-0.4-3.5-0.7c1.1,2.5,2.1,4.7,3.1,7c-0.5-0.1-1-0.1-1.3-0.3c-0.4-0.3-0.7-0.7-0.9-1.1
			c-1-2.3-2-4.6-3-6.9c1.4-1.4,2.8-0.4,4-0.6c0.8-1.8,0.6-5.1-0.4-7.7c-0.3-0.8-0.7-1.6-0.9-2.5c-0.5-1.7,0-2.2,1.8-1.8
			c0.5,0.1,0.9,0.2,1.7,0.4c0-1.1,0-2.1,0-3c0.1-1,0.2-2.1,0.4-3.1c0.4-1.7,0.5-1.7,2.3-1.3c0.2,0,0.5,0,1,0c1-2.6,2.1-5.2,3.2-7.9
			c1.3-3.2,2.6-6.3,4.1-9.4c1.5-3.2,3.2-6.3,4.9-9.3c0.4-0.8,1-1.4,1.7-2.4c1.3,1.8,2.4,3.5,3.2,5.3c1.4,3.4,2.7,6.8,4.2,10.2
			c0.8,1.8,2,3.5,3,5.2c0.7,1.2,1.8,1.6,3.2,1.7c3.1,0.1,6.2,0.4,9.3,0.6C96.4,61.9,96.6,62.1,97.1,62.3z"/>
		<path d="M89,115.6c-0.7,0.9-1.5,1.8-2.4,2.4c-2.2,1.3-4.5,2.5-6.9,3.6c-2.2,0.9-5.1-0.4-6.4-2.5c-1.4-2.3-1.7-4.8-1.6-7.5
			c0-0.5,0-1.1,0-1.6c-0.1-3.2,0.7-4.1,3.9-4.6c2.3-0.4,4.5-0.1,6.8,0.9c2.2,1,4.3,2.2,6,3.8C89.9,111.8,90.3,113.8,89,115.6z"/>
		<path d="M73.6,84.2c2.4-0.1,4.5,2.9,3.7,5.3c-0.6,1.5-1.5,2.9-3.1,3.6c-2.1,0.9-3.9,0.5-5.2-1.3c-1.3-1.9-1.2-3.5,0.5-5.3
			C70.6,85.3,71.8,84.2,73.6,84.2z"/>
		<path d="M100.7,103.3c0.1-3.6,3.2-5.9,6-5.3c1.7,0.3,2.8,4.1,1.7,5.7c-1.3,1.9-3,2.8-5.2,2.8c-0.6,0-1.4-0.6-1.8-1.1
			C100.9,104.6,100.8,103.6,100.7,103.3z"/>
		<path d="M106.8,94.1c-1.7,1.3-3.6-0.3-4.9,1.9c-0.2-2.4,0.2-3.1,2.6-5c0.3,0.6,0.7,1.2,1,1.8c2.5-0.3,2.5-0.3,3.1,2.3
			c1.4,0.9,2.8,1.7,4.1,2.5c0.9,0.6,1.5,1.2,1.5,2.4c0,0.9,1,1.7,1.6,2.5c-1.5,0.4-2.7-0.1-2.9-1.6c-0.3-2.3-2-2.9-3.6-3.7
			C107.9,96.7,106.7,96.2,106.8,94.1z"/>
		<path d="M69.5,62.3c0.4,0.2,0.6,0.2,0.8,0.4c2.2,1.5,2.3,1.5,3.2-1.1c0.1-0.3,0.3-0.6,0.3-0.7c1.5-0.3,2.9-0.7,4.4-1
			c-0.2,1.1-0.8,1.9-1.7,2.1c-1.6,0.3-2.1,1.5-2.8,2.6c-0.4,0.6-0.9,1.1-1.5,1.4c-0.3,0.2-0.8-0.2-1.3-0.3c0,0.4,0,0.8,0,1.3
			C68.6,65.4,68.2,64.2,69.5,62.3z"/>
		<path d="M84.9,77.5c-1.6-0.4-1.5-2.5-3.3-2.3c-2.7-2.4-6.3-0.7-9.3-1.7c-0.6-0.2-1.2-0.3-2.4-0.7c1.1-0.4,1.5-0.8,1.9-0.8
			c2.3-0.1,4.5-0.2,6.8-0.2c0.6,0,1.3,0.1,1.6,0.4c1.1,1.3,2.4,1.1,3.7,0.6C85.4,74.2,84.7,75.9,84.9,77.5z"/>
		<path d="M83.9,100.5c-0.7,0.5-1.1,0.8-1.6,1c-0.8-0.5-1.9-3.4-1.7-4.7c1.3,0.3,1.1,1.7,2,2.4c1-0.5,2-0.3,3.1,0.4
			c0.7,0.5,1.8,0.3,2.7,0.6c0.3,0.1,0.5,0.5,0.8,0.7c-0.3,0.2-0.5,0.7-0.8,0.7C86.9,101.7,85.2,102,83.9,100.5z"/>
		<path d="M92.7,74.4c0.5,1,0.8,1.7,1.2,2.4c1.3,0,2.7-0.2,3.9,0.1c0.8,0.2,1.4,1.2,2.4,2.2c-1-0.1-1.6,0.1-1.9-0.2
			c-1.2-0.8-2.4-1-3.8-0.4c-1.3,0.6-1.8-0.5-2.2-1.6c-0.6,0.5-1.1,0.9-1.7,1.4C90.7,76.3,90.9,75.9,92.7,74.4z"/>
		<path d="M128.8,84.2c0.9,2.3,0.3,3-3,3.9c0.2,0.9,0.3,1.8,0.4,2.7c-1.7-0.4-1.9-0.7-2.3-4.8c0.3-0.1,0.6-0.3,0.8-0.3
			c0.8,0.1,1.6,0.6,2.3,0.4C127.7,85.8,128.1,85,128.8,84.2z"/>
		<path d="M96.4,132.9c-2,0.2-1.9-1.6-3.1-2.2c-0.3,0.3-0.8,0.5-1.1,0.9c-0.4,0.4-0.6,0.9-0.9,1.4c-2-1.3-1.8-3.3-2.8-4.6
			c1.8,0.2,1.5,2,2.5,3.2c0.8-0.8,1.5-1.5,2.5-2.4C94.4,130.4,95.3,131.5,96.4,132.9z"/>
		<path d="M120.4,110.9c-2,0.7-3.4,2.7-5.2,0.5c-0.6,0.5-1.1,0.9-1.6,1.3c-0.1-0.1-0.3-0.2-0.4-0.3c0.4-0.8,0.8-1.5,1.3-2.4
			c1,0.6,1.8,1,2.5,1.4C118.2,111.6,118.7,109.9,120.4,110.9z"/>
		<path d="M63.3,118.1c-2.2-0.2-1.3-2.5-2.6-3.3c-0.6,0.5-1.3,1.1-2,1.7c0.2-1.5,0.2-1.5,2.7-2.9C62,115.1,62.6,116.5,63.3,118.1z"
			/>
		<path class="st0" d="M74.4,87.5c0,0.5-0.4,0.9-0.9,0.9c-0.5,0-0.9-0.4-0.9-0.9s0.4-0.9,0.9-0.9C74,86.6,74.4,87,74.4,87.5z"/>
		<path class="st0" d="M105.6,100.6c0,0.5-0.4,0.9-0.9,0.9s-0.9-0.4-0.9-0.9s0.4-0.9,0.9-0.9S105.6,100.1,105.6,100.6z"/>
		<path class="st0" d="M77.2,109c0.2,0,0.3,0,0.5,0c2.4,0,4.7,1.2,6.1,3.1c0.2,0.2,0.5,0.3,0.7,0.1c0.2-0.2,0.3-0.5,0.1-0.7
			c-1.6-2.2-4.2-3.5-6.9-3.5c-0.2,0-0.4,0-0.6,0c-0.3,0-0.5,0.3-0.5,0.5C76.7,108.8,76.9,109,77.2,109L77.2,109z"/>
	</g>
</g>
<g id="Layer_9">
</g>
<g id="Layer_10">
</g>
<g id="Layer_11">
</g>
<g id="Layer_12">
</g>
<g id="Layer_13">
</g>
<g id="Layer_14">
</g>
</svg>
