<?xml version="1.0" encoding="utf-8"?>
<!-- Generator: Adobe Illustrator 16.0.3, SVG Export Plug-In . SVG Version: 6.00 Build 0)  -->
<!DOCTYPE svg PUBLIC "-//W3C//DTD SVG 1.1//EN" "http://www.w3.org/Graphics/SVG/1.1/DTD/svg11.dtd">
<svg version="1.1" id="Layer_1" xmlns="http://www.w3.org/2000/svg" xmlns:xlink="http://www.w3.org/1999/xlink" x="0px" y="0px"
	 width="27.807px" height="23.584px" viewBox="89.885 46.785 27.807 23.584" enable-background="new 89.885 46.785 27.807 23.584"
	 xml:space="preserve">
<g>
	<path fill="#EB584A" d="M109.029,48.781c1.633-0.636,3.447-1.361,5.08-0.816c1.996,0.635,3.084,2.902,2.993,4.988
		c-0.091,2.087-1.27,3.991-2.54,5.624c-2.721,3.447-6.44,5.986-9.162,9.434c-1.633-1.995-3.81-3.628-6.259-4.535
		c-1.723-0.726-3.628-1.18-4.989-2.449c-1.814-1.633-2.358-4.173-2.721-6.622c-0.182-0.997-0.363-1.995-0.182-2.902
		c0.182-0.907,0.726-1.904,1.633-2.268c0.726-0.272,1.633-0.182,2.358,0c1.361,0.272,2.631,0.726,3.9,1.27
		c0.907,0.363,3.175,2.358,3.991,2.268c0.998,0,1.542-1.451,2.358-2.086C106.489,49.778,107.759,49.234,109.029,48.781z"/>
	<path d="M103.224,51.774c0.363-0.363,0.635-0.726,0.907-1.089c1.542-2.086,3.719-3.175,6.259-3.356c1.27-0.09,2.54-0.09,3.81,0
		c2.812,0.182,3.9,1.452,3.356,4.264c-0.272,1.542-0.816,3.266-1.724,4.535c-2.177,3.266-4.535,6.35-6.894,9.524
		c-0.816,1.089-1.814,2.086-2.812,2.993c-0.635,0.544-1.36,0.998-2.449,1.724c-0.363-2.177-1.633-2.993-3.084-3.81
		c-1.633-0.907-3.266-1.996-4.898-2.993c-3.81-2.449-5.714-5.896-5.805-10.432c-0.091-2.449,0.998-4.173,2.721-5.715
		c0.998-0.906,1.996-0.726,3.084-0.181c2.177,1.179,4.808,1.633,6.35,3.99C102.408,51.502,102.861,51.593,103.224,51.774z
		 M115.469,49.416c-1.905-0.726-3.991-0.635-5.805-0.091c-2.268,0.635-4.354,1.814-4.354,4.808c0,0.726-0.453,1.451-0.907,2.721
		c-0.998-1.179-1.724-1.904-2.358-2.812c-1.633-2.268-3.9-3.447-6.712-3.628c-1.451-0.091-2.449,0.544-2.358,1.632
		c0.182,2.269,0.091,4.717,2.086,6.44c1.179-0.816,2.268-1.542,3.356-2.268c0.363,0.907,0.544,1.542,0.816,2.086
		c-0.816,0.816-1.633,1.542-2.54,2.449c2.721,2.631,5.986,3.81,8.889,5.442c0.272-0.091,0.454-0.091,0.635-0.271
		c3.81-3.629,6.712-7.892,9.252-12.337C116.104,52.409,116.286,50.958,115.469,49.416z"/>
</g>
</svg>
