<svg width="156" height="26" viewBox="0 0 156 26" fill="none" xmlns="http://www.w3.org/2000/svg">
<path d="M16.6005 12.16C19.3161 12.16 20.4799 11.2548 20.4799 8.92719C20.4799 6.72886 19.3161 5.69435 16.6005 5.69435H5.47951V12.16H16.6005ZM0.824219 1.81494H17.3764C22.161 1.81494 25.1352 5.04778 25.1352 8.92719C25.1352 13.5825 21.773 16.0394 17.3764 16.0394H5.47951V25.0914H0.824219V1.81494Z" fill="#F15748"/>
<path d="M27.5923 24.3154V20.5653C30.4372 21.5998 32.7648 21.9878 35.739 21.9878C39.8771 21.9878 41.5581 21.5998 41.5581 20.1774C41.5581 16.6859 26.8164 20.6946 26.8164 13.4531C26.8164 9.70297 30.6958 7.89258 36.5149 7.89258C38.4546 7.89258 41.9461 8.28052 44.791 8.79777V12.4186C42.4633 11.9013 39.4891 11.5134 37.0322 11.5134C33.1528 11.5134 31.4717 12.1599 31.4717 13.3237C31.4717 16.5566 46.2134 12.8065 46.2134 20.048C46.2134 23.9275 42.334 25.4792 36.5149 25.4792C33.9287 25.6085 30.3079 25.0913 27.5923 24.3154Z" fill="#F15748"/>
<path d="M48.67 8.40896H53.3253V24.9611H48.67V8.40896ZM48.0234 2.84848C48.0234 1.03809 49.1873 0.262207 50.8683 0.262207C52.6787 0.262207 53.8425 1.1674 53.8425 2.84848C53.8425 4.65887 52.6787 5.56406 50.8683 5.56406C49.1873 5.56406 48.0234 4.78818 48.0234 2.84848Z" fill="#F15748"/>
<path d="M75.3069 21.0827C77.7638 21.0827 79.1863 20.1775 79.1863 17.9791C79.1863 15.9101 77.7638 15.0049 75.3069 15.0049H63.1514V21.0827H75.3069ZM58.4961 1.81494H75.8241C80.6087 1.81494 83.3243 4.40121 83.3243 7.89268C83.3243 11.2548 80.8673 12.9359 76.8586 13.1945C81.2553 13.3238 84.1002 15.2635 84.1002 18.8843C84.1002 22.6344 81.126 25.0914 76.6 25.0914H58.4961V1.81494ZM74.6603 11.6428C77.1172 11.6428 78.5397 10.8669 78.5397 8.79787C78.5397 6.72885 77.1172 5.82366 74.6603 5.82366H63.2807V11.6428H74.6603Z" fill="#F15748"/>
<path d="M106.734 24.9616H101.562L102.208 18.1079H101.95C101.303 22.5046 98.8461 25.4788 93.8028 25.4788C89.1476 25.4788 86.9492 22.7632 86.9492 15.5217V8.40942H91.6045V15.0044C91.6045 20.0476 92.8976 21.9873 96.1305 21.9873C99.7513 21.9873 102.079 18.4959 102.079 13.0647V8.40942H106.734V24.9616Z" fill="#F15748"/>
<path d="M112.163 11.901H109.965V8.40953H112.163V7.76296C112.163 3.49561 113.456 1.55591 117.594 1.55591C118.758 1.55591 119.793 1.81454 121.474 2.07316V4.65943C121.086 4.65943 120.698 4.65943 120.31 4.65943C117.206 4.65943 116.948 5.43531 116.948 8.53884H121.474V11.6424H116.948V25.091H112.292L112.163 11.901Z" fill="#F15748"/>
<path d="M138.023 15.651C137.894 12.6768 136.084 11.6423 132.463 11.6423C128.972 11.6423 127.161 12.8061 126.903 16.0389L138.023 15.651ZM122.506 16.8148C122.506 11.5129 126.515 8.02148 132.463 8.02148C138.411 8.02148 142.291 10.9957 142.42 15.5217V18.2373H126.903C127.42 20.9528 129.618 22.1167 134.015 22.1167C138.023 22.1167 139.705 21.0822 141.644 20.3063V24.0564C138.411 25.3495 136.601 25.7374 132.334 25.7374C126.515 25.6081 122.506 22.1167 122.506 16.8148Z" fill="#F15748"/>
<path d="M146.431 19.0112V11.8989H144.104V8.40748H147.207V4.39876L151.216 3.7522V8.40748H156V11.8989H151.216V18.106C151.216 21.4682 151.216 22.244 154.19 22.244C154.707 22.244 155.224 22.244 156 22.1147V24.5717C154.578 24.9596 153.285 25.2182 151.474 25.2182C147.078 25.3476 146.431 23.7958 146.431 19.0112Z" fill="#F15748"/>
</svg>
