<svg width="127" height="75" viewBox="0 0 127 75" fill="none" xmlns="http://www.w3.org/2000/svg">
<path d="M125.557 1.44238V36.6687H1.44141V1.44238H125.557Z" fill="white"/>
<path d="M127 36.7713V0H0V36.7713V38.2133V74.1606H127V36.7713ZM1.44201 1.44201H125.558V36.6683H1.44201V1.44201Z" fill="#E30613"/>
<path d="M22.2484 45.1145C21.7334 44.4965 21.0124 43.9815 20.2914 43.5695C19.5704 43.1575 18.7464 42.9515 18.0254 42.7455C17.3044 42.6425 16.5834 42.5395 16.0684 42.4365C15.5534 42.4365 14.9354 42.4365 14.3174 42.4365H8.34333C7.82832 42.4365 7.41632 42.5395 7.10732 42.8485C6.79831 43.1575 6.69531 43.5695 6.69531 44.1875V67.0537C6.69531 67.1567 6.69531 67.2597 6.79831 67.3627C6.90131 67.4657 7.00431 67.5687 7.21032 67.5687C7.41632 67.5687 7.62232 67.6717 8.03432 67.6717C8.34333 67.6717 8.75533 67.6717 9.27033 67.6717C9.78534 67.6717 10.1973 67.6717 10.5063 67.6717C10.8153 67.6717 11.1243 67.5687 11.2273 67.5687C11.4333 67.5687 11.5364 67.4657 11.6394 67.3627C11.7424 67.2597 11.7424 67.1567 11.7424 67.0537V58.9167H13.9054C15.5534 58.9167 17.0984 58.7106 18.3344 58.2986C19.5704 57.8866 20.6004 57.3716 21.5274 56.5476C22.3514 55.8266 22.9694 54.8996 23.4844 53.7666C23.8964 52.6336 24.1024 51.3976 24.1024 49.9556C24.1024 48.9256 23.9994 47.9986 23.6904 47.1746C23.1754 46.4536 22.8664 45.7325 22.2484 45.1145ZM18.3344 52.3246C18.1284 52.8396 17.9224 53.3546 17.5104 53.7666C17.2014 54.1786 16.6864 54.4876 16.1714 54.6936C15.6564 54.8996 14.9354 55.0026 14.1114 55.0026H11.8454V46.3506H14.0084C14.5234 46.3506 15.0384 46.3506 15.5534 46.4536C16.0684 46.4536 16.4804 46.6596 16.9954 46.9686C17.4074 47.1746 17.8194 47.6896 18.1284 48.2046C18.4374 48.7196 18.5404 49.5436 18.5404 50.3676C18.5404 51.0886 18.4374 51.7066 18.3344 52.3246Z" fill="white"/>
<path d="M48.3076 45.0119C47.3806 43.9819 46.0416 43.1579 44.5996 42.6429C43.1576 42.1279 41.4065 41.9219 39.5525 41.9219C37.4925 41.9219 35.7415 42.2309 34.2995 42.8489C32.7545 43.4669 31.5185 44.2909 30.4885 45.5269C29.4585 46.6599 28.6344 48.1019 28.1194 49.7499C27.6044 51.3979 27.3984 53.252 27.3984 55.312C27.3984 57.578 27.6044 59.535 28.1194 61.08C28.6344 62.728 29.3555 64.067 30.2825 65.2001C31.2095 66.2301 32.4455 67.0541 33.9905 67.5691C35.4325 68.0841 37.1835 68.2901 39.1405 68.2901C41.0975 68.2901 42.9516 67.9811 44.3936 67.3631C45.9386 66.7451 47.1746 65.9211 48.2046 64.6851C49.2346 63.552 50.0586 62.11 50.5736 60.462C51.0886 58.814 51.2946 56.857 51.2946 54.797C51.2946 52.634 51.0886 50.6769 50.5736 49.0289C50.0586 47.3809 49.2346 46.1449 48.3076 45.0119ZM45.5266 58.505C45.3206 59.535 44.9086 60.565 44.3936 61.389C43.8786 62.213 43.1576 62.831 42.3336 63.346C41.5095 63.758 40.3765 64.067 39.1405 64.067C37.9045 64.067 36.7715 63.861 35.9475 63.449C35.1235 63.037 34.4025 62.419 33.9905 61.698C33.4755 60.977 33.1665 59.947 32.9605 58.814C32.7545 57.681 32.6515 56.445 32.6515 55.003C32.6515 53.87 32.7545 52.634 32.9605 51.6039C33.1665 50.5739 33.5785 49.6469 34.0935 48.8229C34.6085 47.9989 35.3295 47.3809 36.1535 46.8659C36.9775 46.4539 38.1105 46.1449 39.3465 46.1449C40.5825 46.1449 41.6125 46.3509 42.5396 46.7629C43.3636 47.1749 44.0846 47.7929 44.5996 48.6169C45.1146 49.3379 45.4236 50.3679 45.6296 51.398C45.8356 52.531 45.9386 53.664 45.9386 55.106C45.8356 56.239 45.7326 57.475 45.5266 58.505Z" fill="white"/>
<path d="M69.7328 64.0667C69.7328 63.9637 69.6298 63.7577 69.5268 63.7577C69.4238 63.7577 69.3208 63.6547 69.2178 63.6547H61.1838V43.0545C61.1838 42.9515 61.1838 42.8485 61.0808 42.7455C60.9778 42.6425 60.8748 42.5395 60.6688 42.5395C60.4628 42.5395 60.2568 42.4365 59.9477 42.4365C59.6387 42.4365 59.2267 42.4365 58.7117 42.4365C58.1967 42.4365 57.7847 42.4365 57.4757 42.4365C57.1667 42.4365 56.8577 42.5395 56.6517 42.5395C56.4457 42.5395 56.3427 42.6425 56.2397 42.7455C56.1367 42.8485 56.1367 42.9515 56.1367 43.0545V66.2297C56.1367 66.7447 56.2397 67.1567 56.5487 67.4657C56.8577 67.6717 57.1667 67.8777 57.5787 67.8777H69.2178C69.3208 67.8777 69.4238 67.8777 69.5268 67.7747C69.6298 67.6717 69.7328 67.5687 69.7328 67.3627C69.7328 67.2597 69.8358 66.9507 69.8358 66.7447C69.8358 66.5387 69.8358 66.1267 69.8358 65.7147C69.8358 65.3027 69.8358 64.9937 69.8358 64.7877C69.9388 64.3757 69.8358 64.1697 69.7328 64.0667Z" fill="white"/>
<path d="M86.8303 55.6206C86.3153 55.1056 85.8003 54.5906 85.0793 54.1786C84.4612 53.7666 83.7402 53.4576 83.1222 53.1486C82.5042 52.8396 81.7832 52.5306 81.1652 52.2216C80.5472 51.9126 79.9292 51.7066 79.4142 51.2946C78.8992 50.9856 78.4872 50.5736 78.1782 50.1616C77.8692 49.7496 77.7662 49.2346 77.7662 48.7196C77.7662 48.4106 77.7662 47.9986 77.9722 47.6896C78.0752 47.3806 78.2812 47.0716 78.5902 46.8656C78.8992 46.6596 79.2082 46.4536 79.6202 46.3506C80.0322 46.2476 80.5472 46.1446 81.0622 46.1446C81.7832 46.1446 82.4012 46.2476 83.0192 46.3506C83.6372 46.4536 84.1522 46.6596 84.5642 46.9686C84.9762 47.1746 85.3883 47.3806 85.6973 47.5866C86.0063 47.7926 86.2123 47.7926 86.4183 47.7926C86.5213 47.7926 86.6243 47.7926 86.7273 47.6896C86.8303 47.5866 86.8303 47.4836 86.9333 47.3806C86.9333 47.2776 87.0363 46.9686 87.0363 46.7626C87.0363 46.5566 87.0363 46.2476 87.0363 45.8355C87.0363 45.5265 87.0363 45.2175 87.0363 45.0115C87.0363 44.8055 87.0363 44.5995 87.0363 44.4965C87.0363 44.3935 87.0363 44.2905 86.9333 44.1875C86.9333 44.0845 86.8303 43.9815 86.7273 43.8785C86.6243 43.7755 86.3153 43.5695 85.9033 43.3635C85.4913 43.1575 85.0793 43.0545 84.5642 42.8485C84.0492 42.7455 83.5342 42.5395 82.9162 42.5395C82.2982 42.4365 81.6802 42.4365 81.0622 42.4365C79.9292 42.4365 78.7962 42.5395 77.7662 42.8485C76.7362 43.1575 75.8092 43.5695 75.0882 44.1875C74.3672 44.8055 73.7492 45.5265 73.2342 46.4536C72.8222 47.3806 72.6162 48.4106 72.6162 49.6466C72.6162 50.6766 72.7192 51.6036 73.0282 52.4276C73.3372 53.1486 73.7492 53.8696 74.2642 54.3846C74.7792 54.8996 75.2942 55.4146 76.0152 55.8266C76.6332 56.2386 77.3542 56.5476 77.9722 56.8566C78.5902 57.1656 79.3112 57.4746 79.9292 57.7836C80.5472 58.0926 81.1652 58.2986 81.6802 58.7106C82.1952 59.0197 82.6072 59.4317 82.9162 59.8437C83.2252 60.2557 83.3282 60.7707 83.3282 61.2857C83.3282 61.8007 83.2252 62.2127 83.1222 62.6247C82.9162 63.0367 82.7102 63.3457 82.2982 63.6547C81.9892 63.8607 81.5772 64.1697 81.0622 64.2727C80.5472 64.3757 80.0322 64.4787 79.4142 64.4787C78.4872 64.4787 77.6632 64.3757 76.8392 64.1697C76.1182 63.9637 75.5002 63.7577 74.9852 63.4487C74.4702 63.2427 74.0582 62.9337 73.7492 62.7277C73.4402 62.5217 73.1312 62.4187 73.0282 62.4187C72.9252 62.4187 72.8222 62.4187 72.7192 62.5217C72.6162 62.5217 72.6162 62.7277 72.5132 62.8307C72.5132 62.9337 72.4102 63.2427 72.4102 63.4487C72.4102 63.6547 72.4102 64.0667 72.4102 64.4787C72.4102 65.0967 72.4102 65.5087 72.5132 65.8177C72.5132 66.1267 72.7192 66.3327 72.8222 66.5387C72.9252 66.6417 73.2342 66.8477 73.6462 67.1567C74.0582 67.3627 74.4702 67.5687 75.0882 67.7747C75.6032 67.9807 76.3242 68.0837 77.0452 68.2897C77.7662 68.3927 78.5902 68.4957 79.5172 68.4957C80.7532 68.4957 81.9892 68.3927 83.2252 67.9807C84.3582 67.6717 85.3883 67.1567 86.2123 66.4357C87.0363 65.8177 87.7573 64.8907 88.2723 63.8607C88.7873 62.8307 88.9933 61.6977 88.9933 60.3587C88.9933 59.3287 88.8903 58.4016 88.5813 57.6806C87.7573 56.7536 87.3453 56.1356 86.8303 55.6206Z" fill="white"/>
<path d="M110.831 65.5082L103.209 53.9721L110.213 44.805C110.522 44.29 110.728 43.981 110.831 43.672C110.934 43.466 110.934 43.26 110.934 42.951C110.934 42.848 110.934 42.745 110.831 42.642C110.728 42.539 110.625 42.436 110.419 42.436C110.213 42.436 110.007 42.333 109.595 42.333C109.286 42.333 108.874 42.333 108.359 42.333C107.844 42.333 107.432 42.333 107.123 42.333C106.814 42.333 106.505 42.333 106.299 42.436C106.093 42.436 105.99 42.539 105.784 42.642C105.681 42.745 105.578 42.848 105.475 43.054L98.0588 53.8691V43.054C98.0588 42.951 98.0588 42.848 97.9558 42.745C97.8528 42.642 97.7497 42.539 97.5437 42.539C97.3377 42.539 97.1317 42.436 96.8227 42.436C96.5137 42.436 96.1017 42.436 95.5867 42.436C95.0717 42.436 94.6597 42.436 94.3507 42.436C94.0417 42.436 93.7327 42.539 93.5267 42.539C93.3207 42.539 93.2177 42.642 93.1147 42.745C93.0117 42.848 93.0117 42.951 93.0117 43.054V67.0532C93.0117 67.1562 93.0117 67.2592 93.1147 67.3622C93.2177 67.4652 93.3207 67.5682 93.5267 67.5682C93.7327 67.5682 93.9387 67.6712 94.3507 67.6712C94.6597 67.6712 95.0717 67.6712 95.5867 67.6712C96.1017 67.6712 96.5137 67.6712 96.8227 67.6712C97.1317 67.6712 97.4407 67.5682 97.5437 67.5682C97.7497 67.5682 97.8528 67.4652 97.9558 67.3622C98.0588 67.2592 98.0588 67.1562 98.0588 67.0532V55.0021L105.784 67.0532C105.887 67.2592 105.99 67.3622 106.196 67.4652C106.299 67.5682 106.608 67.6712 107.02 67.7742C107.329 67.7742 107.947 67.8772 108.874 67.8772C109.389 67.8772 109.801 67.8772 110.213 67.8772C110.522 67.8772 110.831 67.7742 111.037 67.7742C111.243 67.7742 111.346 67.6712 111.449 67.5682C111.552 67.4652 111.552 67.3622 111.552 67.1562C111.552 67.0532 111.552 66.9502 111.449 66.7442C111.346 66.4352 111.14 66.1262 110.831 65.5082Z" fill="white"/>
<path d="M119.997 42.436C119.791 42.436 119.585 42.333 119.276 42.333C118.967 42.333 118.555 42.333 118.04 42.333C117.525 42.333 117.113 42.333 116.804 42.333C116.495 42.333 116.186 42.436 115.98 42.436C115.774 42.436 115.671 42.539 115.568 42.642C115.465 42.745 115.465 42.848 115.465 42.951V66.9502C115.465 67.0532 115.465 67.1562 115.568 67.2592C115.671 67.3622 115.774 67.4652 115.98 67.4652C116.186 67.4652 116.392 67.5682 116.804 67.5682C117.113 67.5682 117.525 67.5682 118.04 67.5682C118.555 67.5682 118.967 67.5682 119.276 67.5682C119.585 67.5682 119.894 67.4652 119.997 67.4652C120.203 67.4652 120.306 67.3622 120.409 67.2592C120.512 67.1562 120.512 67.0532 120.512 66.9502V43.054C120.512 42.951 120.512 42.848 120.409 42.745C120.306 42.642 120.203 42.539 119.997 42.436Z" fill="white"/>
<path d="M21.6309 15.7599C21.6309 16.6869 21.5279 17.5109 21.2189 18.232C20.9099 18.953 20.4979 19.571 19.9829 20.086C19.4679 20.601 18.7468 20.91 17.9228 21.219C17.0988 21.425 16.1718 21.631 15.0388 21.631H13.5968V26.987C13.5968 27.09 13.5968 27.09 13.4938 27.193C13.4938 27.193 13.3908 27.296 13.2878 27.296C13.1848 27.296 12.9788 27.399 12.7728 27.399C12.5668 27.399 12.2578 27.399 11.9488 27.399C11.6398 27.399 11.3308 27.399 11.1248 27.399C10.9188 27.399 10.7128 27.399 10.6098 27.296C10.5068 27.296 10.4038 27.193 10.4038 27.193C10.4038 27.193 10.3008 27.09 10.3008 26.987V11.9489C10.3008 11.5369 10.4038 11.2279 10.6098 11.0219C10.8158 10.8159 11.1248 10.7129 11.4338 10.7129H15.4508C15.8628 10.7129 16.1718 10.7129 16.5838 10.7129C16.8928 10.7129 17.4078 10.8159 17.8198 10.9189C18.3348 11.0219 18.8498 11.2279 19.3649 11.4339C19.8799 11.6399 20.2919 12.0519 20.7039 12.4639C21.0129 12.8759 21.3219 13.3909 21.5279 13.9059C21.5279 14.5239 21.6309 15.1419 21.6309 15.7599ZM18.1288 16.0689C18.1288 15.4509 18.0258 15.0389 17.8198 14.6269C17.6138 14.3179 17.4078 14.0089 17.0988 13.8029C16.7898 13.5969 16.4808 13.4939 16.1718 13.4939C15.8628 13.4939 15.5538 13.4939 15.1418 13.4939H13.6998V19.159H15.2448C15.7598 19.159 16.2748 19.159 16.5838 18.953C16.8928 18.85 17.2018 18.644 17.5108 18.3349C17.7168 18.1289 17.9228 17.8199 18.0258 17.4079C18.0258 16.8929 18.1288 16.4809 18.1288 16.0689Z" fill="#E30613"/>
<path d="M36.7723 27.0896C36.7723 27.1926 36.7723 27.1926 36.7723 27.2956C36.7723 27.2956 36.6693 27.3986 36.5663 27.3986C36.4633 27.3986 36.2573 27.3986 36.0513 27.5016C35.8453 27.5016 35.4333 27.5016 35.0213 27.5016C34.7123 27.5016 34.4033 27.5016 34.1973 27.5016C33.9913 27.5016 33.7853 27.5016 33.6823 27.3986C33.5793 27.3986 33.4763 27.2956 33.4763 27.1926C33.4763 27.1926 33.3733 27.0896 33.3733 26.9866L31.8283 23.1755C31.6223 22.7635 31.5193 22.3515 31.3133 22.0425C31.2103 21.7335 31.0043 21.4245 30.7983 21.2185C30.5923 21.0125 30.3863 20.8065 30.0773 20.7035C29.8713 20.6005 29.4593 20.6005 29.1503 20.6005H28.1202V26.9866C28.1202 27.0896 28.1202 27.0896 28.0172 27.1926C28.0172 27.1926 27.9142 27.2956 27.8112 27.2956C27.7082 27.2956 27.5022 27.3986 27.2962 27.3986C27.0902 27.3986 26.7812 27.3986 26.4722 27.3986C26.1632 27.3986 25.8542 27.3986 25.6482 27.3986C25.4422 27.3986 25.2362 27.3986 25.1332 27.2956C25.0302 27.2956 24.9272 27.1926 24.9272 27.1926C24.9272 27.1926 24.8242 27.0896 24.8242 26.9866V11.8454C24.8242 11.5364 24.9272 11.2274 25.1332 11.0214C25.3392 10.9184 25.5452 10.8154 25.8542 10.8154H30.1803C30.5923 10.8154 31.0043 10.8154 31.2103 10.8154C31.5193 10.8154 31.7253 10.8154 31.9313 10.8154C32.5493 10.9184 33.1673 11.0214 33.7853 11.3304C34.3003 11.5364 34.8153 11.8454 35.1243 12.2574C35.4333 12.5664 35.7423 13.0814 35.9483 13.5965C36.1543 14.1115 36.2573 14.7295 36.2573 15.3475C36.2573 15.8625 36.2573 16.3775 36.0513 16.8925C35.9483 17.3045 35.7423 17.7165 35.4333 18.1285C35.2273 18.4375 34.8153 18.7465 34.4033 19.0555C33.9913 19.2615 33.5793 19.5705 33.0643 19.6735C33.2703 19.7765 33.5793 19.8795 33.7853 20.0855C33.9913 20.1885 34.1973 20.4975 34.4033 20.7035C34.6093 20.9095 34.7123 21.2185 34.9183 21.5275C35.0213 21.8365 35.2273 22.1455 35.4333 22.5575L36.8753 25.8535C36.9783 26.1625 37.0813 26.3686 37.0813 26.5746C36.7723 26.8836 36.7723 26.9866 36.7723 27.0896ZM32.3433 15.6565C32.3433 15.1415 32.2403 14.6265 32.0343 14.2145C31.8283 13.9055 31.4163 13.5965 30.7983 13.3905C30.6953 13.3905 30.4893 13.2874 30.1803 13.2874C29.9743 13.2874 29.6653 13.2874 29.2533 13.2874H27.7082V18.0255H29.4593C29.9743 18.0255 30.3863 18.0255 30.6953 17.9225C31.0043 17.8195 31.3133 17.6135 31.6223 17.4075C31.8283 17.2015 32.0343 16.9955 32.1373 16.6865C32.2403 16.3775 32.3433 16.0685 32.3433 15.6565Z" fill="#E30613"/>
<path d="M54.18 18.8493C54.18 20.1883 54.077 21.5274 53.665 22.5574C53.356 23.6904 52.841 24.6174 52.12 25.3384C51.5019 26.0594 50.5749 26.6774 49.5449 27.0894C48.5149 27.5014 47.3819 27.7074 46.0429 27.7074C44.7039 27.7074 43.5709 27.6044 42.6439 27.1924C41.7169 26.8834 40.8929 26.3684 40.1719 25.6474C39.5539 24.9264 39.0389 24.1024 38.7298 22.9694C38.4208 21.9394 38.2148 20.6003 38.2148 19.0553C38.2148 17.7163 38.3178 16.4803 38.7298 15.3473C39.0389 14.3173 39.5539 13.2873 40.2749 12.5663C40.8929 11.8453 41.8199 11.2273 42.8499 10.8153C43.8799 10.4033 45.0129 10.1973 46.3519 10.1973C47.5879 10.1973 48.7209 10.3003 49.7509 10.7123C50.6779 11.0213 51.502 11.5363 52.223 12.2573C52.841 12.9783 53.356 13.8023 53.665 14.9353C53.974 16.1713 54.18 17.5103 54.18 18.8493ZM50.5749 19.0553C50.5749 18.2313 50.5749 17.4073 50.3689 16.6863C50.2659 15.9653 50.0599 15.3473 49.6479 14.8323C49.3389 14.3173 48.9269 13.9053 48.3089 13.6993C47.7939 13.3903 47.0729 13.2873 46.2489 13.2873C45.4249 13.2873 44.7039 13.3903 44.1889 13.6993C43.6739 14.0083 43.1589 14.4203 42.8499 14.9353C42.5409 15.4503 42.2319 16.0683 42.1289 16.7893C42.0259 17.5103 41.9229 18.2313 41.9229 19.0553C41.9229 19.9823 41.9229 20.8063 42.1289 21.5274C42.2319 22.2484 42.4379 22.8664 42.8499 23.3814C43.1589 23.8964 43.5709 24.3084 44.1889 24.5144C44.7039 24.7204 45.4249 24.9264 46.2489 24.9264C47.0729 24.9264 47.7939 24.8234 48.3089 24.5144C48.8239 24.2054 49.3389 23.7934 49.6479 23.2784C49.9569 22.7634 50.2659 22.1454 50.3689 21.4244C50.4719 20.7033 50.5749 19.8793 50.5749 19.0553Z" fill="#E30613"/>
<path d="M70.969 18.85C70.969 20.395 70.7631 21.734 70.351 22.867C69.939 24 69.424 24.824 68.6 25.545C67.879 26.266 66.952 26.781 65.922 27.09C64.892 27.399 63.553 27.605 62.008 27.605H57.9909C57.6819 27.605 57.4759 27.502 57.2699 27.399C57.0639 27.296 56.9609 26.987 56.9609 26.575V11.7429C56.9609 11.4339 57.0639 11.1249 57.2699 10.9189C57.4759 10.8159 57.6819 10.7129 57.9909 10.7129H62.317C63.759 10.7129 65.098 10.8159 66.128 11.2279C67.158 11.5369 68.085 12.0519 68.806 12.7729C69.527 13.4939 70.042 14.3179 70.454 15.3479C70.763 16.3779 70.969 17.5109 70.969 18.85ZM67.467 18.953C67.467 18.1289 67.364 17.4079 67.261 16.6869C67.055 16.0689 66.746 15.4509 66.334 14.9359C65.922 14.4209 65.407 14.0089 64.789 13.8029C64.171 13.5969 63.347 13.3909 62.214 13.3909H60.463V24.824H62.214C63.141 24.824 63.965 24.721 64.583 24.515C65.201 24.309 65.716 23.897 66.231 23.382C66.643 22.867 66.952 22.249 67.158 21.528C67.364 20.807 67.467 19.983 67.467 18.953Z" fill="#E30613"/>
<path d="M87.5507 21.219C87.5507 22.249 87.4477 23.176 87.1387 24C86.8297 24.824 86.4177 25.545 85.7997 26.06C85.1817 26.575 84.4606 26.987 83.6366 27.296C82.8126 27.605 81.7826 27.708 80.6496 27.708C79.6196 27.708 78.6926 27.605 77.7656 27.296C76.9416 27.09 76.2206 26.678 75.6026 26.06C75.0876 25.545 74.5726 24.824 74.2636 24.103C73.9546 23.279 73.8516 22.352 73.8516 21.322V11.1249C73.8516 11.0219 73.8516 11.0219 73.9546 10.9189C73.9546 10.9189 74.0576 10.8159 74.1606 10.8159C74.2636 10.8159 74.4696 10.7129 74.6756 10.7129C74.8816 10.7129 75.1906 10.7129 75.4996 10.7129C75.8086 10.7129 76.1176 10.7129 76.3236 10.7129C76.5296 10.7129 76.7356 10.7129 76.8386 10.8159C76.9416 10.8159 77.0446 10.9189 77.0446 10.9189C77.0446 10.9189 77.1476 11.0219 77.1476 11.1249V21.013C77.1476 21.631 77.2506 22.249 77.3536 22.764C77.4566 23.279 77.7656 23.691 78.0746 24C78.3836 24.309 78.6926 24.515 79.2076 24.721C79.6196 24.824 80.1346 24.927 80.6496 24.927C81.1646 24.927 81.6796 24.824 82.0916 24.721C82.5036 24.618 82.8126 24.309 83.1216 24C83.4306 23.691 83.6366 23.279 83.7396 22.867C83.8426 22.455 83.9456 21.94 83.9456 21.322V11.2279C83.9456 11.1249 83.9456 11.1249 84.0486 11.0219C84.0486 11.0219 84.1516 10.9189 84.2547 10.9189C84.3577 10.9189 84.5637 10.8159 84.7697 10.8159C84.9757 10.8159 85.2847 10.8159 85.5937 10.8159C85.9027 10.8159 86.2117 10.8159 86.4177 10.8159C86.6237 10.8159 86.8297 10.8159 86.9327 10.9189C87.0357 10.9189 87.1387 11.0219 87.1387 11.0219C87.1387 11.0219 87.2417 11.1249 87.2417 11.2279L87.5507 21.219Z" fill="#E30613"/>
<path d="M103.411 26.9866C103.411 27.0896 103.411 27.1926 103.411 27.1926C103.411 27.1926 103.308 27.2956 103.205 27.3986C103.102 27.3986 102.896 27.5016 102.69 27.5016C102.484 27.5016 102.175 27.5016 101.866 27.5016C101.351 27.5016 100.939 27.5016 100.63 27.5016C100.424 27.5016 100.218 27.3986 100.115 27.2956C100.012 27.1926 99.9095 27.0896 99.9095 26.9866L94.8624 18.9525V26.9866C94.8624 27.0896 94.8624 27.0896 94.7594 27.1926C94.7594 27.1926 94.6564 27.2956 94.5534 27.2956C94.4504 27.2956 94.2444 27.3986 94.0384 27.3986C93.8324 27.3986 93.5234 27.3986 93.2144 27.3986C92.9054 27.3986 92.5964 27.3986 92.3904 27.3986C92.1844 27.3986 91.9784 27.3986 91.8754 27.2956C91.7724 27.2956 91.6694 27.1926 91.6694 27.1926C91.6694 27.1926 91.5664 27.0896 91.5664 26.9866V11.2274C91.5664 11.1244 91.5664 11.1244 91.6694 11.0214C91.6694 11.0214 91.7724 10.9184 91.8754 10.9184C91.9784 10.9184 92.1844 10.8154 92.3904 10.8154C92.5964 10.8154 92.9054 10.8154 93.2144 10.8154C93.5234 10.8154 93.8324 10.8154 94.0384 10.8154C94.2444 10.8154 94.4504 10.8154 94.5534 10.9184C94.6564 10.9184 94.7594 11.0214 94.7594 11.0214C94.7594 11.0214 94.8624 11.1244 94.8624 11.2274V18.3345L99.8065 11.2274C99.8065 11.1244 99.9095 11.0214 100.012 11.0214C100.115 11.0214 100.218 10.9184 100.321 10.9184C100.424 10.9184 100.63 10.9184 100.836 10.8154C101.042 10.8154 101.351 10.8154 101.66 10.8154C101.969 10.8154 102.278 10.8154 102.484 10.8154C102.69 10.8154 102.896 10.8154 102.999 10.9184C103.102 10.9184 103.205 11.0214 103.205 11.0214C103.308 11.0214 103.309 11.1244 103.309 11.2274C103.309 11.3304 103.308 11.5364 103.205 11.6394C103.102 11.7424 102.999 12.0514 102.793 12.3604L98.0555 18.5405L103.102 26.1625C103.308 26.4716 103.411 26.7806 103.411 26.8836V26.9866Z" fill="#E30613"/>
<path d="M116.906 12.154C116.906 12.36 116.906 12.566 116.906 12.772C116.906 12.875 116.906 13.081 116.803 13.184C116.803 13.287 116.7 13.39 116.7 13.39C116.7 13.39 116.597 13.493 116.494 13.493H112.271V27.0891C112.271 27.1921 112.271 27.1921 112.168 27.2951C112.168 27.2951 112.065 27.3981 111.962 27.3981C111.859 27.3981 111.653 27.5011 111.447 27.5011C111.241 27.5011 110.932 27.5011 110.623 27.5011C110.314 27.5011 110.005 27.5011 109.799 27.5011C109.593 27.5011 109.387 27.5011 109.284 27.3981C109.181 27.3981 109.078 27.2951 109.078 27.2951C109.078 27.2951 108.975 27.1921 108.975 27.0891V13.493H104.752C104.649 13.493 104.649 13.493 104.546 13.39C104.546 13.39 104.443 13.287 104.443 13.184C104.443 13.081 104.443 12.978 104.34 12.772C104.34 12.669 104.34 12.36 104.34 12.154C104.34 11.948 104.34 11.742 104.34 11.536C104.34 11.33 104.34 11.227 104.443 11.124C104.443 11.021 104.546 10.918 104.546 10.918C104.649 10.918 104.649 10.918 104.752 10.918H116.391C116.494 10.918 116.494 10.918 116.597 10.918C116.597 10.918 116.7 11.021 116.7 11.124C116.7 11.227 116.7 11.33 116.803 11.536C116.906 11.639 116.906 11.845 116.906 12.154Z" fill="#E30613"/>
</svg>
