<svg width="61" height="79" viewBox="0 0 61 79" fill="none" xmlns="http://www.w3.org/2000/svg">
<path d="M59.4244 50.9287C59.0689 53.2498 58.669 55.758 58.3134 58.2772C57.8691 61.4454 56.0693 63.9646 54.0695 66.2418C51.6809 68.97 48.9035 71.2801 45.5261 72.9523C40.6045 75.3944 35.3718 76.3625 30.0391 76.6265C22.7623 76.9786 16.2742 74.7454 10.486 70.1581C6.33095 66.8688 4.16455 62.4575 2.03148 57.9252C1.66486 57.1551 1.4871 56.1871 1.56487 55.34C1.84261 52.2158 1.73152 48.9045 2.77583 46.0333C4.13122 42.3151 5.20887 38.4648 7.47525 35.0105C9.90829 31.3253 12.7302 28.157 16.3408 25.7149C19.4738 23.5917 22.9511 22.1506 26.8173 21.8976C27.4061 21.8646 28.0061 21.8426 28.5949 21.7436C37.716 20.2035 45.0262 23.8447 51.5365 29.6532C55.3916 33.0854 57.058 37.7497 58.269 42.5241C58.9578 45.1643 59.0467 47.9475 59.4244 50.9287ZM57.358 50.7087C57.5691 43.6902 55.6249 37.2327 50.8144 31.8203C46.4594 26.914 40.8378 23.8447 34.3386 23.3167C28.1949 22.8217 22.4067 24.6368 17.4296 28.5751C11.597 33.1844 7.68634 39.2018 5.06444 45.9123C3.89792 48.9045 3.43131 52.5898 3.9979 55.725C5.4755 63.8216 10.6637 69.476 18.2628 72.5452C26.7618 75.9665 35.3385 75.3834 43.6375 71.5662C52.4919 67.4849 57.6913 60.9394 57.358 50.7087Z" fill="#EB584A"/>
<path d="M11.5307 55.3607C11.6841 56.5386 11.9531 57.8361 12.7013 58.7901C13.7374 60.1021 15.4971 60.6638 17.1423 61.0471C22.1333 62.3743 27.1244 63.7016 32.2524 64.0913C37.3804 64.4811 42.7033 63.9933 47.3511 61.8478C48.1254 61.5098 48.902 61.0544 49.2726 60.2388C49.5193 59.7147 49.5324 59.0687 49.5442 58.4814C49.573 51.1968 49.4248 43.909 49.0406 36.6167C49.0005 35.6759 48.9605 34.7352 48.6242 33.8476C48.0082 32.1911 46.5554 31.0476 45.0979 30.139C39.734 26.8073 33.1485 25.5089 26.9299 26.5087C22.1912 27.3013 13.4527 30.3101 11.5805 35.3276C10.6491 37.6015 10.9912 41.1329 10.886 43.4222C10.6874 47.4135 10.9019 51.4126 11.5307 55.3607Z" fill="white"/>
<path d="M10.9182 53.0976C10.9832 55.7409 11.0458 58.5016 12.475 60.7594C13.5339 60.8965 14.5939 60.975 15.6528 61.1121C16.0643 61.1785 16.536 61.1873 16.9522 61.0189C17.3095 60.8494 17.5536 60.4429 17.6786 60.093C18.1124 59.0442 18.0192 57.8095 17.8647 56.6911C17.347 53.0999 16.0569 49.7879 14.887 46.3608C14.2726 44.6466 13.7172 42.9336 13.2808 41.1641C12.9565 39.6902 13.1192 37.4621 12.2572 36.3305C10.0382 41.1037 10.786 47.9284 10.9182 53.0976Z" fill="#BCBCBB"/>
<path d="M41.5824 34.5056C40.219 34.774 38.6218 34.9204 37.6975 33.9039C37.0624 33.1867 37.0826 32.1879 36.9834 31.2456C36.8372 29.7147 36.3367 28.1772 35.6556 26.8126C37.9588 26.7969 40.3209 26.7823 42.4292 27.6447C43.893 28.2598 47.576 30.092 47.3599 32.0276C47.1378 34.2569 43.182 34.2417 41.5824 34.5056Z" fill="#BCBCBB"/>
<path d="M39.5282 75.6676C40.1221 75.5022 40.716 75.3368 41.1386 74.8741C41.6829 74.2371 41.5849 73.2352 41.8376 72.4163C42.2815 70.8951 43.7774 69.9229 44.3382 68.4627C44.4008 68.2874 44.4645 68.0533 44.4102 67.8169C44.2992 67.4619 43.9498 67.22 43.598 67.0958C39.3206 65.4275 34.5603 67.2211 29.9571 67.0763C27.2428 66.9668 23.4837 65.9553 21.1968 68.0893C19.3917 69.7616 19.3338 72.6431 21.0114 74.3805C24.9464 78.3955 34.7219 76.8132 39.5282 75.6676Z" fill="white"/>
<path d="M49.1339 59.7558C48.4336 59.5066 48.4452 59.0384 48.52 58.3959C48.7434 54.1261 48.9682 49.7978 49.1916 45.528C49.291 43.8905 49.2727 42.2506 49.3162 40.4948C48.6072 40.5968 48.0747 40.7025 47.6011 40.8095C43.2753 41.9466 38.9524 42.9667 34.4704 43.2807C31.5211 43.5103 28.5776 43.5059 25.5753 43.5002C21.455 43.4706 17.4008 43.1497 13.4213 42.1862C13.0697 42.1201 12.7167 42.1125 12.1886 42.0427C12.1509 43.5643 11.9985 44.9664 12.0225 46.3723C12.0852 48.5987 12.1493 50.7667 12.2722 52.9359C12.3479 54.6356 12.5398 56.3964 12.6743 58.0974C12.7173 58.7425 12.7616 59.329 11.988 59.6637C11.4671 59.3013 11.2448 58.7695 11.2019 58.1245C11.0949 55.3115 11.0467 52.4998 10.9382 49.7453C10.7724 46.9311 10.5492 44.0571 10.3274 41.1245C8.5062 40.9685 6.80127 40.8734 5.09778 40.7199C4.68734 40.6525 4.27546 40.6437 3.86647 40.5178C2.05399 40.0106 1.82442 39.7715 1.34409 37.7703C2.98059 35.873 5.12348 34.9234 7.65508 34.919C7.94929 34.9253 8.24494 34.873 8.4803 34.8781C10.356 35.211 11.6191 34.1255 12.6498 32.9178C14.3452 31.0218 16.2098 29.4221 18.5307 28.4177C19.6617 27.9149 20.9075 27.5317 22.0944 27.1472C22.8666 26.8709 23.2901 26.4116 23.6605 25.7168C25.0761 23.2292 26.7787 21.0405 29.8013 20.2268C31.4016 19.7926 33.0477 19.8864 34.5042 20.5031C35.7268 21.0563 36.7025 22.0726 37.1385 23.4873C37.355 24.2531 37.5715 25.019 37.7852 25.9019C40.1374 26.0108 42.3487 27.0536 44.4423 28.0938C46.5963 29.0768 48.6253 30.3499 50.0485 32.3127C49.8016 32.7758 49.5001 33.0622 49.4311 33.4706C49.3019 33.9363 49.0636 34.0483 48.6488 34.1565C47.9972 34.3182 47.4016 34.5983 46.8074 34.8198C45.8573 35.1508 45.7367 35.2653 45.8297 36.2628C45.9156 37.5528 46.1191 38.8454 46.2652 40.0782C46.4991 40.1418 46.5565 40.2016 46.6742 40.2041C49.813 39.4515 49.1469 40.1984 49.7045 36.697C49.7074 36.58 49.7118 36.4044 49.7147 36.2873C49.7639 34.2975 49.9448 34.1257 51.8996 33.6405C54.15 33.1031 56.3802 33.385 58.5399 34.1339C60.1744 34.6959 60.3736 36.164 59.0515 37.2483C58.6912 37.5334 58.2721 37.8172 57.8573 37.9254C55.782 38.5252 53.7611 39.3017 51.5782 39.4892C51.106 39.5377 50.6898 39.7044 50.2147 39.8699C50.1313 40.8636 49.9919 41.739 49.9701 42.6168C49.7323 47.4719 49.5532 52.3282 49.3742 57.1845C49.2907 58.1782 49.1527 58.995 49.1339 59.7558ZM35.6394 26.9686C35.1127 26.8402 34.6449 26.7131 34.1785 26.5274C33.3046 26.1574 32.3646 26.0787 31.4217 26.1171C29.8301 26.2001 28.2915 26.5186 26.6941 26.8357C25.9249 26.9949 25.2188 26.9798 24.9014 27.9099C24.8382 28.0842 24.5971 28.3133 24.4191 28.3681C23.4704 28.6405 22.5174 29.0886 21.4081 28.7135C20.9417 28.5279 20.2298 28.7469 19.637 28.9099C19.1634 29.0168 18.7443 29.3006 18.3281 29.4674C16.1823 30.5341 14.378 32.0765 12.7989 34.0336C13.2078 34.1594 13.4991 34.2828 13.7919 34.3476C15.847 34.5672 17.9021 34.7869 19.9586 34.948C21.134 35.0317 22.3079 35.1739 23.4862 35.1406C27.6668 35.1129 31.8473 35.0853 36.0294 34.9991C36.9723 34.9607 37.9166 34.8638 38.861 34.7669C39.8656 34.6127 40.9291 34.4598 41.9352 34.2471C43.9474 33.8217 45.961 33.3378 47.9761 32.7953C48.2129 32.7418 48.4526 32.5713 48.6923 32.4008C47.8546 30.5676 43.2684 27.9516 40.1585 27.5337C40.0983 27.591 40.0365 27.7068 39.9159 27.8213C39.1867 28.7426 38.9499 28.7961 37.8994 28.4223C37.6081 28.2989 37.3183 28.117 36.9652 28.1095C36.1414 28.0919 35.6794 27.7306 35.6394 26.9686ZM15.3299 36.43C15.0482 38.2977 15.3019 39.9427 15.7291 41.7086C18.7213 42.1239 21.5929 42.6538 24.5967 42.601C26.128 42.5752 27.5962 42.7237 29.1275 42.6979C31.4237 42.6885 33.7185 42.7376 36.0205 42.494C38.4402 42.253 40.8687 41.6609 43.2339 41.243C43.7663 41.1373 44.3017 40.9145 44.7768 40.749C44.7599 39.0506 44.5622 37.5239 44.1894 35.9349C43.657 36.0406 43.2436 36.0903 42.8289 36.1986C38.8089 36.8738 34.7344 37.3722 30.6169 37.2255C26.4392 37.1361 22.2688 36.7541 18.0954 36.4891C17.2143 36.4117 16.3302 36.4514 15.3299 36.43ZM35.0182 25.9013C35.3828 25.4406 35.2738 25.0869 34.8678 24.844C34.3469 24.4816 33.8834 24.1789 33.3625 23.8164C31.6837 22.6679 30.0332 22.7497 28.4141 23.9447C27.5156 24.5696 26.6744 25.2543 25.9996 26.3524C29.1356 25.7168 32.0434 24.7836 35.0182 25.9013ZM50.4608 37.0645C52.9866 37.2942 56.899 36.2068 57.6944 34.9942C56.1173 34.492 54.5358 34.1654 52.8839 34.3057C50.7025 34.4347 50.4584 34.7808 50.4608 37.0645ZM15.1996 41.6972C15.0708 39.7621 14.8775 38.0599 14.7444 36.3003C14.5693 36.238 14.2766 36.1732 13.925 36.1071C13.6491 37.7408 14.1998 39.275 13.9856 40.7929C13.8164 40.4965 13.7648 40.2026 13.7132 39.9087C13.623 38.7943 13.474 37.6785 13.325 36.5627C13.2232 35.9165 12.9392 35.5005 12.2258 35.778C12.1853 37.4167 12.1447 39.0554 12.1013 40.8111C13.1532 41.1264 14.0888 41.3807 15.1996 41.6972ZM4.78003 36.9069C6.04267 38.2222 8.55834 38.8616 10.3925 38.4909C10.4099 37.7886 10.4861 37.0876 10.5638 36.328C8.51742 35.7572 6.7435 36.0706 4.78003 36.9069ZM45.1901 40.6993C45.6092 40.4155 45.7872 40.3608 45.7886 40.3022C45.6512 38.7183 45.5153 37.0758 45.3851 35.1992C45.0822 35.5441 44.7233 35.7706 44.7793 35.889C44.8579 37.4716 44.9982 38.9385 45.1901 40.6993ZM57.4628 37.2143C58.9483 36.6606 58.9483 36.6606 58.7347 35.7776C58.3715 36.1798 58.0083 36.5819 57.4628 37.2143ZM3.65862 39.4008C3.71891 39.3436 3.72181 39.2265 3.7821 39.1693C3.60992 38.9899 3.43774 38.8105 3.20528 38.6885C3.08904 38.6274 2.90962 38.7407 2.78905 38.8552C2.72876 38.9125 2.7818 39.1479 2.89804 39.2089C3.13195 39.2725 3.36587 39.336 3.65862 39.4008Z" fill="black"/>
<path d="M27.4194 66.2201C28.0544 66.7602 28.5745 67.1808 29.1521 67.6612C29.9309 67.151 30.53 66.7541 31.2485 66.3011C31.5358 66.5998 31.8232 66.8985 32.168 67.2569C32.3461 67.2021 32.6421 67.1499 32.8821 66.9794C33.3634 66.58 33.8361 66.5315 34.4195 66.7779C34.829 66.9036 35.3606 66.8563 35.7773 66.6896C37.0848 66.2492 37.0862 66.1907 38.125 67.0904C38.7787 66.8702 39.4311 66.7085 40.0863 66.4297C40.6826 66.1498 41.1524 66.2182 41.6121 66.6961C42.2458 67.2947 43.0058 67.5448 43.9512 67.4478C44.5418 67.4018 45.1265 67.5897 45.6553 67.6595C45.9297 68.4845 45.3937 68.7072 44.9742 68.9909C44.0158 69.6143 42.9985 70.2365 41.9798 70.9171C42.0774 71.7384 42.178 72.4427 42.2771 73.2055C42.3245 73.6747 42.3129 74.1426 42.2425 74.6092C42.1462 76.1286 41.9062 76.2991 40.3056 76.6748C35.6215 77.8045 30.8557 77.4695 26.1487 77.1358C25.1487 77.0561 24.0955 76.7413 23.1602 76.4289C22.1084 76.0555 21.5984 75.2255 21.6847 74.1155C21.7164 72.8288 21.3299 71.7673 20.8271 70.6448C20.4923 69.877 20.3947 69.0557 20.297 68.2344C20.1965 67.5301 20.4968 67.3024 21.2051 67.2589C21.6778 67.2103 22.1491 67.2203 22.6204 67.2303C23.3273 67.2453 23.7454 67.0201 23.8245 66.2025C23.8302 65.9686 24.0716 65.7396 24.257 65.3924C24.6607 65.7521 24.9481 66.0507 25.2369 66.2909C26.1003 67.1284 26.1592 67.1297 27.1205 66.3893C27.1823 66.2736 27.3605 66.2188 27.4194 66.2201ZM24.4262 72.8861C24.4161 73.2955 24.4118 73.471 24.4075 73.6465C24.5884 75.8739 24.9936 76.1751 27.1732 76.2212C29.1172 76.2624 31.1172 76.4218 33.0627 76.4044C34.9492 76.3859 36.8314 76.5427 38.7352 75.8223C38.7008 74.8268 38.6663 73.8313 38.6951 72.6616C33.8675 72.4423 29.205 72.6947 24.4262 72.8861ZM30.9208 67.6401C29.0716 68.5372 29.0716 68.5372 27.3834 67.6822C26.2339 68.8868 25.5084 67.2329 24.3891 67.2092C24.1448 67.5552 23.7827 67.8986 23.5399 68.186C22.6548 68.2258 21.8876 68.2681 21.1806 68.2531C21.1547 69.3059 21.3127 70.0699 22.0081 70.5528C23.603 70.411 25.1375 70.3265 26.616 70.1237C28.8632 69.8202 31.0989 69.9845 33.3977 69.9747C34.8116 70.0046 36.2211 70.21 37.5731 70.3557C38.1206 69.6651 38.4913 68.9707 39.4425 68.6397C39.0732 69.2756 38.8275 69.68 38.5803 70.1429C38.6378 70.2027 38.6952 70.2624 38.7527 70.3221C39.2297 70.0982 39.7068 69.8742 40.2442 69.593C40.1694 70.2351 40.5157 70.535 40.9309 70.4268C41.5243 70.2638 42.0631 69.9241 42.5431 69.5831C43.023 69.2422 43.6738 69.1389 43.8061 68.5566C43.046 68.3064 42.2242 68.172 41.7041 67.7514C40.8363 67.0893 40.0115 67.0718 39.1149 67.5795C38.2198 68.0287 37.4496 68.1879 36.7658 67.2372C35.8131 67.6266 34.9194 68.0173 33.9855 67.6465C33.7513 67.583 33.395 67.6925 33.1565 67.8045C32.2584 68.3706 31.5558 68.1802 30.9208 67.6401ZM39.1133 72.4364C39.1994 73.7256 38.7022 74.7683 39.6174 75.8995C39.8028 75.5524 40.1031 75.3246 40.1088 75.0907C40.1362 73.9795 39.8647 73.0374 39.1133 72.4364ZM40.5082 75.6258C41.3632 74.4151 41.3891 73.3623 40.6435 72.5273C40.2066 73.5128 40.4192 74.4536 40.5082 75.6258ZM23.0726 75.1982C23.5181 73.8617 23.5181 73.8617 22.8888 73.0877C22.9864 73.909 23.0295 74.5536 23.0726 75.1982ZM24.0683 75.4533C24.1272 75.4546 24.1875 75.3973 24.2465 75.3986C24.1387 74.9867 24.031 74.5748 23.9232 74.1629C23.8643 74.1616 23.804 74.2189 23.7451 74.2176C23.8528 74.6295 23.9605 75.0414 24.0683 75.4533Z" fill="black"/>
<path d="M49.2985 59.8385C49.7143 59.7295 50.1301 59.6205 50.5459 59.5115C50.605 59.5126 50.7216 59.5736 50.9549 59.6955C50.771 59.985 50.6434 60.3929 50.3457 60.5042C47.7699 62.0949 45.0788 63.5661 42.1145 64.0937C37.4911 64.8815 32.7579 65.3155 28.041 65.0461C25.6243 64.881 23.268 64.6584 20.9225 63.967C18.2834 63.2111 15.6484 62.2794 13.1383 61.0571C12.555 60.7523 12.555 60.7523 12.5756 59.8733C13.5692 60.3034 14.5052 60.6737 15.4411 61.044C18.54 62.3367 21.643 63.4536 24.9998 63.8132C29.4751 64.3123 33.9023 64.3414 38.346 63.6672C39.7087 63.4597 41.0715 63.2521 42.3752 63.0434C44.3308 62.7304 46.1175 62.0622 47.6806 60.8619C48.2789 60.5219 48.7592 60.1797 49.2985 59.8385Z" fill="black"/>
<path d="M54.5177 65.0017C56.0222 68.3734 55.8779 71.8269 55.7306 75.3975C54.9679 75.3225 54.9192 74.9114 54.9308 74.4429C54.954 73.506 55.036 72.5704 55.0005 71.6323C54.8618 70.1061 54.6644 68.5786 54.3494 67.0486C54.0859 65.8126 53.911 65.7503 52.7353 65.7251C50.1487 65.6695 47.5622 65.6139 44.9756 65.5584C44.5053 65.5483 44.0307 65.7138 43.6279 65.3537C44.4095 64.6674 45.6483 64.5183 49.0564 64.6501C50.8774 64.7478 52.6968 64.904 54.5177 65.0017Z" fill="black"/>
<path d="M21.257 64.8222C20.9574 65.0501 20.715 65.3379 20.5387 65.3341C18.4731 65.6413 16.3502 65.8886 14.2846 66.1957C13.2225 66.3487 12.2147 66.6786 11.1496 66.9486C10.4988 67.1104 10.0758 67.5701 10.0011 68.213C9.9177 69.2073 9.83282 70.2601 9.80816 71.2556C9.7748 72.6026 9.85898 73.952 9.94171 75.36C9.1175 75.4009 9.01157 74.9299 8.96876 74.2844C8.92884 73.5219 8.89038 72.7007 8.91069 71.8809C8.94695 70.4168 8.74959 68.8892 9.19722 67.434C9.45115 66.6777 9.75805 66.157 10.5837 66.0576C12.1777 65.7989 13.8305 65.5414 15.4259 65.2242C16.7848 64.9604 18.2025 64.698 19.5614 64.4342C20.0918 64.387 20.5648 64.28 21.257 64.8222Z" fill="black"/>
<path d="M36.2103 1.30357C35.7937 1.58787 35.3173 1.92953 34.9007 2.21383C33.236 3.2924 31.7423 4.55062 30.4769 6.04836C30.357 6.16309 30.2372 6.27781 30.1759 6.3938C28.665 8.35548 29.164 9.48063 31.1379 10.1096C31.4274 10.2332 31.717 10.3567 32.005 10.5389C33.1003 11.2076 33.4167 12.6221 32.6891 13.6622C32.2026 14.4142 30.0014 15.8918 28.7662 16.1585C28.9488 15.8692 29.0144 15.5773 29.1928 15.4638C29.6692 15.1222 30.2042 14.7818 30.6806 14.4401C31.0972 14.1558 31.5137 13.8715 31.8747 13.4687C32.6565 12.6057 32.3928 11.427 31.3531 10.8768C30.7755 10.5711 30.1366 10.3814 29.559 10.0757C28.3453 9.463 28.0174 8.5175 28.6324 7.29903C28.8778 6.83508 29.1232 6.37114 29.4827 6.02696C30.985 4.41702 32.4872 2.80707 34.557 1.91317C35.1476 1.69127 35.5641 1.40697 36.0976 1.12519C36.0962 1.18381 36.1532 1.24369 36.2103 1.30357Z" fill="#F15748"/>
<path d="M22.9365 4.20948C22.8137 4.44142 22.8108 4.55865 22.7523 4.55739C20.6277 5.21537 19.5293 7.00975 18.4324 8.74551C17.5797 10.076 17.738 10.7832 19.1856 11.4595C20.1121 11.8899 21.1029 12.0872 22.0908 12.4018C22.5562 12.5291 23.1416 12.5417 23.547 12.7264C24.3579 13.0957 24.5762 13.7455 24.1462 14.5573C23.6563 15.4264 22.9936 16.1746 21.8042 16.9113C21.9342 16.3863 21.8829 16.092 22.0043 15.9187C22.427 15.4 22.9069 14.9411 23.271 14.4212C23.6352 13.9012 23.5268 13.547 23.0058 13.3012C22.716 13.1776 22.3662 13.1114 22.0749 13.0465C20.613 12.9564 19.2796 12.3998 18.0705 11.5527C17.1483 10.9464 16.8715 10.2953 17.3058 9.3077C18.1071 7.68286 19.1983 6.18157 20.5178 4.91978C21.1161 4.40485 21.8858 4.06955 22.9365 4.20948Z" fill="#F15748"/>
<path d="M44.4458 3.10596C43.083 3.89799 41.9481 4.92957 40.8687 6.07966C40.628 6.36781 40.329 6.65471 40.1467 6.94412C38.8821 8.50088 39.0928 9.44402 40.8227 10.3611C40.995 10.4821 41.227 10.5458 41.4577 10.6681C42.9541 11.5802 43.26 13.4053 42.1165 14.7887C41.2749 15.7679 40.1528 16.2718 38.7901 17.0638C38.9767 16.5985 38.9838 16.3053 39.1035 16.1906C39.6389 15.7914 40.1729 15.4509 40.7652 15.1116C42.6036 13.9778 42.5867 12.2762 40.7457 11.1221C40.4012 10.88 39.9968 10.6954 39.6508 10.5119C38.3281 9.66226 38.0606 8.65923 38.9107 7.32822C39.882 5.82382 41.2504 4.79726 42.6758 3.83058C43.1557 3.31291 43.6897 2.9724 44.4458 3.10596Z" fill="#F15748"/>
<path d="M13.3957 52.1449C13.478 53.5549 13.559 55.0235 13.6342 56.7267C13.9997 56.0891 14.2415 55.7423 14.5459 55.2207C15.2255 56.0567 15.0861 56.9926 15.2411 57.8174C15.3448 58.3477 15.4529 58.7021 16.0914 58.8331C15.9065 59.2399 15.7244 59.5294 15.5409 59.8775C15.3689 59.7564 15.1954 59.694 15.1399 59.5755C15.0362 59.0452 14.9338 58.4562 14.8301 57.9259C14.7249 57.4542 14.6794 56.9252 14.4576 56.451C13.9072 57.4954 14.1119 58.6733 13.7349 59.7801C13.3299 57.2483 13.0414 54.719 13.3957 52.1449Z" fill="black"/>
<path d="M47.3898 60.3242C47.3399 57.1534 47.2323 53.9815 47.1824 50.8106C47.2402 50.8117 47.3569 50.7551 47.4147 50.7561C47.5267 50.9342 47.6951 51.172 47.6915 51.3481C47.6757 52.1109 47.6611 52.8151 47.6453 53.578C47.5991 55.8079 47.5528 58.0377 47.5054 60.3263C47.4488 60.2666 47.3898 60.3242 47.3898 60.3242Z" fill="black"/>
<path d="M46.1708 54.2525C46.3032 56.0163 46.4919 57.8398 46.6243 59.6036C45.9158 57.828 45.7834 56.0643 46.1708 54.2525Z" fill="black"/>
<path d="M24.5944 30.3583C24.1185 30.5824 23.6426 30.8066 23.2254 31.032C23.1449 31.9092 23.9161 31.6328 24.1983 32.1076C23.9604 32.2197 23.721 32.3903 23.4228 32.5597C23.5918 32.8563 23.8196 33.1542 24.1018 33.6291C22.9251 33.6623 21.9261 33.6408 21.0534 33.2705C21.0563 33.1533 21.0577 33.0948 21.0606 32.9777C21.5895 32.989 22.1169 33.059 22.6444 33.1289C22.7046 33.0716 22.7662 32.9558 22.7677 32.8972C22.1888 32.5332 21.5525 32.1093 20.9736 31.7453C21.0338 31.688 21.0367 31.5708 21.0969 31.5135C21.5656 31.5822 21.9769 31.5911 22.4456 31.6597C22.5747 31.1938 22.6422 30.8436 22.7713 30.3776C23.3618 30.2731 23.9524 30.1687 24.5414 30.1227C24.54 30.1813 24.5385 30.2399 24.5944 30.3583Z" fill="black"/>
<path d="M36.8537 31.8233C37.2729 31.5396 37.6892 31.3729 38.0481 31.1464C38.3896 31.6221 38.3795 32.0318 37.9603 32.3155C37.4822 32.598 37.1364 32.2978 36.8537 31.8233Z" fill="black"/>
</svg>
