<svg width="59" height="57" viewBox="0 0 59 57" fill="none" xmlns="http://www.w3.org/2000/svg">
<path d="M57.8945 29.9993C57.5455 32.2778 57.1529 34.7398 56.8039 37.2126C56.3677 40.3226 54.6011 42.7954 52.6381 45.0306C50.2935 47.7086 47.5672 49.9763 44.2519 51.6176C39.4209 54.0149 34.2845 54.9651 29.05 55.2243C21.907 55.5698 15.5383 53.3778 9.85665 48.8749C5.77807 45.6461 3.65153 41.316 1.55772 36.8671C1.19784 36.1112 1.02336 35.161 1.09969 34.3295C1.37233 31.2627 1.26327 28.0124 2.28837 25.1941C3.61882 21.5442 4.67663 17.7648 6.90131 14.3741C9.28957 10.7567 12.0595 7.64676 15.6037 5.24953C18.679 3.16545 22.0924 1.75087 25.8874 1.50251C26.4654 1.47011 27.0543 1.44851 27.6323 1.35133C36.5855 -0.160441 43.7612 3.41381 50.1517 9.11534C53.9359 12.4844 55.5716 17.0629 56.7603 21.7494C57.4365 24.341 57.5237 27.073 57.8945 29.9993ZM55.8661 29.7834C56.0733 22.894 54.1649 16.5554 49.4429 11.2426C45.168 6.42655 39.6499 3.41381 33.2703 2.89549C27.2397 2.40957 21.558 4.19129 16.6725 8.0571C10.9472 12.5816 7.10851 18.4883 4.53486 25.0753C3.38981 28.0124 2.93178 31.6299 3.48795 34.7074C4.93836 42.655 10.0311 48.2054 17.4904 51.2181C25.8329 54.5764 34.2518 54.0041 42.398 50.257C51.0896 46.2509 56.1932 39.8258 55.8661 29.7834Z" fill="#EB584A"/>
<path d="M30.138 0.671561C31.8828 0.207231 33.7695 0.73635 35.2853 1.7082C36.8011 2.68006 37.9898 4.05145 39.113 5.45524C37.1283 5.82238 35.4707 7.24777 34.4347 8.95391C33.3987 10.6601 32.9188 12.647 32.6026 14.6231C31.6865 20.3246 32.0137 26.1341 32.3518 31.9004C32.4935 34.2869 32.6244 36.6625 32.7662 39.049C32.8534 40.5607 32.9734 42.1697 33.8458 43.4115C34.7509 44.6857 36.2886 45.3444 37.7281 45.9815C41.7739 47.774 45.678 49.8797 49.3967 52.277C49.6694 52.4497 49.9529 52.6657 49.9965 52.9789C50.0619 53.5188 49.364 53.7995 48.8296 53.8751C45.3727 54.3718 41.8503 54.0695 38.3606 54.2639C30.4979 54.7174 22.4716 57.7085 14.9688 55.3653C15.2632 54.0155 16.6918 53.2704 17.9241 52.6225C20.4105 51.3159 22.7006 49.653 24.7072 47.6985C25.5578 46.867 26.3757 45.9599 26.7683 44.8369C27.0191 44.1242 27.0954 43.3575 27.1499 42.6016C27.608 36.9217 27.7825 31.2201 27.6734 25.5294C27.5643 20.0654 27.7388 13.8672 26.4193 8.55437C24.2819 8.65156 22.5261 7.43134 23.4967 5.09889C24.3037 3.12279 28.1532 1.20068 30.138 0.671561Z" fill="white"/>
<path d="M21.3157 32.4727C20.0507 32.8506 19.211 34.0276 18.6003 35.183C17.9896 36.3385 17.4662 37.6019 16.4738 38.4657C14.9034 39.8155 12.6133 39.8047 10.5849 40.2691C8.07673 40.8306 5.44856 40.3447 3.75824 38.1526C2.86401 36.9864 2.36237 34.8591 3.81277 33.898C5.48128 32.775 9.75615 33.6821 11.7191 33.6281C14.9362 33.5417 18.175 33.2717 21.3157 32.4727Z" fill="white"/>
<path d="M45.7016 40.3231C47.1848 41.1762 49.0605 41.1438 50.6854 40.6147C52.3212 40.0855 53.7607 39.1245 55.1674 38.1526C55.5818 37.861 56.0072 37.5695 56.3125 37.1699C56.7814 36.5436 56.9123 35.7337 57.0213 34.9562C57.1413 34.1355 57.2504 33.3256 57.3703 32.5049C57.3921 32.3645 57.403 32.2133 57.3376 32.0837C57.2613 31.9542 57.0977 31.8894 56.945 31.857C56.3452 31.7058 55.7345 31.695 55.1238 31.695C52.7901 31.6734 50.4563 31.7274 48.1335 31.8786C46.2469 31.9974 42.779 31.695 41.2195 32.9044C38.864 34.7186 43.8259 39.2432 45.7016 40.3231Z" fill="white"/>
<path d="M7.19184 41.0134C7.88978 41.2618 8.63134 41.4561 9.36199 41.3266C10.6379 41.0998 11.5867 39.7608 11.3795 38.5082C11.1177 36.9856 9.55829 36.0785 8.12969 35.4522C6.77744 34.8475 2.05544 32.2667 1.17211 34.7827C0.201537 37.5039 5.31613 40.3439 7.19184 41.0134Z" fill="#BCBCBB"/>
<path d="M46.5719 40.6791C47.5316 40.8627 48.5676 40.8627 49.4618 40.4523C50.356 40.042 51.0322 39.1133 50.9449 38.1415C50.8468 37.1264 49.9853 36.3598 49.1346 35.7874C47.3353 34.578 42.297 31.4357 40.9556 34.4916C39.5816 37.634 44.1509 40.2256 46.5719 40.6791Z" fill="#BCBCBB"/>
<path d="M50.6412 50.862C45.9519 48.9075 41.2845 46.899 36.5406 45.1173C34.1742 44.2318 33.9016 44.2102 33.7489 41.7698C33.1164 31.5869 33.1382 21.404 34.1088 11.232C34.2178 10.055 34.6758 8.91033 34.9267 7.91688C37.653 7.45255 40.0085 7.04221 42.3641 6.67507C42.8657 6.59948 43.4546 6.54548 43.8799 6.73985C45.2758 7.37696 46.6281 7.53894 47.9476 7.45255C47.9258 7.42015 47.8931 7.38776 47.8713 7.35536C47.7513 7.17179 47.6313 6.98822 47.5441 6.79385C47.4023 6.48069 47.2497 6.14594 47.1624 5.8004C46.4099 5.72481 45.6684 5.42245 44.9704 4.70976C44.7742 4.51539 44.4034 4.49379 44.1089 4.38581C40.2812 3.00362 36.4425 1.61063 32.4184 0.163646C32.3966 0.163646 32.3748 0.152848 32.3639 0.152848C32.2221 0.120453 32.0586 0.0988555 31.9059 0.0880572C31.5569 0.0556621 31.1971 0.0232673 30.8481 0.0124689C30.4664 0.00167051 30.0847 -0.00912786 29.6921 0.0124689C29.5067 0.0232673 29.3213 0.0340653 29.125 0.0448637C29.0814 0.0448637 28.9942 0.0556623 28.9178 0.0772591C28.6343 0.131251 28.3508 0.185243 28.0672 0.260831C27.8927 0.304025 27.7292 0.368815 27.5547 0.422807C27.522 0.433606 27.5002 0.433606 27.4783 0.444404C27.4674 0.444404 27.4674 0.444404 27.4565 0.455202C27.3911 0.487597 27.3257 0.530791 27.2602 0.563186C26.9985 1.00592 26.6386 1.39466 26.1152 1.72941C24.0977 3.00362 22.0693 4.27783 20.1718 5.71401C18.5033 6.97742 16.7475 7.56053 14.6646 7.25818C13.0179 7.02061 11.3167 7.04221 9.72451 6.64267C9.35373 6.54549 8.97205 6.4267 8.60127 6.29712C8.53583 6.36191 8.4704 6.4267 8.40497 6.48069C8.15415 6.84784 7.92514 7.21498 7.70703 7.60372C8.11053 7.71171 8.52493 7.7873 8.97205 7.83049C12.3636 8.12205 15.7333 9.30987 19.1685 8.17604C23.1926 9.33146 27.1621 8.12205 31.1534 7.90608C31.4261 7.89528 31.7096 8.10045 32.2222 8.29482C32.1676 20.0327 32.1131 31.8029 32.0586 43.7459C30.9244 43.7567 30.0302 43.7783 28.9069 43.7891C28.6343 42.1801 28.1327 40.6791 28.1545 39.189C28.2744 32.1916 28.5689 25.2051 28.7543 18.2185C28.8088 16.0804 28.7434 13.9424 28.667 11.8043C28.6561 11.4695 28.2962 11.1564 28.1436 10.8972C26.3878 11.0376 26.595 12.247 26.595 13.2189C26.5732 20.5186 26.5514 27.8291 26.6168 35.1288C26.6495 38.2819 25.8425 41.4998 27.5111 44.5666C23.716 48.3244 18.3179 49.7066 15.0245 53.8532C16.0714 53.6804 16.9111 53.1837 17.729 52.6761C20.9788 50.6352 24.2395 48.6267 27.4674 46.5427C29.0487 45.5168 30.6627 45.2792 32.5057 45.6032C37.7948 46.5211 42.6912 48.4756 47.3587 51.0348C47.7731 51.2615 48.1112 51.6287 49.0272 52.363C41.2408 53.3456 34.1197 54.3175 26.595 52.5466C25.9952 52.8165 25.0137 53.27 24.0432 53.7128L23.7924 53.324C24.3267 52.6329 24.872 51.931 25.4063 51.2399C23.6833 52.2442 21.0878 52.4818 21.5786 55.4945C22.6037 55.4837 23.5197 55.5053 24.4358 55.4621C28.1654 55.2785 31.895 55.095 35.6246 54.8682C40.1939 54.5982 44.7523 54.3283 49.3108 54.0043C50.554 53.9179 51.7972 53.6696 52.1243 51.9958C51.6118 51.5747 51.1865 51.0888 50.6412 50.862ZM21.186 7.31217C27.8491 1.1031 32.6366 -0.181902 38.8635 5.70321C33.0728 6.22153 27.293 6.75065 21.186 7.31217Z" fill="black"/>
<path d="M8.88402 6.55664C9.37476 7.16135 10.0073 7.70126 10.3453 8.37076C11.5558 10.822 12.7772 13.284 13.8023 15.8216C14.7947 18.2944 15.4599 20.886 16.4087 23.3696C17.2702 25.6373 18.2844 27.8618 19.3313 30.0538C19.6039 30.6369 20.2255 31.0473 20.8907 31.7708C20.171 33.0774 19.4403 34.5675 18.5679 35.9605C17.7282 37.2995 16.8558 38.6601 15.798 39.8263C13.8677 41.9536 8.66592 42.7311 5.5252 40.6578C3.70401 39.4592 2.14456 38.0338 0.999501 36.2413C0.454237 35.3882 0.19251 34.2868 0.0507409 33.2717C-0.00378551 32.8722 0.530574 32.0407 0.890448 31.9867C1.8283 31.8463 2.06822 31.2848 2.09003 30.5829C2.18818 27.3866 3.72582 24.5683 4.511 21.5663C5.23075 18.8451 6.08137 16.1672 6.79021 13.446C7.35728 11.2539 7.7935 9.01866 8.28423 6.805C8.46962 6.72941 8.67682 6.64303 8.88402 6.55664ZM18.7097 32.6022C15.449 32.775 12.6136 32.9262 9.77826 33.0774C6.99741 33.2285 4.15113 32.6994 1.32666 33.6605C1.77378 35.5178 2.75525 36.7704 4.21656 37.7746C5.75421 36.8568 7.11737 35.7445 9.36386 35.2154C7.62992 36.4572 6.354 37.3643 5.09989 38.2606C5.71059 39.4808 6.3649 39.1676 7.09556 38.7573C8.39329 38.023 9.73464 37.3427 11.0542 36.6408C11.1305 36.7704 11.2069 36.8892 11.2832 37.0187C9.99637 37.8718 8.72044 38.7249 7.39 39.6103C8.68773 40.6902 10.7706 40.9601 12.8863 40.1719C16.2669 38.9085 17.412 35.8849 18.7097 32.6022ZM18.0336 31.0689C17.6301 30.1942 17.3356 29.5895 17.063 28.974C16.4414 27.581 15.6453 26.2312 15.2527 24.7842C14.064 20.3677 12.6245 16.0592 10.498 11.9882C10.2799 11.5671 9.97455 11.1999 9.61468 10.66C9.12394 12.6901 10.4653 29.4599 11.2614 31.7708C13.3988 31.6736 15.6017 31.9219 18.0336 31.0689ZM8.10975 14.4286C7.82621 14.6662 7.64082 14.731 7.60811 14.8498C6.25585 19.2987 4.85997 23.7368 3.60586 28.2073C3.28961 29.3303 3.40957 30.5721 3.31142 31.8571C5.47067 32.1595 7.33547 32.0839 9.50563 31.7708C9.0367 25.8965 8.57868 20.2273 8.10975 14.4286Z" fill="black"/>
<path d="M46.9778 6.55664C47.4685 7.16135 48.101 7.70126 48.4391 8.37076C49.6496 10.822 50.871 13.284 51.8961 15.8216C52.8884 18.2944 53.5537 20.886 54.5024 23.3696C55.3639 25.6373 56.3781 27.8618 57.425 30.0538C57.6977 30.6369 58.3193 31.0473 58.9845 31.7708C58.2647 33.0774 57.5341 34.5675 56.6617 35.9605C55.822 37.2995 54.9495 38.6601 53.8917 39.8263C51.9615 41.9536 46.7597 42.7311 43.6189 40.6578C41.7978 39.4592 40.2383 38.0338 39.0933 36.2413C38.548 35.3882 38.2863 34.2868 38.1445 33.2717C38.09 32.8722 38.6243 32.0407 38.9842 31.9867C39.922 31.8463 40.162 31.2848 40.1838 30.5829C40.2819 27.3866 41.8196 24.5683 42.6048 21.5663C43.3245 18.8451 44.1751 16.1672 44.884 13.446C45.451 11.2539 45.8872 9.01866 46.378 6.805C46.5743 6.72941 46.7706 6.64303 46.9778 6.55664ZM56.8143 32.6022C53.5537 32.775 50.7183 32.9262 47.8829 33.0774C45.1021 33.2285 42.2558 32.6994 39.4313 33.6605C39.8784 35.5178 40.8599 36.7704 42.3212 37.7746C43.8589 36.8568 45.222 35.7445 47.4685 35.2154C45.7346 36.4572 44.4587 37.3643 43.2045 38.2606C43.8152 39.4808 44.4696 39.1676 45.2002 38.7573C46.4979 38.023 47.8393 37.3427 49.1588 36.6408C49.2352 36.7704 49.3115 36.8892 49.3878 37.0187C48.101 37.8718 46.8251 38.7249 45.4947 39.6103C46.7924 40.6902 48.8753 40.9601 50.9909 40.1719C54.3716 38.9085 55.5166 35.8849 56.8143 32.6022ZM56.1382 31.0689C55.7347 30.1942 55.4403 29.5895 55.1676 28.974C54.546 27.581 53.75 26.2312 53.3574 24.7842C52.1687 20.3677 50.7292 16.0592 48.6027 11.9882C48.3846 11.5671 48.0792 11.1999 47.7193 10.66C47.2286 12.6901 48.5699 29.4599 49.366 31.7708C51.4926 31.6736 53.7063 31.9219 56.1382 31.0689ZM46.2144 14.4286C45.9309 14.6662 45.7455 14.731 45.7128 14.8498C44.3605 19.2987 42.9646 23.7368 41.7105 28.2073C41.3943 29.3303 41.5142 30.5721 41.4161 31.8571C43.5753 32.1595 45.4401 32.0839 47.6103 31.7708C47.1414 25.8965 46.6833 20.2273 46.2144 14.4286Z" fill="black"/>
</svg>
