<svg width="58" height="69" viewBox="0 0 58 69" fill="none" xmlns="http://www.w3.org/2000/svg">
<path d="M58 39.4648C57.6898 41.8427 57.2763 44.3239 56.8627 46.9086C56.4492 50.1136 54.5882 52.6983 52.6239 54.9728C50.246 57.7642 47.4545 60.0387 44.0428 61.7963C39.0802 64.2776 33.9109 65.2081 28.5348 65.5182C21.2977 65.8284 14.7843 63.6573 8.99465 59.0049C4.85918 55.6965 2.68806 51.2509 0.516934 46.5984C0.103387 45.7714 0 44.8409 0 44.0138C0.31016 40.8088 0.206774 37.5004 1.24064 34.6056C2.58467 30.8837 3.72193 26.955 5.89305 23.4398C8.37433 19.7179 11.1658 16.5129 14.7843 14.0316C17.8859 11.8605 21.4011 10.4131 25.2264 10.2063C25.8467 10.2063 26.467 10.1029 26.984 9.99952C36.082 8.44872 43.4225 12.1706 49.9358 17.9603C53.7611 21.4755 55.4153 26.1279 56.656 30.987C57.4831 33.5717 57.5864 36.4665 58 39.4648ZM55.9323 39.258C56.139 32.1243 54.1747 25.6109 49.4189 20.1314C45.0766 15.1689 39.3904 12.0673 32.9804 11.5503C26.8806 11.0334 21.0909 12.8943 16.025 16.823C10.2353 21.4755 6.3066 27.5753 3.61854 34.2954C2.48128 37.2936 1.96435 41.0156 2.58467 44.2206C4.03209 52.3881 9.20143 58.0744 16.8521 61.176C25.3298 64.5877 33.9109 64.0708 42.2852 60.1421C51.0731 56.2134 56.2424 49.5967 55.9323 39.258Z" fill="#F15748"/>
<path d="M27.5503 24.2795C27.2816 26.4297 26.3856 28.3111 24.5042 29.4758C23.5187 30.103 23.6979 31.0885 23.6979 31.9844C23.7875 35.5681 23.9667 39.0622 23.9667 42.6459C23.9667 44.2585 23.7875 45.8712 23.7875 47.4839C23.7875 48.8277 23.7875 50.2612 23.9667 51.6051C24.4146 56.3535 24.4146 61.0123 23.2499 65.5815C23.0707 66.2086 22.8915 66.7462 22.6228 67.2837C21.6373 69.0756 19.8454 69.2548 18.5015 67.8213C16.9785 66.2086 16.6201 64.148 16.1721 62.0874C14.6491 55.7263 15.3658 49.2757 16.5305 42.7355C17.1576 39.0622 17.6952 35.3889 18.2328 31.7156C18.3223 31.1781 18.3223 30.3717 18.6807 30.0134C18.3223 30.0134 17.7848 29.7446 17.4264 29.4758C17.0681 29.9238 16.7993 29.655 16.2617 29.2966C15.0074 28.6695 14.0219 27.7736 13.6636 26.2505C12.9468 23.5627 12.7676 20.9646 12.8572 18.1872C13.0364 13.17 13.126 8.15289 13.2156 3.13573C13.2156 2.50858 13.4844 1.88144 13.574 1.1647C14.9178 1.34388 15.097 2.15021 15.097 3.04613C15.097 4.47961 15.097 5.82349 15.1866 7.25697C15.3658 10.0343 15.8138 12.2741 16.2617 15.0515C16.3513 15.6786 16.7097 16.2162 17.1576 16.9329C18.5911 15.6786 18.5911 14.7827 18.7703 13.4388C19.1287 9.58636 19.5766 5.7339 20.0246 1.97103C20.1142 1.52307 20.2934 0.985514 20.4726 0.537553C21.6373 0.716737 21.6373 1.52307 21.7268 2.3294C21.8164 6.27145 21.906 10.2135 22.1748 14.066C22.2644 15.1411 22.4436 15.4994 22.6228 16.5746C22.7124 16.8433 23.0707 17.6497 23.3395 18.008C23.9667 17.6497 24.2354 16.7537 24.4146 16.3058C24.8626 14.6035 25.3105 12.9013 25.6689 11.199C26.2065 8.0633 26.6544 4.83798 27.2816 1.61266C27.3712 1.1647 27.8191 0.895922 28.5359 0C28.715 1.34388 28.9838 2.06062 28.9838 2.77736C28.9838 6.27145 29.163 9.67595 28.8942 13.17C28.5359 16.8433 28.0879 20.6062 27.5503 24.2795Z" fill="white"/>
<path d="M44.3047 24.7281C43.588 31.7163 43.7671 38.7045 43.8567 45.7822C43.8567 47.7533 43.7671 49.4555 43.588 51.6953C43.4984 54.9207 43.588 58.146 43.14 61.3713C42.9608 62.9839 43.14 67.1948 40.721 67.4636C40.4522 67.4636 40.273 68.2699 40.0043 68.7178C37.1373 68.5387 35.4351 64.955 34.9871 61.5505C34.7183 59.4003 34.7183 57.0709 34.8975 54.9206C35.4351 48.2012 36.0622 41.5714 36.6894 34.852C36.779 34.1353 37.3165 33.6873 37.3165 32.7914C36.5998 32.3434 35.2559 31.6267 34.5391 31.0891C33.3744 30.3724 32.5681 30.462 33.1953 29.2077C33.1953 29.1181 34.0016 28.8493 34.0912 28.7597C34.5391 28.491 35.0767 28.3118 35.4351 27.8638C35.7934 27.5054 35.7934 26.8783 35.4351 26.5199C34.9871 25.9824 34.36 25.624 33.912 25.0865C33.912 25.0865 33.8224 25.0865 33.8224 24.9969V24.8177C34.0016 24.7281 34.0912 24.6385 34.1808 24.4593C34.5392 24.0113 34.9871 23.653 35.4351 23.2946C35.9726 23.0258 36.5102 22.6675 36.5998 22.0403C36.6894 21.3236 36.1518 20.8756 35.6143 20.5173C35.6143 20.5173 35.4351 20.4277 35.4351 20.3381L35.3455 20.2485C35.2559 20.1589 35.2559 20.1589 35.1663 20.0693C34.9871 19.8005 34.8079 19.4421 34.5391 19.1734C34.6287 19.0838 34.7183 19.0838 34.8975 18.9942C35.3455 18.815 35.883 18.6358 36.2414 18.1879C37.1373 17.2919 36.779 16.2168 36.1518 15.4105C35.7934 15.0521 35.4351 14.6938 35.0767 14.3354C34.9871 14.2458 34.8975 14.2458 34.8975 14.1562C35.2559 13.7978 35.6143 13.3499 36.0622 12.9019C36.2414 12.7227 36.5102 12.5436 36.6894 12.3644C36.8685 12.0956 37.0477 11.9164 37.1373 11.558C37.2269 11.2893 37.2269 10.9309 37.1373 10.6621C37.0477 10.2142 36.8685 9.85579 36.5998 9.49742C36.4206 9.13905 36.1518 8.87027 35.9726 8.6015C35.7934 8.42231 34.2704 8.15353 34.2704 8.15353C34.36 7.70557 36.1518 6.63047 36.6894 5.73455C36.1518 5.1074 35.0767 5.01781 34.36 4.30107C34.6287 3.40515 35.1663 2.68841 36.1518 2.59882C38.1228 2.41964 40.1835 2.15086 42.1545 2.24045C44.4839 2.33004 45.6486 3.58433 45.8278 5.91373C45.9174 6.80965 45.8278 7.79517 45.7382 8.69109C45.2006 13.977 44.9318 19.3526 44.3047 24.7281Z" fill="white"/>
<path d="M19.6626 27.6848C19.6626 28.2224 19.4835 29.3871 19.1251 29.835C18.9459 30.0142 18.8563 30.1038 18.6771 30.1038C18.3188 30.0142 17.7812 29.7454 17.4228 29.4766C17.1541 29.2975 16.9749 29.2079 16.8853 29.0287C15.8998 27.9536 15.4518 28.4911 14.6455 27.2368C14.3767 26.6993 14.1079 24.1011 13.9287 23.474C13.7496 22.6676 13.4808 20.4278 13.9287 19.3527C14.1079 18.9944 14.3767 18.7256 14.7351 18.7256C16.2581 18.8152 17.6916 22.7572 18.4084 23.8323C19.0355 24.997 19.6626 26.2513 19.6626 27.6848Z" fill="#BBBBBA"/>
<path d="M16.0803 53.8451C15.8115 57.608 15.7219 61.7292 17.6929 64.9545C18.1409 65.7609 18.7681 66.4776 19.3952 67.1943C19.5744 67.3735 19.664 67.5527 19.8432 67.6423C20.5599 68.0007 21.2766 67.3735 21.7246 66.5672C23.0685 63.7898 21.635 60.4749 20.6495 57.4288C19.216 52.77 19.3056 47.7528 18.7681 42.9149C18.6785 42.0189 18.7681 41.0334 17.7825 40.7646C16.797 44.9755 16.4387 49.7239 16.0803 53.8451Z" fill="#BBBBBA"/>
<path d="M35.7929 57.7866C35.7033 60.564 35.7929 63.6101 37.4952 65.8499C37.6744 66.0291 37.8536 66.2979 38.2119 66.2979C38.4807 66.3874 38.8391 66.1187 39.1079 65.7603C39.8246 64.6852 39.8246 63.2517 39.735 61.9078C39.5558 55.9052 39.3766 49.9921 39.287 44.079C39.287 42.9143 39.5558 38.6139 38.4807 37.8971C37.1368 37.0012 37.1368 41.8392 36.9576 42.9143C36.3305 47.7523 35.9721 52.7694 35.7929 57.7866Z" fill="#BBBBBA"/>
<path d="M28.8039 13.0805C28.6247 16.8433 28.0871 20.6062 27.5496 24.3691C27.2808 26.5193 26.3849 28.4007 24.5035 29.5654C23.5179 30.1926 23.6971 31.1781 23.6971 32.074C23.7867 35.6577 23.9659 39.1518 23.9659 42.7355C23.9659 44.3481 23.7867 45.9608 23.7867 47.5734C23.7867 48.9173 23.7867 50.3508 23.9659 51.6947C24.4139 56.4431 24.4139 61.1019 23.2492 65.6711C23.07 66.2982 22.8908 66.8358 22.622 67.3733C21.6365 69.1652 19.8447 69.3443 18.5008 67.9109C16.9777 66.2982 16.6193 64.2376 16.1714 62.177C14.6483 55.7263 15.3651 49.2757 16.5297 42.7355C17.1569 39.0622 17.6944 35.3889 18.232 31.7156C18.3216 31.1781 18.3216 30.3717 18.68 30.0134C18.7696 29.9238 18.9487 29.8342 19.1279 29.7446C19.2175 29.7446 19.3071 29.7446 19.3071 29.7446C19.5759 29.7446 19.2175 31.2677 19.1279 32.074C18.8591 35.0305 18.4112 37.8975 18.0528 40.854C17.784 43.0938 17.4257 45.4232 17.2465 47.663C17.1569 48.2006 16.8881 49.3653 16.9777 50.1716C17.784 49.7237 18.3216 49.3653 18.8591 49.0069C18.9487 49.0965 19.0383 49.1861 19.1279 49.2757C18.5008 49.9028 17.8736 50.53 17.3361 51.2467C16.7089 52.0531 16.5297 52.949 17.0673 53.9345C17.784 53.4865 18.3216 53.2178 19.2175 52.6802C18.9487 53.2178 18.9487 53.4865 18.7696 53.5761C16.9777 54.7408 17.0673 56.5327 17.2465 58.5933C17.3361 59.758 17.4257 61.0123 17.5153 62.177C17.6944 64.148 18.5008 66.4774 20.4718 67.4629C21.4573 66.3878 22.0845 64.0584 22.1741 62.8041C22.1741 62.7145 22.1741 62.5353 22.1741 62.4457C22.3532 60.3851 22.622 58.6829 22.4428 56.0847C22.1741 51.1571 22.2636 46.7671 22.1741 41.8395C22.1741 39.6893 22.3532 37.4495 22.3532 35.1201C22.0845 33.3283 21.9949 30.0134 22.0845 28.9383C22.1741 28.8487 22.4428 28.5799 22.8012 28.4007C25.1306 27.4152 25.8473 25.9817 26.1161 23.6523C26.4745 20.6062 26.8328 17.5601 27.1912 14.4243C27.2808 13.9764 27.7288 9.31759 27.2808 8.86963C26.9224 9.85514 26.0265 15.0515 25.5786 16.037C25.2202 16.8433 24.7722 17.7393 24.2347 18.456C23.07 19.7103 22.2636 19.2623 21.5469 17.6497C21.099 16.6641 21.0989 15.589 20.8302 14.5139C20.7406 13.9764 20.4718 9.76555 20.4718 8.78003C20.1134 10.3927 19.3967 14.9619 18.9487 16.1266C17.9632 18.7248 16.7089 18.5456 15.7234 17.3809C14.7379 15.9474 14.1108 10.7511 14.0212 10.6615C13.5732 11.4678 13.5732 15.7682 13.6628 19.4415C13.7524 21.8605 13.9316 24.0107 14.1108 24.817C14.6483 26.9672 14.8275 28.4007 17.5153 29.0279C17.4257 29.2071 17.3361 29.3862 17.1569 29.4758C16.7985 29.9238 16.5297 29.655 15.9922 29.2966C14.7379 28.6695 13.7524 27.7736 13.394 26.2505C12.6773 23.5627 12.4981 20.9646 12.5877 18.1872C12.7669 13.17 12.8565 8.15289 12.9461 3.13573C12.9461 2.50858 13.2148 1.88144 13.3044 1.1647C14.6483 1.34388 14.8275 2.15021 14.8275 3.04613C14.8275 4.47961 14.8275 5.82349 14.9171 7.25697C15.0963 10.0343 15.5442 12.2741 15.9922 15.0515C16.0818 15.6786 16.4402 16.2162 16.8881 16.9329C18.3216 15.6786 18.3216 14.7827 18.5008 13.4388C18.8591 9.58636 19.3071 5.7339 19.7551 1.97103C19.8447 1.52307 20.0238 0.985514 20.203 0.537553C21.3677 0.716737 21.3677 1.52307 21.4573 2.3294C21.5469 6.27145 21.6365 10.2135 21.9053 14.066C21.9949 15.1411 22.1741 15.4994 22.3532 16.5746C22.4428 16.8433 22.8012 17.6497 23.07 18.008C23.6971 17.6497 23.9659 16.7537 24.1451 16.3058C24.593 14.6035 25.041 12.9013 25.3994 11.199C25.9369 8.0633 26.3849 4.83798 27.012 1.61266C27.1016 1.1647 27.5496 0.895922 28.2663 0C28.4455 1.34388 28.7143 2.06062 28.7143 2.77736C28.8935 6.09227 28.9831 9.58636 28.8039 13.0805Z" fill="#12100B"/>
<path d="M39.287 47.753C39.287 47.9322 39.287 48.1114 39.287 48.3802C39.3766 48.2906 39.4662 48.2906 39.5558 48.201C39.735 48.1114 39.8246 47.8426 40.2725 47.3051C39.9142 47.3947 39.6454 47.5738 39.287 47.753ZM39.1974 45.1549C39.1974 45.2444 39.1974 45.2444 39.1974 45.334C39.1974 45.2444 39.287 45.1549 39.287 45.0653C39.287 45.1549 39.287 45.1549 39.1974 45.1549ZM45.6481 5.82389C45.4689 3.49449 44.3042 2.2402 41.9748 2.15061C40.0038 2.06102 37.9431 2.32979 35.9721 2.50898C34.897 2.59857 34.3595 3.22571 34.1803 4.21123C34.897 4.92797 35.8825 5.10715 36.5097 5.6447C35.9721 6.54063 34.1803 7.52614 34.0907 8.06369C34.0907 8.06369 35.6137 8.33247 35.7929 8.51165C35.9721 8.78043 36.2409 9.1388 36.4201 9.40757C36.5993 9.76594 36.868 10.2139 36.9576 10.5723C37.0472 10.841 37.0472 11.1994 36.9576 11.4682C36.868 11.737 36.6889 12.0057 36.5097 12.2745C36.3305 12.4537 36.0617 12.6329 35.8825 12.8121C35.4346 13.26 35.0762 13.708 34.7178 14.0664C34.8074 14.156 34.897 14.156 34.897 14.2456C35.2554 14.6039 35.7033 14.9623 35.9721 15.3207C36.6889 16.2166 36.9576 17.2021 36.0617 18.098C35.7033 18.4564 35.1658 18.6356 34.7178 18.9043C34.6282 18.9939 34.5386 18.9939 34.3595 19.0835C34.5386 19.3523 34.7178 19.7107 34.9866 19.9795C35.0762 20.069 35.0762 20.069 35.1658 20.1586L35.2554 20.2482C35.345 20.2482 35.4346 20.4274 35.4346 20.4274C35.9721 20.7858 36.5097 21.2337 36.4201 21.9505C36.3305 22.5776 35.7929 22.936 35.2554 23.2048C34.8074 23.4735 34.2699 23.9215 34.0011 24.3695C33.9115 24.5487 33.7323 24.6382 33.6427 24.7278V24.907C33.6427 24.907 33.7323 24.907 33.7323 24.9966C34.2699 25.4446 34.8074 25.8925 35.2554 26.4301C35.6138 26.878 35.6138 27.4156 35.2554 27.774C34.897 28.2219 34.3595 28.4011 33.9115 28.6699C33.9115 28.7595 33.1052 29.0283 33.0156 29.1179C32.3884 30.3721 33.1948 30.2826 34.3595 30.9993C35.1658 31.4472 36.5097 32.2536 37.1368 32.7015C37.1368 33.5975 36.5993 34.0454 36.5097 34.7622C35.8825 41.4816 35.2554 48.1114 34.7178 54.8308C34.5386 57.0706 34.5386 59.3104 34.8074 61.4606C35.2554 64.8651 36.9576 68.4488 39.8246 68.628C40.0934 68.18 40.2725 67.3737 40.5413 67.3737C42.8707 67.1049 42.6915 62.9837 42.9603 61.2814C43.4083 58.0561 43.3187 54.8308 43.4083 51.6055C43.5875 49.3657 43.677 47.6634 43.677 45.6924C43.7666 38.7042 43.5875 31.716 44.3042 24.7278C44.8417 19.3523 45.1105 13.9768 45.5585 8.60124C45.6481 7.61573 45.6481 6.71981 45.6481 5.82389ZM44.2146 11.8266C43.677 18.1876 43.2291 24.2799 42.6915 30.6409C42.6019 31.5368 42.6019 34.583 42.6019 35.4789C42.3332 39.7793 42.3332 44.6173 42.0644 48.9177C41.8852 52.3222 41.706 55.1892 41.3476 58.5937C41.1685 60.4751 41.1685 63.6108 40.8101 65.4923C40.6309 66.209 39.6454 66.4778 39.3766 67.1945C39.0183 67.1049 38.7495 66.8362 38.3911 66.4778C37.2264 64.9547 36.5097 61.819 36.4201 60.7439C36.3305 59.5792 35.9721 58.4145 35.8825 57.2498C35.7929 56.4435 35.7929 55.6371 35.9721 54.8308C36.0617 54.4724 36.1513 54.2037 36.3305 53.8453C36.4201 53.6661 36.5097 53.5765 36.4201 53.3973C35.7929 50.9783 37.6744 49.6345 39.3766 48.4698C39.4662 48.3802 39.5558 48.3802 39.6454 48.2906C39.8246 48.201 39.9142 47.9322 40.3621 47.3947C40.0038 47.5738 39.735 47.753 39.3766 47.8426C38.4807 48.2906 37.764 48.5594 36.9576 49.0073C36.868 47.3051 38.5703 46.8571 39.287 45.5132C39.287 45.4236 39.3766 45.334 39.3766 45.2444C39.3766 45.2444 39.287 45.2444 39.287 45.334C38.3911 45.782 37.8536 46.1404 36.9576 46.5883C37.0472 45.334 37.0472 44.1693 37.2264 43.0942C37.4056 41.4816 37.6744 39.7793 37.8536 38.1667C38.0327 36.6436 38.3015 35.2101 38.5703 33.7766C38.7495 32.7911 38.3911 32.4328 37.764 31.8952C37.1368 31.4472 35.5242 30.7305 34.7178 30.193C36.1513 29.2074 37.0472 28.3115 37.0472 27.5052C37.1368 26.7885 36.7784 25.4446 35.8825 24.6382C38.3015 23.7423 37.8536 21.2337 36.5993 19.7107C38.2119 18.2772 38.4807 16.4854 37.1368 14.5143C38.7495 12.9913 38.3911 9.94513 36.6889 7.61573L38.5703 5.6447L36.2409 3.94245C37.9431 3.76327 41.0789 3.13612 42.7811 3.76327C43.7666 4.12164 44.6626 4.5696 44.6626 5.7343C44.3938 7.07818 44.3042 10.1243 44.2146 11.8266Z" fill="#12100B"/>
</svg>
