<svg width="60" height="57" viewBox="0 0 60 57" fill="none" xmlns="http://www.w3.org/2000/svg">
<path d="M59.1196 30.3667C58.8196 32.7667 58.3196 35.3667 58.0196 37.9667C57.5196 41.2667 55.7196 43.8667 53.7196 46.1667C51.2196 48.9667 48.4196 51.3667 45.0196 53.0667C40.0196 55.5667 34.7196 56.5667 29.2196 56.7667C21.8196 57.0667 15.1196 54.8667 9.21961 50.0667C4.91961 46.6667 2.71962 42.1667 0.519615 37.4667C0.219615 36.6667 -0.0803848 35.6667 0.0196152 34.8667C0.219615 31.6667 0.219615 28.2667 1.21962 25.2667C2.61962 21.3667 3.71962 17.4667 6.01962 13.9667C8.51962 10.0667 11.3196 6.96671 15.1196 4.46671C18.3196 2.16671 21.8196 0.766713 25.8196 0.466713C26.4196 0.466713 27.0196 0.366713 27.6196 0.366713C36.9196 -1.23329 44.4196 2.56671 51.0196 8.56671C55.0196 12.0667 56.7196 16.9667 57.9196 21.8667C58.6196 24.2667 58.7196 27.2667 59.1196 30.3667ZM57.0196 30.0667C57.2196 22.7667 55.2196 16.2667 50.3196 10.5667C45.9196 5.46671 40.1196 2.36671 33.5196 1.86671C27.1196 1.26671 21.2196 3.26671 16.3196 7.26671C10.4196 12.0667 6.31962 18.2667 3.71962 25.1667C2.51962 28.2667 2.01962 32.0667 2.61962 35.2667C4.11962 43.6667 9.41962 49.4667 17.1196 52.6667C25.7196 56.1667 34.6196 55.6667 43.0196 51.6667C52.0196 47.3667 57.4196 40.6667 57.0196 30.0667Z" fill="#EB584A"/>
<path d="M48.7 15.7C48.4 12.5 47.3 9.3 45.2 5.9C44.8 4.9 44.1 3.9 43.3 3.1C40.5 0.8 38.3 0 34.6 0C33.9 0 33.1 -2.98023e-08 32.5 0.4C32.1 0.5 31.8 0.6 31.5 0.6C31.2 0.6 30.8 0.5 30.4 0.4H30.3H30.2C29.8 0.4 29.4 0.3 29 0.3C28.5 0.2 28.1 0.1 27.5 0.1C27 2.23517e-08 26.6 0 26.1 0C24.2 0 22.9 0.5 21.1 1.3L20.7 1.5C18.1 2.7 16.3 4.6 14.5 7.9C13.8 9.8 13.1 11.7 12.4 14C12 15 12 16.4 12 17.4C12 18.3 12 19.3 13.6 19.4C13.9 19.5 14.2 19.6 14.4 19.7C14.4 20.2 14.5 20.7 14.5 21.2C14.5 21.6 14.6 22 14.6 22.4C13.4 22.5 12.7 23.1 12.3 24.1C11.8 25.6 12.5 26.5 13.2 27.1L14 27.9L14.2 28.1H14.3H14.4C15.2 28.6 15.8 29.3 16.1 30.1C16.1 30.7 16.4 31.1 16.6 31.5C16.6 31.6 16.7 31.6 16.7 31.7L16.5 31.9L16.9 32.6C17.1 33 17.4 33.3 17.7 33.6L17.8 33.7L18.3 34.6V34.3C18.7 34.9 19 35.5 19.2 36.1C19.7 37.1 20.2 38.1 21 39.1C21.3 39.3 21.5 39.6 21.8 39.8C21.6 41.1 21.7 42.3 21.7 43.4C21.7 43.7 21.7 44.1 21.8 44.4C19.3 45.5 17.4 47.2 16.4 49.3C15.2 51.5 15.7 54.2 17.7 55.6L17.9 55.7H18.1C18.6 55.7 19.1 55.4 19.3 55C19.3 54.9 19.4 54.8 19.4 54.7C19.5 54.6 19.6 54.5 19.7 54.5C20.7 53.8 21.5 53.3 22.3 52.5C24.2 51.2 26.5 50.5 29.7 50.1C31 50.1 31.9 50.1 32.8 50.4H32.9H33C35.4 50.6 37.9 52 40.4 54.3L40.7 54.6L41.1 54.5C42.8 54.1 43.3 53.1 43.7 52.1C45.2 48.7 42.8 45.1 39.6 43.6C38.8 43.1 38.6 42.7 38.6 42V38.5C40.9 36.3 41.9 33.8 43.2 30.9L43.3 30.7C43.4 30.7 43.4 30.6 43.5 30.6C43.7 30.5 43.9 30.4 44.2 30.2C44.3 30.1 44.5 29.9 44.8 29.8C45.1 29.6 45.4 29.4 45.6 29.2L45.7 29.1L45.8 28.9C45.9 28.5 46.2 28.2 46.4 27.8C46.7 27.4 46.9 27 47.1 26.4C47.5 25.6 47.9 24.7 47.6 23.8C47.3 23 46.5 22.5 45.5 21.9V21C45.5 20.9 45.5 20.8 45.5 20.7C45.5 20.5 45.5 20.3 45.5 20.1C46 20.1 46.5 20 46.9 19.8C47.8 19.7 48.5 18.9 48.5 17.8L48.7 15.7ZM38 48.9V49.2C37.8 49.1 37.7 49 37.5 48.9H38ZM38.6 47C38.4 47.2 38.1 47.4 37.8 47.6L36.7 48.6C36.5 48.5 36.3 48.5 36.1 48.4C35.6 48.2 35 48.1 34.4 47.9C34.9 47.6 35.4 47.4 35.9 47.1C36.8 46.6 37.6 46.2 38.5 45.6C38.7 45.8 39 46 39.3 46.2C39.3 46.5 39 46.7 38.6 47ZM38.6 49.6L39.2 49.1C39.5 48.8 39.9 48.5 40.3 48.2C40.6 48 40.8 47.8 41.1 47.6C41.6 48.1 42 48.7 42.1 49.4C42.2 50.2 42 51 41.6 51.6C41.3 51.4 41.1 51.2 40.9 51.1C40.5 50.8 40 50.4 39.5 50.1C39.2 49.9 38.9 49.7 38.6 49.6ZM22.1 46.5C22.3 46.4 22.3 46.3 22.4 46.3C23.4 47.1 24.5 47.6 25.6 47.9C24.9 48.3 24.1 48.7 23.4 49.1C21.7 50 20 50.8 18.5 52C18.3 51.2 18.4 50.5 18.8 49.7C19.5 48.7 20.6 47.6 22.1 46.5ZM24.1 41.2C24.3 41.3 24.5 41.4 24.7 41.5L25.1 41.6C25 41.7 24.8 41.8 24.7 41.8C24.5 41.9 24.2 42.1 24 42.2C23.9 41.9 23.9 41.7 23.9 41.3C24.1 41.4 24.1 41.3 24.1 41.2ZM26.6 44.9L26.8 44.7V44.4V44.1V42.9H26.7L26.9 42.7V42.4V42.1L28 42.4C28.3 42.5 28.6 42.6 28.9 42.7C29.5 42.9 30 43.1 30.6 43.1C31.1 43.1 31.5 43 32 42.7C33.3 41.8 34.9 41.2 36.5 40.6H36.6V43V43.1V43.2C36.8 44.3 36.5 45 35.3 45.5C34.6 45.8 33.9 46.2 33.2 46.6C32.5 47 31.9 47.4 31.2 47.7C30.9 47.8 30.8 47.9 30.7 47.9C30.6 47.9 30.4 47.8 30.2 47.7H30.1H30C29.4 47.6 28.8 47.3 28.2 47.1C27.6 46.9 27 46.6 26.2 46.4C25.7 46.2 25.3 46.1 25 45.9C25.6 45.7 26.1 45.3 26.6 44.9ZM37.5 35.4C35.7 37.7 34.4 39.3 31.4 40.1H31.2L31.1 40.2C31 40.2 30.9 40.3 30.3 40.3C27.5 39.9 25.6 39.2 23.9 37.9C21.8 35.9 20.8 33.7 19.7 30.3C18.7 27.9 17.7 25.3 17 22.6C17 22.1 17 21.7 16.9 21.4C16.9 20.9 16.8 20.5 16.9 20.2C17.4 20.1 18 20.1 18.6 20.1C18.9 20.1 19.3 20.1 19.6 20.1H19.7H19.8C20.1 20.1 20.4 20.1 20.6 20.1H21H21.4H21.5C21.9 20.1 22 20.1 22.1 20.1C22.2 20.1 22.3 20.1 22.5 20.1H22.7C22.9 20.1 23.2 20.1 23.4 20.1C23.5 20.1 23.6 20.1 23.7 20.1H23.8H23.9C24 20.1 24.2 20.1 24.3 20.1H29.1C29.3 20.1 29.6 20.1 29.8 20.1C30.1 20.1 30.4 20.1 30.8 20.1C31.3 20.1 32 20.1 32.7 19.7H33.2C34.6 19.7 35.6 19.9 36.7 20.1C37.1 20.2 37.6 20.3 38.1 20.3C39.5 20.6 40.6 20.6 42 20.6C42.4 20.6 42.8 20.5 43.2 20.5C43.3 20.5 43.5 20.5 43.6 20.4V21C43.4 21.7 43.3 22.4 43.3 23.2C43.2 23.9 43.1 24.6 43 25.3C41.9 28.9 40.2 32.2 38 34.8L37.5 35.4ZM15.3 15.9C15.8 15.6 16.5 15.2 16.8 14.5L17.4 13.4H16.5C16.5 13.4 16.6 13.4 16.6 13.3C17 13.1 17.3 12.8 17.7 12.4L20.1 10.2L17 11.2C16.4 11.4 15.8 11.8 15.2 12.2C16.2 9.3 17.5 7.3 19.5 5.5C21.1 3.7 22.3 2.9 24.7 2.9C26.4 2.9 28 2.9 29.5 3.5H29.6H29.7C30.4 3.5 31.6 3.5 32.4 3.1C33.4 2.6 34.3 2.4 35.2 2.4C35.6 2.4 36 2.4 36.4 2.5C38.4 2.8 39.3 3.1 40.9 4.3C41.9 5 42.5 6.2 43.1 7.3C43.3 7.5 43.4 7.7 43.5 7.9C44.9 10.8 45.8 13.2 46.1 16.2C46.3 17.3 46.2 17.6 46.1 17.7C46.1 17.8 45.5 17.9 44.5 17.9H43.8C43.1 17.9 43 17.7 42.8 17.3L42.7 17.2L42.6 17.1L41.9 16.5L41.1 15.7L40.7 16.8L40.6 17.1C40.4 17.7 40.4 17.8 39.9 17.9C38.6 17.9 34.6 17.4 31.9 16.9C32.4 15.8 32.9 14.4 32.9 13.8V12.1L31.6 13.3C31.5 13.4 31.5 13.4 31.4 13.5C31.2 13.6 30.7 13.9 30.7 14.5C30.7 14.7 30.3 15.5 30.1 16C29.8 16.7 29.6 17.2 29.4 17.6C29 16.9 28.4 16.9 27.8 16.9H24.1C22.6 16.9 21.3 16.8 20.1 16.7C18.8 16.6 17.5 16.5 16 16.5H14.5C14.7 16.4 14.9 16.2 15.3 15.9ZM45.5 24.9C45.3 25.4 45.1 25.9 44.8 26.4C44.9 25.9 45.1 25.5 45.2 25C45.3 24.9 45.3 24.9 45.3 24.8C45.3 24.8 45.3 24.7 45.4 24.7C45.5 24.8 45.5 24.8 45.5 24.9ZM14.9 25.4C15 25.4 15 25.5 15 25.5C15.1 25.6 15.3 25.9 15.4 26.2L15.3 26.3C15.1 26.1 15 25.9 14.8 25.6V25.5C14.8 25.5 14.8 25.4 14.9 25.4Z" fill="white"/>
<path d="M22.6984 44.7L28.4984 47.9L30.6984 48.4L38.7984 44L42.1984 46.5L42.8984 49.4L42.4984 52.9L41.0984 53.9L38.6984 51L35.9984 50.4L32.5984 49.4L29.1984 49.1L25.4984 49.4L20.6984 52.6L19.2984 54.8L16.8984 52.6L17.6984 50.1L18.1984 48.6L19.6984 46.9L22.6984 44.7Z" fill="white"/>
<path d="M45.8986 18.5998C46.1986 18.2998 46.5986 18.2998 46.8986 17.9998C47.1986 17.6998 47.1986 16.9998 47.1986 16.6998C46.8986 14.1998 46.4986 11.2998 45.7986 8.7998C44.7986 6.2998 43.0986 3.9998 40.2986 2.7998C36.8986 0.899805 33.4986 1.7998 29.3986 1.4998C27.3986 1.4998 25.6986 1.1998 23.8986 1.7998C22.1986 2.0998 21.7986 3.0998 20.7986 3.9998C19.0986 5.2998 17.6986 6.19981 15.9986 7.4998C15.6986 7.4998 15.2986 7.7998 14.9986 7.7998C13.9986 10.9998 14.2986 14.4998 13.2986 17.5998C14.6986 18.5998 14.6986 20.4998 14.6986 22.3998C14.6986 22.6998 14.6986 22.9998 14.3986 23.3998C14.0986 23.6998 14.0986 23.6998 13.6986 23.6998C12.6986 24.2998 13.3986 25.5998 13.6986 26.1998C16.0986 29.6998 18.7986 32.1998 20.8986 35.9998C21.5986 37.2998 22.5986 38.8998 22.5986 40.3998C22.8986 42.5998 22.5986 44.1998 24.2986 46.0998C25.6986 47.3998 27.6986 47.9998 29.7986 48.2998C31.1986 48.2998 32.4986 48.2998 33.8986 48.2998C34.8986 48.2998 35.8986 47.9998 36.5986 47.2998C37.5986 46.2998 37.5986 45.0998 37.5986 44.0998C37.5986 42.7998 36.8986 41.8998 36.8986 40.5998C36.5986 37.6998 37.2986 35.1998 38.9986 32.9998C40.6986 30.7998 43.0986 29.1998 45.0986 26.9998C45.7986 26.3998 46.4986 25.0998 45.7986 24.0998C45.4986 23.7998 45.0986 23.4998 44.7986 23.0998C44.1986 22.0998 44.1986 19.5998 45.8986 18.5998Z" fill="white"/>
<path d="M39.6974 25.9C39.3974 28.8 38.6974 31.6 38.2974 34.5C38.2974 34.8 38.2974 35.1 38.2974 35.5C38.2974 35.8 37.9974 36.1 38.2974 35.8C38.5974 35.8 38.5974 35.5 38.9974 35.5C42.0974 31.7 43.3974 26.9 44.7974 22.5C45.1974 21.2 45.4974 19.9 44.4974 18.9C43.4974 18.3 40.3974 18.6 39.6974 19.5C38.6974 21.2 40.0974 24.3 39.6974 25.9Z" fill="#BCBCBB"/>
<path d="M17.5977 4.9998C18.9977 3.3998 19.6977 1.7998 21.6977 1.7998C21.9977 1.7998 21.9977 1.7998 22.3977 1.7998C23.0977 2.0998 23.0977 3.0998 23.0977 3.6998C23.0977 6.5998 22.7977 9.6998 22.7977 12.5998C22.7977 15.7998 23.7977 16.9998 20.3977 17.3998C15.9977 17.6998 12.5977 17.3998 13.5977 12.2998C14.1977 9.6998 15.4977 7.1998 17.5977 4.9998Z" fill="#BCBCBB"/>
<path d="M27.0977 46.8998C27.0977 46.8998 27.0977 47.1998 27.0977 46.8998C27.0977 47.1998 26.7977 47.1998 26.7977 47.1998C26.0977 47.1998 25.3977 46.5998 24.7977 46.1998C24.0977 45.8998 23.7977 45.5998 23.3977 44.8998C23.0977 44.5998 23.0977 43.8998 23.0977 43.2998C23.0977 41.9998 23.0977 41.0998 23.0977 39.7998C23.0977 38.7998 26.7977 40.7998 27.1977 41.3998C28.1977 42.6998 27.4977 45.2998 27.0977 46.8998Z" fill="#BCBCBB"/>
<path d="M44.4984 6.20015C44.1984 5.20015 43.4984 4.30015 42.7984 3.70015C40.0984 1.50015 37.9984 0.800149 34.5984 0.800149C33.8984 0.800149 33.1984 0.800149 32.8984 1.10015C31.8984 1.40015 31.1984 1.40015 30.1984 1.10015C29.1984 1.10015 28.4984 0.800149 27.4984 0.800149C24.7984 0.500149 23.3984 1.10015 20.9984 2.10015C18.2984 3.40015 16.5984 5.60015 15.1984 8.10015C14.4984 10.0001 13.7984 11.9001 13.1984 14.1001C12.8984 15.1001 12.8984 16.3001 12.8984 17.3001C12.8984 18.3001 12.8984 18.6001 13.8984 18.6001C14.5984 18.9001 14.8984 18.9001 15.2984 18.9001C15.2984 20.2001 15.5984 21.8001 15.5984 23.0001C15.2984 23.0001 15.2984 23.0001 15.2984 23.0001C14.2984 23.0001 13.5984 23.3001 13.2984 24.3001C12.9984 25.3001 13.2984 25.9001 13.9984 26.5001C14.2984 26.8001 14.6984 27.1001 14.9984 27.5001C15.9984 28.1001 16.6984 29.1001 16.9984 30.0001C16.9984 30.6001 17.2984 31.0001 17.6984 31.6001C17.6984 31.6001 17.6984 31.3001 17.6984 31.0001C17.9984 31.6001 18.3984 32.0002 17.6984 32.3001C17.9984 32.9002 18.6984 33.3002 19.0984 33.9002C20.0984 35.5001 20.4984 37.1002 21.7984 38.7001C22.7984 39.7001 23.7984 40.3002 25.1984 40.9002C26.1984 41.2001 27.1984 41.5001 28.2984 41.9002C29.6984 42.2001 30.6984 42.9002 31.6984 42.2001C33.0984 41.2001 34.7984 40.6001 36.4984 40.0001C36.7984 40.0001 37.1984 40.0001 37.4984 39.7001V43.2001C37.7984 44.8001 37.1984 45.7001 35.7984 46.4002C34.3984 47.0001 33.0984 48.0002 31.6984 48.6002C30.9984 48.9002 30.6984 48.9002 29.9984 48.6002C28.5984 48.3002 27.5984 47.6002 26.2984 47.3002C25.2984 47.0002 24.5984 46.7001 23.8984 46.0001C24.8984 45.4002 25.5984 45.0001 26.2984 44.4002C26.2984 44.1002 26.2984 44.1002 26.2984 44.1002C25.5984 44.4002 24.5984 44.7001 23.8984 45.1002C23.8984 44.8002 23.8984 44.5001 23.8984 44.5001C24.8984 43.9002 25.5984 43.2001 26.2984 42.6002C26.2984 42.3002 26.2984 42.3002 26.2984 42.3002C25.5984 42.6002 24.8984 43.3002 23.8984 43.6002C23.5984 42.6002 23.5984 42.3001 23.5984 41.7001C23.5984 41.1002 23.5984 40.4002 22.8984 40.1002C22.5984 42.0002 22.8984 43.6002 22.8984 45.2001C20.4984 46.2001 18.4984 47.7001 17.3984 50.0001C16.3984 51.9002 16.6984 54.1002 18.3984 55.4002C18.6984 55.4002 19.0984 55.1002 18.6984 54.8002C20.0984 53.8002 21.0984 53.2002 22.0984 52.3002C24.4984 50.7002 27.1984 50.1002 29.8984 49.8002C31.2984 49.8002 32.2984 49.8002 33.2984 50.1002C36.3984 50.4002 39.0984 52.3001 41.0984 54.2001C42.4984 53.9002 42.7984 53.2002 43.0984 52.3002C44.4984 49.1002 42.0984 46.0001 39.3984 44.7001C38.3984 44.1002 37.9984 43.4002 37.9984 42.5001V38.7001C40.3984 36.5001 41.3984 33.9001 42.7984 30.8001C43.0984 30.5001 43.4984 30.5001 43.7984 30.2001C44.0984 29.9001 44.7984 29.6001 45.1984 29.2001C45.4984 28.2001 46.1984 27.6001 46.5984 26.7001C47.5984 24.8001 47.2984 24.2001 45.1984 23.2001L44.8984 22.9001V21.6001C44.8984 21.0001 45.1984 20.6001 44.1984 20.3001V21.6001C43.8984 22.9001 43.8984 24.5001 43.4984 26.0001C42.4984 29.5001 40.7984 33.0002 38.3984 35.8002C36.3984 38.3002 34.9984 40.2001 31.5984 41.2001C31.2984 41.5001 30.5984 41.5001 30.1984 41.5001C27.7984 41.2001 25.3984 40.5001 23.3984 39.0001C20.9984 36.8001 19.9984 34.2001 18.9984 31.1001C17.9984 28.6001 16.9984 26.0001 16.2984 23.2001C16.2984 21.9001 15.9984 21.0001 16.2984 20.0001C17.0984 19.8001 18.3984 19.7001 19.5984 19.8001C20.1984 19.8001 20.6984 19.8001 21.2984 19.8001C21.9984 19.8001 21.6984 19.8001 22.3984 19.7001C22.8984 19.7001 23.2984 19.6001 23.7984 19.7001C23.8984 19.7001 24.0984 19.7001 24.1984 19.7001H28.9984C29.9984 19.7001 31.3984 20.0001 32.3984 19.4001C32.3984 19.4001 32.6984 19.4001 33.0984 19.4001C35.0984 19.4001 36.1984 19.7001 38.1984 20.0001C39.5984 20.3001 40.5984 20.3001 41.8984 20.3001C42.5984 20.3001 43.5984 20.0001 44.5984 20.0001C45.2984 20.0001 46.2984 20.0001 46.9984 19.7001C47.6984 19.7001 47.9984 19.1001 47.9984 18.4001V16.2001C47.5984 12.3001 46.1984 9.10015 44.4984 6.20015ZM18.2984 53.2001C17.5984 51.9002 17.5984 50.7001 18.2984 49.4002C18.9984 48.1002 20.1 47.5 21.5 46.5C22 46 22.2 46 22.5 46C23.9 47.3 25.3 47.4 27 48C23.9 49.9 20.9984 51.0001 18.2984 53.2001ZM44.4984 24.7001C44.7984 24.4001 44.7984 24.1001 45.4984 24.1001C45.7984 24.1001 46.1984 24.4001 46.1984 25.1001C45.8984 26.4001 45.1984 27.6001 43.7984 28.9001C43.7984 28.6001 43.4984 28.6001 43.4984 28.3001C43.7984 27.2001 44.1984 25.9001 44.4984 24.7001ZM38.6984 44.7001C38.9984 45.0001 39.6984 45.7001 40.3984 46.0001C40.6984 46.6001 40.3984 46.6002 40.0984 46.6002C39.7984 47.2001 39.0984 47.6002 38.3984 48.2001C38.6984 48.2001 38.6984 48.5001 38.6984 48.5001C39.3984 47.9002 40.3984 47.2001 41.0984 46.6002C43.0984 47.9002 43.4984 50.7001 41.7984 52.6002C40.7984 52.0002 40.0984 51.3001 39.0984 50.7001C38.0984 50.1002 37.0984 49.4002 35.9984 49.1002C34.9984 48.8002 34.4 48.9 33 48.5C35 47.3 37.5 46 38.6984 44.7001ZM16.1984 26.6001C15.8984 26.6001 15.8984 26.9001 15.4984 27.6001C14.7984 27.0001 14.4984 26.6001 14.0984 26.0001C13.7984 25.7001 14.0984 25.0001 14.3984 24.7001C14.6984 24.4001 15.0984 24.7001 15.3984 25.0001C15.8984 25.3001 16.1984 25.9001 16.1984 26.6001ZM44.4984 18.6001C44.4984 18.6001 44.1984 18.6001 43.7984 18.6001C42.7984 18.6001 42.3984 18.3001 42.0984 17.6001C42.0984 17.6001 41.7984 17.3001 41.3984 17.0001C41.0984 18.0001 41.0984 18.3001 39.9984 18.6001C38.5984 18.6001 33.4984 18.0001 30.7984 17.3001C31.0984 17.0001 32.0984 14.3001 32.0984 13.7001C31.7984 14.0001 31.3984 14.0001 31.3984 14.3001C31.3984 14.9001 30.0984 17.3001 30.0984 17.9001C30.0984 18.5001 29.3984 18.9001 29.0984 18.2001C28.7984 17.6001 28.3984 17.6001 27.6984 17.6001H23.9984C20.8984 17.6001 18.8984 17.3001 15.7984 17.3001H13.4984C13.4984 15.4001 15.4984 15.4001 16.1984 14.1001C15.1984 14.1001 14.4984 15.1001 13.4984 15.4001C13.4984 14.4001 14.4984 14.1001 15.1984 13.5001C15.8984 12.9001 16.5984 12.5001 17.1984 11.9001C16.1984 12.2001 15.1984 13.2001 14.0984 13.8001V12.8001C15.0984 9.60015 16.4984 7.10015 18.8984 4.90015C20.5984 3.00015 21.9984 2.00015 24.6984 2.00015C26.3984 2.00015 28.0984 2.00015 29.7984 2.60015C30.4984 2.60015 31.4984 2.60015 32.1984 2.30015C33.5984 1.70015 34.8984 1.30015 36.5984 1.70015C38.5984 2.00015 39.6984 2.30015 41.3984 3.60015C42.7984 4.60015 43.3984 6.10015 44.0984 7.40015C45.4984 10.3001 46.4984 12.8001 46.7984 16.0001C47.1984 18.3001 46.8984 18.6001 44.4984 18.6001Z" fill="#020203"/>
<path d="M24.7 24.6996C24.6 25.8996 24.3 26.0996 23.9 26.2996C23.1 26.4996 22.4 26.5996 22.1 25.7996C21.8 24.9996 21.8 24.1996 22.1 23.5996C22.4 23.0996 22.7 22.8996 23.4 22.9996C24.1 23.1996 24.7 23.4996 24.7 24.6996Z" fill="#020203"/>
<path d="M32.3 31.3002C31.4 31.3002 30.5 31.8002 29.7 31.8002C28.8 31.8002 28.5 31.3002 28.8 29.9002C28.8 28.5002 29.1 26.5002 29.1 25.1002C29.1 24.6002 29.1 24.1002 29.4 23.7002C30 24.7002 29.7 26.1002 29.7 27.1002C29.7 28.1002 29.6 29.9002 29.6 30.9002C30.5 31.9002 31.5 30.0002 32.1 31.4002C32.3 30.8002 32.3 30.8002 32.3 31.3002Z" fill="#020203"/>
<path d="M25.2969 21.8996C24.1969 22.1996 22.4969 22.1996 20.7969 21.8996C22.9969 20.9996 24.6969 20.9996 25.2969 21.8996Z" fill="#020203"/>
<path d="M35.8977 23.1002C36.5977 23.0002 36.8977 23.2002 37.1977 23.7002C37.4977 24.2002 37.4977 25.0002 37.1977 25.9002C36.8977 26.7002 36.1977 26.6002 35.3977 26.4002C34.9977 26.2002 34.7977 26.0002 34.5977 24.8002C34.5977 23.5002 35.2977 23.2002 35.8977 23.1002Z" fill="#020203"/>
<path d="M38.5977 21.8996C37.7977 21.9996 36.9977 22.0996 36.2977 22.0996C35.4977 22.0996 34.6977 21.9996 34.0977 21.8996C34.5977 20.9996 36.2977 20.9996 38.5977 21.8996Z" fill="#020203"/>
<path d="M30.8992 39.3C30.5992 39.3 30.1992 39.3 30.1992 39.3C30.1992 39 30.1992 39 30.4992 38.7C30.4992 38.6 30.4992 38.9 30.8992 39.3C30.8992 38.9 30.8992 38.9 30.8992 39.3Z" fill="#020203"/>
<path d="M40.3969 45.9004C39.3969 46.5004 38.3969 47.2004 37.2969 47.8004C37.6969 46.9004 39.0969 46.2004 40.3969 45.9004Z" fill="#020203"/>
<path d="M29.6 35.4998C28 35.0998 27 34.6998 26 34.2998C27.5 36.5998 30.9 36.9998 33 35.5998C33.1 35.5998 33.1 35.4998 33.2 35.4998C33.7 35.1998 34.1 34.7998 34.4 34.2998C33.9 34.4998 33.5 34.6998 32.9 34.8998C32 35.0998 30.5 35.4998 29.6 35.4998Z" fill="#020203"/>
</svg>
