<svg width="58" height="56" viewBox="0 0 58 56" fill="none" xmlns="http://www.w3.org/2000/svg">
<path d="M57.0165 30.2807C56.6878 32.5815 56.2495 35.1014 55.9209 37.6214C55.4826 40.7987 53.7296 43.3186 51.7575 45.5098C49.3471 48.2489 46.6081 50.5497 43.3212 52.1931C38.5005 54.6035 33.351 55.5896 28.0921 55.8087C20.9705 56.1374 14.5063 53.9461 8.8091 49.3445C4.7553 46.0576 2.56406 41.6752 0.482374 37.1831C0.153687 36.4162 -0.0654368 35.4301 0.0441254 34.6632C0.26325 31.5954 0.26325 28.3086 1.24931 25.3504C2.56406 21.6253 3.65968 17.7906 5.85092 14.3942C8.26129 10.669 11.0003 7.6013 14.6159 5.19093C17.6836 2.99968 21.0801 1.57538 24.9148 1.35625C25.4626 1.35625 26.1199 1.24669 26.6677 1.24669C35.6519 -0.287184 42.883 3.32837 49.2376 9.13517C53.0722 12.5316 54.7157 17.2428 55.9209 21.954C56.5782 24.4739 56.6878 27.3225 57.0165 30.2807ZM55.0444 30.0616C55.2635 23.0496 53.2914 16.695 48.5802 11.2169C44.3073 6.28655 38.7196 3.32837 32.365 2.78056C26.2295 2.23275 20.5323 4.09531 15.7115 8.03955C10.0143 12.6412 6.07005 18.6671 3.55012 25.3504C2.34493 28.3086 1.90668 32.0337 2.45449 35.1014C3.8788 43.209 9.02823 48.7967 16.4785 51.8644C24.8052 55.2609 33.351 54.7131 41.4586 50.8784C50.2236 46.715 55.3731 40.2508 55.0444 30.0616Z" fill="#EB584A"/>
<path d="M15.5499 0L0.65625 46.0709L40.9683 56L48.4151 29.7872L55.0676 8.83688L15.5499 0Z" fill="white"/>
<path d="M25.6785 47.362C25.3807 46.7662 24.8842 46.2698 24.3878 45.7733C20.5154 42.3974 16.0473 39.518 13.0686 35.2485C11.3807 32.8655 9.9906 29.8868 7.21046 28.6953C6.11826 30.8797 6.01897 34.4542 5.22464 36.6386C5.12535 38.4258 4.33103 38.9223 4.33103 40.7095C4.33103 41.901 2.54379 44.0854 3.04025 45.1776C4.23174 47.5606 9.19628 46.8655 11.7778 47.362C13.9622 47.7591 15.8488 48.8513 18.0332 49.2485C19.4232 50.2414 22.0048 50.8372 23.6927 50.7379C25.5793 50.8372 26.3736 49.1492 25.6785 47.362Z" fill="#BCBCBB"/>
<path d="M48.3151 27.1056C49.1094 22.7368 51.5917 18.7652 53.1803 14.5949L53.0811 11.6162C53.0811 11.0205 53.1803 10.4247 52.8825 9.82898C52.386 8.5382 50.7974 8.14104 49.4073 7.84317C49.0101 7.74388 48.613 7.64459 48.2158 7.84317C47.5208 8.04175 47.1236 8.83607 46.8257 9.6304C44.1449 17.0772 41.3647 24.7226 41.6626 32.5666C43.6484 32.8644 45.3364 31.2758 46.6272 29.7864C47.2229 29.1907 47.7194 28.5949 48.3151 27.8999C48.3151 27.602 48.3151 27.4035 48.3151 27.1056Z" fill="#BCBCBB"/>
<path d="M4.52815 43.5879C4.72673 43.6872 4.92531 43.7865 5.12389 43.7865C8.59907 44.4815 11.975 45.5737 15.3508 46.6659C19.0246 47.7581 22.5991 48.9496 26.4714 49.6447C28.5565 50.0418 30.6416 50.6376 32.7267 51.2333C34.6133 51.7298 36.4005 52.1269 38.287 52.6234C38.5849 52.7227 38.8828 52.822 39.2799 52.9213C38.6842 53.3184 38.287 53.1198 37.8898 53.1198C35.4076 52.5241 33.0246 51.9284 30.5423 51.3326C28.1594 50.7369 25.7764 50.3397 23.3934 49.6447C20.4147 48.6518 17.4359 47.7581 14.3579 46.8645C11.4785 46.0702 8.59907 45.2759 5.71964 44.4815C5.32247 44.3823 4.92531 44.3823 4.52815 44.3823C4.23027 44.6801 4.03169 45.0773 3.63453 45.4745C4.23027 45.673 4.72673 45.9709 5.22318 46.0702C6.81183 46.4674 8.49978 46.9638 10.0884 47.1624C12.7693 47.5596 15.3508 48.3539 17.8331 49.0489C20.4147 49.744 22.9962 50.5383 25.5778 51.2333C27.6629 51.8291 29.6487 52.3255 31.7338 52.822C34.1168 53.4177 36.4998 54.0135 38.7835 54.6092C39.1806 54.7085 39.4785 54.8078 39.8757 55.0064C39.6771 55.5028 39.3792 55.4035 38.982 55.3042C36.4005 54.6092 33.7196 53.9142 31.1381 53.2191C28.4572 52.5241 25.7764 51.8291 22.9962 51.134C20.6133 50.5383 18.2303 49.9425 15.8473 49.1482C12.8686 48.1553 9.88985 47.8574 6.81183 47.1624C5.32247 46.7652 3.9324 46.3681 2.34375 45.9709C2.54233 44.978 2.64162 44.0844 2.8402 43.0915C3.43595 40.7085 4.13098 38.3255 4.82602 35.9425C5.0246 35.1482 5.22318 34.4532 5.52105 33.6589C6.61325 30.283 7.70545 27.0064 8.79765 23.6305C10.0884 19.7581 11.4785 15.8858 12.7693 12.0135C13.365 10.1269 13.7622 8.24041 14.2586 6.35389C14.7551 4.66595 15.2516 3.07729 15.6487 1.38935C16.443 0.992187 17.2374 0.892897 18.0317 1.09148C20.6133 1.68722 23.2941 2.18368 25.8757 2.77942C28.7551 3.47446 31.5352 4.16949 34.3154 4.96382C34.8118 5.06311 35.209 5.1624 35.7055 5.26169C37.1948 5.46027 38.5849 5.85744 39.975 6.15531C42.7551 6.75105 45.3367 7.74396 48.0175 8.3397C49.7055 8.63758 51.3934 9.03474 53.0813 9.4319C53.2799 9.4319 53.3792 9.4319 53.5778 9.53119C53.6771 9.63048 53.8757 9.82907 53.8757 10.0276C53.8757 10.1269 53.6771 10.3255 53.4785 10.3255C53.2799 10.3255 53.0813 10.3255 52.8828 10.2262C49.209 9.4319 45.5352 8.53829 41.8615 7.44609C39.7764 6.85034 37.592 6.45318 35.4076 5.95673C32.4289 5.26169 29.5494 4.46736 26.5707 3.77233C23.8899 3.17658 21.1097 2.58084 18.4289 1.9851C17.9324 1.8858 17.3367 1.8858 16.6416 1.78651C15.8473 4.16949 15.4501 6.75105 14.7551 9.53119C15.5494 9.23332 16.0459 8.93545 16.8402 8.53829C16.0459 9.53119 14.5565 9.63048 14.5565 11.2191C15.4501 10.822 16.2445 10.5241 17.0388 10.1269C17.0388 10.1269 17.0388 10.2262 17.1381 10.2262C16.5423 10.6234 15.9466 10.9213 15.3508 11.3184C14.6558 11.7156 14.1594 12.3113 13.8615 13.1057C12.7693 16.0844 11.6771 19.0631 10.6842 22.0418C10.287 23.2333 9.88985 24.5241 9.59198 25.7156C8.99623 27.6021 8.49978 29.4886 7.90403 31.3752C7.01042 34.3539 6.1168 37.4319 5.22318 40.4106C4.72673 41.4035 4.42886 42.4957 4.52815 43.5879Z" fill="black"/>
<path d="M52.0874 12.1125C51.7896 12.2118 51.591 12.3111 51.3924 12.2118C50.4988 12.0133 49.6052 12.0133 48.8108 11.6161C47.0236 10.9211 45.2364 10.5239 43.3498 10.226C41.2647 9.92815 39.2789 9.63028 37.2931 8.93524C36.2009 8.63737 35.1087 8.53808 34.0165 8.3395C31.8321 7.84304 29.747 7.2473 27.6619 6.75084C27.1654 6.65155 26.5697 6.55226 25.974 6.45297C23.2931 5.95652 20.513 5.46006 17.8321 4.96361C17.5342 4.86432 17.2364 4.86432 16.9385 4.66574C16.7399 4.56645 16.7399 4.26858 16.6406 4.16928C16.8392 4.06999 16.9385 3.9707 17.1371 3.9707C17.2364 3.9707 17.435 4.06999 17.6335 4.06999C20.7115 4.66574 23.7896 5.16219 26.8676 5.85723C28.8534 6.25439 30.7399 6.75084 32.7257 7.2473C33.8179 7.54517 35.0094 7.74375 36.1016 8.04162C36.8959 8.24021 37.7896 8.24021 38.5839 8.53808C40.8676 9.23311 43.2506 9.53099 45.5342 10.1267C47.6193 10.6232 49.7045 11.3182 51.7896 12.0133C51.8888 11.8147 51.8889 11.914 52.0874 12.1125Z" fill="black"/>
<path d="M53.9717 11.3184C53.8724 11.7155 53.8724 12.0134 53.7731 12.3113C53.078 13.8006 52.6809 15.29 52.2837 16.8786C52.0851 17.5737 51.7873 18.2687 51.3901 18.8645C50.5958 20.1552 50.2979 21.446 49.9007 22.8361C48.8085 26.5098 47.8156 30.2829 46.6241 33.9567C45.3334 38.2262 43.9433 42.3964 42.9504 46.6659C42.4539 48.5524 41.8582 50.5382 41.2624 52.4247C41.1631 52.8219 40.9646 53.2191 40.766 53.6162C40.6667 53.7155 40.3688 53.7155 40.2695 53.7155C40.8653 51.7297 41.461 49.7439 41.9575 47.7581C43.149 43.29 44.4397 38.8219 45.8298 34.4531C47.1206 30.3822 48.2128 26.212 49.4043 22.1411C49.8014 20.8503 50.3972 19.5595 50.8936 18.2687C51.1915 17.3751 51.5887 16.4815 51.8866 15.5879C52.1844 14.0985 52.7802 12.8077 53.4752 11.5169C53.4752 11.5169 53.6738 11.5169 53.9717 11.3184Z" fill="black"/>
<path d="M36.3986 36.7365C35.4057 36.4387 34.7106 36.7365 34.0156 37.1337C33.7177 37.3323 33.3206 37.5309 33.5191 37.928C33.6184 38.2259 33.9163 38.5238 34.2142 38.6231C34.6113 38.8217 35.1078 38.9209 35.6042 39.0202C34.6113 39.5167 33.0227 39.0202 32.8241 38.1266C32.7248 37.8287 32.8241 37.3323 33.0227 37.1337C33.7177 36.6373 34.6113 36.2401 35.4057 35.8429C35.9021 35.7436 36.1007 35.9422 36.3986 36.7365Z" fill="black"/>
<path d="M20.0189 14.4961C20.5153 14.2975 20.9125 14.2975 21.2104 14.0989C21.7068 13.9003 22.0047 13.5032 22.2033 13.0067C22.4019 12.2124 22.0047 11.7159 21.1111 11.8152C20.7139 11.8152 20.3168 11.9145 19.8203 12.0138C20.5153 10.9216 22.0047 10.9216 22.5012 11.8152C22.799 12.5103 22.799 13.2053 22.4019 13.9003C21.9054 14.5954 21.1111 14.8932 20.0189 14.4961Z" fill="black"/>
<path d="M38.9825 18.1689C37.6917 17.5731 37.1952 16.8781 37.3938 15.7859C37.4931 15.1902 38.1882 14.5944 38.7839 14.4951C39.2804 14.4951 39.5782 14.6937 39.9754 15.488C39.8761 15.488 39.6775 15.488 39.6775 15.3887C39.1811 14.9916 38.6846 15.0909 38.2874 15.488C37.8903 15.7859 37.8903 16.3816 38.1882 16.8781C38.2875 17.0767 38.486 17.3745 38.6846 17.5731C38.8832 17.7717 39.0818 17.871 39.2804 17.9703C39.0818 17.9703 38.9825 18.0696 38.9825 18.1689Z" fill="black"/>
<path d="M10.7841 35.3464C9.98973 35.8428 9.69186 36.3393 9.89044 37.1336C10.1883 38.1265 10.9826 38.3251 11.8763 38.5237C11.8763 38.623 11.8763 38.7223 11.777 38.7223C10.7841 39.0201 10.1883 38.5237 9.59257 37.9279C8.99682 37.3322 8.99682 36.5379 9.39399 35.8428C9.69186 35.0485 9.89044 35.0485 10.7841 35.3464Z" fill="black"/>
<path d="M24.2852 36.6365C25.5759 36.0408 25.5759 36.0408 25.4766 34.75C25.1788 34.6507 24.8809 34.6507 24.4837 34.5514C24.583 34.3528 24.583 34.0549 24.7816 34.0549C24.9802 33.9556 25.3774 33.9556 25.5759 34.0549C26.1717 34.3528 26.4696 35.3457 26.1717 36.14C25.7745 36.7358 25.3774 36.9344 24.2852 36.6365Z" fill="black"/>
<path d="M32.8243 26.2123C33.3208 26.113 33.6186 26.3116 33.7179 26.8081C33.8172 27.3045 33.2215 27.7017 32.6257 27.801C32.1293 27.801 31.6328 27.4038 31.6328 27.0066C31.7321 26.4109 32.03 26.3116 32.8243 26.2123Z" fill="black"/>
<path d="M16.3438 27.5033C16.6416 27.404 16.8402 27.1062 17.1381 27.1062C17.5352 27.0069 17.8331 27.3047 17.8331 27.7019C17.8331 28.0991 17.5352 28.2976 17.1381 28.2976C16.7409 28.2976 16.443 28.0991 16.3438 27.5033Z" fill="black"/>
<path d="M25.6758 17.9715C26.0729 17.8722 26.3708 17.7729 26.6687 17.8722C26.8673 17.8722 27.0659 18.1701 27.1651 18.2693C27.2644 18.3686 27.0659 18.7658 26.8673 18.8651C26.2715 19.2623 25.8744 18.9644 25.6758 17.9715Z" fill="black"/>
<path d="M37.6914 49.446C38.7836 49.1482 39.7765 48.751 40.8687 48.4531C39.8758 49.3467 38.4857 49.7439 37.6914 49.446Z" fill="black"/>
<path d="M38.1836 48.255C39.2758 47.7585 40.1694 46.8649 41.5595 47.0635C40.9637 47.2621 40.4673 47.4606 39.8715 47.7585C39.3751 47.9571 38.7793 48.255 38.2829 48.5528C38.2829 48.4535 38.2829 48.3543 38.1836 48.255Z" fill="black"/>
<path d="M14.8555 19.8567C15.1533 19.5588 15.3519 19.2609 15.6498 19.0623C15.9477 18.8638 16.2455 19.1616 16.3448 19.4595C16.3448 19.6581 16.1462 19.956 16.047 19.956C15.7491 20.0553 15.3519 20.0553 15.0541 20.0553C14.9548 20.0553 14.9548 19.956 14.8555 19.8567Z" fill="black"/>
<path d="M31.2406 12.41C30.347 12.0129 30.1484 11.6157 30.6449 11.2185C30.7442 11.1193 31.042 11.02 31.1413 11.1193C31.2406 11.2185 31.4392 11.4171 31.4392 11.5164C31.4392 11.9136 31.3399 12.1122 31.2406 12.41Z" fill="black"/>
<path d="M43.9463 22.9355C44.4428 22.9355 44.9392 23.3327 44.9392 23.6306C44.9392 23.8292 44.7406 24.0277 44.5421 24.127C44.2442 24.2263 43.6484 23.8292 43.6484 23.432C43.6484 23.2334 43.847 23.1341 43.9463 22.9355Z" fill="black"/>
<path d="M35.8047 46.864C35.904 46.7647 36.0033 46.4668 36.2019 46.4668C36.599 46.4668 36.7976 46.7647 36.7976 47.1618C36.7976 47.3604 36.599 47.559 36.4004 47.6583C36.1026 47.7576 35.8047 47.3604 35.8047 46.864Z" fill="black"/>
<path d="M22.4021 43.2894C22.005 43.488 21.8064 43.7859 21.6078 43.7859C21.5085 43.7859 21.2107 43.5873 21.2107 43.3887C21.1114 42.9915 21.4092 42.793 21.8064 42.793C21.9057 42.793 22.005 42.9916 22.4021 43.2894Z" fill="black"/>
<path d="M22.6016 11.8145L17.1406 27.1052L12.8711 40.5095L32.4314 45.9705L37.7931 34.1549L43.0555 18.7648L38.1902 15.3889L22.6016 11.8145Z" fill="white"/>
<path d="M14.263 37.3323C14.958 37.0344 15.4545 36.9351 16.0502 36.7365C15.5537 37.5309 14.5608 37.6302 13.9651 38.6231C14.7594 38.5238 15.4545 38.4245 16.0502 38.2259C16.0502 38.3252 16.0502 38.3252 16.0502 38.3252C15.2559 38.6231 14.4615 39.0202 13.4686 39.4174C13.9651 39.7153 14.1637 39.9138 14.4615 40.0131C15.2559 40.311 15.9509 40.4103 16.7452 40.7082C20.8162 41.8997 24.9864 43.0911 29.0573 44.2826C30.2488 44.5805 31.5396 44.8784 32.9296 45.1763C33.1282 44.7791 33.3268 44.4812 33.5254 44.0841C34.419 41.6018 35.4119 39.1195 36.3055 36.538C37.0998 34.2543 37.7949 31.9706 38.4899 29.6869C38.5892 29.2897 38.7878 28.8926 38.8871 28.3961C39.7807 25.9138 40.6743 23.4316 41.5679 20.9493C41.9651 19.7578 42.3623 18.467 42.8587 17.077C42.0644 16.6798 41.2701 16.2826 40.575 15.9848C39.9793 15.7862 39.3835 15.5876 38.6885 15.4883C35.7098 14.9919 32.9296 13.8997 30.1495 12.9068C27.7665 12.0131 25.3835 11.3181 22.802 11.2188C22.4048 11.2188 22.1069 11.1195 22.0076 10.5238C22.2062 10.4245 22.5041 10.3252 22.7027 10.3252C24.7878 10.6231 26.7736 11.0202 28.7594 11.7153C31.2417 12.6089 33.724 13.5025 36.2062 14.1975C37.6956 14.5947 39.1849 14.8926 40.6743 15.1904C41.7665 15.4883 42.7594 15.9848 43.7523 16.7791C43.5537 17.3748 43.3552 17.9706 43.1566 18.5663C42.6601 20.2543 42.1637 21.9422 41.5679 23.5309C41.0715 25.0202 40.4757 26.5096 39.88 27.999C39.5821 28.694 39.2842 29.2897 39.1849 29.9848C38.9864 31.3748 38.4899 32.5663 37.8942 33.8571C37.6956 34.2543 37.5963 34.6514 37.497 35.1479C36.802 37.0344 36.2062 38.9209 35.5112 40.8075C35.0147 42.1975 34.419 43.6869 33.9225 45.077C33.5254 45.9706 33.4261 45.9706 32.5325 45.772C29.9509 45.077 27.4686 44.3819 24.8871 43.6869C23.3977 43.2897 21.9084 42.8926 20.419 42.4954C19.1282 42.0982 17.8374 41.8004 16.6459 41.4032C15.4545 41.1053 14.263 40.7082 13.0715 40.311C13.0715 40.0131 12.9722 39.7153 13.0715 39.5167C13.5679 37.5309 14.1637 35.545 14.7594 33.6585C15.5537 31.1763 16.2488 28.5947 17.0431 26.1124C17.6388 24.1266 18.3339 22.1408 19.0289 20.155C19.6247 18.467 20.419 16.7791 21.114 15.0912C21.4119 14.2968 21.6105 13.4032 21.9084 12.6089C22.0076 12.4103 22.1069 12.311 22.2062 12.1124C22.802 12.311 22.7027 12.8075 22.5041 13.1053C22.2062 13.8997 22.0076 14.694 21.6105 15.4883C20.419 17.9706 19.5254 20.6514 18.731 23.3323C17.4403 27.6018 16.0502 31.9706 14.7594 36.2401C14.4615 36.538 14.4615 36.8358 14.263 37.3323Z" fill="black"/>
<path d="M24.4845 14.4971L22.1016 24.8233L34.5129 29.1921L35.8037 25.4191L36.598 18.0715L24.4845 14.4971Z" fill="#EB584A"/>
<path d="M36.598 18.0714C32.5271 16.1849 28.1583 15.9863 23.6902 15.3906C23.6902 15.2913 23.5909 14.8941 23.6902 14.6955C23.7895 14.497 24.1867 14.3977 24.3852 14.497C26.5696 15.2913 28.8533 15.3906 31.137 15.6885C32.6264 15.887 34.0165 16.4828 35.5058 16.8799C36.0023 16.9792 36.3994 17.1778 36.8959 17.2771C37.3923 17.3764 37.4916 17.6743 37.3923 18.27C37.1938 19.1636 36.9952 20.0572 36.7966 20.9509C36.4987 22.4402 36.2009 23.9296 35.8037 25.4189C35.5058 26.6104 35.0094 27.8019 34.5129 29.192C32.3285 28.497 30.3427 27.7026 28.2576 27.0076C26.2718 26.3126 24.1867 25.5182 22.1016 24.8232C22.4987 22.2416 22.598 19.6601 23.4916 17.0785C23.5909 16.7806 23.7895 16.5821 23.9881 16.2842C24.0874 16.2842 24.1867 16.3835 24.1867 16.3835C24.1867 16.6814 24.1867 17.0785 24.0874 17.2771C23.3923 18.7665 23.2931 20.3551 23.0945 21.8445C22.9952 22.5395 22.8959 23.2345 22.8959 24.0289C26.4704 25.7168 30.3427 26.7097 33.9172 28.1991C35.1087 26.6104 36.3994 21.5466 36.598 18.0714Z" fill="black"/>
<path d="M30.4431 37.1347C30.3439 37.234 30.3439 37.234 30.3439 37.3333C30.2446 37.3333 30.2446 37.4326 30.1453 37.4326C30.046 37.4326 29.9467 37.4326 29.8474 37.3333C26.3722 35.9432 23.1949 34.156 19.5212 33.1631C19.5212 33.1631 19.4219 33.0638 19.4219 32.8652C19.7197 32.8652 19.9183 32.8652 20.2162 32.9645C22.0034 33.3617 23.6914 34.156 25.3793 34.851C26.968 35.5461 28.6559 36.2411 30.2446 36.9362C30.3439 36.9362 30.3439 37.0354 30.4431 37.1347Z" fill="black"/>
<path d="M27.9587 41.5028C26.7672 40.6092 25.4764 40.5099 24.2849 40.1128C22.3984 39.6163 20.5119 39.1199 18.6254 38.6234C18.4268 38.5241 18.3275 38.4248 18.1289 38.2262C18.3275 38.2262 18.5261 38.127 18.7246 38.127C21.6041 38.9213 24.4835 39.7156 27.2637 40.6092C27.6608 40.7085 28.058 40.9071 27.9587 41.5028Z" fill="black"/>
<path d="M27.5614 33.2619C27.4621 33.2619 27.2635 33.3612 27.1642 33.2619C24.9798 32.269 22.6961 31.2761 20.5117 30.1839C20.5117 30.0846 20.5117 30.0846 20.611 29.9854C20.8096 29.9854 21.1075 29.9854 21.306 30.0846C22.6961 30.6804 23.9869 31.2761 25.377 31.8719C26.072 32.1698 26.6677 32.4676 27.3628 32.7655C27.4621 32.8648 27.5614 32.9641 27.7599 33.0634C27.5614 33.0634 27.5614 33.1627 27.5614 33.2619Z" fill="black"/>
<path d="M29.6461 18.5675C29.7454 18.5675 29.7454 18.5675 29.7454 18.5675C29.8447 18.7661 29.8447 19.0639 29.7454 19.3618C29.944 19.4611 30.0433 19.6597 30.1426 19.759C30.3412 19.3618 30.4405 19.0639 30.3412 18.4682C30.1426 18.3689 29.944 18.1703 29.944 17.8725C29.944 17.6739 30.0433 17.4753 30.1426 17.376C29.944 17.2767 29.5468 17.1774 29.249 17.5746C29.1497 17.7732 29.1497 17.9717 29.1497 18.1703C29.249 18.3689 29.4476 18.4682 29.6461 18.5675ZM30.0433 17.8725C30.0433 18.071 30.1426 18.2696 30.3412 18.3689H30.4405V18.4682C30.5398 19.0639 30.3412 19.5604 30.1426 19.8583C30.2419 19.9576 30.2419 20.1561 30.3412 20.1561C30.5398 19.9576 30.9369 19.2625 30.9369 18.2696C31.1355 18.1703 31.3341 17.8725 31.2348 17.5746C31.1355 17.0781 30.5398 16.8795 30.1426 17.2767C30.1426 17.4753 30.0433 17.6739 30.0433 17.8725ZM31.1355 18.4682C31.1355 19.3618 30.7383 20.0568 30.5398 20.3547C30.5398 20.3547 30.5398 20.5533 30.5398 20.7519C31.3341 19.8583 31.3341 18.8654 31.3341 18.8654C31.632 18.9647 31.9298 18.7661 32.0291 18.4682C32.1284 18.071 31.8305 17.6739 31.4334 17.6739C31.4334 17.6739 31.4334 17.6739 31.4334 17.7732C31.5327 18.071 31.3341 18.2696 31.1355 18.4682ZM29.1497 18.4682C29.3483 19.3618 29.0504 20.0569 28.4546 20.5533C28.5539 20.5533 28.6532 20.6526 28.7525 20.6526C28.8518 20.6526 28.8518 20.6526 28.9511 20.6526H29.0504C29.1497 20.5533 29.4476 20.2554 29.5468 20.0569V19.9576C29.5468 19.8583 29.5468 19.759 29.5468 19.6597C29.6461 19.4611 29.5468 19.3618 29.4476 19.2625C29.5468 19.2625 29.6461 19.3618 29.6461 19.3618C29.6461 19.1632 29.6461 18.9647 29.6461 18.7661C29.6461 18.7661 29.6461 18.7661 29.5468 18.7661C29.249 18.6668 29.0504 18.4682 29.0504 18.2696C28.9511 18.071 29.0504 17.8725 29.1497 17.6739C28.8518 17.5746 28.5539 17.7732 28.5539 18.071C28.5539 18.1703 28.7525 18.4682 29.1497 18.4682ZM29.0504 19.1632C28.9511 19.0639 28.8518 19.0639 28.7525 19.0639C28.8518 19.1632 28.7525 19.4611 28.7525 19.6597L28.8518 19.759C28.9511 19.4611 29.0504 19.3618 29.0504 19.1632ZM29.249 20.8512C29.4476 20.7519 29.6461 20.6526 29.6461 20.454C29.6461 20.3547 29.5468 20.1561 29.4476 20.0569C29.3483 20.3547 29.0504 20.5533 28.9511 20.7519C29.1497 20.7519 29.249 20.7519 29.249 20.8512ZM28.4546 21.149C28.3554 21.0498 28.3554 21.0498 28.3554 21.149C28.3554 21.2483 28.3554 21.2483 28.4546 21.2483C28.5539 21.2483 28.5539 21.2483 28.4546 21.149C28.5539 21.2483 28.5539 21.149 28.4546 21.149C28.5539 21.149 28.5539 21.149 28.4546 21.149ZM30.5398 25.3193C29.5468 25.3193 28.8518 24.7235 28.6532 24.1278C28.9511 24.8228 29.8447 25.22 30.5398 25.22C30.639 24.9221 32.327 22.837 30.3412 21.2483C30.3412 21.3476 30.2419 21.3476 30.2419 21.4469C30.4405 21.6455 30.7383 21.9434 30.7383 22.6384C30.7383 21.9434 30.2419 21.5462 30.0433 21.3476C30.5398 21.4469 30.4405 20.2554 30.4405 20.2554C30.1426 20.0569 30.1426 19.4611 29.6461 19.2625C29.7454 19.3618 29.5468 19.6597 29.5468 19.8583C29.6461 20.0568 29.8447 20.3547 29.8447 20.3547C29.7454 20.5533 29.5468 20.7519 29.3483 20.8512C29.5468 21.0498 29.7454 21.149 29.8447 21.3476C29.5468 21.2483 29.3483 21.4469 29.3483 21.4469C29.3483 21.4469 29.4476 21.2483 29.7454 21.2483C29.5468 21.0498 29.3483 20.8512 29.0504 20.7519C28.8518 20.6526 28.5539 20.7519 28.3554 20.5533C28.1568 20.7519 27.0646 21.2483 25.8731 21.0498C25.6745 21.0498 25.2773 20.9505 25.2773 20.9505V21.0498C25.2773 21.0498 25.4759 21.149 25.6745 21.0498C25.6745 21.149 25.4759 21.2483 25.3766 21.149C25.5752 21.7448 27.1639 22.4398 28.1568 21.9434C28.0575 22.142 27.7596 22.2412 27.4617 22.2412C27.561 22.2412 27.7596 22.3405 27.8589 22.4398C27.9582 22.5391 28.0575 22.5391 28.1568 22.5391C28.1568 22.4398 28.2561 22.3405 28.4546 22.3405C28.6532 22.4398 28.8518 22.7377 29.3483 22.837C29.8447 22.9363 30.2419 22.6384 30.3412 21.9434C30.2419 22.7377 29.7454 23.0356 29.3483 22.9363C29.3483 23.3334 29.0504 23.7306 28.7525 23.9292C28.5539 23.9292 28.3554 23.9292 28.2561 24.1278C28.4546 24.7235 29.3483 25.7164 30.7383 25.6171C30.639 25.6171 30.639 25.4186 30.5398 25.3193ZM28.8518 21.4469C28.8518 21.3476 28.8518 21.3476 28.8518 21.4469C28.7525 21.3476 28.7525 21.3476 28.7525 21.3476L28.6532 21.2483V21.3476C28.6532 21.4469 28.5539 21.5462 28.4546 21.4469C28.3554 21.3476 28.2561 21.3476 28.2561 21.2483C28.2561 21.0498 28.3554 21.0498 28.3554 21.0498C28.3554 21.0498 28.3554 21.0498 28.2561 21.0498C28.2561 21.0498 28.2561 21.0498 28.1568 21.0498H28.2561C28.2561 21.0498 28.3554 21.0498 28.3554 21.149L28.4546 21.2483C28.4546 21.2483 28.4546 21.2483 28.4546 21.3476C28.8518 21.3476 28.8518 21.3476 28.8518 21.4469C28.8518 21.3476 28.8518 21.3476 28.8518 21.4469C28.9511 21.4469 28.9511 21.4469 28.8518 21.4469C28.9511 21.4469 28.8518 21.4469 28.8518 21.4469Z" fill="white"/>
</svg>
