<svg width="59" height="86" viewBox="0 0 59 86" fill="none" xmlns="http://www.w3.org/2000/svg">
<path d="M58.0016 53.5227C57.6919 55.8965 57.2791 58.3735 56.8663 60.9537C56.4534 64.1532 54.5957 66.7334 52.6347 69.004C50.2609 71.7906 47.4743 74.0612 44.0684 75.8158C39.1144 78.2928 33.954 79.2217 28.5871 79.5313C21.3625 79.8409 14.8604 77.6735 9.08071 73.0291C4.95237 69.7265 2.78499 65.2885 0.617605 60.6441C0.204771 59.8184 0.101562 58.8896 0.101562 58.0639C0.411188 54.8644 0.30798 51.5618 1.34007 48.6719C2.68178 44.9564 3.81707 41.0345 5.98445 37.5254C8.46146 33.8099 11.2481 30.6104 14.8604 28.1334C17.9566 25.966 21.4657 24.5211 25.2845 24.3147C25.9037 24.3147 26.523 24.2115 27.039 24.1083C36.1214 22.5602 43.4492 26.2757 49.9513 32.0553C53.77 35.5644 55.4214 40.2088 56.6599 45.0596C57.4855 47.6398 57.5887 50.5297 58.0016 53.5227ZM55.9374 53.3163C56.1438 46.1949 54.1828 39.6928 49.4353 34.2227C45.1005 29.2687 39.424 26.1725 33.0251 25.6564C26.9358 25.1404 21.1561 26.9981 16.0989 30.92C10.3192 35.5644 6.39728 41.6537 3.71386 48.3623C2.57857 51.3553 2.06253 55.0709 2.68178 58.2703C4.1267 66.4238 9.28713 72.1003 16.9246 75.1965C25.3877 78.6024 33.954 78.0864 42.3139 74.1644C51.0866 70.2425 56.247 63.6372 55.9374 53.3163Z" fill="#F15748"/>
<path d="M34.3657 48.7749C33.2304 47.9493 31.8887 47.4332 30.6502 47.0204C29.8245 46.7108 28.7925 46.5043 28.1732 47.0204C27.8636 47.33 27.6572 47.7428 27.554 48.1557C26.7283 50.3231 25.9026 52.5936 25.0769 54.761C24.4577 57.8573 22.9096 60.7471 22.4967 63.8434C22.1871 65.7011 22.0839 67.4557 21.7743 69.3134C21.4646 71.1712 21.0518 73.0289 20.8454 74.8867C20.8454 74.9899 20.7422 75.0931 20.7422 75.2995C20.7422 76.8477 20.9486 78.2926 22.1871 77.7765C23.632 77.2605 25.7994 71.584 26.5219 70.1391C29.4117 65.0819 32.3015 60.0247 35.1914 54.9674C35.7074 54.1418 36.1203 53.3161 36.2235 52.284C36.2235 50.9423 35.3978 49.6006 34.3657 48.7749Z" fill="white"/>
<path d="M31.787 26.1724C31.787 25.7596 31.9934 25.2436 32.4062 25.1404C32.6126 25.1404 32.9223 25.2436 33.2319 25.1404C33.5415 25.0371 33.6447 24.7275 33.6447 24.4179C33.9543 22.4569 33.9543 20.3928 33.8511 18.4318C33.7479 15.2323 33.5415 11.9297 33.4383 8.73019C34.3672 9.24623 35.6057 9.14302 36.5346 8.73019C37.4634 8.21414 38.2891 7.49168 39.0116 6.66602C38.2891 11.62 38.0827 16.6772 38.2891 21.7345C41.9014 17.8125 43.2431 12.3425 44.4816 7.18206C45.7201 7.49168 47.0618 7.38848 48.3003 7.07885C45.5137 13.0649 42.8303 19.051 40.0437 25.0371C43.1399 23.5922 46.4426 22.3537 49.7453 21.4248C50.1581 22.1473 49.9517 23.0762 49.5388 23.6954C49.0228 24.3147 48.3003 24.8307 47.5779 25.2436C42.9335 28.2366 38.9084 32.2617 36.1217 37.0093C35.8121 37.5254 34.9864 39.6928 34.3672 39.4863C33.6447 39.2799 33.4383 36.3901 33.3351 35.874C32.5094 32.6746 31.5806 29.4751 31.787 26.1724Z" fill="white"/>
<path d="M23.6331 65.0823C22.2914 70.7587 20.8464 76.5384 21.2593 82.4213C22.1881 79.9443 22.3946 77.2609 22.9106 74.5775C24.3555 67.1464 28.5871 60.4379 29.6192 53.0069C30.1352 49.2914 28.071 50.4267 26.7293 52.9037C24.9748 56.4127 24.5619 61.2636 23.6331 65.0823Z" fill="#C5C3C2"/>
<path d="M32.0946 25.6562C33.2299 26.2755 34.3652 26.8948 34.9844 28.03C35.6037 29.2685 36.0165 37.8349 33.3331 37.5252C31.1657 37.2156 31.8881 27.2044 32.0946 25.6562Z" fill="#C5C3C2"/>
<path d="M51.294 22.9727C50.778 22.8695 50.2619 22.6631 49.6427 22.5599C49.6427 22.4567 49.7459 22.4567 49.7459 22.4567C49.9523 22.2503 50.1587 22.1471 50.4683 21.8374C50.6748 21.631 50.9844 21.2182 50.9844 20.7021V20.5989V20.2893H50.6748C47.2689 20.4957 44.2758 21.9407 41.2828 23.3856C41.2828 23.2824 41.2828 23.2824 41.2828 23.2824C42.8309 19.9797 44.1726 16.5738 45.824 13.3743C46.856 11.207 48.1978 9.03958 49.4363 6.8722C49.6427 6.45937 49.6427 6.14974 49.6427 5.73691L49.7459 5.22086L49.2298 5.42728C47.8881 6.04653 46.7528 6.45937 45.6175 6.97541C45.6175 6.56258 45.7207 6.25295 45.9272 5.84012C46.1336 5.42728 46.34 5.01445 46.34 4.4984C46.34 4.18878 46.2368 3.98236 46.1336 3.67274L45.9272 3.2599L45.6175 3.56953C45.4111 3.77594 45.2047 3.87915 45.1015 4.08557C44.379 5.6337 43.5534 7.18183 42.9341 8.72996C41.386 12.5487 40.2507 16.2642 38.8058 20.0829C38.8058 20.0829 38.1865 21.9407 38.0833 22.0439C38.0833 21.9407 38.2897 19.6701 38.2897 19.5669C38.2897 18.638 38.4962 18.2251 38.5994 17.2963C38.8058 14.5096 38.909 11.6198 39.2186 8.83316C39.425 6.76899 39.8379 4.60161 40.1475 2.53744C40.1475 2.33102 40.2507 2.12461 40.2507 1.91819C40.2507 1.71177 40.2507 1.50536 40.0443 1.40215C39.8379 1.29894 39.8379 0.886105 39.5282 0.782896L39.2186 0.679688L39.1154 0.989313C38.5994 2.33102 38.4961 3.87915 38.1865 5.32407C37.9801 6.66578 37.6705 7.90429 36.948 8.93637C36.6384 8.72996 36.5352 8.31712 36.3288 7.80108C36.1224 7.28504 35.7095 6.66578 34.9871 6.35616L34.5742 6.25295V6.66578C34.5742 7.59466 34.5742 8.42033 34.5742 9.246C34.471 8.62675 34.3678 7.90429 34.0582 7.38824C33.8518 6.97541 33.7486 6.35616 33.5421 5.84012C33.3357 5.22086 33.0261 4.60161 32.3036 4.29199L31.8908 3.87915V4.3952C31.8908 4.70482 31.8908 4.91124 31.8908 5.11766C31.8908 5.22086 31.8908 5.32407 31.8908 5.53049C32.3036 6.8722 32.7165 8.1107 32.7165 9.55562C32.7165 9.76204 32.7165 10.0717 32.7165 10.2781V10.3813C32.7165 10.5877 32.8197 10.7941 32.8197 10.8973C33.6453 14.7161 33.8518 18.5348 33.8518 22.4567C33.8518 22.8695 33.8518 23.1792 33.8518 23.592C33.8518 24.108 33.7486 24.5209 33.7486 25.1401C33.6453 25.0369 33.4389 24.9337 33.3357 24.7273C33.0261 24.3144 32.8197 23.7984 32.5101 23.3856C32.2004 22.8695 31.6844 22.4567 30.9619 22.4567H30.6523V22.7663C30.6523 23.1792 30.5491 23.592 30.5491 24.0048C30.5491 24.108 30.5491 24.2112 30.5491 24.3144C30.8587 27.4107 31.1683 30.507 31.6844 33.5C31.994 35.3578 32.0972 37.2155 32.0972 39.0733C32.0972 39.7957 32.0972 40.6214 31.994 41.3439C31.8908 43.2016 31.6844 45.1626 30.9619 46.7107C30.8587 46.7107 30.8587 46.7107 30.7555 46.7107C30.3427 46.7107 29.9298 46.5043 29.517 46.2979C29.1042 46.0915 28.5881 45.885 28.0721 45.885C27.8657 45.885 27.556 45.885 27.2464 46.0915L27.04 46.1947V46.4011C26.9368 47.1235 26.9368 47.7428 26.8336 48.362C25.9047 52.6968 24.9758 57.1348 23.8405 61.4695C22.7052 65.9075 21.4667 70.3455 20.3314 74.7834C19.5058 77.8797 18.8865 81.0792 18.1641 84.2786C18.1641 84.3818 18.1641 84.485 18.1641 84.5882C18.1641 84.8979 18.2673 85.1043 18.2673 85.4139V85.6203H18.4737H18.5769C18.8865 85.6203 19.1961 85.5171 19.4026 85.3107C19.609 85.1043 19.7122 84.8979 19.8154 84.6915C20.9507 82.2145 22.086 79.6342 23.2213 77.1572C23.7373 76.0219 24.1502 74.8867 24.6662 73.8546C26.3175 70.7583 28.1753 67.7653 29.9298 64.669C30.5491 63.5337 31.3748 62.3984 31.994 61.2631C32.7165 60.0246 33.4389 58.6829 34.1614 57.4444C34.9871 55.8963 35.9159 54.4514 36.6384 52.8C36.948 52.1808 37.0512 51.7679 37.0512 51.2519C37.0512 50.9423 36.948 50.6326 36.7416 50.323C36.5352 50.0134 36.2256 49.807 35.8127 49.4973C34.7806 48.6717 33.6453 47.9492 32.6133 47.2267C32.8197 47.1235 33.0261 46.9171 33.1293 46.6075C33.7486 44.853 34.1614 43.0984 34.7806 41.3439C35.6063 39.0733 36.432 36.8027 37.3609 34.6353C37.9801 33.3968 38.8058 32.1583 39.7347 31.2294C41.5924 29.3717 43.6566 27.8235 45.9272 26.7915C47.1657 26.2754 48.5074 25.7594 49.7459 25.1401C50.0555 25.0369 50.3651 24.9337 50.6748 24.6241C50.9844 24.3144 51.1908 23.9016 51.1908 23.2824V23.0759L51.294 22.9727ZM28.5881 64.4626C28.3817 64.4626 28.1753 64.3594 27.8657 64.2562C27.556 64.153 27.3496 63.9465 26.9368 63.9465C26.7304 63.9465 26.4207 64.0497 26.2143 64.153L26.1111 64.2562V64.4626C26.1111 64.7722 26.3175 64.9786 26.4207 65.185C26.6272 65.3915 26.9368 65.4947 27.1432 65.5979C27.3496 65.7011 27.4528 65.8043 27.556 66.0107C27.04 67.0428 26.4207 68.1781 25.9047 69.3134C25.2855 70.4487 24.563 71.584 23.9437 72.8225C23.3245 74.061 22.8084 75.2995 22.1892 76.538C21.8796 77.1572 21.5699 77.8797 21.2603 78.4989C21.6732 76.9508 21.9828 75.5059 22.3956 73.9578C23.2213 70.8615 24.2534 67.7653 24.8726 64.5658C25.2855 62.5016 26.2143 61.3663 27.8657 60.7471C28.1753 60.6439 28.2785 60.4374 28.4849 60.3342L28.6913 60.231L28.5881 60.0246C28.5881 59.9214 28.4849 59.8182 28.4849 59.715L28.3817 59.4054L28.0721 59.5086C27.4528 59.715 26.7304 60.0246 26.0079 60.3342C26.2143 59.715 26.524 59.4054 27.04 59.0957C27.556 58.7861 28.1753 58.4765 28.6913 57.9604L28.7945 57.8572L29.517 56.9284L28.4849 57.4444C27.8657 57.754 27.3496 57.9604 26.6272 58.2701C26.7304 57.1348 27.04 55.9995 27.3496 54.8642C28.0721 54.9674 28.8978 55.0706 29.7234 55.1738L30.1363 55.277L30.033 54.8642C29.9298 54.3481 29.7234 54.0385 29.4138 53.9353C29.1042 53.7289 28.8978 53.7289 28.6913 53.6257C28.2785 53.4193 27.9689 53.3161 27.8657 53.2128C27.7625 53.1096 27.7625 53.0064 27.6593 52.8C27.6593 52.5936 27.6593 52.284 27.7625 51.9743C28.0721 50.6326 28.4849 49.1877 29.001 47.7428C31.2716 48.4653 33.3357 49.1877 35.1935 50.8391C35.5031 51.1487 35.6063 51.3551 35.6063 51.6647C35.6063 51.8711 35.6063 51.9743 35.5031 52.1808C35.3999 52.5936 35.1935 52.9032 34.9871 53.3161C33.3357 56.4123 31.5812 59.5086 29.9298 62.6048C29.517 63.1209 29.001 63.8433 28.5881 64.4626ZM44.2758 8.21391C45.5143 7.69787 47.4753 6.97541 48.6106 6.56258C48.6106 6.76899 47.8881 8.21391 47.7849 8.31712C47.2689 9.45242 46.6496 10.4845 46.0304 11.5166C44.1726 14.5096 43.1405 16.8834 41.7988 20.0829C41.386 21.115 40.6635 22.2503 40.1475 23.3856C39.9411 23.7984 39.5282 24.7273 39.425 25.1401L39.2186 25.4497L39.3218 25.7594L39.425 25.9658L39.6314 25.8626C39.9411 25.6562 40.3539 25.553 40.7667 25.3465C42.7277 24.108 44.6887 22.8695 46.856 22.2503C47.2689 22.1471 49.4363 21.2182 49.8491 21.2182C49.4363 21.631 47.2689 22.8695 46.856 23.3856L46.6496 23.592L46.856 23.7984C47.1657 24.108 47.6817 23.7984 47.9913 23.7984C48.301 23.7984 50.3651 23.7984 50.6748 23.7984C47.2689 24.8305 42.5213 27.1011 39.7347 29.3717C37.9801 30.8166 36.8448 32.7775 35.9159 34.8417C35.1935 36.4931 34.5742 38.2476 33.955 40.1054C33.955 40.0021 33.955 39.8989 33.955 39.7957C33.955 39.0733 33.955 38.454 33.955 37.7316C33.955 37.5251 33.955 37.3187 33.955 37.2155C33.8518 35.8738 33.3357 34.6353 33.2325 33.1904C33.5421 33.1904 34.2646 32.8808 34.471 32.7776C34.8839 32.4679 35.0903 32.0551 35.3999 31.7455C35.6063 31.4358 35.9159 31.1262 36.2256 31.023L36.948 30.8166L36.2256 30.507C36.1224 30.4038 35.9159 30.4038 35.8127 30.4038C35.5031 30.4038 35.2967 30.507 35.0903 30.6102C34.8839 30.7134 34.7806 30.8166 34.5742 30.9198C34.1614 31.1262 33.2325 31.539 32.8197 31.7455C32.4068 30.3005 32.3036 28.8556 32.3036 27.2043C32.3036 27.1011 32.4068 25.2433 32.4068 25.1401C32.9229 25.553 33.6453 27.6171 34.0582 27.9267L34.2646 28.1332L34.471 27.9267C34.9871 27.3075 34.7806 26.069 34.8838 25.0369C34.8838 24.2112 34.8838 23.6952 34.8838 22.8695C34.8838 21.4246 34.8839 20.2893 34.7806 18.8444C34.6774 17.5027 34.5742 15.3353 34.3678 13.9936C34.3678 13.7872 33.6453 8.62675 33.6453 8.52354C33.6453 8.21391 35.0903 12.3423 35.2967 12.0326C35.5031 11.9294 35.2967 11.1038 35.3999 10.5877C35.5031 10.0717 35.6063 9.14279 35.6063 8.52354C35.9159 8.83316 36.432 10.3813 36.7416 10.6909L36.948 10.8973L37.1544 10.6909C37.3609 10.4845 38.3929 8.62675 38.5994 8.42033C38.3929 11.8262 37.7737 16.9866 37.5673 20.3925C37.4641 21.4246 37.3609 22.1471 37.3609 23.1792C37.3609 23.2824 37.1544 24.2112 37.2576 24.7273V25.6562L37.4641 25.2433C37.7737 25.0369 37.9801 24.6241 38.2897 24.108C39.2186 22.5599 40.2507 19.7733 41.2828 16.9866C42.1084 14.2 43.347 10.7941 44.2758 8.21391Z" fill="#12100B"/>
<path d="M33.7461 33.7065C34.1589 33.5001 34.5718 33.2937 34.9846 33.0873C35.2942 32.9841 35.6038 32.8809 35.9135 32.8809C35.191 33.3969 34.5718 33.9129 33.7461 34.0162C33.8493 33.9129 33.8493 33.8097 33.7461 33.7065Z" fill="#12100B"/>
<path d="M35.6076 32.9834H35.4011C35.0915 32.9834 34.7819 33.0866 34.4723 33.1898C34.0594 33.3962 33.6466 33.6026 33.2338 33.8091L33.0273 33.9123V34.1187C33.0273 34.2219 33.0273 34.3251 33.1306 34.4283V34.6347H33.337C34.3691 34.6347 34.9883 33.9123 35.6076 33.4994L36.2268 33.0866L35.6076 32.9834Z" fill="#12100B"/>
</svg>
