<svg width="167" height="165" viewBox="0 0 167 165" fill="none" xmlns="http://www.w3.org/2000/svg">
<g filter="url(#filter0_d)">
<path d="M162.454 80.5765L153.501 93.3555L157.557 108.507L144.778 117.46L143.4 133.07L128.326 137.049L121.821 151.282L106.288 149.904L95.2685 161L81.1887 154.343L67.0323 161L56.0898 149.981L40.5561 151.358L34.0518 137.125L18.9772 133.146L17.5998 117.536L4.89734 108.507L9.02947 93.3555L0 80.5765L8.95295 67.721L4.89734 52.5699L17.6763 43.6169L19.0537 28.0067L34.1283 23.951L40.5561 9.71816L56.0898 11.0955L67.1088 0L81.2652 6.73384L95.2685 0L106.288 11.1721L121.821 9.79468L128.326 24.0276L143.4 28.0832L144.778 43.6934L157.557 52.6464L153.501 67.7975L162.454 80.5765Z" fill="#129D6F"/>
<path d="M153.091 93.0686L152.958 93.2596L153.018 93.4848L156.983 108.298L144.491 117.05L144.3 117.184L144.28 117.416L142.933 132.676L128.198 136.566L127.969 136.626L127.871 136.841L121.513 150.753L106.332 149.406L106.098 149.386L105.933 149.552L95.1628 160.397L81.4024 153.891L81.1893 153.79L80.9759 153.89L67.1386 160.397L56.4446 149.629L56.2793 149.462L56.0457 149.483L40.864 150.829L34.5066 136.918L34.4082 136.702L34.1794 136.642L19.4444 132.753L18.0979 117.492L18.0776 117.262L17.8895 117.129L5.47158 108.301L9.51185 93.4871L9.5739 93.2596L9.43782 93.067L0.610753 80.5744L9.36325 68.0068L9.49601 67.8161L9.43594 67.5917L5.47081 52.7786L17.9632 44.0264L18.1539 43.8928L18.1744 43.6609L19.5211 28.3987L34.2582 24.4339L34.4867 24.3724L34.584 24.1568L40.8656 10.2476L56.0457 11.5936L56.2793 11.6143L56.4446 11.4479L67.214 0.603696L81.0504 7.18536L81.2664 7.28808L81.4819 7.18445L95.1634 0.605385L105.932 11.5232L106.097 11.6909L106.332 11.6701L121.513 10.3239L127.871 24.2354L127.969 24.4493L128.196 24.5104L142.933 28.4752L144.28 43.7374L144.3 43.9693L144.491 44.1029L156.983 52.8551L153.018 67.6682L152.958 67.8935L153.091 68.0844L161.843 80.5765L153.091 93.0686Z" stroke="black" stroke-opacity="0.2"/>
<path d="M51.1227 24.8672H55.867L59.54 39.3296H59.6165V24.8672H62.9834V48.9713H59.0809L54.5661 31.3715H54.4896V48.9713H51.1227V24.8672Z" fill="white"/>
<path d="M66.2725 43.2317V30.6057C66.2725 26.7797 68.3385 24.5605 72.0115 24.5605C75.7611 24.5605 77.7506 26.7797 77.7506 30.6057V43.3082C77.7506 47.1342 75.6845 49.3533 72.0115 49.3533C68.262 49.2768 66.2725 47.1342 66.2725 43.2317ZM73.9246 43.4612V30.2996C73.9246 28.6162 73.1593 27.9275 71.935 27.9275C70.7107 27.9275 69.9455 28.6162 69.9455 30.2996V43.4612C69.9455 45.1447 70.7107 45.8334 71.935 45.8334C73.1593 45.8334 73.9246 45.2212 73.9246 43.4612Z" fill="white"/>
<path d="M80.0483 24.8672H83.7213L85.4048 43.3853H85.4813L87.2413 24.8672H91.3734L93.1334 43.3853H93.2099L94.8934 24.8672H98.1838L95.8116 48.9713H91.0674L89.3839 32.7488H89.3074L87.5474 48.9713H82.497L80.0483 24.8672Z" fill="white"/>
<path d="M100.866 24.8672H111.196V28.3106H104.692V34.6619H109.896V38.1053H104.692V45.5278H111.196V48.9713H100.866V24.8672Z" fill="white"/>
<path d="M27.8611 64.1221H34.8245L40.2575 85.3184H40.334V64.1221H45.3079V99.4747H39.5688L32.9115 73.6872H32.8349V99.4747H27.8611V64.1221Z" fill="white"/>
<path d="M50.4377 64.1221H56.0238V99.4747H50.4377V64.1221Z" fill="white"/>
<path d="M60.0715 94.5029L70.4019 69.1744H60.5307V64.1241H76.294V69.0979L65.9636 94.4263H76.294V99.4767H60.0715V94.5029ZM65.8871 56.625H70.9375V61.7519H65.8871V56.625Z" fill="white"/>
<path d="M79.5156 91.0576V89.068H84.7956V91.5167C84.7956 94.0419 85.9434 94.9601 87.7034 94.9601C89.4633 94.9601 90.6112 94.0419 90.6112 91.4402C90.6112 88.5324 89.4633 86.6194 85.8669 83.482C81.1991 79.4264 79.6687 76.5186 79.6687 72.463C79.6687 66.877 82.5765 63.6631 87.9329 63.6631C93.2894 63.6631 96.0441 66.877 96.0441 72.5395V73.9934H90.7642V72.1569C90.7642 69.6317 89.7694 68.6369 88.0094 68.6369C86.2495 68.6369 85.2547 69.6317 85.2547 72.0039C85.2547 74.6056 86.4025 76.4421 90.0755 79.656C94.7433 83.7116 96.1972 86.5428 96.1972 90.9811C96.1972 96.7201 93.2894 99.934 87.7799 99.934C82.2704 100.011 79.5156 96.7201 79.5156 91.0576Z" fill="white"/>
<path d="M99.1799 94.5009L109.434 69.1725H99.6391V64.1221H115.402V69.0959L105.072 94.4244H115.402V99.4747H99.1799V94.5009Z" fill="white"/>
<path d="M119.537 64.1221H134.688V69.1725H125.123V78.508H132.775V83.5584H125.123V94.4244H134.688V99.4747H119.537V64.1221Z" fill="white"/>
<path d="M53.9546 130.618V117.686C53.9546 113.937 55.8676 111.794 59.5406 111.794C63.2136 111.794 65.1266 114.013 65.1266 117.686V120.211H61.5302V117.456C61.5302 115.85 60.765 115.237 59.6171 115.237C58.4693 115.237 57.7041 115.926 57.7041 117.456V130.924C57.7041 132.531 58.4693 133.143 59.6171 133.143C60.765 133.143 61.5302 132.531 61.5302 130.924V127.251H65.1266V130.695C65.1266 134.444 63.2136 136.587 59.5406 136.587C55.9441 136.51 53.9546 134.368 53.9546 130.618Z" fill="white"/>
<path d="M68.1069 112.101H78.4373V115.544H71.933V121.895H77.1364V125.339H71.933V132.761H78.4373V136.205H68.1069V112.101Z" fill="white"/>
<path d="M81.2742 112.101H86.0185L89.6915 126.563H89.768V112.101H93.1349V136.205H89.2323L84.7176 118.605H84.6411V136.205H81.2742V112.101Z" fill="white"/>
<path d="M100.174 125.951L95.5825 112.101H99.6381L102.24 120.977H102.316L104.918 112.101H108.591L104 125.951V136.205H100.174V125.951Z" fill="white"/>
</g>
<defs>
<filter id="filter0_d" x="0" y="0" width="166.454" height="165" filterUnits="userSpaceOnUse" color-interpolation-filters="sRGB">
<feFlood flood-opacity="0" result="BackgroundImageFix"/>
<feColorMatrix in="SourceAlpha" type="matrix" values="0 0 0 0 0 0 0 0 0 0 0 0 0 0 0 0 0 0 127 0"/>
<feOffset dx="4" dy="4"/>
<feColorMatrix type="matrix" values="0 0 0 0 0 0 0 0 0 0 0 0 0 0 0 0 0 0 0.1 0"/>
<feBlend mode="normal" in2="BackgroundImageFix" result="effect1_dropShadow"/>
<feBlend mode="normal" in="SourceGraphic" in2="effect1_dropShadow" result="shape"/>
</filter>
</defs>
</svg>
