<svg width="107" height="70" viewBox="0 0 107 70" fill="none" xmlns="http://www.w3.org/2000/svg">
<path d="M6.49356 57.3472C8.00787 55.3028 10.9608 55.53 13.3837 55C13.9894 54.8485 14.6708 54.6971 15.1251 54.2428C16.1852 53.3342 16.1094 51.5928 15.958 50.1542C15.0494 40.2354 19.2895 29.9381 27.0882 23.8051C34.8869 17.6722 46.2443 16.3093 55.1787 20.7008C57.3745 21.7608 59.4188 23.1994 61.8417 23.7294C65.3246 24.4866 68.959 23.1237 72.2905 21.6851C77.3634 19.4136 82.3607 16.8393 86.9036 13.6592C89.4022 11.9935 91.8251 10.0249 93.1123 7.2991C93.6423 6.08765 94.0209 4.72477 95.0809 3.8919C96.2166 2.9076 97.9581 2.98331 99.3967 3.05903C98.5638 4.42191 99.0938 6.23909 100.154 7.37482C101.214 8.51056 102.728 9.192 104.167 9.87344C105.681 10.6306 107.423 12.1449 106.741 13.6592C101.441 16.0064 94.3995 12.5235 89.7808 16.1578C87.1308 18.2779 86.4493 21.9879 86.3736 25.3194C86.2979 28.6509 86.525 32.2096 85.0864 35.3139C83.7235 38.1154 80.9221 40.4626 80.9978 43.6426C81.1492 48.5641 87.8879 50.3056 90.0837 54.6971C91.2951 57.1957 90.7651 60.5272 88.7208 62.4201C85.5407 65.5245 80.3163 64.6916 75.8491 64.6916C71.3062 64.6916 66.839 65.903 62.4474 66.8116C51.1658 69.0831 39.5056 69.6131 27.9968 68.3259C24.5896 68.1745 -0.245137 66.3573 6.49356 57.3472Z" fill="white"/>
<path d="M84.7073 36.3755C86.3731 33.1955 86.2973 29.4097 86.0702 25.7753C85.9945 24.7153 85.9188 23.6553 85.313 22.8224C84.7073 22.0653 83.7987 21.6867 82.8901 21.3838C81.9816 21.081 80.9972 20.8538 80.0887 21.1567C78.8772 21.611 78.1958 22.7467 77.6658 23.8825C76 27.2897 70.6242 37.3598 72.82 41.0699C75.8486 45.9914 83.1173 39.3285 84.7073 36.3755Z" fill="#BCBCBB"/>
<path d="M75.0929 56.4396C77.3644 55.8339 80.0144 54.9253 80.923 52.7296C81.5288 51.3667 81.8316 49.3223 83.2702 49.4738C83.5731 49.5495 83.8759 49.7009 84.1788 49.8524C85.7688 50.9124 86.6774 52.881 86.6017 54.7739C86.4503 56.6668 85.3145 58.4839 83.6488 59.3925C82.4374 59.9983 81.1502 60.2254 79.7873 60.3768C71.61 61.4369 63.2056 62.4212 55.104 60.8311C52.4539 60.3011 49.8039 59.3925 47.0781 59.0897C49.8039 61.134 57.224 59.3925 60.4798 59.014C65.3256 58.5597 70.2471 57.6511 75.0929 56.4396Z" fill="#BCBCBB"/>
<path d="M22.3915 55.8365C21.4829 55.3822 20.5743 54.9279 20.1958 54.0193C19.8929 53.4136 19.8929 52.8078 19.8929 52.1264C19.8172 49.9306 20.4229 47.2806 22.4672 46.5234C20.3472 47.2806 32.4617 56.215 32.386 56.0636C35.2632 61.7423 23.7544 56.5179 22.3915 55.8365Z" fill="#BCBCBB"/>
<path d="M16.0326 52.9565C16.0326 51.8965 16.1083 50.8364 16.0326 49.7764C15.5026 44.7792 16.7897 40.2362 18.8341 35.6933C21.787 29.2575 26.7842 25.0174 32.7657 21.6102C37.4601 18.9601 42.5331 17.5216 47.8332 17.2944C51.6947 17.0673 55.6319 17.5215 59.2662 19.0359C60.3262 19.4902 61.1591 20.0959 61.5377 21.5345C61.0834 21.4588 60.7048 21.4588 60.4777 21.383C59.3419 20.7773 58.2819 20.2473 56.919 20.7773C56.6162 20.9288 56.0862 20.7773 55.7076 20.7016C49.2718 18.3544 43.1388 19.7173 37.0815 21.9888C33.3715 23.3517 29.8885 25.396 27.0871 28.1975C24.967 30.2418 23.3013 32.7404 21.9384 35.3904C19.5155 40.0848 18.1526 44.9306 18.6826 50.155C18.7583 50.685 18.8341 51.1393 19.1369 51.745C19.3641 48.7921 21.4841 47.0507 23.3013 45.1578C25.1942 43.1892 27.0871 41.1448 29.6614 39.8577C30.7214 39.3277 31.63 38.3434 32.69 37.6619C33.0686 37.3591 33.5986 37.2833 34.2043 37.0562C34.3558 38.5705 33.75 39.4791 33.0686 40.312C32.16 41.5234 31.0243 42.5834 30.1157 43.8706C29.51 44.7035 28.98 45.6121 28.6771 46.5964C28.2228 48.035 28.98 49.0193 30.4943 49.1707C31.4786 49.2464 32.4629 49.2464 33.3715 49.2464C36.0972 49.1707 38.7473 49.5493 41.3973 50.3822C42.3059 50.685 43.1388 51.1393 43.9717 51.745C44.2745 51.9722 44.1988 52.5779 44.3502 53.0322C43.896 53.0322 43.3659 53.2593 43.0631 53.0322C40.0345 51.3665 36.8544 50.8364 33.4472 50.9122C32.3115 50.9122 31.2514 50.9122 30.1157 50.7607C27.3142 50.3822 26.1028 48.1107 27.4656 45.5363C28.0714 44.4006 29.0557 43.4163 29.8128 42.3563C30.04 42.0534 30.2671 41.7506 30.7971 41.0691C29.0557 41.5991 27.9957 42.5834 27.0871 43.4163C25.4213 44.9306 23.9827 46.5964 22.4684 48.1864C22.0141 48.7164 21.6355 49.3221 21.4084 49.9279C20.4998 51.9722 20.4998 53.9408 22.2413 55.6822C22.7713 56.2123 23.3013 56.7423 23.907 57.4994C25.8756 56.288 27.1628 54.1679 29.51 53.4865C27.9957 54.9251 26.4813 56.3637 24.967 57.8023C25.9513 58.8623 26.5571 58.4837 27.3142 57.878C28.6771 56.818 30.04 55.758 31.4029 54.6979C31.4786 54.7737 31.63 54.9251 31.7057 55.0008C30.4186 56.1365 29.2071 57.348 27.7685 58.6352C29.6614 59.5437 31.4029 60.0738 33.0686 59.9223C36.0972 59.6952 39.2016 59.3923 41.8516 57.8023C42.6845 57.2723 43.3659 56.5908 44.1231 55.9851C44.7288 55.5308 45.2588 54.6979 46.4703 55.3794C45.486 56.5908 44.5017 57.7266 43.5174 59.0137C43.896 59.0137 44.1231 59.1652 44.426 59.0895C49.6503 58.1051 54.9504 58.7109 60.1748 58.1809C65.1721 57.6509 70.0936 57.1208 75.0151 56.288C78.8009 55.6822 80.8452 53.1836 81.7538 49.4736C82.2081 47.6564 82.2838 45.9149 81.6781 44.1735C81.3752 43.3406 80.9966 42.5077 81.8295 41.372C83.7981 43.492 83.8738 46.0664 83.9495 48.7164C85.8424 49.3221 87.7353 49.9279 89.6282 50.685C91.4454 51.4422 93.1869 52.4265 93.7169 54.4708C94.1712 56.1365 93.944 57.8023 93.1111 59.3166C91.8997 61.5124 90.3097 63.2538 87.8868 64.2381C85.3881 65.2981 82.7381 65.9796 80.088 66.2824C76.5294 66.661 72.8951 66.8882 69.3364 67.4939C64.4149 68.3268 59.5691 68.3268 54.6476 68.4025C51.2404 68.4782 47.8332 68.5539 44.5017 68.8568C37.6873 69.4625 30.9486 69.6896 24.1342 69.1596C20.4998 68.8568 16.7897 68.4025 13.2311 67.6453C11.5654 67.2667 9.8239 66.2824 8.46101 65.2224C5.88668 63.1024 5.58382 61.5881 7.77957 58.8623C9.74818 56.4394 12.2468 54.5465 15.2754 53.3351C15.3511 53.2593 15.654 53.1079 16.0326 52.9565ZM48.4389 60.6795C48.3632 60.528 48.2875 60.3009 48.2117 60.1495C47.2274 60.2252 46.2431 60.3009 45.1831 60.4523C44.1231 60.6038 42.8359 61.1338 41.9273 60.7552C40.8673 60.3009 40.0345 60.3766 39.2016 60.6795C34.8858 61.9666 30.6457 61.8909 26.4056 60.3766C25.1942 59.9223 23.8313 59.9223 22.847 58.7866C22.6198 58.5594 22.0898 58.408 21.7113 58.408C19.9698 58.5594 18.9098 57.4994 17.8498 56.288C17.5469 55.6822 17.1683 55.1522 16.7897 54.6222C14.8968 55.0008 11.4139 56.8937 9.97533 58.4837C9.44532 59.0137 8.91531 59.6195 8.53673 60.2252C7.62814 61.6638 7.70386 62.6481 8.99102 63.7081C10.4296 64.9196 11.9439 66.0553 13.9125 66.2824C18.2283 66.7367 22.6198 67.191 26.9356 67.5696C32.5386 68.0996 38.1416 68.0239 43.7445 67.2667C44.3502 67.191 44.956 67.1153 45.6374 67.1153C49.4989 67.0396 53.3604 67.0396 57.2976 66.8882C60.7048 66.7367 64.112 66.5096 67.4435 66.2067C72.0622 65.7524 76.6808 65.1467 81.2995 64.4653C83.2681 64.1624 85.161 63.5567 87.1296 62.951C89.4768 62.1938 90.8397 60.3009 91.824 58.1809C92.884 55.9851 92.1268 53.7894 89.9311 52.7293C87.811 51.745 85.5396 51.1393 83.3438 50.3822C82.5867 51.6693 81.9052 52.7293 81.4509 53.8651C80.9209 54.9251 80.5423 56.0608 80.2395 57.1208C79.9366 58.1809 80.0123 59.3923 79.028 60.3009C79.1795 58.938 79.4066 57.5751 79.558 56.1365C77.968 56.4394 78.0437 57.7266 77.6651 58.7109C77.2108 59.7709 77.438 60.9823 76.2265 62.1938C76.5294 60.4523 76.8323 59.0895 77.0594 57.6509C76.6051 57.6509 76.378 57.5751 76.2265 57.6509C70.3964 59.2409 64.4906 59.468 58.5091 59.7709C53.8904 59.998 53.209 60.1495 50.2561 63.8595C49.8775 64.3138 49.4232 64.7681 48.9689 65.2224C48.8932 65.1467 48.7418 64.9953 48.5903 64.9196C49.4989 63.2538 50.9375 62.0424 52.2247 60.6038C51.0132 59.9223 50.1046 60.0738 49.2718 60.9823C48.3632 61.9666 47.3789 63.0267 46.3946 64.011C46.0917 64.3138 45.7131 64.4653 45.3345 64.6924C45.2588 64.6167 45.1831 64.4653 45.1074 64.3895C46.2431 63.1024 47.3789 61.8909 48.4389 60.6795Z" fill="black"/>
<path d="M90.0081 14.9472C90.1596 15.8558 90.311 16.6886 90.4624 17.7487C91.901 16.7644 90.841 15.1743 91.8253 14.19C91.901 15.0229 91.9767 15.7043 92.1282 16.6129C93.6425 15.6286 95.0811 14.9472 96.2168 13.9629C97.4283 12.9029 98.4883 13.0543 99.8512 13.4329C100.835 13.7357 101.971 13.9629 103.031 13.9629C104.243 13.9629 104.924 13.2814 105.151 12.2971C105.378 11.3885 104.773 10.2528 103.637 9.87422C102.198 9.41993 100.608 9.2685 98.7912 8.88992C98.8669 8.51134 99.0183 7.90562 99.0183 7.22418C99.094 6.31559 99.3212 5.407 99.2454 4.57413C99.094 3.21125 97.7311 2.07551 96.444 1.92408C95.3839 1.84836 94.2482 2.60552 94.0968 3.89269C94.0211 4.64984 94.0968 5.55843 94.3239 6.31559C94.8539 7.75419 94.4754 8.88992 93.3396 9.87422C91.2196 11.7671 89.1753 13.7357 87.0552 15.6286C86.2224 16.3858 85.3138 17.2186 84.3295 18.2029C85.1623 18.9601 85.7681 19.7173 86.6009 20.1716C87.7367 20.9287 88.191 21.913 88.0395 23.1245C87.8124 25.7745 87.5852 28.5003 87.0552 31.1503C86.7524 32.5889 85.9195 33.9518 85.1623 35.3147C83.7237 38.0405 81.7551 40.3876 79.5594 42.5077C77.5151 44.552 74.9407 45.3849 72.215 45.7635C71.6092 45.0063 71.7607 44.552 72.2907 44.2491C72.8207 43.9463 73.4264 43.7191 74.0321 43.492C74.865 43.1891 75.8493 43.0377 76.5307 42.5077C77.8179 41.5991 79.1808 40.6148 80.0137 39.3276C80.468 38.5705 79.938 37.2076 79.7108 36.1476C79.4079 34.6332 79.0294 33.1189 78.8022 31.5289C80.2408 33.4218 80.1651 35.8447 80.8465 38.2676C81.3765 37.7376 81.7551 37.4347 82.058 37.0562C84.4809 32.8918 85.9195 28.5003 85.9195 23.6545C85.9195 23.2002 85.9952 22.5187 85.6923 22.2159C83.9509 20.2473 82.4366 17.9758 79.4079 17.9758C71.8364 18.0515 65.022 20.5501 59.5704 26.1531C57.7533 28.046 57.0718 30.4689 56.9961 32.9675C56.9204 33.8004 57.0718 34.6333 56.9961 35.4661C56.9961 35.8447 56.6175 36.2233 56.3904 36.5261C56.0875 36.299 55.8604 36.299 55.8604 36.1476C55.1032 32.2103 55.4818 28.576 58.2833 25.4717C63.8862 19.3387 71.0035 16.6129 79.1808 16.2343C80.1651 16.1586 81.2251 16.3858 82.2851 16.6129C83.0423 16.7644 83.5723 16.6886 84.178 16.1586C86.9038 13.66 89.5538 11.1614 92.3553 8.73849C93.4153 7.8299 93.1882 6.92131 92.7339 5.93701C92.0525 4.19555 92.3553 2.68124 93.6425 1.31835C94.3239 0.561197 95.0054 0.258334 95.9897 0.258334C98.8669 0.182618 100.76 1.84836 100.835 4.72556C100.835 5.48272 100.835 6.23987 100.835 6.99703C102.123 7.45132 103.334 7.8299 104.546 8.35991C106.06 8.96564 107.044 10.7828 106.817 12.2214C106.514 13.66 104.773 15.3258 103.334 15.3258C102.198 15.3258 100.987 15.25 99.8512 14.8715C98.7912 14.4929 97.8826 14.5686 96.8983 15.1743C94.4754 16.6886 92.1282 18.2029 89.7053 19.7173C89.4024 19.8687 89.1753 20.1716 88.8724 20.323C88.5695 20.3987 88.1152 20.323 87.9638 20.1716C87.8124 19.9444 87.8881 19.3387 88.0395 19.263C89.8567 18.2787 89.5538 16.4615 89.5538 14.8715C89.7053 14.9472 89.8567 14.9472 90.0081 14.9472Z" fill="black"/>
<path d="M76.2266 34.0273C77.1352 35.7688 78.1195 37.586 78.0437 39.706C77.1352 37.8888 76.378 36.0717 76.2266 34.0273Z" fill="black"/>
<path d="M21.5596 6.01562C22.241 10.1043 22.9982 14.2686 23.6796 18.3573C23.7554 18.6601 23.4525 19.1144 23.3011 19.6444C21.9382 18.2058 22.1653 16.6158 21.8625 15.1015C21.5596 13.5115 21.2567 11.9972 21.0296 10.4071C20.8025 8.96854 20.2724 7.45422 20.8782 6.01562C21.1053 6.01562 21.3325 6.01562 21.5596 6.01562Z" fill="white"/>
<path d="M14.3674 32.9712C9.97585 33.1226 5.8872 33.1984 1.87427 33.2741C1.41998 33.2741 1.0414 33.0469 0.132812 32.8955C0.814254 32.4412 1.11712 32.1383 1.41998 32.1383C4.75147 31.9869 8.00724 31.8355 11.3387 31.7598C12.0959 31.7598 12.853 31.9112 13.6102 32.0626C13.8373 32.1383 13.9888 32.5926 14.3674 32.9712Z" fill="white"/>
<path d="M5.8125 16.8428C6.64537 16.9942 7.09967 16.9185 7.40253 17.0699C8.15969 17.5242 8.84113 18.1299 9.59828 18.6599C11.9455 20.3257 14.3684 21.9914 16.7156 23.6572C17.0941 23.96 17.4727 24.3386 18.0027 24.7172C17.0184 25.3229 16.4127 24.8686 15.8827 24.4901C12.7783 22.2943 9.674 20.0228 6.56966 17.8271C6.41823 17.6756 6.26679 17.4485 5.8125 16.8428Z" fill="white"/>
</svg>
