<svg width="89" height="77" viewBox="0 0 89 77" fill="none" xmlns="http://www.w3.org/2000/svg">
<path d="M73.1399 50.2031C78.8824 51.621 83.2933 55.2909 88.7861 57.5429C87.621 58.7106 86.7887 58.2101 86.0397 57.7931C84.0423 56.7922 82.0449 55.6245 80.0475 54.6237C78.1334 53.6228 76.136 52.7887 74.1386 51.8713C73.556 51.621 72.8902 51.4542 73.1399 50.2031Z" fill="white"/>
<path d="M86.3724 38.5261C80.7131 39.6937 75.137 40.9448 69.3945 42.1125C69.4778 40.6112 70.3932 40.4444 71.1422 40.2776C75.7196 39.3601 80.297 38.4426 84.9575 37.6086C85.3737 37.5252 85.9562 37.7754 86.4556 37.8588C86.4556 38.109 86.3724 38.2758 86.3724 38.5261Z" fill="white"/>
<path d="M64.8164 34.5214C66.897 29.8506 69.7267 25.6803 72.8892 21.6768C73.1389 21.3431 73.7214 21.3431 74.4705 21.51C73.4718 22.9279 72.3899 24.3458 71.3912 25.7637C70.3092 27.265 69.3938 28.8497 68.3118 30.3511C67.2299 31.8524 66.6473 33.6873 64.8164 34.5214Z" fill="white"/>
<path d="M9.47287 32.0195C10.9709 29.3505 11.5535 26.181 12.8851 23.4286C15.1321 18.8413 19.3766 15.6718 23.2882 12.419C24.1204 11.7517 24.8694 11.0845 25.5352 10.3338C26.5339 9.24951 27.1997 7.8316 28.032 6.66391C30.0294 3.66128 32.9422 1.4093 36.2712 0.158203C36.937 0.908862 36.937 2.07655 36.5209 2.99402C36.1048 3.9115 35.3558 4.66215 34.6067 5.32941C32.4429 7.41457 30.1958 10.167 31.1113 13.0028C31.1945 13.253 31.361 13.5866 31.5274 13.7535C32.11 14.1705 32.859 13.7535 33.3584 13.3364C37.2699 10.2504 40.8486 6.83072 44.2608 3.24424C44.9266 2.57699 45.6756 1.90974 46.5079 1.99315C47.5066 2.15996 48.0059 3.24424 48.0059 4.24512C48.0059 6.74732 45.9253 8.74907 43.8447 10.167C41.7641 11.5849 39.4338 12.9194 38.3518 15.1714C37.9357 16.0054 37.686 17.0897 38.1854 17.9238C38.768 18.9247 40.0996 19.1749 41.1815 18.9247C42.2634 18.6744 43.1789 17.9238 44.0111 17.1731C47.4233 14.3373 50.9188 11.5015 53.8316 8.08182C54.9136 6.74732 56.0787 5.32941 57.5768 4.66215C59.158 3.9949 61.3219 4.49534 61.9044 6.08006C62.487 7.74819 61.0722 9.41632 59.8238 10.584C56.4948 13.6701 53.0826 16.8395 48.8382 18.3408C48.0891 18.591 47.3401 18.8413 46.8408 19.4251C46.0085 20.3426 46.3414 21.8439 47.0072 22.8448C47.7562 23.8456 48.7549 24.5129 49.5872 25.4304C50.5859 26.5147 51.3349 27.9326 52.0007 29.2671C53.1658 31.6025 54.4142 34.0212 55.5794 36.3566C57.7432 40.6104 59.907 44.9475 60.3232 49.7017C61.1554 57.9589 56.7445 65.9659 50.9188 71.8044C50.253 72.4716 49.5872 73.1389 48.6717 73.5559C47.7562 73.973 46.6743 73.973 45.6756 74.0564C42.9292 74.2232 40.1828 74.6402 37.4364 74.6402C30.9448 74.5568 24.6198 71.8044 20.1256 67.0502C18.2947 65.1319 16.7966 62.8799 15.2154 60.7947C13.218 58.1257 11.1374 55.6235 8.97352 53.1213C6.80967 50.7859 3.48069 48.534 1.73297 45.9484C-1.01345 42.0283 7.64192 35.5226 9.47287 32.0195Z" fill="white"/>
<path d="M9.72363 29.5179C6.81076 33.3546 4.2308 37.3581 1.98373 41.6118C1.65083 42.1957 1.31793 42.7795 1.23471 43.4468C0.90181 45.0315 1.73406 46.6162 2.73275 47.8673C4.39725 50.0359 6.56109 51.704 8.97461 52.8717C10.8056 53.7058 13.2191 54.1228 14.3842 52.4547C14.9668 51.6206 15.05 50.5363 15.05 49.452C15.05 47.9507 15.05 46.4494 14.8003 44.9481C14.5507 43.3634 14.0513 41.862 13.7184 40.2773C12.6365 35.4397 13.0526 30.4354 13.4687 25.5144C13.0526 24.7637 12.0539 24.6803 11.3049 25.0973C10.5559 25.5144 10.1398 26.265 9.80685 26.9323C8.72493 29.0174 7.97591 31.2694 7.55979 33.5214" fill="#BCBCBB"/>
<path d="M47.2575 74.39C52.0013 74.807 57.2444 73.7227 60.407 70.0529C62.987 67.0502 63.736 62.7965 63.5695 58.793C63.2366 50.7026 59.4915 42.8623 53.4161 37.4409C52.9168 37.0239 52.3342 36.5234 51.7516 36.6069C50.5865 36.6069 50.0039 38.0248 50.0039 39.1925C49.8374 42.1951 51.169 44.9475 52.3342 47.6999C53.3329 50.0353 54.1651 52.3707 54.8309 54.7895C55.58 57.3751 56.1625 60.0441 55.9129 62.6297C55.6632 65.2987 54.3316 67.9677 52.0013 69.3022C50.5865 70.0529 49.0052 70.3865 47.5072 70.8869C46.0091 71.3874 44.5111 72.3048 44.0117 73.8896C46.9246 74.6402 50.0871 74.7236 53 74.0564" fill="#BCBCBB"/>
<path d="M25.7844 11.5854C27.7818 8.49935 29.6127 5.2465 31.6933 2.24386C32.9417 0.408921 34.7727 -0.591957 37.2694 0.575734C38.0184 1.57661 37.6855 2.6609 37.0197 3.74518C35.6049 5.91375 34.1901 8.08232 32.8585 10.2509C32.4424 10.8347 32.1927 11.502 31.7766 12.2526C32.4424 12.6697 32.9417 13.0033 33.6907 13.4203C35.272 11.4186 36.6036 9.50023 38.1849 7.66529C39.6829 5.99716 41.181 4.24562 42.9287 2.82771C43.8441 2.07705 45.1757 1.66002 46.4241 1.32639C47.506 1.07617 49.2538 2.16046 49.6699 3.07793C50.1692 4.16221 49.4202 4.99628 48.8376 5.66353C47.2564 7.33166 45.6751 8.83298 44.0106 10.4177C42.0964 12.3361 40.1823 14.2544 38.0184 16.423C39.35 17.257 40.3487 17.9243 41.5971 18.7584C42.3461 17.8409 43.0119 17.0068 43.6777 16.2562C47.4228 12.0858 51.2511 7.91551 55.8285 4.57925C56.2446 4.24562 56.744 3.91199 57.2433 3.66177C58.991 2.6609 61.0717 2.91112 62.4033 4.49584C63.3187 5.58012 63.2355 7.8321 62.0704 8.91638C60.4891 10.3343 58.9078 11.6688 57.2433 13.0033C54.2472 15.2553 51.2511 17.3404 48.1718 19.509C47.8389 19.7592 47.5893 20.0094 47.1731 20.4265C47.506 20.8435 47.7557 21.344 48.0886 21.5108C50.9182 23.1789 52.4163 25.7645 53.0821 28.9339C53.9143 32.6872 55.4124 36.0235 57.7427 39.1929C61.1549 43.6969 63.6516 48.8681 64.4839 54.5397C65.2329 59.9612 65.1497 65.2992 61.2381 69.6363C59.9897 71.0542 58.4085 72.4721 56.744 73.1394C53.1653 74.5573 49.6699 76.3088 45.7583 76.6425C38.9339 77.1429 32.1095 77.0595 26.4502 72.3887C22.8715 69.4695 19.5425 66.3835 16.1303 63.2974C13.8 61.2123 11.4697 59.0437 9.47234 56.7083C6.39302 53.0384 2.81436 49.869 0.650516 45.5318C0.234393 44.7812 -0.0152806 44.1973 0.484068 43.2799C2.31501 40.2772 4.06273 37.1912 5.89367 34.1886C6.89237 32.437 7.89107 30.6855 9.05621 29.0174C11.0536 26.0981 13.1342 23.1789 15.2148 20.3431C17.3787 17.4238 19.4593 14.4212 22.5386 12.3361C23.3709 11.6688 24.3696 10.4177 25.7844 11.5854C25.9508 11.7522 25.9508 12.0024 26.0341 12.2526C22.7051 12.7531 20.7909 15.0885 18.96 17.5907C15.9639 21.5942 12.9678 25.5977 9.97168 29.6012C9.22266 30.6021 8.64009 31.603 8.05752 32.6872C7.22527 34.272 6.3098 35.7733 5.56077 37.358C4.6453 39.1929 3.81306 40.9445 3.06403 42.8628C2.56468 44.1139 2.89758 45.2816 3.89628 46.2825C5.89367 44.6144 6.55947 41.9454 8.88976 40.7777C8.80654 41.3615 8.55686 41.7785 8.30719 42.1956C7.39172 43.6135 6.39302 44.948 5.47755 46.4493C4.56208 48.034 4.6453 48.2843 6.47625 49.6188C7.05882 48.8681 7.55817 48.1174 8.14074 47.2834C8.64009 46.5327 9.13944 45.7821 9.72201 45.1148C10.2214 44.4476 10.471 43.4467 11.8026 43.1965C10.3878 45.6152 9.13944 47.7004 7.89107 49.7022C7.30849 50.6196 7.47494 51.2869 8.22396 52.0375C9.88846 53.6223 11.553 55.2904 13.2174 56.9585C14.2994 57.9594 15.3813 59.0437 16.4632 60.0446C16.6297 60.0446 16.7961 59.9612 17.0458 59.9612C16.7129 57.7092 17.7116 55.9576 18.6271 54.0393C20.1251 50.7864 21.207 47.2834 22.7883 44.0305C24.3696 40.6109 25.8676 37.2746 27.865 34.1886C30.5282 30.1016 33.8572 26.5986 37.852 23.7627C39.1003 22.8453 40.3487 21.8444 41.7635 20.7601C40.4319 19.926 39.2668 19.1754 38.1016 18.4247C35.1888 16.423 32.2759 14.4212 29.2798 12.5029C28.1147 11.919 27.116 11.085 25.7844 11.5854ZM29.4463 62.0463C29.5295 62.1297 29.6127 62.2131 29.7792 62.2965C28.7805 64.1315 27.6985 65.883 26.7831 67.718C26.0341 69.2193 26.2005 69.5529 27.4489 70.6372C30.1121 72.9726 33.1914 74.1403 36.6036 74.8075C37.6023 74.9743 38.6842 74.9743 39.6829 74.8075C42.5126 74.4739 45.259 73.8901 48.0886 73.7232C51.8337 73.473 55.0795 71.9717 58.1588 69.9699C58.6581 69.6363 59.1575 69.1359 59.4904 68.552C61.9871 64.8821 63.1523 60.7118 62.4865 56.3747C61.6542 50.0358 58.9078 44.3641 55.2459 39.1095C53.3318 36.3571 51.7505 33.5213 51.2511 30.185C51.0847 29.1008 50.7518 28.0165 50.3357 26.9322C49.5034 24.9304 48.3383 23.0121 46.2577 22.4282C44.8428 22.0112 42.8454 22.2614 41.4306 22.9287C39.5165 23.8461 37.6855 25.1807 36.1042 26.5986C32.6088 29.8514 29.2798 33.2711 27.116 37.6082C26.0341 39.7768 25.2018 42.0288 24.0367 44.1139C21.7064 48.2843 20.3748 52.8716 18.8767 57.459C17.5451 61.4625 18.7103 64.7987 23.038 66.4669C23.6205 65.5494 24.2031 64.6319 24.9521 63.7145C25.7012 62.8804 26.1173 61.7127 27.6153 61.1289C24.0367 67.0507 24.0367 67.0507 24.9521 68.2184C26.367 66.2166 27.9482 64.1315 29.4463 62.0463ZM59.4072 4.16221C58.4917 4.49584 57.8259 4.66265 57.3265 4.99628C56.2446 5.66353 55.1627 6.33078 54.2472 7.24825C50.9182 10.4177 47.7557 13.6706 44.5099 17.0068C44.0106 17.5073 43.5112 18.0911 43.1783 18.7584C43.0119 19.092 43.0119 19.7592 43.1783 20.0094C43.428 20.2597 44.0106 20.4265 44.4267 20.4265C44.7596 20.4265 45.1757 20.0929 45.5086 19.8426C49.0041 17.4238 52.4995 15.0051 55.9949 12.5029C57.5762 11.4186 59.0743 10.2509 60.6555 8.99979C61.7375 8.08232 62.1536 6.74782 61.4878 5.74694C60.9884 4.99628 60.073 4.66265 59.4072 4.16221ZM48.4215 4.07881C46.5906 2.49408 45.3422 2.41068 43.5945 3.74518C40.1823 6.41419 37.4358 9.66704 35.1055 13.3369C34.9391 13.6706 34.8559 14.0876 34.6894 14.4212C36.4371 15.9225 36.6036 16.0059 37.9352 14.6714C40.7648 11.919 43.5945 9.1666 46.4241 6.41419C47.1731 5.66353 47.7557 4.82947 48.4215 4.07881ZM30.3617 11.6688C31.943 9.25001 33.3578 7.16485 34.7727 5.07969C35.1888 4.49584 35.6049 3.91199 35.9378 3.24474C36.4371 2.24386 36.021 1.49321 34.8559 1.57661C34.3565 1.66002 33.6907 1.82683 33.3578 2.16046C31.0275 4.41243 29.1134 6.91463 27.9482 10.1675C28.8637 10.6679 29.6959 11.1684 30.3617 11.6688Z" fill="black"/>
<path d="M44.0936 68.6361C41.8465 68.6361 40.0988 66.3841 40.8478 64.1321C41.0975 63.3815 41.3472 62.6308 42.5956 63.1313C43.0949 63.3815 43.9272 62.881 44.5097 62.5474C46.5071 61.4631 47.589 59.5448 48.8374 57.7098C49.3368 56.9592 49.7529 56.2085 50.2522 55.4579C51.0845 54.2068 52.1664 54.2068 52.9154 55.4579C53.2483 56.0417 53.5812 56.7924 53.6644 57.4596C53.7477 63.1313 49.6697 68.6361 44.0936 68.6361ZM51.4174 56.0417C49.9193 58.2103 48.9206 60.212 47.4226 61.7133C45.8413 63.2981 43.8439 64.3823 42.013 65.6334C42.762 67.4684 42.9285 67.5518 44.5097 67.4684C47.1729 67.385 48.9206 65.8003 50.2522 63.8819C51.6671 61.7967 52.9154 59.378 51.4174 56.0417Z" fill="black"/>
<path d="M29.9453 46.6999C30.7776 44.8649 31.5266 43.1968 32.2756 41.4453C33.2743 39.0265 35.022 37.1081 37.1859 35.6068C37.6852 35.2732 38.2678 34.9396 38.8504 34.7727C39.8491 34.5225 40.5149 35.023 40.3484 36.0238C40.0987 37.0247 39.7658 38.109 39.1833 38.8597C37.5188 41.0282 36.4368 43.3636 35.6046 45.9492C34.6059 48.8684 33.4408 49.2855 30.944 47.5339C30.6111 47.4505 30.3614 47.1169 29.9453 46.6999ZM38.7671 36.6911C38.1013 36.8579 37.602 36.8579 37.3523 37.1081C36.5201 37.8588 35.5214 38.526 34.9388 39.5269C33.8569 41.2785 32.9414 43.1968 32.0259 45.0318C31.693 45.7824 31.5266 46.6999 32.5253 47.1169C33.6072 47.5339 33.9401 46.6165 34.1898 45.8658C34.6059 44.8649 34.9388 43.6972 35.4381 42.6964C36.5201 40.778 37.602 38.9431 38.7671 36.6911Z" fill="black"/>
</svg>
