<svg width="101" height="77" viewBox="0 0 101 77" fill="none" xmlns="http://www.w3.org/2000/svg">
<path d="M22.5772 57.5995C22.744 53.5126 24.9959 49.7593 27.1645 46.2562C30.0003 41.5855 33.003 36.7479 37.4235 33.4116C48.8502 24.8208 66.9494 28.4907 77.0416 18.3985C80.7115 14.7286 80.2945 9.05695 81.7958 4.88662C83.0469 1.38355 87.384 0.215856 90.3032 2.46783C95.391 6.38794 97.5596 13.0605 99.5614 17.481C99.9784 18.3985 100.479 19.4828 99.3945 20.567C98.5605 21.4011 97.3094 21.7347 96.1417 21.4845C87.2172 19.3994 77.2918 25.3212 74.7062 34.0789C73.9556 36.4977 73.7887 39.0833 72.9547 41.5021C71.7036 45.172 69.2848 48.1746 66.7826 51.0938C62.6123 56.0982 58.5254 61.1026 54.355 66.107C52.6035 68.1922 50.852 70.2773 48.4332 71.5284C40.9266 75.2817 22.1601 66.7742 22.5772 57.5995Z" fill="white"/>
<path d="M18.0735 25.4072C18.2403 25.7409 18.4072 26.0745 18.4906 26.4081C19.4914 30.2448 20.4923 34.1649 21.5766 38.4186C19.6583 37.4178 20.0753 35.6662 19.4914 34.4151C18.8242 32.9972 18.4072 31.4125 17.9901 29.9112C17.7399 28.5767 16.739 27.2422 18.0735 25.4072Z" fill="white"/>
<path d="M0.976562 37.7529C1.72722 37.8363 2.39447 37.6695 2.7281 37.9197C5.48051 40.3385 8.98359 41.4228 12.2364 42.7573C12.4033 42.8407 12.5701 42.9241 12.8203 43.0909C10.1513 43.6748 2.31107 40.2551 0.976562 37.7529Z" fill="white"/>
<path d="M13.9056 51.4297C14.2392 51.7633 14.4061 51.8467 14.4061 52.0135C14.4895 52.1803 14.4895 52.3472 14.4061 52.4306C11.32 55.5166 8.23398 58.5192 5.14794 61.6053C4.98113 61.7721 4.6475 61.7721 4.23047 61.6887C5.39816 59.6035 7.48332 58.3524 8.98464 56.6009C10.486 54.8494 12.1541 53.1812 13.9056 51.4297Z" fill="white"/>
<path d="M23.2461 63.3551C24.8308 67.5254 29.3348 69.6106 33.3383 71.4455C36.7579 72.9468 40.5112 74.4482 44.1811 73.9477C48.1846 73.3639 51.4375 70.6115 54.3567 67.7756C59.6947 62.6878 64.7825 57.0996 66.8677 50.0935C67.2847 48.759 67.3681 47.0074 66.2004 46.3402C65.5332 46.0065 64.7825 46.0899 64.0319 46.3402C59.945 47.5913 57.5262 51.7616 54.1065 54.4306C50.4366 57.2664 45.5156 58.3507 41.0117 57.2664C38.5095 56.6826 36.1741 55.4315 33.5885 54.931C31.0029 54.4306 28.0837 54.6808 26.4155 56.5992C24.9142 58.2673 24.8308 60.6861 24.9976 62.9381C25.1644 65.3568 25.8317 68.0259 27.8335 69.1935" fill="#BCBCBB"/>
<path d="M84.8844 20.319C86.4691 19.6517 88.1372 19.1513 89.722 19.4849C91.4735 19.8185 92.9748 20.9028 94.7264 21.4033C96.4779 21.9037 98.7299 21.4033 99.2303 19.7351C99.8141 17.65 97.1451 16.0652 94.9766 15.815C90.139 15.2312 85.218 16.8159 81.2145 19.4849C78.0451 21.5701 75.0424 24.3225 72.707 27.3251C75.8765 28.4928 81.5481 21.7369 84.8844 20.319Z" fill="#BCBCBB"/>
<path d="M70.2885 34.4135C71.623 34.9974 72.5404 35.4144 73.7081 35.9148C73.2077 37.583 72.7073 39.1677 72.1234 40.7524C71.7898 41.7533 71.2059 42.6708 70.8723 43.6716C69.0374 49.5935 66.1181 55.0149 63.0321 60.3529C61.0303 63.7726 58.7784 66.9421 55.8591 69.6111C53.9408 71.3626 51.8556 73.0307 49.7705 74.6155C47.1849 76.5338 44.1822 76.9508 41.0128 76.8674C35.8416 76.7006 31.9215 74.3652 28.4184 70.7788C23.9145 66.108 22.2463 60.3529 22.0795 54.1809C21.9961 52.0957 22.9136 49.9271 23.7476 47.9254C24.6651 45.7568 25.9996 43.6716 27.2507 41.5865C28.1682 40.0852 29.4193 39.0009 30.9206 38C33.8398 35.9982 36.5922 33.7463 39.5115 31.8279C42.5975 29.9096 45.9338 28.5751 49.5203 27.8244C52.8565 27.1572 56.1094 25.7392 59.3622 24.7384C60.6133 24.3213 61.9478 23.9043 63.2823 23.4873C63.9496 24.4047 64.45 25.1554 65.0339 25.9895C67.2024 24.4881 69.5378 23.1536 71.4562 21.4021C73.7081 19.4003 75.7099 17.1484 77.7116 14.8964C78.8793 13.5619 79.2964 11.8938 79.213 10.0588C79.0462 6.30553 80.5475 3.55311 83.8837 1.71817C84.0505 1.63477 84.2174 1.46795 84.4676 1.38455C85.5519 0.884107 86.5527 -0.450397 87.7204 0.300261C89.2217 1.21773 91.2235 1.96839 91.3903 4.22037C91.4737 5.30465 91.8073 6.30553 91.8073 7.30641C91.7239 9.8086 93.1418 10.9763 95.227 11.727C98.5633 12.8946 100.148 15.3968 99.9812 18.7331C99.8144 21.1519 97.9794 23.237 95.4772 23.1536C93.8925 23.1536 92.141 22.82 90.7231 22.0694C87.7204 20.4846 85.3016 21.1519 82.8829 23.3205C79.63 26.2397 76.3771 29.1589 73.1243 32.0781C72.2068 32.7454 71.3727 33.4126 70.2885 34.4135ZM62.8653 24.5716C62.3649 24.5716 62.1146 24.5716 61.9478 24.655C56.9434 26.5733 52.0224 28.5751 46.7678 29.5759C46.2674 29.6593 45.767 29.9096 45.2665 30.0764C39.5115 32.0781 34.9241 35.8314 30.3368 39.5847C29.5861 40.1686 28.9188 41.0026 28.5018 41.8367C27.3341 44.0053 26.083 46.1738 25.0821 48.4258C24.0813 50.5944 23.2472 52.9298 23.7476 55.432C24.4149 58.3512 24.9153 61.3538 26.083 64.1062C28.0848 68.6936 31.421 72.2801 36.342 73.9482C38.0102 74.532 38.4272 74.2818 38.9276 72.5303C39.5115 70.2783 40.2621 68.0263 40.9294 65.8578C41.0128 65.5241 41.3464 65.2739 41.8468 64.5233C41.3464 68.1932 39.4281 71.029 40.4289 74.2818C43.0145 71.3626 42.1805 67.3591 44.0988 64.1896C43.5984 67.5259 43.1814 70.7788 42.6809 74.115C44.1822 74.532 44.349 73.6146 44.5159 72.8639C45.0163 70.9456 45.5167 68.9438 46.1006 66.9421C46.184 66.525 46.3508 66.108 46.5176 65.691C46.6844 65.3573 46.8512 65.1071 47.2683 64.5233C47.2683 67.7761 45.767 70.4451 45.9338 73.6146C50.1041 71.446 53.6072 68.9438 56.5264 65.691C59.4456 62.4381 61.781 58.7682 63.9496 54.9315C66.1181 51.0948 66.1181 46.6743 67.2024 42.1703C67.7863 42.8376 68.1199 43.1712 68.5369 43.6716C70.0382 41.4197 70.9557 39.0009 72.04 36.4987C66.7854 34.1633 63.9496 30.1598 62.8653 24.5716ZM69.0374 33.2458C71.1225 31.4109 73.0409 29.6593 74.9592 27.9078C75.3763 27.5742 75.7933 26.9903 75.7933 26.4899C75.7933 24.4881 76.7108 22.9868 78.2121 21.6523C78.2955 22.5698 78.3789 23.4039 78.4623 24.4881C79.0462 24.0711 79.3798 23.9877 79.63 23.7375C80.8811 22.5698 82.299 21.4855 83.4667 20.2344C85.0514 18.4829 86.803 18.6497 88.8047 19.4838C90.3894 20.151 92.0576 20.7349 93.7257 21.2353C95.4772 21.7357 96.8951 20.9851 97.9794 19.734C98.8969 18.6497 98.4799 17.3152 97.9794 16.0641C97.3122 14.5628 96.3947 13.3951 94.7266 12.8112C93.8925 12.4776 93.0584 12.144 92.2244 11.727C90.8899 11.0597 90.2226 10.1422 90.2226 8.4741C90.2226 6.88937 89.889 5.30465 89.5554 3.80333C89.2217 2.30202 87.1366 1.13433 85.8855 1.71817C82.4658 3.3029 80.047 5.13784 80.047 9.97542C80.047 12.4776 79.3798 14.6462 77.7116 16.3977C75.2094 18.9833 72.457 21.3187 69.788 23.7375C68.6203 24.8218 67.2858 25.6558 66.0347 26.6567C65.2841 27.2406 65.0339 27.9078 65.3675 28.8253C66.2015 30.6602 67.3692 32.2449 69.0374 33.2458Z" fill="black"/>
</svg>
