<svg width="99" height="77" viewBox="0 0 99 77" fill="none" xmlns="http://www.w3.org/2000/svg">
<path d="M28.4085 0C28.7422 0.750658 29.0758 1.16769 29.1592 1.58472C29.8264 6.08867 30.4103 10.5926 31.0775 15.18C31.2444 16.5145 31.1609 16.7647 30.1601 17.7656C28.8256 13.8455 27.4911 2.33538 28.4085 0Z" fill="white"/>
<path d="M11.3906 11.7594C12.8919 11.3424 13.309 12.1765 13.8094 12.8437C15.3941 15.0957 17.0623 17.4311 18.7304 19.6831C19.8147 21.101 20.9824 22.4355 22.0667 23.77C22.3169 24.1036 22.4003 24.6874 22.7339 25.5215C21.8998 25.2713 21.4828 25.1879 21.2326 24.9377C17.7295 20.9342 14.3099 16.7638 11.3906 11.7594Z" fill="white"/>
<path d="M0.299625 31.8607C0.716658 31.8607 1.2171 31.6939 1.63413 31.7773C6.22149 33.0284 10.8923 31.527 15.563 31.9441C15.563 32.1109 15.6464 32.2777 15.6464 32.4445C15.3962 32.6947 15.146 33.0284 14.8958 33.1118C10.3084 33.6956 5.63764 34.1126 1.05028 33.1952C0.716658 33.1118 0.383032 32.6947 0.132813 32.3611C0.132813 32.1943 0.216219 32.0275 0.299625 31.8607Z" fill="white"/>
<path d="M28.4094 50.3775C27.0749 42.1203 26.2408 32.3617 32.3295 26.5232C37.0002 22.0193 44.1732 21.6023 50.095 19.1001C56.2671 16.5145 61.1881 11.7603 66.8597 8.17381C72.5314 4.67074 79.7878 2.33536 85.793 5.4214C90.0468 7.58997 92.6324 11.9271 94.3005 16.3476C97.0529 23.5206 97.7202 32.1949 93.383 38.4504C91.3813 41.3696 88.462 43.5382 85.5428 45.5399C78.2864 50.3775 70.3628 54.5478 64.6912 61.1369C63.1065 62.9719 61.6885 65.057 59.6034 66.3915C56.7676 68.2265 53.0977 68.3933 49.678 68.3933C44.757 68.4767 36.4998 68.8103 32.4963 65.1404C28.8264 61.8876 29.16 54.8815 28.4094 50.3775Z" fill="white"/>
<path d="M38.5832 71.5618C40.1679 72.6461 41.5858 73.9806 43.3374 74.8147C46.5902 76.316 50.2601 76.0658 53.8466 75.8156C56.182 75.6488 58.6842 75.3985 60.4357 73.8138C61.6034 72.8129 62.2706 71.3116 62.9379 69.8937C65.9405 63.6382 70.0274 57.8832 75.0318 52.9622C76.6166 51.3775 78.4515 49.3757 77.7842 47.2071C77.117 45.122 74.2812 44.4547 72.196 45.2888C70.1943 46.1229 68.6929 47.9578 67.275 49.6259C60.7693 56.7989 51.3444 61.2194 41.7526 61.7199C36.9151 61.9701 34.4129 59.2177 31.16 56.1316C28.9914 54.1299 26.3224 51.2107 25.2382 55.2976C22.9028 63.805 33.3286 67.8085 38.5832 71.5618Z" fill="#BCBCBB"/>
<path d="M98.5513 35.0303C98.1342 30.443 97.6338 25.939 97.0499 21.4351C96.9665 20.9346 96.7997 20.4342 96.5495 20.1006C95.7154 18.766 94.6311 17.5984 93.7971 16.1804C91.3783 11.6765 87.9586 8.25683 83.4547 5.75463C79.0341 3.25244 74.4468 3.00222 69.776 4.58694C63.8541 6.6721 58.5995 10.0084 53.6786 14.0119C49.0078 17.7652 43.8366 20.6844 38.4152 23.1032C35.8296 24.2709 33.5776 25.6888 31.409 27.5237C27.2387 31.0268 25.4037 35.5308 25.2369 40.7854C25.1535 42.7871 25.0701 44.7889 25.2369 46.7906C25.654 51.5448 24.6531 56.3824 25.7374 61.1366C26.071 62.4711 26.4046 63.5553 27.4055 64.4728C28.74 65.6405 30.2413 66.6414 31.3256 67.9759C32.9937 69.9776 35.1623 71.3955 37.3309 72.7301C41.0842 74.982 45.1711 76.3999 49.675 76.7336C51.51 76.2331 53.4283 75.8995 55.1799 75.3157C58.0991 74.4816 60.4345 72.5632 62.6865 70.5615C66.1061 67.5589 68.8585 63.889 70.8603 59.9689C72.1114 57.5501 73.5293 55.2981 75.1974 53.1295C77.8664 49.8767 81.1193 47.6247 85.2896 46.457C89.1263 45.3727 92.8796 44.205 95.8822 41.119C97.8006 39.3675 98.8015 37.5325 98.5513 35.0303ZM27.0719 44.5387C26.071 37.2823 28.5732 31.3604 34.4951 26.9399C34.7453 26.7731 34.9955 26.5229 35.3291 26.4394C39.5829 24.4377 43.7532 22.4359 48.2571 20.2674C49.1746 19.6835 50.1755 19.0163 51.093 18.4324C51.093 18.4324 51.093 18.4324 51.093 18.349C58.1825 13.011 64.9384 7.17254 74.28 5.67122V13.5948C74.8638 12.8442 74.7804 12.8442 75.0306 9.84155C75.114 8.42364 75.4477 7.00573 75.6145 5.58782C76.5319 5.25419 77.0324 5.50441 76.949 6.33848C76.7822 7.58957 76.5319 8.84067 76.4485 10.1752C76.3651 10.9258 76.3651 11.7599 76.4485 12.5106C76.6153 12.3437 76.7822 12.2603 76.949 12.0935C76.949 11.5097 77.0324 11.0092 77.1158 10.4254C77.2826 8.92408 77.783 7.50617 78.2001 5.67122C79.4512 6.00485 80.5354 6.25507 81.4529 6.6721C86.1237 8.92408 89.7936 12.2603 92.2124 16.9311C93.2966 19.0163 94.4643 21.018 94.1307 23.5202C93.7971 25.939 92.8796 27.7739 90.7944 29.2753C86.2905 32.4447 81.3695 34.7801 76.5319 37.2823C72.028 39.6177 68.7751 43.2042 66.9402 47.9583C66.0227 50.2103 65.2721 52.4623 64.1044 54.5474C61.6856 58.6344 58.0157 61.0531 53.1781 60.8863C48.841 60.7195 44.5872 60.1357 40.2501 59.5518C37.7479 59.2182 35.6627 57.6335 33.9112 55.9653C31.9929 54.1304 30.3247 52.0452 28.9068 49.8767C27.8225 48.3754 27.3221 46.3736 27.0719 44.5387ZM27.8225 52.0452C28.9068 54.7143 28.4064 57.7169 29.0736 60.8029C27.4889 58.968 27.2387 56.716 27.8225 52.0452ZM32.5767 60.0523C32.4099 61.637 32.5767 63.2217 32.5767 65.1401C30.9086 63.7222 29.8243 62.5545 29.7409 60.6361C29.5741 58.5509 29.3239 56.5492 29.0736 53.9636C31.4924 55.7151 32.8269 57.3833 32.5767 60.0523ZM85.4564 43.4544C81.7031 44.9557 78.2001 46.9574 75.2808 49.7099C73.5293 51.2946 71.9446 53.2963 70.9437 55.3815C69.1922 59.0514 66.5232 61.8038 64.021 64.8064C62.603 66.558 61.1017 68.2261 59.4336 69.7274C56.6812 72.1462 53.1781 73.3139 49.5916 73.8143C49.0078 73.8978 48.3405 73.8143 47.6733 73.7309C43.3361 73.0637 39.3326 71.3956 35.7462 68.8934C34.2448 67.8925 33.3274 66.8082 33.5776 64.8064C33.8278 62.8881 33.661 60.9697 33.661 58.968C34.9955 59.0514 35.4125 59.802 35.4959 60.6361C35.7462 62.1374 35.913 63.6387 36.0798 65.1401C36.1632 65.9741 36.2466 66.8082 36.33 67.6423C36.5802 67.6423 36.747 67.5589 36.9973 67.5589C36.8304 65.2235 36.747 62.9715 36.5802 60.5527C39.1658 61.0531 41.668 61.637 44.1702 61.9706C46.6724 62.3042 49.258 62.5545 51.8436 62.7213C57.6821 63.1383 62.0192 60.3859 65.2721 55.7151C66.3563 54.2138 67.107 52.4623 67.6908 50.7941C69.5258 46.04 71.9446 41.7862 76.5319 39.2006C79.4512 37.5325 82.5372 36.1146 85.4564 34.5299C86.1237 34.1963 86.8743 33.8626 87.625 33.4456C88.2923 36.0312 88.8761 38.7002 89.6268 41.6194C88.042 42.3701 86.7909 42.9539 85.4564 43.4544ZM90.2106 41.3692C89.7936 39.5343 89.3765 37.6993 88.9595 35.781C88.7093 34.8635 88.6259 33.8626 87.5416 33.529C88.3757 32.9452 89.1263 32.3613 90.294 31.5272C90.5442 32.7783 90.7944 33.6124 91.0447 34.5299C91.3783 36.1146 91.7953 37.6159 92.129 39.2006C92.3792 40.7854 92.3792 40.7854 90.2106 41.3692ZM96.6329 36.4482C96.4661 37.6159 96.5495 37.6159 94.798 38.1998V30.0259C94.6311 30.0259 94.3809 30.0259 94.2141 30.0259C92.963 33.112 94.6311 36.615 93.6303 39.7845C93.4635 39.7845 93.2966 39.7845 93.1298 39.7845C92.546 36.9487 91.8787 34.1128 91.2949 31.4438C92.8796 29.6089 94.2141 28.0242 95.5486 26.4394C95.7988 29.6089 97.0499 32.9452 96.6329 36.4482Z" fill="black"/>
<path d="M87.5441 11.175C87.2939 11.5921 87.127 12.1759 86.7934 12.5095C80.4545 19.0986 73.4484 24.5201 64.6907 27.1891C62.6055 27.8563 60.6038 28.607 58.5186 29.1908C57.768 29.441 57.3509 29.7747 57.1007 30.6087C55.933 34.8625 54.6819 39.0328 53.3474 43.2031C52.3465 46.456 51.0954 49.542 50.0112 52.7949C48.2596 51.794 48.0094 51.2935 48.5098 49.8756C48.8435 49.0416 49.3439 48.2909 49.7609 47.4569C50.178 46.6228 50.595 45.8721 50.8452 44.9547C52.1797 40.3673 53.4308 35.6965 54.7653 31.1092C54.8487 30.859 54.7653 30.4419 54.7653 30.0249C50.5116 29.441 46.4247 31.0258 41.7539 30.859C42.3378 30.1917 42.5046 29.6913 42.8382 29.6079C43.5888 29.3576 44.3395 29.1908 45.1736 29.1908C49.2605 28.7738 53.4308 28.5236 57.5177 28.1065C58.1016 28.0231 58.602 27.8563 59.1025 27.6895C63.523 25.938 68.027 24.2698 72.4475 22.3515C74.199 21.6008 75.7838 20.3497 77.2851 19.182C80.3711 16.6799 83.2903 14.0108 86.293 11.4252C86.5432 11.2584 86.7934 11.0916 87.0436 10.9248C87.2104 10.9248 87.3773 11.0916 87.5441 11.175Z" fill="black"/>
</svg>
