<svg width="14" height="14" viewBox="0 0 14 14" fill="none" xmlns="http://www.w3.org/2000/svg">
<path d="M6.63767 0.790761C6.78334 0.321894 7.44697 0.321896 7.59264 0.790763L8.77612 4.59997C8.8411 4.80911 9.03461 4.95162 9.25361 4.95162H13.1294C13.6083 4.95162 13.8133 5.55999 13.4319 5.84974L10.2584 8.26107C10.0909 8.3883 10.021 8.60671 10.0834 8.80754L11.2864 12.6796C11.4307 13.1442 10.8938 13.5204 10.5064 13.2261L7.41765 10.8792C7.23886 10.7433 6.99144 10.7433 6.81266 10.8792L3.72391 13.2261C3.33651 13.5204 2.79957 13.1442 2.94393 12.6796L4.14694 8.80754C4.20933 8.60671 4.13939 8.3883 3.97195 8.26107L0.798385 5.84974C0.417051 5.55999 0.621957 4.95162 1.10088 4.95162H4.9767C5.1957 4.95162 5.38921 4.80911 5.45418 4.59997L6.63767 0.790761Z" fill="#F7BE45"/>
</svg>
