<svg width="112" height="106" viewBox="0 0 112 106" fill="none" xmlns="http://www.w3.org/2000/svg">
<path d="M111 56.6766C110.437 61.1559 109.498 66.0086 108.935 70.8612C107.996 77.0204 104.616 81.873 100.861 86.1658C96.1674 91.3917 90.9102 95.8711 84.5266 99.044C75.1388 103.71 65.1878 105.576 54.8613 105.95C40.9674 106.51 28.3878 102.403 17.3103 93.4447C9.23682 87.099 5.10621 78.7001 0.975603 69.928C0.412338 68.4349 -0.150926 66.5685 0.0368286 65.0754C0.412338 59.1029 0.412338 52.7571 2.28989 47.1579C4.91846 39.8789 6.98376 32.6 11.3021 26.0675C15.996 18.7886 21.2531 13.0027 28.3878 8.33669C34.396 4.04396 40.9674 1.431 48.4776 0.871075C49.6041 0.871075 50.7307 0.684434 51.8572 0.684434C69.3184 -2.30181 83.4 4.79053 95.7918 15.989C103.302 22.5214 106.494 31.6667 108.747 40.8121C110.061 45.2915 110.249 50.8907 111 56.6766ZM107.057 56.1166C107.433 42.4919 103.678 30.3603 94.4776 19.7218C86.2163 10.2031 75.3266 4.41724 62.9347 3.48404C50.9184 2.3642 39.8409 6.09701 30.6409 13.5626C19.5633 22.5214 11.8654 34.0931 6.98376 46.9713C4.7307 52.7571 3.79193 59.8495 4.91846 65.822C7.73478 81.4997 17.6858 92.3249 32.1429 98.2974C48.2898 104.83 65 103.897 80.7715 96.431C97.6694 88.4054 107.808 75.9005 107.057 56.1166Z" fill="#EB584A"/>
<path d="M7.66997 74.3566C7.99116 73.9819 9.26033 72.8039 9.43248 72.3476C9.58863 72.2696 9.77694 71.8553 9.95333 71.6966C10.1937 71.4802 10.7073 71.4269 11.0229 71.4269C12.4484 71.4269 13.9434 71.3018 15.3106 71.7803C17.2969 72.4755 17.9088 75.377 18.2218 77.1608C18.3536 77.9123 18.496 79.163 18.2218 79.8999C17.9117 80.7333 16.7988 80.8019 16.0407 81.0997C14.9807 81.5162 14.293 82.1184 13.9713 83.2296C13.7914 83.851 13.4985 84.4482 13.3295 85.0758C13.1462 85.7567 13.1335 86.4697 13.0133 87.1639C12.8752 87.962 12.7958 88.8635 12.7808 89.6751C12.7742 90.0334 12.6205 90.3687 12.6134 90.7261C12.6069 91.0509 12.591 91.4118 12.4878 91.7213C12.4614 91.8006 12.4739 92.0154 12.4088 92.0654C12.178 92.2429 11.6305 92.2407 11.3485 92.3026C10.9098 92.3989 10.4367 92.3538 9.99053 92.3538C9.25663 92.3538 8.53413 92.4375 7.79553 92.4375C7.2634 92.4375 4.0752 92.542 4.0752 92.1863C4.0752 91.1067 4.41003 90.0562 4.41003 88.9729C4.41003 88.5052 4.5018 87.816 4.66115 87.3778C4.77885 87.0541 4.74758 86.7156 4.84717 86.3919C4.93986 86.0907 5.00701 85.754 5.07504 85.4479C5.11941 85.2482 5.23677 84.9121 5.2471 84.7364C5.27961 84.1837 5.41452 83.6246 5.41452 83.0622C5.41452 82.6231 5.39339 81.9662 5.54008 81.5555C5.7933 80.8465 5.67476 79.9868 5.83771 79.2535C6.06865 78.2143 5.9666 77.081 6.58642 76.1331C6.67203 76.0022 6.89157 75.8443 6.92125 75.6959C6.95897 75.5074 7.07881 75.2372 7.21888 75.1053C7.44164 74.8957 7.46715 74.5932 7.66997 74.3566Z" fill="white"/>
<path d="M42.6023 37.0015C41.6223 36.8615 40.3623 36.8615 39.3823 36.4415C38.5423 36.0215 37.5623 35.6015 36.7223 35.0415C35.0423 34.0615 33.7823 32.6615 32.3823 31.2615C30.2823 28.8815 28.1823 26.3615 27.3423 23.2815C26.9223 21.6015 26.7823 19.7815 26.0823 18.2415C26.0823 18.1015 25.9423 17.9615 25.8023 17.8215C25.3823 17.5415 25.1023 18.1015 24.8223 18.5215C24.2623 20.0615 24.2623 21.7415 24.8223 23.2815C25.3823 24.9615 26.6423 26.3615 27.4823 27.9015C27.9023 28.7415 28.3223 29.7215 28.7423 30.5615C29.3023 31.4015 29.8623 32.2415 30.5623 33.0815C31.1223 33.7815 31.6823 34.4815 32.3823 35.0415C34.0623 36.4415 36.1623 37.1415 38.2623 37.7015C41.3423 38.4015 44.5623 38.8215 47.6423 38.6815C47.7823 38.6815 47.7823 38.6815 47.9223 38.6815C48.0623 38.6815 48.0623 38.5415 48.0623 38.4015C48.0623 38.1215 48.3423 36.7215 47.9223 36.5815C47.6423 36.4415 46.5223 37.1415 46.2423 37.2815C44.9823 37.5615 43.8623 37.2815 42.6023 37.0015Z" fill="#BCBCBB"/>
<path d="M52.685 41.2004C52.405 40.3604 52.125 39.5204 51.985 38.6804C51.705 37.2804 51.705 35.8804 51.705 34.4804C51.705 32.3804 51.705 30.2804 51.705 28.1804C51.705 26.9204 51.705 25.6604 51.985 24.4004C49.605 28.6004 48.485 33.5004 48.905 38.2604C48.905 38.8204 49.045 39.5204 49.325 40.0804C49.605 40.9204 50.165 41.6204 50.725 42.3204C51.005 42.7404 51.285 43.1604 51.705 43.5804C51.985 43.8604 53.805 46.6604 53.945 45.1204C54.085 44.5604 53.525 43.7204 53.245 43.1604C53.105 42.6004 52.965 41.9004 52.685 41.2004Z" fill="#BCBCBB"/>
<path d="M87.5458 76.9025C88.5258 76.0625 89.3658 75.2225 90.2058 74.2425C92.4458 71.5825 93.9858 68.2225 95.1058 65.0025C96.2258 61.7825 97.2058 58.4225 98.0458 55.0625C98.6058 63.0425 95.2458 70.8825 90.7658 77.4625C90.3458 78.1625 89.9258 78.7225 89.3658 79.2825C88.9458 79.7025 88.3858 79.9825 87.8258 80.4025C83.9058 82.9225 80.1258 85.3025 76.2058 87.8225C75.5058 88.2425 72.7058 90.4825 72.0058 89.9225C70.7458 89.0825 73.9658 87.5425 74.5258 87.2625C77.4658 85.3025 80.4058 83.0625 83.2058 80.8225C84.6058 79.5625 86.1458 78.1625 87.5458 76.9025Z" fill="#BCBCBB"/>
<path d="M28.6089 82.5039C27.3489 82.3639 25.9489 82.2239 24.8289 81.5239C24.1289 81.1039 23.5689 80.4039 22.7289 79.9839C21.8889 79.5639 21.0489 79.4239 20.2089 79.2839C18.9489 79.1439 17.5489 79.0039 16.2889 79.1439C15.0289 79.2839 13.7689 79.7039 12.6489 80.5439C11.3889 81.5239 10.6889 83.0639 10.4089 84.7439C10.1289 86.2839 10.4089 87.9639 10.6889 89.5039C10.8289 90.4839 11.1089 91.4639 11.6689 92.3039C12.7889 89.7839 13.2089 86.8439 13.4889 84.0439C13.4889 83.6239 13.6289 83.2039 13.7689 82.7839C14.0489 82.2239 14.7489 81.8039 15.4489 81.5239C16.5689 81.1039 17.8289 80.8239 19.0889 80.8239C19.6489 80.8239 20.3489 80.8239 20.7689 81.1039C21.3289 81.3839 21.7489 81.9439 22.0289 82.5039C23.2889 84.0439 24.9689 85.3039 26.9289 85.3039C27.7689 85.3039 28.4689 85.1639 29.1689 84.8839C29.5889 84.7439 31.8289 84.4639 31.1289 83.6239C31.1289 82.7839 29.4489 82.7839 28.6089 82.5039Z" fill="#BCBCBB"/>
<path d="M44.8489 82.3616C48.2089 83.0616 51.5689 83.4816 55.0689 83.3416C57.3089 83.2016 59.5489 82.9216 61.7889 82.3616C65.1489 81.6616 68.5089 80.8216 71.5889 79.5616C76.4889 77.4616 80.8289 74.2416 84.7489 70.6016C83.7689 73.5416 81.5289 75.7816 79.4289 78.0216C78.7289 78.8616 77.8889 79.5616 77.0489 80.1216C76.0689 80.8216 74.9489 81.2416 73.8289 81.5216C66.2689 84.3216 58.4289 87.1216 50.4489 86.7016C45.1289 86.4216 41.0689 85.3016 36.5889 82.2216C37.0089 82.5016 37.8489 80.6816 38.1289 80.4016C38.8289 79.9816 39.5289 79.1416 40.3689 79.7016C41.0689 80.2616 41.4889 80.9616 42.3289 81.3816C43.1689 81.9416 44.0089 82.0816 44.8489 82.3616Z" fill="#BCBCBB"/>
<path d="M26.5034 70.6024C24.1234 69.2024 21.3234 68.9224 18.5234 68.6424C22.1634 68.2224 25.9434 68.5024 29.4434 69.6224C30.0034 69.7624 30.4234 69.9024 30.9834 70.1824C31.8234 70.6024 32.6634 71.3024 33.6434 71.3024C33.6434 72.0024 33.3634 72.5624 33.0834 73.1224C32.8034 73.6824 32.5234 74.2424 32.2434 74.8024C32.1034 75.2224 31.8234 75.9224 31.5434 76.0624C30.7034 76.6224 30.5634 75.2224 30.2834 74.6624C29.5834 72.9824 28.0434 71.4424 26.5034 70.6024Z" fill="#BCBCBB"/>
<path d="M62.2059 51.4233C60.5259 51.0033 58.5659 52.4033 58.2859 54.0833C58.1459 54.6433 58.2859 55.3433 58.7059 55.7633C58.9859 56.0433 59.2659 56.0433 59.6859 56.1833C63.3259 57.3033 66.9659 57.7233 70.7459 57.5833C71.3059 57.5833 71.7259 57.5833 72.2859 57.3033C72.7059 57.1633 73.1259 56.7433 73.6859 56.6033C74.3859 56.3233 75.0859 56.1833 75.7859 55.9033C76.4859 55.6233 77.1859 55.0633 77.8859 54.7833C81.5259 52.8233 86.0059 53.8033 89.9259 52.4033C89.9259 52.2633 89.7859 52.1233 89.6459 52.1233C85.7259 51.0033 81.6659 50.8633 77.6059 50.8633C74.8059 50.8633 72.0059 50.8633 69.2059 50.8633C67.6659 50.8633 65.9859 50.8633 64.4459 50.8633C63.1859 50.8633 61.9259 50.8633 60.9459 51.4233" fill="#BCBCBB"/>
<path d="M107.829 21.899C107.556 21.8385 107.115 21.8844 106.979 21.8541C106.599 21.6266 106.386 21.2927 106.31 20.9891C105.549 19.2434 104.181 17.6501 102.89 16.3604C101.385 14.7368 99.9408 12.8398 98.2692 11.3226C95.549 8.71296 92.6921 6.07304 89.1527 4.57255C86.7831 3.61779 84.3529 2.93642 81.4981 2.87797C81.3614 2.84771 81.2247 2.81745 80.9513 2.75693C80.9513 2.75693 80.9513 2.75693 80.8751 2.45329C81.8769 1.81471 83.0309 1.78341 83.9877 1.99523C85.9014 2.41888 88.1187 2.76635 89.9416 3.60007C94.2708 5.41881 97.8268 8.78706 101.049 12.3682C102.31 13.7946 103.602 15.0842 104.727 16.4804C106.095 18.0737 107.023 19.713 108.087 21.3825C108.026 21.6559 107.996 21.7925 107.829 21.899Z" fill="black"/>
<path d="M108.329 9.96499C107.282 10.1632 106.826 9.63212 106.537 8.99457C104.241 5.76197 101.233 3.80549 97.5872 2.13804C96.2808 1.56205 95.1716 0.742942 93.7588 0C99.4998 1.27096 104.361 3.92447 107.858 8.85685C108.238 9.08432 108.177 9.3577 108.329 9.96499Z" fill="black"/>
<path d="M44.5618 62.3094C44.2082 61.3203 44.0608 60.5032 43.7838 59.6474C43.2886 57.2907 42.7933 54.934 42.3747 52.7106C41.9267 50.8098 42.2326 48.9132 42.8506 46.9993C42.9272 47.1326 43.1334 47.3046 43.0274 47.4939C43.0284 52.3536 44.7198 57.1658 45.3451 61.9911C45.2155 61.9524 45.0329 62.0083 44.5618 62.3094Z" fill="black"/>
<path d="M39.0169 50.0645C39.0641 50.5204 39.0583 51.0709 39.0525 51.6213C38.7938 53.9738 38.7943 56.4036 39.6547 58.6484C39.6783 58.8764 39.5723 59.0656 39.4663 59.2548C39.2071 59.1774 38.7654 59.156 38.4296 58.9453C38.0939 58.7346 38.0467 58.2787 38.0761 57.9562C37.6868 55.4103 37.2976 52.8644 38.104 50.3442C38.157 50.2495 38.21 50.1549 38.4456 50.0044C38.7047 50.0818 38.7047 50.0818 39.0169 50.0645Z" fill="black"/>
<path d="M63.8943 14.3178C65.9943 13.8978 67.9543 14.0378 69.7743 14.3178C71.7343 14.5978 73.4143 14.8778 75.3743 15.4378C76.3543 15.7178 77.3343 15.9978 78.1743 16.5578C79.0143 16.9778 79.8543 17.3978 80.6943 17.9578C82.3743 19.0778 83.7743 20.1978 85.3143 21.3178C86.0143 21.8778 86.8543 22.5778 87.5543 23.2778C88.2543 23.9778 88.8143 24.6778 89.5143 25.3778C90.0743 26.0778 90.7743 26.6378 91.4743 27.4778C92.1743 28.1778 92.7343 29.0178 93.1543 29.8578C94.1343 31.5378 94.9743 33.3578 95.5343 35.0378C96.2344 36.8578 96.7943 38.5378 97.3543 40.3578C98.0543 42.1778 97.7743 44.1378 98.1943 45.9578C98.4743 47.7778 98.6143 49.7378 98.7543 51.5578C98.8943 53.3778 99.0343 55.1978 99.0343 57.1578C99.0343 58.9778 98.8943 61.0778 98.3344 62.8978C98.0544 63.8778 97.7743 64.7178 97.3543 65.5578C97.0743 66.3978 96.7943 67.2378 96.3744 68.2178C95.8143 70.0378 94.9743 71.7178 93.8543 73.3978C93.0143 74.7978 91.8943 76.1978 90.9143 77.7378C90.6343 78.1578 90.4943 78.5778 90.2143 78.9978C89.9343 79.4178 89.5143 79.8378 89.2343 80.1178C88.5343 80.8178 87.6943 81.2378 86.9943 81.7978C83.9143 83.8978 80.9743 86.1378 77.7543 88.0978C76.0743 89.0778 74.3943 89.9178 72.5743 90.4778C70.7543 91.0378 68.9343 91.3178 67.1143 91.7378C63.4743 92.4378 59.6943 92.8578 55.9143 92.9978C52.1343 93.1378 48.3543 92.5778 44.7143 91.5978C42.8943 91.0378 41.0743 90.4778 39.3943 89.7778C37.7143 89.0778 36.0343 88.2378 34.3543 87.1178C33.5143 86.5578 32.8143 85.9978 32.1143 85.2978C31.4143 84.5978 32.1143 84.7378 31.4143 84.8778C30.9943 85.0178 30.5743 85.1578 30.0143 85.2978C29.5943 85.4378 29.0343 85.5778 28.4743 85.5778C28.0543 85.5778 27.6343 85.7178 27.0743 85.7178C26.7943 85.7178 26.5143 85.7178 26.3743 85.7178C26.0943 85.5778 25.8143 85.5778 25.6743 85.5778C25.2543 85.4378 24.6943 85.4378 24.1343 85.1578C23.5743 84.8778 23.1543 84.5978 22.8743 84.1778L22.0343 83.0578C21.4743 82.3578 20.9143 82.0778 20.0743 81.7978C18.3943 81.3778 16.5743 81.3778 15.4543 82.3578C14.4743 83.1978 14.0543 85.2978 13.6343 86.9778C13.2143 88.7978 13.0743 90.4778 13.0743 92.2978V93.1378L12.2343 93.2778C9.43434 93.8378 6.49434 93.8378 3.69434 93.8378V91.3178C6.49434 91.4578 9.15434 91.5978 11.9543 91.3178L11.1143 92.2978C11.1143 90.3378 11.3943 88.5178 11.8143 86.5578C12.0943 85.5778 12.2343 84.7378 12.6543 83.7578C12.9343 82.9178 13.4943 81.7978 14.3343 81.0978C15.3143 80.3978 16.4343 80.1178 17.4143 80.1178C18.3943 80.1178 19.3743 80.2578 20.3543 80.5378C20.9143 80.6778 21.3343 80.8178 21.8943 81.2378C22.3143 81.5178 22.7343 81.9378 23.0143 82.3578L23.8543 83.4778C24.1343 83.7578 24.4143 84.0378 24.6943 84.1778C25.3943 84.4578 26.2343 84.5978 27.0743 84.5978C27.4943 84.5978 28.0543 84.5978 28.4743 84.5978C28.8943 84.5978 29.3143 84.5978 29.7343 84.4578C30.1543 84.3178 30.5743 84.1778 31.1343 84.1778C31.4143 84.1778 31.5543 83.8978 32.1143 84.1778C32.3943 84.3178 32.3943 84.4578 32.3943 84.4578L32.5343 84.5978H32.8143C33.3743 85.2978 34.0743 85.8578 34.7743 86.4178C37.7143 88.5178 41.3543 89.6378 44.8543 90.4778C48.4943 91.3178 52.1343 91.7378 55.7743 91.5978C59.4143 91.4578 63.0543 91.0378 66.6943 90.3378C68.5143 90.0578 70.3343 89.7778 72.0143 89.2178C73.6943 88.6578 75.3743 87.9578 76.9143 86.9778C80.1343 85.1578 83.0743 82.9178 86.0143 80.8178C86.7143 80.2578 87.5543 79.6978 88.1143 79.1378C88.8143 78.5778 89.0943 78.0178 89.6543 77.0378C90.6343 75.3578 91.7543 73.9578 92.7343 72.4178C93.7143 70.8778 94.5543 69.3378 95.1143 67.5178C95.3943 66.6778 95.6743 65.6978 96.0943 64.8578C96.3743 64.0178 96.7943 63.1778 96.9343 62.3378C98.0544 58.9778 97.4943 55.1978 97.3543 51.5578C97.2143 49.7378 97.0743 47.9178 96.7943 46.0978C96.6543 44.2778 95.6743 42.5978 95.2543 40.9178C94.1343 37.4178 92.8743 33.9178 91.0543 30.9778C90.6343 30.2778 90.0743 29.5778 89.5143 28.8778C88.9543 28.3178 88.2543 27.6178 87.6943 26.9178C87.1343 26.2178 86.4343 25.5178 85.8743 24.9578C85.3143 24.3978 84.6143 23.8378 83.9143 23.2778C82.5143 22.1578 80.9743 21.0378 79.5743 20.0578C78.8743 19.6378 78.0343 19.2178 77.1943 18.7978C76.3543 18.3778 75.6543 18.0978 74.8143 17.9578C71.3143 17.2578 67.5343 16.4178 64.3143 17.1178L63.8943 14.3178Z" fill="black"/>
<path d="M2.85254 93.6977C3.55254 89.6377 3.83254 85.5777 4.67254 81.3777C5.09254 79.2777 5.51254 77.1777 6.35254 75.2177C7.19254 73.2577 8.45254 71.2977 10.4125 70.0377C12.3725 68.7777 14.3325 68.3577 16.4325 67.7977C18.5325 67.3777 20.6325 67.2377 22.7325 67.3777C26.9325 67.5177 31.1325 68.7777 34.7725 71.0177L33.9325 71.1577C34.7725 70.0377 35.8925 69.0577 37.1525 68.4977C38.4125 67.9377 39.8125 67.5177 41.2125 67.3777C42.6125 67.2377 43.8725 67.0977 45.2725 67.0977C46.5325 67.0977 47.9325 67.2377 49.3325 67.3777L48.6325 67.7977C49.0525 66.3977 49.6125 64.8577 50.3125 63.4577C50.5925 62.7577 51.1525 61.9177 51.9925 61.4977C52.6925 61.0777 53.3925 60.6577 54.2325 60.5177L53.8125 61.6377C52.9725 60.5177 52.4125 59.1177 52.1325 57.8577C51.8525 56.5977 51.7125 55.1977 51.7125 53.9377C51.7125 52.6777 51.5725 51.4177 51.8525 50.0177C52.1325 48.6177 52.8325 47.3577 53.5325 46.2377L53.8125 47.0777C52.9725 46.5177 52.4125 45.8177 51.8525 45.1177C51.2925 44.4177 50.8725 43.7177 50.4525 43.0177C49.4725 41.6177 48.7725 39.7977 48.4925 38.1177C47.7925 34.6177 48.0725 30.9777 49.4725 27.7577C50.0325 26.0777 50.8725 24.5377 51.5725 23.1377C51.9925 22.4377 52.4125 21.5977 52.8325 20.8977C53.3925 20.0577 53.9525 19.3577 54.6525 18.7977C57.4525 16.5577 60.6725 15.0177 64.1725 14.1777L64.7325 16.6977C61.6525 17.2577 58.7125 18.5177 56.1925 20.4777C54.9325 21.4577 54.2325 22.5777 53.3925 24.1177C52.4125 25.7977 51.5725 27.1977 51.0125 28.7377C49.7525 31.6777 49.3325 34.8977 49.8925 37.9777C50.1725 39.5177 50.7325 40.9177 51.5725 42.3177C51.9925 43.0177 52.4125 43.7177 52.9725 44.4177C53.3925 45.1177 53.9525 45.6777 54.5125 46.0977L54.9325 46.3777L54.6525 46.9377C54.2325 48.1977 53.8125 49.1777 53.6725 50.2977C53.5325 51.4177 53.6725 52.6777 53.6725 53.9377C53.6725 56.4577 53.8125 58.8377 54.9325 60.9377L55.3525 61.7777L54.5125 62.0577C53.8125 62.1977 53.2525 62.4777 52.6925 62.8977C52.1325 63.3177 51.8525 63.7377 51.5725 64.4377C50.8725 65.6977 50.4525 67.0977 50.0325 68.6377L49.6125 69.0577H49.0525C47.7925 69.0577 46.5325 69.0577 45.2725 69.1977C44.0125 69.3377 42.7525 69.3377 41.4925 69.6177C39.1125 70.0377 36.8725 70.8777 34.9125 72.4177L34.4925 72.8377L34.0725 72.5577C30.7125 70.4577 26.6525 69.3377 22.5925 69.0577C20.6325 68.9177 18.5325 69.0577 16.5725 69.4777C14.6125 69.8977 12.6525 70.4577 10.9725 71.4377C9.43254 72.4177 8.17254 74.0977 7.47254 75.9177C6.77254 77.7377 6.35254 79.6977 5.93254 81.7977C5.23254 85.8577 4.81254 89.9177 4.11254 94.1177L2.85254 93.6977Z" fill="black"/>
<path d="M50.4535 28.0388C48.6335 28.7388 46.8135 28.3188 45.1335 27.7588C44.2935 27.4788 43.5935 27.1988 42.7535 26.9188C41.9135 26.6388 41.2135 26.2188 40.5135 25.6588C39.2535 24.5388 37.9935 23.2788 37.1535 21.8788C36.3135 20.3388 35.6135 18.6588 35.4735 16.8388L36.0335 17.5388C34.0735 17.1188 32.1135 17.1188 30.1535 17.2588C29.1735 17.3988 28.1935 17.5388 27.3535 17.8188L25.9535 18.2388C25.5335 18.3788 25.1135 18.5188 25.1135 18.6588C25.1135 18.6588 25.1135 18.5188 25.1135 18.6588C25.1135 18.7988 25.1135 18.9388 25.1135 19.0788C25.1135 19.4988 25.2535 19.9188 25.3935 20.3388L25.9535 21.8788L26.3735 23.2788C27.0735 25.2388 27.7735 27.0588 28.7535 28.7388C29.7335 30.5588 30.7135 32.2388 32.1135 33.6388C33.3735 35.0388 35.1935 36.0188 37.1535 36.5788C38.1335 36.8588 39.1135 37.2788 40.0935 37.5588C41.0735 37.8388 42.0535 38.1188 43.0335 38.2588C44.9935 38.5388 47.0935 38.5388 49.0535 38.3988V39.7988C46.9535 39.6588 44.8535 39.7988 42.7535 39.5188L39.6735 38.9588C38.6935 38.6788 37.7135 38.3988 36.5935 38.1188C34.6335 37.4188 32.5335 36.5788 30.8535 35.0388C29.1735 33.4988 28.0535 31.6788 26.9335 29.9988C25.8135 28.1788 24.8335 26.2188 24.1335 24.2588L23.5735 22.7188L23.0135 21.3188C22.8735 20.7588 22.5935 20.1988 22.5935 19.6388C22.5935 19.3588 22.4535 18.9388 22.5935 18.5188C22.5935 18.3788 22.5935 17.9588 22.7335 17.6788C22.8735 17.3988 23.0135 17.1188 23.1535 16.9788C23.8535 16.2788 24.5535 16.1388 25.1135 15.9988L25.8135 15.8588C26.0935 15.8588 26.3735 15.7188 26.6535 15.7188C27.7735 15.4388 28.8935 15.2988 29.8735 15.2988C32.1135 15.2988 34.2135 15.7188 36.3135 16.5588L36.8735 16.8388V17.2588C36.7335 18.7988 37.0135 20.3388 37.8535 21.8788C38.5535 23.2788 39.6735 24.5388 40.9335 25.5188C41.6335 26.0788 42.3335 26.3588 43.0335 26.6388C43.8735 26.9188 44.5735 27.1988 45.4135 27.3388C46.9535 27.7588 48.6335 27.8988 49.8935 27.0588L50.4535 28.0388Z" fill="black"/>
<path d="M31.5707 76.8956L31.0107 77.3156C31.8507 75.2156 32.5507 72.4156 34.3707 71.0156L35.2107 72.1356C33.5307 73.2556 32.2707 74.9356 31.5707 76.8956Z" fill="black"/>
<path d="M91.0545 53.0962C89.9344 52.3962 87.1345 52.5362 85.7345 52.2562C84.3345 51.9762 82.6545 51.6962 81.1145 51.6962C78.1745 51.6962 76.0745 51.6962 73.1345 51.8362C70.1945 52.1162 67.2544 51.9762 64.4545 52.1162C63.0545 52.2562 61.6545 52.3962 60.2544 52.6762C59.6945 52.8162 59.1345 53.0962 58.8545 53.5162C58.7145 53.6562 58.5745 53.9362 58.5745 54.2162C58.4345 54.4962 58.5745 54.6362 58.5745 54.4962C58.4345 54.3562 58.7145 54.6362 58.8545 54.6362C58.9945 54.7762 59.1345 54.7762 59.2745 54.9162C59.5545 55.0562 59.8345 55.1962 60.1145 55.4762C60.6745 55.7562 61.3745 56.0362 62.0745 56.3162C63.3345 56.7362 64.7345 57.0162 66.1345 57.2962C68.9345 57.7162 71.8745 57.7162 74.6745 57.7162C77.6145 57.7162 80.5545 57.7162 83.2145 57.2962C84.6145 57.0162 85.8745 56.7362 87.2745 56.1762C88.6745 55.7562 89.6545 55.1962 90.7745 54.2162L92.0345 53.0962V54.6362C91.8945 60.7962 89.6545 66.8162 85.8745 71.5762C84.8945 72.8362 84.0545 73.9562 83.0745 75.0762C82.0945 76.1962 81.1144 77.3162 79.9944 78.4362C78.8744 79.5562 77.7545 80.5362 76.3545 81.2362C74.9544 82.0762 73.5545 82.4962 72.1544 83.0562C66.5545 85.0162 60.6745 86.6962 54.5145 86.9762C48.4945 87.2562 42.1945 86.1362 37.0145 82.7762L36.3145 82.3562L37.0145 81.7962C38.1345 80.8162 38.9745 79.5562 39.9545 78.2962C40.3745 77.5962 41.2145 76.8962 42.0545 76.6162C42.8945 76.3362 43.5945 76.0562 44.4345 75.9162C47.5145 75.0762 50.5945 74.3762 53.1145 72.6962C55.6345 71.0162 58.1545 68.9162 58.9945 65.9762C59.4145 64.5762 59.4145 63.0362 58.9945 61.4962C58.5745 60.0962 57.5945 58.6962 57.3145 57.0162L57.7345 57.7162C58.7145 58.9762 59.2745 59.6762 59.6945 61.2162C60.2545 62.7562 60.2545 64.5762 59.8345 66.1162C59.4145 67.7962 58.5745 69.1962 57.4545 70.4562C56.3344 71.7162 55.0745 72.5562 53.6745 73.5362C50.8745 75.3562 47.6545 76.0562 44.7145 77.0362C44.0145 77.3162 43.1745 77.4562 42.6145 77.7362C41.9145 78.0162 41.4945 78.4362 41.0745 78.9962C40.2345 80.2562 39.2545 81.6562 37.9945 82.7762L37.8545 81.6562C42.6145 85.1562 48.6345 86.2762 54.5145 85.9962C60.3945 85.7162 66.1345 84.0362 71.8745 82.0762C73.2745 81.6562 74.6744 81.0962 75.9345 80.3962C77.1945 79.6962 78.3144 78.7162 79.2944 77.7362C81.3944 75.6362 83.2145 73.2562 85.0345 71.0162C88.6745 66.3962 90.6345 60.6562 90.7745 54.7762L92.0345 55.1962C91.6145 55.8962 91.0545 56.4562 90.3545 56.8762C89.6544 57.2962 88.9544 57.7162 88.2545 57.9962C86.8545 58.6962 85.3145 59.1162 83.9145 59.3962C80.8345 59.9562 77.8945 59.8162 74.9544 59.8162C72.0145 59.8162 69.0745 59.6762 66.1345 59.2562C64.5945 58.9762 63.1945 58.6962 61.7945 58.1362C61.0945 57.8562 60.3945 57.5762 59.6945 57.1562C59.4145 57.0162 58.9945 56.7362 58.7145 56.5962C58.5745 56.4562 58.4345 56.4562 58.2945 56.3162C58.1545 56.1762 58.0145 56.1762 57.7345 55.7562C57.1745 55.0562 57.3145 54.3562 57.4545 53.9362C57.5944 53.5162 57.8745 53.0962 58.1545 52.6762C58.8545 51.8362 59.6945 51.5562 60.3945 51.4162C61.9345 50.9962 63.3345 50.9962 64.8745 50.8562C67.8145 50.7162 70.7545 50.9962 73.5545 50.8562C76.4944 50.7162 79.4345 50.5762 82.3745 50.7162C83.9145 50.8562 85.3145 50.9962 86.7145 51.2762C88.1145 51.5562 89.9344 51.5562 91.1944 52.3962L91.0545 53.0962Z" fill="black"/>
<path d="M62.0633 73.1156C62.2032 73.3955 62.483 73.5354 62.7628 73.5354C63.0427 73.5354 63.3225 73.3955 63.4624 73.2556C63.8821 72.9757 63.7422 72.4161 63.6023 72.2762C63.4624 72.1363 63.3225 72.1363 63.0427 72.1363C62.9027 72.1363 62.7628 72.1363 62.7628 72.1363C62.7628 72.1363 62.483 72.1363 62.3431 72.4161C62.0633 72.556 61.9234 72.8358 62.0633 73.1156ZM61.9234 73.2556C61.7835 72.9757 61.5036 72.6959 61.5036 72.2762C61.3637 71.8564 61.5036 71.2968 61.9234 71.017C62.3431 70.7371 63.0427 70.7371 63.3225 70.8771C63.7422 71.017 64.022 71.2968 64.3019 71.7165C64.8615 72.556 64.3019 73.5354 63.7422 73.9551C63.3225 74.095 62.9028 74.095 62.6229 73.9551C62.3431 73.6753 62.0633 73.5354 61.9234 73.2556Z" fill="black"/>
<path d="M71.1785 76.4738C71.3184 76.7536 71.4583 76.7536 71.7382 76.7536C72.018 76.7536 72.1579 76.6137 72.1579 76.4738C72.4377 76.194 72.2978 75.7742 72.1579 75.7742C72.1579 75.7742 72.018 75.7742 71.7382 75.7742C71.5983 75.7742 71.5983 75.7742 71.5983 75.7742C71.5983 75.7742 71.4583 75.6343 71.1785 75.7742C71.1785 75.9141 71.0386 76.194 71.1785 76.4738ZM71.0386 76.4738C70.8987 76.194 70.7588 76.054 70.6189 75.6343C70.479 75.3545 70.6189 74.7948 71.0386 74.515C71.4583 74.2352 72.018 74.2352 72.2978 74.3751C72.5776 74.515 72.8575 74.6549 73.1373 75.0747C73.557 75.9141 73.1373 76.7536 72.5776 77.0334C72.2978 77.1733 71.8781 77.1733 71.5983 77.0334C71.3184 76.8935 71.1785 76.7536 71.0386 76.4738Z" fill="black"/>
<path d="M64.3123 78.8566C64.4522 79.1364 64.5921 79.1364 64.872 79.1364C65.1518 79.1364 65.2917 78.9965 65.2917 78.8566C65.5715 78.5768 65.4316 78.157 65.2917 78.157C65.2917 78.157 65.1518 78.157 64.872 78.157C64.732 78.157 64.732 78.157 64.732 78.157C64.732 78.157 64.5921 78.0171 64.3123 78.157C64.3123 78.2969 64.1724 78.5768 64.3123 78.8566ZM64.1724 78.8566C64.0325 78.5768 63.8926 78.4369 63.7527 78.0171C63.6128 77.7373 63.7527 77.1777 64.1724 76.8978C64.5921 76.618 65.1518 76.618 65.4316 76.7579C65.7114 76.8978 65.9912 77.0377 66.2711 77.4575C66.6908 78.2969 66.2711 79.1364 65.7114 79.4162C65.4316 79.5561 65.0119 79.5561 64.732 79.4162C64.4522 79.2763 64.3123 79.1364 64.1724 78.8566Z" fill="black"/>
<path d="M67.3897 71.8587C67.3897 72.2787 67.8097 72.5587 68.0897 72.5587C68.5097 72.5587 68.9297 72.5587 69.2097 72.4187C69.4897 72.2787 69.7697 72.1387 69.9097 71.8587C70.0497 71.5787 70.0497 71.2987 70.0497 71.0187C70.0497 71.0187 70.0497 71.0187 69.9097 71.0187C69.7697 71.0187 69.6297 70.8787 69.4897 70.8787C69.2097 70.8787 68.9297 70.8787 68.6497 70.8787C68.3697 70.8787 68.0897 71.0187 67.8097 71.1587C67.3897 71.4387 67.3897 71.4387 67.3897 71.8587ZM66.9697 72.1387C66.9697 71.7187 66.9697 71.2987 67.1097 70.7387C67.2497 70.3187 67.6697 69.7587 68.2297 69.6187C68.7897 69.4787 69.3497 69.4787 69.7697 69.6187C70.0497 69.7587 70.3297 69.8987 70.4697 70.0387C70.6097 70.1787 70.7497 70.1787 70.8897 70.4587C71.0297 70.5987 71.0297 70.8787 71.0297 71.0187C71.0297 71.2987 70.8897 71.5787 70.8897 71.7187C70.8897 71.9987 70.7497 72.2787 70.4697 72.4187C70.1897 72.8387 69.6297 73.1187 69.2097 73.1187C68.7897 73.1187 68.2297 73.1187 67.9497 72.8387C67.8097 72.6987 67.5297 72.6987 67.3897 72.5587C67.2497 72.5587 67.1097 72.4187 66.9697 72.1387Z" fill="black"/>
<path d="M62.9073 65.1365C62.7673 65.5565 63.1873 65.6965 63.6073 65.6965C64.0273 65.6965 64.3073 65.6965 64.5873 65.5565C64.8673 65.4165 65.0073 65.2765 65.1473 65.1365C65.2873 64.9965 65.2873 64.4365 65.2873 64.2965C65.2873 64.1565 65.2873 64.2965 65.2873 64.4365C65.2873 64.4365 65.1473 64.4365 65.0073 64.4365C64.7273 64.4365 64.4473 64.4365 64.1673 64.4365C63.8873 64.4365 63.6073 64.4365 63.4673 64.4365C63.1873 64.4365 62.9073 64.8565 62.9073 65.1365ZM62.7673 65.2765C62.7673 64.8565 62.6273 64.4365 62.7673 64.0165C62.9073 63.4565 63.4673 63.1765 63.8873 63.0365C64.3073 62.8965 64.8673 63.0365 65.2873 63.1765C65.5673 63.3165 65.7073 63.3165 65.9873 63.4565C66.1273 63.5965 66.2673 63.8765 66.4073 64.0165C66.4073 64.1565 66.4073 64.4365 66.4073 64.5765C66.2673 64.9965 66.2673 65.4165 65.9873 65.8365C65.7073 66.2565 65.1473 66.5365 64.7273 66.5365C64.3073 66.5365 63.8873 66.3965 63.4673 66.2565C63.3273 66.1165 63.1873 66.1165 62.9073 65.9765C62.9073 65.6965 62.7673 65.4165 62.7673 65.2765Z" fill="black"/>
<path d="M77.6185 69.6157C77.8985 69.6157 78.3185 69.6157 78.7385 69.6157C79.0185 69.4757 79.1585 69.3357 79.2985 69.0557C79.4385 68.7757 79.2985 68.4957 79.2985 68.2157L79.4385 68.3557C79.5785 68.3557 79.4385 68.3557 79.2985 68.3557H78.7385C78.4585 68.3557 78.0385 68.3557 77.8985 68.4957C77.6185 68.6357 77.6185 68.6357 77.3385 68.7757C77.1985 68.9157 77.1985 68.9157 77.0585 68.9157C77.0585 68.9157 76.9185 68.9157 76.9185 69.0557C76.9185 69.3357 77.3385 69.6157 77.6185 69.6157ZM77.6185 69.7557C77.1985 69.7557 76.9185 69.8957 76.3585 69.6157C76.0785 69.4757 75.9385 69.0557 75.9385 68.6357C75.9385 68.3557 76.0785 68.0757 76.2185 67.9357C76.4985 67.5157 77.0585 67.2357 77.4785 67.0957C77.8985 67.0957 78.3185 67.0957 78.7385 67.0957L79.2985 67.2357C79.4385 67.2357 79.4385 67.2357 79.7185 67.3757C79.8585 67.3757 79.9985 67.6557 79.9985 67.7957C79.9985 67.9357 79.9985 68.0757 79.9985 68.0757C79.9985 68.4957 79.8585 68.9157 79.7185 69.3357C79.5785 69.7557 79.0185 70.0357 78.5985 69.8957C78.3185 69.7557 78.0385 69.7557 77.6185 69.7557Z" fill="black"/>
<path d="M72.2893 65.2759C72.5693 65.5559 72.8493 65.5559 73.2693 65.4159C73.5493 65.2759 73.8293 65.1359 74.1093 64.9959C74.3893 64.8559 74.5293 64.5759 74.5293 64.2959C74.5293 64.1559 74.6693 64.0159 74.5293 64.0159L74.6693 64.1559C74.3893 64.1559 73.9693 64.1559 73.6893 64.1559C73.4093 64.1559 73.2693 64.2959 72.9893 64.2959C72.7093 64.4359 72.4293 64.4359 72.2893 64.5759C72.0093 64.5759 72.0093 64.9959 72.2893 65.2759ZM72.1493 65.4159C71.8693 65.1359 71.4493 64.8559 71.5893 64.2959C71.5893 63.7359 72.0093 63.3159 72.4293 63.0359C72.8493 62.7559 73.4093 62.7559 73.8293 62.7559C74.2493 62.8959 74.5293 62.8959 74.9493 63.0359C75.0893 63.0359 75.3693 63.1759 75.5093 63.4559C75.6493 63.5959 75.6493 63.8759 75.6493 64.0159C75.6493 64.2959 75.5093 64.5759 75.3693 64.7159C75.0893 65.1359 74.8093 65.4159 74.3893 65.5559C73.5493 65.9759 72.7093 65.8359 72.1493 65.4159Z" fill="black"/>
<path d="M67.9556 21.1842C73.4156 20.7642 78.8756 22.4442 82.9356 26.0842C84.6156 27.3442 85.0356 29.7242 85.3156 31.6842C85.3156 32.8042 84.8956 34.0642 84.0556 34.7642C82.5156 35.8842 79.8556 35.8842 78.0356 35.1842C75.9356 34.3442 75.2356 31.6842 73.5556 30.1442C70.7556 27.6242 66.6956 28.6042 63.3356 28.3242C62.6356 28.1842 61.7956 28.0442 61.3756 27.4842C60.8156 26.3642 60.8156 24.4042 61.5156 23.4242C62.9156 21.7442 66.1356 21.1842 67.9556 21.1842Z" fill="#BCBCBB"/>
</svg>
