<svg width="58" height="56" viewBox="0 0 58 56" fill="none" xmlns="http://www.w3.org/2000/svg">
<g clip-path="url(#clip0_10476_6337)">
<path d="M57.0002 30.3001C56.7002 32.6001 56.2002 35.1001 55.9002 37.6001C55.5002 40.8001 53.7002 43.3001 51.7002 45.5001C49.3002 48.2001 46.6002 50.5001 43.3002 52.2001C38.5002 54.6001 33.3002 55.6001 28.1002 55.8001C21.0002 56.1001 14.5002 53.9001 8.80023 49.3001C4.70023 46.0001 2.60023 41.6001 0.500232 37.1001C0.200232 36.3001 0.000231713 35.3001 0.100232 34.6001C0.300232 31.5001 0.300232 28.2001 1.30023 25.3001C2.60023 21.6001 3.70023 17.7001 5.90023 14.3001C8.30023 10.6001 11.0002 7.50011 14.7002 5.10011C17.8002 2.90011 21.2002 1.50011 25.0002 1.30011C25.5002 1.30011 26.2002 1.20011 26.8002 1.20011C35.8002 -0.299888 43.0002 3.30011 49.4002 9.10011C53.2002 12.5001 54.9002 17.2001 56.1002 21.9001C56.6002 24.5001 56.7002 27.3001 57.0002 30.3001ZM55.0002 30.1001C55.2002 23.1001 53.2002 16.7001 48.5002 11.3001C44.2002 6.40011 38.6002 3.40011 32.3002 2.90011C26.2002 2.20011 20.5002 4.10011 15.7002 8.00011C10.0002 12.6001 6.10023 18.7001 3.60023 25.4001C2.40023 28.4001 2.00023 32.1001 2.50023 35.2001C3.90023 43.3001 9.10023 48.9001 16.5002 52.0001C24.8002 55.4001 33.4002 54.8001 41.5002 51.0001C50.2002 46.7001 55.4002 40.3001 55.0002 30.1001Z" fill="#EB584A"/>
<path d="M50.8 16.7012L50.5 18.3012C50.5 18.3012 50.5 18.4012 50.6 18.5012C50.6 18.6012 50.7 18.7012 50.7 18.8012C51 19.7012 51.3 21.7012 50 23.4012C49 24.7012 47.4 26.4012 46.2 27.4012C45.7 27.9012 45.4 28.2012 45.1 28.4012C45 28.5012 44.9 28.6012 44.9 28.6012C44.9 28.6012 45.6 32.6012 45.3 34.5012C45 36.4012 43.9 41.0012 43.9 41.0012L44.8 41.9012C44.8 41.9012 42.6 50.5012 36.9 52.4012C36.3 52.6012 35.6 52.7012 34.9 52.7012C34.7 52.7012 34.5 52.7012 34.3 52.7012C32.8 52.7012 31.3 52.6012 29.7 52.5012C29.5 52.5012 29.2 52.4012 28.9 52.4012C28.2 52.3012 27.6 52.2012 27 52.1012C26.8 52.1012 26.5 52.0012 26.2 52.0012C26 52.0012 25.8 51.9012 25.5 51.9012C25.3 51.9012 25 51.8012 24.8 51.8012C24.7 51.8012 24.7 51.8012 24.6 51.8012C24.3 51.8012 24.1 51.7012 23.8 51.6012C23 51.4012 22.2 51.2012 21.5 51.0012C21.4 51.0012 21.3 50.9012 21.1 50.9012C20.9 50.8012 20.6 50.8012 20.4 50.7012C20.2 50.7012 20.1 50.6012 19.9 50.5012C19.9 50.5012 19.9 50.5012 19.8 50.5012C19.4 50.4012 19.1 50.3012 18.8 50.1012C18 49.8012 17.3 49.4012 16.7 49.1012C16.6 49.0012 16.5 49.0012 16.4 48.9012C16 48.6012 15.6 48.3012 15.4 48.0012V44.9012C15.4 44.9012 14.7 42.0012 14.7 41.7012C14.7 41.4012 14.4 41.4012 14.4 41.4012C14.4 41.4012 11.1 36.4012 11 32.6012C11 28.8012 11.3 27.1012 11.3 27.1012L10.7 24.7012C10.7 24.7012 10.4 24.3012 9.9 23.6012C9.7 23.4012 9.6 23.1012 9.4 22.8012C9.1 22.3012 8.8 21.8012 8.5 21.3012C8.1 20.6012 7.8 19.9012 7.7 19.3012C7.6 18.7012 7.6 17.9012 7.7 17.2012C7.8 15.9012 8.1 14.6012 8.3 13.9012C8.3 13.8012 8.3 13.7012 8.4 13.6012C8.4 13.4012 8.5 13.3012 8.5 13.3012C8.5 13.3012 8 9.60123 8 6.30123C8.1 3.40123 8.6 0.801231 10.3 0.901231C10.9 0.901231 11.5 1.00123 12 1.00123C12.2 1.00123 12.4 1.10123 12.6 1.10123C14.8 1.60123 16.2 3.00123 19.2 8.90123L20.8 12.9012L21 13.5012L21.1 13.8012C21.1 13.8012 24.7 13.2012 27.7 13.6012C30.7 14.0012 34.4 14.1012 34.4 14.1012L37.3 14.9012L37.6 14.5012L37.8 14.3012L38.7 13.1012L39 12.6012L39.1 12.4012C39.1 12.4012 45.4 2.70123 50.3 4.40123C50.3 4.40123 52.5 5.20123 51.5 9.90123L50.8 16.7012Z" fill="white"/>
<path d="M14 15.8C13.3 16.8 12 17.2 11.2 18.1C10.8 18.6 10.5 19.2 10.4 19.8C10.1 20.7 10 21.6 9.90004 22.6C9.90004 22.7 9.90004 22.7 9.90004 22.8V22.9C9.90004 22.9 9.90004 23 9.90004 23.1C9.80004 23 9.80004 22.8 9.70004 22.7V22.6C9.50004 22.2 9.30004 21.8 9.20004 21.4C8.70004 20 8.40004 18.6 8.40004 17.3C8.40004 16.6 8.40004 15.9 8.40004 15.2C8.50004 14.8 8.60004 14.3 8.70004 13.8C8.80004 13.9 8.90004 13.9 9.00004 14C9.00004 13.9 9.00004 13.8 9.10004 13.7C8.70004 12.9 8.50004 12.1 8.50004 11.2C8.50004 9.8 8.30004 8.2 8.30004 6.7C8.30004 6.5 8.30004 6.3 8.30004 6C8.10004 6 8.20004 6.1 8.30004 6.2C8.30004 6.2 8.40004 6.3 8.50004 6.3C9.20004 6.8 10 7.2 10.7 7.7C12 8.7 12.8 10.2 13.5 11.7C13.8 12.4 14.2 13 14.3 13.8C14.4 14.4 14.4 15.2 14 15.8Z" fill="#BCBBBA"/>
<path d="M15.8001 27.4004C16.0001 25.3004 17.2001 23.4004 18.7001 22.0004C19.0001 21.8004 19.3001 21.5004 19.6001 21.4004C20.6001 21.1004 21.5001 21.9004 22.2001 22.7004C22.9001 23.5004 23.6001 24.4004 23.9001 25.4004C24.3001 26.4004 24.3001 27.6004 23.6001 28.5004C24.1001 29.0004 24.9001 28.9004 25.7001 28.8004C26.9001 28.7004 28.0001 28.5004 29.2001 28.3004C29.9001 28.2004 30.7001 28.1004 31.3001 27.7004C32.3001 27.1004 32.9001 26.0004 33.7001 25.1004C34.6001 24.1004 36.0001 23.4004 37.4001 23.4004C38.8001 23.4004 40.2001 24.0004 41.0001 25.2004C42.0001 26.7004 41.7001 28.8004 40.8001 30.4004C40.1001 31.7004 39.0001 32.9004 38.7001 34.3004C38.3001 36.1004 39.2001 37.9004 39.8001 39.6004C40.4001 41.3004 40.7001 43.4004 39.5001 44.8004C38.6001 45.8004 37.2001 46.1004 35.9001 46.2004C34.6001 46.3004 33.2001 46.3004 32.0001 46.9004C31.6001 47.1004 31.2001 47.4004 30.8001 47.6004C30.0001 48.0004 29.1001 48.1004 28.2001 48.1004C27.4001 48.1004 26.6001 48.2004 25.9001 48.1004C24.4001 47.8004 23.2001 46.7004 21.7001 46.4004C20.4001 46.1004 19.0001 46.5004 17.6001 46.3004C17.4001 46.3004 17.1001 46.2004 16.9001 46.0004C16.7001 45.9004 16.6001 45.6004 16.6001 45.4004C16.2001 44.2004 15.7001 43.0004 15.7001 41.7004C15.6001 38.9004 17.5001 36.6004 17.6001 33.8004C17.6001 32.8004 17.0001 31.9004 16.6001 31.1004C16.0001 30.0004 15.6001 28.7004 15.8001 27.4004Z" fill="#BCBBBA"/>
<path d="M45.3002 19.1004C44.8002 19.2004 44.4002 19.1004 43.9002 18.9004C42.0002 18.2004 37.3002 16.1004 38.2002 13.4004C38.2002 13.3004 38.3002 13.2004 38.4002 13.1004C40.9002 11.6004 42.7002 8.80039 44.8002 6.90039C45.1002 6.90039 45.4002 7.00039 45.6002 7.30039C46.0002 7.70039 46.1002 8.20039 46.2002 8.80039C46.3002 9.50039 46.2002 10.2004 46.2002 10.9004C46.1002 12.0004 45.7002 13.0004 45.9002 14.1004C46.0002 15.1004 46.5002 15.9004 46.6002 16.9004C46.6002 17.6004 46.3002 18.8004 45.3002 19.1004Z" fill="#BCBBBA"/>
<path d="M18.2003 50.9012C18.7003 51.4012 19.2003 51.8012 19.4003 52.4012C19.5003 52.7012 19.5003 53.1012 19.6003 53.3012C19.9003 54.3012 21.4003 54.7012 22.2003 54.0012C22.5003 53.7012 22.7003 53.3012 23.0003 53.1012C23.3003 52.8012 23.9003 52.8012 24.1003 53.1012C24.2003 53.2012 24.2003 53.4012 24.3003 53.6012C24.4003 53.7012 24.5003 53.7012 24.6003 53.7012C25.6003 53.9012 26.6003 54.1012 27.7003 54.2012C27.9003 54.2012 28.1003 54.2012 28.3003 54.2012C28.5003 54.1012 28.6003 54.0012 28.7003 53.9012C29.2003 53.5012 29.9003 53.8012 30.5003 54.0012C31.4003 54.5012 32.4003 54.9012 33.3003 55.4012C33.6003 55.5012 34.0003 55.7012 34.3003 55.5012C34.8003 55.2012 34.5003 54.5012 34.6003 54.0012C34.7003 53.5012 35.2003 53.3012 35.6003 53.0012C38.1003 51.6012 40.3003 49.6012 42.0003 47.3012C43.3003 45.6012 44.4003 43.4012 43.9003 41.2012C42.1003 42.4012 40.2003 43.6012 39.1003 45.5012C39.0003 45.7012 38.9003 45.9012 38.6003 46.1012C38.4003 46.2012 38.2003 46.2012 38.0003 46.3012C36.8003 46.5012 35.5003 46.5012 34.3003 46.3012C34.0003 46.3012 33.7003 46.2012 33.5003 46.3012C33.2003 46.4012 32.9003 46.6012 32.6003 46.9012C30.1003 49.0012 26.3003 49.3012 23.4003 47.6012C22.6003 47.1012 21.8003 46.4012 20.8003 46.3012C20.1003 46.2012 19.3003 46.4012 18.6003 46.4012C17.7003 46.4012 15.5003 45.2012 15.8003 47.0012C16.3003 48.5012 17.2003 49.9012 18.2003 50.9012Z" fill="#F15748"/>
<path d="M44.3 41.1008C45.1 38.6008 45.9 36.0008 45.6 33.3008C45.3 31.7008 45.3 30.1008 45.2 28.5008C45.1 26.8008 44.9 25.0008 44.3 23.3008C44.4 27.0008 45 30.3008 45.2 33.9008C44.9 37.6008 44 41.0008 41 43.4008C40.4 41.7008 40.2 39.9008 39.2 38.4008C38.9 37.9008 38.4 37.4008 37.9 37.0008C36.6 35.9008 36.3 34.1008 35 33.0008C34.9 32.9008 34.7 32.8008 34.6 32.7008C34.5 32.6008 34.3 32.5008 34.2 32.5008C34.3 32.6008 34.4 32.7008 34.5 32.8008C34.6 32.9008 34.7 33.0008 34.8 33.2008C35.4 33.9008 36 34.7008 36.4 35.6008C36 35.4008 35.8 35.3008 35.5 35.1008C35.5 35.1008 35.4 35.2008 35.4 35.3008C36.6 36.5008 38.3 37.4008 39 39.0008C39.4 40.7008 40.5 42.7008 39.9 44.4008C39.5 45.1008 38.9 45.7008 38.2 46.1008C37.5 46.5008 36.6 46.7008 35.8 46.5008C34.9 46.4008 33.9 45.8008 33.2 44.7008C31.9 42.6008 30.3 40.7008 28.2 39.4008C28.2 38.9008 28.3 38.4008 28.3 38.0008C28.3 38.0008 28.2 38.0008 28.2 37.9008C27.3 40.4008 24.1 40.6008 23 43.1008C22.1 45.2008 17.6 48.0008 16.6 44.8008C16.5 44.8008 16.5 44.7008 16.4 44.7008C15.8 44.2008 15.7 43.3008 15.9 42.3008C16.1 41.1008 16.6 39.8008 16.6 39.0008C16.5 39.0008 16.5 38.9008 16.4 38.9008C16.4 38.9008 16.3 38.9008 16.3 38.8008C15.6 39.5008 15.2 40.1008 14.8 41.1008C14.2 39.9008 13.6 38.8008 13.1 37.7008C14.2 36.5008 15.2 35.4008 16.2 34.2008C16.1 34.1008 16.1 34.1008 16 34.0008C15 35.1008 14 36.2008 13 37.4008C12.1 34.3008 11.6 31.3008 12.3 28.1008C12.5 27.3008 12.1 26.8008 11.7 26.2008C11.9 26.2008 12.1 26.1008 12.3 26.1008C12.2 25.4008 12 24.9008 11.2 24.6008C11.2 25.0008 11.3 25.3008 11.3 25.6008C11.1 25.6008 10.9 25.6008 10.5 25.7008C11 26.3008 11.5 26.8008 11.3 27.7008C10.8 30.1008 10.9 32.5008 11.4 34.9008C11.8 37.5008 13.8 39.5008 14.7 41.8008C14.7 42.8008 15 43.7008 15.4 44.3008C14.9 45.6008 15.1 48.3008 15.2 48.4008L15.4 48.6008C15.5 48.7008 15.7 48.9008 15.8 49.0008C16.1 49.3008 19 52.3008 19 53.5008C18.9 55.1008 20.5 55.1008 21.8 54.8008C22.1 54.5008 23.6 53.5008 24 53.0008L24.1 52.9008C24.3 53.3008 24.5 53.5008 24.7 53.8008C25.5 54.6008 26.8 54.6008 27.9 54.7008C29.1 54.7008 29.2 54.7008 29.6 53.8008V53.7008C29.7 53.7008 29.8 53.8008 30 53.9008C31.1 54.4008 33.1 55.4008 33.3 55.8008L33.4 55.9008C33.5 55.9008 33.5 56.0008 33.5 56.0008C35.3 56.5008 35.2 55.2008 35.4 53.3008C37.1 53.3008 38.5 52.6008 39.8 51.6008C40.3 51.0008 40.8 50.4008 41.3 49.8008C42.3 48.6008 43.1 47.5008 43.8 46.2008C43.8 46.2008 43.8 46.2008 43.7 46.2008C44 45.6008 44.3 45.0008 44.5 44.4008C44.6 43.9008 44.8 43.4008 44.8 42.9008C44.8 42.6008 44.8 42.4008 44.8 42.1008C44.6 41.8008 44.4 41.5008 44.3 41.2008C44.5 41.1008 44.4 41.1008 44.3 41.1008ZM18.1 50.8008C17.6 50.3008 17.2 49.7008 16.9 49.0008C16.5 48.1008 16.3 47.2008 16.1 46.2008C16.1 45.9008 16 45.7008 16 45.4008C16.2 45.6008 16.4 45.8008 16.6 46.0008C17.9 47.2008 19.4 47.1008 20.7 46.4008C20.7 46.4008 20.8 46.3008 20.9 46.3008C21.7 45.8008 22.5 45.0008 23.1 44.1008C24.3 42.1008 26.2 40.9008 27.9 39.5008C30.4 40.9008 31.7 43.6008 33.4 45.8008C31.8 46.7008 30.2 47.8008 28.5 48.3008C27.5 48.6008 26.4 48.7008 25.3 48.3008H25.2C24.8 48.2008 24.5 48.0008 24.1 47.8008C24.2 47.8008 24.2 47.7008 24.3 47.6008C25.2 46.7008 26 45.8008 26.8 45.0008L26.7 44.9008C24.8 46.1008 24.7 47.3008 24 47.5008C23.8 47.6008 23.6 47.6008 23.3 47.5008C22.9 47.4008 22.4 47.1008 21.5 46.5008L21.4 46.4008C21.4 46.4008 21.4 46.4008 21.5 46.5008C22.9 48.3008 25.2 49.0008 27.3 49.9008C27.6 50.0008 27.9 49.9008 28.2 49.8008C29.5 49.4008 29.2 51.1008 29 52.4008C29 52.8008 28.9 53.1008 29 53.3008C28.1 53.0008 27.4 52.7008 26.6 52.4008C26.7 52.3008 26.9 52.2008 27.1 52.1008C27.3 51.9008 27.6 51.8008 27.8 51.6008C27.7 51.5008 27.7 51.4008 27.6 51.3008C27.2 51.5008 26.8 51.8008 26.4 52.0008C25.9 52.3008 25.5 52.5008 25 52.8008C25 52.7008 24.9 52.7008 24.9 52.6008C25.2 52.4008 25.4 52.2008 25.7 51.9008C26.1 51.6008 26.5 51.2008 26.9 50.9008C26.9 50.8008 26.8 50.7008 26.7 50.7008C26.1 51.1008 25.6 51.4008 24.9 51.8008C24.8 51.8008 24.8 51.9008 24.7 51.9008C24.7 51.9008 24.7 51.8008 24.7 51.7008C24.8 50.9008 24.8 50.1008 24.9 49.3008C24.8 49.3008 24.6 49.3008 24.3 49.2008C24.1 49.9008 24.1 50.8008 23.9 51.6008C23.8 52.1008 23.5 52.5008 23 52.8008C22.1 53.3008 21.1 54.0008 19.9 53.6008C19.3 52.2008 20.7 51.7008 21.6 50.9008C21.7 50.8008 21.8 50.7008 21.9 50.6008C21.9 50.6008 21.8 50.5008 21.8 50.4008C21.6 50.5008 21.4 50.6008 21.2 50.8008C20.7 51.1008 20.2 51.4008 19.7 51.8008C19.9 51.3008 20.2 51.0008 20.5 50.6008C21 50.2008 21.5 49.8008 21.7 49.1008C21.1 49.5008 20.6 49.9008 20 50.4008C20 50.4008 20 50.4008 19.9 50.4008H19.8C20 49.3008 20.2 48.3008 20.3 47.2008C19.2 46.7008 19 48.6008 18.8 50.0008C18.7 50.6008 18.7 51.1008 18.6 51.4008C18.4 51.2008 18.2 51.1008 18 50.9008C18.2 50.9008 18.2 50.8008 18.1 50.8008ZM29.8 53.1008C29.8 52.9008 29.8 52.6008 29.8 52.4008C29.9 51.4008 30.2 50.4008 29.4 49.6008C31 48.8008 32.9 48.4008 33.7 46.5008C33.7 46.4008 33.8 46.3008 33.8 46.3008C33.8 46.2008 33.8 46.2008 33.9 46.1008C34 46.2008 34.2 46.3008 34.3 46.3008C34.4 46.3008 34.4 46.4008 34.5 46.4008C34.8 46.5008 35 46.7008 35.3 46.9008C36.7 48.0008 40.1 47.0008 40.8 45.3008C41.9 44.2008 43.2 43.2008 44.1 41.8008C44.2 41.7008 44.3 41.5008 44.4 41.4008C44.4 41.7008 44.3 42.1008 44.2 42.4008C43.2 45.3008 40 49.1008 37.8 50.8008C37.4 49.7008 37.8 48.5008 37.2 47.5008C37.1 47.5008 37.1 47.5008 37 47.5008V51.2008H36.9C36.6 50.3008 36.9 48.1008 36.3 47.7008C35.8 49.0008 36.9 50.9008 35.8 51.9008V47.9008C35.8 47.3008 35.8 47.3008 35.1 46.9008C34.8 48.8008 34.7 50.6008 34.5 52.5008C34.5 52.7008 34.5 52.8008 34.4 53.0008C33.7 55.6008 31.3 53.3008 29.8 53.1008Z" fill="black"/>
<path d="M28.1999 30.5005C30.2999 30.1005 33.3999 32.2005 31.3999 34.3005C30.4999 35.0005 29.5999 37.1005 28.1999 36.4005C25.1999 34.5005 22.5999 30.6005 28.1999 30.5005Z" fill="black"/>
<path d="M21.2004 12.7009C21.1004 12.8009 21.0004 12.8009 21.0004 12.8009C19.0004 9.30089 18.5004 4.40089 14.7004 2.10089C14.1004 1.50089 13.5004 1.10089 13.0004 0.900894C12.8004 0.800894 12.6004 0.800894 12.4004 0.800894C10.2004 0.700894 8.50041 3.60089 8.50041 6.20089V6.40089C8.60041 8.00089 8.60041 9.60089 8.70041 11.3009C9.40041 10.4009 10.0004 9.70089 10.6004 9.00089C10.7004 9.00089 10.7004 9.10089 10.8004 9.10089C10.2004 9.90089 9.70041 10.7009 9.20041 11.5009L9.30041 11.6009C9.90041 10.9009 10.6004 10.2009 11.2004 9.50089C11.3004 9.50089 11.3004 9.60089 11.4004 9.70089C11.0004 10.3009 10.5004 10.9009 10.1004 11.5009C9.80041 12.1009 8.80041 12.4009 9.10041 13.3009C10.0004 12.4009 10.8004 11.5009 11.6004 10.7009L11.7004 10.8009C11.1004 12.0009 10.1004 12.8009 9.30041 13.7009C9.60041 14.5009 10.0004 15.3009 10.3004 16.2009H10.2004C9.90041 15.7009 9.60041 15.2009 9.30041 14.6009C7.80041 17.8009 8.40041 20.1009 9.90041 22.6009C10.2004 23.1009 10.6004 23.7009 11.0004 24.2009C10.8004 24.0009 10.6004 23.7009 10.4004 23.5009C10.2004 23.3009 10.0004 23.0009 9.80041 22.8009C9.70041 22.7009 9.60041 22.5009 9.50041 22.4009C7.60041 20.1009 7.30041 18.2009 8.00041 15.0009C8.10041 14.6009 8.20041 14.1009 8.30041 13.6009C8.40041 13.7009 8.50041 13.7009 8.60041 13.8009C8.70041 13.9009 8.80041 13.9009 8.90041 14.0009C8.80041 13.8009 8.70041 13.7009 8.70041 13.5009C8.30041 12.7009 8.10041 11.9009 8.10041 11.0009C8.10041 9.60089 7.90041 8.00089 7.90041 6.50089C7.90041 6.30089 7.90041 6.10089 7.90041 5.80089C8.00041 4.00089 8.40041 2.20089 9.70041 0.700894C12.0004 -1.79911 16.5004 2.70089 17.9004 4.80089C19.1004 7.40089 20.6004 9.90089 21.2004 12.7009Z" fill="black"/>
<path d="M50.6002 18.5006C50.2002 18.9006 49.9002 19.4006 49.3002 19.6006C51.1002 15.4006 51.5002 10.6006 51.7002 6.00055C51.1002 1.70055 44.3002 6.30055 43.2002 8.40055C41.7002 10.1006 40.2002 12.4006 38.2002 13.3006C41.3002 9.90055 43.3002 4.90055 48.2002 3.90055C50.9002 3.30055 52.9002 5.10055 52.6002 7.90055C52.0002 11.4006 51.8002 15.1006 50.6002 18.5006Z" fill="black"/>
<path d="M40.7 28.4009C40.2 31.5009 36.1 30.7009 35.6 28.0009C35.1 23.9009 40.7 24.8009 40.7 28.4009Z" fill="black"/>
<path d="M19.0005 29.1012C15.7005 28.8012 15.3005 24.7012 18.6005 24.2012C21.0005 24.3012 22.0005 28.8012 19.0005 29.1012Z" fill="black"/>
<path d="M39.5004 15C39.8004 15.3 40.2004 15.7 40.5004 16C40.5004 16 40.4004 16.1 40.4004 16.2C37.7004 15.1 35.2004 14 32.2004 14.2C28.2004 14.1 23.8004 12.8 19.9004 14.6C21.9004 11.2 29.5004 13.7 33.0004 13.5C34.8004 13.6 36.6004 13.8 38.4004 14.4C39.5004 14.3 40.4004 13.1 41.3004 12.5C41.3004 12.5 41.4004 12.6 41.5004 12.7C41.0004 13.6 39.7004 14 39.5004 15Z" fill="black"/>
<path d="M33.6006 26.6018C33.8006 23.8018 36.4006 22.8018 38.3006 23.2018C43.5006 24.5018 43.3006 31.6018 39.3006 34.1018C39.3006 34.1018 39.2006 34.0018 39.1006 34.0018C39.6006 32.8018 40.4006 31.8018 41.0006 30.7018C43.5006 25.1018 37.2006 20.1018 33.6006 26.6018Z" fill="black"/>
<path d="M17.0009 31.0004C15.0009 30.3004 15.1009 28.4004 14.9009 26.6004C14.4009 23.4004 17.8009 21.5004 20.6009 21.4004C17.9009 22.7004 14.9009 24.5004 15.8009 27.9004C16.0009 29.0004 15.9009 30.2004 17.0009 31.0004Z" fill="black"/>
<path d="M25.5 29.8017C22.5 30.9017 21.8 34.5017 19.4 36.3017C18.9 34.3017 23.5 29.0017 25.5 29.6017C25.5 29.7017 25.5 29.7017 25.5 29.8017Z" fill="black"/>
<path d="M24.3008 26.8C25.1008 25.7 26.9008 25 26.5008 23.4C25.7008 20.8 26.4008 18 27.2008 15.5C26.7008 17.1 27.4008 18.8 26.5008 20.3C26.3008 20.7 26.4008 21.2 26.5008 21.7C27.0008 23.7 27.5008 25.9 25.4008 27C25.0008 27.4 24.6008 27.3 24.3008 26.8Z" fill="black"/>
<path d="M17.7008 15.2004C17.3008 15.1004 17.1008 15.0004 16.8008 15.0004C16.9008 15.3004 17.0008 15.6004 17.1008 15.9004C16.4008 16.4004 15.7008 17.1004 14.9008 17.5004C14.1008 17.9004 14.4008 18.2004 14.6008 18.9004C14.3008 18.8004 14.1008 18.7004 13.8008 18.7004C13.8008 19.0004 13.9008 19.3004 13.9008 19.5004C13.9008 19.5004 13.8008 19.6004 13.7008 19.6004C13.4008 19.1004 13.1008 18.5004 12.8008 17.9004C13.1008 17.9004 13.2008 18.0004 13.4008 18.0004C13.9008 16.7004 15.4008 16.5004 16.2008 15.4004C16.1008 15.0004 15.9008 14.5004 15.8008 14.0004C15.9008 14.0004 15.9008 13.9004 16.0008 13.9004C16.4008 14.2004 17.0008 14.7004 17.7008 15.2004Z" fill="black"/>
<path d="M16.6008 37.4016C16.4008 34.5016 20.5008 29.0016 22.4008 28.6016C19.9008 31.2016 17.9008 34.1016 16.6008 37.4016Z" fill="black"/>
<path d="M50.6002 18.5C51.6002 20.7 51.1002 22.7 49.5002 24.5C48.4002 25.5 47.5002 27 46.2002 27.6C47.9002 24.1 51.6002 23.7 50.6002 18.5Z" fill="black"/>
<path d="M25.4004 15.1016C24.7004 16.9016 24.0004 18.6016 23.4004 20.2016C22.4004 19.3016 23.5004 15.2016 25.4004 15.1016Z" fill="black"/>
<path d="M42.1006 16.6003C42.6006 16.2003 43.5006 13.4003 44.2006 14.3003C43.9006 15.0003 43.5006 15.7003 43.3006 16.3003C44.2006 17.6003 45.1006 18.7003 45.9006 19.9003L45.8006 20.0003C44.3006 19.4003 43.7006 16.1003 42.1006 16.6003Z" fill="black"/>
<path d="M33.7 32.2999C31.6 29.2999 30.8 30.4999 29 28.7999C30.8 28.3999 32.3 29.6999 33.8 32.1999L33.7 32.2999Z" fill="black"/>
<path d="M33.7002 29.2012C32.1002 28.6012 31.7002 26.6012 29.9002 26.4012C29.9002 26.3012 29.8002 26.1012 29.7002 25.7012C31.4002 26.5012 33.1002 27.2012 33.7002 29.2012Z" fill="black"/>
<path d="M30.1006 24.0012C30.8006 21.5012 31.3006 19.1012 30.5006 16.7012C31.6006 18.1012 31.6006 22.8012 30.1006 24.0012Z" fill="black"/>
<path d="M18.2004 19.5C18.4004 19.7 18.5004 19.8 18.8004 20C17.5004 20.7 16.7004 22 15.4004 21.9C15.4004 21.8 15.4004 21.8 15.4004 21.7C16.3004 21.1 17.2004 20.4 18.2004 19.5Z" fill="black"/>
<path d="M38.3004 35.7016C37.6004 34.3016 37.0004 32.9016 36.4004 31.6016C37.4004 31.9016 38.7004 34.5016 38.3004 35.7016Z" fill="black"/>
<path d="M21.8008 21.8008C23.1008 22.4008 24.2008 24.4008 23.9008 25.9008C23.0008 24.5008 23.0008 23.1008 21.8008 21.8008Z" fill="black"/>
<path d="M39.5 15.0004C39.8 13.8004 41.3 13.6004 42.2 12.9004C42 13.5004 40.2 14.8004 39.5 15.0004Z" fill="black"/>
<path d="M28.7006 16.6016C28.7006 19.3016 28.7006 22.0016 28.7006 24.7016C28.4006 22.0016 28.4006 19.3016 28.7006 16.6016Z" fill="black"/>
<path d="M39.1004 21.2012C40.0004 22.0012 40.9004 22.8012 41.7004 23.7012C41.7004 23.7012 41.6004 23.8012 41.6004 23.9012C40.7004 23.1012 39.7004 22.5012 38.9004 21.5012C38.9004 21.3012 39.0004 21.2012 39.1004 21.2012Z" fill="black"/>
<path d="M44.8006 35.0008C43.6006 35.8008 42.4006 36.6008 41.2006 37.4008C41.2006 37.4008 41.1006 37.3008 41.1006 37.2008C42.3006 36.4008 43.4006 35.4008 44.7006 34.9008C44.8006 34.8008 44.8006 34.9008 44.8006 35.0008Z" fill="black"/>
<path d="M23.0001 37.4004C23.3001 37.6004 23.7001 37.7004 23.9001 37.9004C24.5001 39.4004 21.4001 37.8004 23.0001 37.4004Z" fill="black"/>
<path d="M20.5 40.6016C21.5 40.6016 21.8 40.8016 22 41.5016C21.3 41.7016 20.6 41.3016 20.5 40.6016Z" fill="black"/>
<path d="M41 36.0012C42.2 35.3012 43.3 34.5012 44.5 33.7012C44.5 33.7012 44.6 33.8012 44.6 33.9012C43.4 34.6012 42.3 35.4012 41.1 36.2012C41.1 36.1012 41.1 36.1012 41 36.0012Z" fill="black"/>
<path d="M19.7002 37.9011C20.4002 37.8011 20.9002 38.0011 21.1002 38.7011C20.6002 38.9011 20.0002 38.6011 19.7002 37.9011Z" fill="black"/>
<path d="M35.3004 42C34.7004 42.2 34.3004 41.7 33.9004 41.3C34.4004 40.7 34.9004 41.4 35.4004 41.7C35.3004 41.8 35.3004 41.9 35.3004 42Z" fill="black"/>
<path d="M16.4004 44.7C17.2004 43.9 17.7004 42.8 18.9004 42.5C18.1004 43.3 17.3004 44.1 16.4004 44.7Z" fill="black"/>
<path d="M13.1006 35.2C13.7006 34.5 14.4006 33.7 15.0006 33C15.1006 33.1 15.2006 33.2 15.3006 33.3C14.5006 33.9 13.8006 34.6 13.1006 35.2Z" fill="black"/>
<path d="M35.1 38.8004C35.7 38.7004 36 38.9004 36.3 39.4004C36.3 39.5004 36.2 39.5004 36.2 39.6004C35.8 39.4004 35.4 39.2004 35 39.0004C35.1 39.0004 35.1 38.9004 35.1 38.8004Z" fill="black"/>
<path d="M17.7004 42.1016C17.3004 42.5016 16.8004 42.9016 16.4004 43.3016C16.8004 42.9016 17.2004 42.5016 17.7004 42.1016Z" fill="black"/>
<path d="M25.4002 43.9004C24.8002 44.6004 23.9002 45.7004 22.9002 46.7004C22.9002 46.7004 22.8002 46.6004 22.7002 46.5004C23.5002 45.4004 24.6002 44.5004 25.4002 43.9004Z" fill="black"/>
<path d="M23.4004 47.1004C24.2004 46.2004 25.1004 45.3004 25.9004 44.4004C25.9004 44.4004 26.0004 44.5004 26.1004 44.6004C25.3004 45.5004 24.4004 46.4004 23.6004 47.3004C23.5004 47.2004 23.5004 47.1004 23.4004 47.1004Z" fill="black"/>
<path d="M36.9004 27.1016C37.1765 27.1016 37.4004 26.8777 37.4004 26.6016C37.4004 26.3254 37.1765 26.1016 36.9004 26.1016C36.6242 26.1016 36.4004 26.3254 36.4004 26.6016C36.4004 26.8777 36.6242 27.1016 36.9004 27.1016Z" fill="white"/>
<path d="M17.5 26C17.7761 26 18 25.7761 18 25.5C18 25.2239 17.7761 25 17.5 25C17.2239 25 17 25.2239 17 25.5C17 25.7761 17.2239 26 17.5 26Z" fill="white"/>
<path d="M26.9002 32.0008C26.9002 32.0008 27.0002 32.0008 27.1002 31.9008C27.5002 31.8008 28.0002 31.8008 28.4002 31.8008C28.7002 31.8008 29.0002 31.8008 29.3002 31.9008C29.4002 31.9008 29.4002 31.9008 29.4002 31.9008C29.4002 32.0008 29.6002 32.1008 29.7002 32.0008C29.8002 32.0008 29.9002 31.8008 29.8002 31.7008C29.8002 31.6008 29.6002 31.5008 29.6002 31.5008C29.5002 31.5008 29.4002 31.4008 29.3002 31.4008C29.0002 31.3008 28.6002 31.3008 28.2002 31.3008C27.7002 31.3008 27.3002 31.4008 26.8002 31.5008C26.7002 31.5008 26.5002 31.5008 26.4002 31.6008C26.3002 31.7008 26.3002 31.8008 26.4002 31.9008C26.6002 32.0008 26.8002 32.0008 26.9002 32.0008Z" fill="white"/>
<path opacity="0.7" d="M35.0996 32.8004C34.2996 33.2004 33.3996 33.5004 32.4996 33.3004C32.2996 33.3004 32.0996 33.2004 31.8996 33.1004C30.9996 32.4004 30.2996 31.7004 30.1996 30.5004C30.1996 30.4004 30.1996 30.3004 30.1996 30.2004C30.0996 29.7004 27.5996 29.6004 27.2996 29.6004C26.9996 29.6004 26.5996 29.7004 26.5996 30.2004C26.3996 31.5004 25.3996 32.2004 24.2996 32.5004C24.0996 32.6004 23.7996 32.6004 23.5996 32.7004C23.4996 32.7004 23.4996 32.7004 23.3996 32.7004C22.7996 32.6004 22.0996 32.4004 21.4996 32.2004C20.0996 31.7004 19.6996 30.6004 19.5996 29.4004C19.5996 29.2004 19.5996 29.1004 19.6996 28.9004C20.0996 28.2004 20.4996 27.5004 21.0996 27.0004C21.6996 26.5004 22.3996 26.4004 23.1996 26.4004C23.3996 26.4004 23.6996 26.4004 23.8996 26.4004C24.4996 26.5004 25.0996 26.7004 25.4996 27.3004C25.8996 27.8004 26.2996 28.3004 26.7996 28.9004C27.0996 28.9004 29.7996 28.9004 30.0996 28.8004C30.3996 28.7004 30.4996 28.3004 30.6996 28.0004C31.1996 27.3004 31.8996 27.0004 32.5996 26.6004C32.7996 26.5004 32.9996 26.5004 33.1996 26.5004C33.8996 26.7004 34.6996 26.9004 35.3996 27.1004C35.4996 27.1004 35.6996 27.2004 35.7996 27.4004C36.0996 27.9004 36.4996 28.4004 36.6996 29.0004C37.1996 30.5004 36.5996 32.1004 35.0996 32.8004Z" fill="white"/>
<path d="M33 31.3996C32.8 31.3996 32.7 31.2996 32.6 31.2996C32.3 31.3996 31.9 31.4996 31.6 31.6996H31.5C31.6 31.7996 31.7 31.8996 31.7 31.9996C32 31.5996 32.5 31.5996 33 31.3996ZM21.7 29.3996C21.5 29.5996 21.4 29.6996 21.2 29.8996C21.4 29.7996 21.6 29.6996 21.9 29.4996C22 29.4996 22.1 29.3996 22.3 29.2996C22 29.2996 21.8 29.2996 21.7 29.3996ZM36.9 29.8996C36.9 29.6996 36.8 29.3996 36.7 29.1996C36.6 28.9996 36.6 28.8996 36.5 28.7996C36.4 28.4996 36.2 28.2996 36 27.9996C35.9 27.8996 35.8 27.6996 35.7 27.5996C35.7 27.5996 35.7 27.4996 35.6 27.4996C35.6 27.4996 35.5 27.3996 35.4 27.3996C35.4 27.3996 35.3 27.3996 35.3 27.2996C34.6 27.0996 33.8 26.8996 33.1 26.6996C33 26.6996 33 26.6996 32.9 26.6996C32.8 26.6996 32.7 26.6996 32.6 26.7996H32.5C32.4 26.8996 32.3 26.9996 32.1 26.9996C32.1 26.9996 32 26.9996 32 27.0996C31.9 27.1996 31.7 27.2996 31.6 27.3996C31.3 27.5996 31 27.7996 30.7 28.0996L30.6 28.1996C30.5 28.2996 30.4 28.3996 30.4 28.4996C30.4 28.5996 30.3 28.5996 30.3 28.6996C30.3 28.7996 30.2 28.7996 30.2 28.7996C30.2 28.8996 30.1 28.8996 30 28.9996C29.9 28.9996 29.7 29.0996 29.4 29.0996C28.5 29.0996 26.9 29.0996 26.7 29.0996C26.6 28.9996 26.5 28.7996 26.4 28.6996C26 28.2996 25.7 27.8996 25.4 27.4996C25.3 27.3996 25.2 27.2996 25.1 27.1996C24.9 26.9996 24.6 26.7996 24.2 26.6996H24.1C24 26.6996 23.9 26.6996 23.8 26.5996C23.6 26.5996 23.3 26.5996 23.1 26.5996C22.3 26.5996 21.6 26.6996 21 27.1996C20.9 27.2996 20.9 27.2996 20.8 27.3996C20.3 27.7996 20 28.3996 19.7 28.8996C19.7 28.9996 19.6 28.9996 19.6 29.0996C19.5 29.1996 19.5 29.3996 19.5 29.5996C19.5 29.8996 19.5 30.1996 19.6 30.4996C19.6 30.5996 19.6 30.6996 19.7 30.7996C19.7 30.7996 19.7 30.8996 19.8 30.8996C19.9 31.0996 19.9 31.1996 20 31.3996C20.1 31.4996 20.2 31.6996 20.3 31.7996C20.5 31.9996 20.9 32.1996 21.2 32.3996H21.3C21.5 32.3996 21.6 32.4996 21.8 32.4996C22 32.4996 22.1 32.5996 22.3 32.5996C22.6 32.6996 22.9 32.6996 23.2 32.7996C23.3 32.7996 23.4 32.7996 23.4 32.7996C23.6 32.6996 23.9 32.6996 24.1 32.5996C24.3 32.4996 24.6 32.3996 24.8 32.2996C25.5 31.9996 26.1 31.4996 26.3 30.6996C26.4 30.4996 26.4 30.3996 26.4 30.1996C26.5 29.6996 26.8 29.5996 27.1 29.5996C27.4 29.5996 28.8 29.5996 29.6 29.8996C29.7 29.8996 29.7 29.8996 29.8 29.9996C30 30.0996 30.1 30.0996 30.1 30.1996C30.1 30.2996 30.2 30.3996 30.2 30.4996C30.2 30.5996 30.2 30.6996 30.2 30.7996C30.4 31.7996 31 32.4996 31.8 33.0996C31.8 33.0996 31.8 33.0996 31.9 33.0996C31.9 33.0996 31.9 33.0996 32 33.0996C32.1 33.1996 32.3 33.1996 32.5 33.1996C33.3 33.2996 34 33.1996 34.8 32.8996C34.9 32.8996 35 32.7996 35 32.7996H35.1C35.7 32.4996 36.1 32.0996 36.4 31.5996C36.8 31.0996 36.9 30.4996 36.9 29.8996ZM22.6 32.1996C22.3 32.1996 21.9 32.0996 21.6 31.8996C21.5 31.8996 21.4 31.7996 21.2 31.6996C21 31.4996 20.7 31.3996 20.4 31.0996C21.1 30.4996 21.9 30.3996 22.4 29.8996C21.6 29.9996 21 30.3996 20.3 30.6996C20.3 30.6996 20.3 30.6996 20.2 30.6996C20 30.3996 20.2 30.2996 20.4 30.1996C20.6 30.0996 20.8 29.8996 21.1 29.7996C21.3 29.6996 21.5 29.5996 21.8 29.3996C21.9 29.3996 22 29.2996 22.2 29.1996C22 29.1996 21.8 29.1996 21.6 29.2996C21.4 29.3996 21.3 29.4996 21.1 29.5996C20.8 29.6996 20.6 29.8996 20.3 30.0996H20.2C20.1 29.6996 20.1 29.2996 20.3 28.8996C20.9 27.5996 21.7 27.0996 23.1 27.0996C23.4 27.0996 23.8 27.1996 24.1 27.2996C24.8 27.5996 25.3 28.1996 25.7 28.7996C25.9 29.1996 26 29.4996 26 29.8996C26 30.2996 25.9 30.6996 25.7 30.9996C25.5 31.2996 25.3 31.5996 25 31.6996C24.8 31.8996 24.5 31.9996 24.2 31.9996C23.7 32.1996 23.2 32.1996 22.6 32.1996ZM34.8 32.4996C34.7 32.4996 34.6 32.5996 34.6 32.5996C34.6 32.5996 34.5 32.5996 34.4 32.6996C33.9 32.8996 33.5 32.8996 33 32.8996C32.5 32.8996 32.2 32.6996 31.9 32.4996C31.8 32.3996 31.7 32.2996 31.6 32.0996L31.7 31.9996C32 31.5996 32.5 31.5996 33 31.3996C33 31.3996 33 31.3996 32.9 31.3996C32.7 31.3996 32.6 31.2996 32.5 31.2996C32.2 31.3996 31.8 31.4996 31.5 31.6996H31.4C31.3 31.7996 31.1 31.7996 31 31.5996C30.9 31.4996 30.9 31.3996 31 31.2996C31 31.1996 31.1 31.1996 31.2 31.0996C31.4 30.8996 31.7 30.7996 32 30.6996C32.1 30.6996 32.1 30.5996 32.2 30.5996C32.3 30.5996 32.4 30.4996 32.5 30.4996V30.3996C32.3 30.3996 32.1 30.3996 32 30.4996C31.7 30.5996 31.3 30.8996 31 30.9996C31 30.8996 30.9 30.7996 30.9 30.6996C30.9 30.4996 30.9 30.1996 30.9 29.8996C30.9 29.5996 30.9 29.2996 31 28.9996C31 28.9996 31 28.9996 31 28.8996C31.2 28.3996 31.6 27.9996 32.1 27.6996H32.2C32.3 27.5996 32.4 27.4996 32.5 27.4996C32.6 27.3996 32.7 27.3996 32.8 27.2996C33 27.1996 33.3 27.1996 33.6 27.2996C34.1 27.3996 34.6 27.4996 35.1 27.6996C35.3 27.6996 35.5 27.8996 35.6 27.9996C35.9 28.4996 36.2 28.8996 36.4 29.3996C36.7 30.5996 35.9 31.9996 34.8 32.4996Z" fill="black"/>
</g>
<defs>
<clipPath id="clip0_10476_6337">
<rect width="58" height="56" fill="white"/>
</clipPath>
</defs>
</svg>
