<svg width="56" height="78" viewBox="0 0 56 78" fill="none" xmlns="http://www.w3.org/2000/svg">
<path d="M56 40.7623C55.656 43.0304 55.269 45.4813 54.9251 47.9429C54.4951 51.0387 52.7537 53.5003 50.8188 55.7254C48.5077 58.3912 45.8204 60.6486 42.5526 62.2825C37.7906 64.6688 32.7277 65.6148 27.568 65.8728C20.5272 66.2167 14.2495 64.0346 8.64913 59.5521C4.62888 56.3381 2.53276 52.0276 0.468882 47.5989C0.114154 46.8464 -0.0578355 45.9005 0.0174099 45.0728C0.286144 42.02 0.17865 38.7844 1.18909 35.9788C2.50051 32.3456 3.54319 28.5833 5.73606 25.208C8.09017 21.607 10.8205 18.5111 14.314 16.1248C17.3454 14.0502 20.7099 12.642 24.4507 12.3948C25.0204 12.3625 25.6008 12.341 26.1706 12.2443C34.9958 10.7394 42.0688 14.2974 48.368 19.9731C52.098 23.3269 53.7104 27.8846 54.8821 32.5498C55.5485 35.1296 55.6345 37.86 56 40.7623ZM54.0006 40.5473C54.2049 33.6892 52.3237 27.3794 47.6693 22.0907C43.4555 17.2965 38.0163 14.2974 31.728 13.7814C25.7836 13.2977 20.1832 15.0714 15.3675 18.9196C9.72407 23.4236 5.9403 29.3035 3.40345 35.8606C2.27477 38.7844 1.8233 42.3854 2.37152 45.449C3.80118 53.3605 8.82112 58.8857 16.1737 61.8848C24.3969 65.2278 32.6954 64.6581 40.7252 60.9281C49.3032 56.9401 54.3231 50.5549 54.0006 40.5473Z" fill="#EB584A"/>
<path d="M24.7796 58.3901C22.5007 57.9386 20.2649 56.8099 18.975 54.8858C18.3623 53.9721 17.986 52.8327 18.244 51.7577C18.4482 50.8978 19.061 50.1453 19.1362 49.2639C19.2437 48.0707 18.373 47.0388 17.728 46.0283C16.9218 44.7707 16.3951 43.341 16.1909 41.8683C16.1156 41.3309 16.0941 40.7289 16.4059 40.2774C16.7606 39.7615 17.4593 39.5787 17.8678 39.1058C18.6632 38.1706 17.9753 36.7732 17.5453 35.623C17.0293 34.2363 16.9326 32.6992 17.2766 31.2695C17.3518 30.9685 17.4486 30.6568 17.685 30.4633C17.8463 30.3343 18.0613 30.2698 18.244 30.1731C19.0502 29.7323 19.2007 28.6574 19.2114 27.733C19.2329 25.7443 19.0287 23.7557 18.631 21.8101C18.5342 21.3263 18.416 20.8319 18.502 20.3482C18.6525 19.4775 19.4049 18.8647 19.9209 18.1338C21.5226 15.8764 20.8883 12.4474 22.8232 10.4803C22.963 10.3405 23.135 10.2008 23.3284 10.2115C23.4789 10.2223 23.6079 10.3083 23.7154 10.3943C25.4353 11.7487 26.048 14.0168 26.9187 16.0162C27.0155 16.2419 27.123 16.4676 27.3165 16.6181C27.5422 16.8009 27.8539 16.8546 28.1442 16.9299C29.3696 17.2738 30.2833 18.3595 30.6918 19.5742C31.1002 20.7781 31.0572 22.0895 30.896 23.3472C30.8207 23.9599 30.7132 24.6049 30.939 25.1854C31.1647 25.7658 31.8527 26.2065 32.4116 25.9271C32.9384 28.6681 33.4758 31.463 34.7658 33.9461C35.4967 35.3542 36.4856 36.7302 36.5609 38.3211C36.5931 38.9445 36.4749 39.568 36.5501 40.1807C36.6254 40.7934 36.9586 41.4384 37.5606 41.6104C38.0336 41.7501 38.5603 41.5566 39.0225 41.7071C39.4417 41.8361 39.7319 42.2231 39.9147 42.6208C40.5381 43.9752 40.1942 45.5554 39.8394 47.0065C39.2267 49.5219 38.6033 52.0802 37.3241 54.3376C36.2814 56.1865 34.2283 58.7986 31.8849 58.8523C29.6491 58.9276 26.9832 58.8308 24.7796 58.3901Z" fill="white"/>
<path d="M29.8543 58.5197C29.2738 55.6496 23.05 48.7055 20.7496 53.532C17.944 59.3904 30.0048 59.2829 29.8543 58.5197Z" fill="#BCBCBB"/>
<path d="M36.96 54.7677C38.1316 53.2306 38.5401 51.2742 38.9163 49.3931C39.1636 48.1891 39.4001 46.8992 38.9916 45.7383C36.3903 47.8989 34.7993 50.9732 33.5632 54.0583C33.2084 54.9397 31.8325 57.2186 33.3589 57.4766C34.5951 57.6916 36.3258 55.5954 36.96 54.7677Z" fill="#BCBCBB"/>
<path d="M24.3936 48.3411C23.4584 48.1799 22.5017 48.1046 21.631 47.7177C20.771 47.3307 19.9971 46.5567 19.9648 45.6108C19.9648 45.5355 19.9648 45.471 19.9971 45.4066C20.0401 45.3421 20.1153 45.3098 20.2013 45.2883C20.5238 45.2023 20.8785 45.2776 21.201 45.3528C22.5662 45.6753 25.7265 45.815 26.7477 46.7502C27.1562 47.1264 27.5109 48.3734 26.9734 48.7711C26.5004 49.1366 24.9633 48.4379 24.3936 48.3411Z" fill="#BCBCBB"/>
<path d="M30.9077 48.9525C32.4556 48.4043 33.9175 47.4691 34.799 46.0825C35.6804 44.6958 35.8847 42.8147 35.0247 41.4173C34.9817 41.342 34.928 41.2668 34.8527 41.2238C34.7667 41.1808 34.67 41.1808 34.5732 41.1915C33.4661 41.299 32.6169 42.1805 31.8752 42.9974C30.9615 44.0078 30.037 45.029 29.1233 46.0395C28.8546 46.3405 28.5536 46.7167 28.6503 47.1144C28.6933 47.3186 28.8438 47.4906 28.9728 47.6519C29.2308 47.9421 29.478 48.2323 29.736 48.5333C29.9403 48.7698 30.166 49.017 30.4777 49.0923C30.7465 49.1568 31.0367 49.0708 31.3054 48.9848C32.0579 48.7268 32.7888 48.4151 33.4983 48.0496" fill="#BCBCBB"/>
<path d="M22.8986 39.546C21.7054 38.901 20.609 38.0626 19.6738 37.0737C19.5233 36.9124 19.3621 36.6759 19.4803 36.4932C19.5341 36.4072 19.6308 36.3642 19.7168 36.3212C20.3725 36.031 21.0497 35.73 21.7592 35.7515C23.4468 35.8052 24.8872 37.6541 26.5104 37.1811C27.2091 36.9769 27.7143 36.3749 28.2625 35.8912C28.9505 35.2785 29.7674 34.827 30.6381 34.5476C30.7564 34.5153 30.8746 34.4831 30.9929 34.5153C31.1111 34.5476 31.1863 34.655 31.2508 34.7518C31.5948 35.3215 31.4766 36.0632 31.1433 36.6329C30.8101 37.2026 30.2834 37.6326 29.7674 38.0411C27.6928 39.7395 25.4569 40.9327 22.8986 39.546Z" fill="#BCBCBB"/>
<path d="M26.1476 30.7224C25.1049 31.3996 23.9225 32.1091 22.7078 31.8834C21.6114 31.6791 20.7729 30.7439 20.3752 29.7012C20.1065 29.0025 19.999 28.2071 20.214 27.4869C20.257 27.3364 20.3322 27.1644 20.4827 27.1107C20.644 27.0569 20.8159 27.1536 20.9664 27.2504C22.5466 28.2286 24.718 28.1533 26.2336 27.0677C26.4056 26.9494 26.5776 26.8097 26.7926 26.7774C27.1581 26.7344 27.4805 27.0462 27.631 27.3901C27.9428 28.1103 27.76 28.9595 27.3408 29.626C26.9323 30.2925 26.3089 30.7977 25.7069 31.2921C25.4812 31.4749 25.2554 31.6684 24.9759 31.7544C24.6965 31.8511 24.3632 31.8189 24.159 31.6146" fill="#BCBCBB"/>
<path d="M21.761 19.7468C22.0297 18.9836 22.9756 18.7579 23.7711 18.6504C23.9538 18.6289 24.1366 18.5967 24.3086 18.6611C24.4483 18.7149 24.5558 18.8116 24.6633 18.9191C25.2222 19.4781 25.6415 20.2413 25.534 21.0153C24.9858 25.0785 20.944 22.0364 21.761 19.7468Z" fill="#BCBCBB"/>
<path d="M12.6777 35.5804C13.0325 36.0319 13.4195 36.4726 13.7312 36.9564C15.2361 39.2137 15.6446 39.3857 18.5039 38.9557C17.5687 36.6554 16.5905 34.3658 15.7198 32.0439C14.8814 29.7865 13.1507 27.9054 12.8175 24.9708C13.3335 25.4868 13.6237 25.7018 13.7957 25.9705C14.2579 26.6907 14.6449 27.4647 15.1178 28.1849C16.3325 30.0123 16.4293 30.0338 18.7834 29.4426C16.9775 22.8425 16.7088 16.1026 16.7625 9.15855C18.1169 9.38428 18.0739 10.2012 18.1169 10.9644C18.2029 12.6843 18.2352 14.4042 18.3749 16.1134C18.4824 17.3818 18.8909 18.5642 20.0733 19.5424C20.1593 19.1124 20.299 18.8115 20.2668 18.532C19.9228 16.1349 20.6108 13.942 21.546 11.8029C21.9437 10.8784 22.0834 10.1475 21.8039 9.05105C21.3095 7.06243 21.3632 4.93406 21.374 2.87018C21.5137 2.83793 21.6535 2.80569 21.7932 2.77344C21.9437 3.06367 22.1802 3.3539 22.2339 3.66563C22.3844 4.51483 22.4382 5.37478 22.5564 6.22398C22.7176 7.50315 22.8144 8.61033 24.1473 9.57777C25.2652 10.384 25.7275 12.1146 26.4262 13.4583C26.7486 14.0817 26.9314 14.7697 27.2969 15.7479C28.2858 14.5655 28.3073 13.4153 28.6835 12.4049C29.049 11.4267 28.7265 10.1475 30.2422 9.1908C30.1454 10.083 30.1024 10.6205 30.0164 11.1472C29.7692 12.7918 29.6295 14.3612 30.4572 15.9736C30.9086 16.8551 30.8549 18.0268 30.8764 19.0694C30.9086 20.9613 30.8119 22.8532 30.7689 24.8848C32.0588 24.7666 32.349 23.9389 32.6608 23.1649C33.1122 22.0578 33.4992 20.9291 33.9615 19.8326C34.1227 19.4564 34.4237 19.1447 35.0149 18.962C34.5849 20.9076 33.9185 22.8317 33.8002 24.7988C33.682 26.809 34.1012 28.8514 34.3162 31.1195C34.9719 29.7865 35.5416 28.6256 36.1113 27.4647C36.2618 27.5184 36.4123 27.5614 36.5628 27.6152C36.4983 28.0881 36.509 28.5934 36.3371 29.0341C35.5309 31.0657 35.3804 33.0436 36.0361 35.2042C36.6273 37.1176 36.7993 39.1707 37.1325 41.0519C37.8312 40.7939 38.7234 40.5789 39.4651 40.1274C39.9811 39.8157 40.3573 39.203 40.7013 38.6655C41.4 37.5691 42.0342 36.4404 42.7007 35.3225C42.8512 35.387 43.0016 35.4514 43.1629 35.5159C42.9909 36.0104 42.8189 36.5049 42.6254 36.9886C42.3997 37.5368 42.1417 38.0743 41.9052 38.6225C41.3355 39.9447 40.5186 41.2238 41.271 42.7395C40.841 45.5988 41.0775 48.5656 39.7446 51.2637C39.5081 51.7367 39.3039 52.2312 39.1319 52.7256C38.1322 55.585 36.2941 57.7778 33.596 59.444C34.4559 61.3574 34.8321 63.389 36.1651 65.0336C37.4335 66.5815 38.6697 68.1617 39.9273 69.7311C39.2716 70.4191 38.7772 69.8816 38.3794 69.5269C36.3586 67.7747 34.7784 65.6679 33.7357 63.1848C33.2305 61.9808 32.6823 60.7877 32.2416 59.788C31.8116 59.659 31.6718 59.5515 31.5751 59.5837C28.92 60.4867 26.3187 59.7987 23.7818 59.1215C22.5671 58.7883 21.4707 57.9283 20.385 57.1974C19.6218 56.6814 18.9016 56.0579 18.3104 55.3485C16.6013 53.2846 14.5266 51.6722 12.3015 50.221C11.7426 49.8556 10.9794 49.5008 11.4308 48.2539C12.4198 48.9311 13.3335 49.4793 14.1719 50.1458C15.0426 50.8445 15.8166 50.9305 16.8915 50.4468C18.1062 49.8878 19.4821 49.6836 20.9655 49.2751C20.5463 48.9096 20.0948 48.5012 19.6218 48.1142C18.2782 47.007 17.085 45.8031 16.5583 44.0724C15.8488 41.7613 14.2687 39.9339 13.0325 37.9238C12.6455 37.3003 12.409 36.5801 12.0973 35.8922C12.3123 35.7954 12.495 35.6879 12.6777 35.5804ZM25.448 29.7973L25.4587 29.7435C25.0717 30.6035 25.2115 31.3882 25.7275 32.1836C29.0382 28.6041 30.0164 24.3366 29.823 19.7037C29.78 18.575 30.1024 17.3281 29.006 16.4359C27.1249 17.8978 25.1792 22.563 25.4695 24.8203C26.0177 24.2721 26.5444 23.7347 27.0819 23.2079C26.8454 24.2076 26.4154 25.0998 25.7382 25.734C25.1255 26.3145 24.932 26.9165 25.0395 27.6582C25.147 28.3784 25.319 29.0878 25.448 29.7973ZM21.6105 56.4342C21.8899 55.6387 22.0189 55.0475 22.2877 54.5315C22.5134 54.0908 22.5564 53.3921 23.3733 53.2739C22.1264 56.7244 22.1264 56.7244 23.6528 57.4339C24.1151 56.7244 24.5988 55.9934 25.0717 55.2732C25.1362 55.3055 25.2007 55.3485 25.276 55.3807C25.0395 56.1762 24.803 56.9716 24.4698 58.0896C26.8991 58.1541 29.0812 59.6052 31.4784 58.1218C30.6936 55.671 29.9734 53.4136 29.2962 51.2745C28.275 51.1132 27.5011 50.8768 26.7379 50.8983C24.0398 50.9413 21.331 50.995 18.6329 51.21C17.472 51.3067 17.214 52.0807 17.8804 53.0374C18.7726 54.3488 19.8153 55.5205 21.6105 56.4342ZM39.5511 41.8581C38.4547 41.4496 37.799 42.2128 37.2615 42.9115C35.8103 44.7819 34.4237 46.7168 33.037 48.6409C32.6285 49.2106 32.435 49.8448 31.4461 49.8341C30.6077 49.8126 30.3067 50.5435 30.6077 51.425C31.1129 52.9191 31.5321 54.4455 32.0266 55.9504C32.1663 56.3589 32.4458 56.7137 32.65 57.0684C37.4442 55.5742 40.3466 48.0927 39.5511 41.8581ZM26.1252 41.6968C25.2437 41.6431 24.588 41.6646 23.9646 41.5356C23.2551 41.3851 22.5671 41.1379 21.8899 40.8799C20.1593 40.1919 18.4609 40.4499 16.397 40.7831C17.128 42.2235 17.6977 43.363 18.3749 44.6851C18.4824 44.1692 18.5469 43.9112 18.6866 43.234C19.0951 45.8461 20.2238 47.4907 22.3737 48.1787C24.2978 48.7914 26.2004 50.0491 28.5115 48.9096C27.6946 46.4373 26.9099 44.0724 26.1252 41.6968ZM34.4237 34.5055C32.607 35.4299 32.4673 37.4078 31.3064 38.6225C30.1562 39.8264 29.0275 41.0626 27.7376 42.4385C27.8558 42.9222 28.0386 43.6747 28.275 44.5991C28.9523 43.9757 29.479 43.492 30.0057 43.0082C28.748 45.9213 28.748 45.9213 29.5327 46.7813C29.9412 46.3405 30.3497 45.8891 30.9409 45.2548C30.7044 46.6845 29.2532 47.3725 29.8874 48.9096C30.4894 48.6194 31.1666 48.5012 31.4891 48.0927C32.8758 46.3513 34.5204 44.6959 35.3911 42.7073C36.5735 40.0092 35.8533 37.2036 34.4237 34.5055ZM27.4044 40.3209C29.1242 38.1603 30.6829 36.2254 32.2201 34.2798C32.3383 34.1293 32.4243 33.9358 32.4995 33.753C33.424 31.1625 33.0693 28.6471 32.3705 26.0673C31.1451 26.3897 30.5862 27.0347 30.1347 27.9162C29.3715 29.4426 28.4578 30.8937 27.6731 32.4094C27.3184 33.0866 27.1356 33.8498 26.9099 34.4733C26.8239 34.398 26.5982 34.183 26.3724 33.968C26.2757 34.0433 26.1897 34.1185 26.0929 34.1938C26.6196 35.1182 27.1356 36.0427 27.6408 36.9349C27.1571 37.0854 26.9421 37.1606 26.6841 37.2466C26.9314 38.3108 27.1571 39.2567 27.4044 40.3209ZM26.0284 40.2672C25.5447 38.2248 25.3727 36.5479 24.7278 35.0752C24.3193 34.1508 23.2551 33.4736 22.4167 32.7964C21.9222 32.3986 21.202 32.2696 20.686 31.8719C19.5788 31.012 18.4501 30.9367 17.0097 31.4527C17.429 33.9895 18.4501 36.1072 20.2238 38.0958C20.7613 37.0961 21.159 36.3651 21.546 35.6449C21.6212 36.5049 21.3417 37.1821 21.2342 37.8808C21.1805 38.257 21.331 38.8805 21.589 39.031C21.8684 39.1922 22.4059 38.9557 22.7929 38.8052C23.0186 38.7192 23.1476 38.429 23.3411 38.257C23.3948 38.214 23.5346 38.2893 23.6421 38.3108C23.5346 38.7515 23.4378 39.1922 23.2874 39.8479C24.1151 39.9662 24.8353 40.0737 26.0284 40.2672ZM23.1369 10.8139C22.6101 12.4586 22.1264 13.7378 21.7932 15.0599C20.9977 18.3062 20.8687 21.4343 23.8463 23.7454C24.2763 22.5952 24.502 21.2946 25.1685 20.2949C26.9206 17.6935 25.5877 13.5658 23.1369 10.8139ZM18.2782 20.4991C18.7189 22.9177 19.0736 25.1643 19.5466 27.3894C20.0088 29.5931 21.4277 30.8937 23.6421 31.3452C24.1473 26.2823 22.7176 23.2939 18.2782 20.4991Z" fill="black"/>
<path d="M3.88783 77.793C3.38261 76.0946 3.52235 74.9874 4.16731 73.9232C7.78984 68.0004 11.4554 62.1097 15.0349 56.1546C16.7118 53.3597 18.1845 50.4467 19.8076 47.6196C22.323 43.2339 24.8813 38.8589 27.4396 34.4946C29.31 31.3128 31.0514 28.045 33.1368 25.0137C37.501 18.6501 42.0158 12.4047 46.552 6.15937C47.8526 4.36423 49.4006 2.73033 50.8517 1.04269C51.1634 0.687958 51.5612 0.419224 52.0449 0C52.8188 1.17168 52.3674 1.92413 51.6794 2.61209C44.1656 10.0291 38.5007 18.8436 32.9433 27.7118C30.342 31.8503 27.7944 36.0318 25.3543 40.267C21.807 46.4372 18.4317 52.7148 14.8737 58.8956C12.1756 63.5609 9.29475 68.1186 6.54292 72.7623C5.65072 74.2242 4.94126 75.7721 3.88783 77.793Z" fill="#EB584A"/>
</svg>
