<svg width="57" height="80" viewBox="0 0 57 80" fill="none" xmlns="http://www.w3.org/2000/svg">
<g clip-path="url(#clip0_10476_6390)">
<path d="M57 41.4997C56.6 43.7997 56.3 46.2997 55.9 48.7997C55.5 51.9997 53.7 54.4997 51.7 56.6997C49.3 59.3997 46.6 61.6997 43.3 63.3997C38.5 65.7997 33.3 66.7997 28 67.0997C20.8 67.4997 14.4 65.1997 8.7 60.6997C4.7 57.2997 2.6 52.9997 0.5 48.3997C0.1 47.5997 0 46.6997 0 45.7997C0.3 42.6997 0.2 39.3997 1.2 36.4997C2.5 32.7997 3.6 28.9997 5.8 25.4997C8.2 21.7997 11 18.6997 14.5 16.2997C17.6 14.1997 21 12.7997 24.8 12.4997C25.4 12.4997 26 12.3997 26.6 12.2997C35.6 10.7997 42.8 14.3997 49.2 20.1997C53 23.5997 54.6 28.2997 55.8 32.9997C56.5 35.7997 56.6 38.4997 57 41.4997ZM55 41.2997C55.2 34.2997 53.3 27.8997 48.6 22.4997C44.3 17.5997 38.8 14.5997 32.4 13.9997C26.3 13.4997 20.6 15.2997 15.7 19.1997C9.9 23.7997 6 29.7997 3.5 36.4997C2.4 39.4997 1.9 43.0997 2.4 46.2997C3.9 54.2997 9 59.8997 16.5 62.9997C24.9 66.3997 33.3 65.7997 41.5 61.9997C50.2 57.9997 55.3 51.4997 55 41.2997Z" fill="#F15748"/>
<path d="M55.2606 28.7776C55.3376 28.9949 55.4146 29.2123 55.4916 29.4297C56.7637 34.2633 55.2363 40.7247 50.0977 43.6216C48.6405 44.4803 47.1063 45.1217 45.4444 45.9551C43.2923 54.1057 37.0181 59.4599 29.6482 57.7162C29.3929 58.1002 29.1375 58.4843 28.8821 58.8683C23.8751 64.8989 17.9049 67.7968 10.3781 63.1241C10.2758 63.1114 10.0838 62.9837 9.90442 62.7537C9.81475 62.6387 9.7124 62.626 9.62273 62.511C9.05933 62.0256 8.32926 61.2078 7.49685 60.3774C6.21606 58.9719 4.87093 57.2466 4.12721 55.6997C3.65251 54.4979 3.22947 53.7182 3.01113 52.9637C1.08601 47.5297 -0.455066 42.351 2.04503 36.4257C5.59096 27.9281 14.8195 22.2123 22.9984 26.654C23.1008 26.6666 23.1904 26.7817 23.1904 26.7817C23.2928 26.7943 23.3951 26.807 23.3825 26.9094C24.1886 27.1131 24.943 26.8947 25.4284 26.3313C25.5307 26.344 25.5434 26.2416 25.6457 26.2543C25.7608 26.1646 26.3232 25.8186 26.5279 25.844C26.9753 25.5876 27.525 25.3439 27.9851 24.9852C28.4324 24.7289 29.3146 24.3185 29.4296 24.2288C29.4296 24.2288 30.9638 23.5874 33.0487 23.5338C35.1083 23.6849 37.0918 24.45 38.7693 26.0086C39.5618 25.4832 40.1242 25.1372 40.5969 24.6761C45.3515 21.5238 50.1238 22.4264 52.9797 25.3778L53.0694 25.4928C54.1192 26.2462 54.7986 27.4734 55.2606 28.7776Z" fill="white"/>
<path d="M12.6512 59.0392C14.5831 59.3822 16.553 59.4183 18.3942 58.8149C21.872 57.5828 24.145 54.3312 25.3049 50.8378C27.3186 44.6444 27.1051 37.1362 25.2813 30.8834C26.5241 32.5959 26.9618 34.9362 28.2046 36.6488C29.1013 37.7989 29.883 39.0388 30.4474 40.3556C31.2555 42.2222 30.4397 44.6151 30.4933 46.7C30.5333 48.0559 30.8159 49.13 30.4465 50.4352C30.0391 52.0473 30.0411 53.7102 29.3266 55.2844C29.0333 55.9755 28.7525 56.5642 28.4592 57.2553C28.0634 57.9337 27.463 58.5867 26.9776 59.1501C25.4064 60.93 23.8352 62.7098 21.5592 63.4672C20.0377 64.0062 18.2725 63.9955 16.7246 63.9078C14.8697 63.7821 12.8228 63.5287 11.2866 62.5072C10.5186 61.9965 9.77582 61.281 9.1481 60.4759C8.61005 59.7858 8.16167 59.2108 7.61095 58.623C7.26492 58.0606 7.3156 57.6512 8.03202 57.7399C8.74844 57.8286 9.51652 58.3393 10.2203 58.5304C11.0264 58.7341 11.8325 58.9378 12.6512 59.0392Z" fill="#BBBBBA"/>
<path d="M28.1903 25.011C26.3237 25.8191 24.5605 27.4712 24.8315 29.4791C24.9475 30.2209 25.3832 30.8983 25.7039 31.6654C26.6396 33.34 27.358 35.0915 27.859 36.9201C28.4497 38.8637 28.708 40.9739 29.7335 42.7635C29.9128 42.9935 30.0795 43.3259 30.3992 43.2616C30.6166 43.1846 30.7442 42.9926 30.7696 42.7879C31.216 41.7001 31.0737 40.3316 31.0084 39.1804C30.9791 36.0594 30.5141 32.2609 31.9947 29.5346C32.6965 28.0628 36.1606 26.1016 34.3554 24.7351C32.8446 23.5089 29.6222 24.357 28.1903 25.011Z" fill="#BBBBBA"/>
<path d="M41.0965 24.8411C40.4191 25.2768 39.8313 25.8275 39.4356 26.5059C39.0399 27.1843 38.8362 27.9904 39.2592 28.7702C39.6052 29.3326 40.1813 29.7156 40.6423 30.1884C41.4874 30.9165 41.8725 32.0033 42.2701 32.9877C42.4368 33.3201 42.5908 33.7548 42.8725 33.9975C43.6153 34.713 44.2859 39.3682 44.9887 38.7278C45.5891 38.0748 44.3901 30.1328 44.1845 29.276C44.0168 28.1122 44.1435 27.0887 44.3092 26.5897C44.934 24.9005 49.2325 25.4326 47.6447 23.9891C45.6855 22.1878 42.8091 23.5983 41.0965 24.8411Z" fill="#BBBBBA"/>
<path d="M34.1346 43.3073C34.2243 43.4223 34.2116 43.5246 34.314 43.5373C34.4416 43.3453 34.5567 43.2556 34.582 43.0509C34.467 43.1406 34.2496 43.2176 34.1346 43.3073ZM53.1083 25.1852L53.0186 25.0701C50.1626 22.1187 45.3904 21.2162 40.6358 24.3685C40.0734 24.7145 39.6006 25.1755 38.8082 25.7009C36.964 23.81 34.8528 23.2369 33.0749 23.3285C30.99 23.3821 29.4558 24.0235 29.4558 24.0235C29.3408 24.1132 28.3563 24.5109 28.0113 24.7799C27.5512 25.1386 27.1038 25.395 26.5541 25.6387C26.439 25.7283 25.8766 26.0744 25.6719 26.049C25.5696 26.0364 25.5569 26.1387 25.4546 26.126C24.7898 26.4594 24.2274 26.8054 23.6133 26.7294C23.511 26.7167 23.4087 26.7041 23.3063 26.6914C23.204 26.6787 23.1016 26.666 23.1143 26.5637C23.0119 26.551 22.9096 26.5384 22.9223 26.436C14.7434 21.9943 5.51482 27.7101 1.96888 36.2077C-0.531213 42.1331 1.00986 47.3117 2.93498 52.7458C3.25567 53.5129 3.56369 54.3823 4.05106 55.4818C4.70511 56.9136 6.13991 58.7539 7.4207 60.1594C8.24045 61.0922 8.98319 61.8077 9.54658 62.2931C9.63625 62.4081 9.72593 62.5231 9.82827 62.5358C10.0203 62.6634 10.2123 62.7911 10.302 62.9061C17.8288 67.5789 23.6966 64.6683 28.806 58.6503C29.1637 58.279 29.3167 57.8823 29.5721 57.4982C36.8396 59.2293 43.2161 53.8877 45.3682 45.7371C47.0301 44.9037 48.5643 44.2624 50.0215 43.4036C55.1602 40.5067 56.6875 34.0453 55.4155 29.2117C55.3385 28.9943 55.2615 28.777 55.1844 28.5596C54.7994 27.4728 54.12 26.2456 53.1083 25.1852ZM28.0349 55.6453C26.3273 61.0453 19.6544 64.5835 14.2418 62.9782C11.4268 62.2141 7.78912 58.0228 7.69945 57.9078C7.50743 57.7801 7.05905 57.205 6.96938 57.09C6.59801 56.7323 6.521 56.515 6.36699 56.0802C5.95663 55.1981 5.3289 54.393 4.93121 53.4086C4.53351 52.4241 3.64845 50.3402 3.43011 49.5857C1.9017 44.3047 1.46403 41.9644 2.85296 37.4603C2.92898 36.8462 3.20969 36.2574 3.37539 35.7584C5.18735 32.034 7.98574 29.5747 9.46828 28.5113C10.0307 28.1653 10.6058 27.7169 11.1555 27.4732C15.144 25.4731 20.465 25.3005 24.0383 29.172C24.4097 29.5297 24.7684 29.9898 25.0374 30.3349C25.4858 30.9099 25.9342 31.485 26.2676 32.1498C27.0366 33.4919 27.9724 35.1665 28.4217 36.573C28.9227 38.4016 29.3088 40.3198 29.4774 42.3151C29.8654 45.8962 29.6266 49.5036 28.9784 53.0603C28.8001 53.6617 28.3157 55.0566 28.0349 55.6453ZM39.7481 52.5232C39.058 53.0612 38.3552 53.7016 37.4604 54.2143C35.7732 55.2524 33.1522 56.2788 30.3762 56.0391C30.5789 54.4015 30.6783 51.9199 31.2778 50.4354C31.5838 49.642 32.888 49.18 33.7058 48.4499C34.0508 48.1809 34.2039 47.7842 34.4592 47.4001C33.4748 47.7978 32.4776 48.2978 31.3908 48.6829C30.2747 45.9468 32.9728 45.1378 34.2116 43.5246C34.3393 43.3326 34.4543 43.2429 34.4797 43.0383C34.2623 43.1153 34.1473 43.2049 34.0323 43.2946C33.1501 43.705 31.9357 44.282 30.9385 44.7821C30.8859 43.5286 30.8722 42.7995 30.8586 42.0704C30.8069 41.6483 30.8576 41.239 30.8186 40.7146C30.8313 40.6122 30.7543 40.3949 30.7669 40.2925C30.6236 38.0926 29.8156 36.226 28.5338 33.989C28.2774 33.5416 27.7901 32.4422 27.4314 31.9821C26.56 30.6273 25.8036 29.1827 24.9575 27.6232C26.555 26.4701 28.5746 25.2653 30.6079 24.7896C32.0017 24.4426 33.1402 24.4797 34.2533 24.7214C35.6608 25.1035 36.8003 25.9719 37.7867 27.2371C40.5413 31.0073 43.6419 35.3399 43.8778 40.1491C44.2678 45.3931 43.5816 49.2569 39.7481 52.5232ZM52.817 38.4501C51.7068 40.7027 51.3374 42.0078 48.8187 43.0469C48.6014 43.1239 46.8751 43.6376 46.6704 43.6122C46.3634 43.5742 45.954 43.5236 45.532 43.5752C45.57 43.2682 45.608 42.9611 45.5437 42.6414C45.568 41.6053 45.49 40.5565 45.8088 39.6608C46.1401 38.6626 47.1626 37.9579 48.1461 36.7288C47.0466 37.2161 46.2922 37.4345 45.0904 37.9092C45.6265 36.9364 45.8945 36.45 46.3156 35.5669C45.6888 35.5933 45.1518 35.7346 44.9597 35.6069L44.8701 35.4919C44.601 35.1468 44.447 34.7121 44.178 34.3671C42.6272 31.7851 40.9867 29.088 39.3589 26.2887C40.5861 25.6093 41.6212 24.8022 42.823 24.3275C44.3572 23.6861 45.8408 23.4541 47.3633 23.7465C48.4764 23.9883 49.6665 24.4473 50.691 25.4055C54.6474 28.7009 54.9993 34.252 52.817 38.4501Z" fill="black"/>
<path d="M12.1924 50.1501C14.6077 48.2669 15.2071 46.7824 14.3347 44.5962C13.9497 43.5093 13.322 42.7042 12.0812 42.6545C10.738 42.5922 9.63854 43.0795 9.05177 44.4617C8.03127 46.8293 9.13369 48.8362 12.1924 50.1501Z" fill="black"/>
<path d="M34.5736 47.3094C35.136 46.9634 35.8008 46.63 36.3632 46.284C36.2735 46.169 36.0942 45.9389 36.0045 45.8239C35.5191 46.3873 35.1487 46.861 34.5736 47.3094C34.6633 47.4244 34.5736 47.3094 34.5736 47.3094Z" fill="black"/>
</g>
<defs>
<clipPath id="clip0_10476_6390">
<rect width="57" height="80" fill="white"/>
</clipPath>
</defs>
</svg>
