<svg width="59" height="57" viewBox="0 0 59 57" fill="none" xmlns="http://www.w3.org/2000/svg">
<path d="M57.9 29.9993C57.6 32.2993 57.2 34.6993 56.8 37.1993C56.4 40.2993 54.6 42.7993 52.6 44.9993C50.3 47.6993 47.5 49.8993 44.2 51.5993C39.4 53.9993 34.3 54.9993 29 55.1993C21.9 55.4993 15.5 53.3993 9.8 48.8993C5.7 45.6993 3.6 41.2993 1.5 36.8993C1.1 36.0993 1 35.1993 1 34.3993C1.3 31.2993 1.2 28.0993 2.2 25.2993C3.5 21.6993 4.6 17.8993 6.8 14.4993C9.2 10.8993 12 7.79931 15.5 5.39931C18.6 3.29931 22 1.89931 25.8 1.69931C26.4 1.69931 27 1.59931 27.5 1.49931C36.5 -0.000694871 43.6 3.59931 50 9.2993C53.8 12.6993 55.4 17.1993 56.6 21.8993C57.4 24.2993 57.5 27.0993 57.9 29.9993ZM55.9 29.7993C56.1 22.8993 54.2 16.5993 49.5 11.2993C45.2 6.4993 39.7 3.49931 33.3 2.99931C27.3 2.49931 21.6 4.2993 16.7 8.19931C11 12.6993 7.1 18.5993 4.6 25.1993C3.5 28.0993 3 31.7993 3.6 34.7993C5.1 42.6993 10.1 48.2993 17.6 51.2993C25.9 54.6993 34.4 54.0993 42.5 50.2993C51.1 46.2993 56.2 39.7993 55.9 29.7993Z" fill="#F15748"/>
<path d="M26.5996 2.5L23.5996 41.8L55.5996 42L56.5996 18.9L57.7996 2L26.5996 2.5Z" fill="white"/>
<path d="M42.5 38.3C42.2 37.9 41.7 37.6 41.2 37.3C37.7 35.5 33.8 34.1 30.8 31.4C29.1 29.9 27.5 27.9 25.2 27.5C24.8 29.3 25.3 32 25.1 33.8C25.3 35.2 24.8 35.7 25.2 37C25.4 37.9 24.5 39.9 25 40.6C26.3 42.2 29.9 40.8 31.9 40.7C33.6 40.6 35.2 41.1 36.9 41C38.1 41.5 40.2 41.5 41.4 41.1C43.1 40.9 43.4 39.5 42.5 38.3Z" fill="#BCBCBB"/>
<path d="M56.0001 16.8992C55.8001 13.4992 57.0001 10.0992 57.4001 6.59922L56.8001 4.39922C56.7001 3.99922 56.7001 3.49922 56.3001 3.09922C55.7001 2.19922 54.4001 2.19922 53.3001 2.19922C53.0001 2.19922 52.7001 2.19922 52.4001 2.39922C51.9001 2.69922 51.8001 3.29922 51.7001 3.99922C51.0001 10.0992 50.3001 16.2992 51.9001 22.0992C53.4001 21.9992 54.4001 20.4992 55.1001 19.0992C55.4001 18.4992 55.7001 17.9992 56.0001 17.3992C56.1001 17.2992 56.1001 17.0992 56.0001 16.8992Z" fill="#BCBCBB"/>
<path d="M25.9992 39.2009C26.1992 39.2009 26.2992 39.3009 26.4992 39.2009C29.1992 39.1009 31.9992 39.3009 34.6992 39.5009C37.6992 39.7009 40.4992 39.9009 43.5992 39.7009C45.1992 39.6009 46.8992 39.7009 48.5992 39.8009C50.0992 39.8009 51.4992 39.8009 52.9992 39.8009C53.1992 39.8009 53.4992 39.8009 53.7992 39.8009C53.3992 40.2009 53.0992 40.1009 52.7992 40.2009C50.7992 40.2009 48.8992 40.2009 46.9992 40.2009C45.0992 40.2009 43.1992 40.3009 41.2992 40.2009C38.8992 40.0009 36.4992 39.9009 33.9992 39.7009C31.6992 39.6009 29.3992 39.5009 27.0992 39.5009C26.7992 39.5009 26.4992 39.6009 26.1992 39.6009C25.9992 39.9009 25.9992 40.2009 25.6992 40.6009C26.1992 40.6009 26.5992 40.8009 26.9992 40.8009C28.2992 40.8009 29.5992 40.9009 30.7992 40.7009C32.8992 40.5009 34.9992 40.6009 36.9992 40.7009C39.0992 40.8009 41.0992 40.9009 43.1992 40.9009C44.8992 41.0009 46.4992 41.0009 48.0992 41.0009C49.9992 41.0009 51.8992 41.0009 53.6992 41.1009C53.9992 41.1009 54.2992 41.1009 54.5992 41.2009C54.4992 41.6009 54.2992 41.6009 53.9992 41.6009C51.8992 41.5009 49.7992 41.5009 47.6992 41.4009C45.5992 41.4009 43.3992 41.3009 41.1992 41.3009C39.2992 41.3009 37.3992 41.3009 35.4992 41.1009C33.0992 40.9009 30.7992 41.2009 28.3992 41.2009C27.1992 41.2009 26.0992 41.1009 24.7992 41.1009C24.7992 40.3009 24.6992 39.6009 24.6992 38.9009C24.6992 37.0009 24.7992 35.1009 24.8992 33.2009C24.8992 32.6009 24.8992 32.0009 24.9992 31.4009C25.1992 28.7009 25.5992 23.9009 25.7992 21.2009C26.0992 18.1009 26.3992 14.9009 26.6992 11.8009C26.7992 10.3009 26.7992 8.80088 26.7992 7.30088C26.8992 5.90088 26.9992 4.70088 26.9992 3.30088C27.4992 2.90088 28.0992 2.60088 28.6992 2.60088C30.6992 2.60088 32.7992 2.50088 34.8992 2.50088C37.1992 2.50088 39.3992 2.50088 41.5992 2.60088C41.9992 2.60088 42.2992 2.60088 42.6992 2.60088C43.8992 2.50088 44.9992 2.50088 46.0992 2.50088C48.2992 2.40088 50.3992 2.70088 52.4992 2.70088C53.7992 2.60088 55.1992 2.60088 56.4992 2.60088C56.5992 2.60088 56.6992 2.50088 56.8992 2.60088C56.9992 2.70088 57.1992 2.80088 57.1992 2.90088C57.1992 3.00088 57.0992 3.20088 56.9992 3.20088C56.8992 3.20088 56.6992 3.30088 56.4992 3.20088C53.5992 3.30088 50.6992 3.30088 47.6992 3.10088C45.9992 3.00088 44.2992 3.10088 42.5992 3.10088C40.1992 3.10088 37.8992 3.00088 35.5992 3.00088C33.4992 3.00088 31.2992 3.10088 29.1992 3.10088C28.7992 3.10088 28.3992 3.20088 27.7992 3.30088C27.5992 5.20088 27.7992 7.20088 27.7992 9.50088C28.2992 9.10088 28.6992 8.80088 29.1992 8.40088C28.7992 9.30088 27.6992 9.60088 27.9992 10.8009C28.5992 10.3009 29.0992 10.0009 29.6992 9.50088C29.6992 9.50088 29.6992 9.60088 29.7992 9.60088C29.3992 10.0009 28.9992 10.3009 28.6992 10.7009C28.1992 11.1009 27.9992 11.7009 27.8992 12.3009C27.5992 14.7009 27.2992 17.2009 27.0992 19.6009C26.9992 20.6009 26.7992 23.7009 26.7992 24.6009C26.6992 26.1009 26.6992 27.6009 26.4992 29.1009C26.3992 31.5009 26.1992 34.0009 26.0992 36.4009C25.7992 37.6009 25.6992 38.4009 25.9992 39.2009Z" fill="black"/>
<path d="M56.0996 4.99961C55.8996 5.09961 55.7996 5.19961 55.5996 5.19961C54.8996 5.19961 54.1996 5.39961 53.5996 5.19961C52.0996 4.99961 50.6996 4.99961 49.2996 5.19961C47.6996 5.39961 46.0996 5.49961 44.4996 5.29961C43.5996 5.29961 42.7996 5.39961 41.8996 5.39961C40.1996 5.39961 38.4996 5.29961 36.7996 5.29961C36.3996 5.29961 35.8996 5.29961 35.4996 5.39961C33.3996 5.49961 31.1996 5.59961 29.0996 5.69961C28.8996 5.69961 28.5996 5.69961 28.3996 5.59961C28.1996 5.59961 28.1996 5.29961 28.0996 5.29961C28.1996 5.19961 28.2996 5.09961 28.3996 5.09961C28.4996 5.09961 28.5996 5.09961 28.7996 5.09961C31.1996 4.99961 33.5996 4.79961 35.9996 4.79961C37.5996 4.69961 39.0996 4.79961 40.5996 4.79961C41.4996 4.79961 42.3996 4.79961 43.2996 4.79961C43.8996 4.79961 44.5996 4.59961 45.2996 4.69961C47.0996 4.79961 48.9996 4.59961 50.7996 4.59961C52.4996 4.59961 54.0996 4.69961 55.7996 4.89961C55.8996 4.79961 55.9996 4.89961 56.0996 4.99961Z" fill="black"/>
<path d="M57.4 4.09961C57.4 4.39961 57.5 4.59961 57.4 4.89961C57.1 6.09961 57.1 7.29961 57.1 8.59961C57.1 9.19961 57 9.69961 56.8 10.2996C56.4 11.3996 56.4 12.3996 56.4 13.4996C56.2 16.4996 56.2 19.4996 55.9 22.3996C55.7 25.7996 55.3 31.2996 55.3 34.6996C55.3 36.1996 55.2 37.7996 55.1 39.2996C55.1 39.5996 55 39.8996 54.9 40.2996C54.8 40.3996 54.6 40.3996 54.5 40.4996C54.6 38.8996 54.7 37.2996 54.7 35.6996C54.8 32.0996 55 28.4996 55.2 24.9996C55.4 21.6996 55.6 16.2996 55.8 12.9996C55.9 11.9996 56.1 10.8996 56.2 9.79961C56.3 9.09961 56.4 8.29961 56.5 7.59961C56.5 6.39961 56.7 5.39961 57 4.29961C57.1 4.29961 57.2 4.29961 57.4 4.09961Z" fill="black"/>
<path d="M48.6996 28.3994C47.8996 28.3994 47.3996 28.6994 46.9996 29.0994C46.7996 29.2994 46.4996 29.4994 46.7996 29.7994C46.8996 29.9994 47.1996 30.1994 47.3996 30.1994C47.6996 30.2994 48.0996 30.2994 48.4996 30.1994C47.7996 30.7994 46.5996 30.6994 46.2996 29.9994C46.1996 29.7994 46.1996 29.3994 46.2996 29.1994C46.6996 28.6994 47.2996 28.1994 47.8996 27.7994C48.0996 27.6994 48.2996 27.7994 48.6996 28.3994Z" fill="black"/>
<path d="M32.4994 12.4993C32.7994 12.2993 33.0994 12.1993 33.2994 11.9993C33.5994 11.7993 33.7994 11.3993 33.7994 10.9993C33.7994 10.3993 33.3994 10.0993 32.7994 10.2993C32.4994 10.3993 32.1994 10.4993 31.8994 10.6993C32.1994 9.79926 33.2994 9.49927 33.8994 10.0993C34.1994 10.5993 34.3994 11.0993 34.1994 11.6993C33.8994 12.2993 33.3994 12.5993 32.4994 12.4993Z" fill="black"/>
<path d="M47.3998 11.9009C46.2998 11.7009 45.7998 11.3009 45.7998 10.4009C45.7998 9.90086 46.1998 9.40086 46.5998 9.20086C46.9998 9.10086 47.1998 9.20086 47.6998 9.70086C47.5998 9.70086 47.4998 9.80086 47.4998 9.70086C47.0998 9.50086 46.6998 9.70086 46.4998 10.0009C46.2998 10.3009 46.3998 10.7009 46.6998 11.1009C46.7998 11.2009 46.9998 11.4009 47.1998 11.5009C47.3998 11.6009 47.5998 11.7009 47.6998 11.7009C47.3998 11.7009 47.3998 11.8009 47.3998 11.9009Z" fill="black"/>
<path d="M29.1997 31.9004C28.6997 32.4004 28.5997 32.8004 28.8997 33.4004C29.2997 34.1004 29.8997 34.1004 30.5997 34.1004C30.5997 34.2004 30.5997 34.2004 30.5997 34.3004C29.8997 34.7004 29.3997 34.4004 28.7997 34.1004C28.1997 33.8004 28.0997 33.2004 28.2997 32.6004C28.2997 31.9004 28.4997 31.9004 29.1997 31.9004Z" fill="black"/>
<path d="M39.5994 30.5008C40.4994 29.8008 40.4994 29.8008 40.1994 28.9008C39.9994 28.9008 39.6994 28.9008 39.3994 28.9008C39.3994 28.7008 39.3994 28.5008 39.4994 28.5008C39.5994 28.4008 39.8994 28.3008 40.0994 28.4008C40.5994 28.5008 40.9994 29.2008 40.8994 29.9008C40.6994 30.3008 40.3994 30.5008 39.5994 30.5008Z" fill="black"/>
<path d="M44.1992 19.0004C44.5992 18.8004 44.7992 18.9004 44.9992 19.3004C45.1992 19.7004 44.7992 20.1004 44.3992 20.2004C43.9992 20.3004 43.5992 20.1004 43.4992 19.8004C43.3992 19.4004 43.5992 19.3004 44.1992 19.0004Z" fill="black"/>
<path d="M32 25.101C32.2 25.001 32.4 22.601 32.6 22.601C32.9 22.501 33 24.701 33.1 25.001C33.2 25.301 33 25.501 32.7 25.601C32.4 25.601 32.2 25.501 32 25.101Z" fill="black"/>
<path d="M37.3994 14.1008C37.6994 14.0008 37.8994 13.8008 38.0994 13.8008C38.1994 13.8008 38.4994 14.0008 38.4994 14.0008C38.5994 14.1008 38.4994 14.4008 38.3994 14.5008C38.0994 15.0008 37.6994 14.8008 37.3994 14.1008Z" fill="black"/>
<path d="M51.8994 37.7004C52.6994 37.3004 53.2994 36.8004 54.0994 36.4004C53.5994 37.2004 52.5994 37.8004 51.8994 37.7004Z" fill="black"/>
<path d="M52.0996 36.6992C52.7996 36.0992 53.2996 35.2992 54.3996 35.1992C53.9996 35.4992 53.6996 35.6992 53.2996 35.9992C52.9996 36.1992 52.5996 36.5992 52.2996 36.8992C52.1996 36.7992 52.1996 36.7992 52.0996 36.6992Z" fill="black"/>
<path d="M29.5996 17.4996C29.7996 17.1996 29.8996 16.9996 30.0996 16.7996C30.2996 16.5996 30.5996 16.7996 30.6996 16.9996C30.6996 17.0996 30.5996 17.3996 30.5996 17.3996C30.3996 17.4996 30.0996 17.5996 29.8996 17.6996C29.6996 17.5996 29.6996 17.5996 29.5996 17.4996Z" fill="black"/>
<path d="M40.6 9C39.9 8.9 39.6 8.6 39.9 8.2C40 8.1 40.2 8 40.3 8C40.4 8.1 40.6 8.2 40.6 8.2C40.6 8.6 40.6 8.7 40.6 9Z" fill="black"/>
<path d="M51.9998 14.6008C52.3998 14.5008 52.7998 14.7008 52.8998 14.9008C52.8998 15.0008 52.7998 15.2008 52.6998 15.3008C52.4998 15.4008 51.9998 15.2008 51.8998 14.9008C51.7998 14.9008 51.8998 14.7008 51.9998 14.6008Z" fill="black"/>
<path d="M50.0996 36.0998C50.1996 35.9998 50.1996 35.7998 50.2996 35.6998C50.5996 35.5998 50.7996 35.7998 50.8996 36.0998C50.8996 36.1998 50.7996 36.3998 50.6996 36.4998C50.3996 36.6998 50.0996 36.4998 50.0996 36.0998Z" fill="black"/>
<path d="M39.3994 35.8C39.0994 36 38.9994 36.3 38.8994 36.3C38.7994 36.3 38.5994 36.2 38.4994 36.1C38.3994 35.8 38.4994 35.6 38.7994 35.5C38.8994 35.5 38.9994 35.7 39.3994 35.8Z" fill="black"/>
<path d="M33.9992 10.1L32.5992 22.6L31.6992 35.5L47.3992 36L49.2992 26.2L50.5992 11.6L46.2992 10L33.9992 10.1Z" fill="white"/>
<path d="M32.2 32.8C32.7 32.5 33 32.3 33.4 32C33.2 32.7 32.4 32.9 32.2 33.8C32.8 33.6 33.3 33.4 33.7 33.1C33.7 33.2 33.7 33.2 33.7 33.2C33.2 33.6 32.6 34 32 34.5C32.4 34.6 32.6 34.7 32.9 34.8C33.5 34.9 34.1 34.8 34.7 34.9C38 35.1 41.3 35.2 44.6 35.4C45.5 35.4 46.6 35.4 47.7 35.4C47.8 35.1 47.9 34.8 48 34.5C48.2 32.5 48.5 30.4 48.7 28.3C48.9 26.4 49.1 22.5 49.2 20.7C49.2 20.4 49.3 20.1 49.3 19.7C49.5 17.7 49.7 15.7 50 13.6C50.1 12.6 50.2 11.6 50.3 10.5C49.6 10.3 49 10.2 48.4 10.1C47.9 10.1 47.4 10 46.9 10.1C44.6 10.3 42.3 9.9 40 9.7C37.9 9.3 36 9.2 34 9.6C33.7 9.7 33.5 9.7 33.3 9.2C33.4 9.1 33.6 9 33.8 8.9C35.4 8.7 37 8.7 38.6 8.9C40.6 9.1 42.6 9.3 44.6 9.4C45.8 9.4 47 9.4 48.1 9.3C49 9.3 49.8 9.5 50.7 9.9C50.7 10.4 50.6 10.9 50.6 11.3C50.5 12.7 50.5 14 50.3 15.3C50.2 16.5 50 17.7 49.8 19C49.7 19.6 49.6 20.1 49.6 20.6C49.7 21.7 49.4 24.7 49.2 25.8C49.1 26.1 49.1 26.4 49.1 26.8C48.9 28.3 48.8 29.9 48.6 31.4C48.5 32.5 48.3 33.8 48.2 34.9C48.1 35.6 48 35.7 47.3 35.7C45.2 35.6 43.3 35.6 41.2 35.5C40 35.5 38.8 35.4 37.6 35.4C36.6 35.3 35.5 35.3 34.6 35.3C33.7 35.3 32.7 35.2 31.7 35.1C31.6 34.9 31.5 34.7 31.6 34.5C31.6 32.9 31.7 31.3 31.8 29.8C32 27.8 32.1 23.6 32.3 21.6C32.4 20 32.6 18.4 32.7 16.8C32.8 15.4 33.1 14 33.4 12.6C33.5 12 33.5 11.2 33.6 10.6C33.6 10.4 33.7 10.3 33.7 10.2C34.2 10.2 34.2 10.6 34.1 10.9C34 11.7 34 12.3 33.9 13C33.5 15.1 33.3 17.2 33.1 19.4C32.9 22.8 32.5 28.5 32.3 31.9C32.2 32.2 32.2 32.4 32.2 32.8Z" fill="black"/>
<path d="M35.8994 11.6992L35.9994 19.8992L45.9994 20.9992L46.2994 17.8992L45.5994 12.1992L35.8994 11.6992Z" fill="#EB584A"/>
<path d="M45.5995 12.3007C42.1995 11.6007 38.8995 12.3007 35.3995 12.6007C35.3995 12.5007 35.1995 12.2007 35.2995 12.1007C35.2995 11.9007 35.5995 11.8007 35.7995 11.8007C37.5995 12.0007 39.2995 11.7007 41.0995 11.5007C42.2995 11.4007 43.3995 11.6007 44.5995 11.6007C44.9995 11.6007 45.2995 11.7007 45.6995 11.6007C46.0995 11.6007 46.1995 11.8007 46.2995 12.3007C46.2995 13.0007 46.2995 13.7007 46.2995 14.4007C46.2995 15.6007 46.3995 16.7007 46.3995 17.9007C46.3995 18.8007 46.1995 19.8007 46.0995 21.0007C44.2995 20.9007 42.6995 20.6007 40.9995 20.5007C39.3995 20.3007 37.6995 20.1007 35.9995 20.0007C35.7995 18.0007 35.3995 16.0007 35.6995 13.9007C35.6995 13.7007 35.7995 13.5007 35.8995 13.2007C35.9995 13.2007 36.0995 13.2007 36.0995 13.2007C36.1995 13.4007 36.1995 13.7007 36.1995 13.9007C35.8995 15.1007 36.1995 16.4007 36.2995 17.5007C36.3995 18.0007 36.3995 18.6007 36.4995 19.2007C39.4995 19.8007 42.5995 19.9007 45.4995 20.3007C45.9995 18.9007 46.0995 14.9007 45.5995 12.3007Z" fill="black"/>
<path d="M44.2994 29.7004C44.1994 29.8004 44.1994 29.8004 44.2994 29.9004C44.1994 29.9004 44.1994 30.0004 44.1994 30.0004C44.0994 30.0004 44.0994 30.0004 43.9994 30.0004C41.0994 29.6004 38.3994 28.8004 35.4994 28.7004C35.4994 28.7004 35.3994 28.6004 35.3994 28.5004C35.5994 28.4004 35.7994 28.4004 35.9994 28.4004C37.3994 28.4004 38.7994 28.7004 40.1994 28.9004C41.4994 29.1004 42.8994 29.4004 44.1994 29.6004C44.1994 29.6004 44.1994 29.7004 44.2994 29.7004Z" fill="black"/>
<path d="M43.1998 33.4996C42.0998 32.9996 41.1998 33.1996 40.1998 33.0996C38.6998 33.0996 37.1998 32.9996 35.6998 32.9996C35.4998 32.9996 35.3998 32.8996 35.2998 32.7996C35.3998 32.7996 35.5998 32.6996 35.6998 32.5996C37.9998 32.6996 40.2998 32.7996 42.5998 32.8996C42.7998 32.8996 43.1998 32.9996 43.1998 33.4996Z" fill="black"/>
<path d="M41.3996 27.3996C41.2996 27.3996 41.1996 27.4996 41.0996 27.4996C39.2996 27.0996 37.3996 26.7996 35.5996 26.3996C35.5996 26.2996 35.5996 26.2996 35.5996 26.1996C35.6996 26.1996 35.9996 26.0996 36.0996 26.0996C37.1996 26.2996 38.2996 26.4996 39.4996 26.6996C40.0996 26.7996 40.5996 26.8996 41.1996 26.9996C41.2996 27.0996 41.3996 27.0996 41.5996 27.1996C41.3996 27.1996 41.3996 27.2996 41.3996 27.3996Z" fill="black"/>
<path d="M41.3996 24.3C41.2996 24.3 41.1996 24.4 41.0996 24.4C39.2996 24 37.3996 23.7 35.5996 23.3C35.5996 23.2 35.5996 23.2 35.5996 23.1C35.6996 23.1 35.9996 23 36.0996 23C37.1996 23.2 38.2996 23.4 39.4996 23.6C40.0996 23.7 40.5996 23.8 41.1996 23.9C41.2996 24 41.3996 24 41.5996 24.1C41.3996 24.1 41.3996 24.2 41.3996 24.3Z" fill="black"/>
<path d="M40.5 13.8996C40.7 13.9996 40.7 14.1996 40.7 14.4996C40.9 14.4996 41 14.6996 41.1 14.6996C41.2 14.3996 41.2 14.0996 41 13.6996C40.8 13.6996 40.6 13.4996 40.6 13.2996C40.6 13.1996 40.6 12.9996 40.7 12.8996C40.5 12.8996 40.2 12.8996 40.1 13.1996C40.1 13.3996 40.1 13.4996 40.1 13.6996C40.1 13.7996 40.3 13.7996 40.5 13.8996ZM40.6 13.2996C40.6 13.3996 40.7 13.5996 40.9 13.5996H41V13.6996C41.2 14.0996 41.1 14.4996 41 14.7996C41.1 14.8996 41.1 14.9996 41.2 14.9996C41.3 14.7996 41.5 14.1996 41.3 13.4996C41.4 13.3996 41.5 13.0996 41.4 12.8996C41.2 12.4996 40.8 12.4996 40.5 12.8996C40.6 12.9996 40.6 13.0996 40.6 13.2996ZM41.6 13.4996C41.8 14.1996 41.6 14.7996 41.5 14.9996C41.5 14.9996 41.5 15.0996 41.6 15.2996C42 14.4996 41.9 13.6996 41.9 13.6996C42.1 13.6996 42.3 13.4996 42.4 13.2996C42.4 12.9996 42.1 12.6996 41.8 12.7996C41.8 12.7996 41.8 12.7996 41.8 12.8996C41.8 13.1996 41.7 13.2996 41.6 13.4996ZM40.1 13.8996C40.4 14.4996 40.3 15.0996 40 15.5996C40.1 15.5996 40.2 15.5996 40.2 15.5996C40.3 15.5996 40.3 15.5996 40.3 15.5996H40.4C40.5 15.4996 40.6 15.1996 40.7 15.0996V14.9996C40.7 14.8996 40.7 14.8996 40.6 14.7996C40.6 14.5996 40.5 14.5996 40.5 14.4996C40.6 14.4996 40.7 14.4996 40.7 14.4996C40.7 14.3996 40.6 14.1996 40.6 14.0996C40.6 14.0996 40.6 14.0996 40.5 14.0996C40.3 14.0996 40.1 13.9996 40 13.7996C39.9 13.6996 39.9 13.4996 40 13.2996C39.8 13.2996 39.6 13.4996 39.6 13.6996C39.6 13.7996 39.8 13.9996 40.1 13.8996ZM40.1 14.3996C40 14.2996 39.9 14.3996 39.9 14.3996C40 14.4996 40 14.6996 40 14.7996L40.1 14.8996C40.1 14.6996 40.2 14.5996 40.1 14.3996ZM40.6 15.6996C40.7 15.5996 40.9 15.4996 40.8 15.2996C40.8 15.1996 40.7 15.0996 40.6 14.9996C40.6 15.1996 40.4 15.3996 40.4 15.5996C40.5 15.5996 40.6 15.5996 40.6 15.6996ZM40 15.9996C39.9 15.9996 39.9 15.9996 40 15.9996C40 16.0996 40 16.0996 40 15.9996C40.1 16.0996 40.1 16.0996 40 15.9996C40.1 16.0996 40.1 15.9996 40 15.9996C40.1 15.9996 40.1 15.9996 40 15.9996ZM42.4 18.7996C41.7 18.9996 41 18.6996 40.8 18.1996C41.1 18.6996 41.8 18.7996 42.4 18.7996C42.4 18.4996 43.3 16.5996 41.5 15.7996C41.5 15.8996 41.4 15.8996 41.5 15.9996C41.7 16.0996 42 16.2996 42.1 16.7996C42 16.2996 41.5 16.0996 41.3 15.9996C41.7 15.9996 41.4 15.0996 41.4 15.0996C41.1 14.9996 41 14.5996 40.6 14.4996C40.7 14.5996 40.6 14.7996 40.6 14.9996C40.7 15.0996 40.9 15.2996 40.9 15.2996C40.9 15.4996 40.7 15.6996 40.6 15.7996C40.8 15.8996 41 15.9996 41.1 16.0996C40.9 16.0996 40.7 16.2996 40.7 16.2996C40.7 16.2996 40.7 16.0996 41 16.0996C40.8 15.9996 40.6 15.8996 40.4 15.8996C40.2 15.8996 40 15.9996 39.8 15.8996C39.7 16.0996 39 16.6996 38 16.6996C37.9 16.6996 37.5 16.6996 37.5 16.6996V16.7996C37.5 16.7996 37.7 16.7996 37.8 16.6996C37.8 16.7996 37.7 16.8996 37.6 16.7996C37.9 17.1996 39.2 17.3996 39.8 16.8996C39.8 17.0996 39.6 17.1996 39.3 17.1996C39.4 17.1996 39.5 17.1996 39.6 17.2996C39.7 17.3996 39.8 17.2996 39.8 17.2996C39.8 17.1996 39.8 17.0996 40 17.0996C40.2 17.0996 40.4 17.2996 40.8 17.2996C41.2 17.2996 41.4 16.9996 41.4 16.4996C41.5 17.0996 41.1 17.3996 40.8 17.3996C40.9 17.6996 40.7 17.9996 40.5 18.2996C40.4 18.2996 40.2 18.3996 40.2 18.4996C40.5 18.8996 41.3 19.4996 42.3 19.1996C42.5 18.9996 42.4 18.7996 42.4 18.7996ZM40.4 16.1996C40.4 16.0996 40.4 16.0996 40.4 16.1996C40.3 16.0996 40.3 16.0996 40.4 16.1996L40.2 16.0996V16.1996C40.2 16.2996 40.2 16.3996 40.1 16.2996C40 16.1996 39.9 16.2996 39.9 16.1996C39.9 16.0996 39.9 15.9996 39.9 15.9996C39.9 15.9996 39.9 15.9996 39.8 15.9996C39.8 15.9996 39.8 15.9996 39.7 15.9996H39.8C39.8 15.9996 39.9 15.9996 39.9 16.0996L40 16.1996C40 16.1996 40 16.1996 40 16.2996C40.4 16.0996 40.4 16.0996 40.4 16.1996C40.4 16.0996 40.4 16.0996 40.4 16.1996C40.5 16.1996 40.5 16.1996 40.4 16.1996C40.5 16.1996 40.4 16.1996 40.4 16.1996Z" fill="white"/>
<path d="M12.4998 12.7988L9.7998 46.9988L39.2998 47.1988L40.0998 27.8988L41.1998 12.2988L12.4998 12.7988Z" fill="white"/>
<path d="M27.3002 43.7984C27.0002 43.3984 26.6002 43.1984 26.1002 42.8984C22.9002 41.1984 19.3002 39.9984 16.5002 37.4984C14.9002 36.0984 13.5002 34.2984 11.4002 33.8984C11.0002 35.5984 11.5002 38.0984 11.3002 39.6984C11.5002 40.9984 11.1002 41.3984 11.4002 42.6984C11.6002 43.4984 10.7002 45.2984 11.2002 45.9984C12.4002 47.3984 15.7002 46.0984 17.6002 46.0984C19.2002 45.9984 20.7002 46.4984 22.2002 46.3984C23.3002 46.8984 25.2002 46.7984 26.4002 46.4984C27.8002 46.1984 28.0002 44.8984 27.3002 43.7984Z" fill="#BCBCBB"/>
<path d="M39.6002 26.0992C39.4002 22.9992 40.5002 19.7992 40.9002 16.6992L40.3002 14.6992C40.2002 14.2992 40.2002 13.8992 39.9002 13.4992C39.3002 12.6992 38.2002 12.6992 37.2002 12.6992C36.9002 12.6992 36.6002 12.6992 36.4002 12.8992C36.0002 13.1992 35.8002 13.7992 35.7002 14.3992C35.1002 19.9992 34.4002 25.6992 35.9002 31.0992C37.3002 30.9992 38.2002 29.5992 38.9002 28.3992C39.2002 27.8992 39.5002 27.3992 39.8002 26.7992C39.6002 26.3992 39.6002 26.2992 39.6002 26.0992Z" fill="#BCBCBB"/>
<path d="M12.0002 44.6992C12.2002 44.6992 12.3002 44.7992 12.4002 44.6992C14.9002 44.5992 17.4002 44.7992 19.9002 44.9992C22.6002 45.0992 25.3002 45.3992 28.1002 45.1992C29.6002 45.0992 31.1002 45.1992 32.7002 45.2992C34.1002 45.2992 35.4002 45.2992 36.8002 45.2992C37.0002 45.2992 37.2002 45.2992 37.5002 45.2992C37.2002 45.6992 36.8002 45.5992 36.6002 45.6992C34.8002 45.6992 33.0002 45.6992 31.2002 45.6992C29.5002 45.6992 27.7002 45.7992 26.0002 45.6992C23.8002 45.4992 21.6002 45.3992 19.3002 45.2992C17.2002 45.1992 15.1002 45.1992 12.9002 45.0992C12.6002 45.0992 12.3002 45.1992 12.1002 45.1992C11.9002 45.4992 11.9002 45.7992 11.7002 46.0992C12.1002 46.0992 12.5002 46.2992 12.9002 46.1992C14.1002 46.1992 15.3002 46.2992 16.4002 46.1992C18.3002 45.9992 20.2002 46.1992 22.1002 46.1992C24.0002 46.2992 25.9002 46.3992 27.8002 46.3992C29.3002 46.4992 30.8002 46.4992 32.3002 46.4992C34.0002 46.4992 35.8002 46.4992 37.5002 46.5992C37.8002 46.5992 38.0002 46.5992 38.3002 46.6992C38.2002 47.0992 38.0002 47.0992 37.7002 47.0992C35.9002 46.9992 33.9002 46.9992 32.0002 46.8992C30.0002 46.8992 28.1002 46.7992 26.0002 46.7992C24.3002 46.7992 22.5002 46.7992 20.7002 46.5992C18.5002 46.3992 16.4002 46.6992 14.1002 46.6992C13.0002 46.6992 12.0002 46.5992 10.8002 46.5992C10.8002 45.8992 10.7002 45.1992 10.7002 44.4992C10.7002 42.7992 10.8002 40.9992 10.9002 39.1992C10.9002 38.5992 10.9002 38.0992 11.0002 37.4992C11.2002 34.9992 11.4002 32.4992 11.6002 29.9992C11.9002 27.0992 12.2002 24.1992 12.4002 21.2992C12.5002 19.8992 12.5002 18.4992 12.5002 17.0992C12.6002 15.8992 12.6002 14.6992 12.6002 13.3992C13.1002 12.9992 13.6002 12.7992 14.2002 12.7992C16.1002 12.7992 18.0002 12.6992 19.9002 12.6992C22.0002 12.6992 24.0002 12.6992 26.1002 12.7992C26.5002 12.7992 26.7002 12.7992 27.1002 12.7992C28.2002 12.6992 29.2002 12.6992 30.2002 12.6992C32.2002 12.6992 34.2002 12.8992 36.1002 12.8992C37.3002 12.7992 38.5002 12.7992 39.8002 12.7992C39.9002 12.7992 40.0002 12.7992 40.2002 12.7992C40.3002 12.8992 40.5002 12.9992 40.5002 13.0992C40.5002 13.1992 40.4002 13.2992 40.3002 13.3992C40.2002 13.3992 40.0002 13.4992 39.9002 13.3992C37.2002 13.4992 34.5002 13.3992 31.8002 13.2992C30.3002 13.1992 28.7002 13.2992 27.1002 13.2992C24.9002 13.2992 22.8002 13.1992 20.6002 13.2992C18.7002 13.2992 16.6002 13.3992 14.7002 13.3992C14.3002 13.3992 13.9002 13.4992 13.4002 13.5992C13.2002 15.3992 13.4002 17.1992 13.4002 19.2992C13.9002 18.9992 14.2002 18.6992 14.7002 18.2992C14.3002 19.0992 13.3002 19.3992 13.6002 20.4992C14.2002 20.0992 14.7002 19.6992 15.1002 19.2992C15.1002 19.2992 15.1002 19.3992 15.2002 19.3992C14.9002 19.7992 14.5002 20.0992 14.1002 20.3992C13.7002 20.7992 13.4002 21.2992 13.4002 21.8992C13.1002 24.0992 12.9002 26.3992 12.7002 28.5992C12.6002 29.4992 12.6002 30.3992 12.6002 31.2992C12.5002 32.6992 12.5002 34.0992 12.4002 35.4992C12.3002 37.6992 12.2002 39.9992 12.0002 42.1992C11.8002 43.0992 11.8002 43.8992 12.0002 44.6992Z" fill="black"/>
<path d="M39.6998 15.0992C39.4998 15.1992 39.3998 15.2992 39.1998 15.2992C38.5998 15.2992 37.8998 15.4992 37.2998 15.2992C35.9998 15.0992 34.6998 15.0992 33.2998 15.1992C31.7998 15.2992 30.3998 15.4992 28.8998 15.2992C28.0998 15.2992 27.2998 15.3992 26.4998 15.3992C24.8998 15.3992 23.3998 15.3992 21.8998 15.3992C21.4998 15.3992 21.0998 15.3992 20.6998 15.4992C18.7998 15.5992 16.7998 15.6992 14.7998 15.7992C14.5998 15.7992 14.3998 15.7992 14.0998 15.6992C13.8998 15.6992 13.8998 15.4992 13.7998 15.3992C13.8998 15.2992 13.9998 15.1992 14.0998 15.1992C14.1998 15.1992 14.2998 15.1992 14.4998 15.1992C16.6998 15.0992 18.8998 14.8992 21.1998 14.8992C22.5998 14.7992 23.9998 14.8992 25.4998 14.8992C26.2998 14.8992 27.1998 14.8992 27.9998 14.8992C28.5998 14.8992 29.1998 14.7992 29.7998 14.7992C31.4998 14.8992 33.1998 14.6992 34.8998 14.6992C36.3998 14.6992 37.9998 14.7992 39.4998 14.9992C39.4998 14.8992 39.4998 14.9992 39.6998 15.0992Z" fill="black"/>
<path d="M40.7994 14.1992C40.7994 14.4992 40.7994 14.6992 40.7994 14.8992C40.5994 15.9992 40.4994 17.0992 40.4994 18.2992C40.4994 18.7992 40.3994 19.2992 40.1994 19.7992C39.8994 20.7992 39.8994 21.7992 39.7994 22.7992C39.6994 25.4992 39.5994 28.2992 39.3994 30.9992C39.1994 34.1992 38.8994 37.2992 38.9994 40.3992C38.9994 41.7992 38.8994 43.2992 38.7994 44.6992C38.7994 44.9992 38.6994 45.2992 38.6994 45.5992C38.5994 45.6992 38.3994 45.6992 38.3994 45.7992C38.4994 44.2992 38.5994 42.8992 38.5994 41.3992C38.6994 38.0992 38.7994 34.7992 39.0994 31.5992C39.2994 28.5992 39.3994 25.4992 39.4994 22.4992C39.5994 21.4992 39.7994 20.5992 39.8994 19.5992C39.9994 18.8992 40.0994 18.2992 40.0994 17.5992C40.0994 16.4992 40.2994 15.4992 40.4994 14.4992C40.4994 14.3992 40.6994 14.3992 40.7994 14.1992Z" fill="black"/>
<path d="M32.8994 34.6989C32.1994 34.6989 31.6994 34.9989 31.2994 35.3989C31.0994 35.5989 30.8994 35.7989 31.0994 35.9989C31.1994 36.1989 31.4994 36.2989 31.6994 36.3989C31.9994 36.4989 32.3994 36.4989 32.6994 36.3989C32.0994 36.8989 30.8994 36.7989 30.5994 36.1989C30.4994 35.9989 30.4994 35.6989 30.5994 35.4989C30.9994 34.9989 31.4994 34.5989 31.9994 34.1989C32.3994 34.0989 32.5994 34.1989 32.8994 34.6989Z" fill="black"/>
<path d="M17.8998 21.9991C18.1998 21.7991 18.4998 21.6991 18.6998 21.4991C18.9998 21.2991 19.0998 20.9991 19.1998 20.5991C19.1998 19.9991 18.7998 19.6991 18.1998 19.9991C17.8998 20.0991 17.6998 20.1991 17.2998 20.3991C17.5998 19.4991 18.5998 19.2991 19.0998 19.7991C19.3998 20.1991 19.4998 20.6991 19.3998 21.2991C19.2998 21.7991 18.7998 22.0991 17.8998 21.9991Z" fill="black"/>
<path d="M31.5996 21.3981C30.5996 21.1981 30.1996 20.7981 30.0996 19.9981C30.0996 19.5981 30.4996 18.9981 30.7996 18.8981C31.0996 18.7981 31.3996 18.8981 31.7996 19.3981C31.6996 19.3981 31.5996 19.3981 31.5996 19.3981C31.1996 19.1981 30.8996 19.3981 30.6996 19.6981C30.4996 19.9981 30.5996 20.3981 30.8996 20.6981C30.9996 20.7981 31.1996 20.9981 31.3996 21.0981C31.5996 21.1981 31.6996 21.1981 31.8996 21.2981C31.6996 21.2981 31.5996 21.3981 31.5996 21.3981Z" fill="black"/>
<path d="M14.9999 37.8984C14.4999 38.3984 14.3999 38.7984 14.6999 39.2984C15.0999 39.8984 15.6999 39.8984 16.2999 39.8984C16.2999 39.9984 16.2999 39.9984 16.2999 40.0984C15.6999 40.4984 15.1999 40.1984 14.6999 39.8984C14.1999 39.5984 14.0999 38.9984 14.1999 38.4984C14.1999 37.8984 14.2999 37.8984 14.9999 37.8984Z" fill="black"/>
<path d="M24.4998 36.5981C25.2998 35.9981 25.2998 35.9981 24.9998 35.0981C24.7998 35.0981 24.5998 35.0981 24.2998 35.0981C24.2998 34.8981 24.2998 34.6981 24.3998 34.6981C24.4998 34.5981 24.7998 34.4981 24.8998 34.5981C25.3998 34.6981 25.6998 35.2981 25.6998 35.8981C25.5998 36.3981 25.2998 36.5981 24.4998 36.5981Z" fill="black"/>
<path d="M28.7 27.9984C29 27.7984 29.3 27.8984 29.4 28.2984C29.6 28.5984 29.2 28.9984 28.8 29.1984C28.5 29.2984 28 29.0984 28 28.7984C28 28.2984 28.2 28.1984 28.7 27.9984Z" fill="black"/>
<path d="M17.5 31.5996C17.7 31.4996 17.8 31.1996 18 31.1996C18.3 31.0996 18.5 31.1996 18.6 31.4996C18.7 31.7996 18.5 31.9996 18.2 31.9996C17.9 32.0996 17.7 31.9996 17.5 31.5996Z" fill="black"/>
<path d="M22.3994 23.4987C22.6994 23.3987 22.7994 23.1987 23.0994 23.2987C23.1994 23.2987 23.3994 23.3987 23.4994 23.4987C23.5994 23.5987 23.4994 23.8987 23.3994 23.9987C22.9994 24.2987 22.6994 24.0987 22.3994 23.4987Z" fill="black"/>
<path d="M35.8994 43.198C36.5994 42.798 37.1994 42.398 37.8994 41.998C37.3994 42.798 36.4994 43.298 35.8994 43.198Z" fill="black"/>
<path d="M36 42.2984C36.7 41.7984 37.1 40.9984 38.1 40.8984C37.7 41.0984 37.4 41.3984 37 41.6984C36.7 41.8984 36.3 42.1984 36 42.4984C36.2 42.4984 36.1 42.3984 36 42.2984Z" fill="black"/>
<path d="M15.2998 26.5992C15.4998 26.2992 15.4998 26.0992 15.6998 25.8992C15.8998 25.6992 16.0998 25.8992 16.1998 26.0992C16.1998 26.1992 16.0998 26.4992 16.0998 26.4992C15.8998 26.5992 15.5998 26.6992 15.3998 26.6992L15.2998 26.5992Z" fill="black"/>
<path d="M25.2995 18.6988C24.5995 18.5988 24.3995 18.2988 24.6995 17.9988C24.7995 17.8988 24.8995 17.7988 24.9995 17.7988C25.0995 17.8988 25.2995 17.9988 25.2995 17.9988C25.3995 18.3988 25.3995 18.4988 25.2995 18.6988Z" fill="black"/>
<path d="M35.8002 23.8996C36.1002 23.7996 36.6002 23.9996 36.6002 24.1996C36.6002 24.2996 36.5002 24.4996 36.4002 24.5996C36.2002 24.6996 35.7002 24.4996 35.7002 24.2996C35.7002 24.1996 35.8002 24.0996 35.8002 23.8996Z" fill="black"/>
<path d="M34.2002 41.7987C34.3002 41.6987 34.3002 41.4987 34.4002 41.4987C34.7002 41.3987 34.9002 41.5987 34.9002 41.8987C34.9002 41.9987 34.8002 42.1987 34.7002 42.2987C34.5002 42.2987 34.3002 42.0987 34.2002 41.7987Z" fill="black"/>
<path d="M24.3 41.4987C24.1 41.6987 24 41.9987 23.9 41.9987C23.8 41.9987 23.6 41.8987 23.6 41.7987C23.5 41.4987 23.6 41.3987 23.9 41.2987C23.9 41.1987 24 41.3987 24.3 41.4987Z" fill="black"/>
<path d="M19.2998 19.6992L17.9998 31.1992L17.2998 41.1992L31.6998 41.6992L33.3998 32.6992L34.4998 21.1992L30.5998 19.6992H19.2998Z" fill="white"/>
<path d="M17.7003 38.6979C18.1003 38.3979 18.5003 38.1979 18.8003 37.9979C18.6003 38.5979 17.9003 38.8979 17.7003 39.5979C18.2003 39.3979 18.7003 39.1979 19.1003 38.9979C19.1003 39.0979 19.1003 39.0979 19.1003 39.0979C18.6003 39.3979 18.1003 39.7979 17.5003 40.2979C17.9003 40.3979 18.1003 40.4979 18.3003 40.4979C18.9003 40.5979 19.4003 40.4979 20.0003 40.5979C23.0003 40.6979 26.1003 40.8979 29.1003 40.9979C30.0003 40.9979 30.9003 40.9979 31.9003 40.9979C32.0003 40.6979 32.1003 40.4979 32.1003 40.0979C32.3003 38.1979 32.6003 36.3979 32.8003 34.3979C33.0003 32.6979 33.1003 30.9979 33.2003 29.2979C33.2003 28.9979 33.3003 28.6979 33.3003 28.2979C33.5003 26.3979 33.7003 24.5979 33.9003 22.6979C34.0003 21.9979 34.0003 21.0979 34.1003 19.9979C33.5003 19.8979 32.9003 19.6979 32.3003 19.5979C31.9003 19.5979 31.4003 19.4979 30.9003 19.5979C28.8003 19.6979 26.7003 19.4979 24.6003 19.1979C22.8003 18.9979 21.0003 18.8979 19.2003 19.1979C18.9003 19.2979 18.7003 19.1979 18.5003 18.8979C18.6003 18.7979 18.8003 18.6979 18.9003 18.5979C20.4003 18.4979 21.8003 18.3979 23.3003 18.5979C25.2003 18.7979 27.0003 18.9979 28.9003 19.0979C30.0003 19.0979 31.1003 19.0979 32.1003 18.9979C32.9003 18.9979 33.7003 19.1979 34.5003 19.5979C34.5003 19.9979 34.4003 20.4979 34.4003 20.8979C34.3003 22.0979 34.3003 23.3979 34.1003 24.5979C34.0003 25.6979 33.8003 26.7979 33.7003 27.9979C33.6003 28.4979 33.5003 28.9979 33.5003 29.4979C33.6003 30.4979 33.4003 31.3979 33.2003 32.3979C33.1003 32.6979 33.1003 32.9979 33.1003 33.3979C32.9003 34.7979 32.8003 36.1979 32.7003 37.5979C32.6003 38.5979 32.4003 39.7979 32.3003 40.7979C32.2003 41.4979 32.1003 41.4979 31.5003 41.4979C29.6003 41.3979 27.8003 41.3979 25.9003 41.2979C24.8003 41.2979 23.7003 41.1979 22.6003 41.1979C21.6003 41.0979 20.7003 41.0979 19.8003 41.0979C18.9003 41.0979 18.0003 40.9979 17.2003 40.8979C17.2003 40.6979 17.0003 40.4979 17.1003 40.3979C17.1003 38.8979 17.2003 37.4979 17.3003 36.0979C17.4003 34.2979 17.5003 32.3979 17.6003 30.4979C17.7003 28.9979 17.8003 27.4979 18.0003 26.0979C18.1003 24.7979 18.4003 23.4979 18.6003 22.2979C18.7003 21.6979 18.7003 21.0979 18.7003 20.4979C18.7003 20.2979 18.8003 20.2979 18.8003 20.0979C19.2003 20.0979 19.3003 20.4979 19.2003 20.6979C19.1003 21.2979 19.1003 21.8979 19.0003 22.4979C18.6003 24.3979 18.4003 26.3979 18.3003 28.3979C18.1003 31.5979 17.9003 34.7979 17.7003 37.9979C17.7003 38.1979 17.8003 38.3979 17.7003 38.6979Z" fill="black"/>
<path d="M21 21.2988L21.1 28.7988L30.4 29.7988L30.7 26.9988L30 21.7988L21 21.2988Z" fill="#EB584A"/>
<path d="M29.9997 21.7987C26.8997 21.1987 23.7997 21.7987 20.5997 22.0987C20.5997 21.9987 20.3997 21.7987 20.4997 21.5987C20.5997 21.3987 20.7997 21.2987 20.8997 21.2987C22.4997 21.4987 24.0997 21.1987 25.7997 20.9987C26.8997 20.8987 27.8997 21.0987 28.9997 21.0987C29.3997 21.0987 29.6997 21.1987 29.9997 21.0987C30.3997 21.0987 30.4997 21.2987 30.4997 21.6987C30.4997 22.2987 30.4997 22.9987 30.4997 23.5987C30.4997 24.6987 30.5997 25.7987 30.5997 26.7987C30.5997 27.6987 30.3997 28.5987 30.2997 29.5987C28.6997 29.4987 27.1997 29.2987 25.5997 29.0987C24.0997 28.8987 22.4997 28.6987 20.9997 28.5987C20.7997 26.7987 20.4997 24.9987 20.6997 22.9987C20.6997 22.7987 20.7997 22.5987 20.8997 22.3987C20.9997 22.3987 21.0997 22.3987 21.0997 22.3987C21.0997 22.5987 21.1997 22.8987 21.1997 22.9987C20.9997 24.0987 21.1997 25.2987 21.2997 26.2987C21.2997 26.7987 21.3997 27.2987 21.4997 27.7987C24.1997 28.3987 27.0997 28.3987 29.7997 28.8987C30.3997 27.8987 30.3997 24.1987 29.9997 21.7987Z" fill="black"/>
<path d="M28.9002 35.8992C28.8002 35.9992 28.8002 35.9992 28.9002 36.0992C28.8002 36.0992 28.8002 36.1992 28.8002 36.1992C28.7002 36.1992 28.7002 36.1992 28.6002 36.1992C26.0002 35.7992 23.5002 35.0992 20.8002 34.9992C20.8002 34.9992 20.7002 34.8992 20.7002 34.7992C20.9002 34.7992 21.0002 34.6992 21.3002 34.6992C22.6002 34.6992 23.9002 34.8992 25.2002 35.0992C26.4002 35.2992 27.7002 35.4992 28.9002 35.6992C28.8002 35.7992 28.8002 35.8992 28.9002 35.8992Z" fill="black"/>
<path d="M27.9 39.398C26.9 38.998 26 39.098 25.1 38.998C23.7 38.998 22.3 38.898 20.9 38.898C20.7 38.898 20.7 38.798 20.5 38.698C20.6 38.698 20.8 38.598 20.9 38.498C23 38.598 25.1 38.598 27.2 38.798C27.5 38.898 27.8 38.898 27.9 39.398Z" fill="black"/>
<path d="M26.1998 33.6991C26.0998 33.6991 25.9998 33.7991 25.8998 33.7991C24.1998 33.4991 22.4998 33.1991 20.7998 32.7991C20.7998 32.6991 20.7998 32.6991 20.7998 32.5991C20.8998 32.5991 21.0998 32.4991 21.2998 32.5991C22.3998 32.7991 23.2998 32.9991 24.3998 33.1991C24.8998 33.2991 25.3998 33.3991 25.8998 33.4991C25.9998 33.5991 26.0998 33.5991 26.1998 33.5991V33.6991Z" fill="black"/>
<path d="M25.2996 23.1986C25.4996 23.2986 25.4996 23.4986 25.4996 23.6986C25.6996 23.6986 25.7996 23.8986 25.7996 23.8986C25.8996 23.5986 25.8996 23.3986 25.6996 22.9986C25.4996 22.9986 25.3996 22.8986 25.2996 22.6986C25.2996 22.5986 25.2996 22.3986 25.3996 22.2986C25.1996 22.2986 24.9996 22.2986 24.7996 22.5986C24.7996 22.7986 24.7996 22.8986 24.7996 22.9986C24.8996 23.1986 25.0996 23.1986 25.2996 23.1986ZM25.3996 22.6986C25.3996 22.7986 25.4996 22.9986 25.6996 22.9986H25.7996V23.0986C25.9996 23.4986 25.8996 23.8986 25.7996 24.0986C25.8996 24.1986 25.8996 24.2986 25.9996 24.2986C26.0996 24.0986 26.2996 23.5986 26.0996 22.8986C26.1996 22.7986 26.2996 22.5986 26.1996 22.3986C25.9996 22.0986 25.5996 21.9986 25.3996 22.3986C25.3996 22.3986 25.3996 22.5986 25.3996 22.6986ZM26.2996 22.8986C26.3996 23.4986 26.2996 24.0986 26.1996 24.2986C26.1996 24.2986 26.1996 24.3986 26.2996 24.5986C26.6996 23.8986 26.4996 23.1986 26.4996 23.1986C26.6996 23.1986 26.8996 22.9986 26.8996 22.7986C26.8996 22.4986 26.5996 22.2986 26.3996 22.3986C26.3996 22.3986 26.3996 22.3986 26.3996 22.4986C26.4996 22.5986 26.3996 22.7986 26.2996 22.8986ZM24.8996 23.2986C25.1996 23.8986 25.0996 24.3986 24.7996 24.8986C24.8996 24.8986 24.9996 24.8986 24.9996 24.8986H25.0996H25.1996C25.2996 24.7986 25.3996 24.5986 25.3996 24.3986V24.2986C25.3996 24.1986 25.3996 24.1986 25.3996 24.0986C25.3996 23.8986 25.3996 23.8986 25.2996 23.7986C25.3996 23.7986 25.4996 23.7986 25.4996 23.7986C25.4996 23.6986 25.3996 23.4986 25.3996 23.3986C25.3996 23.3986 25.3996 23.3986 25.2996 23.3986C25.0996 23.3986 24.8996 23.2986 24.8996 23.0986C24.7996 22.9986 24.7996 22.7986 24.8996 22.6986C24.6996 22.6986 24.4996 22.8986 24.5996 23.0986C24.3996 23.1986 24.5996 23.2986 24.8996 23.2986ZM24.8996 23.7986C24.7996 23.6986 24.6996 23.7986 24.6996 23.7986C24.7996 23.8986 24.7996 24.0986 24.7996 24.1986L24.8996 24.2986C24.8996 23.9986 24.9996 23.8986 24.8996 23.7986ZM25.3996 24.8986C25.4996 24.7986 25.5996 24.6986 25.5996 24.5986C25.5996 24.4986 25.4996 24.3986 25.3996 24.3986C25.3996 24.5986 25.1996 24.7986 25.1996 24.9986C25.2996 24.7986 25.2996 24.7986 25.3996 24.8986ZM24.8996 25.1986C24.7996 25.1986 24.7996 25.1986 24.8996 25.1986C24.7996 25.2986 24.7996 25.2986 24.8996 25.1986C24.8996 25.2986 24.8996 25.2986 24.8996 25.1986C24.8996 25.2986 24.8996 25.1986 24.8996 25.1986ZM26.9996 27.7986C26.2996 27.9986 25.6996 27.6986 25.4996 27.2986C25.7996 27.6986 26.4996 27.7986 26.9996 27.7986C26.9996 27.4986 27.7996 25.7986 26.1996 24.9986C26.1996 25.0986 26.0996 25.0986 26.1996 25.1986C26.3996 25.2986 26.5996 25.4986 26.6996 25.8986C26.5996 25.3986 26.1996 25.1986 25.9996 25.0986C26.3996 25.0986 26.0996 24.2986 26.0996 24.2986C25.8996 24.1986 25.7996 23.7986 25.3996 23.6986C25.4996 23.7986 25.3996 23.9986 25.3996 24.0986C25.4996 24.1986 25.6996 24.3986 25.6996 24.3986C25.6996 24.5986 25.5996 24.6986 25.3996 24.7986C25.5996 24.8986 25.6996 24.8986 25.7996 25.0986C25.5996 25.0986 25.4996 25.2986 25.4996 25.2986C25.4996 25.2986 25.4996 25.0986 25.6996 25.0986C25.4996 24.9986 25.3996 24.8986 25.0996 24.8986C24.8996 24.8986 24.7996 24.9986 24.5996 24.8986C24.4996 25.0986 23.7996 25.5986 22.9996 25.6986C22.8996 25.6986 22.5996 25.6986 22.5996 25.6986V25.7986C22.5996 25.7986 22.7996 25.7986 22.8996 25.6986C22.8996 25.7986 22.7996 25.8986 22.6996 25.7986C22.8996 26.1986 24.0996 26.3986 24.7996 25.8986C24.7996 26.0986 24.5996 26.1986 24.3996 26.1986C24.4996 26.1986 24.5996 26.1986 24.6996 26.2986C24.7996 26.3986 24.8996 26.2986 24.8996 26.2986C24.8996 26.1986 24.8996 26.0986 25.0996 26.0986C25.2996 26.0986 25.3996 26.2986 25.7996 26.2986C26.1996 26.2986 26.3996 25.9986 26.2996 25.4986C26.3996 26.0986 26.0996 26.3986 25.7996 26.2986C25.8996 26.5986 25.6996 26.8986 25.5996 27.0986C25.4996 27.0986 25.2996 27.1986 25.2996 27.2986C25.4996 27.6986 26.2996 28.1986 27.2996 27.8986C27.0996 27.8986 27.0996 27.7986 26.9996 27.7986ZM25.1996 25.3986C25.1996 25.2986 25.1996 25.2986 25.1996 25.3986C25.0996 25.2986 25.0996 25.2986 25.1996 25.3986L24.9996 25.2986V25.3986C24.9996 25.4986 24.9996 25.5986 24.8996 25.4986C24.7996 25.3986 24.6996 25.4986 24.6996 25.3986C24.6996 25.2986 24.6996 25.1986 24.6996 25.1986C24.6996 25.1986 24.6996 25.1986 24.5996 25.1986C24.5996 25.1986 24.5996 25.1986 24.4996 25.1986H24.5996C24.5996 25.1986 24.6996 25.1986 24.6996 25.2986L24.7996 25.3986C24.7996 25.3986 24.7996 25.3986 24.7996 25.4986C25.1996 25.2986 25.1996 25.2986 25.1996 25.3986C25.1996 25.2986 25.1996 25.2986 25.1996 25.3986C25.1996 25.2986 25.1996 25.2986 25.1996 25.3986C25.1996 25.2986 25.1996 25.3986 25.1996 25.3986Z" fill="white"/>
<path d="M3.5998 24.7984L1.2998 54.1984L26.5998 54.3984L27.2998 37.7984L28.2998 24.3984L3.5998 24.7984Z" fill="white"/>
<path d="M16.3002 51.3984C16.0002 51.0984 15.7002 50.8984 15.3002 50.5984C12.5002 49.0984 9.50024 48.0984 7.10024 45.9984C5.80024 44.7984 4.50024 43.2984 2.70024 42.8984C2.40024 44.2984 2.80024 46.4984 2.60024 47.8984C2.80024 48.9984 2.40024 49.3984 2.60024 50.3984C2.80024 51.0984 2.00024 52.6984 2.50024 53.1984C3.50024 54.3984 6.40024 53.2984 8.00024 53.2984C9.40024 53.1984 10.6002 53.5984 12.0002 53.4984C13.0002 53.8984 14.6002 53.8984 15.6002 53.5984C16.8002 53.4984 17.0002 52.2984 16.3002 51.3984Z" fill="#BCBCBB"/>
<path d="M26.9 36.1977C26.8 33.4977 27.7 30.7977 28 28.0977L27.5 26.2977C27.4 25.8977 27.4 25.5977 27.1 25.2977C26.6 24.5977 25.6 24.5977 24.8 24.5977C24.6 24.5977 24.3 24.5977 24.1 24.7977C23.7 24.9977 23.6 25.4977 23.5 26.0977C23 30.8977 22.4 35.7977 23.7 40.3977C24.9 40.2977 25.7 39.0977 26.2 37.9977C26.5 37.5977 26.7 37.0977 26.9 36.5977C27 36.4977 26.9 36.2977 26.9 36.1977Z" fill="#BCBCBB"/>
<path d="M3.2998 52.0984C3.3998 52.0984 3.5998 52.1984 3.6998 52.0984C5.8998 51.9984 7.9998 52.1984 10.1998 52.3984C12.4998 52.4984 14.7998 52.6984 17.1998 52.5984C18.4998 52.4984 19.7998 52.5984 21.0998 52.6984C22.2998 52.6984 23.3998 52.6984 24.5998 52.6984C24.7998 52.6984 24.9998 52.6984 25.1998 52.6984C24.8998 52.9984 24.5998 52.9984 24.3998 52.9984C22.7998 52.9984 21.2998 52.9984 19.7998 52.9984C18.2998 52.9984 16.7998 53.0984 15.2998 52.9984C13.3998 52.7984 11.4998 52.6984 9.5998 52.5984C7.7998 52.4984 5.9998 52.4984 4.0998 52.3984C3.8998 52.3984 3.5998 52.4984 3.3998 52.4984C3.2998 52.6984 3.1998 52.9984 2.9998 53.2984C3.3998 53.2984 3.6998 53.3984 3.9998 53.3984C4.9998 53.3984 6.0998 53.4984 6.9998 53.3984C8.5998 53.2984 10.2998 53.3984 11.8998 53.3984C13.4998 53.3984 15.1998 53.5984 16.7998 53.5984C18.0998 53.6984 19.3998 53.6984 20.6998 53.6984C22.1998 53.6984 23.6998 53.6984 25.0998 53.7984C25.2998 53.7984 25.4998 53.7984 25.7998 53.8984C25.7998 54.1984 25.5998 54.1984 25.2998 54.1984C23.6998 54.1984 21.9998 54.0984 20.3998 54.0984C18.6998 53.9984 16.9998 53.9984 15.2998 53.9984C13.7998 53.9984 12.2998 53.9984 10.7998 53.7984C8.8998 53.5984 7.0998 53.8984 5.1998 53.8984C4.2998 53.8984 3.3998 53.7984 2.3998 53.7984C2.3998 53.1984 2.2998 52.5984 2.2998 51.9984C2.2998 50.4984 2.3998 48.9984 2.4998 47.4984C2.4998 46.9984 2.4998 46.5984 2.5998 45.9984C2.5998 43.9984 2.7998 41.8984 2.9998 39.6984C3.1998 37.1984 3.4998 34.6984 3.6998 32.2984C3.7998 31.0984 3.7998 29.8984 3.7998 28.6984C3.8998 27.5984 3.8998 26.5984 3.8998 25.5984C4.2998 25.1984 4.6998 24.9984 5.1998 24.9984C6.7998 24.9984 8.4998 24.8984 10.0998 24.8984C11.8998 24.8984 13.6998 24.8984 15.3998 24.9984C15.6998 24.9984 15.9998 24.9984 16.2998 24.9984C17.1998 24.8984 18.0998 24.8984 18.9998 24.8984C20.6998 24.8984 22.3998 25.0984 24.0998 25.0984C25.0998 24.9984 26.1998 24.9984 27.2998 24.9984C27.3998 24.9984 27.4998 24.9984 27.5998 24.9984C27.6998 24.9984 27.7998 25.0984 27.7998 25.2984C27.7998 25.3984 27.6998 25.4984 27.5998 25.4984C27.4998 25.4984 27.3998 25.5984 27.1998 25.4984C24.8998 25.5984 22.5998 25.4984 20.2998 25.3984C18.9998 25.2984 17.5998 25.3984 16.2998 25.3984C14.3998 25.3984 12.5998 25.2984 10.7998 25.3984C9.0998 25.3984 7.3998 25.4984 5.6998 25.4984C5.3998 25.4984 4.9998 25.5984 4.5998 25.5984C4.4998 27.0984 4.5998 28.6984 4.5998 30.4984C4.9998 30.1984 5.2998 29.9984 5.6998 29.5984C5.3998 30.2984 4.4998 30.5984 4.6998 31.4984C5.1998 31.0984 5.5998 30.7984 5.9998 30.4984C5.9998 30.4984 5.9998 30.5984 6.0998 30.4984C5.7998 30.7984 5.4998 31.0984 5.1998 31.3984C4.7998 31.6984 4.5998 32.1984 4.5998 32.6984C4.3998 34.5984 4.1998 36.4984 3.9998 38.3984C3.8998 39.1984 3.8998 39.9984 3.8998 40.6984C3.7998 41.8984 3.7998 43.0984 3.6998 44.2984C3.5998 46.1984 3.4998 48.0984 3.3998 49.9984C3.0998 50.7984 3.0998 51.4984 3.2998 52.0984Z" fill="black"/>
<path d="M27 26.6976C26.8 26.7976 26.7 26.8976 26.6 26.8976C26 26.8976 25.5 26.9976 25 26.8976C23.8 26.6976 22.7 26.7976 21.6 26.8976C20.3 26.9976 19.1 27.0976 17.8 26.9976C17.1 26.9976 16.4 27.0976 15.8 27.0976C14.4 27.0976 13.1 27.0976 11.8 27.0976C11.5 27.0976 11.1 27.0976 10.8 27.1976C9.1 27.2976 7.4 27.3976 5.8 27.4976C5.6 27.4976 5.4 27.4976 5.2 27.4976C5.1 27.4976 5 27.2976 5 27.1976C5 26.9976 5 26.8976 5.1 26.8976C5.2 26.8976 5.3 26.8976 5.4 26.8976C7.3 26.7976 9.2 26.6976 11.1 26.5976C12.3 26.5976 13.5 26.5976 14.8 26.5976C15.5 26.5976 16.2 26.5976 16.9 26.5976C17.4 26.5976 17.9 26.4976 18.4 26.4976C19.9 26.5976 21.3 26.3976 22.7 26.4976C24 26.4976 25.3 26.5976 26.7 26.6976C26.8 26.5976 26.8 26.6976 27 26.6976Z" fill="black"/>
<path d="M27.9994 25.998C27.9994 26.198 27.9994 26.398 27.9994 26.598C27.7994 27.598 27.7994 28.498 27.7994 29.498C27.7994 29.898 27.6994 30.398 27.5994 30.798C27.2994 31.698 27.2994 32.498 27.2994 33.398C27.1994 35.698 27.0994 38.098 26.8994 40.498C26.6994 43.198 26.4994 45.898 26.4994 48.598C26.4994 49.798 26.3994 50.998 26.2994 52.298C26.2994 52.498 26.1994 52.798 26.1994 53.098C26.1994 53.198 25.9994 53.198 25.8994 53.198C25.9994 51.898 25.9994 50.698 26.0994 49.398C26.1994 46.598 26.2994 43.798 26.4994 40.998C26.6994 38.398 26.6994 35.798 26.8994 33.198C26.9994 32.398 27.0994 31.498 27.1994 30.698C27.1994 30.098 27.3994 29.498 27.3994 28.998C27.3994 28.098 27.4994 27.198 27.7994 26.398C27.6994 26.198 27.7994 26.198 27.9994 25.998Z" fill="black"/>
<path d="M21.2 43.5981C20.6 43.5981 20.2 43.7981 19.8 44.1981C19.7 44.3981 19.4 44.4981 19.6 44.6981C19.7 44.8981 19.9 44.9981 20.1 44.9981C20.4 45.0981 20.7 44.9981 21 44.9981C20.5 45.3981 19.5 45.3981 19.2 44.8981C19.1 44.6981 19.1 44.3981 19.2 44.2981C19.5 43.8981 20 43.4981 20.4 43.1981C20.8 42.9981 20.9 43.0981 21.2 43.5981Z" fill="black"/>
<path d="M8.2998 32.6975C8.5998 32.4975 8.7998 32.4975 8.8998 32.2975C9.1998 32.0975 9.2998 31.7975 9.2998 31.4975C9.2998 30.9975 8.9998 30.7975 8.4998 30.8975C8.2998 30.9975 7.9998 31.0975 7.7998 31.1975C8.0998 30.4975 8.8998 30.1975 9.3998 30.6975C9.6998 31.0975 9.7998 31.4975 9.5998 31.8975C9.4998 32.4975 8.9998 32.7975 8.2998 32.6975Z" fill="black"/>
<path d="M20.0998 32.199C19.2998 31.999 18.8998 31.699 18.7998 30.999C18.7998 30.599 19.0998 30.199 19.3998 29.999C19.6998 29.899 19.8998 29.999 20.1998 30.399C20.0998 30.399 19.9998 30.399 19.9998 30.399C19.5998 30.199 19.3998 30.399 19.1998 30.699C18.9998 30.899 19.0998 31.299 19.2998 31.499C19.3998 31.599 19.4998 31.799 19.6998 31.799C19.8998 31.799 19.9998 31.899 20.0998 31.999C20.0998 32.099 20.0998 32.099 20.0998 32.199Z" fill="black"/>
<path d="M5.79995 46.3993C5.39995 46.7993 5.29995 47.0993 5.49995 47.5993C5.79995 48.0993 6.29995 48.1993 6.89995 48.0993C6.89995 48.1993 6.89995 48.1993 6.89995 48.1993C6.39995 48.4993 5.89995 48.2993 5.49995 47.9993C5.09995 47.6993 4.89995 47.2993 5.09995 46.7993C5.09995 46.3993 5.19995 46.2993 5.79995 46.3993Z" fill="black"/>
<path d="M13.9998 45.198C14.6998 44.698 14.6998 44.698 14.3998 43.898C14.1998 43.898 13.9998 43.898 13.7998 43.898C13.7998 43.798 13.7998 43.598 13.8998 43.598C13.9998 43.498 14.1998 43.498 14.3998 43.498C14.7998 43.598 15.0998 44.098 14.9998 44.698C14.8998 45.098 14.6998 45.198 13.9998 45.198Z" fill="black"/>
<path d="M17.6 37.7981C17.9 37.6981 18.1 37.6981 18.2 37.9981C18.3 38.2981 18 38.5981 17.7 38.6981C17.4 38.7981 17.1 38.5981 17 38.3981C17 38.0981 17.1 37.9981 17.6 37.7981Z" fill="black"/>
<path d="M8 40.898C8.2 40.798 8.2 40.598 8.4 40.598C8.6 40.498 8.8 40.598 8.9 40.898C9 41.098 8.8 41.298 8.6 41.398C8.3 41.398 8.1 41.298 8 40.898Z" fill="black"/>
<path d="M12.2002 33.9988C12.4002 33.8988 12.6002 33.7988 12.8002 33.7988C12.9002 33.7988 13.1002 33.8988 13.2002 33.9988C13.3002 33.9988 13.2002 34.2988 13.1002 34.3988C12.7002 34.5988 12.4002 34.4988 12.2002 33.9988Z" fill="black"/>
<path d="M23.7998 50.8984C24.3998 50.5984 24.8998 50.1984 25.4998 49.8984C24.9998 50.4984 24.2998 50.9984 23.7998 50.8984Z" fill="black"/>
<path d="M23.8994 50.0984C24.4994 49.6984 24.8994 48.9984 25.6994 48.8984C25.3994 49.0984 25.0994 49.2984 24.7994 49.5984C24.4994 49.7984 24.1994 49.9984 23.9994 50.2984C23.9994 50.1984 23.9994 50.1984 23.8994 50.0984Z" fill="black"/>
<path d="M6 36.5977C6.1 36.3977 6.2 36.1977 6.4 35.9977C6.5 35.7977 6.8 35.9977 6.9 36.0977C6.9 36.1977 6.9 36.3977 6.8 36.3977C6.6 36.4977 6.4 36.5977 6.2 36.5977C6.1 36.6977 6.1 36.6977 6 36.5977Z" fill="black"/>
<path d="M14.6994 29.8977C14.0994 29.7977 13.8994 29.5977 14.1994 29.2977C14.1994 29.1977 14.3994 29.0977 14.4994 29.1977C14.5994 29.1977 14.6994 29.2977 14.6994 29.3977C14.6994 29.5977 14.6994 29.6977 14.6994 29.8977Z" fill="black"/>
<path d="M23.6996 34.2981C23.9996 34.1981 24.2996 34.3981 24.3996 34.5981C24.3996 34.6981 24.2996 34.8981 24.1996 34.9981C23.9996 35.0981 23.5996 34.9981 23.5996 34.6981C23.5996 34.4981 23.6996 34.3981 23.6996 34.2981Z" fill="black"/>
<path d="M22.2998 49.6977C22.2998 49.5977 22.3998 49.3977 22.4998 49.3977C22.6998 49.2977 22.8998 49.4977 22.9998 49.6977C22.9998 49.7977 22.8998 49.9977 22.7998 50.0977C22.5998 50.0977 22.2998 49.8977 22.2998 49.6977Z" fill="black"/>
<path d="M13.8 49.3992C13.6 49.5992 13.5 49.7992 13.4 49.7992C13.3 49.7992 13.1 49.6992 13.1 49.5992C13 49.3992 13.1 49.1992 13.4 49.1992C13.5 49.1992 13.5 49.2992 13.8 49.3992Z" fill="black"/>
<path d="M9.4998 30.7977L8.3998 40.5977L7.7998 49.0977L20.1998 49.5977L21.6998 41.7977L22.5998 31.8977L19.1998 30.5977L9.4998 30.7977Z" fill="white"/>
<path d="M8.1998 47.0987C8.5998 46.7987 8.7998 46.6987 9.1998 46.4987C8.9998 46.9987 8.3998 47.1987 8.1998 47.8987C8.6998 47.6987 9.0998 47.5987 9.3998 47.3987C9.3998 47.4987 9.3998 47.4987 9.3998 47.4987C8.9998 47.7987 8.5998 48.0987 7.9998 48.4987C8.2998 48.5987 8.4998 48.6987 8.6998 48.6987C9.1998 48.7987 9.5998 48.6987 10.1998 48.7987C12.7998 48.8987 15.3998 48.9987 17.9998 49.1987C18.6998 49.1987 19.5998 49.1987 20.3998 49.1987C20.4998 48.8987 20.4998 48.6987 20.5998 48.4987C20.7998 46.8987 20.9998 45.2987 21.1998 43.5987C21.2998 42.0987 21.3998 40.6987 21.4998 39.1987C21.4998 38.9987 21.5998 38.6987 21.5998 38.3987C21.7998 36.7987 21.9998 35.1987 22.0998 33.5987C22.1998 32.7987 22.1998 31.9987 22.2998 31.0987C21.7998 30.9987 21.1998 30.8987 20.7998 30.7987C20.3998 30.7987 19.9998 30.6987 19.5998 30.7987C17.7998 30.8987 15.9998 30.6987 14.1998 30.4987C12.6998 30.2987 11.1998 30.1987 9.5998 30.4987C9.3998 30.5987 9.1998 30.4987 8.9998 30.1987C8.9998 29.9987 9.1998 29.8987 9.2998 29.8987C10.5998 29.7987 11.7998 29.6987 13.0998 29.8987C14.6998 30.0987 16.2998 30.2987 17.8998 30.2987C18.7998 30.2987 19.7998 30.2987 20.6998 30.2987C21.3998 30.2987 21.9998 30.4987 22.6998 30.7987C22.6998 31.1987 22.5998 31.5987 22.5998 31.8987C22.4998 32.9987 22.4998 33.9987 22.3998 35.0987C22.2998 36.0987 22.1998 36.9987 21.9998 37.9987C21.8998 38.4987 21.7998 38.7987 21.8998 39.2987C21.9998 40.1987 21.8998 40.8987 21.6998 41.7987C21.5998 42.0987 21.5998 42.2987 21.5998 42.5987C21.4998 43.7987 21.3998 44.9987 21.1998 46.1987C21.0998 46.9987 20.9998 47.9987 20.8998 48.8987C20.7998 49.4987 20.6998 49.4987 20.1998 49.4987C18.5998 49.4987 16.9998 49.3987 15.3998 49.2987C14.4998 49.2987 13.4998 49.2987 12.5998 49.1987C11.7998 49.0987 10.9998 49.1987 10.1998 49.0987C9.4998 49.0987 8.6998 48.9987 7.8998 48.9987C7.8998 48.7987 7.7998 48.6987 7.7998 48.4987C7.7998 47.2987 7.8998 45.9987 7.9998 44.7987C7.9998 43.1987 8.0998 41.5987 8.1998 39.9987C8.2998 38.6987 8.3998 37.4987 8.4998 36.1987C8.5998 35.0987 8.7998 33.9987 8.9998 32.8987C9.0998 32.3987 9.0998 31.7987 9.0998 31.2987C9.0998 31.1987 9.1998 31.0987 9.1998 30.9987C9.5998 30.9987 9.5998 31.2987 9.4998 31.4987C9.3998 31.9987 9.3998 32.4987 9.2998 32.9987C8.8998 34.5987 8.7998 36.3987 8.6998 38.0987C8.4998 40.7987 8.2998 43.5987 8.1998 46.2987C8.1998 46.5987 8.1998 46.6987 8.1998 47.0987Z" fill="black"/>
<path d="M11 32.0977L11.1 38.5977L19.1 39.3977L19.3 36.9977L18.7 32.4977L11 32.0977Z" fill="#EB584A"/>
<path d="M18.6996 32.4975C15.9996 31.9975 13.3996 32.4975 10.6996 32.6975C10.6996 32.5975 10.5996 32.3975 10.5996 32.2975C10.5996 32.1975 10.8996 32.0975 10.9996 32.0975C12.3996 32.2975 13.7996 31.9975 15.1996 31.7975C16.0996 31.6975 16.9996 31.8975 17.9996 31.8975C18.2996 31.8975 18.5996 31.8975 18.8996 31.8975C19.1996 31.8975 19.2996 32.0975 19.2996 32.3975C19.2996 32.9975 19.2996 33.4975 19.2996 34.0975C19.2996 34.9975 19.3996 35.8975 19.2996 36.8975C19.2996 37.5975 19.1996 38.3975 19.0996 39.2975C17.6996 39.1975 16.3996 38.9975 15.0996 38.8975C13.7996 38.7975 12.4996 38.5975 11.0996 38.4975C10.9996 36.8975 10.6996 35.3975 10.7996 33.6975C10.7996 33.4975 10.8996 33.3975 10.9996 33.1975C11.0996 33.1975 11.0996 33.1975 11.0996 33.1975C11.0996 33.3975 11.1996 33.5975 11.1996 33.6975C10.9996 34.6975 11.1996 35.5975 11.2996 36.4975C11.2996 36.8975 11.3996 37.3975 11.4996 37.7975C13.8996 38.2975 16.2996 38.2975 18.5996 38.6975C18.9996 37.6975 18.9996 34.5975 18.6996 32.4975Z" fill="black"/>
<path d="M17.6996 44.598C17.6996 44.698 17.6996 44.698 17.6996 44.698C17.5996 44.698 17.6996 44.798 17.5996 44.798C17.4996 44.798 17.4996 44.798 17.3996 44.798C15.0996 44.498 12.9996 43.898 10.6996 43.798C10.6996 43.798 10.5996 43.798 10.5996 43.598C10.7996 43.598 10.8996 43.498 11.0996 43.498C12.1996 43.498 13.2996 43.698 14.3996 43.898C15.3996 44.098 16.4996 44.298 17.5996 44.398C17.5996 44.498 17.5996 44.598 17.6996 44.598Z" fill="black"/>
<path d="M16.9 47.5984C16.1 47.1984 15.3 47.3984 14.5 47.2984C13.3 47.2984 12.1 47.1984 10.9 47.1984C10.8 47.1984 10.7 47.0984 10.5 46.9984C10.6 46.9984 10.7 46.8984 10.8 46.8984C12.6 46.9984 14.4 46.9984 16.2 47.1984C16.6 47.1984 16.8 47.1984 16.9 47.5984Z" fill="black"/>
<path d="M15.4994 42.798C15.3994 42.798 15.2994 42.898 15.2994 42.898C13.8994 42.598 12.3994 42.398 10.8994 41.998C10.8994 41.898 10.8994 41.898 10.8994 41.898C10.9994 41.898 11.1994 41.798 11.2994 41.898C12.1994 42.098 13.0994 42.198 13.9994 42.398C14.4994 42.498 14.7994 42.598 15.2994 42.598C15.3994 42.598 15.3994 42.698 15.5994 42.698C15.3994 42.598 15.3994 42.698 15.4994 42.798Z" fill="black"/>
<path d="M14.5994 33.7984C14.6994 33.6984 14.6994 33.6984 14.5994 33.7984C14.6994 33.8984 14.7994 34.0984 14.7994 34.2984C14.8994 34.2984 14.9994 34.3984 15.0994 34.4984C15.1994 34.1984 15.1994 33.9984 14.9994 33.6984C14.8994 33.6984 14.6994 33.5984 14.6994 33.3984C14.6994 33.2984 14.6994 33.1984 14.6994 33.0984C14.5994 33.0984 14.2994 33.0984 14.1994 33.2984C14.1994 33.3984 14.1994 33.4984 14.1994 33.6984C14.2994 33.6984 14.4994 33.6984 14.5994 33.7984ZM14.6994 33.2984C14.6994 33.3984 14.7994 33.4984 14.8994 33.5984H14.9994V33.6984C15.0994 33.9984 15.0994 34.3984 14.9994 34.5984C15.0994 34.5984 15.0994 34.7984 15.1994 34.6984C15.2994 34.5984 15.3994 34.0984 15.2994 33.4984C15.3994 33.3984 15.4994 33.1984 15.3994 32.9984C15.2994 32.6984 14.8994 32.6984 14.6994 32.9984C14.6994 32.9984 14.6994 33.1984 14.6994 33.2984ZM15.4994 33.4984C15.5994 33.9984 15.4994 34.4984 15.3994 34.6984C15.3994 34.6984 15.3994 34.7984 15.4994 34.8984C15.7994 34.2984 15.6994 33.6984 15.6994 33.6984C15.8994 33.6984 15.9994 33.5984 16.0994 33.3984C16.0994 33.1984 15.8994 32.9984 15.5994 32.9984C15.5994 32.9984 15.5994 32.9984 15.5994 33.0984C15.6994 33.1984 15.5994 33.2984 15.4994 33.4984ZM14.2994 33.7984C14.4994 34.2984 14.4994 34.7984 14.1994 35.0984C14.2994 35.0984 14.2994 35.0984 14.3994 35.0984C14.4994 35.0984 14.4994 35.0984 14.4994 35.0984H14.5994C14.5994 34.9984 14.7994 34.7984 14.7994 34.6984V34.5984C14.7994 34.4984 14.7994 34.4984 14.7994 34.3984C14.7994 34.2984 14.7994 34.1984 14.6994 34.1984C14.7994 34.1984 14.7994 34.1984 14.7994 34.1984C14.7994 34.0984 14.6994 33.9984 14.6994 33.7984C14.6994 33.7984 14.6994 33.7984 14.5994 33.7984C14.3994 33.7984 14.2994 33.6984 14.1994 33.5984C14.0994 33.4984 14.0994 33.3984 14.1994 33.1984C13.9994 33.1984 13.8994 33.2984 13.8994 33.4984C13.8994 33.6984 14.0994 33.7984 14.2994 33.7984ZM14.2994 34.1984C14.1994 34.1984 14.1994 34.1984 14.0994 34.1984C14.1994 34.1984 14.1994 34.3984 14.1994 34.5984H14.2994C14.2994 34.3984 14.3994 34.2984 14.2994 34.1984ZM14.6994 35.1984C14.7994 35.0984 14.8994 34.9984 14.8994 34.8984C14.8994 34.7984 14.7994 34.6984 14.6994 34.6984C14.6994 34.8984 14.4994 35.0984 14.4994 35.1984C14.5994 35.0984 14.6994 35.0984 14.6994 35.1984ZM14.2994 35.4984C14.1994 35.3984 14.1994 35.3984 14.2994 35.4984C14.1994 35.4984 14.1994 35.4984 14.2994 35.4984C14.2994 35.4984 14.2994 35.3984 14.2994 35.4984C14.2994 35.3984 14.2994 35.3984 14.2994 35.4984ZM16.0994 37.5984C15.4994 37.6984 14.9994 37.4984 14.7994 37.1984C15.0994 37.5984 15.6994 37.6984 16.0994 37.5984C16.0994 37.3984 16.7994 35.8984 15.3994 35.1984C15.3994 35.2984 15.3994 35.2984 15.3994 35.2984C15.4994 35.3984 15.7994 35.4984 15.8994 35.8984C15.7994 35.4984 15.4994 35.2984 15.2994 35.1984C15.5994 35.1984 15.3994 34.4984 15.3994 34.4984C15.1994 34.3984 15.0994 34.0984 14.7994 33.9984C14.8994 33.9984 14.7994 34.1984 14.7994 34.3984C14.8994 34.4984 14.9994 34.6984 14.9994 34.6984C14.9994 34.7984 14.8994 34.9984 14.7994 35.0984C14.8994 35.1984 15.0994 35.1984 15.1994 35.2984C14.9994 35.2984 14.8994 35.3984 14.8994 35.3984C14.8994 35.3984 14.8994 35.2984 15.0994 35.1984C14.9994 35.0984 14.7994 34.9984 14.5994 34.9984C14.4994 34.9984 14.2994 35.0984 14.1994 34.9984C14.0994 35.0984 13.4994 35.5984 12.7994 35.5984C12.6994 35.5984 12.3994 35.5984 12.3994 35.5984V35.6984C12.3994 35.6984 12.4994 35.6984 12.5994 35.5984C12.5994 35.6984 12.4994 35.6984 12.3994 35.6984C12.5994 35.9984 13.5994 36.1984 14.1994 35.7984C14.1994 35.8984 13.9994 35.9984 13.7994 36.0984C13.8994 36.0984 13.9994 36.0984 14.0994 36.1984C14.1994 36.1984 14.1994 36.1984 14.2994 36.1984C14.2994 36.0984 14.2994 36.0984 14.3994 35.9984C14.4994 35.9984 14.6994 36.1984 14.9994 36.1984C15.2994 36.1984 15.4994 35.9984 15.4994 35.4984C15.5994 35.9984 15.2994 36.1984 15.0994 36.1984C15.1994 36.3984 14.9994 36.6984 14.8994 36.8984C14.7994 36.8984 14.6994 36.9984 14.5994 37.0984C14.7994 37.3984 15.4994 37.8984 16.2994 37.5984C16.1994 37.7984 16.1994 37.6984 16.0994 37.5984ZM14.4994 35.5984C14.4994 35.4984 14.4994 35.4984 14.4994 35.5984C14.4994 35.4984 14.4994 35.4984 14.4994 35.5984L14.3994 35.4984V35.5984C14.3994 35.6984 14.3994 35.6984 14.2994 35.6984C14.1994 35.6984 14.1994 35.6984 14.1994 35.5984C14.1994 35.4984 14.1994 35.4984 14.1994 35.4984C14.1994 35.4984 14.1994 35.4984 14.0994 35.4984C14.0994 35.4984 14.0994 35.4984 13.9994 35.4984H14.0994H14.1994H14.2994C14.2994 35.4984 14.2994 35.4984 14.2994 35.5984C14.4994 35.4984 14.4994 35.4984 14.4994 35.5984C14.4994 35.4984 14.4994 35.4984 14.4994 35.5984C14.5994 35.5984 14.5994 35.5984 14.4994 35.5984C14.5994 35.5984 14.4994 35.5984 14.4994 35.5984Z" fill="white"/>
</svg>
