<svg width="70" height="57" viewBox="0 0 70 57" fill="none" xmlns="http://www.w3.org/2000/svg">
<g clip-path="url(#clip0_10476_6403)">
<path d="M63.8003 30.3999C63.5003 32.7999 63.0003 35.3999 62.7003 37.9999C62.2003 41.2999 60.4003 43.8999 58.4003 46.1999C55.9003 48.9999 53.1003 51.3999 49.7003 53.0999C44.7003 55.5999 39.4003 56.5999 33.9003 56.7999C26.5003 57.0999 19.8003 54.8999 13.9003 50.0999C9.60028 46.6999 7.40028 42.1999 5.20028 37.4999C4.90028 36.6999 4.60028 35.6999 4.70028 34.8999C4.90028 31.6999 4.90028 28.2999 5.90028 25.2999C7.30028 21.3999 8.40028 17.4999 10.7003 13.9999C13.2003 10.0999 16.0003 6.99992 19.8003 4.49992C23.0003 2.19992 26.5003 0.799916 30.5003 0.499916C31.1003 0.499916 31.7003 0.399916 32.3003 0.399916C41.6003 -1.20008 49.1003 2.59992 55.7003 8.59992C59.7003 12.0999 61.4003 16.9999 62.6003 21.8999C63.3003 24.2999 63.4003 27.2999 63.8003 30.3999ZM61.7003 30.0999C61.9003 22.7999 59.9003 16.2999 55.0003 10.5999C50.6003 5.49992 44.8003 2.39992 38.2003 1.89992C31.8003 1.29992 25.9003 3.29992 21.0003 7.29992C15.1003 12.0999 11.0003 18.2999 8.40028 25.1999C7.20028 28.2999 6.70028 32.0999 7.30028 35.2999C8.80028 43.6999 14.1003 49.4999 21.8003 52.6999C30.4003 56.1999 39.3003 55.6999 47.7003 51.6999C56.7003 47.3999 62.1003 40.6999 61.7003 30.0999Z" fill="#EB584A"/>
<path d="M59.6998 7.19987C58.8998 6.19987 57.5998 4.99987 56.0998 4.79987C54.7998 4.59987 53.4998 4.19987 52.4998 3.49987C51.5998 4.69987 50.7998 6.09987 50.0998 7.49987C49.4998 8.69987 48.8998 9.89987 47.9998 10.8999C47.0998 11.8999 45.6998 12.5999 44.3998 12.2999C44.4998 9.39987 44.2998 6.49987 43.6998 3.69987C43.4998 2.89987 44.4998 1.19987 43.7998 0.799869C43.2998 0.499869 39.6998 0.399869 39.1998 0.399869C33.7998 0.299869 30.1998 0.899869 24.6998 0.999869C24.0998 0.999869 22.9998 0.699869 22.5998 1.19987C22.2998 1.59987 22.4998 2.59987 22.4998 2.99987C22.4998 5.09987 22.3998 7.49987 22.2998 9.59987C22.2998 10.0999 22.1998 10.5999 21.7998 10.8999C21.5998 11.0999 21.2998 11.0999 20.9998 11.1999C16.9998 11.8999 12.6998 9.49987 10.9998 5.79987C10.6998 5.09987 10.3998 4.29987 10.2998 3.49987C9.9998 3.59987 9.7998 3.69987 9.4998 3.69987C6.6998 4.19987 4.1998 4.79987 1.9998 6.69987C1.6998 6.89987 1.4998 7.09987 1.2998 7.29987C1.5998 7.99987 1.8998 8.59987 2.1998 9.19987C4.3998 13.4999 7.39981 17.3999 9.0998 21.9999C9.7998 23.7999 10.3998 25.6999 11.6998 27.0999C13.3998 28.7999 15.8998 29.2999 18.2998 29.9999C20.5998 30.5999 23.1998 31.6999 24.0998 33.9999C24.7998 35.7999 24.2998 37.7999 24.2998 39.7999C24.3998 42.6999 26.0998 45.4999 28.5998 46.8999L31.1998 49.0999C34.0998 49.8999 37.1998 49.9999 40.1998 49.4999C42.6998 49.0999 45.3998 47.9999 46.5998 45.7999C47.4998 44.1999 47.3998 42.1999 47.2998 40.2999C47.1998 38.8999 47.0998 37.4999 46.3998 36.3999C45.4998 34.9999 43.4998 33.6999 44.0998 32.0999C44.4998 31.1999 45.4998 30.8999 46.2998 30.4999C50.4998 28.8999 54.3998 25.3999 54.8998 20.8999C55.0998 19.1999 54.6998 17.3999 55.3998 15.7999C56.2998 13.4999 58.9998 12.3999 60.8998 10.7999C61.0998 10.5999 61.2998 10.3999 61.4998 10.1999C61.0998 9.19987 60.3998 8.19987 59.6998 7.19987Z" fill="white"/>
<path d="M25.5008 33.4C27.5008 33.2 29.4008 33.2 31.4008 33.4C31.7008 33.4 32.0008 33.4 32.2008 33.6C32.5008 33.7 32.7008 34 32.9008 34.2C34.1008 35.6 35.3008 36.9 36.4008 38.3C36.6008 38.5 36.8008 38.8 37.0008 39.1C37.4008 40 37.0008 41.1 36.3008 41.7C35.6008 42.4 34.6008 42.6 33.6008 42.7C31.5008 42.9 25.2008 42.3 24.1008 40.2C23.7008 39.5 24.8008 33.4 25.5008 33.4Z" fill="#BCBCBB"/>
<path d="M21.9004 18.2003C21.6004 17.3003 21.6004 16.3003 21.7004 15.3003C21.8004 13.0003 21.9004 10.8003 22.0004 8.50026C22.0004 8.00026 22.3004 7.30026 22.8004 7.40026C23.1004 7.50026 23.2004 7.70026 23.3004 7.90026C24.9004 11.2003 28.6004 16.6003 28.6004 20.4003C28.5004 25.1003 22.6004 20.3003 21.9004 18.2003Z" fill="#BCBCBB"/>
<path d="M43.8008 31.7004C46.4008 31.6004 48.7008 29.9004 50.5008 28.0004C51.5008 27.0004 52.4008 25.9004 52.9008 24.6004C53.4008 23.3004 53.5008 21.8004 53.6008 20.3004C53.7008 18.8004 53.8008 17.3004 53.9008 15.8004C52.6008 15.2004 51.0008 15.9004 50.1008 17.0004C49.2008 18.1004 48.7008 19.5004 48.0008 20.8004C46.5008 23.7004 43.7008 25.8004 40.6008 26.7004C34.7008 28.5004 40.3008 31.8004 43.8008 31.7004Z" fill="#BCBCBB"/>
<path d="M43.4002 15.6C42.5002 14.7 41.7002 13.6 41.2002 12.4C40.7002 11.3 40.5002 10.2 40.2002 9.10003C39.7002 6.80003 39.2002 4.50003 38.6002 2.20003C38.5002 1.70003 38.4002 1.10003 38.8002 0.900031C39.0002 0.800031 39.2002 0.800031 39.4002 0.800031C40.3002 0.800031 43.0002 0.100031 43.7002 0.700031C44.7002 1.40003 44.0002 4.20003 44.0002 5.20003C43.9002 6.70003 42.4002 14.7 43.4002 15.6Z" fill="#BCBCBB"/>
<path d="M37.9002 26.1988L37.2002 19.4988L28.7002 19.2988V21.8988L29.7002 26.4988L37.9002 26.1988Z" fill="#F15748"/>
<path d="M29.7006 26.4992C32.6006 26.7992 35.3006 25.9992 38.1006 25.3992C38.1006 25.4992 38.3006 25.6992 38.2006 25.7992C38.2006 25.8992 37.9006 26.0992 37.8006 26.0992C36.3006 26.0992 34.9006 26.4992 33.4006 26.7992C32.4006 26.9992 31.5006 26.8992 30.5006 26.9992C30.2006 26.9992 29.9006 26.9992 29.6006 27.0992C29.3006 27.0992 29.2006 26.9992 29.1006 26.5992C29.0006 25.9992 28.9006 25.3992 28.9006 24.7992C28.8006 23.7992 28.7006 22.7992 28.6006 21.7992C28.6006 20.9992 28.6006 20.1992 28.6006 19.1992C30.1006 19.1992 31.5006 19.1992 32.9006 19.2992C34.3006 19.2992 35.7006 19.2992 37.1006 19.3992C37.4006 21.0992 37.9006 22.6992 37.9006 24.3992C37.9006 24.5992 37.8006 24.7992 37.8006 24.9992C37.7006 24.9992 37.7006 24.9992 37.6006 24.9992C37.5006 24.7992 37.4006 24.5992 37.5006 24.3992C37.6006 23.2992 37.4006 22.3992 37.2006 21.3992C37.1006 20.9992 37.0006 20.4992 36.9006 19.9992C34.4006 19.6992 31.8006 19.9992 29.3006 19.7992C28.9006 21.0992 29.2006 24.3992 29.7006 26.4992Z" fill="black"/>
<path d="M29.501 13.698C29.501 13.598 29.501 13.598 29.501 13.598L29.601 13.498C29.701 13.498 29.701 13.498 29.801 13.498C32.201 13.598 34.501 14.098 36.901 13.898L37.001 13.998C36.801 13.998 36.701 14.098 36.501 14.098C35.301 14.298 34.101 14.098 33.001 13.998C31.901 13.898 30.701 13.798 29.601 13.698C29.701 13.698 29.601 13.698 29.501 13.698Z" fill="black"/>
<path d="M30.1006 10.4984C31.0006 10.7984 31.8006 10.5984 32.6006 10.5984C33.8006 10.4984 35.1006 10.3984 36.3006 10.3984C36.4006 10.3984 36.5006 10.3984 36.7006 10.5984C36.6006 10.6984 36.5006 10.7984 36.4006 10.7984C34.5006 10.8984 32.6006 10.9984 30.7006 11.0984C30.4006 10.8984 30.2006 10.8984 30.1006 10.4984Z" fill="black"/>
<path d="M32.1006 15.3988C32.2006 15.3988 32.3006 15.2988 32.3006 15.2988C33.9006 15.3988 35.4006 15.5988 37.0006 15.6988C37.0006 15.7988 37.0006 15.7988 37.0006 15.7988C36.9006 15.7988 36.7006 15.8988 36.6006 15.8988C35.7006 15.7988 34.7006 15.7988 33.8006 15.6988C33.3006 15.6988 32.9006 15.5988 32.4006 15.4988C32.3006 15.4988 32.2006 15.3988 32.1006 15.3988C32.1006 15.4988 32.1006 15.4988 32.1006 15.3988Z" fill="black"/>
<path d="M33.9002 24.798C33.9002 24.798 33.8002 24.798 33.9002 24.798C33.7002 24.698 33.7002 24.498 33.7002 24.298C33.6002 24.298 33.5002 24.198 33.4002 24.098C33.4002 24.398 33.4002 24.598 33.5002 24.898C33.7002 24.898 33.8002 24.998 33.9002 25.198C34.0002 25.298 33.9002 25.498 33.9002 25.598C34.1002 25.598 34.3002 25.598 34.4002 25.298C34.4002 25.198 34.4002 24.998 34.3002 24.898C34.2002 24.898 34.0002 24.798 33.9002 24.798ZM33.8002 25.298C33.7002 25.198 33.6002 25.098 33.5002 25.098C33.3002 24.798 33.3002 24.398 33.4002 24.198C33.3002 24.098 33.3002 24.098 33.2002 23.998C33.1002 24.198 33.0002 24.598 33.2002 25.198C33.1002 25.298 33.0002 25.498 33.1002 25.698C33.3002 25.998 33.7002 25.998 33.8002 25.698C33.8002 25.498 33.8002 25.398 33.8002 25.298ZM33.0002 25.198C32.8002 24.598 32.9002 24.098 33.0002 23.898C33.0002 23.898 33.0002 23.798 32.9002 23.598C32.6002 24.298 32.8002 24.898 32.8002 24.898C32.6002 24.898 32.4002 25.098 32.4002 25.298C32.4002 25.598 32.7002 25.798 32.9002 25.598C32.9002 25.498 32.9002 25.298 33.0002 25.198ZM34.3002 24.798C34.0002 24.298 34.1002 23.798 34.3002 23.398C34.2002 23.398 34.2002 23.398 34.1002 23.398H34.0002C33.9002 23.498 33.9002 23.698 33.8002 23.898V23.998C33.8002 24.098 33.8002 24.098 33.8002 24.198C33.8002 24.298 33.9002 24.398 33.9002 24.398C33.8002 24.398 33.8002 24.398 33.8002 24.398C33.8002 24.498 33.9002 24.698 33.9002 24.798C34.1002 24.798 34.2002 24.898 34.3002 24.998C34.4002 25.098 34.4002 25.298 34.4002 25.398C34.6002 25.398 34.7002 25.198 34.7002 24.998C34.7002 24.798 34.5002 24.698 34.3002 24.798ZM34.2002 24.298C34.3002 24.298 34.3002 24.298 34.4002 24.298C34.3002 24.198 34.3002 24.098 34.3002 23.998C34.3002 23.998 34.3002 23.998 34.2002 23.998C34.1002 24.098 34.1002 24.198 34.2002 24.298ZM33.6002 23.298C33.5002 23.398 33.4002 23.498 33.4002 23.598C33.4002 23.698 33.5002 23.798 33.6002 23.798C33.6002 23.598 33.7002 23.398 33.8002 23.298C33.8002 23.398 33.7002 23.398 33.6002 23.298ZM34.1002 22.998C34.1002 22.898 34.1002 22.898 34.1002 22.998C34.0002 22.898 34.0002 22.898 34.1002 22.998C34.0002 22.998 34.0002 22.998 34.1002 22.998C34.0002 22.998 34.0002 22.998 34.1002 22.998ZM31.9002 20.898C32.5002 20.698 33.0002 20.898 33.3002 21.198C33.0002 20.898 32.4002 20.798 31.9002 20.898C31.9002 21.198 31.3002 22.798 32.9002 23.298C32.9002 23.198 32.9002 23.198 32.9002 23.198C32.7002 23.098 32.5002 22.998 32.4002 22.598C32.6002 22.998 32.9002 23.198 33.1002 23.198C32.8002 23.198 33.1002 23.898 33.1002 23.898C33.3002 23.998 33.4002 24.298 33.8002 24.298C33.7002 24.198 33.8002 24.098 33.7002 23.998C33.6002 23.898 33.4002 23.698 33.4002 23.698C33.4002 23.598 33.5002 23.398 33.6002 23.298C33.4002 23.298 33.3002 23.198 33.2002 23.098C33.4002 23.098 33.5002 22.898 33.5002 22.898C33.5002 22.898 33.5002 23.098 33.3002 23.098C33.5002 23.198 33.6002 23.198 33.8002 23.298C33.9002 23.298 34.1002 23.198 34.2002 23.298C34.3002 23.098 34.8002 22.598 35.6002 22.498C35.7002 22.498 36.0002 22.398 36.0002 22.398V22.298C36.0002 22.298 35.9002 22.298 35.8002 22.398C35.8002 22.398 35.9002 22.298 36.0002 22.298C35.8002 21.998 34.6002 21.898 34.2002 22.398C34.2002 22.298 34.4002 22.098 34.5002 22.098C34.4002 22.098 34.3002 22.098 34.2002 22.098C34.1002 22.098 34.0002 22.098 34.0002 22.098C34.0002 22.198 34.0002 22.298 33.8002 22.298C33.6002 22.298 33.5002 22.098 33.2002 22.198C32.9002 22.198 32.7002 22.498 32.8002 22.898C32.7002 22.298 33.0002 21.998 33.2002 21.998C33.1002 21.798 33.2002 21.398 33.4002 21.298C33.5002 21.298 33.6002 21.198 33.7002 21.098C33.4002 20.698 32.7002 20.398 31.8002 20.698L31.9002 20.898ZM33.8002 22.898C33.8002 22.898 33.8002 22.998 33.8002 22.898C33.8002 22.998 33.8002 22.998 33.8002 22.898C33.9002 22.998 33.9002 22.998 33.8002 22.898C33.9002 22.998 33.9002 22.998 33.9002 22.998C33.9002 22.998 33.9002 22.998 34.0002 22.998C34.0002 22.998 34.0002 22.998 34.0002 22.898C34.0002 22.798 34.0002 22.798 34.1002 22.798C34.2002 22.798 34.2002 22.798 34.2002 22.898V22.998C34.2002 22.998 34.2002 22.998 34.1002 22.998H34.0002H33.9002C33.9002 22.998 33.9002 22.998 33.8002 22.898C33.8002 22.998 33.8002 22.998 33.8002 22.898C33.8002 22.998 33.8002 22.998 33.8002 22.898C33.8002 22.998 33.8002 22.998 33.8002 22.898C33.7002 22.898 33.7002 22.898 33.8002 22.898Z" fill="white"/>
<path d="M20.9004 40.9992L17.9004 51.8992L19.7004 53.3992L25.1004 56.0992L37.3004 56.5992L43.8004 55.8992L52.7004 52.3992L49.7004 40.1992L43.0004 41.5992L37.1004 42.4992L27.8004 42.1992L20.9004 40.9992Z" fill="#F15748"/>
<path d="M60.9002 9.09925C60.6002 9.39925 60.3002 9.79925 60.1002 10.0993C59.3002 10.9993 58.6002 11.9993 57.8002 12.8993C57.3002 13.4993 56.7002 14.0993 56.2002 14.6993C56.0002 14.8993 55.9002 15.0993 55.9002 15.3993C55.9002 15.5993 56.1002 15.6993 56.2002 15.6993C56.0002 16.5993 55.8002 17.3993 55.6002 18.1993C55.1002 19.9993 54.5002 21.7993 54.0002 23.5993C53.7002 24.4993 52.7002 25.6993 51.8002 25.9993C51.7002 25.0993 51.6002 24.2993 51.6002 23.3993C51.5002 23.3993 51.5002 23.3993 51.4002 23.3993C51.4002 23.5993 51.4002 23.6993 51.4002 23.8993C51.5002 24.5993 51.5002 25.2993 51.6002 25.9993C51.6002 26.2993 51.6002 26.6993 51.1002 26.7993C51.0002 25.5993 50.9002 24.3993 50.8002 23.1993C50.3002 24.4993 50.8002 25.7993 50.8002 27.0993C50.4002 27.3993 50.1002 27.6993 49.7002 28.0993C48.8002 27.0993 47.8002 26.0993 46.9002 25.0993C46.7002 24.8993 46.5002 24.5993 46.1002 24.9993C47.1002 26.2993 48.3002 27.2993 49.5002 28.3993C48.8002 29.0993 48.2002 29.6993 47.3002 30.0993C44.5002 31.1993 41.7002 31.2993 38.9002 29.7993C38.6002 29.5993 38.1002 29.4993 38.3002 28.8993C38.3002 28.7993 38.2002 28.6993 38.1002 28.5993C37.5002 28.0993 37.7002 27.5993 37.8002 26.9993C37.9002 26.6993 38.1002 26.3993 38.0002 26.1993C37.8002 25.4993 38.2002 24.9993 38.5002 24.3993C38.7002 23.9993 39.0002 23.6993 39.2002 23.2993C39.3002 23.2993 39.4002 23.2993 39.4002 23.1993C40.5002 22.3993 41.6002 21.6993 42.6002 20.7993C43.4002 20.1993 44.2002 19.4993 44.6002 18.6993C45.2002 17.5993 45.5002 16.2993 45.5002 14.8993C45.5002 14.7993 45.3002 14.6993 45.1002 14.5993C45.0002 15.1993 44.8002 15.5993 44.7002 16.2993C44.3002 13.5993 44.2002 10.9993 44.2002 8.49925C44.2002 6.19925 43.9002 3.89925 44.2002 1.49925C44.2002 1.19925 44.1002 0.999251 43.7002 1.09925C43.6002 1.49925 43.6002 1.89925 43.5002 2.29925C42.9002 2.29925 42.4002 2.39925 41.8002 2.39925C41.8002 1.79925 41.7002 1.39925 41.7002 0.799251C41.0002 1.19925 41.7002 1.89925 41.3002 2.49925C41.3002 1.69925 41.4002 1.19925 41.4002 0.599251C42.0002 0.599251 42.5002 0.699251 43.1002 0.699251C43.6002 0.699251 44.1002 1.09925 44.7002 0.499251C44.4002 0.399251 44.1002 0.299251 43.9002 0.299251C43.4002 0.299251 42.9002 0.199251 42.4002 0.199251C40.0002 -0.000748634 37.6002 -0.100749 35.3002 0.0992514C33.6002 0.199251 31.8002 0.299251 30.1002 0.399251C29.3002 0.399251 28.4002 0.599251 27.6002 0.599251C27.0002 0.699251 26.3002 0.799251 25.7002 0.799251C24.6002 0.799251 23.4002 0.599251 22.3002 0.499251C22.2002 0.799251 22.1002 1.09925 22.1002 1.39925C22.1002 2.69925 22.0002 3.79925 22.0002 4.99925C22.0002 6.39925 22.0002 7.79925 22.0002 9.29925C22.0002 10.1993 22.1002 11.0993 21.8002 12.0993C21.5002 12.0993 21.2002 12.0993 20.9002 11.9993C20.0002 11.6993 19.0002 11.5993 18.1002 11.1993C16.0002 10.0993 13.7002 9.29925 11.8002 7.79925C11.3002 7.39925 10.9002 6.99925 10.8002 6.39925C10.5002 5.49925 10.2002 4.59925 9.9002 3.59925C9.80019 3.59925 9.6002 3.69925 9.5002 3.69925H9.4002C9.7002 4.69925 10.0002 5.69925 10.4002 6.69925C10.6002 7.19925 10.9002 7.59925 11.1002 8.09925C11.1002 8.19925 11.2002 8.29925 11.2002 8.29925C12.0002 8.19925 12.4002 8.99925 13.0002 9.19925C14.7002 9.99925 16.3002 10.7993 17.9002 11.5993C18.1002 11.6993 18.3002 11.6993 18.5002 11.7993C19.5002 12.0993 20.6002 12.3993 21.6002 12.5993C21.9002 15.2993 21.9002 18.2993 21.6002 18.8993C21.3002 18.4993 21.0002 17.9993 20.8002 17.5993C20.5002 17.0993 20.2002 16.6993 19.9002 16.1993C19.8002 16.0993 19.5002 16.0993 19.3002 15.9993C19.3002 16.1993 19.2002 16.3993 19.3002 16.5993C20.0002 17.9993 20.9002 19.2993 21.9002 20.4993C22.5002 21.1993 23.1002 21.7993 24.0002 22.1993C24.2002 22.2993 24.5002 22.3993 24.5002 22.2993C24.8002 21.7993 25.1002 22.1993 25.4002 22.2993C26.4002 22.6993 27.3002 23.0993 28.3002 23.5993C28.5002 23.6993 28.7002 23.8993 28.8002 24.0993C29.3002 25.4993 29.5002 26.8993 28.6002 28.2993C28.5002 28.4993 28.3002 28.6993 28.2002 28.8993C27.0002 30.4993 25.6002 31.3993 23.5002 31.1993C21.3002 30.9993 19.3002 30.1993 17.4002 29.3993C16.8002 29.0993 16.3002 28.6993 15.7002 28.2993C17.1002 27.0993 18.5002 25.9993 19.8002 24.8993C18.0002 25.5993 16.6002 26.8993 15.2002 28.0993C14.1002 27.1993 12.8002 26.3993 12.1002 25.0993C12.3002 24.7993 12.5002 24.4993 12.7002 24.2993C12.9002 24.0993 13.1002 23.8993 13.4002 23.6993C13.6002 23.4993 13.9002 23.2993 14.1002 23.0993C14.3002 22.8993 14.5002 22.7993 14.7002 22.5993C13.5002 22.9993 12.6002 23.7993 11.7002 24.6993C11.5002 24.4993 11.4002 24.2993 11.2002 24.0993C11.5002 23.6993 11.8002 23.3993 12.1002 22.9993C12.4002 22.6993 12.7002 22.3993 13.1002 22.0993C13.4002 21.7993 13.7002 21.5993 14.1002 21.2993L14.0002 21.1993C12.8002 21.7993 12.0002 22.8993 11.0002 23.7993C10.6002 23.1993 10.4002 22.5993 10.0002 22.1993C9.1002 21.1993 8.5002 19.8993 7.8002 18.7993C7.3002 17.9993 7.0002 17.1993 6.60019 16.3993C6.20019 15.4993 5.3002 14.6993 5.4002 13.5993C5.4002 13.4993 5.3002 13.4993 5.2002 13.3993C4.2002 11.6993 3.2002 9.99925 2.5002 8.19925C2.3002 7.69925 2.1002 7.19925 1.9002 6.79925C1.6002 6.99925 1.4002 7.19925 1.2002 7.39925C1.7002 8.59925 2.3002 9.79925 2.8002 10.9993C3.4002 12.2993 3.9002 13.5993 4.5002 14.8993C5.6002 16.9993 6.8002 19.0993 8.1002 21.1993C8.9002 22.5993 10.0002 23.7993 10.8002 25.1993C11.6002 26.3993 12.5002 27.4993 13.8002 28.2993C15.3002 29.1993 16.7002 30.0993 18.3002 30.7993C20.1002 31.5993 21.9002 31.9993 23.9002 32.1993C24.2002 32.1993 24.5002 32.1992 24.8002 32.0993C25.2002 31.8993 25.6002 31.6993 26.0002 31.4993C26.9002 31.0993 27.6002 30.5993 28.2002 29.7993C28.4002 29.5993 28.6002 29.2993 28.7002 29.1993C31.4002 29.7993 34.0002 29.1993 36.7002 29.1993C36.9002 29.5993 37.0002 29.9993 37.3002 30.2993C37.6002 30.5993 37.9002 30.9993 38.2002 31.0993C39.6002 31.5993 41.0002 31.7993 42.5002 31.8993C43.8002 31.8993 43.8002 31.8993 43.6002 33.1993C43.6002 33.2993 43.6002 33.2993 43.6002 33.3993C43.5002 33.9993 43.3002 34.0993 42.7002 34.0993C42.3002 34.0993 41.8002 34.0993 41.4002 34.0993C39.1002 34.2993 36.9002 34.2993 34.6002 33.8993C33.8002 33.6993 32.9002 33.6993 32.1002 33.6993C31.0002 33.6993 29.8002 33.6993 28.7002 33.6993C27.1002 33.5993 25.5002 33.4993 24.1002 34.1993C23.8002 33.6993 24.0002 32.9993 23.6002 32.5993C23.1002 33.4993 23.7002 34.1993 23.7002 34.9993C23.9002 34.9993 24.0002 34.9993 24.1002 34.8993C25.2002 34.2993 26.3002 34.1993 27.5002 34.1993C28.2002 34.1993 28.9002 34.1993 29.6002 34.1993C31.0002 34.1993 32.3002 34.0993 33.7002 34.3993C35.6002 34.6993 37.5002 34.9993 39.4002 34.7993C40.6002 34.6993 41.8002 34.6993 43.0002 34.6993C43.2002 34.6993 43.5002 34.6993 43.7002 34.7993C44.9002 35.4993 45.9002 36.3993 46.6002 37.5993C47.1002 38.4993 47.4002 39.3993 47.3002 40.4993C42.8002 41.9993 38.1002 42.4993 33.2002 42.4993C33.5002 42.1993 33.7002 41.9993 33.9002 41.7993C33.2002 41.6993 33.0002 42.6993 32.2002 42.2993C32.7002 41.8993 33.1002 41.5993 33.5002 41.2993C32.9002 41.2993 32.6002 41.6993 32.1002 41.8993C31.7002 42.0993 31.4002 42.2993 31.0002 42.1993C28.9002 41.9993 26.7002 41.7993 24.6002 41.5993C23.9002 41.4993 23.3002 41.1993 22.8002 40.8993C23.2002 39.3993 24.0002 38.2993 25.5002 37.6993C25.5002 37.4993 25.6002 37.1993 25.6002 36.9993C25.4002 36.2993 25.1002 35.6993 24.8002 34.9993C24.7002 34.9993 24.6002 35.0993 24.4002 35.1993C24.2002 35.1993 24.1002 35.1992 23.8002 35.0993C23.9002 35.4993 24.0002 35.6993 24.1002 35.9993C24.5002 37.0993 24.5002 37.0993 23.6002 37.7993L23.5002 37.8993C22.4002 38.7993 21.9002 39.8993 22.4002 41.4993C23.1002 41.6993 23.8002 42.0993 24.6002 42.1993C27.1002 42.4993 29.5002 42.7993 32.0002 42.9993C33.3002 43.0993 34.6002 42.9993 35.9002 42.9993C37.0002 42.9993 38.0002 42.9993 39.1002 42.8993C41.2002 42.5993 43.4002 42.1993 45.5002 41.7993C46.6002 41.5993 47.6002 41.0993 48.6002 40.7993C48.9002 40.6993 49.1002 40.4993 49.0002 40.0993C48.7002 40.0993 48.4002 40.1993 48.2002 40.1993C47.9002 38.1993 47.8002 37.8993 47.0002 36.7993C46.5002 36.0993 45.8002 35.3993 45.1002 34.8993C44.8002 34.6993 44.4002 34.2993 44.4002 33.9993C44.4002 33.2993 44.5002 32.5993 44.6002 31.8993C46.2002 31.5993 47.6002 31.0993 48.9002 30.3993C50.5002 29.4993 51.7002 28.0993 53.0002 26.7993C53.4002 26.3993 53.8002 25.9993 54.1002 25.3993C55.2002 23.2993 55.9002 20.9993 56.4002 18.5993C56.6002 17.7993 56.8002 17.0993 57.0002 16.2993C57.1002 15.8993 57.4002 15.4993 57.3002 15.1993C57.2002 14.5993 57.6002 14.1993 57.9002 13.6993C58.8002 12.6993 59.7002 11.5993 60.5002 10.4993C60.7002 10.1993 61.0002 9.89925 61.2002 9.59925C61.1002 9.39925 61.0002 9.29925 60.9002 9.09925ZM36.6002 28.5993C34.2002 29.0993 31.7002 28.9993 29.3002 28.7993C29.3002 28.5993 29.3002 28.4993 29.3002 28.3993C30.0002 26.9993 29.8002 25.5993 29.5002 24.0993C29.4002 23.6993 29.2002 23.4993 28.9002 23.2993C27.9002 22.8993 26.9002 22.3993 25.8002 21.8993C25.2002 21.5993 24.6002 21.3993 23.9002 20.9993C24.4002 20.5993 24.8002 20.1993 25.2002 19.8993L25.1002 19.7993C24.6002 20.0993 24.1002 20.3993 23.5002 20.6993C22.6002 20.0993 22.2002 19.6993 22.8002 18.1993C22.9002 17.9993 22.9002 17.7993 22.9002 17.5993C22.9002 15.5993 22.9002 13.5993 22.8002 11.5993C22.8002 8.89925 22.7002 6.19925 22.7002 3.49925C22.7002 2.89925 22.9002 2.19925 22.9002 1.59925C22.9002 1.29925 23.2002 1.09925 23.5002 1.09925C23.7002 1.09925 23.9002 1.09925 24.1002 1.09925C25.5002 1.29925 26.8002 1.19925 28.2002 0.999251C28.4002 0.999251 28.6002 0.899251 28.8002 0.899251C31.2002 0.699251 33.6002 0.499251 35.9002 0.399251C37.5002 0.299251 39.1002 0.499251 40.8002 0.599251C40.9002 1.19925 40.9002 1.79925 41.0002 2.49925C40.6002 2.59925 40.3002 2.59925 39.9002 2.69925C38.0002 2.79925 36.1002 3.09925 34.2002 3.09925C31.8002 2.99925 29.4002 3.09925 27.0002 3.09925C26.1002 3.09925 25.3002 2.99925 24.4002 2.99925C23.9002 2.99925 23.4002 3.09925 22.9002 3.09925C22.9002 3.19925 22.9002 3.29925 22.9002 3.29925C23.1002 3.39925 23.2002 3.49925 23.4002 3.49925C26.9002 3.29925 30.4002 3.39925 33.9002 3.49925C35.5002 3.49925 37.1002 3.39925 38.7002 3.29925C40.0002 3.19925 41.2002 3.09925 42.5002 2.99925C42.8002 2.99925 43.2002 2.99925 43.6002 2.99925C43.6002 4.09925 43.7002 5.09925 43.7002 6.19925C43.6002 9.09925 43.7002 11.8993 43.9002 14.7993C44.0002 15.6993 44.0002 16.5993 44.1002 17.4993C44.2002 18.2993 43.9002 18.8993 43.4002 19.3993C42.3002 20.4993 41.3002 21.2993 40.2002 21.6993C40.1002 20.8993 39.9002 20.0993 39.8002 19.2993C39.3002 16.9993 39.3002 14.6993 39.3002 12.3993C39.3002 11.7993 39.4002 11.0993 39.4002 10.4993C39.4002 9.69925 39.2002 9.49925 38.4002 9.49925C37.5002 9.49925 36.7002 9.59925 35.8002 9.59925C35.5002 9.59925 35.3002 9.69925 35.0002 9.69925C32.9002 9.69925 30.8002 9.59925 28.8002 9.49925C28.1002 9.49925 27.4002 9.39925 26.6002 9.39925C26.6002 9.49925 26.5002 9.69925 26.5002 9.79925C28.0002 9.89925 29.3002 9.99925 30.6002 9.99925C31.5002 9.99925 32.4002 10.0993 33.3002 9.99925C34.4002 9.99925 35.5002 9.89925 36.5002 9.79925C37.1002 9.79925 37.7002 9.79925 38.3002 9.79925C38.8002 9.79925 39.0002 10.0993 38.9002 10.4993C38.8002 11.0993 38.8002 11.6993 38.8002 12.3993C38.7002 14.9993 38.9002 17.6993 39.5002 20.1993C39.6002 20.4993 39.6002 20.7993 39.6002 21.0993C39.7002 21.5993 39.7002 21.9993 39.4002 22.3993C39.2002 22.5993 39.2002 22.8993 39.1002 23.1993C38.8002 22.8993 38.6002 23.0993 38.4002 23.3993C37.2002 25.1993 36.7002 26.7993 36.6002 28.5993Z" fill="black"/>
<path d="M50.2999 43.0984C50.2999 42.8984 50.1999 42.6984 50.1999 42.5984C48.2999 43.1984 46.3999 43.8984 44.4999 44.4984C41.3999 45.2984 39.5999 45.3984 38.5999 45.0984C39.2999 44.5984 40.0999 44.8984 40.7999 44.6984C41.5999 44.4984 42.3999 44.3984 43.1999 44.1984C43.9999 43.9984 44.6999 43.8984 45.4999 43.6984C46.2999 43.4984 46.9999 43.1984 47.7999 42.9984C48.4999 42.6984 49.1999 42.3984 49.9999 42.0984C49.8999 41.7984 49.6999 41.3984 49.4999 41.0984C49.2999 40.7984 49.2999 40.5984 49.6999 40.3984C50.1999 40.9984 50.3999 41.6984 50.5999 42.3984C50.9999 43.7984 51.4999 45.1984 51.8999 46.5984C52.3999 48.2984 52.7999 49.9984 53.1999 51.6984C53.2999 52.1984 53.3999 52.6984 53.0999 53.2984C52.8999 52.9984 52.7999 52.7984 52.6999 52.5984C52.5999 52.5984 52.4999 52.5984 52.4999 52.5984C50.5999 53.7984 48.3999 54.3984 46.2999 55.0984C45.4999 55.3984 44.6999 55.7984 43.7999 56.0984C42.4999 56.4984 41.1999 56.8984 39.6999 56.8984C38.5999 56.8984 37.4999 57.0984 36.4999 57.0984C32.6999 57.1984 28.9999 56.6984 25.1999 56.1984C22.7999 55.8984 20.5999 55.0984 18.5999 53.8984C18.4999 53.7984 18.3999 53.7984 18.2999 53.6984C16.7999 52.6984 16.8999 52.5984 17.2999 50.8984C17.8999 48.3984 18.7999 46.0984 19.6999 43.6984C19.9999 42.7984 20.4999 42.0984 20.9999 41.0984C21.2999 41.3984 21.4999 41.5984 21.7999 41.7984C21.6999 42.1984 21.5999 42.5984 21.3999 42.9984C23.3999 43.7984 25.3999 44.0984 27.4999 44.3984C29.4999 44.6984 31.5999 44.6984 33.5999 45.2984C31.4999 45.4984 29.3999 45.1984 27.3999 44.9984C25.2999 44.6984 23.2999 44.0984 21.0999 43.6984C19.7999 46.0984 19.5999 48.8984 18.2999 51.4984C20.3999 52.3984 22.6999 52.4984 24.6999 53.3984C24.6999 53.4984 24.6999 53.4984 24.5999 53.5984C23.4999 53.3984 22.3999 53.2984 21.2999 53.0984C21.1999 53.4984 21.0999 53.7984 20.8999 54.1984C21.9999 54.5984 22.8999 54.9984 23.8999 55.1984C25.8999 55.5984 27.9999 55.8984 30.0999 56.0984C31.1999 56.1984 32.2999 56.1984 33.2999 56.1984C35.1999 56.1984 36.9999 56.2984 38.8999 56.1984C40.4999 56.0984 42.0999 55.6984 43.6999 55.2984C45.7999 54.6984 47.7999 54.0984 49.7999 53.3984C50.5999 53.0984 51.3999 52.6984 52.0999 52.1984C52.3999 51.9984 52.6999 51.6984 52.3999 51.2984C51.6999 51.5984 50.9999 51.8984 50.2999 52.1984C48.4999 52.9984 46.5999 53.1984 44.7999 53.7984C42.2999 54.4984 39.6999 54.6984 37.0999 54.9984C35.9999 55.1984 34.7999 54.8984 33.5999 54.8984C33.4999 54.8984 33.4999 54.7984 33.3999 54.6984C33.5999 54.2984 33.8999 54.3984 34.1999 54.3984C35.2999 54.3984 36.4999 54.4984 37.5999 54.2984C40.3999 53.8984 43.0999 53.6984 45.7999 52.7984C47.3999 52.2984 48.9999 51.8984 50.5999 51.3984C51.1999 51.1984 51.6999 50.8984 52.2999 50.6984C51.8999 47.7984 50.9999 45.3984 50.2999 43.0984ZM17.8999 51.8984C18.3999 52.6984 18.9999 53.0984 19.6999 53.3984C19.9999 52.4984 19.9999 52.4984 19.2999 52.2984C18.8999 52.1984 18.4999 52.0984 17.8999 51.8984ZM20.2999 52.5984C20.1999 53.0984 19.9999 53.3984 20.3999 53.6984C20.6999 53.0984 20.6999 53.0984 20.2999 52.5984Z" fill="black"/>
<path d="M51.5004 6.49844C52.0004 5.49844 52.4004 4.59844 52.9004 3.69844C52.7004 3.59844 52.6004 3.49844 52.4004 3.39844C51.6004 4.99844 50.7004 6.49844 49.9004 8.09844C49.2004 9.49844 48.1004 10.5984 46.4004 10.7984C46.0004 10.7984 45.7004 10.9984 45.4004 11.0984C45.4004 11.5984 45.6004 11.5984 45.9004 11.4984C47.8004 11.0984 49.4004 10.1984 50.3004 8.39844C50.8004 7.39844 51.5004 6.69844 52.7004 6.59844C52.9004 6.59844 53.1004 6.49844 53.2004 6.49844C53.3004 6.49844 53.5004 6.39844 53.6004 6.29844C53.6004 6.19844 53.6004 6.19844 53.5004 6.09844C52.9004 6.19844 52.2004 6.39844 51.5004 6.49844Z" fill="black"/>
<path d="M53.4004 40.9C53.6004 37.1 53.7004 33.4 53.9004 29.5C54.4004 29.7 54.3004 30 54.3004 30.3C54.4004 33.1 54.1004 35.9 53.9004 38.7C53.9004 39.2 53.9004 39.8 53.9004 40.3C53.9004 40.5 53.8004 40.7 53.7004 40.9C53.6004 40.9 53.5004 40.9 53.4004 40.9Z" fill="black"/>
<path d="M15.3998 34C15.5998 34 15.5998 34 15.5998 34H15.6998C15.6998 34 15.6998 34 15.7998 34.1C15.7998 34.2 15.7998 34.2 15.8998 34.3C15.8998 34.4 15.8998 34.5 15.8998 34.6C15.8998 38 15.9998 41.3 15.9998 44.8C15.5998 44.7 15.4998 44.5 15.4998 44.1C15.4998 43.5 15.4998 42.9 15.4998 42.3C15.4998 40.7 15.3998 39.1 15.3998 37.6C15.3998 36.6 15.2998 35.6 15.2998 34.6C15.2998 34.4 15.3998 34.2 15.3998 34Z" fill="black"/>
<path d="M56.2998 36C55.5998 34.4 55.8998 32.8 55.8998 31.1C55.8998 30.9 55.8998 30.9 56.3998 30.5C56.3998 32.4 56.3998 34.2 56.2998 36Z" fill="black"/>
<path d="M18.7002 34.6992C18.7002 36.1992 18.8002 37.6992 18.8002 39.2992C18.8002 39.3992 18.7002 39.4992 18.5002 39.7992C18.4002 39.5992 18.3002 39.3992 18.3002 39.2992C18.5002 37.7992 17.8002 36.1992 18.4002 34.6992C18.5002 34.6992 18.6002 34.6992 18.7002 34.6992Z" fill="black"/>
<path d="M38.8006 40.4C38.5006 40.5 38.4006 40.5 38.3006 40.5C37.2006 40.3 36.6006 38.7 37.3006 37.8C37.6006 37.4 37.8006 37.4 38.2006 37.8C37.1006 38.8 37.3006 39.7 38.8006 40.4Z" fill="black"/>
<path d="M28.6003 39.1993C27.7003 38.8993 27.1003 37.4993 27.4003 36.7993C27.6003 36.2993 27.9003 36.1993 28.5003 36.3993C27.4003 37.3993 28.0003 38.2993 28.6003 39.1993Z" fill="black"/>
<path d="M37.4004 31.6996C37.1004 31.7996 36.6004 31.8996 36.5004 32.0996C36.2004 32.6996 36.9004 32.7996 37.2004 33.0996C36.3004 32.9996 35.9004 32.6996 35.9004 32.0996C35.9004 31.5996 36.5004 31.0996 37.0004 31.0996C37.2004 31.0996 37.3004 31.2996 37.4004 31.6996Z" fill="black"/>
<path d="M33.2002 40.3C34.1002 39.7 34.1002 39.7 33.8002 38.2C34.1002 38 34.3002 38.2 34.4002 38.4C34.6002 38.9 34.8002 39.5 34.3002 40C34.0002 40.3 33.8002 40.7 33.2002 40.3Z" fill="black"/>
<path d="M50.1998 43.0992C49.0998 43.4992 48.0998 44.0992 46.7998 44.0992C46.8998 43.9992 47.0998 43.8992 47.1998 43.8992C47.8998 43.6992 48.4998 43.3992 49.1998 43.1992C49.5998 42.9992 49.8998 43.0992 50.1998 43.0992C50.2998 43.0992 50.1998 43.0992 50.1998 43.0992Z" fill="black"/>
<path d="M30.9004 31.9C31.0004 31.2 31.1004 31 31.6004 31C31.9004 31 32.2004 31.1 32.2004 31.4C32.2004 31.7 32.0004 32 31.6004 32C31.4004 32 31.2004 32 30.9004 31.9Z" fill="black"/>
<path d="M51.1006 8.2C52.0006 8 52.9006 7.8 53.7006 7.5C53.7006 7.6 53.7006 7.6 53.8006 7.7C52.9006 8 52.1006 8.3 51.2006 8.4C51.2006 8.4 51.1006 8.3 51.1006 8.2Z" fill="black"/>
<path d="M49.4 44.1992C48.8 44.5992 48.2 44.7992 47.5 44.7992C48 44.1992 48.7 44.1992 49.4 44.1992Z" fill="black"/>
<path d="M43.6005 38.2988C43.3005 38.0988 43.0005 37.8988 43.2005 37.4988C43.3005 37.3988 43.7005 37.3988 43.8005 37.4988C44.1005 37.7988 43.9005 37.9988 43.6005 38.2988Z" fill="black"/>
<path d="M31.7998 36.8999C31.8998 36.6999 31.9998 36.4999 32.0998 36.3999C32.1998 36.2999 32.3998 36.3999 32.5998 36.3999C32.5998 36.5999 32.6998 36.8999 32.5998 36.9999C32.3998 37.0999 32.0998 37.1999 31.8998 37.1999C31.8998 36.9999 31.7998 36.8999 31.7998 36.8999Z" fill="black"/>
<path d="M30.5 40.3992C30.5 40.1992 30.5 39.9992 30.6 39.6992C30.7 39.7992 30.9 39.7992 30.9 39.7992C30.9 39.9992 30.8 40.1992 30.7 40.3992C30.6 40.3992 30.6 40.3992 30.5 40.3992Z" fill="black"/>
<path d="M26.7 9.79883C26.8 10.0988 26.9 10.3988 26.9 10.6988C26.9 12.0988 26.9 13.4988 26.9 14.9988C26.9 16.6988 26.9 18.4988 26.9 20.2988C27.3 20.0988 27.7 19.8988 28.1 19.6988C28.1 19.6988 28.1 19.7988 28.2 19.7988C27.8 20.1988 27.3 20.6988 26.9 21.0988L27 21.1988C27.4 20.9988 27.8 20.7988 28.2 20.5988L28.3 20.6988C27.8 21.0988 27.2 21.4988 26.7 21.9988C26 21.4988 26 20.6988 26 19.9988C26 18.3988 26 16.8988 26 15.3988C26 13.5988 26.1 11.7988 26.1 9.89883C26.3 9.79883 26.5 9.79883 26.7 9.79883Z" fill="black"/>
<path d="M33.7998 5.70017C33.4998 5.80017 33.2998 6.00017 33.0998 6.00017C32.5998 6.00017 32.3998 6.30017 32.3998 6.70017C32.3998 7.20017 32.3998 7.60017 32.4998 8.10017C32.4998 8.40017 32.6998 8.70017 32.7998 9.20017C32.4998 9.00017 32.3998 8.90017 32.2998 8.80017C31.7998 7.80017 31.6998 6.90017 31.9998 6.00017C32.2998 5.20017 32.7998 5.10017 33.7998 5.70017Z" fill="black"/>
<path d="M40.1001 5.69898C40.1001 5.79898 40.1001 5.79898 40.0001 5.89898C39.7001 5.99898 39.2001 6.09898 39.2001 6.49898C39.2001 6.89898 39.4001 7.39898 39.5001 7.79898C39.6001 7.99898 39.8001 8.19898 40.0001 8.39898C38.8001 7.99898 38.3001 6.89898 38.7001 5.99898C39.1001 5.39898 39.4001 5.29898 40.1001 5.69898Z" fill="black"/>
<path d="M41.1006 19.3984C41.3006 18.9984 41.7006 18.6984 41.8006 18.2984C41.9006 17.8984 41.8006 17.3984 41.8006 16.8984C42.4006 17.0984 42.4006 17.5984 42.4006 18.0984C42.3006 18.6984 41.8006 19.1984 41.1006 19.3984Z" fill="black"/>
<path d="M24.4998 14.5C23.9998 15.2 23.9998 15.9 24.4998 16.5C23.7998 16.4 23.4998 16 23.5998 15.2C23.6998 14.6 23.7998 14.5 24.4998 14.5Z" fill="black"/>
<path d="M22.7998 19.8988C23.2998 19.0988 23.8998 18.5988 24.5998 18.2988C24.3998 18.8988 23.6998 19.5988 22.7998 19.8988Z" fill="black"/>
<path d="M41.4 13.5992C41.3 12.9992 41.2 12.5992 41.7 12.1992C42.2 12.7992 42.1 13.1992 41.4 13.5992Z" fill="black"/>
<path d="M27.4004 6.69916C27.2004 6.89916 27.0004 7.09916 26.9004 7.09916C26.7004 6.99916 26.6004 6.79916 26.4004 6.69916C26.6004 6.59916 26.7004 6.39916 26.9004 6.29916C27.0004 6.19916 27.1004 6.49916 27.4004 6.69916Z" fill="black"/>
<path d="M35.4002 8.19922C35.3002 7.89922 35.3002 7.69922 35.2002 7.19922C35.6002 7.39922 35.8002 7.39922 35.9002 7.59922C35.9002 7.89922 35.7002 8.09922 35.4002 8.19922Z" fill="black"/>
<path d="M24.1006 10.7996C24.2006 10.6996 24.3006 10.5996 24.4006 10.5996C24.5006 10.5996 24.6006 10.6996 24.7006 10.7996C24.6006 10.8996 24.5006 11.0996 24.4006 11.0996C24.4006 11.0996 24.3006 10.9996 24.1006 10.7996Z" fill="black"/>
</g>
<defs>
<clipPath id="clip0_10476_6403">
<rect width="69.4" height="57" fill="white"/>
</clipPath>
</defs>
</svg>
