<svg width="36" height="44" viewBox="0 0 36 44" fill="none" xmlns="http://www.w3.org/2000/svg">
<path d="M35.5607 18.478C35.5607 8.77681 27.696 0.912109 17.9948 0.912109C8.29366 0.912109 0.428955 8.77681 0.428955 18.478C0.428955 18.5817 0.439331 18.6855 0.449707 18.7996H0.428955C0.428955 23.8733 2.58708 28.0028 5.68938 32.1011C8.98882 36.4589 13.4607 40.1526 18.0778 43.0785H18.0986C22.7157 40.1526 27.0112 36.4589 30.3107 32.1011C33.4026 28.0028 35.5711 23.8733 35.5711 18.7996H35.5504C35.5504 18.6959 35.5607 18.5921 35.5607 18.478Z" fill="#F15748"/>
<path d="M3.17847 13.9853L3.58312 13.1242C3.86326 12.5431 4.33016 12.4083 4.94232 12.6988L5.31584 12.8752C5.928 13.1657 6.12514 13.6118 5.85537 14.1929L5.72049 14.473L7.28721 15.2097L7.00706 15.7907L3.17847 13.9853ZM5.31584 13.9335C5.40922 13.7467 5.36772 13.6014 5.08758 13.4769L4.63105 13.259C4.36129 13.1242 4.21603 13.1864 4.13302 13.3732L3.99814 13.6533L5.18096 14.2136L5.31584 13.9335Z" fill="white"/>
<path d="M7.14187 13.2691L6.94473 13.1342L7.2975 12.6258L7.53614 12.7918C7.78516 12.9682 7.95117 12.9163 8.0653 12.7503C8.17943 12.5843 8.16905 12.4079 7.90966 12.2315C7.61915 12.0344 7.35976 12.024 6.79947 12.1485C6.08356 12.3145 5.68928 12.2627 5.29501 11.9825C4.7451 11.5986 4.6206 11.1006 4.98374 10.5818C5.34689 10.063 5.84492 10.0319 6.4052 10.4158L6.55046 10.5196L6.19769 11.0176L6.0213 10.8931C5.77229 10.7167 5.60628 10.7478 5.49215 10.9242C5.37802 11.0902 5.39877 11.2562 5.63741 11.4222C5.8968 11.5986 6.15619 11.5986 6.71647 11.4741C7.43239 11.3081 7.81628 11.36 8.25206 11.6609C8.82272 12.0551 8.94723 12.5532 8.58408 13.0823C8.20018 13.6219 7.69178 13.6634 7.14187 13.2691Z" fill="white"/>
<path d="M8.387 10.3532L6.09399 9.21186L6.57127 8.7242L8.01348 9.51275L7.19381 8.08092L7.62958 7.63477L8.82277 9.89665L10.1197 11.1625L9.6632 11.6294L8.387 10.3532Z" fill="white"/>
<path d="M10.8044 10.4996L10.6487 10.2921C10.7317 10.2713 10.8148 10.2298 10.8978 10.1676C11.1987 9.93932 11.2194 9.67993 10.9393 9.30641L8.91602 6.61913L9.1339 6.45312L11.1571 9.1404C11.5307 9.63843 11.5099 10.0327 11.0741 10.3543C10.9808 10.427 10.8978 10.4685 10.8044 10.4996Z" fill="white"/>
<path d="M12.9938 7.96779L11.977 8.50732L12.2571 9.46188L12.0289 9.58639L10.7942 5.42577L11.1158 5.25977L13.8654 8.62146L13.6164 8.74596L12.9938 7.96779ZM12.8278 7.77066L11.1158 5.68516L11.8836 8.26869L12.8278 7.77066Z" fill="white"/>
<path d="M14.0417 8.28939L14.3633 4.27403L13.0145 4.67868L12.9419 4.42967L14.5709 3.93164L14.6435 4.17028L14.3218 8.18564L15.7329 7.76024L15.8056 8.00925L14.1143 8.51765L14.0417 8.28939Z" fill="white"/>
<path d="M15.8782 3.69274L16.2517 3.66162L17.7665 7.07519L17.4656 3.55786L17.725 3.53711L18.0882 7.77035L17.7873 7.80148L16.1791 4.12852L16.5007 7.90523L16.2413 7.92598L15.8782 3.69274Z" fill="white"/>
<path d="M19.5925 5.97476L19.0322 3.54688L19.3227 3.58838L19.7896 5.63237L20.7753 3.78551L21.0451 3.81664L19.8727 6.01627L19.6236 7.915L19.3539 7.88387L19.5925 5.97476Z" fill="white"/>
<path d="M23.5146 4.56445L24.106 4.83422L22.6119 8.15441L23.5872 8.59018L23.3382 9.14009L21.7715 8.43455L23.5146 4.56445Z" fill="white"/>
<path d="M24.0958 8.41324L25.372 6.58713C25.7559 6.02685 26.2643 5.91272 26.7934 6.26549C27.3122 6.62864 27.3744 7.14742 26.9906 7.7077L25.7144 9.54418C25.3305 10.1045 24.8221 10.2186 24.2929 9.86582C23.7741 9.4923 23.7015 8.97352 24.0958 8.41324ZM25.1541 9.20179L26.4822 7.29267C26.6585 7.04366 26.617 6.87765 26.4406 6.75314C26.2746 6.63901 26.0983 6.65976 25.9219 6.90878L24.5938 8.81789C24.4174 9.0669 24.4589 9.23291 24.6353 9.35742C24.8117 9.47155 24.9777 9.4508 25.1541 9.20179Z" fill="white"/>
<path d="M27.4158 9.97977L26.8452 10.1665L25.8906 11.1003L25.4341 10.6334L28.4845 7.66602L28.941 8.13292L27.6337 9.40912L29.5117 8.71395L29.9682 9.19123L28.3081 9.73076L26.9282 12.1586L26.4509 11.671L27.4158 9.97977Z" fill="white"/>
<path d="M28.4847 12.9788L28.0697 12.3563L27.3122 12.7298L26.9802 12.2317L30.8814 10.416L31.3691 11.1423L28.2149 14.0786L27.8518 13.5391L28.4847 12.9788ZM28.9205 12.5845L30.539 11.1423L28.5988 12.0969L28.9205 12.5845Z" fill="white"/>
<path d="M32.2093 12.5938L32.4791 13.1852L29.1693 14.7L29.6154 15.6649L29.0655 15.9139L28.3496 14.3576L32.2093 12.5938Z" fill="white"/>
<path d="M12.5478 33.4906C12.7864 33.4906 12.8902 33.4076 12.8902 33.2104C12.8902 33.0133 12.7864 32.9303 12.5478 32.9303H11.5725V33.4906H12.5478ZM11.1575 32.5879H12.6204C13.0458 32.5879 13.3052 32.868 13.3052 33.2104C13.3052 33.6255 13.0147 33.833 12.6204 33.833H11.5725V34.6319H11.1575V32.5879Z" fill="white"/>
<path d="M13.5127 34.5698V34.2378C13.7617 34.3311 13.9692 34.3623 14.2286 34.3623C14.5918 34.3623 14.7474 34.3208 14.7474 34.1963C14.7474 33.885 13.4504 34.2378 13.4504 33.6048C13.4504 33.2728 13.7928 33.1172 14.3116 33.1172C14.488 33.1172 14.7889 33.1483 15.0379 33.2002V33.5218C14.8304 33.4803 14.571 33.4492 14.3531 33.4492C14.0107 33.4492 13.8551 33.5011 13.8551 33.6048C13.8551 33.885 15.152 33.5633 15.152 34.1963C15.152 34.5387 14.8096 34.6839 14.2909 34.6839C14.073 34.6839 13.7617 34.632 13.5127 34.5698Z" fill="white"/>
<path d="M15.3804 33.1697H15.7954V34.6326H15.3804V33.1697ZM15.3181 32.682C15.3181 32.5264 15.4219 32.4434 15.5775 32.4434C15.7331 32.4434 15.8369 32.516 15.8369 32.682C15.8369 32.848 15.7331 32.9206 15.5775 32.9206C15.4219 32.9206 15.3181 32.848 15.3181 32.682Z" fill="white"/>
<path d="M17.7252 34.2791C17.9431 34.2791 18.0676 34.1961 18.0676 33.999C18.0676 33.8122 17.9431 33.7292 17.7252 33.7292H16.6565V34.2687L17.7252 34.2791ZM16.2518 32.5879H17.777C18.2024 32.5879 18.4307 32.8162 18.4307 33.1274C18.4307 33.4283 18.2128 33.5736 17.86 33.5943C18.2439 33.6047 18.493 33.7707 18.493 34.0924C18.493 34.4244 18.2336 34.6319 17.8289 34.6319H16.2415L16.2518 32.5879ZM17.6629 33.4491C17.8808 33.4491 18.0053 33.3764 18.0053 33.2001C18.0053 33.0133 17.8808 32.9407 17.6629 32.9407H16.6565V33.4594H17.6629V33.4491Z" fill="white"/>
<path d="M20.4955 34.6323H20.039L20.1013 34.0305H20.0805C20.0183 34.4144 19.8004 34.6841 19.3646 34.6841C18.9496 34.6841 18.7524 34.4455 18.7524 33.8126V33.1797H19.1675V33.7607C19.1675 34.1965 19.2816 34.3729 19.5721 34.3729C19.8834 34.3729 20.0909 34.0616 20.0909 33.5843V33.1797H20.5059L20.4955 34.6323Z" fill="white"/>
<path d="M20.9727 33.4697H20.7859V33.1688H20.9727V33.1065C20.9727 32.733 21.0868 32.5566 21.4499 32.5566C21.5537 32.5566 21.6471 32.5774 21.7923 32.5981V32.8264C21.7508 32.8264 21.7197 32.8264 21.6886 32.8264C21.4084 32.8264 21.3877 32.8887 21.3877 33.1688H21.7819V33.4386H21.3877V34.6318H20.9727V33.4697Z" fill="white"/>
<path d="M23.2556 33.8033C23.2452 33.5439 23.0896 33.4402 22.7679 33.4402C22.4566 33.4402 22.301 33.5439 22.2803 33.8241L23.2556 33.8033ZM21.886 33.9071C21.886 33.4402 22.2388 33.1289 22.7679 33.1289C23.2867 33.1289 23.6395 33.3987 23.6498 33.7929V34.0316H22.2906C22.3321 34.2702 22.5293 34.3636 22.9235 34.3636C23.2867 34.3636 23.4319 34.2702 23.598 34.1976V34.5296C23.3178 34.6437 23.1518 34.6749 22.7783 34.6749C22.2388 34.6852 21.886 34.374 21.886 33.9071Z" fill="white"/>
<path d="M24.0024 34.1145V33.4815H23.7949V33.1807H24.0647V32.8279L24.4278 32.7656V33.1703H24.8532V33.4712H24.4278V34.0211C24.4278 34.322 24.4278 34.3946 24.6976 34.3946C24.7391 34.3946 24.791 34.3946 24.8532 34.3842V34.6021C24.7287 34.6436 24.6146 34.6644 24.459 34.6644C24.0543 34.6644 24.0024 34.5295 24.0024 34.1145Z" fill="white"/>
<path d="M25.704 17.1516C25.6521 17.6289 25.4861 18.1373 25.3927 18.6145C25.2267 19.5172 25.1229 19.2267 24.9673 19.4757C24.8947 19.5795 24.9362 19.7766 24.8324 19.8389C24.6768 19.9219 24.5523 19.8389 24.3966 19.7662C24.2203 19.6832 24.0957 19.5068 23.9505 19.3616C23.8052 19.2267 23.5562 19.1437 23.4006 19.289C23.3176 19.372 23.3072 19.5068 23.3072 19.621C23.2761 20.2228 23.2346 20.8245 23.2138 21.4263C23.1516 22.5054 23.0997 23.5844 23.2968 24.6428C23.328 24.8088 23.3695 24.9748 23.411 25.1304C23.4525 25.2757 23.494 25.4002 23.5355 25.5454C23.6496 25.8878 23.909 26.1576 23.9609 26.5207C23.992 26.6868 23.7949 26.4481 23.7637 26.6245C23.7119 26.9876 24.1269 28.461 23.909 28.7411C23.7534 28.9383 22.9648 29.3325 22.4875 29.4674C20.3398 30.0692 19.2711 30.2767 17.1752 30.3597C16.4697 30.3908 15.4944 30.3286 14.7992 30.2145C13.6579 30.0173 12.7967 29.8721 11.6658 29.3948C11.5309 29.3429 11.313 29.2703 11.2196 29.1561C11.1989 29.1354 11.1885 29.1146 11.1678 29.0939C11.1055 28.959 11.147 27.9422 11.147 27.7969C11.1366 27.2367 11.1366 26.6453 11.2093 26.0953C11.2923 25.4521 11.6554 24.8399 11.8007 24.2174C11.8526 23.9683 11.9148 23.7193 11.9459 23.4599C11.9667 23.3458 11.9874 23.2213 12.0186 23.1072C12.1327 22.7233 12.3298 22.3186 12.4232 21.9347V21.9244C12.4543 21.7998 12.4647 21.6753 12.4647 21.5612C12.4647 21.5405 12.4647 21.5093 12.4647 21.4886C12.4647 21.4782 12.4647 21.4575 12.4647 21.4471C12.5685 21.4575 12.5788 21.3848 12.5788 21.3018C12.527 21.2811 12.4751 21.2603 12.4232 21.2292C12.2676 20.7519 11.7592 20.4718 11.3856 20.1397C11.1678 19.953 10.9603 19.7247 10.7839 19.4965C10.7942 19.4757 10.8357 19.455 10.898 19.4238C10.9187 19.4135 10.9395 19.4135 10.9706 19.4031C10.9084 19.2267 10.815 19.0814 10.7216 18.9154C10.5452 18.6457 10.3792 18.3551 10.2132 18.075C10.1095 17.8882 10.0887 17.6911 10.1198 17.494C10.1613 17.2035 10.2028 16.9129 10.2547 16.6224C10.2858 16.4357 10.3481 16.2385 10.4103 16.0414C10.3273 15.9791 10.2443 16.031 10.151 16.031C10.1095 16.031 10.0368 16.031 10.0264 15.9999C10.0057 15.9791 10.0161 15.8961 10.0368 15.8754C10.3066 15.4292 10.5971 15.0038 10.9914 14.6614C11.2093 14.4747 11.4168 14.2775 11.6347 14.0804C11.6554 14.0596 11.6658 14.0389 11.6865 14.0078C11.645 13.9766 11.5932 13.9766 11.5413 13.9766C11.7384 13.7691 11.9667 13.572 12.1638 13.4786C12.1742 13.4682 12.1949 13.4682 12.2053 13.4579C12.2364 13.4475 12.278 13.4164 12.3091 13.406C12.8694 13.1155 13.4193 12.9287 13.9588 12.7627C13.9588 12.7627 13.9588 12.7627 13.9692 12.7627C14.2286 12.6901 14.488 12.6071 14.7577 12.5448C15.4218 12.3684 16.1065 12.2128 16.8121 12.0468C17.1649 11.9638 17.528 11.8911 17.8704 11.8393C19.0947 11.6525 20.3398 11.6525 21.5226 11.9534C21.616 11.9742 21.699 12.0053 21.7924 12.026C22.2489 12.1609 22.7054 12.3373 23.1101 12.6071C23.5666 12.908 23.9401 13.1362 24.324 13.5305C24.4589 13.6758 24.6457 13.7484 24.7702 13.904C24.8947 14.0389 25.0607 14.1115 25.1541 14.3087C25.2163 14.4124 25.0814 14.4435 25.1333 14.5784C25.2267 14.8378 25.455 15.2217 25.5276 15.4085C25.6832 15.9791 25.7662 16.5705 25.704 17.1516Z" fill="white"/>
<path d="M14.5085 12.9688C14.2491 14.5251 14.3737 16.1541 14.8924 17.6481C15.0273 18.0528 15.1933 18.4471 15.2452 18.8621C15.3178 19.4431 15.1414 20.0345 14.8613 20.5429C14.6849 20.8646 14.467 21.1655 14.1661 21.373C13.8652 21.5701 13.471 21.6635 13.1286 21.5494C12.9729 21.4975 12.8069 21.3522 12.8588 21.1966C13.2116 21.2277 13.5851 21.1551 13.8756 20.9372C14.2906 20.6363 14.467 20.0864 14.4567 19.5676C14.4463 19.0489 14.2595 18.5612 14.0831 18.0735C13.8964 17.5963 13.7096 17.0982 13.6889 16.5898C13.637 15.5627 14.2076 14.6081 14.4359 13.6017L14.5085 12.9688Z" fill="#BBBAB9"/>
<path d="M20.7547 20.1081C20.9726 20.0874 21.1905 20.1911 21.398 20.2949C21.5225 20.3572 21.647 20.4298 21.6885 20.5439C21.73 20.6788 21.6367 20.8241 21.5225 20.9071C21.2528 21.1249 20.8585 21.1664 20.5991 21.4051C20.4642 21.54 20.2982 22.204 20.1841 22.3493C19.6134 23.0548 18.2023 21.7579 18.3476 20.8967C18.4098 20.5543 19.0428 20.6684 19.3748 20.5958C19.6445 20.5439 19.8728 20.5232 20.1322 20.3883C20.3293 20.2845 20.5265 20.1289 20.7547 20.1081Z" fill="#BBBAB9"/>
<path d="M23.5457 18.9452C23.4835 19.1008 23.3382 19.2461 23.1618 19.2357C22.9336 19.2253 22.7987 18.9659 22.7676 18.7377C22.6742 18.1151 22.9751 17.4926 23.0477 16.8597C23.2241 15.3864 22.1761 13.9857 22.1658 12.502C23.0477 13.9649 23.4212 15.708 23.5354 17.4096C23.5769 17.8558 23.7117 18.5094 23.5457 18.9452Z" fill="#BBBAB9"/>
<path d="M23.5044 25.5548C23.4526 25.5756 23.3799 25.5963 23.3281 25.6067C22.9857 25.6897 22.6433 25.7208 22.3113 25.7727C21.8029 25.835 21.3048 25.9076 20.7757 25.8972C20.2984 25.8869 19.8211 25.8142 19.3438 25.7831C17.7149 25.669 15.9925 25.9906 14.4881 25.3785C13.9382 25.1502 13.4194 24.7974 12.8487 24.621C12.5582 24.538 12.2469 24.4862 11.9668 24.3409C11.9149 24.3098 11.8527 24.2786 11.8008 24.2371C11.8527 23.9881 11.9149 23.7391 11.946 23.4797C11.9668 23.3656 11.9875 23.2411 12.0187 23.127C12.0602 23.127 12.1224 23.1373 12.1639 23.1581C12.4959 23.2722 12.8072 23.6872 13.0977 23.8947C13.8136 24.372 14.6333 24.6937 15.453 24.9323C16.5217 25.2539 17.6422 25.4615 18.7421 25.2747C19.1467 25.2124 19.5617 25.0879 19.9767 25.1087C20.2569 25.1191 20.537 25.1917 20.8068 25.2228C21.4605 25.2954 22.1245 25.1294 22.7263 24.87C22.9027 24.7974 23.0583 24.7144 23.2451 24.6729C23.2762 24.8389 23.3177 25.0049 23.3592 25.1606C23.4111 25.2643 23.4526 25.4096 23.5044 25.5548Z" fill="#BBBAB9"/>
<path d="M18.2023 22.7647C18.3165 23.0137 18.4202 23.2834 18.607 23.491C18.7937 23.6881 19.105 23.823 19.354 23.7088C19.3748 23.6985 19.3851 23.6881 19.3955 23.6777C19.4059 23.657 19.3955 23.6362 19.3955 23.6155C19.3333 23.3768 19.2503 23.1486 19.188 22.9099C19.1569 22.8165 19.1361 22.7128 19.0739 22.6298C18.9182 22.3704 18.6173 22.277 18.3683 22.1006C18.2334 22.0072 17.559 21.0838 17.3826 21.3225C17.3204 21.3951 18.1089 22.5675 18.2023 22.7647Z" fill="#BBBAB9"/>
<path d="M17.808 26.6549C17.7872 26.6134 17.808 26.5408 17.8599 26.5201C17.9014 26.4993 17.9533 26.4889 18.0155 26.4889C18.1089 26.4889 18.2023 26.4786 18.2645 26.5408C18.2853 26.5616 18.306 26.5927 18.3268 26.6238C18.3787 26.7172 18.4202 26.8313 18.4617 26.9351C18.4824 27.0077 18.5135 27.1011 18.472 27.1634C18.4305 27.2256 18.3579 27.236 18.2853 27.2464C18.1608 27.2671 18.0363 27.2879 17.9429 27.2152C17.8288 27.1322 17.8288 26.9558 17.8391 26.8106" fill="#BBBAB9"/>
<path d="M12.2053 23.0763L12.0808 22.6924L12.3298 22.1113L13.2948 22.267L15.2765 23.1593L16.7498 23.6573L19.1155 23.7611L19.406 23.7507L19.7899 24.7571L19.9248 25.1099L18.3996 25.1825L16.9158 25.1514L14.7162 24.5704L13.3051 24.0101L12.6515 23.6365L12.2883 23.1904L12.2053 23.0763Z" fill="#F15748"/>
<path d="M22.3319 23.3353L23.1308 23.1797L23.2034 24.3106L22.8195 24.902L21.533 25.1822L22.031 24.2587L22.1659 23.5636L22.3319 23.3353Z" fill="#EA574A"/>
<path d="M22.2283 24.0307C22.2179 24.0514 22.1971 24.0722 22.1971 24.1033C22.1453 24.4769 21.9066 24.7674 21.6784 25.0579C21.6057 25.1513 21.5435 25.2343 21.4708 25.3276C21.2633 25.3899 21.0558 25.504 20.8172 25.4937C20.5993 25.4833 20.3814 25.4522 20.205 25.3173C20.0805 25.2239 19.956 25.1409 19.8419 25.0475C19.6655 24.8919 19.541 24.7051 19.4891 24.4665C19.375 23.9373 19.2608 23.4289 19.1467 22.8998C19.1052 22.713 19.0948 22.6922 18.9081 22.6611C18.7213 22.63 18.5968 22.547 18.4619 22.381C18.2752 22.132 18.0365 21.9348 17.8083 21.7273C17.5281 21.4783 17.2791 21.1982 17.0612 20.8869C17.0301 20.8246 16.9678 20.7831 16.916 20.7209C16.8226 20.6068 16.4491 19.9842 16.4594 19.8078C16.6358 19.7767 17.1131 20.2436 17.2895 20.3059C17.9016 20.5134 18.5242 20.5652 19.1778 20.42C19.6966 20.3059 20.0494 20.005 20.288 19.5277C20.1635 19.3824 20.0286 19.206 19.8938 19.0608C19.4372 18.5628 19.3646 18.4383 19.1571 17.8572C19.2297 17.5771 19.4787 17.4526 19.6862 17.2969C19.7174 17.2762 19.7693 17.2554 19.8211 17.2451C19.9975 17.1932 20.1739 17.1102 20.3399 17.079C20.5163 17.0479 20.7031 17.079 20.8898 17.0687C21.0454 17.0583 21.2011 16.996 21.3567 17.0375C21.5642 17.079 21.751 17.1724 21.8859 17.3488C22.0415 17.5252 22.0208 17.7431 21.9896 17.961C21.9274 18.3241 21.6991 18.6043 21.4812 18.8948C21.3982 18.9985 21.3048 19.1023 21.2218 19.206C21.1388 19.2994 21.0662 19.3928 20.9624 19.4654C20.8794 19.5381 20.7653 19.5692 20.6512 19.6314C20.7238 19.7041 20.7757 19.7663 20.8483 19.8182C21.1907 20.0672 21.5746 20.2229 21.9896 20.2747C22.2075 20.3059 22.3943 20.254 22.5707 20.1295C22.7678 19.9842 22.9338 19.8286 22.9961 19.5796C23.0479 19.4239 23.1413 19.2787 23.2036 19.123C23.2762 19.1127 23.3177 19.1645 23.3177 19.2268C23.3177 19.3306 23.3281 19.4343 23.3281 19.5381C23.3696 20.0465 23.4007 20.5549 23.4526 21.0737C23.4526 21.1359 23.463 21.2189 23.463 21.2915C23.2866 21.3538 23.2762 21.4887 23.2762 21.6443C23.2969 21.9763 23.2866 22.3084 23.2347 22.6404C23.1932 22.8998 23.1932 23.1384 23.2554 23.3978C23.3073 23.6468 23.3281 23.9166 23.3488 24.176C23.3696 24.5806 23.0894 24.9022 22.6952 24.9853C22.581 25.0164 22.4773 25.0371 22.3631 25.0579C22.2801 25.0683 22.1971 25.0683 22.1245 24.9541C22.3009 24.9022 22.4462 24.84 22.6122 24.8192C22.9546 24.7777 23.1309 24.4665 23.1309 24.2071C23.1309 23.8958 23.0687 23.5949 23.0376 23.2837C23.0376 23.2733 23.0168 23.2629 22.9961 23.2318C22.7885 23.294 22.5707 23.3563 22.3424 23.4393C22.2905 23.6468 22.2594 23.8336 22.2283 24.0307C22.2179 24.0411 22.2283 24.0307 22.2283 24.0307ZM21.0247 20.1814C20.9521 20.2436 20.8898 20.2955 20.8172 20.3577C20.9624 20.4304 20.9624 20.4304 20.9728 20.6068C20.8068 20.5549 20.6512 20.5756 20.4852 20.6794C20.537 20.8661 20.5889 21.0529 20.6408 21.2397C20.7757 21.7066 20.8483 22.1838 20.7757 22.6611C20.7549 22.8479 20.6616 23.0243 20.5993 23.2007C20.5889 23.2318 20.537 23.2629 20.5059 23.294C20.5059 23.0658 20.5785 22.8479 20.5993 22.6404C20.62 22.4225 20.6097 22.1942 20.5785 21.966C20.5474 21.7377 20.4955 21.5198 20.4333 21.2915C20.3814 21.0737 20.3503 20.8558 20.2154 20.669C20.1013 20.7001 19.9975 20.8039 19.9249 20.6379C19.7485 20.6794 19.5825 20.586 19.4061 20.6586C19.3231 20.7001 19.2193 20.7001 19.1363 20.7209C18.9911 20.752 18.8562 20.7728 18.7421 20.7935C18.6902 20.918 18.6487 21.0322 18.6279 21.1152C18.8043 21.3953 18.9703 21.6754 19.1467 21.9556C19.3646 21.8311 19.4891 21.6236 19.7174 21.5302C19.6966 21.5821 19.6655 21.6339 19.6344 21.6651C19.5202 21.7792 19.3854 21.8933 19.2712 22.0075C19.2401 22.0386 19.2193 22.0905 19.2193 22.132C19.2193 22.1631 19.2608 22.2046 19.292 22.2461C19.4684 22.1423 19.541 21.9452 19.7796 21.8518C19.624 22.0386 19.5099 22.1735 19.3957 22.3187C19.3542 22.381 19.3335 22.4225 19.3439 22.4951C19.3957 22.7441 19.458 23.0139 19.5099 23.2629C19.5514 23.4393 19.5825 23.6053 19.624 23.7817C19.6759 23.9788 19.7277 24.1863 19.8004 24.3731C19.8523 24.5184 19.9456 24.6325 20.039 24.7777C20.3295 24.5391 20.6097 24.342 20.8691 24.1345C20.8794 24.1448 20.8898 24.1552 20.9002 24.176C20.7031 24.425 20.4955 24.6844 20.2777 24.9334C20.371 25.0371 20.4852 25.1098 20.6201 25.1409C20.7134 25.1616 20.8068 25.1513 20.9002 25.1824C21.1077 25.2446 21.2841 25.1409 21.419 25.0164C21.6784 24.7881 21.8651 24.4976 21.9585 24.1552C22.0208 23.9166 22.0934 23.6883 22.1038 23.4289C22.1038 23.2422 22.1556 23.0554 22.166 22.8583C22.1764 22.7026 22.1971 22.5366 22.166 22.381C22.1038 22.0801 22.0519 21.7896 21.9481 21.4991C21.8236 21.1255 21.6472 20.7831 21.502 20.42C21.4916 20.3889 21.4501 20.3577 21.419 20.3474C21.3048 20.2955 21.17 20.2436 21.0247 20.1814ZM23.2866 21.0633C23.2554 20.8039 23.2243 20.5549 23.2139 20.3266C23.1932 20.0983 23.1828 19.8493 23.1724 19.6211C23.0998 19.6937 23.0687 19.7663 23.0272 19.8493C22.9649 19.9635 22.9131 20.0983 22.8197 20.1606C22.6848 20.254 22.6122 20.3681 22.581 20.5237C22.5603 20.6068 22.5188 20.669 22.498 20.752C22.3943 21.084 22.2386 21.4264 22.3735 21.7999C22.3839 21.8518 22.3943 21.9141 22.3943 21.966C22.4046 22.3187 22.4254 22.6715 22.3631 23.0139C22.3528 23.0761 22.3528 23.1488 22.3528 23.211C22.5499 23.2318 22.8197 23.1591 23.0791 23.0243C23.0791 22.962 23.0687 22.879 23.0687 22.8168C23.0583 22.6611 23.0687 22.5159 23.0998 22.3706C23.1413 22.2357 23.1309 22.0801 23.1413 21.9348C23.1413 21.7273 23.1309 21.5198 23.1102 21.3123C23.0998 21.1878 23.1309 21.0944 23.2866 21.0633ZM20.6097 19.3721C20.5267 19.3513 20.4852 19.3409 20.4125 19.3306C20.4748 19.4136 20.5059 19.4343 20.6097 19.3721ZM22.2698 20.6068C22.2801 20.6068 22.2905 20.6068 22.3113 20.6068C22.3113 20.5756 22.3113 20.5445 22.3113 20.503C22.3113 20.503 22.2905 20.503 22.2698 20.503C22.2698 20.5445 22.2698 20.5756 22.2698 20.6068ZM18.7421 22.049C18.7317 22.049 18.7213 22.049 18.7109 22.049C18.7109 22.0905 18.7109 22.1216 18.7006 22.1735C18.7109 22.1735 18.7421 22.1735 18.7421 22.1735C18.7421 22.1112 18.7421 22.0801 18.7421 22.049Z" fill="black"/>
<path d="M21.2217 11.8282C21.0557 11.7867 20.8793 11.7659 20.7029 11.7452C20.4851 11.7141 20.2672 11.6414 20.0493 11.6414C19.4994 11.6311 18.9495 11.6518 18.3996 11.6726C18.3684 11.6726 18.3062 11.6726 18.2751 11.7037C18.1505 11.7763 18.0053 11.8178 17.86 11.8386C17.6318 11.8801 17.3827 11.8697 17.1441 11.8593C17.0715 11.8593 16.9885 11.8593 16.9158 11.8697C16.4801 11.9631 16.0443 12.0668 15.5878 12.1602C15.2765 12.2328 14.9964 12.3677 14.7577 12.5545C14.7577 12.5545 14.7577 12.5545 14.7473 12.5545C14.6228 12.6479 14.4672 12.7412 14.4672 12.9384C14.4672 12.9591 14.4361 12.9903 14.4153 13.0214C14.2597 13.2081 14.1767 13.426 14.1041 13.6647C14.0418 13.8514 13.9796 14.0486 13.9069 14.225C13.8654 14.3287 13.8239 14.4428 13.8032 14.5362C13.7202 14.9305 13.6268 15.3144 13.5542 15.7087C13.5334 15.8747 13.44 15.9784 13.2844 16.0303C13.1599 16.0718 13.0561 16.1548 12.9524 16.2171C12.9212 16.2378 12.9109 16.2793 12.8797 16.3208C13.1391 16.3416 13.2533 16.1029 13.4919 16.0614C13.4711 16.1963 13.4711 16.3105 13.4296 16.4038C13.3985 16.4972 13.4089 16.5698 13.4815 16.6425C13.5542 16.6943 13.5542 16.767 13.5645 16.85C13.606 17.0886 13.6475 17.348 13.7409 17.5763C13.8965 18.0017 14.0833 18.4167 14.2493 18.8317C14.3116 19.0081 14.3842 19.1949 14.4361 19.3609C14.4465 19.4335 14.4672 19.5165 14.4776 19.5995C14.5191 20.0353 14.3842 20.4399 14.1456 20.8238C13.9899 21.0729 13.772 21.1455 13.5023 21.1247C13.4711 21.1247 13.4504 21.1144 13.4089 21.1144C13.2118 21.0832 13.0146 21.0521 12.8175 21.021C12.7034 21.0002 12.61 20.9587 12.5166 20.8965C12.2883 20.7512 12.0912 20.5852 11.8629 20.4503C11.5205 20.2532 11.3338 19.9419 11.0951 19.6514C11.2404 19.4335 11.2404 19.392 11.1055 19.2052C10.9499 18.9666 10.7839 18.7176 10.6179 18.479C10.5452 18.3752 10.4933 18.2507 10.4518 18.1469C10.234 17.929 10.2028 17.6489 10.2547 17.3584C10.2858 17.1716 10.3377 16.9641 10.3792 16.7774C10.4311 16.518 10.4933 16.2689 10.6075 16.0303C10.6594 15.9369 10.6594 15.8539 10.5971 15.7502C10.4934 15.7398 10.4 15.7398 10.2547 15.7294C10.4622 15.4908 10.649 15.2936 10.8254 15.0965C10.815 15.0861 10.7839 15.0654 10.7839 15.055C10.815 14.972 10.8669 14.9201 10.9499 14.8682V14.9409C11.3545 14.5985 11.9356 13.9656 12.0289 13.7892C11.9874 13.7373 11.9356 13.6854 11.8733 13.6335C11.9459 13.5505 12.0289 13.4779 12.1327 13.426C12.1431 13.4157 12.1638 13.4157 12.1742 13.4053C12.2053 13.3845 12.2468 13.3638 12.278 13.3534C12.2987 13.343 12.3091 13.343 12.3298 13.3327C12.7345 13.2081 13.1391 13.094 13.5542 12.9799C13.7617 12.9176 13.9692 12.8865 14.1974 12.9073C14.2493 12.9176 14.3012 12.8969 14.3842 12.8761C14.2701 12.7412 14.1352 12.7205 14.0003 12.7412C13.9796 12.7412 13.9692 12.7412 13.9484 12.7412C13.9484 12.7412 13.9484 12.7412 13.938 12.7412C13.8032 12.762 13.689 12.7931 13.5542 12.8242C13.3051 12.8658 13.0561 12.9903 12.7864 12.9695C12.7552 12.9695 12.7241 12.9799 12.7034 12.9903C12.3506 13.1563 11.9874 13.343 11.6347 13.509C11.6139 13.5402 11.562 13.5713 11.562 13.6024C11.5413 13.7373 11.4375 13.7892 11.3545 13.8411C11.313 13.8722 11.2819 13.9137 11.23 13.9656C11.3545 13.9967 11.4375 13.9344 11.5413 13.9241C11.5828 13.9241 11.6347 13.9241 11.6865 13.9552C11.6658 13.9759 11.6554 14.0071 11.6347 14.0278C11.4272 14.225 11.2093 14.4221 10.9914 14.6089C10.5971 14.9616 10.3066 15.387 10.0368 15.8228C10.0161 15.8539 10.0057 15.9266 10.0264 15.9473C10.0472 15.9681 10.1095 15.9784 10.151 15.9784C10.2443 15.9784 10.317 15.9266 10.4103 15.9888C10.3481 16.1859 10.2962 16.3831 10.2547 16.5698C10.2028 16.8604 10.1613 17.1509 10.1198 17.4414C10.0991 17.6385 10.0991 17.8357 10.2132 18.0224C10.3792 18.3026 10.5452 18.5827 10.7216 18.8628C10.8046 19.0289 10.9084 19.1741 10.9603 19.3505C10.9291 19.3609 10.9084 19.3609 10.8876 19.3713C10.8254 19.392 10.7839 19.4128 10.7735 19.4439C10.7527 19.4646 10.7735 19.5061 10.815 19.5788C10.8876 19.724 10.9603 19.8693 11.0536 19.9834C11.2819 20.2532 11.5413 20.5126 11.7903 20.7616C11.9874 20.9483 12.2157 21.0936 12.361 21.3322C12.3713 21.353 12.4025 21.3737 12.4336 21.3945C12.4128 21.3322 12.3817 21.2596 12.3506 21.1662C12.3713 21.1766 12.3921 21.187 12.4232 21.1974C12.4751 21.2181 12.5373 21.2389 12.5788 21.27C12.5788 21.3737 12.5685 21.4256 12.4647 21.4152H12.4543C12.4751 21.4256 12.4751 21.4464 12.4751 21.4567C12.4751 21.4879 12.4751 21.5086 12.4751 21.5294C12.4647 21.602 12.4025 21.6746 12.361 21.7473C12.2987 21.851 12.3091 21.8614 12.4336 21.9029H12.444L12.4336 21.9133C12.3713 21.9755 12.2883 22.0274 12.2572 22.1104C12.1327 22.3698 12.0186 22.6396 11.9978 22.9301C11.9563 23.3659 11.8318 23.7809 11.6969 24.1855C11.6139 24.4242 11.5102 24.6421 11.4375 24.8807C11.2819 25.4202 11.1366 25.9598 11.0018 26.4889C10.981 26.5719 10.9603 26.6445 10.9706 26.7276C10.9603 26.8313 10.981 26.9247 10.981 27.0492C11.0433 27.1011 11.1159 27.1426 11.1159 27.2671C11.0536 27.8481 11.064 28.4292 11.0951 29.0102C11.0951 29.0517 11.0951 29.1139 11.1263 29.1554C11.1366 29.1762 11.1885 29.1969 11.2093 29.1969C11.2196 29.1969 11.2404 29.1866 11.2508 29.1658C11.2611 29.1554 11.2611 29.1451 11.2611 29.1451C11.2715 29.0932 11.2611 29.0309 11.2508 28.9791C11.2093 28.2943 11.2404 27.6199 11.3234 26.9558C11.3338 26.8832 11.3338 26.7794 11.3026 26.7276C11.2196 26.6238 11.2611 26.5304 11.2819 26.4267C11.3649 26.105 11.4375 25.7834 11.5413 25.4514C11.6658 25.0571 11.7384 24.6421 11.9148 24.2685C12.0082 24.061 12.0497 23.8431 12.1223 23.6252C12.1431 23.5319 12.1431 23.4489 12.1638 23.3244C12.2261 23.397 12.2572 23.4385 12.2883 23.48C12.4543 23.6979 12.6411 23.8743 12.8901 23.9884C13.4296 24.227 13.9796 24.4449 14.5398 24.6109C15.2765 24.8081 16.0132 25.0156 16.7706 25.2023C17.0507 25.2646 17.3309 25.3061 17.6214 25.3476C17.8185 25.3684 18.0157 25.3683 18.2335 25.3683C18.3062 25.5551 18.3788 25.7522 18.3996 25.9598C18.2854 26.022 18.1505 26.0635 18.0572 26.1258C17.7874 26.3437 17.5695 26.8313 17.7459 27.2775C17.8704 27.5784 18.1194 27.7132 18.4099 27.7962C18.6382 27.8689 18.8665 27.8896 19.0636 27.7859C19.4164 27.6095 19.6239 27.2982 19.6446 26.8832C19.655 26.6757 19.5928 26.4785 19.406 26.3333C19.2296 26.1984 19.0532 26.0739 18.825 25.9909C18.7835 25.9805 18.7316 25.9598 18.6901 25.939C18.6797 25.7626 18.7523 25.607 18.8146 25.4514C18.8768 25.2853 18.9702 25.192 19.1466 25.2023C19.1881 25.2023 19.24 25.2127 19.2711 25.192C19.3022 25.1816 19.3334 25.1297 19.3749 25.0986C19.323 25.0675 19.2815 25.0467 19.24 25.0467C19.1258 25.026 19.0117 25.026 18.8872 25.0052C18.8561 25.0052 18.8353 25.0156 18.8042 25.0156C18.6901 25.0363 18.5863 25.0571 18.4722 25.0778C18.3684 25.0882 18.3166 25.0467 18.2854 24.9637C18.192 24.6628 18.1298 24.3412 18.1298 24.0195C18.1298 23.8639 18.192 23.8328 18.3477 23.8431C18.3892 23.8535 18.4411 23.8743 18.4826 23.8639C18.7108 23.8431 18.7212 23.8431 18.7731 24.0714C18.7835 24.1544 18.7835 24.2478 18.7835 24.3412C18.7835 24.4138 18.7835 24.4968 18.7835 24.5694C18.8353 24.5383 18.8665 24.4968 18.8768 24.4553C18.8872 24.2789 18.9287 24.0921 18.8768 23.9054C18.8457 23.7913 18.9183 23.7705 19.0117 23.7809C19.0843 24.0714 18.9702 24.3723 19.0532 24.6524C19.0843 24.6109 19.1155 24.5591 19.1258 24.5176C19.1362 24.3204 19.1674 24.1129 19.1674 23.9158C19.1777 23.7186 19.0947 23.6252 18.8872 23.6045C18.6589 23.5941 18.4099 23.5837 18.1713 23.5941C17.8081 23.6149 17.4554 23.6045 17.1026 23.563C17.0611 23.5526 17.0092 23.5319 16.947 23.5111C17.1337 23.3036 17.3827 23.1791 17.5176 22.9197C17.3724 22.9405 17.3205 23.0131 17.2479 23.0753C17.1337 23.1791 17.0092 23.2932 16.8847 23.3866C16.781 23.48 16.6461 23.5215 16.5008 23.4592C16.3763 23.4074 16.2414 23.3866 16.1169 23.3244C15.7642 23.1687 15.4218 23.0027 15.069 22.8575C14.5398 22.6396 14.0107 22.4217 13.5023 22.1519C13.2221 22.0897 12.9212 22.0689 12.6515 21.9548C12.6826 21.6954 12.6515 21.4567 12.8071 21.2285C12.8279 21.2389 12.859 21.2492 12.8901 21.2596C12.9316 21.2804 12.9939 21.3011 13.0354 21.3219C13.2636 21.4256 13.4919 21.4464 13.7305 21.353C13.7824 21.3322 13.8343 21.3011 13.8965 21.3011C14.0833 21.3115 14.1871 21.2077 14.2701 21.0625C14.3012 21.0106 14.3531 20.9483 14.3946 20.8861C14.7162 20.4607 14.7992 19.9834 14.7577 19.4646C14.737 19.2467 14.6643 19.0496 14.6021 18.8421C14.5295 18.5827 14.4672 18.3129 14.3946 18.0536C14.2804 17.6593 14.1456 17.2546 14.0107 16.8604C13.9484 16.6736 13.8862 16.4765 13.7824 16.3105C13.7513 16.2482 13.7305 16.1859 13.7513 16.1133C13.8032 15.8643 13.855 15.636 13.9069 15.387C13.9277 15.304 13.938 15.2418 13.9484 15.1588C14.0729 14.5155 14.2389 13.8722 14.4983 13.2704C14.4983 13.26 14.5087 13.26 14.5087 13.2496C14.5295 13.1978 14.5502 13.1459 14.5813 13.094C14.6021 13.0525 14.6332 12.9799 14.6228 12.9384C14.5917 12.8243 14.6332 12.7724 14.737 12.7309C14.7785 12.7205 14.82 12.6894 14.8511 12.6582C15.0275 12.5026 15.2454 12.4092 15.4633 12.347C15.9302 12.2225 16.4074 12.1083 16.8847 12.0357C17.1752 11.9942 17.4658 12.015 17.7666 11.9942C17.9327 11.9838 18.0779 11.9631 18.2232 11.9008C18.3269 11.8489 18.4618 11.8282 18.5967 11.8178C18.825 11.7971 19.0636 11.7763 19.2919 11.7763C19.6861 11.7659 20.0908 11.7556 20.4747 11.8489C20.7444 11.9112 21.0142 11.9319 21.2736 11.9735C21.367 11.9838 21.45 11.9838 21.5434 11.9112C21.5537 11.9008 21.5641 11.8904 21.5745 11.8801C21.4292 11.8904 21.3255 11.8593 21.2217 11.8282ZM18.5967 25.3165C18.6071 25.3268 18.6174 25.3476 18.6278 25.358C18.5863 25.4514 18.5552 25.5344 18.4929 25.6692C18.4411 25.5447 18.4203 25.4825 18.3788 25.3891C18.4722 25.3476 18.5241 25.3268 18.5967 25.3165ZM18.5241 26.2088C18.8042 26.188 19.0221 26.2814 19.2296 26.4474C19.4579 26.603 19.5201 26.8728 19.4164 27.1218C19.2919 27.402 18.991 27.5887 18.6901 27.5784C18.5448 27.5784 18.3684 27.5057 18.1713 27.402C18.3166 27.2567 18.4618 27.1115 18.5863 26.9766C18.5759 26.9662 18.5656 26.9558 18.5552 26.9351C18.4826 26.9973 18.4099 27.0388 18.3373 27.1011C18.2647 27.1633 18.2024 27.2256 18.109 27.3086C18.0779 27.2671 18.0468 27.2256 18.0157 27.1841C18.1609 26.9869 18.3581 26.8417 18.5448 26.7068C18.4099 26.6653 18.3373 26.7587 18.2439 26.8209C18.1609 26.8832 18.0675 26.9454 17.9742 27.0284C17.8912 26.6134 18.1609 26.2399 18.5241 26.2088ZM12.5477 23.3762C12.3195 23.1065 12.2468 22.8367 12.3195 22.5358C12.3402 22.4424 12.3921 22.3594 12.4232 22.266C12.4647 22.1623 12.527 22.1934 12.61 22.2245C12.5996 22.6188 12.6307 22.982 12.5477 23.3762ZM12.7034 22.2868C12.8797 22.2557 13.0354 22.2868 13.191 22.3283C13.357 22.3802 13.5126 22.4424 13.689 22.5151C14.1663 22.7122 14.6436 22.9301 15.1209 23.1376C15.3284 23.231 15.5255 23.314 15.733 23.4177C16.2207 23.6875 16.7498 23.7705 17.2997 23.812C17.4761 23.8224 17.6525 23.8328 17.8185 23.8431C17.8496 23.8431 17.9015 23.8639 17.9534 23.8846C17.86 24.2997 18.0364 24.6836 18.0987 25.0882C17.9327 25.1608 17.7666 25.1712 17.6214 25.109C17.362 24.9845 17.0819 24.9637 16.8121 24.8911C16.5423 24.8184 16.2726 24.7458 16.0028 24.6836C15.816 24.6317 15.6293 24.5902 15.4425 24.5487C14.737 24.4345 14.0937 24.1752 13.44 23.9261C13.2948 23.8639 13.1599 23.8016 13.025 23.7498C12.8901 23.6875 12.8486 23.5837 12.8694 23.4385C12.9005 23.1791 12.9316 22.9405 12.9731 22.6811C12.9835 22.5877 12.9731 22.5151 12.9835 22.4217C12.9627 22.4217 12.942 22.4217 12.9212 22.4113C12.8382 22.7848 12.8901 23.1687 12.7552 23.5319C12.7241 23.5111 12.6826 23.4904 12.6826 23.48C12.6826 23.0961 12.6826 22.7018 12.7034 22.2868Z" fill="black"/>
<path d="M22.0933 12.1493C22.0206 12.1493 21.9584 12.1597 21.9065 12.1597C21.9584 12.0248 22.0621 11.9833 22.1763 11.9937C22.2904 12.0041 22.3941 12.0145 22.4979 12.0663C22.8818 12.2635 23.2553 12.4606 23.5666 12.7823C23.5977 12.8134 23.6392 12.8445 23.6703 12.8756C24.1269 13.2699 24.6041 13.6538 25.0607 14.0377C25.1852 14.1415 25.3201 14.2452 25.4342 14.3386C25.4342 14.4942 25.2993 14.4838 25.1956 14.5357C25.2682 14.6602 25.3304 14.7847 25.4031 14.8989C25.5587 15.1375 25.6106 15.3969 25.6832 15.6563C25.7143 15.8015 25.7455 15.9572 25.7558 16.1024C25.7766 16.2581 25.7766 16.4241 25.787 16.5797C25.7973 16.7353 25.8181 16.8806 25.8181 17.0362C25.8181 17.1504 25.8077 17.2541 25.787 17.3683C25.7455 17.5135 25.704 17.6588 25.6625 17.804C25.6313 17.8974 25.6002 17.9804 25.5587 18.0738C25.4134 18.3954 25.3304 18.7378 25.2993 19.0906C25.2786 19.2359 25.2474 19.3707 25.2163 19.5056C25.1126 19.516 25.0399 19.5471 24.9673 19.5575C24.9569 19.6094 24.9465 19.6613 24.9362 19.7028C24.905 19.8999 24.822 19.9518 24.6249 19.8999C24.5315 19.8792 24.4381 19.8377 24.3551 19.7961C23.9194 19.5368 23.5562 19.2359 23.4213 18.7171C23.3798 18.5718 23.3591 18.4162 23.3383 18.2709C23.3176 18.1361 23.3072 18.0115 23.2968 17.8663C23.2968 17.8144 23.2968 17.7522 23.3072 17.7003C23.3695 17.5239 23.3798 17.3371 23.3798 17.1296C23.3695 16.2269 23.1931 15.3346 22.9959 14.4631C22.9026 14.0481 22.7365 13.6538 22.5394 13.2907C22.4668 13.1661 22.4253 13.0313 22.3526 12.8964C22.2904 12.7926 22.2281 12.6681 22.1348 12.5747C22.0621 12.4814 22.0206 12.3361 22.0933 12.1493ZM25.0503 14.2763C24.8635 14.0999 24.7183 13.9236 24.5523 13.7783C24.1995 13.4878 23.8156 13.218 23.4732 12.9068C23.1619 12.6266 22.8092 12.4087 22.4357 12.222C22.3941 12.2012 22.3423 12.1908 22.28 12.1805C22.446 12.4917 22.6224 12.7719 22.7677 13.0624C22.9441 13.4152 23.1516 13.7679 23.2346 14.1622C23.3487 14.6706 23.4628 15.1686 23.5562 15.6874C23.6185 16.0194 23.6185 16.3618 23.66 16.6938C23.66 16.7146 23.6807 16.725 23.6911 16.7561C23.9194 16.6835 24.0854 16.476 24.3448 16.4448C24.3448 16.476 24.3551 16.4863 24.3551 16.4863C24.1061 16.6523 23.8571 16.8184 23.5977 16.9844C23.5977 17.0259 23.5873 17.0466 23.5873 17.0881C23.6081 17.2853 23.5977 17.4824 23.5251 17.6795C23.5043 17.7314 23.5043 17.804 23.5147 17.8663C23.5355 18.0427 23.5458 18.2191 23.5666 18.3954C23.6081 18.7067 23.6807 19.0076 23.8986 19.2462C24.0335 19.3915 24.2099 19.5264 24.3655 19.6613C24.4381 19.7131 24.5108 19.7546 24.6041 19.7754C24.739 19.8169 24.8013 19.7754 24.8117 19.6301C24.822 19.5368 24.8117 19.4641 24.822 19.3708C24.8739 19.3708 24.905 19.3604 24.9362 19.35C25.1022 19.3292 25.1229 19.3189 25.1644 19.1632C25.1748 19.1321 25.1748 19.101 25.1852 19.0699C25.2059 18.6963 25.3097 18.3332 25.4549 17.9804C25.4861 17.9078 25.5068 17.8455 25.5172 17.7833C25.5691 17.4928 25.6106 17.2023 25.6521 16.9117C25.6625 16.8495 25.6832 16.7561 25.6417 16.7042C25.5276 16.4656 25.6002 16.2062 25.5795 15.9572C25.538 15.5422 25.4342 15.1583 25.1956 14.8159C25.1333 14.7432 25.1022 14.6499 25.0503 14.5669C24.9777 14.4631 24.9569 14.3697 25.0503 14.2763Z" fill="black"/>
<path d="M16.2932 15.6158C16.2102 15.678 16.148 15.7195 16.0753 15.7714C16.0235 15.8025 15.9612 15.844 15.9093 15.7714C15.8575 15.7091 15.899 15.6469 15.9508 15.6054C15.9612 15.595 15.9716 15.5846 15.982 15.5743C16.2206 15.4186 16.4385 15.2526 16.6771 15.1281C16.7498 15.0762 16.8846 15.0866 16.978 15.1177C17.2167 15.1696 17.4138 15.2837 17.4864 15.5431C17.5487 15.7818 17.4657 15.9893 17.2997 16.1449C17.1752 16.2694 16.978 16.2902 16.812 16.2072C16.7705 16.1864 16.7186 16.1449 16.6668 16.1242C16.5111 16.0619 16.4074 15.9478 16.3555 15.7818C16.3451 15.7403 16.3244 15.6884 16.2932 15.6158Z" fill="black"/>
<path d="M22.6329 15.1698C22.5913 15.232 22.5602 15.2735 22.5291 15.3151C22.4046 15.232 22.2905 15.1594 22.1659 15.0764C22.1348 15.1075 22.1037 15.1387 22.0933 15.1594C22.0622 15.3566 21.9066 15.4707 21.7405 15.5537C21.6679 15.5952 21.6057 15.6678 21.5019 15.6263C21.3878 15.5744 21.2529 15.5329 21.1699 15.4499C21.0143 15.2943 20.9209 14.9104 21.1388 14.651C21.1699 14.6199 21.2218 14.568 21.2633 14.568C21.5849 14.5161 21.8858 14.5784 22.1348 14.7963C22.2386 14.8793 22.3527 14.9519 22.4668 15.0349C22.5187 15.0868 22.5602 15.1179 22.6329 15.1698Z" fill="black"/>
<path d="M21.948 25.9489C22.3423 25.565 22.7884 25.2538 23.2138 24.9217C23.2449 24.8491 23.1516 24.735 23.2761 24.7142C23.411 24.6831 23.4006 24.7972 23.4421 24.8802C23.5873 25.2745 23.743 25.6584 23.8882 26.0631C23.9505 26.2291 23.992 26.4054 24.0335 26.5611C24.0439 26.613 24.0335 26.6752 24.0439 26.7478C23.9505 26.7271 23.8882 26.7167 23.8364 26.7063C23.8364 26.7167 23.826 26.7375 23.826 26.7478C23.9401 27.3393 24.0231 27.941 23.992 28.5532C23.992 28.6051 23.9816 28.6673 23.9816 28.7192C23.9609 28.8022 23.909 28.823 23.8364 28.7815C23.8156 28.3664 23.826 27.9307 23.7741 27.526C23.7222 27.111 23.6185 26.7063 23.5458 26.3017C23.6911 26.1979 23.7118 26.3743 23.826 26.3951C23.743 25.897 23.5355 25.4716 23.3072 25.0255C23.2242 25.0774 23.1308 25.1085 23.0582 25.1708C22.7884 25.3783 22.529 25.6065 22.2593 25.814C22.1866 25.8763 22.114 25.9282 22.0414 25.9904C21.9791 25.9801 21.9687 25.9697 21.948 25.9489Z" fill="black"/>
<path d="M16.4697 19.0712C16.4593 18.926 16.5423 18.8222 16.6046 18.7081C16.6668 18.5836 16.7291 18.4695 16.8121 18.3138C16.5838 18.3761 16.5008 18.5732 16.3556 18.6562C16.2414 18.6355 16.231 18.5628 16.2725 18.4383C16.314 18.4591 16.3556 18.4695 16.3971 18.4902C16.6149 18.3346 16.8328 18.1686 17.0818 17.9922C17.0818 18.0544 17.113 18.1167 17.0922 18.1374C16.8951 18.3761 16.8017 18.677 16.6564 18.9571C16.6253 18.9986 16.5942 19.0609 16.5631 19.1024C16.5112 19.092 16.4904 19.0816 16.4697 19.0712Z" fill="black"/>
<path d="M20.6199 15.7188C20.7029 15.781 20.7548 15.8018 20.7755 15.8433C20.9311 16.0404 21.0556 16.2375 21.2113 16.4347C21.2943 16.528 21.3877 16.6214 21.4707 16.7252C21.5433 16.8082 21.5433 16.8186 21.4707 16.9431C21.2528 16.7771 20.6614 15.9574 20.6199 15.7188Z" fill="black"/>
<path d="M22.114 26.1776C22.1348 26.1257 22.1451 26.0946 22.1555 26.0842C22.4772 25.8248 22.7884 25.5862 23.1101 25.3268C23.1205 25.3164 23.1516 25.3164 23.1723 25.3164C23.0997 25.4513 22.3112 26.105 22.114 26.1776Z" fill="black"/>
<path d="M11.645 19.5681C11.7488 19.3398 12.1949 18.9352 12.4336 18.8418C12.4232 18.8625 12.4232 18.8937 12.4128 18.9041C12.1742 19.1219 11.9459 19.3606 11.7073 19.5785C11.6969 19.5785 11.6761 19.5681 11.645 19.5681Z" fill="black"/>
<path d="M23.2346 25.7518C23.2242 25.7726 23.2138 25.7933 23.1931 25.8141C22.9544 25.9801 22.7366 26.1461 22.4979 26.3121C22.446 26.3432 22.3838 26.3951 22.3008 26.3225C22.6121 26.1254 22.9129 25.9178 23.2035 25.7207C23.2138 25.7207 23.2242 25.7415 23.2346 25.7518Z" fill="black"/>
<path d="M11.2507 28.3154C11.5828 28.0664 11.9148 27.807 12.2468 27.5684C12.1742 27.724 11.479 28.2635 11.2715 28.3673C11.2611 28.3361 11.2507 28.3258 11.2507 28.3154Z" fill="black"/>
<path d="M18.2958 13.3633C18.4514 13.467 18.5655 13.6745 18.6278 13.9443C18.6382 14.0169 18.7004 14.1103 18.5967 14.1933C18.5552 14.0896 18.5448 13.9858 18.5033 13.9028C18.4618 13.8198 18.4203 13.7368 18.3788 13.6434C18.3477 13.55 18.2439 13.4878 18.2958 13.3633Z" fill="black"/>
<path d="M12.5061 19.2148C12.3401 19.4535 12.1845 19.6921 11.9354 19.8893C11.9251 19.827 11.9043 19.7751 11.9147 19.7648C12.1015 19.5676 12.2778 19.3601 12.5061 19.2148Z" fill="black"/>
<path d="M19.0221 17.1932C18.9703 17.0687 18.9391 16.9857 18.8976 16.882C18.8769 16.8093 18.8873 16.7263 18.9703 16.6641C19.0429 16.7367 19.1051 16.8093 19.1778 16.9027C19.1363 16.9961 19.0844 17.0895 19.0221 17.1932Z" fill="black"/>
<path d="M22.2178 24.0412C22.4357 23.896 22.6328 23.7611 22.8507 23.6158C22.8611 23.6055 22.8922 23.6158 22.9544 23.6055C22.8403 23.73 22.7054 23.7819 22.6017 23.8649C22.4979 23.9582 22.3734 24.0412 22.2593 24.145C22.2489 24.0931 22.2385 24.062 22.2178 24.0412C22.2281 24.0309 22.2178 24.0412 22.2178 24.0412Z" fill="black"/>
<path d="M10.9602 17.2335C10.8149 17.4618 10.597 17.5967 10.3999 17.7523C10.3999 17.5967 10.5244 17.524 10.6178 17.441C10.7215 17.358 10.8253 17.2646 10.9291 17.1816C10.9291 17.2128 10.9498 17.2231 10.9602 17.2335Z" fill="black"/>
<path d="M11.4583 28.5323C11.5309 28.3767 11.9148 28.0862 12.1845 27.9824C12.0185 28.1484 11.6035 28.4701 11.4583 28.5323Z" fill="black"/>
<path d="M17.196 22.8047C16.9574 22.9914 16.7395 23.1782 16.5009 23.3753C16.4905 23.365 16.4801 23.3546 16.4697 23.3442C16.4905 23.3131 16.5009 23.2612 16.532 23.2405C16.7187 23.0537 17.03 22.8358 17.196 22.8047Z" fill="black"/>
<path d="M12.2158 19.7246C12.3715 19.5586 12.5375 19.4029 12.7242 19.2266C12.6723 19.4548 12.4648 19.6623 12.2158 19.7246Z" fill="black"/>
<path d="M19.2193 13.2715C19.292 13.4271 19.2816 13.7073 19.2193 13.9666C19.1363 13.6969 19.1467 13.4064 19.2193 13.2715Z" fill="black"/>
<path d="M13.4607 22.2038C13.6267 21.9756 13.8861 21.7681 14.0625 21.7266C13.9068 21.8822 13.7408 22.0378 13.5748 22.1935C13.5541 22.2038 13.4918 22.1935 13.4607 22.2038Z" fill="black"/>
<path d="M22.3838 24.3409C22.4668 24.1645 22.6639 24.0193 22.9337 23.957C22.7677 24.1127 22.5913 24.2164 22.3838 24.3409Z" fill="black"/>
<path d="M12.8071 26.2188C12.61 26.3225 12.4232 26.4366 12.2261 26.5404C12.2883 26.364 12.527 26.2291 12.8071 26.2188Z" fill="black"/>
<path d="M21.6265 27.7543C21.668 27.5156 21.751 27.4326 22.0207 27.3496C21.8962 27.4741 21.7821 27.609 21.6265 27.7543Z" fill="black"/>
<path d="M12.2366 26.2394C12.3611 26.0526 12.5478 25.9488 12.7554 25.8555C12.6101 26.0111 12.4337 26.146 12.2366 26.2394Z" fill="black"/>
<path d="M13.4399 15.5742C13.305 15.761 13.1909 15.8751 13.0249 15.9581C13.0353 15.9166 13.0353 15.8647 13.056 15.8336C13.1494 15.7195 13.2532 15.6261 13.4399 15.5742Z" fill="black"/>
<path d="M14.6541 17.6175C14.7474 17.4827 14.8616 17.4204 15.0587 17.3789C14.9238 17.5449 14.8097 17.6072 14.6541 17.6175Z" fill="black"/>
<path d="M13.7825 22.2347C13.8447 22.0687 13.9796 21.965 14.1249 21.8301C14.073 21.9961 13.99 22.0998 13.7825 22.2347Z" fill="black"/>
<path d="M18.493 22.774C18.3893 22.6703 18.2959 22.5769 18.1921 22.4628C18.2025 22.4524 18.2129 22.442 18.2233 22.4316C18.327 22.525 18.4308 22.6288 18.5345 22.7325C18.5242 22.7429 18.5138 22.7533 18.493 22.774Z" fill="black"/>
<path d="M14.6228 17.3485C14.6436 17.1721 14.7784 17.1306 14.9029 17.0684C14.8511 17.2136 14.8511 17.2136 14.6228 17.3485Z" fill="black"/>
<path d="M10.4519 18.1581C10.4727 17.9921 10.6075 17.9194 10.732 17.7949C10.7113 17.9817 10.6905 18.0024 10.4519 18.1581Z" fill="black"/>
<path d="M20.2463 26.1582C20.4331 26.1686 20.4331 26.1686 20.4642 26.3968C20.3708 26.3346 20.319 26.2723 20.2463 26.1582Z" fill="black"/>
<path d="M15.017 27.258C14.9443 27.1854 14.8821 27.1024 14.8198 27.0194C14.8302 27.009 14.8406 26.9987 14.8406 26.9883C14.8717 26.9987 14.9132 26.9987 14.934 27.0194C14.9858 27.0817 15.0273 27.1543 15.0792 27.2269C15.0585 27.2373 15.0377 27.2477 15.017 27.258Z" fill="black"/>
<path d="M15.3284 21.5085C15.2246 21.3944 15.1416 21.3114 15.0586 21.1973C15.235 21.1973 15.3076 21.2803 15.3284 21.5085Z" fill="black"/>
<path d="M22.1866 27.8677C22.0933 27.9196 21.9895 27.9507 21.865 28.0129C21.9895 27.8573 22.0206 27.8262 22.1763 27.8262C22.1866 27.8262 22.1866 27.8573 22.1866 27.8677Z" fill="black"/>
<path d="M15.1729 26.7891C15.3285 26.8409 15.4011 26.9136 15.4322 27.0588C15.3077 27.0173 15.2351 26.9343 15.1729 26.7891Z" fill="black"/>
<path d="M15.4527 21.208C15.3594 21.1873 15.2867 21.1458 15.2556 21.042C15.3905 21.0316 15.432 21.1043 15.4527 21.208Z" fill="black"/>
<path d="M18.5656 19.6211C18.6071 19.7249 18.5864 19.7767 18.4826 19.8079C18.4515 19.7249 18.493 19.6833 18.5656 19.6211Z" fill="black"/>
<path d="M22.7055 18.6875C22.747 18.7913 22.7263 18.8431 22.6225 18.8743C22.5914 18.7913 22.6329 18.7498 22.7055 18.6875Z" fill="black"/>
<path d="M18.2645 19.0391C18.306 19.1428 18.2853 19.1947 18.1815 19.2258C18.1504 19.1324 18.1815 19.0806 18.2645 19.0391Z" fill="black"/>
<path d="M22.1346 18.7693C22.0931 18.79 22.062 18.8212 22.0413 18.8212C22.0205 18.8108 22.0101 18.7797 21.979 18.7589C21.9998 18.7485 22.0205 18.7174 22.0413 18.707C22.062 18.707 22.0931 18.7278 22.1346 18.7693Z" fill="black"/>
<path d="M22.2283 19.3187C22.249 19.2876 22.2698 19.2772 22.2801 19.2461C22.3009 19.2668 22.3216 19.2772 22.3424 19.298C22.3424 19.3083 22.3216 19.3395 22.3113 19.3395C22.2801 19.3499 22.2594 19.3395 22.2283 19.3187Z" fill="black"/>
<path d="M18.8042 19.1117C18.825 19.0806 18.8457 19.0702 18.8561 19.0391C18.8768 19.0598 18.8976 19.0702 18.9183 19.0909C18.9183 19.1013 18.8976 19.1324 18.8872 19.1324C18.8561 19.1532 18.8353 19.1324 18.8042 19.1117Z" fill="black"/>
<path d="M11.344 19.6094C11.3647 19.6301 11.3855 19.6613 11.4166 19.682C11.4062 19.6924 11.3959 19.6924 11.3959 19.7028C11.3751 19.682 11.3544 19.6509 11.3232 19.6301C11.3232 19.6198 11.3336 19.6094 11.344 19.6094Z" fill="black"/>
<path d="M21.8442 24.9939C21.865 24.9731 21.8857 24.9628 21.9065 24.9316C21.9169 24.942 21.9169 24.942 21.9272 24.9524C21.9065 24.9731 21.8961 24.9939 21.8754 25.025C21.8546 25.0147 21.8546 25.0043 21.8442 24.9939Z" fill="black"/>
<path d="M23.0375 22.2027C22.9441 22.2754 22.8299 22.348 22.7158 22.4206C22.6847 22.3687 22.6536 22.3169 22.6328 22.2546C22.7054 22.1924 22.7677 22.1405 22.8403 22.0886C22.9441 22.0367 22.9648 22.0471 23.0375 22.2027Z" fill="black"/>
<path d="M24.2617 16.8086C24.1164 16.985 23.9401 17.1302 23.6807 17.2444C23.7222 17.1614 23.7325 17.1302 23.7533 17.1095C23.8986 16.9642 24.0646 16.8708 24.2617 16.8086Z" fill="black"/>
<path d="M23.8883 14.5885C24.0336 14.5574 24.1269 14.6404 24.1788 14.796C24.0751 14.7441 23.9713 14.6923 23.8779 14.6404C23.8779 14.6196 23.8779 14.5989 23.8883 14.5885Z" fill="black"/>
<path d="M24.0749 15.0762C23.8882 15.0139 23.8155 14.9101 23.7429 14.7441C23.9089 14.8479 23.9816 14.9413 24.0749 15.0762Z" fill="black"/>
<path d="M16.7914 15.7922C16.8429 15.7922 16.8848 15.7504 16.8848 15.6988C16.8848 15.6473 16.8429 15.6055 16.7914 15.6055C16.7398 15.6055 16.698 15.6473 16.698 15.6988C16.698 15.7504 16.7398 15.7922 16.7914 15.7922Z" fill="white"/>
<path d="M21.5538 15.1594C21.6054 15.1594 21.6472 15.1176 21.6472 15.066C21.6472 15.0145 21.6054 14.9727 21.5538 14.9727C21.5023 14.9727 21.4604 15.0145 21.4604 15.066C21.4604 15.1176 21.5023 15.1594 21.5538 15.1594Z" fill="white"/>
<path d="M19.8108 17.7932C20.0805 17.6479 20.4229 17.5649 20.7653 17.5546C20.8795 17.5546 20.9728 17.5546 21.087 17.5649C21.2322 17.5857 21.3671 17.6064 21.4709 17.6583C21.5124 17.6894 21.585 17.6687 21.6057 17.6168C21.6369 17.5753 21.6161 17.5027 21.5642 17.4819C21.4294 17.4093 21.2633 17.3885 21.1077 17.3678C20.9936 17.3574 20.8795 17.3574 20.7653 17.3574C20.3918 17.3782 20.0287 17.4716 19.7278 17.6272C19.6759 17.6479 19.6551 17.7102 19.6863 17.7621C19.707 17.8036 19.7693 17.8243 19.8108 17.7932Z" fill="white"/>
<path d="M22.1763 13.9756C21.8962 13.8926 21.6368 13.8096 21.3151 13.9653C21.284 13.9134 21.2217 13.8719 21.2321 13.8408C21.2632 13.7993 21.3151 13.737 21.3774 13.7266C21.6368 13.6333 22.0933 13.737 22.2074 13.903C22.2178 13.9134 22.1971 13.9341 22.1763 13.9756Z" fill="black"/>
<path d="M15.6604 14.2257C16.0235 13.9456 16.6253 13.9456 17.0196 14.2257C16.781 14.3295 16.5942 14.1842 16.3867 14.1946C16.1584 14.1946 15.9302 14.2154 15.6604 14.2257Z" fill="black"/>
</svg>
