<svg width="13" height="11" viewBox="0 0 13 11" fill="none" xmlns="http://www.w3.org/2000/svg">
<path d="M10.5803 0.373813C9.26023 1.56011 8.07815 2.85404 6.86007 4.11616C5.699 2.92986 4.10589 1.09782 2.16177 1.59191C1.92475 1.65061 0.859685 1.88298 0.973693 2.23031C1.0127 2.35261 1.17771 2.40153 1.38172 2.41376C1.31571 2.40887 1.48073 2.43333 1.84075 2.68282C2.17077 2.91029 2.47379 3.16712 2.77681 3.41906C3.65287 4.14796 4.46892 4.92089 5.27897 5.69871C4.51992 6.44474 3.75187 7.18342 2.95682 7.90254C2.30278 8.49202 1.46272 9.33099 0.676673 9.69544C-0.868426 10.4146 0.547665 11.4052 1.78975 10.8255C3.70387 9.93515 5.23397 8.4431 6.65006 7.02199C7.74513 8.08843 8.8132 9.19402 9.65325 10.3803C10.0463 10.9331 12.5004 10.1479 12.2604 9.8104C11.1563 8.24987 9.69226 6.81408 8.23416 5.43455C9.72226 3.92048 11.1323 2.34038 12.7284 0.907037C13.8235 -0.0689093 11.3004 -0.274372 10.5803 0.373813ZM1.41172 2.41865C1.72074 2.43088 2.11077 2.36484 2.30878 2.32081C1.80775 2.43822 1.51673 2.42599 1.41172 2.41865Z" fill="black" fill-opacity="0.5"/>
</svg>
