<svg width="90" height="90" viewBox="0 0 90 90" fill="none" xmlns="http://www.w3.org/2000/svg">
<g clip-path="url(#clip0)">
<path d="M28.0863 13.8676C27.6984 13.9645 27.6014 14.0615 27.5044 14.0615C24.7891 13.6736 22.0737 13.2857 19.4553 12.8978C18.8735 12.8008 18.2916 12.8008 18.0977 11.8311C21.4918 11.928 24.7891 11.928 28.0863 13.8676Z" fill="#EB584A"/>
<path d="M24.9844 2.71484C25.4693 3.10275 25.9541 3.19973 26.0511 3.49066C27.3118 6.10904 29.1544 8.43648 30.9969 10.8609C30.3181 11.0549 29.8332 10.8609 29.6393 10.473C28.0876 8.14555 25.9541 6.30299 24.9844 3.58764C24.9844 3.39368 24.9844 3.19973 24.9844 2.71484Z" fill="#EB584A"/>
<path d="M34.0003 10.0856C33.2245 8.34002 34.7761 1.74559 36.8127 0C36.7157 0.678839 36.7157 1.06675 36.7157 1.45465C36.4248 2.42442 36.0368 3.29722 35.6489 4.36396C35.0671 6.3035 34.4852 8.14606 34.0003 10.0856Z" fill="#EB584A"/>
<path d="M34.2002 14.3525L17.6172 65.8473L62.6145 76.9996L70.9545 47.6156L78.4217 24.2442L34.2002 14.3525Z" fill="white"/>
<path d="M45.5412 67.3025C45.2503 66.6237 44.6684 66.0418 44.0866 65.4599C39.8196 61.7748 34.6798 58.4776 31.4796 53.7257C29.54 51.0104 28.0854 47.7131 24.9821 46.3555C23.7214 48.8769 23.6244 52.7559 22.7516 55.2773C22.6547 57.3139 21.7819 57.8957 21.7819 59.8353C21.7819 61.1929 19.7453 63.5204 20.3272 64.7811C21.6849 67.4964 27.2126 66.7206 30.1219 67.3025C32.6433 67.7874 34.6798 68.9511 37.1042 69.436C38.6559 70.5997 41.4682 71.2785 43.4077 71.0846C45.4442 71.1816 46.317 69.339 45.5412 67.3025Z" fill="#BCBCBB"/>
<path d="M70.8563 44.7066C71.7291 39.8577 74.4445 35.2998 76.287 30.7419L76.1901 27.3477C76.1901 26.6689 76.287 25.99 75.9961 25.3112C75.4143 23.8565 73.6687 23.3717 72.117 23.0807C71.6322 22.9838 71.2443 22.8868 70.7594 23.0807C69.9836 23.2747 69.4987 24.2445 69.2077 25.1172C66.2014 33.4573 63.0982 41.8943 63.4861 50.7192C65.7166 51.0101 67.5591 49.2645 69.0138 47.5189C69.6926 46.8401 70.2745 46.1612 70.9533 45.3854C70.8563 45.1915 70.8563 45.0945 70.8563 44.7066Z" fill="#BCBCBB"/>
<path d="M21.8815 63.1316C22.0754 63.2286 22.3663 63.3255 22.5603 63.3255C26.4394 64.1013 30.2215 65.362 33.9066 66.6227C37.9796 67.8835 42.0527 69.2411 46.3196 69.92C48.6471 70.4049 50.9745 71.0837 53.302 71.7625C55.4355 72.3444 57.375 72.7323 59.5085 73.3142C59.7994 73.4111 60.1874 73.5081 60.6722 73.6051C59.9934 74.09 59.5085 73.799 59.1206 73.799C56.3083 73.1202 53.6899 72.4414 50.8776 71.7625C48.1622 71.0837 45.5438 70.5988 42.8285 69.823C39.5313 68.6593 36.1371 67.6895 32.7429 66.6227C29.4457 65.75 26.3424 64.7802 23.0452 63.9074C22.5603 63.8104 22.1724 63.8104 21.6875 63.8104C21.3966 64.1013 21.1056 64.5862 20.7177 65.0711C21.3966 65.2651 21.9784 65.653 22.5603 65.75C24.4029 66.2348 26.1484 66.7197 27.991 67.0107C30.9973 67.4955 33.8096 68.3683 36.7189 69.1441C39.6282 69.92 42.4406 70.7928 45.4469 71.6656C47.7743 72.3444 50.0048 72.9263 52.3322 73.5081C55.0476 74.187 57.666 74.8658 60.1874 75.5446C60.6722 75.6416 60.9632 75.7386 61.4481 76.0295C61.2541 76.6114 60.8662 76.5144 60.4783 76.3204C57.569 75.5446 54.6597 74.7688 51.6534 73.993C48.6471 73.2172 45.6408 72.4414 42.5375 71.6656C39.8222 70.9867 37.2038 70.3079 34.4885 69.4351C31.1912 68.2714 27.7971 67.9804 24.4029 67.2046C22.7542 66.7197 21.1056 66.3318 19.457 65.8469C19.651 64.6832 19.748 63.7134 20.0389 62.5497C20.7177 59.8344 21.4935 57.216 22.2694 54.5006C22.4633 53.6278 22.7542 52.852 23.0452 51.8823C24.3059 48.1971 25.5666 44.415 26.6333 40.7299C28.088 36.4629 29.6396 32.002 30.9973 27.735C31.6761 25.6015 32.161 23.565 32.6459 21.4315C33.2278 19.4919 33.8096 17.8433 34.1975 15.9038C35.0703 15.4189 36.0401 15.3219 36.9129 15.6129C39.8222 16.2917 42.7315 16.8736 45.7378 17.5524C49.035 18.3282 52.0413 19.104 55.2415 20.0738C55.8234 20.1708 56.2113 20.2678 56.7932 20.3647C58.4418 20.5587 60.0904 21.0436 61.545 21.3345C64.7453 22.0133 67.5576 23.1771 70.5639 23.8559C72.5034 24.1468 74.249 24.6317 76.1886 25.1166C76.3825 25.1166 76.4795 25.1166 76.7704 25.2136C76.8674 25.3106 77.0613 25.5045 77.0613 25.7954C77.0613 25.8924 76.8674 26.0864 76.5765 26.0864C76.3825 26.0864 76.0916 26.0864 75.8976 25.9894C71.8246 25.1166 67.6546 24.0499 63.5815 22.7892C61.2541 22.1103 58.8297 21.6254 56.4053 21.1406C53.108 20.3647 49.9078 19.4919 46.6106 18.6192C43.6043 17.9403 40.501 17.2615 37.4947 16.5826C36.9129 16.4857 36.234 16.4857 35.4582 16.3887C34.5854 19.104 34.1006 21.9164 33.3247 25.1166C34.1975 24.8257 34.7794 24.4378 35.6522 23.9529C34.8764 25.0196 33.1308 25.1166 33.1308 26.8622C34.1006 26.3773 35.0703 26.0864 35.9431 25.6015C35.9431 25.6015 35.9431 25.6985 36.0401 25.6985C35.3613 26.1834 34.6824 26.4743 34.0036 26.9592C33.2278 27.4441 32.6459 28.1229 32.355 28.9957C31.0943 32.2929 29.8336 35.6871 28.8638 38.8873C28.3789 40.245 27.991 41.6997 27.6031 42.9604C26.9243 45.0939 26.3424 47.1304 25.6636 49.2639C24.6938 52.5611 23.627 56.0523 22.6573 59.3495C22.0754 60.6102 21.7845 61.8709 21.8815 63.1316Z" fill="black"/>
<path d="M75.0282 27.93C74.7373 28.027 74.4464 28.1239 74.2524 28.027C73.2826 27.833 72.2159 27.833 71.3431 27.3481C69.3066 26.5723 67.367 26.0874 65.2335 25.7965C62.9061 25.5056 60.6756 25.1177 58.4452 24.3418C57.1845 24.0509 55.9238 23.857 54.857 23.663C52.3356 23.0811 50.1051 22.4023 47.7777 21.8204C47.1958 21.7235 46.517 21.6265 45.8381 21.5295C42.8319 20.9476 39.7286 20.3658 36.7223 19.8809C36.4314 19.7839 36.0435 19.7839 35.7525 19.59C35.6556 19.59 35.6556 19.299 35.5586 19.1051C35.7525 19.0081 35.8495 18.9111 36.1405 18.9111C36.2374 18.9111 36.4314 19.0081 36.7223 19.0081C40.1165 19.6869 43.6077 20.2688 47.0019 21.0446C49.2323 21.5295 51.2689 22.0144 53.4993 22.5963C54.76 22.8872 56.1177 23.1781 57.1845 23.469C58.0572 23.663 59.124 23.663 59.9968 24.0509C62.6152 24.8267 65.2335 25.2146 67.7549 25.8935C70.0824 26.4753 72.4098 27.2511 74.7373 28.027C74.7373 27.5421 74.7373 27.6391 75.0282 27.93Z" fill="black"/>
<path d="M77.159 26.9609C77.062 27.4458 77.062 27.7368 76.965 28.1247C76.1892 29.7733 75.7043 31.4219 75.3164 33.1675C75.1225 33.9433 74.7346 34.7191 74.3466 35.3979C73.4739 36.8526 73.0859 38.3072 72.698 39.7619C71.4373 43.8349 70.3706 48.1019 69.1099 52.1749C67.6552 56.9268 66.1036 61.6787 65.0369 66.4306C64.455 68.564 63.7762 70.6975 63.0973 72.831C63.0003 73.3159 62.8064 73.7038 62.5155 74.1887C62.4185 74.2857 62.0306 74.2857 61.9336 74.2857C62.6124 72.0552 63.2913 69.9217 63.8731 67.5943C65.2308 62.6485 66.6855 57.7026 68.1401 52.6598C69.5948 48.1019 70.8555 43.447 72.1162 38.8891C72.6011 37.4344 73.2799 35.9798 73.7648 34.6221C74.0557 33.6523 74.5406 32.5856 74.9285 31.6158C75.2194 29.9672 75.8983 28.4156 76.7711 27.0579C76.5771 27.2519 76.7711 27.2519 77.159 26.9609Z" fill="black"/>
<path d="M57.4737 55.4719C56.31 55.181 55.5341 55.4719 54.7583 55.9568C54.4674 56.1508 53.9825 56.4417 54.1765 56.8296C54.2734 57.1205 54.6613 57.5084 54.9523 57.6054C55.4372 57.7994 55.922 57.8963 56.5039 58.0903C55.3402 58.6722 53.5946 58.0903 53.3037 57.1205C53.2067 56.8296 53.3037 56.2477 53.4976 55.9568C54.2734 55.3749 55.3402 54.987 56.213 54.5022C56.9888 54.3082 57.1827 54.5022 57.4737 55.4719Z" fill="black"/>
<path d="M39.2447 30.6452C39.8266 30.4513 40.2145 30.4513 40.6024 30.1604C41.1843 29.9664 41.4752 29.4815 41.7661 28.8997C41.9601 28.0269 41.5722 27.445 40.5054 27.542C40.0206 27.542 39.6326 27.639 39.0508 27.7359C39.8266 26.4752 41.5722 26.4752 42.0571 27.542C42.348 28.3178 42.348 29.0936 41.9601 29.8694C41.2813 30.7422 40.4085 31.0332 39.2447 30.6452Z" fill="black"/>
<path d="M60.285 34.7179C58.8303 34.039 58.2485 33.2632 58.4424 32.0025C58.5394 31.3237 59.3152 30.6448 59.9941 30.5479C60.5759 30.5479 60.8669 30.7418 61.3517 31.7116C61.2548 31.7116 61.0608 31.7116 61.0608 31.6146C60.4789 31.1297 59.8971 31.3237 59.5092 31.7116C59.0243 32.0025 59.0243 32.6813 59.4122 33.2632C59.5092 33.4572 59.7031 33.8451 59.9941 34.039C60.188 34.233 60.4789 34.33 60.6729 34.5239C60.4789 34.4269 60.285 34.5239 60.285 34.7179Z" fill="black"/>
<path d="M28.8667 53.8234C27.994 54.4053 27.606 54.9871 27.897 55.8599C28.1879 57.0237 29.1577 57.2176 30.1275 57.4116C30.1275 57.5085 30.1275 57.6055 30.0305 57.6055C28.8668 57.8964 28.1879 57.4116 27.5091 56.7327C26.8302 56.0539 26.8302 55.1811 27.3151 54.4053C27.6061 53.5325 27.8 53.5325 28.8667 53.8234Z" fill="black"/>
<path d="M43.9961 55.277C45.4507 54.5981 45.4507 54.5981 45.3538 53.1435C45.0628 53.0465 44.6749 53.0465 44.19 52.9495C44.287 52.7556 44.287 52.3677 44.481 52.3677C44.6749 52.2707 45.1598 52.2707 45.3538 52.3677C46.0326 52.6586 46.3235 53.8223 46.0326 54.6951C45.6447 55.4709 45.2568 55.6649 43.9961 55.277Z" fill="black"/>
<path d="M53.4 43.7377C53.9818 43.6407 54.2728 43.8347 54.3697 44.4165C54.4667 44.9984 53.7879 45.3863 53.109 45.5802C52.5272 45.5802 51.9453 45.0954 51.9453 44.7074C52.3332 43.9316 52.6242 43.8347 53.4 43.7377Z" fill="black"/>
<path d="M35.0703 45.1919C35.3612 45.095 35.6522 44.7071 35.9431 44.7071C36.428 44.6101 36.7189 44.901 36.7189 45.3859C36.7189 45.8708 36.428 46.0647 35.9431 46.0647C35.5552 45.9678 35.1673 45.7738 35.0703 45.1919Z" fill="black"/>
<path d="M45.5469 34.4272C46.0318 34.3302 46.3227 34.2332 46.7106 34.3302C46.9046 34.3302 47.1955 34.6211 47.2925 34.8151C47.3894 35.009 47.1955 35.397 47.0015 35.4939C46.2257 35.8818 45.7408 35.5909 45.5469 34.4272Z" fill="black"/>
<path d="M58.9297 69.6295C60.1904 69.3386 61.2571 68.8537 62.4209 68.4658C61.3541 69.5326 59.8995 70.0174 58.9297 69.6295Z" fill="black"/>
<path d="M59.511 68.2716C60.7717 67.6897 61.7415 66.7199 63.1962 66.9139C62.5173 67.1079 61.9355 67.3988 61.2566 67.6897C60.6748 67.8837 59.9959 68.2716 59.4141 68.5625C59.608 68.5625 59.608 68.3686 59.511 68.2716Z" fill="black"/>
<path d="M33.5156 36.5605C33.8066 36.2696 34.0975 35.8817 34.3884 35.6877C34.6793 35.4938 35.0673 35.7847 35.1642 36.1726C35.1642 36.3666 34.9703 36.7545 34.8733 36.7545C34.5824 36.8514 34.0975 36.8514 33.7096 36.8514C33.6126 36.8514 33.6126 36.6575 33.5156 36.5605Z" fill="black"/>
<path d="M51.7508 28.2204C50.7811 27.7355 50.4901 27.3476 51.072 26.8627C51.169 26.7658 51.5569 26.6688 51.6538 26.7658C51.7508 26.8627 51.9448 27.0567 51.9448 27.2506C51.9448 27.6385 51.8478 27.9295 51.7508 28.2204Z" fill="black"/>
<path d="M66.012 39.9561C66.5939 39.9561 67.1758 40.4409 67.1758 40.7319C67.1758 40.9258 66.9818 41.2168 66.6909 41.3137C66.3999 41.4107 65.7211 41.0228 65.7211 40.5379C65.6241 40.344 65.8181 40.247 66.012 39.9561Z" fill="black"/>
<path d="M56.793 66.7212C56.8899 66.6242 56.9869 66.2363 57.2779 66.2363C57.7627 66.2363 57.9567 66.5273 57.9567 67.0121C57.9567 67.2061 57.7627 67.497 57.4718 67.594C57.1809 67.691 56.793 67.3031 56.793 66.7212Z" fill="black"/>
<path d="M41.8567 62.7449C41.3718 62.9389 41.1779 63.3268 40.9839 63.3268C40.887 63.3268 40.499 63.1329 40.499 62.8419C40.4021 62.357 40.693 62.1631 41.1779 62.1631C41.2749 62.1631 41.3718 62.454 41.8567 62.7449Z" fill="black"/>
<path d="M42.0528 27.541L35.9433 44.609L31.1914 59.6404L53.1082 65.7499L59.1208 52.5611L64.9394 35.3962L59.5087 31.711L42.0528 27.541Z" fill="white"/>
<path d="M32.8383 56.1507C33.6141 55.8597 34.196 55.6658 34.8748 55.4718C34.2929 56.3446 33.2262 56.4416 32.5473 57.6053C33.4201 57.5083 34.196 57.4114 34.8748 57.1204C34.8748 57.2174 34.8748 57.2174 34.8748 57.2174C34.002 57.5083 33.0322 57.9932 31.9655 58.4781C32.5473 58.769 32.7413 59.06 33.1292 59.1569C34.002 59.4479 34.7778 59.6418 35.7476 59.9328C40.3055 61.2904 44.9604 62.6481 49.5183 63.9088C50.876 64.1997 52.3306 64.5877 53.7853 64.8786C53.9793 64.3937 54.2702 64.1028 54.4641 63.6179C55.4339 60.8056 56.5976 58.0902 57.6644 55.1809C58.5372 52.5625 59.313 50.1381 60.1858 47.5197C60.2828 47.0348 60.4767 46.6469 60.6707 46.0651C61.6404 43.2527 62.7072 40.5374 63.677 37.725C64.1618 36.3674 64.5497 34.9127 65.1316 33.4581C64.2588 32.9732 63.289 32.5853 62.5132 32.1974C61.8344 32.0034 61.1556 31.7125 60.3797 31.6155C57.0825 31.0336 53.9793 29.7729 50.779 28.7062C48.0637 27.7364 45.4453 26.8636 42.536 26.7666C42.0511 26.7666 41.7602 26.6697 41.6632 25.9908C41.8571 25.8939 42.245 25.7969 42.439 25.7969C44.7664 26.0878 46.9969 26.5727 49.2274 27.3485C52.0397 28.3183 54.7551 29.385 57.5674 30.1608C59.216 30.6457 60.8646 30.9367 62.5132 31.3246C63.7739 31.6155 64.8407 32.1974 65.9074 33.1671C65.7135 33.846 65.4225 34.5248 65.2286 35.2036C64.6467 37.1432 64.0649 38.8888 63.386 40.7313C62.8042 42.3799 62.1253 44.0285 61.4465 45.6772C61.1555 46.453 60.7676 47.1318 60.6707 47.9076C60.4767 49.4593 59.8949 50.8169 59.216 52.1746C59.0221 52.6595 58.9251 53.0474 58.7311 53.6293C57.9553 55.7628 57.2765 57.7993 56.5007 59.9328C55.9188 61.4844 55.24 63.23 54.6581 64.6846C54.1732 65.6544 54.0762 65.6544 53.1065 65.4604C50.1972 64.6846 47.4818 63.9088 44.5725 63.133C42.9239 62.6481 41.2753 62.2602 39.6267 61.7753C38.172 61.2904 36.7174 60.9995 35.4567 60.5146C34.099 60.2237 32.7413 59.7388 31.4806 59.2539C31.4806 58.963 31.3836 58.5751 31.4806 58.3811C32.0625 56.1507 32.7413 54.0172 33.4201 51.8837C34.2929 49.0713 35.0687 46.259 36.0385 43.4467C36.7174 41.2162 37.4932 39.0827 38.269 36.7553C38.9478 34.8157 39.8206 33.0701 40.5964 31.1306C40.8874 30.2578 41.1783 29.1911 41.4692 28.3183C41.5662 28.1243 41.6632 28.0273 41.7602 27.7364C42.439 27.9304 42.342 28.5122 42.0511 28.9001C41.7602 29.7729 41.4692 30.7427 41.0813 31.6155C39.7236 34.4278 38.7539 37.3371 37.7841 40.4404C36.3294 45.1923 34.7778 50.1381 33.4201 54.89C33.0322 55.1809 33.0322 55.5688 32.8383 56.1507Z" fill="black"/>
<path d="M44.188 30.6455L41.4727 42.1858L55.3404 47.0346L56.795 42.8646L57.6678 34.6216L44.188 30.6455Z" fill="#F15748"/>
<path d="M57.7648 34.5248C53.2069 32.3913 48.261 32.1974 43.3152 31.5186C43.3152 31.4216 43.2182 30.9367 43.3152 30.7427C43.4122 30.5488 43.8971 30.4518 44.091 30.5488C46.6124 31.4216 49.0369 31.5186 51.6552 31.9065C53.3038 32.1004 54.9525 32.7793 56.5041 33.2641C57.0859 33.3611 57.4739 33.5551 58.0557 33.749C58.6376 33.846 58.7346 34.2339 58.6376 34.9127C58.4436 35.8825 58.1527 36.9493 57.9587 37.919C57.6678 39.5676 57.2799 41.2163 56.795 42.8649C56.5041 44.2225 55.9222 45.5802 55.3404 47.0349C52.819 46.2591 50.6855 45.3863 48.358 44.5135C46.1276 43.7376 43.8001 42.8649 41.4727 41.9921C41.9575 39.0828 42.0545 36.2704 43.0243 33.2641C43.1213 32.9732 43.3152 32.6823 43.6061 32.3913C43.7031 32.3913 43.8001 32.4883 43.8001 32.4883C43.8001 32.7793 43.8001 33.2641 43.7031 33.4581C42.9273 35.1067 42.8303 36.8523 42.5394 38.5009C42.4424 39.2767 42.3455 40.0525 42.3455 41.0223C46.3215 42.9618 50.6855 44.0286 54.6615 45.6772C56.0192 44.1256 57.4739 38.5009 57.7648 34.5248Z" fill="black"/>
<path d="M50.8753 55.8603C50.7784 55.9572 50.7784 55.9572 50.7784 56.0542C50.6814 56.0542 50.6814 56.1512 50.5844 56.1512C50.4874 56.1512 50.3905 56.1512 50.2935 56.0542C46.4144 54.5026 42.8263 52.5631 38.7532 51.3993C38.7532 51.3993 38.6562 51.3024 38.6562 51.1084C38.9472 51.1084 39.2381 51.1084 39.529 51.2054C41.5656 51.6903 43.4081 52.5631 45.2507 53.3389C47.0932 54.1147 48.8388 54.8905 50.6814 55.6663C50.7784 55.6663 50.7784 55.7633 50.8753 55.8603Z" fill="black"/>
<path d="M48.0639 60.7089C46.7062 59.7391 45.2515 59.5451 43.9908 59.1572C41.8573 58.5754 39.8208 57.9935 37.6873 57.5086C37.4934 57.4116 37.3964 57.3147 37.1055 57.0237C37.2994 57.0237 37.5904 56.9268 37.7843 56.9268C41.0815 57.7996 44.1848 58.7693 47.385 59.7391C47.676 59.8361 48.1608 60.03 48.0639 60.7089Z" fill="black"/>
<path d="M47.581 51.5921C47.484 51.5921 47.2901 51.689 47.0961 51.5921C44.5747 50.4283 42.1503 49.3616 39.6289 48.1979C39.6289 48.1009 39.6289 48.1009 39.7259 48.0039C39.9198 48.0039 40.3077 48.0039 40.5017 48.1009C42.0533 48.7797 43.508 49.4586 45.0596 50.1374C45.8354 50.4283 46.5143 50.8162 47.2901 51.1072C47.3871 51.2041 47.484 51.3011 47.775 51.3981C47.581 51.3981 47.581 51.4951 47.581 51.5921Z" fill="black"/>
<path d="M49.9081 35.1055C50.1021 35.1055 50.1021 35.1055 49.9081 35.1055C50.1021 35.2994 50.1021 35.6873 50.0051 35.9782C50.1991 36.0752 50.296 36.2692 50.49 36.4631C50.6839 35.9782 50.7809 35.6873 50.6839 35.0085C50.49 34.9115 50.199 34.7175 50.199 34.3296C50.199 34.1357 50.296 33.8447 50.393 33.7478C50.199 33.6508 49.7142 33.5538 49.4232 33.9417C49.3263 34.1357 49.3263 34.4266 49.3263 34.6206C49.5202 34.9115 49.7142 35.0085 49.9081 35.1055ZM50.393 34.3296C50.393 34.5236 50.49 34.8145 50.6839 34.9115H50.7809V35.0085C50.8779 35.6873 50.6839 36.2692 50.49 36.5601C50.587 36.6571 50.587 36.851 50.6839 36.851C50.8779 36.6571 51.3628 35.8813 51.3628 34.7175C51.5567 34.6206 51.8477 34.2327 51.6537 33.9417C51.5567 33.3599 50.8779 33.1659 50.393 33.6508C50.49 33.8447 50.393 34.1357 50.393 34.3296ZM51.6537 35.0085C51.6537 35.9782 51.1688 36.851 50.9749 37.142C50.9749 37.142 50.9749 37.3359 50.9749 37.6268C51.8477 36.6571 51.8477 35.4934 51.8477 35.4934C52.1386 35.5903 52.5265 35.3964 52.6235 35.0085C52.7204 34.5236 52.4295 34.1357 51.9446 34.1357C51.9446 34.1357 51.9446 34.1357 51.9446 34.2327C52.1386 34.5236 51.8477 34.8145 51.6537 35.0085ZM49.4232 35.0085C49.6172 35.9782 49.3263 36.851 48.6474 37.3359C48.7444 37.3359 48.8414 37.4329 48.9383 37.4329C49.0353 37.4329 49.0353 37.4329 49.1323 37.4329H49.2293C49.3263 37.3359 49.7142 36.948 49.8111 36.7541V36.6571C49.8111 36.5601 49.8111 36.4631 49.8111 36.3662C49.9081 36.1722 49.8111 36.0752 49.7142 35.8813C49.8111 35.8813 49.9081 35.9782 49.9081 35.9782C49.9081 35.7843 49.9081 35.4934 49.9081 35.2994C49.9081 35.2994 49.9081 35.2994 49.8111 35.2994C49.5202 35.2024 49.2293 35.0085 49.2293 34.7175C49.1323 34.5236 49.2293 34.2327 49.3263 34.0387C49.0353 33.9417 48.6474 34.1357 48.6474 34.5236C48.7444 34.7175 48.9383 35.0085 49.4232 35.0085ZM49.2293 35.7843C49.1323 35.6873 49.0353 35.6873 48.9383 35.6873C49.0353 35.7843 48.9383 36.1722 48.9383 36.3662L49.0353 36.4631C49.1323 36.1722 49.2293 36.0752 49.2293 35.7843ZM49.5202 37.7238C49.7142 37.6268 50.0051 37.5299 50.0051 37.2389C50.0051 37.142 49.9081 36.948 49.8111 36.7541C49.7142 37.045 49.3263 37.3359 49.2293 37.5299C49.4232 37.6269 49.5202 37.6268 49.5202 37.7238ZM48.5504 38.0148C48.4535 37.9178 48.4535 37.9178 48.5504 38.0148C48.4535 38.2087 48.4535 38.2087 48.5504 38.0148C48.7444 38.2087 48.7444 38.2087 48.5504 38.0148C48.7444 38.0148 48.7444 38.2087 48.5504 38.0148C48.7444 38.0148 48.7444 38.0148 48.5504 38.0148ZM50.9749 42.6697C49.8111 42.6697 49.0353 41.9908 48.8414 41.312C49.1323 42.0878 50.1991 42.5727 50.9749 42.6697C51.0718 42.1848 53.0114 39.8573 50.7809 38.1117C50.7809 38.2087 50.6839 38.2087 50.6839 38.3057C50.8779 38.4996 51.2658 38.8875 51.2658 39.6634C51.2658 38.8875 50.6839 38.4027 50.49 38.2087C51.0718 38.3057 50.9749 36.948 50.9749 36.948C50.6839 36.7541 50.6839 36.0752 50.1021 35.7843C50.199 35.8813 50.0051 36.2692 50.0051 36.4631C50.1021 36.6571 50.296 37.045 50.296 37.045C50.1991 37.2389 50.0051 37.5299 49.7142 37.6268C49.9081 37.8208 50.1991 37.9178 50.296 38.2087C50.0051 38.1117 49.7142 38.3057 49.7142 38.3057C49.7142 38.3057 49.8111 38.1117 50.199 38.1117C50.0051 37.9178 49.7142 37.6269 49.4232 37.5299C49.2293 37.4329 48.8414 37.5299 48.6474 37.3359C48.4535 37.5299 47.1928 38.1117 45.8351 37.9178C45.6411 37.9178 45.1562 37.8208 45.1562 37.8208V37.9178C45.1562 37.9178 45.3502 38.0148 45.6411 37.9178C45.6411 38.0148 45.4472 38.1117 45.3502 38.0148C45.5442 38.6936 47.3867 39.4694 48.5504 38.8875C48.4535 39.0815 48.0656 39.1785 47.7746 39.1785C47.8716 39.1785 48.0656 39.2755 48.2595 39.3724C48.3565 39.4694 48.4535 39.4694 48.5504 39.4694C48.5504 39.3724 48.6474 39.2755 48.8414 39.2755C49.0353 39.3724 49.3263 39.7603 49.8111 39.8573C50.393 39.9543 50.7809 39.6634 50.9749 38.8875C50.8779 39.7603 50.296 40.1483 49.8111 40.0513C49.8111 40.5362 49.5202 40.9241 49.1323 41.215C48.9383 41.215 48.6474 41.215 48.5504 41.409C48.7444 42.0878 49.8111 43.2515 51.3628 43.0576C51.0718 43.0576 51.0718 42.7666 50.9749 42.6697ZM49.0353 38.4027C49.0353 38.3057 49.0353 38.3057 49.0353 38.4027C48.9384 38.3057 48.9384 38.3057 49.0353 38.4027L48.8414 38.2087V38.3057C48.8414 38.4027 48.7444 38.4996 48.6474 38.4027C48.5504 38.3057 48.4535 38.3057 48.4535 38.2087C48.4535 38.0148 48.5504 38.0148 48.5504 38.0148C48.5504 38.0148 48.5504 38.0148 48.4535 38.0148C48.4535 38.0148 48.4535 38.0148 48.3565 38.0148H48.4535C48.4535 38.0148 48.5504 38.0148 48.5504 38.1117L48.6474 38.2087C48.6474 38.2087 48.6474 38.2087 48.6474 38.3057C49.0353 38.3057 49.0353 38.3057 49.0353 38.4027C49.0353 38.3057 49.0353 38.3057 49.0353 38.4027C49.1323 38.4027 49.1323 38.4027 49.0353 38.4027C49.0353 38.4027 49.1323 38.4027 49.0353 38.4027Z" fill="white"/>
</g>
<defs>
<clipPath id="clip0">
<rect width="90" height="90" fill="white"/>
</clipPath>
</defs>
</svg>
