<svg width="90" height="90" viewBox="0 0 90 90" fill="none" xmlns="http://www.w3.org/2000/svg">
<path d="M39 34.9999C38.3 34.8999 37.4 34.8999 36.7 34.5999C36.1 34.2999 35.4 33.9999 34.8 33.5999C33.6 32.8999 32.7 31.8999 31.7 30.8999C30.2 29.1999 28.7 27.3999 28.1 25.1999C27.8 23.9999 27.7 22.6999 27.2 21.5999C27.2 21.4999 27.1 21.3999 27 21.2999C26.7 21.0999 26.5 21.4999 26.3 21.7999C25.9 22.8999 25.9 24.0999 26.3 25.1999C26.7 26.3999 27.6 27.3999 28.2 28.4999C28.5 29.0999 28.8 29.7999 29.1 30.3999C29.5 30.9999 29.9 31.5999 30.4 32.1999C30.8 32.6999 31.2 33.1999 31.7 33.5999C32.9 34.5999 34.4 35.0999 35.9 35.4999C38.1 35.9999 40.4 36.2999 42.6 36.1999C42.7 36.1999 42.7 36.1999 42.8 36.1999C42.9 36.1999 42.9 36.0999 42.9 35.9999C42.9 35.7999 43.1 34.7999 42.8 34.6999C42.6 34.5999 41.8 35.0999 41.6 35.1999C40.7 35.3999 39.9 35.1999 39 34.9999Z" fill="#BCBCBB"/>
<path d="M46.2033 38C46.0033 37.4 45.8033 36.8 45.7033 36.2C45.5033 35.2 45.5033 34.2 45.5033 33.2C45.5033 31.7 45.5033 30.2 45.5033 28.7C45.5033 27.8 45.5033 26.9 45.7033 26C44.0033 29 43.2033 32.5 43.5033 35.9C43.5033 36.3 43.6033 36.8 43.8033 37.2C44.0033 37.8 44.4033 38.3 44.8033 38.8C45.0033 39.1 45.2033 39.4 45.5033 39.7C45.7033 39.9 47.0033 41.9 47.1033 40.8C47.2033 40.4 46.8033 39.8 46.6033 39.4C46.5033 39 46.4033 38.5 46.2033 38Z" fill="#BCBCBB"/>
<path d="M71.1001 63.4994C71.8001 62.8994 72.4001 62.2994 73.0001 61.5994C74.6001 59.6994 75.7001 57.2994 76.5001 54.9994C77.3001 52.6994 78.0001 50.2994 78.6001 47.8994C79.0001 53.5994 76.6001 59.1994 73.4001 63.8994C73.1001 64.3994 72.8001 64.7994 72.4001 65.1994C72.1001 65.4994 71.7001 65.6994 71.3001 65.9994C68.5001 67.7994 65.8001 69.4994 63.0001 71.2994C62.5001 71.5994 60.5001 73.1994 60.0001 72.7994C59.1001 72.1994 61.4001 71.0994 61.8001 70.8994C63.9001 69.4994 66.0001 67.8994 68.0001 66.2994C69.0001 65.3994 70.1001 64.3994 71.1001 63.4994Z" fill="#BCBCBB"/>
<path d="M29.0008 67.5C28.1008 67.4 27.1008 67.3 26.3008 66.8C25.8008 66.5 25.4008 66 24.8008 65.7C24.2008 65.4 23.6008 65.3 23.0008 65.2C22.1008 65.1 21.1008 65 20.2008 65.1C19.3008 65.2 18.4008 65.5 17.6008 66.1C16.7008 66.8 16.2008 67.9 16.0008 69.1C15.8008 70.2 16.0008 71.4 16.2008 72.5C16.3008 73.2 16.5008 73.9 16.9008 74.5C17.7008 72.7 18.0008 70.6 18.2008 68.6C18.2008 68.3 18.3008 68 18.4008 67.7C18.6008 67.3 19.1008 67 19.6008 66.8C20.4008 66.5 21.3008 66.3 22.2008 66.3C22.6008 66.3 23.1008 66.3 23.4008 66.5C23.8008 66.7 24.1008 67.1 24.3008 67.5C25.2008 68.6 26.4008 69.5 27.8008 69.5C28.4008 69.5 28.9008 69.4 29.4008 69.2C29.7008 69.1 31.3008 68.9 30.8008 68.3C30.8008 67.7 29.6008 67.7 29.0008 67.5Z" fill="#BCBCBB"/>
<path d="M40.6031 67.4C43.0031 67.9 45.4031 68.2 47.9031 68.1C49.5031 68 51.1031 67.8 52.7031 67.4C55.1031 66.9 57.5031 66.3 59.7031 65.4C63.2031 63.9 66.3031 61.6 69.1031 59C68.4031 61.1 66.8031 62.7 65.3031 64.3C64.8031 64.9 64.2031 65.4 63.6031 65.8C62.9031 66.3 62.1031 66.6 61.3031 66.8C55.9031 68.8 50.3031 70.8 44.6031 70.5C40.8031 70.3 37.9031 69.5 34.7031 67.3C35.0031 67.5 35.6031 66.2 35.8031 66C36.3031 65.7 36.8031 65.1 37.4031 65.5C37.9031 65.9 38.2031 66.4 38.8031 66.7C39.4031 67.1 40.0031 67.2 40.6031 67.4Z" fill="#BCBCBB"/>
<path d="M27.5008 58.9992C25.8008 57.9992 23.8008 57.7992 21.8008 57.5992C24.4008 57.2992 27.1008 57.4992 29.6008 58.2992C30.0008 58.3992 30.3008 58.4992 30.7008 58.6992C31.3008 58.9992 31.9008 59.4992 32.6008 59.4992C32.6008 59.9992 32.4008 60.3992 32.2008 60.7992C32.0008 61.1992 31.8008 61.5992 31.6008 61.9992C31.5008 62.2992 31.3008 62.7992 31.1008 62.8992C30.5008 63.2992 30.4008 62.2992 30.2008 61.8992C29.7008 60.6992 28.6008 59.5992 27.5008 58.9992Z" fill="#BCBCBB"/>
<path d="M53.0016 45.2994C51.8016 44.9994 50.4016 45.9994 50.2016 47.1994C50.1016 47.5994 50.2016 48.0994 50.5016 48.3994C50.7016 48.5994 50.9016 48.5994 51.2016 48.6994C53.8016 49.4994 56.4016 49.7994 59.1016 49.6994C59.5016 49.6994 59.8016 49.6994 60.2016 49.4994C60.5016 49.3994 60.8016 49.0994 61.2016 48.9994C61.7016 48.7994 62.2016 48.6994 62.7016 48.4994C63.2016 48.2994 63.7016 47.8994 64.2016 47.6994C66.8016 46.2994 70.0016 46.9994 72.8016 45.9994C72.8016 45.8994 72.7016 45.7994 72.6016 45.7994C69.8016 44.9994 66.9016 44.8994 64.0016 44.8994C62.0016 44.8994 60.0016 44.8994 58.0016 44.8994C56.9016 44.8994 55.7016 44.8994 54.6016 44.8994C53.7016 44.8994 52.8016 44.8994 52.1016 45.2994" fill="#BCBCBB"/>
<path d="M78.5031 24.1994C78.3031 24.1994 78.0031 24.2994 77.9031 24.2994C77.6031 24.1994 77.4031 23.9994 77.3031 23.7994C76.5031 22.6994 75.3031 21.7994 74.2031 21.0994C72.9031 20.1994 71.6031 19.0994 70.2031 18.2994C67.9031 16.8994 65.5031 15.4994 62.8031 14.9994C61.0031 14.6994 59.2031 14.5994 57.2031 14.9994C57.1031 14.9994 57.0031 14.9994 56.8031 14.9994C56.8031 14.9994 56.8031 14.9994 56.7031 14.7994C57.3031 14.1994 58.1031 13.9994 58.8031 13.9994C60.2031 13.9994 61.8031 13.8994 63.2031 14.1994C66.5031 14.7994 69.5031 16.5994 72.3031 18.5994C73.4031 19.3994 74.5031 20.0994 75.5031 20.8994C76.7031 21.7994 77.6031 22.7994 78.6031 23.7994C78.6031 23.9994 78.6031 24.0994 78.5031 24.1994Z" fill="#F15748"/>
<path d="M77.0047 15.7996C76.3047 16.0996 75.9047 15.7996 75.6047 15.3996C73.5047 13.4996 71.1047 12.5996 68.3047 11.9996C67.3047 11.7996 66.4047 11.3996 65.3047 11.0996C69.5047 11.0996 73.3047 12.1996 76.5047 15.0996C76.8047 15.1996 76.8047 15.3996 77.0047 15.7996Z" fill="#F15748"/>
<path d="M75.3023 70.2994C74.5023 70.8994 73.8023 71.2994 73.1023 71.7994C71.1023 72.9994 69.1023 74.1994 67.2023 75.2994C65.6023 76.2994 63.8023 76.7994 61.9023 77.0994C62.0023 76.9994 62.1023 76.7994 62.3023 76.7994C66.7023 74.9994 70.6023 72.0994 74.8023 69.8994C74.8023 69.9994 74.9023 70.0994 75.3023 70.2994Z" fill="#F15748"/>
<path d="M65.7031 78.4998C66.1031 78.2998 66.6031 78.0998 67.1031 77.8998C69.3031 77.1998 71.5031 76.2998 73.3031 74.8998C73.5031 74.7998 73.7031 74.7998 73.9031 74.7998C73.9031 74.9998 74.0031 75.2998 73.9031 75.5998C73.8031 75.8998 73.4031 76.0998 73.1031 76.1998C70.9031 77.3998 68.7031 78.5998 66.2031 78.9998C66.1031 78.9998 66.0031 78.9998 65.8031 78.8998C65.8031 78.6998 65.8031 78.6998 65.7031 78.4998Z" fill="#F15748"/>
<path d="M54.2031 18.7997C55.7031 18.4997 57.1031 18.5997 58.4031 18.7997C59.8031 18.9997 61.0031 19.1997 62.4031 19.5997C63.1031 19.7997 63.8031 19.9997 64.4031 20.3997C65.0031 20.6997 65.6031 20.9997 66.2031 21.3997C67.4031 22.1997 68.4031 22.9997 69.5031 23.7997C70.0031 24.1997 70.6031 24.6997 71.1031 25.1997C71.6031 25.6997 72.0031 26.1997 72.5031 26.6997C72.9031 27.1997 73.4031 27.5997 73.9031 28.1997C74.4031 28.6997 74.8031 29.2997 75.1031 29.8997C75.8031 31.0997 76.4031 32.3997 76.8031 33.5997C77.3031 34.8997 77.7031 36.0997 78.1031 37.3997C78.6031 38.6997 78.4031 40.0997 78.7031 41.3997C78.9031 42.6997 79.0031 44.0997 79.1031 45.3997C79.2031 46.6997 79.3031 47.9997 79.3031 49.3997C79.3031 50.6997 79.2031 52.1997 78.8031 53.4997C78.6031 54.1997 78.4031 54.7997 78.1031 55.3997C77.9031 55.9997 77.7031 56.5997 77.4031 57.2997C77.0031 58.5997 76.4031 59.7997 75.6031 60.9997C75.0031 61.9997 74.2031 62.9997 73.5031 64.0997C73.3031 64.3997 73.2031 64.6997 73.0031 64.9997C72.8031 65.2997 72.5031 65.5997 72.3031 65.7997C71.8031 66.2997 71.2031 66.5997 70.7031 66.9997C68.5031 68.4997 66.4031 70.0997 64.1031 71.4997C62.9031 72.1997 61.7031 72.7997 60.4031 73.1997C59.1031 73.5997 57.8031 73.7997 56.5031 74.0997C53.9031 74.5997 51.2031 74.8997 48.5031 74.9997C45.8031 75.0997 43.1031 74.6997 40.5031 73.9997C39.2031 73.5997 37.9031 73.1997 36.7031 72.6997C35.5031 72.1997 34.3031 71.5997 33.1031 70.7997C32.5031 70.3997 32.0031 69.9997 31.5031 69.4997C31.0031 68.9997 31.5031 69.0997 31.0031 69.1997C30.7031 69.2997 30.4031 69.3997 30.0031 69.4997C29.7031 69.5997 29.3031 69.6997 28.9031 69.6997C28.6031 69.6997 28.3031 69.7997 27.9031 69.7997C27.7031 69.7997 27.5031 69.7997 27.4031 69.7997C27.2031 69.6997 27.0031 69.6997 26.9031 69.6997C26.6031 69.5997 26.2031 69.5997 25.8031 69.3997C25.4031 69.1997 25.1031 68.9997 24.9031 68.6997L24.3031 67.8997C23.9031 67.3997 23.5031 67.1997 22.9031 66.9997C21.7031 66.6997 20.4031 66.6997 19.6031 67.3997C18.9031 67.9997 18.6031 69.4997 18.3031 70.6997C18.0031 71.9997 17.9031 73.1997 17.9031 74.4997V75.0997L17.3031 75.1997C15.3031 75.5997 13.2031 75.5997 11.2031 75.5997V73.7997C13.2031 73.8997 15.1031 73.9997 17.1031 73.7997L16.5031 74.4997C16.5031 73.0997 16.7031 71.7997 17.0031 70.3997C17.2031 69.6997 17.3031 69.0997 17.6031 68.3997C17.8031 67.7997 18.2031 66.9997 18.8031 66.4997C19.5031 65.9997 20.3031 65.7997 21.0031 65.7997C21.7031 65.7997 22.4031 65.8997 23.1031 66.0997C23.5031 66.1997 23.8031 66.2997 24.2031 66.5997C24.5031 66.7997 24.8031 67.0997 25.0031 67.3997L25.6031 68.1997C25.8031 68.3997 26.0031 68.5997 26.2031 68.6997C26.7031 68.8997 27.3031 68.9997 27.9031 68.9997C28.2031 68.9997 28.6031 68.9997 28.9031 68.9997C29.2031 68.9997 29.5031 68.9997 29.8031 68.8997C30.1031 68.7997 30.4031 68.6997 30.8031 68.6997C31.0031 68.6997 31.1031 68.4997 31.5031 68.6997C31.7031 68.7997 31.7031 68.8997 31.7031 68.8997L31.8031 68.9997H32.0031C32.4031 69.4997 32.9031 69.8997 33.4031 70.2997C35.5031 71.7997 38.1031 72.5997 40.6031 73.1997C43.2031 73.7997 45.8031 74.0997 48.4031 73.9997C51.0031 73.8997 53.6031 73.5997 56.2031 73.0997C57.5031 72.8997 58.8031 72.6997 60.0031 72.2997C61.2031 71.8997 62.4031 71.3997 63.5031 70.6997C65.8031 69.3997 67.9031 67.7997 70.0031 66.2997C70.5031 65.8997 71.1031 65.4997 71.5031 65.0997C72.0031 64.6997 72.2031 64.2997 72.6031 63.5997C73.3031 62.3997 74.1031 61.3997 74.8031 60.2997C75.5031 59.1997 76.1031 58.0997 76.5031 56.7997C76.7031 56.1997 76.9031 55.4997 77.2031 54.8997C77.4031 54.2997 77.7031 53.6997 77.8031 53.0997C78.6031 50.6997 78.2031 47.9997 78.1031 45.3997C78.0031 44.0997 77.9031 42.7997 77.7031 41.4997C77.6031 40.1997 76.9031 38.9997 76.6031 37.7997C75.8031 35.2997 74.9031 32.7997 73.6031 30.6997C73.3031 30.1997 72.9031 29.6997 72.5031 29.1997C72.1031 28.7997 71.6031 28.2997 71.2031 27.7997C70.8031 27.2997 70.3031 26.7997 69.9031 26.3997C69.5031 25.9997 69.0031 25.5997 68.5031 25.1997C67.5031 24.3997 66.4031 23.5997 65.4031 22.8997C64.9031 22.5997 64.3031 22.2997 63.7031 21.9997C63.1031 21.6997 62.6031 21.4997 62.0031 21.3997C59.5031 20.8997 56.8031 20.2997 54.5031 20.7997L54.2031 18.7997Z" fill="black"/>
<path d="M10.6016 75.4992C11.1016 72.5992 11.3016 69.6992 11.9016 66.6992C12.2016 65.1992 12.5016 63.6992 13.1016 62.2992C13.7016 60.8992 14.6016 59.4992 16.0016 58.5992C17.4016 57.6992 18.8016 57.3992 20.3016 56.9992C21.8016 56.6992 23.3016 56.5992 24.8016 56.6992C27.8016 56.7992 30.8016 57.6992 33.4016 59.2992L32.8016 59.3992C33.4016 58.5992 34.2016 57.8992 35.1016 57.4992C36.0016 57.0992 37.0016 56.7992 38.0016 56.6992C39.0016 56.5992 39.9016 56.4992 40.9016 56.4992C41.8016 56.4992 42.8016 56.5992 43.8016 56.6992L43.3016 56.9992C43.6016 55.9992 44.0016 54.8992 44.5016 53.8992C44.7016 53.3992 45.1016 52.7992 45.7016 52.4992C46.2016 52.1992 46.7016 51.8992 47.3016 51.7992L47.0016 52.5992C46.4016 51.7992 46.0016 50.7992 45.8016 49.8992C45.6016 48.9992 45.5016 47.9992 45.5016 47.0992C45.5016 46.1992 45.4016 45.2992 45.6016 44.2992C45.8016 43.2992 46.3016 42.3992 46.8016 41.5992L47.0016 42.1992C46.4016 41.7992 46.0016 41.2992 45.6016 40.7992C45.2016 40.2992 44.9016 39.7992 44.6016 39.2992C43.9016 38.2992 43.4016 36.9992 43.2016 35.7992C42.7016 33.2992 42.9016 30.6992 43.9016 28.3992C44.3016 27.1992 44.9016 26.0992 45.4016 25.0992C45.7016 24.5992 46.0016 23.9992 46.3016 23.4992C46.7016 22.8992 47.1016 22.3992 47.6016 21.9992C49.6016 20.3992 51.9016 19.2992 54.4016 18.6992L54.8016 20.4992C52.6016 20.8992 50.5016 21.7992 48.7016 23.1992C47.8016 23.8992 47.3016 24.6992 46.7016 25.7992C46.0016 26.9992 45.4016 27.9992 45.0016 29.0992C44.1016 31.1992 43.8016 33.4992 44.2016 35.6992C44.4016 36.7992 44.8016 37.7992 45.4016 38.7992C45.7016 39.2992 46.0016 39.7992 46.4016 40.2992C46.7016 40.7992 47.1016 41.1992 47.5016 41.4992L47.8016 41.6992L47.6016 42.0992C47.3016 42.9992 47.0016 43.6992 46.9016 44.4992C46.8016 45.2992 46.9016 46.1992 46.9016 47.0992C46.9016 48.8992 47.0016 50.5992 47.8016 52.0992L48.1016 52.6992L47.5016 52.8992C47.0016 52.9992 46.6016 53.1992 46.2016 53.4992C45.8016 53.7992 45.6016 54.0992 45.4016 54.5992C44.9016 55.4992 44.6016 56.4992 44.3016 57.5992L44.0016 57.8992H43.6016C42.7016 57.8992 41.8016 57.8992 40.9016 57.9992C40.0016 58.0992 39.1016 58.0992 38.2016 58.2992C36.5016 58.5992 34.9016 59.1992 33.5016 60.2992L33.2016 60.5992L32.9016 60.3992C30.5016 58.8992 27.6016 58.0992 24.7016 57.8992C23.3016 57.7992 21.8016 57.8992 20.4016 58.1992C19.0016 58.4992 17.6016 58.8992 16.4016 59.5992C15.3016 60.2992 14.4016 61.4992 13.9016 62.7992C13.4016 64.0992 13.1016 65.4992 12.8016 66.9992C12.3016 69.8992 12.0016 72.7992 11.5016 75.7992L10.6016 75.4992Z" fill="black"/>
<path d="M44.6007 28.6C43.3007 29.1 42.0007 28.8 40.8007 28.4C40.2007 28.2 39.7007 28 39.1007 27.8C38.5007 27.6 38.0007 27.3 37.5007 26.9C36.6007 26.1 35.7007 25.2 35.1007 24.2C34.5007 23.1 34.0007 21.9 33.9007 20.6L34.3007 21.1C32.9007 20.8 31.5007 20.8 30.1007 20.9C29.4007 21 28.7007 21.1 28.1007 21.3L27.1007 21.6C26.8007 21.7 26.5007 21.8 26.5007 21.9C26.5007 21.9 26.5007 21.8 26.5007 21.9C26.5007 22 26.5007 22.1 26.5007 22.2C26.5007 22.5 26.6007 22.8 26.7007 23.1L27.1007 24.2L27.4007 25.2C27.9007 26.6 28.4007 27.9 29.1007 29.1C29.8007 30.4 30.5007 31.6 31.5007 32.6C32.4007 33.6 33.7007 34.3 35.1007 34.7C35.8007 34.9 36.5007 35.2 37.2007 35.4C37.9007 35.6 38.6007 35.8 39.3007 35.9C40.7007 36.1 42.2007 36.1 43.6007 36V37C42.1007 36.9 40.6007 37 39.1007 36.8L36.9007 36.4C36.2007 36.2 35.5007 36 34.7007 35.8C33.3007 35.3 31.8007 34.7 30.6007 33.6C29.4007 32.5 28.6007 31.2 27.8007 30C27.0007 28.7 26.3007 27.3 25.8007 25.9L25.4007 24.8L25.0007 23.8C24.9007 23.4 24.7007 23 24.7007 22.6C24.7007 22.4 24.6007 22.1 24.7007 21.8C24.7007 21.7 24.7007 21.4 24.8007 21.2C24.9007 21 25.0007 20.8 25.1007 20.7C25.6007 20.2 26.1007 20.1 26.5007 20L27.0007 19.9C27.2007 19.9 27.4007 19.8 27.6007 19.8C28.4007 19.6 29.2007 19.5 29.9007 19.5C31.5007 19.5 33.0007 19.8 34.5007 20.4L34.9007 20.6V20.9C34.8007 22 35.0007 23.1 35.6007 24.2C36.1007 25.2 36.9007 26.1 37.8007 26.8C38.3007 27.2 38.8007 27.4 39.3007 27.6C39.9007 27.8 40.4007 28 41.0007 28.1C42.1007 28.4 43.3007 28.5 44.2007 27.9L44.6007 28.6Z" fill="black"/>
<path d="M31.1031 63.4998L30.7031 63.7998C31.3031 62.2998 31.8031 60.2998 33.1031 59.2998L33.7031 60.0998C32.5031 60.8998 31.6031 62.0998 31.1031 63.4998Z" fill="black"/>
<path d="M73.6 46.4992C72.8 45.9992 70.8 46.0992 69.8 45.8992C68.8 45.6992 67.6 45.4992 66.5 45.4992C64.4 45.4992 62.9 45.4992 60.8 45.5992C58.7 45.7992 56.6 45.6992 54.6 45.7992C53.6 45.8992 52.6 45.9992 51.6 46.1992C51.2 46.2992 50.8 46.4992 50.6 46.7992C50.5 46.8992 50.4 47.0992 50.4 47.2992C50.3 47.4992 50.4 47.5992 50.4 47.4992C50.3 47.3992 50.5 47.5992 50.6 47.5992C50.7 47.6992 50.8 47.6992 50.9 47.7992C51.1 47.8992 51.3 47.9992 51.5 48.1992C51.9 48.3992 52.4 48.5992 52.9 48.7992C53.8 49.0992 54.8 49.2992 55.8 49.4992C57.8 49.7992 59.9 49.7992 61.9 49.7992C64 49.7992 66.1 49.7992 68 49.4992C69 49.2992 69.9 49.0992 70.9 48.6992C71.9 48.3992 72.6 47.9992 73.4 47.2992L74.3 46.4992V47.5992C74.2 51.9992 72.6 56.2992 69.9 59.6992C69.2 60.5992 68.6 61.3992 67.9 62.1992C67.2 62.9992 66.5 63.7992 65.7 64.5992C64.9 65.3992 64.1 66.0992 63.1 66.5992C62.1 67.1992 61.1 67.4992 60.1 67.8992C56.1 69.2992 51.9 70.4992 47.5 70.6992C43.2 70.8992 38.7 70.0992 35 67.6992L34.5 67.3992L35 66.9992C35.8 66.2992 36.4 65.3992 37.1 64.4992C37.4 63.9992 38 63.4992 38.6 63.2992C39.2 63.0992 39.7 62.8992 40.3 62.7992C42.5 62.1992 44.7 61.6992 46.5 60.4992C48.3 59.2992 50.1 57.7992 50.7 55.6992C51 54.6992 51 53.5992 50.7 52.4992C50.4 51.4992 49.7 50.4992 49.5 49.2992L49.8 49.7992C50.5 50.6992 50.9 51.1992 51.2 52.2992C51.6 53.3992 51.6 54.6992 51.3 55.7992C51 56.9992 50.4 57.9992 49.6 58.8992C48.8 59.7992 47.9 60.3992 46.9 61.0992C44.9 62.3992 42.6 62.8992 40.5 63.5992C40 63.7992 39.4 63.8992 39 64.0992C38.5 64.2992 38.2 64.5992 37.9 64.9992C37.3 65.8992 36.6 66.8992 35.7 67.6992L35.6 66.8992C39 69.3992 43.3 70.1992 47.5 69.9992C51.7 69.7992 55.8 68.5992 59.9 67.1992C60.9 66.8992 61.9 66.4992 62.8 65.9992C63.7 65.4992 64.5 64.7992 65.2 64.0992C66.7 62.5992 68 60.8992 69.3 59.2992C71.9 55.9992 73.3 51.8992 73.4 47.6992L74.3 47.9992C74 48.4992 73.6 48.8992 73.1 49.1992C72.6 49.4992 72.1 49.7992 71.6 49.9992C70.6 50.4992 69.5 50.7992 68.5 50.9992C66.3 51.3992 64.2 51.2992 62.1 51.2992C60 51.2992 57.9 51.1992 55.8 50.8992C54.7 50.6992 53.7 50.4992 52.7 50.0992C52.2 49.8992 51.7 49.6992 51.2 49.3992C51 49.2992 50.7 49.0992 50.5 48.9992C50.4 48.8992 50.3 48.8992 50.2 48.7992C50.1 48.6992 50 48.6992 49.8 48.3992C49.4 47.8992 49.5 47.3992 49.6 47.0992C49.7 46.7992 49.9 46.4992 50.1 46.1992C50.6 45.5992 51.2 45.3992 51.7 45.2992C52.8 44.9992 53.8 44.9992 54.9 44.8992C57 44.7992 59.1 44.9992 61.1 44.8992C63.2 44.7992 65.3 44.6992 67.4 44.7992C68.5 44.8992 69.5 44.9992 70.5 45.1992C71.5 45.3992 72.8 45.3992 73.7 45.9992L73.6 46.4992Z" fill="black"/>
<path d="M52.9023 60.7995C53.0023 60.9995 53.2023 61.0995 53.4023 61.0995C53.6023 61.0995 53.8023 60.9995 53.9023 60.8995C54.2023 60.6995 54.1023 60.2995 54.0023 60.1995C53.9023 60.0995 53.8023 60.0995 53.6023 60.0995C53.5023 60.0995 53.4023 60.0995 53.4023 60.0995C53.4023 60.0995 53.2023 60.0995 53.1023 60.2995C52.9023 60.3995 52.8023 60.5995 52.9023 60.7995ZM52.8023 60.8995C52.7023 60.6995 52.5023 60.4995 52.5023 60.1995C52.4023 59.8995 52.5023 59.4995 52.8023 59.2995C53.1023 59.0995 53.6023 59.0995 53.8023 59.1995C54.1023 59.2995 54.3023 59.4995 54.5023 59.7995C54.9023 60.3995 54.5023 61.0995 54.1023 61.3995C53.8023 61.4995 53.5023 61.4995 53.3023 61.3995C53.1023 61.1995 52.9023 61.0995 52.8023 60.8995Z" fill="black"/>
<path d="M59.4023 63.1995C59.5023 63.3995 59.6023 63.3995 59.8023 63.3995C60.0023 63.3995 60.1023 63.2995 60.1023 63.1995C60.3023 62.9995 60.2023 62.6995 60.1023 62.6995C60.1023 62.6995 60.0023 62.6995 59.8023 62.6995C59.7023 62.6995 59.7023 62.6995 59.7023 62.6995C59.7023 62.6995 59.6023 62.5995 59.4023 62.6995C59.4023 62.7995 59.3023 62.9995 59.4023 63.1995ZM59.3023 63.1995C59.2023 62.9995 59.1023 62.8995 59.0023 62.5995C58.9023 62.3995 59.0023 61.9995 59.3023 61.7995C59.6023 61.5995 60.0023 61.5995 60.2023 61.6995C60.4023 61.7995 60.6023 61.8995 60.8023 62.1995C61.1023 62.7995 60.8023 63.3995 60.4023 63.5995C60.2023 63.6995 59.9023 63.6995 59.7023 63.5995C59.5023 63.4995 59.4023 63.3995 59.3023 63.1995Z" fill="black"/>
<path d="M54.5 64.8997C54.6 65.0997 54.7 65.0997 54.9 65.0997C55.1 65.0997 55.2 64.9997 55.2 64.8997C55.4 64.6997 55.3 64.3997 55.2 64.3997C55.2 64.3997 55.1 64.3997 54.9 64.3997C54.8 64.3997 54.8 64.3997 54.8 64.3997C54.8 64.3997 54.7 64.2997 54.5 64.3997C54.5 64.4997 54.4 64.6997 54.5 64.8997ZM54.4 64.8997C54.3 64.6997 54.2 64.5997 54.1 64.2997C54 64.0997 54.1 63.6997 54.4 63.4997C54.7 63.2997 55.1 63.2997 55.3 63.3997C55.5 63.4997 55.7 63.5997 55.9 63.8997C56.2 64.4997 55.9 65.0997 55.5 65.2997C55.3 65.3997 55 65.3997 54.8 65.2997C54.6 65.1997 54.5 65.0997 54.4 64.8997Z" fill="black"/>
<path d="M56.7023 59.8996C56.7023 60.1996 57.0023 60.3996 57.2023 60.3996C57.5023 60.3996 57.8023 60.3996 58.0023 60.2996C58.2023 60.1996 58.4023 60.0996 58.5023 59.8996C58.6023 59.6996 58.6023 59.4996 58.6023 59.2996C58.6023 59.2996 58.6023 59.2996 58.5023 59.2996C58.4023 59.2996 58.3023 59.1996 58.2023 59.1996C58.0023 59.1996 57.8023 59.1996 57.6023 59.1996C57.4023 59.1996 57.2023 59.2996 57.0023 59.3996C56.7023 59.5996 56.7023 59.5996 56.7023 59.8996ZM56.4023 60.0996C56.4023 59.7996 56.4023 59.4996 56.5023 59.0996C56.6023 58.7996 56.9023 58.3996 57.3023 58.2996C57.7023 58.1996 58.1023 58.1996 58.4023 58.2996C58.6023 58.3996 58.8023 58.4996 58.9023 58.5996C59.0023 58.6996 59.1023 58.6996 59.2023 58.8996C59.3023 58.9996 59.3023 59.1996 59.3023 59.2996C59.3023 59.4996 59.2023 59.6996 59.2023 59.7996C59.2023 59.9996 59.1023 60.1996 58.9023 60.2996C58.7023 60.5996 58.3023 60.7996 58.0023 60.7996C57.7023 60.7996 57.3023 60.7996 57.1023 60.5996C57.0023 60.4996 56.8023 60.4996 56.7023 60.3996C56.6023 60.3996 56.5023 60.2996 56.4023 60.0996Z" fill="black"/>
<path d="M53.4999 55.1C53.3999 55.4 53.6999 55.5 53.9999 55.5C54.2999 55.5 54.4999 55.5 54.6999 55.4C54.8999 55.3 54.9999 55.2 55.0999 55.1C55.1999 55 55.1999 54.6 55.1999 54.5C55.1999 54.4 55.1999 54.5 55.1999 54.6C55.1999 54.6 55.0999 54.6 54.9999 54.6C54.7999 54.6 54.5999 54.6 54.3999 54.6C54.1999 54.6 53.9999 54.6 53.8999 54.6C53.6999 54.6 53.4999 54.9 53.4999 55.1ZM53.3999 55.2C53.3999 54.9 53.2999 54.6 53.3999 54.3C53.4999 53.9 53.8999 53.7 54.1999 53.6C54.4999 53.5 54.8999 53.6 55.1999 53.7C55.3999 53.8 55.4999 53.8 55.6999 53.9C55.7999 54 55.8999 54.2 55.9999 54.3C55.9999 54.4 55.9999 54.6 55.9999 54.7C55.8999 55 55.8999 55.3 55.6999 55.6C55.4999 55.9 55.0999 56.1 54.7999 56.1C54.4999 56.1 54.1999 56 53.8999 55.9C53.7999 55.8 53.6999 55.8 53.4999 55.7C53.4999 55.5 53.3999 55.3 53.3999 55.2Z" fill="black"/>
<path d="M64.0008 58.3C64.2008 58.3 64.5008 58.3 64.8008 58.3C65.0008 58.2 65.1008 58.1 65.2008 57.9C65.3008 57.7 65.2008 57.5 65.2008 57.3L65.3008 57.4C65.4008 57.4 65.3008 57.4 65.2008 57.4H64.8008C64.6008 57.4 64.3008 57.4 64.2008 57.5C64.0008 57.6 64.0008 57.6 63.8008 57.7C63.7008 57.8 63.7008 57.8 63.6008 57.8C63.6008 57.8 63.5008 57.8 63.5008 57.9C63.5008 58.1 63.8008 58.3 64.0008 58.3ZM64.0008 58.4C63.7008 58.4 63.5008 58.5 63.1008 58.3C62.9008 58.2 62.8008 57.9 62.8008 57.6C62.8008 57.4 62.9008 57.2 63.0008 57.1C63.2008 56.8 63.6008 56.6 63.9008 56.5C64.2008 56.5 64.5008 56.5 64.8008 56.5L65.2008 56.6C65.3008 56.6 65.3008 56.6 65.5008 56.7C65.6008 56.7 65.7008 56.9 65.7008 57C65.7008 57.1 65.7008 57.2 65.7008 57.2C65.7008 57.5 65.6008 57.8 65.5008 58.1C65.4008 58.4 65.0008 58.6 64.7008 58.5C64.5008 58.4 64.3008 58.4 64.0008 58.4Z" fill="black"/>
<path d="M60.2035 55.1994C60.4035 55.3994 60.6035 55.3994 60.9035 55.2994C61.1035 55.1994 61.3035 55.0994 61.5035 54.9994C61.7035 54.8994 61.8035 54.6994 61.8035 54.4994C61.8035 54.3994 61.9035 54.2994 61.8035 54.2994L61.9035 54.3994C61.7035 54.3994 61.4035 54.3994 61.2035 54.3994C61.0035 54.3994 60.9035 54.4994 60.7035 54.4994C60.5035 54.5994 60.3035 54.5994 60.2035 54.6994C60.0035 54.6994 60.0035 54.9994 60.2035 55.1994ZM60.1035 55.2994C59.9035 55.0994 59.6035 54.8994 59.7035 54.4994C59.7035 54.0994 60.0035 53.7994 60.3035 53.5994C60.6035 53.3994 61.0035 53.3994 61.3035 53.3994C61.6035 53.4994 61.8035 53.4994 62.1035 53.5994C62.2035 53.5994 62.4035 53.6994 62.5035 53.8994C62.6035 53.9994 62.6035 54.1994 62.6035 54.2994C62.6035 54.4994 62.5035 54.6994 62.4035 54.7994C62.2035 55.0994 62.0035 55.2994 61.7035 55.3994C61.1035 55.6994 60.5035 55.5994 60.1035 55.2994Z" fill="black"/>
<path d="M57.1018 23.6994C61.0018 23.3994 64.9018 24.5994 67.8018 27.1994C69.0018 28.0994 69.3018 29.7994 69.5018 31.1994C69.5018 31.9994 69.2018 32.8994 68.6018 33.3994C67.5018 34.1994 65.6018 34.1994 64.3018 33.6994C62.8018 33.0994 62.3018 31.1994 61.1018 30.0994C59.1018 28.2994 56.2018 28.9994 53.8018 28.7994C53.3018 28.6994 52.7018 28.5994 52.4018 28.1994C52.0018 27.3994 52.0018 25.9994 52.5018 25.2994C53.5018 24.0994 55.8018 23.6994 57.1018 23.6994Z" fill="#BCBCBB"/>
</svg>
