<svg width="120" height="90" viewBox="0 0 120 90" fill="none" xmlns="http://www.w3.org/2000/svg">
<path d="M45.8392 70.2763C46.6576 71.4222 48.1309 71.9951 49.5223 72.4044C52.1414 73.0591 55.006 73.3047 57.3796 72.1588C57.7888 71.9951 58.2799 71.5859 58.1981 71.0948C58.1162 70.7674 57.8707 70.6037 57.6252 70.44C57.0522 70.1126 56.3156 69.7853 55.6608 69.7034C54.9242 69.5397 54.1057 69.5397 53.3691 69.376C52.7962 69.2123 52.2232 68.9668 51.6503 68.8031C49.5223 67.8209 42.156 65.2018 45.8392 70.2763Z" fill="#BCBCBB"/>
<path d="M34.3802 38.4377C35.8535 39.2561 37.0812 41.9571 38.3089 43.103C40.5187 45.1491 41.2554 46.3769 41.4191 49.4052C41.5828 52.0243 45.5114 55.2982 45.6751 57.9173C45.757 59.6361 44.6929 63.8103 45.1022 65.4472C46.5754 71.1765 49.6038 72.3224 55.5786 72.3224C57.2156 72.3224 59.3436 71.4221 59.1799 69.7851C59.0162 68.7211 57.8703 68.0664 56.8063 67.9027C55.7423 67.739 54.5965 67.9027 53.6143 67.5753C51.65 67.0023 50.4222 64.7925 50.4222 62.7463C50.4222 60.7001 51.2407 58.7358 52.2229 56.8533C52.4684 56.3622 52.8777 55.7893 53.4506 55.7074C54.1872 55.6256 54.7601 56.3622 55.1694 57.0988C57.2974 60.8638 60.1621 64.2195 63.5178 66.8386C64.991 67.9845 66.5461 68.9667 68.3468 69.3759C70.1474 69.7851 72.1936 69.3759 73.4213 68.0663C74.649 67.3297 73.9124 65.2017 72.521 64.7106C71.1296 64.2195 69.6563 64.7106 68.1831 64.7925C64.5 64.9562 60.9805 61.7641 60.735 58.1628C60.6531 57.3444 60.735 56.5259 61.2261 55.8711C61.4716 55.4619 61.8808 55.0527 62.2901 54.7253C63.5178 53.7431 64.6637 52.7609 65.8914 51.6969C66.4643 51.2058 67.0372 50.7147 67.7738 50.4692C68.8379 50.1418 69.9837 50.3055 70.9659 50.7966C74.3216 52.4335 75.5493 56.6077 75.5493 60.2909C75.6312 64.5469 74.4853 69.1304 71.2114 71.8313C69.9019 72.8953 68.1831 73.9593 68.1831 75.6781C71.457 76.4966 74.9764 74.6141 77.0226 71.9132C79.0688 69.2122 80.0509 65.9383 80.9512 62.6644C81.8516 59.3905 82.8337 56.0348 84.8799 53.4157C86.435 51.3695 88.563 49.8144 90.0363 47.7683C91.9188 45.1491 92.7372 41.8753 94.6197 39.2561C95.7656 37.6192 97.3207 36.2278 98.221 34.509C99.0395 33.1176 99.3669 31.4807 99.6124 29.9256C100.349 24.6874 98.8758 18.7125 94.5379 15.6842C92.9009 14.5383 90.8547 13.8017 88.8904 14.0472C86.9261 14.2928 85.0436 15.6842 84.4707 17.6485C86.1076 18.7125 88.4812 17.8122 90.2818 18.6307C91.4277 19.2036 92.1643 20.3495 92.8191 21.4953C93.9649 23.4596 95.1108 25.5058 95.1926 27.7975C95.2745 30.0893 93.9649 32.5447 91.7551 33.0358C89.7907 33.445 87.9082 32.2991 86.5168 30.9077C85.1254 29.5163 83.9796 27.7975 82.4245 26.6517C78.9869 24.2781 74.1579 25.0966 70.393 27.0609C66.628 28.9434 63.3541 31.8081 59.4254 33.2813C58.4433 33.6905 57.3793 33.9361 56.3152 33.8542C55.1694 33.6905 54.1872 33.1176 53.2051 32.6265C51.4044 31.5625 49.6038 30.4985 47.7213 29.5163C46.4936 28.7797 45.0203 27.4702 45.6751 26.2424C46.0025 25.6695 46.5754 25.424 46.9847 24.9329C48.2942 23.5415 47.6394 21.0861 46.0843 19.9402C44.5293 18.7944 42.4831 18.7125 40.6006 18.6307C39.0455 18.6307 37.5722 18.6307 36.0172 18.7125C35.035 18.7125 34.0528 18.7944 33.2343 19.3673C32.4977 19.8584 32.0066 20.6768 31.27 21.0861C29.9605 21.9046 28.1598 21.4135 26.7684 20.5131C25.4589 19.6128 24.313 18.467 22.8398 17.894C21.0391 17.1574 18.9929 17.403 17.0286 17.6485C16.0464 20.6768 18.0108 24.2781 21.0391 25.1784C21.9394 25.424 23.0035 25.5058 23.9038 25.9151C24.8041 26.3243 22.0213 26.7335 21.6939 27.7157C20.057 27.8794 22.0213 27.9612 20.3843 27.8794C18.7474 27.7975 16.9468 28.1249 15.9646 29.4345C14.5732 31.2351 15.6372 34.0179 17.6015 35.2456C19.484 36.4733 21.9394 36.4733 24.2312 36.3097C26.1136 36.146 28.6509 35.2456 30.5334 35.573C32.0066 35.9004 32.9888 37.7011 34.3802 38.4377Z" fill="white"/>
<path d="M44.2009 30.7441C44.4465 30.7441 44.692 30.7441 44.9376 30.5804C45.1831 30.3349 45.265 29.9257 45.265 29.5983C45.265 28.8616 45.265 28.0432 45.265 27.3066C43.5462 26.4062 41.5 26.8973 39.6175 26.8155C38.9627 26.7336 36.4255 25.8333 36.0162 26.4881C35.3614 27.3884 37.8169 29.3527 38.4716 29.6801C40.1086 30.4986 42.3185 30.826 44.2009 30.7441Z" fill="#BCBCBB"/>
<path d="M57.7879 62.501C59.0156 63.8105 59.9159 65.5293 61.3073 66.757C63.5172 68.7214 66.7092 69.2124 69.6557 68.9669C69.8194 68.9669 70.065 68.9669 70.2287 68.8032C70.3105 68.7214 70.3924 68.4758 70.3924 68.394C70.4742 67.4118 69.6557 66.5933 68.7554 66.1841C67.8551 65.7749 66.8729 65.6112 65.9726 65.2019C63.3535 63.8924 62.535 60.7003 61.3073 58.0812C60.9799 57.3446 60.4889 56.608 59.8341 56.3624C59.4248 56.1987 59.0156 56.1987 58.6064 56.1987C57.215 56.1987 53.6137 55.8714 53.45 58.0812C53.2045 59.7182 56.642 61.2733 57.7879 62.501Z" fill="#BCBCBB"/>
<path d="M73.9952 26.4883C74.2407 27.1431 73.9133 27.9615 73.3404 28.4526C72.7675 28.9437 72.1127 29.1892 71.4579 29.5166C69.9028 30.2532 68.5114 31.3991 67.3655 32.7087C65.6468 34.673 64.3372 37.374 61.7999 37.9469C59.8356 38.438 57.8713 37.4558 56.1525 36.4736C54.9248 35.8189 53.6971 35.1641 52.4694 34.5093C49.0318 32.7087 53.4515 32.0539 55.1703 31.8902C56.971 31.7265 58.6079 31.6447 60.4085 31.1536C64.992 29.7622 69.1662 26.9794 73.9952 26.4883Z" fill="#BCBCBB"/>
<path d="M20.7123 19.6946C21.2034 19.1217 22.1037 18.958 22.8403 19.1217C23.577 19.2854 24.2317 19.6946 24.8865 20.1039C25.8687 20.8405 27.6693 21.8226 27.5056 23.2959C27.3419 24.4418 25.4594 25.6695 24.3954 25.6695C22.1037 25.7513 18.9117 21.6589 20.7123 19.6946Z" fill="#BCBCBB"/>
<path d="M40.5996 24.4414C40.5177 24.8506 40.4359 25.178 40.2722 25.6691C40.9269 26.0784 41.6636 26.3239 42.3183 26.242C43.8734 26.1602 45.4285 25.751 46.5744 24.5233C47.3929 23.6229 47.8839 21.5768 47.2292 20.1854C46.9018 19.5306 46.3289 19.1213 45.5104 19.0395C44.119 18.9576 42.7276 18.794 41.418 18.7121C40.5177 18.6303 39.6992 18.7121 38.8808 19.0395C38.1441 19.285 37.4075 19.3669 36.6709 19.285C35.1158 19.1213 33.9699 19.6943 32.9059 20.7583C32.8241 20.8401 32.7422 20.8401 32.7422 20.922H32.6604C32.4967 20.5946 32.6604 20.4309 32.8241 20.1854C33.8062 19.3669 34.7884 18.7121 36.1798 18.794C37.0801 18.8758 37.9804 18.794 38.8808 18.4666C39.6992 18.221 40.5996 18.1392 41.4999 18.221C42.9731 18.3847 44.4464 18.5484 45.9196 18.7121C47.0655 18.8758 47.9658 19.6943 48.2113 20.8401C48.5387 22.1497 48.4569 23.3774 47.8021 24.6051C47.311 25.5873 46.4925 26.0784 45.5922 26.4876C45.2648 26.6513 44.8556 26.815 44.4464 27.0605C45.0193 27.7971 45.6741 28.3701 46.4107 28.7793C46.6562 28.943 46.9018 29.1067 47.1473 29.2704C48.0476 30.0889 49.0298 30.6618 50.0938 31.2347C50.9123 31.7258 51.8126 31.8077 52.7129 31.9713C54.1043 32.135 55.4957 32.3806 56.8871 31.9713C58.9333 31.3984 60.9795 30.7436 63.0257 30.0889C63.7623 29.8433 64.4989 29.4341 65.2355 29.0248C67.4454 27.9608 69.819 27.3061 72.1926 26.7331C73.8295 26.3239 75.5483 26.3239 77.2671 26.1602C79.3133 25.9965 81.3594 26.3239 83.3238 26.815C84.5515 27.0605 85.6155 27.7153 86.7613 28.2064C87.2524 28.4519 87.7435 28.6156 88.1527 28.943C89.2168 29.6796 90.4445 30.3344 91.0174 31.5621C91.1811 31.8077 91.3448 32.0532 91.5903 32.2987C91.8359 32.135 91.9996 32.0532 92.0814 31.8895C92.6543 31.1529 92.9817 30.2526 93.0636 29.3522C93.2273 28.1245 93.2273 26.8968 93.3091 25.751C93.391 23.4592 92.818 21.4131 91.2629 19.6943C90.5263 18.9576 89.7078 18.5484 88.562 18.6303C87.1706 18.7121 85.7792 18.794 84.3878 19.0395C83.8148 19.1213 83.2419 19.0395 82.7508 18.9576C82.4235 18.8758 82.0961 18.6303 82.0142 18.3029C82.3416 17.8118 82.7508 17.4026 83.2419 17.0752C83.733 16.8296 84.1422 16.4204 84.5515 16.1748C85.5336 15.5201 86.3521 14.7016 87.5798 14.5379C87.9891 14.4561 88.3983 14.4561 88.8075 14.4561C90.7719 14.5379 92.5725 15.029 94.2913 15.9293C95.2735 16.4204 96.0101 17.2389 96.6649 18.1392C97.8926 19.858 98.9566 21.6586 99.6932 23.7048C100.675 26.242 100.675 28.8612 100.102 31.4803C100.021 31.9713 99.775 32.4624 99.5295 32.8717C99.5295 32.9535 99.4477 33.0354 99.4477 33.1172C98.9566 34.6723 97.9744 35.8182 97.0741 37.1277C96.3375 38.2736 95.4371 39.2557 93.882 39.4194C93.8002 39.4194 93.7184 39.5013 93.5547 39.5013C93.391 40.1561 93.3091 40.8927 93.1454 41.5475C92.818 43.3481 92.2451 45.0669 91.1811 46.5401C91.0174 46.7857 90.8537 47.0312 90.6082 47.1949C89.8715 47.8497 89.0531 48.4226 88.3164 49.0774C87.2524 50.0596 86.1884 51.0417 85.1244 52.0239C85.0426 52.1057 84.9607 52.1876 84.8789 52.3513C84.4696 53.2516 83.8967 54.1519 83.6512 55.1341C83.4875 55.9526 83.1601 56.6892 82.9145 57.4258C82.669 58.2443 82.4234 59.0628 82.0961 59.8812C81.7687 60.6179 81.605 61.5182 81.4413 62.3366C81.1139 63.9736 80.6228 65.6105 80.0499 67.1656C79.6406 68.2296 79.3951 69.2937 78.9859 70.4395C78.8222 70.8487 78.6585 71.1761 78.3311 71.4217C77.1852 72.1583 76.0394 72.8949 74.9754 73.6315C74.648 73.8771 74.3206 74.0408 73.9932 74.2863C73.0929 75.0229 72.2744 75.7596 71.4559 76.4962C70.6375 77.2328 69.5734 77.6421 68.5094 77.6421C67.1999 77.6421 65.9722 76.1688 66.2996 74.9411C66.4632 74.2045 66.9543 73.7134 67.6091 73.386C68.5913 72.8131 69.6553 72.2401 70.6375 71.6672C71.947 70.9306 72.6018 70.3577 73.2566 69.2118C73.1747 69.2118 73.0929 69.2118 73.011 69.2118C71.7015 70.1121 70.3101 70.194 68.8368 70.1121C67.6091 70.0303 66.4633 69.8666 65.2355 69.5392C64.2534 69.2937 63.1894 68.9663 62.289 68.557C61.1432 67.9841 60.4066 67.1656 59.6699 66.1835C58.6059 64.7921 57.6238 63.4007 56.4779 62.0911C55.7413 61.1908 54.9228 60.4542 54.1043 59.6357C53.7769 59.3083 53.3677 58.8991 53.0403 58.4898C52.8766 58.3261 52.7948 58.0806 53.1222 57.835C54.1043 58.6535 55.0865 59.5538 56.0687 60.4542C56.8871 60.0449 57.1327 59.1446 57.9511 58.7354C57.4601 59.3901 56.969 60.0449 56.3961 60.6997C56.4779 60.8634 56.6416 60.9452 56.8053 61.1908C57.3782 60.6178 57.9511 60.1268 58.4422 59.5538C58.5241 59.5538 58.5241 59.6357 58.6059 59.6357C58.3604 59.8812 58.1148 60.1268 57.7875 60.4542C57.5419 60.6997 57.2964 61.0271 56.969 61.2726C57.1327 61.4363 57.2145 61.6 57.3782 61.7637C57.8693 61.3545 58.3604 60.9452 58.7696 60.536C58.6059 60.7815 58.4422 61.0271 58.2785 61.2726C58.033 61.5182 57.8693 61.8456 57.6238 62.0911C58.1148 62.7459 58.6059 63.4007 59.097 64.0554C59.7518 64.8739 60.4066 65.6924 61.0613 66.5108C61.7161 67.3293 62.5346 67.8204 63.4349 68.1478C65.4811 68.8026 67.5273 69.2937 69.6553 69.5392C70.8012 69.621 71.7833 69.4573 72.6836 68.8026C72.9292 68.6389 73.0929 68.3933 73.3384 68.1478C73.584 67.9022 73.6658 67.4112 73.9932 67.2475C74.075 67.2475 74.075 67.0019 74.1569 66.9201C74.648 64.8739 75.0572 62.9096 75.3846 60.8634C75.4664 60.1268 75.6301 59.3901 75.712 58.7354C75.8757 57.2621 75.3846 56.28 73.9932 55.5433C73.8295 55.4615 73.584 55.3796 73.4203 55.2978C71.7015 54.5612 70.7193 53.0879 69.819 51.6147C69.6553 51.2873 69.4098 50.878 69.2461 50.5506C68.0184 51.0417 66.9543 51.7784 66.1359 52.6787C65.7266 53.0879 65.3174 53.579 64.9082 53.9064C63.7623 54.9704 62.6164 55.9526 61.1432 56.5255C61.0613 56.5255 60.9795 56.6073 60.8158 56.6892C60.9795 57.4258 61.3069 57.9987 61.6343 58.5717C62.2072 59.472 62.7801 60.2905 63.2712 61.1908C63.7623 62.0911 64.1715 62.9914 64.6626 63.8099C64.99 64.3828 65.4811 64.7102 66.1359 64.9557C67.691 65.4468 69.2461 65.5287 70.883 65.6924C71.2104 65.6924 71.5378 65.6105 71.7833 65.4468C72.2744 65.2013 72.6836 64.9557 73.1747 64.7921C73.584 64.6284 73.9113 64.7102 74.3206 65.1194C73.4203 65.365 72.3562 65.2831 72.0289 66.3472C69.9827 66.2653 67.9365 65.9379 65.8903 65.5287C65.3174 65.365 64.8263 65.0376 64.4989 64.5465C64.2534 64.1373 64.0078 63.8099 63.7623 63.4007C63.0257 61.7637 62.0435 60.3723 61.1432 58.8172C60.8976 58.408 60.734 57.9169 60.4884 57.5077C60.3247 57.0984 59.9973 56.9347 59.5062 56.9347C58.1148 57.0166 56.7234 56.9347 55.4139 57.0166C54.5136 57.0984 53.6132 57.2621 52.7129 57.4258C52.0582 58.3261 51.8945 59.3083 51.6489 60.2086C51.3215 61.2726 51.076 62.3366 50.8304 63.4007C50.6668 64.301 50.5031 65.1194 50.3394 66.0198C50.2575 66.5927 50.5031 67.0838 50.9941 67.4112C51.9763 68.0659 52.8766 68.6389 54.1043 68.6389C54.268 68.6389 54.5136 68.7207 54.6773 68.7207C54.6773 68.7207 54.7591 68.8026 54.841 68.8844C54.268 69.13 53.6951 69.2118 53.1222 69.0481C52.0582 68.7207 51.1578 68.2296 50.3394 67.493C49.8483 67.0838 49.6027 66.5108 49.7664 65.8561C50.0938 64.6284 50.2575 63.3188 50.5849 62.0911C50.9123 60.6178 51.3215 59.2264 51.7308 57.835C51.8126 57.4258 51.5671 57.2621 51.4852 57.0166C51.6489 56.6073 51.8945 56.6892 52.14 56.6892C52.6311 56.6892 53.204 56.6892 53.6951 56.6073C55.332 56.2799 57.0508 56.3618 58.6878 56.2799C59.097 56.2799 59.4244 56.2799 59.8336 56.1981C60.3247 56.1163 60.6521 55.8707 60.734 55.2978C60.8976 54.4793 61.225 53.6608 61.798 53.0061C61.4706 53.9064 60.9795 54.643 60.9795 55.707C61.3887 55.707 61.4706 55.5433 61.6343 55.2159C61.9617 54.4793 62.3709 53.8245 62.7801 53.0879C62.862 53.0879 62.862 53.1698 62.9438 53.1698C62.6164 53.8245 62.289 54.3975 61.9617 55.0522C62.3709 55.1341 62.5346 54.8885 62.7801 54.7249C63.6805 53.9064 64.5808 53.0061 65.4811 52.1876C65.9722 51.6965 66.5451 51.2873 66.9543 50.9599C66.9543 50.4688 66.9543 50.0596 66.9543 49.6503C66.9543 49.4866 66.9543 49.4048 66.9543 49.2411C66.6269 48.2589 66.4632 47.2768 65.8903 46.3764C65.1537 45.2306 64.9082 44.0029 65.2355 42.6933C65.4811 41.7112 65.8085 40.729 66.2996 39.8287C66.9543 38.7647 67.4454 37.7006 68.1002 36.6366C69.2461 34.7541 70.8012 33.6083 73.011 33.1172C74.8117 32.708 76.6123 32.5443 78.3311 32.135C80.7047 31.4803 83.1601 30.8255 85.2063 29.2704C85.4518 29.1067 85.6155 28.8612 85.9429 28.6975C85.6973 28.5338 85.6155 28.4519 85.4518 28.3701C83.9785 27.5516 82.3416 27.2242 80.6228 26.9787C77.7582 26.4876 74.8935 26.7331 72.0289 27.3061C71.1285 27.4698 70.2282 27.879 69.3279 28.1245C67.2817 28.6975 65.3992 29.5159 63.5168 30.4981C62.7801 30.9073 61.8798 31.071 61.0613 31.3984C60.734 31.4803 60.4066 31.644 60.0792 31.8077C59.7518 31.9713 59.4244 32.0532 59.097 32.2169C59.0152 32.135 58.8515 32.0532 58.7696 32.0532C58.5241 32.0532 58.1967 32.135 57.9511 32.2169C55.905 32.9535 53.7769 32.708 51.6489 32.4624C49.7664 32.135 48.2113 31.2347 46.7381 30.007C46.1652 29.5159 45.5922 29.1885 45.1011 28.6975C44.6101 28.2882 44.2008 27.879 43.7097 27.3879C43.3824 27.3879 42.8913 27.4698 42.482 27.3879C40.4359 27.2242 38.5534 26.6513 36.9983 25.2599C36.4253 24.8506 35.9343 24.3596 35.3613 23.9503C34.461 23.2137 33.4788 22.8045 32.4148 22.3952C32.2511 22.3134 32.0056 22.2315 31.9238 22.1497C31.6782 21.6586 31.3508 21.7405 30.9416 21.8223C30.8597 21.8223 30.8597 21.8223 30.7779 21.8223C28.7317 21.986 27.6677 23.2955 26.9311 25.0962C26.6037 25.9965 26.1126 26.6513 25.2123 26.9787C24.9667 27.0605 24.7212 27.3061 24.4757 27.4698C23.5753 27.6334 22.675 27.7971 21.6929 28.0427C20.7107 28.2064 19.8104 28.4519 18.9101 29.0248C19.483 29.7615 19.2374 30.5799 18.9919 31.3984C18.6645 32.2987 17.9279 32.8717 17.1913 33.4446C17.0276 33.5264 16.8639 33.6083 16.6183 33.6901C16.7002 34.7541 17.2731 35.4908 18.2553 35.8182C18.7464 35.9819 19.2374 36.0637 19.7285 36.1456C20.4652 36.2274 21.2018 36.3092 22.0202 36.3911C23.9846 36.6366 25.8671 36.3092 27.7495 35.9C28.7317 35.7363 29.4683 35.0815 30.2868 34.5086C30.3687 34.4268 30.5324 34.3449 30.6142 34.2631C30.696 34.2631 30.9416 34.2631 30.9416 34.3449C31.0234 34.4268 31.0234 34.6723 30.9416 34.7541C30.8597 34.9178 30.696 34.9997 30.5324 35.1634C30.696 35.4089 30.9416 35.5726 31.1053 35.8182C31.9238 34.7541 31.9238 34.7541 33.3152 34.5086C33.6425 34.4268 34.0518 34.5086 34.3792 34.5905C35.6069 34.836 36.7527 34.7541 37.9804 34.5905C38.4715 34.5086 38.7989 34.2631 38.9626 33.772C39.29 32.4624 40.2722 31.644 41.4999 31.2347C42.6457 30.8255 43.7916 30.3344 44.6919 29.5159C44.7738 29.4341 44.8556 29.4341 44.9375 29.4341C45.0193 29.4341 45.0193 29.4341 45.183 29.4341C45.2648 29.8433 45.0193 30.007 44.6919 30.1707C43.9553 30.6618 43.2187 31.1529 42.3183 31.4803C41.7454 31.644 41.2543 31.9713 40.6814 32.2169C40.1903 32.4624 39.9448 32.8717 39.7811 33.2809C39.6174 33.6901 39.3718 34.0994 39.2082 34.4268C39.0445 34.7541 38.7989 34.9178 38.4715 34.9997C37.0801 35.2452 35.6069 35.4908 34.2155 35.1634C33.5607 34.9997 32.9878 35.1634 32.4148 35.3271C31.7601 35.4908 31.5145 36.3092 31.8419 36.8003C32.4148 37.6188 33.1515 38.4373 33.8062 39.2557C34.1336 38.8465 34.3792 38.5191 34.6247 38.1917C34.6247 38.1917 34.7066 38.1917 34.7066 38.2736C34.5429 38.5191 34.461 38.8465 34.2973 39.092C34.0518 39.5013 34.1336 39.7468 34.6247 39.9924C34.8703 39.7468 35.1158 39.4194 35.3613 39.1739L35.4432 39.2557C35.1976 39.5831 35.0339 39.9924 34.7884 40.4016C36.0161 41.8749 37.5712 42.9389 38.9626 44.2484C39.1263 44.0847 39.2082 44.0029 39.3718 43.8392C39.6992 43.921 39.9448 44.0847 39.9448 44.4121C40.0266 46.5401 40.8451 48.4226 41.4999 50.387C41.991 51.8602 42.5639 53.2516 43.3824 54.5612C43.9553 55.4615 44.6919 56.1981 45.3467 57.0166C45.6741 57.4258 45.8378 57.835 45.7559 58.3261C45.5922 59.6357 45.5104 61.0271 45.3467 62.3366C45.2648 63.0733 45.183 63.8099 45.183 64.5465C45.183 64.9557 45.183 65.365 45.183 65.8561C45.5922 65.6924 45.8378 65.6105 46.0015 65.365C46.3289 64.9557 46.6562 64.5465 46.9836 64.1373C47.2292 63.728 47.4747 63.237 47.7203 62.9096C48.5387 62.0093 48.6206 60.9452 48.6206 59.7994C48.6206 59.3083 48.6206 58.8172 48.7024 58.3261C48.8661 57.0984 48.5387 55.9526 47.8839 54.8885C47.6384 54.5612 47.4747 54.1519 47.311 53.8245C46.5744 52.2694 45.5922 50.7962 44.6919 49.3229C44.119 48.4226 43.7097 47.4405 43.2187 46.4583C42.9731 45.9672 42.8094 45.4761 42.6457 45.0669C41.8273 43.5118 41.6636 41.793 41.7454 39.9924C41.8273 37.7825 42.8094 35.8182 43.6279 33.8538C44.0371 32.9535 44.5282 32.0532 45.0193 31.1529C45.1011 30.9892 45.2648 30.9073 45.5104 30.9073C45.5104 30.9892 45.5104 31.1529 45.4285 31.2347C44.4464 32.9535 43.546 34.7541 42.8913 36.6366C42.482 37.7006 42.1546 38.7647 42.1546 39.9105C42.1546 40.6471 42.1546 41.3838 42.2365 42.1204C42.4002 43.2663 42.6457 44.3303 43.2187 45.3124C43.6279 46.0491 43.8734 46.9494 44.2827 47.7678C44.9375 49.0774 45.7559 50.3051 46.4925 51.5328C47.1473 52.6787 47.8021 53.8245 48.375 54.9704C48.8661 55.9526 49.1117 57.0166 49.0298 58.0806C48.948 59.0628 48.8661 60.1268 48.7843 61.1089C48.7024 61.7637 48.4569 62.4185 48.0476 62.9914C47.5566 63.6462 47.2292 64.301 46.8199 64.9557C46.4107 65.6105 45.9196 66.1835 45.0193 66.1835C44.8556 67.5749 45.1011 68.9663 45.7559 70.1121C46.0015 70.6032 46.4107 71.0124 46.9018 71.258C48.0476 71.9946 49.2753 72.5675 50.6668 72.6494C51.076 71.9946 51.1578 71.1761 51.8945 70.7669C51.7308 71.0124 51.5671 71.3398 51.4852 71.5854C51.4034 71.8309 51.3215 72.0765 51.2397 72.322C51.2397 72.4038 51.2397 72.5675 51.2397 72.6494C51.2397 72.7312 51.3215 72.7312 51.3215 72.7312C51.4852 72.7312 51.5671 72.8131 51.7308 72.8131C52.0582 72.1583 52.3037 71.5035 52.6311 70.9306C52.7129 70.9306 52.7129 70.9306 52.7948 71.0124C52.6311 71.5035 52.3855 72.0765 52.2218 72.6494C52.7948 72.7312 53.0403 72.2401 53.5314 72.1583C53.5314 72.322 53.5314 72.4857 53.5314 72.7312C54.9228 72.4857 56.3961 72.6494 57.7056 72.1583C57.7875 72.1583 57.8693 72.0765 58.033 71.9946C57.9511 71.6672 57.4601 71.4217 57.8693 71.1761C58.2785 70.9306 58.2785 71.4217 58.6059 71.5854C59.1789 71.4217 59.4244 70.9306 59.5881 70.4395C59.8336 69.7029 59.097 68.7207 58.2785 68.557C57.4601 68.3933 56.6416 68.4752 55.7413 68.557C55.4139 68.557 55.0865 68.6389 54.7591 68.557C54.6773 68.557 54.5954 68.3933 54.4317 68.2296C54.6773 68.1478 54.841 68.0659 54.9228 68.0659C55.7413 67.9841 56.6416 67.8204 57.4601 67.8204C57.8693 67.8204 58.3604 67.9022 58.6878 68.0659C59.9973 68.9663 60.4884 69.8666 59.5881 71.258C59.097 71.9946 58.4422 72.4857 57.6238 72.7312C56.8871 72.9768 56.0687 73.0586 55.332 73.1405C54.4317 73.2223 53.5314 73.3042 52.7129 73.4679C51.6489 73.6315 50.5849 73.6315 49.6027 73.3042C48.2113 72.8949 46.9018 72.4038 45.8378 71.5035C45.7559 71.4217 45.6741 71.4217 45.6741 71.3398C45.0193 70.2758 44.0371 69.2118 44.119 67.8204C44.2008 66.0198 44.2008 64.2191 44.2827 62.4185C44.3645 60.9452 44.3645 59.472 44.4464 58.0806C44.4464 57.5895 44.2827 57.2621 44.0371 56.9347L43.9553 56.8529C42.8094 55.8707 42.1546 54.5612 41.5817 53.2516C41.1725 52.3513 40.9269 51.451 40.5996 50.5506C40.0266 48.9137 39.4537 47.3586 39.2082 45.6398C39.1263 45.3943 39.0445 45.1487 38.7989 44.985C37.7349 44.494 36.8346 43.7573 36.098 42.857C35.2795 41.9567 34.3792 41.0564 33.5607 40.1561C32.333 38.6828 31.1871 37.1277 29.9594 35.6545C29.9594 35.6545 29.7957 35.6545 29.7139 35.7363C28.3225 36.6366 26.7674 36.8822 25.2123 37.0459C23.9027 37.2096 22.5113 37.2096 21.2018 36.964C20.547 36.8822 19.8922 36.8003 19.2374 36.7185C16.9457 36.4729 16.2091 35.3271 15.7999 33.1991C15.718 32.8717 15.7999 32.6261 15.7999 32.2987C15.7999 32.0532 15.7999 31.8077 15.718 31.5621C15.3906 30.8255 15.7999 30.3344 16.1273 29.7615C16.2909 29.5978 16.5365 29.4341 16.7002 29.3522C17.355 29.1067 18.0916 28.8612 18.7464 28.6156C19.8922 28.1245 20.9562 27.7153 22.1839 27.5516C22.2658 27.5516 22.3476 27.4698 22.5113 27.3879C22.2658 27.0605 21.9384 26.8968 21.611 26.7331C20.547 26.1602 19.7285 25.2599 18.9919 24.3596C18.0097 23.1319 17.6005 21.6586 17.6005 20.0217C17.6005 19.6943 17.6823 19.3669 17.846 19.0395C18.0097 18.6303 18.2553 18.221 18.5827 17.8936C18.8282 17.6481 19.2374 17.4026 19.5648 17.2389C20.9562 16.5841 22.1839 16.6659 23.4117 17.5662C24.4757 18.3029 25.4578 19.2032 26.1945 20.2672C26.5218 20.7583 26.9311 21.0038 27.504 21.1675C27.9132 21.3312 28.3225 21.4949 28.7317 21.5768C28.9773 21.6586 29.2228 21.5768 29.4683 21.5768C30.0413 21.4949 30.6142 21.3312 31.1053 21.2494C31.3508 21.2494 31.5964 21.3312 31.7601 21.4131C32.4148 21.7405 32.9878 22.1497 33.6425 22.3952C34.3792 22.7226 35.1158 23.2137 35.7706 23.7048C36.7527 24.5233 37.8167 25.178 38.9626 25.751C39.2082 25.8328 39.4537 25.9147 39.6174 25.9965C40.1085 25.0962 40.354 24.7688 40.5996 24.4414ZM95.6827 36.8822C96.0101 36.5548 96.2556 36.3911 96.4193 36.0637C97.3196 34.9178 97.9744 33.6083 98.4655 32.2169C98.8747 30.7436 99.284 29.3522 99.3658 27.7971C99.4477 26.4876 99.4477 25.0962 98.9566 23.8685C98.3836 22.4771 97.7289 21.1675 97.0741 19.858C96.583 18.8758 96.0101 18.7121 94.9461 19.1213C94.8642 19.1213 94.7824 19.2032 94.6187 19.285C94.2913 19.285 94.0457 19.3669 93.7184 19.3669C93.5547 19.3669 93.391 19.285 93.2273 19.285C92.8999 19.2032 92.6543 19.2032 92.4088 19.4487C92.1633 19.6943 92.1633 19.9398 92.327 20.2672C92.4088 20.4309 92.4907 20.5946 92.5725 20.6764C93.391 22.3952 93.8002 24.2777 93.5547 26.1602C93.4728 26.8968 93.3091 27.6334 93.391 28.3701C93.4728 29.5159 93.0636 30.4981 92.6543 31.4803C92.4088 31.9713 92.1633 32.4624 91.5085 32.708C90.9356 32.135 90.4445 31.5621 89.9534 30.9892C89.5442 30.4981 88.9712 30.0889 88.3164 29.8433C87.8254 30.1707 87.5798 30.7436 87.0887 30.9892C87.0069 30.9892 87.0069 30.9073 86.925 30.9073C87.3343 30.4981 87.6617 30.0889 88.1527 29.6796C87.498 29.1067 86.8432 28.943 86.2703 28.6156C85.7792 29.0248 85.2881 29.3522 84.797 29.6796C83.6512 30.4981 82.5053 31.1529 81.1139 31.4803C80.2136 31.7258 79.3951 32.0532 78.4948 32.2169C76.3668 32.708 74.2387 32.9535 72.1926 33.6083C71.2104 33.9357 70.3101 34.3449 69.6553 35.1634C69.0824 35.9 68.5094 36.6366 68.0184 37.4551C67.3636 38.601 66.7088 39.8287 66.1359 41.1382C65.5629 42.4478 65.3992 43.7573 65.9722 45.1487C66.1359 45.4761 66.2996 45.7217 66.3814 46.0491C66.9543 47.2768 67.5273 48.5045 67.3636 49.8959C67.3636 50.0596 67.3636 50.2233 67.4454 50.4688C67.9365 50.2233 68.4276 49.9777 68.8368 49.7322C68.4276 48.3408 68.182 47.0312 68.3457 45.6398C68.5094 44.0847 69.0824 42.1204 69.5734 41.6293C69.5734 41.8749 69.6553 42.0385 69.6553 42.2022C69.5734 42.6115 69.4098 42.9389 69.3279 43.3481C68.9187 44.6577 68.755 45.9672 68.8368 47.3586C69.0005 48.9137 69.6553 50.2233 70.4738 51.451C70.5556 51.6147 70.8012 51.7784 70.9648 51.9421C71.6196 51.5328 71.947 50.7962 72.6018 50.5506C72.2744 50.9599 71.8652 51.451 71.5378 51.8602C71.2922 52.1057 71.1285 52.3513 71.4559 52.6787C72.0289 52.3513 72.3562 51.7784 73.0929 51.451C72.6018 52.1057 71.947 52.4331 71.7833 53.1698C72.0289 53.579 72.3562 53.8245 72.7655 53.9882C73.0929 53.7427 73.3384 53.4971 73.6658 53.3335C74.7298 52.515 76.6941 52.6787 77.3489 54.2338C77.5945 54.8067 77.7582 55.3796 77.9219 55.9526C78.0855 56.771 78.3311 57.4258 78.8222 58.0806C79.1496 58.4898 79.2314 58.9809 79.2314 59.5538C79.2314 60.6997 78.904 61.8456 78.4948 62.9096C78.0037 64.2191 77.1852 65.2831 75.7938 65.7742C75.0572 66.0198 74.8117 66.5108 74.648 67.1656C74.5661 67.493 74.5661 67.7386 74.4843 68.0659C74.4024 68.3933 74.3206 68.7207 74.075 68.9663C72.8473 70.685 71.3741 71.9946 69.4098 72.8131C68.8368 73.0586 68.2639 73.4679 67.691 73.8771C67.2817 74.1226 66.9543 74.5319 66.8725 74.9411C67.118 75.3503 67.2817 75.6777 67.4454 76.087C67.691 75.8414 67.8547 75.5959 68.1002 75.3503C67.7728 76.4962 67.7728 76.4962 68.1002 76.8236C68.2639 76.3325 68.5094 75.8414 69.0824 75.5959C68.9187 76.087 68.4276 76.4144 68.5913 76.9873C69.0005 77.151 69.2461 76.9054 69.4916 76.7417C70.883 75.9233 72.1926 74.9411 73.4203 73.9589C73.9113 73.6315 74.1569 73.2223 74.1569 72.6494C74.1569 72.322 74.075 71.9946 74.4843 71.7491C74.4843 72.2401 74.4843 72.6494 74.4843 73.3042C74.8935 72.9768 75.2209 72.8131 75.4664 72.5675C75.5483 72.1583 75.3027 71.7491 75.6301 71.3398C75.712 71.6672 75.7938 71.9946 75.8757 72.322C76.4486 71.9946 76.9397 71.7491 77.3489 71.4217C77.9219 71.0124 78.2492 70.6032 78.4948 69.8666C78.8222 68.8844 79.1496 67.9022 79.477 66.8382C79.5588 66.6745 79.5588 66.5927 79.5588 66.429C79.8043 65.0376 80.1317 63.728 80.6228 62.4185C80.7865 62.0093 80.9502 61.5182 80.9502 61.1089C81.2776 59.2264 81.6868 57.4258 82.2598 55.6252C82.7508 54.0701 83.5693 52.6787 84.1422 51.2054C84.3059 50.7962 84.5515 50.4688 85.0426 50.3051C85.1244 50.5506 85.2063 50.7143 85.2881 50.9599C85.6155 50.7143 85.861 50.4688 86.1066 50.2233C87.2524 49.0774 88.3164 47.8497 89.626 46.9494C89.9534 46.7038 90.1171 46.3764 90.3626 46.0491C91.0174 45.1487 91.5085 44.1666 91.8359 43.1026C91.9996 42.6115 92.2451 42.1204 92.327 41.5475C92.6543 40.4016 92.7362 39.1739 92.6543 38.028C92.6543 37.7006 92.5725 37.2914 93.0636 37.0459C93.391 37.6188 93.1454 38.1917 93.391 38.6828C94.455 38.601 94.7005 38.4373 94.6187 37.4551C94.5368 36.6366 94.455 35.8182 94.3731 35.0815C94.3731 34.9997 94.3731 34.9178 94.455 34.836C94.5368 34.836 94.7005 34.836 94.7824 34.836C94.8642 34.836 94.9461 34.836 95.1098 34.836C95.2735 35.2452 95.1916 36.0637 95.6827 36.8822ZM24.1483 26.5694C25.5397 25.9147 25.9489 25.751 26.44 24.2777C26.7674 23.2137 27.3403 22.3134 28.2406 21.4131C28.0769 21.3312 27.9132 21.2494 27.7495 21.3312C27.2585 21.4949 26.9311 21.1675 26.6037 20.922C26.3581 20.7583 26.1945 20.5127 26.0308 20.2672C25.2941 19.1213 24.2301 18.3029 23.1661 17.5662C22.2658 16.9115 21.3655 16.7478 20.3833 17.157C20.1378 17.2389 19.8104 17.4026 19.5648 17.4844C18.5827 18.0573 18.0916 19.1213 18.1734 20.1854C18.3371 22.0678 19.2374 23.5411 20.547 24.8506C20.6288 24.9325 20.7107 24.9325 20.7925 25.0143C21.1199 24.5233 21.4473 24.0322 21.7747 23.5411C21.8566 23.5411 21.8566 23.6229 21.9384 23.6229C21.7747 23.9503 21.5292 24.1959 21.4473 24.5233C21.2836 24.8506 20.9562 25.0962 21.2836 25.5054C21.8566 25.0143 22.1839 24.1959 22.9206 23.8685C22.5113 24.4414 21.9384 24.9325 21.6929 25.8328C22.5113 25.9965 23.3298 26.242 24.1483 26.5694ZM82.669 18.0573C82.7508 18.3847 82.9964 18.3847 83.2419 18.3847C84.0604 18.3847 84.797 18.3029 85.5336 18.221C86.5976 18.1392 87.7435 17.9755 88.8075 17.8936C89.1349 17.8936 89.4623 17.9755 89.7078 18.0573C90.3626 18.3847 91.0993 18.794 91.8359 19.2032C92.2451 18.5484 92.8999 18.5484 93.6365 18.794C93.9639 18.8758 94.3731 18.794 94.6187 18.7121C94.9461 18.6303 95.2735 18.3847 95.6827 18.221C94.9461 17.0752 94.0457 16.093 92.6543 15.7656C92.4906 15.7656 92.2451 15.6838 92.2451 15.6019C91.9996 15.1108 91.5903 15.1108 91.1811 15.029C90.6082 14.8653 89.9534 14.7834 89.3805 14.7016C88.3164 14.5379 87.2524 14.6197 86.3521 15.1927C85.1244 16.0112 83.8967 16.9933 82.7508 17.8936C82.669 17.9755 82.669 17.9755 82.669 18.0573ZM73.3384 54.0701C73.8295 54.4793 74.3206 54.9704 74.8117 55.2159C75.7938 55.7889 76.2031 56.6073 76.1212 57.6714C76.0394 58.5717 75.8757 59.5538 75.7938 60.4542C75.5483 62.0093 75.3027 63.5644 75.0572 65.1194C75.7938 65.1194 76.2849 64.7102 76.6941 64.2191C78.0037 62.7459 78.5766 60.9452 78.5766 59.0628C78.5766 58.6535 78.4129 58.408 78.2492 58.0806C77.7582 57.344 77.5126 56.5255 77.2671 55.707C77.1852 55.1341 76.9397 54.5612 76.6941 54.0701C75.9575 52.8424 74.1569 52.7605 73.3384 54.0701ZM94.7005 34.9178C94.7005 35.7363 94.7824 36.5548 94.8642 37.4551C95.2735 37.3733 95.2735 37.1277 95.1916 36.8822C95.1098 36.1456 94.9461 35.4908 94.7005 34.9178Z" fill="black"/>
<path d="M47.1499 30.4168C47.1499 30.5805 47.1499 30.826 47.1499 30.9897C46.9863 32.2993 46.8226 33.6088 46.7407 34.9184C46.6589 36.1461 47.2318 37.0464 48.2958 37.6194C48.6232 37.7831 48.9506 37.9467 49.278 38.1104C50.0964 38.4378 50.5057 39.0926 50.5875 39.9929C50.6694 40.8114 50.4238 41.548 50.1783 42.2846C50.0964 42.612 49.9328 42.9394 49.8509 43.2668C49.6872 43.9216 49.8509 44.4945 50.4238 44.8219C50.9968 45.1493 51.7334 45.3948 52.3882 45.5585C52.9611 45.7222 53.3703 45.9678 53.7796 46.377C54.2707 47.0318 54.598 47.6866 54.6799 48.505C54.7617 49.2417 54.8436 49.9783 55.0073 50.6331C55.2528 51.6971 55.8258 52.5155 56.6442 53.1703C57.0535 53.4159 57.3808 53.6614 57.7901 53.9888C58.0356 54.1525 58.1993 54.398 58.363 54.6436C58.1993 54.6436 58.0356 54.6436 57.8719 54.5617C56.7261 54.0706 55.7439 53.334 55.0073 52.27C54.8436 52.0245 54.6799 51.6971 54.598 51.3697C54.4343 50.5512 54.2707 49.8146 54.1888 48.9961C54.107 48.2595 53.8614 47.6047 53.534 47.0318C53.2066 46.4589 52.6337 46.2133 51.9789 46.0496C51.2423 45.8859 50.5875 45.7222 49.9328 45.2311C49.1143 44.5764 48.9506 44.0034 49.278 43.0213C49.5235 42.2028 49.7691 41.4662 49.9328 40.6477C50.1783 39.6655 49.8509 39.0926 48.9506 38.6015C48.6232 38.4378 48.214 38.2741 47.8866 38.0286C47.0681 37.6194 46.577 36.9646 46.2496 36.1461C46.1678 35.9006 46.0859 35.655 46.0859 35.4095C46.2496 33.8544 46.4133 32.2993 46.6589 30.7442C46.6589 30.5805 46.8226 30.4168 46.9044 30.335C46.9863 30.335 47.0681 30.4168 47.1499 30.4168Z" fill="black"/>
<path d="M26.5203 35.5733C26.193 35.5733 26.1111 35.3278 26.1111 35.0822C26.193 34.673 26.193 34.1819 26.3567 33.8545C26.684 33.036 26.6022 32.3813 25.9474 31.8083C25.7019 31.6446 25.5382 31.3991 25.2926 31.1535C24.8016 30.7443 24.556 30.2532 24.3923 29.6803C24.3105 29.0255 23.9831 28.5344 23.492 28.1252C23.4102 28.1252 23.4102 27.9615 23.4102 27.9615C23.492 27.6341 23.7375 27.716 23.9012 27.7978C24.3105 28.0434 24.556 28.3707 24.6379 28.78C24.8834 29.7621 25.3745 30.5806 26.193 31.3172C27.0114 32.0539 27.257 32.9542 26.8477 34.0182C26.684 34.4274 26.6022 35.0004 26.5203 35.5733Z" fill="black"/>
<path d="M29.469 26.897C29.3871 27.0607 29.2235 27.47 29.0598 27.7155C28.8142 28.0429 28.405 28.0429 28.0776 27.8792C27.7502 27.7155 27.4228 27.2244 27.5865 26.897C27.6684 26.6515 27.8321 26.3241 27.9957 26.1604C28.2413 25.833 28.5687 25.7512 28.8961 25.9149C29.3053 25.9967 29.3871 26.3241 29.469 26.897Z" fill="black"/>
<path d="M104.52 53.9885C104.356 53.743 104.111 53.6611 103.865 53.6611C103.784 53.6611 103.702 53.6611 103.62 53.6611H103.538C102.228 53.8248 100.837 53.9067 99.2819 53.9067C98.3816 53.9067 97.4813 53.9067 96.4173 53.8248C94.0437 53.743 91.6702 53.6611 89.4603 53.6611C88.7237 53.6611 87.987 53.743 87.2504 53.8248C87.0867 53.8248 86.8412 53.8248 86.6775 53.9067C86.5138 53.9067 86.4319 53.9885 86.2682 54.0704C86.1864 54.0704 86.1864 54.1522 86.1045 54.1522L85.6953 54.3159L86.1045 54.4796C86.2682 54.5615 86.5138 54.6433 86.6775 54.6433C86.7593 54.6433 86.8412 54.6433 86.8412 54.6433C87.9052 54.4796 88.8874 54.3978 89.7877 54.3978C90.0332 54.3978 90.2788 54.3978 90.6061 54.3978C91.0972 54.3978 91.5883 54.3978 92.2431 54.4796C92.7342 54.4796 93.2252 54.4796 93.7163 54.4796C94.5348 54.4796 95.4351 54.4796 96.3354 54.4796C96.7447 54.4796 97.0721 54.4796 97.4813 54.4796C98.2998 54.4796 99.1182 54.5615 99.8549 54.5615C100.673 54.5615 101.41 54.5615 102.065 54.4796C102.392 54.4796 102.801 54.4796 103.129 54.4796C103.374 54.4796 103.62 54.4796 103.784 54.4796C103.947 54.4796 104.029 54.4796 104.193 54.3978C104.275 54.3978 104.275 54.3978 104.356 54.3978L104.684 54.3159L104.52 53.9885Z" fill="#F15748"/>
<path d="M99.8593 57.0169C99.8593 56.9351 99.7774 56.7714 99.6956 56.6895C99.5319 56.6077 99.2864 56.5258 99.0408 56.5258C97.1583 56.444 95.194 56.3621 93.3115 56.2803C92.7386 56.2803 92.2475 56.2803 91.8383 56.2803C90.6924 56.2803 89.7102 56.3621 88.8099 56.5258H88.7281C88.4825 56.5258 88.0733 56.6077 87.8278 57.0987L87.6641 57.4261H87.9914C88.3188 57.4261 88.6462 57.3443 88.9736 57.3443C89.6284 57.2624 90.2832 57.1806 90.9379 57.1806C91.2653 57.1806 91.5927 57.1806 91.8383 57.1806C92.3293 57.1806 92.8204 57.1806 93.3115 57.1806H93.8026C94.7029 57.1806 95.7669 57.2624 96.7491 57.2624C97.4039 57.3443 98.1405 57.3443 98.7953 57.4261C99.0408 57.4261 99.3682 57.508 99.6956 57.508H100.023L99.8593 57.1806C99.9411 57.0169 99.8593 57.0169 99.8593 57.0169Z" fill="#F15748"/>
<path d="M66.8727 20.2676C66.7909 20.2676 66.7909 20.2676 66.709 20.2676C66.2998 20.2676 65.8905 20.3494 65.4813 20.3494C64.8265 20.4313 64.2536 20.4313 63.5988 20.4313C62.2074 20.5131 60.816 20.595 59.4246 20.595C58.7698 20.595 58.0332 20.6768 57.3784 20.6768C56.4781 20.6768 55.496 20.7587 54.5956 20.7587C54.4319 20.7587 54.3501 20.8405 54.1864 20.8405C54.1046 20.8405 54.0227 20.9224 53.9409 20.9224L53.6953 21.0042L53.859 21.2497C54.0227 21.5771 54.2682 21.7408 54.5138 21.7408C54.5956 21.7408 54.6775 21.7408 54.8412 21.659C55.6596 21.4134 56.4781 21.3316 57.3784 21.3316C57.5421 21.3316 57.7058 21.3316 57.8695 21.3316L58.7698 21.2497C60.3249 21.1679 61.88 21.086 63.4351 21.086C63.7625 21.086 64.0899 21.086 64.4173 21.086C64.8265 21.086 65.2358 21.086 65.645 21.086C66.2179 21.086 66.709 21.086 67.1182 21.1679H67.2819L67.3638 21.0042C67.4456 20.7587 67.4456 20.5131 67.3638 20.4313C67.1182 20.2676 66.9546 20.2676 66.8727 20.2676Z" fill="#F15748"/>
<path d="M64.6644 24.1959C64.5008 24.1959 64.3371 24.1141 64.1734 24.1141H63.6823C61.8816 24.0322 59.9992 24.0322 58.1985 24.0322C57.7893 24.0322 57.2982 24.1141 56.889 24.1959L56.6434 24.2778C56.4797 24.2778 56.3979 24.4415 56.316 24.5233L56.2342 24.6052L56.1523 24.687V24.7689V24.8507V24.9325L56.2342 25.0962L56.3979 25.0144C57.7893 24.687 59.1807 24.687 60.3266 24.687C60.7358 24.687 61.145 24.687 61.5543 24.687C61.9635 24.687 62.3727 24.687 62.782 24.687C63.6004 24.687 64.2552 24.687 64.91 24.6052L66.4651 24.4415L64.91 24.1959C64.8281 24.1959 64.7463 24.1959 64.6644 24.1959Z" fill="#F15748"/>
<path d="M40.7662 57.5074C40.6844 57.4256 40.6025 57.3438 40.5207 57.3438C37.5742 57.6711 34.7095 57.8348 31.4357 57.9985C31.3538 57.9985 31.272 58.0804 31.1901 58.0804L31.1083 58.1622L30.6172 58.4896L31.1901 58.5715C31.3538 58.5715 31.5994 58.5715 32.0086 58.5715C34.1366 58.5715 39.3748 58.1622 40.8481 57.9167L41.2573 57.8348L40.9299 57.5893C40.8481 57.5893 40.8481 57.5074 40.7662 57.5074Z" fill="#F15748"/>
<path d="M39.3728 60.373C39.0454 60.373 38.7999 60.373 38.4725 60.4549C38.2269 60.4549 37.9814 60.4549 37.8177 60.5367C37.2448 60.5367 36.6719 60.5367 36.0989 60.5367C35.4441 60.5367 34.7075 60.5367 33.9709 60.5367C33.1524 60.5367 32.334 60.6186 31.5155 60.7004L30.9426 60.7823C30.697 60.7823 30.2878 60.8641 29.9604 61.3552L29.7148 61.7645L30.2059 61.6826C30.4515 61.6826 30.697 61.6008 30.9426 61.6008C31.3518 61.5189 31.761 61.4371 32.0884 61.4371C33.2343 61.3552 34.5438 61.2734 36.0989 61.2734C37.1629 61.2734 38.3088 61.1915 39.4547 60.8641L40.8461 60.4549H39.3728V60.373Z" fill="#F15748"/>
<path d="M57.1331 69.1299C57.5423 69.1299 57.9515 69.3754 58.0334 69.7028C58.1152 70.0302 57.9515 70.2757 57.5423 70.4394C57.2968 70.5213 57.0512 70.6031 56.8057 70.6031C56.2328 70.6031 55.9872 70.1939 56.3146 69.621C56.3965 69.2936 56.7238 69.2117 57.1331 69.1299Z" fill="black"/>
<path d="M29.5508 24.7687C29.7145 24.605 29.8782 24.5232 29.96 24.4413C30.4511 24.3595 31.2696 24.6869 31.7607 25.0961C31.3514 25.2598 30.4511 25.178 29.5508 24.7687Z" fill="black"/>
<path d="M40.3535 23.46C40.108 24.0329 39.8625 24.524 39.6169 25.1788C39.5351 24.524 39.7806 24.0329 40.3535 23.46Z" fill="black"/>
<path d="M21.5298 31.1528C21.5298 31.2346 21.5298 31.2346 21.5298 31.3165C21.4479 31.562 21.2024 31.7257 20.9568 31.6438C20.875 31.6438 20.875 31.3983 20.875 31.3983C21.0387 30.9891 21.2842 31.0709 21.5298 31.1528Z" fill="black"/>
<path d="M40.5977 24.4414C40.7614 23.8685 40.8432 23.7048 41.4161 23.1318C41.1706 23.7048 41.0069 23.9503 40.5977 24.4414Z" fill="black"/>
<path d="M59.5067 32.2988C59.343 32.7899 59.1793 33.281 59.0156 33.8539C59.0156 33.1991 59.0975 32.7081 59.5067 32.2988Z" fill="black"/>
<path d="M58.4414 69.7854C58.6051 69.6217 58.7688 69.458 58.7688 69.458C58.9325 69.5399 59.0143 69.7036 59.0962 69.7854C59.0143 69.8672 58.8506 70.0309 58.7688 70.0309C58.7688 70.1128 58.6051 69.9491 58.4414 69.7854Z" fill="black"/>
<path d="M58.2798 68.8025C58.1161 68.9662 58.0342 69.048 57.8705 69.048C57.7887 69.048 57.625 68.8843 57.625 68.8025C57.625 68.7206 57.7887 68.5569 57.8705 68.5569C58.0342 68.4751 58.1161 68.6388 58.2798 68.8025Z" fill="black"/>
<path d="M58.6086 32.708C58.5268 33.0354 58.4449 33.4446 58.3631 33.772C58.1994 33.3628 58.2812 32.9535 58.6086 32.708Z" fill="black"/>
<path d="M22.1832 32.708C22.3469 32.8717 22.4288 32.9536 22.4288 32.9536C22.4288 33.0354 22.2651 33.1172 22.1832 33.1991C22.1832 33.1991 22.0195 33.1172 22.0195 33.0354C22.1014 33.0354 22.1014 32.8717 22.1832 32.708Z" fill="black"/>
<path d="M59.9169 31.3984C59.9169 31.4803 60.0806 31.5621 59.9987 31.644C59.835 31.8895 59.6713 32.0532 59.4258 32.2988C59.6713 31.9714 59.835 31.7258 59.9169 31.3984Z" fill="black"/>
<path d="M22.4297 31.1528C22.5115 30.9891 22.5934 30.9072 22.6752 30.9072C22.7571 30.9072 22.9208 30.9891 23.0026 31.0709L22.9208 31.3165C22.7571 31.2346 22.6752 31.1528 22.4297 31.1528Z" fill="black"/>
<path d="M58.6055 32.7089C58.7692 32.3815 58.851 32.136 59.0147 31.8086C59.0147 32.2178 58.851 32.4634 58.6055 32.7089Z" fill="black"/>
<path d="M40.3555 23.4595C40.4373 23.2139 40.5192 23.0502 40.6829 22.8047C40.7647 22.8047 40.7647 22.8865 40.8466 22.8865C40.601 23.1321 40.4373 23.2958 40.3555 23.4595Z" fill="black"/>
<path d="M35.6875 38.1916C35.7693 38.1098 35.8512 38.028 35.933 37.8643L36.0149 37.9461C35.933 38.028 35.8512 38.1916 35.8512 38.2735C35.7693 38.2735 35.7693 38.1916 35.6875 38.1916Z" fill="black"/>
<path d="M58.6875 60.209C58.7693 60.0453 58.933 59.8817 59.0149 59.7998C59.0149 59.8817 59.0967 59.8816 59.0967 59.9635C58.933 60.0453 58.8512 60.1272 58.6875 60.209Z" fill="black"/>
<path d="M88.7288 30.5801C88.4833 30.9075 88.2377 31.153 87.9922 31.4804C88.074 30.9893 88.074 30.9893 88.7288 30.5801Z" fill="black"/>
<path d="M28.6509 26.4875C28.6509 26.6512 28.4872 26.8149 28.3235 26.8149C28.1598 26.8149 27.9961 26.6512 27.9961 26.4875C27.9961 26.3239 28.1598 26.1602 28.3235 26.1602C28.4872 26.1602 28.6509 26.3239 28.6509 26.4875Z" fill="white"/>
<path d="M16.4563 30.8258C16.62 30.2529 17.1111 29.7618 17.684 29.6799C17.7658 29.6799 17.8477 29.5981 17.8477 29.5162C17.8477 29.4344 17.7658 29.3525 17.684 29.3525C16.9474 29.4344 16.2926 30.0073 16.1289 30.7439C16.1289 30.8258 16.1289 30.9076 16.2108 30.9076C16.3744 30.9076 16.4563 30.9076 16.4563 30.8258Z" fill="white"/>
</svg>
