<svg width="90" height="90" viewBox="0 0 90 90" fill="none" xmlns="http://www.w3.org/2000/svg">
<path d="M73.6984 58.0996C73.6984 57.3996 73.5984 56.5996 73.6984 55.8996V55.7996C73.5984 53.7996 73.3984 51.9996 73.3984 50.0996H72.9984C72.9984 46.7996 73.1984 43.5996 72.4984 40.0996C72.3984 39.2996 71.8984 37.5996 71.4984 36.7996C70.9984 35.4996 68.6984 34.7996 67.7984 33.7996C67.6984 33.6996 67.5984 33.5996 67.4984 33.4996C67.1984 33.1996 66.8984 32.7996 66.4984 32.4996C66.0984 32.0996 65.6984 31.6996 65.1984 31.2996C65.0984 31.1996 64.9984 31.0996 64.8984 30.9996C64.2984 30.4996 63.6984 29.9996 62.9984 29.4996C62.7984 29.3996 62.6984 29.2996 62.4984 29.1996C62.3984 29.0996 62.2984 29.0996 62.1984 28.9996C62.0984 28.8996 61.9984 28.8996 61.7984 28.7996C61.6984 28.6996 61.5984 28.6996 61.3984 28.5996C61.1984 28.4996 61.0984 28.4996 60.8984 28.3996C60.5984 28.2996 60.3984 28.1996 60.0984 28.0996C59.9984 28.0996 59.8984 27.9996 59.7984 27.9996C59.6984 27.9996 59.5984 27.8996 59.4984 27.8996C59.2984 27.8996 59.1984 27.7996 58.9984 27.7996C58.7984 27.7996 58.6984 27.6996 58.4984 27.6996C58.3984 27.6996 58.2984 27.5996 58.0984 27.5996C57.7984 27.4996 57.4984 27.4996 57.1984 27.3996C57.0984 27.3996 56.9984 27.3996 56.8984 27.3996C56.7984 27.3996 56.6984 27.3996 56.5984 27.3996C56.3984 27.3996 56.2984 27.3996 56.0984 27.3996H55.9984C55.6984 27.3996 55.3984 27.3996 55.1984 27.2996C54.8984 27.2996 54.5984 27.2996 54.3984 27.2996C54.2984 27.2996 54.2984 27.2996 54.1984 27.2996C53.8984 27.2996 53.4984 27.2996 53.1984 27.2996C50.9984 27.1996 48.6984 27.1996 46.4984 27.0996C46.1984 27.0996 45.8984 27.0996 45.6984 27.0996C45.4984 27.0996 45.1984 27.0996 44.9984 27.0996H44.8984H44.7984C44.4984 27.0996 44.2984 27.0996 43.9984 27.0996C43.5984 27.0996 43.0984 27.0996 42.6984 27.0996C37.9984 26.9996 33.3984 26.7996 28.6984 26.6996C27.1984 26.6996 25.6984 26.5996 24.2984 26.9996C23.6984 27.1996 23.1984 27.3996 22.6984 27.5996C22.5984 27.7996 22.3984 27.8996 22.2984 28.0996C20.6984 30.0996 18.8984 32.0996 17.0984 34.0996C16.7984 34.6996 16.4984 35.3996 16.1984 35.9996C16.1984 36.0996 16.1984 36.1996 16.1984 36.2996C16.1984 36.6996 16.2984 37.0996 16.2984 37.5996C16.2984 37.8996 16.2984 38.1996 16.2984 38.4996C16.2984 38.5996 16.2984 38.7996 16.2984 38.8996C16.2984 39.2996 16.1984 39.6996 16.0984 40.0996C16.0984 40.2996 16.0984 40.3996 15.9984 40.5996C15.9984 40.6996 15.9984 40.7996 15.9984 40.8996C15.9984 41.1996 15.8984 41.3996 15.8984 41.6996C15.8984 41.7996 15.8984 41.8996 15.8984 41.9996C15.8984 42.0996 15.8984 42.1996 15.8984 42.2996C15.8984 42.3996 15.8984 42.4996 15.8984 42.5996C15.9984 43.2996 15.9984 43.8996 15.8984 44.5996C15.7984 44.8996 15.7984 45.0996 15.5984 45.2996C15.4984 46.7996 15.3984 48.1996 15.3984 49.5996C15.3984 51.5996 15.4984 53.4996 15.4984 55.4996C15.5984 58.8996 15.5984 62.3996 15.6984 65.7996C15.6984 65.9996 15.7984 66.2996 15.7984 66.4996C15.9984 67.4996 16.1984 68.4996 16.7984 69.1996C17.7984 70.4996 19.5984 70.6996 21.2984 70.7996C21.6984 70.7996 22.1984 70.8996 22.5984 70.8996C24.0984 70.9996 25.4984 71.0996 26.9984 71.0996C34.5984 71.3996 41.3984 71.8996 48.8984 71.4996L50.1984 71.9996C52.4984 71.9996 54.1984 72.1996 56.4984 71.7996C57.0984 71.6996 57.6984 71.3996 58.1984 71.4996L58.2984 71.5996C59.0984 71.4996 59.6984 71.1996 60.4984 71.1996C62.0984 70.8996 62.9984 70.4996 64.4984 70.6996C64.4984 70.5996 65.2984 70.7996 65.4984 70.7996C65.9984 70.7996 66.4984 70.5996 66.9984 70.3996C67.0984 70.3996 67.2984 70.2996 67.3984 70.2996C67.4984 70.1996 67.5984 70.1996 67.5984 70.1996C67.7984 70.0996 67.9984 69.9996 68.0984 69.9996C70.3984 69.3996 71.5984 67.8996 72.1984 65.6996C72.6984 63.6996 73.2984 61.7996 72.9984 59.6996C72.9984 59.5996 72.9984 59.5996 72.9984 59.4996C72.9984 59.3996 72.9984 59.2996 72.9984 59.1996C73.2984 58.6996 73.4984 58.3996 73.6984 58.0996Z" fill="white"/>
<path d="M32.6968 61.3C33.4968 62.6 35.3967 63.9 36.7967 64.5C37.7967 64.9 39.0968 65 39.6968 66C40.1968 66.8 39.7967 67.8 39.0967 68.4C38.3967 69 37.4967 69.1 36.5967 69.1C34.4967 69.1 32.4967 68.1 30.7967 66.9C30.2967 66.5 29.6967 66.1 29.3967 65.6C28.9967 65.1 28.7968 64.6 28.5968 64C27.9968 62.4 26.0967 53.3 28.7967 52.7C29.9967 52.5 30.0967 55.2 30.3967 56C30.9967 57.9 31.5968 59.5 32.6968 61.3Z" fill="#BBBBBA"/>
<path d="M67.5974 33.7C66.0974 34.7 63.7974 34.9 61.8974 34.9C51.6974 34.9 41.4974 35 31.2974 35C29.2974 35 20.2974 36.5 20.7974 32.9C21.0974 30.2 29.8974 28.8 32.0974 28.3C36.2974 27.4 40.6974 27.1 44.9974 27.1C47.7974 27.2 50.9974 26.6 53.7974 26.7C56.3974 26.8 59.3974 26.3 61.8974 27.4C64.2974 28.4 65.6974 31.7 67.5974 33.7Z" fill="#BBBBBA"/>
<path d="M16.1969 38.3994C16.0969 38.9994 16.0969 39.4994 15.9969 40.0994C15.8969 40.8994 15.7969 41.6994 15.8969 42.4994C17.1969 41.8994 16.8969 39.3994 16.1969 38.3994Z" fill="#BBBBBA"/>
<path d="M47.2973 45.7994C47.2973 47.5994 46.7973 48.8994 46.9973 50.6994C48.3973 50.8994 49.8973 50.9994 51.1973 51.3994C51.4973 51.4994 51.8973 51.2994 51.9973 51.4994C52.0973 51.6994 52.6973 51.9994 52.6973 52.1994C52.6973 53.3994 52.4973 54.0994 52.4973 55.2994C51.2973 55.2994 49.4973 55.5994 48.2973 55.8994C48.0973 55.8994 47.7973 55.9994 47.5973 56.1994C47.3973 56.3994 47.3973 56.5994 47.2973 56.7994C47.1973 57.4994 46.2973 59.4994 46.0973 60.1994C44.0973 60.2994 43.1973 59.8994 41.1973 59.9994C41.0973 58.8994 41.3973 57.7994 41.0973 56.6994C40.9973 56.3994 40.9973 55.5994 40.7973 55.3994C40.2973 54.9994 38.2973 55.1994 37.5973 55.0994C36.8973 54.9994 36.5973 53.9994 36.4973 53.2994C35.6973 49.5994 39.2973 51.5994 40.8973 49.4994C41.6973 48.4994 40.9973 46.7994 41.8973 45.8994C42.4973 45.3994 47.2973 44.9994 47.2973 45.7994Z" fill="#F15748"/>
<path d="M73.5984 58.9996C73.5984 58.6996 73.5984 58.4996 73.6984 58.0996C73.6984 57.3996 73.5984 56.5996 73.6984 55.8996V55.7996C73.5984 53.7996 73.3984 51.9996 73.3984 50.0996C73.3984 49.9996 73.3984 49.8996 73.3984 49.7996C73.2984 46.4996 73.1984 43.2996 73.0984 39.9996C72.9984 37.1996 71.8984 35.0996 69.1984 33.8996C68.7984 33.6996 68.3984 33.3996 68.1984 33.0996C66.6984 31.1996 65.1984 29.3996 63.2984 27.6996C61.0984 25.7996 58.7984 25.0996 56.0984 25.6996C55.1984 25.8996 54.1984 26.1996 53.0984 25.5996C53.0984 23.5996 52.3984 21.8996 50.7984 20.4996C49.4984 19.4996 48.2984 18.5996 46.5984 18.5996C45.1984 18.5996 43.6984 18.3996 42.2984 18.5996C38.0984 19.0996 34.9984 20.4996 33.0984 24.4996C32.9984 24.7996 32.8984 25.4996 32.7984 25.7996C30.9984 25.7996 28.7984 25.8996 27.1984 25.6996C25.2984 25.4996 23.8984 26.0996 22.6984 27.3996C22.5984 27.5996 22.3984 27.6996 22.2984 27.8996C20.6984 29.8996 18.8984 31.8996 17.0984 33.8996C16.7984 34.1996 16.5984 34.4996 16.2984 34.7996C16.2984 35.0996 16.1984 35.4996 16.1984 35.7996C16.1984 35.8996 16.1984 35.9996 16.1984 36.0996C16.1984 36.4996 16.2984 36.8996 16.2984 37.3996C16.2984 37.6996 16.2984 37.9996 16.2984 38.2996C16.2984 38.3996 16.2984 38.5996 16.2984 38.6996C16.2984 39.0996 16.1984 39.4996 16.0984 39.8996C16.0984 40.0996 16.0984 40.1996 15.9984 40.3996C15.9984 40.4996 15.9984 40.5996 15.9984 40.6996C15.9984 40.9996 15.8984 41.1996 15.8984 41.4996C15.8984 41.5996 15.8984 41.6996 15.8984 41.7996C15.8984 41.8996 15.8984 41.9996 15.8984 42.0996C15.8984 42.1996 15.8984 42.2996 15.8984 42.3996C15.9984 43.0996 15.9984 43.6996 15.8984 44.3996C15.7984 44.6996 15.7984 44.8996 15.5984 45.0996C15.4984 46.5996 15.3984 47.9996 15.3984 49.3996C15.3984 51.3996 15.4984 53.2996 15.4984 55.2996C15.5984 58.6996 15.5984 62.1996 15.6984 65.5996C15.6984 65.7996 15.6984 65.8996 15.6984 66.0996C15.6984 66.7996 15.8984 67.4996 16.0984 68.1996C16.4984 69.7996 17.4984 71.0996 19.0984 71.4996C20.2984 71.7996 21.4984 72.1996 22.6984 72.2996C25.0984 72.3996 27.5984 72.3996 29.9984 72.3996C34.8984 72.2996 39.6984 72.1996 44.5984 72.1996C46.2984 72.1996 47.9984 72.1996 49.6984 72.1996C51.9984 72.1996 54.1984 72.0996 56.4984 71.5996C57.0984 71.4996 58.2984 71.3996 58.2984 71.3996C59.0984 71.2996 65.3984 70.5996 65.4984 70.5996C65.9984 70.5996 66.4984 70.3996 66.9984 70.1996C67.0984 70.1996 67.2984 70.0996 67.3984 70.0996C67.4984 69.9996 67.5984 69.9996 67.5984 69.9996C67.7984 69.8996 67.9984 69.7996 68.0984 69.7996C70.3984 69.1996 71.5984 67.6996 72.1984 65.4996C72.6984 63.4996 73.1984 61.9996 73.2984 59.8996C73.2984 59.8996 73.2984 59.3996 73.2984 59.1996C73.5984 59.2996 73.5984 59.0996 73.5984 58.9996ZM43.7984 19.9996C48.7984 19.9996 50.9984 22.1996 51.2984 25.7996C49.6984 25.7996 43.6984 25.7996 42.1984 25.8996C40.6984 25.8996 36.8984 26.3996 35.1984 25.6996C35.1984 22.3996 39.5984 19.9996 43.7984 19.9996ZM69.6984 68.0996C69.5984 68.1996 69.4984 68.1996 69.3984 68.2996C68.9984 68.5996 68.3984 68.6996 67.7984 68.7996C67.6984 68.7996 67.6984 68.8996 67.5984 68.8996C67.4984 68.8996 67.3984 68.9996 67.2984 68.9996C67.1984 68.9996 67.0984 69.0996 66.9984 69.0996C66.8984 69.0996 66.7984 69.1996 66.6984 69.1996C66.5984 69.1996 66.5984 69.1996 66.4984 69.1996C66.4984 69.1996 66.4984 69.1996 66.3984 69.1996C66.2984 69.1996 66.2984 69.1996 66.1984 69.1996C65.8984 69.1996 65.5984 69.2996 65.2984 69.2996C65.2984 69.2996 59.1984 70.0996 59.0984 70.0996C58.9984 70.1996 58.4984 70.2996 58.4984 70.2996C58.3984 70.2996 58.2984 70.2996 58.1984 70.2996C57.9984 70.2996 56.6984 70.3996 56.2984 70.2996C54.0984 70.2996 52.2984 70.8996 50.0984 70.8996C46.8984 70.8996 43.7984 70.9996 40.5984 70.9996C37.4984 70.9996 33.7984 71.0996 30.7984 71.2996C29.4984 71.3996 28.0984 71.4996 26.7984 71.4996C25.2984 71.4996 23.5984 71.2996 22.0984 71.0996C21.4984 70.9996 20.9984 70.8996 20.3984 70.7996C19.7984 70.5996 19.1984 70.3996 18.5984 70.0996C17.7984 69.6996 17.3984 68.6996 17.1984 67.7996C16.9984 67.0996 16.6984 65.1996 16.6984 64.4996C16.5984 60.4996 16.1984 58.2996 16.5984 54.2996C16.6984 53.5996 16.4984 50.7996 16.4984 49.8996C16.4984 49.8996 17.2984 48.7996 18.5984 47.9996C19.7984 47.1996 20.9984 46.1996 22.0984 45.0996C21.0984 45.1996 20.4984 45.8996 19.7984 46.3996C18.9984 46.8996 17.4984 47.8996 16.5984 48.5996C16.4984 47.7996 16.6984 46.6996 16.6984 46.0996C16.7984 44.4996 16.7984 44.2996 16.7984 42.6996C16.7984 41.1996 16.8984 38.9996 16.9984 36.9996C24.1984 36.3996 31.0984 36.2996 37.8984 34.9996C37.5984 34.8996 37.2984 34.7996 36.9984 34.7996C36.1984 34.6996 35.3984 34.6996 34.5984 34.7996C34.0984 34.8996 33.4984 34.8996 32.9984 34.8996C31.2984 34.8996 29.5984 34.9996 27.8984 35.0996C26.1984 35.1996 24.4984 35.2996 22.7984 35.3996C21.0984 35.4996 19.4984 35.9996 17.4984 35.4996C17.9984 34.5996 18.3984 33.8996 18.8984 33.3996C20.3984 31.5996 21.8984 29.8996 23.3984 28.1996C23.9984 27.4996 24.7984 26.9996 25.7984 26.9996C27.3984 26.9996 28.8984 26.8996 30.4984 26.8996C30.7984 26.8996 32.3984 26.7996 32.7984 26.8996C32.7984 27.2996 32.6984 28.0996 32.6984 28.4996C32.6984 28.6996 32.8984 29.7996 33.5984 29.7996C34.2984 29.7996 34.6984 29.3996 34.8984 28.8996C34.9984 28.6996 34.9984 28.2996 34.9984 27.6996C34.9984 27.6996 35.0984 27.1996 35.0984 27.0996C36.9984 26.9996 40.7984 26.9996 42.7984 26.8996C43.1984 26.8996 43.6984 26.8996 44.0984 26.8996C44.2984 26.8996 44.4984 26.8996 44.5984 26.8996C44.6984 26.8996 44.7984 26.8996 44.7984 26.8996H44.8984H44.9984H45.0984C45.5984 26.8996 47.1984 26.7996 47.5984 26.8996L50.9984 26.9996C51.8984 27.1996 51.1984 28.5996 51.7984 29.1996C52.1984 29.6996 52.8984 29.2996 53.2984 28.0996C53.3984 27.8996 53.2984 27.4996 53.3984 27.1996C53.8984 27.0996 53.8984 27.2996 54.3984 27.1996C56.9984 26.7996 59.6984 26.1996 62.1984 28.4996C62.0984 28.5996 61.8984 28.6996 61.7984 28.7996C60.0984 30.1996 58.5984 31.5996 56.9984 32.8996C59.1984 32.2996 60.4984 30.3996 62.4984 29.1996C62.5984 29.0996 62.6984 29.0996 62.7984 28.9996C63.4984 29.5996 64.2984 30.1996 64.9984 30.7996C65.4984 31.2996 65.9984 31.8996 66.4984 32.4996C66.6984 32.6996 66.8984 32.8996 67.0984 33.0996C65.1984 33.5996 63.2984 33.0996 61.1984 33.2996C61.6984 32.5996 61.9984 32.0996 62.3984 31.3996C61.3984 31.4996 60.9984 32.0996 60.4984 32.4996C59.5984 33.1996 58.6984 33.4996 57.5984 33.4996C55.3984 33.4996 53.0984 33.4996 50.8984 33.4996C48.5984 33.5996 46.1984 33.6996 43.8984 33.7996C43.7984 33.7996 43.6984 33.9996 43.4984 34.2996C43.8984 34.3996 44.2984 34.5996 44.6984 34.6996C44.7984 34.6996 44.7984 34.6996 44.8984 34.6996C49.5984 34.7996 54.3984 34.9996 59.0984 34.6996C61.6984 34.5996 64.1984 34.5996 66.6984 34.6996C67.5984 34.6996 68.4984 34.9996 69.2984 35.3996C70.5984 35.9996 71.4984 36.9996 71.5984 38.5996C71.6984 39.9996 71.8984 41.2996 71.9984 42.6996C72.0984 44.1996 72.0984 45.6996 72.1984 47.1996C72.1984 47.8996 71.9984 48.2996 71.5984 48.8996C71.2984 49.1996 71.0984 49.4996 70.8984 49.8996C70.3984 50.6996 69.9984 51.5996 69.4984 52.3996C69.7984 51.9996 70.1984 51.6996 70.4984 51.2996C70.7984 50.8996 71.0984 50.4996 71.4984 49.8996C71.5984 49.6996 71.6984 49.4996 71.8984 49.3996C71.9984 49.5996 71.9984 49.7996 72.0984 49.8996C72.3984 51.0996 72.2984 51.9996 71.6984 52.9996C71.1984 53.8996 70.6984 54.7996 70.5984 55.8996C71.0984 55.0996 71.5984 54.2996 72.2984 53.1996C72.5984 54.0996 72.6984 54.7996 72.5984 55.4996C72.5984 55.9996 72.6984 56.4996 72.7984 56.9996C72.7984 57.2996 72.8984 57.5996 72.7984 57.8996C72.7984 57.9996 72.7984 57.9996 72.7984 58.0996C72.7984 58.1996 72.7984 58.2996 72.6984 58.3996C72.5984 61.3996 71.8984 63.9996 70.8984 66.3996C70.6984 66.8996 70.2984 67.3996 69.8984 67.6996C69.7984 68.0996 69.7984 68.0996 69.6984 68.0996Z" fill="black"/>
<path d="M74.5977 31.8992C76.6977 30.0992 79.2977 29.1992 81.9977 28.4992C84.8977 27.7992 84.9977 27.7992 86.4977 28.3992C86.2977 28.5992 86.0977 28.7992 85.8977 28.7992C82.2977 29.1992 78.9977 30.2992 75.8977 32.0992C75.5977 32.2992 75.1977 32.2992 74.7977 32.3992C74.6977 32.2992 74.5977 32.0992 74.5977 31.8992Z" fill="#F15748"/>
<path d="M89.9977 38.8996C85.9977 37.9996 82.2977 37.0996 78.6977 36.1996C78.5977 36.1996 78.5977 35.9996 78.5977 35.8996C81.1977 35.1996 87.8977 36.8996 89.9977 38.8996Z" fill="#F15748"/>
<path d="M77.6977 19.0993C76.4977 20.3993 75.3977 21.5993 74.2977 22.7993C73.1977 23.9993 72.6977 25.4993 71.3977 26.5993C71.1977 26.2993 71.0977 25.9993 71.0977 25.9993C72.3977 24.0993 73.7977 22.1993 75.1977 20.3993C75.6977 19.7993 76.4977 19.3993 77.1977 18.8993C77.1977 18.7993 77.4977 18.9993 77.6977 19.0993Z" fill="#F15748"/>
<path d="M57.3977 50.0992C57.2977 49.1992 57.1977 48.2992 56.9977 47.3992C56.7977 46.3992 56.3977 45.3992 55.6977 44.5992C54.0977 42.4992 51.9977 41.0992 49.4977 40.2992C46.5977 39.3992 43.5977 39.0992 40.6977 40.3992C39.8977 40.6992 39.0977 40.8992 38.2977 41.1992C36.3977 41.8992 34.5977 42.8992 33.3977 44.5992C32.4977 45.8992 31.6977 47.1992 30.8977 48.5992C30.0977 49.9992 29.5977 51.4992 29.5977 53.0992C29.5977 53.1992 29.5977 53.3992 29.5977 53.4992C29.6977 56.2992 30.2977 58.9992 31.8977 61.3992C33.8977 64.2992 36.6977 65.8992 39.7977 66.9992C39.8977 66.9992 39.9977 67.0992 40.0977 67.0992C42.7977 67.9992 45.4977 67.3992 48.1977 66.5992C48.7977 66.3992 49.2977 66.1992 49.7977 65.8992C51.2977 65.0992 52.5977 64.0992 53.6977 62.6992C56.6977 58.7992 57.6977 54.5992 57.3977 50.0992ZM55.7977 56.1992C54.9977 59.0992 54.0977 61.5992 51.6977 63.3992C51.2977 63.6992 49.4977 64.7992 48.9977 65.0992C45.2977 67.2992 37.5977 65.9992 34.5977 62.4992C35.2977 61.8992 36.5977 60.6992 37.3977 59.9992C35.9977 59.8992 35.3977 61.4992 33.7977 60.9992C34.5977 60.2992 35.2977 59.6992 35.8977 59.0992C35.8977 58.9992 35.7977 58.8992 35.7977 58.7992C34.9977 59.1992 33.5977 59.8992 32.7977 60.2992C30.7977 57.8992 30.1977 52.8992 31.5977 50.3992C31.7977 50.0992 32.1977 48.8992 32.3977 48.5992C33.5977 46.7992 33.5977 46.6992 34.3977 45.7992C36.9977 42.4992 40.1977 41.5992 44.0977 40.7992C48.8977 39.8992 55.2977 43.3992 56.1977 48.0992C56.3977 48.7992 56.3977 49.9992 56.3977 50.6992C56.4977 52.6992 56.2977 54.1992 55.7977 56.1992Z" fill="black"/>
<path d="M18 50.4996C19.2 48.7996 21.1 47.8996 22.9 46.5996C22.1 47.7996 19.8 49.7996 18 50.4996Z" fill="black"/>
<path d="M69.3969 52.7998C69.1969 54.1998 68.0969 54.9998 67.2969 56.0998C67.8969 54.8998 68.2969 53.6998 69.3969 52.7998Z" fill="black"/>
<path d="M67.6969 52.4992C67.1969 53.2992 66.6969 53.9992 66.1969 54.7992C66.0969 54.6992 65.8969 54.5992 65.7969 54.4992C66.2969 53.6992 66.7969 52.9992 67.2969 52.1992C67.4969 52.2992 67.5969 52.3992 67.6969 52.4992Z" fill="black"/>
<path d="M68.3984 51.1C68.6984 50.7 68.8984 50.3 69.1984 50C69.2984 50 69.3984 50.1 69.3984 50.1C69.1984 50.5 68.8984 50.9 68.6984 51.3C68.5984 51.2 68.4984 51.2 68.3984 51.1Z" fill="black"/>
<path d="M71.3984 47.3996C71.1984 47.6996 70.8984 47.9996 70.6984 48.2996C70.5984 48.1996 70.4984 48.1996 70.3984 48.0996C70.5984 47.7996 70.7984 47.3996 70.9984 47.0996C71.0984 47.1996 71.1984 47.2996 71.3984 47.3996Z" fill="black"/>
<path d="M52.8999 51.2994C52.7999 50.8994 52.0999 50.3994 51.5999 50.2994C51.4999 50.2994 51.2999 50.1994 51.1999 50.1994C50.4999 50.0994 49.7999 50.0994 49.0999 49.9994C48.2999 49.8994 47.8999 49.4994 47.8999 48.6994C47.8999 47.9994 47.9999 47.2994 47.8999 46.4994C47.7999 44.9994 47.1999 44.3994 45.5999 44.3994C44.4999 44.3994 43.3999 44.5994 42.2999 44.7994C41.3999 44.8994 40.9999 45.5994 40.9999 46.4994C40.9999 47.3994 40.9999 48.2994 40.9999 49.1994C40.1999 49.2994 39.6999 49.3994 39.0999 49.5994C38.3999 49.7994 37.2999 49.5994 36.6999 49.9994C35.4999 50.6994 35.8999 51.7994 35.9999 53.1994C36.0999 53.9994 36.4999 54.5994 37.0999 54.8994C37.4999 55.0994 37.8999 55.2994 38.3999 55.2994C38.9999 55.3994 39.6999 55.3994 40.4999 55.4994C40.5999 56.0994 40.6999 56.4994 40.5999 56.8994C40.5999 57.1994 40.5999 57.4994 40.5999 57.7994C40.5999 58.6994 40.5999 59.3994 40.7999 59.7994C41.1999 60.5994 41.9999 60.6994 43.9999 60.8994C46.3999 61.0994 46.8999 59.9994 47.3999 57.5994C47.5999 56.2994 47.7999 56.1994 48.9999 55.9994C49.6999 55.8994 51.4999 55.7994 51.5999 55.7994C52.1999 55.7994 52.4999 55.8994 52.6999 55.3994C53.4999 54.1994 53.3999 52.6994 52.8999 51.2994ZM51.8999 54.6994C51.7999 55.0994 51.3999 54.7994 50.8999 54.8994C50.3999 54.8994 49.8999 54.8994 48.7999 54.8994C46.9999 54.8994 46.2999 55.4994 46.0999 57.1994C46.0999 57.5994 45.8999 58.9994 45.7999 59.4994C45.5999 59.5994 45.2999 59.6994 45.0999 59.7994C44.4999 59.9994 43.9999 59.9994 43.2999 59.8994C42.7999 59.8994 42.2999 59.7994 41.6999 59.6994C41.6999 58.9994 41.6999 58.3994 41.6999 57.7994C41.6999 57.1994 41.7999 56.5994 41.6999 56.0994C41.4999 54.7994 40.9999 54.4994 39.6999 54.3994C39.2999 54.3994 38.2999 54.3994 37.8999 54.3994C37.0999 54.3994 37.1999 53.8994 37.0999 53.0994C36.8999 52.2994 36.7999 51.4994 37.3999 51.1994C37.9999 50.9994 39.1999 51.1994 39.8999 51.1994C42.0999 50.8994 42.0999 50.8994 42.0999 48.7994C42.0999 48.1994 42.0999 47.4994 42.0999 46.6994V46.2994C42.1999 46.2994 42.2999 46.2994 42.3999 46.2994C43.5999 46.1994 44.5999 46.0994 45.4999 46.0994C46.0999 46.0994 46.3999 46.2994 46.5999 46.6994C46.6999 46.8994 46.6999 47.0994 46.6999 47.2994C46.6999 47.5994 46.6999 47.7994 46.5999 48.0994C46.5999 48.5994 46.4999 49.4994 46.4999 50.0994C46.4999 51.2994 46.5999 50.9994 47.7999 51.2994C48.2999 51.3994 48.7999 51.3994 49.2999 51.4994C49.7999 51.5994 50.3999 51.5994 50.8999 51.6994C51.0999 51.6994 51.1999 51.6994 51.2999 51.7994C51.2999 51.7994 51.6999 51.7994 51.6999 51.8994C51.6999 52.0994 51.6999 52.7994 51.6999 52.8994C52.0999 53.5994 52.0999 54.2994 51.8999 54.6994Z" fill="black"/>
</svg>
