<svg width="90" height="90" viewBox="0 0 90 90" fill="none" xmlns="http://www.w3.org/2000/svg">
<path d="M71.7986 37.3994C71.5986 37.7994 71.2986 38.2994 70.9986 38.6994C69.5986 40.2994 68.6986 42.1994 67.6986 44.1994C64.7986 47.0994 61.8986 49.9994 58.9986 52.7994C57.6986 54.0994 56.2986 55.4994 54.8986 56.8994C54.3986 57.3994 53.8986 57.8994 53.3986 58.3994C50.4986 61.2994 47.3986 64.1994 44.0986 66.5994C43.2986 66.9994 42.4986 67.4994 41.5986 67.8994C38.9986 69.2994 36.1986 70.4994 33.3986 71.3994C31.2986 72.0994 29.0986 72.2994 26.8986 72.5994C26.1986 72.6994 25.3986 72.5994 24.5986 72.4994C24.3986 72.4994 24.2986 72.3994 24.0986 72.3994C23.5986 72.2994 23.0986 72.0994 22.6986 71.7994C22.4986 71.5994 22.2986 71.2994 22.0986 70.8994C21.9986 70.4994 21.6986 70.1994 21.4986 69.8994C19.9986 67.9994 19.1986 65.6994 18.3986 63.4994C18.2986 62.3994 18.3986 61.3994 18.5986 60.2994C18.6986 59.5994 18.8986 58.8994 19.0986 58.1994C19.4986 56.7994 20.0986 55.4994 20.7986 54.1994C21.8986 52.1994 22.4986 49.7994 23.8986 47.9994C25.3986 45.8994 27.0986 43.6994 28.8986 41.6994C32.5986 37.5994 37.3986 34.4994 41.9986 31.6994H42.0986C46.6986 28.7994 51.6986 26.7994 57.0986 26.0994C58.0986 25.9994 59.0986 25.8994 60.0986 25.8994C60.4986 25.8994 60.8986 25.8994 61.1986 25.8994C62.1986 26.0994 63.1986 26.3994 64.1986 26.6994C65.7986 27.1994 66.6986 29.0994 67.3986 30.4994C67.6986 30.6994 68.0986 30.7994 68.1986 31.0994C69.3986 32.6994 70.6986 34.1994 70.8986 36.2994C71.1986 36.4994 71.4986 36.8994 71.7986 37.3994Z" fill="white"/>
<path d="M71.7986 37.3994C71.5986 37.7994 71.2986 38.2994 70.9986 38.6994C69.5986 40.2994 68.6986 42.1994 67.6986 44.1994C64.7986 47.0994 61.8986 49.9994 58.9986 52.7994C57.6986 54.0994 56.2986 55.4994 54.8986 56.8994C54.3986 57.3994 53.8986 57.8994 53.3986 58.3994C50.4986 61.2994 47.3986 64.1994 44.0986 66.5994C43.2986 66.9994 42.4986 67.4994 41.5986 67.8994C38.9986 69.2994 36.1986 70.4994 33.3986 71.3994C31.2986 72.0994 29.0986 72.2994 26.8986 72.5994C26.1986 72.6994 25.3986 72.5994 24.5986 72.4994C24.3986 72.4994 24.2986 72.3994 24.0986 72.3994C23.5986 72.2994 23.0986 72.0994 22.6986 71.7994C22.4986 71.5994 22.2986 71.2994 22.0986 70.8994C21.9986 70.4994 21.6986 70.1994 21.4986 69.8994C19.9986 67.9994 19.1986 65.6994 18.3986 63.4994C18.2986 62.3994 18.3986 61.3994 18.5986 60.2994C18.6986 59.5994 18.8986 58.8994 19.0986 58.1994C19.0986 58.2994 19.1986 58.3994 19.1986 58.3994C19.1986 58.4994 19.1986 58.4994 19.2986 58.5994C20.2986 61.0994 22.0986 63.3994 24.6986 64.5994C29.7986 66.8994 35.6986 64.1994 40.3986 61.1994C44.5986 58.4994 48.4986 55.3994 52.0986 51.8994C57.4986 46.7994 62.3986 39.8994 61.1986 32.5994C60.8986 30.6994 60.0986 28.5994 60.0986 26.7994C60.0986 26.4994 60.0986 26.1994 60.0986 25.8994C60.4986 25.8994 60.8986 25.8994 61.1986 25.8994C62.1986 26.0994 63.1986 26.3994 64.1986 26.6994C65.7986 27.1994 66.6986 29.0994 67.3986 30.4994C67.6986 30.6994 68.0986 30.7994 68.1986 31.0994C69.3986 32.6994 70.6986 34.1994 70.8986 36.2994C71.1986 36.4994 71.4986 36.8994 71.7986 37.3994Z" fill="#BCBCBB"/>
<path d="M66.2988 30.8001C66.3988 30.8001 66.3988 30.8001 66.2988 30.8001C66.3988 30.8001 66.2988 30.8001 66.2988 30.8001ZM66.2988 30.8001C66.3988 30.8001 66.3988 30.8001 66.2988 30.8001C66.3988 30.8001 66.2988 30.8001 66.2988 30.8001ZM71.1988 36.1001C70.9988 34.0001 69.6988 32.5001 68.4988 30.9001C68.2988 30.6001 67.9988 30.5001 67.6988 30.3001C66.8988 28.9001 66.0988 27.0001 64.4988 26.5001C63.4988 26.2001 62.4988 25.9001 61.4988 25.7001C60.9988 25.6001 60.3988 25.5001 59.7988 25.5001C55.5988 25.3001 51.6988 26.4001 47.7988 27.9001C39.8988 30.9001 33.3988 35.8001 27.8988 42.1001C25.5988 44.7001 23.2988 47.3001 21.8988 50.6001C21.2988 51.9001 20.5988 53.2001 19.9988 54.6001C19.4988 55.8001 18.9988 57.0001 18.7988 58.2001C18.4988 59.9001 17.9988 61.7001 18.6988 63.4001C18.6988 63.4001 18.6988 63.4001 18.6988 63.5001C19.4988 65.7001 20.2988 68.0001 21.7988 69.9001C21.9988 70.2001 22.2988 70.5001 22.3988 70.9001C22.4988 71.3001 22.6988 71.6001 22.9988 71.8001C23.3988 72.2001 23.9988 72.4001 24.6988 72.5001C24.7988 72.5001 24.7988 72.5001 24.8988 72.5001C25.6988 72.6001 26.3988 72.7001 27.1988 72.6001C29.3988 72.3001 31.5988 72.1001 33.6988 71.4001C36.4988 70.5001 39.2988 69.3001 41.8988 67.9001C42.6988 67.5001 43.4988 67.0001 44.3988 66.6001C48.0988 64.7001 51.6988 62.6001 54.7988 59.9001C56.5988 58.3001 58.5988 56.8001 60.0988 54.8001C60.8988 53.8001 61.7988 52.8001 62.6988 51.8001C64.6988 49.6001 66.4988 47.2001 67.8988 44.4001C67.8988 44.3001 67.9988 44.3001 67.9988 44.2001C68.8988 42.3001 69.7988 40.4001 71.2988 38.7001C71.6988 38.3001 71.8988 37.8001 72.0988 37.4001C71.4988 36.9001 71.1988 36.5001 71.1988 36.1001ZM20.0988 64.7001C19.0988 62.6001 18.9988 60.5001 19.3988 58.5001C19.5988 57.8001 19.7988 57.0001 19.9988 56.3001C20.2988 55.5001 20.5988 54.8001 20.8988 54.0001C21.8988 51.8001 22.9988 49.6001 24.3988 47.5001C26.8988 43.7001 30.0988 40.4001 33.5988 37.4001C36.1988 35.1001 38.9988 33.1001 41.9988 31.5001H42.0988C44.6988 30.1001 47.3988 28.9001 50.2988 28.0001C53.2988 27.1001 56.2988 26.3001 59.4988 26.6001C59.6988 26.6001 59.8988 26.6001 60.1988 26.7001C62.1988 26.9001 64.1988 27.3001 65.6988 28.9001C66.3988 29.4001 66.6988 30.1001 66.2988 30.9001C66.4988 30.7001 66.9988 30.7001 67.2988 30.5001C67.3988 31.0001 67.3988 31.4001 67.4988 31.9001C67.4988 32.2001 67.6988 32.6001 67.6988 32.9001C67.2988 35.2001 66.9988 37.5001 65.7988 39.6001C64.1988 42.5001 62.2988 45.2001 59.9988 47.7001C59.0988 48.7001 58.0988 49.7001 57.0988 50.6001C53.3988 54.0001 49.2988 56.9001 45.0988 59.7001C41.9988 61.7001 38.7988 63.4001 35.4988 64.9001C32.0988 66.4001 28.5988 67.4001 24.9988 67.7001C22.8988 67.9001 20.9988 66.7001 20.0988 64.7001ZM25.5988 70.7001C25.2988 70.5001 24.9988 70.1001 24.6988 69.9001C24.7988 70.3001 24.8988 70.6001 24.9988 71.1001C22.9988 71.2001 22.9988 69.3001 21.8988 68.6001C21.9988 68.5001 21.9988 68.4001 22.0988 68.3001C22.5988 68.6001 23.0988 68.8001 23.4988 69.1001C23.8988 69.4001 24.2988 69.7001 24.5988 70.0001C24.4988 69.7001 24.3988 69.3001 24.1988 68.8001C25.3988 69.2001 25.7988 70.0001 26.3988 71.1001C26.0988 70.8001 25.7988 70.8001 25.5988 70.7001ZM25.5988 68.8001C25.8988 68.6001 26.0988 68.4001 26.1988 68.5001C27.1988 68.9001 27.6988 69.8001 28.4988 70.8001C26.4988 71.2001 26.6988 69.4001 25.5988 68.8001ZM54.5988 57.3001C54.1988 57.6001 53.7988 58.0001 53.4988 58.3001C51.4988 60.1001 49.2988 61.7001 47.0988 63.2001C45.0988 64.5001 42.7988 65.4001 40.5988 66.6001C37.3988 68.4001 33.7988 69.3001 30.3988 70.5001C29.5988 70.8001 28.9988 70.8001 28.4988 70.0001C28.1988 69.5001 27.7988 69.1001 27.2988 68.6001C27.4988 68.5001 27.5988 68.3001 27.7988 68.3001C32.7988 67.3001 37.3988 65.3001 41.6988 62.8001C47.5988 59.4001 52.8988 55.4001 57.8988 50.9001C58.7988 50.1001 59.5988 49.3001 60.2988 48.4001C62.0988 46.2001 64.0988 44.1001 65.4988 41.5001C65.5988 41.4001 65.6988 41.3001 65.8988 41.1001C66.2988 41.5001 66.6988 41.8001 67.0988 42.2001C66.8988 42.7001 66.5988 43.1001 66.3988 43.5001C64.8988 46.1001 63.0988 48.4001 60.9988 50.6001C60.2988 51.4001 59.5988 52.1001 58.7988 52.9001C57.5988 54.3001 56.1988 55.9001 54.5988 57.3001ZM67.5988 41.5001C67.0988 41.1001 66.7988 40.7001 66.3988 40.3001C66.6988 39.8001 66.8988 39.3001 67.1988 38.8001C67.6988 39.2001 68.1988 39.5001 68.6988 39.9001C68.2988 40.4001 67.9988 40.8001 67.5988 41.5001ZM69.9988 36.7001C69.6988 37.4001 69.3988 38.2001 69.0988 39.0001C67.4988 38.5001 67.4988 38.4001 67.7988 37.0001C68.0988 35.8001 68.2988 34.6001 68.5988 33.3001C68.6988 33.3001 68.7988 33.3001 68.8988 33.2001C69.2988 33.9001 69.6988 34.7001 70.2988 35.7001C69.4988 35.4001 68.9988 35.3001 68.3988 35.1001C68.5988 36.0001 69.4988 36.0001 69.9988 36.7001ZM66.2988 30.9001C66.3988 30.8001 66.3988 30.8001 66.2988 30.9001C66.3988 30.8001 66.2988 30.8001 66.2988 30.9001ZM66.2988 30.8001C66.3988 30.8001 66.3988 30.8001 66.2988 30.8001C66.3988 30.8001 66.2988 30.8001 66.2988 30.8001ZM66.2988 30.8001C66.3988 30.8001 66.3988 30.8001 66.2988 30.8001C66.3988 30.8001 66.2988 30.8001 66.2988 30.8001Z" fill="black"/>
<path d="M42.5975 43.2998C42.8975 43.2998 43.1975 43.2998 43.4975 43.3998C44.8975 43.4998 45.3975 44.0998 45.2975 45.4998C45.2975 46.4998 44.9975 47.2998 44.1975 47.9998C42.3975 49.3998 39.5975 48.5998 39.0975 46.2998C38.8975 45.5998 38.9975 45.0998 39.5975 44.5998C40.3975 43.6998 41.3975 43.2998 42.5975 43.2998Z" fill="#F15748"/>
<path d="M35.2989 45.2998C34.6989 46.0998 34.0989 46.8998 33.3989 47.5998C32.0989 48.9998 31.0989 50.5998 30.4989 52.4998C30.3989 52.9998 30.2989 53.4998 30.2989 53.8998C30.2989 54.9998 31.0989 55.6998 32.1989 55.5998C32.6989 55.5998 33.2989 55.3998 33.7989 55.2998C37.2989 53.9998 40.7989 52.8998 44.0989 51.0998C44.3989 50.9998 44.5989 50.8998 44.8989 50.7998C44.9989 50.7998 45.0989 50.8998 45.1989 50.8998C45.2989 51.4998 44.7989 51.6998 44.3989 51.8998C42.1989 52.8998 39.9989 53.8998 37.6989 54.7998C36.0989 55.3998 34.4989 55.9998 32.8989 56.3998C31.1989 56.7998 30.3989 56.3998 29.7989 54.8998C29.5989 54.3998 29.4989 53.6998 29.6989 53.1998C30.6989 49.9998 32.3989 47.2998 35.2989 45.4998C35.3989 45.4998 35.4989 45.3998 35.5989 45.3998C35.4989 45.3998 35.4989 45.4998 35.2989 45.2998Z" fill="black"/>
<path d="M46.6989 37.6997C46.1989 37.0997 46.3989 36.7997 46.7989 36.4997C48.9989 34.6997 53.7989 34.7997 55.7989 36.7997C56.2989 37.2997 56.5989 37.9997 56.7989 38.6997C57.1989 39.9997 56.5989 41.6996 55.2989 43.0996C55.4989 42.2996 55.5989 41.7997 55.6989 41.2997C56.3989 39.1997 55.2989 37.0996 53.0989 36.5996C51.3989 36.1996 49.6989 36.3996 48.0989 37.0996C47.6989 37.2996 47.1989 37.4997 46.6989 37.6997Z" fill="black"/>
<path d="M22.9989 56.5C23.0989 56.8 23.2989 57 23.2989 57.3C23.3989 58.2 23.3989 59.2 23.4989 60.1C23.4989 60.6 23.5989 61.1 23.6989 61.5C24.1989 63.2 25.0989 63.8 26.8989 63.3C27.3989 63.2 27.7989 63.1 28.4989 62.9C27.4989 63.9 26.3989 64.3 25.2989 64.2C24.4989 64.1 23.8989 63.8 23.4989 63.1C22.3989 61 22.5989 58.7 22.6989 56.5C22.7989 56.6 22.8989 56.6 22.9989 56.5Z" fill="black"/>
<path d="M49.0987 47.4998C48.4987 47.2998 47.9987 47.1998 47.6987 46.9998C47.2987 46.7998 46.7987 46.4998 46.9987 45.8998C47.1987 45.1998 47.5987 44.7998 48.2987 44.7998C48.7987 44.7998 49.2987 44.9998 49.6987 45.1998C50.2987 45.4998 50.5987 46.0998 50.2987 46.6998C49.9987 47.0998 49.3987 47.2998 49.0987 47.4998Z" fill="#F15748"/>
<path d="M56.4984 31.5994C57.6984 31.1994 58.8984 31.0994 59.9984 31.6994C60.9984 32.1994 61.0984 33.1994 60.9984 34.2994C60.8984 35.5994 60.3984 36.6994 59.2984 37.4994C59.3984 37.1994 59.4984 36.8994 59.5984 36.5994C59.6984 36.1994 59.8984 35.7994 59.9984 35.3994C60.3984 32.8994 60.1984 32.0994 57.4984 32.0994C57.0984 32.0994 56.7984 31.9994 56.3984 31.9994C56.4984 31.7994 56.4984 31.6994 56.4984 31.5994Z" fill="black"/>
<path d="M45.5 42.0995C45.5 40.9995 47.1 39.8995 48 40.1995C48.6 40.3995 48.7 40.8995 48.6 41.4995C48.4 42.5995 46.9 43.2995 46 42.6995C45.8 42.5995 45.6 42.2995 45.5 42.0995Z" fill="#F15748"/>
<path d="M42.4 41.0992C42.4 41.9992 41.9 42.7992 41.2 42.7992C40.5 42.7992 40 42.0992 40 41.2992C40 40.3992 40.7 39.6992 41.4 39.6992C41.9 39.7992 42.4 40.3992 42.4 41.0992Z" fill="#F15748"/>
<path d="M65.6977 28.7998C65.2977 30.3998 64.1977 31.6998 63.0977 32.8998C63.3977 31.8998 64.9977 29.4998 65.6977 28.7998Z" fill="black"/>
<path d="M66.2974 30.7998C66.1974 31.1998 66.0974 31.5998 65.8974 31.7998C65.2974 32.5998 64.6974 33.2998 64.0974 34.0998C63.9974 33.0998 64.8974 31.8998 66.2974 30.7998C66.2974 30.8998 66.2974 30.7998 66.2974 30.7998Z" fill="black"/>
<path d="M70.6984 23.6001C70.4984 23.7001 70.2984 23.9001 70.1984 23.9001C69.8984 23.9001 69.5984 23.8001 69.3984 23.7001C68.1984 23.0001 66.7984 22.7001 65.4984 22.5001C63.8984 22.2001 62.2984 21.8001 60.6984 21.6001C57.9984 21.3001 55.2984 21.0001 52.5984 21.7001C50.7984 22.2001 49.0984 22.8001 47.4984 24.0001C47.3984 24.1001 47.2984 24.1001 47.0984 24.2001C47.0984 24.2001 47.0984 24.2001 46.8984 24.1001C47.1984 23.3001 47.8984 22.8001 48.4984 22.5001C49.7984 21.9001 51.1984 21.2001 52.5984 20.9001C55.8984 20.1001 59.2984 20.5001 62.6984 21.1001C63.9984 21.4001 65.2984 21.6001 66.5984 21.9001C67.9984 22.2001 69.2984 22.8001 70.5984 23.3001C70.6984 23.4001 70.6984 23.5001 70.6984 23.6001Z" fill="#F15748"/>
<path d="M53.2008 65.9996C52.4008 66.5996 51.7008 66.9996 51.0008 67.4996C49.0008 68.6996 47.0008 69.8996 45.1008 70.9996C43.5008 71.9996 41.7008 72.4996 39.8008 72.7996C39.9008 72.6996 40.0008 72.4996 40.2008 72.4996C44.6008 70.6996 48.5008 67.7996 52.7008 65.5996C52.7008 65.6996 52.8008 65.7996 53.2008 65.9996Z" fill="#F15748"/>
<path d="M65.7992 16.5997C65.2992 17.1997 64.7992 16.9997 64.3992 16.7997C61.6992 15.8997 59.0992 16.0997 56.2992 16.6997C55.2992 16.8997 54.2992 16.9997 53.1992 17.0997C56.9992 15.3997 60.8992 14.7997 64.9992 16.0997C65.3992 16.1997 65.4992 16.3997 65.7992 16.5997Z" fill="#F15748"/>
<path d="M43.5977 74.2C43.9977 74 44.4977 73.8 44.9977 73.6C47.1977 72.9 49.3977 72 51.1977 70.6C51.3977 70.5 51.5977 70.5 51.7977 70.5C51.7977 70.7 51.8977 71 51.7977 71.3C51.6977 71.6 51.2977 71.8 50.9977 71.9C48.7977 73.1 46.5977 74.3 44.0977 74.7C43.9977 74.7 43.8977 74.7 43.6977 74.6C43.6977 74.4 43.6977 74.4 43.5977 74.2Z" fill="#F15748"/>
</svg>
