<svg width="90" height="90" viewBox="0 0 90 90" fill="none" xmlns="http://www.w3.org/2000/svg">
<path d="M77.8 55.2005C77 59.0005 72.7 61.4005 68.9 61.2005C68.4 61.2005 67.8 61.1005 67.2 61.2005C67.1 61.2005 66.9 61.2005 66.8 61.3005C65.9 61.5005 65.1 62.1005 64.6 63.0005C64.3 63.4005 64.1 63.9005 63.9 64.3005C63.3 65.7005 63.1 67.4005 62.6 68.8005C62.2 70.1005 61.6 71.3005 60.7 72.4005C58.3 75.6005 54.7 77.9005 51.3 80.0005C50.1 80.7005 48.6 81.5005 47.2 81.8005C46.1 82.0005 44.9 81.9005 44 81.3005C41.8 79.8005 41.7 76.1005 39.4 75.2005C39.3 75.1005 39.1 75.1005 39 75.1005C38.1 74.9005 36.9 75.1005 36 75.4005C31.7 76.5005 27.2 77.7005 22.9 78.7005C22.2 78.9005 21.5 79.0005 20.7 78.9005C20.4 78.8005 20.1 78.7005 19.9 78.5005C19.6 78.3005 19.3 78.0005 19.1 77.8005C16.9 75.6005 15.4 72.7005 14.9 69.8005C14.5 67.5005 14.7 65.1005 16.3 63.4005C17.1 62.6005 18.3 62.1005 19.4 61.7005C21.8 61.1005 24.4 61.2005 26.4 62.3005C28.6 63.4005 30.1 65.6005 30.3 68.1005C31.2 67.8005 32.3 67.6005 33.2 67.3005C33.5 67.2005 33.7 67.1005 33.9 66.9005C34.1 66.6005 34 66.2005 33.9 65.9005C33.2 63.9005 32.4 62.0005 31.1 60.3005C30.9 60.1005 30.7 59.8005 30.5 59.6005C29.6 58.6005 28.4 57.7005 27.6 56.6005C25.1 53.2005 26.6 48.1005 29.6 45.1005C31.6 43.1005 34.5 41.3005 34.1 38.5005C34.1 38.3005 34 38.0005 34 37.8005C34 37.7005 34 37.6005 33.9 37.6005C33.7 37.0005 33.5 36.5005 33.2 35.8005C32.4 33.6005 32.6 31.4005 33.4 29.2005C33.9 27.7005 34.8 26.2005 34.6 24.6005C34.5 23.8005 34.3 23.2005 33.9 22.5005C33.3 21.5005 32.5 20.5005 32.1 19.4005C31.6 17.6005 32 15.7005 33.3 14.3005C34.5 13.1005 36.4 12.6005 38 12.2005C38.5 12.1005 39.1 12.0005 39.7 11.8005C46 10.5005 52.7 9.30047 58.7 11.7005C59.2 11.9005 59.7 12.1005 60.4 12.1005C60.5 12.1005 60.6 12.1005 60.7 12.1005C61.3 12.0005 61.8 11.7005 62.4 11.5005C65.2 10.2005 68.8 11.1005 71 13.3005C71.6 14.0005 72.1 14.7005 72.4 15.7005C73.6 19.6005 70.6 24.3005 66.5 24.6005C66.7 28.1005 65.8 31.6005 63.9 34.6005C69.1 37.6005 73.3 42.1005 76.2 47.4005C77.4 49.8005 78.3 52.5005 77.8 55.2005Z" fill="white"/>
<path d="M66.8993 61.3008C65.9993 61.5008 65.1993 62.1008 64.6993 63.0008C62.5993 62.7008 60.6993 61.5008 59.1993 59.9008C57.6993 58.1008 56.6993 55.9008 56.0993 53.6008C55.2993 50.2008 55.3993 46.2008 57.1993 43.2008C57.6993 42.4008 59.5993 39.9008 60.8993 40.3008C61.9993 40.7008 61.2993 44.9008 61.2993 46.0008C61.2993 47.5008 61.1993 49.1008 61.4993 50.6008C61.6993 51.8008 62.1993 53.0008 62.6993 54.0008C63.5993 56.1008 64.7993 58.0008 65.9993 59.9008C66.3993 60.3008 66.6993 60.8008 66.8993 61.3008Z" fill="#BBBBBA"/>
<path d="M70.8984 13.4L70.7984 13.5C70.4984 13.7 70.1984 13.7 69.8984 13.8C68.8984 13.9 67.7984 14 66.6984 14C64.4984 14.1 62.2984 14.3 60.5984 12.6C60.4984 12.5 60.4984 12.4 60.3984 12.4C60.4984 12.4 60.5984 12.4 60.6984 12.4C61.2984 12.3 61.7984 12 62.3984 11.8C65.0984 10.2 68.6984 11.2 70.8984 13.4Z" fill="#BBBBBA"/>
<path d="M39.699 11.9004C39.499 12.3004 39.299 12.6004 39.099 12.9004C37.599 15.2004 35.599 17.4004 34.599 20.1004C34.399 20.7004 34.199 21.6004 33.899 22.4004C33.299 21.4004 32.499 20.4004 32.099 19.3004C31.599 17.5004 31.999 15.6004 33.299 14.2004C34.499 13.0004 36.399 12.5004 37.999 12.1004C38.599 12.2004 39.199 12.1004 39.699 11.9004Z" fill="#BBBBBA"/>
<path d="M38.7992 75.1C37.8992 74.9 36.6992 75.1 35.7992 75.4C31.4992 76.5 26.9992 77.7 22.6992 78.7C21.9992 78.9 21.2992 79 20.4992 78.9C20.1992 78.8 19.8992 78.7 19.6992 78.5C21.1992 77.2 22.7992 75.8 24.7992 75.2C25.6992 74.9 26.7992 74.7 27.6992 74.5C30.2992 73.9 32.7992 72.5 34.7992 70.8C35.4992 70.2 36.7992 68.3 37.6992 68.5C38.9992 68.9 38.9992 71.4 38.9992 72.4C39.0992 73.4 38.9992 74.3 38.7992 75.1Z" fill="#BBBBBA"/>
<path d="M61.2992 71.0007C61.0992 71.4007 60.8992 71.9007 60.6992 72.3007C58.2992 75.5007 54.6992 77.8007 51.2992 79.9007C50.0992 80.6007 48.5992 81.4007 47.1992 81.7007C47.2992 81.5007 47.3992 81.2007 47.4992 81.0007C50.1992 77.0007 55.6992 75.6007 58.3992 71.6007C58.6992 71.1007 61.3992 65.7007 62.3992 67.5007C62.7992 68.2007 61.4992 70.4007 61.2992 71.0007Z" fill="#BBBBBA"/>
<path d="M33.9008 37.8008C33.9008 37.7008 33.9008 37.6008 33.8008 37.6008C34.4008 37.6008 35.0008 37.5008 35.7008 37.3008L33.9008 37.8008Z" fill="#BBBBBA"/>
<path d="M36.0974 41.3006C35.7974 41.5006 35.6974 41.9006 35.5974 42.2006C34.8974 43.9006 34.1974 45.4006 33.3974 47.1006C32.7974 48.5006 32.0974 50.0006 31.6974 51.6006C31.4974 52.5006 31.4974 53.7006 31.4974 54.8006C31.4974 55.9006 31.4974 57.1006 31.4974 58.2006C31.4974 58.7006 31.4974 59.3006 31.1974 59.7006C31.0974 59.8006 30.9974 60.0006 30.7974 60.1006C30.5974 59.9006 30.3974 59.6006 30.1974 59.4006C29.2974 58.4006 28.0974 57.5006 27.2974 56.4006C24.7974 53.0006 26.2974 47.9006 29.2974 44.9006C31.2974 42.9006 34.1974 41.1006 33.7974 38.3006C33.7974 38.1006 33.6974 37.8006 33.6974 37.6006C34.5974 38.2006 35.5974 38.8006 36.3974 39.5006C36.5974 39.6006 36.7974 39.8006 36.7974 40.0006C37.1974 40.6006 36.4974 40.9006 36.0974 41.3006Z" fill="#BBBBBA"/>
<path d="M35.0988 33.9004C34.8988 34.1004 34.6988 34.4004 34.3988 34.7004C34.5988 34.9004 34.6988 35.0004 34.8988 35.2004L34.9988 35.1004C34.9988 35.2004 35.0988 35.2004 35.0988 35.3004C34.6988 35.9004 35.0988 36.3004 35.3988 36.7004C35.9988 37.3004 36.6988 37.9004 37.4988 38.5004C38.5988 39.3004 39.8988 39.9004 41.1988 40.5004C41.5988 40.6004 42.0988 40.7004 42.4988 40.7004C44.9988 41.0004 47.3988 40.6004 49.4988 39.7004C51.8988 38.7004 53.7988 37.0004 54.7988 34.4004C54.8988 34.1004 54.9988 33.7004 55.4988 33.4004C55.3988 34.3004 55.1988 35.2004 54.7988 35.9004C54.1988 36.8004 53.4988 37.7004 52.6988 38.5004C51.1988 40.2004 49.5988 41.4004 47.4988 42.0004C46.5988 42.2004 44.9988 42.5004 44.0988 42.4004C42.3988 42.3004 40.8988 42.1004 39.0988 41.9004C38.6988 41.8004 37.9988 41.7004 37.3988 41.6004C37.2988 42.6004 36.8988 42.5004 36.3988 43.1004C35.9988 43.6004 35.5988 44.1004 35.1988 44.8004C34.2988 46.5004 33.1988 48.1004 32.3988 49.9004C32.0988 50.5004 32.0988 51.2004 31.9988 51.9004C31.9988 52.0004 31.9988 52.3004 31.8988 52.5004C31.3988 54.5004 31.3988 56.4004 31.5988 58.5004C31.7988 60.4004 32.1988 62.2004 33.4988 63.8004C34.3988 65.0004 35.3988 66.4004 36.5988 67.4004C37.4988 68.1004 37.4988 68.2004 38.8988 68.5004C38.2988 69.0004 37.6988 69.1004 36.8988 68.6004C36.1988 68.2004 35.6988 67.7004 34.9988 67.3004C34.6988 67.1004 34.2988 67.0004 33.9988 67.0004C33.4988 67.0004 33.0988 67.1004 32.5988 67.2004C31.9988 67.3004 31.3988 67.5004 30.5988 67.7004C30.7988 69.2004 31.6988 70.4004 31.2988 72.2004C30.9988 71.8004 30.8988 71.7004 30.7988 71.5004C30.3988 70.2004 29.8988 68.8004 29.4988 67.4004C28.9988 65.6004 28.0988 64.2004 26.8988 62.9004C26.1988 62.1004 25.0988 61.5004 23.9988 61.4004C22.8988 61.3004 21.6988 61.5004 20.4988 62.0004C21.3988 62.6004 22.4988 62.8004 22.9988 63.8004C23.4988 64.6004 23.9988 65.3004 24.6988 66.2004C24.7988 66.2004 24.9988 66.2004 25.2988 66.2004C24.9988 67.1004 24.9988 67.1004 25.4988 67.6004C25.4988 67.9004 25.3988 68.1004 25.3988 68.4004C25.4988 69.0004 25.5988 69.5004 25.6988 70.1004C25.9988 71.5004 25.8988 73.0004 25.2988 74.3004C24.8988 75.2004 24.3988 76.3004 23.8988 77.2004C23.4988 77.8004 22.9988 78.3004 22.0988 78.5004C21.8988 78.0004 22.2988 77.7004 22.5988 77.5004C23.6988 76.5004 24.2988 75.1004 24.7988 73.7004C25.1988 72.6004 25.1988 71.3004 24.9988 70.2004C24.8988 69.7004 24.7988 69.3004 24.6988 68.7004C24.2988 68.8004 23.8988 68.9004 23.3988 69.0004C23.6988 68.4004 24.7988 68.5004 24.2988 67.6004C24.0988 67.7004 23.8988 67.7004 23.3988 67.9004C24.3988 67.0004 24.0988 66.2004 23.4988 65.5004C23.1988 65.1004 22.9988 64.8004 22.6988 64.4004C21.3988 62.6004 19.7988 62.7004 18.2988 63.5004C18.0988 63.6004 17.8988 63.8004 17.6988 64.1004C16.3988 66.0004 15.7988 67.9004 16.3988 70.1004C16.4988 70.6004 16.5988 71.0004 16.6988 71.8004C17.5988 71.1004 18.4988 70.5004 19.2988 69.8004C19.0988 70.4004 18.2988 71.1004 16.7988 72.2004C16.9988 72.6004 17.1988 73.1004 17.3988 73.6004C17.7988 73.5004 18.0988 73.4004 18.4988 73.3004C18.7988 73.2004 19.0988 73.0004 19.3988 72.9004C19.3988 73.0004 19.4988 73.0004 19.4988 73.1004C18.9988 73.4004 18.3988 73.7004 17.6988 74.1004C17.7988 74.4004 17.8988 74.6004 17.9988 74.8004C18.5988 75.7004 19.1988 76.6004 19.8988 77.5004C19.8988 77.6004 19.9988 77.6004 19.9988 77.7004C20.9988 78.4004 21.9988 79.4004 23.2988 79.6004C23.9988 79.7004 24.7988 79.5004 25.5988 79.3004C27.4988 78.7004 29.2988 78.1004 31.1988 77.4004C31.7988 77.2004 32.1988 76.9004 32.2988 76.2004C32.2988 75.6004 32.2988 75.0004 32.3988 74.3004C32.3988 74.1004 32.4988 73.8004 32.5988 73.6004C32.5988 74.6004 32.5988 75.6004 32.5988 76.7004C32.7988 76.6004 32.8988 76.5004 32.9988 76.4004C33.0988 76.2004 33.1988 76.0004 33.2988 75.9004C33.2988 76.0004 33.2988 76.2004 33.3988 76.4004C34.2988 76.0004 35.2988 75.6004 36.1988 75.3004C37.0988 74.9004 38.0988 74.6004 39.0988 74.2004C39.0988 73.4004 39.0988 72.5004 39.0988 71.7004C39.0988 70.7004 39.2988 69.6004 39.9988 68.8004C40.4988 68.1004 40.7988 67.3004 41.1988 66.4004C42.3988 64.4004 44.1988 63.0004 46.3988 62.4004C48.2988 61.9004 50.1988 62.0004 51.9988 63.2004C52.6988 63.7004 53.3988 64.3004 54.2988 65.1004C55.4988 64.1004 57.2988 64.0004 58.7988 63.4004C59.0988 63.3004 59.5988 63.3004 59.8988 63.3004C60.5988 63.4004 61.1988 63.2004 61.7988 62.7004C61.9988 62.5004 62.2988 62.2004 62.6988 62.1004C62.5988 62.3004 62.4988 62.6004 62.2988 62.8004C62.0988 63.0004 61.8988 63.2004 61.5988 63.5004C61.8988 63.7004 62.0988 63.9004 62.3988 64.1004C62.6988 63.9004 62.8988 63.8004 63.2988 63.6004C63.0988 64.0004 62.9988 64.2004 62.9988 64.3004C63.2988 64.9004 63.5988 65.5004 63.9988 66.3004C64.7988 65.3004 65.4988 64.2004 65.7988 62.9004C65.8988 62.3004 65.8988 61.6004 66.3988 61.1004C65.6988 60.3004 64.9988 59.6004 64.3988 58.7004C62.9988 56.6004 61.9988 54.3004 61.5988 51.8004C61.1988 49.5004 61.0988 47.2004 60.9988 44.9004C60.8988 43.4004 60.9988 41.9004 61.0988 40.4004C61.0988 40.1004 61.2988 39.8004 61.2988 39.6004C61.8988 39.6004 61.8988 39.9004 61.8988 40.2004C61.8988 41.4004 61.7988 42.7004 61.7988 43.9004C61.7988 44.1004 61.6988 44.3004 61.7988 44.5004C62.0988 45.5004 61.8988 46.5004 61.8988 47.5004C61.8988 49.0004 62.2988 50.6004 62.5988 52.4004C63.6988 51.5004 64.6988 50.7004 65.5988 49.9004C65.5988 50.0004 65.6988 50.0004 65.6988 50.1004C65.2988 50.5004 64.7988 50.9004 64.3988 51.3004C63.9988 51.7004 63.5988 52.1004 63.1988 52.4004C62.7988 52.7004 62.8988 53.1004 63.1988 53.4004C64.2988 53.0004 65.1988 52.1004 66.0988 51.0004C66.1988 51.6004 65.8988 51.9004 65.5988 52.1004C65.0988 52.5004 64.5988 52.9004 64.0988 53.3004C63.3988 53.9004 63.3988 53.9004 63.8988 55.0004C64.7988 54.8004 65.5988 54.0004 66.5988 53.5004C65.9988 54.6004 64.8988 54.9004 64.1988 55.7004C64.5988 56.7004 65.1988 57.5004 65.8988 58.3004C66.6988 59.2004 67.3988 60.2004 68.5988 60.8004C69.4988 61.4004 70.4988 61.7004 71.5988 61.2004C71.7988 61.1004 72.1988 61.1004 72.3988 61.1004C73.2988 61.2004 74.0988 60.8004 74.6988 60.2004C74.8988 60.0004 75.0988 59.8004 75.4988 59.7004C75.3988 59.9004 75.2988 60.2004 75.1988 60.4004C75.2988 60.4004 75.4988 60.3004 75.4988 60.3004C75.8988 60.0004 76.4988 59.6004 76.8988 59.1004C77.6988 58.0004 78.1988 57.0004 78.3988 55.6004C78.4988 53.9004 78.2988 52.5004 77.8988 50.9004C77.4988 49.5004 77.0988 48.1004 76.1988 46.8004C75.6988 46.0004 75.0988 45.3004 74.4988 44.4004C73.1988 42.5004 71.1988 41.2004 69.3988 39.8004C67.9988 38.7004 64.8988 36.5004 65.2988 36.2004C65.8988 35.9004 66.2988 36.1004 66.6988 36.4004C67.4988 37.0004 68.1988 37.5004 69.0988 38.2004C71.4988 39.9004 73.5988 41.7004 75.3988 44.0004C76.5988 45.7004 77.7988 47.3004 78.2988 49.4004C78.3988 49.7004 78.4988 49.9004 78.5988 50.2004C79.2988 52.4004 79.3988 54.5004 78.8988 56.7004C78.5988 58.2004 77.6988 59.5004 76.5988 60.6004C76.2988 60.9004 75.8988 61.1004 75.4988 61.3004C74.3988 61.7004 73.2988 62.1004 72.1988 62.5004C72.1988 62.6004 72.2988 62.6004 72.2988 62.7004C71.7988 63.1004 68.3988 62.2004 67.0988 61.3004C66.9988 61.7004 66.8988 62.1004 66.7988 62.5004C66.4988 63.8004 65.9988 65.1004 64.9988 66.2004C64.7988 66.5004 64.3988 66.6004 64.0988 66.9004C63.8988 69.9004 62.3988 72.4004 60.3988 74.6004C59.4988 75.6004 58.4988 76.6004 57.5988 77.6004C56.3988 78.9004 54.7988 79.8004 53.2988 80.8004C52.2988 81.5004 51.1988 82.2004 49.9988 82.7004C48.5988 83.1004 47.1988 83.4004 45.8988 82.5004C45.4988 82.2004 45.0988 82.0004 44.5988 81.8004C42.5988 80.8004 41.2988 79.2004 40.4988 77.2004C40.1988 76.5004 39.8988 75.9004 39.6988 75.1004C38.8988 75.1004 38.1988 75.5004 37.3988 75.7004C34.6988 76.7004 32.0988 77.8004 29.4988 78.7004C29.0988 78.8004 28.7988 79.0004 28.4988 79.2004C27.5988 79.6004 26.5988 79.9004 25.6988 80.3004C25.4988 80.4004 25.2988 80.4004 25.0988 80.4004C23.9988 80.1004 22.8988 80.3004 21.6988 80.4004C21.8988 80.2004 21.9988 80.1004 22.0988 79.9004C21.5988 79.6004 21.0988 79.3004 20.5988 79.0004C19.3988 78.5004 18.4988 77.5004 17.6988 76.5004C16.4988 75.1004 15.6988 73.4004 15.2988 71.4004C14.8988 69.2004 15.1988 67.2004 16.0988 65.2004C16.3988 64.7004 16.4988 64.1004 16.7988 63.2004C17.5988 62.7004 18.5988 62.1004 19.5988 61.5004C20.9988 60.8004 22.5988 60.4004 24.1988 60.5004C25.4988 60.6004 26.5988 61.3004 27.5988 62.3004C28.1988 62.9004 28.7988 63.5004 29.3988 64.2004C29.6988 64.5004 30.0988 64.8004 29.8988 65.4004C29.7988 65.7004 30.1988 66.2004 30.3988 66.7004C31.6988 66.9004 32.8988 66.3004 34.2988 66.3004C34.0988 65.9004 33.9988 65.7004 33.8988 65.5004C32.4988 63.5004 31.6988 61.4004 31.2988 58.9004C30.8988 56.2004 31.1988 53.5004 31.5988 50.9004C31.5988 50.8004 31.5988 50.8004 31.5988 50.7004C30.7988 50.6004 30.4988 51.5004 29.4988 51.6004C29.7988 51.1004 30.1988 50.9004 30.5988 50.7004C31.6988 50.2004 31.9988 49.4004 32.2988 48.2004C32.1988 48.2004 32.0988 48.1004 31.9988 48.1004C31.9988 48.0004 31.9988 47.9004 32.0988 47.9004C32.5988 47.6004 32.8988 47.2004 33.1988 46.8004C33.7988 45.8004 34.4988 44.7004 35.3988 43.8004C36.1988 42.8004 37.1988 41.7004 37.6988 40.5004C37.0988 40.1004 36.4988 39.8004 35.7988 39.4004C35.5988 39.6004 35.2988 39.7004 35.1988 39.9004C33.4988 41.8004 31.9988 43.5004 30.6988 45.7004C30.4988 46.1004 30.1988 46.4004 29.8988 46.8004C28.8988 48.2004 28.1988 49.8004 27.8988 51.5004C27.7988 52.0004 27.8988 52.5004 27.8988 53.2004C27.8988 53.5004 28.0988 53.9004 28.0988 54.2004C28.3988 55.7004 28.9988 57.1004 30.2988 58.2004C30.4988 58.4004 30.5988 58.6004 30.7988 58.8004V58.9004L30.6988 59.0004C29.4988 58.4004 28.3988 57.6004 27.7988 56.2004C27.5988 55.6004 27.3988 55.0004 27.2988 54.3004C26.7988 52.3004 27.1988 50.5004 27.9988 48.7004C28.9988 46.5004 30.4988 44.7004 31.8988 42.8004C32.8988 41.5004 33.9988 40.2004 35.0988 38.8004C34.9988 38.6004 34.7988 38.4004 34.6988 38.3004C34.0988 37.4004 33.3988 36.4004 33.2988 35.2004C33.1988 34.2004 32.8988 33.2004 32.9988 32.2004C33.2988 30.4004 33.4988 28.7004 34.6988 27.2004C34.8988 26.9004 34.8988 26.6004 34.7988 26.2004C34.3988 25.2004 34.2988 24.1004 34.3988 23.0004C34.6988 19.5004 35.8988 16.4004 38.1988 13.7004C38.2988 13.6004 38.2988 13.5004 38.3988 13.3004C37.5988 12.7004 36.5988 12.8004 35.7988 13.0004C34.6988 13.4004 33.6988 14.1004 33.1988 15.3004C32.9988 15.9004 32.7988 16.5004 32.7988 17.2004C32.6988 18.5004 32.7988 18.5004 33.5988 19.8004C33.7988 20.0004 33.7988 20.4004 33.8988 20.7004C32.1988 19.9004 31.3988 18.3004 31.7988 16.6004C32.0988 15.3004 32.7988 14.0004 33.8988 13.2004C35.1988 12.2004 36.7988 11.9004 38.2988 12.5004C38.7988 12.7004 39.1988 12.6004 39.5988 12.3004C39.9988 11.9004 40.5988 11.8004 41.0988 11.4004C43.0988 10.1004 45.2988 10.0004 47.5988 9.90039C47.6988 9.90039 47.8988 9.90039 47.9988 9.90039C49.4988 10.0004 50.7988 10.2004 52.0988 10.4004C52.8988 10.5004 52.8988 10.9004 53.0988 11.5004C50.3988 11.0004 47.7988 10.8004 45.2988 11.2004C42.4988 11.6004 40.0988 12.7004 38.2988 15.0004C36.5988 17.0004 35.5988 19.1004 35.0988 21.6004C34.7988 22.8004 34.8988 24.2004 35.0988 25.4004C35.0988 25.5004 35.1988 25.6004 35.2988 25.7004C35.7988 25.4004 36.0988 25.1004 36.4988 24.7004C37.2988 24.0004 38.1988 23.4004 39.2988 23.2004C39.5988 23.1004 39.7988 23.1004 40.0988 23.4004C35.5988 25.6004 33.2988 29.0004 34.3988 34.1004C34.4988 34.0004 34.7988 34.0004 35.0988 33.9004ZM45.3988 63.2004C45.4988 63.3004 45.4988 63.3004 45.5988 63.3004C45.6988 63.3004 45.6988 63.3004 45.7988 63.3004C47.7988 63.3004 49.1988 64.2004 49.9988 66.1004C50.1988 66.6004 50.2988 66.6004 50.8988 66.9004C50.3988 67.4004 50.3988 67.8004 50.7988 68.3004C50.8988 68.4004 50.8988 68.6004 50.8988 68.8004C50.8988 71.0004 51.0988 73.2004 50.5988 75.4004C50.5988 75.6004 50.5988 75.8004 50.4988 76.0004C50.7988 76.1004 50.9988 76.3004 51.2988 76.4004C50.8988 76.5004 50.5988 76.5004 50.2988 76.6004C50.2988 77.7004 49.6988 78.7004 48.9988 79.4004C48.3988 80.2004 47.2988 80.7004 46.4988 81.5004C46.6988 81.6004 46.8988 81.7004 46.9988 81.8004C47.7988 81.9004 48.6988 81.8004 49.3988 81.4004C50.2988 80.9004 51.3988 80.3004 52.2988 79.6004C54.6988 78.1004 56.5988 76.1004 58.5988 74.0004C58.8988 73.7004 58.8988 73.4004 58.8988 73.1004C58.8988 72.3004 58.8988 71.3004 58.8988 70.5004C58.8988 70.4004 58.9988 70.2004 59.1988 69.9004C59.2988 71.1004 59.2988 72.1004 59.3988 73.3004C59.8988 72.7004 60.1988 72.3004 60.4988 71.9004C61.6988 70.6004 62.2988 68.8004 62.6988 67.0004C62.7988 66.2004 62.6988 65.3004 62.0988 64.7004C61.6988 64.8004 61.3988 64.9004 60.7988 65.0004C61.1988 64.5004 61.0988 64.2004 60.6988 64.0004C60.3988 63.9004 60.0988 63.8004 59.7988 63.8004C58.0988 63.7004 57.0988 64.4004 55.5988 64.9004C55.1988 65.0004 54.8988 65.2004 54.4988 65.4004C54.8988 66.3004 54.9988 66.7004 55.1988 67.6004C55.6988 69.3004 55.9988 71.0004 56.4988 72.8004C56.5988 73.0004 56.3988 73.2004 56.3988 73.5004C55.4988 71.3004 54.4988 69.3004 53.6988 67.2004C53.1988 65.9004 52.3988 64.7004 51.1988 63.9004C49.9988 62.9004 48.4988 62.2004 46.8988 62.7004C46.6988 62.5004 45.9988 62.5004 45.3988 63.2004ZM49.5988 67.5004C49.3988 66.4004 48.8988 65.4004 47.8988 64.8004C46.6988 64.0004 45.2988 63.9004 43.8988 64.6004C43.5988 64.8004 43.2988 64.9004 42.9988 65.0004C42.7988 65.1004 42.4988 65.2004 42.2988 65.4004C40.9988 66.8004 40.1988 68.6004 39.9988 70.6004C39.8988 71.9004 39.8988 73.3004 40.1988 74.6004C40.7988 77.9004 42.8988 80.0004 45.8988 81.2004C47.9988 79.9004 48.8988 79.0004 49.1988 77.7004C48.7988 77.5004 48.2988 77.3004 47.6988 77.0004C48.3988 76.7004 48.7988 77.3004 49.4988 77.2004C49.5988 77.0004 49.5988 76.7004 49.6988 76.5004C49.2988 76.0004 48.6988 76.3004 48.2988 75.7004C48.8988 75.8004 49.2988 75.8004 49.6988 75.8004C50.2988 74.4004 50.4988 70.8004 50.0988 69.3004C49.8988 69.3004 49.6988 69.4004 49.2988 69.5004C49.4988 69.0004 50.2988 68.7004 49.6988 68.1004C49.3988 68.2004 49.0988 68.3004 48.8988 68.4004C48.8988 68.4004 48.8988 68.3004 48.7988 68.3004C49.0988 68.0004 49.2988 67.8004 49.5988 67.5004Z" fill="black"/>
<path d="M54.0977 39.9006C54.4977 39.8006 54.5977 39.7006 54.7977 39.7006C56.0977 39.6006 57.3977 39.0006 58.5977 38.6006C61.0977 37.8006 62.5977 35.9006 63.9977 33.9006C64.8977 32.5006 65.2977 30.7006 65.7977 29.0006C65.7977 28.9006 65.8977 28.8006 65.8977 28.7006C65.7977 26.3006 66.3977 24.0006 65.9977 21.5006C65.9977 21.3006 65.9977 21.2006 66.0977 20.8006C66.2977 21.1006 66.5977 21.3006 66.5977 21.4006C66.6977 22.1006 66.7977 22.8006 66.7977 23.6006C66.7977 23.9006 66.7977 24.2006 66.7977 24.5006C66.9977 24.6006 66.9977 24.6006 67.0977 24.6006C68.8977 23.8006 70.4977 22.7006 71.1977 20.8006C71.5977 19.8006 71.5977 18.7006 71.3977 17.7006C71.0977 16.3006 70.3977 15.0006 69.2977 14.0006C68.8977 13.7006 68.5977 13.3006 68.2977 12.9006C67.1977 11.4006 64.0977 10.6006 62.1977 11.8006C61.8977 12.0006 61.6977 12.1006 61.3977 12.3006C60.9977 12.0006 61.0977 11.7006 61.3977 11.5006C62.4977 11.1006 63.5977 10.6006 64.7977 10.6006C65.7977 10.6006 66.8977 10.9006 67.7977 11.4006C69.6977 12.6006 70.9977 14.3006 72.0977 16.1006C72.6977 17.1006 72.6977 18.2006 72.4977 19.3006C72.1977 20.7006 71.5977 22.0006 70.4977 23.1006C69.6977 24.0006 68.5977 24.5006 67.5977 25.1006C66.7977 25.5006 66.4977 26.0006 66.5977 26.9006C66.7977 29.6006 65.8977 32.0006 64.5977 34.1006C63.5977 35.9006 62.2977 37.4006 60.4977 38.4006C58.7977 39.3006 57.0977 39.8006 55.1977 40.2006C54.8977 40.4006 54.8977 40.4006 54.0977 39.9006Z" fill="black"/>
<path d="M38.4009 35.7001C38.7009 35.7001 39.4009 36.1001 40.6009 36.0001C40.5009 35.4001 40.5009 34.7001 40.4009 34.0001C40.1009 32.8001 40.1009 31.6001 40.4009 30.5001C40.6009 29.7001 40.3009 29.3001 39.6009 28.7001C39.1009 28.4001 38.7009 28.0001 38.4009 27.6001C38.2009 27.4001 38.1009 27.1001 37.9009 26.9001C37.7009 26.3001 37.7009 26.2001 38.3009 25.9001C38.5009 25.8001 38.7009 25.8001 38.8009 25.6001C39.9009 24.7001 41.2009 24.9001 42.4009 25.3001C43.0009 25.5001 43.7009 25.7001 44.2009 26.2001C44.0009 26.9001 43.4009 27.4001 42.8009 27.9001C41.9009 28.5001 41.4009 29.3001 41.1009 30.3001C41.0009 31.0001 41.0009 31.7001 41.0009 32.5001C41.0009 33.4001 41.1009 34.3001 41.2009 35.2001C41.2009 35.4001 41.3009 35.8001 41.4009 36.0001C41.8009 36.0001 42.5009 36.2001 44.8009 35.3001C43.8009 36.6001 41.6009 36.6001 40.7009 36.6001C39.9009 36.6001 38.6009 36.2001 38.4009 35.7001ZM42.6009 26.6001C42.7009 26.6001 42.7009 26.7001 42.8009 26.7001C42.9009 26.6001 43.0009 26.5001 43.1009 26.3001C43.0009 26.3001 42.9009 26.2001 42.8009 26.2001C42.7009 26.3001 42.7009 26.5001 42.6009 26.6001Z" fill="black"/>
<path d="M65.4992 18.9008C64.9992 18.4008 64.4992 17.9008 64.0992 17.4008C63.0992 16.0008 61.6992 15.0008 60.3992 13.9008C59.1992 13.0008 58.0992 12.4008 56.5992 12.0008C56.2992 11.9008 55.8992 11.8008 55.5992 11.7008C55.4992 11.6008 55.3992 11.1008 55.1992 10.8008C58.0992 11.2008 60.3992 12.1008 62.2992 14.1008C62.7992 13.8008 63.2992 13.6008 63.6992 13.4008L63.7992 13.5008C63.4992 13.7008 63.0992 14.0008 62.7992 14.2008C62.7992 14.5008 62.8992 14.7008 63.1992 14.6008C63.4992 14.5008 63.7992 14.3008 64.1992 14.3008C63.8992 14.5008 63.5992 14.8008 63.2992 15.1008C64.3992 16.2008 65.2992 17.6008 65.9992 18.9008C65.5992 18.8008 65.4992 18.9008 65.4992 18.9008Z" fill="black"/>
<path d="M81.8992 51.1001C81.0992 48.8001 80.6992 46.4001 79.2992 44.2001C77.9992 42.1001 76.5992 40.1001 74.6992 38.5001C74.7992 38.1001 74.9992 38.1001 75.1992 38.2001C75.4992 38.4001 75.7992 38.5001 76.0992 38.8001C77.0992 40.0001 78.1992 41.2001 79.0992 42.4001C80.9992 45.0001 81.5992 48.0001 81.8992 51.1001Z" fill="#F15748"/>
<path d="M10.4974 64.2002C10.3974 64.7002 10.3974 65.1002 10.2974 65.4002C9.79742 67.1002 9.69742 68.8002 9.79742 70.6002C9.89742 72.7002 10.6974 74.5002 12.2974 76.0002C12.4974 76.2002 12.6974 76.3002 12.8974 76.6002C12.1974 76.6002 11.6974 76.2002 11.1974 75.7002C9.89742 73.8002 8.99742 71.9002 9.09742 69.6002C9.19742 68.2002 9.19742 66.8002 9.69742 65.5002C9.79742 64.9002 9.79742 64.5002 10.4974 64.2002Z" fill="#F15748"/>
<path d="M52.0984 27.8C49.2984 24.5 45.5984 23.3 41.3984 23.3C41.4984 23.2 41.5984 23 41.7984 23C42.3984 22.8 42.8984 22.7 43.5984 22.8C45.0984 23.1 46.6984 23.3 48.0984 23.9C49.5984 24.5 50.9984 25.4 51.8984 26.9C51.9984 27.1 52.0984 27.4 52.1984 27.6C52.2984 27.7 52.1984 27.7 52.0984 27.8Z" fill="black"/>
<path d="M28.2992 28.3007C25.6992 26.9007 23.6992 25.1007 21.2992 23.7007C21.1992 23.7007 21.1992 23.5007 21.1992 23.3007C21.5992 23.1007 21.8992 23.4007 22.1992 23.5007C24.8992 25.1007 27.7992 27.2007 28.2992 28.3007Z" fill="#F15748"/>
<path d="M37.7005 22.2008C37.6005 22.1008 37.5005 21.8008 37.2005 21.7008C36.6005 21.2008 36.5005 20.5008 36.8005 19.8008C37.0005 19.3008 37.8005 19.1008 38.5005 19.2008C39.1005 19.3008 39.6005 19.9008 39.7005 20.5008C39.8005 21.1008 39.5005 21.5008 38.7005 21.8008C38.4005 21.9008 38.0005 22.1008 37.7005 22.2008Z" fill="black"/>
<path d="M49.2985 22.6999C49.1985 22.5999 49.0985 22.1999 48.6985 22.0999C47.9985 21.4999 47.8985 20.6999 48.1985 19.9999C48.3985 19.3999 49.3985 19.1999 50.0985 19.2999C50.7985 19.3999 51.3985 20.0999 51.4985 20.7999C51.5985 21.4999 51.2985 21.9999 50.2985 22.2999C50.0985 22.3999 49.6985 22.5999 49.2985 22.6999Z" fill="black"/>
<path d="M21.1992 36.8003C22.0992 36.0003 28.9992 33.9003 29.9992 34.1003C29.7992 34.2003 29.5992 34.4003 29.4992 34.4003C28.7992 34.6003 28.1992 34.8003 27.3992 35.0003C25.8992 35.5003 24.2992 36.0003 22.7992 36.4003C22.2992 36.7003 21.7992 37.1003 21.1992 36.8003Z" fill="#F15748"/>
<path d="M20.5 30.4006C21.3 29.7006 24.8 29.6006 27.2 30.0006C27.1 30.6006 26.7 30.6006 26.3 30.5006C25.4 30.5006 24.3 30.4006 23.4 30.4006C22.5 30.4006 21.5 30.4006 20.5 30.4006Z" fill="#F15748"/>
<path d="M6.69924 72.8008C5.59924 70.7008 4.99924 68.7008 6.09924 66.3008C6.19924 66.5008 6.39924 66.7008 6.29924 66.7008C5.79924 68.7008 6.19924 70.6008 6.69924 72.6008C6.79924 72.6008 6.69924 72.7008 6.69924 72.8008Z" fill="#F15748"/>
<path d="M81.1992 41.2007C81.4992 41.2007 81.6992 41.1007 81.7992 41.2007C82.0992 41.4007 82.3992 41.7007 82.5992 42.1007C83.2992 43.3007 83.9992 44.7007 84.3992 46.1007C84.3992 46.2007 84.3992 46.3007 84.3992 46.5007C83.7992 46.0007 83.7992 45.3007 83.4992 44.6007C83.0992 44.1007 82.8992 43.5007 82.5992 42.9007C82.1992 42.3007 81.6992 41.8007 81.1992 41.2007Z" fill="#F15748"/>
<path d="M52.3984 30.8002C53.3984 30.1002 54.5984 29.5002 55.5984 28.7002C55.2984 29.4002 53.7984 30.6002 52.3984 30.8002Z" fill="black"/>
<path d="M55.1008 27.8006C54.2008 28.7006 53.1008 29.5006 51.8008 30.0006C52.8008 29.3006 53.9008 28.5006 54.9008 27.7006C55.0008 27.6006 55.0008 27.7006 55.1008 27.8006Z" fill="black"/>
<path d="M38.3983 64.3002C37.8983 63.2002 38.0983 62.1002 38.3983 61.2002C38.4983 61.2002 38.4983 61.2002 38.5983 61.2002C38.4983 62.1002 38.4983 63.2002 38.3983 64.3002Z" fill="black"/>
<path d="M33.101 75.3002C33.001 74.2002 33.601 73.2002 33.801 72.2002C33.901 72.2002 33.901 72.2002 34.001 72.3002C33.901 73.4002 33.401 74.3002 33.101 75.3002Z" fill="black"/>
<path d="M59.5992 34.3002C59.5992 35.0002 59.1992 35.6002 58.6992 36.2002C58.8992 35.6002 59.0992 35.0002 59.2992 34.2002C59.3992 34.3002 59.3992 34.3002 59.5992 34.3002Z" fill="black"/>
<path d="M43.1992 43.3002C42.8992 43.9002 42.5992 44.4002 42.1992 45.3002C42.1992 44.3002 42.5992 43.8002 42.9992 43.2002C43.0992 43.2002 43.0992 43.3002 43.1992 43.3002Z" fill="black"/>
<path d="M41.6985 22.6006C41.5985 21.9006 41.7985 21.3006 41.9985 20.6006C42.0985 21.5006 41.9985 21.9006 41.6985 22.6006Z" fill="black"/>
<path d="M30.5984 48.5C30.1984 48.9 29.7984 49.3 29.3984 49.6C29.5984 48.8 29.5984 48.8 30.5984 48.5Z" fill="black"/>
<path d="M38.9984 57.6006C38.8984 57.1006 38.7984 56.7006 39.0984 56.1006C39.3984 56.8006 39.1984 57.2006 38.9984 57.6006Z" fill="black"/>
<path d="M40.3993 51.1C40.2993 50.5 40.2993 50.5 40.6993 50C40.7993 50.4 40.7993 50.4 40.3993 51.1Z" fill="black"/>
<path d="M35.0977 33.9002C35.3977 33.5002 35.7977 33.2002 36.1977 32.7002C35.9977 33.3002 35.8977 33.4002 35.0977 33.9002Z" fill="black"/>
<path d="M38.8977 66.4004C38.8977 66.8004 38.8977 67.2004 38.8977 67.6004H38.7977C38.6977 67.2004 38.6977 66.8004 38.5977 66.4004C38.6977 66.4004 38.7977 66.4004 38.8977 66.4004Z" fill="black"/>
<path d="M60.5 34.7C60.6 34.5 60.7 34.2 60.9 34C61 34.4 60.9 34.6 60.5 34.7Z" fill="black"/>
<path d="M60.4977 34.7002C60.3977 35.0002 60.3977 35.3002 60.2977 35.5002C60.1977 35.5002 60.1977 35.5002 60.0977 35.4002C60.2977 35.2002 60.3977 35.0002 60.4977 34.7002Z" fill="black"/>
<path d="M43.8008 13.3004C43.9008 13.2004 44.0008 13.0004 44.1008 12.9004L44.2008 13.0004C44.1008 13.1004 44.0008 13.3004 43.9008 13.4004C43.9008 13.4004 43.9008 13.3004 43.8008 13.3004Z" fill="black"/>
<path d="M42.4 17.1004C42.3 17.3004 42.2 17.5004 42.1 17.7004C42.1 17.7004 42 17.7004 42 17.6004C42.1 17.4004 42.1 17.2004 42.2 16.9004C42.3 17.0004 42.3 17.0004 42.4 17.1004Z" fill="black"/>
<path d="M57.3984 74.8004C57.3984 73.1004 57.3984 71.6004 57.3984 69.9004C57.8984 71.0004 57.8984 73.8004 57.3984 74.8004Z" fill="black"/>
<path d="M44.1992 72.8C43.1992 73.3 42.1992 73.9 41.1992 74.5C41.8992 73.4 43.0992 73.2 44.0992 72.5C44.1992 72.6 44.1992 72.7 44.1992 72.8Z" fill="black"/>
<path d="M40.5977 72.9008C41.4977 72.2008 42.4977 71.6008 43.4977 70.8008C43.0977 71.5008 41.7977 72.7008 40.5977 72.9008Z" fill="black"/>
</svg>
