<svg width="90" height="90" viewBox="0 0 90 90" fill="none" xmlns="http://www.w3.org/2000/svg">
<path d="M73.6023 15.5996C74.0023 15.6996 73.9023 15.9996 73.9023 16.1996C73.8023 16.8996 73.7023 17.5996 73.6023 18.2996C73.4023 19.4996 73.2023 20.5996 73.0023 21.7996C72.9023 22.0996 73.0023 22.4996 72.9023 22.7996C72.6023 22.7996 72.5023 22.5996 72.4023 22.3996C72.4023 21.9996 72.4023 21.6996 72.4023 21.2996C72.6023 19.6996 72.9023 18.0996 73.1023 16.5996C73.3023 16.1996 73.3023 15.7996 73.6023 15.5996Z" fill="#EB584A"/>
<path d="M68.0015 22.2996C67.5015 22.2996 67.3015 21.9996 67.1015 21.6996C66.9015 21.3996 66.7015 20.9996 66.5015 20.6996C65.9015 19.5996 65.4015 18.5996 64.8015 17.4996C64.7015 17.1996 64.5015 16.9996 64.6015 16.5996C64.8015 16.6996 65.0015 16.7996 65.1015 16.9996C65.3015 17.2996 65.5015 17.6996 65.7015 17.9996C66.2015 19.0996 66.7015 20.1996 67.3015 21.1996C67.4015 21.4996 67.7015 21.7996 68.0015 22.2996Z" fill="#EB584A"/>
<path d="M82.5016 20.7992C82.4016 20.8992 82.4016 21.0992 82.3016 21.0992C80.8016 22.1992 79.2016 23.1992 77.6016 24.1992C77.7016 24.0992 77.7016 23.8992 77.8016 23.7992C78.2016 23.3992 78.7016 22.9992 79.2016 22.6992C80.0016 22.0992 80.9016 21.4992 81.8016 20.8992C81.8016 20.8992 82.1016 20.5992 82.5016 20.7992Z" fill="#EB584A"/>
<path d="M6.70003 65.0992C6.50003 64.7992 6.70003 64.5992 6.90003 64.4992C7.40003 63.9992 8.00003 63.5992 8.50003 63.0992C9.40003 62.3992 10.3 61.5992 11.3 60.8992C11.6 60.6992 11.8 60.3992 12 60.1992C12.3 60.3992 12.2 60.5992 12.1 60.7992C11.9 61.0992 11.6 61.3992 11.4 61.5992C10.2 62.5992 9.00003 63.5992 7.70003 64.6992C7.30003 64.8992 7.00003 65.0992 6.70003 65.0992Z" fill="#EB584A"/>
<path d="M15.3023 63.8994C15.7023 64.2994 15.6023 64.5994 15.6023 64.9994C15.6023 65.3994 15.5023 65.7994 15.4023 66.1994C15.1023 67.3994 14.8023 68.4994 14.5023 69.6994C14.4023 69.9994 14.4023 70.2994 14.0023 70.4994C14.0023 70.2994 13.9023 70.0994 13.9023 69.8994C14.0023 69.4994 14.0023 69.0994 14.2023 68.7994C14.5023 67.5994 14.9023 66.4994 15.2023 65.2994C15.2023 64.7994 15.2023 64.3994 15.3023 63.8994Z" fill="#EB584A"/>
<path d="M3.5 55.2992C3.7 55.2992 3.8 55.1992 3.9 55.1992C5.8 55.3992 7.6 55.6992 9.5 55.9992C9.4 56.0992 9.2 56.1992 9.1 56.1992C8.5 56.1992 7.9 56.1992 7.3 56.0992C6.3 55.9992 5.2 55.7992 4.2 55.6992C4 55.6992 3.7 55.6992 3.5 55.2992Z" fill="#EB584A"/>
<path d="M10.7031 35.8998C10.7031 41.3998 10.8031 47.0998 13.1031 52.0998C14.0031 53.9998 15.3031 55.6998 17.0031 56.7998C18.2031 57.4998 19.5031 57.8998 20.7031 58.4998C23.3031 59.7998 25.5031 61.7998 27.6031 63.6998C27.9031 63.9998 28.2031 64.2998 28.3031 64.6998C28.5031 65.3998 28.1031 66.0998 28.0031 66.7998C27.6031 68.7998 29.4031 70.7998 28.9031 72.7998C28.6031 74.0998 27.5031 75.4998 28.4031 76.4998C29.4031 76.6998 30.4031 76.8998 31.4031 77.0998C30.6031 78.3998 32.5031 80.0998 34.0031 79.6998C35.5031 79.2998 36.4031 77.7998 37.0031 76.2998C38.2031 73.4998 39.1031 70.2998 41.6031 68.4998C42.9031 67.5998 44.6031 67.0998 45.7031 65.8998C46.4031 65.1998 46.9031 64.1998 47.7031 63.4998C48.5031 62.7998 49.8031 62.5998 50.5031 63.3998C50.8031 63.7998 50.9031 64.2998 50.9031 64.7998C51.3031 68.2998 51.7031 72.1998 50.0031 75.2998C49.9031 75.4998 49.8031 75.5998 49.8031 75.7998C49.8031 76.0998 50.1031 76.2998 50.3031 76.4998C51.7031 77.1998 53.6031 76.4998 54.2031 75.0998C54.8031 73.5998 54.0031 71.6998 55.0031 70.4998C55.3031 70.0998 55.8031 69.7998 56.2031 69.3998C57.0031 68.6998 57.4031 67.5998 58.0031 66.7998C58.7031 65.9998 59.8031 65.2998 60.8031 65.7998C61.2031 65.9998 61.5031 66.4998 61.8031 66.8998C63.4031 69.8998 63.3031 73.7998 61.6031 76.6998C61.3031 77.1998 61.0031 77.6998 61.2031 78.1998C61.4031 78.8998 62.3031 78.9998 63.1031 78.8998C64.4031 78.8998 65.9031 78.7998 66.8031 77.7998C68.8031 75.5998 66.2031 71.2998 68.6031 69.5998C69.0031 69.2998 69.6031 69.0998 70.0031 68.6998C70.7031 67.9998 70.5031 66.6998 70.0031 65.6998C69.6031 64.7998 68.9031 63.6998 69.2031 62.6998C69.6031 62.6998 70.0031 62.7998 70.3031 62.7998C70.3031 61.7998 70.2031 60.6998 70.1031 59.6998C70.8031 59.4998 71.0031 58.5998 71.0031 57.7998C70.9031 57.0998 70.6031 56.3998 70.7031 55.5998C70.7031 53.8998 72.2031 52.7998 73.5031 51.6998C75.8031 49.7998 77.8031 47.4998 79.8031 45.1998C80.5031 44.2998 81.3031 43.3998 81.5031 42.1998C81.6031 41.1998 81.3031 40.2998 80.9031 39.3998C80.3031 37.7998 79.7031 36.1998 79.1031 34.5998C78.8031 33.6998 78.4031 32.7998 77.8031 31.9998C75.6031 29.2998 70.9031 30.0998 68.5031 27.5998C67.6031 28.2998 67.0031 29.1998 66.6031 30.1998C65.2031 30.2998 63.9031 29.2998 62.5031 29.0998C61.4031 28.8998 60.3031 29.1998 59.3031 29.4998C56.5031 30.1998 53.7031 30.9998 50.8031 31.6998C48.4031 32.2998 45.2031 32.7998 43.8031 30.6998C42.6031 28.8998 43.1031 25.7998 41.1031 24.9998C40.6031 24.7998 40.0031 24.7998 39.4031 24.4998C38.3031 23.8998 38.4031 22.2998 38.7031 21.0998C35.7031 21.8998 32.6031 22.3998 29.5031 22.5998C28.3031 22.6998 27.0031 22.5998 25.9031 22.1998C24.8031 21.6998 23.9031 20.8998 22.8031 20.6998C21.5031 20.4998 20.2031 21.2998 19.4031 22.2998C18.6031 23.2998 18.0031 24.4998 17.2031 25.4998C15.9031 27.2998 13.8031 28.6998 13.1031 30.7998C12.4031 32.6998 12.9031 35.1998 11.3031 36.5998" fill="white"/>
<path d="M45.4023 41.4994C46.9023 41.5994 48.2023 40.5994 49.2023 39.4994C50.1023 38.3994 50.9023 37.0994 51.9023 35.9994C53.3023 34.4994 55.4023 33.4994 56.1023 31.5994C56.3023 31.0994 56.3023 30.3994 55.8023 30.0994C55.4023 29.8994 54.9023 30.0994 54.4023 30.2994C53.0023 30.9994 51.6023 31.4994 50.1023 31.8994C49.1023 32.1994 46.9023 32.0994 46.2023 32.7994C45.6023 33.4994 45.4023 41.4994 45.4023 41.4994Z" fill="#BCBCBB"/>
<path d="M33.2031 74.4995C33.3031 74.9995 33.3031 75.5995 32.9031 75.8995C32.6031 76.2995 32.0031 76.2995 31.5031 76.1995C31.3031 76.1995 31.2031 76.1995 31.1031 76.0995C31.0031 75.9995 31.0031 75.8995 31.0031 75.6995C30.8031 74.3995 30.2031 70.1995 31.6031 69.3995C32.5031 68.8995 32.4031 70.2995 32.6031 70.9995C32.8031 72.1995 33.1031 73.2995 33.2031 74.4995Z" fill="#BCBCBB"/>
<path d="M19.8007 23.2995C19.4007 23.8995 19.0007 24.3995 18.6007 24.9995C17.9007 25.8995 17.3007 26.8995 16.7007 27.8995C16.7007 27.9995 16.6007 27.9995 16.7007 28.0995C16.7007 28.1995 16.9007 28.1995 17.0007 28.2995C17.5007 28.2995 17.9007 28.3995 18.4007 28.1995C18.9007 27.9995 19.2007 27.5995 19.5007 27.1995C20.5007 25.9995 21.7007 24.9995 23.0007 24.1995C23.2007 23.9995 23.5007 23.8995 23.6007 23.5995C23.9007 22.9995 23.6007 22.3995 23.2007 21.7995C22.6007 20.9995 21.9007 18.9995 21.0007 19.9995C20.4007 20.6995 20.3007 22.3995 19.8007 23.2995Z" fill="#BCBCBB"/>
<path d="M58.7033 66.9999C58.3033 67.1999 58.0033 67.3999 57.6033 67.6999C57.2033 67.9999 57.0033 68.3999 56.8033 68.7999C56.1033 69.8999 55.3033 70.8999 54.4033 71.7999C54.2033 71.9999 54.0033 72.1999 53.7033 72.0999C53.6033 72.0999 53.5033 71.8999 53.4033 71.7999C51.7033 69.6999 51.2033 66.5999 52.3033 64.0999C52.5033 63.4999 52.9033 62.8999 53.5033 62.5999C54.5033 62.0999 57.8033 61.8999 58.8033 62.4999C60.4033 63.3999 60.0033 65.9999 58.7033 66.9999Z" fill="#BCBCBB"/>
<path d="M29.0011 41.0994C29.1011 40.9994 29.301 40.8994 29.401 40.9994C29.501 41.0994 29.401 41.2994 29.401 41.3994C29.001 41.9994 28.201 42.4994 27.901 43.1994C27.801 43.3994 27.8011 43.5994 27.7011 43.7994C27.6011 43.9994 27.4011 44.0994 27.2011 43.9994C27.1011 43.9994 27.0011 43.8994 27.0011 43.7994C26.7011 43.3994 25.801 41.6994 26.401 41.3994C26.601 41.2994 27.4011 41.5994 27.7011 41.5994C28.1011 41.4994 28.6011 41.3994 29.0011 41.0994Z" fill="#BCBCBB"/>
<path d="M73.3016 41.4996C73.9016 43.6996 74.1016 46.0996 73.9016 48.3996C73.8016 49.2996 73.7016 50.0996 73.4016 50.8996C73.1016 51.4996 72.7016 52.1996 72.9016 52.7996C74.2016 52.3996 75.2016 51.4996 76.3016 50.6996C77.3016 49.8996 78.3016 48.9996 79.3016 48.1996C79.4016 48.0996 79.5016 48.0996 79.6016 47.9996C79.8016 47.9996 80.0016 48.1996 80.2016 48.1996C80.4016 48.1996 80.5016 47.8996 80.6016 47.6996C80.8016 45.9996 81.0016 44.1996 80.2016 42.5996C79.7016 41.5996 78.8016 40.7996 77.9016 39.9996C75.7016 38.0996 73.5016 36.0996 70.7016 35.0996C70.5016 35.6996 70.7016 36.3996 71.0016 36.9996C71.7016 38.8996 72.7016 40.6996 73.8016 42.3996" fill="#BCBCBB"/>
<path d="M69.2019 69.4999C69.8019 69.3999 70.6019 69.3999 71.0019 68.8999C71.4019 68.3999 71.2019 67.6999 71.0019 67.0999C70.5019 65.7999 70.1019 64.4999 69.6019 63.2999C69.3019 63.0999 69.0019 63.4999 68.8019 63.7999C67.1019 66.6999 66.8019 70.1999 66.6019 73.4999C66.6019 74.0999 66.5019 74.7999 67.0019 75.2999C67.3019 73.9999 67.6019 72.5999 67.8019 71.1999C67.9019 70.2999 68.1019 69.5999 69.2019 69.4999Z" fill="#BCBCBB"/>
<path d="M31.6031 66.5994C31.2031 66.5994 30.8031 66.3994 30.4031 66.1994C28.4031 65.0994 26.4031 63.9994 25.0031 62.2994C24.7031 61.8994 24.4031 61.5994 24.0031 61.1994C23.6031 60.8994 23.2031 60.6994 22.8031 60.3994C22.1031 59.7994 21.7031 58.9994 21.7031 58.0994C21.7031 57.6994 21.8031 57.2994 22.1031 57.0994C22.3031 56.8994 22.5031 56.8994 22.8031 56.8994C23.5031 56.8994 24.1031 57.1994 24.7031 57.4994C25.9031 58.0994 27.1031 58.6994 28.4031 59.2994C29.1031 59.6994 30.2031 59.9994 30.8031 60.5994C31.1031 61.0994 32.4031 66.3994 31.6031 66.5994Z" fill="#BCBCBB"/>
<path d="M34.9998 22.2998C35.1998 22.1998 35.3998 21.8998 35.4998 21.6998C36.4998 20.1998 38.0998 19.1998 39.7998 18.7998C39.7998 19.9998 39.1998 21.0998 38.9998 22.1998C38.7998 23.1998 38.7998 24.2998 38.8998 25.2998C36.9998 24.6998 35.0998 24.5998 33.0998 24.9998C32.8998 24.9998 32.9998 23.2998 33.0998 23.1998C33.2998 22.7998 33.4998 22.5998 33.4998 22.0998C33.9998 22.2998 34.5998 22.5998 34.9998 22.2998Z" fill="#BCBCBB"/>
<path d="M20.6 44.2998C20.6 45.0998 19.9 45.7998 19.8 46.6998C20.4 46.3998 21.1 46.1998 21.7 45.9998C21.7 46.7998 21.5 47.5998 21.2 48.3998C21.7 48.0998 22.3 47.8998 22.8 47.6998C22.8 48.2998 22.9 48.9998 22.9 49.5998C23.4 49.2998 23.9 48.8998 24.3 48.4998C24.3 48.8998 24.4 49.3998 24.5 49.7998C24.9 49.5998 25.2 49.3998 25.6 49.1998C25.7 49.6998 25.8 50.1998 25.8 50.6998C25.8 50.7998 25.8 50.8998 25.7 50.9998C25.6 51.0998 25.5 51.0998 25.3 51.0998C24.6 51.0998 23.8 51.1998 23.1 51.1998C22.6 51.1998 22.2 51.1998 21.7 51.0998C20.6 50.7998 19.8 49.7998 19.1 48.8998C18.8 48.3998 18.4 47.8998 18.2 47.3998C18 46.7998 17.8 45.8998 18.4 45.4998C19 44.8998 19.8 44.4998 20.6 44.2998Z" fill="#BCBCBB"/>
<path d="M29.4022 48.8994C29.5022 48.7994 29.5022 48.7994 29.6022 48.7994C29.7022 48.7994 29.8022 48.7994 29.8022 48.8994C30.1022 49.0994 30.4022 49.2994 30.7022 49.4994C30.7022 48.7994 30.7022 48.0994 30.6022 47.4994C30.9022 47.6994 31.1022 47.8994 31.4022 48.0994C31.7022 48.2994 32.0022 48.4994 32.3022 48.4994C32.0022 47.7994 31.8022 47.0994 31.5022 46.3994C32.2022 46.5994 32.9022 46.7994 33.7022 46.8994C33.8022 46.4994 33.7022 45.9994 33.5022 45.6994C33.5022 45.5994 33.4022 45.5994 33.4022 45.4994C33.4022 45.2994 33.7022 45.2994 33.9022 45.2994C34.6022 45.3994 35.2022 45.4994 35.9022 45.6994C35.5022 44.7994 35.1022 43.8994 34.7022 42.9994C35.4022 43.0994 36.1022 43.2994 36.8022 43.5994C37.0022 43.4994 37.0022 43.1994 36.8022 42.9994C36.7022 42.7994 36.6022 42.5994 36.6022 42.3994C37.6022 42.4994 38.7022 42.6994 39.7022 42.9994C39.8022 42.9994 39.9022 43.0994 40.0022 43.1994C40.1022 43.2994 40.1022 43.3994 40.1022 43.4994C40.3022 44.5994 39.8022 45.7994 39.0022 46.6994C38.2022 47.5994 37.2022 48.1994 36.2022 48.7994C35.3022 49.3994 34.4022 50.0994 33.4022 50.6994C32.4022 51.1994 31.3022 51.5994 30.1022 51.3994C29.6022 51.2994 29.0022 50.9994 28.7022 50.4994C28.4022 49.6994 29.0022 49.1994 29.4022 48.8994Z" fill="#BCBCBB"/>
<path d="M48.9017 35.4998C48.4017 35.7998 48.0017 36.0998 47.5017 36.3998C47.0017 36.6998 46.7017 37.0998 46.2017 37.4998C45.8017 37.7998 45.8017 38.1998 46.1017 38.6998C47.0017 38.0998 48.0017 37.4998 48.9017 36.8998L49.0017 36.9998C48.4017 37.3998 47.8017 37.7998 47.2017 38.2998C46.7017 38.5998 46.1017 38.8998 46.1017 39.5998C46.1017 39.6998 45.9016 39.7998 45.8017 39.7998C45.4016 39.9998 45.5017 40.2998 45.7017 40.6998C46.9017 39.9998 47.9017 38.8998 49.4017 38.5998C49.2017 38.6998 49.1017 38.7998 48.9017 38.9998C48.0017 39.6998 47.0017 40.2998 46.1017 40.9998C45.7016 41.2998 45.6017 41.5998 45.7017 41.9998C45.8017 42.3998 45.8017 42.6998 45.9017 43.0998C45.9017 43.2998 45.8017 43.3998 45.7017 43.6998C45.5017 43.3998 45.4017 43.2998 45.4017 43.1998C45.2017 41.8998 45.0017 40.5998 44.8017 39.3998C44.8017 39.1998 44.7017 38.9998 44.8017 38.7998C45.3017 37.6998 44.8017 36.6998 44.5017 35.6998C44.4017 35.1998 44.3017 34.7998 44.7017 34.3998C44.9017 34.1998 44.9017 34.0998 45.5017 33.8998C45.3017 33.5998 45.1017 33.2998 44.9017 33.0998C44.7017 32.6998 44.3017 32.3998 44.2017 31.9998C43.9017 30.6998 43.0017 29.6998 42.5017 28.4998C42.0017 27.2998 41.3017 26.0998 40.7017 24.9998C40.1017 24.8998 40.0017 25.8998 39.3017 25.5998C38.7017 23.4998 39.1017 21.3998 40.1017 19.3998C39.3017 19.3998 39.0016 19.4998 37.1017 20.9998C36.2017 21.6998 35.4017 22.3998 34.5017 23.1998C34.3017 23.0998 34.1017 22.8998 33.8017 22.6998C33.8017 22.8998 33.8017 22.9998 33.8017 23.1998C33.9017 23.9998 33.8017 24.0998 33.0017 23.8998C32.8017 23.8998 32.6017 23.8998 32.4017 23.7998C30.9017 23.1998 29.3017 23.3998 27.7017 23.7998C27.5017 23.7998 27.4017 23.8998 27.3017 23.8998C27.3017 23.8998 27.3017 23.8998 27.2017 23.7998C27.2017 23.5998 27.3017 23.2998 27.3017 22.9998C27.0017 23.1998 26.7017 23.2998 26.4017 23.4998C26.4017 23.7998 26.4017 23.9998 26.5017 24.1998C26.0017 24.1998 25.5017 24.1998 25.0017 24.1998C25.2017 23.9998 25.3017 23.7998 25.5017 23.5998C25.3017 22.9998 24.8017 22.4998 24.3017 22.1998C24.1017 22.2998 23.9017 22.3998 23.7017 22.5998C22.9017 21.8998 22.2017 21.0998 21.4017 20.3998C21.0017 20.7998 20.9017 21.1998 20.7017 21.5998C20.5017 22.2998 20.3017 22.8998 19.8017 23.3998C19.6017 23.5998 19.5017 23.8998 19.3017 24.1998C18.2017 26.0998 16.8017 27.8998 15.4017 29.5998C15.1017 29.9998 14.8017 30.3998 14.5017 30.7998C14.4017 30.8998 14.3017 31.0998 14.3017 31.1998C14.5017 32.1998 14.0017 32.9998 13.6017 33.7998C12.9017 35.1998 12.1017 36.5998 11.3017 37.8998C11.2017 38.0998 11.1017 38.2998 11.0017 38.5998C11.5017 38.3998 11.9017 38.2998 12.5017 38.0998C12.4017 38.6998 12.3017 39.0998 12.2017 39.4998C12.3017 39.5998 12.5017 39.6998 12.7017 39.7998C12.4017 40.9998 12.1017 42.1998 11.8017 43.4998C12.1017 43.0998 12.3017 42.8998 12.5017 42.5998C12.8017 42.7998 12.7017 42.9998 12.6017 43.2998C12.3017 43.7998 12.0017 44.3998 11.6017 44.8998C10.8017 46.1998 10.8017 46.1998 11.1017 47.6998C12.7017 46.5998 13.8017 44.7998 15.8017 44.2998C15.6017 44.4998 15.3017 44.5998 15.1017 44.7998C14.6017 45.0998 14.2017 45.4998 13.7017 45.8998C13.3017 46.1998 13.0017 46.5998 13.2017 47.1998C13.3017 47.4998 13.1017 47.8998 13.1017 48.1998C13.1017 48.4998 13.0017 48.8998 13.3017 49.0998C13.4017 49.1998 13.3017 49.4998 13.3017 49.6998C13.3017 50.2998 13.3017 50.7998 13.4017 51.3998C13.5017 51.9998 13.8017 51.9998 14.3017 51.7998C14.5017 51.6998 14.7017 51.5998 14.9017 51.4998C15.1017 51.3998 15.3017 51.3998 15.4017 51.3998C15.8017 52.1998 15.1017 53.0998 15.7017 53.9998C15.9017 53.8998 16.1017 53.7998 16.2017 53.6998C16.4017 53.4998 16.6017 53.2998 16.8017 53.1998C17.2017 52.9998 17.5017 53.1998 17.4017 53.5998C17.4017 53.8998 17.3017 54.2998 17.3017 54.5998C17.3017 54.8998 17.3017 55.1998 17.3017 55.5998C18.0017 55.4998 18.1017 54.6998 18.8017 54.5998C19.7017 55.6998 19.1017 57.1998 19.5017 58.3998C20.1017 58.2998 20.0017 57.6998 20.3017 57.4998C20.6017 57.4998 20.7017 57.6998 20.9017 57.9998C21.3017 58.7998 21.8017 59.5998 22.2017 60.2998C22.5017 60.7998 22.9017 61.2998 23.2017 61.8998C23.1017 62.0998 22.9017 62.1998 22.7017 61.9998C22.4017 61.7998 22.2017 61.3998 22.0017 61.0998C21.6017 60.4998 21.3017 59.7998 21.0017 59.1998C20.9017 58.8998 20.7017 58.6998 20.5017 58.3998C20.2017 58.5998 20.0017 58.6998 19.8017 58.7998C19.2017 59.0998 18.9017 58.8998 18.8017 58.1998C18.8017 57.5998 18.8017 57.0998 18.8017 56.4998C18.8017 56.0998 18.9017 55.5998 18.6017 55.1998C18.2017 55.1998 18.0017 55.5998 17.7017 55.7998C17.5017 55.9998 17.3017 56.3998 16.9017 56.0998C16.7017 55.8998 16.6017 55.5998 16.6017 55.2998C16.6017 54.6998 16.7017 54.1998 16.8017 53.4998C16.4017 53.7998 16.1017 53.9998 15.9017 54.1998C15.3017 54.5998 14.9017 54.3998 14.8017 53.6998C14.8017 53.3998 14.8017 53.0998 14.8017 52.7998C14.8017 52.5998 14.8017 52.2998 14.8017 51.9998C14.5017 52.0998 14.2017 52.1998 14.0017 52.1998C13.3017 52.3998 12.9017 52.1998 12.7017 51.4998C13.0017 50.7998 13.0017 50.4998 13.0017 50.1998C13.0017 49.9998 13.0017 49.7998 12.9017 49.6998C12.3017 49.1998 12.6017 48.5998 12.7017 47.9998C12.8017 47.6998 12.8017 47.3998 12.9017 46.9998C12.2017 46.9998 12.0017 47.5998 11.6017 47.9998C11.2017 48.3998 10.9017 48.6998 10.3017 48.9998C10.0017 48.2998 11.0017 47.8998 10.5017 47.1998C10.3017 47.2998 10.1017 47.4998 9.90165 47.5998C9.80165 47.4998 9.70165 47.3998 9.70165 47.2998C9.90165 46.3998 10.2017 45.5998 10.5017 44.6998C9.90165 44.9998 9.80165 45.7998 9.00165 45.8998C9.20165 44.7998 10.1017 44.0998 10.4017 42.9998C9.80165 43.0998 9.40165 43.5998 8.80165 43.1998C8.60165 42.8998 8.90165 42.5998 9.00165 42.2998C9.40165 41.6998 9.90165 40.9998 10.4017 40.3998C10.6017 40.0998 10.9017 39.7998 11.2017 39.2998C10.5017 39.2998 10.1017 39.8998 9.40165 39.4998C11.0017 37.3998 12.0017 35.0998 13.3017 32.7998C12.6017 32.7998 12.3017 33.0998 11.9017 33.3998C11.5017 33.6998 11.1017 33.7998 10.5017 33.6998C10.7017 33.4998 10.8017 33.2998 10.9017 33.1998C11.3017 32.7998 11.8017 32.3998 12.3017 31.9998C13.6017 30.4998 15.0017 29.0998 16.2017 27.4998C17.1017 26.3998 17.8017 25.1998 18.6017 23.9998C18.8017 23.6998 19.0017 23.4998 19.2017 23.1998C19.4017 22.8998 19.7017 22.5998 19.8017 22.2998C20.1017 21.5998 20.5017 20.7998 20.7017 19.9998C20.8017 19.6998 20.7017 19.3998 20.7017 19.0998C20.7017 18.8998 20.7017 18.6998 20.8017 18.5998C21.0017 18.3998 21.2017 18.5998 21.3017 18.7998C21.7017 19.1998 22.0017 19.6998 22.4017 20.0998C23.0017 19.5998 23.4017 19.9998 23.7017 20.2998C24.5017 20.9998 25.3017 21.7998 26.2017 22.6998C26.9017 22.4998 27.4017 21.7998 28.3017 21.2998C28.2017 21.8998 28.1017 22.1998 28.0017 22.6998C28.9017 22.5998 29.7017 22.4998 30.5017 22.4998C31.3017 22.4998 32.1017 22.6998 33.1017 22.8998C33.1017 22.1998 33.0017 21.5998 33.0017 20.8998C33.8017 20.9998 34.0016 21.6998 34.6017 22.0998C34.8017 21.8998 35.1017 21.6998 35.3017 21.4998C36.8017 20.2998 38.3017 19.1998 40.1017 18.4998C40.5016 18.3998 40.5017 18.3998 41.0017 18.4998C40.2017 19.8998 39.5016 21.3998 39.6017 22.9998C39.6017 23.3998 39.5017 23.8998 39.8017 24.3998C40.2017 24.0998 40.5017 23.8998 41.0017 23.5998C41.4017 24.2998 41.7017 24.8998 41.9017 25.4998C42.4017 26.5998 42.9017 27.6998 43.4017 28.8998C43.6017 29.2998 43.9016 29.6998 44.1017 30.0998C44.6017 30.9998 45.3017 31.4998 46.3017 31.1998C46.6017 31.0998 46.9016 31.1998 47.1017 31.1998C48.2016 31.1998 49.3017 30.9998 50.3017 30.6998C51.1017 30.4998 51.9017 30.3998 52.7017 30.1998C54.1017 29.8998 55.3017 29.1998 56.4017 28.3998C56.6017 28.2998 56.8017 28.1998 57.0017 27.9998C57.2017 28.1998 57.5017 28.2998 57.8017 28.5998C57.5017 29.0998 57.2017 29.5998 56.9017 30.1998C57.2017 30.1998 57.3017 30.1998 57.5017 30.0998C58.4017 29.7998 59.3017 29.4998 60.1017 29.1998C61.6017 28.6998 63.2017 28.2998 64.8017 28.1998C65.0017 28.1998 65.2017 28.1998 65.5017 28.1998C65.5017 28.8998 64.8017 29.0998 64.4017 29.6998C65.3017 30.0998 66.2016 30.3998 67.1017 30.7998C67.7016 29.2998 67.9017 27.7998 67.9017 26.2998C68.5017 26.3998 68.6017 26.7998 68.8017 27.1998C69.4017 28.3998 70.4017 29.3998 71.3017 30.1998C71.7017 29.7998 72.1017 29.4998 72.5017 29.1998C73.5016 28.3998 74.7017 28.0998 76.0017 28.0998C76.1017 28.0998 76.3017 28.0998 76.4017 28.0998C76.5017 28.0998 76.6017 28.2998 76.6017 28.2998C76.6017 28.3998 76.5017 28.5998 76.4017 28.5998C76.0017 28.7998 75.6017 28.9998 75.2017 29.1998C75.0017 29.2998 74.8017 29.5998 74.6017 29.7998C75.0017 30.2998 75.5017 30.3998 76.0017 30.5998C77.6017 31.1998 78.9017 32.1998 80.1017 33.4998C79.4017 34.0998 78.6017 33.1998 77.9017 33.5998C78.2017 33.9998 78.5017 34.2998 78.8017 34.5998C79.6017 35.5998 80.5017 36.5998 81.3017 37.5998C81.5017 37.8998 81.8017 38.1998 81.6017 38.5998C81.0017 38.7998 80.6017 38.1998 79.9017 38.2998C81.1017 40.1998 82.2017 42.1998 82.2017 44.4998C81.7017 44.5998 81.2017 44.6998 80.7017 44.6998C80.7017 45.0998 80.7017 45.4998 80.7017 45.8998C80.7017 46.7998 80.7017 47.7998 80.9017 48.7998C81.0017 49.4998 80.7017 49.9998 80.3017 50.4998C79.5017 49.8998 79.7017 48.7998 78.9017 48.1998C78.1017 49.1998 77.9017 50.5998 76.8017 51.4998C76.6017 51.3998 76.4016 51.2998 76.2017 51.1998C76.1017 51.1998 76.1017 51.1998 76.0017 51.2998C75.4017 51.6998 74.8017 52.0998 74.3017 52.4998C73.9017 52.7998 73.6017 53.0998 73.3017 53.2998C72.9017 53.5998 72.6017 53.8998 72.1017 53.8998C71.9016 53.4998 71.7017 53.0998 71.5017 52.5998C71.2017 53.4998 71.1017 54.1998 71.2016 54.7998C71.4016 56.4998 71.8017 58.0998 72.0017 59.6998C72.0017 59.9998 72.2017 60.2998 71.8017 60.5998C71.4017 60.2998 71.1017 59.8998 70.7016 59.5998L71.0017 59.7998C71.3017 60.4998 71.5017 61.1998 71.8017 61.7998C72.1017 62.3998 72.4016 62.9998 72.6017 63.5998C72.7016 63.7998 72.8017 64.0998 72.5017 64.2998C71.8017 63.9998 71.3017 63.0998 70.3017 63.0998C70.2017 63.4998 70.5016 63.7998 70.7016 63.9998C71.0016 64.4998 71.3017 64.8998 71.5017 65.4998C71.9017 66.1998 71.8017 66.2998 71.1017 66.4998C71.2016 66.8998 71.3017 67.3998 71.5017 67.7998C71.5017 67.7998 71.3016 67.8998 71.2016 67.9998C70.7016 66.9998 70.2016 66.0998 69.7016 65.0998C69.7016 65.0998 69.8017 64.8998 69.9017 64.6998C70.2017 64.8998 70.5017 64.9998 71.0017 65.2998C70.8017 64.9998 70.7016 64.7998 70.6017 64.5998C70.2016 63.9998 69.8017 63.2998 69.5017 62.6998C69.4017 62.5998 69.4017 62.2998 69.5017 62.1998C69.6017 62.0998 69.8017 62.0998 70.0017 62.0998C70.3017 62.1998 70.6017 62.2998 70.9017 62.4998C71.2017 62.5998 71.4017 62.6998 71.8017 62.7998C71.7017 62.4998 71.7016 62.2998 71.6017 62.0998C71.3017 61.3998 71.0016 60.6998 70.7016 59.9998C70.5016 59.4998 70.3017 58.8998 70.4017 58.2998C71.2017 58.2998 71.5016 58.9998 72.2016 59.3998C72.1017 58.7998 72.0017 58.4998 72.0017 58.0998C71.8017 56.9998 71.6017 55.9998 71.4017 54.8998C71.2017 53.7998 71.5016 52.5998 71.7016 51.4998C72.3016 51.5998 72.3017 51.5998 72.8017 52.1998C73.2017 51.5998 73.9017 48.8998 73.9017 47.7998C73.1017 48.2998 72.3017 48.6998 71.5017 49.1998L71.4017 48.9998C71.5017 48.8998 71.6017 48.7998 71.7016 48.6998C72.3016 48.2998 72.9017 47.9998 73.5017 47.6998C74.1017 47.3998 74.3017 46.9998 74.2017 46.4998C74.2017 46.1998 74.2017 45.8998 74.2017 45.4998C73.0017 45.8998 72.2016 46.7998 71.2016 47.2998C71.4016 46.8998 71.7017 46.6998 72.0017 46.4998C72.5017 46.0998 73.1017 45.7998 73.7017 45.4998C74.1017 45.2998 74.2017 44.9998 74.1017 44.4998C73.9017 43.0998 73.5016 41.7998 72.6017 40.5998C72.4016 40.3998 72.4017 40.0998 72.3017 39.7998C72.4017 39.8998 72.6017 39.8998 72.7016 39.9998C73.0016 40.3998 73.3017 40.7998 73.5017 41.1998C73.7017 41.4998 73.9017 41.7998 74.1017 42.0998C75.0017 41.8998 75.5017 41.1998 76.3017 40.7998C75.9017 41.2998 75.4017 41.6998 74.8017 42.0998C74.2017 42.4998 74.1017 42.7998 74.3017 43.3998C74.5017 43.8998 74.6017 44.3998 74.8017 44.9998C74.8017 44.9998 74.6017 45.2998 74.7017 45.4998C74.8017 47.0998 74.3017 48.5998 74.0017 50.0998C73.8017 50.7998 73.7017 51.5998 73.4017 52.4998C74.5017 52.0998 75.2017 51.3998 76.0017 50.8998C76.9017 50.2998 77.1017 49.3998 77.8017 48.4998C77.9017 48.6998 78.1017 48.8998 78.2017 49.1998C78.6017 48.4998 79.0017 47.7998 79.2017 46.9998C79.2017 46.7998 79.4017 46.5998 79.5017 46.5998C79.7017 46.5998 79.9017 46.7998 80.0017 46.8998C80.2017 47.2998 80.4016 47.7998 80.7017 48.1998C81.0017 46.3998 80.5017 44.6998 80.5017 42.8998C81.3017 42.5998 81.6017 43.4998 82.3017 43.3998C82.1017 40.8998 80.5017 39.0998 79.0017 37.0998C80.0017 36.8998 80.6017 37.5998 81.4017 37.5998C81.1017 36.9998 80.7017 36.5998 80.3017 36.0998C79.4017 35.1998 78.6017 34.2998 77.8017 33.3998C77.6017 33.1998 77.3017 32.8998 77.4017 32.4998C78.0017 32.5998 78.5017 32.6998 79.2017 32.7998C79.0017 32.2998 78.6017 32.0998 78.3017 31.8998C77.6017 31.4998 76.8017 31.0998 76.1017 30.7998C75.9017 30.6998 75.7017 30.6998 75.5017 30.5998C74.6017 30.1998 74.6017 29.8998 75.1017 29.0998C75.2017 28.8998 75.3017 28.6998 75.5017 28.4998C74.7017 28.4998 74.0017 28.6998 73.5017 29.1998C73.0017 29.6998 72.6017 30.2998 72.1017 30.8998C71.6017 30.3998 71.1017 29.8998 70.6017 29.2998C70.1017 28.6998 69.6017 28.1998 69.0017 27.4998C68.7017 28.5998 68.5016 29.6998 68.2016 30.7998C68.7016 31.1998 69.2016 31.5998 69.7016 32.0998C69.6017 32.2998 69.5017 32.4998 69.4017 32.7998C69.9017 33.2998 70.5017 33.8998 71.0017 34.4998C71.4017 35.0998 72.2017 35.3998 72.0017 36.4998C71.3017 35.7998 70.8017 34.9998 70.1017 34.3998C69.5017 33.7998 68.8017 33.1998 68.1017 32.5998C68.3017 32.3998 68.5017 32.2998 68.6017 32.1998C68.6017 31.3998 67.4017 32.0998 67.4017 31.2998C66.9017 31.0998 66.4017 30.7998 65.8017 30.5998C65.3017 30.3998 64.7016 30.1998 64.1017 29.9998C64.5017 29.5998 64.7016 29.1998 65.1017 28.7998C64.9016 28.7998 64.8016 28.6998 64.7016 28.6998C64.1017 28.7998 63.5017 28.8998 62.9017 29.0998C62.9017 29.2998 62.9017 29.4998 62.9017 29.6998C62.8017 29.7998 62.8017 29.7998 62.7017 29.8998C61.2017 30.2998 59.6017 30.5998 58.1017 30.8998C57.9016 30.8998 57.7017 30.8998 57.5017 30.9998C56.7017 30.9998 56.4016 30.7998 56.3017 29.8998C55.9016 30.0998 55.4017 30.1998 55.0017 30.3998C54.1017 30.7998 53.2017 31.1998 52.2017 31.1998C52.0017 31.1998 51.8017 31.1998 51.6017 31.2998C50.3017 31.5998 49.0017 31.8998 47.7017 31.9998C47.3017 31.9998 47.0017 32.1998 46.5017 32.2998C46.8017 32.6998 47.1017 32.9998 47.3017 33.2998C48.0017 34.0998 48.0017 34.1998 47.0017 34.5998C47.3017 35.1998 46.9017 35.2998 46.4017 35.4998C46.5017 35.9998 46.6017 36.4998 46.8017 37.0998C47.7017 36.4998 48.5017 35.9998 49.2017 35.4998C48.8017 35.3998 48.8017 35.4998 48.9017 35.4998ZM11.1017 41.3998C11.7017 41.1998 11.7017 41.1998 11.8017 40.4998C11.4017 40.8998 11.2017 41.0998 11.1017 41.3998ZM46.1017 33.6998C46.1017 33.2998 45.9016 33.0998 45.6017 33.0998C45.7016 33.2998 45.9016 33.4998 46.1017 33.6998Z" fill="black"/>
<path d="M45.9012 65.6994C46.3012 64.3994 46.5012 63.0994 46.5012 61.8994C47.0012 61.9994 47.0012 61.9994 47.6012 62.9994C48.1012 62.1994 48.0012 61.1994 48.7012 60.3994C49.2012 61.0994 49.1012 61.8994 49.8012 62.4994C50.0012 62.2994 50.2012 61.9994 50.4012 61.7994C50.9012 61.7994 51.0012 62.0994 51.2012 62.3994C51.4012 62.6994 51.5012 62.9994 51.8012 63.3994C52.0012 63.0994 52.1012 62.8994 52.2012 62.6994C52.3012 62.4994 52.4012 62.1994 52.6012 61.9994C53.1012 61.2994 53.5012 61.2994 54.0012 61.8994C54.2012 62.1994 54.5012 62.4994 54.7012 62.7994C55.0012 62.4994 55.3012 62.2994 55.5012 61.9994C55.8012 61.5994 56.2012 61.5994 56.7012 61.6994C57.0012 61.7994 57.4012 61.8994 57.7012 61.8994C58.2012 61.8994 58.4012 61.5994 58.2012 61.1994C58.1012 60.7994 57.9012 60.4994 57.7012 60.1994C57.5012 59.5994 57.2012 59.0994 57.5012 58.3994C57.6012 58.3994 57.7012 58.3994 57.7012 58.4994C57.9012 59.4994 58.2012 60.3994 59.0012 61.0994C59.4012 61.4994 59.6012 62.0994 59.9012 62.5994C60.7012 63.7994 61.4012 64.8994 62.2012 66.0994C62.3012 66.2994 62.5012 66.4994 62.8012 66.6994C63.5012 65.9994 64.2012 65.2994 64.9012 64.5994L65.0012 64.6994C64.4012 65.3994 63.7012 66.0994 63.0012 66.8994C63.4012 67.2994 63.6012 67.6994 63.9012 67.9994C64.3012 68.2994 64.2012 68.6994 64.2012 68.9994C64.2012 69.8994 64.2012 70.8994 64.2012 71.7994C64.2012 72.0994 64.3012 72.3994 64.3012 72.6994C64.9012 72.7994 65.1012 72.0994 65.8012 72.3994C65.2012 72.5994 64.6012 72.8994 64.4012 73.3994C64.3012 73.5994 64.5012 73.7994 64.5012 74.0994C65.1012 73.7994 65.5012 73.5994 66.0012 73.2994L66.1012 73.3994C65.9012 73.4994 65.8012 73.6994 65.6012 73.7994C64.9012 74.2994 64.3012 74.6994 63.8012 75.4994C63.5012 75.9994 63.0012 76.2994 62.5012 76.6994C62.3012 76.8994 62.0012 77.0994 61.8012 77.3994C61.4012 77.8994 61.5012 78.2994 62.2012 78.4994C62.3012 78.4994 62.3012 78.4994 62.4012 78.4994C62.5012 78.4994 62.5012 78.4994 62.7012 78.4994C62.8012 78.0994 62.9012 77.6994 63.0012 77.2994C63.4012 77.4994 63.4012 77.4994 63.3012 78.4994C63.7012 78.4994 64.1012 78.4994 64.5012 78.4994C64.6012 78.0994 64.7012 77.6994 64.8012 77.0994C65.4012 77.5994 64.9012 78.1994 65.2012 78.6994C65.5012 78.7994 65.7012 78.4994 65.7012 78.2994C66.0012 77.3994 66.3012 76.5994 66.6012 75.6994C67.0012 74.1994 67.3012 72.6994 67.6012 71.1994C67.7012 70.7994 67.8012 70.2994 67.9012 69.7994C68.0012 69.3994 68.2012 69.1994 68.6012 69.1994C69.3012 69.1994 70.0012 68.9994 70.5012 68.4994C70.8012 69.0994 70.7012 69.2994 70.3012 69.3994C69.9012 69.5994 69.4012 69.6994 69.0012 69.7994C68.6012 69.8994 68.4012 70.1994 68.3012 70.5994C67.9012 72.3994 67.6012 74.1994 67.2012 75.8994C67.0012 76.6994 66.6012 77.4994 66.3012 78.2994C66.0012 78.9994 65.5012 79.3994 64.8012 79.7994C64.6012 79.3994 64.2012 79.3994 63.8012 79.3994C63.2012 79.3994 62.6012 79.4994 62.0012 79.3994C60.5012 79.2994 60.4012 78.0994 61.0012 76.9994C61.2012 76.5994 61.5012 76.2994 61.8012 75.9994C62.0012 75.7994 62.2012 75.5994 62.4012 75.3994C62.6012 75.1994 62.9012 74.9994 63.1012 74.7994C63.6012 74.3994 63.8012 73.9994 63.6012 73.2994C63.4012 72.1994 63.2012 70.9994 63.0012 69.7994C62.9012 69.1994 62.8012 68.4994 62.7012 67.8994C62.7012 67.5994 62.6012 67.2994 62.4012 67.1994C60.8012 65.6994 59.6012 63.8994 58.5012 61.9994C57.9012 62.3994 57.2012 62.3994 56.5012 62.0994C56.2012 61.8994 55.9012 61.9994 55.6012 62.2994C55.5012 62.3994 55.4012 62.4994 55.3012 62.5994C54.5012 63.3994 54.4012 63.3994 53.6012 62.3994C53.5012 62.1994 53.3012 62.0994 53.1012 61.8994C52.5012 62.1994 52.4012 62.7994 52.2012 63.2994C51.8012 64.3994 51.3012 65.3994 51.8012 66.5994C52.5012 66.4994 53.0012 65.6994 53.8012 65.5994C53.4012 65.8994 53.1012 66.0994 52.7012 66.3994C51.7012 67.1994 51.7012 67.1994 51.8012 68.4994C51.9012 69.5994 52.0012 70.6994 52.1012 71.6994C52.1012 71.8994 52.1012 72.2994 51.9012 72.4994C51.5012 72.9994 51.0012 73.4994 50.5012 73.9994C50.2012 74.2994 49.9012 74.6994 49.8012 75.0994C49.5012 75.9994 49.9012 76.3994 50.9012 76.3994C51.1012 75.8994 51.3012 75.3994 51.6012 74.8994C51.6012 74.8994 51.8012 74.8994 52.0012 74.7994C51.8012 75.2994 51.7012 75.7994 51.5012 76.3994C51.9012 76.3994 52.1012 76.3994 52.4012 76.3994C52.7012 75.9994 52.4012 75.4994 52.9012 75.0994C53.0012 75.4994 53.0012 75.8994 53.1012 76.1994C53.7012 76.1994 54.1012 75.7994 54.5012 75.3994C54.0012 74.5994 54.3012 73.7994 54.4012 72.9994C54.5012 72.2994 54.6012 71.5994 54.6012 70.8994C54.6012 70.4994 54.7012 70.0994 54.8012 69.5994C55.4012 69.5994 55.9012 69.5994 56.5012 69.5994C56.4012 69.0994 56.0012 68.8994 55.8012 68.6994C55.7012 68.5994 55.6012 68.2994 55.6012 68.0994C55.8012 67.9994 56.0012 67.8994 56.2012 67.8994C56.6012 67.8994 56.9012 67.8994 57.4012 67.8994C57.2012 67.2994 57.0012 66.8994 56.8012 66.4994C57.2012 66.0994 57.5012 66.0994 57.9012 66.1994C59.3012 66.2994 59.4012 66.1994 59.3012 64.7994C59.3012 64.7994 59.3012 64.6994 59.4012 64.5994C59.5012 64.5994 59.8012 64.6994 59.8012 64.7994C60.2012 65.7994 59.6012 66.7994 58.5012 66.7994C58.2012 66.7994 57.9012 66.7994 57.5012 66.7994C57.7012 67.1994 57.8012 67.3994 57.9012 67.5994C58.0012 67.8994 58.4012 68.0994 58.1012 68.3994C57.9012 68.6994 57.6012 68.4994 57.4012 68.4994C57.2012 68.4994 57.0012 68.4994 56.6012 68.4994C57.0012 68.8994 57.3012 69.1994 57.5012 69.4994C57.6012 69.6994 57.7012 69.8994 57.7012 69.9994C57.5012 70.0994 57.3012 70.1994 57.1012 70.1994C56.7012 70.1994 56.3012 70.0994 55.9012 70.0994C55.3012 70.0994 55.2012 70.1994 55.1012 70.7994C55.0012 71.6994 54.8012 72.5994 54.8012 73.5994C54.8012 73.9994 54.8012 74.4994 54.9012 74.8994C55.0012 75.2994 54.9012 75.6994 54.5012 75.9994C54.0012 76.2994 53.6012 76.7994 53.1012 76.8994C52.0012 77.1994 50.8012 77.0994 49.7012 76.7994C49.2012 76.5994 49.0012 75.9994 49.0012 75.3994C49.0012 74.5994 49.5012 73.9994 50.1012 73.4994C50.4012 73.1994 50.7012 72.9994 51.0012 72.6994C51.4012 72.2994 51.4012 71.8994 51.4012 71.3994C51.3012 70.0994 51.2012 68.8994 51.1012 67.5994C51.0012 66.4994 51.0012 65.2994 51.0012 64.1994C51.0012 63.4994 50.8012 62.8994 50.4012 62.3994C50.1012 62.6994 49.9012 62.9994 49.7012 63.1994C49.0012 62.8994 49.0012 62.0994 48.5012 61.4994C48.4012 61.8994 48.2012 62.1994 48.1012 62.5994C48.0012 63.2994 48.0012 63.9994 48.0012 64.6994C48.0012 64.8994 47.9012 65.0994 47.9012 65.3994C47.2012 64.7994 47.4012 63.7994 46.8012 63.1994C46.4012 64.1994 46.6012 65.2994 46.1012 66.2994C45.6012 66.0994 45.2012 65.8994 44.7012 65.6994C44.7012 66.1994 44.7012 66.4994 44.7012 66.9994C44.2012 66.8994 43.8012 66.8994 43.3012 66.7994C43.0012 67.3994 43.3012 68.1994 42.8012 68.7994C42.5012 68.7994 42.1012 68.8994 41.8012 68.8994C41.7012 68.9994 41.7012 69.0994 41.7012 69.0994C41.6012 70.2994 41.4012 70.2994 40.4012 70.0994C40.3012 70.0994 40.2012 70.0994 40.0012 70.0994C40.0012 70.2994 40.0012 70.4994 40.0012 70.6994C40.0012 71.1994 40.0012 71.2994 39.4012 71.3994C39.0012 71.3994 38.7012 71.3994 38.1012 71.3994C38.3012 71.8994 38.5012 72.2994 38.7012 72.6994C38.8012 72.8994 38.9012 72.9994 39.0012 73.1994C39.1012 73.5994 39.0012 73.7994 38.6012 73.7994C38.2012 73.7994 37.7012 73.6994 37.1012 73.5994C37.4012 74.0994 37.5012 74.3994 37.7012 74.6994C37.8012 74.8994 38.0012 75.1994 38.2012 75.3994C38.5012 75.9994 38.4012 76.1994 37.7012 76.1994C37.2012 76.1994 36.7012 76.0994 36.1012 76.0994C36.1012 76.4994 36.2012 76.7994 36.2012 77.1994C36.2012 77.7994 36.2012 78.3994 36.1012 79.0994C36.1012 79.4994 35.8012 79.6994 35.4012 79.6994C34.5012 79.6994 33.5012 79.6994 32.5012 79.6994C32.2012 79.6994 31.9012 79.6994 31.7012 79.5994C30.8012 79.3994 30.5012 78.4994 30.9012 77.6994C31.1012 77.3994 31.2012 77.0994 31.4012 76.6994C31.2012 76.6994 31.0012 76.5994 30.8012 76.5994C30.2012 76.5994 29.5012 76.5994 28.9012 76.4994C27.9012 76.4994 27.3012 75.3994 28.1012 74.5994C28.7012 73.9994 29.3012 73.2994 29.9012 72.5994C29.8012 71.4994 29.7012 70.3994 29.5012 69.1994C29.4012 68.5994 29.4012 67.9994 29.3012 67.4994C29.3012 67.0994 29.4012 66.8994 29.9012 66.8994C30.2012 67.1994 30.2012 67.4994 30.2012 67.8994C30.3012 68.5994 30.4012 69.2994 30.4012 69.9994C30.4012 70.2994 30.5012 70.6994 31.0012 70.6994C30.7012 70.9994 30.3012 71.2994 30.6012 71.7994C30.8012 71.7994 30.9012 71.6994 31.1012 71.6994C31.1012 71.7994 31.1012 71.8994 31.1012 71.8994C30.5012 72.2994 30.4012 72.8994 30.6012 73.5994C30.6012 73.6994 30.6012 73.7994 30.6012 73.9994C30.5012 73.9994 30.3012 74.0994 30.2012 74.0994C29.9012 73.9994 29.6012 73.7994 29.3012 74.0994C28.9012 74.5994 28.3012 74.8994 28.1012 75.5994C28.1012 75.7994 28.2012 75.9994 28.4012 76.0994C28.6012 76.2994 29.0012 76.2994 29.2012 76.3994C29.5012 75.9994 29.5012 75.3994 29.9012 75.0994C30.3012 75.4994 29.7012 75.8994 29.9012 76.2994C30.1012 76.2994 30.5012 76.2994 30.7012 76.2994C31.1012 75.8994 30.7012 75.1994 31.3012 74.7994C31.3012 75.2994 31.4012 75.5994 31.4012 75.9994C32.2012 75.7994 32.3012 75.6994 32.2012 74.9994C31.9012 73.4994 31.7012 72.0994 31.7012 70.5994C31.7012 70.3994 31.6012 70.1994 31.6012 69.9994C31.5012 69.4994 31.4012 69.0994 31.4012 68.5994C31.4012 66.1994 31.0012 63.8994 30.6012 61.4994C30.5012 60.9994 30.5012 60.4994 30.5012 59.9994C30.5012 59.8994 30.6012 59.7994 30.7012 59.5994C31.1012 59.6994 31.1012 59.9994 31.1012 60.2994C31.2012 60.6994 31.2012 61.1994 31.3012 61.5994C31.7012 63.0994 31.9012 64.6994 32.0012 66.2994C32.2012 67.9994 32.5012 69.6994 32.8012 71.4994C33.7012 71.1994 34.3012 70.3994 35.3012 70.3994C35.2012 70.4994 35.0012 70.5994 34.9012 70.6994C34.4012 71.0994 33.8012 71.3994 33.3012 71.7994C32.9012 72.0994 32.8012 72.3994 33.1012 72.8994C33.7012 72.5994 34.2012 72.1994 34.8012 71.8994L34.9012 71.9994C34.3012 72.3994 33.8012 72.8994 33.1012 73.3994C33.2012 73.9994 33.3012 74.6994 33.4012 75.2994C33.5012 75.6994 33.4012 76.0994 33.1012 76.3994C32.8012 76.5994 32.5012 76.8994 32.3012 77.1994C32.1012 77.4994 31.8012 77.8994 31.7012 78.2994C31.5012 78.8994 31.7012 78.9994 32.5012 78.9994C32.5012 78.6994 32.6012 78.3994 32.6012 77.9994C33.2012 78.1994 32.8012 78.7994 33.2012 79.1994C33.4012 79.1994 33.8012 79.2994 34.2012 79.3994C34.2012 79.0994 34.1012 78.8994 34.1012 78.5994C34.1012 78.3994 34.2012 78.1994 34.4012 77.8994C34.5012 78.0994 34.6012 78.1994 34.6012 78.2994C34.6012 78.4994 34.6012 78.6994 34.6012 78.8994C34.6012 79.0994 34.8012 79.2994 35.0012 79.2994C35.1012 79.2994 35.3012 79.0994 35.4012 78.9994C35.6012 78.2994 35.6012 77.6994 35.4012 76.9994C35.3012 76.5994 35.2012 76.1994 35.3012 75.9994C35.5012 75.5994 36.0012 75.9994 36.3012 75.9994C36.6012 75.9994 36.9012 75.9994 37.3012 75.9994C37.0012 75.0994 36.2012 74.4994 36.2012 73.4994C36.8012 73.0994 37.5012 73.6994 38.2012 73.3994C37.9012 72.7994 37.6012 72.0994 37.2012 71.4994C37.8012 70.9994 38.5012 71.4994 39.2012 71.0994C39.2012 70.6994 39.1012 70.2994 39.1012 69.6994C39.7012 69.7994 40.2012 69.8994 40.8012 69.8994C40.9012 69.4994 40.9012 69.0994 41.0012 68.5994C41.4012 68.5994 41.9012 68.5994 42.4012 68.4994C42.4012 67.7994 42.4012 67.0994 42.4012 66.2994C42.9012 66.3994 43.3012 66.4994 43.8012 66.4994C43.8012 66.0994 43.8012 65.5994 43.7012 64.9994C44.1012 65.0994 44.4012 65.1994 44.7012 65.2994C45.3012 65.3994 45.5012 65.5994 45.9012 65.6994Z" fill="black"/>
<path d="M33.5 46.1995C33.3 45.7995 33 45.3995 32.8 44.8995C33.6 44.5995 34.4 44.8995 35.2 44.9995C35 44.6995 35 44.4995 34.9 44.2995C34.6 43.7995 34.2 43.2995 33.9 42.7995C33.8 42.6995 33.8 42.3995 33.9 42.2995C33.9 42.1995 34.2 42.1995 34.3 42.1995C34.7 42.2995 35 42.3995 35.4 42.4995C35.7 42.5995 36 42.6995 36.5 42.8995C36 41.8995 35 41.7995 34.3 40.9995C34.7 40.9995 34.9 40.8995 35 40.9995C35.8 41.4995 37 42.0995 37.6 43.4995C37.4 43.4995 37.2 43.6995 37.1 43.5995C36.7 43.4995 36.3 43.2995 35.9 43.1995C35.6 43.0995 35.3 42.9995 34.8 42.8995C35 43.4995 35.3 43.8995 35.6 44.3995C35.8 44.6995 36.1 45.0995 36.3 45.3995C36.4 45.5995 36.3 45.7995 36.4 46.0995C35.5 45.7995 34.8 45.5995 33.9 45.2995C34.2 45.9995 34.5 46.5995 34.7 47.1995C34.7 47.1995 34.6 47.2995 34.5 47.4995C33.7 47.1995 32.9 46.8995 32 46.5995C32.2 47.4995 32.7 48.1995 32.4 49.0995C31.8 49.0995 31.6 48.4995 31.1 48.2995C31 48.8995 30.9 49.4995 30.9 49.9995C30.5 50.1995 30.3 49.8995 30.1 49.7995C29.9 49.6995 29.7 49.3995 29.5 49.1995C28.9 49.8995 28.9 50.8995 28 51.1995C28.2 50.5995 28.5 49.9995 28.7 49.3995C29 48.5995 29.3 48.4995 30 48.8995C30.2 48.9995 30.4 49.0995 30.6 49.2995C30.8 48.5995 30.1 47.8995 30.4 47.0995C31.1 47.2995 31.4 47.8995 32 48.1995C32 47.2995 31 46.6995 31.1 45.6995C32 45.9995 32.8 46.2995 33.6 46.5995C33.5 46.2995 33.5 46.2995 33.5 46.1995Z" fill="black"/>
<path d="M26.4023 51.0994C26.0023 50.8994 26.0023 50.8994 25.7023 49.1994C24.9023 49.4994 25.0023 50.4994 24.2023 50.7994C24.0023 49.9994 24.5023 49.2994 24.4023 48.5994C23.5023 48.9994 23.3023 50.0994 22.2023 50.3994C22.5023 49.3994 22.7023 48.5994 22.9023 47.5994C21.9023 47.7994 21.6023 48.9994 20.5023 48.9994C20.5023 48.3994 20.9023 48.0994 21.1023 47.6994C21.3023 47.2994 21.6023 46.8994 21.6023 46.2994C21.3023 46.4994 21.0023 46.5994 20.8023 46.6994C20.5023 46.8994 20.2023 47.0994 19.9023 47.2994C19.8023 47.3994 19.6023 47.2994 19.5023 47.2994C19.4023 47.1994 19.4023 46.9994 19.5023 46.8994C19.7023 46.4994 19.9023 46.1994 20.0023 45.7994C20.2023 45.4994 20.3023 45.1994 20.5023 44.6994C19.5023 44.9994 18.9023 45.8994 17.9023 46.0994C17.9023 45.8994 17.9023 45.6994 18.0023 45.4994C18.3023 44.8994 18.6023 44.1994 18.9023 43.5994C19.0023 43.3994 19.2023 43.1994 19.1023 42.9994C19.0023 42.2994 19.5023 42.1994 19.9023 41.8994C20.1023 42.6994 19.6023 43.0994 19.3023 43.5994C19.0023 44.0994 18.7023 44.5994 18.4023 45.2994C19.4023 44.8994 20.0023 44.1994 20.8023 43.9994C21.1023 44.1994 21.1023 44.3994 21.0023 44.5994C20.9023 44.9994 20.7023 45.2994 20.5023 45.5994C20.3023 45.8994 20.2023 46.1994 20.0023 46.5994C20.8023 46.2994 21.3023 45.6994 22.1023 45.6994C22.3023 46.5994 21.6023 47.1994 21.4023 47.9994C21.8023 47.8994 22.0023 47.5994 22.3023 47.3994C22.6023 47.1994 22.8023 46.9994 23.2023 46.7994C23.6023 47.6994 23.0023 48.2994 23.1023 49.0994C23.7023 48.7994 24.0023 47.9994 24.8023 47.8994C24.8023 48.2994 24.9023 48.6994 24.9023 49.0994C25.3023 48.8994 25.6023 48.7994 26.1023 48.5994C26.2023 49.3994 26.3023 50.2994 26.4023 51.0994Z" fill="black"/>
<path d="M27.7031 38.2C28.1031 38.8 28.6031 39.1 29.0031 39.1C29.4031 39.1 29.9031 38.7 30.5031 38.4C30.1031 39.2 29.6031 39.6 28.9031 39.7C28.7031 39.7 28.4031 39.7 28.2031 39.8C27.6031 40.1 27.1031 40.1 26.6031 39.6C26.4031 39.4 26.0031 39.4 25.7031 39.4C25.2031 39.4 24.8031 39.2 24.7031 38.7C24.7031 38.6 24.7031 38.4 24.8031 38.1C25.0031 38.3 25.2031 38.4 25.4031 38.5C25.9031 38.9 26.7031 38.8 27.0031 38.3C27.2031 38 27.3031 37.7 27.0031 37.3C26.7031 36.9 26.5031 36.5 26.2031 36C26.8031 35.3 27.6031 35 28.4031 35C29.2031 35 29.5031 35.5 29.2031 36.2C28.9031 37.1 28.5031 37.8 27.7031 38.2Z" fill="black"/>
<path d="M53.5008 44.5C53.1008 44.4 52.7008 44.3 52.3008 44.2C52.4008 45.1 53.4008 45.3 53.6008 46.1C52.9008 46.4 52.3008 45.8 51.7008 46.1C51.7008 46.9 52.6008 47.1 52.8008 47.9C52.0008 47.7 51.3008 47.6 50.6008 47.4C50.8008 48.5 51.4008 49.1 51.9008 50.1C51.6008 50 51.4008 50 51.3008 49.9C50.6008 49.1 50.2008 48.2 49.8008 47.2C50.4008 46.8 50.9008 47.2 51.4008 47.1C51.2008 46.6 51.0008 46.2 50.8008 45.7C51.4008 45.7 51.8008 45.6 52.3008 45.6C52.3008 45.1 51.9008 44.9 51.7008 44.6C51.5008 44.3 51.2008 44.1 51.3008 43.6C51.8008 43.3 52.2008 43.9 52.7008 43.8C52.7008 42.8 51.7008 42.1 51.8008 41C52.5008 41.4 53.5008 43.7 53.5008 44.5Z" fill="black"/>
<path d="M18.6018 31.6996C17.4018 32.4996 16.6018 33.1996 16.2018 33.9996C16.6018 33.8996 17.1018 33.7996 17.7018 33.7996C17.5018 34.8996 16.6018 35.3996 16.2018 36.3996C16.8018 36.1996 17.3018 36.0996 17.8018 35.8996C17.8018 36.4996 17.4018 36.7996 17.2018 37.1996C17.0018 37.5996 16.7018 37.8996 16.4018 38.4996C16.8018 38.3996 17.1018 38.2996 17.3018 38.2996C17.7018 38.1996 18.0018 38.3996 17.9018 38.8996C17.9018 39.2996 17.7018 39.6996 17.7018 39.9996C17.3018 39.7996 17.3018 39.7996 17.4018 38.6996C16.8018 38.8996 16.3018 38.9996 15.7018 39.1996C15.8018 38.1996 16.6018 37.6996 16.9018 36.7996C16.4018 36.9996 15.9018 37.1996 15.4018 37.3996C15.3018 36.6996 15.9018 36.3996 16.1018 35.9996C16.4018 35.5996 16.7018 35.0996 17.0018 34.6996C16.4018 34.6996 15.9018 35.0996 15.4018 34.7996C15.4018 34.6996 15.4018 34.5996 15.5018 34.4996C16.2018 33.6996 17.0018 32.7996 17.7018 32.0996C17.9018 31.8996 18.2018 31.8996 18.4018 31.7996C18.3018 31.4996 18.5018 31.5996 18.6018 31.6996Z" fill="black"/>
<path d="M28.4007 29.2998C28.4007 29.5998 28.5007 29.7998 28.5007 30.0998C28.5007 30.6998 28.5007 31.3998 28.5007 31.9998C28.5007 32.6998 28.8007 33.0998 29.4007 33.4998C30.1007 33.9998 30.7007 34.5998 31.3007 35.2998C31.6007 35.5998 31.5007 35.9998 31.2007 36.1998C30.7007 35.5998 30.3007 35.0998 29.7007 34.5998C27.9007 32.8998 25.5007 33.1998 24.3007 35.3998C24.2007 35.5998 24.1007 35.7998 23.7007 35.8998C23.7007 35.6998 23.6007 35.4998 23.7007 35.2998C24.1007 34.0998 25.0007 33.2998 26.1007 33.0998C27.1007 32.8998 27.5007 32.2998 27.6007 31.3998C27.6007 30.8998 27.6007 30.3998 27.6007 29.8998C27.7007 29.3998 27.7007 29.3998 28.4007 29.2998Z" fill="black"/>
<path d="M31.5 66.9994C30.8 66.9994 30.4 66.5994 29.8 66.2994C29.6 66.3994 29.4 66.4994 29.3 66.5994C27.1 65.2994 25.6 63.3994 24 61.3994C24 61.2994 24 61.1994 24.1 60.8994C24.4 61.0994 24.5 61.2994 24.7 61.4994C25.6 62.4994 26.4 63.4994 27.2 64.3994C27.5 64.7994 27.9 65.2994 28.5 64.9994C28.6 64.9994 28.7 65.0994 28.8 65.0994C29.6 65.4994 30.4 65.9994 31.1 66.3994C31.3 66.4994 31.4 66.6994 31.5 66.9994Z" fill="black"/>
<path d="M41.0008 37.5996C40.3008 38.0996 39.9008 37.4996 39.4008 37.3996C39.4008 37.2996 39.3008 37.2996 39.2008 37.1996C39.4008 37.0996 39.5008 36.9996 39.7008 36.8996C39.1008 36.1996 38.2008 35.9996 37.8008 34.9996C38.1008 34.8996 38.4008 34.7996 38.7008 34.7996C38.3008 34.1996 37.3008 33.9996 37.3008 33.0996C38.4008 33.7996 39.4008 34.5996 40.3008 35.4996C40.3008 35.4996 40.3008 35.6996 40.3008 35.8996C39.9008 35.7996 39.6008 35.6996 39.2008 35.6996C39.4008 36.1996 39.8008 36.2996 40.1008 36.5996C40.5008 36.7996 40.8008 37.1996 41.0008 37.5996Z" fill="black"/>
<path d="M42.4031 51.9994C42.1031 52.1994 41.8031 52.3994 41.5031 52.5994C41.5031 52.8994 41.5031 53.1994 41.5031 53.4994C41.5031 53.8994 41.4031 54.0994 40.9031 54.0994C40.2031 54.0994 40.1031 54.3994 40.4031 54.9994C40.5031 55.1994 40.6031 55.3994 40.7031 55.6994C40.8031 56.0994 40.7031 56.2994 40.4031 56.2994C39.7031 56.2994 38.9031 56.2994 38.2031 56.2994C38.4031 55.8994 38.4031 55.8994 40.0031 55.5994C39.8031 54.9994 39.6031 54.4994 39.4031 53.9994C39.7031 53.3994 40.3031 53.4994 40.8031 53.2994C40.8031 52.9994 40.8031 52.6994 40.9031 52.3994C41.0031 51.7994 41.1031 51.6994 41.7031 51.7994C41.9031 51.7994 42.2031 51.7994 42.4031 51.8994V51.9994Z" fill="black"/>
<path d="M30.1005 58.2C30.1005 58.3 30.0005 58.5 30.0005 58.7C29.3005 58.8 28.9005 58.2 28.4005 58C27.8005 58.4 27.9005 59.3 27.1005 59.6C26.5005 59.1 27.0005 58.4 26.5005 57.9C25.8005 58 25.6005 59 24.8005 59C24.7005 58.3 25.1005 57.2 25.7005 56.5C26.1005 56.8 25.8005 57 25.7005 57.3C25.6005 57.6 25.4005 57.8 25.4005 58.2C25.8005 57.8 26.3005 57.5 26.7005 57.1C27.2005 57.6 26.9005 58.2 27.2005 58.9C27.6005 58.3 27.8005 57.9 28.1005 57.4C28.8005 57.6 29.4005 57.9 30.1005 58.2Z" fill="black"/>
<path d="M22.5016 24.1002C22.8016 23.9002 23.0016 23.7002 23.3016 23.5002C23.8016 24.1002 23.8016 24.3002 23.1016 24.5002C23.0016 24.5002 22.9016 24.5002 22.9016 24.6002C22.6016 25.3002 22.0016 25.2002 21.4016 25.1002C21.0016 25.4002 20.8016 26.0002 20.3016 26.2002C20.1016 25.8002 20.3016 25.6002 20.5016 25.4002C20.8016 25.0002 21.2016 24.6002 20.5016 24.0002C20.9016 23.9002 21.1016 23.9002 21.3016 23.9002C21.4016 23.7002 21.5016 23.5002 21.7016 23.2002C22.0016 23.6002 22.2016 23.9002 22.5016 24.1002Z" fill="black"/>
<path d="M37.6 24.7002C38.4 25.3002 38.4 25.6002 37.9 26.4002C37.7 26.0002 37.7 26.0002 37.6 25.5002C37 25.5002 36.5 25.5002 36 25.5002C35.8 25.1002 35.5 24.7002 35.5 24.4002C35.5 24.0002 35.7 23.6002 35.9 23.2002C36.5 23.5002 36.1 24.1002 36.5 24.5002C36.8 24.3002 37.2 24.1002 37.6 23.9002C37.6 24.2002 37.6 24.5002 37.6 24.7002Z" fill="black"/>
<path d="M42.6026 60.6002C42.1026 61.2002 42.3026 61.9002 42.1026 62.7002C41.7026 62.0002 41.9026 60.7002 42.5026 59.8002C42.8026 60.0002 43.1026 60.3002 43.5026 60.6002C43.7026 60.3002 43.8026 60.0002 44.0026 59.8002C44.3026 59.4002 44.6026 59.0002 44.9026 58.6002C45.6026 57.9002 45.7026 57.9002 46.8026 58.2002C46.7026 58.5002 46.4026 58.5002 46.2026 58.5002C45.5026 58.4002 45.1026 58.8002 44.8026 59.4002C44.6026 59.8002 44.4026 60.2002 44.1026 60.6002C43.7026 61.3002 43.6026 61.3002 42.9026 60.8002C42.8026 60.7002 42.7026 60.7002 42.6026 60.6002Z" fill="black"/>
<path d="M32.4031 31.7998C33.0031 31.7998 33.4031 32.0998 33.4031 32.5998C33.4031 33.1998 32.9031 33.8998 32.3031 33.8998C31.7031 33.8998 31.3031 33.3998 31.2031 32.6998C31.2031 32.2998 31.7031 31.8998 32.4031 31.7998Z" fill="black"/>
<path d="M30.2031 39.7998C29.1031 41.5998 26.7031 41.6998 25.2031 40.1998C25.4031 40.0998 25.6031 39.9998 25.7031 39.9998C25.9031 39.9998 26.1031 40.0998 26.3031 40.1998C27.4031 40.8998 28.4031 40.6998 29.5031 40.0998C29.6031 39.9998 29.8031 39.9998 30.2031 39.7998Z" fill="black"/>
<path d="M22.3008 31.8998C22.3008 31.2998 22.9008 30.7998 23.4008 30.7998C23.9008 30.7998 24.3008 31.0998 24.3008 31.5998C24.3008 32.1998 23.8008 32.8998 23.3008 32.8998C22.9008 32.8998 22.4008 32.2998 22.3008 31.8998Z" fill="black"/>
<path d="M62.2023 34C62.1023 35.2 61.8023 35.4 60.2023 35.7C60.2023 36 60.1023 36.3 60.0023 36.6C59.4023 36.6 59.5023 36.1 59.5023 35.8C59.5023 35.5 59.7023 35.1 60.1023 35.1C61.1023 35.3 61.6023 34.8 62.0023 34.1L62.2023 34Z" fill="black"/>
<path d="M40.2016 66.1994C40.3016 65.8994 40.3016 65.6994 40.4016 65.3994C40.9016 65.6994 41.4016 65.9994 41.9016 66.2994C41.6016 66.7994 41.2016 66.3994 40.8016 66.3994C40.6016 66.5994 40.4016 66.7994 40.2016 67.0994C39.7016 66.5994 39.2016 66.2994 39.1016 65.3994C39.4016 65.5994 39.5016 65.6994 39.7016 65.8994C39.9016 65.8994 40.0016 65.9994 40.2016 66.1994Z" fill="black"/>
<path d="M22.8 29.2998C22.5 29.9998 21.9 30.3998 21.3 30.8998C21.2 30.8998 21.1 30.8998 21 30.8998C21.1 30.1998 21.4 29.8998 22.8 29.2998Z" fill="black"/>
<path d="M12.2031 45.7C12.3031 45.5 12.3031 45.3 12.4031 45.3C13.3031 44.6 14.3031 43.9 15.2031 43.1C15.3031 43.1 15.4031 43.1 15.7031 43C14.4031 44 13.5031 44.9 12.2031 45.7Z" fill="black"/>
<path d="M32.9023 30.6996C33.3023 30.1996 33.7023 30.3996 34.0023 30.5996C34.4023 30.7996 34.6023 31.1996 34.6023 31.6996C34.0023 31.3996 33.5023 30.9996 32.9023 30.6996Z" fill="black"/>
<path d="M55.1008 66.2998C54.2008 67.0998 53.2008 67.9998 52.3008 68.7998C52.5008 68.0998 53.8008 66.8998 55.1008 66.2998Z" fill="black"/>
<path d="M23.4023 56.1996C23.8023 55.2996 24.9023 54.3996 25.9023 54.0996C25.0023 54.7996 24.2023 55.3996 23.4023 56.1996Z" fill="black"/>
<path d="M22.7031 55.2C23.5031 54.6 24.2031 53.8 25.2031 53.5C24.4031 54.1 23.6031 54.8 22.8031 55.4C22.8031 55.3 22.7031 55.3 22.7031 55.2Z" fill="black"/>
<path d="M56.5031 60.5C56.0031 60.1 55.8031 59.6 55.7031 59C56.3031 59.2 56.4031 59.4 56.5031 60.5Z" fill="black"/>
<path d="M39.2031 44.6994C39.4031 43.7994 40.1031 43.5994 40.8031 43.3994C40.2031 43.7994 39.7031 44.1994 39.2031 44.6994Z" fill="black"/>
<path d="M32.0016 42.2998C31.3016 42.7998 30.7016 43.1998 30.1016 43.5998C30.3016 42.9998 30.8016 42.5998 32.0016 42.2998Z" fill="black"/>
<path d="M14.6023 42.2998C14.5023 42.3998 14.4023 42.5998 14.3023 42.6998C13.7023 43.1998 13.1023 43.5998 12.4023 44.1998C12.7023 43.5998 13.8023 42.6998 14.6023 42.2998Z" fill="black"/>
<path d="M37.3 27.7998C36.7 28.2998 36.1 28.7998 35.5 29.2998C35.9 28.4998 36.5 27.9998 37.3 27.7998Z" fill="black"/>
<path d="M34.9023 28.0999C35.8023 27.0999 36.2023 26.7999 36.7023 26.9999C36.2023 27.3999 35.6023 27.6999 34.9023 28.0999Z" fill="black"/>
<path d="M55.3 60.6994C54.7 60.1994 54.7 60.1994 54.5 59.3994C54.7 59.3994 54.9 59.3994 54.9 59.4994C55.1 59.7994 55.3 60.0994 55.3 60.6994Z" fill="black"/>
<path d="M62.2031 65.5C62.7031 65 63.1031 64.6 63.7031 64C63.5031 64.6 63.2031 64.9 62.4031 65.6L62.2031 65.5Z" fill="black"/>
<path d="M31.5031 40.7002C31.6031 40.9002 31.6031 41.0002 31.6031 41.0002C31.2031 41.3002 30.7031 41.7002 30.3031 42.0002L30.2031 41.9002C30.6031 41.5002 31.0031 41.1002 31.5031 40.7002Z" fill="black"/>
<path d="M39.7016 42.2998C39.3016 42.6998 39.0016 42.9998 38.6016 43.4998C38.7016 42.7998 38.9016 42.6998 39.7016 42.2998Z" fill="black"/>
<path d="M39.7031 42.3C39.9031 41.8 40.3031 41.6 40.8031 41.5C40.8031 41.6 40.9031 41.6 40.9031 41.7C40.5031 41.9 40.1031 42.1 39.7031 42.3Z" fill="black"/>
<path d="M75 40.3994C74.7 40.7994 74.4 41.0994 74.1 41.4994L74 41.3994C74.2 40.8994 74.5 40.5994 75 40.3994Z" fill="black"/>
<path d="M14.7031 42.2994C14.8031 41.9994 15.0031 41.8994 15.3031 41.8994C15.3031 42.3994 14.9031 42.2994 14.7031 42.2994Z" fill="black"/>
<path d="M75 40.4002C75.2 40.2002 75.4 40.0002 75.6 39.7002C75.6 40.3002 75.3 40.3002 75 40.4002Z" fill="black"/>
<path d="M35.8008 71.4998C36.0008 71.3998 36.1008 71.3998 36.2008 71.2998V71.3998C36.0008 71.4998 35.9008 71.4998 35.8008 71.5998V71.4998Z" fill="black"/>
<path d="M22.9031 31.6998C23.0136 31.6998 23.1031 31.6103 23.1031 31.4998C23.1031 31.3893 23.0136 31.2998 22.9031 31.2998C22.7927 31.2998 22.7031 31.3893 22.7031 31.4998C22.7031 31.6103 22.7927 31.6998 22.9031 31.6998Z" fill="white"/>
<path d="M31.8016 32.6998C31.912 32.6998 32.0016 32.6103 32.0016 32.4998C32.0016 32.3893 31.912 32.2998 31.8016 32.2998C31.6911 32.2998 31.6016 32.3893 31.6016 32.4998C31.6016 32.6103 31.6911 32.6998 31.8016 32.6998Z" fill="white"/>
<path d="M27.4023 36.2996C27.6023 36.0996 27.8023 35.9996 28.0023 35.9996C28.1023 35.9996 28.2023 35.9996 28.3023 35.9996C28.4023 35.9996 28.5023 35.9996 28.5023 35.8996C28.5023 35.7996 28.5023 35.6996 28.4023 35.6996C28.3023 35.6996 28.1023 35.5996 28.0023 35.5996C27.7023 35.5996 27.4023 35.6996 27.1023 35.9996C27.0023 36.0996 27.0023 36.1996 27.1023 36.1996C27.2023 36.2996 27.3023 36.3996 27.4023 36.2996Z" fill="white"/>
<path d="M47.6016 23.5998C48.0016 23.2998 48.3016 23.0998 48.7016 22.8998C49.3016 22.4998 49.7016 21.8998 49.9016 21.1998C50.0016 20.8998 50.0016 20.5998 50.1016 20.2998C50.3016 20.5998 50.2016 20.8998 50.2016 21.1998C50.2016 21.4998 50.1016 21.6998 50.2016 21.9998C50.2016 22.3998 50.5016 22.6998 50.9016 22.7998C51.1016 22.7998 51.2016 22.8998 51.5016 22.9998C51.4016 23.0998 51.3016 23.1998 51.3016 23.2998C50.5016 23.6998 50.2016 24.3998 50.2016 25.2998C50.2016 25.5998 50.2016 25.9998 50.1016 26.2998C50.1016 26.3998 50.0016 26.4998 49.9016 26.6998C49.8016 26.4998 49.8016 26.2998 49.8016 26.1998C49.8016 25.8998 49.8016 25.5998 49.8016 25.2998C49.8016 24.8998 49.7016 24.5998 49.3016 24.4998C48.9016 24.3998 48.5016 24.1998 48.1016 23.9998C47.9016 23.7998 47.8016 23.6998 47.6016 23.5998ZM49.8016 22.2998C49.6016 22.4998 49.4016 22.6998 49.1016 22.8998C48.9016 23.0998 48.6016 23.2998 48.3016 23.4998C48.9016 23.6998 49.3016 23.8998 49.8016 24.0998C50.1016 23.6998 50.4016 23.3998 50.6016 22.9998C50.4016 22.8998 50.3016 22.7998 50.1016 22.6998C50.0016 22.5998 49.9016 22.3998 49.8016 22.2998Z" fill="black"/>
<path d="M75.5 59.5998C75.9 59.2998 76.2 59.0998 76.6 58.8998C77.2 58.4998 77.6 57.8998 77.8 57.1998C77.9 56.8998 77.9 56.5998 78 56.2998C78.2 56.5998 78.1 56.8998 78.1 57.1998C78.1 57.4998 78 57.6998 78.1 57.9998C78.1 58.3998 78.4 58.6998 78.8 58.7998C79 58.7998 79.1 58.8998 79.4 58.9998C79.3 59.0998 79.2 59.1998 79.2 59.2998C78.4 59.6998 78.1 60.3998 78.1 61.2998C78.1 61.5998 78.1 61.9998 78 62.2998C78 62.3998 77.9 62.4998 77.8 62.6998C77.7 62.4998 77.7 62.2998 77.7 62.1998C77.7 61.8998 77.7 61.5998 77.7 61.2998C77.7 60.8998 77.6 60.5998 77.2 60.4998C76.8 60.3998 76.4 60.1998 76 59.9998C75.8 59.7998 75.7 59.6998 75.5 59.5998ZM77.7 58.2998C77.5 58.4998 77.3 58.6998 77 58.8998C76.8 59.0998 76.5 59.2998 76.2 59.4998C76.8 59.6998 77.2 59.8998 77.7 60.0998C78 59.6998 78.3 59.3998 78.5 58.9998C78.3 58.8998 78.2 58.7998 78 58.6998C77.9 58.5998 77.8 58.4998 77.7 58.2998Z" fill="black"/>
<path d="M10.8008 19.9992C11.2008 19.6992 11.5008 19.4992 11.9008 19.2992C12.5008 18.8992 12.9008 18.2992 13.1008 17.5992C13.2008 17.2992 13.2008 16.9992 13.3008 16.6992C13.5008 16.9992 13.4008 17.2992 13.4008 17.5992C13.4008 17.8992 13.3008 18.0992 13.4008 18.3992C13.4008 18.7992 13.7008 19.0992 14.1008 19.1992C14.3008 19.1992 14.4008 19.2992 14.7008 19.3992C14.6008 19.4992 14.5008 19.5992 14.5008 19.6992C13.7008 20.0992 13.4008 20.7992 13.4008 21.6992C13.4008 21.9992 13.4008 22.3992 13.3008 22.6992C13.3008 22.7992 13.2008 22.8992 13.1008 23.0992C13.0008 22.8992 13.0008 22.6992 13.0008 22.5992C13.0008 22.2992 13.0008 21.9992 13.0008 21.6992C13.0008 21.2992 12.9008 20.9992 12.5008 20.8992C12.1008 20.7992 11.7008 20.5992 11.3008 20.3992C11.0008 20.1992 10.9008 20.0992 10.8008 19.9992ZM13.0008 18.6992C12.8008 18.8992 12.6008 19.0992 12.3008 19.2992C12.1008 19.4992 11.8008 19.6992 11.5008 19.8992C12.1008 20.0992 12.5008 20.2992 13.0008 20.4992C13.3008 20.0992 13.6008 19.7992 13.8008 19.3992C13.6008 19.2992 13.5008 19.1992 13.3008 19.0992C13.2008 18.9992 13.1008 18.7992 13.0008 18.6992Z" fill="black"/>
<path d="M2.10156 40.3996C2.50156 40.0996 2.80156 39.8996 3.20156 39.6996C3.80156 39.2996 4.20156 38.6996 4.40156 37.9996C4.50156 37.6996 4.50156 37.3996 4.60156 37.0996C4.80156 37.3996 4.70156 37.6996 4.70156 37.9996C4.70156 38.2996 4.60156 38.4996 4.70156 38.7996C4.70156 39.1996 5.00156 39.4996 5.40156 39.5996C5.60156 39.5996 5.70156 39.6996 6.00156 39.7996C5.90156 39.8996 5.80156 39.9996 5.80156 40.0996C5.00156 40.4996 4.70156 41.1996 4.70156 42.0996C4.70156 42.3996 4.70156 42.7996 4.60156 43.0996C4.60156 43.1996 4.50156 43.2996 4.40156 43.4996C4.30156 43.2996 4.30156 43.0996 4.30156 42.9996C4.30156 42.6996 4.30156 42.3996 4.30156 42.0996C4.30156 41.6996 4.20156 41.3996 3.80156 41.2996C3.40156 41.1996 3.00156 40.9996 2.60156 40.7996C2.40156 40.5996 2.30156 40.4996 2.10156 40.3996ZM4.30156 39.0996C4.10156 39.2996 3.90156 39.4996 3.60156 39.6996C3.40156 39.8996 3.10156 40.0996 2.80156 40.2996C3.40156 40.4996 3.80156 40.6996 4.30156 40.8996C4.60156 40.4996 4.90156 40.1996 5.10156 39.7996C4.90156 39.6996 4.80156 39.5996 4.60156 39.4996C4.50156 39.3996 4.40156 39.1996 4.30156 39.0996Z" fill="black"/>
<path d="M21.1016 69.9992C21.5016 69.6992 21.8016 69.4992 22.2016 69.2992C22.8016 68.8992 23.2016 68.2992 23.4016 67.5992C23.5016 67.2992 23.5016 66.9992 23.6016 66.6992C23.8016 66.9992 23.7016 67.2992 23.7016 67.5992C23.7016 67.8992 23.6016 68.0992 23.7016 68.3992C23.7016 68.7992 24.0016 69.0992 24.4016 69.1992C24.6016 69.1992 24.7016 69.2992 25.0016 69.3992C24.9016 69.4992 24.8016 69.5992 24.8016 69.6992C24.0016 70.0992 23.7016 70.7992 23.7016 71.6992C23.7016 71.9992 23.7016 72.3992 23.6016 72.6992C23.6016 72.7992 23.5016 72.8992 23.4016 73.0992C23.3016 72.8992 23.3016 72.6992 23.3016 72.5992C23.3016 72.2992 23.3016 71.9992 23.3016 71.6992C23.3016 71.2992 23.2016 70.9992 22.8016 70.8992C22.4016 70.7992 22.0016 70.5992 21.6016 70.3992C21.4016 70.1992 21.3016 70.0992 21.1016 69.9992ZM23.3016 68.6992C23.1016 68.8992 22.9016 69.0992 22.6016 69.2992C22.4016 69.4992 22.1016 69.6992 21.8016 69.8992C22.4016 70.0992 22.8016 70.2992 23.3016 70.4992C23.6016 70.0992 23.9016 69.7992 24.1016 69.3992C23.9016 69.2992 23.8016 69.1992 23.6016 69.0992C23.5016 69.0992 23.4016 68.8992 23.3016 68.6992Z" fill="black"/>
</svg>
