<svg width="90" height="90" viewBox="0 0 90 90" fill="none" xmlns="http://www.w3.org/2000/svg">
<path d="M67.198 19.3997C66.698 21.1997 65.998 22.9997 65.198 24.6997C62.898 29.6997 59.698 34.3997 56.598 38.8997C53.698 43.0997 50.798 47.3997 47.798 51.5997C47.098 52.5997 46.398 53.6997 45.298 54.3997C43.898 55.3997 42.198 55.6997 40.698 56.3997C36.798 58.1997 34.598 62.2997 32.598 66.0997C31.398 68.4997 30.198 70.8997 28.998 73.1997C28.298 74.4997 26.898 77.5997 24.898 77.2997C22.498 76.8997 24.198 73.9997 24.798 72.8997C27.098 68.6997 29.398 64.4997 30.998 59.9997C31.898 57.5997 32.598 55.0997 33.098 52.4997C33.398 51.0997 33.598 49.6997 33.998 48.3997C34.698 46.3997 35.998 44.7997 37.198 43.0997C42.998 34.8997 47.498 25.6997 53.198 17.4997C54.298 15.8997 55.498 14.2997 56.798 12.6997C58.698 10.3997 61.098 7.9997 63.998 8.0997C64.798 8.0997 65.498 8.2997 66.098 8.7997C66.598 9.1997 66.898 9.6997 67.198 10.2997C68.598 13.2997 68.098 16.4997 67.198 19.3997Z" fill="white"/>
<path d="M67.1969 19.3993C66.6969 21.1993 65.9969 22.9993 65.1969 24.6993C64.6969 24.4993 64.1969 24.0993 63.6969 23.7993C61.3969 22.3993 58.9969 20.8993 56.6969 19.4993C55.5969 18.7993 54.4969 18.0993 53.2969 17.5993C54.3969 15.9993 55.5969 14.3993 56.8969 12.7993C58.7969 10.4993 61.1969 8.09931 64.0969 8.19931C64.8969 8.19931 65.5969 8.39931 66.1969 8.89931C66.6969 9.29931 66.9969 9.79931 67.2969 10.3993C68.5969 13.2993 68.0969 16.4993 67.1969 19.3993Z" fill="#BBBBBA"/>
<path d="M45.6993 47.6001C46.7993 46.8001 47.5993 45.7001 48.2993 44.5001C50.1993 41.5001 51.7993 38.2001 53.0993 34.9001C51.8993 34.8001 50.6993 35.5001 49.8993 36.5001C49.0993 37.5001 48.5993 38.6001 47.8993 39.6001C47.0993 40.7001 46.1993 41.7001 45.0993 42.5001C44.0993 43.2001 42.3993 43.6001 41.5993 44.5001C39.7993 46.7001 43.8993 48.8001 45.6993 47.6001Z" fill="#BBBBBA"/>
<path d="M68.6986 14.8C68.7986 17.4 67.8986 19.4 67.0986 21.4C65.8986 24.3 64.3986 27 62.4986 29.5C60.5986 32.2 58.7986 34.9 57.1986 37.8C55.6986 40.5 53.9986 43 52.3986 45.5C51.0986 47.6 49.7986 49.8 48.4986 51.9C47.5986 53.3 46.4986 54.8 44.8986 55.5C44.3986 55.7 43.7986 56 43.2986 56.2C41.1986 57 39.5986 58.3 38.1986 60C37.1986 61.3 36.1986 62.7 35.2986 64.1C33.9986 65.9 32.5986 67.7 31.3986 69.6C29.7986 72.2 28.3986 74.9 26.9986 77.6C26.5986 78.3 26.2986 79 25.4986 79.5C24.7986 80 24.1986 80.8 23.5986 81.4C22.5986 82.3 21.6986 82 21.3986 80.7C21.2986 80.1 21.3986 79.4 21.5986 78.8C21.9986 77.8 22.5986 76.9 23.1986 76C24.6986 74.1 25.5986 71.9 26.6986 69.8C27.3986 68.4 28.0986 67 28.8986 65.7C30.7986 62.2 32.5986 58.7 32.8986 54.7C32.9986 53.3 32.7986 52 32.7986 50.6C32.7986 50 32.8986 49.4 33.0986 48.9C33.7986 47.6 34.5986 46.5 35.3986 45.2C38.1986 40.9 40.8986 36.5 43.6986 32.2C44.2986 31.3 44.8986 30.4 45.4986 29.5C47.7986 25.8 50.0986 22.1 52.4986 18.5C54.1986 16.1 55.9986 13.7 58.0986 11.5C59.6986 9.80002 61.6986 8.40002 64.2986 8.20002C65.4986 8.10002 66.1986 8.40002 66.8986 9.30002C68.0986 11 68.6986 13 68.6986 14.8ZM26.0986 75.8C27.3986 73.5 28.5986 71.4 29.8986 69.3C31.6986 66.4 33.7986 63.7 35.5986 60.8C37.4986 57.8 39.9986 55.5 43.3986 54.4C43.7986 54.2 44.2986 54 44.5986 53.7C47.8986 50.1 50.4986 45.8 53.0986 41.7C53.8986 40.4 54.6986 39.3 55.3986 38C57.6986 33.6 60.2986 29.2 62.9986 25C63.1986 24.8 63.1986 24.5 63.2986 24.3C61.0986 22.8 58.9986 21.3 56.8986 19.8C56.6986 19.6 56.3986 19.5 56.0986 19.4C52.6986 18.1 52.8986 18.5 51.3986 20.9C49.6986 23.6 47.9986 26.2 46.2986 28.9C45.0986 30.8 43.9986 32.7 42.7986 34.5C42.1986 35.5 41.5986 36.5 40.8986 37.5C38.7986 40.8 36.6986 44.2 34.4986 47.4C33.4986 48.8 33.1986 50.3 33.3986 52C33.6986 54.6 33.1986 57.1 32.1986 59.5C31.2986 61.8 30.0986 63.9 28.9986 66.1C27.5986 69 26.0986 71.9 24.6986 74.8C24.5986 74.9 24.6986 75.1 24.5986 75.4C25.1986 75.5 25.5986 75.6 26.0986 75.8ZM66.3986 19.7C67.8986 16.5 68.5986 16.1 67.6986 12.9C66.5986 8.90002 65.0986 8.00002 61.3986 9.90002C58.0986 11.6 56.0986 14.6 53.8986 17.8C56.7986 18.2 58.6986 20 60.7986 21.5C61.7986 22.2 62.8986 23 64.2986 23.4C64.7986 22.7 65.1986 21.9 65.6986 21.2L66.3986 19.7Z" fill="black"/>
<path d="M55.4003 49.9999C55.3003 50.2999 55.2003 50.5999 54.9003 50.8999C53.4003 52.4999 52.0003 54.0999 50.4003 55.4999C48.0003 57.4999 46.0003 59.6999 44.5003 62.3999C43.5003 64.1999 42.5003 65.9999 41.4003 67.9999C41.2003 67.6999 40.9003 67.3999 41.0003 67.0999C41.1003 66.3999 41.3003 65.6999 41.7003 65.0999C42.5003 63.5999 43.5003 62.0999 44.4003 60.6999C45.7003 58.6999 47.2003 56.8999 49.1003 55.3999C51.0003 53.8999 52.7003 52.2999 54.1003 50.2999C54.5003 49.8999 54.8003 49.4999 55.4003 49.9999Z" fill="#F15748"/>
<path d="M55.4 8.5C56 9.3 55.6 9.7 55.3 10.2C53.7 12.4 52.1 14.5 50.5 16.7C48.3 19.6 46.1 22.5 43.9 25.4C43.1 26.4 42.4 27.4 41.2 28.2C41.1 27.7 41 27.4 41 27.1C41.1 26.8 41.3 26.6 41.5 26.4C43.2 24.2 44.9 22.1 46.6 19.9C47.4 18.9 48.2 18 49 17C50.9 14.5 52.7 11.9 54.6 9.4C54.8 9.1 55.1 8.8 55.4 8.5Z" fill="#F15748"/>
<path d="M48.3988 10.0996C45.8988 13.3996 43.7988 16.8996 41.0988 19.9996C40.3988 19.6996 40.2988 19.3996 40.6988 18.8996C41.6988 17.5996 42.6988 16.1996 43.6988 14.8996C44.4988 13.7996 45.2988 12.6996 46.0988 11.5996C46.6988 10.8996 47.2988 10.1996 48.3988 10.0996Z" fill="#F15748"/>
<path d="M48.3999 63.8004C48.3999 63.5004 48.2999 63.2004 48.3999 63.0004C48.5999 62.6004 48.8999 62.3004 49.1999 62.0004C50.8999 60.5004 52.4999 58.9004 54.1999 57.4004C54.7999 56.9004 55.3999 56.6004 56.2999 56.4004C56.1999 56.7004 56.2999 57.1004 56.0999 57.2004C55.4999 57.7004 54.8999 58.2004 54.2999 58.7004C52.7999 60.1004 51.2999 61.6004 49.6999 63.0004C49.3999 63.3004 48.9999 63.6004 48.6999 63.9004C48.5999 63.9004 48.4999 63.9004 48.3999 63.8004Z" fill="#F15748"/>
<path d="M48.7977 31C50.3977 31.9 52.0977 32.8 53.6977 33.7C53.6977 35.1 52.9977 36.3 52.2977 37.4C50.3977 40.6 48.3977 43.8 46.3977 47C45.3977 48.7 45.1977 48.7 43.3977 47.8C42.5977 47.4 41.7977 47 40.9977 46.6C40.2977 46.3 39.7977 45.8 39.5977 45C42.6977 40.5 45.6977 35.9 48.7977 31ZM48.8977 32.1C45.8977 36.6 43.0977 40.9 40.2977 45.3C41.6977 46.1 42.8977 46.8 44.1977 47.4C44.7977 47.7 45.3977 47.6 45.7977 47C45.9977 46.7 46.1977 46.4 46.3977 46.1C48.2977 43 50.0977 39.9 51.9977 36.7C52.4977 35.9 52.8977 35.2 52.8977 34.1C51.4977 33.5 50.2977 32.8 48.8977 32.1Z" fill="black"/>
<path d="M59.1971 24.4998C59.1971 26.2998 57.3971 27.9998 55.9971 27.7998C54.7971 27.6998 53.8971 25.9998 54.5971 24.6998C54.8971 24.0998 55.4971 23.5998 55.9971 23.0998C56.6971 22.4998 57.5971 22.3998 58.2971 22.9998C58.7971 23.4998 58.9971 24.1998 59.1971 24.4998Z" fill="black"/>
</svg>
