<svg width="129" height="79" viewBox="0 0 129 79" fill="none" xmlns="http://www.w3.org/2000/svg">
<path d="M128.334 46.1235C128.51 46.6482 128.686 47.6102 128.686 47.7851C128.686 51.1083 128.863 53.8194 128.686 57.0551C128.598 59.0666 128.598 63.0019 128.775 64.9259C128.775 65.1883 128.775 65.3632 128.775 65.5381C128.775 65.5381 128.775 65.5381 128.775 65.6255C128.686 66.3251 128.422 66.8499 127.981 67.1122C127.275 66.675 126.658 66.4126 125.952 66.7624C125.335 66.3251 124.717 66.4126 124.012 66.4126C124.012 66.5001 124.012 66.675 123.923 66.7624C122.953 71.5723 118.807 75.2453 113.692 75.2453C108.576 75.2453 104.342 71.5723 103.46 66.675C103.46 66.5875 103.372 66.5001 103.372 66.4126H102.93C102.578 66.4126 102.048 66.3251 101.607 66.3251C100.284 66.2377 98.9613 66.0628 97.6382 66.1502C95.9623 66.3252 94.1982 66.4126 92.5223 66.3251C92.5223 66.4126 92.5223 66.4126 92.5223 66.4126C92.5223 66.4126 92.4341 66.4126 92.3459 66.4126C92.2577 66.4126 92.0812 66.4126 91.8166 66.4126C91.8166 66.4126 91.8166 66.4126 91.7284 66.4126C89.7879 66.3251 84.9366 66.2377 84.3192 66.2377H84.231C83.5253 66.3251 82.8197 66.4126 82.114 66.4126H82.0258V66.5875C77.4392 66.5875 61.3858 66.8499 61.1212 66.8499C60.2392 66.8499 58.3868 66.7624 56.8874 66.7624V66.8499C56.0053 71.6598 51.7715 75.3328 46.6555 75.3328C41.5396 75.3328 37.3058 71.6598 36.4237 66.7624H30.955C30.1612 66.7624 29.1909 66.5875 28.4853 67.1122C27.7796 66.7624 27.074 67.0248 26.4566 67.3746C25.6627 66.675 25.3099 65.8879 25.4863 64.8385C25.6627 62.827 25.5745 60.7282 25.4863 58.7167C25.3981 57.7548 25.3981 55.481 25.3981 53.9943H25.3099C25.3099 52.5076 25.3099 51.1083 25.3981 49.7091C25.3099 49.5342 25.2217 49.1844 25.2217 48.7471V40.2642C25.2217 37.6406 25.2217 35.017 25.3099 32.3934C25.3099 31.7812 25.3099 31.1691 25.3099 30.4694C25.3099 27.0588 25.3981 23.6481 25.3981 20.2375C25.3981 19.1006 25.5745 17.9637 25.6627 16.8268C25.8391 15.6899 26.4566 15.0777 27.6032 15.0777C29.8084 15.0777 32.0135 14.9028 34.2186 15.0777C34.8361 15.1652 35.5417 15.1652 36.1591 15.2526H36.6884C42.7745 15.7774 48.8607 16.0397 54.9468 16.2146C59.2689 16.3021 63.5027 16.7393 67.8248 16.8268C69.9417 16.9142 73.8228 16.9142 75.9397 17.0017H76.2043C78.9387 17.0892 79.1151 17.1766 81.9376 17.439C82.3787 17.1766 82.6433 17.439 83.1725 17.6139C83.0843 17.7013 82.9961 17.7013 82.9079 17.7013C83.0843 17.7013 83.3489 17.7013 83.5253 17.6139C83.5253 18.8382 83.6135 19.1006 83.6135 19.9751C83.9664 20.15 84.3192 20.4124 84.5838 20.4124C87.23 20.6747 89.6997 21.0245 92.3459 21.1994C94.0218 21.2869 95.8741 21.3743 97.55 21.5493C97.6382 21.5493 97.7264 21.7242 97.991 21.8991C97.991 22.3363 97.9028 22.6861 97.9028 22.861C98.3438 23.2983 98.7848 23.4732 98.9613 23.823C99.4023 24.5227 99.6669 25.3097 99.8433 26.0968C100.814 29.8573 102.93 33.093 104.606 36.5912C105.312 38.1653 106.018 39.8269 106.812 41.4011C106.988 41.6634 106.988 41.8383 107.076 41.8383C107.076 41.8383 106.988 41.9258 106.9 41.9258C109.105 42.363 117.396 43.325 118.543 43.4999C120.483 43.7623 124.453 43.9372 126.217 44.5494C126.481 45.1615 128.775 46.1235 128.334 46.1235Z" fill="white"/>
<path d="M82.7316 58.8918C82.7316 58.6295 82.7316 58.2796 82.7316 58.0173C80.7911 57.1428 79.3798 55.4812 77.3511 55.1313C79.1152 56.3557 80.8793 57.6675 82.7316 58.8918Z" fill="black"/>
<path d="M31.661 23.7355C31.22 22.5112 30.1615 22.2488 29.2795 21.6367C28.3974 21.1119 27.4271 20.4998 26.6333 20.0625C26.6333 20.2374 26.6333 20.4998 26.6333 20.6747C28.4856 21.8116 30.1615 22.861 31.661 23.7355Z" fill="black"/>
<path d="M32.6315 22.4239C30.7792 20.4999 28.3094 19.0132 26.9863 18.9258C26.9863 19.0132 26.9863 19.1007 27.0745 19.1881C28.9268 20.325 30.6909 21.3745 32.6315 22.4239Z" fill="black"/>
<path d="M81.7619 60.1157C80.8798 58.4541 79.3803 57.5796 77.8809 56.7051C77.9691 57.3172 78.5865 57.4922 79.0275 57.9294C79.4686 58.3667 79.9096 58.7165 80.3506 59.1538C80.7916 59.591 81.1445 59.9408 81.6737 60.3781C81.6737 60.2032 81.7619 60.2032 81.7619 60.1157Z" fill="black"/>
<path d="M35.1889 28.2834C35.2771 28.1085 35.3653 27.8461 35.6299 27.5838C35.1007 27.5838 34.6597 27.5838 34.1304 27.5838C33.954 27.7587 33.954 28.196 33.4248 28.3709C33.6012 27.9336 33.8658 27.6712 33.954 27.4089C33.7776 27.3214 33.6894 27.234 33.4248 26.9716C33.6012 26.7093 33.954 26.8842 34.0422 26.9716C34.4833 27.4089 34.8361 27.234 35.3653 27.1465C35.1889 26.9716 35.1007 26.8842 34.9243 26.6218C35.5417 26.4469 35.8063 27.0591 36.2474 27.0591C36.6884 27.0591 37.1294 27.3214 37.6587 27.1465C37.394 26.6218 37.0412 26.3594 36.6884 26.0096C36.6002 25.9222 36.4238 25.9222 36.2474 25.9222C35.9828 25.8347 35.9828 25.9222 35.6299 25.6598C35.8063 25.5724 35.8945 25.5724 36.071 25.4849C36.071 25.2226 35.8063 24.9602 35.3653 24.8727C35.1889 24.8727 34.8361 24.7853 34.6597 24.7853C34.5715 24.7853 34.5715 24.6978 34.4833 24.6104C34.6597 24.6104 34.7479 24.5229 34.9243 24.5229C35.5417 24.6104 35.5417 24.6104 35.6299 23.9982C35.6299 23.9982 35.6299 23.9108 35.7181 23.8233C35.8946 23.8233 35.9828 23.9982 35.9828 24.0857C35.9828 24.6978 36.4238 24.9602 36.7766 25.3975C36.953 25.2226 36.8648 24.7853 37.3058 24.6978C37.3058 24.8727 37.3058 25.1351 37.2176 25.2226C37.0412 25.9222 37.3058 26.3594 37.9233 26.6218C38.0115 26.0971 38.0115 25.7473 37.8351 25.31C37.7469 25.2226 37.7469 24.8727 37.8351 24.7853C38.0997 24.348 38.0115 24.0857 37.7469 23.6484C37.6587 23.561 37.5704 23.386 37.4822 23.2111C37.4822 23.1237 37.4822 23.0362 37.5704 22.9488C37.7469 23.2111 38.0115 23.4735 38.2761 23.7359C38.7171 23.4735 38.9817 23.1237 39.4228 22.8613C39.4228 22.8613 39.511 22.8613 39.511 22.9488C39.3346 23.2111 38.9817 23.561 38.8053 23.8233C38.3643 24.0857 38.3643 24.5229 38.5407 25.0477C38.7171 24.9602 38.9817 24.9602 39.1581 24.8727C39.1581 25.0477 38.9817 25.31 38.8935 25.3975C38.4525 25.5724 38.4525 26.0096 38.6289 26.3594C39.0699 26.0971 39.4228 25.7473 39.5992 25.3975C39.6874 25.2226 39.7756 24.9602 40.1284 24.7853C40.3048 24.6978 40.393 24.348 40.6576 24.1731C40.834 23.9108 40.834 23.4735 41.2751 23.2986C41.2751 23.8233 40.834 23.9982 40.834 24.5229C41.0987 24.6104 41.5397 24.6978 41.9807 24.6978V24.7853C41.7161 24.7853 41.3633 24.7853 41.0987 24.7853C40.393 24.7853 40.2166 24.8727 39.8638 25.5724C40.0402 25.7473 40.4812 25.5724 40.5694 26.0096C40.0402 26.0971 39.4228 25.8347 39.0699 26.272C38.8935 26.4469 38.5407 26.7093 38.5407 27.0591C39.0699 27.0591 39.511 27.1465 40.0402 27.1465C40.1284 27.1465 40.1284 27.1465 40.2166 27.0591C40.4812 26.5343 41.0987 26.6218 41.5397 26.4469C41.5397 26.4469 41.5397 26.4469 41.6279 26.4469C41.6279 26.7093 41.1869 26.7093 41.0987 27.0591C42.2453 27.1465 43.2156 26.8842 44.3622 26.7967C44.0976 27.3214 43.392 26.9716 43.1274 27.5838C43.2156 27.6712 43.392 27.8461 43.6566 28.1085C43.2156 28.1085 43.0392 27.9336 42.951 27.6712C42.7746 27.4089 42.5099 27.234 42.2453 27.4089C41.8043 27.4089 41.5397 27.4963 41.0987 27.4963C41.0987 27.6712 41.1869 27.9336 41.1869 28.0211C41.0987 28.0211 41.0987 28.0211 41.0105 28.0211C40.5694 27.234 39.8638 27.4089 39.1581 27.4089C39.6874 28.2834 40.393 28.8081 41.1869 29.0705C41.0987 29.2454 41.0104 29.3328 40.9222 29.5078C41.0104 29.945 41.6279 30.0325 41.3633 30.6446C41.6279 30.8195 41.8925 30.907 42.1571 31.1694C41.7161 31.4317 41.4515 30.9944 41.1869 31.1694C41.0987 31.3443 41.0104 31.6941 40.9222 31.869C40.6576 31.6941 40.834 31.3443 40.9222 31.1694C40.9222 30.9944 41.0987 30.6446 41.1869 30.3823C40.9222 30.1199 40.5694 29.6827 40.2166 29.2454C40.1284 29.4203 40.0402 29.5078 39.7756 29.7701H39.6874C39.6874 29.6827 39.6874 29.5952 39.6874 29.5078C39.8638 29.0705 39.6874 28.8081 39.511 28.5458C39.2463 28.2834 38.8935 27.9336 38.3643 27.5838C38.3643 28.196 38.1879 28.7207 38.5407 29.1579C38.7171 29.5952 38.7171 30.0325 38.8053 30.4697C38.7171 30.4697 38.7171 30.5572 38.6289 30.5572C38.5407 30.4697 38.5407 30.3823 38.4525 30.1199C38.3643 30.2948 38.3643 30.5572 38.2761 30.6446H38.1879C38.1879 30.2074 38.0997 29.945 38.0997 29.5078C37.9233 29.5078 37.8351 29.5078 37.5704 29.5078C37.5704 29.4203 37.5704 29.4203 37.5704 29.4203C38.2761 28.8956 38.0997 28.2834 38.0115 27.4963C37.394 28.021 37.0412 28.6332 36.8648 29.4203C36.8648 29.5952 36.8648 29.8576 36.6002 29.8576C36.6002 29.6827 36.6002 29.5952 36.6002 29.3328C36.1592 29.5952 35.9828 29.945 35.8063 30.2948C35.7181 30.5572 35.6299 30.907 35.5417 31.0819C35.5417 31.1694 35.3653 31.1694 35.2771 31.1694C35.3653 30.907 35.4535 30.4697 35.7181 30.2074C35.4535 30.1199 35.1889 30.1199 34.9243 30.0325C35.3653 29.7701 35.5417 29.945 35.8946 29.945C36.1592 29.5078 36.512 29.1579 36.8648 28.7207C36.6002 28.6332 36.3356 28.5458 36.1592 28.4583C36.6002 28.196 36.7766 28.196 37.1294 28.4583C37.3058 28.2834 37.5704 27.9336 37.8351 27.6712C37.394 27.4963 37.0412 27.4963 36.6884 27.4963C36.6002 27.4963 36.512 27.6712 36.2474 27.7587C36.071 27.9336 35.9828 28.196 35.7181 28.2834C35.2771 28.3709 35.2771 28.3709 35.1889 28.2834Z" fill="black"/>
<path d="M46.0383 41.1386C46.3029 40.6139 46.5676 40.1767 46.9204 39.477C45.5973 39.477 44.3624 39.477 43.1276 39.477C42.5983 39.9143 42.5983 40.9637 41.4517 41.4885C41.9809 40.3516 42.3337 39.6519 42.7747 38.7774C42.2455 38.5151 41.8927 38.1652 41.4517 37.9029C42.0691 37.2033 42.7747 37.4656 43.0394 37.9029C43.9214 39.0398 45.1563 38.6025 46.4794 38.5151C46.0383 38.0778 45.7737 37.728 45.3327 37.2907C46.8322 36.8535 47.5378 38.4276 48.7727 38.4276C49.9194 38.4276 50.9778 39.1272 52.3009 38.6025C51.5953 37.3782 50.7132 36.5036 49.7429 35.7166C49.5665 35.5417 49.0373 35.5417 48.7727 35.5417C47.9788 35.4542 47.9788 35.4542 47.185 34.6671C47.626 34.5797 47.8906 34.4048 48.3317 34.2299C48.2435 33.5302 47.5378 32.9181 46.6558 32.8306C46.0383 32.7432 45.3327 32.6557 44.7153 32.3934C44.5388 32.3934 44.4506 32.2185 44.0978 31.8686C44.5388 31.7812 44.8035 31.6063 44.9799 31.6937C46.4794 31.9561 46.6558 31.8686 46.8322 30.2945C46.8322 30.207 46.9204 30.0321 47.0086 29.8572C47.626 29.8572 47.7142 30.2945 47.7142 30.6443C47.7142 32.2185 48.8609 33.0055 49.7429 33.9675C50.3604 33.4428 50.0076 32.4808 51.066 32.131C50.9778 32.6557 50.9778 33.0055 50.8896 33.3553C50.3604 35.0169 51.1542 36.1538 52.5655 37.0284C52.7419 35.804 52.8301 34.842 52.3009 33.7052C52.1245 33.4428 52.1245 32.8306 52.2127 32.4808C52.9183 31.5188 52.7419 30.5568 52.1245 29.6823C51.8599 29.2451 51.5071 28.9827 51.3306 28.5454C51.2424 28.3705 51.3306 28.1082 51.5953 27.7584C52.2127 28.458 52.7419 29.1576 53.2712 29.8572C54.1532 29.0701 55.1235 28.3705 56.0055 27.6709C56.0937 27.7584 56.1819 27.7584 56.1819 27.8458C55.5645 28.6329 54.9471 29.42 54.2414 30.1196C53.3594 30.9941 53.0947 31.9561 53.4476 33.1804C53.9768 33.0055 54.4178 32.9181 55.0353 32.6557C55.0353 33.2679 54.5942 33.6177 54.2414 33.8801C53.0947 34.4922 53.0947 35.3668 53.4476 36.5911C54.5942 35.8915 55.4763 35.0169 56.0937 33.8801C56.3583 33.2679 56.7112 32.7432 57.505 32.4808C58.0342 32.3059 58.2989 31.6063 58.7399 30.9941C59.2691 30.2945 59.3573 29.3325 60.4158 28.8078C60.504 30.0321 59.2691 30.6443 59.5337 31.8686C60.4158 32.0435 61.386 32.3059 62.3563 32.4808C62.3563 32.5683 62.3563 32.6557 62.3563 32.7432C61.6507 32.7432 60.8568 32.7432 60.1512 32.7432C58.2989 32.6557 57.946 32.9181 57.1522 34.7546C57.6814 35.1919 58.5635 34.842 59.0045 35.7166C57.5932 36.1538 56.0055 35.3668 54.9471 36.5911C54.4178 37.2033 53.7122 37.728 53.5358 38.69C54.9471 38.7774 56.2701 38.8649 57.505 38.9523C57.5932 38.9523 57.7696 38.8649 57.946 38.7774C58.7399 37.4656 60.2394 37.9029 61.386 37.2907C61.386 37.2907 61.4742 37.2907 61.5624 37.3782C61.5624 38.2527 60.4158 37.9903 60.1512 38.7774C62.8855 38.9523 65.5317 38.3402 68.3542 38.0778C67.5604 39.3896 65.7963 38.5151 65.3553 40.0892C65.6199 40.3516 66.0609 40.8763 66.5901 41.401C65.6199 41.401 65.0907 40.8763 64.7378 40.439C64.2968 39.652 63.5912 39.477 62.7973 39.5645C61.9153 39.652 60.945 39.7394 59.9748 39.8269C60.063 40.3516 60.1512 40.7014 60.1512 41.1386C59.9748 41.1386 59.7101 41.2261 59.7101 41.1386C58.5635 39.1272 56.7994 39.6519 54.8589 39.6519C56.0937 41.9257 57.8578 43.2375 60.063 44.112C59.7983 44.5493 59.5337 44.8117 59.3573 45.074C59.6219 45.9486 61.2096 46.4733 60.504 47.7851C61.2096 48.2223 61.9153 48.4847 62.6209 49.0094C61.6507 49.7965 60.945 48.4847 59.9748 49.0094C59.7983 49.5341 59.5337 50.2338 59.3573 50.9334C58.4753 50.3212 59.1809 49.6216 59.2691 49.0969C59.3573 48.4847 59.7101 47.8725 60.063 47.0854C59.3573 46.2984 58.4753 45.4238 57.5932 44.3744C57.1522 44.8991 56.9758 45.1615 56.7112 45.5987C56.623 45.5987 56.5347 45.5987 56.5347 45.5113C56.5347 45.2489 56.4465 44.8991 56.5347 44.7242C56.9758 43.7622 56.5347 43.0626 55.9173 42.1881C55.2117 41.3136 54.3296 40.6139 53.183 39.5645C53.183 41.1387 52.7419 42.4504 53.624 43.7622C54.2414 44.7242 54.1532 45.9486 54.4178 47.1729C54.2414 47.2604 54.1532 47.3478 53.8886 47.4353C53.7122 47.1729 53.624 46.8231 53.3594 46.4733C53.183 47.0854 53.0947 47.4353 52.9183 47.8725C52.8301 47.8725 52.7419 47.8725 52.6537 47.8725C52.5655 46.998 52.4773 46.036 52.4773 45.074C52.0363 45.074 51.6835 45.074 51.2424 45.074C51.2424 44.8991 51.1542 44.8117 51.2424 44.6368C53.183 43.4124 52.6537 41.7508 52.3891 39.8269C50.7132 41.2261 49.743 42.6253 49.5665 44.6368C49.5665 45.074 49.5665 45.5113 48.7727 45.5113C48.7727 45.074 48.7727 44.7242 48.6845 44.112C47.7142 44.8991 47.0968 45.6862 46.6558 46.7356C46.4794 47.4353 46.1265 48.1349 45.8619 48.8345C45.7737 49.0094 45.4209 49.0969 44.9799 49.0969C45.2445 48.2223 45.5973 47.4353 45.8619 46.3858C45.1563 46.2109 44.5388 46.1235 43.745 45.8611C44.627 45.074 45.3327 45.5987 46.3029 45.4238C47.0968 44.5493 47.8906 43.4124 48.8609 42.363C48.1553 42.1006 47.5378 41.8383 46.9204 41.6634C47.8906 40.8763 48.4199 40.8763 49.6547 41.5759C50.2722 40.9637 50.8014 40.2641 51.5071 39.477C50.5368 38.9523 49.4783 38.8649 48.5963 38.9523C48.3317 38.9523 47.9788 39.3896 47.7142 39.6519C47.185 40.0892 46.8322 40.5265 46.3912 40.9637C46.3029 41.3136 46.1265 41.2261 46.0383 41.1386Z" fill="black"/>
<path d="M31.0436 53.9067C29.8087 54.0817 28.5738 54.344 27.2507 54.4315C27.0743 54.4315 26.8979 54.4315 26.8097 54.4315C26.3687 54.4315 25.9277 54.344 25.4866 54.2566H25.3984C25.3984 52.7699 25.3984 51.3706 25.4866 49.9714C25.4866 49.3592 25.4866 48.747 25.4866 48.0474C25.4866 47.8725 25.5748 47.785 25.5748 47.5227C25.9277 47.3478 26.2805 47.2603 26.8097 47.0854C27.8682 46.8231 29.0149 46.5607 29.7205 46.3858C29.1913 46.9105 27.6918 47.785 27.339 48.3972C26.8097 49.0968 26.7215 49.8839 27.2507 50.8459C27.9564 50.3212 28.4856 49.4466 29.7205 49.5341C28.9266 50.3212 28.3974 51.1957 27.5154 51.633C27.4272 51.7204 27.4272 52.1577 27.2507 52.6824C27.9564 52.2451 28.5738 51.9828 29.1913 51.633C29.2795 51.633 29.3677 51.7204 29.4559 51.8079C29.2795 51.8953 29.1913 52.0702 29.0149 52.3326C28.8384 52.5075 28.7502 52.7699 28.4856 53.2071C29.3677 53.0322 29.8969 52.7699 30.5143 52.6824C30.5143 51.8079 30.6025 51.1957 30.5143 50.4961C30.2497 49.709 29.9851 48.747 29.8969 47.9599C29.8087 47.3478 29.8087 46.7356 30.1615 46.2983H30.2497C31.1318 48.0474 31.5728 52.0702 31.0436 53.9067Z" fill="black"/>
<path d="M92.611 60.0285L92.4346 60.4657V60.5532L92.2582 60.9905L92.0818 61.4277C91.729 62.827 90.8469 64.0513 89.7003 64.9258C89.171 65.3631 88.5536 65.6255 87.9362 65.8004C87.2305 65.9753 86.5249 65.9753 85.8192 66.1502C85.29 66.2376 84.7608 66.3251 84.3197 66.3251C83.6141 66.4125 82.9085 66.5 82.2028 66.5H82.1146C80.968 66.6749 79.8213 66.6749 78.7628 66.5C78.41 66.5 78.1454 66.4125 77.7926 66.2376C77.6162 66.1502 77.3515 66.0627 77.2633 65.8004C77.0869 65.6255 77.0869 65.3631 77.1751 65.1007C77.1751 65.0133 77.2633 64.9258 77.2633 64.8384C77.5279 64.0513 78.1454 63.3517 78.6746 62.7395C79.2921 62.0399 79.9977 61.4277 80.7033 60.9905C80.7915 60.903 80.8797 60.903 80.9679 60.8155C81.3208 60.5532 81.7618 60.3783 82.1146 60.2034C82.291 60.1159 82.4674 60.1159 82.6438 60.0285C82.7321 60.0285 82.9085 59.941 82.9967 59.941C83.1731 59.941 83.3495 59.8536 83.5259 59.8536C83.8787 59.7661 84.3197 59.7661 84.7608 59.7661C85.0254 59.7661 85.2018 59.7661 85.4664 59.7661C86.5249 59.7661 87.5833 59.7661 88.6418 59.7661C89.9649 59.941 91.2879 60.0285 92.611 60.0285Z" fill="#BCBCBB"/>
<path d="M55.7413 65.6256C55.8295 65.8005 54.8592 65.888 55.0356 66.0629C55.5648 66.2378 57.4172 66.5001 58.0346 66.5876C58.652 66.675 59.2695 66.5876 59.8869 66.5876C62.8859 66.4127 65.8848 66.1503 68.7956 65.9754C69.3249 65.9754 69.9423 65.888 70.2951 65.2758C70.6479 64.6636 70.8243 63.7016 70.5597 62.9146C70.2951 61.6902 69.4131 61.4279 68.6192 61.2529C65.2674 60.3784 61.8274 60.7282 58.4756 60.3784C57.5054 60.291 55.4766 58.9792 54.8592 60.9031C54.5946 61.8651 55.212 64.7511 55.7413 65.6256Z" fill="#BCBCBB"/>
<path d="M98.6977 39.3019C99.1387 38.6898 99.6679 38.0776 99.8444 37.2905C99.9326 36.5909 99.6679 35.8913 99.2269 35.2791C98.5213 33.8798 97.7274 32.568 97.0218 31.1688C96.8454 30.7315 96.4043 30.2943 96.0515 30.4692C95.8751 30.5566 95.6105 30.7315 95.5223 30.9939C93.67 33.9673 91.9059 37.0281 89.9654 40.0015C89.789 40.2639 89.5243 40.6137 89.7008 40.8761C89.7008 41.3133 90.1418 41.6632 90.4946 41.8381C90.9356 42.013 91.3767 42.013 91.8177 41.9255C93.4054 41.9255 95.4341 42.1004 97.0218 41.8381C98.3449 41.5757 98.1685 40.2639 98.6977 39.3019Z" fill="#BCBCBB"/>
<path d="M128.863 65.7131L127.364 66.4127C126.305 66.3253 125.159 66.3253 124.1 66.2378C122.248 66.2378 120.396 66.2378 118.543 66.2378C118.367 66.2378 118.279 66.2378 118.102 66.2378C117.749 66.2378 117.308 66.2378 116.956 66.1504C116.779 66.1504 116.691 66.0629 116.515 65.9754C116.426 65.9754 116.338 65.888 116.25 65.8005C116.073 65.7131 115.897 65.5382 115.721 65.2758C115.632 65.1009 115.544 65.0135 115.544 64.8386C115.456 64.5762 115.456 64.3138 115.456 64.0515C115.456 63.7017 115.632 63.3519 115.809 63.002C115.897 62.8271 115.985 62.6522 116.073 62.5648C116.073 62.4773 116.162 62.4773 116.162 62.3899C116.25 62.215 116.426 61.8652 116.691 61.6903C116.779 61.6028 116.867 61.5153 116.956 61.5153C117.132 61.4279 117.22 61.3404 117.397 61.3404C118.19 61.0781 118.984 60.8157 119.955 60.8157C120.748 60.7283 121.454 60.8157 122.16 60.8157C122.512 60.8157 122.865 60.8157 123.218 60.8157C124.806 60.9032 126.482 60.9032 128.158 60.8157C128.246 62.4773 128.422 64.0515 128.863 65.7131C128.775 65.6256 128.775 65.7131 128.863 65.7131Z" fill="#BCBCBB"/>
<path d="M92.6105 66.4125C92.6105 66.4999 92.6105 66.4999 92.6105 66.4125C92.6105 66.4999 92.4341 66.4999 92.3459 66.4999C92.2577 66.4999 92.0813 66.4999 91.8166 66.4999C91.8166 66.4999 91.8166 66.4999 91.7284 66.4999C89.7879 66.4125 84.9366 66.325 84.3192 66.325H84.231C83.5253 66.325 82.7315 66.4125 82.0259 66.4125C81.3202 66.4999 80.5264 66.4999 79.8207 66.4999C79.4679 66.4999 79.0269 66.4999 78.6741 66.4999C77.5274 66.4999 76.4689 66.5874 75.3223 66.5874V65.1881C75.9397 65.1881 76.5571 65.1881 77.0864 65.1881H79.7325C81.4084 65.1881 83.2607 65.0132 84.9366 64.9258C85.5541 63.7014 85.5541 62.652 85.5541 61.2528C83.9664 61.0779 82.2905 61.0779 80.7028 60.9904C80.6146 60.9904 80.6146 60.9904 80.5264 60.9904C78.9387 60.903 77.351 60.903 75.7633 60.8155C75.6751 60.8155 75.5869 60.8155 75.4105 60.8155V59.8535C77.351 59.941 79.2033 59.941 81.1438 59.941H82.6433C82.7315 59.941 82.7315 59.941 82.8197 59.941H85.3777H85.4659C86.5243 60.0284 87.671 59.941 88.7295 60.1159C88.9941 60.1159 89.3469 60.2033 89.6115 60.2908C90.0525 60.3782 90.3171 60.4657 90.67 60.5531C90.8464 60.6406 91.993 60.4657 92.5223 60.4657C92.6105 60.4657 92.6987 60.4657 92.6987 60.4657C92.6105 60.4657 92.5223 60.5531 92.4341 60.5531C92.0813 60.6406 91.4638 60.8155 91.0228 60.9904C90.7582 61.0779 90.4936 61.1653 90.4054 61.1653C90.2289 61.2528 90.4054 61.1653 90.2289 61.3402C88.9059 61.3402 87.5828 61.3402 86.5243 61.1653C86.3479 62.4771 86.0833 63.7014 85.9069 65.1007C86.1715 65.1007 88.112 65.0132 89.7879 65.0132H91.993C92.1695 65.0132 92.4341 65.0132 92.4341 65.0132C92.1695 65.1007 92.6105 66.1501 92.6105 66.4125Z" fill="black"/>
<path d="M81.5858 59.7661C81.4094 59.7661 81.233 59.7661 80.9684 59.7661C78.3222 59.6786 71.6186 59.5037 71.4422 59.5037C66.5027 59.5037 61.475 59.6786 56.5356 59.1539C56.4473 59.1539 56.3591 59.1539 56.2709 59.1539C55.9181 59.1539 55.5653 59.0665 55.1243 59.0665C55.0361 59.0665 54.9479 59.0665 54.9479 59.0665C54.7715 59.0665 54.6832 58.979 54.5068 58.979C54.6832 59.4163 54.9479 59.8535 55.0361 60.2908C55.0361 60.3783 55.0361 60.3783 55.1243 60.4657V60.5532C55.1243 60.6406 55.1243 60.6406 55.2125 60.7281C55.3889 61.4277 55.7417 62.1273 55.9181 62.7395C55.7417 62.0399 55.3889 61.2528 55.2125 60.5532C55.3007 60.5532 55.3007 60.5532 55.3889 60.5532C55.5653 60.5532 55.6535 60.5532 55.8299 60.4657C56.8002 60.2908 57.594 60.3783 58.5643 60.6406C58.6525 60.6406 58.8289 60.7281 59.0053 60.7281C58.8289 62.3022 58.4761 63.9638 58.2115 65.6254C58.035 65.6254 57.594 65.6254 56.9766 65.6254C56.712 65.6254 56.5356 65.6254 56.2709 65.538H54.9479C54.9479 65.6254 54.9479 65.7129 55.0361 65.7129C55.0361 65.7129 55.0361 65.7129 55.0361 65.8003C55.0361 65.8878 55.0361 65.8878 55.0361 65.9752V66.0627C55.1243 66.325 55.2125 66.5874 55.3007 66.8498H56.0945C56.3591 66.8498 56.6238 66.8498 56.8884 66.8498C58.3879 66.8498 60.3284 66.9372 61.1222 66.9372C61.3868 66.9372 77.4402 66.6749 82.0269 66.6749V66.4125V65.1882C81.4094 65.1882 79.8217 65.1882 77.8812 65.1882C77.6166 65.1882 77.352 65.1882 77.0874 65.1882C74.8822 65.1882 72.3243 65.1007 70.2956 65.1007C68.5315 65.1007 67.1202 65.0133 66.5909 65.0133C65.0915 65.0133 62.8863 65.1882 61.2104 64.7509C61.1222 63.614 61.2986 61.9524 61.2104 60.9904C62.4453 60.903 64.6504 60.903 67.2966 60.903C69.9427 60.903 72.9417 60.903 75.5879 60.903C77.6166 60.903 79.4689 60.903 80.792 60.903C81.233 60.903 81.674 60.903 81.9387 60.903V59.8535C82.1151 59.7661 81.8504 59.7661 81.5858 59.7661ZM60.9458 64.2262C60.3284 64.1387 59.7109 63.9638 59.0935 63.7889C59.0935 62.7395 59.0053 61.7775 59.7991 60.903C59.8874 61.4277 59.8874 61.69 59.8874 62.0399C60.0638 61.69 60.2402 61.4277 60.4166 60.9904C60.9458 62.2148 61.3868 63.0893 60.9458 64.2262Z" fill="black"/>
<path d="M87.2305 64.7508C87.4069 64.3135 87.4951 64.0512 87.7597 63.6139C87.8479 63.5265 87.9361 63.439 88.0243 63.1766C88.1125 62.477 88.1125 62.0398 88.2007 61.6899C87.4069 62.6519 87.5833 63.7888 87.2305 64.7508Z" fill="black"/>
<path d="M102.667 53.7317C102.667 53.4693 102.402 51.283 102.402 51.0207C102.578 49.7089 102.49 48.3096 102.49 46.9104C102.49 46.3857 102.314 46.0358 101.608 46.2982C101.608 46.7355 101.52 47.1727 101.52 47.6975C101.52 49.0967 101.696 52.5074 101.785 53.9066C102.049 53.9066 102.402 53.8192 102.667 53.7317Z" fill="black"/>
<path d="M82.1151 52.6822C82.1151 53.032 82.0269 53.3819 82.0269 53.7317L82.1151 53.8191V58.629C82.1151 58.7165 82.0269 58.7165 82.0269 58.7165C82.0269 58.9788 82.1151 59.3287 82.1151 59.6785C82.1151 59.7659 82.1151 59.7659 82.1151 59.8534H82.2915C82.4679 59.8534 82.5561 59.9408 82.8207 59.9408C82.9971 60.0283 83.3499 60.0283 83.5263 60.1157V53.2944C83.5263 53.032 83.5263 52.7697 83.5263 52.5073C83.0853 52.6822 82.6443 52.6822 82.1151 52.6822Z" fill="black"/>
<path d="M128.775 65.0131C128.599 63.0017 128.599 59.0663 128.687 57.1423C128.863 53.8191 128.687 51.1081 128.687 47.8723C128.687 47.6974 128.51 46.7354 128.334 46.2107C128.246 46.0358 128.069 46.1232 128.069 46.0358C127.628 46.1232 127.364 45.9483 127.011 45.9483C127.452 46.7354 127.628 49.359 127.628 50.321C126.923 49.7088 125.953 48.9217 124.629 49.0092C125.512 49.7963 126.482 50.9332 127.364 51.1955C127.54 51.283 127.364 51.4579 127.54 51.9826C126.658 51.5453 125.864 51.283 125.247 51.0206C125.247 51.0206 125.07 51.1081 124.982 51.1955C125.07 51.3704 125.247 51.4579 125.423 51.7202C125.512 51.8951 126.217 52.245 126.394 52.6822C125.512 52.5073 124.277 52.245 123.659 52.07C123.659 51.283 123.571 50.5833 123.659 49.9712C123.747 49.1841 123.924 48.397 124.188 47.6099C124.277 46.9978 124.365 46.3856 123.747 45.7734C122.865 47.435 122.336 51.4579 122.954 53.2944C124.365 53.4693 125.864 53.7317 127.276 53.8191C127.981 56.0929 127.805 57.5796 127.364 60.6404H123.042C121.63 60.6404 120.043 60.6404 118.367 60.7279H109.37C107.518 60.7279 105.754 60.7279 104.342 60.6404C103.813 60.6404 103.284 60.6404 102.843 60.553V58.0168C102.843 56.7051 102.755 55.4807 102.755 54.2564C102.755 53.994 102.755 53.7317 102.755 53.4693C102.755 53.4693 102.755 53.4693 102.666 53.4693C102.402 53.5568 102.137 53.6442 101.873 53.7317C101.873 53.8191 101.873 53.9066 101.873 53.994C101.873 54.2564 101.873 54.4313 101.873 54.6936C101.873 55.2184 102.049 55.8305 101.608 56.2678C101.079 55.918 100.726 55.4807 100.285 55.1309C99.5792 54.6062 98.8735 54.1689 98.1679 53.6442L101.873 57.3172C101.696 58.1918 102.314 59.3286 101.431 60.3781C100.99 60.3781 100.549 60.553 100.108 60.4655C98.2561 60.3781 96.492 60.3781 94.6397 60.0283C93.6694 59.8534 92.5228 59.8534 91.3761 59.6785H88.4653C88.4653 59.6785 88.4653 59.6785 88.4653 59.7659L88.5535 59.8534C88.7299 60.1157 88.9064 60.3781 89.0828 60.7279H90.8469C90.8469 60.7279 90.9351 60.7279 91.0233 60.7279C91.3761 60.7279 91.7289 60.7279 92.0817 60.7279C94.5515 60.8153 98.0797 60.9028 101.784 60.9902C102.49 60.9902 103.107 61.0777 103.813 61.0777C105.401 61.0777 107.077 61.1652 108.488 61.2526H108.576C109.105 61.2526 109.546 61.2526 110.076 61.3401C110.252 61.3401 110.428 61.3401 110.605 61.3401C111.928 61.3401 113.075 61.4275 114.133 61.4275C114.309 61.4275 114.574 61.4275 114.75 61.4275H116.779C118.19 61.4275 119.602 61.3401 121.013 61.3401C121.454 61.3401 121.807 61.4275 122.336 61.4275C122.424 62.5644 122.424 63.5264 122.513 64.6633C122.248 64.7507 121.983 64.9256 121.807 64.9256C120.748 64.9256 119.425 64.8382 118.102 64.8382C117.926 64.8382 117.838 64.8382 117.749 64.8382H113.516C112.898 64.8382 112.281 64.8382 111.575 64.8382C111.31 64.8382 110.958 64.8382 110.693 64.7507H107.429C106.018 64.7507 104.519 64.7507 103.196 64.6633C102.578 64.6633 101.961 64.6633 101.431 64.6633C97.3741 64.5758 93.5812 64.4884 91.0233 64.4009V64.5758C91.0233 64.6633 91.1115 64.7507 91.1115 64.8382C91.2879 65.2754 91.4643 65.6253 91.4643 66.0625C91.4643 66.15 91.4643 66.2374 91.5525 66.3249V66.4123H91.6407C91.6407 66.4123 91.7289 66.3249 91.8171 66.3249C91.9935 66.3249 92.2582 66.4123 92.4346 66.4123C94.1105 66.4998 95.8746 66.4123 97.5505 66.2374C98.8735 66.15 100.197 66.3249 101.52 66.4123C101.961 66.4123 102.402 66.4998 102.843 66.4998H123.395C123.483 66.4998 123.483 66.4998 123.571 66.4998C123.659 66.4998 123.747 66.4998 123.836 66.4998C124.541 66.4998 125.159 66.4123 125.776 66.8496C126.482 66.4123 127.099 66.7621 127.805 67.1994C128.246 66.8496 128.51 66.4123 128.599 65.7127C128.599 65.7127 128.599 65.7127 128.599 65.6253C128.863 65.4503 128.863 65.188 128.775 65.0131ZM123.13 63.264C123.218 63.3515 123.306 63.4389 123.395 63.6138C123.306 63.9636 123.747 64.4884 123.747 64.9256C123.747 65.1005 123.747 65.188 123.571 65.4503C122.865 64.6633 122.777 64.5758 123.13 63.264ZM125.335 62.1271C125.335 62.0397 125.688 62.1271 125.953 62.0397C125.864 63.0017 125.864 63.9637 125.776 65.2754C125.159 63.6138 125.07 62.8268 125.335 62.1271ZM123.747 63.8762C123.659 63.7887 123.659 63.7887 123.571 63.7013C123.571 63.1766 123.483 62.8268 123.483 62.2146C123.395 62.1271 123.395 62.0397 123.395 62.0397C123.483 62.0397 123.571 62.0397 123.571 62.0397C123.924 62.1271 124.277 62.1271 124.365 62.302C124.806 63.0017 124.629 63.7887 124.453 64.7507C124.277 64.5758 124.1 64.4009 123.924 64.226C123.924 64.0511 123.836 63.9636 123.747 63.8762ZM126.923 65.3629C126.746 65.188 126.394 65.0131 126.305 64.8382C126.217 64.0511 126.305 63.1766 127.011 61.9522C127.099 63.1766 127.187 63.9636 127.364 64.7507C127.276 65.0131 127.099 65.188 126.923 65.3629Z" fill="black"/>
<path d="M106.812 41.8385C106.018 40.2643 105.312 38.6027 104.606 37.0286C103.019 33.5304 100.902 30.2947 99.8434 26.5342C99.667 25.7471 99.3142 24.9601 98.9613 24.2604C98.7849 23.8232 98.2557 23.6483 97.9029 23.2984C97.9029 23.1235 97.9911 22.6863 97.9911 22.3365C97.8147 22.249 97.7265 21.9867 97.5501 21.9867C95.8742 21.8117 94.0218 21.7243 92.3459 21.6368C89.6998 21.4619 87.23 21.1121 84.5839 20.8498C84.3193 20.8498 83.9665 20.6749 83.6136 20.4125C83.6136 19.538 83.5254 19.1882 83.5254 18.0513C83.349 18.1387 83.0844 18.1387 82.908 18.1387C82.7316 18.1387 82.5552 18.0513 82.5552 18.1387C82.5552 18.1387 82.5552 18.2262 82.467 18.2262V18.3136C82.2905 18.7509 82.2023 19.2756 82.2906 19.7129C82.467 23.211 82.5552 26.7091 82.3788 30.2072C82.2906 32.2186 81.9377 34.1426 82.1141 36.154C82.1141 38.7776 82.3788 41.4012 82.5552 44.0248C82.6434 45.1617 82.7316 46.2111 82.6434 47.348C82.6434 48.9221 82.3788 51.6332 82.2906 53.1199C82.7316 53.0324 83.1726 53.0324 83.7018 53.0324C83.7018 48.2225 83.79 42.1883 83.7018 37.3784C83.7018 37.2035 83.6136 36.9411 83.6136 36.6787V24.4353C83.6136 23.5608 83.4372 22.5114 83.79 21.7243C88.1121 21.9867 92.3459 22.4239 96.668 22.7737C97.1972 23.4734 97.1972 24.2604 97.3736 25.3099C93.669 24.6102 90.0526 24.0855 86.348 24.0855C85.8188 24.9601 85.7306 25.922 85.7306 26.7966C85.6424 31.3441 85.7306 35.8042 86.1716 40.2643C86.2598 41.8385 86.7008 42.3632 88.3767 42.713H89.347C91.6403 42.8879 94.11 43.1503 96.4916 43.3252C97.7265 43.4126 98.6967 43.7624 99.4906 44.7244C100.196 45.5989 102.137 46.1237 103.019 45.5989C104.165 44.9868 104.254 44.0248 104.254 42.8879V41.5761C104.254 41.3137 104.342 40.9639 104.43 40.4392C104.871 40.8765 105.047 41.1388 105.224 41.3137C105.4 41.6636 105.4 41.8385 105.489 41.9259C105.4 41.8385 105.312 41.751 105.665 42.5381C105.753 42.8004 105.841 42.9754 105.93 43.1503C106.194 42.8879 106.547 42.6255 106.812 42.4506C106.9 42.4506 106.9 42.3632 106.988 42.3632C106.988 42.2757 106.9 42.1008 106.812 41.8385ZM99.667 30.7319C100.196 31.7814 100.461 32.8308 100.902 33.9677C101.255 34.6673 101.519 35.2795 101.784 36.0666C100.814 36.154 100.549 35.6293 100.373 35.0171C100.02 33.7928 99.5788 32.6559 99.3142 31.4316C99.1377 30.9068 99.1377 30.3821 98.8731 29.77C99.1377 30.0323 99.4024 30.3821 99.667 30.7319ZM98.9613 29.6825C98.5203 28.808 98.2557 27.846 97.9029 26.884C98.6085 27.6711 99.0495 28.5456 98.9613 29.6825ZM97.7265 41.6636C97.6383 41.8385 97.6383 42.0134 97.6383 42.3632C97.2854 42.3632 97.109 42.4506 96.8444 42.3632C95.3449 42.1883 93.7572 42.1008 92.2577 41.9259C91.7285 41.9259 91.1111 41.8385 90.5818 41.8385H90.4936H88.6413C87.8475 41.751 87.4065 41.4012 87.3182 40.6141C87.1418 37.8156 86.8772 34.9297 86.7008 32.1312C86.6126 30.7319 86.7008 29.3327 86.7008 27.846C86.7008 27.0589 86.7008 26.2718 87.23 25.4848C90.1408 25.3973 92.9634 25.6597 95.7859 26.3593C96.3152 26.4467 96.5798 26.9715 96.668 27.3213C97.3736 29.2452 97.9911 30.9943 98.6085 32.9183C98.6967 33.1806 98.6967 33.6179 98.6967 33.8802V34.6673C99.667 35.4544 99.667 35.5419 98.5203 36.5038C98.0793 36.2415 97.7265 35.8917 97.2854 35.7168C96.8444 35.4544 96.4916 35.1046 96.0506 34.9297C95.7859 34.7548 95.3449 34.405 95.0803 34.2301C95.5213 34.9297 95.9624 35.3669 96.5798 35.8042C97.109 36.2415 97.5501 36.6787 98.0793 37.116C98.4321 37.3784 98.2557 37.8156 97.9029 38.078C96.8444 37.4658 95.8742 36.7662 94.9039 36.0666C95.0803 36.5913 95.5213 36.9411 95.8742 37.2909C96.3152 37.5533 96.7562 37.9031 97.1972 38.2529C97.4618 38.5153 97.7265 39.04 97.8147 39.5647C97.9029 40.0894 97.9029 40.7016 97.8147 41.4012C97.7265 41.5761 97.7265 41.5761 97.7265 41.6636ZM102.754 43.0628C102.049 42.8004 101.519 42.5381 101.078 42.2757C101.078 42.3632 100.99 42.4506 100.902 42.5381C101.431 42.9754 101.96 43.3252 102.401 43.7624C102.49 43.8499 102.578 44.1997 102.578 44.3746C102.49 44.5495 102.137 44.8993 102.049 44.8993C101.519 44.8119 100.902 44.7244 100.549 44.3746C99.9316 44.1122 99.8434 43.2377 99.5788 42.8004C98.6967 41.5761 98.7849 40.2643 99.0495 39.04C99.0495 38.9525 99.0495 38.8651 99.1377 38.8651C99.1377 38.6902 99.226 38.5153 99.3142 38.2529C99.4906 37.7282 99.667 37.4658 99.9316 37.2909C100.02 37.2909 100.108 37.2035 100.108 37.2035C100.549 37.116 100.99 37.2035 101.431 37.6407C102.754 38.5153 103.107 39.827 102.754 41.5761C102.313 41.4012 101.96 41.3137 101.255 40.9639C101.431 41.8385 102.578 42.1008 102.754 43.0628Z" fill="black"/>
<path d="M128.333 46.1232C127.892 46.0358 127.451 45.9483 127.01 45.9483C126.04 45.7734 125.07 45.686 124.541 45.5111C122.159 44.8989 108.664 44.2867 106.106 43.5871C106.018 43.5871 105.929 43.4996 105.753 43.4996C105.841 43.4122 105.841 43.3247 105.929 43.2373C106.018 43.1498 106.106 42.9749 106.194 42.8875C106.282 42.7126 106.459 42.6251 106.547 42.4502C106.635 42.4502 106.723 42.4502 106.811 42.5376C109.017 42.9749 117.308 43.9369 118.454 44.1118C120.395 44.3742 124.364 44.5491 126.128 45.1612C126.481 45.1612 128.774 46.1232 128.333 46.1232Z" fill="black"/>
<path d="M27.3387 66.3255C30.2494 66.1505 33.1602 66.1506 36.071 66.238C37.2177 66.238 38.3643 66.238 38.8936 65.3635C39.4228 64.4889 38.8936 63.3521 38.4525 62.4775C38.3643 62.2152 38.1879 61.9528 37.9233 61.7779C37.7469 61.603 37.3941 61.5155 37.1294 61.3406C36.3356 61.0783 35.4535 60.8159 34.5715 60.8159C33.8659 60.8159 33.1602 60.8159 32.3664 60.8159C30.3376 60.9034 28.3089 60.9034 26.4566 60.8159C26.4566 62.3901 26.192 64.1391 25.751 65.6258L27.3387 66.3255Z" fill="#BCBCBB"/>
<path d="M40.9226 66.762C40.9226 66.2373 40.8344 65.7126 40.8344 65.2753H38.8938C38.0118 65.2753 37.1297 65.2753 36.2477 65.3628C36.1595 65.3628 35.9831 65.3628 35.8949 65.3628C34.5718 65.3628 33.3369 65.4502 32.3667 65.4502C32.1902 65.4502 31.9256 65.3628 31.661 65.1879C31.7492 64.2259 31.7492 63.089 31.8374 61.9521C32.3666 61.8647 32.7195 61.8647 33.2487 61.8647H40.3051C40.2169 61.6023 40.2169 61.2525 40.1287 60.9901H35.9831C34.3072 60.9901 32.6313 60.9027 31.22 60.9027H27.1625V60.8152C26.8097 58.1916 26.3687 56.2677 26.7215 54.3437C26.7215 54.0814 26.8097 53.819 26.8979 53.5566C26.8097 53.5566 26.8097 53.5566 26.8097 53.5566H25.3984V54.1688C25.3984 55.5681 25.3984 57.8418 25.4866 58.8913C25.5748 60.9027 25.6631 63.0016 25.4866 65.013C25.3984 65.975 25.6631 66.8495 26.4569 67.5491C27.0743 67.1118 27.78 66.9369 28.4856 67.2867C29.1913 66.762 30.0733 66.9369 30.9554 66.9369H41.0108C40.9226 66.8495 40.9226 66.762 40.9226 66.762ZM29.8969 62.3019C29.9851 62.127 30.4261 62.127 30.9554 62.0396C30.8672 62.7392 30.8672 63.2639 30.779 63.7012L31.0436 63.4388C31.4846 64.6632 31.3082 64.7506 30.6025 65.5377C30.0733 64.9255 30.779 64.3133 30.6908 63.7012C30.5143 63.9635 30.1615 64.3133 29.8087 64.6632C29.6323 63.7886 29.5441 63.0016 29.8969 62.3019ZM28.9266 62.2145C29.1913 62.8267 29.1031 63.7012 28.662 65.3628C28.4856 64.051 28.3974 63.1765 28.3974 62.127C28.5738 62.127 28.8384 62.127 28.9266 62.2145ZM27.1625 62.127C27.8682 63.3514 27.9564 64.1384 27.8682 65.1004C27.78 65.1879 27.4272 65.2753 27.2507 65.5377C27.1625 65.3628 26.8979 65.1004 26.8979 64.9255C26.8979 64.051 26.9861 63.2639 27.1625 62.127Z" fill="black"/>
<path d="M75.852 17.3514V18.1385C75.7638 18.1385 75.5873 18.1385 75.4109 18.1385C73.8232 18.1385 69.1484 18.051 68.0017 17.9636C63.6796 17.7887 59.3576 17.3514 55.1237 17.264C49.5668 17.264 43.9217 17.0891 38.3647 16.5643C37.8355 16.5643 37.3945 16.4769 36.8653 16.4769H36.336C34.0427 16.302 31.8376 16.302 29.456 16.2145C28.6622 16.2145 27.9565 16.302 26.9863 16.3894V20.4123C26.9863 20.4123 26.8981 20.4123 26.8981 20.4997V21.7241C26.8981 23.4731 26.7217 24.8724 26.7217 26.2716C26.7217 28.1081 26.8099 29.9446 26.8099 31.7811C26.8099 32.0435 26.8099 32.3059 26.8099 32.6557C26.2806 32.6557 25.7514 32.5682 25.2222 32.5682C25.2222 31.956 25.2222 31.3439 25.2222 30.6443C25.2222 27.2336 25.3104 23.8229 25.3104 20.4123C25.3104 19.2754 25.4868 18.1385 25.575 17.0016C25.7514 15.8647 26.3688 15.2525 27.5155 15.2525C29.7206 15.2525 31.9258 15.0776 34.1309 15.2525C34.7483 15.34 35.454 15.34 36.0714 15.4274H36.6006C42.6868 15.9522 48.773 16.2145 54.8591 16.3894C59.1812 16.4769 63.415 16.9141 67.7371 17.0016C69.854 17.1765 73.6468 17.264 75.852 17.3514Z" fill="black"/>
<path d="M26.8981 31.7808C26.8099 34.3169 26.7217 36.7656 26.7217 39.3017V46.7352C26.7217 46.8227 26.7217 46.9101 26.7217 47.085C26.7217 47.6972 26.6335 48.3094 26.6335 48.8341C26.6335 48.9215 26.6335 48.9215 26.6335 49.009C26.6335 49.4463 26.6335 49.8835 26.3688 50.1459C26.2806 50.2333 26.1924 50.2333 25.9278 50.2333C25.6632 50.2333 25.4868 50.1459 25.3986 49.8835C25.3104 49.7086 25.2222 49.3588 25.2222 48.9215V40.4386C25.2222 37.815 25.2222 35.1914 25.3104 32.5678C25.3104 32.3929 25.3104 32.1306 25.3104 31.9557C25.7514 31.9557 26.2806 31.8682 26.8981 31.7808C26.8099 31.7808 26.8099 31.7808 26.8981 31.7808Z" fill="black"/>
<path d="M82.9968 17.9632C82.9086 18.0507 82.8204 18.0507 82.7322 18.0507H82.644C82.4675 18.1382 82.3793 18.2256 82.2911 18.2256L75.4111 18.1382V17.3511C75.5875 17.3511 75.764 17.3511 75.8522 17.3511H76.1168C78.8511 17.4385 79.0275 17.526 81.8501 17.7883C82.2029 17.4385 82.4675 17.7883 82.9968 17.9632Z" fill="black"/>
<path d="M100.372 49.1843C100.284 48.9219 100.196 48.6596 100.196 48.5721C99.0494 46.4733 98.7848 46.9105 96.6678 47.1729C96.4914 47.1729 96.2268 47.2603 96.0504 47.3478C95.9622 47.4352 95.874 47.5227 95.6094 47.6102C95.6094 48.3098 96.1386 48.747 96.756 48.9219C97.7263 49.3592 98.9612 49.7965 100.372 49.1843Z" fill="black"/>
<path d="M98.168 55.6562C99.1382 56.5308 100.285 57.3179 101.432 58.3673C101.167 57.4928 100.638 56.968 98.168 55.6562Z" fill="black"/>
<path d="M98.9625 53.9939C98.2568 53.1194 98.2568 53.1194 97.022 52.6821C97.463 53.3818 97.463 53.3818 98.9625 53.9939Z" fill="black"/>
<path d="M46.5683 68.1616C48.2442 68.1616 49.5673 66.8498 49.5673 65.1882C49.5673 63.5266 48.2442 62.2148 46.5683 62.2148C44.8924 62.2148 43.5693 63.5266 43.5693 65.1882C43.5693 66.8498 44.8924 68.1616 46.5683 68.1616Z" fill="black"/>
<path d="M45.4216 63.3516C45.3334 63.3516 45.2451 63.3516 45.2451 63.3516H45.1569C45.1569 63.3516 45.1569 63.3516 45.2451 63.3516C45.3334 63.3516 45.3334 63.3516 45.4216 63.3516C45.4216 63.3516 45.4216 63.3516 45.5098 63.3516C45.5098 63.3516 45.5098 63.3516 45.598 63.3516C45.5098 63.3516 45.4216 63.3516 45.4216 63.3516ZM45.1569 63.3516C45.1569 63.3516 45.0687 63.3516 44.9805 63.2642C45.1569 63.3516 45.1569 63.3516 45.1569 63.3516ZM56.8882 63.9638C56.8 62.9144 56.5354 62.0398 56.1826 61.0779V60.9904C56.1826 60.903 56.0944 60.728 56.0062 60.6406C56.0062 60.5531 55.918 60.4657 55.918 60.3782C55.8298 60.2033 55.7416 60.0284 55.5652 59.8535C55.477 59.7661 55.477 59.6786 55.3887 59.5912C55.3005 59.4163 55.1241 59.1539 55.0359 58.979C54.9477 58.8041 54.7713 58.6292 54.6831 58.4543C52.8308 56.1805 49.92 54.7812 46.6564 54.7812C42.4226 54.7812 38.718 57.3174 37.1303 60.9904C37.1303 61.0779 37.0421 61.1653 37.0421 61.1653V61.2528C37.0421 61.2528 37.0421 61.2528 37.0421 61.3402C37.0421 61.3402 37.0421 61.3402 37.0421 61.4277C36.9539 61.6026 36.9539 61.69 36.8657 61.8649C36.7775 62.0398 36.7774 62.1273 36.6892 62.3022C36.5128 62.9144 36.4246 63.7014 36.3364 64.4011C36.3364 64.4885 36.3364 64.4885 36.3364 64.576V65.4505C36.3364 65.7129 36.3364 65.8878 36.4246 66.1501C36.4246 66.325 36.4246 66.5874 36.5128 66.7623C37.3949 71.6597 41.6287 75.3327 46.7446 75.3327C51.8605 75.3327 56.0062 71.6597 56.9764 66.8497V66.7623C56.9764 66.5874 57.0646 66.4125 57.0646 66.325V65.1007C56.8882 64.7509 56.8882 64.3136 56.8882 63.9638ZM47.8031 68.249C45.5098 68.5988 42.599 67.4619 42.2462 64.2262C42.0698 62.8269 42.7754 61.7775 44.0985 61.3402C45.0687 61.0779 45.8626 61.0779 46.6564 61.3402C47.4503 61.6026 48.2441 62.0398 48.8616 62.652C49.3908 63.0893 49.7436 63.8763 49.479 64.7509V64.8383C49.479 64.8383 49.3908 64.8383 49.3908 64.7509C48.6852 64.3136 47.8913 64.0513 47.3621 63.5265C47.0093 63.2642 46.7446 63.2642 46.48 63.2642H46.3036C46.1272 63.2642 45.8626 63.3516 45.6862 63.3516C45.598 63.3516 45.598 63.3516 45.5098 63.3516C45.4216 63.3516 45.3334 63.3516 45.3334 63.3516H45.2451C45.2451 63.3516 45.2451 63.3516 45.3334 63.3516C45.6862 63.614 46.039 63.8763 46.3918 64.1387L46.48 64.2262C47.0093 64.576 47.4503 64.9258 47.9795 65.363C47.9795 65.363 48.0677 65.363 48.0677 65.4505L48.1559 65.538C48.2441 65.6254 48.2441 65.6254 48.3323 65.6254C48.6852 65.8878 48.9498 65.9752 49.479 65.8003C49.5672 65.8003 49.7436 65.7129 49.92 65.6254C49.6554 67.1996 48.9498 68.1615 47.8031 68.249ZM45.1569 63.3516C45.1569 63.3516 45.0687 63.3516 44.9805 63.2642C45.1569 63.3516 45.1569 63.3516 45.1569 63.3516ZM45.4216 63.3516C45.3334 63.3516 45.2451 63.3516 45.2451 63.3516C45.2451 63.3516 45.3334 63.3516 45.4216 63.3516C45.4216 63.3516 45.4216 63.3516 45.5098 63.3516H45.4216Z" fill="black"/>
<path d="M50.6253 62.5643C50.5371 62.3894 50.3607 62.1271 50.1843 61.9522C49.9197 61.6898 49.6551 61.4275 49.2141 61.1651C48.5084 60.6404 47.45 60.2031 46.3915 60.2031C45.2448 60.2031 44.3628 60.5529 43.4807 61.1651C42.3341 61.9522 41.7166 63.1765 41.6284 64.6632V64.9256C41.6284 67.4617 43.7453 69.648 46.3915 69.648C48.9494 69.648 51.0664 67.6366 51.1546 65.013V64.8381C51.2428 64.9256 51.2428 64.7507 51.2428 64.5758C51.1546 63.8761 50.9782 63.264 50.6253 62.5643ZM44.6274 64.6632C44.5392 64.1385 44.8038 63.6138 45.333 63.3514C45.333 63.3514 45.333 63.3514 45.4212 63.3514C45.5094 63.3514 45.5094 63.3514 45.5977 63.3514C45.5977 63.3514 45.5977 63.3514 45.6859 63.3514C45.8623 63.264 46.1269 63.264 46.3033 63.264H46.4797C46.9207 63.3514 47.3618 63.5263 47.8028 63.8761C48.0674 64.051 48.2438 64.4009 48.0674 64.9256C47.7146 64.7507 47.3618 64.5758 47.0089 64.4009C46.8325 64.226 46.7443 64.226 46.5679 64.3134C46.3915 64.3134 46.2151 64.4009 46.0387 64.3134C46.4797 64.6632 47.0971 65.1005 47.5382 65.4503C47.7146 65.6252 47.891 65.6252 48.1556 65.5377H48.2438V65.6252C48.1556 66.2374 47.891 66.6746 47.3618 66.7621C46.0387 66.6746 44.8038 66.2374 44.6274 64.6632Z" fill="white"/>
<path d="M113.692 68.1616C115.368 68.1616 116.691 66.8498 116.691 65.1882C116.691 63.5266 115.368 62.2148 113.692 62.2148C112.016 62.2148 110.693 63.5266 110.693 65.1882C110.693 66.8498 112.016 68.1616 113.692 68.1616Z" fill="black"/>
<path d="M115.457 64.1387C115.104 63.9638 114.751 63.7014 114.398 63.5265C114.045 63.2642 113.781 63.2642 113.516 63.2642H113.428C113.251 63.2642 112.987 63.3516 112.81 63.3516C112.722 63.3516 112.722 63.3516 112.634 63.3516C112.546 63.3516 112.458 63.3516 112.369 63.2642C112.369 63.3516 112.458 63.3516 112.458 63.3516C112.81 63.614 113.163 63.8763 113.516 64.1387L113.604 64.2262C113.957 64.4885 114.31 64.6634 114.574 64.9258H115.457C115.457 64.7509 115.457 64.4885 115.457 64.1387ZM115.104 65.4505L115.192 65.5379V65.4505H115.104ZM124.012 64.1387V63.9638C123.924 63.2642 123.836 62.652 123.571 62.0398C123.483 61.7775 123.395 61.4277 123.219 61.1653V61.0779V60.9904C123.219 60.9029 123.13 60.8155 123.042 60.728V60.6406C122.954 60.3782 122.778 60.1159 122.601 59.8535C122.513 59.7661 122.513 59.6786 122.425 59.5912C122.248 59.2413 121.984 58.8915 121.719 58.4543C119.867 56.1805 116.956 54.7812 113.781 54.7812C109.635 54.7812 106.019 57.1425 104.431 60.6406C104.343 60.8155 104.254 61.0779 104.166 61.2528C104.166 61.2528 104.166 61.2528 104.166 61.3402C104.166 61.3402 104.166 61.3402 104.166 61.4277C104.166 61.4277 104.166 61.4277 104.166 61.5151C104.078 61.7775 103.99 62.0398 103.902 62.3896C103.725 63.0018 103.637 63.7889 103.549 64.4885C103.549 64.576 103.549 64.576 103.549 64.6634V65.4505C103.549 65.7129 103.549 65.8878 103.637 66.1501C103.637 66.2376 103.637 66.4125 103.637 66.5874C103.637 66.6748 103.637 66.7623 103.725 66.8497C104.607 71.7471 108.841 75.4201 113.957 75.4201C119.073 75.4201 123.219 71.7471 124.189 66.9372C124.189 66.8497 124.277 66.6748 124.277 66.5874C124.277 66.4999 124.277 66.325 124.277 66.2376V65.1007C124.012 64.7509 124.012 64.4885 124.012 64.1387ZM116.78 66.5874C116.427 67.5494 115.809 68.1615 114.927 68.249C113.34 68.5113 111.399 68.0741 110.341 66.5874C109.988 66.1501 109.723 65.538 109.547 64.8383C109.459 64.576 109.459 64.4011 109.37 64.1387C109.194 62.9144 109.811 61.8649 110.782 61.4277C110.87 61.3402 111.046 61.3402 111.223 61.2528C112.105 60.9904 112.987 60.9904 113.692 61.2528C113.869 61.3402 114.133 61.4277 114.31 61.5151C114.927 61.7775 115.457 62.1273 115.898 62.5646C115.898 62.5646 115.898 62.5646 115.986 62.5646C116.515 63.0018 116.78 63.7889 116.515 64.576C116.515 64.576 116.515 64.6634 116.427 64.6634C116.427 64.6634 116.339 64.6634 116.339 64.576C115.986 64.4011 115.633 64.2262 115.368 64.0513C115.016 63.8763 114.663 63.614 114.31 63.4391C113.957 63.1767 113.692 63.1767 113.428 63.1767H113.34C113.163 63.1767 112.899 63.2642 112.722 63.2642C112.634 63.2642 112.634 63.2642 112.546 63.2642C112.458 63.2642 112.369 63.2642 112.281 63.1767C112.281 63.2642 112.369 63.2642 112.369 63.2642C112.722 63.5265 113.075 63.7889 113.428 64.0513L113.516 64.1387C113.869 64.4011 114.222 64.576 114.486 64.8383C114.663 64.9258 114.751 65.1007 114.927 65.1881C114.927 65.1881 115.016 65.1881 115.016 65.2756L115.104 65.363C115.192 65.4505 115.192 65.4505 115.28 65.4505C115.545 65.6254 115.809 65.7129 116.074 65.7129C116.162 65.7129 116.25 65.7129 116.427 65.6254C116.515 65.6254 116.691 65.538 116.868 65.4505C116.868 65.6254 116.78 65.8003 116.78 65.9752C116.868 66.325 116.868 66.4999 116.78 66.5874ZM112.546 63.3516C112.458 63.3516 112.369 63.3516 112.281 63.2642C112.281 63.3516 112.369 63.3516 112.369 63.3516C112.369 63.3516 112.458 63.3516 112.546 63.3516C112.546 63.3516 112.546 63.3516 112.634 63.3516H112.546Z" fill="black"/>
<path d="M115.015 65.3628C114.838 65.1879 114.75 65.1005 114.574 65.013H114.045C114.221 65.1879 114.397 65.2754 114.574 65.3628C114.75 65.5378 114.927 65.5378 115.191 65.4503C115.103 65.3628 115.015 65.3628 115.015 65.3628ZM117.749 62.5643C117.661 62.3894 117.485 62.1271 117.308 61.9522C117.22 61.8647 117.044 61.6898 116.955 61.6024C116.779 61.4275 116.603 61.34 116.426 61.1651C116.25 60.9902 115.985 60.8153 115.721 60.7278C115.103 60.378 114.397 60.2031 113.692 60.2031C112.898 60.2031 112.192 60.378 111.575 60.7278C111.31 60.8153 111.046 60.9902 110.781 61.1651C110.605 61.2526 110.516 61.34 110.428 61.5149C109.546 62.302 109.017 63.4389 108.929 64.7507V65.013C108.929 65.6252 109.017 66.1499 109.282 66.6746C109.987 68.4237 111.663 69.648 113.692 69.648C115.721 69.648 117.396 68.4237 118.102 66.6746C118.102 66.5872 118.19 66.4997 118.19 66.4123C118.278 65.975 118.367 65.5377 118.455 65.1005V64.9256C118.543 65.013 118.543 64.8381 118.543 64.6632C118.278 63.8761 118.102 63.264 117.749 62.5643ZM111.751 64.9256C111.751 64.8381 111.751 64.7507 111.663 64.5758C111.575 64.0511 111.839 63.5263 112.369 63.264C112.369 63.264 112.369 63.264 112.457 63.264C112.545 63.264 112.545 63.264 112.633 63.264H112.722C112.898 63.1765 113.163 63.1765 113.339 63.1765H113.427C113.868 63.264 114.309 63.4389 114.75 63.7887C115.015 63.9636 115.191 64.3134 115.015 64.8381C114.662 64.6632 114.309 64.4883 113.956 64.3134C113.78 64.1385 113.692 64.1385 113.515 64.226C113.339 64.226 113.163 64.3134 112.986 64.226C113.251 64.4883 113.692 64.7507 113.956 64.9256C114.133 65.1005 114.309 65.1879 114.486 65.2754C114.662 65.4503 114.838 65.4503 115.103 65.3628H115.191V65.4503C115.103 65.975 114.927 66.3248 114.486 66.4997C114.397 66.4997 114.309 66.5872 114.221 66.5872C113.956 66.5872 113.78 66.5872 113.515 66.4997C112.81 66.4123 112.016 65.975 111.751 64.9256Z" fill="white"/>
<path d="M56.6229 60.0282C53.7121 51.8076 38.4526 51.8076 36.3357 60.4654C36.1593 59.416 36.4239 58.1917 36.9531 57.2297C38.7172 54.0814 42.51 52.4198 46.2147 52.3323C50.9777 52.1574 56.4465 55.2183 56.6229 60.0282Z" fill="black"/>
<path d="M123.836 60.0282C120.925 51.8076 105.665 51.8076 103.549 60.4654C103.372 59.416 103.637 58.1917 104.166 57.2297C105.93 54.0814 109.723 52.4198 113.428 52.3323C118.191 52.1574 123.748 55.2183 123.836 60.0282Z" fill="black"/>
<path d="M74.3822 13.7439C74.5155 14.654 74.3509 14.6002 54.3342 13.2936C52.0555 12.8043 49.9102 13.2252 47.6955 13.2895C46.5909 13.2232 45.3688 13.1145 44.2695 12.8512C43.9547 12.8041 43.6079 12.4802 43.0263 12.0718C43.624 11.8892 43.7467 11.7345 43.8641 11.7768C46.2174 12.4255 48.5549 12.2065 50.967 12.147C52.5093 12.1057 72.9627 13.6305 74.3822 13.7439Z" fill="white"/>
<path d="M20.9996 50.56C21.1659 51.4646 24.0005 51.6065 11.345 51.3684C9.05003 50.9627 6.92144 51.4615 4.71059 51.6066C3.60425 51.5806 2.37905 51.5166 1.2709 51.2936C0.954542 51.258 0.596139 50.947 1.42215e-05 50.56C0.59068 50.3558 0.707721 50.1967 0.826582 50.2346C3.20198 50.7971 5.52988 50.4929 7.93823 50.3455C9.47796 50.2479 19.5769 50.4985 20.9996 50.56Z" fill="white"/>
<path d="M99.0001 69.56C99.1664 70.4646 102.001 70.6065 89.3455 70.3684C87.0505 69.9627 84.9219 70.4615 82.7111 70.6066C81.6047 70.5806 80.3795 70.5166 79.2714 70.2936C78.955 70.258 78.5966 69.947 78.0005 69.56C78.5912 69.3558 78.7082 69.1967 78.8271 69.2346C81.2025 69.7971 83.5304 69.4929 85.9387 69.3455C87.4785 69.2479 97.5774 69.4985 99.0001 69.56Z" fill="white"/>
<path d="M21.503 46.723C21.6694 47.6276 22.5034 47.7458 18.3464 47.7459C16.0515 47.3401 13.9229 47.839 11.712 47.9841C10.6057 47.9581 9.3805 47.8941 8.27235 47.671C7.95599 47.6355 7.59759 47.3245 7.00146 46.9375C7.59213 46.7332 7.70917 46.5741 7.82803 46.6121C10.2034 47.1746 12.5313 46.8704 14.9397 46.7229C16.4794 46.6254 20.0803 46.6614 21.503 46.723Z" fill="white"/>
</svg>
