<svg width="252" height="104" viewBox="0 0 252 104" fill="none" xmlns="http://www.w3.org/2000/svg">
<path d="M252 52L246.3 43.7L248.8 33.9L240.6 28.1L239.7 18.1L230.2 15.5L225.9 6.2L216 7.1L208.9 0L200 4.3L191.1 0L183.9 7.1L174.1 6.2L169.8 15.5L160.1 18.1L159.4 28.1L151.2 33.9L153.7 43.7L148 52L153.7 60.3L151.2 70.1L159.4 75.9L160.3 85.9L169.8 88.5L174.1 97.8L183.9 96.9L190.9 104L200 99.7L208.9 104L216.1 96.9L225.9 97.8L230.2 88.5L239.7 85.9L240.6 75.9L248.8 70.1L246.3 60.3L252 52Z" fill="#129D67"/>
<path d="M247.9 33.2998L245.5 42.6998L246.3 43.6998L248.8 33.8998L247.9 33.2998Z" fill="#036639"/>
<path d="M154.5 42.7004L152 33.4004L151.2 33.9004L153.9 43.7004L154.5 42.7004Z" fill="#036639"/>
<path d="M154.5 57.4996L149.4 50.0996L148 51.9996L153.7 60.2996L154.5 57.4996Z" fill="#036639"/>
<path d="M245.5 57.4996L246.3 60.2996L252 51.9996L250.6 50.0996L245.5 57.4996Z" fill="#036639"/>
<path d="M240.6 72.0998L239.7 82.1998L230.2 84.7998L225.9 93.8998L216.1 92.9998L208.9 100.3L200 95.8998L190.9 100.3L183.9 92.9998L174.1 93.8998L169.8 84.7998L160.3 82.1998L159.4 72.0998L152.1 66.7998L151.2 70.0998L159.4 75.8998L160.3 85.8998L169.8 88.4998L174.1 97.7998L183.9 96.8998L190.9 104L200 99.6998L208.9 104L216.1 96.8998L225.9 97.7998L230.2 88.4998L239.7 85.8998L240.6 75.8998L248.8 70.0998L247.9 66.7998L240.6 72.0998Z" fill="#036639"/>
<path d="M185.853 27.4562C185.853 37.9938 174.481 39.7674 174.481 50.5137V55H191.07V49.7834H180.219C180.167 49.5225 180.167 49.2617 180.167 49.0009C180.167 43.0017 191.592 38.7241 191.592 27.2475C191.592 21.4049 188.67 18.0662 183.036 18.0662C177.402 18.0662 174.481 21.4049 174.481 27.2475V30.7948H179.906V26.8823C179.906 24.274 181.054 23.2829 182.88 23.2829C184.706 23.2829 185.853 24.1697 185.853 27.4562ZM194.695 27.2475V46.2361C194.695 52.0787 197.773 55.4173 203.407 55.4173C209.041 55.4173 212.118 52.0787 212.118 46.2361V27.2475C212.118 21.4049 209.041 18.0662 203.407 18.0662C197.773 18.0662 194.695 21.4049 194.695 27.2475ZM200.433 46.6012V26.8823C200.433 24.274 201.581 23.2829 203.407 23.2829C205.232 23.2829 206.38 24.274 206.38 26.8823V46.6012C206.38 49.2095 205.232 50.2007 203.407 50.2007C201.581 50.2007 200.433 49.2095 200.433 46.6012Z" fill="white"/>
<path d="M215.917 25.691V35.0157C215.917 37.9347 217.418 39.5564 220.215 39.5564C223.012 39.5564 224.512 37.9347 224.512 35.0157V25.691C224.512 22.772 223.012 21.1503 220.215 21.1503C217.418 21.1503 215.917 22.772 215.917 25.691ZM231.405 21.353L220.215 49.7324H222.85L234.04 21.353H231.405ZM218.755 35.2184V25.4883C218.755 24.2315 219.282 23.7045 220.215 23.7045C221.107 23.7045 221.674 24.2315 221.674 25.4883V35.2184C221.674 36.4752 221.107 37.0022 220.215 37.0022C219.282 37.0022 218.755 36.4752 218.755 35.2184ZM229.986 36.0698V45.3944C229.986 48.3135 231.486 49.9351 234.283 49.9351C237.08 49.9351 238.58 48.3135 238.58 45.3944V36.0698C238.58 33.1508 237.08 31.5291 234.283 31.5291C231.486 31.5291 229.986 33.1508 229.986 36.0698ZM232.823 45.5971V35.8671C232.823 34.6103 233.351 34.0832 234.283 34.0832C235.175 34.0832 235.743 34.6103 235.743 35.8671V45.5971C235.743 46.8539 235.175 47.381 234.283 47.381C233.351 47.381 232.823 46.8539 232.823 45.5971Z" fill="white"/>
<path d="M161.485 34.1335V39.3501H171.918V34.1335H161.485Z" fill="white"/>
<path d="M173.693 75.8879L173.261 80H175.112L175.544 75.8879H176.592L176.757 74.2842H175.708L176.099 70.5217H177.147L177.312 68.918H176.263L176.613 65.6078H174.762L174.413 68.918H173.076L173.426 65.6078H171.575L171.226 68.918H170.198L170.033 70.5217H171.061L170.671 74.2842H169.663L169.499 75.8879H170.506L170.075 80H171.925L172.357 75.8879H173.693ZM172.521 74.2842L172.912 70.5217H174.248L173.858 74.2842H172.521ZM184.847 65.216C184.847 70.872 178.743 71.824 178.743 77.592V80H187.647V77.2H181.823C181.795 77.06 181.795 76.92 181.795 76.78C181.795 73.56 187.927 71.264 187.927 65.104C187.927 61.968 186.359 60.176 183.335 60.176C180.311 60.176 178.743 61.968 178.743 65.104V67.008H181.655V64.908C181.655 63.508 182.271 62.976 183.251 62.976C184.231 62.976 184.847 63.452 184.847 65.216Z" fill="white"/>
<path d="M194.526 65.6078H191.195V80H193.457V74.5926H194.526C196.788 74.5926 197.898 73.3385 197.898 71.0357V69.1647C197.898 66.862 196.788 65.6078 194.526 65.6078ZM193.457 67.6638H194.526C195.246 67.6638 195.636 67.9928 195.636 69.0208V71.1796C195.636 72.2077 195.246 72.5366 194.526 72.5366H193.457V67.6638ZM201.105 65.6078H198.843V76.5664C198.843 78.8692 199.994 80.185 202.215 80.185C204.435 80.185 205.587 78.8692 205.587 76.5664V65.6078H203.448V76.7104C203.448 77.7384 202.996 78.1085 202.276 78.1085C201.557 78.1085 201.105 77.7384 201.105 76.7104V65.6078ZM207.138 65.6078V80H210.715C212.977 80 214.087 78.7458 214.087 76.4431V69.1647C214.087 66.862 212.977 65.6078 210.715 65.6078H207.138ZM209.399 67.6638H210.674C211.394 67.6638 211.825 68.0339 211.825 69.0619V76.5459C211.825 77.5739 211.394 77.944 210.674 77.944H209.399V67.6638ZM214.708 75.9907V78.0468L215.716 76.9776V80H221.699V77.944H217.977V74.5515L220.465 71.8787V69.8227L217.977 72.4955V65.6078H215.716V74.9216L214.708 75.9907ZM222.493 69.0619V76.5459C222.493 78.8486 223.706 80.1645 225.927 80.1645C228.147 80.1645 229.36 78.8486 229.36 76.5459V69.0619C229.36 66.7592 228.147 65.4433 225.927 65.4433C223.706 65.4433 222.493 66.7592 222.493 69.0619ZM224.755 76.6898V68.918C224.755 67.89 225.207 67.4994 225.927 67.4994C226.647 67.4994 227.099 67.89 227.099 68.918V76.6898C227.099 77.7178 226.647 78.1085 225.927 78.1085C225.207 78.1085 224.755 77.7178 224.755 76.6898Z" fill="white"/>
<path d="M128.363 49.7073V42.6648H124.294V49.7073H117.304V53.7763H124.294V60.9231H128.363V53.7763H135.354V49.7073H128.363Z" fill="#036639"/>
<path d="M104 52L98.3 43.7L100.8 33.9L92.6 28.1L91.7 18.1L82.2 15.5L77.9 6.2L68 7.1L60.9 0L52 4.3L43.1 0L35.9 7.1L26.1 6.2L21.8 15.5L12.1 18.1L11.4 28.1L3.2 33.9L5.7 43.7L0 52L5.7 60.3L3.2 70.1L11.4 75.9L12.3 85.9L21.8 88.5L26.1 97.8L35.9 96.9L42.9 104L52 99.7L60.9 104L68.1 96.9L77.9 97.8L82.2 88.5L91.7 85.9L92.6 75.9L100.8 70.1L98.3 60.3L104 52Z" fill="#129D67"/>
<path d="M99.9 33.2998L97.5 42.6998L98.3 43.6998L100.8 33.8998L99.9 33.2998Z" fill="#036639"/>
<path d="M6.5002 42.7004L4.0002 33.4004L3.2002 33.9004L5.9002 43.7004L6.5002 42.7004Z" fill="#036639"/>
<path d="M6.5 57.4996L1.4 50.0996L0 51.9996L5.7 60.2996L6.5 57.4996Z" fill="#036639"/>
<path d="M97.5 57.4996L98.3 60.2996L104 51.9996L102.6 50.0996L97.5 57.4996Z" fill="#036639"/>
<path d="M92.6002 72.0998L91.7002 82.1998L82.2002 84.7998L77.9002 93.8998L68.1002 92.9998L60.9002 100.3L52.0002 95.8998L42.9002 100.3L35.9002 92.9998L26.1002 93.8998L21.8002 84.7998L12.3002 82.1998L11.4002 72.0998L4.1002 66.7998L3.2002 70.0998L11.4002 75.8998L12.3002 85.8998L21.8002 88.4998L26.1002 97.7998L35.9002 96.8998L42.9002 104L52.0002 99.6998L60.9002 104L68.1002 96.8998L77.9002 97.7998L82.2002 88.4998L91.7002 85.8998L92.6002 75.8998L100.8 70.0998L99.9002 66.7998L92.6002 72.0998Z" fill="#036639"/>
<path d="M37.8534 27.4562C37.8534 37.9938 26.4812 39.7674 26.4812 50.5137V55H43.0701V49.7834H32.2195C32.1673 49.5225 32.1673 49.2617 32.1673 49.0009C32.1673 43.0017 43.5917 38.7241 43.5917 27.2475C43.5917 21.4049 40.6704 18.0662 35.0365 18.0662C29.4025 18.0662 26.4812 21.4049 26.4812 27.2475V30.7948H31.9065V26.8823C31.9065 24.274 33.0541 23.2829 34.88 23.2829C36.7058 23.2829 37.8534 24.1697 37.8534 27.4562ZM46.6948 27.2475V46.2361C46.6948 52.0787 49.7726 55.4173 55.4066 55.4173C61.0406 55.4173 64.1184 52.0787 64.1184 46.2361V27.2475C64.1184 21.4049 61.0406 18.0662 55.4066 18.0662C49.7726 18.0662 46.6948 21.4049 46.6948 27.2475ZM52.4331 46.6012V26.8823C52.4331 24.274 53.5808 23.2829 55.4066 23.2829C57.2324 23.2829 58.3801 24.274 58.3801 26.8823V46.6012C58.3801 49.2095 57.2324 50.2007 55.4066 50.2007C53.5808 50.2007 52.4331 49.2095 52.4331 46.6012Z" fill="white"/>
<path d="M67.9175 25.691V35.0157C67.9175 37.9347 69.4175 39.5564 72.2149 39.5564C75.0123 39.5564 76.5124 37.9347 76.5124 35.0157V25.691C76.5124 22.772 75.0123 21.1503 72.2149 21.1503C69.4175 21.1503 67.9175 22.772 67.9175 25.691ZM83.4045 21.353L72.2149 49.7324H74.8502L86.0398 21.353H83.4045ZM70.7554 35.2184V25.4883C70.7554 24.2315 71.2825 23.7045 72.2149 23.7045C73.1069 23.7045 73.6745 24.2315 73.6745 25.4883V35.2184C73.6745 36.4752 73.1069 37.0022 72.2149 37.0022C71.2825 37.0022 70.7554 36.4752 70.7554 35.2184ZM81.9856 36.0698V45.3944C81.9856 48.3135 83.4856 49.9351 86.283 49.9351C89.0804 49.9351 90.5805 48.3135 90.5805 45.3944V36.0698C90.5805 33.1508 89.0804 31.5291 86.283 31.5291C83.4856 31.5291 81.9856 33.1508 81.9856 36.0698ZM84.8235 45.5971V35.8671C84.8235 34.6103 85.3505 34.0832 86.283 34.0832C87.1749 34.0832 87.7425 34.6103 87.7425 35.8671V45.5971C87.7425 46.8539 87.1749 47.381 86.283 47.381C85.3505 47.381 84.8235 46.8539 84.8235 45.5971Z" fill="white"/>
<path d="M13.485 34.1335V39.3501H23.9183V34.1335H13.485Z" fill="white"/>
<path d="M25.6931 75.8879L25.2614 80H27.1118L27.5436 75.8879H28.5921L28.7566 74.2842H27.708L28.0987 70.5217H29.1473L29.3117 68.918H28.2632L28.6127 65.6078H26.7623L26.4127 68.918H25.0763L25.4258 65.6078H23.5754L23.2259 68.918H22.1979L22.0334 70.5217H23.0614L22.6708 74.2842H21.6633L21.4988 75.8879H22.5063L22.0745 80H23.9249L24.3567 75.8879H25.6931ZM24.5212 74.2842L24.9118 70.5217H26.2483L25.8576 74.2842H24.5212ZM32.6474 62.864V65.048H35.0274V80H38.1074V60.4H36.0354C35.5594 61.716 35.0274 62.864 32.6474 62.864Z" fill="white"/>
<path d="M46.5262 65.6078H43.1955V80H45.4571V74.5926H46.5262C48.7879 74.5926 49.8981 73.3385 49.8981 71.0357V69.1647C49.8981 66.862 48.7879 65.6078 46.5262 65.6078ZM45.4571 67.6638H46.5262C47.2458 67.6638 47.6365 67.9928 47.6365 69.0208V71.1796C47.6365 72.2077 47.2458 72.5366 46.5262 72.5366H45.4571V67.6638ZM53.1045 65.6078H50.8429V76.5664C50.8429 78.8692 51.9943 80.185 54.2148 80.185C56.4353 80.185 57.5867 78.8692 57.5867 76.5664V65.6078H55.4484V76.7104C55.4484 77.7384 54.9961 78.1085 54.2765 78.1085C53.5569 78.1085 53.1045 77.7384 53.1045 76.7104V65.6078ZM59.1377 65.6078V80H62.7152C64.9768 80 66.0871 78.7458 66.0871 76.4431V69.1647C66.0871 66.862 64.9768 65.6078 62.7152 65.6078H59.1377ZM61.3993 67.6638H62.6741C63.3937 67.6638 63.8254 68.0339 63.8254 69.0619V76.5459C63.8254 77.5739 63.3937 77.944 62.6741 77.944H61.3993V67.6638ZM66.7081 75.9907V78.0468L67.7155 76.9776V80H73.6986V77.944H69.9771V74.5515L72.4649 71.8787V69.8227L69.9771 72.4955V65.6078H67.7155V74.9216L66.7081 75.9907ZM74.4933 69.0619V76.5459C74.4933 78.8486 75.7064 80.1645 77.9269 80.1645C80.1474 80.1645 81.3605 78.8486 81.3605 76.5459V69.0619C81.3605 66.7592 80.1474 65.4433 77.9269 65.4433C75.7064 65.4433 74.4933 66.7592 74.4933 69.0619ZM76.755 76.6898V68.918C76.755 67.89 77.2073 67.4994 77.9269 67.4994C78.6465 67.4994 79.0988 67.89 79.0988 68.918V76.6898C79.0988 77.7178 78.6465 78.1085 77.9269 78.1085C77.2073 78.1085 76.755 77.7178 76.755 76.6898Z" fill="white"/>
</svg>
