<svg width="104" height="104" viewBox="0 0 104 104" fill="none" xmlns="http://www.w3.org/2000/svg">
<path d="M104 52L98.3 43.7L100.8 33.9L92.6 28.1L91.7 18.1L82.2 15.5L77.9 6.2L68 7.1L60.9 0L52 4.3L43.1 0L35.9 7.1L26.1 6.2L21.8 15.5L12.1 18.1L11.4 28.1L3.2 33.9L5.7 43.7L0 52L5.7 60.3L3.2 70.1L11.4 75.9L12.3 85.9L21.8 88.5L26.1 97.8L35.9 96.9L42.9 104L52 99.7L60.9 104L68.1 96.9L77.9 97.8L82.2 88.5L91.7 85.9L92.6 75.9L100.8 70.1L98.3 60.3L104 52Z" fill="#129D67"/>
<path d="M99.9 33.2998L97.5 42.6998L98.3 43.6998L100.8 33.8998L99.9 33.2998Z" fill="#036639"/>
<path d="M6.5002 42.7004L4.0002 33.4004L3.2002 33.9004L5.9002 43.7004L6.5002 42.7004Z" fill="#036639"/>
<path d="M6.5 57.4996L1.4 50.0996L0 51.9996L5.7 60.2996L6.5 57.4996Z" fill="#036639"/>
<path d="M97.5 57.4996L98.3 60.2996L104 51.9996L102.6 50.0996L97.5 57.4996Z" fill="#036639"/>
<path d="M92.6002 72.0998L91.7002 82.1998L82.2002 84.7998L77.9002 93.8998L68.1002 92.9998L60.9002 100.3L52.0002 95.8998L42.9002 100.3L35.9002 92.9998L26.1002 93.8998L21.8002 84.7998L12.3002 82.1998L11.4002 72.0998L4.1002 66.7998L3.2002 70.0998L11.4002 75.8998L12.3002 85.8998L21.8002 88.4998L26.1002 97.7998L35.9002 96.8998L42.9002 104L52.0002 99.6998L60.9002 104L68.1002 96.8998L77.9002 97.7998L82.2002 88.4998L91.7002 85.8998L92.6002 75.8998L100.8 70.0998L99.9002 66.7998L92.6002 72.0998Z" fill="#036639"/>
<path d="M25.6931 75.8879L25.2614 80H27.1118L27.5436 75.8879H28.5921L28.7566 74.2842H27.708L28.0987 70.5217H29.1473L29.3117 68.918H28.2632L28.6127 65.6078H26.7623L26.4127 68.918H25.0763L25.4258 65.6078H23.5754L23.2259 68.918H22.1979L22.0334 70.5217H23.0614L22.6708 74.2842H21.6633L21.4988 75.8879H22.5063L22.0745 80H23.9249L24.3567 75.8879H25.6931ZM24.5212 74.2842L24.9118 70.5217H26.2483L25.8576 74.2842H24.5212ZM36.8474 65.216C36.8474 70.872 30.7434 71.824 30.7434 77.592V80H39.6474V77.2H33.8234C33.7954 77.06 33.7954 76.92 33.7954 76.78C33.7954 73.56 39.9274 71.264 39.9274 65.104C39.9274 61.968 38.3594 60.176 35.3354 60.176C32.3114 60.176 30.7434 61.968 30.7434 65.104V67.008H33.6554V64.908C33.6554 63.508 34.2714 62.976 35.2514 62.976C36.2314 62.976 36.8474 63.452 36.8474 65.216Z" fill="white"/>
<path d="M46.5262 65.6078H43.1955V80H45.4571V74.5926H46.5262C48.7879 74.5926 49.8981 73.3385 49.8981 71.0357V69.1647C49.8981 66.862 48.7879 65.6078 46.5262 65.6078ZM45.4571 67.6638H46.5262C47.2458 67.6638 47.6365 67.9928 47.6365 69.0208V71.1796C47.6365 72.2077 47.2458 72.5366 46.5262 72.5366H45.4571V67.6638ZM53.1045 65.6078H50.8429V76.5664C50.8429 78.8692 51.9943 80.185 54.2148 80.185C56.4353 80.185 57.5867 78.8692 57.5867 76.5664V65.6078H55.4484V76.7104C55.4484 77.7384 54.9961 78.1085 54.2765 78.1085C53.5569 78.1085 53.1045 77.7384 53.1045 76.7104V65.6078ZM59.1377 65.6078V80H62.7152C64.9768 80 66.0871 78.7458 66.0871 76.4431V69.1647C66.0871 66.862 64.9768 65.6078 62.7152 65.6078H59.1377ZM61.3993 67.6638H62.6741C63.3937 67.6638 63.8254 68.0339 63.8254 69.0619V76.5459C63.8254 77.5739 63.3937 77.944 62.6741 77.944H61.3993V67.6638ZM66.7081 75.9907V78.0468L67.7155 76.9776V80H73.6986V77.944H69.9771V74.5515L72.4649 71.8787V69.8227L69.9771 72.4955V65.6078H67.7155V74.9216L66.7081 75.9907ZM74.4933 69.0619V76.5459C74.4933 78.8486 75.7064 80.1645 77.9269 80.1645C80.1474 80.1645 81.3605 78.8486 81.3605 76.5459V69.0619C81.3605 66.7592 80.1474 65.4433 77.9269 65.4433C75.7064 65.4433 74.4933 66.7592 74.4933 69.0619ZM76.755 76.6898V68.918C76.755 67.89 77.2073 67.4994 77.9269 67.4994C78.6465 67.4994 79.0988 67.89 79.0988 68.918V76.6898C79.0988 77.7178 78.6465 78.1085 77.9269 78.1085C77.2073 78.1085 76.755 77.7178 76.755 76.6898Z" fill="white"/>
</svg>
