<svg width="79" height="26" viewBox="0 0 79 26" fill="none" xmlns="http://www.w3.org/2000/svg">
<path d="M33.6234 13.6829C33.6234 17.4235 30.7124 20.1799 27.1398 20.1799C23.5673 20.1799 20.6562 17.4235 20.6562 13.6829C20.6562 9.91603 23.5673 7.18604 27.1398 7.18604C30.7124 7.18604 33.6234 9.91603 33.6234 13.6829ZM30.7852 13.6829C30.7852 11.3455 29.098 9.74614 27.1398 9.74614C25.1816 9.74614 23.4945 11.3455 23.4945 13.6829C23.4945 15.997 25.1816 17.6198 27.1398 17.6198C29.098 17.6198 30.7852 15.9941 30.7852 13.6829Z" fill="#EA4335"/>
<path d="M47.6107 13.6829C47.6107 17.4235 44.6997 20.1799 41.1271 20.1799C37.5546 20.1799 34.6436 17.4235 34.6436 13.6829C34.6436 9.91896 37.5546 7.18604 41.1271 7.18604C44.6997 7.18604 47.6107 9.91603 47.6107 13.6829ZM44.7725 13.6829C44.7725 11.3455 43.0853 9.74614 41.1271 9.74614C39.169 9.74614 37.4818 11.3455 37.4818 13.6829C37.4818 15.997 39.169 17.6198 41.1271 17.6198C43.0853 17.6198 44.7725 15.9941 44.7725 13.6829Z" fill="#FBBC05"/>
<path d="M61.0152 7.57854V19.2425C61.0152 24.0405 58.2003 26.0001 54.8726 26.0001C51.74 26.0001 49.8547 23.8941 49.1437 22.1717L51.6147 21.1377C52.0547 22.1951 53.1329 23.443 54.8696 23.443C56.9998 23.443 58.3198 22.1219 58.3198 19.635V18.7006H58.2207C57.5855 19.4886 56.3616 20.1769 54.8172 20.1769C51.5856 20.1769 48.625 17.3473 48.625 13.7064C48.625 10.0391 51.5856 7.18604 54.8172 7.18604C56.3587 7.18604 57.5826 7.87439 58.2207 8.63891H58.3198V7.58147H61.0152V7.57854ZM58.5209 13.7064C58.5209 11.4187 57.0027 9.74614 55.0707 9.74614C53.1125 9.74614 51.472 11.4187 51.472 13.7064C51.472 15.9706 53.1125 17.6198 55.0707 17.6198C57.0027 17.6198 58.5209 15.9706 58.5209 13.7064Z" fill="#4285F4"/>
<path d="M65.4587 0.741211V19.7809H62.6904V0.741211H65.4587Z" fill="#34A853"/>
<path d="M76.2471 15.8198L78.45 17.2961C77.739 18.3535 76.0256 20.1755 73.065 20.1755C69.3934 20.1755 66.6514 17.3224 66.6514 13.6786C66.6514 9.81497 69.4167 7.18164 72.7474 7.18164C76.1014 7.18164 77.7419 9.86477 78.2781 11.3147L78.5724 12.0529L69.9325 15.6499C70.594 16.9534 71.6226 17.6183 73.065 17.6183C74.5104 17.6183 75.5128 16.9036 76.2471 15.8198ZM69.4663 13.4823L75.2418 11.0716C74.9241 10.2602 73.9684 9.69487 72.8436 9.69487C71.4011 9.69487 69.3934 10.9749 69.4663 13.4823Z" fill="#EA4335"/>
<path d="M10.1785 11.992V9.23569H19.4187C19.509 9.71607 19.5557 10.2843 19.5557 10.8995C19.5557 12.9675 18.9933 15.5246 17.1808 17.3466C15.4178 19.192 13.1653 20.1762 10.1814 20.1762C4.6507 20.1762 0 15.6477 0 10.0881C0 4.5285 4.6507 0 10.1814 0C13.2411 0 15.4207 1.20682 17.0584 2.77979L15.1235 4.72476C13.9492 3.61753 12.3582 2.75635 10.1785 2.75635C6.13974 2.75635 2.98099 6.02824 2.98099 10.0881C2.98099 14.1479 6.13974 17.4198 10.1785 17.4198C12.7982 17.4198 14.2901 16.3624 15.2459 15.4016C16.021 14.6224 16.531 13.5094 16.732 11.9891L10.1785 11.992Z" fill="#4285F4"/>
</svg>
