<svg width="79" height="100" viewBox="0 0 79 100" fill="none" xmlns="http://www.w3.org/2000/svg">
<path d="M15.8333 70.5831C16.0176 72.08 16.3465 73.7283 17.2811 74.9369C18.5755 76.5989 20.7862 77.3026 22.8542 77.7802C29.1265 79.4379 35.3989 81.0957 41.8506 81.5607C48.3024 82.0256 55.0059 81.3734 60.8722 78.6174C61.8492 78.183 62.8302 77.5992 63.3028 76.5599C63.6172 75.8919 63.6384 75.0704 63.6577 74.3235C63.7484 65.0605 63.6163 55.7944 63.1871 46.524C63.1437 45.328 63.1002 44.132 62.6836 43.0054C61.9206 40.9027 60.1006 39.4574 58.2728 38.3108C51.5461 34.1064 43.2666 32.4949 35.4317 33.8035C29.4612 34.8396 18.4395 38.718 16.0455 45.1093C14.8563 48.0062 15.2604 52.4947 15.1109 55.4063C14.8312 60.4828 15.0714 65.5666 15.8333 70.5831Z" fill="white"/>
<path d="M15.0467 67.5768C15.1088 70.9268 15.1672 74.4256 16.9288 77.2784C18.2448 77.4456 19.5627 77.5385 20.8787 77.7057C21.3901 77.7873 21.9766 77.7954 22.4955 77.5794C22.9411 77.3624 23.2475 76.8457 23.4054 76.4013C23.9524 75.0693 23.8452 73.5049 23.661 72.0882C23.0423 67.5396 21.4611 63.3497 20.0303 59.0131C19.2782 56.8442 18.5995 54.6764 18.0693 52.4362C17.6763 50.5701 17.8943 47.745 16.8302 46.3161C14.0367 52.3799 14.9186 61.0256 15.0467 67.5768Z" fill="#BCBCBB"/>
<path d="M53.7832 44.0492C52.0621 44.3995 50.0472 44.5958 48.8895 43.3057C48.0942 42.3953 48.127 41.1219 48.0091 39.9214C47.8361 37.9707 47.2166 36.0138 46.3681 34.2784C49.272 34.2445 52.2504 34.2117 54.9021 35.2982C56.743 36.0735 61.3728 38.3868 61.0859 40.8555C60.7892 43.6986 55.8019 43.7031 53.7832 44.0492Z" fill="#BCBCBB"/>
<path d="M51.1618 96.1197C51.9129 95.9045 52.6639 95.6893 53.201 95.0949C53.8929 94.2769 53.7766 92.996 54.1017 91.9471C54.6735 89.9987 56.5694 88.7461 57.2883 86.875C57.3686 86.6504 57.4508 86.3506 57.384 86.0487C57.2465 85.5952 56.8071 85.2881 56.3638 85.1313C50.9754 83.0239 44.9517 85.3471 39.1406 85.1902C35.7143 85.0668 30.9755 83.7962 28.0722 86.5395C25.7806 88.6895 25.6862 92.3754 27.7915 94.5872C32.7302 99.6982 45.0848 97.6145 51.1618 96.1197Z" fill="white"/>
<path d="M62.4333 76.0396C61.5679 75.7267 61.5962 75.1293 61.7084 74.309C62.1131 68.8598 62.5213 63.3359 62.9261 57.8866C63.0984 55.7968 63.1241 53.7046 63.2301 51.4642C62.3435 51.5994 61.6767 51.7382 61.0833 51.8782C55.6582 53.3605 50.2402 54.6935 44.6447 55.1269C40.9621 55.4415 37.2936 55.4573 33.5518 55.472C28.4174 55.4643 23.3739 55.0844 18.4426 53.8842C18.0063 53.8025 17.5665 53.7954 16.9104 53.7101C16.8184 55.6518 16.587 57.4417 16.5754 59.2352C16.5877 62.0754 16.6034 64.8409 16.6925 67.6075C16.7366 69.7756 16.9237 72.0207 17.041 74.1899C17.0754 75.0126 17.1134 75.7605 16.1393 76.1933C15.5008 75.7346 15.2394 75.0578 15.205 74.2352C15.1548 70.647 15.178 67.0601 15.1243 63.5466C15.0008 59.9573 14.8076 56.2921 14.6179 52.5523C12.3527 52.3665 10.2305 52.2577 8.11193 52.0742C7.60237 51.9913 7.08928 51.983 6.58326 51.8254C4.33928 51.1915 4.06022 50.8881 3.52075 48.3384C5.61651 45.9058 8.31538 44.6786 11.4708 44.6545C11.8373 44.6604 12.2073 44.5916 12.5005 44.5963C14.8284 45.0073 16.4348 43.6131 17.7552 42.0649C19.9242 39.6334 22.2955 37.5788 25.2178 36.2805C26.6423 35.6308 28.2063 35.1327 29.6971 34.6335C30.6676 34.2754 31.209 33.6862 31.6912 32.7971C33.5292 29.6129 35.7159 26.8081 39.5072 25.7479C41.5145 25.1822 43.5634 25.2898 45.3605 26.0661C46.8679 26.7629 48.0539 28.0524 48.5554 29.8541C48.8027 30.8297 49.0499 31.8052 49.2901 32.9301C52.2185 33.0519 54.9437 34.3661 57.5224 35.678C60.1779 36.9164 62.6691 38.5259 64.3849 41.0197C64.0634 41.6124 63.6792 41.9799 63.5812 42.5015C63.4063 43.0966 63.106 43.2412 62.5858 43.3824C61.769 43.5935 61.0183 43.9551 60.2711 44.242C59.0771 44.6713 58.9235 44.8183 59.01 46.0902C59.0788 47.7355 59.2942 49.3831 59.4398 50.9549C59.7295 51.0343 59.7992 51.1102 59.9458 51.1125C63.8802 50.1294 63.0279 51.0873 63.8265 46.6159C63.8335 46.4666 63.8442 46.2425 63.8512 46.0932C63.9714 43.5541 64.202 43.3336 66.6526 42.7003C69.4734 41.9982 72.2446 42.3416 74.9142 43.2813C76.9348 43.9864 77.1396 45.8581 75.4598 47.2511C75.0023 47.6174 74.4716 47.9826 73.9514 48.1237C71.347 48.904 68.8054 49.9095 66.0792 50.1647C65.4892 50.23 64.9655 50.4458 64.3685 50.6604C64.2351 51.9287 64.0355 53.0466 63.9824 54.1668C63.5424 60.3628 63.1756 66.56 62.8088 72.7572C62.6754 74.0256 62.4793 75.0687 62.4333 76.0396ZM46.5841 34.3067C45.9315 34.1467 45.3522 33.9879 44.7764 33.7545C43.6981 33.2888 42.5289 33.1953 41.3526 33.2511C39.3664 33.3687 37.4394 33.7862 35.4391 34.2025C34.4756 34.4112 33.5961 34.3971 33.173 35.5861C33.0891 35.809 32.7817 36.103 32.5583 36.1741C31.3679 36.5287 30.1668 37.1073 28.7953 36.6369C28.2195 36.4034 27.3258 36.688 26.5822 36.9003C25.9887 37.0402 25.458 37.4054 24.9343 37.6212C22.2283 38.9978 19.9339 40.9788 17.9079 43.4873C18.4139 43.6449 18.7733 43.8001 19.1363 43.8807C21.6911 44.1459 24.246 44.4111 26.8044 44.6017C28.2668 44.6999 29.7257 44.8728 31.1953 44.8216C36.4066 44.7558 41.6179 44.69 46.8327 44.5495C48.009 44.4936 49.1889 44.3631 50.3687 44.2326C51.6254 44.0285 52.9554 43.8257 54.2156 43.547C56.7361 42.9895 59.2601 42.3574 61.7876 41.6506C62.0843 41.5807 62.3881 41.3613 62.6919 41.142C61.7021 38.8093 56.0635 35.5051 52.1998 34.9947C52.123 35.0682 52.0426 35.2164 51.889 35.3634C50.9528 36.5441 50.6561 36.6141 49.3579 36.1448C48.9985 35.9896 48.6426 35.7597 48.2028 35.7526C47.1766 35.7362 46.6114 35.2787 46.5841 34.3067ZM20.9916 46.5262C20.5853 48.9113 20.8528 51.0082 21.3331 53.258C25.0501 53.7661 28.6135 54.4211 32.3588 54.3318C34.2681 54.2877 36.0935 54.4665 38.0028 54.4224C40.865 54.3936 43.7237 54.4395 46.6 54.112C49.6229 53.7868 52.6671 53.0136 55.6273 52.4632C56.2941 52.3244 56.9679 52.0363 57.5649 51.8217C57.5942 49.6548 57.3929 47.7084 56.9753 45.6839C56.3085 45.8226 55.7919 45.8891 55.2717 46.0302C50.2414 46.921 45.1484 47.5866 40.021 47.4296C34.8168 47.3461 29.6303 46.8891 24.4367 46.5815C23.3407 46.4892 22.2377 46.5462 20.9916 46.5262ZM45.8415 32.9495C46.3096 32.3591 46.1842 31.9087 45.6852 31.6017C45.0467 31.1431 44.478 30.7603 43.8396 30.3016C41.7811 28.8486 39.7216 28.965 37.6683 30.5015C36.5299 31.3053 35.4613 32.185 34.5878 33.5909C38.5151 32.7572 42.1669 31.5453 45.8415 32.9495ZM64.7581 47.0793C67.8994 47.3539 72.8078 45.938 73.835 44.385C71.8842 43.7558 69.9228 43.3507 67.8598 43.5418C65.1372 43.7223 64.8228 44.1656 64.7581 47.0793ZM20.6734 53.2474C20.5702 50.7794 20.3795 48.609 20.2657 46.3651C20.0493 46.2869 19.6864 46.2064 19.2501 46.1246C18.8579 48.2109 19.499 50.1644 19.1871 52.1025C18.9849 51.7256 18.9293 51.351 18.8737 50.9764C18.7943 49.5552 18.6416 48.1327 18.4888 46.7103C18.3811 45.8865 18.0394 45.3578 17.1421 45.7171C17.0431 47.8081 16.9441 49.8991 16.838 52.1395C18.1397 52.5341 19.2984 52.8516 20.6734 53.2474ZM7.82867 47.2118C9.36345 48.8806 12.4799 49.678 14.777 49.1917C14.8194 48.2956 14.9351 47.4006 15.0544 46.4309C12.5208 45.7177 10.3006 46.1304 7.82867 47.2118ZM58.0815 51.7552C58.6123 51.3901 58.8357 51.3189 58.8393 51.2442C58.7149 49.2244 58.594 47.1298 58.4872 44.7366C58.0995 45.1788 57.6456 45.4704 57.7118 45.6209C57.7629 47.6396 57.8944 49.5102 58.0815 51.7552ZM73.4807 47.2193C75.3486 46.5019 75.3486 46.5019 75.1084 45.377C74.6439 45.8927 74.1793 46.4084 73.4807 47.2193ZM6.35724 50.4018C6.43408 50.3283 6.44115 50.179 6.51798 50.1055C6.30869 49.8779 6.09941 49.6503 5.81328 49.4963C5.67022 49.4192 5.44325 49.5651 5.28958 49.7121C5.21275 49.7856 5.2719 50.0855 5.41496 50.1625C5.70462 50.2419 5.99428 50.3213 6.35724 50.4018Z" fill="black"/>
<path d="M36.1145 84.1137C36.8942 84.8008 37.5334 85.3357 38.2429 85.9468C39.2334 85.287 39.9957 84.7738 40.909 84.1879C41.2602 84.5684 41.6114 84.9488 42.0328 85.4054C42.2576 85.3338 42.63 85.2646 42.9356 85.0443C43.5503 84.5288 44.1439 84.463 44.8675 84.7742C45.3767 84.9321 46.0441 84.8674 46.571 84.6505C48.2219 84.076 48.2254 84.0011 49.5003 85.1459C50.3258 84.8586 51.1477 84.6463 51.9767 84.2841C52.7319 83.9208 53.3185 84.0049 53.8804 84.6136C54.6566 85.3757 55.6014 85.6903 56.7886 85.5586C57.5297 85.4951 58.2568 85.7314 58.9171 85.8166C59.2366 86.8716 58.5587 87.1611 58.0247 87.5279C56.8058 88.3341 55.5132 89.1391 54.217 90.0191C54.3152 91.0707 54.4205 91.9724 54.5222 92.949C54.5678 93.5497 54.5396 94.1493 54.4377 94.7478C54.2724 96.6953 53.9668 96.9156 51.9506 97.4094C46.0495 98.8932 40.0889 98.501 34.2021 98.1099C32.9517 98.0155 31.6416 97.6203 30.479 97.2272C29.1725 96.757 28.5579 95.6974 28.6986 94.2745C28.776 92.6257 28.3231 91.2686 27.7261 89.8343C27.3294 88.8531 27.2311 87.8015 27.1329 86.7499C27.0276 85.8482 27.4105 85.5541 28.2992 85.4929C28.8928 85.4271 29.4829 85.4362 30.073 85.4453C30.9581 85.459 31.4885 85.1672 31.6116 84.1191C31.6257 83.8193 31.9348 83.524 32.1772 83.0778C32.6724 83.5354 33.0236 83.9159 33.3783 84.2214C34.4354 85.2878 34.5092 85.289 35.7352 84.3329C35.816 84.1841 36.0408 84.1126 36.1145 84.1137ZM32.1691 92.6781C32.1444 93.2028 32.1338 93.4276 32.1233 93.6525C32.2845 96.5051 32.7832 96.8879 35.5124 96.9301C37.9465 96.9678 40.4474 97.1565 42.885 97.1192C45.2489 97.0807 47.6022 97.2671 50.0083 96.3293C49.9944 95.054 49.9805 93.7788 50.0509 92.2798C44.0096 92.0363 38.1613 92.3958 32.1691 92.6781ZM40.4592 85.906C38.1163 87.0699 38.1163 87.0699 36.0265 85.9875C34.5511 87.5397 33.6908 85.4263 32.2893 85.4046C31.9732 85.8498 31.5095 86.2926 31.1968 86.6628C30.0869 86.7206 29.1245 86.7807 28.2393 86.767C28.1759 88.1161 28.3514 89.0939 29.2084 89.7072C31.2105 89.5131 33.1354 89.3929 34.9935 89.1217C37.8175 88.7153 40.6134 88.9086 43.4936 88.8781C45.2639 88.9055 47.0236 89.1578 48.7131 89.3339C49.4192 88.4448 49.904 87.5522 51.1053 87.1208C50.624 87.9384 50.3043 88.4585 49.9811 89.0535C50.0513 89.1296 50.1216 89.2057 50.1918 89.2818C50.796 88.9911 51.4001 88.7005 52.0816 88.336C51.9691 89.1593 52.3941 89.5409 52.9174 89.399C53.6656 89.1855 54.3506 88.7461 54.9618 88.3055C55.573 87.865 56.3914 87.7276 56.5742 86.9804C55.6294 86.6658 54.6037 86.4999 53.9645 85.965C52.8969 85.1234 51.8642 85.1074 50.7261 85.7649C49.5915 86.3473 48.6221 86.5574 47.7933 85.3445C46.5884 85.8509 45.4574 86.3584 44.2983 85.8904C44.0068 85.8109 43.5572 85.954 43.2551 86.0993C42.1135 86.8317 41.2389 86.5931 40.4592 85.906ZM50.5814 91.988C50.6514 93.6391 49.998 94.9791 51.1112 96.4214C51.3536 95.9751 51.7365 95.681 51.7506 95.3812C51.8175 93.9572 51.5051 92.7523 50.5814 91.988ZM52.2353 96.0638C53.3419 94.5058 53.4052 93.1567 52.4956 92.0926C51.9194 93.3587 52.1582 94.5625 52.2353 96.0638ZM30.4055 95.651C31.0028 93.9352 31.0028 93.9352 30.2372 92.9483C30.3354 93.9998 30.3704 94.8254 30.4055 95.651ZM31.6453 95.9702C31.7191 95.9714 31.7964 95.8976 31.8701 95.8987C31.7473 95.3718 31.6244 94.8448 31.5015 94.3179C31.4277 94.3168 31.3505 94.3906 31.2767 94.3894C31.3996 94.9164 31.5224 95.4433 31.6453 95.9702Z" fill="black"/>
<path d="M63.5848 75.7315C64.1125 75.5819 64.6402 75.4323 65.1678 75.2827C65.2423 75.2836 65.3879 75.3633 65.6791 75.5227C65.4393 75.9096 65.2673 76.4532 64.8885 76.6046C61.5953 78.748 58.1597 80.7338 54.4046 81.4685C48.5487 82.5679 42.5636 83.1981 36.618 82.8933C33.5724 82.701 30.6045 82.4317 27.663 81.5391C24.3526 80.5642 21.052 79.3555 17.9168 77.759C17.1888 77.3605 17.1888 77.3605 17.2382 76.1918C18.4807 76.7523 19.652 77.234 20.8234 77.7157C24.6997 79.399 28.586 80.8486 32.8128 81.2888C38.4474 81.9017 44.034 81.8904 49.66 80.9442C51.3854 80.6529 53.1107 80.3617 54.7617 80.0696C57.2381 79.6314 59.5109 78.7231 61.5155 77.11C62.2797 76.6514 62.895 76.191 63.5848 75.7315Z" fill="black"/>
<path d="M70.2156 82.5371C71.9837 86.8214 71.7025 91.2217 71.4143 95.7712C70.4696 95.6812 70.4213 95.1578 70.4496 94.561C70.5061 93.3674 70.6355 92.1749 70.619 90.9801C70.492 89.0369 70.292 87.0925 69.9461 85.1458C69.6556 83.5732 69.4403 83.4951 67.9815 83.4713C64.7721 83.4191 61.5627 83.3669 58.3533 83.3147C57.7698 83.3052 57.1757 83.5195 56.6863 83.0636C57.6769 82.1838 59.2192 81.9849 63.4462 82.1284C65.7038 82.2397 67.9579 82.4257 70.2156 82.5371Z" fill="black"/>
<path d="M28.076 82.303C27.6977 82.5954 27.3888 82.9636 27.1703 82.96C24.6002 83.3659 21.9608 83.696 19.3908 84.1019C18.0693 84.3042 16.8101 84.7315 15.4816 85.083C14.6699 85.2937 14.1319 85.882 14.0203 86.7012C13.8875 87.9678 13.7512 89.3091 13.6913 90.5769C13.6102 92.2922 13.6748 94.0099 13.7358 95.8022C12.7127 95.8601 12.5953 95.2611 12.5612 94.4396C12.5342 93.4689 12.5108 92.4236 12.5601 91.3795C12.6483 89.515 12.4486 87.5712 13.0466 85.715C13.3837 84.7503 13.7796 84.085 14.8062 83.9525C16.7901 83.6116 18.8469 83.272 20.8344 82.8566C22.527 82.5111 24.2925 82.1667 25.9851 81.8211C26.6441 81.7572 27.2338 81.6176 28.076 82.303Z" fill="black"/>
<path d="M47.0097 1.93554C46.4965 2.29956 45.9089 2.73685 45.3957 3.10088C43.346 4.48255 41.4989 6.09097 39.9218 8.00175C39.7732 8.14829 39.6246 8.29482 39.547 8.44252C37.6591 10.9441 38.2326 12.3686 40.6091 13.1523C40.9568 13.307 41.3045 13.4616 41.6487 13.6907C42.9584 14.5314 43.3022 16.3247 42.3904 17.6504C41.779 18.6087 39.0676 20.501 37.5618 20.8488C37.7915 20.4801 37.8793 20.1091 38.0988 19.9637C38.6864 19.5264 39.3448 19.0903 39.9324 18.653C40.4456 18.289 40.9589 17.925 41.408 17.4109C42.3806 16.3096 42.0941 14.8152 40.8485 14.1245C40.1565 13.7408 39.3869 13.5048 38.6949 13.121C37.2401 12.3524 36.869 11.1546 37.6493 9.60323C37.9601 9.01244 38.2708 8.42166 38.7166 7.98205C40.5841 5.92705 42.4516 3.87206 44.9873 2.72178C45.7098 2.43566 46.2231 2.07164 46.8781 1.70993C46.8747 1.78436 46.9422 1.85995 47.0097 1.93554Z" fill="white"/>
<path d="M30.2906 5.62815C30.1343 5.92358 30.1275 6.07247 30.0562 6.0713C27.4484 6.92249 26.0588 9.20918 24.6726 11.4214C23.5956 13.1172 23.7684 14.0141 25.513 14.8622C26.6297 15.402 27.8315 15.6453 29.0263 16.0374C29.5898 16.1956 30.3028 16.2073 30.7915 16.4389C31.7691 16.9019 32.0165 17.7255 31.4695 18.7595C30.8477 19.8668 30.0189 20.8217 28.5484 21.766C28.7218 21.0984 28.6677 20.725 28.8206 20.504C29.3505 19.8422 29.9483 19.256 30.4069 18.593C30.8655 17.9301 30.7435 17.4811 30.1156 17.1728C29.766 17.018 29.3416 16.9366 28.9886 16.8563C27.2097 16.7526 25.6007 16.0557 24.1516 14.9889C23.0451 14.2257 22.7264 13.401 23.2837 12.1436C24.3066 10.0744 25.6791 8.15995 27.323 6.54793C28.0668 5.88964 29.0142 5.45819 30.2906 5.62815Z" fill="white"/>
<path d="M57.4375 4.22626C55.7759 5.2419 54.3818 6.55974 53.0512 8.02754C52.7537 8.39506 52.3859 8.76145 52.1586 9.1301C50.594 11.1154 50.8215 12.3105 52.8778 13.4609C53.0817 13.6131 53.3593 13.692 53.6334 13.8454C55.4089 14.9912 55.7267 17.3048 54.3125 19.0691C53.2728 20.3182 51.9088 20.9664 50.2472 21.982C50.4845 21.3901 50.5012 21.018 50.6483 20.8715C51.3036 20.3608 51.9555 19.9246 52.6776 19.4895C54.921 18.0364 54.9475 15.8773 52.7642 14.4271C52.3563 14.1226 51.8748 13.8914 51.4635 13.6614C49.8954 12.5934 49.6011 11.3227 50.6608 9.62712C51.871 7.71057 53.5459 6.39727 55.2878 5.15953C55.8795 4.49891 56.5314 4.06266 57.4375 4.22626Z" fill="white"/>
<path d="M18.3251 66.339C18.3855 68.1271 18.4426 69.9895 18.4865 72.1497C18.9425 71.3379 19.2421 70.896 19.6215 70.2319C20.4144 71.2872 20.2215 72.4755 20.385 73.5206C20.495 74.1925 20.615 74.6412 21.3777 74.8024C21.1447 75.3199 20.9183 75.6886 20.6887 76.1317C20.4855 75.9795 20.279 75.9017 20.2157 75.7517C20.1057 75.0798 19.9989 74.3334 19.8888 73.6615C19.7755 73.064 19.7353 72.3932 19.4821 71.7934C18.7931 73.1226 19.0066 74.6153 18.5241 76.0223C18.107 72.8137 17.8298 69.6074 18.3251 66.339Z" fill="black"/>
<path d="M61.1099 76.6938C61.0862 72.6794 60.9973 68.6648 60.9736 64.6505C61.0388 64.6508 61.1713 64.5769 61.2365 64.5772C61.361 64.8006 61.5488 65.0987 61.5428 65.3217C61.5171 66.288 61.4934 67.18 61.4677 68.1463C61.3926 70.9708 61.3175 73.7954 61.2404 76.6943C61.1771 76.6197 61.1099 76.6938 61.1099 76.6938Z" fill="black"/>
<path d="M59.6953 69.0064C59.8078 71.2398 59.9828 73.5484 60.0954 75.7817C59.3306 73.5398 59.2181 71.3065 59.6953 69.0064Z" fill="black"/>
<path d="M32.31 38.7414C31.7143 39.03 31.1185 39.3187 30.5954 39.6086C30.4699 40.7256 31.4328 40.3683 31.7682 40.9707C31.4703 41.115 31.1689 41.3339 30.7948 41.5516C30.9953 41.9279 31.2686 42.3054 31.604 42.9077C30.1462 42.9585 28.9101 42.9382 27.8405 42.4731C27.8476 42.324 27.8511 42.2495 27.8581 42.1004C28.5125 42.1111 29.1634 42.1963 29.8143 42.2816C29.8906 42.2082 29.9703 42.0603 29.9738 41.9858C29.2678 41.5266 28.4926 40.9917 27.7866 40.5325C27.8628 40.4591 27.8699 40.31 27.9461 40.2367C28.5243 40.3207 29.0333 40.3291 29.6115 40.4131C29.785 39.8191 29.8789 39.373 30.0524 38.779C30.7866 38.6418 31.5208 38.5046 32.2514 38.442C32.2479 38.5165 32.2444 38.5911 32.31 38.7414Z" fill="black"/>
<path d="M47.8444 40.6244C48.373 40.2602 48.8945 40.0451 49.3466 39.7543C49.7563 40.3573 49.7317 40.8788 49.2031 41.2429C48.6016 41.6059 48.1812 41.2263 47.8444 40.6244Z" fill="black"/>
</svg>
