<svg width="91" height="101" viewBox="0 0 91 101" fill="none" xmlns="http://www.w3.org/2000/svg">
<path d="M19.3836 10.7215L7.74496 84.3213L72.306 93.2258L77.5052 48.8072L82.7907 15.718L19.3836 10.7215Z" fill="white"/>
<path d="M45.6364 82.6036C45.104 81.7488 44.1228 80.9347 43.1093 80.2589C36.1211 75.6994 28.0415 72.0513 22.3388 65.7503C18.9274 62.1764 16.1588 57.7317 11.365 56.3145C10.0112 60.2292 10.7262 65.9431 9.99229 69.7115C10.3175 72.7068 9.05489 73.724 9.58354 76.4752C9.85739 78.4368 7.36074 82.2292 8.42562 83.9386C10.9395 87.5937 18.7851 85.349 23.2499 85.6673C27.0206 85.8228 30.2228 87.1583 33.8224 87.4195C36.2981 88.7305 40.5918 89.1546 43.3813 88.4959C46.2127 88.2849 47.1691 85.4445 45.6364 82.6036Z" fill="#BCBCBB"/>
<path d="M76.8373 46.2397C77.0655 38.9917 80.0635 31.8093 81.8527 24.7815L82.5036 20.1152C82.3132 19.0483 83.6 17.3057 82.928 16.4179C81.7877 14.398 76.4614 14.6087 74.1409 14.5024C73.4137 14.4778 72.8578 14.3474 72.1725 14.7708C71.038 15.2348 70.5431 16.725 70.3909 18.0036C67.7243 30.6668 73.0982 33.3879 75.3829 46.1906C75.9769 48.6664 76.432 51.1097 76.432 51.1097C77.2791 49.9941 76.1806 48.4221 77.06 47.1682C76.9858 46.8587 76.9858 46.8587 76.8373 46.2397Z" fill="#BCBCBB"/>
<path d="M10.2308 81.2873C10.5085 81.3525 10.9251 81.4503 11.2352 81.3771C17.016 81.7121 22.774 82.7718 28.3932 83.7989C34.6002 84.8179 40.7748 85.9754 47.1758 86.164C50.6378 86.3927 54.174 86.9308 57.7103 87.469C60.9688 87.9419 63.8754 88.0402 66.995 88.4805C67.4116 88.5783 67.9994 88.5703 68.726 88.5949C67.8054 89.4007 67.1434 89.0993 66.5233 89.2458C62.2281 88.8215 58.3818 88.3566 54.0866 87.9323C49.9302 87.5406 46.0192 87.3525 41.9275 86.684C36.8962 85.6489 31.8001 84.8906 26.5652 84.0997C21.5757 83.5124 16.9285 82.7136 11.939 82.1263C11.2123 82.1017 10.6246 82.1097 10.0044 82.2561C9.59738 82.7446 9.2645 83.5424 8.79275 84.3076C9.79713 84.3974 10.7045 84.9023 11.57 84.9595C14.4119 85.3347 16.9761 85.6446 19.7438 85.7103C24.2749 85.752 28.5055 86.4531 32.9072 87.0484C37.309 87.6437 41.5395 88.3448 46.0801 88.9727C49.6163 89.5108 53.0461 89.8779 56.4758 90.245C60.6321 90.6367 64.4784 91.1016 68.3247 91.5665C69.0513 91.5911 69.4679 91.6889 70.2688 92.0229C70.0748 92.8533 69.487 92.8613 68.9639 92.5925C64.5621 91.9972 60.128 91.5404 55.5874 90.9125C51.0145 90.423 46.4739 89.7951 41.8686 89.444C37.7123 89.0523 33.866 88.5874 29.6354 87.8863C24.604 86.8512 19.5593 87.1269 14.5375 86.6781C12.0056 86.2297 10.1026 86.2607 7.57077 85.8124C7.68108 84.0863 8.04143 82.575 8.15175 80.849C8.53405 76.7049 9.08302 72.5519 9.60418 68.4404C9.75635 67.1622 10.2551 64.4206 10.4396 63.004C11.4554 57.4027 12.1614 53.3458 13.0383 47.7119C14.248 41.2802 15.1464 34.4078 16.3562 27.9761C16.961 24.7602 17.3298 21.3629 17.5181 18.0493C17.9195 15.0776 18.0083 12.8902 18.0996 9.99173C19.3303 9.11269 20.7094 8.85245 21.9915 9.00742C26.4256 9.46431 30.7855 9.6118 35.2196 10.0687C40.2414 10.5176 44.6755 10.9745 49.6004 11.8385C50.4659 11.8957 51.0537 11.8877 51.9192 11.9449C54.7934 12.1816 57.2188 12.4589 59.3664 12.6711C64.1105 13.0548 68.5541 14.0979 72.9882 14.5548C75.8948 14.6531 78.459 14.963 81.4721 15.2324C81.7822 15.1591 81.921 15.1917 82.3376 15.2895C82.4441 15.4605 82.8284 15.6967 82.8702 16.1445C82.8379 16.2829 82.602 16.6655 82.1531 16.7062C81.843 16.7794 81.3941 16.82 81.1164 16.7548C75.0578 16.3545 68.7862 15.6123 62.5792 14.5932C59.043 14.0551 55.4421 13.7938 51.8089 13.6709C46.787 13.222 41.9687 12.5289 36.9791 11.9417C32.5127 11.6232 27.7686 11.2395 23.3345 10.7826C22.469 10.7254 21.1171 10.4802 19.9415 10.4963C19.2815 14.5751 18.9614 19.2955 18.4174 24.1316C19.5835 23.5294 20.9701 22.783 22.2009 21.904C21.3639 23.6054 17.9656 24.5466 18.4203 26.9892C19.7898 26.1428 21.9061 25.0466 22.9979 24.135C22.9979 24.135 22.9656 24.2734 23.1045 24.306C22.1838 25.1118 21.2955 25.7793 20.3748 26.5851C19.2829 27.4967 17.7154 29.5705 17.5309 30.9872C16.3668 35.9697 15.7935 40.2094 14.9717 44.9803C14.4867 47.0563 14.2912 49.507 13.9774 51.4772C13.3725 54.6931 12.9521 58.2241 12.4861 61.4725C11.6258 67.4698 11.3093 71.0289 10.5941 75.9708C10.0672 77.5991 9.92453 79.4635 10.2308 81.2873Z" fill="black"/>
<path d="M80.3282 19.4584C79.9861 19.6697 79.5052 19.8485 79.2277 19.7835C77.7756 19.7344 76.2589 19.9619 74.7973 19.3274C71.7449 18.6114 68.7343 18.3426 65.5203 18.3177C62.1353 18.3985 58.8149 18.2029 55.3139 17.5275C53.4456 17.3808 51.5449 17.3724 49.9541 17.2908C46.2175 16.9976 42.8229 16.4929 39.2573 16.0939C38.3925 16.0369 37.3567 16.0855 36.3531 15.9959C31.8582 15.8163 27.2244 15.6042 22.7294 15.4247C22.3132 15.327 21.6936 15.4733 21.3096 15.2374C21.1709 15.2049 21.0967 14.8959 20.8838 14.5543C21.2259 14.3429 21.2582 14.2047 21.7068 14.1641C21.8455 14.1967 22.123 14.2618 22.5716 14.2212C27.6216 14.5309 32.8749 14.5968 37.8926 15.0448C41.213 15.2404 44.3623 15.5417 47.6181 16.0139C49.4865 16.1605 51.4936 16.3397 53.1908 16.592C54.4719 16.7467 55.9885 16.5193 57.376 16.8447C61.3256 17.4796 65.2656 17.529 68.9699 17.9605C72.5355 18.3594 76.0365 19.0349 79.5375 19.7103C79.8701 18.9135 79.9765 19.0843 80.3282 19.4584Z" fill="black"/>
<path d="M83.2243 17.658C83.2015 18.3829 83.2435 18.8309 83.1139 19.3848C82.3589 21.9831 81.9472 24.3697 81.7491 27.0984C81.6291 28.2387 81.1982 29.4523 80.7998 30.5275C79.8312 32.7836 79.5911 35.0643 79.2442 37.174C78.236 43.3644 77.613 49.791 76.6048 55.9814C75.5089 63.1737 74.1022 70.4393 73.628 77.485C73.1611 80.735 72.6942 83.9849 72.0881 87.2023C72.0653 87.9272 71.7964 88.4485 71.4627 89.2467C71.2911 89.3526 70.8086 89.5318 70.6694 89.4992C71.1687 86.1107 71.7749 82.8933 72.1674 79.3338C73.1888 71.832 74.2103 64.3302 75.2642 56.6899C76.4344 49.8072 77.3587 42.7208 78.2181 35.9113C78.5974 33.6632 79.2551 31.4803 79.7412 29.4033C79.926 27.986 80.4541 26.357 80.8106 24.8338C80.9439 22.3821 81.4948 20.0281 82.6026 17.8045C82.5054 18.2199 82.8162 18.1467 83.2243 17.658Z" fill="black"/>
<path d="M60.4708 63.0061C58.7397 62.8917 57.606 63.3556 56.653 64.2998C56.2783 64.6499 55.5611 65.2115 56.0196 65.7571C56.2326 66.0991 56.8299 66.6773 57.2465 66.7751C57.9408 66.9381 58.6675 66.9627 59.6395 67.1909C58.0664 68.2815 55.3957 67.8006 54.8212 66.4978C54.6081 66.1558 54.6633 65.2927 54.9315 64.7717C55.8845 63.8274 57.393 63.0136 58.6237 62.1345C59.512 61.4671 59.8963 61.7033 60.4708 63.0061Z" fill="black"/>
<path d="M28.8351 30.6145C29.6588 30.2239 30.2466 30.2158 30.686 29.589C31.5096 29.1984 31.8425 28.4006 32.0365 27.5702C32.1887 26.292 31.4849 25.5428 29.9346 25.9089C29.1756 26.0227 28.6943 26.2017 27.903 26.4539C28.8047 24.4757 31.3916 24.061 32.2115 25.5674C32.8507 26.5934 33.0085 27.7984 32.5787 29.0114C31.8064 30.436 30.6403 31.0382 28.8351 30.6145Z" fill="black"/>
<path d="M60.3387 32.2932C58.0102 31.6006 57.0609 30.6478 57.0647 28.7508C57.0134 27.7168 57.9987 26.6341 59.1002 26.3087C59.9981 26.2275 60.3824 26.4637 61.267 27.6933C61.1281 27.6607 60.818 27.7339 60.8504 27.5955C59.9429 27.0905 59.1192 27.4811 58.5409 28.0753C57.8238 28.637 58.0463 29.5652 58.7502 30.3144C58.9633 30.6564 59.2829 31.1694 59.6995 31.2672C60.0838 31.5034 60.5004 31.6012 60.7458 31.8048C60.5746 31.9106 60.2645 31.9838 60.3387 32.2932Z" fill="black"/>
<path d="M18.5399 66.4648C17.4159 67.5147 16.9119 68.4182 17.5186 69.5824C18.1671 71.1944 19.6202 71.2436 21.0409 71.4311C21.0085 71.5695 21.115 71.7404 20.9762 71.7079C19.3615 72.3506 18.3155 71.8131 17.1953 70.9663C16.0751 70.1194 15.9172 68.9146 16.3794 67.5633C16.6703 66.3179 16.9803 66.2447 18.5399 66.4648Z" fill="black"/>
<path d="M40.8697 65.4158C42.7855 64.1135 42.7855 64.1135 42.4049 61.9802C41.9883 61.8824 41.3681 62.0288 40.6737 61.8659C40.7384 61.589 40.7289 61.0028 41.039 60.9296C41.3814 60.718 41.9693 60.71 42.247 60.7752C43.3581 61.0359 44.0068 62.6482 43.6834 64.0323C43.2211 65.3837 42.7075 65.7012 40.8697 65.4158Z" fill="black"/>
<path d="M52.1062 46.7289C52.8975 46.4769 53.4206 46.7456 53.6757 47.5351C53.9307 48.3246 53.0424 48.9916 52.0476 49.4877C51.1497 49.5687 50.2422 49.0639 50.2326 48.4779C50.6624 47.2655 51.0048 47.054 52.1062 46.7289Z" fill="black"/>
<path d="M25.822 52.6906C26.1644 52.4793 26.6037 51.8532 27.0527 51.8128C27.7052 51.5284 28.1962 51.9354 28.3125 52.6919C28.4288 53.4484 28.0541 53.798 27.3273 53.7732C26.6328 53.6102 26.0772 53.4798 25.822 52.6906Z" fill="black"/>
<path d="M38.7984 34.8523C39.4507 34.5678 39.9319 34.3889 40.4873 34.5193C40.7973 34.4462 41.2881 34.8532 41.3946 35.0241C41.6077 35.3659 41.3396 35.8866 41.1361 36.1306C40.0768 36.9033 39.276 36.5694 38.7984 34.8523Z" fill="black"/>
<path d="M65.5352 83.3242C67.2885 82.7141 68.69 81.7295 70.3369 80.9485C69.0514 82.6901 67.0622 83.6827 65.5352 83.3242Z" fill="black"/>
<path d="M66.0196 81.2557C67.7313 80.1977 68.9847 78.5941 71.0577 78.4969C70.0954 78.8549 69.3784 79.4165 68.3513 80.0513C67.5278 80.4419 66.6396 81.1093 65.9226 81.6709C66.2326 81.5976 66.2973 81.3209 66.0196 81.2557Z" fill="black"/>
<path d="M21.7248 40.3457C22.132 39.8577 22.4325 39.1988 22.8073 38.8491C23.1821 38.4995 23.8446 38.8008 23.9932 39.4193C24.0675 39.7285 23.7993 40.2491 23.628 40.3547C23.2855 40.5661 22.5262 40.6796 21.9381 40.6875C21.9058 40.8258 21.9704 40.5492 21.7248 40.3457Z" fill="black"/>
<path d="M46.6404 24.5618C45.1449 24.0648 44.6863 23.5193 45.3293 22.6487C45.5005 22.5429 46.0142 22.2257 46.1207 22.3966C46.2273 22.5676 46.6116 22.8037 46.6859 23.113C46.6955 23.6991 46.7374 24.1467 46.6404 24.5618Z" fill="black"/>
<path d="M69.7955 38.7528C70.6932 38.6718 71.6005 39.1765 71.6424 39.624C71.7166 39.9332 71.4809 40.3156 71.1385 40.527C70.7962 40.7384 69.7178 40.3394 69.6017 39.5827C69.2174 39.3466 69.5274 39.2735 69.7955 38.7528Z" fill="black"/>
<path d="M61.8418 79.5343C62.013 79.4286 62.0034 78.8425 62.4524 78.802C63.2115 78.6883 63.5635 79.0628 63.5408 79.7872C63.615 80.0966 63.3792 80.479 63.0368 80.6905C62.5554 80.8695 61.958 80.2914 61.8418 79.5343Z" fill="black"/>
<path d="M39.2461 76.728C38.5612 77.1505 38.432 77.7035 38.1218 77.7765C37.9829 77.7439 37.4272 77.6134 37.3851 77.1661C37.0975 76.5153 37.4723 76.1658 38.2315 76.0524C38.2315 76.0524 38.4448 76.3941 39.2461 76.728Z" fill="black"/>
<path d="M32.3175 25.5882L26.9643 51.6341L23.6059 73.6236L56.3554 78.8274L62.424 58.4975L67.3605 32.3538L58.6796 28.1261L32.3175 25.5882Z" fill="white"/>
<path d="M51.1045 64.0282C50.9435 64.1485 50.9435 64.1485 51.0646 64.3091C50.9235 64.2889 50.9036 64.4293 50.7426 64.5496C50.6016 64.5295 50.4406 64.6498 50.3195 64.4892C44.2538 63.6227 38.4487 61.9338 32.3033 61.6291C32.3033 61.6291 32.1821 61.4685 32.061 61.3079C32.5041 61.228 32.9472 61.148 33.3704 61.2084C36.3925 61.2103 39.315 61.9143 42.2773 62.3374C45.2197 62.901 47.8799 63.4243 50.8423 63.8475C50.9833 63.8676 50.9634 64.008 51.1045 64.0282Z" fill="black"/>
<path d="M47.8541 72.4495C45.6247 71.3435 43.5854 71.3026 41.6107 70.9852C38.3551 70.5132 35.3769 70.1063 32.0566 69.9108C31.7791 69.8457 31.534 69.6424 31.15 69.4066C31.4598 69.3334 31.8019 69.1221 32.0794 69.1872C37.0645 69.7732 41.7076 70.5706 46.6605 71.2948C47.0767 71.3925 47.9092 71.5877 47.8541 72.4495Z" fill="black"/>
<path d="M30.7833 34.1293L30.0404 37.3089L65.1196 41.8928L65.8302 38.8515L30.7833 34.1293Z" fill="#F15748"/>
<path d="M24.8059 68.9391C25.8332 68.3042 26.657 67.9136 27.6196 67.5555C26.9861 69.0128 25.468 69.2405 24.7375 71.1131C25.9778 70.8202 27.0794 70.4948 28.0743 69.9983C28.042 70.1367 28.042 70.1367 28.042 70.1367C26.8758 70.739 25.506 71.5855 24.104 72.5704C25.0438 72.937 25.3957 73.3116 25.9836 73.3036C27.2335 73.597 28.5157 73.752 29.9368 73.9395C36.8712 74.9832 43.9445 76.0595 50.7724 76.9322C52.7813 77.1117 55.0681 77.3565 57.2482 77.4302C57.4099 76.7382 57.8171 76.2497 58.0111 75.4193C58.8747 71.0959 59.9838 66.9762 60.8798 62.5144C61.6465 58.6063 62.2419 54.804 63.0085 50.8959C63.0313 50.1712 63.2996 49.6502 63.3871 48.6487C64.2507 44.3254 65.2209 40.173 66.0522 35.9881C66.5373 33.9119 66.7447 31.7706 67.2621 29.556C65.9057 29.0916 64.4103 28.5946 63.1604 28.3012C62.1559 28.2114 61.0773 27.8122 59.9016 27.8283C54.9533 27.6888 50.2638 26.442 45.3384 25.5779C41.1397 24.7384 37.2188 23.964 33.0068 24.4354C32.2477 24.5492 31.8311 24.4514 31.6085 23.5231C31.9509 23.3115 32.4322 23.1325 32.7423 23.0593C36.1306 22.9786 39.593 23.2073 42.9261 23.9897C47.2636 24.8618 51.43 25.8398 55.6934 26.4025C58.2255 26.8508 60.7158 26.8514 63.1414 27.1287C65.0115 27.2757 66.7522 27.9763 68.396 29.0921C68.3085 30.0936 67.9109 31.1683 67.8234 32.1698C67.422 35.1416 66.9464 37.804 66.2996 40.5722C65.8564 43.0962 65.1354 45.555 64.5209 48.1849C64.2298 49.4306 63.8323 50.5052 63.8836 51.5393C63.9217 53.8843 63.2977 55.9279 62.6738 57.9714C62.5121 58.6635 62.3827 59.2171 62.2952 60.2186C61.5514 63.4021 61.0853 66.6507 60.3415 69.8342C59.7917 72.1872 59.1773 74.817 58.6275 77.17C58.1329 78.6599 57.994 78.6273 56.5405 78.5781C52.1383 77.9828 48.0138 77.4527 43.6116 76.8574C41.0794 76.409 38.6215 76.2701 36.0893 75.8217C33.8349 75.4385 31.6871 75.2264 29.7428 74.77C27.7338 74.5904 25.6183 74.2399 23.674 73.7835C23.6322 73.3357 23.4514 72.8552 23.5161 72.5784C23.8756 69.1587 24.4806 65.9427 24.9466 62.694C25.6391 58.4765 26.1926 54.2264 27.0563 49.903C27.5547 46.516 28.2985 43.3325 29.0004 39.7012C29.5407 36.762 30.4653 34.0589 31.1767 31.0139C31.4678 29.7682 31.5781 28.0421 31.8692 26.7964C31.9338 26.5195 32.1374 26.2753 32.2344 25.8601C33.2389 25.9499 33.1838 26.8129 32.8832 27.4724C32.5921 28.7181 32.3753 30.2732 32.0519 31.6573C30.6004 35.9887 29.8432 40.483 29.0538 45.1158C27.96 52.3052 26.6626 59.7388 25.7076 66.9607C24.8516 67.4898 25 68.1086 24.8059 68.9391Z" fill="black"/>
<path d="M35.8788 34.8757L35.5719 33.0517L36.4508 31.7982L35.895 31.6677L34.9515 33.198L35.168 31.6429L34.6122 31.5124L34.2115 34.4841L34.1889 35.2087L34.7446 35.3392L34.9062 34.6472L35.0031 34.232L35.239 33.8495L35.4296 34.9162L35.546 35.6734L36.1017 35.804L35.8788 34.8757Z" fill="black"/>
<path d="M38.2059 34.9901L38.5744 32.1567L38.0185 32.0262L37.65 34.8596L37.6177 34.998C37.5854 35.1364 37.4141 35.2422 37.2751 35.2096C37.1362 35.1769 36.9972 35.1443 37.0295 35.0059L37.0618 34.8675L37.4303 32.0341L36.8744 31.9035L36.506 34.737L36.4736 34.8754C36.5156 35.3232 36.7289 35.6653 37.1459 35.7632C37.7017 35.8937 37.9053 35.6495 38.1736 35.1285L38.2059 34.9901Z" fill="black"/>
<path d="M40.3911 35.651L40.4558 35.3742L40.5527 34.959C40.6173 34.6822 40.6497 34.5438 40.543 34.3728C40.5753 34.2344 40.4364 34.2017 40.3298 34.0307C40.64 33.9575 40.7046 33.6807 40.7693 33.4039L40.8339 33.1271C40.9632 32.5735 40.7499 32.2314 40.0228 32.2066L39.1567 32.1493L38.7559 35.1211L38.5943 35.8131L39.1502 35.9436L39.2148 35.6668L39.3118 35.2516L39.4411 34.698L39.5057 34.4211L39.6446 34.4538C39.7836 34.4864 39.9226 34.519 39.8902 34.6574C39.8902 34.6574 39.9969 34.8285 39.9646 34.9669L39.8676 35.3821L39.803 35.6589C39.7383 35.9357 39.7383 35.9357 39.845 36.1068L40.4008 36.2373C40.3265 35.9279 40.3265 35.9279 40.3911 35.651ZM39.635 33.8675L39.496 33.8349L39.6156 32.695L39.8935 32.7603C40.1714 32.8255 40.1391 32.9639 40.1068 33.1023L40.0421 33.3792C40.0842 33.827 39.9129 33.9328 39.635 33.8675Z" fill="black"/>
<path d="M42.7267 35.0221L42.1708 34.8916L42.0415 35.4452L42.0092 35.5836C41.9768 35.7221 41.8378 35.6894 41.6989 35.6568C41.5599 35.6242 41.4209 35.5915 41.4532 35.4531L41.4855 35.3147L41.5502 35.0379L41.8314 33.2059C41.896 32.9291 42.035 32.9617 42.2063 32.8559C42.3453 32.8885 42.4843 32.9212 42.4196 33.198L42.3227 33.6132L42.8786 33.7438L42.9756 33.3285C43.1049 32.7749 42.7526 32.4002 42.1966 32.2696C41.6407 32.1391 41.2658 32.4891 41.2755 33.0753L41.1235 34.3537L40.9619 35.0458L40.9296 35.1842C40.865 35.461 40.9716 35.632 41.2173 35.8357C41.3239 36.0068 41.4629 36.0394 41.7409 36.1047C42.2968 36.2352 42.5004 35.991 42.6297 35.4373L42.662 35.2989L42.7267 35.0221Z" fill="black"/>
<path d="M44.6252 36.1973L43.4813 36.0747L43.5136 35.9363L44.8224 33.4697L44.9517 32.916L43.2519 32.6628L43.1226 33.2165L44.1276 33.3065L42.8511 35.6347L42.8188 35.7731L42.6895 36.3268L44.3893 36.5799L44.6252 36.1973Z" fill="black"/>
<path d="M46.567 37.392L46.428 37.3593C46.289 37.3267 46.289 37.3267 46.3213 37.1883C46.3213 37.1883 46.3536 37.0499 46.525 36.9441L46.803 37.0094L46.9323 36.4557L45.649 36.3004L45.6813 36.162L45.7686 35.1605L46.6349 35.2179L46.7642 34.6642L45.8979 34.6068L45.9852 33.6053L46.9904 33.6953L47.1197 33.1417L45.5585 32.9211L45.1253 36.0315L44.9637 36.7236L46.108 36.8462C45.7977 36.9194 45.7653 37.0578 45.7007 37.3346C45.6684 37.473 45.775 37.6441 46.053 37.7093C46.192 37.7419 46.331 37.7746 46.3633 37.6362L46.567 37.392Z" fill="black"/>
<path d="M50.0114 34.5618C50.1407 34.0082 49.7884 33.6335 49.2324 33.5029L48.3661 33.4455L47.933 36.5559L47.7713 37.248L48.3273 37.3785L48.4889 36.6864L48.5439 35.8233L48.8219 35.8886C49.3779 36.0191 49.7528 35.6691 49.7431 35.0829L50.0114 34.5618ZM48.9835 35.1965L48.7055 35.1313L48.8251 33.9913L49.1031 34.0566C49.2421 34.0892 49.3811 34.1218 49.3164 34.3987L49.2195 34.8139C49.2938 35.1234 49.2615 35.2618 48.9835 35.1965Z" fill="black"/>
<path d="M50.6299 36.8816L51.063 33.7708L50.5059 33.6401L50.0727 36.7509L49.911 37.4431L50.4681 37.5737L50.6299 36.8816Z" fill="black"/>
<path d="M52.7485 37.2339L51.7432 37.1439L51.7755 37.0055L51.8628 36.0039L52.7291 36.0613L52.8584 35.5076L51.9921 35.4502L52.0794 34.4486L53.0847 34.5386L53.214 33.985L51.6527 33.7644L51.2196 36.8749L51.058 37.567L52.6192 37.7876L52.7485 37.2339Z" fill="black"/>
<path d="M55.09 36.6103L54.5341 36.4797L54.4048 37.0334C54.3725 37.1718 54.3725 37.1718 54.3725 37.1718C54.3402 37.3102 54.2012 37.2776 54.0622 37.2449C53.9233 37.2123 53.7843 37.1797 53.8166 37.0413C53.8166 37.0413 53.8489 36.9029 53.7099 36.8702L54.1624 34.9324C54.2271 34.6556 54.3661 34.6882 54.5374 34.5825C54.6763 34.6151 54.8153 34.6477 54.7507 34.9246L54.6537 35.3398L55.2096 35.4703L55.3066 35.0551C55.4359 34.5014 55.0836 34.1267 54.5277 33.9962C53.9718 33.8657 53.5968 34.2156 53.6065 34.8019L53.293 36.7723C53.2607 36.9107 53.2607 36.9107 53.2283 37.0491C53.2704 37.497 53.516 37.7007 53.9329 37.7986C54.3499 37.8965 54.6925 37.6849 54.7894 37.2697C54.7894 37.2697 54.8218 37.1313 54.8541 36.9929L55.09 36.6103Z" fill="black"/>
<path d="M56.8548 37.7611L55.7107 37.6385L55.743 37.5001L57.052 35.0333L57.1813 34.4797L55.7592 34.2917L55.6299 34.8454L56.6351 34.9354L55.3261 37.4022L55.2937 37.5406L55.1644 38.0942L56.8645 38.3474L56.8548 37.7611Z" fill="black"/>
<path d="M59.3926 35.7191C59.5219 35.1654 59.1696 34.7907 58.6137 34.6601C58.0577 34.5296 57.6828 34.8796 57.5535 35.4332L57.24 37.4037C57.2077 37.5421 57.2077 37.5421 57.1753 37.6805C57.2174 38.1284 57.463 38.332 58.0189 38.4626C58.4359 38.5605 58.7785 38.3489 58.8754 37.9337C58.9078 37.7953 58.9078 37.7953 58.9401 37.6568L59.3926 35.7191ZM58.1482 37.9089C58.0092 37.8763 58.0092 37.8763 57.9026 37.7052C57.9026 37.7052 57.9349 37.5668 57.8282 37.3958L58.1418 35.4254C58.2064 35.1485 58.2387 35.0101 58.5167 35.0754C58.6557 35.108 58.7947 35.1407 58.73 35.4175L58.4165 37.3879C58.3842 37.5263 58.3842 37.5263 58.3518 37.6647C58.4262 37.9742 58.2872 37.9416 58.1482 37.9089Z" fill="black"/>
<path d="M61.4188 38.255L61.8518 35.1449L61.296 35.0144L61.0568 37.2941L60.7079 35.0223L60.0131 34.8591L59.58 37.9692L59.4507 38.5228L60.0066 38.6533L60.1358 38.0997L60.3427 35.9584L60.5527 38.1976L60.5624 38.7839L61.1182 38.9144L61.4188 38.255Z" fill="black"/>
<path d="M63.5272 38.5906L62.522 38.5006L62.6416 37.3607L63.5078 37.4181L63.6371 36.8644L62.7709 36.807L62.8582 35.8055L63.8634 35.8955L63.9927 35.3419L62.4315 35.1213L61.9984 38.2317L61.8691 38.7853L63.4302 39.0059L63.5272 38.5906Z" fill="black"/>
<path d="M54.6284 42.9365C54.4896 42.9039 54.2121 42.8388 54.0734 42.8063C53.9346 42.7737 53.6571 42.7086 53.5184 42.6761C53.3796 42.6435 53.3796 42.6435 53.2408 42.611C52.8246 42.5133 52.2696 42.3831 51.8211 42.4236L47.978 41.9591C46.9745 41.8694 45.971 41.7797 44.8287 41.6574C43.6864 41.5352 42.5442 41.4129 41.4342 41.1525L38.5946 40.7777C38.3171 40.7126 37.7298 40.7206 37.4103 40.2085C36.0326 40.4681 34.5805 40.4189 33.364 39.9877L33.664 39.3295C34.8805 39.7607 36.3325 39.8099 37.5715 39.5177L37.8813 39.4446L37.9555 39.7535C38.0621 39.9242 38.3396 39.9893 38.7558 40.087L41.5954 40.4617C42.7376 40.584 43.8799 40.7062 44.9899 40.9667C45.9934 41.0564 46.997 41.1461 48.1392 41.2684L51.9823 41.7328C52.5373 41.863 52.9858 41.8225 53.5408 41.9527C53.6796 41.9853 53.8183 42.0178 53.8183 42.0178C53.9571 42.0504 54.0958 42.0829 54.2346 42.1155C54.7896 42.2457 55.3769 42.2378 55.9964 42.0917C56.8934 42.0107 57.7904 41.9297 58.5584 42.4013L58.1197 43.027C57.4581 42.7261 56.7321 42.7014 55.9739 42.815C55.5254 42.8555 55.0769 42.896 54.6284 42.9365Z" fill="black"/>
<path d="M45.8254 45.5334C43.2311 45.3618 40.84 44.9465 38.3102 44.4987L36.7516 44.2787C36.4741 44.2136 36.1966 44.1485 36.0578 44.116C35.9191 44.0834 35.9191 44.0834 35.8126 43.9127L35.6738 43.8801C35.535 43.8476 35.3963 43.815 35.2575 43.7825L32.973 43.5379L32.9954 42.8146L35.3122 42.921C35.451 42.9536 35.7607 42.8805 36.006 43.0838C36.1448 43.1163 36.1448 43.1163 36.2513 43.287L36.39 43.3196C36.5288 43.3521 36.6675 43.3847 36.9451 43.4498L38.5036 43.6698C41.7272 44.2804 45.1219 44.7854 48.5067 44.7053L48.4843 45.4286C47.555 45.6477 46.6902 45.5905 45.8254 45.5334Z" fill="black"/>
<path d="M56.8592 46.9534C55.9944 46.8961 55.3006 46.7332 54.5002 46.3997C54.3614 46.3671 54.2227 46.3345 54.0839 46.302C53.6998 46.0661 53.2835 45.9684 52.835 46.0088L52.8574 45.2856C53.4769 45.1396 53.9998 45.408 54.5226 45.6764C54.6614 45.709 54.8001 45.7415 54.8001 45.7415C55.878 46.1402 57.0204 46.2627 58.195 46.2469L58.1726 46.9702C57.8628 47.0432 57.2755 47.0511 56.8592 46.9534Z" fill="black"/>
<path d="M49.7101 49.5118C48.6001 49.2514 47.3513 48.9584 46.2413 48.698C44.715 48.34 43.1243 48.2583 41.7045 48.0709C38.865 47.6962 35.8545 47.4272 32.844 47.1581L32.8665 46.4348C35.877 46.7038 38.8552 47.1111 41.727 47.3476C43.1468 47.5349 44.7053 47.7548 46.2638 47.9747C47.3738 48.2351 48.6225 48.528 49.7325 48.7884L49.7101 49.5118Z" fill="black"/>
<path d="M57.1407 50.3957C56.0949 49.8586 54.8136 49.7034 53.6389 49.719L53.5225 48.963C54.8682 48.8419 56.256 49.1679 57.4406 49.7375L57.1407 50.3957Z" fill="black"/>
<path d="M46.6334 52.7428C45.1814 52.6936 43.6551 52.3355 42.2676 52.01L41.8513 51.9123C41.2963 51.7821 40.8801 51.6845 40.4638 51.5868C40.1863 51.5217 39.7378 51.5622 39.4603 51.4971C39.044 51.3994 38.5955 51.4399 38.318 51.3748C38.0405 51.3097 37.763 51.2446 37.4855 51.1795C37.3468 51.147 37.208 51.1144 36.9305 51.0493C35.8205 50.7889 34.646 50.8048 33.5037 50.6825L33.5262 49.9592C34.7007 49.9433 36.014 49.96 37.124 50.2204C37.2627 50.2529 37.4015 50.2855 37.679 50.3506C37.9565 50.4157 38.234 50.4808 38.5115 50.5459C38.9278 50.6436 39.2375 50.5705 39.6538 50.6682C39.9313 50.7333 40.3798 50.6928 40.6573 50.7579C41.2123 50.8881 41.6285 50.9857 42.1835 51.1159L42.5998 51.2136C44.5101 51.8075 46.5171 51.9869 48.5564 52.0282L48.5339 52.7515C47.9467 52.7594 47.2206 52.7348 46.6334 52.7428Z" fill="black"/>
<path d="M53.4009 53.7502C52.8135 53.758 52.1196 53.595 51.5644 53.4646L51.7256 52.7739C52.4195 52.9368 53.1457 52.9616 53.8718 52.9865C54.1494 53.0516 54.4592 52.9787 54.598 53.0113C55.4629 53.0687 56.2213 52.9553 57.0218 53.2891L56.8606 53.9799C56.1667 53.8169 55.4406 53.7921 54.5756 53.7347C54.2981 53.6695 53.9882 53.7424 53.7107 53.6772C53.6784 53.8154 53.5397 53.7828 53.4009 53.7502Z" fill="black"/>
<path d="M39.5176 56.1929C39.0691 56.2334 38.5141 56.1031 38.0978 56.0054C37.404 55.8426 36.5714 55.6472 35.8776 55.4844C34.49 55.1587 33.1024 54.833 31.7568 54.9544L31.7792 54.2311C33.2635 54.1423 34.7899 54.5005 36.1775 54.8262C36.8713 54.989 37.7039 55.1844 38.3977 55.3473C39.9563 55.5674 41.5794 55.5112 43.0315 55.5605L43.0091 56.2838C41.8345 56.2996 40.66 56.3153 39.5176 56.1929Z" fill="black"/>
<path d="M52.0602 58.2392C51.9214 58.2066 51.7827 58.174 51.6439 58.1414C50.95 57.9786 50.4272 57.7101 49.7656 57.409L49.3815 57.1732C48.8587 56.9047 48.0583 56.5711 47.3 56.6845L47.1836 55.9286C48.1129 55.7096 49.052 56.0758 49.7137 56.3768L50.0977 56.6127C50.6206 56.8812 51.1434 57.1496 51.6985 57.28C52.2536 57.4103 52.7021 57.3698 53.3217 57.2239C53.909 57.216 54.5285 57.07 55.0836 57.2003L54.9225 57.8911C54.3674 57.7608 53.8866 57.9394 53.2993 57.9472C52.9573 58.1583 52.5088 58.1988 52.0602 58.2392Z" fill="black"/>
<path d="M40.6072 59.5268C40.1586 59.5672 39.6035 59.4369 39.1872 59.3391C38.7709 59.2414 38.3546 59.1437 37.9383 59.0459C37.6607 58.9808 37.2444 58.883 36.9669 58.8179C35.3016 58.427 33.6785 58.4831 31.9165 58.5066L31.9389 57.7833C33.7008 57.7598 35.4628 57.7362 37.128 58.1272C37.4056 58.1923 37.8219 58.29 38.0994 58.3552C38.5158 58.4529 38.7933 58.5181 39.2096 58.6158C40.4586 58.909 41.772 58.9259 43.0111 58.6339L43.1274 59.3898C42.3691 59.5032 41.472 59.5841 40.6072 59.5268Z" fill="black"/>
<path d="M53.7251 61.7035C51.9954 61.589 50.1915 61.1657 48.4199 60.6042L48.581 59.9135C50.214 60.4424 52.0501 60.7276 53.7475 60.9802L53.7251 61.7035Z" fill="black"/>
<path d="M41.7895 67.678C40.8505 67.312 40.0825 66.8405 39.0791 66.7508C38.8016 66.6858 38.4918 66.7588 38.0756 66.6612C37.7981 66.5961 37.4884 66.6692 37.3496 66.6367C36.4849 66.5796 35.5459 66.2136 34.7134 66.0184C33.6035 65.758 32.6645 65.3921 31.6288 65.4406L31.6513 64.7173C32.8258 64.7013 33.9035 65.0998 34.8747 65.3276C35.7072 65.5228 36.5074 65.8562 37.3721 65.9133C37.6496 65.9784 37.8206 65.8728 38.0981 65.9379C38.3756 66.003 38.8241 65.9624 39.1015 66.0275C40.105 66.1171 41.1505 66.6538 41.9507 66.9872L41.7895 67.678Z" fill="black"/>
<path d="M44.7203 27.0401L43.298 26.8517L43.1243 28.8521L43.5413 28.9501L43.5959 28.0881L44.6012 28.1785C45.0182 28.2765 45.3607 28.0654 45.3185 27.618C45.383 27.3416 45.1695 26.9998 44.7203 27.0401ZM44.5267 27.8694L43.5214 27.779L43.6505 27.2262L44.6557 27.3165C44.9337 27.3819 44.9337 27.3819 45.0082 27.691C44.8369 27.7965 44.8047 27.9347 44.5267 27.8694Z" fill="#FE5644"/>
<path d="M45.4163 29.0922L45.4808 28.8156C45.7586 28.8809 45.8653 29.0518 46.1754 28.9789C46.5921 29.0768 46.7633 28.9712 46.7956 28.8329C46.8601 28.5563 45.5131 28.6774 45.5032 28.0917C45.5678 27.8151 45.9102 27.6039 46.4658 27.7344C46.6047 27.7671 46.8826 27.8323 47.1604 27.8976L47.0959 28.1742C46.9569 28.1415 46.6791 28.0762 46.4013 28.011C46.1234 27.9457 45.9523 28.0513 45.9523 28.0513C45.8877 28.3278 47.2348 28.2068 47.2446 28.7925C47.1801 29.0691 46.8377 29.2803 46.282 29.1498C45.9719 29.2228 45.5552 29.1248 45.4163 29.0922Z" fill="#FE5644"/>
<path d="M47.6347 27.1274C47.4953 27.0947 47.3236 27.2004 47.2913 27.3387C47.259 27.4771 47.3661 27.6482 47.5377 27.5425C47.6771 27.5752 47.8487 27.4695 47.8811 27.3312C47.9134 27.1928 47.9134 27.1928 47.6347 27.1274ZM47.7518 27.8846L47.3337 27.7865L47.1499 29.2028L47.568 29.3009L47.7518 27.8846Z" fill="#FE5644"/>
<path d="M49.7648 28.6423C50.0425 28.7076 50.3848 28.4961 50.4494 28.2195C50.514 27.9428 50.3008 27.6009 49.8519 27.6413L48.2921 27.4207L48.1178 29.4227L49.6776 29.6433C50.0942 29.7412 50.4365 29.5298 50.3622 29.2205C50.4591 28.8055 50.2137 28.6019 49.7648 28.6423ZM48.783 27.8279L49.7874 27.918C50.0651 27.9832 50.0651 27.9832 50.1394 28.2925C50.2137 28.6019 49.7971 28.504 49.6582 28.4713L48.6861 28.2429L48.783 27.8279ZM49.6033 29.334L48.4601 29.2113L48.5893 28.658L49.7325 28.7807C50.0102 28.8459 50.0102 28.8459 50.0845 29.1552C49.9134 29.2609 49.9134 29.2609 49.6033 29.334Z" fill="#FE5644"/>
<path d="M52.3855 29.9936L51.9688 29.8956L52.0979 29.3426C52.0011 29.7574 51.7976 30.0013 51.2419 29.8707C50.8252 29.7728 50.7185 29.6019 50.741 28.8779L50.8701 28.3248L51.2868 28.4227L51.1577 28.9758C51.0609 29.3906 51.1676 29.5615 51.4454 29.6268C51.7232 29.6921 51.959 29.3099 52.0558 28.8951L52.1526 28.4803L52.5693 28.5782L52.3855 29.9936Z" fill="#FE5644"/>
<path d="M52.9357 28.8082L52.7964 28.7755L52.861 28.4987L53.0003 28.5314C53.0972 28.1164 53.1295 27.978 53.5474 28.0761C53.6866 28.1088 53.6866 28.1088 53.8259 28.1415L53.7613 28.4182C53.7613 28.4182 53.7613 28.4182 53.622 28.3855C53.3435 28.3201 53.3112 28.4585 53.2466 28.7352L53.6644 28.8333L53.5998 29.11L53.1819 29.0119L53.0628 30.1515L52.6449 30.0534L52.9357 28.8082Z" fill="#FE5644"/>
<path d="M54.8614 29.9919C54.4447 29.894 54.3057 29.8613 54.2314 29.5521L55.6528 29.7403L55.7173 29.4637C55.8142 29.0489 55.4297 28.8127 54.874 28.6822C54.3184 28.5516 53.9437 28.9011 53.8469 29.316C53.7501 29.7308 54.1023 30.1052 54.6579 30.2358C55.0747 30.3337 55.2459 30.2281 55.556 30.1551L55.6205 29.8786C55.3104 29.9515 55.1392 30.0572 54.8614 29.9919ZM54.7772 29.097C55.055 29.1623 55.194 29.1949 55.2683 29.5041L54.2636 29.4139C54.3282 29.1373 54.4994 29.0317 54.7772 29.097Z" fill="#FE5644"/>
<path d="M55.9367 29.8074L56.0659 29.2539L55.9269 29.2212L55.9915 28.9444L56.2696 29.0098L56.3342 28.733L56.6447 28.66L56.5478 29.0751L56.965 29.1731L56.9004 29.4499L56.4832 29.3519L56.354 29.9054C56.2893 30.1822 56.257 30.3206 56.5675 30.2475L56.7066 30.2802L56.642 30.5569C56.5029 30.5243 56.3315 30.63 56.1924 30.5973C55.9466 30.3936 55.8398 30.2225 55.9367 29.8074Z" fill="#FE5644"/>
</svg>
