<svg width="96" height="99" viewBox="0 0 96 99" fill="none" xmlns="http://www.w3.org/2000/svg">
<path d="M91.2438 47.5553C91.2438 51.9749 91.2438 56.483 91.1557 60.9026C91.0677 65.0571 90.9796 69.2116 90.7154 73.366C90.5392 75.4874 90.1869 77.6089 90.0108 79.6419C89.9227 80.4374 89.8346 81.1446 89.7466 81.9401C89.7466 82.0285 89.7466 82.1169 89.7466 82.1169C89.6585 82.8241 89.5704 83.4428 89.4823 84.1499C89.3943 85.0339 89.2181 86.0062 89.042 86.8901C89.042 86.9785 89.042 87.0669 89.042 87.0669C89.042 87.1553 89.042 87.1553 89.042 87.2437C89.042 87.3321 88.9539 87.4205 88.9539 87.5089C88.8658 87.6857 88.8658 87.7741 88.7777 88.0392C88.7777 88.1276 88.6897 88.1276 88.6897 88.216C88.6016 88.3044 88.5135 88.4812 88.4255 88.658C88.3374 88.658 88.3374 88.7464 88.2493 88.7464C88.1612 88.8348 88.0732 88.8348 87.9851 88.8348C87.9851 88.8348 87.897 88.8348 87.8089 88.8348C87.7209 88.8348 87.5447 88.8348 87.3686 88.7464C84.4621 80.1723 84.4621 70.8026 85.0787 61.8749C85.2548 59.2232 85.2548 56.8366 85.1667 54.4499C85.0787 53.1241 83.7576 53.7428 83.5814 52.4169C83.4933 51.0026 83.8456 48.1741 83.6695 46.7598C83.4053 44.7267 83.6695 42.0749 83.2291 39.9535C82.9649 38.4508 82.6126 36.9482 82.4365 35.4455C82.4365 34.6499 82.3484 33.8544 82.2603 33.0589C82.0842 30.9374 81.9961 28.816 81.9961 26.6946C82.0842 25.4571 82.4365 24.3964 82.8768 23.4241C83.7576 22.0098 85.6952 20.6839 87.2805 21.3026C87.4566 21.391 87.7209 21.4794 87.897 21.5678C88.3374 21.833 88.6016 22.3633 88.8658 22.8053C89.3062 23.4241 89.5704 24.0428 89.8346 24.4848C89.9227 24.6616 90.0988 25.0151 90.275 25.2803C90.3631 25.8991 90.4511 26.4294 90.4511 26.8714C90.7154 30.4071 90.9796 34.0312 91.1557 37.6553C91.1557 41.191 91.2438 44.3732 91.2438 47.5553Z" fill="white"/>
<path d="M76.3592 78.4043C75.8308 80.0837 74.3335 81.7632 73.0124 83.3543C72.484 83.973 72.1317 84.5918 71.6913 85.0337C71.5152 85.2989 71.251 85.5641 71.1629 85.8293C67.9042 90.3373 63.5886 93.2543 58.3042 94.8454C54.7812 95.8177 50.5537 97.232 46.9427 97.1436C41.5702 96.8784 33.0271 94.2266 28.7115 91.1328C23.8675 87.7739 20.7849 83.7078 17.9666 78.5811C15.3244 73.7195 15.5886 67.2668 16.2932 61.6096C16.3812 60.6373 16.4693 59.665 16.7335 58.6927C16.8216 58.2507 16.8216 57.8971 16.9097 57.4552C16.9978 56.8364 17.0858 56.2177 17.1739 55.5989C17.6143 53.0355 18.1427 50.207 19.0234 47.4668C19.5519 45.6105 20.1684 43.8427 20.9611 42.34C21.0491 42.2516 21.1372 42.1632 21.2253 41.898C24.6601 37.4784 28.7996 33.7659 33.6436 30.9373C34.6124 30.3186 35.6693 29.7882 36.6381 29.4346C38.5757 28.8159 40.4253 28.5507 42.3629 28.4623C45.2693 28.3739 49.1445 27.7552 51.9629 28.4623C59.1849 30.1418 65.9666 33.5007 70.5464 39.2462C72.2198 41.3677 75.3904 45.5221 76.3592 48.0855C78.0326 52.3284 78.6491 57.0132 78.9134 61.5212C79.0895 67.7971 78.2088 72.3052 76.3592 78.4043Z" fill="white"/>
<path d="M16.6456 36.9479C16.5576 39.7765 16.1172 42.7818 14.4438 44.9032C13.8273 45.6104 13.2108 46.2291 12.7704 46.9363C12.5943 47.3782 12.33 47.7318 12.242 48.1738C12.0658 48.8809 11.9778 49.5881 11.8016 50.3836C11.7135 51.0907 11.7135 51.7979 11.7135 52.505C11.6255 55.5104 11.8016 58.6041 11.9778 61.6095C12.1539 63.9961 12.5062 66.4711 12.7704 69.0345C12.7704 70.272 12.7704 71.4211 12.7704 72.6586C12.6823 75.5756 12.5943 78.4925 12.5062 81.4979C12.4181 83.1773 12.4181 84.9452 12.33 86.6247C12.242 87.155 12.0658 87.7738 11.8016 88.2157C11.6255 88.7461 11.3612 89.1881 11.0089 89.63C10.9209 89.7184 10.8328 89.8068 10.7447 89.8068C10.7447 89.8068 10.6567 89.8068 10.6567 89.8952H10.5686C10.1282 89.9836 9.77592 89.9836 9.33555 89.8068C9.24748 89.8068 9.15941 89.7184 9.07133 89.63C8.98326 89.5416 8.89519 89.5416 8.80711 89.4532C8.71904 89.3648 8.63097 89.3648 8.63097 89.2765C8.54289 89.1881 8.54289 89.0997 8.45482 89.0113C7.92638 88.2157 7.92638 87.3318 7.83831 86.2711C7.48601 79.8184 7.22179 73.4541 7.13372 67.1782C7.04565 61.0791 7.83831 54.5381 7.04564 48.6157C7.04564 48.5273 7.04564 48.3506 6.95757 48.1738C6.95757 47.997 6.95757 47.9086 6.8695 47.6434C6.78142 47.3782 6.78142 47.1131 6.69335 46.8479C6.69335 46.6711 6.60528 46.4059 6.5172 46.2291C5.98876 44.3729 5.28418 42.7818 4.57959 40.9256C4.57959 35.622 4.57959 30.3184 4.57959 25.0148C5.37225 23.4238 6.16491 21.4791 6.07684 20.6836C6.60528 24.0425 7.04565 27.4015 7.57409 30.672C7.66216 31.2023 7.66216 31.5559 7.75023 32.0863C8.01445 32.8818 8.1906 33.6773 8.36675 34.4729C8.36675 34.2961 8.36675 34.2077 8.45482 33.9425V34.0309C8.63097 34.0309 8.71904 34.0309 8.98326 34.0309C9.07133 33.4122 9.15941 32.705 9.24748 32.0863C9.24748 30.8488 9.33555 29.6997 9.33555 28.5506C9.59977 27.0479 10.0401 25.6336 10.3044 24.1309C10.4805 23.5122 10.5686 22.8934 10.8328 22.1863C10.8328 23.689 10.9209 25.28 10.9209 26.8711C10.9209 27.755 10.9209 28.7273 11.0089 29.5229C11.097 31.114 11.097 32.8818 11.097 34.4729C11.2732 34.2077 11.3612 33.8541 11.6255 33.589C11.8016 33.147 12.0658 32.7934 12.1539 32.2631C12.242 32.7934 12.4181 33.147 12.8585 33.6773C12.9466 33.4122 13.0346 33.147 13.0346 32.8818C13.2989 30.1416 13.5631 27.4015 13.8273 24.7497C14.0034 24.1309 14.4438 23.5122 14.7961 23.0702C14.9722 22.805 15.3245 22.5398 15.5888 22.2747C15.7649 22.0979 16.0291 22.0095 16.2053 21.8327C16.2053 21.8327 16.2934 21.8327 16.2934 21.7443C16.8218 26.9595 16.8218 31.9979 16.6456 36.9479Z" fill="white"/>
<path d="M54.0767 54.9803C54.6932 54.8919 55.3097 55.0687 55.9262 54.8919C56.5428 54.8035 56.9831 54.4499 57.5996 54.2731C58.2162 54.0079 58.8327 54.0079 59.4492 54.0079C59.8896 54.0079 60.418 53.9195 60.8584 54.0963C61.2987 54.2731 61.7391 54.6267 61.7391 55.0687C61.8272 55.7758 61.2106 56.3945 60.5061 56.6597C59.8895 56.9249 59.0969 57.1017 58.5684 57.5437C58.2162 57.8972 58.04 58.3392 57.7758 58.7812C57.4235 59.2231 57.0712 59.6651 56.6308 59.9303C55.7501 60.549 54.7813 60.7258 53.7244 60.549C52.2272 60.1954 51.4345 59.5767 51.6106 58.074C51.9629 57.0133 52.6675 55.3338 54.0767 54.9803Z" fill="#BBBBBA"/>
<path d="M61.9152 45.699C63.3244 46.2293 63.7648 47.732 62.9721 48.8811C62.4437 49.5883 61.2106 51.4445 60.3299 51.0909C59.273 50.7374 58.9207 48.6159 58.6565 47.732C58.3042 46.5829 58.3042 46.3177 59.3611 45.7874C60.0657 45.5222 61.0345 45.3454 61.9152 45.699Z" fill="#BBBBBA"/>
<path d="M50.2018 49.1461C50.6422 47.7318 51.611 46.4059 52.9321 45.6104C53.2844 45.4336 53.6367 45.2568 54.0771 45.2568C54.6055 45.4336 54.9578 45.964 54.8697 46.4059C54.9578 46.9363 54.6936 47.3783 54.4293 47.9086C53.989 48.7926 53.6367 49.6765 53.4605 50.6488C53.2844 51.6211 53.3725 52.5934 53.3725 53.6542C53.4605 53.8309 53.3725 53.9193 53.2844 54.0077C53.1082 54.2729 52.756 54.2729 52.4917 54.0961C49.7615 53.7426 49.4972 51.6211 50.2018 49.1461Z" fill="#BBBBBA"/>
<path d="M63.8528 55.3336C63.9409 55.2452 64.0289 55.0684 64.2051 55.0684C64.5574 54.8916 65.0858 55.0684 65.35 55.4219C66.0546 56.0407 66.3188 57.013 66.495 57.9853C66.5831 58.8693 66.5831 59.8416 66.495 60.7255C66.495 61.1675 66.5831 61.5211 66.4069 61.963C66.1427 62.7586 65.5262 63.3773 64.8216 63.8193C64.117 64.2612 63.3243 64.6148 62.7078 65.1452C62.0913 65.7639 61.651 66.5595 60.8583 67.0898C60.1537 67.4434 59.0968 67.4434 58.4803 67.0014C55.0455 64.88 60.8583 63.4657 62.0913 62.1398C63.8528 60.1068 62.4436 57.2782 63.8528 55.3336Z" fill="#BBBBBA"/>
<path d="M10.4803 89.807C9.68767 90.0722 8.63079 89.6303 8.2785 88.9231C7.75006 88.1276 7.75006 87.2437 7.66198 86.1829C7.48584 79.8187 7.22162 73.4544 7.13354 67.1785C7.04547 61.0794 7.83813 54.5383 7.04547 48.616C6.9574 47.9972 6.86932 47.4669 6.78125 47.0249C7.04547 47.8204 7.30969 48.616 7.66198 49.4999C8.10235 51.091 8.2785 52.8588 8.36657 54.5383C9.33538 65.5874 10.04 76.7249 10.5684 87.6856C10.6565 88.3928 10.6565 89.0999 10.4803 89.807Z" fill="#BBBBBA"/>
<path d="M90.099 79.73C89.8348 82.1166 89.3944 84.5916 89.1302 86.9783C88.9541 88.1274 88.1614 89.5416 87.1926 88.9229C84.2862 80.3488 84.2862 70.9791 84.9027 62.0515C85.0789 59.3997 85.0789 57.0131 84.9908 54.6265C85.7834 55.3336 86.488 56.2175 86.9284 57.2783C87.4568 58.4274 87.5449 59.6649 87.633 60.9024C88.1614 67.0899 89.0422 73.4541 90.099 79.73Z" fill="#BBBBBA"/>
<path d="M79.266 60.4606C79.1779 64.1731 79.0898 67.974 78.5614 71.5981C77.7687 77.0784 75.655 82.2052 71.9559 86.4481C69.0495 89.807 65.4385 92.1052 61.3871 94.0499C57.3357 95.9945 53.0201 97.0552 48.7045 97.674C47.5596 97.8508 46.4146 97.674 45.2697 97.674C44.3008 97.674 43.244 97.5856 42.3632 97.4088C40.866 97.1436 39.2807 96.7016 37.6953 96.1713C35.5816 95.3758 33.4678 94.4918 31.4421 93.5195C28.3596 92.1052 25.6293 90.249 23.4275 87.4204C22.2825 86.0061 21.1375 84.7686 19.9926 83.3543C17.8788 80.7025 16.91 77.6088 16.0293 74.3383C15.2366 70.9793 14.6201 67.532 14.8843 64.0847C14.9724 62.9356 15.0605 61.8749 15.1486 60.7257C15.2366 60.1954 15.4128 59.7534 15.5889 59.2231C15.677 59.2231 15.7651 59.2231 15.8531 59.3115C15.8531 60.0186 15.9412 60.7258 15.9412 61.4329C16.0293 62.3168 16.0293 63.2891 15.9412 64.1731C15.5009 67.4436 16.2054 70.5374 16.91 73.7195C17.8788 78.6695 20.433 82.6472 23.7797 86.3597C27.3908 90.4258 32.0586 92.6356 36.9027 94.757C39.8972 96.0829 43.0678 96.2597 46.0623 96.6133C47.9999 96.79 49.8495 96.3481 51.7871 95.9061C56.1908 94.9338 60.3302 93.3427 64.2054 90.9561C66.5834 89.4534 68.9614 87.8624 70.8109 85.6525C71.4275 85.0338 71.9559 84.3266 72.3963 83.6195C72.4843 83.5311 72.5724 83.3543 72.6605 83.1775C74.2458 80.6141 75.3908 78.0508 76.3596 75.2222C77.6807 71.4213 77.7687 67.3552 77.8568 63.3775C77.9449 60.2838 78.033 57.0132 77.2403 54.0079C76.7119 51.8865 76.0073 49.8534 75.3908 47.732C75.2146 47.0249 74.7742 46.3177 74.4219 45.699C71.7797 41.5445 68.6972 37.832 64.8219 34.7382C64.1174 34.1195 63.3247 33.5891 62.532 33.2356C60.4183 32.0865 58.2164 30.9374 56.0146 30.1418C53.9889 29.3463 51.7871 28.9043 49.6733 28.5507C46.0623 27.8436 42.4513 28.6391 38.9284 29.5231C36.9027 30.0534 35.2293 30.849 33.4678 31.9097C30.4733 33.8543 27.2146 35.5338 24.8366 38.3624C22.7229 40.749 20.433 43.0472 19.1999 46.1409C19.0238 46.5829 18.7596 47.0249 18.6715 47.4668C18.5834 47.732 18.4953 48.0856 18.4073 48.4391C17.9669 49.765 17.6146 51.0909 17.4385 52.5052C17.2623 53.4775 17.1742 54.6266 16.9981 55.599C16.9981 55.7758 16.9981 56.0409 16.91 56.2177C16.91 56.6597 16.9981 57.1016 16.7339 57.4552C16.6458 57.5436 16.5577 57.632 16.4697 57.632C16.3816 57.4552 16.2054 57.19 16.2054 57.0133C16.2935 55.0686 16.1174 53.2124 16.91 51.2677C17.0862 50.7374 17.3504 50.2954 17.4385 49.6766C17.9669 46.8481 19.288 44.3731 20.8733 42.0749C20.9614 41.9865 21.0495 41.8981 21.1375 41.6329C24.5724 37.2132 28.7119 33.5007 33.5559 30.6722C34.5247 30.0534 35.5816 29.5231 36.5504 29.1695C38.8403 28.2856 41.3064 27.7552 43.7724 27.3132C47.3834 26.7829 50.9064 27.1365 54.4293 28.1088C56.3669 28.7275 58.1284 29.5231 59.9779 30.2302C61.299 30.7606 62.532 31.4677 63.677 32.0865C64.1174 32.2632 64.4697 32.5284 64.8219 32.7936C67.3761 35.1802 70.0183 37.5668 72.3963 40.2186C73.9816 41.8981 75.3027 44.0195 76.4476 46.0525C77.3284 47.732 77.6807 49.6766 78.2972 51.5329C79.0898 54.715 79.3541 57.5436 79.266 60.4606Z" fill="black"/>
<path d="M9.86381 59.4882C9.59959 59.665 9.2473 60.0185 8.895 60.2837C8.895 60.5489 8.895 60.9909 8.98308 61.256C9.42344 60.6373 9.77574 60.1069 10.128 59.665C10.04 59.665 9.95188 59.5766 9.86381 59.4882ZM9.07115 62.2284C9.07115 62.4052 9.07115 62.4935 9.07115 62.7587C9.15922 62.5819 9.33537 62.2284 9.59959 62.0516C9.33537 62.14 9.15922 62.2284 9.07115 62.2284ZM9.86381 59.4882C9.59959 59.665 9.2473 60.0185 8.895 60.2837C8.895 60.5489 8.895 60.9909 8.98308 61.256C9.42344 60.6373 9.77574 60.1069 10.128 59.665C10.04 59.665 9.95188 59.5766 9.86381 59.4882ZM9.07115 62.2284C9.07115 62.4052 9.07115 62.4935 9.07115 62.7587C9.15922 62.5819 9.33537 62.2284 9.59959 62.0516C9.33537 62.14 9.15922 62.2284 9.07115 62.2284ZM9.86381 59.4882C9.59959 59.665 9.2473 60.0185 8.895 60.2837C8.895 60.5489 8.895 60.9909 8.98308 61.256C9.42344 60.6373 9.77574 60.1069 10.128 59.665C10.04 59.665 9.95188 59.5766 9.86381 59.4882ZM9.07115 62.2284C9.07115 62.4052 9.07115 62.4935 9.07115 62.7587C9.15922 62.5819 9.33537 62.2284 9.59959 62.0516C9.33537 62.14 9.15922 62.2284 9.07115 62.2284ZM9.86381 59.4882C9.59959 59.665 9.2473 60.0185 8.895 60.2837C8.895 60.5489 8.895 60.9909 8.98308 61.256C9.42344 60.6373 9.77574 60.1069 10.128 59.665C10.04 59.665 9.95188 59.5766 9.86381 59.4882ZM9.07115 62.6703C9.15922 62.4935 9.33537 62.14 9.59959 61.9632C9.42344 62.0516 9.15922 62.14 9.07115 62.14C9.07115 62.4052 9.07115 62.4935 9.07115 62.6703ZM16.2932 22.8935C16.2932 22.7168 16.2932 22.4516 16.2051 22.2748C16.2051 22.0096 16.117 21.656 16.0289 21.4793C15.7647 20.6837 15.0601 20.6837 14.7078 21.3909C14.4436 22.098 14.0913 22.8935 14.0033 23.6891C14.0033 24.2194 13.9152 24.6614 13.9152 25.1918C13.651 27.9319 13.3867 30.6721 13.1225 33.3239C13.1225 33.5891 12.9464 33.8543 12.9464 34.1194C12.6822 33.5891 12.4179 33.2355 12.2418 32.7051C12.2418 32.5284 12.1537 32.2632 12.1537 32.1748C12.0656 29.8766 11.9776 27.49 12.0656 25.1918C12.1537 23.1587 12.1537 21.2141 10.6565 19.8882C9.42344 21.5676 9.51152 23.6891 9.51152 25.7221C9.51152 26.6944 9.42344 27.7551 9.42344 28.7275C9.42344 29.965 9.33537 31.1141 9.33537 32.2632C9.33537 32.8819 9.15922 33.5891 9.07115 34.2078C8.895 34.2078 8.80693 34.2078 8.54271 34.2078V34.1194C8.45464 33.5007 8.27849 32.8819 8.10234 32.2632C8.01427 31.8212 7.9262 31.3793 7.9262 30.8489C7.75005 28.2855 7.75005 25.7221 7.48583 23.0703C7.48583 22.4516 7.39775 21.8328 7.22161 21.2141C7.04546 20.9489 6.51702 20.3301 6.2528 20.3301C5.81243 20.3301 5.37207 20.7721 5.10785 21.1257C4.84363 21.8328 4.66748 22.6284 4.66748 23.3355C4.66748 23.9543 4.66748 24.573 4.66748 25.1918C4.66748 30.4953 4.66748 35.7989 4.66748 41.1025V41.2793C4.66748 43.1355 5.28399 44.7266 6.34087 46.0525C6.42895 46.1409 6.42895 46.2293 6.51702 46.3176C6.86931 46.7596 7.04546 47.0248 7.04546 47.4668C7.04546 47.5551 7.04546 47.5551 7.04546 47.6435V48.0855C7.04546 50.0301 7.04546 52.0632 7.04546 53.9194C6.95739 58.1623 6.86931 62.3168 6.78124 66.5596C6.78124 67.7971 6.60509 68.9462 6.69317 70.1837C6.95739 75.4873 7.30968 80.7025 7.66197 86.006C7.75005 86.89 7.83812 87.8623 8.19042 88.6578C8.45464 89.365 8.98308 90.1605 9.59959 90.6909C10.3922 91.398 11.1849 91.2212 11.6253 90.1605C11.8895 89.365 12.2418 88.481 12.3299 87.5971C12.3299 87.1552 12.4179 86.8016 12.4179 86.448C12.506 84.7685 12.506 83.0007 12.5941 81.3212C12.6822 78.4043 12.8583 75.4873 12.8583 72.4819C12.8583 71.2444 12.8583 70.0953 12.8583 68.8578C12.8583 67.0016 12.8583 65.3221 12.8583 63.5543C12.8583 60.4605 12.7702 57.3668 12.6822 54.273C12.5941 52.24 12.506 50.2069 12.4179 48.1739V47.9971C12.4179 47.2016 12.5941 46.6712 13.2987 46.1409C15.3244 44.6382 16.117 42.34 16.2932 40.0418C16.4693 34.3846 16.7335 28.6391 16.2932 22.8935ZM15.4124 37.39C15.2363 39.0694 15.2363 40.8373 14.6198 42.4284C14.0033 43.931 13.2106 45.1685 11.8014 45.9641C11.6253 46.0525 11.3611 46.2293 11.0968 46.4944C11.1849 48.4391 11.3611 50.4721 11.5372 52.3284C11.6253 54.0078 11.7134 55.6873 11.8014 57.3668C11.8014 58.6926 11.8895 60.0185 11.8895 61.4328C11.9776 65.4989 11.9776 69.3882 11.8895 73.3659C11.8014 78.0507 11.4491 82.6471 11.3611 87.3319C11.3611 88.0391 11.1849 88.7462 10.8326 89.4534C10.7445 89.5418 10.6565 89.7185 10.6565 89.8953C10.5684 89.8953 10.4803 89.8069 10.3923 89.8069C9.68766 89.365 9.68766 88.6578 9.51152 88.2159C9.07115 86.1828 8.63078 84.0614 8.54271 81.94C8.36656 76.99 8.27849 72.04 8.10234 67.0016C8.10234 65.5873 8.19042 64.173 8.98308 62.7587C9.07115 62.5819 9.2473 62.2284 9.51152 62.0516C9.42344 62.14 9.2473 62.2284 9.07115 62.2284C8.80693 62.3168 8.54271 62.4051 8.19042 62.4935C8.45464 62.0516 8.80693 61.698 8.98308 61.256C9.42344 60.6373 9.77574 60.1069 10.128 59.665C10.04 59.5766 10.04 59.5766 9.95188 59.4882C9.68766 59.665 9.33537 60.0185 8.98308 60.2837C8.895 60.3721 8.71886 60.4605 8.54271 60.5489C8.54271 59.5766 8.54271 58.6926 8.54271 57.8971C8.45464 56.0409 8.36656 54.1846 8.27849 52.3284C8.27849 51.798 8.19042 51.4444 8.19042 50.9141C8.19042 50.1185 8.10234 49.323 8.19042 48.6159C8.45464 47.0248 8.27849 45.6989 7.04546 44.4614C6.07665 43.4891 6.16473 42.0748 6.16473 40.7489C6.16473 38.0971 6.16473 35.4453 6.16473 32.9703C6.16473 30.4069 6.07665 27.9319 5.98858 25.2801C5.98858 24.131 5.98858 23.1587 6.2528 21.9212C6.34087 22.54 6.51702 23.1587 6.69317 23.7775C6.78124 25.8105 6.78124 27.8435 6.86931 29.7882C6.95739 31.2025 7.13354 32.6168 7.5739 34.031C7.75005 34.7382 7.83812 35.5337 8.80693 35.9757C9.59959 35.2685 9.77574 34.3846 9.77574 33.4123C9.95188 30.4953 10.2161 27.4016 10.3923 24.4846C10.3923 24.3078 10.3923 24.0426 10.3923 23.9543C10.3923 23.3355 10.4803 22.8051 10.6565 22.2748C11.3611 23.0703 11.273 24.131 11.1849 25.015C11.0968 25.8105 11.0088 26.5176 11.0088 27.2248C11.0088 28.1087 11.0088 29.081 11.0968 29.8766C11.1849 31.1141 11.3611 32.2632 11.6253 33.5007C11.6253 33.6775 11.6253 33.7659 11.7134 34.031C11.8895 34.6498 12.1537 35.2685 12.9464 35.1801C13.651 35.0918 13.739 34.473 13.739 33.9426C14.0033 30.8489 14.3556 27.6668 14.6198 24.573C14.6198 24.3078 14.7078 23.8659 14.7959 23.6007C14.884 23.1587 14.9721 22.8051 15.0601 22.3632C15.1482 22.3632 15.2363 22.3632 15.5005 22.3632C15.5005 22.4516 15.5886 22.54 15.5886 22.8051C15.7647 27.5784 15.9409 32.5284 15.4124 37.39ZM9.07115 62.2284C9.07115 62.4052 9.07115 62.4935 9.07115 62.7587C9.15922 62.5819 9.33537 62.2284 9.59959 62.0516C9.33537 62.14 9.15922 62.2284 9.07115 62.2284ZM9.86381 59.4882C9.59959 59.665 9.2473 60.0185 8.895 60.2837C8.895 60.5489 8.895 60.9909 8.98308 61.256C9.42344 60.6373 9.77574 60.1069 10.128 59.665C10.04 59.665 9.95188 59.5766 9.86381 59.4882ZM9.07115 62.2284C9.07115 62.4052 9.07115 62.4935 9.07115 62.7587C9.15922 62.5819 9.33537 62.2284 9.59959 62.0516C9.33537 62.14 9.15922 62.2284 9.07115 62.2284ZM9.86381 59.4882C9.59959 59.665 9.2473 60.0185 8.895 60.2837C8.895 60.5489 8.895 60.9909 8.98308 61.256C9.42344 60.6373 9.77574 60.1069 10.128 59.665C10.04 59.665 9.95188 59.5766 9.86381 59.4882ZM9.07115 62.2284C9.07115 62.4052 9.07115 62.4935 9.07115 62.7587C9.15922 62.5819 9.33537 62.2284 9.59959 62.0516C9.33537 62.14 9.15922 62.2284 9.07115 62.2284ZM9.86381 59.4882C9.59959 59.665 9.2473 60.0185 8.895 60.2837C8.895 60.5489 8.895 60.9909 8.98308 61.256C9.42344 60.6373 9.77574 60.1069 10.128 59.665C10.04 59.665 9.95188 59.5766 9.86381 59.4882Z" fill="black"/>
<path d="M67.8161 50.384C66.3189 44.55 61.7391 43.7545 58.6565 45.2572C58.6565 45.3456 58.6565 45.434 58.6565 45.6108C59.1849 45.6108 59.8015 45.6992 60.418 45.6108C60.506 45.6108 60.5941 45.5224 60.6822 45.5224C63.0602 45.1688 64.6455 46.4063 65.9666 48.1742C66.1427 48.5277 66.9354 49.7652 66.8473 50.0304C66.1427 51.2679 65.3501 51.975 64.5574 53.0358C64.029 53.5661 62.5317 54.2733 61.651 53.9197C62.1794 52.7706 62.7079 51.1795 63.2363 50.0304C62.0914 51.0027 62.0033 52.417 60.8583 53.3893C60.9464 52.2402 61.7391 51.3563 61.8271 50.0304C61.8271 49.8536 61.8272 49.7652 61.9152 49.5884C61.7391 49.942 61.651 50.2072 61.4749 50.5608C61.0345 51.5331 60.506 52.417 60.0657 53.3009C59.6253 52.9474 59.3611 52.7706 59.0088 52.5054C59.273 51.6215 59.3611 50.7375 59.273 49.942C59.1849 48.8813 58.9207 47.909 58.4804 46.9367C58.4804 46.8483 58.3923 46.7599 58.3923 46.5831C57.3354 43.8429 53.9886 43.1358 51.8749 45.1688C50.0253 47.025 49.1446 49.1465 49.4088 51.7983C49.4969 52.5054 49.5849 53.1242 50.2015 53.6545C50.7299 54.2733 51.3464 54.7152 51.9629 55.2456C50.1134 60.9911 52.1391 63.3777 56.3666 64.792C56.5427 65.5875 56.7189 66.3831 56.9831 67.1786C57.3354 68.6813 58.1281 69.4768 59.6253 69.742C60.6822 70.0072 61.7391 70.2724 62.796 70.4492C65.1739 70.8911 67.64 69.742 68.6088 67.6206C69.0492 66.7367 69.2253 65.7643 69.4015 64.792C69.4895 64.0849 69.7538 63.6429 70.1941 63.3777C71.5152 62.4938 72.2198 61.1679 72.9244 59.6652C74.3336 56.3947 71.7794 50.6492 67.8161 50.384ZM55.7501 45.1688C56.807 45.3456 57.4235 46.1411 57.6877 47.1134C57.7758 47.467 57.8638 47.909 58.04 48.2625H58.1281C58.2161 49.2349 58.3923 50.2072 58.3923 51.1795C58.4804 51.7099 58.4804 52.3286 57.5116 52.417C57.4235 52.417 57.1593 52.5938 57.1593 52.7706C56.895 53.4777 56.4547 54.0965 55.662 54.1849C54.7813 54.3617 53.9005 54.45 52.9317 54.0965C52.7556 54.0965 52.6675 54.0081 52.4033 53.8313C51.0822 53.1242 50.2895 52.1518 50.3776 50.4724C50.5538 48.7929 50.818 47.2018 52.2271 46.0527C52.7556 45.6108 53.284 45.2572 53.9005 45.0804C54.5171 45.1688 55.1336 45.0804 55.7501 45.1688ZM56.1904 61.2563C55.7501 61.7867 55.4859 62.317 55.0455 62.759C54.9574 61.9634 55.3978 61.2563 55.7501 60.5492C56.1024 59.9304 56.3666 59.2233 56.4547 58.5161C56.0143 59.3117 55.5739 59.9304 55.1336 60.7259C54.7813 61.1679 54.6051 61.6983 54.2528 62.1402C53.4602 61.6099 52.8437 60.9911 52.5794 60.1072C52.051 58.7813 52.2271 57.1902 53.0198 55.4224L53.1079 55.334H53.196C53.5482 55.334 53.9005 55.2456 54.2528 55.334C55.2216 55.334 56.1905 55.2456 57.0712 54.8036C57.7758 54.45 58.3923 54.45 59.273 54.7152C59.9776 54.9804 60.8583 54.892 61.651 54.9804C62.0033 55.0688 62.3556 54.9804 62.9721 54.9804C63.1482 57.8974 62.884 60.5492 60.5941 62.5822C59.8015 63.3777 58.4804 64.35 57.2473 63.9965C56.6308 63.8197 56.3666 63.5545 55.5739 63.4661C55.662 62.759 56.1024 61.875 56.1904 61.2563C56.3666 61.3447 56.2785 61.3447 56.1904 61.2563ZM67.3758 68.1509C66.1427 69.5652 64.5574 70.184 62.7079 69.742C62.0033 69.5652 61.2987 69.3884 60.506 69.2117C59.0088 69.0349 58.04 68.1509 57.6877 66.6483C57.6877 66.5599 57.5996 66.4715 57.5996 66.2947C57.5116 65.9411 57.5115 65.5875 57.3354 65.1456C57.3354 65.0572 57.3354 65.0572 57.2473 64.9688H57.3354C59.5372 64.5268 59.8895 64.1733 62.0033 62.5822C62.796 63.0242 63.5886 63.6429 64.3813 63.8197C65.7024 64.1733 67.1116 63.9081 68.5207 63.5545C68.9611 64.8804 68.1684 67.1786 67.3758 68.1509ZM72.396 57.9858C72.396 58.1625 72.3079 58.4277 72.2198 58.5161C71.9556 59.5768 71.3391 60.5492 70.8987 61.2563C70.106 62.5822 68.7849 62.9358 67.1996 63.0242C66.5831 63.0242 66.0547 63.1125 65.3501 63.1125C64.2932 63.0242 63.3244 62.8474 62.3556 62.1402C63.5005 60.1956 63.8528 57.9858 63.6767 55.7759C63.5886 55.5992 63.6767 55.334 63.6767 55.2456C63.8528 54.7152 64.029 53.9197 64.5574 53.6545C65.5262 53.2125 65.9666 52.6822 66.495 51.6215C66.7593 51.0027 67.9923 51.3563 68.4326 51.5331C68.6088 51.6215 68.873 51.7099 69.0492 51.8867C71.3391 53.3893 72.396 55.4224 72.396 57.9858Z" fill="black"/>
<path d="M91.0677 37.9206C90.8916 34.2965 90.6273 30.7607 90.3631 27.1366C90.3631 26.6063 90.275 25.9875 90.187 25.5456C90.0108 24.6616 89.6585 23.6893 89.4824 22.8054C89.2182 21.6563 88.3374 20.9491 87.2805 20.8607C84.2861 20.5956 81.9081 22.717 81.7319 25.7223C81.7319 25.9875 81.7319 26.3411 81.7319 26.6063C81.7319 28.7277 81.82 30.8491 81.9961 32.9706C82.0842 33.7661 82.0842 34.5616 82.1723 35.3572C82.1723 36.7715 82.1723 38.1857 81.9961 39.5116C81.82 40.8375 81.82 42.075 82.1723 43.2241C82.6127 44.1965 82.6127 45.1688 82.2604 46.1411C82.0842 46.9366 82.0842 47.7322 82.4365 48.5277C82.965 49.6768 82.965 50.7375 82.4365 51.8866C81.9961 52.6822 82.1723 53.3893 82.965 53.7429C84.8145 54.45 85.1668 55.7759 84.8145 57.4554C84.7264 57.9857 84.8145 58.4277 84.8145 58.9581C84.7264 61.5215 84.6383 63.9965 84.6383 66.6482C84.6383 68.7697 84.6383 70.9795 84.6383 73.1009H84.5503C84.5503 74.9572 84.4622 76.725 84.5503 78.5813C84.6384 81.675 84.9906 84.7688 86.1356 87.6857C86.576 88.5697 87.2806 89.3652 87.9851 90.2491C88.5136 90.8679 89.1301 90.6911 89.3943 90.0723C89.8347 89.2768 90.187 88.3929 90.275 87.4206C90.5393 83.7965 90.8035 80.2607 90.8916 76.6366C90.8916 75.4875 90.9796 74.3384 90.9796 73.1893C91.1558 69.0348 91.2439 64.8804 91.42 60.7259C91.5081 56.3063 91.5081 51.7982 91.5081 47.3786C91.2439 44.3732 91.1558 41.1911 91.0677 37.9206ZM89.7466 81.9402C89.7466 82.6473 89.7466 83.3545 89.7466 84.15C89.7466 85.7411 89.5705 87.5089 89.042 89.0116C88.8659 89.0116 88.7778 89.1 88.5136 89.1C88.4255 88.9232 88.2494 88.8348 88.0732 88.5697C87.8971 88.3045 87.5448 88.0393 87.4567 87.6857C85.9595 83.4429 85.6072 78.8464 85.7833 74.4268C85.7833 73.8081 86.3998 73.1893 86.9283 72.7473C87.3686 72.3054 87.809 72.0402 88.3374 71.775C88.3374 71.6866 88.2494 71.5982 88.1613 71.5098C87.4567 71.9518 86.664 72.3054 85.8714 72.8357C85.6072 72.1286 86.1356 71.8634 86.4879 71.4215C86.7521 70.9795 87.1925 70.6259 87.3686 70.0072C86.8402 70.2723 86.4879 70.7143 85.8714 71.1563C85.7833 70.6259 85.6952 70.3607 85.7833 70.0072C85.9595 65.4991 86.0475 60.9027 86.3117 56.3947C86.3117 56.2179 86.3117 56.1295 86.3117 55.8643C86.3998 54.45 86.3117 54.2732 84.9906 53.8313C84.3741 53.6545 84.0218 53.3009 84.198 52.5938C84.6383 51.3563 84.1099 50.2956 83.9338 49.1465C83.8457 48.3509 83.7576 47.5554 83.8457 46.7598C83.9338 45.7875 83.9338 44.8152 83.6695 43.8429C83.4053 42.8706 83.5815 41.7215 83.4934 40.7491C83.4053 37.3902 83.2292 34.0313 83.053 30.8491C82.965 28.8161 82.8769 26.8715 82.8769 24.8384C82.8769 23.3357 84.1099 22.0982 85.5191 21.9215C86.3998 21.8331 87.1044 21.8331 87.6328 22.0098C88.1613 22.1866 88.4255 22.6286 88.6016 23.2473C88.6897 23.5125 88.7778 23.8661 88.8659 24.2197C89.6585 28.1973 89.8347 32.175 90.0989 36.2411C90.187 38.6277 90.3631 41.0143 90.3631 43.4009C90.3631 45.6991 90.3631 48.0857 90.3631 50.384C90.3631 54.8036 90.3631 59.3116 90.275 63.7313C90.187 68.5929 90.0108 73.5429 89.7466 78.4045C89.7466 78.8464 89.7466 79.2 89.7466 79.642C89.7466 80.3491 89.7466 81.1447 89.7466 81.9402Z" fill="black"/>
<path d="M40.3375 41.5445C39.8972 40.7489 40.3375 40.4837 40.6898 40.307C42.9797 38.8043 45.5339 38.4507 48.2641 38.7159C49.5852 38.8927 50.7302 39.3346 51.9632 39.5998C52.932 39.865 53.4605 40.4837 54.3412 41.2793C53.9889 41.3677 53.8128 41.4561 53.7247 41.4561C52.2274 41.0141 50.8183 40.5721 49.4091 40.1302C46.6788 39.1578 44.1247 39.865 41.6586 40.9257C41.2183 41.1025 40.7779 41.3677 40.3375 41.5445Z" fill="black"/>
<path d="M46.2384 87.1554C46.2384 88.0393 45.71 88.0393 45.3577 88.0393C42.6274 88.0393 40.2494 87.067 38.1357 85.3876C37.1669 84.592 36.3742 83.5313 35.4054 82.7358C34.7008 82.0286 34.5247 81.2331 34.1724 80.084C34.5247 80.1724 34.7008 80.1724 34.7889 80.2608C35.8458 81.4099 36.8146 82.559 37.7834 83.6197C39.6329 85.8295 42.187 86.6251 44.8292 87.067C45.2696 87.067 45.7981 87.1554 46.2384 87.1554Z" fill="black"/>
<path d="M45.0936 10.2534C45.2697 10.4302 45.534 10.7838 45.622 10.9606C46.0624 13.9659 46.4147 16.9713 46.767 19.9766C46.8551 20.949 46.5908 21.8329 45.3578 22.2749C45.4459 21.8329 45.4459 21.5677 45.4459 21.3025C45.9743 19.2695 45.534 17.3249 45.3578 15.2918C45.1817 14.0543 44.9174 12.9052 44.7413 11.6677C44.6532 11.1374 44.7413 10.6954 44.7413 10.165C44.7413 10.2534 45.0055 10.2534 45.0936 10.2534Z" fill="white"/>
<path d="M57.4236 13.3472C58.3043 13.6123 58.2162 14.1427 58.0401 14.5847C56.6309 16.4409 56.1025 18.5623 55.2217 20.5954C54.6933 21.5677 54.0768 22.6284 53.3722 23.5123C53.196 23.7775 52.7557 23.9543 52.1392 24.3079C52.2272 23.6891 52.1392 23.5123 52.2272 23.424C53.8126 21.5677 54.6052 19.3579 55.574 17.1481C56.1905 15.7338 56.719 14.5847 57.4236 13.3472Z" fill="white"/>
<path d="M31.53 14.1426C31.7942 14.3194 32.1465 14.4078 32.3227 14.6729C34.6126 17.0595 37.0786 19.5345 39.3686 21.9211C39.8089 22.3631 40.1612 22.8051 39.2805 23.247C38.3997 22.2747 37.4309 21.3024 36.5502 20.4185C35.6695 19.4461 34.6126 18.3854 33.7319 17.4131C32.9392 16.4408 31.6181 15.9104 31.1777 14.5845C31.3539 14.3194 31.3539 14.231 31.53 14.1426Z" fill="white"/>
<path d="M65.9668 79.4652C66.1429 77.609 67.2879 76.5483 67.6402 75.134C68.0806 73.8081 68.1686 72.3938 68.5209 70.8911C69.6659 72.7474 68.1686 77.7858 65.9668 79.4652Z" fill="black"/>
<path d="M89.5703 75.0454C89.5703 73.0124 89.5703 70.9793 89.5703 68.9463H89.6584C89.6584 70.9793 89.6584 73.0124 89.6584 75.0454H89.5703Z" fill="black"/>
<path d="M49.2328 65.5872C48.4401 65.6756 46.5906 66.1175 45.7979 66.4711C45.3575 66.6479 44.9172 66.7363 44.8291 67.1782C44.8291 67.4434 44.9172 67.7086 45.0052 67.8854C45.5337 69.1229 46.5025 69.6532 47.0309 70.8907C47.8236 72.2166 49.3208 75.7523 50.1135 77.0782C50.2897 77.3434 51.7869 78.7577 51.963 79.0229C52.5796 79.9068 52.6676 80.5256 53.2841 81.4095C53.9007 82.2934 53.7245 82.7354 54.341 83.6193C54.341 83.6193 54.6052 84.0613 54.6052 84.1497C55.2218 84.7684 57.3355 87.155 57.6878 86.5363C57.5117 85.7407 55.9263 80.4372 55.7502 79.5532C54.9575 76.2827 53.6364 71.0675 52.8438 67.7086C52.7557 67.1782 52.4915 66.6479 52.2273 66.2059C51.6988 65.4988 50.0254 65.4104 49.2328 65.5872Z" fill="white"/>
<path d="M51.611 78.3161C53.2844 81.2331 55.6624 84.9456 58.2165 87.2438C57.6 85.8295 56.0147 83.8849 55.1339 82.6474C52.756 79.0233 50.4661 72.659 47.9119 69.0349C46.5908 67.267 46.2385 68.5929 46.6789 70.184C47.2954 72.3054 50.4661 76.4599 51.611 78.3161Z" fill="white"/>
<path d="M50.0255 66.1177C49.409 65.7641 48.6163 65.7641 47.8237 66.1177C47.6475 66.2061 47.3833 66.2945 47.2071 66.4713C47.1191 66.5597 47.031 66.5597 46.9429 66.6481C46.8548 66.7365 46.6787 66.8249 46.5906 66.9132C45.6218 67.7088 44.7411 68.7695 44.0365 70.007C43.9484 70.0954 43.9484 70.1838 43.8603 70.3606C43.7723 70.5374 43.6842 70.7141 43.5961 70.8909C43.5081 71.0677 43.5081 71.1561 43.42 71.3329C43.3319 71.5097 43.2438 71.7749 43.2438 71.9516C43.2438 72.1284 43.1558 72.3052 43.1558 72.3936C43.1558 72.6588 43.1558 73.1008 43.1558 73.3659C43.2438 74.2499 43.5081 75.0454 43.8603 75.8409C43.9484 76.0177 44.0365 76.1945 44.0365 76.2829C44.8292 78.0508 45.6218 79.907 46.3264 81.6749C46.5026 82.0284 46.6787 82.4704 46.8548 82.824C46.8548 82.9124 46.9429 83.0007 46.9429 83.0891C47.1191 83.5311 47.2952 83.8847 47.4714 84.3266C47.8237 84.7686 48.264 85.2106 48.6163 85.6525C48.8805 85.9177 49.0567 86.2713 49.3209 86.5365C49.3209 86.5365 49.3209 86.5365 49.409 86.6249C50.2897 87.2436 51.9631 88.5695 52.7558 88.2159C53.7246 87.774 54.6053 86.0945 55.398 84.0615C55.486 82.824 55.398 81.5865 55.5741 80.349C55.7503 79.1999 55.7503 77.9624 55.6622 76.8133C55.5741 76.2829 55.398 75.6641 55.3099 75.1338C55.1337 74.4266 54.7815 73.8079 54.6934 73.1007C54.4292 71.7749 54.253 70.8025 53.5484 69.7418C53.5484 69.6534 53.1961 69.2115 53.1081 69.1231C52.6677 68.3275 51.787 67.974 51.2585 67.2668C50.9943 66.8249 50.5539 66.4713 50.0255 66.1177Z" fill="white"/>
<path d="M48.0879 65.9412C46.6788 65.8528 44.9173 66.9135 43.9485 68.0626C43.1558 69.0349 43.2439 69.9189 42.9797 71.4216C42.7154 72.9242 43.1558 74.5153 43.5962 76.018C44.4769 78.6698 45.5338 81.4099 47.2953 83.2662C47.6476 83.6198 48.0879 83.8849 48.4402 83.6198C48.6164 83.443 48.7044 83.1778 48.7044 82.8242C48.7925 81.1448 47.9118 79.6421 47.4714 78.051C47.031 76.2832 47.2953 74.3385 48.0879 72.9242C48.5283 72.1287 49.1448 71.4216 49.5852 70.626C50.0255 69.8305 50.2898 68.6814 49.9375 67.7974C49.5852 67.0019 48.9687 66.5599 48.2641 66.2948C47.5595 65.9412 46.6788 65.7644 46.1503 66.2948L48.0879 65.9412Z" fill="#BBBBBA"/>
<path d="M51.1703 66.2063C50.1135 65.676 49.0566 65.4108 47.9997 65.4992C47.8235 65.4992 47.4713 65.4992 47.207 65.4992C46.6786 65.5876 45.8859 65.8527 45.3575 66.1179C43.9483 66.8251 42.8034 67.9742 42.1868 69.8304C41.8346 70.9795 41.6584 72.217 41.9226 73.4545C42.0988 74.4269 42.363 75.4876 42.6272 76.4599C42.7153 76.9019 42.9795 77.5206 43.1557 77.8742C43.5079 78.8465 44.0364 79.642 44.5648 80.526C45.4456 81.9402 46.3263 83.2661 47.3832 84.5036C47.7355 84.9456 48.0878 85.476 48.5281 85.8295C48.7924 86.0947 48.7924 86.0947 49.0566 86.4483L50.0254 87.509C50.1135 87.3322 49.6731 86.3599 49.7612 86.1831C49.4089 85.7411 46.8547 82.4706 46.3263 81.6751C46.2382 81.5867 46.1502 81.4983 46.1502 81.4099C45.2694 80.084 44.4768 78.6697 43.8602 77.0786C43.8602 76.9902 43.7722 76.9019 43.7722 76.8135C43.6841 76.7251 43.6841 76.5483 43.596 76.3715C43.5079 76.1063 43.4199 75.8411 43.3318 75.4876C43.0676 74.4269 42.8914 73.3661 42.8034 72.217C42.8034 72.1286 42.8034 72.0402 42.8034 71.9519C42.9795 72.0402 43.0676 72.0402 43.1557 72.1286C43.6841 72.4822 44.0364 72.9242 44.5648 73.2777C44.741 73.4545 45.0052 73.6313 45.2694 73.7197C45.1813 73.5429 45.0933 73.3661 45.0052 73.2777C44.9171 73.1894 44.8291 73.0126 44.6529 72.9242C44.2125 72.4822 43.7722 72.0402 43.3318 71.5983C43.2437 71.5099 43.2437 71.5099 43.1557 71.4215C43.0676 71.3331 42.9795 71.2447 42.8914 71.1563C42.8034 70.9795 42.8034 70.8027 42.9795 70.626C43.1557 70.7144 43.2437 70.8911 43.4199 70.9795C43.8602 71.3331 44.3887 71.6867 44.8291 72.0402C45.0933 72.217 45.3575 72.3938 45.5336 72.5706C45.3575 72.217 45.0933 71.9518 44.8291 71.7751C44.3887 71.3331 43.8602 70.9795 43.508 70.5376C43.3318 70.3608 43.2437 70.184 43.1557 69.9188C43.1557 69.8304 43.0676 69.742 43.0676 69.742C43.1557 69.742 43.1557 69.742 43.2437 69.742C43.4199 69.8304 43.596 69.8304 43.7722 70.0072C44.2125 70.2724 44.6529 70.7144 45.0933 71.1563C45.2694 71.3331 45.5336 71.5099 45.7098 71.6867C45.5336 71.4215 45.5336 71.2447 45.4456 71.1563C45.3575 71.0679 45.2694 70.9795 45.1813 70.8911C44.741 70.4492 44.3887 70.0956 43.9483 69.6536C44.0364 69.8304 43.9483 69.8304 43.9483 69.742C43.8602 69.6536 43.7722 69.5652 43.7722 69.5652C43.508 69.3001 43.596 69.0349 43.8602 68.6813C44.4768 67.7974 45.0933 67.267 45.8859 66.9135C46.2382 66.7367 46.5024 66.6483 46.8547 66.5599H46.9428C47.119 66.5599 47.207 66.4715 47.3832 66.4715C47.5593 66.4715 47.7355 66.4715 47.9116 66.4715C48.2639 66.4715 48.5281 66.4715 48.8804 66.5599C49.4969 66.6483 50.1135 66.8251 50.6419 67.0019C50.9942 67.0902 51.2584 67.267 51.5226 67.4438C51.8749 67.709 52.2272 68.151 52.5795 68.5929C52.9318 69.1233 53.3722 69.6536 53.7245 70.184C53.9006 70.3608 53.9887 70.626 54.1648 70.8027C54.341 71.0679 54.5171 71.4215 54.6052 71.8635C54.6933 72.3054 54.8694 72.8358 54.9575 73.2777C55.3979 75.0456 55.7502 76.8135 55.6621 78.6697C55.6621 78.8465 55.6621 79.1117 55.6621 79.2885C55.3979 80.8795 55.3979 82.559 55.3979 84.2385C55.4859 84.2385 55.6621 84.2385 55.7502 84.2385C55.8382 83.001 55.7502 81.7635 55.9263 80.526C56.1024 79.3769 56.1024 78.1394 56.0144 76.9902C56.0144 76.7251 55.9263 76.5483 55.9263 76.2831C55.7502 74.9572 55.4859 73.5429 55.3098 72.217C55.2217 71.5983 55.0456 71.0679 54.8694 70.5376C54.7813 70.4492 54.6933 70.0956 54.6052 70.0072C54.1648 69.2117 53.8125 68.5045 53.2841 67.7974C52.4914 67.0902 51.7868 66.4715 51.1703 66.2063Z" fill="black"/>
<path d="M54.4289 87.4205C54.0766 87.9508 53.7243 88.3044 53.1958 88.4812C51.4344 89.1883 49.4968 86.8017 49.4087 86.6249L49.761 86.183C49.761 86.183 51.5225 88.216 53.0197 87.6856C53.9004 87.3321 54.7812 86.1829 55.1335 84.0615H55.4858C55.2215 85.4758 54.8692 86.6249 54.4289 87.4205Z" fill="black"/>
<path d="M62.3556 78.0509C62.2675 77.3438 61.8272 76.725 61.2987 76.1947C61.1226 76.0179 60.9464 75.9295 60.7703 75.7527C60.6822 75.6643 60.5941 75.6643 60.5061 75.5759C60.418 75.4875 60.2418 75.3991 60.1538 75.3108C59.185 74.692 58.04 74.25 56.9831 74.0733C56.895 74.0733 56.807 74.0733 56.7189 74.0733C56.5428 74.0733 56.4547 74.0733 56.2785 73.9849C56.1905 73.9849 56.0143 73.9849 55.9262 73.9849C55.7501 73.9849 55.574 73.9849 55.4859 73.9849C55.3978 73.9849 55.2217 73.9849 55.1336 74.0733C54.8694 74.1617 54.6051 74.25 54.429 74.3384C53.9006 74.692 53.5483 75.2224 53.284 75.7527C53.196 75.8411 53.196 75.9295 53.1079 76.1063C52.4033 77.3438 51.6987 78.5813 50.9941 79.8188C50.818 80.084 50.7299 80.3492 50.5538 80.6143C50.5538 80.7027 50.4657 80.7027 50.4657 80.7911C50.2895 81.0563 50.1134 81.3215 50.0253 81.675C49.9373 82.117 49.8492 82.6474 49.7611 83.0893C49.7611 83.3545 49.585 83.7081 49.585 83.9733C49.585 83.9733 49.585 83.9733 49.585 84.0617C49.673 85.034 49.673 86.8902 50.3776 87.509C51.0822 88.2161 52.6675 88.3929 54.2528 88.4813C55.0455 88.1277 55.8382 87.6858 56.6308 87.4206C57.4235 87.1554 58.1281 86.8018 58.8327 86.3599C59.0969 86.0947 59.3611 85.8295 59.6253 85.4759C59.9776 85.1224 60.1538 84.592 60.5061 84.2384C61.2106 83.6197 61.651 83.0893 62.0033 82.2054C62.0033 82.117 62.0914 81.7634 62.1795 81.675C62.4437 81.0563 62.2675 80.1724 62.3556 79.5536C62.3556 79.1117 62.4437 78.5813 62.3556 78.0509Z" fill="white"/>
<path d="M61.475 76.2831C60.8585 75.0456 59.2732 73.8081 58.0401 73.3661C56.9833 73.0126 56.5429 73.3661 55.486 73.5429C54.4291 73.8081 53.6365 74.692 53.0199 75.576C51.7869 77.167 50.73 78.9349 50.4658 81.0563C50.4658 81.4983 50.4658 81.9402 50.8181 82.117C50.9943 82.2054 51.2585 82.117 51.4346 82.117C52.4915 81.6751 52.9319 80.3492 53.7245 79.5536C54.6053 78.6697 55.9264 78.2277 57.1594 78.4929C57.864 78.5813 58.5686 78.9349 59.3612 79.0233C60.0658 79.1117 60.8585 79.0233 61.2988 78.4045C61.6511 77.8742 61.5631 77.167 61.3869 76.4599C61.2108 75.7527 60.8585 74.9572 60.242 74.6036L61.475 76.2831Z" fill="#BBBBBA"/>
<path d="M62.972 78.9346C62.7078 77.8739 62.2674 76.9899 61.739 76.106C61.6509 75.9292 61.3867 75.5756 61.2986 75.3989C60.9463 74.9569 60.594 74.6033 60.1537 74.1614C59.0087 73.189 57.6876 72.7471 56.2784 72.7471C55.3977 72.7471 54.605 72.9239 53.9885 73.5426C53.4601 74.073 53.0197 74.6033 52.5793 75.1337C52.4032 75.3989 52.2271 75.664 52.0509 75.9292C51.6105 76.548 51.3463 77.2551 51.0821 78.0506C50.6417 79.2881 50.2894 80.4372 50.0252 81.7631C49.9371 82.2051 49.8491 82.7355 49.761 83.1774C49.761 83.4426 49.5849 83.7962 49.5849 84.0614C49.5849 84.1497 49.0564 86.6248 50.3775 87.9506C50.7298 88.3042 50.906 88.6578 51.3463 88.8346C52.0509 89.0114 52.8436 89.1881 53.7243 88.923L54.605 88.7462L55.3977 88.481C56.1904 88.1274 56.1904 88.039 57.0711 87.7739C57.8638 87.5087 58.6564 86.9783 59.2729 86.5364C59.361 86.448 59.9775 86.0944 60.0656 86.006C60.7702 85.3873 60.9463 85.2105 61.6509 84.5917C61.9151 84.3265 62.1793 83.7078 62.3555 83.3542C62.3555 83.2658 62.6197 82.4703 62.6197 82.4703C62.8839 81.8515 62.7959 81.6747 62.972 81.056C63.1482 80.2605 63.1482 79.5533 62.972 78.9346ZM62.0913 80.7908C62.0032 81.3212 61.8271 81.7631 61.6509 82.2935C61.5628 82.4703 61.5628 82.6471 61.4748 82.8239C61.3867 83.089 61.2105 83.3542 61.0344 83.531C60.7702 83.7962 60.594 84.0614 60.3298 84.3265C59.4491 85.2105 58.5683 86.0944 57.4234 86.7131C57.3353 86.8015 57.1592 86.8899 57.0711 86.8899C55.9261 87.2435 54.9573 87.6855 53.9004 88.2158C52.4032 88.5694 51.2582 88.2158 50.6417 87.5087C49.5849 86.448 49.8491 84.4149 49.9371 84.2381C50.0252 83.7962 50.1133 83.4426 50.2894 83.0006C50.4656 83.1774 50.5537 83.2658 50.7298 83.4426C50.7298 83.0006 50.7298 82.5587 50.7298 82.2051C50.7298 81.4096 50.7298 80.614 50.906 79.9069C50.906 79.8185 50.994 79.7301 50.994 79.6417C51.4344 78.4926 51.8748 77.3435 52.4913 76.2828C52.4913 76.1944 52.5793 76.1944 52.5793 76.106C52.6674 76.0176 52.6674 75.9292 52.7555 75.8408C52.8436 75.664 53.0197 75.4872 53.1078 75.3105C53.6362 74.6917 54.1647 74.2497 54.7812 73.8078L54.8693 73.7194C54.8693 73.8962 54.9573 73.9846 54.9573 74.1614C55.0454 74.6917 54.9573 75.2221 54.9573 75.7524C54.9573 76.0176 54.9573 76.1944 55.0454 76.4596C55.1335 76.2828 55.1335 76.1944 55.2215 76.106C55.2215 76.0176 55.2215 75.8408 55.3096 75.7524C55.3096 75.2221 55.3977 74.6917 55.3977 74.1614C55.3977 74.073 55.3977 74.073 55.3977 73.9846C55.3977 73.8962 55.3977 73.7194 55.4858 73.7194C55.5738 73.631 55.6619 73.5426 55.8381 73.631C55.8381 73.8078 55.8381 73.9846 55.8381 74.1614C55.8381 74.6917 55.8381 75.2221 55.9261 75.7524C55.9261 76.0176 55.9261 76.2828 55.9261 76.548C56.0142 76.2828 56.1023 76.0176 56.1023 75.664C56.1023 75.1337 56.1023 74.6033 56.1904 74.073C56.1904 73.8962 56.2784 73.7194 56.3665 73.5426C56.3665 73.4542 56.4546 73.4542 56.4546 73.3658C56.4546 73.4542 56.5426 73.4542 56.5426 73.5426C56.6307 73.7194 56.6307 73.8962 56.7188 74.073C56.8069 74.5149 56.7188 75.0453 56.6307 75.5756C56.6307 75.8408 56.6307 76.0176 56.6307 76.2828C56.7188 76.0176 56.8069 76.0176 56.8069 75.8408C56.8069 75.7524 56.8069 75.5756 56.8069 75.4872C56.8949 75.0453 56.8949 74.5149 56.983 74.073C56.983 73.9846 56.983 73.8962 56.983 73.8078C56.983 73.7194 56.983 73.631 56.983 73.5426C57.0711 73.2774 57.1592 73.189 57.5995 73.3658C58.3922 73.631 59.0968 73.9846 59.7133 74.5149C59.9775 74.6917 60.1537 74.9569 60.4179 75.2221C60.4179 75.2221 60.4179 75.3105 60.5059 75.3105C60.594 75.3989 60.6821 75.5756 60.7702 75.664C60.8582 75.8408 60.9463 75.9292 61.0344 76.106C61.2105 76.3712 61.2986 76.6364 61.4748 76.9899C61.739 77.5203 61.9151 78.139 62.1793 78.6694C62.2674 78.9346 62.3555 79.2881 62.3555 79.5533C62.2674 79.9953 62.1793 80.4372 62.0913 80.7908Z" fill="black"/>
<path d="M22.282 73.8963C22.7224 74.515 23.2508 75.1338 23.8673 75.6641C25.8049 77.2552 27.9187 78.1391 30.2967 78.4927C30.4728 78.4927 30.7371 78.5811 30.9132 78.5811C31.4416 78.6695 31.9701 78.8463 32.4985 79.0231C32.6747 79.1115 32.9389 79.0231 33.2031 79.0231C33.2912 79.0231 33.4673 78.9347 33.5554 78.9347C33.9958 78.7579 36.1976 78.4043 36.638 78.3159C37.7829 77.9624 38.3994 77.1668 38.9279 76.1061C39.7205 74.2499 39.6325 72.3052 39.4563 70.449C39.3683 69.8302 39.3683 69.2999 39.4563 68.7695C39.5444 68.0624 39.6325 67.3552 39.8967 66.7365C40.0728 66.1177 40.3371 65.499 40.6894 64.8802C41.3059 63.7311 42.0985 62.7588 42.9793 61.6981C43.86 60.7258 44.6527 59.5766 45.2692 58.4275C45.6215 57.7204 45.5334 57.632 45.7976 56.8365C45.7976 56.7481 45.8857 56.7481 45.8857 56.6597C46.326 55.4222 46.7664 54.0963 46.5903 52.682C46.5903 52.4168 46.5022 52.0633 46.5022 51.7981C46.4141 51.1793 46.326 50.5606 46.238 49.9418C45.2692 47.9972 43.9481 46.4061 42.2747 45.0802C41.3059 44.2847 40.3371 43.6659 39.104 43.224C38.9279 43.1356 38.6637 43.0472 38.4875 42.9588C38.1352 42.782 37.7829 42.6052 37.4306 42.4284C37.2545 42.34 36.9903 42.1633 36.8141 42.0749C36.2857 41.8097 35.7572 41.8097 35.1407 41.8981H35.0527C34.4361 41.9865 33.9077 41.8981 33.3793 42.0749C33.2912 42.0749 33.2912 42.0749 33.2031 42.1633C32.8508 42.2517 32.4985 42.34 32.0582 42.4284C31.1774 42.6936 30.2967 43.1356 29.416 43.4892C27.7426 44.1963 26.3334 45.257 25.4527 46.7597C25.1004 47.29 24.8361 47.8204 24.66 48.5275C24.2196 49.6767 23.9554 50.8258 23.8673 52.0633C23.8673 52.5936 23.8673 53.124 23.7793 53.6543C23.6912 55.2454 23.515 56.8365 23.1627 58.3391C22.9866 59.2231 22.7224 60.107 22.4582 60.9909C21.5774 63.9079 20.9609 66.8249 21.1371 69.8302C21.049 71.3329 21.4013 72.6588 22.282 73.8963Z" fill="white"/>
<path d="M22.282 73.8963C22.7224 74.515 23.2508 75.1338 23.8673 75.6641C25.8049 77.2552 27.9187 78.1391 30.2967 78.4927C30.4728 78.4927 30.7371 78.5811 30.9132 78.5811C31.4416 78.6695 31.9701 78.8463 32.4985 79.0231C32.6747 79.1115 32.9389 79.0231 33.2031 79.0231C33.2912 79.0231 33.4673 78.9347 33.5554 78.9347C33.9958 78.7579 36.1976 78.4043 36.638 78.3159C37.7829 77.9624 38.3994 77.1668 38.9279 76.1061C39.7205 74.2499 39.6325 72.3052 39.4563 70.449C39.3683 69.8302 39.3683 69.2999 39.4563 68.7695C39.5444 68.0624 39.6325 67.3552 39.8967 66.7365C40.0728 66.1177 40.3371 65.499 40.6894 64.8802C41.3059 63.7311 42.0985 62.7588 42.9793 61.6981C43.86 60.7258 44.6527 59.5766 45.2692 58.4275C45.6215 57.7204 45.5334 57.632 45.7976 56.8365C45.7976 56.7481 45.8857 56.7481 45.8857 56.6597C46.326 55.4222 46.7664 54.0963 46.5903 52.682C46.5903 52.4168 46.5022 52.0633 46.5022 51.7981C46.4141 51.1793 46.326 50.5606 46.238 49.9418C45.2692 47.9972 43.9481 46.4061 42.2747 45.0802C41.3059 44.2847 40.3371 43.6659 39.104 43.224C38.9279 43.1356 38.6637 43.0472 38.4875 42.9588C38.1352 42.782 37.7829 42.6052 37.4306 42.4284C37.2545 42.34 36.9903 42.1633 36.8141 42.0749C36.2857 41.8097 35.7572 41.8097 35.1407 41.8981H35.0527C34.4361 41.9865 33.9077 41.8981 33.3793 42.0749C33.2912 42.0749 33.2912 42.0749 33.2031 42.1633C32.8508 42.2517 32.4985 42.34 32.0582 42.4284C31.1774 42.6936 30.2967 43.1356 29.416 43.4892C27.7426 44.1963 26.3334 45.257 25.4527 46.7597C25.1004 47.29 24.8361 47.8204 24.66 48.5275C24.2196 49.6767 23.9554 50.8258 23.8673 52.0633C23.8673 52.5936 23.8673 53.124 23.7793 53.6543C23.6912 55.2454 23.515 56.8365 23.1627 58.3391C22.9866 59.2231 22.7224 60.107 22.4582 60.9909C21.5774 63.9079 20.9609 66.8249 21.1371 69.8302C21.049 71.3329 21.4013 72.6588 22.282 73.8963Z" fill="white"/>
<path d="M31.9704 77.6972C31.7062 77.5204 31.3539 77.432 31.0016 77.3437C30.6493 77.2553 30.209 77.0785 29.8567 76.9017C29.5925 76.8133 29.2402 76.6365 28.9759 76.4597C28.7998 76.3713 28.6236 76.2829 28.4475 76.1945C28.3594 76.1062 28.2714 76.0178 28.1833 75.9294C27.9191 75.7526 27.6548 75.5758 27.4787 75.3106C27.3025 75.1338 27.2145 75.0454 27.0383 74.8687C26.8622 74.6919 26.598 74.5151 26.5099 74.2499C26.3337 74.0731 26.2457 73.8079 26.1576 73.6312C26.0695 73.4544 25.8934 73.2776 25.8053 73.1008C25.6292 72.7472 25.5411 72.3937 25.3649 72.0401C25.1007 71.3329 24.8365 70.7142 24.6603 69.9187C24.5723 69.5651 24.4842 69.2115 24.3961 68.8579C24.3081 68.5044 24.3081 68.1508 24.22 67.7972C24.1319 67.532 24.1319 67.3553 24.0438 67.0901C24.0438 66.8249 23.9558 66.5597 23.9558 66.2945C23.9558 66.1178 23.9558 65.941 23.9558 65.7642C23.9558 65.5874 23.9558 65.3222 23.8677 65.1454C23.7796 64.7035 23.7796 64.2615 23.7796 63.8195C23.6915 63.3776 23.6915 62.9356 23.6035 62.4937C23.5154 62.1401 23.5154 61.6981 23.5154 61.2562C23.5154 61.0794 23.5154 60.991 23.5154 60.8142C23.5154 60.7258 23.5154 60.6374 23.5154 60.549C23.5154 60.4606 23.4273 60.3722 23.4273 60.2838C23.4273 60.107 23.3392 59.9303 23.3392 59.8419C23.3392 59.7535 23.3392 59.6651 23.3392 59.5767V59.4883C23.3392 59.3999 23.3392 59.3999 23.3392 59.3999C23.2512 59.5767 23.1631 59.7535 23.075 59.9303C22.987 60.1954 22.8989 60.549 22.8108 60.9026C22.8108 61.0794 22.7227 61.2562 22.6347 61.5213C22.6347 61.6981 22.5466 61.7865 22.5466 61.9633C22.4585 62.4937 22.4585 63.1124 22.2824 63.6428C22.1943 63.9079 22.1943 64.2615 22.1062 64.5267C22.0181 64.7035 21.9301 64.9687 21.9301 65.1454C21.842 65.5874 21.7539 66.0294 21.6659 66.3829C21.6659 66.5597 21.5778 66.7365 21.5778 66.9133C21.5778 67.1785 21.5778 67.3553 21.4897 67.6204C21.4897 67.7972 21.4897 67.974 21.4897 68.2392C21.4897 68.5044 21.4016 68.7695 21.4016 68.9463C21.4016 69.3883 21.4016 69.7419 21.3136 70.1838C21.2255 70.449 21.3136 70.7142 21.3136 70.9794C21.3136 71.1562 21.4016 71.4213 21.4016 71.5981C21.4016 71.7749 21.4897 71.9517 21.5778 72.1285C21.5778 72.3053 21.6659 72.482 21.7539 72.6588C21.842 72.8356 21.842 72.924 22.0181 73.1008C22.2824 73.4544 22.4585 73.8079 22.8989 74.0731C22.987 74.1615 23.075 74.2499 23.2512 74.3383C23.4273 74.5151 23.6035 74.6035 23.6915 74.7803C23.7796 74.8687 23.8677 74.9571 23.9558 75.0454C24.1319 75.2222 24.3961 75.399 24.5723 75.5758C24.8365 75.7526 25.0126 75.9294 25.2769 76.0178C25.5411 76.1062 25.7172 76.2829 25.9814 76.3713C26.3337 76.5481 26.598 76.7249 26.9503 76.8133C27.2145 76.9017 27.3906 77.0785 27.6548 77.1669C27.9191 77.2553 28.1833 77.3437 28.4475 77.432C28.7117 77.5204 28.8879 77.6972 29.1521 77.6972C29.4163 77.7856 29.6805 77.7856 29.9447 77.7856C30.209 77.874 30.5613 77.874 30.8255 77.9624C31.0016 77.9624 31.2658 78.0508 31.5301 77.9624C31.6181 77.9624 31.7062 77.9624 31.7943 77.874C31.8824 77.9624 32.0585 77.874 31.9704 77.6972Z" fill="#BBBBBA"/>
<path d="M37.6072 44.3729C37.3429 44.2845 37.1668 44.1077 36.9026 44.0194C36.8145 44.0194 36.7264 43.931 36.6383 43.931C36.5503 43.931 36.4622 43.8426 36.3741 43.8426C36.0218 43.6658 35.5815 43.5774 35.2292 43.4006C35.053 43.3122 34.8769 43.3122 34.7007 43.2238C34.5246 43.1354 34.3484 43.1354 34.2604 43.047C33.9961 42.9586 33.7319 42.8702 33.5558 42.7819C33.3796 42.7819 33.2035 42.6935 33.1154 42.6051C33.0273 42.6051 33.0273 42.6051 32.9393 42.6051H32.8512H32.7631C32.675 42.6051 32.675 42.6051 32.587 42.6051C32.4989 42.6051 32.4989 42.6051 32.4108 42.6051C32.4108 42.6051 32.3228 42.6051 32.3228 42.5167L32.4108 42.4283C32.587 42.3399 32.7631 42.2515 32.9393 42.2515C33.2916 42.1631 33.6439 42.0747 33.9961 42.0747C34.3484 42.0747 34.7007 42.0747 35.053 42.0747C35.4053 42.1631 35.7576 42.2515 36.1099 42.3399C36.4622 42.4283 36.8145 42.6051 37.1668 42.7819C37.5191 42.9586 37.8714 43.1354 38.1356 43.3122C38.4879 43.489 38.7521 43.6658 39.1044 43.931C39.4567 44.1077 39.7209 44.3729 39.9851 44.5497C40.2494 44.7265 40.6017 44.9917 40.8659 45.1685C41.042 45.3452 41.3062 45.4336 41.4824 45.6104C42.275 46.1408 42.8916 47.1131 43.5961 47.7319C44.8292 48.881 45.3576 50.6488 45.8861 52.2399C46.2383 53.3006 46.5026 54.4497 46.1503 55.5104C45.8861 56.2176 45.0934 56.5711 44.8292 57.2783C43.5961 60.9024 41.2182 61.8747 39.8971 64.9685C39.4567 65.9408 38.7521 75.1336 38.3998 76.106C37.9594 77.3435 33.6439 79.5533 34.5246 77.9622C34.965 77.1667 36.1099 74.0729 36.5503 71.4211C36.6383 71.156 36.6383 70.8024 36.6383 70.5372C36.6383 70.4488 36.6383 70.4488 36.6383 70.3604C36.6383 70.272 36.6383 70.1836 36.6383 70.0952C36.6383 70.0952 36.6383 70.0952 36.6383 70.0068C36.6383 69.9185 36.6383 69.9185 36.6383 69.8301C36.6383 69.7417 36.6383 69.5649 36.6383 69.4765C36.6383 69.2997 36.6383 69.1229 36.6383 69.0345C36.6383 68.8577 36.6383 68.681 36.6383 68.5042C36.6383 68.3274 36.6383 68.1506 36.7264 68.0622C36.7264 67.8854 36.8145 67.797 36.9026 67.6202C36.9906 67.3551 36.9906 67.0899 37.0787 66.8247C37.0787 66.6479 37.1668 66.4711 37.2549 66.2943C37.2549 66.206 37.3429 66.0292 37.3429 65.9408C37.3429 65.8524 37.3429 65.764 37.431 65.6756C37.5191 65.322 37.6952 64.9685 37.7833 64.7033C37.8714 64.5265 37.9595 64.3497 38.0475 64.1729C38.1356 63.9077 38.3117 63.731 38.3998 63.4658C38.576 63.1122 38.8402 62.7586 39.0163 62.4935C39.0163 62.4051 39.1044 62.4051 39.1044 62.3167C39.1925 62.2283 39.1925 62.2283 39.2805 62.1399C39.3686 62.0515 39.4567 61.8747 39.6328 61.7863C39.7209 61.6979 39.809 61.6979 39.8971 61.6095C39.9851 61.5211 40.0732 61.5211 40.1613 61.4327C40.2494 61.3443 40.2494 61.3444 40.3374 61.256C40.4255 61.1676 40.5136 61.1676 40.6016 61.0792C40.6897 60.9908 40.7778 60.9024 40.8659 60.814C40.9539 60.7256 41.042 60.5488 41.2182 60.4604C41.3943 60.2836 41.5705 60.1068 41.7466 59.8417C41.9228 59.6649 42.0108 59.4881 42.187 59.3113C42.275 59.2229 42.275 59.2229 42.3631 59.1345C42.4512 59.0461 42.5393 58.9577 42.6273 58.8693C42.7154 58.781 42.8035 58.6042 42.8916 58.5158C42.9796 58.339 43.0677 58.2506 43.2439 58.0738C43.3319 57.9854 43.3319 57.897 43.42 57.8086C43.5081 57.7202 43.5081 57.6318 43.5961 57.6318C43.7723 57.3667 43.8604 57.1015 43.9484 56.8363C43.9484 56.6595 44.0365 56.5711 44.0365 56.3943C44.0365 56.306 44.0365 56.306 44.0365 56.2176C44.0365 56.1292 44.0365 56.0408 44.1246 55.9524C44.1246 55.864 44.1246 55.7756 44.1246 55.5988C44.1246 55.5104 44.1246 55.422 44.1246 55.3336C44.1246 55.1568 44.1246 54.9801 44.1246 54.7149C44.1246 54.5381 44.1246 54.2729 44.0365 54.0961C44.0365 53.9194 44.0365 53.7426 44.0365 53.5658C44.0365 53.4774 44.0365 53.4774 44.0365 53.389C44.0365 53.3006 44.0365 53.2122 44.0365 53.1238C44.0365 53.0354 44.0365 53.0354 43.9484 52.947C43.9484 52.8586 43.9484 52.8586 43.9484 52.7702C43.9484 52.6819 43.9484 52.6818 43.9484 52.6818C43.9484 52.5935 43.9484 52.5935 43.9484 52.5051C43.8604 52.3283 43.8604 52.1515 43.7723 52.0631C43.7723 51.9747 43.7723 51.9747 43.6842 51.8863C43.6842 51.7979 43.5961 51.7095 43.5961 51.6211C43.5081 51.5327 43.5081 51.356 43.42 51.2676C43.42 51.1792 43.3319 51.0908 43.3319 51.0024C43.3319 50.914 43.2439 50.914 43.2439 50.8256C43.2439 50.7372 43.1558 50.6488 43.1558 50.5604C43.0677 50.472 43.0677 50.3836 42.9796 50.2069C42.9796 50.1185 42.8916 50.0301 42.8916 49.9417C42.8035 49.8533 42.8035 49.7649 42.7154 49.6765C42.5393 49.3229 42.3631 49.0577 42.275 48.7042C42.187 48.5274 42.0989 48.3506 42.0108 48.0854C41.9228 47.9086 41.8347 47.7319 41.7466 47.5551C41.6585 47.3783 41.5705 47.2899 41.4824 47.1131C41.3943 46.9363 41.3062 46.8479 41.2182 46.6711C41.1301 46.5827 41.042 46.4944 40.9539 46.3176C40.8659 46.2292 40.8659 46.1408 40.7778 46.0524C40.6897 45.964 40.6017 45.8756 40.4255 45.6988C40.3374 45.6104 40.1613 45.4336 40.0732 45.3452C39.9851 45.2569 39.8971 45.1685 39.7209 45.0801C39.6328 44.9917 39.5448 44.9917 39.4567 44.9033C39.3686 44.8149 39.2806 44.7265 39.1044 44.7265C39.0163 44.6381 38.9283 44.6381 38.8402 44.5497C38.0475 44.6381 37.8714 44.4613 37.6072 44.3729Z" fill="#BBBBBA"/>
<path d="M33.5556 78.9347C33.996 78.7579 36.1978 78.4043 36.6382 78.3159C37.7831 77.9624 38.3996 77.1668 38.9281 76.1061C39.7207 74.2499 39.6327 72.3052 39.4565 70.449C39.3684 69.8302 39.3684 69.2999 39.4565 68.7695C39.5446 68.0624 39.6327 67.3552 39.8969 66.7365C40.073 66.1177 40.3373 65.499 40.6895 64.8802C41.3061 63.7311 42.0987 62.7588 42.9795 61.6981C43.8602 60.7258 44.6529 59.5766 45.2694 58.4275C45.6217 57.7204 45.5336 57.632 45.7978 56.8365C45.7978 56.7481 45.8859 56.7481 45.8859 56.6597C46.3262 55.4222 46.7666 54.0963 46.5905 52.682C46.5905 52.4168 46.5024 52.0633 46.5024 51.7981C46.4143 51.1793 46.3262 50.5606 46.2382 49.9418C45.2694 47.9972 43.9483 46.4061 42.2749 45.0802C41.3061 44.2847 40.3373 43.6659 39.1042 43.224C38.9281 43.1356 38.6639 43.0472 38.4877 42.9588C38.1354 42.782 37.7831 42.6052 37.4308 42.4284C37.2547 42.34 36.9905 42.1633 36.8143 42.0749C36.2859 41.8097 35.7574 41.8097 35.1409 41.8981H35.0529C34.4363 41.9865 33.9079 41.8981 33.3795 42.0749C33.2914 42.0749 33.2914 42.0749 33.2033 42.1633H33.1152C33.7317 42.4284 34.4363 42.9588 35.0529 43.224H35.1409C35.229 43.224 35.229 43.224 35.3171 43.224C35.4051 43.224 35.4051 43.224 35.4932 43.224C35.4932 43.224 35.4932 43.224 35.5813 43.224C35.4932 43.224 35.4932 43.224 35.4051 43.224C35.5813 43.3124 35.7574 43.4008 35.9336 43.4892C36.0217 43.4892 36.1097 43.4892 36.1978 43.4892C36.7262 43.4008 37.1666 43.5775 37.6951 43.8427C37.8712 43.9311 38.0473 44.0195 38.2235 44.1079C38.1354 44.1079 38.0473 44.1963 37.9593 44.1963C37.7831 44.2847 37.6951 44.2847 37.5189 44.3731C37.607 44.3731 37.6951 44.4615 37.8712 44.5499C37.9593 44.5499 38.0473 44.6383 38.1354 44.6383C38.2235 44.6383 38.2235 44.6383 38.3116 44.5499C38.3996 44.4615 38.4877 44.4615 38.5758 44.4615C38.6639 44.4615 38.7519 44.3731 38.84 44.3731C39.0162 44.3731 39.1923 44.2847 39.2804 44.3731C39.7207 44.3731 40.073 44.6383 40.4253 44.9034C42.1868 46.0525 43.596 47.5552 44.6529 49.4115C44.829 49.6767 44.9171 49.9418 45.0051 50.207C45.4455 51.8865 46.062 53.5659 45.5336 55.2454C45.3574 55.8642 44.9171 57.2784 44.6529 57.632C44.3006 58.2508 43.8602 59.0463 43.5079 59.5767C43.0675 60.4606 42.451 60.9909 41.8345 61.7865C41.6584 61.9633 41.3941 62.2284 41.218 62.4052L41.1299 62.4936C39.8088 64.1731 39.0162 66.5597 39.0162 66.6481C38.6639 67.974 38.7519 68.4159 38.7519 69.7418C38.7519 70.449 38.9281 72.2168 38.84 72.924C38.3996 73.0124 37.4308 73.0124 36.9905 73.1008C36.7262 73.1008 36.5501 73.1891 36.2859 73.1891C36.1978 73.3659 36.1978 73.5427 36.1097 73.6311C36.374 73.6311 36.5501 73.5427 36.8143 73.5427C37.2547 73.4543 38.3996 73.4543 38.84 73.3659C38.84 73.5427 38.9281 73.8963 38.9281 73.9847C38.9281 74.4266 38.2235 74.3382 37.8712 74.4266C37.7831 74.4266 37.6951 74.515 37.5189 74.515C37.1666 74.6034 36.8143 74.6034 36.374 74.6918C36.1978 74.6918 36.0217 74.7802 35.9336 74.7802C35.9336 74.957 35.9336 75.0454 35.8455 75.2222C35.9336 75.2222 36.1097 75.2222 36.1978 75.1338C36.6382 75.0454 37.0785 74.957 37.5189 74.957C37.607 74.957 38.6639 74.7802 38.7519 74.7802C38.7519 74.8686 38.4877 75.2222 38.5758 75.3106C38.3116 75.5758 37.3428 75.4874 36.9905 75.6641C36.6382 75.8409 36.2859 75.9293 35.8455 76.0177C35.7574 76.0177 35.6694 76.1061 35.6694 76.1061C35.6694 76.2829 35.5813 76.4597 35.5813 76.6365H35.6694L38.0473 76.0177C38.1354 76.9016 37.5189 76.8133 36.9905 77.0784C36.6382 77.2552 35.4051 77.5204 34.5244 77.6972C34.1721 77.7856 33.9079 77.874 33.7317 77.874C33.8198 78.0508 33.8198 78.3159 33.7317 78.4927C33.6437 78.6695 33.5556 78.7579 33.5556 78.9347C33.5556 78.8463 33.5556 78.9347 33.5556 78.9347Z" fill="black"/>
<path d="M22.2822 73.8961C22.7226 74.5148 23.251 75.1336 23.8675 75.6639C25.8051 77.255 27.9189 78.139 30.2969 78.4925C30.473 78.4925 30.7372 78.5809 30.9134 78.5809C31.4418 78.6693 31.9703 78.8461 32.4987 79.0229C32.6749 79.1113 32.9391 79.0229 33.2033 79.0229C33.2914 79.0229 33.4675 78.9345 33.5556 78.9345C33.7317 78.9345 33.8198 78.8461 33.996 78.8461C34.084 78.6693 34.1721 78.4041 34.2602 78.2273C34.3483 78.0506 34.4363 77.9622 34.4363 77.8738C34.4363 77.7854 34.5244 77.697 34.5244 77.697C34.7005 77.4318 34.7886 77.1666 35.0528 76.9898C35.1409 76.9014 35.229 76.9015 35.4051 76.8131C35.4051 76.8131 35.4051 76.8131 35.4932 76.8131C35.5813 76.6363 35.6694 76.5479 35.7574 76.3711V76.2827C35.8455 76.0175 35.9336 75.664 36.1097 75.3988C36.1978 75.222 36.1978 75.1336 36.2859 74.9568C36.3739 74.6032 36.462 74.2497 36.6382 73.8961V73.8077C36.6382 73.7193 36.7262 73.7193 36.7262 73.6309C36.7262 73.5425 36.8143 73.4541 36.8143 73.3657C36.9024 73.1006 36.9024 72.9238 36.9905 72.747L37.0785 72.8354C37.0785 72.747 37.0785 72.747 37.0785 72.747C37.0785 72.747 36.9905 72.747 36.9024 72.747C36.9024 72.3934 36.9905 71.9514 36.9905 71.5979C37.1666 70.1836 37.2547 68.6809 37.4308 67.2666C37.4308 67.0898 37.4308 66.9131 37.5189 66.7363C37.7831 64.7916 38.7519 63.2006 40.073 61.7863C40.4253 61.4327 40.7776 61.0791 41.218 60.7256C41.8345 60.1068 42.5391 59.4881 42.9794 58.7809C44.4767 56.4827 45.0051 54.0961 43.7721 51.5327C43.2437 50.3836 42.7152 49.3229 42.0987 48.2622C41.9226 47.997 41.8345 47.7318 41.6583 47.4666C41.3941 47.0247 41.218 46.7595 40.9538 46.4059C40.7776 46.0523 40.5134 45.7872 40.1611 45.6104C39.9849 45.522 39.8969 45.4336 39.7207 45.3452L39.5446 45.2568C39.5446 45.2568 39.5446 45.2568 39.4565 45.2568C39.4565 45.2568 39.4565 45.2568 39.4565 45.1684C39.1042 44.9916 38.7519 44.8148 38.3116 44.6381C38.1354 44.5497 37.9593 44.4613 37.7831 44.3729C37.2547 44.1077 36.6382 43.9309 36.1097 43.6657C35.9336 43.5773 35.6694 43.4889 35.4932 43.4006C35.4932 43.4006 35.4932 43.4006 35.4051 43.4006H35.3171C35.229 43.4006 35.229 43.4006 35.1409 43.4006C35.0528 43.4006 34.9648 43.3122 34.8767 43.3122C34.7005 43.2238 34.5244 43.1354 34.3483 43.047C34.2602 42.9586 34.1721 42.9586 34.084 42.9586C33.996 42.8702 33.9079 42.8702 33.8198 42.7818C33.6437 42.6934 33.4675 42.5166 33.2914 42.4282C33.2033 42.4282 33.2033 42.3398 33.1152 42.3398C32.7629 42.4282 32.4106 42.5166 31.9703 42.605C31.0895 42.8702 30.2088 43.3122 29.3281 43.6657C27.6547 44.3729 26.2455 45.4336 25.3648 46.9363C25.0125 47.4666 24.7483 47.997 24.5721 48.7041C24.1317 49.8532 23.8675 51.0023 23.7794 52.2398C23.7794 52.7702 23.7794 53.3006 23.6914 53.8309C23.6033 55.422 23.4272 57.0131 23.0749 58.5157C22.8987 59.3997 22.6345 60.2836 22.3703 61.1675C21.4895 64.0845 20.873 67.0014 21.0492 70.0068C21.0492 71.3327 21.4015 72.6586 22.2822 73.8961ZM25.7171 70.1836L22.1941 71.5979C22.018 70.6256 21.9299 69.7416 21.9299 68.7693C21.9299 65.6756 22.8106 62.6702 23.6033 59.7532C23.6914 59.4881 23.7794 59.2229 23.7794 59.0461C23.8675 58.7809 23.8675 58.5157 23.9556 58.2506C24.0437 57.9854 24.0437 57.7202 24.1317 57.3666C24.3079 54.98 24.484 52.7702 24.6602 50.5604C24.6602 50.3836 24.7483 50.2952 24.7483 50.1184C25.1886 48.5273 25.8932 47.2898 26.862 46.2291C27.0382 45.9639 27.3024 45.7872 27.5666 45.6104C28.6235 44.7264 29.8565 44.1077 31.3538 43.7541C31.9703 43.5773 32.6749 43.489 33.3794 43.489C33.5556 43.489 33.6437 43.489 33.8198 43.489C33.9079 43.489 33.996 43.4889 34.084 43.5773C34.1721 43.5773 34.3482 43.6657 34.4363 43.6657C35.4051 43.8425 36.3739 44.1961 37.3427 44.5497C37.4308 44.5497 37.5189 44.6381 37.695 44.7264C37.7831 44.7264 37.8712 44.8148 37.9593 44.8148C38.9281 45.2568 39.8969 45.8756 40.4253 46.9363C41.1299 48.1738 41.7464 49.3229 42.3629 50.6488C42.7152 51.2675 42.9794 51.8863 43.2437 52.505C44.1244 54.6265 43.684 56.6595 42.3629 58.5157C42.0106 58.9577 41.5703 59.3997 41.218 59.8416C40.7776 60.1952 40.3372 60.6372 39.985 60.9907C38.2235 62.6702 37.2547 64.6148 36.9024 67.0015C36.9024 67.0898 36.9024 67.0898 36.9024 67.1782C36.6382 69.7416 36.462 72.3934 35.8455 74.9568C35.5813 76.1943 34.8767 76.9014 33.9079 77.5202C32.851 78.0506 31.8822 77.9622 30.8253 77.7854C30.7372 77.7854 30.7372 77.7854 30.6492 77.7854C28.1831 77.5202 25.9813 76.4595 24.2198 74.78C23.8675 74.4264 23.6033 73.9845 23.1629 73.4541C23.8675 72.9238 24.484 72.4818 25.1005 72.1282C25.3648 72.0398 25.5409 71.8631 25.8051 71.7747C25.8051 71.6863 25.8932 71.5979 25.8932 71.5095C25.5409 71.5979 25.1886 71.7747 24.8363 71.9515C24.3079 72.2166 23.7794 72.5702 23.251 72.8354C22.8987 73.0122 22.7226 72.8354 22.6345 72.3934C23.251 72.0398 23.7794 71.6863 24.396 71.4211C25.4528 70.5372 25.4528 70.5372 25.7171 70.1836Z" fill="black"/>
<path d="M27.2141 75.6642C27.3903 75.4874 27.5664 75.3106 27.7426 75.0454C29.7682 70.7142 31.0013 66.2945 30.649 61.5213C30.5609 60.3722 30.5609 59.3115 30.4728 58.1624C30.4728 57.7204 30.5609 57.4553 30.9132 57.1901C32.7627 55.7758 34.5242 54.4499 36.2857 52.9472C37.6068 51.7981 38.9279 50.649 40.249 49.4999C39.4563 48.8812 39.104 48.7928 38.5756 49.3231C38.2233 49.6767 37.9591 50.0303 37.6068 50.3838C37.2545 50.7374 36.9903 51.091 36.638 51.3562C34.7003 52.8588 32.6747 54.3615 30.649 55.8642C30.5609 55.9526 30.3848 55.9526 30.1205 56.041C29.0637 54.0963 28.271 49.2347 27.3022 47.0249C27.126 47.3785 26.8618 47.6437 26.8618 47.8204C26.8618 48.2624 27.6545 51.1794 27.7426 51.6213C28.3591 53.6544 28.9756 55.7758 29.5921 57.8088C29.6802 58.074 29.6802 58.3392 29.6802 58.6928C29.6802 61.1678 29.6802 63.6428 29.5921 66.2062C29.5921 67.1785 29.2398 68.1508 28.9756 69.1231C28.3591 71.0678 27.6545 73.0124 26.9499 74.9571C26.8618 75.1338 26.8618 75.3106 26.8618 75.399C27.038 75.5758 27.126 75.6642 27.2141 75.6642Z" fill="black"/>
</svg>
