<svg width="133" height="130" viewBox="0 0 133 130" fill="none" xmlns="http://www.w3.org/2000/svg">
<path d="M38.2371 26.1387L30.7559 103.724L95.3163 107.043L98.5027 62.0961L102.659 27.2451L38.2371 26.1387Z" fill="white"/>
<path d="M68.9935 98.6067C68.3008 97.7769 67.331 97.0854 66.2227 96.3939C58.7414 92.245 50.1518 89.0641 43.9174 83.1173C40.1768 79.7982 38.5143 75.7875 33.3883 74.6812C32.2799 78.6918 32.6956 84.362 32.1414 88.3726C32.557 91.4152 30.756 92.3833 31.4487 95.1492C31.1716 93.9046 31.7258 104.139 30.8945 102.894C33.8039 106.49 41.7008 103.585 46.1341 103.447C49.8747 103.309 53.3383 104.553 57.0789 104.415C59.7112 105.522 64.1445 105.66 66.9154 104.968C69.9633 104.415 70.7945 101.373 68.9935 98.6067Z" fill="#BCBCBB"/>
<path d="M99.0573 57.3936C98.9187 49.9255 100.443 42.8723 101.551 35.4042L101.274 30.1489C100.997 29.1808 101.828 28.6276 101.135 27.7978C99.8885 25.8617 97.2562 27.2447 95.0395 27.2447C94.3468 27.2447 92.5458 26.6915 91.9916 27.1064C90.8833 27.6595 90.4677 27.6595 90.3291 29.1808C88.5281 42.4574 86.7271 55.8723 89.9135 68.734C93.3771 68.4574 95.4552 65.2766 97.1177 62.3723C97.9489 61.1276 98.5031 60.0213 99.3343 58.6383C99.1958 58.0851 99.1958 57.8085 99.0573 57.3936Z" fill="#BCBCBB"/>
<path d="M31.7259 99.9896C32.1415 100.128 33.3884 99.9896 33.804 99.9896C39.7613 99.9896 45.7186 100.543 51.6759 101.234C58.0488 101.787 64.4217 102.479 71.0717 102.064C74.6738 101.926 78.2759 102.202 82.0165 102.479C85.3415 102.617 88.3894 102.756 91.7144 102.894C92.2686 102.894 92.8228 103.032 93.5155 103.032C92.6842 103.862 91.9915 103.724 91.2988 103.862C86.8655 103.724 82.8478 103.585 78.553 103.447C74.3967 103.309 70.379 103.447 66.0842 103.17C60.9582 102.479 55.555 102.064 50.2905 101.649C45.1644 101.373 40.1769 100.958 35.1894 100.681C34.4967 100.681 32.8342 100.681 32.1415 100.819C31.7259 101.373 32.003 102.202 32.003 103.032C33.1113 103.17 33.9425 103.447 34.9123 103.447C37.6832 103.585 40.5925 103.862 43.2248 103.585C47.7967 103.309 52.3686 103.724 56.6634 104C61.2353 104.277 65.6686 104.692 70.2405 104.968C73.9811 105.245 77.3061 105.383 80.9082 105.383C85.0644 105.521 89.2207 105.66 93.2384 105.936C93.9311 105.936 94.4853 106.075 95.178 106.213C95.0394 107.181 94.4853 107.043 93.7925 107.043C89.2207 106.766 84.6488 106.628 80.0769 106.351C75.3665 106.213 70.7946 105.936 65.8071 105.798C61.6509 105.66 57.4946 105.521 53.3384 104.968C48.2123 104.277 43.0863 104.968 37.8217 104.83C35.1894 104.692 33.2498 104.415 30.6175 104.277C30.6175 102.479 30.479 100.958 30.479 99.2981C30.6175 95.1491 31.8644 91.2768 32.1415 86.9896C32.1415 85.6066 32.28 84.3619 32.4186 82.9789C33.1113 77.1704 33.2498 71.0853 33.804 65.2768C34.6353 58.5002 35.1894 51.7236 35.8821 45.0853C36.1592 41.7662 36.1592 38.5853 36.4363 35.2662C36.7134 32.2236 36.9905 29.5959 36.9905 26.6917C38.2373 25.7236 38.7915 25.1704 40.1769 25.1704C44.7488 25.3087 49.1821 25.1704 53.754 25.1704C58.88 25.3087 63.5905 25.447 68.578 25.8619C69.4092 25.8619 70.1019 25.8619 71.0717 25.8619C73.704 25.7236 76.0592 25.8619 78.4144 25.8619C83.2634 25.8619 87.8353 26.6917 92.5457 26.6917C95.4551 26.5534 98.2259 26.6917 101.274 26.6917C101.551 26.5534 101.828 26.5534 102.105 26.6917C102.244 26.83 102.659 27.1066 102.798 27.3832C102.798 27.5215 102.521 27.9364 102.244 28.0747C101.967 28.213 101.551 28.213 101.274 28.0747C95.0394 28.0747 88.528 27.7981 82.155 27.2449C78.4144 26.9683 74.8123 27.1066 70.9332 26.9683C65.8071 26.83 60.6811 26.5534 55.6936 26.4151C50.9832 26.4151 46.2728 26.4151 41.5623 26.2768C40.7311 26.2768 40.454 26.6917 39.2071 26.6917C38.7915 30.9789 38.2373 35.1279 38.0988 39.9683C39.3457 39.1385 40.0384 38.447 41.2853 37.6172C40.3155 39.5534 37.8217 40.2449 38.3759 42.8725C39.7613 41.9045 41.0082 41.0747 42.1165 40.1066C42.1165 40.1066 42.1165 40.2449 42.255 40.2449C41.4238 41.0747 40.454 41.9045 39.6228 42.7342C38.653 43.7023 37.9603 44.8087 37.8217 46.1917C36.9905 51.447 36.2978 56.8406 35.7436 61.9576C35.4665 64.0321 35.328 66.3832 35.1894 68.3193C34.9123 71.6385 34.6353 74.8193 34.3582 78.2768C33.9425 83.3938 33.5269 88.9257 33.1113 94.0427C32.28 96.2555 32.1415 97.7768 31.7259 99.9896Z" fill="black"/>
<path d="M99.8884 31.2556C99.4728 31.5322 99.1957 31.8088 98.7801 31.6705C97.2561 31.6705 95.7321 31.9471 94.2082 31.5322C91.0217 30.979 87.9738 30.979 84.7873 31.1173C81.1853 31.3939 77.8603 31.5322 74.3967 31.1173C72.4571 30.979 70.6561 31.2556 68.855 31.2556C64.9759 31.2556 61.5123 30.979 57.7717 30.8407C56.9405 30.8407 55.8321 30.8407 54.8623 30.979C50.1519 31.1173 45.58 31.2556 40.8696 31.3939C40.3155 31.3939 39.8998 31.3939 39.2071 31.2556C39.0686 31.2556 38.93 30.8407 38.7915 30.7024C39.0686 30.4258 39.2071 30.2875 39.4842 30.1492C39.6228 30.1492 40.0384 30.1492 40.3155 30.1492C45.58 30.0109 50.8446 29.7344 56.1092 29.8727C59.5728 29.8727 62.7592 30.0109 66.2228 30.1492C68.1623 30.2875 70.2405 30.1492 72.0415 30.2875C73.4269 30.2875 74.9509 30.0109 76.3363 30.2875C80.354 30.5641 84.3717 30.2875 88.3894 30.4258C92.13 30.5641 95.5936 30.979 99.3342 31.3939C99.4728 30.8407 99.4728 30.979 99.8884 31.2556Z" fill="black"/>
<path d="M102.798 29.3193C102.798 30.0108 102.936 30.564 102.798 31.1172C102.105 33.8832 101.967 36.3725 101.967 39.1385C101.828 40.3832 101.69 41.6278 101.135 42.7342C100.304 45.2236 100.166 47.4364 100.027 49.7874C99.4729 56.1491 99.1958 62.7874 98.6416 69.1491C97.9489 76.6172 97.1177 84.0853 97.1177 91.4151C96.9791 94.7342 96.7021 98.0534 96.2864 101.511C96.2864 102.202 96.0093 102.894 95.8708 103.724C95.7323 103.862 95.1781 104 95.0396 104C95.3166 100.404 95.5937 97.0853 95.7323 93.6278C96.1479 85.8832 96.7021 78.1385 97.3948 70.3938C98.0875 63.3406 98.5031 55.8725 98.9187 48.8193C99.0573 46.4683 99.6114 44.1172 100.027 41.9044C100.166 40.2449 100.581 38.7236 100.72 37.064C100.72 34.4364 101.274 32.0853 101.967 29.8725C101.967 29.8725 102.382 29.7342 102.798 29.3193Z" fill="black"/>
<path d="M82.8476 77.3088C81.0466 77.1705 80.0768 77.862 78.9685 78.8301C78.5528 79.245 77.9987 79.7982 78.4143 80.3513C78.6914 80.7662 79.2455 81.1811 79.7997 81.3194C80.4924 81.4577 81.4622 81.4577 82.2935 81.4577C80.7695 82.7024 77.9987 82.4258 77.306 80.9045C77.0289 80.4896 77.0289 79.5216 77.306 79.1067C78.2757 78.0003 79.6612 77.0322 80.7695 76.0641C81.6007 75.9258 82.0164 76.2024 82.8476 77.3088Z" fill="black"/>
<path d="M48.074 46.6067C48.7667 46.0535 49.4594 45.9152 49.8751 45.5003C50.5678 44.9472 50.9834 44.2557 51.1219 43.2876C51.1219 41.9046 50.2907 41.2131 48.9053 41.628C48.2126 41.7663 47.6584 42.0429 46.8271 42.4578C47.6584 40.3833 50.1521 39.8301 51.2605 41.2131C51.9532 42.3195 52.2303 43.4259 51.8147 44.6706C50.9834 46.0535 49.8751 46.8833 48.074 46.6067Z" fill="black"/>
<path d="M80.3542 45.9149C77.999 45.3617 76.8906 44.3937 76.8906 42.4575C76.8906 41.4894 77.8604 40.2447 78.6917 39.8298C79.5229 39.6915 80.0771 39.8298 81.0469 41.0745C80.9083 41.0745 80.4927 41.2128 80.4927 41.0745C79.5229 40.5213 78.6917 40.9362 78.1375 41.766C77.5833 42.4575 77.8604 43.4256 78.4146 44.1171C78.6917 44.3937 79.1073 44.8085 79.5229 45.0851C79.9385 45.3617 80.3542 45.5 80.6313 45.5C80.4927 45.5 80.3542 45.7766 80.3542 45.9149Z" fill="black"/>
<path d="M40.0386 84.0855C38.9302 85.1918 38.5146 86.1599 39.2073 87.4046C40.0385 88.9259 41.424 89.0642 43.0865 89.0642C43.0865 89.2025 43.225 89.3408 42.9479 89.4791C41.424 90.3089 40.1771 89.7557 39.0688 88.9259C37.8219 88.0961 37.5448 86.8514 37.9604 85.4684C38.099 83.9472 38.5146 83.9472 40.0386 84.0855Z" fill="black"/>
<path d="M62.7594 81.4577C64.699 79.9364 64.699 79.9364 64.1448 77.8619C63.5906 77.8619 63.175 77.8619 62.3438 77.8619C62.4823 77.447 62.3438 77.0321 62.6208 76.8938C62.8979 76.6172 63.5906 76.4789 64.0063 76.6172C65.1146 76.8938 65.9458 78.4151 65.8073 79.9364C65.3917 81.0428 64.699 81.596 62.7594 81.4577Z" fill="black"/>
<path d="M73.1497 61.4044C73.9809 61.1278 74.5351 61.2661 74.8122 62.0959C75.0893 62.9256 74.258 63.7554 73.2882 64.1703C72.457 64.3086 71.4872 63.8937 71.3486 63.2022C71.4872 62.0958 72.0413 61.8193 73.1497 61.4044Z" fill="black"/>
<path d="M46.4111 69.2876C46.8268 69.011 47.1038 68.4578 47.658 68.3195C48.3507 68.0429 48.9049 68.4578 49.0434 69.011C49.182 69.7025 48.7663 70.1174 48.0736 70.2557C47.3809 70.394 46.8268 70.1174 46.4111 69.2876Z" fill="black"/>
<path d="M58.603 50.2022C59.2957 49.9256 59.7114 49.649 60.2655 49.649C60.5426 49.5107 61.0968 50.0639 61.2353 50.2022C61.3739 50.3404 61.2353 51.0319 60.9582 51.3085C59.9884 52.1383 59.2957 51.8617 58.603 50.2022Z" fill="black"/>
<path d="M89.4976 97.7767C91.1601 96.9469 92.684 95.8405 94.3465 95.0107C92.9611 96.9469 90.883 98.0533 89.4976 97.7767Z" fill="black"/>
<path d="M89.9136 95.7023C91.5761 94.4576 92.6844 92.6598 95.0396 92.5215C94.0698 93.0747 93.3771 93.6279 92.4073 94.3194C91.7146 94.8725 90.7448 95.564 90.0521 96.2555C90.1907 95.9789 90.0521 95.8406 89.9136 95.7023Z" fill="black"/>
<path d="M41.4238 57.2557C41.8395 56.7026 41.978 56.1494 42.5322 55.5962C42.9478 55.1813 43.502 55.5962 43.779 56.0111C43.9176 56.2877 43.6405 56.9791 43.502 56.9791C43.0863 57.2557 42.3936 57.394 41.8395 57.5323C41.7009 57.5323 41.5624 57.394 41.4238 57.2557Z" fill="black"/>
<path d="M65.6684 39.1385C64.0059 38.8619 63.5903 38.1704 64.283 37.3407C64.4215 37.2024 64.8372 36.9258 65.1142 37.0641C65.2528 37.2024 65.6684 37.479 65.807 37.6173C65.9455 38.3087 65.807 38.5853 65.6684 39.1385Z" fill="black"/>
<path d="M90.4674 52.0004C91.2986 51.8621 92.2684 52.277 92.407 52.8302C92.5455 53.1068 92.2684 53.5217 91.8528 53.7983C91.4372 53.9366 90.1903 53.5217 90.0518 52.8302C90.0518 52.5536 90.3288 52.277 90.4674 52.0004Z" fill="black"/>
<path d="M85.3413 94.181C85.4799 94.0427 85.4799 93.4895 85.8955 93.3512C86.5882 93.2129 87.0038 93.6278 87.1424 94.3193C87.2809 94.5959 87.0038 95.0108 86.5882 95.2874C86.1726 95.564 85.6184 95.0108 85.3413 94.181Z" fill="black"/>
<path d="M62.0664 93.0748C61.5122 93.4897 61.2352 94.1812 60.9581 94.1812C60.8195 94.1812 60.2654 94.0429 60.1268 93.628C59.8497 92.9365 60.2654 92.5216 60.9581 92.3833C60.9581 92.5216 61.2352 92.7982 62.0664 93.0748Z" fill="black"/>
<path d="M51.2602 41.2129L47.6581 68.181L45.4414 91.8299L79.6612 93.9044L84.2331 72.6065L87.4195 45.5001L78.2758 41.7661L51.2602 41.2129Z" fill="white"/>
<path d="M46.55 86.1598C47.6583 85.4683 48.351 85.0534 49.3208 84.5002C48.7667 86.0215 47.1042 86.5747 46.55 88.3726C47.7969 87.9577 48.9052 87.5428 49.875 86.9896C49.875 87.1279 49.875 87.1279 49.875 87.1279C48.6281 87.9577 47.5198 88.9258 45.9958 89.8939C46.9656 90.1705 47.3812 90.447 47.9354 90.5853C49.3208 90.8619 50.5677 90.7236 51.9531 90.8619C59.0187 91.4151 66.5 91.9683 73.5656 92.3832C75.6437 92.5215 77.999 92.5215 80.2156 92.5215C80.3542 91.83 80.6312 91.2768 80.7698 90.4471C81.324 86.0215 82.1552 81.596 82.7094 77.0322C83.2635 72.8832 83.5406 69.0109 83.9562 65.0002C83.9562 64.3088 84.2333 63.6173 84.0948 62.6492C84.649 58.2236 85.3417 53.9364 85.8958 49.3726C86.1729 47.2981 86.3115 44.947 86.7271 42.596C85.2031 42.1811 83.8177 41.9045 82.5708 41.6279C81.4625 41.4896 80.4927 41.3513 79.2458 41.4896C74.2583 41.6279 69.1323 40.7981 64.1448 40.2449C59.85 39.5534 55.6937 39.2768 51.399 39.9683C50.7062 40.1066 50.1521 40.1066 49.875 39.1385C50.1521 38.8619 50.5677 38.5853 50.9833 38.5853C54.5854 38.3088 57.9104 38.3088 61.5125 38.7236C65.9458 39.2768 70.2406 39.9683 74.674 40.2449C77.3062 40.3832 79.8 40.3832 82.2938 40.3832C84.2333 40.5215 86.0344 40.9364 87.8354 41.9045C87.6969 43.0109 87.5583 43.979 87.4198 45.0853C87.1427 48.1279 86.8656 50.8939 86.45 53.7981C86.1729 56.4258 85.6187 59.0534 85.2031 61.6811C84.926 62.9258 84.649 64.0322 84.7875 65.2768C84.926 67.6279 84.5104 69.8407 83.9562 72.0534C83.8177 72.7449 83.6792 73.4364 83.8177 74.4045C83.2635 77.8619 82.9865 81.0428 82.4323 84.3619C82.1552 86.8513 81.601 89.6173 81.324 91.9683C81.0469 93.6279 80.7698 93.6279 79.2458 93.6279C74.674 93.3513 70.3792 93.0747 65.8073 92.7981C63.175 92.6598 60.6812 92.5215 58.049 92.3832C55.6937 92.2449 53.4771 92.1066 51.5375 91.83C49.4594 91.6917 47.2427 91.5534 45.3031 91.2768C45.1646 90.7236 44.8875 90.3088 45.026 89.8939C45.1646 86.4364 45.4417 82.979 45.7187 79.6598C46.1344 75.2343 46.4115 70.8088 46.8271 66.3832C47.1042 62.7875 47.6583 59.4683 48.074 55.8726C48.4896 52.83 49.1823 49.9258 49.7365 46.8832C50.0135 45.5002 50.0135 43.8407 50.1521 42.4577C50.2906 42.0428 50.4292 41.9045 50.4292 41.4896C51.5375 41.6279 51.5375 42.4577 51.2604 43.0109C50.9833 44.3939 50.9833 45.9151 50.5677 47.2981C49.4594 51.8619 48.9052 56.5641 48.4896 61.2662C47.7969 68.7343 47.1042 76.479 46.55 83.947C46.6885 84.7768 46.8271 85.33 46.55 86.1598Z" fill="black"/>
<path d="M73.1498 79.5213C73.0113 79.7979 73.0113 79.7979 73.0113 79.9362C72.8728 79.9362 72.8728 80.2128 72.7342 80.2128C72.5957 80.2128 72.4571 80.3511 72.18 80.2128C65.9457 79.5213 59.9884 78.1383 53.6155 78.1383C53.6155 78.1383 53.3384 78 53.3384 77.7234C53.8925 77.5851 54.1696 77.4468 54.7238 77.5851C57.9103 77.4468 60.8196 78 64.0061 78.4149C66.9155 78.8298 69.8248 79.2447 72.8728 79.6596C73.0113 79.2447 73.0113 79.383 73.1498 79.5213Z" fill="black"/>
<path d="M74.1196 69.5643C73.981 69.8408 73.981 69.8408 73.981 69.9791C73.8425 69.9791 73.8425 70.2557 73.7039 70.2557C73.5654 70.2557 73.4269 70.394 73.1498 70.2557C66.9154 69.5643 60.9581 68.1813 54.5852 68.1813C54.5852 68.1813 54.3081 68.043 54.3081 67.7664C54.8623 67.6281 55.1394 67.4898 55.6935 67.6281C58.88 67.4898 61.7894 68.043 64.9758 68.4579C67.8852 68.8728 70.7946 69.2877 73.8425 69.7026C73.8425 69.2877 73.8425 69.426 74.1196 69.5643Z" fill="black"/>
<path d="M74.9507 59.0535C74.8122 59.3301 74.8122 59.3301 74.9507 59.4684C74.8122 59.4684 74.8122 59.745 74.6737 59.745C74.5351 59.745 74.3966 59.8833 74.1195 59.745C67.8851 59.0535 61.9278 57.6705 55.5549 57.6705C55.5549 57.6705 55.2778 57.5322 55.2778 57.2556C55.832 57.1173 56.1091 56.979 56.6632 57.1173C59.8497 56.979 62.7591 57.5322 65.9455 57.9471C68.8549 58.362 71.7643 58.7769 74.8122 59.1918C74.6737 58.7769 74.8122 59.0535 74.9507 59.0535Z" fill="black"/>
<path d="M69.825 84.7766C67.4698 83.6702 65.2532 83.9468 63.3136 83.6702C59.9886 83.5319 56.8021 83.3936 53.4771 83.117C53.0615 82.9787 52.9229 82.8404 52.5073 82.5638C52.7844 82.4255 53.2 82.2872 53.4771 82.1489C58.6032 82.4255 63.5907 82.8404 68.5782 83.2553C68.9938 83.6702 69.825 83.8085 69.825 84.7766Z" fill="black"/>
<path d="M67.0542 74.1278C66.9156 74.1278 66.6385 74.4044 66.3615 74.4044C62.2052 73.9895 58.1875 73.5746 54.0312 73.1598C54.0312 73.0215 54.0312 73.0214 54.0312 72.7449C54.3083 72.6066 54.8625 72.4683 55.2781 72.4683C57.9104 72.7449 60.2656 73.0215 62.7594 73.1598C64.0062 73.298 65.1146 73.4363 66.5 73.5746C66.7771 73.7129 66.9156 73.8512 67.3312 73.8512C66.9156 73.8512 67.0542 73.9895 67.0542 74.1278Z" fill="black"/>
<path d="M68.3007 63.6171C68.1622 63.6171 67.8851 63.8937 67.608 63.8937C63.4518 63.4788 59.4341 63.0639 55.2778 62.649C55.2778 62.5107 55.2778 62.5107 55.2778 62.2341C55.5549 62.0958 56.1091 61.9575 56.5247 61.9575C59.157 62.2341 61.5122 62.5107 64.006 62.649C65.2528 62.7873 66.3612 62.9256 67.7466 63.0639C68.0237 63.2022 68.1622 63.3405 68.5778 63.3405C68.1622 63.3405 68.1622 63.4788 68.3007 63.6171Z" fill="black"/>
<path d="M58.1873 48.2664C58.603 48.2664 58.88 48.1281 58.88 47.7132C58.88 47.2983 58.7415 47.16 58.1873 47.16L56.3863 47.0217L56.2478 48.1281L58.1873 48.2664ZM55.6936 46.1919L58.603 46.3302C59.4342 46.3302 59.8498 47.0217 59.8498 47.5749C59.8498 48.4047 59.1571 48.8196 58.4644 48.6813L56.3863 48.543L56.2478 50.0642H55.4165L55.6936 46.1919Z" fill="#F15748"/>
<path d="M59.9881 50.4794V49.7879C60.4038 50.0645 60.8194 50.0645 61.3736 50.0645C62.0663 50.0645 62.3434 50.0645 62.3434 49.7879C62.3434 49.2347 59.8496 49.6496 59.8496 48.4049C59.8496 47.7134 60.5423 47.4368 61.6507 47.5751C61.9277 47.5751 62.6204 47.7134 63.0361 47.8517V48.5432C62.6204 48.4049 62.0663 48.2666 61.6507 48.2666C60.9579 48.2666 60.6809 48.2666 60.6809 48.5432C60.6809 49.0964 63.1746 48.6815 63.1746 49.9262C63.1746 50.6177 62.4819 50.8942 61.3736 50.756C61.0965 50.756 60.4038 50.6177 59.9881 50.4794Z" fill="#F15748"/>
<path d="M63.8675 47.9899H64.6988L64.5603 50.8942H63.729L63.8675 47.9899ZM63.729 47.0218C63.729 46.7452 64.0061 46.6069 64.2832 46.6069C64.5603 46.6069 64.8373 46.7452 64.6988 47.1601C64.6988 47.4367 64.4217 47.575 64.1446 47.575C64.0061 47.4367 63.729 47.2984 63.729 47.0218Z" fill="#F15748"/>
<path d="M68.3007 50.3407C68.7164 50.3407 68.9935 50.2024 68.9935 49.7876C68.9935 49.3727 68.7164 49.2344 68.3007 49.2344L66.2226 49.0961V50.2024L68.3007 50.3407ZM65.6685 46.8833L68.7164 47.0216C69.5476 47.0216 69.9632 47.5748 69.9632 48.128C69.9632 48.6812 69.4091 48.9578 68.8549 48.9578C69.5476 48.9578 70.1018 49.3727 70.1018 50.0642C70.1018 50.7556 69.5476 51.0322 68.7164 51.0322L65.6685 50.8939V46.8833ZM68.3007 48.8195C68.7164 48.8195 68.9935 48.6812 68.9935 48.4046C68.9935 47.9897 68.7164 47.8514 68.3007 47.8514L66.3612 47.7131V48.6812L68.3007 48.8195Z" fill="#F15748"/>
<path d="M73.7039 51.4472H72.8727L73.0112 50.3408C72.8727 51.0323 72.3185 51.5855 71.4872 51.5855C70.656 51.5855 70.3789 51.0323 70.3789 49.7877L70.5175 48.543H71.3487L71.2102 49.6494C71.2102 50.4791 71.3487 50.894 71.9029 50.894C72.457 50.894 73.0112 50.3408 73.0112 49.3728V48.543H73.8424L73.7039 51.4472Z" fill="#F15748"/>
<path d="M74.8121 49.2344H74.3965V48.6812H74.8121V48.5429C74.8121 47.8514 75.0892 47.4365 75.7819 47.5748C75.9204 47.5748 76.1975 47.5748 76.4746 47.7131V48.128C76.3361 48.128 76.3361 48.128 76.3361 48.128C75.7819 48.128 75.7819 48.2663 75.6434 48.8195H76.4746V49.3727H75.6434L75.5048 51.7238H74.6736L74.8121 49.2344Z" fill="#F15748"/>
<path d="M79.1069 50.2023C79.1069 49.6492 78.8298 49.5109 78.1371 49.3726C77.5829 49.3726 77.1673 49.5109 77.1673 50.0641L79.1069 50.2023ZM76.4746 50.2023C76.4746 49.2343 77.3059 48.6811 78.2757 48.8194C79.2454 48.8194 79.9382 49.5109 79.9382 50.2023V50.6172L77.3059 50.4789C77.3059 50.8938 77.7215 51.1704 78.5527 51.1704C79.2454 51.1704 79.5225 51.0321 79.9382 50.8938V51.5853C79.384 51.7236 79.1069 51.8619 78.2757 51.7236C77.0288 51.7236 76.4746 51.1704 76.4746 50.2023Z" fill="#F15748"/>
<path d="M80.6311 50.8941L80.7696 49.6495H80.354V49.0963H80.9082V48.4048H81.6009V49.2346H82.4321V49.7878H81.6009L81.4623 50.8941C81.4623 51.4473 81.4623 51.5856 81.878 51.5856C82.0165 51.5856 82.0165 51.5856 82.155 51.5856V52.0005C81.878 52.0005 81.7394 52.1388 81.3238 52.0005C80.6311 52.0005 80.4925 51.7239 80.6311 50.8941Z" fill="#F15748"/>
</svg>
