<svg width="132" height="130" viewBox="0 0 132 130" fill="none" xmlns="http://www.w3.org/2000/svg">
<path d="M68.6124 95.0107L67.5124 98.6065L54.4499 96.8086L53.2124 95.4256L51.6999 96.3937L48.9499 103.17L46.3374 108.702L55.9624 110.5L72.0499 111.192L80.0249 110.224C80.0249 110.224 83.0499 109.394 83.0499 108.702C83.0499 108.011 80.0249 97.3618 80.0249 97.3618L78.5124 95.9788L72.0499 95.0107H68.6124Z" fill="white"/>
<path d="M72.4628 105.522C69.9878 106.628 67.2378 106.49 64.6253 106.351C58.5753 106.075 52.1128 106.213 46.6128 108.702C49.0878 109.67 51.7003 109.947 54.3128 110.085C62.2878 110.777 70.2628 111.468 78.2378 110.362C79.2003 110.224 80.1628 110.085 80.9878 109.67C81.8128 109.256 82.6378 108.564 82.9128 107.734C83.3253 106.628 82.9128 105.383 82.6378 104.277C82.2253 102.894 81.8128 101.373 81.2628 99.9896C80.9878 99.2981 80.7128 96.5321 79.4753 97.0853C78.6503 97.5002 78.1003 99.2981 77.6878 100.128C77.0003 101.373 76.3128 102.341 75.6253 103.17C74.6628 104.139 73.7003 104.968 72.4628 105.522Z" fill="#BCBCBB"/>
<path d="M85.1126 93.0746C87.4501 87.9576 89.9251 82.9788 91.3001 77.4469C92.6751 72.0533 92.9501 66.2448 91.1627 60.8512C88.6876 53.798 82.5001 47.8512 82.0876 40.3831C81.8126 36.9256 82.9126 33.3299 81.9501 30.0108C81.5376 28.3512 80.5751 26.8299 79.6126 25.3086C77.0001 21.1597 74.5251 17.0108 71.9126 12.8618C70.6751 14.6597 69.7126 16.5959 70.5376 18.6703C71.2251 20.7448 71.6376 23.3725 72.3251 25.4469C73.7001 29.181 75.7626 33.4682 74.3876 37.2022C74.2501 37.7554 73.9751 38.1703 73.7001 38.5852C72.8751 39.5533 71.5001 39.5533 70.1251 39.415C66.2751 39.1384 62.1501 39.0001 58.4376 40.2448C56.1001 40.9363 54.0376 42.181 51.8376 43.4256C48.9501 45.0852 46.0626 46.8831 44.6876 49.7873C42.9001 53.798 44.5501 58.6384 43.1751 62.9257C41.9376 66.798 38.0876 69.9788 38.3626 73.9895C38.6376 78.2767 43.4501 80.7661 45.7876 84.5001C47.4376 87.2661 47.7126 90.7235 47.7126 94.0427C47.7126 95.5639 47.8501 97.0852 47.1626 98.4682C46.6126 99.7129 45.3751 100.819 45.6501 102.064C45.9251 103.447 47.5751 104.138 48.9501 104.415C53.6251 105.66 58.4376 106.766 63.2501 106.351C68.0626 105.798 72.1876 103.309 76.8626 102.202C81.1251 100.958 83.4626 96.8086 85.1126 93.0746Z" fill="white"/>
<path d="M83.6 106.075C83.7375 106.351 83.875 106.628 84.15 106.766C84.5625 107.043 85.25 106.904 85.6625 106.628C86.4875 106.213 87.3125 105.936 88 105.245C88.6875 104.553 89.1 103.724 88.9625 102.756C88.825 102.341 88.6875 101.926 88.4125 101.511C87.5875 100.128 86.2125 99.1598 85.525 97.7768C84.975 96.5321 84.8375 95.1492 84.8375 93.7662C84.8375 91.83 84.7 89.7556 84.5625 87.8194C84.5625 87.2662 84.5625 86.713 84.2875 86.1598C84.0125 85.6066 83.4625 85.1917 82.9125 85.33C82.225 85.4683 81.8125 86.0215 81.5375 86.713C78.65 93.213 80.85 99.9896 83.6 106.075Z" fill="#BCBCBB"/>
<path d="M68.0625 94.4577C68.0625 94.596 68.0625 94.7343 68.2 94.8726C68.3375 95.0109 68.6125 95.0109 68.75 95.0109C69.4375 94.8726 69.9875 94.8726 70.675 95.0109C71.225 95.0109 71.775 95.1492 72.325 95.2875C72.4625 95.2875 72.6 95.2875 72.7375 95.2875C73.15 95.1492 73.15 94.7343 73.15 94.3194C73.2875 92.245 74.25 87.9577 70.95 88.096C68.0625 88.2343 68.0625 92.3833 68.0625 94.4577Z" fill="#BCBCBB"/>
<path d="M81.1252 38.7234C82.6377 35.5425 83.4627 31.8085 82.3627 28.4894C81.9502 27.383 81.4002 26.2766 80.5752 25.4468C79.7502 24.617 78.6502 22.5425 77.5502 22.8191C77.6877 24.0638 77.5502 27.1064 77.5502 28.3511C77.8252 31.8085 78.1002 35.4042 77.2752 38.8617C77.1377 39.2766 77.1377 39.5532 77.1377 39.9681C77.2752 40.7979 78.6502 42.1808 79.4752 41.7659C80.0252 41.7659 80.8502 39.2766 81.1252 38.7234Z" fill="#BCBCBB"/>
<path d="M70.5379 60.298C69.9879 59.7448 69.3004 59.1916 68.6129 58.915C67.2379 58.2235 65.5879 57.9469 63.9379 57.8086C61.1879 57.5321 58.3004 57.3938 55.5504 58.0852C54.5879 58.3618 53.6254 58.7767 52.8004 59.4682C52.1129 60.1597 51.7004 61.2661 51.8379 62.2342C53.6254 62.5108 55.2754 61.4044 57.0629 60.7129C59.5379 59.7448 62.2879 60.1597 65.0379 60.4363C66.2754 60.5746 67.6504 60.7129 68.7504 61.2661C69.4379 61.5427 71.2254 63.6172 71.9129 63.2023C73.1504 62.9257 71.0879 60.8512 70.5379 60.298Z" fill="#BCBCBB"/>
<path d="M47.8501 81.7341C47.8501 81.4575 47.8501 81.1809 47.9876 81.0426C48.1251 80.9043 48.2626 80.9043 48.4001 80.9043C49.3626 81.0426 50.0501 82.0107 50.4626 82.9788C53.0751 87.9575 57.4751 91.8298 60.9126 96.3937C61.1876 96.8085 61.4626 97.2234 61.1876 97.5C60.9126 97.7766 60.5001 97.7766 60.0876 97.6383C58.4376 97.2234 55.8251 96.9469 54.4501 95.9788C53.2126 95.149 52.5251 93.3511 51.7001 92.1064C49.7751 88.9256 48.1251 85.4681 47.8501 81.7341Z" fill="#BCBCBB"/>
<path d="M79.6125 97.2236C79.2 96.5321 78.65 96.1172 77.825 95.9789C76.725 95.7023 75.625 95.4257 74.3875 95.0108C74.1125 94.1811 74.3875 93.3513 74.25 92.3832C74.1125 90.5853 74.1125 88.7874 73.975 86.8513C73.975 86.0215 73.975 85.1917 74.1125 84.3619C73.975 84.2236 73.7 84.2236 73.5625 84.0853C72.7375 83.6704 72.6 83.2555 72.875 82.2875C73.0125 81.8726 73.15 81.596 73.15 81.1811C73.2875 80.9045 73.2875 80.4896 73.5625 80.213C73.5625 80.6279 73.7 81.1811 73.7 81.596C73.8375 82.564 74.1125 83.5321 74.6625 84.3619C74.9375 84.6385 75.2125 84.9151 75.625 85.1917C76.8625 86.1598 77.825 86.0215 79.0625 85.0534C80.3 84.0853 80.9875 82.7023 81.675 81.3194C83.05 78.83 83.6 76.064 83.7375 73.1598C83.7375 72.7449 83.6 72.1917 84.2875 72.0534C84.425 72.0534 84.425 71.5002 84.425 71.2236C84.5625 71.2236 84.8375 71.0853 85.1125 71.0853C84.975 70.8087 84.975 70.5321 84.8375 70.3938C84.0125 69.2875 83.1875 68.1811 82.225 67.213C81.5375 66.5215 80.7125 65.83 79.8875 65.4151C78.1 64.447 76.3125 64.447 74.3875 64.7236C73.975 64.7236 73.7 64.7236 73.2875 64.447C71.775 63.2023 70.125 61.9577 68.475 60.5747C68.2 60.4364 68.0625 60.1598 67.7875 59.8832C67.65 59.7449 67.375 59.6066 66.9625 59.4683C66.9625 59.8832 66.825 60.1598 66.825 60.4364C66.6875 60.4364 66.6875 60.4364 66.55 60.4364C64.7625 59.7449 62.975 59.7449 61.1875 59.8832C59.95 60.0215 58.575 60.1598 57.3375 60.4364C56.925 60.4364 56.5125 60.5747 56.1 60.8513C54.8625 61.5428 53.7625 61.9577 52.3875 62.096C52.25 62.2343 52.1125 62.2343 51.975 62.2343L51.8375 62.3726C52.1125 63.064 52.525 63.2023 53.075 62.9257C54.0375 62.6492 55.1375 62.2343 56.1 61.8194C57.475 61.2662 58.85 61.1279 60.3625 60.9896C60.6375 61.5428 61.05 61.9577 61.05 62.7875C61.05 63.3406 61.325 64.0321 61.6 64.5853C62.8375 67.4896 63.525 70.5321 64.2125 73.5747C64.35 74.5428 64.35 75.3726 63.9375 76.3406C63.3875 77.5853 62.8375 78.6917 62.2875 79.9364C61.7375 81.1811 61.05 82.564 60.6375 83.947C60.225 85.4683 60.3625 86.713 61.7375 87.9577C63.3875 89.6172 65.3125 90.5853 67.1 91.9683C67.375 92.1066 67.65 92.3832 68.0625 92.1066C67.925 91.9683 67.7875 91.6917 67.65 91.6917C66.55 91.0002 65.5875 90.1704 64.4875 89.6172C63.6625 89.064 62.975 88.3726 62.425 87.5428C62.2875 87.4045 62.2875 87.2662 62.15 87.1279C61.1875 86.2981 61.1875 85.1917 61.4625 84.0853C61.875 82.564 62.5625 81.1811 63.3875 79.9364C64.075 78.83 64.625 77.7236 65.0375 76.4789C65.45 75.5109 65.5875 74.4045 65.8625 73.2981C65.8625 73.1598 65.725 73.0215 65.725 72.7449C65.0375 70.947 64.4875 69.2874 63.8 67.4896C62.975 65.4151 62.15 63.3406 61.325 61.1279C61.7375 61.1279 62.15 61.1279 62.5625 60.9896C64.35 60.8513 66 60.9896 67.65 61.8194C68.2 62.096 68.6125 62.096 69.025 61.8194C70.2625 62.7875 71.5 63.7555 72.4625 65.0002C72.875 65.5534 73.5625 65.83 74.3875 65.5534C76.3125 65.1385 78.2375 65.1385 79.8875 66.3832C80.7125 66.9364 81.675 67.3513 82.225 68.1811C82.5 68.596 82.775 69.0109 83.05 69.2874C83.325 69.564 83.325 69.9789 83.05 70.2555C82.9125 70.5321 82.9125 70.8087 82.9125 71.0853C82.775 72.8832 82.6375 74.8194 82.3625 76.6172C82.225 77.7236 81.95 78.4151 81.4 79.1066C80.7125 78.6917 80.025 78.0002 79.0625 77.7236C79.8875 78.4151 80.575 79.1066 81.2625 79.6598C80.9875 80.0747 80.85 80.3513 80.7125 80.6279C80.025 80.3513 79.6125 79.5215 78.65 79.5215C79.3375 80.0747 79.8875 80.4896 80.4375 81.0428C80.025 82.2874 79.6125 83.1172 78.925 83.8087C78.2375 84.5002 77.55 84.7768 76.5875 84.6385C75.9 84.5002 75.4875 84.2236 75.2125 83.5321C74.9375 82.9789 74.8 82.2875 74.6625 81.596C74.25 78.9683 74.25 76.3406 74.6625 73.5747C74.6625 73.2981 74.8 73.0215 74.8 72.7449C74.8 72.6066 74.8 72.33 74.6625 72.1917C73.7 71.9151 73.975 71.0853 73.8375 70.3938C73.8375 70.1172 73.8375 69.8406 73.5625 69.4258C73.425 69.564 73.2875 69.8406 73.2875 69.9789C73.15 70.947 73.2875 71.9151 73.8375 72.8832C74.1125 73.2981 74.1125 73.713 73.975 74.1279C73.975 74.8194 73.8375 75.5108 73.8375 76.2023C73.8375 77.0321 73.975 77.8619 73.2875 78.5534C73.15 78.83 73.15 79.2449 73.0125 79.5215C72.875 80.213 72.7375 80.9045 72.6 81.596C72.4625 81.8726 72.325 82.1491 72.05 82.4257C72.325 82.7023 72.325 83.2555 72.1875 83.6704C71.9125 84.5002 71.5 85.1917 70.95 85.8832C70.5375 86.2981 70.2625 86.8513 70.2625 87.2662C69.7125 89.7555 69.1625 92.3832 68.6125 94.8726C68.475 95.4257 68.3375 95.8406 68.3375 96.3938C68.75 96.5321 69.025 96.2555 69.025 95.9789C69.3 95.0109 69.9875 94.8726 70.675 94.8726C71.775 94.8726 72.7375 95.0109 73.975 95.1492C73.975 95.7023 73.975 96.2555 73.8375 96.6704C73.0125 96.6704 72.6 95.7023 71.6375 96.2555C72.4625 96.6704 73.15 96.947 73.8375 97.3619C73.975 96.8087 74.25 96.3938 74.3875 95.8406C74.8 96.1172 75.075 96.947 75.9 96.947C75.9 96.5321 75.9 96.1172 75.9 95.564C77 95.4257 77.825 95.7023 78.7875 96.3938C78.375 96.6704 78.1 96.8087 77.825 96.8087C76.0375 96.947 74.25 97.5002 72.4625 97.2236C70.675 96.947 68.75 97.2236 66.9625 97.2236C64.35 97.2236 61.6 97.2236 58.9875 96.5321C58.025 96.2555 56.925 96.1172 55.9625 95.9789C55.4125 95.8406 55.1375 95.7023 54.8625 95.0108C53.625 92.6598 52.3875 90.3087 51.0125 87.9577C50.05 86.2981 49.775 84.5002 49.0875 82.8406C48.2625 80.7662 48.125 78.4151 47.9875 76.3406C47.9875 74.9577 47.85 73.4364 48.2625 72.0534C48.2625 71.9151 48.2625 71.7768 48.2625 71.6385C47.7125 71.7768 47.575 72.1917 47.4375 72.6066C47.4375 72.8832 47.3 73.2981 47.3 73.5747C47.3 75.9258 46.6125 78.2768 46.0625 80.6279C46.0625 80.7662 45.925 80.9045 45.925 81.0428C44.55 81.4577 44.4125 80.3513 43.8625 79.5215C43.5875 79.9364 43.45 80.213 43.175 80.4896C42.2125 80.213 41.3875 79.5215 40.8375 78.6917C39.875 77.1704 40.0125 75.5109 39.7375 73.9896C39.325 71.7768 40.0125 69.8406 40.975 67.9045C40.975 67.7662 41.1125 67.7662 41.25 67.6279C41.525 66.1066 42.075 64.7236 43.3125 63.7555C44 63.064 44.825 62.6492 45.7875 62.5109C47.7125 62.2343 49.5 62.2343 51.425 63.2023C50.7375 62.096 49.775 61.9577 48.8125 61.8194C47.575 61.6811 46.475 61.8194 45.2375 61.9577C43.175 62.2343 41.8 63.6172 41.1125 65.4151C40.425 66.9364 39.7375 68.596 39.1875 70.2555C38.5 71.6385 38.5 72.8832 38.5 73.8513C38.5 75.096 38.775 76.3406 39.05 77.5853C39.05 77.7236 39.05 77.7236 39.05 77.8619C39.875 79.1066 40.2875 80.7662 41.6625 81.7343C41.8 81.8726 41.9375 82.0109 42.2125 82.1492C43.0375 82.7023 43.3125 82.7023 44 82.0109C44.6875 82.1492 45.375 82.4258 46.2 82.564C46.3375 83.2555 46.3375 83.947 46.475 84.7768C46.6125 85.7449 46.8875 86.713 46.8875 87.6811C47.025 89.4789 47.1625 91.1385 47.3 92.9364C47.4375 94.3194 47.4375 95.7023 47.7125 96.947C47.9875 98.33 47.85 99.4364 46.75 100.266C46.0625 100.819 45.65 101.787 45.375 102.617C44.9625 103.724 46.0625 104.968 47.1625 104.692C47.1625 104.553 47.025 104.553 47.025 104.415C45.7875 103.447 45.65 103.032 46.475 101.649C46.8875 100.958 47.4375 100.404 48.125 99.8513C48.675 99.2981 48.8125 98.7449 48.8125 98.0534C48.5375 95.0109 48.2625 92.1066 48.125 89.064C48.125 88.9258 48.125 88.6492 48.125 88.5109C47.7125 86.2981 47.4375 84.2236 47.025 82.0109C46.8875 81.596 46.75 81.0428 46.6125 80.6279C46.75 80.6279 46.75 80.6279 46.8875 80.4896C47.1625 81.3194 47.575 82.1492 47.85 82.9789C48.4 85.7449 49.6375 88.2343 51.0125 90.7236C51.8375 92.2449 52.6625 93.6279 53.35 95.1492C53.2125 95.2875 52.9375 95.4257 52.8 95.564C54.0375 96.8087 52.6625 97.6385 52.525 98.7449C52.9375 99.2981 53.625 99.1598 54.175 99.2981C56.2375 99.5747 58.1625 99.9896 60.225 100.404C62.7 100.958 65.175 101.096 67.65 100.543C67.925 100.543 68.0625 100.404 68.6125 100.266C68.2 100.128 68.0625 99.9896 67.7875 99.9896C67.375 99.9896 67.1 99.9896 66.6875 100.128C64.625 100.404 62.7 100.404 60.775 99.9896C58.7125 99.5747 56.7875 99.2981 54.725 98.8832C54.45 98.8832 54.0375 98.7449 53.7625 98.6066C53.9 98.1917 54.0375 97.9151 54.175 97.5002C54.45 97.0853 54.725 96.8087 55.4125 96.947C57.0625 97.3619 58.7125 97.6385 60.5 97.9151C61.6 98.0534 62.7 98.1917 63.8 98.1917C65.45 98.1917 67.2375 98.0534 68.8875 98.0534C70.4 98.0534 72.05 98.0534 73.5625 97.9151C75.075 97.7768 76.5875 97.5002 78.1 97.2236C78.2375 97.2236 78.375 97.2236 78.65 97.0853C79.0625 98.7449 79.0625 98.7449 78.65 99.0215C78.5125 98.4683 78.375 98.0534 78.2375 97.5002C78.1 97.5002 78.1 97.5002 77.9625 97.5002C77.9625 98.0534 77.9625 98.4683 77.9625 99.0215C76.725 99.1598 75.35 99.4364 74.1125 99.5747V99.713C74.8 99.713 75.4875 99.713 76.3125 99.713C77 99.713 77.6875 99.713 78.5125 99.5747C79.2 99.4364 80.025 99.1598 80.7125 98.8832C81.4 100.128 81.8125 101.373 82.0875 102.756C82.3625 104.139 82.6375 105.521 82.9125 106.904C83.05 107.873 82.9125 108.149 81.95 108.564C80.4375 109.256 78.925 109.67 77.275 109.809C74.8 110.085 72.325 110.224 69.7125 110.224C65.45 110.224 61.1875 110.085 56.925 109.532C55.1375 109.256 53.4875 108.841 51.7 108.564C51.5625 108.011 51.7 107.596 52.25 107.734C55.55 108.564 58.9875 108.149 62.2875 108.702C62.975 108.841 63.6625 108.841 64.2125 108.287C64.075 108.149 64.075 108.011 63.9375 108.011C60.775 108.287 57.75 107.596 54.725 107.596C52.525 107.458 50.4625 106.628 48.4 105.798C48.5375 104.553 49.225 103.447 49.6375 102.341C50.05 101.234 50.6 100.128 51.15 99.0215C51.7 97.9151 52.25 96.947 52.9375 95.564C52.525 95.7023 52.25 95.7023 52.25 95.8406C51.8375 96.3938 51.2875 96.947 51.0125 97.6385C49.775 99.9896 48.8125 102.479 47.85 104.968C47.575 105.66 47.3 106.351 47.025 107.043C46.8875 107.458 46.75 107.734 46.475 108.149C47.025 108.149 47.025 108.149 48.2625 106.351C49.0875 106.628 50.05 106.628 50.4625 107.596C51.2875 107.319 51.2875 107.319 51.2875 108.011C50.875 107.873 50.325 107.596 49.9125 107.734C49.3625 107.873 49.0875 107.873 48.5375 107.734C48.4 107.734 48.125 107.873 47.9875 108.011C47.9875 108.149 47.9875 108.426 48.125 108.564C48.675 108.841 49.225 109.117 49.775 109.256C51.15 109.67 52.525 110.085 53.9 110.224C57.475 110.639 61.05 111.053 64.625 111.33C67.1 111.468 69.7125 111.33 72.325 111.33C74.9375 111.33 77.4125 110.915 80.025 110.362C80.9875 110.085 81.95 109.809 82.9125 109.394C83.6 109.117 84.0125 108.702 84.15 107.873C84.2875 107.458 84.2875 107.043 84.425 106.49C84.7 106.49 84.975 106.351 85.25 106.351C85.8 106.213 86.4875 106.213 87.0375 106.075C89.5125 105.521 90.475 103.447 89.65 101.096C89.1 99.4364 87.8625 98.4683 87.0375 97.0853C86.4875 96.3938 85.8 95.7023 85.3875 95.1492C85.6625 92.9364 86.4875 91.0002 87.5875 89.2023C88.9625 86.713 89.7875 84.0853 90.75 81.4577C91.575 79.1066 91.9875 76.6172 92.5375 74.1279C92.8125 73.0215 92.95 72.0534 93.225 70.947C93.225 70.947 93.3625 70.947 93.5 71.0853C93.775 71.0853 93.9125 71.0853 94.1875 71.0853C94.1875 70.947 94.1875 70.6704 94.1875 70.5321C93.9125 68.8726 93.775 67.213 93.3625 65.6917C92.675 62.9257 91.9875 60.2981 90.8875 57.6704C90.475 56.564 90.2 55.3194 89.925 54.213C89.7875 53.7981 89.65 53.3832 89.65 53.1066C89.2375 52.9683 88.9625 53.1066 89.1 53.5215C89.1 53.9364 89.2375 54.3513 89.375 54.6279C89.1 54.7662 88.825 54.7662 88.6875 54.9045C88.275 53.6598 87.725 52.4151 87.3125 51.1704C86.4875 48.9577 85.1125 47.0215 83.7375 45.0853C83.7375 45.0853 83.7375 45.0853 83.6 44.947C82.9125 43.8406 81.95 43.1492 80.85 42.4577C81.125 42.0428 81.2625 41.6279 81.4 41.213C82.9125 38.447 83.875 35.5428 83.875 32.5002C84.0125 29.596 83.4625 26.6917 81.125 24.4789C80.3 23.6492 79.6125 22.5428 78.7875 21.5747C77.55 20.0534 76.5875 18.3938 75.7625 16.596C75.4875 15.9045 75.075 15.3513 75.075 14.5215C75.075 14.1066 74.9375 13.5534 74.8 13.1385C74.6625 12.447 74.6625 11.8938 74.9375 11.2023C75.2125 10.6492 74.9375 10.3726 74.3875 10.3726C73.7 10.3726 73.15 10.5109 72.7375 10.9258C72.325 11.3406 71.775 11.8938 71.3625 12.3087C71.225 12.5853 71.0875 12.8619 70.95 13.1385C70.5375 15.6279 70.95 17.9789 71.0875 20.4683C71.0875 21.1598 71.5 21.8513 71.775 22.5428C71.6375 22.6811 71.5 22.6811 71.0875 22.9577C71.5 23.2343 71.9125 23.5109 72.325 23.7875C72.875 25.1704 73.425 26.83 73.975 28.4896C74.3875 29.596 74.8 30.7023 74.9375 31.947C75.35 33.7449 74.9375 35.5428 74.6625 37.3406C74.525 37.8938 74.3875 38.5853 74.1125 39.1385C73.425 39.0002 72.875 39.0002 72.1875 38.7236C70.675 38.3087 69.1625 38.1704 67.5125 38.1704C65.5875 38.1704 63.6625 38.1704 61.875 38.1704C61.05 38.1704 60.3625 38.1704 59.5375 38.8619C59.8125 38.8619 60.0875 38.8619 60.225 38.8619C63.25 38.8619 66.275 38.8619 69.3 39.0002C70.675 39.0002 71.9125 39.4151 73.2875 39.6917C73.5625 39.6917 73.8375 40.1066 74.1125 40.3832C74.3875 39.9683 74.9375 40.1066 75.625 40.2449C76.725 40.7981 77.825 41.213 78.925 41.7662C80.025 42.3194 80.85 43.1492 81.5375 44.3938C80.7125 44.947 79.75 45.3619 79.0625 46.0534C78.2375 46.6066 77.6875 47.4364 76.8625 48.1279C75.625 47.0215 74.525 45.9151 73.15 45.2236C74.1125 46.4683 75.625 47.1598 76.45 48.6811C75.075 50.7555 74.1125 53.1066 72.325 54.9045C72.1875 54.6279 72.05 54.6279 71.9125 54.3513C71.6375 53.7981 71.225 53.6598 70.8125 53.9364C69.1625 54.9045 67.375 54.3513 65.725 54.0747C64.075 53.7981 62.425 53.3832 60.775 52.9683C58.9875 52.5534 57.475 51.7236 55.9625 50.6172C54.8625 49.7874 54.0375 48.5428 53.7625 47.1598C53.625 46.4683 53.35 45.7768 53.2125 45.0853C53.075 44.5321 53.2125 43.8406 53.075 43.2874C52.3875 43.564 52.3875 43.9789 52.525 44.5321C52.6625 45.3619 52.9375 46.0534 53.075 46.8832C53.075 47.0215 53.2125 47.2981 53.2125 47.4364C53.4875 49.6492 54.8625 51.0321 56.7875 52.0002C58.85 53.2449 61.05 53.9364 63.525 54.3513C64.7625 54.4896 65.8625 54.7662 67.1 55.0428C69.1625 55.4577 69.1625 55.4577 71.225 54.7662C71.3625 54.9045 71.5 55.1811 71.775 55.4577C72.325 56.0109 72.4625 56.0109 73.0125 55.4577C73.7 54.6279 74.25 53.6598 74.8 52.6917C75.625 51.447 76.45 50.064 77.275 48.8194C78.5125 47.1598 80.1625 45.9151 82.0875 45.0853C83.7375 46.1917 87.45 53.5215 87.725 56.7023C86.625 56.1492 85.9375 55.1811 84.8375 54.6279L84.7 54.7662C84.8375 54.9045 84.975 55.0428 85.1125 55.1811C85.8 55.8726 86.625 56.4257 87.45 57.1172C87.8625 57.3938 88 57.8087 88 58.5002C87.8625 59.6066 87.8625 60.713 87.8625 61.9577C87.8625 62.3726 87.8625 62.9257 88.55 63.3406C88.825 62.5109 88.6875 61.6811 88.825 60.8513C88.9625 60.0215 89.1 59.1917 89.2375 58.3619C89.2375 57.5321 89.2375 56.7023 89.2375 55.7343C89.7875 56.9789 90.475 58.2236 90.8875 59.6066C91.7125 61.9577 91.9875 64.447 92.2625 66.9364C92.2625 67.213 92.2625 67.4896 92.2625 67.7662C92.2625 68.8726 92.125 69.9789 92.125 71.0853C92.125 71.2236 92.125 71.5002 92.125 71.6385C91.85 73.1598 91.575 74.8194 91.1625 76.3406C90.8875 77.3087 90.475 78.0002 90.0625 78.9683C89.375 80.6279 88.825 82.4258 88.275 84.2236C87.725 86.2981 87.0375 88.2343 85.9375 90.1704C85.1125 90.0321 84.7 89.2023 83.875 89.3406C84.425 89.7555 84.8375 90.0321 85.3875 90.447C85.9375 90.8619 85.9375 91.1385 85.3875 91.6917C85.1125 91.5534 84.7 91.4151 84.2875 91.2768C84.2875 91.4151 84.2875 91.5534 84.425 91.5534C85.25 92.2449 85.25 92.2449 84.8375 93.3513C84.425 94.3194 84.2875 95.2875 84.975 96.1172C85.1125 96.2555 85.1125 96.3938 85.1125 96.5321C86.35 97.0853 86.9 98.33 87.8625 99.1598C88.825 100.266 89.375 101.511 89.2375 103.032C89.2375 103.447 88.9625 103.862 88.825 104.553C88.275 103.585 88 102.894 87.5875 102.202C87.175 101.511 86.9 100.819 85.9375 100.404C86.075 101.373 86.9 101.787 87.175 102.479C87.45 103.17 88 103.862 87.8625 104.692C86.9 105.245 85.9375 105.107 84.8375 105.383C84.5625 104.415 84.2875 103.585 84.0125 102.756C83.6 101.234 83.05 99.713 82.6375 98.1917C82.3625 97.0853 82.0875 95.9789 82.3625 94.7343C82.775 92.3832 82.9125 90.0321 83.325 87.8194C83.7375 85.7449 84.15 83.5321 84.975 81.596C86.4875 78.4151 87.3125 75.096 88.275 71.7768C88.4125 71.3619 88.55 70.947 88.6875 70.3938C88.1375 70.1172 88 70.3938 87.8625 70.8087C87.725 71.3619 87.45 71.9151 87.3125 72.4683C86.4875 75.5109 85.525 78.4151 84.2875 81.3194C83.05 84.0853 82.5 86.9896 82.225 90.0321C82.225 90.447 82.0875 91.0002 81.95 91.5534C80.85 91.0002 80.025 90.0321 78.7875 89.8938C79.6125 90.447 80.4375 91.1385 81.2625 91.6917C81.8125 92.1066 82.0875 92.6598 81.8125 93.4896C81.125 93.0747 80.4375 92.6598 79.75 92.1066L79.6125 92.2449C80.025 92.6598 80.575 93.0747 80.9875 93.4896C82.0875 94.4577 82.0875 94.7343 80.9875 95.564C79.75 96.947 79.75 97.0853 79.6125 97.2236C79.2 97.9151 79.8875 98.33 80.025 99.0215C79.75 99.1598 79.6125 99.1598 79.2 99.4364C79.0625 98.7449 78.925 98.1917 78.925 97.6385C79.2 97.5002 79.475 97.3619 79.6125 97.2236ZM74.25 39.9683C74.25 39.6917 74.3875 39.4151 74.3875 39.1385C75.35 36.5109 75.35 33.7449 74.8 30.9789C74.6625 30.564 74.6625 30.1492 74.525 29.8726C74.25 29.1811 73.8375 28.4896 73.5625 27.7981C73.15 26.5534 72.7375 25.3087 72.1875 24.064C72.05 23.6492 72.1875 23.3726 72.6 23.096C72.7375 22.9577 73.15 23.096 73.425 23.2343C73.7 23.3726 73.8375 23.6492 74.1125 23.7875C74.8 24.3406 75.075 24.3406 75.9 23.7875C76.0375 23.6492 76.3125 23.3726 76.45 23.3726C77.1375 23.5109 77.275 23.096 77.4125 22.4045C79.2 24.3406 80.7125 26.1385 81.8125 28.3513C82.0875 28.7662 82.225 29.1811 82.225 29.7343C82.5 31.3938 82.3625 32.9151 82.225 34.5747C82.225 34.8513 82.0875 35.2662 81.95 35.6811C80.85 34.9896 80.025 34.4364 79.0625 33.8832L78.925 34.0215C79.6125 34.713 80.4375 35.2662 81.125 35.8194C81.675 36.2343 81.8125 36.7875 81.675 37.4789C81.125 39.1385 80.7125 40.7981 79.475 42.1811C77.55 41.4896 75.9 40.7981 74.25 39.9683ZM73.0125 14.3832C72.875 14.3832 72.875 14.5215 72.7375 14.5215C73.975 17.0109 75.35 19.5002 76.725 21.9896C76.5875 22.1279 76.3125 22.2662 76.175 22.4045C75.9 22.5428 75.7625 22.8194 75.625 23.096C74.9375 23.6492 74.8 23.7875 74.25 23.096C73.5625 22.4045 72.875 21.8513 71.775 22.8194C71.6375 22.2662 71.5 21.8513 71.3625 21.4364C71.225 19.2236 70.675 17.1492 70.8125 14.9364C70.95 13.5534 71.9125 12.7236 72.7375 11.8938C72.875 11.7555 73.0125 11.8938 73.2875 11.8938C73.2875 12.8619 73.425 13.6917 73.425 14.6598C73.2875 14.5215 73.15 14.5215 73.0125 14.3832ZM69.1625 94.596C69.1625 94.4577 69.1625 94.3194 69.1625 94.1811C69.575 92.2449 69.9875 90.1704 70.5375 88.2343C70.675 87.9577 70.675 87.5428 70.95 87.4045C71.775 86.713 72.05 85.7449 72.4625 84.7768C72.6 84.6385 72.6 84.3619 72.7375 84.0853C73.2875 84.5002 73.5625 84.7768 73.5625 85.33C73.5625 87.9577 73.7 90.5853 73.8375 93.213C73.8375 93.7662 73.8375 94.3194 73.7 95.0108C72.05 94.8726 70.675 94.7343 69.1625 94.596ZM53.2125 98.8832C53.075 98.8832 52.9375 98.7449 52.9375 98.7449C53.2125 98.33 53.35 97.9151 53.625 97.5002C53.625 97.5002 53.7625 97.5002 53.7625 97.6385C53.4875 98.0534 53.35 98.4683 53.2125 98.8832ZM74.25 95.8406C74.9375 95.7023 75.075 96.1172 74.9375 96.6704C74.6625 96.3938 74.525 96.1172 74.25 95.8406ZM42.075 81.4577L42.2125 81.3194C42.35 81.4577 42.625 81.596 42.7625 81.7343C42.7625 81.7343 42.7625 81.8726 42.625 81.8726C42.4875 81.7343 42.2125 81.596 42.075 81.4577Z" fill="black"/>
<path d="M58.9879 63.4791C59.1254 63.7557 59.1254 63.894 59.1254 64.1706C59.4004 63.4791 59.5379 62.9259 59.8129 62.0961C59.5379 62.0961 59.2629 61.9578 59.1254 62.0961C58.8504 62.3727 58.4379 62.511 58.3004 62.9259C57.4754 64.4472 56.5129 65.8302 55.8254 67.3515C55.4129 68.1812 55.1379 69.011 54.7254 69.7025C53.9004 71.2238 53.6254 72.7451 53.2129 74.4046C53.2129 74.5429 53.2129 74.8195 53.2129 75.0961C53.7629 76.894 54.1754 78.6919 54.7254 80.4897C55.0004 81.3195 55.2754 82.1493 55.5504 82.9791C56.2379 84.9153 56.5129 86.8515 55.9629 88.9259C55.6879 89.894 55.2754 90.8621 54.8629 91.6919C54.5879 92.1068 54.1754 92.5217 53.9004 92.9366C54.4504 93.3514 54.8629 93.3515 55.1379 92.66C56.3754 90.3089 57.4754 87.9578 56.7879 85.1919C56.5129 84.0855 56.1004 82.9791 55.8254 81.8727C55.2754 79.66 54.5879 77.4472 54.0379 75.0961C53.7629 73.7132 54.3129 72.4685 54.8629 71.2238C55.1379 70.5323 55.5504 69.8408 55.8254 69.1493C56.5129 67.0749 57.6129 65.4153 58.7129 63.6174C58.7129 63.6174 58.7129 63.6174 58.9879 63.4791Z" fill="black"/>
<path d="M44.5502 57.532C43.7252 56.8405 44.2752 56.149 44.2752 55.4575C46.0627 56.149 47.5752 57.1171 49.2252 58.3618C48.8127 57.3937 47.5752 56.5639 44.2752 55.0426C44.5502 53.5213 44.8252 52.1384 45.5127 50.7554C46.2002 49.3724 47.3002 48.4043 48.5377 47.4362C48.2627 47.1596 48.1252 47.0213 47.9877 46.7447C47.9877 46.7447 47.9877 46.6065 48.1252 46.6065C49.9127 44.9469 51.9752 43.7022 54.3127 42.8724C55.1377 42.5958 55.9627 42.3192 56.6502 42.0426C56.7877 42.0426 57.0627 41.9043 57.2002 41.766C57.3377 41.6277 57.2002 41.3511 57.0627 41.2128C56.9252 41.0745 56.6502 41.2128 56.3752 41.2128C53.7627 41.9043 51.1502 43.0107 49.0877 44.8086C48.1252 45.6384 47.1627 46.1916 46.2002 47.0213C45.5127 47.5745 45.5127 47.5745 46.0627 48.5426C44.2752 50.2022 44.4127 52.8299 43.4502 54.9043C44.1377 56.9788 43.0377 59.0533 44.1377 60.9894C44.1377 60.4362 44.1377 59.7447 44.0002 59.1916C44.0002 58.7767 44.0002 58.2235 44.1377 57.8086C44.1377 57.6703 44.4127 57.6703 44.5502 57.532Z" fill="black"/>
<path d="M71.6377 108.702C73.5627 109.117 81.4002 108.287 82.3627 107.734C82.0877 107.596 81.9502 107.458 81.6752 107.458C81.6752 107.458 81.5377 107.458 81.4002 107.458C78.2377 107.872 74.9377 108.287 71.6377 108.702Z" fill="black"/>
<path d="M63.5254 85.0533C63.8004 86.7129 66.0004 87.5426 67.2379 86.4363C67.5129 86.298 67.5129 85.8831 67.6504 85.3299C66.9629 85.4682 66.6879 85.4682 66.2754 85.6065C65.5879 85.8831 65.0379 85.8831 64.6254 85.3299C64.2129 85.0533 63.9379 84.915 63.5254 85.0533Z" fill="black"/>
<path d="M70.4 64.5853C69.4375 63.7555 68.3375 62.9258 67.1 62.3726C66.9625 63.3406 67.7875 63.6172 68.0625 64.3087C67.65 64.1704 67.2375 64.1704 66.6875 64.0321C66.6875 64.447 66.6875 64.8619 66.6875 65.1385H66.825C66.9625 64.8619 67.1 64.7236 67.2375 64.447C67.925 64.7236 68.475 65.1385 69.1625 65.4151C69.3 64.8619 68.8875 64.5853 68.75 64.447C68.6125 64.1704 68.3375 63.8938 68.0625 63.4789C69.025 63.8938 69.575 64.7236 70.4 64.5853Z" fill="black"/>
<path d="M50.8754 85.4685C50.6004 86.16 51.0129 86.2983 51.2879 86.5749C51.9754 86.9898 52.8004 87.4047 53.6254 86.7132C54.0379 86.4366 54.5879 86.0217 54.3129 85.1919C53.9004 85.4685 53.4879 85.6068 53.3504 85.8834C52.9379 86.2983 52.5254 86.2983 52.1129 86.0217C51.7004 85.8834 51.2879 85.7451 50.8754 85.4685Z" fill="black"/>
<path d="M81.2629 105.798C81.5379 104.692 80.7129 101.511 80.0254 100.681C80.3004 102.479 81.1254 104.139 81.2629 105.798Z" fill="black"/>
<path d="M67.3753 97.0851C66.1378 96.117 64.7628 95.2872 63.1128 95.1489C64.4878 95.8404 65.8628 96.6702 67.2378 97.3617C67.3753 97.2234 67.3753 97.0851 67.3753 97.0851Z" fill="black"/>
<path d="M64.3501 82.0108C64.6251 82.1491 64.7626 82.4257 64.9001 82.4257C65.5876 82.4257 66.2751 82.2874 66.9626 82.1491C67.1001 82.1491 67.2376 81.8725 67.3751 81.5959C67.2376 81.4576 66.9626 81.3193 66.8251 81.3193C66.0001 81.5959 65.1751 81.5959 64.3501 82.0108Z" fill="black"/>
<path d="M53.35 83.3939C53.4875 82.8407 53.2125 82.7024 52.9375 82.7024C52.1125 82.5641 51.15 82.2875 50.1875 83.1173C51.425 83.2556 52.3875 83.2556 53.35 83.3939Z" fill="black"/>
<path d="M40.8374 67.9043C40.8374 68.0426 40.9749 68.3192 40.9749 68.3192C42.0749 69.149 43.0374 69.8405 44.1374 70.6703H44.2749C44.1374 69.9788 42.0749 68.4575 40.8374 67.9043C40.8374 68.0426 40.8374 67.9043 40.8374 67.9043Z" fill="black"/>
<path d="M75.3503 49.7872C74.5253 48.5425 73.2878 47.9893 72.0503 47.2979C73.0128 48.4042 74.2503 48.9574 75.3503 49.7872Z" fill="black"/>
<path d="M40.7002 69.7021C41.6627 70.5319 42.7627 71.5 43.7252 72.3298C43.1752 70.9468 41.9377 70.3936 40.7002 69.7021Z" fill="black"/>
<path d="M44.5503 57.5322C45.6503 58.2237 46.8878 58.9152 48.1253 59.6067C47.9878 58.9152 48.1253 58.9152 46.6128 58.2237C45.7878 57.9471 45.2378 57.8088 44.5503 57.5322Z" fill="black"/>
<path d="M63.9375 92.5215C65.175 93.3513 66.275 94.0428 67.375 94.8725C67.2375 94.1811 65.175 92.7981 63.9375 92.5215Z" fill="black"/>
<path d="M84.5625 57.5322C85.1125 58.362 85.9375 59.0535 86.9 59.4684C86.35 58.5003 85.3875 58.0854 84.5625 57.5322Z" fill="black"/>
<path d="M80.7127 106.075C80.8502 104.969 80.7127 103.862 80.1627 102.894C80.0252 102.894 80.0252 102.894 79.8877 102.894C80.1627 104 80.4377 105.107 80.7127 106.075Z" fill="black"/>
<path d="M52.25 68.043C52.9375 68.5962 53.625 69.1494 54.3125 69.7025C54.175 68.8728 53.625 68.4579 52.25 68.043Z" fill="black"/>
<path d="M53.9003 70.3941C53.4878 69.2877 53.0753 68.8728 52.1128 68.5962C52.6628 69.1494 53.3503 69.8409 53.9003 70.3941Z" fill="black"/>
<path d="M77.6875 35.1279C78.65 36.5109 79.8875 37.479 80.9875 37.6173C79.8875 36.7875 78.925 35.9577 77.6875 35.1279Z" fill="black"/>
</svg>
