<svg width="67" height="65" viewBox="0 0 67 65" fill="none" xmlns="http://www.w3.org/2000/svg">
<path d="M59.5098 34.69C59.1898 36.8 58.8298 39.08 58.5098 41.37C58.1098 44.25 56.4898 46.54 54.6898 48.61C52.5398 51.09 50.0398 53.19 46.9998 54.71C42.5698 56.93 37.8598 57.81 33.0598 58.05C26.5098 58.37 20.6698 56.34 15.4598 52.17C11.7198 49.18 9.76977 45.17 7.84977 41.05C7.51977 40.35 7.35977 39.47 7.42977 38.7C7.67977 35.86 7.57977 32.85 8.51977 30.24C9.73977 26.86 10.7098 23.36 12.7498 20.22C14.9398 16.87 17.4798 13.99 20.7298 11.77C23.5498 9.83999 26.6798 8.52999 30.1598 8.29999C30.6898 8.26999 31.2298 8.24999 31.7598 8.15999C39.9698 6.75999 46.5498 10.07 52.4098 15.35C55.8798 18.47 57.3798 22.71 58.4698 27.05C59.0898 29.45 59.1698 31.98 59.5098 34.69ZM57.6498 34.49C57.8398 28.11 56.0898 22.24 51.7598 17.32C47.8398 12.86 42.7798 10.07 36.9298 9.58999C31.3998 9.13999 26.1898 10.79 21.7098 14.37C16.4598 18.56 12.9398 24.03 10.5798 30.13C9.52977 32.85 9.10977 36.2 9.61977 39.05C10.9498 46.41 15.6198 51.55 22.4598 54.34C30.1098 57.45 37.8298 56.92 45.2998 53.45C53.2698 49.74 57.9498 43.79 57.6498 34.49Z" fill="#EB584A"/>
<path d="M34.0599 7.52998C35.6599 7.09998 37.3899 7.58998 38.7799 8.48998C40.1699 9.38998 41.2599 10.66 42.2899 11.96C40.4699 12.3 38.9499 13.62 37.9999 15.2C37.0499 16.78 36.6099 18.62 36.3199 20.45C35.4799 25.73 35.7799 31.11 36.0899 36.45C36.2199 38.66 36.3399 40.86 36.4699 43.07C36.5499 44.47 36.6599 45.96 37.4599 47.11C38.2899 48.29 39.6999 48.9 41.0199 49.49C44.7299 51.15 48.3099 53.1 51.7199 55.32C51.9699 55.48 52.2299 55.68 52.2699 55.97C52.3299 56.47 51.6899 56.73 51.1999 56.8C48.0299 57.26 44.7999 56.98 41.5999 57.16C34.3899 57.58 27.0299 60.35 20.1499 58.18C20.4199 56.93 21.7299 56.24 22.8599 55.64C25.1399 54.43 27.2399 52.89 29.0799 51.08C29.8599 50.31 30.6099 49.47 30.9699 48.43C31.1999 47.77 31.2699 47.06 31.3199 46.36C31.7399 41.1 31.8999 35.82 31.7999 30.55C31.6999 25.49 31.8599 19.75 30.6499 14.83C28.6899 14.92 27.0799 13.79 27.9699 11.63C28.7099 9.79998 32.2399 8.01998 34.0599 7.52998Z" fill="white"/>
<path d="M25.97 36.98C24.81 37.33 24.04 38.42 23.48 39.49C22.92 40.56 22.44 41.73 21.53 42.53C20.09 43.78 17.99 43.77 16.13 44.2C13.83 44.72 11.42 44.27 9.86997 42.24C9.04997 41.16 8.58997 39.19 9.91997 38.3C11.45 37.26 15.37 38.1 17.17 38.05C20.12 37.97 23.09 37.72 25.97 36.98Z" fill="white"/>
<path d="M48.3297 44.25C49.6897 45.04 51.4097 45.01 52.8997 44.52C54.3997 44.03 55.7197 43.14 57.0097 42.24C57.3897 41.97 57.7797 41.7 58.0597 41.33C58.4897 40.75 58.6097 40 58.7097 39.28C58.8197 38.52 58.9197 37.77 59.0297 37.01C59.0497 36.88 59.0597 36.74 58.9997 36.62C58.9297 36.5 58.7797 36.44 58.6397 36.41C58.0897 36.27 57.5297 36.26 56.9697 36.26C54.8297 36.24 52.6897 36.29 50.5597 36.43C48.8297 36.54 45.6497 36.26 44.2197 37.38C42.0597 39.06 46.6097 43.25 48.3297 44.25Z" fill="white"/>
<path d="M13.0199 44.89C13.6599 45.12 14.3399 45.3 15.0099 45.18C16.1799 44.97 17.0499 43.73 16.8599 42.57C16.6199 41.16 15.1899 40.32 13.8799 39.74C12.6399 39.18 8.30993 36.79 7.49993 39.12C6.60993 41.64 11.2999 44.27 13.0199 44.89Z" fill="#BCBCBB"/>
<path d="M49.1301 44.58C50.0101 44.75 50.9601 44.75 51.7801 44.37C52.6001 43.99 53.2201 43.13 53.1401 42.23C53.0501 41.29 52.2601 40.58 51.4801 40.05C49.8301 38.93 45.2101 36.02 43.9801 38.85C42.7201 41.76 46.9101 44.16 49.1301 44.58Z" fill="#BCBCBB"/>
<path d="M52.8597 54.01C48.5597 52.2 44.2797 50.34 39.9297 48.69C37.7597 47.87 37.5097 47.85 37.3697 45.59C36.7897 36.16 36.8097 26.73 37.6997 17.31C37.7997 16.22 38.2197 15.16 38.4497 14.24C40.9497 13.81 43.1097 13.43 45.2697 13.09C45.7297 13.02 46.2697 12.97 46.6597 13.15C47.9397 13.74 49.1797 13.89 50.3897 13.81C50.3697 13.78 50.3397 13.75 50.3197 13.72C50.2097 13.55 50.0997 13.38 50.0197 13.2C49.8897 12.91 49.7497 12.6 49.6697 12.28C48.9797 12.21 48.2997 11.93 47.6597 11.27C47.4797 11.09 47.1397 11.07 46.8697 10.97C43.3597 9.68999 39.8397 8.39999 36.1497 7.05999C36.1297 7.05999 36.1097 7.04999 36.0997 7.04999C35.9697 7.01999 35.8197 6.99999 35.6797 6.98999C35.3597 6.95999 35.0297 6.92999 34.7097 6.91999C34.3597 6.90999 34.0097 6.89999 33.6497 6.91999C33.4797 6.92999 33.3097 6.93999 33.1297 6.94999C33.0897 6.94999 33.0097 6.95999 32.9397 6.97999C32.6797 7.02999 32.4197 7.07999 32.1597 7.14999C31.9997 7.18999 31.8497 7.24999 31.6897 7.29999C31.6597 7.30999 31.6397 7.30999 31.6197 7.31999C31.6097 7.31999 31.6097 7.31999 31.5997 7.32999C31.5397 7.35999 31.4797 7.39999 31.4197 7.42999C31.1797 7.83999 30.8497 8.19999 30.3697 8.50999C28.5197 9.68999 26.6597 10.87 24.9197 12.2C23.3897 13.37 21.7797 13.91 19.8697 13.63C18.3597 13.41 16.7997 13.43 15.3397 13.06C14.9997 12.97 14.6497 12.86 14.3097 12.74C14.2497 12.8 14.1897 12.86 14.1297 12.91C13.8997 13.25 13.6897 13.59 13.4897 13.95C13.8597 14.05 14.2397 14.12 14.6497 14.16C17.7597 14.43 20.8497 15.53 23.9997 14.48C27.6897 15.55 31.3297 14.43 34.9897 14.23C35.2397 14.22 35.4997 14.41 35.9697 14.59C35.9197 25.46 35.8697 36.36 35.8197 47.42C34.7797 47.43 33.9597 47.45 32.9297 47.46C32.6797 45.97 32.2197 44.58 32.2397 43.2C32.3497 36.72 32.6197 30.25 32.7897 23.78C32.8397 21.8 32.7797 19.82 32.7097 17.84C32.6997 17.53 32.3697 17.24 32.2297 17C30.6197 17.13 30.8097 18.25 30.8097 19.15C30.7897 25.91 30.7697 32.68 30.8297 39.44C30.8597 42.36 30.1197 45.34 31.6497 48.18C28.1697 51.66 23.2197 52.94 20.1997 56.78C21.1597 56.62 21.9297 56.16 22.6797 55.69C25.6597 53.8 28.6497 51.94 31.6097 50.01C33.0597 49.06 34.5397 48.84 36.2297 49.14C41.0797 49.99 45.5697 51.8 49.8497 54.17C50.2297 54.38 50.5397 54.72 51.3797 55.4C44.2397 56.31 37.7097 57.21 30.8097 55.57C30.2597 55.82 29.3597 56.24 28.4697 56.65L28.2397 56.29C28.7297 55.65 29.2297 55 29.7197 54.36C28.1397 55.29 25.7597 55.51 26.2097 58.3C27.1497 58.29 27.9897 58.31 28.8297 58.27C32.2497 58.1 35.6697 57.93 39.0897 57.72C43.2797 57.47 47.4597 57.22 51.6397 56.92C52.7797 56.84 53.9198 56.61 54.2197 55.06C53.7497 54.67 53.3597 54.22 52.8597 54.01ZM25.8497 13.68C31.9597 7.92999 36.3497 6.73999 42.0597 12.19C36.7497 12.67 31.4497 13.16 25.8497 13.68Z" fill="black"/>
<path d="M14.5699 12.98C15.0199 13.54 15.5999 14.04 15.9099 14.66C17.0199 16.93 18.1399 19.21 19.0799 21.56C19.9899 23.85 20.5999 26.25 21.4699 28.55C22.2599 30.65 23.1899 32.71 24.1499 34.74C24.3999 35.28 24.9699 35.66 25.5799 36.33C24.9199 37.54 24.2499 38.92 23.4499 40.21C22.6799 41.45 21.8799 42.71 20.9099 43.79C19.1399 45.76 14.3699 46.48 11.4899 44.56C9.81985 43.45 8.38985 42.13 7.33985 40.47C6.83985 39.68 6.59985 38.66 6.46985 37.72C6.41985 37.35 6.90985 36.58 7.23985 36.53C8.09985 36.4 8.31985 35.88 8.33985 35.23C8.42985 32.27 9.83985 29.66 10.5599 26.88C11.2199 24.36 11.9999 21.88 12.6499 19.36C13.1699 17.33 13.5699 15.26 14.0199 13.21C14.1899 13.14 14.3799 13.06 14.5699 12.98ZM23.5799 37.1C20.5899 37.26 17.9899 37.4 15.3899 37.54C12.8399 37.68 10.2299 37.19 7.63985 38.08C8.04985 39.8 8.94985 40.96 10.2899 41.89C11.6999 41.04 12.9499 40.01 15.0099 39.52C13.4199 40.67 12.2499 41.51 11.0999 42.34C11.6599 43.47 12.2599 43.18 12.9299 42.8C14.1199 42.12 15.3499 41.49 16.5599 40.84C16.6299 40.96 16.6999 41.07 16.7699 41.19C15.5899 41.98 14.4199 42.77 13.1999 43.59C14.3899 44.59 16.2999 44.84 18.2399 44.11C21.3399 42.94 22.3899 40.14 23.5799 37.1ZM22.9599 35.68C22.5899 34.87 22.3199 34.31 22.0699 33.74C21.4999 32.45 20.7699 31.2 20.4099 29.86C19.3199 25.77 17.9999 21.78 16.0499 18.01C15.8499 17.62 15.5699 17.28 15.2399 16.78C14.7899 18.66 16.0199 34.19 16.7499 36.33C18.7099 36.24 20.7299 36.47 22.9599 35.68ZM13.8599 20.27C13.5999 20.49 13.4299 20.55 13.3999 20.66C12.1599 24.78 10.8799 28.89 9.72985 33.03C9.43985 34.07 9.54985 35.22 9.45985 36.41C11.4399 36.69 13.1499 36.62 15.1399 36.33C14.7099 30.89 14.2899 25.64 13.8599 20.27Z" fill="black"/>
<path d="M49.5 12.98C49.95 13.54 50.53 14.04 50.84 14.66C51.95 16.93 53.07 19.21 54.01 21.56C54.92 23.85 55.53 26.25 56.4 28.55C57.19 30.65 58.12 32.71 59.08 34.74C59.33 35.28 59.9 35.66 60.51 36.33C59.85 37.54 59.18 38.92 58.38 40.21C57.61 41.45 56.81 42.71 55.84 43.79C54.07 45.76 49.3 46.48 46.42 44.56C44.75 43.45 43.32 42.13 42.27 40.47C41.77 39.68 41.53 38.66 41.4 37.72C41.35 37.35 41.84 36.58 42.17 36.53C43.03 36.4 43.25 35.88 43.27 35.23C43.36 32.27 44.77 29.66 45.49 26.88C46.15 24.36 46.93 21.88 47.58 19.36C48.1 17.33 48.5 15.26 48.95 13.21C49.13 13.14 49.31 13.06 49.5 12.98ZM58.52 37.1C55.53 37.26 52.93 37.4 50.33 37.54C47.78 37.68 45.17 37.19 42.58 38.08C42.99 39.8 43.89 40.96 45.23 41.89C46.64 41.04 47.89 40.01 49.95 39.52C48.36 40.67 47.19 41.51 46.04 42.34C46.6 43.47 47.2 43.18 47.87 42.8C49.06 42.12 50.29 41.49 51.5 40.84C51.57 40.96 51.64 41.07 51.71 41.19C50.53 41.98 49.36 42.77 48.14 43.59C49.33 44.59 51.24 44.84 53.18 44.11C56.28 42.94 57.33 40.14 58.52 37.1ZM57.9 35.68C57.53 34.87 57.26 34.31 57.01 33.74C56.44 32.45 55.71 31.2 55.35 29.86C54.26 25.77 52.94 21.78 50.99 18.01C50.79 17.62 50.51 17.28 50.18 16.78C49.73 18.66 50.96 34.19 51.69 36.33C53.64 36.24 55.67 36.47 57.9 35.68ZM48.8 20.27C48.54 20.49 48.37 20.55 48.34 20.66C47.1 24.78 45.82 28.89 44.67 33.03C44.38 34.07 44.49 35.22 44.4 36.41C46.38 36.69 48.09 36.62 50.08 36.33C49.65 30.89 49.23 25.64 48.8 20.27Z" fill="black"/>
</svg>
